<svg xmlns="http://www.w3.org/2000/svg" width="128" height="128"><path fill="#fff" d="M102.069 72.644c-1.532-1.55-3.712-2.401-6.047-2.151-5.411-.122-6.213-4.356-4.686-12.346.561-1.416.805-2.934.755-4.451.149-4.084-1.905-8.111-5.685-10.302-.461-.266-.936-.484-1.417-.681l-.393-.156-.447-.155c-.285-.096-.575-.182-.87-.256l-2.873-.343c-4.072.038-7.617 2.213-9.603 5.444-2.726 2.988-3.956 4.805-6.759 4.805-2.663 0-4.036-1.816-6.76-4.805-1.987-3.231-5.532-5.407-9.605-5.444-1.31-.014-2.564.202-3.741.599l-.445.155-.396.156c-.479.197-.956.415-1.413.681-3.785 2.19-5.837 6.218-5.688 10.302-.051 1.517.196 3.036.755 4.451 1.525 7.99.725 12.224-4.683 12.346-2.65-.285-4.627.807-6.626 2.808-2.002 2.001-1.837 7.353 0 9.69 1.332 1.698 3.139 2.873 5.328 3.149 4.216.529 7.96-2.54 8.359-6.856.132-1.457-.141-2.87-.71-4.121-5.908-12.963 23.239-13.259 18.315-1.022l-.034.052c-2.329 3.722-1.067 8.562 2.806 10.801 1.424.822 2.999 1.167 4.541 1.104 1.541.063 3.118-.282 4.54-1.104 3.871-2.239 5.132-7.078 2.804-10.801l-.034-.052c-4.922-12.237 24.225-11.941 18.315 1.022-.571 1.251-.84 2.665-.71 4.121.399 4.316 4.141 7.386 8.36 6.856 1.875-.236 3.528-1.144 4.751-2.458 0 0 1.963-1.627 1.931-5.779-.032-3.385-1.935-5.259-1.935-5.259zm-32.981-4.242c-.755.716-1.698 1.334-2.852 1.601-.684.198-1.413.36-2.162.36h-.064c-.749 0-1.475-.162-2.163-.36-1.151-.267-2.098-.772-2.851-1.487-1.732-1.438-2.835-3.643-2.835-6.07 0-4.338 3.516-7.867 7.849-7.867l.034-.006.031-.008c4.333 0 7.848 3.51 7.848 7.847 0 2.428-1.103 4.552-2.835 5.99z"/></svg>