<svg xmlns="http://www.w3.org/2000/svg" width="128" height="128"><path fill="#fff" d="M100.66 69.791c.299-1.889.456-3.821.456-5.794 0-20.499-16.617-37.116-37.117-37.116-1.967 0-3.905.162-5.792.457-3.419-2.114-7.454-3.338-11.777-3.338-12.387 0-22.429 10.041-22.429 22.429 0 4.323 1.225 8.354 3.339 11.779-.292 1.892-.453 3.818-.453 5.79 0 20.5 16.617 37.112 37.112 37.112 1.969 0 3.907-.152 5.794-.45 3.422 2.111 7.453 3.339 11.777 3.339 12.39 0 22.431-10.043 22.431-22.432-.001-4.322-1.225-8.353-3.341-11.776zm-19.039 11.087c-1.571 2.26-3.876 4.027-6.891 5.297-3.02 1.273-6.589 1.907-10.711 1.907-4.94 0-9.031-.864-12.259-2.61-2.289-1.25-4.15-2.927-5.581-5.019-1.434-2.092-2.161-4.141-2.161-6.139 0-1.179.45-2.204 1.324-3.04.884-.842 2.023-1.264 3.367-1.264 1.101 0 2.047.332 2.817.988.764.657 1.405 1.612 1.93 2.872.628 1.46 1.311 2.681 2.037 3.654.722.962 1.738 1.765 3.053 2.394 1.301.63 3.033.945 5.2.945 2.965 0 5.363-.641 7.196-1.907 1.844-1.276 2.73-2.83 2.73-4.708 0-1.497-.478-2.687-1.457-3.614-.988-.939-2.264-1.654-3.847-2.153-1.589-.504-3.724-1.039-6.398-1.603-3.591-.783-6.595-1.696-9.027-2.743-2.436-1.052-4.375-2.49-5.812-4.306-1.441-1.834-2.159-4.113-2.159-6.812 0-2.574.758-4.876 2.276-6.88 1.517-2.009 3.713-3.547 6.575-4.618 2.852-1.071 6.211-1.606 10.058-1.606 3.076 0 5.738.356 7.99 1.064 2.247.714 4.119 1.655 5.616 2.836 1.489 1.179 2.583 2.422 3.276 3.727.692 1.308 1.042 2.587 1.042 3.834 0 1.16-.45 2.212-1.325 3.133-.876.924-1.996 1.394-3.305 1.389-1.18 0-2.105-.272-2.747-.848-.625-.557-1.281-1.444-1.991-2.681-.897-1.725-1.972-3.069-3.222-4.031-1.217-.943-3.225-1.435-6.019-1.428-2.585 0-4.653.528-6.214 1.561-1.571 1.05-2.322 2.268-2.325 3.694.003.894.26 1.648.777 2.292.525.651 1.256 1.214 2.196 1.69.94.483 1.895.856 2.856 1.124.972.276 2.584.674 4.825 1.201 2.811.606 5.361 1.283 7.651 2.02 2.286.741 4.237 1.636 5.85 2.7 1.625 1.062 2.895 2.416 3.802 4.052.912 1.638 1.367 3.639 1.367 5.993.003 2.837-.787 5.387-2.36 7.643z"/></svg>