<svg xmlns="http://www.w3.org/2000/svg" width="128" height="128"><path fill="#000000" d="M88.44 51.866c-1.958.528-19.868 14.417-21.049 17.825-.26 1.177.026 12.593.286 14.304 1.18.262 9.7.034 11.263.295l-.187 3.529c-1.532-.119-12.358-.091-18.535-.091-3.14 0-13.231.347-16.331.256l.586-3.358c1.701-.126 8.739.313 10.281-1.331.767-.818.526-11.666.266-13.5-.652-1.962-16.348-21.628-20.449-24.851h-10.571v-4.944h35.652v.341l.121.012-.121.836v3.756h-10.751c4.792 7.007 11.662 15.467 14.592 19.532l14.36-13.013h-8.535l-1.203-4.939h31.267l-.231.352.11.005-2.234 3.24-.071.011-.9 1.331h-5.768l-1.848.402zm10.202 30.963l-2.76-.136-3.079-.375.025 5.279 2.429.209 2.618.194.767-5.171zm5.358-25.236c-.932-.033-9.401-.835-10.501-1.052l.13 22.304 4.793.388c-.001-.001 5.578-21.64 5.578-21.64z"/></svg>