<svg xmlns="http://www.w3.org/2000/svg" width="128" height="128"><path d="M100.113 62.048c-.309.22-1.005.433-1.005.641v-30.992c0-4.302-3.074-7.693-7.054-7.693h-56.14c-3.98 0-6.806 3.391-6.806 7.693v31.021c-1-.217-.847-.439-1.17-.67-2.391-1.669-4.062.603-2.595 2.774 2.855 3.497 8.23 7.84 16.551 11.256-8.803 29.988 21.459 34.753 21 19.38.001-.185.004-8.897.016-15.123.795.187 1.479.371 2.128.53.011 6.179.023 14.413.024 14.593-.459 15.373 29.847 10.608 21.024-19.38 8.321-3.416 13.708-7.759 16.561-11.256 1.466-2.17-.142-4.442-2.534-2.774zm-29.969 7.639c-3.706-.186-5.001 1.406-5.184 3.863-.89-.634-1.762-1.389-2.695-2.255l-.388-.362c-.809-.88-2.09-1.351-4.202-1.245-4.965.156-14.568 1.145-24.568-4.402v-30.072c0-5.447 1.259-7.21 6.244-7.21h49.688c4.723 0 6.069 2.085 6.069 7.21v29.815c-11 5.834-19.923 4.816-24.964 4.658zm-7.216-12.704c0 4.986-4.321 9.025-9.648 9.025-5.326 0-9.648-4.039-9.648-9.025 0-4.985 4.321-9.025 9.648-9.025s9.648 4.041 9.648 9.025zm22.453 0c0 4.986-4.322 9.025-9.648 9.025-5.327 0-9.649-4.039-9.649-9.025 0-4.985 4.322-9.025 9.649-9.025 5.326 0 9.648 4.041 9.648 9.025z"/></svg>