<svg xmlns="http://www.w3.org/2000/svg" width="128" height="128"><path fill="#fff" d="M103.5 29.672v42.911c0 20.453-9.255 30.944-28.244 30.944h-24l-21.655.227 32.219-32.164c.306-.302.568-.408.886-.407.561.001.853.414.998.938.03.108-.204.349-.204.466v12.943c4 0 9.278.181 11.905-.334 7.521-1.211 10.095-6.603 10.095-15.077v-21.797l18-18.65zm-61 28.157c0-8.473 2.074-13.866 9.595-15.076 2.627-.515 8.405-.334 11.405-.334v12.941c0 .118.252.329.282.437.146.524.736.908 1.297.909.317.001.673-.164.979-.466l32.265-31.993-21.609.279h-23.999c-18.989 0-28.215 10.387-28.215 30.84v42.911l18-18.65v-21.798z"/></svg>