<svg xmlns="http://www.w3.org/2000/svg" width="128" height="128" ><path d="m 24.353237,40.174941 c 0,0 11.984861,0 13.135407,0 2.109336,0 5.656855,7.286795 6.999159,9.971404 1.342304,2.684609 6.90328,10.834314 7.76619,11.217829 0.86291,0.383516 2.205214,0.575274 2.205214,-0.575273 0,-1.150547 0,-13.710681 0,-14.861227 0,-3.355761 -3.529638,-0.909952 -4.122792,-3.355761 -0.58131,-2.396972 0.958789,-4.506308 4.122792,-4.506308 3.164003,0 9.779646,0 12.464255,0 5.752733,0 5.752733,3.068125 5.752733,4.985702 0,1.917578 0,15.915895 0,17.2582 0,1.342304 1.342305,1.917577 2.109336,1.150546 0.767031,-0.767031 3.383692,-1.377968 7.095037,-10.642556 4.543568,-11.342056 4.985702,-10.642556 5.848612,-10.642556 0.86291,0 14.19008,0 15.82002,0 1.62994,0 3.35576,1.438183 3.35576,2.58873 0,1.150546 1.24643,3.547519 -5.56098,11.409587 -3.166134,3.65666 -8.149703,10.35492 -7.957945,11.601345 0.191758,1.246426 5.273338,6.328007 7.574435,8.820858 2.30109,2.492851 6.71152,6.807401 6.328,8.724978 -0.38351,1.917578 -1.43818,4.026913 -4.60218,4.026913 -3.164007,0 -11.50547,0 -13.806563,0 -2.301093,0 -11.741397,-11.561989 -13.327165,-11.98486 -2.876367,-0.767031 -2.876367,2.684609 -2.876367,4.985702 0,2.301093 0,6.999158 -3.259882,6.999158 -2.561455,0.08834 -7.579277,0.07933 -9.394073,0 -3.449684,-0.15079 -2.997364,0 -6.833337,-2.179163 C 49.768354,83.225023 45.502613,80.019846 33.078216,63.377631 27.613119,55.419683 22.531538,46.119432 22.435659,43.914217 c -0.09588,-2.205214 0.575274,-3.739276 1.917578,-3.739276 z" /></svg>
