<svg xmlns="http://www.w3.org/2000/svg" width="128" height="128"><path fill-rule="evenodd" clip-rule="evenodd" fill="#000000" d="M57.076 24h-4.528l-3.053 11.744-3.181-11.744h-4.712l2.871 8.333c1.436 4.171 2.332 7.315 2.736 9.463v12.111h4.479v-12.111l5.388-17.796zm11.969 22.692v-7.807c0-2.382-.408-4.123-1.253-5.25-1.118-1.522-2.688-2.284-4.712-2.284-2.012 0-3.585.762-4.702 2.284-.858 1.127-1.265 2.869-1.265 5.25v7.807c0 2.368.406 4.123 1.265 5.242 1.117 1.519 2.691 2.282 4.702 2.282 2.024 0 3.593-.762 4.712-2.282.845-1.118 1.253-2.874 1.253-5.242zm-4.04.76c0 2.062-.623 3.094-1.925 3.094-1.303 0-1.928-1.032-1.928-3.094v-9.376c0-2.062.625-3.088 1.928-3.088 1.302 0 1.925 1.027 1.925 3.088v9.376zm18.975 6.455v-22.286h-4.04v17.033c-.894 1.266-1.743 1.892-2.55 1.892-.543 0-.858-.32-.947-.946-.049-.131-.049-.623-.049-1.572v-16.407h-4.026v17.623c0 1.572.135 2.641.358 3.314.403 1.13 1.301 1.658 2.601 1.658 1.472 0 3.006-.896 4.613-2.741v2.432h4.04zm4.129 25.689v2.039h-4.009v-2.039c0-2.039.675-3.061 2.01-3.061 1.323 0 1.999 1.021 1.999 3.061zm-15.124-.05v9.412c0 1.992-.543 2.974-1.696 2.974-.657 0-1.219-.314-1.948-.982v-13.444c.729-.657 1.292-.971 1.948-.971 1.153 0 1.696 1.021 1.696 3.011zm22.933-14.223c-.808-3.514-3.685-6.107-7.146-6.494-8.201-.918-16.501-.921-24.763-.918-8.263-.003-16.563 0-24.762.918-3.462.387-6.338 2.98-7.145 6.494-1.153 5.011-1.166 10.475-1.166 15.634 0 5.156 0 10.623 1.152 15.631.808 3.517 3.682 6.11 7.145 6.497 8.199.915 16.499.921 24.762.915 8.262.006 16.562 0 24.762-.915 3.461-.387 6.339-2.98 7.146-6.497 1.153-5.008 1.16-10.475 1.16-15.631.001-5.159.007-10.623-1.145-15.634zm-46.075 4.468h-4.92v25.511h-4.373v-25.511h-4.738v-4.191h14.031v4.191zm12.026 25.511h-4.009v-2.445c-1.64 1.822-3.09 2.71-4.56 2.71-1.288 0-2.168-.523-2.567-1.641-.22-.668-.344-1.72-.344-3.278v-17.395h4.009v16.192c0 .935-.012 1.425.025 1.553.096.62.389.935.923.935.801 0 1.603-.618 2.514-1.87v-16.81h4.009v22.049zm15.125-6.658c0 2.04-.107 3.508-.373 4.443-.534 1.641-1.581 2.479-3.174 2.479-1.42 0-2.831-.79-4.106-2.443v2.178h-4.009v-29.701h4.009v9.731c1.276-1.589 2.652-2.393 4.121-2.393 1.593 0 2.629.837 3.163 2.49.266.887.369 2.346.369 4.432v8.784zm15.124-3.729h-8.018v3.957c0 2.042.69 3.06 2.062 3.06.984 0 1.569-.521 1.797-1.59.036-.217.097-1.054.097-2.694h4.061v.559c0 1.285-.04 2.173-.076 2.574-.135.885-.445 1.686-.929 2.396-1.107 1.6-2.744 2.39-4.831 2.39-2.092 0-3.717-.754-4.872-2.259-.849-1.102-1.319-2.844-1.319-5.186v-7.727c0-2.357.421-4.079 1.271-5.195 1.153-1.511 2.764-2.262 4.803-2.262 2.005 0 3.597.751 4.715 2.262.836 1.116 1.237 2.838 1.237 5.195v4.52z"/></svg>