<?xml version="1.0" encoding="utf-8"?>
<!-- Generator: Adobe Illustrator 17.0.0, SVG Export Plug-In . SVG Version: 6.00 Build 0)  -->
<!DOCTYPE svg PUBLIC "-//W3C//DTD SVG 1.1//EN" "http://www.w3.org/Graphics/SVG/1.1/DTD/svg11.dtd">
<svg version="1.1" id="Layer_1" xmlns="http://www.w3.org/2000/svg" xmlns:xlink="http://www.w3.org/1999/xlink" x="0px" y="0px"
	 width="128px" height="128px" viewBox="0 0 128 128" enable-background="new 0 0 128 128" xml:space="preserve">
<path id="path3101" inkscape:connector-curvature="0" fill="#000000FFF" d="M64,24.001c-22.091,0-40,17.907-40,39.998s17.909,40,40,40
	s40-17.909,40-40S86.091,24.001,64,24.001z M58.131,44.877c11.745,0,24.103,2.416,33.13,7.718c1.217,0.689,2.061,1.728,2.061,3.633
	c0,2.18-1.753,3.747-3.773,3.747c-0.814,0-1.298-0.198-2.061-0.616c-7.24-4.341-18.476-6.732-29.342-6.732
	c-5.424,0-10.933,0.552-15.979,1.921c-0.581,0.146-1.316,0.437-2.051,0.437c-2.134,0-3.771-1.688-3.771-3.822
	c0-2.174,1.347-3.394,2.8-3.823C44.847,45.66,51.212,44.877,58.131,44.877z M57.315,58.621c10.47,0,20.599,2.608,28.562,7.373
	c1.335,0.766,1.826,1.738,1.826,3.162c0,1.732-1.379,3.131-3.118,3.131c-0.868,0-1.414-0.351-2.004-0.694
	c-6.507-3.861-15.525-6.426-25.4-6.426c-5.065,0-9.437,0.709-13.055,1.673c-0.78,0.215-1.217,0.446-1.946,0.446
	c-1.72,0-3.125-1.402-3.125-3.136c0-1.701,0.825-2.872,2.488-3.341C46.04,59.574,50.632,58.621,57.315,58.621z M57.864,71.683
	c8.753,0,16.554,2.008,23.266,6.031c0.999,0.583,1.585,1.179,1.585,2.659c0,1.442-1.173,2.502-2.488,2.502
	c-0.647,0-1.088-0.224-1.693-0.593c-5.797-3.507-13.025-5.351-20.697-5.351c-4.28,0-8.588,0.549-12.616,1.388
	c-0.655,0.142-1.48,0.395-1.972,0.395c-1.519,0-2.532-1.207-2.532-2.514c0-1.681,0.97-2.518,2.176-2.748
	C47.833,72.326,52.753,71.683,57.864,71.683z"/>
</svg>
