<svg xmlns="http://www.w3.org/2000/svg" width="128" height="128"><path fill="#fff" d="M47.612 81.501h52.319c-6.129 12.673-18.465 21.209-32.284 22.499h-7.332c-4.383-.409-8.636-1.543-12.701-3.37-.002-.574-.002-18.297-.002-19.129zm32.88-53.907c-5.218-2.375-10.768-3.594-16.494-3.594-4.766 0-9.458.92-13.967 2.614 1.057.961 29.098 26.462 30.46 27.705.001-1.836.001-26.161.001-26.725zm-34.717.852c-13.432 6.906-21.775 20.525-21.775 35.638 0 3.442.518 6.941 1.455 10.411 1.086-.988 34.763-31.646 35.457-32.281-.677-.616-14.684-13.354-15.137-13.768zm-2.364 69.87v-34.464c-1.335 1.219-16.068 14.635-16.527 15.052 3.207 8.056 9.058 14.892 16.527 19.412zm41.3-68.425v47.388h17.022c1.488-4.267 2.267-8.707 2.267-13.195 0-13.93-7.391-26.935-19.289-34.193z"/></svg>