<?xml version="1.0" encoding="iso-8859-1"?>
<!-- Generator: Adobe Illustrator 15.0.0, SVG Export Plug-In . SVG Version: 6.00 Build 0)  -->
<!DOCTYPE svg PUBLIC "-//W3C//DTD SVG 1.1//EN" "http://www.w3.org/Graphics/SVG/1.1/DTD/svg11.dtd">
<svg version="1.1" id="Icons" xmlns="http://www.w3.org/2000/svg" xmlns:xlink="http://www.w3.org/1999/xlink" x="0px" y="0px"
	 width="100px" height="100px" viewBox="0 0 100 100" style="enable-background:new 0 0 100 100;" xml:space="preserve">
<path id="Apple" d="M54.645,11.817C57.877,8.017,63.34,5.19,67.848,5c0.575,5.279-1.541,10.565-4.669,14.374
	c-3.133,3.802-8.261,6.764-13.294,6.369C49.201,20.578,51.737,15.192,54.645,11.817z M80.291,83.827
	c-3.741,5.486-7.61,10.939-13.718,11.053c-6.011,0.114-7.938-3.572-14.798-3.572c-6.867,0-9.016,3.458-14.691,3.686
	c-5.897,0.222-10.382-5.925-14.152-11.387c-7.703-11.167-13.585-31.576-5.677-45.349c3.916-6.84,10.934-11.167,18.537-11.282
	c5.792-0.107,11.263,3.917,14.799,3.917c3.544,0,10.185-4.831,17.165-4.122c2.922,0.121,11.123,1.181,16.391,8.912
	c-0.417,0.274-9.789,5.745-9.676,17.141C74.585,66.437,86.363,70.961,86.5,71.023C86.392,71.343,84.616,77.483,80.291,83.827z"/>
</svg>
