<svg xmlns="http://www.w3.org/2000/svg" width="128" height="128"><path fill="#000000" d="M104.176 38.583h-16.548l.195.32v1.447c0 .171-.124.314.027.421.154.113.213.174.381.174l1.324.07c1.697.07 2.134.407 2.791.976.654.584.72 1.578.211 2.979l-14.652 34.762-.567-.154-9.3-19.025.213-.447 7.608-14.229c.886-1.503 1.741-2.842 2.174-3.467.793-1.142 1.098-1.357 3.266-1.459.442 0 .525-.198.525-.596v-1.441l.135-.332h-.01s-9.541.06-13.686.089l-.439.237v1.441c0 .177.303.317.454.424.154.113.425.171.593.171l.722.073c1.694.07 2.502.514 2.734.793.404.494.619 1.029-.361 3.165l-5.846 11.674-5.289-10.828c-1.738-3.461-2.163-4.531.452-4.734l.912-.148c.503 0 .627-.177.627-.523v-1.514l-.254-.125s-9.981 0-14.407.006l-.338.148v1.52c0 .34.549.427 1.234.517 2.45.323 2.495.749 4.918 5.553.363.721 1.531 3.06 1.531 3.06h-.002l5.515 10.669s.625 1.303 1.606 3.47l-8.024 15.96-.456-.141s-12.447-26.257-16.051-35.036c-.375-.91-.543-1.589-.543-2.005 0-.892.805-1.377 2.415-1.444l1.992-.08c.497 0 .865-.193.865-.591v-1.441l-.283-.148s-15.188-.017-18.269 0l-.448.148v1.514c0 .273.568.442 1.262.517 1.892.102 3.247.404 3.845.907.596.509 1.282 1.793 2.119 3.796 4.525 10.869 14.166 30.265 18.848 41.312 1.348 3.017 3.057 3.485 5.114-.093 2.116-3.925 6.391-12.639 9.507-19.068 2.914 6.415 6.884 15.093 8.795 19.027 1.526 3.147 3.262 3.456 5.027.096 4.609-10.247 18.08-41.079 18.08-41.079.584-1.514 1.398-2.68 2.442-3.525 1.04-.84 2.387-1.311 4.555-1.407.442 0 .405-.198.405-.59v-1.447l.354-.319z"/></svg>