<svg role="img" viewBox="0 0 24 24" xmlns="http://www.w3.org/2000/svg"><title>Helix</title><path d="M1083.58 1875.72v133.69c0 16.88 9 32.48 23.62 40.92l192.577 111.184-192.37 111.052a47.605 47.605 0 0 0-17.445 17.444c-.69 1.195-1.25 2.46-1.834 3.713-.285.612-.637 1.19-.896 1.814a47.616 47.616 0 0 0-3.65 18.297v105.936c0 .249.044.49.048.738.163 10.369 3.647 20.23 9.76 28.22a47.647 47.647 0 0 0 8.762 8.79 47.756 47.756 0 0 0 5.26 3.523l56.462 32.6-56.464 32.595a47.642 47.642 0 0 0-23.829 41.27v105.94a47.658 47.658 0 0 0 23.829 41.27l28.826 16.64h.01c-16.531-9.84-22.143-31.43-12.496-48.14a35.083 35.083 0 0 1 12.898-12.89l166.63-96.203 355.608 205.307v-133.69a47.23 47.23 0 0 0-23.62-40.91l-192.587-111.19 163.153-94.195-.4.25 29.628-17.1a47.648 47.648 0 0 0 23.83-41.269v-105.94a47.639 47.639 0 0 0-9.806-28.962c-.316-.413-.699-.773-1.028-1.176-.976-1.192-1.952-2.387-3.045-3.484a47.576 47.576 0 0 0-9.941-7.65l-26.729-15.432-2.097-1.211-27.659-15.969 27.25-15.732-.4.26 29.629-17.11a47.636 47.636 0 0 0 23.83-41.27v-105.937a47.65 47.65 0 0 0-23.83-41.273l-28.818-16.643h-.01c16.53 9.837 22.138 31.429 12.488 48.137a34.957 34.957 0 0 1-12.648 12.756l-.24.14-166.637 96.197zm355.59 366.274 80.31 46.367-216.2 124.809-80.3-46.361z"/></svg>