<svg viewBox="0 0 16 16" xmlns="http://www.w3.org/2000/svg" fill-rule="evenodd" clip-rule="evenodd" stroke-linejoin="round" stroke-miterlimit="1.414"><path d="M16 0H0v16h16V0zM8.935 4.637c-.04.07-.085.12-.133.154-.048.036-.106.053-.174.053-.077 0-.17-.04-.273-.117-.105-.078-.236-.163-.393-.256-.156-.094-.345-.18-.566-.257-.22-.077-.488-.115-.802-.115-.296 0-.557.04-.782.118-.225.082-.414.19-.567.325-.152.14-.267.298-.343.483-.078.184-.117.384-.117.597 0 .273.067.5.2.68.135.18.314.333.534.46.22.128.47.238.75.332l.86.29c.294.1.58.213.86.338.28.125.53.283.75.475.22.19.4.425.533.702.135.278.2.62.2 1.024 0 .43-.072.83-.217 1.206-.146.375-.36.702-.64.98-.278.277-.622.495-1.03.655-.407.16-.87.24-1.388.24-.638 0-1.216-.116-1.734-.346-.52-.23-.963-.54-1.332-.93l.383-.63c.036-.05.08-.09.133-.125.052-.035.11-.05.174-.05.06 0 .126.022.2.07.076.048.162.108.257.18.095.074.204.153.327.24.123.086.262.166.42.24.156.07.335.132.535.18.2.047.427.07.677.07.313 0 .592-.042.84-.13.244-.085.452-.207.624-.364.17-.156.3-.345.392-.562.09-.22.136-.463.136-.732 0-.295-.066-.537-.2-.726-.135-.19-.31-.347-.53-.476-.218-.126-.468-.235-.75-.323-.282-.09-.57-.18-.86-.274-.292-.094-.578-.2-.86-.324-.283-.124-.533-.283-.752-.48-.218-.195-.395-.44-.53-.733-.132-.294-.2-.657-.2-1.09 0-.345.068-.68.2-1.002.136-.324.332-.61.59-.86.256-.25.572-.45.95-.602C5.66 3.075 6.093 3 6.58 3c.546 0 1.043.086 1.49.26.45.172.844.422 1.186.75l-.322.628zm2.608-1.528h1.325v9.78h-1.325V3.11z"/></svg>