<svg xmlns="http://www.w3.org/2000/svg" xml:space="preserve" viewBox="0 0 24 24"><path d="M1.664 7.695.008 9.363l1.668 1.657.65-.657-.582.002-1.01-1.004 1.002-1.01.586-.001Zm.66.655.133.132.133-.132Zm3.883.013-.861.867.781-.001-.39-.39.427-.001.504.502-.502.506-.418.002.467.465.97-.979zm-3.748.121-.758.76 1.518-.006zm.76.754.113.114-.115.115 2.138-.008-.119-.12.108-.109Zm-.002.229-1.514.006.758.754zm18.43-.684c-.472 0-.909.085-1.311.252a3.193 3.193 0 0 0-1.047.694 3.178 3.178 0 0 0-.693 1.05 3.462 3.462 0 0 0-.252 1.332c0 .483.085.929.252 1.334.167.406.398.756.693 1.051a3.19 3.19 0 0 0 1.047.693c.402.167.84.25 1.31.25a3.03 3.03 0 0 0 1.405-.335 2.514 2.514 0 0 0 .94-.827l-.53-.375c-.12.185-.249.337-.389.46a1.81 1.81 0 0 1-.447.29 2.058 2.058 0 0 1-.482.153 2.76 2.76 0 0 1-.497.045c-.405 0-.77-.076-1.091-.225a2.47 2.47 0 0 1-.819-.598 2.642 2.642 0 0 1-.515-.873 3.053 3.053 0 0 1-.178-1.043c0-.363.058-.71.178-1.04.119-.332.292-.623.515-.874a2.479 2.479 0 0 1 1.91-.822c.167 0 .333.023.5.07.167.048.325.112.471.19.146.077.276.166.389.267.113.102.202.204.267.305l.565-.422a2.38 2.38 0 0 0-1.012-.767 3.198 3.198 0 0 0-1.18-.235Zm-13.403.162v6.334h.645v-2.943h1.074l1.734 2.943h.787l-1.824-3.006c.525-.047.926-.222 1.203-.523.278-.301.416-.672.416-1.113 0-.567-.186-.991-.558-1.272-.373-.28-.882-.42-1.526-.42zm5.35 0v6.334h.644v-2.943h1.2c.644 0 1.152-.143 1.525-.426.373-.283.558-.707.558-1.273 0-.567-.185-.991-.558-1.272-.373-.28-.881-.42-1.526-.42Zm-7.467.512-.77.002.385.385-.002.004h.006l-.002-.004zm2.762.078h1.144c.286 0 .53.03.73.086.2.057.36.135.48.236.118.102.203.22.257.354a1.157 1.157 0 0 1 0 .86.858.858 0 0 1-.258.347c-.12.098-.279.179-.478.238-.2.06-.444.09-.73.09H8.888Zm5.35 0h1.036c.287 0 .53.03.73.086.2.057.36.135.48.236.119.102.205.22.26.354.053.134.08.277.08.426 0 .155-.027.3-.08.433a.863.863 0 0 1-.26.348c-.12.098-.28.179-.48.238-.2.06-.443.09-.73.09h-1.037zm-11.776.692-.135.136.27-.002zm1.79.757c-.31 0-.593.056-.853.166a1.99 1.99 0 0 0-.671.461 2.222 2.222 0 0 0-.604 1.54c0 .304.057.587.17.849.113.263.268.488.465.676.197.188.428.334.693.441a2.263 2.263 0 0 0 1.723-.017 1.61 1.61 0 0 0 .697-.608h.02v.752c0 .227-.03.439-.086.639-.057.2-.15.374-.278.523a1.322 1.322 0 0 1-.506.354 1.986 1.986 0 0 1-.76.129c-.34 0-.648-.07-.925-.21a1.89 1.89 0 0 1-.676-.56l-.437.467c.268.286.566.497.894.635.328.137.7.205 1.117.205.471 0 .855-.072 1.147-.215.292-.143.52-.322.683-.537.164-.215.274-.449.33-.705.057-.257.086-.498.086-.725v-4.152h-.59v.697h-.019a1.958 1.958 0 0 0-.8-.643 1.88 1.88 0 0 0-.42-.125 2.4 2.4 0 0 0-.4-.037Zm.073.537c.245 0 .465.043.662.13a1.496 1.496 0 0 1 .814.86c.072.193.108.401.108.622a1.62 1.62 0 0 1-.111.66 1.43 1.43 0 0 1-.346.506 1.636 1.636 0 0 1-1.127.443 1.45 1.45 0 0 1-.613-.129 1.603 1.603 0 0 1-.822-.86 1.6 1.6 0 0 1-.121-.62A1.634 1.634 0 0 1 3.22 12c.14-.146.304-.263.492-.35a1.45 1.45 0 0 1 .613-.129Z"/></svg>