<?xml version="1.0" encoding="UTF-8" standalone="no"?>
<svg
   version="1.1"
   id="Layer_1"
   x="0"
   y="0"
   viewBox="0 0 24 24"
   xml:space="preserve"
   sodipodi:docname="logo.svg"
   width="24"
   height="24"
   inkscape:version="1.3.2 (091e20e, 2023-11-25)"
   xmlns:inkscape="http://www.inkscape.org/namespaces/inkscape"
   xmlns:sodipodi="http://sodipodi.sourceforge.net/DTD/sodipodi-0.dtd"
   xmlns:xlink="http://www.w3.org/1999/xlink"
   xmlns="http://www.w3.org/2000/svg"
   xmlns:svg="http://www.w3.org/2000/svg"><sodipodi:namedview
     id="namedview145"
     pagecolor="#505050"
     bordercolor="#eeeeee"
     borderopacity="1"
     inkscape:showpageshadow="0"
     inkscape:pageopacity="0"
     inkscape:pagecheckerboard="0"
     inkscape:deskcolor="#505050"
     inkscape:lockguides="false"
     inkscape:zoom="37.416667"
     inkscape:cx="14.044543"
     inkscape:cy="12.467706"
     inkscape:window-width="1920"
     inkscape:window-height="1011"
     inkscape:window-x="0"
     inkscape:window-y="0"
     inkscape:window-maximized="1"
     inkscape:current-layer="Layer_1" /><style
     id="style1">.st0{fill:#fff}.st2,.st3{clip-path:url(#SVGID_2_);fill:#73cbcb}.st3{fill:#72cbca}.st5,.st57,.st59,.st63,.st8{clip-path:url(#SVGID_2_);fill:#70caca}.st57,.st59,.st63,.st8{fill:#6dc9c9}.st57,.st59,.st63{fill:#00b5b2}.st59,.st63{fill:#00b3b0}.st63{fill:#00b0ad}.st120,.st121,.st70{clip-path:url(#SVGID_4_);fill:#6fcac9}.st120,.st121{fill:#00bab8}.st121{fill:#00b9b7}.st123,.st126,.st128,.st129{clip-path:url(#SVGID_4_);fill:#00b8b6}.st126,.st128,.st129{fill:#00b7b4}.st128,.st129{fill:#00b6b3}.st129{fill:#00b5b2}</style><path
     class="st0"
     d="m 2.6567884,15.562132 c 0.17302,0.232766 0.39838,0.419283 0.6759,0.559559 0.27757,0.140182 0.58644,0.210367 0.92664,0.210367 0.29839,0 0.55201,-0.04335 0.76099,-0.129794 0.20887,-0.08662 0.37742,-0.204499 0.50582,-0.353625 0.12831,-0.149306 0.22075,-0.323812 0.27756,-0.523791 0.0566,-0.19998 0.085,-0.413329 0.085,-0.640038 v -0.752047 h -0.0179 c -0.19109,0.28643 -0.42389,0.489468 -0.69835,0.608789 -0.27458,0.119407 -0.56402,0.179025 -0.86843,0.179025 -0.30438,0 -0.58945,-0.05374 -0.85496,-0.161137 -0.26569,-0.10749 -0.49692,-0.255164 -0.69388,-0.443133 -0.19694,-0.188054 -0.35221,-0.413234 -0.46553,-0.675993 -0.11344,-0.26257 -0.17012,-0.546104 -0.17012,-0.85049 0,-0.304386 0.0537,-0.587835 0.16118,-0.850549 0.10739,-0.262571 0.25512,-0.492398 0.44313,-0.689354 0.18802,-0.196955 0.41183,-0.350549 0.67148,-0.461064 0.25964,-0.110369 0.54461,-0.165656 0.85501,-0.165656 0.12532,0 0.25811,0.01206 0.39837,0.03582 0.14019,0.02394 0.28051,0.06575 0.42078,0.12537 0.14018,0.0597 0.27897,0.141805 0.41631,0.246177 0.13724,0.104509 0.2655,0.237242 0.38501,0.398422 h 0.0179 v -0.69835 h 0.59091 v 4.154178 c 0,0.226718 -0.0284,0.468419 -0.0851,0.725121 -0.0568,0.256531 -0.16715,0.492458 -0.33123,0.707242 -0.16425,0.214886 -0.39255,0.393996 -0.68489,0.537254 -0.29252,0.143164 -0.67454,0.214784 -1.14599,0.214784 -0.41784,0 -0.79093,-0.06865 -1.11907,-0.205849 -0.32833,-0.137388 -0.62672,-0.3492 -0.89531,-0.635706 z m 0.1074,-2.990196 c 0,0.22084 0.0403,0.42832 0.1209,0.622149 0.0806,0.194026 0.19094,0.364192 0.33122,0.510337 0.14018,0.146333 0.30439,0.262759 0.4924,0.3492 0.18802,0.08654 0.39242,0.129795 0.61331,0.129795 0.21484,0 0.41924,-0.03875 0.61326,-0.116434 0.19388,-0.07749 0.36554,-0.186423 0.51476,-0.326699 0.14912,-0.140182 0.26411,-0.308914 0.34472,-0.505912 0.0806,-0.196905 0.11778,-0.41766 0.11191,-0.662436 0,-0.220798 -0.0358,-0.428235 -0.10744,-0.622244 -0.0716,-0.193888 -0.17614,-0.364011 -0.31338,-0.510336 -0.13734,-0.146187 -0.30439,-0.26257 -0.50135,-0.349148 -0.19695,-0.08645 -0.41784,-0.129795 -0.66248,-0.129795 -0.22089,0 -0.42529,0.04335 -0.61331,0.129795 -0.18801,0.08658 -0.35222,0.202961 -0.4924,0.349148 -0.14027,0.146333 -0.25065,0.316448 -0.33122,0.510328 -0.0806,0.194025 -0.1209,0.401454 -0.1209,0.622252 z m 6.12369,2.148641 h -0.6446 V 8.3819649 h 1.9516896 c 0.6446,0 1.1534,0.14031 1.52648,0.420769 0.37296,0.280638 0.55957,0.704354 0.55957,1.2713191 0,0.441775 -0.13878,0.81333 -0.41631,1.11465 -0.27756,0.301464 -0.67902,0.476013 -1.20416,0.523706 l 1.82641,3.008168 h -0.78791 L 9.9621984,11.775093 h -1.07432 z m 0,-3.536385 h 1.1459496 c 0.28652,0 0.52962,-0.02976 0.72964,-0.08952 0.19994,-0.05957 0.35954,-0.138781 0.47899,-0.237233 0.11933,-0.09849 0.20595,-0.214887 0.25965,-0.349149 0.0537,-0.134313 0.0806,-0.278972 0.0806,-0.43424 0,-0.1491271 -0.0269,-0.2909831 -0.0806,-0.4252451 -0.0537,-0.134314 -0.14032,-0.252098 -0.25965,-0.353668 -0.11945,-0.101391 -0.27905,-0.180418 -0.47899,-0.237234 -0.20002,-0.05664 -0.44313,-0.08504 -0.72964,-0.08504 H 8.8878784 Z M 13.596948,8.3819559 h 1.84435 c 0.64455,0 1.15335,0.140319 1.52639,0.420778 0.37295,0.280638 0.55956,0.704354 0.55956,1.2713191 0,0.567102 -0.18661,0.992355 -0.55956,1.275795 -0.37305,0.283525 -0.88184,0.425245 -1.52639,0.425245 h -1.1997 v 2.945484 h -0.64465 V 8.3819649 Z m 0.64466,2.8022361 h 1.03854 c 0.28643,0 0.52957,-0.02976 0.72965,-0.08952 0.19988,-0.05957 0.35949,-0.138781 0.47898,-0.237233 0.11933,-0.09849 0.20586,-0.214887 0.2596,-0.349149 0.0537,-0.134313 0.0806,-0.278972 0.0806,-0.43424 0,-0.1491271 -0.0268,-0.2909831 -0.0806,-0.4252451 -0.0537,-0.134314 -0.14027,-0.252098 -0.2596,-0.353668 -0.11949,-0.101391 -0.2791,-0.180418 -0.47898,-0.237234 -0.20007,-0.05664 -0.44323,-0.08504 -0.72965,-0.08504 h -1.03854 z m 9.75839,2.533693 c -0.1074,0.161137 -0.24026,0.313339 -0.39834,0.456597 -0.15824,0.143249 -0.33879,0.267174 -0.54167,0.371495 -0.20296,0.104509 -0.42235,0.186526 -0.65801,0.246229 -0.23584,0.05961 -0.48504,0.08951 -0.74762,0.08951 -0.47149,0 -0.90866,-0.08363 -1.31151,-0.250644 -0.40294,-0.167014 -0.75204,-0.398422 -1.0475,-0.693881 -0.29545,-0.29545 -0.52686,-0.646 -0.69387,-1.051922 -0.16719,-0.40582 -0.25065,-0.850533 -0.25065,-1.333996 0,-0.483462 0.0835,-0.927996 0.25065,-1.333961 0.167,-0.4058277 0.39842,-0.7565227 0.69387,-1.0519647 0.29545,-0.295442 0.64456,-0.526687 1.0475,-0.693829 0.40285,-0.167057 0.84002,-0.250697 1.31151,-0.250697 0.394,0 0.78791,0.07763 1.18181,0.232766 0.3939,0.155268 0.73108,0.411833 1.01164,0.769969 l -0.564,0.420777 c -0.0658,-0.101433 -0.15526,-0.202867 -0.26861,-0.304394 -0.11345,-0.101434 -0.24325,-0.190942 -0.3894,-0.268576 -0.14633,-0.0775 -0.30303,-0.140183 -0.47005,-0.188012 -0.16718,-0.04774 -0.33429,-0.07163 -0.50139,-0.07163 -0.40591,0 -0.76993,0.0747 -1.0922,0.223831 -0.32228,0.149254 -0.59533,0.349148 -0.81916,0.599794 -0.22382,0.250696 -0.39553,0.5416787 -0.51485,0.8729477 -0.11941,0.331218 -0.17902,0.679009 -0.17902,1.042978 0,0.364141 0.0596,0.711761 0.17903,1.042979 0.11931,0.331303 0.29102,0.622235 0.51484,0.872897 0.22383,0.250739 0.49688,0.450719 0.81916,0.599845 0.32227,0.149306 0.68629,0.223814 1.0922,0.223814 0.1671,0 0.33267,-0.01481 0.49688,-0.0447 0.16412,-0.02981 0.32526,-0.08057 0.48351,-0.152193 0.15807,-0.07163 0.30727,-0.168638 0.44764,-0.291026 0.14018,-0.122217 0.26999,-0.275948 0.38939,-0.461021 z"
     id="path1"
     sodipodi:insensitive="true"
     style="display:inline;stroke-width:0.0854249" /><defs
     id="defs1"><path
       id="SVGID_1_"
       transform="rotate(-135.2127,22.2272,23.47)"
       d="m 8.4598,9.7025 h 27.535 v 27.535 H 8.4598 Z" /><filter
       style="color-interpolation-filters:sRGB;"
       inkscape:label="Colorize"
       id="filter147"
       x="0"
       y="0"
       width="1"
       height="1"><feComposite
         in2="SourceGraphic"
         operator="arithmetic"
         k1="0"
         k2="1"
         result="composite1"
         id="feComposite146" /><feColorMatrix
         in="composite1"
         values="1"
         type="saturate"
         result="colormatrix1"
         id="feColorMatrix146" /><feFlood
         flood-opacity="1"
         flood-color="rgb(0,0,0)"
         result="flood1"
         id="feFlood146" /><feBlend
         in="flood1"
         in2="colormatrix1"
         mode="multiply"
         result="blend1"
         id="feBlend146" /><feBlend
         in2="blend1"
         mode="screen"
         result="blend2"
         id="feBlend147" /><feColorMatrix
         in="blend2"
         values="1"
         type="saturate"
         result="colormatrix2"
         id="feColorMatrix147" /><feComposite
         in="colormatrix2"
         in2="SourceGraphic"
         operator="in"
         k2="1"
         result="composite2"
         id="feComposite147" /></filter><filter
       style="color-interpolation-filters:sRGB;"
       inkscape:label="Invert"
       id="filter149"
       x="0"
       y="0"
       width="1"
       height="1"><feComposite
         in2="SourceGraphic"
         operator="arithmetic"
         k1="0"
         k2="1"
         result="composite1"
         id="feComposite148" /><feColorMatrix
         in="composite1"
         values="1"
         type="saturate"
         result="colormatrix1"
         id="feColorMatrix148" /><feFlood
         flood-opacity="1"
         flood-color="rgb(0,0,0)"
         result="flood1"
         id="feFlood148" /><feBlend
         in="flood1"
         in2="colormatrix1"
         mode="multiply"
         result="blend1"
         id="feBlend148" /><feBlend
         in2="blend1"
         mode="screen"
         result="blend2"
         id="feBlend149" /><feColorMatrix
         in="blend2"
         values="1"
         type="saturate"
         result="colormatrix2"
         id="feColorMatrix149" /><feComposite
         in="colormatrix2"
         in2="SourceGraphic"
         operator="in"
         k2="1"
         result="fbSourceGraphic"
         id="feComposite149" /><feColorMatrix
         result="fbSourceGraphicAlpha"
         in="fbSourceGraphic"
         values="0 0 0 -1 0 0 0 0 -1 0 0 0 0 -1 0 0 0 0 1 0"
         id="feColorMatrix150" /><feColorMatrix
         id="feColorMatrix151"
         values="1 0 0 0 0 0 1 0 0 0 0 0 1 0 0 -0.21 -0.72 -0.07 2 0 "
         result="fbSourceGraphic"
         in="fbSourceGraphic" /><feColorMatrix
         result="fbSourceGraphicAlpha"
         in="fbSourceGraphic"
         values="0 0 0 -1 0 0 0 0 -1 0 0 0 0 -1 0 0 0 0 1 0"
         id="feColorMatrix152" /><feColorMatrix
         id="feColorMatrix153"
         values="1 0 0 0 0 0 1 0 0 0 0 0 1 0 0 -0.21 -0.72 -0.07 2 0 "
         result="fbSourceGraphic"
         in="fbSourceGraphic" /><feColorMatrix
         result="fbSourceGraphicAlpha"
         in="fbSourceGraphic"
         values="0 0 0 -1 0 0 0 0 -1 0 0 0 0 -1 0 0 0 0 1 0"
         id="feColorMatrix154" /><feColorMatrix
         id="feColorMatrix155"
         values="1 0 0 0 0 0 1 0 0 0 0 0 1 0 0 -0.21 -0.72 -0.07 2 0 "
         result="fbSourceGraphic"
         in="fbSourceGraphic" /><feColorMatrix
         result="fbSourceGraphicAlpha"
         in="fbSourceGraphic"
         values="0 0 0 -1 0 0 0 0 -1 0 0 0 0 -1 0 0 0 0 1 0"
         id="feColorMatrix156" /><feColorMatrix
         id="feColorMatrix157"
         values="1 0 0 0 0 0 1 0 0 0 0 0 1 0 0 -0.21 -0.72 -0.07 2 0 "
         result="fbSourceGraphic"
         in="fbSourceGraphic" /><feColorMatrix
         result="fbSourceGraphicAlpha"
         in="fbSourceGraphic"
         values="0 0 0 -1 0 0 0 0 -1 0 0 0 0 -1 0 0 0 0 1 0"
         id="feColorMatrix158" /><feColorMatrix
         id="feColorMatrix159"
         values="1 0 0 0 0 0 0 1 0 0 0 1 0 0 0 -0.21 -0.72 -0.07 2 0 "
         result="fbSourceGraphic"
         in="fbSourceGraphic" /><feColorMatrix
         result="fbSourceGraphicAlpha"
         in="fbSourceGraphic"
         values="0 0 0 -1 0 0 0 0 -1 0 0 0 0 -1 0 0 0 0 1 0"
         id="feColorMatrix160" /><feColorMatrix
         id="feColorMatrix161"
         values="1 0 0 0 0 0 1 0 0 0 0 0 1 0 0 -0.21 -0.72 -0.07 1 0 "
         result="fbSourceGraphic"
         in="fbSourceGraphic" /><feColorMatrix
         result="fbSourceGraphicAlpha"
         in="fbSourceGraphic"
         values="0 0 0 -1 0 0 0 0 -1 0 0 0 0 -1 0 0 0 0 1 0"
         id="feColorMatrix162" /><feColorMatrix
         id="feColorMatrix163"
         type="hueRotate"
         values="180"
         result="color1"
         in="fbSourceGraphic" /><feColorMatrix
         id="feColorMatrix164"
         values="1 0 0 0 0 0 1 0 0 0 0 0 1 0 0 -0.21 -0.72 -0.07 1 0 "
         result="color2" /></filter></defs><clipPath
     id="SVGID_2_"><use
       xlink:href="#SVGID_1_"
       overflow="visible"
       id="use1" /></clipPath><path
     id="path71"
     clip-path="url(#SVGID_2_)"
     class="st63"
     d="m 41.442,4 0.2553,0.0288 V 42.9401 H 29.6559 L 34.0557,4 Z M 34.0557,4 29.656,42.94 H 29.2008 L 33.6005,4 Z M 33.6005,4 29.2007,42.94 H 28.7455 L 33.1453,4 Z M 33.1453,4 28.7455,42.94 H 28.2902 L 32.6901,4 Z M 32.6901,4 28.2902,42.94 H 27.835 L 32.235,4 Z M 32.2349,4 27.835,42.94 H 27.3798 L 31.7797,4 Z M 31.7797,4 27.3798,42.94 H 26.9246 L 31.3245,4 Z M 31.3245,4 26.9246,42.94 H 26.4694 L 30.8693,4 Z M 30.8693,4 26.4694,42.94 H 26.0142 L 30.4141,4 Z M 30.414,4 26.0142,42.94 H 25.559 L 29.959,4 Z M 29.9589,4 25.559,42.94 H 25.1038 L 29.5037,4 Z M 29.5037,4 25.1038,42.94 H 24.6486 L 29.0485,4 Z M 29.0485,4 24.6486,42.94 H 24.1934 L 28.5932,4 Z M 28.5932,4 24.1934,42.94 H 23.7382 L 28.138,4 Z M 28.138,4 23.7382,42.94 H 23.283 L 27.6828,4 Z M 27.6828,4 23.283,42.94 H 22.8278 L 27.2276,4 Z M 27.2276,4 22.8278,42.94 H 22.3726 L 26.7724,4 Z M 26.7724,4 22.3726,42.94 H 21.9174 L 26.3172,4 Z M 26.3172,4 21.9174,42.94 H 21.4622 L 25.862,4 Z M 25.862,4 21.4622,42.94 H 21.007 L 25.4068,4 Z M 25.4068,4 21.007,42.94 H 20.5518 L 24.9516,4 Z M 24.9516,4 20.5518,42.94 H 20.0965 L 24.4964,4 Z M 24.4964,4 20.0965,42.94 H 19.6413 L 24.0412,4 Z M 24.0412,4 19.6413,42.94 H 19.1861 L 23.586,4 Z m -0.4552,0 -4.4,38.94 H 18.7308 L 23.1308,4 Z M 23.1308,4 18.7309,42.94 H 18.2757 L 22.6756,4 Z M 22.6756,4 18.2757,42.94 H 17.8205 L 22.2204,4 Z M 22.2204,4 17.8205,42.94 H 17.3653 L 21.7652,4 Z M 21.7652,4 17.3653,42.94 H 16.9101 L 21.31,4 Z M 21.31,4 16.91,42.94 H 16.4548 L 20.8548,4 Z M 20.8548,4 16.4549,42.94 H 15.9997 L 20.3996,4 Z M 20.3996,4 15.9997,42.94 H 15.5445 L 19.9443,4 Z M 19.9443,4 15.5445,42.94 H 15.0893 L 19.489,4 Z M 19.4891,4 15.0893,42.94 H 14.6341 L 19.0339,4 Z m -0.4551,0 -4.4,38.94 H 14.1789 L 18.5787,4 Z M 18.5787,4 14.179,42.94 H 13.7238 L 18.1235,4 Z M 18.1235,4 13.7237,42.94 H 13.2685 L 17.6683,4 Z M 17.6683,4 13.2685,42.94 H 12.8133 L 17.213,4 Z M 17.2131,4 12.8133,42.94 H 12.3581 L 16.7579,4 Z m -0.4551,0 -4.4,38.94 H 11.9029 L 16.3027,4 Z M 16.3027,4 11.9029,42.94 H 11.4476 L 15.8475,4 Z M 15.8475,4 11.4476,42.94 H 10.9924 L 15.3923,4 Z M 15.3923,4 10.9924,42.94 H 10.5372 L 14.9371,4 Z M 14.937,4 10.5372,42.94 H 10.082 L 14.482,4 Z M 14.4819,4 10.082,42.94 H 9.6268 L 14.0267,4 Z M 14.0267,4 9.6268,42.94 H 9.1716 L 13.5715,4 Z M 13.5715,4 9.1716,42.94 H 8.7164 L 13.1163,4 Z M 13.1163,4 8.7164,42.94 H 8.2612 L 12.6611,4 Z M 12.661,4 8.2613,42.94 H 7.806 L 12.2059,4 Z M 12.2059,4 7.806,42.94 H 7.3508 L 11.7506,4 Z M 11.7506,4 7.3508,42.94 H 6.8956 L 11.2954,4 Z M 11.2954,4 6.8956,42.94 H 6.4404 L 10.8402,4 Z M 10.8402,4 6.4404,42.94 H 5.9852 L 10.385,4 Z M 10.385,4 5.9852,42.94 H 5.53 L 9.9298,4 Z M 9.9298,4 5.53,42.94 H 5.0748 L 9.4746,4 Z M 9.4746,4 5.0748,42.94 H 4.6196 L 9.0194,4 Z M 9.0194,4 4.6196,42.94 H 4.1644 L 8.5642,4 Z M 8.5642,4 4.1644,42.94 H 3.7092 L 8.109,4 Z M 8.109,4 3.7092,42.94 H 3.2539 L 7.6538,4 Z M 7.6538,4 3.2539,42.94 H 3.0125 L 2.8015,42.9162 7.1985,4 Z M 7.1986,4 2.8014,42.9162 2.7572,42.9112 V 39.279 L 6.7434,4 Z M 6.7434,4 2.7572,39.279 V 35.2503 L 6.2882,4 Z M 6.2882,4 2.7572,35.2503 V 31.2216 L 5.833,4 Z M 5.833,4 2.7572,31.2216 V 27.1928 L 5.3778,4 Z M 5.3778,4 2.7572,27.1928 V 23.1641 L 4.9226,4 Z M 4.9226,4 2.7572,23.1641 V 19.1354 L 4.4674,4 Z M 4.4674,4 2.7572,19.1354 V 15.1067 L 4.0122,4 Z M 4.0122,4 2.7572,15.1067 V 11.078 L 3.557,4 Z M 3.557,4 2.7572,11.078 V 7.0493 L 3.1017,4 Z M 3.1017,4 2.7572,7.0493 V 4 Z"
     sodipodi:insensitive="true"
     transform="matrix(0.08542491,0,0,0.08542491,-0.23553156,6.7890809)"
     style="filter:url(#filter149)" /><g
     id="g144"
     transform="matrix(0.08542491,0,0,0.08542491,-0.23553156,6.7890809)"><defs
       id="defs71"><path
         id="SVGID_3_"
         transform="rotate(-135.2127,75.4332,23.2399)"
         d="M 67.3578,15.1645 H 83.5087 V 31.3154 H 67.3578 Z" /></defs><clipPath
       id="SVGID_4_"><use
         xlink:href="#SVGID_3_"
         overflow="visible"
         id="use71" /></clipPath><path
       id="path144"
       clip-path="url(#SVGID_4_)"
       class="st129"
       d="m 64.0129,32.8219 0.0856,1.8383 h -0.0856 z m 0.0856,1.8383 -0.0856,-1.8383 v -7.01 l 0.4121,8.8483 z m 0.3265,0 -0.4121,-8.8483 v -7.01 l 0.7386,15.8583 z m 0.3265,0 L 64.013,18.802 v -6.9823 h 0.0013 l 1.0638,22.8406 z m 0.3265,0 -1.0638,-22.8406 h 0.3265 l 1.0638,22.8406 z m 0.3265,0 -1.0638,-22.8406 h 0.3265 l 1.0638,22.8406 z m 0.3265,0 -1.0638,-22.8406 h 0.3265 l 1.0638,22.8406 z m 0.3265,0 -1.0638,-22.8406 h 0.3265 l 1.0638,22.8406 z m 0.3265,0 -1.0638,-22.8406 h 0.3265 l 1.0638,22.8406 z m 0.653,0 -1.0638,-22.8406 h 0.3265 l 1.0638,22.8406 z m -0.3265,0 -1.0638,-22.8406 h 0.3265 l 1.0638,22.8406 z m 0.653,0 -1.0638,-22.8406 h 0.3265 L 67.69,34.6602 Z m 0.3265,0 -1.0638,-22.8406 h 0.3265 l 1.0638,22.8406 z m 0.3265,0 -1.0638,-22.8406 h 0.3265 l 1.0638,22.8406 z m 0.3265,0 -1.0638,-22.8406 h 0.3265 l 1.0638,22.8406 z m 0.3265,0 -1.0638,-22.8406 h 0.3265 l 1.0638,22.8406 z m 0.3265,0 -1.0638,-22.8406 h 0.3265 l 1.0638,22.8406 z m 0.3265,0 -1.0638,-22.8406 h 0.3265 l 1.0638,22.8406 z m 0.3265,0 -1.0638,-22.8406 h 0.3265 l 1.0638,22.8406 z m 0.3265,0 -1.0638,-22.8406 h 0.3265 l 1.0638,22.8406 z m 0.3265,0 -1.0638,-22.8406 h 0.3265 l 1.0638,22.8406 z m 0.3265,0 -1.0638,-22.8406 h 0.3265 l 1.0638,22.8406 z m 0.3265,0 -1.0638,-22.8406 h 0.3265 l 1.0638,22.8406 z m 0.3265,0 -1.0638,-22.8406 h 0.3265 l 1.0638,22.8406 z m 0.3265,0 -1.0638,-22.8406 h 0.3265 l 1.0638,22.8406 z m 0.3265,0 -1.0638,-22.8406 h 0.3265 l 1.0638,22.8406 z m 0.3265,0 -1.0638,-22.8406 h 0.3265 l 1.0638,22.8406 z m 0.3265,0 -1.0638,-22.8406 h 0.3265 l 1.0638,22.8406 z m 0.3265,0 -1.0638,-22.8406 h 0.3265 l 1.0639,22.8406 z m 0.3266,0 -1.0639,-22.8406 h 0.3265 l 1.0639,22.8406 z m 0.3264,0 -1.0638,-22.8406 h 0.3265 l 1.0639,22.8406 z m 0.3266,0 -1.0639,-22.8406 h 0.3265 l 1.0639,22.8406 z m 0.3264,0 -1.0638,-22.8406 h 0.3265 l 1.0639,22.8406 z m 0.3266,0 -1.0639,-22.8406 h 0.3265 l 1.0639,22.8406 z m 0.3264,0 -1.0638,-22.8406 h 0.3265 l 1.0639,22.8406 z m 0.3266,0 -1.0639,-22.8406 h 0.3265 l 1.0639,22.8406 z m 0.3264,0 -1.0638,-22.8406 h 0.3265 l 1.0639,22.8406 z m 0.3266,0 -1.0639,-22.8406 h 0.3265 l 1.0639,22.8406 z m 0.3264,0 -1.0638,-22.8406 h 0.3265 l 1.0639,22.8406 z m 0.3266,0 -1.0639,-22.8406 h 0.3265 l 1.0639,22.8406 z m 0.3264,0 -1.0638,-22.8406 h 0.3265 l 1.0639,22.8406 z m 0.3266,0 -1.0639,-22.8406 h 0.3265 l 1.0639,22.8406 z m 0.3264,0 -1.0638,-22.8406 h 0.3265 l 1.0639,22.8406 z m 0.3266,0 -1.0639,-22.8406 h 0.3265 l 1.0639,22.8406 z m 0.3264,0 -1.0638,-22.8406 h 0.3265 l 1.0639,22.8406 z m 0.3266,0 -1.0639,-22.8406 h 0.3265 l 1.0639,22.8406 z m 0.3264,0 -1.0638,-22.8406 h 0.3265 l 1.0639,22.8406 z m 0.3266,0 -1.0639,-22.8406 h 0.3265 l 1.0639,22.8406 z m 0.3264,0 -1.0638,-22.8406 h 0.3265 l 1.0639,22.8406 z m 0.3266,0 -1.0639,-22.8406 h 0.3265 l 1.0639,22.8406 z m 0.3264,0 -1.0638,-22.8406 h 0.3265 l 1.0639,22.8406 z m 0.3266,0 -1.0639,-22.8406 h 0.3265 l 1.0639,22.8406 z m 0.3264,0 -1.0638,-22.8406 h 0.3265 l 1.0639,22.8406 z m 0.3266,0 -1.0639,-22.8406 h 0.3265 l 1.0639,22.8406 z m 0.3264,0 -1.0638,-22.8406 h 0.3265 l 1.0639,22.8406 z m 0.3266,0 -1.0639,-22.8406 h 0.3266 l 1.0638,22.8406 z m 0.3264,0 -1.0637,-22.8406 h 0.3265 l 1.0638,22.8406 z m 0.3266,0 -1.0638,-22.8406 h 0.3265 l 1.0638,22.8406 z m 0.3264,0 -1.0637,-22.8406 h 0.3265 l 1.0638,22.8406 z m 0.3266,0 -1.0638,-22.8406 h 0.3265 l 1.0638,22.8406 z m 0.3265,0 -1.0638,-22.8406 h 0.3265 l 1.0638,22.8406 z m 0.3265,0 -1.0638,-22.8406 h 0.3265 l 1.0638,22.8406 z m 0.3265,0 -1.0638,-22.8406 h 0.3265 l 1.0638,22.8406 z m 0.3265,0 -1.0638,-22.8406 h 0.3265 l 1.0638,22.8406 z m 0.3265,0 -1.0638,-22.8406 h 0.3265 l 1.0638,22.8406 z m 0.3265,0 -1.0638,-22.8406 h 0.3265 l 1.0638,22.8406 z m 0.3265,0 -1.0638,-22.8406 h 0.3265 l 1.0638,22.8406 z m 0.3265,0 -1.0638,-22.8406 h 0.3265 l 1.0638,22.8406 z m 0.3265,0 -1.0638,-22.8406 h 0.3265 l 1.0638,22.8406 z m 0.3265,0 -1.0638,-22.8406 h 0.3265 l 1.0638,22.8406 z m 0.3265,0 -1.0638,-22.8406 h 0.3265 l 0.9637,20.6915 v 2.1491 z m 0.2264,-2.1491 -0.9637,-20.6915 h 0.3265 l 0.6372,13.6815 z m 0,-7.01 -0.6372,-13.6815 h 0.3265 l 0.3107,6.6715 z m 0,-7.01 -0.3107,-6.6715 h 0.3107 z"
       sodipodi:insensitive="true"
       style="filter:url(#filter147)" /></g><g
     id="g145"
     transform="matrix(0.08542491,0,0,0.08542491,-0.23553156,6.7890809)"><path
       class="st0"
       d="M 23.0105,11.6979 11.2639,23.5324 23.0981,35.2792 33.1096,35.242 22.6114,24.8275 l 51.842,-0.1923 -4.5437,4.5747 5.0057,-0.0186 5.8734,-5.9171 -5.917,-5.8733 -5.0057,0.0186 4.5776,4.5412 -51.8418,0.1922 10.4203,-10.492 z"
       id="path145"
       sodipodi:insensitive="true" /></g></svg>
