<svg xml:space="preserve" role="img" viewBox="0 0 2500 2500" style="fill-rule:evenodd;clip-rule:evenodd;stroke-linejoin:round;stroke-miterlimit:2;" xmlns="http://www.w3.org/2000/svg"><path d="M1250 988.016c-160.82 0-308.124 53.684-428.678 141.854V53.651S614.356 96.776 520.833 184.535l3.705 1569.325c19.506 385.3 335.317 692.49 725.462 692.49 54.53 0 107.24-7.01 158.35-18.36v-309.37c-49.14 19.4-102.32 30.89-158.35 30.89-238.76 0-432.331-193.56-432.331-432.33 0-238.76 193.571-432.33 432.331-432.33 231.12 0 418.23 181.84 430.08 410.02l8.66 601.33c175.39-133.17 290.43-341.81 290.43-579.02 0-402.71-326.46-729.164-729.17-729.164Zm151.94 748.604c0 83.91-68.03 151.94-151.94 151.94s-151.94-68.03-151.94-151.94 68.03-151.94 151.94-151.94 151.94 68.03 151.94 151.94Z" style="fill-rule:nonzero;"/></svg>