<svg role="img" viewBox="0 0 24 24" xmlns="http://www.w3.org/2000/svg"><title>Musixmatch</title><path d="M23.5 17.5c.1.1.3.2.5.2v4.1c0 1.3-1.2 2.2-2.4 2.2-.5 0-1-.2-1.5-.5 0 0-3.6-2.9-7.5-6.1L18 13l5.5 4.5zm-23-.1c-.1.1-.3.2-.5.2v4.2C0 23.1 1.1 24 2.3 24c.5 0 1-.2 1.5-.5l7.6-6.1L6 13 .5 17.4zM12 8.1l-5.4 4.4 5.4 4.4 5.4-4.4L12 8.1zM0 16.9l5.4-4.4L0 8.1v8.8zm24 0V8l-5.4 4.4 5.4 4.5zM0 7.2l5.4 4.4.4.3.2.1.6-.5 4.9-4 .5-.4-.4-.3-.2-.1-7.6-6C3.3.3 2.8.2 2.3.2 1.3.2.4.8.1 1.8c0 .1 0 .2-.1.2v5.2zm23.9-5.5C23.7.6 22.6 0 21.6 0c-.5 0-1 .2-1.5.5 0 0-4.7 3.8-7.5 6.1-.2.1-.3.3-.5.4l.6.5L15 9.4l2.6 2.1.4.5.6-.5L24 7.1V2.2c0-.2 0-.4-.1-.5z"/></svg>