<svg role="img" viewBox="0 0 24 24" xmlns="http://www.w3.org/2000/svg"><title>Rewe icon</title><path d="M1.455 15.177c.357 0 .525-.168.525-.514v-1.888H2l1.105 1.897c.207.355.385.505.704.505h1.115c.272 0 .497-.103.497-.318a.622.622 0 00-.112-.308l-1.37-2.018c.882-.328 1.266-.954 1.266-1.701 0-1.261-.75-2.009-2.718-2.009H.565c-.347 0-.516.168-.516.523v5.317c0 .346.169.514.516.514zm.525-3.57v-1.326h.413c.553 0 .787.233.787.663 0 .43-.234.664-.787.664zm8.138 3.57c.356 0 .525-.168.525-.514v-.458c0-.355-.169-.523-.525-.523h-2.1v-.953h1.537c.357 0 .525-.168.525-.514v-.458c0-.355-.168-.523-.525-.523H8.018v-.916h1.819c.356 0 .525-.168.525-.514v-.458c0-.355-.169-.523-.525-.523H6.565c-.347 0-.516.168-.516.523v5.317c0 .346.169.514.516.514h3.553zm5.888-5.85c-.075-.354-.254-.504-.647-.504h-.797c-.394 0-.572.15-.647.505l-.638 3.12h-.018l-.516-3.12c-.056-.355-.234-.505-.647-.505h-.769c-.318 0-.496.14-.496.42 0 .057.009.131.028.206l1.228 5.214c.084.346.253.514.693.514h.77c.393 0 .571-.15.646-.505l.703-3.41h.019l.703 3.41c.075.355.253.505.647.505h.769c.44 0 .61-.168.694-.514l1.228-5.214a.884.884 0 00.028-.205c0-.28-.188-.42-.497-.42h-.656c-.413 0-.59.149-.647.504l-.516 3.12h-.019zm7.518 5.85c.357 0 .525-.168.525-.514v-.458c0-.355-.168-.523-.525-.523h-2.1v-.953h1.538c.356 0 .525-.168.525-.514v-.458c0-.355-.169-.523-.525-.523h-1.538v-.916h1.819c.356 0 .525-.168.525-.514v-.458c0-.355-.169-.523-.525-.523h-3.272c-.347 0-.515.168-.515.523v5.317c0 .346.168.514.515.514z"/></svg>
