<?xml version="1.0" encoding="UTF-8" standalone="no"?>
<svg
   role="img"
   viewBox="0 0 24 24"
   version="1.1"
   id="svg523"
   sodipodi:docname="simpleicons.svg"
   inkscape:version="1.1 (c4e8f9e, 2021-05-24)"
   xmlns:inkscape="http://www.inkscape.org/namespaces/inkscape"
   xmlns:sodipodi="http://sodipodi.sourceforge.net/DTD/sodipodi-0.dtd"
   xmlns="http://www.w3.org/2000/svg"
   xmlns:svg="http://www.w3.org/2000/svg"
   xmlns:rdf="http://www.w3.org/1999/02/22-rdf-syntax-ns#"
   xmlns:cc="http://creativecommons.org/ns#"
   xmlns:dc="http://purl.org/dc/elements/1.1/">
  <defs
     id="defs527" />
  <sodipodi:namedview
     id="namedview525"
     pagecolor="#ffffff"
     bordercolor="#666666"
     borderopacity="1.0"
     inkscape:pageshadow="2"
     inkscape:pageopacity="0.0"
     inkscape:pagecheckerboard="true"
     showgrid="false"
     inkscape:zoom="35.416667"
     inkscape:cx="11.985882"
     inkscape:cy="12"
     inkscape:window-width="1680"
     inkscape:window-height="1050"
     inkscape:window-x="0"
     inkscape:window-y="0"
     inkscape:window-maximized="0"
     inkscape:current-layer="svg523" />
  <title
     id="title519">Simple Icons</title>
  <path
     d="M12 0C8.688 0 6 2.688 6 6s2.688 6 6 6c1.066 0 2.1171.2862 3.0371.8262 2.858 1.678 3.8167 5.3539 2.1387 8.2129h1.6797a7.4925 7.4925 0 0 0 .6425-3.0293c.003-4.144-3.356-7.5048-7.498-7.5098-2.484 0-4.5-2.016-4.5-4.5S9.516 1.5 12 1.5s4.5 2.016 4.5 4.5H18c0-3.312-2.688-6-6-6zm0 3c-1.597.04-2.8799 1.3259-2.9219 2.9219C9.0351 7.5799 10.343 8.957 12 9c1.597-.04 2.8799-1.3259 2.9219-2.9219C14.9649 4.4201 13.656 3.043 12 3zm0 1.5c.828 0 1.5.672 1.5 1.5v.002c0 .828-.672 1.5-1.5 1.5-.83 0-1.5-.673-1.5-1.502 0-.83.67-1.5 1.5-1.5zM7.5 15v1.5H9v6H4.5V24h15v-1.5H15v-6h1.5V15h-9zm3 1.5h3v6h-3v-6zm-6 1.4707V18a7.418 7.418 0 0 0 .6445 3.039h1.6836C6.3001 20.147 6 19.11 6 18v-.0293H4.5Z"
     id="path521"
     fill="#fff"
     fill-opacity=".5" />
  <path
     d="M 11.620566,0 C 8.3085658,0 5.6205657,2.688 5.6205657,6 c 0,3.312 2.6880001,6 6.0000003,6 1.066,0 2.1171,0.2862 3.0371,0.8262 2.858,1.678 3.8167,5.3539 2.1387,8.2129 h 1.6797 a 7.4925001,7.4925 0 0 0 0.642501,-3.0293 C 19.121567,13.8658 15.762566,10.505 11.620566,10.5 9.1365658,10.5 7.1205658,8.484 7.1205658,6 c 0,-2.484 2.016,-4.5 4.5000002,-4.5 2.484,0 4.5,2.016 4.5,4.5 h 1.5 c 0,-3.312 -2.688,-6 -6,-6 z m 0,3 c -1.597,0.04 -2.8799002,1.3259 -2.9219002,2.9219 -0.043,1.658 1.2649,3.0351 2.9219002,3.0781 1.597,-0.04 2.8799,-1.3259 2.9219,-2.9219 0.043,-1.658 -1.2659,-3.0351 -2.9219,-3.0781 z m 0,1.5 c 0.828,0 1.5,0.672 1.5,1.5 v 0.002 c 0,0.828 -0.672,1.5 -1.5,1.5 -0.83,0 -1.5,-0.673 -1.5,-1.502 0,-0.83 0.67,-1.5 1.5,-1.5 z M 7.1205658,15 v 1.5 h 1.5 v 6 H 4.1205657 V 24 H 19.120567 v -1.5 h -4.500001 v -6 h 1.5 V 15 Z m 3.0000002,1.5 h 3 v 6 h -3 z M 4.1205657,17.9707 V 18 a 7.4180001,7.418 0 0 0 0.6445,3.039 H 6.4486658 C 5.9206657,20.147 5.6205657,19.11 5.6205657,18 v -0.0293 z"
     id="path521-6"
     fill-opacity=".5" />
  <metadata
     id="metadata609">
    <rdf:RDF>
      <cc:Work
         rdf:about="">
        <dc:title>Simple Icons</dc:title>
      </cc:Work>
    </rdf:RDF>
  </metadata>
</svg>
