<svg role="img" viewBox="0 0 24 24" xmlns="http://www.w3.org/2000/svg"><title>Vala</title><path d="M.003 0c-.007 7.57 0 16.43 0 24H24V0Zm11.763 5.018a7.835 7.835 0 0 1 .791.039l.175 12.17 4.162-12.113h1.381l-5.495 14.74H9.93h.002L9.612 6.34c-.926.348-1.65.892-2.172 1.632-.516.74-.773 1.662-.773 2.763 0 .251.012.457.038.618a2.17 2.17 0 0 0 .184.589.267.267 0 0 1 .048.135 3.86 3.86 0 0 1-.907-.096 1.75 1.75 0 0 1-.667-.329 1.455 1.455 0 0 1-.405-.589 2.642 2.642 0 0 1-.136-.907c0-.438.093-.87.28-1.294.193-.425.453-.828.782-1.208a7.12 7.12 0 0 1 1.169-1.052c.45-.323.93-.6 1.438-.831a8.254 8.254 0 0 1 1.604-.55 7.086 7.086 0 0 1 1.671-.204Z"/></svg>