<svg role="img" xmlns="http://www.w3.org/2000/svg" viewBox="0 0 24 9.893"><title>XML</title><path d="M22.274 2.192a4.734 4.734 0 0 1 .249-1.318 3.212 3.212 0 0 0 .425 1.15A2.443 2.443 0 0 1 24 2.038a3.682 3.682 0 0 1-.924.633 2.559 2.559 0 0 1 .658.967c-.469-.009-.9-.417-1.26-.637-.312.352-.531.694-.989.822.165-.352.552-.656.6-1.021a2.733 2.733 0 0 1-1.056-.725c.377.023.869.071 1.246.115m.219 2.693a3.457 3.457 0 0 1 .18-.957 2.345 2.345 0 0 0 .309.835 1.771 1.771 0 0 1 .763.01 2.633 2.633 0 0 1-.67.459 1.847 1.847 0 0 1 .477.7c-.339-.007-.651-.3-.914-.462-.227.255-.385.5-.717.6.119-.255.4-.476.435-.741a1.972 1.972 0 0 1-.767-.529c.273.017.63.052.9.084m-1.064 2.128a2.415 2.415 0 0 1 .125-.661 1.609 1.609 0 0 0 .214.577 1.218 1.218 0 0 1 .527.007 1.822 1.822 0 0 1-.463.317 1.3 1.3 0 0 1 .33.485c-.235 0-.451-.209-.632-.319-.157.176-.266.348-.5.412.082-.176.276-.329.3-.512a1.354 1.354 0 0 1-.529-.364c.188.012.435.036.624.058M3.957 6.878a25.712 25.712 0 0 0-2.615 2.4c-.179.2-.277.564-.583.605C.431 9.928.357 9.8.2 9.555s-.33-.648-.069-.816S3.49 5.725 3.6 5.615s-.012-.429-.07-.889a8.279 8.279 0 0 1-.066-1.72 11.346 11.346 0 0 1 .347-1.925C3.905.724 3.849.02 4.345 0c.1.024.867.552.659 1.248a9 9 0 0 0-.5 3.188c.017.205.1.384.232.29a23 23 0 0 1 4.193-2.289 4.672 4.672 0 0 1 .833-.189c.2.023.357.212.515.348.8.686-.753 3.107-.884 3.854.124 0 .259-.188.495-.4.253-.229.646-.591.936-.871a2.9 2.9 0 0 1 1.394-.71c1.352-.172.948 1.775.643 2.48.175 0 .6-.49.942-.813.172-.162.362-.334.535-.494.205-.19.3-.289.458-.213a.963.963 0 0 1 .582.721 3.832 3.832 0 0 1-.186 1c-.056.272-.042 1.158.325 1.161a1.209 1.209 0 0 1 .508-.179c.277-.047.263.043.494.129.359.134.035.645-.154.832a1.411 1.411 0 0 1-.982.415 1.035 1.035 0 0 1-.9-.6 8.115 8.115 0 0 1-.275-1.1c-.049-.2-.007-.45-.224-.241-.612.59-1.244 1.139-1.867 1.719-.686.64-1.342-.24-1.217-.956s.729-1.561.839-2.254c-.289 0-.779.506-.962.713-.3.339-.633.714-.972 1.07s-.628.681-.971 1.041c-.247.257-.529.621-.946.645a.973.973 0 0 1-.588-.81 2.227 2.227 0 0 1 .185-1.094A41.365 41.365 0 0 0 9.244 3.63 13.056 13.056 0 0 0 5 5.942c-.428.352-.033 1 .146 1.428a6.156 6.156 0 0 0 .923 1.43c.445.369.09.694-.35.668a4.464 4.464 0 0 1-.587-.449 4.193 4.193 0 0 1-.5-.629 3.77 3.77 0 0 1-.67-1.513M19.771 1.1c-.126-.465-.708.245-1 .622a14.305 14.305 0 0 0-1.661 3.542 4.249 4.249 0 0 0 .28 3.721 1.8 1.8 0 0 0 2.042.434 1.527 1.527 0 0 0 .948-.719c.115-.264.174-.754-.4-.381a2.4 2.4 0 0 1-1.369.292 1.087 1.087 0 0 1-.762-.723 4.078 4.078 0 0 1-.11-1.392A13.171 13.171 0 0 1 18.8 3.42c.162-.359.657-1.258.841-1.546a1.069 1.069 0 0 0 .13-.774Z"/></svg>
