<svg xmlns="http://www.w3.org/2000/svg" width="90" height="30" fill="none" viewBox="0 0 90 30"><g clip-path="url(#a)"><path fill="#950edb" fill-rule="evenodd" d="M56.923 6.61a1.76 1.76 0 0 1 1.787-1.78h1.258V2.213A1.937 1.937 0 0 1 61.892 0a1.95 1.95 0 0 1 1.863 1.391c.08.266.1.547.06.822V4.83h4.09a1.77 1.77 0 0 1 1.656 1.095 1.787 1.787 0 0 1-1.655 2.463h-4.09v6.303c0 3.073 1.714 4.644 4.09 4.644a1.804 1.804 0 0 1 1.801 1.798 1.797 1.797 0 0 1-1.802 1.799c-4.512 0-7.937-3.176-7.937-8.241V8.389H58.71a1.794 1.794 0 0 1-1.787-1.78ZM41.179 27.656v-6.845a8.7 8.7 0 0 0 5.794 2.164c5.027 0 8.833-4.085 8.833-9.256 0-5.17-3.806-9.255-8.833-9.255a8.54 8.54 0 0 0-5.794 2.197V6.42a1.94 1.94 0 0 0-3.19-1.192 1.94 1.94 0 0 0-.65 1.192v21.237a1.94 1.94 0 0 0 3.191 1.192 1.94 1.94 0 0 0 .65-1.192Zm5.377-19.632c3 0 5.377 2.445 5.377 5.695s-2.376 5.695-5.377 5.695-5.377-2.445-5.377-5.695v-.247c.107-3.105 2.376-5.448 5.377-5.448M17.352 13.69a9.3 9.3 0 0 1 1.478-4.963 9.3 9.3 0 0 1 3.897-3.401 9.26 9.26 0 0 1 9.84 1.293 2.02 2.02 0 0 1 .695 1.451 2 2 0 0 1-.56 1.398l-5.345 6.38a1.61 1.61 0 0 1-1.322.628 1.71 1.71 0 0 1-1.673-1.055 1.7 1.7 0 0 1-.13-.686 1.57 1.57 0 0 1 .414-1.151l4.207-4.943a4.25 4.25 0 0 0-2.292-.629c-2.986 0-5.35 2.51-5.35 5.678s2.33 5.678 5.35 5.678a4.97 4.97 0 0 0 3.681-1.572l.213-.176c.45-.377.824-.69 1.456-.69a1.8 1.8 0 0 1 1.337.514 1.8 1.8 0 0 1 .54 1.33 2.03 2.03 0 0 1-.56 1.252 8.64 8.64 0 0 1-6.667 2.902 9.05 9.05 0 0 1-6.556-2.664 9.1 9.1 0 0 1-2.653-6.574M9.903 8.339H2.187a1.79 1.79 0 0 1-1.255-.526 1.797 1.797 0 0 1-.009-2.527 1.76 1.76 0 0 1 1.264-.517h11.557a1.76 1.76 0 0 1 1.65 1.099c.089.217.133.45.13.686a1.86 1.86 0 0 1-.557 1.26L5.572 19.056h8.172a1.76 1.76 0 0 1 1.65 1.1A1.8 1.8 0 0 1 15 22.101a1.79 1.79 0 0 1-1.256.525H1.78a1.8 1.8 0 0 1-1.265-.54A1.8 1.8 0 0 1 0 20.807c.012-.472.2-.922.524-1.264l9.38-11.205Zm63.188.229a9.23 9.23 0 0 0-1.556 5.13 9.07 9.07 0 0 0 9.232 9.232 9.233 9.233 0 1 0-7.676-14.362m7.676-.552c3.063 0 5.367 2.546 5.367 5.681 0 3.102-2.299 5.681-5.367 5.681s-5.366-2.545-5.366-5.68c0-3.136 2.303-5.682 5.366-5.682" clip-rule="evenodd"/></g><defs><clipPath id="a"><path fill="#fff" d="M0 0h90v30H0z"/></clipPath></defs></svg>