<svg xmlns="http://www.w3.org/2000/svg" width="128" height="128"><path fill-rule="evenodd" clip-rule="evenodd" fill="#fff" d="M95.667 28.5h-62.303c-4.917 0-9.364 4.31-9.364 9.17v26.391c0 19.433 16.402 35.439 36.065 35.439h8.901c19.663 0 35.034-16.006 35.034-35.439v-26.391c0-4.86-3.417-9.17-8.333-9.17zm-31.057 57.472c-14.748 0-26.61-11.735-26.61-26.31v-13.162h13v13.162c0 7.287 6.059 13.115 13.433 13.115 7.372 0 13.432-6.277 13.432-13.277h13.352c.001 15-11.861 26.472-26.607 26.472zm26.384-30.71l-12.905-3.297 3.115-12.756 13.128 3.298-3.338 12.755z"/></svg>