<svg xmlns="http://www.w3.org/2000/svg" width="128" height="128"><path d="M71 42.804l19-4.913v6.206l-19 4.911v-6.204zm-33 1.293l19 4.911v-6.204l-19-4.914v6.207zm33 17.509l19-4.911v-6.203l-19 4.912v6.202zm-33-4.911l19 4.911v-6.203l-19-4.912v6.204zm33 17.512l19-4.911v-6.204l-19 4.912v6.203zm-33-4.911l19 4.911v-6.203l-19-4.912v6.204zm62-40.298v45.182c0 2.791-2.11 5.443-4.8 6.171l-27.546 7.482c.546 2.405 1.614 4.371 2.644 5.79.658.887 1.578 1.848 3.057 2.634.316.169.289.341-.062.405l-4.422.857-.634 6.138c-.037.356-.284.452-.54.202-2.305-2.244-3.991-5.092-4.968-7.935-1.015-2.956-1.558-5.543-1.808-7.959l-28.119-7.614c-2.691-.728-4.802-3.38-4.802-6.171v-45.182c0-2.846 2.18-4.998 4.95-4.998.474 0 .989.063 1.463.195l24.448 6.603c.713.217 1.139.491 2.139.797v-.007s1.412.653 3.161 2.294c1.283-1.22 2.989-2.453 5.319-3.088l24.087-6.599c.475-.132 1.028-.195 1.499-.195 2.774 0 4.934 2.152 4.934 4.998zm-65.477 45.58l26.477 7.144v-42.65c-1-.853-2.188-2.019-3.892-2.551l-23.108-6.206v43.865c0 .115.405.348.523.398zm59.319-.411l.001-43.852-22.855 6.239c-1.888.514-3.288 1.904-3.918 2.747.032.246-.07.495-.07.75v41.68l26.422-7.157c.106-.046.403-.279.42-.407z"/></svg>