<svg xmlns="http://www.w3.org/2000/svg" width="128" height="128"><path fill="#000000" d="M84.265 79.132c-8.912 14.298-19.747 24.868-26.171 24.868-13.887 0-33.576-41.864-33.576-60.31 0-2.901.622-5.18 1.657-6.632 4.769-5.803 19.691-10.364 32.126-11.813-1.452 1.242-2.486 2.694-2.486 7.045 0 11.814 14.92 47.312 25.078 47.312 1.237 0 2.184-.12 3.372-.47zm-13.943-48.707c0 11.815 10.571 35.441 19.067 35.441 4.767 0 14.094-17.824 14.094-32.54 0-7.254-12.852-9.327-25.702-9.327-5.387.001-7.459 1.039-7.459 6.426z"/></svg>