<svg xmlns="http://www.w3.org/2000/svg" width="128" height="128"><path fill="#000000" d="M64 24c-22.056 0-40 17.943-40 39.999s17.944 40.001 40 40.001c22.055 0 40-17.945 40-40.001 0-22.056-17.945-39.999-40-39.999zm-35.963 39.999c0-5.214 1.119-10.164 3.114-14.636l17.155 47.002c-11.997-5.829-20.269-18.132-20.269-32.366zm35.963 35.965c-3.53 0-6.937-.518-10.16-1.465l10.791-31.354 11.054 30.285c.073.178.162.341.258.496-3.739 1.315-7.755 2.038-11.943 2.038zm4.956-52.827c2.165-.114 4.116-.342 4.116-.342 1.938-.229 1.709-3.077-.229-2.964 0 0-5.825.457-9.585.457-3.534 0-9.472-.457-9.472-.457-1.939-.113-2.167 2.849-.228 2.964 0 0 1.834.228 3.772.342l5.603 15.352-7.871 23.603-13.096-38.955c2.167-.114 4.116-.342 4.116-.342 1.937-.229 1.708-3.077-.23-2.964 0 0-5.824.457-9.585.457-.675 0-1.47-.017-2.315-.044 6.43-9.761 17.483-16.208 30.048-16.208 9.362 0 17.887 3.58 24.285 9.442l-.466-.029c-3.533 0-6.039 3.077-6.039 6.383 0 2.964 1.71 5.471 3.533 8.435 1.368 2.395 2.965 5.472 2.965 9.918 0 3.078-1.184 6.649-2.736 11.626l-3.588 11.985-12.998-38.659zm26.601-.391c2.807 5.122 4.405 11 4.405 17.253 0 13.268-7.19 24.851-17.882 31.085l10.984-31.759c2.052-5.131 2.735-9.233 2.735-12.881 0-1.324-.087-2.553-.242-3.698z"/></svg>