<svg xmlns="http://www.w3.org/2000/svg" width="128" height="128"><path fill="#fff" d="M83.11 73.013v1.788c0 .128.235.32.221.32h.007c0 9-7.229 17.418-15.229 19.077v4.103c0 .319-.635.82-.714.82h4.314c1.271 0 2.303 1.228 2.303 2.5s-1.032 2.5-2.303 2.5h-15.357c-1.273 0-2.305-1.228-2.305-2.5s1.033-2.5 2.305-2.5h4.232c-.079 0-.474-.501-.474-.82v-4.104c-9-1.662-15.462-10.076-15.462-19.076h.024c-.015 0 .439-.204.439-.339v-1.787c0-1.95 1.05-3.531 3-3.531s3 1.581 3 3.531v1.787c0 .135.591.339.576.339h.01c0 7 5.506 12.297 12.297 12.297 6.792 0 12.298-5.297 12.298-12.297h.021c-.013 0-.202-.192-.202-.32v-1.788c0-1.949 1.549-3.53 3.5-3.53 1.948 0 3.499 1.581 3.499 3.53zm-11-22.122c0-4.291-3.438-7.77-7.679-7.77h-1.641c-4.241 0-7.679 3.479-7.679 7.77v25.461c0 4.291 3.438 7.77 7.679 7.77h1.641c4.241 0 7.679-3.479 7.679-7.77v-25.461zm-7.501-11.648c1.884 0 3.5-1.526 3.5-3.411v-8.544c0-1.883-1.616-3.41-3.5-3.41-1.883 0-3.5 1.527-3.5 3.41v8.544c.001 1.885 1.617 3.411 3.5 3.411zm23.029 7.878h-8.543c-1.884 0-3.411 1.617-3.411 3.5 0 1.884 1.527 3.5 3.411 3.5h8.543c1.883 0 3.41-1.616 3.41-3.5 0-1.883-1.527-3.5-3.41-3.5zm-10.365-4.307l6.041-6.041c1.331-1.331 1.331-3.491-.001-4.823-1.332-1.332-3.492-1.332-4.823 0l-6.04 6.04c-1.333 1.332-1.332 3.491 0 4.823 1.331 1.333 3.491 1.333 4.823.001zm-24.957 7.807c0-1.883-1.527-3.5-3.411-3.5h-8.543c-1.884 0-3.41 1.616-3.41 3.5 0 1.883 1.526 3.5 3.41 3.5h8.543c1.885 0 3.411-1.617 3.411-3.5zm-1.156-8.08c1.333 1.332 3.491 1.332 4.823.001 1.332-1.333 1.332-3.492.001-4.824l-6.041-6.041c-1.332-1.332-3.491-1.333-4.824.001-1.331 1.331-1.331 3.491 0 4.822l6.041 6.041z"/></svg>