<svg xmlns="http://www.w3.org/2000/svg" width="128" height="128"><path d="M24.906 67.408c-.167 0-.299.129-.321.313l-.585 4.443.585 4.367c.022.184.154.313.321.313.161 0 .293-.128.319-.311l.693-4.369-.693-4.445c-.025-.182-.158-.311-.319-.311zm3.29-2.428c-.028-.191-.165-.323-.333-.323-.17 0-.31.136-.333.323l-.786 7.184.786 7.026c.023.188.163.324.333.324.168 0 .305-.133.332-.323l.895-7.027-.894-7.184zm12.393-6.627c-.323 0-.589.264-.605.6l-.626 13.219.626 8.542c.016.334.282.597.605.597.321 0 .586-.264.606-.599v.002l.708-8.543-.708-13.219c-.02-.336-.285-.599-.606-.599zm-6.414 4.594c-.248 0-.45.198-.47.462l-.706 8.758.706 8.473c.019.262.222.46.47.46.245 0 .447-.198.469-.46l.802-8.473-.802-8.76c-.022-.262-.224-.46-.469-.46zm12.932 18.362c.4 0 .725-.323.742-.736l.614-8.399-.614-17.598c-.016-.413-.342-.736-.742-.736-.403 0-.729.323-.743.737l-.544 17.597.544 8.402c.014.41.34.733.743.733zm13.344.04c.55 0 1.005-.454 1.015-1.011l.429-8.158-.429-20.325c-.009-.557-.465-1.011-1.015-1.011-.551 0-1.007.454-1.015 1.012l-.383 20.317.383 8.17c.008.553.463 1.006 1.015 1.006zm-6.723-.032c.479 0 .865-.385.878-.875v.006l.522-8.272-.522-17.726c-.013-.491-.399-.874-.878-.874-.482 0-.869.384-.88.874l-.464 17.726.465 8.27c.01.487.396.871.879.871zm-16.359-.077c.285 0 .515-.228.537-.528l.755-8.544-.755-8.128c-.021-.3-.251-.527-.537-.527-.289 0-.519.228-.538.53l-.665 8.125.665 8.543c.019.301.249.529.538.529zm-6.364-.469c.208 0 .376-.165.401-.392l.849-8.214-.848-8.525c-.025-.228-.193-.392-.402-.392-.211 0-.38.166-.401.392l-.747 8.525.747 8.213c.022.229.191.393.401.393zm26.072-26.615c-.521 0-.938.414-.948.944l-.423 17.078.423 8.218c.01.523.427.937.948.937.519 0 .934-.413.946-.943v.007l.475-8.218-.475-17.081c-.012-.528-.427-.942-.946-.942zm-13.242 27.171c.36 0 .656-.293.674-.668l.66-8.486-.66-16.242c-.018-.375-.314-.668-.674-.668-.363 0-.659.293-.675.668l-.585 16.242.586 8.489c.015.371.311.665.674.665zm7.379-.801v-.004l.568-8.346-.568-18.191c-.013-.452-.37-.806-.81-.806-.442 0-.798.354-.811.806l-.504 18.19.505 8.35c.012.447.368.801.81.801.44 0 .795-.354.81-.803v.003zm42.947-18.836c-1.349 0-2.635.273-3.806.764-.783-8.868-8.22-15.825-17.291-15.825-2.22 0-4.383.437-6.295 1.176-.743.287-.94.583-.947 1.157v31.231c.008.602.475 1.104 1.063 1.163.025.003 27.1.016 27.276.016 5.434 0 9.839-4.406 9.839-9.841 0-5.436-4.405-9.841-9.839-9.841zm-30.35-12.756c-.591 0-1.076.486-1.085 1.081l-.444 22.167.444 8.045c.008.587.493 1.072 1.084 1.072.589 0 1.075-.485 1.083-1.081v.009l.482-8.046-.482-22.168c-.008-.593-.493-1.079-1.082-1.079z"/></svg>