<svg xmlns="http://www.w3.org/2000/svg" width="128" height="128"><path d="M103.999 59.037h-6.37v10.629c0 .481-.185.888-.481 1.223-.297.296-.704.444-1.184.48h-3.704c-.519-.037-.926-.185-1.222-.48-.297-.333-.481-.741-.481-1.223v-10.629h-6.37v11.185c.037 1.482.297 2.777.926 3.814.629 1.038 1.444 1.815 2.518 2.333 1.111.519 2.37.816 3.814.816h6.186v-.074c1.334 0 2.481-.297 3.444-.852.926-.593 1.667-1.407 2.149-2.446.516-1.036.776-2.259.776-3.593l-.001-11.183zm-63.74.667c-1.111-.481-2.333-.704-3.667-.667h-4.111l-1.592.185c-.37.111-.556.185-.556.185v-8.593h-6.333v26.37h6.333v-10.666c.037-.445.185-.889.519-1.185s.704-.481 1.222-.481h3.704c.444 0 .852.186 1.185.481.333.296.481.74.518 1.185v10.667h6.333v-11.481c0-1.593-.333-2.889-.963-3.889-.666-.963-1.518-1.667-2.592-2.111zm21.555 9.962c-.037.481-.185.888-.481 1.222-.334.296-.741.444-1.222.48h-3.704c-.481-.037-.889-.185-1.185-.48-.333-.333-.481-.741-.519-1.222v-10.63h-6.333v11.185c0 1.482.296 2.777.889 3.814.593 1.038 1.444 1.815 2.518 2.333 1.111.519 2.333.816 3.814.816h6.222v-.074c1.333 0 2.481-.297 3.407-.852.926-.593 1.667-1.407 2.186-2.446.481-1.036.741-2.259.777-3.593v-11.182h-6.37l.001 10.629zm11.186 7.519h6.333v-26.37h-6.333v26.37z"/></svg>