<svg xmlns="http://www.w3.org/2000/svg" width="128" height="128"><path fill="#fff" d="M43.855 27.523c-10.291 4.076-17.283 11.929-19.235 22.508-1.199 6.5-.743 13.586 2.124 19.653.639 1.349 1.406 2.648 2.318 3.849.442.586.916 1.146 1.43 1.677.914-.325 1.796-.732 2.637-1.208 3.478-1.964 6.045-4.989 9.024-7.532-9.957-11.535.596-25.83 13.797-29.018 12.289-2.963 28.945 2.151 32.672 14.795 1.542 5.237.532 11.026-3.738 14.818-2.234 1.984-5.068 3.297-8.065 3.831-1.75.31-3.547.359-5.316.185-.986-.099-1.966-.266-2.931-.492-1.636-.386-3.091-.328-3.091-2.092v-20.737c0-1.413.139-1.148-1.033-1.293-.925-.113-1.848-.204-2.776-.276-3.26-.255-6.668-.43-9.903.127-1.21.208-1.286.014-1.286 1.326v10.935c0 7.722.581 15.534.262 23.242-.092 2.297-.156 7.81-2.727 8.948-2.98 1.317-5.613-1.468-8.363-2.05.377 3.87-2.044 11.537 2.468 13.49 4.136 1.792 8.895 2.459 13.256.98 9.135-3.099 12.09-13.266 10.932-21.619 14.102 4.213 29.324-2.836 35.355-15.571 4.294-9.068 2.481-20.331-3.984-28.042-12.107-14.447-36.689-17.218-53.827-10.434z"/></svg>