<svg xmlns="http://www.w3.org/2000/svg" width="128" height="128"><defs><filter filterUnits="userSpaceOnUse" x="24" y="42.998" width="80" height="42.003"><feColorMatrix values="1 0 0 0 0 0 1 0 0 0 0 0 1 0 0 0 0 0 1 0"/></filter></defs><mask maskUnits="userSpaceOnUse" x="24" y="42.998" width="80" height="42.003" id="b"><linearGradient id="a" gradientUnits="userSpaceOnUse" x1="55.283" y1="54.62" x2="44.774" y2="48.552"><stop offset="0" stop-color="#231F20"/><stop offset=".03" stop-color="#2D292A"/><stop offset=".227" stop-color="#6C696A"/><stop offset=".416" stop-color="#A19F9F"/><stop offset=".59" stop-color="#C9C8C9"/><stop offset=".747" stop-color="#E7E6E6"/><stop offset=".882" stop-color="#F9F9F9"/><stop offset=".978" stop-color="#fff"/></linearGradient><path fill="url(#a)" d="M40.566 56.082c1.5-.898 3.214-1.344 5.198-1.344.19 0 .391.002.587.018 2.994.124 5.305 1.081 7.146 2.959l5.785-10.669c-1.435-.991-3.063-1.837-4.869-2.511-2.059-.779-4.239-1.243-6.494-1.428l-7.353 12.975z"/><path fill="#fff" d="M47.911 43.099c-.302-.025-.606-.062-.909-.077-4.086-.16-7.86.597-11.271 2.277-3.464 1.706-6.27 4.209-8.344 7.425-2.071 3.209-3.202 6.78-3.364 10.608-.251 5.762 1.65 10.807 5.642 14.992 3.951 4.155 9.075 6.388 15.235 6.653 3.934.155 7.55-.472 10.763-1.883.721-.322 1.428-.69 2.139-1.106.391-.229.76-.478 1.126-.737l.271-.19c.198-.13.397-.268.454-.319.547-.401 1.058-.845 1.555-1.306l.175-.159c.295-.285.583-.577.862-.88l1.034-1.199c.166-.191.327-.384.479-.595l.106-.16.13-.177c1.539-2.655 6.602-12.463 6.602-12.463l-.005-.018.301-.591.247-.463c.74-1.382 1.373-2.436 2.078-3.464 2.014-2.925 4.693-4.364 8.441-4.519 2.911-.115 5.302.66 7.26 2.41 1.956 1.748 2.911 3.774 3.028 6.379.069 1.686-.283 3.257-1.085 4.792-.786 1.513-1.872 2.671-3.317 3.543-1.485.908-3.161 1.387-5.123 1.468-3.078.164-5.643-.132-7.817-2.146 0 0-2.1-1.981-3.476-3.612l-5.573 11.047c.954.754 2.418 1.885 3.471 2.578 1.034.721 2.133 1.364 3.317 1.887 2.877 1.262 6.086 1.908 9.541 1.908.402 0 .81-.012 1.224-.025 6.154-.265 11.282-2.499 15.231-6.653 3.99-4.185 5.886-9.23 5.642-14.992-.16-3.832-1.296-7.402-3.364-10.604-2.079-3.224-4.886-5.723-8.351-7.433-3.097-1.525-6.519-2.297-10.171-2.297-.362 0-.729.008-1.11.024-2.564.118-5.047.622-7.379 1.501-2.348.88-4.397 2.031-6.075 3.413-.339.277-.712.621-1.108.999l-.289.293-.393.426.008.001-.186.183-.09.103-.466.507c-.346.398-.678.796-.986 1.19l-.015-.016c-.642.802-1.235 1.63-1.668 2.379-.295.477-.582.965-.861 1.462l-3.821 7.945.004.005-.2.399-.426.884c-.833 1.739-1.732 3.479-2.735 4.911-2.396 2.703-5.126 3.919-8.716 3.732-1.958-.081-3.639-.56-5.125-1.468-1.443-.873-2.53-2.034-3.311-3.536-.806-1.542-1.159-3.118-1.088-4.805.111-2.597 1.073-4.625 3.022-6.369.467-.417.962-.779 1.479-1.087.005-.002.054-.107.211-.111l7.302-12.856"/></mask><path mask="url(#b)" fill="#fff" d="M100.615 52.728c-2.079-3.224-4.886-5.723-8.351-7.433-3.097-1.525-6.519-2.297-10.171-2.297-.362 0-.729.008-1.11.024-2.564.118-5.047.622-7.379 1.501-2.348.88-4.397 2.031-6.075 3.413-.339.277-.712.621-1.108.999l-.289.293-.393.426.008.001-.186.183-.09.103-.466.507c-.346.398-.678.796-.986 1.19l-.015-.016c-.642.802-1.235 1.63-1.668 2.379-.295.477-.582.965-.861 1.462l-3.821 7.945.004.005-.2.399-.426.884c-.833 1.739-1.732 3.479-2.735 4.911-2.396 2.703-5.126 3.919-8.716 3.732-1.958-.081-3.639-.56-5.125-1.468-1.443-.873-2.53-2.034-3.311-3.536-.806-1.542-1.159-3.118-1.088-4.805.111-2.597 1.073-4.625 3.022-6.369.467-.417.962-.779 1.479-1.087 1.5-.898 3.214-1.343 5.199-1.343.191 0 .391.002.586.017 2.994.124 5.306 1.081 7.147 2.959l5.785-10.669c-1.435-.992-3.064-1.836-4.87-2.512-2.059-.777-4.239-1.242-6.493-1.427-.302-.025-.606-.062-.909-.077-4.086-.16-7.86.597-11.271 2.277-3.464 1.706-6.27 4.209-8.344 7.425-2.071 3.209-3.202 6.78-3.364 10.608-.251 5.762 1.65 10.807 5.642 14.992 3.951 4.155 9.075 6.388 15.235 6.653 3.934.155 7.55-.472 10.763-1.883.721-.322 1.428-.69 2.139-1.106.391-.229.76-.478 1.126-.737l.271-.19c.198-.13.397-.268.454-.319.547-.401 1.058-.845 1.555-1.306l.175-.159c.295-.285.583-.577.862-.88l1.034-1.199c.166-.191.327-.384.479-.595l.106-.16.13-.177c1.539-2.655 6.602-12.463 6.602-12.463l-.005-.018.301-.591.247-.463c.74-1.382 1.373-2.436 2.078-3.464 2.014-2.925 4.693-4.364 8.441-4.519 2.911-.115 5.302.66 7.26 2.41 1.956 1.748 2.911 3.774 3.028 6.379.069 1.686-.283 3.257-1.085 4.792-.786 1.513-1.872 2.671-3.317 3.543-1.485.908-3.161 1.387-5.123 1.468-3.078.164-5.643-.132-7.817-2.146 0 0-2.1-1.981-3.476-3.612l-5.573 11.047c.954.754 2.418 1.885 3.471 2.578 1.034.721 2.133 1.364 3.317 1.887 2.877 1.262 6.086 1.908 9.541 1.908.402 0 .81-.012 1.224-.025 6.154-.265 11.282-2.499 15.231-6.653 3.99-4.185 5.886-9.23 5.642-14.992-.163-3.832-1.299-7.402-3.367-10.604z"/></svg>