<svg role="img" viewBox="0 0 24 24" xmlns="http://www.w3.org/2000/svg"><title>115&#29983;&#27963;</title><path d="M20.0987 0a.3117.3117 0 0 0-.0818.0123c-.0185.0062-.037.0155-.0571.0216-.56.2083-1.3732.4351-2.2742.4351H9.067c-.5509 0-1.0369.2623-1.3254.6635L3.602 9.211s2.1447.2438 2.2017.2515c1.9101.2885 4.1736.8331 5.7458 1.7635 2.2588 1.3362 3.6705 3.2771 3.5286 5.3631-.2777 4.0393-4.1504 5.8568-7.1992 6.2935-2.1369.29-3.5579 0-3.5579 0s1.7466 1.0337 4.2615 1.1109c4.2939.128 7.6358-1.6664 9.4024-4.2584 2.7896-4.0887 1.2297-10.6028-6.082-12.5422-1.4041-.3719-3.3513-.7236-3.3513-.7236l1.0415-2.0058c.2314-.5693.8131-.972 1.495-.972.031 0 .0618 0 .0942.003h6.5727c.6064 0 1.1325-.3178 1.404-.7868l.0293-.0556L20.3378.4536a.2654.2654 0 0 0 .0478-.0926.253.253 0 0 0 .0124-.0771c0-.1558-.1343-.2839-.2994-.2839Z"/></svg>