<svg role="img" viewBox="0 0 24 24" xmlns="http://www.w3.org/2000/svg"><title>115生活</title><path d="M21.292 0a2.663 2.663 0 0 1 2.661 2.664v18.647a2.663 2.663 0 0 1-2.661 2.664H2.662A2.663 2.663 0 0 1 0 21.31V2.665A2.663 2.663 0 0 1 2.661 0zm-3.67 4.007-.04.02c-.365.132-.89.279-1.468.279h-5.573c-.359 0-.671.165-.857.424C9.684 4.737 7 9.966 7 9.966c.008 0 1.389.159 1.422.159 1.235.186 2.703.538 3.72 1.143 1.461.863 2.378 2.119 2.285 3.467-.18 2.617-2.684 3.794-4.656 4.08-1.382.185-2.306 0-2.306 0 .005.003 1.133.67 2.764.716 2.776.087 4.935-1.076 6.078-2.757 1.8-2.65.79-6.868-3.94-8.124a33 33 0 0 0-2.165-.464l.671-1.296a1.03 1.03 0 0 1 .963-.624h4.318c.385 0 .73-.206.904-.505l.02-.04.743-1.429a.12.12 0 0 0 .028-.06.1.1 0 0 0 .012-.046c0-.099-.084-.184-.195-.186-.013 0-.032.007-.044.007"/></svg>