<svg role="img" viewBox="0 0 24 24" xmlns="http://www.w3.org/2000/svg"><title>123RF</title><path d="M21.371 6.555c-.689-.312-.782-1.243-.787-1.25l-.002-.037-.005-.034c-.459-2.177-2.114-2.787-2.92-2.804H6.358c-.823.017-2.472.627-2.939 2.804l-.003.028v.043s-.1.938-.822 1.262C.462 7.401 0 8.537 0 9.345v9.54a2.687 2.687 0 0 0 2.685 2.685h18.64A2.684 2.684 0 0 0 24 18.886v-9.54c0-.81-.462-1.945-2.629-2.79Zm1.387 12.33c0 .803-.646 1.451-1.433 1.451H19.05c-.573-1.193-2.25-2.697-3.22-2.697h-7.7c-.968 0-2.644 1.504-3.218 2.697H2.685c-.8 0-1.445-.648-1.445-1.45v-9.54c0-.767.994-1.313 1.837-1.638 1.286-.582 1.525-1.937 1.562-2.23.367-1.706 1.603-1.81 1.736-1.82H17.64c.122.01 1.354.114 1.721 1.82.033.29.271 1.644 1.536 2.217.866.338 1.86.884 1.86 1.65v9.54ZM7.36 11.697a4.553 4.553 0 0 1 9.104 0 4.56 4.56 0 0 1-4.556 4.563c-2.51 0-4.548-2.046-4.548-4.563Z"/></svg>