<svg role="img" viewBox="0 0 24 24" xmlns="http://www.w3.org/2000/svg"><title>1&amp;1</title><path d="M0 0v24h24V0H0zm.383.385h23.19v23.23H.384V.385zm11.34 5.627c-1.62 0-2.772.98-2.772 2.344 0 .81.215 1.236 1.196 2.472-1.535.895-2.345 2.13-2.26 3.324.128 2.004 1.662 3.114 3.879 3.114 1.108 0 1.832-.214 2.642-.854l.47.639h2.173l-1.406-1.832c.682-.853.894-1.705.894-3.111 0-.086-.04-.428-.04-.641h-1.792c0 .256.043.512.043.598.043.724-.128 1.577-.256 1.705l-1.877-2.559c1.28-1.066 1.705-1.79 1.705-2.812 0-1.364-1.065-2.387-2.6-2.387zM2.6 6.139v1.748h1.748v9.164h2.174V6.139H2.6zm13.982 0v1.748h1.748v9.164h2.174V6.139h-3.922zM11.68 7.588c.554 0 .896.299.896.81 0 .47-.256.981-1.023 1.493-.64-.81-.768-1.066-.768-1.493 0-.468.383-.81.895-.81zm-.512 4.56 2.09 2.815c-.384.34-.854.555-1.536.555-1.108 0-1.875-.555-1.875-1.493 0-.596.383-1.194 1.32-1.877z"/></svg>