<svg role="img" viewBox="0 0 24 24" xmlns="http://www.w3.org/2000/svg"><title>1and1</title><path d="M6 11h6v16.992L9 28V14H6zm22 0v3h3v14h3V11.008zm-1.971 14.238l2.288 2.917h-3.59l-.671-.906c-3.414 2.231-7.343 1.619-9.11-.986-1.65-2.768-1.334-5.384 2.485-7.73q-3.353-3.825-.394-6.547a4.638 4.638 0 015.719 0c2.235 2.032 1.55 5.224-1.223 7.178l2.642 3.589a7.24 7.24 0 00.316-3.392h2.84c.186 2.885-.359 4.939-1.302 5.877zm-6.98-9.466l.749 1.1.985-.947c.816-1.315.411-2.143-.827-2.209-1.145.005-1.447.939-.907 2.056zm3.151 8.992l-2.955-3.944c-1.827 1.223-2.405 2.511-1.5 3.944 1.022 1.142 2.655 1.104 4.455 0zM36 4H4v32h32V4m1-1v34H3V3z"/></svg>
