<svg role="img" viewBox="0 0 24 24" xmlns="http://www.w3.org/2000/svg"><title>1Panel</title><path d="M6.013 21.008.027 18.006l-.014-5.998L0 6.01l5.063-2.532L11.075.473 12.023 0l5.989 2.998L24 5.996v12.018l-5.966 2.988a1584.389 1584.389 0 0 1-6 2.998c-.02.005-2.729-1.341-6.021-2.992zm11.856-.205 5.81-2.91V6.117l-5.782-2.9c-3.18-1.594-5.818-2.9-5.863-2.902-.045-.002-2.706 1.311-5.913 2.917L.29 6.152v5.855l.002 5.855 5.824 2.92c3.203 1.607 5.851 2.923 5.883 2.926.033.002 2.674-1.305 5.87-2.905zm-7.11.92c-.683-.34-1.241-.633-1.242-.65 0-.017 2.312-1.188 5.139-2.603l5.14-2.572V8.127l-3.33-1.666c-1.83-.916-3.328-1.678-3.328-1.694 0-.04 2.446-1.264 2.525-1.264.036 0 1.558.747 3.382 1.66l3.318 1.658-.014 5.183-.014 5.183-5.11 2.56a901.942 901.942 0 0 1-5.168 2.577c-.032.01-.616-.26-1.299-.6zm11.255-4.722c0-.014-.013-.025-.029-.025s-.029.011-.029.025c0 .014.013.025.03.025.015 0 .028-.011.028-.025zm-17.007 1.86-3.312-1.657V6.82L6.81 4.263a1001.94 1001.94 0 0 1 5.17-2.575c.057-.02 2.56 1.211 2.557 1.257-.001.015-2.307 1.179-5.125 2.587L4.29 8.092l-.015 3.9-.015 3.9 3.326 1.665c1.83.916 3.314 1.682 3.3 1.702-.035.05-2.461 1.263-2.52 1.26-.025 0-1.537-.747-3.359-1.659zM4.144 8.035c0-.013-.013-.025-.03-.025-.015 0-.028.012-.028.025 0 .014.013.026.029.026s.029-.012.029-.026zm-.117-.05c0-.014-.013-.025-.029-.025s-.03.01-.03.025c0 .014.014.025.03.025s.03-.011.03-.025zm-.117-.05c0-.015-.013-.026-.029-.026s-.029.011-.029.025c0 .014.013.026.03.026.015 0 .028-.012.028-.026zm-.175-.102c0-.014-.013-.025-.029-.025s-.03.011-.03.025c0 .014.014.025.03.025s.03-.011.03-.025zm-.117-.05c0-.015-.013-.026-.029-.026s-.029.011-.029.025c0 .014.013.026.03.026.015 0 .028-.012.028-.026zm-.116-.051c0-.014-.014-.026-.03-.026s-.029.012-.029.026c0 .014.013.025.03.025.015 0 .029-.011.029-.025zm-.176-.102c0-.013-.013-.025-.029-.025s-.029.012-.029.025c0 .014.013.026.03.026.015 0 .028-.012.028-.026zm-.116-.05c0-.014-.014-.025-.03-.025s-.029.01-.029.025c0 .014.013.025.03.025.015 0 .029-.011.029-.025zm-.176-.101c0-.014-.013-.026-.029-.026s-.029.012-.029.026c0 .013.013.025.03.025.015 0 .028-.012.028-.025zm-.116-.051c0-.014-.014-.025-.03-.025s-.029.011-.029.025c0 .014.013.025.03.025.015 0 .029-.011.029-.025zm-.117-.05c0-.015-.013-.026-.03-.026-.016 0-.029.011-.029.025 0 .014.013.026.03.026.016 0 .029-.012.029-.026zm-.175-.102c0-.014-.014-.025-.03-.025s-.029.011-.029.025c0 .014.013.025.03.025.015 0 .029-.011.029-.025zm-.117-.05c0-.014-.013-.026-.03-.026-.016 0-.029.012-.029.025 0 .014.013.026.03.026.016 0 .029-.012.029-.026zm-.117-.051c0-.014-.013-.025-.03-.025-.015 0-.028.01-.028.025 0 .014.013.025.029.025s.029-.011.029-.025zm-.175-.101c0-.014-.013-.026-.03-.026-.016 0-.029.012-.029.026 0 .013.013.025.03.025.016 0 .029-.012.029-.025zM2.1 7.024c0-.014-.013-.025-.03-.025-.015 0-.028.011-.028.025 0 .014.013.025.029.025s.029-.011.029-.025zm-.117-.05c0-.015-.013-.026-.029-.026s-.03.011-.03.025c0 .014.014.026.03.026s.03-.012.03-.026zm-.175-.102c0-.014-.013-.025-.03-.025-.015 0-.028.011-.028.025 0 .014.013.025.029.025s.029-.011.029-.025zm9.315 10.226-1.227-.616-.015-3.4-.015-3.4H8.521l.016-.67.016-.67 1.898-.948 1.898-.948.015 2.838c.008 1.56.008 4.096 0 5.633l-.015 2.796zm1.314-5.04V6.433l.277.14c.153.077.324.164.38.194.096.051.102.36.101 5.322v5.268l-.346.165c-.19.09-.36.164-.379.164-.018 0-.033-2.532-.033-5.626z"/></svg>