<svg role="img" viewBox="0 0 24 24" xmlns="http://www.w3.org/2000/svg"><title>1Password</title><path d="M12 0C5.373 0 0 5.373 0 12c0 6.628 5.373 12 12 12s12-5.372 12-12c0-6.627-5.373-12-12-12zm-1.162 4.861h2.324c.39 0 .587 0 .736.077a.698.698 0 0 1 .305.304c.076.15.076.344.076.735v6.353c0 .098 0 .145-.013.19a.35.35 0 0 1-.053.113c-.028.038-.066.068-.14.129l-.81.658c-.09.073-.137.111-.154.156a.174.174 0 0 0 0 .121c.017.045.064.08.155.155l.808.658a.764.764 0 0 1 .14.13.349.349 0 0 1 .054.112.753.753 0 0 1 .013.191v3.08c0 .391 0 .586-.076.735a.698.698 0 0 1-.305.306c-.149.076-.345.075-.736.075h-2.324c-.39 0-.588.001-.736-.075a.698.698 0 0 1-.305-.306c-.076-.149-.076-.344-.076-.735V11.67c0-.098 0-.145.013-.19a.347.347 0 0 1 .053-.113c.028-.037.066-.067.14-.129l.81-.658c.09-.074.137-.11.154-.154a.174.174 0 0 0 0-.123c-.017-.045-.064-.08-.155-.155l-.808-.658a.757.757 0 0 1-.14-.13.348.348 0 0 1-.054-.112.722.722 0 0 1-.013-.191v-3.08c0-.391 0-.586.076-.735a.698.698 0 0 1 .305-.304c.149-.076.345-.077.736-.077z"/></svg>