<svg role="img" viewBox="0 0 24 24" xmlns="http://www.w3.org/2000/svg"><title>2K</title><path d="M17.318 10.991H22l-5.1 3.483L19.478 20h-4.695l-1.345-3.458-1.493 1.037L11.177 20H7.645l2.142-6.748H2C3.165 9.781 5.68 8.73 7.97 8.263l2.826-.573c.479-.091.799-.325.918-.703.166-.517-.4-.726-1.24-.726-.979 0-1.999.091-2.476 1.261H4.129C5.384 4.416 8.471 4 10.754 4c2.941 0 5.535.521 4.736 3.042-.545 1.713-2.517 2.404-3.885 2.648l-3.433.612c-.818.143-1.296.35-1.623.689h7.492l-1.015 3.179ZM0 24h24V0H0Z"/></svg>