<svg role="img" viewBox="0 0 24 24" xmlns="http://www.w3.org/2000/svg"><title>365 DataScience</title><path d="M21.005 0c-1.315.003-2.462.844-2.788 2.045-.326 1.2.25 2.457 1.402 3.055l-5.852 13.513a2.871 2.705 0 0 0-2.428.237l-6.225-6.708c.922-1.096.805-2.673-.27-3.636-1.077-.964-2.756-.995-3.87-.07-1.116.924-1.297 2.496-.419 3.624.878 1.128 2.524 1.438 3.795.715l6.22 6.708a2.893 2.726 0 0 0-.63 1.698 2.885 2.718 0 0 0 .807 1.986c1.467 1.434 4.018.945 4.773-.915a2.885 2.718 0 0 0 .189-1.071 2.867 2.7 0 0 0-1.042-2.09l5.925-13.667a2.512 2.367 0 0 0 .416.029 2.886 2.719 0 0 0 2.762-1.654 2.886 2.719 0 0 0-.653-3.021 2.887 2.72 0 0 0-2.109-.76Z"/></svg>