<svg role="img" viewBox="0 0 24 24" xmlns="http://www.w3.org/2000/svg"><title>365 DataScience</title><path d="M771.4 5.296c-25.923.072-42.047 28.18-29.024 50.593a33.678 33.678 0 0 0 12.855 12.57l-68.285 167.35a33.495 33.495 0 0 0-28.33 2.94l-72.606-83.074c10.766-13.568 9.396-33.11-3.158-45.043-18.66-17.745-49.532-8.636-55.57 16.397a33.447 33.447 0 0 0 5.544 27.626c10.238 13.971 29.449 17.815 44.275 8.86l72.562 83.073a33.756 33.756 0 0 0-7.35 21.024 33.663 33.663 0 0 0 9.412 24.6c17.116 17.754 46.883 11.692 55.692-11.342a33.668 33.668 0 0 0 2.2-13.258 33.455 33.455 0 0 0-12.16-25.879L766.59 72.467c1.606.253 3.23.373 4.855.357a33.67 33.67 0 0 0 32.218-20.484 33.67 33.67 0 0 0-7.618-37.41 33.676 33.676 0 0 0-24.6-9.41z"/></svg>