<svg role="img" viewBox="0 0 24 24" xmlns="http://www.w3.org/2000/svg"><title>365 DataScience</title><path d="M1.5 16.71v-2.456h.818c.575 0 1.183-.435 1.19-1.913 0-.91-.258-2.115-1.166-2.115-.502 0-1.183.5-1.183 1.956H.09c0-3.434 1.216-4.675 2.26-4.675 1.07 0 2.221 1.456 2.23 4.844a1.172 3.355 0 0 1-.786 3.115c.542.5.924 2.004.924 3.345 0 3.892-1.305 5.036-2.399 5.036S.008 22.602 0 18.984h1.078c0 1.64.786 2.209 1.248 2.209.542 0 1.264-.637 1.264-2.346 0-.953-.187-2.136-1.208-2.136zm5.008-4.096v2.388c.251-1.079.866-1.683 1.312-1.683 1.143 0 2.342 1.342 2.342 5.302 0 3.528-1.207 5.28-2.35 5.28-1.142 0-2.367-1.752-2.367-5.323v-5.942c0-3.55 1.168-5.209 2.335-5.209 1.232 0 2.326 1.364 2.326 4.709H9.042c0-1.41-.628-2.115-1.24-2.115-.64-.022-1.288.957-1.288 2.683zM9.1 18.621c0-1.752-.567-2.683-1.28-2.683-.714 0-1.322.91-1.313 2.683.009 1.773.608 2.6 1.305 2.6.672 0 1.288-.849 1.288-2.6zm5.997-8.053h-3.063v2.798h1.101c1.208 0 2.286 1.388 2.278 5.118 0 3.618-1.078 5.349-2.221 5.349-1.247 0-2.317-1.252-2.326-4.986h1.064c0 1.756.713 2.209 1.248 2.209s1.174-.684 1.174-2.572c.009-1.798-.628-2.32-1.216-2.32H10.99v-8.42h4.109zM23.015 0a.95 2.72 0 0 0-.456 5.1l-1.925 13.514a.944 2.705 0 0 0-.8.237l-2.046-6.708a.943 2.701 0 0 0-.09-3.637.943 2.701 0 0 0-1.41 3.555.943 2.701 0 0 0 1.249.715l2.046 6.708a.952 2.726 0 0 0-.208 1.698.95 2.718 0 0 0 .266 1.986.95 2.719 0 0 0 1.57-.916.95 2.718 0 0 0 .062-1.07.943 2.701 0 0 0-.343-2.09l1.95-13.668a.826 2.367 0 0 0 .136.029.95 2.719 0 0 0 .908-1.654.95 2.719 0 0 0-.214-3.021.95 2.72 0 0 0-.694-.76Z"/></svg>