<svg role="img" viewBox="0 0 24 24" xmlns="http://www.w3.org/2000/svg"><title>3M icon</title><path d="M18.935 6.008L17.21 13.02l-1.728-7.01H10.49v2.588c-.607-2.265-2.832-2.833-4.82-2.866C3.246 5.7.56 6.751.467 9.956H3.82c0-.968.886-1.522 1.723-1.508 1.027-.008 1.5.43 1.523 1.113-.035.592-.385 1.005-1.515 1.005H4.423v2.326h1.024c.582 0 1.391.317 1.423 1.145.039.987-.648 1.42-1.492 1.43-1.508-.057-1.897-1.215-1.897-2.211H0c.015.67-.007 5.045 5.448 5.013 2.613.024 4.515-1.075 5.051-2.59v2.322h3.357v-7.564l1.857 7.564h2.999l1.863-7.555v7.562H24v-12zm-8.433 6.995c-.428-.884-1.03-1.271-1.368-1.394.71-.316 1.083-.744 1.368-1.599z"/></svg>