<svg role="img" viewBox="0 0 24 24" xmlns="http://www.w3.org/2000/svg"><title>4chan</title><path d="M16.5 0c-1.058 0-2.318.9-2.318 5.18 0 2.407.675 4.654.703 4.748l.145.474.503-.112c.059-.013 1.463-.33 2.985-.994 1.32-.577 4.391-2.193 4.391-4.73 0-1.384-.66-3-2.523-3-.543 0-.985.185-1.301.383C18.473 1.063 17.525 0 16.5 0ZM4.828 1.043c-1.939 0-3.192 1.021-3.192 2.601 0 .509.194.914.407 1.213C1.115 5.42 0 6.328 0 7.435c0 .745.529 2.478 5.424 2.478 2.784 0 4.885-.651 4.974-.679l.457-.143-.093-.452c-.023-.112-.575-2.765-2.045-5.167-.514-.84-1.99-2.429-3.889-2.429Zm4.484 12.552-.456.119c-.149.04-1.495.404-2.91 1.219-1.737 1-3.764 2.836-3.764 4.72 0 2.253 1.503 3.304 2.518 3.304.665 0 1.18-.233 1.523-.458C6.754 23.093 7.715 24 8.9 24c1.986 0 2.01-3.638 2.01-3.675 0-3.162-1.352-6.188-1.41-6.314zm9.093.492c-2.86 0-4.71.522-4.788.544l-.453.13.07.446c.01.072.282 1.782 1.026 3.457 1.227 2.768 2.912 4.293 4.746 4.293 2.65 0 3.358-1.482 3.358-2.356a2.5 2.5 0 0 0-.419-1.363c.782-.515 2.055-1.514 2.055-2.55 0-2.123-4.144-2.601-5.595-2.601Z"/></svg>