<svg viewBox="0 0 24 24" role="img" xmlns="http://www.w3.org/2000/svg"><title>4D icon</title><path d="m10.821036,11.046865l0,3.260319l1.359644,0c0.603613,0 0.891288,-0.221056 1.025537,-0.221056c0.113051,0 0.199859,0.093873 0.199859,0.267487c0,0.200868 -0.221056,1.112344 -0.374482,1.401029c-0.114061,0.199859 -0.222065,0.294741 -0.602604,0.294741l-1.586756,0c0.007066,0.447158 0.013122,0.762087 0.020188,0.916523c0.026244,0.555163 0.120117,1.445442 0.299788,1.686685c0.288685,0.421924 1.172907,0.892298 2.921165,0.892298c2.263045,0 3.777125,-0.443121 5.102449,-1.601897c1.419198,-1.21833 1.861309,-3.234075 1.861309,-5.518317c0,-2.818208 -1.172907,-4.64015 -2.129806,-5.550617c-2.042999,-1.948116 -4.566465,-2.216613 -6.300591,-2.216613c-0.443121,0 -1.33239,0.06662 -1.521146,0.154436c-0.200868,0.085798 -0.274553,0.200868 -0.274553,0.442111l0,5.79287l-2.691025,0l0,-3.589379c-0.514787,0.64197 -5.036839,5.852424 -5.798926,6.849698l5.089327,0l0,1.735136l-6.877961,0c-0.267487,0 -0.555163,-0.094882 -0.555163,-0.336126c0,-0.267487 0.200868,-0.468355 0.287675,-0.57535c0.161502,-0.18068 9.168259,-10.996258 9.354995,-11.210248c0.355304,-0.407792 0.508731,-0.502675 0.748965,-0.494599c0.377511,0.020188 0.323004,0.293732 0.918542,0.227112c0.051479,-0.007066 0.796406,-0.053497 1.666497,-0.053497c2.772785,0 6.482281,0 8.900771,2.530532c1.110325,1.158776 2.147975,2.999897 2.147975,5.640453c0,2.789945 -1.170889,4.925807 -2.417481,6.186531c-1.016452,1.045725 -3.320882,2.61734 -7.433123,2.61734c-0.842838,0 -3.025132,-0.161502 -4.974257,-0.161502c-0.622792,0 -1.820934,0.069648 -3.039263,0.069648c-0.249319,0 -0.355304,-0.11507 -0.355304,-0.274553c0,-0.154436 0.06662,-0.289694 0.173615,-0.289694c0.199859,0 0.688402,-0.026244 1.045725,-0.060563c0.842838,-0.093873 1.002321,-0.435046 1.03664,-1.124457c0.080751,-1.205208 0.073685,-2.685978 0.073685,-2.685978l0,-4.996464l2.698091,0"/></svg>