<svg enable-background="new 0 0 652 652" version="1.1" viewBox="0 0 652 652" xml:space="preserve" xmlns="http://www.w3.org/2000/svg"><style type="text/css">
	.st0{display:none;}
	.st1{display:inline;}
	.st2{fill:#0C0407;}
	.st3{fill:#004488;}
	.st4{fill:#FFFFFF;}
</style><title>4D icon</title><g class="st0"><g class="st1"><path class="st2" d="m240 670.9 1.6-0.1c0.1 0.6 0.3 1.2 0.5 1.6 0.3 0.4 0.7 0.7 1.3 1s1.2 0.4 2 0.4c0.7 0 1.2-0.1 1.7-0.3s0.9-0.5 1.1-0.8 0.4-0.7 0.4-1.1-0.1-0.8-0.4-1.1-0.6-0.6-1.2-0.8c-0.3-0.1-1.1-0.3-2.3-0.6s-2-0.6-2.5-0.8c-0.6-0.3-1.1-0.7-1.4-1.2s-0.5-1-0.5-1.6c0-0.7 0.2-1.3 0.6-1.8s0.9-1 1.6-1.3 1.5-0.4 2.4-0.4c1 0 1.8 0.2 2.5 0.5s1.3 0.8 1.7 1.4 0.6 1.3 0.6 2l-1.6 0.1c-0.1-0.8-0.4-1.4-0.9-1.8s-1.3-0.6-2.2-0.6c-1 0-1.8 0.2-2.3 0.6s-0.7 0.8-0.7 1.4c0 0.5 0.2 0.8 0.5 1.1s1.2 0.6 2.6 0.9 2.3 0.6 2.9 0.8c0.8 0.3 1.3 0.8 1.7 1.3s0.5 1.1 0.5 1.8-0.2 1.3-0.6 1.9-1 1.1-1.7 1.4-1.6 0.5-2.5 0.5c-1.2 0-2.1-0.2-2.9-0.5s-1.4-0.9-1.9-1.5c-0.3-0.7-0.6-1.5-0.6-2.4z"/><path class="st2" d="m258.8 672.1 1.6 0.2c-0.3 1-0.7 1.7-1.4 2.2s-1.6 0.8-2.7 0.8c-1.4 0-2.4-0.4-3.2-1.3-0.8-0.8-1.2-2-1.2-3.5 0-1.6 0.4-2.8 1.2-3.7s1.9-1.3 3.1-1.3 2.3 0.4 3.1 1.3 1.2 2 1.2 3.6v0.4h-7c0.1 1 0.3 1.8 0.9 2.4s1.2 0.8 2 0.8c0.6 0 1.1-0.2 1.5-0.5s0.7-0.8 0.9-1.4zm-5.2-2.6h5.2c-0.1-0.8-0.3-1.4-0.6-1.8-0.5-0.6-1.2-0.9-2-0.9-0.7 0-1.3 0.2-1.8 0.7s-0.8 1.2-0.8 2z"/><path class="st2" d="m268.8 672.1 1.6 0.2c-0.3 1-0.7 1.7-1.4 2.2s-1.6 0.8-2.7 0.8c-1.4 0-2.4-0.4-3.2-1.3-0.8-0.8-1.2-2-1.2-3.5 0-1.6 0.4-2.8 1.2-3.7s1.9-1.3 3.1-1.3 2.3 0.4 3.1 1.3 1.2 2 1.2 3.6v0.4h-7c0.1 1 0.3 1.8 0.9 2.4s1.2 0.8 2 0.8c0.6 0 1.1-0.2 1.5-0.5s0.7-0.8 0.9-1.4zm-5.2-2.6h5.2c-0.1-0.8-0.3-1.4-0.6-1.8-0.5-0.6-1.2-0.9-2-0.9-0.7 0-1.3 0.2-1.8 0.7s-0.7 1.2-0.8 2z"/><path class="st2" d="m272.4 675.1v-12.9h1.6v7.3l3.7-3.8h2l-3.6 3.5 3.9 5.9h-2l-3.1-4.8-1.1 1.1v3.7h-1.4z"/><path class="st2" d="m285.3 675.1-5-12.9h1.8l3.3 9.4c0.3 0.8 0.5 1.5 0.7 2.1 0.2-0.7 0.4-1.4 0.7-2.1l3.5-9.4h1.7l-5 12.9h-1.7z"/><path class="st2" d="m298.8 672.1 1.6 0.2c-0.3 1-0.7 1.7-1.4 2.2s-1.6 0.8-2.7 0.8c-1.4 0-2.4-0.4-3.2-1.3-0.8-0.8-1.2-2-1.2-3.5 0-1.6 0.4-2.8 1.2-3.7s1.9-1.3 3.1-1.3 2.3 0.4 3.1 1.3 1.2 2 1.2 3.6v0.4h-7c0.1 1 0.3 1.8 0.9 2.4s1.2 0.8 2 0.8c0.6 0 1.1-0.2 1.5-0.5s0.7-0.8 0.9-1.4zm-5.2-2.6h5.2c-0.1-0.8-0.3-1.4-0.6-1.8-0.5-0.6-1.2-0.9-2-0.9-0.7 0-1.3 0.2-1.8 0.7s-0.7 1.2-0.8 2z"/><path class="st2" d="m308.5 671.7 1.6 0.2c-0.2 1.1-0.6 1.9-1.3 2.5s-1.6 0.9-2.6 0.9c-1.3 0-2.3-0.4-3.1-1.3-0.8-0.8-1.2-2-1.2-3.6 0-1 0.2-1.9 0.5-2.6s0.8-1.3 1.5-1.7 1.4-0.6 2.2-0.6c1 0 1.8 0.3 2.5 0.8s1.1 1.2 1.2 2.2l-1.5 0.2c-0.1-0.6-0.4-1.1-0.8-1.4s-0.8-0.5-1.3-0.5c-0.8 0-1.4 0.3-1.9 0.9s-0.7 1.5-0.7 2.7c0 1.3 0.2 2.2 0.7 2.7s1.1 0.9 1.9 0.9c0.6 0 1.1-0.2 1.6-0.6s0.6-1 0.7-1.7z"/><path class="st2" d="m314.9 673.7 0.2 1.4c-0.4 0.1-0.8 0.1-1.2 0.1-0.6 0-1-0.1-1.3-0.3s-0.5-0.4-0.7-0.7-0.2-0.9-0.2-1.9v-5.3h-1.2v-1.2h1.2v-2.3l1.6-0.9v3.3h1.6v1.2h-1.6v5.5c0 0.5 0 0.7 0.1 0.9s0.1 0.2 0.3 0.3c0.1 0.1 0.3 0.1 0.5 0.1 0.2-0.2 0.4-0.2 0.7-0.2z"/><path class="st2" d="m315.9 670.4c0-1.7 0.5-3 1.4-3.8 0.8-0.7 1.8-1 2.9-1 1.3 0 2.3 0.4 3.1 1.3s1.2 2 1.2 3.5c0 1.2-0.2 2.1-0.5 2.8-0.4 0.7-0.9 1.2-1.6 1.6s-1.4 0.6-2.3 0.6c-1.3 0-2.4-0.4-3.2-1.3-0.6-0.9-1-2.1-1-3.7zm1.6 0c0 1.2 0.3 2.1 0.8 2.7s1.2 0.9 2 0.9 1.4-0.3 2-0.9 0.8-1.5 0.8-2.7-0.3-2-0.8-2.6-1.2-0.9-2-0.9-1.4 0.3-2 0.9-0.8 1.4-0.8 2.6z"/><path class="st2" d="m326.4 675.1v-9.3h1.4v1.4c0.4-0.7 0.7-1.1 1-1.3s0.6-0.3 1-0.3c0.5 0 1.1 0.2 1.6 0.5l-0.5 1.5c-0.4-0.2-0.8-0.3-1.2-0.3-0.3 0-0.7 0.1-0.9 0.3s-0.5 0.5-0.6 0.9c-0.2 0.6-0.3 1.2-0.3 1.8v4.9h-1.5z"/><path class="st2" d="m332.6 675.1v-12.9h1.7v11.4h6.3v1.5h-8z"/><path class="st2" d="m341.9 670.4c0-1.7 0.5-3 1.4-3.8 0.8-0.7 1.8-1 2.9-1 1.3 0 2.3 0.4 3.1 1.3s1.2 2 1.2 3.5c0 1.2-0.2 2.1-0.5 2.8-0.4 0.7-0.9 1.2-1.6 1.6s-1.4 0.6-2.3 0.6c-1.3 0-2.4-0.4-3.2-1.3-0.6-0.9-1-2.1-1-3.7zm1.6 0c0 1.2 0.3 2.1 0.8 2.7s1.2 0.9 2 0.9 1.4-0.3 2-0.9 0.8-1.5 0.8-2.7-0.3-2-0.8-2.6-1.2-0.9-2-0.9-1.4 0.3-2 0.9-0.8 1.4-0.8 2.6z"/><path class="st2" d="m352.2 675.8 1.5 0.2c0.1 0.5 0.2 0.8 0.5 1 0.4 0.3 0.9 0.4 1.6 0.4s1.3-0.1 1.7-0.4 0.7-0.7 0.8-1.2c0.1-0.3 0.1-1 0.1-2-0.7 0.8-1.6 1.2-2.6 1.2-1.3 0-2.3-0.5-3-1.4s-1.1-2-1.1-3.3c0-0.9 0.2-1.7 0.5-2.5s0.8-1.3 1.4-1.7 1.3-0.6 2.2-0.6c1.1 0 2 0.4 2.7 1.3v-1.1h1.5v8.1c0 1.5-0.1 2.5-0.4 3.1s-0.8 1.1-1.4 1.4c-0.6 0.4-1.4 0.5-2.4 0.5-1.1 0-2-0.3-2.7-0.8-0.6-0.4-0.9-1.1-0.9-2.2zm1.3-5.6c0 1.2 0.2 2.1 0.7 2.7s1.1 0.8 1.8 0.8 1.3-0.3 1.8-0.8 0.7-1.4 0.7-2.6c0-1.1-0.3-2-0.8-2.6s-1.1-0.9-1.8-0.9-1.3 0.3-1.8 0.9c-0.4 0.6-0.6 1.4-0.6 2.5z"/><path class="st2" d="m361.9 670.4c0-1.7 0.5-3 1.4-3.8 0.8-0.7 1.8-1 2.9-1 1.3 0 2.3 0.4 3.1 1.3s1.2 2 1.2 3.5c0 1.2-0.2 2.1-0.5 2.8-0.4 0.7-0.9 1.2-1.6 1.6s-1.4 0.6-2.3 0.6c-1.3 0-2.4-0.4-3.2-1.3-0.6-0.9-1-2.1-1-3.7zm1.6 0c0 1.2 0.3 2.1 0.8 2.7s1.2 0.9 2 0.9 1.4-0.3 2-0.9 0.8-1.5 0.8-2.7-0.3-2-0.8-2.6-1.2-0.9-2-0.9-1.4 0.3-2 0.9-0.8 1.4-0.8 2.6z"/><path class="st2" d="m372.9 675.1v-1.8h1.8v1.8h-1.8z"/><path class="st2" d="m386.9 670.6 1.7 0.4c-0.4 1.4-1 2.5-1.9 3.2s-2.1 1.1-3.4 1.1c-1.4 0-2.5-0.3-3.4-0.8-0.9-0.6-1.5-1.4-2-2.5s-0.7-2.2-0.7-3.5 0.3-2.5 0.8-3.5 1.2-1.8 2.2-2.3c0.9-0.5 2-0.8 3.1-0.8 1.3 0 2.4 0.3 3.3 1s1.5 1.6 1.8 2.8l-1.7 0.4c-0.3-0.9-0.7-1.6-1.3-2s-1.3-0.6-2.1-0.6c-1 0-1.8 0.2-2.5 0.7s-1.1 1.1-1.4 1.9-0.4 1.6-0.4 2.5c0 1.1 0.2 2.1 0.5 2.9s0.8 1.4 1.5 1.8 1.4 0.6 2.2 0.6c1 0 1.8-0.3 2.4-0.8s1.1-1.5 1.3-2.5z"/><path class="st2" d="m389.9 670.4c0-1.7 0.5-3 1.4-3.8 0.8-0.7 1.8-1 2.9-1 1.3 0 2.3 0.4 3.1 1.3s1.2 2 1.2 3.5c0 1.2-0.2 2.1-0.5 2.8-0.4 0.7-0.9 1.2-1.6 1.6s-1.4 0.6-2.3 0.6c-1.3 0-2.4-0.4-3.2-1.3-0.6-0.9-1-2.1-1-3.7zm1.6 0c0 1.2 0.3 2.1 0.8 2.7s1.2 0.9 2 0.9 1.4-0.3 2-0.9 0.8-1.5 0.8-2.7-0.3-2-0.8-2.6-1.2-0.9-2-0.9-1.4 0.3-2 0.9-0.8 1.4-0.8 2.6z"/><path class="st2" d="m400.5 675.1v-9.3h1.4v1.3c0.3-0.5 0.7-0.8 1.2-1.1s1-0.4 1.7-0.4 1.3 0.1 1.7 0.4 0.8 0.7 0.9 1.2c0.7-1.1 1.7-1.6 2.9-1.6 0.9 0 1.6 0.3 2.1 0.8s0.7 1.3 0.7 2.4v6.4h-1.6v-5.9c0-0.6-0.1-1.1-0.2-1.4s-0.3-0.5-0.6-0.7-0.6-0.3-0.9-0.3c-0.7 0-1.2 0.2-1.6 0.7-0.4 0.4-0.7 1.1-0.7 2.1v5.4h-1.6v-6.1c0-0.7-0.1-1.2-0.4-1.6s-0.7-0.5-1.3-0.5c-0.4 0-0.9 0.1-1.2 0.4-0.4 0.2-0.7 0.6-0.8 1s-0.3 1.1-0.3 2v4.8h-1.4z"/></g></g><rect class="st3" x="109.3" y="15.3" width="435.6" height="623.6"/><path class="st4" d="m305.4 448.8v51.7h21.6c9.5 0 14.1-3.5 16.2-3.5 1.8 0 3.2 1.4 3.2 4.2 0 3.2-3.5 17.6-6 22.2-1.8 3.2-3.5 4.6-9.5 4.6h-25.2c0.1 7.2 0.2 12.2 0.4 14.6 0.4 8.8 1.9 22.9 4.7 26.7 4.6 6.7 18.6 14.1 46.3 14.1 35.9 0 59.8-7 80.9-25.3 22.5-19.3 29.5-51.3 29.5-87.5 0-44.6-18.6-73.5-33.8-87.9-32.4-30.9-72.4-35.2-99.9-35.2-7 0-21.1 1.1-24 2.5-3.2 1.4-4.4 3.2-4.4 7v91.8h-42.7v-56.9c-8.1 10.2-79.8 92.8-91.8 108.6h80.6v27.4h-109c-4.2 0-8.8-1.4-8.8-5.3 0-4.2 3.2-7.4 4.6-9.1 2.5-2.8 145.3-174.2 148.2-177.6 5.6-6.5 8.1-8 11.9-7.9 5.9 0.3 5.1 4.7 14.5 3.6 0.9-0.1 12.7-0.8 26.5-0.8 43.9 0 102.7 0 141 40.1 17.6 18.3 34.1 47.5 34.1 89.3 0 44.3-18.6 78.1-38.3 98.1-16.2 16.5-52.7 41.5-117.8 41.5-13.4 0-48-2.6-78.9-2.6-9.8 0-28.8 1.1-48.2 1.1-3.9 0-5.6-1.8-5.6-4.3s1.1-4.6 2.8-4.6c3.2 0 10.9-0.4 16.5-1 13.4-1.4 15.9-6.9 16.5-17.8 1.2-19.1 1.1-42.5 1.1-42.5v-79.2h42.8"/></svg>
