<svg role="img" viewBox="0 0 24 24" xmlns="http://www.w3.org/2000/svg"><title>4shared</title><path d="M14.766 0h4.312v13.36H24v4.218h-4.922V24H14.86v-6.422H0c0-4.266 0-4.266.375-4.64.091-.082.183-.163.275-.242.193-.167.38-.338.569-.509l.234-.21.117-.106 3.75-3.375.238-.214c.176-.159.351-.316.53-.471.186-.162.367-.33.548-.496.16-.146.32-.289.483-.43.129-.114.255-.23.381-.346.183-.169.368-.335.557-.498.128-.113.254-.23.38-.346.184-.168.369-.335.557-.498.129-.113.255-.23.381-.345.183-.17.368-.335.557-.498.128-.114.254-.23.38-.346.186-.171.373-.34.564-.505.189-.165.375-.335.562-.503l.234-.21.117-.106L14.016.68l.115-.104.251-.226.129-.116.117-.105c.047-.042.093-.085.138-.129zm-.017 5.779-.08.083a7.567 7.567 0 0 1-.452.419c-.131.115-.26.233-.389.352-.183.169-.368.335-.557.498-.128.113-.254.23-.38.346-.186.17-.373.339-.564.504-.189.166-.375.335-.561.503l-.235.211-.117.106-3.75 3.374-.238.215c-.3.27-.602.539-.91.8l-.141.122v.047h8.484V5.72c-.055-.005-.055-.005-.11.06z"/></svg>