<svg aria-labelledby="simpleicons-500px-icon" role="img" viewBox="0 0 24 24" xmlns="http://www.w3.org/2000/svg"><title id="simpleicons-500px-icon">500px icon</title><path d="M20.982 19.986c-.17-.17-.315-.27-.442-.306a.31.31 0 0 0-.328.08l-.08.076a9.196 9.196 0 0 1-3.012 2.025 9.39 9.39 0 0 1-3.695.735 9.533 9.533 0 0 1-3.695-.753 9.74 9.74 0 0 1-3.012-2.039c-.903-.923-1.596-1.937-2.038-3.022a9.853 9.853 0 0 1-.612-2.128l-.01-.06c-.06-.322-.342-.332-.753-.271-.171.03-.683.1-.643.482v.01c.14.853.382 1.706.723 2.52a11.081 11.081 0 0 0 2.35 3.463 11.188 11.188 0 0 0 3.463 2.34c1.353.572 2.777.853 4.263.853 1.471 0 2.912-.28 4.247-.853 1.305-.562 2.474-1.336 3.464-2.34l.09-.09c.12-.12.211-.331-.225-.773m-7.63-17.34c-1.406 0-2.906.282-4.006.764-.114.04-.186.13-.2.271-.017.12.02.281.104.492.062.18.244.633.597.492a9.847 9.847 0 0 1 3.504-.68c1.285 0 2.53.254 3.705.75.923.39 1.807.96 2.76 1.786.071.06.141.09.222.09.18 0 .361-.18.512-.36.25-.287.431-.523.18-.764-.913-.873-1.917-1.516-3.152-2.043a10.77 10.77 0 0 0-4.247-.853m-1.918 11.957c0 .158.14.302.231.382l.024.027c.15.149.291.22.422.22.11 0 .174-.041.2-.071.06-.05.804-.804.874-.884l.833.833c.08.09.161.14.262.14.134 0 .276-.07.431-.22.354-.361.181-.552.09-.663l-.843-.823.879-.883c.194-.211.03-.422-.135-.603-.24-.24-.482-.293-.632-.16l-.874.873-.865-.871a.222.222 0 0 0-.166-.06c-.1 0-.25.09-.401.24-.272.268-.332.462-.181.613l.883.886-.87.884a.312.312 0 0 0-.104.224m-5.572 1.292c0 .016.136.361.211.522.39.949.959 1.787 1.68 2.51.72.719 1.56 1.289 2.505 1.68a8.03 8.03 0 0 0 3.06.612c1.066 0 2.102-.21 3.062-.612a7.688 7.688 0 0 0 2.505-1.687 7.583 7.583 0 0 0 1.687-2.5 7.526 7.526 0 0 0 .622-3.062c0-1.044-.19-2.079-.612-3.042-.382-.932-.964-1.767-1.677-2.507-.713-.723-1.556-1.275-2.49-1.687a7.73 7.73 0 0 0-3.062-.623c-1.064 0-2.138.211-3.092.613-.763.331-2.048 1.154-2.821 1.934v.014-6.546h10.863c.391-.004.391-.553.391-.738 0-.181 0-.738-.391-.738H6.537a.51.51 0 0 0-.517.512v9.106c0 .291.365.5.703.572.667.14.819-.073.981-.3l.015-.031c.243-.34 1.022-1.118 1.036-1.134a6.381 6.381 0 0 1 4.549-1.875c1.706 0 3.33.668 4.545 1.875a6.37 6.37 0 0 1 1.874 4.531 6.398 6.398 0 0 1-1.874 4.532 6.532 6.532 0 0 1-4.579 1.875c-1.17 0-2.279-.308-3.24-.892v-5.542c0-.735.315-1.529.854-2.144a3.14 3.14 0 0 1 2.371-1.066c.888 0 1.727.339 2.342.953.615.613.945 1.426.945 2.294 0 1.844-1.455 3.285-3.317 3.285-.36 0-1.019-.161-1.034-.166-.375-.11-.54.402-.585.582-.211.653.1.773.16.803.603.181.984.211 1.496.211a4.754 4.754 0 0 0 4.75-4.759c0-2.61-2.13-4.729-4.76-4.729-1.295 0-2.49.482-3.393 1.376-.874.833-1.366 1.978-1.366 3.092v4.568-.02c-.502-.562-.974-1.385-1.305-2.239-.14-.33-.422-.27-.813-.15-.18.04-.693.21-.592.582l.14.123z"/></svg>