<svg aria-labelledby="simpleicons-500px-icon" role="img" viewBox="0 0 24 24" xmlns="http://www.w3.org/2000/svg"><title id="simpleicons-500px-icon">500px icon</title><path d="M20.968 19.93c-.17-.17-.314-.27-.44-.305-.126-.038-.236-.01-.327.08l-.08.075c-.86.867-1.88 1.554-3 2.017-1.16.493-2.4.732-3.68.732-1.27 0-2.51-.26-3.68-.75-1.12-.48-2.13-1.17-3-2.03-.9-.92-1.59-1.93-2.03-3.01-.43-1.06-.57-1.87-.61-2.12l-.01-.06c-.06-.32-.34-.33-.75-.27-.17.03-.68.1-.64.48v.01c.14.85.38 1.7.72 2.51.56 1.28 1.33 2.45 2.34 3.45 1 1 2.167 1.77 3.45 2.33 1.347.57 2.766.85 4.246.85 1.465 0 2.9-.28 4.23-.85 1.3-.56 2.464-1.33 3.45-2.33l.09-.09c.12-.12.21-.33-.224-.77m-7.6-17.27c-1.4 0-2.894.28-3.99.76-.114.04-.185.13-.2.27-.016.12.02.28.104.49.062.18.243.63.595.49 1.124-.44 2.36-.678 3.49-.678 1.28 0 2.52.254 3.69.747.92.39 1.8.957 2.75 1.78.07.06.14.09.22.09.18 0 .36-.18.51-.36.25-.285.43-.52.18-.76-.91-.87-1.91-1.51-3.14-2.035-1.34-.57-2.76-.85-4.23-.85m-1.91 11.91c0 .157.14.3.23.38l.024.027c.15.148.29.22.42.22.11 0 .173-.042.2-.072.06-.05.8-.8.87-.88l.83.83c.08.09.16.14.26.14.134 0 .275-.07.43-.22.352-.36.18-.55.09-.66l-.84-.82.875-.88c.193-.21.03-.42-.134-.6-.24-.24-.48-.292-.63-.16l-.87.87-.862-.868c-.045-.046-.105-.06-.165-.06-.1 0-.25.09-.4.24-.27.267-.33.46-.18.61l.88.883-.866.88c-.074.073-.104.15-.104.223M6 15.833c0 .016.135.36.21.52.388.945.955 1.78 1.673 2.5.717.716 1.554 1.284 2.495 1.673.972.4 2.003.61 3.048.61 1.062 0 2.094-.21 3.05-.61.94-.39 1.777-.96 2.495-1.68.72-.71 1.29-1.55 1.68-2.49.42-.95.62-1.98.62-3.05 0-1.04-.19-2.07-.61-3.03-.38-.928-.96-1.76-1.67-2.497-.71-.72-1.55-1.27-2.48-1.68-.95-.41-1.99-.62-3.05-.62-1.06 0-2.13.21-3.08.61-.76.33-2.04 1.15-2.81 1.926v.014-6.52h10.82c.39-.004.39-.55.39-.735 0-.18 0-.735-.39-.735H6.58c-.317 0-.514.257-.514.51v9.07c0 .29.363.498.7.57.664.14.815-.073.977-.3l.015-.03C8 9.52 8.776 8.746 8.79 8.73c1.197-1.202 2.812-1.868 4.53-1.868 1.7 0 3.317.665 4.527 1.868 1.208 1.21 1.867 2.813 1.867 4.513 0 1.708-.672 3.31-1.867 4.513-1.196 1.188-2.855 1.868-4.56 1.868-1.165 0-2.27-.307-3.227-.888v-5.52c0-.732.313-1.523.85-2.136.615-.688 1.452-1.062 2.362-1.062.884 0 1.72.338 2.332.95.613.61.942 1.42.942 2.284 0 1.837-1.45 3.272-3.304 3.272-.358 0-1.015-.16-1.03-.165-.374-.11-.538.4-.583.58-.21.65.1.77.16.8.6.18.98.21 1.49.21 2.61 0 4.73-2.12 4.73-4.74 0-2.6-2.12-4.71-4.74-4.71-1.29 0-2.48.48-3.38 1.37-.87.83-1.36 1.97-1.36 3.08v4.55-.02c-.5-.56-.97-1.38-1.3-2.23-.14-.33-.42-.27-.81-.15-.18.04-.69.21-.59.58l.14.122z"/></svg>