<svg role="img" viewBox="0 0 24 24" xmlns="http://www.w3.org/2000/svg"><title>500px icon</title><path d="M7.439 9.01A2.994 2.994 0 0 0 4.449 12a2.993 2.993 0 0 0 2.99 2.99 2.994 2.994 0 0 0 2.99-2.99 2.993 2.993 0 0 0-2.99-2.99m0 5.343c-1.297 0-2.354-1.056-2.354-2.353s1.057-2.353 2.354-2.353S9.792 10.703 9.792 12s-1.056 2.353-2.353 2.353m6.472-5.343a2.994 2.994 0 0 0-2.99 2.99 2.993 2.993 0 0 0 2.99 2.99 2.994 2.994 0 0 0 2.99-2.99 2.994 2.994 0 0 0-2.99-2.99m0 5.343c-1.298 0-2.353-1.056-2.353-2.353s1.055-2.353 2.353-2.353c1.297 0 2.353 1.056 2.353 2.353s-1.056 2.353-2.353 2.353m-11.612-3.55a2.1 2.1 0 0 0-1.596.423V9.641H3.39c.093 0 .16-.017.16-.292 0-.269-.108-.28-.18-.28H.396c-.174 0-.265.14-.265.294v2.602c0 .136.087.183.247.214.141.028.223.012.285-.057l.006-.01c.283-.408.9-.804 1.486-.732.699.086 1.262.644 1.34 1.327a1.512 1.512 0 0 1-1.501 1.685c-.635 0-1.19-.408-1.421-1.001-.035-.088-.092-.152-.343-.062-.229.083-.243.181-.212.268a2.11 2.11 0 0 0 1.976 1.386 2.102 2.102 0 0 0 .305-4.18m16.646-1.764c-.805.062-1.434.769-1.434 1.61v2.661c0 .154.117.186.293.186s.293-.031.293-.186v-2.668c0-.524.382-.974.868-1.024a.972.972 0 0 1 .758.247.984.984 0 0 1 .322.729c0 .08-.039.34-.217.581-.135.182-.391.399-.844.399h-.009c-.115 0-.215.005-.234.28-.013.186-.012.269.148.29.286.04.576-.016.865-.166.492-.256.822-.741.861-1.267a1.562 1.562 0 0 0-.452-1.222 1.56 1.56 0 0 0-1.218-.45m3.919 1.559l1.085-1.085c.04-.039.132-.132-.055-.324-.08-.083-.153-.125-.217-.125h-.001a.163.163 0 0 0-.121.058l-1.088 1.088-1.086-1.093c-.088-.088-.19-.067-.322.065-.135.136-.157.24-.069.328l1.086 1.092-1.064 1.064-.007.007c-.026.025-.065.063-.065.125-.001.063.042.139.126.223.07.071.138.107.2.107.069 0 .114-.045.139-.07l1.068-1.067 1.091 1.092a.162.162 0 0 0 .114.045h.002c.069 0 .142-.04.217-.118.122-.129.143-.236.061-.319l-1.094-1.093z"/></svg>