<svg role="img" viewBox="0 0 24 24" xmlns="http://www.w3.org/2000/svg"><title>7Zip</title><path d="M0 4.479v15.043h24V7.836H10.757V4.479zm1.39 1.326h8.074V7.48c-.665.638-1.345 1.557-2.033 2.755a15.95 15.95 0 0 0-1.58 3.817 13.89 13.89 0 0 0-.53 3.606H3.047c.038-1.663.39-3.353 1.051-5.08a16.917 16.917 0 0 1 2.66-4.634H1.392zm9.363 2.245h12.99v11.255h-12.99zm.839 1.145v1.43h2.683l-3.023 5.472v1.534h4.675v-1.417H12.65l3.156-5.692V9.2zm5.034 0v8.436h1.164V9.195zm2.268 0v8.436h1.164V14.45h.76c.529 0 .93-.038 1.209-.12a1.5 1.5 0 0 0 .597-.398 2.298 2.298 0 0 0 .492-.831c.128-.356.192-.794.192-1.308a3.507 3.507 0 0 0-.332-1.64 1.637 1.637 0 0 0-.832-.832c-.211-.083-.673-.125-1.38-.125zm1.164 1.43h.567c.416 0 .695.018.831.056.19.049.348.174.469.374.125.2.189.454.189.756a1.516 1.516 0 0 1-.136.658.88.88 0 0 1-.363.415c-.151.087-.461.133-.918.133h-.639z"/></svg>