<svg role="img" viewBox="0 0 24 24" xmlns="http://www.w3.org/2000/svg"><title>8tracks</title><path d="M6.59 10.81A6.592 6.592 0 0 0 0 17.404 6.592 6.592 0 0 0 6.59 24c3.638 0 6.581-2.953 6.583-6.596V15.09H10.82v2.314a4.226 4.226 0 0 1-1.24 2.994 4.203 4.203 0 0 1-2.99 1.241 4.21 4.21 0 0 1-2.992-1.24 4.223 4.223 0 0 1-1.24-2.995 4.221 4.221 0 0 1 1.24-2.992A4.214 4.214 0 0 1 6.59 13.17h10.822A6.575 6.575 0 0 0 24 6.595 6.592 6.592 0 0 0 17.412 0a6.593 6.593 0 0 0-6.589 6.595l-.001 2.295h2.351V6.595a4.229 4.229 0 0 1 1.249-2.994 4.205 4.205 0 0 1 2.99-1.24c1.172 0 2.223.473 2.992 1.242a4.217 4.217 0 0 1 1.237 2.992 4.207 4.207 0 0 1-1.238 2.993 4.194 4.194 0 0 1-2.991 1.222z"/></svg>