<svg role="img" viewBox="0 0 24 24" xmlns="http://www.w3.org/2000/svg"><title>9gag</title><path d="M1.58 6.002C5.057 3.998 8.536 1.997 12.017 0c3.479 1.998 6.962 3.99 10.437 5.996-.005 4.007-.006 8.014.001 12.02-3.473 2.01-6.96 3.987-10.44 5.984-3.488-2.013-6.995-3.994-10.472-6.025 1.387-.79 2.773-1.582 4.163-2.368 2.103 1.212 4.211 2.417 6.31 3.637 2.092-1.23 4.213-2.41 6.299-3.652-.019-1.604-.002-3.206-.01-4.81a3111.373 3111.373 0 0 1-6.29 3.639C8.534 12.44 5.063 10.438 1.581 8.454c0-.818.001-1.636-.002-2.452m6.182 1.203c1.411.829 2.839 1.636 4.255 2.459 1.426-.818 2.85-1.638 4.279-2.454-1.43-.812-2.852-1.636-4.279-2.451-1.42.813-2.833 1.639-4.255 2.446Z"/></svg>