<svg role="img" viewBox="0 0 24 24" xmlns="http://www.w3.org/2000/svg"><title>AB Download Manager</title><path d="M10.98 0c-.235 0-.425.2-.425.446V8.92c0 .246-.19.446-.425.446h-.704c-.346 0-.547.41-.346.705l2.574 3.782c.17.25.522.25.692 0l2.574-3.782c.201-.295 0-.705-.346-.705h-.704a.436.436 0 0 1-.425-.446V.446A.436.436 0 0 0 13.02 0zM7.387 1.562a.732.732 0 0 0-.405.161l-1.096.883a.77.77 0 0 0-.123 1.067.735.735 0 0 0 1.045.125l1.096-.882a.77.77 0 0 0 .123-1.067.738.738 0 0 0-.64-.287Zm9.346 0a.737.737 0 0 0-.64.287.77.77 0 0 0 .123 1.067l1.096.882c.323.26.79.204 1.045-.125a.77.77 0 0 0-.123-1.067l-1.096-.883a.733.733 0 0 0-.405-.16zM3.039 6.036a.745.745 0 0 0-.675.48l-.512 1.326c-.15.39.037.831.42.985a.74.74 0 0 0 .965-.428l.512-1.325a.765.765 0 0 0-.419-.985.728.728 0 0 0-.291-.053zm18.042 0a.738.738 0 0 0-.29.053.765.765 0 0 0-.42.985l.512 1.325a.74.74 0 0 0 .965.428.765.765 0 0 0 .42-.985l-.512-1.325a.745.745 0 0 0-.675-.481ZM0 12a12 12 0 0 0 .913 4.592 11.997 11.997 0 0 0 2.457 3.741c.101-.098.204-.193.316-.279.658-.514 1.499-.751 2.326-.766a5.807 5.807 0 0 1 1.779.256c.486.137.935.378 1.413.537a8.557 8.557 0 0 0 5.321.088c.401-.118.785-.285 1.17-.446.952-.374 2.005-.543 3.019-.363a3.59 3.59 0 0 1 1.916.973 11.997 11.997 0 0 0 2.457-3.74A12 12 0 0 0 24 12h-3.687c-1.301 0-2.315 1.094-2.813 2.296a6 6 0 0 1-11.087 0C5.915 13.094 4.902 12 3.601 12zm6.178 7.498c-.994-.012-1.952.276-2.663.987a12 12 0 0 0 .359.342l.069.066c.096.087.195.17.294.253.051.044.101.09.153.132.093.077.19.149.284.222.06.047.12.096.182.141.083.062.169.12.254.18.076.053.15.108.228.16.067.044.136.085.203.128.099.063.196.128.296.187.053.032.107.06.16.092.116.066.232.134.35.197.105.056.214.109.322.162.067.033.133.069.201.101a12.074 12.074 0 0 0 1.084.45h.002c.082.03.166.055.25.083.102.034.204.07.308.101.08.025.163.045.244.068.108.03.215.063.323.09.064.016.13.028.194.043.127.03.253.06.381.086.1.02.2.035.3.052.092.016.183.034.275.048.123.018.247.031.37.046.073.009.145.02.218.027.108.01.216.016.325.024.088.006.176.015.264.02h.002a11.585 11.585 0 0 0 1.182 0c.089-.005.177-.014.265-.02.108-.008.217-.014.325-.024.073-.007.145-.019.218-.027.123-.015.247-.028.37-.046.092-.014.183-.032.275-.048.1-.017.2-.033.3-.052.127-.026.254-.056.38-.086.065-.015.13-.027.194-.043.099-.025.196-.055.295-.082.091-.025.183-.049.274-.076h.002c.08-.025.16-.054.24-.08.105-.034.21-.067.314-.104.103-.037.204-.078.306-.118.199-.077.395-.16.59-.247.062-.029.126-.055.188-.084.096-.046.19-.096.286-.144.08-.04.16-.078.24-.12.163-.088.325-.18.484-.274l.023-.014c.111-.066.22-.137.328-.207.057-.037.116-.071.173-.11.096-.064.19-.132.284-.2.065-.046.132-.09.197-.137.102-.077.203-.157.303-.237.054-.042.109-.083.162-.126.116-.095.23-.195.342-.295.035-.03.07-.059.104-.09h.001c.147-.133.29-.27.43-.41-1.264-1.264-3.31-1.192-4.945-.47a8.76 8.76 0 0 1-7.08 0 5.922 5.922 0 0 0-2.282-.517z"/></svg>