<svg role="img" viewBox="0 0 24 24" xmlns="http://www.w3.org/2000/svg"><title>about.me</title><path d="M11.49 16.678v-6.102c0-1.008-.447-1.686-1.55-1.686-.91 0-1.763.62-2.17 1.24v6.548H5.736v-6.102c0-1.008-.426-1.686-1.531-1.686-.911 0-1.744.639-2.171 1.24v6.548H0V7.321h2.034V8.58c.407-.562 1.628-1.492 3.062-1.492 1.394 0 2.247.698 2.557 1.705.523-.833 1.764-1.705 3.178-1.705 1.705 0 2.694.93 2.694 2.829v6.761H11.49Zm3.17-4.688c0-2.713 1.977-4.902 4.748-4.902 2.809 0 4.592 2.131 4.592 5.076v.504h-7.209c.156 1.395 1.2 2.577 2.964 2.577.931 0 1.995-.369 2.674-1.047l.93 1.338c-.95.891-2.326 1.376-3.798 1.376-2.828-.001-4.901-1.958-4.901-4.922Zm4.728-3.235c-1.724 0-2.538 1.337-2.616 2.46h5.271c-.059-1.104-.814-2.46-2.655-2.46Z"/></svg>