<svg viewBox="0 0 16 16" xmlns="http://www.w3.org/2000/svg" fill-rule="evenodd" clip-rule="evenodd" stroke-linejoin="round" stroke-miterlimit="1.414"><path d="M13.024 6.096c-.916 0-1.422.675-1.53 1.41h3.072c-.084-.7-.578-1.41-1.542-1.41m-1.506 2.41c.157.77.795 1.313 1.687 1.313.482 0 1.18-.18 1.59-.603l.783.904c-.71.748-1.77.952-2.493.952-1.76 0-3.133-1.265-3.133-3.072 0-1.687 1.264-3.072 3.048-3.072 1.722 0 3 1.325 3 3.072v.506h-4.482zm-4.326 2.552V7.265c0-.65-.288-1.024-.89-1.024-.543 0-.904.386-1.145.664v4.154H3.59V7.265c0-.65-.276-1.024-.878-1.024-.542 0-.917.386-1.145.664v4.154H0V5.004h1.567v.767c.265-.312.867-.842 1.807-.842.83 0 1.397.35 1.65 1.06.35-.506 1-1.06 1.94-1.06 1.133 0 1.795.675 1.795 1.976v4.154H7.19z" fill-rule="nonzero"/></svg>