<svg role="img" viewBox="0 0 24 24" xmlns="http://www.w3.org/2000/svg"><title>abuse.ch</title><path d="M19.03 8.51h.293v6.98h-.293V8.51Zm2.483 1.593c.081 0 .16.009.234.027a.64.64 0 0 1 .191.071v.228a1.553 1.553 0 0 0-.205-.063.826.826 0 0 0-.192-.022.622.622 0 0 0-.203.034.458.458 0 0 0-.181.112.552.552 0 0 0-.13.204.903.903 0 0 0-.048.313c0 .091.012.175.036.252a.602.602 0 0 0 .108.2.524.524 0 0 0 .181.131.627.627 0 0 0 .25.046 1.054 1.054 0 0 0 .411-.085v.229a.703.703 0 0 1-.186.065.97.97 0 0 1-.255.03c-.114 0-.221-.017-.323-.051a.736.736 0 0 1-.264-.157.764.764 0 0 1-.179-.27 1.031 1.031 0 0 1-.066-.387c0-.11.012-.21.034-.299a.94.94 0 0 1 .096-.234.746.746 0 0 1 .501-.352.909.909 0 0 1 .19-.022Zm1.38.275h.005a.75.75 0 0 1 .229-.195.65.65 0 0 1 .32-.08c.064 0 .128.009.191.027a.462.462 0 0 1 .178.09.488.488 0 0 1 .133.183.758.758 0 0 1 .051.301v1.127h-.275v-1.083a.51.51 0 0 0-.077-.306c-.051-.069-.135-.103-.252-.103a.523.523 0 0 0-.276.08.717.717 0 0 0-.227.216v1.196h-.275V9.265h.275v1.113ZM2.192 12.31h-.928l-.563 1.466H0l1.425-3.59h.601l1.425 3.59h-.695l-.564-1.466Zm-.469-1.26c-.125.375-.237.689-.336.941l-.123.319h.928l-.123-.319c-.098-.254-.21-.568-.335-.941h-.011Zm5.059.091a.896.896 0 0 1-.105.429.806.806 0 0 1-.346.322v.011c.09.03.171.07.244.118a.723.723 0 0 1 .191.169.7.7 0 0 1 .124.22c.03.082.045.175.045.276a1.013 1.013 0 0 1-.188.575c-.07.093-.163.178-.279.257a1.433 1.433 0 0 1-.44.188 2.025 2.025 0 0 1-.148.03l-.174.024a5.316 5.316 0 0 1-.48.016H4.182v-3.59h1.247c.267 0 .482.026.644.08.122.039.228.091.317.155a.913.913 0 0 1 .349.459.811.811 0 0 1 .043.261Zm-1.943 1.073v1.012h.429c.115 0 .214-.003.296-.008.082-.008.153-.018.212-.033a.88.88 0 0 0 .228-.077.594.594 0 0 0 .148-.113.394.394 0 0 0 .08-.14.545.545 0 0 0 .024-.163c0-.1-.028-.188-.083-.263a.493.493 0 0 0-.261-.169.853.853 0 0 0-.182-.035 2.473 2.473 0 0 0-.268-.011h-.623Zm.593-.55c.179 0 .312-.018.4-.054a.407.407 0 0 0 .209-.169.48.48 0 0 0 .065-.247.443.443 0 0 0-.073-.252.428.428 0 0 0-.247-.167 1 1 0 0 0-.169-.029 2.24 2.24 0 0 0-.238-.011h-.54v.929h.593Zm3.876 2.179c-.188 0-.357-.019-.508-.057a1.38 1.38 0 0 1-.396-.155 1.138 1.138 0 0 1-.486-.59 1.503 1.503 0 0 1-.086-.333 3.156 3.156 0 0 1-.024-.408v-2.114h.657v2.055c0 .254.031.452.092.596a.687.687 0 0 0 .297.346c.131.07.285.105.462.105a.966.966 0 0 0 .462-.105.687.687 0 0 0 .297-.346c.061-.144.092-.342.092-.596v-2.055h.657V12.3c0 .15-.009.286-.027.408a1.45 1.45 0 0 1-.083.333 1.13 1.13 0 0 1-.494.59 1.42 1.42 0 0 1-.402.155 2.111 2.111 0 0 1-.51.057Zm4.348-1.097a.347.347 0 0 0-.067-.221.494.494 0 0 0-.183-.139 1.22 1.22 0 0 0-.26-.086 7.296 7.296 0 0 0-.301-.067 3.871 3.871 0 0 1-.399-.108 1.16 1.16 0 0 1-.336-.174.813.813 0 0 1-.231-.284.963.963 0 0 1-.086-.43c0-.189.033-.354.1-.494a.962.962 0 0 1 .268-.348c.115-.093.248-.162.4-.207.153-.047.326-.07.518-.07.191 0 .384.019.577.057.193.037.359.085.499.145v.563a2.955 2.955 0 0 0-1.017-.209c-.216 0-.384.039-.502.118-.117.078-.175.197-.175.354 0 .091.019.166.057.226a.486.486 0 0 0 .158.147.944.944 0 0 0 .228.091c.086.023.178.045.274.065.152.032.297.069.435.112.139.041.263.1.37.175a.812.812 0 0 1 .255.295c.063.12.094.274.094.462 0 .193-.036.36-.108.501a.94.94 0 0 1-.305.352 1.4 1.4 0 0 1-.478.204 2.86 2.86 0 0 1-1.194.008 1.634 1.634 0 0 1-.47-.161v-.556c.177.077.35.134.518.169.168.034.342.052.521.052.104 0 .206-.009.306-.025a.938.938 0 0 0 .268-.088.451.451 0 0 0 .266-.429Zm2.284.48h1.766v.55h-2.424v-3.59h2.327v.549H15.94v.929h1.433v.55H15.94v1.012Z"/></svg>