<svg xmlns="http://www.w3.org/2000/svg" viewBox="0 0 16 16" id="icpc-2015-2016"><style id="style3075"/><g transform="translate(.425 3.127) scale(.04056)" id="g3893"><path d="M103.5 152.4h-.8c-5.7-3.2-11.5-6.3-18-7.4-7.2-1.2-13.9-.5-19.8 4.6-1.3-2.1-2.7-4-5.2-4.5-3.4-.7-6.5.4-9.4 1.9-1.6.9-2.5 1-3.7-.7-2.6-3.6-6.5-5.3-10.9-5.7-6.3-.5-12.3.7-17.2 5.2-3 2.7-4 6.2-2.5 10.2.7 1.7.4 2.5-1.2 3.2-3.4 1.5-6 4-8.4 6.7-2.2 2.5-1.9 6 .5 8.4 2 2 4.4 3.3 7 4.2 1.8.6 2.4 1.2 1.5 3.2-1 2-2 4.2-2.2 6.6-.1 1 0 2 .2 3 .3 1.2.5 2.4.5 2.4s-1.2.1-2.6 0c-3.4 0-6.9.3-10.2-.6-1.9-.5-3.6-1.2-5.1-2.2-.7-.4-1.3-1-1.9-1.5-2.1-1.9-3.6-4.4-4.6-7.5v-57.2c2-5.7 5.7-9.6 11.8-11.1 1.6-.4 3.2-.4 4.8-.4h81c4 0 7.5 1 10.5 3 1.5 1 2.8 2.3 4 3.9.1.1.2.3.3.4 1.2 1.7 1.7 3.7 1.7 5.7-.1 8.9-.1 17.5-.1 26.2z" id="path3077"/><path d="M384 124.4v57.7c-2 2.6-3.1 5.5-5.7 7.5-3.2 2.4-6.8 3.6-10.6 3.6h-63.4c-.2 0-.4-.1-1-.3 3.8-1.6 7.3-3 10.8-4.6 7.4-3.3 14.6-7 21.5-11.4 5.2-3.4 10.2-7.1 14.4-11.7 4.4-4.8 8.2-10 9-16.7.7-5.8-.1-11.2-3.2-16.5-4.8-8.1-11.9-13.7-19.5-18.7-.1-.1-.1-.2-.1-.4 11.8-.3 23.5-.8 35.2.3 4.4.4 8.1 3.1 10.3 7.2.4.7 1.1 1.3 1.5 1.9.2.7-.2 1.6.8 2.1z" id="path3079"/><path d="M383.5 124.4v57.7c-2 2.6-2.8 5.5-5.5 7.5-3.2 2.4-6.7 3.6-10.5 3.6h-63.3c-.2 0-.4-.1-1-.3 3.8-1.6 7.4-3 10.8-4.6 7.4-3.3 14.7-7 21.5-11.4 5.2-3.4 10.2-7.1 14.4-11.7 4.4-4.8 8.2-10 9-16.7.7-5.8-.1-11.2-3.2-16.5-4.8-8.1-11.9-13.7-19.5-18.7-.1-.1-.1-.2-.1-.4 11.8-.3 23.5-.8 35.2.3 4.4.4 8.1 3.1 10.3 7.2.4.7.9 1.3 1.3 1.9.2.7-.4 1.6.6 2.1z" id="path3081"/><path d="M363.8 46.4v-9.5c-.7-.1-.8-.6-.7-1.2-.7-4.2-2.4-7.7-4.8-10.8-1.6-2.1-3.6-4.1-5.8-5.8-6.1-4.8-13.3-7.3-21-8.5-.6 0-1.2.5-1.7-.5h-10c-.2 0-.5.5-.7.5-5.8.7-11.2 2.4-16.2 5.3-5.9 3.5-10.7 8.2-12.9 14.6-4.3 12.7-1.9 24.8 4.8 36.1 1.1 1.9 2.5 3.8 4.1 5.5.1.1.2.2.2.3 2.7 2.8 5.4 5.6 8.6 8-1 .4-1.7.1-2.5 0-3.4-.4-6.8-.4-10 1.1-2.3 1.1-3.3 3.3-4 5.4-.5 1.2 2.1 3.9 4 4.4 3 .9 6 1.1 9.1.8 3.2-.3 6.2-1 9.7-2.1-1.1 2.5-1.9 4.6-2.8 6.6-.8 1.6-.2 1.9 1.2 1.8 1.7-.1 3.4.1 5-.1 1.9-.2 3 .3 3.2 2.4.1.8.4 1.6.7 2.3 1.8 3.8 4.5 6.8 7.7 9.5.3.4.7.5 1.2.5 1.3-1 4.3.7 5.9-.2-.8-.5-2.7-1.4-3.3-1.8-3.9-2.7-6.6-6.4-8.2-10.8-.5-1.4-.1-1.8 1.3-1.8 4.1.1 8.3 0 12.4 0 1.5 0 1.7-.3 1.1-1.7-1.1-2.7-3.2-4.8-4.2-7.6-.2-.6 0-.7.5-.4 1 .3 2.1.6 3.1.9 4.3 1.2 8.7 2.6 13.2 1.6 2.4-.5 4.5-2.6 4.9-4.7.5-3.6-1.3-6.3-4.9-7.3-2.2-.6-4.3-.4-6.5-.5-.3 0-.6-.1-1-.1.3-.2.6-.3.9-.5.7-.7 1.4-1.5 2.1-2.2 7.2-6.5 12.1-14.3 14.5-23.7.4-1.5.7-3 1-4.5 0-.4 0-1 .8-1.3zm-66.3 41.8c-.7-.2-1.5-.4-1.6-1.2-.1-.8.5-1.3 1.1-1.8 1.2-1.1 2.8-1.2 4.3-1.2 3.9-.1 7.6.8 11.2 2.3-4.9 2.2-9.9 3-15 1.9zm51-5.6c1.2 0 2.3.4 3.3.8.9.4 1.1 1.1 1.1 1.9 0 .8-.2 1.5-1.1 1.9-1.3.6-2.6.7-4 .6-3.9-.4-7.7-1.6-11.8-3.1 4.3-1.3 8.3-2.1 12.5-2.1zm8.2-26.6c-2.5 6.5-6.3 12.4-11.5 17.1-5.7 5.2-12.2 8.8-19.5 11-.2.1-.5.2-1.4.5 4.8.7 6.1 4.2 7.6 7.4.4.9 1.8 1.7 1.3 2.5-.6.9-2 .3-3.1.3h-13.4c.8-2.7 2.5-4.7 3.4-7.1 1.4-3.6 1.4-3.4-1.9-5.2-5-2.6-9.6-5.9-13.6-10-.9-.9-1.7-1.9-2.6-2.8-3.9-4.6-6.9-9.8-8.5-15.7-1.7-6.5-2.2-13.1-.4-19.6 2-7.6 7-12.7 13.8-16 11.2-5.5 22.8-5.4 34.3-1.2 3.1 1.2 6 2.7 8.6 4.8 2.1 1.7 4 3.7 5.7 6.1 2.2 3.2 3.2 6.6 3.7 10.3.9 6-.4 12-2.5 17.6z" id="path3083"/><path d="M9.4 225.4c-.1-1.2-.6-2.3-1.6-3-.2-.2-.5-.3-.8-.4-2-.8-4.1-1-6.2-.5-3 .8-4.3 3.6-2.8 6.2.2.4.4.7.6 1 .4.5.9.7 2.1 1.1 1.9.5 2.9.5 4.4.2.8-.1 1.4-.3 2.6-1.1 1.3-.9 1.8-2 1.7-3.5zm-6.1 1.1c-.2 0-.8 0-1.2-.2-.3-.1-.5-.4-.6-.8-.1-1.1 1.1-.9 1.8-.9.3 0 .8 0 1.2.1.4.1.8.3.8.8-.1 1-1.6 1-2 1z" id="path3085"/><path d="M243.3 126.5c0-2.6-1-4.7-2.4-6.6-.9-1.1-1.9-2.1-3-3-4.2-3.5-9.3-3.8-14.4-3.7-1.1 0-1.5.5-1.5 1.5-.3 4.4-1.2 8.5-3.4 12.5-3.4 6.1-8.3 10.4-14.6 13.1-1.6.7-2.4 1.6-2.5 3.3-.2 4.1-1.5 8-2.1 12-.2 1.1-.7 1.3-1.6 1.3H177c-1.2 0-1.7-.3-1.8-1.6-.3-3.2-.6-6.4-1.4-9.5-.5-2.1-.3-4.6-3.2-5.7-7.3-2.9-12.5-7.8-15.6-14.4-1-2.1-1.8-4.3-2.4-6.7-.5-1.9.5-4.6-1.5-5.5-1.7-.8-4-.3-6-.2-8.9.3-16.4 6.1-15.7 16.5.5 6.5.2 13.1.2 19.7v2c0 9.3-.1 18.6-.2 28 0 3 .5 5.9 2.4 8.2v.1c.7.9 1.5 1.7 2.3 2.4 3.5 2.9 7.7 4 12.4 3.9 13.2-.1 26.4 0 39.5 0h39.5c1.7 0 3.3-.1 5-.4 6.8-1.1 12.6-6.9 12.7-13 .2-18.2.1-36.2.1-54.2zm-53.6 52.9h-5.2c-1.1.1-1.3-.5-1.3-1.5s.3-1.5 1.4-1.4h5.2c1.1 0 1.5.4 1.5 1.5 0 1.2-.6 1.5-1.6 1.4zm7.7-5.5h-20c-1 0-1.7-.2-1.7-1.4 0-1.3.7-1.4 1.7-1.4h20.1c.9 0 1.7-.1 1.8 1.3-.1 1.4-.9 1.5-1.9 1.5zm.1-5.2h-20.1c-1.1 0-1.8-.1-1.8-1.5 0-1.3.8-1.3 1.8-1.3h20.1c1 0 1.7.1 1.7 1.4 0 1.2-.7 1.4-1.7 1.4zm-.1-5.6h-20.1c-1.1 0-1.8-.2-1.8-1.5s.6-1.6 1.7-1.6h20.1c1.1 0 1.8.2 1.8 1.5.1 1.3-.6 1.6-1.7 1.6z" id="path3087"/><path d="M352.7 152c-1.9 4.5-4.8 8.4-8.4 11.9-2.8 2.6-5.7 5.1-8.8 7.4-5.4 4-11.2 7.2-17.2 10.2-5.5 2.7-11.2 5.1-17 7.2-4.3 1.5-8.6 3.3-13 4.2-5.3 1.1-10.3-.2-14.5-4h-.1c-.4-.3-.8-.7-1.1-1.1-2.4-2.7-3.3-6-3.2-9.8.1-16.5.4-32.9-.1-49.4-.3-10 7.5-15.9 16-15.9H329c.3.4.7.5 1.2.5 7.1 4.2 13.5 9.3 18.5 15.9 5.1 6.7 7.5 14.5 4 22.9z" id="path3089"/><path d="M18.3 193.9c.2-1.5-1.3-2.6-.9-4.1 1-3.4 2-6.8 4.4-9.5 1-1.2 1.6-1.7-.5-2.4-3.9-1.2-7.7-2.6-10.6-5.7-1.3-1.5-1.2-2.6-.1-4.2 2.6-3.6 6.5-5.2 10.3-7 1.2-.6 1.6-.7.5-2-3.6-4.1-1.8-9.8 3.8-12.4 3-1.4 6.2-2.2 9.5-2.1 3.6.1 6.5 1.5 8.5 4.5.8 1.2 2 2.3 2.4 3.8.2.9.7.8 1.4.4 1.9-1.2 3.7-2.6 5.9-3.3 3.9-1.3 6.9.1 8.3 4 .3.7.2 1.6.9 2.2 2.1-1.1 3.4-3.2 5.5-4.5 6.5-3.9 13.4-4 20.4-2.1 5.6 1.5 10.5 4.5 15.3 7.7 0 .2 0 .4.1.6v22.9c0 4.2-2.3 7.3-5.4 9.7-3.5 2.7-7.7 3.5-12.1 3.5H18.3z" id="path3091"/><path d="M186.4 128.8c4.3-1.8 8-3.3 12.3-5.1-3.7-1-6.8-1.9-9.9-2.8-1.6-.4-3.2-.9-4.9-1.2-1.1-.3-1.7-.6-.5-1.6 1.6-1.4 3.2-2.9 4.9-4.3.7-.6 1.6-.6 2.5-.6h24.7c1.5 0 2 .4 1.8 2-1.1 8.5-5.1 15.3-12.3 20-1.7 1.1-3.4 2.2-5.4 2.7-1.1.3-1.7 1-1.8 2.2-.3 4.1-1.3 8.1-2 12.2-.2 1.3-.8 1.6-2 1.6-5.3-.1-4.2.6-4.3-4.2-.1-3.1.2-6.1-.1-9.2-.2-2.5.9-4 2.8-5.1 1.3-.8 3.3-1.7 3.1-2.9-.1-1.3-2.4-1.2-3.7-1.7-1.4-.7-3-1.2-5.2-2z" id="path3093"/><path d="M183 113.7c-2 1.7-3.9 3.4-5.9 5-.6.5-1.6 1-1.5 1.7.1.9 1.2.8 2 1 3.3 1 6.6 2 10.6 3.1-4.2 1.8-7.8 3.3-12 5 4.8 1.2 9 2.4 13.4 3.5-4 4.1-4 4.1-4 10.2 0 2.9-.1 5.8 0 8.7 0 1.4-.5 1.7-1.8 1.7-4.7.1-4.8.2-5.4-4.4-.4-3.1-1.3-6.1-1.8-9.1-.2-1.2-.8-1.8-1.8-2.2-5.4-1.9-9.9-5.3-13.3-9.8-3-4-5-8.6-5.2-13.8 0-.9.2-1.4 1.2-1.4 8.3.1 16.6.1 24.9.2l.6.6z" id="path3095"/><path d="M112.6 180.2c2.1 3.2 1.6 6.8.4 10.1-1.1 3-2.5 5.9-4.8 8.4-4.5 4.8-10 7.2-16.3 8.3-9.4 1.5-18.4-.4-27.2-3.6-.4-.1-.8-.3-1.2-.5-3.9-2.3-7.2-1.6-11.2.6-6.1 3.4-12.8 5.1-19.9 2.2-1.8-.8-3.4-1.8-4.7-3.1-1.3-1.3-2.6-1.8-4.4-2-3.5-.3-6.5-1.7-8.6-4.6-.4-.5-.7-1.6-.8-2.2 0 0 1.3.1 2 0 .4 0 .9.2 1.3.2.2 0 .8.1 1.1.1v-.1c1.3 2.9 3.8 3.2 6.4 3.4 2.1.1 3.7.8 5.1 2.3 2.9 3 6.5 4.1 10.6 3.6 5.1-.5 9.7-2.4 13.7-5.4 2.1-1.6 3.9-1.5 6.2-.4 7.1 3.4 14.6 6 22.5 6.6 8.1.7 15.5-1.5 21.4-7.6 2.2-2.3 3.3-5 4.5-7.9 1.1-2.9 1.4-5.7-.5-8.2-1.5-2-1.1-3 .8-4.2 2.4-1.6 4.6-6.7 3.8-8.8-1.8-4.6-4.7-8.6-9.4-10.4v-.1.1-.1c0-1.6.4-3-1-5h.2c.3 0 .6.1.8.1 1.3 2.1 3.5 2.8 5.4 4.1 3.5 2.4 6.3 5.3 8 9.1 1.7 4-.6 8.5-4 11.7-1.1 1.4-1.2 1.9-.2 3.3z" id="path3097"/><path d="M63.5 207.7c-2.2-1.6-4.7-2.5-7.5-2.5-3 0-4.7.6-7.4 2.5-3.1 2.2-3.1 7.1.1 9.3 4.9 3.4 10 3.4 14.8 0 2.7-2 2.8-7.2 0-9.3zm-1.9 4.9c-.1 1.2-.7 2-1.8 2.5-2.7 1.3-5.4 1.4-8.1-.2-1-.6-1.6-1.4-1.6-2.6 0-1.2.6-2.1 1.6-2.6 1.3-.7 2.6-1.2 4.2-1 1.5-.2 2.8.3 4.1 1 1.2.7 1.7 1.6 1.6 2.9z" id="path3099"/><path d="M44.2 216c-4.1-5.1-10.7-5.2-15-.3-1.6 1.9-1.4 4.6.3 6.4 2 2.2 4.5 2.8 7.7 2.8 1.5 0 3.3-.3 5-1.3 3.3-2 4.1-5.1 2-7.6zm-3.7 4.3c-1.1.8-2.3.9-3.5.9h-.4c-2.7 0-4.6-.9-4.6-2.5 0-1.7 2.6-3.3 5-3.2 1.5.1 2.9.7 3.9 1.7.9.9.9 2.2-.4 3.1z" id="path3101"/><path d="M214.4 91.7c-1-.2-1.5-1.1-2.1-1.8-.6-.7 0-1.2.5-1.6 3.2-2.7 6.3-5.3 9.5-7.9 3.5-2.9 7.2-5.6 10.6-8.6 1.4-1.3 2.1-.7 3.2.3 1.4 1.3.5 2-.4 2.7-6.6 5.3-13.1 10.7-19.7 16-.5.4-1 .6-1.6.9z" id="path3103"/><path d="M184 67.4c0-3.8.1-7.7 0-11.5 0-1.6.7-1.9 2.1-1.9 1.3 0 2.2.1 2.2 1.8-.1 7.9-.1 15.8 0 23.7 0 1.8-.9 1.7-2.2 1.8-1.4.1-2.1-.3-2.1-1.9.1-4 0-8 0-12z" id="path3105"/><path d="M214 60.1c-.7 1.9-1.3 3.7-2.1 5.4-2.5 5-4.8 10-6.8 15.2-.3.7-.5 1.5-1 2.1-1.2 1.6-2.5 1.8-4.2.8-.9-.6-.4-1.2-.1-1.7 2.4-3.7 3.5-8 5.4-12 1.6-3.4 3.4-6.9 4.7-10.5.4-1.2 1.3-1.1 2.1-.7.7.3 1.8.2 2 1.4z" id="path3107"/><path d="M162.8 89.3c-.4 1-1.5 1.2-2.1 2-.5.7-1 .1-1.5-.2-3.2-2.5-6.4-4.9-9.6-7.4-3.5-2.7-7.1-5.5-10.6-8.3-.6-.4-1.4-1-.5-1.7.9-.7 1.5-2.5 3.1-1.3 3.4 2.6 6.8 5.2 10.1 7.8 3.5 2.7 6.9 5.5 10.4 8.2.2.4.6.5.7.9z" id="path3109"/><path d="M245.6 88c1.3.1 1.3 1.4 1.8 2.2.6.9 0 1.3-.8 1.6-6.6 2.9-13.3 5.8-19.9 8.8-1 .4-2 .8-3 1.4-1.5.8-2.3.4-3-1.1-.6-1.3-.2-1.8.9-2.3l23.1-10.2c.4-.2.6-.3.9-.4z" id="path3111"/><path d="M162.3 58.9c.9-.1 1 .7 1.3 1.2 3 6.2 5.9 12.4 8.9 18.6.2.5.4.9.7 1.3 1.8 2.6 1.5 3.4-1.7 3.9-.5.1-.8 0-1.1-.4-.4-.7-.9-1.3-1.3-2-3.1-6.4-6.2-12.9-9.3-19.4-.7-1.8.4-3.3 2.5-3.2z" id="path3113"/><path d="M153.3 100c.1 2.2-1.5 3.3-3.1 2.6-7.4-3.3-14.7-6.6-22.1-9.8-.6-.3-1.3-.6-.7-1.1.9-.7.8-2.8 2.7-2 3.5 1.5 6.9 3 10.4 4.5 3.7 1.6 7.3 3.2 10.9 4.8.8.1 1.7.4 1.9 1z" id="path3115"/><path d="M24.9 219.6c-2.5-2.2-7.4-2.4-10.7-.4-2.6 1.6-2.6 5.1 0 6.7 1.6 1 3.3 1.3 5.1 1.2 2.1.1 4-.2 5.6-1.7 2.1-1.9 2.1-3.9 0-5.8zm-5.5 4.1c-.3 0-.8 0-1.3-.1-.8-.1-1.7-.4-1.7-1 0-1.2 1.8-1.2 3-1.2.6 0 1.4 0 2 .2.5.2.9.4.9.8.1 1.2-2.2 1.3-2.9 1.3z" id="path3117"/></g></svg>