<svg aria-labelledby="simpleicons-acm-icon" role="img" xmlns="http://www.w3.org/2000/svg" viewBox="0 0 24 24"><title id="simpleicons-acm-icon">ACM icon</title><path d="M12 .5L23.5 12 12 23.5.5 12 12 .5zm0 4.4c-3.9 0-7.1 3.2-7.1 7.1s3.2 7.1 7.1 7.1 7.1-3.2 7.1-7.1c0-3.9-3.2-7.1-7.1-7.1zm0 .8c3.5 0 6.3 2.8 6.3 6.3s-2.8 6.3-6.3 6.3-6.3-2.8-6.3-6.3S8.5 5.7 12 5.7zm-2.7 7.9v-2.1c0-.4-.1-.6-.4-.8-.2-.2-.6-.3-1.2-.3-.2 0-.4 0-.6.1-.2 0-.4.1-.5.1v.7h.1c.1-.1.3-.1.4-.2.2 0 .3-.1.4-.1.2 0 .4 0 .6.1.1.1.2.2.2.3-.3 0-.5 0-.8.1-.2 0-.4.1-.6.2-.2.1-.3.2-.4.3-.1.1-.1.3-.1.5 0 .3.1.5.3.7.2.2.4.3.7.3h.3c.1 0 .2-.1.2-.1.1 0 .2-.1.2-.1l.2-.1v.3l1 .1zm-1-.8l-.2.2h-.3c-.2 0-.3 0-.3-.1-.1-.1-.1-.2-.1-.3 0-.1 0-.2.1-.2 0-.1.1-.1.2-.1s.2-.1.3-.1h.4c-.1-.1-.1.6-.1.6zm3.9-.2l-.1.1c-.1.1-.3.2-.4.2h-.3c-.2 0-.4-.1-.6-.2-.1-.1-.2-.4-.2-.7 0-.3.1-.5.2-.7.1-.2.3-.3.6-.3h.3c.1 0 .2.1.2.1.1 0 .1.1.2.1l.1.1h.1v-.8c-.3-.2-.7-.2-1-.2-.2 0-.4 0-.6.1-.2.1-.4.2-.5.3-.2.1-.3.3-.4.5-.1.2-.1.5-.1.7 0 .3 0 .5.1.7.1.2.2.4.4.5.2.1.3.2.5.3.2.1.4.1.7.1h.3c.1 0 .2 0 .3-.1.1 0 .1 0 .2-.1.1 0 .1-.1.2-.1v-.8l-.2.2zm.6-2.1v3.1h1v-2.2c.1 0 .1-.1.2-.1s.2-.1.2-.1h.2c.1 0 .1.1.1.1v2.2h1v-2.2c.1-.1.2-.1.2-.1h.4c.1 0 .1.1.1.1v2.2h1v-2c0-.2 0-.4-.1-.5 0-.1-.1-.3-.2-.3-.1-.1-.2-.2-.3-.2-.1 0-.2-.1-.4-.1s-.3 0-.5.1-.3.2-.5.4c-.1-.2-.2-.3-.3-.4-.1-.1-.3-.1-.5-.1s-.3 0-.5.1-.3.2-.4.3v-.3h-.7z"/></svg>