<svg role="img" viewBox="0 0 24 24" xmlns="http://www.w3.org/2000/svg"><title>Acode</title><path d="M10.18 3.15c-.323 0-.7.417-.774.844-.464 2.738-1.168 6.873-1.84 10.79l.262.265c.49.485.47 1.154.274 1.635-.093.23-.244.41-.436.563a1.23 1.23 0 0 1-.568.266l-.432 2.504a.4.4 0 0 0-.006.072c0 .36.432.758.743.758h1.712c.26 0 .651-.263.752-.798q.936-4.943 1.883-9.881c-.417-2.178-.81-4.223-1.098-5.703a1.7 1.7 0 0 1 .206-1.227 1 1 0 0 1 .06-.087zm1.666 0c-.379 0-.729.406-.729.958q0 .127.026.262 1.515 7.836 3 15.68c.1.534.492.8.752.8h1.712c.312 0 .743-.4.743-.76v-.003a.4.4 0 0 0-.006-.07l-.432-2.502a1.23 1.23 0 0 1-.58-.268 1.36 1.36 0 0 1-.434-.563c-.195-.481-.214-1.15.274-1.635l.27-.272c-.67-3.915-1.375-8.047-1.84-10.783-.071-.427-.45-.843-.772-.843ZM4.754 6.973c-.195 0-.37.102-.545.28a284 284 0 0 0-3.783 3.91c-.067.072-.136.136-.19.194a.85.85 0 0 0-.228.54l-.008.15c0 .221.084.434.235.596.054.058.125.122.193.193a292 292 0 0 0 3.781 3.91c.175.178.35.28.545.28.528 0 1.643-.002 2.172 0 .3 0 .61-.28.71-.53.131-.32.13-.803-.16-1.094-.796-.788-3.08-3.175-3.296-3.402.217-.227 2.501-2.613 3.295-3.402.175-.174.245-.418.245-.654a1.2 1.2 0 0 0-.083-.442c-.102-.25-.41-.53-.71-.53-.53.003-1.645 0-2.173 0zm12.32 0c-.3 0-.61.278-.71.53-.131.32-.13.804.16 1.095.795.79 3.079 3.175 3.296 3.402-.217.228-2.5 2.614-3.295 3.402-.175.174-.245.418-.245.654 0 .158.03.313.083.442.102.25.41.53.71.53.53-.004 1.645 0 2.173 0 .195 0 .37-.104.545-.28a292 292 0 0 0 3.78-3.912c.069-.071.14-.135.194-.193a.87.87 0 0 0 .235-.595c0-.05-.006-.1-.008-.15a.84.84 0 0 0-.227-.54c-.055-.06-.125-.123-.193-.194a292 292 0 0 0-3.781-3.912c-.175-.177-.35-.28-.545-.28-.53 0-1.643.003-2.172 0z"/></svg>