<svg role="img" viewBox="0 0 24 24" xmlns="http://www.w3.org/2000/svg"><title>Activeloop</title><path d="M13.7361.0002a8.5024 8.5024 0 0 0-2.761.4702C10.597.6029 9.755.915 9.4334 1.076c.0128 0-.0078 0 .0401-.0006.0936-.0238.8998-.151 1.1045-.151.0834-.002.166-.004.2482-.004 1.2311-.004 2.3252.2388 3.469 1.0639 1.6364 1.1735 2.7617 3.1987 3.1116 5.1008.2968 1.8755.058 3.858-.539 5.7068-.8609 2.328-2.459 4.1354-4.3603 5.1858-.011.0063-.0234.0127-.0341.0183 1.6565-.1907 3.3326-.8957 4.7726-2.0433.804-.6435 1.542-1.429 2.1756-2.347.5676-.8328 1.0025-1.7034 1.3145-2.593.792-2.2732.7474-4.6401-.0864-6.5954-.003-.007-.0045-.0114-.008-.02-.5296-1.2397-1.362-2.309-2.5066-3.0946C16.8464.4214 15.2955-.005 13.7361 0zm-3.9636 1.065a6.0425 6.0425 0 0 0-.3126.0175c-1.6656.1449-3.1907.971-3.914 1.4508-1.3999.9274-2.5443 2.1103-3.3955 3.4447C-.271 9.7636-.394 14.7698 2.245 18.754c3.5658 5.3848 10.8204 6.8706 16.2117 3.3029 5.3818-3.5678 6.867-10.8263 3.3011-16.2111a11.3559 11.3559 0 0 0-1.1047-1.4242l.1494.3074c.8323 1.959.8229 4.5048.0378 6.776-.3122.8897-.7473 1.7603-1.3149 2.5931-.6337.918-1.3998 1.6562-2.2321 2.2714-2.743 2.0157-5.4672 1.6654-5.4577 1.6749-.8877-.0282-1.6979-.2138-2.4495-.4166-2.7808-.8423-4.5872-2.9053-4.502-5.5456.104-3.2555 3.282-5.801 7.1033-5.678.7093.0189 1.3809.1418 2.024.3216 1.2296.3502 2.5917 1.2018 3.424 2.205l.0469.0547c.0003-.0312-.001-.0623-.0012-.0935.0009-.6009-.0545-1.1934-.1784-1.7689-.4068-1.8927-1.466-3.596-3.1307-4.7411-1.239-.8517-2.6579-1.2492-4.086-1.3154a4.6841 4.6841 0 0 0-.3135-.001zm2.0763 5.4767c-3.561.0366-6.4667 2.4597-6.5675 5.531-.0795 2.4028 1.5808 4.5078 4.0023 5.4471a4.8157 4.8157 0 0 1-.1594-.2c-1.7567-2.3467-1.2053-6.0693 1.3878-8.6638 1.21-1.2117 2.4455-1.7402 3.0135-1.9511 0 0-.6285-.1413-1.3301-.1591-.1326-.006-.3466-.004-.3466-.004z"/></svg>