<svg role="img" viewBox="0 0 24 24" xmlns="http://www.w3.org/2000/svg"><title>Actix</title><path d="M11.31.313c-.052.994-.762 1.227-1.146.375a1.766 1.766 0 0 1-.117-.386L10.02.126l-.285.057-.28.058.03.156c.053.28.03.638-.057.81-.1.195-.156.245-.327.272-.194.03-.307-.012-.486-.172-.14-.13-.372-.528-.372-.65 0-.023-.011-.046-.023-.046-.042 0-.486.165-.516.188-.015.015-.004.107.026.21.084.282.076.65-.022.825-.22.397-.737.271-1.071-.256l-.152-.24-.194.114c-.106.065-.216.13-.243.145-.038.023-.026.08.05.249.19.412.163.806-.061 1-.228.192-.638.07-.953-.282l-.178-.203-.232.18a1.909 1.909 0 0 0-.228.191c0 .008.05.096.114.195.228.363.232.756.011.932-.208.165-.687.058-1.006-.221l-.133-.119-.11.122c-.06.07-.152.169-.205.23l-.09.103.136.145c.17.176.292.417.319.627a.346.346 0 0 1-.069.298c-.174.26-.516.286-.93.076a1.585 1.585 0 0 0-.243-.114c-.011 0-.091.103-.178.229l-.16.225.118.088c.163.122.357.401.418.592.064.23 0 .436-.171.543-.167.107-.555.11-.82.008l-.194-.073-.125.252-.126.256.205.134c.414.267.559.703.32.948-.149.145-.392.21-.73.194l-.273-.015-.046.134a1.729 1.729 0 0 0-.068.267c-.027.13-.023.138.144.203.243.103.502.348.555.523.106.356-.24.65-.763.65h-.22l-.027.256a3.308 3.308 0 0 1-.042.298c-.011.027.068.069.201.107.425.118.695.413.642.7-.046.232-.38.45-.801.519-.069.011-.076.046-.088.31L0 12.647h.103c.224 0 .554.126.702.267.163.157.19.302.095.49-.095.183-.414.427-.562.427-.137.004-.152.058-.106.352l.045.282h.236c.607-.007.907.36.653.8-.088.144-.35.362-.437.362-.08 0-.08.092 0 .336.046.142.087.26.091.268.004.004.095-.012.205-.035.365-.076.763.092.82.344.046.21-.045.42-.292.669l-.232.23.11.206c.145.27.164.282.338.217.19-.068.54-.072.661-.007.338.172.327.619-.027.99l-.132.14.159.215c.091.118.186.225.213.233.026.011.121-.015.208-.061.33-.168.714-.13.855.091.106.16.064.505-.088.753a.825.825 0 0 0-.113.222c.007.015.098.107.208.206l.194.184.186-.13c.254-.18.402-.23.604-.207.258.027.364.153.387.436a.893.893 0 0 1-.08.462l-.098.237.224.153c.121.084.239.153.254.153.019 0 .095-.061.167-.138.254-.267.604-.367.805-.233.205.134.27.485.16.852-.03.103-.058.191-.058.195 0 .02.452.24.486.24.02 0 .084-.068.145-.156.22-.325.573-.474.808-.351.206.107.29.313.285.684v.31l.266.087c.148.046.273.073.277.054.008-.02.065-.127.126-.237.151-.26.375-.428.58-.428.281 0 .52.355.52.775 0 .199.012.207.358.241l.243.027.056-.191c.122-.41.274-.585.532-.612.323-.038.55.2.65.684l.049.241.284.012.285.011.027-.203c.053-.412.3-.756.546-.756.247 0 .517.26.646.619.068.202.072.202.406.134l.228-.05.004-.264c.004-.32.099-.565.277-.718.144-.122.232-.126.44-.03.186.083.38.301.479.53.042.1.091.161.121.15.023-.008.145-.05.266-.088.217-.07.224-.073.201-.188-.087-.477-.057-.73.107-.909.2-.222.505-.168.8.141.107.107.221.237.255.29l.061.096.247-.13.247-.13-.076-.171c-.1-.222-.13-.6-.069-.788.13-.4.615-.37 1.052.062l.194.194.129-.084c.068-.042.174-.122.235-.175l.106-.1-.094-.141c-.152-.218-.228-.428-.228-.638 0-.233.053-.344.201-.42.258-.134.65-.039.945.233l.16.14.19-.186c.102-.1.186-.199.186-.218 0-.02-.061-.103-.137-.187-.258-.29-.376-.661-.277-.883.137-.302.736-.298 1.124.011.053.042.11.077.125.077s.103-.1.197-.226l.175-.221-.228-.203c-.497-.443-.535-.959-.076-1.112.183-.06.498-.019.745.092l.2.096.126-.264c.072-.145.122-.268.11-.275a2.94 2.94 0 0 0-.22-.126c-.494-.264-.687-.745-.418-1.032.156-.168.547-.218.893-.11.102.03.205.057.231.057.038 0 .201-.413.201-.512 0-.023-.098-.073-.22-.107-.27-.08-.55-.264-.653-.428-.27-.444.194-.833.915-.772l.289.023.045-.29c.027-.157.042-.295.035-.299a3.479 3.479 0 0 0-.274-.057c-.611-.107-.957-.493-.755-.845.102-.175.482-.382.706-.382.087 0 .224-.011.304-.023l.14-.026v-.6h-.258c-.456 0-.775-.145-.9-.405-.06-.13-.06-.15 0-.306.106-.279.387-.462.854-.554.152-.03.224-.061.213-.092a2.87 2.87 0 0 1-.042-.256c-.038-.294-.05-.31-.25-.263-.392.091-.794.034-.991-.142-.278-.256-.126-.695.33-.951.125-.069.292-.138.368-.15l.14-.022-.106-.294c-.06-.16-.121-.287-.14-.283a3.056 3.056 0 0 0-.25.088c-.422.149-.942.065-1.049-.176-.16-.348.114-.791.63-1.016.1-.042.183-.084.19-.088.023-.02-.262-.558-.288-.547-.015.008-.13.065-.254.13C21.57 6.58 21 6.446 21 5.972c0-.248.361-.749.661-.917.068-.038.06-.057-.125-.294l-.201-.252-.148.13c-.426.39-.991.466-1.174.164-.17-.275-.015-.787.323-1.089l.167-.149-.216-.214c-.122-.118-.236-.218-.255-.218-.022 0-.08.061-.133.134a1.394 1.394 0 0 1-.634.459c-.174.057-.22.057-.357.015-.227-.077-.319-.214-.315-.485 0-.249.099-.505.285-.738.065-.084.11-.172.099-.199-.008-.026-.118-.118-.243-.206l-.224-.157-.103.16c-.133.215-.387.463-.554.547a.849.849 0 0 1-.32.069c-.155 0-.2-.015-.276-.107a.775.775 0 0 1-.148-.577c.03-.176.182-.543.27-.638.049-.057.03-.076-.21-.203a1.913 1.913 0 0 0-.296-.137c-.015 0-.06.084-.098.187-.137.394-.6.768-.881.715-.137-.027-.3-.184-.357-.34-.065-.169-.046-.52.034-.753.042-.115.08-.226.087-.245.008-.026-.497-.214-.584-.214-.016 0-.035.073-.05.157-.034.222-.193.546-.338.688-.284.29-.565.267-.767-.058-.11-.18-.114-.21-.117-.63l-.004-.443-.148-.027a1.881 1.881 0 0 0-.285-.027l-.14-.004-.046.253c-.091.55-.418.92-.733.84-.266-.065-.474-.428-.509-.879L11.915 0h-.585zm1.432 1.983c2.38.157 4.025 1.059 4.112 2.243.034.524-.17.956-.714 1.498-.444.451-.994.822-1.765 1.204-1.534.753-3.315 1.234-5.202 1.398-.626.054-1.929.023-2.41-.06-1.398-.238-2.127-.746-2.279-1.594-.163-.898.642-2.09 2.05-3.034 1.496-1.005 3.383-1.609 5.202-1.67.179-.007.342-.015.36-.019.024-.004.312.012.646.034zm5.696 3.42c.186.1.383.348.44.562.091.344-.102.764-.448.97-.55.325-1.302-.118-1.302-.771 0-.329.243-.684.55-.803.205-.076.57-.057.76.042zm1.773 2.285c1.416.677 1.94 3.733 1.131 6.634-.535 1.922-1.739 3.824-3.041 4.814-.691.524-1.416.757-1.952.634-.915-.217-1.393-1.253-1.393-3.022 0-1.261.228-2.568.687-3.997.85-2.629 2.278-4.711 3.512-5.116.327-.107.763-.088 1.056.053zm-15.438.807c.303.18.47.55.414.897a.938.938 0 0 1-.437.6c-.232.119-.608.123-.797.008-.323-.195-.467-.436-.467-.76a.789.789 0 0 1 .27-.623.813.813 0 0 1 1.017-.122zm7.95.932c.52.168 1.052.588 1.322 1.047.763 1.28.193 2.923-1.2 3.477-.247.095-.36.118-.71.134-.744.03-1.272-.176-1.785-.696-.497-.5-.702-.99-.702-1.673 0-.688.212-1.204.702-1.693.342-.344.627-.516 1.052-.63.365-.1.96-.085 1.321.034zm-7.98 1.685c.603.145 1.351.512 2.114 1.035 1.268.868 2.741 2.354 3.672 3.707 1.006 1.463 1.572 2.904 1.496 3.817-.057.661-.323 1.093-.828 1.33-.308.149-.562.198-.976.198-1.762 0-4.249-1.463-5.786-3.412-1.325-1.67-2.104-3.71-1.96-5.12.088-.856.445-1.375 1.079-1.578.24-.076.824-.065 1.188.023zm9.313 7.65c.197.057.444.279.532.466.083.187.094.546.022.722-.144.344-.444.539-.827.543-.213 0-.278-.016-.437-.115a.9.9 0 0 1-.421-.703.636.636 0 0 1 .08-.44.884.884 0 0 1 1.051-.473z"/></svg>