<svg role="img" viewBox="0 0 24 24" xmlns="http://www.w3.org/2000/svg"><title>Acura</title><path d="M23.77 10.91c-.23-4.02-1.492-6.89-3.33-8.498C18.488.689 14.813 0 12.057 0c-2.87 0-6.43.689-8.382 2.412C1.837 4.019.459 7.005.23 10.909 0 14.584.804 18.718 2.87 21.014 4.824 23.311 8.843 24 11.944 24s7.12-.689 9.071-2.986C23.196 18.718 24 14.7 23.77 10.91M11.368 1.147h1.378v8.728h-1.378Zm-9.53 13.436c-.115-1.493-.575-6.89 1.607-9.99.919-1.379 2.182-2.297 3.56-2.757 1.837-.689 4.134-.689 4.134-.689-.919 2.182-2.641 6.89-2.986 7.924-.46 1.263-.804 1.952-1.148 4.249-.23 1.837-.69 6.545-.69 8.612-2.64-1.263-4.133-3.56-4.478-7.35m15.846 7.464c-1.722.804-3.904.919-5.627.919s-3.904-.23-5.626-.92c.574-1.607 3.33-8.267 4.823-10.908h1.607c1.493 2.64 4.25 9.416 4.823 10.909m4.594-7.464c-.345 3.79-1.838 6.086-4.364 7.349-.115-2.067-.46-6.775-.689-8.612-.345-2.297-.689-2.986-1.148-4.25-.345-1.033-2.182-5.74-2.986-7.923 0 0 2.182 0 4.134.69 1.378.459 2.641 1.377 3.56 2.755 1.952 3.1 1.607 8.498 1.493 9.99"/></svg>