<svg role="img" viewBox="0 0 24 24" xmlns="http://www.w3.org/2000/svg"><title>Ada</title><path d="M18.869 13.484c0-.437.45-.598 1.18-.678.607-.07 1.09-.173 1.404-.38v.552c0 .66-.54.98-1.265 1.053a46.697 46.693 0 0 0-.924-.078c-.25-.098-.395-.263-.395-.469m-13.987.196h3.112l.255.774a32 32 0 0 0-3.96.993zm1.55-4.694 1.09 3.279H5.341zm6.92 1.645c.82 0 1.484.76 1.484 1.703 0 .667-.348 1.242-.852 1.509q-.57.019-1.152.054c-.562-.233-.961-.831-.961-1.563 0-.966.662-1.703 1.482-1.703m9.486 3.746-.003-.064v-3.084c0-.471-.18-2.025-2.527-2.025-1.517 0-2.573.84-2.72 1.968h1.484c.135-.506.741-.748 1.27-.748.662 0 1.055.253 1.055.564 0 .483-.685.598-1.65.69-1.28.115-2.37.46-2.37 1.795q0 .2.034.376-.533-.02-1.092-.028V6.719h-1.483v3.199a2.4 2.4 0 0 0-1.707-.69c-1.506 0-2.753 1.334-2.753 3.095 0 .655.176 1.253.475 1.743q-.558.063-1.12.144L7.376 7.294H5.5L2.508 16.09c-.874.352-1.715.748-2.507 1.191 3.835-1.714 13.294-4.034 24-2.612-.05-.058-.466-.17-1.163-.292z"/></svg>