<svg role="img" viewBox="0 0 24 24" xmlns="http://www.w3.org/2000/svg"><title>Adani Group</title><path d="M22.662 8.565c0 .371.281.687.674.687.371 0 .664-.316.664-.687a.656.656 0 0 0-.664-.662.652.652 0 0 0-.674.662m-13.224 0v1.686a3.782 3.782 0 0 0-1.472-.326c-1.449 0-2.28.864-2.406 2.258a12.777 12.777 0 0 0 0 1.597c.125 1.382 1.046 2.316 2.564 2.316 1.09 0 2-.484 2.292-.7.18-.122.215-.245.215-.448V8.565a.597.597 0 0 0-.597-.607.603.603 0 0 0-.596.607m-2.687 5.068a10.665 10.665 0 0 1 0-1.315c.046-.82.45-1.247 1.305-1.247.585 0 1.147.203 1.382.349v3.123c-.225.17-.808.405-1.292.405-.866 0-1.326-.45-1.395-1.315m10.406-3.09c-.167.113-.237.225-.237.46v4.416a.61.61 0 0 0 .597.609c.336 0 .596-.27.596-.609v-4.032c.257-.158.786-.316 1.336-.316.698 0 1.306.382 1.306 1.282v3.066c0 .338.28.609.594.609.35 0 .597-.27.597-.609v-3.123c0-1.518-.833-2.37-2.462-2.37-1.18 0-2.001.37-2.327.616m-5.079-.28c-.303.135-.394.359-.394.552 0 .347.327.606.821.448.315-.112.765-.247 1.226-.247.875 0 1.247.326 1.247 1.09v.37c-.517-.122-.9-.19-1.428-.19-1.573 0-2.282.889-2.282 1.866 0 1.102.764 1.945 2.304 1.945 1.17 0 2.025-.417 2.34-.63.168-.113.212-.235.212-.439v-2.922c0-1.517-.888-2.18-2.326-2.18-.684 0-1.393.179-1.72.336m.36 3.847c0-.541.494-.846 1.18-.846.506 0 .866.069 1.36.19v1.25c-.113.09-.527.35-1.304.35-.798 0-1.236-.339-1.236-.944M.806 10.26c-.302.136-.394.36-.394.553 0 .347.327.606.822.448.314-.112.765-.247 1.225-.247.877 0 1.248.326 1.248 1.09v.37c-.518-.122-.9-.19-1.428-.19-1.52 0-2.232.83-2.279 1.767v.207c.048 1.047.811 1.837 2.3 1.837 1.171 0 2.024-.417 2.34-.63.169-.113.213-.235.213-.439v-2.922c0-1.517-.888-2.18-2.327-2.18-.685 0-1.393.179-1.72.336m.361 3.847c0-.541.494-.846 1.18-.846.505 0 .866.069 1.36.19v1.25c-.112.09-.53.35-1.305.35-.797 0-1.235-.339-1.235-.944m21.573-3.474v4.81a.61.61 0 0 0 .596.607c.337 0 .597-.27.597-.607v-4.81a.596.596 0 1 0-1.193 0"/></svg>