<svg role="img" viewBox="0 0 24 24" xmlns="http://www.w3.org/2000/svg"><title>Adobe Fonts icon</title><path d="M19.7636.375H4.2364C1.8967.375 0 2.2717 0 4.6114v14.7772c0 2.3397 1.8967 4.2364 4.2364 4.2364h15.5272c2.3397 0 4.2364-1.8967 4.2364-4.2364V4.6114C24 2.2717 22.1033.375 19.7636.375zm-3.2498 6.5363c-.2422 0-.3635-.1817-.4392-.4391-.2574-.9693-.5906-1.257-.7875-1.257s-.4998.3634-.8329 1.1207a19.3088 19.3088 0 0 0-1.0073 2.9929l1.732-.0023a.6515.6515 0 0 1-.2375.7721l-1.7119.0001c-.5604 1.8781-1.0319 3.6883-1.5922 5.4603a9.6721 9.6721 0 0 1-1.1056 2.5594 3.144 3.144 0 0 1-2.4837 1.3328c-.7725 0-1.5297-.3635-1.5297-1.1662a1.0513 1.0513 0 0 1 .9238-.9692.4608.4608 0 0 1 .4241.2424c.3786.6815.7421 1.0752.9088 1.0752.1666 0 .3029-.2271.5754-1.2115l1.9878-7.3218-1.4302-.0018a.6852.6852 0 0 1 .2266-.7747h1.4236a13.1501 13.1501 0 0 1 1.0483-2.579 3.786 3.786 0 0 1 3.2712-2.196c1.1359 0 1.6053.5452 1.6053 1.2419a1.1442 1.1442 0 0 1-.9692 1.1208z"/></svg>