<svg role="img" viewBox="0 0 24 24" xmlns="http://www.w3.org/2000/svg"><title>Adobe PhoneGap icon</title><path d="M7.463 15.549l-.856.061c0 .17.008.309.008.41.023 1.063.624 1.287 1.126 1.287.069 0 .115-.008.115-.008h.016l1.426-.139c.054-.17.062-.293.062-.293s-.193-8.983-.24-10.116a1.215 1.215 0 0 0-.184-.617 92.108 92.108 0 0 1-1.35-.108l-.162-.008c-.347 0-.609.093-.778.27-.255.27-.232.687-.232.687v.015c0 .015.008.254.016.64.694.039 1.203.07 1.203.07s.794.169.832.986c.039.887.031 5.876.031 5.876s.093.81-1.033.987zm-2.737.193l-1.434.107s-1.18.162-1.211-1.133c-.015-.956-.139-6.361-.139-6.361s-.085-1.003 1.134-.918c.362.023.91.054 1.495.093-.015-.895-.03-1.673-.038-2.275a60.468 60.468 0 0 1-2.005-.17C.924 4.909 1.025 6.259 1.025 6.259s.192 9.923.231 11.134c.046 1.45 1.604 1.21 1.604 1.21l1.927-.208c-.023-.717-.038-1.627-.061-2.652zM21.889 3.443c-.069-1.858-1.704-2.251-1.704-2.251S14.525.336 12.051.027c-2.483-.308-2.329 2.09-2.329 2.09s.563 17.518.625 19.685c.07 2.583 2.475 2.174 2.475 2.174l8.528-1.472c1.55-.309 1.627-2.244 1.627-2.244S21.974 5.463 21.889 3.443zm-1.904 14.874l-6.338.655s-1.843.278-1.89-1.958c-.03-1.65-.393-11.119-.393-11.119S11.241 4.16 13.138 4.3c1.935.147 6.585.494 6.585.494s1.241.293 1.295 1.711c.062 1.542.594 10.101.594 10.101s.139 1.411-1.627 1.712zm-6.377.324l2.445-.255c-.116-2.49-.548-12.16-.61-13.563V4.8c-.894-.07-1.742-.13-2.336-.177-.062-.008-.131-.008-.193-.008-.408 0-.717.108-.917.324-.34.355-.3.91-.3.918v.007c0 .008 0 .062.007.147.994.085 1.742.154 1.742.154s1.072.239 1.118 1.403c.047 1.265.355 8.112.355 8.112s.123 1.156-1.403 1.403l-1.419.139c.1 1.164.779 1.419 1.35 1.419.084 0 .138-.008.138-.008.016.008.023.008.023.008zm-3.732-1.195l-1.974.185s-1.596.23-1.626-1.604c-.024-1.357-.186-9.03-.186-9.03S5.983 5.58 7.617 5.696c.478.03 1.164.092 1.89.146-.047-1.457-.086-2.621-.101-3.23-.956-.093-1.874-.186-2.537-.263-2.159-.246-2.028 1.666-2.028 1.666s.255 14.08.309 15.806c.061 2.06 2.159 1.728 2.159 1.728l2.683-.34a691.29 691.29 0 0 0-.116-3.762Z"/></svg>