<svg role="img" viewBox="0 0 24 24" xmlns="http://www.w3.org/2000/svg"><title>Adobe Experience Manager icon</title><path d="M12 4.879a2.255 2.255 0 0 1 2.02 1.258 2.797 2.797 0 0 0-.56.434 2.065 2.065 0 0 1-2.92 0 2.822 2.822 0 0 0-.559-.434A2.252 2.252 0 0 1 12 4.879zm2.237 2.007a2.182 2.182 0 0 1 .014.248 2.625 2.625 0 0 0 2.623 2.622 2.178 2.178 0 0 1 .248.014 2.13 2.13 0 0 1-.214.25 2.807 2.807 0 0 0 0 3.97 2.135 2.135 0 0 1 .214.252 2.178 2.178 0 0 1-.248.014 2.624 2.624 0 0 0-2.622 2.62 2.182 2.182 0 0 1-.014.25 2.145 2.145 0 0 1-.252-.216 2.81 2.81 0 0 0-3.97 0 2.145 2.145 0 0 1-.252.215 2.182 2.182 0 0 1-.013-.248 2.625 2.625 0 0 0-2.622-2.621 2.169 2.169 0 0 1-.246-.014 2.076 2.076 0 0 1 .214-.251 2.807 2.807 0 0 0 0-3.97 2.082 2.082 0 0 1-.215-.251 2.178 2.178 0 0 1 .247-.014 2.625 2.625 0 0 0 2.622-2.622 2.19 2.19 0 0 1 .013-.248 2.145 2.145 0 0 1 .252.215 2.807 2.807 0 0 0 3.97 0 2.192 2.192 0 0 1 .251-.215zm3.629 3.101a2.249 2.249 0 0 1 0 4.038 2.822 2.822 0 0 0-.436-.56 2.065 2.065 0 0 1 0-2.919 2.822 2.822 0 0 0 .436-.565zM14.02 17.87a2.251 2.251 0 0 1-4.04 0 2.822 2.822 0 0 0 .56-.434 2.066 2.066 0 0 1 2.92 0 2.822 2.822 0 0 0 .56.429zm-7.886-3.85a2.249 2.249 0 0 1 0-4.038 2.84 2.84 0 0 0 .435.56 2.064 2.064 0 0 1 0 2.919 2.875 2.875 0 0 0-.435.559zM12 19.493a2.625 2.625 0 0 0 2.351-1.461 2.81 2.81 0 0 0 3.682-3.68 2.62 2.62 0 0 0 0-4.702 2.81 2.81 0 0 0-3.682-3.68 2.614 2.614 0 0 0-4.701 0 2.811 2.811 0 0 0-3.683 3.68 2.62 2.62 0 0 0 0 4.7 2.81 2.81 0 0 0 3.682 3.682A2.625 2.625 0 0 0 12 19.492zm2.584-2.171a2.612 2.612 0 0 0 .038-.45 2.252 2.252 0 0 1 2.251-2.25 2.617 2.617 0 0 0 .451-.038 2.066 2.066 0 0 1-2.74 2.739zm2.739-7.903a2.617 2.617 0 0 0-.45-.039 2.252 2.252 0 0 1-2.251-2.25 2.612 2.612 0 0 0-.04-.45 2.066 2.066 0 0 1 2.741 2.738zM9.42 6.679a2.617 2.617 0 0 0-.038.451 2.254 2.254 0 0 1-2.255 2.25 2.606 2.606 0 0 0-.45.038 2.066 2.066 0 0 1 2.74-2.74zm-2.74 7.903a2.664 2.664 0 0 0 .45.039 2.254 2.254 0 0 1 2.252 2.25 2.612 2.612 0 0 0 .038.45 2.066 2.066 0 0 1-2.743-2.737zM0 12A12 12 0 1 0 12 0 12 12 0 0 0 0 12zm1.238 0A10.763 10.763 0 1 1 12 22.776 10.77 10.77 0 0 1 1.237 12Z"/></svg>