<svg role="img" viewBox="0 0 24 24" xmlns="http://www.w3.org/2000/svg"><title>Adobe XD icon</title><path d="M19.75.3H4.25A4.25 4.25 0 000 4.55v14.9c0 2.35 1.9 4.25 4.25 4.25h15.5c2.35 0 4.25-1.9 4.25-4.25V4.55C24 2.2 22.1.3 19.75.3zm-7.02 16.49h-2.29c-.16 0-.27-.01-.34-.11l-.64-1.25-.68-1.26-.72-1.3h-.02c-.21.43-.44.86-.67 1.29l-.68 1.28L6 16.7c-.04.1-.12.11-.23.11h-2.2c-.04 0-.07.02-.07-.03a.14.14 0 01.02-.11l3.11-5.1L3.6 6.44c-.03-.04-.04-.08-.02-.1.02-.03.06-.04.1-.04h2.27l.14.02c.04.02.07.05.1.09.19.43.41.86.64 1.29.24.43.47.85.72 1.27.24.42.46.84.67 1.27h.02c.21-.44.43-.87.65-1.29l.68-1.26.67-1.26c.01-.04.03-.08.06-.1.04-.02.08-.03.13-.02h2.11a.1.1 0 01.11.07c.01.01-.01.05-.03.07l-3 4.95 3.2 5.25c.02.04.03.08.02.12-.01.04-.05 0-.11.02zm7.68-.41a8.7 8.7 0 01-3.17.62 4.99 4.99 0 01-2.15-.45 3.5 3.5 0 01-1.51-1.36 4.32 4.32 0 01-.55-2.28 4.1 4.1 0 012.14-3.66 5.12 5.12 0 012.74-.57l.31.02V5.54c0-.07.03-.11.1-.11h2.03c.05-.01.09.03.1.07v9.54l.02.6.04.58c0 .07-.03.13-.1.16zm-2.79-5.85c-.39 0-.78.08-1.13.26-.34.17-.63.42-.85.74a2.2 2.2 0 00-.33 1.27c-.01.35.05.7.17 1.03a1.71 1.71 0 001.13 1.1c.27.1.55.14.83.14a4.9 4.9 0 00.78-.07v-4.4l-.27-.05-.33-.02z"/></svg>