<svg role="img" viewBox="0 0 24 24" xmlns="http://www.w3.org/2000/svg"><title>ADP</title><path d="M15.086 11.881a3.13 3.133 0 0 1-3.12 3.123h-1.2v-1.373h1.2a1.749 1.75 0 1 0 0-3.5h-1.2V8.758h1.2a3.13 3.133 0 0 1 3.12 3.123M8.435 8.758v2.54h-2.16l-.79 1.372h4.32V8.758ZM24 10.714a4.286 4.29 0 0 1-4.285 4.29v2.333h-3.703v-1.819a5.362 5.367 0 0 1-4.08 1.82H8.435v-2.334H5.692L4.32 17.337H0L6.343 6.425h5.623a5.595 5.6 0 0 1 4.08 1.819v-1.82h3.703A4.279 4.283 0 0 1 24 10.714m-12.034 5.25a4.09 4.094 0 0 0 3.702-2.332h1.748v2.334h.96v-2.335h1.372a2.91 2.913 0 0 0 2.914-2.917 2.942 2.944 0 0 0-2.948-2.916h-2.332v3.5h-1.371a4.114 4.118 0 0 0-4.046-3.5h-4.8l-4.766 8.167h1.132l1.371-2.334h4.903v2.334zm7.749-7.206h-1.372v1.374h1.372a.58.58 0 0 1 .582.583.6.6 0 0 1-.582.584h-1.372v1.372h1.372a1.954 1.956 0 0 0 1.953-1.957 1.975 1.977 0 0 0-1.954-1.956m2 8.131a.549.549 0 1 1-.549-.549.542.542 0 0 1 .549.55m.137 0a.686.686 0 1 0-.686.685.686.686 0 0 0 .686-.686m-.651-.309a.138.138 0 1 1 0 .275h-.138v-.275Zm.171-.034a.26.26 0 0 0-.171-.069h-.275v.824h.103v-.309h.137l.172.309h.137l-.206-.343c.034 0 .069-.035.103-.069a.206.206 0 0 0 .034-.137.192.192 0 0 0-.034-.206"/></svg>