<svg role="img" viewBox="0 0 24 24" xmlns="http://www.w3.org/2000/svg"><title>Aegis Authenticator</title><path d="M10.77 2.067.197 20.462c-.56.98.14 2.2 1.27 2.2.53 0 1.01-.28 1.27-.74L10.69 7.988c.56-.99 1.99-.99 2.55 0l7.922 13.924c.26.46.75.74 1.27.74h.1c1.131 0 1.831-1.22 1.271-2.19L13.31 2.077c-.56-.98-1.98-.99-2.54 0zm-.33 11.699c-.26.46-.26 1.03 0 1.454l3.8 6.682c.322.534.79.76 1.3.76h.02c1.102 0 1.82-1.28 1.268-2.22l-3.772-6.607c-.598-1.082-2.047-1.07-2.617-.07zM6.944 19.88c-.27.43-.255 1.02-.025 1.44l.33.58c.25.46.755.76 1.29.76h.03c1.14 0 1.845-1.25 1.28-2.217l-.324-.57c-.61-1.03-2.033-.953-2.569-.013"/></svg>