<svg role="img" viewBox="0 0 24 24" xmlns="http://www.w3.org/2000/svg"><title>Aegis Authenticator</title><path d="M11.716 12.965c-1.25-.03-1.93 1.51-1.23 2.52 1.24 2.16 2.47 4.31 3.709 6.47.26.46.75.77 1.33.77 1.168.03 1.887-1.34 1.298-2.35-1.2-2.06-2.518-4.43-3.737-6.6-.27-.53-.78-.81-1.37-.81zm-3.418 6.13c-1.01.02-2.01 1.12-1.35 2.32l.34.57c1.09 1.74 3.539.24 2.61-1.55l-.37-.61c-.33-.55-.77-.74-1.24-.73zm15.701 2.17c-.03 1.5-1.999 2.05-2.819.81-2.788-4.94-5.577-9.87-8.004-14.09-.25-.31-.7-.68-1.36-.6-.41.07-.85.33-1.07.69L2.81 22.045c-.27.42-.74.71-1.28.71-1.129.03-1.888-1.26-1.359-2.25 3.668-6.53 7.217-12.63 10.415-18.35.22-.34.65-.85 1.33-.91.07 0 .18-.01.26 0 .609.04.999.47 1.228.81 3.478 6.18 7.286 12.93 10.444 18.52.11.21.15.43.15.69.003-.001-.003 0 0 0z"/></svg>