<svg role="img" viewBox="0 0 24 24" xmlns="http://www.w3.org/2000/svg"><title>Aegis Authenticator</title><path d="M11.741 12.99c-1.27-.02-2.01 1.48-1.25 2.48 1.236 2.157 2.476 4.312 3.71 6.47.26.46.75.77 1.33.77 1.16.01 1.91-1.3 1.33-2.29-1.197-2.062-2.5-4.404-3.72-6.57a1.57 1.57 0 0 0-1.4-.86Zm-3.45 6.11c-1.01.02-2 1.1-1.34 2.3l.34.57c1.09 1.74 3.53.26 2.6-1.53l-.37-.61c-.33-.55-.77-.74-1.23-.73ZM24 21.22c-.03 1.52-1.99 2.1-2.81.82-2.79-4.941-5.585-9.86-8.01-14.08-.25-.31-.699-.68-1.359-.6-.41.07-.85.33-1.07.69L2.821 22c-.27.42-.74.71-1.28.71-1.13.03-1.9-1.23-1.37-2.22 3.67-6.532 7.223-12.595 10.42-18.32.22-.34.65-.85 1.329-.91.07 0 .15-.01.23 0 .61.04 1 .47 1.23.81 3.482 6.188 7.287 12.867 10.449 18.46.11.21.17.43.17.69z"/></svg>