<svg role="img" viewBox="0 0 24 24" xmlns="http://www.w3.org/2000/svg"><title>Aegis Authenticator</title><path d="M13.117 13.845c1.2 2.13 2.57 4.54 3.74 6.56.581.99-.13 2.33-1.27 2.3-.57 0-1.05-.3-1.3-.76-1.21-2.12-2.51-4.36-3.73-6.48-.71-1-.05-2.57 1.19-2.54.58 0 1.1.39 1.37.91zm-3.28 6.56-.37-.61c-.32-.48-.71-.72-1.18-.71-1.01.02-1.941 1.09-1.36 2.3l.34.57c1.08 1.74 3.55.13 2.57-1.55zm14.163.85c0-.26-.04-.48-.15-.69-3.16-5.6-6.982-12.31-10.463-18.5-.23-.34-.62-.77-1.23-.81-.08-.01-.19 0-.26 0-.68.06-1.06.54-1.28.88-3.202 5.72-6.753 11.78-10.434 18.32-.53.99.15 2.3 1.28 2.27.54 0 1.01-.29 1.28-.71l7.953-14.01c.22-.36.66-.62 1.07-.69.66-.08 1.13.32 1.39.63 2.431 4.23 5.231 9.17 8.022 14.12.82 1.24 2.791.69 2.821-.81z"/></svg>