<svg role="img" viewBox="0 0 24 24" xmlns="http://www.w3.org/2000/svg"><title>Aeroméxico icon</title><path d="M6.6594 18.682v.999h6.0601c.2886-.2886.6437-.7992.7325-.999zm0 1.7093v1.021h2.1088c1.8869-.0221 3.1078-1.021 3.1078-1.021zm-3.3297-3.4185v.9989H13.785s.3774-.8657.3774-1.8425v-6.726c0-.5327.222-1.4207 1.3097-1.6648l.0888-.0222c3.0855-.7326 6.2598-.0666 8.0579.7103.333.1554.3995-.111.3773-.222.0444-1.5094-1.1099-3.2409-3.2187-3.3297-1.7092-.0444-2.6638.5772-3.019.7548-.0221.0221-.0665 0-.111-.0444-.3107-.3108-.9988-.777-1.7536-.999-.111-.0222-.1332-.1997 0-.1997 1.6205-.1776 3.0412 0 3.6405.111.1332.0221.2442-.0666.1776-.1776-.0444-.0888-.0666-.1332-.1332-.2886-.1554-.3108-.5327-.6438-1.0211-.777-1.2653-.3551-3.4407-.6659-5.3941-.6659-2.1754-.0222-4.484.4218-5.0612.555-.1332.0222-.333.0888-.3774.0888-.111 0-.1554.1553-.0888.222l.222.222c.0666.0887.111.2219-.0222.355l-4.04 3.6184h2.7747c.1776 0 .3552.1554.3552.3551 0 .1776-.1554.3552-.333.3552h-3.596l-1.0878.999h4.706c.1776 0 .333.1997.333.3551 0 .1554-.1332.3552-.333.3552H1.11L0 11.0902h9.5008c.1776 0 .333.1999.333.3552 0 .1998-.1332.3774-.333.3774H0v.999h9.4786c.222 0 .333.1997.333.3773 0 .1554-.1554.333-.3552.333H0v.9989h12.3865c.1998 0 .333.1776.333.3774 0 .1775-.1554.3551-.333.3551H3.3297v.999h9.079c.1776 0 .3108.1997.3108.3773 0 .1776-.1554.333-.3108.333-3.0224-.052-6.0539 0-9.079 0zM16.582 8.271c.3773 0 .6437.111.8435.222.444.1998.9323.444 1.576.7547 0 0 1.0212-.7325 1.0878-.7769.3551-.2442.6881-.0666.7991.1554.3774.7325 1.0877 2.2198 1.465 3.596.0445.1555 0 .4218-.2663.4884-.1554.0444-.3996.0888-.666.111-.3773.0444-.3551.3552-.3551.5328v2.2642c0 .3108-.2442 1.354-1.4429 1.354h-2.7526c-1.0433 0-1.8646-.8657-1.8646-1.798v-5.372c-.0222-.9322.8213-1.5538 1.576-1.5316Z"/></svg>