<svg role="img" viewBox="0 0 24 24" xmlns="http://www.w3.org/2000/svg"><title>AFFiNE</title><path d="M23.8 20.548a1811.24 1811.24 0 0 0-1.79-3.104c-.206-.358-.412-.716-.608-1.053-.401-.705-.781-1.346-1.042-1.802-1.834-3.169-5.437-9.431-7.239-12.535-.553-.869-1.845-.793-2.323.097-.542.944-1.14 1.976-1.769 3.06-.195.348-.401.696-.608 1.054-2.626 4.547-5.698 9.866-7.88 13.653-.108.207-.314.532-.423.75-.184.39-.151.89.087 1.248.26.434.75.672 1.238.64H22.65c1.032 0 1.683-1.129 1.173-2.019l-.022.01ZM11.57 16.52l-1.042-1.812a.477.477 0 0 1 .412-.717h2.095c.37 0 .597.402.413.717l-1.042 1.812a.478.478 0 0 1-.825 0h-.011Zm-1.747-3.375a6.997 6.997 0 0 1-.228-.673l3.462.673H9.822Zm1.584 4.764a10.9 10.9 0 0 1-.467.532L9.79 15.11l1.617 2.8Zm3.332-3.755c.239.033.467.087.695.141l-2.312 2.66 1.617-2.8Zm-5.35-2.822a10.52 10.52 0 0 1-.055-1.02l4.57 2.225-4.516-1.216v.011Zm-.543 3.332 1.204 4.515c-.27.196-.564.38-.857.554l-.358-5.069h.01Zm7.673.011c.315.141.608.293.912.467l-4.211 2.843 3.31-3.31h-.01ZM9.431 8.87c.087-.62.217-1.227.369-1.813l6.935 6.035L9.431 8.87ZM7.89 20.363a13.35 13.35 0 0 1-1.759.587l1.759-9.03v8.443Zm10.723-4.417c.5.38.955.803 1.39 1.226l-8.694 2.996 7.315-4.222h-.011ZM12.285 3.682c1.281 2.225 3.137 5.437 4.906 8.509l-6.61-6.61c.391-.673.76-1.313 1.097-1.9.13-.227.466-.227.607 0ZM1.964 20.504c.369-.629.868-1.486.976-1.682C3.993 17 5.415 14.546 6.88 12.006l-2.42 9.03H2.267a.35.35 0 0 1-.303-.52v-.011Zm19.731.521h-9.822l9.03-2.42c.478.825.857 1.476 1.096 1.9a.35.35 0 0 1-.304.52Z"/></svg>