<svg aria-labelledby="simpleicons-aim-icon" role="img" viewBox="0 0 24 24" xmlns="http://www.w3.org/2000/svg"><title id="simpleicons-aim-icon">AIM icon</title><circle cx="15.173" cy="3.9" r="3.897"/><path d="M11.71 7.287s-1.23.84-2.188 2.548c-1.08 1.918-.75 3.372-3.147 5.995-1.23 1.378-4.946 2.143-5.246 2.353-.33.21-.2 3.566 0 3.746.15.15 3.44-.3 5.78-1.53 2.32-1.25 3.99-2.97 3.99-2.97s2.29 1.2 3.68 2.87c1.393 1.68 2.19 3.6 2.43 3.69.24.09 3.19-.9 3.264-1.29.077-.39-1.317-3.657-2.95-5.427-1.635-1.767-3.298-3.596-3.298-3.955 0-.345.3-.6.69-.6s2.245.195 3.55.195c1.273 0 3.567-.343 3.776-.6.21-.3 0-2.696-.3-2.8-.256-.09-2.85.3-5.426.044-2.58-.3-4.615-2.248-4.615-2.248v-.03z"/></svg>