<svg role="img" viewBox="0 0 24 24" xmlns="http://www.w3.org/2000/svg"><title>Airbyte</title><path d="M8.148 2.91C10.79.027 15.168-.82 18.766.848c4.78 2.21 6.523 7.847 3.922 12.195l-5.856 9.77a2.447 2.447 0 0 1-1.496 1.105 2.554 2.554 0 0 1-1.871-.234l7.09-11.832c1.886-3.157.625-7.247-2.844-8.856-2.598-1.207-5.777-.605-7.7 1.473a6.211 6.211 0 0 0-1.675 4.144 6.224 6.224 0 0 0 2.164 4.778l-4.137 6.918a2.464 2.464 0 0 1-1.5 1.109 2.55 2.55 0 0 1-1.867-.238l4.492-7.512a8.457 8.457 0 0 1-1.367-2.969l-2.754 4.614a2.447 2.447 0 0 1-1.496 1.105A2.536 2.536 0 0 1 0 16.18L7.121 4.285c.293-.488.637-.95 1.027-1.375Zm8.215 3.79c1.715.956 2.309 3.077 1.317 4.734l-6.828 11.379a2.447 2.447 0 0 1-1.497 1.105 2.536 2.536 0 0 1-1.87-.238l6.34-10.59a3.69 3.69 0 0 1-1.407-.613 3.501 3.501 0 0 1-1.008-1.122 3.377 3.377 0 0 1 .649-4.14 3.574 3.574 0 0 1 1.308-.785 3.717 3.717 0 0 1 2.996.27Zm-2.48 2.136a1.06 1.06 0 0 0-.21 1.523 1.15 1.15 0 0 0 1.741.055c.274-.3.356-.723.207-1.101a1.112 1.112 0 0 0-.906-.692 1.16 1.16 0 0 0-.832.215Z"/></svg>
