<svg role="img" xmlns="http://www.w3.org/2000/svg" viewBox="0 0 24 24"><title>Airbnb icon</title><path d="M12.001 18.2747c-1.3526-1.6967-2.148-3.1834-2.413-4.457-.2632-1.0264-.1591-1.8477.291-2.465.4773-.7103 1.1876-1.0554 2.121-1.0554s1.6427.3451 2.12 1.0624c.4461.6103.5582 1.4326.286 2.465-.291 1.2987-1.0854 2.7853-2.412 4.458zm9.6012 1.1405c-.1851 1.2456-1.0345 2.279-2.201 2.7832-2.252.9804-4.482-.5832-6.3908-2.7042 3.1564-3.9517 3.7397-7.028 2.385-9.0179-.7953-1.1405-1.9338-1.6957-3.3944-1.6957-2.9443 0-4.563 2.491-3.9267 5.3823.3702 1.5647 1.3516 3.3435 2.9163 5.3323-.9805 1.0845-1.9099 1.8559-2.7312 2.333-.6363.3442-1.2456.5573-1.8288.6083-2.6782.3992-4.778-2.199-3.8247-4.879.132-.3452.3952-.9805.8454-1.962l.025-.053C4.94 12.3652 6.7177 8.7535 8.7606 4.748l.053-.1321.5803-1.1155c.4502-.8223.6352-1.1905 1.3516-1.6437.3451-.209.7693-.3141 1.2455-.3141.9544 0 1.6977.5572 2.0159 1.0064.158.2391.3451.5572.5822.9534l.5583 1.0885.08.159c2.0409 4.0038 3.8207 7.6084 5.2783 10.7937l.026.025.5332 1.2206.3182.7643c.243.6123.2941 1.2215.213 1.8578zm1.2195-2.39c-.186-.5833-.5042-1.2716-.9004-2.094v-.03c-1.8878-4.0067-3.6416-7.6082-5.3063-10.8446l-.111-.1621c-1.1866-2.433-2.036-3.8947-4.503-3.8947-2.439 0-3.4755 1.6947-4.535 3.8987l-.081.16c-1.6687 3.2355-3.4215 6.842-5.3033 10.8468v.053l-.5582 1.2195c-.2101.5042-.3172.7683-.3452.8474-1.3506 3.7136 1.4326 6.975 4.802 6.975.0271 0 .1321 0 .2642-.027h.3722c1.7507-.2131 3.5545-1.3256 5.3843-3.3174 1.8288 1.9888 3.6346 3.1043 5.3823 3.3174h.3722c.132.027.2381.027.2641.027 3.3695.003 6.1527-3.2614 4.802-6.975z"/></svg>