<svg role="img" viewBox="0 0 24 24" xmlns="http://www.w3.org/2000/svg"><title>Airbnb icon</title><path d="M11.998 18.267c-1.352-1.696-2.147-3.182-2.412-4.455-.263-1.026-.159-1.847.291-2.464.477-.71 1.187-1.055 2.12-1.055s1.642.345 2.119 1.062c.446.61.558 1.432.286 2.464-.291 1.298-1.085 2.784-2.411 4.456zm9.597 1.14c-.185 1.245-1.034 2.278-2.2 2.782-2.251.98-4.48-.583-6.388-2.703 3.155-3.95 3.738-7.025 2.384-9.014-.795-1.14-1.933-1.695-3.393-1.695-2.943 0-4.561 2.49-3.925 5.38.37 1.564 1.351 3.342 2.915 5.33-.98 1.084-1.909 1.855-2.73 2.332-.636.344-1.245.557-1.828.608-2.677.399-4.776-2.198-3.823-4.877.132-.345.395-.98.845-1.961l.025-.053C4.94 12.36 6.717 8.75 8.759 4.746l.053-.132.58-1.115c.45-.822.635-1.19 1.351-1.643.345-.209.769-.314 1.245-.314.954 0 1.697.557 2.015 1.006.158.239.345.557.582.953l.558 1.088.08.159c2.04 4.002 3.819 7.605 5.276 10.789l.026.025.533 1.22.318.764c.243.612.294 1.221.213 1.857zm1.219-2.389c-.186-.583-.504-1.271-.9-2.093v-.03c-1.887-4.005-3.64-7.605-5.304-10.84l-.111-.162C15.313 1.461 14.464 0 11.998 0 9.56 0 8.524 1.694 7.465 3.897l-.081.16c-1.668 3.234-3.42 6.839-5.301 10.842v.053l-.558 1.219c-.21.504-.317.768-.345.847-1.35 3.712 1.432 6.972 4.8 6.972.027 0 .132 0 .264-.027h.372c1.75-.213 3.553-1.325 5.382-3.316 1.828 1.988 3.633 3.103 5.38 3.316h.372c.132.027.238.027.264.027 3.368.003 6.15-3.26 4.8-6.972z"/></svg>