<svg role="img" viewBox="0 0 24 24" fill="none" xmlns="http://www.w3.org/2000/svg"><title>Airbyte</title><path clip-rule="evenodd" d="M11.542 4.246c3.744-4.206 9.944-5.44 15.042-3.012C33.357 4.46 35.827 12.68 32.14 19.02l-8.295 14.247a3.492 3.492 0 0 1-2.12 1.615 3.517 3.517 0 0 1-2.65-.346l10.042-17.251c2.675-4.602.886-10.566-4.024-12.915-3.685-1.762-8.189-.881-10.91 2.149a9.194 9.194 0 0 0-2.373 6.044 9.192 9.192 0 0 0 3.065 6.963l-5.863 10.09a3.475 3.475 0 0 1-2.12 1.616 3.516 3.516 0 0 1-2.65-.346l6.364-10.954a12.58 12.58 0 0 1-1.935-4.329l-3.9 6.726a3.492 3.492 0 0 1-2.121 1.615A3.517 3.517 0 0 1 0 23.598L10.086 6.25c.42-.713.907-1.383 1.456-2.004ZM23.183 9.77c2.43 1.393 3.268 4.49 1.863 6.902l-9.672 16.594a3.492 3.492 0 0 1-2.121 1.615 3.517 3.517 0 0 1-2.65-.346l8.98-15.448a5.105 5.105 0 0 1-1.99-.892 5.064 5.064 0 0 1-1.43-1.637 5.026 5.026 0 0 1 .919-6.037c.527-.51 1.16-.9 1.854-1.144a5.122 5.122 0 0 1 4.247.393Zm-3.518 3.118a1.577 1.577 0 0 0-.295 2.222 1.596 1.596 0 0 0 1.68.566c.304-.081.578-.25.786-.486a1.58 1.58 0 0 0-.991-2.616 1.607 1.607 0 0 0-1.18.314Z" fill="#615EFF" fill-rule="evenodd"/></svg>
