<svg role="img" viewBox="0 0 24 24" xmlns="http://www.w3.org/2000/svg"><title>Aircall icon</title><path d="M23.47 5.893A6.993 6.993 0 0 0 18.083.491c-1.353-.313-3.576-.517-6.09-.517s-4.737.204-6.09.517A6.993 6.993 0 0 0 .516 5.893C.204 7.249 0 9.479 0 12s.204 4.751.516 6.107a6.993 6.993 0 0 0 5.387 5.402c1.353.313 3.576.517 6.09.517s4.737-.204 6.09-.517a6.996 6.996 0 0 0 5.387-5.402c.312-1.357.516-3.587.516-6.107 0-2.521-.204-4.751-.516-6.107zm-5.887 12.423l-.003.001c-.381.181-1.358.31-2.255.392a.444.444 0 0 1-.451-.271 1.82 1.82 0 0 0-1.298-1.076c-.352-.081-.93-.135-1.583-.135-.654 0-1.232.053-1.583.135a1.82 1.82 0 0 0-1.294 1.064c-.08.186-.27.3-.472.282-.914-.084-1.833-.187-2.239-.39l-.003-.001a.764.764 0 0 1-.493-.715c0-.032.003-.066.005-.099.073-.982.668-3.28 1.556-5.903 1.015-2.999 2.077-5.426 2.555-5.9a1.01 1.01 0 0 1 .405-.26l.004-.002c.315-.107.894-.178 1.557-.178.664 0 1.244.071 1.558.178l.005.002a1.03 1.03 0 0 1 .405.26c.479.474 1.54 2.901 2.555 5.9.888 2.623 1.482 4.921 1.556 5.903.002.032.005.066.005.099a.76.76 0 0 1-.492.714z"/></svg>