<svg role="img" xmlns="http://www.w3.org/2000/svg" viewBox="0 0 24 24"><title>AirPlay Audio icon</title><path d="M11.9082.1836c-2.8774.0227-5.7566 1.0743-8.045 3.1719-4.8816 4.4748-5.1662 12.0812-.6913 16.9629.2034.244.4473.4473.6914.6914.122.0813.2861.083.4082-.0391l.5293-.6113c.122-.122.122-.3252 0-.4473C.5293 15.9661.2438 9.254 4.2305 4.9824 8.2172.711 14.8887.4274 19.1602 4.4141c4.2714 3.9867 4.555 10.6562.5683 14.9277-.2034.2034-.365.4076-.5683.5703-.122.122-.122.3252 0 .4473l.5293.6113c.122.122.3252.1204.4472.039 4.8817-4.5155 5.1663-12.0811.6914-16.9628-2.3989-2.5934-5.6588-3.889-8.9199-3.8633zm.3867 3.5176C10.0982 3.63 7.8715 4.3932 6.1426 6c-3.4579 3.2138-3.661 8.6242-.4473 12.082.122.122.2435.2842.4063.4063.122.122.3252.122.4472 0l.5293-.6094c.122-.122.122-.3252 0-.4473-1.4238-1.3424-2.2773-3.2547-2.2773-5.248 0-3.946 3.2122-7.1602 7.1582-7.1602 3.946 0 7.1601 3.2532 7.1601 7.1993 0 1.9526-.8144 3.8665-2.2382 5.209-.122.122-.122.3252 0 .4472l.5293.6094c.122.122.3252.163.4472.041 3.4579-3.2545 3.622-8.6652.4082-12.123-1.6069-1.729-3.774-2.634-5.9707-2.7051zm-.2656 3.3164c-1.3221-.0204-2.654.4662-3.6914 1.4629-2.0747 1.9933-2.1145 5.2475-.1211 7.3222l.121.123c.1221.1221.3253.1221.4474 0l.5293-.6112c.122-.122.122-.3253 0-.4473-.6916-.6916-1.0977-1.6666-1.0977-2.6836a3.732 3.732 0 013.7422-3.7422 3.732 3.732 0 013.7422 3.7422c0 1.017-.4064 1.9513-1.1387 2.6836-.122.122-.122.3252 0 .4473l.5293.6113c.122.122.3252.122.4473 0 2.034-1.9934 2.1164-5.2476.123-7.3223-.9967-1.0373-2.3107-1.5656-3.6328-1.586zm.0059 7.7441c-.1373-.005-.2803.0448-.4024.1465l-.039.041-7.1602 8.0547c-.1627.2034-.1624.488.041.6914.0814.0814.2019.123.2832.123h14.3613c.2441 0 .4883-.2035.4883-.4882 0-.122-.0397-.2448-.121-.3262l-7.0801-8.0547c-.1018-.122-.2338-.1824-.3711-.1875Z"/></svg>
