<svg role="img" viewBox="0 0 24 24" xmlns="http://www.w3.org/2000/svg"><title>Airtel</title><path d="M13.299 1.338a1.345 1.345 0 0 1-.242.028c-.344.005-1.457.254-1.862.412-.037.014-.14.052-.232.084-.242.084-.881.352-.982.416a.646.646 0 0 1-.171.071c-.05.011-.09.033-.09.045 0 .01-.026.028-.056.04a.98.98 0 0 0-.159.076c-.053.031-.133.07-.176.089a.815.815 0 0 0-.185.102.617.617 0 0 1-.13.073c-.076 0-1.143.683-1.445.924-.245.196-.698.624-.698.66a.325.325 0 0 1-.07.087c-.1.099-.397.516-.483.671l-.156.288a1.79 1.79 0 0 0-.212.985c.018.366.112.556.394.807.294.261.61.375 1.106.398.342.014.587-.009.928-.092.11-.028.255-.06.325-.078a.722.722 0 0 0 .181-.056c.078-.034.505-.204.524-.204.06 0 .759-.378 1.406-.759.428-.252.801-.47.834-.484.031-.019.233-.123.448-.238.215-.112.481-.245.589-.295l.349-.162c.084-.035.239-.099.347-.134a10.324 10.324 0 0 0 .481-.18c.129-.046.421-.093.705-.109.617-.037 1.048.204 1.27.708.053.12.063.22.063.57 0 .427-.043.662-.172.937a9.349 9.349 0 0 0-.082.176c-.167.351-.508.854-.899 1.311-.371.438-1.17 1.167-1.698 1.551-.181.134-.383.281-.446.329a6.415 6.415 0 0 1-.48.309c-.073.04-.191.111-.266.158-.205.123-.752.38-1.06.498l-.271.105a.556.556 0 0 1-.17.042.83.83 0 0 0-.169.031c-.215.067-.433-.061-.433-.257 0-.24.129-.392.944-1.105.881-.775.977-.889.977-1.182 0-.301-.162-.506-.527-.671-.158-.073-.218-.081-.497-.081-.324 0-.514.041-.749.167-.053.03-.136.068-.182.088a.605.605 0 0 0-.1.053 4.236 4.236 0 0 0-.807.699c-.123.141-.213.273-.422.617-.172.288-.328.822-.328 1.132 0 .629.371 1.131.944 1.276.173.044.876.044 1.117.001.24-.043.861-.212.903-.245a.145.145 0 0 1 .078-.025c.086 0 1.071-.443 1.409-.637a12.321 12.321 0 0 1 .543-.299c.159-.087.298-.169.309-.177.009-.013.123-.086.248-.162l.331-.202c.057-.035.212-.141.348-.236.862-.606 1.623-1.254 2.068-1.758a5.7 5.7 0 0 0 .148-.161c.028-.016.253-.303.409-.52.07-.09.175-.251.235-.357l.192-.322c.042-.074.136-.263.209-.425l.152-.35c.093-.208.235-.745.298-1.127.071-.435.017-1.146-.118-1.537a2.379 2.379 0 0 0-.193-.425 3.339 3.339 0 0 0-1.176-1.259 1.422 1.422 0 0 1-.186-.129c-.119-.092-.725-.333-1.08-.424a6.412 6.412 0 0 0-.627-.122c-.358-.041-1.216-.062-1.325-.028Zm9.606 14.475a3.386 3.386 0 0 1-.344.059c-.184.024-.48.068-.662.096l-.331.051v2.693c0 2.923-.008 2.802.188 3.168.066.124.158.233.302.347.351.284.678.374 1.377.375.597 0 .573.02.561-.465l-.01-.352-.255-.019c-.455-.036-.674-.197-.723-.53-.012-.1-.024-1.353-.02-2.781.003-2.473-.004-2.711-.083-2.642Zm-9.175.059c-.735.096-.982.137-1.011.17-.022.025-.026.959-.016 2.744.016 2.491.022 2.718.076 2.838.126.283.192.384.36.533.35.308.793.433 1.522.433.405 0 .461-.006.487-.052.033-.056.05-.565.023-.682-.019-.074-.033-.077-.281-.094-.315-.017-.501-.112-.63-.313l-.083-.132-.009-1.516c-.008-1.131 0-1.528.028-1.559.031-.034.144-.043.497-.043.549 0 .501.048.488-.511l-.01-.381-.463-.015c-.255-.009-.485-.026-.506-.038-.032-.017-.042-.196-.042-.726v-.7l-.071.003a18.74 18.74 0 0 0-.359.041ZM2.248 17.193a5.888 5.888 0 0 0-1.177.263c-.146.035-.629.248-.629.279 0 .015.029.082.062.151.22.425.302.577.318.577.01 0 .043-.012.077-.025.169-.078.375-.151.537-.194.1-.028.218-.062.265-.077.186-.058.679-.087.909-.055.449.064.615.248.642.72.013.26.013.266-.063.285-.044.01-.349.02-.677.02-.788 0-1.03.04-1.54.259a1.657 1.657 0 0 0-.919.999c-.079.243-.068.697.021.937.298.797 1.006 1.262 1.996 1.309.897.043 1.821-.195 2.415-.615l.215-.157.01-1.548c.009-1.793.006-1.855-.24-2.294-.108-.199-.476-.514-.705-.605-.105-.042-.222-.086-.258-.1-.249-.096-.879-.161-1.259-.129Zm.977 2.823c.02.022.033.371.033.793 0 .83.013.777-.232.891-.092.045-.195.054-.518.056h-.399l-.166-.1a.91.91 0 0 1-.232-.189c-.245-.316-.229-.882.03-1.16.075-.084.368-.264.421-.264.033 0 .07-.011.089-.025.046-.045.198-.057.586-.051.279.004.365.012.388.049Zm7.29-2.755a3.892 3.892 0 0 0-1.717.815l-.138.113v4.322c0 .047.049.051.723.044l.718-.009.01-2.038.007-2.038.127-.088c.148-.105.221-.138.413-.196.228-.069.586-.101.855-.074.133.011.258.018.278.009.024-.005.083-.106.136-.223.05-.118.13-.269.169-.339.111-.184.099-.232-.046-.261-.07-.015-.196-.042-.285-.057-.236-.055-.954-.039-1.25.02Zm7.208.008a.742.742 0 0 0-.229.056.157.157 0 0 1-.08.025c-.027 0-.146.043-.261.095-.256.111-.646.43-.812.667-.146.208-.315.518-.342.628a.839.839 0 0 1-.05.147 5 5 0 0 0-.086.278c-.089.317-.089 1.329-.002 1.625.08.272.257.688.292.688.016 0 .03.015.03.033 0 .11.395.552.671.752.123.087.398.213.603.275.223.068.713.141.932.141.47 0 1.319-.18 1.6-.336a.964.964 0 0 1 .203-.088c.099-.028.318-.147.344-.189.03-.04-.341-.706-.391-.706a.35.35 0 0 0-.128.059.305.305 0 0 1-.13.059.252.252 0 0 0-.109.041c-.037.02-.209.082-.382.136-.295.09-.345.095-.779.099-.411 0-.48-.008-.613-.063-.463-.196-.729-.69-.729-1.359 0-.142.004-.261.01-.264.004-.006.739-.016 1.632-.025l1.622-.014-.01-.293c-.019-.574-.191-1.345-.341-1.523a2.285 2.285 0 0 1-.103-.163c-.178-.312-.555-.583-1.003-.714-.328-.099-.929-.129-1.359-.067Zm.713.93c.137.033.431.24.431.304 0 .018.023.071.05.115.075.133.134.566.081.621-.033.039-.162.044-.831.044h-.792l-.02-.074c-.043-.148.072-.551.206-.706a.844.844 0 0 1 .466-.309.859.859 0 0 1 .233-.038c.02.005.099.026.176.043Zm-12.13-2.991c-.251.115-.327.17-.436.313-.107.144-.11.154-.11.453v.312l.126.152c.15.178.249.242.467.309.296.086.551.053.845-.11.355-.199.477-.709.262-1.083-.075-.132-.142-.194-.341-.306-.179-.101-.633-.125-.813-.04Zm.813 2.114a2.74 2.74 0 0 1-.332.055c-.125.016-.358.044-.514.066a1.93 1.93 0 0 0-.307.051c-.031.024-.033 4.996-.007 5.041.013.015.308.027.697.027.674 0 .678 0 .695-.068.01-.035.012-1.218.01-2.626-.01-2.537-.01-2.561-.078-2.568a.65.65 0 0 0-.164.022Z"/></svg>