<svg version="1.1" id="Layer_1" xmlns="http://www.w3.org/2000/svg" xmlns:xlink="http://www.w3.org/1999/xlink" x="0px" y="0px" viewBox="0 0 24 24" style="enable-background:new 0 0 24 24;" xml:space="preserve"><g><path d="M7,17.4c-1.4-1.3-2.3-3.1-2.4-5.1H0.1c0.1,3.4,1.6,6.5,4,8.6L7,17.4z"/><path d="M12,0.1C5.5,0.1,0.2,5.2,0.1,11.7h4.6c0.2-3.9,3.4-7,7.3-7c4.1,0,7.3,3.3,7.3,7.3c0,2.7-1.5,5.1-3.7,6.4l2.2,4.1c3.7-2,6.1-6,6.1-10.4C23.9,5.4,18.6,0.1,12,0.1"/><path d="M15.1,18.6c-1,0.4-2,0.7-3.1,0.7c-1.7,0-3.3-0.6-4.5-1.6l-3,3.5c2.1,1.7,4.7,2.7,7.5,2.7c1.9,0,3.7-0.4,5.3-1.2L15.1,18.6z"/><rect x="19.3" y="12" width="4.6" height="11.9"/></g></svg>