<svg role="img" viewBox="0 0 24 24" xmlns="http://www.w3.org/2000/svg"><title>Alby</title><path d="M.686 15.453c.536-2.996 1.908-5.66 3.83-7.604l-.98-.98a2.362 2.362 0 1 1 .844-.822L5.384 7.05c1.884-1.57 4.19-2.5 6.7-2.5 2.478 0 4.756.908 6.629 2.446l.922-.922a2.362 2.362 0 1 1 .854.812l-.904.902c1.96 1.958 3.358 4.66 3.892 7.704h.002a3.7 3.7 0 0 1-2.106 3.99 21.73 21.73 0 0 1-9.255 2.06 21.62 21.62 0 0 1-9.34-2.1l.508-1.068a20.476 20.476 0 0 0 8.832 1.99 20.5 20.5 0 0 0 8.753-1.95c1.05-.49 1.64-1.596 1.448-2.71-1.016-5.774-5.279-9.976-10.235-9.976S2.882 9.907 1.852 15.667a2.524 2.524 0 0 0 1.434 2.708l-.508 1.062a3.708 3.708 0 0 1-2.092-3.982m18.17 1.974a17.93 17.93 0 0 1-6.778 1.32 17.984 17.984 0 0 1-6.776-1.32c-1.024-.418-1.63-1.506-1.276-2.554 1.096-3.232 4.288-5.568 8.052-5.568s6.959 2.336 8.053 5.568c.36 1.048-.252 2.136-1.274 2.554zm-7.724-3.082c0-.868-.88-1.57-1.97-1.57-1.086 0-1.968.702-1.968 1.57 0 .868.88 1.57 1.968 1.57s1.97-.702 1.97-1.57zm5.632 0c0-.868-.88-1.57-1.97-1.57s-1.968.702-1.968 1.57c0 .868.88 1.57 1.968 1.57s1.97-.702 1.97-1.57z"/></svg>
