<svg role="img" viewBox="0 0 24 24" xmlns="http://www.w3.org/2000/svg"><title>Alby</title><path d="M12.3 10.1c-2.9 0-5.3 1.8-6.1 4.2-.3.8.2 1.6 1 2 1.6.6 3.3 1 5.2 1 1.8 0 3.6-.4 5.2-1 .8-.3 1.2-1.2 1-2-1-2.4-3.4-4.2-6.3-4.2zm-2.2 5.1c-.8 0-1.5-.5-1.5-1.2s.7-1.2 1.5-1.2 1.5.5 1.5 1.2c0 .6-.7 1.2-1.5 1.2zm4.3 0c-.8 0-1.5-.5-1.5-1.2s.7-1.2 1.5-1.2 1.5.5 1.5 1.2c0 .6-.7 1.2-1.5 1.2zM18 9l.7-.7c.3.2.5.2.9.2 1 0 1.8-.8 1.8-1.8s-.8-1.8-1.8-1.8-1.8.8-1.8 1.8c0 .3.1.7.3.9l-.7.7a7.84 7.84 0 0 0-10.2 0l-.8-.7c.2-.2.3-.6.3-.9 0-1-.8-1.8-1.8-1.8s-1.8.8-1.8 1.8.8 1.8 1.8 1.8c.3 0 .6-.1.9-.2l.7.7a10.7 10.7 0 0 0-2.9 5.8c-.2 1.3.5 2.5 1.6 3 2.2 1 4.6 1.6 7.1 1.6s4.9-.6 7.1-1.6c1.1-.5 1.8-1.8 1.6-3-.4-2.3-1.5-4.3-3-5.8zm1 8.1c-2 .9-4.3 1.5-6.7 1.5-2.4 0-4.7-.5-6.7-1.5-.8-.4-1.2-1.2-1.1-2.1.8-4.4 4-7.6 7.8-7.6s7 3.2 7.8 7.6c.1.8-.3 1.7-1.1 2.1z"/></svg>