<svg role="img" viewBox="0 0 24 24" xmlns="http://www.w3.org/2000/svg"><title>Alchemy</title><path d="M7.517 12.16v-.058a.397.397 0 0 0-.155-.337.605.605 0 0 0-.393-.122.585.585 0 0 0-.294.063.676.676 0 0 0-.197.18.152.152 0 0 1-.06.05.239.239 0 0 1-.09.013h-.14a.14.14 0 0 1-.093-.036.1.1 0 0 1-.033-.086.463.463 0 0 1 .135-.265.941.941 0 0 1 .333-.22c.137-.057.283-.085.44-.085.29 0 .523.078.701.234.18.155.271.374.271.655v1.37a.114.114 0 0 1-.037.086.124.124 0 0 1-.089.036h-.173a.124.124 0 0 1-.089-.036.114.114 0 0 1-.037-.085v-.185c-.05.108-.156.194-.318.257a1.337 1.337 0 0 1-.487.094c-.159 0-.3-.027-.426-.081a.708.708 0 0 1-.29-.23.56.56 0 0 1-.098-.323c0-.224.087-.4.262-.525.175-.129.407-.216.697-.26zm0 .36-.552.085c-.203.03-.36.08-.473.148-.112.066-.168.15-.168.252 0 .074.036.142.107.202.072.06.181.09.328.09a.8.8 0 0 0 .547-.185.608.608 0 0 0 .21-.48zM9.05 13.517a.114.114 0 0 1-.037.085.124.124 0 0 1-.089.036h-.173a.124.124 0 0 1-.089-.036.114.114 0 0 1-.037-.085V10.57c0-.033.012-.062.037-.086a.124.124 0 0 1 .09-.036h.172c.034 0 .064.012.09.036a.114.114 0 0 1 .036.086zM10.735 13.297c.312 0 .523-.117.632-.35a.284.284 0 0 1 .065-.095.136.136 0 0 1 .09-.027h.14c.034 0 .064.012.089.036a.096.096 0 0 1 .037.076.572.572 0 0 1-.126.328.992.992 0 0 1-.365.297c-.16.08-.346.12-.562.12-.221 0-.413-.044-.575-.134a.943.943 0 0 1-.374-.368 1.205 1.205 0 0 1-.145-.53 2.816 2.816 0 0 1 0-.36c.028-.305.136-.554.323-.746.187-.191.444-.287.771-.287.216 0 .401.04.557.121.16.078.28.175.36.292.085.114.13.222.136.324.003.033-.01.061-.037.085a.124.124 0 0 1-.09.036h-.14a.136.136 0 0 1-.088-.027.283.283 0 0 1-.066-.094c-.11-.234-.32-.35-.631-.35a.664.664 0 0 0-.45.166c-.127.11-.2.278-.22.503a1.861 1.861 0 0 0-.004.161c0 .07.002.12.005.153.021.225.095.393.22.503.127.111.277.167.449.167zM14.509 13.517a.114.114 0 0 1-.037.085.124.124 0 0 1-.09.036h-.172a.124.124 0 0 1-.09-.036.114.114 0 0 1-.037-.085V12.33c0-.225-.057-.396-.173-.512-.115-.117-.276-.176-.481-.176-.203 0-.364.059-.482.176-.116.116-.173.287-.173.512v1.186a.114.114 0 0 1-.038.085.124.124 0 0 1-.089.036h-.173a.124.124 0 0 1-.089-.036.114.114 0 0 1-.037-.085V10.57c0-.033.012-.062.037-.086a.124.124 0 0 1 .09-.036h.172c.035 0 .064.012.09.036a.114.114 0 0 1 .037.086v.992a.78.78 0 0 1 .28-.215c.122-.06.27-.09.445-.09.196 0 .37.04.524.121.152.081.27.198.355.35.087.15.131.329.131.535zM16.148 11.257c.334 0 .597.102.79.305.194.204.29.481.29.832v.12a.115.115 0 0 1-.037.086.124.124 0 0 1-.088.036h-1.61v.027a.646.646 0 0 0 .188.467c.121.111.277.167.467.167.156 0 .276-.02.36-.059a.735.735 0 0 0 .234-.166.272.272 0 0 1 .066-.05.223.223 0 0 1 .084-.013h.14a.13.13 0 0 1 .094.036.1.1 0 0 1 .033.085.491.491 0 0 1-.14.252.932.932 0 0 1-.342.216 1.461 1.461 0 0 1-.529.085c-.2 0-.377-.044-.533-.13a1.03 1.03 0 0 1-.374-.369 1.276 1.276 0 0 1-.164-.525 3.392 3.392 0 0 1-.01-.207c0-.048.004-.117.01-.207a1.19 1.19 0 0 1 .164-.503c.093-.15.216-.268.37-.355.155-.087.335-.13.537-.13zm.66 1.002v-.014a.553.553 0 0 0-.183-.435c-.118-.111-.277-.167-.477-.167a.683.683 0 0 0-.463.167.57.57 0 0 0-.192.435v.014zM18.219 11.562a.906.906 0 0 1 .252-.22.715.715 0 0 1 .375-.085c.365 0 .62.13.767.39a.985.985 0 0 1 .309-.287.878.878 0 0 1 .453-.103c.306 0 .532.088.679.265.15.177.224.427.224.75v1.245a.114.114 0 0 1-.037.085.124.124 0 0 1-.09.036h-.172a.124.124 0 0 1-.089-.036.114.114 0 0 1-.037-.085v-1.2c0-.45-.184-.674-.552-.674a.522.522 0 0 0-.403.162c-.1.108-.15.268-.15.48v1.232a.114.114 0 0 1-.037.085.124.124 0 0 1-.089.036h-.173a.124.124 0 0 1-.089-.036.114.114 0 0 1-.037-.085v-1.2c0-.45-.184-.674-.552-.674a.522.522 0 0 0-.402.162c-.1.108-.15.268-.15.48v1.232a.114.114 0 0 1-.037.085.124.124 0 0 1-.09.036h-.172a.124.124 0 0 1-.09-.036.114.114 0 0 1-.037-.085v-2.094c0-.033.013-.061.038-.085a.124.124 0 0 1 .089-.036h.173c.034 0 .064.012.089.036a.114.114 0 0 1 .037.085zM22.588 14.384c-.028.072-.073.108-.135.108h-.192a.11.11 0 0 1-.08-.032.102.102 0 0 1-.032-.076c0-.012.001-.023.004-.032l.449-.939-.926-1.972a.087.087 0 0 1-.005-.031.11.11 0 0 1 .112-.108h.193c.062 0 .107.036.135.108l.72 1.527.73-1.527c.028-.072.074-.108.136-.108h.192a.11.11 0 0 1 .112.108.113.113 0 0 1-.004.031zM4.13 12.152l-1.571-2.6a.087.087 0 0 0-.076-.043.09.09 0 0 0-.076.041l-.47.78a.162.162 0 0 0 0 .167l1.023 1.697a.172.172 0 0 0 .065.061.182.182 0 0 0 .088.023h.94c.016 0 .03-.004.044-.012a.086.086 0 0 0 .032-.03.08.08 0 0 0 0-.084zM.012 13.51l1.57-2.6a.087.087 0 0 1 .033-.03.091.091 0 0 1 .088 0 .085.085 0 0 1 .032.03l.47.779a.162.162 0 0 1 0 .168l-1.024 1.696a.171.171 0 0 1-.064.062.181.181 0 0 1-.088.022H.09a.09.09 0 0 1-.045-.01.086.086 0 0 1-.032-.032.08.08 0 0 1 0-.084zM1.735 13.637h3.141a.09.09 0 0 0 .044-.011.086.086 0 0 0 .032-.031.08.08 0 0 0 0-.084l-.47-.78a.172.172 0 0 0-.064-.06.181.181 0 0 0-.088-.023H2.28a.18.18 0 0 0-.152.084l-.47.779a.081.081 0 0 0 0 .084.087.087 0 0 0 .032.03.092.092 0 0 0 .044.012z"/></svg>