<svg role="img" viewBox="0 0 24 24" xmlns="http://www.w3.org/2000/svg"><title>Alchemy</title><path d="M19.966 14.33 12.371 3.864a.39.39 0 0 0-.154-.125.51.51 0 0 0-.425-.002.393.393 0 0 0-.156.124L9.36 6.997a.573.573 0 0 0-.114.337c0 .119.04.235.114.338l4.952 6.828a.786.786 0 0 0 .311.247c.13.06.276.09.425.09h4.55a.513.513 0 0 0 .211-.045.394.394 0 0 0 .155-.124.288.288 0 0 0 .057-.169c0-.059-.019-.117-.056-.169zM.059 19.8 7.653 9.334a.393.393 0 0 1 .156-.123.51.51 0 0 1 .424 0c.064.03.118.072.155.123l2.276 3.134c.074.102.113.219.113.338 0 .118-.039.235-.113.338L5.71 19.97a.784.784 0 0 1-.31.248c-.129.06-.275.09-.424.09H.427a.513.513 0 0 1-.214-.045.392.392 0 0 1-.156-.124.286.286 0 0 1-.057-.17c0-.06.02-.118.059-.17zM8.387 20.307h15.189a.51.51 0 0 0 .212-.046.393.393 0 0 0 .155-.123.286.286 0 0 0 .057-.17c0-.058-.02-.117-.057-.168l-2.272-3.135a.787.787 0 0 0-.311-.248c-.13-.059-.276-.09-.425-.09H11.03c-.149 0-.295.031-.424.09a.786.786 0 0 0-.311.248L8.02 19.8a.287.287 0 0 0-.057.169c0 .059.02.117.056.169.038.051.091.094.156.123a.51.51 0 0 0 .212.046z"/></svg>