<svg role="img" viewBox="0 0 24 24" xmlns="http://www.w3.org/2000/svg"><title>Alfa Romeo icon</title><path d="M3.7488 5.5752l1.2 1.1592.3528-.3792-.4464-.4296.744-.8064-.288-.276-.744.8064-.3456-.3312 1.0728-1.1616-.2904-.276-1.4856 1.6128a.4222.4222 0 0 1 .2208.0792l.0096.0024zm2.64-2.4216l.0336 1.92.4464-.2568V4.428l1.0728-.6168.3216.2088.4464-.2568-1.8-1.164-.6384.3672a.2592.2592 0 0 1 .1176.1872zm1.164.42l-.7056.4056-.0216-.876.7272.4704zm3.384-.324h.5112v-.5304h.8568l.3744.528h.5712l-.4296-.5688.0528-.0264a.6216.6216 0 0 0 .3264-.6144.6792.6792 0 0 0-.72-.72h-1.6488a.4051.4051 0 0 1 .0912.2208l.0144 1.7112zM12.432 1.728a.2688.2688 0 0 1 .2736.288.2592.2592 0 0 1-.276.2832h-.9888v-.5736l.9912.0024zm10.1952 8.832c-.1128-.6744-.5424-1.1448-1.044-1.1448a1.0599 1.0599 0 0 0-.1488.012c-.5688.0984-.8904.72-.7656 1.4688.1152.6864.5352 1.1472 1.0464 1.1472a.8076.8076 0 0 0 .1512-.0144c.5664-.0984.8856-.7152.7608-1.4688zm-.8496.9408a.5785.5785 0 0 1-.0912 0c-.3 0-.5304-.2616-.6024-.684-.0768-.468.0936-.8088.4368-.8664a.4213.4213 0 0 1 .0912 0c.2952 0 .5328.2688.6.684.0792.4656-.0912.8064-.4344.8664zM18.1536 4.02l-.1824 1.4544.0216.0216 1.3944-.3264-.7656 1.0368.3744.3504 1.164-1.5336-.432-.4008-1.2168.2712.1488-1.2672-.4512-.42-.0552-.0528a.3648.3648 0 0 1-.096.24l-1.2 1.1688.3792.3528.9168-.8952zM15.06 3.8592c.1845.068.3794.1037.576.1056a.96.96 0 0 0 .9744-.624.919.919 0 0 0-.12-.828 1.5506 1.5506 0 0 0-.7704-.564 1.6473 1.6473 0 0 0-.5664-.1032.96.96 0 0 0-.9792.6192c-.192.5544.18 1.1352.8856 1.3944zM14.6664 2.64a.5377.5377 0 0 1 .552-.3552 1.058 1.058 0 0 1 .3624.0672c.4416.1584.6504.48.5352.8088a.5328.5328 0 0 1-.5496.3576 1.0831 1.0831 0 0 1-.3672-.0672c-.4392-.156-.648-.4728-.5328-.8112zM12 0C5.3726 0 0 5.3726 0 12s5.3726 12 12 12 12-5.3726 12-12S18.6274 0 12 0zm0 23.52C5.6377 23.52.48 18.3623.48 12S5.6377.48 12 .48 23.52 5.6377 23.52 12 18.3623 23.52 12 23.52zM1.3656 10.8168a.2397.2397 0 0 1 .096-.0192.263.263 0 0 1 .1224.0312L3.12 12l.0768-.5112-.3096-.24.1848-1.224.3648-.1224.0768-.5088-2.0352.6864-.1128.7368zm1.2744-.636l-.1224.8016-.6984-.528.8208-.2736zm9.4416-2.124l.0264-.024-.0264-.024a2.0786 2.0786 0 0 1-.72-.9792 1.274 1.274 0 0 0-.2928-.48.533.533 0 0 0-.4176-.1944.9754.9754 0 0 0-.24.0288h-.0456l.0264.0528a.5114.5114 0 0 0 .2592.264.081.081 0 0 0 .036 0h.0696c.1488.0864.2256.72.2256 1.032 0 .0528-.0216.0792-.0696.0792a.24.24 0 0 1-.1536-.0648.4799.4799 0 0 0-.348-.1464.4464.4464 0 0 0-.48.4008v.0504a.4464.4464 0 0 0 .48.4008.4799.4799 0 0 0 .348-.1464.24.24 0 0 1 .1536-.0624c.048 0 .0696.024.0696.0768 0 .3144-.0768.9456-.2256 1.032h-.1056a.5137.5137 0 0 0-.2592.2664l-.0264.0528h.0456a.9754.9754 0 0 0 .24.0288.5329.5329 0 0 0 .4176-.1944 1.274 1.274 0 0 0 .2928-.48 2.0659 2.0659 0 0 1 .7176-.9696h.0024zm-.2976-2.64a.216.216 0 1 0-.216-.216.216.216 0 0 0 .2136.204l.0024.012zm-.072.5448h1.9008a.144.144 0 0 0 0-.288H11.712a.144.144 0 0 0 0 .288zM12 3.9408c-4.451.0053-8.0549 3.6178-8.0496 8.0688s3.6178 8.0549 8.0688 8.0496c4.4472-.0053 8.0496-3.612 8.0496-8.0592.0013-4.4496-3.6047-8.0579-8.0544-8.0592H12zM6.912 17.6976a7.6295 7.6295 0 0 1-2.4936-4.7832H6.912v4.7832zm0-6.6672H4.4256a7.6154 7.6154 0 0 1 2.4864-4.728v4.728zm7.5576 8.2104a7.6538 7.6538 0 0 1-5.6736-.3024v-6.024h2.16a2.4478 2.4478 0 0 1 .1488-1.884H8.7912V5.0616a7.6514 7.6514 0 0 1 6.8952.24.5568.5568 0 0 1-.2952 1.0296h-.96a.72.72 0 0 0-.5064.1608c-.2664.228-.1752.5016-.72.5016h-1.5024c.182.3579.4531.6629.7872.8856h1.8456a.1776.1776 0 0 1 .1776.1752.1452.1452 0 0 1 0 .0336.18.18 0 0 1-.1752.1488H12.48a1.6656 1.6656 0 0 0-.7848.96h3.3768a.4008.4008 0 1 1 0 .7992h-1.716c-1.1837 0-2.1432.9595-2.1432 2.1432s.9595 2.1432 2.1432 2.1432h2.1408a.168.168 0 0 1 .1656.168.1632.1632 0 0 1-.1632.1632h-2.196c-.8669 0-1.5696.7027-1.5696 1.5696 0 .8669.7027 1.5696 1.5696 1.5696h.8304a.7728.7728 0 0 1 .7632.7656.84.84 0 0 1-.4272.7224zM17.7264 6.924c2.8027 3.1571 2.5154 7.9885-.6418 10.7912a7.6431 7.6431 0 0 1-1.9382 1.2544l-.0264.0144h.024c.6415-.3053.9141-1.0728.6089-1.7143a1.2864 1.2864 0 0 0-1.1609-.7337h-1.3536a.1656.1656 0 0 1 0-.3312h2.2872c1.077-.0378 1.9194-.9415 1.8816-2.0184-.0359-1.0239-.8577-1.8457-1.8816-1.8816h-2.208a.1656.1656 0 0 1 0-.3312h1.68c1.7801.0123 3.2331-1.4208 3.2454-3.2009A3.2225 3.2225 0 0 0 17.7 6.96v-.012a.0217.0217 0 0 1 .024-.024s-.0024-.0072.0024 0zm-5.0568-1.5192a.216.216 0 1 0-.216-.216.216.216 0 0 0 .216.216zm7.2864 2.0088l.3096-.168.5088.9792.3504-.1896-.5088-.9792.2976-.1608.732 1.4088.3504-.1896-1.0152-1.9488a.4204.4204 0 0 1-.1632.1896l-1.452.7872 1.008 1.9344.348-.1896-.7656-1.4736zm-15.7224-.432L3.5808 8.28 2.244 7.5792l-.276.552a.4791.4791 0 0 1 .0912 0 .3532.3532 0 0 1 .1536.0312l1.4928.78.8856-1.764-.3576-.1968zm9.3048-1.5768a.216.216 0 1 0 .0004-.432h-.0004a.216.216 0 1 0-.0004.432h.0004z"/></svg>