<svg role="img" viewBox="0 0 24 24" xmlns="http://www.w3.org/2000/svg"><title>Algolia</title><path d="M12 0C5.446 0 .104 5.284.01 11.816c-.097 6.633 5.285 12.13 11.919 12.168a11.91 11.91 0 0 0 5.774-1.442.28.28 0 0 0 .052-.457l-1.122-.994a.79.79 0 0 0-.833-.14 9.69 9.69 0 0 1-3.922.769c-5.36-.066-9.692-4.526-9.606-9.886C2.356 6.54 6.688 2.262 12 2.262h9.729v17.294l-5.52-4.905a.407.407 0 0 0-.596.063 4.52 4.52 0 0 1-3.933 1.792 4.538 4.538 0 0 1-4.192-4.167A4.53 4.53 0 0 1 12 7.467a4.531 4.531 0 0 1 4.508 4.125c.018.206.11.398.265.534l1.438 1.275a.28.28 0 0 0 .462-.158c.103-.554.14-1.132.099-1.725-.232-3.376-2.967-6.092-6.344-6.3-3.873-.24-7.11 2.79-7.213 6.588-.1 3.7 2.931 6.891 6.633 6.973a6.75 6.75 0 0 0 4.134-1.294l7.213 6.394a.48.48 0 0 0 .797-.36V.456A.456.456 0 0 0 23.536 0z"/></svg>