<svg role="img" viewBox="0 0 24 24" xmlns="http://www.w3.org/2000/svg"><title>AliasVault</title><path d="M24 14.522c.001.31.002.62-.02.97-.063.363-.068.699-.151 1.013-.627 2.385-2.11 3.992-4.444 4.792-.414.142-.86.194-1.291.287q-2.037.005-4.073.007c-2.686 0-5.372-.001-8.097-.025-.494-.115-.963-.163-1.402-.306a6.4 6.4 0 0 1-3.085-2.158c-.588-.741-1.01-1.56-1.223-2.483-.085-.367-.142-.741-.212-1.112-.003-.33-.006-.66.016-1.028.239-2.468 1.59-4.115 3.651-5.294v-.154c.002-.565-.075-1.143.021-1.692a5.8 5.8 0 0 1 1.365-2.86c.695-.794 1.52-1.377 2.506-1.724.448-.158.927-.232 1.392-.345.424-.001.85-.003 1.312.019.24.055.447.072.646.12a5.94 5.94 0 0 1 2.613 1.386c.13.117.25.38.552.222.968-.508 1.995-.666 3.08-.494a4.9 4.9 0 0 1 2.541 1.186 5.4 5.4 0 0 1 1.459 2.139c.364.945.597 1.905.35 2.837.456.513.907.96 1.287 1.46a5.5 5.5 0 0 1 1.043 2.343zm-4.113 4.08c.32-.3.69-.563.948-.91.602-.803.824-1.718.649-2.725a3.47 3.47 0 0 0-.99-1.9c-.733-.727-1.659-1.069-2.688-1.066-4.017.01-8.033.032-12.05.055-.915.005-1.676.426-2.28 1.051-.83.859-1.172 1.916-.957 3.124.131.732.472 1.364.986 1.876.764.761 1.729 1.072 2.8 1.071 3.407 0 6.815.003 10.223-.002.551-.001 1.102-.05 1.653-.051.612-.002 1.148-.22 1.706-.523M6.932 14.41c.9.252 1.185 1.32.592 2.01-.305.354-.851.477-1.395.29-.406-.141-.708-.596-.74-1.03-.06-.836.638-1.332 1.248-1.325.09.001.18.036.295.055m3.7.037c.451.137.686.472.777.866.107.462-.025.902-.41 1.213-.39.314-.83.395-1.298.181-.477-.218-.737-.623-.732-1.117.01-.833.812-1.457 1.663-1.143m1.976 1.46c-.143-.828.27-1.298.839-1.5.568-.2 1.331.198 1.509.792.267.896-.412 1.67-1.245 1.618-.49-.03-.988-.374-1.103-.91m4.328.824c-.518-.244-.88-.824-.794-1.245.177-.861.766-1.167 1.322-1.125.612.045 1.03.425 1.136 1.008.112.622-.237 1.145-.775 1.361-.303.122-.58.087-.889.001"/></svg>