<svg role="img" viewBox="0 0 24 24" xmlns="http://www.w3.org/2000/svg"><title>AliExpress icon</title><path d="M6.613 12.96h1.912v.501H6.112V9.624h2.275v.501H6.613v1.166h1.576v.476H6.613v1.193zm4.271-2.254l-.778 1.01-.778-1.01h-.582l1.062 1.378-1.062 1.378h.581l.778-1.01.778 1.01h.581l-1.062-1.378 1.062-1.378h-.58zm10.462 1.377a1.002 1.002 0 0 0-.291-.151 2.796 2.796 0 0 0-.35-.092 2.998 2.998 0 0 1-.264-.059 1.328 1.328 0 0 1-.225-.083.476.476 0 0 1-.154-.11.219.219 0 0 1-.056-.151c0-.063.017-.12.05-.169a.419.419 0 0 1 .127-.121.584.584 0 0 1 .175-.071.81.81 0 0 1 .229-.023c.24.009.451.131.58.314l.367-.247a1.152 1.152 0 0 0-.947-.492c-.136 0-.263.018-.385.053s-.233.087-.332.154a.76.76 0 0 0-.237.255.702.702 0 0 0-.089.356.69.69 0 0 0 .08.35.646.646 0 0 0 .213.222c.089.057.193.104.311.139.119.035.243.067.374.095.075.016.148.034.219.054a.76.76 0 0 1 .19.08c.055.034.1.074.133.121.033.048.05.109.05.184a.346.346 0 0 1-.053.193.442.442 0 0 1-.142.133.648.648 0 0 1-.198.077.889.889 0 0 1-.92-.338l-.371.289a1.44 1.44 0 0 0 1.089.5c.134-.003.263-.018.39-.049.132-.032.251-.082.356-.151a.777.777 0 0 0 .252-.27.804.804 0 0 0 .095-.403.785.785 0 0 0-.071-.35.651.651 0 0 0-.195-.239zm2.583.237a.675.675 0 0 0-.196-.237 1.002 1.002 0 0 0-.291-.151 2.796 2.796 0 0 0-.35-.092 2.998 2.998 0 0 1-.264-.059 1.328 1.328 0 0 1-.225-.083.491.491 0 0 1-.154-.11.216.216 0 0 1-.056-.151c0-.063.017-.119.05-.169s.076-.09.127-.121a.595.595 0 0 1 .175-.071.81.81 0 0 1 .229-.023.74.74 0 0 1 .58.314v-.001l.366-.246-.001-.001.001-.001a1.157 1.157 0 0 0-.947-.491h-.006c-.13 0-.257.018-.379.054a1.175 1.175 0 0 0-.332.154.76.76 0 0 0-.237.255.702.702 0 0 0-.089.356.69.69 0 0 0 .08.35.656.656 0 0 0 .213.222c.089.057.193.104.311.139.119.036.243.067.373.095.075.016.148.034.219.053.071.02.134.047.19.08.055.034.1.074.133.121.034.047.05.108.05.184a.346.346 0 0 1-.053.193.432.432 0 0 1-.142.133.639.639 0 0 1-.198.077 1.05 1.05 0 0 1-.199.024v-.001h-.005a.884.884 0 0 1-.715-.362l-.371.289a1.44 1.44 0 0 0 1.089.5v-.001c.134-.001.263-.017.39-.047.132-.032.251-.082.356-.151a.786.786 0 0 0 .252-.27.79.79 0 0 0 .097-.404.782.782 0 0 0-.071-.35zm-8.48-1.621h-.491v2.763h.491V12.08a.97.97 0 0 1 .966-.969v-.493c-.368 0-.706.139-.966.366v-.285zM3.737 13.462h.491V9.625h-.491v3.837zm-1.758-3.84l1.473 3.84h-.481l-.354-.922H.835l-.354.922H0l1.473-3.84h.506zm.445 2.413l-.698-1.82-.698 1.82h1.396zm2.496 1.427h.491v-2.74H4.92v2.74zm14.231-2.044c.067.16.102.329.102.504l-.003.4h-2.24a1.015 1.015 0 0 0 .97.762.98.98 0 0 0 .738-.346l.363.291a1.445 1.445 0 0 1-1.094.513h-.017a1.48 1.48 0 0 1-1.46-1.469v-.007a1.434 1.434 0 0 1 .884-1.326 1.46 1.46 0 0 1 .558-.113h.007a1.272 1.272 0 0 1 .912.38c.121.119.215.257.28.411zm-.389.444a.822.822 0 0 0-.819-.754.954.954 0 0 0-.6.21.976.976 0 0 0-.341.545h1.76zm-4.161.224a1.46 1.46 0 0 1-1.459 1.459 1.453 1.453 0 0 1-.969-.453v1.813h-.491v-2.833a1.46 1.46 0 0 1 2.919.014zm-.499.003a.961.961 0 1 0-1.92 0 .96.96 0 1 0 1.92 0zM5.9 9.837a.716.716 0 0 1-.713-.718c.003-.029-.043-.031-.043-.002 0 .396-.32.718-.713.718-.027-.001-.027.043 0 .043.393 0 .713.322.713.718 0 .028.043.028.043 0A.717.717 0 0 1 5.9 9.88c.028 0 .028-.043 0-.043z"/></svg>