<svg role="img" viewBox="0 0 24 24" xmlns="http://www.w3.org/2000/svg"><title>AliExpress icon</title><path d="M18.874 11.007a1.287 1.287 0 0 0-.912-.38h-.007a1.437 1.437 0 0 0-1.327.879 1.442 1.442 0 0 0-.116.56v.008a1.469 1.469 0 0 0 .893 1.35c.18.077.37.117.567.12h.008l.003-.001h.006a1.437 1.437 0 0 0 1.093-.513l-.363-.291a.998.998 0 0 1-.32.247.943.943 0 0 1-.419.098 1 1 0 0 1-.965-.744l-.004-.018h2.239l.003-.4a1.288 1.288 0 0 0-.38-.915zm-1.87.855l.003-.018a.956.956 0 0 1 .613-.682.97.97 0 0 1 .323-.055.823.823 0 0 1 .818.738l.001.016h-1.759zm-3.747-1.23l-.03-.002a1.46 1.46 0 0 0-1.546 1.442v2.832h.491v-1.812c.246.258.583.427.96.453h.01a1.46 1.46 0 0 0 .115-2.913zm.846 1.495a.96.96 0 1 1-1.92-.075.96.96 0 1 1 1.92.037v.038zm-7.49.833h1.912v.502H6.112V9.624h2.275v.502H6.612v1.166h1.576v.477H6.613v1.191zm4.852-2.254l-1.062 1.378 1.062 1.378h-.581l-.779-1.01-.778 1.01h-.581l1.062-1.378-1.062-1.378h.581l.779 1.01.778-1.01h.58zm10.077 1.614a.776.776 0 0 1 .07.35.802.802 0 0 1-.094.403.788.788 0 0 1-.252.27 1.101 1.101 0 0 1-.356.15 1.84 1.84 0 0 1-.39.05 1.44 1.44 0 0 1-1.09-.5l.372-.29a.889.889 0 0 0 .92.34.646.646 0 0 0 .198-.078.44.44 0 0 0 .142-.133.34.34 0 0 0 .053-.193.312.312 0 0 0-.05-.183.445.445 0 0 0-.134-.122.748.748 0 0 0-.19-.08 3.425 3.425 0 0 0-.219-.053 4.753 4.753 0 0 1-.373-.095 1.219 1.219 0 0 1-.311-.14.651.651 0 0 1-.214-.222.681.681 0 0 1-.08-.349c0-.134.03-.253.089-.356a.766.766 0 0 1 .237-.255c.099-.067.21-.118.332-.154.122-.035.249-.053.385-.053.391 0 .737.194.947.492l-.367.247a.743.743 0 0 0-.616-.314.814.814 0 0 0-.193.023.598.598 0 0 0-.175.072c-.051.031-.094.072-.127.121s-.05.106-.05.17c0 .058.018.109.056.15a.491.491 0 0 0 .154.11c.065.031.14.06.225.083.085.023.173.043.264.06.123.023.24.053.35.09.11.039.208.089.29.152a.666.666 0 0 1 .197.237zm2.458.35a.8.8 0 0 1-.095.403.785.785 0 0 1-.252.27 1.101 1.101 0 0 1-.356.15c-.127.03-.256.047-.39.048v.001a1.44 1.44 0 0 1-1.09-.5l.372-.288c.16.22.422.362.716.362h.005a1.02 1.02 0 0 0 .199-.023.651.651 0 0 0 .198-.078.435.435 0 0 0 .142-.133c.036-.053.053-.117.053-.193s-.016-.136-.05-.183a.441.441 0 0 0-.133-.122.758.758 0 0 0-.19-.08 3.572 3.572 0 0 0-.22-.053 4.693 4.693 0 0 1-.373-.095c-.118-.035-.222-.082-.311-.14s-.16-.13-.214-.221a.685.685 0 0 1-.08-.35c0-.134.03-.253.09-.356a.767.767 0 0 1 .236-.254c.1-.068.21-.12.332-.155.123-.035.249-.053.38-.053h.005c.392 0 .738.194.947.49l-.001.002h.001l-.366.246v.002a.742.742 0 0 0-.617-.315.828.828 0 0 0-.192.023.6.6 0 0 0-.175.072.412.412 0 0 0-.128.121.293.293 0 0 0-.05.169c0 .06.018.11.056.151.037.042.09.078.154.11.065.032.14.06.226.083.085.024.173.043.264.059.122.024.239.054.35.092.11.037.207.088.29.151a.67.67 0 0 1 .196.237.775.775 0 0 1 .071.35zm-8.551-1.686c.26-.227.597-.366.965-.366v.492a.968.968 0 0 0-.965.97v1.382h-.491v-2.763h.49v.285zM3.737 9.624h.491v3.838h-.49V9.625zm-2.264-.002L0 13.462h.48l.355-.922h1.782l.354.922h.481l-1.473-3.84h-.506zm-.445 2.413l.698-1.82.698 1.82H1.028zm3.892-1.313h.491v2.74h-.49v-2.74zm1.001-.864c0 .012-.009.022-.02.022a.717.717 0 0 0-.714.715c0 .012-.01.021-.021.021s-.022-.01-.022-.021a.716.716 0 0 0-.713-.718.021.021 0 0 1-.021-.02c0-.013.01-.022.021-.022a.716.716 0 0 0 .713-.718.021.021 0 0 1 .037-.015c.004.004.006.01.006.015v.002c0 .396.32.718.713.718.012 0 .021.01.021.021z"/></svg>