<svg role="img" viewBox="0 0 24 24" xmlns="http://www.w3.org/2000/svg"><title>Alipay</title><path d="M19.694 15.07c3.427 1.157 4.204 1.22 4.204 1.22V3.844c0-2.124-1.705-3.845-3.81-3.845H3.914C1.808 0 .102 1.721.102 3.845v16.31C.102 22.278 1.808 24 3.914 24h16.174c2.105 0 3.81-1.722 3.81-3.845v-.157s-6.19-2.602-9.315-4.118c-2.096 2.602-4.8 4.18-7.608 4.18-4.748 0-6.36-4.19-4.112-6.949.49-.601 1.324-1.175 2.618-1.497 2.024-.501 5.247.313 8.266 1.318.543-1.01 1-2.12 1.34-3.304H5.783v-.95h4.798V6.972H4.769v-.95h5.811V3.59s0-.41.411-.41h2.346v2.842h5.745v.95h-5.745v1.704h4.69a19.453 19.453 0 0 1-1.986 5.06c1.423.52 2.701 1.011 3.653 1.333M5.886 13.037c-.595.06-1.71.325-2.321.869-1.83 1.609-.735 4.55 2.967 4.55 2.151 0 4.302-1.388 5.99-3.61-2.401-1.182-4.437-2.028-6.636-1.809"/></svg>