<svg role="img" viewBox="0 0 24 24" xmlns="http://www.w3.org/2000/svg"><title>Allen Solly</title><path d="M20.1649 9.8678c.6508-.2775.852-1.2063.8496-2.0371 0-.6557-.1143-1.1924-.1114-1.1924a.2534.2534 0 0 1 .1906-.2942.2496.2496 0 0 1 .3014.1934c0 .013.119.5818.119 1.2932-.0024.876-.1641 2.1854-1.14 2.651-.7516.3466-1.2144.3888-1.5288.4656-.252.0634-.4368.1325-.7512.4469-.4684.6696-1.029 1.3363-1.7092 2.0131.1056-.0077.217-.0105.333-.0211 1.4866-.1032 2.2863-.3038 2.7063-.5472.4157-.2515.5136-.516.6691-.9504a.2376.2376 0 0 1 .3125-.1608.253.253 0 0 1 .1613.3173c-.1402.4392-.4574.9816-1.0162 1.3017-.55.3168-1.2825.6375-2.8012.7407-.6264.037-1.0345.143-1.333.24-.0135 0-.0211.0058-.0346.011-.2721.2304-.5664.4685-.8654.7066.9974-.3043 2.3549-.5683 3.6192-.336 0 0-.55 1.6642-1.4549 1.9493-.9043.2808-1.2778.265-1.5422.3024-.264.0365-1.1036.0681-.96 1.0632.145.9921.1584 1.717-.1748 2.2853-.336.5716-.6768.9417-.7459 1.4208-.0715.479-.0931.709-.0931 1.0291 0 .3888-.2592 1.2408-1.164 1.2408-.9043 0-1.1712-.852-1.1712-1.2408 0-.3202-.0163-.55-.0902-1.0291-.0692-.479-.4052-.8492-.7436-1.4208-.3389-.5684-.3173-1.2932-.18-2.2853.143-.995-.6878-1.0267-.9552-1.0632-.2669-.0375-.6374-.0216-1.5475-.3024-.9072-.2851-1.4496-1.9488-1.4496-1.9488 1.2648-.2328 2.6189.0312 3.6192.3355a28.6993 28.6993 0 0 1-.8626-.7066c-.0158-.0053-.0288-.0105-.0446-.0105-.2914-.0975-.6984-.2036-1.3282-.24-1.5216-.1037-2.2512-.4239-2.8017-.7412-.5583-.3201-.8703-.8625-1.0162-1.3017a.2558.2558 0 0 1 .1618-.3168c.1296-.048.2721.0206.3177.1608.1479.4339.2482.6984.6639.9499.4233.2434 1.2192.444 2.7033.5472.119.0106.2276.0134.336.0211-.6768-.6768-1.2408-1.3435-1.7064-2.0073-.3172-.315-.4996-.3893-.757-.4527-.312-.0768-.7742-.119-1.5263-.4656-.973-.4656-1.1343-1.775-1.1396-2.651 0-.7114.119-1.2802.119-1.2932a.2496.2496 0 0 1 .2962-.1934.2507.2507 0 0 1 .1988.2942c.0024 0-.1138.5367-.1138 1.1924 0 .8308.1982 1.7596.852 2.037.5606.2593.973.2569 1.3042.2915-.7042-1.3177-1.0608-2.5873-1.2384-3.7753-.2146-.9048-.683-1.4102-1.2063-2.0952-.6163-.8361-.7459-2.6558-.757-2.6745-.0182-.1402.0874-.2564.2257-.278.1368-.0105.264.0956.2721.2276 0 .0029.0418.4526.1507.984.1008.5318.2856 1.1539.5108 1.4366.2294.3043.4708.598.6926.9283C3.8688 2.0347 5.2685.1252 5.2843.1012a.2472.2472 0 0 1 .3519-.048.2496.2496 0 0 1 .0561.3466s-.085.1113-.2145.336a7.8063 7.8063 0 0 0-.4896.9681c-.3466.8362-.7037 2.0295-.7037 3.4522 0 .072 0 .1435.0082.2146.3168-.7296.8803-1.5025 1.6027-1.8754.6936-.3413 1.1482-1.225 1.2778-1.609.0374-.1267.0557-.1925.0557-.1925a.2544.2544 0 0 1 .299-.1881.2578.2578 0 0 1 .1934.3096c-.0192.0158-.3024 1.3805-1.4865 1.9973-.9792.4761-1.847 2.0184-1.5005 3.6744 0 .0873.0053.1718.0211.2433H4.753c.6322 1.778 1.9575 3.746 4.3008 5.7831a5.1696 5.1696 0 0 1-.121-1.1189c0-.286.0236-.4656.0236-.4737a.2573.2573 0 0 1 .2856-.217c.1353.024.2328.1483.2117.2832 0 0-.0188.1478-.0188.4075 0 .5314.323 1.4208.9898 2.2138.3495.2702.72.5294 1.106.7992.156-.0394.3143-.0658.4703-.0658.1488 0 .3125.0264.4608.0658a25.2351 25.2351 0 0 0 1.1136-.7992c.6663-.7935.9893-1.6824.9893-2.2138 0-.2592-.024-.408-.024-.408a.2592.2592 0 0 1 .2146-.2827.262.262 0 0 1 .2856.217c0 .0077.024.1876.024.4737a5.184 5.184 0 0 1-.1215 1.1184c2.3458-2.0366 3.6663-4.0046 4.2985-5.7773v-.0048a1.16 1.16 0 0 0 .024-.2438c.3408-1.656-.5213-3.1983-1.5-3.6744-1.1856-.6168-1.4736-1.9815-1.4866-1.9973a.2563.2563 0 0 1 .1848-.3096.2453.2453 0 0 1 .2986.1881l.0638.1925c.1296.384.5846 1.2672 1.272 1.609.7258.373 1.2864 1.1453 1.6114 1.8754.0029-.071.0029-.143.0029-.2146 0-1.4227-.3543-2.616-.7085-3.4522-.1752-.4176-.3523-.7483-.4848-.9681-.1296-.2247-.2112-.336-.2112-.336a.2486.2486 0 0 1 .0528-.3466.2496.2496 0 0 1 .3547.048c.01.024 1.4122 1.9334 1.4918 4.8115.2194-.3302.4604-.624.6956-.9283.2222-.2832.4075-.9048.5107-1.4366.1056-.5314.1478-.9812.1478-.9812a.2587.2587 0 0 1 .275-.2304c.1326.0216.2358.1378.2228.278h.0048c-.013.0187-.1483 1.8384-.767 2.6745-.5209.685-.9865 1.1904-1.2039 2.09a11.2748 11.2748 0 0 1-1.235 3.7805c.3307-.0346.7401-.0322 1.3065-.2914z"/></svg>