<svg role="img" viewBox="0 0 24 24" xmlns="http://www.w3.org/2000/svg"><title>AlliedModders icon</title><path d="M.603 1.077A.615.615 0 0 0 0 1.692v20.616a.615.615 0 0 0 .615.615h8.308a.615.615 0 0 0 .615-.615V20.56l.648 1.941a.615.615 0 0 0 .583.421h6.77a.615.615 0 0 0 .585-.427l.035-.108a.615.615 0 0 0 .61.535h4.616a.615.615 0 0 0 .615-.615V8.154a.615.615 0 0 0-.447-.592l-4.307-1.23a.615.615 0 0 0-.744.37l-1.887 4.906v-5.55a.615.615 0 0 0-.444-.59l-3.384-.982a.615.615 0 0 0-.787.591v6.148L9.192 3.746a.615.615 0 0 0-.408-.376l-8-2.27a.615.615 0 0 0-.181-.023zm.012.615l8 2.27 4 10.653V5.077L16 6.058v8.865l3.077-8 4.308 1.23v14.155h-4.616v-2.462h1.846V12.77l-3.077 9.539H10.77L6.154 8.462v11.077h2.77v2.769H.614zM6.77 12.253l2.225 6.675a.615.615 0 0 0-.07-.005H6.768zM20 16.683v2.548h-.822"/></svg>