<svg role="img" viewBox="0 0 24 24" xmlns="http://www.w3.org/2000/svg"><title>Alteryx icon</title><path d="M2.3533,13.6924a1.78,1.78,0,0,1-1.1317.391A1.0288,1.0288,0,0,1,.0178,13.0545a1.1214,1.1214,0,0,1,1.0288-1.3169c.36-.0514.72,0,1.0906-.072h.1749v-.9568c0-.0514-.0823-.1235-.144-.144a2.2634,2.2634,0,0,0-1.214-.072l-.2366.0206c-.2058,0-.2778,0-.3292-.2984s.0926-.2161.2161-.2469a3.5186,3.5186,0,0,1,2.0577.144.37.37,0,0,1,.2675.4012v2.5c0,.34,0,.37.3807.3189a.35.35,0,0,1,.4938.4733.2263.2263,0,0,1-.1029.1337,1.1523,1.1523,0,0,1-1.0288.0514A1.5844,1.5844,0,0,1,2.3533,13.6924Zm0-1.533a4.3055,4.3055,0,0,0-1.1009.0926c-.36.0926-.4527.1955-.4733.5247a1.5227,1.5227,0,0,0,0,.2778.4321.4321,0,0,0,.4115.4321A1.6153,1.6153,0,0,0,2.22,13.2706a.2161.2161,0,0,0,.1029-.144c.0206-.3087.01-.6173.01-.9671Zm8.6834,0a6.1731,6.1731,0,0,0,.1235.73.8025.8025,0,0,0,.8745.5761,6.3891,6.3891,0,0,0,1.0288-.1235c.1749,0,.2778,0,.3292.1749s.072.35-.1337.4321a2.6441,2.6441,0,0,1-1.821.072,1.42,1.42,0,0,1-.9465-1.0288,3.2511,3.2511,0,0,1,.0617-2.0577A1.5947,1.5947,0,0,1,12.6056,10q.06.0225.1184.05a1.3786,1.3786,0,0,1,.8025,1.3066v.5761c0,.1955-.072.2366-.2366.2366h-2.284Zm1.7284-.5041c0-.4012,0-.8025-.3189-1.0288a.8231.8231,0,0,0-.926,0,1.1271,1.1271,0,0,0-.4424,1.0288Zm5.1442-1.0288c-.1955-.5453-.0617-.463-.6585-.463-.2469,0-.2675,0-.1749.2675.391,1.0288.7613,2.0577,1.1729,3.0865a1.0288,1.0288,0,0,1,0,.8745c-.2675.5967-.463.72-1.1111.679h-.1749a1.1729,1.1729,0,0,0,0,.4424c0,.0514.1646.1235.2572.1235a1.4507,1.4507,0,0,0,1.5638-.8745c.0514-.1235.1132-.2366.1543-.36l1.3272-3.7964c.1852-.4938.1955-.4424-.3087-.4527a.2778.2778,0,0,0-.3189.2263c-.2675.7511-.535,1.5021-.8128,2.2532l-.1337.36c-.2469-.8128-.4836-1.5947-.7819-2.3766Zm5.1442,3.0865a.607.607,0,0,0,.71.3807L24,14.0319a1.0288,1.0288,0,0,0-.0823-.2366c-.34-.5247-.679-1.0288-1.0288-1.5535a.2469.2469,0,0,1,0-.3292q.4424-.6687.8745-1.3478a1.8931,1.8931,0,0,0,.1235-.3087l-.34-.0617a.4424.4424,0,0,0-.4938.2572c-.2058.35-.4321.6687-.6687,1.0288-.2058-.3189-.4321-.5967-.5967-.9157a.607.607,0,0,0-.71-.37c-.0617,0-.1646,0-.1852.072a.5556.5556,0,0,0,0,.1852c.3087.4836.6173.9671.9362,1.4507a.2778.2778,0,0,1,0,.36q-.4836.71-.9362,1.42a2.2532,2.2532,0,0,0-.1543.35l.3807.0617a.4424.4424,0,0,0,.4938-.2675c.2263-.3807.4733-.7408.73-1.142a3.7535,3.7535,0,0,1,.7408.998ZM7.24,10.0915a.1852.1852,0,0,0-.2161.2058v.1543c0,.0514.0617.2572.2469.2469h.35v2.4692a.8436.8436,0,0,0,.7.8436,1.8519,1.8519,0,0,0,1.1317-.072c.2058-.072.2263-.1646.1337-.4321s-.1543-.2058-.3189-.144A1.0288,1.0288,0,0,1,9,13.4146c-.4424,0-.6276-.1235-.6379-.5659V10.6882h.7716c.2469,0,.2572,0,.2572-.3189s0-.2572-.2572-.2572H8.372V8.826a.2572.2572,0,0,0-.1337-.1955c-.2058,0-.5659.2778-.5761.4938s0,.6276,0,.9774ZM5.4295,8.7334c0-.34,0-.5247-.4424-.2675a.5659.5659,0,0,0-.3189.535v3.6729a4.4549,4.4549,0,0,0,0,.5967.8231.8231,0,0,0,.5967.72,1.8313,1.8313,0,0,0,1.2243-.0617c.1852-.072.2058-.1749.1132-.4424s-.1543-.1749-.2984-.1235a1.3581,1.3581,0,0,1-.3087.0617.4938.4938,0,0,1-.6173-.4938,2.1914,2.1914,0,0,1,0-.2366V10.7294C5.4192,10.0606,5.4192,9.3919,5.4295,8.7334Zm9.4653,1.43h-.1235c-.2572,0-.2881,0-.2881.2881V13.785c0,.2572,0,.2984.2984.2984h.0823c.3292,0,.35,0,.35-.34V11.3261a.3189.3189,0,0,1,0-.1852.8642.8642,0,0,1,.8539-.391c.1646,0,.2366,0,.2469-.1852s0-.1029,0-.1543c0-.2469,0-.2881-.2469-.3087a1.142,1.142,0,0,0-.9157.4012C15.1829,10.1841,15.1211,10.1635,14.8948,10.1635Z"/></svg>