<svg role="img" viewBox="0 0 24 24" xmlns="http://www.w3.org/2000/svg"><title>Alteryx icon</title><path d="M2.59 14.69a1.73 1.73 0 01-1.1.38 1 1 0 01-1.17-1 1.09 1.09 0 011-1.28c.35-.05.7 0 1.06-.07h.17v-.93c0-.05-.08-.12-.14-.14a2.2 2.2 0 00-1.18-.07L1 11.6c-.2 0-.27 0-.32-.29s.09-.21.21-.24a3.42 3.42 0 012 .14.36.36 0 01.26.39v2.43c0 .33 0 .36.37.31a.34.34 0 01.48.46.22.22 0 01-.1.13 1.12 1.12 0 01-1 .05 1.54 1.54 0 01-.31-.29zm0-1.49c-.38 0-.72 0-1.07.09s-.44.19-.46.51a1.48 1.48 0 000 .27.42.42 0 00.4.42 1.57 1.57 0 001-.21.21.21 0 00.1-.14c.02-.3.01-.6.01-.94zm8.44 0a6 6 0 00.12.71.78.78 0 00.85.56 6.21 6.21 0 001-.12c.17 0 .27 0 .32.17s.07.34-.13.42a2.57 2.57 0 01-1.77.07 1.38 1.38 0 01-.92-1 3.16 3.16 0 01.06-2 1.55 1.55 0 012.11-.86 1.34 1.34 0 01.78 1.27v.56c0 .19-.07.23-.23.23H11zm1.68-.49c0-.39 0-.78-.31-1a.8.8 0 00-.9 0c-.38.23-.41.63-.43 1zm5-1c-.19-.53-.06-.45-.64-.45-.24 0-.26 0-.17.26.38 1 .74 2 1.14 3a1 1 0 010 .85c-.26.58-.45.7-1.08.66h-.17a1.14 1.14 0 000 .43c0 .05.16.12.25.12a1.41 1.41 0 001.52-.85c.05-.12.11-.23.15-.35L20 11.69c.18-.48.19-.43-.3-.44a.27.27 0 00-.31.22c-.26.73-.52 1.46-.79 2.19l-.13.35c-.24-.79-.47-1.55-.76-2.31zm5 3a.59.59 0 00.69.37l.23-.06a1 1 0 00-.08-.23c-.33-.51-.66-1-1-1.51a.24.24 0 010-.32q.43-.65.85-1.31a1.84 1.84 0 00.12-.3l-.33-.06a.43.43 0 00-.48.25c-.2.34-.42.65-.65 1-.2-.31-.42-.58-.58-.89a.59.59 0 00-.69-.36c-.06 0-.16 0-.18.07s0 .13 0 .18c.3.47.6.94.91 1.41a.27.27 0 010 .35q-.47.69-.91 1.38a2.19 2.19 0 00-.15.34l.37.06a.43.43 0 00.48-.26c.22-.37.46-.72.71-1.11.31.29.54.63.72.97zM7.34 11.19a.18.18 0 00-.21.2v.15c0 .05.06.25.24.24h.34v2.4a.82.82 0 00.68.82 1.8 1.8 0 001.1-.07c.2-.07.22-.16.13-.42s-.15-.2-.31-.14a1 1 0 01-.26.05c-.43 0-.61-.12-.62-.55V12v-.23h.75c.24 0 .25 0 .25-.31s0-.25-.25-.25h-.74V9.96a.25.25 0 00-.13-.19c-.2 0-.55.27-.56.48s0 .61 0 .95zM5.58 9.87c0-.33 0-.51-.43-.26a.55.55 0 00-.31.52v3.57a4.33 4.33 0 000 .58.8.8 0 00.58.7 1.78 1.78 0 001.19-.06c.18-.07.2-.17.11-.43s-.15-.17-.29-.12a1.32 1.32 0 01-.3.06.48.48 0 01-.6-.48 2.13 2.13 0 010-.23v-1.91c.04-.65.04-1.3.05-1.94zm9.2 1.39h-.12c-.25 0-.28 0-.28.28v3.24c0 .25 0 .29.29.29h.08c.32 0 .34 0 .34-.33v-2.35a.31.31 0 010-.18.84.84 0 01.83-.38c.16 0 .23 0 .24-.18s0-.1 0-.15c0-.24 0-.28-.24-.3a1.11 1.11 0 00-.89.39c.03-.31-.03-.33-.25-.33z"/></svg>