<svg role="img" viewBox="0 0 24 24" xmlns="http://www.w3.org/2000/svg"><title>Altium Designer icon</title><path d="M19.091 6.307v11.44c0 .15-.04.3-.12.43-.07.14-.18.25-.31.32l-9.09 5.38a.787.787 0 01-.84 0l-3.42-2.01c-.07-.04-.13-.08-.19-.13a.728.728 0 01-.21-.48v-6.77c0-.16.04-.31.11-.45s.18-.25.31-.33l6.42-3.93c.03-.01.06-.01.08-.01.04 0 .07 0 .09.01.03.02.05.04.06.07.02.03.03.06.03.09v3.95c0 .03-.01.07-.03.09-.01.03-.04.05-.06.07l-3.25 1.97v4.2l6.49-3.85c.13-.07.23-.18.3-.32.08-.13.12-.28.12-.43v-7.27c0-.15-.04-.3-.12-.43a.837.837 0 00-.3-.32l-6.48-3.84v3.86c0 .03-.01.05-.03.08-.02.03-.04.05-.07.07l-3.39 1.96c-.03.02-.06.03-.09.03s-.06-.01-.09-.03c-.03-.02-.05-.03-.07-.07-.01-.02-.03-.05-.02-.09v-6.86a.718.718 0 01.28-.55l3.45-2.04c.13-.08.28-.12.42-.12.15 0 .3.04.42.12l9.17 5.44c.14.07.24.18.31.31.08.14.12.279.12.44z"/></svg>