<?xml version="1.0" encoding="UTF-8" standalone="no"?>
<svg
   xmlns:dc="http://purl.org/dc/elements/1.1/"
   xmlns:cc="http://creativecommons.org/ns#"
   xmlns:rdf="http://www.w3.org/1999/02/22-rdf-syntax-ns#"
   xmlns:svg="http://www.w3.org/2000/svg"
   xmlns="http://www.w3.org/2000/svg"
   xmlns:sodipodi="http://sodipodi.sourceforge.net/DTD/sodipodi-0.dtd"
   xmlns:inkscape="http://www.inkscape.org/namespaces/inkscape"
   id="svg55"
   version="1.2"
   viewBox="0 0 24 24"
   height="24"
   width="24"
   role="img"
   sodipodi:docname="altmetric.svg"
   inkscape:version="0.92.2 5c3e80d, 2017-08-06">
  <sodipodi:namedview
     pagecolor="#ffffff"
     bordercolor="#666666"
     borderopacity="1"
     objecttolerance="10"
     gridtolerance="10"
     guidetolerance="10"
     inkscape:pageopacity="0"
     inkscape:pageshadow="2"
     inkscape:window-width="1139"
     inkscape:window-height="704"
     id="namedview26"
     showgrid="false"
     inkscape:zoom="0.8"
     inkscape:cx="64.881356"
     inkscape:cy="7.9322034"
     inkscape:window-x="0"
     inkscape:window-y="0"
     inkscape:window-maximized="0"
     inkscape:current-layer="svg55" />
  <title
     id="title2">Altmetric icon</title>
  <metadata
     id="metadata61">
    <rdf:RDF>
      <cc:Work
         rdf:about="">
        <dc:format>image/svg+xml</dc:format>
        <dc:type
           rdf:resource="http://purl.org/dc/dcmitype/StillImage" />
        <dc:title />
      </cc:Work>
    </rdf:RDF>
  </metadata>
  <defs
     id="defs59">
    <clipPath
       id="clipPath1029"
       clipPathUnits="userSpaceOnUse">
      <rect
         y="151.50394"
         x="72.097649"
         height="240.57812"
         width="240.57812"
         id="rect1031"
         style="fill:#ffffff;fill-opacity:1;stroke:none;stroke-width:1.00240886;stroke-miterlimit:10;stroke-dasharray:none;stroke-dashoffset:0;stroke-opacity:1" />
    </clipPath>
  </defs>
  <g
     transform="matrix(0.13333333,0,0,0.13333333,4.3764453e-8,-7.9999972)"
     id="g1157">
    <path
       id="path22"
       d="m 121.76626,203.16294 c 3.30259,-5.96513 5.62317,-12.54985 6.76008,-19.53205 -8.66273,9.91654 -21.08982,16.4545 -35.054234,17.38974 -0.01167,0.009 -0.02334,0.0175 -0.03509,0.0263 -5.716702,4.11509 -11.991626,7.1108 -18.514975,8.99298 -20.458531,5.89791 -43.40131,0.81543 -59.525553,-15.31174 -1.639605,-1.63961 -3.156459,-3.34935 -4.562252,-5.12048 0.172436,0.34195 0.344872,0.6839 0.523154,1.02293 10.515683,20.31532 28.668246,36.03331 50.661166,43.35746 2.247519,0.26012 4.533023,0.39457 6.850685,0.39457 22.790806,0 42.594659,-12.60538 52.896989,-31.21972"
       style="fill:#ffffff;fill-opacity:1;fill-rule:nonzero;stroke:none;stroke-width:0.74819767"
       inkscape:connector-curvature="0" />
    <path
       id="path24"
       d="m 121.76626,203.16294 c 3.30259,-5.96512 5.62317,-12.54985 6.76008,-19.53205 -8.66272,9.91654 -21.08982,16.4545 -35.054227,17.38975 -0.01169,0.009 -0.02338,0.0175 -0.03507,0.0263 -5.716698,4.11509 -11.991622,7.1108 -18.51497,8.99299 -20.458531,5.8979 -43.401311,0.81542 -59.525555,-15.31175 -1.6396,-1.6396 -3.156459,-3.34935 -4.562247,-5.12048 0.172429,0.34195 0.344867,0.6839 0.523147,1.02293 10.515687,20.31532 28.668242,36.03332 50.661167,43.35747 2.247516,0.26012 4.533026,0.39456 6.850685,0.39456 22.790804,0 42.59466,-12.60538 52.89699,-31.21972 z m 0,0"
       style="fill:none;stroke:#211e1e;stroke-width:2.9927907;stroke-linecap:butt;stroke-linejoin:bevel;stroke-miterlimit:10;stroke-opacity:1"
       inkscape:connector-curvature="0" />
    <path
       id="path26"
       d="m 38.979348,153.46624 c -0.07599,-1.14567 -0.116906,-2.30012 -0.116906,-3.46625 0,-12.87427 4.758074,-24.63792 12.61415,-33.62798 0.006,-0.0351 0.0088,-0.0701 0.01459,-0.1023 0.01751,-0.10229 0.03509,-0.20751 0.0526,-0.3098 0.06135,-0.35072 0.122749,-0.69851 0.187049,-1.0463 0.01459,-0.0789 0.02925,-0.15783 0.04676,-0.23674 0.07599,-0.40625 0.157824,-0.80665 0.24258,-1.20998 0.003,-0.006 0.003,-0.0146 0.006,-0.0204 5.015266,-23.600366 23.571153,-42.279006 47.288436,-46.905556 5.956343,-1.05508 12.044223,-1.29474 18.076563,-0.7219 -8.62473,-2.80574 -17.831064,-4.32259 -27.39104,-4.32259 -14.239138,0 -27.69501,3.36689 -39.616485,9.3437 -1.765283,1.40288 -3.472109,2.9168 -5.108791,4.55348 -21.27979,21.27688 -23.33149,54.422616 -6.29538,78.072676"
       style="fill:#ffffff;fill-opacity:1;fill-rule:nonzero;stroke:none;stroke-width:0.74819767"
       inkscape:connector-curvature="0" />
    <path
       id="path28"
       d="m 38.97935,153.46624 c -0.07599,-1.14567 -0.116906,-2.30012 -0.116906,-3.46626 0,-12.87426 4.75807,-24.63791 12.614146,-33.62798 0.0058,-0.0351 0.0088,-0.0701 0.01461,-0.10229 0.01754,-0.10229 0.03507,-0.20751 0.05261,-0.3098 0.06137,-0.35072 0.122752,-0.69851 0.187049,-1.04631 0.01461,-0.0789 0.02922,-0.15782 0.04676,-0.23673 0.07599,-0.40625 0.157823,-0.80665 0.24258,-1.20998 0.0029,-0.006 0.0029,-0.0146 0.0058,-0.0204 5.015262,-23.600376 23.57115,-42.279016 47.288432,-46.905566 5.956349,-1.05507 12.044229,-1.29473 18.076569,-0.7219 -8.62473,-2.80574 -17.831066,-4.32259 -27.391046,-4.32259 -14.239137,0 -27.695005,3.36689 -39.616483,9.3437 -1.765279,1.40288 -3.472105,2.91681 -5.108788,4.55349 -21.279782,21.27687 -23.331481,54.422606 -6.29537,78.072666 z m 0,0"
       style="fill:none;stroke:#211e1e;stroke-width:2.9927907;stroke-linecap:butt;stroke-linejoin:bevel;stroke-miterlimit:10;stroke-opacity:1"
       inkscape:connector-curvature="0" />
    <path
       id="path30"
       d="m 36.848743,181.77208 c 5.962201,3.29675 12.541073,5.61441 19.517433,6.74839 -9.91362,-8.66272 -16.451581,-21.08982 -17.386828,-35.05423 -17.03611,-23.65006 -14.984409,-56.795796 6.295381,-78.075586 1.636682,-1.63377 3.343508,-3.14769 5.108791,-4.55057 -0.2192,0.11106 -0.438399,0.2192 -0.657599,0.33318 -20.48483,10.48646 -36.346038,28.72378 -43.7111092,50.845296 -0.2601161,2.24752 -0.39748,4.53595 -0.39748,6.85653 0,22.7908 12.6112232,42.59466 31.2314112,52.89699"
       style="fill:#ffffff;fill-opacity:1;fill-rule:nonzero;stroke:none;stroke-width:0.74819767"
       inkscape:connector-curvature="0" />
    <path
       id="path32"
       d="m 36.84874,181.77208 c 5.9622,3.29675 12.541079,5.61441 19.517439,6.74839 -9.91362,-8.66272 -16.451583,-21.08982 -17.38683,-35.05423 -17.03611,-23.65006 -14.984412,-56.795796 6.295383,-78.075596 1.636682,-1.63375 3.343508,-3.14769 5.108787,-4.55056 -0.219198,0.11107 -0.438397,0.2192 -0.657595,0.33318 -20.484835,10.48647 -36.346041,28.72378 -43.7111126,50.845296 -0.2601161,2.24751 -0.39748,4.53595 -0.39748,6.85653 0,22.7908 12.6112226,42.59466 31.2314086,52.89699 z m 0,0"
       style="fill:none;stroke:#211e1e;stroke-width:2.9927907;stroke-linecap:butt;stroke-linejoin:bevel;stroke-miterlimit:10;stroke-opacity:1"
       inkscape:connector-curvature="0" />
    <path
       id="path34"
       d="m 74.922062,210.03993 c 6.523349,-1.88219 12.798274,-4.8779 18.514976,-8.99299 0.01167,-0.009 0.02334,-0.0175 0.03509,-0.0263 -1.148596,0.076 -2.303042,0.11984 -3.472101,0.11984 -12.877186,0 -24.643762,-4.761 -33.633829,-12.62 -6.97636,-1.13398 -13.555232,-3.45164 -19.517432,-6.75131 C 18.2315,171.46972 5.6173543,151.66586 5.6173543,128.87214 c 0,-2.31766 0.1373638,-4.60609 0.39748,-6.85361 -0.1169059,0.35072 -0.2338118,0.70143 -0.3448728,1.05508 -2.7092934,8.49321 -4.1735403,17.5388 -4.1735403,26.92635 0,14.23913 3.3639672,27.69208 9.3378578,39.61063 1.405794,1.76821 2.922648,3.47795 4.562253,5.11756 16.124243,16.12717 39.067022,21.20965 59.525553,15.31175"
       style="fill:#ffffff;fill-opacity:1;fill-rule:nonzero;stroke:none;stroke-width:0.74819767"
       inkscape:connector-curvature="0" />
    <path
       id="path36"
       d="m 74.922067,210.03993 c 6.523348,-1.88219 12.798272,-4.8779 18.51497,-8.99299 0.0117,-0.009 0.02338,-0.0175 0.03507,-0.0263 -1.1486,0.076 -2.303046,0.11983 -3.472105,0.11983 -12.877184,0 -24.643761,-4.76099 -33.633824,-12.61999 -6.97636,-1.13399 -13.555239,-3.45165 -19.517439,-6.75131 -18.617265,-10.29942 -31.2314106,-30.10328 -31.2314106,-52.897 0,-2.31766 0.1373646,-4.60609 0.39748,-6.85361 -0.1169059,0.35072 -0.2338117,0.70143 -0.3448727,1.05508 -2.7092935,8.49321 -4.1735403,17.5388 -4.1735403,26.92634 0,14.23914 3.3639672,27.69208 9.3378586,39.61064 1.405793,1.7682 2.922647,3.47795 4.562252,5.11755 16.124249,16.12717 39.06703,21.20966 59.525561,15.31176 z m 0,0"
       style="fill:none;stroke:#211e1e;stroke-width:2.9927907;stroke-linecap:butt;stroke-linejoin:bevel;stroke-miterlimit:10;stroke-opacity:1"
       inkscape:connector-curvature="0" />
    <path
       id="path38"
       d="m 169.16867,110.39519 c -1.40579,-1.7682 -2.92264,-3.48087 -4.56225,-5.11756 -16.11548,-16.115466 -39.03196,-21.203796 -59.47879,-15.326346 -6.549659,1.8851 -12.845039,4.89542 -18.582197,9.02805 1.142753,-0.076 2.294281,-0.11691 3.454571,-0.11691 12.877186,0 24.637916,4.758076 33.627976,12.611226 6.98221,1.13399 13.56401,3.45749 19.52621,6.76008 18.61726,10.29941 31.22849,30.10327 31.22556,52.897 0.003,2.32058 -0.13444,4.60901 -0.39455,6.85944 0.1432,-0.42962 0.28349,-0.86217 0.42086,-1.29472 2.66253,-8.42308 4.09755,-17.38976 4.09755,-26.69546 0,-14.23622 -3.36105,-27.68625 -9.33494,-39.6048"
       style="fill:#ffffff;fill-opacity:1;fill-rule:nonzero;stroke:none;stroke-width:0.74819767"
       inkscape:connector-curvature="0" />
    <path
       id="path40"
       d="m 169.16867,110.39519 c -1.40579,-1.7682 -2.92264,-3.48087 -4.56225,-5.11756 -16.11548,-16.115466 -39.03195,-21.203796 -59.47879,-15.326356 -6.549656,1.88511 -12.845038,4.89544 -18.582195,9.02806 1.142752,-0.076 2.294281,-0.11691 3.454571,-0.11691 12.877184,0 24.637914,4.758066 33.627974,12.611226 6.98221,1.13398 13.56401,3.45749 19.52621,6.76008 18.61726,10.29941 31.22849,30.10327 31.22556,52.89699 0.003,2.32058 -0.13444,4.60902 -0.39455,6.85945 0.14321,-0.42962 0.28349,-0.86218 0.42086,-1.29473 2.66253,-8.42307 4.09755,-17.38975 4.09755,-26.69546 0,-14.23621 -3.36104,-27.68624 -9.33494,-39.60479 z m 0,0"
       style="fill:none;stroke:#211e1e;stroke-width:2.9927907;stroke-linecap:butt;stroke-linejoin:bevel;stroke-miterlimit:10;stroke-opacity:1"
       inkscape:connector-curvature="0" />
    <path
       id="path42"
       d="m 99.314482,66.540874 c -23.717283,4.62655 -42.27317,23.30519 -47.288436,46.905556 -0.003,0.006 -0.003,0.0146 -0.006,0.0204 -0.08476,0.40333 -0.166594,0.80373 -0.242581,1.20998 -0.01459,0.0789 -0.03217,0.15782 -0.04676,0.23674 -0.06427,0.34779 -0.125675,0.69558 -0.187049,1.0463 -0.01751,0.10229 -0.03509,0.20751 -0.0526,0.3098 -0.006,0.0322 -0.0088,0.0672 -0.01459,0.1023 8.665648,-9.91947 21.098591,-16.460346 35.068841,-17.392676 5.737158,-4.13263 12.032538,-7.14295 18.582193,-9.02805 20.44684,-5.87745 43.36332,-0.78912 59.4788,15.326346 1.6396,1.63669 3.15646,3.34936 4.56225,5.11756 -0.21627,-0.42963 -0.43547,-0.85926 -0.6576,-1.28304 -10.53907,-20.195496 -28.64194,-35.817036 -50.5501,-43.106126 -0.18997,-0.0614 -0.37995,-0.12567 -0.56992,-0.18705 -6.03235,-0.57284 -12.12022,-0.33317 -18.076574,0.7219"
       style="fill:#ffffff;fill-opacity:1;fill-rule:nonzero;stroke:none;stroke-width:0.74819767"
       inkscape:connector-curvature="0" />
    <path
       id="path44"
       d="m 99.314481,66.540874 c -23.717283,4.62655 -42.273171,23.30519 -47.288433,46.905566 -0.0029,0.006 -0.0029,0.0146 -0.0058,0.0204 -0.08476,0.40333 -0.166591,0.80373 -0.24258,1.20998 -0.01461,0.0789 -0.03215,0.15782 -0.04676,0.23673 -0.0643,0.3478 -0.125674,0.69559 -0.187049,1.04631 -0.01754,0.1023 -0.03507,0.20751 -0.05261,0.3098 -0.0058,0.0322 -0.0088,0.0672 -0.01461,0.1023 8.66565,-9.91947 21.098591,-16.460346 35.068845,-17.392676 5.737156,-4.13262 12.032538,-7.14295 18.582196,-9.02806 20.44684,-5.87744 43.36332,-0.78911 59.47879,15.326366 1.63961,1.63668 3.15646,3.34935 4.56226,5.11755 -0.21628,-0.42963 -0.43548,-0.85926 -0.6576,-1.28304 -10.53907,-20.195486 -28.64194,-35.817036 -50.55011,-43.106116 -0.18997,-0.0614 -0.37994,-0.12568 -0.56991,-0.18705 -6.03235,-0.57284 -12.12022,-0.33319 -18.07658,0.72189 z m 0,0"
       style="fill:none;stroke:#211e1e;stroke-width:2.9927907;stroke-linecap:butt;stroke-linejoin:bevel;stroke-miterlimit:10;stroke-opacity:1"
       inkscape:connector-curvature="0" />
    <path
       id="path46"
       d="m 150.00779,164.97271 c -1.88802,-6.49705 -4.88374,-12.74274 -8.98714,-18.43606 0.0789,1.14567 0.11983,2.30012 0.11983,3.46334 0,12.87718 -4.76099,24.64083 -12.61706,33.6309 -1.13399,6.9822 -3.45457,13.56692 -6.75716,19.53205 -10.30233,18.61434 -30.103274,31.21972 -52.896997,31.21972 -2.317662,0 -4.603167,-0.13445 -6.850685,-0.39457 0.315649,0.10522 0.628366,0.20752 0.946941,0.30981 8.522436,2.72975 17.606027,4.20569 27.034485,4.20569 14.236216,0 27.689156,-3.36105 39.604786,-9.33494 1.77113,-1.40579 3.48088,-2.92264 5.11756,-4.56225 16.15932,-16.15347 21.23303,-39.14886 15.28544,-59.63369"
       style="fill:#ffffff;fill-opacity:1;fill-rule:nonzero;stroke:none;stroke-width:0.74819767"
       inkscape:connector-curvature="0" />
    <path
       id="path48"
       d="m 150.0078,164.97271 c -1.88803,-6.49705 -4.88375,-12.74274 -8.98714,-18.43606 0.0789,1.14568 0.11982,2.30012 0.11982,3.46334 0,12.87718 -4.76099,24.64084 -12.61706,33.6309 -1.13399,6.9822 -3.45457,13.56693 -6.75716,19.53205 -10.30234,18.61434 -30.103271,31.21972 -52.896998,31.21972 -2.317655,0 -4.603167,-0.13444 -6.850685,-0.39456 0.315649,0.10522 0.628373,0.20751 0.946941,0.3098 8.522436,2.72976 17.606024,4.20569 27.034485,4.20569 14.236217,0 27.689157,-3.36104 39.604797,-9.33493 1.77112,-1.4058 3.48087,-2.92265 5.11755,-4.56226 16.15932,-16.15347 21.23303,-39.14886 15.28545,-59.63369 z m 0,0"
       style="fill:none;stroke:#211e1e;stroke-width:2.9927907;stroke-linecap:butt;stroke-linejoin:bevel;stroke-miterlimit:10;stroke-opacity:1"
       inkscape:connector-curvature="0" />
    <path
       id="path50"
       d="m 143.15419,118.23373 c -5.9622,-3.30259 -12.544,-5.62609 -19.52621,-6.76008 9.91946,8.66273 16.46035,21.09566 17.39267,35.063 4.1034,5.69332 7.09912,11.93901 8.98714,18.43606 5.94759,20.48483 0.87388,43.48022 -15.28252,59.63369 -1.6396,1.63961 -3.34935,3.15646 -5.12048,4.56225 0.61084,-0.30688 1.21875,-0.6196 1.82082,-0.93817 19.92661,-10.57413 35.33188,-28.53965 42.55959,-50.24031 0.26011,-2.25043 0.39748,-4.53886 0.39455,-6.85944 0.003,-22.79373 -12.6083,-42.59759 -31.22556,-52.897"
       style="fill:#ffffff;fill-opacity:1;fill-rule:nonzero;stroke:none;stroke-width:0.74819767"
       inkscape:connector-curvature="0" />
    <path
       id="path52"
       d="m 143.15419,118.23373 c -5.9622,-3.30259 -12.544,-5.6261 -19.52621,-6.76008 9.91947,8.66272 16.46035,21.09567 17.39268,35.063 4.10339,5.69331 7.09911,11.93901 8.98714,18.43606 5.94758,20.48483 0.87387,43.48022 -15.28253,59.63369 -1.6396,1.63961 -3.34935,3.15646 -5.12047,4.56225 0.61083,-0.30688 1.21874,-0.6196 1.8208,-0.93817 19.92661,-10.57413 35.33189,-28.53965 42.55959,-50.2403 0.26012,-2.25044 0.39748,-4.53887 0.39456,-6.85946 0.003,-22.79372 -12.6083,-42.59758 -31.22556,-52.89699 z m 0,0"
       style="fill:none;stroke:#211e1e;stroke-width:2.9927907;stroke-linecap:butt;stroke-linejoin:bevel;stroke-miterlimit:10;stroke-opacity:1"
       inkscape:connector-curvature="0" />
  </g>
</svg>
