<svg role="img" viewBox="0 0 24 24" xmlns="http://www.w3.org/2000/svg"><title>Amazon Route 53</title><path d="M15.715 12.29c.316.292.474.684.474 1.174 0 .535-.192.962-.576 1.281-.384.319-.902.478-1.55.478-.513 0-1.02-.11-1.522-.327v-.655c.594.198 1.102.295 1.522.295.413 0 .733-.093.957-.278.222-.185.335-.45.335-.794 0-.66-.417-.99-1.252-.99-.261 0-.52.014-.777.041v-.54l1.718-1.874h-2.42v-.67h3.328v.646l-1.685 1.784a.414.414 0 0 1 .082-.008h.081c.54 0 .968.146 1.285.437m-4.752-.143c.332.31.5.74.5 1.285 0 .534-.195.967-.582 1.296-.388.33-.898.495-1.53.495-.556 0-1.076-.11-1.561-.327v-.655c.605.197 1.122.295 1.553.295.414 0 .732-.094.953-.282.22-.189.332-.46.332-.814 0-.387-.104-.669-.311-.843-.208-.174-.546-.262-1.015-.262-.338 0-.76.028-1.267.082v-.54L8.19 9.43h2.985v.67H8.877l-.107 1.661c.3-.054.57-.082.81-.082.59 0 1.05.156 1.383.467m6.141 5.965c-2.069.373-3.883 1.213-5.104 1.9-1.221-.687-3.035-1.527-5.105-1.9-.579-.104-3.466-.705-3.466-2.362 0-.772.278-1.285.81-2.201.643-1.108 1.442-2.486 1.442-4.475 0-1.41-.368-2.765-1.096-4.032l.23-.283C7.225 5.953 9.923 5.792 12 4.48c2.078 1.312 4.775 1.474 7.185.28l.23.283c-.728 1.267-1.097 2.622-1.097 4.032 0 1.99.8 3.367 1.443 4.475.532.916.809 1.43.809 2.201 0 1.657-2.886 2.258-3.466 2.362m2.135-9.038c0-1.342.379-2.63 1.126-3.828a.463.463 0 0 0-.033-.535l-.67-.824a.459.459 0 0 0-.581-.114c-1.047.579-2.141.873-3.248.873-1.337 0-2.506-.36-3.57-1.098a.463.463 0 0 0-.525 0c-1.066.739-2.234 1.098-3.57 1.098-1.108 0-2.202-.294-3.25-.873a.457.457 0 0 0-.58.114l-.67.824a.462.462 0 0 0-.033.535C4.382 6.444 4.76 7.732 4.76 9.074c0 1.741-.73 3-1.318 4.012-.578.998-.934 1.66-.934 2.664 0 2.33 3.234 3.091 4.224 3.269 2.073.372 3.883 1.25 5.036 1.923a.455.455 0 0 0 .464 0c1.153-.672 2.963-1.55 5.035-1.923.991-.178 4.224-.939 4.224-3.269 0-1.004-.355-1.666-.933-2.664-.588-1.011-1.319-2.27-1.319-4.012m-1.692 11.508c-2.604.468-4.79 1.861-5.547 2.389-.757-.528-2.943-1.92-5.548-2.389C5.154 20.35.92 19.312.92 15.75c0-1.482.583-2.488 1.148-3.46.543-.936 1.103-1.902 1.103-3.216 0-2.047-1.167-3.5-1.765-4.11.624-.758 2.136-2.601 2.905-3.59 1.165 1.09 2.518 1.684 3.855 1.684 1.486 0 2.716-.6 3.833-1.88 1.117 1.28 2.347 1.88 3.833 1.88 1.337 0 2.69-.595 3.855-1.684.768.989 2.281 2.832 2.905 3.59-.599.61-1.765 2.063-1.765 4.11 0 1.314.56 2.28 1.103 3.215.564.973 1.148 1.98 1.148 3.461 0 3.562-4.234 4.6-5.532 4.832m5.18-8.755c-.525-.906-.979-1.688-.979-2.753 0-2.243 1.747-3.696 1.766-3.71a.464.464 0 0 0 .064-.652c-.028-.034-2.83-3.43-3.47-4.309A.46.46 0 0 0 19.4.36c-1.07 1.145-2.337 1.776-3.566 1.776-1.359 0-2.428-.606-3.467-1.965a.477.477 0 0 0-.733 0c-1.04 1.36-2.108 1.965-3.466 1.965-1.23 0-2.495-.63-3.566-1.776a.475.475 0 0 0-.365-.144.459.459 0 0 0-.344.187c-.64.88-3.442 4.275-3.47 4.31a.463.463 0 0 0 .065.65c.018.015 1.765 1.454 1.765 3.711 0 1.065-.454 1.847-.98 2.753C.676 12.855 0 14.019 0 15.75c0 2.886 2.35 5.031 6.289 5.739 2.944.53 5.406 2.397 5.43 2.415a.46.46 0 0 0 .562 0c.024-.018 2.486-1.886 5.43-2.415C21.65 20.78 24 18.636 24 15.75c0-1.73-.676-2.895-1.273-3.923"/></svg>