<svg role="img" viewBox="0 0 24 24" xmlns="http://www.w3.org/2000/svg"><title>Amazon Lumberyard icon</title><path d="M23.927 12.123l-.153-.034c-.077-.017-.09-.01-.119.06a.593.593 0 01-.158.245c-.166.144-.374.08-.472-.063a.574.574 0 01-.088-.226c-.013-.075-.014-.09.016-.146a1.73 1.73 0 00.161-.423c.067-.287.107-.563.137-.868.017-.18.032-.361.036-.542.006-.256.017-.513-.026-.768a.919.919 0 00-.103-.32.383.383 0 00-.322-.2.46.46 0 00-.432.22 1.026 1.026 0 00-.138.333c-.047.183-.06.37-.066.557-.005.166.001.333.01.5.007.138.022.276.037.414.012.113.026.227.044.339.018.113-.013.132-.12.116a1.151 1.151 0 00-.885.236.843.843 0 00-.34.493c-.008.032-.006.072-.02.1a.76.76 0 01-.172.237.354.354 0 01-.286.09c-.103-.008-.153-.072-.19-.156a.768.768 0 01-.058-.29c0-.111.008-.222.01-.333a.33.33 0 00-.133-.272.539.539 0 00-.266-.103 1.874 1.874 0 00-.456.004c-.028.003-.036 0-.06-.023a.355.355 0 00-.336-.1.23.23 0 00-.18.186.21.21 0 00.082.227c.054.035.09.053.146.063.046.008.05.014.05.056-.002.06-.003.12-.01.18a.882.882 0 01-.096.332c-.074.136-.186.224-.34.23-.229.012-.395-.13-.424-.37-.008-.067-.007-.134-.008-.2v-.476c0-.06-.014-.078-.079-.078l-.172-.003c-.06-.001-.086.002-.09.07-.048-.018-.092-.043-.137-.058a1.08 1.08 0 00-.56-.03 1.162 1.162 0 00-.62.324c-.046.045-.086.098-.127.144a5.972 5.972 0 01-.378.384.07.07 0 01-.072.016c-.028-.012-.043-.03-.043-.064v-.652c0-.057-.018-.074-.073-.075a8.14 8.14 0 00-.22 0c-.043 0-.052 0-.052.044 0 .129-.01.214-.025.3-.03.177-.067.288-.143.427a.674.674 0 01-.192.232c-.12.087-.237.085-.355-.006a.669.669 0 01-.175-.21 1.495 1.495 0 01-.18-.713c0-.053-.02-.074-.07-.075a8.895 8.895 0 00-.232 0c-.05 0-.07.02-.072.072l-.01.17c-.01.15-.04.297-.093.44a.729.729 0 01-.167.28.266.266 0 01-.37.014.499.499 0 01-.126-.16 1.392 1.392 0 01-.144-.575c-.008-.206-.15-.331-.324-.367a.8.8 0 00-.316-.002c-.036.007-.064.007-.092-.03a.232.232 0 00-.172-.097.638.638 0 00-.132.002.283.283 0 00-.224.399c.03.065.08.115.146.146.064.03.072.044.04.115a1.144 1.144 0 01-1.16.666.563.563 0 01-.286-.11c-.062-.046-.112-.098-.127-.18-.004-.02 0-.047.015-.056.012-.007.04 0 .052.008.19.1.388.126.596.1a.67.67 0 00.394-.2.427.427 0 00-.05-.652.67.67 0 00-.562-.125.971.971 0 00-.743.628.618.618 0 00-.018.434c.067.19.202.32.38.406.218.106.455.12.69.082.35-.056.65-.213.886-.48.153-.17.257-.36.325-.577a.339.339 0 00.02-.106c0-.023.01-.026.034-.03.075-.008.137-.011.213-.01.042.002.072.023.076.063.012.139.03.26.057.382.043.188.117.355.242.506.2.242.545.3.79.15a.777.777 0 00.283-.307c.042-.082.105-.092.155-.002.06.108.142.2.242.275a.602.602 0 00.568.107.724.724 0 00.306-.195c.014-.014.038-.036.05-.05.004.108.004.117-.04.165-.185.197-.362.4-.51.626a2.734 2.734 0 00-.34.67c-.062.19-.092.384-.055.584a.709.709 0 00.347.51.5.5 0 00.4.049.55.55 0 00.33-.262c.033-.063.066-.137.09-.205.053-.158.076-.326.094-.496.014-.126.02-.273.026-.41.005-.134.002-.268.002-.402l.003-.526c0-.037-.003-.045.027-.077.106-.11.2-.204.3-.31.045-.047.09-.048.12.01a.669.669 0 00.304.288c.19.095.395.11.6.083.246-.032.457-.13.643-.294.052-.046.08-.042.126.013a.72.72 0 00.725.244.73.73 0 00.49-.366c.105-.177.14-.375.156-.576.003-.042.004-.087.004-.127 0-.041.027-.07.07-.072.072-.004.155-.004.228-.003a.65.65 0 01.132.013c.04.009.046.026.04.064-.005.052-.013.104-.013.155-.002.146.01.29.048.432a.8.8 0 00.137.294.526.526 0 00.412.203.693.693 0 00.531-.195c.042-.04.075-.04.12.005a.8.8 0 00.5.218c.22.022.433-.017.635-.11a1.12 1.12 0 00.34-.238c.048-.05.098-.048.141.02a.634.634 0 00.86.222.813.813 0 00.393-.507c.02-.066.003-.094-.065-.108zm-13.077-.43a.536.536 0 01.287-.101.324.324 0 01.243.07c.055.047.058.092.007.142a.359.359 0 01-.288.104.664.664 0 01-.233-.04c-.018-.007-.037-.014-.053-.024-.026-.015-.037-.033-.037-.053 0-.037.03-.066.074-.097zm4.723 2.248a2.44 2.44 0 01-.09.588c-.024.078-.06.184-.124.238-.08.068-.163.08-.252.003-.1-.08-.14-.182-.15-.315-.012-.197.05-.377.133-.552.096-.207.218-.392.357-.572.02-.027.043-.053.08-.042.032.01.055.034.056.072v.216c0 .066-.002.243-.01.364zm2.255-1.834a.612.612 0 01-.24.26.87.87 0 01-.456.14.621.621 0 01-.34-.08c-.085-.052-.143-.123-.15-.227a.312.312 0 01.068-.215.832.832 0 01.34-.27c.188-.075.391-.102.576-.03.107.043.198.11.227.224a.3.3 0 01-.025.198zm4.616.03a.657.657 0 01-.279.26.863.863 0 01-.402.11.606.606 0 01-.326-.073.311.311 0 01-.148-.16.097.097 0 01.003-.079c.054-.1.11-.203.174-.298a.528.528 0 01.32-.22.775.775 0 01.48.009c.113.043.197.113.223.24a.312.312 0 01-.045.21zm.431-1.157c-.016.126-.043.25-.066.375-.008.044-.036.069-.07.069-.033 0-.062-.022-.07-.065-.023-.118-.047-.237-.063-.356-.014-.111-.025-.213-.037-.32a5.156 5.156 0 01-.023-.352c-.003-.1-.01-.203-.007-.304.006-.197.011-.395.067-.586a.785.785 0 01.074-.18c.02-.035.05-.072.091-.08.04-.006.09.004.104.04.024.06.036.115.048.178.03.156.034.324.031.483a9.535 9.535 0 01-.079 1.098zm-12.962.629a.785.785 0 00-.57-.298 1.254 1.254 0 00-.502.059c-.058.019-.122-.004-.123-.065 0-.038.02-.154.033-.235.013-.08.026-.208.042-.39.016-.182.023-.365.034-.548.003-.047.005-.093.003-.14-.002-.094-.01-.187-.017-.28a1.181 1.181 0 00-.08-.36c-.132-.343-.47-.327-.66-.212a.586.586 0 00-.224.27c-.087.19-.107.402-.12.607-.008.1-.005.228-.006.329 0 .183.02.39.038.573.018.185.04.3.07.466.047.253.123.481.24.71a.118.118 0 01.006.097.646.646 0 01-.048.107c-.097.162-.338.276-.538.04a.748.748 0 01-.14-.303 1.894 1.894 0 00-.057-.18c-.06-.16-.144-.314-.286-.416-.15-.107-.316-.155-.494-.09a.612.612 0 00-.26.195c-.033.04-.056.08-.086.127-.038.058-.106.062-.144.005a.858.858 0 00-.243-.267.462.462 0 00-.274-.084.462.462 0 00-.277.093.765.765 0 00-.107.1c-.013-.051-.033-.087-.082-.088l-.174-.001c-.054 0-.098.022-.1.094a5.902 5.902 0 00-.002.133 1.933 1.933 0 01-.078.484.838.838 0 01-.121.26c-.067.098-.145.092-.208.028a.581.581 0 01-.096-.135c-.124-.234-.167-.46-.18-.75-.002-.07-.026-.112-.108-.114a3.129 3.129 0 00-.137 0 .112.112 0 00-.108.109c-.007.185-.05.372-.123.547a.695.695 0 01-.212.305c-.07.058-.113.084-.203.084a.303.303 0 01-.183-.075.672.672 0 01-.181-.227 1.462 1.462 0 01-.161-.64c-.001-.06-.041-.102-.096-.103h-.19c-.056 0-.07-.001-.07.065a3.349 3.349 0 01-.023.344c-.018.127-.045.24-.102.355a.522.522 0 01-.26.268.404.404 0 01-.345-.026 1.049 1.049 0 01-.281-.238.101.101 0 01-.007-.116c.1-.144.176-.29.245-.467.043-.11.083-.234.112-.376a6.16 6.16 0 00.072-.868 3.657 3.657 0 00-.014-.326 1.228 1.228 0 00-.098-.402c-.075-.158-.187-.29-.363-.322a.536.536 0 00-.441.104.64.64 0 00-.168.243 1.632 1.632 0 00-.114.597c-.008.196-.003.422.02.617.02.167.039.326.063.492.035.238.092.436.192.654.025.055.033.094-.01.136-.061.063-.124.132-.187.193a3.253 3.253 0 01-.562.436.081.081 0 00-.032.102c.023.054.06.115.089.168.027.05.073.053.122.028.045-.023.118-.077.166-.11.218-.145.406-.313.498-.405.04-.04.073-.07.097-.093.033-.033.088-.027.129.02.079.087.192.172.297.231a.719.719 0 00.585.075.793.793 0 00.432-.33c.064-.095.125-.092.189.007a.798.798 0 00.167.18.659.659 0 00.385.153.622.622 0 00.45-.158.967.967 0 00.18-.203c.029-.043.076-.06.115-.043.025.012.047.046.062.07a.95.95 0 00.184.216.44.44 0 00.555.043l.06-.044c.01.073.044.08.116.08.057.002.134 0 .19 0 .043 0 .043 0 .043-.035A2.155 2.155 0 015.233 12a.672.672 0 01.178-.281.16.16 0 01.103-.047c.056 0 .087.028.12.06a.547.547 0 01.105.14 1.766 1.766 0 01.17.812c0 .03.008.03.043.03l.3-.002c.028 0 .027 0 .027-.028a1.838 1.838 0 01.122-.693.743.743 0 01.178-.283c.055-.05.12-.05.184-.02a.335.335 0 01.095.078c.098.112.138.253.17.396.05.21.143.386.338.53a.651.651 0 00.814-.03c.037-.03.06-.05.084-.05a.21.21 0 01.026.002c.015.002.042.02.075.047a.802.802 0 00.477.19c.17.015.334-.006.496-.062.25-.086.457-.223.598-.453.142-.234.146-.514-.023-.727zm-8.813.026c-.05 0-.082-.007-.098-.058a2.224 2.224 0 01-.064-.302 8.359 8.359 0 01-.051-.465 4.63 4.63 0 01-.016-.425c0-.17.01-.348.064-.51a.461.461 0 01.092-.17c.06-.068.176-.069.24.037.052.083.072.17.082.266.014.126.019.246.019.379 0 .18-.011.365-.027.55a1.98 1.98 0 01-.156.61c-.017.039-.038.088-.085.088zm7.354-1.046a7.892 7.892 0 01-.098.726c-.013.07-.033.108-.078.108-.04 0-.078-.002-.095-.053a1.41 1.41 0 01-.052-.26 6.118 6.118 0 01-.044-.448 8.695 8.695 0 01-.013-.582c.002-.13.016-.285.056-.41a1.05 1.05 0 01.08-.186.133.133 0 01.122-.07c.034.003.053.007.074.067.023.065.04.127.05.195.02.155.017.253.018.374.002.188-.004.37-.02.539zm1.222 1.483a.548.548 0 01-.18.24.834.834 0 01-.412.18.71.71 0 01-.406-.038c-.1-.048-.18-.114-.194-.23a.34.34 0 01.05-.212.745.745 0 01.435-.32.784.784 0 01.26-.033.595.595 0 01.352.1c.11.078.133.194.095.313z"/></svg>