<svg viewBox="0 0 16 16" xmlns="http://www.w3.org/2000/svg" fill-rule="evenodd" clip-rule="evenodd" stroke-linejoin="round" stroke-miterlimit="1.414"><path d="M.03 12.015c.048-.078.125-.083.232-.015 2.424 1.406 5.062 2.11 7.913 2.11 1.9 0 3.777-.355 5.63-1.063l.21-.087c.092-.04.157-.068.196-.087.15-.058.26-.03.35.087.08.116.06.223-.08.32-.17.126-.4.272-.67.436-.83.495-1.76.878-2.79 1.15-1.02.27-2.03.407-3.01.407-1.51 0-2.94-.265-4.29-.793S1.17 13.207.1 12.247c-.07-.047-.1-.097-.1-.145 0-.03.01-.058.03-.087zM4.406 7.87c0-.67.165-1.242.495-1.717.33-.475.78-.834 1.36-1.077.53-.223 1.17-.383 1.94-.48.26-.03.69-.068 1.28-.116v-.247c0-.62-.07-1.038-.2-1.25-.2-.292-.52-.438-.96-.438H8.2c-.32.03-.597.13-.83.306-.233.18-.383.42-.45.73-.04.2-.137.31-.29.34l-1.68-.21c-.165-.04-.248-.12-.248-.26 0-.03.005-.06.015-.1.165-.86.57-1.5 1.214-1.92.65-.41 1.4-.65 2.26-.7h.36c1.1 0 1.97.29 2.59.86.09.1.18.2.27.32.08.11.15.21.19.3.05.09.1.22.13.38.04.17.07.28.09.34.02.07.04.2.05.41.01.21.02.33.02.37v3.52c0 .25.04.48.11.69.07.21.14.36.21.45l.34.45c.06.09.09.17.09.24 0 .08-.04.15-.12.21-.8.7-1.24 1.08-1.31 1.14-.11.09-.25.1-.42.03-.13-.11-.25-.22-.35-.33l-.21-.23c-.04-.05-.11-.14-.21-.28l-.2-.29c-.54.59-1.07.96-1.6 1.11-.33.1-.73.15-1.22.15-.74 0-1.36-.23-1.84-.69-.48-.46-.72-1.11-.72-1.96zm2.502-.292c0 .378.094.68.283.91.19.227.45.34.77.34.03 0 .07-.004.13-.013.06-.01.09-.015.11-.015.41-.107.72-.368.95-.785.11-.185.19-.386.24-.604.06-.21.08-.39.09-.53.01-.13.01-.36.01-.67v-.36c-.56 0-.99.04-1.28.12-.85.24-1.28.78-1.28 1.62zm6.108 4.684c.02-.04.05-.078.087-.117.243-.164.476-.276.7-.334.367-.09.726-.15 1.075-.16.097-.01.19 0 .276.02.437.04.7.11.786.22.04.06.058.15.058.26v.1c0 .34-.092.74-.276 1.2-.185.46-.442.83-.77 1.12-.05.04-.093.06-.132.06-.02 0-.04 0-.058-.01-.06-.03-.073-.08-.044-.16.36-.84.538-1.43.538-1.76 0-.1-.02-.18-.058-.23-.097-.11-.368-.17-.815-.17-.164 0-.358.01-.58.03-.244.03-.467.06-.67.09-.06 0-.097-.01-.117-.03-.02-.02-.024-.03-.014-.05 0-.01.004-.02.014-.04z" fill-rule="nonzero"/></svg>