<svg role="img" viewBox="0 0 24 24" xmlns="http://www.w3.org/2000/svg"><title>Amazon Organizations</title><path d="M20.146 23.041h2.896v-2.917h-2.896zm-9.624 0h2.955v-2.917h-2.955zm-9.564 0h2.916v-2.917H.958Zm22.563-3.876h-1.438v-2.398a.48.48 0 0 0-.479-.48h-9.105V14.37h-.958v1.918H2.436a.479.479 0 0 0-.479.48v2.397H.479a.479.479 0 0 0-.479.48v3.876c0 .264.214.479.48.479h3.873a.48.48 0 0 0 .48-.48v-3.876a.48.48 0 0 0-.48-.48H2.915v-1.917h8.626v1.918h-1.498a.48.48 0 0 0-.48.48v3.876c0 .264.215.479.48.479h3.913c.266 0 .48-.215.48-.48v-3.876a.479.479 0 0 0-.48-.48H12.5v-1.917h8.626v1.918h-1.458a.48.48 0 0 0-.48.48v3.876c0 .264.216.479.48.479h3.854a.48.48 0 0 0 .479-.48v-3.876a.48.48 0 0 0-.48-.48zM12.035.999l4.597 1.903-4.61 2.3-4.585-2.299Zm.478 11.135L12.5 6.035l4.807-2.398v5.646zM6.764 3.64l4.778 2.396.012 6.097-4.79-2.849Zm5.026 9.75a.49.49 0 0 0 .49 0l5.751-3.42a.481.481 0 0 0 .234-.412V2.862a.48.48 0 0 0-.295-.443L12.22.037a.477.477 0 0 0-.368 0l-5.75 2.382a.48.48 0 0 0-.296.443v6.695c0 .168.09.326.234.412z"/></svg>