<svg role="img" viewBox="0 0 24 24" xmlns="http://www.w3.org/2000/svg"><title>Amazon Simple Email Service</title><path d="M20.13 21c0 1.17-.96 2.13-2.13 2.13s-2.13-.96-2.13-2.13c0-1.02.75-1.89 1.71-2.1v-1.32h-5.16v2.19c.96.18 1.71 1.08 1.71 2.1 0 1.14-.96 2.13-2.13 2.13s-2.13-.99-2.13-2.13c0-1.02.75-1.92 1.71-2.1v-2.19H6.42v1.32c.96.21 1.71 1.08 1.71 2.1 0 1.17-.96 2.13-2.13 2.13S3.87 22.17 3.87 21c0-1.02.75-1.89 1.71-2.1v-1.77c0-.21.18-.42.42-.42h5.58v-2.58H6c-.24 0-.42-.18-.42-.42V6c0-.24.18-.42.42-.42h12c.24 0 .42.18.42.42v7.71c0 .24-.18.42-.42.42h-5.58v2.58H18c.24 0 .42.21.42.42v1.77c.96.21 1.71 1.08 1.71 2.1zm-6.84.87c0-.72-.57-1.29-1.29-1.29-.72 0-1.29.57-1.29 1.29 0 .69.57 1.26 1.29 1.26.72 0 1.29-.57 1.29-1.26zm-6-.87c0-.72-.57-1.29-1.29-1.29-.72 0-1.29.57-1.29 1.29 0 .72.57 1.29 1.29 1.29.72 0 1.29-.57 1.29-1.29zM24 12c0 2.52-.78 4.95-2.25 6.99l-.72-.48c1.38-1.92 2.1-4.17 2.1-6.51C23.13 5.85 18.15.87 12 .87S.87 5.85.87 12c0 2.34.72 4.59 2.1 6.51l-.72.48C.78 16.95 0 14.52 0 12 0 5.37 5.37 0 12 0s12 5.37 12 12ZM6.42 6.93v5.82l3.33-2.97Zm10.41-.51H7.14l4.83 4.14zm.75 6.33V6.93l-3.33 2.85ZM19.29 21c0-.72-.57-1.29-1.26-1.29-.72 0-1.29.57-1.29 1.29 0 .69.57 1.26 1.29 1.26.69 0 1.26-.57 1.26-1.26zM7.14 13.26h9.75l-3.27-2.94-1.32 1.14c-.09.06-.18.09-.27.09-.12 0-.21-.03-.3-.09l-1.32-1.14z"/></svg>