<svg role="img" viewBox="0 0 24 24" xmlns="http://www.w3.org/2000/svg"><title>Amazon SES</title><path d="m 20.13,21 c 0,1.17 -0.96,2.13 -2.13,2.13 -1.17,0 -2.13,-0.96 -2.13,-2.13 0,-1.02 0.75,-1.89 1.71,-2.1 v -1.32 h -5.16 v 2.19 c 0.96,0.18 1.71,1.08 1.71,2.1 0,1.14 -0.96,2.13 -2.13,2.13 -1.17,0 -2.13,-0.99 -2.13,-2.13 0,-1.02 0.75,-1.92 1.71,-2.1 V 17.58 H 6.42 v 1.32 c 0.96,0.21 1.71,1.08 1.71,2.1 0,1.17 -0.96,2.13 -2.13,2.13 -1.17,0 -2.13,-0.96 -2.13,-2.13 0,-1.02 0.75,-1.89 1.71,-2.1 v -1.77 c 0,-0.21 0.18,-0.42 0.42,-0.42 h 5.58 V 14.13 H 6 c -0.24,0 -0.42,-0.18 -0.42,-0.42 V 6 C 5.58,5.76 5.76,5.58 6,5.58 h 12 c 0.24,0 0.42,0.18 0.42,0.42 v 7.71 c 0,0.24 -0.18,0.42 -0.42,0.42 h -5.58 v 2.58 H 18 c 0.24,0 0.42,0.21 0.42,0.42 v 1.77 c 0.96,0.21 1.71,1.08 1.71,2.1 z m -6.84,0.87 c 0,-0.72 -0.57,-1.29 -1.29,-1.29 -0.72,0 -1.29,0.57 -1.29,1.29 0,0.69 0.57,1.26 1.29,1.26 0.72,0 1.29,-0.57 1.29,-1.26 z M 7.29,21 c 0,-0.72 -0.57,-1.29 -1.29,-1.29 -0.72,0 -1.29,0.57 -1.29,1.29 0,0.72 0.57,1.29 1.29,1.29 0.72,0 1.29,-0.57 1.29,-1.29 z M 24,12 c 0,2.52 -0.78,4.95 -2.25,6.99 L 21.03,18.51 C 22.41,16.59 23.13,14.34 23.13,12 23.13,5.85 18.15,0.87 12,0.87 5.85,0.87 0.87,5.85 0.87,12 c 0,2.34 0.72,4.59 2.1,6.51 L 2.25,18.99 C 0.78,16.95 0,14.52 0,12 0,5.37 5.37,0 12,0 18.63,0 24,5.37 24,12 Z M 6.42,6.93 v 5.82 L 9.75,9.78 Z M 16.83,6.42 H 7.14 l 4.83,4.14 z m 0.75,6.33 V 6.93 L 14.25,9.78 Z M 19.29,21 c 0,-0.72 -0.57,-1.29 -1.26,-1.29 -0.72,0 -1.29,0.57 -1.29,1.29 0,0.69 0.57,1.26 1.29,1.26 0.69,0 1.26,-0.57 1.26,-1.26 z M 7.14,13.26 h 9.75 l -3.27,-2.94 -1.32,1.14 c -0.09,0.06 -0.18,0.09 -0.27,0.09 -0.12,0 -0.21,-0.03 -0.3,-0.09 l -1.32,-1.14 z"/></svg>