<svg role="img" viewBox="0 0 24 24" xmlns="http://www.w3.org/2000/svg"><title>Amazon X-Ray</title><path d="M15.055 12.95957h-0.873v6.058h-1.746v-4.327h-0.872v4.327H9.818v-3.029h-0.873v3.03h-0.872v0.865h7.854v-0.866h-0.872z m3.49 3.246c0-3.46-2.838-6.275-6.327-6.275s-6.327 2.815-6.327 6.275c0 3.46 2.838 6.274 6.327 6.274s6.327-2.815 6.327-6.275z m0.873 0c0 3.937-3.23 7.14-7.2 7.14s-7.2-3.203-7.2-7.14 3.23-7.14 7.2-7.14 7.2 3.203 7.2 7.14zM24 11.43257c0 2.468-1.367 4.074-3.749 4.404l-0.12-0.858c1.367-0.189 2.996-0.958 2.996-3.546 0-2.43-1.853-3.31-3.407-3.619a0.432 0.432 0 0 1-0.35-0.4c-0.102-1.777-1.154-2.572-2.152-2.572-0.627 0-1.212 0.293-1.604 0.804a0.439 0.439 0 0 1-0.412 0.165 0.435 0.435 0 0 1-0.344-0.277c-0.354-0.947-0.877-1.772-1.514-2.387-1.675-1.62-3.967-2.06-6.13-1.176-1.797 0.731-3.205 2.834-3.205 4.789 0 0.22 0.014 0.437 0.04 0.649a0.432 0.432 0 0 1-0.328 0.473C2.657 8.14457 0.873 8.94857 0.873 11.39957c0 0.093 0.005 0.176 0.009 0.264 0.08 1.436 1.33 2.755 3.04 3.207l-0.225 0.837C1.627 15.15957 0.11 13.51657 0.01 11.70857a5.51 5.51 0 0 1-0.01-0.31c0-2.832 1.98-3.882 3.149-4.255a5.921 5.921 0 0 1-0.012-0.384c0-2.318 1.61-4.72 3.744-5.59 2.496-1.017 5.14-0.51 7.072 1.36A7.06 7.06 0 0 1 15.415 4.61257a2.861 2.861 0 0 1 1.803-0.637c1.34 0 2.747 0.95 2.994 3.06C22.66 7.62657 24 9.17657 24 11.43357Z"/></svg>