<svg role="img" viewBox="0 0 24 24" xmlns="http://www.w3.org/2000/svg"><title>Amazon X-Ray</title><path d="M15.055 13.147h-.873v6.058h-1.746v-4.327h-.872v4.327H9.818v-3.029h-.873v3.03h-.872v.865h7.854v-.866h-.872zm3.49 3.246c0-3.46-2.838-6.275-6.327-6.275s-6.327 2.815-6.327 6.275c0 3.46 2.838 6.274 6.327 6.274s6.327-2.815 6.327-6.275zm.873 0c0 3.937-3.23 7.14-7.2 7.14s-7.2-3.203-7.2-7.14 3.23-7.14 7.2-7.14 7.2 3.203 7.2 7.14zM24 11.62c0 2.468-1.367 4.074-3.749 4.404l-.12-.858c1.367-.189 2.996-.958 2.996-3.546 0-2.43-1.853-3.31-3.407-3.619a.432.432 0 0 1-.35-.4c-.102-1.777-1.154-2.572-2.152-2.572-.627 0-1.212.293-1.604.804a.439.439 0 0 1-.412.165.435.435 0 0 1-.344-.277c-.354-.947-.877-1.772-1.514-2.387-1.675-1.62-3.967-2.06-6.13-1.176-1.797.731-3.205 2.834-3.205 4.789 0 .22.014.437.04.649a.432.432 0 0 1-.328.473C2.657 8.332.873 9.136.873 11.587c0 .093.005.176.009.264.08 1.436 1.33 2.755 3.04 3.207l-.225.837C1.627 15.347.11 13.704.01 11.896a5.51 5.51 0 0 1-.01-.31c0-2.832 1.98-3.882 3.149-4.255a5.921 5.921 0 0 1-.012-.384c0-2.318 1.61-4.72 3.744-5.59 2.496-1.017 5.14-.51 7.072 1.36A7.06 7.06 0 0 1 15.415 4.8a2.861 2.861 0 0 1 1.803-.637c1.34 0 2.747.95 2.994 3.06C22.66 7.814 24 9.364 24 11.621Z"/></svg>