<svg role="img" viewBox="0 0 24 24" xmlns="http://www.w3.org/2000/svg"><title>Amazon Web Services</title><path d="M6.772 10.067a2.784 2.784 0 0 0 0.11 0.71l0.218 0.545a0.218 0.218 0 0 1 0.054 0.164c0 0.109-0.055 0.164-0.109 0.273l-0.546 0.328h-0.163a0.328 0.328 0 0 1-0.273-0.11 0.983 0.983 0 0 1-0.273-0.382 3.057 3.057 0 0 1-0.273-0.436 2.948 2.948 0 0 1-2.347 1.091 2.183 2.183 0 0 1-1.583-0.6 2.074 2.074 0 0 1-0.601-1.528 2.129 2.129 0 0 1 0.765-1.638 2.838 2.838 0 0 1 1.91-0.6h0.873l0.928 0.163V7.556a1.91 1.91 0 0 0-0.382-1.255A2.074 2.074 0 0 0 3.77 5.918l-0.873 0.11-0.873 0.273-0.273 0.109H1.641c-0.109 0-0.164-0.109-0.163-0.273v-0.382a0.382 0.382 0 0 1 0.054-0.273l0.219-0.164A4.094 4.094 0 0 1 2.733 4.991 4.967 4.967 0 0 1 3.989 4.827a3.002 3.002 0 0 1 2.128 0.655 2.675 2.675 0 0 1 0.655 1.965v2.62ZM3.552 11.268l0.819-0.164a2.293 2.293 0 0 0 0.764-0.491 1.692 1.692 0 0 0 0.273-0.546c0-0.164 0.055-0.382 0.054-0.655v-0.328l-0.709-0.163H3.989a1.856 1.856 0 0 0-1.201 0.327 1.146 1.146 0 0 0-0.382 0.928 1.146 1.146 0 0 0 0.273 0.819A1.146 1.146 0 0 0 3.552 11.268Zm6.386 0.873a0.328 0.328 0 0 1-0.273-0.109 0.491 0.491 0 0 1-0.218-0.328L7.591 5.536a0.983 0.983 0 0 1-0.054-0.327 0.164 0.164 0 0 1 0.163-0.164h1.092a0.873 0.873 0 0 1 0.164 0.328l1.364 5.294 1.256-5.294a0.437 0.437 0 0 1 0.109-0.328h1.31l0.164 0.328 1.255 5.349 1.365-5.349 0.164-0.328h1.037c0.164 0 0.218 0.055 0.218 0.164V5.373c0 0.055-0.055 0.109-0.054 0.163L15.178 11.759a0.328 0.328 0 0 1-0.163 0.273l-0.273 0.109H14.032a0.382 0.382 0 0 1-0.436-0.437l-1.256-5.13-1.255 5.13a0.437 0.437 0 0 1-0.11 0.328l-0.327 0.109Zm10.262 0.219a4.531 4.531 0 0 1-1.201-0.164l-0.928-0.328a0.6 0.6 0 0 1-0.272-0.218c0-0.055-0.055-0.164-0.055-0.218v-0.437a0.218 0.218 0 0 1 0.218-0.218h0.109l0.219 0.109 0.873 0.273 0.983 0.109a2.238 2.238 0 0 0 1.146-0.273 0.873 0.873 0 0 0 0.437-0.764 0.819 0.819 0 0 0-0.219-0.546 1.91 1.91 0 0 0-0.818-0.437l-1.147-0.382A2.511 2.511 0 0 1 18.235 8.102a1.965 1.965 0 0 1-0.382-1.201 1.583 1.583 0 0 1 0.218-0.873 1.583 1.583 0 0 1 0.546-0.655l0.874-0.437 0.982-0.109h1.037l0.819 0.273c0.109 0.055 0.164 0.164 0.218 0.218a0.382 0.382 0 0 1 0.055 0.273v0.382c0 0.164-0.055 0.218-0.164 0.218a0.328 0.328 0 0 1-0.273-0.109 4.803 4.803 0 0 0-1.583-0.273 1.965 1.965 0 0 0-1.037 0.219 0.764 0.764 0 0 0-0.382 0.709 0.764 0.764 0 0 0 0.273 0.546 1.583 1.583 0 0 0 0.873 0.437l1.092 0.382a2.183 2.183 0 0 1 1.256 0.764 1.692 1.692 0 0 1 0.382 1.092 2.347 2.347 0 0 1-0.219 0.928 1.91 1.91 0 0 1-0.6 0.709 1.638 1.638 0 0 1-0.873 0.437A2.675 2.675 0 0 1 20.2 12.36ZM21.729 16.235C19.109 18.146 15.288 19.183 12.013 19.183A17.522 17.522 0 0 1 0.113 14.652c-0.273-0.218 0-0.546 0.273-0.327a24.017 24.017 0 0 0 11.899 3.165 24.672 24.672 0 0 0 9.062-1.855C21.783 15.416 22.165 15.908 21.729 16.235Zm1.091-1.255c-0.328-0.437-2.238-0.218-3.056-0.11s-0.328-0.218-0.11-0.382c1.528-1.037 3.985-0.71 4.258-0.382s-0.055 2.838-1.474 4.04c-0.218 0.164-0.437 0.055-0.327-0.164S23.148 15.416 22.82 14.98Z"/></svg>