<svg role="img" viewBox="0 0 24 24" xmlns="http://www.w3.org/2000/svg"><title>Amazon</title><path d="M10.066 18.622c-1.016 0-1.91-.222-2.682-.665a4.768 4.768 0 0 1-1.802-1.888c-.429-.815-.644-1.752-.644-2.81 0-1.273.315-2.39.944-3.347.644-.959 1.552-1.695 2.725-2.21 1.187-.515 2.574-.773 4.162-.773.73 0 1.323.05 1.78.15v-.45c0-1.087-.2-1.895-.6-2.424-.4-.544-1.008-.816-1.823-.816-1.316 0-2.16.694-2.532 2.081-.114.4-.35.573-.708.515L5.968 5.47c-.215-.043-.365-.135-.45-.278-.072-.144-.08-.337-.022-.58.372-1.459 1.159-2.588 2.36-3.39C9.072.407 10.596 0 12.426 0c2.174 0 3.826.587 4.956 1.76 1.144 1.173 1.716 2.882 1.716 5.128v10.792a.557.557 0 0 1-.171.407c-.1.1-.23.15-.387.15h-2.789c-.343 0-.558-.186-.643-.557l-.43-2.017h-.171c-.386.944-.966 1.673-1.738 2.188-.758.515-1.66.772-2.703.772zm-.45-5.878c0 .757.193 1.366.579 1.823.4.444.936.665 1.609.665.886 0 1.566-.393 2.038-1.18.472-.8.708-1.945.708-3.432V9.482c-.4-.071-.78-.107-1.137-.107-1.173 0-2.103.307-2.79.923-.672.6-1.008 1.416-1.008 2.445zm9.353 6.159c-.115.11-.145.224-.09.344.038.088.112.137.221.148.11.016.265.005.467-.033.328-.071.67-.12 1.024-.147.355-.022.664-.017.926.016.263.038.427.104.492.196.098.148.063.46-.106.935a6.637 6.637 0 0 1-.672 1.384c-.11.18-.175.323-.197.426a.264.264 0 0 0 .082.263.228.228 0 0 0 .164.074c.158 0 .388-.14.688-.418.54-.47.92-1.028 1.139-1.672.12-.333.194-.683.221-1.049.028-.366-.013-.628-.123-.787-.104-.153-.333-.278-.688-.377a3.88 3.88 0 0 0-1.057-.147c-.694 0-1.352.164-1.975.492-.23.125-.401.243-.516.352zm-18.207-.41c-.104.082-.125.218-.065.41.054.17.183.38.385.63a10.764 10.764 0 0 0 2.909 2.508 13.31 13.31 0 0 0 3.613 1.475c1.29.322 2.606.484 3.95.484 1.72 0 3.36-.252 4.916-.755 1.557-.497 2.857-1.196 3.9-2.097.366-.322.55-.58.55-.77a.332.332 0 0 0-.09-.214.295.295 0 0 0-.296-.081 2.295 2.295 0 0 0-.483.204c-1 .525-2.218.943-3.655 1.254a20.675 20.675 0 0 1-4.482.475c-1.928 0-3.79-.262-5.588-.786-1.798-.525-3.39-1.344-4.777-2.459-.203-.158-.366-.259-.492-.303-.12-.043-.218-.035-.295.025z"/></svg>