<svg viewBox="0 0 16 16" xmlns="http://www.w3.org/2000/svg" fill-rule="evenodd" clip-rule="evenodd" stroke-linejoin="round" stroke-miterlimit="1.414"><path d="M10.923 10.96V9.083h1.492v.388h-1.047v.34h1.022v.384h-1.022v.373h1.047v.39h-1.492zm3.2-.99c.086.09.133.205.133.398 0 .403-.25.59-.702.59h-.87v-.4h.866c.085 0 .145-.012.183-.047.03-.028.053-.07.053-.12 0-.056-.024-.1-.055-.125-.033-.03-.08-.042-.158-.042-.418-.014-.942.013-.942-.58 0-.272.17-.56.64-.56h.896v.4h-.82c-.082 0-.135.004-.18.034-.05.03-.067.076-.067.135 0 .07.04.12.097.14.047.016.098.02.174.02l.242.008c.242.006.41.048.51.15zm-3.765.118c.1.037.18.103.22.157.062.092.072.177.073.343v.37h-.447v-.233c0-.113.01-.28-.073-.367-.065-.067-.165-.083-.328-.083h-.478v.684h-.45V9.083h1.033c.227 0 .392.01.538.09.14.084.23.2.23.415 0 .3-.2.45-.317.498zm-3.474.7l-.687-.763.687-.74v1.504zm-1.773-.22H4.013v-.372h.98v-.383h-.98v-.34h1.12l.49.546-.51.55zm2.797-.618H7.33v-.478h.582c.16 0 .273.066.273.23 0 .162-.106.248-.278.248zm2.18-.095c-.06.035-.132.038-.22.038h-.543v-.42h.55c.08 0 .16 0 .214.033.058.03.093.088.093.17 0 .08-.034.144-.092.18zm-1.422-.153c0 .52-.387.63-.778.63H7.33v.627h-.87l-.55-.62-.573.62h-1.77V9.083h1.798l.55.615.568-.616h1.43c.354 0 .752.1.752.618zm7.24 1.018c-.108.16-.32.24-.606.24h-.864v-.403h.86c.085 0 .144-.01.18-.046.032-.028.053-.07.053-.12 0-.056-.022-.1-.055-.125-.033-.03-.08-.042-.158-.042-.42-.014-.943.013-.943-.58 0-.272.172-.56.64-.56h.892v-.372h-.828c-.25 0-.43.06-.56.154V8.71h-1.223c-.196 0-.426.05-.534.154V8.71h-2.185v.154c-.173-.125-.467-.153-.602-.153H8.53v.154c-.136-.133-.442-.153-.63-.153H6.29l-.37.402-.345-.4h-2.41v2.616h2.364l.38-.407.36.408h1.457v-.614h.143c.193.003.422-.005.623-.092v.706h1.202v-.682h.058c.074 0 .08.003.08.077v.605h3.653c.232 0 .474-.06.61-.168v.168h1.157c.24 0 .476-.034.656-.12V16H0V8.1h.764l.172-.416h.386l.17.417h1.504v-.318l.135.32h.78l.135-.325V8.1H7.78l-.002-.683h.072c.05.002.066.007.066.09V8.1h1.932v-.16c.155.085.398.16.717.16h.812l.174-.416h.387l.17.417h1.566v-.395l.237.396h1.255V5.487h-1.242v.31l-.174-.31h-1.275v.31l-.16-.31h-1.72c-.29 0-.543.04-.747.153v-.154H8.66v.153c-.13-.117-.308-.154-.505-.154h-4.34l-.292.675-.3-.674H1.858v.31l-.15-.31H.54L0 6.73V0h15.906v9.483h-.815c-.08 0-.135.003-.18.034-.047.03-.065.076-.065.135 0 .07.04.12.097.14.048.016.098.02.173.02l.242.008c.244.006.408.048.507.15.018.015.03.03.042.047l.003.004c.06.086.09.186.09.348 0 .143-.03.26-.094.352zm-9.25-2.988H5.16V5.858h1.494v.39H5.607v.338h1.02v.384h-1.02v.375h1.047v.387zm2.82 0h-.457V5.858h.457v1.874zm-.716-1.37c0 .3-.2.454-.316.5.098.038.182.104.22.158.064.093.075.177.075.344v.368h-.452v-.236c0-.113.01-.275-.072-.365-.065-.065-.165-.08-.326-.08h-.48v.682h-.447V5.858h1.03c.227 0 .395.006.54.09.14.083.226.206.226.415zm6.007 1.37h-.634l-.847-1.407v1.407h-.91l-.175-.418h-.927l-.17.418h-.522c-.217 0-.492-.048-.647-.207-.158-.16-.24-.375-.24-.716 0-.28.05-.533.242-.734.144-.15.37-.218.68-.218h.43v.4h-.422c-.163 0-.256.026-.344.112-.078.08-.13.23-.13.425 0 .2.04.346.123.44.07.075.194.097.312.097h.2l.63-1.474h.67l.757 1.773V5.86h.68l.787 1.305V5.858h.457v1.874zm-14.762 0l.8-1.874h.665l.76 1.775V5.858h.73l.585 1.27.538-1.27h.744v1.874H4.37l-.003-1.468-.648 1.468h-.394l-.65-1.47v1.47h-.91l-.17-.418H.663l-.173.418H.006zm1.43-.81l-.307-.746-.305.747h.61zm10.614 0l-.31-.746-.308.747h.617zm-3.875-.296c-.062.037-.134.038-.222.038H7.41v-.416h.55c.08 0 .16.004.213.034.058.027.094.085.094.166 0 .082-.034.148-.092.178z"/></svg>