<svg role="img" viewBox="0 0 24 24" xmlns="http://www.w3.org/2000/svg"><title>Amplitude</title><path d="M12 0C5.3733 0 0 5.3733 0 12s5.3733 12 12 12 12-5.3733 12-12S18.6267 0 12 0Zm-1.5864 3.6665c1.59 0 2.7704 3.6194 3.7148 7.1616l.0044.0147c1.9378.0388 4.0102.0958 6.019.2402l.0865.0103c.0333 0 .0622.0047.0967.0102h.0102l.0103.0044h.0044c.3432.0677.5702.4049.498.747-.0334.1346-.1159.2663-.2314.3619l-.0425.0293-.0147.0088-.0293.019-.0249.0147a.6424.6424 0 0 1-.2988.0732h-5.6865c.0433.1878.0972.4035.1494.6358.3134 1.3444 1.1375 4.9204 2.0186 4.9204H16.746c.6844 0 1.0365-.9925 1.8076-3.167l.0103-.025c.1255-.3466.2642-.7412.413-1.16l.0396-.1055c.0578-.14.2174-.213.3574-.1553a.2738.2738 0 0 1 .1729.252.316.316 0 0 1-.0103.0761l-.0337.1055c-.0822.26-.1629.6124-.2651 1.0224-.4578 1.8989-1.152 4.7666-2.9253 4.7666h-.0147c-1.1466-.01-1.831-1.8409-2.1254-2.6264-.549-1.4656-.9638-3.023-1.3638-4.5352H7.585l-1.084 3.4746-.0147-.0146c-.1633.2556-.5047.3333-.7602.1699a.5496.5496 0 0 1-.2564-.4629v-.019l.0674-.3955c.1489-.8911.3324-1.8224.5347-2.7569H3.8555l-.0103-.0102c-.4533-.0678-.7665-.49-.6987-.9434.0533-.3523.3242-.631.6709-.6943.0866-.01.1726-.0147.2593-.0103h.1054c.699.01 1.4414.0248 2.2603.0337 1.1522-4.6845 2.4868-7.0663 3.9712-7.0708zm-.063 1.601a.3734.3734 0 0 0-.1729.0587c-.641.501-1.5131 2.6257-2.231 5.4301l.6358.0044c1.2533.0145 2.5499.0295 3.8277.0484-.3378-1.2822-.6559-2.3814-.9493-3.2725-.43-1.2956-.7189-1.8787-.8833-2.1342-.0678-.0867-.1403-.1348-.227-.1348Z"/></svg>