<svg role="img" viewBox="0 0 24 24" xmlns="http://www.w3.org/2000/svg"><title>Amul icon</title><path d="M19.552 19.46H4.441v-1.006h15.111zm-5.167-3.012a.163.163 0 00-.094-.026.173.173 0 00-.12.046.29.29 0 00-.067.179 3.53 3.53 0 00-.015.37 1.343 1.343 0 00.02.237.212.212 0 00.064.127.16.16 0 00.112.044.166.166 0 00.1-.03.191.191 0 00.071-.111 2.39 2.39 0 00.027-.452 1.04 1.04 0 00-.025-.276.21.21 0 00-.073-.108zm5.56-.071a.128.128 0 00-.08.025.272.272 0 00-.081.136 1.028 1.028 0 00-.031.3 1.138 1.138 0 00.034.326.306.306 0 00.1.153.131.131 0 00.084.023q.118 0 .222-.171v-.612a.285.285 0 00-.247-.178zm-7.614.042a.129.129 0 00-.078-.021.142.142 0 00-.118.06.455.455 0 00-.083.288v.04h.38a.95.95 0 00-.024-.26.216.216 0 00-.077-.107zm-3.875.76a.137.137 0 00.044.1.13.13 0 00.093.033.266.266 0 00.155-.07v-.382a.77.77 0 00-.24.185.216.216 0 00-.052.134zm-3.451-.745a.129.129 0 00-.078-.021.142.142 0 00-.118.06.446.446 0 00-.083.287v.04h.38a.936.936 0 00-.024-.26.216.216 0 00-.077-.11zM24 14.87v3.516H0v-3.519zm-2.922 1.09a.177.177 0 00.056.13.191.191 0 00.268 0 .177.177 0 00.056-.13.19.19 0 00-.324-.134.184.184 0 00-.06.13zm-18.537-.167h-1.49v.45H1.1a.476.476 0 01.135-.283.352.352 0 01.244-.071h.12v1.28a.506.506 0 01-.013.156.112.112 0 01-.05.058.22.22 0 01-.116.027h-.06v.045h.87v-.045h-.055a.219.219 0 01-.112-.025.121.121 0 01-.055-.055.548.548 0 01-.014-.16v-1.281h.124a.4.4 0 01.162.023.328.328 0 01.131.108.739.739 0 01.087.224h.043zm1.593 1.617a.17.17 0 01-.112-.042.3.3 0 01-.023-.166v-.455a1.035 1.035 0 00-.028-.284.31.31 0 00-.115-.146.357.357 0 00-.209-.063.442.442 0 00-.185.042.827.827 0 00-.2.143v-.674h-.53v.046a.18.18 0 01.114.043.3.3 0 01.027.164v1.184a.312.312 0 01-.024.16.172.172 0 01-.117.048v.045h.658v-.045a.143.143 0 01-.108-.053.342.342 0 01-.02-.155v-.623a.442.442 0 01.113-.12.187.187 0 01.108-.035.116.116 0 01.068.02.119.119 0 01.042.057.806.806 0 01.012.182v.52a.318.318 0 01-.024.158.163.163 0 01-.1.05v.045h.657zm.6-.533h.715a.564.564 0 00-.157-.407.483.483 0 00-.344-.137.587.587 0 00-.414.164.565.565 0 00-.177.438.588.588 0 00.12.377.527.527 0 00.44.188.572.572 0 00.3-.076.685.685 0 00.234-.258l-.052-.026a.547.547 0 01-.147.142.3.3 0 01-.152.039.313.313 0 01-.232-.1.515.515 0 01-.135-.342zm3.118-1.091H6.36v.45h.047a.464.464 0 01.134-.283.347.347 0 01.244-.072h.12v1.282a.51.51 0 01-.013.154.113.113 0 01-.05.058.219.219 0 01-.117.027H6.67v.045h.87v-.045h-.056a.217.217 0 01-.11-.025.124.124 0 01-.057-.055.54.54 0 01-.014-.16V15.88h.124a.412.412 0 01.163.023.325.325 0 01.131.108.69.69 0 01.087.224h.044zm1.436 1.555l-.04-.03a.1.1 0 01-.071.047.055.055 0 01-.031-.01.069.069 0 01-.02-.03.473.473 0 01-.006-.1v-.44a.857.857 0 00-.022-.24.324.324 0 00-.134-.15.5.5 0 00-.281-.07.923.923 0 00-.282.044.476.476 0 00-.212.123.242.242 0 00-.076.169.138.138 0 00.056.108.216.216 0 00.14.047.19.19 0 00.128-.042.129.129 0 00.049-.1.149.149 0 00-.051-.1.109.109 0 01-.037-.063.061.061 0 01.035-.052.257.257 0 01.143-.036.18.18 0 01.1.025.131.131 0 01.058.059.484.484 0 01.016.164v.115a2.38 2.38 0 00-.535.278.309.309 0 00-.123.237.207.207 0 00.07.16.254.254 0 00.178.064.684.684 0 00.41-.184.2.2 0 00.073.138.259.259 0 00.167.046.325.325 0 00.162-.041.458.458 0 00.136-.136zm1.167-.182a.3.3 0 00-.066-.191 1.029 1.029 0 00-.275-.207 1.289 1.289 0 01-.254-.172.094.094 0 01-.03-.064.1.1 0 01.042-.077.149.149 0 01.1-.034.33.33 0 01.186.063.625.625 0 01.18.238h.05l-.023-.39h-.048a.233.233 0 01-.05.05.083.083 0 01-.04.01.165.165 0 01-.064-.017.493.493 0 00-.209-.046.415.415 0 00-.306.107.332.332 0 00-.106.239.313.313 0 00.094.222 1.42 1.42 0 00.281.2 1.146 1.146 0 01.19.13.141.141 0 01.043.1.112.112 0 01-.043.088.171.171 0 01-.112.036.364.364 0 01-.21-.081.532.532 0 01-.176-.242h-.05l.023.41h.047c.02-.04.047-.06.078-.06a.234.234 0 01.059.013.86.86 0 00.253.052.515.515 0 00.224-.05.364.364 0 00.157-.14.358.358 0 00.055-.187zm1-.8h-.292v-.41h-.044a1.329 1.329 0 01-.2.262 1.628 1.628 0 01-.282.225v.043h.16v.6a1.017 1.017 0 00.013.22.256.256 0 00.1.133.32.32 0 00.2.06.36.36 0 00.346-.231l-.039-.026c-.05.079-.1.119-.162.119a.1.1 0 01-.08-.064.449.449 0 01-.01-.125v-.686h.291zm.6.5h.716a.569.569 0 00-.156-.408.49.49 0 00-.345-.136.586.586 0 00-.414.163.569.569 0 00-.176.438.589.589 0 00.12.377.529.529 0 00.44.189.58.58 0 00.3-.076.7.7 0 00.234-.26l-.047-.025a.517.517 0 01-.147.142.3.3 0 01-.152.039.313.313 0 01-.232-.1.514.514 0 01-.137-.336zm2.833.057a.612.612 0 00-.075-.3.5.5 0 00-.219-.21.672.672 0 00-.313-.075.567.567 0 00-.438.176.593.593 0 00-.161.413.586.586 0 00.158.4.568.568 0 00.445.174.583.583 0 00.464-.191.568.568 0 00.147-.38zm1.248-.957a.153.153 0 00-.08-.122.417.417 0 00-.241-.055.58.58 0 00-.378.115.359.359 0 00-.139.289v.139h-.18v.118h.18v.779a.333.333 0 01-.014.12.092.092 0 01-.048.045.314.314 0 01-.118.018v.043h.729v-.043a.209.209 0 01-.156-.041.248.248 0 01-.026-.142v-.78h.182v-.117h-.182v-.346a.146.146 0 01.025-.093.086.086 0 01.065-.03.084.084 0 01.052.019.046.046 0 01.015.038.189.189 0 010 .038.19.19 0 00-.008.045.094.094 0 00.04.072.177.177 0 00.11.032.2.2 0 00.13-.04.12.12 0 00.046-.094zm1.41-.18h-.867v.046h.054a.225.225 0 01.112.023.118.118 0 01.053.056.5.5 0 01.014.159v1.093a.467.467 0 01-.014.154.1.1 0 01-.05.058.219.219 0 01-.115.027h-.054v.045h.868v-.045h-.051a.216.216 0 01-.11-.025.117.117 0 01-.055-.055.494.494 0 01-.015-.16V16.07a.493.493 0 01.014-.154.119.119 0 01.05-.06.22.22 0 01.116-.024h.056zm1.65 1.639a.18.18 0 01-.117-.04.266.266 0 01-.027-.153v-.417a.865.865 0 00-.024-.252.27.27 0 00-.114-.143.373.373 0 00-.215-.058.529.529 0 00-.2.04.79.79 0 00-.2.13v-.138h-.543v.042a.2.2 0 01.115.039.254.254 0 01.028.152v.605c0 .083-.007.133-.024.15a.183.183 0 01-.12.043v.04h.676v-.04a.153.153 0 01-.1-.04.269.269 0 01-.028-.153v-.574a.29.29 0 01.228-.142.127.127 0 01.07.02.107.107 0 01.042.053.68.68 0 01.012.167v.476a.28.28 0 01-.022.143.15.15 0 01-.109.05v.04h.671zm1.526-.07a.25.25 0 01-.106-.024.106.106 0 01-.041-.061.87.87 0 01-.008-.16v-1.337h-.555v.052a.3.3 0 01.12.017.117.117 0 01.049.054.648.648 0 01.01.16v.35a.494.494 0 00-.147-.112.372.372 0 00-.16-.033.489.489 0 00-.261.076.508.508 0 00-.19.224.774.774 0 00-.07.336.674.674 0 00.113.4.438.438 0 00.378.2.362.362 0 00.168-.04.627.627 0 00.17-.145v.185l.53-.1zm.857.064a.154.154 0 01-.111-.038.27.27 0 01-.03-.155v-.9h-.483v.045a.146.146 0 01.109.038.264.264 0 01.029.154v.663a.273.273 0 01-.025.149.146.146 0 01-.113.044v.044h.62zm1.454-.073l-.039-.03a.1.1 0 01-.07.047.052.052 0 01-.03-.01.055.055 0 01-.02-.03.39.39 0 01-.008-.1v-.444a.918.918 0 00-.018-.236.335.335 0 00-.134-.151.5.5 0 00-.28-.07.956.956 0 00-.284.044.482.482 0 00-.212.123.246.246 0 00-.076.169.137.137 0 00.057.108.211.211 0 00.141.047.189.189 0 00.126-.042.126.126 0 00.05-.1.147.147 0 00-.05-.1.106.106 0 01-.039-.063.06.06 0 01.036-.052.256.256 0 01.142-.036.183.183 0 01.1.025.128.128 0 01.057.059.484.484 0 01.016.164v.115a2.4 2.4 0 00-.535.278.31.31 0 00-.122.237.206.206 0 00.07.16.254.254 0 00.178.064.682.682 0 00.41-.184.2.2 0 00.072.138.26.26 0 00.167.046.31.31 0 00.162-.041.458.458 0 00.13-.135zm-.839-.16a.137.137 0 00.044.1.134.134 0 00.094.033.264.264 0 00.154-.07v-.382a.78.78 0 00-.24.186.218.218 0 00-.052.133zM7.024 11.43a2.4 2.4 0 00.885.121 5.227 5.227 0 00-.493-1.1zM19.551 4.5v10.279H4.442V4.499zM9.58 12.48l-.11-.14c-.09.122-.175.19-.247.14a2.95 2.95 0 01-.13-.29c-.2-.481-.4-.972-.614-1.445-.3-.655-.842-1.705-1.731-1.26-.158.287-.315.573-.472.872l.155.132c.094-.3.576-.389.587-.236l-.472 1.159a.747.747 0 00-.782.679.682.682 0 01.58-.217c-.06.155-.131.339-.222.53-.965-.132-1.218.986-.653 1.557.024-.012.05-.06.074-.06-.476-.852.342-1.4 1.224-.478l.617-.654-.062-.07a.49.49 0 01-.274.077.155.155 0 01-.082-.035c-.128-.087-.246-.174-.365-.25.048-.156.132-.41.193-.552a2.38 2.38 0 001.27.128c.141.408.282.9.424 1.307a1.139 1.139 0 01.071.131c.345-.366.673-.683 1.02-1.025zm4.344.435l-.026-.127c-.124.093-.24.144-.24 0v-.03a32.198 32.198 0 010-1.163c-.165-.715-.992-.618-1.415-.089-.036-.048-.072-.083-.1-.119-.554-.628-.723-.313-1.288.091a.575.575 0 00-.658-.417c-.206.165-.421.317-.616.481 0 .012.085.093.085.116a.349.349 0 01.205-.055.127.127 0 01.1.07 5.192 5.192 0 010 1.11.338.338 0 01-.213.125l.7.617.67-.608-.006-.115-.058.032c-.06.033-.156.03-.168-.045-.034-.231-.015-.876-.02-.971a.234.234 0 01.447-.092 6.736 6.736 0 01.006 1.11c-.012.059-.105.13-.165.153l.662.542.7-.6-.013-.118c-.175.079-.248 0-.249-.11l-.01-.84a.254.254 0 11.507-.021l-.018 1.028a.216.216 0 01-.187.146l.7.55zm3.22.026l-.067-.127c-.123.094-.2.135-.278.033a.494.494 0 01-.043-.166c-.033-.292.039-.775-.022-1.081a.615.615 0 00-.654-.439l-.612.5.108.17a.2.2 0 01.226-.082c.05.012.076.06.082.123a8.28 8.28 0 01.005.834.284.284 0 01-.165.269.312.312 0 01-.379-.022c-.092-.09-.075-.167-.077-.286-.005-.337 0-.673 0-1a.55.55 0 00-.557-.539l-.714.508.1.16c.22-.108.354-.105.345.166-.013.34-.015.639-.016.992-.02.064-.14.09-.155.107-.016.016.732.5.8.55.251-.153.535-.35.785-.51a3.447 3.447 0 00.61.505c.19-.186.487-.492.678-.668zm1.648.047c-.027-.063-.03-.088-.05-.13-.1.078-.25.1-.272-.05a177.71 177.71 0 01-.011-2.524.755.755 0 00-.693-.553l-.709.762.079.134c.156-.13.378-.254.428.04q0 1.082-.01 2.165c0 .137-.02.2-.178.2a6.005 6.005 0 01.63.605 8.454 8.454 0 01.79-.652z" fill-rule="evenodd"/></svg>