<svg role="img" viewBox="0 0 24 24" xmlns="http://www.w3.org/2000/svg"><title>Anaconda icon</title><path d="m12 .0332a12.2 12.2 0 00-1.36.0782 17.5 17.5 0 011.81 1.43l.479.438-.465.451a15 15 0 00-1.13 1.2l-.178.215a8.53 8.53 0 01.86-.0495 8.15 8.15 0 11-4.29 15.1 15.8 15.8 0 01-1.84.107h-.86a21.8 21.8 0 00.264 2.87 12 12 0 106.7-21.9zm-3.88.645a12.2 12.2 0 00-2.62 1.28 15.5 15.5 0 011.81.43 18.6 18.6 0 01.81-1.71zm1.25.0717a16.2 16.2 0 00-.995 2 16.2 16.2 0 011.6.659 6.98 6.98 0 01.43-.508c.234-.287.473-.559.717-.817a15 15 0 00-1.76-1.33zm-4.74 2.2a15 15 0 000 2.34c.588-.0645 1.2-.0997 1.81-.107a16.6 16.6 0 01.481-1.75 16.5 16.5 0 00-2.29-.481zm-1.06.552a11.9 11.9 0 00-1.86 2.38 17 17 0 011.88-.444 17.4 17.4 0 01-.0208-1.93zm4.41.287c-.143.437-.266.888-.38 1.35a8.25 8.25 0 011.67-.802c-.423-.201-.845-.38-1.29-.545zm-1.73 2.43a14.1 14.1 0 00-1.56.108c.0645.523.158 1.04.272 1.55a8.39 8.39 0 011.28-1.66zm-2.55.137a15.3 15.3 0 00-2.6.717h-.0782v.0782a17.1 17.1 0 001.27 2.54l.043.0716.0717-.0495a16.3 16.3 0 011.73-1.08l.0573-.0352v-.0573a16.9 16.9 0 01-.408-2.09v-.0925zm-3.1 1.74-.0638.201a11.8 11.8 0 00-.581 3.36v.208l.143-.151a17.7 17.7 0 011.58-1.45l.0573-.043-.043-.0638a16.2 16.2 0 01-1.03-1.87zm3.77 1.25-.178.1c-.466.272-.931.573-1.38.888l-.0651.0508.0508.0638c.308.437.644.867.995 1.28l.137.165v-.208a8.18 8.18 0 01.365-2.15zm-2.21 1.5-.0717.0508a16.6 16.6 0 00-1.81 1.73l-.0573.0573.0651.0573a15.4 15.4 0 001.99 1.48l.0717.0508.043-.0795a16.7 16.7 0 011.05-1.64v-.0508l-.043-.0495a17 17 0 01-1.19-1.54zm1.86 2.07-.121.172a15.4 15.4 0 00-.917 1.43l-.043.0716.0717.043a16.6 16.6 0 001.56.766l.193.086-.086-.193a8.04 8.04 0 01-.659-2.17zm-3.98.479v.201a11.8 11.8 0 00.946 3.33l.0782.186.0717-.194a16.2 16.2 0 01.845-2l.0573-.0638-.0638-.043a17.2 17.2 0 01-1.78-1.28zm2.54 1.81-.0352.0795a15.8 15.8 0 00-.982 2.48v.0795h.086a16.2 16.2 0 002.69.502l.0717.0065v-.086a17.6 17.6 0 01.164-2.06v-.0651h-.0638a16.3 16.3 0 01-1.85-.896zm2.54 1.17v.115a17.3 17.3 0 00-.151 1.83v.0782h.931c.287 0 .623.0143.946 0h.208l-.165-.129a8.01 8.01 0 01-1.64-1.83zm-3.29 2.1.115.172a12 12 0 002.5 2.74l.158.129v-.201a22.6 22.6 0 01-.201-2.34v-.0716h-.0717a16.2 16.2 0 01-2.3-.387z"/></svg>