<svg role="img" viewBox="0 0 24 24" xmlns="http://www.w3.org/2000/svg"><title>Anaconda icon</title><path d="M12.04527.03322A12.18175 12.18175 0 0010.6839.1114a17.51306 17.51306 0 011.81344 1.43303l.47941.43772-.46508.45076a15.04805 15.04805 0 00-1.12558 1.20374l-.17848.21496a8.52723 8.52723 0 01.85982-.0495 8.1546 8.1546 0 11-4.28606 15.14843 15.76462 15.76462 0 01-1.8408.10683h-.85982a21.84833 21.84833 0 00.26446 2.86606A11.96678 11.96678 0 1012.04527.03322zM8.16957.6781a12.18175 12.18175 0 00-2.62374 1.2754 15.50666 15.50666 0 011.81343.4299A18.5521 18.5521 0 018.16958.6781zm1.25326.07165a16.23756 16.23756 0 00-.9953 1.99842 16.15157 16.15157 0 011.60499.6592 6.97943 6.97943 0 01.4299-.50808c.23409-.28663.47289-.55886.71652-.81682A15.04805 15.04805 0 009.42283.74974zM4.6795 2.94879a14.96922 14.96922 0 000 2.33584c.58759-.0645 1.19587-.09966 1.81213-.10683a16.61734 16.61734 0 01.48072-1.7483A16.4812 16.4812 0 004.6795 2.9488zm-1.06045.55237a11.93812 11.93812 0 00-1.85642 2.37883 17.0043 17.0043 0 011.87727-.44424 17.39124 17.39124 0 01-.02085-1.9346zm4.40722.2866c-.14331.43711-.26575.88844-.3804 1.34705a8.25493 8.25493 0 011.67013-.8025c-.42278-.20064-.84545-.37974-1.28973-.54455zM6.29882 6.2161a14.05201 14.05201 0 00-1.55549.10813c.0645.5231.15762 1.03825.27228 1.55418A8.39108 8.39108 0 016.29882 6.2161zm-2.5508.13679a15.31318 15.31318 0 00-2.6016.71651h-.07816v.07817a17.10461 17.10461 0 001.26758 2.54428l.04299.07165.07165-.0495a16.30922 16.30922 0 011.73397-1.0826l.05732-.03517v-.05732a16.86814 16.86814 0 01-.40776-2.09353v-.0925zM.64487 8.09467l-.06383.20063A11.84496 11.84496 0 000 11.6551v.20844l.1433-.15112a17.70654 17.70654 0 011.58415-1.44736l.05732-.04299-.04299-.06383A16.18023 16.18023 0 01.71651 8.28748zm3.76887 1.25325l-.17847.10031c-.46578.2723-.93144.57319-1.37571.88848l-.06514.0508.0508.06383c.30813.43711.6442.86695.99531 1.2754l.1368.16546v-.20844a8.1761 8.1761 0 01.36476-2.14955zM2.20035 10.8526l-.07165.05081a16.57435 16.57435 0 00-1.81343 1.73397l-.05733.05732.06514.05733A15.44933 15.44933 0 002.315 14.23456l.07166.0508.04299-.07946a16.73916 16.73916 0 011.05262-1.64017v-.05081l-.04299-.04951a16.98996 16.98996 0 01-1.18941-1.54115zm1.85513 2.07138l-.12116.17197a15.36334 15.36334 0 00-.91714 1.43303l-.043.07165.07166.04299a16.61018 16.61018 0 001.562.76602l.19281.08598-.08598-.1928a8.03996 8.03996 0 01-.6592-2.1717zm-3.97601.47942v.20062a11.75897 11.75897 0 00.9458 3.32594l.07816.1863.07165-.19412a16.21606 16.21606 0 01.8455-1.99973l.05731-.06383-.06383-.04299A17.19777 17.19777 0 01.2371 13.53237zm2.54298 1.80562l-.03518.07947a15.76462 15.76462 0 00-.98228 2.47914v.07947h.08599a16.15157 16.15157 0 002.68758.50156l.07165.0065v-.086a17.56322 17.56322 0 01.16415-2.05575v-.06514h-.06384a16.26622 16.26622 0 01-1.8486-.89626zm2.54428 1.16857v.11464A17.2551 17.2551 0 005.0156 18.32v.07816h.93147c.28663 0 .62334.01433.9458 0h.20844l-.16545-.12897a8.0113 8.0113 0 01-1.64017-1.83428zm-3.28946 2.10004l.11464.17196a11.98828 11.98828 0 002.5013 2.7371l.15763.12896v-.20062a22.57924 22.57924 0 01-.20063-2.33584v-.07165h-.07165a16.2304 16.2304 0 01-2.30067-.38692z"/></svg>