<svg role="img" viewBox="0 0 24 24" xmlns="http://www.w3.org/2000/svg"><title>Android Studio icon</title><path d="M12.9983 13.7303c.4261-.329.7021-.8433.7021-1.422 0-.8383-.5774-1.543-1.3552-1.7402l.0002-.0278V9.4001a.3456.3456 0 0 0-.6909 0v1.13c-.8737.1216-1.5491.8716-1.5491 1.7782 0 .6043.3007 1.1386.7592 1.4647l-4.1489 8.8406c-.301.6462.1707 1.3864.8836 1.3864a.9749.9749 0 0 0 .8838-.5635l2.7601-5.8981c.1408-.2991.4241-.4488.7073-.4488.2817 0 .5635.1481.7052.4446l2.8226 5.8663a.974.974 0 0 0 .8771.5507c.7177 0 1.1888-.7499.8774-1.3965l-4.2345-8.8244zm-1.0954-.3151c-.6113 0-1.1068-.4955-1.1068-1.1068s.4955-1.1068 1.1068-1.1068 1.1069.4955 1.1069 1.1068-.4956 1.1068-1.1069 1.1068zm.3018 4.3346l1.4609 3.0363h-3.3901l1.4207-3.0358c.0682-.145.2007-.1607.2545-.1607.0533.0001.1849.0157.254.1602zm9.707-8.8096v13.2396c0 .9862-.8069 1.7932-1.7932 1.7932l-.8436-.0048a.0994.0994 0 0 1-.0992-.0992l.0048-3.0828h-2.2416l-3.3307-6.9407a2.2757 2.2757 0 0 0 .5923-1.537 2.2938 2.2938 0 0 0-1.3552-2.0938l.0001-.8145c-.0001-.4662-.3794-.8454-.8455-.8454s-.8454.3792-.8454.8454v.7383c-.9077.3143-1.5491 1.1813-1.5491 2.1699 0 .5977.236 1.1689.6462 1.594l-3.2305 6.8838h-2.94c-1.0961 0-1.9929-.8968-1.9929-1.9929V5.0203s.0028.1105.0267.2678c-.0107-.0866-.0246-.1721-.0246-.2617 0-1.0961.8967-1.9928 1.9929-1.9928h2.9082A6.6659 6.6659 0 0 0 5.271 6.9793l-.0034.0399 13.7327.0001c.0001 0 2.9114-.2506 2.9114 1.9209zM5.8427 6.5195l12.3147.0015c-.3141-1.9088-1.4652-3.5101-3.1036-4.4014l1.037-1.7961a.216.216 0 0 0-.079-.2947.216.216 0 0 0-.2947.079L14.667 1.9265c-.8029-.3663-1.7047-.5704-2.667-.5704-.9623 0-1.8642.2042-2.6671.5706L8.2829.1079a.2159.2159 0 0 0-.3739.2157l1.0371 1.7961c-1.6381.891-2.7891 2.4918-3.1034 4.3998zm9.025-2.312a.5195.5195 0 0 1 .5189.5189.5195.5195 0 0 1-.5189.519.5195.5195 0 0 1-.5189-.519.5194.5194 0 0 1 .5189-.5189zm-5.7354 0a.5195.5195 0 0 1 .5189.5189c0 .2862-.2327.519-.5189.519s-.5189-.2328-.5189-.519a.5194.5194 0 0 1 .5189-.5189z"/></svg>