<svg role="img" viewBox="0 0 24 24" xmlns="http://www.w3.org/2000/svg"><title>Android Auto icon</title><path d="M2.988 14.712v.576c-.25-.384-.749-.65-1.273-.65C.74 14.637 0 15.445 0 16.43c0 .984.741 1.794 1.715 1.794a1.58 1.58 0 0 0 1.273-.651v.584h.483v-3.446h-.483zm-1.223 3.062c-.733 0-1.265-.6-1.265-1.343s.532-1.343 1.265-1.343c.732 0 1.265.6 1.265 1.343s-.533 1.343-1.265 1.343zm5.035-.2c-.225.417-.649.65-1.098.65-.733 0-1.257-.542-1.257-1.36v-2.16h.483v2.094c0 .584.34.976.84.976.583 0 1.032-.534 1.032-1.351v-1.72h.483v3.447H6.8v-.576zm1.748-2.411h-.74v-.46h.74v-.959h.483v.96h1.007v.459H9.03v1.994c0 .417.183.584.574.584.141 0 .325-.025.433-.075v.434c-.163.06-.335.091-.508.091-.582 0-.982-.342-.982-.992v-2.036zm3.52-.526a1.77 1.77 0 0 0-1.797 1.794 1.76 1.76 0 0 0 1.797 1.794 1.77 1.77 0 0 0 1.798-1.794c.017-.976-.782-1.819-1.798-1.794zm-.008 3.137c-.774 0-1.298-.6-1.298-1.343s.524-1.343 1.298-1.343 1.299.6 1.299 1.343-.516 1.343-1.299 1.343zM2.783 7.55v.465c-.194-.279-.615-.532-1.113-.532-.945 0-1.67.811-1.67 1.809s.725 1.809 1.67 1.8c.506 0 .919-.253 1.113-.532v.22c0 .135.11.244.245.245h.523V7.55h-.768zm-.97 2.866c-.624 0-1.037-.49-1.037-1.116 0-.625.422-1.116 1.037-1.116.616 0 1.037.482 1.037 1.116 0 .626-.421 1.116-1.037 1.116zm2.598-2.857h.767v.473c.21-.347.607-.54 1.054-.54.801 0 1.324.565 1.324 1.453v2.097h-.523a.245.245 0 0 1-.245-.246V9.072c0-.55-.278-.88-.725-.88-.506 0-.894.398-.894 1.142v1.708h-.523a.245.245 0 0 1-.244-.246l.009-3.237zm6.535-1.75v2.206c-.194-.279-.616-.532-1.113-.532-.945 0-1.67.811-1.662 1.8 0 .998.717 1.81 1.67 1.81.506 0 .92-.254 1.113-.533v.22c0 .135.11.244.245.245h.514V5.809h-.767zm-.97 4.607c-.624 0-1.037-.49-1.037-1.116 0-.625.422-1.116 1.037-1.116.616 0 1.037.482 1.037 1.116 0 .626-.422 1.116-1.037 1.116zm2.606-2.857h.767v.617a.978.978 0 0 1 .92-.651c.092 0 .193.008.294.025v.786c-.122-.04-.25-.06-.379-.059-.438 0-.835.372-.835 1.065v1.7h-.522a.245.245 0 0 1-.245-.246V7.56zm4.03-.076c-1.028 0-1.82.803-1.82 1.809s.792 1.809 1.82 1.809c1.03 0 1.822-.803 1.822-1.81s-.792-1.808-1.821-1.808zm0 2.908c-.615 0-1.045-.482-1.045-1.1 0-.616.43-1.098 1.046-1.098.607 0 1.037.482 1.037 1.099s-.43 1.099-1.037 1.099zm2.438-2.832h.767v3.474h-.514a.245.245 0 0 1-.245-.245v-3.23h-.008zm.388-.761a.517.517 0 0 1-.515-.516c0-.279.236-.507.515-.507.286 0 .506.228.506.507a.51.51 0 0 1-.506.516m2.681.685zm1.114-1.666v2.198c-.194-.279-.616-.532-1.114-.532-.953 0-1.678.811-1.67 1.809 0 .997.717 1.809 1.67 1.809.506 0 .92-.254 1.114-.533v.22c0 .135.109.245.244.245H24V5.817h-.767zm-.979 4.599c-.624 0-1.037-.49-1.037-1.116 0-.625.422-1.116 1.037-1.116.624 0 1.037.482 1.037 1.116 0 .626-.421 1.116-1.037 1.116z"/></svg>