<svg viewBox="0 0 16 16" xmlns="http://www.w3.org/2000/svg" fill-rule="evenodd" clip-rule="evenodd" stroke-linejoin="round" stroke-miterlimit="1.414"><path d="M14.77 6.16c0-.544-.44-.986-.986-.986s-.988.442-.988.988v4.135c0 .546.443.987.99.988.544 0 .986-.442.986-.988V6.16zM3.587 5.363l.002 6.408c0 .59.47 1.06 1.05 1.06h.71v2.19c0 .55.44.99.98.99s.98-.44.99-.98v-2.19h1.33v2.19c0 .55.44.99.98.99.55 0 .99-.44.99-.99v-2.19h.72c.58 0 1.05-.47 1.05-1.05V5.36l-8.83.002zm6.44-1.956c-.207 0-.374-.166-.374-.373 0-.204.167-.373.373-.374.204 0 .372.17.372.373 0 .206-.167.373-.372.373m-4.05 0c-.206 0-.373-.166-.373-.372 0-.205.167-.373.372-.373.207 0 .374.17.374.38s-.17.38-.38.38m4.2-1.94l.69-1.26c.04-.07.01-.15-.05-.19-.07-.03-.15-.01-.19.06l-.7 1.27C9.34 1.09 8.68.94 7.99.94s-1.346.143-1.93.402L5.37.072c-.036-.065-.12-.09-.186-.053-.067.03-.09.12-.054.18l.69 1.25c-1.355.7-2.27 2.03-2.27 3.56h8.896c0-1.53-.914-2.86-2.267-3.56M2.21 5.17c-.546 0-.988.444-.988.99v4.134c0 .547.443.988.99.988.544 0 .986-.44.986-.988V6.162c0-.545-.442-.987-.987-.987" fill-rule="nonzero"/></svg>