<svg xmlns="http://www.w3.org/2000/svg" viewBox="0 0 16 16"><path d="M10.977 6.636c.49-1.333.874-2.434 1.148-3.303.273-.867.412-1.4.412-1.6 0-.21-.047-.376-.14-.492-.09-.116-.216-.176-.378-.176-.206 0-.415.17-.626.51-.213.34-.447.89-.705 1.645L9.592 6.393l1.386.242h-.003zM9.515 9.593c-.316-.016-.615-.05-.896-.1-.28-.05-.552-.125-.81-.22.118.235.223.47.314.703.092.235.167.465.226.692.175-.22.36-.42.554-.6.195-.178.4-.337.61-.475zm-1.242-3.33l-1.187-3.43c-.308-.87-.546-1.44-.716-1.71-.167-.266-.35-.398-.548-.398-.153 0-.278.058-.373.175-.096.12-.143.276-.143.472 0 .338.13.924.385 1.76.256.835.64 1.93 1.153 3.285.044-.08.106-.137.187-.17s.19-.05.33-.05c.043 0 .13.005.264.01.13.01.347.025.647.056zM7.195 11.57c.125 0 .24-.056.34-.17.1-.116.156-.235.156-.368 0-.14-.1-.464-.302-.972-.2-.508-.453-1.008-.753-1.5-.22-.366-.437-.644-.647-.83-.215-.186-.416-.28-.605-.28-.154 0-.324.098-.512.293-.187.193-.28.375-.28.543 0 .176.093.44.275.79.184.354.43.727.736 1.122.324.432.628.77.914 1.01.285.242.513.363.68.363zm-3.297-.262c.104.125.246.307.43.55.482.665.93 1 1.34 1 .14 0 .265-.045.375-.132.11-.088.165-.18.165-.275 0-.11-.074-.292-.22-.55-.148-.256-.35-.545-.605-.867-.293-.373-.537-.646-.732-.818-.192-.172-.35-.26-.465-.26-.257 0-.493.14-.71.414-.216.27-.324.6-.324.972 0 .302.077.637.228 1.007s.367.738.652 1.113c.433.578.97 1.023 1.61 1.336.64.31 1.35.466 2.126.466 1.428 0 2.624-.534 3.586-1.6.965-1.065 1.446-2.4 1.446-4.006 0-.49-.037-.882-.11-1.17-.074-.29-.193-.5-.363-.633-.3-.25-.885-.472-1.754-.67-.867-.198-1.773-.297-2.72-.297-.262 0-.45.044-.56.132-.11.088-.163.238-.163.45 0 .5.277.86.835 1.083.556.224 1.458.336 2.702.336h.45c.104 0 .187.04.25.117.06.076.103.19.124.346-.125.117-.38.25-.77.4-.39.15-.684.3-.89.445-.44.322-.792.705-1.06 1.148s-.4.863-.4 1.258c0 .243.056.534.17.874.113.34.17.55.17.632v.076l-.023.1c-.32-.02-.574-.21-.76-.565-.19-.355-.28-.83-.28-1.422v-.1c-.06.05-.116.09-.172.11-.055.022-.116.032-.18.032-.067 0-.13-.004-.19-.016-.06-.01-.123-.027-.195-.05.02.08.037.16.05.237.01.08.015.14.015.183 0 .27-.105.504-.318.7-.213.192-.467.29-.76.29-.46 0-.93-.227-1.406-.676-.477-.45-.714-.893-.714-1.324 0-.08.01-.152.027-.215s.05-.115.092-.16h.003zm7.872-4.485c.657.125 1.123.403 1.393.836.273.43.408 1.11.408 2.042 0 1.846-.554 3.357-1.663 4.532C10.797 15.41 9.377 16 7.65 16c-.682 0-1.344-.124-1.984-.37-.642-.244-1.192-.588-1.654-1.027-.526-.482-.922-.994-1.187-1.533-.262-.537-.395-1.09-.395-1.652 0-.63.133-1.116.405-1.46.27-.347.7-.58 1.286-.704-.11-.258-.19-.473-.24-.65-.052-.175-.077-.312-.077-.406 0-.33.174-.668.52-1.01.35-.346.678-.52.985-.52.13 0 .27.025.417.072.146.05.316.128.505.238C5.667 5.38 5.257 4.148 5 3.28c-.256-.87-.385-1.467-.385-1.798 0-.454.117-.815.353-1.082.233-.266.554-.4.956-.4.688 0 1.56 1.54 2.615 4.616.182.528.32.934.417 1.22l.34-.968C10.354 1.82 11.26.298 12.022.298c.375 0 .674.126.897.38s.334.59.334 1.015c0 .323-.122.912-.368 1.77-.245.857-.616 1.978-1.114 3.363"/></svg>