<svg role="img" viewBox="0 0 24 24" xmlns="http://www.w3.org/2000/svg"><title>AniList icon</title><path d="M6.344 2.967l-.061.18c-.03.083-.057.169-.061.19a.203.203 0 01-.025.06.165.165 0 00-.02.064.546.546 0 01-.035.102 5.289 5.289 0 00-.104.287c-.04.123-.081.243-.092.265-.026.068-.136.376-.216.612a2.78 2.78 0 01-.09.245.324.324 0 00-.03.092.634.634 0 01-.03.102 5.228 5.228 0 00-.145.422c0 .004-.015.04-.033.082-.04.1-.25.7-.26.746a.203.203 0 01-.025.061.165.165 0 00-.02.064.754.754 0 01-.035.102c-.017.034-.06.15-.096.257l-.086.244a.78.78 0 00-.04.123l-.033.092c-.015.032-.029.075-.035.091-.005.025-.102.3-.143.408a.118.118 0 00-.008.03l-.059.168c-.033.092-.055.172-.047.178.007.006 0 .012-.012.012-.014 0-.025.016-.025.037 0 .02-.005.045-.014.053-.01.008-.016.022-.016.028a.874.874 0 01-.063.18.755.755 0 00-.035.102.932.932 0 01-.055.16c-.008.023-.051.142-.092.266a5.41 5.41 0 01-.094.265.464.464 0 00-.026.086.741.741 0 01-.04.106.376.376 0 00-.033.073.92.92 0 01-.051.16 1.342 1.342 0 00-.04.122.852.852 0 01-.038.104.441.441 0 00-.035.108.17.17 0 01-.022.07c-.018.034-.17.454-.283.793-.066.194-.218.62-.243.681a.954.954 0 00-.03.092.986.986 0 01-.054.155c-.055.135-.077.21-.067.222.008.007.002.013-.01.013-.014 0-.022.005-.022.014.002.01 0 .022-.001.03a.202.202 0 01-.008.031c-.002.01-.025.076-.05.149a.892.892 0 00-.042.15c0 .01-.007.025-.016.032a1.547 1.547 0 00-.092.236 17.908 17.908 0 01-.175.5c0 .005-.013.037-.025.071a.498.498 0 00-.028.082c-.005.01-.01.035-.017.05-.067.18-.098.278-.094.289.005.005-.004.024-.016.04a.275.275 0 00-.039.1.217.217 0 01-.028.082 5.143 5.143 0 00-.122.336 41.368 41.368 0 01-.165.47c-.001.005-.008.018-.01.03 0 .01-.008.025-.009.03l-.008.025c-.01.047-.039.127-.065.186a.517.517 0 00-.04.102c-.006.035-.12.365-.152.443l-.082.234a37.971 37.971 0 01-.132.377c-.02.056-.04.117-.047.133l-.016.051a5.179 5.179 0 01-.108.306.84.84 0 00-.055.163c-.01.039-.072.204-.09.245-.01.022-.047.122-.08.224-.1.292-.124.366-.138.398l-.019.051c0 .01-.042.127-.09.255a7.097 7.097 0 00-.124.357c-.01.023-.055.151-.1.286l-.095.275-.017.04a.678.678 0 01-.014.042c-.008.016-.05.14-.098.275-.128.371-.147.426-.142.435l-.029.063c-.018.032-.025.063-.018.071.008.007.001.012-.01.012-.014 0-.022.006-.02.015a.502.502 0 01-.045.159 85.299 85.299 0 01-.259.745.14.14 0 00-.01.044c.002.01-.004.017-.012.017-.01 0-.018.012-.018.024a.773.773 0 01-.023.092L0 21.056h4.943l.074-.22c.04-.12.134-.394.21-.606.073-.214.153-.447.175-.52.023-.074.053-.161.067-.194.025-.055.08-.208.084-.235.004-.026.055-.177.073-.214.01-.022.031-.081.047-.132.051-.168.322-.949.339-.98.016-.026.336-.03 2.699-.03 2.672 0 2.68 0 2.7.04.01.023.042.1.064.174a35.639 35.639 0 01.296.877c.01.037.53 1.569.548 1.612a.645.645 0 01.018.071c.004.022.02.067.033.102.014.033.029.07.03.082.002.01.017.055.031.095l.025.078 5.316-.001c3.533 0 5.345-.009 5.406-.023.05-.01.113-.024.141-.028a1.007 1.007 0 00.506-.347c.014-.016.02-.029.012-.029s0-.016.016-.036c.039-.045.051-.072.11-.27.03-.1.035-.263.037-1.54 0-.785-.004-1.464-.012-1.51a1.002 1.002 0 00-.296-.583.483.483 0 00-.14-.1c-.017 0-.029-.008-.029-.016 0-.016-.2-.092-.316-.12-.033-.008-1.57-.017-3.41-.019-1.843-.001-3.358-.01-3.364-.018-.008-.005-.014-2.846-.017-6.31 0-4.393-.009-6.316-.024-6.363-.012-.035-.016-.066-.01-.066.007 0 0-.012-.012-.026-.012-.016-.016-.033-.012-.039.043-.04-.277-.485-.349-.485-.014 0-.028-.006-.032-.017-.012-.026-.208-.106-.343-.136-.112-.025-.356-.029-1.57-.025-.79.004-1.459.012-1.485.02-.388.11-.594.282-.7.582-.08.224-.081.265-.083.95-.002.53-.004.584-.03.52-.017-.036-.031-.079-.035-.09a.244.244 0 00-.017-.05l-.167-.48a74.634 74.634 0 00-.214-.611l-.102-.296a3.07 3.07 0 00-.071-.194 2.94 2.94 0 01-.072-.21l-.049-.147H8.7c-1.855 0-2.344.005-2.35.025zM8.819 9.29c.01.029.014.06.005.066-.005.006-.001.012.008.012.013 0 .033.049.047.106.017.06.033.116.039.126.01.017.306.89.318.94l.018.052a15.901 15.901 0 01.163.49c.019.044.241.697.25.734.003.016.15.453.325.969a103.218 103.218 0 01.364 1.09c.005.03-.173.034-1.602.034-.885 0-1.608-.007-1.608-.013 0-.005.01-.047.022-.091a.997.997 0 00.023-.092c0-.006.008-.023.02-.037.012-.012.016-.024.01-.024-.007 0 0-.031.016-.068a.445.445 0 00.028-.085c.002-.013.023-.086.047-.164l.047-.153c.001-.008.033-.11.137-.448.012-.04.034-.106.049-.15.016-.04.022-.075.016-.075-.008 0-.004-.012.008-.026a.328.328 0 00.035-.096.49.49 0 01.043-.133c.001-.012.036-.13.08-.263.04-.133.077-.25.079-.265.005-.033.114-.384.128-.42.008-.017.014-.035.016-.041.002-.01.05-.161.168-.54l.081-.272c.004-.012.008-.037.012-.05l.063-.199c.033-.096.06-.183.062-.194.001-.012.022-.075.042-.142l.041-.133c.007-.024.096-.32.106-.347.006-.016.015-.04.017-.053l.07-.232.068-.208.06.171c.032.094.067.194.075.224z"/></svg>
