<svg role="img" viewBox="0 0 24 24" xmlns="http://www.w3.org/2000/svg"><title>Anime.js</title><path d="M12 0c2.893 0 5.547 1.0238 7.6193 2.7288L24 2.73l-.1407.9566-.511 3.4752-.0963.6585C23.7357 9.1218 24 10.53 24 12c0 6.6274-5.3726 12-12 12S0 18.6274 0 12 5.3726 0 12 0Zm1.3505 5.2h-.6234c-1.9911 0-3.5191.0996-4.584.2987-1.0648.199-1.844.5497-2.3374 1.0518-.4935.5021-.8095 1.2467-.948 2.2336l-.052.3896h4.3114l.026-.078c.0519-.2943.1601-.5237.3246-.6882.1645-.1645.4588-.2857.883-.3636.4242-.078 1.0432-.1169 1.857-.1169h.5194c.6926 0 1.2164.0303 1.5713.091.355.0605.619.186.7922.3765.1731.1905.2597.4935.2597.909 0 .0866-.0173.2857-.052.5974l-.1298 1.2206h-.078c-.3116-.4155-.8137-.7142-1.5063-.896-.6926-.1818-1.6535-.2727-2.8829-.2727h-.5194c-1.5756 0-2.7876.104-3.636.3117-.8484.2078-1.4718.5627-1.87 1.0648-.3982.5021-.6666 1.238-.8051 2.2076l-.078.5714c-.0519.329-.0778.658-.0778.987 0 .7444.1731 1.3331.5194 1.766.3463.4329.9047.7445 1.6752.935.7705.1904 1.8223.2857 3.1555.2857h.5454c.987 0 1.7661-.052 2.3375-.1559.5714-.1039 1.0302-.2683 1.3765-.4934.3463-.2251.7012-.5454 1.0648-.961h.052l-.2338 1.4025h4.4931l.935-6.5968c.1212-.9177.1818-1.6016.1818-2.0518 0-.4326-.0323-.8244-.097-1.1752l-.0384-.1764-2.6242.001.1407-.9567.1974-1.338a5.445 5.445 0 0 0-.2146-.0557c-.909-.2164-2.186-.3246-3.8308-.3246Zm-1.4285 7.298c.8311 0 1.4588.026 1.883.078.4242.052.7142.1428.87.2727.1558.1298.2338.316.2338.5584 0 .1558-.0087.277-.026.3636l-.052.2077c-.0519.3636-.1644.6363-.3376.8181-.1731.1818-.4848.3117-.935.3896-.4501.078-1.1427.1169-2.0777.1169h-.2597c-.7792 0-1.3809-.026-1.805-.078-.4243-.0519-.7316-.1514-.922-.2986-.1905-.1472-.2857-.3506-.2857-.6103l.026-.2597.0259-.2078c.052-.3636.1645-.6363.3376-.8181.1732-.1818.4892-.316.948-.4026.4588-.0866 1.1557-.1299 2.0907-.1299ZM23.0331 3.57h-4.4973l-.5111 3.4752h4.4973l.5111-3.4752Z"/></svg>