<svg role="img" viewBox="0 0 24 24" xmlns="http://www.w3.org/2000/svg"><title>Anime.js</title><path d="M12 0c2.808 0 5.3908.9645 7.4351 2.5803L17.6833 2.58C16.0247 1.5772 14.0797 1 12 1 5.9249 1 1 5.9249 1 12s4.9249 11 11 11 11-4.9249 11-11c0-1.4809-.2926-2.8934-.8232-4.183l1.0741.0003C23.7353 9.1197 24 10.5289 24 12c0 6.6274-5.3726 12-12 12S0 18.6274 0 12 5.3726 0 12 0Zm1.5886 5.09c1.6742 0 2.9739.1101 3.8991.3304.0745.0178.1473.0367.2186.0567l-.2011 1.3619-.1432.9736 2.6712-.0006.0389.1789c.0658.3572.0987.756.0987 1.1965 0 .4582-.0616 1.1543-.185 2.0884l-.9517 6.7144H14.461l.238-1.4275h-.053c-.37.423-.7313.749-1.0838.9781-.3524.2291-.8195.3966-1.401.5023-.5816.1057-1.3746.1586-2.3792.1586h-.5551c-1.357 0-2.4276-.097-3.2118-.2908-.7843-.1938-1.3526-.511-1.705-.9516-.3526-.4406-.5288-1.0398-.5288-1.7976 0-.3348.0264-.6697.0793-1.0045l.0793-.5816c.141-.9869.4142-1.7359.8195-2.247.4053-.511 1.0398-.8723 1.9033-1.0838.8636-.2115 2.0972-.3172 3.7009-.3172h.5287c1.2512 0 2.2293.0925 2.9343.2776.7049.185 1.216.489 1.5332.912h.0793l.1322-1.2425c.0352-.3172.0528-.5199.0528-.608 0-.423-.088-.7314-.2643-.9252-.1762-.1939-.445-.3216-.8063-.3833-.3612-.0617-.8944-.0925-1.5993-.0925h-.5287c-.8283 0-1.4583.0396-1.89.119-.4318.0792-.7314.2026-.8989.37-.1674.1674-.2775.401-.3304.7005l-.0264.0793H4.8915l.0528-.3965c.141-1.0045.4627-1.7623.965-2.2734.5022-.511 1.2952-.868 2.379-1.0706 1.0839-.2027 2.6391-.304 4.6658-.304h.6345Zm-1.454 7.4282h-.2907c-.9517 0-1.661.044-2.128.1322-.467.0881-.7887.2247-.965.4097-.1762.185-.2907.4626-.3436.8327l-.0264.2115-.0265.2643c0 .2644.097.4715.2908.6213.1939.1498.5067.2511.9385.304.4317.0528 1.0441.0793 1.8372.0793h.2643c.9517 0 1.6566-.0397 2.1148-.119.4582-.0793.7755-.2115.9517-.3965.1762-.185.2908-.4626.3436-.8327l.053-.2115c.0175-.0881.0263-.2115.0263-.37 0-.2468-.0793-.4362-.2379-.5684-.1586-.1322-.4538-.2247-.8855-.2776-.4318-.0529-1.0706-.0793-1.9166-.0793ZM23.444 3.43l-.5202 3.5372h-4.5775l.5201-3.5372h4.5776Z"/></svg>