<svg role="img" viewBox="0 0 24 24" xmlns="http://www.w3.org/2000/svg"><title>Anki</title><path d="M18.4941 0a.87.87 0 0 0-.2578.0313c-.151.0419-.2715.1095-.3847.1835-.2265.1482-.4295.3351-.629.5235-.1994.1883-.391.378-.5488.5137-.1061.0912-.206.145-.2402.168-.0402-.0085-.1525-.0216-.2852-.0665-.197-.0666-.4456-.1695-.7011-.2695-.2556-.1-.5139-.1975-.7793-.25-.1328-.0263-.27-.0431-.4258-.0254-.1168.0133-.2543.0522-.377.1367a.7.7 0 0 0-.1172.0996c-.1442.1547-.1943.3532-.2011.5098-.0068.1565.0192.2913.0547.4219.0709.261.1871.5119.3047.7597.1175.2479.238.4898.3183.6817.054.1292.0748.2397.086.2793-.0205.0357-.0687.1377-.1524.25-.1243.1667-.2986.3719-.4727.584-.174.212-.3484.4278-.4804.664-.066.1181-.123.243-.1543.3965s-.0303.358.0722.543.275.2947.422.3496c.1468.0548.2827.0715.4179.0781.2703.0133.5462-.0195.8184-.0547.272-.0352.5387-.0748.746-.0918.1396-.0114.252.0023.293.004.0276.0303.1104.1063.1914.2206.1202.1697.2603.3999.4082.6309s.3005.4636.4844.662c.092.0993.1917.1924.3281.2696s.3315.138.539.0977c.2077-.0404.3654-.1703.463-.293.0975-.1226.155-.2466.2031-.373.0961-.253.1505-.5234.2012-.793s.0947-.536.1425-.7383c.0323-.1362.0815-.2387.0958-.2773.0375-.017.1358-.0717.2695-.1133.1986-.0619.461-.126.7265-.1953s.5317-.1404.7774-.254c.1228-.0567.2438-.1226.3594-.2284.1156-.1059.234-.2745.2597-.4844.0258-.2099-.0501-.4006-.1367-.5313s-.1856-.2218-.291-.3066c-.2109-.1696-.4525-.306-.6934-.4375-.2408-.1315-.4805-.2552-.6582-.3633-.1196-.0727-.202-.1503-.2343-.1758-.0045-.0408-.0271-.151-.0254-.291.0025-.208.0248-.4781.041-.752.0161-.2738.0281-.5497-.004-.8183-.016-.1343-.0404-.2695-.1054-.4121s-.1872-.3052-.3789-.3945A.74.74 0 0 0 18.4942 0m1.584 4.3984c.0037.0025.0082.0054.0117.0079-.003.001-.0067.0028-.0097.0039 0-.0038-.0017-.0081-.002-.0118M17.5488 7.123l-.0039.0137c-.0021-.0027-.0037-.007-.0058-.0097.0035-.001.0064-.0028.0097-.004M9.4785 9.25a1 1 0 0 0-.1094.0078c-.2944.0404-.5317.2094-.6914.3887-.1596.1792-.2671.3784-.3613.5898-.1883.423-.3164.9102-.4375 1.4024-.1211.4921-.2322.9873-.3476 1.377-.1155.3896-.2838.6721-.2793.6679.0044-.0043-.2855.1528-.6797.252-.3943.099-.8918.1885-1.3887.289s-.9914.2084-1.4219.379c-.2152.0852-.4177.1839-.6035.3359s-.3634.3814-.416.6738.035.5702.1562.7773c.1212.2072.2752.3706.4473.5254.3441.3097.7684.5824 1.1992.8496s.8681.5257 1.2031.7559.5535.4762.5508.4707.0549.3191.0274.7246-.0964.9066-.1543 1.4102c-.058.5035-.1073 1.0067-.0781 1.4687.0145.231.0475.4541.1347.6777s.2498.4652.5117.6055.5526.141.7871.0898.4382-.1479.6387-.2636c.401-.2315.7923-.55 1.1797-.877s.7673-.6627 1.0898-.9101.6233-.3778.6172-.377.32.0458.6973.1973c.3772.1514.8338.3714 1.295.582.461.2107.9244.4123 1.373.5274.2242.0575.4459.0958.6855.082.2397-.0138.52-.0932.7344-.2988s.3063-.482.33-.7207c.0238-.2389-.0065-.4631-.0546-.6895-.0963-.4528-.2793-.9232-.4707-1.3926-.1914-.4693-.3917-.9333-.5274-1.3164s-.1668-.7111-.168-.705c-.001.006.1417-.2898.4024-.6016s.6122-.6775.955-1.0508c.343-.3733.6779-.7497.9259-1.1406.124-.1955.23-.3968.291-.629.061-.232.0708-.5215-.0586-.789s-.3641-.4407-.584-.5371-.4416-.138-.6719-.1621c-.4605-.0484-.965-.0194-1.4707.0176-.5056.0369-1.0096.085-1.416.0957s-.728-.0615-.7226-.0586-.2331-.2242-.4493-.5684-.4539-.791-.703-1.2324c-.2493-.4414-.5056-.8778-.8009-1.2344-.1476-.1783-.3038-.339-.5058-.4687-.1515-.0973-.3441-.1783-.5547-.1953a1 1 0 0 0-.1055-.002"/></svg>