<svg role="img" viewBox="0 0 24 24" xmlns="http://www.w3.org/2000/svg"><title>aNotepad</title><path d="M17.943 2.566a1.308 1.308 0 0 0-.925-.384h-1.31V1.31a1.31 1.31 0 0 0-2.617 0v.873h-2.619V1.31a1.31 1.31 0 0 0-2.618 0v.873H5.236V1.31a1.309 1.309 0 0 0-2.618 0v.873H1.31A1.311 1.311 0 0 0 0 3.492V22.69A1.311 1.311 0 0 0 1.31 24h15.708a1.311 1.311 0 0 0 1.309-1.31v-2.914c0-.582-.873-.582-.873 0v2.915a.447.447 0 0 1-.436.436H1.309a.447.447 0 0 1-.436-.436V6.546h16.581v1.012c0 .582.873.582.873 0V3.491c0-.347-.139-.68-.384-.925zm-3.98-1.257a.407.407 0 0 1 .131-.305.449.449 0 0 1 .742.305v.873h-.873zm-5.236 0a.407.407 0 0 1 .13-.305.449.449 0 0 1 .743.305v.873h-.873zm-5.236 0a.407.407 0 0 1 .13-.305.449.449 0 0 1 .743.305v.873H3.49zM.873 5.673V3.49a.447.447 0 0 1 .436-.436h3.055v.436a.432.432 0 0 1-.437.437c-.582 0-.582.872 0 .872a1.307 1.307 0 0 0 1.31-1.309v-.436H9.6v.436a.432.432 0 0 1-.437.437c-.581 0-.581.872 0 .872a1.307 1.307 0 0 0 1.31-1.309v-.436h4.363v.436a.432.432 0 0 1-.436.437c-.582 0-.582.872 0 .872a1.307 1.307 0 0 0 1.309-1.309v-.436h1.309c.238.006.43.198.436.436v2.182zm23.065-.017a1.745 1.745 0 0 0-3.194-.42c-2.387 4.145-4.782 8.286-7.174 12.428-.067.11-.072.16-.087.262l-.602 3.604c-.033.18.05.362.21.454.16.083.354.066.497-.044l2.862-2.356c.084-.073.089-.097.131-.166l7.183-12.436c.235-.4.298-.879.174-1.326zm-10.01 14.87.323-1.91 1.17.68zm2.103-1.885-1.518-.872 5.673-9.827 1.518.873zm6.982-12.095-.873 1.51-1.518-.873.873-1.51a.895.895 0 0 1 .532-.41.878.878 0 0 1 1.073.62.914.914 0 0 1-.087.663zM5.236 9.6a.432.432 0 0 1-.436.436h-.873c-.581 0-.581-.873 0-.872H4.8a.432.432 0 0 1 .436.436zm6.877 7.854c0 .241-.196.436-.436.437h-7.75c-.581 0-.581-.874 0-.873h7.75c.24 0 .435.196.436.436zm1.51-2.618c0 .241-.196.436-.437.437H3.927c-.582 0-.582-.873 0-.873h9.26c.24 0 .435.196.436.436zM6.109 9.6a.432.432 0 0 1 .436-.436H14.4c.58 0 .58.873 0 .872H6.545A.432.432 0 0 1 6.11 9.6zm8.727 2.618a.432.432 0 0 1-.436.437H3.927c-.582 0-.582-.873 0-.873H14.4a.432.432 0 0 1 .436.436z"/></svg>