<svg role="img" viewBox="0 0 24 24" xmlns="http://www.w3.org/2000/svg"><title>aNotepad</title><path d="M17.943 2.566a1.308 1.308 0 0 0-.925-.384h-1.31v-.873a1.309 1.309 0 0 0-2.618 0v.873h-2.618v-.873a1.309 1.309 0 0 0-2.618 0v.873H5.236v-.873a1.309 1.309 0 0 0-2.618 0v.873H1.31A1.311 1.311 0 0 0 0 3.491v19.2a1.311 1.311 0 0 0 1.309 1.308h15.709a1.311 1.311 0 0 0 1.309-1.309v-2.914a.436.436 0 0 0-.873 0v2.914a.447.447 0 0 1-.436.437H1.309a.447.447 0 0 1-.436-.437V6.545h16.581v1.013a.436.436 0 1 0 .873 0V3.49a1.308 1.308 0 0 0-.384-.925zm-3.98-1.257a.41.41 0 0 1 .131-.305.449.449 0 0 1 .742.305v.873h-.873zm-5.236 0a.41.41 0 0 1 .13-.305.449.449 0 0 1 .743.305v.873h-.873zm-5.236 0a.41.41 0 0 1 .13-.305.449.449 0 0 1 .742.305v.873h-.872zM.873 5.673V3.49a.447.447 0 0 1 .436-.436h3.054v.436a.432.432 0 0 1-.436.436.436.436 0 0 0 0 .873 1.307 1.307 0 0 0 1.31-1.309v-.436H9.6v.436a.432.432 0 0 1-.437.436.436.436 0 0 0 0 .873 1.307 1.307 0 0 0 1.31-1.309v-.436h4.363v.436a.432.432 0 0 1-.436.436.436.436 0 0 0 0 .873 1.307 1.307 0 0 0 1.309-1.309v-.436h1.309a.447.447 0 0 1 .436.436v2.182zm23.065-.018a1.745 1.745 0 0 0-2.138-1.23 1.759 1.759 0 0 0-1.056.811l-1.09 1.894-6.084 10.534c-.008.017-.017.026-.026.043a.438.438 0 0 0-.043.114.053.053 0 0 0-.01.035l-.008.07-.602 3.604a.434.434 0 0 0 .21.454.465.465 0 0 0 .497-.044l2.862-2.356.018-.01a.404.404 0 0 0 .113-.156l7.183-12.436a1.718 1.718 0 0 0 .174-1.327zm-10.01 14.871.323-1.911 1.17.68zm2.103-1.885-1.518-.873 5.673-9.826 1.518.872zm6.982-12.096-.873 1.51-1.518-.872.873-1.51a.895.895 0 0 1 .532-.41.878.878 0 0 1 .663.087.895.895 0 0 1 .41.532 1.005 1.005 0 0 1 .027.227.857.857 0 0 1-.114.436zM5.236 9.6a.432.432 0 0 1-.436.436h-.873a.436.436 0 0 1 0-.872H4.8a.432.432 0 0 1 .436.436zm6.877 7.854a.438.438 0 0 1-.436.437h-7.75a.436.436 0 0 1 0-.873h7.75a.438.438 0 0 1 .436.436zm1.51-2.618a.438.438 0 0 1-.437.436H3.927a.436.436 0 0 1 0-.872h9.26a.438.438 0 0 1 .436.436zM6.109 9.6a.432.432 0 0 1 .436-.436H14.4a.436.436 0 0 1 0 .872H6.545A.432.432 0 0 1 6.11 9.6Zm8.727 2.618a.432.432 0 0 1-.436.436H3.927a.436.436 0 0 1 0-.872H14.4a.432.432 0 0 1 .436.436z"/></svg>