<svg role="img" viewBox="0 0 24 24" xmlns="http://www.w3.org/2000/svg" width="24" height="24"><title>AWX</title><path style="fill:#2f8ccc;fill-opacity:1;stroke:none" d="M0 0h24v24H0z"/><path style="stroke:none;fill-rule:nonzero;fill:#fff;fill-opacity:1" d="M7.238 8.637h1.867l.668 3.558.989-3.558h1.86l.983 3.554.676-3.554h1.856L14.734 15H12.81l-1.114-4.004L10.578 15h-1.93Zm9.106 0h2.168l1.125 1.953 1.093-1.953h2.145l-1.98 3.078L23.066 15h-2.21l-1.254-2.047L18.344 15h-2.196l2.196-3.316ZM5.625 13.95H3.391L3.078 15H1.074l2.39-6.36H5.61L8 15H5.941Zm-.41-1.376-.7-2.285-.695 2.285Zm0 0"/></svg>