<svg role="img" viewBox="0 0 24 24" xmlns="http://www.w3.org/2000/svg"><title>Ansible AWX</title><path d="M14.48 17.27h3.73l1.34 7.12 1.97-7.12h3.72l1.97 7.11 1.35-7.11h3.71L29.47 30h-3.85l-2.23-8.01L21.16 30H17.3l-2.82-12.73Zm18.21 0h4.33l2.25 3.91 2.19-3.91h4.29l-3.96 6.16L46.13 30h-4.42l-2.51-4.09L36.69 30H32.3l4.39-6.63-4-6.1ZM11.25 27.9H6.78L6.16 30H2.15l4.78-12.72h4.29L16 30h-4.12l-.63-2.1zm-.82-2.75-1.4-4.57-1.39 4.57h2.79z" style="fill:#000" transform="matrix(.50023 0 0 .50275 -.075 .118)"/></svg>