<svg role="img" viewBox="0 0 24 24" xmlns="http://www.w3.org/2000/svg"><title>Ansible AWX</title><path d="M128 0h768v768H128V0z" fill="#2F8CCC"/><path d="M359.68 276.32h59.68l21.44 113.92 31.52-113.92h59.52l31.52 113.76 21.6-113.76h59.36L599.52 480h-61.6l-35.68-128.16L466.56 480H404.8l-45.12-203.68zm291.36 0h69.28l36 62.56 35.04-62.56H860l-63.36 98.56L866.08 480h-70.72l-40.16-65.44L715.04 480H644.8l70.24-106.08-64-97.6zM308 446.4h-71.52l-9.92 33.6H162.4l76.48-203.52h68.64L384 480h-65.92L308 446.4zm-13.12-44-22.4-73.12-22.24 73.12h44.64z" fill="#FFF"/></svg>