<svg role="img" viewBox="0 0 24 24" xmlns="http://www.w3.org/2000/svg"><title>Anta</title><path d="M24 15.21295a20.5852 20.5852 0 0 0-9.80227-7.46552 31.10601 31.10601 0 0 1 6.86393 1.0069l-1.54819-1.3112A29.26368 29.26368 0 0 0 2.77271 6.2371L.15366 8.05132c.32554-.0122.8351-.02395 1.16409-.02395a25.00746 25.00746 0 0 1 20.3298 10.4176Zm-11.73121-1.07032h-1.04947l-1.20017 4.30227H8.8612l1.19863-4.30227H8.95791l.32723-1.1779h3.31164zm-5.26143 1.7579.81589-2.9358h1.19427l-1.5302 5.48017h-1.1623l-.39911-2.72525-.7596 2.72525H4.00503l1.52944-5.48017h1.03949zM.14128 18.44498l2.80768-5.48018H4.1221l-.23172 5.48018h-1.1786l.05286-.73504H1.66261l-.36051.73504zm2.00952-1.85983h.68567l.20211-1.93582zm8.1668 1.85983 2.8084-5.48018h1.17378l-.23233 5.48018h-1.17867l.05283-.73504h-1.10197l-.35987.73504zm2.01026-1.85983h.68567l.20227-1.93582zM0 18.46148"/></svg>