<svg role="img" viewBox="0 0 24 24" xmlns="http://www.w3.org/2000/svg"><title>Anta</title><path d="M24 15.213a20.5852 20.5852 0 0 0-9.8023-7.4656 31.106 31.106 0 0 1 6.864 1.007L19.5135 7.443a29.2637 29.2637 0 0 0-16.7408-1.206L.1537 8.0513c.3255-.0122.835-.024 1.164-.024A25.0075 25.0075 0 0 1 21.6475 18.445ZM9.2851 12.9647h3.3117l-.328 1.178h-1.0495l-1.2001 4.3022h-1.158l1.1986-4.3023H8.958Zm-3.7506 0H6.574l.4334 2.9358.8159-2.9358h1.1942L7.4873 18.445H6.325l-.399-2.7252-.7597 2.7252H4.005ZM.1413 18.445l2.8077-5.4802H4.122l-.2317 5.4802H2.7118l.0529-.735h-1.102l-.3606.735zm2.0095-1.8599h.6857l.202-1.9358zm8.1668 1.8599 2.8084-5.4802h1.1738l-.2323 5.4802h-1.1787l.0528-.735h-1.102l-.3599.735zm2.0103-1.8599h.6856l.2023-1.9358ZM0 18.4615"/></svg>