<svg role="img" viewBox="0 0 24 24" xmlns="http://www.w3.org/2000/svg"><title>ANTPOOL</title><path d="M22.4353 18.2103 12.6317.372c-.2728-.496-.9864-.496-1.2592 0L1.5661 18.2103c-.2645.4794.0827 1.0663.631 1.0663h3.8272a.5034.5034 0 0 0 .35-.1405l5.2765-5.0451a.506.506 0 0 1 .6999 0l5.2765 5.045a.5033.5033 0 0 0 .35.1406h3.8272c.5455 0 .8927-.5869.631-1.0663zM9.2977 19.6238l2.2594 4.1137c.1929.35.6944.35.8873 0l2.2594-4.1137a.5058.5058 0 0 0-.0937-.609l-2.2594-2.1602a.506.506 0 0 0-.6999 0l-2.2594 2.1602a.4981.4981 0 0 0-.0937.609z"/></svg>