<svg role="img" viewBox="0 0 24 24" xmlns="http://www.w3.org/2000/svg"><title>Any.do</title><path d="M5.275.018h.18l.491-.001.531-.001L7.758.014h.484a17574219.635 17574219.635 0 0 1 2.66-.002l.13-.001c.7 0 1.398-.002 2.097-.003l2.16-.003c.403 0 .806 0 1.209-.002A340.922 340.922 0 0 1 18.054 0c1.084-.006 2.24 0 3.248.455v.096l.084.018c.281.077.546.24.778.413v.096l.081.033c.141.08.238.187.35.302l.145.096v.096h.095c.086.105.165.21.243.32l.067.092c.117.164.198.293.218.499h.096l.098.267c.036.091.075.18.116.27.087.202.132.407.175.622l.025.11c.174.857.12 1.772.12 2.642v.504a922.993 922.993 0 0 1 0 1.786V9.066a3851.733 3851.733 0 0 1 0 4.04V15.623a1418.704 1418.704 0 0 0 0 2.27c0 1.831 0 1.831-.136 2.436l-.024.113a5.69 5.69 0 0 1-.374 1.056h-.096l-.012.102c-.044.168-.12.27-.225.407l-.103.136-.092.121-.096.144h-.095l-.04.087a.769.769 0 0 1-.2.249h-.096v.096a5.88 5.88 0 0 1-.32.242l-.091.067c-.165.117-.293.199-.5.218v.096c-1.127.631-2.52.535-3.767.533h-.51a1032.998 1032.998 0 0 1-1.807 0h-.352a3939.826 3939.826 0 0 1-4.086 0H8.426a1360.623 1360.623 0 0 0-2.297 0c-1.826.001-1.826.001-2.484-.138l-.121-.025a3.343 3.343 0 0 1-.867-.322l-.144-.048v-.096l-.101-.012c-.174-.045-.293-.125-.441-.225l-.156-.103-.117-.092v-.095h-.096v-.096a.768.768 0 0 1-.336-.24v-.096h-.095v-.096h-.096a5.655 5.655 0 0 1-.222-.326l-.06-.094c-.15-.232-.15-.232-.15-.395H.548c-.53-1.082-.55-2.225-.547-3.41v-.535a349.064 349.064 0 0 1 0-1.893V7.49a312.758 312.758 0 0 1 0-1.56c-.006-2.308-.006-2.308.45-3.22h.097v-.192h.095l.014-.08c.044-.143.115-.25.196-.375l.088-.137c.157-.233.157-.233.23-.319h.096V1.51h.095l.048-.143h.096V1.27h.096v-.096c.1-.076.199-.147.303-.216L1.99.9c.374-.252.374-.252.522-.252V.552h.192V.456C3.537.122 4.382.017 5.275.017zm7.264 12.724c-.066.077-.066.077-.057.176h-.096v.096h-.095v.096h-.096v.096h-.096v.096l-.086.038c-.11.06-.183.123-.271.21l-.09.09-.092.093-.095.094-.089.09-.081.08c-.07.069-.07.069-.059.168h-.096v.096h-.096v.095l-.08.033c-.143.081-.242.182-.351.303v.096l-.192.096v.096l-.192.096v.095l-.086.04a1.058 1.058 0 0 0-.264.202 838.651 838.651 0 0 0-.185.185l-.1.1-.206.206a83.34 83.34 0 0 1-.518.518l-.097.096a813.646 813.646 0 0 1-.166.168c-.065.065-.065.065-.055.163l-.192.096v.096l-.192.096v.096l-.08.032c-.146.083-.246.19-.363.31l-.13.131-.098.102c-.19-.077-.318-.21-.46-.353l-.079-.08a95.898 95.898 0 0 1-.438-.44l-.472-.474-.482-.484-.945-.95-.143.049v.096c-.027.01-.054.022-.082.034-.136.076-.229.17-.339.28l-.129.13-.133.137-.136.137-.332.336c.142.293.342.486.59.693a.389.389 0 0 1 .13.17h.095v.096h.096v.096c.084.083.084.083.189.167.19.158.19.158.242.264h.096v.096h.096v.096h.096V18c.084.083.084.083.189.167.19.159.19.159.243.264h.095v.096h.096v.096c.084.083.084.083.19.168.189.158.189.158.242.263h.096v.096h.095l.04.093c.05.115.05.115.2.147v.096h.096v.096h.096v.096h.096v.095h.096v.096h.096v.096h.096v.096h.095v.096h.096l.036.093c.051.104.051.104.145.142.116.017.116.017.217-.078l.12-.124.133-.135a228.66 228.66 0 0 0 .274-.284l.253-.26c.117-.122.236-.241.356-.36l.19-.191 1.44-1.44.101-.1.167-.166a.925.925 0 0 0 .214-.27c.059-.113.123-.125.237-.182.077-.064.077-.064.15-.14l.084-.084.09-.092c.032-.03.063-.062.095-.094a133.234 133.234 0 0 0 .496-.5l.366-.37a90.414 90.414 0 0 1 .533-.535l1.061-1.06c-.147-.233-.147-.233-.344-.42-.135-.108-.135-.108-.183-.204h-.096v-.096h-.096v-.096h-.096v-.096h-.095v-.096h-.096v-.095h-.096v-.096c-.172-.058-.172-.058-.327.015z"/></svg>