<svg role="img" viewBox="0 0 24 24" xmlns="http://www.w3.org/2000/svg"><title>Anytype</title><path d="m1.9645 10.2937 1.203 3.4125h-.6598l-.9115-2.7127h-.0266l-.9098 2.7127H0l1.2014-3.4125h.7631zm4.2969 2.3262h-.03l-1.6063-2.3261h-.5532v3.4125h.6182v-2.3245h.0283l1.6079 2.3245h.5499v-3.4125h-.6148v2.3261zm2.9566-.8165h-.0333l-.8348-1.5096h-.6982l1.2414 2.1395v1.273h.6165v-1.273l1.2414-2.1395h-.6982l-.8348 1.5096zm2.0669-.9915h1.0547v2.8943h.6132v-2.8943h1.0548v-.5182h-2.7227v.5182zm4.8215.9915h-.0333l-.8348-1.5096h-.6982l1.2414 2.1395v1.273h.6165v-1.273l1.2414-2.1395h-.6982l-.8348 1.5096zm4.6504-.9598c.0922.17.1383.3632.1383.5799 0 .2188-.0461.4132-.1383.5832-.0922.17-.2283.3038-.4082.4016-.1799.0966-.4016.145-.6648.145h-.6532v1.1531h-.6182v-3.4125h1.2797c.2622 0 .4821.0489.6598.1466.1788.0976.3138.232.4049.4031zm-.4916.5799c0-.1211-.0239-.2277-.0717-.3199-.0466-.0922-.1194-.1639-.2183-.215-.0978-.0522-.2238-.0783-.3783-.0783h-.5665v1.2347h.5699c.1533 0 .2788-.0267.3766-.08s.17-.1266.2166-.22c.0478-.0933.0717-.2005.0717-.3215zm2.1202 1.7646v-.9314h1.4863v-.5182h-1.4863v-.9264h1.6013v-.5182h-2.2195v3.4125H24v-.5182h-1.6146z"/></svg>