<svg role="img" viewBox="0 0 24 24" xmlns="http://www.w3.org/2000/svg"><title>AOL icon</title><path d="M13.078 9.334c2.532 0 3.75 1.997 3.75 3.702 0 1.707-1.218 3.713-3.75 3.713-2.53 0-3.75-2.006-3.75-3.712 0-1.706 1.22-3.703 3.75-3.703m0 5.465c.9 0 1.67-.75 1.67-1.763 0-1.012-.77-1.752-1.67-1.752-.9 0-1.66.75-1.66 1.752 0 1.032.751 1.763 1.66 1.763m4.903-7.547h2.11v9.3h-2.11zm4.622 6.563c-.778 0-1.406.62-1.406 1.406 0 .769.62 1.406 1.407 1.406A1.407 1.407 0 0 0 24 15.23a1.405 1.405 0 0 0-1.406-1.405M5.532 7.252H3.656L0 16.552h2.484l.488-1.35h3.234l.45 1.351H9.16L5.53 7.251zM3.63 13.319l.973-3.245.975 3.245z"/></svg>