<svg role="img" viewBox="0 0 998 215" xmlns="http://www.w3.org/2000/svg" xmlns:xlink="http://www.w3.org/1999/xlink"><g clip-path="url(#a)"><path d="M338.14 144.285c-2.92 13.96-7.5 24.32-13.75 31.07s-15.12 10.13-26.63 10.13-19.01-3.38-22.51-10.13-3.79-17.11-.87-31.07l15.16-72.51h-34.29l-15.02 71.81c-1.87 8.94-2.76 16.97-2.76 24.16h.07l-.09.42c.01 2.66.14 5.23.41 7.65 1.02 9.05 3.77 16.46 8.25 22.21 4.47 5.76 10.53 10.01 18.16 12.78s16.67 4.14 27.1 4.14c10.28 0 19.81-1.34 28.58-4.03 8.77-2.68 16.6-6.91 23.48-12.66s12.78-13.08 17.72-21.98c4.93-8.9 8.69-19.56 11.29-31.99l15.16-72.51h-34.29zm236.16-74.22-29.43 140.74h108.62l6.12-29.23h-74.33l5.18-24.78h73.19l6.16-29.46h-73.19l5.86-28.04h74.33l6.11-29.23zm271.1 0h-33.37l-19.52 93.35-32.42-93.35h-46.58l-29.42 140.74h33.37l19.86-95 36.24 95h42.42zm31.5 0-29.42 140.74h104.53l6.11-29.23h-70.24l5.18-24.78h70.24l6.16-29.46h-70.24l5.87-28.04h70.23l6.11-29.23zm-665.18 140.74.21-1 5.66-27.06.29-1.4h-63.94l22.91-109.56h-34.3l-5.65 27.05-5.93 28.34-17.27 82.63-.22 1zm-115.01-79.9H36.82l45.67 67.99 14.1-67.43zm5.17-29.04.64-3.03 5.65-27.05H0l20.21 30.08zm356.87 77.44c-21.47 0-35.23-17.4-30.74-38.87s25.53-38.87 47-38.87c16.65 0 28.62 10.49 31.08 25.2h34.87c.61-33.53-23.52-58.88-58.91-58.88-40.07 0-79.34 32.48-87.72 72.55s17.31 72.55 57.38 72.55c34.46 0 68.28-24.06 82.42-56.28h-35.38c-8.96 13.33-24.35 22.6-40 22.6M297.869 38.622h-18.631l-5.135 8.417h-11.977L291.292.836h14.205l5.061 46.203h-11.976zm-13.424-8.573h12.658l-1.518-18.382zM340.736.836h19.775q8.82 0 12.499 3.93 3.718 3.9 1.829 11.14-1.897 7.274-7.657 11.204-5.721 3.9-14.541 3.899h-7.861l-4.181 16.03h-11.915zm9.663 8.634-3.367 12.905h6.592q3.466 0 5.79-1.672 2.332-1.701 3.139-4.796t-.645-4.766-4.918-1.671zm61.15 29.152h-18.63l-5.135 8.417h-11.977L404.973.836h14.205l5.061 46.203h-11.976zm-13.423-8.573h12.658l-1.519-18.382zm81.542 14.453a39 39 0 0 1-7.509 2.568 34.2 34.2 0 0 1-7.654.867q-11.543 0-16.61-6.437-5.06-6.468-2.178-17.516 2.89-11.08 11.316-17.516Q465.466 0 477.01 0q3.868 0 7.201.867a23.3 23.3 0 0 1 6.169 2.568l-2.494 9.563q-2.723-2.259-5.666-3.312-2.945-1.052-6.503-1.052-6.375 0-11.093 4.085-4.717 4.085-6.59 11.265-1.864 7.148.722 11.234 2.586 4.085 8.961 4.085 3.558 0 7.052-1.053t7.393-3.31zM512.929.836h11.914l-4.593 17.608h17.578L542.421.836h11.915l-12.053 46.203h-11.914l5.11-19.59h-17.578l-5.11 19.59h-11.915zm65.041 0h32.154l-2.349 9.005h-20.24l-2.244 8.603h19.033l-2.35 9.006h-19.032l-2.761 10.584h20.92l-2.349 9.005h-32.834zM966.348 196.35h12.864v2.72h-4.628v11.238h-3.599V199.07h-4.637zm15.724 0h4.581l3.179 7.47 3.197-7.47h4.572v13.958h-3.403v-10.209l-3.216 7.526H988.7l-3.216-7.526v10.209h-3.412z" fill="black"/></g><defs><clipPath id="a"><path d="M0 0h997.601v214.945H0z" fill="white"/></clipPath></defs></svg>