<svg width="998" height="215" viewBox="0 0 998 215" fill="none" xmlns="http://www.w3.org/2000/svg">
<g clip-path="url(#clip0_1_14)">
<path d="M338.14 144.285C335.22 158.245 330.64 168.605 324.39 175.355C318.14 182.105 309.27 185.485 297.76 185.485C286.25 185.485 278.75 182.105 275.25 175.355C271.75 168.605 271.46 158.245 274.38 144.285L289.54 71.7752H255.25L240.23 143.585C238.36 152.525 237.47 160.555 237.47 167.745H237.54L237.45 168.165C237.46 170.825 237.59 173.395 237.86 175.815C238.88 184.865 241.63 192.275 246.11 198.025C250.58 203.785 256.64 208.035 264.27 210.805C271.9 213.575 280.94 214.945 291.37 214.945C301.65 214.945 311.18 213.605 319.95 210.915C328.72 208.235 336.55 204.005 343.43 198.255C350.31 192.505 356.21 185.175 361.15 176.275C366.08 167.375 369.84 156.715 372.44 144.285L387.6 71.7752H353.31L338.14 144.285Z" fill="black"/>
<path d="M574.3 70.0652L544.87 210.805H653.49L659.61 181.575H585.28L590.46 156.795H663.65L669.81 127.335H596.62L602.48 99.2952H676.81L682.92 70.0652H574.3Z" fill="black"/>
<path d="M845.4 70.0652H812.03L792.51 163.415L760.09 70.0652H713.51L684.09 210.805H717.46L737.32 115.805L773.56 210.805H815.98L845.4 70.0652Z" fill="black"/>
<path d="M876.9 70.0652L847.48 210.805H952.01L958.12 181.575H887.88L893.06 156.795H963.3L969.46 127.335H899.22L905.09 99.2952H975.32L981.43 70.0652H876.9Z" fill="black"/>
<path d="M211.72 210.805L211.93 209.805L217.59 182.745L217.88 181.345H153.94L176.85 71.7851H167.58H142.55L136.9 98.8352L130.97 127.175L113.7 209.805L113.48 210.805H211.72Z" fill="black"/>
<path d="M96.71 130.905H36.82L82.49 198.895L96.59 131.465L96.71 130.905Z" fill="black"/>
<path d="M101.88 101.865L102.52 98.8352L108.17 71.7851H0L20.21 101.865H101.88Z" fill="black"/>
<path d="M458.75 179.305C437.28 179.305 423.52 161.905 428.01 140.435C432.5 118.965 453.54 101.565 475.01 101.565C491.66 101.565 503.63 112.055 506.09 126.765H540.96C541.57 93.2352 517.44 67.8852 482.05 67.8852C441.98 67.8852 402.71 100.365 394.33 140.435C385.95 180.505 411.64 212.985 451.71 212.985C486.17 212.985 519.99 188.925 534.13 156.705H498.75C489.79 170.035 474.4 179.305 458.75 179.305Z" fill="black"/>
<path d="M297.869 38.6218H279.238L274.103 47.0394H262.126L291.292 0.835571H305.497L310.558 47.0394H298.582L297.869 38.6218ZM284.445 30.0495H297.103L295.585 11.667L284.445 30.0495Z" fill="black"/>
<path d="M340.736 0.835571H360.511C366.391 0.835571 370.558 2.14566 373.01 4.76583C375.489 7.36538 376.098 11.079 374.839 15.9067C373.574 20.7551 371.022 24.4894 367.182 27.1095C363.368 29.7091 358.521 31.0088 352.641 31.0088H344.78L340.599 47.0394H328.684L340.736 0.835571ZM350.399 9.46977L347.032 22.3746H353.624C355.935 22.3746 357.865 21.8176 359.414 20.7035C360.968 19.5688 362.015 17.9699 362.553 15.9067C363.091 13.8436 362.876 12.255 361.908 11.1409C360.94 10.0268 359.301 9.46977 356.99 9.46977H350.399Z" fill="black"/>
<path d="M411.549 38.6218H392.919L387.784 47.0394H375.807L404.973 0.835571H419.178L424.239 47.0394H412.263L411.549 38.6218ZM398.126 30.0495H410.784L409.265 11.667L398.126 30.0495Z" fill="black"/>
<path d="M479.668 44.5017C477.185 45.6364 474.682 46.4926 472.159 47.0703C469.635 47.648 467.084 47.9368 464.505 47.9368C456.81 47.9368 451.273 45.7912 447.895 41.4999C444.522 37.1879 443.796 31.3493 445.717 23.9839C447.644 16.5979 451.416 10.7592 457.033 6.46791C462.655 2.15597 469.314 0 477.01 0C479.589 0 481.989 0.28884 484.211 0.866515C486.433 1.44419 488.489 2.30039 490.38 3.43511L487.886 12.9977C486.071 11.4916 484.182 10.3879 482.22 9.6864C480.257 8.98493 478.089 8.6342 475.717 8.6342C471.467 8.6342 467.769 9.99587 464.624 12.7192C461.479 15.4425 459.283 19.1974 458.034 23.9839C456.791 28.7497 457.032 32.4943 458.756 35.2176C460.48 37.941 463.467 39.3026 467.717 39.3026C470.089 39.3026 472.44 38.9519 474.769 38.2504C477.097 37.549 479.562 36.4452 482.162 34.9391L479.668 44.5017Z" fill="black"/>
<path d="M512.929 0.835571H524.843L520.25 18.4444H537.828L542.421 0.835571H554.336L542.283 47.0394H530.369L535.479 27.4499H517.901L512.791 47.0394H500.876L512.929 0.835571Z" fill="black"/>
<path d="M577.97 0.835571H610.124L607.775 9.84113H587.535L585.291 18.4444H604.324L601.974 27.4499H582.942L580.181 38.0338H601.101L598.752 47.0394H565.918L577.97 0.835571Z" fill="black"/>
<path d="M966.348 196.35H979.212V199.07H974.584V210.308H970.985V199.07H966.348V196.35Z" fill="black"/>
<path d="M982.072 196.35H986.653L989.832 203.82L993.029 196.35H997.601V210.308H994.198V200.099L990.982 207.625H988.7L985.484 200.099V210.308H982.072V196.35Z" fill="black"/>
</g>
<defs>
<clipPath id="clip0_1_14">
<rect width="997.601" height="214.945" fill="white"/>
</clipPath>
</defs>
</svg>
