<svg role="img" viewBox="0 0 24 24" xmlns="http://www.w3.org/2000/svg"><title>Apache icon</title><path d="M15.826 0a.776.776 0 0 0-.404.114c-.376.222-1.002.851-1.748 1.763l-.156.192c-.198.246-.403.512-.614.793a38.775 38.775 0 0 0-2.016 2.971l-.022.036-.044.072a40.932 40.932 0 0 0-1.709 3.081 25.602 25.602 0 0 0-1.1 2.557c-.091.251-.174.493-.25.726-.062.199-.122.398-.178.596-.133.467-.248.934-.342 1.398l.001.002-.013.061a14 14 0 0 0-.233 1.692l-.005.059c-.28-.449-1.029-.886-1.028-.882.537.778.944 1.55 1.004 2.308-.287.059-.681-.026-1.136-.194.474.436.83.556.969.588-.436.027-.889.327-1.346.671.668-.273 1.208-.38 1.595-.293a131.873 131.873 0 0 0-1.843 5.688.535.535 0 0 0 .364-.354c.11-.369.837-2.786 1.977-5.964l.098-.273.028-.076c.12-.333.245-.673.374-1.02l.089-.237.002-.005-.604-1.193.604 1.192c.119-.317.24-.638.365-.963l.052-.136.053-.137.041-.104-.041.105-.053.136-.052.136c-.125.325-.246.646-.365.963l.106.208.094-.01.01-.028c.153-.417.304-.824.454-1.22l.005-.014a103.604 103.604 0 0 0-.458 1.234l-.01.028-.067.183c-.118.325-.237.655-.356.993l-.005.015-.051.143c-.08.228-.15.433-.309.899.263.12.474.436.674.794a1.44 1.44 0 0 0-.466-.989c1.296.058 2.413-.269 2.991-1.217.052-.085.099-.173.141-.268-.262.333-.588.474-1.2.439.902-.404 1.354-.791 1.754-1.433a6.71 6.71 0 0 0 .281-.503c-.789.81-1.702 1.04-2.665.865h-.002l-.041-.007c.863-.107 2.01-.752 2.752-1.548.342-.367.652-.8.939-1.306.214-.377.414-.795.605-1.258.167-.404.327-.842.482-1.317a2.65 2.65 0 0 1-.81.261 4.998 4.998 0 0 1-.138.022l.002-.001.003-.001c.045-.007.089-.013.133-.021.045-.008.09-.016.134-.026l-.133.024-.132.023c.802-.31 1.308-.907 1.676-1.637a2.877 2.877 0 0 1-.968.424 3.217 3.217 0 0 1-.171.031l-.043.006.001-.001.009-.001.032-.005a2.887 2.887 0 0 0 .157-.029l.014-.003-.016.003-.194.033c.278-.117.513-.247.717-.401a2.858 2.858 0 0 0 .411-.391c.08-.095.155-.198.225-.31l.064-.104.077-.152a9.024 9.024 0 0 0 .368-.851l.031-.088c.028-.085.052-.161.07-.227.027-.099.044-.178.053-.236a.731.731 0 0 1-.094.064c-.243.145-.66.277-.996.339l-.099.011-.001.001-2.267.249-.012.024-.077.158-.235.488-.044.093.044-.093c.079-.166.157-.329.235-.488l.077-.158c.004-.009.009-.017.012-.026l-.084.009-.067-.132a54.24 54.24 0 0 0-.378.763l-.204.424a72.02 72.02 0 0 0-1.092 2.406 102.271 102.271 0 0 0-1.081 2.603l.086-.216a99.75 99.75 0 0 1 .995-2.387 73.112 73.112 0 0 1 1.092-2.407l.204-.424c.118-.244.237-.485.358-.724l.02-.038c.191-.378.384-.75.579-1.116.208-.39.42-.771.633-1.141a33.1 33.1 0 0 1 .672-1.119l.04-.064c.224-.354.45-.695.677-1.021a16.736 16.736 0 0 1 1.522-1.899l-.058.062c-.16.176-.644.741-1.375 1.863.704-.035 1.785-.179 2.667-.33.262-1.47-.257-2.142-.257-2.142S16.418.007 15.83.001zm-1.648 7.507c.66-.304.956-.579 1.242-.976.076-.11.153-.224.229-.343.233-.363.461-.764.665-1.162.197-.384.371-.765.504-1.109a5.76 5.76 0 0 0 .2-.6c.041-.157.074-.307.099-.449-.883.15-1.964.295-2.668.329a29.873 29.873 0 0 0-.696 1.122c-.204.345-.422.723-.65 1.137a50.238 50.238 0 0 0-1.193 2.299l2.267-.249zm3.628-5.309v.066h.156v.439h.072v-.439h.157v-.066h-.384zm.463 0v.506h.066v-.401l.172.348h.046l.172-.348v.401h.066v-.506h-.087l-.174.353-.175-.353h-.087zm-4.008 5.301l-.102.016.001-.001.1-.016zm-.09.012l-.005.002.005-.002zm-2.74 1.242l-.106.227-.133.287a77.678 77.678 0 0 0-.921 2.085 93.883 93.883 0 0 0-.999 2.446c-.148.378-.298.765-.449 1.163l-.005.014a77.678 77.678 0 0 1 2.374-5.709l.133-.287.106-.226z"/></svg>