<svg role="img" viewBox="0 0 24 24" xmlns="http://www.w3.org/2000/svg"><title>Apache JMeter icon</title><path d="M19.883 11.058c-1.64.023-1.727 1.586-1.72 1.98.065 2.545 2.639 1.865 2.84 1.781 0 0 .183-.074.273-.12a.065.065 0 00.034-.055v-.77a.062.062 0 00-.09-.056c-.488.247-1.014.324-1.32.264-.362-.071-.575-.325-.594-.759h2.15c.034 0 .062-.034.062-.062.008-.58.023-1.056-.265-1.52-.197-.321-.541-.663-1.37-.683zm.565 1.478h-1.123c.022-.898 1.142-.83 1.123 0zM3.415 8.698s.365-.486.549-.683a5.49 5.49 0 00-.514.695c-.075.116-.454.757-.502.844-.073.134-.15.276-.23.432-.07.132-.139.274-.213.423h-.008c.002.008 0 .012-.002.012-.01.019-.018.038-.03.058-.026.06-.057.12-.086.182-.03.067-.064.137-.097.207-.015.034-.034.069-.05.106-.051.109-.1.222-.151.338a32.354 32.354 0 00-.383.896c-.06.15-.122.3-.184.46-.055.14-.11.286-.167.435-.003.007-.004.015-.008.022l-.17.455c-.002.003-.002.008-.002.012-.008.022-.019.045-.027.068-.04.122-.194.556-.267.768.098.045.176.16.25.295a.535.535 0 00-.174-.37c.483.023.903-.1 1.117-.455a.711.711 0 00.052-.1c-.098.124-.22.178-.449.165.337-.151.506-.296.655-.536.034-.057.07-.119.105-.187-.302.314-.653.39-1.012.318.323-.04.752-.28 1.028-.578.127-.137.242-.299.35-.488.08-.14.154-.295.226-.469.062-.15.12-.315.177-.492a.95.95 0 01-.252.088s-.068.011-.101.019c.3-.115.49-.339.627-.613a1.093 1.093 0 01-.362.16c-.019.004-.073.015-.08.015.259-.106.419-.268.531-.453.052-.098.2-.41.223-.58l-.034.022a1.29 1.29 0 01-.371.127l-.004.002-.023.004c.242-.112.351-.213.457-.361.027-.04.058-.084.086-.13a4.921 4.921 0 00.436-.847c.03-.082.056-.157.074-.224.178-.664-.057-.969-.057-.969s-.162-.263-.379-.27h.001a.3.3 0 00-.158.043c-.14.083-.375.318-.652.658zm-.816.264c-.086.122-.173.25-.26.383-.073.113-.39.638-.465.77-.077.134-.16.276-.234.415a9.505 9.505 0 00-.688 1.58l-.066.223c-.05.174-.092.347-.127.521v.002l-.007.023c-.042.21-.071.422-.086.633l-.002.022c-.104-.167-.385-.332-.383-.33.2.291.353.58.375.864-.107.022-.255-.012-.424-.073.178.163.31.208.362.22-.162.01-.331.122-.502.251.249-.102.452-.144.596-.11-.23.647-.459 1.364-.688 2.124.07-.02.111-.07.135-.133a45.62 45.62 0 01.926-2.738l.034-.088v-.004c.043-.118.09-.238.135-.36a1.31 1.31 0 00.039-.101c.058-.15.12-.303.18-.457a35.7 35.7 0 01.179-.443c.062-.15.126-.297.19-.446a24.1 24.1 0 01.2-.455c.067-.149.137-.296.205-.443l.078-.16.133-.272c.002-.004.008-.007.008-.015h.002l.216-.416c.079-.145.158-.287.237-.426.082-.144.164-.282.25-.418.003-.007.01-.015.015-.022.084-.133.209-.322.251-.383l-.256-.48c-.086.097-.445.582-.56.743zm8.05-1.346c-.514 0-.81.44-.81.85 0 .432.33.88.799.88.262 0 .565-.143.675-.398l-.14-.072a.58.58 0 01-.526.318c-.362 0-.638-.342-.638-.718 0-.344.222-.71.63-.71a.54.54 0 01.506.303l.135-.08c-.106-.219-.328-.373-.63-.373zm-4.525.012L5.41 9.334h.18l.219-.533h.767l.221.533h.18l-.713-1.706zm1.035 0v1.706h.166v-.63h.555c.292 0 .49-.261.49-.54 0-.264-.211-.536-.504-.536zm1.832 0l-.715 1.706h.178l.219-.533h.767l.221.533h.182L9.13 7.628zm2.559 0v1.706h.164v-.798h1.011v.798h.168V7.628h-.168v.76h-1.011v-.76zm1.728 0v1.706h1.147v-.148h-.98v-.65h.835v-.143h-.836v-.615h.959v-.15zm-5.953.15h.532c.188 0 .347.172.347.387 0 .205-.13.39-.332.39h-.547zm-1.13.047l.341.844h-.693zm2.867 0l.341.844H8.71zm-3.639 2.181a.062.062 0 00-.062.063v4.628c0 .689-.55.63-.645.633-.2.008-.45-.047-.53-.064a.063.063 0 00-.073.06v.843c0 .03.019.053.047.06 1.367.258 1.972-.27 2.212-.834a1.93 1.93 0 00.126-.73v-4.596a.062.062 0 00-.063-.062zm1.555 0a.062.062 0 00-.063.063v4.767c0 .034.027.063.063.063h.902a.061.061 0 00.062-.063v-2.218c0-.062-.034-1.042-.037-1.088l.93 3.324a.064.064 0 00.06.045h.927a.066.066 0 00.061-.043l1.018-3.37c-.002.06-.03 1.036-.03 1.092v2.258c0 .034.026.063.062.063h.941a.061.061 0 00.063-.063V10.07a.062.062 0 00-.063-.063h-1.377a.064.064 0 00-.058.045l-1.045 3.475-.982-3.475a.061.061 0 00-.06-.045zm9.468.346a.06.06 0 00-.059.041l-.28.748-.528.323a.06.06 0 00-.03.052v.422c0 .034.026.062.062.062h.412v1.696c0 .24.023.703.344 1.003.441.403 1.342.262 1.668.092a.058.058 0 00.034-.054v-.743a.062.062 0 00-.084-.058c-.504.182-.69.104-.758.026-.05-.056-.086-.136-.086-.267v-1.696h.826a.061.061 0 00.063-.062v-.748c-.001-.034-.03-.06-.063-.06h-.826v-.716a.061.061 0 00-.062-.062zm-2.555.707c-1.639.023-1.727 1.586-1.72 1.98.065 2.545 2.64 1.864 2.84 1.782 0 0 .183-.075.273-.121a.065.065 0 00.034-.055v-.77a.062.062 0 00-.09-.056c-.487.247-1.014.324-1.32.264-.361-.071-.575-.325-.594-.759h2.15c.034 0 .062-.034.063-.062.007-.58.022-1.056-.266-1.52-.238-.388-.638-.665-1.37-.683zm8.768.582l-.127-.467a.06.06 0 00-.06-.045h-.753a.062.062 0 00-.062.061v3.646c0 .034.026.063.062.063h.994a.061.061 0 00.062-.063v-1.855c0-.808.5-.867.813-.867.019 0 .233-.004.334.03a.062.062 0 00.078-.06v-.934a.064.064 0 00-.043-.059c-.15-.022-.366-.063-.655.008-.214.06-.424.179-.644.54zm-8.203.896h-1.123c.026-.887 1.144-.838 1.123 0z"/></svg>