<svg role="img" xmlns="http://www.w3.org/2000/svg" viewBox="0 0 24 24"><title>Apache NetBeans IDE icon</title><path d="M11.988 0a.093.093 0 00-.004.002.093.093 0 00-.023.006.093.093 0 00-.004.002.093.093 0 00-.004.002L11.94.02 1.643 5.958a.093.093 0 00-.008.004l-.004.002a.093.093 0 00-.002.002.093.093 0 00-.004.002.093.093 0 00-.002.002.093.093 0 00-.004.002.093.093 0 00-.004.004.093.093 0 00-.003.004.093.093 0 00-.004.002.093.093 0 00-.002.004.093.093 0 00-.004.004.093.093 0 00-.002.004.093.093 0 00-.002.004.093.093 0 00-.004.004.093.093 0 00-.002.004.093.093 0 00-.002.004.093.093 0 000 .004.093.093 0 00-.002.006.093.093 0 00-.002.004.093.093 0 000 .004.093.093 0 00-.002.006.093.093 0 000 .004.093.093 0 000 .004.093.093 0 000 .006.093.093 0 000 .014v11.876a.093.093 0 000 .01v.004a.093.093 0 000 .006.093.093 0 000 .004.093.093 0 000 .004.093.093 0 00.002.004.093.093 0 000 .006.093.093 0 00.002.004.093.093 0 00.002.006.093.093 0 00.004.008.093.093 0 00.002.004.093.093 0 00.002.004.093.093 0 00.002.004.093.093 0 00.004.004.093.093 0 00.002.004.093.093 0 00.004.004.093.093 0 00.002.002.093.093 0 00.003.004.093.093 0 00.004.002.093.093 0 00.004.004.093.093 0 00.004.002.093.093 0 00.004.002.093.093 0 00.012.006l10.298 5.938.006.004a.093.093 0 00.002.002l.004.002a.093.093 0 00.014.008.093.093 0 00.003 0 .093.093 0 00.004.002.093.093 0 00.004.002.093.093 0 00.006 0 .093.093 0 00.004 0 .093.093 0 00.006.002.093.093 0 00.004 0 .093.093 0 00.017-.002.093.093 0 00.01-.002.093.093 0 00.014-.006.093.093 0 00.008-.004l.006-.004a.093.093 0 00.006-.004l10.29-5.934a.093.093 0 00.016-.008l.004-.002a.093.093 0 00.005-.002.093.093 0 00.002-.002.093.093 0 00.004-.004.093.093 0 00.004-.002.093.093 0 00.004-.004.093.093 0 00.004-.004.093.093 0 00.002-.002.093.093 0 00.004-.004.093.093 0 00.002-.004.093.093 0 00.002-.004.093.093 0 00.004-.004.093.093 0 00.002-.004.093.093 0 00.002-.006.093.093 0 000-.004.093.093 0 00.002-.004.093.093 0 00.002-.004.093.093 0 000-.006.093.093 0 00.002-.004.093.093 0 000-.004.093.093 0 000-.006.093.093 0 000-.004v-.006a.093.093 0 000-.008V6.06a.093.093 0 000-.012.093.093 0 000-.006.093.093 0 000-.004.093.093 0 000-.006.093.093 0 00-.002-.004.093.093 0 000-.004.093.093 0 00-.002-.004.093.093 0 000-.002.093.093 0 00-.002-.004.093.093 0 00-.004-.008.093.093 0 00-.002-.002.093.093 0 00-.002-.008.093.093 0 00-.002-.002.093.093 0 00-.004-.004.093.093 0 00-.002-.004.093.093 0 00-.004-.004.093.093 0 00-.002-.004.093.093 0 00-.004-.002.093.093 0 00-.004-.004.093.093 0 00-.004-.002.093.093 0 00-.003-.002.093.093 0 00-.016-.01L12.059.02a.093.093 0 00-.006-.004L12.05.014a.093.093 0 00-.008-.004.093.093 0 00-.004-.002.093.093 0 00-.01-.004.093.093 0 00-.004 0 .093.093 0 00-.004-.002.093.093 0 00-.005-.002.093.093 0 00-.004 0 .093.093 0 00-.006 0 .093.093 0 00-.004 0 .093.093 0 00-.004 0 .093.093 0 00-.01 0zm-.082.256v4.388L8.79 6.454 5.675 8.262 1.863 6.046zm.187 0l10.043 5.79-3.812 2.216-6.23-3.618zM12 4.804l6.139 3.565-6.14 3.519-6.138-3.519zM1.77 6.208l3.813 2.216V15.57L1.77 17.787zm20.46 0v11.579l-3.814-2.216V8.424zM5.769 8.53l6.137 3.519v7.084l-6.137-3.563zm12.462 0v7.04l-6.138 3.563V12.05zm-12.556 7.2l6.23 3.62v4.388l-10.044-5.79zm12.65 0l3.813 2.218-10.045 5.79V19.35l3.117-1.81z"/></svg>