<svg role="img" viewBox="0 0 24 24" xmlns="http://www.w3.org/2000/svg"><title>Apache Lucene</title><path d="M11.476 9.5a.8.8 0 0 0-.48.151.72.72 0 0 0-.272.406q-.07.258.05.409.123.15.401.149a.85.85 0 0 0 .366-.08l.058-.222a1 1 0 0 1-.178.077.6.6 0 0 1-.17.025q-.152 0-.215-.095-.062-.095-.017-.263a.5.5 0 0 1 .158-.26.4.4 0 0 1 .268-.095q.085 0 .156.023a.5.5 0 0 1 .137.077l.059-.22a.6.6 0 0 0-.149-.061.7.7 0 0 0-.172-.021m-4.468.02-.702 1.074h.29l.122-.195h.448l.018.195h.287L7.35 9.521Zm1.19 0-.291 1.074h.287l.1-.372h.19q.211 0 .35-.09a.44.44 0 0 0 .183-.262q.046-.168-.043-.259-.09-.09-.3-.09zm1.544 0-.701 1.074h.289l.123-.195h.448l.017.195h.288l-.122-1.073zm2.598 0-.29 1.074h.286l.123-.455h.423l-.122.455h.286l.291-1.073h-.287l-.112.408h-.422l.111-.408zm1.564 0-.29 1.074h.79l.057-.21h-.502l.066-.245h.457l.057-.21h-.46l.056-.2h.486l.057-.208Zm-5.473.201h.158q.083 0 .117.038.036.039.016.111a.2.2 0 0 1-.076.112.24.24 0 0 1-.14.04H8.35zm-1.32.051.037.427h-.305zm2.735 0 .037.427h-.305Zm1.751 1.308c-.964 0-1.91.755-2.11 1.687-.202.932.415 1.688 1.38 1.688.828 0 1.643-.56 1.983-1.31h-.852c-.216.31-.585.525-.962.525-.516 0-.847-.404-.739-.903.108-.5.614-.905 1.13-.905.4 0 .69.244.749.586h.839c.014-.78-.566-1.368-1.418-1.368m2.219.05-.708 3.274h2.614l.146-.68H14.08l.125-.577h1.761l.149-.686h-1.762l.141-.652h1.789l.146-.678zm3.35 0-.71 3.274h.804l.48-2.21.87 2.21h1.021l.708-3.273h-.804l-.469 2.17-.78-2.17zm3.93 0-.708 3.274h2.515l.147-.68h-1.689l.123-.577h1.691l.149-.686h-1.691l.14-.652h1.691l.147-.678zM0 11.17l.487.7H2.45l.016-.07.135-.63zm3.429 0-.135.63-.143.657-.416 1.922-.004.025h2.363l.004-.025.137-.63.008-.031H3.704l.551-2.548h-.224Zm2.71 0-.359 1.67a2.7 2.7 0 0 0-.066.563h.002l-.004.01q0 .091.01.177.037.315.199.516a.95.95 0 0 0 .438.299q.275.096.65.096.372 0 .689-.094.316-.095.565-.295t.426-.51.271-.745l.364-1.686h-.825l-.363 1.686q-.106.487-.333.722-.224.236-.639.236-.415-.001-.541-.236t-.022-.722l.366-1.686ZM.886 12.544l1.099 1.582.34-1.569.002-.013zm22.362 1.523v.063h.112v.262h.088v-.262h.111v-.063zm.38 0v.325h.082v-.238l.076.176h.057l.076-.176v.238H24v-.325h-.11l-.078.174-.076-.174z"/></svg>