<svg role="img" xmlns="http://www.w3.org/2000/svg" viewBox="0 0 24 24"><title>Apache JMeter icon</title><path d="M.826 13.833c-.01.032-.022.063-.033.093a41.123 41.123 0 00-.67 2.022.18.18 0 01-.123.12c.208-.69.416-1.34.624-1.928-.13-.03-.314.006-.54.099.154-.117.308-.219.455-.228-.047-.01-.167-.052-.328-.199.154.056.287.085.384.065-.02-.256-.158-.518-.34-.782-.001-.001.254.147.348.3l.002-.02a4.655 4.655 0 01.084-.594v-.002c.031-.158.069-.316.115-.474l.06-.202c.026-.079.055-.16.085-.246a8.33 8.33 0 01.34-.802l.033-.065a12.3 12.3 0 01.37-.691c.069-.12.14-.237.21-.353.006-.007.01-.016.015-.024l-.001-.002.007-.012a15.265 15.265 0 01.684-1.006c.071-.095.14-.185.208-.268l.053-.066.232.438a9.132 9.132 0 00-.243.367c-.077.123-.153.25-.228.38-.071.126-.142.255-.214.388l-.197.376-.202-.399.2.4-.006.013c-.04.082-.082.164-.121.246a6.261 6.261 0 00-.07.144l-.187.404c-.062.137-.123.274-.182.412a46.009 46.009 0 00-.336.808l-.163.415a5.92 5.92 0 01-.036.093c-.04.11-.083.217-.122.324v.004l-.03.08-.128.346-.009.026zm3.21-4.929c-.3.052-.665.1-.904.112.216-.331.368-.519.44-.601a5.672 5.672 0 00-.47.592l-.233-.439c.253-.308.465-.52.593-.597.263-.156.487.207.487.207s.177.228.087.726zm-.418-.54l-.02.02.02-.02zm.383.693c.014-.053.024-.103.034-.151-.298.05-.664.098-.903.11-.068.105-.143.225-.223.359-.005.008-.01.014-.012.021a16.63 16.63 0 00-.43.778c-.063.12-.127.248-.194.384h-.005v.002l-.026.003-.023-.044-.006.013c-.04.081-.082.163-.121.247l-.07.144a24.287 24.287 0 00-.54 1.221 28.132 28.132 0 00-.362.91c-.043.11-.084.219-.124.327l.037.071.026-.002-.022.058-.12.337-.001.005-.017.049-.105.305c.09.041.161.147.228.269a.49.49 0 00-.158-.336c.44.02.82-.091 1.014-.413.016-.029.033-.06.048-.091-.09.112-.199.16-.407.149.305-.137.459-.27.594-.486.032-.052.064-.108.096-.17a.957.957 0 01-.904.293l-.015-.003c.293-.037.682-.256.932-.526.116-.125.22-.27.318-.442.073-.128.14-.269.205-.427.056-.137.11-.285.162-.447a.906.906 0 01-.229.08l-.046.009-.047.007c.274-.105.445-.307.57-.556a.995.995 0 01-.328.145l-.058.01-.015.002c.094-.04.175-.084.245-.137.015-.01.028-.023.042-.035a1.09 1.09 0 00.06-.058l.037-.04a.771.771 0 00.076-.104l.022-.035c.009-.018.018-.035.025-.052a2.71 2.71 0 00.125-.288c.003-.01.008-.02.01-.03.01-.03.019-.055.025-.078a.768.768 0 00.018-.08.167.167 0 01-.032.02.962.962 0 01-.202.083h.008l.036.075.036-.075h.042v.138h-.03v-.087h-.003l-.037.075H3.24l-.037-.075v.087h-.03v-.129a1.413 1.413 0 01-.023.007v.01H3.11v.112h-.03v-.107l-.01.002c-.002 0-.003 0-.005.002l-.02.003.023-.011H3.04v-.027h.082a.88.88 0 00.338-.29 4.487 4.487 0 00.472-.886c.03-.074.052-.143.07-.204zm.922 5.393a.8.8 0 01-.05.305.49.49 0 01-.34.296c-.078.02-.162.03-.252.03-.095 0-.182-.006-.261-.018a3.48 3.48 0 01-.231-.041v.764a2.416 2.416 0 00.583.065c.218 0 .416-.028.596-.083.18-.055.333-.142.462-.26.13-.117.23-.265.302-.445.073-.18.11-.394.11-.642v-4.173h-.919v4.202zm14.453-2.381c.067.185.1.398.1.64v.438h-2.02c.005.126.024.24.06.343.037.1.09.187.154.258a.69.69 0 00.24.16.873.873 0 00.323.056c.1 0 .195-.004.284-.014a2.213 2.213 0 00.515-.131c.083-.034.168-.072.255-.116v.7a1.984 1.984 0 01-.78.22c-.102.009-.214.013-.337.013-.237 0-.455-.034-.654-.103-.2-.07-.371-.172-.516-.31a1.442 1.442 0 01-.337-.528 2.158 2.158 0 01-.119-.75c0-.29.037-.543.11-.76a1.52 1.52 0 01.305-.543c.133-.146.29-.255.474-.328.186-.073.39-.11.616-.11.22 0 .416.034.592.1.178.066.328.162.45.29.125.13.22.287.285.475zm-.75.476a1.114 1.114 0 00-.038-.278.63.63 0 00-.106-.22.496.496 0 00-.178-.147.55.55 0 00-.25-.053.528.528 0 00-.399.169c-.105.112-.165.288-.18.53h1.152zm-4.688-.476c.067.185.1.398.1.64v.438h-2.019c.004.126.023.24.059.343a.78.78 0 00.153.258c.067.07.148.123.24.16a.873.873 0 00.324.056c.1 0 .195-.004.284-.014a2.213 2.213 0 00.516-.131c.083-.034.167-.072.254-.116v.7a1.983 1.983 0 01-.78.22c-.102.009-.214.013-.337.013-.236 0-.455-.034-.654-.103-.2-.07-.371-.172-.515-.31a1.442 1.442 0 01-.338-.528 2.159 2.159 0 01-.119-.75c0-.29.037-.543.11-.76a1.52 1.52 0 01.305-.543c.133-.146.29-.255.474-.328.186-.073.39-.11.616-.11.22 0 .416.034.592.1.178.066.328.162.45.29.125.13.22.287.285.475zm-.75.476a1.114 1.114 0 00-.038-.278.63.63 0 00-.106-.22.496.496 0 00-.178-.147.55.55 0 00-.25-.053.528.528 0 00-.399.169c-.105.112-.165.288-.18.53h1.152zm-4.652 1.013H8.52l-.935-3.31h-1.25v4.33h.82v-2.015a6.79 6.79 0 00-.003-.186c0-.07-.002-.141-.006-.216a9.096 9.096 0 00-.008-.228 28.323 28.323 0 00-.039-.752h.027l.95 3.396h.844l1.024-3.39h.024a35.67 35.67 0 01-.03.737 348.965 348.965 0 01-.011.43V14.577h.856v-4.33h-1.25l-.996 3.31zm13.069-2.345a.542.542 0 00-.083-.006.975.975 0 00-.374.039.785.785 0 00-.23.112.902.902 0 00-.184.175c-.055.07-.107.146-.154.23h-.045l-.133-.496h-.684v3.31h.903v-1.685c0-.156.02-.287.057-.394a.661.661 0 01.162-.26.632.632 0 01.253-.146 1.113 1.113 0 01.396-.04c.03 0 .059.001.088.005a1.147 1.147 0 01.155.021v-.848a.25.25 0 00-.053-.008.691.691 0 00-.074-.01zm-5.754 2.704a.343.343 0 01-.25-.092c-.062-.061-.094-.156-.094-.284v-1.596h.806v-.678h-.806v-.705h-.577l-.261.698-.497.303v.382h.432v1.596c0 .213.025.39.077.533.053.14.126.252.217.337a.77.77 0 00.323.176 1.77 1.77 0 00.811.006 1.31 1.31 0 00.316-.108v-.672c-.083.03-.164.055-.245.074a1.04 1.04 0 01-.252.03zm6.35-3.503h.238v.782h.2v-.782h.239v-.168H22.2v.168zm1.525-.168l-.219.727h-.003l-.206-.727h-.274v.95h.18v-.442a1.448 1.448 0 00-.002-.088 2.01 2.01 0 00-.004-.1 6.19 6.19 0 00-.006-.115h.005l.21.745h.184l.225-.744h.005a7.795 7.795 0 01-.008.21v.535H24v-.95h-.274zM5.684 8.032l.649 1.55H6.17l-.201-.484H5.27l-.198.484H4.91l.648-1.55h.125zm.249.945l-.31-.766-.319.766h.629zm.717.605h-.151v-1.55h.642c.265 0 .457.246.457.487 0 .252-.179.49-.444.49H6.65v.573zm0-.708h.496c.183 0 .301-.168.301-.355 0-.195-.143-.351-.314-.351H6.65v.706zm.864.708l.649-1.55h.125l.648 1.55H8.77l-.2-.484h-.697l-.198.484h-.16zm.393-.605h.63l-.311-.766-.319.766zm1.75.616c.238 0 .513-.128.613-.36l-.126-.066a.527.527 0 01-.478.288c-.329 0-.58-.31-.58-.652 0-.312.203-.643.574-.643.167 0 .359.07.457.275l.123-.074a.61.61 0 00-.573-.338c-.466 0-.735.4-.735.772 0 .392.3.798.725.798zm.977-.736h.918v.725h.153v-1.55h-.153v.69h-.918v-.69h-.15v1.55h.15v-.725zm2.461.59h-.89v-.591h.759v-.13h-.76v-.558h.872v-.136h-1.021v1.55h1.04v-.136z"/></svg>