<svg role="img" viewBox="0 0 24 24" xmlns="http://www.w3.org/2000/svg"><title>Apache icon</title><path d="M15.827 0a.776.776 0 00-.404.114c-.376.222-1.002.851-1.748 1.763l-.156.192c-.198.246-.403.512-.614.793a38.777 38.777 0 00-2.017 2.971l-.022.036-.044.072a40.934 40.934 0 00-1.709 3.081 25.603 25.603 0 00-1.1 2.557c-.09.251-.174.494-.25.727-.062.199-.122.398-.178.596-.133.467-.248.934-.342 1.398l.001.002-.013.06a14 14 0 00-.233 1.693l-.005.059c-.28-.45-1.029-.886-1.028-.882.537.778.944 1.55 1.004 2.308-.287.059-.68-.026-1.136-.194.474.436.83.556.97.588-.437.027-.89.327-1.347.67.668-.272 1.208-.38 1.595-.292A131.878 131.878 0 005.208 24a.535.535 0 00.364-.354c.11-.369.837-2.786 1.977-5.964l.098-.273.028-.076c.12-.333.245-.673.374-1.02l.09-.237.001-.005-.604-1.193.604 1.192c.12-.317.24-.638.365-.963l.052-.136.053-.137.041-.104-.04.105-.054.136-.052.136c-.125.325-.246.646-.365.963l.106.208.094-.01.01-.028c.153-.417.304-.824.454-1.22l.005-.014a103.608 103.608 0 00-.458 1.234l-.01.028-.067.183c-.118.325-.237.655-.356.993l-.005.015-.05.143c-.08.228-.15.433-.31.899.263.12.474.436.674.794a1.44 1.44 0 00-.466-.99c1.296.059 2.413-.268 2.991-1.216.052-.085.1-.173.141-.268-.262.333-.588.474-1.2.439.902-.404 1.354-.791 1.754-1.433a6.71 6.71 0 00.281-.503c-.789.81-1.702 1.04-2.665.865h-.002l-.04-.007c.862-.107 2.01-.752 2.751-1.548.343-.367.653-.8.94-1.306.214-.377.414-.795.605-1.258.167-.405.327-.843.482-1.318a2.65 2.65 0 01-.81.261 4.998 4.998 0 01-.138.022h.002l.003-.002.133-.02c.045-.009.09-.017.134-.027l-.133.024-.132.023c.802-.31 1.308-.907 1.676-1.637a2.877 2.877 0 01-.968.424 3.217 3.217 0 01-.171.031l-.043.006.01-.002.032-.005a2.887 2.887 0 00.157-.029l.014-.003-.016.003-.194.033c.278-.117.513-.247.717-.4a2.858 2.858 0 00.41-.392c.08-.095.156-.198.226-.31l.064-.104.077-.152a9.024 9.024 0 00.368-.85l.03-.089c.029-.085.053-.16.07-.227.028-.099.045-.178.054-.236a.731.731 0 01-.094.064c-.243.145-.66.277-.996.34l-.1.01v.001l-2.268.25-.012.023-.077.158-.235.488-.044.093.044-.093a45.7 45.7 0 01.235-.488l.077-.158c.004-.009.01-.017.012-.026l-.084.01-.067-.133a54.242 54.242 0 00-.378.763l-.204.424a72.023 72.023 0 00-1.092 2.406 102.275 102.275 0 00-1.08 2.604l.085-.216a99.754 99.754 0 01.995-2.388A73.115 73.115 0 0111.18 8.82l.204-.424c.118-.244.237-.485.358-.724l.02-.038c.191-.378.385-.75.58-1.116.208-.39.42-.77.633-1.14a33.101 33.101 0 01.672-1.12l.04-.064c.224-.354.45-.695.677-1.02a16.737 16.737 0 011.522-1.9l-.058.062c-.16.176-.644.741-1.375 1.863.704-.035 1.785-.179 2.667-.33.262-1.47-.257-2.142-.257-2.142S16.419.007 15.83.001zm-1.648 7.507c.66-.304.956-.579 1.242-.976.076-.11.153-.224.229-.343.233-.363.46-.764.665-1.162.197-.384.37-.765.504-1.109a5.76 5.76 0 00.2-.6c.04-.157.074-.307.099-.449-.883.15-1.964.295-2.668.33a29.874 29.874 0 00-.696 1.121c-.204.345-.422.723-.65 1.137a50.24 50.24 0 00-1.194 2.3l2.268-.25zm3.628-5.309v.066h.156v.44h.072v-.44h.157v-.066h-.384zm.463 0v.506h.066v-.4l.172.347h.046l.172-.348v.401h.066v-.506h-.087l-.174.353-.175-.353h-.087zM14.262 7.5l-.102.016.1-.017zm-.09.012l-.005.002zm-2.74 1.242l-.107.227-.133.287a77.681 77.681 0 00-.92 2.085 93.887 93.887 0 00-1 2.447c-.148.378-.298.765-.449 1.163l-.005.014a77.681 77.681 0 012.374-5.71l.133-.287z"/></svg>