<svg role="img" viewBox="0 0 24 24" xmlns="http://www.w3.org/2000/svg"><title>Apache Doris</title><path d="M8.666 0a3.338 3.338 0 0 0-1.524.338c-.207.105-.575.38-.818.612-1.028.98-1.287 2.514-.655 3.868.205.44.507.77 2.847 3.117 2.453 2.46 2.636 2.625 2.886 2.626.244 0 .364-.1 1.44-1.19.937-.95 1.231-1.3 1.454-1.729.597-1.15.649-2.051.174-3.014-.226-.46-.482-.751-1.901-2.176-.902-.905-1.79-1.75-1.975-1.877C10.049.201 9.354.005 8.666 0ZM3.552 5.574c-.218.003-.61.085-.61.328V17.993l.164.175c.112.119.25.174.434.174.255 0 .444-.173 3.35-3.078 2.686-2.686 3.078-2.91 3.079-3.305 0-.396-.393-.62-3.079-3.306-2.861-2.862-3.097-3.08-3.338-3.08Zm13.096.86c-.048.02-.112.164-.141.323-.076.403-.372 1.11-.658 1.566-.14.226-2.239 2.396-5.049 5.222-2.75 2.766-4.91 4.998-5.046 5.216-.456.728-.597 1.39-.469 2.197.222 1.394 1.326 2.68 2.549 2.969.467.11 1.618.093 2.033-.03a3.11 3.11 0 0 0 .705-.332c.503-.338 9.341-9.057 9.647-9.516.448-.675.835-1.071.839-1.976-.006-.593-.13-1.114-1.071-2.306-.51-.652-3.235-3.372-3.339-3.332Z"/></svg>