<svg role="img" viewBox="0 0 24 24" xmlns="http://www.w3.org/2000/svg"><title>Apache Flink icon</title><path d="M2.91 12.72c-.15-.43-.17-.88-.18-1.26 0-.39.03-.81.1-1.29.06-.41.13-.89.27-1.36.06-.2.14-.45.27-.69-.07.33-.14.65-.2 1.3 0 .08-.02.43-.02.43s.43-1.89 2.42-2.1c-.4.6-.73 1.24-.97 1.89-.22.59-.36 1.15-.42 1.72-.05.42-.05.83 0 1.22-.02.02-.05.03-.07.05-.14-.68-.19-1.29-.16-1.87.03-.47.2-1.67.2-1.67-.06.08-.28.43-.33.52-.28.59-.43 1.26-.46 2.06-.02.56.03 1.14.14 1.76a.596.596 0 0 1-.18-.07h-.01l-.02-.02-.1-.1c-.11-.14-.2-.31-.28-.52zm1.67-.65c0 .13.03.3.06.43.18-.11.38-.2.63-.27.42-.12.89-.24 1.46-.38l.19-.05c.48-.12.97-.24 1.44-.42.28-.11.55-.25.82-.44.38-.26.72-.58 1.01-.95.15-.2.23-.35.31-.6l.11-.38s.46.52 0 1.44c.3-.11.58-.41.8-.79.18-.31.49-1.45.49-1.45s.57.87-.1 2.01c.04-.01.27-.14.36-.23 2.51-2.49.35-3.9-.1-4.24-.27-.2-.59-.37-.98-.52-.04 0-.06 0-.08-.01-.03-.01-.05-.03-.05-.04l-.32-.35.56.16.23.06c.61.18 1.08.4 1.47.69.44.32 2.14 1.75.35 3.84.56-.19 1.61-.77 1.96-1.27 1.71-2.41-.25-3.81-.17-3.81.02 0 .04 0 .1.01.02 0 .05.01.07.01.04 0 .1-.01.11-.04.01-.04-.01-.12-.07-.17-.15-.12-.32-.2-.53-.17-1.78.26-2.41-.29-2.41-.29s2.48.13 2.56-.28c-.33-.34-.73-.64-1.22-.91a6.59 6.59 0 0 0-2.23-.74c-1.21-.18-2.13.05-2.13.05.1-.12.57-.67 2.56-.51.8.06 1.56.32 2.27.67.18.09.28-.13.29-.23 0-.11.2.38.2.4.02-.04.1-.3.11-.3.05 0 .24.6.24.6 0-.02.26-.29.26-.29.08.34.07.51.05.56 0-.01.27-.17.27-.17s.15.64.41.89c.08.08.24.3.33.53.19-.13.42-.8.42-.8s.12.35.02.99c.01-.01.3-.22.3-.22s.04.45-.15 1.01c-.01.03-.02.06-.02.09.16-.09.4-.39.4-.39l-.05.2c-.05.21-.14.63-.33.95-.12.21-.23.43-.29.69.05-.05.1-.08.15-.12.1-.07.2-.12.29-.15l.23-.08c.39-.14.79-.31 1.17-.48.81-.36.63-.86.63-.86-.21.41-.97.82-.97.82s.98-.88.56-1.9c-.11.27-.22.54-.33.79-.12.34-.29.71-.56 1.04-.14.17-.29.29-.45.37-.03.02-.07.03-.11.05l-.04.02s.17-.28.18-1.06c0-.28.01-.57.01-.83v-.46c0-.56.01-.98.13-1.37-.01-.02-.01-.05-.02-.07a.774.774 0 0 1-.07-.16c-.04-.09-.07-.18-.1-.28-.13-.36-.31-.54-.36-.59-.04.12-.27.59-.27.59v-.39c-.07-.51-1.33-.97-1.36-.99l.07.4s-.38-.03-.54-.28c-.03-.05-.08-.09-.13-.13l.09.31.09.21s-.3-.02-.44-.27c-.03-.06-.07-.12-.11-.19a.745.745 0 0 0-.57-.4c-.18-.03-.38-.05-.6-.06a1.32 1.32 0 0 1-.48-.11c-.03.01-.06 0-.09-.01.02.03.03.06.05.09.01.03.03.06.04.1l.01.02.03.08.05.17s-.35-.01-.76-.3c-.09-.06-.2-.06-.32-.07h-.03c-.11-.01-.22-.01-.33-.01-.33 0-.63.04-.92.13-.02.01-.04.01-.06.02h.18c.68.01.89.41.89.41s-.61 0-.78.02c-.21.03-.42.05-.62.11a4.7 4.7 0 0 0-1.65.78c-.12.09-.25.17-.39.26-.23.14-.42.34-.57.57-.02.03-.03.05-.04.07-.01.04 0 .04.02.05.05.02.1.05.17.06.96.24 1.67 1.04 1.78 2.01l.01.12c.04.31.08.62.06.95-.04.83-.34 1.58-.9 2.19-.59.64-1.32.69-1.31.68.43-.4.72-.95.87-1.66.06-.27.03-.53-.08-.83-.01.02-.01.04-.02.05-.1.28-.22.59-.45.86-.13.15-.31.32-.52.52-.91.87-2.43 2.32-2.4 4.62zM18.6 6.66c-.11.1-.23.2-.34.29-.2.17-.35.28-.67.39-.28.1-.49-.12-.49-.12.18-.09.32-.22.45-.39-.35.18-.77.42-1.15.71-.13.1-.3.24-.39.35-.12.16-.21.32-.21.48 0 0 .04-.01.05-.01.44-.11.88-.31 1.23-.49.55-.29 1.13-.64 1.76-1.07.02-.02.05-.04.1-.05l.37-.11-.23.31c-.01.03-.02.05-.03.06-.74.74-1.52 1.27-2.36 1.62-.16.07-.33.13-.49.17.57-.15 1.06-.32 1.51-.52.54-.24.91-.48 1.22-.77.48-.45.81-.98 1.01-1.58.01-.03.02-.06.02-.1-.03.01-.11.03-.11.03-.13.04-.26.07-.37.13-.16.08-.31.19-.43.29-.15.13-.32.27-.45.38zM1.58 14.99c.13.2.27.41.4.6l.02.03c-.35-1.24.22-1.98.22-1.98l.14.39c.04.1.09.2.17.3.15-.27.33-.54.53-.78-.18-.09-.33-.23-.47-.42-.2-.26-.33-.58-.42-1-.1-.47-.12-.99-.07-1.56.01-.17.04-.35.06-.52-.72.8-1.26 1.72-1.63 2.72v.02c.25.74.59 1.46 1.05 2.2zM18.22 3.35c0-.7.12-1.34.37-1.93 0 0 .01-.03.02-.04-.09.06-.17.14-.25.25-.17.24-.29.53-.4.93-.18.69-.29 1.43-.34 2.31.19-.2.51-.66.57-1.21.02-.1.03-.2.03-.31zm3.37 19.01c-.4-.07-1.23-.36-1.47-.95-.29.71.31 1.22.75 1.45.08.04.1.05.18.08.08.04-.17.49.04.7.21.21.41.15.49.15 0 0 .36.34.57.11.05-.06.1-.26.03-.38-.09-.15-.3-.12-.32-.12-.41.01-.37-.19-.31-.27.05-.06.13-.06.21-.06h.05c.09.01.18.02.27.02.33 0 .73-.03.99-.18.19-.1.49-.46.48-.69-.03.02-.84.33-1.96.14zm2.36-7.52s-.04-.04-.06-.05c-.02-.01-.03-.03-.05-.04-.05-.04-.1-.08-.16-.12a.326.326 0 0 0-.13-.04c-.08 0-.15.03-.21.1l-.09.11.13.11.07.06c.12.1.23.2.34.31-.01.17-.08.32-.18.43-.13.14-.27.18-.42.2-.16.03-.28-.05-.28-.05s-.09.5-1.12.5h-.06c-.3 0-.59.08-.92.26-.43.35-1.38.32-1.38.32-.27-.05-.52-.11-.76-.21-.45-.18-.84-.43-1.15-.81-.17-.2-.29-.43-.37-.68a.488.488 0 0 1-.03-.07c0 .24.05.47.15.69.21.43.56.72 1 .9.38.16.77.22 1.18.2l.09.1c.04.05.09.06.12.07.17.04.34.06.54.06.08 0 .53-.1 1 .13.04.02.1.05.17.05.03 0 .07-.01.1-.02l.05-.02c.11-.04.33-.13.33-.13 1.34-.29 1.53.72 1.53.72a.238.238 0 0 0-.12-.03c-.05 0-.1.02-.15.05l-.15.12.23.14c.05.03.09.06.13.08.05.04.07.08.07.16-.01.21-.25.42-.48.42-.03 0-.05 0-.08-.01-.09-.02-.14-.05-.17-.1-.03-.04-.09-.09-.16-.09h-.06c-.07 0-.15.01-.22.02h-.02c-.1.02-.2.04-.29.04-.03 0-.06 0-.09-.01l-.13-.03-.2-.05-.03.12c-.05.18-.13.34-.25.49-.26.33-.61.56-1.06.71-.34.11-.7.17-1.08.17-.2 0-.41-.02-.63-.05-.81-.12-1.38-.56-1.69-1.31-.05-.13-.09-.26-.12-.4-.02-.08-.04-.15-.06-.22-.11-.37-.24-.69-.42-.99-.32-.55-.71-.95-1.21-1.21-.4-.21-.83-.31-1.29-.31-.19 0-.39.02-.59.05-.08.02-.17.02-.25.05-.43.17-.49.24-.49.24l.21.01c.04 0 .11.01.19.02.09.01.17.02.21.02.15.01.29.01.42.03.58.06 1.1.23 1.56.52.61.39.99.87 1.15 1.47.1.37.24.74.42 1.1.11.21.24.46.44.67.28.3.64.51 1.13.64.13.04.26.08.37.11.01 0 .03.01.04.05.06.16.08.31.04.47-.05.25-.17.47-.36.7-.16.18-.36.31-.55.45-.11.07-.21.15-.3.23-.12.1-.18.23-.17.37.01.12.01.31.21.31.04 0 .09-.01.17-.04.03-.01.07-.02.1-.04l.17-.07c.1-.04.19-.08.29-.12.19-.08.38-.12.56-.12.09 0 .19.01.28.03.26.06.5.21.56.41 0 0 .18.79-1.14.78-.11 0-.21-.03-.33-.05l-.06-.01c-.13-.03-.24-.04-.34-.04-.1 0-.19.02-.28.03l-.04.01c-.31.07-.59.09-.96.09l-7.85-.01c-.69 0-1.35-.1-1.96-.26-2.51-.66-4.3-2.07-5.47-4.21C.6 18.74.32 17.9.17 17c.01.01.07.21.07.21.34.6.76 1.06.76 1.06s-.95-2.54-.95-2.65c0-.35.02-.7.06-1.06.03.09.05.18.09.26.43 1.22 1.08 2.36 1.98 3.49.02.03.04.06.05.09.14.43.33.84.56 1.22-.53-.11-1.29-.86-1.29-.86l.1.19c.59 1.14 1.99 1.84 2.26 1.94.8.71 1.77 1.23 2.89 1.53.06.02.13.03.19.05l.54.13-.35-.34c-.04-.04-.08-.05-.11-.06-.79-.28-1.51-.68-2.15-1.18-.83-.65-1.43-1.45-1.77-2.38-.04-.11-.04-.17-.02-.22.02-.05.03-.1.04-.15.01-.04.02-.06.02-.09.18-.6.46-1.08.85-1.44.36-.34.83-.59 1.42-.77.57-.17 1.16-.24 1.74-.32l.25-.03c.33-.04.66-.09.97-.14l.17-.03c-.22.28-.4.58-.56.89-.04.01-1.21.28-1.35.31-1.86.4-1.99 1.58-1.99 1.58s.8-1.07 2.74-1.12h.07c.08 0 .16 0 .24.01-.54 2.8.5 3.77.49 3.74-.24-.9-.29-1.71-.18-2.49.15-1.01.59-1.88 1.33-2.59.5-.48 1.13-.89 1.92-1.24.69-.31 1.41-.49 2.1-.66l.13-.03c.5-.12 1.01-.24 1.5-.39.77-.22 1.43-.59 1.98-1.1.08-.08.18-.16.26-.27.39-.5.83-.88 1.33-1.17.07.32.25.62.55.8-.32-.54-.47-1.09-.33-1.6.14-.45.38-.68.63-1.12.03-.06.06-.13.09-.2 0 .02-.01.04-.01.06-.09.5.03.95.27 1.4.33.59.32.86.03 1.49 0 0 .06.04.21-.05.27-.17.3-.45.3-.45.1-.43-.31-1.14-.44-1.5-.11-.3-.2-.8-.12-1.11.33.1.74.4.98.66.26.28.47.69.44 1.07-.01.15-.09.35-.2.54-.05.08-.02.26.13.26.12 0 .17-.02.26-.14.11-.14.18-.28.21-.42 1 .47 1.74 1.45 1.88 2.6 0 .04.01.08.01.11.01.1.02.21.05.32.04.12.1.24.15.35.02.05.05.09.07.14.02.04.04.08.06.13.04.09.09.19.13.28.05.13.06.21.05.3zm-1.21-1.29c-.01-.12-.04-.25-.09-.36-.19-.45-.78-.63-1.21-.39-.06.03-.11.07-.16.11-.05.04-.1.09-.15.14a.5.5 0 0 0 .07.08c.05.05.07.12.06.19-.05.22.05.38.23.48.13.07.28.13.42.17.07.03.15.04.23.06.02 0 .03-.01.05-.02.12-.08.2-.17.25-.3.03.08.02.2 0 .3-.02.06-.01.2.02.24l-.01.01c-.01-.01-.03-.01-.04-.02-.15-.09-.32-.12-.49-.14-.21-.03-.42-.08-.6-.2a.73.73 0 0 1-.34-.61v-.04c-.2.38-.14.69.18.94.22.18.49.23.76.23.11 0 .22-.02.33-.03.06 0 .12 0 .18.01.11.02.16.01.2-.1.1-.24.14-.49.11-.75zM1.98 17.23c-.02-.23-.04-.47-.05-.75 0-.03-.01-.04-.02-.06-.63-.91-1.09-1.7-1.45-2.48-.06-.14-.12-.27-.17-.39.23 1.36.79 2.6 1.69 3.68 0 .01 0 0 0 0zm21.39 1.87c-.06.05-.13.09-.2.12-.1.05-.2.07-.29.07-.1 0-.19-.02-.28-.07a.947.947 0 0 0-.46-.1c-.06 0-.13 0-.21.01-.03 0-.04.01-.05.04-.26.53-.68.91-1.3 1.15-.01 0-.02.01-.02.01v.01c-.02.13-.04.29 0 .45.05.22.18.39.4.54.18.12.4.2.73.29.34.08.65.13.97.13.19 0 .33-.02.47-.06.32-.1.52-.31.59-.64.06-.25.1-.48.13-.71.05-.5-.08-.94-.37-1.32-.03.03-.07.06-.11.08zM18.58 9.01c.08-.22.16-.44.22-.68-.83.53-1.72.88-2.67 1.06-.35.07-.72.11-1.14.12-.52.52-1.14.96-1.96 1.36-.52.26-1.1.44-1.83.58l-1.24.24-.09.02c-.35.07-.7.13-1.06.2-.93.18-1.92.39-2.87.71-.69.23-1.22.48-1.68.78-.44.29-.75.59-.96.94-.06.09-.1.2-.15.29-.02.05-.05.11-.07.16-.02.04-.04.08-.08.12-.48.47-.69 1.06-.61 1.76.05.42.18.82.4 1.24.13-.85.57-1.49 1.33-1.92.41-.23.86-.4 1.38-.52.53-.12 1.06-.21 1.56-.3.09-.02.31-.05.31-.05.52-.09 1.05-.18 1.56-.34.12-.04.24-.08.35-.12.15-.06.27-.12.39-.21.14-.1.29-.2.44-.29-.65-.02-1.76-.02-2.1-.02-.77 0-1.3.06-1.96.31-.69.26-2.68 1.27-2.68 1.27s.99-1.05 2.84-1.84c.64-.25 1.31-.41 1.99-.48.3-.03.61-.05.94-.05.28 0 .56.01.87.03.51.04 1.02.07 1.54.11h.01c.02 0 .05 0 .07-.01.55-.17 1.1-.26 1.57-.32.18-.02.35-.06.53-.1l-.1-.03c-.04-.01-.08-.03-.12-.04l-.09-.03-.34-.23 1.3.03c.26-.03 3.02-.47 4.2-3.75zm1.19-1.37zm1.97 5.35c-.15 0-.27.12-.27.27 0 .15.12.27.27.27.15 0 .27-.12.27-.27s-.12-.27-.27-.27z"/></svg>