<svg role="img" viewBox="0 0 24 24" xmlns="http://www.w3.org/2000/svg"><title>Apache Superset</title><path d="M6.168 6.045C2.603 6.045 0 8.579 0 12.014c0 3.434 2.603 5.941 6.168 5.941 2.185 0 3.89-1.027 5.777-3.08l2.414-2.924.002.002c1.122-1.328 2.097-2.25 3.36-2.25 1.51 0 2.408 1.027 2.408 2.342 0 1.315-.892 2.31-2.402 2.31h-.006a2.44 2.44 0 0 1-.69-.1l-2.394 2.86a6.459 6.459 0 0 0 3.195.84c3.567 0 6.168-2.503 6.168-5.941 0-3.438-2.601-5.97-6.168-5.97-2.048 0-3.945 1.146-5.754 3.151-.832.983-1.66 1.968-2.488 2.953-1.044 1.264-2.158 2.207-3.404 2.207-1.51 0-2.41-.99-2.41-2.31s.906-2.342 2.41-2.342c.274 0 .538.05.793.137l2.4-2.897c-1.019-.588-2.084-.898-3.211-.898Z"/></svg>