<svg role="img" viewBox="0 0 24 24" xmlns="http://www.w3.org/2000/svg"><title>Apache Ant icon</title><path d="M6.802,11.885l-0.031,0.039c-0.063-0.008-0.127-0.014-0.19-0.02l0.764-0.64 C7.231,11.43,6.802,11.885,6.802,11.885z M8.543,10.385c0.388-0.228,0.696-0.402,0.696-0.402s0.057-0.01,0.127-0.01 c0.07,0,0.154,0.01,0.207,0.05c0.107,0.08,0.161,0.616,0.214,1.125c0.053,0.508-0.188,1.406-0.188,1.406l0.134,0.053 c0.134,0.054,0.134,0.576,0,0.656c-0.11,0.066-0.102,0.204-0.074,0.326c0.052,0.054,0.12,0.108,0.177,0.163 c0.018-0.012,0.034-0.023,0.044-0.034c0.08-0.081,0.067-0.187,0.161-0.469c0.047-0.141,0.209-0.262,0.386-0.36 c-0.046-0.388-0.069-1.381-0.091-1.448c-0.027-0.081-0.107-0.188-0.107-0.388c0-0.201,0.12-0.389,0.254-0.455 c0.134-0.067,0.214,0.054,0.255,0.214c0.033,0.13,0.1,1.395,0.125,1.877c0.013-0.005,0.025-0.011,0.036-0.015 c0.178-0.078,0.338-0.008,0.417,0.072c0.053-0.039,0.094-0.111,0.119-0.22c0.04-0.174,1.031-0.87,1.205-1.018 c0.051-0.043,0.144-0.071,0.26-0.073c0.139-0.159,0.344-0.379,0.49-0.476c0.241-0.161,0.482-0.161,0.482-0.161 s0.067,0.08,0.295,0.348c0.081,0.094,0.165,0.228,0.24,0.361c0.092-0.228,0.26-0.461,0.618-0.495 c0.381-0.037,1.299,0.254,1.526,0.442c0.227,0.188,0.589,0.576,0.804,0.763c0,0,0.429,0.415,0.495,0.455 c0.005,0.003,0.01,0.007,0.015,0.01c0.04-0.051,0.146-0.051,0.146-0.051c0.038-0.032,0.161-0.106,0.302-0.188l-3.24-7.59h-0.086 l-7.134,5.981C8.086,10.671,8.352,10.497,8.543,10.385z M3.817,17.421h10.291c-0.051-0.064-0.109-0.141-0.154-0.193 c-0.201-0.228-0.764-1.179-0.871-1.406c-0.107-0.228-0.348-0.495-0.469-0.388c-0.121,0.107-0.629,0.348-0.817,0.294 c-0.188-0.054-0.174-0.308-0.174-0.308s-0.094-0.147-0.228-0.147c-0.134,0-0.362-0.214-0.402-0.549 c-0.014-0.12-0.014-0.21-0.003-0.281c-0.159,0.051-0.319,0.04-0.319,0.04s-0.007,0.006-0.018,0.017 c0.068,0.054,0.112,0.132,0.112,0.224c0,0.214-0.08,0.375-0.268,0.496c-0.187,0.121-0.241-0.081-0.375,0.04 c-0.134,0.12-0.417,0.242-0.482,0.08c-0.027-0.067-0.147-0.027-0.281-0.04c-0.134-0.013-0.121-0.134-0.121-0.134 s-0.268-0.241-0.469-0.536c-0.201-0.295-0.428-0.79-0.428-1.018c0-0.227-0.214-0.161-0.348-0.134 c-0.043,0.009-0.162,0.093-0.312,0.211c-0.078,0.206-0.222,0.455-0.384,0.687c-0.281,0.402-0.857,0.857-1.218,1.004 c-0.055,0.023-0.115,0.035-0.18,0.04c-0.059,0.067-0.132,0.118-0.214,0.157c-0.122,0.225-1.241,1.344-1.307,1.436 C4.34,17.068,4.069,17.249,3.817,17.421z M4.298,16.813c0.153-0.153,0.555-0.683,0.884-1.111c-0.132,0.014-0.252,0.017-0.334,0.026 c-0.375,0.04-0.616-0.107-0.616-0.107c-0.31-0.665-0.325-1.18-0.24-1.546L0,17.421h3.621C3.936,17.148,4.21,16.901,4.298,16.813z M18.078,12.916c-0.026,0.022-0.06,0.019-0.093,0.003c0.002,0.077,0.013,0.171,0.013,0.171c0.107,0.148,0.227,0.737,0.201,1.004 c-0.023,0.229-0.085,0.399-0.102,0.443c0.012,0.048,0.024,0.092,0.036,0.133c0.067,0.228,0.053,0.268,0.094,0.268 c0.041,0,0.147,0.107,0.228,0.147c0.08,0.041,0.737,0.362,0.991,0.563c0.254,0.201,0.415,0.562,0.522,1.018 c0.107,0.455-0.013,0.469-0.12,0.455c-0.107-0.014-0.321-0.375-0.348-0.71c-0.027-0.335-0.308-0.696-0.509-0.884 c-0.201-0.188-0.75-0.268-0.83-0.308c-0.08-0.04-0.054-0.094-0.054-0.094s-0.08-0.067-0.134-0.161 c-0.011-0.019-0.027-0.056-0.045-0.103c-0.027,0.044-0.094,0.103-0.264,0.103c-0.268,0-0.911-0.201-1.286-0.321 c-0.258-0.083-0.679-0.248-0.953-0.365c0.208,0.51,0.747,1.465,0.771,1.517c0.028,0.061,0.258,0.138,0.409,0.199 c0.151,0.06,0.187,0.589,0.33,0.688c0.143,0.1,0.786,0.103,1.061,0.162c0.275,0.06,0.27,0.209,0.161,0.268 c-0.108,0.058-1.055-0.188-1.294-0.226c-0.238-0.038-0.339-0.266-0.436-0.451c-0.097-0.185-0.127-0.302-0.292-0.296 c-0.166,0.005-0.162-0.199-0.342-0.129c-0.18,0.07-0.134-0.139-0.41-0.637c-0.275-0.498-0.437-1.082-0.515-1.099 c-0.079-0.017-0.308,0.029-0.432,0.098c-0.124,0.069-0.824,0.451-0.982,0.609c-0.158,0.157-0.909-0.17-1.086-0.236 s-0.297-0.339-0.292-0.488c0.001-0.026,0.017-0.066,0.044-0.114c-0.052-0.001-0.093-0.004-0.121-0.008 c-0.188-0.027-0.174,0.04-0.227,0.188c-0.026,0.071-0.08,0.108-0.142,0.116c0.057,0.119,0.096,0.245,0.115,0.326 c0.054,0.227-0.054,0.388,0.04,0.455c0.094,0.067,0.174,0.121,0.361-0.04c0.187-0.161,0.522-0.241,0.79-0.174 c0.268,0.067,0.884,1.285,1.071,1.701c0.127,0.282,0.246,0.559,0.312,0.715h6.117l-2.048-4.797 C18.236,12.749,18.128,12.874,18.078,12.916z M9.264,10.178c-0.031,0-0.068,0.012-0.105,0.033c-0.12,0.067-0.991,0.938-1.218,1.098 c-0.228,0.161-0.549,0.187-0.549,0.187l-0.426,0.458c0.27,0.047,0.502,0.109,0.6,0.158c0.107,0.054,0.161,0.155,0.188,0.251 c0.074-0.012,0.279-0.049,0.387-0.103c0.134-0.067,0.509-0.214,0.71-0.08c0.201,0.134,0.04,0.67,0.094,0.683 c0.018,0.005,0.057,0.01,0.106,0.019c-0.019-0.131,0.148-0.247,0.148-0.247s-0.027-0.629-0.013-0.937 c0.013-0.308,0.147-1.125,0.174-1.326C9.378,10.234,9.333,10.178,9.264,10.178L9.264,10.178z M13.804,11.069 c-0.057,0-0.128,0.046-0.199,0.146c-0.087,0.122-0.14,0.255-0.188,0.362c0.13,0.075,0.257,0.183,0.368,0.333 c0.058-0.029,0.152-0.05,0.279-0.075c-0.054-0.246-0.126-0.572-0.151-0.66C13.894,11.106,13.855,11.07,13.804,11.069L13.804,11.069z M13.931,12.819c-0.116,0.25-0.343,0.483-0.541,0.78c-0.018,0.027-0.038,0.053-0.058,0.078c-0.016,0.118-0.103,0.252-0.219,0.34 c-0.295,0.223-0.636,0.341-0.509,0.383c0.128,0.041,0.296-0.1,0.497-0.207c0.201-0.107,1.291-0.327,1.291-0.327 c0.068-0.019,0.155-0.039,0.249-0.053c-0.159-0.119-0.306-0.249-0.368-0.361c-0.088-0.161-0.205-0.359-0.216-0.611 C14.017,12.838,13.973,12.83,13.931,12.819L13.931,12.819z M16.045,13.068c-0.173-0.001-0.413,0.203-0.142,0.571 c0.285,0.385,0.402,0.351,0.502,0.251c0.1-0.101,0.067-0.368-0.067-0.569c-0.134-0.201-0.134-0.234-0.268-0.251 C16.062,13.068,16.054,13.068,16.045,13.068L16.045,13.068z M7.703,13.082c-0.006,0.1-0.002,0.191,0.023,0.25 c0.015,0.035,0.019,0.079,0.015,0.13c0.099-0.074,0.189-0.147,0.284-0.193C7.904,13.206,7.769,13.123,7.703,13.082L7.703,13.082z M8.985,13.907c0.134,0.496,0.455,1.031,0.455,1.031s0.094,0.054,0.174-0.053c0.049-0.065,0.206-0.174,0.372-0.271 c-0.04-0.035-0.064-0.064-0.064-0.064s-0.174,0.094-0.375,0.027c-0.165-0.055-0.149-0.138-0.093-0.315 c-0.077-0.108-0.152-0.332-0.242-0.422c-0.076-0.076-0.174-0.077-0.28-0.099C8.951,13.791,8.968,13.846,8.985,13.907z M6.581,11.904 c-0.281-0.026-0.556-0.025-0.73,0.035c-0.429,0.147-1.352,0.696-1.5,1.031C4.23,13.245,4.1,13.484,4.088,13.784 c-0.039,0.082-0.071,0.182-0.097,0.291L6.581,11.904z M7.852,10.838c-0.24,0.172-0.446,0.336-0.501,0.417 c-0.001,0.002-0.005,0.006-0.006,0.008L7.852,10.838z M15.763,18.894c-0.268-0.094-0.616-0.321-0.656-0.388 c-0.04-0.067-0.161-0.12-0.161-0.12s-0.359-0.421-0.573-0.836c0,0-0.023-0.055-0.054-0.128h-0.211 c0.176,0.22,0.372,0.482,0.569,0.731c0.255,0.321,0.109,0.354,0.189,0.354c0.08,0,0.027,0.054,0.094,0.121 c0.067,0.067,0.429,0.281,0.522,0.348c0.094,0.067,0.482,0.201,0.535,0.161c0.054-0.04,0.08-0.174,0.08-0.174 S16.031,18.988,15.763,18.894z M23.85,13.603c0,0-0.308-0.312-0.576-0.433c-0.268-0.121-0.255-0.241-0.415-0.254 c-0.161-0.013-0.455-0.067-0.696-0.174c-0.241-0.107-0.924-0.388-1.218-0.549c-0.295-0.161-0.482-0.281-0.563-0.348 c-0.08-0.067-0.214-0.058-0.469-0.018c0,0-0.723,0.165-0.978,0.285c-0.152,0.072-0.412,0.213-0.623,0.335l0.076,0.177 c0.091-0.075,0.194-0.149,0.319-0.204c0.335-0.148,0.656-0.281,1.031-0.308c0.375-0.027,0.429-0.053,0.429-0.053 s0.174-0.027,0.375,0.08c0.201,0.107,1.393,0.71,1.567,0.777c0.174,0.067,0.442,0.188,0.63,0.335 c0.187,0.147,0.334,0.134,0.334,0.134s0.134,0.148,0.335,0.281c0.201,0.134,0.268,0.201,0.388,0.228 C23.916,13.92,24.158,14.045,23.85,13.603z M3.621,17.421c-0.499,0.432-1.104,0.931-1.252,0.972 c-0.241,0.067-0.321,0.04-0.121,0.147c0.201,0.107,0.558,0.027,0.687-0.161c0.129-0.187,0.304-0.495,0.451-0.642 c0.063-0.063,0.241-0.187,0.429-0.316H3.621z"/></svg>