<svg role="img" viewBox="0 0 24 24" xmlns="http://www.w3.org/2000/svg"><title>Apache Cassandra</title><path d="M10.372 10.543a3.113 3.113 0 0 1-.435-.226l.553.142-.003.059-.115.025zm.422-.863-.637-.8a.434.434 0 0 1-.507.151 2.95 2.95 0 0 0-.16.24l1.262.464.042-.055zm-1.798-.242c.108-.24.243-.46.402-.661a.436.436 0 0 1 .568-.557c.1-.076.206-.146.315-.21-.667.074-1.274.179-1.831.308.113.403.3.784.546 1.12zM7.517 8.57a1.485 1.485 0 0 0-.224.809c0 1.621.968 3.016 2.358 3.639l.003-.013a3.192 3.192 0 0 1-.58-.788.572.572 0 0 1-.336-1.08 3.167 3.167 0 0 1 .138-1.388c-.28-.41-.465-.89-.528-1.407-.29.07-.566.146-.83.228zm1.739 1.184c.119.128.248.246.384.354l.925-.028.004-.01-1.078-.797a2.908 2.908 0 0 0-.235.481zm-.114.38a2.88 2.88 0 0 0-.05.956c.24.045.425.239.46.481l.939-.6a3.16 3.16 0 0 1-.239-.092L9.18 10.8l.65-.14a3.188 3.188 0 0 1-.68-.564l-.008.036zm.9 1.954-.264.213.852-1.079-1.075.39c.001.013.004.026.004.04a.57.57 0 0 1-.184.42c.102.217.228.424.375.616a3.2 3.2 0 0 1 .292-.6zm3.654-2.278-.61.466v.006l.036.001c.208-.135.4-.295.574-.473zm-3.423 3.428a3.992 3.992 0 0 0 4.352-1.687 3.425 3.425 0 0 0-1.152-.519L13.065 11l.915.9-1.197-.467.704 1.078-1.07-.83-.015.008.346 1.275-.596-1.135-.098 1.33-.401-1.326-.472 1.261.114-1.36-.016-.005-.813 1.152.304-1.135a3.3 3.3 0 0 0-.8 1.202c.095.103.197.2.303.29zm4.996-3.86c0-.535-.237-.928-.594-1.216a3.177 3.177 0 0 1-.165.825.392.392 0 0 1-.328.68 3.197 3.197 0 0 1-.542.643l.655.033-1.002.24-.065.044a3.194 3.194 0 0 1 1.537.691c.32-.574.504-1.235.504-1.94zm-3.437-1.482c-.252.01-.496.023-.733.04a3.478 3.478 0 0 0-.893.52.432.432 0 0 1-.015.367l.86.625a.383.383 0 0 1 .042-.028l-.35-1.23.615 1.1.069-.023-.02-1.22.398 1.164.477-1.15.016 1.25.022.01.703-.99-.36 1.208.016.014 1.03-.684-.752 1.042.005.01.932-.334.048-.06a.39.39 0 0 1-.09-.248.395.395 0 0 1 .484-.383c.122-.25.213-.514.272-.786a2.238 2.238 0 0 0-.1-.07 14.118 14.118 0 0 0-2.676-.144zm-.704-1.798.001-.004-.001.004zm10.298 2.835c.971-.567 1.716-1.955 1.716-1.955s-1.893 1.955-3.205 1.665c1.186-.934 1.766-2.549 1.766-2.549s-1.506 2.325-2.448 2.423c1.086-.959 1.54-2.322 1.54-2.322S19.558 8.011 18.6 8.138c1.287-1.161 1.338-1.893 1.338-1.893s-1.781 2.302-2.498 1.943c.857-.934 1.438-2.12 1.438-2.12s-1.489 2.019-1.893 1.69c-.277-.05.455-.958.455-.958s-.909.807-1.161.605c.454-.277 1.236-1.64 1.236-1.64S16 7.506 15.621 7.305l.731-1.483s-.73 1.483-1.715 1.23c.454-.58.63-1.112.63-1.112s-.756 1.213-1.69.885c-.22-.077.273-.635.273-.635s-.626.61-1.055.534c-.429-.076.025-.858.025-.858s-.757 1.186-.908 1.136c-.152-.05.075-.833.075-.833s-.555.908-.858.858c-.291-.048-.021-.87-.001-.93-.022.064-.336.978-.579.905-.253-.076-.303-.656-.303-.656s-.068.788-.429.858c-2.725.53-5.729 1.69-9.489 5.45C3.887 10.738 5.3 7.91 11.962 7.659c5.044-.191 7.399 2.137 8.177 2.17C22.51 9.93 24 7.633 24 7.633s-1.489 1.716-2.574 1.3zm-1.576 4.243c.314.226.566.391.566.391s-.252-.192-.566-.391zm2.37-.24s-1.728-1.363-1.816-1.703c-.089-.341 1.362.113 1.362.113s-1.602-.744-1.627-.959c-.026-.214 1.06.24 1.06.24s-1.49-1.224-1.855-.227a5.965 5.965 0 0 1-.301.507c.108-.287.156-.58.13-.876a1.888 1.888 0 0 0-.064-.346c-.688-.37-1.707-.933-3.134-1.33.153.426.236.88.236 1.352 0 2.44-2.203 4.417-4.92 4.417s-4.92-1.978-4.92-4.417c0-.254.025-.503.071-.746-.764.32-1.427.692-2.042 1.09-.243.412-.36.841-.322 1.275.083.969.909 1.787 2.195 2.344l-.178-.05c-2.29-.646-4.108.502-6.095-.495.46.364.984.72 2.498.724.514.002 2.158-.08 2.461.185.303.265-1.022 1.514-1.022 1.514s2.242-1.896 2.46-1.25c.137.403-.643 1.477-.643 1.477s.782-1.06 1.363-1.287c.399-.155.735-.137 1.022.265.19.265-.909 1.552-.909 1.552s1.477-1.438 1.742-1.363c.264.076 0 1.363 0 1.363s.543-1.304.832-1.4c.398-.133-.908 3.028-.908 3.028s1.595-2.925 1.893-2.99c.51-.114.851 2.043.851 2.043s-.248-1.885.02-2.006c1.694-.767.718 3.256.718 3.256s1.11-2.73.428-3.336c1.798 1.193 1.579 3.336 1.579 3.336s.472-1.02-.853-3.53c.719-.038 1.799 1.864 1.799 1.864s-1.174-2.082-.379-2.12c1.58-.075 1.742 2.764 1.742 2.764s.473-.398-.795-3.18c.807-.517 2.763 2.574 2.763 2.574s-1.804-3.016-1.514-3.218c.29-.202 1.35.96 1.35.96s-.807-1.111-.593-1.225c.215-.113 2.36 2.209 2.36 2.209s-1.893-2.272-1.565-2.55c.188-.159.726.123 1.15.392-.6-.432-1.424-1.084-1.15-1.226.58-.3 2.234.721 2.234.721s-.997-.82-.833-1.022c.164-.202 2.12 1.287 2.12 1.287z"/></svg>