<svg role="img" viewBox="0 0 24 24" xmlns="http://www.w3.org/2000/svg"><title>Apache NetBeans IDE icon</title><path d="M18.53 8.652a.242.242 0 0 1-.121-.032L12 4.935 5.591 8.62a.242.242 0 0 1-.241 0L1.268 6.336a.245.245 0 0 1 0-.427L11.882.03a.249.249 0 0 1 .238 0l10.61 5.878a.245.245 0 0 1 .001.427L18.65 8.621a.243.243 0 0 1-.12.031zM12 4.408c.042 0 .084.01.122.032l6.41 3.686 3.577-2.003L12 .525 1.89 6.123l3.578 2.003 6.41-3.686A.242.242 0 0 1 12 4.408zm0 7.918a.244.244 0 0 1-.12-.032L5.35 8.621a.246.246 0 0 1-.003-.426l6.531-3.755a.242.242 0 0 1 .244 0l6.53 3.755a.244.244 0 0 1-.001.426l-6.53 3.673a.244.244 0 0 1-.121.032zm-6.035-3.92L12 11.8l6.035-3.394L12 4.935l-6.035 3.47zM12 19.428a.247.247 0 0 1-.118-.03l-6.53-3.592a.245.245 0 0 1-.127-.214V8.408a.245.245 0 0 1 .364-.214l6.531 3.674a.245.245 0 0 1 .125.213v7.102a.244.244 0 0 1-.245.245zm-6.286-3.98l6.041 3.321v-6.544l-6.04-3.398v6.62zM12 19.428a.245.245 0 0 1-.245-.245v-7.102c0-.088.048-.17.125-.213l6.53-3.674a.246.246 0 0 1 .365.214v7.184a.245.245 0 0 1-.126.214l-6.53 3.592a.247.247 0 0 1-.119.03zm.245-7.203v6.544l6.04-3.321V8.827l-6.04 3.398zM1.387 18.204a.245.245 0 0 1-.245-.245V6.122a.245.245 0 0 1 .365-.213l4.082 2.285a.243.243 0 0 1 .125.214v7.183a.243.243 0 0 1-.122.211L1.51 18.17a.246.246 0 0 1-.123.034zM1.632 6.54v10.994l3.593-2.084V8.551l-3.593-2.01zM12 24c-.04 0-.08-.01-.117-.03L1.27 18.174a.245.245 0 0 1-.006-.427l4.082-2.366a.248.248 0 0 1 .242-.003l6.53 3.591a.245.245 0 0 1 .127.214v4.572A.244.244 0 0 1 12 24zM1.887 17.952l9.868 5.39v-4.014l-6.282-3.455-3.586 2.079zm20.726.252a.246.246 0 0 1-.123-.034l-4.082-2.368a.243.243 0 0 1-.122-.211V8.408c0-.09.048-.17.125-.214l4.082-2.285a.246.246 0 0 1 .365.213V17.96a.245.245 0 0 1-.245.245zm-3.838-2.754l3.593 2.084V6.54l-3.593 2.011v6.9zM12 24a.244.244 0 0 1-.245-.245v-4.572c0-.089.049-.171.127-.214l6.53-3.591a.244.244 0 0 1 .242.003l4.082 2.366a.244.244 0 0 1-.006.427L12.117 23.97A.242.242 0 0 1 12 24zm.245-4.672v4.014l9.868-5.39-3.586-2.079-6.282 3.455z"/></svg>