<svg role="img" viewBox="0 0 24 24" xmlns="http://www.w3.org/2000/svg"><title>APC</title><path d="M21.2462 8.69257c-2.27531 0-3.78156.9346-4.2871 2.2763.0046-.05435.0062-.10865.0062-.1626 0-1.04361-.8335-2.02315-3.07899-2.02315H9.13404l.7574 1.40983H13.31c.87474 0 1.1505.06337 1.1505.63803 0 .60017-.33862.65243-1.18755.65243H9.89144v3.74582h2.71468v-2.30924h1.12375c1.8449 0 2.74064-.62075 3.07486-1.35426-.02203.1483-.03498.30015-.03498.45485 0 1.48767 1.11024 3.28686 4.3468 3.28686 1.07003 0 2.0737-.18137 2.88345-.55982v-1.72266c-.87505.40487-1.51326.55981-2.29689.55981-1.35707 0-2.4924-.62478-2.4924-1.59094 0-.97862 1.10858-1.593 2.46565-1.593.79638 0 1.47537.18365 2.25778.60097V9.13507c-.7569-.28733-1.65738-.4425-2.68793-.4425ZM9.89144 15.22923 6.3823 8.78313H3.53589L0 15.22922h2.70028l2.25779-4.7749L6.4996 13.7165H3.43298l.84796 1.51274z"/></svg>