<svg role="img" xmlns="http://www.w3.org/2000/svg" viewBox="0 0 24 24"><title>Apostrophe icon</title><path d="M15.259.004c-.728.02-1.62.112-2.776.302l-4.695.737c-2.809.46-3.913.967-4.88 1.658l-.184.137a6.809 6.809 0 00-2.21 3.085c-.46 1.243-.599 2.44-.092 5.57l.736 4.789c.46 2.854.967 3.958 1.657 4.925l.139.139A6.169 6.169 0 005.992 23.6c1.243.414 2.44.599 5.524.092l4.697-.736c2.808-.46 3.913-.968 4.88-1.658l.184-.138a6.519 6.519 0 002.209-3.085c.46-1.243.6-2.44.093-5.57l-.738-4.741c-.46-2.854-.966-3.96-1.657-4.927l-.137-.184a6.169 6.169 0 00-3.04-2.255c-.776-.26-1.535-.428-2.748-.395zm-4.894 4.45a.56.56 0 01.573.47l.84 5.194a.56.56 0 01-.463.642l-5.195.84a.56.56 0 01-.641-.463l-.84-5.195a.56.56 0 01.463-.642l5.195-.839a.56.56 0 01.068-.007zm-.443 1.2l-4.09.661.662 4.09 4.09-.66zM16.77 8.82a3.466 3.466 0 013.458 3.457 3.466 3.466 0 01-3.458 3.457 3.466 3.466 0 01-3.457-3.457 3.466 3.466 0 013.457-3.457zm0 1.114a2.335 2.335 0 00-2.343 2.343c0 1.3 1.043 2.343 2.343 2.343 1.301 0 2.344-1.042 2.344-2.343 0-1.3-1.043-2.343-2.344-2.343zM9.854 13.1a.557.557 0 01.444.214l4.098 5.249a.557.557 0 01-.351.893l-6.307 1.012a.557.557 0 01-.614-.735l2.21-6.261a.557.557 0 01.52-.372zm.192 1.7l-1.559 4.42 4.45-.716z"/></svg>