<svg viewBox="0 0 24 24" role="img" xmlns="http://www.w3.org/2000/svg"><title>Appcelerator Titanium</title><path d="M17.78 23.991a6.848 6.848 0 0 1-.941-.16c-.614-.154-1.116-.352-1.91-.753-.652-.329-1.214-.661-2.483-1.465l-.437-.277-.708.468c-1.707 1.13-2.878 1.697-4.201 2.04-.329.084-.819.144-1.01.124-.463-.05-.609-.076-.747-.128-.724-.272-1.138-.826-1.226-1.642-.068-.637.118-1.552.46-2.254.11-.228.146-.276.289-.394.205-.169.848-.544 2.419-1.413.266-.147.486-.27.49-.273.004-.003-.24-.279-.544-.613l-.75-.83-.199-.22-.087.119c-.189.258-.574.855-.85 1.315-.668 1.116-1.159 2.258-1.43 3.33-.198.78-.196 1.345.007 1.95.033.098.05.177.038.177-.03 0-3.42-3.398-3.525-3.535a2.463 2.463 0 0 1-.344-.711c-.078-.285-.077-.87.001-1.288A9.644 9.644 0 0 1 .79 15.37c.288-.635 1.04-1.986 1.648-2.961l.335-.538-.074-.095c-.147-.187-.643-.994-1.01-1.644A18.676 18.676 0 0 1 .9 8.525C.614 7.815.38 7 .325 6.529a7.554 7.554 0 0 1 .027-1.336C.43 4.659.86 4.259 1.51 4.119c.254-.055.916-.028 1.367.055.52.097 1.442.413 1.64.563.054.041.164.212.329.513.136.248.438.795.672 1.215.233.42.486.88.561 1.024.076.143.143.26.15.26.018.001 1.604-1.583 1.595-1.592a40.343 40.343 0 0 0-.579-.335L6.25 5.25c-1.576-.909-2.574-1.288-3.735-1.42-.28-.032-1.112-.016-1.316.025-.104.02-.07-.018 1.035-1.14C3.999.925 4.587.356 4.819.215c.083-.05.237-.119.342-.151.167-.053.24-.06.598-.06.37.001.435.008.725.081.885.224 2.087.682 3.057 1.167.49.245.924.502 1.56.923.309.204.615.391.682.416.26.1.413.052.869-.268 1.64-1.153 3.383-1.974 4.697-2.215.904-.166 1.353-.134 1.87.133.228.118.23.12 1.858 1.76.896.903 1.683 1.7 1.749 1.772l.12.13-.223-.047c-.684-.145-1.491-.097-2.231.133-.808.25-1.571.614-3.245 1.543-.567.315-1.041.582-1.053.593-.013.012.318.37.76.824l.785.803.08-.146c.045-.08.372-.69.726-1.355s.676-1.256.715-1.314c.139-.203.281-.302.602-.416.823-.292 1.76-.464 2.295-.42.846.07 1.366.608 1.476 1.527.035.286.022.51-.055.979-.227 1.39-.839 2.809-2.08 4.821-.13.21-.246.4-.259.424-.018.033.047.152.278.51 1.126 1.744 1.676 2.8 2.066 3.961.281.838.39 1.367.387 1.898-.001.439-.071.743-.246 1.071-.157.297-.302.476-.617.766-.689.634-.946.887-1.64 1.611-.753.786-1.345 1.382-1.36 1.368a.927.927 0 0 1 .028-.172c.203-.975.05-2.004-.49-3.277-.223-.528-.818-1.714-1.068-2.13-.313-.519-.773-1.208-.805-1.205-.041.003-1.492 1.56-1.492 1.602 0 .022.413.265 1.247.735 1.793 1.01 1.724.958 1.927 1.455.325.795.49 1.56.49 2.284 0 .297-.033.493-.12.714-.191.481-.605.828-1.107.928-.18.036-.611.046-.936.022zm-11.14-.634c.741-.155 1.394-.39 2.222-.798.82-.405 1.606-.885 2.679-1.635l.363-.254.362.218c.49.296.713.433 1.26.772.79.49 1.838 1.06 2.323 1.263.722.303 1.446.471 2.2.512.581.032.906-.094 1.125-.439.126-.198.164-.38.161-.757-.006-.661-.135-1.259-.436-2.01-.098-.244-.12-.27-.331-.394a208.4 208.4 0 0 0-2.074-1.163c-.14-.076-.457-.254-.705-.395l-.45-.256.298-.32c.163-.176.555-.59.87-.92.314-.329.655-.691.757-.804l.184-.206-.296-.391a58.75 58.75 0 0 0-1.202-1.536c-.845-1.05-1.198-1.466-1.231-1.446-.051.03-.752.699-1.858 1.77l-1.043 1.012-.295-.31c-.788-.83-2.288-2.349-2.32-2.349-.065 0-1.455 1.705-2.242 2.75l-.423.562.329.367c.72.804 1.65 1.862 1.65 1.878 0 .022-.481.296-1.755.996-1.477.812-1.61.887-1.662.938-.102.099-.358.805-.45 1.236-.068.325-.094.9-.052 1.15.074.44.361.785.795.955.275.108.74.11 1.246.004zm6.986-10.71c.395-.39.716-.719.712-.73-.019-.053-.772-.87-1.199-1.3-.442-.445-1.115-1.06-1.159-1.06-.03 0-1.605 1.598-1.98 2.01l-.36.394.182.19c.1.106.616.636 1.147 1.18l.965.988.486-.48 1.205-1.19zM3.276 11.14c.587-.822 1.396-1.771 2.282-2.683l.314-.323-.064-.084a2.956 2.956 0 0 1-.174-.29c-.06-.112-.418-.755-.795-1.428l-.686-1.224-.46-.152c-.432-.144-.9-.263-1.158-.295-.063-.008-.29-.026-.504-.04-.363-.024-.4-.022-.547.027-.21.07-.413.21-.49.342-.098.167-.146.584-.132 1.145.01.436.016.477.115.853.29 1.103.704 2.022 1.545 3.422.321.535.58.953.59.954.002 0 .076-.1.163-.223zm17.91-.297c.994-1.673 1.454-2.66 1.718-3.69.192-.75.238-1.299.14-1.68-.085-.332-.291-.626-.517-.736-.211-.103-.572-.15-.893-.115a7.07 7.07 0 0 0-1.622.395c-.202.077-.196.069-.581.8-.144.273-.483.905-.754 1.404-.27.5-.492.916-.492.926 0 .01.163.186.362.39.385.394 1.432 1.656 1.983 2.39.182.242.34.431.35.42.011-.012.149-.238.306-.503z"/></svg>
