<svg role="img" viewBox="0 0 24 24" xmlns="http://www.w3.org/2000/svg"><title>Appian</title><path d="M843.35 261.149C843.35 73.946 762.853 0 583.138 0H316.373v173.162H512c76.754 0 119.809 0 119.809 70.201v101.09H444.606c-183.46-1.871-259.278 73.009-263.957 260.212v159.122c0 175.036 72.073 251.788 230.26 260.212l164.738-175.971c-9.225.505-20.023.792-30.889.792s-21.661-.287-32.387-.856l1.498.064c-76.754 0-119.809 0-119.809-70.201V585.943c0-70.201 43.058-70.201 119.809-70.201s119.809 0 119.809 70.201v435.248h209.667z"/></svg>