<svg role="img" viewBox="0 0 24 24" xmlns="http://www.w3.org/2000/svg"><title>Apple Pay icon</title><path d="M4.386 8.302c-.282.337-.732.602-1.182.564-.056-.455.164-.938.422-1.237.282-.346.774-.591 1.172-.611.047.474-.136.938-.412 1.284zm.407.654c-.651-.038-1.21.375-1.518.375-.315 0-.788-.356-1.305-.346-.67.01-1.293.393-1.635 1.005-.704 1.222-.183 3.034.496 4.029.333.493.732 1.033 1.257 1.014.497-.02.694-.327 1.294-.327.605 0 .778.327 1.304.318.543-.01.885-.493 1.218-.986.38-.56.535-1.104.544-1.133-.01-.01-1.05-.412-1.06-1.626-.01-1.015.82-1.498.858-1.526-.468-.702-1.2-.778-1.453-.797zm3.765-1.374v7.39h1.135v-2.526h1.57c1.435 0 2.443-.997 2.443-2.437s-.99-2.427-2.404-2.427H8.557zm1.135.967h1.308c.985 0 1.547.53 1.547 1.464 0 .934-.562 1.47-1.552 1.47H9.692V8.548zm6.085 6.479c.713 0 1.374-.364 1.674-.943h.023v.887h1.05v-3.679c0-1.066-.844-1.754-2.142-1.754-1.205 0-2.095.697-2.128 1.654h1.022c.084-.455.501-.753 1.073-.753.694 0 1.083.327 1.083.93v.406l-1.416.086c-1.317.08-2.03.626-2.03 1.574 0 .957.736 1.592 1.791 1.592zm.305-.876c-.605 0-.99-.294-.99-.744 0-.465.371-.735 1.08-.778l1.26-.08v.417c0 .692-.58 1.185-1.35 1.185zm3.845 2.83c1.106 0 1.626-.427 2.08-1.721L24 9.61h-1.153l-1.336 4.365h-.023L20.152 9.61h-1.187l1.922 5.38-.103.328c-.173.554-.454.767-.956.767-.09 0-.263-.01-.334-.019v.887c.066.02.348.028.433.028z"/></svg>