<svg role="img" viewBox="0 0 24 24" xmlns="http://www.w3.org/2000/svg"><title>App Store icon</title><path d="M4.847.001A4.845 4.845 0 000 4.85v14.305A4.845 4.845 0 004.847 24h14.306A4.847 4.847 0 0024 19.15V4.85A4.85 4.85 0 0019.15 0zm5.649 4.123c.368.009.723.203.924.548l.477.843.485-.84a1.093 1.093 0 111.896 1.092l-4.682 8.105h3.386c1.098 0 1.713 1.29 1.236 2.183H4.29a1.088 1.088 0 01-1.091-1.091c0-.606.486-1.092 1.091-1.092h2.784l3.564-6.176-1.113-1.932a1.095 1.095 0 01.972-1.64zm3.011 4.19c.717 1.23 1.788 3.086 3.219 5.564h2.84c.607 0 1.092.486 1.092 1.092 0 .606-.485 1.092-1.091 1.092h-1.578l1.065 1.847a1.095 1.095 0 01-1.896 1.092c-1.794-3.11-3.14-5.438-4.035-6.989-.915-1.578-.26-3.162.384-3.699zm-7.282 8.13c.568-.002 1.053.245 1.46.736l-1.05 1.821A1.093 1.093 0 114.74 17.91l.78-1.35c.248-.076.483-.115.706-.115Z"/></svg>