<svg role="img" viewBox="0 0 24 24" xmlns="http://www.w3.org/2000/svg"><title>Apryse</title><path d="M18.904,5.102h.001s4.718,5.623,4.718,5.623l.055-.096c.662-1.147.269-2.616-.878-3.279l-3.888-2.246,2.515.674v-.804c0-1.325-1.075-2.4-2.4-2.4h-1.584l-.792-1.373c-.662-1.147-2.131-1.541-3.279-.878L5.101,5.099v-.004S10.724.377,10.724.377l-.096-.055c-1.147-.662-2.616-.269-3.279.878l-2.246,3.888.674-2.515h-.804c-1.325,0-2.4,1.075-2.4,2.4v1.584l-1.373.792c-1.147.662-1.541,2.131-.879,3.279l4.777,8.273h-.001S.377,13.276.377,13.276l-.055.096c-.662,1.147-.269,2.616.879,3.279l3.896,2.25-2.523-.676v.802c0,1.325,1.075,2.4,2.4,2.4h1.584l.792,1.373c.662,1.147,2.131,1.541,3.279.878l8.268-4.772.004-.004h0s0,.001,0,.001h0l-.676,2.523h.802c1.325,0,2.4-1.075,2.4-2.4v-1.584l1.373-.792c1.147-.662,1.541-2.131.878-3.279l-4.774-8.27ZM5.101,18.902V5.101h13.801v13.801H5.101ZM18.897,18.906l.004-.002-2.25,3.896c-.662,1.147-2.131,1.541-3.279.878l-.096-.055,5.621-4.717Z"/></svg>