<svg role="img" viewBox="0 0 24 24" xmlns="http://www.w3.org/2000/svg"><title>Apryse</title><path d="m2.62 18.25 2.46.66h13.66c.05 0 .06.06 0 .09l-8.09 4.67a2.45 2.45 0 0 1-3.35-.9l-.76-1.31H5A2.45 2.45 0 0 1 2.56 19v-.7s.03-.05.06-.05m16.16.89-2.1 3.63a2.45 2.45 0 0 1-3.35.9s0-.05 0-.07l5.38-4.52zM19 5.24l4.67 8.1a2.45 2.45 0 0 1-.9 3.35l-1.31.75V19A2.45 2.45 0 0 1 19 21.44h-.7v-.06l.66-2.46V5.26s.04-.06.04-.02M.4 13.33l4.52 5.38a.05.05 0 0 1-.06.08l-3.63-2.1a2.45 2.45 0 0 1-.9-3.35s.06-.04.07-.01m10.27-13v.08L5.11 5.07v13.67c0 .05-.06.06-.09 0L.33 10.66a2.44 2.44 0 0 1 .9-3.34l1.31-.76V5A2.45 2.45 0 0 1 5 2.56h.7v.06l-.61 2.47 2.23-3.87a2.45 2.45 0 0 1 3.35-.89m8.47 4.89 3.63 2.1a2.44 2.44 0 0 1 .9 3.34h-.07l-4.52-5.37zm-2.46-4 .76 1.32H19A2.45 2.45 0 0 1 21.44 5v.7h-.06l-2.47-.66H5.26S5.19 5 5.23 5l8.1-4.67a2.45 2.45 0 0 1 3.35.89"/></svg>