<svg role="img" viewBox="0 0 24 24" xmlns="http://www.w3.org/2000/svg"><title>Aptos</title><path d="M10.617 20.184H7.474a.86.86 0 0 1-.644-.29l-.858-.969a.673.673 0 0 0-1.008 0l-.736.831a1.27 1.27 0 0 1-.95.428h-.049A11.96 11.96 0 0 0 12.001 24c3.463 0 6.581-1.469 8.772-3.816zm4.618-15.392a.7.7 0 0 0 .508-.217l1.018-1.062a.67.67 0 0 1 .486-.207h.042c.193 0 .377.083.504.227l.858.97a.86.86 0 0 0 .644.29h2.298A11.98 11.98 0 0 0 12 0a11.98 11.98 0 0 0-9.593 4.792ZM6.659 17.22a.7.7 0 0 0 .508-.217l1.018-1.062a.67.67 0 0 1 .486-.207h.042c.193 0 .377.083.504.227l.858.969a.86.86 0 0 0 .644.29h12.088c.453-.936.785-1.94.982-2.992H12.186a.86.86 0 0 1-.644-.29l-.857-.969a.673.673 0 0 0-1.009 0l-.735.832a1.27 1.27 0 0 1-.95.428H.21c.197 1.051.53 2.055.982 2.991Zm11.904-9.19h-2.115a.86.86 0 0 1-.644-.29l-.858-.97a.673.673 0 0 0-1.008 0l-.736.832a1.27 1.27 0 0 1-.95.428H.676c-.33.94-.544 1.933-.63 2.962h10.928a.7.7 0 0 0 .509-.217L12.5 9.712a.67.67 0 0 1 .487-.207h.041c.193 0 .377.082.505.227l.857.97a.86.86 0 0 0 .644.289h8.92c-.086-1.03-.3-2.023-.63-2.962z"/></svg>