<svg role="img" viewBox="0 0 24 24" xmlns="http://www.w3.org/2000/svg"><title>Aqua Security</title><path d="M18.625 0h-8.364a1.355 1.355 0 0 0-.959.397L5.756 3.943c-.137.137-.274.274-.274.603 0 0 0 .821.767.821h12.376v12.377c0 .766.782.766.823.766.328 0 .465-.137.602-.274l3.546-3.546a1.353 1.353 0 0 0 .395-.958V.874a.83.83 0 0 0-.136-.423.952.952 0 0 0-.8-.451zM4.551 5.483c-.329 0-.465.137-.602.274L.403 9.303a1.352 1.352 0 0 0-.394.958v12.803a.955.955 0 0 0 .454.801.83.83 0 0 0 .423.135l12.858-.013a1.353 1.353 0 0 0 .958-.395l3.543-3.55c.137-.137.273-.274.273-.603 0-.04 0-.813-.768-.812H5.373V6.25c0-.767-.822-.767-.822-.767z"/></svg>