<svg role="img" viewBox="0 0 24 24" xmlns="http://www.w3.org/2000/svg"><title>Arc</title><path d="M23.9371 8.5089c.1471-.7147.0367-1.4661-.3364-2.0967-.4203-.7094-1.1035-1.1876-1.9075-1.3506a2.9178 2.9178 0 0 0-.5623-.0578h-.0105c-1.3768 0-2.5329.988-2.8061 2.3385-.1629.7935-.4782 1.5607-.9196 2.2701a.263.263 0 0 1-.2363.1205.2627.2627 0 0 1-.2209-.1468l-2.8587-5.9906c-.3626-.762-1.0142-1.361-1.8235-1.5975-1.3873-.4099-2.8166.2838-3.4052 1.524L5.897 9.7333c-.0788.1629-.31.1576-.3784-.0053v-.0052a2.8597 2.8597 0 0 0-2.6642-1.7972c-.3784 0-.7515.0736-1.1088.2207-1.4714.6148-2.1283 2.349-1.5187 3.8203.557 1.3295 1.4714 2.5855 2.659 3.668.084.0788.1103.1997.063.3048l-.9563 2.0074c-.6727 1.4188-.1314 3.1477 1.2664 3.8571.4099.2049.846.31 1.298.31 1.1035 0 2.123-.6411 2.5959-1.6395l.825-1.7289a.254.254 0 0 1 .3048-.1366c1.0037.2732 2.0127.4204 3.0058.4204 1.1193 0 2.2229-.1682 3.2896-.4782a.2626.2626 0 0 1 .3101.1366l.8145 1.7131c.4834 1.0195 1.4924 1.7131 2.6169 1.7184.4572 0 .8986-.0999 1.3138-.3101 1.403-.7094 1.939-2.4435 1.2664-3.8676L19.875 15.787c-.0473-.1051-.0263-.226.0578-.3048 1.9864-1.8497 3.4525-4.2723 4.0043-6.9733ZM6.2121 20.0172a1.835 1.835 0 0 1-.6764.7622 1.8352 1.8352 0 0 1-.9788.2835c-.2733 0-.5518-.063-.8093-.1891-.9038-.4467-1.2454-1.5713-.8093-2.4804l.7935-1.6658c.0684-.1471.2575-.1997.3837-.1051.1681.1209.3415.2365.5202.3521.6989.4467 1.4293.825 2.1808 1.1351.1419.0578.205.2154.1419.352l-.7462 1.5555Zm5.0763-2.0442c-4.2092 0-8.6548-2.8534-10.1262-6.4951a1.8286 1.8286 0 0 1 1.009-2.3805c.2259-.0893.4571-.1366.683-.1366.7252 0 1.4084.431 1.6974 1.1456.9196 2.2806 4.0043 4.2092 6.7368 4.2092.4204 0 .8408-.042 1.256-.1156a.2643.2643 0 0 1 .2837.1419l1.3768 2.9007c.0683.1471-.0105.3205-.1629.3626-.8986.2365-1.8182.3678-2.7536.3678Zm-.599-4.9291.6358-1.3348c.0526-.1051.205-.1051.2575 0l.6201 1.3033c.042.0841-.0158.1891-.1051.2049-.268.0368-.536.0578-.7988.0578a5.0634 5.0634 0 0 1-.4887-.0263c-.1103-.0157-.1629-.1208-.1208-.2049Zm8.4604 7.8246a1.831 1.831 0 0 1-2.0329-.2788 1.8292 1.8292 0 0 1-.4316-.5778l-4.987-10.4836c-.0998-.2102-.3994-.2102-.4939 0l-1.545 3.2529a.2623.2623 0 0 1-.3205.1366c-1.051-.3626-2.0495-.9774-2.7904-1.7184a.2552.2552 0 0 1-.0473-.2943l3.3421-7.031c.1156-.247.2943-.4677.5203-.6201 1.051-.6884 2.2806-.2575 2.7378.7041l6.8577 14.4248c.4309.9144.0946 2.0389-.8093 2.4856Zm-1.4451-9.6481a.258.258 0 0 1 .0315-.2732c.783-1.0037 1.3558-2.1756 1.6028-3.421.1734-.867.9354-1.4714 1.7919-1.4714.1472 0 .2943.0158.4467.0526.9722.2417 1.5344 1.2507 1.3295 2.2333-.4835 2.3017-1.6816 4.3879-3.3159 6.0222-.1313.1314-.3468.0946-.4256-.0683l-1.4609-3.0742Z"/></svg>