<svg role="img" viewBox="0 0 24 24" xmlns="http://www.w3.org/2000/svg"><title>Ardour icon</title><path d="M10.272 20.082h-.885v1.91h.885c.322 0 .541-.102.706-.266a.957.957 0 00.286-.69.953.953 0 00-.293-.69c-.161-.16-.376-.264-.699-.264zm-1.676 2.481v-3.045h1.647c.548 0 .922-.006 1.384.44.263.256.445.664.445 1.083 0 .417-.149.805-.43 1.083-.417.417-.848.441-1.397.441zm-1.984-1.749c.19 0 .267-.026.338-.088a.338.338 0 00.124-.269.355.355 0 00-.135-.274c-.087-.066-.161-.078-.326-.078H5.566v.709h1.047m.119.568H5.56v1.2h-.784v-3.045h2.086c.475 0 .989.299.989.915.006.368-.17.6-.368.754l.79 1.376h-.856zm-3.465.53H1.27l-.36.633H.052l1.75-3.045h.937l1.75 3.045h-.85zm-1.003-1.735l-.674 1.171h1.354zm11.596-.681c-.88.043-1.597.726-1.597 1.566 0 .842.717 1.523 1.596 1.574.31.019.586.018.886 0 .878-.05 1.596-.731 1.596-1.574 0-.841-.715-1.522-1.596-1.566a8.719 8.719 0 00-.886 0zm.71.554a1.015 1.015 0 010 2.028c-.182.011-.35.012-.537 0-.528-.034-.959-.47-.959-1.01s.432-.989.96-1.018c.179-.01.358-.007.537 0zm2.07-.554v1.845c0 .507.305.754.433.863.314.263.813.409 1.31.407.498-.003 1.047-.182 1.311-.407.274-.234.43-.475.43-.863v-1.845h-.783v1.764c0 .327-.124.483-.272.581-.166.11-.4.198-.684.197a1.303 1.303 0 01-.682-.197c-.166-.115-.275-.251-.275-.58v-1.765zm5.784 1.318c.19 0 .266-.026.337-.088a.338.338 0 00.124-.269.355.355 0 00-.135-.274c-.087-.066-.161-.078-.326-.078h-1.046v.709h1.046m.119.568h-1.171v1.2h-.784v-3.045h2.087c.474 0 .988.299.988.915.006.368-.17.6-.368.754l.791 1.376h-.856zM12.03 1.752L2.146 18.954h.171c.34-.007.474-.563.65-.563.116 0 .285.088.4.088.221 0 .285-1.164.47-1.164.187.004.152.995.5 1.01.363.013.125-2.284.479-2.284.308 0 .154 1.962.574 1.976.409.013.093-3.396.5-3.425.475-.039.175 3.17.666 3.17.429 0 .145-4.51.525-4.51.379 0 .264 4.355.651 4.319.373 0 .013-5.256.442-5.256.55 0 .269 5.22.645 5.212.425-.002.078-5.724.573-5.724.512 0 .163 5.782.59 5.768.45-.016-.022-5.417.474-5.417.477 0 .152 5.49.57 5.49.44 0-.032-5.424.545-5.387.558.036.191 5.54.591 5.54.38 0 .154-4.808.608-4.787.532.03.222 4.934.589 4.934.341 0 .186-3.916.638-3.916.477 0 .117 4.063.557 4.04.438-.018.243-3.096.67-3.096.408 0 .07 3.36.532 3.36.48 0 .237-2.35.66-2.35.437 0 .162 2.57.496 2.57.325 0 .23-1.618.55-1.618.321 0 .171 1.713.441 1.713.28 0 .166-.988.461-.988.297 0 .19 1.068.418 1.083.202.011.176-.673.363-.673.19 0 .11.762.37.762.251-.001.174-.421.353-.421.176 0 .181.494.389.494.147-.003.305-.226.493-.226.247 0 .324.276.959.276h.263z"/></svg>