<svg xmlns="http://www.w3.org/2000/svg" viewBox="0 0 210 210" width="24" height="24">
  <g fill="none" stroke-miterlimit="10" font-family="none" font-weight="none" font-size="none" text-anchor="none" style="mix-blend-mode:normal">
    <path d="M0 210V0h210v210z"/>
    <g fill="#000">
      <path d="M156.2 151.8c-33.7 0-57.8-39-58.6-40.7l-2.7-4.3 2.7-4.4c.8-2.2 24.9-41.2 58.6-41.2a45.4 45.4 0 0 1 0 90.6zm-40.7-45.5c6.6 8.8 22.3 27.6 40.3 27.6a27.4 27.4 0 0 0 27.5-27.6 27.4 27.4 0 0 0-27.6-27.5c-17.9 0-33.6 18.8-40.2 27.5z"/>
      <path d="M53.8 151.8a45.4 45.4 0 0 1 0-90.6c34.6 0 57.8 39 58.6 40.7l2.7 4.4-2.7 4.4c-.8 1.7-24.9 41.1-58.6 41.1zm0-73a27.4 27.4 0 0 0-27.5 27.5A27.4 27.4 0 0 0 53.8 134c18.4 0 34.1-18.8 40.7-27.6-6.1-8.7-21.9-27.5-40.7-27.5z"/>
      <path d="M43.8 100.6H70v8.8H43.7zM140 100.6h26.3v8.8H140z"/>
      <path d="M148.8 91.9h8.7V118h-8.8z"/>
    </g>
  </g>
</svg>
