<svg id="Layer_1" xmlns="http://www.w3.org/2000/svg" viewBox="0 0 153 114.8"><style>.st0{fill:#00979d}</style><path class="st0" d="M140.8 43c0-17.1-14.4-31-32.1-31-1.6 0-3.3.1-4.9.3-13.8 2-23 11.9-28.1 19.5-5.2-7.6-14.4-17.5-28.1-19.5-1.6-.2-3.3-.3-4.9-.3C25 12 10.6 25.9 10.6 43S25 74 42.7 74c1.6 0 3.3-.1 5-.3 13.8-2 23-11.9 28.1-19.5 5.2 7.6 14.4 17.5 28.1 19.5 1.7.2 3.3.3 5 .3 17.5-.1 31.9-13.9 31.9-31zM46 62.7c-1.1.2-2.3.2-3.4.2-11.6 0-21.1-9-21.1-20s9.5-20 21.1-20c1.1 0 2.3.1 3.4.2C59 25 66.9 37.7 69.6 42.9c-2.7 5.2-10.7 18-23.6 19.8zM81.7 43c2.7-5.1 10.6-17.9 23.6-19.8 1.1-.2 2.3-.2 3.4-.2 11.7 0 21.1 9 21.1 20s-9.5 20-21.1 20c-1.1 0-2.3-.1-3.4-.2C92.4 60.9 84.4 48.1 81.7 43z"/><path class="st0" d="M33.7 46.2H53v-6.3H33.7zM110.9 46.2h6.5v-6.3h-6.5v-6.5h-6.3v6.5h-6.5v6.3h6.5v6.5h6.3zM19.6 83.2L14 101.1h4.5l.9-3.7h5.2l1 3.7h4.7l-5.7-17.9h-5zm.7 10.8l1.6-6.6 1.8 6.6h-3.4zM47.2 89.1c0-3.4-1.9-6-6.8-6h-7.2V101h4.4v-5.7h2.2l2.7 5.7h5.2l-3.5-6.6c2-.9 3-2.8 3-5.3zm-7.3 2.7h-2.3v-5.1h2.3c2.1 0 2.6.8 2.6 2.4 0 2.1-1.1 2.7-2.6 2.7zM56.7 83.2h-5.9v17.9h5.9c7.6 0 8.9-4.9 8.9-9.1 0-5.7-2.2-8.8-8.9-8.8zm.2 14.2h-1.7V86.8h1.3c4 0 4.3 1.9 4.3 5.4 0 3-.2 5.2-3.9 5.2zM78.7 94.1c0 2.7-.7 3.6-2.8 3.6-1.7 0-2.7-.7-2.7-3.7V83.2h-4.4V95c0 5.4 3.9 6.5 7 6.5 3.2 0 7.2-1.1 7.2-6.4V83.2h-4.3v10.9zM87 86.8h4.6v10.6H87v3.7h13.7v-3.7h-4.6V86.8h4.6v-3.6H87zM115 93.9l-5.8-10.7h-4.8v17.9h4.2V89.6l6.1 11.5h4.5V83.2H115zM129.6 82.9c-5.4 0-7.5 4-7.5 9.4 0 5.9 2.4 9.1 7.5 9.1 5.8 0 7.7-4.1 7.7-9.2 0-6.9-2.6-9.3-7.7-9.3zm.1 14.9c-2.6 0-2.8-1.8-2.8-5.4 0-4.4.4-5.8 2.8-5.8 2.6 0 3 1.2 3 5.6-.1 4.1-.4 5.6-3 5.6z"/><g><path class="st0" d="M141.8 16c0 1.6-1.2 2.8-2.9 2.8-1.6 0-2.9-1.2-2.9-2.8 0-1.5 1.3-2.8 2.9-2.8 1.7 0 2.9 1.2 2.9 2.8zm-5 0c0 1.2.9 2.2 2.2 2.2 1.2 0 2.1-1 2.1-2.2 0-1.2-.9-2.2-2.1-2.2-1.3-.1-2.2.9-2.2 2.2zm1.7 1.4h-.6v-2.8c.3-.1.6-.1 1.1-.1.5 0 .8.1 1 .2.2.1.3.3.3.6s-.2.5-.6.6c.3.1.4.3.5.7.1.4.1.6.2.7h-.7c-.1-.1-.1-.4-.2-.7-.1-.3-.2-.4-.6-.4h-.3l-.1 1.2zm.1-1.6h.3c.4 0 .6-.1.6-.4 0-.3-.2-.4-.6-.4h-.4v.8z"/></g></svg>