<?xml version="1.0" encoding="utf-8"?>
<!-- Generator: Adobe Illustrator 21.0.2, SVG Export Plug-In . SVG Version: 6.00 Build 0)  -->
<svg version="1.1" id="Layer_1" xmlns="http://www.w3.org/2000/svg" xmlns:xlink="http://www.w3.org/1999/xlink" x="0px" y="0px"
	 viewBox="0 0 153 114.8" style="enable-background:new 0 0 153 114.8;" xml:space="preserve">
<style type="text/css">
	.st0{fill:#00979D;}
</style>
<g>
	<path class="st0" d="M140.8,43c0-17.1-14.4-31-32.1-31l0,0c-1.6,0-3.3,0.1-4.9,0.3l0,0c-13.8,2-23,11.9-28.1,19.5l0,0
		c-5.2-7.6-14.4-17.5-28.1-19.5l0,0c-1.6-0.2-3.3-0.3-4.9-0.3l0,0c-17.7,0-32.1,13.9-32.1,31l0,0c0,17.1,14.4,31,32.1,31l0,0
		c1.6,0,3.3-0.1,5-0.3l0,0c13.8-2,23-11.9,28.1-19.5l0,0c5.2,7.6,14.4,17.5,28.1,19.5l0,0c1.7,0.2,3.3,0.3,5,0.3l0,0
		C126.4,73.9,140.8,60.1,140.8,43L140.8,43z M46,62.7c-1.1,0.2-2.3,0.2-3.4,0.2l0,0c-11.6,0-21.1-9-21.1-20l0,0c0-11,9.5-20,21.1-20
		l0,0c1.1,0,2.3,0.1,3.4,0.2l0,0c13,1.9,20.9,14.6,23.6,19.8l0,0C66.9,48.1,58.9,60.9,46,62.7L46,62.7z M81.7,43
		c2.7-5.1,10.6-17.9,23.6-19.8l0,0c1.1-0.2,2.3-0.2,3.4-0.2l0,0c11.7,0,21.1,9,21.1,20l0,0c0,11-9.5,20-21.1,20l0,0
		c-1.1,0-2.3-0.1-3.4-0.2l0,0C92.4,60.9,84.4,48.1,81.7,43L81.7,43z"/>
	<polygon class="st0" points="33.7,46.2 53,46.2 53,46.2 53,39.9 53,39.9 33.7,39.9 33.7,39.9 	"/>
	<polygon class="st0" points="110.9,46.2 117.4,46.2 117.4,46.2 117.4,39.9 117.4,39.9 110.9,39.9 110.9,39.9 110.9,33.4 
		110.9,33.4 104.6,33.4 104.6,33.4 104.6,39.9 104.6,39.9 98.1,39.9 98.1,39.9 98.1,46.2 98.1,46.2 104.6,46.2 104.6,46.2 
		104.6,52.7 104.6,52.7 110.9,52.7 110.9,52.7 	"/>
	<path class="st0" d="M19.6,83.2l-5.6,17.9l0,0h4.5l0,0l0.9-3.7l0,0h5.2l0,0l1,3.7l0,0h4.7l0,0l-5.7-17.9l0,0H19.6L19.6,83.2z
		 M20.3,94l1.6-6.6l0,0l1.8,6.6l0,0H20.3L20.3,94z"/>
	<path class="st0" d="M47.2,89.1c0-3.4-1.9-6-6.8-6l0,0h-7.2l0,0v17.9l0,0h4.4l0,0v-5.7l0,0h2.2l0,0l2.7,5.7l0,0h5.2l0,0l-3.5-6.6
		l0,0C46.2,93.5,47.2,91.6,47.2,89.1L47.2,89.1z M39.9,91.8h-2.3l0,0v-5.1l0,0h2.3l0,0c2.1,0,2.6,0.8,2.6,2.4l0,0
		C42.5,91.2,41.4,91.8,39.9,91.8L39.9,91.8z"/>
	<path class="st0" d="M56.7,83.2h-5.9l0,0v17.9l0,0h5.9l0,0c7.6,0,8.9-4.9,8.9-9.1l0,0C65.6,86.3,63.4,83.2,56.7,83.2L56.7,83.2z
		 M56.9,97.4h-1.7l0,0V86.8l0,0h1.3l0,0c4,0,4.3,1.9,4.3,5.4l0,0C60.8,95.2,60.6,97.4,56.9,97.4L56.9,97.4z"/>
	<path class="st0" d="M78.7,94.1c0,2.7-0.7,3.6-2.8,3.6l0,0c-1.7,0-2.7-0.7-2.7-3.7l0,0V83.2l0,0h-4.4l0,0v11.8l0,0
		c0,5.4,3.9,6.5,7,6.5l0,0c3.2,0,7.2-1.1,7.2-6.4l0,0V83.2l0,0h-4.3l0,0L78.7,94.1L78.7,94.1z"/>
	<polygon class="st0" points="87,86.8 91.6,86.8 91.6,86.8 91.6,97.4 91.6,97.4 87,97.4 87,97.4 87,101.1 87,101.1 100.7,101.1 
		100.7,101.1 100.7,97.4 100.7,97.4 96.1,97.4 96.1,97.4 96.1,86.8 96.1,86.8 100.7,86.8 100.7,86.8 100.7,83.2 100.7,83.2 87,83.2 
		87,83.2 	"/>
	<polygon class="st0" points="115,93.9 109.2,83.2 109.2,83.2 104.4,83.2 104.4,83.2 104.4,101.1 104.4,101.1 108.6,101.1 
		108.6,101.1 108.6,89.6 108.6,89.6 114.7,101.1 114.7,101.1 119.2,101.1 119.2,101.1 119.2,83.2 119.2,83.2 115,83.2 115,83.2 	"/>
	<path class="st0" d="M129.6,82.9c-5.4,0-7.5,4-7.5,9.4l0,0c0,5.9,2.4,9.1,7.5,9.1l0,0c5.8,0,7.7-4.1,7.7-9.2l0,0
		C137.3,85.3,134.7,82.9,129.6,82.9L129.6,82.9z M129.7,97.8c-2.6,0-2.8-1.8-2.8-5.4l0,0c0-4.4,0.4-5.8,2.8-5.8l0,0
		c2.6,0,3,1.2,3,5.6l0,0C132.6,96.3,132.3,97.8,129.7,97.8L129.7,97.8z"/>
</g>
<g>
	<path class="st0" d="M141.8,16c0,1.6-1.2,2.8-2.9,2.8c-1.6,0-2.9-1.2-2.9-2.8c0-1.5,1.3-2.8,2.9-2.8
		C140.6,13.2,141.8,14.4,141.8,16z M136.8,16c0,1.2,0.9,2.2,2.2,2.2c1.2,0,2.1-1,2.1-2.2c0-1.2-0.9-2.2-2.1-2.2
		C137.7,13.7,136.8,14.7,136.8,16z M138.5,17.4h-0.6v-2.8c0.3-0.1,0.6-0.1,1.1-0.1c0.5,0,0.8,0.1,1,0.2c0.2,0.1,0.3,0.3,0.3,0.6
		c0,0.3-0.2,0.5-0.6,0.6v0c0.3,0.1,0.4,0.3,0.5,0.7c0.1,0.4,0.1,0.6,0.2,0.7h-0.7c-0.1-0.1-0.1-0.4-0.2-0.7
		c-0.1-0.3-0.2-0.4-0.6-0.4h-0.3L138.5,17.4L138.5,17.4z M138.6,15.8h0.3c0.4,0,0.6-0.1,0.6-0.4c0-0.3-0.2-0.4-0.6-0.4
		c-0.2,0-0.3,0-0.4,0V15.8z"/>
</g>
</svg>
