<svg xmlns="http://www.w3.org/2000/svg" viewBox="0 0 210 210" width="24" height="24"><g font-family="none" font-size="none" style="fill:none;font-weight:none;mix-blend-mode:normal;stroke-dasharray:;text-anchor:none"><path d="M0 210v-210h210v210z" fill="none"/><path d="M156.2 151.8c-33.7 0-57.7-38.9-58.6-40.7l-2.6-4.4 2.6-4.4c0.9-2.2 24.9-41.1 58.6-41.1 24.9 0 45.1 20.1 45.1 45.1 0 24.9-20.1 45.5-45.1 45.5zM115.5 106.3c6.6 8.8 22.3 27.6 40.3 27.6 15.3 0 27.6-12.2 27.6-27.6 0-15.3-12.2-27.6-27.6-27.6 -17.9 0-33.7 18.8-40.2 27.6z"/><path d="M53.8 151.8c-24.9 0-45.1-20.6-45.1-45.5 0-24.9 20.1-45.1 45.1-45.1 34.6 0 57.8 38.9 58.6 40.7l2.6 4.4 -2.6 4.4c-0.9 1.8-24.9 41.1-58.6 41.1zM53.8 78.8c-15.3 0-27.6 12.3-27.6 27.6 0 15.3 12.3 27.6 27.6 27.6 18.4 0 34.1-18.8 40.7-27.6 -6.1-8.7-21.9-27.6-40.7-27.6z"/><path d="M43.8 100.6h26.3v8.8h-26.2z"/><path d="M140 100.6h26.3v8.8h-26.2z"/><path d="M148.8 91.9h8.8v26.3h-8.7z"/></g></svg>
