<svg data-name="Layer 1" xmlns="http://www.w3.org/2000/svg" viewBox="0 0 24 24"><title>Argo</title><path d="M187.953 6a166.821 166.821 0 0 1 18.894 2.707c24.417 5.577 45.367 17.633 63.713 34.384 16.885 15.416 27.876 34.5 33.957 56.44 1.292 4.664 3.136 8.144 8.52 9.074 2.984.516 3.464 3.557 3.476 6.254.043 9.404.029 18.808.028 28.213q0 8.8-.027 17.6c-.025 5.169-1.685 6.958-6.77 6.883-3.074-.045-4.268 1.74-5.019 4.241a137.877 137.877 0 0 1-8.017 20.73c-11.891 24.461-30.305 42.713-53.632 56.279-1.118.65-2.25 1.278-3.385 1.899-3.664 2.002-3.75 2.129-2.252 6.031a15.224 15.224 0 0 0 9.652 9.1c3.914 1.402 8.038 1.95 12.023 3.056a9.948 9.948 0 0 1 3.443 1.355c-.961 1.2-2.273.983-3.371 1.204-5.227 1.05-10.36 2.667-15.796 2.46a18.623 18.623 0 0 1-6.36-.921c-1.654-.663-2.218-.095-2.557 1.589a77.075 77.075 0 0 0-1.226 13.37c-.219 8.966-1.022 17.89-1.637 26.824-.597 8.68-.256 9.465 8.121 12.242 4.091 1.357 8.182 2.717 12.246 4.154 1.001.354 2.18.561 2.792 1.699-.579.823-1.425.516-2.13.518-7.161.027-14.323.064-21.483.004-7.63-.064-11.731-4.098-12.287-11.676-.812-11.083-1.75-22.157-2.643-33.234a17.26 17.26 0 0 0-.383-1.754c-1.148 6.616-.946 12.778-1.218 18.887-.342 7.664-.116 15.354-.106 23.033.005 3.919 1.247 5.631 4.867 7.005 5.232 1.985 10.345 4.297 16.205 3.815 2.051-.168 4.01.907 5.851 1.884.45.239 1.06.47 1.003 1.052-.062.635-.722.686-1.221.67-9.56-.295-19.152.929-28.683-.414-4.687-.66-7.757-3.428-9.185-8.025-1.37-4.414-1.645-8.984-1.98-13.527-.67-9.107-1.144-18.23-1.693-27.346a3.225 3.225 0 0 0-.875-2.478 4.138 4.138 0 0 0-.463 2.805q-.027 20.837-.01 41.673c.004 5.652 1.786 8.371 7.188 10.304 6.986 2.498 14.177 4.334 21.367 6.149 1.604.405 3.279.682 3.523 2.788h-26.925c-.754-.144-1.504-.32-2.263-.429-10.202-1.459-14.554-5.421-16.62-15.16-.338-1.599-.644-3.203-.97-4.804q-1.64-8.023-3.282-16.045a17.821 17.821 0 0 0-2.106 5.615c-1.208 5.806-2.198 11.66-3.527 17.438-1.65 7.17-6.47 11.106-13.557 12.472-1.598.308-3.197.609-4.796.913h-26.925c.836-2.494 3.14-2.686 5.171-3.225 6.913-1.833 13.952-3.23 20.612-5.928a8.79 8.79 0 0 0 5.766-7.589c.849-6.312.027-12.571-.192-18.847a22.276 22.276 0 0 0-1.133-4.58 5.995 5.995 0 0 0-1.035 3.019c-.386 4.29-.717 8.586-1.092 12.878-.55 6.285-3.966 10.417-9.87 11.774a24.775 24.775 0 0 1-5.374.664c-8.11.042-16.221-.018-24.331-.072-.707-.004-1.588.283-2.15-.937a20.649 20.649 0 0 1 8.465-2.73 82.732 82.732 0 0 0 13.651-2.802c6.102-1.66 7.589-3.623 7.434-9.994-.33-13.53-1.316-27.044-.992-40.592.064-2.666.01-5.335.01-8.003a35.244 35.244 0 0 0-.73 5.596c-.443 12.75-1.43 25.461-2.708 38.152-.75 7.452-4.302 10.867-11.684 11.704-6.482.736-12.92.016-19.365-.305-1.578-.079-3.41.176-4.928-.933.618-.951 1.535-1.001 2.323-1.252 5.258-1.674 10.544-3.262 15.78-5 3.576-1.187 5.104-3.426 5.175-7.171.022-1.12.032-2.248-.055-3.364-.81-10.4-1.195-20.821-1.516-31.246a76.652 76.652 0 0 0-.52-6.959c-.336-2.734-1.894-4.179-4.281-3.748-7.347 1.327-14.402-.086-21.418-2.02-.865-.238-1.944-.116-2.584-1.27a13.976 13.976 0 0 1 4.129-1.324 81.636 81.636 0 0 0 10.961-3.018 17.4 17.4 0 0 0 10.105-9.469c1.294-2.953.806-4.612-1.638-5.79-20.611-9.931-36.525-25.145-49.296-43.872a118.526 118.526 0 0 1-16.338-35.585c-.985-3.574-2.27-4.363-5.567-3.782-4.459.785-5.83.086-7.777-3.968v-50.744c2.086-4.413 2.98-4.964 7.757-4.781 3.415.13 3.591-.077 4.5-3.536 5.757-21.918 15.726-41.593 31.568-57.98 19.065-19.718 42.673-31.198 69.089-37.424C162 7.382 168.773 6.76 175.526 6Zm115.959 130.12a107.555 107.555 0 0 0-.697-13.642c-.383-3.162-.827-6.327-1.456-9.447-8.69-43.096-34.075-73.001-73.444-91.144-22.583-10.408-46.678-12.154-70.927-7.432-47.243 9.2-78.475 37.555-95.088 82.193-6.346 17.052-7.195 34.975-5.384 53.064a115.874 115.874 0 0 0 10.823 39.172c8.513 17.652 21.008 32.1 36.039 44.48a77.324 77.324 0 0 0 16.29 10.461c3.416 1.604 3.585 1.513 3.571-2.131a59.578 59.578 0 0 0-.146-6.983c-1.815-14.826-2.067-29.736-2.45-44.635a5.706 5.706 0 0 0-2.677-5.126c-5.592-3.892-10.37-8.616-13.398-14.816-6.885-14.099-5.41-34.34 11.828-46.748 1.978-1.424 3.166-2.775 2.873-5.43a25.528 25.528 0 0 1 .463-6.428c2.561-17.26 10.863-31.087 25.027-41.299 9.91-7.145 20.975-11.221 33.247-11.377 7.025-.09 13.862 1.604 20.572 3.555 23.382 6.799 41.385 30.108 41.364 53.765a9.322 9.322 0 0 0 3.89 8.217c6.744 5.385 11.947 12.067 13.719 20.74 3.198 15.655-1.202 28.816-14.235 38.3-3.87 2.816-5.042 5.89-4.849 10.141a23.43 23.43 0 0 1-.022 2.07q-.446 10.462-.902 20.923c-.37 8.517-1.995 16.95-1.698 25.515.111 3.23.085 3.281 2.916 1.857a108.75 108.75 0 0 0 34.802-27.675c19.196-22.945 30.166-49.032 29.949-80.14Zm-166.336 45.874a28.141 28.141 0 1 0 .242-56.28c-15.912-.061-28.409 11.945-28.47 27.353-.065 16.682 11.817 28.86 28.228 28.927Zm84.247-.002c16.018.024 28.144-11.987 28.143-27.876 0-15.877-12.292-28.35-27.908-28.317-15.477.033-28.217 12.588-28.258 27.85-.043 16.06 12.078 28.319 28.023 28.343Zm-21.395 28.161c-3.032 1.858-5.912 4.028-9.16 5.584-7.793 3.734-15.46 3.742-22.973-.706-2.295-1.36-4.472-2.919-6.741-4.324-.681-.421-1.335-1.503-2.19-.905-.636.446-.13 1.444-.01 2.198a72.978 72.978 0 0 1 1.199 7.908c.39 8.217 4.258 14.423 10.802 19.048a14.277 14.277 0 0 0 11.486 2.704c8.226-1.717 14.912-8.932 16.349-17.715.633-3.872.066-7.903 1.59-11.668a1.947 1.947 0 0 0-.352-2.124ZM72.75 138.608c-.183-16.023 2.076-29.888 7.852-43.061 9.199-20.98 23.885-37.128 43.328-49.06a5.507 5.507 0 0 1 6.678.965c.882.882.524 1.718.155 2.601a15.8 15.8 0 0 1-6.983 7.403c-15.693 9.3-26.597 22.847-34.267 39.1a91.664 91.664 0 0 0-9 43.414c.81 19.027 6.394 36.598 17.641 52.17a11.567 11.567 0 0 1 2.518 5.31c.147 1.168.85 2.45-.448 3.316a4.544 4.544 0 0 1-4.195.607 7.304 7.304 0 0 1-3.399-2.696c-10.477-14.229-17.355-29.895-19.351-47.603-.534-4.735-.071-9.486-.53-12.466Zm62.247-98.578a5.448 5.448 0 0 1 5.503-5.563c3.078.016 5.95 3.29 6.044 6.892.052 1.995-4.486 5.669-6.92 5.602-2.738-.076-4.627-2.904-4.627-6.93Zm-6.765 108.777a8.888 8.888 0 0 1 8.54-9.188c5.524-.03 9.75 3.94 9.806 9.21.056 5.168-3.931 9.04-9.293 9.025-5.536-.015-9.026-3.504-9.053-9.047Zm94.481 9.049c-5.559-.033-9.095-3.706-9.034-9.383a9.205 9.205 0 0 1 8.658-8.922 9.551 9.551 0 0 1 9.74 9.353c.008 5.136-4.017 8.983-9.364 8.952Z"/></svg>