<svg role="img" viewBox="0 0 24 24" xmlns="http://www.w3.org/2000/svg"><title>Argo</title><path d="M12.741 0c.555.037 1.108.099 1.654.186a13.545 13.545 0 0 1 5.579 2.365c1.478 1.06 2.441 2.372 2.973 3.881.113.321.275.56.746.624.262.035.304.245.305.43.003.647.002 1.293.002 1.94l-.002 1.21c-.002.356-.148.479-.593.474-.269-.003-.374.119-.439.291-.185.49-.42.966-.702 1.426-1.042 1.682-2.654 2.937-4.697 3.87-.097.045-.197.088-.296.131-.321.137-.328.146-.197.415.145.299.456.529.845.625.343.097.704.134 1.053.21.107.016.209.048.301.094-.084.082-.199.067-.295.082-.458.073-.907.184-1.383.17a2.037 2.037 0 0 1-.557-.064c-.145-.045-.194-.006-.224.11-.07.303-.105.611-.107.919-.019.617-.09 1.23-.143 1.845-.053.597-.023.65.711.841.358.094.716.187 1.072.286.088.024.191.039.244.117-.05.057-.124.035-.186.036-.627.001-1.254.004-1.881 0-.668-.005-1.027-.282-1.076-.803-.071-.762-.153-1.524-.232-2.286a.893.893 0 0 0-.033-.12c-.101.455-.083.879-.107 1.299-.03.527-.01 1.056-.009 1.584 0 .269.109.387.426.481.458.137.906.296 1.419.263.18-.012.351.062.512.129.04.017.093.033.088.073-.005.043-.063.047-.107.046-.837-.021-1.677.064-2.511-.029-.411-.045-.679-.236-.804-.552-.12-.303-.145-.617-.174-.93-.059-.626-.1-1.253-.148-1.88a.199.199 0 0 0-.077-.171.233.233 0 0 0-.04.193c-.002.955-.002 1.911-.001 2.866 0 .389.156.575.629.708.612.172 1.242.298 1.871.423.141.028.287.047.309.192h-2.358c-.066-.01-.132-.022-.198-.029-.893-.101-1.274-.373-1.455-1.043-.03-.11-.057-.22-.085-.33l-.288-1.104c-.088.12-.151.25-.184.386-.106.4-.192.802-.309 1.2-.144.493-.566.763-1.187.857l-.42.063H7.618c.073-.172.275-.185.452-.222.606-.126 1.222-.222 1.805-.407.284-.081.482-.286.505-.522.074-.434.002-.865-.017-1.296a1.28 1.28 0 0 0-.099-.315.356.356 0 0 0-.091.207c-.033.295-.062.591-.095.886-.048.432-.348.716-.864.81a2.752 2.752 0 0 1-.471.045c-.71.003-1.42-.001-2.131-.005-.061 0-.139.02-.188-.064.227-.104.48-.168.741-.188a8.978 8.978 0 0 0 1.196-.193c.534-.114.664-.249.651-.687-.029-.93-.116-1.86-.087-2.791.005-.184.001-.367.001-.551a1.888 1.888 0 0 0-.064.385 31.683 31.683 0 0 1-.237 2.624c-.066.512-.377.747-1.023.805-.568.05-1.132.001-1.696-.021-.138-.006-.299.012-.432-.064.055-.066.135-.069.204-.087.46-.115.923-.224 1.382-.343.313-.082.446-.236.453-.494a1.782 1.782 0 0 0-.005-.231 35.91 35.91 0 0 1-.133-2.149 4.269 4.269 0 0 0-.045-.478c-.03-.188-.166-.288-.375-.258-.643.091-1.261-.006-1.876-.139-.075-.016-.17-.008-.226-.087.114-.045.236-.076.362-.091.325-.052.646-.121.959-.208.397-.111.718-.347.885-.651.114-.203.071-.317-.143-.398a10.56 10.56 0 0 1-4.317-3.017 7.494 7.494 0 0 1-1.43-2.447c-.086-.246-.199-.3-.488-.26-.39.054-.51.006-.681-.273v-3.49c.183-.303.261-.341.68-.328.299.008.314-.006.394-.244a8.497 8.497 0 0 1 2.764-3.987C5.507 1.42 7.574.631 9.887.203 10.468.095 11.061.052 11.653 0h1.088Zm10.153 8.948a5.782 5.782 0 0 0-.061-.938 6.657 6.657 0 0 0-.127-.65c-.761-2.963-2.984-5.02-6.431-6.267-1.977-.716-4.087-.836-6.211-.512-4.136.633-6.871 2.583-8.326 5.653-.555 1.172-.63 2.405-.471 3.649.111.935.432 1.846.948 2.694.745 1.213 1.839 2.207 3.155 3.058.436.286.915.528 1.427.72.299.11.314.104.312-.147.008-.16.004-.32-.012-.48-.159-1.02-.181-2.045-.215-3.069.009-.143-.08-.278-.234-.353-.49-.268-.908-.592-1.173-1.019-.603-.969-.474-2.361 1.035-3.215.173-.098.277-.19.252-.373a1.375 1.375 0 0 1 .04-.442c.225-1.187.952-2.138 2.192-2.84a5.936 5.936 0 0 1 2.911-.782c.615-.007 1.214.11 1.801.244 2.048.468 3.624 2.07 3.622 3.697-.019.222.11.436.341.565.59.371 1.046.83 1.201 1.427.28 1.076-.105 1.981-1.246 2.633-.339.194-.442.406-.425.698.003.047.001.095-.002.142l-.079 1.439c-.032.586-.175 1.166-.149 1.755.01.222.008.225.256.127 1.171-.463 2.209-1.11 3.047-1.903 1.681-1.578 2.641-3.372 2.622-5.511ZM8.33 12.103c1.896.02 3.11-1.579 2.185-2.88-.438-.615-1.267-.994-2.164-.99-1.393-.005-2.488.821-2.493 1.88-.006 1.148 1.035 1.985 2.472 1.99Zm7.377 0c1.402.001 2.464-.825 2.464-1.917s-1.077-1.95-2.444-1.948c-1.355.003-2.471.866-2.474 1.915-.004 1.105 1.057 1.948 2.454 1.95Zm-1.874 1.936c-.265.128-.518.277-.802.384-.682.257-1.354.258-2.011-.048-.201-.094-.392-.201-.591-.298-.059-.029-.117-.103-.191-.062-.056.031-.012.099-.001.151.047.18.082.361.105.544.034.565.373.992.945 1.31a1.52 1.52 0 0 0 1.006.186c.72-.118 1.306-.614 1.432-1.218.055-.267.006-.544.139-.803.028-.049.016-.106-.031-.146Zm-11.18-4.92c-.015-1.102.182-2.055.688-2.961.806-1.443 2.091-2.553 3.794-3.374a.582.582 0 0 1 .585.067c.077.06.046.118.013.178a1.256 1.256 0 0 1-.611.51 6.708 6.708 0 0 0-3.001 2.688c-.569.93-.84 1.955-.788 2.986.071 1.308.56 2.517 1.545 3.587a.739.739 0 0 1 .22.366c.013.08.075.168-.039.228a.49.49 0 0 1-.367.041.632.632 0 0 1-.298-.185c-.917-.979-1.519-2.056-1.694-3.274-.047-.325-.006-.652-.047-.857ZM8.104 2.34c-.006-.211.212-.385.482-.382.269.001.521.226.529.474.005.137-.393.389-.606.385-.24-.005-.405-.2-.405-.477Zm-.592 7.481c-.015-.337.319-.619.747-.632.484-.002.854.271.859.633.005.355-.344.622-.814.621-.484-.001-.79-.241-.792-.622Zm8.272.622c-.486-.002-.796-.255-.791-.645.013-.328.342-.595.759-.614.461-.007.843.281.852.643.001.353-.351.618-.82.616Z"/></svg>