<svg role="img" viewBox="0 0 24 24" xmlns="http://www.w3.org/2000/svg"><title>Arlo icon</title><path d="M24 22.56c-1.734-.022-2.489-.317-3.11-.888l-2.852-3.242a4.794 4.794 0 0 1-.905-4.806 4.774 4.774 0 0 1 .871-1.482L22.21 7.25c.43 2.179-.192 2.666-1.21 4.09l-1.667 1.937a3.033 3.033 0 0 0-.739 1.989c.001.741.272 1.458.761 2.014L24 22.56zm-7.79-11.388 4.963-5.792c.943-1.293 1.494-1.828 1.07-3.94l-7.367 8.6a7.907 7.907 0 0 0-1.897 5.487l-3.22-3.661c-.752-.82-1.745-1.379-2.759-1.815.996-.351 2.119-.503 3.125-.104.488.18 1.044.616 1.428 1.11l1.336-1.129c-.558-.698-1.278-1.266-2.11-1.599a5.332 5.332 0 0 0-2.401-.347c-1.461.24-2.364 1.104-3.714 1.244l-.001.001H.084c-.101 0-.115.144-.017.163 1.202.24 3.341.699 4.844 1.214 1.339.612 2.554 1.429 3.544 2.427l4.284 4.87c.609.501 1.395.755 3.066.767a6.2 6.2 0 0 1-.695-1.337 6.173 6.173 0 0 1-.014-4.256 6.139 6.139 0 0 1 1.114-1.903z"/></svg>