<svg role="img" viewBox="0 0 24 24" xmlns="http://www.w3.org/2000/svg"><title>arXiv icon</title><path d="M20.74 15.42l-1.903-4.99h1.417l1.396 3.598 1.386-3.598H24l-1.929 4.99zm-4.423-5.83V8.463h1.346v1.125zm0 5.834V10.43h1.346v4.99zM9.32 15.42l2.156-3.316-2.058-3.413h1.634l1.37 2.264 1.486-2.264h1.125l-2.055 3.17 2.136 3.554h-1.63l-1.456-2.411-1.564 2.41H9.32zm-3.36 0V10.43h1.343v.941c.346-.703.88-1.056 1.592-1.056a1.407 1.407 0 01.25.026v1.2a1.607 1.607 0 00-.533-.103c-.54 0-.972.269-1.309.804v3.179zm-3.043-.539q-.667.653-1.443.653a1.48 1.48 0 01-1.065-.4A1.382 1.382 0 010 14.101a1.457 1.457 0 01.662-1.277q.66-.45 1.893-.45h.356v-.455q0-.776-.884-.776a3.32 3.32 0 00-1.594.445v-.926a5.039 5.039 0 011.816-.347q1.962 0 1.96 1.557v2.216c0 .392.124.583.378.583a.804.804 0 00.175-.02l.032.754a2.758 2.758 0 01-.755.131c-.554 0-.906-.217-1.064-.653H2.92zm0-.723v-1.015h-.321c-.87 0-1.303.275-1.303.819a.643.643 0 00.643.65c.33.005.65-.15.981-.454z"/></svg>