<svg role="img" viewBox="0 0 24 24" xmlns="http://www.w3.org/2000/svg"><title>Asahi Linux</title><path d="M12.115 2.253h2.16L13.863 0l-1.241.879-.473.456-.033.918M9.816 1.057 11.84 5.15h.046V.046L9.816 1.057m2.299 2.76V6.16h-.046c-.155-.51-.463-.995-.701-1.471-.079-.157-.165-.454-.331-.539-.239-.121-.885.228-1.129.309-.737.246-1.47.505-2.207.75-.402.135-.876.228-1.241.445 1.211.63 2.554 1.088 3.816 1.61.495.205 1.163.646 1.701.67.49.023 1.16-.423 1.61-.607 1.308-.535 2.7-1.019 3.953-1.673l-2.39-.843-3.035-.996m-5.93 1.977c-1.143 2.388-2.6 4.686-3.909 6.989-.382.672-.753 1.35-1.136 2.023-.214.375-.505.774-.611 1.195l2.253 1.576 5.839 4.132L11.885 24V9.379c0-.294.118-.92-.053-1.169-.234-.341-1.133-.528-1.51-.69-1.373-.586-2.748-1.183-4.138-1.727m11.586 0c-1.755.916-3.72 1.624-5.563 2.345.386.944 1.268 1.84 1.865 2.667 1.282 1.773 2.536 3.568 3.83 5.333.448.609.887 1.224 1.326 1.839.11.155.306.568.524.573.3.007.767-.484 1.006-.65.902-.623 1.766-1.348 2.713-1.9l-.637-1.241-1.188-2.115L19.044 8 17.77 5.793m-3.908 8.046v5.287h.046c.398-.635.871-1.229 1.307-1.839.152-.213.477-.517.517-.781.037-.24-.296-.555-.425-.736-.441-.617-.867-1.439-1.445-1.93m-1.517 9.976 1.7-1.162 4.093-2.884c-.235-.529-.676-1-1.012-1.471-.086-.121-.24-.44-.413-.44-.153 0-.274.243-.351.348-.258.35-.505.707-.76 1.057-1.083 1.486-2.331 2.965-3.257 4.552z"/></svg>