<svg role="img" viewBox="0 0 24 24" xmlns="http://www.w3.org/2000/svg"><title>Asciidoctor icon</title><path d="M18.068 0H5.932A5.934 5.934 0 0 0 0 5.932v12.136A5.935 5.935 0 0 0 5.932 24h12.136A5.934 5.934 0 0 0 24 18.068V5.932A5.934 5.934 0 0 0 18.068 0zm-7.36 15.404H8.81l-.005.013L7.2 19.282a.506.506 0 1 1-.934-.388l1.45-3.49H4.868a.506.506 0 1 1 0-1.011h5.86a.506.506 0 1 1-.02 1.01zm7.919 4.165a.506.506 0 0 1-.655-.29L12.621 6.232l-2.395 5.76h1.571a.506.506 0 0 1-.02 1.012h-5.86a.506.506 0 0 1 .02-1.011H9.13l.004-.012 3.022-7.269a.506.506 0 0 1 .935.003l5.816 14.182a.506.506 0 0 1-.281.672z"/></svg>