<svg role="img" viewBox="0 0 24 24" xmlns="http://www.w3.org/2000/svg"><title>Ask Different</title><path d="M14.728 14.748v1.754c0 .48.173.889.518 1.23a1.696 1.699 0 0 0 1.236.512c.486 0 .9-.17 1.241-.511a1.686 1.689 0 0 0 .512-1.242c0-.48-.172-.89-.517-1.231a1.697 1.7 0 0 0-1.237-.512zm0-5.25h1.754a1.686 1.689 0 0 0 1.241-.516c.342-.344.512-.757.512-1.237 0-.48-.172-.891-.517-1.236a1.688 1.69 0 0 0-1.237-.517c-.486 0-.9.172-1.24.517a1.693 1.696 0 0 0-.513 1.236Zm-3.496 3.497h1.754v-1.753h-1.754ZM9.48 14.748H7.726c-.479 0-.89.17-1.232.512a1.69 1.692 0 0 0-.51 1.242c0 .48.169.889.51 1.23a1.68 1.68 0 0 0 1.232.512c.486 0 .9-.17 1.241-.511a1.676 1.679 0 0 0 .512-1.231zm0-5.25V7.746c0-.48-.17-.891-.512-1.236a1.684 1.687 0 0 0-1.24-.517c-.48 0-.89.172-1.233.517a1.693 1.696 0 0 0-.51 1.236c0 .487.169.902.51 1.242.342.341.752.512 1.232.512zm0 1.744H7.726a3.372 3.377 0 0 1-2.473-1.024A3.362 3.367 0 0 1 4.23 7.745a3.362 3.367 0 0 1 1.023-2.473 3.372 3.377 0 0 1 2.473-1.023c.966 0 1.792.342 2.478 1.023a3.354 3.36 0 0 1 1.028 2.473V9.5h1.754V7.745c0-.966.34-1.79 1.024-2.473a3.371 3.376 0 0 1 2.472-1.023c.966 0 1.79.342 2.474 1.023a3.363 3.368 0 0 1 1.022 2.473c0 .966-.341 1.79-1.022 2.473a3.372 3.377 0 0 1-2.475 1.024h-1.753v1.753h1.754c.966 0 1.79.343 2.474 1.028a3.381 3.386 0 0 1 1.022 2.479 3.362 3.367 0 0 1-1.022 2.472 3.373 3.378 0 0 1-2.475 1.024 3.371 3.376 0 0 1-2.471-1.024 3.36 3.364 0 0 1-1.024-2.472v-1.755h-1.754V16.5a3.352 3.357 0 0 1-1.027 2.472 3.39 3.394 0 0 1-2.479 1.024 3.372 3.377 0 0 1-2.473-1.024A3.36 3.365 0 0 1 4.23 16.5c0-.967.342-1.793 1.023-2.479a3.363 3.368 0 0 1 2.473-1.028h1.752zM3.83 0A3.827 3.833 0 0 0 0 3.83v16.34A3.827 3.833 0 0 0 3.83 24h16.34A3.827 3.833 0 0 0 24 20.17V3.83A3.827 3.833 0 0 0 20.172 0Zm0 .14h16.34a3.684 3.69 0 0 1 3.688 3.69v16.34a3.684 3.69 0 0 1-3.686 3.69H3.829a3.685 3.69 0 0 1-3.688-3.69V3.83A3.685 3.69 0 0 1 3.83.14ZM.02 20.119a3.756 3.762 0 0 0 3.758 3.76h16.34a3.756 3.762 0 0 0 3.76-3.76V3.778a3.756 3.762 0 0 0-3.76-3.76H3.778A3.756 3.762 0 0 0 .02 3.778Z"/></svg>