<svg role="img" viewBox="0 0 24 24" xmlns="http://www.w3.org/2000/svg"><title>Asterisk</title><path d="M14.94352 1.79894c-1.58352-.006-2.7207.15796-3.99762.57506-.4298.1404-1.11714.41029-1.52732.5998-.41017.1895-1.1708.62688-1.69118.97389s-1.3118.95077-1.7592 1.33873c-.44738.38795-1.13009 1.07065-1.51804 1.51804s-.934 1.1574-1.21196 1.57679-.52126.74635-.54105.72655c-.0819-.0819.6788-1.54904 1.20887-2.33117l.56888-.84095-.61217.5936c-.33628.3265-.93468 1.02369-1.33254 1.54898-.39787.52528-.92756 1.32666-1.17486 1.78084-.2473.45417-.59702 1.24844-.77602 1.76538l-.32464.93989v.0259C.0759 13.14323-.00082 13.5145 0 14.12474v.0002c.003.67147.0743 1.18432.25468 1.78857v.0147l.051.14995c.0004.001.0006.002.001.003.0279.0867.0587.17654.0912.2684l.1258.36985c.14711.4353.43453 1.08008.63998 1.43147s.68207.96242 1.05737 1.36037c.3753.39794.97634.92079 1.33563 1.1594 1.07195.71187 2.15741 1.13838 3.5215 1.382.43531.0777 1.34261.14353 2.0158.1484.6732.005 1.6914-.0604 2.26316-.1453s1.56105-.3051 2.19822-.4885 1.61753-.53481 2.17968-.78221l1.02336-.4483.64927.19478c.7382.22343 4.09928.98567 4.14602.93989.0168-.0165-.36557-.8246-.85023-1.7963l-.88114-1.76847.78221-.9399c.43165-.51693 1.03377-1.31456 1.33563-1.77156s.76167-1.28064 1.02336-1.83031.5675-1.33254.68018-1.74065c.1127-.4081.25133-1.13355.3061-1.61388.0687-.6028.0672-1.13914-.006-1.73138-.0585-.47192-.21149-1.16314-.3401-1.5335-.1286-.37036-.42907-1.01595-.66472-1.43457-.53962-.9586-1.68782-2.12712-2.51977-2.56614-.3341-.1763-.63592-.32154-.674-.32154-.0381 0 .15537.1795.43285.39884.55678.4401 1.24364 1.26809 1.58297 1.9076l.2226.41429-.2226-.29681c-.12177-.16324-.55807-.6356-.9708-1.0481-.5723-.57196-.95092-.84845-1.59226-1.16558-.54687-.27042-1.18692-.48652-1.8303-.62144-.73098-.15328-1.364-.20952-2.42393-.21333zm-.0495 1.09447c1.08406.002 1.55128.0493 2.15494.21024.42421.1131 1.06977.34617 1.43457.5194.4697.22307.88394.5345 1.41602 1.06666.57696.57704.84541.94648 1.1625 1.59225.2271.46252.4799 1.1526.5596 1.5335s.14436 1.0331.14531 1.45002c.003 1.3112-.36274 2.78885-1.03883 4.1893-.18388.3809-.52468.98194-.75747 1.33564-.2328.35369-.77069 1.00273-1.1934 1.44384-.42274.4411-.76677.83054-.76677.8626 0 .032.35617.602.7915 1.2676.4353.66562.79147 1.24762.79147 1.29236 0 .0447-.0231.0804-.0525.0804s-.69119-.24487-1.46858-.54415c-.77739-.29927-1.52779-.54414-1.66645-.54414-.13865 0-.48976.10586-.7822.23497-.96536.4262-2.76553.95764-3.73483 1.10375-.52473.0791-1.30842.13926-1.74374.13295-1.5715-.0228-2.75302-.29488-4.10583-.94608-.7925-.38148-1.07302-.58585-1.7901-1.30471-.6485-.6501-.93745-1.02953-1.21197-1.59534-.198-.4081-.4277-1.00822-.51014-1.33254-.21248-.8359-.19233-2.22793.0464-3.1783.10811-.43042.42142-1.23692.69564-1.79321.27422-.5563.76227-1.36156 1.0852-1.79012s.98874-1.16081 1.47785-1.62625c.95001-.90406 2.10191-1.71826 3.22468-2.27861.97174-.48498 2.2633-.92416 3.4442-1.17177.7574-.15881 1.35225-.21188 2.393-.21024zm-4.1634 2.39938.0408 1.89505c.0351 1.63019.0206 1.88735-.10339 1.83977-.0793-.0304-.80236-.48454-1.60693-1.00926-.80457-.52471-1.4755-.94081-1.4908-.92462-.0821.0869-1.3334 2.2159-1.3335 2.26895-.00008.0346.73431.47978 1.63186.98936.89755.50957 1.63186.94862 1.63186.97583s-.7343.46644-1.63186.97602c-.89755.50957-1.63194.95478-1.63186.98936.0001.0535 1.25205 2.18267 1.33466 2.2699.0159.0167.75122-.41892 1.63437-.9681l1.60578-.99843-.0404 1.88326-.0406 1.88306h2.75706l-.0709-1.89002c-.0584-1.55464-.0477-1.8758.0599-1.81021.0719.0439.73011.45275 1.46278.90858.73268.45584 1.4091.87003 1.50317.92037.14474.0775.27812-.0868.86704-1.06877.48994-.81695.65976-1.18092.5743-1.22974-.0668-.0381-.82804-.46887-1.69177-.9571l-1.5704-.88751.23477-.14782c.12913-.0813.88033-.5149 1.66934-.96346.78901-.44857 1.44415-.82294 1.45582-.83188.0117-.009-.29169-.53802-.67419-1.17582-.4539-.75687-.73622-1.13547-.81274-1.09003-.0645.0383-.49572.31308-.95825.61062-.46252.29754-1.14412.73595-1.51475.97428l-.6738.43342.0701-1.93253.0701-1.93253h-1.37873zm-8.1052 3.95743c.0272 0 .0495.0223.0495.0495s-.0223.0495-.0495.0495-.0495-.0223-.0495-.0495.0223-.0495.0495-.0495"/></svg>