<svg role="img" viewBox="0 0 24 24" xmlns="http://www.w3.org/2000/svg"><title>Astro</title><path d="M8.352 20.029c-1.178-1.062-1.521-3.294-1.03-4.91.85 1.018 2.029 1.341 3.25 1.524 1.884.281 3.735.176 5.486-.674.2-.097.385-.227.604-.358.164.47.207.945.15 1.428-.14 1.177-.734 2.086-1.677 2.776-.378.275-.777.521-1.167.782-1.198.798-1.522 1.735-1.072 3.098l.045.147a3.14 3.14 0 0 1-1.4-1.18 3.292 3.292 0 0 1-.539-1.803c-.004-.318-.004-.638-.047-.952-.106-.764-.47-1.106-1.154-1.125-.703-.02-1.259.408-1.406 1.083-.011.052-.027.103-.044.163h.001Z"/><path fill="#000" d="M2.43 15.613s3.22-1.564 6.448-1.564l2.435-7.515c.091-.364.357-.61.657-.61.301 0 .567.246.658.61l2.434 7.515c3.824 0 6.449 1.564 6.449 1.564L16.03.723C15.874.282 15.61 0 15.252 0H8.69c-.358 0-.612.283-.78.722L2.43 15.613Z"/></svg>