<?xml version="1.0" encoding="utf-8"?>
<svg version="1.1" xmlns="http://www.w3.org/2000/svg" xmlns:xlink="http://www.w3.org/1999/xlink" x="0px" y="0px"
	 viewBox="0 0 400 84" enable-background="new 0 0 400 84" xml:space="preserve">
<g class="asus_log_svg">
	<path d="M195.2,0.7h-70.5c-16.4,0-23.6,10.2-25.3,20v-20H60.3c-5.5,0-8.1,1.7-10.7,5.5L38.8,21.8h156.4V0.7z"/>
	<polygon points="0,83.3 28.1,83.3 63.3,26.5 38.2,24 	"/>
	<rect x="199.4" y="0.7" width="23.1" height="21.1"/>
	<path d="M369.3,33.7l-72.3-4.3c0,11.1,7.3,18.5,19.7,19.5l51.5,4c4,0.3,6.4,1.3,6.4,4.6c0,3.1-2.8,4.3-8.6,4.3
		h-70.2v21.5h71.7c22.6,0,32.5-7.9,32.5-25.9C400,41.2,391.1,35.1,369.3,33.7z"/>
	<path d="M296,29.4l-22.8-1.3v24.3c0,7.6-3.8,9.9-17,9.9H238c-10.9,0-15.5-3.1-15.5-9.9V25.8l-23.1-1.7v30.2h-0.5
		c-1.3-8.8-4.6-19-26.6-20.5l-72.3-4.8c0,11.1,7.9,17.7,20.3,19l50.4,5.1c4,0.3,6.9,1.5,6.9,4.8c0,3.6-3,4-7.6,4H99.1V29L76,27.5
		v55.8h94.1c21,0,27.7-10.9,28.7-20h0.5c2.6,14.4,15.2,20,36.5,20h23.5c24.9,0,36.7-7.6,36.7-25.4V29.4z"/>
	<path d="M398.4,21.8V0.7h-77.6c-16.2,0-23.5,10-24.7,19.7c0,0.1,0,0.2,0,0.3v-20h-22.8v21.1H296H398.4z"/>
</g>
</svg>
