<svg role="img" viewBox="0 0 24 24" xmlns="http://www.w3.org/2000/svg"><title>ASUS</title><path d="M11.002.62C10.672.978.102 21.29.018 21.741c-.075.405.094 1.064.376 1.431.452.602 1.553.866 2.193.536.151-.075 2.194-1.28 4.547-2.673l4.273-2.541c2.76 1.425 5.521 2.845 8.264 4.301 1.61.848 1.958.998 2.41 1.036.404.028.611-.01.912-.16.716-.367 1.14-1.224.97-1.977C23.84 21.148 13.365.997 13.007.62c-.428-.453-1.292-.755-2.005 0zm5.469 11.869c0 .104-12.886 7.775-12.924 7.69C3.52 20.094 11.924 3.896 12 3.896c.065 0 4.47 8.492 4.47 8.593zm4.066 7.84c-.047.048-7.031-3.37-7.031-3.435 0-.057 4.038-2.165 4.141-2.165.064 0 2.935 5.555 2.89 5.6z"/></svg>