<svg role="img" viewBox="0 0 24 24" xmlns="http://www.w3.org/2000/svg"><title>Republic of Gamers</title><path d="M14.417 3.026c-.04.02-.047.051-.086.102-.028.047-.055.074-.082.117-.067.098-.106.16-.165.243-.289.418-.684 1.063-.97 1.517-.437.704-.836 1.384-1.258 2.084-.798 1.322-1.705 2.905-2.503 4.18-.66 1.052-1.227 1.994-1.915 3.046-.266.402-.43.77-.79.79-.59.035-1.373-.825-1.775-1.216-.348-.34-1.275-1.271-1.725-1.295l.329.767c.234.61.63 1.935.817 2.58.653 2.217 1.529 4.54 2.647 6.084.285.395.543.728.903 1.103.16.164.325.301.5.473.063.059.49.399.544.399-.117-.2-.238-.446-.332-.633-.426-.853-1.373-2.51-1.658-3.355-.239-.712-.293-1.146-.027-1.858.305-.817 1.008-1.822 1.454-2.47 1.08-1.573 2.049-2.996 3.179-4.49a73.306 73.306 0 0 1 1.665-2.127 69.589 69.589 0 0 1 1.72-2.01l.888-.965c.082-.078.896-.9.907-.927l.794-.747c.266-.254.524-.469.806-.727.825-.758 2.47-1.998 3.409-2.565.309-.184.606-.36.915-.54l.938-.5C23.472.02 22.436 0 22.244 0c-.766 0-1.235.035-1.97.133-.56.078-1.603.274-2.112.485-.093.035-.203.05-.293.094-.18.078-.38.133-.563.21-.371.161-.712.337-1.06.517a8.794 8.794 0 0 0-1.012.626c-.192.136-.767.793-.817.961Zm7.495 3.16.68-.59c.239-.192.481-.415.704-.599.45-.375.712-1.595.704-2.377-.078.008-.403.27-.493.324-.059.04-.113.07-.172.11-.403.293-.938.637-1.321.942-.11.09-.215.164-.329.246-.086.063-.281.196-.316.27-.122-.008-2.585 2.073-2.894 2.342-.438.387-.985.849-1.407 1.248-.051.047-1.33 1.2-1.385 1.313-.082.024-.961.912-1.102 1.048-1.736 1.67-3.66 3.774-5.325 5.697a47.416 47.416 0 0 0-1.521 1.834l-.372.473c-.043.059-.094.094-.117.18.164.243 1.263 1.013 1.525 1.173 1.474.907 2.85 1.537 4.402 1.99l.982.255.774.117-.63-.094c.118.023.239.055.356.074.172.028.344.055.524.082a8.17 8.17 0 0 0 1.071.11c.43.012.665.05 1.017-.203a3.38 3.38 0 0 0 .712-.724c.809-1.055 1.528-2.706 2.1-4.2.601-1.563 1.14-3.311 1.606-5.04.239-.88.462-1.802.673-2.736.105-.477.195-.935.293-1.44.05-.277.246-1.293.262-1.52-.223.05-4.074 3.593-4.442 3.93-.496.453-.973.926-1.454 1.372-.47.434-.966.95-1.431 1.392-.95.895-1.904 1.896-2.85 2.83-.165.161-1.37 1.361-1.412 1.444.082-.02 3.902-2.82 3.996-2.882.18-.13 3.93-2.87 3.992-2.878-.02.149-.254.887-.313 1.107-.098.36-.215.774-.32 1.133-.607 2.037-1.263 4.49-2.585 5.392l-.078.082c-.07 0-.266.137-.348.176-.13.06-.254.102-.383.149-.61.211-1.53.102-2.162-.07-.728-.192-1.232-.407-1.932-.696-.168-.07-1.38-.65-1.45-.728.039-.117.73-.872.793-.946 1.337-1.587 3.562-3.918 5.009-5.318.152-.148.297-.285.438-.422.113-.113.328-.3.422-.418l.676-.634c.227-.215.438-.402.68-.637.454-.442.92-.813 1.365-1.247.067-.063 2.628-2.354 2.788-2.436ZM4.502 18.158c-.028-.094-.49-.93-.583-1.106-.583-1.11-1.15-2.143-1.736-3.308-.407-.813-.77-1.564-1.119-2.28C.92 11.164.122 9.458.001 9.11c-.016.067.184 1.467.215 1.65.047.282.082.536.125.825.454 2.812.907 3.875 2.467 5.232.192.168 1.588 1.318 1.693 1.341Z"/></svg>
