<svg role="img" viewBox="0 0 24 24" xmlns="http://www.w3.org/2000/svg"><title>ASUS ROG</title><path d="M14.414 1.766c-.035.011-.047.027-.082.058-.031.028-.055.043-.086.07l-.16.141c-.293.242-.688.621-.969.887-.441.41-.84.805-1.262 1.215-.8.77-1.703 1.691-2.503 2.437-.66.614-1.227 1.164-1.915 1.778-.265.234-.43.449-.789.46-.593.02-1.375-.48-1.773-.71-.352-.2-1.277-.743-1.727-.754l.329.445c.234.355.628 1.129.82 1.508.648 1.293 1.523 2.648 2.64 3.547.286.23.547.425.91.644.157.094.317.176.497.274.062.035.492.234.543.234-.117-.117-.239-.262-.332-.371-.426-.496-1.371-1.465-1.657-1.957-.238-.414-.293-.668-.027-1.082.305-.477 1.012-1.063 1.453-1.442 1.078-.914 2.051-1.746 3.18-2.617.535-.414 1.09-.832 1.664-1.242.566-.398 1.14-.793 1.723-1.172l.886-.562c.082-.047.895-.528.907-.543l.793-.434c.265-.148.523-.273.804-.426.828-.441 2.473-1.164 3.41-1.496.313-.105.606-.207.918-.316l.938-.29C23.469.013 22.434 0 22.242 0c-.765 0-1.234.02-1.969.078-.558.043-1.605.16-2.113.281-.094.024-.2.032-.293.055-.176.047-.379.078-.558.125-.375.094-.715.195-1.067.3-.36.106-.687.235-1.008.364-.191.082-.77.465-.82.563Zm7.496 1.843.68-.347c.238-.11.484-.239.707-.348.45-.219.71-.93.703-1.387-.078.004-.402.157-.492.192-.059.02-.117.039-.172.062-.402.172-.941.371-1.32.551-.114.05-.22.094-.332.145-.086.035-.282.113-.317.156-.12-.008-2.586 1.207-2.894 1.363-.438.227-.985.496-1.407.73-.05.028-1.332.7-1.382.766-.082.016-.961.531-1.102.61-1.738.976-3.664 2.203-5.328 3.324-.465.312-1.055.722-1.52 1.07l-.37.277c-.044.032-.094.055-.122.106.168.14 1.27.59 1.531.684 1.426.519 2.899.906 4.399 1.16l.98.148.778.07-.633-.058c.121.015.242.035.355.047l.528.047c.336.035.722.054 1.07.062.43.008.664.031 1.016-.117.273-.117.496-.258.714-.426.805-.613 1.524-1.574 2.098-2.445a22.727 22.727 0 0 0 1.606-2.942c.238-.515.46-1.05.671-1.597.106-.278.2-.543.293-.836.055-.164.247-.758.262-.89-.219.03-4.074 2.097-4.441 2.292-.496.266-.973.54-1.453.8-.47.255-.965.556-1.43.813-.95.524-1.906 1.106-2.852 1.653-.164.09-1.367.793-1.41.84.078-.012 3.903-1.645 3.992-1.68.18-.074 3.934-1.676 3.996-1.68-.023.086-.253.52-.312.645-.098.21-.215.453-.324.664-.606 1.187-1.262 2.617-2.582 3.144l-.078.047c-.07 0-.266.078-.352.102-.129.035-.25.062-.379.086-.61.125-1.531.062-2.164-.04-.723-.113-1.23-.238-1.934-.406-.167-.039-1.374-.379-1.445-.425.04-.067.73-.508.79-.551 1.34-.926 3.566-2.285 5.011-3.102.152-.086.297-.164.434-.246.117-.066.332-.176.425-.246l.676-.367c.23-.125.442-.234.68-.371.457-.262.918-.477 1.367-.727.066-.039 2.625-1.375 2.785-1.422ZM4.5 10.594c-.027-.059-.488-.543-.582-.649-.582-.644-1.148-1.25-1.734-1.93-.407-.472-.774-.91-1.122-1.328-.14-.175-.937-1.171-1.058-1.37-.02.038.183.851.215.96.043.164.078.313.125.48.453 1.641.906 2.263 2.465 3.052.191.097 1.59.77 1.691.785Zm0 0"/></svg>
