<svg role="img" viewBox="0 0 24 24"  xmlns="http://www.w3.org/2000/svg"><title>ASUS ROG</title><path d="M14.4149 6.766C14.3779 6.777 14.3679 6.794 14.3309 6.826C14.3009 6.851 14.2759 6.869 14.2469 6.894L14.0829 7.035C13.7929 7.278 13.3989 7.655 13.1149 7.92C12.6739 8.331 12.2759 8.726 11.8529 9.135C11.0549 9.905 10.1499 10.83 9.35091 11.573C8.69091 12.186 8.12491 12.737 7.43491 13.351C7.17191 13.585 7.0049 13.799 6.6469 13.811C6.0539 13.831 5.27291 13.331 4.87291 13.102C4.52291 12.903 3.59591 12.361 3.14891 12.346L3.47691 12.793C3.71091 13.148 4.10491 13.923 4.29391 14.299C4.94391 15.593 5.82091 16.948 6.93791 17.849C7.22291 18.079 7.48191 18.273 7.84491 18.492C8.00391 18.587 8.16491 18.667 8.34391 18.767C8.40491 18.802 8.83391 19 8.88591 19C8.76891 18.883 8.64791 18.74 8.55291 18.63C8.12791 18.132 7.18291 17.166 6.89791 16.673C6.65991 16.259 6.60491 16.005 6.8699 15.59C7.1729 15.114 7.87991 14.527 8.32291 14.15C9.40091 13.233 10.3729 12.402 11.5029 11.531C12.0369 11.119 12.5929 10.698 13.1679 10.29C13.7342 9.88874 14.3076 9.49768 14.8879 9.117L15.7769 8.555C15.8589 8.508 16.6689 8.028 16.6819 8.012L17.4749 7.578C17.7409 7.428 17.9989 7.303 18.2809 7.152C19.1079 6.71 20.7509 5.988 21.6909 5.658C22.0009 5.55 22.2949 5.448 22.6079 5.341L23.5439 5.049C23.4689 5.011 22.4339 5 22.2429 5C21.4759 5 21.0049 5.021 20.2729 5.079C19.7119 5.123 18.6679 5.237 18.1589 5.359C18.0669 5.382 17.9589 5.391 17.8659 5.415C17.6889 5.462 17.4859 5.494 17.3059 5.538C16.9319 5.631 16.5939 5.735 16.2429 5.839C15.8819 5.946 15.5549 6.073 15.2319 6.205C15.0419 6.284 14.4639 6.667 14.4149 6.766ZM21.9099 8.609L22.5899 8.263C22.8269 8.152 23.0719 8.023 23.2939 7.915C23.7449 7.695 24.0049 6.985 23.9989 6.529C23.9189 6.533 23.5949 6.685 23.5069 6.718C23.4469 6.74 23.3899 6.758 23.3339 6.782C22.9319 6.952 22.3939 7.153 22.0139 7.332C21.9029 7.384 21.7959 7.427 21.6839 7.475C21.5959 7.512 21.4019 7.588 21.3659 7.633C21.2439 7.626 18.7799 8.84 18.4729 8.998C18.0359 9.223 17.4859 9.493 17.0659 9.725C17.0159 9.753 15.7349 10.427 15.6829 10.492C15.5989 10.506 14.7209 11.024 14.5809 11.103C12.8429 12.078 10.9179 13.305 9.2529 14.427C8.7899 14.739 8.19991 15.148 7.73491 15.497L7.36091 15.774C7.31791 15.806 7.26791 15.828 7.24291 15.877C7.40891 16.018 8.50891 16.469 8.77091 16.563C10.1993 17.0814 11.6716 17.4696 13.1699 17.723L14.1529 17.872L14.9269 17.94L14.2969 17.884C14.4169 17.898 14.5369 17.917 14.6529 17.928C14.8269 17.945 14.9979 17.959 15.1769 17.977C15.5129 18.01 15.9029 18.033 16.2479 18.039C16.6779 18.047 16.9139 18.069 17.2659 17.921C17.5389 17.806 17.7609 17.664 17.9779 17.498C18.7859 16.883 19.5039 15.92 20.0779 15.049C20.6779 14.137 21.2179 13.119 21.6839 12.109C21.9209 11.595 22.1439 11.059 22.3539 10.513C22.4599 10.236 22.5519 9.968 22.6479 9.674C22.7009 9.512 22.8939 8.918 22.9089 8.785C22.6889 8.815 18.8359 10.882 18.4689 11.078C17.9719 11.343 17.4959 11.619 17.0129 11.88C16.5449 12.133 16.0489 12.432 15.5829 12.69C14.6339 13.214 13.6799 13.797 12.7329 14.342C12.5709 14.435 11.3659 15.136 11.3229 15.185C11.4029 15.172 15.2249 13.541 15.3169 13.503C15.4969 13.429 19.2489 11.828 19.3109 11.825C19.2889 11.912 19.0569 12.343 18.9979 12.469C18.8999 12.68 18.7829 12.921 18.6759 13.131C18.0709 14.321 17.4139 15.749 16.0939 16.277L16.0139 16.324C15.9439 16.326 15.7499 16.404 15.6639 16.427C15.5359 16.462 15.4119 16.487 15.2829 16.513C14.6739 16.637 13.7529 16.573 13.1189 16.473C12.3959 16.361 11.8889 16.235 11.1879 16.066C11.0199 16.026 9.80991 15.688 9.73991 15.642C9.77991 15.574 10.4719 15.132 10.5319 15.091C11.8719 14.166 14.0959 12.806 15.5419 11.988C15.6949 11.901 15.8369 11.823 15.9769 11.743C16.0939 11.677 16.3069 11.566 16.3999 11.498L17.0769 11.129C17.3069 11.003 17.5169 10.894 17.7569 10.757C18.2129 10.498 18.6749 10.282 19.1229 10.03C19.1889 9.993 21.7499 8.654 21.9099 8.609ZM4.49891 15.593C4.47191 15.537 4.00891 15.049 3.91791 14.947C3.33491 14.3 2.76891 13.697 2.18291 13.017C1.77491 12.543 1.41091 12.107 1.06291 11.687C0.918905 11.512 0.122905 10.517 0.000905264 10.315C-0.0150947 10.354 0.185905 11.169 0.215905 11.276C0.260905 11.441 0.295905 11.59 0.342905 11.758C0.794905 13.398 1.24791 14.018 2.80791 14.81C2.99991 14.908 4.39491 15.58 4.49891 15.593Z"/></svg>
