<svg role="img" viewBox="0 0 24 24" xmlns="http://www.w3.org/2000/svg"><title>Aternos</title><path d="M16.496 10.504c-.016-.996-.01-1.993-.01-2.99l-2.993-.007V4.492h6.015v6.015c-1.004.004-2.008.009-3.012-.003zm-12.003-.008c-.008-.02-.005-2.338 0-6.005h6.015v3.016l-2.993.007-.007 2.992c-1.004.007-2.011.007-3.014-.011zm4.5 4.5c-.008-.02-.005-2.338 0-6.005h6.015v6.016c-2.005-.005-4.011.022-6.015-.012zm4.5 4.5c-.008-.02-.005-1.178 0-3.004l2.992-.007.007-2.993h3.015v6.015c-2.004-.005-4.01.023-6.014-.011zm-9 0c-.008-.02-.005-2.339 0-6.005h3.015l.007 2.993 2.992.007v3.015c-2.004-.004-4.01.023-6.014-.011zM0 0h24v24H0zm20.985 3.015H3.015v17.97h17.97z"/></svg>