<svg role="img" viewBox="0 0 24 24" xmlns="http://www.w3.org/2000/svg"><title>Atomberg</title><path d="M11.727.003c-.277.006-.554.023-.83.048v.001a11.935 11.935 0 0 0-5.502 1.932 12.052 12.052 0 0 0-4.45 5.361 12.07 12.07 0 0 0-.714 6.96 11.96 11.96 0 0 0 2.588 5.414 12.007 12.007 0 0 0 5.814 3.802c2.425.71 5.074.63 7.45-.234a12.009 12.009 0 0 0 4.97-3.418 11.971 11.971 0 0 0 2.7-5.49 12.063 12.063 0 0 0-.75-7.156 12.045 12.045 0 0 0-5.651-5.964A11.961 11.961 0 0 0 11.727.003zm.475 3.82c.398-.004.796.019 1.19.067 1.104.139 2.199.537 3.055 1.262.8.667 1.352 1.598 1.633 2.595.24.823.3 1.687.288 2.541h-.001v.001h-3.862c.006-.646.028-1.328-.283-1.916-.29-.599-.896-.992-1.538-1.12a4.216 4.216 0 0 0-2.266.17c-.19.066-.37.165-.551.255a3.345 3.345 0 0 1-.259.116 1.57 1.57 0 0 1-.249.075c-.006 0-.011.004-.018.005l-.026.003c-.055.01-.11.017-.167.021l-.05.003c-.055.002-.11.001-.165-.002-.019 0-.037-.003-.055-.005a1.493 1.493 0 0 1-.365-.08 1.657 1.657 0 0 1-.552-.324 1.509 1.509 0 0 1-.15-.157l-.03-.032c-.008-.01-.013-.022-.02-.031a1.435 1.435 0 0 1-.241-.46 1.614 1.614 0 0 1-.076-.425l-.002-.073a1.563 1.563 0 0 1 .018-.249c.01-.068.024-.136.043-.203l.011-.039a1.566 1.566 0 0 1 .218-.44l.003-.004c.06-.09.13-.17.208-.242.231-.215.525-.362.803-.506 1.068-.54 2.261-.795 3.455-.806zm-5.744 6.462c1.488.01 2.976-.014 4.463.013-1.186-.006-2.408.203-3.443.808-.76.441-1.375 1.145-1.65 1.986-.116.324-.155.668-.214 1.006l.015-3.235a.59.59 0 0 1 .33-.516c.154-.077.332-.058.499-.062zm5.584 1.818c.629.034 1.24.386 1.552.942.472.78.272 1.878-.448 2.438-.712.602-1.866.552-2.52-.114-.667-.62-.765-1.731-.227-2.463.245-.349.61-.608 1.018-.727.204-.063.416-.087.625-.076zm-6.425 2.605c.082.663.243 1.331.612 1.9.557.907 1.509 1.517 2.523 1.793a6.891 6.891 0 0 0 3.278.056 5.692 5.692 0 0 0 2.806-1.548c.005.328-.009.657.004.985-.005.22.202.4.418.387l2.752-.004c.194.002.313-.167.356-.338.006.573-.202 1.156-.619 1.559-.481.476-1.173.682-1.839.68H8.046a2.417 2.417 0 0 1-1.67-.674 2.43 2.43 0 0 1-.746-1.683c-.013-1.039.012-2.076-.013-3.113z"/></svg>