<svg xmlns="http://www.w3.org/2000/svg" viewBox="0 0 24 24"><path d="m23.758 13.711-2.01-3.191-.196-.276a1.652 1.652 0 0 0-1.38-.749l-3.23-.039-.197.394-3.861 6.186-.197.354 1.615 2.6c.315.474.828.75 1.38.75h4.53c.552 0 1.103-.276 1.38-.75l.157-.236 2.01-3.23c.314-.591.314-1.261 0-1.813zm-.63 1.38-2.01 3.23s0 .04-.039.04c-.079.078-.158.078-.197.078-.04 0-.158 0-.236-.118l-2.01-3.23c-.04-.04-.04-.08-.079-.119 0-.04-.039-.079-.039-.118a1.12 1.12 0 0 1 0-.512c.04-.08.04-.158.118-.237l2.01-3.191c.039-.079.118-.118.157-.118h.079c.04 0 .158 0 .236.118l2.01 3.191a.895.895 0 0 1 0 .985zM17.809 5.95a1.707 1.707 0 0 0 0-1.734l-2.01-3.192-.157-.275A1.652 1.652 0 0 0 14.262 0h-4.53c-.552 0-1.064.276-1.38.749L.237 13.75a1.55 1.55 0 0 0-.236.827c0 .315.079.591.236.867l2.167 3.467c.316.512.828.788 1.419.788h4.53c.552 0 1.104-.276 1.38-.749l.157-.275 1.616-2.6 4.767-7.644 1.537-2.483zm-.473-.828c0 .158-.04.315-.158.473L9.26 18.282c-.079.118-.197.118-.236.118-.04 0-.158 0-.237-.118l-2.01-3.231a.83.83 0 0 1 0-.946l7.96-12.687c.078-.118.197-.118.236-.118.04 0 .158 0 .236.118l2.01 3.192c.079.157.118.315.118.512z"/></svg>