<?xml version="1.0" encoding="UTF-8" standalone="no"?>
<svg
   xmlns:dc="http://purl.org/dc/elements/1.1/"
   xmlns:cc="http://creativecommons.org/ns#"
   xmlns:rdf="http://www.w3.org/1999/02/22-rdf-syntax-ns#"
   xmlns:svg="http://www.w3.org/2000/svg"
   xmlns="http://www.w3.org/2000/svg"
   xmlns:sodipodi="http://sodipodi.sourceforge.net/DTD/sodipodi-0.dtd"
   xmlns:inkscape="http://www.inkscape.org/namespaces/inkscape"
   viewBox="0 0 24 24"
   role="img"
   version="1.1"
   id="svg6"
   sodipodi:docname="audacity.svg"
   inkscape:version="0.92.4 5da689c313, 2019-01-14">
  <metadata
     id="metadata12">
    <rdf:RDF>
      <cc:Work
         rdf:about="">
        <dc:format>image/svg+xml</dc:format>
        <dc:type
           rdf:resource="http://purl.org/dc/dcmitype/StillImage" />
        <dc:title>Tor icon</dc:title>
      </cc:Work>
    </rdf:RDF>
  </metadata>
  <defs
     id="defs10" />
  <sodipodi:namedview
     pagecolor="#ffffff"
     bordercolor="#666666"
     borderopacity="1"
     objecttolerance="10"
     gridtolerance="10"
     guidetolerance="10"
     inkscape:pageopacity="0"
     inkscape:pageshadow="2"
     inkscape:window-width="1366"
     inkscape:window-height="714"
     id="namedview8"
     showgrid="false"
     inkscape:zoom="7.5915003"
     inkscape:cx="10.598175"
     inkscape:cy="-2.8282298"
     inkscape:window-x="0"
     inkscape:window-y="26"
     inkscape:window-maximized="1"
     inkscape:current-layer="svg6" />
  <title
     id="title2">Tor icon</title>
  <path
     inkscape:connector-curvature="0"
     style="opacity:0.2;fill:#000000;stroke-width:0.34762153"
     d="M 7.477875,8.5231665 A 0.39236864,0.39951636 0 0 0 7.0909096,8.8516431 L 5.6786769,16.841171 a 0.39236864,0.39951636 0 1 0 0.7716323,0.141221 l 0.8474922,-4.792156 0.5724034,8.742447 a 0.39236864,0.39951636 0 0 0 0.7823598,0.0024 l 0.4076548,-5.814254 0.3793023,5.016862 a 0.39236864,0.39951636 0 0 0 0.7815943,0.0055 l 0.48045,-5.384349 0.310339,2.209603 a 0.39236864,0.39951636 0 0 0 0.770866,0.02965 l 0.793854,-3.636639 v 5.946892 a 0.39236864,0.39951636 0 0 0 0.780061,0.06086 l 1.154,-7.637645 1.208405,9.227748 a 0.39236864,0.39951636 0 0 0 0.779295,-0.01717 l 0.617612,-6.914375 0.738683,2.213505 a 0.39256212,0.39971336 0 1 0 0.743281,-0.257497 l -1.334073,-3.993998 a 0.39236864,0.39951636 0 0 0 -0.762438,0.09207 L 16.034028,17.3179 14.927536,8.8695991 a 0.39236864,0.39951636 0 0 0 -0.776996,-0.0078 L 13.361284,14.084629 V 9.7215984 a 0.39236864,0.39951636 0 0 0 -0.774697,-0.087384 l -1.102661,5.0527516 -0.48045,-3.424418 a 0.39236864,0.39951636 0 0 0 -0.778529,0.02028 L 9.8632682,15.332213 9.4372233,9.6903889 a 0.39236864,0.39951636 0 0 0 -0.7823598,0.00243 L 8.27556,15.105181 7.8686721,8.8961307 A 0.39236864,0.39951636 0 0 0 7.477875,8.5231815 Z"
     id="path2" />
  <path
     inkscape:connector-curvature="0"
     style="opacity:0.2;fill:#000000;stroke-width:0.34762153"
     d="m 12.184296,2.9319797 c -2.2764503,0 -4.5482202,0.7237008 -6.0796621,1.9388643 C 4.5731911,6.0860075 3.5782473,7.8247722 3.5782473,9.7589681 v 0.6990839 c -1.5205366,0.784423 -2.3784085,2.841478 -2.3784085,5.25327 0,3.087044 1.7250344,5.592671 3.9478149,5.592671 V 9.7589681 c 0,-1.4484493 0.7363723,-2.7816732 2.0007261,-3.7848822 1.2641967,-1.0033689 3.0499962,-1.4481023 5.0366822,-1.4481023 1.986763,0 3.772328,0.4449093 5.036682,1.4481023 1.264354,1.0031934 2.000726,2.3364329 2.000726,3.7848822 V 21.303993 c 2.222859,0 3.947049,-2.505627 3.947049,-5.592671 0,-2.411951 -0.81857,-4.468727 -2.339185,-5.25327 V 9.7589681 c 0,-1.9341959 -0.994178,-3.6729606 -2.52562,-4.8881241 C 16.773115,3.6556007 14.461276,2.9319797 12.185062,2.9319797 Z M 5.5154624,10.118654 v 8.34e-4 11.18454 c 0.3138487,0 0.6276974,-0.177817 0.7846583,-0.532895 V 10.473692 C 6.143196,10.296129 5.8293469,10.118665 5.5154624,10.118665 Z m 13.3391996,0 c -0.313885,0 -0.627735,0.177463 -0.784659,0.355002 v 10.297442 c 0.15696,0.355077 0.47081,0.532895 0.784659,0.532895 V 10.119434 Z"
     id="path4" />
  <path
     inkscape:connector-curvature="0"
     style="opacity:0.03999999;fill:#000000;stroke:#000000;stroke-width:0.79174614;stroke-linecap:round;stroke-linejoin:round"
     d="M 6.0645487,16.910227 7.4768846,8.9209829 8.2615151,20.904848 9.0461463,9.7199079 9.8307762,20.105923 10.615408,11.317757 11.400039,16.910227 12.9693,9.7199079 v 9.5870911 l 1.569262,-10.3860161 1.569262,11.9838651 0.78463,-8.788168 1.333873,3.994622"
     id="path6" />
  <path
     inkscape:connector-curvature="0"
     style="fill:#000000;stroke-width:0.34762153"
     d="M 7.477875,8.1220516 A 0.39236864,0.39951636 0 0 0 7.0909096,8.4505275 L 5.6786769,16.440055 a 0.39236864,0.39951636 0 1 0 0.7716323,0.141222 l 0.8474922,-4.792157 0.5724034,8.742448 a 0.39236864,0.39951636 0 0 0 0.7823598,0.0024 l 0.4076548,-5.814254 0.3793023,5.016861 a 0.39236864,0.39951636 0 0 0 0.7815943,0.0055 l 0.48045,-5.384348 0.310339,2.209604 a 0.39236864,0.39951636 0 0 0 0.770866,0.02965 l 0.793854,-3.63664 v 5.946893 a 0.39236864,0.39951636 0 0 0 0.780061,0.06086 l 1.154,-7.637645 1.208405,9.227748 a 0.39236864,0.39951636 0 0 0 0.779295,-0.01717 l 0.617612,-6.914374 0.738683,2.213505 a 0.39256434,0.39971554 0 1 0 0.743281,-0.257511 L 17.263889,11.58864 a 0.39236864,0.39951636 0 0 0 -0.762438,0.09207 l -0.467423,5.236077 -1.106492,-8.4483029 a 0.39236864,0.39951636 0 0 0 -0.776996,-0.0078 L 13.361284,13.683513 V 9.3204824 a 0.39236864,0.39951636 0 0 0 -0.774697,-0.087384 l -1.102661,5.0527516 -0.48045,-3.424418 a 0.39236864,0.39951636 0 0 0 -0.778529,0.02028 L 9.8632682,14.931094 9.4372233,9.2892695 a 0.39236864,0.39951636 0 0 0 -0.7823598,0.00243 L 8.27556,14.704064 7.8686721,8.4950144 A 0.39236864,0.39951636 0 0 0 7.477875,8.1220662 Z"
     id="path8" />
  <path
     inkscape:connector-curvature="0"
     style="opacity:0.2;fill:#000000;fill-rule:evenodd;stroke-width:0.34762153"
     d="m 14.51605,8.1204915 a 0.39235456,0.39950208 0 0 0 -0.364744,0.3401786 l -0.790022,5.2220619 v 0.391674 L 14.151306,8.8515635 A 0.39235456,0.39950208 0 0 1 14.55513,8.5113839 0.39235456,0.39950208 0 0 1 14.927536,8.860146 l 1.106492,8.449083 0.467423,-5.236887 a 0.39235456,0.39950208 0 0 1 0.762438,-0.09207 l 1.311084,3.925323 a 0.39235456,0.39950208 0 0 0 0.02299,-0.322233 l -1.334075,-3.993984 a 0.39235456,0.39950208 0 0 0 -0.762437,0.09129 L 16.03403,16.917555 14.927538,8.4684721 a 0.39235456,0.39950208 0 0 0 -0.372406,-0.3479806 0.39235456,0.39950208 0 0 0 -0.03908,0 z m -7.0374085,0.00156 A 0.39235456,0.39950208 0 0 0 7.0909096,8.450532 L 5.6779097,16.44006 a 0.39235456,0.39950208 0 0 0 0.026822,0.23953 L 7.0909131,8.8422059 A 0.39235456,0.39950208 0 0 1 7.4786453,8.5129499 0.39235456,0.39950208 0 0 1 7.8679098,8.8858981 L 8.2755635,15.105871 8.6556331,9.6832915 a 0.39235456,0.39950208 0 0 1 0.781594,-0.00309 l 0.4260431,5.6418245 0.3616788,-4.048601 a 0.39235456,0.39950208 0 0 1 0.777763,-0.02029 l 0.479684,3.423638 1.104193,-5.0519732 a 0.39235456,0.39950208 0 0 1 0.774697,0.086606 V 9.3205109 a 0.39235456,0.39950208 0 0 0 -0.774698,-0.087373 l -1.104192,5.0519731 -0.479684,-3.422858 a 0.39235456,0.39950208 0 0 0 -0.777763,0.0195 L 9.8632692,14.931095 9.4372247,9.2892712 a 0.39235456,0.39950208 0 0 0 -0.7815944,0.00309 L 8.27556,14.714193 7.8679063,8.4949998 A 0.39235456,0.39950208 0 0 0 7.4786415,8.1220515 Z"
     id="path10" />
  <path
     inkscape:connector-curvature="0"
     style="fill:#000000;stroke-width:0.34762153"
     d="m 12.184296,2.532503 c -2.2764503,0 -4.5482202,0.7237013 -6.0796621,1.9388651 C 4.5731911,5.686532 3.5782473,7.4252967 3.5782473,9.3594922 v 0.6990838 c -1.5205366,0.784423 -2.3784085,2.841478 -2.3784085,5.253271 0,3.087043 1.7250344,5.592668 3.9478149,5.592668 V 9.3594922 c 0,-1.4484497 0.7363723,-2.7816732 2.0007261,-3.7848832 1.2641967,-1.0033689 3.0499962,-1.4481015 5.0366822,-1.4481015 1.986763,0 3.772328,0.4449088 5.036682,1.4481015 1.264354,1.003194 2.000726,2.3364335 2.000726,3.7848832 V 20.904515 c 2.222859,0 3.947049,-2.505625 3.947049,-5.592668 0,-2.411953 -0.81857,-4.468728 -2.339185,-5.253271 V 9.3594922 c 0,-1.9341955 -0.994178,-3.6729602 -2.52562,-4.8881241 C 16.773115,3.2561241 14.461276,2.532503 12.185062,2.532503 Z M 5.5154624,9.7191769 v 8.342e-4 11.1845409 c 0.3138487,0 0.6276974,-0.177818 0.7846583,-0.532895 V 10.074216 C 6.143196,9.8966773 5.8293469,9.7192123 5.5154624,9.7192123 Z m 13.3391996,0 c -0.313885,0 -0.627735,0.1774646 -0.784659,0.3550031 v 10.297441 c 0.15696,0.355077 0.47081,0.532894 0.784659,0.532894 V 9.7199566 Z"
     id="path12" />
  <path
     inkscape:connector-curvature="0"
     style="opacity:0.2;fill:#000000;stroke-width:0.34762153"
     d="m 12.184296,2.532503 c -2.2764503,0 -4.5481309,0.7237013 -6.0795738,1.9388651 C 4.5732797,5.686532 3.578336,7.4252967 3.578336,9.3594922 v 0.3994759 c 0,-1.9341959 0.9949437,-3.6729606 2.5263862,-4.8881241 C 7.6361651,3.6556805 9.9078457,2.9319797 12.184296,2.9319797 h 7.99e-4 c 2.276215,0 4.58782,0.723621 6.11942,1.9388643 1.531442,1.2151635 2.525621,2.9539282 2.525621,4.8881241 V 9.3594922 c 0,-1.9341955 -0.994179,-3.6729602 -2.525621,-4.8881241 C 16.772881,3.2561241 14.461276,2.532503 12.185062,2.532503 h -8e-4 z M 5.5154624,9.7191769 v 7.995e-4 0.3986966 c 0.3138845,0 0.6277336,0.177465 0.7846583,0.355003 V 10.0742 C 6.143196,9.8966648 5.8293469,9.7192001 5.5154624,9.7192001 Z m 13.3391996,0 c -0.313885,0 -0.627735,0.1774646 -0.784659,0.3550031 v 0.399476 c 0.156924,-0.177539 0.470774,-0.355002 0.784659,-0.355002 V 9.7199566 9.719157 Z M 3.578336,10.058576 c -1.5205363,0.784423 -2.3784972,2.841478 -2.3784972,5.253271 0,0.05264 0.00437,0.10375 0.00536,0.156045 0.05609,-2.305553 0.9042526,-4.252064 2.373133,-5.00984 z m 17.251765,0 v 0.399476 c 1.482465,0.764862 2.291785,2.741875 2.331756,5.075379 0.002,-0.07404 0.0077,-0.146831 0.0077,-0.221584 0,-2.411953 -0.818803,-4.468728 -2.339418,-5.253271 z"
     id="path14" />
</svg>
