<svg role="img" viewBox="0 0 24 24" xmlns="http://www.w3.org/2000/svg"><title>Audacy</title><path d="m23.88906 19.77463-4.11415 4.11415c-.14764.14792-.38728.14792-.53521 0l-4.11415-4.11415c-.14764-.14764-.14764-.38728 0-.53493l4.11415-4.11442c.14792-.14764.38756-.14764.53521 0l4.11415 4.11442c.14792.14764.14792.38728 0 .53493Zm-10.26369-4.91639h-1.24434v.72563a.28325.28325 0 0 1 0 .02181c-.00615.23573-.20217.42196-.4379.41608-.23573-.00615-.42196-.20217-.4158-.4379v-.72563H9.9055v.72563c0 .23573-.19126.42699-.42699.42699s-.42699-.19127-.42699-.42699v-.72563h-1.2449c-.2086.00028-.3775.16973-.37722.37834v1.24406h.72535a.28325.28325 0 0 1 .02181 0c.236.00615.42224.20217.41636.43817-.00615.23573-.20217.42224-.43817.41608H7.4294v1.62183h.72647c.23573.00028.42671.19183.42643.42755-.00028.23573-.19182.42671-.42755.42643H7.4294v1.24462c0 .20888.16917.37806.37806.37806h5.81875c.20888-.00028.37806-.16945.37806-.37833v-5.81959c-.00056-.20888-.17001-.37778-.37889-.37722Zm-7.77614 4.0982h.72703v-1.62183h-.72703c-.23573-.00028-.42643-.19126-.42671-.42699 0-.23517.18987-.42615.42503-.42727h.72703v-1.24406c0-.20888-.16917-.37806-.37805-.37806H4.95219v.72619c-.00028.23573-.19155.42699-.42727.42671s-.42699-.19155-.42671-.42727v-.72563H2.47638v.72563a.28325.28325 0 0 1 0 .02181c-.00615.23573-.20217.42196-.43789.41608-.23573-.00615-.42196-.20217-.4158-.4379v-.72563H.37834c-.20888 0-.37834.16945-.37834.37834v5.81819c.00028.20888.16945.37805.37834.37833h5.82015c.20888-.00028.37806-.16945.37778-.37833v-1.24434h-.72703c-.23545-.00028-.42615-.19099-.42643-.42643-.00028-.23573.19071-.42727.42643-.42755Zm.3473-11.52732H4.95219v.72703c-.00028.23573-.19099.42643-.42671.42671s-.42699-.19099-.42727-.42671v-.72703H2.47638v.72703c-.00587.22734-.18875.41021-.4158.4158-.236.00615-.43174-.18008-.43789-.4158v-.72703H.37834C.16946 7.4294.00028 7.59829 0 7.80718v5.81875c0 .20888.16945.37833.37834.37833h1.2449v-.72703a.28325.28325 0 0 1 0-.02181c.00615-.23573.20217-.42196.4379-.41608.23573.00615.42196.20217.4158.43789v.72703h1.62183v-.72703c0-.23573.19126-.42699.42699-.42699s.42699.19127.42699.42699v.72703h1.24462c.20888-.00028.37806-.16945.37778-.37833V7.80662c-.00028-.20888-.16973-.37778-.37861-.3775Zm7.08182 4.09793h.72703V9.90522h-.72759c-.23545-.00028-.42643-.19126-.42615-.42671-.00028-.23545.19015-.42643.42559-.42699h.72703V7.80718c-.00028-.2086-.16945-.37778-.37806-.37806H7.80745c-.20888 0-.37806.16917-.37806.37806v5.81875c.00028.2086.16945.37777.37806.3775h1.24378v-.72703c0-.23573.19127-.42699.42699-.42699s.42699.19126.42699.42699v.72703h1.62183v-.72703a.28325.28325 0 0 1 0-.02181c.00615-.23573.20217-.42196.4379-.41608.23573.00615.42196.20217.4158.4379v.72703h1.24686c.20888-.00028.37805-.16946.37777-.37834v-1.24434h-.72703c-.22734-.00587-.41021-.18875-.4158-.4158-.00615-.23573.18008-.43174.4158-.4379ZM5.84923 4.09849h.72703V2.47666h-.72703c-.23573-.00028-.42643-.19127-.42671-.42699-.00028-.23545.19015-.42643.42559-.42727h.72703V.37834c0-.20889-.16917-.37806-.37806-.37806H.37834C.16945.00028 0 .16973 0 .37862v5.81791c.00028.20888.16945.37805.37834.37833h1.24602v-.72703a.28325.28325 0 0 1 0-.02181c.00615-.23573.20217-.42196.43789-.41608.23573.00615.42196.20217.4158.43789v.72703h1.62183v-.72703c0-.23573.19127-.42699.42699-.42699s.42699.19127.42699.42699v.72703h1.24462c.20888-.00028.37806-.16945.37778-.37833V4.95219h-.72703c-.22734-.00587-.41021-.18875-.4158-.41581-.00615-.23573.18008-.43174.4158-.43789Zm7.42912 0h.72703V2.47666h-.72703c-.23573-.00028-.42671-.19127-.42671-.42699-.00028-.23545.19015-.42643.42559-.42727h.72703V.37834c0-.20889-.16917-.37806-.37806-.37806H7.80661c-.2086.00028-.3775.16973-.37722.37834V1.6224h.72535a.28325.28325 0 0 1 .02181 0c.236.00615.42224.20217.41636.43817-.00615.23573-.20217.42224-.43817.41608h-.72535v1.62183h.72535a.28325.28325 0 0 1 .02181 0c.23573.00615.42196.20217.41608.43789-.00615.23573-.20217.42196-.4379.41581h-.72535V6.1968c0 .20888.16917.37806.37806.37806h5.81987c.20888-.00028.37805-.16945.37805-.37833V4.95219h-.72703c-.22734-.00587-.41021-.18875-.4158-.41581-.00615-.23573.18008-.43174.4158-.43789ZM21.05504.00028h-5.81791c-.20888 0-.37834.16945-.37834.37834v1.24434h.72703c.22734.00587.41049.18875.41608.41608.00615.236-.18008.43202-.41608.43818h-.72703v1.62183h.72703a.28325.28325 0 0 1 .02181 0c.23573.00615.42196.20217.41608.43789-.00615.23573-.20217.42196-.4379.4158h-.72703v1.24434c.00028.20888.16945.37806.37834.37834h1.24434v-.72703a.28325.28325 0 0 1 0-.02181c.00615-.23573.20189-.42196.43789-.41608.23573.00615.42196.20217.4158.4379v.72703h1.62183V5.8484a.28325.28325 0 0 1 0-.02181c.00615-.23573.20189-.42196.4379-.41608.23573.00615.42196.20217.4158.4379v.72703h1.24462c.20888-.00028.37806-.16945.37778-.37834V.37834c.00002-.20889-.16916-.37806-.37804-.37806Zm-.00084 7.42884h-1.24434v.72703c-.00587.22734-.18875.41021-.4158.4158-.236.00615-.43174-.18008-.43789-.4158v-.72703h-1.62183v.72703c-.00587.22734-.18875.41021-.4158.4158-.236.00615-.43174-.18008-.4379-.4158v-.72703H15.2363c-.20888.00028-.37806.16917-.37833.37806v1.24434h.72703a.28325.28325 0 0 1 .02181 0c.23573.00615.42196.20217.41608.43789-.00615.23573-.20217.42196-.43789.4158h-.72703v1.62183h.72703a.28325.28325 0 0 1 .02181 0c.23573.00615.42196.20217.41608.4379-.00615.23573-.20217.42196-.43789.4158h-.72703v1.24518c0 .20888.16945.37833.37833.37833h5.81903c.20888-.00028.37806-.16945.37778-.37833V7.80633c-.00056-.20888-.17001-.37777-.37889-.37722Z"/></svg>