<svg role="img" viewBox="0 0 24 24" xmlns="http://www.w3.org/2000/svg"><title>Audiomack icon</title><path d="M.33 11.39s.54-.09.77.14c.22.23.07.71-.22.72-.3.01-.57.06-.77-.14a.443.443 0 01.22-.72zm5.88 3.26c-.05.01-.11-.02-.16-.06-.39-.53-.53-2.37-.71-2.48-.18-.11-.85 1.02-2.19.9-.55-.05-1.12-.41-1.45-.66.03-.41.03-1.39.86-1.07.51.19 1.37.72 2.13-.23.84-1.05 1.3-.74 1.57-.51.28.22.1 1.41.51 1.08.41-.33 2.08-2.39 2.08-2.39s1.29-1.29 1.49.06c.2 1.36 1.04 2.87 1.27 2.82.22-.04 2.82-5.27 3.19-5.61.37-.34 1.63-.29 1.57.57-.06.87-.19 6.25-.19 6.25s-.15 1.52.09.71c.1-.34.21-.64.34-1 .64-2.03 1.73-5.51 2.28-7.3.12-.42.23-.79.32-1.07v-.01c.03-.13.06-.23.09-.32.05-.15.08-.26.09-.28.02-.07.09-.12.19-.16.09-.06.2-.06.31-.06.31-.03.69.01 1.04.11.11 0 .22.03.32.11 0 0 .01 0 .02.01.03.02.06.05.1.1h.01c.01.02.03.05.05.07.19.29.31.81.19 1.74-.3 2.31-.53 7.07-.53 7.07s-.05.23.44-.77c.01-.04.03-.07.05-.1.03-.02.06-.04.1-.08.29-.36 1.09-.56 1.65-.56.23.03.43.09.54.16.22.33.09 1.55.09 1.55-.46.04-1.34.29-1.65.33-.31.05-.78 2.05-1.44 1.85-.66-.21-2.13-1.12-2.13-1.24 0-.11.12-1.44.15-1.79v-.07-.01c.03-.27.01-.39-.12-.12-.11.23-.58 1.72-1.11 3.34-.05.14-1.05 3.13-1.18 3.49-.15.42-.29.75-.38.91-.13.19-.32.3-.58.23-.65-.2-1.46-1.08-1.47-1.3-.02-1.24.06-7.9-.24-7.35-.32.57-2.73 4.52-2.73 4.52-.04.01-.07.01-.11.01-.17-.02-.44-.07-.51-.23 0-.01-.01-.02-.01-.03-.01-.01-.01-.02-.02-.04-.03-.11-.04-.23-.07-.33-.11-.36-.28-.88-.47-1.4-.27-.9-.56-1.82-.61-1.92-.09-.2-.22-.12-.35 0-.54.45-1.68 2.45-2.72 2.56z"/></svg>
