<svg role="img" viewBox="0 0 24 24" xmlns="http://www.w3.org/2000/svg"><title>Audi</title><path d="M19.848,7.848c-0.992,0-1.902,0.348-2.616,0.928c-0.714-0.58-1.624-0.928-2.616-0.928 c-0.992,0-1.902,0.348-2.616,0.928c-0.714-0.58-1.624-0.928-2.616-0.928c-0.992,0-1.902,0.348-2.616,0.928 c-0.714-0.58-1.624-0.928-2.616-0.928C1.859,7.848,0,9.707,0,12s1.859,4.152,4.152,4.152c0.992,0,1.902-0.348,2.616-0.928 c0.714,0.58,1.624,0.928,2.616,0.928c0.992,0,1.902-0.348,2.616-0.928c0.714,0.58,1.624,0.928,2.616,0.928 c0.992,0,1.902-0.348,2.616-0.928c0.714,0.58,1.624,0.928,2.616,0.928C22.141,16.152,24,14.293,24,12S22.141,7.848,19.848,7.848z M17.232,13.866c-0.376-0.526-0.598-1.17-0.598-1.866c0-0.696,0.222-1.34,0.598-1.866c0.376,0.526,0.598,1.17,0.598,1.866 C17.83,12.696,17.608,13.34,17.232,13.866z M12,13.866c-0.376-0.526-0.598-1.17-0.598-1.866c0-0.696,0.222-1.34,0.598-1.866 c0.376,0.526,0.598,1.17,0.598,1.866C12.598,12.696,12.376,13.34,12,13.866z M6.768,13.866C6.392,13.34,6.17,12.696,6.17,12 c0-0.696,0.222-1.34,0.598-1.866C7.144,10.66,7.366,11.304,7.366,12C7.366,12.696,7.144,13.34,6.768,13.866z M0.938,12 c0-1.775,1.439-3.214,3.214-3.214c0.736,0,1.414,0.248,1.956,0.665C5.56,10.154,5.232,11.039,5.232,12 c0,0.961,0.328,1.846,0.876,2.549c-0.542,0.416-1.22,0.665-1.956,0.665C2.377,15.214,0.938,13.775,0.938,12z M7.428,14.549 C7.976,13.846,8.304,12.961,8.304,12c0-0.961-0.328-1.846-0.876-2.549c0.542-0.416,1.22-0.665,1.956-0.665 c0.736,0,1.414,0.248,1.956,0.665c-0.549,0.704-0.876,1.588-0.876,2.549c0,0.961,0.328,1.846,0.876,2.549 c-0.542,0.416-1.22,0.665-1.956,0.665C8.648,15.214,7.97,14.966,7.428,14.549z M12.66,14.549c0.549-0.704,0.876-1.588,0.876-2.549 c0-0.961-0.328-1.846-0.876-2.55c0.542-0.416,1.22-0.665,1.956-0.665s1.414,0.248,1.956,0.665 c-0.549,0.704-0.876,1.588-0.876,2.549c0,0.961,0.328,1.846,0.876,2.549c-0.542,0.416-1.22,0.665-1.956,0.665 C13.88,15.214,13.202,14.966,12.66,14.549z M19.848,15.214c-0.736,0-1.414-0.248-1.956-0.665c0.548-0.704,0.876-1.588,0.876-2.549 c0-0.961-0.328-1.846-0.876-2.549c0.542-0.416,1.22-0.665,1.956-0.665c1.775,0,3.214,1.439,3.214,3.214 S21.623,15.214,19.848,15.214z"/></svg>