<svg role="img" viewBox="0 0 24 24" xmlns="http://www.w3.org/2000/svg"><title>Audiomack icon</title><path d="M.3297 11.3897s.54-.09.77.14c.22.23.07.71-.22.72-.3.01-.57.06-.77-.14a.443.443 0 01.22-.72zM6.21 14.65c-.05.01-.11-.02-.16-.06-.39-.53-.53-2.3701-.71-2.4801-.18-.11-.8501 1.02-2.1902.9-.55-.05-1.12-.41-1.45-.66.03-.41.03-1.39.86-1.07.51.19 1.37.72 2.13-.23.8401-1.0501 1.3002-.7401 1.5702-.5101.28.22.1 1.41.51 1.08.41-.33 2.0801-2.391 2.0801-2.391s1.29-1.2901 1.49.06c.2 1.36 1.0401 2.87 1.2701 2.82.22-.04 2.8212-5.2702 3.1912-5.6102.37-.34 1.63-.29 1.57.57-.06.87-.19 6.2503-.19 6.2503s-.15 1.5201.09.71c.1-.34.21-.64.34-1 .6401-2.03 1.7302-5.5103 2.2802-7.3004.12-.42.23-.79.32-1.07v-.01c.03-.13.06-.23.09-.32.05-.15.08-.26.09-.28.02-.07.09-.12.19-.16.09-.06.2-.06.31-.06.31-.03.69.01 1.0401.11.11 0 .22.03.32.11 0 0 .01 0 .02.01.03.02.06.05.1.1h.01c.01.02.03.05.05.07.19.29.31.81.19 1.74-.3 2.3102-.53 7.0704-.53 7.0704s-.05.23.44-.77c.01-.04.03-.07.05-.1.03-.02.06-.04.1-.08.29-.36 1.09-.56 1.6501-.56.23.03.43.09.54.16.22.33.09 1.55.09 1.55-.46.04-1.34.29-1.65.33-.31.05-.78 2.0501-1.4401 1.8501-.66-.21-2.1301-1.12-2.1301-1.24 0-.11.12-1.4401.15-1.7901v-.08c.03-.27.01-.39-.12-.12-.11.23-.58 1.72-1.11 3.3401-.05.14-1.0501 3.1302-1.1801 3.4902-.15.42-.29.751-.38.911-.13.19-.32.3-.58.23-.6501-.2-1.4602-1.08-1.4702-1.3-.02-1.24.06-7.9004-.24-7.3504-.32.57-2.7301 4.5203-2.7301 4.5203-.04.01-.07.01-.11.01-.17-.02-.44-.07-.51-.23 0-.01-.01-.02-.01-.03-.01-.01-.01-.02-.02-.04-.03-.11-.04-.23-.07-.33-.11-.36-.28-.8801-.47-1.4001-.27-.9-.56-1.8201-.61-1.9201-.0901-.2-.2201-.12-.3501 0-.54.45-1.6801 2.4501-2.7201 2.5601z"/></svg>