<svg role="img" viewBox="0 0 24 24" xmlns="http://www.w3.org/2000/svg"><title>Auth0</title><path d="M3.73184 9.89828c3.82573-.62552 6.82406-3.6038 7.45416-7.40359l.3065-1.8478c.0589-.35744-.2367-.67277-.6005-.6452C7.97906.22553 5.23389 1.18335 3.71781 1.8007 2.98157 2.1009 2.5 2.81154 2.5 3.60245V9.4433c0 .34351.30926.6049.65084.54919l.581-.09451zm9.08246-7.40386c.6297 3.79977 3.6283 6.77773 7.4539 7.40356l.581.09451c.3416.05571.6508-.20568.6508-.54919V3.60248c0-.79122-.4816-1.50155-1.2178-1.80174-1.516-.61856-4.2623-1.57516-7.1739-1.79902-.3639-.02787-.6606.28656-.6005.64521l.3065 1.84779zm7.4992 9.63508c-3.8135.6487-6.8022 3.7371-7.4302 7.6774l-.381 3.74c-.0349.3373.3281.5751.6014.3863.0027-.0015.0042-.0028.007-.0044 2.3916-1.6667 7.8473-6.0295 8.3872-11.4792.0265-.2683-.2037-.4872-.4606-.4442l-.7229.1225-.0015.0016zm-9.2002 7.6832c-.6272-3.9392-3.61359-7.0264-7.42372-7.6752l-.77667-.1325c-.22871-.039-.43343.157-.41126.3963.5115 5.4786 6.03776 9.8675 8.44825 11.5366.2497.1714.5798-.0346.548-.3429l-.3849-3.7823z"/></svg>