<svg role="img" viewBox="0 0 24 24" xmlns="http://www.w3.org/2000/svg"><title>AutoHotkey icon</title><path d="M22 0H2a2 2 0 00-2 2v20a2 2 0 002 2h20a2 2 0 002-2V2a2 2 0 00-2-2zm.2 20.18a1.73 1.73 0 01-1.73 1.74h-17a1.74 1.74 0 01-1.74-1.74V3a1.74 1.74 0 011.75-1.79h17A1.73 1.73 0 0122.17 3zM7.11 14.41l-1.6 4.51h.59l.49-1.35h1.8l.5 1.35h.63l-1.67-4.51zm-.37 2.65c.35-1 .61-1.78.72-2.16.1.34.33 1 .76 2.16zm6.36-.75h-2.35v-1.88h-.6v4.51h.6v-2.12h2.35v2.12h.59v-4.51h-.59zm5.14-1.9h-.75c-.72.74-1.87 1.88-2.21 2.23v-2.23h-.6V19h.6v-1.76l.58-.52L17.6 19h.74l-2.06-2.63z"/></svg>