<svg role="img" viewBox="0 0 24 24" xmlns="http://www.w3.org/2000/svg"><title>Automatic icon</title><path d="M12 6.765v.002-1.238c-.485.033-.754.293-.99.71L5.866 16.723h2.466l-.753-.96.654-1.364.005.007L12 6.77zm-1.474 6.359h2.947L12 10.074m-3.769 4.344h.017l-.01-.013m5.236-1.281v.002m8.029-8.065L13.26.301C12.568-.1 11.433-.1 10.74.3L2.498 5.06c-.693.399-1.26 1.381-1.26 2.184v9.513c0 .803.567 1.783 1.26 2.182l8.242 4.76c.693.4 1.827.4 2.521 0l8.24-4.771c.693-.39 1.262-1.381 1.262-2.176v-9.51c0-.8-.568-1.781-1.261-2.182zm-6.07 12.058l-.688-1.385H9.242l-.674 1.385H5.283l5.4-11.04c.305-.607.777-.9 1.318-.9.54 0 1.034.328 1.316.89l5.4 11.05zM12 6.767v2.475l2.52 5.177H8.247l.759.94h5.975l.675 1.351h2.476l-1.71-.99v.04l-4.422-8.993"/></svg>