<svg viewBox="0 0 24 24" xmlns="http://www.w3.org/2000/svg" fill-rule="evenodd" clip-rule="evenodd" stroke-linejoin="round" stroke-miterlimit="1.414"><path d="M1.244 7.248c0-.802.567-1.784 1.26-2.182L10.74.308c.693-.4 1.826-.4 2.519 0l8.237 4.758c.692.4 1.259 1.379 1.259 2.18v9.504c0 .795-.567 1.784-1.26 2.174l-8.236 4.768c-.693.4-1.826.4-2.519 0l-8.237-4.756c-.692-.399-1.259-1.38-1.259-2.181V7.248zm14.185 9.868l-.686-1.383H9.244l-.674 1.383H5.287l5.396-11.033c.305-.607.777-.899 1.317-.899s1.034.327 1.316.889l5.396 11.043h-3.283zm.99-1.361l-4.42-8.987v2.474l2.519 5.174H8.233L12 6.771V5.533c-.485.033-.754.293-.99.71L5.87 16.72h2.464l-.753-.959.653-1.364.774.96h5.973l.674 1.348h2.473l-1.708-.989zm-2.946-2.63L12 10.076l-1.474 3.047h2.947z"/></svg>