<svg role="img" viewBox="0 0 24 24" xmlns="http://www.w3.org/2000/svg" ><title>AutoZone</title><path d="M23.656 10.265c-.19 0-.35.148-.35.347 0 .202.16.35.35.35a.346.346 0 0 0 .346-.35c0-.2-.16-.347-.346-.347zm0 .058a.28.28 0 0 1 .276.289c0 .168-.123.291-.276.291-.16 0-.28-.123-.28-.291 0-.165.12-.29.28-.29zm-.133.09v.402h.058v-.176h.07l.105.176h.067l-.113-.179c.058-.005.103-.038.103-.109 0-.08-.046-.114-.14-.114zm-21.705.041L.003 13.627h1.982L3.8 10.454zm2.204 0-1.815 3.173h.813l1.817-3.173zm1.06 0-1.815 3.173h.376l.655-1.14 1.161-2.033zm.624 0L3.89 13.627h.222l1.815-3.173zm1.576.002c-.41-.013-1.061.096-1.368.682l-1.431 2.503h.933l.399-.699h.454l-.4.699h.926l1.32-2.299c.219-.405.007-.788-.674-.874a1.75 1.75 0 0 0-.16-.012zm16.299.009h.082c.043 0 .087.008.087.058 0 .062-.046.066-.097.066h-.072zm-8.605.002-.43.752h1.256l-2.159 1.58-.486.843h2.558l.428-.747h-1.201l2.087-1.553.5-.875zm-4.22.45-1.109 1.939a.507.507 0 0 0 .056.581.465.465 0 0 0 .415.205h.524l.364-.636h-.396c-.03 0-.065.005-.078-.024-.006-.018-.01-.037-.002-.053l.558-.975h.47l.388-.68h-.47l.205-.358zm2.194.228c-.658.033-1.26.58-1.547 1.394-.219.622-.126 1.144.544 1.18.678.036 1.326-.388 1.688-1.418.22-.622.063-1.123-.552-1.156a1.244 1.244 0 0 0-.133 0zm4.968.006c-.658.034-1.261.582-1.548 1.399-.218.623-.126 1.147.544 1.183.678.036 1.327-.39 1.689-1.422.219-.624.062-1.127-.553-1.16a1.251 1.251 0 0 0-.132 0zm4.604 0c-.654.034-1.219.582-1.505 1.399-.22.623-.17 1.147.5 1.183.565.03 1.067-.26 1.442-.956h-.865c-.118.183-.23.295-.337.274-.1-.02-.066-.21.013-.409h1.258a3.41 3.41 0 0 0 .135-.331c.22-.624.106-1.127-.51-1.16a1.239 1.239 0 0 0-.131 0zm-1.836.102c-.33-.018-.54.184-.54.184l.092-.162h-.789l-1.356 2.367h.866l.815-1.425c.057-.101.135-.217.251-.192.104.022.135.117.1.181l-.82 1.436h.86l.984-1.725c.136-.25-.087-.586-.314-.642a.806.806 0 0 0-.149-.022zm-12.363.02-.98 1.716c-.175.322.054.644.622.716.323.04 1 .001 1.32-.547l.002-.002 1.073-1.882H9.5l-.88 1.572c-.071.13-.146.167-.26.144-.143-.028-.083-.137-.042-.212l.868-1.504zm-1.343.033c.137.013.181.083.096.225l-.373.654h-.454l.409-.716a.318.318 0 0 1 .322-.163zm5.825.585c.148.026.086.2-.042.447-.21.408-.354.612-.532.577-.129-.026-.08-.21.047-.456.177-.345.368-.595.527-.568zm4.967.009c.149.026.086.2-.041.448-.211.41-.355.613-.533.578-.129-.025-.08-.21.047-.457.178-.345.368-.597.527-.57zm4.547 0c.133.024.09.179-.016.401h-.4c.144-.255.29-.424.416-.401z"/></svg>