<svg role="img" viewBox="0 0 24 24" xmlns="http://www.w3.org/2000/svg"><title>Autodesk icon</title><path d="M14.574 1.02c-.097-.097-.291-.582-.971-.582H6.899s.971.097 1.36 1.068c0 0 1.069 2.527 2.04 4.956 2.818 6.607 7.19 17.1 7.19 17.1H24c.097-.097-9.327-22.444-9.425-22.541zm-8.841.875L.389 14.526c-.292.875-.098 1.944 1.457 1.944h4.178l3.692-8.842C8.55 4.713 7.58 2.38 7.58 2.38c-.097-.292-.389-1.069-.972-1.069s-.777.486-.874.583zm-.098 15.643H1.166c-.777 0-1.166-.486-1.166-.486.777 1.36 3.012 5.636 3.012 5.636.389.486.777.777 1.36.777 1.263 0 3.207-1.263 3.207-1.263l7.481-4.664z"/></svg>