<svg role="img" viewBox="0 0 24 24" xmlns="http://www.w3.org/2000/svg"><title>Avalonia UI</title>/><path d="m11.16 20.52c-2.0656-0.28448-3.7747-1.1272-5.2241-2.5759-1.0155-1.0149-1.7603-2.2084-2.1743-3.4837-0.2715-0.83636-0.27612-0.7985 0.11218-0.91807 1.109-0.34149 1.6948-1.4682 1.3245-2.5476-0.19547-0.56979-1.0037-1.2743-1.4619-1.2743-0.077056 0-0.15401-0.03625-0.17101-0.080556-0.040718-0.10611 0.293-1.1413 0.54905-1.7032 1.1091-2.4337 3.3279-4.2802 5.9343-4.9384 3.6578-0.92379 7.5155 0.55432 9.5946 3.6762 0.68522 1.0289 1.0966 2.0122 1.372 3.2798 0.12016 0.5529 0.12613 0.77769 0.14814 5.5711l0.02293 4.995h-4.6863v-1.0122l-0.495 0.23172c-1.1407 0.53397-2.2167 0.77978-3.555 0.81208-0.495 0.01195-1.0755-0.0024-1.29-0.03199zm2.25-4.8024c0.72586-0.22292 1.2122-0.51756 1.776-1.076 0.75332-0.74612 1.1213-1.4825 1.2616-2.5243 0.28002-2.0807-1.2317-4.1652-3.3523-4.6227-0.44636-0.096288-1.2678-0.095237-1.7253 0.002208-1.4041 0.29909-2.6529 1.3972-3.1216 2.745-0.39751 1.143-0.32701 2.1958 0.22225 3.3187 0.20354 0.41612 0.34978 0.60976 0.7944 1.0519 0.69885 0.69496 1.3878 1.0633 2.3007 1.2302 0.45057 0.08236 1.3725 0.01988 1.8442-0.12498zm-10.489-2.8439c-0.63052-0.16751-1.0323-0.85058-0.88568-1.5058 0.14403-0.64358 0.68444-1.0266 1.3778-0.97642 0.47617 0.03444 0.78903 0.24861 1.0035 0.68691 0.49888 1.0197-0.39158 2.0886-1.4956 1.7953z"/></svg>