<svg role="img" viewBox="0 0 24 24" xmlns="http://www.w3.org/2000/svg"><title>AWS Lambda</title><path d="M0 0v24h24V0H0Zm7.1777 3.7499H12.17c.1452 0 .2767.0862.3402.2177l5.6094 12.1582h1.3846c.2086 0 .3719.1678.3719.3765v3.3748c0 .2086-.1678.3764-.3719.3764H15.508a.3689.3689 0 0 1-.3357-.2177L9.5356 7.8776H7.1781a.366.366 0 0 1-.263-.1088c-.0681-.0726-.109-.1678-.109-.2676L6.81 4.1264c.0003-.2087.1678-.3765.3719-.3765h-.0042Zm.372.7502-.002 2.625h2.2205a.3686.3686 0 0 1 .3356.2178l5.6367 12.1582h3.3848V16.876h-1.2499a.3689.3689 0 0 1-.3357-.2177L11.9284 4.5001H7.5496Zm1.3846 5.664a.376.376 0 0 1 .3402.2131l2.1271 4.4085a.3717.3717 0 0 1 .002.322l-2.3244 4.9277a.376.376 0 0 1-.3402.2132H4.497a.3668.3668 0 0 1-.313-.1724.3786.3786 0 0 1-.0215-.3628L8.6 10.3774c.0635-.1315.1905-.2131.3356-.2131l-.0013-.0002Zm.0038 1.2404-3.8497 8.0957h3.4143l2.1466-4.5527-1.7112-3.543Z"/></svg>