<?xml version="1.0" standalone="no"?>
<!DOCTYPE svg PUBLIC "-//W3C//DTD SVG 1.0//EN" "http://www.w3.org/TR/2001/REC-SVG-20010904/DTD/svg10.dtd">
<svg xmlns="http://www.w3.org/2000/svg" xmlns:xlink="http://www.w3.org/1999/xlink" id="body_1" width="1024" height="768">

<g transform="matrix(16 0 0 16 128 -0)">
    <path d="M0 0L48 0L48 48L0 48L0 0z" stroke="none" fill="#2F8CCC" fill-rule="nonzero" />
    <path d="M14.48 17.27L18.21 17.27L19.55 24.39L21.519999 17.27L25.239998 17.27L27.209997 24.380001L28.559998 17.27L32.269997 17.27L29.47 30L25.619999 30L23.39 21.99L21.16 30L17.3 30L14.48 17.27zM32.69 17.27L37.019997 17.27L39.269997 21.18L41.459995 17.27L45.749996 17.27L41.789997 23.43L46.13 30L41.71 30L39.2 25.91L36.69 30L32.3 30L36.69 23.369999L32.69 17.269999z" stroke="none" fill="#FFFFFF" fill-rule="nonzero" />
	<g>
        <path d="M11.25 27.9L6.78 27.9L6.16 30L2.15 30L6.9300003 17.279999L11.22 17.279999L16 30L11.88 30L11.25 27.9zM10.43 25.15L9.030001 20.58L7.640001 25.15L10.43 25.15z" stroke="none" fill="#FFFFFF" fill-rule="nonzero" />
	</g>
</g>
</svg>