<svg role="img" viewBox="0 0 24 24" xmlns="http://www.w3.org/2000/svg"><title>Axios</title><path d="M22.572 10.25c-.245 0-.471.041-.68.123a1.134 1.134 0 0 0-.49.361.972.972 0 0 0-.177.596c0 .266.082.468.25.611.171.14.433.254.785.344.282.074.508.142.68.203.175.057.263.153.263.287 0 .2-.188.301-.564.301a2.195 2.195 0 0 1-.973-.232 1.155 1.155 0 0 1-.264-.178l-.332.643c.213.134.457.24.73.318.275.078.55.117.827.117.241 0 .465-.032.674-.098.208-.069.377-.18.504-.332.13-.155.195-.358.195-.61 0-.21-.048-.378-.146-.505a.962.962 0 0 0-.413-.312 3.996 3.996 0 0 0-.625-.207 5.745 5.745 0 0 1-.625-.178c-.139-.053-.207-.143-.207-.27 0-.216.192-.326.577-.326.143 0 .28.022.416.063.134.037.251.081.35.135.101.053.175.098.22.134l.318-.607a2.921 2.921 0 0 0-.576-.264 2.144 2.144 0 0 0-.717-.117zm-5.683.008c-.262 0-.502.046-.723.14a1.806 1.806 0 0 0-.576.385 1.709 1.709 0 0 0-.381.553c-.09.208-.135.424-.135.648a1.677 1.677 0 0 0 .13.645 1.816 1.816 0 0 0 .366.564c.16.164.35.293.57.391.221.094.467.143.737.143a1.825 1.825 0 0 0 1.293-.522 1.802 1.802 0 0 0 .379-.553c.09-.208.135-.423.135-.648a1.66 1.66 0 0 0-.13-.637 1.743 1.743 0 0 0-.366-.558 1.694 1.694 0 0 0-.563-.399 1.733 1.733 0 0 0-.736-.152zm-4.414.002-.309.213v2.82l.902-.74h-.593V10.26zm-10.979.015L0 13.701h.791l.342-.803h1.33l.344.803h.785l-1.49-3.426h-.606zm4.184 0L7.04 12.01 5.723 13.7h.814l.895-1.164.902 1.164h.803L7.824 12.01l1.356-1.735h-.803l-.945 1.213-.944-1.213H5.68zm6.232.407-.887.72h.579v2.348l.308-.248v-2.82zm4.965.236c.216 0 .401.052.557.154a.997.997 0 0 1 .369.393c.086.163.127.336.127.52 0 .175-.04.347-.121.515-.082.163-.2.3-.356.41a.987.987 0 0 1-.57.16c-.22 0-.411-.052-.57-.154a1.058 1.058 0 0 1-.362-.398 1.135 1.135 0 0 1-.129-.526 1.124 1.124 0 0 1 .123-.51 1.057 1.057 0 0 1 .356-.404c.16-.106.351-.16.576-.16zm-15.074.258.482 1.08H1.3l.504-1.08z"/></svg>