<svg role="img" viewBox="0 0 24 24" xmlns="http://www.w3.org/2000/svg"><title>Azure Pipelines icon</title><path d="M1.8 22.2H6V24H0v-6h1.8v4.2zM12.623 9.898l-7.635 7.635 1.479 1.479 7.634-7.636-1.478-1.478zM24 1v8.93a2 2 0 0 1-.89 1.664L18 15.006v7.99a1 1 0 0 1-1 1h-5.5L8 20.498l1.197-1.195-1.157-1.156 6.415-6.417.353-.353-.353-.354-1.479-1.478-.353-.354-.354.354-6.416 6.416-1.147-1.146-1.204 1.29L0 12.5V7a1 1 0 0 1 .998-1h7.994L12.403.89A2 2 0 0 1 14.067 0H23a1 1 0 0 1 1 1zm-3 5a3 3 0 1 0-6 0 3 3 0 0 0 6 0z"/></svg>