<svg role="img" viewBox="0 0 24 24" xmlns="http://www.w3.org/2000/svg"><title>Azure Synapse Analytics</title><path d="M16.113 12.007a2.49 2.49 0 0 0-.49.047 7.744 7.744 0 0 0-5.03-2.924l8.621-4.984-2.005-1.151-7.884 4.557a2.464 2.464 0 0 0-3.918 1.99 2.465 2.465 0 0 0 4.408 1.517 5.772 5.772 0 0 1 4.175 2.153 2.436 2.436 0 0 0-.326 1.517l-8.848 5.116 1.998 1.151 7.845-4.54a2.464 2.464 0 0 0 3.918-1.992 2.464 2.464 0 0 0-2.464-2.457zM12 0 1.533 5.984v11.962L12 24l10.467-5.984v-12Zm8.537 16.763L12 21.697l-8.537-4.88V7.167L12 2.233l8.537 4.95z"/></svg>