<svg role="img" viewBox="0 0 24 24" xmlns="http://www.w3.org/2000/svg"><title>B&amp;R Automation icon</title><path d="M22.637 5.186H1.363C.614 5.186 0 5.799 0 6.548v10.903c0 .75.614 1.363 1.363 1.363h21.274c.749 0 1.363-.613 1.363-1.363V6.548c0-.749-.614-1.362-1.363-1.362zm1.039 12.265a1.04 1.04 0 0 1-1.039 1.039H1.363a1.04 1.04 0 0 1-1.038-1.039V6.548a1.04 1.04 0 0 1 1.038-1.039h21.274a1.04 1.04 0 0 1 1.039 1.039v10.903zM8.939 15.403v-2.274c0-.229-.051-.458-.139-.672a1.887 1.887 0 0 0-.554-.721c-.029-.021-.059-.047-.087-.066-.017-.011-.042-.015-.042-.025 0-.004.002-.007.015-.014l.037-.025c.279-.18.505-.439.642-.742a1.62 1.62 0 0 0 .128-.676V7c0-.101.004-.206-.006-.308a.593.593 0 0 0-.16-.386.613.613 0 0 0-.409-.165 1.914 1.914 0 0 0-.152-.002h-.035l-.322.004h-.019l-.173.001-.467.003h-.304c-1.793.001-3.585-.006-5.38-.006a.564.564 0 0 0-.394.165.592.592 0 0 0-.156.364c-.011.094-.009.192-.009.29v9.79c0 .177-.01.358.005.535a.586.586 0 0 0 .16.387.556.556 0 0 0 .394.165c1.176 0 3.199-.006 4.373-.007.349 0 .695-.002 1.045 0h.006l.295.001.239.001.177.001.174.001h.018l.321.004h.035c.054.001.107.001.159-.002.156-.008.3-.042.422-.163.119-.121.154-.266.164-.418.011-.19.002-.384.002-.576-.003-.425-.003-.85-.003-1.276zm-.893.124c0 .832-.661 1.463-1.48 1.468-.82.006-1.59-.52-1.59-1.449v-1.981c0-1.053.716-1.572 1.59-1.572.875 0 1.48.698 1.48 1.553v1.981zm.028-5.739c-.028.852-.728 1.427-1.511 1.472-.856.05-1.583-.586-1.583-1.478V8.511c0-.929.707-1.554 1.583-1.554s1.511.701 1.511 1.56v1.271zm14.917 2.172a.546.546 0 0 0-.488-.307h-.194a1.421 1.421 0 0 0 .386-.339 1.55 1.55 0 0 0 .315-.718c.043-.269.035-.545.031-.817-.004-.291-.006-.58-.004-.872 0-.289.005-1.14.005-1.278l.002-.617.001-.304a.576.576 0 0 0-.568-.567h-3.589c-.558 0-1.116.008-1.676.008-.43 0-.863-.004-1.294-.023a2.874 2.874 0 0 0-.209-.005 1.368 1.368 0 0 0-.313.032l-.045.013a.683.683 0 0 0-.171.079.578.578 0 0 0-.243.427c-.018.28-.001.569-.001.851v7.887c0 .468 0 1.682-.004 1.819-.004.139.002.285.087.403a.444.444 0 0 0 .326.182c.254.023.504-.162.504-.429v-4.211a1.686 1.686 0 0 1 .152-.419c.012-.019.022-.041.034-.062l.045-.074a1.43 1.43 0 0 1 .229-.272c.071-.068.15-.126.233-.178.469-.295 1.113-.345 1.596-.055.426.255.709.749.709 1.244 0 1.273.006 3.933.006 4.027 0 .096.032.186.082.26.012.016.021.03.035.044a.457.457 0 0 0 .274.148c.018.002 1.472.002 2.184.001h.39l.683-.001c.308 0 .541-.272.541-.567v-.097l-.001-1.966-.001-2.635c.003-.2.036-.425-.049-.612zm-.873-2.041c0 .846-.733 1.484-1.578 1.49-.843.006-1.577-.547-1.577-1.49V8.57c0-.939.678-1.577 1.577-1.577.901 0 1.578.71 1.578 1.577v1.349zm-7.89 4.18a.54.54 0 0 0-.26-.038c-.026.002-.054.002-.082.002v-.235c0-.095-.003-.188.001-.284.007-.158.027-.354-.127-.454a.305.305 0 0 0-.159-.047.337.337 0 0 0-.139.029.256.256 0 0 0-.134.133l-.006.013-.007.019-.006.026v.827c-.256-.004-.512-.005-.768-.007h-.276c-.318-.004-.414-.255-.418-.533a12.559 12.559 0 0 1-.001-.274c0-.128-.008-.265-.005-.4a1.27 1.27 0 0 1 .05-.361c.064-.199.237-.267.433-.267h1.072c.16 0 .291-.131.291-.292 0-.166-.142-.288-.304-.288h-3.136c-.157 0-.321-.021-.443.1a.342.342 0 0 0-.083.146c-.013.045-.017.093-.021.14l-.001.103c-.006.507.005 1.015.005 1.523v.16c0 .092-.01.191.002.281a.28.28 0 0 0 .275.239.285.285 0 0 0-.27.211c-.016.064-.013.135-.011.203.001.024.004.047.004.07v2.49c0 .142-.008.296.099.404.104.102.246.101.38.101h.039l.246-.002.398-.001h.318c.588-.001 1.175 0 1.763.001.137.001.278.014.417.014.231 0 .522-.067.522-.353v-2.852h.204a.292.292 0 0 0 .138-.547zm-.896 2.722a.327.327 0 0 1-.326.326h-.74c-.256 0-.419-.232-.419-.416v-1.407c0-.292.096-.668.463-.668h1.022v2.165z"/></svg>