<svg role="img" viewBox="0 0 24 24" xmlns="http://www.w3.org/2000/svg"><title>B4X</title><path d="M16.354 0q-.01 0-.022.016c-.2.205-4.467 7.785-4.877 8.648 2.245 2.644 5.926 4.906 9.573 6.193-1.495-.922-2.847-2.113-3.901-3.95a.3.3 0 0 1-.014-.102.3.3 0 0 1-.008-.057l.002-.041.002-.014.096-.523a10 10 0 0 1-.414-.91c-.958-2.404-1.13-5.261-.514-8.55.095-.51.119-.715.077-.71M7.787.49C7.561.49-.103 14.746.001 14.98c2.407 5.362 8.194 8.78 15.235 8.996l.653.02c.758.028 2.558-.105 3.702-.245-3.8-.4-6.511-1.45-8.369-3.025-2.006-1.702-2.996-4.008-3.302-6.681a.3.3 0 0 1 .018-.065.25.25 0 0 1 .027-.15l2.93-5.226.015-.018a.3.3 0 0 1 .022-.066C9.386 6.65 8.208 3.809 7.926 1.205 7.86.59 7.84.49 7.787.49m14.316 1.658v.004l.003-.004zm0 .004c-.076.01-.65 1.057-2.395 4.227a245.98 245.991 0 0 1-1.933 3.453l-.166.906c1.482 2.535 3.542 3.752 5.837 4.836a.25.25 0 0 1 .12.334.25.25 0 0 1-.305.127l-.014.002c-4.385-1.03-9.217-3.654-12.059-6.928l-2.764 4.928c.302 2.563 1.236 4.708 3.123 6.308 1.899 1.61 4.785 2.677 9.013 2.99a.25.25 0 0 1 .14.055c.603-1.124 3.404-7.58 3.297-7.644-2.982-1.812-3.92-7.531-2.107-12.873.14-.417.244-.705.213-.72"/></svg>