<svg role="img" xmlns="http://www.w3.org/2000/svg" viewBox="0 0 24 24"><title>B4X</title><path d="m120.352 212.647-1.72-.1-4.234-.415-4.233-.414-3.307-.532-3.308-.533-3.571-.8-3.572-.8-4.234-1.276-4.233-1.276-3.693-1.485-3.693-1.484-3.715-1.923-3.716-1.922-2.645-1.664-2.646-1.663-2.088-1.499-2.089-1.498-2.806-2.408-2.807-2.409-2.926-3.015-2.927-3.016-2.187-2.751-2.187-2.751-1.788-2.673-1.787-2.673-1.378-2.342-1.378-2.342-1.312-2.614-1.312-2.614v-.512l21.26-38.973 21.259-38.974.336-.637.336-.638.198.373.198.373.178 2.117.178 2.116.538 3.265.538 3.264.763 3.122.762 3.123.947 2.928.947 2.929 1.307 3.18 1.307 3.179 1.057 2.102 1.057 2.103 1.371 2.336 1.372 2.336 1.874 2.768 1.875 2.767 1.018 1.07 1.018 1.068 1.234 1.455 1.233 1.455 1.993 2.117 1.992 2.117 1.844 1.715 1.844 1.715-2.795-2.906-2.795-2.906-1.901-2.28-1.901-2.282v-.641l4.148-7.32 4.148-7.32 8.321-14.685 8.322-14.684 1.444-2.579 1.445-2.578.27-.167.269-.166-.147.496-.147.496-.678 3.44-.679 3.44-.52 3.703-.52 3.705-.316 5.199-.317 5.2.31 4.658.31 4.658.527 3.282.526 3.282.905 3.53.905 3.528 1.061 2.823 1.061 2.823 1.217 2.535 1.216 2.535.194-.001.194-.001 11.907-21.878 11.906-21.877 1.407-2.53 1.408-2.529-.137.53-.137.528-1.728 5.027-1.729 5.028-1.048 4.233-1.048 4.233-.53 3.043-.528 3.043-.34 2.513-.342 2.514-.005 6.482-.005 6.482.353 2.382.353 2.38.658 3.003.659 3.003 1.052 3.05 1.052 3.05 1.283 2.679 1.284 2.678 1.65 2.514 1.65 2.513 1.66 1.985 1.662 1.984 1.147 1.1 1.148 1.098.953.635.952.635-9.57 21.55-9.569 21.549-3.422.568-3.421.568-4.234.438-4.233.437-7.408.088-7.409.087z"/></svg>
