<svg role="img" viewBox="0 0 24 24" xmlns="http://www.w3.org/2000/svg"><title>B4X</title><path d="M16.353 0q-.01 0-.022.015c-.21.217-5 8.733-4.956 8.812.03.054.184.26.345.457q.376.463.307.414c3.74 3.8 7.541 4.903 11.359 5.908-2.182-1.03-4.356-2.008-6.092-4.883v-.01l.08-.247a.01.01 0 0 1 .007-.008c-.088-.073-.37-.644-.59-1.198-.958-2.404-1.13-5.262-.514-8.55.095-.51.118-.715.076-.71M7.786.49C7.56.49-.104 14.746 0 14.98c2.407 5.363 8.194 8.779 15.235 8.996l.654.02c1.035.04 4.03-.224 4.614-.392-2.557-.057-5.498-.613-7.871-2.067-2.4-1.472-4.218-3.864-4.464-7.584v-.002l.002-.005 2.93-5.222.002-.002C9.473 6.86 8.219 3.905 7.926 1.206 7.859.59 7.838.49 7.786.49m14.32 1.658c-.066-.012-.635 1.028-2.398 4.23-1.233 2.235-2.264 4.06-2.312 4.087a.01.01 0 0 1 0 .01l-.079.24c1.763 2.92 3.977 3.876 6.196 4.925l.005.002a.012.012 0 0 1 .01.015.012.012 0 0 1-.016.008c-4.168-1.094-8.326-2.273-12.4-6.914l-2.92 5.203c.247 3.71 2.06 6.094 4.454 7.56 2.386 1.465 5.354 2.018 7.922 2.067l.026-.014c.217-.166 3.519-7.75 3.403-7.82-2.982-1.812-3.92-7.532-2.107-12.874.142-.424.25-.719.213-.725"/></svg>