<svg role="img" viewBox="0 0 24 24" xmlns="http://www.w3.org/2000/svg"><title>Babbel</title><path d="M21.656 11.482a11 11 0 0 1 1.107.686 3.3 3.3 0 0 1 1.203 2.405 4.8 4.8 0 0 1-.71 3.152 5.16 5.16 0 0 1-3.416 2.093 8.4 8.4 0 0 1-1.732.144h-4.751a1.467 1.467 0 0 1-1.517-1.768c.12-.926.18-1.877.265-2.803l.325-3.548c.072-.854.132-1.708.216-2.55.108-1.311.205-2.61.35-3.922a1.6 1.6 0 0 1 1.516-1.335h4.883a4.15 4.15 0 0 1 3.585 1.961 4 4 0 0 1 .276 3.32 3.7 3.7 0 0 1-1.6 2.165m-4.378 1.949h-1.78c-.205 0-.313 0-.325.276-.012.277 0 .553-.072.83-.084.854-.156 1.696-.24 2.55 0 .217.072.289.288.289h1.01a24 24 0 0 0 2.815-.084 2.08 2.08 0 0 0 2.009-1.949 1.504 1.504 0 0 0-1.42-1.816 24 24 0 0 0-2.25-.097zm.06-6.748h-.914c-.685 0-.685 0-.722.673v.229c-.072.902-.156 1.804-.24 2.706 0 .229.06.325.3.313h2.406a2.07 2.07 0 0 0 2.14-1.708 1.612 1.612 0 0 0-1.382-2.153 13 13 0 0 0-1.552-.06ZM5.574 10.399h3.91a1.203 1.203 0 0 1 1.394 1.203 1.49 1.49 0 0 1-1.42 1.612H7.174c-.349 0-.457.132-.469.433 0 .625-.108 1.203-.144 1.876a1.684 1.684 0 0 1-1.203 1.708 1.275 1.275 0 0 1-1.624-1.202 20 20 0 0 1 .17-2.07c.083-.685.095-.697-.59-.697h-1.9a1.275 1.275 0 0 1-1.336-.83 1.54 1.54 0 0 1 .433-1.624 1.6 1.6 0 0 1 1.082-.409m3.885-.89a1.816 1.816 0 0 0 1.744-1.84 1.275 1.275 0 0 0-.986-1.203A1.53 1.53 0 0 0 4.407 7.67c0 .36-.096.734-.133 1.094v.782z"/></svg>