<svg role="img" viewBox="0 0 24 24" xmlns="http://www.w3.org/2000/svg"><title>Babbel</title><path d="m20 11.56a9.46 9.46 0 0 1 .92.57 2.74 2.74 0 0 1 1 2 4 4 0 0 1 -.59 2.62 4.29 4.29 0 0 1 -2.84 1.74 7 7 0 0 1 -1.44.12h-3.95a1.22 1.22 0 0 1 -1.26-1.47c.1-.77.15-1.56.22-2.33l.27-2.95c.06-.71.11-1.42.18-2.12.09-1.09.17-2.17.29-3.26a1.33 1.33 0 0 1 1.26-1.11h4.06a3.45 3.45 0 0 1 2.98 1.63 3.33 3.33 0 0 1 .23 2.76 3.07 3.07 0 0 1 -1.33 1.8zm-3.64 1.62h-1.48c-.17 0-.26 0-.27.23s0 .46-.06.69c-.07.71-.13 1.41-.2 2.12 0 .18.06.24.24.24h.84a20.26 20.26 0 0 0 2.34-.07 1.73 1.73 0 0 0 1.67-1.62 1.25 1.25 0 0 0 -1.18-1.51c-.62-.06-1.26-.08-1.87-.08zm.05-5.61h-.76c-.57 0-.57 0-.6.56v.19c-.06.75-.13 1.5-.2 2.25 0 .19.05.27.25.26h2a1.72 1.72 0 0 0 1.78-1.42 1.34 1.34 0 0 0 -1.15-1.79 11 11 0 0 0 -1.29-.05z M6.63 10.66h3.25a1 1 0 0 1 1.16 1 1.24 1.24 0 0 1 -1.18 1.34h-1.9c-.29 0-.38.11-.39.36 0 .52-.09 1-.12 1.56a1.4 1.4 0 0 1 -1 1.42 1.06 1.06 0 0 1 -1.35-1 16.61 16.61 0 0 1 .14-1.72c.07-.57.08-.58-.49-.58h-1.58a1.06 1.06 0 0 1 -1.11-.69 1.28 1.28 0 0 1 .36-1.35 1.34 1.34 0 0 1 .9-.34 M6.55 9.92a1.51 1.51 0 0 0 1.45-1.53 1.06 1.06 0 0 0 -.82-1 1.27 1.27 0 0 0 -1.52 1c0 .3-.08.61-.11.91v.65z"/></svg>