<svg width="294" height="294" viewBox="0 0 294 294" fill="none" xmlns="http://www.w3.org/2000/svg">
<path fill-rule="evenodd" clip-rule="evenodd" d="M29.1277 110.736C44.4807 62.4337 89.6892 27.4391 143.07 27.4391C209.089 27.4391 262.607 80.9669 262.607 146.996C262.607 208.334 216.422 258.883 156.936 265.755V228.105C183.013 223.687 204.916 207.01 216.507 184.213H183.388C173.363 195.055 159.016 201.843 143.082 201.843C112.777 201.843 88.2089 177.287 88.2089 146.995C88.2089 116.704 112.777 92.1492 143.082 92.1492C159.49 92.1492 174.217 99.3475 184.273 110.758H216.996C203.59 83.4908 175.529 64.7251 143.082 64.7251C97.6239 64.7251 60.7734 101.559 60.7734 146.995C60.7734 187.767 90.4454 221.611 129.383 228.131V265.775C82.4246 260.422 43.7273 227.857 29.4439 184.234H0.85378C17.339 247.385 74.7623 293.989 143.07 293.989C224.24 293.989 290.043 228.179 290.043 146.996C290.043 65.812 224.24 0 143.07 0C74.4105 0 16.7462 47.0878 0.601562 110.736H29.1277ZM426" fill="white"></path>
<path d="M173.165 146.931C173.165 163.584 159.665 177.084 143.012 177.084C126.359 177.084 112.859 163.584 112.859 146.931C112.859 130.278 126.359 116.778 143.012 116.778C159.665 116.778 173.165 130.278 173.165 146.931Z" fill="#FF7C2B"></path>
</svg>
