<svg role="img" viewBox="0 0 24 24" xmlns="http://www.w3.org/2000/svg"><title>Backendless</title><path d="M8.023 12.188c0-.274-.07-.477-.359-.477-.078 0-.226.012-.32.023v1.164c.062.016.203.024.32.024.29 0 .36-.203.36-.477zm-.359 1.097c-.21 0-.465-.035-.672-.086-.074-.023-.09-.043-.09-.094v-2.324c0-.035.032-.066.067-.066h.308c.04 0 .067.031.067.066v.594c.125-.02.242-.023.32-.023.54 0 .8.316.8.835v.258c0 .52-.26.84-.8.84zm2.05-1.55a2.118 2.118 0 0 0-.32-.024c-.285 0-.355.203-.355.476v.258c0 .274.07.477.356.477.12 0 .257-.008.32-.024zm.352 1.464a2.973 2.973 0 0 1-.671.086c-.536 0-.797-.316-.797-.84v-.258c0-.519.261-.835.797-.835.214 0 .464.03.671.085.079.02.09.04.09.09v1.578c0 .051-.011.07-.09.094zm1.485.043c-.078.02-.227.043-.43.043-.437 0-.762-.27-.762-.812v-.313c0-.543.325-.808.762-.808.203 0 .352.023.43.043.054.011.07.03.07.085v.22c0 .03-.027.046-.062.046h-.008a3.018 3.018 0 0 0-.43-.023c-.16 0-.324.093-.324.437v.313c0 .347.164.437.324.437.215 0 .297-.008.43-.023h.008c.035 0 .062.015.062.05v.215c0 .055-.016.075-.07.09zm1.738.016h-.406c-.035 0-.078-.035-.098-.067l-.523-.761v.758c0 .035-.032.07-.067.07h-.308c-.035 0-.067-.035-.067-.07V10.78c0-.035.032-.066.067-.066h.308c.035 0 .067.031.067.066v1.395l.57-.762a.1.1 0 0 1 .078-.039h.375c.031 0 .05.012.05.035 0 .012-.003.02-.015.035l-.672.825.68.921c.008.008.008.016.008.028 0 .02-.02.039-.047.039zm1.293-1.117c0-.258-.14-.41-.348-.41-.207 0-.359.148-.359.41v.015h.707zm.379.328h-1.09v.011c0 .192.082.422.402.422.243 0 .473-.02.614-.03h.011c.032 0 .059.015.059.05v.219c0 .054-.008.078-.07.086a3.025 3.025 0 0 1-.649.058c-.332 0-.808-.18-.808-.84V12.2c0-.523.293-.847.804-.847.512 0 .793.347.793.847v.188c0 .05-.02.082-.066.082zm1.742.789h-.316c-.035 0-.063-.035-.063-.07V12.03c0-.164-.035-.312-.226-.312h-.207c-.196 0-.227.148-.227.312v1.156c0 .036-.027.07-.066.07h-.313c-.035 0-.062-.034-.062-.07V12.03c0-.402.23-.68.668-.68h.207c.433 0 .668.278.668.68v1.156c0 .036-.028.07-.067.07zm1.363-1.524a3.173 3.173 0 0 0-.32-.023c-.285 0-.355.203-.355.476v.258c0 .274.07.477.355.477.121 0 .258-.008.32-.024zm.352 1.465a2.974 2.974 0 0 1-.672.086c-.539 0-.797-.316-.797-.84v-.258c0-.519.258-.835.797-.835.082 0 .2.003.32.023v-.594c0-.035.032-.066.067-.066h.308c.036 0 .067.031.067.066v2.324c0 .051-.012.07-.09.094zm.75.059h-.309c-.035 0-.066-.035-.066-.07V10.78c0-.035.031-.066.066-.066h.309c.039 0 .066.031.066.066v2.406c0 .036-.027.07-.066.07zm1.445-1.117c0-.258-.144-.41-.351-.41s-.356.148-.356.41v.015h.707zm.375.328h-1.086v.011c0 .192.078.422.399.422.246 0 .476-.02.617-.03h.008c.035 0 .062.015.062.05v.219c0 .054-.011.078-.07.086a3.047 3.047 0 0 1-.648.058c-.336 0-.81-.18-.81-.84V12.2c0-.523.29-.847.802-.847.515 0 .797.347.797.847v.188c0 .05-.02.082-.067.082zm.89.816c-.128 0-.41-.02-.597-.066-.039-.012-.062-.04-.062-.078v-.2c0-.027.023-.054.058-.054h.012c.16.02.461.035.559.035.207 0 .238-.07.238-.16 0-.063-.04-.102-.148-.168l-.458-.281a.555.555 0 0 1-.28-.461c0-.336.21-.5.636-.5.27 0 .422.027.594.066.039.008.058.035.058.074v.195c0 .04-.023.063-.054.063h-.012a5.374 5.374 0 0 0-.55-.04c-.161 0-.231.036-.231.142 0 .054.05.085.132.136l.438.266c.281.172.324.34.324.508 0 .293-.219.523-.656.523zm1.466 0c-.13 0-.41-.02-.598-.066-.039-.012-.062-.04-.062-.078v-.2c0-.027.023-.054.058-.054h.012c.16.02.46.035.562.035.207 0 .235-.07.235-.16 0-.063-.04-.102-.145-.168l-.457-.281a.555.555 0 0 1-.281-.461c0-.336.21-.5.633-.5.273 0 .426.027.594.066.043.008.062.035.062.074v.195c0 .04-.023.063-.059.063h-.007a5.462 5.462 0 0 0-.551-.04c-.16 0-.23.036-.23.142 0 .054.046.085.132.136l.438.266c.28.172.32.34.32.508 0 .293-.219.523-.656.523zm-.953-.355c.011-.016-.012.015 0 0zm-16.508.074c.101-.04.199-.078.304-.117-.335.675-1.375.968-2.175.554-.364-.187-.684-.488-.98-.789-.302-.297-.544-.652-.813-.984-.668-.824-1.227-1.012-2.219-.73.184-.395.781-.633 1.352-.555.687.094 1.152.523 1.585 1.015.454.512.887 1.047 1.391 1.5.5.446 1.11.438 1.57.09zm-1.824-.55c.25-.24.464-.45.687-.645.649-.575 1.25-.485 1.727.289-.137-1.153-1.04-1.582-1.938-.977-.281.191-.527.43-.805.656l-.488-.336a.466.466 0 0 1-.043.059c.043.05.09.098.133.148.234.27.473.543.727.805zm-1.282.12c-.902.805-1.593-.402-1.593-.402.351 1.515 1.277 1.371 1.906 1.047.172.082.414.168.574.246a.495.495 0 0 1 .043-.05 5.49 5.49 0 0 1-.926-.837zm0 0"/></svg>