<svg role="img" viewBox="0 0 24 24" xmlns="http://www.w3.org/2000/svg"><title>Baekjoon</title><path d="M4.425 3.746c-.227.811-.44 1.627-.662 2.439-.12.481-.366 1.352-.514 1.934l-.611 2.296c-.293 1.023.063-.215-.899 3.345-.343 1.258-.604 2.298-.811 3.02-.192.747-.913 3.423-.926 3.454-.015.037.038.04.587.04h.599l.489-1.827q.669-2.514 1.345-5.027.426-1.61.861-3.217l.429-1.61q.226-.835.447-1.672c.191-.735-.07.277.462-1.722.769-2.898-1.544 5.84.392-1.473h-.587c-.324 0-.594.007-.601.02m11.848 1.81a.03.03 0 0 0 .005.037c2.032 2.078 4.057 4.163 6.087 6.242-1.554 1.587-3.102 3.18-4.652 4.77-1.163 1.19-1.578 1.62-1.58 1.637-.003.01.362.02.811.02l.819.002c5.676-5.862-1.758 1.864 3.319-3.407.158-.162.61-.624 1.001-1.028.64-.657 1.203-1.232 1.917-1.962l-1.195-1.228a1836 1836 0 0 1-4.963-5.097l-.778-.001c-.427-.003-.784.005-.791.015m-3.874-.013c-.13.007-.14.013-.3.18-1.897 1.952-3.804 3.894-5.697 5.85l-.287.295c.115.118 5.83 5.979 6.232 6.395h.823c.455.001.824-.003.824-.01 0-.013-.095-.11-1.545-1.596-1.553-1.617-3.156-3.204-4.69-4.832.005-.007.302-.312.66-.676q2.469-2.54 4.944-5.074c.277-.282.499-.517.494-.522a30 30 0 0 0-1.458-.01"/></svg>