<svg role="img" viewBox="0 0 24 24" xmlns="http://www.w3.org/2000/svg"><title>Baidu icon</title><path d="M4.3167 12.647C6.926 12.0852 6.566 8.9642 6.492 8.2824c-.128-1.0497-1.3655-2.887-3.043-2.7391-2.1094.1859-2.4173 3.239-2.4173 3.239-.2869 1.4095.6818 4.4246 3.285 3.8637m4.8435-5.2383c1.4395 0 2.6032-1.6595 2.6032-3.7089C11.7634 1.6595 10.6037 0 9.1642 0 7.7246 0 6.554 1.6505 6.554 3.6998c0 2.0494 1.1696 3.7089 2.6092 3.7089m6.205.2449c1.9294.26 3.161-1.7994 3.411-3.359.2499-1.5495-.9997-3.3589-2.3593-3.6688-1.3696-.3159-3.059 1.8734-3.229 3.299-.18 1.7494.25 3.4889 2.1693 3.7358m7.6386 2.6212c0-.7458-.6128-2.992-2.909-2.992-2.2943 0-2.6092 2.1192-2.6092 3.6188 0 1.4295.118 3.4189 2.984 3.359 2.8541-.07 2.5422-3.239 2.5422-3.9888m-2.907 6.537s-2.9841-2.3094-4.7246-4.7986C13.016 8.3414 9.662 9.838 8.5434 11.7013c-1.1197 1.8824-2.8591 3.061-3.104 3.376-.25.3099-3.599 2.1193-2.8531 5.4183.7497 3.299 3.3589 3.239 3.3589 3.239s1.9194.1899 4.1587-.31c2.2393-.4998 4.1587.12 4.1587.12s5.2054 1.7495 6.6459-1.6095c1.4236-3.369-.8097-5.1084-.8097-5.1084"/></svg>