<svg role="img" viewBox="0 0 24 24" xmlns="http://www.w3.org/2000/svg"><title>Bakaláři</title><path d="M5.237 16.81a1.29 1.29 0 0 1-.635-1.111V8.3c0-.457.242-.88.635-1.112l6.022-3.548a1.29 1.29 0 0 1 1.296-.008L18.75 7.18c.401.23.649.657.649 1.12v1.85c0 .467-.253.898-.661 1.126L17.442 12l1.295.723c.408.228.66.659.66 1.126v1.85c0 .462-.247.89-.648 1.12l-6.194 3.548a1.29 1.29 0 0 1-1.296-.008zm1.946-1.849 4.74 2.794 4.894-2.804v-.344l-1.411-.789c-.34-.19-.552-.549-.552-.939V11.12c0-.39.211-.749.552-.939l1.411-.788v-.344l-4.894-2.804-4.74 2.793ZM13.11.308a2.155 2.155 0 0 0-2.22 0L2.763 5.194A2.149 2.149 0 0 0 1.72 7.035v9.93c0 .754.396 1.452 1.043 1.841l8.127 4.886c.683.41 1.537.41 2.22 0l8.127-4.886a2.149 2.149 0 0 0 1.043-1.841v-9.93c0-.754-.396-1.452-1.043-1.841z"/></svg>