<svg role="img" viewBox="0 0 24 24" xmlns="http://www.w3.org/2000/svg"><title>Bakaláři</title><path d="M12 0c-.384 0-.768.103-1.11.309L2.765 5.193A2.15 2.15 0 0 0 1.72 7.035v9.93a2.15 2.15 0 0 0 1.043 1.842l8.127 4.884c.682.41 1.536.41 2.218 0l8.127-4.884a2.15 2.15 0 0 0 1.043-1.842v-9.93a2.15 2.15 0 0 0-1.043-1.842L13.11.31A2.151 2.151 0 0 0 12 0zm-.094 3.463c.224-.001.448.055.649.17l6.193 3.549c.401.23.65.656.65 1.119v1.85c0 .467-.253.898-.662 1.126L17.441 12l1.295.723c.409.228.662.66.662 1.127v1.85c0 .462-.249.888-.65 1.118l-6.193 3.55c-.403.23-.896.227-1.295-.009l-6.022-3.548a1.291 1.291 0 0 1-.636-1.112V8.301c0-.457.243-.88.636-1.112l6.022-3.548c.2-.118.422-.177.646-.178zm.018 2.781L7.184 9.04v5.922l4.74 2.793 4.892-2.803v-.344l-1.41-.789c-.34-.19-.552-.55-.552-.94l.001-1.757c0-.39.211-.75.551-.94.684-.381 1.41-.788 1.41-.788v-.344l-4.892-2.805z"/></svg>