<svg xmlns="http://www.w3.org/2000/svg" viewBox="0 0 1000 999.63">
  <g id="File">
    <path d="M1009.65,466.44c-1.3-21.39-5-42.79-9.7-63.78C987.56,346,964.66,291.8,933.47,242.91,863.09,132.24,747.53,51,619,24a411.57,411.57,0,0,0-57.28-9.1,443.14,443.14,0,0,0-76.38-1.7,388.45,388.45,0,0,0-61.88,7.2c-18.7,2.6-36.89,7.8-55,12.69-16.9,5.3-33.69,11.3-50.09,18.2a469.62,469.62,0,0,0-45.78,22.09,437.61,437.61,0,0,0-42.69,26.29,100.06,100.06,0,0,1-10.6,6.8c-34.19-26-68.78-51.38-104.77-74.77-9.89-6.1-19.49-13-30.59-16.7-18.19-6.4-39.48-1.5-53.78,11.5C16.55,38.57,10.66,57.37,12.26,75.26c.1,23.79-.1,47.69.2,71.48-.3,24-.1,48.18-.2,72.18s-.1,48,.1,72q-.3,42,0,83.87-.3,40.78.1,81.57c.2,34-1.6,68.18,2.19,102.07,2.7,34.89,9.9,69.48,20.3,102.77,47.38,154.85,175.24,283,330.8,328.3l.1.6c32.39,9.6,65.68,16.7,99.27,19.29,37.28,3.6,75.07,3.5,112.16-2.19,19.9-1.5,39.39-6.4,58.88-10.7A566.24,566.24,0,0,0,702,974.59c20.1-8.6,40-17.9,58.89-29.1a455,455,0,0,0,48.38-31.59,496.83,496.83,0,0,0,51.28-43.48,486.75,486.75,0,0,0,35.19-38A500,500,0,0,0,926.27,792c8.6-12.79,16.6-26.09,24.3-39.49,7.89-15.19,15.49-30.39,22.29-46.08,7.4-18.8,14.7-37.69,19.89-57.18,4.4-16,9.2-32,10.8-48.49,4.2-17.39,6.1-35.69,6.8-53.48A412.52,412.52,0,0,0,1009.65,466.44ZM826.51,400.86c-6.1,16.2-16.8,30.09-29.5,41.69-11.09,11-22.09,22.09-33.19,33.19-11.79,11.79-23.59,23.49-35.28,35.39-11.3,11.19-22.6,22.39-33.89,33.79-12.3,12.29-24.7,24.59-36.89,36.89-14,14.09-28.09,28-42.09,42.08-13.2,13.3-26.49,26.49-39.79,39.79s-26.79,26.69-40.09,40.09c-12.29,11.79-23.49,24.89-37.38,35a105.49,105.49,0,0,1-57.89,16c-23.59-1.5-46.68-10.79-63.68-27.39q-78.42-78.42-156.95-157c-12.79-12.7-21.39-29.09-26-46.39-4.8-23.89-2-49.48,10.3-70.77,9.39-16.5,23.79-29.6,40.18-39a107.88,107.88,0,0,1,57.89-9.7c21.39,3.2,41.88,13,56.88,28.79,28.39,28.39,56.68,56.88,85.27,85.18,8.6-8.2,16.9-16.8,25.1-25.3,12-11.49,23.79-23.29,35.28-35.39,11.4-10.59,22.3-21.79,33.09-33.09,7.7-6.89,14.7-14.49,22.1-21.79,12-11.7,23.69-23.59,35.39-35.49,11.29-10.79,22.19-22,33.09-33,11.79-11.49,23.29-23.29,35-34.89a106.64,106.64,0,0,1,42.18-26.39A107.77,107.77,0,0,1,768,274.5c25.7,9.8,46.29,30,57.59,54.88C833.9,352.28,834.9,377.87,826.51,400.86Z" transform="translate(-12 -12.19)"/>
  </g>
</svg>
