<?xml version="1.0" encoding="UTF-8" standalone="no"?>
<svg
   role="img"
   viewBox="0 0 24 24"
   width="24"
   height="24"
   data-name="Layer 2"
   version="1.1"
   id="svg1"
   xmlns="http://www.w3.org/2000/svg"
   xmlns:svg="http://www.w3.org/2000/svg">
<title>Bambu Lab</title>
  <defs
     id="defs1" />
  <path
     d="M 0.01344309,0.02944787 V 15.051438 c 0.1085026,-0.02915 0.1973211,-0.05055 0.2837391,-0.07675 3.52105341,-1.065303 7.04114661,-2.132451 10.56508081,-3.192219 0.212204,-0.06384 0.278938,-0.14391 0.278458,-0.31734 -0.01104,-3.5531011 -0.01344,-7.106239 -0.01728,-10.65930313 -4.8e-4,-0.202581 9.6e-4,-0.405531 -4.8e-4,-0.608481 0,-0.053505 -0.0077,-0.10701 -0.01248,-0.167895 H 0.01392319 Z m 12.85515791,3.69e-4 v 0.211068 c 0,2.36676603 0.0014,4.73316303 -0.0043,7.09992903 -4.8e-4,0.150183 0.05185,0.221769 0.24341,0.279333 3.515293,1.05903 7.027752,2.125071 10.540596,3.1888981 0.105622,0.0321 0.214605,0.05756 0.328388,0.08782 V 0.02981687 Z m 0.01104,8.95784403 c -0.0053,0.081918 -0.012,0.140958 -0.012,0.199998 -4.8e-4,4.8763351 9.61e-4,9.7530391 -0.0053,14.6293741 0,0.172692 0.06577,0.212913 0.282299,0.212913 3.528255,-0.0048 7.05699,-0.0033 10.585245,-0.0037 0.07826,0 0.156032,-0.0052 0.260694,-0.0089 v -0.209223 c 0,-3.757158 -0.0014,-7.514685 0.0053,-11.271843 4.8e-4,-0.150183 -0.06337,-0.21033 -0.238129,-0.262728 -3.011668,-0.906633 -6.019974,-1.818801 -9.029241,-2.7294931 -0.606846,-0.183762 -1.214653,-0.366048 -1.847905,-0.556452 z m -1.763407,4.1608441 c -0.08258,0.01956 -0.14355,0.03136 -0.201162,0.04871 -3.5585014,1.07748 -7.1155623,2.156805 -10.67646401,3.229488 -0.1915599,0.05756 -0.2419704,0.131364 -0.2419704,0.280809 0.0062413,2.361231 0.004320901,4.722462 0.004320901,7.083693 3.38069e-4,0.156675 0.105623999,0.235051 0.315907799,0.235051 H 11.116236 Z"
     data-name="Layer 1"
     style="fill:none;fill-opacity:1;stroke-width:0.04209"
     id="path1" />
</svg>
