<svg role="img" viewBox="0 0 24 24" xmlns="http://www.w3.org/2000/svg"><title>Bamboo icon</title><path d="M21.7142 13.6433h-4.9888a.651.651 0 00-.655.555 4.1139 4.1139 0 01-4.0619 3.5299l1.35 6.1728a10.3737 10.3737 0 009.0077-9.5447.651.651 0 00-.652-.713zm-8.6327-.158l7.1998-6.1718a.645.645 0 000-.984L13.0815.1597a.648.648 0 00-1.074.483v12.3426a.651.651 0 001.073.5zm-11.3547 1.505A10.3847 10.3847 0 0012.0115 24v-6.2698a4.0929 4.0929 0 01-4.0999-4.0869zm-.096-1.447v.1h6.2798a4.0929 4.0929 0 014.098-4.0879l-1.348-6.1698a10.3697 10.3697 0 00-9.0298 10.1577"/></svg>