<svg role="img" viewBox="0 0 24 24" xmlns="http://www.w3.org/2000/svg"><title>Bamboo icon</title><path d="M21.715 13.643h-4.989a.651.651 0 00-.655.555 4.114 4.114 0 01-4.062 3.53l1.35 6.173a10.374 10.374 0 009.008-9.545.651.651 0 00-.652-.713zm-8.633-.158l7.2-6.172a.645.645 0 000-.984l-7.2-6.17a.648.648 0 00-1.074.483v12.343a.651.651 0 001.073.5zM1.727 14.99A10.385 10.385 0 0012.012 24v-6.27a4.093 4.093 0 01-4.1-4.087zm-.096-1.447v.1h6.28a4.093 4.093 0 014.098-4.088l-1.348-6.17a10.37 10.37 0 00-9.03 10.158"/></svg>