<svg xmlns="http://www.w3.org/2000/svg" role="img" viewBox="0 0 24 24" width="24" height="24"  data-name="Layer 2" xmlns="http://www.w3.org/2000/svg"><title>Bambu Lab</title><path d="M.34 0v407.1c2.26-.79 4.11-1.37 5.91-2.08 73.34-28.87 146.66-57.79 220.06-86.51 4.42-1.73 5.81-3.9 5.8-8.6-.23-96.29-.28-192.581-.36-288.87-.01-5.49.02-10.99-.01-16.49 0-1.45-.16-2.9-.26-4.55H.35ZM268.1.01v5.72c0 64.14.03 128.27-.09 192.41-.01 4.07 1.08 6.01 5.07 7.57 73.22 28.7 146.381 57.59 219.55 86.42 2.2.87 4.47 1.56 6.84 2.38V.01Zm.23 242.76c-.11 2.22-.25 3.82-.25 5.42-.01 132.15.02 264.31-.11 396.46 0 4.68 1.37 5.77 5.88 5.77 73.49-.13 146.99-.09 220.48-.1 1.63 0 3.25-.14 5.43-.24v-5.67c0-101.82-.03-203.65.11-305.47.01-4.07-1.32-5.7-4.96-7.12-62.73-24.57-125.39-49.29-188.07-73.97-12.64-4.98-25.3-9.92-38.49-15.08zM231.6 355.53c-1.72.53-2.99.85-4.19 1.32-74.12 29.2-148.21 58.45-222.38 87.52-3.99 1.56-5.04 3.56-5.04 7.61.13 63.99.09 127.98.09 191.97.007 4.246 2.2 6.37 6.58 6.37H231.6z" data-name="Layer 1" style="fill:none;fill-opacity:1" transform="matrix(.04801 0 0 .0369 .306 .153)"/></svg>