<?xml version="1.0" encoding="utf-8"?>
<!-- Generator: Adobe Illustrator 25.4.1, SVG Export Plug-In . SVG Version: 6.00 Build 0)  -->
<svg version="1.1" id="groupLogo-01-a" xmlns="http://www.w3.org/2000/svg" xmlns:xlink="http://www.w3.org/1999/xlink" x="0px"
	 y="0px" viewBox="0 0 320 88" style="enable-background:new 0 0 320 88;" xml:space="preserve" width="320" height="88">
<style type="text/css">
	.st0{fill:#e60000;}
</style>
<g>
	<path d="M137.1,72.7h1.7v15.1h-1.7V72.7z M132,87.8h1.7V72.7H132V87.8z M123.8,72.8l6.5,14.9h-1.8l-1.9-4.4h-7.9l-1.9,4.4h-1.7
		l6.5-14.9c0.2-0.5,0.6-0.8,1.1-0.8C123.2,72.1,123.6,72.4,123.8,72.8z M126,82l-3.3-7.8l-3.4,7.8H126z M101.1,82.2L101.1,82.2
		c0,3.2-2.6,5.9-6.2,5.9c-3.5,0-6.1-2.6-6.1-5.8v0c0-3.1,2.6-5.8,6.1-5.8C98.5,76.4,101.1,79,101.1,82.2z M99.3,82.2
		c0-2.4-1.9-4.4-4.4-4.4c-2.5,0-4.3,2-4.3,4.3v0c0,2.4,1.9,4.3,4.3,4.3C97.5,86.5,99.3,84.6,99.3,82.2L99.3,82.2z M105.5,79.5v-2.9
		h-1.7v11.1h1.7v-4.4c0-3.4,2-5.1,4.4-5.1h0.1v-1.8C108,76.4,106.4,77.7,105.5,79.5z M83.7,72.9c-0.6,0.6-1,1.6-1,2.9v0.8H81V78h1.7
		v9.8h1.6V78h3.5v-1.4h-3.5v-0.7c0-1.6,0.6-2.4,1.9-2.4c0.6,0,1,0.1,1.6,0.3v-1.4c-0.5-0.2-1.1-0.3-1.8-0.3
		C85.1,72.1,84.3,72.4,83.7,72.9z M69.2,76.4c-1.9,0-3.1,1-3.8,2.2v-2h-1.7v11.2h1.7v-6.4c0-2.1,1.4-3.5,3.3-3.5
		c2,0,3.1,1.3,3.1,3.4v6.5h1.7v-6.9C73.5,78.2,71.9,76.4,69.2,76.4z M58.7,83c0,2.1-1.4,3.5-3.3,3.5c-2,0-3.1-1.3-3.1-3.4v-6.5h-1.7
		v7c0,2.7,1.6,4.5,4.3,4.5c1.9,0,3.1-1,3.8-2.2v1.9h1.6V76.6h-1.6V83z M37.8,74v13.8h1.7v-6.6h8.4v-1.5h-8.4v-5.5h9.3v-1.5h-9.7
		C38.4,72.7,37.8,73.3,37.8,74z M158.7,76.4c-1.9,0-3.1,1-3.8,2.2v-2h-1.7v11.2h1.7v-6.4c0-2.1,1.4-3.5,3.3-3.5c2,0,3.1,1.3,3.1,3.4
		v6.5h1.7v-6.9C162.9,78.2,161.4,76.4,158.7,76.4z M185.4,82.2L185.4,82.2c0,3.2-2.6,5.9-6.2,5.9c-3.5,0-6.1-2.6-6.1-5.8v0
		c0-3.1,2.6-5.8,6.1-5.8C182.8,76.4,185.4,79,185.4,82.2z M183.6,82.2c0-2.4-1.9-4.4-4.4-4.4c-2.5,0-4.3,2-4.3,4.3v0
		c0,2.4,1.9,4.3,4.3,4.3C181.8,86.5,183.6,84.6,183.6,82.2L183.6,82.2z M148.1,87.8h1.7V76.6h-1.7V87.8z M148.9,72.1
		c-0.7,0-1.3,0.6-1.3,1.3c0,0.7,0.6,1.3,1.3,1.3c0.7,0,1.3-0.6,1.3-1.3C150.2,72.7,149.6,72.1,148.9,72.1z M168.2,73.3h-1.7v3.4
		h-1.7V78h1.7v6.8c0,2.3,1.4,3.1,3.1,3.1c0.8,0,1.4-0.2,2-0.5v-1.4c-0.6,0.3-1.1,0.4-1.6,0.4c-1.1,0-1.9-0.5-1.9-1.9V78h3.5v-1.4
		h-3.5V73.3z M262,73.3h-1.7v3.4h-1.7V78h1.7v6.8c0,2.3,1.4,3.1,3.1,3.1c0.8,0,1.4-0.2,2-0.5v-1.4c-0.6,0.3-1.1,0.4-1.6,0.4
		c-1.1,0-1.9-0.5-1.9-1.9V78h3.5v-1.4H262V73.3z M282.8,79.5v-2.9h-1.7v11.1h1.7v-4.4c0-3.4,2-5.1,4.4-5.1h0.1v-1.8
		C285.2,76.4,283.6,77.7,282.8,79.5z M299.5,82.8H290c0.3,2.4,2.1,3.8,4.2,3.8c1.6,0,2.8-0.6,3.8-1.6l0.9,1.2
		c-1.1,1.1-2.6,1.8-4.7,1.8c-3.3,0-5.9-2.3-5.9-5.8v0c0-3.2,2.4-5.8,5.7-5.8c3.5,0,5.6,2.6,5.6,5.9
		C299.5,82.5,299.5,82.6,299.5,82.8z M297.7,81.6c-0.2-2-1.4-3.8-3.8-3.8c-2.1,0-3.6,1.6-3.9,3.8H297.7z M276.1,83
		c0,2.1-1.4,3.5-3.3,3.5c-2,0-3.1-1.3-3.1-3.4v-6.5H268v7c0,2.7,1.6,4.5,4.3,4.5c1.9,0,3.1-1,3.8-2.2v1.9h1.6V76.6h-1.6V83z
		 M254.6,83c0,2.1-1.4,3.5-3.3,3.5c-2,0-3.1-1.3-3.1-3.4v-6.5h-1.7v7c0,2.7,1.6,4.5,4.3,4.5c1.9,0,3.1-1,3.8-2.2v1.9h1.6V76.6h-1.6
		V83z M233.8,74v13.8h1.7v-6.6h8.4v-1.5h-8.4v-5.5h9.3v-1.5h-9.7C234.4,72.7,233.8,73.3,233.8,74z M195.6,73.3H194v3.4h-1.7V78h1.7
		v6.8c0,2.3,1.4,3.1,3.1,3.1c0.8,0,1.4-0.2,2-0.5v-1.4c-0.6,0.3-1.1,0.4-1.6,0.4c-1.1,0-1.9-0.5-1.9-1.9V78h3.5v-1.4h-3.5V73.3z
		 M225.3,82.3c0,0.2,0,0.3,0,0.5h-9.4c0.3,2.4,2.1,3.8,4.2,3.8c1.6,0,2.8-0.6,3.8-1.6l0.9,1.2c-1.1,1.1-2.6,1.8-4.7,1.8
		c-3.3,0-5.9-2.3-5.9-5.8v0c0-3.2,2.4-5.8,5.7-5.8C223.3,76.4,225.3,79,225.3,82.3z M223.5,81.6c-0.2-2-1.4-3.8-3.8-3.8
		c-2.1,0-3.6,1.6-3.9,3.8H223.5z M207.4,76.4c-1.9,0-3.1,1-3.8,2.2V72h-1.7v15.7h1.7v-6.4c0-2.1,1.4-3.5,3.3-3.5
		c2,0,3.1,1.3,3.1,3.4v6.5h1.7v-6.9C211.6,78.2,210.1,76.4,207.4,76.4z"/>
	<g>
		<path class="st0" d="M310.5,0H9.5C4.3,0,0,4.2,0,9.5v32.6c0,2.8,1.1,5.6,3.1,7.6l23,23V61.1h284.3c5.3,0,9.5-4.3,9.5-9.5V9.5
			C320,4.2,315.7,0,310.5,0z M311.8,53.3H26.2v7.8L8.2,43.1V7.7h303.5V53.3z"/>
		<path d="M244.7,21.1l0,22.1h-5.4V26.9c0,0-4.6,6.5-6.1,8.7c-1.2,1.7-3.8,1.7-5,0c-1.5-2.2-6.1-8.7-6.1-8.7v16.3h-5.4
			c0,0,0-16.6,0-22.1c0-1.1,0.5-2.2,1.4-2.8c1.5-1,3.6-0.7,4.7,0.8c2,2.8,7.8,11.2,7.8,11.2s5.9-8.4,7.8-11.2
			c1.1-1.5,3.1-1.9,4.7-0.8C244.2,18.9,244.7,20,244.7,21.1z M182,34.2c0,0-7.9-11.3-10.6-15.1c-1.1-1.5-3.1-1.9-4.7-0.8
			c-0.9,0.6-1.4,1.7-1.4,2.8c0,5.5,0,22.1,0,22.1h5.4V26.9c0,0,7.9,11.3,10.6,15.1c1.1,1.5,3.1,1.9,4.7,0.8h0
			c0.9-0.6,1.4-1.7,1.4-2.8c0-5.5,0-22.1,0-22.1H182V34.2z M262.9,21.9c2.6,0,4.9,1.2,6.6,2.9l3-4.2c-2.5-2.1-5.9-3.3-9.6-3.3
			c-7.8,0-14.4,5.2-14.4,13.1c0,7.9,6.7,13.1,14.4,13.1c3.7,0,7.1-1.2,9.6-3.3l-3-4.2c-1.6,1.7-4,2.9-6.6,2.9
			c-4.9,0-8.3-3.8-8.3-8.6C254.6,25.8,258,21.9,262.9,21.9z M301.7,30.5c0,7.9-6.5,13.1-14,13.1s-14-5.2-14-13.1
			c0-7.9,6.5-13.1,14-13.1S301.7,22.6,301.7,30.5z M295.7,30.5c0-4.7-3.3-8.6-8.1-8.6c-4.8,0-8.1,3.8-8.1,8.6c0,4.7,3.3,8.6,8.1,8.6
			C292.5,39.1,295.7,35.3,295.7,30.5z M205.7,20.1c2.3,5.8,9.3,23,9.3,23h-5.7l-2.3-5.8h-10.3l-2.3,5.8h-5.7c0,0,7-17.3,9.3-23
			c0.7-1.8,2.2-2.7,3.8-2.7S205,18.3,205.7,20.1z M205.4,33.1l-3.5-8.8l-3.5,8.8H205.4z M43.7,36.3c0,3.6-2.6,6.8-7,6.8H22.9
			c-1.3,0-2.1-0.9-2.1-2.1c0-5.2,0-15.7,0-21c0-1.3,0.9-2.1,2.1-2.1h12.2c4.2,0,7.1,2.8,7.1,6.3c0,2.8-1.9,5.3-4.6,6
			C41.1,30.4,43.7,32.9,43.7,36.3z M26.1,28.1c0,0,5.2,0,7,0c2,0,3.2-1.3,3.2-2.8l0,0c0-1.6-1.2-2.8-3.2-2.8c-1.7,0-7,0-7,0V28.1z
			 M37.8,35.5c0-1.7-1.4-3.1-3.4-3.1c-2,0-8.2,0-8.2,0v6.2c0,0,6.2,0,8.2,0C36.5,38.6,37.8,37.2,37.8,35.5z M88.9,34.2
			c0,0-7.9-11.3-10.6-15.1c-1.1-1.5-3.1-1.9-4.7-0.8c-0.9,0.6-1.4,1.7-1.4,2.8c0,5.5,0,22.1,0,22.1h5.4V26.9c0,0,7.9,11.3,10.6,15.1
			c1.1,1.5,3.1,1.9,4.7,0.8h0c0.9-0.6,1.4-1.7,1.4-2.8c0-5.5,0-22.1,0-22.1h-5.3V34.2z M149.2,43.1h5.6V17.9h-5.6V43.1z M121.8,30.4
			c0,8.3-6.1,12.8-13.1,12.8c0,0-5.3,0-7.1,0c-1.3,0-2.1-0.9-2.1-2.1V20c0-1.3,0.9-2.1,2.1-2.1c1.8,0,7.2,0,7.2,0
			C115.7,17.9,121.8,21.9,121.8,30.4z M115.9,30.4c0-6-4.5-8-8.3-8h-2.8v16.2h2.7C112,38.6,115.9,36.3,115.9,30.4z M61.2,20.1
			c2.3,5.8,9.3,23,9.3,23h-5.7l-2.3-5.8H52.2l-2.3,5.8h-5.7c0,0,7-17.3,9.3-23c0.7-1.8,2.2-2.7,3.8-2.7C59,17.4,60.5,18.3,61.2,20.1
			z M60.8,33.1l-3.5-8.8l-3.5,8.8H60.8z M138.1,20.1c2.3,5.8,9.3,23,9.3,23h-5.7l-2.3-5.8h-10.3l-2.3,5.8h-5.7c0,0,7-17.3,9.3-23
			c0.7-1.8,2.2-2.7,3.8-2.7S137.4,18.3,138.1,20.1z M137.7,33.1l-3.5-8.8l-3.5,8.8H137.7z"/>
	</g>
</g>
</svg>
