<svg role="img" viewBox="0 0 24 24" xmlns="http://www.w3.org/2000/svg"><title>B&amp;M</title><path d="M5.513 5.97c-.175 0-.372.016-.598.053l-1.456.25c-1.138.208-1.514.768-1.732 1.597L.183 13.865c-.425 1.642-.047 2.567.484 3.138.931.997 2.437 1.24 4.695.85a8.624 8.624 0 0 0 3.372-1.335c.153.26.531.417 1.186.3l2.582-.446-.003.004a.7.7 0 0 0 .594-.516c.062.262.283.372.575.32 0 0 .778-.134 1.016-.181l2.768-.494a.7.7 0 0 0 .594-.517c.06.263.282.366.574.315l3.07-.54c1.09-.188 1.424-.846 1.531-1.421l.658-3.38c.293-1.434.025-2.164-.485-2.772-.4-.471-1.13-.933-2.416-.875-1.211.054-2.354.628-3.2 1.283-.682-.584-2.429-.735-4.26.621-.148-.275-.524-.4-1.098-.309-.017.004-2.657.455-2.657.455l-.167.707c-.646-.417-1.854-.54-2.922-.113l.189-.773c.25-.893.126-1.443-.248-1.802-.26-.25-.578-.411-1.102-.414zm-.24 1.15c.398-.004.61.234.465.753l-.803 3.171c.636-.597 1.388-.997 2.225-1.145 1.26-.221 2.217.044 2.723.717a1.69 1.69 0 0 0-.235.058c-.594.19-.99.858-.7 1.597-.825.292-1.255.952-1.08 1.722.139.61.704.79 1.14.8-.074.075-.148.151-.222.218-.953.857-2.222 1.462-3.629 1.704-2.562.44-4.564.011-3.898-2.556L2.54 9.196c.174-.681-.04-1.291-.76-1.48l3.311-.58c.064-.01.125-.016.182-.016zm16.008.35c1.229.046 1.743.876 1.46 2.268l-.44 2.2-.008.003c-.155.752.14 1.295.91 1.383l-4.077.716.76-3.622c.226-.975-.471-1.126-1.148-.802-.575.278-.949.845-1.097 1.53l-.706 3.276-2.041.362c-.396.067-.728-.09-.589-.773l.585-2.724c.225-.975-.472-1.125-1.147-.802-.577.276-.949.845-1.099 1.53l-.728 3.288-2.028.352c-.49.09-.713-.161-.58-.683l.045-.206c.384-.07.73-.254 1.026-.501.078.074.157.146.236.215l1.164-.202a4.901 4.901 0 0 1-.82-.671c.149-.209.325-.503.41-.741.215-.577-.066-.699-.727-.38.104.092.117.357-.063.708a5.802 5.802 0 0 1-.612-.847c-.392-.685-.169-1.053.13-1.134.324-.088.543.11.552.348.112-.076.335-.321.144-.636a.686.686 0 0 0-.418-.296l.278-1.246 1.765-.307c.457-.073.894.064.733.742.453-.433 1.117-.84 1.72-1.116 1.372-.625 2.545-.458 2.769.397.612-.597 2.04-1.568 3.386-1.628.089-.004.174-.005.255-.001zM6.354 11.63a1.871 1.871 0 0 0-.25.028c-.52.092-1.093.397-1.54.864l-.406 1.624c-.23.943.225 1.195.927 1.071l.002.003c1.12-.198 2.155-1.46 2.155-2.806-.002-.53-.334-.806-.888-.784zm2.83 1.168c.211.373.488.732.801 1.067a1.148 1.148 0 0 1-.5.144c-.364.015-.627-.211-.67-.499l-.002-.002a.653.653 0 0 1 .37-.71z"/></svg>