<svg viewBox="0 0 16 16" xmlns="http://www.w3.org/2000/svg" fill-rule="evenodd" clip-rule="evenodd" stroke-linejoin="round" stroke-miterlimit="1.414"><path d="M8 1.333c-4.307 0-7.68 5.48-8 10.107 1.352 2.346 4.61 3.227 8 3.227 3.39 0 6.65-.88 8-3.227-.32-4.628-3.693-10.107-8-10.107zm6.875 9.005s-.952-2.057-1.918-3.257c-.968-1.2-2.15-2.506-2.848-2.506-.7 0-2.65 3.456-3.547 3.456-.895 0-1.36-1.567-2.462-1.567-1.1 0-2.85 3.778-2.85 3.778l-.12.642s.61 2.695 6.97 2.695c6.36 0 6.87-2.65 6.87-2.65l-.095-.59z"/></svg>