<svg role="img" viewBox="0 0 24 24" xmlns="http://www.w3.org/2000/svg"><title>Bastyon</title><path d="M21.29 19a11.62 11.62 0 0 0 .88-12.66 1.83 1.83 0 0 1 .3-2.19L24 2.66 21.44.1l-1.58 1.58A5.47 5.47 0 0 0 19 2.76a11.62 11.62 0 0 0-12.63-.9 1.83 1.83 0 0 1-2.19-.3L2.65 0 .09 2.59l1.59 1.58a5.47 5.47 0 0 0 1 .8 11.62 11.62 0 0 0-.9 12.67 1.85 1.85 0 0 1-.3 2.19L0 21.36l2.56 2.57 1.58-1.59A5.47 5.47 0 0 0 5 21.25a11.62 11.62 0 0 0 12.67.89 1.83 1.83 0 0 1 2.19.3L21.39 24 24 21.41l-1.62-1.58a5.48 5.48 0 0 0-1.09-.83ZM12 20a8 8 0 1 1 8-8 8 8 0 0 1-8 8Z"/></svg>