<?xml version="1.0" encoding="utf-8"?>
<!-- Generator: Adobe Illustrator 25.3.1, SVG Export Plug-In . SVG Version: 6.00 Build 0)  -->
<svg version="1.1" id="Layer_1" xmlns="http://www.w3.org/2000/svg" xmlns:xlink="http://www.w3.org/1999/xlink" x="0px" y="0px"
	 viewBox="0 0 360 102.9" style="enable-background:new 0 0 360 102.9;" xml:space="preserve">
<style type="text/css">
	.st0{fill-rule:evenodd;clip-rule:evenodd;}
</style>
<path class="st0" d="M0,102.9h102.9V0H0V102.9z M71.2,72.6c-1.8,2.5-4.3,4.4-7.5,5.7c-3.3,1.3-7.2,2-11.7,2H28.9V22.5h21.7
	c6.4,0,11.4,1.3,14.9,3.8c3.5,2.6,5.3,6.2,5.3,11c0,2.8-0.6,5.1-1.9,7.2c-1.3,2-3.1,3.6-5.6,4.8c3.4,1.1,6,2.9,7.8,5.4
	c1.8,2.4,2.7,5.4,2.7,8.9C73.9,67.1,73,70.1,71.2,72.6L71.2,72.6z M56.5,44.3c1.6-1.3,2.4-3.2,2.4-5.5c0-4.6-3.1-6.9-9.4-6.9h-8.9
	v14.4h8.9C52.6,46.3,54.9,45.6,56.5,44.3z M51,55.4H40.6V71h10.2c3.5,0,6.2-0.7,8.1-2s2.8-3.2,2.8-5.7C61.8,58,58.2,55.4,51,55.4z
	 M128.6,102.9h102.9V0H128.6V102.9z M199.8,72.6c-1.8,2.5-4.3,4.4-7.5,5.7c-3.3,1.3-7.2,2-11.7,2h-23V22.5h21.7
	c6.4,0,11.4,1.3,14.9,3.8c3.5,2.6,5.3,6.2,5.3,11c0,2.8-0.6,5.1-1.9,7.2c-1.3,2-3.1,3.6-5.6,4.8c3.4,1.1,6,2.9,7.8,5.4
	c1.8,2.4,2.7,5.4,2.7,8.9C202.4,67.1,201.5,70.1,199.8,72.6L199.8,72.6z M185.1,44.3c1.6-1.3,2.4-3.2,2.4-5.5c0-4.6-3.1-6.9-9.4-6.9
	h-8.9v14.4h8.9C181.2,46.3,183.5,45.6,185.1,44.3z M179.6,55.4h-10.4V71h10.2c3.5,0,6.2-0.7,8.1-2c1.9-1.3,2.8-3.2,2.8-5.7
	C190.4,58,186.8,55.4,179.6,55.4z M257.1,102.9H360V0H257.1V102.9z M331,76.7c-2.4,1.3-5.2,2.4-8.3,3.1c-3.2,0.8-6.5,1.1-10,1.1
	c-4.6,0-8.8-0.7-12.5-2c-3.7-1.4-6.8-3.3-9.4-5.8s-4.5-5.6-5.9-9.3s-2-7.8-2-12.4c0-4.5,0.7-8.5,2.1-12.2c1.4-3.6,3.5-6.7,6.1-9.3
	c2.7-2.6,5.9-4.6,9.6-5.9c3.7-1.4,7.9-2.1,12.5-2.1c3.2,0,6.2,0.3,9.1,1s5.5,1.6,8,2.9V37c-2.2-1.5-4.7-2.6-7.3-3.4
	c-2.7-0.8-5.5-1.2-8.2-1.1c-4,0-7.4,0.7-10.2,2.2c-2.8,1.4-5,3.7-6.4,6.4c-1.5,2.8-2.2,6.2-2.2,10.2s0.7,7.5,2.2,10.3
	c1.4,2.8,3.6,5,6.3,6.5c2.8,1.5,6.1,2.2,10,2.2c6,0,11.5-1.6,16.6-4.7v11.1H331z"/>
</svg>
