<?xml version="1.0" encoding="utf-8"?>
<svg version="1.1" id="Layer_1" x="0px" y="0px" viewBox="0 0 24 24" style="enable-background:new 0 0 360 102.9;" width="24px" height="24px" xmlns="http://www.w3.org/2000/svg">
  <style type="text/css">
	.st0{fill-rule:evenodd;clip-rule:evenodd;}
</style>
  <path class="st0" d="M 0 15.43 L 6.86 15.43 L 6.86 8.57 L 0 8.57 L 0 15.43 Z M 4.747 13.41 C 4.627 13.577 4.46 13.703 4.247 13.79 C 4.027 13.877 3.767 13.923 3.467 13.923 L 1.927 13.923 L 1.927 10.07 L 3.373 10.07 C 3.8 10.07 4.133 10.157 4.367 10.323 C 4.6 10.497 4.72 10.737 4.72 11.057 C 4.72 11.243 4.68 11.397 4.593 11.537 C 4.507 11.67 4.387 11.777 4.22 11.857 C 4.447 11.93 4.62 12.05 4.74 12.217 C 4.86 12.377 4.92 12.577 4.92 12.81 C 4.927 13.043 4.867 13.243 4.747 13.41 Z M 3.767 11.523 C 3.873 11.437 3.927 11.31 3.927 11.157 C 3.927 10.85 3.72 10.697 3.3 10.697 L 2.707 10.697 L 2.707 11.657 L 3.3 11.657 C 3.507 11.657 3.66 11.61 3.767 11.523 Z M 3.4 12.263 L 2.707 12.263 L 2.707 13.303 L 3.387 13.303 C 3.62 13.303 3.8 13.257 3.927 13.17 C 4.053 13.083 4.113 12.957 4.113 12.79 C 4.12 12.437 3.88 12.263 3.4 12.263 Z M 8.573 15.43 L 15.433 15.43 L 15.433 8.57 L 8.573 8.57 L 8.573 15.43 Z M 13.32 13.41 C 13.2 13.577 13.033 13.703 12.82 13.79 C 12.6 13.877 12.34 13.923 12.04 13.923 L 10.507 13.923 L 10.507 10.07 L 11.953 10.07 C 12.38 10.07 12.713 10.157 12.947 10.323 C 13.18 10.497 13.3 10.737 13.3 11.057 C 13.3 11.243 13.26 11.397 13.173 11.537 C 13.087 11.67 12.967 11.777 12.8 11.857 C 13.027 11.93 13.2 12.05 13.32 12.217 C 13.44 12.377 13.5 12.577 13.5 12.81 C 13.493 13.043 13.433 13.243 13.32 13.41 Z M 12.34 11.523 C 12.447 11.437 12.5 11.31 12.5 11.157 C 12.5 10.85 12.293 10.697 11.873 10.697 L 11.28 10.697 L 11.28 11.657 L 11.873 11.657 C 12.08 11.657 12.233 11.61 12.34 11.523 Z M 11.973 12.263 L 11.28 12.263 L 11.28 13.303 L 11.96 13.303 C 12.193 13.303 12.373 13.257 12.5 13.17 C 12.627 13.083 12.687 12.957 12.687 12.79 C 12.693 12.437 12.453 12.263 11.973 12.263 Z M 17.14 15.43 L 24 15.43 L 24 8.57 L 17.14 8.57 L 17.14 15.43 Z M 22.067 13.683 C 21.907 13.77 21.72 13.843 21.513 13.89 C 21.3 13.943 21.08 13.963 20.847 13.963 C 20.54 13.963 20.26 13.917 20.013 13.83 C 19.767 13.737 19.56 13.61 19.387 13.443 C 19.213 13.277 19.087 13.07 18.993 12.823 C 18.9 12.577 18.86 12.303 18.86 11.997 C 18.86 11.697 18.907 11.43 19 11.183 C 19.093 10.943 19.233 10.737 19.407 10.563 C 19.587 10.39 19.8 10.257 20.047 10.17 C 20.293 10.077 20.573 10.03 20.88 10.03 C 21.093 10.03 21.293 10.05 21.487 10.097 C 21.68 10.143 21.853 10.203 22.02 10.29 L 22.02 11.037 C 21.873 10.937 21.707 10.863 21.533 10.81 C 21.353 10.757 21.167 10.73 20.987 10.737 C 20.72 10.737 20.493 10.783 20.307 10.883 C 20.12 10.977 19.973 11.13 19.88 11.31 C 19.78 11.497 19.733 11.723 19.733 11.99 C 19.733 12.257 19.78 12.49 19.88 12.677 C 19.973 12.863 20.12 13.01 20.3 13.11 C 20.487 13.21 20.707 13.257 20.967 13.257 C 21.367 13.257 21.733 13.15 22.073 12.943 L 22.073 13.683 L 22.067 13.683 Z"/>
</svg>