<?xml version="1.0" encoding="utf-8"?>
<svg version="1.1" id="svg7" x="0px" y="0px" viewBox="0 0 590 590.00433" xmlns="http://www.w3.org/2000/svg">
  <path id="rect100175" d="M 42.78 117.722 L 160.284 117.722 C 162.378 117.722 164.065 119.408 164.065 121.503 L 164.065 468.502 C 164.065 470.596 162.378 472.282 160.284 472.282 L 42.78 472.282 C 40.686 472.282 39 470.596 39 468.502 L 39 121.503 C 39 119.408 40.686 117.722 42.78 117.722 Z"/>
  <path id="rect1325" d="M 184.68 103.655 L 243.432 1.894 C 244.479 0.08 246.783 -0.537 248.596 0.51 L 549.106 174.009 C 550.92 175.057 551.537 177.36 550.49 179.173 L 491.738 280.935 C 490.691 282.748 488.388 283.366 486.574 282.318 L 186.064 108.819 C 184.25 107.772 183.633 105.468 184.68 103.655 Z"/>
  <path id="rect1433" d="M 184.68 486.35 L 243.432 588.111 C 244.479 589.925 246.783 590.542 248.596 589.495 L 549.106 415.995 C 550.92 414.948 551.537 412.645 550.49 410.831 L 491.738 309.07 C 490.691 307.256 488.388 306.639 486.574 307.686 L 186.064 481.185 C 184.25 482.233 183.633 484.536 184.68 486.35 L 184.68 486.35 Z"/>
</svg>