<svg aria-labelledby="simpleicons-bebo-icon" role="img" viewBox="0 0 24 24" xmlns="http://www.w3.org/2000/svg"><title id="simpleicons-bebo-icon">Bebo icon</title><path d="M20.756 11.572c-.465-1.074-1.116-2.033-1.933-2.846-.817-.814-1.776-1.46-2.854-1.926-1.08-.465-2.24-.697-3.47-.697l-4.82-.007c-.61 0-1.1-.494-1.1-1.1V1.96C6.58.864 5.7 0 4.57 0 3.462 0 2.56.903 2.56 2.012l.007 13.015c0 1.23.24 2.396.7 3.476.47 1.078 1.12 2.037 1.93 2.86.82.81 1.777 1.47 2.85 1.933 1.08.465 2.25.704 3.47.704h.99c1.214 0 2.38-.225 3.46-.69 1.08-.464 2.04-1.108 2.847-1.916.81-.81 1.452-1.768 1.915-2.847.46-1.063.7-2.23.7-3.46 0-1.214-.24-2.383-.71-3.46l.02-.055zm-3.317 3.46c0 .668-.13 1.312-.38 1.91-.26.616-.62 1.14-1.06 1.574-.45.45-.98.81-1.58 1.063s-1.25.39-1.92.39h-.98c-.68 0-1.32-.12-1.92-.38-.59-.24-1.13-.6-1.58-1.05-.45-.44-.794-.98-1.05-1.57-.237-.6-.37-1.25-.37-1.92v-2.84c0-.54.21-1.07.6-1.46.39-.39.912-.6 1.47-.6h3.85c.67 0 1.315.13 1.914.37.6.25 1.14.61 1.573 1.06.45.45.81.99 1.06 1.57.253.592.39 1.24.39 1.91l-.046-.057z"/></svg>