<svg viewBox="0 0 16 16" xmlns="http://www.w3.org/2000/svg" fill-rule="evenodd" clip-rule="evenodd" stroke-linejoin="round" stroke-miterlimit="1.414"><path d="M13.836 7.725c-.31-.717-.745-1.357-1.29-1.9C12 5.282 11.36 4.85 10.64 4.54c-.717-.31-1.495-.466-2.31-.466L5.112 4.07c-.404 0-.733-.33-.734-.733l-.002-2.03C4.378.576 3.788 0 3.035 0c-.74 0-1.342.603-1.342 1.343l.004 8.688c0 .816.157 1.594.468 2.315.313.72.746 1.36 1.287 1.903.544.542 1.184.974 1.902 1.285.72.31 1.5.467 2.315.467h.664c.817 0 1.596-.157 2.316-.467.722-.312 1.362-.745 1.902-1.285.54-.54.974-1.18 1.286-1.9.31-.715.47-1.493.47-2.312 0-.817-.16-1.594-.472-2.31zm-2.214 2.31c0 .446-.085.875-.254 1.276-.17.403-.408.755-.707 1.05-.3.3-.654.537-1.05.702-.4.168-.83.253-1.28.253h-.655c-.45 0-.88-.086-1.28-.255-.398-.166-.752-.403-1.053-.705-.298-.296-.535-.65-.707-1.053-.167-.4-.252-.83-.252-1.28v-1.89c0-.368.142-.713.4-.973.26-.26.606-.404.974-.404l2.57.003c.45 0 .88.084 1.282.25.4.17.753.406 1.05.704.3.3.54.653.71 1.048.167.402.252.83.252 1.274z"/></svg>