<svg role="img" viewBox="0 0 24 24" xmlns="http://www.w3.org/2000/svg"><title>Behance</title><path d="M0 4.4804V19.243h7.1554c.6613 0 1.3078-.0832 1.9297-.248.6288-.1654 1.1905-.4203 1.6792-.7661.485-.3431.8784-.788 1.1677-1.3369.2862-.542.4294-1.187.4294-1.9354 0-.9232-.219-1.7109-.6675-2.369-.446-.6542-1.1187-1.1139-2.0274-1.3746.6674-.3161 1.1658-.7227 1.506-1.2177.3371-.4967.5058-1.1174.5058-1.8607 0-.6873-.1127-1.2677-.3375-1.7318-.2306-.4709-.552-.8452-.9632-1.1266-.4176-.2808-.912-.4857-1.4912-.6085-.5827-.1261-1.22-.1872-1.9264-.1872zm15.6674.9903v1.4567h5.9844V5.4707zM3.2509 6.9947h3.0407c.2873 0 .5683.0204.8359.0731.2728.0466.508.134.716.2595.2096.1205.3754.293.501.5132.1208.2203.1806.5038.1806.8474 0 .6189-.1811 1.0702-.5551 1.3426-.3778.2775-.8543.4147-1.4304.4147H3.2509zm15.545 1.2564c-.819 0-1.5587.1462-2.2294.436-.6705.2904-1.2463.6875-1.7318 1.1915-.4846.5011-.8535 1.0986-1.12 1.7909-.2612.69-.3942 1.4366-.3942 2.236 0 .8268.1284 1.5891.3835 2.2786.258.6923.6198 1.2822 1.0856 1.781.478.4967 1.046.8784 1.726 1.1497.6806.269 1.4382.4048 2.2803.4048 1.208 0 2.2446-.2771 3.0949-.8326.8599-.5528 1.4902-1.471 1.9058-2.7574h-2.585c-.1.3307-.359.649-.784.9467-.4295.2988-.9417.4492-1.534.4492-.8233 0-1.4588-.2168-1.8985-.6462-.4412-.4294-.7267-1.2289-.7267-2.0742h7.713c.0552-.8291-.0122-1.6218-.2045-2.3797-.1938-.7601-.5033-1.4365-.9393-2.029-.4355-.5931-.9904-1.0667-1.667-1.4165-.6788-.3543-1.4703-.5288-2.3747-.5288zm-.0887 2.217c.7209 0 1.3126.2092 1.6612.5954.3503.389.6065.9432.6766 1.6915h-4.7766c.0136-.2085.058-.4444.1339-.7045.0749-.2668.2039-.5164.3933-.753.1905-.2326.4402-.431.744-.5896.3109-.1608.6986-.2397 1.1676-.2397zM3.251 12.664h3.5334c.6996 0 1.2682.1602 1.6948.4836.4259.328.6405.8685.6405 1.6292 0 .3885-.0632.7094-.1946.9566-.131.2495-.3106.4466-.528.5896-.2172.1491-.4753.2498-.7661.3137-.2862.0639-.5905.092-.9115.092H3.2509z"/></svg>