<svg viewBox="0 0 16 16" xmlns="http://www.w3.org/2000/svg" fill-rule="evenodd" clip-rule="evenodd" stroke-linejoin="round" stroke-miterlimit="1.414"><path d="M4.64 2.987c.47 0 .896.04 1.284.125.386.082.715.218.994.406.274.187.49.436.642.75.15.31.226.697.226 1.155 0 .495-.113.91-.338 1.24-.226.33-.56.602-1.004.812.606.174 1.054.48 1.352.916.3.44.445.965.445 1.58 0 .5-.095.93-.285 1.29-.193.367-.456.664-.78.893-.325.23-.7.4-1.12.51-.413.11-.844.165-1.285.165H0v-9.84h4.64zm6.69 8.133c.293.286.717.43 1.266.43.394 0 .736-.1 1.022-.3.284-.197.456-.41.523-.63h1.725c-.277.857-.698 1.47-1.27 1.838-.568.37-1.26.555-2.065.555-.56 0-1.066-.09-1.52-.27-.453-.18-.832-.435-1.15-.766-.31-.332-.552-.726-.724-1.188-.17-.46-.256-.968-.256-1.52 0-.532.09-1.03.263-1.49.178-.462.423-.86.746-1.195.323-.335.707-.6 1.154-.794.447-.192.94-.29 1.486-.29.603 0 1.13.117 1.584.353.45.233.82.55 1.11.945.292.394.498.846.628 1.353.127.506.172 1.034.136 1.587h-5.143c0 .563.19 1.097.485 1.383zm-6.85.033c.213 0 .416-.02.607-.062.194-.042.366-.11.51-.208.146-.096.266-.226.353-.393.087-.166.13-.38.13-.64 0-.506-.143-.866-.427-1.085-.285-.215-.664-.323-1.13-.323H2.167v2.71H4.48zm9.1-3.777c-.234-.258-.628-.397-1.108-.397-.313 0-.572.052-.78.16-.202.105-.368.236-.495.39-.126.16-.212.326-.262.504-.05.173-.08.33-.09.47h3.185c-.047-.5-.217-.87-.45-1.128zm-9.22-.413c.384 0 .702-.09.953-.276.25-.182.37-.482.37-.895 0-.23-.04-.418-.12-.565-.084-.147-.195-.262-.334-.342-.14-.084-.297-.142-.48-.173-.177-.035-.364-.05-.556-.05H2.167v2.3H4.36zm6.085-3.316h3.99v.972h-3.99v-.973z"/></svg>