<svg role="img" viewBox="0 0 24 24" xmlns="http://www.w3.org/2000/svg"><title>Behance icon</title><path d="M6.94 4.498c.703 0 1.341.06 1.921.188.578.13 1.07.33 1.486.61.41.28.733.65.96 1.12.225.471.34 1.051.34 1.732 0 .74-.17 1.36-.507 1.86-.338.5-.837.9-1.502 1.22.906.26 1.576.721 2.022 1.371.449.66.666 1.45.666 2.361 0 .75-.13 1.39-.41 1.93-.28.551-.67 1.001-1.16 1.351-.481.349-1.051.6-1.672.768a7.318 7.318 0 01-1.91.254H0V4.505h6.94zm10.007 12.167c.44.428 1.073.643 1.894.643.59 0 1.1-.148 1.53-.447.425-.29.681-.61.781-.94h2.59c-.404 1.28-1.05 2.2-1.902 2.75-.85.56-1.884.83-3.08.83-.838 0-1.585-.13-2.274-.4a4.95 4.95 0 01-1.72-1.14 5.103 5.103 0 01-1.078-1.77c-.253-.69-.373-1.45-.373-2.271 0-.804.135-1.54.403-2.231.27-.7.645-1.28 1.12-1.79a5.44 5.44 0 011.737-1.195c.674-.3 1.4-.433 2.221-.433.91 0 1.69.164 2.381.523.67.34 1.22.82 1.66 1.4.441.587.751 1.26.941 2.021.19.75.25 1.54.21 2.381h-7.693c0 .84.28 1.633.71 2.066l-.08.03zm-10.244.05c.317 0 .62-.03.906-.093.29-.06.548-.165.763-.3.21-.135.39-.328.52-.584.13-.24.19-.57.19-.96 0-.75-.22-1.29-.64-1.62-.43-.32-.99-.48-1.69-.48h-3.51v4.05h3.46v-.03zm13.612-5.652c-.352-.386-.94-.593-1.658-.593-.468 0-.855.074-1.166.239-.302.15-.55.35-.74.59-.19.24-.318.48-.393.75-.075.26-.12.5-.135.71h4.764c-.07-.75-.33-1.3-.68-1.69v.01zm-13.792-.616c.574 0 1.05-.134 1.425-.412.374-.27.554-.72.554-1.338 0-.344-.07-.626-.18-.847-.13-.22-.3-.39-.5-.512-.21-.124-.45-.21-.72-.257a4.428 4.428 0 00-.84-.074h-3.03v3.441h3.29zm9.101-4.96h5.97v1.455h-5.97V5.475v.01z"/></svg>