<svg role="img" viewBox="0 0 24 24" xmlns="http://www.w3.org/2000/svg"><title>BeReal</title><path d="M8.105 12.203c.073.087.172.308.172.38 0 .032-.094.037-.641.037h-.641l.017-.09a.69.69 0 0 1 .337-.472c.075-.038.142-.05.289-.05.226-.003.347.048.467.195Zm7.087.003c.072.087.17.309.17.381 0 .031-.093.036-.64.036h-.641l.017-.089a.69.69 0 0 1 .337-.472c.075-.039.142-.05.29-.05.226-.003.346.047.467.194Zm-3.982-1.349c.397.035.618.248.62.642-.002.258-.101.412-.25.506-.256.161-.67.154-.994.148l-.117-.002v-1.31c.245-.005.498-.006.742.016Zm-6.367 2.305c0 .303-.106.453-.395.554-.082.029-.222.036-.656.036h-.551v-1.21l.573.01c.535.008.578.01.692.063.245.113.337.26.337.547Zm-.467-2.222c.147.1.178.169.185.398.02.542-.398.548-.81.553l-.045.001-.465.01v-1.065h.41c.443 0 .607.024.725.103Zm13.948 2.325c0 .285-.152.5-.41.579-.409.125-.742-.044-.715-.364.02-.224.183-.32.602-.354.147-.012.328-.024.398-.024h.125v.163Z"/><path clip-rule="evenodd" d="M19.078 0H4.922A4.935 4.935 0 0 0 0 4.922v14.156A4.935 4.935 0 0 0 4.922 24h14.156A4.935 4.935 0 0 0 24 19.078V4.922A4.935 4.935 0 0 0 19.078 0ZM7.72 11.307c-1.111-.044-1.613.727-1.57 1.745.039.953.797 1.456 1.688 1.447.37-.004.736-.106.99-.325l-.226-.564-.097.043a1.51 1.51 0 0 1-.814.145c-.306-.039-.494-.164-.62-.412-.043-.089-.083-.145-.069-.18.026-.067.25-.056 1.024-.056h1.023v-.27c-.05-.85-.4-1.534-1.329-1.573Zm7.086.003c-1.111-.043-1.612.728-1.57 1.746.039.952.798 1.456 1.688 1.447.37-.004.736-.106.99-.326l-.226-.564-.096.044c-.29.13-.555.176-.815.144-.306-.038-.494-.164-.619-.412-.044-.089-.083-.144-.07-.18.027-.066.25-.056 1.024-.056h1.023l.001-.27c-.05-.85-.402-1.534-1.33-1.573Zm6.867 2.274h-.783v.819h.783v-.82Zm-1.228-3.422H19.6v4.265h.844v-4.265Zm-9.932.007-.839-.012v4.27h.795v-1.614c.066 0 .13 0 .196.002.19.003.38.006.572-.02l.461.803c.243.446.455.814.47.82.029.014.547.003.755-.002l.069-.001-.513-.901a30.702 30.702 0 0 1-.516-.916c.172-.082.64-.327.712-.974.089-.79-.402-1.269-1.125-1.402a4.701 4.701 0 0 0-.832-.051c-.07 0-.139 0-.205-.002Zm-7.12 0-.947-.012v4.272l1.043-.007c.968-.01 1.053-.014 1.224-.06.361-.101.665-.309.81-.557.219-.37.21-.94-.017-1.27-.08-.115-.29-.31-.39-.363l-.068-.049c.135-.124.233-.25.297-.382.192-.398.056-.96-.263-1.26-.338-.318-.886-.315-1.421-.312h-.269Zm13.351 4.094c.114.084.244.144.383.176.404.094.894-.068 1.106-.366.04-.056.084-.104.096-.104.01 0 .02.104.02.229v.229h.773l-.015-2.325c-.216-.584-.628-.76-1.256-.757-.38 0-.55.046-.79.174-.279.149-.488.43-.53.71l-.014.102h.742l.015-.06a.574.574 0 0 1 .1-.157c.136-.15.391-.208.625-.142.22.06.323.212.325.472 0 .06.006.1-.01.125-.03.05-.143.05-.544.072-.499.03-.687.066-.908.176a.905.905 0 0 0-.19.127c-.422.362-.361.997.072 1.319Z" fill-rule="evenodd"/></svg>