<svg role="img" viewBox="0 0 24 24" xmlns="http://www.w3.org/2000/svg"><title>BeReal</title><path d="M6.501 10.409c.593 0 1.029.194 1.307.58.279.388.418.846.418 1.374v.308H5.674a.956.956 0 0 0 .343.589c.182.146.422.22.718.22.172 0 .327-.023.464-.066.138-.044.298-.107.48-.189l.297.724a1.74 1.74 0 0 1-.644.292c-.252.062-.46.092-.62.092-.656 0-1.172-.177-1.55-.53-.377-.355-.565-.83-.565-1.424 0-.595.17-1.072.51-1.431.342-.36.806-.539 1.394-.539Zm8.835 0c.593 0 1.028.194 1.307.58.278.388.417.846.417 1.374v.308h-2.552a.957.957 0 0 0 .344.589c.182.146.421.22.718.22.171 0 .326-.023.464-.066.138-.044.298-.107.48-.189l.297.724a1.74 1.74 0 0 1-.644.292c-.253.062-.46.092-.62.092-.656 0-1.173-.177-1.55-.53-.377-.355-.566-.83-.566-1.424 0-.595.17-1.072.512-1.431.34-.36.805-.539 1.393-.539Zm3.875.041c.974 0 1.603.496 1.603 1.244v2.547h-1.027v-.554h-.02c-.215.38-.616.613-1.111.613-.756 0-1.265-.468-1.265-1.123v-.007c0-.675.53-1.07 1.465-1.13l.931-.055v-.228c0-.33-.217-.534-.618-.534-.383 0-.615.177-.664.416l-.007.03h-.939l.004-.04c.056-.687.653-1.179 1.648-1.179ZM24 13.215v1.026h-1.04v-1.026H24ZM1.982 9.008c.515 0 .934.112 1.257.335.322.223.484.6.484 1.127 0 .195-.046.371-.137.527-.09.157-.21.292-.355.405.24.123.436.29.59.5.153.21.23.477.23.8 0 .482-.171.86-.512 1.131-.34.272-.795.408-1.362.408H0V9.008h1.982Zm8.702 0c.578 0 1.072.131 1.483.393.411.262.617.667.617 1.216 0 .323-.085.601-.254.835a1.71 1.71 0 0 1-.652.542l1.304 2.247h-1.077l-1.124-2a3.683 3.683 0 0 1-.367.015h-.585v1.985H9.022V9.008h1.662ZM22.448 9v5.241h-1.076V9h1.076Zm-2.66 3.616-.777.048c-.397.025-.605.19-.605.454v.007c0 .274.229.437.584.437.46 0 .797-.291.797-.68v-.266ZM2.17 11.948H1.007v1.47h1.092c.27 0 .488-.062.652-.185a.616.616 0 0 0 .246-.523c0-.247-.076-.435-.226-.566-.151-.13-.352-.196-.601-.196Zm4.308-.685a.756.756 0 0 0-.523.188c-.14.126-.232.31-.273.55h1.584c-.052-.25-.146-.436-.281-.557a.735.735 0 0 0-.507-.181Zm8.834 0a.755.755 0 0 0-.523.188c-.14.126-.231.31-.273.55h1.585c-.053-.25-.146-.436-.281-.557a.735.735 0 0 0-.508-.181Zm-4.659-1.424h-.624v1.601h.64c.301 0 .551-.06.749-.18.198-.121.296-.32.296-.597 0-.293-.093-.503-.28-.631-.188-.128-.448-.193-.781-.193Zm-8.819 0h-.827v1.3h.749c.281 0 .5-.052.66-.157.158-.105.238-.27.238-.496 0-.246-.073-.416-.219-.508-.146-.092-.346-.139-.601-.139Z"/></svg>