<svg role="img" viewBox="0 0 24 24" xmlns="http://www.w3.org/2000/svg"><title>Best Buy</title><path d="m17.2025 11.867-1.2817 2.063-1.2853-2.063h-1.9658l2.2682 3.8992V17.93h1.9622v-2.1638l2.2682-3.8992h-1.9658Zm-6.5778 0v3.6004c-.0288.9613-1.4294.9613-1.4582 0V11.867H7.2043v3.5104c-.0036 1.4905 1.2566 2.6822 2.7435 2.6174 1.4473 0 2.6174-1.17 2.6174-2.6174V11.867h-1.9405Zm4.4248-3.9172c-.3492-.2232-.8245-.4356-1.2205-.5364-.198-.0468-.4033-.1116-.54-.1909-.4357-.234-.0649-.6804.3276-.6372.396 0 .6372.1764.7632.306l1.1594-1.1017-.0216-.0252c-.9325-.9325-2.9451-1.0765-3.9208-.2052-.4429.3852-.6661.8389-.6661 1.3537-.0216 1.2781 1.0945 1.721 2.117 2.0198.2196.09.504.1476.5257.378 0 .1333-.054.2449-.162.3385-.4285.3564-1.235-.036-1.5518-.3636l-1.1593 1.098.0756.0757c1.026 1.0117 3.19 1.314 4.2808.3384.893-.7057.9217-2.225-.0072-2.8479Zm.5797-2.7939v1.4762h1.6021v4.5832h1.9478V6.6322h1.6022V5.1559h-5.1521Zm-5.0045 1.4762V5.1559H5.7282v6.0595h4.8893v-1.469H7.6868v-.9505h2.3906V7.4098H7.6868V6.632h2.9379Zm-4.7633 8.09.0936-.0324c.9037-.486 1.0585-1.6922.1764-2.351-.396-.3169-.9325-.4717-1.6166-.4717H1.5625v6.0594h3.1252c.8064 0 2.4698-.1512 2.4698-1.7317 0-1.2134-1.2673-1.4582-1.2961-1.4726Zm-2.3366-1.4365h.7164c.2629-.0073.4933.18.4897.4428.0036.2664-.2268.45-.4897.4464h-.7164v-.8892Zm1.3429 3.0819c-.1152.1044-.2556.1584-.4249.1584h-.918v-1.0873h.918c.5005-.0288.803.5796.4249.9289Zm-.5653-8.3529.0936-.0324c.9037-.4896 1.0585-1.6921.1765-2.351-.3925-.3168-.9325-.4753-1.613-.4753H0v6.063h3.1323c.8029 0 2.4663-.1512 2.4663-1.7353 0-1.2097-1.2674-1.4582-1.2962-1.469ZM1.9586 6.5781h.7237c.2664-.0072.4932.18.4896.4428.0036.2665-.2268.45-.4896.4429h-.7237V6.578Zm1.3501 3.0783c-.1116.108-.2556.1584-.4248.1584h-.9253V8.7275h.9253c.5004-.0288.8065.5797.4248.9289Zm16.2017 4.1764c.0468-.0072.0792-.036.0792-.0864 0-.0684-.0469-.1008-.1224-.1008h-.108v.3348h.0503V13.84h.0504l.0937.1404h.054l-.0972-.1476Zm-.1009-.0288v-.1152h.0612c.0433 0 .0684.0144.0684.0576 0 .0396-.0216.0576-.0684.0576h-.0612Zm.1009.0288c.0468-.0072.0792-.036.0792-.0864 0-.0684-.0469-.1008-.1224-.1008h-.108v.3348h.0503V13.84h.0504l.0937.1404h.054l-.0972-.1476Zm-.1009-.0288v-.1152h.0612c.0433 0 .0684.0144.0684.0576 0 .0396-.0216.0576-.0684.0576h-.0612Zm.18-.0576c0-.0684-.0468-.1008-.1223-.1008h-.108v.3348h.0503V13.84h.0504l.0937.1404h.054l-.0972-.1476c.0468-.0072.0792-.036.0792-.0864Zm-.18.0576v-.1152h.0612c.0433 0 .0684.0144.0684.0576 0 .0396-.0216.0576-.0684.0576h-.0612Zm.0577-.306c-.18 0-.324.144-.324.324 0 .1836.144.3205.324.3205.1836 0 .324-.1405.324-.324 0-.1765-.1404-.3205-.324-.3205Zm0 .6049c-.1548 0-.2809-.1153-.2809-.2809s.1188-.2844.2809-.2844c.162 0 .2808.1188.2808.2808 0 .1656-.1224.2844-.2808.2844ZM24 15.1829v3.838h-4.7957l-1.1953-1.1233v-1.5805l1.1953-1.1341H24Z"/></svg>