<svg role="img" viewBox="0 0 24 24" xmlns="http://www.w3.org/2000/svg"><title>BetterDiscord</title><path d="M17.181 6.889C17.056 1.986 13.494.007 8.903.007H0v9.909l5.693 5.522V4.933h3.311c3.536 0 3.536 4.786 0 4.786H6.817v4.572h2.187c3.536 0 3.536 4.784 0 4.784H0V24h8.903c4.59 0 8.151-1.979 8.278-6.883 0-2.256-.574-3.942-1.583-5.114 1.009-1.171 1.583-2.857 1.583-5.114M15.381 0h-.989q.515.277.966.615a7 7 0 0 1 2.12 2.571c.514 1.063.792 2.298.828 3.672v10.294c-.034 1.374-.313 2.609-.828 3.672a7 7 0 0 1-2.12 2.571 8 8 0 0 1-.935.598h.934c4.459.026 8.643-2.376 8.643-7.88V8.069C24.024 2.456 19.841 0 15.381 0"/></svg>