<svg role="img" viewBox="0 0 24 24" xmlns="http://www.w3.org/2000/svg"><title>Bevy Engine</title><path d="M18.8 6.29a3.15 3.14 0 0 0-.76.08l-.06.01c-.29.29-.61.58-.96.86a5.65 5.63 0 0 0 .57 1.53c.51.9.93 1.4 1.18 2.03.25.63.29 1.37.06 2.73a8.06 8.06 0 0 1-2.93 4.77 6.43 6.43 0 0 0 3.04-1.87c.77-.88 1.03-1.38 1.12-1.89.09-.5 0-1.05.04-2a5.39 5.37 0 0 1 .32-1.6l.04-.1.12-.02c1.05-.14 2-.4 2.49-.72-.16-.7-.83-1.26-1.72-1.67l-.08-.04-.02-.1a2.5 2.5 0 0 0-2.45-2Zm.61 1.49a.62.63 20.7 0 1 .19.02.62.63 20.7 0 1 .4.79.62.63 20.7 0 1-.79.4.62.63 20.7 0 1-.4-.77.62.63 20.7 0 1 .6-.44zm-5.7-4.6c-.75 0-1.54.3-2.21.95-.88.85-1.16 1.62-1 2.59l.04.26-.26-.04a13.2 13.2 0 0 0-7.08.94c.8.35 2.28.92 3.91 1.7l.52.25-.56.12c-2.16.43-4.73 1.7-7.07 4.45 1.05-.08 3.19-.33 5.42-.33 1.24 0 2.47.09 3.46.35 1 .25 1.9.84 2.04 1.28.12.43.05.66-.07 1-.13.33-.52.84-1.05 1.18-.54.34-1.22.64-1.92.9-1.41.5-2.91.82-3.58.88-.14.01-.2.06-.25.16a.97.97 0 0 0-.09.41c0 .22.03.33.1.42.05.08.15.12.25.13a21 21 0 0 0 9.54-1.66 8.02 8.02 0 0 0 4.6-5.66c.22-1.32.17-1.97-.04-2.52-.22-.56-.63-1.05-1.15-1.99a6.15 6.13 0 0 1-.65-1.74l-.02-.12.1-.07a7.58 7.58 0 0 0 2.03-2.22c-.59-.62-1.6-.75-2.73-.63h-.1l-.06-.06a2.97 2.97 0 0 0-2.11-.93Zm.35 1.43a.72.71 0 0 1 .7.55.71.71 0 0 1-.52.86.71.71 0 0 1-.85-.53.71.71 0 0 1 .67-.88Zm6.67 6.65a4.81 4.8 0 0 0-.24 1.3c-.04.9.06 1.46-.05 2.05-.1.59-.41 1.17-1.2 2.08a7.03 7.03 0 0 1-4.15 2.2 8.9 8.88 0 0 1-1 .55c1.33.5 2.73.53 3.83.17 1.96-.64 1.8-1.1 2.68-2.44.28-.42.6-.74.91-1 .92.4 1.81.65 2.37.58.3-.7 0-1.5-.52-2.26.42-1.3-.21-2.6-1.62-3.06a3.04 3.04 0 0 0-1-.17Zm1.06 1.9a.53.54 52.8 0 1 .41.19.53.54 52.8 0 1-.06.75.53.54 52.8 0 1-.75-.04.53.54 52.8 0 1 .05-.75.53.54 52.8 0 1 .35-.14zm-8.74 5.8.05.02.05-.02h-.1z" style="stroke-width:1.00139" class="UnoptimicedTransforms"/></svg>
