<svg role="img" viewBox="0 0 24 24" xmlns="http://www.w3.org/2000/svg"><title>Bevy</title><path d="M18.566 6.5a3.031 3.031 0 0 0-.735.078c-.017.004-.031.01-.048.012-.279.277-.591.554-.925.825.111.516.296 1.012.549 1.475.49.877.894 1.347 1.13 1.956.237.609.278 1.326.058 2.63-.272 1.619-1.257 3.334-2.819 4.599 1.212-.354 2.245-1.006 2.929-1.797.739-.853.986-1.336 1.072-1.822.087-.486.006-1.019.039-1.924a5.202 5.202 0 0 1 .305-1.541l.038-.108.113-.014c1.011-.131 1.925-.389 2.397-.694-.153-.681-.796-1.211-1.65-1.613l-.081-.039-.02-.086c-.271-1.162-1.179-1.912-2.352-1.937Zm.587 1.436a.565.565 0 0 1 .178.027.602.602 0 0 1 .381.755l-.001.001a.6.6 0 0 1-.747.394.6.6 0 0 1-.381-.755.603.603 0 0 1 .57-.422ZM13.183 3.5c-.733-.005-1.486.289-2.132.915-.849.825-1.113 1.567-.964 2.493l.041.255-.254-.042c-1.865-.302-4.174-.149-6.801.913.773.331 2.189.883 3.762 1.638l.499.241-.542.11c-2.077.42-4.541 1.636-6.792 4.29 1.007-.079 3.064-.321 5.211-.317 1.193.001 2.369.084 3.327.332.957.249 1.829.817 1.951 1.233.122.417.053.636-.068.962-.121.326-.492.82-1.006 1.147-.514.327-1.166.613-1.845.855-1.355.485-2.797.795-3.434.855-.135.013-.189.061-.241.155a.938.938 0 0 0-.086.4c-.006.207.027.316.086.398.058.083.15.116.245.123 4.002.269 6.994-.737 9.167-1.599 2.499-1.146 4.079-3.409 4.422-5.446.214-1.277.168-1.903-.039-2.435-.207-.533-.604-1.006-1.108-1.91a5.905 5.905 0 0 1-.617-1.682l-.023-.112.089-.071c.926-.742 1.68-1.552 1.954-2.143-.562-.597-1.532-.724-2.619-.607l-.089.01-.063-.065c-.579-.59-1.297-.892-2.031-.896Zm.325 1.379a.69.69 0 0 1 .676.531.685.685 0 0 1-.497.831.688.688 0 0 1-.842-.677c0-.368.296-.673.663-.685Zm7.353 6.621h-.006a4.644 4.644 0 0 0-.231 1.253c-.033.875.056 1.408-.045 1.975-.1.567-.398 1.125-1.157 2-.901 1.041-2.33 1.848-3.981 2.12a8.586 8.586 0 0 1-.972.536c1.284.484 2.628.511 3.693.16 1.877-.616 1.732-1.058 2.573-2.346.265-.406.57-.716.877-.971.876.382 1.737.627 2.274.566.289-.669-.006-1.445-.497-2.18.402-1.252-.209-2.505-1.564-2.948a2.907 2.907 0 0 0-.964-.165Zm1.017 1.84a.506.506 0 0 1 .393.171.519.519 0 0 1-.054.728v.001a.52.52 0 0 1-.729-.041h-.001a.52.52 0 0 1 .391-.859Z"/></svg>
