<svg role="img" viewBox="0 0 24 24" xmlns="http://www.w3.org/2000/svg"><title>Bioconductor</title><path d="M21.502 3.826a.88.88 0 1 0-1.75.192.88.88 0 0 0 1.75-.192M22.972.79a.47.47 0 1 0-.851-.395.47.47 0 0 0 .852.395M10.275 3.32a.957.957 0 0 1 .848-1.056.957.957 0 0 1 .208 1.903.957.957 0 0 1-1.056-.848m.21-1.442a.4.4 0 0 0-.44-.354.4.4 0 0 0 .087.795.4.4 0 0 0 .354-.441m9.316 3.829a.756.756 0 1 0-1.502.164.756.756 0 0 0 1.502-.164m-2.024.983a.655.655 0 1 0-1.188-.551.655.655 0 0 0 1.188.55m3.884-1.655a.353.353 0 0 1 .313-.389.353.353 0 1 1-.313.39M18.79 2.73a.353.353 0 1 1 .7-.077.353.353 0 0 1-.7.077m-1.353-.805a.504.504 0 0 1 .446-.555.504.504 0 0 1 .555.446.504.504 0 0 1-1.001.11m-1.405-.52a.654.654 0 0 1 .122-.917.654.654 0 0 1 .918.122.655.655 0 0 1-1.04.796M14.015.75a.677.677 0 1 1 1.346-.147.677.677 0 0 1-1.346.147m-1.057 1.463L13 2.2c.427-.163.653-.636.503-1.054a.8.8 0 0 0-1.008-.478l-.04.014c-.428.164-.655.636-.504 1.054a.796.796 0 0 0 1.007.48M8.76 4.98a.806.806 0 1 1 1.602-.175.806.806 0 0 1-1.602.175m-1.664.455a.584.584 0 0 1 .516-.644.584.584 0 0 1 .128 1.161.584.584 0 0 1-.644-.517m2.225-4.297a.605.605 0 1 0-1.202.132.605.605 0 0 0 1.202-.132m-1.672.25a.68.68 0 0 0-1.352.148.68.68 0 1 0 1.352-.147m14.723.571a.709.709 0 1 0-1.408.155.709.709 0 0 0 1.408-.155m-6.318 3.85a.503.503 0 0 0-.555-.445.504.504 0 1 0 .11 1.001.503.503 0 0 0 .445-.555m-1.478-.753a.403.403 0 1 0-.801.088.403.403 0 0 0 .8-.088M13.3 4.056a.3.3 0 0 0-.334-.268.302.302 0 1 0 .334.268m-8.585.416.693.553v15.852C5.373 22.565 3.487 24 2.05 24c-.432 0-.865-.019-1.21-.271-.554-.408-.64-1.087-.623-1.805.051-1.726 1.867-3.064 3.356-3.123.362-.016.725.008 1.147.244.083.046-.006-14.573-.006-14.573m1.48-1.865a.778.778 0 1 0-1.547.17.778.778 0 0 0 1.547-.17M22.78 5.465a.504.504 0 1 1 .555.446.504.504 0 0 1-.555-.446"/></svg>
