<svg xmlns="http://www.w3.org/2000/svg" xml:space="preserve" viewBox="0 0 24 24"><title>BioConductor</title><path d="M1.82 23.985a1.468 1.468 0 0 1-.876-.428 1.805 1.805 0 0 1-.344-.734c-.076-.348-.076-1.048.012-1.388.252-1.002 1.147-1.931 2.256-2.333a2.883 2.883 0 0 1 1.116-.198c.344 0 .421.011.67.099.152.053.286.088.298.076.007-.007.015-3.212.007-7.12-.007-6.863-.003-7.104.054-7.062l.348.267.287.23v7.823c0 8.482.007 8.08-.184 8.554a3.8 3.8 0 0 1-2.615 2.172 3.812 3.812 0 0 1-1.029.039zM16.718 7.187c-.314-.264-.256-.719.11-.856a.447.447 0 0 1 .498.088c.268.229.225.65-.08.806a.692.692 0 0 1-.26.05c-.13 0-.192-.019-.268-.088zm-1.943-.39a.719.719 0 0 1-.329-.36c-.198-.477.26-.994.77-.856.706.191.573 1.266-.154 1.262a.891.891 0 0 1-.287-.046ZM7.151 6.53a.948.948 0 0 1-.433-.39.788.788 0 0 1-.057-.359c0-.222.008-.268.1-.413a.857.857 0 0 1 .26-.26c.145-.092.19-.103.42-.103.222 0 .268.011.413.103a.803.803 0 0 1-.061 1.392 1.017 1.017 0 0 1-.642.027Zm10.894-.103c-.142-.118-.191-.294-.126-.451a.44.44 0 0 1 .37-.256c.146 0 .31.115.371.256a.394.394 0 0 1-.37.535.337.337 0 0 1-.245-.084Zm4.875-.141a.379.379 0 0 1-.16-.383.451.451 0 0 1 .107-.168c.114-.115.355-.115.481 0a.352.352 0 0 1-.076.562c-.13.069-.23.065-.352-.011zM12.733 5.73a.746.746 0 0 1-.122-1.292.711.711 0 0 1 .841 0 .746.746 0 0 1-.126 1.296.914.914 0 0 1-.593 0zm9.097.004a.497.497 0 0 1-.317-.344c-.034-.115-.03-.157.015-.283.153-.405.662-.459.903-.096a.543.543 0 0 1-.016.536.505.505 0 0 1-.585.19zM19.127 5.6c-.126-.065-.176-.222-.115-.363a.29.29 0 0 1 .497-.076c.096.114.107.19.035.328-.08.153-.257.203-.421.115zm-9.954-.065c-.329-.18-.436-.5-.271-.814a.574.574 0 0 1 .898-.138.574.574 0 0 1-.348.99c-.13.012-.206 0-.279-.038zm11.109-.394a.906.906 0 0 1-.46-.36.88.88 0 0 1 .077-1.031.818.818 0 0 1 .654-.299c.93 0 1.193 1.224.36 1.656a1.025 1.025 0 0 1-.631.038zm-9.254-.623a1.052 1.052 0 0 1-.52-.459.918.918 0 0 1-.077-.715.994.994 0 0 1 .628-.627.952.952 0 0 1 1.112.47c.107.21.119.654.023.842a1.205 1.205 0 0 1-.436.44 1.338 1.338 0 0 1-.734.05zm-5.85-.547a.424.424 0 0 1-.215-.42c.03-.176.214-.318.406-.318.126 0 .168.016.263.115.096.092.115.134.115.264 0 .126-.023.172-.11.268-.135.145-.291.175-.46.091Zm13.054-.32a.784.784 0 0 1-.432-1.11c.245-.497.902-.623 1.285-.248.183.18.233.294.233.558a.711.711 0 0 1-.226.573.853.853 0 0 1-.86.226ZM6.072 3a.623.623 0 0 1-.39-.784.742.742 0 0 1 .306-.329.692.692 0 0 1 .256-.046.58.58 0 0 1 .597.6.597.597 0 0 1-.769.559Zm3.197-.115a.757.757 0 0 1-.015-1.346.765.765 0 0 1 1.093.903.88.88 0 0 1-.405.462.814.814 0 0 1-.673-.023Zm12.133-.034a.436.436 0 0 1-.271-.379c-.031-.294.156-.5.45-.5.46 0 .636.596.253.844a.509.509 0 0 1-.432.039Zm-8.929-.256c-.114-.058-.21-.264-.183-.387.057-.252.39-.351.581-.175.306.275-.027.745-.398.562Zm4.107-.497a.673.673 0 0 1-.267-.91.623.623 0 0 1 .546-.333.642.642 0 0 1 .6.287c.089.122.1.168.1.367 0 .199-.011.244-.1.37a.673.673 0 0 1-.879.215ZM7.556 2.02a.688.688 0 0 1-.344-1.002.792.792 0 0 1 .573-.306c.287 0 .574.23.643.517a.673.673 0 0 1-.478.806.52.52 0 0 1-.39-.011Zm5.85-.302c-.237-.119-.34-.474-.202-.7.267-.428.929-.244.929.26a.497.497 0 0 1-.719.44Zm9.113-.302a.727.727 0 0 1-.635-.715c0-.253.23-.555.497-.643a.704.704 0 0 1 .88.486c.122.482-.268.94-.746.88Zm-7.59-.138a.769.769 0 0 1-.41-.332.734.734 0 0 1 .046-.673.642.642 0 0 1 .86-.18.727.727 0 0 1 .325.554.74.74 0 0 1-.31.547.715.715 0 0 1-.512.084z" style="fill:#000;stroke-width:1"/></svg>
