<svg role="img" viewBox="0 0 24 24" xmlns="http://www.w3.org/2000/svg"><title>Bioconductor</title><path d="M1.7772 23.9765c-.459-.061-.834-.315-1.028-.695-.167-.326-.198-.505-.199-1.125 0-.517.009-.608.078-.828.27-.8601.938-1.6051 1.843-2.0531.488-.242.84-.336 1.343-.358.459-.02.68.012.952.138l.172.08.023-.155c.013-.085.015-3.2982.005-7.1403l-.017-6.9843.22.172.327.257.108.085V13.31c0 7.7853-.001 7.9453-.065 8.1953-.266 1.039-1.325 2.0501-2.503 2.3901a3.49 3.49 0 0 1-1.26.08zM16.7472 7.21c-.31-.19-.32-.647-.015-.835a.495.495 0 0 1 .758.375c.04.389-.406.665-.743.46m-2-.432c-.6-.316-.373-1.213.302-1.205.209.002.353.066.474.21.266.315.172.82-.184.992a.702.702 0 0 1-.593.003zm-7.568-.24c-.175-.046-.453-.325-.507-.51a.801.801 0 0 1 .178-.7871c.16-.165.29-.225.533-.244.742-.06 1.13.862.572 1.363-.227.204-.47.26-.776.178m10.833-.138c-.097-.096-.113-.136-.113-.268 0-.2.092-.334.262-.385.272-.081.5.094.5.385 0 .132-.016.172-.113.268-.096.096-.135.112-.268.112s-.172-.016-.268-.112m4.94-.1c-.215-.093-.262-.4-.086-.557.285-.2541.7.035.553.385a.292.292 0 0 1-.167.17c-.14.059-.172.059-.3.003zm-10.175-.55a.822.822 0 0 1-.43-.4131c-.086-.224-.057-.535.066-.712a.697.697 0 0 1 .614-.313c.269 0 .468.102.616.315.088.127.097.165.097.41 0 .24-.01.286-.092.409a.667.667 0 0 1-.562.324 1.15 1.15 0 0 1-.308-.02zm9.048-.016c-.46-.164-.429-.8051.045-.9471.123-.037.158-.034.295.022.29.12.402.4.268.667-.12.243-.362.346-.608.258m-2.683-.123c-.107-.061-.147-.1341-.148-.2681a.287.287 0 0 1 .456-.236c.292.204 0 .68-.31.504zm-9.993-.1011c-.342-.173-.433-.597-.188-.876a.56.56 0 0 1 .876 0 .55.55 0 0 1 .033.69c-.086.129-.324.26-.471.26a.7.7 0 0 1-.25-.074m11.102-.388c-.219-.075-.462-.318-.524-.522-.225-.754.502-1.4 1.194-1.06a.83.83 0 0 1 .48.856.858.858 0 0 1-.6.742c-.214.064-.328.06-.55-.016m-9.221-.612a.933.933 0 0 1-.325-1.5851c.192-.173.346-.232.618-.235.51-.005.894.347.935.86a.848.848 0 0 1-.27.728.92.92 0 0 1-.958.232m-5.801-.516a.348.348 0 0 1-.255-.268.391.391 0 0 1 .39-.493c.124 0 .166.018.26.112.095.095.114.137.114.26 0 .176-.09.309-.253.377-.123.05-.124.05-.256.012m13.01-.346a.723.723 0 0 1-.452-.388c-.307-.6161.25-1.3081.93-1.1561.156.035.218.072.36.213.25.25.303.498.18.83a.863.863 0 0 1-.54.5.67.67 0 0 1-.478 0zm-12.182-.6541c-.234-.063-.42-.326-.42-.59 0-.113.107-.332.203-.42.218-.2.58-.193.804.016.453.424.02 1.158-.587.994m3.242-.09a.73.73 0 0 1-.447-.7c0-.53.479-.88.996-.723.31.092.51.377.51.724 0 .256-.083.44-.264.589a.788.788 0 0 1-.795.11m12.133-.037c-.373-.112-.433-.665-.09-.842a.558.558 0 0 1 .47.006c.132.077.242.31.218.458a.462.462 0 0 1-.288.359c-.148.059-.172.06-.31.02zm-8.99-.295c-.291-.178-.155-.632.19-.632.245 0 .41.25.317.476a.38.38 0 0 1-.326.22.44.44 0 0 1-.18-.064zm4.198-.435c-.16-.066-.332-.27-.385-.454-.046-.156-.046-.191 0-.352a.672.672 0 0 1 1.022-.365.67.67 0 0 1-.003 1.089.535.535 0 0 1-.345.107.92.92 0 0 1-.29-.025zm-8.965-.088c-.183-.034-.223-.052-.336-.15a.643.643 0 0 1-.158-.814c.119-.24.315-.354.6-.354.173 0 .225.014.347.1a.632.632 0 0 1 .292.564.526.526 0 0 1-.097.355c-.134.21-.417.342-.648.3zm5.717-.35c-.453-.24-.282-.92.232-.92s.687.687.23.92c-.183.095-.283.095-.462 0m8.897-.344c-.266-.14-.39-.34-.395-.627-.01-.7361.972-.9671 1.308-.3081.125.243.058.634-.139.814-.185.17-.567.23-.774.12zm-7.373-.083a.64.64 0 0 1-.464-.624c0-.4851.5-.7941.932-.5771.183.092.36.376.36.577 0 .255-.217.537-.473.613-.19.056-.195.056-.355.01z"/></svg>