<svg role="img" viewBox="0 0 24 24" xmlns="http://www.w3.org/2000/svg"><title>Bioconductor</title><path d="M7.185 6.54c-.175-.047-.453-.326-.508-.51a.8.8 0 0 1 .18-.788c.16-.165.29-.225.532-.244.742-.06 1.13.862.572 1.363-.227.204-.469.26-.776.178m15.775-.236c-.215-.094-.262-.4-.086-.558.285-.254.7.035.553.385a.3.3 0 0 1-.167.17c-.14.059-.172.06-.3.003m-1.127-.567c-.46-.164-.429-.805.045-.947.123-.037.158-.034.295.022.29.12.402.4.268.667-.12.244-.362.346-.608.258M9.155 5.512c-.342-.173-.433-.597-.189-.875a.56.56 0 0 1 .877 0 .55.55 0 0 1 .033.69c-.086.128-.324.26-.471.26a.7.7 0 0 1-.25-.075m11.104-.388c-.219-.075-.463-.318-.524-.522-.226-.754.502-1.4 1.194-1.06a.83.83 0 0 1 .48.856.86.86 0 0 1-.601.742c-.213.064-.327.06-.55-.016m-2.014-1.475a.72.72 0 0 1-.451-.388c-.307-.616.25-1.308.93-1.156.156.035.218.072.36.213.25.25.304.498.18.83a.86.86 0 0 1-.54.5.67.67 0 0 1-.479 0m-5.795-1.075c-.292-.178-.156-.632.19-.632.245 0 .41.25.316.476a.38.38 0 0 1-.326.22.44.44 0 0 1-.18-.064m4.197-.435c-.158-.066-.332-.27-.385-.454-.045-.157-.045-.192.001-.352a.672.672 0 0 1 1.022-.365.67.67 0 0 1-.004 1.088c-.11.08-.178.1-.344.108a1 1 0 0 1-.29-.025M13.399 1.7c-.454-.24-.283-.919.231-.919.515 0 .687.686.231.92-.183.094-.283.094-.462-.001m1.524-.428a.64.64 0 0 1-.464-.624c0-.484.5-.793.931-.576.183.091.361.376.361.576 0 .256-.217.537-.473.613-.19.057-.195.057-.355.011M1.783 23.978C1.144 23.89.72 23.463.59 22.776a4 4 0 0 1 .003-1.24c.209-1.018 1.087-1.971 2.217-2.406.711-.274 1.534-.295 2.01-.052l.125.064.023-.123c.013-.068.015-3.282.005-7.142l-.017-7.019.17.136.326.257.156.12.001 7.936c.002 8.93.027 8.105-.265 8.702-.44.899-1.373 1.648-2.379 1.91-.299.077-.85.105-1.182.059M16.754 7.211a.486.486 0 0 1 .266-.905c.176.002.284.062.403.222.097.13.092.4-.01.544a.504.504 0 0 1-.66.139m-1.997-.439a.625.625 0 0 1-.258-.888.63.63 0 0 1 .696-.296.63.63 0 0 1 .484.681.626.626 0 0 1-.922.503m3.262-.37c-.098-.098-.112-.134-.112-.28 0-.14.015-.18.1-.266.175-.175.409-.168.58.017.064.069.082.124.082.252 0 .143-.015.18-.113.277-.096.096-.135.113-.268.113s-.172-.017-.269-.113m-5.242-.661c-.424-.154-.604-.668-.373-1.07.37-.647 1.36-.376 1.36.371a.73.73 0 0 1-.987.7m6.325-.175c-.283-.239.053-.67.357-.458.173.121.156.4-.029.495-.135.07-.211.061-.328-.037m-8.066-1.056c-.445-.158-.715-.613-.622-1.047a.95.95 0 0 1 .533-.696c.187-.094.548-.104.74-.021a.95.95 0 0 1 .538 1.164.95.95 0 0 1-.583.596 1 1 0 0 1-.606.004m-5.781-.505c-.107-.02-.261-.187-.286-.309a.4.4 0 0 1 .025-.211.387.387 0 0 1 .75.151c0 .232-.243.414-.49.368m.815-1.009c-.235-.064-.426-.33-.424-.591 0-.046.028-.144.062-.22a.59.59 0 0 1 .92-.201c.217.19.267.447.14.711a.6.6 0 0 1-.698.301m3.276-.076c-.506-.18-.654-.873-.268-1.256a.78.78 0 0 1 1.044-.03c.318.268.331.84.025 1.125a.83.83 0 0 1-.8.161m12.095-.052c-.378-.114-.432-.666-.084-.846a.46.46 0 0 1 .269-.04c.35.034.527.416.331.714-.092.142-.343.225-.516.172M7.613 2.035c-.274-.059-.51-.354-.511-.643-.001-.203.142-.462.309-.56.471-.276 1.016.022 1.016.556 0 .437-.38.739-.814.647m14.684-.679c-.275-.145-.448-.464-.398-.735a.74.74 0 0 1 .586-.586.75.75 0 0 1 .58.19c.171.18.218.307.203.544a.65.65 0 0 1-.355.565c-.174.092-.463.102-.616.022"/></svg>
