<svg xmlns="http://www.w3.org/2000/svg" role="img" viewBox="0 0 24 24"><title>Bio Link</title><path d="M4 4.1v-2c0-.3-.1-.4-.4-.4H2.2v2.9h1.3c.3-.1.5-.2.5-.5zm0 4.6V6.6c0-.1 0-.2-.1-.3-.1-.1-.2-.1-.4-.1H2.2v2.9h1.3c.3 0 .5-.1.5-.4zM0 0h4.2c1.3 0 2 .6 2 1.9v1.9c0 .8-.2 1.4-.7 1.6.4.1.7.6.7 1.4v2.1c0 1.3-.7 1.9-2 1.9H0V0zm7.6 0h2.2v10.8H7.6V0zm5.6 0h2.1c1.3 0 2 .6 2 1.9v7c0 1.3-.7 1.9-2 1.9h-2.1c-1.3 0-2-.6-2-1.9v-7c0-1.3.7-1.9 2-1.9zm1.9 8.6V2.2c0-.3-.1-.4-.4-.4h-.8c-.3 0-.4.1-.4.4v6.4c0 .3.1.4.4.4h.8c.2 0 .4-.1.4-.4zm5 2.2c-.8 0-1.4-.7-1.4-1.5v-.1c0-.8.6-1.5 1.4-1.5.8 0 1.4.7 1.4 1.5v.1c0 .8-.6 1.5-1.4 1.5zM2.3 22.2h2.9V24H0V13.2h2.2v9zm3.6-9h2.2V24H5.9V13.2zm7.9 0h2.1V24h-2l-2.2-6.5V24H9.6V13.2h2l2.2 6.4v-6.4zm10.2 0-2 5.3 2 5.5h-2.4l-1.9-5.5 1.9-5.3H24zM17.3 24V13.2h2.2V24h-2.2z"/></svg>