<svg xmlns="http://www.w3.org/2000/svg" role="img" viewBox="0 0 24 24"><title>Bio Link</title><path d="M4 4.6V2.8c0-.3-.1-.4-.4-.4H2.2V5h1.3c.3 0 .5-.1.5-.4zm0 4.3V7c0-.1 0-.2-.1-.3-.1-.1-.2-.1-.4-.1H2.2v2.7h1.3c.3 0 .5-.1.5-.4zM0 .8h4.2c1.3 0 2 .6 2 1.7v1.8c0 .8-.2 1.3-.7 1.5.4.2.7.6.7 1.4v2c0 1.2-.7 1.8-2 1.8H0V.8zm7.6 0h2.2v10.1H7.6V.8zm5.6 0h2.1c1.3 0 2 .6 2 1.7v6.6c0 1.2-.7 1.8-2 1.8h-2.1c-1.3 0-2-.6-2-1.8V2.6c0-1.2.7-1.8 2-1.8zm1.9 8V2.9c0-.3-.1-.4-.4-.4h-.8c-.3 0-.4.1-.4.4v5.9c0 .3.1.4.4.4h.8c.2 0 .4-.1.4-.4zm5 2c-.8 0-1.4-.6-1.4-1.4 0-.8.6-1.4 1.4-1.4.8 0 1.4.6 1.4 1.4v.1c0 .7-.6 1.3-1.4 1.3zM2.3 21.5h2.9v1.7H0V13.1h2.2v8.4zm3.6-8.4h2.2v10.1H5.9V13.1zm7.9 0h2.1v10.1h-2l-2.2-6v6H9.6V13.1h2l2.2 6v-6zm10.2 0-2 5 2 5.1h-2.4l-1.9-5.1 1.9-5H24zm-6.7 10.1V13.1h2.2v10.1h-2.2z"/></svg>