<svg xmlns="http://www.w3.org/2000/svg" role="img" viewBox="0 0 24 24"><title>Bio Link</title><path d="M3.9 4.1V2.1c0-.3-.1-.4-.4-.4H2.2v2.8h1.3C3.7 4.5 3.9 4.4 3.9 4.1zM3.9 8.7V6.5c0-.1 0-.3-.1-.3 0-.1-.1-.1-.2-.1H2.2v3h1.3C3.7 9.1 3.9 9 3.9 8.7zM0 0h4.2c1.3 0 2.1.6 2.1 1.8v1.9c0 .8-.2 1.4-.7 1.5C5.9 5.5 6.2 6 6.2 6.8v2.1c0 1.3-.7 1.9-2.1 1.9H0V0zM7.5 0h2.3v10.8H7.5V0zM13.1 0h2.2c1.3 0 2.1.6 2.1 1.8v7.1c0 1.3-.7 1.9-2.1 1.9h-2.2c-1.3 0-2.1-.6-2.1-1.9V1.9C11.2.6 11.8 0 13.1 0zM15.1 8.6V2.2c0-.3-.1-.4-.4-.4H14c-.2 0-.5.1-.5.4v6.3c0 .3.1.4.5.4h.7C15 9 15.1 8.9 15.1 8.6zM20.1 10.7c-.7 0-1.3-.6-1.3-1.4V9.1c0-.8.6-1.4 1.3-1.4.7 0 1.3.6 1.3 1.4v.1C21.5 10 20.9 10.7 20.1 10.7zM2.2 22.1h2.9v1.8H0V13.2h2.3V24H5.9V13.2zM13.9 13.2h2.1V24h-2.1l-2.2-6.4V24H9.6V13.2h2.1l2.2 6.4V13.2zM24 13.2l-2.1 5.3 2.1 5.4h-2.4l-1.9-5.4 1.9-5.3H24zM17.4 23.9V13.2h2.3V24h-2.3V23.9z"/></svg>
