<svg role="img" viewBox="0 0 24 24" xmlns="http://www.w3.org/2000/svg"><title>Biome</title><path d="M21.735 13.907a6.408 6.408 0 0 0-1.064-1.606l-.68-.595c-.113-.099-.133-.198-.027-.291a5.26 5.26 0 0 0 1.362-1.765 6.075 6.075 0 0 0 .482-1.784 4.506 4.506 0 0 0 0-1.012c-.07-.762-.15-1.269-.238-1.52a7.111 7.111 0 0 0-.172-.595c-.727-1.87-2.399-3.126-3.483-3.767a9.077 9.077 0 0 0-1.024-.417A10.883 10.883 0 0 0 15.04.132 9.682 9.682 0 0 0 13.639 0H1.563v5.519h11.738c.388.001.773.045 1.151.132.502.106.932.318 1.169.807.089.244.139.5.146.76v.555a1.31 1.31 0 0 1-.37.701 2.249 2.249 0 0 1-1.402.495c-.898.067-1.804.014-2.71.027H1.563V24h5.519c.172 0 .198-.066.198-.225v-8.956c0-.482 0-.482.476-.482h5.942a3.798 3.798 0 0 1 1.89.409.047.047 0 0 0 .033 0l.192.179c.583.529.783 1.366.502 2.102-.13.336-.355.628-.647.839a3.223 3.223 0 0 1-1.706.542c-.753.013-1.507 0-2.26 0-.192 0-.245.066-.245.238v4.878c0 .463 0 .483.47.463a26.706 26.706 0 0 0 3.007-.086c1.04-.146 1.926-.322 2.657-.529a.638.638 0 0 0 .046-.02 8.014 8.014 0 0 0 2.274-1.183 4.303 4.303 0 0 0 1.071-1.057.35.35 0 0 0 .066-.067 5.826 5.826 0 0 0 1.071-2.148c.12-.456.213-.92.277-1.388a6.246 6.246 0 0 0-.661-3.595v-.007Z"/></svg>