<svg aria-labelledby="simpleicons-bitbucket-icon" role="img" viewBox="0 0 24 24" xmlns="http://www.w3.org/2000/svg"><title id="simpleicons-bitbucket-icon">Bitbucket icon</title><path d="M.778 1.211c-.424-.006-.772.334-.778.758 0 .045.002.09.01.134l3.263 19.811c.084.499.515.867 1.022.872H19.95c.382.004.708-.271.77-.646l3.27-20.03c.068-.418-.216-.813-.635-.881-.045-.008-.089-.011-.133-.01L.778 1.211zM14.52 15.528H9.522L8.17 8.464h7.561l-1.211 7.064z"/><path d="M22.944 8.464H15.73l-1.211 7.064H9.522l-5.899 7.007c.187.162.424.252.672.254h15.66c.38.005.708-.27.769-.646l2.22-13.679z"/></g></svg>