<svg role="img" viewBox="0 0 24 24" xmlns="http://www.w3.org/2000/svg"><title>Bitcoin Cash icon</title><path d="M12.176 11.059c-.253.065-1.016.265-1.201.312l-.568-2.203c.185-.047.95-.24 1.202-.305a1.63 1.63 0 0 1 1.105.086l.01.005.005.002.006.003.003.002.006.003.003.002.006.003.003.002.006.003.003.002.006.003.003.002.006.003.003.002.006.003.003.002.006.003.003.002.006.003.007.001.005.004.003.002.005.004.003.002.005.004.003.002.005.003.003.002.005.003.003.002.005.003.003.002.005.003.003.002.005.003.002.002.005.003.002.001.005.003.002.001.005.003.002.001.005.003.002.001.004.003.002.001.005.003.007.004.015.01a.936.936 0 0 1 .332.475l.001.003a.098.098 0 0 0 .005.016v.001l.003.005a.202.202 0 0 0 .007.023.1.1 0 0 1 .004.025l.003.005v.001l.004.016.001.003a.935.935 0 0 1-.062.576l-.007.016-.004.008-.003.005-.001.003-.002.005-.001.003-.003.005-.001.003-.003.005-.001.003-.003.005-.001.003-.003.005-.001.003-.003.005-.001.003-.003.005-.002.003-.003.005-.002.003-.003.005-.002.003-.003.005-.002.003-.004.005-.002.003-.004.005-.002.003-.004.005-.002.003-.004.005-.002.003-.004.005-.002.003-.004.005-.002.003-.004.005-.002.003-.004.005-.002.003-.005.006-.002.003-.005.006-.002.003-.005.006-.002.003-.005.006-.003.004-.006.009c-.191.279-.518.505-.919.608zM0 15.172v8.806h8.745A12.43 12.43 0 0 1 0 15.172zM8.745.022H0v8.806A12.43 12.43 0 0 1 8.745.022zm5.91 12.903l-.001-.002v-.001l-.004-.017v-.001l-.003-.005c.001-.012.001-.022-.004-.024l-.007-.025-.003-.005v-.001l-.005-.016-.002-.003a.963.963 0 0 0-.382-.511l-.017-.011-.007-.005-.005-.004-.003-.002-.005-.003-.003-.002-.005-.004-.003-.002-.005-.004-.003-.002-.005-.004-.003-.002-.005-.004-.003-.002-.005-.004-.003-.002-.006-.003-.003-.002-.006-.003-.003-.002-.006-.003-.003-.002-.006-.003-.003-.002-.006-.003-.003-.002-.006-.003-.003-.002-.006-.003-.003-.002-.006-.003-.003-.002-.006-.003-.003-.002-.008-.004-.003-.002-.008-.004-.003-.002-.008-.004-.003-.002-.008-.004-.004-.001-.008-.004-.004-.001-.008-.004-.004-.001-.009-.003-.006-.003-.012-.005c-.36-.154-.826-.188-1.3-.066-.299.077-1.206.305-1.425.362l.616 2.395c.22-.056 1.124-.293 1.423-.37.475-.122.865-.376 1.107-.685l.008-.01.004-.005.005-.007.003-.004.005-.007.003-.004.005-.007.003-.004.005-.007.003-.004.005-.007.003-.004.004-.007.003-.004.004-.007.002-.003.004-.007.002-.003.004-.007.002-.003.005-.006.002-.003.005-.006.002-.003.004-.005.002-.003.004-.005.002-.003.004-.005.002-.003.004-.005.002-.003.004-.005.002-.003.004-.005.002-.003.004-.005.002-.003.004-.005.002-.003.004-.005.002-.003.003-.005.002-.003.003-.005.002-.003.003-.006.005-.008.01-.018c.086-.194.117-.416.074-.63zm.6 11.053H24v-8.806a12.43 12.43 0 0 1-8.745 8.806zm0-23.956A12.43 12.43 0 0 1 24 8.828V.022h-8.745zM12 22.189C6.373 22.189 1.811 17.627 1.811 12S6.373 1.811 12 1.811 22.189 6.373 22.189 12 17.627 22.189 12 22.189zm4.815-9.615l-.001-.002v-.006l-.008-.033v-.004l-.001-.001v-.01l-.002-.003-.012-.048-.004-.045-.006-.011-.001-.002-.01-.033v-.006l-.001-.002c-.12-.4-.357-.755-.68-1.018v-.001l-.029-.023-.013-.01-.01-.007-.004-.003-.009-.006-.004-.003-.009-.006-.004-.003-.01-.007-.005-.003-.01-.007-.005-.003-.01-.007-.005-.003-.006-.009-.005-.004-.01-.007-.005-.004-.01-.007-.005-.004-.01-.007-.005-.004-.011-.008-.005-.004-.012-.007-.005-.004-.012-.007-.005-.004-.012-.007-.005-.004-.012-.007-.006-.003-.012-.007-.006-.003-.013-.007-.006-.003-.013-.008-.006-.003-.013-.008-.006-.003-.013-.008-.007-.004-.013-.008-.007-.004-.014-.007-.007-.004-.014-.007-.009-.005v-.001l-.021-.011a2.902 2.902 0 0 0-.93-.294 2.59 2.59 0 0 0 .249-.313l.012-.018h.001l.006-.009.007-.012.004-.005.007-.012.004-.005.007-.012.004-.005.007-.012.004-.005.007-.012.004-.005.006-.011.004-.005.006-.011.003-.005.006-.011.003-.005.006-.011.003-.005.005-.011.003-.005.005-.011.003-.005.005-.011.003-.005.006-.01.003-.005.006-.01.003-.005.005-.009.003-.005.005-.01.002-.005.005-.01.002-.005.005-.009.002-.005.005-.009.002-.005.004-.009.002-.005.004-.009.002-.005.004-.009.002-.005.005-.01.006-.014.013-.031h.001c.14-.344.172-.722.094-1.085V8.94l-.001-.002v-.004l-.001-.001v-.001l-.007-.03v-.005l-.004-.008a.389.389 0 0 0-.011-.043l-.012-.043-.005-.01-.001-.002-.009-.029-.001-.001v-.004l-.001-.001v-.001a1.847 1.847 0 0 0-.605-.906l-.018.001-.026-.02-.011-.009-.009-.007-.004-.003-.008-.006-.004-.003-.008-.006-.004-.003-.009-.006-.004-.003-.009-.006-.004-.005-.01-.006-.004-.003-.009-.006-.005-.003-.009-.006-.005-.003-.009-.006-.005-.003-.01-.006-.005-.003-.01-.006-.005-.003-.01-.006-.005-.003-.01-.006-.005-.003-.01-.007-.005-.003-.01-.007-.005-.003-.011-.006-.006-.005-.011-.006-.006-.004-.011-.006-.006-.004-.011-.006-.005-.004-.012-.007-.006-.003-.012-.007-.007-.005-.013-.007-.006-.003-.013-.007-.009-.004v-.001l-.019-.01c-.556-.289-1.263-.376-1.975-.194l-.185.048-.469-1.821-1.084.278.465 1.815-.867.223-.467-1.809-1.085.278L9 8.219l-2.237.575.298 1.157.901-.231a.556.556 0 0 1 .679.4v.001l1.251 4.867a.372.372 0 0 1-.268.453l-.79.203.046 1.375 2.234-.574.473 1.812 1.084-.279-.467-1.816.867-.223.467 1.816 1.084-.279-.468-1.823.451-.117c.802-.206 1.45-.676 1.842-1.262l.013-.02h.001l.006-.009.009-.014.004-.007.009-.014.004-.007.008-.013.004-.007.008-.013.003-.006.008-.013.003-.006.008-.013.003-.006.007-.013.003-.006.007-.013.003-.006.007-.012.003-.006.007-.012.003-.006.006-.011.003-.006.006-.011.003-.006.006-.011.003-.006.006-.011.003-.006.005-.011.003-.005.005-.011.003-.005.005-.011.003-.005.005-.011.003-.005.005-.011.003-.005.005-.011.003-.005.005-.01.003-.005.005-.01.002-.005.005-.012.007-.015.015-.034v-.001c.162-.389.199-.814.111-1.222z"/></svg>