<svg role="img" viewBox="0 0 24 24" xmlns="http://www.w3.org/2000/svg"><title>Bitcoin SV icon</title><path d="M14.6 14.4c-.3.7-.8 1-1.7 1h-2v-2.9H13c1.3.1 2 .9 1.6 1.9zm-2.1-3.2c1.2 0 2.1-1.1 1.4-2.1-.2-.3-.6-.6-1.3-.6h-1.7v2.7h1.6zM24 12c0 6.6-5.4 12-12 12S0 18.6 0 12 5.4 0 12 0s12 5.4 12 12zm-6.6 2.1c0-1.5-1.2-2.3-1.9-2.6.7-.5 1.2-1 1.2-2.1C16.6 7.8 15 7.1 14 7h-.3V5.4h-1.6V7H11V5.4H9.3V7h-2v1.4h.6c.6 0 .8.4.8.7v6c0 .2-.2.4-.4.4h-.6L7.3 17h2v1.6H11V17h1.1v1.6h1.6V17c1.9.1 3.6-1 3.7-2.9z"/></svg>