<svg viewBox="0 0 16 16" xmlns="http://www.w3.org/2000/svg" fill-rule="evenodd" clip-rule="evenodd" stroke-linejoin="round" stroke-miterlimit="1.414"><path d="M8.72 14.2c-.898.016-1.553-.273-1.593-1.057-.015-.295-.01-.608.004-.798.088-1.146.89-1.97 1.682-2.13.984-.197 1.64.254 1.64 1.542 0 .87-.242 2.417-1.732 2.443zM7.964 0C3.554 0 0 3.538 0 8.165c0 2.4 1.283 4.717 3.088 6.11.347.268.76.243 1 .013.198-.193.182-.66-.19-.987-1.443-1.267-2.44-3.188-2.44-5.106 0-3.446 3.06-6.345 6.506-6.345 4.194 0 6.437 3.406 6.437 6.293 0 1.764-.86 3.895-2.42 5.253.004-.006.325-.637.325-1.867 0-2.095-1.327-3.23-2.866-3.23-1.115 0-1.782.4-2.236.77 0-.852.028-2.444.028-2.444 0-1.052-.368-1.893-1.652-1.91-.742-.012-1.294.33-1.637 1.1-.124.288-.08.602.166.744.202.118.535.03.7-.19.11-.137.172-.167.268-.156.157.017.163.27.17.433.004.125.126 1.937.06 6.593 0 1.285 1.007 2.76 3.42 2.76 1.037 0 1.834-.29 2.993-.948C13.485 14.05 16 11.827 16 8.07 16 3.37 12.196 0 7.964 0" fill-rule="nonzero"/></svg>