<svg role="img" viewBox="0 0 24 24" xmlns="http://www.w3.org/2000/svg"><title>Bitrise icon</title><path d="M12.0104 17.8938c1.498 0 2.6969-1.199 2.6969-2.6969H9.3115c0 1.498 1.2 2.697 2.6979 2.697zM6.0136 11.999c-.9 0-1.599.7-1.599 1.599h3.298c0-.9-.8-1.599-1.699-1.599zm5.9948-7.8938c.6 0 1-.5 1-1 0-.5989-.5-.9979-1-.9979-.6 0-.999.5-.999.999 0 .6.4 1 1 1zM23.5 13.399c-.3-1.899-.7-3.797-.999-4.9959-.4-1.499-1.5989-2.598-3.1969-2.6979-1.5-.1-3.9968-.2-7.3947-.2-3.297 0-5.7948.1-7.3938.2-1.399.1-2.698 1.199-2.9969 2.698-.3 1.2989-.7 3.1968-1 4.9958-.2 1.299-.3 2.7979-.5 4.4958-.1.9.2 1.899.9 2.598.6.7 1.499 1.0999 2.398 1.1999 2.0989.1 5.2958.2 8.6927.2 3.3979 0 6.5948-.1 8.6937-.2.899 0 1.798-.5 2.398-1.2.6-.7.8989-1.598.8989-2.5979-.1-1.698-.3-3.1969-.5-4.4958zm-1.598 5.8948c-.3.4-.8.6-1.2999.6-2.098.1-5.1948.2-8.5927.2-3.397 0-6.4948-.1-8.5928-.2-.5 0-1-.2-1.299-.6-.3-.4-.4999-.8-.4999-1.299.1-1.598.2-3.0969.4-4.2959.3-1.7989.7-3.6968 1-4.8968.2-.799.899-1.398 1.6979-1.398 1.499-.2 3.9969-.3 7.2938-.3 3.2979 0 5.7958.1 7.2947.2.799 0 1.498.6 1.698 1.399.3 1.199.7 3.097 1 4.8959.2 1.199.3 2.6979.4 4.2958 0 .6-.2 1-.5 1.4zm-3.8968-7.2948c-.9 0-1.6.7-1.6 1.599h3.298c-.1-.9-.799-1.599-1.698-1.599z"/></svg>