<svg xmlns="http://www.w3.org/2000/svg" role="img" viewBox="0 0 24 24"><title>Bitrise icon</title><path d="M11.988 15.846c1.468 0 2.661-1.193 2.661-2.66l-5.334 0c0 1.456 1.192 2.66 2.673 2.66z"/><path d="M6.021 9.88c-0.907 0-1.647 0.74-1.647 1.647l3.294 0c0-0.907-0.728-1.647-1.647-1.647z"/><path d="M17.954 9.88c-0.907 0-1.646 0.74-1.646 1.647l3.293 0c0-0.907-0.728-1.647-1.647-1.647z"/><path d="M11.988 2.041c0.561 0 1.026-0.454 1.026-1.015 0-0.56-0.453-1.026-1.026-1.026-0.561 0-1.027 0.453-1.027 1.026 0 0.549 0.466 1.015 1.027 1.015z"/><path d="M23.515 11.3c-0.275-1.885-0.692-3.783-0.991-5.047-0.357-1.504-1.635-2.577-3.174-2.673-1.515-0.095-4.021-0.203-7.362-0.203-3.342 0-5.847 0.108-7.363 0.203-1.539 0.096-2.816 1.17-3.174 2.673-0.298 1.265-0.716 3.162-0.99 5.047-0.191 1.277-0.334 2.769-0.453 4.463-0.06 0.943 0.25 1.85 0.882 2.554 0.633 0.705 1.492 1.122 2.447 1.158 2.076 0.095 5.262 0.215 8.663 0.215 3.401 0 6.587-0.119 8.663-0.215 0.943-0.048 1.814-0.453 2.447-1.158 0.632-0.704 0.942-1.61 0.882-2.554-0.131-1.694-0.286-3.198-0.477-4.463zm-1.647 5.919c-0.334 0.37-0.787 0.585-1.288 0.609-2.065 0.096-5.215 0.215-8.592 0.215-3.377 0-6.527-0.119-8.592-0.215-0.501-0.023-0.954-0.239-1.289-0.609-0.334-0.37-0.501-0.847-0.465-1.348 0.108-1.647 0.25-3.103 0.442-4.332 0.262-1.826 0.668-3.675 0.966-4.904 0.191-0.8 0.86-1.361 1.683-1.42 1.492-0.096 3.961-0.203 7.267-0.203 3.293 0 5.775 0.107 7.267 0.203 0.811 0.048 1.492 0.62 1.683 1.42 0.286 1.229 0.692 3.078 0.966 4.904 0.179 1.229 0.322 2.685 0.442 4.332-0.001 0.5-0.168 0.978-0.49 1.348z"/></svg>
