<svg role="img" viewBox="0 0 24 24" xmlns="http://www.w3.org/2000/svg"><title>BitTorrent</title><path d="M12 0C5.433 0 .108 5.374.108 12S5.433 24 12 24c6.567 0 11.892-5.374 11.892-12S18.567 0 12 0zm9.459 17.506a.35.35 0 0 1-.257.148c-3.073.008-6.146.03-9.221-.002-1.589-.017-2.757-1.135-2.994-2.59a3.066 3.066 0 0 1 2.575-3.53c.695-.1 1.335.038 1.944.372.373.206.79.098.982-.252s.073-.742-.293-.962c-2.193-1.32-5.192-.356-6.229 2.001-.98 2.232-.14 4.711 1.996 5.856.59.315 1.222.485 1.898.485 2.763-.002 5.527 0 8.29 0h.246c-.2.226-.367.42-.543.605a1.95 1.95 0 0 1-1.486.645H11.97a5.463 5.463 0 0 1-3.443-1.185c-1.27-.989-2.015-2.304-2.19-3.91a5.725 5.725 0 0 1 3.39-5.89 5.752 5.752 0 0 1 2.653-.465c.245.012.49.06.732.106.426.079.792-.15.875-.555.076-.365-.161-.725-.563-.809a6.865 6.865 0 0 0-1.984-.124c-1.27.1-2.433.499-3.47 1.238-1.634 1.162-2.647 2.736-2.963 4.735-.607 3.852 1.924 7.457 5.712 8.143a7.73 7.73 0 0 0 1.287.12c1.684.015 3.368.005 5.054.005a9.152 9.152 0 0 1-3.215 1.121c-.657.096-1.325.178-1.984.16-2.278-.052-4.238-.9-5.839-2.546-1.198-1.233-1.964-2.71-2.238-4.41-.442-2.768.29-5.204 2.195-7.254a7.904 7.904 0 0 1 4.45-2.44c.483-.09.978-.128 1.47-.154.464-.026.78-.29.778-.706-.003-.408-.326-.715-.785-.703-1.063.024-2.11.173-3.106.547C5.737 6.451 3.7 8.585 2.69 11.71c-.376 1.161-.485 2.364-.388 3.57.058.711.253 1.412.386 2.118.007.04.033.079.03.12 0 .036-.018.088-.044.1-.027.012-.081-.01-.105-.036a.756.756 0 0 1-.1-.156c-.723-1.3-1.213-2.688-1.375-4.173-.337-3.08.421-5.859 2.343-8.283C5.131 2.85 7.331 1.54 9.983 1.02c1.09-.214 2.19-.24 3.299-.106 2.504.305 4.657 1.354 6.445 3.137 1.644 1.64 2.666 3.624 3.078 5.928.152.85.202 1.709.152 2.566-.105 1.771-.6 3.43-1.496 4.96h-.002z"/></svg>