<svg role="img" viewBox="0 0 24 24" xmlns="http://www.w3.org/2000/svg"><title>Blinq</title><path d="M12 20.2667c2.2091 0 4-1.7908 4-4h-.8c0 1.7673-1.4327 3.2-3.2 3.2s-3.2-1.4327-3.2-3.2v2.4004c.7298.9713 1.8915 1.5996 3.2 1.5996m0-8c2.2091 0 4 1.7908 4 4h-.8c0-1.7674-1.4327-3.2-3.2-3.2s-3.2 1.4326-3.2 3.2v-2.4004c.7298-.9714 1.8915-1.5996 3.2-1.5996m0-.8c2.2091 0 4-1.7909 4-4h-.8c0 1.7673-1.4327 3.2-3.2 3.2s-3.2-1.4327-3.2-3.2V9.867c.7298.9713 1.8915 1.5996 3.2 1.5996m0-8c2.2091 0 4 1.7909 4 4h-.8c0-1.7674-1.4327-3.2-3.2-3.2s-3.2 1.4326-3.2 3.2V5.0662c.7298-.9713 1.8915-1.5996 3.2-1.5996M8 0h.8v24H8Z"/></svg>