<svg role="img" viewBox="0 0 24 24" xmlns="http://www.w3.org/2000/svg"><title>Blockbench</title><path d="M23.65 3.5c-.25 0-1 .06-3.47.22l-9.11.61c-3.05.2-2.75.18-2.89.26-.16.1-.25.27-.3.57-.46 2.12-.82 3.64-1.11 4.88-.02.04-.05.17-.07.3-.04.2-.04.23.01.3.1.14.23.17 1.14.28l10.21 1.31 3.2.41c.93.12.95.12 1 .02l.2-.94 1.43-7.23c.13-.63.13-.7.07-.8a.5.5 0 0 0-.15-.15c-.04-.02 0-.04-.16-.04zM6 11.3a2.11 2.06 0 0 0-.35.03l-2.79.39c-1.37.19-2.55.36-2.62.39-.21.07-.3.27-.2.46.06.12.22.19.7.32l.2.05c4.53 1.24 9.33 2.61 13.58 3.8.23.06.56.18.77.18a175.29 175.29 0 0 0 6.13-2.98c.11-.1.17-.3.11-.39a1.34 1.34 0 0 0-.36-.08 1433.84 1433.84 0 0 0-4.08-.59 1248.36 1216.4 0 0 1-1.61-.22l-1.4-.2a1189.81 1159.35 0 0 1-3.29-.47 488.81 488.81 0 0 0-4.1-.6A3.4 3.4 0 0 0 6 11.3Zm-1.68 3.18a.06.06 0 0 0-.02 0c-.05.01-1.12 2.25-1.12 2.35 0 .1.08.23.17.28.1.05.17.05.31 0l1.36-.41c1.32-.39 1.34-.4 1.48-.54.11-.11.33-.54.39-.79a.81.79 0 0 1 .06-.15l.02-.06a168.19 163.88 0 0 1-2.3-.6l-.35-.08zm13.64 1.75a44.09 44.09 0 0 1-.57.3c-.48.28-.94.58-1.44.8-.42.26-.6.32-.8.25-.2-.06-.74-.2-.79-.2a.08.07 0 0 0-.07.05l-.19.52c-.2.5-.37 1-.55 1.48-.08.23-.23.75-.23.81 0 .06.14.2.25.23a.55.54 0 0 0 .23.03c1.26-.5 2.21-1.12 3.28-1.67.33-.17.45-.28.5-.48a62.53 62.53 0 0 0 .27-1.17c.18-.79.19-.86.14-.93 0-.02-.01-.02-.03-.02z"/></svg>