<svg role="img" viewBox="0 0 24 24" xmlns="http://www.w3.org/2000/svg"><title>Blueye Robotics icon</title><path d="M4.88.223c3.23 1.229 5.3 4.206 5.319 7.674.014 2.655-.005 5.31.008 7.965.006 1.093.586 1.815 1.493 1.933.803.104 1.486-.227 1.838-.891.35-.662.276-1.43-.193-1.978a1.989 1.989 0 00-2.162-.554c-.151.057-.295.134-.49.23a.069.069 0 01-.098-.061v-3.848c0-.663.016-1.328-.006-1.99-.013-.374.107-.522.495-.565 4.454-.5 8.445 2.843 8.853 7.432.379 4.254-3.077 8.148-7.468 8.415-4.477.272-8.31-3.066-8.41-7.556-.007-.27-.018-.85-.018-.85L4.034.067c0-.043.04-.075.081-.067.11.022.343.08.764.222"/></svg>
