<svg role="img" viewBox="0 0 24 24" xmlns="http://www.w3.org/2000/svg"><title>Blue Origin</title><path d="M23.98064 8.71829v-.19536l-.1112.03907.04808-.0541h-.01803l.04809-.06611a.6281.6281 0 0 1-.1112.03907.9406.9406 0 0 1 .12322-.08716h-.0601v-.01803l.04808-.03907a.03906.03906 0 0 0 0-.03607l-.02705-.21338v-.09618a.06312.06312 0 0 0-.03907-.04808l-.10218-.03306v-.02104h.10519a.01503.01503 0 0 0 0-.01803v-.09317a.4568.4568 0 0 0-.04508-.15027l-.0541-.1112v-.02104a.03306.03306 0 0 0-.03607-.01804h-.09316s-.01804 0-.01503-.01803a.01803.01803 0 0 0-.01803-.02404.26146.26146 0 0 1-.06913 0v-.02104a.92264.92264 0 0 0 .12623-.07814h-.02104c-.02104 0-.19235-.30054-.20136-.31858l-.1623-.15928h-.02104l-.09317-.09918a.06312.06312 0 0 0-.0571 0 .48383.48383 0 0 0-.12623.08415h-.01803a.57105.57105 0 0 0 .03606-.12923.07514.07514 0 0 0-.03005-.06913l-.08115-.0601-.2224-.12624a.07814.07814 0 0 0-.06311 0l-.20136.12022a1.27733 1.27733 0 0 0 .06311-.12923c-.06311.05109-.13224.1142-.1683.15027l.10218-.20136a.01503.01503 0 0 0 0-.02405h-.13524l-.10219-.07213h-.04508c-.08415 0-.12623.1683-.15628.24645a.12623.12623 0 0 1-.03307.0541 4.03352 4.03352 0 0 0-.30054.4418c0 .01502-.03606 0-.03005 0l.30054-.75136a.07514.07514 0 0 0-.04508-.10219h-.01503a.0601.0601 0 0 0-.05109 0 .06612.06612 0 0 1-.04809 0h-.04809a.02104.02104 0 0 0-.02404 0 4.99804 4.99804 0 0 0-.75737 1.65299h-.02103c.14726-.90163.31857-1.66802.35163-1.80326a4.62548 4.62548 0 0 0-.22841.75737 5.16637 5.16637 0 0 1 .03306-.78141.02705.02705 0 0 0-.02104-.02705.02104.02104 0 0 0-.03006 0l-.07212.18934a.7906.7906 0 0 0 0-.14426.1052.1052 0 0 0-.09918-.08716h-.03607a.03306.03306 0 0 0-.03907.02405c-.04809.20136-.14426.60108-.32158 1.2713.00056.0311-.04865.03109-.04809 0a4.60129 4.60129 0 0 0-.03907-1.34343.05109.05109 0 0 0-.03907-.04208h-.11721a.01803.01803 0 0 0-.01803 0c0 .15929-.04208.49289-.11721.97075h-.02104c.01803-.3306 0-.73032 0-.91966a.04508.04508 0 0 0-.03907-.02104l-.30054.07514a.10519.10519 0 0 0-.06011.04207 7.48059 7.48059 0 0 0-.4929 1.70709h-.02103a7.71784 7.71784 0 0 1 .36666-1.6079.01803.01803 0 0 0-.02104-.02405l-.13825.07814-.07213.04508a.30055.30055 0 0 0-.09917.11721 7.78682 7.78682 0 0 0-.3246 1.09398c0 .02705-.04808.01803-.04507 0a3.94912 3.94912 0 0 1 .25546-1.03687l-.26148.2194-.37868.34862a.45081.45081 0 0 0-.07814.11421l-.0601.13224h-.02706v-.07514c0-.0571.03006-.1142.04508-.1713v-.02706l.0511-.12622-.03907.02104a.50482.50482 0 0 0-.0481.09917V6.8459l-.0571.04509c.00059.03426-.03772.1464-.04808.1082a.49562.49562 0 0 1 0-.06312.67017.67017 0 0 0-.07814.09918c-.02104.06912-.03306.14426-.0541.21038a.64315.64315 0 0 0-.04508.1142c-.03907.1683-.09016.33661-.12623.50491l-.04508.18033a.02104.02104 0 0 1 0 .01803v.01804a.27362.27362 0 0 0-.03306.04808v.01804c-.00924.0193-.03871.01929-.04809 0l-.06311-.1052a.14726.14726 0 0 0-.08716-.06611.20437.20437 0 0 1-.14426-.01503h-.02104a.22842.22842 0 0 1-.03306.1142l-.0571.09317-.0571.1052v.03305-.05109l-.11721.36065c-.01503 0-.02405 0-.01804-.03306l.02705-.13825c.01396-.0192-.0168-.04072-.03005-.02104a.2795.2795 0 0 0-.09918.13525l-.01803.0541a.01503.01503 0 0 1-.02705 0s0-.02405-.02405 0a1.07004 1.07004 0 0 1-.03907.13524s-.03005.04809-.03306.0571l-.02705.09918-.01803.07814h-.01803V8.9407h-.01804a2.51237 2.51237 0 0 0-.18934.2825.01803.01803 0 0 1 0-.01802v-.01503l.09618-.41776a.99188.99188 0 0 0 .03907-.1142 4.08163 4.08163 0 0 1 .02705-.35765c.08715-.2825.09617-.3847.07213-.40273-.03006 0-.10219.07514-.15027.14126a2.94532 2.94532 0 0 1-1.15409 1.12403l-.02404.01803-.2705.1623a17.64188 17.64188 0 0 1-.95572.51693 1.3254 1.3254 0 0 0-.43879.3336c-.02104.02705-.06311.1142-.06612.11721-.07513.12924-.12322.26448-.19535.39372-.05746.13755-.11049.25409-.18333.40873a4.30977 4.30977 0 0 0-.24645.553 2.64781 2.64781 0 0 0-.13524.39371.7332.7332 0 0 1-.03006.07213c-.03167.13808-.14977.55839-.0601.18634.04508-.23743.09617-.46885.14726-.70327.02405-.09918.06913-.19235.09317-.30054a1.62588 1.62588 0 0 1 .08115-.23142l.03606-.09918c.0541-.09617.09618-.19836.15328-.30054a1.64398 1.64398 0 0 1 .13224-.18934 1.59279 1.59279 0 0 0 .0601-.18334.02104.02104 0 0 0-.03005-.01803.565.565 0 0 0-.10218.08415l-.10219.07815-.03306.02704a6.17626 6.17626 0 0 1-.57403.36366 1.89643 1.89643 0 0 0-.39372.28552l-.03606.03306a1.20215 1.20215 0 0 0-.19535.19535c-.09017.13224-.17732.27049-.25847.40874-.03306.0571-.0571.12022-.09016.18032l-.01804.0511a1.4636 1.4636 0 0 0-.06311.15928l-.02705.06312c-.03306.13224-.08415.25846-.1112.3907-.06311.28251-.11721.56803-.17432.85054-.03306.15027-.08715.30054-.12021.4448a.97073.97073 0 0 1-.09017.2164l-.09617.14726a3.04745 3.04745 0 0 1-.17431.30054 1.12968 1.12968 0 0 1-.07514.09317c-.02104.02104-.04809.03306-.06311.0541.02404-.09618.09316-.18333.1172-.2795a4.60102 4.60102 0 0 0 .1082-.4989c.03306-.23744.02705-.48388.03907-.73033a8.43022 8.43022 0 0 1 .12323-1.24725 1.8874 1.8874 0 0 1 .1653-.51693c.05429-.13294.1093-.24226.18633-.3817v-.07212a.0902.0902 0 0 1 0-.02405.02404.02404 0 0 0-.03306-.03005s-.02404.03005-.03606.03306h-.02404l-.1112.13524a.0751.0751 0 0 0 0 .02104v.02705c-.05067.00586-.23016.34643-.19536.25847V11.327c0-.02404 0-.01803-.01803 0a.20735.20735 0 0 1-.03907.03306c-.09593.06087-.13468.23315-.2164.2825l-.0631.15028v.01803-.01803l.03606-.1623s0-.01803-.01803 0a2.2811 2.2811 0 0 0-.52295.25847c-.01229.01463.0501-.04679.04809-.06611a.67923.67923 0 0 0-.10219.06912l-.22841.15328h-.02705c-.02705.02705-.05109.06311-.07814.09317a.13525.13525 0 0 1-.0571.04207.13826.13826 0 0 0-.0541.03907l-.2194.24043a3.43516 3.43516 0 0 0-.25546.30956 1.47279 1.47279 0 0 0-.07213.15629v.03907a.03306.03306 0 0 1-.02104.01803.02705.02705 0 0 1-.03306-.03006.63997.63997 0 0 1 0-.07513.81146.81146 0 0 1 .14427-.30054l.01803-.03006.03005-.0601h-.04808a.12322.12322 0 0 0-.0541.01502l-.07514.03907a.36367.36367 0 0 0-.09016.07514.97679.97679 0 0 0-.1082.1653c-.03526.0646-.06524.19233-.12021.2284a.94376.94376 0 0 0-.0541.09317c-.06895.06442-.09016.13335-.13525.22842a1.94454 1.94454 0 0 0-.19835.64015v.10219a1.03373 1.03373 0 0 0-.01503.13524v1.07895c-.07422.02695-.04509-.26102-.08415-.34863 0-.07213-.03607-.13224-.04809-.20737-.01803-.14426-.0511-.30055-.06912-.43279 0-.09016-.03607-.1713-.03907-.25846a9.25397 9.25397 0 0 1 .05109-1.0489 1.37038 1.37038 0 0 0 0-.19234v-.22541a.82348.82348 0 0 1 0-.1713.78753.78753 0 0 0-.04508.13523v.08416c-.04813.06541.00407-.05814-.03306-.02104l-.0541.09317a.04508.04508 0 0 1-.02705.03005.33662.33662 0 0 0-.04809.08415h-.02103l-.02705.04809v-.01503a.51691.51691 0 0 0 .03306-.08716c0-.05109.02705-.10218.03606-.15327a.538.538 0 0 1 0-.07213 2.01674 2.01674 0 0 0-.13224.25245.51988.51988 0 0 0-.04808.09017.98285.98285 0 0 1-.04508.15027c-.01804.03005-.0511.04808-.07213.07814l-.09317.15027a1.9475 1.9475 0 0 0-.2795.68824 1.9144 1.9144 0 0 0-.01503.26749.32156.32156 0 0 0 0 .09316s-.01503-.04207-.01804-.0601c0-.06312-.03606-.11421-.04508-.17432-.03005-.17431-.06912-.34863-.09617-.51393a.09016.09016 0 0 0-.03607-.0571.32158.32158 0 0 1-.02104-.1142v-.01503h-.01502a.46587.46587 0 0 0 0 .06311H7.1833a.01503.01503 0 0 0-.02404 0 .3817.3817 0 0 0-.03607.1082.27655.27655 0 0 0 0 .04808.09617.09617 0 0 1-.02104.06913h-.02404a.10822.10822 0 0 0 0 .03306c0-.03607-.02104-.06913-.03005-.1052.00042-.02332-.0365-.02332-.03607 0v.4358c0 .23442.01803.47185.02404.71228.017.2653.07984.5754.09918.8295a.75738.75738 0 0 0 .01804.14126.51094.51094 0 0 1-.0481-.15328l-.1172-.36065a.90166.90166 0 0 1-.07213-.19235c-.01558-.0716-.06035-.17578-.09017-.2254a1.26829 1.26829 0 0 1-.07814-.20137l-.04508-.1052c-.02404-.1172-.10519-.2254-.12923-.3366a.77843.77843 0 0 0-.09017-.19535l-.09918-.2164c-.01803-.02103-.02704-.0571-.04808-.08414l-.02405-.03006c-.01338-.01633-.04194-.0061-.04207.01503a.7995.7995 0 0 0 0 .12322.02104.02104 0 0 1 0 .01803.02404.02404 0 0 0 0 .01503v.23142c.00035.01944-.0304.01943-.03006 0a.2254.2254 0 0 1-.02103-.03607c.00035-.01944-.03041-.01943-.03006 0a1.3886 1.3886 0 0 0-.01803.19836.86557.86557 0 0 0-.03006.15328c.00672.1082.0218.2157.04509.32158l.02704.09617c.01804.1112.07514.23142.09918.34563l.04208.1082c.05901.21018.15559.43513.22841.63714a1.6051 1.6051 0 0 0 .08415.2164s0 .02103-.01502.01803c-.04508 0-.08115-.06011-.1112-.08716-.09317-.09317-.18333-.19836-.28251-.30054a2.17893 2.17893 0 0 0-.3336-.2735l-.12924-.0541h-.02404c-.00601 0-.07213-.0571-.1112-.08114l-.08115-.02405c-.12458-.11477-.20535-.09532-.35164-.13825H5.1937a.03306.03306 0 0 0-.03005.03907c-.0055.08824.13414.11395.14125.15328a.01503.01503 0 0 0 0 .02705c.1082.14126.24645.24344.36066.36967a1.3554 1.3554 0 0 1 .13224.1623l.0631.14425.07815.1112c.02175.05268-.02025.07279.03306.11721a.90136.90136 0 0 1-.15027.03607c-.08115 0-.15628.04508-.23442.0601-.14126.02105-.2765.07815-.41475.1022-.08416 0-.15027.04808-.23443.0631-.2795.0481-.56201.15328-.84152.20137-.03907 0-.06311.02104-.10218.03005-.31318.0701-.6441.15521-.95272.22541-.37568.06311-.75136.17732-1.12403.24344-.03306 0-.0511.02104-.08115.02705-.14426.02104-.30054.07213-.4388.09918l-.12922.03606c-.22842.03907-.46284.13825-.69726.18333-.09317.01503-.17732.0571-.26148.07514l-.1172.03907c-.15328.03306-.20738.1082-.18935.22841.03005.21038.23142.13825.36366.12323.24043-.02104.48688-.06612.73332-.10219.12022 0 .22841-.0541.34863-.07213.32158-.04809.64617-.14727.97376-.20136.12322-.01803.24344-.06312.36366-.08415l.09918-.03006c.13223-.02104.27048-.06912.39972-.09016l.15628-.04208c.18032-.03306.36366-.09918.54098-.12923l.18934-.0541c.19836-.03306.40573-.1142.60108-.14726l.2194-.06011c.28552-.0511.57704-.17432.86556-.2224a2.10385 2.10385 0 0 1 .42377-.10219.02404.02404 0 0 1 .02705.02404.04808.04808 0 0 0 0 .01804h.03606c-.0085.01628.07548.1389.03907.03306v-.0541h.01503a.64319.64319 0 0 0 .0511.1112.07213.07213 0 0 1 .01803.03306.42375.42375 0 0 0-.02104-.15328.07213.07213 0 0 1 .01803.03306l.03907.10219c-.00049.16064.10164.29949.08115.4478a.22541.22541 0 0 1 0 .09017h.03306a.02404.02404 0 0 1 0 .02404v.13825a.30054.30054 0 0 0 .03306-.06912.36666.36666 0 0 1 0 .14426.1172.1172 0 0 0 .03606-.07814c.0215.06394.0687-.15208.08415-.09918a.56502.56502 0 0 0 .06612-.24344.1232.1232 0 0 0 0-.03306.04508.04508 0 0 1 0-.03306.39966.39966 0 0 0 .01503-.0571c0-.02705.02104-.0571.02705-.08416a1.23222 1.23222 0 0 0-.0511-.47786l.0511.1142c.12752.2299.24189.39627.42376.63115.03306.04508.0541.09918.08716.14125l.03607.07514c.06912.09317.1142.2224.18633.31857l.04208.09017.12623.15027a.01803.01803 0 0 0 .03306 0s.03907.0541.0601.07513a.5649.5649 0 0 0 .09318.06312s.02704 0 .02103-.01804a1.45765 1.45765 0 0 1-.09918-.26147c0-.01803-.02103-.03606-.02404-.04508a.60111.60111 0 0 1-.04208-.12923c0-.08115-.09316-.14426-.10218-.20738a.64616.64616 0 0 0-.1142-.2825c-.01804-.02405-.02405-.06312-.03908-.08416a.30063.30063 0 0 0 .0571.03607l.07815.01803v-.02405a.96476.96476 0 0 1-.09016-.0631c-.04407-.04551-.13576-.10556-.13224-.1563l-.02104-.02704.03606.04508a1.8484 1.8484 0 0 0 .3336.23142c.03908.02404.16831.1082.20437.06011a.06913.06913 0 0 0 .08716 0 .27652.27652 0 0 0 .08115.02404.67952.67952 0 0 1 .0601.03907h.02105a.03607.03607 0 0 0 .03306-.06311c-.0541-.03606-.11722-.0601-.17131-.09617l-.02705-.02405a.02404.02404 0 0 1 0-.04207.01803.01803 0 0 1 .02103 0h.02405a.70028.70028 0 0 1 .13524.06612.8746.8746 0 0 0 .26448.09918 1.26222 1.26222 0 0 0 .3306-.0571l.0571-.02104a.43588.43588 0 0 1 .1082-.0541c.03005 0 .01803-.04508-.01804-.03907a.54697.54697 0 0 1-.35163-.1052l-.0571-.03305-.1112-.10219-.17733-.18934c-.0631-.07513-.12021-.1653-.18333-.24644a.54094.54094 0 0 1-.0571-.09618 2.56362 2.56362 0 0 0 .30054.32459l.04809.0541.18634.15928c.42977.30055 1.28632.14126 1.28632.14126s.53196-.1052.53196-.1112h.0541c.02714.00042.02713-.0425 0-.04208a.17725.17725 0 0 0-.04208-.01803 1.98566 1.98566 0 0 1-.18934-.06312.40874.40874 0 0 1-.08415-.03306 2.36529 2.36529 0 0 1-.64016-.42376c-.09016-.08115-.1683-.18033-.25246-.26749l-.03005-.03306h.01503l.2284.2134a2.07976 2.07976 0 0 0 .85956.52594c.0511 0 .18934.0601.28552.09317a.2795.2795 0 0 0 .14125 0c.04604-.003.09222-.003.13825 0h.07814v-.02104a.1683.1683 0 0 1 .0511-.02705 1.14808 1.14808 0 0 1 .24644-.01803h.06311v-.02405h.12924a.24949.24949 0 0 1 .06612 0h.19535v-.02404a.6309.6309 0 0 1-.1112 0h-.09617c-.08416 0-.1683-.03005-.24645-.04508a2.70484 2.70484 0 0 1-.42076-.12022l-.09617-.15327-.1683-.08416c-.0541-.03005-.19235-.12923-.30055-.19835l-.01202-.01804a.03005.03005 0 0 1 0-.02704.02104.02104 0 0 1 .03306 0c.04508.03305.08716.06611.13524.09617a2.20895 2.20895 0 0 0 .67021.30054c.1082.02404.2194.06612.3306.08415a1.26215 1.26215 0 0 0 .26147 0c.03005 0 .09016-.02104.12623-.02404a.1834.1834 0 0 0 .0541 0v-.02104a.48083.48083 0 0 0 .17431-.06612c.03006-.02104.08115-.07514.12623-.08415a.46884.46884 0 0 0 .1082-.03907h.04808l.08415-.03907v-.02104l-.07213-.02404h-.02404a.06011.06011 0 0 1-.03306 0 .73332.73332 0 0 1-.3306-.0481l-.07513-.08715h-.0511l-.19835-.1112c-.1082-.06612-.28853-.10468-.24945-.15929a.01803.01803 0 0 1 .02103 0 3.2398 3.2398 0 0 0 .73333.24645l.30054.06912s.23142.04509.4989.12022c.19535.0511.3817.13524.57103.20136a.55598.55598 0 0 0 .12022.03607h.06912v-.01503c-.02704-.02104-.0631-.02705-.09016-.04508l-.05109-.04208a.09013.09013 0 0 1-.02404-.02404s-.02705 0-.03607-.01803l-.01502-.02405a.02705.02705 0 0 0 0-.01502l-.0481-.03006a.01803.01803 0 0 1 .01804 0 .73333.73333 0 0 0 .07213.03006c.0541 0 .1112.03306.1683.04508h.01804a.7661.7661 0 0 0-.09918-.03306l-.0541-.02705-.17732-.06612a7.97336 7.97336 0 0 1-.87157-.43879 4.50808 4.50808 0 0 1-.65218-.53797l-.04508-.04208c-.03306-.03306 0-.08715.04809-.0601.21338.14726.42076.30054.63715.43278.08415.04808.18032.07213.26147.1172a5.27721 5.27721 0 0 0 .60108.20438.81428.81428 0 0 0 .12022 0h.07213l.13525-.07213.13825-.09017.03606-.03005a.03907.03907 0 0 0-.02705-.01503.51691.51691 0 0 0 .18033-.0541c.02225-.01047.00857-.04617-.01503-.03907a.53194.53194 0 0 1-.14426 0 .6222.6222 0 0 1-.1112-.02704l-.10219-.03306a2.31418 2.31418 0 0 1-.76338-.40574l-.13223-.10519h.01803l.1653.1052c.14125.08114.30054.15026.42677.23141.04508.02404.10218.03306.14726.0601l.03607.01804a1.08195 1.08195 0 0 0 .70627.03306 1.00982 1.00982 0 0 1 .24946-.1112 1.95321 1.95321 0 0 1 .20737-.04207h.34863a.0511.0511 0 0 1 0-.06913.21334.21334 0 0 0 .04208-.03005.03306.03306 0 0 1 .02404 0 .58319.58319 0 0 0 .06612-.02104c.16892-.0127.42668-.14864.58305-.18333a1.5568 1.5568 0 0 1 .19536-.0571l.04808-.02405.1082-.03306a.03607.03607 0 0 0 .02104-.0511.02404.02404 0 0 0-.02104-.01502h-.0511a.01803.01803 0 0 1 0-.01803l.12924-.03907c.03907 0 .08115-.0541.1112-.0541l.04508-.02104a.06011.06011 0 0 1-.03306 0l.06011-.03005.14426-.06011.18033-.09016.15327-.09317.2735-.19235.08114-.06311.30055-.24344.03005-.02104a.82349.82349 0 0 1 .2765-.08716c.02104 0 .03005-.01502.04208-.01803a.63416.63416 0 0 1 .0571-.12623h.07513l.07214.01503h.15327a.19535.19535 0 0 0 .08415-.02404l.03306-.02405.02104-.01803.06913-.06612.03306-.03607.01803-.02103a.1142.1142 0 0 1 .04508-.02705l.02705-.01503a.11421.11421 0 0 1 .12923.01503c.01804.01502.02705 0 .02405 0a.17732.17732 0 0 0-.15027-.08716h-.18333a.02404.02404 0 0 1-.02705-.02404.02404.02404 0 0 1 .02103-.02405h.03607l.09617-.01803a.60108.60108 0 0 0 .2795-.12623l.15629-.19234.12923-.1593a.0458.0458 0 1 1 .06011-.06912c.06311-.03907.11721-.12923.17131-.1713a.7515.7515 0 0 1 .09617-.04509.16833.16833 0 0 0 .04208-.02705h-.02104c.04208-.03606.09918-.06912.14426-.10218l.0511-.02404.03606-.02405a.9588.9588 0 0 1 .18634-.10218l.03907-.01503a.19834.19834 0 0 1 .0601-.01803.97377.97377 0 0 1 .26448 0l.13825.04508h.01803a.6281.6281 0 0 0 .1112.03907h.02705a.08714.08714 0 0 0 .03907 0h.04509c.03606-.02104-.03607-.0511-.06011-.0601l-.08115-.03006-.21038-.09618a.06311.06311 0 0 1 .03306-.09918l.1653-.03606a.04807.04807 0 0 0 .02405-.01803.02705.02705 0 0 0-.02705-.04208h-.01803c-.0294.00811-.05831-.0393-.01503-.0511l.06312-.01802h.02103a1.20214 1.20214 0 0 0 .31858-.13525l.24945-.19234.04508-.03006.04508-.03606 1.11502-.82049h.03606a.02404.02404 0 0 0 0-.02103s0-.02405-.02404-.01804h-.04809a.02704.02704 0 0 1 0-.02404l.0511-.03907.1743-.12022.18033-.09317.0511-.03306.08415-.0541.25546-.19234.10519-.09617.01803-.02104v-.01503h-.02405c.0543-.01677-.01737-.03555.02405-.0541h.0601l.0511-.02404h-.0481a.62213.62213 0 0 0 .18033-.09617v-.02405a.7724.7724 0 0 0 .13525-.14726l.03907-.12323v-.03005h-.08415c-.03006 0 0 0 0 0h.02704a.26147.26147 0 0 0 .1142-.07514s.06312-.08114 0-.07213h-.05108a.23443.23443 0 0 0 .07814-.0601.09019.09019 0 0 0-.03306 0 .57692.57692 0 0 0 .08716-.11421v-.01503s-.01804 0 0 0a.37274.37274 0 0 1 .03005-.0601.09013.09013 0 0 0 0-.02405.1052.1052 0 0 1 .04508-.0511h.03907a.19235.19235 0 0 0 .13525-.0571V8.8866a.18033.18033 0 0 0 .003-.1683z"/></svg>