<svg role="img" viewBox="0 0 24 24" xmlns="http://www.w3.org/2000/svg"><title>BMW icon</title><path d="M12.083 0c6.587.042 11.922 5.403 11.922 12S18.67 23.958 12.083 24h-.078c-6.623 0-12-5.377-12-12s5.377-12 12-12h.078zm-.078.72C5.779.72.725 5.774.725 12c0 6.226 5.054 11.28 11.28 11.28h.073c6.192-.039 11.207-5.079 11.207-11.28S18.27.759 12.078.72h-.073zM12.05 5a7 7 0 0 1 .045 13.999l-.09.001a7 7 0 1 1 0-14h.045zm-.045.718A6.285 6.285 0 0 0 5.723 12h6.282v6.282h.081A6.286 6.286 0 0 0 18.288 12h-6.283V5.718zM4.981 4.287a.762.762 0 0 1 .458.165c.276.22.351.597.201.901l.014-.014a.822.822 0 0 1 .591-.253h.01l.019.001a.827.827 0 0 1 .617 1.335L5.169 8.578 2.735 6.634l1.656-2.076a.732.732 0 0 1 .572-.271h.018zm14.272.153l-1.08 1.419 1.73-.791.235.294.271.337-1.15 1.516 1.621-.745.395.68-2.81 1.289-.398-.679 1.365-1.797-2.051.94-.576-.535 1.872-2.462.576.534zM5.955 5.762a.343.343 0 0 0-.265.13L4.682 7.155l.54.433 1.009-1.265a.345.345 0 0 0-.26-.561h-.016zM4.891 5.06a.345.345 0 0 0-.266.129l-.936 1.174.541.431.937-1.173a.345.345 0 0 0-.26-.561h-.016zm7.332-.428h-.708l-.671-2.078-.072 2.079-.807.116.113-3.117 1.041-.115.75 2.193.751-2.193 1.04.115.114 3.117-.808-.116-.071-2.079-.672 2.078z"/></svg>