<svg role="img" viewBox="0 0 24 24" xmlns="http://www.w3.org/2000/svg"><title>BMW icon</title><path d="M4.150265 4.165728L2.410673 6.343957l2.556468 2.039541 1.806222-2.262063c.297141-.371395.230488-.917525-.140317-1.213694-.355924-.284429-.868624-.239762-1.17122.092454.156776-.318898.07761-.714587-.211684-.94494-.333171-.266411-.833335-.22331-1.099877.110473m.246159.662878c.124646-.156717.353555-.182566.510355-.057197.156777.125357.182663.353366.057228.510071l-.982289 1.230946-.568373-.452886.983079-1.230934zm1.116361.736513c.125412-.156705.353555-.182553.510332-.057196.15759.125368.182663.353377.058017.510872L5.022023 7.344539l-.567582-.454453 1.058344-1.324967zm6.48682-2.289251L11.212492.975415l-1.09361.121447-.117588 3.26891.846662-.121447.075266-2.181362.704765 2.180573h.743213l.704765-2.180573.075266 2.181362.847451.121447-.118378-3.26891L12.78746.975415zm7.145914.205832l.605192.561014-1.134376 1.488726 1.817203-.830547.246159.307922.28458.354155-1.207273 1.59059 1.70117-.781193.415495.71302-2.950814 1.353171-.416261-.713021 1.432283-1.885192-2.152744.985685-.605215-.561791zM12.000012 0C5.372445 0 0 5.369567 0 11.993574 0 18.617592 5.372445 23.98716 12.000012 23.98716 18.628345 23.98716 24 18.617592 24 11.993574 24 5.369567 18.628345 0 12.000012 0M.36925 11.993574C.36925 5.573282 5.576281.368262 12.000013.368262S23.63154 5.573282 23.63154 11.993574s-5.207796 11.625322-11.631528 11.625322S.36925 18.413866.36925 11.993574m11.790983 6.906399l.1129-.277374.00079-6.353688 6.164224-.00079h.180317l.291639-.11517c-.07761 3.691237-3.056656 6.669454-6.74987 6.747022m.11369-7.153688h6.352389c-.067419-2.907701-1.984198-5.358594-4.620645-6.222055l-.167757-.168457c2.924139.799987 5.073748 3.473414 5.073748 6.64987l-.28458.000777h-6.494285l.14113-.260135zm-.261853.260135l-6.898033-.000777.003924-.260135h-.008614c.133259-3.59565 3.021368-6.489244 6.615007-6.636551v-.005488l.287715.007054v6.895897zm0 6.895121c-3.177379 0-5.853014-2.147671-6.654219-5.068691l.171682.170813c.865489 2.631115 3.314585 4.543722 6.219919 4.611895v-6.347436l.262618-.123013v6.756432zm-.011747-14.173388c-4.014638 0-7.269628 3.252459-7.269628 7.265738 0 4.012489 3.25499 7.264948 7.269628 7.264948 4.014613 0 7.269603-3.252459 7.269603-7.264948 0-4.013279-3.25499-7.265738-7.269603-7.265738"/></svg>