<svg xmlns="http://www.w3.org/2000/svg" width="24" height="24" fill="none"><path fill="#000" d="M0 18.917v-4.83h1.57a1.71 1.71 0 0 1 .77.146c.187.093.346.251.453.452.106.19.163.411.164.638 0 .206-.05.408-.145.583a1.1 1.1 0 0 1-.44.441c.231.069.436.222.585.438a1.3 1.3 0 0 1 .204.732c.001.218-.041.434-.124.63a1.21 1.21 0 0 1-.308.45 1.207 1.207 0 0 1-.459.24 2.43 2.43 0 0 1-.674.08H0Zm.554-2.8h.905c.177.008.354-.01.526-.056a.586.586 0 0 0 .318-.24.772.772 0 0 0 .107-.422.87.87 0 0 0-.1-.423.522.522 0 0 0-.283-.251 2.076 2.076 0 0 0-.636-.068H.554v1.46Zm0 2.23h1.042a2.08 2.08 0 0 0 .377-.022.83.83 0 0 0 .32-.135.675.675 0 0 0 .21-.27.948.948 0 0 0 .084-.405.894.894 0 0 0-.12-.472.647.647 0 0 0-.333-.28c-.2-.063-.405-.09-.612-.081H.554v1.666Zm3.416-1.782a2.888 2.888 0 0 1 .56-1.883c.185-.225.41-.402.658-.52.25-.117.517-.172.786-.16.367-.007.728.104 1.044.32.308.209.554.52.71.89.166.405.25.849.243 1.297.007.456-.081.906-.257 1.314a1.93 1.93 0 0 1-.727.878c-.311.198-.661.3-1.016.298a1.782 1.782 0 0 1-1.056-.329 2.045 2.045 0 0 1-.706-.9 3.08 3.08 0 0 1-.24-1.205Zm.57.01a2.13 2.13 0 0 0 .41 1.376c.13.163.287.293.463.38.176.086.366.128.558.123.192.005.384-.037.56-.125.177-.088.336-.218.465-.383.289-.403.433-.919.404-1.44a2.812 2.812 0 0 0-.17-1.03 1.494 1.494 0 0 0-.505-.682 1.237 1.237 0 0 0-.747-.243 1.252 1.252 0 0 0-.546.117c-.174.08-.332.199-.466.35-.158.213-.277.46-.35.728-.073.267-.099.55-.075.828v.001Zm4.339 2.342v-4.83h.553v4.26h2.061v.57H8.879Zm3.501 0v-4.83h3.026v.57h-2.472v1.48h2.315v.566h-2.315v1.644h2.57v.57H12.38Zm5.169 0v-4.26H16.17v-.57h3.317v.57h-1.384v4.26h-.554Zm2.448-2.352a2.888 2.888 0 0 1 .56-1.883c.186-.225.41-.402.66-.52.249-.117.517-.172.785-.16.367-.007.729.104 1.045.32.307.209.554.52.709.89.167.405.25.849.244 1.297.006.456-.081.906-.257 1.314-.16.373-.415.68-.73.878-.311.198-.66.301-1.016.299a1.782 1.782 0 0 1-1.056-.33 2.045 2.045 0 0 1-.704-.9 3.078 3.078 0 0 1-.24-1.205Zm.571.01c-.024.503.123.996.41 1.376.128.163.286.293.462.38.177.086.367.128.558.123.193.006.385-.036.563-.124.177-.087.336-.218.466-.384.289-.403.433-.918.404-1.44a2.81 2.81 0 0 0-.175-1.03 1.494 1.494 0 0 0-.506-.682 1.237 1.237 0 0 0-.746-.242 1.25 1.25 0 0 0-.546.116c-.174.08-.332.2-.466.35a2.19 2.19 0 0 0-.35.728 2.387 2.387 0 0 0-.074.828v.001Z"/><path fill="#010101" d="M0 5h.276v7H0V5Zm.553 0h.276v7H.553V5Zm1.659 0h.276v7h-.276V5ZM7.59 5h.276v7H7.59V5Zm1.798 0h.276v7h-.276V5Zm1.744 0h.276v7h-.276V5Zm.449 0h.276v7h-.276V5Zm.45 0h.276v7h-.276V5Zm.505 0h.277v7h-.277V5Zm.506 0h.277v7h-.277V5Zm1.406 0h.276v7h-.276V5Zm3.485 0h.276v7h-.276V5Zm3.635 0h.277v7h-.277V5Zm.995 0h.276v7h-.276V5Zm.718 0h.277v7h-.277V5Zm.443 0H24v7h-.276V5ZM4.036 5h.276v7h-.276V5ZM1.271 5h.498v7H1.27V5Zm3.284 0h.497v7h-.497V5ZM6.86 5h.498v7H6.86V5Zm1.18 0h.498v7H8.04V5Zm1.855 0h.498v7h-.498V5Zm5.289 0h.774v7h-.774V5Zm1.01 0h.61v7h-.61V5Zm1.067 0h.498v7h-.498V5Zm1.41 0h.83v7h-.83V5Zm1.625 0h.83v7h-.83V5ZM2.764 5h.995v7h-.995V5Zm2.58 0h.773v7h-.774V5Z"/></svg>