<svg role="img" viewBox="0 0 24 24" xmlns="http://www.w3.org/2000/svg"><title>Bolt</title><path d="M23.995 10.596V8.107h-1.247V6.205l-2.488.528v6.442c0 1.519.943 2.393 2.334 2.467.016 0 .032.005.042.005h.027c.032 0 .059.005.09.005h.033c.426 0 .841-.106 1.214-.309v-1.838a2.168 2.168 0 0 1-.554.074c-.495 0-.687-.437-.687-1.028v-1.956zM4.364 13.053h-1.87v-1.557h1.87c.432.011.767.368.757.8a.781.781 0 0 1-.757.756zm-1.87-5.6h1.385a.778.778 0 0 1 0 1.556H2.494zm4.161 2.493A3.265 3.265 0 0 0 5.59 5.449a3.306 3.306 0 0 0-1.716-.49H0V15.54h4.359a3.27 3.27 0 0 0 2.297-5.595zm5.542 6.602c.687 0 1.247.56 1.247 1.247s-.56 1.247-1.247 1.247-1.247-.56-1.247-1.247c0-.693.56-1.247 1.247-1.247m0-3.496c-.687 0-1.247-.56-1.247-1.246s.56-1.247 1.247-1.247 1.247.56 1.247 1.247-.56 1.246-1.247 1.246m0-5.088a3.843 3.843 0 0 0-3.842 3.842 3.843 3.843 0 1 0 3.842-3.842m7.087-3.006-2.489.528V15.54h2.489z"/></svg>