<svg role="img" viewBox="0 0 24 24" xmlns="http://www.w3.org/2000/svg"><title>Bombardier</title><path d="M0.86616,13.035l0.22645,0c0.15097,0 0.28778,-0.14 0.28778,-0.41c0,-0.255 -0.14153,-0.4 -0.28778,-0.4l-0.22645,0l0,0.81zm0,-1.395l0.19814,0c0.16512,0 0.25947,-0.16 0.25947,-0.335c0,-0.185 -0.08964,-0.345 -0.25947,-0.345l-0.19814,0l0,0.68zm-0.81617,-1.3l1.23133,0c0.585,0 0.85391,0.33 0.85391,0.83c0,0.35 -0.14625,0.67 -0.49064,0.745l0,0.01c0.41044,0.04 0.58028,0.415 0.58028,0.755c0,0.575 -0.26419,0.98 -0.94355,0.98l-1.23133,0l0,-3.32zM3.57414,13.135c0.25004,0 0.27835,-0.24 0.27835,-1.14c0,-0.895 -0.02831,-1.14 -0.27835,-1.14c-0.25004,0 -0.27363,0.24 -0.27363,1.14c0,0.9 0.02359,1.14 0.27363,1.14m0,-2.86c0.83504,0 1.1181,0.485 1.1181,1.725c0,1.24 -0.28306,1.725 -1.1181,1.725c-0.83032,-0.005 -1.1181,-0.485 -1.1181,-1.725c0,-1.24 0.28778,-1.725 1.1181,-1.725M4.99889,10.34l1.16528,0l0.33024,1.965l0.00944,0l0.32552,-1.965l1.16528,0l0,3.315l-0.75955,0l0,-2.47l-0.00944,0l-0.43403,2.47l-0.58972,0l-0.42931,-2.47l-0.00944,0l0,2.47l-0.76427,0l0,-3.315zM9.16936,13.035l0.22645,0c0.15097,0 0.28778,-0.14 0.28778,-0.41c0,-0.255 -0.14153,-0.4 -0.28778,-0.4l-0.22645,0l0,0.81zm0,-1.395l0.19814,0c0.16512,0 0.25947,-0.16 0.25947,-0.335c0,-0.185 -0.09435,-0.345 -0.25947,-0.345l-0.19814,0l0,0.68zm-0.81617,-1.3l1.23133,0c0.58028,0 0.85391,0.33 0.85391,0.83c0,0.35 -0.14625,0.67 -0.49064,0.745l0,0.01c0.41044,0.04 0.58028,0.415 0.58028,0.755c0,0.575 -0.26419,0.98 -0.94355,0.98l-1.23133,0l0,-3.32zM11.85375,11.02l-0.00944,0l-0.22645,1.405l0.45762,0l-0.22173,-1.405zm-0.51895,-0.68l1.02375,0l0.76427,3.315l-0.86806,0l-0.08492,-0.58l-0.64633,0l-0.08492,0.58l-0.86806,0l0.76427,-3.315zM14.16072,11.745l0.16512,0c0.23117,0 0.33968,-0.16 0.33968,-0.395c0,-0.27 -0.09907,-0.385 -0.34439,-0.385l-0.15568,0l0,0.78l-0.00472,0l-0.00001,0zm-0.81617,-1.405l1.2785,0c0.62274,0 0.85863,0.37 0.85863,0.885c0,0.44 -0.16512,0.73 -0.5331,0.79l0,0.01c0.39629,0.035 0.50951,0.3 0.50951,0.745l0,0.28c0,0.17 0,0.395 0.04246,0.46c0.02359,0.035 0.03774,0.075 0.08964,0.1l0,0.045l-0.86806,0c-0.0802,-0.175 -0.0802,-0.49 -0.0802,-0.63l0,-0.225c0,-0.375 -0.07077,-0.475 -0.26891,-0.475l-0.21702,0l0,1.33l-0.81617,0l0,-3.315l0.00472,0zM16.65168,13.035l0.1604,0c0.31609,0 0.35383,-0.14 0.35383,-1.035c0,-0.895 -0.03774,-1.035 -0.35383,-1.035l-0.1604,0l0,2.07zm-0.81617,-2.695l1.18415,0c0.94355,0 0.99072,0.79 0.99072,1.66c0,0.87 -0.04718,1.66 -0.99072,1.66l-1.18415,0l0,-3.32zM18.33591,10.34l0.81617,0l0,3.315l-0.81617,0l0,-3.315zM19.51534,10.34l1.85407,0l0,0.705l-1.0379,0l0,0.57l0.97185,0l0,0.675l-0.97185,0l0,0.66l1.07564,0l0,0.705l-1.89181,0l0,-3.315zM22.52053,11.745l0.1604,0c0.23117,0 0.34439,-0.16 0.34439,-0.395c0,-0.27 -0.09907,-0.385 -0.34439,-0.385l-0.15568,0l0,0.78l-0.00472,0zm-0.81145,-1.405l1.27379,0c0.62274,0 0.85863,0.37 0.85863,0.885c0,0.44 -0.1604,0.73 -0.5331,0.79l0,0.01c0.39629,0.035 0.51423,0.3 0.51423,0.745l0,0.28c0,0.17 0,0.395 0.03774,0.46c0.01887,0.035 0.04246,0.075 0.08964,0.1l0,0.045l-0.86806,0c-0.0802,-0.175 -0.0802,-0.49 -0.0802,-0.63l0,-0.225c0,-0.375 -0.07077,-0.475 -0.26891,-0.475l-0.2123,0l0,1.33l-0.81617,0l0,-3.315l0.00472,0z"/></svg>