<svg role="img" viewBox="0 0 24 24" xmlns="http://www.w3.org/2000/svg"><title>BookStack icon</title><path d="M24 6.46a.313.313 0 0 0-.156-.27L14.249.65a.312.312 0 0 0-.313 0L.504 8.405a.369.369 0 0 0-.116.117C-.206 9.57.18 11.115.32 11.59c-.618 1.099-.182 2.504-.007 2.968-.722 1.305.028 3.033.062 3.108.026.06.072.11.13.144l9.594 5.54a.312.312 0 0 0 .312 0l13.433-7.756a.313.313 0 0 0 .156-.27V6.46zm-13.901 8.026a.312.312 0 0 0 .312 0l12.964-7.484v2.232l-13.12 7.575L.922 11.42c-.103-.35-.39-1.469-.117-2.3l9.294 5.365zm.156 5.277L.909 14.368c-.123-.322-.495-1.434-.126-2.305l9.316 5.379a.312.312 0 0 0 .312 0l12.964-7.485v2.232l-13.12 7.574zm8.01-16.072-4.928 2.845-.22-.889a.313.313 0 0 0-.278-.237l-1.242-.102 4.734-2.733 1.934 1.116zm-4.173-2.409 1.614.932-5.288 3.053a.313.313 0 0 0 .13.582l2.016.166.266 1.075a.313.313 0 0 0 .46.196l5.6-3.234 4.172 2.408-12.807 7.394-8.97-5.178 12.807-7.394zm-3.837 21.436L.91 17.322c-.123-.32-.496-1.433-.127-2.305l9.316 5.379a.312.312 0 0 0 .312 0l12.964-7.485v2.232l-13.12 7.575z"/></svg>