<svg role="img" viewBox="0 0 24 24" xmlns="http://www.w3.org/2000/svg"><title>BookStack icon</title><path d="M10.16 20.901a.334.334 0 0 0 .165-.044L24 12.962v2.354l-13.84 7.991-9.859-5.692c-.13-.339-.523-1.512-.134-2.431l9.827 5.674a.35.35 0 0 0 .166.043zM24 9.845L10.325 17.74a.33.33 0 0 1-.33 0L.168 12.066c-.389.919.003 2.091.133 2.431l9.859 5.692L24 12.199V9.845zm0-3.117l-13.675 7.895a.33.33 0 0 1-.33 0L.191 8.963c-.288.877.015 2.058.124 2.426l9.845 5.684L24 9.082V6.728zm-10.821-1.43l.232.938 5.198-3.001-2.039-1.178-4.994 2.883 1.31.108a.331.331 0 0 1 .293.25zM.698 8.494l9.462 5.463 13.51-7.8-4.401-2.541-5.908 3.411a.332.332 0 0 1-.485-.206l-.28-1.134-2.126-.176a.33.33 0 0 1-.138-.615l5.578-3.221-1.702-.983L.698 8.494z"/></svg>