<svg role="img" viewBox="0 0 24 24" xmlns="http://www.w3.org/2000/svg"><title>Bountysource</title><path d="M16.099 19.234a.399.399 0 0 1-.204-.738 7.706 7.706 0 0 0 1.459-1.14c2.952-2.952 2.952-7.76 0-10.711a7.563 7.563 0 0 0-5.028-2.214.395.395 0 0 1-.377-.393v-.02a.396.396 0 0 1 .393-.377h.021c4.448.198 8.001 3.911 8.001 8.364a8.383 8.383 0 0 1-4.061 7.177.405.405 0 0 1-.204.052Zm-6.326.821a.4.4 0 0 1-.11-.015 8.449 8.449 0 0 1-3.579-2.119c-3.26-3.26-3.26-8.571 0-11.831a8.33 8.33 0 0 1 4.139-2.26.398.398 0 0 1 .48.387.397.397 0 0 1-.313.387A7.565 7.565 0 0 0 6.644 6.65c-2.957 2.951-2.957 7.754 0 10.711a7.608 7.608 0 0 0 3.239 1.92.406.406 0 0 1 .272.492.412.412 0 0 1-.382.282Zm2.213 2.141a10.234 10.234 0 0 1-9.397-6.306.397.397 0 1 1 .732-.303 9.413 9.413 0 0 0 8.68 5.798 9.402 9.402 0 0 0 4.359-1.073.397.397 0 0 1 .584.348.396.396 0 0 1-.217.353 10.115 10.115 0 0 1-4.741 1.183Zm5.808-1.916a.4.4 0 0 1-.398-.397.387.387 0 0 1 .163-.319 9.604 9.604 0 0 0 1.077-.927 9.28 9.28 0 0 0 1.779-2.48.393.393 0 0 1 .529-.178.397.397 0 0 1 .178.529 10.185 10.185 0 0 1-1.931 2.689 10.64 10.64 0 0 1-1.167 1.005.356.356 0 0 1-.23.078Zm3.464-4.719a.39.39 0 0 1-.372-.523c1.162-3.417.304-7.122-2.25-9.67-3.657-3.657-9.612-3.657-13.274 0a9.347 9.347 0 0 0-2.745 6.441.397.397 0 0 1-.398.387h-.01a.395.395 0 0 1-.388-.393v-.01a10.147 10.147 0 0 1 2.978-6.985c3.966-3.966 10.423-3.966 14.394 0a10.134 10.134 0 0 1 2.438 10.486.396.396 0 0 1-.371.267h-.002ZM6.215 2.338a.399.399 0 0 1-.199-.743A12.038 12.038 0 0 1 15.57.544c.166.051.28.206.28.379a.4.4 0 0 1-.515.379 11.248 11.248 0 0 0-8.927.984.346.346 0 0 1-.193.052Zm-4.38 4.466a.4.4 0 0 1-.351-.586 12.086 12.086 0 0 1 2.025-2.69c.402-.402.832-.774 1.288-1.114a.394.394 0 0 1 .554.089.392.392 0 0 1-.078.544c-.424.32-.826.668-1.204 1.041A11.33 11.33 0 0 0 2.175 6.6a.376.376 0 0 1-.34.204Zm10.182 17.191h-.022C5.415 23.995 0 18.581 0 12.001c0-1.511.285-3.008.841-4.412a.397.397 0 0 1 .738.287 11.213 11.213 0 0 0-.787 4.126c0 6.148 5.059 11.207 11.206 11.207.564 0 1.126-.043 1.683-.127a.397.397 0 0 1 .45.33.398.398 0 0 1-.329.45c-.591.092-1.187.137-1.785.136v-.003Zm3.747-.622a.407.407 0 0 1-.377-.267.393.393 0 0 1 .246-.502 11.272 11.272 0 0 0 5.128-3.621.394.394 0 1 1 .617.492 11.904 11.904 0 0 1-5.489 3.877.332.332 0 0 1-.125.021Zm7.521-8.273a.394.394 0 0 1-.387-.486A11.15 11.15 0 0 0 19.92 4.081a.393.393 0 0 1 0-.56.394.394 0 0 1 .56 0c2.972 2.972 4.16 7.184 3.187 11.276a.393.393 0 0 1-.382.303Zm-7.521-3.165a3.78 3.78 0 0 1-3.762 3.762 3.78 3.78 0 0 1-3.762-3.762 3.78 3.78 0 0 1 3.762-3.762c2.063 0 3.761 1.698 3.762 3.762Zm-3.815 5.991c-3.285-.001-5.988-2.706-5.988-5.991 0-3.287 2.704-5.991 5.991-5.991a5.997 5.997 0 0 1 5.324 3.244.426.426 0 0 1-.37.63.425.425 0 0 1-.384-.243 5.148 5.148 0 0 0-4.573-2.79c-2.822 0-5.144 2.322-5.144 5.144s2.322 5.144 5.144 5.144 5.144-2.322 5.144-5.144c0-.232.191-.423.424-.423.232 0 .423.191.423.423 0 3.288-2.703 5.993-5.991 5.997Z"/></svg>