<svg xmlns="http://www.w3.org/2000/svg" viewBox="0 0 16 16" fill-rule="evenodd" clip-rule="evenodd" stroke-linejoin="round" stroke-miterlimit="1.414"><path d="M6.203.967c-1.518 0-3.049.627-4.2 1.72a6.272 6.272 0 0 0-1.448 2.08A7.02 7.02 0 0 0 0 7.56C0 11.046 2.379 14.1 3.723 14.1c.587 0 1.092-.44 1.21-.833.1.27.405 1.11.505 1.324.148.316.833.59 1.132.261.385.214 1.092.343 1.477-.227.742.156 1.398-.286 1.412-.814.364-.02.543-.53.464-.937-.06-.3-.685-1.375-.93-1.746.484.393 1.708.504 1.857 0 .78.611 1.994.29 2.09-.207.947.246 2.033-.294 1.855-.949 1.52-.105 1.326-1.723.9-2.134-.824-.79-4.939-1.284-6.237-1.428.063-.148.116-.302.16-.46.177-.077.368-.15.566-.21.024.071.137.343.202.472 2.611.072 2.745-1.94 2.851-2.491.104-.54.099-1.06.994-2.012-1.334-.39-3.253.602-3.895 2.078a4.006 4.006 0 0 0-.723-.199C9.44 2.895 8.548.967 6.203.967zm0 .685c1.73 0 2.51 1.36 2.671 1.876-1.043 1.058-.631 2.395-.251 3-.54.898-1.603 1.513-2.837 1.793 1.386 0 2.2-.356 2.674-.706.303-.223.467-.443.55-.565 2.054.133 5.306.795 5.623 1.009a.7.7 0 0 1 .278.458c-1.543-.216-4.325-.443-5.053-.482.517.073 4.288.788 4.942.955-.199.324-.652.554-1.335.394.369.503-.348 1.107-1.346.774.22.494-.67.938-1.68.424.013.494-1.253.55-1.753.005.01.065.069.19.094.244a2.582 2.582 0 0 1-2.552 2.337c-2.963 0-5.543-2.406-5.543-5.607 0-3.384 2.5-5.91 5.518-5.91zm7.269.412c-.8.725-.5 2.172-1.173 3.03l-.2-.187a5.897 5.897 0 0 0-.64-.521c.327-.65.74-1.36 1.26-1.8-.573.231-1.138.921-1.472 1.658a5.133 5.133 0 0 0-.518-.29c.466-.994 1.55-1.825 2.743-1.89zm-7.287 1.68a.835.835 0 1 0 0 1.67.835.835 0 0 0 0-1.67zm0 .162a.486.302 0 0 1 .486.303.486.302 0 0 1-.486.302.486.302 0 0 1-.487-.302.486.302 0 0 1 .487-.303zm2.86.05c1.31.003 2.366.901 2.688 1.199a3.843 3.843 0 0 0-1.265-.257c-.505 0-.813.286-1.288.286-.1 0-.338 0-.529-.067.126.132.282.203.585.203.181 0 .54-.092.83-.18.004.061.01.122.019.182-.544.13-1.115.476-1.28.566-.367-.811-.051-1.578.24-1.932zm1.445 1.12c.148-.003.433.053.48.064-.018.088-.028.28-.028.304.028-.048.107-.216.139-.282.285.055.66.146.88.248-.259.167-.697.35-1.305.362-.088-.191-.177-.509-.166-.695z"/></svg>