<svg role="img" viewBox="0 0 24 24" xmlns="http://www.w3.org/2000/svg"><title>Brandfetch</title><path d="M4.335 10.323c0 .29-.102.54-.307.752-.204.208-.503.358-.894.45a.911.911 0 0 1 .48.286c.11.13.164.28.164.45 0 .269-.086.502-.256.7-.167.198-.412.351-.736.46-.324.106-.714.159-1.17.159a4.3 4.3 0 0 1-.41-.016.245.245 0 0 1-.122.215.573.573 0 0 1-.302.071c-.123 0-.208-.027-.255-.081-.045-.055-.063-.135-.057-.24.031-.478.09-.977.18-1.498.088-.525.2-1.031.337-1.519a.266.266 0 0 1 .143-.178.658.658 0 0 1 .28-.052c.209 0 .313.058.313.174 0 .048-.01.102-.031.164a8.998 8.998 0 0 0-.266 1.084 12.84 12.84 0 0 0-.189 1.298c.164.014.297.02.399.02.477 0 .826-.068 1.048-.204.225-.14.337-.317.337-.532a.465.465 0 0 0-.194-.378c-.126-.102-.34-.158-.64-.169-.067-.003-.115-.02-.142-.05-.028-.031-.041-.08-.041-.15 0-.098.02-.178.061-.24.041-.06.116-.093.225-.096.242-.007.46-.043.654-.108.198-.065.353-.155.466-.27a.585.585 0 0 0 .168-.415c0-.197-.097-.352-.291-.465-.194-.116-.493-.174-.895-.174-.364 0-.717.048-1.058.143-.34.092-.63.21-.869.353a.572.572 0 0 1-.276.097.176.176 0 0 1-.143-.061.28.28 0 0 1-.046-.164c0-.085.017-.158.051-.22.038-.06.124-.13.26-.21a3.804 3.804 0 0 1 1.008-.382 5.063 5.063 0 0 1 1.18-.138c.617 0 1.077.103 1.38.311.304.208.456.483.456.823zm.3 3.297c-.13 0-.222-.068-.277-.204-.05-.136-.076-.354-.076-.654 0-.443.063-.864.189-1.263.03-.099.08-.17.148-.215a.53.53 0 0 1 .297-.071c.068 0 .115.008.143.025.027.017.04.05.04.097 0 .055-.025.178-.076.369a7.754 7.754 0 0 0-.082.357c-.02.103-.037.229-.051.379.112-.293.239-.532.378-.716.14-.184.276-.315.41-.394a.762.762 0 0 1 .372-.117c.222 0 .333.11.333.332 0 .044-.016.152-.046.322-.028.136-.041.222-.041.256 0 .119.042.179.128.179.095 0 .218-.075.368-.225.044-.045.09-.067.138-.067.044 0 .078.02.102.062.027.037.04.088.04.153a.413.413 0 0 1-.102.296 1.418 1.418 0 0 1-.337.256.836.836 0 0 1-.404.102c-.18 0-.318-.046-.414-.138a.504.504 0 0 1-.138-.373c0-.051.005-.102.016-.153.007-.068.01-.114.01-.138 0-.055-.019-.082-.056-.082-.052 0-.12.058-.205.174a2.42 2.42 0 0 0-.245.45 3.67 3.67 0 0 0-.2.592c-.037.16-.081.27-.133.328-.047.054-.124.081-.23.081zm2.591 0a.622.622 0 0 1-.506-.23c-.126-.153-.189-.354-.189-.603 0-.272.063-.53.19-.772.126-.245.293-.441.5-.588.212-.15.435-.224.67-.224.075 0 .124.015.148.046.028.027.05.078.067.153a1.2 1.2 0 0 1 .225-.02c.167 0 .25.06.25.178 0 .072-.026.242-.077.512-.078.391-.117.664-.117.817 0 .052.012.092.036.123.027.03.06.046.102.046.065 0 .143-.04.235-.123.092-.085.216-.221.373-.408.041-.048.087-.072.138-.072.044 0 .079.02.102.061a.3.3 0 0 1 .041.169.47.47 0 0 1-.097.317c-.14.174-.288.32-.445.44-.156.119-.308.178-.454.178a.494.494 0 0 1-.312-.112.73.73 0 0 1-.21-.317c-.177.286-.4.43-.67.43zm.185-.516c.075 0 .146-.044.214-.133a.861.861 0 0 0 .148-.352l.19-.941a.623.623 0 0 0-.4.164c-.118.102-.214.238-.285.408-.072.17-.108.351-.108.542 0 .106.02.184.062.235a.225.225 0 0 0 .178.077zm1.95.516c-.129 0-.22-.068-.275-.204-.051-.136-.077-.354-.077-.654 0-.443.063-.864.19-1.263.03-.099.08-.17.147-.215a.53.53 0 0 1 .297-.071c.068 0 .116.008.143.025.027.017.041.05.041.097 0 .055-.026.178-.077.369a7.887 7.887 0 0 0-.082.357c-.02.103-.037.229-.05.379.112-.293.238-.532.378-.716.14-.184.276-.315.409-.394a.762.762 0 0 1 .373-.117c.221 0 .332.11.332.332 0 .133-.037.373-.112.72-.065.297-.098.493-.098.589 0 .136.05.204.149.204.068 0 .148-.04.24-.123.095-.085.221-.221.378-.408.041-.048.087-.072.138-.072.045 0 .079.02.102.061a.3.3 0 0 1 .041.169.47.47 0 0 1-.097.317c-.146.18-.305.329-.475.445a.98.98 0 0 1-.573.173c-.173 0-.305-.049-.393-.148-.089-.102-.133-.249-.133-.44 0-.095.024-.265.071-.51.045-.215.067-.364.067-.445 0-.055-.019-.082-.056-.082-.045 0-.108.058-.19.174a2.9 2.9 0 0 0-.245.45 3.67 3.67 0 0 0-.2.592c-.037.16-.08.27-.132.328-.048.054-.124.081-.23.081zm5.077-1.165c.045 0 .079.02.103.061a.3.3 0 0 1 .04.169.47.47 0 0 1-.097.317 2.54 2.54 0 0 1-.46.44.852.852 0 0 1-.496.178c-.259 0-.456-.151-.593-.455-.143.181-.269.302-.378.363a.73.73 0 0 1-.373.092.661.661 0 0 1-.516-.23c-.133-.156-.2-.36-.2-.608 0-.273.058-.525.174-.756.116-.236.274-.426.476-.573.204-.15.432-.239.685-.266.064-.66.187-1.225.368-1.692.184-.47.424-.705.72-.705.147 0 .268.066.363.2.1.132.149.333.149.602 0 .382-.094.828-.282 1.34a9.949 9.949 0 0 1-.751 1.574c.014.198.043.34.087.424.048.086.107.128.179.128.092 0 .185-.04.28-.123.096-.081.224-.218.384-.408.041-.048.087-.072.138-.072zm-.603-3.164c-.065 0-.13.116-.194.347a6.41 6.41 0 0 0-.169.9c-.044.371-.077.76-.097 1.166.382-.832.573-1.5.573-2.004 0-.13-.012-.23-.036-.302-.02-.071-.046-.107-.077-.107zm-1.472 3.813c.065 0 .13-.025.194-.077.065-.054.147-.153.246-.296a3.41 3.41 0 0 1-.052-.619c0-.081.003-.214.01-.398a.865.865 0 0 0-.47.378c-.122.19-.184.404-.184.639 0 .249.085.373.256.373zm3.842-.94c.096 0 .143.071.143.214 0 .27-.211.404-.634.404-.081 0-.199-.015-.352-.046.044.211.08.447.107.706.03.255.046.466.046.633 0 .368-.06.65-.179.844-.12.194-.276.291-.47.291-.245 0-.421-.174-.527-.521-.102-.348-.153-.873-.153-1.575 0-.654.07-1.317.21-1.988.143-.675.337-1.232.582-1.672.25-.443.522-.664.818-.664.16 0 .285.071.373.215.092.143.138.335.138.577 0 .801-.478 1.673-1.436 2.617a8.786 8.786 0 0 0-.051.88c0 .35.012.71.036 1.078.024.372.063.557.117.557.103 0 .154-.177.154-.531 0-.266-.02-.523-.057-.772a9.733 9.733 0 0 0-.143-.787.369.369 0 0 1 .041-.17.756.756 0 0 1 .123-.178c.048-.051.09-.077.128-.077.068 0 .15.004.245.01.03.004.066.006.107.006.137 0 .288-.012.455-.036l.087-.01a.834.834 0 0 1 .092-.005zm-.516-2.868c-.061 0-.138.104-.23.312a5.984 5.984 0 0 0-.266.828c-.089.34-.165.702-.23 1.083a3.75 3.75 0 0 0 .629-.966c.146-.337.221-.652.225-.945 0-.208-.043-.312-.128-.312zm2.554 3.159c.044 0 .078.02.102.061a.3.3 0 0 1 .04.169.47.47 0 0 1-.096.317 1.858 1.858 0 0 1-.537.424c-.228.13-.474.194-.736.194-.358 0-.636-.097-.833-.29-.198-.195-.297-.461-.297-.798 0-.236.05-.454.148-.655.1-.204.235-.366.41-.485.176-.12.376-.18.597-.18.198 0 .356.06.476.18.119.116.179.274.179.475a.83.83 0 0 1-.256.608c-.167.167-.452.3-.854.4.086.156.247.234.486.234.153 0 .327-.053.521-.158.198-.11.368-.25.512-.424.04-.048.086-.072.138-.072zm-1.289-.741c-.126 0-.233.073-.322.22a1.04 1.04 0 0 0-.127.531v.01c.2-.047.36-.119.475-.214.116-.096.174-.206.174-.333a.207.207 0 0 0-.056-.153.176.176 0 0 0-.144-.061zm3.295.741c.045 0 .079.02.103.061a.3.3 0 0 1 .04.169.47.47 0 0 1-.097.317c-.146.18-.306.329-.48.445a1.053 1.053 0 0 1-.598.173c-.695 0-1.043-.489-1.043-1.467 0-.15.005-.301.015-.455h-.2c-.101 0-.171-.018-.209-.056-.034-.037-.05-.097-.05-.179 0-.19.076-.286.23-.286h.29c.059-.375.147-.717.266-1.027.12-.31.263-.558.43-.742.17-.184.353-.276.547-.276.143 0 .255.063.337.19a.857.857 0 0 1 .123.475c0 .528-.222.988-.665 1.38h.573c.054 0 .094.012.117.036.024.024.036.068.036.133 0 .235-.192.352-.577.352h-.624c-.007.17-.01.304-.01.4 0 .354.04.602.122.745a.431.431 0 0 0 .4.215.61.61 0 0 0 .388-.133c.112-.088.245-.221.398-.398.041-.048.087-.072.138-.072zm-.894-2.832c-.051 0-.11.065-.174.194a2.881 2.881 0 0 0-.179.532 7.48 7.48 0 0 0-.138.751c.201-.173.351-.368.45-.582.102-.219.153-.416.153-.593 0-.201-.037-.302-.112-.302zm1.598 3.997c-.334 0-.595-.093-.783-.28-.184-.192-.276-.442-.276-.752 0-.276.055-.518.164-.726.109-.208.25-.368.424-.48a.991.991 0 0 1 .547-.17c.188 0 .332.057.435.17.105.109.158.25.158.424a.648.648 0 0 1-.097.363c-.061.099-.143.148-.245.148a.257.257 0 0 1-.159-.046.156.156 0 0 1-.056-.128c0-.024.003-.051.01-.082l.016-.066a.455.455 0 0 0 .025-.143c0-.045-.012-.079-.036-.102-.02-.024-.05-.036-.092-.036a.302.302 0 0 0-.22.107.721.721 0 0 0-.163.281c-.04.12-.061.25-.061.394 0 .395.172.593.516.593.14 0 .29-.046.45-.138a1.87 1.87 0 0 0 .48-.424c.041-.048.087-.072.138-.072.045 0 .079.02.103.061a.3.3 0 0 1 .04.169c0 .13-.032.235-.097.317-.16.198-.352.35-.577.46a1.492 1.492 0 0 1-.644.158zm2.715-2.407c.109 0 .19.029.245.087.058.054.087.136.087.245 0 .089-.019.256-.056.501-.034.208-.061.406-.082.593-.02.184-.03.39-.03.618 0 .13-.028.224-.082.282-.052.054-.137.081-.256.081-.113 0-.194-.029-.245-.086-.052-.058-.077-.145-.077-.261 0-.136.024-.361.071-.675a4.81 4.81 0 0 0 .062-.521c0-.055-.019-.082-.056-.082-.045 0-.108.058-.19.174a2.421 2.421 0 0 0-.245.45 3.67 3.67 0 0 0-.2.592c-.037.16-.081.27-.132.328-.048.054-.125.081-.23.081-.106 0-.184-.037-.235-.112a.89.89 0 0 1-.097-.358 8.99 8.99 0 0 1 .133-2.346c.108-.57.267-1.046.475-1.431.211-.389.463-.583.756-.583.157 0 .283.068.379.204.098.133.148.307.148.522 0 .344-.1.702-.302 1.073-.2.368-.528.8-.981 1.293-.01.178-.016.36-.016.547a2.94 2.94 0 0 1 .374-.705c.14-.184.276-.315.409-.394a.762.762 0 0 1 .373-.117zm-.491-1.917c-.061 0-.13.088-.204.266a4.49 4.49 0 0 0-.22.71c-.068.297-.125.62-.169.971.211-.248.385-.52.521-.812.14-.293.21-.56.21-.798a.683.683 0 0 0-.036-.25c-.024-.058-.058-.087-.102-.087z"/></svg>