<svg role="img" viewBox="0 0 24 24" xmlns="http://www.w3.org/2000/svg"><title>Bruno</title><path d="M12.2905 1.5549a9.2 9.2 0 0 0-1.4975.0537c-1.824.2148-3.157.9038-3.8202 1.341-.0974.0013-.2396-.0087-.5767.0803-.4304.1136-1.0211.3508-1.6948.8333-1.3473.9652-3.0201 2.9039-4.4907 6.7791-.4788 1.2617-.0764 2.6902.559 3.9855.6354 1.2952 1.5305 2.4828 2.2 3.2772.568.6737 1.6768.525 2.0534-.2695l.202-.4275c.3676.6626 1.3232 2.236 3.1121 2.8225a.4107.4107 0 0 0 .5181-.2623.4107.4107 0 0 0-.2622-.5181c-1.6781-.5502-2.9385-2.8828-2.9549-2.9131l.2006-.4235v-.0008a1.228 1.228 0 0 0 .0778-.8414c-.2495-.935-.9254-4.1358-.0706-6.0396a.4107.4107 0 0 0-.2061-.543.4107.4107 0 0 0-.543.2062c-1.048 2.334-.2394 5.5921.0264 6.5881a.397.397 0 0 1-.0264.2784l-.8165 1.722c-.1352.2852-.4804.3321-.6826.0922-.6412-.7607-1.5032-1.9112-2.091-3.1096S.6324 11.8474.979 10.9343C2.4086 7.167 3.9936 5.38 5.1794 4.5306c.5928-.4248 1.0879-.6174 1.426-.7067.3382-.0892.4837-.0762.4837-.0762a.41.41 0 0 0 .2526-.0705c.5307-.3607 1.829-1.0506 3.5468-1.2529s3.8596.0637 6.1839 1.6146a.41.41 0 0 0 .308.061s.1368-.033.4556.0128.783.176 1.3378.5342c1.1095.7164 2.5964 2.3644 3.8716 6.1374.313.926.015 2.152-.567 3.3462-.5822 1.1942-1.4237 2.336-2.051 3.0952-.2005.2427-.5484.1974-.6841-.089l-.811-1.7109a.397.397 0 0 1-.0264-.2783c.2659-.996 1.0744-4.2542.0265-6.5882a.4107.4107 0 0 0-.543-.2061.4107.4107 0 0 0-.2061.5422c.8547 1.9038.178 5.1055-.0714 6.0404a1.228 1.228 0 0 0 .0778.8413l.2382.5021c-.0576.121-.2683.583-.7435 1.2376-.5334.7348-1.2977 1.5162-2.1263 1.7878a.4107.4107 0 0 0-.2623.5181.4107.4107 0 0 0 .5182.2623c1.1124-.3647 1.9513-1.2809 2.5353-2.0854.318-.438.3433-.5465.4989-.8333l.1524.3216c.3784.7986 1.4962.9444 2.0605.2615.6543-.792 1.5282-1.9719 2.156-3.2596.6276-1.2877 1.034-2.7033.6063-3.9686-1.314-3.8879-2.8941-5.718-4.2044-6.5641-.6552-.423-1.239-.5956-1.666-.657-.311-.0446-.423-.0166-.5341-.004-1.8234-1.189-3.5826-1.671-5.1284-1.7412m-1.4157 10.4493a.824.824 0 0 0-.7691.5326l-.4476 1.1927a.4107.4107 0 0 0 .2278.5237l.9504.3914c.4754.1957 1.0292-.1077 1.1205-.6136a.4107.4107 0 0 0-.3312-.4772.4107.4107 0 0 0-.4765.3313l-.5823-.2399.308-.8197h2.5233l.328.7708-.5606.2944a.4107.4107 0 0 0-.4604-.353.4107.4107 0 0 0-.3537.4604c.0733.5534.7027.8798 1.1967.62l.8951-.4708a.4107.4107 0 0 0 .187-.5237l-.4757-1.1189a.825.825 0 0 0-.7564-.5005Zm-3.0197 2.399a.4107.4107 0 0 0-.4612.3537c-.1122.8505.163 1.5689.5742 2.0974s.9462.8872 1.3997 1.1285c.0018.001.0038.0007.0056.0016-.0137.2005-.0674.8119.04 1.6916.062.5063.1711 1.037.3875 1.5038.2163.4668.5636.8937 1.0908 1.0556.5906.1813 1.164.2423 1.6578.2117s.9093-.1298 1.2192-.3954c.3315-.2842.5654-.7658.7635-1.5071.177-.662.247-1.5313.142-2.5097.0827-.0296.1737-.01.2527-.052.4534-.2414.9884-.6 1.3996-1.1286.4112-.5285.6864-1.247.5742-2.0974a.4107.4107 0 0 0-.4612-.3537.4107.4107 0 0 0-.3537.4612c.083.6288-.1006 1.091-.4074 1.4854s-.7488.7012-1.1373.908c-.351.1867-.77.1518-1.0804-.0915l-.9031-.7074v-1.0451a.4107.4107 0 0 0-.4107-.4107.4107.4107 0 0 0-.4106.4107v1.045l-.9024.7075c-.3103.2433-.7293.2782-1.0804.0914-.3885-.2067-.8304-.5135-1.1373-.9079s-.4912-.8566-.4082-1.4854a.4107.4107 0 0 0-.353-.4612m4.2918 2.7767.8069.6329c.2673.2095.5851.3185.9087.356.0853.8531.0254 1.6069-.1235 2.164-.1698.6356-.4767 1.0719-.5045 1.0957-.065.0557-.3506.175-.7363.1989s-.87-.025-1.3659-.1773c-.2379-.073-.4276-.2735-.5863-.616s-.262-.8025-.3176-1.2576c-.089-.7279-.0479-1.1721-.0337-1.4245.408.0078.8116-.077 1.1461-.3392zM8.6564 8.3348a.822.822 0 0 0-.6641.394.82.82 0 0 0 .2735 1.1278c.3873.236 1.1295-.2734 1.1295-.2734s.1122-.8936-.2752-1.1295a.813.813 0 0 0-.4637-.119m7.4598 0a.82.82 0 0 0-.3873.1189c-.3874.2359-.2734 1.1295-.2734 1.1295s.7404.5093 1.1278.2734.511-.7404.2751-1.1278a.821.821 0 0 0-.7422-.394"/></svg>