<svg role="img" viewBox="0 0 24 24" xmlns="http://www.w3.org/2000/svg"><title>Bruno</title><path d="M11.9005 1.5459a9.2 9.2 0 0 0-1.1074.0628c-1.824.2148-3.1565.9028-3.8197 1.34-.0974.0013-.2404-.0073-.5775.0816-.4304.1136-1.0214.3497-1.695.8322-1.3473.9652-3.0201 2.905-4.4907 6.7801-.4788 1.2617-.0749 2.6893.5605 3.9845s1.5299 2.4836 2.1995 3.278c.5678.6737 1.6768.5244 2.0534-.27l.1834-.3873c.497.8094 1.5746 2.272 3.1302 2.782a.4106.4106 0 0 0 .518-.2615.4106.4106 0 0 0-.2616-.5198c-1.6513-.5414-2.9017-2.808-2.957-2.9094l.2022-.4263a1.23 1.23 0 0 0 .0781-.8424c-.2495-.9349-.926-4.1359-.0713-6.0396a.4106.4106 0 0 0-.2055-.5418.4106.4106 0 0 0-.5435.2055c-1.0479 2.334-.2386 5.5923.0272 6.5882.025.0936.0157.1881-.0272.2786l-.817 1.7222c-.135.2851-.4788.3316-.681.0917-.6412-.7607-1.503-1.9116-2.0908-3.1098S.6331 11.8462.9796 10.933C2.4092 7.166 3.9941 5.3794 5.1798 4.53c.5929-.4248 1.0868-.6174 1.425-.7066s.484-.0765.484-.0765a.41.41 0 0 0 .2531-.0696c.5306-.3606 1.8286-1.0512 3.5463-1.2534s3.8598.0643 6.184 1.6152a.41.41 0 0 0 .3074.0611s.1382-.0339.4569.0119.782.1768 1.3366.535c1.1094.7164 2.5973 2.3636 3.8724 6.1364.313.926.0148 2.1518-.5673 3.3459-.582 1.1941-1.4244 2.337-2.0516 3.0962-.2006.2427-.5488.1964-.6845-.09l-.4654-.9817-.005-.0102-.0137-.0323-.005-.0085-.321-.6776c-.0429-.0904-.0522-.185-.0273-.2786.2659-.996 1.075-4.2542.0272-6.5881a.4106.4106 0 0 0-.5435-.2056.4106.4106 0 0 0-.2055.5418c.8547 1.9038.1782 5.1048-.0713 6.0396a1.23 1.23 0 0 0 .0781.8424l.2463.518c-.1223.239-.3796.7077-.7524 1.2212-.5333.7348-1.2979 1.5168-2.1264 1.7885a.4106.4106 0 0 0-.2616.518.4106.4106 0 0 0 .518.2615c1.1125-.3646 1.9518-1.2812 2.5358-2.0856a10.2 10.2 0 0 0 .518-.7915l.1325.2803c.3784.7985 1.496.9444 2.0602.2615.6543-.792 1.5293-1.9716 2.157-3.2593s1.034-2.7039.6063-3.9692c-1.314-3.8877-2.895-5.7166-4.2053-6.5627-.6551-.423-1.2393-.596-1.6662-.6573-.311-.0447-.4222-.0178-.5333-.005-1.8233-1.1892-3.5818-1.6707-5.1275-1.741a9 9 0 0 0-.3906-.0084zm-3.244 6.7886a.822.822 0 0 0-.664.394c-.236.3874-.114.8919.2734 1.1278s1.1294-.2735 1.1294-.2735.1123-.8935-.2751-1.1294a.813.813 0 0 0-.4637-.119m7.4595 0a.82.82 0 0 0-.3873.1189c-.3874.2359-.2734 1.1294-.2734 1.1294s.7403.5094 1.1277.2735c.3874-.236.511-.7404.2752-1.1278a.821.821 0 0 0-.7422-.394m-5.2414 3.6686a.825.825 0 0 0-.7694.5333l-.4466 1.1923a.4107.4107 0 0 0 .2275.5248l.9495.3906c.4754.1957 1.0296-.1072 1.121-.6131a.4106.4106 0 0 0-.3313-.4773.4106.4106 0 0 0-.4755.3312l-.5826-.2395.3074-.8203h2.5239l.3278.771-.5605.294a.4106.4106 0 0 0-.4603-.3534.4106.4106 0 0 0-.355.4603c.0733.5533.7034.8796 1.1974.62l.8951-.4705a.4107.4107 0 0 0 .1868-.5231l-.4755-1.1193a.825.825 0 0 0-.7558-.501zm-3.0198 2.3998a.4106.4106 0 0 0-.4602.3533c-.1122.8505.1628 1.569.574 2.0976.407.5231.9355.878 1.386 1.1192-.015.3412-.0265.9987.0594 1.7018.0619.5064.171 1.038.3872 1.5048.2163.4668.5633.8929 1.0904 1.0548.5907.1813 1.1639.2428 1.6577.2123s.9096-.1301 1.2194-.3958c.3316-.2841.5645-.7652.7626-1.5065.1754-.6562.2755-1.4953.175-2.4627.075-.028.1489-.062.2208-.1002.4534-.2412.9883-.5992 1.3995-1.1277s.6862-1.2471.574-2.0976a.4106.4106 0 0 0-.462-.3533.4106.4106 0 0 0-.3532.4603c.083.6289-.1008 1.0918-.4076 1.4861-.3069.3944-.7477.7003-1.1363.907-.0877.0467-.18.081-.2734.1002a.4.4 0 0 0-.0798 0 .4.4 0 0 0-.0612.0187.982.982 0 0 1-.6658-.209l-.9035-.7082v-1.0445a.4106.4106 0 0 0-.411-.411.4106.4106 0 0 0-.411.411v1.0445l-.902.7083c-.3102.2432-.729.2768-1.0801.09-.3885-.2067-.8311-.5126-1.138-.907-.3068-.3943-.4905-.8572-.4076-1.486a.4106.4106 0 0 0-.3533-.4604m4.292 2.777.8067.6318c.2763.2166.6024.3408.9375.3736.0863.8554-.0037 1.5885-.1528 2.1468-.1699.6356-.4767 1.0717-.5045 1.0955-.065.0557-.3498.1749-.7354.1987-.3856.0239-.8697-.0243-1.3655-.1766-.2379-.073-.4273-.2741-.586-.6165s-.2637-.8018-.3193-1.2569c-.0648-.5303-.0678-1.0433-.0594-1.3825.4154.013.8313-.1151 1.1719-.3821z"/></svg>