<svg role="img" viewBox="0 0 24 24" xmlns="http://www.w3.org/2000/svg"><title>BSD</title><path d="M17.615 6.621v.006h-.025a1.74 1.74 0 0 0-1.73 1.577v8.677c0 .277.181.508.415.555a.486.486 0 0 0 .038.007c.013.001.025.006.038.006h2.286C21.61 17.382 24 14.99 24 12.042c0-2.916-2.338-5.293-5.267-5.408-.049-.006-.089-.013-.115-.013h-1.002zm-.178.926h1.66c2.26.284 4.01 2.189 4.01 4.495 0 2.29-1.727 4.177-3.966 4.481H17.47a.768.768 0 0 1-.517-.376.73.73 0 0 1-.083-.351v-.147h-.006v-7.4a.724.724 0 0 1 .575-.715zM2.784 6.397a.219.219 0 0 0-.077.02A3.05 3.05 0 0 0 0 9.354h.02c-.002.015-.007.029-.007.044v7.585c0 .28.185.505.421.55.004 0 .009.005.013.006a.649.649 0 0 0 .21.031h4.304v.032a3.194 3.194 0 0 0 3.186-3.192 3.194 3.194 0 0 0-2.222-3.039 2.89 2.89 0 0 0-1.851-4.967c-.011-.001-.022-.006-.033-.006H2.784ZM2.828 7.4h1.156c.976.1 1.736.907 1.736 1.89 0 .95-.711 1.735-1.64 1.877H1.532a.745.745 0 0 1-.408-.345.73.73 0 0 1-.09-.351v-.147h-.019v-.926a.65.65 0 0 0-.006-.083 2.044 2.044 0 0 1 1.82-1.902V7.4zm2.133 4.775v.02a2.188 2.188 0 0 1 0 4.373v.007H1.015v-3.64h.02v-.146a.73.73 0 0 1 .319-.607H4.89a.508.508 0 0 0 .07-.006zm7.306 5.36c1.471-.169 2.84-1.59 2.601-3.104-.1-.64-.52-1.301-1.215-1.761-.544-.36-3.197-1.614-3.663-1.936-.285-.219-.845-.818-.886-1.204-.112-1.04.456-1.486 1.031-1.752.237-.112.544-.153.67-.167 1.074-.126 1.422.07 2.405.535a.51.51 0 0 0 .31.034c.33-.052.559-.197.507-.527-.039-.245-.175-.358-.431-.484-.685-.34-1.97-.745-3.05-.575l-.055.01-.002-.016c-1.501.25-2.69 1.607-2.454 3.113.128.81.75 1.488 1.387 1.902.427.358 1.967.977 3.492 1.822.54.3.759.596.838 1.267.083.696-.724 1.486-1.354 1.726-.98.287-2.131-.12-2.898-.526-.23-.15-.335-.228-.546-.195a.606.606 0 0 0-.127 1.16c1.365.601 2.285.81 3.44.678z"/></svg>