<svg role="img" viewBox="0 0 24 24" xmlns="http://www.w3.org/2000/svg"><title>Bundler</title><path d="M15.688.0299c-.5182.0713-1.1.2678-1.5642.5278-.9073.5124-1.6817 1.335-2.144 2.2828-.3025.6184-.3642.8323-.7822 2.7162-.181.815-.1869.8362-.4412 1.809l-.1964.7513c-.0988.0957-.3548.309-.3969.3005-.0135 0-.5413-.2793-1.1713-.6222-.9728-.526-1.1462-.628-1.1558-.6685-.0867-.3853-.2235-.5664-.5433-.7166-.2138-.1021-.4507-.1021-.6684.0019-.1984.0925-1.7646.967-1.8898 1.0537-.299.1933-.4432.608-.3757.9421.0193.0693.0174.079-.025.1155-.049.0388-.141.2126-.183.289.0557.1015.1713.3063.2292.4064l.1464.0463c.1021.0327.156.0617.1811.0963.0347.0482.0347.052-.0039.1368-.1213.2697-.2292.6415-.2639.9131-.0385.314-.0424.4104-.0212.653.0097.1369.0155.2525.0116.2563-.0039.0058-.1406-.0616-.3044-.1464-.5259-.2755-.8765-.3602-1.412-.343-.3294.0097-.5047.0463-.788.16-.4912.1965-1.0248.707-1.3465 1.2868l-.1117.2023.2234.4354h.2428l.104.1926a8.5169 8.5169 0 0 0 .212-.0135c.028.0492.0866.1498.1155.1985.0584-.003.1785-.0088.237-.0115.0267.0508.0824.1554.1098.206.054-.007.1653-.0197.2196-.025.027.0477.0816.1464.1078.1945h.2428a8.31 8.31 0 0 0 .0828.1965l.2466-.0153.1002.2042.235-.0232c.0215.0488.0675.1484.0905.1965h.2447l.0963.1927h.2408c.035.054.0974.2231.1599.1849.131-.027.341-.0173.4373.0212l.0963.0405.1156-.2158c.131-.2409.3255-.5375.4276-.6493.0887-.0982.316-.2677.447-.3332.0905-.0462.3063-.106.3853-.1079.0154 0-.0424.0482-.1291.108-.1946.1329-.2986.2484-.3506.391-.1021.2697-.0925.42.0366.5413.0905.0847 3.6351 2.0112 3.7603 2.044.079.0211.0964.0192.1792-.0193.0828-.0404.0963-.0578.185-.2446.1097-.2313.0693-.214.4218-.1792l.2235.023.2022.1195c.5722.341 1.2426.6992 1.4564.7802.21.077.1965.0848 1.385-.5856.3488-.1965.6358-.3545.6397-.3526.0019.002-.0232.131-.056.2832-.05.2389-.0577.3237-.0616.5876-.0019.2813.002.316.0405.4007.0963.206.4103.4623.7166.5856.2235.0906.3314.1483.3814.2023.0444.0462 1.861 3.6429 1.8976 3.7584.0115.0347.0212.2369.023.4662.002.4007.002.4065.056.5182.0963.208.2754.3814.7898.7686.4276.3218.5413.3757.9054.4296.289.0424.7648.029.9805-.029.8002-.2063 2.9953-1.9349 2.9494-2.0669.1483-.2543.1464-.6896-.0058-1.0653-.838-1.8389-2.8033-5.4541-3.8085-7.5554.7495-.422 3.5894-2.0139 3.8413-2.171.158-.1003.1887-.162.1733-.3507-.0115-.1503-.0327-.21-.0982-.264-.1021-.0866-.2851-.2002-.4951-.3101l-.2273-.1194.1965-.1926c.2273-.2216.5413-.5896.68-.7976.2543-.3795.4855-.8341.63-1.2329.2465-.6877.3294-1.152.3255-1.8512-.002-.4971-.0212-.6859-.1002-1.0018-.2485-.9863-.7089-1.7299-1.4024-2.2674.1037-.0419-5.2944-2.9815-4.895-2.5872-.4392-.1117-.996-.1425-1.4467-.0828z"/></svg>