<?xml version="1.0" encoding="UTF-8" standalone="no"?>
<svg
   xmlns:dc="http://purl.org/dc/elements/1.1/"
   xmlns:cc="http://creativecommons.org/ns#"
   xmlns:rdf="http://www.w3.org/1999/02/22-rdf-syntax-ns#"
   xmlns:svg="http://www.w3.org/2000/svg"
   xmlns="http://www.w3.org/2000/svg"
   xmlns:sodipodi="http://sodipodi.sourceforge.net/DTD/sodipodi-0.dtd"
   xmlns:inkscape="http://www.inkscape.org/namespaces/inkscape"
   width="38"
   height="42"
   viewBox="0 0 38 42"
   version="1.1"
   id="svg871"
   sodipodi:docname="c-programming-language.svg"
   inkscape:version="0.92.3 (2405546, 2018-03-11)">
  <metadata
     id="metadata877">
    <rdf:RDF>
      <cc:Work
         rdf:about="">
        <dc:format>image/svg+xml</dc:format>
        <dc:type
           rdf:resource="http://purl.org/dc/dcmitype/StillImage" />
        <dc:title></dc:title>
      </cc:Work>
    </rdf:RDF>
  </metadata>
  <defs
     id="defs875" />
  <sodipodi:namedview
     pagecolor="#ffffff"
     bordercolor="#666666"
     borderopacity="1"
     objecttolerance="10"
     gridtolerance="10"
     guidetolerance="10"
     inkscape:pageopacity="0"
     inkscape:pageshadow="2"
     inkscape:window-width="1878"
     inkscape:window-height="1058"
     id="namedview873"
     showgrid="false"
     inkscape:zoom="9.4642857"
     inkscape:cx="39.608784"
     inkscape:cy="11.547947"
     inkscape:window-x="1962"
     inkscape:window-y="1080"
     inkscape:window-maximized="1"
     inkscape:current-layer="C-Programming" />
  <g
     id="C-Programming"
     transform="translate(-5 -3)">
    <path
       style="fill:#000000"
       d="M 18.974609 0 A 2.247 2.247 0 0 0 17.900391 0.28515625 L 1.0996094 9.7207031 A 2.122 2.122 0 0 0 0 11.566406 L 0 30.433594 A 2.122 2.122 0 0 0 1.0996094 32.279297 L 17.90625 41.714844 A 2.247 2.247 0 0 0 20.099609 41.714844 L 36.900391 32.279297 A 2.122 2.122 0 0 0 38 30.433594 L 38 11.566406 A 2.119 2.119 0 0 0 36.900391 9.7207031 L 20.09375 0.28515625 A 2.247 2.247 0 0 0 18.974609 0 z M 19 7 A 14 14 0 0 1 19.505859 7.0097656 A 14 14 0 0 1 20.900391 7.1328125 A 14 14 0 0 1 22.275391 7.3925781 A 14 14 0 0 1 23.617188 7.7890625 A 14 14 0 0 1 24.912109 8.3183594 A 14 14 0 0 1 26.148438 8.9746094 A 14 14 0 0 1 27.314453 9.75 A 14 14 0 0 1 28.394531 10.638672 A 14 14 0 0 1 29.382812 11.628906 A 14 14 0 0 1 30.265625 12.714844 A 14 14 0 0 1 31.037109 13.882812 L 24.966797 17.351562 A 7 7 0 0 0 24.886719 17.224609 A 7 7 0 0 0 24.480469 16.654297 A 7 7 0 0 0 24.019531 16.128906 A 7 7 0 0 0 23.507812 15.650391 A 7 7 0 0 0 22.951172 15.226562 A 7 7 0 0 0 22.355469 14.861328 A 7 7 0 0 0 21.724609 14.554688 A 7 7 0 0 0 21.068359 14.314453 A 7 7 0 0 0 20.390625 14.140625 A 7 7 0 0 0 19.699219 14.035156 A 7 7 0 0 0 19 14 A 7 7 0 0 0 18.503906 14.017578 A 7 7 0 0 0 17.810547 14.101562 A 7 7 0 0 0 17.126953 14.255859 A 7 7 0 0 0 16.462891 14.476562 A 7 7 0 0 0 15.824219 14.761719 A 7 7 0 0 0 15.21875 15.109375 A 7 7 0 0 0 14.648438 15.517578 A 7 7 0 0 0 14.123047 15.978516 A 7 7 0 0 0 13.646484 16.490234 A 7 7 0 0 0 13.222656 17.046875 A 7 7 0 0 0 12.857422 17.644531 A 7 7 0 0 0 12.552734 18.273438 A 7 7 0 0 0 12.3125 18.931641 A 7 7 0 0 0 12.138672 19.609375 A 7 7 0 0 0 12.035156 20.300781 A 7 7 0 0 0 12 21 A 7 7 0 0 0 12 21.080078 A 7 7 0 0 0 12.042969 21.777344 A 7 7 0 0 0 12.15625 22.46875 A 7 7 0 0 0 12.335938 23.144531 A 7 7 0 0 0 12.583984 23.798828 A 7 7 0 0 0 12.896484 24.425781 A 7 7 0 0 0 13.267578 25.017578 A 7 7 0 0 0 13.697266 25.570312 A 7 7 0 0 0 14.181641 26.076172 A 7 7 0 0 0 14.710938 26.53125 A 7 7 0 0 0 15.285156 26.931641 A 7 7 0 0 0 15.896484 27.273438 A 7 7 0 0 0 16.539062 27.552734 A 7 7 0 0 0 17.205078 27.765625 A 7 7 0 0 0 17.888672 27.910156 A 7 7 0 0 0 18.583984 27.986328 A 7 7 0 0 0 19.285156 27.994141 A 7 7 0 0 0 19.980469 27.929688 A 7 7 0 0 0 20.667969 27.796875 A 7 7 0 0 0 21.337891 27.597656 A 7 7 0 0 0 21.986328 27.330078 A 7 7 0 0 0 22.603516 27.001953 A 7 7 0 0 0 23.183594 26.611328 A 7 7 0 0 0 23.722656 26.166016 A 7 7 0 0 0 24.214844 25.667969 A 7 7 0 0 0 24.65625 25.125 A 7 7 0 0 0 25.039062 24.539062 L 31.167969 27.908203 A 14 14 0 0 1 31.003906 28.1875 A 14 14 0 0 1 30.224609 29.349609 A 14 14 0 0 1 29.333984 30.429688 A 14 14 0 0 1 28.339844 31.414062 A 14 14 0 0 1 27.251953 32.294922 A 14 14 0 0 1 26.082031 33.060547 A 14 14 0 0 1 24.839844 33.707031 A 14 14 0 0 1 23.541016 34.226562 A 14 14 0 0 1 22.195312 34.615234 A 14 14 0 0 1 20.820312 34.865234 A 14 14 0 0 1 19.423828 34.978516 A 14 14 0 0 1 18.025391 34.951172 A 14 14 0 0 1 16.636719 34.783203 A 14 14 0 0 1 15.269531 34.478516 A 14 14 0 0 1 13.941406 34.039062 A 14 14 0 0 1 12.664062 33.46875 A 14 14 0 0 1 11.449219 32.773438 A 14 14 0 0 1 10.310547 31.960938 A 14 14 0 0 1 9.2578125 31.039062 A 14 14 0 0 1 8.3027344 30.015625 A 14 14 0 0 1 7.4550781 28.902344 A 14 14 0 0 1 6.7207031 27.710938 A 14 14 0 0 1 6.1113281 26.451172 A 14 14 0 0 1 5.6308594 25.136719 A 14 14 0 0 1 5.28125 23.78125 A 14 14 0 0 1 5.0722656 22.398438 A 14 14 0 0 1 5 21 A 14.006 14.006 0 0 1 5.0351562 20.021484 A 14.006 14.006 0 0 1 5.203125 18.630859 A 14.006 14.006 0 0 1 5.5097656 17.265625 A 14.006 14.006 0 0 1 5.9492188 15.935547 A 14.006 14.006 0 0 1 6.5214844 14.658203 A 14.006 14.006 0 0 1 7.2167969 13.443359 A 14.006 14.006 0 0 1 8.03125 12.304688 A 14.006 14.006 0 0 1 8.9550781 11.251953 A 14.006 14.006 0 0 1 9.9785156 10.296875 A 14.006 14.006 0 0 1 11.091797 9.4492188 A 14.006 14.006 0 0 1 12.285156 8.7167969 A 14.006 14.006 0 0 1 13.546875 8.1074219 A 14.006 14.006 0 0 1 14.861328 7.6269531 A 14.006 14.006 0 0 1 16.216797 7.28125 A 14.006 14.006 0 0 1 17.601562 7.0703125 A 14.006 14.006 0 0 1 19 7 z "
       id="Path_7"
       transform="translate(5,3)" />
  </g>
</svg>
