<svg role="img" viewBox="0 0 24 24" xmlns="http://www.w3.org/2000/svg"><title>CachyOS</title><path d="m17.022 2.524-.389.219L6.036 2.7l-.007-.013-.704.01-4.688 8.087-.066.038L0 11.882l1.06 1.83-.032.015.239.341 4.278 7.408h11.497l2.9-5.028h-7.488l-.09-.05-4.239.05-1.44-2.5v-.04l-1.12-1.89 2.52-4.389h6.048l2.83-4.878h-.08zm3.04 1.69a.75.75 0 0 0-.463.157.75.75 0 0 0-.296.594.745.745 0 0 0 .745.745.75.75 0 0 0 .462-.16.75.75 0 0 0 .295-.593.745.745 0 0 0-.745-.745zm-1.98 4.318a1.45 1.44 0 0 0-.892.308 1.45 1.44 0 0 0-.575 1.15 1.45 1.44 0 0 0 1.45 1.44 1.45 1.44 0 0 0 .891-.307 1.45 1.44 0 0 0 .58-1.15 1.45 1.44 0 0 0-1.45-1.439zm4.008 3.969a1.91 1.9 0 0 0-1.17.405 1.91 1.9 0 0 0-.759 1.52 1.91 1.9 0 0 0 1.91 1.899 1.91 1.9 0 0 0 1.17-.405A1.91 1.9 0 0 0 24 14.4a1.91 1.9 0 0 0-1.91-1.9"/></svg>