<svg role="img" viewBox="0 0 24 24" xmlns="http://www.w3.org/2000/svg"><title>CachyOS</title><path d="M20.798 4.889a.746.744 0 0 1-.746.744.746.744 0 0 1-.745-.744.746.744 0 0 1 .745-.745.746.744 0 0 1 .746.745m-1.281 5.003a1.448 1.445 0 0 1-1.448 1.446 1.448 1.445 0 0 1-1.448-1.446 1.448 1.445 0 0 1 1.448-1.445 1.448 1.445 0 0 1 1.448 1.445M24 14.328a1.907 1.904 0 0 1-1.907 1.904 1.907 1.904 0 0 1-1.908-1.904 1.907 1.904 0 0 1 1.908-1.903A1.907 1.904 0 0 1 24 14.328M5.78 2.672h11.177l-2.83 4.892H8.066L5.54 11.931l2.56 4.428h11.825l-2.901 5.016H5.54L0 11.795l5.304-9.17Z"/></svg>