<svg role="img" viewBox="0 0 24 24" xmlns="http://www.w3.org/2000/svg"><title>Cairo Graphics</title><path d="M15.903 21.979c0 1.105.8 2.02 1.963 2.02 1.155 0 1.956-.915 1.956-2.02 0-1.174-.785-2.022-1.956-2.022-1.178 0-1.963.848-1.963 2.022m.755 0c0-.735.446-1.446 1.208-1.446.755 0 1.2.711 1.2 1.446 0 .688-.37 1.445-1.2 1.445-.838 0-1.208-.757-1.208-1.445m-3.335 1.93h.71v-1.756c0-.97.415-1.575 1.05-1.575.12 0 .263.015.392.068v-.636c-.151-.03-.257-.053-.468-.053-.408 0-.816.288-1.004.69h-.016v-.599h-.664v3.861m-1.678 0h.71v-3.86h-.71v3.86m-.03-5.102a.385.386 0 1 1 .77 0 .385.386 0 1 1-.77 0m-3.717 2.12a1.808 1.808 0 0 1 1.118-.394c.71 0 .951.34.951 1.007-.28-.016-.476-.016-.755-.016-.732 0-1.79.303-1.79 1.272 0 .84.582 1.204 1.413 1.204.649 0 1.026-.356 1.193-.59h.015v.499h.664a6.12 6.12 0 0 1-.03-.757v-1.597c0-1.053-.446-1.598-1.548-1.598-.49 0-.913.152-1.268.364l.037.605m2.07 1.484c0 .575-.37 1.014-1.073 1.014-.325 0-.717-.22-.717-.628 0-.681.951-.742 1.336-.742.151 0 .302.015.453.015v.341M7.002 20.11a2.65 2.65 0 0 0-.86-.152c-1.179 0-1.964.848-1.964 2.022 0 1.105.8 2.02 1.963 2.02.257 0 .597-.022.891-.158l-.053-.636a1.48 1.48 0 0 1-.762.22c-.914 0-1.284-.758-1.284-1.446 0-.735.446-1.446 1.238-1.446.227 0 .499.053.77.166l.06-.59m9.28-5.573.141-.247c.34.455.356.828.512 1.191.268.625.008 1.472-.501 1.922-.308.274-.81.49-1.176.67-.51.25-1.024.576-1.595.683-.127.024-.448.066-.34-.18.049-.114.41-.234.515-.292.423-.236.834-.537 1.23-.825.483-.35 1.06-.57 1.44-1.055.155-.198.18-.251.143-.48-.036-.217-.069-.467-.114-.685a2.266 2.266 0 0 0-.255-.702zm1.114-3.323.042-.375c.483-.233.526-.498 1.054-.636 1.208-.314 1.088.574.79 1.346-.288.75-.418 1.542-.73 2.285-.142.34-.35.674-.726.771-.02-.43.046-.543.31-.863.224-.27.17-.64.31-.944.181-.398.213-.798.37-1.199.069-.177.423-.712.328-.91-.162-.338-.467-.005-.62.105-.214.155-.328.114-.594.148-.03.004-.18.11-.533.272zm-.028-2.592c.21-.043.249-.078.403-.149.488-.171.528-.28.818-.605.378-.423.644-1.027.87-1.502.183-.384.203-.838.146-1.239-.05-.353-.364-.656-.615-.965-.297-.367-.526-.756-.911-1.09-.394-.34-1.18-.5-1.332-1.001-.059-.197.12-.557-.243-.647.019.24-.185.432-.122.692.058.236.222.297.49.464.384.242.934.448 1.258.713.365.297.222.702.538 1.023.101.103.402.24.464.348.095.163.016.489.006.67-.021.422-.284.726-.486 1.124-.211.415-.327.786-.682 1.149-.213.217-.581.245-.824.543l.18.213zm-9.649 5.915-.14-.247c-.34.455-.357.828-.512 1.191-.269.625-.008 1.472.5 1.922.309.274.81.49 1.177.67.51.25 1.024.576 1.595.683.126.024.447.066.34-.18-.05-.114-.412-.234-.516-.292-.423-.236-.833-.537-1.228-.825-.484-.35-1.06-.57-1.44-1.055-.156-.198-.181-.251-.144-.48.035-.217.068-.467.114-.685.051-.245.124-.482.254-.702Zm-1.114-3.323-.041-.375c-.484-.233-.526-.498-1.055-.636-1.207-.314-1.087.574-.79 1.346.288.75.419 1.542.73 2.285.142.34.351.674.727.771.019-.43-.047-.543-.311-.863-.224-.27-.17-.64-.31-.944-.181-.398-.213-.798-.37-1.199-.069-.177-.423-.712-.328-.91.162-.338.467-.005.62.105.215.155.329.114.594.148.03.004.181.11.534.272zm.029-2.592c-.21-.043-.25-.078-.404-.149-.488-.171-.528-.28-.818-.605-.378-.423-.644-1.027-.87-1.502-.182-.384-.203-.838-.145-1.239.05-.353.363-.656.614-.965.297-.367.527-.756.912-1.09.393-.34 1.18-.5 1.331-1.001.06-.197-.12-.557.244-.647-.02.24.185.432.121.692-.057.236-.222.297-.489.464-.384.242-.934.448-1.259.713-.365.297-.222.702-.537 1.023-.102.103-.402.24-.465.348-.095.163-.015.489-.006.67.022.422.284.726.486 1.124.211.415.327.786.682 1.149.213.217.582.245.825.543l-.18.213Zm10.18 1.417c0-.103.532-.23.528-.343a9.113 9.138 0 0 0-.018-.33v.032c-1.18-.011-4.305.023-4.592.307l-.697.688.454 1.094-.459 5.677c2.842-.021 5.158-2.994 5.31-6.736.005-.13-.527-.27-.527-.389zm-5.301 1.441.45-1.087-.696-.688c-.287-.284-3.412-.318-4.592-.307v-.032a9.329 9.354 0 0 0-.018.33c-.004.113.529.24.529.343 0 .118-.532.26-.527.39.152 3.74 2.469 6.714 5.31 6.735l-.46-5.677zm.486 5.308.428-5.291-.428-1.031a7434.774 7454.469 0 0 1-.427 1.03c0 .013.325 4.03.427 5.292zM11.31 9.66l.69.682.689-.682c.363-.359 4.431-.326 4.633-.324a9.452 9.452 0 0 0-.119-.945c-.772-.983-2.178-1.644-3.79-1.644h-2.824c-1.615 0-3.024.664-3.795 1.651a9.491 9.516 0 0 0-.117.938c.202-.002 4.27-.035 4.633.324zm3.52-3.414c0-.596-1.268-1.078-2.83-1.078-1.564 0-2.83.482-2.83 1.078 0 .52 1.266.374 2.83.374 1.562 0 2.83.119 2.83-.374zM13.236 2.34a.32.321 0 0 1-.32.321.32.321 0 0 1-.32-.321.32.321 0 0 1 .32-.321.32.321 0 0 1 .32.32zm-.916 0a.32.321 0 0 1-.32.321.32.321 0 0 1-.32-.321.32.321 0 0 1 .32-.321.32.321 0 0 1 .32.32Zm-.915 0a.32.321 0 0 1-.32.321.32.321 0 0 1-.321-.321.32.321 0 0 1 .32-.321.32.321 0 0 1 .32.32zm1.831-.918a.32.321 0 0 1-.32.321.32.321 0 0 1-.32-.321.32.321 0 0 1 .32-.322.32.321 0 0 1 .32.322zM12.32.505a.32.321 0 0 1-.32.32.32.321 0 0 1-.32-.32.32.321 0 0 1 .32-.322.32.321 0 0 1 .32.322ZM10.58 0v2.846h2.84V0Zm.092.091h.824v.827h-.824zm.916 0h.824v.827h-.824zm.915 0h.825v.827h-.825Zm-1.831.918h.824v.827h-.824zm.916 0h.824v.827h-.824zm.915 0h.825v.827h-.825zm-1.831.919h.824v.826h-.824zm.916 0h.824v.826h-.824zm.915 0h.825v.826h-.825Zm1.837-.505a2.34 2.346 0 0 1-.685 1.659A2.34 2.346 0 0 1 12 3.769a2.34 2.346 0 0 1-1.655-.687l-.144.144A2.544 2.55 0 0 0 12 3.973a2.54 2.54 0 0 0 1.799-.747 2.544 2.55 0 0 0 .745-1.803Z"/></svg>