<svg role="img" viewBox="0 0 24 24" xmlns="http://www.w3.org/2000/svg"><title>Calendly</title><path d="M16.368 15.563c-.763.676-1.71 1.517-3.44 1.517h-1.033c-1.251 0-2.387-.454-3.2-1.278-.796-.805-1.233-1.903-1.233-3.099v-1.412c0-1.195.437-2.293 1.233-3.098.813-.823 1.949-1.278 3.2-1.278h1.029c1.729 0 2.676.841 3.44 1.518.791.698 1.475 1.305 3.292 1.305.284 0 .56-.024.827-.065 0-.004-.005-.009-.005-.014a6.617 6.617 0 0 0-.381-.786l-1.219-2.105a6.25 6.25 0 0 0-5.411-3.126h-2.432a6.24 6.24 0 0 0-5.412 3.126L4.405 8.873a6.25 6.25 0 0 0 0 6.254l1.218 2.105a6.253 6.253 0 0 0 5.412 3.126h2.432a6.238 6.238 0 0 0 5.411-3.126l1.219-2.105c.147-.253.275-.52.381-.786 0-.005.005-.01.005-.014a5.33 5.33 0 0 0-.827-.065c-1.817-.005-2.497.598-3.288 1.301Zm-3.44-7.365h-1.033c-1.9 0-3.15 1.356-3.15 3.093v1.412c0 1.739 1.25 3.094 3.15 3.094h1.029c2.768 0 2.552-2.823 6.736-2.823.4 0 .796.037 1.182.111a6.18 6.18 0 0 0 0-2.17c-.39.074-.786.111-1.182.11-4.18-.004-3.963-2.827-6.732-2.827Zm10.318 5.922a5.835 5.835 0 0 0-2.404-1.035c0 .009 0 .014-.005.023-.073.417-.19.826-.35 1.219a4.59 4.59 0 0 1 1.987.817c0 .005-.005.014-.005.019a10.766 10.766 0 0 1-1.489 3.03 10.766 10.766 0 0 1-2.331 2.395 10.637 10.637 0 0 1-6.428 2.138c-1.448 0-2.851-.285-4.175-.841a10.647 10.647 0 0 1-3.407-2.299 10.779 10.779 0 0 1-2.299-3.407 10.633 10.633 0 0 1-.841-4.175c0-1.447.286-2.85.841-4.174a10.798 10.798 0 0 1 5.706-5.707 10.65 10.65 0 0 1 4.175-.84c2.341 0 4.561.74 6.428 2.138a10.854 10.854 0 0 1 2.331 2.395 10.581 10.581 0 0 1 1.489 3.03c0 .005.005.014.005.018a4.619 4.619 0 0 1-1.987.819 6.2 6.2 0 0 1 .355 1.237 5.835 5.835 0 0 0 2.404-1.035c.685-.505.552-1.08.446-1.421C22.184 3.563 17.619 0 12.221 0c-6.63 0-12 5.375-12 12s5.375 12 12 12c5.398 0 9.963-3.563 11.471-8.465.106-.34.239-.91-.446-1.415Z"/></svg>