<svg role="img" viewBox="0 0 24 24" xmlns="http://www.w3.org/2000/svg"><title>Calibre</title><path d="M13.968.146a.3.3 0 0 0-.066.002l-2.769.355a.33.33 0 0 0-.284.368l.152 1.044 3.407-.487-.139-.996a.33.33 0 0 0-.3-.286M.488.624A.487.487 0 0 0 0 1.112v.934h5.81v-.934a.487.487 0 0 0-.487-.488Zm13.93.91-3.407.49 2.62 20.447 3.404-.5zM6.293 2.813a.357.357 0 0 0-.357.358v1.707h5.157V3.17a.357.357 0 0 0-.357-.358Zm4.8 2.587H5.937v15.973h5.157zM0 2.975v18.322c1.937.006 3.874-.009 5.81 0V2.976Zm3.54 1.279.654.042.013.014q-.005.505-.005.931l.001.464q0 .236.006.484l-.08.007-.07-.24Q4.045 5.91 4 5.905l-.168-.002-.206-.001-1.526.001-.174.002q-.075 0-.139.003-.048 0-.063.047l-.074.241-.08.004q.006-.25.007-.483v-.474q0-.436-.01-.921l.015-.012.582.113.013.077-.434.122v.9L2.78 5.52v-.176q0-.202-.005-.453 0-.05-.049-.066l-.254-.068-.004-.105a14 14 0 0 0 .774-.001l.007.105-.258.07q-.05.015-.05.061l-.004.458v.175h.685q.207 0 .412-.005V4.58l-.479-.237Zm.677 2.225a2 2 0 0 1 .013.376.6.6 0 0 1-.043.193.7.7 0 0 1-.214.232 5 5 0 0 1-.25.16l-.295.172a5 5 0 0 0-.38.24.15.15 0 0 0-.062.101l-.007.083-.004.134h.856l.164-.005q.058-.002.073-.05l.062-.217.081-.006q-.011.474.001.947l-.081.008-.07-.24q-.013-.05-.058-.052l-.167-.002-.207-.002-1.527.002q-.096 0-.173.002-.075 0-.139.002a.07.07 0 0 0-.064.047l-.073.242-.08.004a16 16 0 0 0 .004-.608 11 11 0 0 1-.015-.462q0-.445.16-.667.162-.222.473-.222.28 0 .455.151.174.153.268.463.17-.117.35-.226l.308-.191a8 8 0 0 0 .246-.164q.108-.075.17-.139a.4.4 0 0 0 .093-.134 1 1 0 0 0 .05-.166Zm-1.95.82q-.286 0-.418.151-.13.15-.131.47a2 2 0 0 0 .015.251h1.1q.007-.12.007-.221 0-.337-.139-.493-.139-.157-.434-.157m18.504.446a.4.4 0 0 0-.071.006l-4.982.896a.344.344 0 0 0-.278.407l2.879 14.51a.36.36 0 0 0 .414.284l4.982-.896a.344.344 0 0 0 .278-.408l-2.879-14.51a.36.36 0 0 0-.343-.289m-1.83.323 1.293 7.546-.8-.829-.482 1.05-1.306-7.533zM3.43 9.333q.375 0 .584.282.204.283.205.783 0 .1-.005.216a5 5 0 0 0-.005.26q0 .24.006.483l-.082.008-.07-.24q-.012-.048-.057-.053l-.168-.001-.207-.002-1.526.002q-.096 0-.173.002-.077 0-.14.002a.064.064 0 0 0-.063.047l-.073.242-.081.004q.007-.252.007-.49l-.012-.29a9 9 0 0 1-.008-.27q0-.42.154-.636a.5.5 0 0 1 .44-.217q.464 0 .63.516a.85.85 0 0 1 .217-.474.57.57 0 0 1 .427-.174m.04.421q-.294 0-.435.172-.143.17-.142.55 0 .111.005.216l1.143-.001a.5.5 0 0 0 .026-.135q.005-.078.005-.142 0-.324-.154-.491-.155-.17-.448-.169m-1.246.11q-.27.001-.385.153-.12.15-.118.435a2 2 0 0 0 .013.241h1.014l.002-.247q0-.288-.134-.434t-.392-.147m5.086.391.127.098a.4.4 0 0 0-.013.115c.002.104.043.124.392.207.334.078.792.172.834.171h.042c.033-.001.061-.02.06-.044 0-.026-.02-.065-.064-.133-.066-.099-.066-.099-.095-.148h.051c.245.322.299.396.292.41v.022c.002.037-.068.078-.14.08l-.043-.003-.739-.151a6 6 0 0 1-.352-.085c-.085-.029-.124-.054-.218-.155-.106-.112-.143-.184-.145-.278 0-.033 0-.056.011-.106m1.291.818h.071c.066.086.097.13.153.209.115.164.124.182.125.212q0 .036-.048.04c-.03 0-.09-.008-.21-.03.218.287.268.364.269.416.001.058-.073.098-.186.1-.19.005-.51-.083-.61-.17a1.2 1.2 0 0 1-.16-.21c-.04-.058-.05-.104-.052-.2a1.2 1.2 0 0 1 .028-.298c.043.037.048.042.086.067.324.079.571.126.635.125.028 0 .047-.013.046-.03 0-.023-.025-.062-.147-.23m-.511.298a1 1 0 0 0-.026.2c.002.08.053.131.183.184.138.058.294.09.413.087.075-.002.117-.025.116-.065 0-.03-.032-.09-.084-.167l-.097-.124-.08-.02-.18-.035Zm-3.875.507a22 22 0 0 0 .001.966l-.08.008-.07-.24q-.014-.05-.059-.052l-.167-.002-.207-.002-1.526.002q-.096 0-.174.002-.075 0-.139.002-.048.003-.063.047l-.074.242-.08.004q.013-.483-.002-.966l.081-.009.07.242q.012.047.058.05l.145.004h.17l1.533-.002h.206l.167-.004q.047-.002.064-.068l.066-.22zm3.745.213c.267.074.442.114.82.187.384.073.408.081.56.214.146.132.192.223.196.387.002.085-.002.184-.01.26l-.161-.09c.029-.14.037-.192.035-.262-.003-.132-.04-.204-.123-.242-.062-.027-.104-.037-.442-.1l-.125-.022c.073.097.073.097.205.295.051.08.068.111.069.14 0 .047-.052.084-.13.086-.063.001-.103-.008-.318-.061-.21-.051-.279-.066-.321-.065q-.035 0-.035.036c0 .026.008.044.07.16l-.064-.005c-.122-.196-.203-.342-.203-.368 0-.014.01-.027.027-.027.016 0 .016 0 .252.05.312.075.398.091.464.09.044-.002.074-.023.073-.051-.001-.042-.008-.054-.16-.285l-.101-.023-.194-.043-.193-.044-.086-.02-.027-.05-.042-.081Zm.25 1.01a1 1 0 0 1 .525.156q.082.06.185.232a.5.5 0 0 1 .085.238c.004.124-.086.206-.227.21-.235.006-.481-.094-.598-.241-.107-.136-.179-.285-.18-.379-.004-.124.083-.213.21-.216m-4.68.137.673.043.014.011q-.005.505-.005.934v.49q0 .234.007.482l-.081.008-.07-.24q-.013-.05-.058-.052l-.168-.002-.207-.001-1.526.001-.173.002q-.077 0-.14.003-.048 0-.063.047l-.073.241-.08.004q.012-.483-.002-.966l.08-.009.07.242q.012.047.06.05.065.003.191.004h.122l1.53-.001q.206 0 .412-.005l-.001-.949-.499-.249Zm4.811.04c-.143.004-.23.065-.229.159.004.164.29.328.563.321.134-.003.219-.066.217-.162-.003-.09-.078-.172-.213-.237a.8.8 0 0 0-.338-.08m-.562.722.199.169a.4.4 0 0 0-.184.06c-.07.047-.107.13-.105.226.008.331.443.628.9.617.215-.005.348-.117.344-.29a.56.56 0 0 0-.166-.344l-.34-.076q.007.163.022.342h-.018l-.077-.141a9 9 0 0 1-.001-.528l.068.106.001.05.37.082c.273.061.372.1.492.199.183.15.271.308.276.496.001.05 0 .085-.008.17l-.157-.095c.01-.073.016-.186.014-.254-.003-.125-.056-.191-.184-.235a4 4 0 0 0-.347-.09c.113.208.151.33.155.475.005.202-.133.33-.36.335a1.15 1.15 0 0 1-.748-.291.9.9 0 0 1-.324-.669c-.004-.18.045-.267.178-.314m-3.56 1.494q-.012.498 0 .997l-.08.008-.053-.185a.2.2 0 0 0-.028-.054q-.017-.018-.05-.018a.3.3 0 0 0-.099.022l-.163.057-.504.183v.94l.503.203.168.065a.3.3 0 0 0 .098.023q.03 0 .048-.018a.2.2 0 0 0 .027-.056l.05-.181.085-.004q-.005.276-.005.452 0 .175.006.391l-.08.01-.06-.196a.2.2 0 0 0-.07-.11 1 1 0 0 0-.146-.078l-2.296-.993-.029-.2 2.3-.868a.7.7 0 0 0 .177-.088.25.25 0 0 0 .068-.115l.052-.184Zm3.222.16.134.08a.4.4 0 0 0-.016.109c.002.084.057.134.2.182.146.048 1 .223 1.078.22.035 0 .061-.015.06-.034a.4.4 0 0 0-.054-.105l-.078-.108-.044-.064.073.007c.146.191.276.393.277.43q0 .053-.072.054-.086 0-.17-.015c.183.238.25.344.252.388 0 .043-.09.092-.179.094-.162.004-.495-.093-.588-.17-.106-.092-.238-.29-.24-.364q0-.032.012-.096c-.033-.009-.066-.015-.076-.017-.243-.055-.26-.062-.373-.174a1.2 1.2 0 0 1-.16-.201.24.24 0 0 1-.043-.14c0-.023.001-.04.007-.075m.805.64c-.045.048-.06.08-.06.124q.004.18.362.27c.106.026.193.038.27.036q.105-.003.103-.052c-.001-.033-.033-.083-.179-.28Zm-5.175.274-1.037.38 1.037.423zm5.71.364.067.008c.017.028.029.044.041.065l.09.132c.083.122.115.184.116.224 0 .035-.036.058-.092.06-.061 0-.061 0-.473-.1a1 1 0 0 0-.2-.037q-.04 0-.04.03c0 .02.004.028.085.169l-.066-.003c-.134-.19-.215-.326-.216-.366 0-.016.009-.029.023-.029.019 0 .019 0 .378.078.312.07.311.07.351.068.04 0 .065-.018.065-.044-.001-.028-.013-.056-.106-.215Zm-1.013.034c.063.079.07.086.13.15a.6.6 0 0 1-.162.094 3 3 0 0 0-.126-.16l.03-.014c.046-.02.047-.023.075-.037.03-.02.039-.025.053-.033m.401.564c.163.011.321.06.462.144.28.155.482.395.486.58.002.078-.063.129-.17.131a.73.73 0 0 1-.365-.099 2 2 0 0 1-.26-.202 1 1 0 0 1 .024.225c.007.086.028.102.24.165l-.047.041c-.17-.043-.268-.078-.306-.108-.02-.013-.027-.034-.028-.08l.002-.116c.003-.073.002-.101.002-.132-.002-.072-.01-.098-.043-.123l-.001-.024.026-.003h.016c.127.105.192.15.278.195a.76.76 0 0 0 .357.095c.08-.002.14-.044.138-.098-.002-.087-.118-.213-.275-.3a.85.85 0 0 0-.43-.112.34.34 0 0 0-.164.041 1 1 0 0 1-.067-.155c.039-.046.07-.063.125-.065m-4.14.96q.255.383.256.869 0 .63-.37 1.016-.369.386-.975.387-.645 0-1.022-.424-.377-.425-.378-1.11 0-.33.076-.675l.015-.013.608.12.012.078-.495.143a2 2 0 0 0-.058.438q0 .479.323.75.322.272.836.272.549 0 .876-.313.327-.312.327-.864-.001-.31-.116-.652Zm4.317.134c.162-.004.395.065.526.156q.082.06.184.233a.5.5 0 0 1 .086.237c.003.125-.087.207-.228.21-.234.006-.481-.094-.598-.241-.106-.136-.178-.285-.18-.379-.003-.124.084-.213.21-.216m.132.177c-.143.004-.231.065-.229.159.004.164.29.329.563.322.133-.003.219-.067.216-.163-.002-.09-.077-.172-.212-.237a.8.8 0 0 0-.338-.08m.935.3a.5.5 0 0 1 .045.207.54.54 0 0 1-.168.424c-.094.087-.254.162-.58.27l-.14.046c-.086.03-.089.03-.128.046l-.052.017c.296.068.358.104.651.384l-.007-.284q.052.08.086.15c.02.044.02.054.024.218l.008.322-.104-.101-.002-.09c.004-.133-.06-.221-.21-.295-.16-.069-.279-.1-.869-.227l-.092-.021q-.006.075-.004.112c.005.219.097.334.262.33a.5.5 0 0 0 .221-.057l.087.19a.4.4 0 0 1-.175.044c-.169.005-.31-.088-.401-.262a1 1 0 0 1-.086-.435c-.002-.059 0-.11.004-.216.043.034.055.052.076.12l.493.11-.06-.074-.203-.23c-.25-.294-.25-.294-.274-.329a.24.24 0 0 1-.058-.154.3.3 0 0 1 .028-.131l.176.082a.3.3 0 0 0-.032.14c.002.103.073.204.387.556l.356-.14c.328-.128.412-.163.537-.234.123-.071.189-.156.187-.238-.002-.08-.041-.128-.175-.219Zm7.641 2.966-3.417.496.142 1.012c.023.18.243.28.423.256l2.692-.34a.33.33 0 0 0 .284-.367zm-5.957-.7v.522zm-5.16.522v1.603c0 .198.16.358.357.358h4.443c.198 0 .357-.16.357-.358v-1.603ZM0 22.229v1.137c0 .27.219.489.489.489h4.834c.27 0 .488-.218.488-.489V22.23Z"/></svg>