<svg role="img" viewBox="0 0 24 24" xmlns="http://www.w3.org/2000/svg"><title>Canonical Juju</title><path d="M11.988 16.055c-.362 0-.709-.072-1.027-.198v3.947c0 .853-.697 1.546-1.553 1.546a1.55 1.55 0 0 1-1.553-1.546V15.5H5.8v4.305c0 1.98 1.619 3.593 3.608 3.593s3.608-1.612 3.608-3.593v-3.947a2.8 2.8 0 0 1-1.027.198zM23.98 4.524a1.687 1.687 0 0 1-1.936 1.926 1.69 1.69 0 0 1-1.4-1.394 1.685 1.685 0 0 1 1.934-1.926 1.69 1.69 0 0 1 1.402 1.395zm-1.668 3.028q-.215 0-.428-.032a2.7 2.7 0 0 1-.6-.165v3.768c0 .844-.696 1.53-1.552 1.53a1.544 1.544 0 0 1-1.553-1.53v-4.26h-2.056v4.26c0 1.959 1.62 3.555 3.609 3.555s3.608-1.594 3.608-3.555V7.355a2.8 2.8 0 0 1-1.027.197zM3.33 21.804c0 .914-.745 1.657-1.665 1.657A1.66 1.66 0 0 1 0 21.804a1.66 1.66 0 0 1 1.665-1.658c.92 0 1.665.742 1.665 1.658m.916-12.542c-1.989 0-3.608 1.612-3.608 3.593v6.38a2.78 2.78 0 0 1 2.054 0v-6.38c0-.853.697-1.547 1.553-1.547.857 0 1.554.694 1.554 1.547v1.503h2.055v-1.503c0-1.98-1.62-3.593-3.609-3.593zm9.418 4.029c0 .92-.75 1.667-1.675 1.667a1.67 1.67 0 0 1-1.675-1.667c0-.921.75-1.668 1.675-1.668s1.675.747 1.675 1.668M14.571.539c-1.99 0-3.609 1.612-3.609 3.593v6.596a2.78 2.78 0 0 1 2.054 0V4.132c0-.853.697-1.547 1.554-1.547.856 0 1.553.694 1.553 1.547v1.503h2.055V4.132c0-1.98-1.62-3.593-3.608-3.593z"/></svg>