<svg role="img" viewBox="0 0 24 24" xmlns="http://www.w3.org/2000/svg"><title>Canonical LXD</title><path d="M18.246 9.983V3.607L12.002 0 5.753 3.607v6.376L.207 13.184v7.21L6.456 24l5.546-3.201L17.548 24l6.245-3.604v-7.212zm-6.244-8.368 4.853 2.798v5.57l-4.853 2.798-4.846-2.798v-5.57zM6.458 22.388l-4.848-2.8V13.99l4.818-2.782 4.872 2.81v5.57l-4.846 2.8Zm15.939-2.798-4.849 2.798L12.7 19.59v-5.572l4.871-2.812 4.823 2.782v5.597Zm-4.353.56 2.662-1.576v-3.126l-2.662 1.557zm-.498-7.019-2.672 1.534 2.688 1.518 2.656-1.557zm-3.128 5.493 2.67 1.557v-3.169l-2.695-1.52zm-7.967-5.493-2.67 1.534 2.686 1.518 2.658-1.557zm-3.125 5.493 2.667 1.557v-3.169l-2.695-1.52zm3.623 1.525 2.662-1.575v-3.126L6.95 17.005zM14.65 5.033 11.998 3.55 9.333 5.084l2.665 1.501zm-3.128 5.56V7.417L8.844 5.906l.028 3.14zm.956-.014 2.679-1.584V5.846l-2.68 1.566z"/></svg>