<svg role="img" viewBox="0 0 24 24" xmlns="http://www.w3.org/2000/svg"><title>Canonical</title><path d="M19.573 0H4.427v24h15.146V0Zm-5.506 17.733a1.569 1.569 0 1 1-.001 3.137 1.569 1.569 0 0 1 .001-3.137Zm-2.64 1.559a3.82 3.82 0 0 1-2.604-1.986c-.419.19-.888.248-1.341.165a5.103 5.103 0 0 0 3.675 3.08c.367.079.741.117 1.114.115a2.246 2.246 0 0 1-.459-1.311 4.172 4.172 0 0 1-.385-.063Zm4.822-.568v.001-.001c.488-.614.831-1.34.997-2.113a5.14 5.14 0 0 0-.74-3.905c-.18.425-.487.785-.882 1.032a3.843 3.843 0 0 1-.125 3.819c.369.302.629.709.75 1.167ZM7.89 13.688a1.569 1.569 0 1 1-.001 3.137 1.569 1.569 0 0 1 .001-3.137Zm6.531-3.438a1.57 1.57 0 0 1 1.568 1.568 1.569 1.569 0 1 1-1.568-1.568Zm-6.652 2.758.12-.003a2.258 2.258 0 0 1 1.189.338 3.827 3.827 0 0 1 3.079-1.647 2.264 2.264 0 0 1 .476-1.271 5.156 5.156 0 0 0-4.864 2.583Z"/></svg>