<svg role="img" viewBox="0 0 24 24" xmlns="http://www.w3.org/2000/svg"><title>Canonical MAAS</title><path d="M2.655 0C1.605 0 .754.846.754 1.888s.85 1.888 1.901 1.888c1.05 0 1.901-.846 1.901-1.888A1.895 1.895 0 0 0 2.656 0M4.97.47a2.695 2.695 0 0 1 .043 2.767c-.015.027-.029.042-.043.07H22.55c.468 0 .85-.383.865-.851V1.32a.88.88 0 0 0-.878-.85ZM2.485 6.74c-1.05 0-1.901.847-1.901 1.889s.85 1.888 1.901 1.888c1.05 0 1.901-.846 1.901-1.888A1.895 1.895 0 0 0 2.485 6.74m2.299.441c.156.227.255.483.326.753a2.7 2.7 0 0 1-.27 2.043c0 .015-.015.028-.028.028h17.724c.468 0 .851-.383.866-.85V8.018a.854.854 0 0 0-.864-.838zm-2.299 6.302c-1.05 0-1.901.846-1.901 1.888s.85 1.888 1.901 1.888c1.05 0 1.901-.846 1.901-1.888a1.895 1.895 0 0 0-1.901-1.888m2.299.468a2.695 2.695 0 0 1 .042 2.767c-.014.028-.027.043-.042.07h17.754c.468 0 .85-.383.865-.85v-1.136a.857.857 0 0 0-.865-.85zm-2.299 6.273c-1.05 0-1.901.846-1.901 1.888 0 1.043.85 1.888 1.901 1.888 1.05 0 1.901-.845 1.901-1.888a1.895 1.895 0 0 0-1.901-1.888m2.299.47a2.695 2.695 0 0 1 .042 2.767c-.014.027-.027.042-.042.07h17.754c.468 0 .85-.383.865-.851v-1.136a.84.84 0 0 0-.865-.85z"/></svg>