<svg role="img" viewBox="0 0 24 24" xmlns="http://www.w3.org/2000/svg"><title>Canonical LXD</title><path d="M18.26 9.978V3.606L12 0 5.744 3.606v6.372L.189 13.18v7.214L6.447 24 12 20.8l5.555 3.2 6.255-3.607v-7.214zM12 1.613l4.86 2.797v5.57L12 12.778 7.146 9.98V4.41zM6.445 22.406l-4.854-2.799V14.01l4.83-2.783 4.876 2.813v5.568zm15.964-2.797-4.853 2.797-4.854-2.797v-5.571l4.878-2.812 4.829 2.783zm-4.385 3.305 2.668-1.576v-3.176l-2.668 1.573zm-.499-7.008-2.668 1.531 2.69 1.526 2.687-1.564zm-3.668 5.51 2.668 1.704v-3.17l-2.67-1.544zm-7.876-6.49-2.668 1.532 2.69 1.525L8.69 16.42zm-3.667 5.51L4.98 22.14v-3.168l-2.67-1.545zm3.667 1.549 2.668-1.576v-3.176l-2.668 1.573zm8.62-15.957-2.658-1.481-2.665 1.499L11.94 7.55zm-3.122 5.558V7.464L8.792 5.977l.028 3.77 2.657 1.839zm.954-.138 2.681-2.004v-3.92l-2.68 1.56z"/></svg>