<svg role="img" viewBox="0 0 24 24" xmlns="http://www.w3.org/2000/svg"><title>Canva icon</title><path
     d="M 12,0 C 5.3725716,0 0,5.3725714 0,12 0,18.627429 5.3725716,24 12,24 18.627429,24 24,18.627429 24,12 24,5.3725714 18.627429,0 12,0 Z M 6.9617189,7.680469 c 0.7542856,0 1.3368972,0.548571 1.4054688,1.2 0.068571,0.582857 -0.1712276,1.096897 -0.8226564,1.405469 -0.3428572,0.171428 -0.479866,0.171607 -0.5484376,0.06875 -0.034284,-0.06857 1.788e-4,-0.136897 0.06875,-0.205469 C 7.6819869,9.634934 7.681853,9.223484 7.6132814,8.640626 7.5789974,8.263483 7.3047545,8.023438 7.030469,8.023438 c -1.2000001,0 -2.9142189,2.673839 -2.6742189,4.628125 0.1028572,0.754287 0.5485936,1.646094 1.5085936,1.646094 0.3085716,0 0.6508037,-0.102701 0.9593753,-0.239844 0.5005711,-0.264 0.7993699,-0.470075 1.0976563,-0.799219 -0.073029,-0.8856 0.7043627,-2.046874 1.8515627,-2.046874 0.514285,0 0.925089,0.20567 0.959375,0.582812 0.06857,0.514285 -0.37692,0.582812 -0.514063,0.582812 -0.137143,0 -0.3773431,-0.03395 -0.3773431,-0.171093 -0.034286,-0.137143 0.3085041,-0.06877 0.2742181,-0.377344 -0.03429,-0.205714 -0.2395981,-0.274219 -0.4453124,-0.274219 -0.72,0 -1.1317633,0.994576 -1.0289057,1.61172 0.034286,0.274284 0.1718083,0.548436 0.4460931,0.548436 0.2057152,0 0.5143312,-0.308973 0.6171883,-0.754686 0.068571,-0.308573 0.3428117,-0.514063 0.5828117,-0.514063 0.102857,0 0.171183,0.03395 0.205469,0.171093 v 0.1375 c -0.03429,0.137143 -0.13663,0.548706 -0.102344,0.651563 0,0.06857 0.03395,0.171093 0.171094,0.171093 0.09086,0 0.435762,-0.180289 0.776562,-0.459374 0.116572,-0.589715 0.252345,-1.297717 0.252344,-1.357032 0.03429,-0.24 0.137188,-0.479688 0.617188,-0.479688 0.102857,0 0.171183,0.03395 0.205469,0.171095 v 0.137499 l -0.13672,0.617188 c 0.445715,-0.582858 1.097165,-0.994531 1.508595,-0.994531 0.171428,0 0.308593,0.10279 0.308593,0.274219 0,0.102857 -1.79e-4,0.274665 -0.06875,0.446094 -0.137143,0.377142 -0.308861,0.959933 -0.411718,1.474218 0,0.137142 0.03482,0.274218 0.20625,0.274218 0.171429,0 0.685446,-0.206115 1.096875,-0.754686 l 0.007,-0.0039 c -0.0021,-0.0672 -0.007,-0.13402 -0.007,-0.201563 0,-0.411428 0.03455,-0.75375 0.103125,-0.99375 0.06857,-0.274285 0.411473,-0.514843 0.617187,-0.514843 0.102858,0 0.205469,0.06902 0.205469,0.171875 0,0.03429 -8.9e-5,0.102433 -0.03437,0.136718 -0.137143,0.445715 -0.239844,0.857322 -0.239844,1.26875 0,0.24 0.03377,0.582568 0.102344,0.788281 0,0.03429 0.03447,0.06875 0.06875,0.06875 0.06857,0 0.54855,-0.445267 0.891407,-1.028124 -0.308572,-0.205715 -0.479688,-0.548728 -0.479688,-0.960157 0,-0.72 0.445603,-1.096875 0.857031,-1.096875 0.342857,0 0.617188,0.239531 0.617188,0.719531 0,0.308572 -0.10279,0.651585 -0.274219,0.960157 h 0.102343 c 0.274287,0 0.446452,-0.102701 0.583595,-0.239844 a 0.29280001,0.29280001 0 0 1 0.134374,-0.116406 c 0.334629,-0.425144 0.829947,-0.740625 1.409375,-0.740625 0.480001,0 0.924061,0.205669 0.959375,0.582812 0.06857,0.514286 -0.377358,0.617188 -0.514843,0.617188 l -0.0024,-0.0015 c -0.137144,0 -0.376563,-0.03473 -0.376563,-0.171875 0,-0.137143 0.308505,-0.06799 0.274219,-0.376563 -0.03429,-0.205714 -0.24038,-0.274219 -0.446094,-0.274219 -0.685714,0 -1.130982,0.890938 -1.028125,1.610938 0.03429,0.274285 0.171027,0.582812 0.445312,0.582812 0.205715,0 0.51442,-0.308191 0.651563,-0.753906 0.06857,-0.274285 0.342812,-0.514063 0.582812,-0.514063 0.102857,0 0.171184,0.03395 0.205469,0.171095 0,0.06857 4.4e-4,0.205848 -0.136718,0.651562 -0.171429,0.308571 -0.171786,0.480045 -0.137501,0.617187 0.03429,0.274286 0.171451,0.479956 0.308594,0.582813 0.03429,0.03429 0.06875,0.102344 0.06875,0.102344 0,0.06857 -0.03465,0.137499 -0.137501,0.137499 -0.03429,0 -0.06806,-8.9e-5 -0.102343,-0.03437 -0.514286,-0.205715 -0.720492,-0.548549 -0.789063,-0.891407 -0.205714,0.24 -0.445246,0.377345 -0.719531,0.377345 -0.445715,0 -0.891586,-0.411497 -0.960157,-0.925781 -0.024,-0.206401 0.0067,-0.428763 0.07422,-0.649219 -0.203314,0.130285 -0.421743,0.203125 -0.622657,0.203125 h -0.171093 c -0.445715,0.651428 -0.925893,1.09741 -1.26875,1.303124 -0.137143,0.06857 -0.274487,0.103126 -0.377343,0.103126 -0.06857,0 -0.171184,-0.03455 -0.20547,-0.103126 -0.09429,-0.152228 -0.155598,-0.392558 -0.192968,-0.667187 -0.48103,0.526971 -1.145144,0.804687 -1.452344,0.804687 -0.342858,0 -0.548527,-0.206361 -0.582812,-0.549218 v -0.376564 c 0.102857,-0.754284 0.377343,-1.200355 0.377343,-1.337499 0,-0.03429 -0.03447,-0.06875 -0.06875,-0.06875 -0.24,0 -1.028483,0.823302 -1.165626,1.371875 l -0.103125,0.445312 c -0.06857,0.308571 -0.377098,0.514844 -0.582813,0.514844 -0.102856,0 -0.171182,-0.03473 -0.205468,-0.171875 V 13.9203 l 0.0461,-0.233594 c -0.434743,0.309943 -0.871,0.507813 -1.075,0.507813 -0.3085711,0 -0.479776,-0.171719 -0.5140617,-0.411719 -0.2057143,0.274285 -0.4453345,0.411719 -0.7539068,0.411719 -0.3517716,0 -0.6962144,-0.240074 -0.8625,-0.592188 -0.2434284,0.274286 -0.5224196,0.552176 -0.8515624,0.764063 -0.48,0.308571 -1.0282592,0.548437 -1.6796876,0.548437 -0.5828573,0 -1.0975889,-0.308527 -1.3718753,-0.582813 -0.4114281,-0.377143 -0.6508703,-0.960022 -0.685156,-1.508593 -0.2057143,-1.68 0.8228572,-3.84 2.4000001,-4.8 0.3771428,-0.205715 0.7541072,-0.342969 1.13125,-0.342969 z m 9.7695311,3.290624 c -0.102857,0 -0.171093,0.171541 -0.171093,0.34297 0,0.274286 0.137165,0.583259 0.308593,0.754687 0.06857,-0.205715 0.102343,-0.377099 0.102343,-0.582812 0,-0.342857 -0.136986,-0.514845 -0.239843,-0.514845 z"/></svg>
