<svg role="img" viewBox="0 0 24 24" xmlns="http://www.w3.org/2000/svg"><title>Capital One</title><path d="M19.3699 7.6929c-3.8816-.0403-9.7293.9214-12.7571 1.5846l-.1033.023a.046.046 0 0 0-.0344.046.0345.0345 0 0 0 .0458.0287l.1034-.0173c3.652-.6488 11.2485-1.5503 12.8793.0689.4995.4938.3848 1.1312-.1952 1.8834a1.476 1.476 0 0 1 .6316.9073c2.2566-1.4987 3.7725-2.9342 3.0547-3.7266-.5024-.5544-1.8605-.7797-3.6248-.798M2.335 11.247c-1.1197.0115-2.1934.5168-2.3255 1.5503s1.1484 1.315 1.7169 1.315c.3273 0 .6718-.0173.9877-.046l.132-.7178a3.58 3.58 0 0 1-.8154.0862c-.465 0-.8384-.2297-.8154-.6604.0115-.2813.3503-.8785 1.2001-.8785a1.395 1.395 0 0 1 .7637.2068l.1206-.695a2.31 2.31 0 0 0-.9647-.1606m16.0891.0171c-1.2115 0-2.0499 1.0911-2.0097 2.1591.0287.8326.557 1.3723 1.3724 1.3723 1.224 0 1.9936-.9616 2.0106-2.0397l.2115-.0216c.0747 0 .1378.0172.1436.0861.0057.069-.0747.3445-.0919.4191l-.1551.6719a21 21 0 0 1-.1837.7923h.3905l.2181-1.068c.6776-.7005.936-.9301 1.091-.9301a.1148.1148 0 0 1 .1264.1262c.0057.1206-.0747.402-.0977.4824l-.2297.7752c-.0459.178-.0861.333-.0804.4478s.1091.247.2584.247c.2678 0 .4703-.26.6408-.5327.0845.349.358.5326.6857.5326.4709 0 .867-.3215 1.0623-.7177l-.0747-.0517c-.155.2411-.4192.488-.7695.488s-.5224-.2354-.5339-.5225a.82.82 0 0 1 .0229-.2526c.6316-.0115 1.5906-.2182 1.5676-.9015-.0115-.3043-.2756-.4306-.557-.4306-.6545 0-1.4642.7981-1.4297 1.6594q.001.0267.0033.0524c-.0775.1192-.237.361-.3708.361-.0402 0-.0804-.0287-.0804-.0976a1.18 1.18 0 0 1 .0574-.3158l.2527-.913c.0632-.2526.0976-.4135.0976-.4996s-.1091-.2468-.2584-.2468c-.2584 0-.6029.1894-1.3264 1.022h-.0114l.0918-.4077c.0517-.224.0976-.4536.1436-.6143a6.6 6.6 0 0 1-.816.2314c-.0325-.8213-.5596-1.3627-1.3718-1.3627m-3.1294.0116-.5053 2.7906h.9991l.4767-2.7676zm-5.3744.0287c-.2929 0-.5514.132-.58.2985-.0288.1608.178.2987.4708.2987s.5513-.1322.58-.2987-.178-.2985-.4708-.2985m8.4062.1033c.5167 0 .9187.511.9417 1.137.0287.821-.3962 2.0498-1.3953 2.0498-.5168 0-.913-.511-.9302-1.1369-.0345-.8268.5225-2.05 1.3838-2.05m-6.431.0172-1.022.2183-.069.4076v.0057h-.3847l-.0747.402h.3732l-.2985 1.6077h.9934l.2928-1.6077h.488l.0976-.4077h-.5052Zm-6.8905.58a9.35 9.35 0 0 0-1.3722.1148l-.1896.5225c.356-.0919 1.045-.2066 1.4126-.1377.1378.0287.1607.132.1492.1894s-.0343.0861-.109.1148a.9.9 0 0 1-.333.0747c-.3388.0287-.5915.0575-.7695.0862a1.66 1.66 0 0 0-.4134.1148.775.775 0 0 0-.27.1953.55.55 0 0 0-.1262.2928c-.0058.1665.069.2468.1952.3617.1264.1148.3158.1493.6488.1493a1.83 1.83 0 0 0 .488-.0632 2.3 2.3 0 0 0 .494-.2067v.2527h1.0277v-.0402a.184.184 0 0 1-.0976-.2068l.178-.999c.023-.1493.0403-.2355.046-.333.0057-.27-.2297-.4824-.959-.4824m8.8313 0a9.3 9.3 0 0 0-1.3724.1148l-.1894.5168c.356-.0861 1.045-.2067 1.4125-.132.1378.0287.1607.132.1493.1894s-.0403.0861-.1092.1148a1.38 1.38 0 0 1-.333.0747c-.3387.0287-.5914.0575-.7751.0862a1.46 1.46 0 0 0-.4078.1148.76.76 0 0 0-.2698.1894.546.546 0 0 0-.1263.2987c-.0057.1608.0574.2411.1894.356s.3216.1492.649.1492a1.85 1.85 0 0 0 .4937-.0574 2.07 2.07 0 0 0 .4938-.2124v.2584h1.0278v-.0345a.184.184 0 0 1-.0975-.2067l.178-1.0048c.023-.1436.04-.2355.0458-.333.0057-.2642-.2296-.4767-.9588-.4824m-5.7995.0402a1.55 1.55 0 0 0-.5569.1149.815.815 0 0 0-.3618.2584l.0689-.3446h-.8613l-.4765 2.6872h.9646l.1608-.9244a.9.9 0 0 0 .1608.1493.7.7 0 0 0 .1951.0746 1.17 1.17 0 0 0 .3044.0345c.3388 0 .5742-.0517.8383-.2411a1.19 1.19 0 0 0 .4824-.7868.965.965 0 0 0-.046-.5455.712.712 0 0 0-.3445-.3789c-.1666-.0861-.3043-.0976-.5283-.0976m1.246.0172-.356 2.004h.982l.356-2.004Zm14.0909.448c.1665 0 .247.109.2527.2697.0172.4422-.4996.8326-1.1542.8326.0747-.3158.4996-1.1024.9015-1.1024m-15.7388.0229a.385.385 0 0 1 .2985.1206c.0747.0804.0977.1951.069.356a.72.72 0 0 1-.1091.264.465.465 0 0 1-.1895.1608.59.59 0 0 1-.2526.0518.408.408 0 0 1-.3044-.1149c-.0689-.0804-.0861-.201-.0517-.379a.54.54 0 0 1 .1896-.3445.597.597 0 0 1 .3502-.1148m-2.7274.6086a.84.84 0 0 1-.0517.2297.293.293 0 0 1-.0862.132.59.59 0 0 1-.2067.1091.93.93 0 0 1-.2526.0403.42.42 0 0 1-.2412-.0517.121.121 0 0 1-.0574-.1321.184.184 0 0 1 .0862-.132.62.62 0 0 1 .264-.0804l.379-.069a.75.75 0 0 0 .1666-.0459m8.8312.0057a1.3 1.3 0 0 1-.0517.2297.293.293 0 0 1-.0861.1321.59.59 0 0 1-.2067.109.93.93 0 0 1-.2527.0346c-.1148 0-.1953-.0116-.247-.046a.126.126 0 0 1-.0516-.1378.172.172 0 0 1 .086-.1263.62.62 0 0 1 .2585-.0804l.3848-.0689zm2.5436.7752c-1.022.7235-2.2279 1.4814-3.5313 2.2795l-.0517.0287a.0402.0402 0 1 0 .046.0633l.0401-.023c1.1082-.5742 2.3773-1.2576 3.652-1.9638l.023-.0115a1.42 1.42 0 0 1-.1724-.3732z"/></svg>