<svg role="img" viewBox="0 0 24 24" xmlns="http://www.w3.org/2000/svg"><title>CapRover</title><path d="M12-.0615A12 12.0615 0 0 0 0 12a12 12.0615 0 0 0 12 12.0615A12 12.0615 0 0 0 24 12 12 12.0615 0 0 0 12-.0615m-.4649.4229c.7235.0007 1.8607.0403 2.186.0862 1.6146.2276 3.1555.8046 4.4982 1.6844 1.33.8714 2.6328 2.165 3.513 3.4885.9366 1.408 1.4881 2.8851 1.7616 4.718.1148.7693.1033 2.6635-.021 3.4622-.2693 1.7302-.8333 3.2052-1.751 4.5788-1.1797 1.7656-2.855 3.25-4.6757 4.1435-1.5944.7823-3.1354 1.1283-5.0257 1.1283-2.0303 0-3.858-.4466-5.463-1.3349C3.7038 20.737 1.5703 18.0796.7998 15.145c-.3029-1.1533-.4146-2.2004-.3766-3.5302C.4784 9.6825.8495 8.193 1.666 6.6274c1.1367-2.1794 3.2143-4.1849 5.395-5.207C8.3445.8186 9.4907.514 10.9948.3748c.1038-.0096.299-.0137.5402-.0134m-.8767 1.4239c-.0541.0003.1942.151.5826.3533 1.1107.5787 1.7494 1.0593 1.7164 1.2917-.0304.214-.0978.221-2.1471.2212-1.6286.0003-1.949.0105-2.3385.0747-1.7114.2822-2.4845.8527-2.7447 2.0255-.0868.3912-.0827.6745.0171 1.1642.102.5005.2365.8802.4997 1.411.6821 1.3754 1.7423 2.8565 3.1242 4.3645 1.6914 1.8459 2.4262 3.0381 2.6756 4.3418.1917 1.0019-.0611 2.6376-.547 3.5384-.1483.275-.733 1.1386-.8839 1.3053-.1572.1738-.0189.0922.3969-.234 1.7287-1.3565 2.8273-2.7578 3.1722-4.0461.1016-.3796.1092-.468.1123-1.3096.0046-1.264-.1278-1.8789-.6211-2.8875-.3614-.7388-1.5526-2.4303-2.5314-3.5946-.5877-.699-1.1126-1.62-1.2892-2.2618-.1094-.3976-.1447-.8427-.0924-1.1628.1157-.7074.5098-.984 1.4038-.9851.7095-.001 1.3733.1491 2.9079.6575 2.6633.8822 3.7928.9648 4.1752.3049.133-.2295.1162-.7188-.036-1.045-.1582-.339-.5713-.8237-1.0442-1.2252-.949-.8058-2.778-1.665-4.1617-1.955-.3545-.0743-2.206-.3483-2.3467-.3473m1.584 4.486c-.0854.0018-.1527.0054-.1809.0105-.228.0416-.419.1617-.5927.3727-.2736.3322-.2896.5782-.0808 1.243.1969.6268.6751 1.2637 1.8638 2.482.1948.1995.3431.3585.493.5192-.0006.002-.0012.0036-.0012.0064 0 .0071.06.0671.1333.1334l.0041.0038c.5686.6214.831 1.003 1.1075 1.559.3906.7858.4908 1.2343.4887 2.1885-.0034 1.54-.218 2.381-1.017 3.9866-.1003.2015-.1672.357-.1488.3457.047-.029.6802-.948.9923-1.44.6853-1.0805 1.0815-2.1723 1.3324-3.6718.1865-1.1154.176-1.803-.0417-2.7016-.3236-1.3366-1.1843-2.888-2.1504-3.8765-.5224-.5345-.8768-.8167-1.2777-1.0178-.231-.1159-.3095-.1335-.633-.1418a7 7 0 0 0-.2908-.0012m1.8728.8056c-.0113 0 .0984.12.2438.2667s.2735.2667.2848.2667-.0984-.12-.2438-.2667-.2735-.2667-.2848-.2667m2.2068.1539a.36.36 0 0 0-.149.0313c-.1925.0832-.2632.2668-.1929.5006.059.1958.307.5973.6791 1.0988.5146.6937.8673 1.5515.922 2.2423.0272.3439-.0628 1.3556-.1504 1.6901-.0227.0869-.031.1682-.0186.1807.0702.0702.6899-1.739.7878-2.3002.1502-.8606-.0636-1.7326-.634-2.5865-.141-.211-.2602-.33-.477-.4762-.4022-.2711-.608-.379-.767-.381m-3.2688 2.9649q-.0072 0-.007.012c0 .007.0599.067.1332.1333l.1334.1205-.1205-.1333c-.0843-.0932-.1244-.1322-.1391-.1325"/></svg>