<svg role="img" viewBox="0 0 24 24" xmlns="http://www.w3.org/2000/svg"><title>CapRover</title><path d="M10.6465 1.793c-.0654.0003.1409.1288.5723.3535 1.109.5778 1.7478 1.057 1.7148 1.289-.0304.2138-.0983.2205-2.1445.2207-1.6068.0003-1.9498.0123-2.334.0743-1.5803.2548-2.3758.7875-2.6895 1.8047-.2807.9102-.0339 1.9497.8184 3.4472.7 1.2302 1.6766 2.5312 2.8633 3.8145 1.5762 1.7045 2.349 2.9763 2.5742 4.2343.1978 1.1055-.1 2.795-.6543 3.707-.169.2783-.6726 1.0017-.7754 1.1153-.1571.1736-.0186.0934.3965-.2324 1.7297-1.3577 2.8141-2.7399 3.168-4.0371.1055-.387.1118-.4592.1132-1.3106.0032-1.8692-.3154-2.6714-1.9785-4.9765-.3429-.4753-.7516-.9965-1.1719-1.4961-1.0001-1.1891-1.5223-2.4791-1.377-3.4004.1145-.7252.5016-1.0009 1.4005-1.002.6977-.0008 1.306.1328 2.7597.6114 1.8672.6145 2.482.7592 3.2559.7597.598.0005.8107-.069 1.0098-.33.1106-.145.1172-.1795.1172-.5274 0-.3366-.0126-.399-.1309-.6387-.2527-.5122-.987-1.2439-1.6777-1.6718-1.0727-.6648-2.3786-1.2178-3.4063-1.4414-.4062-.0884-2.2513-.368-2.4238-.3672m1.7812 4.4707c-.2027.0017-.4254.0163-.496.0332-.2405.0573-.5415.3279-.6485.584-.1228.294-.047.7808.207 1.3359.2503.5468.6555 1.0564 1.6368 2.0547 1.202 1.2229 1.5904 1.7399 1.9648 2.6113.2563.5965.3145.8959.336 1.7207.039 1.5033-.1564 2.3882-.8477 3.8438-.3811.8023-.3359.7687.3613-.2696.5805-.8645.7368-1.138.9961-1.75.3067-.7235.5148-1.4703.6934-2.4902.1294-.7393.131-1.7809.0039-2.377-.2259-1.0575-.6409-1.9928-1.379-3.1093-.6112-.9249-1.5691-1.8256-2.2343-2.0996-.18-.0742-.2992-.0905-.5938-.088m-.7304-6.2988c-.2006-.0008-.3693.0019-.4786.0098C8.6527.161 6.5284.9718 4.625 2.4902c-.5457.4354-1.4668 1.3326-1.9121 1.8633C1.1196 6.2526.2323 8.4598.037 11.0078c-.1588 2.0731.1897 4.1833.9766 5.92.8332 1.839 2.2266 3.538 3.9785 4.8456 1.9706 1.471 4.4234 2.2618 7.0058 2.2618 2.5699 0 4.9494-.7689 6.9356-2.2422 2.1964-1.6293 3.78-3.8196 4.5078-6.2364.248-.8235.4766-2.123.4766-2.705 0-.1352.0183-.2442.041-.2442.0256 0 .041-.247.041-.6582 0-.428-.0144-.6493-.041-.6328-.0254.0157-.041-.0592-.041-.1992 0-.3059-.1049-1.0856-.2266-1.6895-.2822-1.4001-.8651-2.8053-1.67-4.0195-.8635-1.3027-2.229-2.6651-3.5722-3.5644C17.0338.896 15.292.2528 13.5957.0528c-.4097-.0484-1.2968-.0853-1.8984-.088m-.1836.4063c.7224.0007 1.8568.0402 2.1816.086 1.612.2272 3.1515.8032 4.4922 1.6816 1.328.87 2.6289 2.163 3.5078 3.4843.9352 1.406 1.4848 2.881 1.7578 4.711.1146.7682.1046 2.6595-.0195 3.457-.2689 1.7276-.8337 3.2008-1.75 4.5723-1.1779 1.7629-2.85 3.2446-4.668 4.1367-1.592.7811-3.1301 1.127-5.0176 1.127-2.0272 0-3.8525-.447-5.455-1.334-2.8494-1.5771-4.9806-4.23-5.75-7.1602-.3024-1.1515-.413-2.1976-.375-3.5254C.473 9.678.843 8.1921 1.6582 6.629c1.1349-2.1761 3.2094-4.1786 5.3867-5.1992 1.2819-.601 2.426-.906 3.9278-1.045.1037-.0095.3002-.0138.541-.0136"/></svg>