<svg role="img" viewBox="0 0 24 24" xmlns="http://www.w3.org/2000/svg"><title>Carlsberg Group</title><path d="M11.995 6.696a1.325 1.325 0 0 1-1.325-1.324V2.67A1.774 1.774 0 0 0 8.898.895a1.724 1.724 0 0 0-1.082.395 4.187 4.187 0 0 1-4.125.615A2.649 2.649 0 0 0 .247 3.369a2.643 2.643 0 0 0 .825 3.076 4.188 4.188 0 0 1 1.529 3.882 1.756 1.756 0 0 0 2.627 1.781l2.334-1.352a1.332 1.332 0 0 1 1.333 2.303l-2.344 1.345a1.78 1.78 0 0 0-.645 2.427c.2.341.511.602.883.74a4.192 4.192 0 0 1 2.592 3.27 2.645 2.645 0 0 0 5.233 0 4.187 4.187 0 0 1 2.593-3.272c.37-.138.683-.4.885-.739.482-.85.193-1.93-.647-2.427L15.1 13.058a1.333 1.333 0 0 1-.452-1.824 1.331 1.331 0 0 1 1.781-.48l2.334 1.353c.849.489 1.931.2 2.424-.647.194-.344.27-.743.21-1.135a4.164 4.164 0 0 1 1.529-3.881 2.644 2.644 0 0 0-2.616-4.538 4.17 4.17 0 0 1-4.115-.615 1.754 1.754 0 0 0-2.864 1.371v2.703c0 .733-.595 1.328-1.326 1.328h-.011z"></svg>