<?xml version="1.0" encoding="utf-8"?>
<!-- Generator: Adobe Illustrator 27.5.0, SVG Export Plug-In . SVG Version: 6.00 Build 0)  -->
<svg version="1.1" id="Layer_1" xmlns="http://www.w3.org/2000/svg" xmlns:xlink="http://www.w3.org/1999/xlink" x="0px" y="0px"
	 viewBox="0 0 24 24" style="enable-background:new 0 0 24 24;" xml:space="preserve">
<path d="M12,8c-0.6,0-1-0.4-1-1V5c0-0.7-0.6-1.3-1.3-1.3C9.4,3.7,9.1,3.8,8.9,4C8,4.7,6.8,4.8,5.8,4.4C4.7,4,3.6,4.5,3.2,5.5
	C2.8,6.3,3.1,7.3,3.8,7.8c0.9,0.7,1.3,1.8,1.1,2.9c-0.1,0.7,0.4,1.4,1.1,1.5c0.3,0,0.6,0,0.9-0.2l1.8-1c0.5-0.3,1.1-0.1,1.4,0.4
	c0.3,0.5,0.1,1.1-0.4,1.4l-1.8,1c-0.6,0.4-0.9,1.2-0.5,1.8c0.2,0.3,0.4,0.5,0.7,0.6c1,0.4,1.8,1.4,1.9,2.5c0.2,1.1,1.2,1.8,2.2,1.7
	c0.9-0.1,1.6-0.8,1.7-1.7c0.2-1.1,0.9-2,1.9-2.5c0.3-0.1,0.5-0.3,0.7-0.6c0.4-0.6,0.1-1.4-0.5-1.8l-1.8-1c-0.5-0.3-0.6-0.9-0.3-1.4
	c0.3-0.5,0.9-0.6,1.3-0.4l1.8,1c0.6,0.4,1.5,0.1,1.8-0.5c0.1-0.3,0.2-0.6,0.2-0.9c-0.2-1.1,0.3-2.2,1.1-2.9c0.9-0.7,1-1.9,0.3-2.8
	c-0.5-0.7-1.5-1-2.3-0.6c-1,0.4-2.2,0.2-3.1-0.5c-0.6-0.5-1.4-0.4-1.9,0.2C13.1,4.4,13,4.7,13,5v2C13,7.6,12.6,8,12,8L12,8L12,8z"/>
</svg>
