<svg role="img" viewBox="0 0 24 24" xmlns="http://www.w3.org/2000/svg"><title>Carlsberg Group</title><path d="M12.058 6.507c-.802 0-1.304-.5-1.304-1.3v-2.7c0-.9-.803-1.7-1.706-1.7-.502 0-.903.1-1.204.4-1.204.9-2.81 1-4.215.5-1.505-.5-3.01.1-3.512 1.5-.502 1.1-.1 2.4.803 3.1 1.204.9 1.706 2.4 1.505 3.9-.1.9.502 1.9 1.505 2 .402 0 .803 0 1.204-.3l2.409-1.3c.702-.4 1.505-.1 1.906.5.402.7.1 1.5-.501 1.9l-2.409 1.3c-.803.5-1.204 1.6-.702 2.4.3.4.502.7.903.8 1.304.5 2.408 1.9 2.609 3.4.301 1.5 1.606 2.4 3.01 2.3 1.205-.1 2.208-1.1 2.309-2.3.3-1.5 1.204-2.7 2.609-3.4.401-.1.702-.4.903-.8.501-.8.1-1.9-.703-2.4l-2.508-1.3c-.703-.4-.803-1.2-.402-1.9.402-.7 1.204-.8 1.706-.5l2.408 1.3c.803.5 2.007.1 2.409-.7.1-.4.3-.8.3-1.2-.3-1.5.402-3 1.506-3.9 1.204-.9 1.305-2.6.402-3.8-.703-.9-2.007-1.3-3.111-.8-1.305.5-3.01.3-4.215-.7-.803-.7-1.907-.5-2.609.3 0 .5-.1.9-.1 1.3v2.7c.1.9-.402 1.4-1.205 1.4z" style="display:inline;stroke-width:1.00174"/></svg>