<svg role="img" viewBox="0 0 24 24" xmlns="http://www.w3.org/2000/svg"><title>Carlsberg Group</title><path d="M12.048 6.696a1.33 1.325 0 0 1-1.33-1.324V2.67A1.782 1.774 0 0 0 8.937.895a1.732 1.724 0 0 0-1.088.395 4.206 4.187 0 0 1-4.143.615 2.66 2.649 0 0 0-3.46 1.464 2.655 2.643 0 0 0 .83 3.076 4.207 4.188 0 0 1 1.535 3.882 1.764 1.756 0 0 0 2.639 1.781l2.344-1.352a1.338 1.332 0 0 1 1.34 2.303L6.58 14.404a1.788 1.78 0 0 0-.648 2.427c.2.341.513.602.887.74a4.21 4.192 0 0 1 2.603 3.27 2.657 2.645 0 0 0 5.257 0 4.206 4.187 0 0 1 2.604-3.272c.372-.138.686-.4.89-.739a1.79 1.79 0 0 0-.65-2.427l-2.356-1.345a1.339 1.333 0 0 1-.454-1.824 1.337 1.331 0 0 1 1.789-.48l2.344 1.353c.853.489 1.94.2 2.435-.647a1.76 1.76 0 0 0 .21-1.135 4.182 4.164 0 0 1 1.537-3.881A2.656 2.644 0 0 0 20.4 1.906a4.189 4.17 0 0 1-4.133-.615 1.762 1.754 0 0 0-2.877 1.371v2.703c0 .733-.598 1.328-1.332 1.328h-.011z"></svg>