<svg role="img" viewBox="0 0 24 24" xmlns="http://www.w3.org/2000/svg"><Title>Carlsberg Group</Title><path d="M12 8c-.6 0-1-.4-1-1V5c0-.7-.6-1.3-1.3-1.3-.3 0-.6.1-.8.3-.9.7-2.1.8-3.1.4-1.1-.4-2.2.1-2.6 1.1-.4.8-.1 1.8.6 2.3.9.7 1.3 1.8 1.1 2.9-.1.7.4 1.4 1.1 1.5.3 0 .6 0 .9-.2l1.8-1c.5-.3 1.1-.1 1.4.4.3.5.1 1.1-.4 1.4l-1.8 1c-.6.4-.9 1.2-.5 1.8.2.3.4.5.7.6 1 .4 1.8 1.4 1.9 2.5.2 1.1 1.2 1.8 2.2 1.7.9-.1 1.6-.8 1.7-1.7.2-1.1.9-2 1.9-2.5.3-.1.5-.3.7-.6.4-.6.1-1.4-.5-1.8l-1.8-1c-.5-.3-.6-.9-.3-1.4.3-.5.9-.6 1.3-.4l1.8 1c.6.4 1.5.1 1.8-.5.1-.3.2-.6.2-.9-.2-1.1.3-2.2 1.1-2.9.9-.7 1-1.9.3-2.8-.5-.7-1.5-1-2.3-.6-1 .4-2.2.2-3.1-.5-.6-.5-1.4-.4-1.9.2 0 .4-.1.7-.1 1v2c0 .6-.4 1-1 1z"/></svg>