<svg role="img" viewBox="0 0 24 24" xmlns="http://www.w3.org/2000/svg"><title>Carlsberg Group</title><path d="M12.1 6.6c-.8 0-1.3-.5-1.3-1.3V2.6c0-.9-.8-1.7-1.7-1.7-.5 0-.9.1-1.2.4-1.2.9-2.8 1-4.2.5-1.5-.5-3 .1-3.5 1.5-.5 1.1-.1 2.4.8 3.1 1.2.9 1.7 2.4 1.5 3.9-.1.9.5 1.9 1.5 2 .4 0 .8 0 1.2-.3l2.4-1.3c.7-.4 1.5-.1 1.9.5.4.7.1 1.5-.5 1.9l-2.4 1.3c-.8.5-1.2 1.6-.7 2.4.3.4.5.7.9.8 1.3.5 2.4 1.9 2.6 3.4.3 1.5 1.6 2.4 3 2.3 1.2-.1 2.2-1.1 2.3-2.3.3-1.5 1.2-2.7 2.6-3.4.4-.1.7-.4.9-.8.5-.8.1-1.9-.7-2.4L15 13.1c-.7-.4-.8-1.2-.4-1.9s1.2-.8 1.7-.5l2.4 1.3c.8.5 2 .1 2.4-.7.1-.4.3-.8.3-1.2-.3-1.5.4-3 1.5-3.9 1.2-.9 1.3-2.6.4-3.8-.7-.9-2-1.3-3.1-.8-1.3.5-3 .3-4.2-.7-.8-.7-1.9-.5-2.6.3 0 .5-.1.9-.1 1.3v2.7c.1.9-.4 1.4-1.2 1.4z"/></svg>