<svg role="img" xmlns="http://www.w3.org/2000/svg" viewBox="0 0 24 24"><title>Carto icon</title><path d="M19.1691 7.1427a4.8623 4.8623 0 1 1-4.372 7.0534h.4702a4.4521 4.4521 0 1 0 0-4.362h-.4702a4.8623 4.8623 0 0 1 4.372-2.7014zm0 3.3116a1.5507 1.5507 0 1 1 0 3.1015 1.5507 1.5507 0 0 1 0-3.1015zm-17.6084.02c.6003 0 1.0005.2602 1.2606.6203l-.6203.4803c-.17-.2001-.3601-.3502-.6503-.3502-.4102 0-.7003.3602-.7003.8004 0 .4502.2901.8004.7003.8004.3102 0 .5003-.1401.6704-.3602l.6203.4402a1.5007 1.5007 0 0 1-1.3007.6703C.6803 13.5758 0 12.9255 0 12.0351c0-.8804.6603-1.5608 1.5607-1.5608zm4.7423.04l1.2606 3.0015h-.8804l-.2201-.5303H5.3225l-.22.5303H4.242l1.2606-3.0014zm4.272.02c.4503 0 .7604.1201.9605.3202.18.1701.2701.4002.2701.7004 0 .4702-.25.7703-.6203.9304l.7104 1.0305h-.9405l-.6003-.9004h-.3701v.9004h-.8204v-2.9914zm5.4026 0v.7204h-.9004v2.261h-.8204v-2.261h-.8904v-.7203zm-10.0748.9705l-.3301.8504h.6603zm4.6422-.25h-.5502v.7303h.5502c.2802 0 .4402-.1501.4402-.3702 0-.2401-.17-.3602-.4402-.3602zm0 0"/></svg>