<svg role="img" viewBox="0 0 24 24" xmlns="http://www.w3.org/2000/svg"><title>Cassandra icon</title><path d="M17.51 6.535c-.002.003-.247.256-.387.408-.366.397-.92.975-1.312 1.12h-.004c-.052-.018-.103-.035-.159-.05l.704-1.425-.008.012c-.022.043-.719 1.415-1.666 1.218l-.002.002c-.014-.003-.026.002-.04-.002.455-.58.63-1.113.63-1.113s-.756 1.213-1.69.885a.075.075 0 0 1-.049-.047.153.153 0 0 1 0-.08c.01-.041.04-.092.067-.14.095-.176.256-.368.256-.368s-.156.152-.366.295l-.002.002c-.157.107-.345.208-.52.236a.512.512 0 0 1-.167 0c-.214-.037-.208-.25-.149-.455v-.002c.06-.204.174-.4.174-.4s-.19.298-.398.588c-.16.223-.311.396-.416.474l-.12.004c-.063-.176.1-.756.1-.76a4.983 4.983 0 0 1-.314.446 1.73 1.73 0 0 1-.34.336h-.027c-.082.007-.16.02-.239.031a.208.208 0 0 1-.064-.125c-.042-.268.123-.756.125-.762-.002.006-.09.26-.21.502v.004c-.032.067-.07.12-.107.178-.086.136-.176.244-.261.219-.127-.038-.202-.202-.246-.356-.044-.154-.057-.299-.057-.299s-.031.251-.117.485a.799.799 0 0 1-.145.265c-.024.027-.057.036-.086.055a12.55 12.55 0 0 0-2.617.764c-.223.082-.446.158-.674.256-.75.32-1.529.726-2.343 1.248a21.33 21.33 0 0 0-2.56 1.945c-.448.393-.906.82-1.376 1.29 3.558-1.917 4.97-4.743 11.633-4.995 5.044-.191 7.4 2.137 8.178 2.17 1.956.083 3.257-1.4 3.672-1.946.112-.142.179-.237.183-.244-.01.011-.328.373-.781.721l-.006.004c-.46.351-1.05.68-1.576.6h-.002c-.068-.01-.138-.007-.203-.032.743-.434 1.236-1.19 1.482-1.595.076-.125.233-.36.233-.36S21.395 9.53 20.094 9.41l-.002.002c-.051-.005-.105.007-.155-.004.567-.446.985-1.044 1.278-1.55v-.003h.002c.317-.548.482-.985.484-.992-.005.008-.326.498-.766 1.037l-.01.01c-.44.54-.998 1.121-1.464 1.299-.07.026-.14.066-.205.072 1.085-.959 1.539-2.322 1.539-2.322s-1.097 1.595-2.026 1.889c-.056.017-.114.047-.17.054.568-.512.869-.92 1.057-1.24V7.66c.238-.404.281-.65.281-.65l-.004.004a9.379 9.379 0 0 1-.271.334l-.016.017c-.255.3-.645.733-1.045 1.078l-.005.004a4.147 4.147 0 0 1-.32.248c-.03.021-.06.046-.089.065a1.7 1.7 0 0 1-.273.138c-.022.01-.044.022-.065.03-.068-.045-.132-.092-.205-.135-.046.06-.096.117-.142.176H17.5c-.02-.006-.044-.006-.063-.016.858-.934 1.44-2.119 1.44-2.119l-.004.004c-.008.01-1.193 1.61-1.73 1.71-.07-.035-.14-.07-.215-.103a.5.5 0 0 1 .044-.162c.122-.284.465-.717.465-.717s-.093.07-.123.096a4.25 4.25 0 0 1-.304.238c-.056.04-.114.072-.172.108-.064.04-.127.076-.188.105a.71.71 0 0 1-.263.086c-.043 0-.082-.005-.11-.027.453-.277 1.228-1.628 1.233-1.637zm-4.79 2.166a15.081 15.081 0 0 0-.913.006c-.286.01-.55.033-.817.053l-.002.002c-.28.123-.547.268-.783.459a.427.427 0 0 1 .035.168.431.431 0 0 1-.047.19l.885.642.022-.014-.36-1.264.623 1.114c.02-.008.042-.014.063-.02l-.02-1.236.397 1.162.476-1.149.018 1.268c.004.002.007.006.012.008l.712-1.006-.363 1.219.008.01 1.041-.692-.758 1.05v.007l.95-.34c.013-.017.03-.03.042-.047a.394.394 0 0 1 .395-.63c.119-.245.209-.504.268-.77a13.15 13.15 0 0 0-1.883-.19zm-2.507.133l-.02.002c-.308.036-.606.078-.892.125-.287.047-.562.1-.824.16l-.014.002c.115.388.294.756.531 1.08.108-.239.244-.461.402-.662a.436.436 0 0 1 .569-.557c.077-.058.166-.099.248-.15zm4.46.092a3.183 3.183 0 0 1-.163.826.394.394 0 0 1-.328.68 3.171 3.171 0 0 1-.55.63l.661.034-.994.236c-.026.018-.046.042-.072.059a3.194 3.194 0 0 1 1.537.691c.32-.574.504-1.235.504-1.94 0-.535-.237-.928-.594-1.216zm-6.318.226c-.296.07-.58.147-.85.23a1.462 1.462 0 0 0-.212.76c0 1.622.968 3.016 2.357 3.64l.002-.012a3.197 3.197 0 0 1-.58-.79.572.572 0 0 1-.336-1.078 3.18 3.18 0 0 1 .139-1.39 3.16 3.16 0 0 1-.52-1.36zm7.631.026c.14.41.225.842.225 1.293 0 2.44-2.203 4.418-4.92 4.418s-4.92-1.979-4.92-4.418c0-.236.023-.468.063-.694-.777.327-1.45.706-2.075 1.112-.214.388-.318.793-.283 1.2.085.985.951 1.807 2.274 2.364l-.256-.068c-2.29-.646-4.107.503-6.094-.494.46.364.984.717 2.498.722.513.002 2.158-.08 2.461.186.303.265-1.021 1.514-1.021 1.514s2.24-1.897 2.458-1.25c.137.402-.642 1.476-.642 1.476s.783-1.06 1.363-1.287c.4-.156.735-.136 1.022.266.19.265-.909 1.552-.909 1.552s1.476-1.439 1.74-1.363c.266.076 0 1.363 0 1.363s.545-1.306.835-1.402c.397-.133-.909 3.03-.909 3.03s1.595-2.925 1.893-2.991c.51-.114.852 2.043.852 2.043s-.249-1.885.02-2.006c1.694-.767.718 3.256.718 3.256s1.109-2.73.428-3.336C14.605 16.856 14.385 19 14.385 19s.472-1.02-.854-3.53c.72-.037 1.8 1.864 1.8 1.864s-1.173-2.081-.378-2.12c1.58-.074 1.74 2.765 1.74 2.765s.474-.398-.795-3.18c.808-.518 2.764 2.574 2.764 2.574s-1.804-3.017-1.514-3.219c.29-.202 1.35.96 1.35.96s-.808-1.11-.594-1.223c.215-.114 2.362 2.207 2.362 2.207s-1.895-2.271-1.567-2.55c.328-.277 1.717.784 1.717.784s-2.134-1.4-1.717-1.617c.58-.301 2.235.72 2.235.72s-.996-.82-.832-1.02c.164-.203 2.119 1.286 2.119 1.286s-1.728-1.364-1.817-1.705c-.088-.34 1.362.115 1.362.115s-1.602-.744-1.627-.959c-.026-.214 1.06.239 1.06.239s-1.49-1.224-1.855-.227c-.084.159-.187.3-.283.45.093-.27.135-.543.11-.82a1.87 1.87 0 0 0-.052-.28c-.683-.367-1.701-.933-3.133-1.336zm-5.83.455a.427.427 0 0 1-.508.164c-.054.073-.1.152-.148.23l1.277.471c.011-.014.02-.03.032-.043zm-.658.396c-.094.155-.18.316-.244.489.12.128.26.235.396.343l.922-.029.002-.004zm4.186.541l-.606.463.053.002c.201-.132.383-.29.553-.465zm-4.534.291c-.002.012-.007.023-.01.035a2.88 2.88 0 0 0-.048.958.567.567 0 0 1 .451.474l.937-.601c-.085-.03-.17-.06-.251-.096l-1.051-.076.638-.139a3.198 3.198 0 0 1-.666-.555zm.793.211c.138.086.28.16.43.223l.115-.024c0-.019.005-.037.006-.056zm3.12.68l.916.9-1.198-.466.703 1.078-1.072-.832-.012.006.346 1.279-.596-1.135-.097 1.33-.403-1.326-.47 1.262.113-1.36-.016-.007-.812 1.152.297-1.11a3.298 3.298 0 0 0-.793 1.19c.095.102.196.198.302.289a3.984 3.984 0 0 0 4.352-1.688 3.398 3.398 0 0 0-1.26-.539zm-2.436.223l-1.078.39c.001.018.01.033.01.051a.57.57 0 0 1-.184.42c.102.217.228.423.375.615a3.2 3.2 0 0 1 .32-.635l-.295.239zm3.633 2.79c-.186.049-.37.097-.56.137.192-.04.374-.09.56-.136zM13.172 15c-.114.02-.225.046-.34.063-.202.029-.391.042-.586.062.315-.033.624-.074.926-.125zm-1.35.17c-.11.008-.215.007-.324.012.11-.007.214-.003.324-.012z"/></svg>