<svg role="img" viewBox="0 0 24 24" xmlns="http://www.w3.org/2000/svg"><title>CD Projekt icon</title><path d="M10.168,14.083l5.452-3.766l-4.105,1.001l8.022-3.471l-6.612,0.81l3.539-2.585l-3.793,1.481l0.573-1.149L10.53,8.357 l-0.023-0.041L14.354,0L8.099,7.403L8.06,3.367L5.765,8.762l-0.119-1.59l-1.13,4.139l0.002-0.001v0.001c0,0,0.152-0.113,0.358-0.175 c0.001,0,0.002,0,0.002-0.001c-0.178,0.119-0.398,0.33-0.411,0.342c-0.001,0-0.002,0.001-0.002,0.001l0.001,0 c0,0-0.001,0.001-0.001,0.001c0.001,0,0.001,0,0.002-0.001l1.127,0.485c0.112,0.223,0.333,0.745,0.206,1.288 c-0.087,0.132-0.172,0.284-0.255,0.455L5.16,14.245l0.38-0.037c-0.325,0.746-0.563,1.721-0.563,3.111l0.309-0.196 c0.272,1.551,1.551,2.233,1.551,2.233l-0.002-0.01c0.673,0.441,1.488,0.753,2.384,0.891L9.2,20.349 c0.011,0.002,0.021,0.003,0.032,0.005c-0.254,0.231-0.579,0.57-0.869,0.88c-0.368,0.397-0.671,0.743-0.671,0.745 c-0.005,0.003-0.006,0.009-0.011,0.014c-0.24,0.066-0.648,0.178-0.919,0.252c-0.402,0.111-0.763,0.084-0.763,0.347 c0,0-0.416,0.223-0.319,0.556c0,0,0.835-0.667,1.55-0.78c0,0-0.437,0.284-0.397,0.669c0,0,0.588-0.88,1.276-0.346 c0,0-0.307-0.416-0.179-0.645c0.11-0.125,0.337-0.38,0.597-0.66c0.347-0.373,0.755-0.794,0.998-0.993 c0.046,0.005,0.074,0.008,0.074,0.008l0.01-0.113c0.015,0.002,0.029,0.005,0.044,0.005c0.512,0.044,1.009,0.026,1.484-0.043 c-0.001,0.018-0.002,0.037-0.002,0.055c0,0.307,0.17,0.56,0.388,0.581c-0.446,0.76-0.808,1.769-0.809,1.774 c-0.017,0.046-0.053,0.133-0.089,0.158c-0.111,0.025-0.119,0.03-0.241,0.068l0.002-0.002c-0.041-0.04-0.394-0.106-0.753,0.029 c0,0.002,0,0.002,0.003,0.003c-0.204,0.089-0.402,0.252-0.539,0.522c0.146-0.118,0.419-0.31,0.64-0.283 C9.473,23.303,9.02,23.589,8.968,24c0,0,1.576-1.106,2.353-0.902c0,0-0.113,0.129,0.154,0.606l0.122-0.445 c0.14-0.431-0.4-0.494-0.627-0.503c0.001-0.003,0.001-0.005,0.001-0.006c0,0,0.025-0.069,0.069-0.183 c0.134-0.345,0.445-1.109,0.786-1.653c0.006-0.011,0.011-0.024,0.014-0.035l0.067,0.092c0.014-0.009,0.27-0.203,0.27-0.619 c0-0.1-0.017-0.213-0.053-0.336l1.156-0.349l-0.255-0.21c0.393-0.163,0.668-0.279,1.215,0.04l1.537,0.907l0.389,0.226l-0.213-0.547 c1.267,0.373,2.296,0.388,2.986,0.073c0.017-0.008,0.034-0.015,0.048-0.021L10.168,14.083z"/></svg>