<svg role="img" viewBox="0 0 24 24" xmlns="http://www.w3.org/2000/svg"><title>&#268;esk&#233; dr&#225;hy</title><path d="M23.414 6.603a4.042 4.042 0 0 0-1.1-1.38c-.648-.518-1.376-.765-2.032-.89-.657-.124-1.26-.128-1.7-.128h-5.16l-.734-.001-2.177 10.242h1.855l1.792-8.425h4.425c.37 0 .791.005 1.207.07a3.5 3.5 0 0 1 .888.246c.408.187.745.445 1.02.907.271.463.484 1.17.484 2.268.002.641-.072 1.41-.245 2.32-.31 1.647-.697 2.853-1.112 3.724-.312.648-.636 1.106-.956 1.434a2.95 2.95 0 0 1-1.506.847c-.554.132-1.191.145-1.888.143H4.843c-.768.002-1.545-.206-2.079-.648a2.347 2.347 0 0 1-.667-.89c-.169-.387-.28-.886-.28-1.542 0-.419.047-.902.154-1.45.228-1.17.464-1.732.802-2.4.513-1.004 1.071-1.507 1.635-1.805.563-.295 1.177-.385 1.809-.385h4.451l.385-1.815H6.217c-.534 0-1.125.048-1.733.224-.915.257-1.863.827-2.624 1.828-.766.997-1.29 2.06-1.67 4.004A9.36 9.36 0 0 0 0 14.9c0 .862.15 1.622.433 2.268a4.171 4.171 0 0 0 1.945 2.068c.8.408 1.661.559 2.465.559h11.632c.633 0 1.317-.002 2.033-.134.539-.1 1.096-.28 1.633-.595.808-.47 1.536-1.235 2.127-2.346.598-1.113 1.08-2.58 1.454-4.551.19-1.001.278-1.879.278-2.658 0-1.182-.204-2.141-.586-2.91M4.7 12.84c.065-.182.113-.293.2-.481.081-.165.17-.31.246-.416.156-.22.3-.331.435-.408.204-.11.468-.16.854-.16h3.698l.387-1.815H6.435c-.35 0-.743.02-1.137.13a2.867 2.867 0 0 0-.865.423 3.17 3.17 0 0 0-.777.797 4.341 4.341 0 0 0-.293.47c-.133.253-.22.456-.312.69a6.19 6.19 0 0 0-.299 1.017c-.141.675-.215 1.236-.217 1.734.002.413.052.79.187 1.14.1.263.256.507.456.702.301.296.668.453 1.006.528.34.08.668.094.996.095h11.915c.303-.001.67-.001 1.09-.114.314-.083.647-.242.946-.487.448-.37.804-.892 1.117-1.608.316-.717.595-1.644.86-2.887.24-1.135.35-2.009.35-2.722 0-.517-.056-.954-.193-1.343a2.166 2.166 0 0 0-.454-.771 1.963 1.963 0 0 0-1.017-.566c-.33-.072-.613-.072-.838-.072h-4.29l-1.645 7.729h1.857l1.257-5.913h2.82c.702 0 .694.381.688.936-.007.521-.086 1.29-.313 2.346-.219 1.035-.444 1.8-.663 2.342a4.091 4.091 0 0 1-.453.869c-.207.274-.326.331-.458.381-.136.048-.344.066-.66.065H5.18c-.263 0-.367-.008-.487-.042a.475.475 0 0 1-.188-.105c-.116-.102-.156-.263-.156-.503.002-.312.034-.675.16-1.266.06-.287.14-.564.191-.715m7.107-8.634H3.814L3.429 6.02h6.219c1.909 0 2.16-1.815 2.16-1.815"/></svg>