<svg role="img" viewBox="0 0 24 24" xmlns="http://www.w3.org/2000/svg"><title>CGM Life</title><path d="M16.3 21.45q1.235.531 2.55.25-.024.116-.15.1a24 24 0 0 0 .05 2.15q-.192-.023-.35.05h-1.05a12 12 0 0 1-1.15-.25q-.049-1.178.1-2.3M3.6 21.1q.94.649 2.1.75.079.132.25.1V24H5.5q-1.188-.138-2.25-.7h.15q-.013-1.15.025-2.3.061.1.175.1m5.4-.8q.003.094-.075.15a27 27 0 0 0 .025 2.8q-1.141.589-2.4.75h-.6v-2.05q-.171.032-.25-.1 1.318.008 2.4-.725A21 21 0 0 0 9 20.3m11.8.25a39 39 0 0 1-.05 2.7q-.933.511-2 .7a24 24 0 0 1-.05-2.15q.126.016.15-.1 1.147-.286 1.95-1.15m-4.5.9q-.149 1.122-.1 2.3a5.7 5.7 0 0 1-1.2-.475q-1.297-.833-2.3-2.025a36 36 0 0 1 1.6-1.6 35 35 0 0 0 1.1 1.125 16 16 0 0 0 .9.675m-4.9-3.6q.126 1.529.15 3.1A69 69 0 0 1 10 22.525a22 22 0 0 1-1.05.725 27 27 0 0 1-.025-2.8q.078-.056.075-.15a42 42 0 0 1 2.4-2.45m3-3 .1 3.1a107.294 107.295 0 0 1-2.95 3q-.024-1.571-.15-3.1a127.399 127.4 0 0 1 3-3m-12.25 7.7Q.712 21.3.225 19.45q-.72-3.225 1.475-5.65.075.006.125-.05l.05 8.45.325.325q-.017.03-.05.025m20.4-8.35q.952 1.13 1.225 2.6.448 2.571-1.025 4.7-.046-.008-.075-.05l-.05-7a.8.8 0 0 0-.125-.2q.01-.046.05-.05m0 0q-.04.004-.05.05a.8.8 0 0 1 .125.2l.05 7q.029.042.075.05-.77 1.145-2 1.75a39 39 0 0 0 .05-2.7 7.872 7.873 0 0 0 .425-.6q1.163-2.369-.5-4.4A7.3 7.3 0 0 1 19.6 14.4a71 71 0 0 1 1.575-1.6 54.26 54.261 0 0 1 1.375 1.4m-6.6-.9q.126 1.504.15 3.05a36 36 0 0 1-1.6 1.6l-.1-3.1a34 34 0 0 1 1.55-1.55M3.6 21.1q-.114 0-.175-.1-.038 1.15-.025 2.3h-.15a6.3 6.3 0 0 1-1.1-.75q.033.005.05-.025l-.325-.325-.05-8.45q-.05.056-.125.05a11 11 0 0 1 1.075-1.05 72 72 0 0 1 1.575 1.6 25.183 25.184 0 0 0-1.575 1.7 4.4 4.4 0 0 0-.3.55q-.9 2.633 1.125 4.5M8.55 7q-.025 1.588.05 3.15a48 48 0 0 0-1.8 1.9 578 578 0 0 1 4.45 4.525L9.625 18.2a305 305 0 0 1-3.075-3.1 122 122 0 0 0 .025-6.05q-.109.147-.275.2A72 72 0 0 1 8.55 7m-2 8.1a132 132 0 0 0-3.05-3.05 111 111 0 0 1 2.8-2.8q.166-.053.275-.2a122 122 0 0 1-.025 6.05m9.25-7.7a608 608 0 0 1 4.65 4.625 532 532 0 0 1-4.35 4.325q-.024-1.546-.15-3.05a22 22 0 0 1 1.2-1.3l-1.45-1.5zm0 0-.1 3.1a127.399 127.4 0 0 1-3-3l1.6-1.65a16.5 16.5 0 0 1 1.5 1.55m5.8-1.95q.196.6 0 1.2a4.3 4.3 0 0 0 0-1.2m-9.8-1.7q-.024 1.558.05 3.15a149.323 149.324 0 0 1-3.25 3.25A49.647 49.648 0 0 1 8.55 7a149 149 0 0 1 3.25-3.25M1.05 2.65a114 114 0 0 1 0 6.75l-.325-.45Q.21 7.812 0 6.6V5.35q.165-.86.475-1.7.233-.542.575-1m21.8-.15q.884 1.302 1.15 2.85v1.1a14 14 0 0 1-.225 1.15q-.24 1.031-.875 1.85l-.1-6.9q.01-.046.05-.05M15.7.5q-.025 1.288.05 2.55l-3.9 3.85q-.074-1.592-.05-3.15a157.661 157.662 0 0 1 2.35-2.375 15 15 0 0 1 .95-.65q.279-.177.6-.225M1.9 1.65Q2 3.837 2 6.075 2 8.3 1.95 10.5a4.8 4.8 0 0 1-.9-1.1 114 114 0 0 0 0-6.75 4.7 4.7 0 0 1 .85-1m7.6-.5q.943.743 1.75 1.65l-1.5 1.55q-.207.072-.3-.15-.024-1.512.05-3.05M3.3.65h.25q-.013 1.225.025 2.45.073-.096.125 0-.714.602-1.125 1.45-.676 1.885.35 3.6A2932.756 2932.761 0 0 0 4.4 9.725 36 36 0 0 1 2.775 11.3a19 19 0 0 0-.825-.8Q2 8.3 2 6.075q0-2.238-.1-4.425.618-.61 1.4-1M20.75.7q1.286.619 2.1 1.8-.04.004-.05.05l.1 6.9q-.764 1.027-1.725 1.9L19.55 9.725Q20.42 8.93 21.125 8q.394-.619.475-1.35.195-.6 0-1.2-.216-1.106-.95-1.95-.05-1.427.1-2.8M7.85.3q.902.288 1.65.85a48 48 0 0 0-.05 3.05 28 28 0 0 1-1-.975q-.5-.389-1.05-.675.167-.024.275.1.037-1.15.025-2.3.097.018.15-.05M4.75.15q.055-.01.1.025A13 13 0 0 0 4.8 1.3q.002.593.1 1.15-.661.206-1.2.65-.052-.095-.125 0Q3.537 1.875 3.55.65H3.3a13 13 0 0 0 .65-.325 7 7 0 0 1 .8-.175M17.7 0h.8q1.192.139 2.25.7-.15 1.373-.1 2.8-.898-.886-2.15-1.1a5.4 5.4 0 0 0-.775-.15Q17.687 1.125 17.7 0m-.35 0h.35q-.013 1.125.025 2.25a5.4 5.4 0 0 1 .775.15q-1.516-.252-2.75.65A33 33 0 0 1 15.7.5q.372-.212.8-.325.44-.065.85-.175m-11 0h.3q.603.101 1.2.3-.053.068-.15.05.012 1.15-.025 2.3-.108-.124-.275-.1-.492-.092-.95-.25.042-.069-.1-.05Zm-1 0h1v2.25q.142-.019.1.05a5.4 5.4 0 0 0-1.55.15q-.098-.557-.1-1.15 0-.568.05-1.125Q4.805.14 4.75.15a4 4 0 0 1 .6-.15"/></svg>