<svg role="img" viewBox="0 0 24 24" xmlns="http://www.w3.org/2000/svg"><title>Chai icon</title><path d="M1.6075 6v12L12 24l10.3925-6V6L12 0 1.6075 6zm12.3119.8906c.5216-.0006 1.0388.1469 1.4203.4781.6839.5836.6956 1.6208.3656 2.4258-.4075 1.0183-1.2973 1.9294-2.3484 2.25l-.1477-.2461c.6017-.2985 1.0495-.8788 1.234-1.5223.1925-.6664.1007-1.4648-.348-1.9969-.5046-.626-1.5075-.684-2.2008-.3551-.8883.4083-1.4449 1.3025-1.7613 2.2043-.309.9054-.4325 1.8388-.2426 2.7738.2416 1.1954.8941 2.4527 2.0637 2.9496 1.1365.498 2.4549-.1001 3.2309-.9809l.232.225c-.8777 1.121-2.2841 2.0682-3.7477 2.0883-1.0131.0056-1.8972-.582-2.4785-1.3816-.5825-.7996-.9291-1.8115-.9316-2.7949.0133-1.5034.8024-2.9653 1.8035-4.0852.6963-.772 1.5387-1.4037 2.4891-1.7684.457-.1756.9128-.2635 1.3675-.2635z"/></svg>