<svg role="img" viewBox="0 0 24 24" xmlns="http://www.w3.org/2000/svg"><title>Chanel</title><g transform="matrix(0.01254888,0,0,-0.01389997,-6.809834,25.952858)"><path d="m 1459,1259.2232 c -38,-29.2009 -86,-111.3283 -105,-179.7678 -23,-83.95243 -15,-197.10578 20,-267.37034 37,-74.8272 75,-124.10364 107,-139.6166 27,-11.86284 30,-10.95032 64,15.51296 45,36.50107 100,141.44165 115,219.91895 22,112.24083 -21,256.42003 -100,338.54743 -37,39.2387 -64,42.8888 -101,12.7754 z m 122,-100.3779 c 54,-94.9028 62,-225.39423 20,-325.77213 -25,-60.22676 -90,-147.82933 -103,-140.52912 -6,3.65011 -27,30.11339 -48,59.31424 -53,74.8272 -74,151.47944 -68,251.85741 5,87.6026 29,147.8293 87,219.919 l 32,39.2386 31,-34.676 c 16,-19.1631 39,-50.189 49,-69.352 z m -496,412.4621 c -175,-23.7257 -331,-108.5907 -435,-235.4319 -27,-32.851 -50,-62.0519 -50,-64.7894 0,-2.7376 42,-24.6383 94,-47.4514 l 95,-42.8888 21,31.0259 c 79,116.8034 278,194.3682 436,170.6425 37,-5.4751 68,-11.8628 71,-14.6004 2,-1.8251 -12,-23.7257 -31,-49.2765 -77,-96.7278 -116,-212.6187 -116,-344.02253 0,-135.05401 43,-255.50754 124,-353.14791 l 35,-41.97623 -82,-10.95032 c -97,-11.86285 -191,1.82506 -277,41.06371 -50,23.72569 -148,102.20299 -167,135.05396 -9,15.51295 -17,13.6879 -106,-26.46328 l -95,-43.80128 30,-40.15118 C 676,576.65315 769,496.3508 834,459.84973 1022,356.7342 1270,343.95883 1451,427.91129 l 48,21.90064 53,-22.81317 c 130,-53.83907 306,-69.35203 438,-37.41359 140,34.67601 285,124.10364 371,229.95674 21,26.46328 39,51.1015 39,52.92655 0,2.73758 -41,23.7257 -92,47.4514 l -91,41.97623 -26,-31.02591 C 2083,604.02896 1921,543.80219 1753,568.44041 c -37,5.47516 -69,11.86285 -71,13.6879 -2,0.91253 13,21.90065 33,46.53887 104,124.10364 146,299.30878 111,459.91352 -19,84.865 -81,212.6187 -121,246.3822 -14,11.8629 -25,24.6382 -25,28.2884 0,3.6501 32,11.8628 72,17.338 159,24.6382 327,-33.7635 427,-148.7419 16,-19.1631 31,-39.2387 33,-44.7138 4,-10.0378 187,74.8272 188,87.6026 0,15.5129 -72,95.8153 -129,144.1792 -68,57.4892 -189,117.7159 -281,139.6166 -133,31.9384 -308,17.338 -438,-36.5011 l -53,-22.8132 -48,21.9007 c -96,44.7138 -252,65.7019 -366,50.189 z m 195,-36.5011 c 35,-4.5626 96,-20.9881 135,-36.5011 85,-31.9384 98,-32.8509 167,-3.6501 77,31.9384 208,52.9266 290,46.5389 87,-7.3002 210,-42.8888 273,-79.3899 109,-62.0518 207,-156.042 190,-181.5928 -7,-10.9503 -79,-45.6263 -95,-45.6263 -5,0 -36,23.7257 -68,52.9265 -73,66.6145 -155,105.8531 -260,125.0162 -91,17.338 -182,10.0378 -228,-18.2505 -34,-20.0756 -30,-41.0637 21,-121.3661 69,-105.8531 90,-177.0302 90,-298.39623 0,-117.716 -23,-196.1933 -81,-282.88334 -61,-91.25268 -64,-96.72784 -53,-116.80343 17,-27.3758 74,-43.80128 158,-43.80128 141,0 252,40.15117 349,126.84122 30,25.55074 60,47.45139 68,47.45139 16,0 70,-22.81317 92,-39.23865 10,-7.30022 9,-13.68791 -5,-32.85097 -55,-77.56477 -179,-158.77965 -303,-197.10578 -73,-21.90064 -100,-25.55075 -195,-25.55075 -99,0 -119,2.73758 -200,29.20086 -108,36.50107 -141,41.97623 -158,30.11338 -21,-15.51295 -133,-46.53886 -204,-56.57666 -188,-28.28833 -403,41.97623 -540,176.11767 -29,28.28833 -53,56.57666 -53,63.87687 0,6.38769 24,23.7257 53,37.4136 l 52,24.63822 38,-37.4136 c 112,-108.59068 261,-159.69218 421,-144.17922 56,5.47516 75,10.95032 95,30.11338 l 26,23.72569 -24,38.32613 c -104,166.9924 -121,215.35631 -121,349.49777 0,114.06583 26,199.84333 92,301.13383 26,40.1512 48,77.5648 48,82.1274 0,23.7257 -49,49.2765 -115,59.3143 -133,20.9881 -280,-26.4633 -397,-126.8413 l -69,-60.2267 -55,24.6382 -55,24.6382 18,28.2883 c 29,45.6264 138,131.4039 211,166.0799 130,62.0518 253,81.2149 392,60.2268 z"/></g></svg>