<svg role="img" viewBox="0 0 24 24" xmlns="http://www.w3.org/2000/svg"><title>Charles</title><path d="M10.494.014c-.103.012-.385.052-.623.081-.239.03-.705.116-1.041.186L8.222.41l-.884-.14C5.706.014 3.694.043 2.252.34.788.635-.199 1.192.034 1.586c.033.058.358.36.721.673C2.29 3.576 3.05 4.574 3.488 5.867c.228.673.31 1.184.304 2.002-.005.957-.114 1.461-.732 3.44-.271.864-.564 1.914-.65 2.331-.142.69-.158.853-.158 1.857 0 1.085.043 1.52.239 2.384.287 1.27.986 2.53 1.897 3.417.337.325.45.47.429.55-.049.186.092.505.32.755.585.626 1.887 1.16 3.27 1.334.71.093 2.18.081 2.863-.023.531-.081 1.47-.32 1.746-.435.59-.255 1.117-.592 1.383-.882.444-.481.45-.493.417-.777-.032-.238-.022-.261.168-.412.255-.203 1.069-1.08 1.29-1.387.201-.278.576-.962.69-1.264.103-.255.14-.261.309-.07.368.418 1.122.766 1.529.708.352-.052.596-.383.406-.551-.037-.035-.265-.15-.51-.261a4.335 4.335 0 0 1-.64-.36l-.2-.168.022-.435c.032-.754.25-1.085 1.93-2.953 1.345-1.496 1.595-1.798 2.148-2.593.58-.83.884-1.357 1.247-2.175.727-1.648.976-3.44.662-4.763-.5-2.105-2.392-3.683-4.398-3.666-1.128.006-2.093.453-3.107 1.433-.575.557-.69.505-.526-.226.097-.458.08-.667-.082-1.015-.325-.69-1.6-1.34-3.064-1.567-.46-.07-1.876-.121-2.196-.08zm9.962 3.208c1.106.36 2.022 1.37 2.326 2.558.2.8.054 2.274-.342 3.423a11.632 11.632 0 0 1-1.014 2.1c-.33.533-1.301 1.81-1.849 2.425a43.744 43.744 0 0 0-1.513 1.786c-.303.383-.51.592-.57.58-.075-.017-.091-.15-.118-.945a19.086 19.086 0 0 0-.917-5.221c-.206-.627-.26-1.01-.157-1.079.043-.029.314-.052.602-.052.336 0 .537-.023.564-.064.022-.04-.13-.244-.374-.493-.423-.435-.586-.702-.722-1.178-.168-.591-.032-1.549.304-2.18.477-.888 1.388-1.596 2.283-1.764.401-.076 1.09-.03 1.497.104zm-8.888 3.829c.098.035.25.122.342.203.119.11.2.139.309.116.227-.052.748.22.867.44.05.1.136.238.19.308.081.104.098.186.07.424-.026.255-.01.33.104.51.092.15.135.29.135.47 0 .203.016.25.082.226a.178.178 0 0 0 .08-.145c0-.209.158-.516.294-.58.081-.04.233-.052.38-.029.227.04.249.052.227.186-.016.08.01.18.06.226.076.087.076.098-.017.174-.092.07-.097.099-.038.26.066.187.066.187-.086.158-.087-.018-.168-.024-.185-.006-.016.017.017.214.076.435.136.516.13.661-.027 1.12-.103.307-.12.429-.081.626.081.458.054 1.67-.06 2.425a14.166 14.166 0 0 1-.38 1.827c-.227.847-.482 2.419-.471 2.912.005.261.027.487.043.505.016.017.125-.11.233-.279.239-.371.45-.557.852-.748.162-.076.341-.197.396-.267.157-.186.254-.162.195.052-.027.093-.033.174-.022.174.016 0-.016.07-.076.163-.054.087-.13.272-.168.417-.038.145-.12.337-.179.424-.081.122-.092.185-.049.232.044.046.141-.03.37-.284.346-.377.53-.615.563-.708.043-.122.602-.708.645-.679.027.018.06.006.082-.029.086-.15.119-.017.114.424l-.011.475-.293.343c-.163.191-.515.591-.786.893-.266.296-.624.702-.787.893a4.493 4.493 0 0 1-.596.569c-.298.214-.927.475-1.329.557-.119.017-.265.052-.325.07-.255.063-2.863.075-3.525.01a31.86 31.86 0 0 0-.873-.08.816.816 0 0 1-.217-.047.532.532 0 0 0-.211-.035c-.52-.011-.938-.121-1.226-.33-.114-.081-.27-.145-.347-.145-.076 0-.135-.03-.135-.058 0-.035-.038-.058-.082-.058-.043 0-.081-.03-.081-.058 0-.035-.027-.058-.06-.058-.065 0-.287-.21-.607-.575-.125-.139-.31-.342-.401-.446-.098-.105-.18-.21-.18-.232 0-.03-.048-.099-.108-.168-.217-.244-.325-.378-.298-.378.01 0-.027-.11-.081-.243-.212-.5-.087-.54.19-.076.108.174.227.32.265.32.103 0 .336.301.494.638.07.15.255.417.401.597l.277.32.233-.059c.124-.035.25-.087.276-.11.065-.064-.179-.424-.667-.98-.401-.459-.504-.644-.325-.598.06.017.12.052.13.081.016.023.114.03.212.012a.994.994 0 0 1 .433.058c.206.075.25.075.25.011 0-.046-.022-.098-.054-.116-.028-.017-.044-.116-.033-.22a.732.732 0 0 0-.184-.505c-.017-.017-.033-.122-.044-.232l-.016-.197.152.145c.087.081.233.186.33.226.098.04.25.163.331.273.147.186.168.197.39.162.131-.023.256-.052.277-.063.033-.024.299.092.602.255.022.011.038 0 .038-.03 0-.028-.087-.098-.19-.15-.238-.122-.238-.197-.005-.244.222-.046.347-.011.721.192.304.162.418.145.26-.047-.124-.15-.07-.319.071-.226.179.122.293.418.282.754-.01.435-.01.43.114.308.07-.07.097-.145.076-.227-.212-.76-.25-1.073-.288-2.326l-.01-.301-.18.07c-.092.034-.292.138-.439.231-.33.21-.623.244-1.008.128-.163-.046-.429-.128-.591-.174-.163-.047-.315-.122-.337-.163-.103-.168-.113-.446-.027-.58.12-.18.109-.22-.07-.22-.081 0-.222-.023-.31-.052a2.013 2.013 0 0 0-.39-.087 1.48 1.48 0 0 1-.276-.058c-.022-.018-.223-.047-.445-.07-.217-.017-.428-.064-.466-.093-.076-.064-.054-.203.06-.446.048-.099.075-.18.054-.18-.022 0 0-.04.038-.099a.316.316 0 0 0 .07-.127c-.032-.151.369-.934.548-1.085.179-.145.537-.25.835-.255h.19l-.141-.163c-.288-.325-.374-.603-.358-1.172.016-.667.049-.702.754-.835.72-.14.894-.087 1.247.371.087.11.12.128.14.064.06-.168.283-.354.413-.354.076 0 .304.105.504.232.206.128.396.232.429.232.108.006.488.36.634.586.141.232.211.569.222 1.08 0 .202.033.3.125.388.157.156.217.383.233.858.011.343 0 .406-.114.528-.135.145-.553.25-.743.186-.119-.04-.146.104-.195 1.073-.049.951.076 2.065.288 2.581l.157.39.206-.239.206-.238.087.14c.076.116.108.133.195.08.12-.063.293-.278.298-.353 0-.029-.027-.029-.054-.012-.033.018-.054.006-.054-.029 0-.034-.033-.058-.065-.052-.125.018-.423-.075-.423-.133 0-.03-.022-.04-.054-.018-.066.047-.489-.365-.489-.475 0-.07.017-.076.076-.024.044.041.136.053.212.035.087-.023.195.006.314.081.38.25.418.134.082-.237-.271-.308-.347-.51-.44-1.195-.027-.203.05-.25.13-.076.033.058.169.168.304.238.353.186.727.696.922 1.27.157.465.25.563.418.465.049-.03.103-.151.124-.267.022-.122.136-.528.25-.905.266-.836.325-1.38.184-1.549-.07-.087-.157-.116-.33-.104-.402.011-.64-.256-.722-.83-.054-.36-.005-.394.537-.418.44-.023.602.053.84.389.12.174.142.25.12.452-.109 1.01-.168 1.37-.315 1.932-.092.348-.179.743-.195.864-.027.204-.022.22.07.18.06-.029.207-.058.337-.075l.233-.023-.173.26c-.217.331-.19.424.119.413.179-.006.233-.03.244-.116.005-.064.027-.279.043-.488.033-.348.13-.812.418-1.972.06-.238.14-.58.179-.754.043-.174.097-.383.124-.464.093-.244.244-1.16.342-2.048.049-.452.038-1.3-.022-1.357-.06-.064-.146.296-.103.417.06.145.055.192-.108 1.004-.103.51-.157.679-.255.754-.065.052-.19.168-.277.261-.086.087-.2.157-.254.157-.098-.006-.337-.36-.472-.714-.044-.116-.103-.22-.136-.243-.12-.082-.282-.842-.26-1.224.022-.406.005-.43-.255-.273-.32.191-1.491.064-1.535-.168-.005-.047.066-.198.169-.343.276-.388.428-.91.314-1.061-.049-.058-.038-.087.033-.122.092-.035.092-.04.005-.093-.157-.093-.108-.156.109-.15.195.011.2.005.211-.21.01-.237.184-.585.315-.643.054-.018.08-.116.08-.279 0-.191-.015-.226-.064-.174-.12.128-.45.081-.63-.093a1.98 1.98 0 0 0-.363-.272c-.2-.11-.27-.203-.683-.894a5.034 5.034 0 0 0-.396-.55c-.108-.122-.19-.25-.179-.29.017-.041.168-.059.45-.047.234.006.624-.023.863-.07.542-.098.764-.11.992-.04zm-3.427.435c.07.058.179.075.325.052.2-.029.233-.017.266.093.027.093-.01.191-.152.371-.173.226-.396.371-1.014.673-.466.226-.586.342-.634.586-.027.145-.082.209-.255.29-.125.058-.26.15-.304.215-.157.208-.526.8-.613.974-.076.157-.336.47-.547.65a.328.328 0 0 1-.196.075c-.097 0-.108-.04-.119-.365a35.512 35.512 0 0 0-.022-.575c-.005-.237.098-.452.228-.452.103 0 .098-.093-.005-.14-.12-.046-.098-.324.043-.55l.206-.348a.302.302 0 0 1 .255-.169c.2-.023.195-.005.098-.22a1.672 1.672 0 0 1-.114-.325l-.038-.15.238.086c.125.047.255.11.288.14.087.092.135.058.135-.1 0-.144.028-.179.472-.568.255-.214.575-.313.7-.203.054.047.097.047.146.006.033-.035.152-.07.255-.087.103-.011.206-.029.222-.029.017-.006.076.023.136.07z"/></svg>