<svg role="img" viewBox="0 0 24 24" xmlns="http://www.w3.org/2000/svg"><title>Chedraui</title><path d="M9.375 14.202H7.532a.172.172 0 0 0-.122.05l-4.64 4.673a.172.172 0 0 0 .122.293H4.7c.046 0 .09-.018.122-.05l4.673-4.673a.171.171 0 0 0-.12-.293zm-6.037 2.71H2.112a.172.172 0 0 0-.122.05l-.093.095L.05 18.925a.172.172 0 0 0 .122.293h1.201c.046 0 .09-.018.12-.05l1.964-1.963a.17.17 0 0 0-.12-.293zm11.123-1.274a.172.172 0 0 0-.122-.05h-4.032a.172.172 0 0 0-.122.05l-3.263 3.287a.172.172 0 0 0 .122.293h1.802c.045 0 .09-.018.122-.05l3.242-3.242a.172.172 0 0 1 .242 0l3.242 3.242c.033.032.077.05.12.05h1.79c.153 0 .23-.184.122-.293l-3.265-3.287zM4.266 12.192H2.343a.17.17 0 0 0-.17.17v3.992c0 .094.076.17.17.17h1.874a.17.17 0 0 0 .17-.17v-1.532c0-.153.186-.23.294-.122l.612.612a.171.171 0 0 0 .244-.002l.814-.841a.17.17 0 0 0-.002-.24l-1.963-1.987a.166.166 0 0 0-.12-.05zm5.187-4.29H7.53a.17.17 0 0 0-.17.17v5.447c0 .094.076.17.17.17h2.499a.17.17 0 0 0 .17-.17v-2.364c0-.153.186-.23.294-.12l.403.348c.11.11.295.031.293-.124l-.02-1.673a.173.173 0 0 0-.048-.119L9.576 7.952a.18.18 0 0 0-.123-.05zm4.192 1.408H11.723a.17.17 0 0 0-.17.17v4.125c0 .045-.019.09-.051.122l-1.112 1.111a.172.172 0 0 0 .12.293l3.759.009a.172.172 0 0 0 .172-.171v-2.827c0-.153.186-.23.293-.123l1.156 1.156c.032.033.076.05.122.05l1.178-.006a.172.172 0 0 0 .12-.293l-3.543-3.568a.178.178 0 0 0-.122-.048zm-.971-.36a1.325 1.325 0 1 0 0-2.65 1.325 1.325 0 0 0 0 2.65zm-9.481 2.9a1.207 1.207 0 1 0 0-2.414 1.207 1.207 0 0 0 0 2.414zm5.33-4.33a1.399 1.399 0 1 0-.001-2.797 1.399 1.399 0 0 0 .001 2.798zm15.301 6.695-5.682-.006a.117.117 0 0 1-.084-.035l-.477-.45a.444.444 0 0 0-.886.065.447.447 0 0 0 .559.43l.778.777c.02.02.034.043.042.069l.967 2.988c.023.07.09.119.163.119h.385a.586.586 0 1 0 .54 0h2.359a.586.586 0 1 0 .54 0h.371A.17.17 0 0 0 23.57 18l.015-.117a.256.256 0 0 0-.256-.287h-3.756c-.072 0-.132-.042-.137-.097 0-.007-.001-.012-.003-.018l-.125-.394a.125.125 0 0 1 .107-.163h3.976a.348.348 0 0 0 .345-.306l.262-2.222.002-.02a.18.18 0 0 0-.176-.162zm-4.827-.47a1.116 1.116 0 1 0-.002-2.231 1.116 1.116 0 0 0 .002 2.23z"/></svg>