<svg role="img" viewBox="0 0 24 24" xmlns="http://www.w3.org/2000/svg"><title>Chegg</title><path d="M9.164 9.861a1.902 1.902 0 0 0-1.485-.45 1.346 1.346 0 0 0-.794.344V7.638l-1.324.227v6.185h1.324v-2.287c-.027-.911.317-1.134.831-1.134.507 0 .783.34.783 1.073v2.344h1.27v-2.563c0-.756-.22-1.266-.605-1.622zm-5.772 3.044a2 2 0 0 0 1.009-.33l.227-.15.578.997-.193.133a3.19 3.19 0 0 1-3.258.215 3.21 3.21 0 1 1 3.258-5.515l.193.136-.578.994-.227-.147a2 2 0 1 0-1.01 3.667ZM22.944 9.74l-.004.034-.026-.022a1.773 1.773 0 0 0-1.176-.363 2.295 2.295 0 0 0-2.257 2.325c0 1.285 1.013 2.325 2.257 2.325a2.162 2.162 0 0 0 .896-.19l.042-.018-.016.041a1.16 1.16 0 0 1-1.1.78h-.064a1.18 1.18 0 0 1-.817-.3l-.056-.049-.722.817.053.053c.457.453 1.153.661 1.603.661 1.417 0 2.442-1.024 2.442-2.434v-4h-.983zm-1.104 3.085c-.578 0-1.047-.499-1.047-1.111 0-.613.469-1.112 1.047-1.112.575 0 1.043.5 1.043 1.112 0 .612-.468 1.111-1.043 1.111zM18.18 9.74l-.007.034-.026-.022a1.77 1.77 0 0 0-1.176-.363 2.295 2.295 0 0 0-2.257 2.325c0 1.281 1.013 2.325 2.257 2.325a2.162 2.162 0 0 0 .896-.19l.045-.022-.015.045a1.16 1.16 0 0 1-1.1.783h-.064a1.18 1.18 0 0 1-.817-.303l-.057-.049-.718.82.05.05c.457.454 1.152.661 1.602.661 1.414 0 2.442-1.024 2.442-2.434v-4h-.983zm-1.107 3.085c-.575 0-1.043-.499-1.043-1.111 0-.616.468-1.115 1.043-1.115.578 0 1.047.499 1.047 1.115 0 .612-.469 1.111-1.047 1.111zm-7.05-1.066c0-1.338.975-2.382 2.222-2.382 1.24 0 2.216 1.044 2.216 2.382 0 .17-.012.34-.038.507h-3.07l.015.045c.06.204.19.382.37.5.175.112.379.184.587.196a1.316 1.316 0 0 0 1.122-.428l.787.545a2.306 2.306 0 0 1-1.906 1.02 2.348 2.348 0 0 1-2.306-2.385zm1.217-.393v.038h2.105v-.038a1.051 1.051 0 0 0-1.75-.718 1.115 1.115 0 0 0-.355.718z"/></svg>