<svg role="img" viewBox="0 0 24 24" xmlns="http://www.w3.org/2000/svg"><title>Cherry</title><path d="M13.532 13.807a11.9 11.9 0 0 0 .968.96 15.058 15.058 0 0 0 1.943 1.448 17.845 17.845 0 0 0 1.307.75 5.538 5.538 0 0 1-.744 4.63 5.494 5.494 0 0 1-4.021 2.377 5.543 5.543 0 0 1-4.431-1.53 5.538 5.538 0 0 1-1.647-4.39l.013-.132a6.403 6.403 0 0 0 6.612-4.113zM11.398.39a1.55 1.55 0 0 1 1.546-.301 1.55 1.55 0 0 1 1.014 1.208 1.551 1.551 0 0 1-.286 1.184l-.031.038c-.01.015-.022.03-.029.047a.172.172 0 0 0-.001.133l.04.1.161.397a81.312 81.312 0 0 0 3.717 7.85.342.342 0 0 0 .387.164 186.681 186.681 0 0 1-2.942-7.302c1.388.333 2.732.88 3.87 1.782 1.149.914 1.954 2.085 2.465 3.45.997 2.67.782 5.817.17 8.466-2.742-.924-5.756-2.416-7.665-4.788a6.397 6.397 0 0 0-1.79-5.833 8.843 8.843 0 0 1 .342-1.648 9.644 9.644 0 0 1 .384-1.034l.044-.104.027-.06a.159.159 0 0 0 .011-.08c-.006-.035-.02-.062-.034-.092l-.013-.03-.014-.03-.054-.116-.216-.472-.025-.06c-.01-.02-.018-.042-.029-.063a.172.172 0 0 0-.154-.095l-.061-.007a1.499 1.499 0 0 1-.12-.02l-.06-.014-.03-.008c-.016-.004-.03-.009-.046-.012a.174.174 0 0 0-.151.05l-.016.017-.018.021-.038.044-.15.179a14.8 14.8 0 0 0-1.815 2.735 3.216 3.216 0 0 0-.054.104c-.008.018-.018.036-.027.052a.224.224 0 0 0-.021.068.173.173 0 0 0 .059.147.197.197 0 0 0 .063.036 5.449 5.449 0 0 1 .958.552 5.532 5.532 0 0 1 1.328 1.345 5.547 5.547 0 0 1 .965 3.686 5.534 5.534 0 0 1-1.543 3.336 5.542 5.542 0 0 1-8.894-6.409A5.537 5.537 0 0 1 7.32 6.015a5.659 5.659 0 0 1 .946.042.172.172 0 0 0 .14-.056.277.277 0 0 0 .033-.05l.012-.027.053-.108.052-.108.056-.107a16.36 16.36 0 0 1 2.111-3.176l.154-.18.04-.045a.173.173 0 0 0 .03-.177 1.918 1.918 0 0 1-.037-.135A1.552 1.552 0 0 1 11.4.39z"/></svg>