<svg role="img" viewBox="0 0 24 24" xmlns="http://www.w3.org/2000/svg"><title>Cherry</title><path d="m 13.53142,13.80732 c 0.3036,0.33858 0.62838,0.65916 0.96852,0.9606 0.25632,0.22764 0.52224,0.4452 0.79446,0.6522 0.37044,0.28338 0.75468,0.54768 1.149,0.79554 0.4044,0.25578 0.82044,0.49404 1.24392,0.7164 0.02016,0.0117 0.0414,0.0228 0.06264,0.03342 a 5.53776,5.53776 0 0 1 -0.74352,4.63038 C 16.0846,22.95282 14.61724,23.80884 12.98482,23.9718 11.3545,24.1347 9.72634,23.5881 8.554,22.4412 A 5.53764,5.53764 0 0 1 6.90724,18.0513 c 0.00426,-0.04404 0.00744,-0.08862 0.01278,-0.13158 0.5418,0.05358 1.06932,0.03816 1.60746,-0.04566 2.27826,-0.35556 4.1904,-1.9089 5.004,-4.06674 z M 11.39842,0.39 C 11.8198,0.01584 12.4126,-0.0993 12.94438,0.0891 a 1.54992,1.54992 0 0 1 1.01364,1.20732 C 14.0047,1.57344 13.975,1.85736 13.87258,2.1195 a 1.53318,1.53318 0 0 1 -0.2001,0.36144 c -0.01008,0.01272 -0.02016,0.02598 -0.03132,0.0387 -0.01008,0.0144 -0.02124,0.02922 -0.02862,0.0462 -0.01914,0.04404 -0.01806,0.09072 -0.0011,0.13374 0.0132,0.03288 0.027,0.06636 0.03978,0.09924 0.05358,0.1332 0.10776,0.26532 0.16134,0.3975 0.10722,0.2622 0.21492,0.5232 0.32532,0.78438 1.03434,2.4603 2.13072,4.71468 3.39222,7.06512 a 0.3423,0.3423 0 0 0 0.3869,0.16452 C 16.85296,8.72298 15.9364,6.43782 14.97478,3.90852 c 1.3878,0.33222 2.73204,0.8799 3.86988,1.78206 1.14894,0.91332 1.95402,2.08404 2.46456,3.44952 0.9972,2.66892 0.78276,5.8164 0.1698,8.46678 -2.74212,-0.92502 -5.75538,-2.4174 -7.66434,-4.788 0.42936,-2.1222 -0.24408,-4.3182 -1.7895,-5.83446 0.06102,-0.56358 0.17622,-1.107 0.3423,-1.6473 0.08652,-0.28074 0.18468,-0.5562 0.29616,-0.82734 0.02808,-0.069 0.05676,-0.13854 0.08646,-0.207 0.0144,-0.03498 0.02976,-0.06948 0.04458,-0.10344 0.0085,-0.01968 0.0186,-0.03876 0.02658,-0.0594 A 0.15882,0.15882 0 0 0 12.83236,4.0587 C 12.82708,4.02366 12.81274,3.9966 12.79894,3.9669 l -0.0138,-0.02916 -0.0138,-0.0303 C 12.75334,3.86868 12.73582,3.82998 12.71776,3.79068 A 73.16052,73.16052 0 0 1 12.5023,3.31836 C 12.4938,3.2982 12.48478,3.27858 12.47632,3.25836 12.46672,3.23826 12.45826,3.21696 12.44812,3.19632 A 0.1716,0.1716 0 0 0 12.31924,3.10236 0.20502,0.20502 0 0 0 12.29374,3.1008 C 12.27358,3.09864 12.25234,3.09654 12.23272,3.0939 A 1.49892,1.49892 0 0 1 12.11224,3.07374 C 12.09316,3.06948 12.07246,3.06522 12.05284,3.05994 L 12.02308,3.0525 C 12.00718,3.04824 11.99284,3.0429 11.97688,3.04026 a 0.1743,0.1743 0 0 0 -0.1518,0.04992 c -0.0052,0.00528 -0.0095,0.01116 -0.01536,0.01698 -0.0069,0.0069 -0.01272,0.01488 -0.0186,0.02124 -0.01272,0.01536 -0.02646,0.03078 -0.03816,0.04404 -0.04986,0.0594 -0.1008,0.11886 -0.15018,0.17832 a 14.5158,14.5158 0 0 0 -0.57582,0.73608 14.79972,14.79972 0 0 0 -1.01628,1.5852 C 9.93424,5.80842 9.85948,5.9469 9.78832,6.08598 A 3.216,3.216 0 0 0 9.73474,6.18996 0.81408,0.81408 0 0 1 9.70768,6.24252 C 9.69754,6.26478 9.68908,6.28656 9.68644,6.31044 a 0.17298,0.17298 0 0 0 0.05892,0.147 c 0.0186,0.01698 0.04032,0.02706 0.06312,0.03612 0.06528,0.0297 0.13056,0.06048 0.1953,0.09234 0.26802,0.1326 0.52062,0.285 0.7632,0.459 a 5.53146,5.53146 0 0 1 1.3278,1.34532 5.54688,5.54688 0 0 1 0.9648,3.68574 5.53434,5.53434 0 0 1 -1.54332,3.33648 A 5.53248,5.53248 0 0 1 7.8847,17.082 5.54178,5.54178 0 0 1 4.32478,16.062 5.5338,5.5338 0 0 1 2.13142,12.7398 5.5356,5.5356 0 0 1 2.62228,9.00318 5.5365,5.5365 0 0 1 5.52946,6.38952 5.50914,5.50914 0 0 1 7.32004,6.01482 c 0.29664,-0.01218 0.58962,0 0.8847,0.0345 C 8.2249,6.05196 8.24506,6.05514 8.26576,6.0573 A 0.17178,0.17178 0 0 0 8.4064,6.00102 C 8.4196,5.98566 8.4292,5.96862 8.4388,5.95116 8.44192,5.94264 8.4472,5.93316 8.45146,5.9241 8.46898,5.8875 8.48596,5.85192 8.50402,5.81634 L 8.5567,5.7078 8.61178,5.60088 C 8.68288,5.4576 8.75716,5.31588 8.83468,5.1753 A 16.36092,16.36092 0 0 1 9.84934,3.54972 C 10.03246,3.2913 10.2235,3.03762 10.42198,2.7903 a 18.0348,18.0348 0 0 1 0.3009,-0.36564 c 0.05148,-0.06 0.10242,-0.1194 0.1539,-0.1788 0.0138,-0.01596 0.0276,-0.0303 0.04086,-0.04566 A 0.1734,0.1734 0 0 0 10.95532,2.05422 0.27522,0.27522 0 0 0 10.94632,2.02296 0.243,0.243 0 0 0 10.93834,1.99692 1.9176,1.9176 0 0 1 10.9102,1.88814 C 10.78816,1.33782 10.97548,0.7641 11.39842,0.38994 Z"/></svg>