<svg role="img" viewBox="0 0 24 24" xmlns="http://www.w3.org/2000/svg"><title>Cherry</title><path d="m 13.531426,13.807332 c 0.303558,0.33858 0.628344,0.659124 0.96852,0.960564 0.256332,0.227664 0.52221,0.445254 0.79446,0.652224 0.370422,0.283392 0.75465,0.54768 1.148958,0.795516 0.404388,0.255792 0.820458,0.494076 1.243956,0.716442 0.02016,0.01168 0.04139,0.02282 0.06262,0.03343 0.45003,1.578294 0.17778,3.27387 -0.743508,4.630332 -0.921822,1.35699 -2.3892,2.213004 -4.02162,2.375928 C 11.354504,24.134692 9.726332,23.588074 8.554016,22.44124 7.38224,21.2944 6.779366,19.686922 6.907262,18.05131 6.911522,18.00727 6.914692,17.96269 6.92,17.9197 c 0.541842,0.0536 1.069356,0.03821 1.607484,-0.04564 2.278284,-0.355566 4.190382,-1.908918 5.00394,-4.066734 z M 11.39845,0.389976 c 0.421374,-0.374136 1.014162,-0.4893 1.545918,-0.3009 0.53229,0.18786 0.92076,0.649572 1.013634,1.207332 0.0467,0.27702 0.01698,0.560946 -0.08544,0.823116 -0.05095,0.130548 -0.11622,0.248364 -0.200076,0.361404 -0.01008,0.012732 -0.02016,0.026004 -0.03131,0.038736 -0.01008,0.014334 -0.02123,0.02919 -0.02866,0.046176 -0.0191,0.04404 -0.01804,0.090744 -0.0011,0.133734 0.01327,0.032904 0.02707,0.066336 0.0398,0.09924 0.0536,0.1332 0.10773,0.26535 0.161334,0.397494 0.107202,0.262164 0.214932,0.52326 0.32532,0.784368 1.034322,2.460312 2.130744,4.714716 3.392214,7.065174 0.07642,0.137448 0.235626,0.204318 0.38688,0.164514 -1.064052,-2.487378 -1.980564,-4.772562 -2.94219,-7.301862 1.387776,0.33222 2.732028,0.8799 3.869844,1.782078 1.148958,0.913332 1.954026,2.084052 2.46456,3.449532 0.997182,2.668878 0.782778,5.816442 0.169824,8.466744 -2.742114,-0.925002 -5.75541,-2.417322 -7.664328,-4.787946 0.42933,-2.12226 -0.244122,-4.318284 -1.789512,-5.83449 0.06103,-0.563598 0.17619,-1.10703 0.3423,-1.647282 0.0865,-0.28074 0.18468,-0.55617 0.29613,-0.827358 0.02813,-0.068988 0.05678,-0.13851 0.0865,-0.20697 0.01433,-0.035028 0.02972,-0.069522 0.04458,-0.103488 0.0085,-0.019632 0.01858,-0.038742 0.02654,-0.059436 0.01114,-0.027066 0.01433,-0.05307 0.01114,-0.081198 C 12.827098,4.02366 12.81274,3.9966 12.798946,3.966876 l -0.0138,-0.029118 -0.0138,-0.030318 c -0.01802,-0.038742 -0.03554,-0.077484 -0.05358,-0.116754 -0.07271,-0.15762 -0.144348,-0.315234 -0.21546,-0.47232 -0.0085,-0.020166 -0.01752,-0.039804 -0.02601,-0.05997 -0.0096,-0.02016 -0.01804,-0.041394 -0.02813,-0.062088 -0.02548,-0.050952 -0.0727,-0.08544 -0.128958,-0.093936 a 0.205032,0.205032 0 0 0 -0.02548,-0.00159 c -0.02016,-0.00212 -0.04139,-0.00425 -0.06103,-0.0069 -0.04086,-0.0053 -0.08066,-0.011676 -0.120468,-0.02016 -0.0191,-0.00425 -0.0398,-0.0085 -0.05944,-0.0138 l -0.02971,-0.00743 c -0.01592,-0.00425 -0.03025,-0.00955 -0.04617,-0.012204 -0.05519,-0.00902 -0.111978,0.00955 -0.151776,0.049884 -0.0053,0.0053 -0.0096,0.011148 -0.01539,0.01698 -0.0069,0.0069 -0.01274,0.014862 -0.01858,0.021234 -0.01274,0.01539 -0.02653,0.03078 -0.03821,0.04404 -0.04988,0.059442 -0.100836,0.118884 -0.150192,0.17832 -0.20007,0.23988 -0.39165,0.483996 -0.575802,0.73608 C 10.653886,4.594698 10.316362,5.12115 10.01068,5.67201 9.934258,5.808402 9.859432,5.946912 9.78832,6.08595 A 3.215964,3.215964 0 0 0 9.734716,6.189972 0.81411,0.81411 0 0 1 9.707656,6.242508 c -0.010092,0.02229 -0.018582,0.04404 -0.021234,0.067932 -0.0048,0.056256 0.016452,0.110382 0.058908,0.147 0.018576,0.01698 0.040332,0.027066 0.063156,0.03609 0.06528,0.029718 0.130554,0.060498 0.1953,0.09234 0.267996,0.132678 0.520608,0.284988 0.76314,0.459054 0.516366,0.368838 0.965868,0.824172 1.3278,1.34532 0.7467,1.07625 1.08846,2.381766 0.964812,3.685692 -0.119406,1.255098 -0.663372,2.432712 -1.543266,3.336492 -0.960564,0.990282 -2.25546,1.58466 -3.63156,1.669572 -1.26996,0.07801 -2.52453,-0.281802 -3.55992,-1.02 C 3.206074,15.263832 2.42542,14.081436 2.131414,12.739836 1.853332,11.473056 2.026336,10.154808 2.62231,9.003192 3.242164,7.807002 4.27384,6.878814 5.529472,6.389514 6.101032,6.165558 6.706552,6.039252 7.32004,6.014838 c 0.296664,-0.012204 0.589608,0 0.884676,0.0345 0.02016,0.00264 0.040332,0.00582 0.061026,0.00796 0.05307,0.00426 0.105078,-0.01698 0.14064,-0.056256 0.01326,-0.01539 0.022812,-0.03237 0.032364,-0.049884 0.00318,-0.00849 0.00849,-0.018042 0.012738,-0.02706 0.01752,-0.036624 0.0345,-0.07218 0.052542,-0.107736 L 8.556706,5.70783 8.611762,5.600892 a 11.196306,11.196306 0 0 1 0.2229,-0.425616 C 9.1414,4.613268 9.477862,4.074078 9.849352,3.54975 c 0.18309,-0.25845 0.374142,-0.512124 0.572622,-0.759432 0.09871,-0.12312 0.199008,-0.245178 0.3009,-0.365646 0.05148,-0.05997 0.102426,-0.119406 0.153906,-0.178848 0.0138,-0.015918 0.02759,-0.030246 0.04087,-0.045642 0.03397,-0.04086 0.04829,-0.09393 0.03768,-0.145938 -0.0021,-0.01008 -0.0053,-0.020166 -0.009,-0.031314 a 0.242952,0.242952 0 0 0 -0.008,-0.026004 C 10.92772,1.960842 10.918696,1.924758 10.910206,1.88814 10.788148,1.337802 10.975486,0.764118 11.39845,0.389976 Z"/></svg>