<svg role="img" viewBox="0 0 24 24" xmlns="http://www.w3.org/2000/svg"><title>chezmoi</title><path d="m 10.483395,10.940039 c 0,-0.797039 0.647609,-1.444648 1.444648,-1.444648 0.79704,0 1.444649,0.647609 1.444649,1.444648 0,0.53136 -0.287826,1.001874 -0.719565,1.250925 l 0.143914,0.254607 0.874512,1.505532 h -3.48154 l 0.869034,-1.505532 0.149431,-0.254607 c -0.431739,-0.249051 -0.725083,-0.719565 -0.725083,-1.250925 z m 1.992599,-8.25278 4.793386,4.035084 4.798867,4.040564 1.78784,1.505532 h -5.335782 v 5.05351 C 20.446503,17.775835 22.289672,18.4954 24,19.447426 20.25278,18.373634 16.134667,17.969558 11.86716,18.384707 7.5940982,18.799817 3.6309709,19.995415 0.1605039,21.772144 1.7490654,20.427116 3.5258327,19.314586 5.446513,18.484328 c -0.033257,0.01663 -0.071994,0.02766 -0.1052138,0.04429 V 12.268439 H 0 L 1.793358,10.762907 6.5867067,6.722343 11.380017,2.687259 11.928006,2.227856 Z m 6.044311,14.63469 c -0.06088,-0.01659 -0.121766,-0.02766 -0.177132,-0.04425 0.05537,0.01663 0.116249,0.02766 0.177132,0.04425 z m -0.199277,-0.04425 c -0.05533,-0.01663 -0.11625,-0.0277 -0.177134,-0.03874 0.06088,0.01104 0.121805,0.02211 0.177134,0.03874 z m -0.188207,-0.04429 c -0.06085,-0.01107 -0.11621,-0.02215 -0.177095,-0.03874 0.06085,0.01663 0.116212,0.02766 0.177095,0.03874 z m -0.199241,-0.04429 c -0.05537,-0.01107 -0.110731,-0.01659 -0.166059,-0.02766 0.05536,0.01107 0.110732,0.01663 0.166059,0.02766 z m -0.204834,-0.03874 c -0.04977,-0.01107 -0.09958,-0.01663 -0.149392,-0.02766 0.0498,0.01107 0.09962,0.01663 0.14943,0.02766 z m -0.193685,-0.03874 c -0.04981,-0.0056 -0.09962,-0.01663 -0.149469,-0.02215 0.04985,0.0056 0.09966,0.01663 0.149469,0.02215 z m -0.19928,-0.03322 c -0.04425,-0.0055 -0.0941,-0.01663 -0.138357,-0.02215 0.04425,0.0056 0.0941,0.01663 0.138357,0.02215 z m -0.204795,-0.03322 c -0.03874,-0.0055 -0.08303,-0.01659 -0.121768,-0.02211 0.03874,0.0055 0.08303,0.01659 0.121768,0.02211 z m -0.199241,-0.03318 c -0.04429,-0.0056 -0.08303,-0.01107 -0.121768,-0.01663 v -6.437276 h 2.37449 L 16.178959,8.028596 11.928043,4.452953 7.6826456,8.028596 4.6715819,10.55811 h 2.374528 v 7.311828 h -0.00552 c 1.4889036,-0.503696 3.0498401,-0.84685 4.6771001,-1.001874 1.771249,-0.171577 3.520314,-0.116211 5.214052,0.143951 z M 6.1660406,18.190983 c -0.027664,0.01107 -0.055366,0.02211 -0.088547,0.03318 0.033182,-0.01107 0.060846,-0.02211 0.088547,-0.03318 z m -0.1771326,0.0664 c -0.03322,0.01107 -0.060846,0.02766 -0.094103,0.03874 0.033257,-0.01107 0.060883,-0.02766 0.094103,-0.03874 z m -0.1770947,0.07196 c -0.038775,0.01663 -0.077474,0.03322 -0.1107314,0.04981 0.033257,-0.01663 0.071957,-0.03318 0.1107314,-0.04981 z m -0.1771325,0.07196 c -0.038737,0.01663 -0.077474,0.03322 -0.1162491,0.05537 0.038737,-0.02215 0.077474,-0.03874 0.1162491,-0.05537 z"/></svg>