<svg xmlns="http://www.w3.org/2000/svg"  role="img" viewBox="0 0 24 24" >
<title>Chip icon</title>
<path d="M16.1,17.6H7.9c-0.8,0-1.5-0.7-1.5-1.5V7.9C6.4,7,7,6.4,7.9,6.4h8.3c0.8,0,1.5,0.7,1.5,1.5v8.3C17.6,17,17,17.6,16.1,17.6z
	 M16.1,16.5H7.9c-0.2,0-0.4-0.2-0.4-0.4V7.9c0-0.2,0.2-0.4,0.4-0.4h8.3c0.2,0,0.4,0.2,0.4,0.4v8.3C16.5,16.3,16.3,16.5,16.1,16.5z
	 M1.9,8.2c0.4,0,0.7,0.3,0.7,0.7S2.3,9.7,1.9,9.7S1.1,9.4,1.1,9S1.4,8.2,1.9,8.2z M22.1,14.3c0.4,0,0.8,0.3,0.8,0.7
	c0,0.4-0.3,0.7-0.8,0.7c-0.4,0-0.8-0.3-0.8-0.7C21.4,14.6,21.7,14.3,22.1,14.3z M1.1,17.6c0.4,0,0.7,0.3,0.7,0.7
	c0,0.4-0.3,0.7-0.7,0.7s-0.7-0.3-0.7-0.7C0.4,18,0.7,17.6,1.1,17.6z M22.9,4.9c0.4,0,0.8,0.3,0.8,0.7c0,0.4-0.3,0.7-0.8,0.7
	c-0.4,0-0.8-0.3-0.8-0.7C22.1,5.2,22.5,4.9,22.9,4.9z M15,1.1c0.4,0,0.8,0.3,0.8,0.7S15.4,2.6,15,2.6s-0.8-0.3-0.8-0.7
	S14.6,1.1,15,1.1z M9,21.4c0.4,0,0.8,0.3,0.8,0.7c0,0.4-0.3,0.7-0.8,0.7c-0.4,0-0.8-0.3-0.8-0.7C8.2,21.7,8.6,21.4,9,21.4z M5.6,0.4
	c0.4,0,0.8,0.3,0.8,0.7S6,1.9,5.6,1.9S4.9,1.5,4.9,1.1S5.2,0.4,5.6,0.4z M18.4,22.1c0.4,0,0.8,0.3,0.8,0.7c0,0.4-0.3,0.7-0.8,0.7
	c-0.4,0-0.8-0.3-0.8-0.7C17.6,22.5,18,22.1,18.4,22.1z M12,15.2c0.1,0,0.2,0,0.3,0.1c0.2,0.3,0.6,0.4,1,0.4c0.7,0,1.2-0.5,1.3-1
	c0-0.1,0.1-0.2,0.2-0.3c0.4-0.2,0.7-0.7,0.7-1.1c0-0.3-0.1-0.6-0.4-0.9c-0.1-0.1-0.1-0.4,0-0.5c0.2-0.2,0.4-0.5,0.4-0.9
	c0-0.6-0.4-1.1-1-1.2c-0.2-0.1-0.3-0.3-0.3-0.4c0-0.1,0-0.1,0-0.2c0-0.5-0.5-0.9-1.1-0.9c-0.3,0-0.6,0.1-0.8,0.3
	c-0.1,0.1-0.4,0.1-0.5,0c-0.2-0.2-0.5-0.3-0.8-0.3c-0.6,0-1.1,0.4-1.1,0.9c0,0.1,0,0.1,0,0.2c0,0.2-0.1,0.4-0.3,0.4
	c-0.6,0.2-1,0.7-1,1.3c0,0.3,0.1,0.5,0.3,0.8c0.1,0.1,0.1,0.3,0,0.5c-0.2,0.3-0.3,0.5-0.3,0.8c0,0.5,0.3,0.9,0.7,1.2
	c0.1,0.1,0.2,0.2,0.2,0.3c0,0.6,0.6,1.1,1.3,1.1c0.4,0,0.7-0.2,1-0.4C11.8,15.2,11.9,15.2,12,15.2z M23.6,11.6H18v-0.8h1.5
	c0.2,0,0.4-0.2,0.4-0.4s-0.2-0.4-0.4-0.4H18V9.3H19c0.4,0,0.8-0.2,1-0.4l2.3-2.3c0.1,0.1,0.3,0.1,0.5,0.1c0.3,0,0.6-0.1,0.8-0.3
	C23.9,6.2,24,5.9,24,5.6c0-0.3-0.1-0.6-0.3-0.8c-0.2-0.2-0.5-0.3-0.8-0.3c-0.3,0-0.6,0.1-0.8,0.3c-0.2,0.2-0.3,0.5-0.3,0.8
	c0,0.2,0,0.3,0.1,0.5l-2.3,2.3c-0.1,0.1-0.3,0.2-0.5,0.2H18V7.9c0-1-0.8-1.9-1.9-1.9h-0.8V2.9c0.4-0.1,0.8-0.6,0.8-1
	c0-0.6-0.5-1.1-1.1-1.1c-0.6,0-1.1,0.5-1.1,1.1c0,0.5,0.3,0.9,0.8,1V6h-0.8V4.5c0-0.2-0.2-0.4-0.4-0.4c-0.2,0-0.4,0.2-0.4,0.4V6
	h-0.8V0.4C12.4,0.2,12.2,0,12,0s-0.4,0.2-0.4,0.4V6h-0.8V4.5c0-0.2-0.2-0.4-0.4-0.4c-0.2,0-0.4,0.2-0.4,0.4V6H9.3V5
	c0-0.4-0.2-0.8-0.4-1L6.6,1.6c0.2-0.4,0.1-0.9-0.2-1.3C6-0.1,5.3-0.1,4.8,0.3s-0.4,1.1,0,1.6C5,2.1,5.3,2.2,5.6,2.2
	c0.2,0,0.3,0,0.5-0.1l2.3,2.3c0.1,0.1,0.2,0.3,0.2,0.5V6H7.9C7.7,6,7.6,6,7.4,6.1c-0.2,0-0.3,0.2-0.3,0.4c0,0.2,0.2,0.3,0.4,0.3
	c0.1,0,0.2,0,0.3,0h8.3c0.6,0,1.2,0.5,1.2,1.2v8.3c0,0.1,0,0.2,0,0.3c0,0.2,0.1,0.4,0.3,0.4c0,0,0.1,0,0.1,0c0.2,0,0.3-0.1,0.3-0.3
	c0-0.1,0.1-0.3,0.1-0.5v-0.8h3.1c0.1,0.4,0.6,0.7,1,0.7c0.6,0,1.1-0.5,1.1-1.1c0-0.6-0.5-1.1-1.1-1.1c-0.5,0-0.9,0.3-1,0.7H18v-0.8
	h1.5c0.2,0,0.4-0.2,0.4-0.4s-0.2-0.4-0.4-0.4H18v-0.8h5.7c0.2,0,0.4-0.2,0.4-0.4S23.8,11.6,23.6,11.6z M22.6,5.3
	c0.1-0.1,0.2-0.1,0.3-0.1c0.1,0,0.2,0,0.3,0.1c0.1,0.1,0.1,0.2,0.1,0.3s0,0.2-0.1,0.3C23.1,6,23,6,22.9,6c-0.1,0-0.2,0-0.3-0.1l0,0
	c-0.1-0.1-0.1-0.2-0.1-0.3S22.5,5.4,22.6,5.3z M15,1.5c0.2,0,0.4,0.2,0.4,0.4S15.2,2.2,15,2.2s-0.4-0.2-0.4-0.4S14.8,1.5,15,1.5z
	 M5.3,1.4C5.2,1.2,5.2,1,5.3,0.8c0.1-0.1,0.2-0.1,0.3-0.1c0.1,0,0.2,0,0.3,0.1C6,1,6,1.2,5.9,1.4l0,0C5.7,1.5,5.5,1.5,5.3,1.4z
	 M22.1,14.6c0.2,0,0.4,0.2,0.4,0.4s-0.2,0.4-0.4,0.4c-0.2,0-0.4-0.2-0.4-0.4S21.9,14.6,22.1,14.6z M17.9,21.9l-2.3-2.3
	c-0.1-0.1-0.2-0.3-0.2-0.5V18h0.8c0.2,0,0.3,0,0.5-0.1c0.2,0,0.3-0.2,0.3-0.4s-0.2-0.3-0.4-0.3c-0.1,0-0.2,0-0.3,0H7.9
	c-0.6,0-1.2-0.5-1.2-1.2V7.9c0-0.1,0-0.2,0-0.3c0-0.2-0.1-0.4-0.3-0.4S6.1,7.2,6.1,7.4C6,7.6,6,7.7,6,7.9v0.8H2.9
	c-0.1-0.4-0.6-0.7-1-0.7C1.2,7.9,0.8,8.4,0.8,9c0,0.6,0.5,1.1,1.1,1.1c0.5,0,0.9-0.3,1-0.7H6v0.8H4.5c-0.2,0-0.4,0.2-0.4,0.4
	c0,0.2,0.2,0.4,0.4,0.4H6v0.8H0.4C0.2,11.7,0,11.8,0,12c0,0.2,0.2,0.4,0.4,0.4H6v0.8H4.5c-0.2,0-0.4,0.2-0.4,0.4s0.2,0.4,0.4,0.4H6
	v0.8H5c-0.4,0-0.8,0.2-1,0.4l-2.3,2.3c-0.1-0.1-0.3-0.1-0.5-0.1c-0.3,0-0.6,0.1-0.8,0.3C0.1,17.8,0,18.1,0,18.4s0.1,0.6,0.3,0.8
	c0.2,0.2,0.5,0.3,0.8,0.3s0.6-0.1,0.8-0.3c0.2-0.2,0.3-0.5,0.3-0.8c0-0.2,0-0.3-0.1-0.5l2.3-2.3c0.1-0.1,0.3-0.2,0.5-0.2H6v0.8
	c0,1,0.8,1.9,1.9,1.9h0.8v3.1c-0.4,0.1-0.8,0.6-0.8,1c0,0.6,0.5,1.1,1.1,1.1c0.6,0,1.1-0.5,1.1-1.1c0-0.5-0.3-0.9-0.8-1V18h0.8v1.5
	c0,0.2,0.2,0.4,0.4,0.4c0.2,0,0.4-0.2,0.4-0.4V18h0.8v5.7c0,0.2,0.2,0.4,0.4,0.4c0.2,0,0.4-0.2,0.4-0.4V18h0.8v1.5
	c0,0.2,0.2,0.4,0.4,0.4c0.2,0,0.4-0.2,0.4-0.4V18h0.8V19c0,0.4,0.2,0.8,0.4,1l2.3,2.3c-0.2,0.4-0.1,0.9,0.2,1.3
	c0.2,0.2,0.5,0.3,0.8,0.3s0.6-0.1,0.8-0.3c0.4-0.4,0.4-1.1,0-1.6C18.8,21.8,18.3,21.7,17.9,21.9z M1.9,9.4C1.6,9.4,1.5,9.2,1.5,9
	s0.2-0.4,0.4-0.4S2.3,8.8,2.3,9C2.3,9.2,2.1,9.4,1.9,9.4z M1.4,18.7c-0.1,0.1-0.2,0.1-0.3,0.1c-0.1,0-0.2,0-0.3-0.1
	s-0.1-0.2-0.1-0.3s0-0.2,0.1-0.3S1,18,1.1,18c0.1,0,0.2,0,0.3,0.1l0,0c0.1,0.1,0.1,0.2,0.1,0.3S1.5,18.6,1.4,18.7z M9,22.5
	c-0.2,0-0.4-0.2-0.4-0.4s0.2-0.4,0.4-0.4c0.2,0,0.4,0.2,0.4,0.4S9.2,22.5,9,22.5z M18.7,23.2c-0.2,0.2-0.4,0.2-0.6,0
	c-0.2-0.2-0.2-0.4,0-0.6c0.1-0.1,0.2-0.1,0.3-0.1c0.1,0,0.2,0,0.3,0.1C18.8,22.8,18.8,23,18.7,23.2z M9.1,14.6L9.1,14.6
	c0,0.8,0.7,1.5,1.6,1.5c0.5,0,1-0.2,1.3-0.6c0.3,0.3,0.8,0.6,1.3,0.6c0.9,0,1.6-0.6,1.6-1.4c0.5-0.3,0.8-0.8,0.8-1.4
	c0-0.4-0.2-0.8-0.5-1.1c0.3-0.3,0.5-0.7,0.5-1.1c0-0.7-0.5-1.4-1.3-1.6c0-0.1,0-0.2,0-0.3c0-0.7-0.6-1.3-1.4-1.3
	c-0.4,0-0.8,0.2-1.1,0.4c-0.3-0.3-0.6-0.4-1.1-0.4c-0.8,0-1.4,0.6-1.4,1.3c0,0.1,0,0.2,0,0.3c-0.8,0.2-1.3,0.8-1.3,1.6
	c0,0.4,0.1,0.7,0.4,1c-0.2,0.3-0.4,0.7-0.4,1.1C8.3,13.7,8.6,14.3,9.1,14.6z M10.1,10.1C10.1,10.1,10.1,10.1,10.1,10.1
	c0.1,0,0.2,0,0.2-0.1c0.1-0.1,0.2-0.3,0.1-0.5c0,0,0,0,0,0l0,0c0,0,0,0,0,0l0,0c-0.1-0.1-0.1-0.2-0.1-0.3c0-0.3,0.3-0.6,0.7-0.6
	c0.4,0,0.7,0.3,0.7,0.6c0,0.2,0.2,0.4,0.4,0.4s0.4-0.2,0.4-0.4c0-0.3,0.3-0.6,0.7-0.6s0.7,0.3,0.7,0.6c0,0.1,0,0.2-0.1,0.2
	c-0.2,0-0.4,0.1-0.6,0.1c-0.2,0.1-0.3,0.3-0.2,0.5c0.1,0.2,0.3,0.3,0.5,0.2c0.2-0.1,0.3-0.1,0.5-0.1c0,0,0,0,0,0c0,0,0,0,0,0
	c0.6,0,1.1,0.4,1.1,1c0,0.3-0.2,0.6-0.5,0.8c-0.1,0.1-0.2,0.2-0.2,0.3s0.1,0.2,0.2,0.3c0.3,0.2,0.5,0.5,0.5,0.8
	c0,0.2-0.1,0.5-0.3,0.7c-0.2-0.3-0.5-0.6-0.9-0.7c-0.2-0.1-0.4,0-0.4,0.2c-0.1,0.2,0,0.4,0.2,0.4c0.4,0.1,0.6,0.4,0.6,0.7
	c0,0.4-0.4,0.8-0.9,0.8c-0.5,0-0.9-0.3-0.9-0.8v-2.2c0-0.4,0.4-0.8,0.9-0.8c0.2,0,0.4-0.2,0.4-0.4c0-0.2-0.2-0.4-0.4-0.4
	c-0.3,0-0.7,0.1-0.9,0.3v-0.4c0-0.2-0.2-0.4-0.4-0.4c-0.2,0-0.4,0.2-0.4,0.4v1.9c-0.1-0.1-0.2-0.1-0.4-0.2c-0.2-0.1-0.4,0-0.4,0.2
	c-0.1,0.2,0,0.4,0.2,0.4c0.4,0.1,0.6,0.4,0.6,0.7v0.7c0,0.4-0.4,0.8-0.9,0.8s-0.9-0.3-0.9-0.8c0-0.2,0.1-0.4,0.2-0.5
	c0.1-0.1,0.1-0.4,0-0.5s-0.4-0.1-0.5,0c-0.1,0.1-0.2,0.2-0.2,0.3C9.1,13.7,9,13.4,9,13.1c0-0.5,0.4-1,1-1.1c0.2,0,0.3-0.2,0.3-0.4
	c0-0.2-0.2-0.3-0.4-0.3c-0.2,0.1-0.5,0.1-0.6,0.3c-0.1-0.2-0.2-0.3-0.2-0.5C9,10.5,9.5,10.1,10.1,10.1z"/>
</svg>
