<svg role="img" viewBox="0 0 24 24" xmlns="http://www.w3.org/2000/svg"><title>Cinnamon</title><path d="M12 0C5.373 0 0 5.373 0 12c0 6.628 5.373 12 12 12 6.628 0 12-5.372 12-12 0-6.627-5.372-12-12-12zm0 21.955c-5.498 0-9.955-4.458-9.955-9.955 0-5.498 4.457-9.955 9.955-9.955S21.955 6.502 21.955 12c0 5.497-4.457 9.955-9.955 9.955zm1.252.897c.209 0 .417-.105.73-.105.105 0 .208 0 .314-.104.208 0 .521-.106.73-.21.104 0 .208 0 .313-.103l.94-.312c.105 0 .105-.105.208-.105.209-.104.522-.208.73-.313.105 0 .21-.105.313-.208.21-.105.418-.21.522-.314s.209-.104.313-.208c.209-.105.418-.313.627-.418.105 0 .105-.104.21-.104.207-.209.52-.417.728-.626l.21-.209c.208-.208.312-.313.417-.522.104-.105.104-.208.208-.313.105-.208.209-.313.418-.521.104-.105.104-.209.208-.313.105-.208.313-.522.418-.73 0 0 0-.105.104-.105.104-.313.313-.522.417-.835 0-.104.105-.209.105-.313 0-.105.104-.209.104-.417l-5.634-6.261-6.053 6.887 2.922-5.844-1.46-2.608-9.08 10.435c0 .105.105.105.105.208.209.209.313.522.522.73l.313.314.626.626.313.313c.209.209.417.417.73.522l.21.208c.312.209.625.418 1.043.627.104 0 .104.105.208.105.313.105.626.313.94.417.104 0 .208.105.417.105.209.105.522.208.835.208.104 0 .313.105.417.105.313.103.522.103.835.207.104 0 .209 0 .417.106.418 0 .835.104 1.252.104h1.044c-.417-.001-.313-.001-.209-.105z"/></svg>