<svg role="img" viewBox="0 0 24 24" xmlns="http://www.w3.org/2000/svg"><title>Circle</title><path d="M21.433 4.832c.612.119.72.86 1.058 1.303 2.347 4.094 1.922 9.552-1.037 13.228-2.753 3.6-7.633 5.366-12.053 4.365-2.06-.409-3.921-1.466-5.531-2.788-.529-.617.346-1.071.695-1.498 1.416-1.41 2.83-2.824 4.247-4.233.683-.396 1.24.53 1.917.582 2.243.795 4.907-.85 5.195-3.214.28-.825-.381-1.695-.02-2.452.496-.436.889-1.012 1.458-1.349.949.075.965 1.365 1.193 2.1.594 3.138-1.435 6.478-4.478 7.432a6.718 6.718 0 0 1-4.497-.089l-2.023 2.017c3.605 1.979 8.456 1.184 11.226-1.865 2.808-2.873 3.347-7.606 1.303-11.043-.586-.54-.322-1.236.256-1.629.354-.288.618-.787 1.09-.867zm-9.32-4.836c2.977-.044 5.86 1.151 8.117 3.056.53.616-.348 1.07-.698 1.496-1.422 1.411-2.842 2.825-4.266 4.235-.686.396-1.247-.53-1.926-.582-2.247-.794-4.925.841-5.217 3.214-.281.825.382 1.695.02 2.452-.498.435-.893 1.012-1.464 1.348-1.12-.193-1.102-1.807-1.276-2.754-.29-3.247 2.174-6.41 5.37-6.989a6.778 6.778 0 0 1 3.721.3l2.032-2.017C12.838 1.738 7.865 2.605 5.1 5.785c-2.729 2.913-3.175 7.618-1.087 11 .597.542.122 1.174-.374 1.554-.408.37-.965 1.24-1.516.552C.727 16.7-.131 14.13.016 11.514.155 6.729 3.486 2.28 7.993.712a12.136 12.136 0 0 1 4.12-.716z"/></svg>