<svg role="img" viewBox="0 0 24 24" xmlns="http://www.w3.org/2000/svg"><title>CircuitPython</title><path d="M 9.48 0.004 C 11.27 -0.047 12.56 0.382 13.33 1.293 C 13.72 1.707 14 2.222 14.17 2.84 L 14.27 3.355 L 14.27 4.48 L 14.22 4.527 L 14.22 4.855 L 14.02 5.933 L 13.62 7.479 L 11.29 13.526 L 11.42 13.549 L 11.47 13.502 L 12.06 13.455 L 12.86 13.221 L 14.05 12.705 L 14.79 12.471 L 15.54 12.33 L 16.48 12.33 C 17.26 12.47 17.84 12.791 18.24 13.291 C 18.42 13.493 18.52 13.751 18.54 14.064 C 19.55 14.058 20.27 14.332 20.72 14.884 C 20.98 15.163 21.101 15.561 21.071 16.08 L 21.543 16.08 L 22.188 16.22 C 22.691 16.401 23.096 16.675 23.404 17.04 C 23.694 17.36 23.893 17.766 24 18.258 L 24 19.431 C 23.738 20.418 23.234 21.175 22.486 21.704 L 21.294 22.407 L 19.41 23.062 L 17.72 23.391 L 16.78 23.437 L 16.73 23.485 L 15.88 23.485 L 15.83 23.437 L 15.34 23.437 L 15.29 23.391 L 14.64 23.344 L 13.45 23.062 L 12.46 23.532 L 11.42 23.812 L 10.57 23.953 L 9.08 24 L 9.03 23.953 L 8.24 23.907 L 7.3 23.672 C 6.66 23.434 6.12 23.098 5.68 22.664 L 5.51 22.454 L 4.86 22.5 L 4.81 22.454 L 4.02 22.407 L 3.47 22.266 C 3.09 22.141 2.78 21.953 2.53 21.704 L 2.38 21.704 L 2.33 21.751 L 1.84 21.751 L 1.34 21.844 L 0 22.219 L 0.07 22.102 L 0.79 21.282 C 1.09 21.012 1.45 20.809 1.86 20.673 L 1.76 20.228 L 1.76 19.711 L 1.91 19.056 L 2.16 18.493 L 2.78 17.813 L 2.95 17.697 L 2.85 17.462 L 2.85 16.712 C 2.93 16.226 3.14 15.859 3.47 15.611 L 4.39 15.166 C 4.32 15.127 4.3 15.033 4.34 14.884 L 4.54 14.276 L 4.86 13.924 L 5.41 13.643 L 6.08 13.549 L 8.81 7.949 L 9.06 7.198 L 9.06 6.589 C 9 6.365 8.87 6.201 8.69 6.096 L 8.04 5.863 L 7.25 5.816 L 6.75 5.721 C 6.42 5.648 6.16 5.5 5.98 5.276 L 5.91 5.16 L 5.39 5.558 L 5.09 6.168 L 4.89 6.823 L 4.52 7.362 L 4.37 7.456 L 4.44 7.339 L 4.59 7.011 L 4.47 7.081 L 4.27 7.128 L 4.27 7.081 L 4.54 6.871 L 4.69 6.636 L 5.09 5.558 L 5.46 5.16 C 5.55 5.18 5.57 5.149 5.53 5.066 C 4.87 4.934 4.36 4.646 4 4.198 L 3.65 3.495 L 3.6 2.933 C 3.66 2.709 3.78 2.545 3.97 2.442 L 4.52 2.254 L 5.26 2.207 L 6.3 1.972 C 6.62 1.852 6.88 1.672 7.07 1.434 L 6.97 1.059 L 7.2 1.222 C 7.31 1.257 7.35 1.234 7.32 1.152 C 7.81 0.549 8.53 0.166 9.48 0.004 Z M 9.47 1.556 L 8.79 1.878 L 8.41 2.465 C 8.32 3.032 8.43 3.417 8.73 3.619 L 9.01 3.543 L 8.81 3.259 L 8.81 2.938 L 8.95 2.653 L 9.33 2.446 C 9.52 2.382 9.6 2.421 9.56 2.559 L 9.84 2.729 L 10.04 2.672 L 10.16 2.843 L 10.2 3.184 L 11.24 2.938 L 10.94 2.862 C 10.98 2.446 10.88 2.143 10.64 1.953 L 10.08 1.594 L 9.47 1.556 Z M 9.53 9.655 L 9.28 9.845 L 8.43 9.807 L 8.31 9.958 L 8.69 10.034 L 9.28 10.034 C 9.31 10.198 9.47 10.261 9.74 10.224 C 9.88 10.186 9.94 10.053 9.9 9.826 C 9.87 9.687 9.75 9.63 9.53 9.655 Z M 8.73 11.719 L 8.53 11.907 L 7.85 11.907 L 7.79 11.87 L 7.37 11.87 L 7.27 12.022 L 7.65 12.097 L 8.53 12.097 L 8.79 12.286 L 9.03 12.229 C 9.14 12.179 9.18 12.066 9.16 11.888 C 9.1 11.75 8.96 11.693 8.73 11.719 Z M 7.93 13.781 L 7.75 13.97 L 6.85 13.97 L 6.41 13.876 L 6.29 14.084 L 6.65 14.159 L 7.75 14.159 L 7.99 14.349 L 8.23 14.292 C 8.35 14.242 8.4 14.128 8.37 13.952 C 8.32 13.8 8.17 13.743 7.93 13.781 Z M 17.03 13.781 C 16.87 13.818 16.81 13.952 16.85 14.178 L 17.13 14.349 L 17.25 14.594 L 17.25 15.162 L 17.19 15.219 L 17.23 15.276 L 17.37 15.181 L 17.49 14.974 L 17.45 14.5 L 17.35 14.33 L 17.45 14.14 L 17.45 13.952 C 17.41 13.8 17.27 13.743 17.03 13.781 Z M 4.97 14.538 C 4.82 14.652 4.76 14.822 4.78 15.049 C 4.95 15.074 5.05 15.018 5.09 14.878 C 5.11 14.702 5.07 14.588 4.97 14.538 Z M 15.19 14.575 L 14.97 14.784 L 14.97 14.974 L 15.21 15.219 L 15.21 15.919 L 15.41 15.938 L 15.47 15.673 C 15.51 15.535 15.49 15.447 15.41 15.409 L 15.41 15.162 L 15.61 14.878 L 15.57 14.746 C 15.52 14.62 15.39 14.563 15.19 14.575 Z M 12.96 14.954 L 12.72 15.162 C 12.7 15.39 12.76 15.516 12.92 15.541 L 12.92 16.147 L 12.88 16.203 L 13.12 16.222 L 13.18 15.541 C 13.33 15.491 13.38 15.352 13.32 15.125 C 13.28 14.986 13.16 14.929 12.96 14.954 Z M 10.92 15.087 L 10.8 15.144 L 10.74 15.409 C 10.72 15.535 10.76 15.61 10.84 15.635 L 10.84 16.014 L 10.8 16.051 L 10.8 16.166 L 11.04 16.166 L 11.04 15.768 L 11.3 15.447 L 11.24 15.219 C 11.2 15.118 11.09 15.074 10.92 15.087 Z M 7.39 15.844 L 7.15 16.033 L 5.57 15.938 L 5.49 16.128 L 6.41 16.166 L 6.45 16.222 L 7.19 16.222 L 7.45 16.411 L 7.65 16.354 L 7.81 16.147 L 7.77 15.957 C 7.73 15.844 7.61 15.806 7.39 15.844 Z M 20.06 15.901 L 19.96 15.938 C 19.81 15.976 19.75 16.097 19.78 16.298 L 20 16.45 L 20.08 16.525 L 20.1 17.207 L 20.32 16.942 L 20.32 16.563 L 20.28 16.525 C 20.24 16.373 20.27 16.31 20.38 16.336 L 20.38 16.051 C 20.33 15.951 20.22 15.901 20.06 15.901 Z M 3.82 16.733 L 3.7 16.79 L 3.6 16.998 L 3.74 17.282 L 3.8 18.02 L 4.02 18.134 L 4.1 18.171 C 3.97 17.97 3.94 17.686 4 17.32 L 4.14 17.244 L 4.2 17.13 C 4.22 16.967 4.2 16.853 4.14 16.79 L 3.82 16.733 Z M 18.47 16.885 L 18.29 17.093 L 18.33 17.339 L 18.53 17.471 L 18.53 17.831 L 18.5 17.887 L 18.52 18.285 L 18.66 18.19 L 18.73 18.115 L 18.73 17.414 L 18.94 17.187 L 18.83 16.923 C 18.77 16.872 18.65 16.86 18.47 16.885 Z M 20.06 17.207 L 20.06 17.244 L 20.06 17.207 Z M 16.47 17.395 L 16.39 17.433 L 16.25 17.604 L 16.31 17.831 L 16.45 17.906 L 16.45 18.683 L 16.41 18.853 L 16.65 18.796 L 16.71 18.493 L 16.71 17.925 C 16.86 17.862 16.91 17.717 16.85 17.49 L 16.67 17.395 L 16.47 17.395 Z M 11.92 17.623 L 11.76 17.68 L 11.64 17.831 C 11.61 18.058 11.68 18.184 11.84 18.209 L 11.84 18.815 L 11.78 18.872 C 11.71 19.061 11.77 19.131 11.96 19.08 L 12.04 19.004 L 12.08 18.171 L 12.28 17.925 L 12.24 17.793 C 12.17 17.692 12.07 17.636 11.92 17.623 Z M 14.25 17.623 L 14.14 17.68 L 13.97 17.887 C 13.98 18.052 14.05 18.159 14.17 18.209 L 14.17 18.966 L 14.12 19.004 L 14.12 19.08 L 14.37 19.08 L 14.37 18.683 L 14.43 18.625 L 14.43 18.171 L 14.49 18.134 C 14.59 18.096 14.62 17.983 14.57 17.793 C 14.51 17.692 14.41 17.636 14.25 17.623 Z M 7.03 17.906 L 7.03 17.983 L 6.89 18.096 L 6.51 18.096 L 6.45 18.134 L 5.81 18.134 L 5.77 18.096 L 5.11 18.096 L 5.07 18.039 L 4.99 18.039 L 4.99 18.285 L 5.31 18.285 L 5.37 18.323 L 6.99 18.323 L 7.03 18.418 L 7.15 18.474 L 7.29 18.474 L 7.47 18.38 L 7.51 18.266 L 7.47 17.983 L 7.39 17.906 L 7.03 17.906 Z M 23.485 18.285 C 23.338 18.336 23.278 18.468 23.305 18.683 L 23.526 18.853 L 23.606 18.815 L 23.546 18.777 L 23.546 18.361 L 23.485 18.285 Z M 2.28 19.553 L 2.2 19.988 L 2.28 20.064 L 2.46 19.894 C 2.49 19.691 2.43 19.578 2.28 19.553 Z M 22.143 19.742 L 22.042 19.78 L 21.922 19.95 L 21.922 20.082 L 22.022 20.253 L 22.223 20.291 L 22.223 20.688 L 22.263 20.745 L 22.223 21.313 L 22.463 21.123 L 22.463 20.461 L 22.403 20.423 C 22.39 20.272 22.423 20.178 22.503 20.139 L 22.503 19.894 C 22.477 19.754 22.356 19.704 22.143 19.742 Z M 7.29 19.931 L 7.15 20.007 L 7.07 20.159 L 6.85 20.197 L 5.47 20.197 L 5.17 20.101 L 4.99 20.139 L 5.05 20.348 L 5.67 20.385 L 5.71 20.442 L 6.61 20.442 L 6.65 20.385 L 7.09 20.385 C 7.14 20.499 7.28 20.531 7.49 20.48 C 7.64 20.455 7.7 20.341 7.67 20.139 C 7.61 20.013 7.48 19.944 7.29 19.931 Z M 3.72 20.442 L 3.5 20.651 C 3.46 20.865 3.53 20.991 3.7 21.029 L 3.7 21.351 L 3.9 21.937 L 4.06 21.995 L 4.2 21.956 L 3.94 21.408 L 3.94 21.029 L 4.14 20.783 L 4.1 20.594 C 4.06 20.455 3.94 20.404 3.72 20.442 Z M 20.16 20.632 L 19.98 20.783 L 19.98 21.029 L 20.18 21.218 C 20.12 21.408 20.14 21.527 20.22 21.577 L 20.22 21.956 L 20.18 22.013 L 20.2 22.353 L 20.36 22.315 L 20.42 22.24 L 20.42 21.161 L 20.58 21.029 C 20.61 20.865 20.57 20.751 20.48 20.688 C 20.44 20.613 20.33 20.594 20.16 20.632 Z M 17.87 21.086 L 17.77 21.142 C 17.64 21.193 17.6 21.326 17.65 21.54 L 17.85 21.654 L 17.89 21.767 L 17.89 22.752 L 17.85 22.808 C 17.8 22.934 17.85 22.972 18.01 22.921 L 18.09 22.846 L 18.09 21.635 L 18.23 21.445 L 18.19 21.257 C 18.14 21.155 18.03 21.098 17.87 21.086 Z M 13.1 21.237 L 13 21.275 C 12.87 21.326 12.83 21.458 12.88 21.673 L 13.08 21.805 L 13.08 22.334 L 13.02 22.392 L 13.24 22.505 L 13.28 21.956 L 13.28 21.862 L 13.48 21.635 L 13.48 21.445 L 13.24 21.237 L 13.1 21.237 Z M 15.39 21.275 L 15.17 21.54 L 15.41 21.862 L 15.41 22.486 L 15.37 22.524 L 15.37 23.016 L 15.61 23.016 L 15.61 21.862 C 15.78 21.824 15.85 21.685 15.81 21.445 C 15.77 21.294 15.63 21.237 15.39 21.275 Z M 8.29 21.995 L 8.13 22.032 L 7.99 22.221 L 6.41 22.221 L 5.91 22.07 L 5.79 22.108 L 6.05 22.353 L 6.25 22.411 C 6.41 22.373 6.51 22.386 6.55 22.449 L 8.09 22.449 L 8.29 22.6 L 8.43 22.543 L 8.61 22.334 L 8.55 22.108 L 8.29 21.995 Z"/></svg>