<svg role="img" viewBox="0 0 24 24" xmlns="http://www.w3.org/2000/svg"><title>Cirrus CI icon</title><path d="M22.4062 15.477a4.5869 4.5869 0 011.594 3.4779c0 2.5309-2.053 4.5899-4.577 4.5899H1.1137a1.113 1.113 0 010-2.226h18.3097a2.36 2.36 0 002.35-2.364 2.36 2.36 0 00-2.35-2.3639H1.1136a1.1135 1.1135 0 010-2.227h18.3097A2.36 2.36 0 0021.7733 12a2.36 2.36 0 00-2.35-2.363H1.1136a1.1135 1.1135 0 110-2.2269h18.3097a2.36 2.36 0 002.35-2.364 2.36 2.36 0 00-2.35-2.364 1.1135 1.1135 0 010-2.2269c2.524 0 4.5769 2.06 4.5769 4.59 0 1.39-.62 2.6359-1.594 3.4779A4.5869 4.5869 0 0124.0002 12c0 1.388-.62 2.634-1.594 3.476z"/></svg>