<svg role="img" viewBox="0 0 24 24" xmlns="http://www.w3.org/2000/svg"><title>Cirrus CI icon</title><path d="M22.406 15.477A4.587 4.587 0 0124 18.955c0 2.531-2.053 4.59-4.577 4.59H1.113a1.113 1.113 0 010-2.226h18.31a2.36 2.36 0 002.35-2.364 2.36 2.36 0 00-2.35-2.364H1.113a1.113 1.113 0 010-2.227h18.31A2.36 2.36 0 0021.773 12a2.36 2.36 0 00-2.35-2.363H1.113a1.113 1.113 0 110-2.227h18.31a2.36 2.36 0 002.35-2.364 2.36 2.36 0 00-2.35-2.364 1.113 1.113 0 010-2.227C21.947.455 24 2.515 24 5.045c0 1.39-.62 2.636-1.594 3.478A4.587 4.587 0 0124 12c0 1.388-.62 2.634-1.594 3.476z"/></svg>