<svg role="img" viewBox="0 0 24 24" xmlns="http://www.w3.org/2000/svg"><title>Cirrus CI icon</title><path d="M22.4067 15.47546A4.58486 4.58486 0 0124 18.9518c0 2.52978-2.05209 4.58787-4.57497 4.58787H1.12365a1.1125 1.1125 0 010-2.22501h18.30158a2.35895 2.35895 0 002.34896-2.36296 2.35895 2.35895 0 00-2.34896-2.36285H1.12355a1.113 1.113 0 010-2.226h18.30158A2.35895 2.35895 0 0021.7741 12a2.35895 2.35895 0 00-2.34896-2.36195H1.12355a1.113 1.113 0 110-2.22591h18.30158a2.35895 2.35895 0 002.34896-2.36295 2.35895 2.35895 0 00-2.34896-2.36296 1.113 1.113 0 010-2.2259C21.94801.46032 24 2.5194 24 5.04828c0 1.38938-.61972 2.63473-1.5933 3.47635A4.58486 4.58486 0 0124 12c0 1.38738-.61972 2.63283-1.5933 3.47446z"/></svg>