<svg role="img" viewBox="0 0 24 24" xmlns="http://www.w3.org/2000/svg"><title>Citroën icon</title><path d="M18.663 15.998c.054.044.131.074.197.045.112-.055.122-.254.124-.277.002-.022.03-.476.03-.944a1.949 1.949 0 0 0-.473-1.132c-.203-.218-4.855-5.327-6.541-5.327s-6.344 5.109-6.541 5.326a1.95 1.95 0 0 0-.474 1.141c0 .468.03.94.03.944 0 .004.013.222.125.277.066.029.142 0 .195-.043.05-.043 4.796-4.216 6.665-4.216s6.614 4.165 6.663 4.206zM5.396 14.786c.001-.272.109-.532.299-.726a21.606 21.606 0 0 1 5.528-3.6c.83-.348.783-.283.783-1.685 1.24.06 4.335 3.122 6.236 5.189.21.243.338.545.368.864-.006.218-.012.421-.018.574-1.224-1.043-4.865-4.017-6.592-4.017s-5.365 2.967-6.59 4.01c0-.245-.014-.396-.014-.61zm13.454 2.777c.094 0 .155-.065.234-.114a.61.61 0 0 1 .594 0c.073.03.122.102.124.181a.216.216 0 0 1-.12.181.62.62 0 0 1-.598 0 .503.503 0 0 0-.234-.114c-.083 0-.164.075-.238.12a.62.62 0 0 1-.59-.006.215.215 0 0 1-.121-.181.203.203 0 0 1 .122-.181.605.605 0 0 1 .596 0c.083.049.138.114.231.114zM5 18.237a.086.086 0 0 1 .084.084v2.097H4.31a.085.085 0 0 1-.084-.083V18.32a.085.085 0 0 1 .084-.083H5zM.854 19.346l.001.001v.005c.014.46.4.823.862.808h.378a.868.868 0 0 0 .754-.423.08.08 0 0 1 .072-.04h.834c-.19.484-.633.762-1.243.78-.661.019-.714.019-1.22 0C.555 20.452 0 19.962 0 19.337c0-.314.142-.612.384-.813.256-.222.585-.342.924-.336.39-.018.757.001 1.194 0a1.354 1.354 0 0 1 1.257.781h-.836a.088.088 0 0 1-.076-.038.882.882 0 0 0-.752-.399h-.387a.834.834 0 0 0-.854.814zM24 19.35v1.069h-.734a.087.087 0 0 1-.08-.087v-1.037l.001-.007a.639.639 0 0 0-.596-.679h-.863a.11.11 0 0 0-.106.114v1.69h-.779a.08.08 0 0 1-.077-.08v-2.016c0-.082.071-.082.102-.082h1.859c.714 0 1.273.49 1.273 1.115zM8.905 18.324h-.001v.347H7.76a.114.114 0 0 0-.116.108v1.64H6.87a.087.087 0 0 1-.084-.084v-1.188a.484.484 0 0 0-.48-.476h-.76v-.353a.08.08 0 0 1 .082-.08h3.2c.045.003.08.04.077.086zm11.39-.067a.082.082 0 0 1 .022.06v.308H18.31c-.065-.006-.134.04-.13.109v.38h1.751v.4H18.17v.414c.005.06.056.104.116.1h2.02v.305c0 .044-.042.08-.084.081h-2.469a.443.443 0 0 1-.441-.445v-1.662a.08.08 0 0 1 .085-.077h2.82a.11.11 0 0 1 .078.027zm-4.699-.052c-.59-.012-1.19 0-1.194 0-.72 0-1.308.5-1.308 1.114 0 .614.588 1.131 1.308 1.131 0 0 .61.012 1.194 0 .722 0 1.31-.508 1.31-1.13 0-.623-.576-1.097-1.31-1.115zm.457 1.109v.013a.844.844 0 0 1-.862.814h-.378a.844.844 0 0 1-.863-.814.826.826 0 0 1 .85-.802h.01c.127-.006.254-.006.381 0a.826.826 0 0 1 .862.788v.001zm-3.935.342h-.012v-.03h.01a.736.736 0 0 0 .61-.68c0-.34-.331-.704-.866-.704H9.812a.441.441 0 0 0-.448.434v1.659a.08.08 0 0 0 .077.082h.779v-.775h.73a.877.877 0 0 1 .938.78h.852c-.014-.524-.559-.742-.622-.766zm-.553-.397l-1.345.002v-.437c0-.112.091-.203.204-.203h1.14a.32.32 0 1 1 .001.638zM5.14 11.195c.066.029.142 0 .195-.043.05-.043 4.796-4.216 6.665-4.216s6.614 4.165 6.663 4.206c.054.045.131.074.197.045.112-.055.122-.254.124-.277.002-.022.03-.476.03-.944a1.949 1.949 0 0 0-.473-1.132c-.203-.218-4.855-5.327-6.541-5.327s-6.344 5.11-6.541 5.326a1.95 1.95 0 0 0-.474 1.141c0 .468.03.94.03.944 0 .004.013.222.125.277zm.555-1.99a21.606 21.606 0 0 1 5.528-3.6c.83-.349.783-.284.783-1.686 1.24.06 4.335 3.122 6.236 5.19.21.242.338.544.368.863-.006.218-.012.421-.018.574C17.368 9.503 13.727 6.53 12 6.53s-5.365 2.967-6.59 4.01c0-.244-.014-.395-.014-.609.001-.272.109-.532.299-.726z"/></svg>