<svg role="img" xmlns="http://www.w3.org/2000/svg" viewBox="0 0 24 24"><title>Citrix icon</title><path d="M20.0964 22.9712c0 .582-.4793 1.0613-1.0612 1.027-.3424 0-.6847-.1711-.8901-.445l-6.1622-7.1892-6.128 7.1892c-.2053.2739-.5477.445-.89.445-.582 0-1.0613-.445-1.0613-1.027 0-.308.1027-.582.3081-.7873l6.4018-7.2577-6.1622-7.0865c-.2396-.2054-.3765-.5136-.3765-.8217 0-.582.4792-1.0612 1.0955-1.027h.0342c.3423 0 .6505.1712.8558.445l5.9568 7.0181 5.9568-7.018c.2054-.274.5135-.445.8559-.445.582-.0343 1.0955.4107 1.0955.9927v.0342c0 .3081-.137.6163-.3766.8217l-6.1622 7.0865 6.4018 7.2577c.2054.2054.3081.5135.3081.7873zM11.983 3.5604c.9832 0 1.7802-.797 1.7802-1.7802S12.966 0 11.9829 0s-1.7802.797-1.7802 1.7802.797 1.7802 1.7802 1.7802z"/></svg>