<svg role="img" viewBox="0 0 24 24" xmlns="http://www.w3.org/2000/svg"><title>CKEditor 5</title><path d="M15.8 5.7c0-.7.1-1.3.4-1.9l-5-2.9C10.5.5 9.7.5 9 .9L1 5.5c-.6.4-1 1.1-1 1.9v9.2c0 .8.4 1.5 1.1 1.9l8 4.6c.7.4 1.5.4 2.2 0l8-4.6c.7-.4 1.1-1.1 1.1-1.9v-6.4c-2.6 0-4.6-2-4.6-4.5ZM5.2 11.8c0-.3.2-.5.5-.5h6.5c.3 0 .5.2.5.5v.2c0 .3-.2.5-.5.5H5.8c-.3 0-.5-.2-.5-.5v-.2h-.1Zm10.1 3.5c0 .3-.2.5-.5.5h-9c-.3 0-.5-.2-.5-.5v-.2c0-.3.2-.5.5-.5h9c.3 0 .5.2.5.5v.2Zm0-6.6c0 .3-.2.5-.5.5h-9c-.3.1-.6-.2-.6-.5v-.2c0-.3.2-.5.6-.5h9c.3 0 .5.2.5.5v.2Zm5-6.8c-2.1 0-3.8 1.6-3.8 3.7s1.6 3.8 3.7 3.8h.1c2.1 0 3.7-1.7 3.7-3.8 0-2-1.7-3.6-3.7-3.7Zm1.2 4.9c-.1.1-.2.3-.3.4-.1.1-.3.2-.4.2-.3.1-.6.1-.9 0-.1 0-.2-.1-.4-.2l-.3-.3c-.1-.1-.1-.2-.2-.3l.7-.2c0 .1.1.2.2.3.1.1.2.1.3.1s.2 0 .3-.1c.1-.1.1-.2.1-.4 0-.1 0-.2-.1-.2 0-.1-.1-.1-.2-.2-.1 0-.1-.1-.2-.1h-.6c-.1 0-.3.1-.4.1l.1-1.9h2v.7h-1.3v.5h.2c.2 0 .4 0 .6.1.1 0 .3.1.4.2l.3.3c.1.1.1.3.1.4.1.3.1.5 0 .6Z"/></svg>