<svg role="img" viewBox="0 0 24 24" xmlns="http://www.w3.org/2000/svg"><title>Claro</title><path d="M5.803 0v8.165h2.825V0Zm13.794 1.581L11.97 9.194l2.003 2.003 7.629-7.616zM6.834 10.712c-1.792 0-3.342.64-4.616 1.943C.91 13.96.273 15.535.273 17.356c0 1.821.637 3.397 1.945 4.671C3.492 23.334 5.042 24 6.834 24c1.792 0 3.372-.666 4.678-1.973 1.276-1.274 1.915-2.85 1.915-4.67 0-1.822-.638-3.396-1.915-4.702-1.306-1.304-2.886-1.943-4.678-1.943Zm0 3.156c.973-.03 1.792.306 2.49 1.002.64.667.974 1.488 1.006 2.486a3.608 3.608 0 0 1-1.036 2.459c-.668.7-1.486 1.03-2.46 1.03-.94 0-1.761-.33-2.428-1.03-.67-.699-1.035-1.52-1.035-2.459 0-1 .365-1.82 1.035-2.486.668-.696 1.487-1.032 2.428-1.002zm8.54.485v2.822h8.353v-2.822z"/></svg>