<svg role="img" viewBox="0 0 24 24" xmlns="http://www.w3.org/2000/svg"><title>ClearML</title><path d="M3.532 11.424h1.245l.047.55a10.1 10.1 0 0 0 2.443 5.739l.122.147c.317.374.675.674 1.061.974l.175.14c1.663 1.3 3.608 1.852 5.679 2.039v1.183c-2.84.054-5.436-1.18-7.47-3.116a10.6 10.6 0 0 1-2.057-2.8l-.065-.125c-.753-1.47-1.18-3.078-1.18-4.73m13.699-2.368c.312.238.557.43.684.81l-.478.398-.136.113c-.415.34-.415.34-.693.423l-.091-.088c-.46-.427-.835-.58-1.47-.56-.363.05-.623.193-.86.476-.36.524-.375 1.047-.32 1.667.108.44.348.726.72.98.36.185.782.206 1.17.1.363-.147.634-.375.913-.645.316.174.608.365.9.576l.12.087.288.21c-.313.674-.932 1.075-1.612 1.33-.96.33-1.888.194-2.786-.245-.772-.453-1.293-1.16-1.554-2.013-.056-.28-.043-.567-.045-.85l-.005-.196c-.007-.885.376-1.614.978-2.25 1.177-1.11 2.943-1.198 4.277-.323M1.789 11.424h1.245l.02.494c.145 2.78 1.402 5.337 3.28 7.35l.136.15c.68.714 1.5 1.297 2.354 1.78l.11.064c.585.336 1.182.588 1.82.809l.154.056c1.103.386 2.233.572 3.396.629V24c-.788-.028-1.535-.081-2.305-.25l-.146-.03a12.5 12.5 0 0 1-4.772-2.148l-.116-.086c-1.904-1.43-3.303-3.277-4.242-5.455l-.06-.133c-.605-1.396-.864-2.964-.874-4.475m14.507-7.72.176.04A7.1 7.1 0 0 1 19.41 5.26l.31.25c-.098.236-.25.395-.427.58l-.163.17c-.156.12-.156.12-.284.121a1.8 1.8 0 0 1-.382-.28c-1.09-.894-2.454-1.302-3.845-1.293l-.226-.002A5.9 5.9 0 0 0 10.38 6.38l-.092.083a6.35 6.35 0 0 0-2.032 4.279c-.074 1.652.423 3.152 1.455 4.447.11.158.11.158.11.345q-.164.2-.343.385l-.1.105-.243.257c-.852-.376-1.35-1.67-1.68-2.49-.706-1.926-.596-4.003.237-5.863.842-1.803 2.393-3.284 4.272-3.97 1.404-.475 2.885-.64 4.33-.255ZM9.01 17.09l.194.148.304.226.192.146c1.686 1.26 3.517 1.68 5.599 1.597l.15-.005c1.454-.066 2.98-.77 4.106-1.67.195-.154.398-.297.6-.441l2.055 2.054c-.765.956-1.95 1.613-3.05 2.117l-.212.1c-1.31.593-2.658.844-4.085.896v-1.743h-.872a9 9 0 0 1-.545-.043l-.14-.016c-.535-.068-1.043-.214-1.557-.377l-.223-.068c-1.257-.411-2.373-1.14-3.326-2.05.257-.305.524-.592.81-.87ZM19.347 1.089l.138.068c.926.456 2.14 1.108 2.726 1.987l-.81.81a15 15 0 0 1-.812-.643c-1.03-.844-2.27-1.374-3.545-1.724l-.135-.04c-1.54-.447-3.452-.363-4.97.103l-.153.043a9.5 9.5 0 0 0-1.966.828l-.123.068a8.3 8.3 0 0 0-1.496 1.053l-.107.092a9.5 9.5 0 0 0-3.006 4.95l-.033.137a10.2 10.2 0 0 0-.278 2.044H3.532c-.118-2.64 1.141-5.285 2.864-7.223a12 12 0 0 1 1.85-1.635c3.161-2.325 7.605-2.629 11.1-.918m1.62 3.175c-.1.254-.282.422-.474.608l-.334.326-.214-.16-.14-.103a10 10 0 0 1-.272-.214c-1.702-1.39-3.825-1.79-5.968-1.626-1.857.197-3.499 1.105-4.8 2.415l-.154.152c-1.527 1.613-2.147 3.813-2.094 5.99.07 1.899.956 3.56 2.122 5.004-.099.243-.257.394-.443.576l-.172.168-.132.127c-.57-.222-1.014-1.05-1.307-1.556l-.065-.11c-1.217-2.062-1.59-4.61-1.032-6.937a9.74 9.74 0 0 1 2.466-4.348L8.12 4.4c3.512-3.672 9.179-3.232 12.849-.134" /></svg>