<svg role="img" viewBox="0 0 24 24" xmlns="http://www.w3.org/2000/svg"><title>ClearML</title><path d="M14.389 22.364h.163v-1.91h-.03a9.28 9.28 0 0 1-6.583-2.718l-.041-.043-.031.03a9.4 9.4 0 0 1-2.743-6.503v-.08l-1.79.004a11.177 11.177 0 0 0 11.055 11.219zm-.11-20.625a9.18 9.18 0 0 0-6.599 2.88 9.37 9.37 0 0 0-2.557 6.527v.078a9.4 9.4 0 0 0 2.742 6.514l.031-.03 1.169-1.165A7.635 7.635 0 1 1 19.877 5.76l.367-.37.885-.9a9.52 9.52 0 0 0-6.85-2.752m-6.601 2.88a9.18 9.18 0 0 1 6.599-2.88 9.52 9.52 0 0 1 6.84 2.735l1.238-1.258A11.18 11.18 0 0 0 3.33 11.06v.086h1.79A9.37 9.37 0 0 1 7.678 4.62m.255 13.117a9.28 9.28 0 0 0 6.584 2.717h.029v1.91a11.1 11.1 0 0 0 7.824-3.223l-2.494-2.523a7.58 7.58 0 0 1-5.361 2.202h-.088a7.58 7.58 0 0 1-5.366-2.29l-1.17 1.164zM19.866 5.743l.365-.372-.367.37zm-5.35 16.624h-.128A11.177 11.177 0 0 1 3.332 11.145H1.63A12.886 12.886 0 0 0 14.516 24h.04v-1.635zM9.172 5.727a7.64 7.64 0 0 0-.12 10.798l1.32-1.303a5.88 5.88 0 0 1-.112-8.172 5.66 5.66 0 0 1 4.078-1.764A5.96 5.96 0 0 1 18.622 7l1.248-1.25a7.64 7.64 0 0 0-10.698-.024"/></svg>