<svg role="img" viewBox="0 0 24 24" xmlns="http://www.w3.org/2000/svg"><title>Clerk</title><path d="m23.782 3.161-3.583 2.882a.711.572 0 0 1-.872.084A8.526 6.855 0 0 0 6.4 11.777a8.543 6.869 0 0 0 1.217 3.764.711.572 0 0 1-.103.698L3.93 19.121a.71.57 0 0 1-1.076-.063A14.923 11.998 0 0 1 14.511.004c3.294-.073 6.526.733 9.19 2.29a.71.57 0 0 1 .08.867zm0 17.673-3.583-2.88a.71.57 0 0 0-.872-.085 8.527 6.856 0 0 1-8.809 0 .71.57 0 0 0-.872.084l-3.583 2.881a.71.57 0 0 0 .077.876 14.922 11.997 0 0 0 17.559 0 .71.57 0 0 0 .083-.876zm-8.86-5.408a4.264 3.428 0 1 0 0-6.856 4.264 3.428 0 0 0 0 6.856z"/></svg>