<svg role="img" viewBox="0 0 24 24" xmlns="http://www.w3.org/2000/svg"><title>Clever Cloud</title><path d="M4 12.862.416 18.431 11.168 24Zm0 0L.416 18.431 11.168 24ZM12.831 0 20 11.139l3.584-5.57ZM4 12.862.416 18.431 11.168 24ZM12.83 24l10.753-5.569L20 12.862ZM4 12.862.416 18.431 11.168 24Zm19.999 4.491V6.648L20.554 12Zm-20-4.49L.417 18.43 11.168 24ZM12 .43 4.832 11.568h14.336ZM4 12.862.416 18.431 11.168 24Zm8 10.707 7.168-11.139H4.832Zm-8-12.43L11.168 0 .416 5.569Zm0 1.723L.416 18.431 11.168 24ZM0 6.647v10.707L3.445 12Z"/></svg>