<svg role="img" viewBox="0 0 24 24" xmlns="http://www.w3.org/2000/svg"><title>Clickteam Fusion</title><path d="M14.056 14.199c-.125.117-.26.223-.404.317 1.292 2.262 1.69 4.03.926 4.921-1.152 1.343-4.675.383-9.136-2.187 1.334-.77 2.826-1.86 4.375-3.208a3.005 3.005 0 0 1-.315-.4c-2.27 1.3-4.046 1.702-4.94.936-1.343-1.153-.38-4.68 2.193-9.146.77 1.336 1.86 2.83 3.21 4.382.125-.117.257-.224.4-.318-1.298-2.268-1.698-4.041-.933-4.933 1.153-1.343 4.677-.382 9.14 2.189-1.332.766-2.822 1.854-4.37 3.2.118.125.226.259.32.402 2.26-1.288 4.025-1.685 4.915-.922 1.342 1.152.383 4.673-2.184 9.131-.767-1.33-1.854-2.82-3.197-4.364m9.376-8.33c-.78-.69-2.265-.46-4.134.489-5.975-5.004-11.845-7.58-13.43-5.79-.69.78-.459 2.269.493 4.14-5.006 5.977-7.583 11.85-5.793 13.434.781.692 2.272.458 4.147-.497 5.975 5.002 11.842 7.576 13.426 5.787.691-.78.46-2.269-.493-4.141 5-5.973 7.572-11.838 5.783-13.422M14.176 12a2.177 2.177 0 1 1-4.354 0 2.177 2.177 0 0 1 4.354 0"/></svg>