<?xml version="1.0" encoding="utf-8"?>
<!-- Generator: Adobe Illustrator 24.0.0, SVG Export Plug-In . SVG Version: 6.00 Build 0)  -->
<svg version="1.1" id="Layer_1" xmlns="http://www.w3.org/2000/svg" xmlns:xlink="http://www.w3.org/1999/xlink" x="0px" y="0px"
	 viewBox="0 0 128 128" style="enable-background:new 0 0 128 128;" xml:space="preserve">
<style type="text/css">
	.st0{fill:#FFFFFF;}
</style>
<title>icon_CLion</title>
<g>
	<rect width="128" height="128"/>
	<rect x="12.2" y="104" class="st0" width="48" height="8"/>
	<path class="st0" d="M11.2,43.5L11.2,43.5C10.9,28.7,22.7,16.3,37.5,16c0.4,0,0.8,0,1.2,0c9.9,0,16,3.2,20.8,8.3L52.2,33
		c-4.2-3.8-8.3-6.1-13.4-6.1c-9,0-15.4,7.4-15.4,16.6l0,0c0,9,6.4,16.6,15.4,16.6c6.1,0,9.9-2.6,14.1-6.1l7.4,7.4
		C54.7,67.2,48.6,71,38.4,71c-15,0-27.2-12.2-27.2-27.2C11.2,43.7,11.2,43.6,11.2,43.5"/>
	<path class="st0" d="M68.2,16.6H80v43.2h23v9.9H68.2V16.6z"/>
</g>
</svg>
