<?xml version="1.0" encoding="utf-8"?>
<!-- Generator: Adobe Illustrator 24.0.0, SVG Export Plug-In . SVG Version: 6.00 Build 0)  -->
<svg version="1.1" id="Layer_1" xmlns="http://www.w3.org/2000/svg" xmlns:xlink="http://www.w3.org/1999/xlink" x="0px" y="0px"
	 viewBox="0 0 24 24" style="enable-background:new 0 0 24 24;" xml:space="preserve">
<title>CLion icon</title>
<path d="M0,0v24h24V0H0z M11.3,21h-9v-1.5h9V21z M7.2,13.4C4.4,13.3,2.1,11,2.1,8.2C2,5.4,4.3,3.1,7,3h0.2c1.9,0,3,0.6,3.9,1.6
	L9.8,6.2C9,5.5,8.2,5,7.3,5C5.6,5,4.4,6.4,4.4,8.2c0,1.7,1.2,3.1,2.9,3.1c1.1,0,1.9-0.5,2.6-1.1l1.4,1.4
	C10.2,12.7,9.1,13.4,7.2,13.4z M19.3,13.1h-6.5v-10H15v8.1h4.3V13.1z"/>
</svg>
