<svg role="img" viewBox="0 0 24 24" xmlns="http://www.w3.org/2000/svg"><title>Clorox</title><path d="M13.634 10.5727v.8059c0 .2464-.1189.3654-.3738.3654h-.4079v-1.5113h.4418c.2295 0 .3399.1106.3399.34m-3.6969-.3994c-.238 0-.3483.1105-.3483.3483v2.9568c0 .2378.1104.3484.3483.3484h.1868c.2294 0 .34-.1105.34-.3484v-2.9568c0-.2378-.1105-.3483-.34-.3483zM24 11.1423v1.7154c0 .2875-.1521.5605-.4166.7459-3.094 2.1677-7.731 4.4297-11.2178 5.364a1.41 1.41 0 0 1-.7312 0c-3.4861-.9343-8.1231-3.1963-11.2177-5.364C.1521 13.4183 0 13.1452 0 12.8577v-1.7154c0-.2875.1521-.5605.4167-.7458 3.0947-2.1678 7.7317-4.4297 11.2177-5.364a1.41 1.41 0 0 1 .7314 0c3.4868.9343 8.1238 3.1962 11.2178 5.364h-.0001c.2644.1853.4165.4583.4165.7458M5.1836 9.1278C7.5277 8.0688 10.0173 7.0906 12 6.6182c1.9827.4724 4.4722 1.4506 6.8163 2.5096C16.495 7.9026 13.9802 6.8392 12 6.3016c-1.9803.5377-4.4951 1.601-6.8164 2.8262m11.5206.2468h-.4843c-.7392 0-1.1046.3655-1.1046 1.1046v3.0417c0 .7393.3654 1.1046 1.1046 1.1046h.4843c.7392 0 1.1046-.3653 1.1046-1.1046v-3.0417c-.0001-.7392-.3654-1.1046-1.1046-1.1046m-2.8538 2.7432a.6924.6924 0 0 0 .6928-.6928v-.8949c0-.7392-.3654-1.1046-1.1046-1.1046h-1.4955v5.1489h.9092v-2.0403h.3995c.2633 0 .3823.1191.3823.3824l.0002.8088c0 .4407.1159.6984.331.8491h.8625c-.1843-.2604-.2845-.599-.2846-1.0056v-.7582a.6924.6924 0 0 0-.6928-.6928m-3.582-2.7432h-.4843c-.7392 0-1.1047.3655-1.1047 1.1046v3.0418c0 .7392.3655 1.1046 1.1047 1.1046h.4843c.7392 0 1.1046-.3654 1.1046-1.1046v-3.0418c0-.7392-.3654-1.1046-1.1046-1.1046m-2.8626 4.3757V9.4256h-.9091v5.1489h1.9117v-.8242zm-2.5106.8752c.7393 0 1.1046-.3654 1.1046-1.1046v-.9335h-.8922v.891c0 .2378-.1105.3484-.3399.3484h-.1699c-.238 0-.3484-.1105-.3484-.3484v-2.9568c0-.2378.1103-.3483.3484-.3483h.1529c.2294 0 .3399.1105.3399.3483v.8168h.8922v-.8678c0-.7392-.357-1.0961-1.0962-1.0961h-.4417c-.7392 0-1.1046.3655-1.1046 1.1046v3.0418c0 .7392.3654 1.1046 1.1046 1.1046zm13.9211.2467c-2.344 1.059-4.8336 2.0372-6.8163 2.5096-1.9827-.4724-4.4723-1.4506-6.8164-2.5096 2.3213 1.2252 4.8361 2.2886 6.8164 2.8262 1.9802-.5376 4.495-1.601 6.8163-2.8262m2.0868-.2977-.8327-2.6605.8157-2.4884h-.8752l-.5098 1.7769-.4927-1.7769h-.9346l.8156 2.5648-.8326 2.5841h.8751l.5353-1.9243.5014 1.9243zm-4.5303-4.4012c-.238 0-.3484.1105-.3484.3483v2.9568c0 .2378.1104.3484.3484.3484h.1869c.2294 0 .3399-.1105.3399-.3484v-2.9568c0-.2378-.1105-.3483-.3399-.3483z"/></svg>