<svg role="img" viewBox="0 0 24 24" xmlns="http://www.w3.org/2000/svg"><title>Cloud Foundry</title><path d="M14.554 9.719c.722-.589 1.17-1.424 1.16-2.348-.015-1.76-1.678-3.178-3.714-3.178-2.037 0-3.701 1.418-3.716 3.178-.008.923.44 1.759 1.165 2.348.896.731 1.627 2.203 1.669 3.812.048 1.786-.074 3.854-.147 4.905-.959.139-1.631.458-1.631.831 0 .496 1.191 1.068 2.659 1.068 1.468 0 2.659-.573 2.659-1.068 0-.373-.672-.692-1.63-.831-.073-1.052-.196-3.119-.149-4.905.044-1.609.78-3.081 1.675-3.812zm4.499 10.396c.143-.06.288-.101.439-.129.169-.036.339-.059.508-.062 0 0-.005-.059-.019-.144-.003-.083-.045-.194-.08-.306l-.06-.158c-.021-.051-.052-.097-.069-.139l-.074-.13a3.962 3.962 0 0 1-.523-.117 4.218 4.218 0 0 1-.475-.163c-.271-.12-.524-.251-.656-.398a.486.486 0 0 1-.186-.411.334.334 0 0 1 .088-.178.508.508 0 0 1 .191-.148l-.159-.092c-.048-.023-.103-.054-.163-.086-.061-.031-.134-.063-.202-.095a6.325 6.325 0 0 0-.379-.171l-.178-.071a3.133 3.133 0 0 1-.412.027 4.456 4.456 0 0 1-1.281-.15 1.945 1.945 0 0 1-.595-.254c-.133-.096-.225-.194-.224-.293l-.198-.034a16.579 16.579 0 0 0-.561-.077c-.005.029-.024.052-.03.1l-.044.208a.821.821 0 0 0 .559.956c.998.29 1.754.768 1.97 1.353.442 1.189-1.41 2.349-4.221 2.349-2.81 0-4.661-1.161-4.223-2.351.214-.57.937-1.041 1.899-1.331a.86.86 0 0 0 .587-1.005l-.059-.28c-.112.014-.242.026-.373.046-.17.019-.329.048-.449.068l-.206.033c.008.097-.061.206-.192.299a1.457 1.457 0 0 1-.238.138 2.834 2.834 0 0 1-.328.125 4.256 4.256 0 0 1-.833.148 4.287 4.287 0 0 1-.871-.004l-.049.02c-.029.013-.079.031-.127.056l-.369.177c-.135.065-.253.136-.349.192l-.114.065a.373.373 0 0 1-.041.024c.188.088.293.205.313.33.047.133-.018.272-.139.42a1.75 1.75 0 0 1-.265.22 2.22 2.22 0 0 1-.377.198c-.318.148-.654.25-.998.311a.607.607 0 0 0-.058.132l-.105.303-.045.314a.54.54 0 0 0-.008.145c.391.004.736.07.994.174.3.099.482.248.622.427.112.198.155.401.057.639-.068.233-.257.49-.565.722l.048.044c.035.024.083.059.143.099.122.086.276.205.456.313.191.102.385.21.532.291.072.041.147.065.193.088.046.022.075.033.075.033.434-.185.901-.28 1.367-.33a3.77 3.77 0 0 1 .68-.016c.222.011.449.029.662.079.21.053.416.108.596.188.173.08.34.174.5.28.305.209.543.507.642.816l.397.016c.239.008.554.03.869.013.317-.013.636-.016.869-.031l.389-.038c.035-.163.102-.318.201-.455.049-.066.106-.131.167-.193.184-.2.41-.36.661-.468.183-.092.374-.159.574-.205.215-.046.419-.087.641-.102.224-.016.459-.01.677.001.475.03.939.129 1.384.293l.24-.132c.135-.083.336-.18.485-.301.158-.115.318-.223.417-.318.098-.089.158-.147.158-.147a1.808 1.808 0 0 1-.625-.7.752.752 0 0 1-.076-.324.476.476 0 0 1 .076-.301c.082-.189.3-.326.544-.437m-9.505-5.836s.418-1.582-1.393-3.62l-.064-.063a5.039 5.039 0 0 1-1.184-3.24 5.039 5.039 0 0 1 5.035-5.03h.118a5.04 5.04 0 0 1 5.036 5.03 5.06 5.06 0 0 1-1.187 3.238c-.008.008-.027.031-.059.062-1.613 1.611-1.399 3.622-1.399 3.622a7.33 7.33 0 0 0 4.944-6.882C19.42 3.52 16.286.211 12.418.027a2.307 2.307 0 0 0-.144-.004L12 .027l-.275-.004c-.048 0-.096 0-.144.004C7.712.211 4.582 3.52 4.603 7.396a7.331 7.331 0 0 0 4.944 6.881zm5.007-4.558c.722-.589 1.17-1.424 1.16-2.348-.015-1.76-1.678-3.178-3.714-3.178-2.037 0-3.701 1.418-3.716 3.178-.008.923.44 1.759 1.165 2.348.896.731 1.627 2.203 1.669 3.812.048 1.786-.074 3.854-.147 4.905-.959.139-1.631.458-1.631.831 0 .496 1.191 1.068 2.659 1.068 1.468 0 2.659-.573 2.659-1.068 0-.373-.672-.692-1.63-.831-.073-1.052-.196-3.119-.149-4.905.044-1.609.78-3.081 1.675-3.812zm0 0c.722-.589 1.17-1.424 1.16-2.348-.015-1.76-1.678-3.178-3.714-3.178-2.037 0-3.701 1.418-3.716 3.178-.008.923.44 1.759 1.165 2.348.896.731 1.627 2.203 1.669 3.812.048 1.786-.074 3.854-.147 4.905-.959.139-1.631.458-1.631.831 0 .496 1.191 1.068 2.659 1.068 1.468 0 2.659-.573 2.659-1.068 0-.373-.672-.692-1.63-.831-.073-1.052-.196-3.119-.149-4.905.044-1.609.78-3.081 1.675-3.812z"/></svg>