<svg xmlns="http://www.w3.org/2000/svg" viewBox="0 0 24 24" role="img"><title>Cloudsmith icon</title><path d="M19.939 19.818a4.133 4.133 0 1 1-4.13-4.135 4.133 4.133 0 0 1 4.13 4.135zm0 0M15.904 8.334h.519c.98-.069 1.922-.455 2.637-1.207a4.126 4.126 0 0 0 0-5.856 4.126 4.126 0 0 0-5.856 0c-.974.98-1.334 2.282-1.17 3.516-.456 2.536-2.833 2.896-3.87 2.928a4.062 4.062 0 0 0-3.22 1.202 4.116 4.116 0 0 0 0 5.855 4.12 4.12 0 0 0 5.85 0 4.088 4.088 0 0 0 1.208-2.668v-.228c.095-3.087 2.764-3.51 3.902-3.542zm0 0"/></svg>
