<svg role="img" viewBox="0 0 24 24" xmlns="http://www.w3.org/2000/svg"><title>Cloudways icon</title><path d="M674.001 896.845c-7.683-8.174-13.986-14.594-19.967-21.307-22.666-25.422-41.047-53.648-54.629-84.891-2.177-5.004-4.852-6.822-10.373-6.724-19.594.354-39.209.191-58.811.117-17.304-.051-26.465-8.695-26.976-25.878a552.742 552.742 0 01.015-34.549c.553-16.911 9.606-25.368 26.531-25.391 14.142-.028 28.289-.004 43.338-.004-3.539-38.513-2.916-75.993 5.362-114.222h-10.996c-173.743 0-347.485.008-521.232-.008-23.658 0-41.193-13.811-45.479-35.67-5.061-25.808 14.656-50.467 41.188-51.48 2.694-.098 5.393-.035 8.084-.035 184.038 0 368.068-.042 552.108.16 6.791.004 10.365-2.161 13.717-7.955 22.614-39.128 52.297-72.023 88.75-98.78 1.908-1.402 3.738-2.929 5.397-6.199h-8.948c-140.171 0-280.341.09-420.512-.214-8.562-.02-17.822-1.526-25.539-5.027-18.297-8.298-27.373-29.238-22.767-48.644 4.552-19.184 22.311-33.26 42.375-33.28 61.751-.066 123.505-.028 185.257-.028 112.97 0 225.934-.058 338.907.156 6.62.008 9.832-1.608 12.055-8.196 11.472-34.097 28.175-65.574 49.093-94.828 1.943-2.718 3.831-5.475 6.646-9.508-4.618-.206-7.877-.491-11.136-.491-163.938-.024-327.877.074-491.819-.268-9.224-.02-19.302-1.884-27.47-5.939-17.581-8.722-25.683-29.627-20.692-48.081 5.443-20.119 22.062-32.817 43.295-32.817 198.001-.024 396.008-.039 594.01.09 6.382.004 11.732-1.468 17.195-4.766 50.755-30.64 105.695-47.695 164.969-51.572 172.407-11.288 326.754 102.005 375.274 266.344 2.764 9.365 5.331 18.838 7.153 28.421.965 5.05 3.026 7.277 7.877 8.979 107.471 37.625 178.847 111.065 210.465 220.086 50.891 175.464-49.037 355.482-219.046 405.638-26.669 7.862-53.932 12.347-81.695 12.498-125.398.689-250.796 1.347-376.19 1.46-247.992.218-495.988.094-743.981-.094-7.417-.008-15.341-1.036-22.17-3.757-19.274-7.674-29.339-27.74-25.512-48.426 3.601-19.426 21.24-34.191 41.74-34.911 2.2-.07 4.408-.02 6.616-.02h346.995c3.118.015 6.25.015 11.525.015z"/><path d="M210.276 784.066c-49.948 0-99.898.008-149.85-.004-20.201-.008-28.744-8.368-28.829-28.315-.051-11.51-.194-23.024.156-34.525.413-13.527 9.975-22.93 23.545-22.938 103.566-.086 207.139-.09 310.712.008 13.585.008 23.351 9.82 23.775 23.799.397 13.211.406 26.454.015 39.665-.393 13.172-11.23 22.264-26.006 22.292-34.281.066-68.565.024-102.842.024-16.891-.004-33.782-.004-50.681-.004z"/></svg>
