<svg aria-labelledby="simpleicons-cloudflare-icon" role="img" viewBox="0 0 24 24" xmlns="http://www.w3.org/2000/svg"><title id="simpleicons-cloudflare-icon">Cloudflare icon</title><path d="M16.509 16.843c.148-.507.091-.97-.155-1.315-.225-.317-.605-.5-1.062-.521l-8.659-.113a.16.16 0 0 1-.134-.07.194.194 0 0 1-.02-.155.237.237 0 0 1 .203-.154l8.737-.113c1.034-.05 2.159-.886 2.553-1.913l.5-1.301a.28.28 0 0 0 .013-.17 5.69 5.69 0 1 0-10.938-.584 2.584 2.584 0 0 0-1.793-.498 2.562 2.562 0 0 0-2.223 3.179A3.634 3.634 0 0 0 0 16.75c0 .176.014.352.035.528a.173.173 0 0 0 .169.148h15.981a.217.217 0 0 0 .204-.155l.12-.43zM19.266 11.279c-.077 0-.162 0-.239.007-.056 0-.106.042-.127.099l-.337 1.174c-.148.507-.092.97.154 1.316.226.316.605.499 1.063.52l1.843.113a.16.16 0 0 1 .133.07.198.198 0 0 1 .021.155.237.237 0 0 1-.204.154l-1.92.113c-1.041.05-2.16.886-2.553 1.913l-.141.359c-.028.07.021.14.098.14h6.598c.078 0 .148-.049.17-.126a4.73 4.73 0 0 0-4.558-6.007"/></svg>
