<svg role="img" viewBox="0 0 24 24" xmlns="http://www.w3.org/2000/svg"><title>Cloud Foundry</title><path d="M14.553 9.718c.722-.59 1.17-1.427 1.16-2.353-.015-1.764-1.678-3.185-3.714-3.185-2.037 0-3.701 1.42-3.716 3.185-.008.925.44 1.763 1.165 2.353.896.733 1.627 2.208 1.669 3.821.048 1.79-.074 3.863-.147 4.917-.959.139-1.631.459-1.631.832 0 .498 1.191 1.07 2.659 1.07 1.468 0 2.659-.573 2.659-1.07 0-.373-.672-.693-1.63-.832-.073-1.055-.196-3.127-.149-4.917.044-1.613.78-3.088 1.675-3.82zm4.499 10.42c.306-.146.644-.141.947-.191-.004-.332-.195-.615-.302-.88-.36-.04-.682-.18-.998-.28-.271-.12-.524-.251-.656-.399a.488.488 0 0 1-.186-.412c.003-.176.197-.23.279-.326-.377-.226-.71-.352-1.081-.517a3.126 3.126 0 0 1-.412.028 4.446 4.446 0 0 1-1.281-.15 1.943 1.943 0 0 1-.595-.255c-.133-.097-.225-.195-.224-.294-.255-.05-.534-.079-.759-.111-.037.098-.047.195-.074.308a.823.823 0 0 0 .559.959c.998.29 1.754.77 1.97 1.356.442 1.191-1.41 2.354-4.221 2.354-2.81 0-4.661-1.164-4.223-2.356.214-.572.937-1.044 1.899-1.334a.862.862 0 0 0 .587-1.008l-.059-.28c-.384.04-.671.092-1.028.147.008.097-.061.206-.192.3-.408.289-.952.332-1.399.412-.29.028-.582.027-.871-.004-.39.158-.677.334-1.008.51a.372.372 0 0 1-.041.025c.188.088.293.205.313.33.047.134-.018.273-.139.422-.17.212-.44.29-.642.419-.318.148-.654.25-.998.311-.17.286-.161.61-.216.896.684-.038 1.135.272 1.616.603.231.65-.15.948-.508 1.364.458.37.977.621 1.447.87.7-.309 1.364-.31 2.047-.347.455-.01.857.149 1.258.268.56.198.852.684 1.142 1.098.935.056 1.668.012 2.524-.04.156-.568.606-.83 1.029-1.118 1.144-.455 2.212-.291 3.276-.013.525-.258.887-.578 1.3-.9a1.81 1.81 0 0 1-.625-.702c-.17-.203 0-.448 0-.627m-8.961-6.287s.418-1.586-1.393-3.628l-.064-.064c-2.754-3.278-.43-8.28 3.851-8.29h.118a5.046 5.046 0 0 1 5.036 5.043 5.08 5.08 0 0 1-1.187 3.245c-.008.008-.027.031-.059.063-1.613 1.614-1.399 3.63-1.399 3.63a7.346 7.346 0 0 0 4.944-6.898c.026-3.883-3.108-7.2-6.976-7.384A2.302 2.302 0 0 0 12.273 0l-.274.004L11.724 0c-.048 0-.096 0-.144.004C7.711.188 4.581 3.505 4.602 7.39c.02 3.115 2 5.878 4.944 6.897zm5.007-4.569c.722-.59 1.17-1.427 1.16-2.353-.015-1.764-1.678-3.185-3.714-3.185-2.037 0-3.701 1.42-3.716 3.185-.008.925.44 1.763 1.165 2.353.896.733 1.627 2.208 1.669 3.821.048 1.79-.074 3.863-.147 4.917-.959.139-1.631.459-1.631.832 0 .498 1.191 1.07 2.659 1.07 1.468 0 2.659-.573 2.659-1.07 0-.373-.672-.693-1.63-.832-.073-1.055-.196-3.127-.149-4.917.044-1.613.78-3.088 1.675-3.82zc.722-.59 1.17-1.427 1.16-2.353-.015-1.764-1.678-3.185-3.714-3.185-2.037 0-3.701 1.42-3.716 3.185-.008.925.44 1.763 1.165 2.353.896.733 1.627 2.208 1.669 3.821.048 1.79-.074 3.863-.147 4.917-.959.139-1.631.459-1.631.832 0 .498 1.191 1.07 2.659 1.07 1.468 0 2.659-.573 2.659-1.07 0-.373-.672-.693-1.63-.832-.073-1.055-.196-3.127-.149-4.917.044-1.613.78-3.088 1.675-3.82z"/></svg>