<svg role="img" viewBox="0 0 24 24" xmlns="http://www.w3.org/2000/svg"><title>CloudBees icon</title><path d="M3.5615 6.4196c0-1.203.732-2.284 1.884-2.805a3.516 3.516 0 013.5161.39l2.5241-2.3541a7.2632 7.2632 0 00-8.2542-.67 6.2302 6.2302 0 00-2.955 7.2111 6.8322 6.8322 0 006.611 4.6481h2.5852v-3.305H6.8876c-1.833-.02-3.326-1.413-3.326-3.1251zm13.5343 4.738h-2.586v3.3052h2.585c1.833 0 3.3261 1.403 3.3261 3.106 0 1.723-1.493 3.1051-3.326 3.1051-1.8331 0-3.3261-1.372-3.3261-3.085V6.4085c0-1.582-.63-3.1151-1.763-4.2971l-2.5231 2.374c.47.531.731 1.222.731 1.934v11.1593c0 3.5461 3.085 6.4212 6.8821 6.4212 3.8071 0 6.8822-2.875 6.8822-6.4212 0-3.546-3.075-6.4211-6.8822-6.4211z"/></svg>