<svg role="img" viewBox="0 0 24 24" xmlns="http://www.w3.org/2000/svg"><title>Clyp icon</title><path d="M12 17.958a1.137 1.137 0 01-1.137-1.136V7.234a1.138 1.138 0 012.275 0v9.59c0 .626-.51 1.134-1.138 1.134m7.44 2.44a1.137 1.137 0 01-1.14-1.138V4.795a1.138 1.138 0 012.276 0v14.466c0 .627-.51 1.136-1.138 1.136M15.72 24a1.137 1.137 0 01-1.138-1.136V1.137a1.138 1.138 0 012.276 0v21.727c0 .627-.509 1.136-1.138 1.136m-7.437-3.16a1.137 1.137 0 01-1.138-1.136V4.297a1.138 1.138 0 012.276 0v15.407c0 .628-.51 1.137-1.138 1.137m-3.72-4.989a1.137 1.137 0 01-1.138-1.135V9.285a1.138 1.138 0 012.276 0v5.432c0 .626-.51 1.135-1.138 1.135z"/></svg>