<svg role="img" viewBox="0 0 24 24" xmlns="http://www.w3.org/2000/svg"><title>Cockpit</title><path d="M16.733 6.487c-.611.038-1.482.516-2.257 1.296L12.77 9.49 7.493 7.718 6.464 8.781l3.982 3.032-.884.884c-.315.313-.579.641-.781.961l-2.398-.178-.01.01-.587.587 1.838 1.347.547.405.405.547 1.347 1.839.588-.588.01-.01-.18-2.398c.32-.203.65-.467.962-.782l.884-.884 3.032 3.982 1.063-1.028-1.772-5.277 1.706-1.706c1.04-1.034 1.545-2.237 1.182-2.77a1 1 0 0 0-.068-.085c-.025-.025-.084-.067-.084-.067-.133-.09-.309-.127-.512-.115zm3.756-2.976C15.807-1.17 8.193-1.17 3.51 3.511c-4.682 4.682-4.681 12.296 0 16.978 4.682 4.681 12.296 4.682 16.978 0 4.681-4.682 4.681-12.296 0-16.978m-1.145 1.145a10.373 10.373 0 0 1 0 14.688 10.373 10.373 0 0 1-14.688 0 10.373 10.373 0 0 1 0-14.688 10.373 10.373 0 0 1 14.688 0z"/></svg>