<svg role="img" viewBox="0 0 24 24" xmlns="http://www.w3.org/2000/svg"><title>Cocos icon</title><path d="M10.337 0c1.028.618 1.992 1.236 2.844 2.01.384.349.748.719 1.132 1.067a.531.531 0 0 0 .318.132c1.63.008 3.259.005 4.889.006.554 0 .829.277.829.838l-.001 19.123c0 .543-.282.824-.824.824H4.485c-.545 0-.827-.28-.827-.821-.001-6.375.002-12.749-.007-19.123-.001-.444.276-.859.854-.85 1.527.024 3.054.006 4.582.01a.493.493 0 0 0 .365-.15c.364-.338.73-.675 1.117-.986.182-.146.221-.278.16-.498-.141-.504-.254-1.017-.392-1.582zm6.896 13.117c.613-2.267.338-4.428-.46-6.611l-.244.781c-1.211-2.484-3.003-4.393-5.236-5.925l.497 2.07-.036.017-.508-.537-.782 1.389-.037-.019.376-1.562-.045-.032c-.314.289-.638.571-.941.872-1.643 1.63-2.789 3.537-3.221 5.835a.667.667 0 0 0 .054.372c.121.267.27.521.408.78l-.062.041-1.123-1.526c-.064 1.434.261 3.261.822 4.546.541 1.241 1.333 2.262 2.517 2.976 1.877 1.132 3.742 1.099 5.595-.004 1.276-.76 2.163-1.9 2.9-3.167.088-.151.167-.308.27-.5l-.744.204zM8.501 3.976c-.019-.001-.068-.006-.116-.006-1.169 0-2.339-.002-3.508 0-.339 0-.46.124-.46.465v13.904c0 .322.124.445.453.447.519.003 1.038.002 1.557.002h12.606c.436 0 .556-.098.556-.456V4.45c0-.367-.117-.48-.489-.481h-3.705c-.076 0-.151.008-.234.013l1.209 1.67.32-1.062c1.059 2.471 1.819 4.934 1.37 7.644l1.13-.303c-.252.482-.472.91-.697 1.334-.731 1.377-1.639 2.61-2.91 3.543-1.074.789-2.276 1.232-3.611 1.22-1.849-.016-3.36-.815-4.581-2.157-1.153-1.268-1.696-2.827-1.975-4.492-.234-1.399-.164-2.811-.165-4.221 0-.028.023-.057.048-.115l.845 1.244c.335-.75.624-1.527 1.017-2.247.393-.718.89-1.379 1.34-2.064zm4.942 17.406v.569c0 .197-.002.394 0 .591.005.436.183.65.609.665a23 23 0 0 0 1.619 0c.398-.013.602-.215.607-.603.012-.817.01-1.635-.003-2.452-.005-.35-.186-.56-.533-.578a17.452 17.452 0 0 0-1.727-.008c-.406.02-.568.237-.572.655-.003.388 0 .774 0 1.161zm-3.361.045v-1.16c-.002-.491-.194-.7-.682-.711a29.527 29.527 0 0 0-1.488.001c-.46.011-.661.22-.665.686-.007.774-.005 1.547.001 2.321.003.419.191.632.607.646.539.019 1.08.017 1.619.001.415-.013.604-.23.607-.644.002-.381 0-.761.001-1.14zm9.42-1.867c-.733 0-1.441-.015-2.147.006-.378.011-.555.232-.567.617-.007.241-.003.482-.004.723 0 .534.189.73.721.736.402.004.804.007 1.205-.002.187-.004.272.066.265.255a5.331 5.331 0 0 0 0 .438c.008.188-.078.262-.263.26-.555-.005-1.11-.002-1.666-.002h-.244v.615c.751 0 1.488.017 2.223-.007.379-.012.558-.236.571-.618.01-.277.008-.555.003-.833-.008-.426-.207-.623-.639-.632-.299-.006-.599 0-.898-.003-.74-.006-.632.087-.638-.64-.002-.265.026-.291.286-.292h1.791l.001-.621zm-6.466 3.032h-.268c-.424 0-.847-.005-1.271.001-.194.003-.272-.071-.269-.272.009-.599.003-1.198.003-1.797 0-.316.023-.34.332-.34h1.451v-.631c-.594 0-1.17-.01-1.745.003-.474.011-.669.226-.67.703-.002.745-.001 1.49 0 2.236 0 .512.199.716.714.721.526.005 1.052.002 1.578 0 .048 0 .096-.013.146-.02l-.001-.604zM6.83 19.581c-.664 0-1.319-.021-1.972.009-.291.013-.445.239-.449.557a120.21 120.21 0 0 0-.001 2.476c.003.341.172.553.514.567.632.027 1.266.008 1.913.008v-.607h-.223c-.438 0-.876-.003-1.314.002-.181.002-.265-.06-.263-.255.007-.635.005-1.271 0-1.907-.001-.178.073-.252.248-.25.438.004.876.002 1.314 0 .076 0 .153-.009.232-.014l.001-.586zm4.732-6.456c-.011.443-.1.823-.314 1.167-.516.83-1.509 1.044-2.324.502-.933-.62-1.276-1.999-.743-2.982.547-1.007 1.747-1.211 2.597-.439.528.48.764 1.09.784 1.752zm-.913.333a.478.478 0 0 0-.478-.491.48.48 0 0 0-.492.477.49.49 0 0 0 .477.495.488.488 0 0 0 .493-.481zm5.695-.673c-.042.852-.319 1.519-.977 1.986-.855.606-1.938.332-2.417-.601-.501-.976-.201-2.259.68-2.912 1.002-.742 2.295-.259 2.626.988.051.196.066.402.088.539zm-2.729.668a.477.477 0 0 0 .486.482.49.49 0 0 0 .486-.488.485.485 0 0 0-.49-.48.48.48 0 0 0-.482.486zm-1.483-4.794l.621.523-.62-1.506c-.433.718-.532 1.478-.507 2.267.124-.45.224-.909.506-1.284zm-2.607-.46l-.197-1.592c-.461.338-1.087 1.52-1.067 2.009.117-.195.223-.396.353-.579.129-.183.283-.348.434-.531l.477.693zm5.042.001l.493-.721.808 1.145c-.202-.763-.5-1.463-1.102-2.046-.068.546-.129 1.051-.199 1.622zm-1.84-2.146c-.184-.545-.475-1.011-.899-1.377l-.379 1.425.031.023.576-.708.671.637zm2.922 14.386c.005-.191-.077-.261-.261-.258-.357.006-.714.005-1.071.001-.177-.002-.247.078-.246.253.004.642.005 1.283 0 1.925-.001.159.069.23.22.231.379.002.758 0 1.137 0 .168 0 .227-.084.223-.248-.008-.321-.002-.642-.003-.962-.001-.315-.008-.629.001-.942zm-7.771 1.909c-.004.169.067.244.23.244l1.115.001c.159 0 .236-.068.235-.239-.006-.642-.004-1.283-.001-1.925.001-.16-.056-.247-.228-.245-.372.004-.744.003-1.115 0-.167-.002-.236.076-.234.24.004.321.001.642.001.963 0 .319.006.64-.003.961z"/></svg>