<svg role="img" viewBox="0 0 24 24" xmlns="http://www.w3.org/2000/svg"><title>Cocos icon</title><path d="M20.35 4.083c.001-.495-.306-.887-.855-.869-.897.03-1.796.008-2.695.008h-2.297c-.688-.608-1.309-1.21-1.985-1.74C11.839.951 11.105.491 10.395 0a2.365 2.365 0 0 1-.049.053l.437 1.824L9.26 3.222c-1.572 0-3.157.017-4.741-.009-.577-.009-.87.386-.869.878.011 6.356.008 12.713.008 19.069 0 .56.277.84.83.84h15.031c.54 0 .822-.283.822-.826v-4.165c.001-4.975-.003-9.951.009-14.926zM9.815 3.569c.304-.301.627-.583.984-.842l-.376 1.562.039.02.767-1.363.573.549-.509-2.118c2.229 1.527 4.019 3.433 5.228 5.915l.121-.37c.037-.116.071-.232.125-.407.797 2.184 1.072 4.345.458 6.606l.764-.206c-.229.384-.417.723-.628 1.048-.751 1.154-1.649 2.169-2.89 2.808-1.757.904-3.493.867-5.213-.155-1.636-.971-2.496-2.469-2.991-4.231-.28-.997-.383-2.021-.404-3.054-.002-.078 0-.156 0-.27L6.998 10.6l.063-.042c-.139-.261-.288-.517-.41-.785a.662.662 0 0 1-.054-.371c.431-2.298 1.576-4.204 3.218-5.833zm-5.401.912c0-.4.107-.507.505-.507l3.375.001h.291C7.482 5.291 6.671 6.712 6.194 8.376l-.89-1.315c-.026.063-.049.092-.049.121-.001 1.395-.069 2.792.161 4.178.277 1.671.818 3.238 1.977 4.511 1.22 1.34 2.728 2.14 4.578 2.154 1.329.01 2.522-.428 3.591-1.207 1.155-.842 2.016-1.938 2.713-3.172.28-.496.535-1.005.8-1.509.025-.048.036-.103.065-.186l-1.088.292c.445-2.708-.306-5.169-1.366-7.63l-.319 1.056-1.215-1.682c.092-.005.175-.012.258-.012h3.704c.354 0 .473.118.473.473v13.899c0 .319-.127.443-.457.444-3.492.002-6.984.002-10.475.002-1.256 0-2.513.001-3.769-.002-.354-.001-.47-.121-.47-.475-.002-4.613-.002-9.224-.002-13.835zm2.417 18.733c-.492 0-.979.003-1.465-.001a3.089 3.089 0 0 1-.5-.032c-.281-.049-.446-.225-.449-.51-.01-.854-.01-1.707 0-2.561.003-.297.168-.472.46-.527.135-.026.275-.031.413-.032.509-.004 1.017-.001 1.537-.001v.649H5.061v2.346c.082.015.177.047.272.048.495.005.99.002 1.5.002-.002.206-.002.398-.002.619zm3.245-.621c-.003.357-.155.574-.508.593-.596.032-1.196.034-1.793.003-.367-.019-.524-.23-.527-.602-.006-.789-.008-1.578 0-2.366.004-.444.198-.649.639-.663a23.713 23.713 0 0 1 1.555.001c.444.015.629.225.633.667.004.387.001.774.001 1.161.001.403.003.804 0 1.206zm2.955.603c-.052.006-.107.017-.162.017-.511.001-1.022.004-1.533 0-.543-.004-.739-.202-.739-.74 0-.752-.002-1.504.001-2.256.001-.408.179-.635.578-.652.603-.025 1.208-.006 1.836-.006v.636h-1.758v2.354c.579.104 1.175.002 1.776.059l.001.588zm3.246-.653c-.002.434-.204.652-.641.665-.518.015-1.037.016-1.555 0-.453-.014-.637-.224-.64-.681-.002-.38 0-.76 0-1.139 0-.38-.002-.76.001-1.139.003-.459.181-.675.633-.693.525-.021 1.052-.02 1.576.005.441.021.62.235.623.682.005.767.007 1.534.003 2.3zm3.313.008c-.011.417-.197.616-.607.658-.065.007-.131.004-.197.004h-1.993v-.62h2.148c.028-.355.072-.645-.032-.952h-.654c-.292-.001-.585.009-.876-.008-.406-.024-.595-.23-.599-.631-.003-.277-.005-.555.003-.832.012-.371.188-.589.558-.601.706-.022 1.414-.006 2.14-.006v.625h-2.037v.892c.086.012.168.034.251.035.409.004.818 0 1.227.003.468.004.664.2.669.667.004.255.006.511-.001.766zM12.724 9.156h.017l-.013.004c-.001.001-.004-.003-.004-.004l.003.005-.6-.492c-.279.375-.382.834-.504 1.287-.027-.795.072-1.559.511-2.284l.447 1.113c.049.123.095.248.143.371zM8.24 8.632c.183-.767.479-1.471 1.084-2.049l.198 1.618-.465-.667c-.355.295-.58.7-.817 1.098zm6.813-1.144l-.493.72.199-1.627c.606.582.906 1.288 1.103 2.049l-.809-1.142zm-3.572-1.357l-.036-.023.378-1.424c.425.362.72.828.899 1.378l-.668-.638-.573.707zm2.612 14.082h1.53v2.298c-.177.108-1.279.123-1.53.015v-2.313zm-6.187-.008h1.523v2.353c-.502.069-1.008.036-1.523.017v-2.37zm4.883-6.422c.345 1.264 1.674 1.711 2.689.908.796-.63 1.085-1.86.652-2.777-.503-1.067-1.711-1.334-2.608-.571-.558.474-.799 1.096-.831 1.892.024.134.043.346.098.548zm1.313-.815a.487.487 0 1 1-.025.975.493.493 0 0 1-.473-.501.486.486 0 0 1 .498-.474zm-5.167 1.837c.822.533 1.804.313 2.317-.52.212-.345.299-.725.31-1.157-.023-.671-.26-1.28-.789-1.757-.851-.769-2.047-.563-2.594.443-.538.99-.186 2.381.756 2.991zm1.228-1.838a.479.479 0 0 1 .486.483.49.49 0 0 1-.5.496.497.497 0 0 1-.475-.5.482.482 0 0 1 .489-.479z"/></svg>