<svg role="img" viewBox="0 0 24 24" xmlns="http://www.w3.org/2000/svg"><title>Cocoapods icon</title><path d="M7.599 3.46c-.48.049-.956.144-1.426.254-.157.066-.327.08-.482.147-.403.111-.776.304-1.156.473-.223.125-.443.254-.661.387-.613.4-1.154.902-1.646 1.44a6.924 6.924 0 00-.706.956c-.15.265-.308.525-.437.802-.458.909-.716 1.908-.838 2.916a9.275 9.275 0 00.127 2.984c.062.318.136.633.245.938.18.612.45 1.195.772 1.745.192.312.378.631.62.909.321.399.684.764 1.064 1.106a7.594 7.594 0 002.258 1.347c.183.087.377.14.568.203.815.254 1.67.365 2.52.393.903.017 1.804-.111 2.677-.335a8.9 8.9 0 001.158-.43c.484-.233.952-.5 1.387-.816.81-.633 1.476-1.44 1.998-2.323.259-.445.444-.929.6-1.418a8.79 8.79 0 00.173-.686c-.009-.085.078-.253-.085-.212-1.103.003-2.207-.009-3.31.007-.178.008-.454-.03-.491.206-.314.993-1.09 1.808-2.026 2.246a4.056 4.056 0 01-1.253.344c-.428.02-.858.026-1.285-.008-.172-.054-.359-.035-.528-.103a4.922 4.922 0 01-1.705-.854 3.907 3.907 0 01-.932-1.016c-.23-.333-.396-.705-.557-1.075-.357-.968-.419-2.027-.275-3.043.04-.25.084-.5.171-.739.031-.12.052-.24.11-.352.202-.471.426-.94.753-1.34.56-.71 1.325-1.272 2.199-1.52.623-.175 1.277-.202 1.92-.174.45.04.888.167 1.308.329.413.216.824.455 1.144.802.549.56.89 1.297 1.052 2.058.042.196.26.105.399.126 1.131.018 2.263-.001 3.395-.004-.039-.694-.248-1.366-.483-2.015a7.068 7.068 0 00-1.146-1.961 6.67 6.67 0 00-1.816-1.57c-.245-.145-.482-.307-.75-.404-.431-.208-.89-.35-1.35-.483a10.042 10.042 0 00-1.59-.243 9.193 9.193 0 00-1.684.005zm12.636.539c-.377.175-.76.335-1.14.508-.308.134-.622.26-.921.416-.136.16.09.325.11.49.32.782.644 1.563.967 2.344.137.349.29.691.426 1.041.138.317.268.638.396.96.287.694.58 1.387.858 2.085.084.152-.018.298-.075.437-.306.76-.624 1.517-.937 2.275-.365.905-.75 1.802-1.114 2.708-.152.354-.288.714-.444 1.067-.062.17-.136.336-.205.504-.057.203.246.213.37.297.5.223 1 .446 1.502.666.133.035.35.206.433.014.203-.516.426-1.025.638-1.537.368-.883.737-1.766 1.107-2.648.215-.524.442-1.043.657-1.568.286-.69.578-1.378.866-2.067-.198-.46-.378-.929-.568-1.393-.182-.408-.333-.83-.513-1.238-.301-.733-.594-1.47-.901-2.2-.275-.713-.58-1.415-.863-2.126-.12-.278-.222-.564-.34-.843-.059-.124-.14-.311-.309-.192z"/></svg>