<svg role="img" viewBox="0 0 24 24" xmlns="http://www.w3.org/2000/svg"><title>Codeium</title><path d="M 1 0 C 0.447715 0 0 0.447716 0 1 L 0 23 C 0 23.0626 0.006580925 23.124194 0.017578125 23.183594 L 0 23.199219 L 0.025390625 23.224609 C 0.12764012 23.668309 0.525253 24 1 24 L 23 24 C 23.5523 24 24 23.5523 24 23 L 24 1 C 24 0.447715 23.5523 0 23 0 L 1 0 z M 1.7070312 1 L 22.289062 1 L 20.289062 3 L 3.7070312 3 L 1.7070312 1 z M 23 1.7050781 L 23 22.292969 L 21 20.292969 L 21 3.7050781 L 23 1.7050781 z M 1 1.7070312 L 3 3.7070312 L 3 20.199219 L 1 22.199219 L 1 1.7070312 z M 4 4 L 20 4 L 20 20 L 4 20 L 4 4 z M 7.5371094 7 C 6.5309314 7 6.0273438 7.5348608 6.0273438 8.6054688 L 6.0273438 10.902344 C 6.0273438 11.302943 5.8430256 11.501953 5.4726562 11.501953 C 5.3368566 11.501953 5.2214962 11.548623 5.1289062 11.640625 C 5.0424864 11.732525 5 11.85486 5 12.005859 C 5 12.150359 5.0424861 12.267475 5.1289062 12.359375 C 5.2214963 12.451375 5.3368566 12.498047 5.4726562 12.498047 C 5.8430256 12.498047 6.0273438 12.697057 6.0273438 13.097656 L 6.0273438 15.394531 C 6.0273438 16.465129 6.5309314 17 7.5371094 17 C 7.6729091 17 7.7846739 16.950062 7.8710938 16.851562 C 7.9575137 16.759663 8 16.642547 8 16.498047 C 8 16.347047 7.9575141 16.224812 7.8710938 16.132812 C 7.7846737 16.040813 7.6729091 15.994141 7.5371094 15.994141 C 7.1605601 15.994141 6.9726563 15.79513 6.9726562 15.394531 L 6.9726562 13.097656 C 6.9726562 12.637957 6.8733113 12.275159 6.6757812 12.005859 C 6.7745413 11.86796 6.8490476 11.705384 6.8984375 11.521484 C 6.9478175 11.337585 6.9726562 11.132243 6.9726562 10.902344 L 6.9726562 8.6054688 C 6.9726562 8.2048096 7.1605601 8.0058594 7.5371094 8.0058594 C 7.6729091 8.0058594 7.7846739 7.9591474 7.8710938 7.8671875 C 7.9575134 7.7752377 8 7.6562085 8 7.5117188 C 8 7.3672191 7.9575136 7.2469673 7.8710938 7.1484375 C 7.7846739 7.0499177 7.6729091 7 7.5371094 7 z M 16.462891 7 C 16.327091 7 16.215306 7.049918 16.128906 7.1484375 C 16.042506 7.2469673 16 7.367219 16 7.5117188 C 16 7.6562085 16.04251 7.7752377 16.128906 7.8671875 C 16.215306 7.9591475 16.327091 8.0058594 16.462891 8.0058594 C 16.83939 8.0058594 17.027344 8.2048096 17.027344 8.6054688 L 17.027344 10.902344 C 17.027344 11.132243 17.052162 11.337585 17.101562 11.521484 C 17.150862 11.705384 17.225419 11.86796 17.324219 12.005859 C 17.126619 12.275159 17.027344 12.637957 17.027344 13.097656 L 17.027344 15.394531 C 17.027344 15.79513 16.83939 15.994141 16.462891 15.994141 C 16.327091 15.994141 16.215306 16.040812 16.128906 16.132812 C 16.042504 16.224812 16 16.347047 16 16.498047 C 16 16.642547 16.04251 16.759663 16.128906 16.851562 C 16.215306 16.950063 16.327091 17 16.462891 17 C 17.468989 17 17.972656 16.465129 17.972656 15.394531 L 17.972656 13.097656 C 17.972656 12.697057 18.156944 12.498047 18.527344 12.498047 C 18.663143 12.498047 18.774928 12.451377 18.861328 12.359375 C 18.953928 12.267475 19 12.150359 19 12.005859 C 19 11.85486 18.95393 11.732525 18.861328 11.640625 C 18.774928 11.548625 18.663143 11.501953 18.527344 11.501953 C 18.156944 11.501953 17.972656 11.302943 17.972656 10.902344 L 17.972656 8.6054688 C 17.972656 7.5348608 17.468989 7 16.462891 7 z M 9.2128906 13 C 9.0256452 13.0088 8.8594653 13.08491 8.7167969 13.226562 C 8.5718672 13.370461 8.5 13.54726 8.5 13.755859 C 8.5 13.957259 8.571867 14.134057 8.7167969 14.285156 C 8.8689766 14.429056 9.0471004 14.5 9.25 14.5 C 9.4601496 14.5 9.6382734 14.429056 9.7832031 14.285156 C 9.9281328 14.134057 10 13.957259 10 13.755859 C 10 13.54726 9.9281328 13.370461 9.7832031 13.226562 C 9.6382734 13.075462 9.4601496 13 9.25 13 C 9.237319 13 9.225374 12.99941 9.2128906 13 z M 11.962891 13 C 11.775648 13.0088 11.609484 13.08491 11.466797 13.226562 C 11.321897 13.370461 11.25 13.54726 11.25 13.755859 C 11.25 13.957259 11.3219 14.134057 11.466797 14.285156 C 11.618997 14.429056 11.7971 14.5 12 14.5 C 12.2101 14.5 12.388303 14.42906 12.533203 14.285156 C 12.678103 14.134057 12.75 13.957259 12.75 13.755859 C 12.75 13.54726 12.6781 13.370461 12.533203 13.226562 C 12.388303 13.075462 12.2101 13 12 13 C 11.98732 13 11.975371 12.99941 11.962891 13 z M 14.712891 13 C 14.525648 13.0088 14.359484 13.08491 14.216797 13.226562 C 14.071897 13.370461 14 13.54726 14 13.755859 C 14 13.957259 14.0719 14.134056 14.216797 14.285156 C 14.368997 14.429056 14.5471 14.5 14.75 14.5 C 14.9601 14.5 15.138303 14.42906 15.283203 14.285156 C 15.428103 14.134056 15.5 13.957259 15.5 13.755859 C 15.5 13.54726 15.4281 13.370461 15.283203 13.226562 C 15.138303 13.075462 14.9601 13 14.75 13 C 14.73732 13 14.725371 12.99941 14.712891 13 z M 3.6132812 21 L 20.292969 21 L 22.292969 23 L 1.6132812 23 L 3.6132812 21 z " /></svg>