<svg role="img" viewBox="0 0 24 24" xmlns="http://www.w3.org/2000/svg"><title>Codeship icon</title><path d="M12.019.001c-.972 0-2.398.405-2.398.762V2.88a13.03 13.03 0 012.42-.272 14.386 14.386 0 012.423.26V.774c0-.367-1.475-.774-2.445-.774zm.022 3.787c-2.042 0-5.068.837-5.068 1.193v2.594a18.791 18.791 0 015.02-2.472c.012-.013 2.803.748 5.212 2.494l.003.003V4.98c0-.37-3.126-1.192-5.167-1.192zm.025 2.582c-.763.197-1.514.555-2.214.887a17.583 17.583 0 00-4.19 2.767c1.352 1.378 2.161 3.11 2.654 4.72l.037.113.04.037-.052-.037c-.013-.013-1.623-1.661-3.971-1.661-1.242 0-2.68.456-4.193 1.833.147.516.32 1.006.528 1.497v.016l.025.047c2.004 4.575 6.7 7.553 11.692 7.406 4.895-.147 9.347-3.31 11.129-7.858.098-.246.184-.506.272-.752-1.686-1.254-4.332-2.814-5.35-2.617v-.003c-.777.149-1.686 1.266-2.854 2.385.468-1.66 1.307-3.515 2.831-5.114a15.579 15.579 0 00-1.242-1.02v-.013C15.683 7.87 13.91 6.9 12.066 6.37zm-.01.897l.612 3.05-.147 2.67-.443 3.958v.018l-.05-.006c-.006 0-.015-.008-.022-.01v-.027l-.493-3.946-.122-2.654zm.9 9.824l.02.004a7.134 7.134 0 01-.142.056c.04-.023.08-.036.12-.06z"/></svg>