<?xml version="1.0" encoding="UTF-8" standalone="no"?>
<!-- Created with Inkscape (http://www.inkscape.org/) -->

<svg
   width="24mm"
   height="24mm"
   viewBox="0 0 24 24"
   version="1.1"
   id="svg1"
   xml:space="preserve"
   inkscape:version="1.4 (e7c3feb100, 2024-10-09)"
   sodipodi:docname="codetime.svg"
   inkscape:export-filename="codetime.png"
   inkscape:export-xdpi="96"
   inkscape:export-ydpi="96"
   xmlns:inkscape="http://www.inkscape.org/namespaces/inkscape"
   xmlns:sodipodi="http://sodipodi.sourceforge.net/DTD/sodipodi-0.dtd"
   xmlns="http://www.w3.org/2000/svg"
   xmlns:svg="http://www.w3.org/2000/svg"><sodipodi:namedview
     id="namedview1"
     pagecolor="#505050"
     bordercolor="#eeeeee"
     borderopacity="1"
     inkscape:showpageshadow="0"
     inkscape:pageopacity="0"
     inkscape:pagecheckerboard="0"
     inkscape:deskcolor="#505050"
     inkscape:document-units="mm"
     inkscape:zoom="5.543368"
     inkscape:cx="46.902894"
     inkscape:cy="40.047856"
     inkscape:window-width="1407"
     inkscape:window-height="755"
     inkscape:window-x="26"
     inkscape:window-y="23"
     inkscape:window-maximized="0"
     inkscape:current-layer="layer1" /><defs
     id="defs1" /><g
     inkscape:label="Camada 1"
     inkscape:groupmode="layer"
     id="layer1"><g
       transform="matrix(0.00955436,0,0,-0.00955436,-0.03836915,24.241072)"
       fill="#000000"
       stroke="none"
       id="g2"
       inkscape:transform-center-x="-15.626952"
       inkscape:transform-center-y="37.951183"
       style="fill:#000000"><path
         d="M 1151.4879,2533.7663 C 974.34941,2511.132 822.79754,2465.8632 680.10261,2392.0555 343.53938,2218.8534 110.30697,1906.8927 27.642318,1523.0926 c -29.5230905,-140.7268 -29.5230905,-345.4202 0,-486.1469 C 136.87775,528.16443 507.88458,157.15759 1016.6658,47.92216 c 140.7268,-29.52309 345.4202,-29.52309 486.1469,0 508.7813,109.23543 879.7881,480.24227 989.0235,989.02354 42.3165,201.7411 24.6026,458.592 -47.2369,658.3649 -151.5519,422.1802 -501.8925,726.268 -939.8184,814.8373 -97.4262,19.682 -283.4216,32.4754 -353.293,23.6184 z m 204.6935,-210.598 c 363.134,-38.38 670.1741,-245.0416 832.5511,-560.9387 83.6488,-162.377 116.1242,-299.1673 116.1242,-482.2105 0,-176.1544 -32.4754,-315.89704 -108.2514,-467.44891 C 1972.2299,362.83512 1456.5599,134.52322 976.31761,272.29764 593.50154,381.53308 315.00039,682.6686 231.35164,1078.278 c -33.4595,158.4406 -18.69796,378.8797 36.41181,541.2567 130.8857,381.8319 480.24227,660.3331 882.74035,702.6495 106.2832,11.8092 104.315,11.8092 205.6776,0.9841 z"
         id="path1"
         style="fill:#000000;stroke-width:0.984103" /><path
         d="m 1617,1578 -338,-211 3,-96 3,-96 334,-207 c 183,-115 336,-208 340,-208 7,0 107,157 115,181 4,10 -75,60 -266,169 -149,85 -271,159 -271,164 1,6 114,76 252,157 139,81 261,153 273,161 20,14 20,16 -37,106 -32,51 -61,92 -64,91 -3,0 -158,-95 -344,-211 z"
         id="path2"
         style="fill:#000000" /></g></g></svg>
