<svg version="1.2" xmlns="http://www.w3.org/2000/svg" xmlns:xlink="http://www.w3.org/1999/xlink"
	 viewBox="0 0 24 24" role="img">
<title>CodeProject Icon</title>
	<path d="M15.188,21.526
		c-0.833-0.037-2.132,0.465-2.418,0.208c-0.375-0.338,0.279-1.872,0.529-2.178
		c0.171-0.203,0.45-0.521,0.602-0.66c0.591-0.549,0.962-1.313,0.959-2.166c-0.004-0.936-0.28-1.271,0.655-0.529
		c0.323,0.257,0.764,0.587,1.329,0.85c1.133,0.521-1.313-1.672-1.779-2.091c-0.784-0.695-1.04-1.074-0.606-1.347
		c0.344-0.215,0.668-0.457,0.972-0.719c1.189-1.03,2.036-2.593,1.868-4.871c-0.149-2.081-4.068-7.938-5.114-7.961
		c-0.846-0.018-2.565,2.096-3.508,3.239c-1.023,1.241-2.623,3.39-2.943,4.653C5.637,8.33,5.6,8.725,5.6,9.129
		c0,1.432,0.746,2.769,1.888,3.724c0.7,0.583,1.473,1.033,0.236,2.299c-0.736,0.755-2.421,2.35-1.445,1.899
		c0.569-0.263,0.995-0.61,1.333-0.85c0.706-0.501,0.986-0.665,0.829-0.03c-0.034,0.133-0.028,0.273-0.028,0.408
		c0,0.888,0.368,1.682,0.945,2.266c0.15,0.154,0.583,0.484,0.829,0.696c0.583,0.504,1.19,1.855,0.812,2.191
		c-0.286,0.258-1.585-0.244-2.414-0.207c-0.832,0.037-2.264,0.563-2.227,1.555c0.037,0.993,3.154,0.847,3.879,0.854
		c1.637,0.012,1.084-0.64,1.637-0.628c0.552,0.016,0,0.608,1.841,0.618c0.726,0.004,3.659,0.15,3.696-0.843
		C17.452,22.088,16.018,21.564,15.188,21.526z
		M9.715,23.306
		c-0.662,0.28-1.528,0.243-1.755-0.149
		c-0.225-0.396,1.132-0.713,1.49-0.768c0.357-0.057,1.132-0.131,1.415,0.394C11.195,23.393,10.372,23.023,9.715,23.306z
		M7.839,9.114
		c0-0.346,0.028-0.682,0.103-1.002c0.252-1.082,1.459-2.962,2.26-4.021c0.74-0.979,1.752-2.865,2.417-2.848
		c0.816,0.019,4.252,5.146,4.373,6.923c0.126,1.952-0.532,3.289-1.463,4.172c-0.802,0.76-1.773,1.36-2.923,1.36
		C10.308,13.698,7.839,11.611,7.839,9.114z
		M9.957,16.788
		c0-1.21,0.989-2.193,2.21-2.193c1.222,0,2.207,0.983,2.207,2.193
		c0,1.212-0.985,2.19-2.207,2.19C10.945,18.979,9.957,18,9.957,16.788z
		M11.874,21.748c-0.235,0-0.457-0.9-0.46-1.139
		c-0.007-0.354,0.038-0.751,0.471-0.751c0.434,0,0.468,0.396,0.471,0.751C12.361,20.937,12.109,21.748,11.874,21.748z
		M15.808,23.156
		c-0.225,0.393-1.095,0.43-1.756,0.149c-0.657-0.282-1.479,0.087-1.149-0.523c0.283-0.524,1.058-0.45,1.416-0.394
		C14.675,22.443,16.037,22.761,15.808,23.156z
		M14.628,5.889
		c-0.454,0-0.846,0.308-1.166,0.771c-0.157,0.228-0.447,0.408-0.822-0.229
		c-0.348-0.59-0.914-0.917-1.5-0.917c-1.172,0-2.124,1.405-2.124,3.139c0,1.732,0.952,3.137,2.124,3.137
		c0.733,0,1.364-0.554,1.76-1.382c0.153-0.323,0.384-0.262,0.563-0.02c0.334,0.454,0.712,0.771,1.166,0.771
		c0.915,0,1.654-1.181,1.654-2.632C16.282,7.068,15.543,5.889,14.628,5.889z
		M11.14,10.85
		c-0.822,0-1.49-0.985-1.49-2.198
		c0-1.22,0.668-2.205,1.49-2.205c0.822,0,1.49,0.985,1.49,2.205C12.63,9.864,11.962,10.85,11.14,10.85z
		M14.628,10.369
		c-0.638,0-1.156-0.826-1.156-1.846c0-1.023,0.518-1.847,1.156-1.847c0.641,0,1.161,0.824,1.161,1.847
		C15.789,9.544,15.27,10.369,14.628,10.369z
		M15.097,8.474
		c0,0.479-0.188,0.872-0.417,0.872s-0.416-0.393-0.416-0.872c0-0.485,0.187-0.877,0.416-0.877
		S15.097,7.988,15.097,8.474z
		M12.695,17.406
		c0,0.229-0.188,0.414-0.416,0.414c-0.229,0-0.416-0.186-0.416-0.414
		c0-0.228,0.188-0.411,0.416-0.411C12.506,16.995,12.695,17.179,12.695,17.406z
		M5.167,17.331
		c-0.164,0-1.679,0.021-2.152,0.226c-0.471,0.208,0.283,0.505,0.924,0.541
		c0.32,0.021,0.218,0.258,0.075,0.451c-1.149,1.572-0.263,1.256,0.511,0.562c0.191-0.17,0.263,0.057,0.283,0.264
		c0.018,0.205,0.508,1.74,0.662-0.207c0.062-0.806,0.112-1.235,0.076-1.518C5.508,17.369,5.354,17.331,5.167,17.331z
		M17.959,17.331
		c0.16,0,1.678,0.021,2.152,0.226c0.471,0.208-0.283,0.505-0.928,0.541
		c-0.318,0.021-0.215,0.258-0.075,0.451c1.152,1.572,0.266,1.256-0.508,0.562c-0.191-0.17-0.263,0.057-0.283,0.264
		c-0.021,0.205-0.513,1.74-0.662-0.207c-0.063-0.806-0.112-1.235-0.075-1.518C17.619,17.369,17.769,17.331,17.959,17.331z
		M11.737,8.565
		c0,0.604-0.234,1.095-0.521,1.095s-0.519-0.491-0.519-1.095
		c0-0.604,0.232-1.095,0.518-1.095C11.502,7.471,11.737,7.961,11.737,8.565z
		M15.097,8.474
		c0,0.479-0.188,0.872-0.417,0.872s-0.416-0.393-0.416-0.872c0-0.485,0.187-0.877,0.416-0.877
		S15.097,7.988,15.097,8.474z"/>
</svg>
