<svg role="img" viewBox="0 0 24 24" xmlns="http://www.w3.org/2000/svg"><title>Code Review</title><path d="M12.04 23.97a11.931 11.986 0 1 1 0-23.97 11.931 11.986 0 0 1 0 23.97zm0-3.01a8.934 8.974 0 1 0 0-17.948 8.934 8.974 0 0 0 0 17.948zm-8.873-3.135h4.896v-2.459H3.167Zm6.12 0h7.342v-2.459H9.286Zm1.224-4.917h3.059V10.45h-3.06Zm7.77 7.56 3.06 3.073a1.557 1.565 0 1 0 2.203-2.213l-3.06-3.073a1.557 1.565 0 1 0-2.202 2.213M3.168 8.605h7.342V6.147H3.167Zm9.178 0h4.895V6.147h-4.895zm3.06 4.303H20.3V10.45h-4.896zm-13.461 0h7.34V10.45H1.944Z"/></svg>