<svg role="img" viewBox="0 0 24 24" xmlns="http://www.w3.org/2000/svg"><title>CodeChef icon</title><path d="M11.0058.0008c-.787.032-1.515.37-2.2219.686a12.2694 12.2694 0 01-1.8629.703c-.635.176-1.3.354-1.8139.788-.222.18-.356.4389-.53.6619-.308.486-.447 1.067-.456 1.6379.036.61.216 1.2.376 1.786.368 1.2609.807 2.5018 1.197 3.7577.366 1.161.703 2.344 1.2939 3.4159.196.394.35.808.534 1.2059.027.067.052.158.142.15.136-.013.243-.116.368-.165.828-.414 1.7399-.642 2.6548-.749.708-.074 1.43-.078 2.131.054.7199.163 1.4168.426 2.0918.724.36.172.72.348 1.088.498.048.04.135.058.16-.016.219-.327.469-.635.667-.976.4949-1.06.5219-2.2789 1.0379-3.3298.358-.722.892-1.338 1.2659-2.049.175-.2659.43-.4669.588-.7469.437-.669.78-1.3979 1.05-2.1499.102-.292.172-.611.09-.918-.06-.2999-.202-.5699-.318-.8479a2.4799 2.4799 0 00-.278-.66c-.407-.676-1.07-1.1499-1.743-1.5359-1.045-.59-2.1959-.97-3.3498-1.28a20.731 20.731 0 00-3.7438-.6349 5.0048 5.0048 0 00-.42-.01zm-.889.607c-.26.223-.363.569-.468.883-.168.568-.263 1.1629-.207 1.7559.064 1.062.197 2.1199.33 3.1748.18 1.351.387 2.6999.677 4.0328.026.165.064.347.05.51-.115-.175-.182-.383-.258-.58-.25-.765-.432-1.549-.604-2.3339a26.0057 26.0057 0 01-.5619-4.3158c-.025-.843-.004-1.7259.37-2.5008.118-.226.26-.46.48-.597a.411.411 0 01.218-.05zM6.516 1.7708c.128 0 .139.159.168.252.266.7979.421 1.6278.678 2.4278.174.649.238 1.323.308 1.99.097 1.0399.108 2.0848.246 3.1198.026.2.082.393.12.59.01.067-.06.05-.084.014-.148-.16-.183-.39-.246-.592-.16-.645-.242-1.305-.334-1.962-.174-1.3149-.287-2.6398-.528-3.9438-.158-.612-.356-1.2149-.46-1.8379.006-.051.093-.048.132-.058zM4.5891 3.6085c.229.056.365.268.512.434.4.535.54 1.204.695 1.843.283 1.2639.446 2.5518.725 3.8197.13.665.293 1.325.5069 1.97.013.051.034.133.037.17-.232-.43-.392-.896-.564-1.353-.598-1.698-.823-3.4958-1.3-5.2267-.1329-.478-.3079-.95-.5959-1.358-.047-.088-.08-.204-.037-.297.006-.004.014-.003.02-.002zM17.2335 16.803c-.136.007-.31.11-.276.267.094.218.334.308.526.416.441.216.938.29 1.358.546.092.06.149.197.064.287-.18.266-.47.4399-.723.6339-.372.266-.777.51-1.057.879-.066.107-.041.267.082.32.109.079.243.018.338-.051.518-.294.995-.654 1.478-1.002.3199-.24.6439-.477.9259-.76.085-.135-.03-.274-.118-.371-.273-.285-.62-.487-.965-.67a4.9588 4.9588 0 00-1.4579-.495 1.25 1.25 0 00-.175 0zm-11.2734.027c-.527.134-.997.42-1.474.673-.425.243-.854.496-1.205.84a.699.699 0 00-.1719.4889c.065.108.2.14.3.206a26.2587 26.2587 0 002.6299 1.168c.133.042.266.113.407.107.158-.02.309-.204.213-.356-.146-.243-.42-.361-.65-.506-.547-.303-1.154-.512-1.636-.918-.046-.091.094-.128.142-.18.549-.395 1.229-.593 1.713-1.077.089-.09.164-.259.048-.358-.086-.073-.206-.087-.316-.088zm8.1136.793c-.43.027-.835.43-.774.876.032.2589.09.5249.228.7489.12.18.33.286.546.287.273.03.59-.06.726-.318.137-.237.212-.514.205-.787-.038-.46-.466-.845-.93-.807zm-4.4898.01c-.464.028-.807.505-.77.953.011.4439.315.9019.765.9939.352.06.71-.19.803-.53.125-.35.132-.761-.044-1.095-.157-.25-.478-.327-.754-.322zm.112.653c.241.064.294.4699.045.5579-.14.034-.239-.12-.234-.244-.008-.127.05-.287.19-.314zm4.4368.143c.097 0 .226.07.19.187-.013.1699-.215.3329-.377.2259-.132-.07-.172-.296-.02-.368a.418.418 0 01.207-.045zm-3.5179 2.9768c-.553.05-1.044.335-1.5419.559-.304.156-.662.312-1.005.187-.377-.12-.707-.35-1.0579-.52-.075-.013-.061.077-.047.122.08.53.128 1.1019.453 1.5499.338.437.902.618 1.433.667.7969.072 1.6418-.118 2.2708-.63.31-.261.571-.63.585-1.048-.006-.324-.244-.596-.524-.734a1.085 1.085 0 00-.566-.153zm2.5799.008c-.396.052-.815.262-.972.65-.129.358.034.7479.272 1.0199.426.509 1.07.793 1.718.884.577.078 1.1859.014 1.7139-.24.438-.225.767-.655.85-1.142.064-.291.081-.59.124-.884-.066-.078-.148.038-.218.052-.337.142-.647.367-1.01.435-.363.024-.687-.172-1.015-.293-.43-.178-.85-.403-1.315-.478a1.21 1.21 0 00-.1469-.004zm-2.8799-5.0908c-.07 0-.144.014-.217.03a2.9299 2.9299 0 00-.454.152c-.15.061-.292.127-.407.18a4.0698 4.0698 0 01-.2179.092.277.277 0 01-.182-.034c-.062-.037-.12-.101-.14-.255l-.27.038c.03.218.14.37.27.45.13.079.267.09.377.067.085-.018.16-.058.276-.111.116-.053.255-.118.397-.176.143-.058.288-.11.41-.138a.52.52 0 01.252-.009c.14.06.19.13.215.179.025.05.03.067.03.067l.263-.06s.002-.024-.05-.128a.678.678 0 00-.35-.307.482.482 0 00-.204-.037zm2.743 3.9368a.136.136 0 00-.102.05s-.122.148-.286.295c-.165.148-.38.28-.493.283-.112.003-.314-.118-.47-.26-.155-.14-.267-.284-.267-.284a.136.136 0 10-.214.167s.124.16.3.319c.174.16.396.337.66.33.258-.008.483-.19.665-.352.182-.163.3149-.325.3149-.325a.136.136 0 00-.108-.223zM11.0057.0028c-.787.03-1.515.368-2.2219.684a12.2694 12.2694 0 01-1.8629.703c-.635.176-1.3.354-1.8139.788-.222.18-.356.4399-.53.6629-.308.485-.447 1.066-.456 1.6369.036.61.216 1.2.376 1.786.368 1.2619.807 2.5018 1.197 3.7577.366 1.161.703 2.344 1.2939 3.4169.196.393.35.807.534 1.2049.027.067.052.158.142.15.136-.013.243-.116.368-.165.828-.414 1.7399-.64 2.6548-.749.708-.074 1.43-.078 2.131.055.7199.163 1.4168.425 2.0918.723.36.172.72.348 1.088.498.048.04.135.058.16-.016.219-.327.469-.635.667-.975.4949-1.062.5219-2.2799 1.0379-3.3318.358-.72.892-1.336 1.2659-2.047.175-.2659.43-.4679.588-.7469.437-.67.78-1.3999 1.05-2.1499.102-.293.172-.612.09-.92-.06-.2969-.202-.5699-.318-.8469a2.4799 2.4799 0 00-.278-.66c-.407-.675-1.07-1.1499-1.743-1.5349-1.045-.591-2.1959-.97-3.3498-1.281a20.731 20.731 0 00-3.7438-.6349 5.0048 5.0048 0 00-.42-.01zm-.889.606c-.26.222-.363.568-.468.883-.168.567-.263 1.1629-.207 1.7549.064 1.062.197 2.1199.33 3.1748.18 1.351.387 2.6999.677 4.0328.026.165.064.347.05.51-.115-.175-.182-.383-.258-.58-.25-.765-.432-1.549-.604-2.3339a26.0057 26.0057 0 01-.5619-4.3148c-.025-.844-.004-1.7269.37-2.5018.118-.225.26-.46.48-.597a.411.411 0 01.218-.05l-.026.02zM6.516 1.7708c.128 0 .139.16.168.252.266.7979.421 1.6278.678 2.4288.174.648.238 1.322.308 1.99.097 1.0399.108 2.0848.246 3.1198.026.198.082.393.12.59.01.067-.06.05-.084.013-.148-.16-.183-.39-.246-.592-.16-.645-.242-1.304-.334-1.962-.174-1.3139-.287-2.6398-.528-3.9438-.158-.612-.356-1.2149-.46-1.8379.006-.051.093-.048.132-.058zM4.5891 3.6095c.229.055.365.267.512.433.4.535.54 1.204.695 1.843.283 1.2639.446 2.5528.725 3.8197.13.665.293 1.326.5069 1.97.013.051.034.133.037.17-.232-.43-.392-.896-.564-1.352-.598-1.7-.823-3.4968-1.3-5.2297-.1329-.476-.3079-.95-.5959-1.356-.047-.087-.08-.204-.037-.296.006-.004.014-.003.02-.002zM17.2335 16.803c-.136.007-.31.11-.276.268.094.217.334.307.526.416.441.215.938.289 1.358.545.092.06.149.197.064.287-.18.267-.47.4399-.723.6339-.372.266-.777.51-1.057.879-.066.107-.041.267.082.32.109.079.243.019.338-.05.518-.295.995-.655 1.478-1.002.3199-.24.6439-.478.9259-.761.085-.135-.03-.274-.118-.37-.273-.286-.62-.488-.965-.672a4.9588 4.9588 0 00-1.4579-.493 1.25 1.25 0 00-.175-.001zm-11.2744.029c-.527.133-.997.42-1.474.672-.425.243-.854.497-1.205.842a.699.699 0 00-.1719.4869c.065.109.2.14.3.206.853.442 1.7359.823 2.6299 1.168.133.042.266.113.407.108.158-.02.309-.205.213-.357-.146-.243-.42-.361-.65-.506-.547-.303-1.154-.512-1.636-.918-.046-.09.094-.128.142-.18.549-.394 1.229-.592 1.713-1.077.089-.09.164-.258.048-.357-.086-.074-.206-.088-.316-.088zm8.1136.792c-.43.028-.835.432-.774.876.032.2599.09.5259.228.7499.12.179.33.285.546.287.273.03.59-.06.726-.32a1.51 1.51 0 00.205-.786c-.038-.46-.466-.844-.93-.807zm-4.4898.01c-.464.028-.807.505-.77.953.011.4439.315.9019.765.9949.352.059.71-.19.803-.53.125-.35.132-.762-.044-1.096-.157-.249-.478-.327-.754-.322zm.112.654c.241.063.294.4699.045.5569-.14.034-.239-.12-.234-.244-.008-.127.05-.287.19-.313zm4.4368.142c.097 0 .226.072.19.187-.013.1719-.215.3329-.377.2269-.132-.071-.172-.297-.02-.37a.418.418 0 01.207-.044zm-3.5179 2.9768c-.553.052-1.044.336-1.5419.56-.304.155-.662.31-1.005.186-.377-.12-.707-.35-1.0579-.52-.075-.012-.061.078-.047.122.08.53.128 1.1019.453 1.5499.338.438.902.619 1.433.667.7969.072 1.6418-.118 2.2708-.63.31-.261.571-.63.585-1.048-.006-.324-.244-.596-.524-.734a1.085 1.085 0 00-.566-.153zm2.5799.008c-.396.052-.815.262-.972.65-.129.359.034.7479.272 1.0199.426.509 1.07.793 1.718.884.577.078 1.1859.015 1.7139-.24.438-.225.767-.655.85-1.142.064-.29.081-.59.124-.884-.066-.077-.148.039-.218.052-.337.143-.647.367-1.01.436-.363.024-.687-.172-1.015-.294-.43-.178-.85-.402-1.315-.477a1.21 1.21 0 00-.1469-.004z"/></svg>