<svg aria-labelledby="simpleicons-codecademy-icon" role="img" viewBox="0 0 24 24" xmlns="http://www.w3.org/2000/svg"><title id="simpleicons-codecademy-icon">Codecademy icon</title><path d="M23.827 19.73h-5.595c-.094 0-.17.058-.17.172v1.515c0 .094.058.17.172.17h5.594c.096 0 .172-.044.172-.164v-1.515c0-.105-.057-.166-.173-.166v-.013zM16.463 2.465c.015.035.03.068.047.12v18.79c0 .06-.02.096-.037.114-.04.04-.074.06-.135.06H.153c-.038 0-.075 0-.097-.02C.02 21.49 0 21.453 0 21.395V2.566c0-.076.04-.134.096-.15h16.242c.04 0 .096.017.115.034v.016h.01zM1.818 19.575c0 .074.038.136.096.153h12.643c.057-.018.096-.076.096-.154V4.404c0-.073-.04-.134-.098-.15H1.915c-.056.02-.096.073-.096.15l-.003 15.17zm5.116-8.445c.65 0 1.072.248 1.454.69.058.075.153.094.23.035l1.034-.92c.075-.044.058-.164.02-.224-.635-.764-1.554-1.244-2.74-1.244-1.59 0-2.79.795-3.255 2.206-.165.495-.24 1.126-.24 1.98 0 .855.075 1.484.255 1.98.465 1.425 1.665 2.205 3.255 2.205 1.2 0 2.115-.48 2.745-1.216.045-.074.06-.165-.015-.225L8.64 15.48c-.073-.046-.163-.046-.224.028-.39.45-.795.69-1.454.69-.706 0-1.245-.345-1.47-1.035-.136-.39-.166-.87-.166-1.484s.045-1.067.18-1.47c.24-.66.766-1.008 1.486-1.008l-.058-.073z"/></svg>