<svg role="img" viewBox="0 0 24 24" xmlns="http://www.w3.org/2000/svg"><title>CodeCrafters</title><path d="m23.753 11.389-5.547-5.876a.87.87 0 0 0-1.26-.03.87.87 0 0 0-.03 1.259l4.948 5.276-4.977 5.247c-.33.36-.33.93.03 1.26.18.15.39.24.63.24s.48-.09.66-.27l5.546-5.877c.33-.33.33-.87 0-1.23ZM7.083 5.483c-.36-.33-.93-.33-1.26.03L.248 11.389c-.33.36-.33.9 0 1.23l5.547 5.875c.18.18.42.27.66.27.21 0 .45-.09.63-.24.359-.33.389-.899.03-1.259l-4.978-5.247 4.977-5.246c.33-.36.33-.93-.03-1.29Zm6.386-2.999c-.48-.06-.96.27-1.02.75l-2.638 17.27c-.06.479.27.959.75 1.019h.15c.45 0 .81-.33.9-.75l2.638-17.27c.03-.479-.3-.929-.78-1.019Z"/></svg>