<svg aria-labelledby="simpleicons-codewars-icon" role="img" viewBox="0 0 24 24" xmlns="http://www.w3.org/2000/svg"><title id="simpleicons-codewars-icon">Codewars icon</title><path d="M0.761556944,12.203926 L0.678520763,12.1570699 C0.502781183,12.0579026 0.35823785,11.9076054 0.262350518,11.724333 C0.124337145,11.4605439 0.0677421952,11.2177276 0.0730142704,10.972038 L0.0758434144,10.840194 C0.0800120213,10.6459283 0.130964073,10.4559058 0.223979213,10.2877308 L0.299459748,10.151259 C0.343554945,10.0715332 0.394990026,9.99650807 0.453031564,9.92725356 C0.507029743,9.86282355 0.524055768,9.77312824 0.497689229,9.69199127 L0.447341153,9.5370566 C0.385644509,9.34719929 0.348501238,9.14955594 0.336900132,8.94938802 L0.328277012,8.80060292 C0.315351534,8.57758398 0.386468033,8.35814707 0.526368735,8.18937153 L0.623038928,8.07274906 C0.702475307,7.9769174 0.806183845,7.90654259 0.922198,7.86974506 C1.02833033,7.83608182 1.10213129,7.73533959 1.10563813,7.61933961 L1.11579559,7.28334915 C1.12404375,7.01051464 1.24724882,6.75548863 1.45231034,6.58678672 L1.68537954,6.39504318 C1.74538308,6.34567892 1.79861105,6.28790936 1.84356601,6.22335974 C1.88689927,6.16113868 1.90447417,6.08328179 1.89232772,6.007345 C1.87983066,5.92921624 1.9081566,5.88765327 1.95012345,5.88030151 C2.10521656,5.94168787 2.21280395,5.91682666 2.27622857,5.83643542 L2.4112615,5.66527998 C2.51948318,5.52810801 2.6356421,5.39801133 2.75908405,5.27572261 C2.86976138,5.16607928 2.9009644,4.99461376 2.83654306,4.8500732 L2.71944561,4.58734458 C2.69643931,4.53572593 2.71777442,4.474363 2.76709891,4.45028665 C2.90368726,4.44061981 2.99059251,4.49635721 3.03368415,4.58487967 L3.06689808,4.65311048 C3.1258053,4.77412261 3.26217724,4.82951313 3.38366925,4.7817742 C3.5886927,4.70121253 3.76566704,4.67043694 3.94331295,4.67598918 L4.26224082,4.68595712 C4.48152201,4.69281065 4.67111774,4.52711661 4.70376883,4.30009102 C4.74407471,4.01984112 4.8377995,3.81452824 4.98158854,3.65037492 C5.12733967,3.48398162 5.30182498,3.34791176 5.49586011,3.24932761 C5.76130976,3.11445962 5.91738427,2.90654284 5.96821525,2.66051882 C6.03563904,2.33418492 6.20514699,2.09549985 6.44313621,1.95766712 L7.20304384,1.51756259 L7.42075408,1.39428946 C7.55184437,1.32022956 7.66928416,1.2223302 7.76757317,1.10517653 L7.97640549,0.856262785 C8.05816101,0.75881587 8.166344,0.689746393 8.28654752,0.658252499 C8.40889131,0.626197847 8.53519632,0.613890207 8.66109195,0.62175547 L9.07275259,0.647473747 C9.24768795,0.658402739 9.41960384,0.700168515 9.58124907,0.771009466 L9.69297541,0.819973501 C9.77333808,0.85519238 9.86602613,0.836870913 9.92857685,0.773402629 L10.0143185,0.686403327 L10.4339291,0.251268901 C10.5249097,0.156834688 10.6529687,0.112564321 10.7797986,0.131700844 C10.9130958,0.151813184 11.0421616,0.195468598 11.1614916,0.260805328 C11.3363914,0.356568209 11.4929579,0.396841114 11.6518875,0.396841114 L11.7504658,0.396841114 C11.9766283,0.396841114 12.2019396,0.425826732 12.4213685,0.483150709 L12.5698004,0.521927305 C12.7165356,0.560260649 12.8710139,0.503770928 12.963002,0.378141045 C12.9975846,0.330910917 13.0622053,0.321962044 13.1073364,0.358153178 C13.1290542,0.375569037 13.1432541,0.401315929 13.1468002,0.429707909 C13.1723565,0.634331369 13.2902013,0.779990277 13.4517763,0.831489544 L13.6093934,0.881727282 C13.7733902,0.933998461 13.9171726,1.0396659 14.0198231,1.18335713 C14.1248805,1.33041762 14.2440789,1.46580952 14.3755459,1.58740598 L14.4654362,1.67054729 C14.5749094,1.77180127 14.7184383,1.82320379 14.8642376,1.81337137 L14.9839837,1.80529592 C15.0559921,1.80043983 15.1281065,1.79749617 15.2002574,1.7964678 L15.451254,1.79289035 C15.6879125,1.78951725 15.9224386,1.8400712 16.1385593,1.94104442 C16.3659762,2.04729532 16.595774,2.05853726 16.8064228,1.9838982 C17.022082,1.90748383 17.2514247,1.88291693 17.4774047,1.91202348 L17.9119798,1.96799738 C18.1063625,1.99303414 18.2864498,2.08778527 18.4215956,2.23612651 L18.4703772,2.28967107 C18.5769543,2.40665437 18.6727627,2.53388579 18.7565321,2.66967872 C18.8349059,2.79672517 18.9701472,2.87273095 19.1146375,2.87093441 L19.7235172,2.86336385 C19.8701954,2.86154011 20.014517,2.90205401 20.1406316,2.98045606 C20.2683287,3.05984188 20.3827567,3.16055394 20.4793827,3.27860271 L20.5759575,3.39658888 C20.6962316,3.54352864 20.7594687,3.73233324 20.7531751,3.92570004 C20.7477555,4.09221564 20.8715122,4.23222491 21.0305667,4.23952043 L21.2221356,4.24830732 C21.3653564,4.25487658 21.4937407,4.34270123 21.556959,4.47735209 L21.6455474,4.66603937 L21.9166629,5.26465201 C21.9555249,5.35062219 21.9704769,5.44630462 21.9598083,5.54075158 C21.9498129,5.62923834 21.9887414,5.71597909 22.0601947,5.76443291 L22.1607276,5.83260625 C22.2930667,5.92234783 22.3631779,6.08466647 22.3401167,6.24792028 L22.2736521,6.71843358 L22.2464029,6.91142216 C22.2297455,7.02939561 22.2788807,7.14697295 22.3729601,7.21426487 C22.518177,7.31813386 22.5898843,7.45277704 22.5962746,7.59906575 L22.6052591,7.80474474 C22.6099085,7.91118167 22.5751261,8.01539001 22.5081618,8.09564858 C22.4413413,8.17573479 22.407583,8.28027628 22.4142846,8.38636398 L22.4296147,8.62904048 C22.4399202,8.7921787 22.5170877,8.94269788 22.6412749,9.04189434 C22.7665631,9.14197033 22.8494347,9.28940054 22.8721482,9.45262281 C22.9065165,9.6995986 22.9189998,9.90206026 22.9159531,10.1045925 L22.9125813,10.328738 C22.9113665,10.4094961 22.9235941,10.489859 22.9487166,10.5662283 C22.9733565,10.6411302 23.0206738,10.7055749 23.0834867,10.7497812 L23.2940462,10.8979681 C23.4781437,11.0275317 23.6211658,11.2115752 23.70485,11.4265984 C23.7903995,11.6464143 23.8332299,11.8752943 23.8332299,12.1063682 L23.8332299,12.1782925 C23.8332299,12.3625101 23.80609,12.5456265 23.7527665,12.7211887 C23.6987278,12.8991053 23.7119326,13.0674323 23.7826012,13.2124551 C23.8556951,13.3624548 23.90622,13.523366 23.9323903,13.6895018 C23.9663915,13.9053497 23.9475774,14.0903841 23.8835395,14.2604381 L23.8568878,14.3312125 C23.8102735,14.4549977 23.732795,14.5634378 23.6325233,14.6452366 C23.5183225,14.7383982 23.443441,14.8056738 23.3717216,14.8765386 C23.3051883,14.9422792 23.2775341,15.0403585 23.2993069,15.1333676 L23.3315697,15.271188 C23.3759874,15.4609322 23.3788882,15.6587238 23.3400557,15.8498051 L23.3228906,15.9342686 C23.2941644,16.0756203 23.243315,16.2110325 23.1723977,16.3350327 C23.1021958,16.4577817 23.0027539,16.559362 22.883797,16.6298391 L22.7233176,16.7249166 C22.6458831,16.7707935 22.5979774,16.8566764 22.5978788,16.9497975 C22.5977759,17.0470383 22.5645476,17.1410548 22.5041619,17.2149618 L22.3480358,17.4060468 C22.2459902,17.5309418 22.1227514,17.6350078 21.9845376,17.7129941 C21.8425822,17.7930915 21.7245413,17.8904694 21.6250313,18.0067966 C21.5259308,18.1226451 21.4518477,18.259481 21.4078262,18.4079876 C21.3559043,18.5831465 21.2238716,18.6849525 21.0744354,18.6849525 L20.531303,18.6849525 C20.3904758,18.6849525 20.2624409,18.7704575 20.2031198,18.9041217 C20.1344076,19.0589462 20.0586021,19.1741673 19.9660902,19.273782 C19.8746286,19.3722656 19.8103836,19.4948504 19.7801878,19.6284989 C19.7525702,19.7507358 19.6527294,19.8152595 19.5531212,19.7906124 C19.4199565,19.7421263 19.2936148,19.7891562 19.2311938,19.8970441 C19.1079861,20.1099952 18.9937189,20.2533359 18.8609211,20.3763815 L18.7907391,20.4414095 C18.6694276,20.5538124 18.5139187,20.6174843 18.3519279,20.6210775 C18.1742982,20.6250175 18.0811557,20.7004787 18.0520911,20.8085234 C18.0182876,20.9341844 17.998073,21.0485651 17.9879543,21.1641587 C17.9779373,21.2785905 17.9439645,21.3893101 17.888449,21.4884526 L17.8468762,21.5626954 C17.7634435,21.7116938 17.6718211,21.8555012 17.5724708,21.9933928 L17.5264992,22.0571983 C17.4001181,22.2326067 17.2209278,22.3583125 17.0178684,22.4140137 C16.7937418,22.4754938 16.5840693,22.5037737 16.3735261,22.5037737 L16.2331439,22.5037737 C16.1231589,22.5037737 16.0208925,22.562926 15.9623806,22.6603869 L15.9031695,22.7590122 C15.8799618,22.7976684 15.8573219,22.8366948 15.8352579,22.8760777 L15.7117366,23.0965548 C15.6115324,23.2754127 15.4469889,23.4047599 15.2549314,23.4556484 C15.0352302,23.5138613 14.8209516,23.5331176 14.6079161,23.5159943 L14.4408839,23.5025686 C14.3048659,23.4916359 14.1710621,23.4602545 14.0435952,23.4093914 C13.9302527,23.3641644 13.8020157,23.4043188 13.7310367,23.5072617 C13.6417878,23.6367018 13.5233409,23.723696 13.387933,23.7641595 L13.0950701,23.8516749 C12.8918462,23.9124037 12.676729,23.9146172 12.4724035,23.8580817 L12.3144059,23.814365 C12.2118423,23.7859864 12.1120167,23.7477078 12.0162133,23.7000217 C11.9219999,23.6531269 11.8173247,23.6340926 11.7135176,23.6449788 L11.5919852,23.6577239 C11.4066773,23.677157 11.2195412,23.6616719 11.0394545,23.6120032 L10.7691987,23.5374653 C10.6466201,23.5036575 10.5420413,23.4199733 10.4787386,23.3050384 C10.4168539,23.1926778 10.3058717,23.1196213 10.1822957,23.1098983 L9.89123035,23.086997 C9.70227349,23.0721297 9.52417296,22.9888191 9.38756235,22.8513947 C9.23283909,22.6957497 9.11395941,22.5886953 8.98972251,22.4887282 L8.85598757,22.3811185 C8.78415765,22.3233207 8.71058672,22.2679321 8.63538667,22.2150368 L8.50815451,22.1255426 C8.35012384,22.0143849 8.17029872,21.9417018 7.98189755,21.9128359 L7.37517211,21.8198764 C7.32242448,21.8117946 7.26982619,21.8026791 7.21740496,21.7925344 L7.00027099,21.7505143 C6.88525691,21.7282566 6.78509861,21.6549425 6.72567301,21.5495137 C6.67152107,21.4534409 6.55941216,21.4117207 6.45945701,21.4504439 C6.2553416,21.5295194 6.09780309,21.5644863 5.93792944,21.5751157 L5.79010448,21.5849441 C5.54169125,21.6014603 5.29305023,21.5565684 5.06428564,21.4538984 C4.82442221,21.3462472 4.64642243,21.1987269 4.51380482,21.0108849 C4.38366315,20.8265498 4.19155179,20.7007382 3.97623812,20.6588383 L3.69791566,20.604677 C3.49125894,20.5644617 3.2946394,20.4804596 3.12013267,20.3578295 C2.92883395,20.2233993 2.81449056,20.0902801 2.73595014,19.9342952 C2.65702346,19.7775431 2.60977867,19.6054648 2.59715769,19.4287754 L2.59177532,19.3534243 C2.57705157,19.1472969 2.44085895,18.9727449 2.25081487,18.9164303 C2.02458441,18.849393 1.8489446,18.7508447 1.69933801,18.6167195 C1.55594255,18.4881626 1.47677665,18.2979055 1.48452697,18.1004705 L1.5019142,17.6575404 C1.50832698,17.4941785 1.44518466,17.3362516 1.32951445,17.2263471 C1.21223134,17.11491 1.13975306,16.9610279 1.12673167,16.7958093 L1.09846476,16.4371514 C1.07782195,16.1752303 1.03447013,15.9158152 0.968944464,15.6621085 C0.909634288,15.4324674 1.00111496,15.2033106 1.18799871,15.0925355 L1.26726421,15.045551 C1.37300778,14.9828716 1.41017651,14.8423509 1.3502829,14.731689 C1.34504779,14.7220164 1.31719179,14.6869038 1.26671489,14.626351 C1.18359922,14.5296179 1.07536107,14.4603126 0.955223659,14.4269021 C0.89406176,14.4098929 0.857656155,14.3442165 0.873909461,14.2802098 C0.877115248,14.2675852 0.907921707,14.2259479 0.966328837,14.155298 C1.02602361,14.0879028 1.02388673,13.9831071 0.961499067,13.9184383 C0.889646789,13.8439588 0.847787168,13.7435041 0.844524491,13.6377227 L0.823351989,12.9512749 C0.818836229,12.8048665 0.838733989,12.6587543 0.882152395,12.519495 C0.920148475,12.3976271 0.869375408,12.2647664 0.761556944,12.203926 Z M10.6673083,10.8821476 C10.7276707,10.8056335 10.7190014,10.6927691 10.6477353,10.6273279 C10.5629131,10.5494386 10.4895202,10.4588951 10.4299209,10.3586144 L10.3333373,10.1961047 C10.2599023,10.0725442 10.1709055,9.95989278 10.0687452,9.86118586 L10.0471155,9.84028733 C9.9593568,9.75549527 9.88357957,9.65806052 9.82206437,9.55091553 C9.76510683,9.45170886 9.76584795,9.32752287 9.82398507,9.22906845 L9.87999819,9.13421101 C9.94357813,9.02653926 9.97620213,8.90199209 9.97397445,8.77544182 L9.97334736,8.73981963 C9.97152315,8.63618796 9.94351765,8.53490847 9.89217669,8.44627228 C9.84032571,8.35675557 9.80395835,8.25837472 9.78474379,8.15564523 L9.77622416,8.11009557 C9.75231264,7.98225399 9.78139883,7.84979978 9.85624144,7.7457082 L9.86362395,7.73544067 C9.94426245,7.62328811 10.0024946,7.49529031 10.0348479,7.35907965 L10.0428125,7.32554791 C10.0690623,7.2150336 10.0514414,7.09810554 9.99396512,7.00140971 C9.93713541,6.90580153 9.92490581,6.78834603 9.96072587,6.68217282 L10.0284361,6.48147477 C10.0885142,6.30339868 10.1822788,6.1398245 10.3041269,6.00052683 L10.4388749,5.84648182 C10.4721394,5.8084536 10.5060308,5.77103113 10.5405338,5.73423126 L10.5975659,5.67340247 C10.6594427,5.60740644 10.6686636,5.50506348 10.6196646,5.42812689 C10.5655302,5.34312675 10.5433482,5.24017725 10.5573873,5.13908992 L10.5781059,4.98990794 C10.6059369,4.78951273 10.6850317,4.60072284 10.8070153,4.44352815 L10.8432322,4.39685703 C10.988586,4.2095462 11.1821741,4.06973465 11.4010855,3.99396909 L11.6661217,3.90223965 C11.79295,3.85834419 11.8785963,3.73429746 11.8785963,3.59449996 C11.8785963,3.44233452 11.924934,3.29412846 12.0108834,3.17139361 L12.0502718,3.11514746 C12.1645555,2.95195155 12.2667751,2.77986867 12.3560405,2.60039698 L12.4192146,2.47338309 C12.4366858,2.43825654 12.4472611,2.3998253 12.4503171,2.3603545 C12.462963,2.19702535 12.3466947,2.05389262 12.1906246,2.04065859 L11.7730572,2.00525079 C11.5248146,1.98420095 11.2752875,1.98593826 11.0273345,2.01044279 L10.178365,2.09434418 C10.0525538,2.10677776 9.95347109,2.21201834 9.94345723,2.34385112 C9.93303915,2.48100547 9.84243968,2.59702128 9.71608,2.63501576 L9.36042795,2.74195501 C9.32929957,2.75131485 9.29827403,2.76104532 9.26735733,2.77114452 L8.96690635,2.86928939 C8.74481291,2.94183809 8.55929557,3.10363507 8.45106891,3.31917159 L8.38324043,3.45425392 C8.27288896,3.67402196 8.10649696,3.8574853 7.90253797,3.98427497 C7.70799008,4.1052143 7.5851232,4.32095301 7.57603675,4.55756976 L7.57170603,4.67034295 C7.56428101,4.86369523 7.49852587,5.04961782 7.38387408,5.20143752 L7.32551403,5.27871678 C7.25274491,5.37507627 7.23608752,5.50533916 7.28208565,5.61833168 C7.33126864,5.73914763 7.35532688,5.86953176 7.35266267,6.00082504 L7.34187888,6.53224833 C7.33913227,6.6676003 7.25747067,6.78738664 7.13606656,6.83414673 C7.01018992,6.88262941 6.9154584,6.99325044 6.88314853,7.12948711 L6.83486688,7.33307007 C6.7887304,7.52760776 6.86243856,7.73172407 7.01998528,7.84570884 C7.18623355,7.96598919 7.29433968,8.15592938 7.31622523,8.36619611 L7.33549883,8.55136873 C7.35754352,8.76316448 7.47424005,8.95147814 7.65003056,9.05892988 C7.83085141,9.16945635 7.96992235,9.34161042 8.04397909,9.54659358 L8.10411536,9.71304592 C8.17722725,9.91541369 8.35726069,10.0538288 8.56364773,10.0663483 L8.62059275,10.0698026 C8.79873749,10.0806089 8.962104,10.1769905 9.06315787,10.3309035 C9.166128,10.487735 9.32190789,10.5980719 9.49930501,10.639821 L9.77754176,10.7053019 C9.95300267,10.7465952 10.1136605,10.839158 10.2408391,10.9722299 L10.246631,10.9782902 C10.2520793,10.9839909 10.2577837,10.989417 10.2637249,10.9945502 C10.367149,11.0839084 10.5202104,11.0686061 10.6055971,10.9603716 L10.6673083,10.8821476 Z M11.801318,9.96163619 C11.8044616,9.96380802 11.8076747,9.96586772 11.8109517,9.96781172 C11.891019,10.0153093 11.9927195,9.98588729 12.0381061,9.90209587 L12.0654574,9.8516006 C12.1422047,9.7099118 12.2295325,9.57479241 12.326625,9.44750433 L12.5436335,9.16300677 C12.5573545,9.14501855 12.5709425,9.12691959 12.584396,9.10871146 L12.8239888,8.78444584 C12.9081395,8.67055607 13.0391793,8.60553862 13.1766964,8.60944448 C13.3070679,8.6131474 13.4247951,8.52829295 13.4679697,8.39950298 L13.4682051,8.39880067 C13.5160482,8.25608417 13.5941676,8.12656644 13.6966967,8.0199739 L13.7502655,7.96428218 C13.836207,7.87493459 13.9423242,7.80975583 14.0587677,7.77479531 C14.1765001,7.73944789 14.2984431,7.72182949 14.4209231,7.72247096 L14.7287878,7.72408326 C14.8364013,7.72464681 14.9370146,7.66832221 14.9962949,7.5743294 C15.0583197,7.47598504 15.146151,7.39846683 15.249243,7.35108251 L15.3449521,7.30709157 C15.512982,7.22985963 15.6916509,7.18099814 15.8743038,7.16232687 L16.0669759,7.14263146 C16.194005,7.12964623 16.3220004,7.15345926 16.4369694,7.2114672 C16.5457099,7.26633248 16.6741784,7.25619382 16.7738266,7.18488262 L16.8395906,7.13781991 C16.9888142,7.03103096 17.1595318,6.96163725 17.3385107,6.93501773 L17.3555045,6.9324902 C17.5477233,6.90390151 17.7422155,6.8957688 17.9360011,6.90821676 L18.0413656,6.91498493 C18.2292018,6.92705079 18.4057989,7.01273436 18.5359699,7.15496327 L18.5705757,7.1927746 C18.6779267,7.31006958 18.8258903,7.37718173 18.9810795,7.37896744 L19.1410638,7.38080841 C19.1927721,7.38140339 19.2414047,7.35515693 19.2709242,7.31072439 C19.3003143,7.26648653 19.3492778,7.24104625 19.400718,7.24328662 L19.511137,7.24809567 C19.6390853,7.25366819 19.7654995,7.27939753 19.886117,7.32441611 L20.0687933,7.3925971 C20.2321309,7.45356033 20.401381,7.49553555 20.57349,7.51776541 L20.6887338,7.53265049 C20.6939363,7.53332249 20.6991733,7.53365944 20.7044153,7.53365944 C20.7751196,7.53365944 20.8324367,7.47367641 20.8324367,7.39968357 C20.8324367,7.30066415 20.8058256,7.2036408 20.7556429,7.11969539 L20.6795222,6.99236115 C20.6039702,6.86597799 20.5358702,6.73488033 20.4756031,6.59980147 L20.4550017,6.55362647 C20.4105567,6.4540104 20.4090018,6.33924513 20.4507298,6.23835036 C20.4528043,6.23333453 20.4546246,6.2282078 20.4561834,6.22299148 C20.4806833,6.1410024 20.4370332,6.05375224 20.3586881,6.02811282 L20.2779074,6.00167626 C20.121878,5.95061364 19.9820088,5.85620897 19.8732027,5.72852099 L19.79485,5.63657135 C19.6949849,5.519376 19.6200994,5.38127836 19.5751708,5.23145723 C19.5343901,5.09546746 19.4155839,5.00159108 19.279438,4.99777966 L18.8614229,4.9860773 C18.7130158,4.98192263 18.5752978,4.90431328 18.4902971,4.77693372 L18.4616806,4.73404991 C18.3909167,4.62800515 18.3326978,4.51337394 18.288298,4.39266484 C18.2506843,4.29040518 18.143742,4.23618838 18.0437484,4.26868493 L17.9210217,4.30856944 C17.7226723,4.37303023 17.5141434,4.39602785 17.3073115,4.37625246 L17.1579815,4.36197487 C16.992532,4.34615608 16.8334582,4.28743422 16.6951415,4.19111809 L16.605109,4.12842443 C16.5249394,4.07259873 16.4384756,4.02737167 16.3476893,3.99377461 C16.2641108,3.96284489 16.1709905,3.98472334 16.1080667,4.05007352 L16.0523937,4.10789336 C15.950013,4.21422184 15.8148422,4.27899146 15.6710325,4.29062974 L15.1289445,4.33450001 C15.0292138,4.34257105 14.9347374,4.38453615 14.8599075,4.45400255 C14.7844764,4.524027 14.6920932,4.57098839 14.5928673,4.5897477 L14.5787842,4.5924102 C14.4704668,4.61288833 14.3698914,4.66500609 14.2886684,4.74274713 L14.2655292,4.76489435 C14.1703119,4.85602969 14.047322,4.90891657 13.9183844,4.91416994 L13.8771729,4.91584905 C13.7568245,4.92075247 13.6367285,4.9309865 13.5172076,4.94652363 L13.4032532,4.96133714 C13.2288546,4.98400811 13.0889079,5.12292563 13.0580674,5.30398441 L13.0198386,5.52841913 C12.9929965,5.68600398 12.9275428,5.83360393 12.8298753,5.95679135 C12.7348412,6.07665728 12.5964712,6.14978696 12.4478833,6.15867723 L12.2982797,6.16762828 C12.2938159,6.1678954 12.2893614,6.16831222 12.2849231,6.16887823 C12.1702981,6.18349568 12.0886993,6.29258936 12.102667,6.41254582 C12.120475,6.56548253 12.1096609,6.72058476 12.0708279,6.86919639 L12.0250028,7.04456668 C11.9875887,7.18774873 11.8896079,7.30513267 11.7590591,7.36317516 L11.6998484,7.38950048 C11.6941756,7.39202266 11.6886676,7.39493291 11.6833601,7.39821243 C11.6165725,7.43948037 11.5943979,7.52959496 11.6338317,7.59948899 C11.686752,7.69328685 11.709543,7.80236936 11.6988587,7.91072127 L11.6684542,8.21905753 C11.6569499,8.33572487 11.6211387,8.44833287 11.5635437,8.5489474 C11.5091769,8.64392272 11.5056108,8.76156753 11.5541163,8.85995799 L11.6557935,9.06620406 C11.704451,9.16490283 11.7137209,9.27976722 11.6815702,9.38560817 L11.6760487,9.40378493 C11.6465289,9.50096506 11.6349474,9.60313574 11.641922,9.70484646 C11.6485783,9.80191412 11.6979649,9.89023122 11.7755706,9.94384772 L11.801318,9.96163619 Z M19.7034106,17.1882267 C19.7878611,17.3112509 19.9498009,17.3430771 20.0711469,17.2604984 L20.2693514,17.1256158 C20.3694977,17.057464 20.4453236,16.9565969 20.4850418,16.8386949 L20.4935146,16.8135439 C20.5286774,16.7091642 20.568881,16.60672 20.6139701,16.5066066 L20.6619521,16.4000701 C20.6750819,16.3709173 20.688513,16.3419142 20.7022429,16.3130658 L20.7408614,16.231923 C20.7787971,16.1522151 20.8452498,16.0913882 20.9257874,16.0626526 L20.9821583,16.0425397 C21.0585406,16.0152868 21.1104551,15.9409177 21.1120395,15.8564809 C21.1137395,15.7658841 21.1472108,15.6791041 21.2060827,15.6126577 L21.2807389,15.5283963 C21.3531374,15.446683 21.4190147,15.3588977 21.4777092,15.2659216 L21.4847928,15.2547007 C21.5383866,15.1698047 21.5762635,15.0751278 21.5964529,14.9755958 C21.6162753,14.8778736 21.604973,14.7760467 21.5642739,14.6856814 L21.5418995,14.6360032 C21.5048196,14.5536736 21.4796196,14.4660412 21.467123,14.3759695 C21.4545602,14.2854205 21.444667,14.1944879 21.4374575,14.1033011 L21.4142715,13.8100387 C21.4056951,13.7015634 21.4362837,13.5936641 21.5000005,13.5076341 C21.5656901,13.4189407 21.6186444,13.3206789 21.6571854,13.2159622 L21.6711655,13.1779782 C21.6730212,13.1729363 21.6746526,13.167807 21.6760544,13.1626069 C21.7011077,13.0696707 21.6494261,12.9730765 21.5606204,12.9468579 C21.4502218,12.9142644 21.3623399,12.8266953 21.3258241,12.7128973 L21.3011285,12.6359361 C21.2461842,12.4647075 21.2203451,12.2847252 21.2247843,12.1041598 L21.2374908,11.5873153 C21.2376286,11.5817088 21.2376182,11.5760994 21.2374594,11.5704935 C21.2327073,11.4027094 21.0988842,11.2707251 20.9385572,11.2756982 L20.9161084,11.2763945 C20.7348006,11.2820185 20.5594716,11.2082268 20.4323689,11.0728004 L20.3427706,10.9773345 C20.2696209,10.8993945 20.1992292,10.8186713 20.1317375,10.7353279 L19.8806943,10.4253223 C19.7777357,10.2981819 19.6679724,10.1772521 19.5519327,10.0631151 C19.4380833,9.95113233 19.2965155,9.87479386 19.1432991,9.84276508 L18.9633809,9.80515451 C18.8397992,9.77932069 18.7216005,9.73066393 18.6143195,9.66146272 C18.5195311,9.60031976 18.396887,9.61623773 18.3192429,9.69976074 L18.186689,9.84235088 C18.1727675,9.85732649 18.1557346,9.86874207 18.1369132,9.87571088 C18.0692866,9.90075047 17.995068,9.86367695 17.9711413,9.79290491 L17.9675367,9.78224316 C17.9252706,9.65722538 17.9333646,9.51960017 17.9899613,9.40095008 C17.9989659,9.38207263 18.0030223,9.36103261 18.0017165,9.33997814 C17.9976412,9.2742706 17.9434385,9.22446151 17.8806513,9.22872636 L17.7193144,9.23968532 C17.5382707,9.25198281 17.3570414,9.21879818 17.1907437,9.1428994 L17.0885569,9.09626104 C16.988807,9.05073488 16.8819617,9.02462199 16.7732616,9.01920318 C16.6662541,9.01386871 16.5602741,9.04316277 16.4697404,9.10309993 L16.4271291,9.13131036 C16.3082808,9.20999291 16.1710322,9.2529264 16.0304186,9.2554075 L15.6988858,9.26125736 C15.5535061,9.26382251 15.4118165,9.30957181 15.2903283,9.39317403 C15.1677211,9.47754625 15.0294506,9.53383116 14.8845913,9.55833494 L14.6143297,9.60405126 C14.4778147,9.62714355 14.3487644,9.6848136 14.2384181,9.7720387 C14.1271536,9.85998971 14.0028344,9.92820809 13.8704299,9.97396716 L13.8230591,9.99033851 C13.661506,10.0461713 13.5184419,10.1489029 13.4105395,10.2865613 L13.3046976,10.4215908 C13.233663,10.5122144 13.2305229,10.6417521 13.2970753,10.7360284 C13.3646053,10.8316895 13.483203,10.8711486 13.5911221,10.8338618 L13.7489728,10.7793234 C13.8306693,10.7510967 13.9203346,10.765398 13.9902871,10.8178121 C14.0622479,10.8717309 14.1498879,10.8977793 14.2381876,10.8914934 L14.4894767,10.8736043 C14.6354418,10.8632132 14.7820637,10.8765794 14.9241134,10.9132263 L14.9262835,10.9137861 C15.0665326,10.9499685 15.1991646,11.0130238 15.3174681,11.0997613 C15.4350532,11.1859723 15.5708,11.2411783 15.7131563,11.2606814 L15.7208638,11.2617373 C15.8703061,11.2822112 16.0183032,11.3129282 16.1639007,11.3536901 L16.2538816,11.3788815 C16.3548572,11.407151 16.4416605,11.474802 16.4964703,11.5679455 C16.5524998,11.6631616 16.5851595,11.7714005 16.591541,11.8830233 L16.593267,11.913214 C16.599606,12.0240938 16.6901325,12.1089204 16.7961383,12.1033119 L16.8572343,12.1000793 C17.0240236,12.0912548 17.1908779,12.1160888 17.3487028,12.1732277 L17.4344893,12.2042858 C17.5394442,12.2422836 17.6325577,12.3094181 17.7038748,12.3985115 C17.7756239,12.4881447 17.8272912,12.5934488 17.8550871,12.7067003 L17.8883538,12.8422418 C17.9253625,12.9930297 17.9440876,13.1480931 17.9440876,13.3037756 L17.9440876,13.3527768 C17.9440876,13.4621854 18.0142578,13.5579744 18.1152173,13.5863853 C18.229024,13.6184115 18.3395195,13.6621563 18.4450856,13.7169788 L18.4960922,13.7434675 C18.6344043,13.8152956 18.7568978,13.9164954 18.8557633,14.040615 L18.9093716,14.107917 C19.0263254,14.2547454 19.0917679,14.4390229 19.0948313,14.6301472 L19.0959067,14.6972433 C19.0983243,14.8480804 19.0738205,14.9980649 19.0236539,15.1394933 C18.9808325,15.2602142 19.0341283,15.3950758 19.1459198,15.4488795 L19.2248674,15.4868759 C19.3741706,15.5587334 19.5027358,15.6705084 19.5976056,15.8109355 C19.6916025,15.9500705 19.7398606,16.1173983 19.7351131,16.2877223 L19.7265548,16.5947706 C19.7239315,16.6888854 19.6927445,16.7796823 19.637512,16.8540068 C19.5871063,16.9218359 19.5853897,17.0162986 19.6332945,17.0860844 L19.7034106,17.1882267 Z M13.3113911,12.0781323 C13.3018971,12.0767391 13.2922386,12.0772007 13.2829054,12.0794939 C13.2412223,12.0897355 13.215365,12.1334005 13.2251514,12.1770223 L13.271123,12.3819355 C13.3066942,12.5404897 13.3328759,12.7011913 13.3495188,12.8631228 C13.3653943,13.0175886 13.4443714,13.1573055 13.5660867,13.2462489 L13.6053671,13.2749531 C13.7509573,13.3813432 13.8411783,13.5523692 13.8496316,13.737989 L13.8584892,13.9324889 C13.8632204,14.0363773 13.8577119,14.1404993 13.8420512,14.2432062 C13.8270308,14.3417134 13.8518542,14.4423195 13.9105695,14.5209015 L13.9508972,14.5748742 C14.0371283,14.690282 14.087853,14.8303643 14.0963628,14.9765945 L14.1280541,15.5211665 C14.1355798,15.6504862 14.047227,15.7642975 13.9247328,15.7830738 L13.8324943,15.7972125 C13.8321252,15.7972691 13.8317563,15.7973273 13.8313877,15.7973874 C13.7633946,15.8084633 13.716855,15.8751252 13.7274387,15.9462808 C13.7402997,16.0327472 13.7610877,16.1177166 13.7895146,16.2000123 L13.796866,16.2212946 C13.8297451,16.3164793 13.8395272,16.4187177 13.8253344,16.5188349 L13.786215,16.7947858 C13.7581049,16.9930761 13.6947502,17.1841014 13.5994285,17.3579787 L13.5301825,17.4842911 C13.4815437,17.5730135 13.4062919,17.6424632 13.3160961,17.6818706 C13.2285136,17.7201363 13.1631857,17.7992229 13.139673,17.8954499 L13.0498458,18.2630732 C12.998499,18.4732131 12.9092385,18.6711433 12.7868705,18.8462062 L12.7833898,18.8511858 C12.6636537,19.0224835 12.5096756,19.1644074 12.3321789,19.2670735 L12.2135469,19.3356916 C12.1130721,19.3938074 12.009767,19.4463949 11.9040532,19.4932394 C11.8054221,19.5369454 11.7354662,19.6310037 11.7191914,19.7417927 L11.670676,20.072057 C11.6423814,20.2646697 11.5574092,20.4432591 11.4275867,20.582967 L11.3003073,20.7199381 C11.2521078,20.7718077 11.2027108,20.8224437 11.1521599,20.8718011 L11.0121989,21.0084579 C10.8761894,21.1412565 10.6888038,21.2001221 10.5053932,21.1676667 L10.1371652,21.1025071 C10.0294623,21.0834486 9.92109984,21.0687255 9.81231728,21.0583703 L9.7746424,21.054784 C9.75296779,21.0527207 9.73123131,21.0579745 9.71261653,21.0697757 C9.66448459,21.10029 9.64910325,21.1658603 9.67826139,21.216231 L9.68108763,21.2211133 C9.74885408,21.3381798 9.86429739,21.4161313 9.99414736,21.4325025 L10.1969337,21.4580695 C10.3101804,21.4723475 10.4195359,21.5102716 10.5185189,21.5695943 C10.6181011,21.6292761 10.7245651,21.6753909 10.8353222,21.7068174 L10.8629875,21.7146672 C10.99147,21.7511231 11.1254054,21.7616746 11.2576551,21.7457594 L11.4116865,21.7272229 C11.5683555,21.708369 11.7270543,21.729803 11.8740158,21.7896655 L11.9881994,21.8361764 C12.0547635,21.8632903 12.130353,21.846562 12.1807298,21.7935685 C12.2350844,21.7363906 12.3027343,21.6950167 12.3770158,21.6735222 L12.4590415,21.6497867 C12.5886953,21.6122694 12.7225977,21.5932528 12.8571165,21.5932528 L12.944478,21.5932528 C13.0582642,21.5932528 13.1703297,21.6223266 13.2709397,21.6779486 L13.3079326,21.6984001 C13.3728083,21.7342665 13.4531715,21.7100345 13.4898653,21.6435419 C13.5330794,21.5652337 13.5932506,21.4986313 13.6655398,21.449091 L13.9210628,21.2739789 C13.9719881,21.2390795 14.0236211,21.2053245 14.0759265,21.1727373 L14.1632817,21.1183134 C14.2721515,21.0504855 14.3953131,21.011773 14.5218777,21.0055986 L14.8847057,20.987898 C15.0229716,20.9811528 15.1411858,20.8815817 15.1770355,20.7416704 C15.2168176,20.5864119 15.283734,20.4402073 15.374399,20.310454 L15.3849428,20.2953644 C15.4721529,20.1705556 15.5752163,20.058773 15.6912854,19.9631049 C15.8055405,19.8689321 15.9430151,19.8106762 16.0876911,19.7951251 L16.1580336,19.787564 C16.3178573,19.7703847 16.4364159,19.6245502 16.4270143,19.456701 L16.4260016,19.4386203 C16.4154813,19.2507991 16.417267,19.0624443 16.4313463,18.8748785 L16.4386922,18.7770175 C16.4477404,18.6564757 16.4860873,18.5403564 16.55009,18.43969 C16.6151036,18.3374339 16.6856427,18.2391454 16.7613628,18.1453044 L16.8342629,18.0549583 C16.889882,17.9860288 16.943492,17.9153512 16.9950192,17.8430226 L17.0875545,17.7131312 C17.1594668,17.612188 17.1557373,17.4727774 17.0785411,17.3762029 C16.9922352,17.268232 16.9342166,17.1386464 16.9101715,17.0001465 L16.9038252,16.963592 C16.8755109,16.8005015 16.8831841,16.6327965 16.9262588,16.4732833 L16.942409,16.4134761 C16.9812817,16.2695241 17.0473458,16.1351924 17.1366936,16.0184269 C17.2116931,15.9204127 17.1973104,15.7774799 17.1044469,15.697965 L16.9325834,15.5508057 C16.7937663,15.4319428 16.7071358,15.2590889 16.6926169,15.0720008 L16.6779141,14.8825433 C16.6725689,14.8136657 16.6656965,14.7449274 16.6573025,14.6763837 L16.6375915,14.5154279 C16.6174199,14.3507118 16.5196431,14.2075668 16.377247,14.1342842 L16.3065588,14.0979053 C16.1895757,14.0377013 16.0898846,13.9461957 16.0175939,13.8326669 C15.9447946,13.7183394 15.8952432,13.5895638 15.8720196,13.4543442 L15.8417789,13.2782671 C15.8321127,13.2219858 15.7950677,13.1750708 15.7440732,13.1545295 C15.6893534,13.1324876 15.6335629,13.1134751 15.5769333,13.0975708 L15.2588897,13.0082494 C15.1532784,12.9785888 15.059311,12.9147917 14.990385,12.8259539 C14.987778,12.8225937 14.9850437,12.819344 14.9821888,12.8162123 C14.9229876,12.7512721 14.8246908,12.7488519 14.7626369,12.8108067 L14.6643338,12.9089526 C14.6449343,12.928321 14.6180847,12.9372462 14.5915611,12.9331432 C14.5440311,12.9257907 14.511196,12.8795075 14.5182218,12.8297669 C14.5410546,12.6681152 14.4781316,12.5062503 14.3539497,12.4071888 L14.2226109,12.3024181 C14.1309877,12.2293291 14.032747,12.1658031 13.9292943,12.1127492 C13.8408793,12.067407 13.7340209,12.0992626 13.6817094,12.1865567 L13.6371852,12.2608561 C13.6280929,12.2760289 13.6148256,12.2879666 13.599128,12.2950996 C13.5561804,12.3146152 13.506247,12.2940004 13.4875988,12.2490552 L13.4685986,12.2032616 C13.4405883,12.1357523 13.3810374,12.0883527 13.3113911,12.0781323 Z M12.089879,13.079974 C12.0825086,13.0587162 12.0691163,13.0403176 12.0514904,13.0272354 C12.0036559,12.9917319 11.9373764,13.0035316 11.9034508,13.053591 C11.8260132,13.1678547 11.7707031,13.2968804 11.7406419,13.4333863 L11.7365096,13.4521509 C11.7079517,13.58183 11.5931501,13.6702237 11.4663501,13.6601653 L11.3643202,13.6520718 C11.3580901,13.6515776 11.3518442,13.6513342 11.3455962,13.651342 C11.2109137,13.6515109 11.1018627,13.7659078 11.1020241,13.9068546 C11.1022274,14.0844036 11.0401909,14.2558631 10.9276694,14.3887444 L10.8665253,14.4609522 C10.760259,14.5864466 10.6224062,14.6781309 10.4687149,14.7255313 L10.3907445,14.7495784 C10.2947711,14.7791779 10.2237546,14.864104 10.2084485,14.9675796 C10.1922456,15.0771177 10.1399053,15.1772613 10.0605118,15.250629 L9.97219472,15.3322432 C9.83504213,15.4589864 9.66262427,15.5362902 9.48033195,15.5527708 L8.9834776,15.59769 C8.81651173,15.612785 8.66550315,15.7075427 8.57412336,15.8545595 C8.482404,16.0021224 8.33264411,16.0992632 8.16555707,16.1195734 L7.96464859,16.1439947 C7.7998864,16.1640222 7.633152,16.1571618 7.47040091,16.1236587 L7.36374027,16.1017021 C7.27116763,16.0826455 7.17956261,16.0587604 7.08926784,16.030136 C7.00674325,16.0039748 6.91722469,16.0307452 6.86036859,16.0985879 L6.75300427,16.2266989 C6.62733813,16.3766482 6.4392,16.4522634 6.24992827,16.428892 L5.61456309,16.3504363 C5.51290661,16.3378836 5.41531211,16.3012884 5.32917022,16.2434219 C5.24223861,16.1850248 5.16261583,16.1154953 5.09215013,16.0364473 L4.84767305,15.7621941 C4.81627953,15.726977 4.76728964,15.7158637 4.72477948,15.7343159 C4.67770727,15.7547483 4.62936475,15.7718152 4.58008488,15.7853991 L4.02141054,15.9393961 C3.90870004,15.9704645 3.78862473,15.9474745 3.69372624,15.8766566 C3.59638377,15.804015 3.47953397,15.7655549 3.35998354,15.7668083 L3.25469878,15.767912 C3.23688468,15.7680988 3.21915257,15.7704651 3.20186375,15.7749628 C3.07939479,15.8068229 3.00479394,15.9365491 3.03523807,16.0647143 L3.08190608,16.2611795 C3.10771199,16.3698185 3.09594277,16.4845099 3.04868322,16.5849375 C3.00389273,16.6801183 3.01479383,16.7936824 3.07677977,16.877638 L3.13548627,16.9571518 C3.2234926,17.0763502 3.32535226,17.1836048 3.4387099,17.2764353 C3.55152804,17.3688241 3.64696874,17.4823369 3.72017691,17.6111994 L3.86940845,17.8738799 C3.94502952,18.0069897 4.08206232,18.088567 4.23003803,18.088567 C4.38383426,18.088567 4.53233982,18.147327 4.64766458,18.2538118 L4.94837884,18.5314752 C5.02690821,18.6039851 5.1425265,18.6112261 5.22875879,18.5490351 C5.24393535,18.5380897 5.26171719,18.5317677 5.28012409,18.5307732 C5.33504005,18.5278059 5.38185669,18.5719893 5.38469205,18.6294595 L5.38694981,18.6752233 C5.39376752,18.8134129 5.48523243,18.931108 5.61311995,18.9662543 L6.04568363,19.0851322 C6.20998235,19.1302851 6.36980811,19.1916786 6.52300475,19.2684847 C6.54560325,19.2798146 6.57050336,19.2851991 6.59554208,19.2841703 C6.68048219,19.2806808 6.74663664,19.2057917 6.74330219,19.1169009 L6.73037211,18.7722085 C6.72658997,18.6713839 6.77612533,18.57656 6.85926827,18.5254668 C6.87356272,18.5166825 6.89003323,18.5125525 6.90657952,18.5136035 C6.95258283,18.5165253 6.98761248,18.5579216 6.98482048,18.6060646 L6.97541547,18.7682355 C6.96788389,18.8981035 7.01735189,19.0244776 7.10978043,19.1114925 L7.11261189,19.1141581 C7.20089744,19.1972728 7.32579376,19.222642 7.43737989,19.1801259 C7.55688427,19.1345928 7.68428672,19.1162254 7.81110416,19.1262465 L8.17397765,19.1549211 C8.34698645,19.1685924 8.52082101,19.1444476 8.68443248,19.0840212 C8.84894587,19.0232617 9.00406277,18.9375995 9.14483877,18.8297649 L9.19999515,18.7875151 C9.3067504,18.7057405 9.40949435,18.61838 9.50783488,18.525767 C9.60316832,18.4359859 9.7257208,18.3842954 9.85390075,18.3798026 L10.2386689,18.366316 C10.454319,18.3587572 10.6337686,18.1905005 10.6645459,17.9670024 L10.6902979,17.7799962 C10.7081478,17.6503742 10.7640299,17.5297548 10.8502209,17.4348085 C10.9373548,17.3388236 11.0445876,17.2653132 11.1634787,17.2200635 L11.2653505,17.1812913 C11.4428493,17.1137356 11.5785477,16.9610816 11.6301259,16.7709369 L11.6928478,16.5397102 C11.7478662,16.3368832 11.8536533,16.1531161 11.9992719,16.0074083 L12.0233457,15.9833198 C12.1395885,15.8670059 12.1642365,15.6823497 12.0829003,15.5371525 L12.0460583,15.4713841 C11.981754,15.3565912 11.971749,15.2171423 12.0189526,15.0935876 C12.0687223,14.9633163 12.1301192,14.8382466 12.2023282,14.7200392 L12.286754,14.5818326 C12.3374424,14.4988547 12.3351335,14.3920338 12.2809117,14.3115393 C12.2221504,14.2243059 12.186034,14.1226032 12.1760958,14.0163815 L12.1630942,13.877416 C12.152489,13.7640647 12.1542187,13.6498196 12.16825,13.5368768 C12.1821244,13.4251979 12.1702094,13.3116654 12.1335045,13.2057998 L12.089879,13.079974 Z M10.6710295,12.3216517 C10.6731955,12.3103495 10.6740967,12.2988219 10.673715,12.2873017 C10.6709987,12.2053307 10.6052995,12.1411846 10.5269717,12.1440272 L10.2680192,12.153425 C10.176383,12.1567506 10.0846682,12.1569841 9.9930176,12.154125 L9.55181451,12.1403615 C9.32365499,12.1332439 9.09695029,12.0997067 8.87584533,12.0403629 L8.63785408,11.9764869 C8.57473824,11.9595468 8.51200155,11.9410959 8.44969323,11.9211487 L7.98738688,11.7731471 C7.76346837,11.7014624 7.5766376,11.5383021 7.46916731,11.3205831 L7.418012,11.21695 C7.34758475,11.0742748 7.20045109,10.9917443 7.04792699,11.009361 C6.88153035,11.0285801 6.71315205,11.006087 6.55670453,10.9437401 L6.42589253,10.8916095 C6.19964885,10.8014477 6.04108656,10.5857916 6.01578,10.333827 L5.98819733,10.0592004 C5.97374907,9.91534616 5.88458837,9.79159384 5.75640651,9.73748182 C5.61801115,9.67905818 5.48664763,9.60383498 5.36501269,9.51335632 L5.30515755,9.46883286 C5.14669948,9.35096327 5.02483941,9.18695431 4.95472668,8.99719513 L4.93426006,8.94180251 C4.87531747,8.78227518 4.86635799,8.60726913 4.90867585,8.4420643 L4.92384433,8.38284798 C4.95700481,8.25339271 4.97379983,8.11994545 4.97379983,7.98591952 C4.97379983,7.85766056 4.92068665,7.7356958 4.82818939,7.65155168 L4.68562028,7.52185758 C4.53757714,7.38718376 4.44456117,7.19819252 4.42575425,6.99385797 L4.42551934,6.99130577 C4.40623511,6.78178521 4.41384009,6.5705059 4.44813165,6.36309734 L4.45664691,6.31159379 C4.45912282,6.29661857 4.46006508,6.28140966 4.45945771,6.26622519 C4.45474121,6.14831269 4.35957908,6.05672707 4.24690715,6.06166292 L4.20280412,6.06359498 C4.07472554,6.06920579 3.96053231,6.14967823 3.90740176,6.27176634 L3.9051657,6.27690458 C3.84925098,6.40539036 3.77469717,6.52406082 3.68414412,6.62871393 L3.64294265,6.67633094 C3.57933088,6.74984774 3.51339622,6.82112618 3.44524839,6.89004765 L3.35199967,6.98435487 C3.24838582,7.08914495 3.18049957,7.22662705 3.15876283,7.3756949 C3.13650219,7.52835567 3.09702463,7.67771604 3.04115679,7.82064854 L3.02119583,7.87171669 C2.97363962,7.99338469 2.8936894,8.09819682 2.79085536,8.17368558 C2.69172394,8.24645626 2.63118786,8.36388714 2.62751103,8.49054893 L2.61385582,8.9609534 C2.60784223,9.16811408 2.5705504,9.37297501 2.50336309,9.56793996 L2.47846318,9.64019481 C2.43486229,9.76671645 2.48886621,9.90734149 2.60400403,9.96710043 C2.73859731,10.0369572 2.87691275,10.0986678 3.01826733,10.1519275 L3.06415626,10.1692175 C3.08570211,10.1773356 3.10292908,10.194665 3.11153162,10.2168746 C3.12824745,10.2600308 3.10836827,10.3091968 3.06713023,10.3266901 L2.96928227,10.3681975 C2.90855388,10.3939587 2.86437552,10.4500876 2.85184813,10.5173984 L2.83382267,10.6142508 C2.83245145,10.6216185 2.83109799,10.6289897 2.8297623,10.6363645 L2.72853853,11.1952547 C2.7129689,11.2812198 2.70513269,11.3685228 2.70513269,11.4560185 C2.70513269,11.5362001 2.74968821,11.6090619 2.8192596,11.6426506 L3.04032761,11.749381 C3.15228873,11.8034352 3.25713182,11.8723537 3.35227,11.9544361 L3.43084085,12.0222246 C3.47399042,12.0594527 3.51783521,12.0957895 3.5623498,12.1312138 L3.60430269,12.1645995 C3.67436393,12.2203536 3.72253563,12.3009848 3.73975057,12.3913163 L3.82737466,12.8511035 C3.84998812,12.9697624 3.93267755,13.0660476 4.04301457,13.1021988 L4.19760949,13.1528507 C4.21385397,13.1581731 4.23012874,13.1633937 4.24643292,13.1685123 L4.45771377,13.2348419 C4.61275482,13.2835156 4.7548854,13.3691829 4.87291853,13.4851009 L4.87424907,13.4864076 C4.99462507,13.6046265 5.10671796,13.7317553 5.20965971,13.8668097 L5.24447319,13.9124833 C5.31877575,14.0099644 5.44039781,14.0534346 5.55615744,14.0238856 C5.68221264,13.9917085 5.81163717,13.9762666 5.9413784,13.9779242 L6.08838997,13.9798024 C6.21228965,13.9813854 6.33392416,14.0147703 6.44261824,14.0770269 C6.55270123,14.1400792 6.66851381,14.1914954 6.78833963,14.2305135 L6.83084901,14.2443556 C6.94894309,14.2828098 7.07734187,14.2629172 7.17972416,14.190305 C7.2849312,14.1156895 7.41028277,14.0784687 7.53725813,14.084142 L8.01290779,14.1053944 C8.10102741,14.1093317 8.1869128,14.075745 8.25097067,14.0122966 L8.26836741,13.9950654 C8.32356683,13.9403911 8.38015232,13.8872702 8.43806331,13.8357594 L8.49304827,13.7868512 C8.58490523,13.7051461 8.70051445,13.6584391 8.82100501,13.654354 L9.27459787,13.6389757 C9.39127883,13.6350199 9.49663205,13.56485 9.54946261,13.4559039 C9.60333131,13.3448167 9.70442827,13.2671206 9.82183483,13.2465774 L10.0142695,13.212906 C10.1014568,13.1976504 10.1730433,13.1323918 10.1994401,13.0441036 C10.2276698,12.9496852 10.2782672,12.8642762 10.3465226,12.7958268 L10.5061751,12.6357203 C10.5905211,12.5511345 10.648058,12.4415193 10.6710295,12.3216517 Z"/></svg>