<svg viewBox="0 0 16 16" xmlns="http://www.w3.org/2000/svg"><title>Artboard</title><path d="M5.66 16a3.06 3.06 0 0 1-1.815-2.55 3.598 3.598 0 0 1 1.634-2.83c-.159.387-.121.826.1 1.18.25.349.682.518 1.103.43a1.131 1.131 0 0 0 .44-1.94A2.507 2.507 0 0 1 6.222 8a2.35 2.35 0 0 1 .731-1.19c-.27.72.492 1.43 1.003 1.78.907.544 1.78 1.142 2.616 1.79a3.516 3.516 0 0 1 1.333 3A3.332 3.332 0 0 1 9.649 16c2.365-.53 4.8-2.41 4.851-5.08A5.53 5.53 0 0 0 11.232 6h-.09a.808.808 0 0 1 .06.33 1.157 1.157 0 0 0 0-.22c.01.086.01.174 0 .26a1.133 1.133 0 0 1-1.985.44c-.781-1 0-2.14.131-3.24A4.116 4.116 0 0 0 7.644 0c.571.95-.19 2.2-.742 2.91-.551.71-1.353 1.24-2.004 1.86a16.453 16.453 0 0 0-1.925 2.14 6.519 6.519 0 0 0-1.333 5.47A5.208 5.208 0 0 0 5.65 16h.01z" fill-rule="nonzero" fill="#000"/></svg>