<svg viewBox="0 0 16 16" xmlns="http://www.w3.org/2000/svg" fill-rule="evenodd" clip-rule="evenodd" stroke-linejoin="round" stroke-miterlimit="1.414"><path d="M15.885 13.152h-3.73c-.062 0-.113.04-.113.115v1.01c0 .063.038.114.114.114h3.73c.063 0 .114-.037.114-.114v-1.01c0-.075-.038-.114-.115-.114zm-4.91-11.508c.01.023.02.046.032.08V14.25c0 .04-.013.064-.025.077-.026.026-.05.04-.09.04H.102c-.025 0-.05 0-.064-.014-.025-.026-.038-.05-.038-.09V1.71c0-.05.026-.088.064-.1h10.828c.026 0 .064.012.077.024l.004.01zM1.212 13.05c0 .05.026.09.064.102h8.428c.038-.012.064-.05.064-.102V2.937c0-.05-.027-.09-.065-.102H1.277c-.038.013-.064.05-.064.102V13.05zm3.41-5.63c.434 0 .715.165.97.46.038.05.102.063.153.024l.69-.613c.05-.037.038-.114.013-.152-.423-.51-1.036-.83-1.827-.83-1.06 0-1.865.524-2.17 1.47-.116.33-.167.752-.167 1.314s.05.983.166 1.315c.306.945 1.11 1.468 2.17 1.468.792 0 1.405-.32 1.827-.817.024-.05.037-.115-.014-.153l-.69-.613c-.05-.038-.115-.038-.153.013-.268.294-.536.46-.97.46-.473 0-.83-.23-.984-.69-.09-.268-.116-.587-.116-.996 0-.41.026-.716.115-.984.152-.447.51-.677.983-.677z"/></svg>