<svg role="img" viewBox="0 0 24 24" xmlns="http://www.w3.org/2000/svg"><title>Codemagic icon</title><path d="M22.844 10.115l-5.903-2.881c-.071-.036-.107-.107-.142-.178l-2.916-5.904c-.698-1.535-3.071-1.54-3.769 0L7.198 7.057c-.035.071-.107.142-.142.177L1.153 10.15c-1.534.698-1.54 3.072 0 3.77l5.903 2.881c.071.036.107.107.142.142l2.951 5.904c.698 1.535 3.071 1.54 3.769 0l2.88-5.904c.036-.071.107-.142.142-.142l5.903-2.916c1.527-.695 1.558-3.08.001-3.77zm-4.373.427l-2.738 2.383c-.533.498-.925 1.138-1.067 1.849l-.711 3.556c-.039.206-.361.325-.462.107l-2.382-2.738c-.498-.533-1.138-.925-1.849-1.067l-3.557-.712c-.206-.039-.325-.361-.107-.462l2.738-2.383c.533-.498.925-1.138 1.067-1.849l.711-3.556c.05-.209.305-.294.462-.142l2.382 2.738c.498.533 1.138.925 1.849 1.067l3.556.711c.248.044.271.381.108.498z"/></svg>