<svg viewBox="0 0 16 16" xmlns="http://www.w3.org/2000/svg" fill-rule="evenodd" clip-rule="evenodd" stroke-linejoin="round" stroke-miterlimit="1.414"><path d="M14.236 12.472c.974 0 1.764.79 1.764 1.764S15.21 16 14.236 16c-.973 0-1.764-.79-1.764-1.764 0-.973.79-1.764 1.764-1.764zM8 6.236c.973 0 1.764.79 1.764 1.764 0 .973-.79 1.764-1.764 1.764-.973 0-1.764-.79-1.764-1.764 0-.973.79-1.764 1.764-1.764zm6.236 0C15.21 6.236 16 7.026 16 8c0 .973-.79 1.764-1.764 1.764-.973 0-1.764-.79-1.764-1.764 0-.973.79-1.764 1.764-1.764zM8 0c.973 0 1.764.79 1.764 1.764 0 .973-.79 1.764-1.764 1.764-.973 0-1.764-.79-1.764-1.764S7.026 0 8 0zM1.764 0c.973 0 1.764.79 1.764 1.764 0 .973-.79 1.764-1.764 1.764S0 2.738 0 1.764.79 0 1.764 0zm12.472 0C15.21 0 16 .79 16 1.764c0 .973-.79 1.764-1.764 1.764-.973 0-1.764-.79-1.764-1.764S13.262 0 14.236 0z"/></svg>