<svg width="124" height="124" viewBox="0 0 124 124" fill="none" xmlns="http://www.w3.org/2000/svg">
    <mask id="mask0_695_100" style="mask-type:alpha" maskUnits="userSpaceOnUse" x="0" y="0" width="124" height="124">
        <path
            d="M0 10C0 4.47715 4.47715 0 10 0H114C119.523 0 124 4.47715 124 10V114C124 119.523 119.523 124 114 124H10C4.47715 124 0 119.523 0 114V10Z"
            fill="#ffffff" />
    </mask>
    <g mask="url(#mask0_695_100)">
        <path d="M124.18 124L108 107.82V16.1796L124.18 0L124.18 124Z" stroke="black" stroke-width="4" />
        <path d="M0 0L16.1796 16.1796L16.1796 107.82L0 124L0 0Z" stroke="black" stroke-width="4" />
        <path d="M0 124.18L16.1796 108L107.82 108L124 124.18L0 124.18Z" stroke="black" stroke-width="4" />
        <path d="M124 0L107.82 16.1796H16.1796L0 0H124Z" stroke="black" stroke-width="4" />
        <path
            d="M107.387 16H16.6133C16.2746 16 16 16.2746 16 16.6133V107.387C16 107.725 16.2746 108 16.6133 108H107.387C107.725 108 108 107.725 108 107.387V16.6133C108 16.2746 107.725 16 107.387 16Z"
            stroke="black" stroke-width="4" />
        <path
            d="M75.196 77.1134C74.1902 77.1134 73.3102 76.7612 72.5559 76.0566C71.8375 75.3169 71.4783 74.4538 71.4783 73.4675C71.4783 72.4459 71.8375 71.5828 72.5559 70.8783C73.3102 70.1386 74.1902 69.7687 75.196 69.7687C76.2377 69.7687 77.1177 70.1386 77.8361 70.8783C78.5545 71.5828 78.9137 72.4459 78.9137 73.4675C78.9137 74.4538 78.5545 75.3169 77.8361 76.0566C77.1177 76.7612 76.2377 77.1134 75.196 77.1134Z"
            fill="black" />
        <path
            d="M62.3573 77.1134C61.3516 77.1134 60.4715 76.7612 59.7172 76.0566C58.9988 75.3169 58.6396 74.4538 58.6396 73.4675C58.6396 72.4459 58.9988 71.5828 59.7172 70.8783C60.4715 70.1386 61.3516 69.7687 62.3573 69.7687C63.399 69.7687 64.2791 70.1386 64.9974 70.8783C65.7158 71.5828 66.075 72.4459 66.075 73.4675C66.075 74.4538 65.7158 75.3169 64.9974 76.0566C64.2791 76.7612 63.399 77.1134 62.3573 77.1134Z"
            fill="black" />
        <path
            d="M49.519 77.1134C48.5132 77.1134 47.6332 76.7612 46.8789 76.0566C46.1605 75.3169 45.8013 74.4538 45.8013 73.4675C45.8013 72.4459 46.1605 71.5828 46.8789 70.8783C47.6332 70.1386 48.5132 69.7687 49.519 69.7687C50.5607 69.7687 51.4407 70.1386 52.1591 70.8783C52.8775 71.5828 53.2367 72.4459 53.2367 73.4675C53.2367 74.4538 52.8775 75.3169 52.1591 76.0566C51.4407 76.7612 50.5607 77.1134 49.519 77.1134Z"
            fill="black" />
        <path
            d="M85.9869 88.6325C85.1967 88.6325 84.5501 88.3683 84.0473 87.8399C83.5444 87.3468 83.2929 86.7127 83.2929 85.9377C83.2929 85.1275 83.5444 84.4758 84.0473 83.9826C84.5501 83.4894 85.1967 83.2429 85.9869 83.2429C88.178 83.2429 89.2736 82.1684 89.2736 80.0196V67.7079C89.2736 65.2421 89.8483 63.287 90.9977 61.8427C90.423 61.1029 89.992 60.2399 89.7046 59.2535C89.4173 58.2672 89.2736 57.1575 89.2736 55.9246V43.6129C89.2736 41.4641 88.178 40.3897 85.9869 40.3897C85.1967 40.3897 84.5501 40.1431 84.0473 39.6499C83.5444 39.1567 83.2929 38.5227 83.2929 37.7477C83.2929 36.9727 83.5444 36.321 84.0473 35.7926C84.5501 35.2642 85.1967 35 85.9869 35C91.8419 35 94.7693 37.871 94.7693 43.6129V55.9246C94.7693 58.0734 95.8469 59.1478 98.0021 59.1478C98.7924 59.1478 99.4389 59.3944 99.9418 59.8876C100.481 60.3808 100.75 61.0325 100.75 61.8427C100.75 62.6177 100.481 63.2517 99.9418 63.7449C99.4389 64.2381 98.7924 64.4847 98.0021 64.4847C95.8469 64.4847 94.7693 65.5591 94.7693 67.7079V80.0196C94.7693 85.7616 91.8419 88.6325 85.9869 88.6325Z"
            fill="black" />
        <path
            d="M38.7631 88.6325C32.9081 88.6325 29.9807 85.7616 29.9807 80.0196V67.7079C29.9807 65.5591 28.9031 64.4847 26.7479 64.4847C25.9576 64.4847 25.2931 64.2381 24.7543 63.7449C24.2514 63.2517 24 62.6177 24 61.8427C24 61.0325 24.2514 60.3808 24.7543 59.8876C25.2931 59.3944 25.9576 59.1478 26.7479 59.1478C28.9031 59.1478 29.9807 58.0734 29.9807 55.9246V43.6129C29.9807 37.871 32.9081 35 38.7631 35C39.5533 35 40.1999 35.2642 40.7027 35.7926C41.2056 36.321 41.4571 36.9727 41.4571 37.7477C41.4571 38.5227 41.2056 39.1567 40.7027 39.6499C40.1999 40.1431 39.5533 40.3897 38.7631 40.3897C36.572 40.3897 35.4764 41.4641 35.4764 43.6129V55.9246C35.4764 57.1575 35.3327 58.2672 35.0454 59.2535C34.758 60.2399 34.327 61.1029 33.7522 61.8427C34.9017 63.287 35.4764 65.2421 35.4764 67.7079V80.0196C35.4764 82.1684 36.572 83.2429 38.7631 83.2429C39.5533 83.2429 40.1999 83.4894 40.7027 83.9826C41.2056 84.4758 41.4571 85.1275 41.4571 85.9377C41.4571 86.7127 41.2056 87.3468 40.7027 87.8399C40.1999 88.3683 39.5533 88.6325 38.7631 88.6325Z"
            fill="black" />
        <path
            d="M10 1.5H114C118.694 1.5 122.5 5.30558 122.5 10V114C122.5 118.694 118.694 122.5 114 122.5H10C5.30558 122.5 1.5 118.694 1.5 114V10C1.5 5.30558 5.30558 1.5 10 1.5Z"
            stroke="black" stroke-width="3" />
    </g>
</svg>