<svg role="img" viewBox="0 0 24 24" xmlns="http://www.w3.org/2000/svg"><title>CodeIgniter icon</title><path d="M8.485 23.991a4.59 4.59 0 01-2.723-3.824 5.4 5.4 0 012.45-4.246c-.238.58-.18 1.24.15 1.77a1.625 1.625 0 001.655.646 1.697 1.697 0 00.66-2.91 3.759 3.759 0 01-1.35-3.435 3.522 3.522 0 011.096-1.785c-.405 1.08.737 2.145 1.504 2.67 1.36.815 2.67 1.712 3.924 2.685a5.285 5.285 0 012 4.5 4.985 4.985 0 01-3.385 3.93c3.55-.79 7.21-3.61 7.28-7.61a8.288 8.288 0 00-4.9-7.38h-.13c.065.158.096.327.09.497.01-.11.01-.22 0-.33.016.13.016.26 0 .39a1.699 1.699 0 01-2.976.658c-1.17-1.5 0-3.207.196-4.857A6.17 6.17 0 0011.472 0c.856 1.427-.284 3.3-1.113 4.366-.83 1.066-2.03 1.86-3.008 2.79a24.502 24.502 0 00-2.887 3.21 9.778 9.778 0 00-2 8.204A7.806 7.806 0 008.48 24h.016z"/></svg>