<?xml version="1.0" encoding="UTF-8" standalone="no"?>
<svg
   role="img"
   viewBox="0 0 24 24"
   version="1.1"
   id="svg828"
   sodipodi:docname="codesignal.svg"
   inkscape:version="1.1 (c4e8f9e, 2021-05-24)"
   xmlns:inkscape="http://www.inkscape.org/namespaces/inkscape"
   xmlns:sodipodi="http://sodipodi.sourceforge.net/DTD/sodipodi-0.dtd"
   xmlns="http://www.w3.org/2000/svg"
   xmlns:svg="http://www.w3.org/2000/svg"
   xmlns:rdf="http://www.w3.org/1999/02/22-rdf-syntax-ns#"
   xmlns:cc="http://creativecommons.org/ns#"
   xmlns:dc="http://purl.org/dc/elements/1.1/">
  <defs
     id="defs832" />
  <sodipodi:namedview
     id="namedview830"
     pagecolor="#ffffff"
     bordercolor="#666666"
     borderopacity="1.0"
     inkscape:pageshadow="2"
     inkscape:pageopacity="0.0"
     inkscape:pagecheckerboard="0"
     showgrid="false"
     inkscape:zoom="27.015141"
     inkscape:cx="12.326421"
     inkscape:cy="11.826701"
     inkscape:window-width="1440"
     inkscape:window-height="847"
     inkscape:window-x="0"
     inkscape:window-y="25"
     inkscape:window-maximized="1"
     inkscape:current-layer="svg828" />
  <title
     id="title824">CodeSignal</title>
  <path
     d="M 0,2.9954465 11.698499,4.6371755 11.964252,5.8917424 12.277219,4.6371755 24,2.9954465 l -3.827104,5.698162 -0.674498,0.09578 -1.973582,3.2834575 -1.82924,0.144342 -3.658479,8.787365 L 8.281491,12.217188 6.499466,12.001348 4.5258839,8.7907365 3.7556068,8.6936085 Z m 3.4628745,2.027542 1.3489967,2.080153 3.9485128,0.532854 0.385814,1.354392 -2.6008661,-0.242819 1.0117471,1.6929905 2.094992,0.169974 2.407959,7.159125 2.383677,-7.159126 2.119274,-0.169973 1.011748,-1.6916415 -2.600866,0.242819 0.385813,-1.355741 3.948514,-0.532854 1.373278,-2.080153 -6.766567,1.21005 -1.879153,7.1591245 -1.877803,-7.1591245 z"
     id="path826"
     sodipodi:nodetypes="cccccccccccccccccccccccccccccccccc"
     style="stroke-width:1.349" />
  <metadata
     id="metadata914">
    <rdf:RDF>
      <cc:Work
         rdf:about="">
        <dc:title>CodeSignal</dc:title>
      </cc:Work>
    </rdf:RDF>
  </metadata>
</svg>
