<svg role="img" viewBox="0 0 24 24" xmlns="http://www.w3.org/2000/svg"><title>Codewars icon</title><path d="M.702 12.19l-.08-.04c-.18-.101-.321-.252-.422-.442a1.54 1.54 0 01-.2-.752l.02-.13c0-.2.05-.381.14-.552l.08-.15c.04-.08.1-.15.151-.22.06-.07.07-.16.05-.241l-.05-.16a2.1 2.1 0 01-.1-.602l-.03-.12c0-.22.06-.441.2-.602l.1-.13c.07-.1.18-.16.301-.2.1-.03.17-.13.18-.251l.02-.341c0-.27.131-.521.331-.702l.241-.18c.05-.05.1-.1.14-.18.05-.06.06-.141.05-.201-.02-.1 0-.13.05-.14.161.06.261.04.331-.04l.13-.171.362-.401c.1-.1.14-.28.08-.421l-.12-.26c-.02-.06 0-.131.05-.151.13 0 .22.05.26.13l.04.07c.06.12.201.18.301.13.22-.08.401-.1.572-.1h.32c.221 0 .401-.15.442-.38.04-.281.14-.502.28-.652.15-.17.321-.3.522-.401.26-.14.42-.34.47-.602.07-.32.241-.551.472-.701l.762-.431.22-.13c.13-.08.25-.181.351-.301L7.92.8c.1-.1.201-.17.321-.2.1-.03.241-.05.361-.04l.401.03c.2 0 .361.05.522.12l.1.05c.1.04.2.02.25-.05l.09-.05.432-.452c.1-.1.22-.14.35-.12.131.02.261.07.382.13.18.1.33.14.5.14h.101c.22 0 .441.03.662.081l.15.04c.15.04.3-.02.401-.14.03-.05.1-.06.14-.02.03.02.04.04.05.07.02.2.141.35.301.4l.16.051c.171.05.322.16.422.3.1.151.22.302.36.402l.101.1c.1.1.24.14.38.13h.592c.241 0 .472.04.702.14.22.1.451.121.662.04.22-.07.45-.1.681-.07l.432.07c.2.02.4.121.52.271l.05.05c.101.1.201.231.302.372.06.13.2.2.34.2h.622c.15 0 .3.03.421.1.13.1.24.2.341.301l.1.13c.12.14.18.331.17.532 0 .16.12.3.281.3l.2.02c.141 0 .261.1.332.231l.1.2.26.582c.04.1.05.2.04.28 0 .1.03.181.1.221l.101.07c.13.1.2.251.18.421l-.07.472-.02.2c-.02.1.03.23.12.3.151.101.221.231.231.382v.2c0 .1-.02.22-.1.301-.06.08-.1.18-.1.3l.03.231c0 .16.1.301.2.401.14.1.22.261.24.421.041.251.051.452.051.652v.23c0 .08 0 .161.03.241.02.07.07.14.13.18l.2.151c.201.13.342.3.422.531.1.22.13.451.13.682v.08c0 .18-.02.371-.08.542-.05.18-.04.35.03.5.08.141.13.302.15.472.04.2.02.401-.05.561l-.02.07c-.05.12-.13.231-.23.321-.1.1-.2.16-.26.23-.061.061-.101.161-.071.252l.03.14c.05.2.05.4 0 .581v.08c-.04.15-.1.281-.16.402-.07.13-.17.23-.301.3l-.15.1c-.07.04-.12.13-.12.221 0 .1-.04.2-.101.26l-.15.201c-.1.13-.231.24-.371.301-.14.1-.26.2-.351.3-.1.121-.18.261-.22.402-.04.18-.181.28-.332.28h-.54c-.141 0-.272.1-.332.221-.07.16-.14.27-.23.37-.1.101-.16.221-.2.362-.02.12-.121.2-.221.16-.13-.06-.261 0-.321.1-.12.2-.24.351-.371.482l-.07.06c-.13.1-.301.18-.451.18-.18 0-.271.08-.301.2-.03.101-.05.231-.06.342-.02.12-.06.23-.1.33l-.05.06c-.1.15-.181.301-.281.432l-.04.06c-.13.17-.301.3-.502.35-.24.08-.45.1-.661.1h-.14c-.1 0-.201.061-.271.161l-.06.1-.06.12-.13.221c-.101.18-.252.301-.452.361-.2.05-.431.07-.642.06l-.16-.02c-.14 0-.27-.04-.401-.1-.1-.04-.24 0-.3.1-.101.14-.221.22-.352.261l-.3.1c-.2.05-.421.05-.632 0l-.16-.05c-.1 0-.2-.05-.281-.1-.1-.05-.2-.07-.3-.06l-.131.02c-.2.02-.381 0-.562-.05l-.27-.06a.572.572 0 01-.301-.231.393.393 0 00-.3-.2h-.321c-.201-.03-.381-.1-.502-.251l-.4-.381-.141-.12-.22-.16-.131-.101c-.15-.1-.33-.18-.521-.2l-.602-.1c-.06 0-.1-.02-.16-.03l-.23-.051c-.101-.02-.201-.1-.271-.2-.06-.1-.17-.14-.271-.1-.2.08-.361.1-.521.13h-.14a1.46 1.46 0 01-.743-.13c-.24-.101-.4-.251-.55-.442a.82.82 0 00-.522-.34l-.28-.06a1.63 1.63 0 01-.582-.241c-.2-.14-.301-.271-.381-.432-.08-.15-.13-.32-.14-.5v-.081a.496.496 0 00-.352-.431c-.23-.07-.4-.17-.55-.3a.711.711 0 01-.221-.522l.02-.441a.56.56 0 00-.17-.431.621.621 0 01-.201-.431l-.03-.361c-.02-.26-.07-.522-.13-.782a.503.503 0 01.22-.572l.07-.05c.1-.07.14-.2.08-.32l-.08-.1c-.1-.101-.2-.171-.3-.201-.08-.02-.101-.1-.101-.15l.1-.12c.06-.071.05-.181 0-.242a.456.456 0 01-.13-.28l-.02-.702c0-.14.02-.28.06-.421.04-.12 0-.26-.12-.32zm9.924-1.324c.07-.07.06-.2 0-.25a.976.976 0 01-.23-.271l-.1-.16c-.07-.131-.16-.241-.261-.342l-.02-.02a.862.862 0 01-.23-.3.32.32 0 010-.301l.06-.1c.06-.1.1-.241.1-.361v-.04c0-.1-.04-.2-.1-.301a1.16 1.16 0 01-.1-.28v-.061c-.03-.12 0-.25.08-.35.08-.131.14-.251.17-.402v-.02a.39.39 0 00-.04-.33.36.36 0 01-.04-.322l.07-.2c.06-.18.15-.34.27-.481l.14-.15.101-.12.06-.061c.06-.06.07-.16.02-.24-.05-.1-.08-.201-.06-.301l.02-.14c.03-.201.1-.402.23-.562l.04-.04c.151-.2.342-.331.562-.401l.27-.1c.121-.04.201-.17.201-.301 0-.16.05-.301.14-.431l.05-.05c.101-.17.221-.341.302-.522l.07-.13c.02-.03.03-.07.03-.1 0-.17-.1-.321-.26-.331l-.442-.03c-.25-.02-.501 0-.742 0l-.852.1c-.13 0-.23.1-.24.24 0 .141-.1.261-.221.301l-.36.1-.101.03-.3.101a.824.824 0 00-.502.451l-.08.13c-.1.221-.271.401-.482.532-.2.13-.3.34-.32.581v.1c-.02.2-.08.401-.2.542l-.05.08c-.081.1-.101.23-.051.34.05.121.08.251.07.382v.531c0 .14-.1.26-.2.3a.43.43 0 00-.271.302l-.05.2c-.04.2.03.401.2.521.16.12.261.301.301.522v.18c.03.2.14.401.32.501.181.12.322.301.402.502l.05.16c.08.22.26.35.461.37h.06c.18 0 .341.101.441.262.1.16.261.27.441.3l.281.08c.17.05.331.14.461.271l.02.02c.1.08.261.07.351-.04l.07-.08zm1.143-.922c.1.06.2.03.24-.06l.03-.05c.071-.141.161-.281.262-.402l.2-.3c.03 0 .04-.02.05-.04l.24-.321c.101-.1.221-.17.362-.17.13 0 .24-.07.3-.201.04-.14.1-.27.221-.381l.05-.06c.1-.1.2-.15.3-.2.131-.02.251-.04.372-.04h.3c.12 0 .221-.051.281-.151.06-.1.15-.17.25-.22l.101-.04c.16-.071.34-.121.521-.141l.2-.02c.121 0 .251 0 .372.07.1.07.23.06.33-.02l.07-.04c.151-.1.322-.18.502-.2h.02c.2-.04.381-.04.582-.03h.1c.2.03.37.1.501.25l.03.04c.1.1.26.18.401.18h.17c.05 0 .1-.02.13-.07.03-.03.081-.06.131-.06h.1c.14 0 .271.04.401.08l.17.07c.161.05.332.1.502.12h.12c.08 0 .13-.05.13-.12 0-.1-.02-.2-.07-.28l-.07-.16c-.08-.131-.14-.271-.2-.402l-.02-.05a.32.32 0 010-.3v-.05a.17.17 0 00-.1-.201h-.08a.798.798 0 01-.402-.27l-.1-.101c-.1-.1-.16-.25-.2-.401-.05-.13-.16-.23-.301-.23h-.421a.553.553 0 01-.371-.221l-.04-.05c-.07-.1-.13-.22-.17-.341-.05-.1-.161-.16-.261-.13l-.12.04c-.201.07-.402.1-.602.08l-.16-.02c-.17 0-.331-.07-.462-.17l-.1-.07c-.08-.061-.16-.101-.25-.141-.1-.04-.18-.02-.241.05l-.05.06c-.1.1-.24.18-.381.2l-.542.03c-.1 0-.2.05-.27.12-.08.071-.17.121-.27.141h-.02c-.101 0-.201.07-.302.14v.02c-.1.1-.23.151-.36.151l-.04.02c-.12 0-.241 0-.362.03h-.12a.44.44 0 00-.34.351l-.04.23c-.03.161-.101.301-.201.432-.1.12-.22.2-.371.2H12.23c-.1.02-.201.13-.181.25.02.171 0 .322-.03.472l-.04.17c-.04.15-.14.271-.27.321l-.061.03h-.02c-.06.04-.1.13-.05.2.06.101.08.201.07.301l-.03.321c0 .12-.05.23-.1.331-.06.1-.06.2-.02.3l.1.221c.05.1.06.2.03.321-.03.1-.05.2-.04.3 0 .101.06.201.14.242l.02.02zm7.92 7.248c.1.1.25.14.37.06l.201-.13c.1-.07.18-.171.22-.301v-.02l.101-.301.06-.1.04-.1.04-.07c.04-.08.1-.141.201-.171l.04-.02c.08-.02.13-.1.13-.18 0-.1.05-.181.1-.251l.08-.07.201-.261v-.02c.06-.08.1-.17.12-.27.02-.101 0-.201-.04-.302l-.02-.04a.921.921 0 01-.07-.26l-.03-.281-.03-.3c0-.101.04-.201.1-.302.07-.08.12-.18.16-.28v-.04l.02-.02c.02-.1-.03-.2-.12-.2-.1-.051-.2-.131-.23-.251l-.03-.06c-.05-.181-.08-.362-.08-.542l.02-.501v-.03c0-.17-.14-.301-.301-.301h-.02c-.2 0-.36-.06-.501-.2l-.08-.1-.201-.231-.26-.301c-.1-.14-.201-.26-.331-.381-.1-.1-.251-.2-.401-.22l-.2-.03c-.101-.02-.232-.07-.342-.141-.08-.06-.2-.04-.28.04l-.13.14-.061.04c-.07.02-.14-.02-.17-.1a.503.503 0 01.02-.38v-.06c0-.071-.06-.121-.12-.101h-.161c-.18 0-.36-.02-.531-.1l-.1-.04a.766.766 0 00-.331-.08c-.1 0-.2.02-.301.08l-.04.03c-.12.08-.26.12-.401.13h-.331c-.15 0-.3.05-.401.13-.13.08-.27.13-.421.16l-.27.04c-.121.03-.251.081-.362.171-.1.1-.24.16-.37.2l-.05.02c-.161.05-.301.151-.402.302l-.12.12a.27.27 0 000 .32c.06.1.18.13.3.1l.151-.06c.08-.03.17 0 .24.04.06.05.151.081.241.071l.25-.03c.141 0 .282 0 .422.04.15.05.28.1.4.2.121.1.252.14.402.16.15.021.3.051.441.101l.1.02c.1.03.18.1.24.2.051.08.101.201.101.301v.03c0 .12.1.201.2.201h.06c.161 0 .332.02.502.07l.07.03c.1.04.2.1.27.2.081.101.131.201.161.302l.03.14c.03.15.04.3.04.461v.05c0 .1.07.2.18.24.101.02.221.06.332.121l.05.02c.13.08.26.18.36.3l.05.071c.131.15.201.34.201.531v.07c0 .15-.03.301-.08.442-.04.12 0 .26.13.3l.07.05c.151.06.281.17.382.301.1.15.14.321.14.501v.301c-.02.1-.05.18-.1.25-.05.071-.05.171 0 .241l.06.1zm-6.416-5.133h-.02c-.04 0-.06.05-.05.1l.04.2c.04.161.06.321.08.482.02.16.1.3.22.4h.04c.151.121.241.302.251.482v.501c-.02.1 0 .2.06.281l.05.05c.1.12.141.26.151.401l.03.551c0 .13-.08.241-.2.261l-.1.02c-.07 0-.1.08-.1.15 0 .08.03.171.06.251v.02c.03.1.04.2.03.3l-.04.272c-.04.2-.101.38-.201.561l-.07.12a.43.43 0 01-.2.2c-.101.04-.171.121-.201.221l-.08.361c-.05.2-.141.401-.261.602h-.02c-.12.16-.271.3-.451.4l-.12.081-.302.15c-.1.04-.16.13-.18.24l-.05.332c-.03.2-.1.37-.24.501l-.131.15-.15.15-.15.161c-.121.14-.302.2-.502.17l-.36-.07-.332-.04h-.09c-.04.04-.05.1-.02.16.07.121.18.201.3.201l.221.04c.1 0 .22.05.321.1.1.07.2.12.32.15h.02c.131.051.272.061.402.051l.15-.02c.17-.02.331 0 .471.06l.12.04c.05.02.131 0 .181-.05.06-.06.12-.1.2-.13l.08-.02c.131-.04.262-.06.402-.06h.08c.12 0 .23.02.33.08l.041.02c.07.03.15 0 .2-.06.03-.07.1-.14.171-.2l.25-.171.161-.1.08-.05c.1-.07.24-.1.361-.1l.361-.03c.14-.021.26-.121.3-.262.04-.15.101-.3.201-.43.1-.131.2-.241.301-.342.13-.1.26-.15.401-.16h.08c.16-.03.28-.18.27-.34v-.672c.02-.1.061-.231.121-.331l.2-.301.08-.1c.061-.05.101-.12.171-.2l.1-.131c.06-.1.06-.23-.02-.32-.1-.101-.15-.241-.17-.382v-.04c-.02-.16-.02-.33.03-.501v-.05c.05-.13.12-.26.2-.381.08-.1.07-.24-.03-.321l-.17-.15a.743.743 0 01-.24-.482l-.02-.2c0-.06 0-.13-.02-.2l-.02-.151c-.02-.17-.12-.3-.261-.4l-.07-.021c-.1-.06-.201-.15-.281-.27-.08-.1-.12-.241-.15-.382l-.03-.17c0-.06-.04-.1-.1-.13l-.161-.05-.321-.1c-.1-.02-.2-.101-.27-.171h-.02a.143.143 0 00-.221-.02l-.1.1c-.02.03-.04.04-.07.03-.06 0-.101-.05-.081-.1a.455.455 0 00-.17-.421l-.13-.1-.301-.2c-.08-.031-.2 0-.241.1l-.04.06c0 .02-.03.03-.04.04-.04 0-.1 0-.1-.05l-.03-.05c-.03-.06-.1-.1-.161-.121zM12.07 13.06l-.05-.05c-.05-.04-.1-.03-.15.02-.07.12-.13.25-.16.381v.02c-.031.13-.151.22-.272.2H11.318c-.14 0-.25.121-.25.261 0 .18-.06.361-.17.502l-.061.06c-.1.13-.25.22-.401.27l-.08.02c-.1.03-.18.1-.2.221 0 .1-.06.2-.141.28l-.1.081c-.12.13-.301.2-.482.22l-.5.05c-.161 0-.302.1-.402.251-.1.15-.25.25-.4.271l-.221.02c-.16.02-.331.02-.502-.02l-.1-.02-.27-.07c-.1-.03-.181 0-.241.07l-.1.13c-.13.15-.321.22-.502.2l-.651-.08c-.1 0-.18-.05-.27-.1-.101-.06-.171-.13-.242-.2l-.25-.3a.182.182 0 00-.13-.021l-.14.06-.562.14c-.1.03-.23 0-.331-.06-.1-.08-.22-.1-.34-.1h-.131c-.12.03-.2.16-.16.28l.04.201c.03.1.02.22-.03.321-.05.1-.04.2.03.3l.06.081c.08.12.2.22.3.32.1.101.2.201.281.332l.15.27c.08.14.201.22.361.22.15 0 .301.051.421.151l.301.281c.08.07.2.08.28.02l.051-.02c.06 0 .1.04.1.1v.05c0 .13.1.251.23.301l.452.1c.16.05.32.1.471.2h.08c.08 0 .15-.07.14-.16v-.35c0-.1.04-.2.121-.241l.05-.02c.05.02.1.06.08.1v.17c0 .13.04.251.13.341.1.1.231.12.341.08.12-.05.241-.06.371-.05l.371.02c.18.02.351 0 .502-.07.18-.06.33-.14.47-.25l.06-.04.302-.271c.1-.1.23-.15.35-.15h.401c.201-.02.381-.2.401-.401l.04-.2c0-.131.06-.251.15-.352.101-.1.201-.16.302-.2l.12-.05c.17-.07.3-.22.36-.401l.061-.241c.05-.2.15-.401.3-.531l.02-.02c.121-.1.141-.301.061-.441l-.03-.07a.42.42 0 01-.03-.382c.05-.14.1-.26.18-.38l.1-.14c.04-.081.04-.201-.02-.272a.48.48 0 01-.1-.28l-.02-.14v-.341c.02-.1 0-.231-.03-.331l-.04-.12zm-1.434-.762v-.03c0-.1-.06-.16-.14-.16h-.26c-.1.02-.201.02-.281 0h-.451c-.231 0-.452-.04-.672-.1l-.24-.06-.201-.06-.451-.15a.851.851 0 01-.532-.452l-.05-.1a.338.338 0 00-.37-.2c-.171 0-.341 0-.502-.081l-.12-.05c-.23-.1-.401-.3-.401-.572l-.04-.27c-.03-.14-.12-.27-.24-.321-.141-.06-.272-.14-.402-.23l-.05-.03c-.15-.12-.28-.281-.35-.472l-.02-.06a.943.943 0 01-.021-.501l.02-.06c.04-.13.05-.261.05-.401 0-.12-.05-.24-.14-.331l-.14-.13a.728.728 0 01-.271-.532c-.02-.22-.02-.43.02-.641v-.06a.2.2 0 00-.2-.201h-.03a.34.34 0 00-.301.2c-.05.14-.13.251-.221.361l-.04.05-.2.201-.1.1c-.101.1-.161.25-.181.401-.02.15-.06.301-.12.441l-.02.05c-.05.12-.131.231-.231.301-.1.08-.17.2-.17.321l-.02.461c0 .2-.03.401-.1.602l-.021.08c-.05.13 0 .27.12.33l.421.181.04.02c.03 0 .04.02.05.05.03.04 0 .1-.03.1l-.1.05c-.06.02-.1.08-.12.151l-.02.1v.02l-.1.562c-.02.08-.02.17-.02.26 0 .08.05.15.12.18l.22.101c.1.06.221.13.301.2l.1.08c.03.04.08.08.12.101l.04.04c.071.06.121.14.141.23l.1.452c0 .12.1.22.201.25l.16.05s.03 0 .05.02l.201.06c.16.05.3.141.421.261.12.1.24.23.34.371l.041.04c.08.1.2.15.32.12.121-.03.251-.04.382-.04h.15c.1 0 .23.03.34.1.101.061.232.101.352.151h.03c.12.05.25.03.35-.04.101-.08.231-.12.362-.12l.47.03c.101 0 .201-.02.251-.1h.02l.17-.16.051-.05c.08-.101.2-.141.32-.151h.452c.12 0 .23-.1.28-.2.05-.101.151-.181.271-.201l.2-.04c.081 0 .151-.07.181-.16.03-.101.08-.181.15-.241l.161-.16c.1-.101.15-.201.17-.322z"/></svg>