<svg role="img" viewBox="0 0 24 24" xmlns="http://www.w3.org/2000/svg"><title>Cohiba</title><path d="M6.73 17.896a.963.963 0 0 1-.967-.956.96.96 0 0 1 .966-.953.96.96 0 0 1 .967.953.96.96 0 0 1-.967.956m0 .643c1.437 0 2.15-.73 2.15-1.634 0-.904-.828-1.635-2.15-1.635-1.321 0-2.145.73-2.145 1.635.003.904.71 1.634 2.145 1.634m-3.742-1.147a.954.954 0 0 1-.838.504.968.968 0 0 1-.97-.956c0-.529.442-.953.97-.953.358 0 .678.202.852.494l1.103-.286c-.317-.546-1.012-.928-1.958-.928C.824 15.267 0 15.997 0 16.9c0 .905.71 1.635 2.146 1.635 1.005 0 1.662-.362 1.958-.89zm6.49-1.927v3.074h1.172v-1.137h1.436v1.137h1.144v-3.074h-1.144v1.071H10.65v-1.07zm4.57 0h1.102v3.074h-1.102zm7.226 0-1.405 3.074h1.204l.177-.445h1.363l.178.445H24l-1.447-3.074zm.661.94.418.938h-.828zm-3.777 1.411c.167 0 .3-.118.3-.268 0-.16-.133-.278-.3-.278h-1.102v.546zm-2.215.723v-3.08h2.793c.417 0 .754.316.754.705 0 .393-.34.706-.754.706.487 0 .887.376.887.831 0 .463-.4.832-.887.832h-2.793zm2.142-1.884c.143 0 .258-.101.258-.233 0-.143-.112-.237-.258-.237h-1.036v.47zM8.527 7.119c.094.052.136.173.053.309l-.178.296c-.035.059.014.11.052.142.06.049.119.101.178.146.073.06-.021.119-.049.14-.372.292-.654.58-.706 1.175-.003.056.031.062.101.07.115.013.285.02.42.041.046.007.039.07.043.14.017.357-.046.684-.046 1.046 0 .08.049.111.112.111l1.474.05c.258.006.532.163.713.35l1.151 1.218c.038.041.118.083.167-.004.449-.793.995-1.54 1.663-2.163.027-.024.034-.077.007-.111a6.594 6.594 0 0 1-.418-.689c-.028-.052-.01-.115.045-.16.265-.223.505-.414.7-.702.166-.244.295-.508.448-.863.07-.156.188-.275.358-.26.146.013.261.142.292.284.115.581.376 1.04.856 1.364.056.038.125.017.115-.042-.129-.87.094-1.315.295-1.722.115-.226.22-.441.237-.726.042-.692-.81-1.176-1.363-.689a.807.807 0 0 0-.286.563c-.007.13-.087.275-.274.094-1.941-1.85-4.688-1.026-6.236.445-.066.063-.01.098.077.146"/></svg>