<svg role="img" viewBox="0 0 24 24" xmlns="http://www.w3.org/2000/svg"><title>comma</title><path d="M6.7084 24c0-.55386-.04365-1.02045.02013-1.47025.02686-.19134.25176-.3961.43638-.51023.88954-.56393 1.85628-1.01374 2.6854-1.65823 2.6854-2.09125 4.27649-4.84714 4.36376-8.42543.0235-1.01374-.3491-1.26885-1.20842-.87276-2.47057 1.1413-5.12575.46995-6.54566-1.65151a6.0455 6.0455 0 0 1 .52366-7.4184c2.36986-2.5847 6.26368-2.6619 8.94908-.1947 1.61124 1.47697 2.37322 3.38695 2.56455 5.55541.63778 7.27407-3.02107 13.26586-9.6842 15.9009-.65793.25847-1.33264.4733-2.10469.7452"/></svg>