<svg xmlns="http://www.w3.org/2000/svg" width="768" height="768"><g stroke="#449FDB"><path opacity=".3" d="M16 0v768"/><path d="M32 0v768"/><path opacity=".3" d="M48 0v768"/><path d="M64 0v768"/><path opacity=".3" d="M80 0v768"/><path d="M96 0v768"/><path opacity=".3" d="M112 0v768"/><path d="M128 0v768"/><path opacity=".3" d="M144 0v768"/><path d="M160 0v768"/><path opacity=".3" d="M176 0v768"/><path d="M192 0v768"/><path opacity=".3" d="M208 0v768"/><path d="M224 0v768"/><path opacity=".3" d="M240 0v768"/><path d="M256 0v768"/><path opacity=".3" d="M272 0v768"/><path d="M288 0v768"/><path opacity=".3" d="M304 0v768"/><path d="M320 0v768"/><path opacity=".3" d="M336 0v768"/><path d="M352 0v768"/><path opacity=".3" d="M368 0v768"/><path d="M384 0v768"/><path opacity=".3" d="M400 0v768"/><path d="M416 0v768"/><path opacity=".3" d="M432 0v768"/><path d="M448 0v768"/><path opacity=".3" d="M464 0v768"/><path d="M480 0v768"/><path opacity=".3" d="M496 0v768"/><path d="M512 0v768"/><path opacity=".3" d="M528 0v768"/><path d="M544 0v768"/><path opacity=".3" d="M560 0v768"/><path d="M576 0v768"/><path opacity=".3" d="M592 0v768"/><path d="M608 0v768"/><path opacity=".3" d="M624 0v768"/><path d="M640 0v768"/><path opacity=".3" d="M656 0v768"/><path d="M672 0v768"/><path opacity=".3" d="M688 0v768"/><path d="M704 0v768"/><path opacity=".3" d="M720 0v768"/><path d="M736 0v768"/><path opacity=".3" d="M752 0v768M0 16h768"/><path d="M0 32h768"/><path opacity=".3" d="M0 48h768"/><path d="M0 64h768"/><path opacity=".3" d="M0 80h768"/><path d="M0 96h768"/><path opacity=".3" d="M0 112h768"/><path d="M0 128h768"/><path opacity=".3" d="M0 144h768"/><path d="M0 160h768"/><path opacity=".3" d="M0 176h768"/><path d="M0 192h768"/><path opacity=".3" d="M0 208h768"/><path d="M0 224h768"/><path opacity=".3" d="M0 240h768"/><path d="M0 256h768"/><path opacity=".3" d="M0 272h768"/><path d="M0 288h768"/><path opacity=".3" d="M0 304h768"/><path d="M0 320h768"/><path opacity=".3" d="M0 336h768"/><path d="M0 352h768"/><path opacity=".3" d="M0 368h768"/><path d="M0 384h768"/><path opacity=".3" d="M0 400h768"/><path d="M0 416h768"/><path opacity=".3" d="M0 432h768"/><path d="M0 448h768"/><path opacity=".3" d="M0 464h768"/><path d="M0 480h768"/><path opacity=".3" d="M0 496h768"/><path d="M0 512h768"/><path opacity=".3" d="M0 528h768"/><path d="M0 544h768"/><path opacity=".3" d="M0 560h768"/><path d="M0 576h768"/><path opacity=".3" d="M0 592h768"/><path d="M0 608h768"/><path opacity=".3" d="M0 624h768"/><path d="M0 640h768"/><path opacity=".3" d="M0 656h768"/><path d="M0 672h768"/><path opacity=".3" d="M0 688h768"/><path d="M0 704h768"/><path opacity=".3" d="M0 720h768"/><path d="M0 736h768"/><path opacity=".3" d="M0 752h768"/></g><path fill="none" stroke="#000" stroke-width="60" d="M67.222 174.001h633.556c19.658 0 35.592 15.934 35.592 35.592v348.814c0 19.658-15.934 35.592-35.592 35.592H67.222c-19.657 0-35.592-15.934-35.592-35.592V209.593c0-19.658 15.934-35.592 35.592-35.592z"/><path d="M150.466 491.302V276.705h63.117l63.117 78.897 63.117-78.897h63.117v214.597h-63.117V368.224L276.7 447.121l-63.117-78.897v123.078zm394.482 0L450.273 387.16h63.117V276.706h63.117V387.16h63.117z"/></svg>