<svg role="img" viewBox="0 0 24 24" xmlns="http://www.w3.org/2000/svg"><title>CommonMark icon</title><path d="M3.462 15.923V8.077h2.307l2.308 2.885 2.308-2.885h2.307v7.846h-2.307v-4.5l-2.308 2.885-2.308-2.885v4.5zm14.423 0l-3.462-3.808h2.308V8.077h2.307v4.038h2.308zM1.73 4.615A1.74 1.74 0 0 0 0 6.346v11.308c0 .949.782 1.73 1.73 1.73h20.54a1.74 1.74 0 0 0 1.73-1.73V6.346a1.74 1.74 0 0 0-1.73-1.73zm0 1.154h20.538c.33 0 .577.248.577.577v11.308c0 .33-.247.577-.577.577H1.731a.563.563 0 0 1-.577-.577V6.346c0-.33.247-.577.577-.577Z"/></svg>