<svg role="img" viewBox="0 0 24 24" xmlns="http://www.w3.org/2000/svg"><title>comma</title><path d="M6.7084 24c0-.5539-.0436-1.0204.0201-1.4703.0269-.1913.2518-.396.4364-.5102.8895-.564 1.8563-1.0137 2.6854-1.6582 2.6854-2.0913 4.2765-4.8472 4.3638-8.4254.0235-1.0138-.3491-1.2689-1.2085-.8728-2.4705 1.1413-5.1257.47-6.5456-1.6515a6.0455 6.0455 0 0 1 .5236-7.4184c2.37-2.5847 6.2637-2.662 8.9491-.1947 1.6113 1.477 2.3732 3.387 2.5646 5.5554.6378 7.274-3.021 13.2659-9.6842 15.9009-.658.2585-1.3327.4733-2.1047.7452"/></svg>