<svg aria-labelledby="simpleicons-compropago-icon" role="img" viewBox="0 0 24 24" xmlns="http://www.w3.org/2000/svg"><title id="simpleicons-compropago-icon">ComproPago icon</title><path d="M19.313 7.783c-.603-.602-1.506-.602-2.108 0l-.15.15-.904.904-6.92 6.927-1.51 1.506c-.45.45-1.2.753-1.96.753-.75 0-1.5-.302-2.1-.903-.6-.603-.902-1.355-.902-2.108s.3-1.506.9-2.107L12.54 4.02c-1.206-1.205-3.013-1.205-4.218 0l-6.624 6.775c-2.26 2.26-2.26 6.024 0 8.433 2.258 2.26 6.023 2.26 8.432 0l9.337-9.335c.45-.604.45-1.506-.15-2.11z"/><path d="M22.173 4.77c-2.26-2.257-6.023-2.257-8.432 0l-9.18 9.337c-.6.604-.6 1.506 0 2.11.61.602 1.51.602 2.11 0l.15-.15.91-.905 6.926-6.927L16 6.88l.15-.15c.45-.452 1.204-.753 1.957-.753s1.506.3 2.108.904c.604.61.903 1.36.903 2.11s-.3 1.51-.903 2.11l-8.885 8.88c1.205 1.21 3.012 1.21 4.217 0l6.777-6.77c2.26-2.41 2.26-6.02-.15-8.43z"/></svg>