<svg role="img" viewBox="0 0 24 24" xmlns="http://www.w3.org/2000/svg"><title>Composer icon</title><path d="M16.661 0c-.07 0-.115.034-.165.095a.416.416 0 0 0-.07.43c.19.41.363.83.528 1.25.01.02.022.04.039.068-.039-.002-.05-.022-.063-.043-.297-.31-.648-.557-.998-.804-.473-.337-.99-.603-1.503-.872a.578.578 0 0 0-.214-.065l-.384-.04c-.202-.025-.355.09-.355.292 0 .108-.046.132-.135.14-.079.004-.187.115-.196.192a.694.694 0 0 0 .228.619c.444.415.873.845 1.303 1.275l.015.007c.012.01.021.022.028.038-.007.003-.014.003-.019.003a.057.057 0 0 1-.036-.022c-.002-.002-.005-.005-.005-.007-.062-.036-.127-.07-.187-.11-.3-.2-.595-.404-.895-.598a.943.943 0 0 0-.461-.17.453.453 0 0 0-.392.143.28.28 0 0 0-.088.252c.016.147.115.238.223.313.502.338.95.734 1.366 1.173.036.039.074.08.115.113.118.096.19.224.262.356.033.06.021.074-.043.074-.428 0-.836.118-1.246.204-.168.036-.334.094-.394.281-.065.209-.096.326.16.391a9.57 9.57 0 0 1 1.49.516c.042.02.08.046.117.077.12.104.23.219.362.303.38.247.77.478 1.22.583.053.012.1.039.151.05.05.015.084.044.094.094.029.178.139.279.305.33.021.006.038.02.06.028.053.017.076.055.093.108a24.272 24.272 0 0 0 .212.715c.026.08.002.101-.07.123-.372.108-.742.22-1.112.334-.132.04-.134.043-.067.163l.908 1.635c.127.23.132.23.365.11.024-.012.057-.053.079-.014.021.036.06.089.024.13-.113.129-.19.28-.286.42-.031.045-.031.074-.005.117a35.48 35.48 0 0 1 .3.502c.012.02.034.043.03.058l-.123.367a2.538 2.538 0 0 0-.317-.716c-.18-.288-.41-.542-.62-.811-.033-.04-.072-.077-.11-.115-.2-.207-.456-.332-.699-.478a1.026 1.026 0 0 0-.34-.127c-.375-.08-.747-.11-1.12.005-.076.024-.117.004-.162-.06-.092-.128-.166-.274-.289-.373-.3-.24-.616-.458-.986-.583a2.95 2.95 0 0 0-.865-.168 4.271 4.271 0 0 0-.463.017c-.396.031-.79.074-1.14.293-.07.043-.15.067-.221.108-.36.194-.715.386-1.016.679-.31.305-.619.61-.897.944-.322.384-.565.818-.783 1.267-.015.031-.022.07-.07.096l-.12-.744c-.007-.046.022-.043.053-.038.089.01.175.014.264.026.067.01.103-.005.12-.08.022-.102.046-.206.067-.311.082-.396.2-.78.303-1.17.02-.074.007-.1-.07-.12-.381-.09-.763-.191-1.145-.283-.072-.017-.106-.043-.084-.12.087-.298.125-.61.243-.9a.178.178 0 0 1 .055-.087c.098-.076.17-.165.16-.302-.007-.103.041-.168.14-.214.182-.086.358-.187.53-.288a.84.84 0 0 0 .327-.333c.322-.605.59-1.242.98-1.81.033-.051.06-.106.1-.15.252-.264.488-.544.771-.78.089-.074.113-.175.115-.285 0-.128-.074-.216-.151-.305-.075-.087-.151-.161-.279-.147-.028.003-.057-.01-.088-.014.019-.039.05-.048.076-.065a236.539 236.539 0 0 0 1.016-.658c.41-.264.819-.53 1.232-.794.052-.034.076-.06.019-.11-.015-.013-.024-.03-.036-.044-.084-.099-.084-.099-.2-.029L8.084 3.692c-.101.062-.101.062-.151-.05-.113-.263-.178-.539-.262-.81-.02-.062-.003-.098.046-.137.288-.23.552-.49.818-.741a.604.604 0 0 0 .187-.37c.022-.17-.09-.26-.244-.197a1.707 1.707 0 0 0-.221.106c-.68.374-1.405.63-2.149.847-.043.012-.082.026-.118-.02-.074-.09-.184-.14-.278-.208a.073.073 0 0 0-.062-.015c-.101.027-.205.056-.267.147-.158.233-.358.44-.507.682-.17.28-.333.562-.525.828-.036.05-.05.058-.084-.002L3.63 2.635a2.839 2.839 0 0 0-.223-.338c-.094-.118-.209-.176-.358-.159-.026.003-.06-.004-.07.036-.02.11-.071.226-.057.332.034.271.082.542.15.806.114.459.244.912.38 1.364.133.444.282.88.426 1.323.012.038.033.072-.02.103-.067.038-.175.058-.187.125-.012.07.05.151.08.225l.007.017c.024.058.036.144.079.166.058.029.11-.05.163-.082.048-.029.065-.021.087.029.124.293.252.583.379.876a.18.18 0 0 1 .007.137 4.136 4.136 0 0 0-.192.72c-.012.07-.038.07-.091.056a107.671 107.671 0 0 0-.833-.212c-.123-.03-.123-.03-.137.094v.01a556.95 556.95 0 0 1-.183 1.994c-.004.06.003.085.068.092.194.024.386.055.578.084.036.005.067.007.058.06-.043.226-.077.454-.125.677a.178.178 0 0 0 .034.163c.067.087.132.175.199.264.046.063.08.144.038.209a.201.201 0 0 0-.033.118c.007.415.007.83.026 1.246.01.201.007.403.012.605.01.535.041 1.068.06 1.603.01.262-.036.521-.024.783.002.065.017.1.084.122.159.05.312.116.473.166a.28.28 0 0 1 .185.156.436.436 0 0 1 .038.219c-.002.072.024.115.082.156.247.177.492.36.74.542.65.48 1.3.963 1.954 1.44.06.046.074.082.038.147-.034.062-.055.134-.089.197-.029.058-.024.094.031.134.082.058.161.123.236.188.065.055.067.141.048.208-.015.048-.087.005-.132 0-.032-.002-.063-.01-.094-.014-.31-.05-.617-.13-.932-.156-.501-.04-1.003-.084-1.51-.07-.026 0-.067-.024-.074.03-.007.042-.017.088.031.117a.446.446 0 0 0 .077.036c.283.098.548.24.807.389.168.096.333.204.518.269.034.012.068.038.108.002a205.748 205.748 0 0 1-.833-.665c.039-.029.07-.017.099-.014.333.026.665.072.989.148a37.91 37.91 0 0 1 2.122.574c.23.07.475.103.682.243.05.033.08.067.074.13.012.014.027.033.01.045-.02.012-.036-.012-.05-.024-.164-.014-.327-.026-.488-.043-.463-.046-.924-.11-1.392-.096-.35.01-.701-.015-1.05.01-.494.033-.989.098-1.48.15-.025.003-.063-.002-.063.027 0 .036.014.077.06.086a.58.58 0 0 0 .113.013c.25.01.497.007.746.011.62.015 1.242-.011 1.86.041.224.02.45.01.668.05 1.03.193 2.055.394 3.078.618.12.026.243.045.36.103-.055.05-.127.065-.158.137-.219.506-.363 1.04-.53 1.563-.03.088.03.192.12.216a.278.278 0 0 0 .352-.221c.02-.108.039-.216.053-.327.005-.036.017-.055.053-.067.132-.053.261-.108.393-.16.195-.08.377-.178.529-.325.134-.127.247-.273.25-.47 0-.06.014-.099.062-.135.22-.17.418-.365.61-.564a6.03 6.03 0 0 1 .6-.533c.024-.02.043-.048.081-.033.18.072.358.141.56.22-.375.228-.73.447-1.083.66-.017.01-.036.015-.053.02a.813.813 0 0 0-.338.201c-.375.372-.567.814-.545 1.35.014.36.22.53.571.448.615-.144 1.14-.732 1.232-1.377.024-.18.052-.358-.077-.514a2.252 2.252 0 0 0-.178-.195.487.487 0 0 0 .039-.026c.777-.463 1.625-.778 2.475-1.07 1.04-.359 2.1-.644 3.164-.918l-.075-.017c-.07.007-.136.015-.206.02a5.097 5.097 0 0 0-.872.134.113.113 0 0 1-.016.007.226.226 0 0 1-.094.015c-.014 0-.029 0-.048.002.065-.062.252-.264.303-.25l.002-.005h.005c0-.007.019-.021.019-.021.017-.029.04-.048.074-.05a.694.694 0 0 1 .197-.188c.05-.031.103-.062.161-.086h-.002c.16 0 .319-.194.486-.262-.001-.006-.01-.01-.013-.017-.24.034-.476.072-.706.159-.492.182-1.001.324-1.481.535-.742.324-1.482.648-2.195 1.035a.817.817 0 0 1-.077.036l-.055-.504c-.005-.034.012-.048.041-.063.631-.333 1.265-.665 1.925-.938.543-.226 1.08-.471 1.626-.692.002-.005.005-.01.01-.01h.004c.002 0 .002.003.005.003.007.012.002.02-.005.026-.002.003-.005.003-.01.005h-.002a3.36 3.36 0 0 0-.372.66c.038.01.053-.002.067-.017.113-.12.226-.237.336-.357.214-.235.44-.459.704-.641.016-.012.045-.022.033-.048-.014-.03-.045-.015-.067-.01-.247.05-.495.096-.74.154-.081.02-.076-.01-.079-.067-.002-.197.027-.39.034-.586a.632.632 0 0 1 .058-.247c.098-.226.196-.45.297-.675.05-.113.08-.233.099-.353.031-.192.055-.387.074-.581.031-.298.137-.578.187-.874.065-.374.118-.751.257-1.109.125-.317.245-.634.372-.948.176-.428.399-.833.505-1.29.036-.158.076-.302.004-.458-.04-.084-.052-.18-.081-.271a.392.392 0 0 1-.012-.204c.048-.245.07-.488-.063-.716-.036-.062.008-.1.044-.139.088-.091.093-.132.016-.23-.088-.11-.175-.224-.27-.327-.08-.084-.154-.175-.234-.262-.055-.033-.05-.055.012-.077.14-.047.276-.107.418-.15.08-.025.1-.07.106-.142.045-.605.09-1.213.139-1.818.007-.084-.007-.1-.094-.074-.454.144-.907.28-1.363.422-.14.044-.142.044-.205-.093-.23-.519-.41-1.056-.6-1.59a.392.392 0 0 1 .007-.316c.068-.188.025-.377.02-.567-.003-.01-.005-.02-.005-.029a9.172 9.172 0 0 0-.255-1.548 6.02 6.02 0 0 0-.499-1.27c-.228-.432-.473-.86-.737-1.275-.113-.178-.233-.339-.434-.427A.702.702 0 0 0 16.66 0zm-2.643.26a.364.364 0 0 1 .2.051c.463.228.92.473 1.36.737l.109.067c.247.159.482.34.715.522.11.086.192.216.284.328.038.048.012.092-.024.125-.024.024-.058.039-.087.056-.031.021-.072.04-.06.086.01.04.055.05.091.057.053.01.11.008.159-.014.168-.07.31.048.418.166.028.031.04.093.093.074.055-.021.063-.081.058-.137-.012-.151-.05-.297-.084-.444-.09-.377-.27-.718-.418-1.073-.053-.127-.11-.254-.163-.382-.029-.07.01-.132.048-.182.031-.04.081-.005.122.014.152.068.238.19.312.332.08.15.178.29.262.436.144.255.322.495.437.762.168.388.382.758.483 1.176.086.37.208.732.252 1.114.016.144-.01.283.007.422.033.279-.007.543-.123.797-.03.07-.021.137.012.21.252.532.461 1.082.67 1.634.027.072.015.101-.06.123-.482.141-.965.288-1.447.434-.07.022-.092.003-.113-.06a47.98 47.98 0 0 1-.353-.967c-.024-.067-.053-.104-.128-.087-.088.022-.136-.017-.175-.096-.062-.127-.113-.28-.216-.36-.103-.08-.266-.082-.403-.115-.103-.027-.207-.058-.312-.075a1.428 1.428 0 0 1-.612-.273 13.46 13.46 0 0 0-.934-.627c-.104-.007-.202-.036-.303-.06-.278-.057-.554-.117-.833-.17-.067-.012-.08-.063-.084-.108-.007-.056.007-.11.065-.144.089-.053.19-.063.29-.08.445-.07.893-.122 1.345-.13.11-.002.209.04.312.066a.18.18 0 0 0 .166-.03c.216-.143.434-.28.65-.422.034-.021.096-.036.07-.093a.084.084 0 0 0-.015-.022c-.012-.01-.026-.012-.043-.012l-.05.002h-.007a1.16 1.16 0 0 0-.668.2c-.08.05-.26.019-.31-.056-.34-.516-.823-.888-1.282-1.289-.204-.177-.403-.362-.619-.526-.055-.04-.08-.143-.043-.196.048-.072.11-.041.168-.015.185.082.362.176.528.293.564.404 1.17.744 1.772 1.085.017.01.034.02.05.027.092.03.14-.01.125-.106a.267.267 0 0 0-.062-.134c-.488-.574-1.001-1.124-1.506-1.683-.105-.116-.23-.216-.348-.32a.854.854 0 0 1-.22-.278.16.16 0 0 1 .023-.19c.041-.045.077-.055.137-.024.17.082.332.178.483.293.266.202.535.403.804.605l.807.603c.021.017.043.033.062.05.05.046.094.094.142.142l.029.029c.019.019.036.045.06.06.055.033.112.062.17.004.02-.019.029-.036.031-.055 0-.007.003-.014 0-.021 0-.003 0-.008-.002-.01a.171.171 0 0 0-.043-.072l-.18-.187a4.549 4.549 0 0 0-.313-.298c-.348-.29-.705-.571-1.065-.845-.183-.14-.397-.233-.596-.348-.072-.04-.12-.101-.173-.159a.144.144 0 0 1-.024-.15c.022-.054.075-.051.12-.056zM8.252 1.649a.046.046 0 0 1 .029.005c.048.027.03.077.03.135.013.06-.026.11-.08.16a18.75 18.75 0 0 1-1.076.922c-.147.118-.327.173-.49.262-.034.017-.053 0-.072-.024-.12-.153-.238-.31-.358-.463-.045-.055.017-.053.046-.065.254-.091.504-.194.756-.295.365-.144.696-.35 1.04-.533.036-.02.07-.043.105-.063.024-.01.044-.037.07-.041zm-2.648.83h.03a.223.223 0 0 1 .133.064c.072.067.13.144.18.228.173.28.413.506.646.737.163.163.329.321.502.47.057.05.067.127.098.192.012.024.002.043-.02.055-.011.008-.023.013-.03.02-.142.12-.276.103-.442.019a3.182 3.182 0 0 1-.864-.646c-.01-.01-.02-.017-.03-.024-.114-.086-.12-.081-.17.05-.052.135-.086.274-.146.404-.022.045.012.094.046.127.038.039.064.099.134.089.031-.005.048-.022.055-.055.017-.08.039-.159.06-.257.262.22.553.391.84.583l-.278.159c-.713.4-1.428.801-2.139 1.205-.058.031-.082.038-.106-.034-.273-.847-.561-1.69-.79-2.552-.052-.199-.074-.408-.112-.612-.012-.06.028-.091.067-.113.053-.026.055.036.074.06.377.521.634 1.11.941 1.669.092.168.195.331.293.497.02.03.034.057.082.04.053-.019.043-.052.034-.09-.039-.174-.128-.33-.193-.493a.18.18 0 0 1 .003-.16c.137-.284.329-.531.48-.803.14-.247.317-.468.451-.717a.207.207 0 0 1 .171-.112zm1.803.492c.014.003.024.016.036.042.12.27.202.555.302.83.01.027.012.049-.017.066l-.256.158c-.008.005-.017.007-.046.02-.007-.013-.017-.034-.031-.051l-.54-.62c-.024-.028-.048-.055 0-.081.177-.101.312-.264.499-.35.024-.011.04-.018.053-.014zm1.929.486a.204.204 0 0 1 .14.046.21.21 0 0 1 .08.218.557.557 0 0 1-.161.29 5.527 5.527 0 0 0-.882 1.093c-.228.36-.453.718-.624 1.11a.768.768 0 0 1-.146.206c-.24.273-.526.485-.855.638a.17.17 0 0 0-.108.159c-.005.06-.024.117-.029.177a.48.48 0 0 1-.19.382c-.04.031-.045.082-.06.125l-.273.915c0 .007 0 .014-.002.019 0 .014.002.031-.017.038-.041.01-.077-.002-.113-.021a41.391 41.391 0 0 1-1.33-.334c-.055-.012-.108-.029-.166-.036-.088-.012-.096-.053-.055-.12.058-.28.125-.56.298-.797.038-.053.036-.096.002-.154-.19-.317-.333-.658-.492-.989-.026-.055-.017-.08.034-.11A574.281 574.281 0 0 0 6.97 4.705c.045-.03.089-.012.132-.022.151-.034.298-.08.43-.163.01-.007.026-.012.03-.022.097-.213.31-.285.49-.37.411-.187.826-.36 1.189-.633a.18.18 0 0 1 .095-.04zm11.443 3.772v.005h.002c-.021.255-.043.497-.062.74l-.043.534c-.005.065-.024.106-.094.13a620.593 620.593 0 0 0-3.37 1.17.295.295 0 0 1-.039.009c-.036.005-.055-.012-.08-.055-.218-.394-.439-.785-.662-1.177-.029-.05-.038-.077.034-.096l4.254-1.246c.014-.005.031-.007.06-.014zm-.41.386c-.154.003-.293.147-.286.293.007.137.124.257.254.252.137-.002.27-.153.267-.302-.005-.166-.082-.245-.236-.243zm-16.83.87c.01 0 .024.002.039.007L5.513 9c.645.171 1.291.34 1.937.51.062.017.082.036.06.1l-.278.913c-.01.036-.017.074-.058.074-.005 0-.012 0-.02-.002l-1.036-.142c-.226-.03-.45-.062-.675-.093-.67-.096-1.344-.188-2.019-.279a.512.512 0 0 1-.036-.007c-.043-.012-.058-.038-.05-.098.052-.476.103-.951.153-1.429.003-.012.003-.021.005-.031.002-.005.005-.01.005-.014.007-.015.021-.02.038-.02zm8.136.103l.113.002c.197.01.389.086.569.166.08.036.159.07.238.108l.057.029c.058.028.118.057.173.09l.113.066c.036.024.075.045.108.072a1.94 1.94 0 0 1 .207.165c.218.202.372.44.463.72.065.202.113.409.13.617.016.202-.044.399-.096.593-.008.03-.02.037-.03.034-.014-.005-.021-.022-.033-.036l-.216-.25a2.105 2.105 0 0 0-1.042-.684 4.159 4.159 0 0 0-.994-.153c-.266-.008-.538.04-.804.09-.211.042-.423.075-.631.114-.137.024-.262.086-.387.141-.06.027-.12.053-.18.076l-.02.004c-.376.132-.695.36-1.024.57-.09.06-.165.14-.243.218l-.01.009-.064.064c-.151.147-.3.296-.464.43-.074.103-.175.175-.268.266.024-.17.07-.328.146-.472.08-.152.168-.296.262-.435.048-.07.096-.14.146-.206a7.169 7.169 0 0 1 .315-.396c.081-.097.163-.192.247-.289.084-.096.168-.19.25-.285a.917.917 0 0 1 .115-.099l.026-.03c.078-.067.147-.137.238-.21l.012-.01.067-.062c.24-.228.519-.406.797-.583.028-.019.057-.035.086-.051a3.24 3.24 0 0 1 .111-.048.15.15 0 0 1 .029-.012 2.53 2.53 0 0 1 .173-.064l.117-.036c.14-.041.279-.075.416-.118.254-.082.518-.118.782-.115zm-7.57.449c-.071.004-.153-.003-.215.057a.462.462 0 0 0 .012.665.286.286 0 0 0 .379 0c.146-.127.183-.314.096-.535-.053-.137-.125-.187-.271-.187zm15.846.062c.011 0 .022.002.032.004-.016.008-.032.016-.05.027.051.072.123.087.205.08l.014-.001.03.036.029.022-.05.002c-.06 0-.177-.007-.215.049a.237.237 0 0 0-.039.122.334.334 0 0 0-.026-.106c-.065-.113-.214-.007-.274-.084l-.043.017c-.01.04-.05.08-.094.075-.004.05-.012.127-.012.192.003.052.01.1.027.127.053.072.254.036.326.036.063 0 .092-.077.099-.156a.28.28 0 0 0 .017.077c0 .003.002.005.004.008.004.012.003.008 0 0 .033.076.108.064.154.064.096 0 .226.024.257-.068.007-.02.013-.112.014-.194l.074.08-.002.02h-.005v.003c0 .132.048.147.113.147l.051-.002a.065.065 0 0 1 .014.023.023.023 0 0 1-.002.022.041.041 0 0 1-.015.014l-.003.005h-.004a.214.214 0 0 0-.058.007c-.096.027-.084.077-.084.17 0 .068-.021.176.034.226.021.02.057.028.096.03l.012.016c.007.012.014.024.014.036.023.03.034.059.04.088-.035 0-.071.002-.092.02-.03.024-.03.087-.036.122l-.015.065-.007.031c.033.013.073.028.113.04 0 .006-.002.01-.003.016-.002.012-.004.017-.014.021l-.007.003a.116.116 0 0 1-.029-.005l-.01-.003a9.767 9.767 0 0 1-.252-.076c-.007 0-.012-.005-.019-.007-.007 0-.012-.008-.019-.008a.284.284 0 0 1-.118-.019.348.348 0 0 0-.05-.016c.101-.034.21.01.324.033-.007-.015-.01-.029-.015-.043-.012-.058-.007-.116-.007-.173 0-.082-.09-.096-.177-.096-.046 0-.092.005-.125.007-.113.007-.144.118-.127.223a.304.304 0 0 0 .01.046.24.24 0 0 0-.064.024v-.048c.025-.053 0-.108-.004-.154-.01-.077-.05-.1-.11-.103-.046 0-.106.012-.159.02-.13.02-.132.088-.156.189 0 .029.007.06.007.091 0-.011.002-.024.004-.037a.065.065 0 0 0 .013.037v.002c0 .073-.01.116.06.135a.305.305 0 0 0 .086.007c.06 0 .125-.01.164-.017a.114.114 0 0 0 .054-.028c.04.036.094.049.143.064.244.08.453.23.679.349.053.028.062.09.058.15l-.004.023a.245.245 0 0 0-.023-.01v-.003h-.002l-.003-.002c-.005 0-.012-.003-.019-.003l-.038-.002-.056-.002-.01.007a.405.405 0 0 1-.14.067c-.013.063 0 .154.002.197 0 .06-.01.12.047.154.033.019.093.02.152.017a.108.108 0 0 1-.01.036.299.299 0 0 0-.146.019c-.077.043-.036.139-.034.21.004.107 0 .144.025.168a.681.681 0 0 0-.022.051c-.008.012-.012.017-.02.041a3.225 3.225 0 0 1-.047.11c-.012-.066-.044-.117-.12-.112-.178.014-.294-.053-.298.158-.005.195-.012.264.204.264h.083a.157.157 0 0 1-.033.05c-.004.017-.01.033-.015.05l-.021-.001c-.026 0-.038-.022-.04-.041v-.01c-.111-.01-.226-.005-.234.115-.002.022-.002.05-.002.082 0 .07.007.154.034.195a.106.106 0 0 0 .062.043c.007-.01.017-.012.031-.012h.004l-.006.012c-.007.012-.012.012-.017.036l-.015.036c-.025.017-.039.05-.043.106l-.055.135c.004-.056.033-.175.003-.222-.024-.031-.068-.036-.111-.036-.034 0-.067.005-.091.005-.027 0-.067-.007-.106-.007-.038 0-.077.004-.098.026-.048.048-.022.187-.022.247-.01.036-.019.048-.026.048-.02-.002-.034-.091-.034-.127v-.002c0-.135-.002-.183-.144-.188-.031 0-.065-.004-.1-.004-.078 0-.152.014-.176.09-.022.073-.014.282.055.327.137.084.35-.065.502.007.067 0 .217.027.285-.002l-.014.036-.01.047c-.012-.011-.032-.02-.064-.025-.082-.012-.247-.027-.29.05-.027.043-.02.29.019.339.039.049.144.047.236.041l-.012.041c-.07-.005-.147-.007-.186.018-.062.044-.036.11-.034.18.003.063-.033.169.02.217.021.02.062.024.103.019l-.013.057c-.091-.021-.12.02-.12.147 0 .061-.016.23.033.247l-.015.07c-.04.18-.063.363-.087.545-.014-.041-.042-.051-.113-.053-.115-.003-.269-.043-.295.091-.012.06-.022.219.005.276.043.09.261.088.355.017l-.012.096c-.081.005-.16.013-.24 0-.146-.022-.098.154-.103.24-.01.209.086.166.26.18a.757.757 0 0 0 .033-.055 2.02 2.02 0 0 1-.027.125c-.04.168-.136.324-.213.48-.072.146-.118.302-.207.444l-.007.014a.164.164 0 0 0-.012.032c-.002.005-.002.012-.005.016l-.007.034a.182.182 0 0 0-.003.036c0 .012 0 .024-.002.036v.036c0 .024 0 .048-.002.072-.02.257-.053.514-.041.773.002.048-.012.075-.058.091l-.057.022-.068.029c.005-.088.022-.186.024-.228-.057.017-.086.072-.098.137 0 .04 0 .08.002.12l-.033.014-.048.018c-.003-.079-.003-.157-.003-.236a.127.127 0 0 0-.074-.034c-.082-.012-.24-.024-.29.043-.039.05-.058.288-.012.343.01.013.022.02.036.026a.72.72 0 0 1-.157.058l-.014.009a.087.087 0 0 0-.02-.001c-.071.004-.254-.036-.314.016-.024.021-.032.087-.033.154l-.052.023c.005-.051.013-.103-.006-.136-.04-.07-.211-.062-.295-.057l-.005-.005c-.034.033-.057-.003-.074-.01 0 0 0-.002-.003 0 0 0 0 .003-.002.003-.05.079-.06.268-.036.36.002.01.006.018.009.026l-.175.075-.06.026c-.088-.01-.195-.015-.242.053a.124.124 0 0 0-.019.06l-.046.02a.268.268 0 0 0 .002-.048v-.006-.004.001c-.019-.087-.092-.071-.168-.071-.06 0-.19-.027-.237.026-.045.047-.048.183-.022.287-.007.004-.015.008-.022.01-.012.008-.029.015-.044.021.001-.003.003-.005.003-.008s.003-.005.003-.01a.686.686 0 0 0 .014-.137c.003-.093-.021-.192-.105-.19-.065.003-.13.003-.197.003a.043.043 0 0 1-.031.014h-.063c.023.077.043.208.083.31-.07-.053-.078-.142-.104-.216-.027-.072-.048-.151-.072-.223-.005-.024-.017-.02-.017-.034-.024-.033-.024-.065-.036-.098l-.003-.017c-.007-.005-.007-.012-.01-.02l-.007-.016h.005c-.033-.1-.07-.2-.093-.3-.024-.067-.068-.132-.08-.202a.172.172 0 0 1 0-.07l.008-.033.004-.017c.02-.048.05-.093.075-.139.017-.038.031-.077.048-.115.017-.039.031-.067.048-.115.038-.072.062-.157.11-.24 0-.02.015-.039.02-.058.043-.147.09-.295.148-.437 0-.005-.004-.012-.002-.017.017-.086.098-.118.146-.168v.002c.024-.007.036-.021.048-.021.015-.024.03-.034.044-.048.026-.031.05-.065.074-.099a.593.593 0 0 0 .034-.05c.045-.067.086-.137.136-.204.017-.022.032-.055.058-.055.005 0 .007 0 .012.002.038.01.027.055.022.084a.638.638 0 0 0-.01.065c-.098.118-.234.347-.271.384.036.106.012.197.156.18.05-.006.103-.016.156-.01.01.025.017.05.022.075h-.228c-.065 0-.08.058-.08.122 0 .044.005.085.005.116v.012l-.002.055c.002.07.024.096.125.103.05.002.21.029.259-.012l.01-.01c.027.062.053.123.076.184v.001a.483.483 0 0 0 .01.224c.014.038.04.06.074.077l.01-.003c.007 0 .014 0 .022-.002h.009l.052.08-.016.001c-.024 0-.048.003-.072.005-.005 0-.01-.002-.017-.005a.08.08 0 0 0-.052.027c-.046.055-.015.213-.013.276 0 .024.005.043.008.057a.112.112 0 0 1 .031.044c.026.016.067.014.13.014.076 0 .177.02.242-.031l.016-.016c.013.012.026.023.049-.008-.007-.024-.012-.024-.02-.024a.449.449 0 0 1-.03-.08c-.005-.016-.013-.035-.015-.05a.382.382 0 0 1-.012-.05c-.002-.008-.002-.017-.005-.024a.29.29 0 0 0-.01-.048l-.011-.075-.013-.074c-.007-.007-.007-.017-.007-.027a.135.135 0 0 0-.01-.028c-.002-.03-.007-.058-.011-.087l-.022-.173c-.002-.028-.012-.057-.014-.086a3.634 3.634 0 0 1 .036-.941h.014c.029-.144.058-.31.086-.466l.024.002c-.005.153.003.305.021.456a5.361 5.361 0 0 1-.018.092v.082a.131.131 0 0 1 .007-.041c.065.045-.024.156.012.22a.073.073 0 0 0 .029.032c.012.007.024.01.036.012l.002-.003.008-.005.027.075a.044.044 0 0 1-.04-.012c-.062.012-.079.094-.079.178.005.064.015.132.022.165.026.113.184.09.3.08l.01.012c.01.01.018.023.027.035-.08.02-.16-.002-.239-.002-.01 0-.014.005-.016.005l.016.002c-.132.005-.103.135-.1.23.002.145-.013.188.136.193.082.002.224.029.276-.053.046-.074-.001-.193.015-.289l.048.046c-.007.085-.031.243.029.284.04.029.271.026.312.012.103-.038.077-.115.079-.216 0-.08.038-.204-.077-.204-.07 0-.14.012-.206-.02.012.087.021.173.033.274a3.373 3.373 0 0 0-.1-.096c-.012-.01-.021-.02-.031-.03a3.754 3.754 0 0 1-.013-.102c-.005-.043-.012-.086-.016-.134 0 0-.013-.007-.013-.012 0-.036-.004-.072-.01-.108l-.04-.33c0-.009 0-.016.002-.026 0-.01.003-.026.003-.026a2.707 2.707 0 0 1-.02-.415l-.002-.017a.094.094 0 0 1-.007-.034c-.02-.113-.01-.225.005-.336.005-.033.002-.07.005-.103 0-.007-.003-.012-.003-.02 0-.158.007-.319.055-.472l.003-.017c.012-.072.024-.158.036-.238.012-.079.024-.16.033-.24.005-.033.015-.05.034-.05.01 0 .024.005.04.017l.051.03.075.049c.024.017.048.034.07.055.002.003.004.005.009.007a.116.116 0 0 0 .017.012h.005v-.002a.66.66 0 0 1 .14.095c-.006.029-.012.057-.016.087a.799.799 0 0 0 .005.17c.017.034.044.058.09.056.07-.002.14 0 .21 0a.27.27 0 0 1 .043.072.313.313 0 0 0-.09-.012c-.2-.005-.236 0-.253.194-.017.18-.002.221.166.226h.089c.141-.002.158-.024.158-.197v-.1a1.082 1.082 0 0 1 .053.097c-.007.048-.009.096.01.128a.113.113 0 0 0 .057.044v.002c.003.01.008.005.01.028a.252.252 0 0 1 .032.059c-.072.013-.102.05-.104.167-.003.063-.024.197.029.238.07.053.312.019.384-.003.01.003.014.003.021.003l-.002-.022a.04.04 0 0 1-.01.017c0-.017.003-.04.005-.065a4.175 4.175 0 0 1-.02-.3.097.097 0 0 0-.042-.038c-.012.086.036.172.007.261-.043-.01-.07-.048-.091-.096-.024-.057-.041-.127-.07-.168h-.002a.159.159 0 0 1 .005-.053h.007c0-.024-.007-.023-.007-.035-.024-.157-.044-.31-.108-.454-.003-.012-.003-.039-.003-.039-.057-.144-.086-.29-.17-.417a.104.104 0 0 1-.036-.063c-.027-.024-.041-.053-.056-.081l-.038-.063v.017c0-.002-.005-.005-.005-.007v-.003c-.065-.098-.144-.19-.22-.278l-.01-.01c-.01-.01-.02-.01-.03-.033-.057-.024-.112-.096-.17-.147-.007-.007-.014-.01-.019-.017-.005-.004 0-.01-.024-.016-.12-.082-.209-.183-.314-.255-.02-.024-.044-.01-.053-.048.31-.02.61.017.922.036v-.012h.002c.122.019.237.042.348.08a1.21 1.21 0 0 0-.141-.027l-.072-.003c-.027.09-.044.267-.005.358.029.067.08.072.149.077.06.005.201.026.244-.024.046-.058.01-.144.013-.216-.008-.005-.012-.012-.015-.024a.685.685 0 0 1-.009-.08l.086.031a.13.13 0 0 0 .005.027.038.038 0 0 1-.01.034c-.007.086-.012.2.05.24.053.036.286.034.337-.007.064-.05.052-.252.036-.324-.022-.101-.104-.08-.195-.077-.002.002-.002.005-.005.007.041.05.188.207.096.219-.023.002-.082-.04-.112-.056.005-.02-.014-.038-.027-.055-.036-.05-.07-.1-.108-.151-.007-.012-.02-.024-.02-.036-.071-.07-.126-.149-.189-.219-.019-.019-.04-.04-.06-.064a1.161 1.161 0 0 1-.209-.171c-.012-.007-.024-.022-.036-.022-.031 0-.065-.033-.096-.055-.031-.021-.065-.04-.096-.062-.012-.007-.024-.012-.036-.02-.146-.055-.293-.105-.44-.16-.004 0-.013-.003-.013-.005 0 0-.013 0-.017-.002a.11.11 0 0 1-.072-.03.079.079 0 0 1-.027-.035l-.005-.012a.136.136 0 0 1-.007-.063.968.968 0 0 0-.012-.22c-.002-.022-.007-.041-.012-.063a2.181 2.181 0 0 0-.014-.06l-.015-.062a2.24 2.24 0 0 0-.024-.09s-.01-.002-.01-.009c-.023-.146-.08-.293-.124-.437-.007-.019-.01-.033-.017-.057a.369.369 0 0 1-.058-.169c0-.019 0-.036.003-.055l.002-.026c.005-.026.01-.055.02-.082.009-.036.021-.072.033-.108 0-.005 0-.017.003-.017h-.003c.031-.17.099-.314.147-.468 0-.002.004-.002.004-.004l.01-.01c.002-.003.005-.002.005-.005a.265.265 0 0 0 .053-.185.326.326 0 0 0-.027-.103c-.017-.043-.038-.084-.06-.127-.002-.005-.01-.01-.014-.012a1.196 1.196 0 0 1-.214-.362l-.017-.04c-.004-.004-.004-.009-.007-.016l-.002-.007a.113.113 0 0 1-.007-.017l.002.003c0-.003 0-.003-.002-.005a.276.276 0 0 1 .012-.044c.004-.01.01-.016.014-.026.005-.007.012-.014.02-.022l.009-.007c.065-.093.125-.192.197-.283a.26.26 0 0 0 .05-.252c-.04-.137-.036-.14.1-.19.025-.01.315-.12.433-.156l.074-.029.02-.007.055-.021c.151-.058.303-.113.454-.169.005-.002.012-.002.016-.002.111-.056.228-.096.344-.135-.06.06-.127.101-.2.13v.115c0 .003.008.003.008.005a.176.176 0 0 0 .036.039.034.034 0 0 0 .01.007 2.593 2.593 0 0 1 .136-.005c.077 0 .151 0 .228.002.041-.07.017-.204.02-.276h-.1v-.063c.006-.002.013-.005.02-.006.025-.02.097-.036.12-.055.12-.039.217-.094.325-.118a.287.287 0 0 1 .166-.067zM16.55 19.411l.002.013a.048.048 0 0 0-.002-.013zm2.362-9.866c-.048.012-.103.019-.156.024-.038.014-.08.028-.118.043-.045.017-.09.036-.136.055-.003 0-.003.007-.005.007.081.024.163.022.247.022.002 0 .002-.005.005-.005l.012-.002h-.012c.1-.005.14-.024.163-.07zM14.52 9.7a.821.821 0 0 1 .23.036c.004.002.009.002.014.005.259.079.523.141.77.259.041.019.084.038.113.077.16.115.307.247.43.405.19.245.38.492.557.773-.011-.003-.022-.008-.034-.013v-.001a1.018 1.018 0 0 1-.185-.103 6.452 6.452 0 0 0-.674-.356 1.467 1.467 0 0 0-.331-.1 3.307 3.307 0 0 0-.91-.041c-.084.007-.17 0-.255 0-.062 0-.091-.03-.091-.092 0-.235.012-.472-.06-.7-.015-.048.014-.068.055-.082.123-.042.246-.068.372-.067zm3.825.024a2.48 2.48 0 0 0-.187.064.67.67 0 0 1-.127.058c.014.062.024.127.026.192.003.02-.007.031-.019.036.007.065.043.082.11.091.068.01.253.02.298-.036.034-.043.02-.223.017-.276-.005-.079-.024-.127-.118-.13zm.284.016c-.039.002-.075.01-.094.034-.038.046-.014.178-.012.228.01.125.02.156.147.16.052.003.156.02.206-.006.094-.048.067-.195.063-.284-.005-.146-.07-.127-.205-.13-.027 0-.067-.003-.105-.002zm.987.003c-.05.003-.094.02-.118.077-.029.07-.048.283.021.331.058.038.317.036.36-.017.041-.048.02-.187.017-.24 0-.089-.004-.16-.12-.151-.051.005-.109-.004-.16 0zm.648.009h-.041c-.159.008-.26-.036-.267.15-.01.191-.01.259.193.254.055.002.17.029.213-.02.039-.043.027-.19.024-.244-.008-.108-.03-.136-.112-.14h.004-.014zm-1.16.01a.556.556 0 0 0-.089.007.133.133 0 0 0-.019.089c.027-.027.02-.034.055-.024.01-.026.036-.048.053-.072zm.003.002c-.017.024-.046.046-.056.072-.033-.01-.028-.002-.055.024.005.159-.048.3.144.305.099.003.25.036.276-.084.017-.07-.017-.151-.017-.22 0-.041.005-.073-.004-.092a1.85 1.85 0 0 1-.116-.005l-.04.024c.014-.007.016-.016.021-.024a1.632 1.632 0 0 0-.153 0zm-1.158.11c-.112.07-.177.02-.141.202a.333.333 0 0 1 .002.085c.034 0 .067 0 .101-.003a.086.086 0 0 1 .067-.04.269.269 0 0 0 .01-.051c-.007-.007-.01-.015-.012-.027a1.317 1.317 0 0 0-.024-.165zm.295.328a.42.42 0 0 0-.134.026l.018-.003a.176.176 0 0 0-.042.012l-.012.008a.107.107 0 0 1-.038.047c0 .003-.003.005-.003.005-.028.075-.021.192-.03.267-.025.113.069.077.14.077v.005c.097 0 .289.038.291-.094 0 .007.017.005.017-.003-.002-.014.015-.03.012-.045-.005-.06.031-.23-.038-.26-.026-.03-.102-.044-.18-.041zm.487.02c-.164.002-.203.057-.203.26v.003c0 .158.053.168.2.168h.04v-.005c.096 0 .166-.01.175-.142.005-.048.01-.096.01-.134 0-.084-.026-.142-.144-.15a1.144 1.144 0 0 0-.078 0zm.5 0c-.187 0-.225-.013-.235.183-.002.03-.002.06-.002.082 0 .1.026.149.165.154.147.004.25.036.26-.128.002-.028.007-.084.007-.132a.218.218 0 0 0-.017-.093c-.038-.06-.11-.041-.178-.065zm-1.33.018c-.036.002-.074.002-.11.002-.05.125-.168.233-.252.341 0 .02 0 .038-.003.058.108.014.243-.008.344 0 .091.004.079-.202.079-.257 0-.024.01-.053.01-.08a.085.085 0 0 1-.068-.064zm-6.13.232c.422-.014.81.106 1.166.325a2.032 2.032 0 0 1 .363.284l.014.013a2.153 2.153 0 0 1 .321.411c.08.13.058.271.031.413-.072.406-.316.706-.592.987-.265.268-.596.444-.903.648-.435.29-.932.403-1.438.477-.632.094-1.273.104-1.906.188-.23.029-.464.048-.694.089a1.07 1.07 0 0 0-.68.41c-.062.084-.1.187-.16.303a.193.193 0 0 1-.01-.036.527.527 0 0 1 .036-.358 1.12 1.12 0 0 1 .533-.54c.415-.219.879-.262 1.323-.375.36-.091.73-.144 1.087-.242a7.234 7.234 0 0 0 1.426-.55c.24-.125.49-.252.656-.485a.73.73 0 0 0 .12-.557c-.005-.034-.015-.05-.027-.053-.012-.002-.028.007-.05.027-.18.16-.367.314-.571.448-.32.207-.673.332-1.038.42-.58.145-1.166.267-1.764.31a4.84 4.84 0 0 0-1.239.243c-.34.117-.687.235-.96.49-.034.03-.075.057-.13.098l.007-.038-.026.019v-.005c.009-.007.016-.013.024-.017a.599.599 0 0 1 .084-.2l.646-1.022a.285.285 0 0 1 .041-.053c.334-.329.653-.677 1.023-.965.614-.48 1.284-.854 2.055-1.02.187-.04.377-.07.571-.07.221-.002.442-.01.66-.017zm-7.633.023c.013 0 .029.002.048.009l.03.006c.005.018.002.037 0 .055a.024.024 0 0 0 0 .002l-.001.006v.01c.017.077.144.067.209.065.085-.002.13-.068.204-.08l.008.002c.003.047.031.069.076.076.106.018.208-.013.31-.02l.04.008c.012 0 .027.002.039.01.12.015.242.03.363.05-.103.05-.274-.053-.349.04-.053.063-.043.341.034.382.07.036.333.039.367-.043.03-.072-.063-.334.052-.369a.16.16 0 0 1 .02.002c-.024.098-.002.212 0 .314.005.132.08.103.2.099.08-.003.177.024.208-.068.034-.09-.024-.18.041-.276.074.168-.067.344.178.346.06 0 .187.026.237-.012.048-.039.04-.199.045-.264l.034.002h.006c.008.052-.008.102-.006.151 0 .032.025.068.044.099.024.002.045 0 .067-.005l.014-.002a1.173 1.173 0 0 0-.038-.142.285.285 0 0 0-.046-.086.248.248 0 0 0-.025-.013h.004c.005.003.021.005.021.005.048.003.068.03.075.07.038.228.07.456.117.684 0 .017.01.031.008.046l.019.11c.021.11.04.221.062.332 0 .01 0 .03.003.036v.01c.024.143.05.273.074.41v.045a1.717 1.717 0 0 0-.13.161 1.61 1.61 0 0 0-.17.3c-.031.075-.07.151-.1.226l-.006.002c-.024.077-.062.152-.098.224-.003 0-.005.004-.007.01-.005.009-.007.023-.012.03v.003a3.398 3.398 0 0 1-.137.314c-.017.034-.036.068-.055.101-.008.02-.024.039-.024.055-.024.092-.046.183-.092.267a.756.756 0 0 1-.074.226 2.102 2.102 0 0 1-.13.393c-.007.02-.019.036-.019.055l-.002.008c-.003.007-.005.019-.01.028-.002.01-.005.022-.01.032l-.002.01-.038.741.005.002-.032.063-.021-.007v-.022l.038-.73.022-.074-.01.007c-.012.007-.029.012-.036.017.005 0-.02-.012-.02-.022-.038 0-.124-.005-.196-.005v.01c0 .007.007.01-.012.014-.034.068-.024.272.01.344.033.07.134.053.204.053-.01.096-.08.038-.13.055-.08.026-.014.012-.026.065-.017.074-.082.259-.02.333.046.058.305.053.356.027.098-.053.062-.31.035-.417.012-.025.023-.05.037-.075.008-.02.02-.039.029-.058.03.073.092.074.168.074.074.003.213.032.259-.045.029-.05.024-.276.002-.322-.045-.096-.151-.026-.23-.074a2.657 2.657 0 0 0-.066.104c.03-.05.06-.1.091-.147l-.003.007c.127 0 .208.021.21-.125v-.195a.039.039 0 0 1-.014.007c.018-.028.035-.057.053-.083.026-.043.054-.08.078-.123h-.001c.017-.048.043-.055.065-.077.021-.021.033-.043.081-.064 0 .019.005.036.003.052l-.003.01c0 .01-.004.02-.007.029l-.002.01c-.003.007-.003.011-.005.019a.054.054 0 0 0-.002.019c0 .007-.005.012-.003.02l-.003.013h.003c-.021.144-.021.308-.024.459 0 .007-.005.02-.005.024l.005-.002.063.432h-.003c.003 0 .005.03.005.043.024.144.055.29.072.437l.002.017c.003.01.005.016.005.026.024.115.11.195.163.295.039.056.08.12.116.168h.002v.003c.12.105.221.214.355.31.02 0 .039.024.058.024h-.002v.012c.048.004.088.043.139.028.004 0 .007-.003.01-.005a.049.049 0 0 1 .014.017c.005.022-.017.039-.046.05-.05.02-.1-.02-.146-.028h-.007c.014 0 .007.002.01.002.002.11.26.135.34.096.065-.03.072-.105.07-.175-.041-.007-.072-.038-.07-.091 0-.012 0-.022.003-.034-.134-.093-.233-.223-.342-.343-.002-.027-.003-.053-.007-.08h.008v-.002c.048.046.081.092.122.14.007.01.014.019.024.026l.05.055c.034.036.07.07.109.101.038.031.079.065.124.089.02.007.039.024.056.024h-.005c.144.07.269.137.4.206a.15.15 0 0 1 .08.036c.048.144.105.288.091.456.005 0 .01.017.012.03a.066.066 0 0 1-.002.03c.017.14.017.281-.003.42a.044.044 0 0 1-.002.04c-.003.004 0 .006-.002.011h.002c0 .14-.002.279-.038.415-.003.137-.046.27-.06.406 0 .005-.003.01-.005.017-.008.026-.02.058.038.05v-.002c.13-.135.26-.267.38-.418v.01c.002-.048.03-.072.057-.096l.021-.023a.1.1 0 0 1-.038.08.084.084 0 0 1-.033.048c0 .003 0 .003-.003.005.003 0 .003.003.005.003 0 0 .002 0 .002.002.116.031.358.06.41-.012.063-.086.073-.31-.037-.338a.163.163 0 0 1-.048.016l-.075.008a.435.435 0 0 1-.045.001l.144-.196.002-.012c.007-.024.017-.038.029-.045.005-.003.01-.005.014-.005H9.3a.135.135 0 0 1 .05.019.834.834 0 0 1 .077.048c.144.079.307.132.415.269.012.012.027.014.039.038.05.024.096.08.132.132l.038.036c.002.003.005.003.007.005.11.093.16.162.158.244a.488.488 0 0 0-.146-.167c-.002-.003-.005-.003-.007-.005-.046.029-.108.005-.142.048-.036.046-.021.173-.024.226-.01.173.056.144.15.163.009-.002.018-.002.028.005l.016.005a.237.237 0 0 1-.006.012c-.005.012-.012.024-.02.036l-.01.016-.012.021a.633.633 0 0 1-.158.023c0 .019.01.04.01.06 0 .019.002.04 0 .06a.033.033 0 0 1-.007.021c.002.024.002.046.002.055v.005c0 .007 0 .015.003.022 0 .005 0 .007.002.012.002.017.005.038.01.06l.007.048h.04c0-.013.001-.025.003-.035v.001c.026.094.05.19.07.286.012.058.024.115.028.175l.002.018a1.746 1.746 0 0 0-.076-.325h-.062l-.005.017c0 .005-.003.007-.003.007h-.03a6.46 6.46 0 0 0-.006.214c0 .024 0 .048.003.072.016.04.05.045.081.055.033-.005.066-.007.1-.01 0 .031-.006.059-.015.084l-.08.01h-.014c-.022.007-.041.014-.05.026-.02.026-.02.073-.018.12-.018.003-.022.015-.033.022l-.005.004c0-.067.003-.136-.053-.167-.072-.039-.206-.03-.283-.015-.082.017-.086.041-.094.125-.004.055-.028.228.015.271.038.041.188.03.263.028l-.014.046a.156.156 0 0 1-.055.008l-.005-.002h.008l-.028-.002H9.6h-.01c-.06-.004-.114.003-.157.035l-.013-.005c-.005-.002-.01-.002-.012-.004a.025.025 0 0 0-.012-.005l-.027-.012h-.01v-.01h-.002c-.057-.019-.11-.033-.163-.05.174-.007.175-.072.156-.24-.022-.192-.098-.202-.288-.183-.159.015-.14.144-.13.284a.24.24 0 0 0 .01.055.238.238 0 0 0-.06-.01l-.004-.001a.338.338 0 0 0 .001-.05c-.007-.12.036-.26-.108-.285a.71.71 0 0 0-.257.01c-.068.031-.072.122-.067.207a.16.16 0 0 1-.024 0v.002l-.033-.008c0-.04.003-.08 0-.12a.182.182 0 0 0 0-.002c-.003-.023-.002-.014 0 0-.014-.108-.171-.096-.284-.086-.012.014-.03.024-.052.014-.003 0-.005-.002-.008-.004v-.003c.004-.027.004-.058.003-.087.015.01.03.018.043.024.002.003.007.003.01.005.096-.002.208.029.269-.043.043-.05.04-.3.011-.346-.03-.053-.288-.057-.345-.029-.07.035-.065.122-.066.204-.013-.01-.03-.02-.03-.033-.024-.005-.015-.01-.022-.014-.074-.07-.053-.164-.043-.253l.002-.028.008-.056.004-.026c.033-.128.044-.25-.054-.338a.098.098 0 0 0 .069-.032c.043-.048.012-.245.012-.307 0-.127-.276-.103-.353-.077-.082.028-.07.097-.07.168-.01-.018-.014-.025-.036-.033l-.027-.017c-.012-.057-.04-.1-.115-.089l-.022.001c-.04-.029-.076-.06-.112-.094.053-.003.107.001.161.004.127.007.096-.127.096-.216-.002-.113.022-.194-.11-.206-.07-.008-.253-.027-.296.036-.034.047-.029.165-.022.259l-.03-.02-.019-.014c.002-.023.004-.047.004-.07 0-.055-.005-.107-.029-.141-.053-.074-.185-.053-.261-.053h-.061l-.048-.038c-.04-.013-.069-.044-.1-.071a.543.543 0 0 0 .026-.174.425.425 0 0 0-.017-.137c-.033-.086-.113-.07-.199-.07h-.005c-.141 0-.174.01-.205.09-.004-.005-.01-.011-.023-.018-.062-.03-.123-.079-.179-.123.067 0 .124-.001.134-.11.007-.079.043-.307-.077-.307-.07 0-.26-.036-.32.017-.031.028-.034.125-.031.206l-.007-.004-.04-.026c-.002-.085-.025-.159-.114-.157a1.036 1.036 0 0 1-.124-.004 1.36 1.36 0 0 1-.11-.093c.034.006.079.004.14.004.178-.003.188-.048.202-.221.015-.183-.019-.202-.199-.202-.209 0-.223.058-.22.26 0 .018 0 .035.002.05-.002-.006-.004-.01-.005-.017v.02a.895.895 0 0 1-.05-.06c.01-.12.01-.264-.118-.253a.173.173 0 0 1-.056-.003c-.002-.005-.004-.01-.004-.014a.109.109 0 0 1-.003-.026c0-.004.003-.008.004-.011.05.002.116.005.145-.02.046-.039.024-.128.024-.2h-.002c.002-.057.016-.143-.013-.196l.037-.082v-.036s0-.022-.003-.031l-.004-.015-.005-.005a.038.038 0 0 0-.004-.003c.028-.14.015-.328-.123-.316-.188.017-.284-.036-.298.192-.005.06-.029.164.022.21.021.02.05.02.079.018h.005c.033-.002.067-.007.093.015.003.002.007.005.01.01l.033-.026v.001c-.048.056-.12.104-.182.154-.012.012-.034.026-.034.038v-.002h-.007c-.02.024-.045.024-.072.012l-.046-.02.015-.028c.007-.007.012-.02.02-.031-.03-.088-.195-.077-.313-.068a.094.094 0 0 1-.025-.047c.14.01.358.025.342-.123-.01-.084.033-.228-.034-.288-.06-.055-.19-.013-.286-.025.005-.017.01-.034.013-.051.05-.002.1-.006.15 0 .183.016.16-.135.157-.287-.004-.151-.114-.139-.237-.135l.011-.045v-.008c.13.004.222.011.226-.152.002-.075.029-.212-.034-.262-.057-.046-.146-.003-.216-.012a.525.525 0 0 1-.004.012l-.005-.099.002-.079-.005-.086a.316.316 0 0 1 .027.182c.019.01.045.015.089.015.194 0 .146-.169.143-.322-.002-.094-.167-.149-.237-.089-.017.014-.025.037-.03.063-.011-.207-.023-.413-.03-.62-.022-.598-.07-1.193-.053-1.79a.636.636 0 0 0-.074-.315 1.968 1.968 0 0 0-.099-.164.264.264 0 0 1-.048-.237c.036-.14.062-.283.089-.425.009-.05.022-.084.06-.086zm.236.192c-.072.003-.15.014-.193.014a.135.135 0 0 0-.021.074c.007.058-.007.12-.015.178.012.048.027.096.034.144.021.014.05.024.096.024.062.005.2.029.25-.012.06-.046.036-.156.036-.226 0-.067.019-.142-.048-.177a.18.18 0 0 0-.07-.018.609.609 0 0 0-.07 0zm.378.005c-.042 0-.08.01-.1.033-.031.033-.041.137-.041.216 0 .036.002.072.005.091.012.089.06.103.137.103h.036c.21 0 .247-.004.247-.223 0-.086-.002-.154-.089-.185a.627.627 0 0 0-.195-.035zm13.02.005c-.105 0-.216.027-.233.105.05.12.1.24.19.336a1.4 1.4 0 0 1 .09-.032.038.038 0 0 1 .044.017c.036 0 .072 0 .098-.029.063-.07 0-.27.015-.353.003-.021-.097-.045-.203-.044zm.89.004c-.087 0-.139.015-.146.139-.002.038-.005.074-.005.108 0 .106.022.185.16.182.157-.002.263-.002.267-.172 0-.034.003-.065.003-.092 0-.112-.024-.163-.18-.163l-.099-.002zm.548.002c-.185 0-.214.029-.214.214l-.002.077c0 .045.007.09.04.117.05.039.171.017.229.017.144-.002.156-.046.156-.149v-.08c0-.189-.024-.196-.21-.196zm.782.002c-.05.049-.062.303-.026.375.007-.01.022-.012.036-.014.06-.008.12-.003.18-.003.04 0 .125.01.16-.017.01-.007.02-.012.03-.016l.005-.008a.64.64 0 0 0-.015-.072 3.071 3.071 0 0 0-.37-.245zm-1.826 0c-.07-.001-.12.015-.123.12-.002.087-.026.207.024.279a3.022 3.022 0 0 1 .209-.007c.02 0 .031.012.038.026.022.003.041.003.05 0 .087-.014.092-.04.094-.127.003-.06.017-.163-.002-.22-.026-.083-.072-.06-.149-.06-.05 0-.1-.01-.141-.01zm1.44.002c-.127 0-.155.045-.144.205.005.142-.005.226.158.226.161 0 .272.012.279-.169.002-.062.019-.184-.034-.232-.04-.039-.146-.022-.199-.027a.813.813 0 0 0-.06-.003zm-15.634.169c.003.005.003.01.005.014.005.032-.007.065-.021.113a.117.117 0 0 1 0-.086.295.295 0 0 1 .016-.041zm10.715.002a2.232 2.232 0 0 1 .382.024c.218.017.42.058.55.164.093.04.187.09.278.144.22.132.442.269.662.403a.389.389 0 0 1 .118.108l.223.315c.012.016.032.036.015.057a.037.037 0 0 1-.02.014c-.018.004-.034-.002-.05-.011-.098-.056-.2-.108-.298-.164a4.76 4.76 0 0 0-1.085-.432 10.315 10.315 0 0 0-.099-.027c-.107-.031-.208-.061-.323-.076l-.151-.034c-.005.003.004.012.016.024a.064.064 0 0 1 .012.015.138.138 0 0 0 .041.033c.003 0 .014.007.02.01.227.115.612.187.893.317l.057.029c.156.081.298.182.44.29l.268.207c.404.293.65.689.77 1.169.003.014.008.029.01.043l.01.014c.02.03.024.065.017.096.002.008.002.015.005.022-.005.07-.06.04-.092.04a2.504 2.504 0 0 1-.61-.11h-.006c-.05-.016-.117-.04-.165-.054-.211-.075-.41-.163-.615-.238-.252-.089-.448-.261-.662-.413a7.776 7.776 0 0 1-1.001-.816.34.34 0 0 1-.08-.106 4.104 4.104 0 0 1-.062-.153l-.036-.094a1.084 1.084 0 0 0-.024-.06l-.002-.005c-.003-.002-.003-.007-.003-.01v-.002l-.002-.01a.168.168 0 0 1 .007-.122c.002-.005.002-.01.005-.014l.005-.017c.002-.005.002-.01.005-.014l.004-.017.003-.015.002-.017.003-.014.002-.017c0-.005.003-.01.003-.014l.002-.017.002-.014.003-.017c0-.005 0-.01.002-.014 0-.005 0-.012.003-.017v-.267c-.003-.081.026-.113.108-.11.08.002.162-.001.243-.005l.075.004a2.077 2.077 0 0 1 .122-.005zm4.085.29c-.095 0-.21.015-.234.04-.046.045-.015.153-.012.206.004.081-.027.185.081.19.125.004.3.06.33-.099.014-.07.033-.267-.037-.317-.02-.013-.07-.02-.128-.02zm-12.101 0c-.005.003-.01.003-.015.003a.319.319 0 0 1-.067.008c-.014.021-.04.04-.05.067-.02.05.002.11 0 .163v.003a.52.52 0 0 1 0 .01v-.01a.485.485 0 0 0-.003.057l.002-.038c-.003.172.008.173.19.173l-.004-.032c-.01-.081-.027-.247-.053-.403zm.057.435c-.004.039-.028.06-.064.056-.166-.015-.128.175-.125.285.002.204.144.092.283.159l-.094-.5zm11.128-.425a.039.039 0 0 1-.017.01.438.438 0 0 0-.06.02c.065.122.115.246.038.376a.055.055 0 0 0 .003.01c.019 0 .038-.003.057-.005h.007c.007 0 .011.002.016.004.057-.021.076-.045.076-.153 0-.053.026-.185-.012-.23-.022-.027-.065-.031-.108-.031zm.393 0c-.055 0-.112.003-.167.005-.053.044-.049.11-.037.176.024.127-.055.232.118.244.12.008.274.044.298-.093.01-.063.029-.271-.031-.317-.017-.014-.128-.002-.18-.015zm1.372.002c-.05 0-.097.005-.126.054-.03.055-.026.177-.021.237.01.161.146.137.286.13.17-.007.139-.12.139-.271-.003-.168-.07-.147-.226-.15h-.052zm-15.274 0a.349.349 0 0 0-.154.027c.031.055.063.11.094.168.053.058-.01.164.05.214.03.024.135.026.168.012.082-.038.096-.413-.002-.413-.052 0-.104-.007-.156-.008zm.929 0c-.166-.002-.175.054-.175.212 0 .18.026.21.199.211h.046c.163-.002.175-.021.175-.206 0-.197-.05-.214-.245-.216zm14.065 0c-.034.002-.069.018-.105.015-.103-.01-.206-.036-.233.084-.01.048-.029.267.015.307.05.046.261.03.319.017.11-.024.082-.12.082-.22-.008-.056.026-.132-.02-.178a.076.076 0 0 0-.058-.024zm-13.554.003c-.194 0-.204.055-.211.238v.017c-.002.17.077.165.245.168.168.002.178-.058.178-.192v-.06c0-.173-.041-.17-.212-.17zm-.946 0c-.19.001-.218.064-.218.221l-.002.034c.004.19.096.168.266.165.163-.002.154-.052.158-.21v-.034c.003-.152-.035-.175-.204-.176zm1.52.002a.935.935 0 0 0-.103.006c-.118.01-.185-.048-.204.11-.005.046-.017.214.01.257.045.079.215.058.302.045.14-.016.117-.134.115-.252-.005-.13-.035-.163-.12-.166zm13.963.06c-.104.017-.216-.002-.32.013a.093.093 0 0 1-.045-.005c-.017.067.01.187.017.25.016.124.084.103.201.103.082-.012.166.029.197-.067.01-.034.012-.14.014-.178a.2.2 0 0 0-.021-.103.082.082 0 0 1-.043-.012zm-5.353.165c.01.004.02.007.028.008H15c-.012.008-.028.005-.033.02-.004-.02-.002-.027.003-.028zm3.767.236a.37.37 0 0 0-.176.041c-.065.048-.084.349.004.385.05.019.313.04.356-.01.029-.036.012-.13.01-.17-.008-.049.002-.169-.027-.207-.024-.031-.095-.042-.167-.04zm1.395.005c-.067.002-.128.016-.153.041-.05.053-.045.293-.004.348.048.063.28.072.348.039.096-.048.052-.257.05-.346 0-.058-.128-.086-.24-.082zm-.873 0c-.043.002-.088.008-.127.01-.142.006-.147.065-.129.176a3.375 3.375 0 0 0 .009.05c.017.091-.046.168.074.199a.714.714 0 0 0 .276-.01c.075-.038.068-.266.05-.343-.016-.072-.08-.084-.153-.082zm.357.002a.154.154 0 0 0-.09.022c-.068.05-.046.161-.041.23.014.179.072.179.242.179.106 0 .156.01.168-.104.012-.108.056-.35-.112-.321-.044.007-.11-.006-.167-.006zm-1.267.005c-.04-.001-.082.004-.105.006-.142 0-.2 0-.207.15-.007.164-.029.265.154.272.053.002.204.031.245-.007.043-.04.029-.187 0-.23-.031-.051.038-.114.007-.162-.016-.022-.054-.029-.094-.03zm-.451 0c-.005.006-.012.008-.022.01-.021.003-.04.005-.062.005a.086.086 0 0 1-.065.048.152.152 0 0 1-.007.02v.004c.002.118-.024.23-.053.341.108-.005.247.031.283-.08.024-.078.046-.345-.074-.347zm-11.65.003c-.154.003-.18.034-.18.207v.01h-.006c0 .167.024.206.21.208.189.002.206-.024.215-.209.01-.18-.033-.213-.213-.216zm-.942.003c-.182 0-.209.04-.209.194v.05c.005.193.094.178.267.176.137-.003.151-.046.151-.144v-.01l.002-.079c0-.187-.026-.187-.208-.187zm.466 0c-.18.002-.195.045-.195.218-.002.19.01.214.205.214.19 0 .216-.03.216-.216 0-.192-.034-.216-.226-.216zm-.993.013c-.071.002-.137.017-.15.054-.017.043-.007.14-.01.19-.002.028-.011.096 0 .124.031.064.086.072.154.07l.002-.005c.185-.007.243.058.243-.158h.02c0-.096.026-.219-.075-.252a.593.593 0 0 0-.184-.023zm-.313.013l.007.002c-.14-.019-.16.126-.16.26 0 .072-.022.125.035.16.027.017.14.022.168.003.036-.022.058-.118.058-.214 0-.09-.02-.18-.065-.194.007.002.007.005 0 .005V11.7a.25.25 0 0 0-.035-.008l-.008-.002zm11.384.062a.206.206 0 0 0 .012.006l.003.002zm-1.908.178l.002.003c.007.002.014.01.022.024.076.153.182.28.3.398.124.12.259.23.389.348a32.663 32.663 0 0 0 .818.713c.178.151.392.228.62.288.518.132 1.049.183 1.575.255.139.019.264.064.374.156h-.007c.01.007.017.012.024.019-.296-.043-.59-.038-.886-.046-.324-.007-.641.032-.96.068a.986.986 0 0 1-.336-.027c-.308-.07-.598-.194-.889-.317-.329-.139-.602-.353-.862-.588-.019-.02-.038-.036-.057-.055a1.002 1.002 0 0 1-.203-.28l-.002-.005-.002-.006c-.09-.212-.085-.448-.016-.708.019-.07.04-.139.062-.209.007-.022.02-.034.034-.031zm-8.603.198c-.04.002-.082.01-.12.016-.124.019-.134.108-.122.232.005.05.017.145.06.178.05.036.127 0 .183.01.007 0 .016.005.024.005.002-.003.005.002.007.002.005-.012.017-.02.036-.02h.077l.002-.004c.015-.053.043-.113.046-.156a.351.351 0 0 0-.027-.192c-.033-.062-.098-.074-.166-.071zm12.938.004c-.047 0-.093.006-.12.01-.084.009-.105.019-.117.107a1.829 1.829 0 0 0-.008.144c0 .043 0 .084.01.108.02.053.055.06.103.063v-.005c.024 0 .03-.005.044-.005h.007v.005c.096 0 .24.04.269-.084a.76.76 0 0 0 .012-.13c-.005-.084-.022-.17-.08-.199a.318.318 0 0 0-.12-.014zm-12.475 0c-.085 0-.182.014-.208.055-.031.048-.019.187-.017.252.003.067.01.125.092.125.062-.003.223.021.276-.007.062-.036.05-.14.053-.216.002-.085.014-.161-.072-.193a.436.436 0 0 0-.124-.015zm11.873.002c-.032.113-.068.226-.082.341a.262.262 0 0 1 .082.089c.093.007.25.029.295-.043.022-.036.01-.116.01-.157 0-.093.026-.22-.104-.225-.067-.003-.134.012-.201-.005zm-12.924.002a.26.26 0 0 0-.052.005c-.106.022-.087.137-.082.221.007.163-.005.187.158.19.113 0 .229.057.262-.075.027-.11.039-.35-.117-.336-.053.004-.114-.006-.17-.005zm-.29.003c-.089-.003-.134-.003-.149.093-.012.084-.038.29.058.33.086.033.175-.02.19-.1.019-.1.045-.32-.099-.323zm2.17 0c-.065 0-.079.031-.093.081-.01.039-.012.226 0 .265.033.112.204.086.319.079a1.82 1.82 0 0 0 .012-.163c-.014-.087-.031-.176-.046-.262-.064 0-.127.002-.192 0zm-.362.002c-.173 0-.204.029-.214.202l-.002.062c0 .135.038.159.206.159.187 0 .214-.024.214-.211v-.003c.002-.18-.024-.209-.204-.209zm12.462 0c-.168.005-.209-.021-.211.163-.005.183.007.265.206.257.204-.004.214-.05.214-.247 0-.175-.038-.173-.209-.173zm.487 0c-.19 0-.216.029-.22.214-.005.19.028.209.22.206.185-.002.2-.04.202-.218.002-.185-.012-.202-.202-.202zm.56.002h-.091c-.183 0-.21.025-.212.207v.022c0 .12.003.18.14.19.07.004.196.021.25-.03.033-.03.04-.086.04-.141 0-.04-.005-.082-.005-.115-.005-.114-.043-.131-.121-.133zm-1.498.464a.647.647 0 0 0-.159.017c-.105.031-.096.12-.096.218v.005c-.002.17-.005.197.094.194.026 0 .065.015.11-.01h.005c.022 0 .046.006.065.006.065 0 .117-.008.14-.087.014-.055.025-.257-.013-.305-.024-.029-.084-.038-.146-.038zm-12.568.001c-.06 0-.113.017-.132.08-.005.017-.003.041 0 .07-.003.05.007.106.007.14 0 .011-.005.021-.005.03 0 .034 0 .068.027.092.048.046.269.036.326.014.055-.021.067-.06.067-.105 0-.027-.007-.058-.01-.092v-.002c.003-.034.008-.07.008-.106-.002-.06-.022-.105-.103-.105-.054 0-.124-.016-.185-.016zm-.47.002c-.061.003-.117.018-.14.067a.31.31 0 0 0-.022.127c0 .1.025.214.087.235.077.024.302.034.346-.048a.406.406 0 0 0 .024-.156c0-.084-.012-.178-.048-.211h-.082c-.01 0-.02-.003-.024-.007-.024-.002-.051-.005-.079-.006a.65.65 0 0 0-.062 0zm13.962.009c-.204 0-.211.053-.207.25.005.175.07.172.238.172.183 0 .185-.03.183-.208-.003-.185-.024-.214-.214-.214zm-.576 0a.263.263 0 0 0-.072.01c-.075.03-.108.362-.01.4.058.051.343.056.38-.03.021-.046.014-.111.014-.16 0 .051-.002.104-.024.15a.88.88 0 0 0 .005-.336c-.02-.024-.19-.036-.293-.033zm-12.289.002h-.068c-.206.01-.22.058-.216.26.005.18.091.163.257.16.16-.002.166-.028.166-.184 0-.168 0-.23-.139-.236zm-1.614 0c-.094-.001-.105.063-.1.166.002.127-.042.242.112.252.099.007.274.039.303-.077.017-.065.004-.165.007-.233.002-.06.012-.103-.065-.105-.082-.003-.166.019-.211.002a.292.292 0 0 0-.046-.005zm14.962 0c-.13 0-.178.005-.2.137-.007.041-.019.094-.019.144 0 .05.01.099.053.125.053.034.271.036.324.012.048-.024.055-.062.055-.11a.462.462 0 0 1-.002-.058v-.067c0-.183-.012-.183-.211-.183zm-15.248 0a.172.172 0 0 0-.057.015c-.075.033-.06.105-.091.175v.072c.007.123.019.166.15.158.176-.01.116-.192.118-.33.002-.067-.06-.094-.12-.09zm13.395.004c-.047.002-.097.01-.135.01l.002.027c0 .022-.007.041-.021.058.03.115.06.223.093.338.06-.038.127.01.18-.045.05-.058.02-.228.024-.298.005-.083-.065-.094-.143-.09zm-11.1.003a.458.458 0 0 0-.112.013c-.144.036-.104.333-.036.432.002.002.005.005.007.01v-.005a1.52 1.52 0 0 1 .245-.396c.002-.008.002-.017.005-.025l.004-.026-.113-.003zm13.468.039h-.016.016zm-2.412.416c.038.134.074.269.08.41.001.058-.003.12.018.165a.094.094 0 0 0 .063.053c.002-.01.002-.019.002-.03-.002-.013.005-.023.007-.032-.019-.04-.045-.077-.03-.132.009-.039.045-.06.054-.1.01-.044-.007-.095-.007-.135 0-.167-.045-.152-.187-.199zm-12.003.003c-.08-.002-.16.006-.183.028-.055.05-.067.23-.063.295.01.122.022.122.142.122v-.012h.18c.096 0 .108-.084.108-.156 0-.055.04-.209-.007-.247-.02-.017-.099-.028-.177-.03zm12.88.001c-.054 0-.104.007-.126.034-.048.053-.038.252-.019.317.024.076.084.084.151.084.024 0 .046-.003.07-.003h.02c.026 0 .054.005.08.005.03 0 .056-.005.075-.026.039-.039.007-.15.015-.202a.505.505 0 0 0 .002-.058v.01h.005l.002-.005.003-.002v-.01a.11.11 0 0 0 0-.001c.006-.066-.005-.105-.096-.121a1.367 1.367 0 0 0-.183-.022zm-12.432.002l-.06.001a.162.162 0 0 0-.065.016c-.067.036-.045.135-.05.207-.003.062-.024.146.029.194.05.044.141.041.218.053a1.196 1.196 0 0 1 .118-.13l.01-.01.002-.002c.017-.036.031-.074.048-.11v-.002c-.012-.072.002-.205-.075-.205-.041 0-.11-.01-.175-.012zm12.047.008c-.154.002-.24.002-.245.173-.005.199.005.25.211.25.188 0 .212-.03.212-.217 0-.158-.01-.209-.178-.206zM4.43 13.1c-.166 0-.137.094-.137.235 0 .14.01.214.175.185.13-.021.094-.149.091-.261-.002-.118-.007-.159-.13-.159zm.516 0c-.067.002-.235.01-.293.05-.057.039-.036.171-.036.243h.003c0 .072-.022.12.04.156.06.036.281.01.336-.036.077-.065.099-.42-.048-.413zm.375 0c-.188 0-.214.024-.216.211-.003.18.028.21.208.21s.207-.032.207-.21c0-.19-.005-.21-.2-.21zm8.373.01c.065.233.233.396.375.574l.029.038.028.038a.568.568 0 0 0 .106.094l.046.033c.007.005.014.013.021.017a10.082 10.082 0 0 0 .32.243c.072.053.144.103.218.154.11.076.22.15.329.228.149.103.305.19.468.266.04.02.082.036.123.055a4.246 4.246 0 0 0 .379.14l.022.007c.079.021.165.029.249.038.031.002.063.007.091.01a.195.195 0 0 1 .06.024.411.411 0 0 1 .068.05c.074.067.144.163.149.221 0 .01 0 .017-.003.024-.002.005-.002.007-.005.01-.01.017-.024.03-.033.048-.03.05-.06.1-.085.153l-.011.027a.311.311 0 0 0 .002.262c.115-.116.218-.238.293-.377.022-.039.038-.077.055-.118.012-.026.022-.055.031-.084.01-.026.003-.058.01-.084.01-.029-.024-.07-.01-.089 0-.002.003-.002.005-.005a.04.04 0 0 1 .014-.007c.01-.002.02-.005.027-.005.019-.002.036-.005.055-.005.048 0 .094.008.14.022.028.01.019.046.016.072v.005c-.005.086-.04.166-.072.242a.547.547 0 0 1-.024.056c-.053.13-.108.261-.192.374-.118.156-.254.303-.475.31h-.063c-.038 0-.077.01-.115.012-.043 0-.07.019-.086.057-.017.039-.039.072-.058.11-.002.006-.005.01-.007.018a1.535 1.535 0 0 1-.408.569 3.406 3.406 0 0 1-.25.204 1.95 1.95 0 0 1-.468.223l-.036.014a.439.439 0 0 0-.034.015l-.019.007c-.01.002-.022.007-.031.01-.036.014-.065.036-.046.09.02.06.063.078.118.08.012 0 .026 0 .04-.002a.611.611 0 0 0 .15-.034c.048-.017.096-.038.146-.06.034-.014.067-.029.103-.04-.029.122-.045.234-.084.34l-.021.053a6.82 6.82 0 0 1-.09.192 1.967 1.967 0 0 1-.062.125c-.115.23-.245.451-.405.655a1.68 1.68 0 0 1-.104.12 1.691 1.691 0 0 1-.252.221 3.941 3.941 0 0 1-.103.072 4.767 4.767 0 0 1-.209.123 2.785 2.785 0 0 1-.17.084l-.065.028-.053.022-.043.017c-.04.017-.082.03-.123.045-.012.005-.024.01-.038.012a2.675 2.675 0 0 1-.13.041 4.845 4.845 0 0 1-.408.103 3.264 3.264 0 0 1-.163.032l-.02.002c-.054.01-.107.017-.162.026l-.176.025a2.156 2.156 0 0 1-.605-.022 4.265 4.265 0 0 0-.028-.007.68.68 0 0 1-.145-.06c-.062-.034-.12-.07-.182-.101a1.725 1.725 0 0 1-.13-.072c-.055-.034-.11-.068-.16-.106a.632.632 0 0 1-.233-.278 1.796 1.796 0 0 0-.092-.195c-.01-.02-.021-.036-.03-.053a2.718 2.718 0 0 0-.277-.367c-.04-.048-.081-.096-.125-.142-.021-.024-.04-.048-.062-.07a7.068 7.068 0 0 0-.26-.275l-.067-.068a2.787 2.787 0 0 0-.364-.302 2.784 2.784 0 0 0-.243-.156 1.22 1.22 0 0 1-.06-.036l-.06-.039a1.58 1.58 0 0 1-.62-.742.133.133 0 0 0-.01-.02c-.043-.093-.107-.122-.22-.124a.629.629 0 0 1-.252-.048l-.002-.002a.456.456 0 0 1-.132-.084l-.026-.016c-.022-.026-.038-.058-.058-.09a5.297 5.297 0 0 1-.386-.658l.003.008-.006-.013.003.005a3.77 3.77 0 0 0-.073-.196l-.036-.086a.382.382 0 0 1-.014-.154l.007-.031c.002-.005.002-.01.005-.015a.145.145 0 0 1 .012-.029.46.46 0 0 1 .127-.141 1.69 1.69 0 0 1 .067-.05c.046-.034.094-.063.14-.094a3.837 3.837 0 0 1 .218-.123c.271-.14.56-.238.857-.314.017-.005.033-.008.053-.012.033-.008.07-.01.105-.015a1.62 1.62 0 0 1 .106-.005l.106-.002c.016 0 .036 0 .052-.002a17.792 17.792 0 0 0 .9-.063c.18-.017.36-.036.54-.055a3.504 3.504 0 0 0 1.127-.324c.036-.02.074-.036.11-.055l.063-.034c.144-.077.288-.151.427-.233.014-.02.031-.026.055-.033l.01-.003v.012a.06.06 0 0 1-.02.034 3.8 3.8 0 0 0-.021.014c-.14.178-.331.3-.497.449-.017.014-.034.029-.05.046-.053.043-.106.089-.166.137.209 0 .41-.024.598-.08.271-.079.518-.22.73-.437a1.836 1.836 0 0 0 .139-.163c.103-.137.197-.298.278-.482zm-3.265.017a1.244 1.244 0 0 1-.343.108c-.56.139-1.13.22-1.697.326a2.603 2.603 0 0 0-1.105.487c-.019.015-.04.032-.062.044-.026.016-.039.012-.043-.01-.003-.005-.003-.012-.003-.02-.01-.143.034-.213.166-.273.18-.082.36-.168.54-.252.235-.108.487-.142.742-.168.396-.043.792-.094 1.19-.14l.524-.086zm9.018.404c-.024.003-.03.04 0 .047.03.002.038-.039.011-.046a.03.03 0 0 0-.011 0zm-.713.034c-.079-.001-.158.008-.18.027-.085.07-.008.224-.058.315l.1.067c.015.01.032.02.046.031l.015.01.007-.007a.041.041 0 0 1 .057.002c.065-.033.161.024.21-.048.033-.05.026-.322-.018-.365-.021-.02-.1-.031-.179-.032zm-.543 0c-.017 0-.034 0-.048.003-.065.01-.08.041-.094.075-.007.019-.01.04-.014.062a.07.07 0 0 0-.003.022c.14.05.279.103.42.153.003 0 .005.003.01.003-.002-.13.036-.262-.115-.295a1.013 1.013 0 0 0-.156-.022zm-13.392.005c-.05-.002-.1 0-.134.018-.077.043-.038.146-.038.216.002.168-.005.194.175.196.091 0 .19.022.228-.074.038-.096.055-.353-.091-.348-.037.001-.089-.006-.14-.008zm-.411.003c-.041.003-.072.022-.09.077-.024.07-.034.288.026.338.084.07.221.008.235-.086.017-.098.044-.3-.086-.322a.813.813 0 0 0-.039-.005.078.078 0 0 0-.011-.002l.009.001a.24.24 0 0 0-.044-.001zm1.309 0c-.063.003-.102.026-.112.125-.02.187-.034.266.165.293.17.02.24.038.248-.151.004-.161.016-.255-.161-.26-.055-.001-.102-.008-.14-.006zm-.417.003c-.183.002-.18.055-.18.218 0 .175.012.202.163.206h.11c.118-.002.147-.021.147-.175 0-.194-.039-.252-.24-.25zm13.91 0c-.084-.001-.167.008-.19.098-.036.14-.031.315.132.331.057.005.197.015.247-.019.075-.05.039-.14.043-.211a.972.972 0 0 0 .002-.054v-.013.012c-.001-.098-.028-.142-.15-.142l-.083-.002zm-13.02.003a.237.237 0 0 0-.086.011.066.066 0 0 0-.029.039c-.026.064-.005.182-.002.237 0 .002-.004.003-.005.004.003.067.02.105.067.121 0-.026.012-.046.02-.07l.002-.014c.029-.1.07-.197.125-.281-.082.014-.161.005-.159.132 0-.01.005-.022.005-.029l.004.024h-.004c0 .048 0 .096.02.142l-.013-.017a.36.36 0 0 1-.012-.175c.027-.082.096-.07.161-.087.007-.012.017-.024.026-.036a2.207 2.207 0 0 0-.12-.001zm13.078.467a.636.636 0 0 0-.167.015c-.141.038-.026.141-.083.225l.021.027a.528.528 0 0 1 .118.04.163.163 0 0 1 .093.128c.063-.003.142.019.18-.032.03-.04.024-.321-.01-.36-.024-.028-.087-.04-.152-.043zm-13.517.01c-.092 0-.168.018-.168.137.024.17.029.28.209.288-.002 0-.005-.003-.007-.005l.014-.003c.038 0 .072.005.1.003.04-.002.068-.01.087-.031.024-.027.034-.067.036-.14L6 14.246c-.002-.122-.02-.182-.173-.187l-.096-.002zm-.473.001c-.09.003-.146.029-.153.174-.01.182-.008.245.187.25.05.002.163.021.204-.02.048-.045.024-.167.024-.225.002-.094.031-.183-.096-.178-.046.002-.088 0-.125 0h-.04zm13.47.001v.003c.063.067.137.117.212.17.021-.144-.003-.173-.149-.173zm-13.885.007c-.216 0-.197.05-.211.236-.003.021-.005.04-.005.06.002.125.055.134.218.132.154-.003.2-.03.197-.166v-.024c-.01-.18-.02-.235-.209-.235h.01zm7.972.306c-.008 0-.017 0-.026.002-.038.01-.036.05-.036.079.003.1.007.202.02.302.011.11.047.219.112.308a.842.842 0 0 0 .51.333c.155.036.155.039.17.2.007.07.016.132.081.17.113.067.226.137.363.147.084.007.17.012.242.067a.583.583 0 0 0 .32.098c.084.007.17.01.254.024.067.012.113-.01.16-.05.239-.197.474-.396.697-.617-.026-.029-.065-.039-.118-.012a6.251 6.251 0 0 0-.415.223.314.314 0 0 1-.113.048 4.032 4.032 0 0 1-.722.074.68.68 0 0 1-.368-.13c-.067-.042-.134-.105-.146-.2.036-.013.07.002.103.006.127.017.252.063.382.056.312-.02.605-.113.898-.214l.283-.103c.043-.015.055-.029.017-.07-.046-.05-.096-.04-.147-.033a5.625 5.625 0 0 1-1.87-.046c-.18-.034-.372-.046-.442-.269-.019-.06-.038-.12-.05-.182a.37.37 0 0 0-.094-.17.094.094 0 0 0-.065-.04zm-.573.065c-.048 0-.08.05-.103.093-.06.103-.137.197-.207.293-.108.146-.26.177-.418.153a17.985 17.985 0 0 0-1.718-.18c-.03-.002-.058-.01-.082.01-.183.134-.367.264-.483.468.007.002.015.007.02.007.019-.002.036-.007.055-.01.297-.074.607-.098.922-.072.398.034.792.113 1.188.169.053.007.106.01.156.036.12.062.18.172.226.29.07.18.09.372.103.564.01.151-.022.279-.144.38a.556.556 0 0 0-.2.278c.154 0 .286.026.387.156.063.082.144.149.223.218a.379.379 0 0 0 .586-.081c.058-.094.113-.19.175-.281.087-.127.17-.264.325-.32.093-.03.052-.076.021-.115-.062-.079-.178-.081-.28-.019-.16.096-.267.238-.382.375-.034.04-.068.081-.113.115-.058.04-.108.043-.159-.01-.057-.057-.115-.117-.177-.168-.053-.043-.063-.081-.032-.144a.728.728 0 0 0 .082-.413c-.029-.312-.08-.619-.3-.866-.024-.027-.024-.041.01-.065a.94.94 0 0 0 .408-.701c.007-.074-.007-.135-.067-.156a.075.075 0 0 0-.022-.004zm4.461.035c.205 0 .387.08.566.183-.005 0-.007 0-.012.002l.031.017c-.271.04-.54.06-.811.03-.084-.009-.168-.025-.255-.023-.17.005-.307-.084-.451-.16h.017c-.012-.008-.024-.013-.036-.02.024.002.05.002.074.005.029.002.055.01.084.014.238.05.468-.02.704-.043a.8.8 0 0 1 .089-.005zm-10.959.052a.268.268 0 0 0-.121.022c-.072.044-.048.166-.046.24.003.197.09.169.262.169h.01a1.662 1.662 0 0 0 .124-.4h-.002a.723.723 0 0 0-.227-.031zm.921 0c-.04.018-.089.008-.115.054-.027.045-.003.146-.005.196-.003.13-.01.157.12.205-.029-.063-.077-.106-.077-.18 0 .07.05.117.077.175.002-.148-.002-.301.017-.45zm11.577.003c-.074 0-.147.009-.169.027-.05.043-.029.108-.024.168a.022.022 0 0 1 .003.012c.002.038 0 .079-.008.117l.12.108c.013.005.024.012.034.017.103-.05.219.036.26-.096.023-.077.028-.285-.046-.331a.45.45 0 0 0-.17-.022zm-13.524.009c-.036 0-.068.01-.089.037-.045.062-.024.338.05.377.051.026.281.033.33-.003.069-.053.03-.261.028-.338-.002-.099-.149-.063-.218-.067-.03-.002-.066-.008-.101-.006zm12.937.003l.317.245v-.048c0-.014.005-.024.012-.031.003-.084-.002-.17-.103-.166-.074.003-.151 0-.226 0zm-12.342.007c-.182 0-.201.024-.206.202 0 .022-.003.039 0 .058.002.132.038.146.204.158.175.012.206-.014.206-.19v-.03c0-.162-.019-.198-.204-.198zm1.357.452c-.113.036-.144.103-.142.218.002.147.029.204.14.219a.165.165 0 0 1 .04-.135l-.038-.302zm12.058.006a.43.43 0 0 0-.146.023c-.115.052-.04.232-.086.336a.176.176 0 0 0 .055.077c.082 0 .288.038.358-.022.064-.058.029-.247.029-.317 0-.074-.11-.097-.21-.097zm-.385.01a.52.52 0 0 0-.043 0l-.054.003c.005.007.012.014.017.024a.216.216 0 0 1 .017.034c.062.072.122.144.175.223v.002c.002.003.005.005.005.008.002-.058.033-.202-.007-.25-.025-.033-.067-.042-.11-.044zm-13.601 0c-.043 0-.08.006-.096.02-.043.038-.023.13-.02.185h-.004c0 .168.002.211.163.216.031 0 .063.005.091.005.087 0 .154-.012.164-.125.014-.154.033-.293-.14-.295h-.026c-.029 0-.084-.005-.132-.005zm14.46.003c-.185 0-.207.04-.207.195v.055c.003.163.055.173.214.173.175 0 .206-.027.206-.202v-.003c0-.187-.024-.218-.213-.218zm-13.896.003c-.18 0-.209.026-.209.208 0 .166.03.199.178.21l.038.002c.192 0 .224-.032.207-.221-.017-.173-.039-.2-.214-.2zm2.706.167a.045.045 0 0 0-.015.003c-.05.02-.098.048-.112.115-.048.223.055.437.278.552.1.053.178.128.226.23.016.037.019.106.072.094.052-.011.01-.076.021-.103.008-.134-.019-.25-.127-.32-.08-.05-.11-.12-.14-.2-.038-.106-.047-.224-.134-.308-.02-.021-.036-.064-.069-.063zm10.73.301c-.058.002-.116.01-.15.012 0 0 0 .002.002.002.084.13.108.281.173.418h-.01c-.007-.003-.01-.003-.01 0 .058 0 .14.017.178-.034.041-.053.017-.2.015-.278-.003-.007-.005-.015-.003-.02.003-.091-.097-.104-.194-.1zm-12.058.002c-.055.01-.117.014-.144.065-.029.053-.01.194-.005.254a.15.15 0 0 0 .024.072.702.702 0 0 0 .159-.007.224.224 0 0 0 .074-.031 3.536 3.536 0 0 0-.045-.271.314.314 0 0 1-.063-.082zm-1.267 0c-.051-.001-.11.01-.147.012-.166.01-.18.02-.17.182.002.046-.017.183.024.219.038.036.132.014.18.014.076 0 .081 0 .06-.002.149-.007.168-.053.16-.233-.002-.04.013-.137-.028-.17-.02-.016-.047-.021-.079-.022zm.842.007c-.202 0-.22.106-.201.293.014.156.124.13.261.127.06 0 .113.01.15-.04.035-.053.02-.18.018-.24-.01-.125-.067-.14-.163-.14zm11.653.041a.324.324 0 0 0-.21.223l-.006.015-.021.149c.076-.005.228.021.293-.046-.008-.062-.012-.125-.008-.185a.844.844 0 0 1 .012-.062c0-.017 0-.032.005-.046 0-.026-.012-.048-.048-.046l-.017-.002zm-8.056.002c-.11.027-.236.053-.353.106-.082.039-.087.084-.015.14.043.033.087.05.14.03a.466.466 0 0 1 .494.097.509.509 0 0 0 .523.086c.106-.036.197-.096.293-.149a.319.319 0 0 1 .113-.04c.144-.015.288-.034.43-.053.038-.005.098.01.108-.036.01-.048-.046-.077-.08-.109-.016-.016-.045-.019-.069-.026a.82.82 0 0 0-.437-.014 2.092 2.092 0 0 1-.888 0c-.08-.02-.163-.02-.26-.032zm-4.983.37l-.004.005c0 .002-.002 0-.002 0h-.002l.008-.005zm12.8.031c-.051.159-.058.315-.056.478.154-.072.353.065.363-.158.002-.031.012-.101.012-.161a.166.166 0 0 0-.012-.077c-.027-.048-.08-.036-.13-.036-.06-.024-.132.022-.178-.046zm-12.362.032c-.03 0-.061 0-.091.002-.159.005-.152.204-.15.317.003.125.037.106.133.106.096-.003.226.026.269-.065a.464.464 0 0 0 .038-.226c-.025-.108-.108-.13-.199-.134zm.473.014c-.18 0-.197.02-.197.2 0 .134-.01.199.134.21.068.005.193.025.245-.012.05-.035.041-.143.046-.203v-.027c-.002-.149-.07-.168-.228-.168zm.485.002c-.161 0-.219.003-.214.176.005.182.02.24.209.24.192 0 .218-.031.214-.223l-.001-.031a.338.338 0 0 0-.014-.092c-.021-.01-.033-.029-.04-.05-.032-.017-.08-.02-.154-.02zm.566.046a.396.396 0 0 1-.09.026c-.07.012-.142.01-.212.01a.984.984 0 0 0 0 .24c.02.094.089.084.173.087.12.004.259.024.271-.135-.04-.079-.103-.146-.142-.228zm11.927.024c.06.12.096.25.096.403.082-.062.087-.21.067-.307-.014-.091-.072-.096-.16-.096zm-2.018.37h.015c.006.001.011.003.015.007.005.005.01.01.012.014l.008.005c.043.034-.007.11-.02.168-.03.168-.057.334-.086.502-.007.048-.012.098-.048.166l-.007-.043-.012.024a5.305 5.305 0 0 1-.075-.706c-.002-.053.034-.065.068-.077.042-.015.093-.055.13-.06zm-9.65.005c-.09.05-.139.355-.047.427.036.029.125.014.168.014.103 0 .223.017.242-.115-.13-.087-.234-.208-.348-.313a.048.048 0 0 0 .005.003l-.016-.014zm10.526.005c-.01.158-.041.324-.003.48.012-.116.295.021.355-.09.032-.057.017-.198.015-.26-.003-.078-.01-.119-.104-.109a.614.614 0 0 1-.263-.021zm-11.416.008c-.049 0-.096.006-.122.03-.056.05-.02.185-.017.25.002.09-.007.13.089.148.064.012.168.01.232 0 .123-.019.092-.115.092-.223 0-.134 0-.192-.144-.197-.032 0-.081-.008-.13-.008zm-.403.008c-.135 0-.23-.014-.221.14.002.038.02.079.02.117 0 .024-.02.075-.013.096.031.099.197.072.286.067.158-.004.125-.086.13-.22.007-.18-.017-.2-.202-.2zm12.447 0c-.177 0-.201.032-.201.21v.002c0 .184.017.208.204.208.185 0 .209-.04.209-.196v-.05c-.003-.167-.053-.174-.212-.174zm.867 0c-.057-.004-.089.02-.108.058.002.103.01.206.022.31l.005-.008c.007-.012.014-.021.019-.033a2.818 2.818 0 0 0 .175-.324c-.036 0-.074 0-.113-.003zm-12.356.003c-.197-.003-.212.045-.224.24-.01.168.046.18.204.18.159 0 .214-.012.216-.178.003-.19 0-.242-.196-.242zm1.255.216a.075.075 0 0 1-.026.021c.04.099.115.15.225.152a.243.243 0 0 1-.232-.147.034.034 0 0 1-.017.005c0 .07.007.14.072.168.055.024.17.02.257.005l-.015-.022c-.014-.002-.026-.002-.04-.005.007 0 .021.003.038.003a.441.441 0 0 1-.036-.065l-.226-.116zm9.87.25c-.09.023-.178.006-.267.006v.106c0 .106-.002.214.022.32.12 0 .319.057.343-.097.005-.036.012-.096.012-.151 0-.091-.024-.185-.11-.185zm-9.66.003c-.055.001-.11.008-.14.008-.135.003-.106.077-.106.183.002.088-.038.199.063.235.052.02.242.019.295-.003.084-.033.057-.122.048-.201.002-.027.01-.06.01-.094v-.002a.04.04 0 0 1 0-.024c0-.007 0-.015-.003-.022-.017-.024-.036-.045-.055-.07a.222.222 0 0 0-.06-.01.59.59 0 0 0-.053 0zm-.592.006c-.085-.002-.132.02-.139.144-.007.151-.026.271.147.28.148.008.264.027.273-.14.012-.188.012-.26-.182-.277-.037-.003-.07-.006-.099-.007zm-.476.001c-.067 0-.121.009-.143.09-.017.067-.02.254.034.307.05.05.223.039.29.03.118-.018.103-.104.094-.21.019-.25 0-.213-.204-.216l-.071-.001zm-.405.004c-.187 0-.213.024-.213.21-.003.205.045.212.245.21.165-.003.175-.055.175-.212 0-.177-.029-.208-.207-.208zm11.921.001c-.09.002-.153.028-.155.162v.017c0 .19.024.242.228.242a3.1 3.1 0 0 0 .194-.362c-.01-.046-.043-.05-.083-.05-.066 0-.13-.01-.184-.009zm-12.294.002h-.04a.762.762 0 0 0-.06.006c-.187 0-.216.022-.223.207v.028c-.002.164.043.178.226.176.182-.003.194-.043.197-.219v-.026c0-.118-.014-.166-.1-.172zm11.878.006c-.188 0-.216.015-.216.204-.003.192.033.209.225.209.178 0 .195-.034.195-.209.002-.192-.012-.204-.204-.204zm-4.7.384h-.016a.08.08 0 0 0-.023.01c-.19.105-.404.11-.613.137-.088.012-.199-.015-.264.05-.158.156-.293.091-.432-.02-.007-.004-.014-.011-.024-.014-.206-.11-.413-.15-.624-.004a.337.337 0 0 1-.267.067c-.074-.02-.131-.014-.19.038-.028.027-.066.048-.1.07-.094.062-.094.072-.007.142.02.016.043.024.067.03.2.06.387.018.562-.078.182-.099.353-.094.518.03.152.114.312.116.48.046a2.97 2.97 0 0 1 .653-.213c.034-.005.068-.017.099.01.096.088.187.026.279-.01.036-.015.04-.044.038-.08-.007-.076-.065-.12-.098-.18-.011-.018-.024-.029-.038-.031zm-5.847.07c-.158 0-.218.017-.218.16v.037c.01.185.024.233.211.235.05 0 .156.02.192-.024.017-.017.02-.062.02-.108.002-.034 0-.07 0-.094v-.019l.002-.038c.002-.137-.058-.15-.207-.15zm1.113 0c.009 0 .02.006.032.017.039.036.075.074.113.11l.015.015c.019.016.021.038.012.06a78.012 78.012 0 0 1-.224.448l-.024-.007c0-.005.003-.007.003-.012.048-.197.029-.4.055-.6.002-.02.009-.03.018-.03zm9.448.012c-.134.01-.228-.017-.23.137-.003.062-.017.153 0 .213.021.075.057.065.136.068.128.004.272.05.281-.11.008-.104.032-.313-.11-.306h-.077zm-11.535.002c-.18.003-.21.041-.195.219.015.173.063.192.233.201.156.008.2-.038.187-.194-.017-.183-.04-.228-.225-.226zm.424 0c-.11.003-.139.027-.141.168-.005.195-.012.262.2.265.05 0 .16.021.198-.03.034-.045.012-.182.017-.235.02-.185-.033-.165-.201-.168zm10.477 0l.06.442c.101-.046.247.034.284-.098.021-.087.04-.346-.087-.344zm1.03 0c-.098 0-.146.01-.149.135 0 .122-.045.317.132.269.02-.135-.002-.279.063-.401a.307.307 0 0 0-.046-.003zm-10.164.01a.1.1 0 0 0-.049.067c-.002.01-.004.02-.004.031v.017c-.003.039.002.077.002.108 0 .053.002.108.031.156.019.032.05.047.062.08H8.54v.002c-.094.025-.072.086-.072.173 0 .043-.024.12-.015.18.005.036.02.065.056.077h.002c.01-.039.012-.058.01-.063.01-.077.019-.209.026-.29l.003-.07a.058.058 0 0 0 .009-.04c0-.003 0-.006-.002-.008 0-.005 0-.01.002-.012a1.577 1.577 0 0 0 .01-.346.09.09 0 0 1-.067-.062zm-.405 0c-.034.002-.066.01-.088.036-.033.04-.033.163-.036.214-.014.204.106.16.277.156.153-.005.146-.022.146-.173 0-.185-.003-.23-.2-.23-.03 0-.065-.005-.1-.003zm7.796.002a6.689 6.689 0 0 0-.134.406v.002c.065 0 .204.027.262-.016.055-.044.036-.137.036-.2h.004c0-.096.003-.148-.036-.177-.007-.005-.012-.015-.021-.015zm-6.462.452c-.027.098-.08.415.055.432.072.01.223.024.295-.003.094-.038.026-.098.072-.163-.108-.137-.269-.19-.413-.266zm8.753.004c-.046 0-.092.008-.113.027-.07.058-.024.19-.024.266v.007a.307.307 0 0 0 0 .001c-.017.169.184.143.307.132.137-.012.106-.11.106-.23 0-.123.014-.186-.12-.193-.034-.002-.096-.01-.156-.01zm-2.293.01c-.05 0-.101.004-.151 0a25.686 25.686 0 0 1-.116.25c.02.062.008.13.073.165.048.027.213.017.261.008.175-.034.08-.228.125-.365a.187.187 0 0 1-.02-.039l-.02-.005-.002-.001a.55.55 0 0 0-.15-.014zm-8.228 0c-.128.002-.165.028-.167.19-.003.19.01.228.204.225.177-.002.216-.016.218-.199-.002-.175-.017-.213-.194-.216h-.061zm8.772 0h-.04l-.05.002c-.204 0-.228.044-.224.245.003.101 0 .159.108.173.11.017.325.041.317-.117-.002-.068.024-.202-.014-.257-.023-.035-.059-.045-.097-.046zm-8.248 0c-.197 0-.19.034-.2.211-.002.036-.011.08-.014.118-.002.034.005.065.03.086.042.041.165.022.218.02.163-.005.175-.068.175-.2v-.057c0-.173-.039-.178-.209-.178zm10.38.007c-.088.005-.107.423.046.416.024-.11.02-.226.022-.339-.007-.038-.017-.08-.067-.077zm-5.845.09c-.238.006-.48.045-.703.122-.185.062-.392.105-.488.319-.055.125-.048.257-.086.382.017.098.017.197.074.28.017.025.024.063.065.06.043-.002.058-.038.07-.067.043-.09.053-.194.081-.29.046-.156.118-.281.281-.35.17-.073.343-.14.516-.207a.184.184 0 0 1 .101-.012c.214.031.437.021.627.146a.079.079 0 0 0 .062.012c.072-.017.08-.04.036-.098a.723.723 0 0 0-.636-.298zm-2.833.194c.005.127.007.13.135.134a.472.472 0 0 0-.072-.082.1.1 0 0 1-.056-.048c-.002-.002-.005-.005-.007-.005zm5.892.176c-.062.002-.12.029-.137.09-.017.055-.027.279.019.327.048.048.262.03.32.016.107-.024.078-.12.078-.218-.007-.05.027-.127-.016-.17-.048-.049-.099.004-.154-.022a.253.253 0 0 0-.11-.023zm-7.599.004c-.177 0-.209.031-.209.21 0 .157.01.215.173.217l.053.002c.156 0 .2-.021.2-.206a.544.544 0 0 1-.003-.053v.053c0-.187-.027-.223-.214-.223zm9.12 0a.531.531 0 0 0-.225.05c.024.135.029.276.098.401.072-.034.152-.017.226-.02.072-.002.086-.035.098-.098.01-.05.022-.22-.002-.269-.023-.05-.106-.067-.195-.064zm-.901.007l-.047.002h-.012c-.177 0-.22.003-.22.183 0 .194.002.237.199.24.065 0 .113.002.146-.007a.082.082 0 0 1 .065-.065.361.361 0 0 0 .012-.1c0-.051.02-.167-.014-.21-.03-.04-.08-.044-.13-.043zm1.322 0c-.059-.002-.117.001-.152.055-.033.053-.016.17-.012.23.01.125.06.137.164.14h.048c.108 0 .192.026.209-.094a.722.722 0 0 0-.003-.26c-.034-.09-.118-.069-.197-.069-.018 0-.038 0-.057-.002zm-8.612.002c-.144-.002-.187.022-.187.204h.005c0 .192.031.219.223.219.178 0 .202-.031.202-.207.002-.16 0-.213-.17-.216zm.63 0c-.032 0-.067.006-.094.008-.185.004-.267-.032-.267.182 0 .194.036.233.233.233h.031c.144 0 .18-.007.183-.173 0-.031.01-.091.01-.14a.164.164 0 0 0-.015-.074c-.018-.027-.048-.035-.08-.036zm-.887.017c-.115.14-.24.271-.367.401.094 0 .305.043.372-.034.05-.06.022-.254.015-.357-.008 0-.012-.005-.02-.01zm1.65.34l.014.018c.094.117.187.218.25.336.151.29.374.502.662.655.135.072.256.172.414.191h.003l.018-.001c.017 0 .04-.002.036.024-.002.014-.017.014-.031.012h-.007a.03.03 0 0 1-.015-.002c-.167.004-.33.032-.493.067l-.255.057a7.872 7.872 0 0 1-.229.05.093.093 0 0 0-.014.005.037.037 0 0 0-.003 0c-.033.008-.048.025-.043.058.005.041.02.063.067.072.086.016.175.019.262.017h.012a2.505 2.505 0 0 0 .353-.034 2.423 2.423 0 0 1 .394-.03c.127 0 .254.009.384.028-.43.07-.785.312-1.174.475-.202.084-.358.245-.55.349-.014.016-.022.043-.036.06-.031.038-.036.117-.087.11h-.004c-.005 0-.01.002-.015 0a.623.623 0 0 1-.266-.086c-.03-.02-.022-.056-.022-.09v-.453c0-.031.012-.067-.019-.089-.106-.067-.08-.182-.106-.278-.01-.039.017-.058.039-.082l.278-.31c.063-.067.089-.141.043-.223-.086-.163-.072-.32-.002-.485.055-.13.091-.266.142-.42zm5.354.11a.508.508 0 0 0-.178.013c-.039.027-.046.08-.046.137l.003.09a.439.439 0 0 1-.008.08c.003.003.003.01.005.013a.847.847 0 0 0 .026.084c.003.005.003-.005.003.019h.084c.014 0 .026 0 .031.01.096.004.2.019.257-.032.024-.021.038-.108.038-.192s-.012-.168-.036-.192c-.018-.016-.099-.027-.18-.03zm-6.342.002a.169.169 0 0 0-.061.014c-.048.024-.056.08-.058.137 0 .033.005.067.005.096 0 .007-.003.012-.003.016 0 .087.003.142.094.169.05.014.2.026.279 0 .004-.015.016-.022.036-.022h.007c.004 0 .007-.014.01-.02a.118.118 0 0 0 .009-.05c0-.021-.005-.048-.007-.072a.4.4 0 0 0-.005-.053c-.005-.004-.01-.012-.01-.019v-.01c.003-.014.003-.028.003-.043 0-.043-.005-.084-.01-.127h-.072c-.06-.002-.147-.021-.217-.017zm7.253.002c-.06-.001-.117.006-.143.038-.039.048-.024.183-.022.24.007.132.046.144.173.152.091.004.2.03.237-.065.034-.09.048-.358-.084-.356-.038 0-.1-.009-.16-.01zm-7.685.001c-.05-.001-.099.002-.122.023-.062.055-.024.2-.028.269-.01.163.112.139.242.137.113-.003.168-.005.178-.128.012-.144.036-.293-.14-.293-.028 0-.08-.006-.13-.008zm-.479 0c-.045.001-.088.007-.116.028-.028.024-.036.067-.036.11 0 .029.003.06.003.084v.043c0 .132.036.155.162.162l.044.001c.185.003.212-.021.212-.206 0-.137.004-.214-.144-.216-.034-.001-.08-.006-.125-.005zm7.812.012a.703.703 0 0 0-.09.001c-.18.012-.208.027-.208.209 0 .192.038.209.228.209.178-.002.192-.04.195-.214a.365.365 0 0 0-.022-.158.093.093 0 0 1-.043-.036.203.203 0 0 0-.06-.011zm-8.228.008c-.156 0-.21.005-.216.173v.05a.3.3 0 0 0 .017.128c.015.029.036.046.08.053a.787.787 0 0 0 .115.004h.002c.187 0 .202-.04.211-.223v-.033c0-.147-.045-.152-.209-.152zm6.9.044a.048.048 0 0 1 .012.007l.007-.007c.039.021.041.05.05.074.102.247.2.497.3.744.025.055.03.103-.006.149a.502.502 0 0 0-.077.49c.067.206.019.348-.183.449-.045.024-.081.038-.12.036-.028.002-.055-.005-.088-.029-.375-.26-.821-.346-1.242-.495-.06-.021-.117-.043-.18-.057-.072-.017-.067-.065-.057-.115.007-.036.026-.041.045-.039.02-.005.046.01.063.015.48.12.965.216 1.428.396.017.007.031.01.043.012.034-.005.044-.036.039-.082-.01-.108-.02-.214-.144-.271a2.8 2.8 0 0 0-.975-.233 3.174 3.174 0 0 0-.149-.01c.238-.144.5-.22.713-.405a.999.999 0 0 0 .075-.068l.398-.482.048-.08zm-6.004.415c-.045-.002-.089.001-.113.02-.08.054-.026.165-.031.244l-.005.055a.36.36 0 0 0 .004-.035c-.008.179.103.153.277.143.158-.01.13-.057.134-.201.003-.137.005-.21-.144-.217-.03 0-.077-.007-.122-.01zm.615 0c-.022 0-.046.005-.08.005-.067.007-.175-.024-.209.06-.019.045.003.175 0 .228-.007.137.063.139.183.137.079-.003.156.002.202-.032a.875.875 0 0 1-.005-.136c0-.077.004-.152.007-.228v-.005a.171.171 0 0 0-.098-.03zm-.972.007c-.006-.002-.011 0-.018 0-.156.007-.225.002-.242.17-.012.14-.038.26.132.255.13-.002.257.01.274-.137.02-.167.025-.289-.146-.288zm7.036.33c.01.024.02.047.033.066.027.005.053.01.08.017a.083.083 0 0 1 .023-.005c-.088.032-.114.022-.136-.079zm-2.557.38a.07.07 0 0 1 .02 0c.03-.002.054.006.057.054 0 .043.01.081-.06.09a1.753 1.753 0 0 1-.274.023c-.094 0-.185-.01-.278-.032-.05-.012-.07-.045-.065-.086.002-.027.021-.027.04-.027a.103.103 0 0 1 .039.003h.18a.903.903 0 0 0 .082.002 1.14 1.14 0 0 0 .237-.024.278.278 0 0 1 .022-.003zm.036.397a.06.06 0 0 1 .02.005l.844.348a21.588 21.588 0 0 1-.374.305c-.221.177-.44.357-.646.552-.05.048-.089.05-.147.014a9.324 9.324 0 0 0-1.097-.545c-.165-.07-.34-.098-.511-.158.02-.036.055-.036.084-.046.367-.137.742-.259 1.102-.42.094-.043.187-.007.278.005.137.02.27.022.394-.046a.092.092 0 0 1 .053-.015zm-2.161.697c.025.001.052.007.082.018.197.077.38.185.569.274.01 0 .021.002.029.01.004.002.004.004.004.012v.004c0 .003-.002.003-.002.005-.002.003-.005.003-.007.003l-.01-.003a.03.03 0 0 1-.012-.012l-.862-.213c.074-.06.133-.1.209-.098zm8.17.535c-.142-.004-.26.063-.372.15-.029.022-.046.049-.094.017-.105-.072-.206-.052-.295.039a.402.402 0 0 0-.103.187c-.125.504-.252 1.006-.372 1.513-.041.168.048.254.223.228.158-.024.238-.115.264-.32.026-.196.053-.39.11-.595.15.187.29.363.433.538.139.17.29.322.494.413.144.065.269.026.382-.075a.186.186 0 0 0 .055-.206.157.157 0 0 0-.158-.125.246.246 0 0 1-.152-.07 2.274 2.274 0 0 1-.362-.396c-.09-.12-.094-.12.026-.201.252-.173.341-.418.322-.711-.014-.219-.132-.346-.339-.38a.454.454 0 0 0-.062-.006zm-10.733.03c-.04 0-.077.02-.097.075-.019.05-.053.043-.091.039a.75.75 0 0 0-.665.218c-.38.37-.574.814-.552 1.354.014.358.22.53.569.451.689-.16 1.224-.835 1.253-1.582.007-.192-.168-.47-.34-.538a.214.214 0 0 0-.077-.016zm-1.93.058a.943.943 0 0 0-.613.238c-.346.302-.547.694-.646 1.138a.641.641 0 0 0 .075.482c.07.118.158.161.292.135a3.12 3.12 0 0 0 .87-.305.866.866 0 0 0 .225-.168.291.291 0 0 0 .084-.204c0-.075-.033-.1-.103-.103-.07-.003-.13.024-.192.045-.207.075-.408.166-.622.221-.105.026-.141.002-.163-.106a.301.301 0 0 1 .005-.122c.04-.168.098-.331.187-.483a.82.82 0 0 1 .245-.283c.14-.089.283-.137.442-.04.052.03.103.016.15-.013a.353.353 0 0 0 .15-.201c.016-.05.002-.09-.044-.116a.772.772 0 0 0-.343-.115zm9.2.07a.692.692 0 0 0-.517.206c-.156.161-.183.324-.084.526.074.151.177.28.278.415.072.094.149.188.216.286.048.07.024.125-.058.151a.199.199 0 0 1-.139-.005 1.075 1.075 0 0 1-.374-.23.243.243 0 0 1-.082-.125c-.012-.074-.053-.108-.125-.115-.081-.007-.156-.007-.204.08-.08.138-.057.263.087.393.276.245.605.353.933.38.3.004.485-.267.387-.522-.043-.115-.118-.216-.19-.314-.12-.159-.245-.312-.357-.476-.09-.124-.048-.216.098-.264.135-.043.25-.004.36.08.13.1.24.048.269-.116.017-.086-.029-.144-.089-.194a.679.679 0 0 0-.41-.156zm1.905.06a2.89 2.89 0 0 0-.41.017c-.164.019-.32.064-.38.247-.002.01-.014.024-.024.026-.187.048-.252.202-.302.358-.106.346-.2.696-.298 1.042-.024.084.01.14.08.182.054.034.11.032.172.015.324-.08.648-.166.987-.142a.26.26 0 0 0 .127-.029.242.242 0 0 0 .118-.24c-.015-.09-.087-.117-.164-.13a1.49 1.49 0 0 0-.177-.016 3.855 3.855 0 0 0-.62.053c.031-.228.048-.243.264-.243.161 0 .322-.01.473-.072.101-.043.166-.113.176-.225.007-.077-.025-.123-.104-.125a1.665 1.665 0 0 0-.19.002c-.146.012-.292.027-.453.041.024-.053.036-.1.062-.137.044-.062-.007-.178.084-.209.075-.024.164-.007.245-.01.214-.004.427-.007.634-.074.077-.026.146-.06.192-.13.07-.107.043-.18-.082-.184-.136-.006-.273-.015-.41-.017zm-6.664.008c-.071-.003-.13.042-.185.093a3.951 3.951 0 0 0-.392.434l-.367.456c-.02.024-.04.07-.08.05-.03-.014-.018-.054-.014-.086.01-.11.024-.218.036-.329.015-.144.034-.288.01-.432-.031-.172-.156-.22-.295-.113a.837.837 0 0 0-.094.092 3.166 3.166 0 0 0-.298.413c-.225.348-.432.71-.703 1.027-.05.06-.103.118-.149.183-.048.072-.067.153-.022.23.041.067.11.091.188.087.081-.005.125-.065.168-.123l.626-.852c.012-.015.017-.043.053-.034a1.716 1.716 0 0 0-.012.11c-.01.137-.038.274-.01.414.034.158.16.223.306.15a.902.902 0 0 0 .204-.15 3.67 3.67 0 0 0 .33-.363c.114-.144.229-.29.349-.447.036.12.022.229.017.337-.012.187-.048.374-.012.564.024.117.091.187.187.194a.44.44 0 0 0 .279-.07c.124-.079.136-.237.019-.343a.19.19 0 0 1-.063-.112c-.026-.13-.004-.257.017-.385.039-.244.115-.484.103-.737-.004-.098-.019-.19-.12-.237a.19.19 0 0 0-.076-.02zm8.04.189c.117-.01.175.065.141.177a.387.387 0 0 1-.07.132 1.19 1.19 0 0 1-.496.353c.024-.156.05-.295.11-.425.062-.134.163-.223.315-.237zm-6.651.02a.292.292 0 0 1 .15.035c.076.043.098.146.045.233a.676.676 0 0 1-.185.185 1.47 1.47 0 0 1-.483.242c.07-.216.128-.415.245-.586a.286.286 0 0 1 .228-.108zm1.652.092a.526.526 0 0 1 .161.034c.113.046.151.101.149.27a1.257 1.257 0 0 1-.425.818.562.562 0 0 1-.324.137c-.147.012-.262-.082-.247-.228.028-.322.115-.625.33-.877a.435.435 0 0 1 .356-.154zm-5.88.003c.054.002.11.014.164.036.11.043.149.098.144.262a1.244 1.244 0 0 1-.422.818.581.581 0 0 1-.325.14c-.15.012-.266-.082-.252-.233.03-.315.116-.612.325-.86a.442.442 0 0 1 .366-.163z"/></svg>