<svg role="img" viewBox="0 0 24 24" xmlns="http://www.w3.org/2000/svg"><title>company bike</title><path d="M14.64 8.86q.111.096.22.194l.117.104c.696.655 1.167 1.612 1.2 2.575.012.701-.075 1.318-.383 1.957l-.06.128c-.463.928-1.303 1.583-2.258 1.95a5.982 5.994 0 0 1-.44.124l-.115.031c-1.147.268-2.36-.03-3.344-.64-.899-.639-1.508-1.556-1.711-2.64a4 4 0 0 1-.033-.627l.001-.136c.017-1.017.442-1.946 1.136-2.686 1.547-1.455 3.968-1.65 5.67-.333M11.964 0h.134c2.509.01 5.009.771 7.015 2.31l.081.06c.417.316.805.654 1.18 1.017l.075.071c.328.317.627.646.908 1.006l.11.136c1.308 1.649 2.11 3.641 2.414 5.718l.016.112c.165 1.165.122 2.383-.063 3.541l-.022.14c-.346 2.073-1.282 4.025-2.642 5.62l-.089.105c-.566.649-1.177 1.264-1.875 1.77l-.187.139c-1.855 1.362-4.193 2.194-6.497 2.249l-.111.003c-3.102.07-6.19-.97-8.463-3.122a7 7 0 0 0-.307-.27c-.865-.756-1.538-1.756-2.103-2.747l-.052-.09c-.709-1.24-1.13-2.623-1.35-4.03l-.017-.102c-.189-1.194-.142-2.506.063-3.692l.022-.131c.217-1.24.659-2.411 1.24-3.523l.057-.11a10 10 0 0 1 1.374-1.97 17.789 17.824 0 0 0 .14-.16c.47-.547.984-1.073 1.561-1.506l.085-.066A11.86 11.86 0 0 1 11.964 0M10.28 4.136l-.12.03c-1.526.39-2.797 1.099-3.947 2.171l-.102.093C4.7 7.769 3.88 9.794 3.82 11.724c-.033 2.16.72 4.147 2.206 5.713l.07.076c1.472 1.561 3.535 2.423 5.667 2.51a8.3 8.3 0 0 0 2.723-.385l.109-.034a7.8 7.8 0 0 0 2.415-1.277l.128-.097c1.724-1.349 2.732-3.298 3.026-5.448a6 6 0 0 0 .025-.403l.007-.171c.054-1.809-.543-3.67-1.69-5.074l-.06-.076a8.6 8.6 0 0 0-1.576-1.517l-.079-.06c-1.203-.891-2.807-1.485-4.314-1.495h-.104c-1.055-.014-1.055-.014-2.093.15"/></svg>