<svg viewBox="0 0 24 24" xmlns="http://www.w3.org/2000/svg"><title>ComproPago icon</title><path d="M18.952 7.467c-.649-.648-1.62-.648-2.268 0l-.162.16-.972.974-7.446 7.453-1.625 1.62c-.484.485-1.291.81-2.109.81-.807 0-1.614-.324-2.26-.97-.645-.65-.97-1.459-.97-2.27s.323-1.62.968-2.266l9.556-9.56c-1.297-1.297-3.242-1.297-4.538 0l-7.128 7.29c-2.431 2.431-2.431 6.481 0 9.073 2.43 2.432 6.481 2.432 9.073 0L19.118 9.737c.484-.65.484-1.62-.162-2.27z"/><path d="M22.03 4.225c-2.432-2.429-6.481-2.429-9.073 0L3.079 14.27c-.646.65-.646 1.62 0 2.27.656.648 1.625.648 2.27 0l.162-.16.979-.975 7.452-7.453 1.445-1.458.162-.162c.484-.486 1.295-.81 2.105-.81s1.62.323 2.269.973c.65.656.971 1.463.971 2.27s-.323 1.625-.971 2.27l-9.56 9.556c1.296 1.302 3.24 1.302 4.537 0l7.292-7.285c2.432-2.593 2.432-6.477-.162-9.07z"/></svg>
