<svg role="img" viewBox="0 0 24 24" xmlns="http://www.w3.org/2000/svg"><title>Comsol</title><path d="M15.54 11.131a.63.63 0 0 0-.139.387h.297a.33.33 0 0 1 .148-.27.468.468 0 0 1 .236-.08h1.555a.131.131 0 0 0 0-.263h-1.59a.635.635 0 0 0-.508.226m4.721-.225h-.897s-1.07-.057-1.07 1.094c0 1.15 1.07 1.094 1.07 1.094h.898s1.07.056 1.07-1.094c0-1.048-.887-1.095-1.046-1.095h-.024M18.581 12s-.066-.832.807-.832h.85c.871 0 .805.832.805.832s.066.831-.806.831h-.85c-.873 0-.807-.83-.807-.83m-8.494-1.095H9.19S8.12 10.85 8.12 12c0 1.15 1.07 1.094 1.07 1.094h.898s1.07.056 1.07-1.094c0-1.048-.888-1.095-1.046-1.095h-.024M8.407 12s-.067-.832.805-.832h.85c.873 0 .807.832.807.832s.066.831-.807.831h-.85c-.872 0-.806-.83-.806-.83m-3.31 0c0 1.15 1.07 1.093 1.07 1.093h1.45a.131.131 0 0 0 0-.263v.001H6.188c-.872 0-.806-.832-.806-.832s-.066-.832.806-.832h1.426a.131.131 0 0 0 0-.263H6.141c-.159 0-1.047.047-1.047 1.095m-2.607-1.095a.318.318 0 0 0-.319.32v1.551c0 .176.143.318.32.318H3.72a.318.318 0 0 0 .318-.318v-1.552a.318.318 0 0 0-.318-.319Zm-2.169 0a.318.318 0 0 0-.317.32c0 .076.027.144.07.2l.002.003 1.231 1.55.003.002a.32.32 0 0 0 .243.114h.001a.318.318 0 0 0 .32-.318v-1.553a.318.318 0 0 0-.319-.318Zm21.493.132v2.058h2.058a.131.131 0 0 0 0-.263h-1.796v-1.795a.131.131 0 1 0-.262 0m-7.18-.088-1.396 1.395-1.41-1.41v.002a.131.131 0 0 0-.215.101v2.058h.262v-1.742l1.27 1.27a.22.22 0 0 0 .018.013.078.078 0 0 1 .01.007l.012.006.006.003c.038.016.072.01.097 0l.003-.002a.08.08 0 0 0 .018-.01l.004-.003a.131.131 0 0 0 .02-.015l1.267-1.268v1.741h.263v-2.058a.13.13 0 0 0-.228-.088m.77.57a.63.63 0 0 0 .137.387.635.635 0 0 0 .507.226h1.184c.094 0 .198.05.236.078a.33.33 0 0 1 .148.271h.297a.63.63 0 0 0-.138-.387.635.635 0 0 0-.507-.226h-1.185a.467.467 0 0 1-.235-.078.33.33 0 0 1-.148-.272zm2.212.962a.33.33 0 0 1-.148.272.466.466 0 0 1-.236.078h-1.698v.001a.131.131 0 1 0 0 .262h1.734c.23 0 .392-.092.507-.226a.63.63 0 0 0 .138-.387z"/></svg>