<svg role="img" viewBox="0 0 24 24" xmlns="http://www.w3.org/2000/svg"><title>Conan</title><path d="M11.709 0 0 5.534v11.229L11.984 24V12.517L11.986 24l11.983-6.679V6.111L24 6.091Zm.11 2.826c.203.017.413.012.629.008.24-.004.489-.007.74.016a6.025 6.026 0 0 1 .618.099c.18.035.357.07.524.085l.074.051h.08l.079.033h.074l.07.052.436.123.063.035.717.302.052.04.559.292.045.047.426.243.046.048c.087.044.168.107.251.17.071.057.145.114.224.16l.041.052c.162.1.353.266.494.389l.028.021.04.06.111.1c.2.177.55.485.54.558l-.05.047-.424.212-.048.046-.424.21-.05.045-1.774.924-.048.043-.224.09.15-.328.032-.075c.094-.418.126-.562.003-.986l-.039-.063c-.108-.377-.618-.85-.908-1.004l-.047-.046-.172-.08-.046-.045a2.985 2.986 0 0 1-.284-.12c-.184-.088-.374-.178-.59-.21l-.067-.053-.537-.072c-.105-.055-.23-.058-.376-.053h-.954c-.11 0-.16 0-.247.055l-.396.033-.092.043-.09-.006-.09.047-.595.17-.057.036c-.561.181-1.133.645-1.367.977l-.05.048-.041.078-.05.045c-.225.48-.412.9-.114 1.467.187.357.587.7 1.02.857l.059.038.156.057c.231.083.482.175.737.2l.093.043c.2.008.402.032.606.057.237.027.478.055.731.06.228.007.468-.005.703-.017.247-.012.491-.027.713-.018l.066.032-.74.352-.05.04h-.04l-.053.041-1.28.597-.056.04h-.035l-.055.04a3.203 3.204 0 0 0-.186.094c-.187.098-.351.182-.61.15a6.417 6.327 0 0 1-.426-.077c-.156-.03-.308-.06-.457-.077l-.09-.045-.812-.257-.059-.037c-.263-.092-.455-.205-.645-.315a4.856 4.857 0 0 0-.343-.19l-.045-.048c-.16-.083-.573-.418-.67-.524a3.542 3.542 0 0 1-.493-.658l-.05-.042-.04-.122-.04-.052-.096-.231-.033-.072v-.076l-.05-.076c-.06-.758-.065-.864.219-1.515l.045-.047.08-.167.05-.045.248-.336.059-.04a2.792 2.792 0 0 1 .724-.552l.047-.047c.133-.07.265-.144.396-.218a6.045 6.046 0 0 1 .816-.412l.053-.04 1.002-.374.062-.053.076-.003.078-.032.542-.13.1-.041.111-.004.1-.04.697-.08z"/></svg>