<svg role="img" viewBox="0 0 24 24" xmlns="http://www.w3.org/2000/svg"><title>Conda-Forge icon</title><path fill="none" d="M-49.974-517.734h1000v600h-1000z"/><g fill-rule="evenodd" stroke="#fff" stroke-width="16"><path d="M-120.869 222.167l-.034 30.072c27.976 61.818 200.047 131.395 310.147 129.973 59.986-.774 90.02 40.339 89.821 109.693l-100.227 79.928.274 60.246 449.978-.057-.12-55.174-99.884-84.858c2.763-160.398 104.76-230.244 240.036-239.974l.12-69.962-580.272-.108.154 15.095h-54.972l.22 25.04z" transform="matrix(.02649 0 0 .02631 3.414 1.555)"/><path d="M180.308 571.284l133.736 1.044.24 59.726m314.641-55.258l-134.66.12-.085 55.104m-182.532-55.482c58.352-64.176 128.198-52.481 182.374.651M134.3 202.362v109.846m54.624-109.846l.309 179.523m344.995 70.007l-65.021.123m59.921 40.255l-40.324-.12" transform="matrix(.02649 0 0 .02631 3.414 1.555)"/></g></svg>
