<svg role="img" viewBox="0 0 24 24" xmlns="http://www.w3.org/2000/svg"><title>Conda-Forge icon</title><path fill="none" d="M-49.974-517.734h1000v600h-1000z"/><path d="M.212 7.4v.791c.74 1.627 5.299 3.457 8.215 3.42 1.59-.02 2.385 1.061 2.38 2.886L8.15 16.6l.008 1.585 11.92-.002-.004-1.451-2.646-2.233c.074-4.22 2.776-6.057 6.359-6.313l.003-1.841L8.42 6.342l.004.397H6.968l.006.659z" fill-rule="evenodd" stroke="#fff" stroke-width=".422"/><path d="M8.19 16.585l3.543.028.006 1.571m8.335-1.453l-3.567.003-.002 1.45m-4.835-1.46c1.545-1.689 3.396-1.381 4.83.017M6.973 6.879v2.89m1.447-2.89l.008 4.723m9.139 1.842l-1.723.004m1.588 1.059l-1.069-.004" fill-rule="evenodd" stroke="#fff" stroke-width=".422"/></svg>
