<svg role="img" viewBox="0 0 24 24" xmlns="http://www.w3.org/2000/svg"><title>Construct 3 icon</title><path d="M23.595 14.396c0 .5-.55.81-.99.56l-4.13-2.39a.69.69 0 0 1-.24-.24.63.63 0 0 1 0-.651c.06-.1.14-.18.24-.24l4.13-2.401c.44-.24.99.07.99.57zM12.385 24C5.725 24 .405 18.568.405 12.005.405 5.502 5.645 0 12.385 0c4.28 0 8.08 2.25 10.2 5.702.18.28.08.64-.2.8l-5.53 3.202a.48.48 0 0 1-.2.07c-.07.01-.14.01-.21-.01a.722.722 0 0 1-.2-.09.536.536 0 0 1-.15-.15c-.2-.3-.44-.58-.71-.83-.27-.24-.57-.45-.89-.62a4.41 4.41 0 0 0-1.02-.4c-.36-.09-.72-.13-1.09-.13-2.44 0-4.44 2-4.44 4.461 0 2.461 2 4.452 4.44 4.452 1.49 0 2.88-.74 3.71-1.981.04-.06.09-.11.15-.15.06-.04.13-.07.2-.09.07-.02.14-.02.21-.01.07.01.14.03.2.07l5.53 3.201c.28.16.38.53.2.8A11.954 11.954 0 0 1 12.385 24zm9.9-13.266-2.19 1.271 2.19 1.26zm-3.12 5.473c-.35.58-.78 1.1-1.27 1.57s-1.03.87-1.63 1.2a8.029 8.029 0 0 1-3.88 1.01 7.931 7.931 0 0 1-6.71-3.7c-.02-.04-.04-.08-.05-.12a.285.285 0 0 1 0-.13c.01-.05.03-.09.06-.12.03-.04.06-.07.1-.09l2.33-1.351a4.93 4.93 0 0 1-.66-2.471c0-2.741 2.21-4.952 4.93-4.952 1.66 0 3.19.82 4.11 2.2.02.03.07.04.11.02l2.99-1.72a8.54 8.54 0 0 0-3.06-2.941 8.534 8.534 0 0 0-4.1-1.08c-1.44-.01-2.86.35-4.12 1.05a8.457 8.457 0 0 0-3.09 2.911c-.09.15-.28.2-.44.12l-2.34-1.36a11.422 11.422 0 0 0-1.54 5.752c0 6.343 5.15 11.505 11.48 11.505 4.02 0 7.67-2.041 9.79-5.472.02-.03.01-.08-.03-.11z"/></svg>