<?xml version="1.0" encoding="UTF-8" standalone="no"?>
<svg
   xmlns:dc="http://purl.org/dc/elements/1.1/"
   xmlns:cc="http://creativecommons.org/ns#"
   xmlns:rdf="http://www.w3.org/1999/02/22-rdf-syntax-ns#"
   xmlns:svg="http://www.w3.org/2000/svg"
   xmlns="http://www.w3.org/2000/svg"
   xmlns:sodipodi="http://sodipodi.sourceforge.net/DTD/sodipodi-0.dtd"
   xmlns:inkscape="http://www.inkscape.org/namespaces/inkscape"
   role="img"
   viewBox="0 0 24 24"
   version="1.1"
   id="svg6"
   sodipodi:docname="consul.svg"
   inkscape:version="0.92.3 (2405546, 2018-03-11)">
  <metadata
     id="metadata12">
    <rdf:RDF>
      <cc:Work
         rdf:about="">
        <dc:format>image/svg+xml</dc:format>
        <dc:type
           rdf:resource="http://purl.org/dc/dcmitype/StillImage" />
        <dc:title>Zulip icon</dc:title>
      </cc:Work>
    </rdf:RDF>
  </metadata>
  <defs
     id="defs10">
    <linearGradient
       id="SVGID_1_"
       gradientUnits="userSpaceOnUse"
       x1="131.11929"
       y1="373.57339"
       x2="103.2589"
       y2="396.95099">
      <stop
         offset="5.152266e-07"
         style="stop-color:#71CAEE"
         id="stop44" />
      <stop
         offset="4.104413e-02"
         style="stop-color:#83CAE2"
         id="stop46" />
      <stop
         offset="0.1206"
         style="stop-color:#9FCACE"
         id="stop48" />
      <stop
         offset="0.2107"
         style="stop-color:#B6CBBE"
         id="stop50" />
      <stop
         offset="0.3139"
         style="stop-color:#C7CBB1"
         id="stop52" />
      <stop
         offset="0.4384"
         style="stop-color:#D4CBA8"
         id="stop54" />
      <stop
         offset="0.6058"
         style="stop-color:#DBCBA3"
         id="stop56" />
      <stop
         offset="1"
         style="stop-color:#DDCBA2"
         id="stop58" />
    </linearGradient>
  </defs>
  <sodipodi:namedview
     pagecolor="#ffffff"
     bordercolor="#666666"
     borderopacity="1"
     objecttolerance="10"
     gridtolerance="10"
     guidetolerance="10"
     inkscape:pageopacity="0"
     inkscape:pageshadow="2"
     inkscape:window-width="1920"
     inkscape:window-height="1025"
     id="namedview8"
     showgrid="false"
     inkscape:zoom="13.906433"
     inkscape:cx="17.550972"
     inkscape:cy="13.322441"
     inkscape:window-x="0"
     inkscape:window-y="27"
     inkscape:window-maximized="1"
     inkscape:current-layer="svg6" />
  <title
     id="title2">Zulip icon</title>
  <path
     inkscape:connector-curvature="0"
     style="fill:#000000;fill-rule:evenodd;stroke-width:0.1209729"
     d="m 11.589774,0.3706536 c -3.0828744,0 -6.0095944,1.209795 -8.1949694,3.394565 C 1.2095506,5.9899106 2.5910709e-6,8.8775714 2.5910709e-6,11.999882 c 0,3.08239 1.2097510089291,6.009972 3.3560530089291,8.234662 2.224329,2.185254 5.111892,3.394802 8.2337184,3.394802 l 0.0015,-4.84e-4 c 2.575633,0 5.034132,-0.858907 7.06321,-2.419458 L 17.24959,19.336923 c -1.599745,1.248803 -3.551058,1.912176 -5.619332,1.912176 -2.4973644,0 -4.7998854,-0.936549 -6.5559284,-2.692593 -1.756043,-1.756041 -2.731577,-4.09763 -2.731577,-6.556163 0,-2.4973656 0.936803,-4.7997646 2.69212,-6.5559284 1.756045,-1.75591 4.097282,-2.731565 6.5556944,-2.731565 2.028715,0 3.98015,0.66363 5.619332,1.911466 l 1.443169,-1.872954 c -2.029199,-1.561396 -4.487698,-2.380708 -7.06321,-2.380708 z m 9.594663,4.964141 c -0.184534,0.0032 -0.370347,0.05108 -0.54107,0.148618 -0.546314,0.31223 -0.741423,1.0147558 -0.429312,1.5610698 0.31211,0.546435 1.014756,0.741422 1.56107,0.429312 0.351185,-0.195129 0.5463,-0.546304 0.585254,-0.897609 0,-0.234084 -0.03907,-0.4292638 -0.156179,-0.6632248 -0.214658,-0.375757 -0.613788,-0.585284 -1.019763,-0.578166 z m 1.680626,3.5637388 c -0.07598,-0.0017 -0.153523,0.0043 -0.231551,0.0189 -0.624462,0.117102 -1.053695,0.702701 -0.936593,1.3269216 0.11698,0.624462 0.702463,1.053697 1.326684,0.936594 0.50736,-0.07802 0.897642,-0.50744 0.936595,-1.014802 0.03907,-0.11698 0,-0.1950166 0,-0.3121186 -0.102359,-0.546404 -0.563287,-0.943197 -1.095135,-0.955497 z m -3.355817,0.06191 c -0.07712,0.003 -0.155177,0.01404 -0.233204,0.03355 -0.624462,0.156176 -1.014443,0.780672 -0.858388,1.4048926 0.156037,0.624386 0.780028,1.014763 1.404656,0.858861 0,0 2.43e-4,0 2.43e-4,0 0.507107,-0.117167 0.81932,-0.507206 0.858388,-0.936596 0.03895,-0.156055 0.03895,-0.312243 0,-0.4682986 -0.136548,-0.54651 -0.631851,-0.913696 -1.17169,-0.892411 z m -7.958458,0.503502 c -1.404858,0 -2.4974294,1.0925716 -2.4974294,2.4974296 0,1.404858 1.0925714,2.497665 2.4974294,2.497665 1.404859,0 2.497665,-1.092807 2.497665,-2.497665 0,-1.404859 -1.092806,-2.4974296 -2.497665,-2.4974296 z m 4.877902,1.3266856 c -0.663416,0 -1.170507,0.546281 -1.170507,1.170744 0,0.663294 0.546287,1.17098 1.170507,1.17098 v -2.42e-4 c 0.624341,0 1.170743,-0.50745 1.170743,-1.170745 0,-0.663416 -0.546523,-1.170743 -1.170743,-1.170743 z m 6.361474,1.930842 c -0.531905,0.01237 -0.992884,0.40954 -1.095136,0.955732 -0.117344,0.624342 0.312139,1.209583 0.936359,1.326685 0.624221,0.11698 1.209578,-0.312375 1.32692,-0.936594 h 4.85e-4 c 0,-0.03907 3.6e-5,-0.03902 0.03874,-0.07797 0.03907,-0.585388 -0.390545,-1.131849 -0.976053,-1.248951 -0.07804,-0.01462 -0.155328,-0.02067 -0.231313,-0.0189 z m -3.314469,0.06166 c -0.494001,0.02127 -0.929828,0.34861 -1.056623,0.855788 -0.156176,0.624222 0.195182,1.248603 0.819402,1.404657 0.624342,0.156055 1.248837,-0.194947 1.404893,-0.819166 l -4.84e-4,-9.68e-4 c 0.03871,-0.03896 0.03874,-0.0775 0.03874,-0.0775 0.117344,-0.624825 -0.273381,-1.171104 -0.85768,-1.327158 -0.117109,-0.02926 -0.234269,-0.04059 -0.34827,-0.03567 z m 1.758124,3.595163 c -0.406002,-0.0072 -0.805188,0.202576 -1.019764,0.578166 -0.312352,0.546314 -0.117002,1.248723 0.429312,1.560834 0.546313,0.312351 1.248723,0.117238 1.560833,-0.429076 v -2.42e-4 c 0.07802,-0.156054 0.117225,-0.312006 0.156179,-0.468061 0.03895,-0.429332 -0.194996,-0.85869 -0.585254,-1.092772 -0.170723,-0.09761 -0.356759,-0.145608 -0.541306,-0.148854 z"
     id="path2" />
</svg>
