<svg role="img" viewBox="0 0 24 24" xmlns="http://www.w3.org/2000/svg"><title>Construct 3 icon</title><path d="M23.608 9.605v4.79a.654.654 0 0 1-.98.566l-4.148-2.395a.654.654 0 0 1 0-1.132l4.15-2.394a.654.654 0 0 1 .98.566zm-1.305 1.13L20.113 12l2.19 1.264zm.307 7.561A11.997 11.997 0 0 1 12.39 24c-6.687 0-12-5.427-12-12 0-6.502 5.248-12 12-12 4.284 0 8.088 2.254 10.218 5.704a.57.57 0 0 1-.2.795l-5.55 3.204a.57.57 0 0 1-.76-.178 4.454 4.454 0 0 0-3.708-1.982c-2.457 0-4.457 2-4.457 4.457 0 2.458 2 4.457 4.457 4.457a4.454 4.454 0 0 0 3.708-1.983.57.57 0 0 1 .76-.177l5.55 3.204c.279.16.37.52.2.795zm-.446-.371-2.983-1.723a7.979 7.979 0 0 1-6.79 3.782 7.977 7.977 0 0 1-6.737-3.7.327.327 0 0 1 .112-.459l2.342-1.352A4.917 4.917 0 0 1 7.444 12a4.953 4.953 0 0 1 4.947-4.947c1.656 0 3.194.822 4.116 2.2a.083.083 0 0 0 .108.026l2.99-1.726a8.468 8.468 0 0 0-7.214-4.027 8.466 8.466 0 0 0-7.176 3.968.327.327 0 0 1-.44.108l-2.35-1.356A11.443 11.443 0 0 0 .882 12c0 6.347 5.164 11.51 11.51 11.51 4.022 0 7.686-2.046 9.801-5.472a.082.082 0 0 0-.028-.113z"/></svg>