<svg role="img" viewBox="0 0 24 24" fill="none" xmlns="http://www.w3.org/2000/svg"><path clip-rule="evenodd" d="M23.184 18.046c-3.34 5.723-10.688 7.657-16.412 4.318-5.725-3.34-7.659-10.686-4.32-16.41a12.004 12.004 0 0 1 19.612-1.603L12.818 12l10.366 6.046zM14.636 7.484a1.318 1.318 0 1 1-2.636 0 1.318 1.318 0 0 1 2.636 0zm1.038 11.696c-.782 0-1.054 1.923-.378 2.67.519.572 1.363.629 1.564.105.176-.459-.814-2.775-1.186-2.775zm-9.986-7.848c-.316.736-.512 1.503-.434 1.706.078.202.44.368.805.368.805 0 2.765-1.69 2.765-2.383 0-.595-.755-1.029-1.788-1.029-.678 0-.842.163-1.348 1.338zm2.47-8.788c-.698.458-.845 1.027-.318 1.24.475.191 2.445.201 2.932.014.653-.25.487-.84-.36-1.277-.984-.51-1.448-.504-2.253.023z" fill="#fff"/></svg>