<svg role="img" viewBox="0 0 24 24" xmlns="http://www.w3.org/2000/svg"><title>Cookiecutter icon</title><path fill-rule="evenodd" d="m 22.4858,19.660114 c -1.5476,1.8898 -3.6303,3.2534 -5.9671,3.9069 -2.3369,0.6535 -4.8154,0.5655 -7.1013501,-0.2522 C 7.13145,22.497214 5.1482,20.989114 3.73517,18.994314 2.322138,16.999414 1.547318,14.613614 1.515238,12.158814 1.483158,9.7040036 2.195362,7.2983036 3.55577,5.2662436 c 1.3604,-2.03205 3.30355,-3.59268 5.5672899,-4.47133596 2.2637301,-0.8786556 4.7391401,-1.03306 7.0922401,-0.442384 2.3531,0.590677 4.4707,1.89800996 6.0671,3.74563996 L 13.3642,12.000014 Z M 15.0891,6.5625036 c 0,0.64203 -0.5204,1.1625 -1.1625,1.1625 -0.642,0 -1.1625,-0.52047 -1.1625,-1.1625 0,-0.64203 0.5205,-1.1625 1.1625,-1.1625 0.6421,0 1.1625,0.52047 1.1625,1.1625 z m 0.6376,12.9375104 c 0,0 -0.9375,0.8625 -0.9,1.7625 0.0375,0.9 0.6375,1.425 1.35,1.3875 0.7125,-0.0375 0.7875,-0.375 0.7875,-0.7875 0,-0.4125 -1.2375,-2.3625 -1.2375,-2.3625 z M 7.70175,3.9750236 c 0,-0.3375 1.7249999,-1.2375 1.7249999,-1.2375 0,0 1.7593301,1.0875 1.7625001,1.2375 0.0032,0.15 -0.11249,0.375 -0.6375,0.5625 -0.525,0.1875 -1.7625001,0.15 -2.1749902,0 l -0.06694,-0.02421 C 7.93607,4.3784436 7.70176,4.2938936 7.70175,3.9750236 Z M 6.65167,10.612514 c 0,0 -1.86251,2.2344 -1.0125,3.2625 1.01212,1.2243 4.1351599,-0.9513 3.3374999,-2.325 -0.4916201,-0.8466 -2.3249999,-0.9375 -2.3249999,-0.9375 z"/></svg>
