<svg role="img" viewBox="0 0 24 24" xmlns="http://www.w3.org/2000/svg"><title>Cookpad</title><path d="M12.577.015a11.977 11.977 0 1 0-.555 23.94A11.977 11.977 0 0 0 24 11.98 11.977 11.977 0 0 0 12.577.015Zm-.792 4.602a3.637 3.637 0 0 1 3.534 2.23 3.61 3.61 0 0 1 2.26-.773l.008-.042a3.678 3.678 0 0 1 0 7.356h-.359l-.66 5.425a.585.585 0 0 1-.577.528H6.039a.596.596 0 0 1-.437-.203.622.622 0 0 1-.14-.476l.687-5.572a3.674 3.674 0 0 1 1.23-7.13 3.614 3.614 0 0 1 1.52.332 3.637 3.637 0 0 1 2.882-1.675Zm.275 1.102a2.494 2.494 0 0 0-2.588 2.339c-.015.12-.102.12-.162.038a2.47 2.47 0 1 0-1.94 4.017h.065l-.743 6.036h8.76l.218-1.758H8.24a.604.604 0 0 1 0-1.207h7.593c.22-1.837.464-3.772.464-3.772a.589.589 0 0 1 .653-.521.604.604 0 0 1 .502.675l-.083.65a1.894 1.894 0 0 0 .204 0 2.49 2.49 0 1 0-2.362-3.257l-1.011-.565a3.825 3.825 0 0 1 .238-.49 2.494 2.494 0 0 0-2.377-2.189Z"/></svg>