<svg viewBox="0 0 24 24" fill="none" xmlns="http://www.w3.org/2000/svg"><path fill-rule="evenodd" clip-rule="evenodd" d="M23.1839 18.0455C19.8445 23.7692 12.4964 25.7025 6.77161 22.3637C1.0468 19.0248 -0.886892 11.6782 2.45258 5.95453C5.79204 0.230842 13.1401 -1.70248 18.8649 1.63634C20.0821 2.34626 21.1648 3.26499 22.0633 4.35043L12.8182 12L23.1839 18.0455ZM14.6365 7.48435C14.6365 8.21241 14.0462 8.80262 13.3182 8.80262C12.5901 8.80262 11.9999 8.21241 11.9999 7.48435C11.9999 6.75629 12.5901 6.16608 13.3182 6.16608C14.0462 6.16608 14.6365 6.75629 14.6365 7.48435ZM15.6735 19.1801C14.8919 19.1801 14.6203 21.1027 15.2964 21.8496C15.8145 22.422 16.6587 22.4789 16.8597 21.955C17.0358 21.4963 16.0456 19.1801 15.6735 19.1801ZM5.68821 11.3319C5.37161 12.0677 5.17616 12.8354 5.25388 13.0379C5.33159 13.2404 5.69387 13.406 6.05893 13.406C6.86363 13.406 8.82426 11.7162 8.82426 11.0226C8.82426 10.4285 8.06911 9.99408 7.03629 9.99408C6.35767 9.99408 6.19391 10.1566 5.68821 11.3319ZM8.15876 2.54422C7.45982 3.00209 7.31337 3.57133 7.83986 3.78373V3.78374C8.31456 3.97525 10.2848 3.98501 10.7716 3.79825C11.4246 3.54773 11.2589 2.95845 10.4123 2.52078C9.42768 2.01168 8.96431 2.0165 8.15876 2.54422Z" fill="white"/></svg>
