<svg role="img" viewBox="0 0 24 24" xmlns="http://www.w3.org/2000/svg"><title>Copado</title><path d="M12 .052C5.371.052 0 5.401 0 12c0 6.599 5.372 11.949 12 11.949 6.627 0 12-5.35 12-11.949C24 5.401 18.627.052 12 .052ZM7.39 7.438a4.624 4.624 0 0 1 3.557 1.667l-1.264 1.451A2.613 2.613 0 0 0 7.39 9.229c-1.472 0-2.68 1.151-2.68 2.767 0 1.615 1.208 2.765 2.68 2.765a2.628 2.628 0 0 0 1.872-.768l.145-.19.238-.311 2.162-2.787.995-1.285c.088-.124.182-.248.285-.367l.016-.015v.006a4.623 4.623 0 0 1 3.515-1.606c2.54 0 4.607 2.05 4.607 4.563s-2.067 4.562-4.607 4.562a4.642 4.642 0 0 1-2.5-.73 4.61 4.61 0 0 1-1.704-1.96l1.529-1.872c0 1.615 1.207 2.766 2.68 2.766 1.456 0 2.664-1.151 2.664-2.766 0-1.616-1.203-2.767-2.664-2.767a2.636 2.636 0 0 0-2.266 1.254v-.01l-3.883 4.897a4.613 4.613 0 0 1-3.084 1.188c-2.55 0-4.618-2.049-4.618-4.562 0-2.514 2.067-4.563 4.618-4.563zm9.223 3.91c.42 0 .763.34.763.76a.76.76 0 0 1-.763.758.76.76 0 1 1 0-1.517z"/></svg>