<svg role="img"
    xmlns="http://www.w3.org/2000/svg" viewBox="0 0 24 24">
    <title>CorelDraw icon</title>
    <path class="cls-1" d="M3.38,6.35c0-.24.05-.47.09-.7A5.68,5.68,0,0,1,5.73,1.86,12.42,12.42,0,0,1,7,1.08a.11.11,0,0,1,.08,0c-.19.15-.39.29-.57.44a6.29,6.29,0,0,0-2.3,4.7,11.47,11.47,0,0,0,.55,4,25,25,0,0,0,2.47,5.44,33.73,33.73,0,0,0,3.61,5,.22.22,0,0,1,0,.12.94.94,0,0,1-.1-.1,29.12,29.12,0,0,1-3.62-4.35,25.83,25.83,0,0,1-2.84-5.22,13.77,13.77,0,0,1-.87-3.29l-.06-.56Z"/>
    <path class="cls-1" d="M9.5,7.4a15.33,15.33,0,0,1,.43-4.05A10.29,10.29,0,0,1,11.36.12.22.22,0,0,1,11.57,0h.86a.23.23,0,0,1,.21.12,10.64,10.64,0,0,1,1.63,4.12,17.29,17.29,0,0,1,.23,3.29,48.13,48.13,0,0,1-1.09,8.8c-.3,1.42-.66,2.82-1,4.23,0,.15-.09.19-.23.18h-.44a.13.13,0,0,1-.15-.12c-.19-.78-.4-1.55-.58-2.32a58.93,58.93,0,0,1-1.3-7.47C9.6,9.69,9.51,8.55,9.5,7.4Z"/>
    <path class="cls-1" d="M13.36.06l.89.13a3.13,3.13,0,0,1,1.09.44,6.45,6.45,0,0,1,2.57,2.53,7.24,7.24,0,0,1,.84,3.1,11.23,11.23,0,0,1-.56,3.91A31.63,31.63,0,0,1,15.74,16,46.42,46.42,0,0,1,13,20.59c-.11.17-.13.18-.36.13l.06-.13a42.29,42.29,0,0,0,2.82-6.93A24.84,24.84,0,0,0,16.5,9a12.71,12.71,0,0,0-.26-4.56A7.45,7.45,0,0,0,13.4.14s0,0,0,0Z"/>
    <path class="cls-1" d="M10.67.06c-.25.21-.47.38-.68.58a7.63,7.63,0,0,0-2.28,4,12.64,12.64,0,0,0-.23,4.16A28.73,28.73,0,0,0,9.3,16a45.58,45.58,0,0,0,2,4.57l.06.12c-.21.06-.25.05-.36-.12a45.28,45.28,0,0,1-4.27-7.8,21.14,21.14,0,0,1-1.28-4,8.77,8.77,0,0,1,0-4.2A6.29,6.29,0,0,1,8.23.89c.32-.2.66-.36,1-.54a2.69,2.69,0,0,1,.93-.22Z"/>
    <path class="cls-1" d="M13.11,20.7l.15-.18A32.18,32.18,0,0,0,18,13.27,18.58,18.58,0,0,0,19.57,9a9.55,9.55,0,0,0,.15-3.61,6.19,6.19,0,0,0-2.61-4.17,1.09,1.09,0,0,1-.17-.13V1c.26.14.52.28.77.43A6.07,6.07,0,0,1,20,3.85a6.29,6.29,0,0,1,.66,3A10.89,10.89,0,0,1,20,10.09,21.83,21.83,0,0,1,18,14.55a31.14,31.14,0,0,1-4.72,6.08l-.11.1Z"/>
    <path class="cls-1" d="M11.16,24a.61.61,0,0,1-.37-.66c0-.35,0-.7,0-1.05a.49.49,0,0,1,.51-.55h1.38a.49.49,0,0,1,.51.55c0,.35,0,.7,0,1.05a.62.62,0,0,1-.37.66Z"/>
</svg>