<svg role="img" viewBox="0 0 24 24" xmlns="http://www.w3.org/2000/svg"><title>Corsair</title><path d="M13.073.411s1.912 3.883 1.56 5.5c0 0 4.988 1.615 5.543 4.275 0 0 2.731-3.595-7.103-9.775m-1.922 5.825c.487 1.021.707 2.118.994 3.264L9.301 8.42c.264-1.726-1.416-4.354-1.416-4.354zM6.107 8.91c.314.83.672 1.87.862 2.768l-2.564-.638c.263-1.726-1.362-3.813-1.362-3.813zm5.585-4.15s11.436 8.031 12.19 11.147c.568 2.344-1.085 4.51-1.085 4.51s-.881-6.12-22.796 3.172c2.218-2.475 3.426-5.635 3.107-9.045a11.5 11.5 0 0 0-1.076-3.93l5.136 2.722.02.244c.195 2.085.043 4.112-.428 5.99a14.1 14.1 0 0 0 1.306-7.348A14.1 14.1 0 0 0 6.907 7.76l5.49 3.657c.023.182.035.366.052.55.216 2.307.001 4.545-.592 6.587 1.291-2.393 1.925-5.155 1.655-8.04a14.1 14.1 0 0 0-1.82-5.753"/></svg>