<svg role="img" viewBox="0 0 24 24" xmlns="http://www.w3.org/2000/svg"><title>Corsair</title><path d="M11.691 4.76s11.436 8.031 12.19 11.147c.568 2.344-1.085 4.51-1.085 4.51S21.916 14.297 0 23.59c2.218-2.476 3.426-5.637 3.107-9.046a11.5 11.5 0 0 0-1.077-3.93l5.136 2.723c.01.08.013.162.02.243.196 2.085.044 4.112-.427 5.99a14.1 14.1 0 0 0 1.306-7.348A14.1 14.1 0 0 0 6.906 7.76l5.49 3.657c.022.182.035.366.052.55.216 2.307 0 4.545-.592 6.587 1.29-2.393 1.925-5.154 1.654-8.04a14.1 14.1 0 0 0-1.819-5.753M6.106 8.91c.313.83.672 1.87.862 2.768l-2.564-.638C4.667 9.315 3.04 7.228 3.04 7.228Zm5.044-2.675c.486 1.021.707 2.12.994 3.264L9.3 8.42c.263-1.726-1.416-4.353-1.416-4.353ZM13.072.411s1.911 3.882 1.56 5.5c0 0 4.988 1.614 5.542 4.274 0 0 2.732-3.595-7.102-9.774"/></svg>