<svg role="img" viewBox="0 0 24 24" xmlns="http://www.w3.org/2000/svg"><title>Couchsurfing</title><path d="M12.246.003A11.962 11.962 0 0 0 9.38.29l-.337.098a12.185 12.185 0 0 0-4.029 1.909l-.223.17a10.016 10.016 0 0 0-1.61 1.474l-.185.227C2.082 5.21 1.41 6.36.881 7.638.023 9.851-.416 12.878.54 15.123l.098-.189c3.36.246 6.992.265 10.295-.472a2.748 2.748 0 0 0-.495-.56c-2.26-1.768-4.082-3.768-4.513-6.712-.132-1.262.34-2.52 1.111-3.503l.307-.37c.06-.13.12-.254.189-.379.283-.094.283-.094.457-.23 1.22-1.047 2.751-1.323 4.32-1.3 1.38.083 2.82.582 3.764 1.636l.151.178c.964 1.077 1.663 2.38 1.739 3.847-.076 1.913-1.104 3.95-2.494 5.242l-.19.167a13.584 13.584 0 0 1-1.795 1.413c-.34.2-.642.416-.945.665l.129.144.17.19c.17.184.17.184.363.328a1.833 1.833 0 0 0 .695-.053c2.986-.567 2.986-.567 6.029-.574l1.224-.012 2.381-.019h.25c.09-.506.192-1.009.215-1.52v-.335l.004-.571v-.197c-.004-.922-.011-1.825-.223-2.729l-.09-.317a13.87 13.87 0 0 0-1.312-3.058 11.962 11.962 0 0 0-7.09-5.393l-.193-.053a11.044 11.044 0 0 0-2.846-.385Zm-.496 1.9c-1.417 0-2.823.571-3.874 1.701-.944 1.127-1.296 2.12-1.194 3.587.31 2.03 1.716 3.946 3.243 5.261a30.281 30.281 0 0 1 .76.67l.177.154c.288.261.53.492.896.613.272.01.438-.084.669-.227l.208-.144c1.024-.673 1.931-1.398 2.744-2.324 1.292-1.523 2.04-3.115 1.882-5.14-.215-1.285-1.398-2.336-2.358-3.115a5.303 5.303 0 0 0-3.153-1.035Zm-.393 13.04a1.7 1.7 0 0 0-.514.113c-3.3.718-3.3.718-6.704.688a738.193 738.193 0 0 1-3.1.038l-.211.004v.283c.793 2.661 3.088 5.023 5.48 6.327a12.616 12.616 0 0 0 9.494.862c3.054-.979 5.477-3.118 6.954-5.957l.103-.192c.302-.579.483-1.16.638-1.796-1.42-.056-2.838-.12-4.26-.098l-.275.004c-1.338.015-4.006-.336-5.004.661 1.013 1.187 2.06 2.484 2.018 4.124-.09.563-.48.982-.884 1.357a3.224 3.224 0 0 1-2.211.604c-.862-.105-1.569-.404-2.136-1.077-.472-.718-.748-1.52-.605-2.373.307-1.225 1.089-1.98 2.106-2.688l.2-.136a4.207 4.207 0 0 0-.567-.661 1.425 1.425 0 0 0-.522-.087zm1.41 1.353c-.423 0-.669.404-1.55 1.852-.343.703-.536 1.41-.283 2.173a1.977 1.977 0 0 0 1.089.904c.94.162 1.863.105 2.672-.416.287-.284.552-.548.612-.964.015-1.058-.605-1.984-1.281-2.759l-.136-.151a4.83 4.83 0 0 0-.5-.492 2.226 2.226 0 0 0-.623-.147z"/></svg>