<?xml version="1.0" encoding="UTF-8" standalone="no"?>
<svg
   xmlns:dc="http://purl.org/dc/elements/1.1/"
   xmlns:cc="http://creativecommons.org/ns#"
   xmlns:rdf="http://www.w3.org/1999/02/22-rdf-syntax-ns#"
   xmlns:svg="http://www.w3.org/2000/svg"
   xmlns="http://www.w3.org/2000/svg"
   xmlns:sodipodi="http://sodipodi.sourceforge.net/DTD/sodipodi-0.dtd"
   xmlns:inkscape="http://www.inkscape.org/namespaces/inkscape"
   role="img"
   viewBox="0 0 24 24"
   version="1.1"
   id="svg6"
   sodipodi:docname="counterstrike.svg"
   inkscape:version="0.92.4 5da689c313, 2019-01-14">
  <metadata
     id="metadata12">
    <rdf:RDF>
      <cc:Work
         rdf:about="">
        <dc:format>image/svg+xml</dc:format>
        <dc:type
           rdf:resource="http://purl.org/dc/dcmitype/StillImage" />
        <dc:title>AngelList icon</dc:title>
      </cc:Work>
    </rdf:RDF>
  </metadata>
  <defs
     id="defs10" />
  <sodipodi:namedview
     pagecolor="#ffffff"
     bordercolor="#666666"
     borderopacity="1"
     objecttolerance="10"
     gridtolerance="10"
     guidetolerance="10"
     inkscape:pageopacity="0"
     inkscape:pageshadow="2"
     inkscape:window-width="1366"
     inkscape:window-height="714"
     id="namedview8"
     showgrid="false"
     inkscape:zoom="18.465924"
     inkscape:cx="22.416451"
     inkscape:cy="11.369737"
     inkscape:window-x="0"
     inkscape:window-y="26"
     inkscape:window-maximized="1"
     inkscape:current-layer="svg6" />
  <title
     id="title2">AngelList icon</title>
  <path
     inkscape:connector-curvature="0"
     style="fill:#000000;fill-rule:evenodd;stroke-width:0.59800804"
     d="m 14.38062,7.1373054 c -0.05736,0.6748234 -0.507983,0.3883846 -0.995874,0.7565932 -0.131618,-0.020153 -0.281739,-0.020153 -0.487892,-0.020153 -0.03726,-0.4499902 0.113117,-0.5317593 0.187388,-0.6134935 0.300504,-0.2455839 0.507985,-0.1226484 0.507985,-0.1226484 0.224914,-0.041431 0.430805,0.020153 0.78838,-3.242e-4 z m 1.125903,-1.1046973 h -0.656502 v -0.183967 h -0.356273 v 0.1019223 c -0.03859,0.020154 -0.07584,0.061606 -0.113117,0.08177 H 14.34336 C 13.722249,5.5005719 13.685294,6.5848179 13.271662,6.3392341 13.234401,6.1140893 13.253142,5.9093966 13.253142,5.6436484 13.967003,5.6228971 13.703767,5.4185157 13.497878,5.152779 13.423611,5.0502833 13.384761,4.8867556 13.366259,4.7845465 13.197625,4.1106082 12.502757,3.7015804 11.489757,4.1310595 c -0.658081,0.2657363 -0.487891,1.2273216 -0.432123,1.8817661 -0.03726,0.061045 -0.113117,0.040892 -0.168885,0.040892 -0.713854,0.040904 -1.0328955,0.858503 -1.1832553,1.5132816 0.037255,0.5933412 -0.037255,1.2477738 -0.1316178,1.820053 -0.094364,0.5726388 -0.2817389,1.0226528 -0.300504,1.5747558 -0.037256,0.490868 0.1316184,1.063508 0.094364,1.513523 -0.3948672,1.268224 -0.676893,2.106611 -0.882758,3.45664 -0.1501203,0.306616 -0.6752665,0.961036 -0.8827579,1.104422 -0.055758,0.101919 0.037255,0.327342 -0.055758,0.470155 -0.1688852,0.265736 -0.4321225,0.409112 -0.5822541,0.695587 0.037255,0.06104 -0.2259698,0.122647 -0.2058893,0.225132 0.018515,0.101919 0.1501204,0.367659 0.2058893,0.429264 0.018515,0.0409 0.2058888,-0.06161 0.2058888,0 0.075849,0.245009 0.2447467,0.756594 0.4321223,0.879266 0.826977,0.101908 0.826977,0.101908 1.1644963,0 0.1873879,-0.593343 -0.6380229,-0.327343 -0.563764,-1.125125 1.1274807,-0.245009 1.4835024,-0.593066 1.9341507,-1.881407 0.205888,-0.940885 0.487892,-1.860957 0.919773,-2.760936 0.07428,-0.06104 0.05578,-0.224847 0.187389,-0.286463 0.506392,0.920132 1.427768,1.575114 1.8771,2.536449 0.113118,1.247414 0.339087,1.92231 0.732399,2.147394 0.09436,0.04088 0,0.429265 0.07585,0.511022 0,0.122648 0.03727,0.265735 -0.01852,0.409099 -0.03859,0.102495 -0.0185,0.225132 -0.0185,0.327342 v 0.122648 c 0.0185,0.184829 0.05577,0.184829 0.224656,0.327343 0.487889,0.347492 1.146017,0.89998 1.802471,0.490868 0.300502,-0.532333 -0.337508,-1.206632 -0.788109,-1.554424 -0.15012,-0.122649 -0.413357,-0.429263 -0.376364,-0.633982 0.244747,-0.266023 0.413358,-1.431714 0.319005,-2.331695 -0.03727,-0.20412 -0.07428,-0.40911 -0.150121,-0.572639 -0.224652,-0.470141 -0.731034,-1.124849 -1.162929,-1.594968 0.05577,-0.06104 0.131618,-0.143375 0.224654,-0.184254 0,-0.449704 -0.168885,-0.593065 -0.393276,-0.92012 -0.188966,-0.327343 -0.619485,-0.961036 -0.940105,-1.165705 0,0 0,-0.02076 -0.319007,-0.02076 -0.01852,-0.224845 0.03859,-0.409099 0.09436,-0.654409 0,-0.183966 0.131617,-0.08147 0.168886,-0.49087 0.09436,-0.347493 0.05577,-0.143087 0.131617,-0.4905918 0.07428,-0.163527 0.113117,-0.3273417 0.113117,-0.5933411 0.280424,0.1024968 0.84389,0.08177 1.088611,0 l 0.05577,0.040905 c 0.07584,0.020751 0.09435,-0.1019212 0.150121,-0.1223613 0.432123,-0.245871 0.582254,-0.6751105 0.938528,-0.7160135 0,0 0.188964,-0.1024968 0.469125,0 0.113118,0 0.207479,0.020153 0.207479,-0.1024968 0.01852,-0.183967 0.01852,-0.3267677 0.113118,-0.4499903 0.07427,0.4908689 0.280423,1.0433553 0.656502,1.575115 L 16.895783,9.2856788 C 16.539521,8.8155379 16.31512,8.2837896 16.276309,7.6699016 c 0.0185,0.040891 0.0386,0.081758 0.07586,0.1226484 0.131617,0 0.205888,-0.3069138 0.356272,-0.2864745 0.0185,-0.040892 0.05736,-0.2251328 0.09435,-0.3682205 h 1.407678 L 18.716382,7.0158673 V 6.7294041 l -0.374776,-0.040892 v -0.327342 h -0.09435 V 5.99295 H 18.022605 V 6.3407311 L 17.440349,6.2998395 V 6.0747066 H 17.215692 V 6.279113 L 16.614962,6.21807 V 5.9111675 h -0.22597 v 0.2864626 l -0.88276,-0.061044 V 6.0349638 h 6.6e-4 z"
     id="path14" />
  <circle
     style="opacity:0.98000004;fill:#000000;fill-opacity:0;stroke:#000000;stroke-width:0.94751114;stroke-miterlimit:4;stroke-dasharray:none;stroke-opacity:1"
     id="path830"
     cx="11.971443"
     cy="12.041493"
     r="11.574707" />
</svg>
