<svg role="img" viewBox="0 0 24 24" xmlns="http://www.w3.org/2000/svg"><title>Counter-Strike icon</title><path d="M11.247 0a1.912 1.912 0 0 0-1.326.475c-.474.426-.679 1.073-.71 1.705-.016.284.11.568.189.836a1.917 1.917 0 0 1-.175.192c-.126-.095-.22-.254-.379-.254-.473-.015-.978.141-1.326.473-.521.49-.806 1.17-.932 1.865-.095.537-.126 1.105 0 1.658.016.079 0 .174 0 .253-.205.063-.41.127-.615.096-.174-.032-.381 0-.46.157-.079.57-.015 1.138-.157 1.69-.048.285-.095.568-.08.852.332.11.68.142 1.027.221-.269.016-.568.112-.726.35-.048.442-.032.898.079 1.34.047.411.048.84.095 1.25-.031-.016-.11-.033-.142-.05-.285.112-.253.46-.332.697.063.047.14.11.204.157-.063.095-.126.206-.19.3l.143.237-.047.221c.032.11.127.19.19.268-.126.743-.269 1.47-.332 2.212-.032.253.063.507.032.76 0 .205-.159.346-.254.52-.094.142-.095.317-.22.427-.19.206-.3.457-.442.694-.142.284-.332.554-.332.886-.015.142-.001.283-.049.425-.126.332-.377.6-.472.948a2.138 2.138 0 0 0-.047.632c0 .126.11.189.19.268-.206.742-.38 1.486-.586 2.229-.095.268-.062.567-.015.851.016.063-.001.144.062.192.6.19 1.234.125 1.85.046.031-.19.078-.378.015-.568-.064-.142-.158-.27-.158-.428a5.925 5.925 0 0 1 .032-1.058c.095-.363.252-.695.394-1.043.126-.016.284-.046.347-.172.158-.3.238-.634.349-.95.221-.426.458-.867.568-1.34.063-.19-.063-.396-.032-.586.08-.174.173-.347.237-.536.063-.142.222-.175.317-.285.142-.174.205-.378.3-.584.126-.063.268-.112.347-.238a1.68 1.68 0 0 0 .11-.49c.032-.347.19-.663.3-.979.095-.253.19-.505.3-.758.111-.142.27-.252.365-.41.11-.158.142-.364.19-.554.11.237.22.49.393.68.158.11.363.094.536.11.411.616.84 1.248 1.25 1.864.174.3.584.239.868.207.063.126.174.237.222.379-.016.268-.047.55-.08.82-.125.11-.236.236-.22.41.015.616.061 1.233.172 1.833.063.221.143.459.143.696-.016.095.094.126.157.157l.096 1.486c.016.142-.126.237-.158.38-.079.41-.238.82-.206 1.246.332.253.758.11 1.122.094.268.032.52.143.79.207a7.385 7.385 0 0 0 2.036 0c.032-.19.096-.395-.014-.569-.285-.284-.68-.316-1.012-.474-.3-.3-.583-.632-.836-.98-.19-.52-.048-1.059-.064-1.596.19-.174.19-.425.207-.662.015-.253-.095-.505-.111-.758.047-.331.126-.664.157-.996.048-.474.08-.948.111-1.422 0-.205.032-.41-.079-.583-.126-.19-.064-.427-.127-.632-.048 0-.143.015-.19.015-.268-.711-.522-1.422-.853-2.101a7.27 7.27 0 0 0-1.327-1.912c-.094-.19-.094-.41-.157-.615-.079-.174.062-.315.126-.458.173.08.331.157.521.173.284-.3.49-.71.475-1.12.031-.568.095-1.138.11-1.707 0-.174-.064-.332-.127-.475-.095-.19-.331-.25-.505-.33.08-.19.19-.379.158-.6.363.206.71.427 1.09.6.347.158.712.347 1.106.316.08.063.158.142.269.11.3-.016.553-.236.742-.457a.922.922 0 0 0 .552-.633c.063-.316.142-.648.221-.964.142-.031.3-.079.443-.11-.126-.459-.3-.916-.221-1.405a.492.492 0 0 0 .253-.19c.095-.174.362-.238.315-.475a.584.584 0 0 0 .317-.142h2.258v-.3c.269.047.554.064.822-.015h1.373c.079.047.142.078.221.125a.51.51 0 0 0 .096-.078h.758a.946.946 0 0 0-.017-.362h-.74a.502.502 0 0 0-.097-.064c-.079.032-.157.062-.204.126-.521 0-1.027.015-1.533 0-.031-.095.001-.174.064-.237-.015-.063-.033-.11-.049-.157-.094-.032-.173.015-.236.078 0-.031-.015-.094-.015-.125a.126.126 0 0 1-.08-.032c-.016-.284 0-.554 0-.839h-.205v1.028h-.175v-.268c-1.832 0-3.678-.016-5.51 0a.77.77 0 0 1-.018-.19c-.094-.015-.22.015-.3-.048-.047-.158-.03-.315-.046-.473a.375.375 0 0 1-.128.03c0 .221-.078.428-.094.65-.142.015-.315-.05-.426.061-.3.063-.6.127-.9.143.047-.032.078-.062.126-.094-.032-.221-.11-.428-.08-.65.206-.078.459-.126.601-.3.174-.52.063-1.057-.142-1.547 0-.079.064-.19-.015-.253-.158-.127-.365-.173-.539-.283-.221-.142-.425-.285-.662-.364A1.814 1.814 0 0 0 11.247 0zm4.094 4.91c.092-.01.179.003.234.067 0 .126.063.346-.11.393-.222.016-.442 0-.663 0 .08-.047.172-.047.251-.078.064-.095.033-.205.017-.315.08-.024.178-.056.27-.066zm-.696.54c.284.03.567 0 .851.016-.237.237-.395.521-.6.79-.142-.174-.221-.444-.38-.617.048-.064.081-.127.129-.19Z"/></svg>