<svg role="img" viewBox="0 0 24 24" xmlns="http://www.w3.org/2000/svg"><title>Coursera icon</title><path d="M23.992 11.806a5.091 5.091 0 0 0-.018-.279v-.002-.002a5.98 5.98 0 0 0-.99-2.814 6.217 6.217 0 0 0-.867-1.039 6.289 6.289 0 0 0-1.64-1.13 7.016 7.016 0 0 0-3.051-.668 7.35 7.35 0 0 0-2.546.444 6.323 6.323 0 0 0-1.822.996 6.45 6.45 0 0 0-.333.29l-.085.085-.117.125h.001l-.056.055-.026.028-.141.147c-.104.117-.202.234-.296.349v-.002l-.004-.003c-.192.233-.37.476-.5.693-.089.14-.176.283-.259.427l-1.147 2.319.002.001-.06.118-.126.256c-.251.509-.521 1.017-.821 1.435-.672.737-1.431 1.098-2.406 1.098-.068 0-.139-.003-.209-.008-.588-.023-1.092-.162-1.539-.427a2.576 2.576 0 0 1-.994-1.03 2.659 2.659 0 0 1-.326-1.369l.002-.034c.031-.76.321-1.352.904-1.861.142-.124.291-.228.446-.32.021-.013.044-.024.065-.036.434-.237.927-.355 1.492-.355l.176.005c.899.034 1.592.314 2.145.863l1.734-3.113a6.845 6.845 0 0 0-1.399-.71c-.019-.007-.04-.016-.06-.022-.062-.022-.123-.045-.186-.065a7.425 7.425 0 0 0-1.716-.348 5.545 5.545 0 0 1-.046-.006c-.091-.005-.184-.016-.275-.02a9.966 9.966 0 0 0-.297-.007h-.055a7.005 7.005 0 0 0-3.028.67 6.176 6.176 0 0 0-2.502 2.166A6.006 6.006 0 0 0 0 12.087c-.002 1.564.568 2.938 1.701 4.093 1.184 1.211 2.721 1.864 4.567 1.941.118.005.235.008.353.008 1.045 0 2.011-.186 2.878-.558.217-.093.427-.201.642-.322.117-.067.228-.139.338-.215l.08-.055.137-.093c.164-.118.317-.246.467-.381l.052-.05c.088-.083.176-.168.259-.255l.311-.352.118-.148.056-.081.055-.079c.462-.776 1.965-3.601 1.965-3.601v-.006l.09-.172.074-.135c.222-.403.382-.689.594-.99l.006-.01c.493-.717 1.344-1.227 2.346-1.313 1.68-.145 3.152.959 3.287 2.465.135 1.507-1.117 2.846-2.798 2.991a3.417 3.417 0 0 1-1.011-.064l-.009.003c-1.232-.257-2.017-1.155-2.404-1.558l-1.617 2.974s.503.506.847.759c.346.253.791.501 1.146.656a7.151 7.151 0 0 0 2.838.589c.121 0 .097 0 .222-.005 1.844-.077 3.489-.784 4.675-1.995 1.123-1.15 1.733-2.463 1.738-4.018v-.047l-.011-.257z"/></svg>