<svg aria-labelledby="simpleicons-coursera-icon" role="img" viewBox="0 0 24 24" xmlns="http://www.w3.org/2000/svg"><title id="simpleicons-coursera-icon">Coursera icon</title><path d="M23.89 11.802c-.005-.094-.01-.186-.018-.277v-.006c-.09-1.01-.424-1.96-.986-2.81-.254-.38-.543-.73-.866-1.04-.47-.45-1.016-.82-1.628-1.12-.926-.44-1.95-.66-3.04-.66-.105 0-.22 0-.33.01-.768.04-1.508.18-2.205.43-.7.25-1.314.593-1.807 1-.105.09-.21.18-.328.3l-.09.09-.105.13-.045.06-.03.03-.134.146c-.104.12-.194.24-.283.347h-.047c-.19.235-.37.48-.498.684-.09.135-.176.284-.258.433l-1.14 2.24h.002l-.06.12-.125.254c-.26.51-.52 1.018-.82 1.436-.67.735-1.43 1.095-2.4 1.095h-.21c-.58-.02-1.09-.167-1.53-.42l-.14-.09c-.37-.24-.64-.54-.85-.93-.24-.446-.34-.894-.33-1.37l.01-.03c.03-.76.32-1.34.9-1.85.14-.12.29-.23.44-.318.02-.02.04-.02.06-.03.43-.23.92-.348 1.48-.348l.17.014c.895.03 1.59.314 2.135.85l1.726-3.13c-.415-.27-.88-.506-1.394-.7l-.06-.015c-.06-.02-.12-.048-.18-.06-.55-.18-1.12-.287-1.71-.346h-.04l-.28-.04-.298-.003H6.5c-1.083.004-2.092.226-3.015.67C2.46 7.063 1.62 7.78 1 8.72c-.614.94-.95 1.977-1 3.09-.005.09-.008.18-.008.288 0 1.553.568 2.926 1.696 4.077 1.17 1.194 2.7 1.85 4.54 1.924h.35c1.04 0 2-.2 2.867-.57.21-.09.42-.193.636-.316.12-.06.24-.14.35-.21l.09-.048.136-.09c.165-.106.33-.24.48-.375l.06-.043c.09-.07.18-.16.27-.25l.315-.346.12-.143.043-.09.06-.074c.46-.777 1.955-3.584 1.955-3.584v-.02l.09-.16.076-.137c.225-.4.39-.684.6-.982v-.02c.49-.72 1.34-1.226 2.343-1.31 1.673-.15 3.15.955 3.285 2.45.14 1.5-1.12 2.83-2.79 2.974-.34.03-.685 0-1-.06-1.223-.25-2-1.15-2.39-1.55l-1.61 2.96s.51.5.85.754.794.5 1.15.65c.855.37 1.796.587 2.826.587.12 0 .09 0 .22-.01 1.84-.075 3.48-.778 4.66-1.987 1.12-1.15 1.73-2.45 1.73-4v-.3h-.11z"/></svg>