<svg role="img" viewBox="0 0 24 24" xmlns="http://www.w3.org/2000/svg"><title>Coze</title><path d="M0 21.4V2.6C.2 1.4 1.1.4 2.2.2c.2-.1.3-.2.5-.2h18.8c1.2.2 2.2 1.1 2.4 2.2 0 .1.1.3.1.4v18.8c-.2 1.2-1.1 2.2-2.2 2.4-.1 0-.3.1-.4.1H2.6C1.4 23.7.4 22.8.2 21.7c-.1-.1-.2-.2-.2-.3m18.4-10.2V9.6q0-.75-.3-1.5c-.4-1-.9-1.9-1.7-2.6-.4-.4-.8-.7-1.3-.9-1.2-.6-2.4-.8-3.8-.7-1.6.2-3 1-4 2.3-.9 1.2-1.4 2.5-1.4 4v2.4c0 .2 0 .2-.2.2H4.5c-.3 0-.6 0-.9.2-.6.3-.8.9-.7 1.5s.4 1 1 1.2 1.2.4 1.9.6c.1 0 .1.1.1.2v1c0 1.1 1.2 1.8 2.2 1.3.3-.2.7-.3 1-.5.2-.1.2-.1.3.1.2.6.5 1 1 1.4.6.4 1.2.6 1.9.6.5 0 .9-.1 1.4-.4.6-.4 1.1-.9 1.3-1.6.1-.2.1-.2.3-.1.3.2.7.3 1 .5 1 .5 2.2-.2 2.2-1.4v-1c0-.1 0-.2.2-.2l1.8-.6c.7-.2 1.1-.8 1.1-1.6 0-.5-.3-1-.8-1.2-.3-.2-.6-.2-.9-.2h-1.2c-.2 0-.2 0-.2-.2-.1-.3-.1-.8-.1-1.2M12 16.4c-.7 0-1.3-.3-1.8-.8-.3-.2-.3-.6 0-.9.2-.2.6-.3.8-.1.1.1.3.2.4.3.6.3 1.3.2 1.7-.2.2-.2.4-.2.7-.2.2.1.4.2.4.5 0 .2 0 .4-.2.6-.5.5-1.2.8-1.9.8zm-2-3.1v.6c0 .3-.3.6-.6.6s-.6-.3-.6-.6v-1.3c0-.3.3-.6.6-.6s.6.3.6.6zm4.8-.6c.4 0 .6.3.6.6 0 .4-.3.6-.6.6-.4 0-.6-.3-.6-.6s.3-.6.6-.6"/></svg>