<svg role="img" viewBox="0 0 24 24" xmlns="http://www.w3.org/2000/svg"><title>Crayon</title><path d="M22.085 7.476a6.524 6.524 0 0 0-4.548-1.892 6.298 6.298 0 0 0-4.468 1.854l-5.798 5.798 1.426 1.425 5.798-5.75c1.663-1.663 4.372-1.663 6.083 0l.095.095c1.664 1.663 1.664 4.372 0 6.083l-.095.095c-1.663 1.664-4.372 1.664-6.083 0l-.475-.475-1.426 1.426.475.475c2.472 2.471 6.511 2.471 8.982 0l.096-.095c2.47-2.471 2.47-6.511 0-8.982-.114-.094-.062-.057-.062-.057zm-20.18 9.086a6.396 6.396 0 0 0 4.51 1.854 6.298 6.298 0 0 0 4.468-1.854l5.798-5.798-1.426-1.425-5.798 5.75c-1.663 1.663-4.372 1.663-6.083 0l-.095-.095c-1.663-1.663-1.663-4.372 0-6.083l.095-.095c1.664-1.664 4.373-1.664 6.083 0l.476.523 1.425-1.426-.475-.523c-2.471-2.471-6.51-2.471-8.982 0l-.048.052c-2.47 2.471-2.47 6.602 0 9.073z"/></svg>