<svg role="img" viewBox="0 0 24 24" xmlns="http://www.w3.org/2000/svg"><title>Crew United</title><path d="M11.992 3.903a3.233 3.233 0 0 0-2.854 4.754c-.903-.53-1.9-.78-3.023-.78H6.11a6.177 6.177 0 0 0-1.316.143A6.111 6.111 0 0 0 6.11 20.097l.715-.043c.21-.024.418-.06.621-.105.034-.008.069-.015.103-.024a6.088 6.088 0 0 0 2.232-1.054l3.537-2.85a6.11 6.11 0 1 0 3.538-10.073l-3.44-1.72.005.008a3.218 3.218 0 0 0-1.43-.333zm4.315 2.85 6.673 3.265a5.452 5.452 0 0 1-9.149 5.589l1.287-1.037a2.913 2.913 0 1 0-.322-3.125l-3.273-1.612a.64.64 0 0 1 .623-1.118l.444.216.594.29a5.476 5.476 0 0 1 3.123-2.469zM6.11 8.534A5.452 5.452 0 0 1 6.751 19.4l-.67.038a5.451 5.451 0 0 1 .03-10.903zm4.842 1.725 5.29 2.514-4.614 3.84c.38-.796.593-1.686.593-2.627a6.082 6.082 0 0 0-1.27-3.727zm5.833-1.587-.132-.643a4.63 4.63 0 0 0-2.424 1.212l.632.315a3.972 3.972 0 0 1 1.924-.884"/></svg>