<svg role="img" viewBox="0 0 24 24" xmlns="http://www.w3.org/2000/svg"><title>CrewAI</title><path d="M13.69 0c-.38.0199-.79.0746-1.21.17C7.159 1.309 1.471 9.064 1.42 15.37c-.052 5.32 2.862 8.44 8.034 8.63h.866c6.67-.25 14.03-6.91 11.88-10.9-.67-1.29-1.39-1.35-2.69-.21-1.61 1.4-1.64.31-.19-2.9 1.74-3.976 1.69-5.32-.32-7.544C17.54.9151 16.03.0944 14.34 0Zm.34.5527c1.31 0 2.54.5423 3.78 1.6273v.06c2.28 2.016 2.39 4.239.45 8.43-1.38 3.1-2.16 3.51-3.81 1.86-1.24-1.24-1.35-3.467-.26-6.052 1.14-2.638.98-3.102-.57-1.654C9.897 8.185 7.159 14.6 8.192 17.33c.466 1.2.828 1.4 2.738 1.4 2.79 0 6.31-1.7 7.96-3.93 1.76-2.27 2.79-2.27 2.79-.11 0 3.91-6.45 8.65-11.63 8.65-6.253 0-9.3509-4.74-7.493-11.49.878-2.998 4.447-7.912 7.084-9.67C11.27 1.095 12.69.5527 14.03.5527Z"/></svg>