<svg role="img" viewBox="0 0 24 24" xmlns="http://www.w3.org/2000/svg"><title>Cricbuzz</title><path d="M 10.26,23.89 C 7.912,23.57 5.554,22.41 3.706,20.66 2.98,19.98 2.046,18.79 1.569,17.94 1.286,17.44 1.251,17.31 1.141,16.42 1.074,15.89 1.02,15.34 1.02,15.21 1.02,15.04 0.9577,14.9 0.8342,14.77 0.7317,14.67 0.6479,14.52 0.6479,14.45 c 0,-0.2 -0.077,-0.38 -0.1585,-0.38 -0.078,0 -0.041,0.2 0.174,0.93 0.1888,0.65 0.4296,1.86 0.3526,1.78 C 0.896,16.65 0.4957,15.49 0.3139,14.74 -0.2089,12.59 -0.0731,10.08 0.68,7.986 1.649,5.294 3.377,3.199 5.931,1.621 6.763,1.107 8.267,0.514 9.405,0.252 10.33,0.0396 12.23,-0.0664 13.13,0.0447 c 1.84,0.2268 2.78,0.4907 4.1,1.1493 3.51,1.746 5.98,5.024 6.64,8.806 0.1,0.53 0.13,1.14 0.13,2.09 0,1.17 0,1.46 -0.2,2.24 -0.91,4.21 -3.58,7.35 -7.58,8.91 -1.75,0.69 -3.94,0.92 -5.96,0.65 z M 8.213,17.1 c 1.147,-0.31 2.077,-1 2.557,-1.9 0.22,-0.42 0.54,-1.21 0.54,-1.37 0,0 -0.6,-0.1 -1.334,-0.1 h -1.33 l -0.1,0.3 c -0.248,0.75 -0.828,1.13 -1.808,1.18 -0.591,0 -0.689,0 -1.057,-0.17 C 5.346,14.92 5.248,14.82 5.088,14.5 4.619,13.56 5.004,11.33 5.773,10.54 6.144,10.16 6.694,9.965 7.398,9.965 c 0.307,0 0.668,0.05 0.802,0.105 0.359,0.15 0.623,0.51 0.72,0.98 l 0.09,0.41 h 1.33 1.34 V 11.22 C 11.68,10.26 11.31,9.299 10.77,8.808 10.09,8.195 9.254,7.983 7.579,7.997 6.587,8.005 6.234,8.038 5.753,8.165 4.813,8.414 4.259,8.722 3.666,9.323 2.876,10.13 2.482,11.05 2.244,12.67 c -0.407,2.76 0.533,4.19 2.979,4.54 0.682,0.1 2.466,0 2.99,-0.11 z m 10.567,0.1 c 1.58,-0.33 2.58,-1.42 3.06,-3.32 0.35,-1.36 0.44,-2.85 0.23,-3.72 C 21.86,9.225 21.5,8.735 20.77,8.372 19.6,7.781 17.62,7.85 16.46,8.522 c -0.18,0.103 -0.33,0.175 -0.34,0.162 0,-0.01 0.1,-0.899 0.26,-1.967 0.16,-1.067 0.29,-1.983 0.29,-2.034 0,-0.07 -0.31,-0.09 -1.33,-0.09 h -1.33 v 0.28 C 13.89,5.677 12.32,16.9 12.32,17.01 c 0,0.11 0.12,0.12 1.04,0.12 h 1.04 l 0.23,-0.42 0.24,-0.42 0.24,0.23 c 0.52,0.5 1.34,0.75 2.51,0.75 0.39,0 0.93,0 1.21,-0.1 z m -2.19,-1.93 c -0.19,-0.1 -0.44,-0.15 -0.54,-0.22 -0.5,-0.33 -0.68,-1.29 -0.47,-2.49 0.32,-1.81 0.99,-2.567 2.28,-2.564 0.98,0 1.4,0.324 1.59,1.224 0.18,0.86 -0.16,2.59 -0.64,3.3 -0.43,0.64 -1.42,0.97 -2.22,0.75 z M 0.9342,12.56 0.7649,12.24 0.7129,12.61 c -0.1074,0.78 -0.077,1.2 0.1027,1.43 l 0.1676,0.21 0.06,-0.68 c 0.06,-0.63 0.05,-0.71 -0.1082,-1.01 z M 0.4943,11.89 c -0.047,-0.11 -0.1374,-0.25 -0.2001,-0.3 -0.1016,-0.1 -0.108,0 -0.059,0.57 0.034,0.41 0.1028,0.74 0.178,0.86 0.1202,0.18 0.1229,0.18 0.1446,-0.36 0.012,-0.31 -0.017,-0.65 -0.064,-0.77 z M 1.48,10.93 C 1.56,10.56 1.55,10.49 1.39,10.15 L 1.224,9.778 1.122,10.11 c -0.06,0.19 -0.143,0.53 -0.1917,0.77 -0.082,0.4 -0.076,0.45 0.088,0.78 l 0.175,0.36 0.101,-0.34 C 1.349,11.5 1.433,11.16 1.48,10.93 Z m -0.7904,0 c 0.027,-0.2 0.076,-0.46 0.109,-0.62 C 0.845,10.09 0.8253,9.944 0.7144,9.685 0.6348,9.499 0.553,9.363 0.5326,9.383 c -0.02,0.02 -0.085,0.313 -0.1443,0.647 -0.097,0.56 -0.096,0.64 0.015,0.87 0.1574,0.33 0.2257,0.33 0.2859,0 z M 2.049,9.241 C 2.333,8.618 2.367,8.333 2.217,7.801 L 2.123,7.466 1.986,7.726 C 1.91,7.869 1.743,8.243 1.615,8.557 L 1.382,9.128 1.547,9.512 c 0.09,0.21 0.181,0.367 0.2,0.347 C 1.766,9.84 1.902,9.562 2.049,9.241 Z M 1.353,8.437 C 1.554,7.883 1.555,7.876 1.429,7.497 1.359,7.287 1.277,7.143 1.246,7.177 1.215,7.212 1.097,7.483 0.9825,7.779 0.7765,8.314 0.7759,8.32 0.9039,8.656 0.9748,8.842 1.059,8.994 1.091,8.994 c 0.03,0 0.15,-0.251 0.262,-0.557 z M 3.174,7.126 c 0.364,-0.574 0.38,-0.623 0.38,-1.12 0,-0.286 -0.03,-0.52 -0.07,-0.52 -0.04,0 -0.273,0.302 -0.525,0.671 l -0.46,0.672 0.09,0.448 c 0.05,0.246 0.114,0.448 0.146,0.448 0.03,0 0.228,-0.27 0.437,-0.599 z M 2.137,6.736 C 2.233,6.562 2.41,6.274 2.53,6.097 2.732,5.799 2.744,5.741 2.697,5.332 2.669,5.088 2.624,4.89 2.597,4.891 2.532,4.894 2.338,5.165 1.952,5.793 L 1.632,6.312 1.75,6.683 c 0.07,0.204 0.14,0.37 0.165,0.37 0.03,0 0.126,-0.142 0.222,-0.317 z M 4.62,5.225 5.201,4.611 5.179,4.115 5.157,3.619 4.542,4.229 3.927,4.84 v 0.509 c 0,0.281 0.02,0.506 0.06,0.5 0.03,0 0.317,-0.286 0.637,-0.624 z M 3.741,4.538 C 4.157,4.073 4.191,4.008 4.225,3.605 4.246,3.366 4.237,3.171 4.206,3.171 4.175,3.171 3.913,3.415 3.624,3.713 3.163,4.188 3.104,4.28 3.14,4.469 3.16,4.587 3.18,4.763 3.18,4.86 c 0,0.1 0.02,0.178 0.06,0.178 0.03,0 0.257,-0.225 0.503,-0.5 z M 6.315,3.617 C 6.859,3.202 6.915,3.135 7.026,2.753 7.092,2.525 7.128,2.322 7.106,2.3 7.085,2.278 6.763,2.469 6.392,2.724 5.815,3.12 5.716,3.218 5.716,3.394 c 0,0.114 -0.02,0.312 -0.05,0.44 -0.02,0.128 -0.02,0.233 0,0.233 0.03,0 0.316,-0.202 0.641,-0.45 z M 5.281,3.061 C 5.723,2.694 5.778,2.617 5.825,2.308 5.853,2.118 5.862,1.949 5.844,1.931 5.807,1.894 5.069,2.382 4.886,2.565 4.768,2.682 4.642,3.47 4.742,3.47 4.768,3.47 5.01,3.286 5.281,3.061 Z M 8.175,2.39 C 8.502,2.208 8.62,2.088 8.758,1.801 c 0.1,-0.199 0.154,-0.38 0.131,-0.403 -0.02,-0.02 -0.3,0.09 -0.616,0.25 -0.54,0.275 -0.579,0.311 -0.67,0.628 -0.05,0.184 -0.1,0.36 -0.1,0.389 0,0.07 0.18,0 0.669,-0.275 z M 6.946,1.958 C 7.307,1.753 7.526,1.576 7.57,1.455 7.608,1.352 7.662,1.209 7.691,1.137 7.77,0.9432 7.623,0.9717 6.975,1.276 6.482,1.508 6.396,1.577 6.357,1.771 c -0.06,0.278 -0.06,0.505 0,0.505 0.02,0 0.289,-0.143 0.594,-0.318 z M 10.17,1.475 c 0.1,-0.04 0.34,-0.5402 0.3,-0.5886 0,-0.013 -0.23,0.038 -0.472,0.1126 C 9.63,1.111 9.532,1.178 9.424,1.388 9.174,1.873 9.178,1.874 10.17,1.475 Z M 8.662,1.185 C 9.13,1.019 9.221,0.9574 9.289,0.7634 9.395,0.4583 9.396,0.4609 9.163,0.518 8.288,0.7322 8.2,0.7781 8.08,1.084 8.01,1.257 8,1.38 8.04,1.38 8.08,1.38 8.362,1.292 8.663,1.185 Z M 11.56,1.037 c 0.5,-0.13 0.64,-0.2147 0.64,-0.3857 0,-0.094 -0.1,-0.1046 -0.43,-0.063 -0.66,0.078 -0.75,0.1157 -0.83,0.3506 -0.1,0.2621 0,0.2701 0.62,0.098 z m 2.16,-0.4509 c 0,-0.08 -0.1,-0.1021 -0.43,-0.1021 -0.45,0 -0.64,0.08 -0.64,0.2618 0,0.1235 1.02,-0.029 1.07,-0.1597 z M 10.1,0.6972 c 0.4,-0.098 0.53,-0.1845 0.53,-0.3439 0,-0.1756 -0.738,-0.06 -0.908,0.1415 C 9.47,0.794 9.543,0.833 10.1,0.6972 Z m 5.49,-0.069 c -0.38,-0.1162 -1.38,-0.176 -1.38,-0.083 0,0.051 0.23,0.092 0.62,0.1076 0.34,0.014 0.7,0.029 0.8,0.034 0.16,0.01 0.16,9e-4 0,-0.059 z m -3.8,-0.2647 c 0.15,-0.059 0.1,-0.217 -0.1,-0.2087 -0.1,0 -0.26,0.012 -0.42,0.019 -0.22,0.01 -0.32,0.054 -0.38,0.173 -0.1,0.1577 -0.1,0.1597 0.32,0.1121 0.23,-0.027 0.47,-0.069 0.54,-0.095 z m 1.57,-0.1072 c -0.43,-0.087 -1.14,-0.084 -1.2,0 0,0.048 0.23,0.072 0.72,0.066 0.62,-0.01 0.71,-0.021 0.48,-0.07 z"/></svg>