<svg role="img" viewBox="0 0 24 24" xmlns="http://www.w3.org/2000/svg"><title>Crossplane</title><path d="M17.67 5.963a5.663 5.663 0 0 0-1.035-3.555L6.322 12.747v2.718c0 1.15.609 2.16 1.515 2.737l9.84-9.865V6.124c0-.055-.005-.107-.007-.16M8.83 18.62c.237.056.48.092.732.092h.974v3.862A1.425 1.425 0 0 0 11.96 24c.786 0 1.423-.638 1.423-1.426v-1.38l-2.46-2.466-.017-.016h3.533a3.253 3.253 0 0 0 3.24-3.248V9.752zM12 0a5.683 5.683 0 0 0-5.671 5.981c-.002.048-.007.095-.007.143v5.206l9.661-9.684A5.64 5.64 0 0 0 12 0"/></svg>