<svg role="img" viewBox="0 0 24 24" xmlns="http://www.w3.org/2000/svg"><title>CrowdStrike</title><path
d="M25.988 13.582v.003l.004-.008zm0-.292v.292a7.04 7.04 0 0 1-3.73 2.386 47 47 0 0 0-4.663-3.378c-.46-.308-.944-.623-1.455-.954-.945-.614-1.978-1.284-3.096-2.072a2 2 0 0 0-.021-.198c-.012-.085-.023-.17-.023-.259C13 5.038 16.186 2 20.393 2A7.16 7.16 0 0 1 26 4.646v.295l-2.452 2.148h-.286a3.94 3.94 0 0 0-2.881-1.327 3.17 3.17 0 0 0-2.327.97 3.3 3.3 0 0 0-.923 2.383 3.3 3.3 0 0 0 .919 2.38c.61.632 1.448.984 2.319.974 1.1-.018 2.143-.5 2.881-1.331h.286zm-11.448.224-.004-.006h-.004zm4 2.486a7.12 7.12 0 0 1-4-2.486q.164.106.322.213c.164.109.327.218.503.327 1 .688 2.071 1.31 3.175 1.946M40.356 12.377 41 15.086l-.092.296a2.77 2.77 0 0 1-1.806.617c-1.672 0-2.6-.402-3.762-2.2l-.05-.082c-.576-.927-1.741-2.802-2.658-2.802h-.39v4.829H28V2h6.395c3.679 0 5.66 1.775 5.66 4.593.014 1.66-1.031 3.155-2.625 3.753.448.282.817.667 1.075 1.12l.037.06c.25.39.546.85 1.016.85a1 1 0 0 0 .56-.146zM35.708 6.81c.011.378-.144.742-.427 1.001-.284.26-.67.388-1.057.353h-1.982v-2.79h1.982c.398-.02.787.125 1.07.399.282.273.433.65.414 1.037M48.498 2C52.788 2 56 4.992 56 9c0 3.988-3.215 7-7.502 7S41 13.008 41 9s3.207-7 7.498-7m1.699 9.956A3.3 3.3 0 0 0 51.825 9a3.3 3.3 0 0 0-1.628-2.956 3.35 3.35 0 0 0-3.394 0A3.3 3.3 0 0 0 45.175 9a3.3 3.3 0 0 0 1.628 2.956 3.35 3.35 0 0 0 3.394 0"/></svg>