<svg role="img" viewBox="0 0 24 24" xmlns="http://www.w3.org/2000/svg"><title>Crunchyroll</title><path d="M2.909 13.436C2.914 7.61 7.642 2.893 13.468 2.898c5.576.005 10.137 4.339 10.51 9.819q.021-.351.022-.706C24.007 5.385 18.64.006 12.012 0S.007 5.36 0 11.988 5.36 23.994 11.988 24q.412 0 .815-.027c-5.526-.338-9.9-4.928-9.894-10.538Zm16.284.155a4.1 4.1 0 0 1-4.095-4.103 4.1 4.1 0 0 1 2.712-3.855 8.95 8.95 0 0 0-4.187-1.037 9.007 9.007 0 1 0 8.997 9.016q-.001-.847-.15-1.651a4.1 4.1 0 0 1-3.278 1.63Z"/></svg>