<svg role="img" viewBox="0 0 24 24" xmlns="http://www.w3.org/2000/svg"><title>CRYENGINE icon</title><path d="M10.783,6.691c-5.211,1.217-8.305,5.165-8.305,5.677 c0,0.008,0.002-0.027,0.004,0.079l0,0.015h0.001c0.106,0.562,1.645,3.266,7.6,4.873c-6.824-0.543-9.923-3.87-10.075-4.844 l-0.004-0.029H0.002C0.001,12.38,0,12.377,0,12.383l0.001-0.025C0.086,11.348,4.347,7.154,10.783,6.691z M12.755,6.664 c7.016,0.367,11.127,4.512,11.243,5.742L24,12.44c0-0.002-0.001,0.006-0.002,0.071l0,0.015h-0.003 c-0.055,0.593-2.308,3.007-5.678,4.118c-4.118,1.358-10.745,0.863-10.745-4.314c0-2.43,1.974-4.407,4.398-4.407 c2.447,0,4.411,1.987,4.411,4.417c0,1.184-0.51,2.331-1.282,3.142c0.723-0.012,3.349-0.206,5.826-2.252 c0.273-0.267,0.448-0.491,0.522-0.629c0.019-0.037,0.048-0.099,0.044-0.16C21.49,11.914,18.644,7.83,12.755,6.664z M11.967,9.826 c-1.379,0-2.497,1.121-2.497,2.505c0,1.383,1.118,2.505,2.497,2.505c1.379,0,2.497-1.122,2.497-2.505 C14.464,10.947,13.346,9.826,11.967,9.826z"/></g></svg>