<svg role="img" viewBox="0 0 24 24" xmlns="http://www.w3.org/2000/svg"><title>CRYENGINE icon</title><path d="M14.704 14.871c.296 0 .58.103.807.289l.014.01-.15.24a.995.995 0 10.312.887l.002-.014h-.85l.172-.277h.965v.14c0 .7-.57 1.271-1.27 1.271a1.273 1.273 0 01-.002-2.545zm-13.433 0c.347 0 .68.145.918.393l.012.012-.157.242a.995.995 0 10-.026 1.28l.01-.012.21.18A1.272 1.272 0 010 16.142c0-.7.57-1.27 1.271-1.27zm2.439.016c.638 0 .893.3.893.733 0 .362-.184.618-.62.705l-.015.003.702 1.074h-.336l-.662-1.057h-.478v1.057H2.92v-2.515zm5.876 2.272v.243H7.865v-.243zM5.57 14.887l.69 1.148a.47.47 0 01.046.115c.01-.03.019-.067.043-.11l.006-.01.687-1.144h.297l-1.563 2.517h-.27l.646-1.049-.882-1.467zm17.51 2.272v.243h-1.72v-.243zm-4.557-2.272l1.51 2.084c-.012-.06-.02-.081-.02-.127v-1.957h.271v2.516h-.257l-1.514-2.09c.01.033.023.078.024.142v1.948h-.272v-2.516zm-1.36 0v2.516h-.272v-2.516zm-6.391 0l1.51 2.084c-.012-.06-.02-.081-.02-.127v-1.957h.272v2.516h-.258l-1.514-2.09c.01.033.023.078.024.142v1.948h-.272v-2.516zm12.309 1.064v.247H21.36v-.248zm-13.495 0v.247H7.865v-.248zm-5.872-.821h-.52v.967h.517c.383 0 .614-.113.614-.478 0-.367-.232-.49-.611-.49zm19.977-.566a.292.292 0 110 .583.292.292 0 110-.583zm-.61.322v.245H21.36v-.244zm-13.495 0v.245h-1.47l.151-.244zm14.105-.273a.242.242 0 100 .484.242.242 0 100-.485zm.002.09c.075 0 .108.038.108.091 0 .04-.018.07-.059.084l-.006.002.08.123h-.058l-.067-.104c-.002-.002-.003-.007-.004-.01v-.004h-.058v.118h-.048v-.3zm.001.046h-.065v.091h.064c.041 0 .06-.01.06-.045 0-.033-.019-.046-.059-.046zM10.902 6.602l.088-.007c-2.359.55-3.759 2.33-3.759 2.562 0 .002.001-.008.002.037V9.2h.001c.048.253.745 1.474 3.439 2.2-3.088-.244-4.491-1.746-4.56-2.187l-.001-.014H6.11c0-.045-.001-.036-.001-.033v-.014c.038-.452 1.928-2.31 4.792-2.55l.088-.007zm.98-.02c3.207.168 5.073 2.074 5.09 2.609v-.002l-.001.033v.006h-.002c-.025.268-1.045 1.357-2.57 1.859-1.863.612-4.862.39-4.862-1.947a1.993 1.993 0 013.986.005c0 .535-.23 1.052-.58 1.419a4.423 4.423 0 002.636-1.017c.123-.12.202-.222.235-.284a.14.14 0 00.02-.072c.001-.24-1.287-2.083-3.952-2.608zm-.357 1.427a1.13 1.13 0 100 2.26 1.13 1.13 0 000-2.26zm5.446 1.18z"/></svg>