<svg role="img" viewBox="0 0 24 24" xmlns="http://www.w3.org/2000/svg"><title>CryptPad</title><path d="m2.355 0 .008.717.153 12.23c.045 3.668 1.528 6.09 3.425 7.692 1.897 1.602 4.168 2.444 5.844 3.215l.317.146.308-.164c1.492-.788 3.779-1.625 5.72-3.209 1.943-1.584 3.515-3.997 3.515-7.69V5.97L15.22 0H2.355zm9.729 1.416h1.604v6.016h6.542v3.879h-4.834c-.055.937-.575 1.73-1.28 2.334l.968 5.12h-2.996v3.655l-.018.008c-1.691-.764-3.651-1.55-5.215-2.87-1.653-1.396-2.884-3.32-2.925-6.628l-.02-1.62h4.676a2.788 2.788 0 0 1-.006-.164 3.426 3.426 0 0 1 3.41-3.412l.094.002v-6.32zm3.02.408 4.513 4.194h-4.513V1.824zm-3.114 6.91a2.412 2.412 0 0 0-2.41 2.412 2.412 2.412 0 0 0 1.367 2.174l-.842 4.446h3.772l-.842-4.446a2.412 2.412 0 0 0 1.367-2.174 2.412 2.412 0 0 0-2.412-2.412z"/></svg>