<svg role="img" viewBox="0 0 24 24" xmlns="http://www.w3.org/2000/svg"><title>C#</title><path d="m11.105 23.555c-0.26026-0.093142-2.2642-1.2018-4.4531-2.4636-4.3113-2.4853-4.6211-2.711-4.9586-3.613-0.18618-0.49762-0.19322-0.69702-0.19322-5.4781s0.0070329-4.9805 0.19322-5.4781c0.33784-0.90297 0.6536-1.1345 4.8426-3.5508 2.1252-1.2258 4.061-2.3159 4.3019-2.4225 0.64224-0.2841 1.3804-0.32476 2.0107-0.11078 0.28615 0.097142 2.3112 1.2089 4.5 2.4706 4.3177 2.4888 4.6201 2.7094 4.9607 3.6197 0.19065 0.50956 0.1949 0.64966 0.16978 5.5988l-0.02576 5.0762-0.22715 0.46152c-0.12493 0.25384-0.3789 0.61327-0.56437 0.79874-0.32418 0.32418-7.5768 4.5799-8.5042 4.9902-0.61589 0.27244-1.4581 0.31398-2.0525 0.10123zm-2.5455-8.1622c0.55352-0.29521 0.96084-0.83061 1.09-1.4327 0.15129-0.70542-0.1003-1.1473-0.65319-1.1473-0.37466 0-0.64341 0.2697-0.71502 0.71758-0.032844 0.2054-0.13767 0.4514-0.23295 0.54668-0.24042 0.24042-0.86406 0.23241-1.1107-0.014263-0.175-0.175-0.1875-0.3125-0.1875-2.0625s0.0125-1.8875 0.1875-2.0625c0.24667-0.24668 0.87032-0.25468 1.1107-0.014263 0.09528 0.095281 0.20011 0.34129 0.23295 0.54668 0.072234 0.45173 0.34092 0.71758 0.72523 0.71758 0.69889 0 0.89153-0.82742 0.40203-1.7268-0.98667-1.8128-3.6342-1.3891-4.071 0.65157-0.067345 0.31468-0.094267 1.1393-0.071931 2.2031 0.035002 1.6671 0.040972 1.7098 0.30644 2.1928 0.62806 1.1427 1.8337 1.4996 2.9874 0.88434zm5.448 0.07196c0.11977-0.11497 0.19368-0.34522 0.22255-0.69333l0.043221-0.52119h1.4536l0.04322 0.5212c0.05138 0.6196 0.28776 0.9163 0.73 0.9163 0.43935 0 0.67866-0.29723 0.72911-0.90558l0.04233-0.51048 0.51048-0.04233c0.60836-0.050453 0.90559-0.28976 0.90559-0.72911 0-0.44224-0.2967-0.67861-0.9163-0.73l-0.5212-0.043221v-1.4536l0.5212-0.04322c0.6196-0.051384 0.9163-0.28776 0.9163-0.73 0-0.43935-0.29723-0.67866-0.90558-0.72911l-0.51048-0.042333-0.042333-0.51048c-0.05045-0.60835-0.28976-0.90558-0.72911-0.90558-0.44224 0-0.67861 0.2967-0.73 0.9163l-0.043221 0.5212h-1.4536l-0.043221-0.5212c-0.051383-0.6196-0.28776-0.9163-0.73-0.9163-0.43935 0-0.67866 0.29723-0.72911 0.90558l-0.04233 0.51048-0.51048 0.042333c-0.60835 0.05045-0.90559 0.28976-0.90559 0.72911 0 0.44224 0.2967 0.67861 0.9163 0.73l0.5212 0.043221v1.4536l-0.5212 0.04322c-0.6196 0.051384-0.9163 0.28776-0.9163 0.73s0.2967 0.67861 0.9163 0.73l0.5212 0.04322 0.0014 0.38683c0.0033 0.91085 0.68821 1.3496 1.2561 0.80448zm0.24255-3.4645v-0.75h1.5v1.5h-1.5z"/></svg>