<svg role="img" viewBox="0 0 24 24" xmlns="http://www.w3.org/2000/svg"><title>C# icon</title><path d="M23.71 6a2.28 2.28 0 00-.87-.75L13.25.33a2.63 2.63 0 00-2.55 0c-1.27.68-7.64 3.94-9.57 4.92A2 2 0 000 7.08V17a2.09 2.09 0 00.28 1 2.2 2.2 0 00.88.77c1.9 1 8.27 4.23 9.54 4.9a2.58 2.58 0 002.55 0l9.59-4.92a2.2 2.2 0 00.88-.75 2 2 0 00.28-1V7.08A2.11 2.11 0 0023.71 6zM12 19.13C7.59 19.13 4 16 4 12s3.57-7.11 8-7.11a8.19 8.19 0 016.89 3.59l-3.47 1.77A4.24 4.24 0 0010 9a3.48 3.48 0 00-2 3 3.78 3.78 0 004 3.57 4.08 4.08 0 003.46-1.8l3.46 1.78A8.17 8.17 0 0112 19.13zm9.37-7.51h-.65v.84h.65v.71h-.65v.57h-.79v-.57H19v.57h-.78v-.57h-.63v-.71h.63v-.84h-.63v-.72h.63v-.57H19v.57h1v-.57h.79v.57h.61z M19.05 11.61h.85v.85h-.85z"/></svg>