<svg role="img" viewBox="0 0 24 24" xmlns="http://www.w3.org/2000/svg"><title>CSS</title><path d="M0 0v20.16A3.84 3.84 0 0 0 3.84 24h16.32A3.84 3.84 0 0 0 24 20.16V3.84A3.84 3.84 0 0 0 20.16 0Zm14.287 13.171q1.089 0 1.68.667.61.669.634 1.92h-1.608a1.7 1.7 0 0 0-.161-.792q-.137-.273-.533-.273-.705 0-.705.84c0 .283.057.504.172.672.167.185.375.329.608.417l.592.262c.612.28 1.054.624 1.325 1.04q.407.618.408 1.655 0 1.242-.655 1.908-.656.667-1.82.667-1.16.001-1.782-.679-.615-.683-.644-1.956h1.67q.015 1.127.793 1.128.397 0 .557-.25.161-.248.16-.791 0-.432-.208-.718a1.75 1.75 0 0 0-.706-.506l-.62-.298q-.827-.395-1.2-.94-.36-.546-.36-1.522.001-1.091.632-1.772.646-.68 1.771-.679m5.395 0q1.088 0 1.683.667.605.669.631 1.92h-1.608a1.7 1.7 0 0 0-.16-.792q-.138-.273-.534-.273-.705 0-.705.84c0 .283.057.504.173.672.166.185.374.329.607.417l.593.262c.612.28 1.053.624 1.324 1.04q.41.618.408 1.655.002 1.242-.655 1.908-.656.667-1.819.667-1.161.001-1.783-.679-.615-.683-.643-1.956h1.67q.015 1.127.792 1.128.396 0 .56-.25.159-.248.16-.791-.001-.432-.211-.718a1.75 1.75 0 0 0-.706-.506l-.619-.298q-.829-.395-1.2-.94-.36-.546-.36-1.522 0-1.091.631-1.772.646-.68 1.771-.679m-10.965.012q1.125.001 1.783.643.666.643.667 1.92v.32H9.398v-.31q-.001-.492-.21-.73a.63.63 0 0 0-.52-.247q-.432 0-.606.298a1.9 1.9 0 0 0-.161.878v3.504q0 1.1.768 1.111.359 0 .545-.259c.135-.218.2-.473.184-.73v-.261h1.77v.274q0 .853-.334 1.423c-.213.37-.531.668-.915.854-.41.196-.859.293-1.313.283q-1.137 0-1.807-.619c-.446-.41-.667-1.027-.667-1.843V15.66q0-1.216.706-1.848.716-.628 1.879-.629"/></svg>