<svg role="img" viewBox="0 0 24 24" xmlns="http://www.w3.org/2000/svg"><title>CSS</title><path d="M0 0v20.16A3.84 3.84 0 0 0 3.84 24h16.32A3.84 3.84 0 0 0 24 20.16V3.84A3.84 3.84 0 0 0 20.16 0zm14.287 13.172q1.089 0 1.68.666.61.669.635 1.92h-1.61a1.7 1.7 0 0 0-.16-.791q-.137-.274-.533-.274-.705 0-.705.84c0 .283.057.504.172.672a1.56 1.56 0 0 0 .607.416l.594.264q.918.417 1.324 1.039.407.618.408 1.654 0 1.242-.654 1.908-.656.667-1.82.668-1.163.001-1.784-.68-.613-.682-.642-1.954h1.67q.015 1.125.793 1.126.396 0 .556-.25.162-.248.16-.79 0-.434-.208-.717a1.75 1.75 0 0 0-.706-.506l-.62-.299q-.827-.394-1.2-.94-.36-.546-.36-1.523.001-1.09.632-1.771.646-.68 1.771-.678m5.395 0q1.088 0 1.683.666.606.669.631 1.92H20.39a1.7 1.7 0 0 0-.16-.791q-.139-.274-.536-.274-.705 0-.705.84c0 .283.058.504.174.672a1.56 1.56 0 0 0 .608.416l.591.264c.612.28 1.054.623 1.325 1.039q.41.618.408 1.654.002 1.242-.655 1.908-.657.667-1.82.668-1.16.001-1.781-.68-.616-.682-.645-1.954h1.67q.015 1.125.793 1.126.396 0 .56-.25.16-.248.161-.79-.002-.434-.213-.717a1.75 1.75 0 0 0-.705-.506l-.62-.299q-.828-.394-1.198-.94-.361-.546-.362-1.523 0-1.09.631-1.771.646-.68 1.772-.678m-10.965.012q1.125 0 1.783.642.668.643.668 1.92v.32h-1.77v-.31q-.002-.492-.21-.73a.63.63 0 0 0-.52-.247q-.432 0-.605.297a1.9 1.9 0 0 0-.163.88v3.503q.001 1.1.77 1.111.359 0 .545-.26a1.24 1.24 0 0 0 .183-.73v-.26h1.77v.274q0 .853-.334 1.424a2.13 2.13 0 0 1-.914.853 2.9 2.9 0 0 1-1.315.283q-1.137 0-1.806-.619-.668-.617-.666-1.844v-4.03q0-1.217.705-1.848.715-.63 1.879-.63"/></svg>