<svg role="img" viewBox="0 0 24 24" xmlns="http://www.w3.org/2000/svg"><title>CSS Modules</title><path d="M19.705 17.048h1.093v.413h-1.093v1.022h.942v.39h-.942v1.141h1.127v.401h-1.127v1.221H0V2h19.705v15.048Zm-.14 0V2.14H.14v19.356h19.425v-1.081h-1.231l.001-3.367h1.23Zm-12.899-.091c.596 0 1.037.19 1.324.573.224.298.336.679.336 1.144 0 .502-.128.92-.384 1.253-.3.392-.73.587-1.286.587-.52 0-.929-.17-1.226-.513-.265-.33-.398-.748-.398-1.252 0-.455.113-.845.34-1.169.292-.415.724-.623 1.294-.623Zm15.071 2.372c.01.191.056.346.135.465.152.223.42.335.803.335.172 0 .328-.024.47-.073.272-.095.409-.265.409-.51 0-.183-.058-.313-.173-.391-.116-.077-.299-.143-.547-.2l-.458-.103c-.299-.067-.51-.141-.635-.222-.215-.14-.322-.35-.322-.63a.975.975 0 0 1 .315-.745c.21-.194.508-.292.893-.292.354 0 .655.086.902.257.248.17.372.442.372.816h-.43a.838.838 0 0 0-.147-.415c-.14-.175-.377-.263-.711-.263-.27 0-.464.056-.582.17a.53.53 0 0 0-.177.394c0 .165.069.285.207.362.09.049.295.11.614.183l.474.108c.228.052.405.123.529.213.215.157.322.386.322.686 0 .372-.137.639-.41.8-.27.16-.587.24-.947.24-.42 0-.75-.107-.987-.32-.238-.213-.354-.501-.35-.865h.431Zm-8.967-2.281v2.081c0 .245.046.448.138.61.136.245.367.367.69.367.388 0 .652-.132.791-.397.075-.143.113-.337.113-.58v-2.081h.465v1.891c0 .414-.056.733-.168.956-.206.406-.594.61-1.164.61s-.958-.204-1.162-.61c-.112-.223-.168-.542-.168-.956v-1.891h.465Zm-11.504 0h.656l.97 2.847.965-2.847h.648v3.367h-.434v-1.987l.009-.852-.964 2.84h-.453l-.97-2.84.011.851v1.988h-.437l-.001-3.367Zm8.992 0c.465 0 .825.165 1.082.493.228.297.342.676.342 1.14 0 .357-.067.68-.202.969-.238.51-.647.766-1.226.766H8.89v-3.368h1.368Zm5.411 0h.458v2.966h1.711v.401h-2.17l.001-3.367Zm-8.958 3.059c.403 0 .695-.144.874-.432.181-.288.272-.62.272-.995 0-.395-.105-.714-.313-.955-.207-.242-.49-.363-.851-.363-.35 0-.635.12-.856.36-.22.239-.331.591-.331 1.057 0 .373.094.688.283.945.19.255.497.383.922.383Zm3.455-.081c.155 0 .283-.016.382-.048a.842.842 0 0 0 .437-.344c.09-.136.156-.31.196-.523.022-.116.033-.235.034-.353 0-.417-.083-.74-.25-.972-.166-.23-.434-.346-.803-.346H9.35v2.586h.816Zm9.399-1.153h-.785v1.141h.785v-.004h.011v-1.137h-.011Zm0-.39v-1.025h-.777v.003h-.007v1.022h.784ZM8.119 13.461c.003.164.05.325.136.465.152.223.42.335.803.335.172 0 .328-.025.469-.073.273-.095.41-.265.41-.51 0-.183-.058-.313-.173-.391-.117-.077-.3-.143-.548-.2l-.457-.103c-.3-.067-.51-.141-.635-.222-.215-.14-.322-.35-.322-.63a.968.968 0 0 1 .315-.746c.21-.194.508-.29.892-.29.355 0 .655.085.902.256.249.17.373.442.373.816h-.43a.85.85 0 0 0-.148-.415c-.14-.175-.376-.263-.71-.263-.27 0-.464.056-.582.17a.53.53 0 0 0-.177.393c0 .165.069.286.207.363.09.049.295.11.614.183l.474.108c.228.052.404.123.529.213.214.157.322.386.322.685 0 .373-.137.64-.41.8a1.826 1.826 0 0 1-.947.241c-.42 0-.75-.107-.987-.32-.238-.213-.355-.501-.35-.865h.43Zm-3.137 0a.92.92 0 0 0 .135.465c.152.223.42.335.803.335.172 0 .328-.025.47-.073.272-.095.409-.265.409-.51 0-.183-.058-.313-.173-.391-.116-.077-.299-.143-.547-.2l-.458-.103c-.299-.067-.51-.141-.635-.222-.214-.14-.322-.35-.322-.63a.968.968 0 0 1 .315-.746c.21-.194.508-.29.893-.29.354 0 .655.085.902.256.248.17.372.442.372.816h-.43a.838.838 0 0 0-.147-.415c-.14-.175-.377-.263-.71-.263-.27 0-.465.056-.583.17a.53.53 0 0 0-.177.393c0 .165.07.286.207.363.09.049.295.11.614.183l.474.108c.229.052.405.123.53.213.214.157.321.386.321.685 0 .373-.136.64-.41.8-.27.16-.587.241-.947.241-.42 0-.749-.107-.987-.32-.237-.213-.354-.501-.35-.865h.431Zm-2.28-2.372c.428 0 .76.112.996.336.236.225.367.48.394.766h-.447a.922.922 0 0 0-.303-.516c-.15-.126-.362-.19-.635-.19-.333 0-.602.117-.808.35-.204.233-.306.59-.306 1.071 0 .395.092.715.276.96.186.245.462.367.828.367.338 0 .595-.129.771-.387.105-.163.176-.345.21-.536h.446c-.04.354-.172.651-.396.891-.268.29-.63.434-1.086.434-.392 0-.722-.119-.989-.356-.351-.313-.527-.796-.527-1.45 0-.497.132-.905.396-1.222.285-.346.679-.518 1.18-.518Z" /></svg>