<svg viewBox="0 0 16 16" xmlns="http://www.w3.org/2000/svg" fill-rule="evenodd" clip-rule="evenodd" stroke-linejoin="round" stroke-miterlimit="1.414"><path d="M0 11V.75C0 .334.336 0 .75 0h14.5c.416 0 .75.336.75.75v9.884c-.45-.275-.978-.413-1.58-.413-.84 0-1.476.198-1.91.592-.432.394-.65.888-.65 1.484 0 .652.225 1.132.673 1.438.265.184.743.354 1.435.51l.703.158c.413.09.715.194.908.31.192.12.288.29.288.51 0 .377-.194.634-.58.772l-.017.006h-1.484c-.193-.07-.346-.17-.46-.308-.122-.15-.205-.377-.247-.68h-1.327c0 .372.072.7.216.988h-1.122c.13-.265.197-.558.197-.88 0-.593-.2-1.046-.595-1.358-.256-.202-.635-.363-1.137-.483l-1.145-.276c-.442-.105-.73-.197-.866-.275-.21-.12-.316-.296-.316-.534 0-.258.107-.46.32-.604.214-.144.5-.217.857-.217.322 0 .59.056.807.167.325.17.5.453.524.853h1.334c-.024-.707-.283-1.246-.777-1.617-.494-.37-1.092-.557-1.792-.557-.84 0-1.475.198-1.908.592-.433.394-.65.888-.65 1.484 0 .652.224 1.132.672 1.438.265.184.743.354 1.434.51l.704.158c.412.09.714.194.906.31.193.12.29.29.29.51 0 .377-.195.634-.583.772L9.107 16H7.625c-.193-.07-.346-.17-.46-.308-.122-.15-.205-.377-.247-.68H5.592c0 .372.072.7.216.988h-1.4c.22-.348.37-.748.444-1.2H3.477c-.094.342-.21.6-.352.77-.174.217-.402.36-.684.43h-.828c-.3-.077-.56-.247-.776-.51-.308-.37-.462-.93-.462-1.674 0-.746.145-1.322.437-1.73.293-.407.69-.61 1.196-.61.497 0 .87.143 1.123.432.14.162.256.403.347.722h1.39c-.022-.415-.176-.83-.46-1.24-.518-.734-1.336-1.1-2.455-1.1-.778 0-1.43.236-1.952.71zm16 2.436v-1.04h-.345c-.024-.4-.2-.685-.524-.854-.215-.11-.484-.167-.806-.167-.358 0-.643.073-.857.217-.213.144-.32.346-.32.604 0 .238.105.415.316.533.135.077.424.17.866.274l1.144.275c.194.045.37.098.526.156z" fill-rule="nonzero"/></svg>