<svg role="img" viewBox="0 0 24 24" xmlns="http://www.w3.org/2000/svg"><title>Cupra</title><path d="m18.992 6.58-3.894 1.907c.79.302 1.582.606 2.372.911.49.189 1.07.426 1.284 1.005.22.594-.103 1.124-.389 1.57l-1.295 2.03c-1.538 2.407-3.075 4.814-4.619 7.218l-.005-2.227a310.771 310.771 0 0 0 2.188-7.174c.093-.32.033-.512-.275-.664-.786-.389-1.573-.777-2.359-1.164-.787.387-1.573.775-2.36 1.164-.307.152-.367.344-.274.664a310.59 310.59 0 0 0 2.189 7.174 879.16 879.16 0 0 1-.007 2.227 3789.63 3789.63 0 0 1-4.618-7.218l-1.296-2.03c-.285-.446-.608-.976-.389-1.57.214-.58.795-.816 1.284-1.005a768.98 768.98 0 0 1 2.373-.911L5.008 6.58l-.002-.002L6.22 8.614l-2.008.772C2.807 7.184 1.401 4.984 0 2.779c3.996 1.417 7.988 2.846 12 4.215 4.012-1.37 8.004-2.798 12-4.215-1.4 2.205-2.807 4.405-4.213 6.607l-2.007-.772 1.214-2.035"/></svg>