<svg role="img" viewBox="0 0 24 24" xmlns="http://www.w3.org/2000/svg"><title>curl icon</title><path d="M22.23,4.702c-0.535,0-0.967-0.433-0.967-0.967c0-0.535,0.433-0.967,0.967-0.967 c0.534,0,0.967,0.433,0.967,0.967C23.198,4.269,22.764,4.702,22.23,4.702 M12.622,21.233c-0.535,0-0.967-0.433-0.967-0.967 c0-0.535,0.433-0.967,0.967-0.967c0.534,0,0.967,0.433,0.967,0.967C13.588,20.799,13.156,21.233,12.622,21.233 M22.23,1.964 c-0.978,0-1.771,0.793-1.771,1.771c0,0.209,0.053,0.403,0.119,0.589l-8.309,14.241c-0.803,0.168-1.418,0.847-1.418,1.7 c0,0.978,0.793,1.771,1.771,1.771c0.977,0,1.77-0.793,1.77-1.771c0-0.197-0.053-0.376-0.111-0.553l8.351-14.288 c0.779-0.187,1.37-0.854,1.37-1.69C24.001,2.757,23.208,1.964,22.23,1.964 M14.983,4.702c-0.535,0-0.967-0.433-0.967-0.967 c0-0.535,0.433-0.967,0.967-0.967c0.534,0,0.967,0.433,0.967,0.967C15.95,4.269,15.517,4.702,14.983,4.702 M5.374,21.233 c-0.534,0-0.967-0.433-0.967-0.967c0-0.535,0.433-0.967,0.967-0.967c0.535,0,0.967,0.433,0.967,0.967 C6.341,20.799,5.908,21.233,5.374,21.233 M14.983,1.964c-0.979,0-1.771,0.793-1.771,1.771c0,0.209,0.053,0.403,0.119,0.589 L5.022,18.565c-0.804,0.168-1.419,0.847-1.419,1.7c0,0.978,0.793,1.771,1.771,1.771c0.978,0,1.771-0.793,1.771-1.771 c0-0.197-0.053-0.376-0.111-0.553l8.351-14.288c0.779-0.187,1.37-0.854,1.37-1.69C16.754,2.757,15.961,1.964,14.983,1.964  M1.749,7.663c0.534,0,0.967,0.433,0.967,0.967c0,0.534-0.433,0.967-0.967,0.967S0.782,9.165,0.782,8.631 C0.782,8.097,1.215,7.663,1.749,7.663 M1.749,6.883c-0.964,0-1.748,0.784-1.748,1.748s0.784,1.748,1.748,1.748 s1.748-0.784,1.748-1.748S2.713,6.883,1.749,6.883L1.749,6.883z M1.749,13.852c0.534,0,0.967,0.433,0.967,0.967 c0,0.534-0.433,0.967-0.967,0.967s-0.967-0.433-0.967-0.967C0.782,14.285,1.215,13.852,1.749,13.852 M1.749,13.072 c-0.964,0-1.748,0.784-1.748,1.748s0.784,1.748,1.748,1.748s1.748-0.784,1.748-1.748S2.713,13.072,1.749,13.072L1.749,13.072z"/></svg>
