<svg role="img" viewBox="0 0 24 24" xmlns="http://www.w3.org/2000/svg"><title>CyberDefenders</title><path d="M18.954 17.477c-.13 2.73-2.392 4.69-5.404 4.69H7.298v-6.103l-2.192-.96V24h8.44c4.363 0 7.589-2.964 7.589-6.875 0-.056-.008-.107-.01-.162a9.705 9.642 0 0 1-2.17.514zm1.368-9.489C18.648 4.32 17.764.996 15.45.213c-1.345-.454-2.008-.086-2.657.219a.3.297 0 0 0-.07.497c.368.307.813.696 1.349 1.18-1.96-1.133-7.375-2.83-7.927-.773-.499 1.857-1.33 4.6-1.33 4.6S.535 5.495.042 7.302c-.492 1.81 3.346 5.282 9.697 7.141 6.35 1.86 11.271 1.37 13.388-.929 2.118-2.3.07-5.472-2.806-5.526zm-1.26.03c-.487.475-2.084 1.68-5.59 1.43-3.752-.27-6.858-2.48-7.642-3.087a.373.37 0 0 1-.136-.39c.047-.185.128-.473.247-.842a.385.383 0 0 1 .552-.22c1.588.902 4.125 2.227 6.827 2.404 2.416.16 3.867-.54 4.81-1.06a.377.375 0 0 1 .537.19l.477 1.16a.386.384 0 0 1-.082.413z"/></svg>