<svg role="img" viewBox="0 0 24 24" xmlns="http://www.w3.org/2000/svg"><title>Cytoscape.js</title><path d="M24 0v24H0V0h24zm-4.842 7.26c-.939 0-1.72.698-1.841 1.61l-2.71.683a1.857 1.857 0 10-.812 2.73l1.792 1.829c-.017.03-.033.062-.049.093l-2.345-.316a1.86 1.86 0 00-3.685.343 1.858 1.858 0 003.495.88l2.346.316c.021.14.057.279.107.412l-.984.867a1.136 1.136 0 00-1.452 1.088 1.134 1.134 0 102.258-.148l.945-.831a2.047 2.047 0 001.402.342l.835 1.665a1.858 1.858 0 101.097-.571l-.804-1.604a2.055 2.055 0 00-.252-3.255l.734-2.419a1.858 1.858 0 00-.077-3.714zm-1.582 2.832c.125.202.287.378.477.519l-.745 2.452c-.285.01-.563.078-.818.201l-1.788-1.824c.11-.21.18-.438.203-.674z"></path></svg>
