<svg role="img" viewBox="0 0 24 24" xmlns="http://www.w3.org/2000/svg"><title>Cytoscape.js</title><path d="M18.9028 17.929c1.676 0 3.0353 1.3595 3.0353 3.0356 0 1.676-1.3593 3.0354-3.0353 3.0354-1.6761 0-3.0356-1.3595-3.0356-3.0354 0-.7761.2947-1.5134.8183-2.073l-1.3629-2.7202a3.3826 3.3826 0 01-.4002.0237 3.3438 3.3438 0 01-1.8915-.5835l-1.5432 1.3591a1.832 1.832 0 01.0156.2412c0 1.0224-.8293 1.852-1.852 1.852-1.0225 0-1.852-.8296-1.852-1.852 0-1.0229.8295-1.8524 1.852-1.8524.1765 0 .3512.0252.5195.0742l1.6075-1.4157a3.3233 3.3233 0 01-.1754-.6731l-3.8321-.5162a3.0369 3.0369 0 01-2.6736 1.597c-1.6759 0-3.0353-1.3594-3.0353-3.0353 0-1.6762 1.3594-3.0354 3.0353-3.0354 1.4747 0 2.7198 1.0577 2.9839 2.4755l3.8313.5164a3.3204 3.3204 0 01.0805-.1523L9.0654 8.2053a3.0311 3.0311 0 01-1.207.2496c-1.676 0-3.0354-1.3593-3.0354-3.0354 0-1.6759 1.3593-3.0354 3.0354-3.0354a3.0345 3.0345 0 012.533 1.3626l4.427-1.1165C15.0172 1.1417 16.2929 0 17.827 0c1.6759 0 3.0354 1.3595 3.0354 3.0354 0 1.6345-1.2928 2.9677-2.911 3.033l-1.1995 3.952a3.3578 3.3578 0 011.5286 2.8166 3.3521 3.3521 0 01-1.1165 2.5004l1.3132 2.6214a3.0467 3.0467 0 01.4256-.0298zm-4.0982-8.448l1.2159-4.0063a3.0507 3.0507 0 01-.778-.847l-4.3643 1.1007a3.0195 3.0195 0 01-.331 1.1005l2.9196 2.9813a3.3425 3.3425 0 011.3378-.3292z"/></svg>
