<svg role="img" viewBox="0 0 24 24" xmlns="http://www.w3.org/2000/svg"><title>D-Wave Systems icon</title><path d="m7.29 0c-1.57 0-2.85 1.28-2.85 2.85 0 1.57 1.28 2.85 2.85 2.85s2.85-1.28 2.85-2.85c0-1.57-1.28-2.85-2.85-2.85zm-0.17 9.15c-1.57-1e-7 -2.85 1.28-2.85 2.85s1.28 2.85 2.85 2.85 2.85-1.28 2.85-2.85c1e-7 -1.57-1.28-2.85-2.85-2.85zm9.75 0c-1.57-5.53e-5 -2.85 1.28-2.85 2.85-5.5e-5 1.57 1.27 2.85 2.85 2.85 1.57 5.5e-5 2.85-1.27 2.85-2.85-2.76e-4 -1.57-1.28-2.85-2.85-2.85zm-0.0254 0.404c0.0091-5.1e-5 0.0182-5.1e-5 0.0273 0 1.35 1.46e-4 2.44 1.09 2.44 2.44-1.46e-4 1.35-1.09 2.44-2.44 2.44-1.35-1.45e-4 -2.44-1.09-2.44-2.44 5.9e-5 -1.34 1.08-2.43 2.42-2.44zm0.0264 8.75c-1.57-1e-6 -2.85 1.28-2.85 2.85s1.28 2.85 2.85 2.85 2.85-1.28 2.85-2.85-1.28-2.85-2.85-2.85z"/></svg>
