<svg role="img" viewBox="0 0 24 24" xmlns="http://www.w3.org/2000/svg"><title>D-Wave Systems icon</title><path d="m7.294 0c-1.572 0-2.847 1.275-2.847 2.847 0 1.572 1.275 2.847 2.847 2.847s2.847-1.275 2.847-2.847c0-1.572-1.275-2.847-2.847-2.847zm-0.169 9.1523c-1.572-1e-7 -2.847 1.275-2.847 2.847s1.275 2.847 2.847 2.847 2.847-1.275 2.847-2.847c1e-7 -1.572-1.275-2.847-2.847-2.847zm9.749 0c-1.572-5.53e-5 -2.845 1.275-2.845 2.847-5.5e-5 1.572 1.273 2.847 2.845 2.847 1.572 5.5e-5 2.847-1.274 2.847-2.847-2.76e-4 -1.572-1.275-2.847-2.847-2.847zm-0.025 0.4043c0.009-5.1e-5 0.018-5.1e-5 0.027 0 1.349 1.457e-4 2.443 1.094 2.443 2.443-1.46e-4 1.349-1.094 2.443-2.443 2.443-1.349-1.45e-4 -2.443-1.094-2.443-2.443 5.9e-5 -1.338 1.077-2.428 2.416-2.443zm0.026 8.748c-1.572-1e-6 -2.847 1.275-2.847 2.847s1.275 2.847 2.847 2.847 2.847-1.275 2.847-2.847-1.275-2.847-2.847-2.847z"/></svg>
