<svg role="img" viewBox="0 0 24 24" xmlns="http://www.w3.org/2000/svg"><title>D-Wave Systems icon</title><path d="m16.79 9.1528a2.8475 2.8475 0 0 0-2.8476 2.847 2.8475 2.8475 0 0 0 2.8476 2.8476 2.8475 2.8475 0 0 0 2.8476-2.8476 2.8475 2.8475 0 0 0-2.8476-2.847zm0 1.3438a1.5035 1.5035 0 0 1 1.5032 1.5032 1.5035 1.5035 0 0 1-1.5032 1.5038 1.5035 1.5035 0 0 1-1.5038-1.5038 1.5035 1.5035 0 0 1 1.5038-1.5032zm-6.6472-7.649a2.8475 2.8475 0 0 1-2.8475 2.8475 2.8475 2.8475 0 0 1-2.8475-2.8475 2.8475 2.8475 0 0 1 2.8475-2.8475 2.8475 2.8475 0 0 1 2.8475 2.8475zm-0.17107 9.1525a2.8475 2.8475 0 0 1-2.8475 2.8475 2.8475 2.8475 0 0 1-2.8475-2.8475 2.8475 2.8475 0 0 1 2.8475-2.8475 2.8475 2.8475 0 0 1 2.8475 2.8475zm9.7512 9.1525a2.8475 2.8475 0 0 1-2.8475 2.8475 2.8475 2.8475 0 0 1-2.8475-2.8475 2.8475 2.8475 0 0 1 2.8475-2.8475 2.8475 2.8475 0 0 1 2.8475 2.8475z"/></svg>
