<svg role="img" viewBox="0 0 24 24" xmlns="http://www.w3.org/2000/svg"><title>D-Wave Systems icon</title><path d="m7.295 0c-1.573 0-2.848 1.275-2.848 2.848 0 1.573 1.275 2.848 2.848 2.848 s2.848-1.275 2.848-2.848 c0-1.573-1.275-2.848-2.848-2.848z m-0.1699 9.152 c-1.573-1e-7 -2.848 1.275-2.848 2.848 s1.275 2.848 2.848 2.848 2.848-1.275 2.848-2.848 c1e-7 -1.573-1.275-2.848-2.848-2.848z m9.749 0 c-1.572-5.53e-5 -2.845 1.275-2.846 2.848-5.5e-5 1.573 1.273 2.848 2.846 2.848 1.573 5.5e-5 2.848-1.275 2.848-2.848-2.76e-4 -1.572-1.275-2.848-2.848-2.848z m-0.02539 0.4043 c0.0091-5.1e-5 0.01823-5.1e-5 0.02734 0 1.349 1.457e-4 2.443 1.094 2.443 2.443-1.46e-4 1.349-1.094 2.443-2.443 2.443-1.349-1.45e-4 -2.443-1.094-2.443-2.443 5.9e-5 -1.339 1.077-2.428 2.416-2.443z m0.02637 8.748 c-1.573-1e-6 -2.848 1.275-2.848 2.848 s1.275 2.848 2.848 2.848 2.848-1.275 2.848-2.848-1.275-2.848-2.848-2.848z"/></svg>
