<svg role="img" viewBox="0 0 24 24" xmlns="http://www.w3.org/2000/svg"><title>D-Wave Systems icon</title><path d="M 16.80743,9.1795882 A 2.8475355,2.8475355 0 0 0 13.959839,12.02656 2.8475355,2.8475355 0 0 0 16.80743,14.874152 2.8475355,2.8475355 0 0 0 19.655024,12.02656 2.8475355,2.8475355 0 0 0 16.80743,9.1795882 Z m 0,1.3438008 A 1.5034541,1.5034541 0 0 1 18.310602,12.02656 1.5034541,1.5034541 0 0 1 16.80743,13.530353 1.5034541,1.5034541 0 0 1 15.303639,12.02656 1.5034541,1.5034541 0 0 1 16.80743,10.523389 Z M 10.160257,2.8743543 A 2.8475355,2.8475355 0 0 1 7.3127221,5.7218899 2.8475355,2.8475355 0 0 1 4.4651864,2.8743543 2.8475355,2.8475355 0 0 1 7.3127221,0.02681881 2.8475355,2.8475355 0 0 1 10.160257,2.8743543 Z M 9.989185,12.026819 A 2.8475355,2.8475355 0 0 1 7.1416486,14.874355 2.8475355,2.8475355 0 0 1 4.294113,12.026819 2.8475355,2.8475355 0 0 1 7.1416486,9.1792834 2.8475355,2.8475355 0 0 1 9.989185,12.026819 Z m 9.751225,9.152466 a 2.8475355,2.8475355 0 0 1 -2.847537,2.847534 2.8475355,2.8475355 0 0 1 -2.847535,-2.847534 2.8475355,2.8475355 0 0 1 2.847535,-2.847535 2.8475355,2.8475355 0 0 1 2.847537,2.847535 z"/></svg>
