<svg role="img" viewBox="0 0 24 24" xmlns="http://www.w3.org/2000/svg"><title>D-Wave Systems icon</title><path d="m7.295 0c-1.573 0-2.848 1.275-2.848 2.848 0 1.573 1.275 2.848 2.848 2.848 s2.848-1.275 2.848-2.848 c0-1.573-1.275-2.848-2.848-2.848z m-0.17 9.152 c-1.573 0 -2.848 1.275-2.848 2.848 s1.275 2.848 2.848 2.848 2.848-1.275 2.848-2.848 c 0 -1.573-1.275-2.848-2.848-2.848z m9.749 0 c-1.572 0 -2.845 1.275-2.846 2.848 0 1.573 1.273 2.848 2.846 2.848 1.573 0 2.848-1.275 2.848-2.848 0 -1.572-1.275-2.848-2.848-2.848z m-0.025 0.404 c0.009 0 0.018 0 0.027 0 1.349 0 2.443 1.094 2.443 2.443 0 1.349-1.094 2.443-2.443 2.443-1.349 0 -2.443-1.094-2.443-2.443 0 -1.339 1.077-2.428 2.416-2.443z m0.026 8.748 c-1.573 0 -2.848 1.275-2.848 2.848 s1.275 2.848 2.848 2.848 2.848-1.275 2.848-2.848-1.275-2.848-2.848-2.848z"/></svg>
