<svg role="img" viewBox="0 0 24 24" xmlns="http://www.w3.org/2000/svg"><title>Dagster</title><path d="M11.818.019C5.486.019 0 5.182 0 11.15c0 3.953 3.146 6.938 7.301 6.938 3.187 0 6.131-2.259 6.938-5.364.08-.323.323-.484.645-.484.323 0 .605.282.605.645 0 1.412-2.662 6.333-8.067 6.333-1.29 0-2.904-.363-4.034-1.009a1.214 1.214 0 0 0-.484-.12c-.564 0-.968.403-.968.967 0 .323.202.646.484.807 1.492.847 3.267 1.291 5.082 1.291 4.518 0 8.632-3.066 9.842-7.583.081-.323.323-.484.646-.484s.605.282.605.645c0 1.855-3.308 7.825-9.68 8.31-.525.04-.928.483-.928.967a.977.977 0 0 0 1.048.969c5.083-.363 9.883-3.954 11.416-9.56.08-.323.322-.484.645-.484.322 0 .605.282.605.645 0 1.25-1.614 4.518-3.913 6.413a1.016 1.016 0 0 0-.363.808c0 .524.444.927.969.927.201 0 .524-.121.927-.484C20.935 20.792 24 16.718 24 12.24 24 5.676 18.915.019 11.818.019zm2.432 5.166a1.612 1.612 0 0 1 1.328 2.549 4.793 4.793 0 0 0-1.6-.163l-.043.003a5.114 5.114 0 0 0-.986.164 1.615 1.615 0 0 1-.216-.424V7.31a1.617 1.617 0 0 1-.056-.215l-.002-.006a1.617 1.617 0 0 1 .217-1.143l1.241.536-.664-1.09c.24-.135.508-.206.78-.208zM5.006 8.328a.969.969 0 1 1-.048 1.937.969.969 0 0 1 .048-1.937zM3.11 10.224a.968.968 0 1 1-.047 1.935.968.968 0 0 1 .047-1.935zm1.896 1.896a.968.968 0 1 1-.05 1.935.968.968 0 0 1 .05-1.935z"/></svg>