<svg role="img" viewBox="0 0 24 24" xmlns="http://www.w3.org/2000/svg"><title>Dagster</title><path d="M11.823 0C6.095 0 1.06 4.234.155 9.47l.009-.058q.016-.09.025-.165A10 10 0 0 0 0 11.149c.006 2.477 1.237 4.57 3.172 5.794l.003.002q.288.181.594.336l.013.007q.303.152.624.278l.037.014q.14.054.284.103l.056.018q.14.046.28.087l.07.02q.135.036.273.07l.085.02a8 8 0 0 0 1.359.187q.072.004.145.006.057.004.115.006h.114l.083.002.092-.004a6.8 6.8 0 0 0 2.03-.34 7.2 7.2 0 0 0 1.488-.673l.036-.022c1.583-.953 2.812-2.492 3.29-4.335.08-.323.322-.484.645-.484a.625.625 0 0 1 .597.645 3 3 0 0 1-.058.443q-.017.076-.04.159l-.029.105c-.012.037-.03.08-.043.12q-.024.067-.05.132l.006-.013c-.73 1.956-3.323 5.401-7.843 5.401-1.29 0-2.903-.364-4.032-1.01a1.2 1.2 0 0 0-.484-.122.93.93 0 0 0-.967.97.97.97 0 0 0 .483.808c1.492.852 3.267 1.293 5.08 1.293 4.517 0 8.63-3.07 9.84-7.595.08-.323.322-.485.644-.485a.63.63 0 0 1 .432.197l.007.007a.63.63 0 0 1 .163.44q-.007.22-.045.436c-.416 2.21-3.688 7.437-9.629 7.89a1.003 1.003 0 0 0-.928.965.975.975 0 0 0 1.05.97c4.883-.35 9.504-3.686 11.215-8.931l.01-.027.05-.162q.046-.142.085-.285l.002-.009q.025-.08.047-.16c.081-.323.323-.485.646-.485a.63.63 0 0 1 .342.117l.002.002a1 1 0 0 1 .082.072l.004.005.015.017a.63.63 0 0 1 .154.43 2.6 2.6 0 0 1-.082.596l.022-.079c-.32 1.48-1.81 4.231-3.846 5.91a1.02 1.02 0 0 0-.283 1.17.95.95 0 0 0 .888.567c.202 0 .525-.121.928-.485C20.933 20.805 24 16.725 24 12.24 24 5.667 18.917 0 11.823 0m1.825 3.374c1.78 0 3.242 1.719 3.242 3.636q-.01.625-.123 1.238a4.6 4.6 0 0 0-1.183-.522 1.61 1.61 0 0 0-2.108-2.343l.663 1.092-1.241-.538a1.62 1.62 0 0 0 .056 1.794q.11-.03.219-.053-.527.119-1.017.352a3.2 3.2 0 0 1-.757-2.092c0-1.417.865-2.564 2.25-2.564m-8.905 5.52a.947.947 0 1 1 0 1.894.947.947 0 0 1 0-1.894M2.85 10.79a.947.947 0 1 1 0 1.893.947.947 0 0 1 0-1.893m1.893 1.894a.947.947 0 1 1 0 1.894.947.947 0 0 1 0-1.894"/></svg>