<svg role="img" viewBox="0 0 24 24" xmlns="http://www.w3.org/2000/svg"><title>Daily Mail</title><path d="M14.91 14.038v3.266c0 .313.023.393.23.491l.322.151v-3.912h-.552zm0-7.986v4.649h.552V5.89a.726.726 0 0 0-.22-.05.344.344 0 0 0-.336.208h.004zM7.6 17.97V5.901a.82.82 0 0 0-.219-.053.34.34 0 0 0-.336.208v11.252c0 .313.03.381.234.49zm.269-3.93v4.077l.846.458c.242.14.19.295.034.404a64.479 64.479 0 0 0-2.494 1.95 104.76 104.76 0 0 0-4.83-1.984c-.246-.098-.269-.253-.076-.393l.979-.692V7.352c0-.31-.027-.378-.23-.487L.165 5.825c-.246-.132-.185-.295-.034-.404a96.03 96.03 0 0 0 2.986-2.325 58.003 58.003 0 0 0 4.123 1.91 37.447 37.447 0 0 0 3.27-1.91 52.22 52.22 0 0 0 4.093 2.181 57.218 57.218 0 0 0 3.602-2.18 58.44 58.44 0 0 0 4.788 2.43c.242.11.246.226.068.393l-.283.253v9.725c0 1.489.265 2.063 1.058 2.366.208.075.204.245.057.351a234.445 234.445 0 0 0-3.145 2.328c-2.23-.487-2.687-1.598-2.687-4.176V7.621c0-.314-.038-.37-.234-.496A19.276 19.276 0 0 0 15.734 6v4.698h2.033L15.734 14v4.071l1.07.503c.253.12.189.298.034.404a91.05 91.05 0 0 0-2.71 1.95 75.111 75.111 0 0 0-4.604-1.984c-.242-.098-.242-.227-.068-.393l.745-.692v-3.825H7.869Zm0-8.04v7.317l1.651-2.619h.673v-3.08c0-.31-.038-.367-.234-.492A19.578 19.578 0 0 0 7.869 6Z"/></svg>