<svg role="img" viewBox="0 0 24 24" xmlns="http://www.w3.org/2000/svg"><title>Daimler icon</title><path d="M20.624 10.76h-.207c-.03-.112 0-.194.177-.207.208-.017.467-.017 1.071-.017.83 0 1.287.393 1.287.985 0 .362-.225.656-.583.807 0 0 .324.298.488.432.57.458.76.497 1.136.497.039.15-.07.263-.527.263-.402 0-.665-.086-.985-.363a1.979 1.979 0 0 1-.41-.496c-.108-.195-.117-.208-.38-.208h-.29v.635c0 .125.04.169.264.169h.22c.013.125 0 .194-.125.194H20.4a.44.44 0 0 1 0-.168c.376-.026.462-.07.462-.333v-1.995c0-.169-.06-.194-.238-.194zm.985 1.443c.428 0 .773-.07.773-.652 0-.583-.345-.765-.833-.765h-.147v1.417h.207m-2.05-1.637c.012.195.038.398.068.583.022.134-.03.208-.168.195l-.057-.195c-.073-.263-.164-.332-.401-.332h-.691v1.11h.453c.13 0 .156-.044.169-.156l.03-.22h.052c.086 0 .134.03.125.164-.013.272-.013.57 0 .85a.203.203 0 0 1-.151 0c-.056-.336-.112-.375-.225-.375h-.453v.76c0 .155.039.22.333.22h.37c.32 0 .364-.021.545-.41l.12-.268c.126-.004.187.052.143.182a6.26 6.26 0 0 0-.224.777h-2.384a.281.281 0 0 1 0-.168c.458-.026.54-.057.54-.346v-1.995c0-.156-.039-.181-.233-.181h-.207c-.018-.113 0-.195.19-.195h2.055m-3.51 0a.372.372 0 0 1 0 .169c-.454.026-.54.065-.54.345v1.909c0 .142.073.181.194.181h.276c.32 0 .363-.021.544-.41l.121-.268c.125-.004.19.048.143.182a6.16 6.16 0 0 0-.225.777h-2.107a.445.445 0 0 1 0-.168c.419-.026.514-.083.514-.363v-1.978c0-.156-.056-.181-.238-.181h-.207c-.026-.113 0-.195.181-.195h1.343m-2.383 0a.279.279 0 0 1 0 .169c-.402.026-.428.095-.415.22l.207 2.107c.013.138.082.151.415.195.013.125 0 .194-.12.194h-1.525a.281.281 0 0 1 0-.168l.233-.014c.363-.021.423-.069.401-.28l-.194-1.883-1.036 2.177c-.078.155-.112.18-.212.18l-1.191-2.357-.139 1.939c-.013.168-.013.212.445.212h.233c.03.125.013.194-.108.194H9.242a.37.37 0 0 1 0-.168c.475-.026.514-.113.527-.294l.177-2.03c.013-.138-.013-.185-.44-.198-.027-.1 0-.195.18-.195h.873l1.084 2.077.997-2.077h1.024m-4.975 0a.37.37 0 0 1 0 .169c-.375.026-.432.108-.432.289v2.051c0 .151.044.182.225.182h.233c.03.125.017.194-.112.194H7.29a.279.279 0 0 1 0-.168c.346-.057.428-.1.428-.277v-2.064c0-.156-.04-.181-.238-.181h-.207c-.026-.113 0-.195.181-.195H8.69m-3.23-.056c.013.095.043.169.112.32l.998 2.275c.048.113.095.152.315.152h.1c.025.125 0 .194-.113.194h-1.4a.367.367 0 0 1 0-.168c.47-.014.518-.052.47-.165l-.271-.652H4.557l-.177.47c-.1.256-.1.32.138.32h.371c.03.126 0 .195-.108.195H3.546a.369.369 0 0 1 0-.168c.333-.044.372-.07.488-.346l.855-2.025c.143-.333.199-.402.402-.402zm.112 1.719l-.47-1.123-.45 1.123zM.316 10.704H.11c-.03-.185-.013-.224.609-.224h.876c1.244 0 1.784.561 1.784 1.485 0 .89-.51 1.486-1.745 1.486H.01a.368.368 0 0 1 0-.168c.462-.026.544-.057.544-.346v-2.038c0-.169-.043-.195-.238-.195zM2.8 12.047c0-.829-.432-1.312-1.26-1.312h-.445v2.172c0 .263.095.306.496.306.739 0 1.21-.237 1.21-1.166Z"/></svg>