<svg role="img" viewBox="0 0 24 24" xmlns="http://www.w3.org/2000/svg"><title>Daimler icon</title><path d="M.32 10.7H.18c-.04 0-.08-.03-.08-.08 0-.12.09-.15.62-.15h.88c1.24 0 1.78.56 1.78 1.49 0 .89-.51 1.49-1.74 1.49H.08c-.04 0-.08-.03-.08-.07v-.02c0-.04.03-.07.07-.08.41-.03.48-.07.48-.34V10.9c0-.17-.04-.2-.23-.2zm2.48 1.45c.03-.77-.6-1.42-1.37-1.42h-.25c-.04 0-.08.04-.08.08v2.09c0 .26.1.31.5.31.7 0 1.16-.22 1.2-1.06zM5.4 10.51c.04 0 .07.03.08.06.02.07.05.14.1.26l1 2.28c.05.11.1.15.32.15H7c.03.13 0 .19-.11.19H5.54c-.04 0-.08-.03-.08-.08v-.02c0-.04.03-.07.08-.08.41-.01.45-.06.4-.16l-.25-.6c-.01-.03-.04-.05-.07-.05H4.61c-.03 0-.06.02-.07.05l-.16.42c-.1.25-.1.32.14.32h.3c.04 0 .08.04.08.08 0 .07-.04.11-.12.11H3.62c-.04 0-.08-.03-.08-.08v-.03c0-.04.03-.07.07-.07.28-.04.32-.08.43-.34l.86-2.03c.14-.33.2-.4.4-.4h.1zm.13 1.61l-.35-.84c-.03-.06-.12-.06-.15 0l-.33.84c-.02.05.02.11.07.11h.69c.05 0 .09-.06.07-.11zM8.7 10.64v.02c0 .04-.03.07-.07.07-.32.03-.37.11-.37.28v2.05c0 .15.04.18.22.18h.23c.03.13.02.19-.11.19H7.36c-.04 0-.08-.03-.08-.07v-.04c0-.03.03-.06.07-.07.3-.05.37-.1.37-.27v-2.06c0-.16-.04-.18-.24-.18h-.13c-.05 0-.09-.04-.08-.09.01-.06.06-.1.19-.1h1.17c.03.02.07.05.07.09zM13.68 10.64v.03c0 .04-.03.07-.07.07-.34.03-.37.1-.36.22l.21 2.11c.01.13.07.15.35.19.04.01.07.04.07.08 0 .08-.03.13-.12.13H12.3c-.04 0-.08-.03-.08-.07v-.03c0-.04.04-.07.07-.07l.17-.01c.36-.02.42-.07.4-.28l-.17-1.6c-.01-.08-.11-.1-.15-.03l-.92 1.92c-.06.12-.09.16-.15.17-.04.01-.07-.01-.09-.04l-1.04-2.06c-.04-.07-.14-.05-.15.03l-.12 1.66c-.01.17-.01.21.44.21h.23c.03.13.01.19-.11.19H9.31c-.04 0-.08-.03-.08-.07v-.02c0-.04.03-.07.07-.07.41-.03.45-.12.46-.29l.18-2.03c.01-.13-.01-.18-.37-.2-.05 0-.08-.04-.07-.09.01-.06.06-.11.19-.11h.82c.03 0 .06.02.07.04l.99 1.9c.03.06.11.06.14 0l.91-1.89c.01-.03.04-.04.07-.04h.91c.04-.02.08.01.08.05zM16.06 10.64v.02c0 .04-.03.07-.07.07-.4.03-.48.07-.48.34v1.91c0 .14.07.18.19.18h.28c.32 0 .36-.02.54-.41l.12-.27c.13 0 .19.05.14.18-.08.24-.16.47-.21.72-.01.04-.04.06-.08.06h-1.97c-.04 0-.08-.03-.08-.07v-.02c0-.04.03-.07.07-.08.36-.03.45-.09.45-.36v-1.98c0-.16-.06-.18-.24-.18h-.12c-.05 0-.09-.04-.08-.09.01-.06.06-.1.19-.1h1.27c.04.01.08.04.08.08zM19.49 10.57c.04 0 .07.03.08.07.01.17.04.35.06.51.02.11-.01.17-.09.19-.04.01-.08-.02-.09-.06l-.04-.14c-.07-.26-.16-.33-.4-.33h-.61c-.04 0-.08.04-.08.08v.95c0 .04.04.08.08.08h.37c.13 0 .16-.04.17-.16l.03-.22h.05c.09 0 .13.03.13.16-.01.25-.01.52 0 .78 0 .05-.04.08-.08.08s-.07-.03-.07-.07c-.05-.29-.11-.32-.22-.32h-.37c-.04 0-.08.04-.08.08v.68c0 .16.04.22.33.22h.37c.32 0 .36-.02.54-.41l.12-.27c.13 0 .19.05.14.18-.08.23-.16.47-.21.72-.01.04-.04.06-.08.06h-2.25c-.04 0-.08-.03-.08-.07v-.03c0-.04.04-.07.07-.07.4-.03.48-.07.48-.34v-2c0-.16-.04-.18-.23-.18h-.13c-.05 0-.09-.04-.08-.09.01-.06.06-.1.19-.1h1.98zM20.63 10.76h-.14c-.04 0-.08-.03-.08-.08 0-.07.05-.12.19-.13.21-.02.47-.02 1.07-.02.83 0 1.29.39 1.29.98 0 .33-.18.6-.48.76-.05.03-.06.09-.02.13.11.1.29.26.4.35.53.43.73.49 1.06.5.05 0 .09.05.07.1-.03.1-.18.17-.53.17-.4 0-.67-.09-.98-.36-.14-.13-.3-.3-.41-.5-.11-.19-.12-.21-.38-.21h-.21c-.04 0-.08.04-.08.08v.56c0 .13.04.17.26.17h.14c.05 0 .08.04.08.08 0 .07-.03.11-.13.11h-1.29c-.04 0-.08-.03-.08-.08v-.02c0-.04.03-.07.07-.07.32-.03.4-.08.4-.33v-2c.01-.16-.05-.19-.22-.19zm.98 1.44c.43 0 .77-.07.77-.65 0-.58-.35-.76-.83-.76h-.07c-.04 0-.08.04-.08.08v1.26c0 .04.04.08.08.08h.13z"/></svg>