<svg role="img" viewBox="0 0 24 24" xmlns="http://www.w3.org/2000/svg"><title>daisyUI</title><path d="M12 0c-1.56 0-3.137.721-4.095 2.122a5 5 0 0 0-.857-.081c-1.353-.006-2.62.565-3.53 1.476C2.415 4.62 1.81 6.241 2.121 7.905.722 8.863 0 10.44 0 12s.721 3.137 2.122 4.095c-.31 1.664.294 3.286 1.395 4.388 1.102 1.101 2.724 1.706 4.388 1.395C8.863 23.278 10.44 24 12 24s3.137-.721 4.095-2.122c1.664.31 3.286-.294 4.388-1.395 1.101-1.102 1.706-2.724 1.395-4.388C23.278 15.137 24 13.56 24 12s-.721-3.137-2.122-4.095c.31-1.664-.294-3.286-1.395-4.388-1.102-1.101-2.724-1.706-4.388-1.395C15.137.722 13.56 0 12 0m0 .962c1.18 0 2.345.471 3.123 1.447a5 5 0 0 0-.64.315 4.97 4.97 0 0 1-4.965 0 5 5 0 0 0-.64-.315C9.654 1.433 10.82.962 12 .962M7.026 2.99q.196 0 .397.023a5 5 0 0 0-.229.67 4.97 4.97 0 0 1-3.511 3.511 5 5 0 0 0-.67.229c-.138-1.238.352-2.393 1.185-3.225.743-.743 1.742-1.214 2.828-1.208m10.011 0c1.062.013 2.037.479 2.765 1.208.833.832 1.323 1.987 1.185 3.225a5 5 0 0 0-.67-.229 4.97 4.97 0 0 1-3.511-3.511 5 5 0 0 0-.229-.67 4 4 0 0 1 .46-.023m-8.667.252q.333.124.668.315a5.94 5.94 0 0 0 5.924 0q.335-.191.668-.315a4.5 4.5 0 0 1 .247.69 5.94 5.94 0 0 0 4.19 4.191q.37.101.691.247a4.5 4.5 0 0 1-.315.668 5.94 5.94 0 0 0 0 5.924q.191.335.315.668a4.5 4.5 0 0 1-.69.247 5.94 5.94 0 0 0-4.191 4.19q-.101.37-.247.691a4.5 4.5 0 0 1-.668-.315 5.94 5.94 0 0 0-5.924 0 4.5 4.5 0 0 1-.668.315 4.5 4.5 0 0 1-.247-.69 5.94 5.94 0 0 0-4.19-4.191 4.5 4.5 0 0 1-.691-.247q.124-.333.315-.668a5.94 5.94 0 0 0 0-5.924 4.5 4.5 0 0 1-.315-.668q.322-.146.69-.247a5.94 5.94 0 0 0 4.191-4.19q.101-.37.247-.691M2.41 8.877q.13.323.314.64a4.97 4.97 0 0 1 0 4.965 5 5 0 0 0-.315.64C1.433 14.346.962 13.18.962 12s.471-2.345 1.447-3.123m19.18 0c.977.778 1.448 1.943 1.448 3.123s-.471 2.345-1.447 3.123a5 5 0 0 0-.315-.64 4.97 4.97 0 0 1 0-4.965q.183-.319.315-.64m-14.907 1.57a.417.417 0 0 0-.296.714l.117.117c-.13.228-.203.492-.203.774 0 .87.7 1.569 1.569 1.569s1.568-.7 1.568-1.569-.7-1.568-1.568-1.568c-.282 0-.546.073-.775.203l-.116-.117a.42.42 0 0 0-.296-.123m10.748 0a.42.42 0 0 0-.295.123l-.12.12a1.57 1.57 0 0 0-.781-.206c-.869 0-1.569.7-1.569 1.568 0 .87.7 1.569 1.569 1.569s1.569-.7 1.569-1.569c0-.279-.073-.54-.2-.767l.123-.123a.417.417 0 0 0-.296-.715m-9.904.237a.627.627 0 0 1 .627.627.627.627 0 0 1-.627.627.627.627 0 0 1-.628-.627.627.627 0 0 1 .628-.627m8.365 0a.627.627 0 0 1 .628.627.627.627 0 0 1-.628.627.627.627 0 0 1-.627-.627.627.627 0 0 1 .627-.627m-7.187 1.17a.314.314 0 0 1 .313.314.314.314 0 0 1-.313.314.314.314 0 0 1-.314-.314.314.314 0 0 1 .314-.314m8.365 0a.314.314 0 0 1 .314.314.314.314 0 0 1-.314.314.314.314 0 0 1-.314-.314.314.314 0 0 1 .314-.314m-8.757.758a.21.21 0 0 1 .21.209.21.21 0 0 1-.21.209.21.21 0 0 1-.21-.21.21.21 0 0 1 .21-.208m8.366 0a.21.21 0 0 1 .209.209.21.21 0 0 1-.21.209.21.21 0 0 1-.209-.21.21.21 0 0 1 .21-.208m-5.551.48a.32.32 0 0 0-.232.082.32.32 0 0 0-.023.453c.296.328.737.524 1.18.524.441 0 .882-.196 1.178-.524a.32.32 0 0 0-.023-.453.32.32 0 0 0-.453.023c-.145.16-.486.312-.703.312s-.558-.152-.703-.312a.32.32 0 0 0-.221-.106m-8.115 3.485q.319.134.67.229a4.97 4.97 0 0 1 3.511 3.511q.095.351.229.67c-1.238.138-2.393-.352-3.225-1.185-.833-.832-1.323-1.987-1.185-3.225m17.974 0c.138 1.238-.352 2.393-1.185 3.225-.832.833-1.987 1.323-3.225 1.185a5 5 0 0 0 .229-.67 4.97 4.97 0 0 1 3.511-3.511 5 5 0 0 0 .67-.229M12 20.612c.857 0 1.714.222 2.482.664q.318.183.64.315c-.777.976-1.942 1.447-3.122 1.447s-2.345-.471-3.123-1.447q.323-.132.64-.315A5 5 0 0 1 12 20.612"/></svg>