<svg role="img" viewBox="0 0 24 24" xmlns="http://www.w3.org/2000/svg"><title>Dapr</title><path d="M7.6175 7.5683h10.5093a.2456.2456 0 0 1 .2461.2462v.6797a.2456.2456 0 0 1-.2461.2462H7.6175a.2456.2456 0 0 1-.2461-.2462v-.6797a.2456.2456 0 0 1 .2461-.2462zM9.6504 3h6.533a.132.132 0 0 1 .1323.1324V7.751a.132.132 0 0 1-.1323.1324h-6.533a.132.132 0 0 1-.1324-.1324V3.1324A.132.132 0 0 1 9.6504 3Zm3.758 17.2488.1524-4.2941h1.7684l.1524 4.2941L14.445 21zm-7.5326-4.3315H4.0963v-.5705c-.17.2179-.3418.3766-.5155.4763-.3038.1735-.6492.2603-1.0362.2603-.6258 0-1.1828-.2197-1.671-.659C.2911 14.9 0 14.206 0 13.342c0-.8788.2984-1.5802.8952-2.1045.4738-.4172 1.0182-.6258 1.6331-.6258.358 0 .6945.0775 1.0091.2326.1809.0886.3672.2344.5589.4375V7.599h1.7795Zm-1.7253-2.5697c0-.3249-.1121-.6009-.3364-.828-.2242-.227-.4955-.3405-.8138-.3405-.3545 0-.6456.1366-.8735.4098-.1845.2215-.2767.4744-.2767.7587 0 .2843.0922.5372.2767.7587.2243.2732.5154.4098.8735.4098.322 0 .5941-.1126.8166-.3378.2224-.2252.3336-.5021.3336-.8307zm8.3997 2.5697h-1.7796v-.5705c-.17.2179-.3418.3766-.5154.4763-.3038.1735-.6492.2603-1.0363.2603-.6257 0-1.1827-.2197-1.671-.659-.5824-.5243-.8735-1.2184-.8735-2.0823 0-.8788.2984-1.5802.8952-2.1045.4738-.4172 1.0182-.6258 1.633-.6258.3581 0 .6945.0775 1.0092.2326.1809.0886.3671.2344.5588.4375v-.504h1.7796zm-1.7253-2.5697c0-.3249-.1121-.6009-.3364-.828-.2242-.227-.4955-.3405-.8138-.3405-.3545 0-.6457.1366-.8735.4098-.1845.2215-.2767.4744-.2767.7587 0 .2843.0922.5372.2767.7587.2242.2732.5154.4098.8735.4098.3219 0 .594-.1126.8165-.3378.2225-.2252.3337-.5021.3337-.8307zm8.6004.0055c0 .8787-.2984 1.5802-.8952 2.1045-.4738.4172-1.0182.6258-1.633.6258-.3582 0-.6945-.0776-1.0092-.2326-.1809-.0886-.3672-.2345-.5589-.4375v3.0736h-1.7795v-7.709h1.7795v.5704c.1592-.2141.331-.3729.5155-.4763.3038-.1735.6492-.2603 1.0362-.2603.6258 0 1.1828.2197 1.6711.659.5823.5244.8735 1.2185.8735 2.0824zm-1.85-.0055c0-.2917-.0905-.5446-.2714-.7587-.2278-.2732-.5208-.4098-.8789-.4098-.322 0-.594.1126-.8165.3378-.2225.2252-.3337.5021-.3337.8307 0 .3249.1121.6009.3364.828.2242.227.4955.3405.8138.3405.358 0 .6493-.1366.8735-.4098.1845-.2215.2767-.4744.2767-.7587zM24 12.456c-.2496-.1219-.5028-.1828-.7596-.1828-.586 0-.9657.2437-1.1393.731-.0651.1773-.0977.4154-.0977.7145v2.1986h-1.7796v-5.1394h1.7796v.8418c.188-.299.3906-.515.6077-.648.293-.1772.6402-.2658 1.0417-.2658.094 0 .2098.0055.3472.0167z"/></svg>