<svg role="img" viewBox="0 0 24 24" xmlns="http://www.w3.org/2000/svg"><title>Dapr</title><path d="M7.72 7.797h10.487c.136 0 .246.11.246.245v.601c0 .136-.11.246-.246.246H7.72a.245.245 0 0 1-.245-.246v-.6c0-.137.11-.246.245-.246zM9.615 3.54h2.51v4.55h-2.51Zm.132 0h6.52c.073 0 .132.059.132.132v4.286a.132.132 0 0 1-.132.132h-6.52a.132.132 0 0 1-.132-.132V3.672c0-.073.059-.132.132-.132zm5.82 16.073-1.049.7-1.048-.7.154-4.002h1.788zM5.98 15.576H4.205v-.531a1.8 1.8 0 0 1-.514.444 2.163 2.163 0 0 1-1.034.242 2.52 2.52 0 0 1-1.668-.614c-.58-.488-.871-1.135-.871-1.94 0-.82.297-1.473.893-1.961a2.493 2.493 0 0 1 1.63-.583c.357 0 .693.072 1.007.216.18.083.366.219.557.408V7.825h1.776zm-1.72-2.394c0-.303-.112-.56-.336-.772a1.14 1.14 0 0 0-.812-.317c-.354 0-.645.127-.872.382a1.032 1.032 0 0 0-.276.707c0 .265.092.5.276.707.224.254.514.382.872.382.321 0 .593-.105.815-.315.222-.21.333-.468.333-.774Zm8.382 2.394h-1.776v-.531a1.8 1.8 0 0 1-.514.444 2.163 2.163 0 0 1-1.034.242 2.52 2.52 0 0 1-1.668-.614c-.581-.488-.872-1.135-.872-1.94 0-.82.298-1.473.894-1.961a2.493 2.493 0 0 1 1.63-.583c.357 0 .692.072 1.006.216.18.083.367.219.558.408v-.47h1.776zm-1.722-2.394c0-.303-.112-.56-.335-.772a1.14 1.14 0 0 0-.813-.317c-.353 0-.644.127-.871.382a1.032 1.032 0 0 0-.276.707c0 .265.092.5.276.707.223.254.514.382.871.382.322 0 .593-.105.815-.315.222-.21.333-.468.333-.774zm8.583.005c0 .819-.298 1.473-.893 1.961a2.493 2.493 0 0 1-1.63.583 2.38 2.38 0 0 1-1.007-.217 1.999 1.999 0 0 1-.558-.407v2.864H13.64v-7.184h1.776v.532c.159-.2.33-.348.515-.444a2.163 2.163 0 0 1 1.034-.242c.624 0 1.18.204 1.667.614.581.488.872 1.135.872 1.94zm-1.846-.005c0-.272-.09-.508-.271-.707a1.123 1.123 0 0 0-.877-.382c-.321 0-.593.105-.815.315-.222.21-.333.468-.333.774 0 .303.112.56.336.771.223.212.494.318.812.318.357 0 .648-.128.872-.382.184-.207.276-.442.276-.707zm6.411-.831a1.811 1.811 0 0 0-.758-.17c-.584 0-.963.227-1.137.68-.065.166-.097.388-.097.667v2.048H20.3v-4.789h1.776v.785c.187-.279.39-.48.606-.604.293-.165.64-.248 1.04-.248.094 0 .21.005.346.016zM7.72 7.797h10.488c.136 0 .246.11.246.245v.601c0 .136-.11.246-.246.246H7.72a.245.245 0 0 1-.245-.246v-.6c0-.137.11-.246.245-.246zM9.616 3.54h2.51v4.55h-2.51Zm.132 0h6.52c.073 0 .132.059.132.132v4.286a.132.132 0 0 1-.132.132h-6.52a.132.132 0 0 1-.132-.132V3.672c0-.073.059-.132.132-.132zm3.877 12.071h1.788l.154 4.002-1.048.7-1.048-.7zm-7.644-.035H4.205v-.531a1.8 1.8 0 0 1-.514.444 2.163 2.163 0 0 1-1.034.242 2.52 2.52 0 0 1-1.668-.614c-.58-.488-.871-1.135-.871-1.94 0-.82.297-1.473.893-1.961a2.493 2.493 0 0 1 1.63-.583c.357 0 .693.072 1.007.216.18.083.366.219.557.408V7.825h1.776zM4.26 13.182c0-.303-.112-.56-.336-.772a1.14 1.14 0 0 0-.812-.317c-.354 0-.645.127-.872.382a1.032 1.032 0 0 0-.276.707c0 .265.092.5.276.707.224.254.514.382.872.382.321 0 .593-.105.815-.315.222-.21.333-.468.333-.774Zm8.382 2.394h-1.776v-.531a1.8 1.8 0 0 1-.514.444 2.163 2.163 0 0 1-1.034.242 2.52 2.52 0 0 1-1.668-.614c-.581-.488-.872-1.135-.872-1.94 0-.82.298-1.473.894-1.961a2.493 2.493 0 0 1 1.63-.583c.357 0 .692.072 1.006.216.18.083.367.219.558.408v-.47h1.776zm-1.722-2.394c0-.303-.112-.56-.335-.772a1.14 1.14 0 0 0-.813-.317c-.353 0-.644.127-.871.382a1.032 1.032 0 0 0-.276.707c0 .265.092.5.276.707.223.254.514.382.871.382.322 0 .593-.105.815-.315.222-.21.333-.468.333-.774zm8.583.005c0 .819-.298 1.473-.893 1.961a2.493 2.493 0 0 1-1.63.583 2.38 2.38 0 0 1-1.007-.217 1.999 1.999 0 0 1-.558-.407v2.864H13.64v-7.184h1.776v.532c.159-.2.33-.348.515-.444a2.163 2.163 0 0 1 1.034-.242c.624 0 1.18.204 1.667.614.581.488.872 1.135.872 1.94zm-1.846-.005c0-.272-.09-.508-.271-.707a1.123 1.123 0 0 0-.877-.382c-.321 0-.593.105-.815.315-.222.21-.333.468-.333.774 0 .303.112.56.336.771.223.212.494.318.812.318.357 0 .648-.128.872-.382.184-.207.276-.442.276-.707zm6.411-.831a1.811 1.811 0 0 0-.758-.17c-.584 0-.963.227-1.137.68-.065.166-.097.388-.097.667v2.048H20.3v-4.789h1.776v.785c.187-.279.39-.48.606-.604.293-.165.64-.248 1.04-.248.094 0 .21.005.346.016z"/></svg>