<svg role="img" viewBox="0 0 24 24" xmlns="http://www.w3.org/2000/svg"><title>Dapr</title><path d="M7.618 7.815h10.509c.136 0 .246.111.246.248v.61c0 .137-.11.248-.246.248H7.617a.246.248 0 0 1-.245-.249v-.608c0-.139.11-.25.246-.25zM9.517 3.5h2.515v4.612H9.517Zm.132 0h6.534c.073 0 .132.06.132.134v4.344a.132.134 0 0 1-.132.134H9.649a.132.134 0 0 1-.132-.134V3.634c0-.074.059-.134.132-.134Zm5.832 16.29-1.05.71-1.051-.71.154-4.056h1.792zM5.874 15.7H4.096v-.538a1.804 1.824 0 0 1-.516.45 2.168 2.192 0 0 1-1.036.245 2.525 2.554 0 0 1-1.671-.622C.292 14.739 0 14.084 0 13.267c0-.83.298-1.493.895-1.987a2.498 2.527 0 0 1 1.633-.591c.358 0 .695.073 1.01.219.18.084.366.222.558.413V7.843h1.78Zm-1.723-2.427c0-.307-.113-.567-.337-.782A1.142 1.155 0 0 0 3 12.169c-.354 0-.646.128-.874.387a1.034 1.046 0 0 0-.276.716c0 .27.092.507.276.717.225.257.516.387.874.387.322 0 .594-.106.817-.319.222-.213.334-.474.334-.785zm8.4 2.427h-1.78v-.538a1.804 1.824 0 0 1-.516.45 2.168 2.192 0 0 1-1.036.245 2.525 2.554 0 0 1-1.671-.622c-.582-.495-.874-1.15-.874-1.967 0-.83.299-1.493.896-1.987a2.498 2.527 0 0 1 1.633-.591c.358 0 .694.073 1.008.219.18.084.368.222.56.413v-.476h1.78zm-1.726-2.427c0-.307-.113-.567-.336-.782a1.142 1.155 0 0 0-.815-.321 1.11 1.11 0 0 0-.873.387 1.034 1.046 0 0 0-.276.716c0 .27.092.507.276.717.224.257.515.387.873.387.323 0 .594-.106.817-.319.222-.213.334-.474.334-.785zm8.6.006c0 .83-.298 1.493-.894 1.987a2.498 2.527 0 0 1-1.634.591 2.385 2.412 0 0 1-1.009-.22 2.003 2.026 0 0 1-.56-.412v2.902H13.55v-7.28h1.78v.538c.16-.202.33-.352.516-.45a2.168 2.192 0 0 1 1.036-.245c.625 0 1.183.207 1.67.622.583.495.874 1.15.874 1.967zm-1.85-.006c0-.275-.09-.514-.271-.716a1.125 1.138 0 0 0-.879-.387c-.321 0-.594.106-.816.319a1.043 1.043 0 0 0-.334.784c0 .308.112.568.337.782.223.215.495.322.813.322.358 0 .65-.13.874-.387.184-.21.277-.448.277-.717zM24 12.43a1.815 1.836 0 0 0-.76-.172c-.585 0-.965.23-1.139.69-.065.167-.097.392-.097.675V15.7h-1.78v-4.854h1.78v.796c.187-.283.39-.487.607-.612.294-.168.641-.252 1.042-.252.094 0 .21.005.347.016zM7.618 7.815h10.51c.136 0 .246.111.246.248v.61c0 .137-.11.248-.246.248H7.618a.246.248 0 0 1-.246-.249v-.608c0-.139.11-.25.246-.25zm1.9-4.315h2.515v4.612H9.518zm.132 0h6.534c.073 0 .132.06.132.134v4.344a.132.134 0 0 1-.132.134H9.65a.132.134 0 0 1-.132-.134V3.634c0-.074.059-.134.132-.134Zm3.885 12.234h1.792l.154 4.057-1.05.709-1.05-.71Zm-7.66-.035h-1.78v-.538a1.804 1.824 0 0 1-.515.45 2.168 2.192 0 0 1-1.036.245 2.525 2.554 0 0 1-1.671-.622C.292 14.739 0 14.084 0 13.267c0-.83.298-1.493.895-1.987a2.498 2.527 0 0 1 1.633-.591c.358 0 .695.073 1.01.219.18.084.366.222.558.413V7.843h1.78Zm-1.724-2.427c0-.307-.113-.567-.337-.782A1.142 1.155 0 0 0 3 12.169c-.354 0-.646.128-.874.387a1.034 1.046 0 0 0-.276.716c0 .27.092.507.276.717.225.257.516.387.874.387.322 0 .594-.106.817-.319.222-.213.334-.474.334-.785zm8.4 2.427h-1.78v-.538a1.804 1.824 0 0 1-.516.45 2.168 2.192 0 0 1-1.036.245 2.525 2.554 0 0 1-1.671-.622c-.582-.495-.874-1.15-.874-1.967 0-.83.299-1.493.896-1.987a2.498 2.527 0 0 1 1.633-.591c.358 0 .694.073 1.008.219.18.084.368.222.56.413v-.476h1.78zm-1.726-2.427c0-.307-.113-.567-.336-.782a1.142 1.155 0 0 0-.815-.321 1.11 1.11 0 0 0-.873.387 1.034 1.046 0 0 0-.276.716c0 .27.092.507.276.717.224.257.515.387.873.387.323 0 .594-.106.817-.319.222-.213.334-.474.334-.785zm8.6.006c0 .83-.298 1.493-.894 1.987a2.498 2.527 0 0 1-1.634.591 2.385 2.412 0 0 1-1.009-.22 2.003 2.026 0 0 1-.56-.412v2.902H13.55v-7.28h1.78v.538c.16-.202.33-.352.516-.45a2.168 2.192 0 0 1 1.036-.245c.625 0 1.183.207 1.67.622.583.495.874 1.15.874 1.967zm-1.85-.006c0-.275-.09-.514-.271-.716a1.125 1.138 0 0 0-.879-.387c-.321 0-.594.106-.816.319a1.043 1.043 0 0 0-.334.784c0 .308.112.568.337.782.223.215.495.322.813.322.358 0 .65-.13.874-.387.184-.21.277-.448.277-.717zM24 12.43a1.815 1.836 0 0 0-.76-.172c-.585 0-.965.23-1.139.69-.065.167-.097.392-.097.675V15.7h-1.78v-4.854h1.78v.796c.187-.283.39-.487.607-.612.294-.168.641-.252 1.042-.252.094 0 .21.005.347.016z"/></svg>