<svg role="img" viewBox="0 0 24 24" xmlns="http://www.w3.org/2000/svg"><title>Dassault Systèmes icon</title><path d="M21.185 8.026c1.064.192 1.932.34 2.131.79.223.51-.936.541-1.52.552-2.799.054-4.486.11-4.571 1.061-.11 1.224 1.196 2.457 2.486 4.185 1.178 1.577 2.517 3.135 2.132 4.586-.482 1.809-2.699 2.192-4.81 2.192-2.021.001-3.938-.323-4.743-.482-1.002-.199-.852-.694-.585-.853.298-.178 2.002-.182 3.187-.252.975-.058 3.805-.056 4.246-.781.54-.889-.783-2.408-2-4-1.519-1.984-3.186-4.034-2.303-5.532 1.14-1.936 4.484-1.803 6.35-1.466m-13.69 2.95c1.772-.104 3.926.206 5.134 1.13a2.172 2.172 0 01.78 2.277c-.698 2.752-3.304 6.083-9.093 8.643-1.841.813-3.289 1.125-3.593.906-.326-.234.624-2.052.909-2.654.925-1.952 2.079-3.853 3.205-5.595.414-.64 1.055-1.752 1.634-1.662.519.08-.089 1.26-.488 2.011-.672 1.26-2.523 4.76-1.912 4.969 1.35.462 7.68-4.354 6.746-7.036-.432-1.245-3.18-1.363-4.912-1.363-.787 0-2.508.186-2.603-.417-.102-.556 2.613-1.116 4.192-1.21M11.867.014c2.068-.098 4.514.342 4.97 1.802.747 2.39-3.04 5.877-6.338 7.587-.809.42-1.3.536-1.504.507-.195-.027-.225-.221-.162-.355.118-.252.65-.764 1.361-1.322 3.715-2.9 4.923-5.028 4.221-5.89-.45-.552-2.332-.937-4.287-.937-.53 0-1.925.123-2.068-.367C7.942.635 9.814.109 11.866.013"/></svg>