<svg role="img" viewBox="0 0 24 24" xmlns="http://www.w3.org/2000/svg"><title>Datadog icon</title><path d="M8.004 6.294c.828-.564 1.895-.342 1.717-.172-.34.323.112.228.161.826.036.44-.108.684-.232.822a5.293 5.293 0 00-1.54.455 1.393 1.393 0 01-.151-.116c-.585-.505-.565-1.399.045-1.815zm4.947 3.489c.15-.117.833-.336 1.465-.411.332-.04.805-.062.906-.006.2.111.2.453.063.77-.2.46-.482.967-.802 1.009-.522.069-1.016-.213-1.58-.635-.2-.15-.324-.517-.052-.727zm.952-4.474c.77.358.67 1.04.691 1.441.006.115.004.193-.006.246-.107-.057-.275-.1-.543-.088a1.979 1.979 0 00-.228.024c-.284-.152-.454-.45-.61-.767a1.144 1.144 0 01-.035-.081l-.014-.035-.005-.016c-.085-.27-.028-.325.008-.408.037-.085.177-.156-.029-.227a.376.376 0 00-.064-.014c.135-.17.544-.21.835-.075zM9.7 13.467c-.83-.534-1.69-1.298-2.065-1.721-.063-.048-.053-.259-.053-.259.34.264 1.746 1.269 3.233 1.728.525.162 1.33.223 2.028-.173.534-.303 1.177-.83 1.56-1.373l.07.122c-.002.08-.18.474-.269.632.162.093.283.119.464.168l1.232-.192c.442-.714.759-1.865.421-2.962-.193-.628-1.198-1.88-1.27-1.949-.253-.243.042-1.18-.459-2.203-.53-1.081-1.907-2.21-2.506-2.701.176.129 1.263.567 1.769 1.178.047-.063.067-.392.11-.475-.434-.569-.468-1.582-.468-1.853 0-.497-.253-1.06-.253-1.06s.435.344.548.937c.132.703.416 1.256.79 1.724.709.882 1.348 1.335 1.672 1.01.388-.393-.392-2.146-1.388-3.124C13.706-.22 13.4-.073 12.719.17c-.544.193-.838 1.739-2.256 1.708a13.79 13.79 0 00-1.166-.04c.16-.223.296-.395.296-.395s-.475.191-.88.434l-.032-.047c.137-.289.284-.47.284-.47s-.38.228-.727.501c.063-.344.302-.562.302-.562s-.48.087-1.092.76c-.696.19-.863.315-1.417.56-.9-.196-1.326-.514-1.73-1.098-.31-.445-.858-.513-1.42-.283-.817.34-1.851.802-1.851.802s.336-.013.688.003c-.481.182-.944.432-.944.432s.226-.008.504-.003c-.193.16-.299.236-.481.357-.44.32-.797.688-.797.688s.299-.136.567-.212c-.188.43-.56.746-.49 1.272.065.48.654 1.47 1.416 2.077.065.053 1.105 1.014 1.89.62.783-.395 1.092-.746 1.221-1.286.152-.62.065-1.086-.258-2.43a40.117 40.117 0 00-.519-1.793l.03-.022c.257.54.913 1.967 1.177 2.924.413 1.494.284 2.252.095 2.53-.57.838-2.029.948-2.693.484-.101 1.609.258 2.317.38 2.673-.061.41.205 1.172.205 1.172s.03-.347.151-.529c.033.407.238.89.238.89s-.012-.298.081-.556c.131.222.228.276.352.443.124.435.374.753.374.753s-.04-.233-.018-.476c.609.584.713 1.438.774 2.093.17 1.803-2.842 3.235-3.426 4.363-.442.667-.707 1.724.042 2.347 1.812 1.504 1.116 1.918 2.022 2.58 1.244.906 2.801.5 3.331-.238.738-1.027.548-1.997.274-2.903-.214-.71-.796-1.887-1.517-2.343a3.148 3.148 0 00-2.056-.49l.056-.065c.872-.173 1.782-.078 2.442.347.749.481 1.433 1.307 1.792 2.571.406-.057.463-.084.834-.137l-.836-6.515 1.77-.195zm.483 8.167l-.096-.903 1.882-2.871 2.137.624 1.838-3.07 2.203 1.454 1.674-3.51.595 6.392-10.233 1.884zm10.255-9.586l-6.726 1.22c-.167.214-.578.591-.777.69-.85.427-1.423.303-1.92.175-.318-.082-.503-.127-.768-.246l-1.642.225.996 8.315 11.523-2.077-.686-8.302z"/></svg>