<svg role="img" viewBox="0 0 24 24" xmlns="http://www.w3.org/2000/svg"><title>DaVinci Resolve</title><path d="M17.47 0 6.138.004c-1.334 0-2.718.314-3.697 1.08a5.234 5.234 0 0 0-1.62 2.07c-.362.812-.5 1.866-.5 2.797l.012 12.2c.002 1.604.466 3.057 1.422 4.112.957 1.056 2.396 1.683 4.215 1.691L16.726 24c1.226.005 3.012-.036 4.187-.714 1.047-.605 1.971-1.556 2.431-2.984.27-.84.335-2.084.334-3.147l-.02-11.13c-.002-.888-.146-2.023-.532-2.934-.414-.976-1.15-1.815-2.26-2.425C20.129.26 18.932 0 17.471 0zm0 .93c1.341 0 2.458.283 2.947.553.951.523 1.514 1.178 1.85 1.972.307.721.458 1.793.46 2.572l.018 11.13c.002 1.013-.095 2.257-.29 2.86-.386 1.202-1.115 1.946-2.008 2.462-.792.457-2.542.593-3.717.588l-10.756-.044c-1.612-.007-2.756-.534-3.528-1.386-.771-.851-1.18-2.06-1.18-3.485L1.252 5.95c0-.829.148-1.81.419-2.42.335-.757.745-1.247 1.343-1.714.727-.57 1.943-.88 3.123-.88zm-5.52 3.376c-1.964.054-3.14 1.666-3.104 3.337.03 1.455 1.594 3.5 2.817 4.519.118.098.12.104.291.176.06.024.2-.032.326-.12.35-.245.95-.908 1.588-1.699.36-.446.757-1.02 1.003-1.6.22-.52.326-.949.303-1.346-.009-.162-.018-.47-.062-.654-.155-.635-.481-1.315-.97-1.774a3.198 3.198 0 0 0-2.192-.839zm4.072 7.969a9.678 9.678 0 0 0-3.157.61c-.146.058-.254.1-.364.17-.056.036-.107.135-.102.292.016.433.281 1.278.607 2.27.374 1.135 1.037 2.27 1.794 2.74a3.07 3.07 0 0 0 2.462.342c.81-.243 1.553-.868 1.91-1.546.96-1.818.185-3.548-1.091-4.417-.435-.296-1.103-.445-1.839-.46-.072 0-.147-.002-.22-.001zm-8.206.038c-.26.002-.512.017-.732.047-.58.078-.934.257-1.282.495-.672.46-1.126 1.148-1.31 1.99-.073.552-.099 1.053.017 1.507.363 1.413 1.26 2.232 2.794 2.456.619.028 1.306-.079 1.91-.465 1.224-.783 1.96-3.155 2.355-4.727.04-.155.017-.29.006-.42-.005-.067-.043-.113-.184-.183-.388-.192-1.285-.417-2.312-.6a7.278 7.278 0 0 0-1.262-.1z"/></svg>