<svg role="img" viewBox="0 0 24 24" xmlns="http://www.w3.org/2000/svg"><title>DaVinci Resolve</title><path d="M0 0v24zm7.466 18.332c-.916-.087-1.683-.475-2.222-1.116a3.137 3.137 0 0 1-.692-2.703c.237-1.13 1.123-2.08 2.206-2.358 1.019-.262 2.57-.112 4.303.407.341.103.388.12.49.197.164.124.183.273.073.716-.249 1.002-.563 1.951-.924 2.683-.452.917-.958 1.501-1.53 1.809-.289.154-.666.28-1.019.336-.158.025-.564.04-.685.029zm8.79 0c-.537-.055-1.138-.276-1.497-.54-.67-.49-1.3-1.572-1.807-3.076-.224-.665-.441-1.463-.444-1.648-.004-.21.098-.325.396-.418 1.183-.37 2.27-.575 3.208-.6.945-.025 1.6.129 2.155.49.52.337.933.81 1.191 1.38.294.65.33 1.444.13 2.15a3.12 3.12 0 0 1-2.564 2.238 3.93 3.93 0 0 1-.769.023zm-4.326-6.317c-.133-.068-.2-.111-.49-.383-.273-.257-.72-.71-.991-1.025-.816-.945-1.336-1.843-1.5-2.6-.174-.795.061-1.727.594-2.434a4.33 4.33 0 0 1 .55-.564 3.175 3.175 0 0 1 4.192.178c.47.445.784 1.016.925 1.673.04.191.06.257.06.579.001.336-.019.362-.063.55-.167.696-.598 1.468-1.348 2.388-.3.367-.593.696-1.059 1.165-.549.552-.641.589-.87.473zM12.105.23C5.544.23.212 5.5.212 11.998c0 6.497 5.331 11.768 11.893 11.768s11.893-5.271 11.893-11.768S18.668.23 12.105.23zm0 .725c6.176 0 11.17 4.94 11.17 11.043 0 6.101-4.994 11.045-11.17 11.045-6.175 0-11.17-4.944-11.17-11.045C.935 5.896 5.93.955 12.105.955z"/></svg>