<svg role="img" viewBox="0 0 24 24" xmlns="http://www.w3.org/2000/svg"><title>Dazhong Dianping</title><path d="M6.924 0C4.517 0 3.644.25 2.76.718A4.906 4.906 0 0 0 .72 2.763C.248 3.643 0 4.517 0 6.92v10.156c0 2.407.25 3.28.718 4.161a4.919 4.919 0 0 0 2.041 2.041c.884.473 1.758.722 4.165.722h10.152c2.407 0 3.28-.25 4.161-.718a4.906 4.906 0 0 0 2.041-2.045c.473-.88.722-1.754.722-4.157V6.92c0-2.407-.25-3.28-.718-4.16A4.906 4.906 0 0 0 21.24.717C20.353.25 19.48 0 17.072 0Zm3.092 2.706a3.07 3.07 0 1 1 .094 6.138 3.07 3.07 0 0 1-.094-6.138zm7.037 1.614a6.64 6.64 0 0 1 .133 2.056 6.826 6.826 0 0 1-2.48 4.656 7.824 7.824 0 0 1 6.512 5.5h.008l.212.725-2.688.684-.189-.669c-.756-2.623-3.552-4.172-6.274-3.47-2.721.708-4.339 3.395-3.643 6.025l.196.73-2.683.684-.204-.752h.007a7.381 7.381 0 0 1-.215-2.555 7.555 7.555 0 0 1 3.012-5.36A7.083 7.083 0 0 1 3.25 7.9l2.62-.68c.567 1.538 2.014 2.69 3.802 2.842 2.445.208 4.603-1.542 4.819-3.908a4.15 4.15 0 0 0-.057-1.149Z"/></svg>