<svg role="img" viewBox="0 0 24 24" xmlns="http://www.w3.org/2000/svg"><title>Dazhong Dianping</title><path d="M6.9226 0h10.1549c2.407 0 3.2801.2506 4.1602.7214.8798.4705 1.5704 1.1611 2.041 2.0412.4707.88.7213 1.7529.7213 4.16v10.1549c0 2.4073-.2506 3.2802-.7214 4.16-.4705.88-1.1611 1.5707-2.041 2.0414-.88.4705-1.753.7212-4.1601.7212H6.9225c-2.407 0-3.2799-.2507-4.16-.7212-.88-.4707-1.5706-1.1614-2.0414-2.0414C.2506 20.3577 0 19.4848 0 17.0775V6.9225c0-2.407.2506-3.2799.7211-4.16.4708-.88 1.1614-1.5706 2.0415-2.0411C3.6426.2506 4.5155 0 6.9226 0m.0806 5.5064c.1475-1.6889 1.6364-2.9383 3.3256-2.7903 1.689.1475 2.938 1.6364 2.7903 3.3256-.148 1.6886-1.6366 2.9383-3.3255 2.7903-1.6892-.1472-2.9383-1.6364-2.7904-3.3256Zm14.4332 11.7497-2.6875.6857c-.0608-.2227-.129-.4519-.191-.6696-.7518-2.6225-3.5493-4.1736-6.2722-3.4676-2.7184.7045-4.3385 3.3922-3.6431 6.0222l.1988.7288-2.6875.6862c-.0693-.2476-.1328-.5125-.1953-.7538a7.3818 7.3818 0 0 1-.2137-2.5551c.1988-2.1996 1.3431-4.099 3.012-5.3581-2.634-.4693-4.715-2.3124-5.5046-4.6781l2.6193-.6788c.5667 1.5343 2.013 2.6892 3.801 2.8402 2.4463.207 4.6035-1.5432 4.8174-3.9096a4.1722 4.1722 0 0 0-.056-1.1498l2.6208-.679a6.7095 6.7095 0 0 1 .1309 2.0574c-.1703 1.88-1.1044 3.5191-2.4798 4.6555 3.1769.4264 5.6846 2.6493 6.5133 5.5004.0807.2201.1485.486.2172.7231z"/></svg>