<svg role="img" viewBox="0 0 24 24" xmlns="http://www.w3.org/2000/svg"><title>dbdiagramdotio</title><path d="M4.588 0h6.99v.626h-6.62A4.355 4.355 0 0 0 .61 4.973v14.106a4.356 4.356 0 0 0 4.347 4.347h6.62V24H4.588a4.584 4.584 0 0 1-4.575-4.575V4.575A4.584 4.584 0 0 1 4.588 0Zm7.01 23.427h-.017V24h7.83a4.584 4.584 0 0 0 4.576-4.576V4.575A4.574 4.574 0 0 0 19.411 0H11.58v.626h7.454a4.346 4.346 0 0 1 4.347 4.347v14.106a4.356 4.356 0 0 1-4.347 4.347H11.6Zm7.078-19.824h-3.301a.918.918 0 0 0-.916.915v2.181l-5.534 4.004v-.47a.91.91 0 0 0-.916-.915H4.71a.91.91 0 0 0-.914.916v3.3c0 .51.404.915.914.915h3.3a.918.918 0 0 0 .916-.915v-.38l5.534 4.304v2.09c0 .51.405.915.916.915h3.3a.91.91 0 0 0 .914-.916v-3.3a.91.91 0 0 0-.914-.915h-3.301a.921.921 0 0 0-.868.624l-5.19-4.037 5.204-3.765a.91.91 0 0 0 .854.58h3.3a.91.91 0 0 0 .914-.916v-3.3a.91.91 0 0 0-.914-.915Z"/></svg>