<svg role="img" viewBox="0 0 24 24" xmlns="http://www.w3.org/2000/svg"><title>dbdiagram.io</title><path d="M23.982 11.575V4.712C24.042 2.125 22.027 0 19.377 0h-7.583v8.075l-.497.353V0h-6.68C3.41.003 2.287.43 1.333 1.368.295 2.386.018 3.564.016 4.747v14.481c0 1.42.372 2.345 1.222 3.303.997.979 1.876 1.466 3.359 1.466h6.699v-8.44l.497.377v8.063h7.543c1.542.058 2.805-.806 3.357-1.397 1.37-1.456 1.289-2.915 1.289-3.374v-7.164H11.793v1.136l-.497-.38v-1.724l.497-.352v.833h12.189Zm-14.665.337 5.19 4.036a.896.896 0 0 1 .32-.434.87.87 0 0 1 .491-.183h3.29a.926.926 0 0 1 .637.196.91.91 0 0 1 .337.606l.006 3.24c0 .161.01.263-.037.431a.942.942 0 0 1-.216.375.94.94 0 0 1-.246.181c-.105.046-.189.098-.483.098h-3.16a.952.952 0 0 1-.533-.122.882.882 0 0 1-.304-.286.942.942 0 0 1-.138-.353c-.02-.116-.008-.197-.013-.348v-1.9l-5.535-4.305v.341a.919.919 0 0 1-.928.953H4.707a.917.917 0 0 1-.67-.29.935.935 0 0 1-.243-.66v-3.223a.917.917 0 0 1 .537-.877.935.935 0 0 1 .376-.08h3.288a.906.906 0 0 1 .927.948v.442l5.536-4.004V4.611c-.034-.59.415-1.011.907-1.011h3.294a.93.93 0 0 1 .644.248.923.923 0 0 1 .269.494c.02.12.015.227.016.343v3.143a.903.903 0 0 1-.35.708.931.931 0 0 1-.64.193h-3.244a.931.931 0 0 1-.507-.163.886.886 0 0 1-.327-.417l-5.203 3.763Z"/></svg>