<svg role="img" viewBox="0 0 24 24" xmlns="http://www.w3.org/2000/svg"><title>dblp icon</title><path d="M21.2995 14.5799l-2.4499-9.1595s-.15-.59-.72-.33L12.53 7.6902l.86 3.1999 1.0899 4.0797.01.06c.05.47-.41.79-.41.79l-1.88.87.5 1.8898.04.1c.07.17.28.6.81.91l6.9496 4.2698s.68.41.52-.17l-1.9799-7.3996 1.86-.86s.5599-.26.3999-.85zm-7.5396.09l-.01-.06-1.13-4.2198-.6599-2.4499-.67-2.4898v-.04s-.16-.59-.84-1L3.5006.1406s-.68-.41-.52.17l1.9899 7.4196-1.87.87s-.5599.26-.3999.85l2.4499 9.1594s.16.59.72.33l6.1696-2.8698 1.3-.61s.5199-.24.4199-.79z"/></svg>