<svg role="img" viewBox="0 0 24 24" xmlns="http://www.w3.org/2000/svg" ><title>dbt icon</title><path d="M22.693.452A2.543 2.543 0 0021.8.066a2.824 2.824 0 00-1-.039 3.099 3.099 0 00-1 .319l-1.464.806-1.463.804-1.463.804-1.46.811a4.246 4.246 0 01-1.01.429 3.893 3.893 0 01-1.051.154 3.942 3.942 0 01-1.055-.13 4.199 4.199 0 01-1.015-.417l-1.42-.77-1.416-.772-1.419-.773L4.145.525A2.599 2.599 0 002.369.143a2.846 2.846 0 00-2.326 2.23A2.571 2.571 0 00.36 4.155l.499.911 1.095 2c.397.729.796 1.459 1.096 2l.497.911a4.179 4.179 0 01.429 1A3.97 3.97 0 014 13.102a4.261 4.261 0 01-.428 1.017l-.782 1.453-.78 1.448-.78 1.45-.78 1.449a3.241 3.241 0 00-.298.753 2.666 2.666 0 00-.086.76 2.371 2.371 0 00.143.737 2.503 2.503 0 00.363.689 2.714 2.714 0 00.714.671 2.812 2.812 0 00.894.39 2.857 2.857 0 001 .064 2.911 2.911 0 001-.304l1.518-.833 1.517-.831 1.518-.833 1.518-.833a8.199 8.199 0 01-1.259-1.114 11.21 11.21 0 01-1.047-1.326c-.319-.469-.61-.957-.881-1.454a31.01 31.01 0 01-.682-1.337 7.521 7.521 0 002.272 2.234 37.633 37.633 0 004.05 2.429c1.47.782 2.981 1.522 4.285 2.177s2.41 1.221 3.066 1.654a2.414 2.414 0 001.76.277A2.76 2.76 0 0023.243 23a3.057 3.057 0 00.729-1.57 2.694 2.694 0 00-.359-1.78l-.897-1.617-1.966-3.571-1.964-3.572-.888-1.604a10.176 10.176 0 00-.619-.929 8.872 8.872 0 00-.714-.836 7.747 7.747 0 00-.812-.732 7.381 7.381 0 00-.923-.62c.503.228 1.012.465 1.513.72a16.413 16.413 0 011.469.84 10.467 10.467 0 011.341 1.02 7.806 7.806 0 011.143 1.271l.807-1.477.806-1.477.807-1.48.808-1.478a2.597 2.597 0 00.3-.707 2.66 2.66 0 00-.054-1.526 2.471 2.471 0 00-.373-.7 2.534 2.534 0 00-.704-.723zM3.973 21.143a1.056 1.056 0 01-1.108 1.129 1.119 1.119 0 01-.02-2.237 1.056 1.056 0 011.128 1.108zM1.76 2.902a1.057 1.057 0 011.11-1.129 1.057 1.057 0 011.131 1.11 1.057 1.057 0 01-1.108 1.129 1.059 1.059 0 01-1.133-1.11zm20.47 18.207A1.12 1.12 0 1121.099 20h.002a1.057 1.057 0 011.129 1.11zm-7.572-9.51a1.635 1.635 0 00-1.525-.744 2.234 2.234 0 00-1.5 3.821A2.664 2.664 0 019.322 11.7l.005-.041A2.786 2.786 0 0112.36 9.34a2.63 2.63 0 012.296 2.258zm7.652-8.792a1.12 1.12 0 01-2.239.02 1.12 1.12 0 012.239-.02z"/></svg>