<svg role="img" viewBox="0 0 24 24" xmlns="http://www.w3.org/2000/svg">
  <title>dbt</title>
<svg role="img" viewBox="0 0 24 24" xmlns="http://www.w3.org/2000/svg"><title>dbt</title><path d="M88.2,7.9c1.9,1.8,3.2,4.2,3.4,6.9c0,1.1 0.3,1.8 0.9,3.2c0.7,1.4-8.8,15.4-11.2,19.3c-1.4,2.3-2.1,5-2.1,7.6s0.7,5.3,2.1,7.6c2.4,3.9,10.6,18,11.2,19.4c0.7,1.4,0.9,2.1,0.9,3.2c0.3,2.6-1.5,5.1-3.4,6.8c-1.8,1.9-4.2,3.2-6.8,3.4c-1.1,0-1.8 0.3-3.2 0.9c-1.3 0.7-15.7-8.6-19.5-11c0.3 0.2 0.6 0.4-1 0.5L38.6,61.5c0.4,3.7,2,7.2,4.7,9.7c0.5,0.5,1,0.9,1.6,1.4c0.4,0.2-1,0.4-1.4,0.7c-3.9,2.4-18,10.6-19.4,11.2c-1.4,0.7-2,0.9-3.2,0.9c-2.6 0.3-5.1-1.5-6.8-3.4c-1.9-1.8-3.1-4.2-3.4-6.9c0.1-1.1,0.4-2.2,0.9-3.2c0.7-1.4,8.8-15.5,11.2-19.4c1.4-2.3,2.1-4.9,2.1-7.6s0.7-5.3-2.1-7.6c-2.4-4-10.6-18.2-11.2-19.5c0.6-1 0.9-2.1 0.9-3.1c0.3-2.6,1.5-5.1,3.4-6.9c1.8-1.9,4.2-3.1,6.9-3.4c1.1,0.1,2.2,0.4,3.2,0.9c1.2,0.5,11.5,6.5,17,9.7l1.2,0.7c0.4,0.3,0.8,0.5,1.1,0.7l0.6,0.4l19.5,11.6c0.4-4.4-2.7-8.4-6.2-11.1c0.4 0.2,1 0.4,1.4 0.7c3.9-2.4,18-10.6,19.4-11.2c0.9 0.6,2.1 0.9,3.2 0.9C84,4.8,86.4,6,88.2,7.9z M52.2,50.2l4.2-4.2c0.6 0.6,0.6-1.5,0-2l-4.2-4.2c0.6 0.6-1.5 0.6-2,0L46,44c0.6,0.6 0.6,1.5,0,2l4.2,4.2C50.6,50.7,51.6,50.7,52.2,50.2z"/></svg>


	


	
