<svg role="img" viewBox="0 0 24 24" xmlns="http://www.w3.org/2000/svg"><title>dbt</title><path d="M22.981 1.004c.56.543.93 1.256 1.016 2.036 0 .324-.086.544-.284.952-.197.411-2.601 4.573-3.32 5.725a4.393 4.393 0 0 0-.628 2.256c0 .779.219 1.582.627 2.256.714 1.152 3.124 5.333 3.321 5.752.198.411.284.609.284.933a3.182 3.182 0 0 1-1 2.018c-.544.562-1.258.933-2.018 1-.324 0-.544-.086-.933-.284-.39-.197-11.76-6.769-11.76-6.769.133 1.085.61 2.126 1.39 2.886.152.151.306.284.477.41-.133.066-5.745 3.344-6.161 3.541-.411.197-.609.284-.952.284a3.182 3.182 0 0 1-2.018-1 3.356 3.356 0 0 1-1.02-2.04c.02-.324.114-.649.285-.933.197-.411 2.601-4.6 3.32-5.752a4.336 4.336 0 0 0 .628-2.256c0-.8-.219-1.582-.627-2.256C2.894 8.573.465 4.381.287 3.973a2.121 2.121 0 0 1-.284-.933 3.29 3.29 0 0 1 1-2.04 3.332 3.332 0 0 1 2.04-1c.324.019.649.114.952.284.343.151 11.689 6.842 11.689 6.842a4.683 4.683 0 0 0-1.818-3.272C13.947 3.811 19.581.471 20 .292c.284-.173.609-.257.952-.284.76.087 1.477.43 2.018 1l.011-.004Zm0 0-.003-.003.005.002-.002.001ZM12.403 14.026l1.623-1.628a.56.56 0 0 0 0-.8l-1.623-1.63a.552.552 0 0 0-.798 0l-1.623 1.63a.56.56 0 0 0 0 .8l1.623 1.628c.2.2.563.2.798 0Z"/></svg>