<svg role="img" viewBox="0 0 24 24" xmlns="http://www.w3.org/2000/svg"><title>Debrid-Link</title><path d="m.226 5.514-.112.116L0 5.743v2.498l.128.126.125.126h2.928c3.177 0 3.27.004 3.772.147 1.057.302 1.667 1.027 1.903 2.268.05.271.058.397.058 1.038 0 .64-.006.772-.056 1.05-.257 1.41-.986 2.162-2.321 2.396-.255.045-.448.05-2.152.05H2.51l-.014-2.349-.013-2.346-.112-.105-.112-.103H.229l-.115.111-.114.113v7.418l.128.123.125.125h2.79c1.534 0 2.975-.013 3.201-.027 1.916-.117 3.273-.806 4.135-2.1.516-.775.816-1.663.985-2.92.062-.459.07-2.28.012-2.75-.14-1.166-.442-2.111-.905-2.856-.673-1.083-1.75-1.82-3.07-2.1-.713-.15-.517-.142-3.972-.152Zm12.68.002-.115.118-.119.115.01 4.967c.01 4.959.01 4.964.067 5.255.087.443.154.664.299.966.395.832 1.001 1.277 2.018 1.483.207.042.586.047 4.517.055l4.29.01.127-.126v-2.503l-.12-.118-.121-.118-3.898-.014-3.9-.014-.152-.06a1.03 1.03 0 0 1-.606-.61c-.132-.351-.13-.259-.13-4.8V5.746l-.117-.115-.115-.116h-1.032z"/></svg>