<svg role="img" viewBox="0 0 24 24" xmlns="http://www.w3.org/2000/svg"><title>Decentraland</title><path d="M16.8883 18.9778h3.1112L16.8883 15.2ZM8.444 9.5556v6.6222h5.4667ZM12.0439 0C5.4661 0 .0883 5.3333.0883 11.9556c0 1.4666.2667 2.8888.7556 4.1777l4.6222-5.5555 2.6667-3.2445 6.4889 7.8223 1.8666-2.2667 4.889 5.8667h.4c1.3777-1.9556 2.1333-4.3112 2.1333-6.8445C23.9995 5.3333 18.6216 0 12.0439 0ZM8.0883 6.2667c-.9333 0-1.6444-.7556-1.6444-1.6445s.7556-1.6444 1.6444-1.6444c.9334 0 1.6445.7555 1.6445 1.6444 0 .889-.7111 1.6445-1.6445 1.6445zm8.6667 5.3777a3.2815 3.2815 0 0 1-3.2889-3.2888 3.2815 3.2815 0 0 1 3.289-3.289 3.2815 3.2815 0 0 1 3.2888 3.289c.0444 1.8222-1.4667 3.2888-3.2889 3.2888zm-3.9555 5.7334H1.2439c.2667.5333.5778 1.0222.8889 1.511h9.3778Zm-8.2667 4.0444h14.8889c.4889-.4 1.0222-.8889 1.3333-1.2444H3.1995c.4444.4444.8888.8889 1.3333 1.2444zM12.0439 24c1.9556 0 3.8222-.4444 5.4667-1.2889H6.5772C8.2217 23.5556 10.044 24 12.044 24Z"/></svg>