<svg role="img" viewBox="0 0 24 24" xmlns="http://www.w3.org/2000/svg"><title>Deepseek</title><path fill="#fff" d="M22.975 5.254c-.236-.116-.338.104-.476.216-.047.037-.087.084-.126.126-.346.37-.749.612-1.274.583-.77-.043-1.427.2-2.007.789-.124-.727-.534-1.161-1.157-1.44-.327-.144-.658-.289-.886-.604-.16-.223-.203-.472-.284-.718-.05-.148-.101-.3-.272-.326-.185-.029-.257.127-.33.257-.29.53-.402 1.117-.392 1.71.026 1.333.589 2.395 1.706 3.152.127.086.16.174.12.3-.076.26-.167.513-.248.773-.05.167-.126.203-.303.13a5.107 5.107 0 0 1-1.612-1.095c-.795-.77-1.513-1.62-2.41-2.284-.21-.155-.42-.3-.638-.437-.915-.89.12-1.621.359-1.707.25-.09.087-.401-.723-.398-.808.004-1.549.275-2.492.636a2.608 2.608 0 0 1-.432.126 8.958 8.958 0 0 0-2.675-.093c-1.748.196-3.146 1.024-4.173 2.437C1.017 9.085.726 11.015 1.082 13.03c.373 2.12 1.455 3.879 3.117 5.252 1.724 1.423 3.709 2.12 5.973 1.987 1.375-.079 2.907-.263 4.634-1.727.436.216.893.302 1.652.368.584.055 1.146-.029 1.582-.119.682-.144.635-.776.388-.893-2-.932-1.56-.553-1.96-.86 1.016-1.204 2.548-2.455 3.147-6.505.047-.323.006-.524 0-.786-.004-.158.032-.22.213-.238a3.83 3.83 0 0 0 1.434-.441c1.296-.71 1.818-1.872 1.941-3.267.019-.213-.004-.434-.228-.546zM11.685 17.81c-1.938-1.526-2.878-2.027-3.266-2.005-.363.02-.298.436-.218.707.083.267.192.452.345.686.106.156.178.388-.105.56-.624.389-1.71-.13-1.76-.155-1.263-.743-2.32-1.727-3.064-3.071-.717-1.295-1.135-2.683-1.204-4.164-.018-.36.087-.486.443-.55a4.4 4.4 0 0 1 1.419-.036c1.978.29 3.661 1.175 5.072 2.576.806.8 1.416 1.755 2.044 2.687.668.99 1.386 1.934 2.301 2.706.322.271.58.478.827.63-.744.083-1.985.101-2.834-.571zm.928-5.983a.285.285 0 1 1 .57 0c0 .16-.126.286-.286.286a.282.282 0 0 1-.284-.286zm2.886 1.484c-.185.075-.37.14-.548.148a1.168 1.168 0 0 1-.74-.236c-.254-.213-.436-.332-.513-.705a1.643 1.643 0 0 1 .015-.546c.066-.304-.007-.498-.22-.676-.175-.144-.396-.183-.64-.183a.517.517 0 0 1-.236-.073c-.102-.052-.185-.178-.105-.333.025-.05.15-.173.178-.195.33-.188.71-.126 1.063.015.327.134.573.38.929.725.363.42.428.537.635.85.163.247.312.5.414.79.061.179-.018.327-.233.419z"/></svg>