<?xml version="1.0" encoding="utf-8"?>
<svg role="img" viewBox="0 0 24 24" xmlns="http://www.w3.org/2000/svg">
  <title>DeepL</title>
  <path d="M15.686 12.273a1.609 1.609 0 0 1-1.586-1.884l-3.848-2.216a1.61 1.61 0 1 1 .544-.93L14.63 9.45a1.61 1.61 0 1 1 1.056 2.823m-4.881 2.137a1.609 1.609 0 1 1-.564-1.223l2.806-1.612c.12.346.306.661.543.931l-2.811 1.616c.017.093.026.19.026.288m9.676-9.821L12.84.223a1.695 1.695 0 0 0-1.68 0L3.519 4.589a1.695 1.695 0 0 0-.853 1.47v8.882c0 .605.323 1.164.847 1.466L16.667 24l.002-5.393 3.817-2.2a1.69 1.69 0 0 0 .848-1.466V6.059c0-.607-.326-1.168-.853-1.47"/>
</svg>