<svg role="img" viewBox="0 0 24 24" xmlns="http://www.w3.org/2000/svg"><title>DeepSeek</title><path d="m 23.748583,4.8795676 c -0.254361,-0.1209901 -0.364297,0.1084739 -0.513034,0.2252919 -0.05066,0.038592 -0.09377,0.087613 -0.135803,0.1314202 -0.372918,0.3859167 -0.807273,0.638327 -1.373118,0.6080795 C 20.89672,5.7995094 20.188605,6.0529628 19.56348,6.6673003 19.429832,5.9090263 18.987934,5.4563565 18.316464,5.1653545 17.964023,5.0151599 17.60727,4.8639223 17.361532,4.5353717 17.189084,4.3027787 17.142738,4.0430672 17.055436,3.7864848 17.001544,3.6321182 16.946578,3.4735794 16.762274,3.446461 16.562881,3.416213 16.485279,3.5789242 16.4066,3.7145166 c -0.312563,0.5527995 -0.433277,1.165051 -0.422498,1.7835606 0.02802,1.3903429 0.634824,2.498028 1.838729,3.2875925 0.13688,0.0897 0.172448,0.1814852 0.129336,0.3129054 -0.08192,0.2711847 -0.179993,0.5350682 -0.267295,0.806253 -0.05389,0.1741829 -0.135803,0.2117319 -0.326573,0.1355919 A 5.504332,5.3266926 0 0 1 15.620882,8.8983157 C 14.76403,8.0951919 13.990168,7.2086266 13.02338,6.5160627 12.797042,6.354395 12.570704,6.2031574 12.335744,6.0602639 c -0.986188,-0.928286 0.129336,-1.6907321 0.38693,-1.7804316 0.26945,-0.093872 0.09377,-0.4182502 -0.77925,-0.4151211 -0.870864,0.00417 -1.669515,0.2868299 -2.6858817,0.6633594 A 2.8109062,2.7201908 0 0 1 8.791932,4.6594908 9.6549454,9.3433546 0 0 0 5.9088132,4.5624901 C 4.0248163,4.7669217 2.5180498,5.6305405 1.4111478,7.1043248 0.08221859,8.8753693 -0.23142163,10.888393 0.15227572,12.990074 c 0.40201989,2.211198 1.56820108,4.045867 3.35950708,5.477931 1.8581296,1.484214 3.9975655,2.211198 6.4377076,2.072476 1.4819776,-0.0824 3.1331696,-0.274314 4.9945326,-1.801292 0.469921,0.225292 0.962477,0.314992 1.780528,0.383831 0.629436,0.05737 1.23516,-0.03025 1.705082,-0.124119 0.73506,-0.150195 0.684404,-0.809382 0.418187,-0.931415 -2.155603,-0.972093 -1.68137,-0.576789 -2.112491,-0.896996 1.095047,-1.255793 2.746238,-2.560609 3.391841,-6.784831 0.05066,-0.336895 0.0065,-0.5465409 0,-0.8198118 -0.0043,-0.1647969 0.03449,-0.229464 0.229571,-0.2482383 A 4.1279795,3.9947587 0 0 0 21.902309,8.857638 C 23.29914,8.1170953 23.861752,6.9051084 23.994322,5.4500984 24.014796,5.2279356 23.990045,4.9974286 23.748583,4.8806106 Z M 11.580205,17.9757 C 9.4914252,16.384055 8.4782918,15.861503 8.0601049,15.884449 c -0.3912419,0.02086 -0.3211848,0.454756 -0.2349607,0.737414 0.089458,0.278486 0.2069379,0.471444 0.3718414,0.71551 0.114247,0.162711 0.1918487,0.404691 -0.1131691,0.58409 C 7.4112684,18.327197 6.2407761,17.785871 6.186886,17.759795 4.8256227,16.984833 3.6863866,15.958503 2.8845023,14.556687 2.1117187,13.205979 1.6611977,11.75827 1.5868295,10.213561 1.5674295,9.8380751 1.6805975,9.7066541 2.0642954,9.6399014 a 4.7423263,4.5892789 0 0 1 1.5294003,-0.037549 c 2.1318913,0.3024757 3.9458311,1.2255456 5.4666089,2.6868136 0.8687083,0.834415 1.5261664,1.830497 2.2030274,2.80259 0.719971,1.032587 1.493832,2.017196 2.48002,2.822406 0.347052,0.282658 0.625125,0.498563 0.891342,0.657101 -0.801885,0.08657 -2.139436,0.105345 -3.054489,-0.595563 z m 1.000199,-6.240376 a 0.3071735,0.2972602 0 1 1 0.614347,0 c 0,0.166883 -0.135803,0.298303 -0.308251,0.298303 a 0.30394,0.29413106 0 0 1 -0.306096,-0.298303 z m 3.110535,1.547838 c -0.199393,0.07823 -0.398786,0.146023 -0.590634,0.154367 A 1.2588721,1.2182449 0 0 1 14.302732,13.191377 C 14.02897,12.969214 13.832809,12.845095 13.749819,12.456049 a 1.7708278,1.7136785 0 0 1 0.01617,-0.569488 c 0.07113,-0.317077 -0.0075,-0.519422 -0.237116,-0.70508 -0.188618,-0.150194 -0.426812,-0.190872 -0.689796,-0.190872 a 0.55722335,0.53924027 0 0 1 -0.254362,-0.07614 c -0.109935,-0.05424 -0.199392,-0.185657 -0.113168,-0.347325 0.02694,-0.05215 0.16167,-0.180442 0.191848,-0.203389 0.355675,-0.196087 0.76524,-0.13142 1.145703,0.01565 0.352441,0.139764 0.617581,0.396346 1.001278,0.756188 0.391242,0.438067 0.461298,0.5601 0.684403,0.886565 0.175682,0.257625 0.336274,0.521509 0.44621,0.823984 0.06574,0.1867 -0.0194,0.341067 -0.251127,0.437024 z"/></svg>
