<svg viewBox="0 0 16 16" xmlns="http://www.w3.org/2000/svg" fill-rule="evenodd" clip-rule="evenodd" stroke-linejoin="round" stroke-miterlimit="1.414"><path d="M9.812 12.464h2.917v-.884H9.81v.884zm-6.54 0h2.916v-.884H3.27v.884zm-3.272 0h2.917v-.884H0v.884zm6.54 0H9.46v-.884H6.54v.884zm6.543 0H16v-.884h-2.917v.884zm0-1.15H16v-.883h-2.917v.885zm-6.542 0H9.46v-.883H6.54v.885zm-6.54 0h2.917v-.883H0v.885zm3.27 0H6.19v-.883H3.27v.885zm6.542 0h2.917v-.883H9.81v.885zm0-1.148h2.917v-.884H9.81v.884zm-6.54 0h2.916v-.884H3.27v.884zm-3.272 0h2.917v-.884H0v.884zm6.54 0H9.46v-.884H6.54v.884zm6.543 0H16v-.884h-2.917v.884zm0-1.15H16v-.883h-2.917v.884zm-6.542 0H9.46v-.883H6.54v.884zm-6.54 0h2.917v-.883H0v.884zm9.812 0h2.917v-.883H9.81v.884zm0-1.15h2.917v-.882H9.81v.883zM0 7.867h2.917v-.882H0v.883zm6.54 0H9.46v-.882H6.54v.883zm6.543 0H16v-.883h-2.917v.884zM6.54 6.72H9.46v-.885H6.54v.884zm6.543-.002H16v-.883h-2.917v.883zM6.54 5.57H9.46v-.885H6.54v.885zm6.543 0H16v-.885h-2.917v.884zm0-1.15H16v-.884h-2.917v.884z"/></svg>