<svg role="img" viewBox="0 0 24 24" xmlns="http://www.w3.org/2000/svg"><title>Deezer</title><path d="M20.13 3.672c.22-1.285.547-2.094.907-2.095h.002c.673.003 1.218 2.805 1.218 6.266 0 3.462-.546 6.266-1.22 6.266-.276 0-.53-.476-.737-1.275-.323 2.923-.996 4.931-1.775 4.931-.603 0-1.144-1.206-1.508-3.108-.247 3.618-.872 6.185-1.6 6.185-.458 0-.877-1.016-1.185-2.673-.372 3.419-1.231 5.816-2.231 5.816-1.002 0-1.861-2.396-2.231-5.816-.307 1.657-.726 2.673-1.184 2.673-.73 0-1.354-2.567-1.602-6.185-.363 1.902-.903 3.108-1.507 3.108-.78 0-1.452-2.008-1.777-4.93-.203.8-.46 1.274-.736 1.274-.675 0-1.22-2.804-1.22-6.266 0-3.46.545-6.266 1.22-6.266.362 0 .685.81.91 2.095.358-2.216.943-3.657 1.603-3.657.784 0 1.462 2.037 1.784 4.995.314-2.152.79-3.524 1.325-3.524.748 0 1.385 2.698 1.62 6.464.443-1.93 1.086-3.14 1.797-3.14.71 0 1.351 1.21 1.793 3.14.237-3.766.873-6.464 1.622-6.464.532 0 1.008 1.372 1.325 3.524.32-2.958 1-4.995 1.784-4.995.656 0 1.242 1.44 1.603 3.657zM.69 10.029C.31 10.029 0 8.776 0 7.226s.31-2.8.691-2.8c.384 0 .694 1.25.694 2.8 0 1.55-.31 2.803-.694 2.803zm22.618 0c-.384 0-.692-1.253-.692-2.803s.308-2.8.692-2.8c.382 0 .692 1.25.692 2.8 0 1.55-.31 2.803-.692 2.803z"/></svg>