<svg role="img" viewBox="0 0 24 24" xmlns="http://www.w3.org/2000/svg"><title>Deezer</title><path d="M20.129 3.662c.222-1.287.548-2.097.909-2.098.673.002 1.22 2.809 1.22 6.274s-.547 6.274-1.221 6.274c-.276 0-.531-.477-.736-1.276-.325 2.926-.998 4.937-1.777 4.937-.603 0-1.144-1.208-1.507-3.114-.248 3.624-.872 6.195-1.601 6.195-.458 0-.876-1.019-1.185-2.678-.371 3.425-1.23 5.824-2.23 5.824-1.002 0-1.862-2.399-2.232-5.824-.307 1.66-.724 2.678-1.184 2.678-.73 0-1.352-2.57-1.602-6.195-.363 1.906-.902 3.114-1.507 3.114-.778 0-1.452-2.01-1.776-4.937-.204.802-.46 1.276-.736 1.276-.674 0-1.22-2.809-1.22-6.274s.546-6.274 1.22-6.274c.361 0 .685.811.91 2.098C4.231 1.442 4.815 0 5.475 0 6.26 0 6.94 2.04 7.26 5.002c.315-2.156.792-3.53 1.326-3.53.748 0 1.385 2.703 1.62 6.473.444-1.933 1.085-3.146 1.796-3.146.71 0 1.352 1.214 1.794 3.146.237-3.77.873-6.473 1.621-6.473.533 0 1.01 1.374 1.326 3.53.32-2.962 1-5.002 1.783-5.002.658 0 1.243 1.443 1.603 3.662zM0 7.22c0-1.55.31-2.805.692-2.805.382 0 .692 1.256.692 2.805 0 1.549-.31 2.805-.692 2.805C.31 10.026 0 8.77 0 7.221Zm22.616 0c0-1.55.31-2.805.692-2.805.382 0 .692 1.256.692 2.805 0 1.549-.31 2.805-.692 2.805-.382 0-.692-1.256-.692-2.805z"/></svg>