<svg role="img" viewBox="0 0 24 24" xmlns="http://www.w3.org/2000/svg"><title>Delphi</title><path d="M2040.023 909.302c-7.124-64.02-20.172-126.835-39.256-188.393-29.093-93.841-70.881-181.64-125.283-263.414-34.323-51.593-73.07-99.646-116.131-144.243-75.495-78.186-161.22-142.787-257.15-193.789-63.705-33.869-130.327-60.567-199.782-80.219a1015.971 1015.971 0 0 0-126.814-27.291c-39.381-5.875-78.988-9.742-118.828-10.6-20.148-.434-40.347-1.271-60.45-.348-29.416 1.352-58.895 3.05-88.11 6.572-32.847 3.96-65.605 9.206-98.084 15.53-42.67 8.309-84.36 20.57-125.394 35.006-106.509 37.469-204.113 91.098-292.923 160.819-34.651 27.203-67.479 56.436-98.296 87.881-69.011 70.419-126.927 149.043-173.324 236.076C82.922 612.81 54.17 686.084 33.985 762.73c-11.761 44.662-20.463 89.912-26.041 135.727C3.494 935 1.089 971.699.474 1008.546c-.727 43.54 1.406 86.915 6.245 130.138 11.737 104.822 38.96 205.494 81.995 301.84 45.715 102.345 106.636 194.705 182.61 277.08 72.509 78.617 155.334 144.294 248.39 197.084 61.91 35.122 126.788 63.402 194.601 84.933 50.05 15.891 101.064 27.703 152.992 35.597 41.039 6.239 82.28 10.133 123.772 11.373 1.1.033 69.792-.197 74.06-.365 44.153-1.739 87.974-6.458 131.545-13.826 91.824-15.529 179.766-43.354 263.896-83.173 96.825-45.828 184.28-105.513 262.42-178.78 83.515-78.305 152.036-168.13 205.547-269.318 31.608-59.77 56.92-122.131 76.055-187.037 13.818-46.87 24.727-94.39 31.055-142.783 4.53-34.634 7.449-69.535 9.603-104.408 3.252-52.64.591-105.22-5.237-157.599zm-1656.057 95.29c-4.424 25.566-8.086 51.226-8.33 77.219-.204 21.584-.421 43.19.352 64.75.455 12.709 2.692 25.366 4.368 38.014 2.841 21.45-5.717 38.752-25.313 47.686-5.763 2.628-13.006 3.554-19.378 3.01-18.514-1.58-36.932-4.295-55.386-6.574-6.269-.774-12.568-1.39-18.776-2.504-1.412-.254-3.39-2.132-3.615-3.507-3.467-21.21-7.273-42.391-9.78-63.723-2.058-17.5-2.593-35.185-3.624-52.8-.59-10.08-1.217-20.184-1.13-30.27.143-16.797.39-33.618 1.437-50.375 1.162-18.588 2.906-37.16 5.083-55.658 1.778-15.104 3.86-30.241 7.064-45.093 5.34-24.755 11.445-49.354 17.68-73.904 5.953-23.446 13.863-46.268 23.295-68.563 6.733-15.915 12.703-32.177 19.998-47.825 7.731-16.582 16.078-32.936 25.16-48.815 10.25-17.922 21.456-35.308 32.56-52.726 7.098-11.132 14.51-22.084 22.255-32.774 6.267-8.649 13.203-16.816 19.916-25.138 6.085-7.544 12.093-15.162 18.458-22.466 6.935-7.96 14.102-15.729 21.418-23.34 10.437-10.858 20.975-21.626 31.715-32.183 7.422-7.296 14.995-14.485 22.967-21.164 14.814-12.412 29.55-24.983 45.087-36.447 19.386-14.305 39.265-27.993 59.465-41.126 15.786-10.263 31.973-20.083 48.729-28.639 21.556-11.006 43.727-20.845 65.885-30.616a512.344 512.344 0 0 1 41.468-16.165c17.97-6.122 36.113-11.824 54.418-16.845 18.998-5.21 38.119-10.269 57.477-13.797 23.734-4.325 47.723-7.379 71.69-10.246 16.563-1.981 33.266-3.631 49.923-3.799 26.617-.268 53.326-.278 79.852 1.626 29.156 2.093 58.222 5.958 87.183 10.068 15.525 2.203 30.863 6.09 46.077 10.023 24.564 6.348 49.257 12.447 73.33 20.37 21.004 6.911 41.51 15.56 61.718 24.602 22.136 9.906 43.78 20.938 65.427 31.898 9.131 4.623 17.883 10.063 26.522 15.578 16.626 10.613 33.404 21.047 49.457 32.484 16.059 11.441 31.316 24.008 46.903 36.11 1.3 1.01 2.433 2.237 4.176 3.858-14.014 9.254-27.626 17.99-40.968 27.12-14.356 9.823-28.445 20.037-42.68 30.037-8.92 6.266-17.955 12.372-26.834 18.695-11.058 7.875-21.987 15.93-33.011 23.852-12.74 9.155-25.571 18.183-38.271 27.392-9.385 6.805-18.617 13.82-27.93 20.726-11.014 8.167-22.182 16.135-33.033 24.514-18.513 14.3-37.775 11.816-54.795.31-46.31-31.307-96.482-54.422-149.822-70.762-36.976-11.327-74.81-18.363-113.403-20.973-16.236-1.098-32.517-1.579-48.785-2.143-22.632-.786-45.17.626-67.54 4.026-17.676 2.685-35.289 5.805-52.889 8.956-23.21 4.154-45.618 11.354-67.765 19.178-15.267 5.394-30.25 11.753-44.933 18.595-16.598 7.733-33.109 15.818-48.936 24.995-15.16 8.79-29.515 19-43.993 28.923-9.136 6.262-18.191 12.733-26.669 19.843-12.657 10.616-24.863 21.778-37.1 32.885-22.079 20.038-41.444 42.6-59.387 66.287-11.267 14.873-21.283 30.727-31.36 46.46-16.69 26.06-30.23 53.812-41.726 82.479-14.055 35.046-24.897 71.102-31.35 108.392zm1132.142 468.613c-14.996-10.392-30.113-20.617-44.935-31.253-6.835-4.905-10.09-12.547-13.139-20.145-6.29-15.674-12.647-31.32-18.919-47.002-6.03-15.077-11.923-30.21-17.997-45.27-5.881-14.583-11.977-29.079-17.865-43.658-6.08-15.053-11.683-30.309-18.117-45.207-7.527-17.43-12.007-36.37-23.867-51.697-7.704-9.957-16.029-19.485-24.635-28.681-12.634-13.5-26.798-25.242-42.41-35.275-11.968-7.692-25.414-10.145-39.014-12.607-38.227-6.921-76.401-14.129-114.622-21.084-38.885-7.077-77.812-13.92-116.698-20.993-33.153-6.031-66.392-11.677-99.367-18.576-22-4.603-42.129 13.826-44.142 34.636-2.029 20.97 14.17 38.886 31.897 43.345 47.82 12.026 95.395 25.032 143.064 37.659 56.4 14.94 112.879 29.594 169.15 45.006 18.687 5.118 35.464 14.68 50.875 26.646 18.743 14.553 34.154 32.003 45.119 52.907 7.27 13.862 12.959 28.587 18.842 43.133 6.081 15.035 11.853 30.212 17.202 45.522 7.966 22.802 15.489 45.759 23.108 68.68 4.645 13.97 9.238 27.96 13.636 42.01 6.32 20.19 12.467 40.436 18.637 60.673 4.248 13.933 8.486 27.871 12.59 41.848 5.31 18.082 10.46 36.212 15.722 54.308 4.067 13.987 8.29 27.93 12.28 41.938 5.892 20.686 11.866 41.354 17.351 62.15 2.85 10.805-5.55 22.902-17.042 24.507-23.308 3.254-46.683 6.042-70.046 8.897-15.486 1.893-30.99 3.642-46.502 5.326-18.78 2.038-37.58 3.902-56.365 5.91-23.755 2.54-47.496 5.215-71.257 7.694-10.07 1.05-20.186 2.573-30.262 2.44-22.12-.291-41.783-7.371-58.736-22.26-12.243-10.751-19.002-24.923-26.91-38.482-6.671-11.438-12.96-23.117-20.042-34.293-10.989-17.341-22.007-34.704-33.947-51.389-11.384-15.908-23.84-31.059-36.068-46.349-6.213-7.769-12.831-15.226-19.488-22.625-20.125-22.37-41.29-43.748-64.573-62.81-17.713-14.504-35.727-28.795-54.666-41.617-45.972-31.124-95.722-54.612-149.6-68.447-37.22-9.558-74.886-16.602-113.697-15.919-19.513.344-38.734 1.884-57.808 5.938-13.543 2.879-26.316 1.862-37.619-7.578-6.198-5.175-8.856-12.304-12.377-19.009-1.45-2.76-2.359-5.802-3.742-9.293 6.097-1.682 12.18-3.59 18.377-5.006 6.398-1.462 12.864-2.816 19.375-3.568 16.573-1.914 33.16-4.476 49.791-4.92 23.98-.64 48.089-.8 71.98 1 22.333 1.682 44.647 5.234 66.615 9.706 23.278 4.738 46.447 10.555 69.089 17.716 20.434 6.463 40.31 14.87 60.044 23.326 32.993 14.138 61.986 34.676 89.62 57.369 18.242 14.979 35.703 30.762 51.385 48.348 19.177 21.505 38.252 43.152 56.299 65.6 12.821 15.948 24.046 33.2 35.666 50.089 19.513 28.362 36.727 58.127 52.963 88.459 4.052 7.57 7.898 15.287 11.243 23.19 5.5 12.99 16.974 16.982 29.134 15.562 16.259-1.898 32.496-3.975 48.754-5.88 19.893-2.331 39.787-4.654 59.7-6.815 22.98-2.493 45.996-4.646 68.962-7.248 17.781-2.014 35.55-4.229 53.247-6.862 10.046-1.494 17.24-11.185 17.795-21.571.492-9.202-3.846-17.019-6.552-25.252-7.623-23.202-15.749-46.239-23.6-69.366-7.588-22.347-15.094-44.722-22.611-67.093-7.89-23.478-15.674-46.993-23.651-70.442-5.453-16.03-11.2-31.959-16.737-47.96-4.591-13.269-8.88-26.644-13.642-39.85-5.713-15.84-11.69-31.587-17.744-47.301-3.143-8.158-6.29-16.358-10.143-24.19-9.227-18.754-23.168-33.067-41.17-43.86-16.983-10.181-36.124-13.498-54.658-18.715-54.507-15.343-109.11-30.342-163.673-45.49-23.445-6.51-46.873-13.083-70.324-19.572-18.652-5.161-37.158-11.016-56.039-15.151-22.057-4.831-36.943-18.046-48.61-36.393-9.7-15.254-15.466-31.887-17.257-49.643-1.655-16.421 1.485-31.991 10.248-46.635 9.092-15.195 21.746-25.8 37.563-32.548 11.05-4.715 22.827-5.745 35.008-3.477 27.445 5.11 55.015 9.552 82.52 14.346 19.378 3.378 38.707 7.038 58.103 10.297 22.802 3.832 45.665 7.29 68.478 11.056 16.464 2.717 32.88 5.731 49.335 8.502 19.066 3.21 38.166 6.215 57.225 9.469 16.607 2.835 33.128 6.22 49.781 8.738 10.712 1.62 21.224 3.602 30.848 8.692 4.65 2.46 9.405 5.085 13.292 8.555 13.965 12.467 27.788 25.113 41.268 38.102 12.055 11.617 23.812 23.565 35.28 35.764 8.931 9.5 14.774 20.855 18.425 33.477 2.839 9.813 6.57 19.37 9.975 29.015 4.727 13.386 9.523 26.746 14.283 40.12 6.02 16.914 12.082 33.814 18.035 50.751 5.323 15.14 10.48 30.34 15.788 45.486 4.959 14.15 10.07 28.248 15.02 42.401 5.398 15.431 10.683 30.901 16.025 46.352 2.634 7.619 5.286 15.232 7.93 22.848l-1.057.818zm60.329 30.911c-10.808-4.114-21.445-8.862-31.61-14.353-2.563-1.385-3.267-6.49-4.506-10-5.936-16.812-11.772-33.659-17.623-50.5-6.557-18.876-13.055-37.772-19.648-56.635-6.486-18.555-13.098-37.065-19.582-55.621-7.951-22.754-15.784-45.55-23.75-68.298-5.62-16.05-11.346-32.063-17.09-48.07-3.112-8.678-6.21-17.367-9.581-25.946-5.398-13.739-15.269-24.332-25.24-34.757-8.477-8.862-16.955-17.764-25.983-26.048-16.934-15.54-33.94-31.036-51.544-45.802-12.668-10.625-28.495-14.266-44.514-16.788-17.159-2.701-34.31-5.45-51.444-8.31-21.003-3.505-41.981-7.16-62.975-10.725-18.91-3.211-37.825-6.394-56.74-9.576-29.153-4.905-58.317-9.745-87.459-14.714-23.774-4.054-47.506-8.355-71.289-12.358-16.763-2.822-33.506-6.38-50.401-7.562-9.36-.655-19.21 2.187-28.49 4.725-12.94 3.54-24.163 10.972-33.734 20.093-10.073 9.599-17.918 21.008-23.142 34.268-10.256 26.035-8.663 51.69.605 77.484 6.046 16.827 14.69 32.103 26.99 45.065 12.074 12.725 26.198 21.95 43.762 26.038 21.155 4.924 42.048 10.99 63.018 16.696a42838.269 42838.269 0 0 1 112.74 30.864c23.944 6.587 47.857 13.285 71.783 19.934 23.925 6.648 47.863 13.249 71.77 19.96 22.619 6.347 40.861 19.123 52.925 39.256 6.047 10.094 9.977 21.518 14.332 32.55 5.27 13.348 10.115 26.87 14.89 40.407 6.761 19.16 13.302 38.4 19.916 57.612 5.537 16.086 11.098 32.165 16.547 48.28 4.696 13.89 9.158 27.86 13.891 41.736 4.635 13.588 9.566 27.075 14.214 40.659 5.46 15.958 10.71 31.988 16.132 47.96 7.878 23.201 15.83 46.377 23.746 69.566.85 2.49 1.861 4.948 2.443 7.502.804 3.524-1.3 5.568-4.433 5.931-14.287 1.657-28.608 3.02-42.905 4.603-7.209.798-14.38 1.938-21.588 2.746-15.107 1.693-30.238 3.178-45.34 4.917-16.094 1.853-32.16 3.973-48.252 5.846-20.641 2.403-41.294 4.704-61.949 6.98-3.432.379-6.944.805-10.338.445-1.757-.186-4.047-1.665-4.883-3.215-5.803-10.768-11.017-21.858-16.936-32.56-9.212-16.656-18.437-33.329-28.387-49.547-10.905-17.773-22.18-35.358-34.144-52.43-11.482-16.382-23.54-32.424-36.275-47.848-15.473-18.74-31.26-37.313-48.133-54.779-16.012-16.576-32.919-32.456-50.692-47.115-16.94-13.97-34.817-27.097-53.549-38.515-18.974-11.567-38.504-22.515-59.989-29.425-24.524-7.886-48.42-17.938-73.243-24.622-24.56-6.613-49.975-10.003-74.939-15.173-23.6-4.886-47.6-4.777-71.467-6.143-10.653-.61-21.415.29-32.108.86-12.188.649-24.376 1.48-36.524 2.648-7.056.678-14.065 2.01-21.04 3.334-13.59 2.578-27.141 5.357-41.886 8.286-4.386-13.624-9.158-27.219-13.102-41.05-3.804-13.341-7.328-26.817-9.93-40.433-2.98-15.599-5.07-31.385-7.084-47.148-3.721-29.116-3.892-58.415-1.86-87.599 2.842-40.848 9.606-81.147 21.996-120.278 8.116-25.631 17.041-51.021 29.358-75.017 8.166-15.907 16.26-31.892 25.362-47.263 6.912-11.67 15.242-22.518 23.172-33.565 6.159-8.58 12.4-17.13 19.115-25.272 5.97-7.238 12.445-14.091 19.048-20.767 10.948-11.066 21.923-22.13 33.377-32.66 7.765-7.14 16.237-13.54 24.636-19.953 8.937-6.826 17.91-13.658 27.32-19.797 12.544-8.184 25.387-15.937 38.358-23.433 11.464-6.626 22.941-13.405 35.016-18.754 17.97-7.961 36.367-14.997 54.784-21.89 10.679-3.996 21.575-7.74 32.684-10.184 21.011-4.624 42.141-8.953 63.42-12.033 17.868-2.587 36.019-4.427 54.044-4.425 23.051.003 46.185 1.342 69.133 3.619 39.643 3.932 78.155 13.291 115.41 27.524 26.374 10.075 52.022 21.6 76.489 35.894 27.771 16.225 53.916 34.566 78.541 55.21 17.727 14.862 34.871 30.349 49.778 48.034 16.64 19.744 33.013 39.75 48.56 60.354 4.798 6.358 6.917 14.907 9.554 22.693 6.16 18.192 12.043 36.483 17.759 54.821 7.291 23.392 14.215 46.9 21.473 70.302 5.489 17.7 11.374 35.276 16.864 52.975 6.128 19.758 11.947 39.61 18.018 59.387 4.17 13.583 8.588 27.09 12.808 40.657 4.717 15.163 9.292 30.37 14.008 45.534 4.323 13.902 8.816 27.75 13.111 41.66 3.414 11.056 6.564 22.192 9.976 33.249 3.124 10.123 6.487 20.173 9.665 30.28 8.3 26.39 16.522 52.803 24.84 79.187 7.753 24.589 15.584 49.153 23.399 73.722.951 2.992 2.07 5.93 3.023 8.921 1.773 5.565-1.257 9.672-6.482 7.682zm13.398-1087.228c-1.642 15.516-8.953 27.595-23.234 34.747-1.197.6-3.545.362-4.601-.46-6.545-5.087-12.633-10.783-19.32-15.665-20.195-14.744-40.21-29.789-61.03-43.611-19.559-12.986-39.591-25.424-60.265-36.522-20.915-11.227-42.74-20.808-64.42-30.544-13.988-6.282-28.214-12.19-42.722-17.116-23.934-8.128-48.027-15.874-72.338-22.777-30.452-8.648-61.605-14.006-92.984-18.336-25.587-3.531-51.159-6.5-76.997-6.928-14.994-.25-30.007-1.21-44.975-.72-23.924.782-47.859 2.009-71.71 3.994-17.766 1.48-35.427 4.315-53.1 6.798-24.59 3.454-48.836 8.639-72.655 15.653-20.083 5.914-40.144 11.932-60.04 18.44a418.178 418.178 0 0 0-36.003 13.63c-21.015 9.094-42.068 18.191-62.551 28.4a904.987 904.987 0 0 0-60.026 32.816c-15.448 9.219-30.079 19.842-44.798 30.231-11.432 8.07-22.698 16.425-33.574 25.226-13.984 11.316-27.776 22.905-41.152 34.93-13.98 12.57-27.679 25.49-40.913 38.84-9.741 9.827-18.645 20.498-27.723 30.965-9.425 10.868-18.948 21.68-27.812 33-9.797 12.513-19.242 25.336-28.202 38.46-9.594 14.055-18.819 28.395-27.51 43.024-8.333 14.026-15.984 28.473-23.55 42.936-7.492 14.325-15.004 28.678-21.586 43.43-6.725 15.072-12.484 30.584-18.376 46.015-4.714 12.349-9.402 24.735-13.362 37.337-4.853 15.443-9.703 30.96-13.182 46.747-6.3 28.583-12.68 57.228-16.965 86.152-3.858 26.05-5.608 52.473-7.058 78.799-1.133 20.582-.838 41.278-.336 61.903.47 19.28 1.325 38.608 3.325 57.778 2.383 22.838 6.167 45.531 9.39 68.617-18.333.07-34.087-5.379-43.695-21.772-3.58-6.108-5.378-13.546-6.728-20.618-2.861-14.978-5.32-30.062-7.16-45.197-2.418-19.899-4.627-39.855-5.918-59.85-1.324-20.518-2.307-41.132-1.872-61.671.658-31.066 2.249-62.096 6.135-93.02 4.291-34.157 10.199-67.98 17.984-101.47 7.793-33.525 18.363-66.234 30.945-98.27 6.613-16.835 12.861-33.873 20.593-50.195a1324.697 1324.697 0 0 1 35.286-69.132c8.99-16.415 18.968-32.362 29.49-47.85 12.375-18.217 25.63-35.85 38.857-53.472 8.636-11.504 17.59-22.805 26.976-33.702 8.947-10.388 18.561-20.21 28.03-30.14 7.323-7.68 14.74-15.283 22.36-22.666 8.806-8.53 17.634-17.065 26.894-25.087 15.263-13.224 30.575-26.427 46.449-38.897 12.333-9.69 25.477-18.358 38.401-27.276 11.007-7.594 21.965-15.31 33.396-22.225 14.53-8.79 29.42-17.006 44.336-25.137 12.773-6.963 25.647-13.782 38.763-20.067 12.508-5.994 25.344-11.316 38.117-16.743 9.903-4.208 19.765-8.611 29.937-12.066 21.1-7.166 42.336-13.943 63.63-20.513 11.691-3.608 23.487-7.08 35.456-9.544 25.498-5.25 51.038-10.457 76.754-14.433 20.961-3.241 42.156-5.619 63.332-6.664 27.71-1.367 55.512-1.611 83.26-1.25 18.414.24 36.86 1.845 55.194 3.773 69.289 7.286 137.17 21.112 202.666 45.368 36.903 13.667 73.408 28.358 107.766 47.715 23.847 13.437 47.572 27.161 70.688 41.806 17.636 11.173 34.54 23.58 51.194 36.199 15.07 11.42 29.84 23.34 43.817 36.057 8.963 8.156 12.311 19.636 11.022 31.82z"/></svg>