<svg role="img" viewBox="0 0 24 24" xmlns="http://www.w3.org/2000/svg"><title>Deno icon</title><path d="M11.056.006c-.056.006-.236.027-.398.041C8.35.289 6.077 1.266 4.224 2.818a15.656 15.656 0 0 0-1.405 1.405C1.284 6.056.387 8.113.057 10.548c-.074.54-.074 2.364 0 2.904.331 2.435 1.228 4.492 2.762 6.325a15.656 15.656 0 0 0 1.405 1.405c1.833 1.535 3.89 2.432 6.325 2.762.54.074 2.364.074 2.904 0 2.435-.331 4.492-1.228 6.325-2.762a15.656 15.656 0 0 0 1.405-1.405c1.535-1.833 2.432-3.89 2.762-6.325.074-.54.074-2.364 0-2.904-.331-2.435-1.228-4.492-2.762-6.325a15.656 15.656 0 0 0-1.405-1.405C17.951 1.289 15.873.38 13.471.058c-.26-.035-.637-.05-1.337-.056a25.793 25.793 0 0 0-1.077.003zm.147 1.275c0 .345.024 1.095.056 1.806.018.348.038.847.047 1.107.032.921.13 3.338.145 3.553l.015.215-.133-.015a.504.504 0 0 1-.153-.032 3.247 3.247 0 0 1-.041-.455 702.803 702.803 0 0 1-.245-5.723l-.018-.655.083-.012c.044-.006.118-.015.165-.018l.08-.003v.23zm2.825-.071c.003.003.012.894.021 1.98.012 1.089.027 2.066.035 2.172.009.109.006.204-.009.21a.433.433 0 0 1-.159 0l-.136-.012-.021-.859-.032-1.172c-.024-.522-.044-2.296-.027-2.34.012-.032.044-.035.168-.015.086.018.156.032.159.035zm-6.827.989c.018.027.156 1.653.328 3.781.056.723.112 1.384.121 1.467.015.151.012.156-.083.215a.519.519 0 0 1-.118.059c-.009 0-.027-.077-.035-.171-.041-.384-.201-2.237-.313-3.577-.065-.788-.124-1.493-.133-1.57-.015-.13-.012-.142.065-.183.094-.05.148-.059.168-.021zm8.125.593c.083.03.091.044.109.213.03.295.021 1.706-.012 1.706-.086 0-.263-.1-.277-.156a14.377 14.377 0 0 1-.018-.93c0-.959-.012-.903.198-.832zm-5.451.139c0 .08.021.519.044.983l.062 1.305c.021.514.027.496-.171.508-.097.003-.097.003-.103-.145-.006-.083-.021-.339-.038-.576-.015-.236-.05-.747-.074-1.136s-.053-.776-.062-.859c-.018-.148-.015-.153.065-.183a.617.617 0 0 1 .183-.032c.094-.003.094-.003.094.136zm8.187.404l.1.041.021.395c.009.215.015.682.009 1.033l-.009.643-.124-.062-.124-.059-.009-.98c-.006-.54-.003-.998.003-1.018.012-.044.012-.044.133.006zm-5.389.387c.018.018.059 1.449.062 2.175l.003.437-.139-.021a1.3 1.3 0 0 1-.148-.021c-.009-.006-.097-2.193-.097-2.405v-.218l.151.018a.743.743 0 0 1 .168.035zm6.797.209c.035.041.041.688.05 4.253.009 4.094.009 4.2-.044 4.2a.197.197 0 0 1-.103-.038c-.044-.032-.05-.39-.065-3.887a475.425 475.425 0 0 0-.035-4.277l-.018-.425.086.062c.05.035.106.086.13.112zm-2.647.606c.015.012.03.18.032.372.015.652.018 4.651.003 4.663-.006.006-.059-.009-.118-.032l-.106-.044v-5.02l.083.018c.044.012.092.03.106.044zm-8.146.165c.009.08.024.26.032.407l.047.732c.035.519.03.552-.139.552-.089 0-.1-.009-.112-.097-.03-.174-.133-1.626-.118-1.65a.654.654 0 0 1 .239-.08c.018-.003.041.059.05.136zm-4.882.752l.145 1.455c.05.487.092.9.092.918 0 .035-.227.148-.251.124a96.053 96.053 0 0 1-.31-2.745c0-.071.227-.369.257-.336.009.006.038.269.068.584zm11.572.31l.086.05.003.638c.003.348.009.738.009.865.006.266-.027.31-.186.254l-.091-.032v-.254c0-.142-.009-.552-.021-.915l-.018-.655h.068a.41.41 0 0 1 .151.05zM5.091 6.909l.195 2.125.1 1.092-.115.115-.112.115-.021-.233c-.012-.13-.071-.732-.133-1.34s-.151-1.49-.195-1.96l-.083-.85.115-.106c.103-.097.115-.1.136-.047.012.03.062.519.112 1.089zm-2.211.358c.065.581.236 2.128.384 3.435s.286 2.568.313 2.804c.024.236.065.593.089.797.041.345.041.369-.006.404-.071.053-.1.047-.1-.015 0-.027-.027-.251-.059-.493-.053-.404-.142-1.089-.339-2.627-.041-.31-.121-.927-.177-1.372a466.562 466.562 0 0 1-.369-2.872c-.053-.401-.086-.759-.077-.797.021-.08.195-.357.213-.339.006.009.065.49.13 1.074zm-.903 1.272l.183 1.44c.056.437.127.983.159 1.21l.056.413-.062.053c-.035.03-.071.041-.083.03s-.035-.13-.053-.26c-.018-.13-.127-.888-.245-1.682l-.21-1.446.068-.201a.724.724 0 0 1 .083-.198c.012 0 .056.289.103.64zm16.203-.387c.041.041.047.224.047 1.579v1.532h-.083c-.18 0-.177.044-.189-1.632l-.009-1.526h.094c.05 0 .115.021.139.047zm-6.46.528c.667.1 1.248.286 1.824.581.372.192.549.325.962.72.614.587.992 1.101 1.346 1.827.516 1.057.717 1.992.971 4.501.115 1.124.266 3.164.298 3.999.009.242.03.64.047.885.032.519.071.449-.387.67-.635.307-1.245.519-2.051.717-.986.242-1.623.319-2.597.322l-.708.003.006-.339c0-.186.018-.62.035-.959.089-1.644.071-3.719-.044-4.87-.065-.661-.192-1.464-.263-1.641-.015-.038.053-.071.345-.171.534-.186.998-.419 1.068-.534.127-.218-.1-.531-.39-.531-.05 0-.201.053-.339.115-.661.304-1.986.661-2.751.741a7.794 7.794 0 0 1-1.918-.08c-.31-.056-.865-.266-1.328-.505-.534-.277-.862-.646-.959-1.083-.053-.236-.038-.708.03-.974.074-.292.28-.717.469-.965.841-1.107 2.577-2.066 4.356-2.402a6.632 6.632 0 0 1 1.977-.027zm9.105.092c.106.044.118.056.118.156.006.806-.012 2.647-.027 2.724-.003.027-.156.03-.221.006-.041-.015-.047-.174-.047-1.476 0-.933.012-1.458.03-1.458.015 0 .083.021.148.047zm1.289 1.62l.106.044-.021 2.444c-.024 3.114-.027 3.205-.139 3.474-.183.44-.174.528-.156-1.402.006-.965.021-1.942.027-2.169s.012-.868.015-1.426c0-.673.009-1.009.03-1.009.018 0 .08.021.139.044zm-17.749.735c.018.239.012.263-.074.452l-.094.201-.035-.295c-.056-.472-.056-.493.056-.564.05-.035.103-.059.112-.053s.027.124.035.26zm-1.824 1.78c.027.242.233 1.848.339 2.636.159 1.219.171 1.393.1 1.319a14.698 14.698 0 0 1-.148-.912c-.46-3.182-.457-3.161-.419-3.185.08-.053.106-.024.127.142zm2.125 1.351c.018.074.103.874.103.971 0 .083-.106.159-.153.112-.015-.015-.053-.266-.083-.555l-.074-.676-.018-.148.103.118a.656.656 0 0 1 .121.177zm2.382 1.113c.032.03.053.148.08.466.044.576.05.531-.071.531-.124 0-.121.009-.162-.511-.041-.528-.041-.522.038-.522.038 0 .089.018.115.035zm2.337.044c.006.03.021.207.032.393.009.186.035.605.059.93.083 1.192.086 1.343.035 1.343-.056 0-.062-.044-.127-.885a70.72 70.72 0 0 0-.097-1.219c-.027-.322-.044-.59-.035-.596.032-.035.118-.009.133.035zm-5.548.567c.018.027.13.971.269 2.261.041.39.083.764.091.835l.015.127-.074-.047a.153.153 0 0 1-.077-.145c0-.186-.127-1.411-.224-2.16-.056-.425-.1-.8-.1-.835 0-.062.071-.086.1-.035zm17.032 1.234l-.021 1.234-.074.109c-.168.248-.159.295-.151-1.086l.006-1.266.109-.112a.574.574 0 0 1 .13-.109c.009 0 .009.555 0 1.231zm-2.73 1.956c.015 1.715.012 1.848-.035 1.901-.03.032-.056.053-.065.044-.021-.024-.05-3.763-.027-3.784.012-.012.041-.018.068-.015.038.009.047.218.059 1.853zM8.5 17.998c.021.183.094 1.06.124 1.473.018.277.018.286-.047.307-.035.012-.077.009-.089-.006-.021-.021-.086-.676-.165-1.685l-.021-.242h.091c.086 0 .091.006.106.153zm-2.32 1.033c.021.021.035.094.035.168 0 .077.035.475.074.888.112 1.13.121 1.284.071 1.254-.077-.044-.145-.112-.13-.13a2.02 2.02 0 0 0-.03-.328c-.021-.171-.047-.449-.059-.62s-.038-.484-.062-.694c-.056-.516-.053-.576.012-.576.03 0 .068.015.089.035zm1.396 1.986c.009.065.027.307.038.537.021.443.012.475-.109.384-.035-.027-.059-.139-.094-.475-.062-.608-.065-.584.05-.573.086.009.097.021.115.127zM6.522 10.094c-.307.133-.331.549-.041.697.21.106.422.056.531-.127a.392.392 0 0 0-.49-.57zM8.523 10.377a.453.453 0 0 0 0 .767c.28.168.643-.053.643-.39 0-.325-.372-.543-.643-.378z"/></svg>