<svg role="img" viewBox="0 0 24 24" xmlns="http://www.w3.org/2000/svg"><title>Deno</title><path d="M11.055.008c-.056.006-.236.027-.398.041C8.349.291 6.076 1.27 4.223 2.82a15.658 15.654 0 00-1.405 1.405C1.283 6.058.386 8.115.056 10.549c-.074.54-.074 2.364 0 2.904.33 2.435 1.228 4.492 2.762 6.325a15.658 15.654 0 001.405 1.405c1.833 1.535 3.89 2.432 6.325 2.762.54.073 2.364.073 2.904 0 2.435-.331 4.492-1.228 6.325-2.762a15.658 15.654 0 001.405-1.405c1.535-1.833 2.432-3.89 2.762-6.325.074-.54.074-2.364 0-2.904-.33-2.433-1.228-4.49-2.762-6.323a15.658 15.654 0 00-1.405-1.405C17.95 1.291 15.872.382 13.47.061c-.26-.036-.637-.05-1.337-.057a25.795 25.788 0 00-1.077.003zm.147 1.275c0 .345.024 1.095.056 1.806.018.348.038.847.047 1.107.032.92.13 3.338.145 3.553l.015.215-.133-.015a.504.504 0 01-.153-.032 3.247 3.247 0 01-.041-.455 702.86 702.682 0 01-.245-5.723l-.018-.655.083-.012c.044-.006.118-.015.165-.018l.08-.003v.23zm2.825-.07c.003.002.012.893.021 1.98.012 1.088.027 2.065.035 2.17.01.11.006.205-.009.21a.433.433 0 01-.159 0l-.136-.011-.02-.86-.033-1.17c-.024-.523-.044-2.297-.027-2.34.012-.033.044-.036.168-.016.086.018.156.032.16.035zM7.2 2.2c.018.027.156 1.653.328 3.78.056.724.112 1.385.12 1.468.016.15.013.156-.082.215a.519.519 0 01-.118.059c-.01 0-.027-.077-.035-.171-.041-.384-.201-2.237-.313-3.577a173.64 173.628 0 00-.133-1.57c-.015-.13-.012-.142.065-.183.094-.05.148-.059.168-.02zm8.125.593c.083.03.091.044.11.213.03.295.02 1.706-.013 1.706-.086 0-.263-.1-.277-.156a14.379 14.375 0 01-.018-.93c0-.959-.012-.903.198-.832zm-5.451.14c0 .08.02.518.044.982L9.98 5.22c.02.514.027.496-.171.508-.097.003-.097.003-.103-.145-.006-.083-.021-.34-.038-.576-.015-.236-.05-.747-.074-1.136a32.49 32.486 0 00-.062-.859c-.018-.148-.015-.153.065-.183a.617.617 0 01.183-.032c.094-.003.094-.003.094.136zm8.187.403l.1.041.021.395c.01.215.015.682.01 1.033l-.01.643-.124-.062-.124-.06-.009-.98a21.73 21.728 0 01.003-1.017c.012-.044.012-.044.133.006zm-5.389.387c.018.018.059 1.45.062 2.175l.003.437-.139-.021a1.3 1.3 0 01-.148-.021c-.009-.006-.097-2.193-.097-2.405V3.67l.151.018a.743.743 0 01.168.035zm6.797.21c.035.04.041.687.05 4.252.01 4.092.01 4.2-.044 4.2a.197.197 0 01-.103-.04c-.044-.032-.05-.39-.065-3.885a475.465 475.342 0 00-.035-4.277l-.018-.425.086.062c.05.035.106.086.13.112zm-2.647.605c.015.012.03.18.032.372.015.652.018 4.65.003 4.663-.006.006-.059-.01-.118-.032l-.106-.044v-5.02l.083.018c.044.012.092.03.106.044zm-8.146.165c.009.08.024.26.032.407l.047.732c.035.519.03.552-.14.552-.088 0-.1-.01-.111-.097-.03-.174-.133-1.626-.118-1.65a.654.654 0 01.239-.08c.018-.003.04.06.05.136zm-4.882.752l.145 1.455c.05.487.092.9.092.918 0 .035-.227.148-.251.124a96.061 96.036 0 01-.31-2.745c0-.07.227-.37.257-.336a6.6 6.6 0 01.068.584zm11.572.31l.086.05.003.638c.003.348.01.738.01.865.005.266-.028.31-.187.254l-.09-.032v-.254c0-.142-.01-.552-.022-.915l-.018-.655h.068a.41.41 0 01.151.05zM5.09 6.91l.195 2.125.1 1.09-.115.115-.112.115-.021-.233c-.012-.13-.071-.73-.133-1.34-.062-.606-.151-1.49-.195-1.96l-.083-.85.115-.104c.103-.097.115-.1.136-.047.012.03.062.519.112 1.089zm-2.211.358c.065.58.236 2.128.384 3.433.148 1.307.286 2.568.313 2.804.024.236.065.593.089.797.04.345.04.37-.006.404-.071.053-.1.047-.1-.015 0-.027-.027-.25-.06-.493l-.338-2.627c-.041-.31-.121-.927-.177-1.372a466.6 466.482 0 01-.37-2.87c-.052-.401-.085-.76-.076-.797.02-.08.195-.357.213-.34.006.01.065.49.13 1.075zM1.976 8.54l.183 1.44c.056.435.127.981.159 1.21l.056.411-.062.053c-.035.03-.071.04-.083.03a1.17 1.17 0 01-.053-.26c-.018-.13-.127-.888-.245-1.68l-.21-1.446.068-.201a.724.724 0 01.083-.198c.012 0 .056.289.103.64zm16.203-.387c.041.04.047.224.047 1.579v1.53h-.083c-.18 0-.177.044-.189-1.63l-.009-1.526h.094c.05 0 .115.02.14.047zm-6.46.528c.667.1 1.248.286 1.824.58.372.193.55.326.962.72.614.586.992 1.1 1.346 1.826.516 1.057.717 1.992.971 4.5.115 1.125.266 3.165.298 4 .01.242.03.64.047.885.032.519.071.449-.387.67-.635.307-1.245.519-2.05.717-.987.242-1.624.319-2.598.322l-.708.003.006-.34c0-.185.018-.62.035-.958.089-1.644.071-3.72-.044-4.87-.065-.66-.192-1.464-.263-1.64-.015-.04.053-.072.345-.172.534-.186.998-.42 1.068-.534.127-.218-.1-.53-.39-.53-.05 0-.201.052-.339.114-.661.304-1.986.66-2.751.74a7.794 7.792 0 01-1.918-.08c-.31-.055-.865-.265-1.328-.504-.534-.277-.862-.646-.96-1.083-.052-.236-.037-.708.03-.974a3.15 3.15 0 01.47-.965c.84-1.105 2.577-2.064 4.356-2.4a6.632 6.632 0 011.977-.027zm9.105.092c.106.044.118.056.118.156.006.806-.012 2.645-.027 2.722-.003.027-.156.03-.22.006-.042-.015-.048-.174-.048-1.476 0-.931.012-1.456.03-1.456.015 0 .083.02.148.047zm1.29 1.62l.105.042-.02 2.444c-.025 3.114-.028 3.205-.14 3.474-.183.44-.174.528-.156-1.402.006-.965.021-1.942.027-2.17.006-.226.012-.867.015-1.425 0-.673.01-1.01.03-1.01.018 0 .08.022.14.045zm-17.75.733c.018.24.012.263-.074.452l-.094.2-.035-.294c-.056-.472-.056-.493.056-.564.05-.035.103-.06.112-.053.009.006.027.124.035.26zm-1.824 1.78c.027.242.233 1.848.339 2.636.159 1.219.17 1.393.1 1.319a14.7 14.696 0 01-.148-.912c-.46-3.182-.457-3.16-.42-3.185.08-.053.107-.024.128.142zm2.125 1.35c.018.075.103.875.103.972 0 .083-.106.16-.153.112-.015-.015-.053-.266-.083-.555l-.074-.676-.018-.148.103.118a.656.656 0 01.12.177zm2.382 1.114c.032.03.053.148.08.466.044.576.05.53-.071.53-.124 0-.121.01-.162-.51-.041-.528-.041-.522.038-.522.038 0 .089.018.115.035zm2.337.044c.006.03.02.207.032.393.009.186.035.605.059.93.083 1.192.086 1.343.035 1.343-.056 0-.062-.044-.127-.885a70.726 70.708 0 00-.097-1.22c-.027-.32-.044-.59-.035-.595.032-.035.118-.01.133.035zm-5.548.567c.018.027.13.97.269 2.26.04.39.083.765.09.836l.016.127-.074-.047a.153.153 0 01-.077-.145c0-.186-.127-1.411-.224-2.16-.056-.425-.1-.8-.1-.835 0-.062.07-.086.1-.035zm17.032 1.234l-.02 1.234-.075.109c-.168.248-.159.295-.15-1.086l.005-1.266.11-.112a.574.574 0 01.13-.11c.008 0 .008.556 0 1.232zm-2.73 1.956c.015 1.715.012 1.848-.035 1.9-.03.033-.056.054-.065.045-.02-.024-.05-3.763-.027-3.784.012-.012.041-.018.068-.015.038.009.047.218.06 1.853zm-9.64-1.174c.022.183.095 1.06.125 1.473.018.277.018.286-.047.307-.035.012-.077.009-.09-.006-.02-.021-.085-.676-.164-1.685l-.021-.242h.09c.087 0 .092.006.107.153zm-2.32 1.033c.022.02.036.094.036.168 0 .077.035.475.074.888.112 1.13.12 1.284.07 1.254-.076-.044-.144-.112-.13-.13a2.02 2.02 0 00-.03-.328 14.43 14.429 0 01-.058-.62 19.044 19.04 0 00-.062-.694c-.056-.516-.053-.576.012-.576.03 0 .068.015.089.035zm1.397 1.986c.009.065.027.307.038.537.02.443.012.475-.11.384-.034-.027-.058-.14-.093-.475-.062-.608-.065-.584.05-.573.086.009.097.02.115.127zM6.52 10.094c-.307.133-.331.55-.041.697.21.106.422.056.53-.127a.392.392 0 00-.49-.57zm2 .283a.453.453 0 000 .767c.28.168.644-.053.644-.39 0-.325-.372-.543-.643-.378z"/></svg>