<svg role="img" viewBox="0 0 24 24" xmlns="http://www.w3.org/2000/svg"><title>OWASP Dependency-Check</title><path d="M2.357 15.731H.016A13.74 13.74 0 0 0 4.58 24l1.63-1.634a11.452 11.452 0 0 1-3.853-6.635Zm.509 0a10.948 10.948 0 0 0 3.668 6.254l.03.026 1.124-1.126a9.38 9.38 0 0 1-3.206-5.154H2.866Zm6.623 3.349h-.084V8.252h4.222c.846 0 1.621.137 2.328.41a5.518 5.518 0 0 1 1.825 1.137c.168.159.318.331.461.508.291.363.535.761.722 1.201a5.37 5.37 0 0 1 .418 2.127v.03c0 .764-.139 1.475-.418 2.135a5.009 5.009 0 0 1-1.183 1.716 5.572 5.572 0 0 1-1.825 1.146 6.309 6.309 0 0 1-2.328.418H9.489Zm7.01-7.027a3.022 3.022 0 0 0-.513-.738 2.971 2.971 0 0 0-1.028-.673 3.578 3.578 0 0 0-1.331-.24l-1.84.001v6.526h1.84c.484 0 .928-.078 1.331-.232a2.844 2.844 0 0 0 1.028-.665c.283-.288.505-.628.665-1.021.16-.391.24-.829.24-1.314v-.032c0-.473-.08-.913-.24-1.314-.043-.107-.101-.199-.152-.298Zm-16.44-.796h2.35l.011-.053.012-.053.011-.053.012-.053.013-.053.012-.052.013-.053.013-.052.013-.052.014-.053.013-.052.014-.052.014-.052.015-.052.014-.051.015-.052.015-.051.016-.052.015-.051.016-.051.016-.052.016-.051.017-.05.017-.051.017-.051.017-.051.017-.05.018-.05.018-.051.018-.05.018-.05.019-.05.018-.05.019-.05.02-.049.019-.05.02-.049.02-.049.02-.05.02-.049.021-.049.02-.048.021-.049.022-.049.021-.048.022-.049.022-.048.022-.048.022-.048.023-.048.022-.048.023-.047.023-.048.024-.047.023-.048.024-.047.024-.047.024-.047.025-.047.025-.046.024-.047.025-.046.026-.047.025-.046.026-.046.026-.046.026-.045.026-.046.027-.046.026-.045.027-.045.027-.045.028-.045.027-.045.028-.045.028-.045.028-.044.028-.045.029-.044.029-.044.029-.044.029-.044.029-.043.012-.018.03-.044.03-.043.029-.043.031-.043.03-.042.03-.043.031-.043.031-.042.031-.042.031-.042.031-.042.032-.042.032-.041.032-.042.032-.041.032-.041.033-.041.032-.041.033-.041.033-.04.034-.04.033-.041.034-.04.033-.04.034-.039.035-.04.034-.039.034-.04.035-.039.035-.039.035-.039.035-.038a11.64 11.64 0 0 1 1.302-1.219l.042-.033.041-.033.042-.032.042-.033.042-.032.042-.032.042-.031.042-.032.043-.031.042-.032.043-.03.043-.031.043-.031.043-.03.043-.03.044-.03.043-.03.044-.029.044-.03.044-.029.044-.029.044-.029.044-.028.045-.028.044-.029.045-.027.045-.028.045-.028.045-.027.045-.027.046-.027.045-.027.046-.026.046-.026L8 3.633l.046-.025.046-.026.046-.026.047-.025.046-.025.047-.025.047-.024.047-.025.047-.024.047-.024.047-.024.048-.023.047-.024.048-.023.048-.023.048-.022.048-.023.048-.022.048-.022.049-.022.048-.022.049-.021.049-.021.048-.021.049-.021.05-.02.049-.021.049-.02.05-.02.049-.019.05-.02.05-.019.05-.019.05-.019.05-.018.05-.018.05-.018.051-.018.05-.018.051-.017.051-.017.051-.017.051-.017.051-.016.051-.017.051-.016.052-.015.051-.016.052-.015.052-.015.051-.015.052-.015.052-.014.052-.014.053-.014.052-.013.052-.014.053-.013.053-.013.052-.012.053-.013.053-.012.053-.012.053-.012.053-.011.053-.011.054-.011.053-.011.054-.01.053-.01.108-.02V0A13.782 13.782 0 0 0 .059 11.257Zm11.553-8.414a10.98 10.98 0 0 0-8.692 8.414h1.624a9.402 9.402 0 0 1 7.068-6.802V2.843Zm4.474.092v1.629a9.38 9.38 0 0 1 4.79 3.101l1.123-1.125-.026-.031a10.961 10.961 0 0 0-5.887-3.574Zm0-2.865v2.352a11.459 11.459 0 0 1 6.267 3.763l1.631-1.636A13.75 13.75 0 0 0 16.086.07Z"/></svg>