<svg role="img" viewBox="0 0 24 24" xmlns="http://www.w3.org/2000/svg"><title>Dependabot icon</title><path d="M12 0c-.293 0-.585.064-.808.191l-9.13 5.213c-.447.255-.808.877-.808 1.39v10.411c0 .515.362 1.136.808 1.391l9.13 5.213c.447.255 1.17.254 1.615 0l9.13-5.213c.448-.255.808-.877.808-1.39V6.794c0-.515-.361-1.136-.807-1.39L12.808.19A1.665 1.665 0 0 0 11.998 0zm-1.207 5.408h2.548v3.438h4.53v4.009h.85v2.577h-.85v2.005H6.263v-2.005h-.85v-2.577h.85v-4.01h6.229v-.859h-1.699zm-.283 6.588L9.377 13.14l-.566-.573-.566.573 1.132 1.146 1.7-1.719zm4.813 0l-1.132 1.145-.567-.573-.566.573 1.133 1.146 1.698-1.719z"/></svg>