<svg role="img" viewBox="0 0 24 24" xmlns="http://www.w3.org/2000/svg"><title>detekt</title><path d="M18.0958 11.8325c.1031 0 .2052.004.3067.01.3152.0187.6226.0661.9202.1392.3194.0787.6271.1874.9201.3228 1.7633.8147 2.9904 2.599 2.9904 4.6655 0 1.0202-.2995 1.9714-.8146 2.7715-.1302.2024-.1145.4709.0556.6411l1.2563 1.2563c.3593.3593.3593.9419 0 1.3013-.1796.1797-.4152.2695-.6506.2695s-.4709-.0898-.6506-.2695l-1.3439-1.344c-.1582-.1582-.4036-.184-.6015-.0796-.7139.3768-1.5263.5908-2.388.5908-2.0371 0-3.8011-1.1919-4.6312-2.915a5.104 5.104 0 0 1-.3385-.9201c-.0779-.2971-.1286-.6047-.152-.9201-.0094-.1264-.0157-.2535-.0157-.3823 0-.5064.0748-.9954.212-1.458.2026-.6834.5433-1.3076.9905-1.8402.9431-1.1233 2.3567-1.8392 3.9348-1.8392m.0001 1.8405c-1.818 0-3.2971 1.4791-3.2971 3.2972 0 .1294.0083.2567.0229.3823.0375.3231.1214.6322.2458.9201.1467.3399.3489.6505.5953.9201.6033.6599 1.4706 1.0745 2.4331 1.0745 1.818 0 3.2971-1.4791 3.2971-3.297 0-.9984-.4467-1.8941-1.1501-2.4992-.272-.234-.5821-.4243-.9201-.5603a3.27 3.27 0 0 0-.9202-.223c-.1011-.0093-.2033-.0147-.3067-.0147M19.3126.79c.5177 0 .9375.4197.9375.9375v7.9482c0 .3298-.3257.5619-.6465.4858-.5072-.1203-1.0362-.184-1.5801-.184-3.7668 0-6.8203 3.0536-6.8203 6.8204 0 .6059.079 1.1934.2273 1.7526.086.3246-.147.6614-.4827.6614H.9375c-.5178 0-.9375-.4197-.9375-.9375V1.7275C0 1.2097.4197.79.9375.79zM4.2884 10.057c-.2795 0-.4924.0917-.6385.2751-.1461.1763-.2192.3914-.2192.6452v.0424c0 .2538.0731.4725.2192.6558.1461.1763.359.2645.6385.2645.2796 0 .4924-.0882.6385-.2645.1461-.1833.2192-.402.2192-.6558v-.0424c0-.2538-.0731-.4689-.2192-.6452-.1461-.1834-.3589-.2751-.6385-.2751m4.2885 0c-.2795 0-.4924.0917-.6385.2751-.1461.1763-.2192.3914-.2192.6452v.0424c0 .2538.0731.4725.2192.6558.1461.1763.359.2645.6385.2645.2796 0 .4924-.0882.6385-.2645.1461-.1833.2192-.402.2192-.6558v-.0424c0-.2538-.0731-.4689-.2192-.6452-.1461-.1834-.3589-.2751-.6385-.2751m-3.507-5.8362H3.507v1.23l.4955 3.6389h.5718l.4956-3.6389zm4.2885 0H7.7955v1.23l.4955 3.6389h.5718l.4956-3.6389z"/></svg>