<svg role="img" viewBox="0 0 24 24" xmlns="http://www.w3.org/2000/svg"><title>Detekt</title><path d="M18.117 12a5.3 5.3 0 0 1 2.139.456c1.757.788 2.98 2.513 2.98 4.511a4.83 4.83 0 0 1-.812 2.68.486.486 0 0 0 .055.62l.357.346.652.633.243.235a.87.87 0 0 1 .259.682.87.87 0 0 1-.26.576.93.93 0 0 1-.648.261.93.93 0 0 1-.648-.26l-.287-.279-.658-.639-.394-.382a.52.52 0 0 0-.599-.077 5.2 5.2 0 0 1-2.379.571c-2.03 0-3.787-1.152-4.614-2.818a4.84 4.84 0 0 1-.293-3.559c.202-.66.542-1.264.987-1.779A5.17 5.17 0 0 1 18.117 12m0 1.78c-1.811 0-3.285 1.43-3.285 3.187a3.1 3.1 0 0 0 .268 1.26c.146.328.348.628.593.89a3.32 3.32 0 0 0 2.424 1.038c1.811 0 3.285-1.43 3.285-3.188 0-.965-.445-1.83-1.146-2.416a3.3 3.3 0 0 0-1.833-.757 3 3 0 0 0-.306-.015M19.074 1c.511 0 .926.41.926.916v7.766c0 .322-.322.55-.639.475a6.8 6.8 0 0 0-1.56-.18c-3.72 0-6.736 2.984-6.736 6.664 0 .592.078 1.166.224 1.713.085.317-.145.646-.476.646H.926A.92.92 0 0 1 0 18.084V1.916C0 1.41.415 1 .926 1zM4 10.049q-.489 0-.744.285a.94.94 0 0 0-.256.668v.044q0 .395.256.68Q3.51 12 4 12t.744-.274a.98.98 0 0 0 .256-.68v-.044a.95.95 0 0 0-.256-.668q-.255-.285-.744-.285m5 0q-.489 0-.744.285a.95.95 0 0 0-.256.668v.044q0 .395.256.68Q8.51 12 9 12t.744-.274a.98.98 0 0 0 .256-.68v-.044a.94.94 0 0 0-.256-.668q-.255-.285-.744-.285M4.911 4H3.09v1.275l.578 3.771h.666l.578-3.771zm5 0H8.09v1.275l.578 3.771h.666l.578-3.771z"/></svg>