<svg role="img" viewBox="0 0 24 24" xmlns="http://www.w3.org/2000/svg"><title>detekt</title><path d="M 18.0958 11.8325 C 18.1989 11.8325 18.301 11.8365 18.4025 11.8425 C 18.7177 11.8612 19.0251 11.9086 19.3227 11.9817 C 19.6421 12.0604 19.9498 12.1691 20.2428 12.3045 C 22.0061 13.1192 23.2332 14.9035 23.2332 16.97 C 23.2332 17.9902 22.9337 18.9414 22.4186 19.7415 C 22.2884 19.9439 22.3041 20.2124 22.4742 20.3826 L 23.7305 21.6389 C 24.0898 21.9982 24.0898 22.5808 23.7305 22.9402 C 23.5509 23.1199 23.3153 23.2097 23.0799 23.2097 C 22.8445 23.2097 22.609 23.1199 22.4293 22.9402 L 21.0854 21.5962 C 20.9272 21.438 20.6818 21.4122 20.4839 21.5166 C 19.77 21.8934 18.9576 22.1074 18.0959 22.1074 C 16.0588 22.1074 14.2948 20.9155 13.4647 19.1924 C 13.3238 18.8999 13.2101 18.5921 13.1262 18.2723 C 13.0483 17.9752 12.9976 17.6676 12.9742 17.3522 C 12.9648 17.2258 12.9585 17.0987 12.9585 16.9699 C 12.9585 16.4635 13.0333 15.9745 13.1705 15.5119 C 13.3731 14.8285 13.7138 14.2043 14.161 13.6717 C 15.1041 12.5484 16.5177 11.8325 18.0958 11.8325 Z M 18.0959 13.673 C 16.2779 13.673 14.7988 15.1521 14.7988 16.9702 C 14.7988 17.0996 14.8071 17.2269 14.8217 17.3525 C 14.8592 17.6756 14.9431 17.9847 15.0675 18.2726 C 15.2142 18.6125 15.4164 18.9231 15.6628 19.1927 C 16.2661 19.8526 17.1334 20.2672 18.0959 20.2672 C 19.9139 20.2672 21.393 18.7881 21.393 16.9702 C 21.393 15.9718 20.9463 15.0761 20.2429 14.471 C 19.9709 14.237 19.6608 14.0467 19.3228 13.9107 C 19.0338 13.7943 18.725 13.7177 18.4026 13.6877 C 18.3015 13.6784 18.1993 13.673 18.0959 13.673 Z M 19.3126 0.79 C 19.8303 0.79 20.2501 1.2097 20.2501 1.7275 L 20.2501 9.6757 C 20.2501 10.0055 19.9244 10.2376 19.6036 10.1615 C 19.0964 10.0412 18.5674 9.9775 18.0235 9.9775 C 14.2567 9.9775 11.2032 13.0311 11.2032 16.7979 C 11.2032 17.4038 11.2822 17.9913 11.4305 18.5505 C 11.5165 18.8751 11.2835 19.2119 10.9478 19.2119 L 0.9375 19.2119 C 0.4197 19.2119 0 18.7922 0 18.2744 L 0 1.7275 C 0 1.2097 0.4197 0.79 0.9375 0.79 L 19.3126 0.79 Z M 4.2884 10.057 C 4.0089 10.057 3.796 10.1487 3.6499 10.3321 C 3.5038 10.5084 3.4307 10.7235 3.4307 10.9773 L 3.4307 11.0197 C 3.4307 11.2735 3.5038 11.4922 3.6499 11.6755 C 3.796 11.8518 4.0089 11.94 4.2884 11.94 C 4.568 11.94 4.7808 11.8518 4.9269 11.6755 C 5.073 11.4922 5.1461 11.2735 5.1461 11.0197 L 5.1461 10.9773 C 5.1461 10.7235 5.073 10.5084 4.9269 10.3321 C 4.7808 10.1487 4.568 10.057 4.2884 10.057 Z M 8.5769 10.057 C 8.2974 10.057 8.0845 10.1487 7.9384 10.3321 C 7.7923 10.5084 7.7192 10.7235 7.7192 10.9773 L 7.7192 11.0197 C 7.7192 11.2735 7.7923 11.4922 7.9384 11.6755 C 8.0845 11.8518 8.2974 11.94 8.5769 11.94 C 8.8565 11.94 9.0693 11.8518 9.2154 11.6755 C 9.3615 11.4922 9.4346 11.2735 9.4346 11.0197 L 9.4346 10.9773 C 9.4346 10.7235 9.3615 10.5084 9.2154 10.3321 C 9.0693 10.1487 8.8565 10.057 8.5769 10.057 Z M 5.0699 4.2208 L 3.507 4.2208 L 3.507 5.4508 L 4.0025 9.0897 L 4.5743 9.0897 L 5.0699 5.4508 L 5.0699 4.2208 Z M 9.3584 4.2208 L 7.7955 4.2208 L 7.7955 5.4508 L 8.291 9.0897 L 8.8628 9.0897 L 9.3584 5.4508 L 9.3584 4.2208 Z"/></svg>