<svg role="img" viewBox="0 0 24 24" xmlns="http://www.w3.org/2000/svg"><title>Devfolio</title><path d="M5.719.002c-.97.005-1.831.025-2.403.07-1.232.109-2.174 1.27-2.21 2.575l-.038 16.316c.037 1.306.943 2.466 2.176 2.575 2.284.217 9.21.035 9.21.035 5.402-.435 9.644-5.04 9.644-10.696S17.892.58 12.526.107c0 0-3.896-.12-6.807-.105zM22.895 12.58a11.9 11.9 0 0 1-2.973 6.49c-1.885 2.14-4.532 3.446-7.396 3.7h-.035s-2.865.072-5.475.072c-1.777 0-3.047-.036-3.809-.109a3.255 3.255 0 0 1-1.014-.289 2.363 2.363 0 0 0 1.92 1.45c2.285.217 9.212.036 9.212.036 5.366-.471 9.607-5.076 9.607-10.732 0-.218 0-.436-.037-.618z"/></svg>