<svg 
  role="img"
  viewBox="0 0 24 24"
  xmlns="http://www.w3.org/2000/svg" 
>
  <title>Deviantart</title>
  <path d="M19.2 0h-4.13l-.44.438-2.101 4.01-.614.355H4.799v5.994h3.802l.396.396L4.8 19.206v4.788l4.134-.001.442-.44 2.105-4.012.6-.347h7.12v-5.99h-3.813l-.386-.387 4.2-8.017" style="stroke-width:.144013"/><path d="M116.002 1.61 110 12.004l6.002 10.386h11.996L134 12.004 127.998 1.61Zm1.593 4.084h3.947c3.605 0 6.276 1.695 6.276 6.31 0 4.436-3.21 6.302-6.456 6.302h-3.767zm2.517 2.449v7.714h1.241c2.646 0 3.862-1.55 3.862-3.861.009-2.569-1.096-3.853-3.767-3.853z"/>
</svg>