<svg role="img" xmlns="http://www.w3.org/2000/svg" viewBox="0 0 24 24"><title>Dgraph icon</title><path d="M18.2 4.3c.2-.4.4-.9.4-1.4 0-1.6-1.3-2.9-2.9-2.9-1.3 0-2.5.9-2.8 2.2h-.8C6.4 2.2 1.9 6.7 1.9 12.3c0 2.6 1 5.1 2.9 7-.4.5-.6 1.1-.6 1.7 0 1.6 1.3 2.9 2.9 2.9 1.2 0 2.3-.8 2.7-1.9.7.2 1.4.2 2.2.2 5.6 0 10.1-4.5 10.1-10.1 0-2.9-1.5-5.9-3.9-7.8zm-2.6.4c-.2 0-.3 0-.5-.1L14 8.2l1.8-.3-2.5 4.1 2.1-.5-7 8.3c.7.6.7 1.7.2 2.4-.6.7-1.7.8-2.4.4-.8-.5-1-1.5-.6-2.3.4-.8 1.4-1.2 2.2-.9l2-4.3-1.9.5 3.1-4.5-2 .5 5.5-7.3c-.6-.5-.8-1.3-.5-2 .3-.7.9-1.2 1.7-1.2 1 0 1.8.8 1.8 1.8-.1 1-.9 1.8-1.9 1.8z"/></svg>