<svg role="img" viewBox="0 0 24 24" xmlns="http://www.w3.org/2000/svg"><title>Dhall</title><path d="M10.188.006a.638.638 0 0 0-.077 1.25l.596.16c-.334.83-2.223 5.43-3.83 7.512.989 3.498 1.596 11.015 1.596 11.015l2.293-8.56c-.374-.249-.656-.74-.533-1.197a1.075 1.075 0 0 1 2.076.556c-.123.457-.613.741-1.06.77l-2.296 8.56s4.365-6.56 6.89-8.742c-.236-2.734.332-7.544.44-8.42l.596.16a.639.639 0 1 0 .33-1.234L10.44.022a.64.64 0 0 0-.253-.016zM7.99 20.445a1.779 1.779 0 1 0 .21 3.553 1.779 1.779 0 0 0-.21-3.553z"/></svg>