<svg viewBox="0 0 16 16" xmlns="http://www.w3.org/2000/svg" fill-rule="evenodd" clip-rule="evenodd" stroke-linejoin="round" stroke-miterlimit="1.414"><path d="M10.172 14.618l-1.554-2.17c-.415-.58-.752-1.032-.77-1.032-.018 0-.67.877-1.544 2.076-.832 1.142-1.52 2.076-1.53 2.076-.022 0-2.998-2.096-3.006-2.118-.004-.01.67-.998 1.495-2.194.826-1.197 1.502-2.195 1.502-2.218 0-.037-.268-.13-2.367-.83l-2.396-.8c-.02-.01.103-.424.528-1.766.306-.964.563-1.76.57-1.77.01-.01 1.14.35 2.515.804 1.375.452 2.51.822 2.525.822.014 0 .03-.02.035-.047.006-.02.018-1.19.027-2.6.01-1.4.024-2.56.033-2.58.013-.02.4-.02 1.817-.02.99 0 1.81.01 1.823.02.016.01.043.79.09 2.52.073 2.85.075 2.89.12 2.89.018 0 1.107-.36 2.42-.81 1.315-.44 2.396-.8 2.404-.79.02.03 1.1 3.54 1.09 3.55-.01.01-1.11.39-2.44.84-1.84.62-2.43.83-2.43.86-.01.02.62.97 1.43 2.14.79 1.16 1.43 2.11 1.43 2.12-.01.03-2.96 2.2-2.99 2.2-.01 0-.39-.51-.83-1.13z" fill-rule="nonzero"/></svg>