<svg viewBox="0 0 16 16" xmlns="http://www.w3.org/2000/svg" fill-rule="evenodd" clip-rule="evenodd" stroke-linejoin="round" stroke-miterlimit="1.414"><path d="M.96 12.038c2.87-1.844 6.125-.518 7.746.37-2.245-.887-5.537-1.095-7.746-.37zm14.977-1.98c-.18.477-.814 1.684-2.646 2-2.295.394-4.41-.05-7.103-1.052-1.81-.675-3.56-.156-4.514.244l-.012.005c-.457.193-.728.358-.728.345 0 0 .26-.286.72-.626l.01-.01c.897-.66 2.548-1.523 4.533-.9 3.017.945 4.937 2.23 7.268 1.652 1.768-.44 2.314-1.278 2.474-1.657.046-.122.063-.196.063-.196s-.012.074-.063.195zm-6.688.45s1.44.736 2.793.616c1.354-.12 1.766-.6 1.766-.6s-.498.917-1.8.97c-1.304.05-2.76-.953-2.76-.987zm-7.587-.683c.07.134.16.264.28.38.064.065.136.12.212.168-.154.08-.32.184-.486.295l-.01.006c-.19.128-.375.266-.53.384C.45 10.624 0 9.868 0 9.008c0-1.065.692-1.97 1.656-2.303l.005-.002c.22-.075.454-.12.696-.13-.012.12-.018.244-.018.37 0 .21.018.415.053.616-.262.01-.51.084-.723.206l-.006.003c-.47.27-.79.777-.79 1.356 0 .577.316 1.08.786 1.354l.005.003.114.06c-.033-.026-.064-.052-.094-.08l-.02-.018v-.002c-.708-.7-.197-1.87-.197-1.87s-.104.663.198 1.25l.003.002zm11.29-.622h.935v.936h-.936v-.937zM10.08 8.34h.9v.9h-.9v-.9zm1.894-.09h.9v.9h-.9v-.9zm2.315-.717h1.613v1.614H14.29V7.533zM13.233 6.51h.9v.9h-.9v-.9zm-1.862-.032h.9v.9h-.9v-.9zM8.145 5.85h1.21v1.21h-1.21V5.85zm1.458-1.11h1.614v1.614H9.603V4.74zM6 3.593c1.38 0 2.566.813 3.097 1.98h-1.08c-.476-.587-1.208-.963-2.03-.963-.808 0-1.53.362-2.006.934l.08-.06c1.127-.806 2.63.082 2.63.082s-1.428-.413-2.394.264c-.966.677-.81 2.034-.81 2.034l-.017-.05.012.046c-.232-.17-.513-.282-.82-.312-.035-.196-.055-.4-.055-.606 0-1.85 1.52-3.35 3.393-3.35z"/></svg>