<svg role="img" viewBox="0 0 24 24" xmlns="http://www.w3.org/2000/svg"><title>DingTalk</title><path d="M12,0c-6.62679,0 -12,5.37321 -12,12s5.37321,12 12,12s12,-5.37321 12,-12s-5.37321,-12 -12,-12zm6.08036,10.32054c-0.02679,0.1125 -0.09375,0.27857 -0.1875,0.47679l0.00268,0l-0.01071,0.01875c-0.54375,1.15446 -1.95804,3.42054 -1.95804,3.42054s-0.00268,-0.00536 -0.00804,-0.01339l-0.41518,0.71786l1.99554,0l-3.80893,5.04107l0.86518,-3.42857l-1.56964,0l0.54643,-2.26875c-0.44196,0.10446 -0.96161,0.25179 -1.58036,0.45c0,0 -0.83571,0.4875 -2.40804,-0.9375c0,0 -1.06071,-0.92946 -0.44464,-1.1625c0.2625,-0.09911 1.26964,-0.225 2.0625,-0.32946c1.07143,-0.14464 1.73036,-0.21964 1.73036,-0.21964s-3.30268,0.04821 -4.0875,-0.07232c-0.78482,-0.12321 -1.77857,-1.42232 -1.99018,-2.56607c0,0 -0.32679,-0.62679 0.70446,-0.32946c1.03125,0.29732 5.30089,1.15714 5.30089,1.15714s-5.55536,-1.69554 -5.925,-2.10804c-0.36964,-0.4125 -1.0875,-2.25536 -0.99375,-3.38839c0,0 0.04018,-0.28125 0.33214,-0.20625c0,0 4.10625,1.86696 6.91339,2.89018c2.80714,1.01518 5.24732,1.53482 4.93393,2.85804z"/></svg>
