<svg viewBox="0 0 16 16" xmlns="http://www.w3.org/2000/svg" fill-rule="evenodd" clip-rule="evenodd" stroke-linejoin="round" stroke-miterlimit="1.414"><path d="M13.487-.002c.936 0 1.693.758 1.738 1.65v14.35l-1.783-1.515-.98-.892-1.07-.93.446 1.47h-9.36c-.935 0-1.693-.71-1.693-1.65V1.65C.785.76 1.543 0 2.48 0h11zm-4.08 3.788h-.02l-.134.134c1.382.4 2.05 1.025 2.05 1.025-.89-.446-1.694-.668-2.496-.758-.58-.09-1.16-.044-1.65 0h-.132c-.312 0-.98.134-1.872.49-.312.134-.49.223-.49.223s.668-.668 2.14-1.025l-.09-.09s-1.115-.043-2.318.848c0 0-1.203 2.095-1.203 4.68 0 0 .668 1.158 2.495 1.203 0 0 .268-.356.535-.668-1.025-.312-1.426-.936-1.426-.936s.09.044.223.133h.04c.02 0 .03.01.04.02v.005c.01.01.02.02.04.02.22.09.44.178.62.267.31.134.71.268 1.2.357.62.09 1.33.134 2.14 0 .4-.09.8-.178 1.2-.357.26-.133.58-.267.93-.49 0 0-.4.624-1.47.936.22.312.53.668.53.668 1.83-.04 2.54-1.2 2.58-1.15 0-2.58-1.21-4.68-1.21-4.68-1.09-.81-2.11-.84-2.29-.84zm.113 2.942c.468 0 .847.4.847.89 0 .493-.38.892-.847.892-.467 0-.846-.4-.846-.89 0-.493.38-.892.846-.892zm-3.03 0c.467 0 .846.4.846.89 0 .493-.38.892-.846.892-.468 0-.847-.4-.847-.89 0-.493.38-.892.847-.892z"/></svg>