<svg xmlns="http://www.w3.org/2000/svg" id="Layer_1" viewBox="0 0 16 16" width="16" height="16">
  <style id="style3337">
    .st0{fill:#FFFFFF;}
  </style>
  <g id="g3339" transform="translate(.785 -.002) scale(.44568)" fill="#fff">
    <ellipse class="st0" cx="19.6" cy="17.1" rx="1.9" ry="2" id="ellipse3341"/>
    <ellipse class="st0" cx="12.8" cy="17.1" rx="1.9" ry="2" id="ellipse3343"/>
    <path class="st0" d="M28.5 0H3.8C1.7 0 0 1.7 0 3.7V28c0 2.1 1.7 3.7 3.8 3.7h21l-1-3.3 2.4 2.1 2.2 2 4 3.4V3.7c-.1-2-1.8-3.7-3.9-3.7zm-7.1 23.5s-.7-.8-1.2-1.5c2.4-.7 3.3-2.1 3.3-2.1-.8.5-1.5.8-2.1 1.1-.9.4-1.8.6-2.7.8-1.8.3-3.4.2-4.8 0-1.1-.2-2-.5-2.7-.8-.4-.2-.9-.4-1.4-.6-.1 0-.1-.1-.2-.1h-.1c-.3-.2-.5-.3-.5-.3s.9 1.4 3.2 2.1c-.6.7-1.2 1.5-1.2 1.5-4.1-.1-5.6-2.7-5.6-2.7 0-5.8 2.7-10.5 2.7-10.5 2.7-2 5.2-1.9 5.2-1.9l.2.2c-3.3.8-4.8 2.3-4.8 2.3s.4-.2 1.1-.5c2-.8 3.5-1.1 4.2-1.1h.3c1.1-.1 2.4-.2 3.7 0 1.8.2 3.6.7 5.6 1.7 0 0-1.5-1.4-4.6-2.3l.3-.3s2.5-.1 5.2 1.9c0 0 2.7 4.7 2.7 10.5-.1-.1-1.7 2.5-5.8 2.6z" id="path3345"/>
  </g>
</svg>
