<svg role="img" viewBox="0 0 24 24" xmlns="http://www.w3.org/2000/svg"><title>Disroot icon</title><path d="M18.824 6.655q.092.128 0 .255-.093.032-.154 0l-.154-.223-.369-.095q-.092-.096 0-.255.092-.128.246-.096.277.16.43.415zm4.49 4.336q.032.095.032.159l-.154.223v-.35q.062-.032.123-.032zm-5.382-4.75l.153.255q-.123.223-.246.287l-.092.127q-.06-.16-.092-.318-.03 0-.062-.032l-.123.127-.553-.127q-.123-.16.061-.35.185-.192.43-.096zm-1.138.67l-.154-.096.123-.064.03.16zm-2.46-1.626l-.185.223-.185-.223-.154-.032.492-.096zm3.813 12.208zm5.783-7.427q.123.096.03.478l-.183.542-.154.19-.031-.381q0-.128-.03-.223 0-.096-.032-.191l-.4.19q.03.065.03.16.032.096.063.128l-.43.032.03.127.092.096-.153.35q-.031.287-.154.32l-.123-.192-.37.095q-.122-.127-.122-.223l-.093-.127.154-.191q-.061-.128-.123-.128l-.154.064-.153.382q-.216 0-.277.064l.184.255.646.35.03.224q.124.032.186.095.092.064.123.096-.031.064-.062.16-.03.063-.123.127l-.277.191.03.255q-.245.096-.43.319l-.092.35q-.338 0-.43.064l.03.479-.092-.032q-.123-.192-.246-.096l.123.414q-.092 0-.154.032l-.061.064.123.223q.03.128.03.192-.184.159-.37.19-.152.033-.245.224l.03.382q-.091.224-.153.287-.307 0-.461.064l-.185.35-.153-.063q-.124-.032-.185 0l-.123.255q-.277 0-.4.127l-.247.224.062-.287q.092-.255-.093-.287l-.123.095-.03.16-.308.191-.03.35h-.585l-.123.224q-.062.191-.308.287-.246.095-.86.095-.616 0-.77.064-.154 0-.277.16-.092.16-.215.223l-.492.16-.154.286-.215.16q-.154.095-.492.095l-.308.16-.46.19-.34-.03q-.184-.097-.43-.097h-.554l-.185-.128-.369.064-.184.255-.277-.19-.215-.224-.492-.032-.185-.16.277-.35.37-.51v-.35l.43-.479v-.542q0-.255.092-.446l.338.096q.123-.128.123-.192-.184-.159-.338-.414l-.308-.446-.369-.478-.246-.447-.277-.446-.215-.542-.46-.51-1.693-2.486-.308-.542-.307-.606-.246-.16q-.277-.35-.462-.764l-.092-.383-.277-.127-.953.19q-.339 0-.738.129l-.646.255-.77.095-.43.16q-.277.064-.43-.064L1.23 8.6l-.338.128-.277-.096q0-.32-.061-.383l-.277-.382Q.092 7.739 0 7.707l.03-.16h.308q-.03-.094-.03-.222v-.16l.307.128q.154-.095.185-.16l.123-.254.246.032.184-.542-.03-.287.154.095.153.16q.154-.064.185-.128l.277-.35.276.032-.092-.223-.184-.224-.277-.095q.184-.287.8-.415l.984-.095.338-.223.8-.16 1.23-.064.43-.095q.247-.096.493-.032l.492-.032q.492-.127.707-.064l.4.032.554.032.83.16.738.063.523-.223q.185 0 .4.255l.308.223h.646l.215.255-.03.16.184.51.123-.064.277-.32.307.479-.369-.127q-.215 0-.246.318l.308.064.123.16.184-.064q.154-.064.308.064.184.095.246.223l.184.255h.4q0-.096.03-.128.032-.064.062-.095l.062.318h.123l.092-.095.093.16.092-.256q.4 0 .461-.064 0-.095-.06-.16l-.124-.16q0-.158.246-.126l.43.128.308-.032.184.16.062.127q-.277-.064-.37.032-.06.063-.03.223l.215.19q0 .224.216.479l.123-.127.03-.255.124.159h.522q.154 0 .246.35l.093.32.123.095.154-.16.492.16.092-.16.154-.063q.123-.096.154-.16v-.16l-.062-.16.43.129q.125-.127.155-.191-.061-.16-.123-.16l-.307-.063v-.16l.092-.223.092-.191q.154.095.185.16l.154.222.215-.031.215-.032.77.669.215-.032.215.287.185.096q-.093.127 0 .286l.215-.095h.215l.185.319.184.318q.246 0 .37.064l.122.574.339.19.276.097q0 .16-.061.255l.06.319.094.19-.031.224.123-.064q.123-.16.185-.191l.123-.064zM16.18 5.35q.092.095 0 .286-.03.064-.185.096-.092-.096 0-.287.03-.064.185-.095zm6.306 5.928q.092.096 0 .255l-.154.064-.03-.223q0-.095.03-.127.062-.032.154.032zm-1.292-1.561q.06.063.06.318-.122.064-.245.032-.153-.095-.061-.287.06-.16.246-.063zm-8.705-4.24l-.185.35.092-.254zm4.244 12.304l-.123-.19.123-.097q.154.032.123.223zm5.138-4.75q-.185-.127-.246-.254l.184.127.062.128zM9.566 18.705l.153-.159.154-.096zm13.225-8.255l-.092.19-.03.097-.031-.224zm.154 1.562l-.061.286zM20.76 8.505l.093.128-.123.032-.123-.096zm-5.506 7.491l-.123.096zM14.61 5.253l-.03.16zm6.552 3.538l-.061.16zm-.123 5.196l.062.095-.093.064.03-.16zm-5.906-8.543l-.062.096zm1.66 11.635l-.06.127zm-6.92-6.822l-.123.128zm-.184 9.15l-.03.16.03-.16zm9.32-12.465l.06.096-.153-.064.092-.032zm-5.014 8.67l-.03.128.03-.127zm7.106-6.47l-.031.127.03-.127zm-.216 1.498l-.061.096zm.4 3.952l-.092.064zM1.692 6.624l-.031.159.03-.16zM22.3 11.947l-.123.064zm-.4-.223l-.184.032zm-6.49 6.821l-.03.096zm6.214-6.152v-.16zm1.507-2.136q-.031.064-.031.128 0-.096.03-.128zm-1.23 3.411zM1.506 6.018l-.03.127zm17.84 11.507zm-.338-8.734l-.124.032zm-.493-1.912l-.06.095zM10.92 5.062l-.092.032zm3.076 1.275l-.03.127.03-.127zm-.43-.032l-.062.064.061-.064zm-3.97 12.878l-.03.127zm11.442-8.67zm0 0zm0 0zm0 0zm0 0zm0 0zm0 0zm0 0zm-5.353 5.323zm7.014-3.539zm-2-1.083l-.06-.064zm-8.55 2.9zm9.843-1.275zm-9.229-7.012zm-.707.19zm0-.286zm3.968.478zm-2.89-.095l-.063-.064zm6.49 3.283zm2.89 0zm-4.92 7.81zm4.92-6.918zm-10.98 9.563zM13.04 4.998zm-.184 0zm7.844 3.92zm2.307 1.244q0-.255-.093-.415-.061-.16-.215-.286l-.03.414.215.096q.03.095 0 .159zm-2.4-.765l-.06-.064zm1.23 1.434l-.153-.032-.184-.287.06-.255-.276.192.154.19.03.097-.368.159.246.032q.06.064.123.095.092.032.123.032l.246-.223zm-.614-.574l-.123-.095-.216-.064-.092-.16-.123.128-.092.223.246.096q.184 0 .277.095zM15.84 6.783l-.123-.064-.184-.095q-.123 0-.123.063l.03.192.216.127zm3.692 6.79l.062-.383q0-.51-.37-1.084-.308-.574-.8-.924-.4-.383-1.107-.67l-1.23-.541-.462-.287-.677-.255-.707-.223-1.138-.255-.37-.064q-.276 0-.43.064-.123.03-.092.223l.37.733q.276.51.522.7l.277.192v.192l.307.382.03.255q.124.096.185.096.154.095.4.478l.34.414.521.765.462.829.215.637-.06.415.122.191-.123.191q-.093.096 0 .192l.215-.064.37-.16q.153 0 .522-.19l.677-.32.953-.382q.585-.255.83-.51l.124-.319q0-.223.062-.319z"/></svg>