<svg role="img" viewBox="0 0 24 24" xmlns="http://www.w3.org/2000/svg"><title>Disroot icon</title><path d="M18.824 6.671c.061.085.061.17 0 .256-.062.02-.113.02-.154 0l-.154-.224-.369-.095c-.061-.064-.061-.149 0-.255a.225.225 0 01.246-.096c.185.106.328.245.43.415zm4.49 4.336c.021.063.031.116.031.159l-.153.223v-.35a.265.265 0 01.123-.032zm-5.382-4.75l.154.255c-.082.149-.164.244-.246.287l-.093.128a1.867 1.867 0 01-.092-.32c-.02 0-.04-.01-.061-.031l-.123.127-.554-.127c-.082-.106-.062-.223.061-.35a.368.368 0 01.431-.096l.523.127zm-1.138.67l-.154-.096.123-.064.03.16zM14.334 5.3l-.185.223-.185-.223-.154-.032.492-.096.031.128zm9.596 4.781c.082.064.092.223.03.478l-.184.542-.154.191-.03-.382a.73.73 0 00-.031-.223.622.622 0 00-.031-.191l-.4.19c.02.043.03.096.03.16a.35.35 0 00.062.128l-.43.032.03.127.093.096-.154.35c-.02.192-.072.298-.154.32l-.123-.192-.369.095c-.082-.085-.123-.159-.123-.223l-.092-.127.153-.191c-.04-.085-.082-.128-.123-.128l-.153.064-.154.382c-.144 0-.236.022-.277.064l.185.255.645.35.031.224a.386.386 0 01.185.095.917.917 0 01.123.096c-.02.043-.041.096-.062.16a.354.354 0 01-.123.127l-.277.191.031.255c-.164.064-.307.17-.43.319l-.093.35c-.225 0-.369.022-.43.064l.03.479-.092-.032c-.082-.128-.164-.16-.246-.096l.123.414a.332.332 0 00-.154.032l-.061.064.123.223c.02.085.03.149.03.192a.774.774 0 01-.368.19c-.103.022-.185.096-.247.224l.031.382a1.043 1.043 0 01-.154.287c-.205 0-.358.022-.461.064l-.185.35-.153-.063c-.082-.021-.144-.021-.185 0l-.123.255c-.184 0-.318.042-.4.127l-.246.223.062-.286c.061-.17.03-.266-.093-.287l-.123.095-.03.16-.308.19-.03.352h-.585l-.123.223c-.041.127-.144.223-.308.287-.164.063-.45.095-.86.095-.411 0-.667.021-.77.064-.102 0-.195.053-.277.16a.55.55 0 01-.215.222l-.492.16-.154.287-.215.16c-.103.063-.267.095-.492.095l-.308.16-.461.19-.339-.032a.924.924 0 00-.43-.095h-.554l-.184-.128-.37.064-.184.255-.277-.191-.215-.223-.492-.032-.185-.16.277-.35.37-.51v-.35l.43-.479V17c0-.17.03-.319.092-.446l.338.096c.082-.085.123-.15.123-.192a1.703 1.703 0 01-.338-.414l-.308-.446-.369-.479-.246-.446-.277-.446-.215-.542-.461-.51-1.692-2.486-.308-.542-.307-.606-.246-.16a3.579 3.579 0 01-.462-.764l-.092-.383-.277-.127-.953.191c-.226 0-.472.043-.738.128l-.646.255-.77.095-.43.16c-.184.042-.328.02-.43-.064l-.216-.255-.338.127-.277-.095c0-.213-.02-.34-.061-.383l-.277-.382A1.335 1.335 0 000 7.723l.03-.16h.308a.73.73 0 01-.03-.222v-.16l.307.128c.103-.064.164-.117.185-.16l.123-.255.246.032.184-.542-.03-.286.153.095.154.16c.103-.043.164-.085.185-.128l.277-.35.276.031-.092-.223-.184-.223-.277-.096c.123-.19.39-.329.8-.414l.984-.096.338-.223.8-.159 1.23-.064.43-.095a.785.785 0 01.493-.032l.492-.032c.328-.085.564-.106.707-.064l.4.032.554.032.83.16.738.063.523-.223c.123 0 .257.085.4.255l.308.223h.646l.215.255-.03.16.184.51.123-.064.277-.32.307.479-.369-.128c-.143 0-.225.107-.246.32l.308.063.123.16.184-.064c.103-.043.205-.022.308.063a.527.527 0 01.246.223l.184.255h.4c0-.063.01-.106.031-.127a.37.37 0 01.062-.096l.061.32h.123l.092-.096.093.159.092-.255c.266 0 .42-.021.461-.064a.22.22 0 00-.061-.16l-.123-.159c0-.106.082-.148.246-.127l.43.127.308-.031.185.159.061.127c-.184-.042-.308-.031-.369.032-.041.043-.051.117-.03.223l.215.192c0 .148.071.308.215.478l.123-.128.03-.255.124.16h.523c.102 0 .184.117.246.35l.092.32.123.095.154-.16.492.16.092-.16.154-.063a.538.538 0 00.154-.16v-.16l-.062-.159.43.128a.902.902 0 00.155-.191c-.041-.107-.082-.16-.123-.16l-.308-.064v-.159l.092-.223.092-.191c.103.063.165.117.185.16l.154.222.430-.064.77.67.215-.032.215.287.185.095c-.062.085-.062.181 0 .287l.215-.095h.215l.185.318.184.32a.83.83 0 01.37.063l.122.574.339.191.277.096c0 .106-.021.19-.062.255l.062.318.092.192-.03.223.122-.064a.753.753 0 01.185-.191c.04-.022.082-.043.123-.064zm-7.751-4.717c.061.063.061.159 0 .286-.02.043-.082.075-.185.096-.061-.064-.061-.16 0-.287.02-.042.082-.074.185-.095zM9.566 18.72l.154-.16.153-.095zm9.442-11.763l.062.096-.154-.064.092-.032zm3.999 3.22a.82.82 0 00-.092-.415.703.703 0 00-.216-.286l-.03.414.215.096c.02.063.02.116 0 .159l.123.032zm-1.169.67l-.154-.033-.184-.287.061-.255-.276.192.153.191.031.096-.369.159.246.032a.485.485 0 00.123.095.488.488 0 00.123.032l.246-.223zm-.615-.575l-.123-.095-.215-.064-.093-.16-.123.128-.092.223.246.096c.123 0 .215.032.277.096zM15.84 6.8l-.123-.064-.184-.095c-.082 0-.123.02-.123.063l.03.192.216.127.184-.223zm3.691 6.79l.062-.383c0-.34-.123-.701-.37-1.084a2.65 2.65 0 00-.799-.924c-.267-.255-.636-.478-1.107-.67l-1.23-.541-.462-.287-.677-.255-.707-.223-1.138-.255-.37-.064c-.184 0-.327.021-.43.064-.082.02-.113.095-.092.223l.369.733c.185.34.359.574.523.701l.277.191v.192l.307.382.031.255c.082.064.144.096.185.096.102.063.235.223.4.478l.338.414.523.765.461.829.215.638-.061.414.123.191-.123.191c-.062.064-.062.128 0 .192l.215-.064.37-.16c.102 0 .276-.063.522-.19l.677-.32.953-.382c.39-.17.667-.34.83-.51l.124-.319c0-.148.02-.255.061-.318z"/></svg>