<?xml version="1.0" encoding="UTF-8" standalone="no"?>
<svg
   xmlns:dc="http://purl.org/dc/elements/1.1/"
   xmlns:cc="http://creativecommons.org/ns#"
   xmlns:rdf="http://www.w3.org/1999/02/22-rdf-syntax-ns#"
   xmlns:svg="http://www.w3.org/2000/svg"
   xmlns="http://www.w3.org/2000/svg"
   xmlns:sodipodi="http://sodipodi.sourceforge.net/DTD/sodipodi-0.dtd"
   xmlns:inkscape="http://www.inkscape.org/namespaces/inkscape"
   role="img"
   viewBox="0 0 24 24"
   version="1.1"
   id="svg930"
   sodipodi:docname="disroot.svg"
   inkscape:version="1.0.1 (3bc2e813f5, 2020-09-07)">
  <metadata
     id="metadata936">
    <rdf:RDF>
      <cc:Work
         rdf:about="">
        <dc:format>image/svg+xml</dc:format>
        <dc:type
           rdf:resource="http://purl.org/dc/dcmitype/StillImage" />
      </cc:Work>
    </rdf:RDF>
  </metadata>
  <defs
     id="defs934" />
  <sodipodi:namedview
     pagecolor="#ffffff"
     bordercolor="#666666"
     borderopacity="1"
     objecttolerance="10"
     gridtolerance="10"
     guidetolerance="10"
     inkscape:pageopacity="0"
     inkscape:pageshadow="2"
     inkscape:window-width="640"
     inkscape:window-height="480"
     id="namedview932"
     showgrid="false"
     inkscape:current-layer="svg930" />
  <title
     id="title926">Disroot icon</title>
  <path
     d="m 18.824496,6.6548033 q 0.092,0.1280033 0,0.2550067 -0.093,0.032001 -0.154004,0 l -0.154004,-0.2230059 -0.36901,-0.095002 q -0.092,-0.096002 0,-0.2550067 0.092,-0.1280034 0.246007,-0.096002 0.277007,0.1600042 0.430011,0.4150109 z m 4.490118,4.3361137 q 0.031,0.095 0.031,0.159005 l -0.154004,0.223005 v -0.350009 q 0.062,-0.032 0.123003,-0.032 z M 17.932473,6.2407924 18.085477,6.4957991 Q 17.962473,6.718805 17.83947,6.7828066 l -0.092,0.1270034 q -0.061,-0.1590042 -0.092,-0.3180084 -0.031,0 -0.062,-0.032001 L 17.47046,6.6868041 16.917446,6.5598008 q -0.123003,-0.1600042 0.061,-0.3500093 0.185005,-0.192005 0.430012,-0.096002 z m -1.13803,0.6700176 -0.154004,-0.096002 0.123003,-0.064002 0.03,0.1600042 z M 14.333378,5.2847672 14.149373,5.507773 13.964368,5.2847672 13.810364,5.2527663 14.302377,5.1567638 Z m 3.8141,12.2083218 z m 5.782153,-7.427196 q 0.123003,0.096 0.031,0.478013 l -0.184005,0.542014 -0.154004,0.191005 -0.031,-0.38201 q 0,-0.128004 -0.03,-0.223006 0,-0.096 -0.032,-0.191005 l -0.40001,0.190005 q 0.031,0.065 0.031,0.160004 0.031,0.096 0.062,0.128004 l -0.430011,0.032 0.03,0.127004 0.092,0.096 -0.153004,0.350009 q -0.031,0.287008 -0.154004,0.320009 l -0.123003,-0.192005 -0.37001,0.095 q -0.122,-0.126999 -0.122,-0.223002 l -0.093,-0.127003 0.154004,-0.191005 q -0.061,-0.128003 -0.123003,-0.128003 l -0.154004,0.064 -0.153004,0.38201 q -0.216006,0 -0.277007,0.064 l 0.184004,0.255007 0.646017,0.350009 0.031,0.224006 q 0.123004,0.032 0.185005,0.095 0.092,0.064 0.123003,0.096 -0.031,0.064 -0.062,0.160004 -0.03,0.063 -0.123003,0.127004 l -0.277008,0.191005 0.031,0.255006 q -0.246006,0.096 -0.430011,0.319009 l -0.093,0.350009 q -0.338009,0 -0.430011,0.064 l 0.03,0.479012 -0.092,-0.032 q -0.123003,-0.192005 -0.246006,-0.096 l 0.123003,0.414011 q -0.092,0 -0.154004,0.032 l -0.061,0.064 0.123004,0.223006 q 0.03,0.128004 0.03,0.192005 -0.184004,0.159004 -0.369009,0.190005 -0.153004,0.033 -0.246007,0.224006 l 0.031,0.38201 q -0.092,0.224006 -0.154004,0.287008 -0.307008,0 -0.461012,0.064 l -0.185005,0.350009 -0.153004,-0.063 q -0.124003,-0.032 -0.185005,0 l -0.123003,0.255007 q -0.277007,0 -0.400011,0.127003 l -0.246006,0.224006 0.062,-0.287007 q 0.092,-0.255007 -0.093,-0.287008 l -0.123003,0.095 -0.03,0.160005 -0.308008,0.191005 -0.03,0.350009 h -0.585015 l -0.123004,0.224006 q -0.062,0.191005 -0.308008,0.287007 -0.246006,0.095 -0.861022,0.095 -0.615017,0 -0.769021,0.064 -0.154004,0 -0.277007,0.160004 -0.092,0.159004 -0.215006,0.223006 l -0.492013,0.159004 -0.154004,0.287007 -0.215005,0.160005 q -0.154004,0.095 -0.492013,0.095 l -0.308008,0.160004 -0.461013,0.190005 -0.339009,-0.031 q -0.184004,-0.096 -0.430011,-0.096 h -0.554014 l -0.185005,-0.128003 -0.36901,0.064 -0.184005,0.255007 -0.277007,-0.191005 -0.215006,-0.223006 -0.4920129,-0.032 -0.1850048,-0.160004 0.2770073,-0.350009 0.3690094,-0.510014 v -0.350009 l 0.430012,-0.479012 V 16.98306 q 0,-0.255006 0.093,-0.446011 l 0.338009,0.096 Q 11.01129,16.505063 11.01129,16.441061 10.827285,16.282057 10.673281,16.02705 L 10.365273,15.581038 9.9962635,15.103026 9.750257,14.656014 9.4732497,14.210002 9.258244,13.667988 8.7972319,13.157974 7.1051873,10.671909 6.7971792,10.129895 6.4901711,9.5238789 6.2441646,9.3648747 Q 5.9671573,9.0148655 5.7821524,8.5998545 L 5.69015,8.2168444 5.4131427,8.0898411 4.4601176,8.2808461 q -0.339009,0 -0.7380195,0.1280034 L 3.0760811,8.6638562 2.3060608,8.7588587 1.8760494,8.9188629 Q 1.5990421,8.9828646 1.4460381,8.8548613 L 1.2300324,8.5998545 0.89202355,8.7278579 0.61501625,8.6318554 q 0,-0.3190084 -0.0610016,-0.3830101 L 0.27700734,7.8668352 Q 0.09200246,7.7388318 4.4661544e-8,7.706831 L 0.03000083,7.5478268 H 0.33800895 Q 0.30800816,7.4528243 0.30800816,7.3248209 V 7.1648167 L 0.61501625,7.2928201 Q 0.76902031,7.1978176 0.80002113,7.1328159 L 0.92302437,6.8788092 1.1690308,6.91081 1.3530357,6.3687957 1.3230349,6.0817882 1.4770389,6.1767907 1.630043,6.3367949 Q 1.784047,6.2727932 1.8150478,6.2087915 L 2.0920551,5.8587823 2.3680624,5.8907831 2.27606,5.6677773 2.0920551,5.4437714 1.8150478,5.3487689 Q 1.9990527,5.0617613 2.6150689,4.9337579 L 3.5990949,4.8387554 3.9371038,4.6157495 4.7371249,4.4557453 5.9671573,4.3917436 6.3971686,4.2967411 q 0.2470065,-0.096002 0.493013,-0.032001 l 0.492013,-0.032001 q 0.4920129,-0.127003 0.7070186,-0.064001 l 0.4000105,0.032001 0.5540146,0.032001 0.8300219,0.1600043 0.7380198,0.063002 0.523013,-0.2230059 q 0.185005,0 0.400011,0.2550068 l 0.308008,0.2230058 h 0.646017 l 0.215006,0.2550068 -0.03,0.1600042 0.184005,0.5100134 0.123003,-0.064002 0.277007,-0.3190084 0.307009,0.4780126 -0.36901,-0.1270033 q -0.215006,0 -0.246007,0.3180084 l 0.308008,0.064002 0.123004,0.1600043 0.184005,-0.064002 q 0.154004,-0.064002 0.308008,0.064002 0.184004,0.095002 0.246006,0.2230058 l 0.184005,0.2550068 h 0.400011 q 0,-0.096003 0.03,-0.1280034 0.032,-0.064002 0.062,-0.095002 l 0.062,0.3180084 h 0.123003 l 0.092,-0.095003 0.093,0.1600042 0.092,-0.2560068 q 0.400011,0 0.461012,-0.064002 0,-0.095002 -0.061,-0.1590042 L 15.533409,6.1447898 q 0,-0.1590042 0.246007,-0.1270033 l 0.430011,0.1280034 0.308008,-0.032001 0.184005,0.1600042 0.062,0.1270034 q -0.277007,-0.064002 -0.37001,0.032001 -0.06,0.063002 -0.03,0.2230059 l 0.215006,0.190005 q 0,0.2240059 0.216006,0.4790126 l 0.123003,-0.1270033 0.03,-0.2550067 0.124003,0.1590042 h 0.522014 q 0.154004,0 0.246006,0.3500092 l 0.093,0.3200084 0.123003,0.095003 0.154004,-0.1600042 0.492013,0.1600042 0.092,-0.1600042 0.154004,-0.063002 q 0.123004,-0.096002 0.154004,-0.1600042 V 7.3248209 l -0.062,-0.1600042 0.430011,0.1280034 q 0.124003,-0.1270034 0.154004,-0.191005 -0.061,-0.1600043 -0.123003,-0.1600043 L 19.193506,6.8788092 V 6.718805 l 0.092,-0.2230059 0.092,-0.1910051 q 0.154004,0.095003 0.185005,0.1600043 l 0.154004,0.2220058 0.215005,-0.031001 0.215006,-0.032001 0.77002,0.6690176 0.215006,-0.032001 0.215006,0.2870076 0.185004,0.096002 q -0.093,0.1270034 0,0.2860076 l 0.215006,-0.095003 h 0.215006 l 0.185005,0.3190084 0.184005,0.3180084 q 0.246006,0 0.370009,0.064002 l 0.122004,0.5740151 0.339008,0.191005 0.276008,0.096002 q 0,0.1600043 -0.061,0.2550068 l 0.061,0.3190084 0.093,0.190004 -0.031,0.224006 0.123004,-0.064 q 0.123003,-0.160005 0.185004,-0.191005 l 0.123004,-0.064 z M 16.180426,5.3497689 q 0.092,0.095003 0,0.2860075 -0.031,0.064002 -0.185004,0.096002 -0.092,-0.096002 0,-0.2870075 0.03,-0.064002 0.185004,-0.095002 z m 6.305167,5.9281561 q 0.092,0.096 0,0.255007 l -0.154004,0.064 -0.03,-0.223006 q 0,-0.095 0.03,-0.127003 0.062,-0.032 0.154004,0.032 z M 21.193559,9.716884 q 0.061,0.063002 0.061,0.318008 -0.123003,0.064 -0.246006,0.032 -0.153004,-0.095003 -0.061,-0.2870074 0.061,-0.1600042 0.246007,-0.063002 z m -8.70423,-4.2401118 -0.185005,0.3500093 0.092,-0.2540067 z m 4.244112,12.3043238 -0.123003,-0.191005 0.123003,-0.096 q 0.154004,0.032 0.123003,0.223006 z m 5.137135,-4.750125 Q 21.685572,12.903968 21.62457,12.776964 l 0.184005,0.127004 0.062,0.128003 z m -12.3043239,5.67415 0.1530041,-0.159005 0.154004,-0.096 z m 13.2243489,-8.255218 -0.092,0.190005 -0.03,0.097 -0.031,-0.224006 z m 0.154004,1.562041 -0.061,0.286008 z m -2.184058,-3.507092 0.093,0.1280034 -0.123004,0.032001 -0.123003,-0.096003 z m -5.505145,7.491197 -0.123003,0.096 z m -0.645017,-10.7432827 -0.03,0.1600042 z m 6.551173,3.5380933 -0.061,0.1600042 z m -0.123003,5.1961364 0.062,0.095 -0.093,0.064 0.031,-0.160005 z m -5.905156,-8.5432246 -0.062,0.096002 z m 1.660044,11.6353066 -0.06,0.127003 z M 9.8732602,10.256898 9.750257,10.384901 Z m -0.1840048,9.149241 -0.031001,0.160004 0.030001,-0.160004 z m 9.3202456,-12.4643282 0.06,0.096003 -0.153004,-0.064002 0.092,-0.032001 z m -5.014132,8.6702282 -0.031,0.128004 0.03,-0.127004 z m 7.105187,-6.4701702 -0.031,0.1270034 0.03,-0.1270034 z m -0.216006,1.4980392 -0.061,0.096 z m 0.400011,3.952104 -0.092,0.064 z M 1.6920446,6.6238025 1.6610438,6.7828066 1.6910446,6.6228024 Z m 20.6075434,5.3231405 -0.123004,0.064 z m -0.400011,-0.223006 -0.184005,0.032 z m -6.490171,6.821179 -0.03,0.096 z M 21.62357,12.392954 V 12.23295 Z m 1.50704,-2.136056 q -0.031,0.064 -0.031,0.128003 0,-0.096 0.03,-0.128003 z m -1.230033,3.41109 z M 1.5060397,6.0177865 1.4760389,6.1447898 Z M 19.34651,17.52509 Z m -0.339009,-8.7342304 -0.123003,0.032001 z m -0.492013,-1.9120504 -0.061,0.095003 z m -7.5952,-1.8170479 -0.092,0.032001 z m 3.076081,1.2750336 -0.031,0.1270033 0.03,-0.1270033 z m -0.430011,-0.032001 -0.062,0.064002 0.061,-0.064002 z M 9.5952529,19.183133 9.5652521,19.310137 Z M 21.037554,10.512905 Z m 0,0 z m 0,0 z m 0,0 z m 0,0 z m 0,0 z m 0,0 z m 0,0 z m -5.352141,5.32314 z m 7.013185,-3.539093 z m -2.000052,-1.083029 -0.06,-0.064 z M 12.14832,14.114 Z m 9.84326,-1.275034 z M 12.763336,5.8267815 Z m -0.707018,0.191005 z m 0,-0.2870076 z m 3.968104,0.4780126 z m -2.891076,-0.095002 -0.062,-0.064002 z m 6.490171,3.2830865 z m 2.890076,0 z m -4.920129,7.810206 z M 22.513593,10.2889 Z m -10.980289,9.563252 z m 1.50704,-14.8543919 z m -0.184005,0 z m 7.843207,3.9201033 z m 2.30706,1.2440336 q 0,-0.2550075 -0.093,-0.4150117 -0.061,-0.1590042 -0.215006,-0.2860076 l -0.03,0.4140109 0.215006,0.096003 q 0.03,0.095002 0,0.1590044 z m -2.400063,-0.765021 -0.06,-0.064002 z m 1.230033,1.434038 -0.153004,-0.032 -0.184005,-0.287007 0.061,-0.255007 -0.277007,0.192005 0.154004,0.190005 0.03,0.097 -0.36801,0.159004 0.246007,0.032 q 0.061,0.064 0.123003,0.095 0.092,0.032 0.123003,0.032 l 0.246007,-0.223006 z m -0.614017,-0.574015 -0.123003,-0.095 -0.216006,-0.064 -0.092,-0.1600047 -0.123003,0.1280037 -0.092,0.223006 0.246007,0.096 q 0.184005,0 0.277007,0.095 z M 15.840417,6.7828066 15.717414,6.718805 15.533409,6.6238025 q -0.123003,0 -0.123003,0.063002 l 0.03,0.1920051 0.216006,0.1270033 z m 3.691098,6.7901784 0.062,-0.38301 q 0,-0.510013 -0.370009,-1.084028 -0.307008,-0.574015 -0.800021,-0.924025 -0.400011,-0.38301 -1.10603,-0.670017 L 16.087424,9.9708907 15.625412,9.6838831 14.948394,9.4288764 14.241375,9.2058705 13.103345,8.9508638 12.733336,8.8868621 q -0.276008,0 -0.430012,0.064002 -0.123003,0.031001 -0.092,0.2230059 l 0.36901,0.7330193 q 0.277007,0.5100127 0.523013,0.7010177 l 0.277008,0.191005 v 0.192005 l 0.307008,0.38201 0.03,0.255007 q 0.124003,0.096 0.185004,0.096 0.154004,0.095 0.400011,0.478012 l 0.339009,0.414011 0.522014,0.76502 0.462012,0.829022 0.215005,0.637017 -0.061,0.415011 0.123003,0.191005 -0.123003,0.191005 q -0.093,0.096 0,0.192005 l 0.215006,-0.064 0.369009,-0.160004 q 0.154004,0 0.523014,-0.190005 l 0.677018,-0.320008 0.953025,-0.38201 q 0.584015,-0.255007 0.830022,-0.510014 l 0.123003,-0.319008 q 0,-0.223006 0.062,-0.319009 z"
     id="path928"
     style="stroke-width:1.00003" />
</svg>
