<svg role="img" viewBox="0 0 24 24" xmlns="http://www.w3.org/2000/svg"><title>Disroot icon</title><path d="M18.8245 6.6548q.092.128 0 .255-.093.032-.154 0l-.154-.223-.369-.095q-.092-.096 0-.255.092-.128.246-.096.277.16.43.415zm4.4901 4.3361q.031.095.031.159l-.154.223v-.35q.062-.032.123-.032zm-5.3821-4.7501l.153.255q-.123.223-.246.287l-.092.127q-.061-.159-.092-.318-.031 0-.062-.032l-.123.127-.553-.127q-.123-.16.061-.35.185-.192.43-.096zm-1.138.67l-.154-.096.123-.064.03.16zm-2.4611-1.626l-.184.223-.185-.223-.154-.032.492-.096zm3.814 12.2083zm5.7822-7.4272q.123.096.031.478l-.184.542-.154.191-.031-.382q0-.128-.03-.223 0-.096-.032-.191l-.4.19q.031.065.031.16.031.096.062.128l-.43.032.03.127.092.096-.153.35q-.031.287-.154.32l-.123-.192-.37.095q-.122-.127-.122-.223l-.093-.127.154-.191q-.061-.128-.123-.128l-.154.064-.153.382q-.216 0-.277.064l.184.255.646.35.031.224q.123.032.185.095.092.064.123.096-.031.064-.062.16-.03.063-.123.127l-.277.191.031.255q-.246.096-.43.319l-.093.35q-.338 0-.43.064l.03.4791-.092-.032q-.123-.192-.246-.096l.123.414q-.092 0-.154.032l-.061.064.123.223q.03.128.03.192-.184.159-.369.19-.153.033-.246.224l.031.382q-.092.224-.154.287-.307 0-.461.064l-.185.35-.153-.063q-.124-.032-.185 0l-.123.255q-.2771 0-.4001.127l-.246.224.062-.287q.092-.255-.093-.287l-.123.095-.03.16-.308.191-.03.35h-.585l-.123.224q-.062.191-.308.287-.246.095-.861.095t-.769.064q-.154 0-.2771.1601-.092.159-.215.223l-.492.159-.154.287-.215.16q-.154.095-.492.095l-.308.16-.461.19-.339-.031q-.184-.096-.43-.096h-.554l-.1851-.128-.369.064-.184.255-.277-.191-.215-.223-.492-.032-.185-.16.277-.35.369-.51v-.35l.43-.479v-.542q0-.255.093-.446l.338.096q.123-.128.123-.192-.184-.159-.338-.414l-.308-.446-.369-.478-.246-.447-.277-.4461-.215-.542-.461-.51-1.6921-2.486-.308-.5421-.307-.606-.246-.159q-.277-.35-.462-.765l-.092-.383-.277-.127-.953.191q-.339 0-.7381.128l-.646.255-.77.095-.43.16q-.277.064-.43-.064l-.216-.255-.338.128-.277-.096q0-.319-.061-.383l-.277-.382Q.092 7.7388 0 7.7068l.03-.159h.308q-.03-.095-.03-.223v-.16l.307.128q.154-.095.185-.16l.123-.254.246.032.184-.5421-.03-.287.154.095.153.16q.154-.064.185-.128l.277-.35.276.032-.092-.223-.184-.224-.277-.095q.184-.287.8-.415l.984-.095.3381-.223.8-.16 1.23-.064.43-.095q.247-.096.493-.032l.492-.032q.4921-.127.7071-.064l.4.032.554.032.83.16.738.063.523-.223q.1851 0 .4001.255l.308.223h.646l.215.255-.03.16.184.51.123-.064.277-.319.307.478-.369-.127q-.215 0-.246.318l.308.064.123.16.184-.064q.154-.064.308.064.184.095.246.223l.184.255h.4q0-.096.03-.128.032-.064.062-.095l.062.318h.123l.092-.095.093.16.092-.256q.4001 0 .4611-.064 0-.095-.061-.159l-.123-.16q0-.159.246-.127l.43.128.308-.032.184.16.062.127q-.277-.064-.37.032-.06.063-.03.223l.215.19q0 .224.216.479l.123-.127.03-.255.124.159h.522q.154 0 .246.35l.093.32.123.095.154-.16.492.16.092-.16.154-.063q.1231-.096.1541-.16v-.159l-.062-.16.43.128q.124-.127.154-.191-.061-.16-.123-.16l-.307-.063v-.16l.092-.223.092-.191q.154.095.185.16l.154.222.215-.031.215-.032.77.669.215-.032.215.287.185.096q-.093.127 0 .286l.215-.095h.215l.185.319.184.318q.246 0 .37.064l.1221.574.339.191.276.096q0 .16-.061.255l.061.319.093.19-.031.2241.123-.064q.123-.16.185-.191l.123-.064zm-7.7492-4.7161q.092.095 0 .286-.031.064-.185.096-.092-.096 0-.287.03-.064.185-.095zm6.3052 5.9281q.092.096 0 .255l-.154.064-.03-.223q0-.095.03-.127.062-.032.154.032zm-1.292-1.561q.061.063.061.318-.123.064-.246.032-.153-.095-.061-.287.061-.16.246-.063zm-8.7043-4.2401l-.185.35.092-.254zm4.2441 12.3043l-.123-.191.123-.096q.154.032.123.223zm5.1372-4.7501q-.185-.127-.246-.254l.184.127.062.128zM9.5663 18.705l.153-.159.154-.096zM22.7906 10.45l-.092.19-.03.097-.031-.224zm.154 1.562l-.061.286zm-2.184-3.507l.093.128-.123.032-.123-.096zm-5.5052 7.4911l-.123.096zm-.645-10.7432l-.03.16zm6.5512 3.538l-.061.16zm-.123 5.1962l.062.095-.093.064.031-.16zm-5.9052-8.5432l-.062.096zm1.66 11.6353l-.06.127zm-6.9201-6.8222l-.123.128zm-.184 9.1492l-.031.16.03-.16zm9.3202-12.4643l.06.096-.153-.064.092-.032zm-5.0141 8.6702l-.031.128.03-.127zm7.1052-6.4701l-.031.127.03-.127zm-.216 1.498l-.061.096zm.4 3.9521l-.092.064zM1.692 6.6238l-.031.159.03-.16zm20.6076 5.3231l-.123.064zm-.4-.223l-.184.032zm-6.4902 6.8212l-.03.096zm6.2142-6.1521v-.16zm1.507-2.1361q-.031.064-.031.128 0-.096.03-.128zm-1.23 3.411zM1.506 6.0179l-.03.127zM19.3465 17.525zm-.339-8.7342l-.123.032zm-.492-1.912l-.061.095zm-7.5952-1.8171l-.092.032zm3.076 1.275l-.031.127.03-.127zm-.43-.032l-.062.064.061-.064zM9.5954 19.183l-.03.127zm11.4423-8.6702zm0 0zm0 0zm0 0zm0 0zm0 0zm0 0zm0 0zm-5.3522 5.3231zm7.0132-3.539zm-2-1.083l-.06-.064zm-8.5503 2.9zm9.8433-1.275zm-9.2283-7.0122zm-.707.191zm0-.287zm3.9681.478zm-2.891-.095l-.062-.064zm6.4901 3.283zm2.89 0zm-4.92 7.8103zm4.92-6.9182zm-10.9802 9.5633zm1.507-14.8544zm-.184 0zm7.8432 3.92zm2.3071 1.2441q0-.255-.093-.415-.061-.159-.215-.286l-.03.414.215.096q.03.095 0 .159zm-2.4-.765l-.06-.064zm1.23 1.434l-.153-.032-.184-.287.061-.255-.277.192.154.19.03.097-.368.159.246.032q.061.064.123.095.092.032.123.032l.246-.223zm-.614-.574l-.123-.095-.216-.064-.092-.16-.123.128-.092.223.246.096q.184 0 .277.095zm-5.3822-3.474l-.123-.0641-.184-.095q-.123 0-.123.063l.03.192.216.127zm3.6911 6.79l.062-.383q0-.51-.37-1.084-.307-.574-.8-.924-.4-.383-1.106-.67l-1.23-.541-.462-.287-.6771-.255-.707-.223-1.138-.255-.37-.064q-.276 0-.43.064-.123.031-.092.223l.369.733q.277.51.523.701l.277.191v.192l.307.382.03.255q.124.096.185.096.154.095.4.478l.339.414.522.765.462.8291.215.637-.061.415.123.191-.123.191q-.093.096 0 .192l.215-.064.369-.16q.154 0 .523-.19l.677-.32.953-.382q.5841-.255.8301-.51l.123-.319q0-.223.062-.319z"/></svg>