<svg role="img" viewBox="0 0 24 24" xmlns="http://www.w3.org/2000/svg"><title>Disroot icon</title><path d="M18.8239 6.6555q.0923.1275 0 .255-.0923.032-.1538 0l-.1538-.2231-.369-.0956q-.0924-.0956 0-.255.0922-.1275.246-.0956.2768.1594.4306.4144zm4.4906 4.3351q.0308.0956.0308.1594l-.1538.2232v-.3507q.0615-.0319.123-.0319zM17.932 6.2411l.1538.255q-.123.2232-.246.287l-.0923.1274q-.0615-.1593-.0923-.3187-.0307 0-.0615-.032l-.123.1276-.5537-.1275q-.123-.1594.0615-.3507.1846-.1912.4306-.0956l.523.1275zm-1.138.6694L16.64 6.815l.123-.0637.0308.1594zM14.3332 5.285l-.1845.223-.1846-.223-.1537-.032.492-.0955.0308.1275zm3.814 12.2084zm5.7825-7.427q.123.0955.0308.478l-.1846.542-.1538.1912-.0307-.3825q0-.1275-.0308-.2231 0-.0956-.0307-.1913l-.3999.1913q.0308.0637.0308.1594.0307.0956.0615.1275l-.4306.0319.0307.1275.0923.0956-.1538.3506q-.0308.2869-.1538.3188l-.123-.1913-.3691.0956q-.123-.1275-.123-.2231l-.0923-.1275.1538-.1913q-.0616-.1275-.123-.1275l-.1539.0638-.1537.3825q-.2154 0-.2769.0637l.1846.255.6459.3507.0307.223q.123.032.1846.0957.0923.0637.123.0956-.0307.0638-.0615.1594-.0307.0638-.123.1275l-.2769.1912.0308.255q-.246.0956-.4306.3188l-.0923.3506q-.3383 0-.4306.0638l.0307.4782-.0922-.032q-.123-.1912-.246-.0955l.123.4144q-.0923 0-.1538.0319l-.0616.0638.123.223q.0308.1276.0308.1913-.1845.1594-.369.1913-.1539.0319-.2461.2231l.0307.3825q-.0923.2232-.1538.287-.3076 0-.4614.0636l-.1845.3507-.1538-.0638q-.123-.032-.1845 0l-.123.255q-.2769 0-.4.1275l-.246.223.0615-.2868q.0923-.255-.0923-.2869l-.123.0956-.0307.1594-.3076.1913-.0308.3506h-.5844l-.123.2231q-.0615.1913-.3076.287-.246.0955-.8612.0955-.6151 0-.769.0638-.1537 0-.2768.1594-.0922.1594-.2153.2231l-.492.1594-.1539.2869-.2153.1594q-.1538.0956-.4921.0956l-.3076.1593-.4614.1913-.3383-.032q-.1845-.0955-.4306-.0955h-.5536l-.1846-.1275-.369.0638-.1846.255-.2769-.1913-.2153-.223-.492-.032-.1846-.1594.2768-.3506.369-.51v-.3507l.4307-.4781v-.5419q0-.255.0923-.4462l.3383.0956q.123-.1275.123-.1913-.1845-.1594-.3383-.4144l-.3076-.4463-.369-.478-.2461-.4463-.2769-.4463-.2153-.542-.4613-.51-1.6917-2.4862-.3076-.542-.3076-.6056-.246-.1593q-.2769-.3507-.4614-.765l-.0923-.3826-.2768-.1275-.9535.1913q-.3383 0-.7382.1275l-.646.255-.7689.0956-.4306.1594q-.2768.0638-.4306-.0638l-.2153-.255-.3383.1275-.2768-.0956q0-.3188-.0616-.3826l-.2768-.3825Q.0923 7.7391 0 7.7073l.0307-.1594h.3076q-.0307-.0956-.0307-.2232v-.1593l.3076.1275q.1537-.0956.1845-.1594l.123-.255.246.0319.1846-.542-.0307-.2868.1538.0956.1538.1594q.1538-.0638.1845-.1275l.2769-.3507.2768.032-.0923-.2232-.1845-.2231-.2769-.0956q.1846-.287.7997-.4144l.9843-.0956.3383-.2231.7997-.1594 1.2303-.0637.4307-.0956q.246-.0956.492-.032l.4922-.0318q.4921-.1275.7074-.0638l.3999.0319.5536.0319.8305.1594.7382.0637.5229-.2232q.1845 0 .3998.255l.3076.2232h.646l.2152.255-.0307.1594.1845.51.123-.0638.2769-.3188.3076.4781-.3691-.1275q-.2153 0-.246.3188l.3075.0638.123.1594.1846-.0638q.1538-.0637.3075.0638.1846.0956.2461.2231l.1846.255h.3998q0-.0956.0308-.1275.0307-.0638.0615-.0956l.0615.3188h.123l.0923-.0956.0923.1594.0922-.255q.3999 0 .4614-.0637 0-.0956-.0615-.1594l-.123-.1594q0-.1594.246-.1275l.4306.1275.3076-.032.1846.1595.0615.1275q-.2769-.0638-.3691.0319-.0615.0638-.0308.2231l.2153.1913q0 .223.2153.478l.123-.1274.0308-.255.123.1594h.523q.1537 0 .246.3506l.0923.3188.123.0956.1538-.1594.4921.1594.0923-.1594.1538-.0638q.123-.0956.1538-.1594v-.1594l-.0615-.1594.4306.1275q.123-.1275.1538-.1912-.0616-.1594-.123-.1594l-.3077-.0638v-.1594l.0923-.2231.0923-.1913q.1538.0956.1845.1594l.1538.2231.2153-.0319.2153-.0319.769.6694.2153-.0319.2153.287.1845.0955q-.0922.1275 0 .287l.2153-.0957h.2154l.1845.3188.1846.3187q.246 0 .369.0638l.123.5738.3384.1912.2768.0956q0 .1594-.0615.255l.0615.3188.0923.1913-.0307.2231.123-.0638q.123-.1594.1845-.1912l.123-.0638zm-7.751-4.7177q.0923.0956 0 .2869-.0307.0638-.1845.0956-.0923-.0956 0-.2869.0307-.0638.1845-.0956zm6.3054 5.929q.0923.0955 0 .255l-.1538.0637-.0308-.2231q0-.0956.0308-.1275.0615-.0319.1538.0319zm-1.2919-1.562q.0616.0638.0616.3188-.123.0638-.2461.0319-.1538-.0956-.0615-.287.0615-.1593.246-.0636zm-8.7044-4.2395l-.1846.3507.0923-.255zm4.2445 12.3041l-.123-.1912.123-.0956q.1538.0319.123.223zm5.1366-4.7495q-.1845-.1275-.246-.255l.1845.1275zM9.5658 18.7046l.1537-.1594.1538-.0956zm13.2259-8.2558l-.0923.1912-.0308.0956-.0307-.2231.1538-.0638zm.1538 1.5619l-.0616.2869zm-2.1839-3.5064l.0923.1275-.123.032-.123-.0957.1537-.0638zm-5.5056 7.4909l-.123.0956zM14.61 5.253l-.0307.1594zm6.5515 3.5382l-.0615.1594zm-.123 5.1958l.0615.0956-.0923.0638.0308-.1594zm-5.9056-8.5428l-.0615.0956zm1.661 11.6347l-.0616.1275zm-6.9206-6.8214l-.123.1275zm-.1845 9.1484l-.0308.1594zm9.3196-12.4635l.0615.0956-.1537-.0638.0922-.0319zm-5.0135 8.6702l-.0308.1275zm7.105-6.4708l-.0307.1275zm-.2152 1.4982l-.0615.0956zm.3998 3.9526l-.0923.0638zM1.6917 6.6236l-.0307.1594zm20.6078 5.3233l-.123.0637zm-.3998-.2231l-.1846.0319zm-6.49 6.8214l-.0307.0956zm6.2132-6.152v-.1594zm1.5071-2.1357q-.0307.0637-.0307.1275 0-.0956.0307-.1275zm-1.2303 3.4107zM1.5072 6.018l-.0308.1275zm17.8396 11.5072zm-.3384-8.734l-.123.0319zm-.492-1.9125l-.0616.0956zm-7.5973-1.817l-.0923.032zm3.0758 1.275l-.0308.1276zm-.4306-.0318l-.0615.0637zM9.5965 19.1827l-.0307.1275zm11.442-8.6702zm0 0zm0 0zm0 0zm0 0zm0 0zm0 0zm0 0zm-5.352 5.3232zm7.0129-3.5382zM20.7 11.2137l-.0615-.0638zm-8.5507 2.9008zm9.8426-1.275zm-9.2274-7.0128zm-.7075.1913zm0-.287zm3.9678.4782zm-2.8912-.0956l-.0615-.0638zm6.4899 3.2833zm2.8912 0zm-4.9212 7.8095zm4.9212-6.917zM11.5343 19.852zM13.0414 4.998zm-.1845 0zM20.7 8.9187zm2.3069 1.2432q0-.255-.0923-.4144-.0615-.1594-.2153-.2869l-.0308.4144.2154.0956q.0307.0956 0 .1594l.123.0319zm-2.3992-.765l-.0615-.0637zm1.2304 1.4344l-.1538-.032-.1846-.2868.0615-.255-.2768.1912.1538.1913.0308.0956-.3691.1594.246.0319q.0615.0637.123.0956.0923.0319.1231.0319l.246-.2232zm-.6152-.5738l-.123-.0956-.2153-.0638-.0923-.1594-.123.1275-.0923.2231.246.0956q.1846 0 .2769.0956zM15.8404 6.783l-.123-.0638-.1846-.0956q-.123 0-.123.0638l.0307.1913.2153.1275.1846-.2231zm3.691 6.7896l.0614-.3825q0-.51-.369-1.0838-.3076-.5738-.7998-.9244-.3998-.3825-1.1072-.6694l-1.2304-.5419-.4613-.2869-.6767-.255-.7074-.2231-1.138-.255-.3692-.0638q-.2768 0-.4306.0638-.123.0319-.0923.2231l.3691.7332q.2769.51.523.7012l.2767.1913v.1912l.3076.3826.0308.255q.123.0956.1845.0956.1538.0956.3999.4781l.3383.4144.5229.765.4614.8288.2153.6375-.0615.4144.123.1912-.123.1913q-.0923.0956 0 .1912l.2153-.0637.369-.1593q.1538 0 .523-.1913l.6766-.3187.9535-.3826q.5844-.255.8305-.51l.123-.3187q0-.2232.0615-.3188z"/></svg>