<svg role="img" viewBox="0 0 24 24" xmlns="http://www.w3.org/2000/svg"><title>Disroot icon</title><path d="M18.8239 6.65552q.09226.1275 0 .25501-.09228.0319-.1538 0l-.15379-.22314-.3691-.0956q-.09227-.0956 0-.255.09228-.1275.24607-.0956.27682.15938.43061.41438zm4.49064 4.33512q.03075.0956.03075.15938l-.15378.22313v-.35064q.0615-.0319.12303-.0319zm-5.38263-4.7495l.15379.255q-.12303.22313-.24606.28688l-.09228.12751q-.06151-.15938-.09227-.31876-.03074 0-.06151-.0319l-.12303.12751-.55364-.1275q-.12304-.15938.0615-.35064.18455-.19126.43062-.0956l.52288.1275zm-1.13804.6694l-.1538-.0956.12304-.0637.03075.15937zm-2.46064-1.62568l-.18454.22313-.18455-.22313-.15379-.0319.49213-.0956.03074.1275zm3.81399 12.20846zm5.7825-7.42708q.12302.0956.03073.47814l-.18455.5419-.15378.19124-.03075-.3825q0-.1275-.03075-.22314 0-.0956-.03075-.19125l-.39985.19125q.03075.0637.03075.15938.03074.0956.0615.1275l-.4306.0319.03074.1275.09227.0956-.1538.35064q-.03073.28688-.15378.31875l-.12303-.19125-.3691.0956q-.12303-.1275-.12303-.22312l-.09227-.1275.15379-.19126q-.06151-.1275-.12303-.1275l-.15379.0638-.15379.3825q-.2153 0-.27682.0637l.18455.255.64591.35064.03075.22313q.12303.0319.18455.0956.09227.0637.12303.0956-.03075.0638-.06152.15938-.03074.0638-.12303.12751l-.27682.19125.03075.25501q-.24606.0956-.43061.31876l-.09228.35064q-.33833 0-.4306.0638l.03073.47813-.09227-.0319q-.12303-.19126-.24606-.0956l.12303.41438q-.09227 0-.15379.0319l-.06152.0638.12304.22313q.03075.12751.03075.19126-.18455.15938-.3691.19125-.15379.0319-.24606.22313l.03074.38252q-.09227.22313-.15379.28688-.30758 0-.46137.0637l-.18455.35063-.1538-.0638q-.12302-.0319-.18454 0l-.12303.25501q-.27681 0-.39984.1275l-.24607.22313.06152-.28688q.09226-.255-.09228-.28688l-.12304.0956-.03074.15937-.30758.19126-.03075.35064h-.5844l-.12302.22312q-.06152.19126-.30758.2869-.24607.0956-.86123.0956-.61515 0-.76894.0638-.1538 0-.27683.15937-.09227.15938-.2153.22313l-.49212.15938-.1538.28688-.2153.15938q-.15379.0956-.49213.0956l-.30758.15938-.46137.19125-.33833-.0319q-.18455-.0956-.43061-.0956h-.55364l-.18455-.1275-.3691.0638-.18455.25501-.27682-.19126-.2153-.22313-.49213-.0319-.18455-.15939.27683-.35063.36909-.51002v-.35063l.43061-.47814v-.54189q0-.255.09227-.44626l.33833.0956q.12304-.1275.12304-.19126-.18455-.15938-.33833-.41439l-.30758-.44626-.3691-.47813-.24606-.44626-.27683-.44627-.2153-.54189-.46137-.51-1.69169-2.48633-.30758-.54189-.30758-.60564-.24606-.15938q-.27682-.35064-.46137-.76502l-.09227-.3825-.27683-.12752-.95349.19126q-.33834 0-.73819.1275l-.64592.25501-.76894.0956-.4306.15937q-.27684.0638-.43062-.0638l-.2153-.255-.33835.1275-.27682-.0956q0-.31876-.06152-.3825l-.27682-.38252Q.09227 7.73913 0 7.70725l.03074-.15938h.30758q-.03074-.0956-.03074-.22313v-.15938l.30758.12751q.1538-.0956.18455-.15938l.12303-.255.24606.0319.18455-.5419-.03074-.28689.1538.0956.15378.15938q.1538-.0638.18454-.1275l.27683-.35064.27682.0319-.09227-.22314-.18455-.22313-.27682-.0956q.18454-.28688.7997-.41438l.98425-.0956.33834-.22313.79972-.15938 1.2303-.0637.43062-.0956q.24607-.0956.49213-.0319l.49212-.0319q.49214-.1275.70743-.0638l.39986.0319.55364.0319.83047.15938.73818.0637.52289-.22313q.18455 0 .39985.25501l.30758.22313h.64592l.2153.255-.03074.15938.18454.51002.12304-.0638.27683-.31876.30757.47813-.3691-.1275q-.2153 0-.24605.31876l.30758.0638.12302.15938.18455-.0638q.15379-.0637.30758.0638.18455.0956.24606.22313l.18455.25501h.39985q0-.0956.03075-.1275.03074-.0638.06151-.0956l.06151.31876h.12304l.09227-.0956.09227.15938.09227-.255q.39986 0 .46137-.0637 0-.0956-.06151-.15939l-.12304-.15938q0-.15938.24606-.1275l.43062.1275.30758-.0319.18454.15938.06152.1275q-.27682-.0638-.3691.0319-.0615.0638-.03074.22313l.2153.19126q0 .22313.2153.47813l.12304-.1275.03075-.255.12303.15937h.52288q.1538 0 .24607.35063l.09227.31876.12303.0956.15379-.15938.49212.15938.09228-.15938.15379-.0638q.12303-.0956.1538-.15938v-.15938l-.06153-.15938.43062.12751q.12303-.1275.15378-.19126-.0615-.15938-.12303-.15938l-.30758-.0638v-.15938l.09228-.22313.09227-.19126q.15379.0956.18455.1594l.1538.22311.21529-.0319.2153-.0319.76895.6694.2153-.0319.21531.28688.18456.0956q-.09228.1275 0 .2869l.2153-.0956h.2153l.18455.31874.18455.31876q.24606 0 .3691.0638l.12303.57376.33833.19126.27683.0956q0 .15938-.06152.25501l.06152.31876.09227.19126-.03075.22313.12303-.0638q.12302-.15937.18455-.19125l.12303-.0638zM16.1787 5.34861q.09227.0956 0 .28688-.03075.0638-.18455.0956-.09228-.0956 0-.28688.03075-.0638.18455-.0956zm6.30537 5.92891q.09228.0956 0 .25501l-.15379.0638-.03075-.22313q0-.0956.03075-.1275.06152-.0319.15379.0319zm-1.29183-1.5619q.06152.0638.06152.31874-.12304.0638-.24607.0319-.15378-.0956-.0615-.28688.0615-.15938.24605-.0637zm-8.7045-4.2395l-.18454.35063.09228-.255zm4.2446 12.30408l-.12303-.19125.12303-.0956q.1538.0319.12303.22313zm5.13658-4.7495q-.18456-.1275-.24607-.255l.18455.1275zM9.56575 18.7046l.1538-.15938.15378-.0956zm13.2259-8.25585l-.09225.19125-.03075.0956-.03074-.22313.15378-.0638zm.1538 1.56192l-.0615.28688zm-2.18382-3.50635l.09228.12751-.12303.0319-.12303-.0956.15378-.0638zm-5.50566 7.49083l-.12303.0956zm-.64591-10.74217l-.03075.15938zM21.1615 8.7912l-.06152.1594zm-.12304 5.19577l.06151.0956-.09227.0638.03075-.15938zm-5.90552-8.54273l-.06151.0956zm1.66093 11.6347l-.06152.1275zm-6.92054-6.82145l-.12302.12751zm-.18455 9.14838l-.03074.15938zM19.00844 6.9424l.0615.0956-.15378-.0638.09227-.0319zm-5.01354 8.67024l-.03075.1275zm7.10507-6.4708l-.03075.1275zm-.2153 1.49816l-.06151.0956zm.39986 3.95261l-.09228.0638zM1.69173 6.62364l-.03076.15938zm20.6078 5.32328l-.12302.0637zm-.39985-.22314l-.18455.0319zm-6.48992 6.82144l-.03075.0956zm6.2131-6.15204v-.15938zM23.13 10.2575q-.03074.0637-.03074.1275 0-.0956.03074-.1275zm-1.23032 3.41072zM1.50718 6.018l-.03075.12751zm17.8396 11.5072zm-.33834-8.734l-.12304.0319zm-.49213-1.91255l-.0615.0956zm-7.5972-1.81692l-.09228.0319zm3.07579 1.27503l-.03075.12751zm-.43061-.0319l-.06151.0637zM9.5965 19.18271l-.03075.12751zm11.44195-8.67024zm0 0zm0 0zm0 0zm0 0zm0 0zm0 0zm0 0zm-5.35188 5.32327zm7.01281-3.53822zm-1.99927-1.08378l-.0615-.0638zm-8.5507 2.90071zm9.84253-1.27503zm-9.22737-7.0127zm-.70743.19125zm0-.28688zm3.96776.47814zm-2.89124-.0956l-.0615-.0638zm6.48993 3.28322zm2.89125 0zm-4.92128 7.8096zm4.92128-6.91708zm-10.98059 9.56277zM13.0414 4.99798zm-.18455 0zm7.84327 3.92073zm2.30685 1.24316q0-.255-.09228-.41439-.0615-.15938-.2153-.28688l-.03075.41438.21531.0956q.03075.0956 0 .15938l.12304.0319zm-2.39912-.76502l-.06151-.0637zm1.23032 1.43441l-.1538-.0319-.18454-.28688.06152-.255-.27682.19125.15378.19125.03075.0956-.36909.15938.24607.0319q.0615.0637.12302.0956.09227.0319.12304.0319l.24607-.22313zm-.61516-.57377l-.12304-.0956-.2153-.0638-.09227-.15938-.12303.1275-.09228.22313.24607.0956q.18455 0 .27682.0956zm-5.38264-3.47446l-.12303-.0638-.18455-.0956q-.12303 0-.12303.0638l.03075.19125.2153.12751.18455-.22313zm3.69096 6.78956l.0615-.3825q0-.51003-.36909-1.08379-.30758-.57377-.7997-.9244-.39986-.3825-1.10729-.6694l-1.23032-.54189-.46137-.28688-.67667-.255-.70743-.22314-1.13805-.255-.3691-.0638q-.27681 0-.4306.0638-.12304.0319-.09227.22313l.3691.73314q.27682.51002.52287.70127l.27683.19126v.19125l.30758.38251.03075.25501q.12303.0956.18455.0956.15379.0956.39985.47814l.33834.41438.52289.76502.46136.82877.2153.63752-.0615.4144.12302.19124-.12302.19126q-.09228.0956 0 .19125l.2153-.0637.3691-.15938q.15378 0 .52288-.19125l.67667-.31876.9535-.3825q.5844-.25502.83047-.51002l.12302-.31876q0-.22313.06152-.31876z"/></svg>