<svg aria-labelledby="simpleicons-django-icon" role="img" xmlns="http://www.w3.org/2000/svg" viewBox="0 0 24 24"><title id="simpleicons-django-icon">Django icon</title><path d="M3.212 7.982H4.47v5.822c-.645.123-1.12.172-1.634.172C1.3 13.976.5 13.282.5 11.95c0-1.282.85-2.115 2.164-2.115.204 0 .36.016.547.065.002 0 .002-1.918.002-1.918zm0 2.93c-.147-.048-.27-.064-.425-.064-.637 0-1.005.392-1.005 1.078 0 .67.35 1.037.996 1.037.14 0 .253-.008.433-.033v-2.017z"/><path d="M6.47 9.925v2.916c0 1.006-.073 1.488-.293 1.904-.204.4-.474.653-1.03.93L3.98 15.12c.555-.26.825-.49.996-.84.18-.36.237-.777.237-1.87V9.924H6.47zM5.214 7.99H6.47v1.29H5.214V7.99zM7.23 10.21c.555-.26 1.086-.376 1.666-.376.645 0 1.07.17 1.258.506.106.188.14.433.14.956v2.556c-.565.082-1.275.14-1.798.14-1.054 0-1.527-.37-1.527-1.185 0-.882.628-1.29 2.172-1.42v-.28c0-.228-.114-.31-.433-.31-.467 0-.99.132-1.48.385v-.972zm1.97 2.002c-.834.082-1.104.212-1.104.54 0 .244.155.358.498.358.188 0 .36-.016.604-.057v-.84zM10.906 10.12c.743-.195 1.356-.285 1.977-.285.645 0 1.11.147 1.39.433.26.27.342.563.342 1.193v2.468h-1.258V11.51c0-.482-.163-.662-.613-.662-.172 0-.327.016-.58.09v2.99h-1.258V10.12zM15.103 14.613c.44.23.882.335 1.348.335.826 0 1.177-.335 1.177-1.135v-.025c-.245.122-.49.172-.817.172-1.103 0-1.805-.727-1.805-1.88 0-1.428 1.037-2.237 2.875-2.237.54 0 1.037.057 1.642.18l-.43.907c-.336-.065-.028-.01-.28-.033v.13l.015.532.008.685c.008.17.008.343.016.515v.343c0 1.078-.09 1.585-.358 2-.392.614-1.07.916-2.034.916-.49 0-.915-.075-1.356-.246v-1.16zm2.5-3.757h-.132c-.244-.008-.53.057-.726.18-.302.172-.457.482-.457.923 0 .628.31.987.866.987.172 0 .31-.033.474-.082V12.432c0-.147-.008-.31-.008-.482l-.01-.58-.007-.417v-.097zM21.474 9.818c1.258 0 2.026.792 2.026 2.075 0 1.315-.8 2.14-2.075 2.14-1.258 0-2.034-.792-2.034-2.066.002-1.324.802-2.15 2.084-2.15zm-.024 3.202c.482 0 .768-.4.768-1.095 0-.686-.278-1.094-.76-1.094-.498 0-.784.4-.784 1.095s.286 1.095.776 1.095z"/></svg>