<?xml version="1.0" encoding="UTF-8"?>
<svg id="Layer_1" data-name="Layer 1" xmlns="http://www.w3.org/2000/svg" viewBox="0 0 24 4.4984131">
  <g id="Logo_Letters" data-name="Logo Letters">
    <rect x="12" width=".75" height="4.4983521"/>
    <path d="m23.25.000061v3.3737793c0,.2068481-.1679077.3748169-.374939.3748169h-2.2501221c-.2070312,0-.374939-.1679688-.374939-.3748169V.000061h-.750061v3.5611572c0,.5175171.4197998.9371338.9375.9371338h2.625061c.5177002,0,.9375-.4196167.9375-.9371338V.000061h-.75Z"/>
    <path d="m5.0625.000061H.9375C.4196777.000061,0,.4195557,0,.9371338v3.5609741h.750061V1.1245117c0-.2070923.1678467-.3748779.374939-.3748779h1.500061v3.7487183h.7498779V.7496338h1.500061c.2070312,0,.375061.1677856.375061.3748779v3.3735962h.749939V.9371338C6,.4195557,5.5803223.000061,5.0625.000061Z"/>
    <path d="m7.125061.9372559v2.6240234c0,.5175171.4196777.9371338.9375.9371338h2.812561v-.7497559h-2.625061c-.2072144,0-.375061-.1677246-.375061-.3748169v-.7496338h3.0001221v-.7497559h-3.0001221v-.7497559c0-.2071533.1678467-.374939.375061-.374939h2.625061V.0001221h-2.812561C7.5447388.0001221,7.125061.4196167,7.125061.9372559Z"/>
    <path d="m18.375.5623169C18.375.2518311,18.1231079.0001221,17.812439.0001221h-3.937439v.7496338h3.3791504l-3.1917114,2.7672119.0005493.0003662c-.1151123.1030273-.1879883.2522583-.1879883.4187622,0,.3106689.2518921.5623169.5623779.5623169h3.9376221v-.7497559h-3.3808594l3.1660156-2.7449951c.1306152-.1029053.2148438-.262085.2148438-.4413452Z"/>
  </g>
</svg>