<svg role="img" viewBox="0 0 24 24" xmlns="http://www.w3.org/2000/svg"><title>Docker Compose icon</title><path d="M14.143 23.661c-1.27-.817-1.685-1.117-1.834-1.32-.083-.112-.173-.65-.173-1.048 0-.304.032-.358.246-.434.065-.022.115-.055.115-.07 0-.014-.09-.079-.198-.14a2.496 2.496 0 0 1-.391-.286c-.108-.094-.268-.235-.358-.31a1.136 1.136 0 0 1-.213-.229c-.08-.152-.105-.086-.105.282 0 .308-.015.402-.094.604a1.497 1.497 0 0 1-.409.626 2.566 2.566 0 0 1-1.052.604c-.257.072-1.306.087-1.331.018-.007-.025-.062-.047-.12-.047-.17 0-.9-.344-1.301-.615-.25-.166-1.017-.806-1.205-1.009-.108-.112-.108-.112.008-.112.086 0 .191.058.412.232.59.452 1.027.72 1.46.893.778.307 1.43.394 1.9.25.495-.149.91-.442 1.139-.803.05-.08.115-.254.14-.384.066-.307.012-.738-.198-1.562-.311-1.23-.257-1.794.217-2.246.213-.199.568-.394.72-.394.1 0 .112.01.112.112 0 .072-.04.166-.113.257-.358.448-.473 1.323-.278 2.105.083.347.17.517.495 1.001.293.438.416.579.698.803.207.166.207.166.633.022.564-.195.893-.224 1.194-.105.253.101.98.42 1.074.474.05.029.13.007.369-.109.658-.314 1.037-.723 1.269-1.36.08-.224.09-.933.014-1.157a2.314 2.314 0 0 0-.658-1.012c-.325-.308-.741-.55-1.244-.727-.242-.087-.788-.09-.94-.007-.156.083-.33.278-.398.437-.054.13-.054.145.022.264.083.138.304.304.398.304.08 0 .25-.203.25-.297a.333.333 0 0 0-.073-.162.422.422 0 0 1-.073-.221c0-.127 0-.127.275-.105.662.05 1.403.633 1.617 1.27.126.368.054 1.03-.138 1.316-.423.622-1.193.98-2.025.936-.332-.014-.416-.036-.669-.148-.557-.25-1.045-.86-1.16-1.46-.055-.28-.026-.88.057-1.183.069-.254.22-.6.279-.637.021-.014.05-.126.058-.25.014-.22.014-.22.148-.21.13.012.13.012.155.344.094 1.208.908 1.96 2.322 2.145.354.047.362.047.423-.033.105-.13.156-.452.101-.65-.068-.261-.09-.283-.347-.366a2.181 2.181 0 0 1-.578-.282c-.073-.043-.084-.04-.138.062-.072.144-.228.22-.445.22-.31 0-.408-.036-.607-.231-.17-.167-.192-.203-.214-.39-.043-.34.098-.739.311-.89.04-.03.07-.09.07-.156 0-.094.01-.105.122-.105.069 0 .134.015.145.033.047.072.369-.047.564-.21.336-.282 1.833-1.772 2.18-2.173.185-.21.34-.387.355-.398.025-.018.134-.17.434-.608.658-.955.955-2.08.777-2.936-.1-.481-.336-1.118-.495-1.346a.345.345 0 0 1-.069-.13c0-.021-.01-.043-.025-.05-.018-.004-.105-.123-.199-.264a5.013 5.013 0 0 0-.267-.362 14.393 14.393 0 0 1-.355-.416c-.14-.17-.318-.372-.39-.452a3.473 3.473 0 0 1-.214-.253c-.047-.058-.094-.116-.105-.127-.228-.217-.712-.944-.78-1.182-.127-.43.006-.944.317-1.226.076-.069.12-.123.098-.123a.462.462 0 0 1-.155-.09c-.185-.142-.33-.181-.467-.123-.329.13-.655.434-.814.752-.086.177-.097.242-.097.546.003.423.061.64.184.687a6.29 6.29 0 0 1 1.769 1.092c.839.756 1.23 1.429 1.377 2.362.08.488.051 1.403-.05 1.782-.09.326-.286.825-.376.955a.399.399 0 0 0-.065.12c0 .014-.066.122-.145.238-.08.116-.145.22-.145.235 0 .011-.021.04-.043.065a3.211 3.211 0 0 0-.174.203 6.165 6.165 0 0 1-.904.86c-.17.134-.325.257-.347.279a3.167 3.167 0 0 1-.137.108 2.53 2.53 0 0 0-.178.141c-.043.037-.195.152-.332.257-.427.315-1.013.991-1.107 1.277-.032.101-.054.116-.163.116-.115 0-.123-.008-.123-.127 0-.477.586-1.407 1.183-1.884.094-.076.199-.163.231-.195.033-.03.145-.12.25-.2.626-.473 1.117-.969 1.432-1.435.42-.622.655-1.262.69-1.873.062-1.064-.27-1.87-1.099-2.69a4.223 4.223 0 0 0-.3-.276 9.304 9.304 0 0 1-.224-.188.519.519 0 0 0-.141-.101 1.77 1.77 0 0 1-.34-.21 3.328 3.328 0 0 0-.231-.13 4.976 4.976 0 0 1-.254-.134c-.159-.087-.47-.213-.52-.213-.033 0-.065-.015-.076-.03-.018-.028-.26-.097-.655-.187-1.826-.423-3.793.184-4.773 1.468a2.53 2.53 0 0 1-.163.195c-.03.033-.087.12-.123.192-.04.072-.083.134-.101.134-.015 0-.03.022-.03.047a.97.97 0 0 1-.09.22c-.108.214-.238.594-.34.973-.195.756-.115 1.544.239 2.304.21.452.412.748 1.103 1.613.8 1.005.951 1.345.926 2.094-.011.369-.018.416-.138.65-.173.344-.17.34-.032.207a2.136 2.136 0 0 1 1.493-.622c.311 0 .311 0 .311.123 0 .119 0 .119-.282.137a1.2 1.2 0 0 0-.517.127c-.517.246-.904.629-1.045 1.045-.083.235-.083.25.054.936.174.858.188 1.458.055 1.935-.051.185-.315.46-.543.564-.405.188-1.143.25-1.656.141-.38-.08-1.063-.372-1.273-.542a.337.337 0 0 0-.09-.058 9.789 9.789 0 0 1-.398-.253c-.514-.34-.897-.503-1.226-.528-.25-.018-.282-.015-.536.108-.329.16-.585.424-.759.778a.88.88 0 0 0-.12.499c0 .217.019.29.124.499.22.434.676.817.983.825.087.003.141-.026.22-.113.055-.061.102-.144.102-.18 0-.04-.134-.192-.322-.362-.372-.34-.437-.452-.437-.763 0-.271.065-.398.26-.506.12-.069.185-.08.42-.069.227.01.325.036.524.134.199.097.242.134.242.21 0 .047-.007.086-.014.086a3.09 3.09 0 0 1-.257-.115c-.344-.16-.557-.174-.738-.055-.318.214-.22.54.275.912.326.242.42.383.39.593-.04.285-.158.445-.404.528-.362.126-.843-.05-1.205-.441-.535-.586-.647-1.237-.325-1.946.087-.195.474-.611.673-.727.423-.25.962-.3 1.475-.141.25.076.835.372.973.492.116.097.835.484 1.11.593.441.177.64.21 1.096.188.343-.015.416-.029.615-.13.38-.192.491-.405.491-.926.004-.315-.075-1.052-.115-1.089-.011-.01-.17.055-.355.145-.828.394-1.182.528-1.551.582a2.115 2.115 0 0 0-.271.055c-.239.065-1.252.09-1.508.036a4.463 4.463 0 0 1-.753-.206c-.292-.123-.65-.311-.65-.34 0-.018-.019-.033-.037-.033-.1 0-.513-.437-.622-.658-.17-.347-.22-.615-.195-1.056.05-.872.279-1.515.84-2.394.382-.59.44-.796.32-1.085-.118-.282-.589-.59-1.138-.741-.644-.174-.857-.413-.93-1.035-.025-.22.04-.585.138-.773.076-.152.253-.311.38-.344.061-.014.086-.047.086-.105 0-.043.022-.101.047-.123.08-.065.76-.307 1.429-.51.535-.162.654-.184.806-.166.2.025.81.239 1.219.42.264.119.264.119.246.466-.007.192-.018.517-.018.72-.004.365-.007.38-.105.47-.058.054-.25.173-.427.267-.846.445-.777.373-.636.648.1.195.13.3.144.517.022.354-.032.513-.383 1.16-.492.89-.604 1.26-.579 1.838.011.293.03.358.138.564.474.886 2.061 1.088 3.341.427.489-.254 1.129-.814 1.262-1.107.062-.13.076-.239.076-.51.004-.325-.003-.358-.13-.615-.166-.332-.506-.784-1.157-1.54-.702-.814-.908-1.161-1.118-1.884-.14-.492-.173-1.078-.094-1.66.055-.37.16-.77.246-.926a.313.313 0 0 0 .033-.116c0-.058.336-.723.409-.817a.84.84 0 0 0 .09-.145c.065-.126.434-.542.647-.73.272-.235.322-.275.441-.333a.922.922 0 0 0 .16-.108c.08-.084.701-.37 1.02-.474a6.178 6.178 0 0 1 3.363-.101c.59.148.531.159.434-.087-.113-.271-.16-.803-.087-1.01.025-.075.05-.162.054-.19.018-.095.268-.438.365-.5a.822.822 0 0 0 .145-.108c.058-.055.39-.178.564-.21.072-.015.134-.04.134-.054 0-.03-.166-.141-.64-.445-.214-.134-.412-.315-.445-.405-.025-.069-.018-.192.054-.926a3.08 3.08 0 0 1 .177-.734c.084-.203.337-.29 1.252-.423.148-.022.44-.044.654-.047.333-.004.402.007.568.083.188.09.188.09.325-.04.467-.448 1.234-.412 1.704.08.21.224.488.698.568.973.137.459-.008.98-.38 1.377-.123.134-.192.239-.203.326a1.073 1.073 0 0 1-.047.177c-.05.094-.774.333-1.508.492-.238.05-.502.112-.586.134a.995.995 0 0 1-.31.014c-.149-.022-.174-.014-.377.138-.119.086-.253.21-.296.267-.181.253-.239.666-.127.879.098.188.503.636 1.244 1.37 1.01 1.002 1.403 1.56 1.718 2.423.242.666.271 1.545.076 2.351a5.187 5.187 0 0 1-.246.651c-.083.192-.423.76-.48.814a1.69 1.69 0 0 0-.153.199c-.137.198-.29.361-.336.361-.022 0-.036.026-.036.058 0 .069-1.056 1.132-1.631 1.646-.21.184-.564.488-.785.665-.22.18-.401.336-.401.354-.004.015.057.026.133.026.076 0 .26.032.413.072.886.231 1.703.864 2 1.548.04.083.086.152.104.155.76.047 1.631-.177 2.04-.528.145-.126.405-.448.506-.625.073-.13-.018-.134-.322-.011-.878.347-.896.35-1.052.264a3.025 3.025 0 0 0-.282-.13c-.199-.08-.358-.149-.604-.26a2.288 2.288 0 0 0-.202-.088c-.011 0-.134-.065-.275-.148-.315-.18-.322-.191-.351-1.049-.029-.716-.04-.683.25-.737.093-.018.133-.044.133-.09 0-.037.08-.185.174-.333.354-.543.832-.818 1.544-.9.633-.07 1.262.151 1.765.618.242.227.285.253.56.325.3.08.3.08.297.864 0 .43.007.88.01.998.015.257-.082.857-.187 1.15-.178.507-.47.876-.959 1.215-.665.46-1.685.774-2.636.814-.174.007-.33.022-.34.036-.01.011-.054.105-.09.21-.123.358-.54.893-.894 1.16a2.86 2.86 0 0 1-.51.283c-.159.065-.285.13-.282.148.008.015.264.152.572.308.56.282.56.282.55.911-.008.394-.026.65-.051.68-.087.108-1.678 1.03-1.801 1.049-.112.014-.192-.03-.67-.337zm.56-.539c0-.484 0-.484-.242-.625a35.17 35.17 0 0 0-.951-.514 15.11 15.11 0 0 1-.915-.517c-.112-.08-.217-.134-.231-.12-.011.012-.008.189.014.391.033.34.044.373.141.452.188.149 2.112 1.418 2.16 1.422.014 0 .024-.22.024-.489zm.543.315c.134-.108.412-.278.8-.488.13-.072.256-.152.274-.177.043-.055.137-.818.105-.85-.018-.022-1.01.463-1.251.611-.109.065-.109.065-.109.535 0 .257.01.47.029.47a.671.671 0 0 0 .152-.1zm.329-1.595c.416-.21.416-.21.253-.285-.145-.066-.513-.235-.853-.387a18.21 18.21 0 0 1-.875-.438c-.26-.137-.26-.137-.876.058-.34.108-.618.206-.618.217 0 .032.52.318 1.248.683.397.2.788.402.868.449.144.09.144.09.289 0 .08-.047.333-.181.564-.297zm-1.06-2.068a2.26 2.26 0 0 0 .416-.141c.224-.105.532-.34.492-.376a2.767 2.767 0 0 0-.427-.076 4.19 4.19 0 0 1-.567-.109 1.248 1.248 0 0 0-.207-.054c-.072 0-.712-.326-.712-.362 0-.021-.018-.036-.04-.036-.021 0-.105-.061-.184-.134-.293-.278-.51-.817-.557-1.392-.015-.156-.036-.282-.054-.282-.044 0-.206.38-.272.622-.065.257-.072.745-.01.99.072.301.25.598.52.865.481.481.926.615 1.602.485zm3.508-.872c1.024-.242 1.928-.683 2.38-1.157.622-.647.824-1.783.488-2.763-.514-1.5-2.278-2.032-3.276-.99-.203.213-.25.31-.134.274.032-.01.173-.043.307-.076a2.2 2.2 0 0 0 .38-.127c.192-.104.723-.1 1.002.004.473.177.878.619 1.038 1.128.115.377.112 1.096-.008 1.436-.08.224-.224.51-.307.604l-.16.192c-.375.448-1.189.76-2.006.76-.275 0-.282.003-.26.082.01.044.021.232.021.413 0 .383-.05.361.535.22zM7.02 18.136c.828-.145 1.417-.333 1.916-.612.326-.177.326-.177.326-.546 0-.336.01-.387.108-.59.112-.22.112-.22-.162.004-.348.282-.55.42-.626.42-.033 0-.062.014-.062.029 0 .018-.061.054-.133.087a4.21 4.21 0 0 1-1.805.303c-1.407-.083-2.13-.835-1.974-2.057.072-.557.246-.977.759-1.823.358-.593.401-.738.297-1.06-.113-.368-.094-.358-.442-.216-.21.086-.358.126-.484.126-.185 0-.185 0-.101.101.227.272.253.897.05 1.31a13.2 13.2 0 0 1-.304.564c-.542.943-.734 2.108-.459 2.759.105.242.492.63.817.814.3.173.8.358 1.085.401.304.047.886.04 1.194-.014zm3.76-.337c.048-.394.261-.944.474-1.23.098-.13.105-.155.04-.155-.105 0-.412.326-.52.55-.138.282-.17.466-.138.792.033.318.109.34.145.043zm4.792-.333c0-.072-.43-.412-.669-.528-.264-.126-.488-.184-.488-.13 0 .062.481.402.774.546.282.145.383.174.383.112zm3.826-1.055a2.08 2.08 0 0 1 .315-.105c.072 0 .112-.09.163-.344a.736.736 0 0 0-.015-.416c-.09-.333-.1-.361-.126-.361-.011 0-.232.072-.492.159-.47.162-.47.162-.481.741-.01.655-.087.615.636.326zm-.943-.351c.003-.532.003-.532-.29-.619-.31-.094-.9-.3-1.103-.387-.119-.05-.119-.05-.101.138.01.105.029.318.04.47.022.271.025.278.155.362.16.104 1.183.56 1.277.567.01.004.022-.235.022-.531zm.448-1.006c.206-.068.43-.144.495-.166.062-.022.116-.054.116-.069 0-.05-.329-.314-.517-.412-.195-.101-.195-.101-.409-.043-.444.119-.618.162-.9.224-.517.116-.517.101-.054.25.318.1.712.256.89.347l.379-.13zm-15.12-3.287c0-.007-.101-.072-.228-.14-.405-.229-.401-.218-.488-1.144-.029-.307-.029-.307-.116-.126-.072.144-.09.238-.09.47 0 .477.155.68.65.86.297.109.272.102.272.08zm2.63-.871c.19-.123.19-.123.19-.557 0-.434 0-.434-.097-.395a34.93 34.93 0 0 0-.774.326c-.372.155-.687.286-.701.286-.018 0-.062.025-.098.061-.058.05-.065.12-.065.579 0 .524 0 .524.676.173a15.3 15.3 0 0 0 .868-.473zm-1.86-.25c-.007-.018-.123-.087-.256-.152-.134-.061-.38-.18-.543-.26-.304-.148-.304-.148-.278.275.014.235.04.463.058.51a.502.502 0 0 0 .184.17c.879.52.803.52.828-.019.011-.267.015-.502.007-.524zm.503-.51c.163-.072.503-.21.752-.31.25-.099.467-.189.485-.2.018-.014-.098-.068-.253-.126-.156-.062-.366-.138-.467-.178a1.138 1.138 0 0 0-.307-.068c-.123-.004-1.52.426-1.52.466 0 .011.225.138.5.282.271.141.499.26.503.26a3.73 3.73 0 0 0 .307-.126zm12.95-6.828c.615-.166.582-.137.655-.55.036-.198.08-.404.094-.466.018-.058.036-.184.047-.278.018-.188.003-.2-.177-.141-.123.04-.557.116-1.244.22-.268.04-.5.087-.514.102-.014.014-.05.31-.083.658-.03.347-.062.658-.069.69-.01.051.05.044.463-.04.26-.053.633-.14.828-.195zm-1.674.062c0-.098.105-.99.126-1.114.03-.134.109-.072-1.001-.745-.88-.535-.88-.535-.923-.347a8.548 8.548 0 0 0-.119 1.045c0 .087.036.127.268.275.144.094.322.202.387.242.068.036.369.214.665.387.3.174.553.315.571.318.015 0 .026-.028.026-.061zm2.846-1.736c-.007-.058-.015-.018-.015.08 0 .1.008.144.015.1a.755.755 0 0 0 0-.18zm-1.606.036c.785-.134.785-.134.615-.228l-.716-.397c-.297-.167-.582-.33-.633-.366A1.48 1.48 0 0 0 16.57.56c-.159-.054-.213-.054-.596-.007-.232.029-.54.065-.684.08-.144.014-.27.036-.278.05-.022.033.727.524 1.211.796a6.7 6.7 0 0 1 .43.26.349.349 0 0 0 .11.065c.01 0 .375-.058.81-.134zm1.421-.56c-.196-.41-.366-.608-.643-.75-.293-.148-.554-.163-.807-.04-.09.044-.162.09-.162.109 0 .018.1.087.227.155.702.39 1.487.81 1.501.8a1.435 1.435 0 0 0-.116-.275zm-6.55 13.113c-.376-.098-.568-.254-.636-.521-.044-.177-.044-.177-.224-.015-.24.214-.478.282-.886.257-.37-.022-.594-.123-.745-.343-.094-.134-.109-.188-.123-.474-.03-.572.133-.897.55-1.092.191-.09.263-.105.538-.105.362 0 .524.05.705.228.134.126.26.347.26.448 0 .047.033.029.13-.069.229-.238.41-.3.872-.3.391 0 .41.004.557.109.087.061.206.18.268.267.101.141.108.181.12.507.01.303.003.383-.066.542-.155.358-.474.55-.94.568a2.19 2.19 0 0 1-.38-.007zm.579-.402a.915.915 0 0 0 .466-.604c.018-.076 0-.155-.068-.296-.094-.196-.094-.196-.2-.116-.082.061-.137.072-.285.058-.21-.022-.329-.105-.329-.235 0-.098-.007-.101-.137-.033a.818.818 0 0 0-.348.398.648.648 0 0 0 .9.828zm-1.953-.282c.264-.112.514-.495.477-.73a.776.776 0 0 0-.097-.246c-.069-.112-.083-.12-.13-.073-.076.076-.21.102-.387.08-.16-.022-.279-.127-.279-.246 0-.094-.036-.087-.206.036-.148.109-.278.33-.322.539-.05.246.199.626.449.68.054.01.115.025.133.032.051.019.225-.018.362-.072z"/></svg>