<svg viewBox="0 0 16 16" xmlns="http://www.w3.org/2000/svg" fill-rule="evenodd" clip-rule="evenodd" stroke-linejoin="round" stroke-miterlimit="1.414"><path d="M3.212 11.518c-.456 0-.87-.373-.87-.828 0-.455.373-.828.87-.828.496 0 .87.373.87.828 0 .455-.415.828-.87.828zm10.677-4.51c-.083-.663-.497-1.2-1.035-1.615l-.207-.166-.166.207c-.33.373-.455 1.035-.414 1.53.042.374.166.746.373 1.036-.165.083-.372.166-.537.248-.373.124-.745.166-1.118.166H.065l-.04.248c-.083.787.04 1.614.372 2.36l.166.29v.04c.993 1.656 2.773 2.4 4.718 2.4 3.726 0 6.788-1.613 8.237-5.09.952.042 1.904-.207 2.36-1.117L16 7.338l-.207-.124c-.538-.33-1.283-.373-1.904-.207zm-5.34-.663H6.936V7.96H8.55V6.344zm0-2.028H6.936V5.93H8.55V4.318zm0-2.07H6.936V3.86H8.55V2.248zm1.987 4.098H8.923V7.96h1.614V6.344zm-6 0H2.92V7.96h1.614V6.344zm2.027 0H4.95V7.96h1.614V6.344zm-4.015 0H.934V7.96H2.55V6.344zm4.014-2.028H4.95V5.93h1.614V4.318zm-2.028 0H2.922V5.93h1.614V4.318z" fill-rule="nonzero"/></svg>