<svg role="img" viewBox="0 0 24 24" xmlns="http://www.w3.org/2000/svg"><title>Docsify</title><path d="M8.066 12a1.377 1.377 0 1 1 0-2.754 1.377 1.377 0 0 1 0 2.754zm8.655-2.754a1.377 1.377 0 1 0 0 2.754 1.377 1.377 0 0 0 0-2.754zM24 14.862c0 2.04-.488 3.516-1.49 4.513-1.814 1.802-5.088 1.782-8.88 1.758a217.6 217.6 0 0 0-2.765 0c-.446.003-.885.005-1.316.005-3.43 0-6.343-.172-8.05-1.868C.49 18.268 0 16.826 0 14.862c0-6.617 5.383-12 12-12s12 5.383 12 12zm-.787 0c0-6.183-5.03-11.213-11.213-11.213S.787 8.679.787 14.862c0 1.743.414 3.003 1.267 3.85 1.688 1.678 4.986 1.657 8.806 1.634.915-.006 1.87-.006 2.775 0 3.613.023 6.738.042 8.32-1.53.846-.841 1.258-2.135 1.258-3.954zM3.148 10.229a.393.393 0 1 0 0 .787.393.393 0 0 0 0-.787zm5.1-4.32-.26-.29a.272.272 0 0 0-.307-.058s-.758.373-1.401.826c-.643.453-.64.467-.89.692-.697.627-1.808 2.186-1.808 2.186a.251.251 0 0 0 .02.304l.26.29c.074.08.181.074.241-.018 0 0 .46-.724 1.01-1.36.55-.638.348-.405.742-.827.581-.622 2.354-1.509 2.354-1.509.095-.049.114-.153.04-.236zm3.953 8.346c-1.9 0-3.545-1.047-3.545.854a3.443 3.443 0 0 0 6.885 0c0-1.901-1.438-.854-3.34-.854z"/></svg>