<svg role="img" viewBox="0 0 24 24" xmlns="http://www.w3.org/2000/svg"><title>Doginal Dogs</title><path d="M6.923 8.308v-.462h.923v-.923h.462v2.308h-.462v.461h-.923v-.461h-.461v-.923zv.923h.923v-.923zm2.308 0v-.462h.923v.462h.461v.923h-.461v.461H9.23v-.461h-.462v-.923zv.923h.923v-.923zm2.308 0v-.462h.923v.462h.461v1.384h-.461v.462h-.924v-.462h.924v-.461h-.924v-.462h-.461v-.461zv.461h.923v-.461zm2.307-1.385v.461h-.461v-.461zm0 .923v1.846h-.461V7.846zm.462 0h1.384v.462h.462v1.384h-.462V8.308h-.923v1.384h-.461zm2.769.462v-.462H18v.462h.462v.923h.461v.461h-.461v-.461H18v.461h-.923v-.461h-.462v-.923zv.923H18v-.923zm2.77-1.385v2.77h-.462v-2.77zM.923 11.077v-.923h3.23V8.308H5.54v6.461h-.924v.923H.923v-.923H0v-3.692zm.462.461v2.77h2.769v-2.77zm6-.461v-.923h3.693v.923H12v3.692h-.923v.923H7.385v-.923h-.923v-3.692zm.461.461v2.77h2.77v-2.77zm6-.461v-.923h3.23v.923H18v5.077h-.923v.923h-3.23v-.923h-.924v-1.385h1.385v.923h2.307v-1.384h-2.769v-.923h-.923v-2.308zm.462.461v1.385h2.307v-1.385zm5.538-.461v-.923h3.23v1.384h-2.768V12h2.769v.923H24v1.846h-.923v.923h-4.154v-1.384h3.692v-.923h-2.769v-.923h-.923v-1.385z"/></svg>