<svg role="img" viewBox="0 0 24 24" xmlns="http://www.w3.org/2000/svg"><title>Dolphin Emulator</title><path d="M23.992 18.484c-.05.007-1.726-3.632-3.978-5.85-1.836-1.81-5.182-4.775-10.587-4.566-2.413.093-3.545 1.207-3.381 1.479.159.265 3.298-.728 6.652 1.04 3.052 1.61 4.351 4.206 4.288 4.254-.052.04-2.372-2.034-5.877-2.95a.582.582 0 0 1-.04-.009c-.629-.154-.682.687-.036 1.491.749.932 1.1 1.013 1.064 1.133-.046.15-1.48.206-2.867-.763-1.22-.854-1.769-2.013-1.93-2.161-.136-.126-.292-.095-.474-.093h-.022c-1.948.074-3.106.29-4.602.883-.658.262-1.566.318-2.083-.216-.537-.555.915-1.337 1.031-1.78.151-.58.06-2.846 4.231-4.076 1.625-.48 4.86-.94 8.386.147.178.044.339.05.502-.066.436-.308 1.167-.722 2.39-.832 2.057-.184 2.715.449 2.661.566-.047.104-1.88.097-2.265 1.236-.144.425.159.664.374.811.766.5 1.487 1.066 2.155 1.692 1.56 1.46 2.646 3.025 3.529 5.153.702 1.694.937 3.468.879 3.477z"/></svg>