<svg role="img" viewBox="0 0 24 24" xmlns="http://www.w3.org/2000/svg"><title>Domo</title><path d="M4.516 14.126c.37-.416.635-.929.75-1.496a3.206 3.206 0 0 0 6.282 0v2.567h1.062v-3.833l2.143 2.143 2.133-2.143v3.833h1.08V12.63a3.206 3.206 0 0 0 6.034.745v-2.766a3.205 3.205 0 0 0-6.033.745V8.787l-3.214 3.205-3.205-3.205v2.567a3.206 3.206 0 0 0-6.282 0 3.2 3.2 0 0 0-.75-1.495 3.2 3.2 0 0 0-2.391-1.072H0v6.41h2.125c.95 0 1.804-.414 2.39-1.071m16.592-4.272a2.139 2.139 0 1 1 0 4.277 2.139 2.139 0 0 1 0-4.277m-12.701 0a2.139 2.139 0 1 1 0 4.277 2.139 2.139 0 0 1 0-4.277m-7.345.005h1.203a2.138 2.138 0 0 1-.001 4.267H1.062ZM0 0h24v24H0Z"/></svg>