<svg aria-labelledby="simpleicons-dot-net-icon" role="img" viewBox="0 0 24 24" xmlns="http://www.w3.org/2000/svg"><title id="simpleicons-dot-net-icon">.NET icon</title><path d="M 3.1672438,7.5655236 V 16.314419 H 4.189854 V 9.9894193 A 8.9790249,8.9790249 0 0 0 4.141114,8.7896565 h 0.03843 A 2.908225,2.908225 0 0 0 4.457926,9.3370487 L 8.955161,16.314419 H 10.2121 V 7.5655236 H 9.190427 v 6.1525344 a 9.2573698,9.2573698 0 0 0 0.06186,1.285995 H 9.228857 C 9.174468,14.898474 9.055979,14.703913 8.873615,14.419169 L 4.496355,7.5655236 Z m 9.3150332,0 v 8.7488954 h 4.650018 l 0.0047,-0.95981 h -3.608658 v -3.03315 H 16.68615 V 11.400078 H 13.528337 V 8.4915908 h 3.388392 V 7.5655236 Z m 5.437363,0 v 0.9260672 h 2.514815 v 7.8228282 h 1.021673 V 8.4915908 H 24 V 7.5655236 Z M 0.65336568,15.066853 A 0.64307287,0.64307287 0 0 0 0.19689338,15.273062 0.67186717,0.67186717 0 0 0 5.7282475e-5,15.752968 0.66226907,0.66226907 0 0 0 0.19689338,16.232873 0.64787192,0.64787192 0 0 0 0.67679848,16.434395 0.66226907,0.66226907 0 0 0 1.1567036,16.232873 0.65747002,0.65747002 0 0 0 1.3582263,15.752968 0.66706812,0.66706812 0 0 0 1.1567036,15.273062 0.65747002,0.65747002 0 0 0 0.67679848,15.066853 a 0.64307287,0.64307287 0 0 0 -0.0234328,0 z"/></svg>
