<svg viewBox="0 0 16 16" xmlns="http://www.w3.org/2000/svg" fill-rule="evenodd" clip-rule="evenodd" stroke-linejoin="round" stroke-miterlimit="1.414"><path d="M5.412 10.083c.032.23.092.374.185.462.096.092.226.124.397.143.203-.02.34-.065.434-.2.055-.086.092-.22.11-.405l.065-.77v-.01l-.014-.116-.02-.115-.02-.116-.02-.11-.02-.116-.02-.11-.02-.11-.02-.112-.02-.107-.02-.1-.02-.1V8l-.02-.09-.02-.09-.01-.082-.02-.077-.02-.07-.02-.11-.03-.11-.03-.12-.03-.12L6.18 7l-.034-.134-.03-.14-.035-.14-.02-.14-.03-.143-.02-.142L6 6l-.01-.14-.006-.15v-.28l.014-.14.023-.14.03-.14.04-.133.06-.13.07-.124.03-.05c-.13-.03-.29-.05-.46-.05-.07 0-.13 0-.2.01-1.55.134-.92 1.89-.65 2.854.19.67.4 2.23.48 2.71zm.185-5.772c.06.02.12.03.19.03.318 0 .525-.17.64-.43.074-.18.107-.4.102-.63-.01-.2-.05-.38-.11-.54-.13-.31-.36-.52-.71-.52-.05 0-.09 0-.12.01-.45.07-.65.52-.63 1.07.01.52.21.95.62 1.05zm.83 2.56c.056.24.112.46.158.65.19.77.374 2.56.443 3.11.065.55.26.66.647.7.383-.03.577-.15.642-.69.064-.54.253-2.33.438-3.1.046-.19.106-.41.16-.64.172-.7.31-1.53 0-2.07-.197-.34-.576-.56-1.24-.56-.67 0-1.054.22-1.247.57-.31.54-.17 1.37 0 2.07zm1.238-2.85h.01c.6 0 .88-.55.88-1.22s-.28-1.23-.88-1.23h-.01c-.61 0-.89.56-.89 1.24 0 .68.28 1.23.89 1.23zm1.884.5c-.18 0-.34.02-.47.05l.03.05.07.13.05.13.04.14.03.14.02.14.01.15v.29l-.01.15V6l-.02.144-.02.143-.03.143-.03.14-.03.14-.03.138-.03.133-.03.13-.04.13-.03.12-.02.12-.03.11-.01.06-.02.08-.02.09-.02.09L8.9 8l-.02.08v.02l-.02.1-.02.1-.014.11-.02.11-.01.11-.02.11-.015.12-.01.11-.01.12-.01.12-.01.12v.01c.03.33.05.62.06.78.02.19.05.32.11.41.09.13.23.18.44.2.17-.02.3-.05.4-.15.1-.082.15-.23.19-.46.08-.47.29-2.032.47-2.702.27-.966.9-2.72-.65-2.854-.07-.01-.13-.01-.2-.01zm.01-.18c.06 0 .12-.01.18-.02.4-.1.6-.53.62-1.04.02-.54-.18-1-.63-1.06-.04-.01-.08-.01-.12-.01-.36 0-.59.22-.71.53-.06.16-.1.35-.1.55-.01.24.02.46.1.64.11.27.32.44.64.44zm1.86.8c2.86.04 4.53 1.8 2.64 4.2-.88 1.11-2.35 2.21-4.32 2.91l-.28.1c-.19.06-.37.12-.55.17-.43.12-.84.23-1.24.31-.43.09-.85.15-1.25.2-.29.03-.57.05-.83.05-1.83.05-3.21-.45-3.66-1.52-.54-1.28.55-3.06 2.74-4.42-1.62.65-4.56 2.19-4.69 4.38v.28c.01.23.05.45.13.69.47 1.48 2.67 2.18 5.47 1.93.27-.02.55-.05.83-.09.4-.06.82-.14 1.24-.24.4-.09.82-.21 1.24-.34l.28-.09c.19-.06.37-.12.55-.19 2.43-.88 4.23-2.05 5.28-3.4.6-.77.91-1.49.97-2.12v-.49c-.17-1.61-2.04-2.55-4.58-2.29z"/></svg>