<svg role="img" viewBox="0 0 24 24" xmlns="http://www.w3.org/2000/svg"><title>Draugiem.lv icon</title><path d="M8.169 15.089c.048.346.14.562.278.692.143.13.34.18.595.21.304-.03.51-.1.65-.3.083-.13.14-.33.166-.61l.098-1.159v-.02l-.02-.18-.03-.17-.03-.175-.032-.165-.03-.174-.03-.165-.03-.164-.03-.17-.028-.16-.03-.15-.03-.15v-.137l-.03-.136-.03-.133-.015-.126-.03-.116-.03-.1-.03-.17-.047-.167-.045-.18-.045-.18-.013-.197-.052-.203-.045-.21-.053-.21-.03-.21-.043-.215-.03-.213-.017-.242-.015-.21-.01-.227v-.402l.02-.21.035-.21.046-.21.06-.2.09-.194.106-.186.04-.074c-.2-.046-.44-.076-.69-.076-.11 0-.2 0-.3.016-2.329.2-1.38 2.835-.98 4.282.28 1 .6 3.339.72 4.059l-.02-.02zm.28-8.662c.09.03.177.045.282.045.48 0 .79-.255.96-.645a2.35 2.35 0 00.153-.944 2.634 2.634 0 00-.164-.81c-.195-.467-.54-.782-1.066-.782-.073 0-.134 0-.18.016-.674.11-.975.78-.944 1.61.015.78.314 1.43.93 1.58l.028-.06zm1.243 3.842c.084.36.168.69.237.975.285 1.155.562 3.842.665 4.666.098.826.39.99.97 1.05.575-.044.866-.224.964-1.034.097-.81.38-3.497.657-4.651.068-.28.16-.61.24-.96.258-1.05.466-2.29 0-3.099-.296-.51-.865-.84-1.86-.84-1.006 0-1.582.33-1.87.86-.466.81-.257 2.06 0 3.109l-.003-.06zM11.55 5.99h.015c.9 0 1.33-.822 1.33-1.83 0-1.006-.42-1.845-1.32-1.845h-.01c-.91 0-1.33.84-1.33 1.86s.42 1.84 1.337 1.84v-.03zm2.826.752c-.27 0-.51.03-.705.075l.045.075.105.194.075.2.06.21.045.21.03.21.015.23v.44l-.015.23v.166L14 9.2l-.03.213-.044.213-.046.21-.044.21-.045.206-.05.2-.05.197-.06.195-.05.18-.03.18-.05.168-.018.09-.03.12-.03.137-.026.134-.015.132-.03.12v.03l-.03.15-.03.15-.02.162-.03.168-.02.165-.03.165-.02.18-.013.165-.014.18-.014.18-.017.18v.014c.045.496.075.93.09 1.17.03.287.075.48.166.615.14.2.35.27.66.3.26-.03.45-.07.6-.22.15-.12.23-.342.29-.69.12-.702.44-3.048.71-4.051.4-1.45 1.35-4.082-.98-4.283-.105-.014-.195-.014-.3-.014l.012-.05zm.016-.27c.09 0 .18-.014.27-.03.6-.15.9-.794.93-1.56.03-.81-.27-1.499-.95-1.59-.06-.017-.12-.017-.18-.017-.54 0-.89.33-1.07.79-.09.24-.15.52-.15.82-.02.36.03.69.15.96.16.4.48.66.96.66l.03-.05zm2.789 1.2c4.289.062 6.798 2.701 3.959 6.303-1.32 1.667-3.53 3.316-6.488 4.367l-.42.15c-.29.09-.56.18-.83.256-.65.18-1.26.344-1.86.464-.65.14-1.279.23-1.879.3-.44.05-.86.08-1.25.08-2.746.08-4.816-.67-5.488-2.279-.81-1.92.823-4.589 4.109-6.628-2.43.97-6.838 3.289-7.034 6.568v.42c.016.35.074.68.195 1.04.707 2.219 4.009 3.269 8.208 2.899.406-.03.826-.073 1.25-.14.604-.082 1.229-.21 1.859-.36.604-.13 1.23-.31 1.864-.51l.42-.13c.285-.09.557-.18.826-.285 3.645-1.32 6.348-3.074 7.923-5.1.9-1.152 1.365-2.232 1.455-3.18v-.732c-.26-2.412-3.06-3.823-6.875-3.434l.044-.045z"/></svg>