<svg viewBox="0 0 16 16" xmlns="http://www.w3.org/2000/svg" fill-rule="evenodd" clip-rule="evenodd" stroke-linejoin="round" stroke-miterlimit="1.414"><path d="M7.675 14.303c.308.247.77.447 1.757.447.986 0 1.68-.278 1.988-.51.14-.107.2-.014.216.047.015.062.046.155-.062.263-.077.077-.786.57-1.618.647-.833.077-1.958.123-2.636-.493-.108-.108-.077-.262 0-.324s.14-.108.23-.108c.094 0 .078 0 .125.03zm2.558-1.757c.247 0 .51.015.694.14.185.122.293.4.354.553.063.154 0 .246-.122.308-.108.06-.123.03-.23-.17-.11-.2-.202-.4-.74-.4-.54 0-.71.184-.972.4-.262.216-.355.293-.447.17-.094-.124-.063-.247.107-.4.17-.155.447-.402.71-.51.26-.108.4-.092.646-.092zm-6.196-1.048c.016-1.202 1.14-2.327 2.56-2.343 1.802-.015 3.05 1.788 3.96 1.773.77-.016 2.25-1.526 2.974-1.526.772 0 .988.8.988 1.28 0 .477-.154 1.34-.524 1.88-.37.54-.6.74-1.033.708-.554-.046-1.663-1.772-2.372-1.803-.894-.03-2.836 1.865-4.362 1.865-.925 0-1.202-.14-1.51-.34-.463-.323-.694-.816-.68-1.494zm7.41-8.545l.038.023C11.978 3.286 15 5.134 15 9.218 15 13.303 11.777 16 8.062 16c-1.136 0-2.237-.274-3.22-.768h-.002v-.003l-.004-.002-.007-.004c-1.2-.606-2.218-1.54-2.903-2.703C1.342 11.527 1 10.364 1 9.094c0-1.982.77-3.432 1.614-4.425.677-.802 1.402-1.308 1.813-1.554.102-.062.185-.108.242-.14.677-.37 1.17-.554 1.957-1.17l.07-.057c.23-.205.437-.472.578-.928.066-.22.117-.48.15-.795L7.428 0l.003.004V.002c.556.662 1.22 1.433 1.697 1.757.084.054.168.106.25.155.68.392 1.368.6 2.07 1.038z"/></svg>