<svg role="img" viewBox="0 0 24 24" xmlns="http://www.w3.org/2000/svg"><title>DTS</title><path d="M23.548 14.383l-1.195-1.2a.86.86 0 0 1-.253-.61.86.86 0 0 1 .86-.863h.593a.35.35 0 0 0 .35-.352v-.648H18.97c-.836 0-1.512.678-1.512 1.517 0 .42.17.795.443 1.073l1.195 1.2a.86.86 0 0 1 .253.61.86.86 0 0 1-.86.864h-1.847c-.729 0-1.317-.59-1.317-1.323v-2.936h1.132a.35.35 0 0 0 .35-.352v-.649H15.33V7.48l-3.863 1.708v1.526h-1.87V7.017H6.73a1 1 0 0 0-.996 1v2.697H3.669C1.51 10.714 0 11.89 0 13.847c0 1.75 1.774 3.132 3.674 3.132h4.611c.729 0 1.317-.59 1.317-1.323V11.72h1.87v2.562c0 1.449.875 2.702 2.654 2.702h8.363c.836 0 1.511-.678 1.511-1.517a1.544 1.544 0 0 0-.452-1.083zM5.73 15.75a.213.213 0 0 1-.214.215h-.13c-1.342 0-1.838-.927-1.847-2.132.014-1.244.53-2.132 1.846-2.132h.35v4.05Z"/></svg>