<svg role="img" viewBox="0 0 24 24" xmlns="http://www.w3.org/2000/svg"><title>Duplicati</title><path d="M6.857 11.571h3.429c.145 0 .287.012.428.03a3.4 3.4 0 0 1 .429-.03H18A3.439 3.439 0 0 1 21.429 15h.857A1.72 1.72 0 0 0 24 13.286V3a1.72 1.72 0 0 0-1.714-1.714H8.57A1.72 1.72 0 0 0 6.857 3zm0 0v.858h2.03a3.419 3.419 0 0 1 1.827-.829 3.4 3.4 0 0 0-.428-.029zm3.857.03a3.419 3.419 0 0 1 1.828.828H18c1.457 0 2.571 1.114 2.571 2.571h.858A3.439 3.439 0 0 0 18 11.571h-6.857c-.146 0-.288.012-.429.03zm0 0a3.419 3.419 0 0 0-1.828.828h1.4c.146 0 .29.013.428.035.14-.022.282-.035.429-.035h1.4a3.419 3.419 0 0 0-1.829-.829Zm1.828.828c.28.245.518.534.706.857H18A1.72 1.72 0 0 1 19.714 15h.857c0-1.457-1.114-2.571-2.571-2.571zm0 0h-1.4c-.146 0-.289.013-.428.035.608.096 1.133.39 1.511.822h1.023a3.457 3.457 0 0 0-.706-.857Zm.706.857c.294.505.466 1.09.466 1.714h6A1.72 1.72 0 0 0 18 13.286zm0 0h-1.023c.395.45.632 1.045.632 1.714h.857c0-.624-.172-1.209-.466-1.714zm-6.39-.857v.857H8.18c.188-.323.426-.612.705-.857Zm2.028 0c-.28.245-.517.534-.705.857h1.022a2.513 2.513 0 0 1 1.511-.822 2.758 2.758 0 0 0-.428-.035zm1.828.035a2.513 2.513 0 0 0-1.51.822h1.082c.149 0 .29.026.428.062a1.68 1.68 0 0 1 .429-.062h1.082a2.513 2.513 0 0 0-1.51-.822zm1.511.822h-1.082c-.15 0-.29.026-.429.062A1.716 1.716 0 0 1 12 15h.857c0-.669-.237-1.265-.632-1.714zM12 15c0-.794-.55-1.46-1.286-1.652A1.716 1.716 0 0 0 9.43 15Zm-2.571 0c0-.794.55-1.46 1.285-1.652a1.68 1.68 0 0 0-.428-.062H9.203A2.575 2.575 0 0 0 8.571 15zm-.858 0c0-.669.237-1.265.632-1.714H8.181a3.399 3.399 0 0 0-.456 1.48c.251.144.538.234.846.234Zm-.846-.234a3.399 3.399 0 0 1 .456-1.48H6.857c0 .634.353 1.183.868 1.48zM12 16.714H9.429v2.572A1.72 1.72 0 0 0 11.143 21H12Zm-2.571 0H8.57v2.572c0 1.457 1.115 2.571 2.572 2.571h.616c.148-.253.241-.544.241-.857h-.857a1.72 1.72 0 0 1-1.714-1.714Zm-.858 0c-.296 0-.582-.042-.857-.114v2.686a3.439 3.439 0 0 0 2.931 3.388 1.715 1.715 0 0 0 1.114-.817h-.616c-1.457 0-2.572-1.114-2.572-2.571zm-.857-.114a3.439 3.439 0 0 1-2.571-3.314H1.714A1.72 1.72 0 0 0 0 15v6a1.72 1.72 0 0 0 1.714 1.714h8.572c.123 0 .243-.015.36-.04a3.439 3.439 0 0 1-2.932-3.388Zm12 .114h-6V21H18a1.72 1.72 0 0 0 1.714-1.714z"/></svg>