<?xml version="1.0" encoding="UTF-8"?>
<svg version="1.1" xmlns="http://www.w3.org/2000/svg" width="206" height="206">
<path d="M0 0 C10.88439782 -0.23347647 21.76818358 -0.41026844 32.65459156 -0.51812172 C37.71180047 -0.56993279 42.76727525 -0.63999828 47.82348633 -0.75439453 C52.71905275 -0.86444109 57.6129704 -0.92312599 62.50967979 -0.94877243 C64.36147666 -0.96700601 66.21320093 -1.00260111 68.06427956 -1.05730057 C82.82013615 -1.47530276 92.54208481 2.26938252 105 10 C106.20048711 10.70311193 107.40386759 11.40132196 108.61091614 12.09310913 C110.52851179 13.19285108 112.43832434 14.30628307 114.33984375 15.43359375 C120.15788553 18.85948913 126.11709121 22.0243219 132.10546875 25.140625 C142.27298287 30.43848098 152.30416132 35.9321543 162.25878906 41.62133789 C163.6408252 42.41012329 163.6408252 42.41012329 165.05078125 43.21484375 C165.86200439 43.68011475 166.67322754 44.14538574 167.5090332 44.62475586 C170.29641634 46.16364924 173.15216607 47.57608304 176 49 C176 41.41 176 33.82 176 26 C172.7 26 169.4 26 166 26 C162.76953125 24.92578125 162.76953125 24.92578125 159.8125 23.3125 C158.9762207 22.8652356 158.9762207 22.8652356 158.12304688 22.40893555 C156.06769793 21.2970654 154.03481271 20.14902962 152 19 C150.06655841 17.92680916 148.1329525 16.85391433 146.19921875 15.78125 C127.36802277 5.26863866 127.36802277 5.26863866 123 2 C123 1.34 123 0.68 123 0 C148.74 0 174.48 0 201 0 C201 30.03 201 60.06 201 91 C196.1058896 90.18431493 194.16223969 89.82226772 190.20703125 87.48828125 C189.33530273 86.98079346 188.46357422 86.47330566 187.56542969 85.95043945 C186.20272949 85.13965942 186.20272949 85.13965942 184.8125 84.3125 C182.9183467 83.2076851 181.02381982 82.10351042 179.12890625 81 C177.7833667 80.21109375 177.7833667 80.21109375 176.41064453 79.40625 C170.81869953 76.14418769 165.1104038 73.10202838 159.375 70.1015625 C150.88991867 65.65401109 142.51215186 61.0546541 134.1875 56.3125 C127.54323435 52.5288329 120.90237699 48.8551417 114.01953125 45.51953125 C104.06201608 40.50856954 94.30909988 34.9490516 84.84765625 29.05859375 C75.6345903 23.78007182 61.43396668 25.87168219 51.1875 25.9375 C49.80143394 25.94253316 48.41536607 25.9470928 47.02929688 25.95117188 C43.68615025 25.96282047 40.34309989 25.97917571 37 26 C37.74878418 26.36931641 38.49756836 26.73863281 39.26904297 27.11914062 C45.96863178 30.44306585 52.57709199 33.88770424 59.125 37.5 C61.04391252 38.55273673 62.96319959 39.60479094 64.8828125 40.65625 C65.87829102 41.20152344 66.87376953 41.74679688 67.89941406 42.30859375 C73.25356017 45.22934369 78.627391 48.11339737 84 51 C117.06327674 68.7838867 117.06327674 68.7838867 128.43359375 75.49609375 C134.66800494 79.14943973 141.01606848 82.53140781 147.50537109 85.70947266 C155.21308676 89.48880056 162.63320351 93.62406301 170.03051758 97.97851562 C176.87122058 101.98365393 183.84854875 105.58176963 191 109 C191.46063543 112.5666343 191.05696712 113.90974346 189.1015625 117.0078125 C187.87566406 118.55082031 187.87566406 118.55082031 186.625 120.125 C185.40683594 121.67574219 185.40683594 121.67574219 184.1640625 123.2578125 C183.44992188 124.16273438 182.73578125 125.06765625 182 126 C181.34 126.99 180.68 127.98 180 129 C179.34 129 178.68 129 178 129 C177.73960937 129.56203125 177.47921875 130.1240625 177.2109375 130.703125 C175.87287094 133.24113511 174.3261916 135.43867639 172.625 137.75 C171.91988281 138.7090625 171.21476563 139.668125 170.48828125 140.65625 C167.11259981 145.20336915 163.71220034 149.73220652 160.30126953 154.25292969 C159.8164209 154.89649414 159.33157227 155.54005859 158.83203125 156.203125 C158.12167725 157.14381836 158.12167725 157.14381836 157.39697266 158.10351562 C155.99069252 160.01263554 154.6596989 161.96283796 153.32421875 163.921875 C151 167 151 167 148 168 C145.46465753 166.89344856 143.11214606 165.72752966 140.69140625 164.40625 C139.60846535 163.82973694 139.60846535 163.82973694 138.50364685 163.24157715 C136.18478487 162.00373547 133.87382934 160.75183966 131.5625 159.5 C130.04017927 158.68662774 128.51739729 157.87411812 126.99414062 157.0625 C119.4187841 153.01143403 111.94303404 148.8380224 104.5456543 144.47021484 C101.14438635 142.50584968 97.66444229 140.76094462 94.125 139.0625 C88.89234706 136.50154552 83.78417485 133.80704586 78.75 130.875 C73.60651293 127.88432991 68.39671774 125.1729295 63.0546875 122.55859375 C59.67829991 120.83585891 56.40001532 118.967947 53.125 117.0625 C48.57100551 114.41619251 43.98167488 111.94712682 39.25 109.625 C32.89647547 106.50534807 26.72714426 103.11377218 20.56518555 99.63256836 C15.24126819 96.63912049 9.86622244 93.93754221 4.28515625 91.44921875 C1.25893573 89.53002591 0.33998654 88.36080767 -1 85 C-1.42470511 81.28354862 -1.41862113 77.61187652 -1.375 73.875 C-1.38660156 72.87339844 -1.39820312 71.87179688 -1.41015625 70.83984375 C-1.40628906 69.87949219 -1.40242187 68.91914062 -1.3984375 67.9296875 C-1.39505371 67.05554199 -1.39166992 66.18139648 -1.38818359 65.28076172 C-0.92815778 62.57789307 -0.09876722 61.69582614 2 60 C18.06566775 68.33844432 34.03577365 76.8453064 49.82421875 85.69921875 C57.3695333 89.93019884 64.9344775 94.0214568 72.70092773 97.83227539 C79.30924697 101.09984276 85.75063878 104.65686628 92.20703125 108.21289062 C100.51414331 112.77264842 108.91222325 117.14577519 117.34936523 121.4597168 C122.98732586 124.360256 128.48258054 127.40151215 133.88989258 130.71362305 C136.53500739 132.32615457 139.1354917 133.81227705 142 135 C146.04356581 133.65214473 147.41250936 130.9550299 149.6875 127.5625 C150.10322266 126.96373047 150.51894531 126.36496094 150.94726562 125.74804688 C153.25083388 122.65431873 153.25083388 122.65431873 154 119 C153.47905762 118.72961914 152.95811523 118.45923828 152.42138672 118.18066406 C134.26068071 108.74231849 116.27383277 99.01066957 98.453125 88.9453125 C91.72194263 85.15331157 84.9295406 81.48608293 78.09423828 77.88598633 C77.38251465 77.51111084 76.67079102 77.13623535 75.9375 76.75 C74.86024658 76.18285278 74.86024658 76.18285278 73.76123047 75.60424805 C68.3601555 72.74888372 63.0170865 69.79882378 57.6875 66.8125 C52.84011803 64.09767881 47.9914988 61.44411321 43 59 C37.26832171 56.19329096 31.71657669 53.10329938 26.16235352 49.96411133 C22.03875577 47.64504893 17.89093512 45.41903193 13.65625 43.30859375 C12.78427979 42.8693457 11.91230957 42.43009766 11.01391602 41.97753906 C9.32644841 41.13260598 7.6317532 40.30192118 5.92944336 39.48730469 C5.16768799 39.10348633 4.40593262 38.71966797 3.62109375 38.32421875 C2.9448999 37.99510498 2.26870605 37.66599121 1.57202148 37.3269043 C-0.68739873 35.4197838 -0.59983677 33.914997 -1 31 C-1.01542724 28.57653585 -0.9686045 26.15232149 -0.87890625 23.73046875 C-0.85529526 23.04946609 -0.83168427 22.36846344 -0.80735779 21.66682434 C-0.73121614 19.50681088 -0.64698181 17.34720172 -0.5625 15.1875 C-0.50922961 13.71681619 -0.45648961 12.24611307 -0.40429688 10.77539062 C-0.27566911 7.18334976 -0.13978528 3.59162595 0 0 Z " fill="#090909" transform="translate(3,9)"/>
<path d="M0 0 C4.72042113 0.54742526 8.18649028 2.70557542 12.125 5.1875 C13.47552408 6.01861683 14.82709209 6.84803966 16.1796875 7.67578125 C16.83678711 8.07877441 17.49388672 8.48176758 18.17089844 8.89697266 C20.49273986 10.29714344 22.85896259 11.59703173 25.25 12.875 C30.3881357 15.62455543 35.40782471 18.5587695 40.4375 21.5 C45.51767766 24.46417323 50.57652423 27.37568316 55.875 29.9375 C64.19767555 33.97729662 72.13471248 38.73183198 80.14208984 43.35498047 C83.08563093 45.04928936 86.03580667 46.73146767 88.98828125 48.41015625 C89.9532251 48.95913574 90.91816895 49.50811523 91.91235352 50.07373047 C93.77821806 51.13484762 95.64457787 52.19509445 97.51147461 53.25439453 C98.7664978 53.96958252 98.7664978 53.96958252 100.046875 54.69921875 C101.15820801 55.33089966 101.15820801 55.33089966 102.29199219 55.9753418 C104 57 104 57 105 58 C105.08767112 60.07262076 105.10695873 62.14820294 105.09765625 64.22265625 C105.09282227 66.11274414 105.09282227 66.11274414 105.08789062 68.04101562 C105.07953403 69.38151109 105.07106907 70.72200588 105.0625 72.0625 C105.0574866 73.40689942 105.05292342 74.7513006 105.04882812 76.09570312 C105.03699488 79.39717941 105.02050971 82.69856803 105 86 C93.54884638 83.32593342 82.87228871 75.65406941 72.86425781 69.74926758 C64.81971752 65.01874691 56.68628712 60.47815898 48.5 56 C38.20980428 50.37016584 28.02177613 44.59790531 17.9375 38.60351562 C12.70523993 35.50832315 7.47343721 32.70804874 1.91723633 30.23193359 C0 29 0 29 -1.125 25.3125 C-1.125 23.54117654 -1.07335974 21.76980371 -1 20 C-1.01374694 18.49471027 -1.03529183 16.9894816 -1.0625 15.484375 C-1.24658843 2.49317686 -1.24658843 2.49317686 0 0 Z " fill="#080808" transform="translate(3,118)"/>
<path d="M0 0 C0.33 0 0.66 0 1 0 C1 8.91 1 17.82 1 27 C-5.75 25.875 -5.75 25.875 -9.5234375 23.71484375 C-10.31621094 23.26689453 -11.10898438 22.81894531 -11.92578125 22.35742188 C-13.13814453 21.65456055 -13.13814453 21.65456055 -14.375 20.9375 C-15.20644531 20.46505859 -16.03789062 19.99261719 -16.89453125 19.50585938 C-18.9344349 18.34522454 -20.96922018 17.17650227 -23 16 C-23 15.34 -23 14.68 -23 14 C-17.73877829 15.51031916 -13.32767414 17.90374191 -8.625 20.625 C-7.88894531 21.04523438 -7.15289062 21.46546875 -6.39453125 21.8984375 C-4.5936235 22.92752764 -2.79642682 23.96310756 -1 25 C-1.00785522 23.91730835 -1.00785522 23.91730835 -1.01586914 22.81274414 C-1.03657358 19.56267151 -1.04963918 16.31261272 -1.0625 13.0625 C-1.07087891 11.92619141 -1.07925781 10.78988281 -1.08789062 9.61914062 C-1.09272461 7.99975586 -1.09272461 7.99975586 -1.09765625 6.34765625 C-1.10551147 4.84730835 -1.10551147 4.84730835 -1.11352539 3.31665039 C-1 1 -1 1 0 0 Z " fill="#121212" transform="translate(203,73)"/>
<path d="M0 0 C4.18761663 1.28060018 7.82056379 2.86346914 11.6171875 5.0390625 C13.14472656 5.90917969 13.14472656 5.90917969 14.703125 6.796875 C15.74984375 7.40015625 16.7965625 8.0034375 17.875 8.625 C18.94492187 9.23601563 20.01484375 9.84703125 21.1171875 10.4765625 C23.74755755 11.9796311 26.37500926 13.48756286 29 15 C26 16 26 16 23.38037109 14.96777344 C22.35508301 14.43700195 21.32979492 13.90623047 20.2734375 13.359375 C19.1596875 12.78316406 18.0459375 12.20695312 16.8984375 11.61328125 C15.73570313 10.99839844 14.57296875 10.38351563 13.375 9.75 C12.20453125 9.15058594 11.0340625 8.55117188 9.828125 7.93359375 C1.12706016 3.38118047 1.12706016 3.38118047 0 0 Z " fill="#0F0F0F" transform="translate(22,53)"/>
<path d="M0 0 C0.61254883 1.81811523 0.61254883 1.81811523 1 4 C-0.36175131 6.200661 -1.69017537 8.07423749 -3.3125 10.0625 C-4.14236351 11.11554164 -4.97180418 12.16891665 -5.80078125 13.22265625 C-6.52652344 14.13917969 -7.25226563 15.05570313 -8 16 C-8.66 16.99 -9.32 17.98 -10 19 C-10.66 19 -11.32 19 -12 19 C-12.309375 19.61875 -12.61875 20.2375 -12.9375 20.875 C-13.625 22.25 -14.3125 23.625 -15 25 C-15.66 25 -16.32 25 -17 25 C-15.2449216 21.04862237 -12.71500276 17.66793458 -10.1875 14.1875 C-9.76146484 13.59646484 -9.33542969 13.00542969 -8.89648438 12.39648438 C-8.03797229 11.20547744 -7.17843907 10.01520588 -6.31787109 8.82568359 C-4.20025788 5.89209492 -2.1007997 2.94564554 0 0 Z " fill="#141414" transform="translate(193,119)"/>
<path d="M0 0 C0.33 0.99 0.66 1.98 1 3 C-0.46826255 5.2173761 -1.94507911 7.20390522 -3.625 9.25 C-4.55572288 10.41453784 -5.48542045 11.57989591 -6.4140625 12.74609375 C-6.86297852 13.30538574 -7.31189453 13.86467773 -7.77441406 14.44091797 C-9.26891033 16.34208394 -10.64372976 18.31097392 -12 20.3125 C-12.99 21.6428125 -12.99 21.6428125 -14 23 C-14.66 23 -15.32 23 -16 23 C-14.69596002 19.35932185 -13.13844274 16.602214 -10.7421875 13.57421875 C-10.11699219 12.77822266 -9.49179688 11.98222656 -8.84765625 11.16210938 C-8.19667969 10.34548828 -7.54570312 9.52886719 -6.875 8.6875 C-6.21628906 7.85154297 -5.55757812 7.01558594 -4.87890625 6.15429688 C-3.25785572 4.09861685 -1.63145664 2.04742407 0 0 Z " fill="#141414" transform="translate(174,145)"/>
<path d="M0 0 C2.64956093 1.28445456 5.29453793 2.57709679 7.9375 3.875 C8.69224609 4.23980469 9.44699219 4.60460938 10.22460938 4.98046875 C11.30258789 5.51220703 11.30258789 5.51220703 12.40234375 6.0546875 C13.06741943 6.37937012 13.73249512 6.70405273 14.41772461 7.03857422 C16 8 16 8 17 10 C12.76677156 9.37954537 9.47709705 7.89476441 5.6875 5.9375 C4.61886719 5.38964844 3.55023438 4.84179688 2.44921875 4.27734375 C1.64097656 3.85582031 0.83273438 3.43429688 0 3 C0 2.01 0 1.02 0 0 Z " fill="#101010" transform="translate(3,42)"/>
<path d="M0 0 C4.49797113 1.68673918 8.72886302 3.81673892 13 6 C12.01 6.66 11.02 7.32 10 8 C8.32819726 7.05065487 6.66266064 6.09026687 5 5.125 C4.071875 4.59132813 3.14375 4.05765625 2.1875 3.5078125 C1.465625 3.01023438 0.74375 2.51265625 0 2 C0 1.34 0 0.68 0 0 Z " fill="#101010" transform="translate(104,45)"/>
</svg>
