<svg role="img" viewBox="0 0 24 24" xmlns="http://www.w3.org/2000/svg"><title>EaseMyTrip</title><path d="M.3874 5.0718c-.5161-.0253-.4971.2417-.0584.7356l4.0012 4.5843c.6436.8954.5344.7692 1.429.5813l12.0346-2.137L7.0924 12.272c-.4049.1436-.6234.2497-.7015.367-.05.0382-.098.1014-.1445.1981l-2.3221 3.704c-.3135.5023-.0306.7217.4092.4548l3.657-1.7116c.1333-.078.245-.1393.3345-.1949l2.7525 3.1146c.7374.7999.8787.9886 1.4907.3134L23.5683 7.7528c.5488-.5021.7216-.722-.3767-.7843L.6408 5.1011a2.2897 2.2897 0 0 0-.2533-.0293z"/></svg>