<svg role="img" viewBox="0 0 24 24" xmlns="http://www.w3.org/2000/svg"><title>EasyEDA</title><path d="M3.336 9.6a1.922 1.922 0 0 0-.756.137 1.922 1.922 0 0 0-.434.238 1.971 1.971 0 0 0-.398.392 1.581 1.581 0 0 0-.191-.011c-.86 0-1.557.698-1.557 1.56 0 .673.428 1.256 1.039 1.47a.942.942 0 0 0 1.836-.394l1.328-.67-.01-.02.125-.063-.255-.508-.125.062-.012-.021-1.326.666a.934.934 0 0 0-.659-.27.945.945 0 0 0-.857.55.933.933 0 0 1-.426-1.038.93.93 0 0 1 1.39-.555 1.306 1.306 0 0 1 1.651-.832 1.313 1.313 0 0 1 .887 1.096.73.73 0 0 1 .799.727.729.729 0 0 1-.664.726h-.536v.63h.563l.027-.003a1.355 1.355 0 0 0 1.235-1.467 1.368 1.368 0 0 0-.395-.846 1.342 1.342 0 0 0-.527-.328A1.936 1.936 0 0 0 3.336 9.6Zm3.933.771-.412 3.086h1.706a.268.268 0 0 0 .261-.273.266.266 0 0 0-.267-.266l-1.059.002.111-.818 1.09.002a.271.271 0 0 0 .268-.274.268.268 0 0 0-.22-.27H7.685l.085-.64 1.131-.002c.148 0 .27-.122.27-.273a.272.272 0 0 0-.27-.274H7.27Zm9.43 0-.414 3.086h1.707a.268.268 0 0 0 .262-.273.266.266 0 0 0-.268-.266l-1.058.002.111-.818 1.09.002a.271.271 0 0 0 .268-.274.27.27 0 0 0-.221-.27h-1.06l.085-.64 1.131-.002a.27.27 0 0 0 .268-.273.27.27 0 0 0-.268-.274H16.7Zm2.403 0-.416 3.086h.947c.398 0 .71-.06.933-.18a1.4 1.4 0 0 0 .555-.57 1.716 1.716 0 0 0 .223-.857c0-.304-.071-.572-.21-.803a1.3 1.3 0 0 0-.538-.514c-.221-.107-.557-.161-1.01-.162h-.484zm3.683 0-1.613 3.086h.601l.34-.656H23.3l.158.656H24l-.393-1.64-.334.19a.488.488 0 0 1-.537.439.499.499 0 0 1-.425-.557.488.488 0 0 1 .48-.441.472.472 0 0 1 .277.09l.414-.237-.224-.93h-.473zm-3.18.543h.145c.234 0 .423.04.564.114a.793.793 0 0 1 .328.318c.079.138.118.308.118.512-.003.25-.057.46-.168.629a.905.905 0 0 1-.44.357c-.129.049-.339.074-.629.074h-.187l.27-2.004zm-9.26.229a1.204 1.204 0 0 0-.615.17 1.26 1.26 0 0 0-.468.476 1.278 1.278 0 0 0-.176.643c0 .295.092.554.273.777a.9.9 0 0 0 .735.334.948.948 0 0 0 .363-.066c.108-.044.224-.124.35-.238l-.036.246h.567l.234-1.926h-.445l-.022-.035a.817.817 0 0 0-.3-.284 1.079 1.079 0 0 0-.46-.097zm2.46 0a.844.844 0 0 0-.54.181.567.567 0 0 0-.226.467.62.62 0 0 0 .145.39c.068.09.195.194.377.317.156.107.253.18.289.223.035.043.052.081.052.12 0 .05-.027.097-.07.126a.299.299 0 0 1-.186.053c-.194 0-.374-.104-.539-.31l-.365.403c.161.165.309.276.44.336.136.063.286.096.437.094.278 0 .49-.076.635-.226.145-.15.219-.312.219-.48a.637.637 0 0 0-.108-.358c-.072-.11-.22-.241-.445-.395a1.51 1.51 0 0 1-.254-.195.154.154 0 0 1-.043-.1.116.116 0 0 1 .053-.095.221.221 0 0 1 .135-.043c.068 0 .142.023.222.072a.82.82 0 0 1 .229.226l.28-.427a.897.897 0 0 0-.325-.28.909.909 0 0 0-.412-.1zm.828.086.625 2.004-.63 1.168h.575l1.74-3.172h-.586l-.76 1.377-.429-1.377zm-3.246.431c.175 0 .317.055.424.166.107.111.16.255.16.436a.874.874 0 0 1-.108.402.728.728 0 0 1-.263.29.721.721 0 0 1-.368.091.558.558 0 0 1-.416-.164.59.59 0 0 1-.16-.432c0-.232.072-.42.213-.568a.687.687 0 0 1 .518-.22zm12.367.034a.218.218 0 0 0-.18.25.218.218 0 0 0 .25.18.218.218 0 0 0 .18-.25.218.218 0 0 0-.25-.18zm-20.813.978c.242 0 .44.199.44.442a.438.438 0 0 1-.44.439.438.438 0 0 1-.439-.44.44.44 0 0 1 .44-.44z"/></svg>