<svg viewBox="0 0 16 16" xmlns="http://www.w3.org/2000/svg" fill-rule="evenodd" clip-rule="evenodd" stroke-linejoin="round" stroke-miterlimit="1.414"><path d="M4.037 8.073v-3.28h.8V6.81c.394-.468.935-.604 1.468-.604.894 0 1.886.603 1.886 1.904 0 .155-.015.304-.045.445.16-.635.845-.87 1.93-.896.34-.008.724-.01 1.04-.01v-.084c0-.585-.375-.826-1.025-.826-.482 0-.838.2-.874.545h-.843c.09-.86.993-1.078 1.788-1.078.703 0 1.325.184 1.603.685l-.293-.553h.938l1.373 2.748 1.37-2.748H16l-2.48 4.87h-.897l.713-1.353-1.553-2.928c.086.17.134.377.134.624v1.638c0 .233.007.464.027.67H11.2c-.02-.17-.03-.34-.03-.504-.402.496-.88.638-1.547.638-.987 0-1.515-.52-1.515-1.125 0-.095.01-.183.025-.265-.2.828-.907 1.39-1.843 1.39-.58 0-1.13-.208-1.467-.622 0 .165-.01.332-.027.49H4.01c.013-.255.027-.572.027-.83V8.3H.817c.043.73.545 1.16 1.235 1.16.478 0 .903-.196 1.045-.62h.827c-.16.86-1.074 1.152-1.86 1.152C.634 9.992 0 9.205 0 8.142c0-1.168.655-1.938 2.077-1.938 1.126 0 1.953.587 1.96 1.87zm6.092.122c-.728.023-1.18.155-1.18.633 0 .31.248.647.875.647.84 0 1.29-.46 1.29-1.21V8.18c-.294 0-.658.004-.986.015zm-4.037 1.25c.745 0 1.255-.537 1.255-1.347 0-.81-.51-1.345-1.255-1.345-.74 0-1.255.536-1.255 1.345 0 .81.514 1.346 1.255 1.346zm-2.9-1.677c-.03-.75-.57-1.03-1.15-1.03-.624 0-1.122.315-1.21 1.03h2.36z"/></svg>