<svg role="img" viewBox="0 0 24 24" xmlns="http://www.w3.org/2000/svg"><title>eBPF</title><path d="M15.645 0c-.988.033-1.124 1.367-1.242 2.148-.042.863-.28 1.826-.215 2.719-1.645-.033-3.32.87-3.948 2.427-2.3-.562-4.761-.686-7.061-.044-1.612.363-3.355 1.706-3.165 3.516.459 1.925 2.206 3.351 4.062 3.89-.847 2.158-.39 4.91 1.471 6.41l-.313 2.464-.216.314.188-.103-.033.259.266-.385L7.65 22.41c2.128 1.138 4.87.53 6.603-1.048 1.245 1.536 3.336 2.63 5.34 2.212 1.74-.612 2.279-2.741 1.966-4.386-.294-2.254-1.306-4.367-2.646-6.187 1.174-1.087 1.456-2.867.894-4.325.895-.26 1.74-.86 2.565-1.232.735-.426 2.065-1.08 1.484-2.12-1.41-.23-2.142 1.507-3.476 1.748-.313.079-.835.198-1.286.381-.386-.587-1.11-1.644-1.714-1.39-.04-.569-1.125-.834-1.765-.952.002-.468-.075-.967-.117-1.276-.272-1.312 1.098-2.618.356-3.823a1.257 1.251 0 0 0-.211-.011ZM6.703 8.197c.702 0 1.403.044 2.098.118 1.21.168 3.26.35 3.222 1.96-1.763-.25-3.551-.369-5.33-.248-1.31.468-3.13.216-3.454-1.4 1.13-.306 2.297-.429 3.465-.43Zm-4.365.866c.38.006.764.349.921.88 1.306.956-1.002.887-1.568 1.459-.324-.485-.418-1.154-.124-1.676.183-.47.476-.668.771-.663m6.52 1.46c.986-.018 2.078.272 3.013.238-.763 1.593-2.436 2.54-4.109 2.921-1.957.921-1.475-1.87-.514-2.663.462-.366 1.017-.487 1.61-.497zm-2.4.154c.27.746-1.193 2.05-.635 3.123-1.378-.231-2.73-.828-3.707-1.842 1.276-.857 2.828-1.176 4.341-1.28zm9.505 1.679c1.183-.073 1.99 1.411 2.523 2.336.876 1.612 1.567 3.356 1.778 5.187-1.614.313-2.569-1.235-2.611-2.626-.548-1.668-1.326-3.254-2.22-4.765q.277-.119.53-.132m-.934.45c.506 1.385 1.954 2.834 1.476 4.317-.4 1.163-2.83 2.652-2.706.511-.261-1.674.02-3.557 1.23-4.828m-3.024.297c.169-.003.341.058.522.214l.028-.04c.781.621-.485 1.884-.05 2.794-.1 1.586-1.516.432-2.372.544-.37-.741-1.793-1.72-.395-2.339.881.052 1.535-1.16 2.266-1.173zM5.866 15.04q.104 0 .225.023c.13 1.2.761 2.305 1.619 3.142.26.274.567.59.835.637 1.331.862 3.022 1.263 4.575.836.708 1.096-1.098 1.655-1.912 1.892-1.39.293-2.863-.09-4.04-.85l-.019.026c-1.064-.781-1.901-1.923-2.132-3.233-.084-.79-.194-2.471.85-2.473m11.26 2.67c.466 1.418.742 2.956.409 4.434-1.313-.507-2.386-1.513-3.122-2.691 1.214.111 1.906-1.706 2.713-1.743m1.392 2.445c.117.005.276.065.491.197.987-.107 1.701.675.838 1.464-.389.464-1.05.621-1.628.508.273-.62-.334-2.197.3-2.17z"/></svg>