<?xml version="1.0" encoding="UTF-8" standalone="no"?>
<!DOCTYPE svg PUBLIC "-//W3C//DTD SVG 1.1//EN" "http://www.w3.org/Graphics/SVG/1.1/DTD/svg11.dtd">
<svg width="100%" height="100%" viewBox="0 0 220 219" version="1.1" xmlns="http://www.w3.org/2000/svg" xmlns:xlink="http://www.w3.org/1999/xlink" xml:space="preserve" xmlns:serif="http://www.serif.com/" style="fill-rule:evenodd;clip-rule:evenodd;stroke-linejoin:round;stroke-miterlimit:2;">
    <g id="ArtBoard1" transform="matrix(0.746557,0,0,0.792342,-26.0614,-9.56008)">
        <rect x="34.909" y="12.066" width="294.148" height="276.074" style="fill:none;"/>
        <g transform="matrix(3.00775,0,0,2.83395,-444.576,-230.298)">
            <path d="M208.963,140.957L199.2,162.145L224.317,173.451C223.604,172.492 222.99,171.445 222.501,170.32L208.963,140.957Z" style="fill:rgb(35,31,32);fill-rule:nonzero;"/>
        </g>
        <g transform="matrix(3.00775,0,0,2.83395,-444.576,-230.298)">
            <path d="M249.57,158.106L249.582,158.102L224.751,104.26C224.615,106.124 224.167,107.944 223.374,109.683L210.064,138.569L224.318,169.482C226.448,174.395 231.336,177.834 237.033,177.834C244.685,177.834 250.889,171.63 250.889,163.978C250.889,161.876 250.407,159.891 249.57,158.106Z" style="fill:rgb(35,31,32);fill-rule:nonzero;"/>
        </g>
        <g transform="matrix(3.00775,0,0,2.83395,-444.576,-230.298)">
            <path d="M222.813,103.108C222.813,95.456 216.609,89.252 208.956,89.252C203.573,89.252 198.917,92.328 196.624,96.811L196.616,96.808L196.407,97.26C196.321,97.444 196.23,97.625 196.152,97.813L168.35,158.102L168.362,158.106C167.525,159.892 167.042,161.876 167.042,163.978C167.042,171.63 173.247,177.834 180.899,177.834C186.595,177.834 191.483,174.395 193.614,169.482L193.617,169.483L221.558,108.846C222.356,107.096 222.813,105.157 222.813,103.108Z" style="fill:rgb(35,31,32);fill-rule:nonzero;"/>
        </g>
    </g>
</svg>
