<?xml version="1.0" encoding="UTF-8" standalone="no"?>
<!DOCTYPE svg PUBLIC "-//W3C//DTD SVG 1.1//EN" "http://www.w3.org/Graphics/SVG/1.1/DTD/svg11.dtd">
<svg width="100%" height="100%" viewBox="0 0 220 219" version="1.1" xmlns="http://www.w3.org/2000/svg" xmlns:xlink="http://www.w3.org/1999/xlink" xml:space="preserve" xmlns:serif="http://www.serif.com/" style="fill-rule:evenodd;clip-rule:evenodd;stroke-linejoin:round;stroke-miterlimit:2;">
    <g id="ArtBoard1" transform="matrix(0.746557,0,0,0.792342,-26.0614,-9.56008)">
        <rect x="34.909" y="12.066" width="294.148" height="276.074" style="fill:none;"/>
        <g transform="matrix(1.33948,0,0,1.26208,-78.254,-47.2467)">
            <g>
                <g>
                    <g>
                        <clipPath id="_clip1">
                            <path d="M185.638,27.849L50.934,162.553L189.351,300.969L324.054,166.266L185.638,27.849Z"/>
                        </clipPath>
                        <g clip-path="url(#_clip1)">
                            <g>
                                <clipPath id="_clip2">
                                    <path d="M185.648,27.849L50.944,162.553L189.361,300.969L324.064,166.266L185.648,27.849Z"/>
                                </clipPath>
                                <g clip-path="url(#_clip2)">
                                    <path d="M221.54,68.82C228.12,75.4 232.19,84.48 232.2,94.5C232.21,114.56 215.97,130.8 195.92,130.79C189.2,130.79 182.88,133.4 178.14,138.14C173.4,142.88 170.78,149.2 170.79,155.92C170.79,169.8 182.09,181.08 195.95,181.09C202.67,181.09 208.99,178.48 213.73,173.74C218.47,169 221.09,162.68 221.08,155.96C221.07,135.9 237.31,119.66 257.37,119.68C277.42,119.69 293.69,135.97 293.7,156.02C293.72,182.14 283.57,206.69 265.11,225.14C246.65,243.6 222.1,253.75 195.99,253.73C142.09,253.69 98.19,209.8 98.15,155.89C98.13,129.76 108.28,105.22 126.74,86.76C145.19,68.31 169.74,58.16 195.86,58.17C205.88,58.17 214.97,62.24 221.55,68.82L221.54,68.82Z" style="fill:rgb(0,4,0);fill-rule:nonzero;"/>
                                </g>
                            </g>
                        </g>
                    </g>
                </g>
            </g>
        </g>
    </g>
</svg>
