<?xml version="1.0" encoding="UTF-8" standalone="no"?>
<!DOCTYPE svg PUBLIC "-//W3C//DTD SVG 1.1//EN" "http://www.w3.org/Graphics/SVG/1.1/DTD/svg11.dtd">
<svg width="100%" height="100%" viewBox="0 0 220 219" version="1.1" xmlns="http://www.w3.org/2000/svg" xmlns:xlink="http://www.w3.org/1999/xlink" xml:space="preserve" xmlns:serif="http://www.serif.com/" style="fill-rule:evenodd;clip-rule:evenodd;stroke-linejoin:round;stroke-miterlimit:2;">
    <g id="ArtBoard1" transform="matrix(0.746557,0,0,0.792342,-26.0614,-9.56008)">
        <rect x="34.909" y="12.066" width="294.148" height="276.074" style="fill:none;"/>
        <g transform="matrix(3.05189,0,0,2.87554,-351.221,-234.928)">
            <path d="M171.23,95.28C171.529,95.759 178.324,106.159 185.976,117.863L194.288,117.863C202.212,117.863 208.636,111.664 208.636,104.016C208.636,96.369 202.212,89.17 194.288,89.17L164.898,89.17C167.424,90.576 169.635,92.667 171.23,95.28Z" style="fill:rgb(1,0,10);fill-rule:nonzero;"/>
        </g>
        <g transform="matrix(3.05189,0,0,2.87554,-351.221,-234.928)">
            <path d="M157.616,133.921C149.981,145.597 143.51,155.493 143.444,155.602C141.726,158.075 140.701,161.033 140.701,164.07C140.701,171.718 147.125,177.917 155.049,177.917C160.284,177.917 164.851,175.202 167.356,171.161C167.407,171.091 170.379,166.545 174.657,160C169.736,152.47 163.316,142.646 157.616,133.921Z" style="fill:rgb(1,0,10);fill-rule:nonzero;"/>
        </g>
        <g transform="matrix(3.05189,0,0,2.87554,-351.221,-234.928)">
            <path d="M194.084,130.266C197.214,125.476 200.042,121.145 202.166,117.894C199.827,119.146 197.143,119.863 194.288,119.863L187.283,119.863C189.552,123.334 191.865,126.872 194.084,130.266Z" style="fill:rgb(1,0,10);fill-rule:nonzero;"/>
        </g>
        <g transform="matrix(3.05189,0,0,2.87554,-351.221,-234.928)">
            <path d="M208.257,155.602C208.095,155.337 170.033,97.157 169.527,96.329C166.983,92.161 162.515,89.169 157.413,89.169C149.489,89.169 143.065,96.369 143.065,104.016C143.065,106.942 144.011,109.651 145.615,111.887C145.779,112.151 184.163,170.908 184.344,171.161C186.85,175.202 191.416,177.917 196.652,177.917C204.576,177.917 210.999,171.718 210.999,164.07C210.999,161.033 209.975,158.075 208.257,155.602Z" style="fill:rgb(1,0,10);fill-rule:nonzero;"/>
        </g>
        <g transform="matrix(3.05189,0,0,2.87554,-351.221,-234.928)">
            <path d="M182.645,172.214C182.177,171.501 179.541,167.472 175.85,161.825C172.162,167.467 169.524,171.502 169.056,172.214C167.54,174.661 165.438,176.595 162.987,177.917L188.686,177.917C186.245,176.593 184.157,174.654 182.645,172.214Z" style="fill:rgb(1,0,10);fill-rule:nonzero;"/>
        </g>
    </g>
</svg>
