<svg xmlns="http://www.w3.org/2000/svg" xml:space="preserve" style="fill-rule:evenodd;clip-rule:evenodd;stroke-linejoin:round;stroke-miterlimit:2" viewBox="0 0 220 219"><path d="M34.909 12.066h294.148V288.14H34.909z" style="fill:none" transform="matrix(.74656 0 0 .79234 -26.061 -9.56)"/><path d="m208.963 140.957-9.763 21.188 25.117 11.306a15.814 15.814 0 0 1-1.816-3.131l-13.538-29.363ZM249.57 158.106l.012-.004-24.831-53.842a15.756 15.756 0 0 1-1.377 5.423l-13.31 28.886 14.254 30.913c2.13 4.913 7.018 8.352 12.715 8.352 7.652 0 13.856-6.204 13.856-13.856 0-2.102-.482-4.087-1.319-5.872ZM222.813 103.108c0-7.652-6.204-13.856-13.857-13.856-5.383 0-10.039 3.076-12.332 7.559l-.008-.003-.209.452c-.086.184-.177.365-.255.553l-27.802 60.289.012.004a13.792 13.792 0 0 0-1.32 5.872c0 7.652 6.205 13.856 13.857 13.856 5.696 0 10.584-3.439 12.715-8.352l.003.001 27.941-60.637a13.79 13.79 0 0 0 1.255-5.738Z" style="fill:#231f20;fill-rule:nonzero" transform="matrix(2.24546 0 0 2.24546 -357.963 -192.035)"/></svg>