<svg xmlns="http://www.w3.org/2000/svg" viewBox="0 0 24 24" role="img"><title>Eclipse icon</title><path d="M 5.515625 12.417969 C 5.417969 8.785156 8.136719 5.578125 11.667969 5 C 8.890625 5.046875 6.679688 6.183594 5.289062 8.613281 C 3.816406 11.175781 3.917969 13.792969 5.558594 16.25 C 7 18.414062 9.113281 19.410156 11.699219 19.429688 C 8.0625 18.804688 5.601562 15.679688 5.515625 12.417969 Z M 6.242188 10.019531 C 6.167969 10.21875 6.175781 10.222656 6.394531 10.222656 L 19.46875 10.222656 C 19.46875 10.203125 19.476562 10.191406 19.472656 10.179688 C 19.457031 10.132812 19.445312 10.082031 19.429688 10.035156 C 18.910156 8.484375 17.933594 7.285156 16.585938 6.390625 C 15.058594 5.375 13.355469 5.082031 11.578125 5.414062 C 8.925781 5.910156 7.1875 7.519531 6.242188 10.019531 Z M 6.113281 11.003906 C 6.023438 10.988281 6 11.035156 5.988281 11.113281 C 5.960938 11.316406 5.9375 11.515625 5.925781 11.71875 C 5.917969 11.804688 5.933594 11.828125 6.019531 11.824219 C 6.726562 11.820312 7.433594 11.820312 8.140625 11.820312 C 8.179688 11.820312 8.21875 11.824219 8.257812 11.824219 L 17.421875 11.824219 C 17.460938 11.824219 17.5 11.820312 17.539062 11.820312 C 18.238281 11.820312 18.941406 11.820312 19.640625 11.828125 C 19.742188 11.828125 19.753906 11.785156 19.746094 11.707031 C 19.722656 11.523438 19.691406 11.335938 19.6875 11.152344 C 19.679688 11.019531 19.628906 11 19.511719 11 C 15.082031 11.003906 10.65625 11.003906 6.230469 11.003906 C 6.191406 11.003906 6.152344 11.007812 6.113281 11.003906 Z M 19.644531 12.601562 C 18.941406 12.605469 18.242188 12.609375 17.539062 12.609375 C 17.5 12.609375 17.460938 12.605469 17.421875 12.605469 L 8.257812 12.605469 C 8.21875 12.605469 8.179688 12.609375 8.140625 12.609375 C 7.433594 12.609375 6.726562 12.605469 6.023438 12.601562 C 5.945312 12.601562 5.917969 12.617188 5.925781 12.703125 C 5.941406 12.914062 5.960938 13.121094 5.992188 13.328125 C 6 13.390625 6.011719 13.425781 6.089844 13.425781 C 6.820312 13.421875 7.546875 13.417969 8.273438 13.417969 C 8.320312 13.417969 8.363281 13.425781 8.410156 13.425781 L 17.269531 13.425781 C 17.316406 13.425781 17.359375 13.417969 17.40625 13.417969 C 18.128906 13.417969 18.851562 13.421875 19.574219 13.425781 C 19.632812 13.425781 19.671875 13.417969 19.675781 13.34375 C 19.699219 13.132812 19.722656 12.917969 19.746094 12.707031 C 19.757812 12.621094 19.722656 12.601562 19.644531 12.601562 Z M 8.207031 13.113281 L 8.207031 13.109375 Z M 19.316406 14.207031 C 15 14.203125 10.679688 14.203125 6.359375 14.203125 C 6.308594 14.203125 6.25 14.175781 6.207031 14.230469 C 6.191406 14.304688 6.230469 14.363281 6.253906 14.425781 C 7.167969 17.171875 10.183594 19.851562 14.382812 18.964844 C 16.078125 18.605469 17.390625 17.640625 18.433594 16.285156 C 18.890625 15.691406 19.238281 15.035156 19.445312 14.308594 C 19.523438 14.128906 19.367188 14.207031 19.316406 14.207031 Z M 19.316406 14.207031 "/></svg>
