<svg role="img" viewBox="0 0 24 24" xmlns="http://www.w3.org/2000/svg"><title>Egnyte icon</title><path d="M11.523 13.796l.304.412 1.378-1.016-.304-.413zm2.403-3.037h.513V9.047h-.513zm1.531 2.02l-.304.413 1.379 1.016.304-.412zm-1.278-1.257l-1.835-1.353-.864.637 2.185 1.61.005.007v2.53h1.025v-2.538l2.183-1.61-.862-.637zm7.845 2.097v-.583h1.766v-.804h-1.766v-.557h1.95v-.867h-2.96v3.678H24v-.867zM17.342 11.7h1.103v2.785h1.02v-2.785h1.103v-.893h-3.226zm-7.357 1.051l-1.513-1.944H7.52v3.678h1.01v-2.018l1.57 2.018h.894v-3.678h-1.01zm-4.724.33h.725v.448c-.152.1-.342.152-.588.152-.584 0-1-.425-1-1.02v-.01c0-.562.411-1.009.942-1.009.362 0 .625.126.888.347l.599-.72c-.39-.336-.846-.536-1.493-.536-1.14 0-1.981.841-1.981 1.913v.01c0 1.115.857 1.903 2.002 1.903.668 0 1.209-.247 1.598-.567v-1.656H5.26zm-4.252-.046h1.766v-.804H1.009v-.557h1.95v-.867H0v3.678h2.985v-.867H1.009"/></svg>