<svg role="img" viewBox="0 0 24 24" xmlns="http://www.w3.org/2000/svg"><title>Egyptair</title><path d="m11.481.041-.172.013-.171.014a20.6 20.6 0 0 0-1.025.115c-.472.065-.98.15-1.593.265-1.886.345-3.853.843-4.425 1.12-.557.264-1.865 1.939-2.627 3.352a13.2 13.2 0 0 0-.719 1.63 1.4 1.4 0 0 0-.043.151c-.008.033-.004.058.008.076l-.006-.009-.006-.005c.008.006.007.008.005.006h.001l.005-.002.018-.008c.015-.007.036-.019.064-.035.054-.032.132-.079.227-.138.19-.12.449-.287.729-.474 1.865-1.24 2.462-1.585 3.488-2.016 2.982-1.249 6.078-1.891 9.611-1.982 1.355-.038 2.251.019 3.843.249 1.833.263 2.761.455 3.94.824.623.196.974.304 1.163.35a.52.52 0 0 0 .177.026c.014.001.026-.006.024-.015.006-.007.001-.018-.004-.031-.041-.094-.577-.493-.974-.728-1.375-.809-3.806-1.771-5.434-2.154C16.365.352 15.113.17 13.568.06c-1.087-.076-1.226-.077-2.087-.019m1.211 2.945-.154.02-.157.022c-.105.016-.213.032-.322.05a27.8 27.8 0 0 0-2.069.435c-.932.235-1.839.514-2.547.794-2.328.919-4.857 2.48-6.794 4.185l-.484.426-.046.335c-.114.847-.145 1.479-.098 2.02.031.379.085.825.137 1.177.026.176.051.328.073.437.011.054.022.097.03.127a.3.3 0 0 0 .018.042c0 .003.002.003.004.003.067 0 .392-.378.855-1 .995-1.326 2.184-2.466 4.111-3.936C7.386 6.49 10.08 5.155 13.058 4.25c1.617-.494 3.142-.786 4.44-.848.314-.014.477-.022.562-.04.043-.008.068-.018.078-.035.016-.013.014-.034.014-.059s.002-.046-.014-.059c-.01-.017-.035-.027-.078-.035-.084-.018-.248-.026-.562-.04a29 29 0 0 1-1.484-.129c-.984-.115-2.498-.12-3.322-.019m6.696 1.115-.162.035a9.5 9.5 0 0 0-1.108.319 8.8 8.8 0 0 0-1.133.484c-.685.354-1.205.759-1.414 1.14l-.108.196.201-.115c.108-.062.412-.258.679-.435.263-.182.511-.326.552-.326.036 0 .175.1.304.22.294.273.803.498 1.2.531.237.02.35.005.567-.081.443-.177.68-.488.803-1.077a.96.96 0 0 1 .061-.204.17.17 0 0 1 .102-.09c.096-.021.255.016.553.102.35.101.456.114.545.078.109-.061.168-.206.164-.356 0-.151-.057-.312-.173-.387-.203-.148-1.02-.158-1.633-.034m-.236.484a.143.143 0 0 1 .092.032c.023.022.04.052.053.092a.77.77 0 0 1-.007.34c-.064.316-.229.534-.463.647-.237.109-.544.112-.897-.01a2.12 2.12 0 0 1-.453-.242c-.142-.098-.201-.196-.201-.242 0-.003.049-.016.045-.022a.066.066 0 0 0-.035-.022c-.009-.001-.021.002-.021.002l.039-.022c.05-.031.123-.068.21-.11a8.4 8.4 0 0 1 .653-.271c.381-.139.741-.22.85-.191.04.009.139.019.139.019m-4.429-.072-.125.022-.126.023c-.085.017-.171.034-.258.053a15.4 15.4 0 0 0-1.683.477c-.791.269-1.628.61-2.47 1.01-1.576.742-2.782 1.551-4.373 2.93-1.257 1.087-2.256 2.198-3.266 3.629-.917 1.298-1.37 2.03-1.478 2.404-.083.288.005.536.525 1.494.314.574.609 1.052.834 1.362.112.155.207.268.278.33.035.032.065.052.088.055.011.004.022.003.029-.004.008-.002.014-.013.019-.027.015-.038.102-.304.205-.601.329-.976.855-2.173 1.339-3.074.85-1.565 3.178-4.462 4.796-5.97 1.148-1.073 1.833-1.547 4.012-2.772a99 99 0 0 0 1.713-.982c.204-.12.363-.217.471-.286.107-.068.165-.11.165-.121 0-.003 0-.006-.004-.006-.002-.003-.005-.004-.01-.006a.17.17 0 0 0-.04-.006 1.1 1.1 0 0 0-.149.002 5.1 5.1 0 0 0-.493.064m8.443.574-.196.058a9.7 9.7 0 0 0-.679.243 21.15 21.15 0 0 0-3.174 1.6c-.819.508-1.494 1.049-2.74 2.203a382 382 0 0 0-1.189 1.101l-.014.015c-.001.002 0 .001 0 0a.04.04 0 0 0 .006-.013.06.06 0 0 0-.004-.033c-.007-.013-.034-.026-.046-.026a.05.05 0 0 0-.018.004.06.06 0 0 0-.022.025c-.003.008-.001.02-.002.018a.44.44 0 0 0-.039-.061l-.186-.264c-.284-.398-.597-.99-.655-1.245a.345.345 0 0 0-.06-.141c-.007-.008-.015-.012-.022-.012-.031 0-.165.105-.304.234-.886.824-2.58 3.984-3.24 6.038-.896 2.801-1.298 4.807-1.452 7.292-.036.565-.043.939-.013.988.121.071 1.79.563 2.284.669.242.052.582.11.762.129l.325.034.062.006-.062-.006.005.057-.005-.057-.041-.522c-.062-.781-.041-2.978.031-3.658.216-2.03.7-3.769 1.576-5.674.51-1.106.525-1.135 1.262-2.255a17.13 17.13 0 0 1 3.41-3.811c1.55-1.274 1.942-1.523 3.636-2.332.752-.357 1.17-.567 1.291-.659a.15.15 0 0 0 .031-.029c.003-.004.006-.007.006-.01.002-.003.002-.007-.002-.008.001-.007-.011-.008-.022-.007a.3.3 0 0 0-.049.002 4.3 4.3 0 0 0-.451.107m-9.112.853s-.088.044-.132.068c-.045.023-.09.048-.136.073a13.5 13.5 0 0 0-.904.562c-.44.299-.937.666-1.512 1.116-1.323 1.029-2.297 2.03-3.343 3.433-1.936 2.6-3.08 5.109-3.816 8.365l-.088.388-.005.022.005-.022-.015-.018.015.018.165.191c.443.522 1.756 1.508 2.4 1.805.201.091.381.168.397.168.001 0 .002 0 .001-.001l.002-.003a.05.05 0 0 0 .003-.011c.002-.01.005-.024.007-.043a13 13 0 0 0 .043-.675c.124-2.633.83-5.094 2.184-7.622.938-1.748 1.303-2.255 3.081-4.261 1.014-1.154 1.535-1.782 1.566-1.893.025-.091.072-.372.092-.626.047-.44.083-.541.417-1.159.006-.011.01-.018.006-.022.003-.007-.006-.012-.014-.011-.014-.006-.042 0-.08.011a2.3 2.3 0 0 0-.339.147"/></svg>
