<svg role="img" viewBox="0 0 24 24" xmlns="http://www.w3.org/2000/svg"><title>Egyptair</title><path d="m11.481.038-.172.013-.171.014a21 21 0 0 0-1.025.115c-.472.065-.98.15-1.593.265-1.886.345-3.853.843-4.425 1.12-.557.264-1.865 1.939-2.627 3.352a13 13 0 0 0-.719 1.63 1 1 0 0 0-.043.151q-.011.05.008.076l-.006-.009-.006-.005c.008.006.007.008.005.006h.001l.005-.002.018-.008q.022-.01.064-.035q.083-.049.227-.138c.19-.12.449-.287.729-.474 1.865-1.24 2.462-1.585 3.488-2.016 2.982-1.249 6.078-1.891 9.611-1.982 1.355-.038 2.251.019 3.843.249 1.833.263 2.761.455 3.94.824.623.196.974.304 1.163.35a.5.5 0 0 0 .177.026c.014.001.026-.006.024-.015.006-.007.001-.018-.004-.031-.041-.094-.577-.493-.974-.728-1.375-.809-3.806-1.771-5.434-2.154C16.365.349 15.113.167 13.568.057c-1.087-.076-1.226-.077-2.087-.019m1.211 2.945-.154.02-.157.022-.322.05a28 28 0 0 0-2.069.435c-.932.235-1.839.514-2.547.794-2.328.919-4.857 2.48-6.794 4.185l-.484.426-.046.335c-.114.847-.145 1.479-.098 2.02.031.379.085.825.137 1.177.026.176.051.328.073.437q.017.082.03.127l.018.042q0 .004.004.003c.067 0 .392-.378.855-1 .995-1.326 2.184-2.466 4.111-3.936C7.386 6.487 10.08 5.152 13.058 4.247c1.617-.494 3.142-.786 4.44-.848.314-.014.477-.022.562-.04q.064-.01.078-.035c.016-.013.014-.034.014-.059s.002-.046-.014-.059q-.014-.024-.078-.035c-.084-.018-.248-.026-.562-.04a29 29 0 0 1-1.484-.129c-.984-.115-2.498-.12-3.322-.019m6.696 1.115-.162.035a10 10 0 0 0-1.108.319 9 9 0 0 0-1.133.484c-.685.354-1.205.759-1.414 1.14l-.108.196.201-.115c.108-.062.412-.258.679-.435.263-.182.511-.326.552-.326.036 0 .175.1.304.22.294.273.803.498 1.2.531.237.02.35.005.567-.081.443-.177.68-.488.803-1.077a1 1 0 0 1 .061-.204.17.17 0 0 1 .102-.09c.096-.021.255.016.553.102.35.101.456.114.545.078.109-.061.168-.206.164-.356 0-.151-.057-.312-.173-.387-.203-.148-1.02-.158-1.633-.034m-.236.484a.14.14 0 0 1 .092.032q.034.032.053.092a.8.8 0 0 1-.007.34c-.064.316-.229.534-.463.647-.237.109-.544.112-.897-.01a2 2 0 0 1-.453-.242c-.142-.098-.201-.196-.201-.242 0-.003.049-.016.045-.022a.1.1 0 0 0-.035-.022c-.009-.001-.021.002-.021.002l.039-.022c.05-.031.123-.068.21-.11a8 8 0 0 1 .653-.271c.381-.139.741-.22.85-.191.04.009.139.019.139.019m-4.429-.072-.125.022-.126.023q-.128.025-.258.053a15 15 0 0 0-1.683.477c-.791.269-1.628.61-2.47 1.01-1.576.742-2.782 1.551-4.373 2.93-1.257 1.087-2.256 2.198-3.266 3.629-.917 1.298-1.37 2.03-1.478 2.404-.083.288.005.536.525 1.494.314.574.609 1.052.834 1.362.112.155.207.268.278.33q.053.05.088.055q.017.006.029-.004q.012-.005.019-.027c.015-.038.102-.304.205-.601.329-.976.855-2.173 1.339-3.074.85-1.565 3.178-4.462 4.796-5.97 1.148-1.073 1.833-1.547 4.012-2.772a99 99 0 0 0 1.713-.982q.308-.181.471-.286c.107-.068.165-.11.165-.121q.001-.005-.004-.006q-.003-.004-.01-.006a.2.2 0 0 0-.04-.006 1 1 0 0 0-.149.002 5 5 0 0 0-.493.064m8.443.574-.196.058a10 10 0 0 0-.679.243 21 21 0 0 0-3.174 1.6c-.819.508-1.494 1.049-2.74 2.203l-1.189 1.101-.014.015q0 .002 0 0l.006-.013a.1.1 0 0 0-.004-.033c-.007-.013-.034-.026-.046-.026l-.018.004a.1.1 0 0 0-.022.025c-.003.008-.001.02-.002.018a.4.4 0 0 0-.039-.061l-.186-.264c-.284-.398-.597-.99-.655-1.245a.35.35 0 0 0-.06-.141q-.011-.012-.022-.012c-.031 0-.165.105-.304.234-.886.824-2.58 3.984-3.24 6.038-.896 2.801-1.298 4.807-1.452 7.292-.036.565-.043.939-.013.988.121.071 1.79.563 2.284.669.242.052.582.11.762.129l.325.034.062.006.005.057-.041-.522c-.062-.781-.041-2.978.031-3.658.216-2.03.7-3.769 1.576-5.674.51-1.106.525-1.135 1.262-2.255a17.1 17.1 0 0 1 3.41-3.811c1.55-1.274 1.942-1.523 3.636-2.332.752-.357 1.17-.567 1.291-.659a.2.2 0 0 0 .031-.029q.005-.006.006-.01q.003-.005-.002-.008c.001-.007-.011-.008-.022-.007a.3.3 0 0 0-.049.002 4 4 0 0 0-.451.107m-9.112.853s-.088.044-.132.068l-.136.073a14 14 0 0 0-.904.562c-.44.299-.937.666-1.512 1.116-1.323 1.029-2.297 2.03-3.343 3.433-1.936 2.6-3.08 5.109-3.816 8.365l-.088.388-.005.022-.015-.018.165.191c.443.522 1.756 1.508 2.4 1.805.201.091.381.168.397.168q.002 0 .001-.001l.002-.003.003-.011q.004-.015.007-.043a13 13 0 0 0 .043-.675c.124-2.633.83-5.094 2.184-7.622.938-1.748 1.303-2.255 3.081-4.261 1.014-1.154 1.535-1.782 1.566-1.893.025-.091.072-.372.092-.626.047-.44.083-.541.417-1.159q.01-.016.006-.022c.003-.007-.006-.012-.014-.011q-.022-.007-.08.011a2.3 2.3 0 0 0-.339.147"/></svg>