<svg role="img" viewBox="0 0 24 24" xmlns="http://www.w3.org/2000/svg"><title>Elasticsearch icon</title><path d="M11.2646 15.5962H1.5429A11.8856 11.8856 0 011 11.9934c0-1.258.18-2.466.543-3.603h15.9615a3.5929 3.5929 0 013.6028 3.603 3.5829 3.5829 0 01-3.5718 3.6028zm-.453 1.208H1.9859a11.8756 11.8756 0 004.4178 5.2128A11.8756 11.8756 0 0013.0065 24c4.1759 0 7.8298-2.134 9.9937-5.3339a6.1198 6.1198 0 00-4.3789-1.8719zm7.8097-9.6117a6.1198 6.1198 0 004.3789-1.862 12.0366 12.0366 0 00-21.0143 1.862h8.7957z"/></svg>