<svg role="img" viewBox="0 0 24 24" xmlns="http://www.w3.org/2000/svg"><title>Elastic Cloud icon</title><path d="M22.669 19.5a12.005 12.005 0 01-9.363 4.5 12.005 12.005 0 01-9.363-4.5 12.005 12.005 0 019.363-4.481c3.777 0 7.173 1.768 9.363 4.5zm-12.357-7.495c0-1.527 1.256-3.004 2.632-3.004h.422c3.928 0 7.133-1.768 9.333-4.5A12.105 12.105 0 0013.306 0a12.005 12.005 0 00-9.363 4.5 11.884 11.884 0 00-2.642 7.505c0 1.949.452 3.777 1.296 5.405a14.366 14.366 0 017.886-4.47c-.09-.302-.18-.634-.18-.935z"/></svg>