<svg aria-labelledby="simpleicons-elastic-icon" role="img" viewBox="0 0 24 24" xmlns="http://www.w3.org/2000/svg"><title id="simpleicons-elastic-icon">Elastic icon</title><g transform="matrix(.08745 0 0 -.08745 -21.447 55.432)"><path d="M477.61 447.305l-45.126 10.555-11.985 22.905 59.023 51.709c17.502-6.63 29.17-23.414 29.17-42.198 0-19.333-12.745-36.911-31.082-42.971m-33.924-53.357c-7.03 0-13.917 2.359-19.543 6.684l8.921 46.482 40.991-9.592c1.302-3.538 1.96-7.314 1.96-11.246 0-17.828-14.5-32.328-32.329-32.328m-30.066 6.683a67.489 67.489 0 0 0-55.946-29.65c-37.337 0-67.713 30.375-67.713 67.706 0 4.583.447 9.11 1.322 13.476l58.901 53.234 60.1-27.393 13.307-25.427zM256.268 503.02c0 19.326 12.744 36.897 31.074 42.97l45.025-10.635 10.568-22.581-57.559-52.027c-17.469 6.65-29.108 23.455-29.108 42.273m65.005 96.329a32.39 32.39 0 0 0 19.645-6.63l-8.989-46.644-41.025 9.686c-1.302 3.539-1.959 7.315-1.959 11.253 0 17.829 14.5 32.335 32.328 32.335m30.336-6.718c12.63 18.39 33.405 29.359 55.681 29.359 37.235 0 67.523-30.294 67.523-67.53 0-4.555-.427-8.907-1.302-13.273l-60.399-52.922-59.863 27.29-11.687 24.954zm167.663-102.484c0 22.93-14.217 42.976-35.61 50.776a76.32 76.32 0 0 1 1.43 14.7c0 42.623-34.677 77.3-77.307 77.3-24.9 0-48.065-11.941-62.62-32.063a40.881 40.881 0 0 1-25.115 8.595c-22.625 0-41.032-18.407-41.032-41.032 0-5 .892-9.785 2.566-14.3-21.27-7.675-35.895-28.191-35.895-50.976 0-23.047 14.286-43.182 35.777-50.927a78.382 78.382 0 0 1-1.41-14.694c0-42.526 34.594-77.12 77.12-77.12 24.962 0 48.113 11.99 62.586 32.195 7.205-5.656 16.014-8.761 25.15-8.761 22.624 0 41.031 18.4 41.031 41.025 0 5-.892 9.79-2.565 14.307 21.27 7.668 35.894 28.19 35.894 50.975"/></g></svg>
