<svg aria-labelledby="simpleicons-elasticsearch-icon" role="img" viewBox="0 0 24 24" xmlns="http://www.w3.org/2000/svg"><title id="simpleicons-elasticsearch-icon">Elasticsearch icon</title><path d="M13.194 0C11.446 0 9.787.375 8.29 1.047a14.804 14.804 0 0 1 3.914 5.693h6.38a5.45 5.45 0 0 0 4.192-1.963A11.978 11.978 0 0 0 13.194 0zM7.307 1.547a12.055 12.055 0 0 0-4.9 5.193H11.1a13.752 13.752 0 0 0-3.793-5.193zM1.677 8.63a11.996 11.996 0 0 0 0 6.738h10.052a13.756 13.756 0 0 0 0-6.738zm11.106 0c.255 1.083.393 2.21.393 3.369s-.138 2.286-.393 3.37h4.19a3.369 3.369 0 1 0 0-6.74zM2.406 17.26c1.07 2.188 2.788 4 4.9 5.193A13.752 13.752 0 0 0 11.1 17.26zm9.795 0a14.8 14.8 0 0 1-3.912 5.693A11.953 11.953 0 0 0 13.193 24a11.98 11.98 0 0 0 9.612-4.814 5.445 5.445 0 0 0-4.156-1.926z" fill-rule="evenodd"/></svg>
