<svg aria-labelledby="simpleicons-elasticcloud-icon" role="img" viewBox="0 0 24 24" xmlns="http://www.w3.org/2000/svg"><title id="simpleicons-elasticcloud-icon">Elastic Cloud icon</title><path d="M22.616 19.465a11.948 11.948 0 0 1-9.317 4.48 11.948 11.948 0 0 1-9.317-4.48 11.948 11.948 0 0 1 9.317-4.479c3.763 0 7.137 1.762 9.317 4.48zM10.313 12c0-1.523 1.254-2.986 2.628-2.986h.418c3.912 0 7.107-1.762 9.287-4.48-2.21-2.717-5.584-4.479-9.347-4.479a11.948 11.948 0 0 0-9.317 4.48A11.828 11.828 0 0 0 1.354 12c0 1.941.448 3.763 1.284 5.375 2.09-2.33 4.868-3.852 7.854-4.45-.09-.298-.18-.626-.18-.925z"/></svg>
