<svg aria-labelledby="simpleicons-elasticsearch-icon" role="img" viewBox="0 0 24 24" xmlns="http://www.w3.org/2000/svg"><title id="simpleicons-elasticsearch-icon">Elastic Search icon</title><path d="M11.27 15.579H1.606A11.814 11.814 0 0 1 1.07 12c0-1.253.179-2.446.537-3.579h15.866A3.57 3.57 0 0 1 21.05 12c0 1.968-1.58 3.579-3.549 3.579zm-.448 1.193H2.054a11.792 11.792 0 0 0 4.384 5.189 11.802 11.802 0 0 0 6.561 1.968c4.146 0 7.784-2.117 9.931-5.308a6.082 6.082 0 0 0-4.354-1.85zm7.754-9.544c1.7 0 3.25-.716 4.354-1.849C20.783 2.19 17.145.071 13 .071c-2.417 0-4.683.715-6.562 1.968-1.909 1.253-3.43 3.072-4.384 5.19h8.738z"/></svg>
