<svg role="img" viewBox="0 0 24 24" xmlns="http://www.w3.org/2000/svg"><title>Electron icon</title><path d="M2.6228 11.6438c-1.0405-1.816-1.2526-3.5148-.5123-4.7954.9905-1.7169 3.4778-2.3162 6.6234-1.7439a.3232.3232 0 11-.1161.6353c-2.9085-.5302-5.1256.005-5.949 1.4318-.6063 1.0505-.4242 2.5162.5143 4.152a.3232.3232 0 11-.5603.3202zm14.9625-6.087c1.841.024 3.1646.5982 3.7619 1.6308.8214 1.4227.18 3.6048-1.7229 5.8529a.3232.3232 0 10.4903.4182c2.061-2.4332 2.7794-4.8804 1.7909-6.5933-.7284-1.2606-2.2662-1.926-4.3122-1.953a.3232.3232 0 10-.007.6443zm-1.859 15.2826a.3232.3232 0 00-.4432.11c-.9374 1.5579-2.086 2.4063-3.2696 2.4063-1.6468 0-3.2166-1.6518-4.2121-4.4312a.3232.3232 0 10-.6073.218C8.2686 22.1492 10.0315 24 12.0105 24c1.4437 0 2.7814-.9845 3.824-2.7174a.3232.3232 0 00-.1101-.4432zm7.3768-2.6013a1.5448 1.5448 0 01-2.4433 1.2536c-2.4612 1.4488-7.1666.7114-11.5928-1.8459-1.885-1.0875-3.5368-2.3982-4.8084-3.7949a.3232.3232 0 11.4772-.4342c1.2257 1.3467 2.8255 2.6163 4.6534 3.6708 4.179 2.4132 8.5773 3.1286 10.8274 1.911a1.5448 1.5448 0 112.8865-.7604zm-19.1166 0a1.5448 1.5448 0 11-2.2912-1.3487c-.233-2.8854 2.7984-6.7534 7.3807-9.3987 1.904-1.0995 3.885-1.88 5.748-2.2771a.3232.3232 0 01.135.6293c-1.795.3852-3.7139 1.1406-5.5608 2.2061-4.3162 2.4912-7.1686 6.084-7.0676 8.6513.038-.003.075-.006.1131-.006.8524 0 1.5438.6924 1.5438 1.5448zm6.4832-16.7614a1.5448 1.5448 0 013.0866 0c0 .023-.002.045-.003.067 2.5553 1.3207 4.3321 5.827 4.3321 11.0346 0 2.141-.3001 4.195-.8564 5.976a.3232.3232 0 11-.6163-.1921c.5373-1.7169.8274-3.7079.8274-5.784 0-4.9044-1.6308-9.1205-3.858-10.3921a1.5428 1.5428 0 01-2.9134-.7094zm1.3067 10.009a1.1176 1.1176 0 10.4722 2.1841 1.1176 1.1176 0 00-.4722-2.184z"/></svg>