<svg role="img" viewBox="0 0 24 24" xmlns="http://www.w3.org/2000/svg"><title>Electron icon</title><path d="M2.627 11.65c-1.04-1.815-1.252-3.513-.512-4.793.99-1.716 3.476-2.315 6.62-1.743a.323.323 0 11-.116.635c-2.907-.53-5.123.005-5.946 1.431-.606 1.05-.424 2.515.514 4.15a.323.323 0 11-.56.32zm14.955-6.084c1.84.024 3.163.598 3.76 1.63.821 1.422.18 3.603-1.722 5.85a.323.323 0 10.49.418c2.06-2.432 2.778-4.878 1.79-6.59-.728-1.26-2.265-1.925-4.31-1.952a.323.323 0 10-.007.644zm-1.858 15.275a.323.323 0 00-.443.11c-.937 1.557-2.085 2.405-3.268 2.405-1.646 0-3.215-1.651-4.21-4.429a.323.323 0 10-.607.218C8.27 22.15 10.032 24 12.01 24c1.443 0 2.78-.984 3.822-2.716a.323.323 0 00-.11-.443zm7.373-2.6a1.544 1.544 0 01-2.442 1.253c-2.46 1.448-7.163.711-11.587-1.845-1.884-1.087-3.535-2.397-4.806-3.793a.323.323 0 11.477-.434c1.225 1.346 2.824 2.615 4.651 3.669 4.177 2.412 8.573 3.127 10.822 1.91a1.544 1.544 0 112.885-.76zm-19.107 0a1.544 1.544 0 11-2.29-1.348c-.233-2.884 2.797-6.75 7.377-9.394C10.98 6.4 12.96 5.62 14.822 5.223a.323.323 0 01.135.629c-1.794.385-3.712 1.14-5.558 2.205-4.314 2.49-7.165 6.081-7.064 8.647.038-.003.075-.006.113-.006.852 0 1.543.692 1.543 1.544zm6.48-16.753a1.544 1.544 0 013.085 0c0 .023-.002.045-.003.067 2.554 1.32 4.33 5.824 4.33 11.029 0 2.14-.3 4.193-.856 5.973a.323.323 0 11-.616-.192c.537-1.716.827-3.706.827-5.781 0-4.902-1.63-9.116-3.856-10.387a1.542 1.542 0 01-2.912-.709zm1.306 10.004a1.117 1.117 0 10.472 2.183 1.117 1.117 0 00-.472-2.183z"/></svg>