<svg role="img" viewBox="0 0 24 24" xmlns="http://www.w3.org/2000/svg"><title>Element icon</title><path d="M12 0C5.373 0 0 5.372 0 12c0 6.627 5.373 12 12 12s12-5.373 12-12c0-6.628-5.373-12-12-12zm-1.314 4.714c3.289 0 5.957 2.662 5.957 5.945a.88.88 0 0 1-1.758 0 4.196 4.196 0 0 0-4.199-4.191.878.878 0 1 1 0-1.754zm-5.092 9.505a.88.88 0 0 1-.879-.877c0-3.283 2.667-5.944 5.957-5.944.484 0 .879.393.879.877s-.395.877-.879.877a4.195 4.195 0 0 0-4.199 4.19.88.88 0 0 1-.879.877zm7.736 5.067c-3.291 0-5.957-2.662-5.957-5.944a.879.879 0 0 1 1.758 0 4.194 4.194 0 0 0 4.199 4.189.879.879 0 1 1 0 1.755zm0-2.683a.879.879 0 0 1-.88-.876.88.88 0 0 1 .88-.878 4.195 4.195 0 0 0 4.199-4.189.878.878 0 0 1 1.758 0c0 3.281-2.668 5.943-5.957 5.943z"/></svg>