<svg role="img" viewBox="0 0 24 24" xmlns="http://www.w3.org/2000/svg"><title>ElevenLabs</title>
  <path d="M 5.094 4.096 C 5.094 2.846 5.101 1.63 5.09 0.415 C 5.087 0.129 5.159 0.001 5.479 0.003 C 6.83 0.015 8.18 0.01 9.531 0 C 9.746 -0.001 9.836 0.063 9.817 0.273 C 9.807 0.343 9.817 0.411 9.817 0.481 C 9.817 8.141 9.816 15.804 9.816 23.463 C 9.816 23.996 9.816 23.996 9.285 23.996 C 8.072 23.996 6.86 23.996 5.651 23.996 C 5.096 23.994 5.096 23.994 5.096 23.432 C 5.094 16.997 5.094 10.565 5.094 4.096 Z M 16.225 23.996 C 15.689 23.996 15.189 23.996 14.687 23.994 C 14.177 23.991 14.177 23.991 14.177 23.5 C 14.176 21.633 14.176 19.761 14.176 17.893 C 14.176 12.1 14.176 6.307 14.176 0.514 C 14.176 0.011 14.177 0.01 14.694 0.01 C 15.965 0.008 17.235 0.015 18.505 0.003 C 18.797 0 18.91 0.074 18.91 0.387 C 18.903 8.13 18.903 15.871 18.91 23.616 C 18.91 23.933 18.782 24.005 18.496 24 C 17.75 23.991 17.005 23.996 16.225 23.996 Z"/>
</svg>