<svg xmlns="http://www.w3.org/2000/svg" viewBox="0 0 24 24" role="img"><title>El Jueves icon</title><path d="M22.4969 13.7587c1.0582 0 1.5031-.3969 1.5031-1.1364 0-.7394-.403-.9259-1.1905-1.0222-.3788-.048-.475-.084-.475-.1923 0-.108.0901-.1683.3547-.1683.2466 0 .4088.0842.5051.2225h.6855v-.8298c-.3067-.096-.6676-.1622-1.2507-.1622-.8899 0-1.4549.3366-1.4549 1.07 0 .7156.4029.962 1.0942 1.0402.409.042.511.0782.511.2105 0 .1323-.1442.1924-.3547.1924-.2403 0-.4568-.1083-.553-.2828h-.6914v.884c.2824.0902.6793.1744 1.3166.1744zm-1.4235-1.359c0-.042.0121-.1622.0121-.3125 0-1.1122-.5052-1.6172-1.5813-1.6172-1.0642 0-1.7196.6493-1.7196 1.6652 0 1.0042.499 1.6234 1.7376 1.6234.7276 0 1.1483-.1262 1.437-.2886v-.7635h-.6914c-.1204.1563-.2828.2706-.6073.2706-.3607 0-.517-.1744-.5593-.5772h1.9722zm-1.5692-1.1783c.2285 0 .3308.1503.3607.5592h-.7575c.042-.4089.1622-.5592.3968-.5592zm-3.9956 2.483h1.1724l.968-2.2003c.036-.0963.1444-.1864.2284-.1864h.0663V10.53h-1.5692v.7875h.0542c.1742 0 .2041.1142.144.2706l-.3184.8537h-.018l-.397-1.1243h.2947V10.53h-1.846v.7875h.0904c.066 0 .1503.0722.1743.1384zm-1.2432-1.3046c0-.042.012-.1623.012-.3126 0-1.1122-.505-1.6172-1.5812-1.6172-1.0641 0-1.7194.6493-1.7194 1.6652 0 1.0042.4989 1.6234 1.7375 1.6234.7274 0 1.1484-.1262 1.4369-.2886v-.7635h-.6914c-.1203.1563-.2825.2706-.6073.2706-.3607 0-.5169-.1744-.5592-.5772h1.9721zm-1.5692-1.1784c.2284 0 .3308.1503.3607.5592h-.7574c.042-.4089.1621-.5592.3967-.5592zm-4.452 2.5373c.505 0 .8416-.2044 1.1122-.4871.0361.3428.1204.4329.2405.4329h1.3469v-.7394h-.1384c-.06 0-.1443-.0963-.1443-.1503V10.53H9.0258v.7875h.3186v1.467a1.3824 1.3824 0 0 1-.2344.024c-.2645 0-.3908-.054-.3908-.3006V10.53H7.1319v.7876h.1262c.0542 0 .1444.0901.1444.1504v1.5331c0 .5831.4208.7576.8416.7576zm-4.8787-.0542h1.96v-.7394h-.1803c-.0602 0-.1443-.0902-.1443-.1503V9.7605c0-.1623-.0722-.2646-.1924-.2646h-1.455v.7695h.1864c.0601 0 .1443.0901.1443.1504v2.399c0 .06-.0842.1503-.1443.1503h-.1744zm-.0767-1.3047c0-.042.012-.1623.012-.3126 0-1.1122-.5051-1.6172-1.5813-1.6172C.6553 10.47 0 11.1193 0 12.1353c0 1.0042.499 1.6234 1.7375 1.6234.7276 0 1.1483-.1263 1.437-.2887v-.7635H2.483c-.1203.1563-.2826.2706-.6072.2706-.3608 0-.5172-.1744-.5593-.5772h1.9722zm-1.5693-1.1784c.2284 0 .3308.1503.3607.5592h-.7575c.042-.4089.1624-.5592.3968-.5592zm4.0318 3.5052c.7695 0 1.1784-.2465 1.1784-.98v-2.91c0-.1743-.066-.3065-.1864-.3065h-1.449v.7875h.1745c.06 0 .1443.0962.1443.1504v2.2185c0 .2165-.0722.2885-.3428.2885H5.114v.6675c.1563.042.3487.0841.6373.0841zm.517-4.3228c.3608 0 .6133-.2226.6133-.5592 0-.3428-.2525-.5712-.6132-.5712-.3549 0-.6072.2284-.6072.5712 0 .3366.2524.5592.6072.5592z"/></svg>