<svg viewBox="0 0 16 16" xmlns="http://www.w3.org/2000/svg" fill-rule="evenodd" clip-rule="evenodd" stroke-linejoin="round" stroke-miterlimit="1.414"><path d="M15.244 7.386c-.023.607-.112 1.204-.266 1.79-.155.587-.387 1.11-.696 1.572-.31.46-.703.833-1.18 1.117-.48.283-1.053.425-1.723.425-.47 0-.885-.102-1.246-.305-.36-.203-.64-.49-.842-.863-.56.756-1.314 1.134-2.258 1.134-.413 0-.788-.092-1.126-.275-.337-.183-.62-.444-.845-.785-.227-.34-.39-.75-.49-1.228-.1-.478-.122-1.012-.064-1.602.084-.72.248-1.376.488-1.962.24-.587.54-1.088.902-1.503.36-.415.774-.735 1.24-.958.468-.223.97-.335 1.508-.335.344 0 .644.026.902.077.258.052.49.122.7.21.21.09.402.19.58.306.177.114.355.232.532.352l-.438 5.04c-.03.242-.024.438.013.59.037.15.097.273.18.364.083.092.18.155.292.19.11.034.224.05.34.05.245 0 .474-.084.686-.252.21-.17.395-.403.55-.7.154-.298.277-.65.37-1.052.09-.404.145-.84.162-1.31.046-.893-.023-1.71-.206-2.448-.184-.738-.486-1.37-.906-1.894-.42-.523-.962-.93-1.624-1.22-.66-.288-1.45-.433-2.366-.433-.87 0-1.65.17-2.34.51-.69.342-1.283.813-1.778 1.414-.495.602-.883 1.31-1.164 2.127-.28.815-.443 1.7-.49 2.65-.045 1.03.038 1.93.25 2.704.212.774.54 1.42.988 1.938.446.518 1.004.906 1.674 1.164.67.257 1.44.386 2.31.386.247 0 .5-.014.756-.043.258-.028.51-.068.76-.12.25-.05.487-.11.713-.176.226-.067.43-.14.614-.22l.317 1.426c-.2.13-.43.244-.687.34-.258.093-.528.172-.812.235-.283.064-.57.11-.863.143-.292.03-.57.047-.833.047-1.162 0-2.193-.166-3.092-.498-.898-.332-1.65-.826-2.254-1.482-.604-.655-1.055-1.47-1.353-2.447-.297-.976-.423-2.11-.378-3.397.052-1.174.268-2.26.65-3.26.38-.998.902-1.86 1.566-2.59C3.636 1.6 4.43 1.032 5.356.62 6.28.206 7.31 0 8.45 0c1.134 0 2.133.18 2.998.537.864.358 1.586.86 2.164 1.51.578.65 1.006 1.428 1.284 2.333.278.905.394 1.907.348 3.006zm-8.588.98c-.063.743-.005 1.306.176 1.687.18.38.47.57.87.57.087 0 .186-.018.298-.055.11-.037.226-.106.343-.206.118-.1.234-.24.348-.42.116-.18.222-.418.32-.71l.342-3.916c-.17-.046-.35-.07-.532-.07-.344 0-.638.07-.885.203-.246.134-.455.333-.627.596-.17.264-.31.59-.416.98-.106.39-.185.835-.236 1.34z" fill-rule="nonzero"/></svg>