<svg role="img" xmlns="http://www.w3.org/2000/svg" viewBox="0 0 24 24"><title>Ember.js icon</title><path d="M12.941 2.443c-2.136.042-4.768 1.346-6.486 5.202-.82 1.84-1.098 3.583-1.266 4.904 0 0-1.877.375-2.882-.461-1.006-.837-1.534 0-1.534 0S-.959 14.114.76 14.785c1.718.671 4.394.807 4.394.807.246 1.784.852 3.5 3.055 4.933 3.694 2.404 9.176-.136 9.176-.136 3.285-1.373 5.466-3.498 6.396-4.534a.853.853 0 00-.021-1.164l-1.07-1.11a.853.853 0 00-1.157-.07c-1.429 1.171-5.186 3.94-8.76 3.94-2.903.073-2.597-1.834-2.597-1.834s10.601-3.627 7.71-10.793c-1.298-1.844-2.808-2.423-4.945-2.38zm.43 3.592c.328-.022.616.067.828.272 1.132 1.088.711 3.435-1.426 4.902-2.136 1.467-3.1 1.174-3.1 1.174.103-4.052 2.278-6.251 3.698-6.348Z"/></svg>
