<svg viewBox="0 0 16 16" xmlns="http://www.w3.org/2000/svg" fill-rule="evenodd" clip-rule="evenodd" stroke-linejoin="round" stroke-miterlimit="1.414"><path d="M10.508 10.382V6.265h1.108v.788h.016c.055-.13.13-.253.22-.365.095-.112.2-.208.322-.287.12-.07.25-.14.386-.18.137-.04.28-.06.427-.06.076 0 .16.02.254.04v1.08c-.05-.01-.12-.02-.19-.03-.07 0-.15-.01-.22-.01-.21 0-.39.04-.54.11-.15.07-.27.17-.36.29-.09.13-.15.27-.19.43-.04.17-.06.35-.06.54v1.92H8.33L5.84 6.81 4.802 7.86v2.65H2.99V2.264H4.8v3.418l3.22-3.418h2.264L7.064 5.52l3.444 4.862zm5.49-7H16v4.766c0 .22-.03.443-.086.658-.02.085-.047.17-.084.26-.16.41-.424.772-.766 1.05-.337.348-.78.732-1.312 1.14l-.074.056h.002l-.648.494c-.795.608-2.136 1.635-4.11 3.14-.32.244-.693.45-.922.45-.23 0-.6-.206-.922-.45-1.973-1.505-3.316-2.532-4.11-3.14l-.347-.265-.29-.22-.07-.05c-.53-.41-.97-.79-1.31-1.14C.6 9.84.33 9.48.17 9.07c-.034-.09-.062-.174-.08-.26C.03 8.59 0 8.37 0 8.146V3.122C0 1.732 1.113.604 2.483.604h11.033C14.884.604 16 1.734 16 3.12v.26z"/></svg>