<svg viewBox="0 0 16 16" xmlns="http://www.w3.org/2000/svg" fill-rule="evenodd" clip-rule="evenodd" stroke-linejoin="round" stroke-miterlimit="1.414"><path d="M10.508 10.382V6.265h1.108v.788h.016c.055-.13.13-.253.22-.365.095-.112.2-.208.322-.287.12-.078.25-.14.386-.184.137-.044.28-.066.427-.066.076 0 .16.014.254.04v1.085c-.054-.01-.12-.02-.196-.03-.077-.007-.15-.01-.222-.01-.213 0-.394.034-.54.106-.15.072-.268.17-.36.292-.088.123-.153.267-.19.43-.04.165-.06.343-.06.534v1.912H8.324L5.84 6.802l-1.038 1.05v2.656H2.99V2.264H4.8v3.418l3.22-3.418h2.264L7.064 5.52l3.444 4.862zm5.49-7H16v4.766c0 .22-.03.443-.086.658-.02.085-.047.17-.084.26-.16.41-.424.772-.766 1.05-.337.348-.78.732-1.312 1.14l-.074.056h.002l-.648.494c-.795.608-2.136 1.635-4.11 3.14-.32.244-.693.45-.922.45-.23 0-.6-.206-.922-.45-1.973-1.505-3.316-2.532-4.11-3.14l-.347-.265-.298-.227h.002l-.075-.056c-.534-.41-.975-.793-1.314-1.14C.594 9.84.33 9.477.17 9.067c-.036-.09-.064-.175-.083-.26C.03 8.59 0 8.368 0 8.146V3.122C0 1.733 1.113.604 2.483.604h11.033C14.884.603 16 1.733 16 3.12v.26z"/></svg>