<svg role="img" viewBox="0 0 24 24" xmlns="http://www.w3.org/2000/svg"><title>Empire Kred icon</title><path d="M23.996 4.685c0-2.08-1.674-3.774-3.727-3.774H3.72C1.665.91-.005 2.604-.005 4.69v7.536c0 .336.045.667.135.997.03.134.07.264.12.39.25.623.653 1.17 1.173 1.593.51.524 1.17 1.095 1.965 1.71l.105.074.435.33.52.397c1.19.912 3.205 2.453 6.165 4.71.483.366 1.038.676 1.383.676.343 0 .902-.31 1.383-.676 2.96-2.257 4.972-3.798 6.164-4.71l.972-.74h-.002l.11-.085c.798-.612 1.463-1.19 1.968-1.71.514-.418.908-.96 1.15-1.576.166-.44.252-.906.254-1.376v-7.15h-.003l.003-.003v-.39zm-4.14 6.242c-.093-.017-.188-.032-.283-.045-.105 0-.226-.015-.33-.015-.278-.006-.556.05-.81.164-.214.1-.4.248-.54.436-.135.196-.23.415-.286.646-.06.254-.09.524-.09.81v2.88H12.49L8.756 10.22 7.2 11.795v3.975H4.48V3.4h2.716V8.53l4.83-5.127h3.396l-4.83 4.885 5.166 7.293V9.402h1.662v1.182h.023c.084-.195.195-.38.33-.547.144-.168.3-.312.483-.43.18-.106.375-.21.58-.27.205-.06.42-.09.64-.09.114 0 .24.03.38.06v1.62z"/></svg>