<svg role="img" fill="0" height="24" viewBox="0 0 24 24" width="24" xmlns="http://www.w3.org/2000/svg"><title>Enapter</title>
  <path d="M23.476 4.038v-.525a.682.682 0 0 0-.504-.659L12.414.024a.684.684 0 0 0-.352 0L1.505 2.853A.68.68 0 0 0 1 3.513v16.976c0 .31.208.578.505.659l10.557 2.83a.75.75 0 0 0 .352 0l10.558-2.83a.68.68 0 0 0 .504-.66v-.89l-10.554 2.827V6.867l10.554-2.83Zm-11.92 18.389-9.19-2.463V15.72l9.19 2.464v4.243Zm0-5.657-9.19-2.463v-4.243l9.19 2.462v4.244Zm0-5.66-9.19-2.462V4.404l9.19 2.463v4.243Zm.683-5.473L4.321 3.513l7.918-2.12 7.918 2.121-7.918 2.123Z"/>
  <path d="M23.226 9.701V8.286L17.95 9.7v1.416L23.226 9.7ZM23.226 15.355v-1.414l-5.277 1.414v1.415l5.277-1.415Z"/>
</svg>
