<svg role="img" viewBox="0 0 24 24" xmlns="http://www.w3.org/2000/svg"><title>Encora</title><path d="M14.3449 19.2408c-.0443.136-.0443.2972.045.4364l1.299 2.2704c.5002.8696 1.6417 1.17 2.505.6198.819-.528 1.0462-1.6254.5467-2.4507l-1.2772-2.223c-.0698-.1391-.2055-.2308-.3638-.253-.5475-.0917-1.1385 0-1.662.2957-.5235.2957-.909.7763-1.0927 1.3044zm1.0942-5.8215c-1.7077-.4585-3.4845.5723-3.9405 2.2925L9.311 23.9366c.8887.2309 1.821-.1833 2.2327-1.0086l2.1878-4.446c.5475-1.17 1.755-1.8563 3.0075-1.7424l4.854.3447c.9577.0474 1.821-.5502 2.0505-1.4657zm-10.6852.8948c-.1358-.0475-.297-.0475-.4328.0474l-2.2552 1.306c-.8663.5028-1.1633 1.6507-.6165 2.5203.525.8253 1.6192 1.053 2.4382.5502l2.2103-1.2838c.1357-.0696.228-.2056.2497-.3669.114-.5502.0225-1.1447-.2955-1.6728-.2955-.528-.7732-.917-1.2982-1.1004zm5.8117 1.1004c.456-1.7202-.5692-3.5068-2.28-3.9654L.1084 9.2483c-.2273.8949.1837 1.834 1.0027 2.2452l4.4205 2.2008c1.1603.5502 1.8465 1.7645 1.7333 3.0262l-.342 4.8792c-.069.9614.5475 1.834 1.4565 2.0633zM9.6551 4.758c.0443-.136.0443-.2972-.0442-.4363l-1.299-2.2673C7.8116 1.1848 6.67.8875 5.8069 1.4346c-.819.528-1.0463 1.6253-.5468 2.4507l1.2773 2.223c.0697.1391.2055.2308.3637.253.5468.0917 1.1385 0 1.662-.2973.5228-.2972.909-.7779 1.092-1.306Zm-1.0935 5.8216c1.7078.4585 3.4845-.5723 3.9405-2.2926L14.69.0622c-.8888-.2277-1.821.1834-2.232 1.0087l-2.1885 4.446c-.5468 1.17-1.755 1.8562-3.0075 1.7424l-4.854-.3447C1.45 6.8672.5869 7.4648.3589 8.3803Zm10.6853-.8917c.1357.0474.297.0474.4327-.0475l2.2553-1.306c.8662-.5027 1.1632-1.6506.6165-2.5202-.525-.8253-1.6163-1.053-2.4383-.5502L17.903 6.548c-.1358.0695-.228.2055-.2498.3668-.114.5502-.0225 1.1447.2955 1.6727.2955.5282.7733.917 1.2983 1.1005zm-5.8125-1.1005c-.456 1.7202.5692 3.5068 2.28 3.9654l8.1772 2.2008c.2273-.8949-.1837-1.834-1.0027-2.2451l-4.4205-2.2009c-1.161-.5502-1.8465-1.7645-1.7333-3.0262l.342-4.8792c.069-.9613-.5475-1.834-1.4565-2.0633z"/></svg>