<svg role="img" viewBox="0 0 24 24" xmlns="http://www.w3.org/2000/svg"><title>Encora</title><path d="m15.63.356-2.188 8.222c-.46 1.715.572 3.5 2.285 3.943l8.21 2.19a1.97 1.97 0 0 0-1.005-2.245L18.5 10.279a3.01 3.01 0 0 1-1.728-3.04l.35-4.863c.04-.92-.587-1.77-1.492-2.02zm2.327 8.237c.293.53.78.92 1.295 1.102.14.04.293.04.433-.042l2.257-1.297a1.802 1.802 0 0 0 .613-2.51c-.53-.82-1.616-1.043-2.44-.542l-2.214 1.282a.49.49 0 0 0-.25.362c-.084.53.013 1.13.306 1.645zM.314 8.398l8.208 2.189c1.714.46 3.5-.572 3.945-2.286L14.654.077c-.891-.223-1.825.181-2.23 1.004l-2.19 4.433A3.01 3.01 0 0 1 7.2 7.24l-4.863-.348A2.054 2.054 0 0 0 .314 8.398zm8.292-2.3c.53-.293.92-.78 1.1-1.295a.526.526 0 0 0-.04-.433L8.369 2.11c-.5-.862-1.645-1.169-2.509-.612-.822.53-1.045 1.617-.544 2.44L6.6 6.153c.07.14.21.223.362.25.53.112 1.13.015 1.645-.306zm-.237 17.547 2.188-8.223c.46-1.715-.572-3.5-2.285-3.944L.064 9.288a1.97 1.97 0 0 0 1.003 2.246l4.431 2.187a3.01 3.01 0 0 1 1.728 3.04l-.348 4.863a2.058 2.058 0 0 0 1.49 2.02zm-2.329-8.25a2.42 2.42 0 0 0-1.296-1.1.526.526 0 0 0-.432.04l-2.256 1.296c-.865.502-1.17 1.645-.614 2.51.53.821 1.617 1.044 2.44.542l2.214-1.282a.49.49 0 0 0 .251-.362c.112-.516.014-1.115-.307-1.645zm17.643.208-8.22-2.188c-1.715-.46-3.5.571-3.945 2.286L9.33 23.923c.89.223 1.825-.18 2.23-1.002l2.189-4.433a3.01 3.01 0 0 1 3.036-1.728l4.864.35a2.048 2.048 0 0 0 2.034-1.507zm-8.234 2.327c-.53.293-.906.78-1.1 1.297a.526.526 0 0 0 .04.432l1.297 2.258c.5.864 1.644 1.17 2.508.613.821-.53 1.045-1.617.543-2.44l-1.282-2.216a.49.49 0 0 0-.362-.25 2.383 2.383 0 0 0-1.644.306z"/></svg>