<svg role="img" viewBox="0 0 24 24" xmlns="http://www.w3.org/2000/svg"><title>ENS</title><path d="M11.725.223 5.107 11.13a.146.146 0 0 1-.237.018c-.583-.692-2.753-3.64-.067-6.327 2.45-2.452 5.572-4.2 6.73-4.804.13-.068.269.08.192.206m-.366 23.747c.132.093.295-.064.206-.2-1.478-2.251-6.392-9.744-7.07-10.869-.67-1.11-1.987-2.953-2.097-4.53-.011-.158-.228-.19-.283-.042a10 10 0 0 0-.27.85c-1.105 4.11.5 8.472 3.985 10.916zm.909-.193 6.618-10.907a.146.146 0 0 1 .237-.018c.582.692 2.753 3.64.067 6.327-2.45 2.452-5.572 4.2-6.73 4.804-.13.068-.269-.08-.192-.206M12.641.028c-.132-.093-.295.065-.206.2 1.478 2.252 6.392 9.745 7.07 10.87.67 1.109 1.987 2.952 2.097 4.53.011.157.228.19.283.041.088-.239.182-.524.27-.85 1.105-4.11-.5-8.472-3.985-10.915z"/></svg>