<svg role="img" viewBox="0 0 24 24" xmlns="http://www.w3.org/2000/svg"><title>Ente</title><path d="M3.1934 15.4587q-.957 0-1.6851-.3745-.7177-.3745-1.113-1.0194Q0 13.4095 0 12.5773q0-.8425.3849-1.4875.3952-.6554 1.0714-1.0194.676-.3744 1.529-.3745.822 0 1.4772.3537.6657.3433 1.0506.9986.3849.645.3849 1.55 0 .0935-.0104.2184-.0105.1143-.0208.2184H1.321v-.9466h3.6927l-.6241.2809q0-.437-.1769-.7594-.1767-.3225-.4889-.4993-.312-.1872-.7281-.1872t-.7386.1872q-.312.1769-.4889.5097-.1768.3225-.1768.7698v.2496q0 .4577.1977.8114.208.3432.572.5305.3746.1768.8738.1768.4473 0 .7802-.1352.3432-.1353.6241-.4057l.8634.9362q-.3849.437-.9674.6761-.5824.2289-1.3419.2289m7.1864-5.7628q.6656 0 1.1858.2705.5305.26.8322.8114.3017.5409.3017 1.3938v3.2039h-1.6228v-2.9542q0-.6761-.3016-.9986-.2913-.3225-.8322-.3225-.3849 0-.697.1665-.3015.156-.4784.4889-.1665.3328-.1664.853v2.7669H6.9783V9.7792h1.55v1.5499l-.2913-.4681q.3016-.5617.8634-.8634t1.2794-.3017m6.079 5.7628q-.9882 0-1.5395-.4993-.5513-.5097-.5513-1.5083V8.5413h1.6227v4.889q0 .3537.1872.5513.1874.1872.5097.1872.3849 0 .6554-.208l.4369 1.1442q-.2497.1768-.6034.2705-.3432.0831-.7177.0832m-2.9542-4.3065V9.904h3.88v1.2482zm7.7909 4.3065q-.957 0-1.6852-.3745-.7177-.3745-1.113-1.0194-.3953-.6553-.3953-1.4875 0-.8425.385-1.4875.3951-.6553 1.0713-1.0194.6762-.3744 1.5291-.3745.8217 0 1.4771.3537.6657.3433 1.0506.9986.3849.645.3849 1.55 0 .0934-.0104.2184-.0104.1143-.0208.2184h-4.5457v-.9466h3.6927l-.624.2809q0-.437-.177-.7594-.1767-.3225-.4888-.4993-.312-.1872-.7282-.1872t-.7385.1872q-.312.1769-.489.5097-.1767.3225-.1767.7698v.2496q0 .4577.1976.8114.208.3433.5721.5305.3746.1768.8738.1768.4472 0 .7801-.1352.3434-.1353.6242-.4057l.8633.9362q-.3849.437-.9674.6761-.5825.2289-1.3418.2289"/></svg>