<svg role="img" viewBox="0 0 24 24" xmlns="http://www.w3.org/2000/svg"><title>Ente</title><path d="M3.193 15.459q-.957 0-1.685-.375-.717-.374-1.113-1.02Q0 13.41 0 12.578q0-.842.385-1.487.395-.656 1.071-1.02.676-.374 1.53-.374.821 0 1.476.354.666.343 1.051.998.385.645.385 1.55 0 .094-.01.219l-.021.218H1.32v-.947h3.693l-.624.281q0-.437-.177-.76-.177-.322-.49-.498-.311-.188-.727-.188t-.739.188q-.312.177-.489.51-.177.322-.177.77v.249q0 .457.198.811.208.343.572.53.375.177.874.177.447 0 .78-.135.343-.135.624-.405l.864.936q-.385.437-.968.676-.582.229-1.342.229m7.187-5.763q.665 0 1.185.27.531.26.833.812.301.54.301 1.394v3.204h-1.622V12.42q0-.676-.302-.998-.291-.323-.832-.323-.385 0-.697.167-.302.156-.479.489-.166.332-.166.853v2.767H6.978V9.779h1.55v1.55l-.291-.468q.302-.562.863-.863t1.28-.302m6.079 5.763q-.988 0-1.54-.5-.551-.51-.551-1.508v-4.91h1.623v4.89q0 .353.187.55.187.188.51.188.385 0 .655-.208l.437 1.144q-.25.177-.603.27-.344.084-.718.084m-2.954-4.307V9.904h3.88v1.248zm7.79 4.307q-.957 0-1.685-.375-.717-.374-1.113-1.02-.395-.655-.395-1.487 0-.842.385-1.487.395-.656 1.071-1.02.677-.374 1.53-.374.821 0 1.477.354.665.343 1.05.998.385.645.385 1.55 0 .094-.01.219l-.021.218h-4.546v-.947h3.693l-.624.281q0-.437-.177-.76-.177-.322-.489-.498-.312-.188-.728-.188t-.739.188q-.312.176-.489.51-.176.322-.176.77v.249q0 .457.197.811.208.343.572.53.375.177.874.177.447 0 .78-.135.344-.135.624-.405l.864.936q-.385.437-.968.676-.582.229-1.342.229"/></svg>