<svg role="img" viewBox="0 0 24 24" xmlns="http://www.w3.org/2000/svg"><title>Envato</title><path d="M13.104 24c.593 0 1.074-.481 1.074-1.073 0-.593-.481-1.074-1.074-1.074-.592 0-1.073.481-1.073 1.074 0 .592.481 1.073 1.073 1.073Zm6.166-8.383-6.047.648c-.111.012-.168-.13-.08-.198l5.918-4.608c.385-.314.629-.803.524-1.327-.105-.804-.768-1.328-1.606-1.223l-6.431.941c-.113.017-.174-.128-.083-.197l6.374-4.867c1.258-.978 1.362-2.9.21-4.017-1.048-1.048-2.725-1.013-3.774.035L4.004 11.249c-.384.419-.558.978-.453 1.572.174.943 1.117 1.573 2.061 1.398l5.537-1.13c.12-.024.185.136.081.202l-6.143 3.932c-.769.489-1.117 1.362-.874 2.236.245 1.153 1.398 1.817 2.516 1.537l9.182-2.262c.103-.025.179.095.113.177l-1.435 1.77c-.384.49.245 1.153.769.769l4.717-3.877c.838-.699.279-2.062-.804-1.957l-.001.001Z"/></svg>