<svg role="img" viewBox="0 0 24 24" xmlns="http://www.w3.org/2000/svg"><title>ENVI</title><path d="M20.81042 0H3.18958A3.19289 3.19289 0 0 0 0 3.18958v17.62084A3.19293 3.19293 0 0 0 3.18958 24h17.62084A3.19293 3.19293 0 0 0 24 20.81042V3.18958A3.19289 3.19289 0 0 0 20.81042 0Zm2.43909 20.81042a2.44225 2.44225 0 0 1-2.43909 2.43909H3.18958a2.44194 2.44194 0 0 1-2.43909-2.43909V3.18958A2.44158 2.44158 0 0 1 3.18958.75049h17.62084a2.4419 2.4419 0 0 1 2.43909 2.43909ZM3.87842 14.87842a27.14116 27.14116 0 0 0 4.307.07092c.02319-.00165.03265-.00482.05426-.0072A22.04316 22.04316 0 0 0 19.75 11.125c.13788-.0968.2619-.19019.38763-.284a17.34177 17.34177 0 0 0 1.65216-1.37988 4.44021 4.44021 0 0 0 .43372-.59058 2.98779 2.98779 0 0 0 .2196-.77252 2.517 2.517 0 0 0-1.38037-2.39215 6.41742 6.41742 0 0 0-1.49872-.413A10.096 10.096 0 0 1 21.63977 8.999a8.44957 8.44957 0 0 1-1.60217 1.2804l-.00421.007a8.22785 8.22785 0 0 0-7.76929-6.50265 15.83657 15.83657 0 0 1 2.40778 2.97833 18.29744 18.29744 0 0 1 2.263 5.33929 7.57649 7.57649 0 0 1-.79761.3653c-.21924.08856-.96082.36273-.96082.36273a26.65115 26.65115 0 0 0-2.56708-5.54816 17.903 17.903 0 0 0-2.59991-3.25616A9.94115 9.94115 0 0 0 8.184 2.62793a2.59836 2.59836 0 0 0-3.20752.36029 4.76547 4.76547 0 0 0-1.05457 1.7774c-.20526.61383-.32678 1.45416-.48437 2.07813a19.11042 19.11042 0 0 1 1.90625-2.3125 10.05946 10.05946 0 0 1 2.12465-1.52417 11.48919 11.48919 0 0 1 1.79584 1.24255l.00439.00153A8.22987 8.22987 0 0 0 3.77148 12a8.09247 8.09247 0 0 0 .36169 2.36218l-.00659-.00037a8.51636 8.51636 0 0 1-2.01282-.319A9.815 9.815 0 0 1 1.87549 12c0-.30853.01917-.60626.04364-.90167.01447-.16309.03412-.32452.05627-.48529.01422-.10791.03149-.21472.04919-.32117a10.01342 10.01342 0 0 1 .4588-1.72668c.05884-.15851.116-.31757.18372-.4743.01868-.04315.03125-.08759.0506-.13062 0 0-.57837-5.418 2.62836-6.73145H3.21875a1.99579 1.99579 0 0 0-1.98993 1.98993v10.95313a2.46875 2.46875 0 0 0 1.00751.46667s.66961.13824 1.64209.23987ZM20.78125 1.22882H8.5957a10.58378 10.58378 0 0 1 1.51648.82977 10.02141 10.02141 0 0 1 8.79755 2.56165 4.87936 4.87936 0 0 1 3.86145 1.13708V3.21875a1.99579 1.99579 0 0 0-1.98993-1.98993ZM22.1 11.50745c.00793.16431.025.32629.025.49255a10.12744 10.12744 0 0 1-5.70148 9.09344 3.02931 3.02931 0 0 1-1.582 1.67767h5.9397a1.99578 1.99578 0 0 0 1.98993-1.98987v-9.96178a7.152 7.152 0 0 1-.67115.68799ZM17.23779 18.32843a8.22637 8.22637 0 0 0 2.92041-5.30359c-1.23877.88367-2.67383 1.67828-2.67383 1.67828a22.58921 22.58921 0 0 1-.24658 3.62531ZM15.4375 15.53125a19.82914 19.82914 0 0 1-10.3585.90259A8.22269 8.22269 0 0 0 12 20.229a8.10179 8.10179 0 0 0 2.66638-.45526l-.00293.005a4.5861 4.5861 0 0 1-.726 1.3147A3.05364 3.05364 0 0 1 12 22.125a10.13491 10.13491 0 0 1-9.39-6.35779c-1.29333-.41968-1.37775-.63446-1.38123-.66858v5.68262a1.99578 1.99578 0 0 0 1.98993 1.98987h7.76947A.58105.58105 0 0 1 10.8125 22.5a3.5947 3.5947 0 0 0 3.32184-.6059 5.0966 5.0966 0 0 0 1.24823-2.40265 12.23577 12.23577 0 0 0 .05493-3.9602Z"/></svg>