<svg role="img" viewBox="0 0 24 24" xmlns="http://www.w3.org/2000/svg"><title>Esoteric Software</title><path d="M23.966 9.9C22.301 2.329 15.709-.576 10.151.226 4.369 1.059-.623 5.879.063 13.326c.281 3.051 1.846 5.918 4.166 7.88 2.579 2.18 6.081 3.13 9.386 2.512a.16.16 0 0 0 .123-.178c-.006-.04-.078-.059-.159-.05-3.177.419-6.512-.645-8.871-2.841a11.1 11.1 0 0 1-3.48-7.033C.658 7.028 5.414 2.591 10.639 2.049c4.25-.44 8.787 1.892 10.68 6.702.159.403-.079.802-.502.879-2.917.536-12.51 2.322-14.426 2.674-.169.03-.316-.084-.318-.257-.12-5.974 5.962-8.483 10.447-4.748.063.053.262.013.317-.048.026-.029.036-.221-.024-.279C11.43 1.69 3.575 6.141 4.015 13.315c.027.432.426.737.851.684l12.331-1.623c.009.08.02.142.02.142.374 6.188-5.865 8.911-10.425 5.112-.064-.053-.237-.034-.294.027-.025.028-.069.191-.01.25 5.248 5.148 12.845 1.049 12.815-5.808l3.382-.447c.853-.113 1.467-.906 1.281-1.752"/></svg>