<svg role="img" viewBox="0 0 24 24" xmlns="http://www.w3.org/2000/svg"><title>Esoteric Software</title><path d="M23.967 9.901C22.302 2.331 15.71-.574 10.152.227 4.369 1.061-.623 5.88.063 13.327c.282 3.05 1.847 5.917 4.166 7.878 2.58 2.181 6.082 3.13 9.386 2.512a.157.157 0 0 0 .124-.177c-.006-.04-.078-.059-.16-.05-3.176.418-6.511-.646-8.871-2.842a11.1 11.1 0 0 1-3.48-7.032C.659 7.029 5.415 2.593 10.64 2.05c4.25-.439 8.787 1.892 10.679 6.702.16.403-.079.802-.501.878-2.918.537-12.51 2.322-14.426 2.674a.26.26 0 0 1-.319-.256C5.954 6.074 12.036 3.565 16.52 7.3c.064.053.262.013.318-.048.026-.03.036-.22-.024-.279-5.384-5.281-13.239-.831-12.798 6.342.026.433.425.738.851.684l12.331-1.623c.008.081.019.143.019.143.374 6.187-5.864 8.909-10.425 5.11-.063-.052-.237-.033-.294.028-.025.028-.069.192-.009.25 5.248 5.148 12.845 1.049 12.815-5.808l3.381-.446c.854-.114 1.468-.906 1.282-1.752"/></svg>