<svg role="img" viewBox="0 0 24 24" xmlns="http://www.w3.org/2000/svg"><title>Esoteric Software</title><path class="st1" d="M23.967 9.9C22.301 2.331 15.71-.574 10.152.227 4.369 1.06-.623 5.88.063 13.327c.28 3.05 1.846 5.917 4.166 7.879 2.579 2.18 6.081 3.128 9.386 2.51a.153.153 0 0 0 .123-.176c-.005-.041-.078-.06-.159-.05-3.177.419-6.511-.645-8.871-2.841a11.1 11.1 0 0 1-3.48-7.033C.659 7.028 5.415 2.592 10.639 2.051c4.251-.44 8.788 1.891 10.68 6.701.16.403-.078.802-.5.878-2.919.536-12.511 2.322-14.428 2.674-.169.03-.316-.084-.318-.256-.12-5.974 5.963-8.483 10.447-4.747.064.051.262.012.318-.049.026-.03.035-.221-.023-.279-5.385-5.281-13.24-.831-12.799 6.342.026.434.425.737.851.685l12.331-1.624c.008.08.018.143.018.143.375 6.188-5.863 8.909-10.425 5.112-.062-.054-.237-.035-.294.026-.024.028-.068.192-.008.249 5.247 5.149 12.845 1.049 12.814-5.807l3.382-.445c.854-.114 1.468-.908 1.282-1.754"/></svg>