<svg role="img" viewBox="0 0 24 24" xmlns="http://www.w3.org/2000/svg"><title>Etecsa</title><path d="M13.463 17.525c-.846.772-2.354 2.169-3.363 3.1-1.01.93-1.987 1.84-2.181 2.009-.194.178-.326.337-.306.366.143.13 1.499.555 2.436.754 2.547.553 5.646.157 7.948-1.011 2.568-1.297 4.688-3.573 5.84-6.258L24 16.12h-9.008zm-6.115-4.218a808.924 808.936 0 0 0-4.565 4.17l-.887.83.316.447c.724 1.018 2.232 2.484 3.333 3.217.52.356.367.445 2.18-1.208.744-.683 2.048-1.861 2.884-2.614a385.532 385.537 0 0 0 2.294-2.08 120.2 120.2 0 0 1 1.426-1.297c1.03-.92 3.74-3.387 4.534-4.119l.714-.673h-8.57zM10.568.128a13.123 13.123 0 0 0-8.947 6.01C.072 8.654-.407 11.94.357 14.84c.204.783.734 2.17.827 2.17.03 0 .6-.497 1.273-1.11a1952.49 1952.49 0 0 0 8.05-7.305 471.78 471.787 0 0 1 3.362-3.06 254.852 254.856 0 0 0 2.09-1.891 97.392 97.392 0 0 1 1.813-1.635c.235-.197.428-.405.428-.445 0-.09-1.63-.832-2.293-1.04-1.57-.504-3.76-.663-5.34-.396z"/></svg>