<svg role="img" viewBox="0 0 24 24" xmlns="http://www.w3.org/2000/svg"><title>Ethereum Name Service</title><path d="M11.271.223 4.623 11.13a.147.147 0 0 1-.238.018c-.585-.692-2.766-3.64-.068-6.327C6.78 2.37 9.915.621 11.077.017c.132-.068.271.08.194.206m-.368 23.747c.133.093.297-.064.208-.2-1.485-2.251-6.421-9.744-7.103-10.869-.673-1.11-1.996-2.953-2.106-4.53-.011-.158-.23-.19-.284-.042a10 10 0 0 0-.271.85c-1.11 4.11.502 8.472 4.002 10.916zm.914-.193 6.648-10.907a.147.147 0 0 1 .237-.018c.586.692 2.766 3.64.068 6.327-2.462 2.452-5.598 4.2-6.76 4.804-.132.068-.27-.08-.194-.206M12.191.028c-.132-.093-.296.065-.207.2 1.485 2.252 6.421 9.745 7.103 10.87.673 1.109 1.995 2.952 2.106 4.53.01.157.23.19.284.041.089-.239.183-.524.27-.85 1.11-4.11-.501-8.472-4.001-10.915z"/></svg>