<svg viewBox="0 0 16 16" xmlns="http://www.w3.org/2000/svg" fill-rule="evenodd" clip-rule="evenodd" stroke-linejoin="round" stroke-miterlimit="1.414"><path d="M5.728 1.63c0-.217.022-.347.392-.347h4.978c.87 0 1.348.74 1.695 2.13l.283 1.11h.848C14.076 1.37 14.207 0 14.207 0s-2.13.24-3.392.24h-6.37L1.035.13v.913l1.15.218c.805.16 1 .33 1.066 1.07 0 0 .07 2.18.07 5.76 0 3.59-.06 5.74-.06 5.74 0 .65-.26.89-1.06 1.05l-1.15.22v.9l3.42-.11h5.7c1.29 0 4.26.11 4.26.11.07-.78.5-4.32.57-4.71h-.8l-.85 1.94c-.67 1.52-1.65 1.63-2.74 1.63H7.34c-1.087 0-1.61-.43-1.61-1.37V8.53s2.414 0 3.197.065c.61.043.978.217 1.174 1.065l.26 1.13h.94l-.06-2.848.13-2.87h-.93l-.3 1.26c-.19.828-.32.98-1.17 1.067-1.11.11-3.21.09-3.21.09V1.63z"/></svg>