<svg viewBox="0 0 16 16" xmlns="http://www.w3.org/2000/svg" fill-rule="evenodd" clip-rule="evenodd" stroke-linejoin="round" stroke-miterlimit="1.414"><path d="M5.728 1.63c0-.217.022-.347.392-.347h4.978c.87 0 1.348.74 1.695 2.13l.283 1.11h.848C14.076 1.37 14.207 0 14.207 0s-2.13.24-3.392.24h-6.37L1.034.13v.913l1.152.218c.804.153 1 .327 1.065 1.066 0 0 .065 2.174.065 5.76 0 3.588-.065 5.74-.065 5.74 0 .652-.26.89-1.065 1.044l-1.152.217V16l3.413-.11h5.695c1.284 0 4.262.11 4.262.11.065-.783.5-4.326.565-4.717h-.804l-.848 1.934c-.674 1.522-1.652 1.63-2.74 1.63H7.338c-1.087 0-1.61-.434-1.61-1.37V8.523s2.414 0 3.197.065c.61.043.978.217 1.174 1.065l.26 1.13h.935l-.065-2.847.13-2.87h-.934l-.304 1.26c-.196.827-.327.98-1.174 1.066-1.11.11-3.218.088-3.218.088V1.63z"/></svg>