<svg role="img" viewBox="0 0 24 24" xmlns="http://www.w3.org/2000/svg"><title>European Union</title><path d="M0 4v16h24V4Zm12 2 .1934.6003h.627l-.5072.3698.1933.6035L12 7.1999l-.5065.3737.1933-.6035-.5071-.3698h.627zm-2.5898.6999.1933.6002h.6263l-.5065.3666.1934.6002-.5065-.3672-.5066.3705.1928-.6003-.5066-.3698h.627zm5.1796 0 .1934.6002h.627l-.5066.3666.1928.6002-.5066-.3672-.5065.3705.1934-.6003v-.0032L13.7702 7.3h.6263zm1.8835 1.9036.1934.5996h.627l-.4936.377.1934.5996-.5065-.373-.5104.373.1933-.5996-.5032-.3737.61-.0033zm-8.9466.0033.1966.5996h.61l-.5065.3737.1934.5996-.5104-.373-.5098.373.1934-.5996-.5066-.3737h.6465zm-.7064 2.6068.1927.5996h.6302l-.5097.3737.1933.5996-.5065-.373v-.0137l-.5071.3736.1933-.6002-.5065-.36h.627zm10.373 0 .1934.5996H18l-.5065.3737.1933.5996-.5071-.373-.513.373.1933-.5996-.5097-.3737H17Zm-9.6666 2.6067.1966.5996h.61l-.5065.3737.1934.5996-.5104-.3698L7 15.3932l.1934-.5996-.5066-.3737h.6466zm8.9635 0 .1934.5996h.61l-.4935.3737.1934.5996-.5065-.3698-.5104.3698.1933-.5996-.5032-.3737h.627zm-7.08 1.9128.1933.6002h.6263l-.5065.3666.1934.6002-.5065-.3704-.5066.3704.1928-.6002-.5066-.3666h.627zm5.1796 0 .1934.6002h.627l-.5066.3666.1928.6002-.5066-.3704-.5065.3704.1934-.6002-.5065-.3666h.6263zM12 16.4264l.1934.6035h.627l-.5072.3698.1933.6003L12 17.6302 11.4935 18l.1933-.6003-.5071-.3698h.627z"/></svg>