<svg role="img" viewBox="0 0 24 24" xmlns="http://www.w3.org/2000/svg"><title>Eventbrite icon</title><path d="M10.508 5.756c2.699-.6 5.297.5 6.796 2.499L5.611 10.953c.4-2.498 2.299-4.597 4.897-5.197zm6.896 9.794c-.9 1.3-2.298 2.299-3.897 2.599-2.699.6-5.297-.5-6.796-2.599l11.692-2.598 1.9-.4 3.697-.8c0-.799-.1-1.598-.3-2.298C22.201 2.958 15.805-.939 9.31.56 2.812 2.059-1.185 8.355.314 14.65c1.499 6.297 7.895 10.294 14.39 8.795 3.798-.9 6.797-3.398 8.196-6.596.1-.1-5.497-1.299-5.497-1.299z"/></svg>