<svg role="img" viewBox="0 0 24 24" xmlns="http://www.w3.org/2000/svg"><title>Eventbrite icon</title><path d="M10.5084 5.7562c2.699-.6 5.2968.5 6.7958 2.4989l-11.6927 2.698c.4-2.498 2.299-4.597 4.8969-5.197zm6.8958 9.7937c-.9 1.3-2.298 2.299-3.8969 2.599-2.699.5999-5.2968-.5-6.7958-2.599l11.6917-2.598 1.9-.4L24 11.752c0-.799-.1-1.598-.3-2.298C22.201 2.9584 15.8052-.9385 9.3104.5604 2.8126 2.0593-1.1843 8.3551.3147 14.65c1.499 6.2968 7.8948 10.2937 14.3896 8.7948 3.7979-.9 6.7968-3.398 8.1957-6.5958.1-.1-5.4968-1.299-5.4968-1.299z"/></svg>