<svg viewBox="0 0 16 16" xmlns="http://www.w3.org/2000/svg" fill-rule="evenodd" clip-rule="evenodd" stroke-linejoin="round" stroke-miterlimit="1.414"><path d="M5.41 0h7.355c.118 0 .177.06.177.178v2.755c0 .12-.06.178-.177.178h-6.49c-.118 0-.177.06-.177.18v3c.03.117.09.177.178.177h5.755c.12 0 .18.06.18.177V9.31c0 .12-.06.18-.18.18H6.277c-.09 0-.148.058-.178.177v3.022c0 .117.06.177.178.177h6.71c.09 0 .15.044.18.133.043.148.073.333.088.556.014.222-.012.477-.078.766-.067.29-.185.556-.356.8-.17.245-.448.452-.833.622-.385.17-.852.256-1.4.256H2.92c-.118 0-.178-.06-.178-.178V2.667c0-.74.26-1.37.778-1.89C4.04.26 4.668 0 5.41 0z"/></svg>