<svg role="img" xmlns="http://www.w3.org/2000/svg" viewBox="0 0 24 24"><title>Exercism icon</title><path d="M4.868 1.322c-1.705.008-2.45.39-3.031 1.554-.325.658-.325.669-.393 3.84-.076 3.564-.14 3.859-1.006 4.698a2.071 2.071 0 0 0-.438.521c0 .053.223.333.491.624.84.91.87 1.04.957 4.596.056 2.17.136 3.333.249 3.662.238.707 1.126 1.542 1.814 1.716.817.208 2.544.185 2.721-.034.231-.276-.037-.623-.555-.718a1.965 1.965 0 0 1-1.493-1.122c-.26-.53-.284-.753-.352-3.629-.064-2.808-.094-3.107-.34-3.655a4.09 4.09 0 0 0-.638-.99l-.378-.39.366-.392c.832-.877.99-1.701.998-5.129 0-1.334.06-2.544.136-2.816.17-.616.782-1.19 1.535-1.436 1.368-.454 1.039-.907-.643-.9zm14.264 0c-1.682-.007-2.01.446-.643.896.753.253 1.365.824 1.535 1.436.076.276.136 1.486.136 2.82.008 3.428.166 4.256.998 5.129l.366.393-.378.39c-.207.215-.49.66-.642.99-.242.551-.272.85-.34 3.658-.064 2.872-.087 3.092-.348 3.625a1.965 1.965 0 0 1-1.493 1.122c-.518.095-.786.442-.555.718.177.22 1.904.242 2.72.038.689-.174 1.577-1.013 1.815-1.72.113-.325.189-1.493.25-3.662.09-3.553.113-3.681.956-4.592a3.012 3.012 0 0 0 .491-.624 2.067 2.067 0 0 0-.438-.521c-.87-.843-.93-1.134-1.006-4.702-.068-3.167-.064-3.182-.393-3.84-.582-1.164-1.323-1.542-3.031-1.55zM7.665 9.252a2.778 2.778 0 0 0-2.77 2.642h1.058a1.727 1.727 0 0 1 3.44 0h1.046a2.778 2.778 0 0 0-2.774-2.642zm8.663 0a2.778 2.778 0 0 0-2.77 2.642h1.057a1.727 1.727 0 0 1 3.44 0h1.05a2.778 2.778 0 0 0-2.777-2.642zm-6.815 5.756v.503c.076 1.463 1.024 2.506 2.49 2.506 1.463 0 2.408-1.043 2.484-2.506v-.507H13.44l.008.507c-.076.884-.552 1.463-1.444 1.463-.892 0-1.376-.583-1.444-1.47v-.5z"/></svg>