<svg role="img" viewBox="0 0 24 24" xmlns="http://www.w3.org/2000/svg"><title>EyeEm icon</title><path d="M23.238 9.599a1.243 1.243 0 01.737.928c.026.143.04.353.04.628l-.008 2.68h-1.14v-2.707a.892.892 0 00-.077-.398c-.098-.198-.281-.297-.546-.297-.307 0-.52.128-.637.383-.06.135-.089.298-.089.488v2.532h-1.12v-2.533c0-.252-.026-.435-.078-.55-.093-.205-.277-.308-.55-.308-.317 0-.53.103-.64.308-.06.117-.089.292-.089.523v2.56h-1.127V9.59h1.08v.62c.138-.22.269-.378.39-.472.217-.167.496-.25.84-.25.324 0 .587.072.787.215.162.133.283.303.367.51.146-.249.326-.432.542-.549.23-.117.484-.175.765-.175.187 0 .371.036.553.109zM3.677 9.056H1.189v1.222h2.518v.999H1.189v1.478h2.522v1.034H.014v-5.75h3.663zM17.338 9.056h-2.487v1.222h2.518v.999h-2.518v1.478h2.522v1.034h-3.696v-5.75h3.661zM5.964 13.865l-1.838-4.44h1.237l1.204 3.137L7.72 9.425h1.182l-1.72 4.337-.84 2.178H5.135zM11.917 9.623c.297.133.542.342.735.629.174.252.287.546.339.879.03.195.042.476.036.844H9.931c.017.426.165.725.445.897.17.107.373.16.612.16.253 0 .46-.065.618-.195a.944.944 0 00.229-.293h1.135c-.03.252-.168.509-.412.77-.382.412-.915.62-1.6.62a2.315 2.315 0 01-1.498-.524c-.433-.349-.65-.916-.65-1.702 0-.737.196-1.302.587-1.695.39-.393.897-.59 1.52-.59.37 0 .704.067 1 .2zm-1.663.96c-.157.162-.256.381-.297.659h1.916c-.02-.296-.119-.52-.296-.673a.976.976 0 00-.66-.229c-.284 0-.506.081-.663.243z"/></svg>
