<svg role="img" viewBox="0 0 24 24" xmlns="http://www.w3.org/2000/svg"><title>Faker</title><path d="M9.8622 0s-.171.6158-.6693 1.02c.4983.4043.669 1.0197.669 1.0197s.003-.0096.008-.0272c.0396-.1233.2252-.6387.6615-.9925a1.7492 1.7492 0 0 1-.0458-.0385C10.0229.5777 9.8622 0 9.8622 0Zm-1.769 1.6402s-.1447.502-.5673.832c.4225.3298.5673.8318.5673.8318s.1453-.502.5678-.8319c-.4225-.3299-.5678-.8319-.5678-.8319zm-1.7591.5193c-.154.0085-.3047.0759-.4142.2284l-.6045 3.7005a2.2116 2.2116 0 0 0-.1422.2158c-.24.4153-.1853.823-.0723 1.099l-.0931.569c-.5726-.2488-1.4952-.21-1.9579.8323-.4476 1.0076.1274 2.4999 1.2337 3.6034l-.0509.3126c.0196.2104.411.4615.6802.2278.0255.0191.0515.0376.0776.0562 0 0-.9914.5378-1.5455 1.285-.5541.747-.3905 1.952 1.0746 2.1498 1.4651.1978 2.9597.048 2.9597.048L8.5 22.7982c.3403 2.1036 1.0903.7889 2.9556.8687 1.8653.0798 6.2757-.644 8.0108-3.7384l-1.9642-6.4453s1.5739-.8638 2.3183-1.847c.745-.9833.369-2.5283-2.335-2.3617 0 0-.4627-.896-1.4783-1.1741-.0254-.5541-.3483-.9498-.652-1.2098-.3036-.26-.4887-.657-.6535-.8178 0 0 .3111-.6085.258-1.3511-.0533-.7427-.3772-1.1725-.6917-1.4471l.2596-.0226c-.3788-.4616-.9786-.874-2.2656-.6206.041-.1057.0818-.2113.1226-.317-.712.0937-1.2278.6772-1.5315 1.7954-.6507-.0313-2.0602.4794-2.7376 1.1712-.3152-.247-1.0746-.443-1.6426-.303.162-.8305.3242-1.6608.4863-2.4912-.102-.192-.3684-.3414-.6252-.3273Zm.0135.2547c.103-.003.2375.0217.364.1325L6.219 5.072a.8473.8473 0 0 0-.1533.1.4253.4253 0 0 1 .1255.0434l-.033.1683c-.0676.0324-.2857.1458-.5228.3575l.5381-3.2934s.0713-.0306.1742-.0336zm6.721.4508c.2215.009.4609.0612.7054.1841 0 0-.1949.0891-.2707.1758 0 0 .6755.2626.9746.8456.2713.5304-.0376 1.4061-.0965 1.5617 0 0-.2748-.3708-.6912-.576.4453.5714.6674 1.1498 1.0092 1.5934.342.4436.94.7374.8873 1.5906-.0509.8178-.472 1.7137-.7872 1.9515-.3719.0526-1.1458.251-1.5073 1.0824-.3615.8314.148 1.5435.148 1.5435s-.967.354-2.2047.7115c-1.324-.0081-2.7057-.191-3.062-.2088.4824.2654 1.3476.4823 1.7114.5662a18.67 18.67 0 0 1-1.0572.2215c-.3598.0174-1.7485-.2673-2.7654-.8936-.3453-.2129-.7068-.4546-1.0535-.7346l.1987-1.0167c.543.5264 1.255.7485 1.255.7485s-.8473-.6634-1.1833-1.114l.0885-.454c.3481-.1036.6553-.402.6894-1.0014 0 0 .3344.206.6432.2436.0839.2083.0897.4152.1007.6482-.3193-.0012-.6588-.0786-.6796-.0832.026.0231.4534.3932.7149.4811.041.2684.1324.5767.3585.952.5738.9493 1.745 1.3188 2.8052 1.0135 0 0-1.849.0167-2.5015-1.346-.5182-1.084-.1336-1.0452-.506-1.9093-.3194-.742-.3229-1.6772-.2696-2.0423 0 0-.321.2111-.3531.8364 0 0-.2721-.1274-.483-.4523a1.434 1.434 0 0 1-.166-.3563c-.0556-.1747-.0862-.3823-.0729-.6264 0 0-.1145.0365-.2417.1423a.6022.6022 0 0 0-.0266.0237c-.0841-.2374-.02-.5341.1552-.8106.1262-.2007.3112-.3904.5391-.539a1.8285 1.8285 0 0 1 .2638-.1448 1.8577 1.8577 0 0 1 .6549-.1607c.2263-.0131-.118-.1968-.2227-.2724 0 0 .5553-.0671 1.0782.3424 0 0-.3141.2701-.434.87 0 0 .8851-1.0412 1.873-1.5427.9878-.5014 2.2625-.605 3.3978-.4097 0 0-.3759-.4083-1.4315-.4014 0 0 .1412-.7808.6397-1.2001 0 0-.0179.1556.008.3001 0 0 .5037-.3604 1.1681-.3333zm3.9318 1.4905s-.1545.5572-.6055.9233c.451.366.6055.9233.6055.9233s.002-.0087.008-.0247c.0358-.1116.2038-.5783.5984-.8986-.3946-.3203-.5626-.787-.5984-.8986-.005-.016-.008-.0247-.008-.0247zm-4.999 1.6316c-.2168-.002-.4131.0306-.5663.0965-.5448.2342-.6976.7519-.6976.7519-.2208.8745.5576 1.048 1.1939 1.265.6362.2168.9167.6709 1.687.2567.5062-.2724.6867-.9832.069-1.6525-.444-.481-1.1319-.7124-1.686-.7176zm.0558.2431c.6132.0046 1.1612.4256 1.2675.5157.6213.528.6155 1.1345.1527 1.4013-.4627.267-1.1648-.1602-1.6396-.3481-.4408-.1747-.7496-.1857-.8532-.5854-.1035-.3997.288-.9207.9492-.9786a1.3018 1.3018 0 0 1 .1234-.0049zm.182.4427c-.2886.0044-.531.2128-.5538.488a.5024.5024 0 0 0 .0456.2522c.0598-.2543.3132-.433.5995-.4099.2186.018.399.1486.4804.3245a.4416.4416 0 0 0 .0116-.0758c.0237-.2938-.2116-.5523-.5251-.5772a.6169.6169 0 0 0-.0583-.0018zm-3.1573.4754c-.777-.0043-1.4.8632-1.4786 1.7763-.0769.9735.3584 1.5536.985 1.5923.4876.0301.856-.272.9984-.657.1422-.385.081-.664.2648-1.1736.1839-.5095.336-1.3008-.524-1.5078a1.0734 1.0734 0 0 0-.2456-.0302zm.0125.2586c.148-.0028.2892.0387.41.1328.5172.4026.1088.9654 0 1.5003-.1087.535-.1984 1.2112-.8964 1.2326-.6981.0215-.7867-1.0143-.7332-1.5325l-.0003-.0002c.077-.7501.6913-1.3233 1.2199-1.333zm-3.6907.1972s.0457.2662.2106.5698l-.0457.2336a1.8232 1.8232 0 0 0-.3198-.3001l.0624-.3817s.041-.073.0926-.1216zm-.901.5665a.8625.8625 0 0 1 .1524.0267c.1038.0283.2034.0704.2961.125.084.049.1625.1068.2343.1723.1164.105.216.227.2955.362.0714.1198.1254.2491.1602.384.0816.3184.0405.6496-.1764.9059a.775.775 0 0 1-.2764.2076c-.1053.048-.2152.0712-.3199.0799a1.3755 1.3755 0 0 1-.2614-.0052c-.1527-.0174-.2586-.0532-.2586-.0532.048.0804.1302.1505.2343.2036l-.2146 1.3112c-.41-.4347-.7606-.9443-.981-1.5487l.0002.0003c-.4674-1.2807.3482-2.2358 1.1153-2.1714zm4.4382.0857c-.2013.0026-.399.1223-.5001.3249-.1405.2819-.0417.6164.222.7483a.4774.4774 0 0 0 .0712.029c-.1088-.1609-.1274-.383-.0294-.579.1283-.2567.4123-.381.661-.3009a.5064.5064 0 0 0-.1926-.1695.5045.5045 0 0 0-.2321-.0528zm-3.145.1946c.1447.1834.34.3563.6015.4686 0 0 .0434.2897.129.4511 0 0-.3194-.1007-.5507-.269-.0002-.0001-.069-.199-.2211-.4396h.0002l.041-.211zm10.161.0834c.794.3568 1.244.7998 1.2875 1.3782.0422.565-.2615 1.3089-.2753 1.3425.0156-.018.2677-.31.3886-.5808 0 0-.089 1.0626-1.1013 1.9012-1.0122.8386-2.2667.5715-2.6097-.2562 0 0 .7335.6142 1.7023.0828 0 0-1.0782.1544-1.5096-.431-.4217-.572.2048-1.233 1.1203-1.4123.8196-.1608 1.0174-.6219 1.0174-.6219s-.3834.1545-.645.1939c0 0 .5895-.7855.6248-1.5964zm-4.6724.0597a.711.711 0 0 0-.0987.0073c-.3743.0526-.9377.3517-.9266.5836.0111.2319.4234.5301.7688.4494.1736-.041.3762-.196.5176-.5217.1282-.2951.036-.5185-.261-.5186zm-.0967.3083c.1727-.0056.1896.1447.034.3185-.1845.2059-.3957.2984-.6745.0775-.1007-.0798-.0359-.1197-.006-.1377.125-.0763.2627-.1579.535-.2383a.4525.4525 0 0 1 .112-.02zm1.0906.3647c-.0382.723-.6246.8486-.8884.6895 0 0-.3597.801-1.1764.4072-.0003 0 .0798.3938.5176.4384.0966.189.5449.867 1.1921.5298.5894-.3068.4234-1.0944.3198-1.2395.373-.3835.0353-.8254.0353-.8254zm5.6944.429c.8543-.0014 2.0796.328 1.7253 1.3402-.4049 1.1568-3.3977 2.9931-7.3165 4.0345-3.9187 1.0413-6.6518 1.108-7.6252.9826l.0001.0003c-.974-.1255-1.3355-.8774-.8774-1.634.458-.7565 1.5015-1.188 1.5015-1.188s.0862.0568.2175.139c-1.1857.7398-.9416 1.65-.4465 1.9202-.247-.5425-.0122-1.295.9377-1.627.169.096.3407.1868.4835.2475-.321.8873 1.0593.8046 2.9528.4362 1.8947-.3685 4.1791-1.2222 4.1791-1.2222.752.6513 2.1829.42 3.0794-.5344 1.3813-1.5114.851-2.8752.851-2.8752a2.79 2.79 0 0 1 .3377-.0198zm-5.9916.6202c.2706.8104-.6508 1.1083-.9487.4205.2673-.126.4223-.344.4223-.3441.0002 0 .2895.0774.5264-.0764zm9.5681.1676s-.1091.3937-.4276.652c.3184.2584.4276.6519.4276.6519s.002-.0061.005-.0174c.004-.0113.009-.0277.0168-.0482.0457-.1228.167-.3926.4058-.5864a.976.976 0 0 1-.0292-.0246c-.296-.258-.3986-.6273-.3986-.6273zm-16.718.1803c.0962.0203.1946.0277.2927.022l-.3172 1.6247-.0942.483v.0012a.2967.2967 0 0 1-.2146-.0915c.004-.0272.009-.0543.0133-.0815l.0827-.5056.2373-1.4523zm-2.241 1.6853s-.1446.522-.5672.865c.4226.343.5673.865.5673.865s.002-.0081.007-.023c.0336-.1046.191-.5418.5607-.842-.3697-.3-.5272-.7373-.5607-.842-.005-.0149-.007-.023-.007-.023zm17.881.1979s-.1707.6156-.669 1.02c.4983.4044.669 1.02.669 1.02s.1712-.6156.6695-1.02c-.4983-.4044-.6695-1.02-.6695-1.02zm-3.3472 1.1782 1.9065 6.153c-.2147.4763-1.6793 1.7605-2.7593 2.2664.0232-.0266.7715-.8786.8625-1.9463 0 0-1.2314 2.1301-3.0609 2.6473-1.0555.2605-3.4778.6183-5.1187-.2423-.299-1.4703-1.0122-5.8227-1.0047-6.1936.439.0105 2.9244-.4573 5.3022-1.1486 2.1474.078 3.118 2.118 3.1488 2.1827-.2956-1.5192-1.2314-2.288-1.815-2.6006 1.0162-.3447 1.9276-.7253 2.5386-1.118zm-12.9119 3.55s-.1852.6674-.7253 1.1058c.5402.4385.7253 1.106.7253 1.106s.1857-.6675.7259-1.106c-.5402-.4384-.7259-1.1058-.7259-1.1058z"/></svg>