<svg aria-labelledby="simpleicons-fandango-icon" role="img" viewBox="0 0 24 24" xmlns="http://www.w3.org/2000/svg">
<title>Fandango icon</title>
    <path d="M13.664 6.956l-5.615 1.54 1.143 4.223 5.615-1.54 1.143 4.223-5.615 1.491 1.093 4.223-5.615 1.491-1.392-5.068c0.845-0.994 1.193-2.385 0.845-3.727-0.398-1.342-1.392-2.385-2.584-2.832l-1.392-5.217 11.28-2.982zM20.77 6.758l-1.838-6.708-18.932 5.018 1.838 6.758c1.093 0.199 2.087 1.043 2.385 2.236 0.348 1.193-0.099 2.385-0.944 3.18l1.789 6.708 18.932-5.068-1.789-6.708c-1.143-0.199-2.087-1.043-2.435-2.236-0.298-1.193 0.099-2.435 0.994-3.18z"></path>
</svg>