<svg role="img" viewBox="0 0 24 24" xmlns="http://www.w3.org/2000/svg"><title>Fandom icon</title><path d="M17.6043.0129a.603.603 0 00-.416.175l-4.4928 4.4848a.9.9 0 01-1.263.002L6.9397.237a.603.603 0 00-.841-.002L.311 5.8717c-.2.194-.311.457-.311.733v5.3397c0 .271.11.533.305.726l11.2765 11.1435a.603.603 0 00.846 0L23.695 12.6704c.194-.193.305-.454.305-.727V6.6056c0-.27-.107-.528-.299-.72L18.0402.19a.603.603 0 00-.435-.177zM6.6157 2.5008a.292.292 0 01.2.084l8.1377 8.0467a2.19 2.19 0 010 3.1188l-2.43 2.4a.293.293 0 01-.4079 0L3.9758 8.1045a2.172 2.172 0 01-.65-1.561c0-.59.23-1.143.648-1.557l2.431-2.4018a.292.292 0 01.211-.084zm11.1496.707a2.241 2.241 0 01.278.022c.5.067.955.327 1.3119.68l2.5699 2.5418a.284.284 0 010 .404l-3.9099 3.8679a.29.29 0 01-.41 0l-3.9998-3.9549a.285.285 0 010-.407l2.54-2.5099a2.241 2.241 0 011.6199-.644zm4.0868 6.1227a.29.29 0 01.341.283v1.705h-.002c0 .2-.08.39-.222.532l-9.2796 9.3055a.686.686 0 01-.511.225.743.743 0 01-.533-.227l-.655-.613a.284.284 0 01-.008-.41L21.6971 9.4126a.287.287 0 01.155-.082zm-19.4232.106c.1.016.197.062.281.144l7.4997 7.3217c.13.13.35.396.35.717 0 .205-.047.495-.27.717l-.002-.002-.531.477a.445.445 0 01-.604-.014L2.089 11.8983a.917.917 0 01-.277-.658v-1.289c0-.3479.317-.5659.617-.5149z"/></svg>