<svg role="img" viewBox="0 0 24 24" xmlns="http://www.w3.org/2000/svg"><title>Fandom</title><path d="M8.123.008a.431.431 0 00-.512.42v9.746L4.104 6.666a.432.432 0 00-.66.064.428.428 0 00-.071.239v10.064a2.387 2.387 0 00.701 1.694l4.565 4.57a2.4 2.4 0 001.693.703h3.34c.635 0 1.242-.252 1.691-.701l4.565-4.572a2.394 2.394 0 00.699-1.694V13.41a2.39 2.39 0 00-.7-1.693L8.343.125a.427.427 0 00-.219-.117zM9.646 12.51a.719.719 0 01.508.21l1.848 1.85 1.844-1.85a.714.714 0 011.015 0l1.32 1.321a.724.724 0 01.212.508v1.406a.72.72 0 01-.21.508l-3.68 3.7a.72.72 0 01-1.019 0l-3.668-3.7a.716.716 0 01-.209-.506v-1.408a.71.71 0 01.211-.506l1.32-1.322a.713.713 0 01.508-.211Z"/></svg>