<svg role="img" viewBox="0 0 24 24" xmlns="http://www.w3.org/2000/svg"><title>Fantom</title><path d="M10.97.231c.579-.308 1.462-.308 2.044 0l5.925 3.13c.348.183.54.456.575.741h.007v15.722c-.007.308-.203.617-.582.816l-5.925 3.129c-.582.308-1.465.308-2.043 0l-5.926-3.13c-.38-.198-.559-.507-.57-.815V4.103h.003c.028-.29.211-.555.567-.743Zm7.618 12.64-5.574 2.945c-.582.305-1.465.305-2.043 0L5.408 12.88v6.913l5.563 2.922c.312.168.636.328.957.352h.062c.332.003.656-.168.985-.325l5.613-2.972zM3.514 19.48c0 .605.07 1 .207 1.277.117.234.289.41.605.625l.016.012c.07.047.148.094.242.152l.11.067.335.203-.484.8-.375-.23-.063-.04c-.109-.066-.199-.124-.285-.179-.898-.605-1.234-1.27-1.242-2.644v-.043zm8.011-10.82c-.043.012-.082.032-.12.051L5.481 11.84a.03.03 0 0 0-.02.008l-.003.004.023.011 5.922 3.129c.04.02.078.035.121.05zm.934 0v6.383c.043-.016.082-.032.121-.051l5.922-3.129c.008-.004.012-.008.02-.008l.003-.004-.007-.007-.016-.004L12.58 8.71a.661.661 0 0 0-.121-.05zm6.129-3.44L13.27 8.023l5.317 2.804Zm-13.18.003v5.597l5.3-2.796Zm7.172-4.167c-.309-.164-.867-.164-1.176 0L5.482 4.184a.03.03 0 0 0-.02.008l-.003.004.023.012 5.922 3.128c.309.16.867.16 1.176 0l5.922-3.128c.008-.004.012-.008.02-.008l.003-.004-.007-.008-.016-.004zm6.883.343.375.227.066.039c.106.066.196.125.281.18.899.609 1.235 1.269 1.243 2.644v.043h-.934c0-.602-.07-1-.207-1.277-.117-.23-.289-.41-.605-.625l-.016-.012c-.07-.047-.149-.094-.238-.152l-.114-.067-.336-.203Z"/></svg>