<svg role="img" viewBox="0 0 24 24" xmlns="http://www.w3.org/2000/svg"><title>Farcaster</title><path d="M0 4.258h4.491V0h20.64v4.258H24l.77 4.258h4.958v17.226c.523 0 .947.433.947.968v1.161h.189c.523 0 .947.433.947.968V30H21.207v-1.161c0-.535.424-.968.947-.968h.19V26.71c0-.469.325-.859.757-.949v-9.503h-.03c-.335-3.798-3.458-6.774-7.26-6.774-3.803 0-6.926 2.976-7.26 6.774h-.03v9.484h.19c.522 0 .946.433.946.968v1.161h.19c.522 0 .946.433.946.968V30H.189v-1.161c0-.535.424-.968.947-.968h.19V26.71c0-.535.423-.968.946-.968V8.516H1.231Z"/></svg>