<svg role="img" viewBox="0 0 24 24" xmlns="http://www.w3.org/2000/svg"><title>FareHarbor</title><path d="M2.475 3.936c.028.82-.65 1.489-1.469 1.451V6.86c.5504-.0291.72.4531.704.6081.0224.2151-.1553.7024-.704.6599v1.168c.5519-.0371.7163.4737.694.6336.0237.1959-.1827.6773-.694.6334v1.166c.4192-.028.6986.2978.694.6198.0227.3114-.2746.7051-.694.6482v1.432c.8071-.0338 1.478.6152 1.471 1.423h19.087c-.0039-.7906.6404-1.4317 1.431-1.425v-1.4243c-.4915.009-.6857-.446-.655-.6727-.0041-.2335.22-.607.655-.604v-1.159c-.4532.0002-.6595-.3532-.655-.657.0046-.305.268-.6304.655-.618V8.135c-.5514-.0214-.6631-.4962-.65-.6653.0079-.2101.172-.6006.65-.6137V5.39c-.956.003-1.468-.843-1.429-1.453zm9.523.832a.2.2 0 01.096.027l3.39 2.006c.2.087.138.384-.08.385h-.82v3.609h1.018v1.057l-.641.601v1.795h5.371c.187 0 .34-.174.34-.389V6.04c0-.215-.153-.389-.34-.389h-4.795v-.402h4.795c.408 0 .74.355.74.791v7.82c0 .436-.332.791-.74.791H3.684c-.409 0-.74-.354-.74-.79V6.04c0-.437.331-.792.74-.792h4.718v.402H3.684c-.187 0-.34.174-.34.39v7.82c0 .214.153.388.34.388h5.328v-1.805l-.631-.591v-1.057h1.017v-3.61h-.816c-.204.001-.279-.268-.103-.372l3.412-2.018a.2.2 0 01.107-.027zm-.006.433L9.314 6.783h5.354zm7.17 2.056l-3.23.878c-.24.0519-.366-.2837-.106-.387l3.23-.878c.2853-.0478.337.3204.106.387zM5.0899 6.915c.1625.0468 1.9541.552 2.9491.833.2385.0769.1753.4327-.11.387l-2.925-.826c-.221-.062-.1847-.419.0859-.394zm4.7111.271v3.609h1.996v-.61c-1.373-.265-1.346-2.152 0-2.406v-.593zm2.398 0v.597c1.348.272 1.336 2.14 0 2.4v.612h1.983v-3.61zm-.217.978c-1.074.045-1.08 1.591.008 1.637 1.09-.037 1.094-1.604-.008-1.637zm-7.837.631h3.43c.2588.0156.271.3903 0 .402h-3.43a.201.201 0 010-.402zm12.146 0h3.43c.256.0117.2797.3786 0 .402h-3.43c-.2838-.0317-.25-.3937 0-.402zm-.354.91l3.077.924c.253.09.1408.447-.116.385l-3.076-.924c-.2657-.0971-.1309-.454.115-.385zm-7.894.385l-2.72.82c-.257.0634-.371-.2865-.118-.385l2.723-.82c.2717-.0511.354.294.115.385zm.738 1.107v.48l.516.483h5.389l.515-.482v-.48H9.398zm.631 1.366v1.156l3.004-1.156zm4.121 0c-1.372.528-2.749 1.061-4.12 1.58v.105h2.534l2.612-1.107v-.579zm1.026 1.013l-1.608.672h1.608zM0 17.617v2.412h.508v-.933h1.178v-.483H.508V18.1h1.336v-.483zm9.52 0v2.412h.484v-1.011h1.002v1.011h.506v-2.412h-.506v.944h-1.002v-.944zm10.943.348c-.64 0-1.108.472-1.108 1.049.023.777.654 1.052 1.102 1.05.64 0 1.105-.474 1.105-1.05.003-.638-.525-1.053-1.099-1.049zm-17.565.021l-.89 2.043h.467l.19-.455h.876l.19.455h.478l-.89-2.043zm9.98 0l-.888 2.043h.465l.19-.455h.878l.19.455h.476l-.888-2.043zM4.708 18v2.03h.457v-.651h.357l.446.65H6.5l-.506-.724c.264-.096.445-.302.445-.63.012-.503-.414-.681-.783-.675zm2.44 0v2.03H8.73v-.4H7.602v-.425h.978v-.396h-.978v-.413h1.11V18zm7.54 0v2.03h.458v-.651h.359l.445.65h.533l-.507-.724c.264-.096.445-.302.445-.63 0-.573-.504-.682-.783-.675zm2.383 0v2.03h.987c.468 0 .777-.186.777-.557.003-.41-.355-.484-.389-.504.149-.081.274-.209.274-.438-.015-.51-.56-.531-.686-.531zm5.135 0v2.03h.457v-.651h.36l.445.65H24l-.508-.724c.264-.096.445-.302.445-.63.008-.488-.379-.677-.783-.675zm-1.748.377a.62.62 0 01.627.637c-.008.86-1.238.84-1.25-.006 0-.348.255-.631.623-.631zm-2.943.014h.45c.244 0 .303.128.302.215 0 .15-.129.214-.33.214h-.422zm-12.35.011h.453c.223 0 .36.1.36.291-.005.23-.2.29-.35.293h-.463zm9.98 0h.456c.222 0 .357.1.357.291.018.239-.255.297-.35.293h-.462zm7.518 0h.455c.223 0 .358.1.358.291-.013.265-.255.297-.35.293h-.463zm-19.56.12l.277.658h-.553zm9.982 0l.275.658h-.55zm4.43.67h.529c.234 0 .338.084.338.22.002.213-.22.226-.324.226h-.543z"/></svg>