<svg role="img" xmlns="http://www.w3.org/2000/svg" viewBox="0 0 24 24"><title>Fastlane icon</title><path d="M16.914 23.5827c-1.0442-.044-2.0633-.57-2.7064-1.4002-.043-.056-.048-.068-.035-.08.014-.013.8761-.652.8972-.664.006-.004.038.027.073.072 1.2001 1.5231 3.6944 1.074 4.3125-.7772.315-.943-.006-2.1582-.7061-2.6703-.023-.018-.074-.057-.114-.09-.282-.225-1.1422-.56-1.2922-.503-.014.005-.016.002-.01-.018l1.2002-3.7105.76-2.3502.017-.06-.1-.104c-1.053-1.0952.078-2.8934 1.5222-2.4203 1.4402.47 1.2802 2.5853-.213 2.8263-.054.01-.1.017-.1.02-.006.006-1.6352 5.0266-1.6352 5.0376 0 .008.008.016.02.02.224.07.856.59 1.1221.922 1.9662 2.4604.133 6.0808-3.0133 5.9508zm-10.4172-.118c-.016-.002-.09-.01-.162-.02-2.3603-.286-3.8155-2.7804-2.9204-5.0076.11-.278.38-.7521.416-.7301.03.018.9201.65.9201.653 0 .002-.03.047-.063.1-.742 1.1422-.413 2.6884.7321 3.4455 1.1602.766 2.7523.425 3.4804-.7461.105-.17.247-.48.268-.585.005-.028.02-.08.035-.114.09-.2201.125-.6842.077-.9882-.01-.07-.02-.143-.02-.16v-.034h6.4288l.034-.075c.64-1.4002 2.7883-.9101 2.7883.638 0 1.5372-2.1102 2.0443-2.7733.6681l-.036-.072h-5.3026l-.006.023c-.002.012-.017.077-.03.145-.388 1.7702-2.1402 3.0684-3.8664 2.8604zm.13-2.1983c-1.1772-.163-1.6972-1.5142-.9371-2.4323.037-.043.08-.09.098-.103l.03-.024-.8171-2.5153c-.448-1.3831-.8201-2.5203-.8241-2.5233-.004-.005-.055-.003-.114.005C1.9362 13.9435.002 12.2164 0 10.0471c0-2.3033 2.0802-4.0305 4.3405-3.6034.133.025.38.09.393.1-.144.52-.178.61-.33 1.0961l-.132-.035C2.4923 7.1488.831 8.727 1.193 10.5272c.326 1.6202 2.1183 2.5103 3.5845 1.7772.08-.04.15-.072.15-.07.003.003.05.143.104.312l.272.84.8501 2.6254.7201 2.2173c.04.12.042.125.07.125.424 0 .9531.36 1.1721.794.5241 1.0452-.342 2.2763-1.4901 2.1163zm14.8517-7.6609c-.12-.35-.325-.966-.325-.972 0-.004.036-.02.08-.035 1.4681-.5142 2.0742-2.3804 1.2071-3.7185-.722-1.1142-2.3033-1.4702-3.3884-.7641l-.1.063c-.275.167-.6.53-.8101.9061-.043.08-.082.145-.085.145-1.8302-1.3251-3.2204-2.3403-5.1906-3.7704l-.098.05c-1.4742.734-2.8634-1.0831-1.7662-2.3083.944-1.0551 2.7363-.2 2.5303 1.2072l-.012.097c0 .014 4.2545 3.1253 4.2755 3.1253.003 0 .044-.034.09-.075 1.4721-1.3201 3.6604-1.2731 5.0456.11 1.7562 1.7562 1.2801 4.7406-.9361 5.8487-.15.075-.4431.196-.4751.196-.003 0-.022-.046-.042-.104zM3.4084 11.5413c-.8751-.14-1.4302-1.0561-1.1601-1.9102.272-.8521 1.2541-1.2702 2.0542-.8701.044.02.087.037.095.034.01-.004 4.2105-3.0554 4.2665-3.1004.002 0-.01-.033-.025-.07-.307-.735-.408-1.3742-.317-2.0282C8.719.712 12.0894-.5841 14.3197 1.29c.777.65 1.3181 1.7702 1.3181 2.7233v.05c-.384 0-.81.003-1.1541.004l-.002-.067c-.07-2.0442-2.4603-3.1374-4.0625-1.8582-.868.693-1.1921 2.0102-.732 2.9703.02.04.035.076.035.083 0 .038.304.4961.33.4961.004 0 .02.02.034.042.014.023.066.08.114.125l.088.085L7.6819 7.839C5.8767 9.152 5.0776 9.739 5.0816 9.749c.043.113.056.436.023.597-.16.7951-.9101 1.3202-1.6962 1.1952zM18.057 9.251c0-.008.003-.01.007-.007s.004.01 0 .013c-.004.004-.007 0-.007-.007z"/></svg>