<svg xmlns="http://www.w3.org/2000/svg" role="img" viewBox="0 0 24 24"><title>Fastify icon</title><path d="M23.245 6.49L24 4.534l-.033-.12-7.473 1.968c.796-1.153.522-2.077.522-2.077s-2.386 1.524-4.19 1.483c-1.806-.04-2.387-.522-5.155.361-2.768.883-3.55 3.59-4.352 4.172-.802.582-3.32 2.477-3.32 2.477l.01.035 2.27-.723s-.622.587-1.944 2.37l-.062-.059v.013s1.062 1.625 2.105 1.323c.105-.03.223-.08.353-.146.42.234.967.464 1.573.527 0 0-.41-.476-.752-1.018l.283-.183-.044.031.864.318-.095-.813c0-.001.01-.003.01-.005l.85.312-.106-.74a9.59 9.59 0 01.322-.159l.885-3.349 3.66-2.497-.29.732c-.741 1.825-2.135 2.256-2.135 2.256l-.582.22c-.433.512-.615.638-.763 2.354.349-.087.682-.108.983-.027 1.565.42 2.106 2.306 1.685 2.828-.105.13-.356.354-.674.615h-.634l-.01.514-.065.051H7.05l-.01.502-.17.128c-.606.012-1.374-.517-1.374-.517 0 .481.4 1.223.4 1.223l.071-.034-.06.044s1.624 1.083 2.647.682c.91-.356 3.264-2.213 5.296-3.091l6.15-1.62.81-2.102-4.686 1.235v-1.887l5.5-1.448.81-2.101-6.309 1.662V8.367zm-11.162 4l1.459-.384.019.072-.455 1.18-1.513.398zm.504 2.525l-1.513.398.49-1.267 1.459-.385.019.073zm1.97-.424l-1.513.399.49-1.267 1.459-.385.019.073z"/></svg>