<svg role="img" viewBox="0 0 24 24" xmlns="http://www.w3.org/2000/svg"><title>Fauna</title><path d="M17.828 5.044c-1.444.495-2.142 1.384-2.616 2.769a2.453 2.47 0 0 1-.772 1.057l1.186 1.305-3.764-2.707L1.474.005s.75 5.006 1.01 6.85c.185 1.298.5 1.88 1.491 2.47l.4.221 1.71.928-1.014-.543 4.697 2.636-.032.07-5.055-2.406c.268.943.788 2.762 1.01 3.564.238.865.505 1.183 1.324 1.49l1.508.565.93-.377-1.184.81-5.928 7.738c3.94-3.763 7.273-5.102 9.714-6.196 3.112-1.384 4.986-2.274 6.211-5.468.873-2.245 1.552-5.117 2.416-6.227l1.844-2.425s-3.817 1.039-4.697 1.339z"/></svg>