<svg role="img" viewBox="0 0 24 24" xmlns="http://www.w3.org/2000/svg"><title>Fediverse</title><path d="M4.587 7.90979a2.295 2.29512 0 0 1-2.416 2.1661A2.295 2.29512 0 0 1 .003 7.65978a2.295 2.29512 0 0 1 2.418-2.16711 2.295 2.29512 0 0 1 2.166 2.41713ZM6.463 19.9054a2.295 2.29512 0 0 1-2.417 2.16612A2.295 2.29512 0 0 1 1.88 19.6554a2.295 2.29512 0 0 1 2.416-2.16611 2.295 2.29512 0 0 1 2.167 2.41612Zm11.993 1.9241a2.295 2.29512 0 0 1-2.416 2.16712 2.295 2.29512 0 0 1-2.168-2.41713 2.295 2.29512 0 0 1 2.417-2.16711 2.295 2.29512 0 0 1 2.167 2.41712zm5.537-10.80656a2.295 2.29512 0 0 1-2.417 2.16811 2.295 2.29512 0 0 1-2.168-2.41812 2.295 2.29512 0 0 1 2.418-2.16512 2.295 2.29512 0 0 1 2.167 2.41513zm-8.57-8.60245a2.295 2.29512 0 0 1-2.419 2.16711 2.295 2.29512 0 0 1-2.166-2.41712A2.295 2.29512 0 0 1 13.254.00337a2.295 2.29512 0 0 1 2.168 2.41713ZM4.788 7.40676a2.525 2.52513 0 0 1 .028.51603 2.525 2.52513 0 0 1-.263.98905l3.716.59603L9 8.0828Zm6.368 1.02205-.73 1.42508 8.777 1.41007a2.525 2.52513 0 0 1-.025-.50203 2.525 2.52513 0 0 1 .27-1.00205zm3.118-3.8872a2.525 2.52513 0 0 1-1.283.27401 2.525 2.52513 0 0 1-.22-.023l.58 3.7122 1.58.25401zm-.588 6.12032 1.37 8.77546a2.525 2.52513 0 0 1 1.245-.25401 2.525 2.52513 0 0 1 .264.03l-1.296-8.29744ZM10.64 2.70151 4.096 6.0197a2.525 2.52513 0 0 1 .688 1.36007l6.545-3.31717a2.525 2.52513 0 0 1-.688-1.35808zm4.725.76004a2.525 2.52513 0 0 1-1.08 1.07406l5.177 5.19727a2.525 2.52513 0 0 1 1.08-1.07505zm4.56 9.23049-3.343 6.52434a2.525 2.52513 0 0 1 1.355.69503l3.344-6.52534a2.525 2.52513 0 0 1-1.357-.69503zm-13.26 6.71635a2.525 2.52513 0 0 1 .025.51002 2.525 2.52513 0 0 1-.266.99505l7.243 1.16207a2.525 2.52513 0 0 1-.027-.50803 2.525 2.52513 0 0 1 .267-.99605Zm-3.245-9.3665a2.525 2.52513 0 0 1-1.26.26402 2.525 2.52513 0 0 1-.245-.026l1.132 7.24438a2.525 2.52513 0 0 1 1.262-.26402 2.525 2.52513 0 0 1 .243.025zm7.935-5.9543-3.83 7.47439 1.13 1.13506 4.055-7.91442a2.525 2.52513 0 0 1-1.355-.69503Zm-4.826 9.41849-1.94 3.7862a2.525 2.52513 0 0 1 1.356.69603l1.715-3.34817Zm12.682-2.20012-3.355 1.7001.247 1.58308 3.797-1.9251a2.525 2.52513 0 0 1-.689-1.36008zm-5.305 2.68714-7.935 4.02021a2.525 2.52513 0 0 1 .69 1.36008l7.494-3.7972zM4.532 8.94984a2.525 2.52513 0 0 1-1.08 1.07506l5.93 5.9503 1.43-.72403zm7.821 7.85041-1.43.72404 3.004 3.01416a2.525 2.52513 0 0 1 1.08-1.07506z"/></svg>