<svg role="img" xmlns="http://www.w3.org/2000/svg" viewBox="0 0 24 24"><title>Fedora icon</title><path d="M12.005.001C7.29-.064 2.744 2.962.957 7.317c-.885 1.953-1 4.116-.946 6.225.01 2.666-.02 5.335.015 7.999.113 1.542 1.654 2.614 3.134 2.44 3.257-.02 6.514.044 9.77-.034 4.79-.303 9.155-3.796 10.527-8.39 1.4-4.345.03-9.413-3.39-12.443A11.968 11.967 0 0012.005.001zm3.52 2.842c.406-.01.807.032 1.197.117.557.286.945.826.902 1.383-.058.75-.587 1.247-1.38 1.246a2.95 2.95 0 00-.72-.09c-1.725-.053-3.167 1.61-2.97 3.305.024.796-.044 1.601.033 2.392.333.457.987.18 1.475.256.276 0 .562.007.85.008a.134.134 0 00.042.008 1.29 1.29 0 011.29 1.295 1.29 1.29 0 01-1.298 1.295.14.14 0 00-.06.013c-.777.003-1.553 0-2.33.002-.066 1.616.197 3.276-.31 4.84-.865 2.706-3.97 4.337-6.685 3.62-.537-.284-.91-.79-.868-1.334.062-.796.656-1.308 1.532-1.24.075.006.113.012.168.02.716.14 1.477.034 2.107-.391 1.127-.645 1.502-1.977 1.396-3.193-.02-.687.043-1.384-.033-2.066-.333-.456-.984-.18-1.472-.256h-.8a.137.137 0 00-.066-.015 1.29 1.29 0 01-1.298-1.295c0-.72.574-1.29 1.29-1.295a.136.136 0 00.063-.016h2.316c.06-1.507-.159-3.046.213-4.523.648-2.376 2.952-4.12 5.415-4.086zm.705.052l.13.024zm1.224.28c1.444.543 2.636 1.706 3.25 3.12a81.141 81.136 0 01-2.903-2.592 1.762 1.762 0 00-.346-.527zm.45.935a86.96 86.954 0 002.966 2.596c-.014-.044-.033-.087-.049-.13.166.448.265.918.301 1.402a77.847 77.842 0 01-3.39-2.975l.015-.033c.088-.182.143-.386.16-.606a1.393 1.393 0 000-.197c0-.019-.002-.038-.004-.057zm.02.196c-.058.516-.058.516 0 0zm-.314.894a85.347 85.341 0 003.53 3.06c0 .071.015.14.013.21a4.94 4.94 0 01-.06.814A78.528 78.523 0 0117.011 5.7a1.56 1.56 0 00.6-.5zm.526 1.83c.898.8 1.856 1.623 2.918 2.485a5.215 5.215 0 01-.242.863 74.032 74.027 0 01-2.307-1.963l.002.055c0 .076-.004.152-.01.226.703.612 1.44 1.237 2.24 1.885-.109.26-.234.512-.38.752a73.605 73.6 0 01-2.06-1.752 3.13 3.13 0 00-.16-2.55zm.068 2.758c.644.56 1.32 1.131 2.043 1.72a5.868 5.867 0 01-.5.651 74.24 74.235 0 01-1.99-1.705c.185-.2.332-.425.447-.666zm-.603.816a82.545 82.54 0 002.005 1.71c-.19.2-.392.385-.607.556a75.858 75.853 0 01-2.043-1.77c.203-.108.396-.247.572-.425.027-.022.047-.047.073-.07zm-.86.594a84.37 84.365 0 002.088 1.8c-.23.17-.48.311-.734.444a79.06 79.054 0 01-2.256-2.005c-.024.002-.05.001-.074.003l-.026-.015a3.506 3.506 0 001.002-.227zm-10.046.248l-.02.014h-.013l.004.004a1.573 1.573 0 00-.51.55l-.45-.427a5.38 5.38 0 01.99-.14zm-.994.14l-.127.032.127-.03zm-.27.075l.622.592a1.55 1.55 0 00.008 1.045c-.468-.444-.94-.893-1.432-1.348.26-.118.529-.21.803-.289zm-1.03.4c.72.674 1.425 1.347 2.134 2.03a2.68 2.68 0 00-.826.242c-.64-.61-1.3-1.23-1.998-1.865a5.98 5.98 0 01.69-.406zm12.022.204c.473.42.958.846 1.474 1.285a5.37 5.37 0 01-.908.342l-.617-.498a1.55 1.55 0 00.05-1.13zm-12.901.345a140.01 140.01 0 011.958 1.844 3.158 3.158 0 00-1.527 2.332A98.329 98.323 0 001.777 14.8a5.574 5.573 0 00-.091.22c.777.698 1.522 1.391 2.252 2.087.002.284.042.57.14.848.053.19.13.366.22.533a107.243 107.236 0 00-2.86-2.635c.027-.108.04-.217.074-.323.137-.518.366-.998.65-1.44.69.621 1.35 1.241 2.002 1.86a2.98 2.98 0 01.107-.232 99.457 99.45 0 00-1.986-1.819c.15-.214.31-.42.49-.613A109.76 109.76 0 014.7 15.088c.054-.06.11-.122.168-.178a98.104 98.104 0 00-1.94-1.79 5.82 5.82 0 01.592-.509zm12.719.153l-.027.265zm1.733.754l-.05.023.05-.023zm-1.72.091l.44.354c-.287.06-.582.096-.88.103h-.016a1.56 1.56 0 00.457-.457zM1.386 16.101c1.32 1.189 2.532 2.357 3.78 3.559l.175.166c-.237.107-.44.266-.594.465A125.942 125.935 0 001.3 17.076a5.176 5.176 0 01.086-.976zm-.07 1.29A154.286 154.276 0 014.61 20.5c-.11.2-.18.428-.2.677a1.406 1.406 0 000 .166c-.92-.884-1.856-1.78-2.88-2.71a5.65 5.65 0 01-.215-1.243zm.378 1.714c.943.876 1.852 1.748 2.778 2.64l.02.02c.07.195.186.372.327.532-1.445-.56-2.562-1.767-3.125-3.192zm3.352.264c.179.14.374.26.58.358l-.025.005-.018-.015a3.014 3.014 0 01-.537-.348zm1.047 3.252l.15.025zm.228.04s.09.007.274.025a33.671 33.669 0 00-.274-.026z"/></svg>