<svg role="img" viewBox="0 0 24 24" xmlns="http://www.w3.org/2000/svg"><title>Fedora Silverblue</title><path d="M23.973.109 19.76 4.292c.273.291.442.68.442 1.105 0 .889-.732 1.62-1.62 1.62-.252 0-.49-.06-.704-.165l-4.515 4.5h3.754a1.63 1.63 0 0 1 1.513-1.046c.888 0 1.62.732 1.62 1.62 0 .889-.732 1.62-1.62 1.62a1.63 1.63 0 0 1-1.54-1.119h-4.806l-5.517 5.5h10.328a1.63 1.63 0 0 1 1.535-1.108c.888 0 1.62.732 1.62 1.62 0 .889-.732 1.621-1.62 1.621a1.63 1.63 0 0 1-1.517-1.059H4.95l-4.924 4.89h18.299a5.635 5.635 0 0 0 5.647-5.647zM19 5.047l-.772.767c.094.08.216.128.352.128a.537.537 0 0 0 .546-.545.544.544 0 0 0-.126-.35zm-.371 6.334a.537.537 0 0 0-.546.545c0 .308.238.546.546.546a.537.537 0 0 0 .545-.546.537.537 0 0 0-.545-.545zm0 6.513a.537.537 0 0 0-.546.545c0 .308.238.546.546.546a.537.537 0 0 0 .545-.546.537.537 0 0 0-.545-.545zM5.647.11A5.635 5.635 0 0 0 0 5.756C0 12.207.054 23.89.054 23.89h18.299A5.635 5.635 0 0 0 24 18.244V.11Zm-.178 3.668c.889 0 1.62.731 1.62 1.62a1.63 1.63 0 0 1-1.058 1.517V17.17l5.5-5.481V6.936a1.63 1.63 0 0 1-1.12-1.539c0-.889.731-1.62 1.62-1.62.888 0 1.62.731 1.62 1.62 0 .687-.437 1.278-1.046 1.512v3.707l4.543-4.527a1.597 1.597 0 0 1-.16-.692c0-.889.732-1.62 1.62-1.62.89 0 1.621.731 1.621 1.62 0 .889-.732 1.62-1.62 1.62-.252 0-.49-.06-.704-.165l-4.515 4.5h3.755a1.63 1.63 0 0 1 1.512-1.046c.888 0 1.62.732 1.62 1.62 0 .889-.732 1.62-1.62 1.62a1.63 1.63 0 0 1-1.54-1.119h-4.806l-5.517 5.5h10.328a1.63 1.63 0 0 1 1.535-1.108c.888 0 1.62.732 1.62 1.62 0 .889-.732 1.621-1.62 1.621a1.63 1.63 0 0 1-1.517-1.059H4.956V6.931a1.63 1.63 0 0 1-1.107-1.534c0-.889.732-1.62 1.62-1.62zm0 1.075a.537.537 0 0 0-.545.545c0 .307.238.545.545.545a.537.537 0 0 0 .546-.545.537.537 0 0 0-.546-.545zm6.562 0a.537.537 0 0 0-.545.545c0 .307.237.545.545.545a.537.537 0 0 0 .545-.545.537.537 0 0 0-.545-.545zm6.577 0a.537.537 0 0 0-.545.545c0 .307.238.545.545.545a.537.537 0 0 0 .546-.545.537.537 0 0 0-.546-.545zm.049 6.529a.537.537 0 0 0-.546.545c0 .308.238.546.546.546a.537.537 0 0 0 .545-.546.537.537 0 0 0-.545-.545zm0 6.513a.537.537 0 0 0-.546.545c0 .308.238.546.546.546a.537.537 0 0 0 .545-.546.537.537 0 0 0-.545-.545z"/></svg>