<svg role="img" viewBox="0 0 24 24" xmlns="http://www.w3.org/2000/svg"><title>Feeds Pub icon</title><path d="M18.57.09c-1.02.11-1.7.27-2.6.6-5.24 1.9-8.32 4.7-8.65 7.89-.03.35-.06.4-.25.51l-.36.24a6.83 6.83 0 00-3.04 4c-.3 1.2-.43 3.37-.33 5.82 0 .34.03.88.04 1.2l.05 1.54c.03 1.25.06 1.35.4 1.68.74.71 1.88.33 2.06-.68.05-.25.04-.5-.09-4.02-.08-2.32.06-4.39.36-5.23.27-.74 1.11-1.83 1.33-1.71.06.03.09.09.18.43 1.03 3.76 3.55 4.87 6.03 2.64 2.07-1.87 2.34-5.07.53-6.27-.74-.5-1.5-.65-3.18-.65-.53 0-.97-.01-.99-.03-.06-.03-.03-.16.1-.4.78-1.58 2.89-3.13 5.78-4.3a7.85 7.85 0 013.19-.78c.8-.03 1.07-.14 1.34-.55.44-.66.2-1.46-.55-1.84l-.18-.1h-1.17m-6.2 10.55c.5.1.56.17.55.69 0 .4-.03.57-.18.89-.29.64-1.12 1.42-1.51 1.42-.44 0-1-1.03-1.28-2.4-.11-.53-.1-.57.28-.64a12.6 12.6 0 012.15.04"/></svg>
