<svg role="img" viewBox="0 0 24 24" xmlns="http://www.w3.org/2000/svg"><title>Feeds Pub</title><path d="M17.69 1.73a9.2 9.2 0 00-2.93.76c-4.07 1.63-6.4 3.86-6.74 6.45-.06.4-.07.43-.32.59a5.88 5.88 0 00-2.95 4.13c-.22 1.41-.25 2.52-.13 5.55l.05 1.49c.01.65.03.75.12.94.41.82 1.58.77 1.94-.09.07-.17.07-1.32 0-2.85-.1-2.58-.02-4.38.25-5.25.15-.44.45-.93.8-1.3.34-.35.4-.33.52.1.87 3.14 2.9 4.15 4.99 2.47 1.97-1.6 2.3-4.5.62-5.6-.6-.4-1.3-.53-2.73-.53-.97 0-.93.02-.7-.42.67-1.33 2.48-2.66 5.01-3.68 1.23-.49 1.7-.6 2.69-.65.53-.02.66-.05.86-.19.66-.45.6-1.46-.11-1.81-.28-.14-.54-.16-1.24-.11m-5.43 9.04c.48.07.58.17.58.59 0 .69-.38 1.34-1.05 1.82-.35.26-.56.25-.8-.06-.39-.48-.89-2.02-.73-2.26.1-.15 1.28-.2 2-.1"/></svg>