<svg role="img" viewBox="0 0 24 24" xmlns="http://www.w3.org/2000/svg"><title>Feeds Pub icon</title><path d="M18.28.03c-.08 0-.23.03-.32.05-1.88.3-5.06 1.68-6.98 3.05-2.23 1.6-3.46 3.4-3.7 5.38-.04.4-.07.44-.25.56-1.93 1.17-3.12 2.72-3.49 4.54-.31 1.53-.36 3.34-.22 6.87l.06 1.6c.01 1.01.06 1.2.33 1.49.6.64 1.47.57 1.94-.14.25-.4.26-.59.15-3.45-.16-3.96-.03-5.73.5-6.8.24-.46.86-1.2 1.08-1.29.1-.03.14.03.25.45 1.03 3.92 3.84 4.98 6.33 2.39 1.84-1.91 1.99-4.87.3-6.01-.76-.52-1.67-.7-3.4-.67-1 0-.97.03-.74-.43.8-1.6 2.95-3.19 5.96-4.39 1.4-.55 1.96-.69 3.08-.73.6-.03.74-.05.99-.21.82-.54.72-1.77-.19-2.2L19.78 0h-.68c-.37 0-.74.02-.82.03m-6.22 10.53c.77.09.86.17.86.72a2.3 2.3 0 01-.76 1.72c-.49.5-.84.7-1.09.6-.34-.12-.82-1.03-1.06-2-.22-.89-.2-.97.2-1.03.24-.03 1.54-.04 1.85 0"/></svg>
