<svg role="img" xmlns="http://www.w3.org/2000/svg" viewBox="0 0 24 24"><title>Ferrari icon</title><path d="M20.511 9.773c-.096.13-.139.387-.278.602-.194.3-.473.665-.613.665-.075 0-.096-.17-.096-.17s-.097-.29.064-.656c.118-.258.183-.333.333-.527.14-.182.226-.279.322-.472.086-.172.108-.204.161-.473.011-.064-.01-.204-.075-.193-.086 0-.322.515-.569.805-.236.27-.677.613-.677.613s-.043.032-.043-.054c-.01-.075-.02-.3.022-.505.043-.204.107-.408.29-.72.204-.354.462-.6.59-.73.054-.053.215-.15.13-.204-.076-.043-.3.15-.473.28-.215.16-.29.204-.505.461a2.338 2.338 0 00-.268.365s-.204.333-.258.656c-.054.322-.054.504-.054.504a3.29 3.29 0 00.13.924s.107.312.15.506c.042.193.118.762.118.762s.053.408.021.795c-.032.386-.064.612-.107.73s-.16.43-.355.644a2.556 2.556 0 01-.225.237s-.194.16-.355.247a3.727 3.727 0 01-.504.225 2.301 2.301 0 01-.269.032h-.14l-.042-.032-.022-.086s-.107-.42-.236-.687a4.452 4.452 0 00-.333-.537s-.387-.526-.687-.816c-.344-.344-.73-.602-.967-.784a5.056 5.056 0 00-.28-.183s-.783-.784-1.062-1.408c-.194-.43-.322-.74-.269-1.213.011-.107.054-.312.075-.312l.14.043c.01.011.14.13.258.172a1.769 1.77 0 00.333.065c.053.021.15.053.214.086.065.032.162.096.162.096l.182.14.193.15s.108.075.14.086c.032.01.054.022.064.022h.043s.043-.01.054-.054c.01-.054-.054-.01-.15-.118a.697.697 0 01-.15-.183s-.022-.086-.108-.182a1.826 1.826 0 00-.193-.183s-.075-.054-.183-.086c-.107-.032-.14-.032-.15-.075-.01-.043.13-.02.13-.02s.16.02.29.084c.128.065.203.14.203.14l.086.075.053.054.054.032s.054.054.064-.02c.011-.066-.01-.119-.02-.13l-.055-.054-.215-.182a.998.998 0 00-.17-.15 1.305 1.305 0 00-.28-.15c-.108-.044-.172-.033-.28-.087-.075-.032-.14-.054-.182-.118-.01-.01-.065-.054.032-.032.097.021.161.053.268.075.172.043.28.043.44.096.065.022.151.065.151.065l.204.086s.28.15.473.16a.933.933 0 00.418-.064.812.812 0 00.215-.128.476.476 0 00.054-.065l.021-.054v-.043c-.053-.064-.16.108-.333.14-.182.032-.17.054-.29.032a.477.477 0 01-.3-.15c-.172-.16-.236-.312-.462-.408a2.134 2.134 0 00-.268-.086s-.237-.075-.366-.15c-.096-.054-.3-.086-.236-.172.032-.043.29.107.483.13.14.02.237.01.344.01.107 0 .258-.033.28-.033.02-.01.107 0 .182.022.075.021.118.053.193.086.075.032.161.085.183.085l.043.011.021-.02.01-.023-.01-.02-.032-.023-.065-.043s-.096-.053-.182-.14c-.086-.085-.16-.182-.29-.225-.129-.043-.28-.064-.28-.064l-.15-.01-.064-.01s-.107-.034-.022-.055a.939.939 0 01.15-.033.494.494 0 01.248.011c.086.032.225.107.236.107.01.011.14.108.28.14.14.032.321.043.321.043l.086-.02.043-.012.033-.022-.01-.053s0-.043-.066-.054a.71.71 0 01-.31-.118c-.119-.086-.205-.172-.205-.172s-.086-.075-.258-.118c-.16-.043-.215-.043-.215-.043l-.053-.022-.118-.053s-.054-.032-.097-.086c-.043-.054-.107-.15.075-.097a.86.86 0 01.226.086s.096.097.182.107c.054.011.097.022.13-.02.053-.055-.098-.119-.205-.194a.73.73 0 01-.172-.194s-.064-.053.032-.032c.097.022.27.13.27.13s.085.042.128.053c.032.01.118.064.16.086.033.01.13.032.194.064.086.054.13.14.172.172.043.032.075.086.13.097.053.01.063.032.095.01.033-.02.043-.032.043-.032s.011-.02-.043-.054a.57.57 0 01-.118-.118l-.02-.043-.01-.043-.056-.086-.096-.14s-.15-.203-.29-.278a2.459 2.459 0 00-.226-.119s-.064-.032-.096-.053c-.054-.043-.076-.075-.118-.13-.054-.064-.076-.106-.14-.17-.118-.119-.483-.183-.344-.27.075-.042.172-.02.215-.01.043.01.14.054.236.086.065.021.108.021.172.043.065.021.14.032.172.053.032.022.064.065.086.076.01.01.097.15.247.225.15.075.225.13.376.14.118.01.311-.032.311-.032s.054-.022.01-.076c-.053-.053-.053-.064-.096-.075-.172-.064-.31-.043-.44-.172-.054-.053-.075-.064-.118-.15s-.022-.107-.054-.16c-.02-.055-.075-.13-.075-.13s-.16-.193-.333-.29a1.93 1.93 0 01-.333-.215c-.032-.02-.097-.107-.097-.107l-.053-.086-.032-.064c-.022-.119.193.032.311.075.193.064.29.15.483.215.108.032.172.032.28.075.182.075.236.257.43.28.106.01.321.053.278-.044-.043-.107-.257-.107-.365-.236-.054-.054-.054-.108-.107-.16-.086-.109-.29-.205-.29-.205s-.065-.054-.14-.204c-.064-.15-.225-.258-.515-.398-.194-.096-.58-.118-.43-.215.086-.064.161-.053.28-.02.117.042.16.096.257.14.097.042.14.052.161.063.022.01.097.043.13.043.02.01.182.032.225.043l.214.054.172.064s.086.032.14.032c.053 0 .14-.02.14-.02l.064-.044.01-.022s.033-.053-.053-.064c-.075-.01-.118-.01-.129-.01L15.98 4.2l-.032-.01s-.15-.119-.28-.173c-.14-.054-.16-.064-.16-.064l-.054-.01-.065-.01s-.054 0-.14-.077c-.085-.075-.118-.118-.193-.193l-.096-.097s-.086-.064-.086-.118c.01-.086.193.097.193.097l.13.086s.106.075.3.085c.193.011.43-.053.43-.053s.031-.022.14.01a.696.696 0 01.192.097l.086.075.13.14.02-.01c.011-.012.065-.065-.032-.183-.097-.119-.258-.226-.258-.226s-.214-.129-.43-.172c-.214-.043-.31-.043-.31-.043s-.162 0-.258-.107c-.097-.107-.16-.215-.16-.215l-.034-.15s-.053-.065-.16-.108c-.097-.043-.205-.107-.205-.107s-.16-.054-.172-.129c-.032-.14.27 0 .43.032.15.033.215.086.365.118a.915.915 0 00.344.033c.075 0 .118-.01.193-.022.075 0 .13-.01.204 0 .107.022.15.075.258.118.064.033.096.065.172.076.064.01.193.053.171-.01l-.032-.044c-.053-.075-.118-.075-.182-.13-.14-.106-.204-.192-.365-.268a.923.923 0 00-.29-.096c-.086-.01-.15.01-.237-.01-.096-.033-.129-.076-.225-.13-.15-.086-.236-.16-.398-.225a2.596 2.596 0 00-.29-.086l-.075-.01-.032-.01c-.15-.055.27-.174.462-.227.097-.022.14-.043.236-.032.086.01.183.128.28.075.14-.075-.162-.28-.258-.312-.13-.053-.355-.01-.355-.01l-.494-.01-.14-.023s-.085 0-.15-.075c-.064-.075-.31-.376-.59-.419-.29-.043-.376 0-.398-.021-.247-.387-.504-.473-.698-.655-.053-.054-.14-.172-.16-.161-.022.01-.055.172-.108.311-.065.161-.022.236.01.3.043.065.097.108-.01.173-.108.064-.247.043-.247.043s-.118-.022-.215-.076c-.097-.043-.3-.128-.3-.128S11.157.57 11.028.58c-.129.01-.14.021-.236.032-.054 0-.075 0-.129.01-.043.011-.097-.02-.097.033 0 .053.108.053.183.086.075.032.247.032.215.075-.043.043-.204.054-.215.043-.01 0-.118-.022-.204-.022-.14.011-.15.011-.355.108-.032.01-.02.086.043.064a1.12 1.12 0 01.301-.043c.13 0 .204.043.333.075.107.033.118.054.28.076.031 0 .096-.022.096.021 0 .022-.043.054-.043.054s-.097.021-.086.053c.021.043.107 0 .15 0s.108.011.097.054l-.02.032a2.294 2.294 0 00-.29.097c-.27.107-.377.236-.635.365-.247.118-.644.27-.644.27s-.119.063-.29.106c-.172.043-.183.032-.3.054a.567.567 0 00-.269.086.522.522 0 00-.15.118l-.15.225-.087.13c-.022.042-.043.064-.054.107-.02.053-.032.075-.043.128-.032.13 0 .204.022.333.01.033.01.054.021.086.01.032.054.065.054.065l.043.01s.15-.01.247-.032c.097-.02.236-.054.236-.054l.183-.053.118-.043s.075 0 .086.043c.01.032-.022.086-.022.086s-.064.032-.118.053c-.054.022-.182.054-.193.065l-.14.043-.118.01s-.02.011-.043.043c-.02.033-.02.033-.02.054.02.022.031.043.052.065.043.032.065.053.118.064.076.032.12.022.194.022a.582.582 0 00.268-.065c.086-.054.118-.054.236-.097a.554.554 0 01.12-.02c.203-.023.321.01.525.042.204.032.3.097.505.13.214.031.343.095.57.042.106-.022.171-.075.224.032.054.097.043.15.043.15s0 .065-.075.27c-.075.203-.31.708-.31.708l-.162.322s-.13.257-.43.59c-.3.333-.322.355-.322.355s-.16.118-.322.322c-.16.204-.16.28-.312.43a1.36 1.36 0 01-.268.225c-.118.075-.258.054-.634.311-.322.226-.494.41-.515.398-.022-.01-.13-.097-.172-.118l-.655-.44-.258-.172-.118-.076-.022-.043-.064-.086s-.097-.118-.215-.214a.916.916 0 00-.44-.237c-.183-.053-.3-.085-.483-.02a.642.642 0 00-.269.171c-.107.107-.129.193-.215.322-.086.13-.17.247-.214.311a3.36 3.36 0 00-.13.237s-.214.343-.332.57c-.14.246-.194.396-.322.632-.204.376-.494.763-.57.935a7.631 7.631 0 01-.085.193s-.022.097-.033.161c-.01.065-.01.172-.02.215a.303.303 0 01-.055.118c-.01.01-.129.258-.172.42-.043.16-.14.666-.02.73.117.065.987-.311 1.105-.677.075-.237-.236-.355-.15-.57.032-.075.053-.086.107-.16.086-.14.054-.43.215-.699.118-.193.354-.44.676-.805a3.51 3.51 0 00.398-.59s.043-.13.13-.108c.095.021.181.01.181.01l.043.033.086.086.13.193s.214.311.29.397c.074.086.15.15.257.237.118.107.16.16.311.28.215.171.14.235-.14.085a1.84 1.84 0 00-.365-.14c-.129-.032-.612-.16-.859-.193-.236-.032-.28-.022-.28-.022s-.117-.01-.257.075c-.14.086-.215.15-.215.15s-.16.183-.17.216c-.012.032-.087.16-.087.16s-.043.065-.054.14c-.022.075-.01.15-.01.15l.01.162.01.15s.033.376.108.752c.022.107.043.28.043.28l.054.387s.032.408.064.547c.032.13.054.14.075.226.043.16-.032.236.043.43.075.193.14.17.215.29.054.085.075.107.118.214.043.108.183.462.344.72.172.268.397.6.548.569.15-.032.257-.27.257-.27s.172-.46.065-.911c-.108-.462-.602-.247-.666-.58-.01-.076 0-.194 0-.194s-.01-.14-.032-.182c-.022-.043-.194-.365-.258-.634-.054-.204-.043-.86-.086-1.043-.118-.472-.129-.43-.064-.515.075-.086.14-.064.14-.064l.096.01.075.033.14.085.193.15.365.237s.204.118.29.161c.086.043.161.097.161.097l.097.064.16.118.033.033.022.043s.075.171.397.355c.258.15.483.107.58.225.021.022.204.269.29.42.107.17.236.375.28.44.042.064.31.397.31.397l.355.387.462.43.418.353.27.215s.235.226.504.408c.257.172.268.194.44.312.13.086.3.204.472.333.172.14.366.397.29.483-.053.032-.15-.107-.333-.27-.15-.127-.225-.192-.375-.3-.194-.15-.29-.225-.505-.354-.108-.064-.3-.182-.312-.16-.075.225-.064.44-.053.719.01.193.043.386.107.633.054.237.108.366.193.59.086.227.247.58.247.58l.247.495.226.376.118.193.043.065s.054.128 0 .214-.118.269-.215.28c-.096.02-.322.032-.322.032l-1.278-.022-.666-.053s-.075-.043-.46-.043c-.227 0-.41.096-.538.107-.108.01-.634-.032-.988.107-.333.14-.484.172-.602.387-.086.16.42.419.838.516.676.15.483-.14.74-.323.033-.021.044-.043.076-.053.172-.054.27.086.44.086.194 0 .301-.065.494-.097.978-.13 2.503.333 2.503.333s.375.118.547.086c.204-.043.161-.118.226-.236.053-.097.032-.12.043-.226 0-.064-.01-.097-.022-.161-.043-.183-.16-.44-.16-.44s-.087-.194-.119-.29c-.043-.14-.086-.226-.107-.376-.065-.398-.054-.365-.054-.59 0-.41.043-.634.15-1.032.161-.58.462-.827.688-1.385.064-.15.064-.365.14-.387.085-.01.074.269.031.43-.14.558-.483.794-.644 1.364-.118.44-.183.698-.15 1.149.01.247.107.633.107.633s.13.43.193.59c.065.162.194.43.194.43l.29.516.15.247s.107.097.054.258c-.054.16-.16.258-.29.397-.365.43-1.214 1.063-1.429 1.214-.3.225-.29.29-.31.354-.119.344-.463.354-.839.763-.086.085-.31.322-.268.526.021.075.945.236 1.482.01.42-.182.054-.386.172-.59.086-.15.3-.15.397-.28.161-.214.054-.203.193-.375.462-.559.763-.88 1.59-1.386.075-.043.215-.107.215-.107s.118-.054.16-.118c.054-.086.044-.161.044-.258 0-.064-.01-.097-.01-.161 0-.075.01-.118-.01-.193-.023-.118-.099-.215-.14-.28a.769.769 0 01-.163-.354.9.9 0 01.033-.601c.086-.226.28-.408.28-.408l.482-.323s.42-.3.548-.418c.14-.118.408-.365.601-.645.226-.311.344-.504.44-.88.033-.14.065-.355.065-.355s0-.15.086-.16c.086-.012.107.02.107.02s.075.044.097.258c.01.215-.054.462-.054.462s-.064.247-.086.398c-.01.096-.01.15-.01.257 0 .183.075.333.075.333s.043.032.043-.043c0-.086.021-.215.053-.343.033-.108.054-.086.118-.27.086-.235.011-.214.054-.353.022-.065.075-.13.14-.13.064 0 .075.087.075.087s.064.279.01.537c-.053.257-.246.612-.246.612l-.15.258s-.108.182-.15.3a.495.495 0 00-.033.3c.032.13.13.3.182.269.043-.032-.064-.14.065-.397.13-.258.3-.42.3-.42s.237-.278.344-.493c.097-.193.193-.504.193-.504s.076-.28.054-.516c-.01-.225-.054-.344-.054-.344l-.096-.171-.054-.13.022-.074c.021-.011.096.043.16.128a.854.854 0 01.162.344c.032.107.043.204.043.3 0 .087-.033.44.096.667.054.107.183.354.194.247.021-.247-.086-.366-.076-.591.011-.258.076-.193.097-.322.022-.14.054-.172.032-.355-.02-.171-.096-.397-.096-.397l-.075-.172-.033-.064s.022-.032.054-.032l.258-.086s.333-.15.462-.258c.14-.097.3-.27.3-.27s.215-.267.322-.46c.258-.484.258-1.096.247-1.375a4.55 4.55 0 00-.086-.623s-.085-.43-.064-.71c.022-.278.043-.408.043-.408s-.01-.279.226-.58c.236-.3.343-.494.386-.72.043-.192-.02-.504-.107-.386zM13.403 7.84c-.032 0-.075-.043-.075-.043s-.01-.01.022-.032c.032-.02.075-.01.075-.01l.032.01.054.075c-.01.032-.075.011-.108 0zm.13-.354c-.033-.01-.087-.043-.087-.043s-.01-.022.022-.043c.032-.022.086-.01.086-.01l.032.02c.01.011.064.065.064.087 0 .032-.075 0-.118-.01zm.117-.365a.466.466 0 01-.107-.054s-.01-.02.032-.043c.043-.02.108-.01.108-.01l.043.02c.021.022.075.076.075.108-.01.032-.108-.01-.15-.02zm.097-.333c-.043-.01-.107-.054-.107-.054s-.01-.02.032-.043c.043-.02.107-.01.107-.01l.043.02c.022.022.075.076.075.108-.01.022-.107-.02-.15-.02zm.097-.398a.328.328 0 01-.118-.064s-.01-.02.032-.054c.043-.032.118-.01.118-.01l.043.021c.021.022.086.086.086.118 0 .043-.118-.01-.16-.01zm.064-.43a.45.45 0 01-.15-.074s-.022-.033.043-.065c.053-.032.14-.02.14-.02l.053.031a.54.54 0 01.107.15c0 .043-.128-.01-.193-.02zm.043-.429a.522.522 0 01-.182-.096s-.022-.033.043-.076c.064-.042.171-.02.171-.02s.033.01.065.031c.032.032.118.13.13.183.01.053-.15-.01-.227-.022zm.065-.494a.536.536 0 01-.204-.107s-.022-.043.053-.086c.075-.054.194-.02.194-.02s.042.01.075.042c.032.032.14.15.15.204 0 .064-.183-.022-.268-.033zm-.045-1.997c-.065-.01-.15-.075-.15-.075s-.022-.022.042-.054c.065-.032.15-.01.15-.01s.033.01.054.031c.022.022.108.097.108.14 0 .032-.14-.02-.204-.032zm.236.483c.01.043-.14-.01-.215-.02a.503.503 0 01-.16-.087s-.022-.032.042-.065c.064-.043.15-.02.15-.02s.033.01.065.031a.566.566 0 01.118.161zm-.312.795c.065-.043.172-.022.172-.022s.032.011.065.033c.032.032.118.128.13.182.01.054-.15-.01-.227-.032-.075-.01-.183-.097-.183-.097s-.02-.02.043-.064zm.14-.365a.53.53 0 01-.183-.097s-.02-.032.043-.075c.065-.043.172-.022.172-.022s.032.011.065.033c.032.032.118.128.13.182.01.065-.15 0-.227-.02zm.14-1.61c.086.02.107.074.064.074-.043.01-.064.01-.097.01-.096 0-.085-.042-.214.022-.13.065-.033.032-.215.097-.172.064-.129-.108-.129-.108s.01-.032.032-.118.13 0 .204 0c.14 0 .258 0 .355.022zm-.484-.667l.054.032a.54.54 0 01.107.15c.011.044-.128-.01-.182-.02a.456.456 0 01-.15-.076s-.022-.032.043-.065c.053-.042.128-.02.128-.02zm-.386-.515c.053-.033.14-.022.14-.022l.053.032a.54.54 0 01.107.15c.011.044-.128-.01-.182-.02a.468.468 0 01-.15-.076s-.022-.032.032-.064zm-.108 6.958c.033-.02.076-.01.076-.01l.032.01.053.076c0 .021-.064-.01-.096-.01s-.075-.044-.075-.044-.022-.01.01-.022zM8.892 3.01c-.032.02-.054.031-.097.063-.053.043-.107.15-.14.118-.042-.032-.02-.15-.02-.15s.032-.086.074-.172c.054-.086.12-.086.12-.086.063 0 .181.043.181.14.01.096-.064.053-.118.086zm.88.332s-.042.01-.053-.065c-.01-.075.054-.086.054-.086s.128-.064.128.022c.011.075-.128.13-.128.13zm1.15-1.46s-.14.225-.333.31c-.194.086-.322.13-.688.162-.053 0-.032-.033-.032-.033s.42-.118.655-.247a2.33 2.33 0 00.323-.214c.15-.13.075.021.075.021zm-7.217 9.3c0 .054-.064.15-.086.15-.02 0-.064-.096-.054-.15.011-.054.022-.205.108-.183.064.01.032.129.032.183zm.28-1.214s-.097.204-.13.118c-.032-.075.033-.215.033-.215.086-.075.118-.183.16-.14.033.043-.064.237-.064.237zm1.33-2.095c-.096.108-.396.677-.46.58-.065-.075.29-.612.364-.72.075-.117.14-.096.14-.096l.021.022c-.01 0 .033.107-.064.214zm.806-.848s-.214.043-.182-.032c.043-.075.193-.108.193-.108.118.022.14.033.13.086.01.054-.14.054-.14.054zm.87 1.504c-.096.096-.129-.033-.268-.194-.14-.15-.108-.279-.108-.279h.022l.021.01.054.022.032.032.108.108c.043.064.16.28.14.3zm-1.664 3.21c-.033 0-.065-.063-.065-.063s-.086-.13-.118-.225a1.052 1.052 0 01-.043-.226s-.02-.183-.02-.248c.01-.086.01-.16.02-.204.01-.043.054-.032.054-.032.064 0 .064.053.064.053v.033s0 .193.011.344c0 .043.118.527.118.527s.022.043-.02.043zm-.022-2.255c-.075.118-.129.118-.129.118 0-.01-.02-.053.043-.182.065-.129.13-.118.13-.118l.02.021s.011.043-.064.161zm.763 4.5c.021-.042.16.065.16.065.054.01.108.108.108.108s.022.075-.043.096c-.064.033-.107-.032-.107-.032s-.14-.193-.118-.236zm1.01-3.286c-.15-.032-.473-.28-.602-.344-.13-.064-.344-.086-.247-.172.01-.01.021-.032.043-.032.021 0 .118.032.118.032l.236.097c.01 0 .13.054.226.107l.236.15.064.054c0 .022.075.14-.075.108zm1.31-2.137s-.183.247-.29.397c-.14.204-.312.516-.344.483-.033-.032.15-.376.247-.558.107-.226.268-.344.333-.365.14-.065.053.043.053.043zm-.58 10.75s0 .044-.076.097c-.075.054-.107.022-.118.022-.01 0-.086-.043-.086-.086.01-.043.13-.075.13-.075.203-.011.15.043.15.043zm1.664-.064c-.075-.01-.086-.032-.075-.043 0-.01.021-.032.107-.032s.086.043.086.043c0 .032-.032.043-.118.032zm1.911.108c-.16.043-.225.02-.365.032-.118.01-.17.02-.29.02-.204 0-.225.012-.515-.074-.054-.021-.118-.086-.097-.107.022-.033.065-.022.065-.022s.365.065.601.075c.172.01.258.022.43.01.096 0 .043-.01.193-.01.054-.01.021.065-.022.076zm1.02-.301a.433.433 0 01-.128.043c-.065.01-.032-.043-.032-.043s.043-.065.096-.097c.065-.032.097 0 .097 0 .021.043-.022.086-.032.097zm.795-2.062c-.075.16-.096.215-.107.365-.02.16.075.612-.075.44-.054-.075-.108-.43-.065-.601.076-.387.387-.494.247-.204zm-2.169 6.562c-.064.043.065.171-.14.16-.118-.01-.053-.117-.042-.128l.075-.108c.053-.075.086-.086.14-.118.053-.032.096.054.096.054s.021.032.021.075c0 .032-.096.022-.15.065zm1.128-1.085l-.097.075c-.01 0-.075.054-.097.022-.02-.033.011-.076.011-.086a.3.3 0 01.118-.108c.054-.032.086 0 .086 0 .032.075-.02.097-.02.097zm.504-18.816s-.043.14-.128.172c-.108.032-.516.043-.527.01-.01-.032.473-.075.655-.257.043-.043 0 .075 0 .075zm-.15-.354c.032-.054.01.086.01.086s-.03.14-.107.182c-.096.054-.332.118-.354.086 0-.02.311-.118.451-.354zm-.666-1.61s.043 0 .108.031c.064.043.107.172.107.172s.01.021-.043.021c-.032 0-.032-.053-.064-.075-.043-.032-.076-.043-.13-.064-.053-.022-.128.01-.139-.043 0-.065.161-.043.161-.043zm-.494.353s.022-.064.118-.118c.086-.054.204-.054.204-.054s.065 0 .14.054c.075.054.14.236.14.236s.021.118-.033.161c-.053.043-.14-.032-.182-.096a.271.271 0 00-.16-.108c-.087-.032-.216.065-.237 0 0-.02.01-.075.01-.075zm-.032 1.482c-.064.01-.02-.054-.02-.054s.181-.075.3-.14c.193-.096.558-.482.461-.3a.828.828 0 01-.172.193s-.15.215-.182.247c-.14.108-.312.043-.387.054zM9.805 7.69l.01-.022s.323-.214.827-.15c.301.043.591.311.548.344-.043.032-.107 0-.129 0l-.107-.054-.16-.043s-.29-.064-.506-.054a1.482 1.482 0 00-.408.086s-.086.043-.107-.01c-.01-.065.032-.097.032-.097zm.795 6.047c-.74-.57-1.644-1.73-1.536-1.836.097-.086.462.45 1.01 1.04.58.624 1.256 1.215 1.277 1.29.043.129-.472-.28-.75-.494zm1.686-8.023c-.312.537-.74.945-.74.945-.15.107-.055-.086-.055-.086s.42-.58.612-.988c.14-.29.226-.677.29-.752.15-.182.075.56-.107.88zm.86 5.886c-.323-.387-.56-.807-.635-1.333-.02-.118-.02-.29.086-.268.097.01.086.193.086.236.032.311.161.623.397 1 .333.526.87.934.85.966-.055.054-.592-.365-.785-.601zm.095 10.041a7.728 7.728 0 01-.494.408h-.043v-.054l.011-.021.022-.032.021-.033.022-.032.064-.075.15-.14.15-.14.237-.235s.086-.097.118-.119c.032-.021.054-.042.086-.064.043-.021.097-.054.118-.032v.043c.01.032-.268.343-.462.526zm.666-7.947c-.14.097-.193.086-.279.183-.097.118-.129.515-.226.354-.096-.161-.032-.387.13-.558.193-.226.611-.15.375.02zm.505 7.066c.064-.021.097-.01.097-.01l.021.043c0 .01-.086.128-.129.128-.054-.01-.032-.075-.032-.075s-.022-.064.043-.086zm1.836-4.37c-.096-.065.054-.258.054-.42 0-.128-.02-.225-.02-.332 0-.108.106-.14.106-.14.021 0 .064.022.118.13.054.106-.086.869-.258.762zm3.286-3.072c-.02.45-.042.773-.31 1.117-.323.419-.88.848-.763.505.075-.204.57-.462.762-1.031.107-.344.13-.666.13-.666l-.023-.655s-.01-.054-.01-.13c.032-.085.075-.02.075-.02l.021.032c0 .02.13.526.118.848zm-8-12.748c.086.043.118.075.204.097.075.021.182.075.204.01.032-.064-.01-.15-.065-.225-.085-.14-.128-.172-.247-.365C11.61.044 11.588 0 11.545 0c0 0-.01.14-.054.225-.032.075-.118.13-.108.183.011.053.065.118.15.16z"/></svg>