<svg role="img" viewBox="0 0 24 24" xmlns="http://www.w3.org/2000/svg"><title>Feu Vert</title><path d="M.08 9.359a.08.08 0 0 0-.08.08v5.092a.08.08 0 0 0 .08.079h.892a.08.08 0 0 0 .08-.08v-3.98c0-.068.054-.123.122-.123h2.745a.08.08 0 0 0 .08-.08v-.911a.08.08 0 0 0-.08-.077Zm21.933.003a.08.08 0 0 0-.08.079v.909a.123.123 0 0 1-.122.123h-.621c-.79 0-1.45.51-1.644 1.272a.08.08 0 0 1-.099.057.08.08 0 0 1-.057-.055c-.262-.854-.924-1.325-1.865-1.325-.533 0-1.008.19-1.375.552 0 0-.065.063-.142.152a.045.045 0 0 1-.065.004.044.044 0 0 1-.012-.05l.644-1.603a.08.08 0 0 0-.046-.104q-.015-.006-.029-.004h-1.017a.08.08 0 0 0-.075.05l-1.2 3.142a.13.13 0 0 1-.113.062.12.12 0 0 1-.112-.077l-1.232-3.13a.08.08 0 0 0-.074-.05H11.63a.08.08 0 0 0-.079.08q.001.013.005.028l2.013 5.083c.012.031.041.05.075.05h.876a.08.08 0 0 0 .074-.05l.853-2.208a.046.046 0 0 1 .06-.026q.028.012.028.045l-.005.178c0 1.214.89 2.093 2.117 2.093.643 0 1.16-.219 1.577-.67a.1.1 0 0 0 .022-.06q0-.033-.027-.055l-.501-.44a.077.077 0 0 0-.104 0c-.302.26-.578.366-.95.366-.516 0-.878-.26-1.02-.732a.11.11 0 0 1 .02-.106.13.13 0 0 1 .098-.05h2.601c.067 0 .123.055.123.122v1.553c0 .024.019.043.043.043h.974c.024 0 .043-.02.043-.043V12.29a.825.825 0 0 1 .826-.83h2.546a.08.08 0 0 0 .08-.079v-.83a.08.08 0 0 0-.08-.08h-.772a.125.125 0 0 1-.123-.122v-.91a.08.08 0 0 0-.079-.078zM4.934 10.425c-.955 0-1.463.566-1.723 1.039a.07.07 0 0 1-.062.036H1.572a.08.08 0 0 0-.08.079v.816a.08.08 0 0 0 .08.079H2.87a.07.07 0 0 1 .07.07c.024 1.214.914 2.097 2.117 2.097.645 0 1.145-.21 1.574-.662a.08.08 0 0 0 .022-.06q-.001-.033-.026-.056l-.502-.443a.08.08 0 0 0-.106 0c-.283.25-.576.36-.948.36-.516 0-.878-.26-1.02-.732a.11.11 0 0 1 .02-.106.13.13 0 0 1 .098-.05H6.83c.06 0 .11.043.12.103.128.94.946 1.632 1.894 1.598.989-.029 1.793-.873 1.793-1.881v-2.163a.08.08 0 0 0-.08-.079h-.933a.08.08 0 0 0-.08.08v2.318a.776.776 0 0 1-.734.777.76.76 0 0 1-.787-.782v-2.314a.08.08 0 0 0-.079-.079H7.01a.08.08 0 0 0-.079.08v1.166a.08.08 0 0 1-.081.081.08.08 0 0 1-.077-.055c-.279-.85-.931-1.317-1.839-1.317m.005.861c.432 0 .773.271.888.706a.1.1 0 0 1-.02.103.12.12 0 0 1-.097.048H4.154a.12.12 0 0 1-.098-.05.12.12 0 0 1-.02-.106c.137-.44.476-.7.903-.7m12.627 0c.432 0 .772.271.888.706a.11.11 0 0 1-.02.103.12.12 0 0 1-.098.048h-1.555a.12.12 0 0 1-.099-.05.12.12 0 0 1-.019-.106c.137-.44.475-.7.903-.7m4.45.595a.08.08 0 0 0-.08.08v1.372c0 .706.571 1.277 1.277 1.277h.705a.08.08 0 0 0 .08-.08v-.858H24a.08.08 0 0 0-.08-.08h-.4a.494.494 0 0 1-.492-.492l-.002-1.14a.08.08 0 0 0-.08-.079z"/></svg>