<svg role="img" viewBox="0 0 24 24" xmlns="http://www.w3.org/2000/svg"><title>FFmpeg icon</title><path d="M9.313 1.276 4.305 7.413v2.597l7.44-8.95L23.67 0 6.189 19.317l2.305.14L21.19 5.712v13.047l-1.42 1.401 3.607.224V24l-11.26-1.002 5.72-5.847v-2.9l-8.166 8.53L0 21.921 15.569 4.127l-2.583.16L1.743 17.39V6.257l1.058-1.338L.2 5.081V2.087zM21.19 5.712l.527.515v11.98l-.527.552zm2.187 14.672.353-.695v3.316l-.353.995zM23.67 0 24 1 7.759 18.782l-1.57.535zM12.116 22.998l5.721-5.847.783-.41-5.315 5.416zm9.074-4.239-1.42 1.401.637-.66 1.31-1.293zm-12.696.697L21.19 5.712l.527.515L9.921 18.902zm9.343-2.305v-2.9l.783-.18v2.67zM9.313 1.276l1.375.806-4.7 5.663-1.683-.332zM4.305 10.01l7.44-8.95 1.214.837-6.971 8.257zm8.681-5.723 1.13.596L3.572 17.01l-1.83.38zM0 21.921 15.569 4.127l.948.62L1.924 21.232zm17.837-7.671.783-.178-7.598 7.899-1.351.81zM1.743 6.257l1.058-1.338 1.77.506-1 1.238zm2.562 1.156 1.683.332v2.41l-1.683-.145zm1.884 11.904 1.57-.535 2.162.12-1.427.554zm4.499-17.235-4.7 5.663v2.41l6.97-8.258L24 1 7.759 18.783l2.162.12L21.717 6.228v11.98l-1.31 1.294 3.323.188v3.316l-10.425-.848 5.315-5.416v-2.67l-7.598 7.9-9.098-.74L16.517 4.747l-2.402.137L3.572 17.011V6.664l.998-1.238-2.457.14V2.78zM.2 5.08V2.087l1.913.692v2.786zm1.543 12.31V6.257l1.829.406V17.01z"/></svg>