<svg role="img" viewBox="0 0 24 24" xmlns="http://www.w3.org/2000/svg"><title>FIDO Alliance</title><path d="M4.017 7.253a4.495 4.495 0 0 0-.399.028c-1.099.132-1.952.906-2.175 1.985-.065.322-.067.65-.07.977v.145c0 .103.001.152-.023.177-.024.023-.07.022-.161.022h-.114c-.14.002-.338.003-.535.003-.17 0-.261 0-.395.003H.142c-.094 0-.14.044-.14.142L0 11.833c0 .124.063.156.141.156H1.167c.133.003.2.07.2.205v4.246c0 .168.005.173.174.173h1.502c.11 0 .165 0 .193-.028.028-.028.028-.082.028-.19 0-1.415 0-2.829-.003-4.245 0-.121.034-.165.16-.163.154.004.308.004.461.004l.382.001c.12.003.172-.031.17-.16a40.201 40.201 0 0 1 0-1.098c.002-.109-.035-.153-.148-.15-.148.002-.295.002-.442 0-.146 0-.293 0-.439.002-.098.003-.143-.022-.14-.13.002-.107.002-.214.001-.322 0-.107 0-.214.002-.321.012-.5.275-.79.764-.87.249-.04.49-.015.732.042.096.022.138-.003.167-.099.073-.253.149-.506.226-.758l.158-.53c.049-.16.046-.165-.12-.209a4.142 4.142 0 0 0-1.178-.137Zm3.562.519c-.556-.008-1.028.48-1.025 1.064.003.58.46 1.046 1.025 1.044v-.002c.558 0 1.022-.465 1.03-1.03a1.06 1.06 0 0 0-1.03-1.076zm6.444.026c-.2 0-.2.003-.2.202v2.93l.002.031c.003.038.005.078-.028.118-.36-.433-.84-.611-1.374-.638-1.146-.051-2.002.446-2.513 1.46-.524 1.04-.53 2.128-.114 3.205.27.698.755 1.214 1.47 1.49.124.048.253.077.382.105.051.012.205.048.45.048.143 0 .34-.02.412-.038.407-.097.782-.233 1.101-.51.094-.08.167-.175.245-.275.038-.048.077-.098.119-.147l.024.182c.023.17.044.33.062.49.012.114.06.16.181.158.327-.002.654-.002.981-.002h.327c.159 0 .167-.008.167-.17V7.968c0-.166-.005-.17-.18-.17zm5.82 2.626c-.23 0-.46.022-.692.061-1.032.178-1.819.705-2.257 1.675-.309.683-.37 1.406-.238 2.136.192 1.066.785 1.822 1.805 2.231.26.105.57.175.727.19h.002c.155.017.382.032.647.032s.56-.049.56-.049c.967-.188 1.73-.677 2.167-1.575.423-.86.465-1.768.185-2.677-.278-.901-.878-1.515-1.772-1.833a3.32 3.32 0 0 0-1.134-.191zm3.053.125v.087h.169v.431h.103v-.431h.17v-.087zm.542 0v.518h.096v-.419l.144.42h.083l.144-.42v.42H24v-.52h-.148l-.132.372-.133-.371zm-14.964.055s-2.643 0-2.643.005c-.109 0-.145.042-.143.153.005.36.005.722 0 1.081-.002.124.044.16.16.16L6.625 12c.119 0 .179.062.179.186 0 1.395.002 2.79.005 4.185v.118c-.005.086.031.127.116.124.083-.002.168 0 .25 0h.917l.033-.002h.317c.09 0 .135 0 .157-.022.024-.023.025-.07.025-.164-.002-.467-.003-.936-.003-1.404h.001l-.002-1.403c-.003-.948-.005-1.898-.003-2.845 0-.106-.015-.168-.142-.168zm11.245 1.197c.133-.006.27.015.403.064.302.11.49.34.62.623.16.35.216.722.209 1.106v.003c.009.342-.043.676-.166 1.002a1.52 1.52 0 0 1-.236.411c-.42.53-1.287.493-1.678-.127a1.99 1.99 0 0 1-.28-.786c-.08-.546-.052-1.082.174-1.595.186-.428.556-.683.954-.7zm-7.062.083c.302-.013.607.092.835.33.212.223.334.489.332.802v.585h-.001c-.003.069-.001.146-.001.228 0 .147.004.312-.022.473-.07.443-.387.79-.833.904a1.157 1.157 0 0 1-1.19-.41 1.648 1.648 0 0 1-.32-.82c-.051-.51-.035-1.014.222-1.48.208-.382.591-.595.979-.612z"/></svg>