<svg role="img" viewBox="0 0 24 24" xmlns="http://www.w3.org/2000/svg"><title>Filament</title><path d="M2.074 9.603c-.153 0-.3.019-.44.056-.14.036-.27.099-.385.186a1.158 1.158 0 0 0-.303.354c-.086.15-.151.336-.197.558l-.094.46.01-.05H.149l-.149.71h.515l-.007.036-.041.193-.02.096-.09.433-.065.315-.147.708c-.045.211-.09.43-.136.654h.925a143.758 143.758 0 0 0 .258-1.234l.028-.13.222-1.072h.849l.149-.71h-.888l.028-.14c.012-.061.023-.113.03-.155a.664.664 0 0 1 .18-.364.508.508 0 0 1 .36-.122 1.194 1.194 0 0 1 .5.12l.224-.757a1.43 1.43 0 0 0-.231-.077 2.473 2.473 0 0 0-.57-.068Zm3.865.007-.944.082-.155.753c-.052.25-.105.504-.161.76l-.36 1.745-.15.708-.136.654h.928a159.78 159.78 0 0 1 .282-1.365l.364-1.745a334.027 334.027 0 0 1 .332-1.592Zm-2.046.022a.784.784 0 0 0-.427.11.53.53 0 0 0-.227.363c-.036.185-.012.327.072.427.084.1.21.15.376.15a.86.86 0 0 0 .426-.096c.115-.064.19-.188.227-.37a.508.508 0 0 0-.073-.412c-.08-.115-.206-.172-.374-.172Zm19.43.347-.95.167a223.579 223.579 0 0 0-.204.98l-.009.04h-.5l-.15.71h.503l-.004.019-.01.055-.096.457-.085.41-.084.401c-.056.267-.05.488.02.662a.716.716 0 0 0 .351.39c.167.085.37.127.61.127a1.943 1.943 0 0 0 .486-.074.64.64 0 0 0 .178-.077l.1-.772a.818.818 0 0 1-.46.154c-.15 0-.254-.052-.309-.157-.055-.105-.06-.259-.017-.46l.235-1.135h.923l.149-.71h-.925l.007-.03.038-.183.012-.06a111.995 111.995 0 0 1 .095-.45zM7.542 11.08a2.88 2.88 0 0 0-.324.019c-.111.013-.22.03-.324.05a5.937 5.937 0 0 0-.302.068 3.44 3.44 0 0 0-.254.074l-.146.825a3.784 3.784 0 0 1 .577-.197 2.66 2.66 0 0 1 .262-.05c.084-.011.164-.017.238-.017a.93.93 0 0 1 .357.058.363.363 0 0 1 .194.164.36.36 0 0 1 .023.247l-.971.155a2.48 2.48 0 0 0-.371.083 1.324 1.324 0 0 0-.326.15.898.898 0 0 0-.402.612c-.041.19-.036.367.015.53a.757.757 0 0 0 .277.388.809.809 0 0 0 .493.147 1.008 1.008 0 0 0 .647-.219 1.23 1.23 0 0 0 .253-.276h.072l-.04.42h.8a78.556 78.556 0 0 0 .224-1.063l.056-.265.07-.339c.024-.108.045-.214.066-.32.056-.256.047-.476-.028-.662a.825.825 0 0 0-.4-.43c-.193-.102-.438-.152-.736-.152Zm3.958 0c-.142 0-.28.025-.41.076a1.429 1.429 0 0 0-.644.498h-.08l.067-.536-.783.047c-.053.263-.106.517-.158.76-.052.245-.1.481-.146.708l-.065.315-.15.708c-.042.211-.088.43-.136.654h.929l.133-.65.14-.664.133-.653a2.24 2.24 0 0 1 .2-.208.905.905 0 0 1 .212-.144.529.529 0 0 1 .234-.054c.145 0 .237.058.278.171.04.115.04.267 0 .456l-.09.435c-.05.235-.094.456-.135.662a79.927 79.927 0 0 1-.134.65h.925l.137-.655a181.38 181.38 0 0 0 .22-1.06l.06-.283.007-.007a2.34 2.34 0 0 1 .134-.137l.034-.03a.957.957 0 0 1 .213-.147.517.517 0 0 1 .234-.056c.145 0 .237.058.278.172.04.115.04.267.001.456l-.09.435a107.71 107.71 0 0 1-.27 1.311h.928a161.193 161.193 0 0 1 .356-1.715l.063-.302c.08-.368.054-.661-.074-.882-.128-.22-.35-.331-.668-.331-.142 0-.28.026-.412.077a1.492 1.492 0 0 0-.658.51h-.068l-.005-.026a.697.697 0 0 0-.199-.378c-.13-.122-.31-.183-.541-.183zm4.752 0c-.29 0-.547.063-.773.188-.225.125-.412.3-.56.527a2.26 2.26 0 0 0-.318.797c-.074.37-.06.69.042.958.102.27.278.477.528.623.25.146.56.22.932.22a2.78 2.78 0 0 0 .748-.102c.098-.03.174-.06.23-.094l.124-.8c-.089.05-.186.091-.292.124a2.14 2.14 0 0 1-.608.096c-.199 0-.366-.033-.503-.1a.591.591 0 0 1-.293-.3.706.706 0 0 1-.053-.313l.001-.012h1.9l.016-.043a4.35 4.35 0 0 0 .093-.33c.07-.287.07-.54-.003-.756a.9.9 0 0 0-.416-.503c-.205-.12-.47-.18-.795-.18zm3.956 0c-.147 0-.288.025-.424.076a1.41 1.41 0 0 0-.654.498h-.076l.064-.536-.782.047c-.054.263-.106.517-.158.763-.052.245-.1.48-.146.705l-.065.315-.148.707-.138.655h.928l.134-.648.14-.666.133-.653a2.03 2.03 0 0 1 .203-.208.95.95 0 0 1 .218-.144.568.568 0 0 1 .246-.054c.164 0 .268.058.31.171.044.115.045.267.004.456l-.09.435a167.486 167.486 0 0 1-.27 1.311h.928l.138-.654c.045-.21.093-.447.144-.708l.077-.353.063-.302c.077-.367.05-.661-.08-.882-.13-.22-.364-.331-.699-.331zm-16.63.08-.453.016-.057.204-.001.008a.08.08 0 0 0 .03.074l.314.219-.366.024c-.03.002-.053.026-.06.058l-.028.127-.002.01a.08.08 0 0 0 .03.074l.314.218-.366.024c-.03.002-.053.026-.06.058l-.028.127-.001.008a.08.08 0 0 0 .03.075l.314.218-.367.025c-.028.002-.053.025-.06.057l-.028.128-.001.01a.08.08 0 0 0 .03.073l.314.218-.366.025c-.03.002-.053.025-.06.058l-.028.127-.002.01a.08.08 0 0 0 .032.073l.313.22-.367.023c-.028.002-.053.025-.06.057l-.127.504h.41l.065-.274.513-.045c.03-.002.054-.025.06-.058l.028-.127.002-.009a.08.08 0 0 0-.031-.074l-.314-.219.367-.024c.029-.002.053-.026.06-.058l.028-.128v-.008a.08.08 0 0 0-.03-.074l-.313-.219.366-.025c.03 0 .054-.025.06-.057l.028-.128.002-.009a.08.08 0 0 0-.03-.074l-.315-.218.367-.025c.029-.002.053-.025.06-.057l.028-.128v-.009a.08.08 0 0 0-.03-.074l-.313-.218.367-.024c.029-.002.053-.025.06-.057l.028-.128v-.01a.08.08 0 0 0-.03-.073l-.415-.292Zm12.693.585c.168 0 .286.07.357.208.055.11.076.233.06.371l-.003.027-1.122.024.01-.028a1.15 1.15 0 0 1 .12-.253.796.796 0 0 1 .27-.264.62.62 0 0 1 .308-.085zM7.728 12.75l-.105.504a1.177 1.177 0 0 1-.191.218.823.823 0 0 1-.217.14.565.565 0 0 1-.225.05.32.32 0 0 1-.245-.098c-.06-.064-.08-.153-.06-.27a.356.356 0 0 1 .087-.179.432.432 0 0 1 .165-.107c.066-.025.14-.047.22-.066.124-.027.223-.05.295-.07.073-.02.13-.04.17-.06a.691.691 0 0 0 .106-.062z"/></svg>