<svg role="img" viewBox="0 0 24 24" xmlns="http://www.w3.org/2000/svg"><title>FileHippo</title><path d="M2.315 3.2159c-.7889.0162-1.3003.6717-1.3754 1.4151a2.0517 2.0517 0 0 0 1.2337 2.2175l.0054-.0045a12.0145 12.0145 0 0 0-.8736 3.4107c-.06.513-.1159 1.0258-.139 1.5433-.0323.7301-.3652 1.3536-.6886 1.9775l-.157.305c-.2773.5453-.4529 1.1087-.1941 1.7094.462 1.072 1.3868 1.595 2.4034 2.0894a4.6672 4.6672 0 0 1 .4522-2.1354c.6146-1.2939 1.6179-2.241 2.75-3.0497a11.386 11.386 0 0 0 3.2807-3.4377c.6192-1.0443 1.0948-2.1401 1.0162-3.4016-.037-.6146-.2256-.8684-.8032-1.0533l-.426-.139c-.2542-.0878-.5075-.1706-.7663-.2446a4.2605 4.2605 0 0 0-1.8853-.2175c-.4252.0693-.8226.2132-1.2293.361-.2033.074-.4119.1474-.629.2121a2.1118 2.1118 0 0 0-1.3863-1.4603c-.2097-.071-.4064-.1012-.5885-.0974zM4.6382 9.566a.9169.9169 0 0 1 .0496 0 1.0259 1.0259 0 0 1 .9612 1.0073 1.012 1.012 0 0 1-.9847 1.0207c-.5545 0-.9704-.434-.9612-1.0162 0-.5462.4254-.9967.935-1.0118zm17.1832-6.3393a1.2384 1.2384 0 0 0-.3601.0225c-.8965.134-1.4507.6654-1.7464 1.5434V4.788l-.176-.065-.3466-.1336c-.9242-.3789-1.8757-.569-2.8646-.278-.1987.0555-.397.1294-.5912.194-.3142.111-.6196.2178-.943.287-.5084.1156-.7113.4387-.7898.9008a2.2504 2.2504 0 0 0-.0325.3926c.0185 1.3863.6054 2.5607 1.3448 3.6697.9057 1.3724 2.1673 2.3563 3.4612 3.3267a6.973 6.973 0 0 1 2.4305 3.064c.208.5407.268 1.1135.268 1.742.8688-.4067 1.6265-.864 2.1625-1.6264a1.8022 1.8022 0 0 0 .212-1.8023 9.3324 9.3324 0 0 0-.425-.8962 4.168 4.168 0 0 1-.5731-1.9134c-.0092-.4436-.069-.8876-.129-1.3312l-.0461-.3231a11.5986 11.5986 0 0 0-.8321-3.1327l.1344-.0885a3.1713 3.1713 0 0 0 .2446-.157 2.0332 2.0332 0 0 0 .5081-2.8646 1.2384 1.2384 0 0 0-.9106-.5262zm-2.4576 6.3439a1.0536 1.0536 0 0 1 .9702 1.0162c0 .5222-.5456 1.0403-1.0632 1.0172a1.0443 1.0443 0 0 1-.9611-1.0172 1.0628 1.0628 0 0 1 1.0541-1.0162zm-2.4077 7.606c.8965-.5084 2.1903-.4344 3.059.8132.185-.3697.0833-.7162-.0184-1.0397l-.0277-.1063c-.2773-.9658-.9242-1.682-1.6497-2.329-.3466-.3142-.7209-.5914-1.0952-.8733a13.507 13.507 0 0 1-1.303-1.0628c-1.4095-1.354-2.5416-2.8927-3.11-4.7966a5.7485 5.7485 0 0 1-.208-2.4583c-.4158.06-.8317.0647-1.2476.0092.2126 1.2939-.0924 2.4445-.6007 3.5581-.9242 2.0379-2.3844 3.6229-4.182 4.9121a7.8464 7.8464 0 0 0-2.0748 2.0425 3.5027 3.5027 0 0 0-.6007 1.8206c1.0813-1.072 2.3244-.8734 3.0036-.3835.8688.633 1.1553 1.6127.7856 2.7633a12.9525 12.9525 0 0 0 8.364.0878c-.5269-1.2939.0045-2.4352.9056-2.9574zm.1849 2.62a1.146 1.146 0 0 1-.0878-1.1876c.231-.4667.6284-.647 1.1413-.6007.5268.0416.8133.3604.9935.8549-.4343.2726-.901.462-1.3816.6561-.2172.0878-.439.1756-.6654.2773zm-10.5358-.1063a10.4295 10.4295 0 0 1-2.024-.9242 1.0998 1.0998 0 0 1 1.4602-.7162c.4714.1756 1.0166.9334.5638 1.6404z"/></svg>