<svg role="img" viewBox="0 0 24 24" xmlns="http://www.w3.org/2000/svg"><title>FileZilla icon</title><path d="M24.002,1.86V0.801c-0.212,0-0.419-0.087-0.568-0.236c-0.148-0.148-0.234-0.356-0.234-0.567h-1.061 c-0.021,0.444-0.4,0.786-0.844,0.765c-0.413-0.021-0.743-0.352-0.764-0.765h-1.061c-0.027,0.444-0.408,0.782-0.853,0.755 c-0.405-0.025-0.729-0.35-0.755-0.755h-1.059c-0.023,0.444-0.4,0.786-0.845,0.765c-0.413-0.021-0.743-0.352-0.765-0.765h-1.06 c-0.022,0.444-0.399,0.786-0.844,0.765c-0.413-0.021-0.743-0.352-0.765-0.765h-1.059c-0.027,0.444-0.408,0.782-0.853,0.755 c-0.405-0.025-0.729-0.35-0.755-0.755h-1.06C8.786,0.442,8.414,0.789,7.971,0.772C7.549,0.758,7.21,0.419,7.195-0.002H6.135 c-0.021,0.444-0.4,0.786-0.844,0.765C4.878,0.741,4.547,0.411,4.527-0.002H3.467C3.451,0.442,3.078,0.789,2.635,0.772 c-0.422-0.014-0.76-0.353-0.775-0.774H0.8c0,0.211-0.086,0.419-0.235,0.567C0.416,0.714,0.209,0.801-0.003,0.801V1.86 c0.444,0.017,0.79,0.389,0.774,0.832C0.758,3.114,0.419,3.453-0.003,3.467v1.061c0.444,0.016,0.79,0.388,0.774,0.832 C0.758,5.782,0.419,6.12-0.003,6.135v1.059c0.444,0,0.804,0.361,0.804,0.805S0.441,8.803-0.003,8.803v1.059 c0.444,0,0.804,0.359,0.804,0.804s-0.359,0.804-0.804,0.804v1.06c0.444,0.016,0.79,0.389,0.774,0.832 c-0.014,0.422-0.353,0.76-0.774,0.775v1.061c0.444,0,0.804,0.359,0.804,0.803c0,0.445-0.359,0.805-0.804,0.805v1.061 c0.444,0.016,0.79,0.387,0.774,0.83c-0.014,0.422-0.353,0.762-0.774,0.775v1.061c0.444,0,0.804,0.359,0.804,0.805 c0,0.443-0.359,0.803-0.804,0.803v1.061c0.442,0.002,0.802,0.359,0.803,0.803h1.06c0.027-0.443,0.41-0.781,0.854-0.754 c0.406,0.025,0.729,0.348,0.754,0.754h1.061c0.021-0.443,0.4-0.785,0.844-0.764c0.413,0.021,0.743,0.352,0.764,0.764h1.059 c0.023-0.443,0.4-0.785,0.845-0.764c0.413,0.021,0.743,0.352,0.764,0.764h1.06c0.017-0.443,0.389-0.791,0.832-0.775 c0.422,0.016,0.761,0.354,0.775,0.775h1.061c0.021-0.443,0.4-0.785,0.844-0.764c0.413,0.021,0.743,0.352,0.764,0.764h1.059 c0.023-0.443,0.4-0.785,0.845-0.764c0.413,0.021,0.743,0.352,0.765,0.764h1.059c0.023-0.443,0.4-0.785,0.845-0.764 c0.413,0.021,0.743,0.352,0.765,0.764h1.06c0.016-0.443,0.388-0.791,0.831-0.775c0.422,0.016,0.761,0.354,0.775,0.775H23.2 c0-0.211,0.086-0.418,0.235-0.568c0.148-0.148,0.355-0.234,0.567-0.234v-1.061c-0.444-0.027-0.781-0.408-0.755-0.852 c0.025-0.406,0.35-0.73,0.755-0.754v-1.061c-0.444-0.023-0.786-0.4-0.764-0.844c0.021-0.414,0.351-0.744,0.764-0.764v-1.061 c-0.444-0.027-0.781-0.41-0.755-0.854c0.025-0.406,0.35-0.729,0.755-0.754v-1.061c-0.444-0.021-0.786-0.4-0.764-0.844 c0.021-0.412,0.351-0.742,0.764-0.764v-1.058c-0.444-0.027-0.781-0.41-0.755-0.854c0.025-0.406,0.35-0.729,0.755-0.754V8.803 c-0.444-0.021-0.786-0.4-0.764-0.844c0.021-0.413,0.351-0.743,0.764-0.764V6.135c-0.444-0.027-0.781-0.408-0.755-0.853 c0.025-0.405,0.35-0.729,0.755-0.754v-1.06c-0.444-0.022-0.786-0.4-0.765-0.844C23.258,2.211,23.588,1.881,24.002,1.86L24.002,1.86z M19.934,11.698l-6.404,6.226c0.58,0.09,1.14,0.225,1.742,0.225c1.465,0,3.148-0.445,4.287-0.916l-0.584,2.746 c-1.676,0.805-2.701,0.871-3.703,0.871c-1.095,0-2.144-0.357-3.215-0.357c-0.603,0-1.474,0.045-2.009,0.4L8.887,18.84l6.607-6.541 H7.891l-1.451,6.808H3.27l3.305-15.58h10.49l-0.67,3.146H9.096L8.471,9.598h11.977L19.934,11.698L19.934,11.698z"/></svg>