<svg role="img" viewBox="0 0 24 24" xmlns="http://www.w3.org/2000/svg"><title>Filen</title><path d="M12 0C5.373 0 0 5.373 0 12s5.373 12 12 12 12-5.373 12-12S18.628 0 12 0zm.004 1.53c2.406 0 4.62.811 6.387 2.182-.002.023-.002.047-.002.07v3.853H8.034l-.037.002c-.013 0-.024.003-.037.003s-.023.002-.036.005l-.037.008-.036.01c-.013.003-.024.008-.037.01-.013.003-.023.008-.036.014-.01.005-.02.01-.034.015-.014.006-.02.013-.034.016-.014.003-.022.01-.035.016a.212.212 0 0 0-.03.019c-.011.002-.021.01-.032.018-.01.005-.018.013-.029.02l-.029.024-.029.023-.025.026-.024.026-.024.03c-.004.01-.013.017-.02.028-.005.01-.013.02-.02.031l-.02.032c-.004.013-.012.02-.017.034-.003.013-.011.023-.016.034a.457.457 0 0 0-.016.034l-.013.034c-.005.013-.01.024-.013.037-.003.013-.008.023-.01.036l-.008.037-.008.036c-.003.013-.005.024-.005.037l-.003.036v2.378a1.46 1.46 0 0 0-.68 1.238c0 .81.65 1.468 1.46 1.468a1.465 1.465 0 0 0 .753-2.721V9.172H19.19c.015 0 .024 0 .039-.002.015-.003.026-.003.039-.005l.036-.008.037-.008c.013-.003.024-.005.037-.01.013-.006.023-.008.036-.013l.037-.016a.46.46 0 0 1 .034-.016c.013-.003.02-.01.034-.016.013-.005.02-.01.034-.018.01-.003.02-.01.031-.018.013-.005.02-.013.031-.021l.03-.024.028-.023a.134.134 0 0 1 .026-.026.12.12 0 0 0 .026-.026l.024-.029.023-.029c.005-.01.013-.02.02-.031l.019-.031c.005-.014.015-.02.018-.034.003-.014.01-.021.016-.034a.461.461 0 0 0 .016-.035l.016-.036.013-.037c.003-.013.008-.023.01-.036l.008-.037.008-.036c.003-.013.005-.021.005-.037l.003-.039V5.146a10.418 10.418 0 0 1 2.555 6.851v.147H19.14l-.037.002c-.013 0-.023 0-.036.002l-.037.006a.797.797 0 0 1-.037.007.21.21 0 0 1-.036.01.209.209 0 0 0-.037.012c-.013.002-.023.007-.036.012-.01.006-.02.011-.034.016l-.034.016a.086.086 0 0 0-.035.016l-.03.018c-.011.003-.021.01-.032.019-.013.004-.02.013-.031.02-.01.008-.018.016-.03.024-.01.007-.017.016-.028.023-.01.01-.016.019-.026.026a.121.121 0 0 0-.026.026c-.007.01-.016.018-.023.03-.005.01-.016.017-.021.028s-.013.02-.02.031c-.006.01-.014.02-.019.031-.005.011-.013.019-.018.032-.003.013-.01.023-.016.034a.457.457 0 0 0-.016.034l-.013.036-.013.037c-.003.013-.008.023-.01.036l-.008.037-.008.037c-.003.012-.005.023-.005.036l-.003.037v7.422c-.61.47-1.272.873-1.976 1.2V14.16a1.463 1.463 0 0 0-.748-2.724 1.465 1.465 0 0 0-.784 2.7v7.93c-.912.262-1.877.4-2.873.4-1.11 0-2.184-.175-3.196-.493a.659.659 0 0 0 .008-.102v-5.938h1.79c.256.424.722.708 1.254.708a1.465 1.465 0 1 0-1.24-2.244H8.033c-.013 0-.023.003-.036.003-.013.003-.024.005-.037.005s-.023.003-.036.005l-.037.008c-.013.003-.024.008-.037.01a.209.209 0 0 0-.036.011c-.013.006-.024.008-.037.013a.457.457 0 0 1-.034.016c-.013.005-.02.013-.034.016-.013.003-.021.01-.034.016a.212.212 0 0 0-.031.018c-.01.002-.02.01-.031.018-.011.005-.019.013-.03.02-.01.009-.018.017-.028.024l-.029.024-.026.026c-.008.008-.016.015-.023.026l-.024.029c-.005.01-.013.018-.02.029-.005.013-.014.02-.021.03a.212.212 0 0 1-.019.032c-.005.01-.012.018-.018.031-.003.014-.01.024-.016.034a.457.457 0 0 0-.016.035c-.002.01-.007.02-.013.034-.005.013-.01.023-.013.036-.002.013-.008.024-.01.037l-.008.036-.007.037c-.002.013-.006.023-.006.036l-.002.037v6.22a10.518 10.518 0 0 1-2.487-1.752c.002-.015.002-.026.002-.041V5.243h8.277c.256.424.722.708 1.254.708a1.463 1.463 0 1 0 0-2.927c-.524 0-.983.274-1.24.686H5.608a10.425 10.425 0 0 1 6.395-2.18zM3.266 6.225v11.552A10.418 10.418 0 0 1 1.53 12c0-2.135.64-4.122 1.736-5.774zm16.644 7.451h2.425a10.374 10.374 0 0 1-2.425 5.178z"/></svg>