<svg role="img" viewBox="0 0 24 24" xmlns="http://www.w3.org/2000/svg"><title>Fineco</title><path d="M1.705 8.684C.763 8.684 0 9.448 0 10.39v3.22c0 .941.763 1.706 1.705 1.706h20.59c.942 0 1.705-.765 1.705-1.706v-3.22c0-.942-.763-1.706-1.705-1.706zm18.268 1.484c1.133 0 2.052.815 2.052 1.819 0 1.006-.919 1.82-2.052 1.82-1.135 0-2.054-.684-2.054-1.819 0-1.136.919-1.819 2.054-1.819zm-3.354.006c.341 0 .667.052.963.146l-.16.534a2.398 2.398 0 0 0-.803-.136c-.992 0-1.795.402-1.795 1.276s.803 1.275 1.795 1.275c.281 0 .548-.046.786-.129l.16.534a3.218 3.218 0 0 1-.946.14c-1.513 0-2.459-.57-2.459-1.82 0-1.136 1.1-1.819 2.459-1.819zm-11.025.064h.663v3.51h-.663Zm1.509 0h.821l1.09 1.506c.28.39.524.797.719 1.177h.012c-.05-.468-.07-.922-.07-1.459v-1.224h.66v3.51h-.74l-1.101-1.54c-.27-.386-.55-.819-.757-1.214l-.02.005c.032.453.038.916.038 1.495v1.255h-.652Zm-4.817 0H4.87v.527H2.95v.97h1.816v.525H2.95v1.489h-.664Zm8.817.006h2.583v.526h-1.92v.967h1.816v.529h-1.817v.962l1.92-.007v.533h-2.582zm8.87.46c-.768 0-1.39.405-1.39 1.283 0 .88.622 1.284 1.39 1.284.767 0 1.389-.575 1.389-1.284 0-.708-.622-1.283-1.389-1.283z"/></svg>