<svg role="img" viewBox="0 0 24 24" xmlns="http://www.w3.org/2000/svg"><title>Fineco</title><path d="M1.706 8.794C.764 8.794 0 9.558 0 10.501v3.222c0 .942.764 1.707 1.706 1.707h20.606c.942 0 1.706-.765 1.706-1.707v-3.222c0-.943-.764-1.707-1.706-1.707zm18.282 1.485c1.134 0 2.054.815 2.054 1.82 0 1.007-.92 1.822-2.054 1.822-1.136 0-2.056-.685-2.056-1.821 0-1.137.92-1.82 2.056-1.82zm-3.357.006c.342 0 .668.052.964.146l-.16.534a2.4 2.4 0 0 0-.804-.136c-.992 0-1.796.402-1.796 1.277 0 .875.804 1.276 1.796 1.276.282 0 .549-.046.787-.129l.16.534a3.22 3.22 0 0 1-.947.14c-1.514 0-2.46-.57-2.46-1.821 0-1.137 1.101-1.82 2.46-1.82zm-11.033.064h.664v3.513h-.664zm1.51 0h.822l1.09 1.507c.281.391.525.797.72 1.178h.012c-.05-.469-.07-.923-.07-1.46v-1.225h.66v3.513h-.74L8.5 12.32c-.269-.386-.55-.819-.757-1.215l-.02.005c.032.454.038.917.038 1.496v1.256h-.653Zm-4.82 0h2.585v.527H2.951v.97h1.818v.526H2.951v1.49h-.664zm8.823.006h2.585v.526h-1.922v.968h1.818v.529h-1.818v.963l1.922-.007v.533h-2.585zm8.877.46c-.769 0-1.392.405-1.392 1.284 0 .88.623 1.285 1.392 1.285.768 0 1.39-.575 1.39-1.285 0-.709-.622-1.284-1.39-1.284z"/></svg>