<svg role="img" xmlns="http://www.w3.org/2000/svg" viewBox="0 0 24 24"><title>Firefox icon</title><path d="M23.977 11.297a2.956 2.956 0 0 1-.012-.226v-.006l-.017-.226v-.006a11.91 11.91 0 0 0-.354-1.991c0-.006 0-.006-.006-.012l-.052-.192c-.006-.011-.006-.023-.012-.029-.018-.058-.035-.122-.052-.18-.006-.011-.006-.029-.012-.04l-.052-.169-.018-.046a1.927 1.927 0 0 0-.058-.169l-.017-.052-.058-.162a.391.391 0 0 0-.018-.047c-.023-.052-.04-.11-.063-.162-.006-.012-.012-.03-.018-.041-.023-.058-.046-.11-.07-.168 0-.006-.005-.012-.005-.018a9.351 9.351 0 0 0-.244-.551l-.018-.035c-.023-.047-.04-.087-.063-.128-.012-.023-.024-.052-.035-.075-.018-.041-.041-.076-.058-.117-.018-.029-.03-.058-.047-.087-.017-.034-.04-.07-.058-.11l-.052-.093c-.018-.035-.04-.07-.058-.104a.874.874 0 0 0-.058-.099c-.018-.035-.04-.064-.058-.099-.018-.035-.041-.064-.058-.098l-.058-.093c-.024-.035-.041-.07-.064-.105-.018-.029-.035-.058-.058-.087a9480.074 9480.074 0 0 1-.128-.192l-.076-.11c-.017-.023-.034-.052-.052-.075l-.087-.122-.046-.064c-.047-.064-.087-.122-.134-.18a12.04 12.04 0 0 0-1.138-1.289 8.983 8.983 0 0 0-.888-.807 8.062 8.062 0 0 0-.604-.476 7.862 7.862 0 0 0-1.19-.732 12.284 12.284 0 0 0-3.03-1.126c-.094-.017-.187-.04-.274-.058h-.006c-.046-.006-.087-.018-.133-.023-.604-.11-1.22-.18-1.84-.192h-.512c-.754.012-1.498.093-2.2.244C8.132.614 6.698 1.3 5.746 2.159c-.052.046-.093.081-.116.104l-.023.024h.005l-.005.005.005-.005s.006 0 .006-.006l-.006.006s.006-.006.012-.006c.708-.424 1.69-.772 2.392-.947.093-.023.192-.046.285-.07.017-.005.04-.005.058-.01.081-.018.162-.036.25-.053.011 0 .028-.006.04-.006 3.106-.569 6.416.36 8.72 2.56a8.304 8.304 0 0 1 1.301 1.586c1.469 2.38 1.33 5.376.186 7.14-1.666 2.567-5.388 3.45-7.693 1.203a4.073 4.073 0 0 1-1.237-2.857 3.583 3.583 0 0 1 .302-1.498c.082-.186.633-1.242.883-1.19-.633-.134-1.818.128-2.648 1.364-.743 1.11-.702 2.816-.244 4.03a6.428 6.428 0 0 1-.586-1.899c-.592-3.994 2.096-7.402 4.563-8.25-1.33-1.161-4.668-1.08-7.147.743C3.604 5.19 2.57 6.7 2.024 8.5c.082-1.01.465-2.52 1.249-4.058-.83.43-1.887 1.788-2.41 3.042-.755 1.81-1.016 3.976-.778 6.037l.052.465c.964 5.666 5.905 9.986 11.845 9.986C18.618 23.972 24 18.59 24 11.954c-.006-.221-.012-.442-.023-.657Z"/></svg>