<svg viewBox="0 0 16 16" xmlns="http://www.w3.org/2000/svg" fill-rule="evenodd" clip-rule="evenodd" stroke-linejoin="round" stroke-miterlimit="1.414"><path d="M7.18 15.66c-.217-.216-.338-.515-.338-.82 0-.305.12-.603.34-.818.215-.217.513-.34.818-.34.305 0 .604.123.82.34.216.215.34.513.34.818 0 .305-.124.604-.34.82-.216.215-.515.34-.82.34-.305 0-.603-.125-.82-.34zm3.422-3.42c-.216-.218-.34-.516-.34-.82 0-.307.124-.604.34-.82.216-.216.514-.34.82-.34.305 0 .603.124.82.34.215.216.34.513.34.82 0 .304-.125.602-.34.82-.217.213-.515.338-.82.338-.306 0-.604-.125-.82-.34zm-3.42 0c-.216-.218-.34-.516-.34-.82 0-.307.124-.604.34-.82.215-.216.513-.34.818-.34.305 0 .604.124.82.34.215.216.34.513.34.82 0 .304-.125.602-.34.82-.216.213-.515.338-.82.338-.305 0-.603-.125-.82-.34zm-3.423 0c-.216-.218-.338-.516-.338-.82 0-.307.122-.604.337-.82.215-.216.513-.34.82-.34.304 0 .603.124.82.34.215.216.34.513.34.82 0 .304-.125.602-.34.82-.217.213-.516.338-.82.338-.307 0-.605-.125-.82-.34zM.34 8.817C.12 8.602 0 8.303 0 7.998c0-.305.122-.603.34-.82.215-.214.513-.338.818-.338.305 0 .604.124.82.34.215.215.338.513.338.82 0 .303-.123.602-.338.818-.216.215-.515.34-.82.34-.304 0-.603-.125-.82-.34zm3.42 0c-.216-.216-.34-.515-.34-.82 0-.305.124-.603.34-.82.215-.214.514-.338.82-.338.304 0 .602.124.82.34.213.215.338.513.338.82 0 .303-.125.602-.34.818-.216.215-.514.34-.817.34-.306 0-.605-.125-.82-.34zm10.263 0c-.216-.216-.34-.515-.34-.82 0-.305.124-.603.34-.82.216-.214.514-.338.82-.338.305 0 .603.124.82.34.214.215.337.513.337.82 0 .303-.123.602-.338.818-.216.215-.514.34-.82.34-.305 0-.603-.125-.82-.34zm-3.42 0c-.216-.216-.34-.515-.34-.82 0-.305.124-.603.34-.82.215-.214.513-.338.818-.338.306 0 .604.124.82.34.217.215.34.513.34.82 0 .303-.123.602-.34.818-.216.215-.514.34-.82.34-.304 0-.602-.125-.818-.34zm-3.422 0c-.215-.216-.338-.515-.338-.82 0-.305.123-.603.34-.82.214-.214.513-.338.818-.338.305 0 .603.124.82.34.216.215.34.513.34.82 0 .303-.124.602-.34.818-.217.215-.515.34-.82.34-.305 0-.604-.125-.82-.34zm3.422-3.42c-.215-.216-.338-.515-.338-.82 0-.305.123-.602.338-.82.216-.214.516-.337.82-.337.304 0 .603.124.82.338.215.218.34.515.34.82 0 .305-.125.604-.34.82-.217.215-.516.34-.82.34-.304 0-.604-.125-.82-.34zm-6.842 0c-.217-.216-.34-.515-.34-.82 0-.305.123-.602.34-.82.215-.214.513-.337.82-.337.304 0 .602.124.818.338.215.218.34.515.34.82 0 .305-.125.604-.34.82-.216.215-.514.34-.82.34-.305 0-.603-.125-.818-.34zm3.39-.033c-.208-.223-.32-.526-.306-.83.01-.307.145-.6.37-.808.224-.206.526-.317.832-.305.303.01.598.145.804.37.207.224.322.525.31.833-.013.304-.15.597-.373.804-.223.206-.527.32-.83.308-.307-.012-.6-.15-.806-.373zm.03-3.388c-.214-.217-.338-.515-.338-.82 0-.305.124-.603.34-.82C7.395.122 7.694 0 8 0c.305 0 .604.122.82.337.216.217.34.515.34.82 0 .305-.124.603-.34.82-.216.215-.515.34-.82.34-.305 0-.604-.125-.82-.34z"/></svg>