<svg role="img" xmlns="http://www.w3.org/2000/svg" viewBox="0 0 24 24"><title>Fiverr icon</title><path d="M13.64 11.93h-1a.55.55 0 01.54-.49.45.45 0 01.46.49zM24 12A12 12 0 1112 0a12 12 0 0112 12zM6.22 9.78a.54.54 0 00.54.54.54.54 0 000-1.08.54.54 0 00-.54.54zm1.51 3.42h-.42v-2.53H4.85v-.16c0-.32.32-.32.48-.32a1.39 1.39 0 01.27 0v-.86a3.8 3.8 0 00-.4 0c-.51 0-1.47.14-1.47 1.23v.14h-.45v.81h.45v1.69h-.42v.8h2v-.8h-.46v-1.71H6.2v1.71h-.42v.8h2zm3.42-1.72h.37v-.81H9.75v.81h.3l-.38 1.2a1.54 1.54 0 00-.09.44 2.08 2.08 0 00-.09-.44l-.38-1.2h.3v-.81h-1.8v.81H8L8.9 14h1.32zm3.65.72a1.48 1.48 0 00-1.55-1.6 1.66 1.66 0 00-1.74 1.74 1.73 1.73 0 001.83 1.74 2.32 2.32 0 001.44-.47l-.41-.77a1.82 1.82 0 01-.94.32.74.74 0 01-.77-.61h2.11v-.35zm3-1.57h-.13a1.14 1.14 0 00-1.07.82 1.15 1.15 0 000-.17v-.18c0-.31-.17-.43-.47-.43h-1.08v.81h.31a.13.13 0 01.14.15v1.57h-.45v.8h2v-.8h-.45v-.49c0-.6.3-1 .91-1a1.17 1.17 0 01.23 0zm3 1.1v-1.1h-.2a1.14 1.14 0 00-1.07.82 1.15 1.15 0 000-.17v-.18c0-.31-.17-.43-.47-.43H18v.81h.31a.13.13 0 01.14.15v1.57H18v.8h2v-.8h-.45v-.49a.88.88 0 01.92-1 1.17 1.17 0 01.26.02z"/></svg>