<svg role="img" viewBox="0 0 24 24" xmlns="http://www.w3.org/2000/svg"><title>Flask icon</title><path d="M7.172 20.655c-.914-.72-1.89-1.41-2.556-2.38-1.402-1.712-2.482-3.694-3.22-5.777C.95 11.143.796 9.69.222 8.388-.38 7.444.325 6.41 1.36 6.109c.46-.088 1.272-.523.293-.212-.878.644-.963-.585-.063-.662.615-.082.84-.585.63-1.037-.659-.43 1.6-.903.463-1.544C1.501 1.376 4.34 1.13 3.64 2.58c-.167 1.115 1.984-.204 1.485 1.083.507.619 1.9.141 1.865 1.009.74.05.993.672 1.687.72.72.325 2.023.58 2.267 1.391-.713.565-2.365-1.166-2.444.397.215 2.31.16 4.689 1.005 6.888.4 1.332 1.369 2.38 2.244 3.418.837 1.016 1.971 1.73 3.127 2.333 1.014.478 2.107.795 3.213.994.448-.343 1.24-1.617 1.938-1.08.033.604-1.388 1.263-.067 1.196.776-.234 1.314.6 1.953-.152.588.697 2.446-.446 2.027.98-.566.364-1.392.144-1.959.646-.935-.467-1.68.418-2.715.306-1.15.206-2.319.29-3.484.291-1.912-.151-3.865-.215-5.684-.88-1.025-.298-2.024-.882-2.925-1.465zm1.615.7c1 .432 1.979.888 3.075 1.026 1.74.241 3.537.614 5.283.274-.79-.357-1.608.14-2.395-.255-.944.203-1.957-.052-2.917-.177-1.092-.486-2.27-.82-3.292-1.452-1.277-.466.66.598 1.006.685.798.453-.878-.233-1.115-.421-.668-.375-.754-.297-.066.084.139.081.276.166.42.235zm-1.904-1.346c.97.359-.004-.682-.449-.622-.197-.341-.752-.557-.36-.74-.705.244-.738-.93-1.07-.763-.745-.235-.29-1.069-1.177-1.58-.081-.54-.882-1.008-1.138-1.822-.113-.416-.905-1.613-.418-.5.414 1.072 1.143 1.99 1.75 2.907.47.873 1.027 1.786 1.885 2.33.29.278.568.703.977.79zM4.09 16.942c.033-.146.177.317 0 0zm3.954 3.497c.215-.096-.309-.12 0 0zm.526.192c-.054-.265-.24.148 0 0zm.66.275c.313-.299-.484-.188 0 0zm1.128.63c.191-.282-.61-.107 0 0zM8.19 20.023c.487-.315-.63-.004 0 0zm.494.246c-.014-.166-.176.075 0 0zm2.47 1.542c.398.25 2.32.55 1.116.103-.201.042-2.231-.574-1.116-.103zm-3.921-3.054c-.039-.167-.616-.185 0 0zm1.15.67c.3-.209-.621-.16 0 0zm.967.593c.43-.162-.697-.163 0 0zm-2.585-1.773c.466.358 1.88.046.714-.213-.53-.283-1.727-.476-.912.17l.198.043zm3.24 1.978c.194-.33-.814-.189 0 0zm-.984-.783c1.14.323-.958-.72-.281-.118l.15.068.13.05zm1.974 1.141c1.079.01-.975-.148 0 0zm-4.645-2.96c-.042-.201-.266.017 0 0zm6.47 3.984c.029-.363-.352.27 0 0zm-4.629-2.856c-.065-.191-.337-.008 0 0zm-1.739-1.254c.62-.037-.848-.273 0 0zm-2.06-1.332c-.077-.297-.674-.534 0 0zM9.8 19.6c-.114-.13-.054.028 0 0zm3.366 2.065c-.01-.197-.183.075 0 0zm-3.664-2.373c.06-.255-.529-.077 0 0zM6.995 17.7c.46-.049-.739-.311 0 0zm4.242 2.637c.718-.285-.7-.14 0 0zM9.03 18.84c.828.106-.985-.563-.181-.06zm2.877 1.768c.773-.462.518 1.082 1.311.13.782-.57-.675.707.289.103.697-.467 1.727.22 2.377.445.468-.023.923.405 1.403.145.923-.25-1.806-.37-1.09-.81-.845.245-1.47-.294-1.885-.835-.948-.219-2.044-.703-2.517-1.542-.192-.315.279.044-.166-.47-.571-.508-.856-1.085-1.24-1.702-.457-.244-.51-.963-.557-.024.004-.593-.553-.992-.689-.826-.002-.571.596-.285.177-.707-.09-.592-.387-1.209-.476-1.877-.138-.322-.02-1.011-.473-.282-.165.77-.055-.947.202-.38.337-.579-.12-.51-.14-.43.22-.488.14-1.18-.057-.916.117-.517.185-1.902-.175-1.656.218-.54.414-2.473-.534-1.736-.384.005-1.048.14-1.363.296.986.543-.099.196-.5.11-.052.502-.45.285-.946.29.793.098-.386.81-.841.534-.59.282.51.987.012 1.205.061.328-.905-.119-.83.64-.573-.241-.078.9.209.514.975.264.686.866.711 1.437-.159.333-.785-.783-.14-.731-.508-.827-.562-.299-.985.085-.099.028 1.079.547.34.803.65.1.668.67.8 1.03.391.407.311-.45.779.04-.296-.436-1.567-1.228-.544-.974-.005-.439-.185-.793.129-.784.31-.562-.325 1.387.375.672.193-.085.241-.563.59.045.505.498.182.858-.531.403.127.433.954.587.799 1.265.165.595.395.376.596.342.158.578.247.153.255-.123.721.155.552.581.778.88.497.224-.712-1.522.142-.526.898.811.337 1.15-.47 1.02.51-.041.675.69 1.313.664.582.277.976 1.34-.027.897-.348-.313-1.579-.7-.573-.104.929.43 1.666.688 2.562 1.227.64.458.918.982 1.16 1.086-.538.257-1.623-.206-.817-.348-.503-.091-1.068-.345-.587.28.41.343 1.45.306 1.637.345-.159.348-.43.376.006.403-.486.26.156.3.201.448zm-.994-2.808c-.296-.31-.373-.89-.053-.385.164.066.525.947.053.385zm3.238 2.057c.185-.011.006.14 0 0zm-3.706-2.816c-.011-.468.107.361 0 0zm-.322-.433c-.372-.719.47.204 0 0zm-3.9-2.692c.218-.059.107.374 0 0zm3.104 1.682c.134-.504.158.424 0 0zm-2.193-1.525c-.155-.278.323.261 0 0zm1.882.604c-.352-.79.25-.432.078.13zM5.77 12.512c-.158-.26-.418-1.02-.334-1.252.076.378.804 1.627.357.518-.494-.93.59.302.702.534.051.23-.305-.063-.064.478-.44-.617-.26.34-.661-.278zm-1.003-.691c.041-.603.23.413 0 0zm.451.155c.215-.455.365.634 0 0zm-1.085-.84c-.374-.37-.644-.713.017-.23.255.01-.566-.778.061-.25.66.12.326 1.082-.078.48zm.57-.015c.217-.215.115.212 0 0zm.35.113c-.328-.617.4.258 0 0zm-.697-.667c-1.086-.966 1.365.506.177.18l-.177-.18zm3.111 1.808c-.47-.282-.124-1.984.036-.82.457-.148-.025.601.315.594-.053.473-.206.643-.35.226zm1.15.68c.047-.513.098.35 0 0zm-.2-.198c.053-.219.006.258 0 0zM4.57 10.25c-.697-.963 2.027.973.447.244-.165-.043-.364-.059-.447-.244zm2.216 1.175c-.066-.81.147.134 0 0zm1.682 1.079c.13-.462.01.305 0 0zM4.676 9.882c.415-.088 1.718.729.521.234-.133-.148-.417-.08-.521-.234zm3.56 1.775c.044-.829.248-.495.002.118l-.002-.118zM4.985 9.594c.169-.248-.449-1.12.089-.313.232.185.672.31.283.387.611.539-.149.146-.372-.074zm3.075 1.804c.117-.944.103.553 0 0zM4.632 8.722c.129-.055.068.172 0 0zm.802.478c.206-.434.38.483 0 0zm2.263 1.259c-.002-.167.043.242 0 0zm-.131-.29c-.314-.776.292.41 0 0zm-.193-.509c-.053-.32.18.403 0 0zm.314-.51c-.216-.38.272-1.674.326-.871-.227.625-.065.975.093.136.293-.66-.063 1.303-.42.735zm.322-1.924c.094-.115.021.139 0 0zm-.538 10.613c-.128-.111.016.071 0 0zm1.11.561c.616.159.613-.096.055-.171-.3-.28-1.246-.575-.399-.035.056.142.234.139.343.206zm-2.192-1.455c.34.253 1.28.719.484.096.269-.312-.514-.478-.254-.686-.66-.404-.52-.368-.058-.356-.794-.354.114-.328.071-.51-.306-.06-1.52-.539-.805.04-.726-.37-.173.138-.392.084-.743-.202.66.565-.118.375.425.337 1.146.864.18.357-.128.183.691.46.892.6zm1.16.667c1.411.454-.691-.556 0 0zm5.94 3.598c.02-.28-.192.24 0 0zm.612.257c.325-.315.013.503.539-.077.006-.415-.016-.66-.605-.156-.162.09-.234.473.066.233zM4.408 15.38c-.1-.393-.7-.39 0 0zm.652.428c-.242-.402-.864-.364 0 0zm3.71 2.237c.362.321 1.663.236.44.04-.182-.269-1.151-.204-.44-.04zm5.098 3.149c.558-.468-.54.208 0 0zm1.16.796c.003-.15-.24.066 0 0zm.001-.21c.617-.654-.598.039 0 0zM2.805 14.038c-.526-.75-.327-1.088-.835-1.7-.096-.47-.87-1.533-.4-.406.43.659.558 1.679 1.235 2.106zm12.03 7.534c1.136-.734-.465-.32 0 0zm.867.34c.57-.488-.36-.102 0 0zM4.215 14.55c.163-.242-.42-.031 0 0zm11.306 7.129c.551-.355-.126-.3-.1.032zM8.05 16.97c-.02-.24-.291.02 0 0zm.461.266c-.146-.297-.225.047 0 0zm7.894 4.684c.705-.51-.428-.098-.148.096zm-.27-.13c.574-.482-.607.213 0 0zm1.38.918c.386-.258-.469-.083 0 0zM4.569 14.376c.517.116 2.066 1.274 1.152.08-.468-.138-.187-1.283-.665-1.08.32.535.264.763-.409.426-.846-.413-.475.204-.31.374-.225.052.298.196.232.2zm-2.356-1.86c.092-.383-.853-2.107-.446-.864.146.26.131.754.446.864zm4.324 2.666c-.266-.223-.013-.032 0 0zm.656.152c0-.405-.725-.164 0 0zm5.682 3.583c-.108-.278-.428-.006 0 0zm.273.199c-.04-.155-.157.03 0 0zm2.253 1.419c.216-.16-.27-.02 0 0zM3.39 12.816c.62-.24-.664-.171 0 0zm8.985 5.661c-.007-.401-.395.1 0 0zm-9.23-6.231c.398-.135-.368-.089 0 0zm1.155.56c-.007-.133-.122.05 0 0zm14.09 8.64c.513-.104 1.679.26 1.867-.136-.621-.015-2.15-.438-2.222.101l.136.022.22.013zM4.668 12.898c.009-.407-.317-.015 0 0zM1.63 10.79c-.138-.775-.525-.118 0 0zm.724.182c.009-.249-.663-.224 0 0zm.414.203c-.12-.097-.094.122 0 0zm2.605 1.67c.122-.112-.29-.083 0 0zm-2.88-2.128c-.07-.585-.84-.088 0 0zm-1.486-.964c-.02-.27-.144.102 0 0zm.221-.167c-.036-.32-.19.04 0 0zm1.22.729c.517-.203-.94-.42-.105-.039zm16.334 10.089c.33-.303-.42-.094 0 0zm1.974 1.023c.132-.392-.334.051 0 0zM2.573 9.676c.055-.379-.409.075 0 0zM.837 8.513c-.093-.535-.08-1.474.812-1.156-1.191.236.824 1.48.57.498.5.024.98-.296.716.19.987-.109 1.671-.964 2.624-.845.742-.098 1.554-.172 2.354-.471.658-.048 1.291-.756.93-1.175-.896-.076-1.835.036-2.827.233-1.098.228-2.096.662-3.205.849-1.08.145.217.4-.092.456-.564.196.672.328-.073.534-.46-.088-.94-.246-.743-.73-1.035.133-1.945.563-1.127 1.616h.061zm2.494-1.27c.243-.894 1.3.735.398.118-.108-.08-.285-.146-.398-.119zm.047-.434c.35-.26.186.146 0 0zm.445.008c.032-.411 1.018.218.163.148zm.608-.245c.222-.26.064.231 0 0zm.156-.104c.37-.444 2.095-.283.832-.043-.338-.255-.598.15-.832.043zm2.251-.347c-.056-1.214 1.118.432 0 0zm.639-.004c.233-.612.906-.245.108-.123.017.065-.024.316-.108.123zM2.322 9.362c.697-.427-.741-.37 0 0zm.515.144c.245-.26-.531-.106 0 0zm-1.52-1.08c.399-.305-.471-.116 0 0zm20.603 12.89c.012-.355-.304.16 0 0zm-2.093-1.429c.06-.409-.27.036 0 0zm2.67 1.567c.557 0 1.688-.173.475-.173-.19.03-1.109.024-.476.173zM3.29 9.254c.451-.03.706-.497-.087-.47-1.23-.127 1.084.42-.158.264-.167.11.236.237.245.207zm.398.202c-.048-.29-.14.154 0 0zm.47-1.257c.197-.243-.27-.065 0 0zm-1.5-2.508c.806-.274 1.907-.581 2.287.135-.387-.466-.156-.924.21-.243.516.689.775-.313.438-.545.383.476.819.701.257.03.61-.734-1.223.097-1.64.088-.2.09-2.071.477-1.551.535zm.472-.903c.46-.347 1.588.206.864-.345-.07-.062-1.586.418-.864.345zm1.674.069c.538.013-.231-.722.409-.389-.105-.344-.746-.408-1.059-.545-.177.314.36.938.65.934zm-1.38-1.52c.186-.252-.326.128 0 0zm.684.164c.866-.115-.22-.373-.174-.01zm-1.277-1c-.61-.796 1.146.134.527-.7-.522-.415-1.023.468-.527.7zm7.825 4.215c.28-.496-1.155-.668-.188-.175.089.03.069.21.188.175z"/></svg>