<svg role="img" viewBox="0 0 24 24" xmlns="http://www.w3.org/2000/svg"><title>Flash Flash Revolution</title><path d="M8.814 2.606c-.066-.003-.132 0-.199.004h-.01c-.518.067-1.02.353-1.443.685a1.71 1.71 0 0 0-.289.434c-.068 0-.137.007-.205.009-.011.011-.026.023-.036.034a5.99 5.99 0 0 0-.52-.004l-.028.002a7.967 7.967 0 0 0-2.178.492c-.1.041-.199.08-.296.126-.595.28-1.146.651-1.632 1.092-.027.026-.055.05-.082.077l-.083.077A6.137 6.137 0 0 0 .668 7.149a5.665 5.665 0 0 0-.107.22c-.03.062-.06.125-.088.188-.442 1.06-.566 2.247-.406 3.4.015.097.026.193.045.29l.017.087a7.435 7.435 0 0 0 1.568 3.182c.06.072.12.144.182.214.073.081.15.159.227.237.057.057.11.117.17.171a8.173 8.173 0 0 0 1.523 1.122c.178.096.359.186.545.267a9.155 9.155 0 0 0-.466-.484 6.822 6.822 0 0 1-.961-.962 4.17 4.17 0 0 1-.582-.814 6.259 6.259 0 0 1-.911-2.435l-.003-.01-.006-.054a5.888 5.888 0 0 1 .265-2.944c.016-.046.028-.093.045-.14l.004-.01c.05-.14.106-.277.167-.41.022-.047.046-.092.069-.138.044-.089.09-.176.139-.263.046-.082.096-.162.145-.242l.069-.104A5.463 5.463 0 0 1 3.07 6.6c.021-.02.038-.044.06-.064.076-.075.161-.146.244-.219A6.557 6.557 0 0 1 5.102 5.24l.047-.022c.094-.039.188-.075.282-.109a6.338 6.338 0 0 1 1.26-.325c-.02.023-.037.05-.057.073.03-.002.063-.008.094-.009-.11.083-.198.168-.272.253-.15.242-.247.504-.237.75.048.258.224.498.473.7.078.042.164.079.265.11.023.042.05.08.075.122.02.01.035.024.055.034.06.128.133.247.21.361.302.395.666.735 1.042 1.064.277.231.553.463.803.715.14.132.277.266.406.408-.004.017-.01.033-.015.05l.045.062a2.104 2.104 0 0 1-.267.38c-.249.33-.641.577-1.064.737-.039.015-.078.026-.118.04-.056.02-.112.04-.169.056a3.514 3.514 0 0 1-.652.128c.058.313.063.649.028.997-.005.64-.214 1.269-.469 1.881-.152.431-.319.855-.481 1.252l-.09.075-.022.053c-.027.008-.052.023-.079.035-.2.168-.398.348-.584.543-.22.296-.423.624-.644.813-.307.489-.505 1.028-.511 1.603v.004c.019.571.227 1.122.611 1.496.344.294.793.449 1.265.47.02.002.041.002.062.003a2.718 2.718 0 0 0 .854-.116c.798-.257 1.427-.9 1.838-1.669.218-.448.353-.938.481-1.425a4.19 4.19 0 0 0 .037-.276c.029-.038.05-.077.073-.116a9.54 9.54 0 0 1 .154-.505c.005-.094 0-.189-.011-.284-.226-.391-.256-.727-.186-1.044-.025-.332.052-.645.398-.918.056-.105.112-.213.167-.323.13-.507.452-.656.85-.625.432-.001.914.235 1.386.492.237.118.464.233.646.308.134.076.276.146.421.216.043.015.086.03.127.04.026.021.059.04.09.06.385.178.783.352 1.157.553l.009.004c.47.217.905.463 1.037.788.048.057.092.115.133.177a1.24 1.24 0 0 0-.109.141.86.86 0 0 1-.141.31c-.03.104-.038.208-.043.313.115.304.103.6.026.892-.012.281-.09.56-.356.833l-.128.235c-.05.117-.108.23-.175.334-.036.07-.073.141-.105.212-.073.068-.15.133-.225.199a4.39 4.39 0 0 1-.929.7l-.11.068-.02.01a8.621 8.621 0 0 1-1.205.621c-.018.01-.04.018-.058.028a8.094 8.094 0 0 1-2.17.595l-.053.008-.06.009c-.009.001-.018 0-.027.002-.775.11-1.564.133-2.341.07 2.573.915 5.484.326 7.694-1.21.09.088.183.171.278.25l.009.006a4.211 4.211 0 0 0 .954.589 4.931 4.931 0 0 0 .666.246c.07.02.14.037.212.055.054.014.107.03.162.043l.135.028a6.689 6.689 0 0 0 .447.077l.11.015.025.002c.113.014.227.026.34.034h.007c.177.014.355.017.532.02.086.001.172.005.257.004.164-.001.326-.009.488-.017.087-.005.175-.007.261-.013.111-.008.218-.02.327-.03.143-.014.287-.03.426-.047a9.58 9.58 0 0 0 .268-.045l.158-.03c.083-.017.167-.037.25-.058.075-.018.148-.036.223-.057.073-.02.144-.045.216-.069.087-.029.174-.056.259-.09l.051-.021c.136-.056.269-.119.394-.189h.002l.009-.004a2.84 2.84 0 0 0 .284-.186l.037-.026.008-.006c.05-.04.098-.083.144-.126l.023-.02.007-.006a1.88 1.88 0 0 0 .13-.141l.017-.02.002-.004c.19-.235.32-.518.362-.86a2.022 2.022 0 0 0-.208-.78 2.728 2.728 0 0 0-.276-.446c-.582-.77-1.52-1.339-1.876-2.242a14.003 14.003 0 0 1-.807-.21 4.506 4.506 0 0 1-.777-.304 2.7 2.7 0 0 1-.346-.214 1.881 1.881 0 0 1-.717-.997c.45-3.498-1.444-7.265-4.686-8.739a9.146 9.146 0 0 1 1.025.931l.015.015.013.015a9.453 9.453 0 0 1 .877 1.072v.002c.121.174.235.352.345.533.044.073.084.148.126.222.057.101.116.202.169.304a9.12 9.12 0 0 1 .274.582c.042.097.083.193.122.291.047.12.088.24.13.362.025.072.054.143.077.216.027.092.057.2.086.31l.02.073c.073.277.134.557.179.84.094.532.15 1.078.1 1.473a7.73 7.73 0 0 1-.04.638c-.054-.05-.112-.094-.167-.142l-.004.007a3.613 3.613 0 0 0-.227-.197l-.015-.01c-.453-.335-.955-.578-1.477-.784-.44-.166-.892-.31-1.337-.47-.04-.014-.081-.03-.122-.043l-.092-.03c-.17-.05-.45-.18-.721-.321a7.88 7.88 0 0 1-.259-.142c-.023-.012-.03-.018-.051-.03-.383-.205-.499-.301-.441-.323-.013-.05.146-.027.513.095l.165.042c.474.044 1.107.386 1.64.486.283.012.557-.036.735-.15a.838.838 0 0 0 .206-.355.55.55 0 0 0-.026-.128c-.144-.123-.188-.227-.169-.321-.02-.028-.036-.054-.06-.084.037-.001.067-.01.1-.015.111-.17.388-.318.54-.498a.816.816 0 0 0-.111-.601c-.002-.002-.001-.004-.003-.005-.013-.012-.021-.022-.036-.034-.01-.02-.024-.033-.036-.05a.496.496 0 0 0-.154-.108c-.147-.04-.336.007-.516.07l-.028.015c-.28.147-.405.178-.45.14-.086-.002-.067-.107.089-.36.082-.184.18-.405.196-.608a.785.785 0 0 0-.24-.44c-.017-.01-.03-.022-.05-.03-.014-.021-.026-.034-.04-.052a.743.743 0 0 0-.54-.154c-.175.175-.31.524-.458.661-.002.023-.008.04-.009.064a.216.216 0 0 1-.11-.01.145.145 0 0 1-.1-.037c.008-.015.01-.028.017-.043-.093-.18-.002-.593-.045-.898-.292-.343-.896-.423-1.22-.144-.131.18-.165.46-.183.747.003.018.002.033.006.052.114.47.028.703-.162.804-.115.176-.333.217-.762.009-.269-.056-.542-.128-.768-.17a.964.964 0 0 0-.146.129c-.077.27-.22.378-.379.379-.113.068-.231.043-.374-.167-.298-.276-.453-.812.047-1.098.212-.236.498-.47.702-.736.068-.337.06-.715.186-.952-.01-.029-.013-.056-.026-.086.1-.169.268-.183.441-.145.028 0 .052-.005.084-.002l.083.049c.15.058.284.136.357.175-.014-.03-.067-.1-.128-.188-.056-.06-.049-.06-.158-.173.007-.032.008-.06.013-.09a.591.591 0 0 1-.035-.434.88.88 0 0 0-.083-.18c-.26-.234-.519-.452-.753-.687-.264-.21-.506-.445-.589-.792 0-.002 0-.004-.002-.006-.05-.1-.095-.206-.133-.319a1.672 1.672 0 0 0-1.136-.477zM6.172 7.099a.817.817 0 0 0-.454.176c-.174.16-.324.38-.432.595a1.384 1.384 0 0 0-.189.267 2.35 2.35 0 0 0-.181.869l.002.021c0 .01 0 .022.002.032.053.474.304.924.702 1.175.532.277 1.246.161 1.726-.244a1.645 1.645 0 0 0 .309-1.827c-.245-.3-.627-.531-.893-.796-.004-.005-.01-.009-.015-.013-.195-.184-.39-.26-.577-.255Z"/></svg>