<svg role="img" viewBox="0 0 24 24" xmlns="http://www.w3.org/2000/svg"><title>Flask</title><path d="M5.982 17.326c2.163-1.095 6.72-3.4 6.801-3.422.034-.01.065-.006.065-.006a.064.064 0 0 1 .057.045c.254.6.732 1.52 1.605 2.411a7.807 7.807 0 0 0 2.837 1.843c.005.002 1.566.644 3.669.415.022-.003.036-.008.045-.02.028-.036-.015-.096-.028-.233-.005-.046.031-.076.05-.1.063-.081.7-.298.897-.369.028-.01.1-.008.147.014.075.035.168.083.172.088.008.013.376-.162.661-.266a.367.367 0 0 1 .117-.024.43.43 0 0 1 .173.034c.177.168.606.882.608.886.075.133.184.327.126.506-.052.158-.217.249-.309.299-.025.014-.792.335-.81.363-.026.043-.04.154-.054.224a.16.16 0 0 1-.063.082 7.75 7.75 0 0 1-.42.18c-.238.097-.622.239-.672.22-.055-.021-.088-.076-.102-.099-.04-.064-.072-.186-.086-.207-.009-.014-.018-.022-.025-.019a12.727 12.727 0 0 1-1.023.44c-1.18.45-2.958.684-2.958.684a14.1 14.1 0 0 1-3.433.204 11.992 11.992 0 0 1-1.74-.236c-.44-.095-1.15-.277-1.97-.624-2.724-1.152-4.17-3.02-4.274-3.138l-.075-.085c-.011-.013-.004-.034-.004-.034 0-.026.01-.046.016-.056zm-2.69-3.699a14.44 14.44 0 0 0 1.807 2.76c.005.007.036.01.046.004l7.194-3.654c.006-.003.011-.029.007-.039a19.07 19.07 0 0 1-.449-1.391s-.184-.659-.322-1.329l-.02-.101c-.005-.027-.085-.032-.089-.03-.035.016-.065.028-.067.03-.047.04-2.608 1.213-8.103 3.71-.007.002-.01.03-.004.04zm7.435-11.11c-.125-.088-.315-.022-.366 0L.266 6.855a.416.416 0 0 0-.251.26.402.402 0 0 0 .031.293c.486.924.721 1.294.85 1.567.013.029.05.11.133.147.043.02.083.017.177.009.075-.007.167-.016.272-.03A16.154 16.154 0 0 0 2.68 12.43c.005.01.035.023.045.018l8.559-3.84c.006-.003.015-.03.014-.042a5.283 5.283 0 0 0-.054-.316c-.025-.11-.413-2.126-.428-4.855-.001-.157-.001-.417.005-.742a.265.265 0 0 0-.094-.136z"/></svg>
