<svg role="img" viewBox="0 0 24 24" xmlns="http://www.w3.org/2000/svg"><title>Flash Flash Revolution</title><path d="M7.196 7.73c.217.186.416.367.629.531.31.241.445.546.38.937-.11.65-.61 1.195-1.24 1.322-.149.03-.319.016-.466-.025-.806-.224-1.239-1.18-.867-1.923a5.63 5.63 0 0 1 .463-.747c.357-.5.637-.522 1.101-.095Z M4.999 16.096a6.8 6.8 0 0 1-2.175-1.554c-.956-1.016-1.577-2.207-1.753-3.601-.26-2.053.385-3.78 1.969-5.118 1.156-.978 2.528-1.395 4.035-1.375.183.003.282-.03.374-.222.1-.21.277-.422.475-.54a2.02 2.02 0 0 1 1.56-.233c.504.124.811.461.933.951.076.31.204.523.533.612.153.041.291.162.418.268.22.186.24.347.136.613-.023.058.001.165.044.212.114.125.25.23.377.343l-.045.063c-.157-.093-.323-.175-.47-.281-.222-.16-.329.074-.48.135-.046.019-.07.159-.06.236.077.514-.021.946-.506 1.23-.136.08-.259.185-.378.29-.219.19-.255.398-.071.628.149.187.342.339.548.538.048-.115.076-.168.093-.223.137-.438.319-.53.751-.367.164.061.319.144.483.202.447.157.727-.048.704-.516-.01-.198-.047-.394-.056-.592-.017-.376.154-.563.529-.586a2.93 2.93 0 0 1 .405.002c.352.027.477.196.413.54-.029.156-.08.313-.075.468.003.091.096.18.149.268.061-.063.14-.116.18-.19.076-.148.118-.313.195-.46.097-.184.265-.25.436-.122.168.125.328.277.446.449.15.22.111.454-.068.657-.064.071-.148.13-.191.21-.034.062-.05.192-.017.218a.295.295 0 0 0 .243.044c.092-.032.164-.12.244-.186.264-.215.458-.2.671.067.073.091.13.2.175.308.08.199.014.358-.163.471-.06.039-.125.07-.19.1-.34.158-.34.158-.108.434.177.209.165.39-.065.541a1.734 1.734 0 0 1-.473.215c-.097.028-.268.026-.314-.033-.274-.35-.682-.232-1.026-.333-.302-.088-.595-.21-.893-.313-.07-.024-.148-.03-.222-.043l-.021.076c.04.033.078.072.122.097.775.422 1.563.81 2.428 1.025.715.179 1.315.586 1.89 1.032l.155.122a7.655 7.655 0 0 0-.683-3.998c-.58-1.265-1.428-2.319-2.527-3.193.074.022.156.03.222.067 2.122 1.21 3.44 3.01 3.956 5.396.179.831.182 1.67.099 2.514a.404.404 0 0 0 .087.272c.248.29.505.572.772.843.067.068.181.102.28.124.353.076.722.103 1.06.22.323.111.5.393.584.734.027.11.113.223.203.297.487.4.963.81 1.293 1.356.227.375.377.772.236 1.222-.11.352-.353.599-.648.798-.635.43-1.362.598-2.106.693-1.147.146-2.282.086-3.394-.258-.586-.181-1.116-.452-1.537-.927-2.174 1.432-4.495 1.93-7.024 1.106.176 0 .352-.008.527 0 2.243.109 4.225-.551 5.94-2.007.155-.131.236-.287.308-.483.14-.375.342-.729.547-1.075.091-.155.107-.255-.009-.4-.243-.302-.234-.481 0-.788.052-.07.109-.137.152-.213.102-.179.045-.324-.12-.426-.404-.252-.796-.53-1.22-.742-.88-.438-1.773-.85-2.671-1.249-.219-.097-.475-.12-.718-.152-.224-.03-.373.073-.439.307a3.769 3.769 0 0 1-.249.667c-.076.15-.189.297-.32.402-.183.147-.198.275-.11.49.122.295.2.611.262.925a.492.492 0 0 1-.09.359c-.182.227-.185.496-.236.756-.18.91-.589 1.69-1.314 2.286-.737.605-1.985.685-2.67.155-.603-.467-.716-1.12-.607-1.823.043-.278.161-.545.252-.847.038-.064.076-.095.098-.135.289-.516.7-.914 1.161-1.277.153-.12.29-.3.357-.482.123-.333.169-.694.284-1.03.098-.287.257-.553.373-.834.059-.142.118-.3.114-.448-.008-.228-.07-.453-.11-.68-.03-.166-.064-.333-.096-.501.069-.016.1-.028.13-.03.806-.029 1.433-.406 1.964-.987.145-.16.15-.286-.001-.425-.332-.306-.654-.626-1.003-.911-.408-.335-.81-.673-1.058-1.146-.124-.24-.29-.41-.528-.522a1.34 1.34 0 0 1-.185-.109c-.279-.191-.338-.42-.166-.717.087-.15.205-.282.309-.422l.14-.193-.052-.09c-.473.145-.96.257-1.418.442-2.473.999-3.876 3.608-3.341 6.195.332 1.608 1.18 2.892 2.481 3.885.072.055.11.153.165.232z"/></svg>