<svg role="img" viewBox="0 0 24 24" xmlns="http://www.w3.org/2000/svg"><title>Flipkart</title><path d="M10.5137 16.6988c-.3085 1.7611-.5922 3.5271-.9267 5.2836l5.9936-.0002c.0639-.3608.8704-4.9417.9334-5.3004l2.1446.003c.3901-.0005.7925.011 1.1384-.1978.7096-.4285.9368-1.3928 1.0542-2.1532.0345-.2234.0662-.4492.0662-.6758 0-.4309-.0694-.9182-.4624-1.1719-.3048-.1968-.721-.1619-1.067-.1619h-2.063c.2551-1.4677.2684-1.5185.3984-2.2602.1796-1.0526.6832-2.2823 1.5045-2.904.9597-.7898 1.9732-.758 3.0589-.758.5194 0 1.3647-.0375 1.6337-.569.0924-.1826.083-.4073.0742-.6047-.0195-.4445-.126-.8842-.2277-1.316-.0999-.4243-.2149-.8857-.4566-1.245-.45-.6345-1.3986-.6766-2.5353-.6404-2.539.0622-4.9282 1.0142-6.6497 2.9347-1.2205 1.3108-1.939 3.0006-2.302 4.7305-.075.3578-.3496 1.809-.4936 2.6455-.643.0195-1.473.045-1.99.0584-1.7932.0636-3.5704.1338-5.353.2809-.433.0357-.8627.068-1.2982.1046-.3938.0307-.4162.0413-.4555.0727-.113.0905-.1026.2932.0303.3492.069.0291.369.077.603.1143.6158.089 1.2325.1858 1.8496.2792.225.034.7037.1061.7302.1132.1835.0492.201.334.2234.4636.025.1454-.0606.2338-.2067.2746-.3186.0606-.6475.0644-.9781.0827-.2403.015-.3683.0256-.3633.2474.004.1842.2738.1778.4344.2005.2965.0418.5857.0825.8826.1216.2462.0325.366.0382.4168.057.0691.022.1044.1197.1405.4501.0038.1238-.1046.1661-.3615.1653-.3372.0162-.6466.031-.9708.043-1.1914.075-2.3564.1324-3.5221.2023a37.0614 37.0614 0 0 1-.7825.0406c-.2811.005-.3588.0118-.3589.1936 0 .2095.1337.1854.4917.1967.0272.0006 1.3764.0523 2.053.0809.9637.0347 1.9206.0667 2.8803.103 1.691.064 3.3923.0666 5.0886.0661z"/></svg>