<svg role="img" viewBox="0 0 24 24" xmlns="http://www.w3.org/2000/svg"><title>Flipkart</title><path d="M10.5137 16.6987c-.3085 1.7612-.5922 3.5272-.9267 5.2837l5.9936-.0002c.0639-.3608.8704-4.9416.9334-5.3004l2.1446.003c.3901-.0005.7925.0111 1.1384-.1978.7096-.4284.9368-1.3928 1.0542-2.1532.0345-.2234.0662-.4492.0662-.6758 0-.4308-.0694-.9181-.4624-1.1719-.3048-.1968-.721-.1619-1.067-.1619h-2.063c.4556-2.3885.4243-3.8638 1.9029-5.1643.9597-.7897 1.9732-.7578 3.0589-.7578.5194 0 1.3647-.0376 1.6337-.5691.0924-.1825.083-.4073.0742-.6047-.0195-.4445-.126-.8842-.2277-1.316-.0999-.4243-.2149-.8857-.4566-1.2449-.45-.6346-1.3986-.6767-2.5353-.6405-2.539.0622-4.9126 1.069-6.6497 2.9347-1.2205 1.3108-1.939 3.0006-2.302 4.7306-.075.3577-.3496 1.8089-.4936 2.6454-.643.0195-1.473.045-1.99.0584-1.7932.0636-3.5704.1338-5.353.2809-.433.0357-.8627.068-1.2982.1046-.3938.0307-.4162.0413-.4555.0727-.113.0905-.1026.2933.0303.3493.069.029.369.077.603.1142.6158.0891 1.2325.1859 1.8496.2792.225.034.7037.1061.7302.1133.1835.0492.2111.3057.2234.4635.0114.1471-.0606.2338-.2067.2747-.3186.0606-.6475.0644-.9781.0827-.2403.015-.3683.0256-.3633.2473.004.1842.2738.1779.4344.2005.2965.0418.5857.0825.8826.1216.2462.0325.366.0382.4168.057.034.0103.1698.1221.1405.4501-.0143.1603-.1379.1517-.3615.1653-.3372.0162-.6466.031-.9708.043-1.1914.075-2.3564.1324-3.5222.2023a37.0612 37.0612 0 0 1-.7825.0406c-.281.005-.3588.0118-.3588.1937 0 .2094.1337.1854.4917.1966a549.586 549.586 0 0 1 2.053.081c.9637.0346 1.9205.0666 2.8803.103 1.691.0638 3.3923.0665 5.0886.066z"/></svg>