<svg role="img" viewBox="0 0 24 24" xmlns="http://www.w3.org/2000/svg"><title>FL Studio</title><path d="M16.574.1564c-.1453.0917-.7035.5964-1.231 1.1316-1.0551 1.055-1.6898 1.9344-2.1792 3.0277-.1605.3594-.3134.65-.3364.65-.0306 0-.1605-.1682-.2905-.3748-.7264-1.1162-2.1256-1.8426-3.5324-1.8426-1.8656.0077-3.6088 1.1852-4.2664 2.8826-.237.604-.26.8334-.0987 1.032.191.2295.5352.2142 1.6056-.0457.4359-.107.8411-.1988.8946-.1988.1912 0 .1146.1605-.26.5352-.1987.2064-.4204.4818-.497.604-.1376.237-.1376.237.0227.237.084 0 .4359-.0687.7799-.1604.4281-.1147.7722-.153 1.1162-.13.4512.0306.5124.0534.7418.298.2064.2294.2829.4206.451 1.147.3442 1.491.757 2.1103 1.6056 2.4314.7264.2676 1.124.2217 2.6455-.3059 1.0782-.3747 1.407-.4587 1.6898-.428.9328.084 1.3304.9556 1.0246 2.263-.2677 1.1317-1.537 3.9147-2.5385 5.574-1.1698 1.9344-2.8672 3.9222-3.9835 4.6562-1.1239.7494-1.9115.8411-3.0355.3747-.3745-.153-.7416-.3059-.8028-.3288-.237-.0917.4359.4512.7952.6347.3364.1758.4435.1986 1.0782.1681.6269-.023.7569-.0535 1.2844-.3133 1.7738-.8794 3.93-3.3567 5.5892-6.4227 1.445-2.676 2.095-4.3963 2.3013-6.1167.0307-.237.0694-.4357.084-.4357.016 0 .2983.2752.627.6116.3212.3364.65.6117.7264.6117.367 0 .7876-.9176.8716-1.9115.0533-.65-.1835-1.6668-.5658-2.4008-.4052-.7646-1.1392-1.4757-1.9497-1.881-.7723-.3746-1.3456-.4817-2.4696-.4434l-.841.023-.0228-.2142c-.0306-.2217.2983-1.0016.7418-1.7737.474-.8182 1.078-1.5904 1.8885-2.3856.4358-.4282.795-.8182.795-.8563 0-.13-.168-.0995-.4586.0764z"/></svg>