<svg role="img" viewBox="0 0 24 24" xmlns="http://www.w3.org/2000/svg"><title>Flux</title><path d="m11.922 11.565c-8e-3 -7.66e-4 -0.01604-0.0016-0.02404-0.0026 8e-3 0.0012 0.01604 0.0016 0.02404 0.0026zm0.04001 0.0028a0.67632 0.67632 0 0 0 0.07647 0q-0.0382 0.0018-0.07647 0zm0.14054-0.0054c-8e-3 1e-3 -0.01604 0.0018-0.02404 0.0026 8e-3 -9.34e-4 0.01604-0.0014 0.02404-0.0026zm7.8792-6.1891-7.6111-4.9484a0.67939 0.67939 0 0 0-0.74063 0l-7.6111 4.9484a0.67943 0.67943 0 0 0 0 1.1392l7.1803 4.6682v-3.3943a0.40058 0.40058 0 0 0-0.40058-0.40058h-0.52798a0.40058 0.40058 0 0 1-0.3469-0.60083l1.7297-2.9961a0.40058 0.40058 0 0 1 0.6938 0l1.7297 2.9961a0.40058 0.40058 0 0 1-0.3469 0.60086h-0.52798a0.40058 0.40058 0 0 0-0.40058 0.40058v3.3943l7.1803-4.6682a0.67943 0.67943 0 0 0-1e-6 -1.1392zm-5.3458 8.6247-1.8357-1.1934v0.56556a14.404 14.404 0 0 0 1.8357 0.62786zm-1.8357 0.38897v0.79398c0.60659 0.18514 1.2203 0.33721 1.8279 0.48699 1.9839 0.48904 3.8579 0.95097 5.3648 2.4579 0.07638 0.07638 0.14827 0.15438 0.21944 0.23261a0.68015 0.68015 0 0 0-0.23188-0.8859l-2.9814-1.9383c-0.72357-0.23895-1.4611-0.42147-2.1897-0.60109-0.68702-0.16935-1.3592-0.33838-2.009-0.54622zm-1.6024-0.65122a7.406 7.406 0 0 1-0.75504-0.44035l-0.68178 0.44327a8.2951 8.2951 0 0 0 1.4368 0.84207zm2.2814 2.5274q-0.34198-0.0843-0.67902-0.16935v0.7803q0.24934 0.06259 0.49788 0.12376c1.9839 0.489 3.8579 0.95093 5.3648 2.4579 0.0026 0.0026 0.0049 0.0052 0.0075 0.0078l0.64458-0.41904c-0.0393-0.04118-0.07621-0.08324-0.1169-0.12392-1.656-1.6561-3.7214-2.1652-5.7186-2.6575zm-2.2814-0.63404a8.3099 8.3099 0 0 1-2.4247-1.2483l-0.66756 0.43398c0.94923 0.78295 2.006 1.2579 3.0923 1.6101zm0 1.7243c-1.484-0.38886-2.8795-0.86364-4.0717-1.9017l-0.65615 0.42659c1.4003 1.2902 3.0662 1.8295 4.7281 2.2567zm1.6024 1.1832c1.5524 0.40069 3.0122 0.88002 4.2488 1.9812l0.65255-0.42424c-1.4448-1.358-3.1786-1.9002-4.901-2.338zm-7.2998-2.028-0.64769 0.42109c0.022865 0.02336 0.043493 0.0475 0.066711 0.07072 1.6561 1.6561 3.7214 2.1652 5.7186 2.6576 1.7297 0.42632 3.3755 0.83259 4.7675 1.9282l0.66373-0.43152c-1.5684-1.3205-3.4367-1.7844-5.2503-2.2314-1.9641-0.48411-3.8196-0.94331-5.3189-2.4146zm-1.3759 1.2867c-0.075387-0.07539-0.14627-0.15235-0.21654-0.22953a0.67754 0.67754 0 0 0 0.10971 1.0462l2.2412 1.457c0.99192 0.4107 2.0293 0.66749 3.0493 0.91889 1.5926 0.39258 3.1138 0.76896 4.4316 1.6812l0.67795-0.44077c-1.4988-1.1267-3.2376-1.5584-4.9287-1.9752-1.9839-0.489-3.8579-0.95093-5.3648-2.4579zm7.293 5.6276c0.14915 0.07246 0.29674 0.14874 0.44191 0.2309a0.67792 0.67792 0 0 0 0.51012-0.09354l0.37622-0.24459c-1.2084-0.8082-2.5519-1.2175-3.8909-1.5587z"/></svg>