<svg role="img" viewBox="0 0 24 24" xmlns="http://www.w3.org/2000/svg"><title>Fly.io</title><path d="m11.993 0-.214.003-.547.028-.276.025-.404.05-.264.04-.397.08-.294.066L8.9.495l-.072.028-.783.325-.027.013-.552.29-.29.186-.367.248-.023.018-.31.253-.423.372-.174.174-.202.224-.185.222-.16.21-.224.331-.225.371-.162.305-.234.514-.047.11-.146.428-.045.146-.197.875-.028.154-.087.876-.012.24-.001.086.009.402.02.235L4 8.5l.062.332.074.306.095.33.25.702.082.21.433.914.153.282.5.86.192.31.7 1.031.101.136.91 1.184.294.365 1.04 1.214.213.235.856.92.34.352.56.557-.112.094-.07.063q-.286.267-.54.564a5 5 0 0 0-.233.297q-.168.234-.3.49-.067.133-.12.273a2.5 2.5 0 0 0-.163.74l-.003.22c.008.308.07.612.185.9a2.5 2.5 0 0 0 1.028 1.215q.25.152.526.248a2.95 2.95 0 0 0 1.241.141h.003a2.8 2.8 0 0 0 1.023-.304q.206-.109.39-.253a2.5 2.5 0 0 0 .79-1.048c.128-.322.191-.666.186-1.013l-.01-.182a2.5 2.5 0 0 0-.17-.697 3 3 0 0 0-.132-.286 4 4 0 0 0-.309-.487 5 5 0 0 0-.163-.21 7 7 0 0 0-.603-.631l-.151-.13.257-.253 1.103-1.153.382-.419.593-.667.386-.452.551-.67.372-.468.547-.731.277-.379.39-.586.328-.5.614-1.07.353-.702.01-.022.269-.652.009-.026.29-.904.03-.132.127-.72.024-.195.007-.12.01-.451-.004-.084-.023-.403-.028-.314-.143-.904-.008-.035-.184-.669-.063-.186-.179-.444-.17-.38-.09-.175-.302-.51-.077-.12-.38-.506-.112-.125-.324-.348-.02-.02-.381-.347-.158-.137-.547-.4-.15-.092-.402-.236-.223-.114-.356-.168-.242-.103-.305-.116-.251-.086-.226-.068-.77-.19-.09-.02-.776-.109-.589-.05L12.4.009Zm-.236 1.576v15.52l-.039-.071a43 43 0 0 1-1.425-2.89 31 31 0 0 1-.968-2.423 19 19 0 0 1-.584-1.994 11 11 0 0 1-.255-1.63 8 8 0 0 1-.013-.705q.006-.306.025-.613.03-.481.1-.959a10 10 0 0 1 .14-.746q.068-.294.158-.581.13-.415.31-.811.067-.143.143-.283c.3-.555.705-1.065 1.238-1.407a2.6 2.6 0 0 1 1.151-.406zm1.994.04 1.045.297c.484.179.949.412 1.377.702a5.5 5.5 0 0 1 1.481 1.478 5.5 5.5 0 0 1 .573 1.104 6.5 6.5 0 0 1 .4 1.79q.02.241.024.482.006.225-.01.45-.044.502-.187.985a8 8 0 0 1-.27.777 11 11 0 0 1-.43.928 18 18 0 0 1-1.177 1.937 30 30 0 0 1-1.698 2.216 42 42 0 0 1-2.037 2.256 43 43 0 0 0 1.34-2.741q.346-.778.652-1.571.337-.872.607-1.766.203-.67.35-1.355A11 11 0 0 0 15.98 8.4q.051-.498.039-.998a14 14 0 0 0-.023-.611 10.4 10.4 0 0 0-.413-2.42 7 7 0 0 0-.33-.872c-.305-.666-.73-1.287-1.308-1.741Zm-1.774 18.47h.047l.044.013q.02.011.04.025l.037.034q.137.125.265.261.09.096.174.199.107.13.2.27.038.063.073.128.03.057.054.117.044.104.055.216l-.002.138a.8.8 0 0 1-.376.62 1.06 1.06 0 0 1-.459.15l-.172.006-.144-.013a1 1 0 0 1-.2-.049 1 1 0 0 1-.19-.088l-.113-.084a.8.8 0 0 1-.258-.442l-.013-.087-.004-.133a1 1 0 0 1 .015-.108q.03-.116.085-.223.07-.135.158-.258.148-.2.319-.378.11-.117.227-.225l.055-.051c.039-.025.039-.025.083-.038"/></svg>