<?xml version="1.0" encoding="UTF-8" standalone="no"?>
<svg
   xmlns:dc="http://purl.org/dc/elements/1.1/"
   xmlns:cc="http://creativecommons.org/ns#"
   xmlns:rdf="http://www.w3.org/1999/02/22-rdf-syntax-ns#"
   xmlns:svg="http://www.w3.org/2000/svg"
   xmlns="http://www.w3.org/2000/svg"
   xmlns:sodipodi="http://sodipodi.sourceforge.net/DTD/sodipodi-0.dtd"
   xmlns:inkscape="http://www.inkscape.org/namespaces/inkscape"
   role="img"
   viewBox="0 0 24 24"
   version="1.1"
   id="svg15"
   sodipodi:docname="fmod.svg"
   viewbox="0 0 24 24"
   title="&lt;title&gt;FMOD icon&lt;/title&gt;"
   inkscape:version="1.0.2-2 (e86c870879, 2021-01-15)"
   xmlns="http://www.w3.org/2000/svg">
  <metadata
     id="metadata19">
    <rdf:RDF>
      <cc:Work
         rdf:about="">
        <dc:format>image/svg+xml</dc:format>
        <dc:type
           rdf:resource="http://purl.org/dc/dcmitype/StillImage" />
        <dc:title>FMOD Logo White - Black Background</dc:title>
      </cc:Work>
    </rdf:RDF>
  </metadata>
  <sodipodi:namedview
     pagecolor="#ffffff"
     bordercolor="#666666"
     borderopacity="1"
     objecttolerance="10"
     gridtolerance="10"
     guidetolerance="10"
     inkscape:pageopacity="0"
     inkscape:pageshadow="2"
     inkscape:window-width="1920"
     inkscape:window-height="1027"
     id="namedview17"
     showgrid="false"
     inkscape:zoom="35.833333"
     inkscape:cx="12.608821"
     inkscape:cy="13.345059"
     inkscape:window-x="1072"
     inkscape:window-y="270"
     inkscape:window-maximized="1"
     inkscape:current-layer="svg15"
     inkscape:document-rotation="0"
     inkscape:pagecheckerboard="false" />
  <defs
     id="defs5">
    <filter
       color-interpolation-filters="sRGB"
       id="a">
      <feColorMatrix
         values="10 10 10 1 0 10 10 10 1 0 10 10 10 1 0 0 0 0 1 0"
         id="feColorMatrix2" />
    </filter>
  </defs>
  <title
     id="title7">FMOD icon</title>
  <path
     d="M375 438.88a5 5 0 1 0 5-4.91 4.93 4.93 0 0 0-5 4.91zm.9 0a4.07 4.07 0 1 1 4.08 4.24 4.06 4.06 0 0 1-4.11-4.24zm2.05 2.78h.9v-2.48h1l1.57 2.48h1l-1.65-2.55a1.48 1.48 0 0 0 1.52-1.57c0-1.11-.65-1.65-2-1.65h-2.23zm.9-5H380c.61 0 1.27.12 1.27.88s-.73 1-1.52 1h-.94z"
     fill="#fff"
     filter="url(#a)"
     transform="translate(-28.838 -45.753) scale(.13718)"
     id="path9" />
  <path
     class="fmod_svg__cls-2"
     d="M25.64 15.09a5.12 5.12 0 1 0 0 10.24 5.12 5.12 0 1 0 0-10.24z"
     filter="url(#a)"
     transform="translate(.022 8.852) scale(.13718)"
     id="path11" />
  <path
     class="fmod_svg__cls-2"
     d="M364.41 431a7 7 0 0 0 .49-.9 4.88 4.88 0 0 1 9.21 2.24 4.76 4.76 0 0 1-.4 1.91l-.14.29a16.5 16.5 0 0 1-14.8 9.28 16.19 16.19 0 0 1 0-32.38h.71a16.37 16.37 0 0 1 7.38 2.12V398h9.62v21.9a5.4 5.4 0 0 1-5.18 5.25 11.57 11.57 0 0 1-7.78-2.72 6.56 6.56 0 0 0-4-1.39h-.71a6.57 6.57 0 1 0 5.64 9.94zm-56.77-3.35a16.19 16.19 0 1 1 16.19 16.19 16.19 16.19 0 0 1-16.19-16.19zm22.76 0a6.57 6.57 0 1 0-6.57 6.57 6.57 6.57 0 0 0 6.57-6.57zm-42.33-6.59a1.82 1.82 0 0 0-1.73 1.26l-3.87 13.35a11.38 11.38 0 0 1-21.84 0l-3.87-13.35a1.83 1.83 0 0 0-3.47 0l-3.87 13.35a11.44 11.44 0 0 1-11 8.17h-2.68v-9.6h2.72a1.8 1.8 0 0 0 1.71-1.26l3.87-13.35a11.42 11.42 0 0 1 21.89 0l3.9 13.37a1.79 1.79 0 0 0 3.43 0l3.87-13.35a11.42 11.42 0 0 1 21.89 0l3.87 13.35a1.8 1.8 0 0 0 1.71 1.26h2.72v9.6h-2.68a11.43 11.43 0 0 1-11-8.17l-3.87-13.35a1.83 1.83 0 0 0-1.7-1.28zm-53.3-13.39a6.57 6.57 0 0 0-6.57 6.57v29.61h-9.62v-20.47h-8.2v-9.59h8.21A16.19 16.19 0 0 1 234.77 398h9.61v9.62z"
     filter="url(#a)"
     transform="translate(-28.838 -45.753) scale(.13718)"
     id="path13" />
  <g
     inkscape:groupmode="layer"
     id="layer1"
     inkscape:label="Layer 1" />
</svg>
