<svg role="img" viewBox="0 0 24 24" xmlns="http://www.w3.org/2000/svg"><title>FMOD icon</title><path d="M3.303 8.855a2.225 2.216 0 0 0-2.174 2.16H0v1.313h1.127v2.8H2.45v-4.052a.903.9 0 0 1 .903-.898l1.322-.006V8.855H3.352a2.225 2.216 0 0 0-.05 0zm18.206 0v2.13a2.25 2.24 0 0 0-1.016-.292h-.097a2.225 2.216 0 0 0 0 4.432 2.268 2.258 0 0 0 2.035-1.27l.02-.04a.654.651 0 0 0 .054-.26.67.668 0 0 0-1.266-.307.962.958 0 0 1-.068.123l.006-.004a.903.9 0 1 1-.776-1.36h.098a.902.898 0 0 1 .55.19 1.59 1.583 0 0 0 1.07.373.742.739 0 0 0 .712-.718V8.855zM6.123 10.697a1.57 1.563 0 0 0-1.496 1.117l-.533 1.827a.247.246 0 0 1-.235.173h-.373v1.313h.368a1.572 1.566 0 0 0 1.511-1.117l.533-1.826a.252.25 0 0 1 .477 0l.531 1.826a1.564 1.557 0 0 0 3.002 0l.531-1.826a.25.25 0 0 1 .24-.174.252.25 0 0 1 .234.176l.53 1.826a1.571 1.564 0 0 0 1.513 1.12h.37v-1.316h-.376a.247.246 0 0 1-.234-.17l-.531-1.83a1.57 1.563 0 0 0-3.01 0l-.532 1.83a.246.245 0 0 1-.47 0l-.538-1.83a1.57 1.563 0 0 0-1.512-1.119zm9.49 0a2.225 2.216 0 0 0-2.245 2.215 2.225 2.216 0 0 0 2.227 2.215 2.225 2.216 0 0 0 .02-4.43zm-12.09.23a.705.7 0 1 0 0 1.401.704.7 0 1 0 0-1.4zm12.05 1.087a.903.9 0 0 1 .924.898.903.9 0 0 1-.902.9.903.9 0 0 1-.022-1.798zm7.741 1.763a.678.675 0 0 0-.688.672.687.684 0 1 0 .688-.672zm-.042.14a.56.557 0 1 1 .04 1.112.558.556 0 0 1-.565-.58h.004a.56.557 0 0 1 .521-.533zm-.224.122-.016.791h.123v-.34h.14l.214.34h.138l-.228-.35a.203.203 0 0 0 .21-.214c0-.152-.089-.227-.274-.227zm.107.106h.16c.082 0 .174.017.174.12 0 .105-.1.137-.209.137h-.13z"/></svg>