<svg role="img" viewBox="0 0 24 24" xmlns="http://www.w3.org/2000/svg"><title>Fnac</title><path d="M20.874 7.2s-1.621-.105-1.685 1.368v.043C19.253 10.084 20.874 10 20.874 10c.737 0 1.137-.232 1.326-.653h.842l.232-1.494h-1.095c-.19-.421-.568-.674-1.305-.653zm-4.59 1.516c-.147.19-.863.19-.863.19-.716.041-1.79.02-1.768.652.02.674.884.59 1.305.568.463-.02.863-.147 1.179-.547.295-.337.168-.842.147-.863.021-.021 0 0 0 0zM3.294 0l-1.01 6.358h.442c-.02-.19-.02-.969.548-1.474 0 0 .631-.631 2.484-.484 0 0 1.895.147 1.895 1.516H6.347s-.042-.758-1.22-.716c0 0-1.2-.021-1.095 1.137h3.62v.59c.106-.17.38-.443 1.074-.632 0 0 2.969-.653 3.285 1.473v2.99h-1.306V8.316c-.19-1.327-1.684-1.095-1.684-1.095-1.01.084-1.305.674-1.368 1.095V10.8H6.347V7.263H4.053V10.8H2.747V7.263h-.59L.012 20.716 20.726 24l2.148-13.621c-.442.316-1.18.547-2.358.484-.484-.02-.863-.084-1.18-.21-.589-.21-1.536-.821-1.536-2v-.148c-.021-1.158.947-1.768 1.537-2 .316-.126.695-.168 1.179-.21 1.768-.106 2.526.484 2.842.99l.631-4.043zm13.074 10.8-.042-.505v-.021c-.526.652-1.79.61-1.79.61-2.357.042-2.315-1.242-2.315-1.242-.19-1.347 1.537-1.326 2.968-1.41 1.432-.085 1.095-.653 1.095-.653-.063-.463-1.095-.505-1.095-.505-1.431-.106-1.452.758-1.452.758h-1.348s0-1.137 1.411-1.453c.021 0 .842-.253 2.295 0 0 0 1.62.21 1.516 1.768l.042 2.674h-1.285z"/></svg>