<svg role="img" viewBox="0 0 24 24" xmlns="http://www.w3.org/2000/svg"><title>Folo</title><path d="M13.233 17.305a1.812 1.812 0 1 1-3.625-.002 1.812 1.812 0 0 1 3.625.002m-.534-6.526a1.812 1.812 0 1 1 0 3.623h-5.52a1.812 1.812 0 1 1 0-3.623zm4.415-4.71a1.812 1.812 0 1 1 0 3.624h-8.28a1.812 1.812 0 1 1 0-3.623zm6.767 1.45q0-.422-.002-.846a33 33 0 0 0-.01-.712 10.3 10.3 0 0 0-.137-1.552 5.2 5.2 0 0 0-.486-1.475 4.96 4.96 0 0 0-2.17-2.168A5.2 5.2 0 0 0 19.6.28a10.4 10.4 0 0 0-1.552-.137 35 35 0 0 0-.713-.01Q16.91.13 16.488.13L13.211.12H10.76L7.54.131q-.423 0-.848.002-.357.001-.714.01A10.4 10.4 0 0 0 4.422.28a5.3 5.3 0 0 0-1.478.486A4.97 4.97 0 0 0 .77 2.934 5.2 5.2 0 0 0 .283 4.41a10 10 0 0 0-.137 1.552q-.009.356-.01.712c-.002.282-.017.633-.017.915v5.652l.015 3.242q0 .424.002.847.001.357.01.714c.014.518.045 1.041.137 1.554.094.52.247 1.004.487 1.476a4.97 4.97 0 0 0 2.174 2.172c.473.24.958.393 1.479.487.513.092 1.036.122 1.555.136q.357.01.714.01.424.003.849.002h8.947l.847-.001q.357-.002.713-.01c.518-.015 1.04-.045 1.553-.138a5.2 5.2 0 0 0 1.475-.486 4.96 4.96 0 0 0 2.17-2.172c.24-.472.392-.956.486-1.477a10.4 10.4 0 0 0 .136-1.553q.01-.357.01-.714.004-.424.003-.847V7.52"/></svg>