<svg role="img" xmlns="http://www.w3.org/2000/svg" viewBox="0 0 24 24"><title>Font Awesome icon</title><path d="M21.31 0H2.69A2.705 2.705 0 000 2.69v18.62A2.705 2.705 0 002.69 24h18.62A2.705 2.705 0 0024 21.31V2.69A2.705 2.705 0 0021.31 0zM18.88 15.23c0 .225-.193.322-.418.418-.895.386-1.854.734-2.882.734-1.442 0-2.111-.895-3.841-.895-1.249 0-2.561.45-3.617.927-.064.032-.128.032-.192.065v2.432c0 .096 0 .193-.033.257v.064c-.128.45-.546.766-1.023.766a1.081 1.081 0 01-1.087-1.087V7.2a1.781 1.781 0 01-.702-1.409c0-.991.798-1.795 1.795-1.795.99 0 1.794.799 1.794 1.795 0 .579-.257 1.088-.702 1.409v.991c.097-.032.193-.064.29-.129.99-.417 2.175-.766 3.294-.766 1.216 0 2.175.322 3.263.734.225.097.45.129.702.129 1.216 0 2.56-.863 2.882-.863.257 0 .482.193.482.418v7.516Z"/></svg>
