<svg role="img" xmlns="http://www.w3.org/2000/svg" viewBox="0 0 24 24"><title>foobar2000 icon</title><path d="M8.62 0L5.616 7.62c-.846 2.145-1.622 4.379 0 6.81.597.896 6.376 9.58 6.383 9.57l6.383-9.57c1.622-2.431.846-4.665 0-6.81L15.38 0l-2.397 5.166c-.509-.174-1.46-.175-1.968 0zM6.763 9.52c.798-.013 1.926.613 2.863 1.67v.001c1.247 1.41 1.698 3.063 1 3.68-.696.618-2.284-.027-3.533-1.437-1.248-1.41-1.698-3.063-1-3.68.174-.155.404-.23.67-.234zm10.472 0c.266.004.496.08.67.234.698.617.248 2.27-1 3.68-1.249 1.41-2.837 2.055-3.533 1.437-.698-.617-.247-2.27 1-3.68.937-1.056 2.065-1.684 2.863-1.671zm-5.26 6.787a.472.472 0 01.43.23l1.547 2.686c.24.416-.399.757-.625.365L12 17.283l-1.33 2.307c-.23.396-.86.029-.63-.367l1.556-2.69a.472.472 0 01.38-.226z"/></svg>