<svg role="img" viewBox="0 0 24 24" xmlns="http://www.w3.org/2000/svg"><title>Forgejo</title><path d="M8.7379 10.6169C9.7455 9.8628 10.8629 9.4111 12.0902 9.262 12.3201 9.234 12.6264 9.2174 13.0091 9.212 13.3838 9.207 13.7651 9.2061 14.153 9.2092 14.1661 9.2092 14.179 9.2058 14.1904 9.1993 14.2019 9.1928 14.2115 9.1834 14.2184 9.172 14.6312 8.4848 15.2016 8.0405 15.9295 7.8392 16.2257 7.7576 16.5295 7.7268 16.841 7.7469 17.5395 7.7918 18.1357 8.06 18.6295 8.5515 18.8547 8.7758 19.0381 9.0258 19.1796 9.3015 19.3947 9.7208 19.5015 10.1688 19.5 10.6456 19.4984 11.0796 19.4055 11.4925 19.221 11.8841 19.0875 12.1671 18.9123 12.4232 18.6953 12.6525 18.3058 13.0643 17.8357 13.3336 17.2848 13.4605 16.9883 13.5286 16.6834 13.5451 16.3701 13.5099 15.4488 13.4063 14.7295 12.9316 14.2124 12.0858 14.2074 12.0775 14.2003 12.0707 14.192 12.066 14.1838 12.0613 14.1744 12.0589 14.165 12.0589 13.805 12.0589 13.4465 12.0558 13.0896 12.0495 11.6908 12.0247 10.5543 12.5412 9.6803 13.599 9.2116 14.1659 8.9133 14.8197 8.7853 15.5606 8.747 15.7817 8.7278 16.0946 8.7278 16.4991 8.7278 17.1847 8.7278 17.867 8.7278 18.546 8.7278 18.5557 8.7302 18.5652 8.7348 18.5737 8.7394 18.5822 8.746 18.5894 8.754 18.5946 9.4608 19.049 9.9034 19.6679 10.0817 20.4512 10.1523 20.7615 10.173 21.0732 10.1438 21.3863 10.0861 22.0035 9.8549 22.5484 9.4501 23.0211 9.1438 23.3785 8.7738 23.6412 8.3402 23.8092 8.0551 23.9198 7.7559 23.9823 7.4425 23.9967 6.8186 24.0259 6.2487 23.8596 5.7328 23.4978 5.1497 23.0892 4.769 22.5398 4.5907 21.8494 4.513 21.5479 4.4852 21.2367 4.5073 20.9157 4.5748 19.9358 5.0353 19.1654 5.8888 18.6045 5.901 18.5964 5.911 18.5853 5.9179 18.5723 5.9248 18.5593 5.9284 18.5448 5.9284 18.53 5.9389 15.3212 5.9436 12.104 5.9427 8.8785 5.9427 8.457 5.9516 8.1434 5.9694 7.9377 6.0731 6.7458 6.4449 5.6589 7.0848 4.6772 7.8975 3.4309 8.9563 2.5397 10.2612 2.0036 11.1086 1.6556 11.99 1.4777 12.9055 1.4699 13.3266 1.4661 13.7335 1.4689 14.1263 1.4783 14.1457 1.4789 14.1648 1.4744 14.1819 1.4651 14.199 1.4559 14.2135 1.4423 14.2239 1.4256 14.6567.7349 15.2329.2923 15.9525.0975 16.2518.0168 16.5556-.0138 16.864.0057 17.398.0393 17.8768.2145 18.3003.5314 19.0154 1.0663 19.4114 1.7759 19.4885 2.6604 19.5299 3.1355 19.4581 3.5924 19.273 4.0308 19.1512 4.3197 18.9875 4.5836 18.7818 4.8223 18.3936 5.2736 17.907 5.5727 17.3221 5.7197 17.0551 5.7866 16.7781 5.8102 16.4911 5.7904 16.2162 5.7715 15.9478 5.7127 15.686 5.6137 15.059 5.3769 14.567 4.9535 14.2101 4.3436 14.206 4.3367 14.2003 4.331 14.1935 4.327 14.1868 4.3231 14.1791 4.321 14.1714 4.321 13.8498 4.321 13.5316 4.321 13.2167 4.321 12.8076 4.321 12.5015 4.3361 12.2983 4.3662 11.4089 4.4981 10.6433 4.8802 10.0016 5.5124 9.7782 5.7323 9.5813 5.9725 9.411 6.2332 8.9623 6.9201 8.7307 7.6803 8.7163 8.5138 8.7126 8.7328 8.7135 9.4306 8.7191 10.6074 8.7191 10.6231 8.7254 10.6263 8.7379 10.6169ZM17.8308 2.8973C17.8308 2.5812 17.7081 2.278 17.4896 2.0545 17.2712 1.831 16.975 1.7054 16.6661 1.7054 16.3572 1.7054 16.0609 1.831 15.8425 2.0545 15.6241 2.278 15.5014 2.5812 15.5014 2.8973 15.5014 3.2134 15.6241 3.5166 15.8425 3.7401 16.0609 3.9636 16.3572 4.0892 16.6661 4.0892 16.975 4.0892 17.2712 3.9636 17.4896 3.7401 17.7081 3.5166 17.8308 3.2134 17.8308 2.8973ZM17.8303 10.6343C17.8303 10.3182 17.7076 10.015 17.4892 9.7915 17.2707 9.568 16.9745 9.4424 16.6656 9.4424 16.3567 9.4424 16.0605 9.568 15.8421 9.7915 15.6236 10.015 15.5009 10.3182 15.5009 10.6343 15.5009 10.9504 15.6236 11.2536 15.8421 11.4771 16.0605 11.7006 16.3567 11.8262 16.6656 11.8262 16.9745 11.8262 17.2707 11.7006 17.4892 11.4771 17.7076 11.2536 17.8303 10.9504 17.8303 10.6343ZM8.4912 21.1018C8.4912 20.7857 8.3685 20.4825 8.1501 20.259 7.9316 20.0355 7.6354 19.9099 7.3265 19.9099 7.0176 19.9099 6.7214 20.0355 6.5029 20.259 6.2845 20.4825 6.1618 20.7857 6.1618 21.1018 6.1618 21.4179 6.2845 21.7211 6.5029 21.9446 6.7214 22.1681 7.0176 22.2937 7.3265 22.2937 7.6354 22.2937 7.9316 22.1681 8.1501 21.9446 8.3685 21.7211 8.4912 21.4179 8.4912 21.1018Z"/></svg>