<svg role="img" viewBox="0 0 24 24" xmlns="http://www.w3.org/2000/svg"><title>Forgejo</title><path d="M16.595 0a2.904 2.94 0 1 1-2.578 4.293h-1.1a4.18 4.232 0 0 0-4.18 4.161v2.24a6.995 7.082 0 0 1 4.064-1.389h1.28a2.904 2.94 0 1 1-.085 2.78h-1.08a4.174 4.175 0 0 0-4.178 4.1v2.264a2.904 2.94 0 1 1-2.786.065V8.525a6.967 7.053 0 0 1 6.847-7.055h1.28A2.903 2.938 0 0 1 16.596 0ZM7.404 19.85a1.195 1.21 0 1 0 0 2.42 1.195 1.21 0 0 0 0-2.42zm9.191-10.286a1.195 1.21 0 1 0 0 2.42 1.195 1.21 0 0 0 0-2.42zm0-7.835a1.195 1.21 0 1 0 0 2.42 1.195 1.21 0 0 0 0-2.42z"/></svg>