<svg role="img" viewBox="0 0 24 24" xmlns="http://www.w3.org/2000/svg"><title>Fraunhofer-Gesellschaft icon</title><path d="M0 6.348c1.51-.779 3.723-2.036 6.35-3.874v-.617C4.038 3.369 1.687 4.584 0 5.387zm0-1.843C1.682 3.82 4.033 2.76 6.35 1.383v-.305C4.172 2.158 1.91 2.835 0 3.256zM6.35 6.35V3.247A53.554 53.554 0 0 1 2.27 6.35zm-4.892 0a44.389 44.389 0 0 0 3.909-2.597c.321-.241.65-.49.983-.747v-.384C4.307 4.154 2.221 5.43.592 6.35zM0 2.805c1.857-.327 4.13-.914 6.35-1.97V.49C4.113 1.494 1.872 1.92 0 2.07zM0-.032v1.778l.424-.03C1.97 1.597 4.076 1.324 6.35.341v-.373z"/></svg>