<svg role="img" viewBox="0 0 24 24" xmlns="http://www.w3.org/2000/svg"><title>freedesktop.org icon</title><path d="M17.7015 1.933a4.3754 4.3754 0 00-1.2641.14L3.298 5.5015a4.4184 4.4184 0 00-3.1563 5.3845l2.0562 7.8847a4.4184 4.4184 0 005.3845 3.1573l13.1403-3.4293c2.2122-.577 3.5733-2.7452 3.2223-4.9584h.045l-.111-.425-2.0572-7.8848a4.4214 4.4214 0 00-4.1204-3.2963zm-.02.6771a3.7304 3.7304 0 013.4833 2.7913L23.111 12.86l.11.425c.523 2.0002-.67 4.0344-2.6703 4.5555L7.4105 21.2689a3.7293 3.7293 0 01-4.5554-2.6703L.7979 10.715A3.7293 3.7293 0 013.469 6.1585L16.6094 2.73a3.7704 3.7704 0 011.072-.12zm-.392 1.0241a5.3865 5.3865 0 00-1.1972.139L4.4293 6.8165c-2.4283.706-3.1074 2.0162-2.6243 4.2654l1.7501 6.7047c.482 2.1142 2.2823 3.1022 4.3725 2.4402l11.663-3.0433c2.1232-.504 3.1073-2.0962 2.6243-4.2654l-1.7492-6.7046c-.392-1.6772-1.5501-2.5723-3.1763-2.5793zm1.25 3.5544a.46.46 0 01.472.345l.6232 2.3882.01.042a.457.457 0 01-.33.564l-3.4054.8882a.457.457 0 01-.564-.33l-.6331-2.4303a.457.457 0 01.33-.565l3.4053-.8881a.468.468 0 01.093-.014zm-10.217.658a.64.64 0 01.6552.48l.777 2.9783a.638.638 0 01-.46.7841l-4.1724 1.0891a.638.638 0 01-.784-.46L3.561 9.7398a.638.638 0 01.46-.785l4.1725-1.0882a.646.646 0 01.13-.02zm5.8596 1.4662l.173.663-4.1203.476-.174-.663zm.8981 2.5422c.183.147.41.237.648.252l-1.57 2.3622a.892.892 0 00-.6421-.26zm-5.6265.894l2.0322 1.9603-.52.136a.867.867 0 00-.22.095L8.6835 12.95zm4.0644 2.1373a.209.209 0 01.215.157l.435 1.6692a.206.206 0 01-.15.258l-2.3382.61a.206.206 0 01-.257-.152l-.436-1.6681a.206.206 0 01.151-.258l2.3382-.6101a.207.207 0 01.042-.006z"/></svg>