<svg role="img" viewBox="0 0 24 24" xmlns="http://www.w3.org/2000/svg"><title>FreeBSD icon</title><path d="M24 2.5352c0 .089-.0157.1702-.047.2433a.5708.5708 0 0 1-.1273.1878.5848.5848 0 0 1-.408.1638c-.0859 0-.1647-.0151-.2363-.0453a.553.553 0 0 1-.1845-.1249c-.0515-.053-.0917-.1158-.1209-.1885s-.0437-.1514-.0437-.2362c0-.0891.0157-.1703.047-.2434a.5708.5708 0 0 1 .1273-.1878.5752.5752 0 0 1 .1869-.1209.595.595 0 0 1 .2244-.0429.5852.5852 0 0 1 .408.1638.5713.5713 0 0 1 .1273.1878c.0311.0731.0468.1543.0468.2434zm-.1273 0a.5486.5486 0 0 0-.035-.1989.466.466 0 0 0-.097-.1559.4382.4382 0 0 0-.323-.1369.4527.4527 0 0 0-.1806.0358.4363.4363 0 0 0-.1456.1011.4675.4675 0 0 0-.097.1559.5482.5482 0 0 0-.035.1989c0 .0679.0106.1315.0318.1909a.4662.4662 0 0 0 .0915.1559.4365.4365 0 0 0 .1439.1058c.0562.026.1198.039.191.039a.4382.4382 0 0 0 .323-.1369.4673.4673 0 0 0 .097-.1551.5463.5463 0 0 0 .035-.1996zm-.5727.3404h-.1082V2.217h.2498c.0795 0 .1394.0148.1797.0446.0403.0297.0604.078.0604.1448 0 .0594-.0165.1029-.0493.1304-.0329.0276-.0737.044-.1225.0493l.1846.2895h-.1225l-.1702-.2816H23.3v.2816zm.1209-.3739a.719.719 0 0 0 .058-.0023c.0186-.0016.0347-.0061.0485-.0136s.0249-.0177.0334-.031.0127-.0321.0127-.0565c0-.0201-.0045-.036-.0135-.0477a.089.089 0 0 0-.0342-.027.1402.1402 0 0 0-.0462-.0119.5234.5234 0 0 0-.0493-.0023H23.3v.1924h.1209zM14.983 4.1155c-.5491.5491-.0444 1.9441 1.1273 3.1154 1.1714 1.1716 2.566 1.676 3.1153 1.1277.549-.5494 3.7974-5.6975 2.6256-6.8688C20.6798.3183 15.532 3.5662 14.983 4.1155zM5.4202 2.7291C3.6313 1.7141 1.0862.5851.2764 1.3948c-.8206.8202.3499 3.4229 1.3755 5.215a10.9999 10.9999 0 0 1 3.7683-3.8807zm14.6441 5.2254c.1646.5587.1349 1.0204-.1321 1.2869-.6242.6243-2.3096-.0401-3.8289-1.4862a7.644 7.644 0 0 1-.3147-.2973c-.5492-.5496-.9769-1.1349-1.2502-1.6736-.5323-.9545-.6654-1.7977-.2631-2.1999.2192-.2192.5699-.2788.9976-.2018.2791-.1763.6083-.373.9694-.5743-1.4685-.7659-3.1379-1.1986-4.9091-1.1986-5.874 0-10.6363 4.7614-10.6363 10.636 0 5.8738 4.7623 10.6357 10.6363 10.6357 5.8742 0 10.6364-4.7619 10.6364-10.6357 0-1.897-.4979-3.676-1.3678-5.2182a20.4942 20.4942 0 0 1-.5375.927z"/></svg>