<svg role="img" viewBox="0 0 24 24" xmlns="http://www.w3.org/2000/svg"><title>freeCodeCamp icon</title><path d="M19.9 4a.6.6 0 00-.4 0l-.1.3c0 .2.2.5.6 1a8.6 8.6 0 012.8 6.5c0 2.8-1 5.1-2.9 7-.4.3-.5.5-.5.8l.1.3.4.2c.4 0 1-.5 1.8-1.5 1.6-2 2.3-4 2.3-6.8 0-2.9-.9-4.8-2.6-6.8-.6-.7-1.2-1-1.5-1zM4 4c-.3 0-.9.3-1.5 1C1 7 0 9 0 11.8s.7 4.9 2.3 6.8C3 19.6 3.7 20 4 20a.6.6 0 00.4-.2l.1-.3c0-.3-.1-.5-.5-.9a9.2 9.2 0 01-2.9-7c0-2.5 1-4.7 2.8-6.4.4-.5.6-.8.6-1L4.5 4A.6.6 0 004 4zm7 .8s.7 2-2.6 6.7C5.4 16 9.5 18.7 10 19c-.3-.2-2-1.5.4-5.4l1.8-3s.7.9.3 3c-.5 3 2.3 2.2 2.3 2.2 1 1.2-.8 3.2-.9 3.2-.1.1 5.1-3 1.4-7.9-.2.3-.6 1.4-1.3 1.3-.6-.2 2.2-3.5-2.8-7.5z"/></svg>