<svg role="img" viewBox="0 0 24 24" xmlns="http://www.w3.org/2000/svg"><title>freedesktop.org icon</title><path d="M17.703 1.933a4.375 4.375 0 0 0-1.265.141L3.3 5.502a4.418 4.418 0 0 0-3.156 5.384L2.2 18.77a4.419 4.419 0 0 0 5.385 3.156l13.139-3.428c2.213-.578 3.574-2.746 3.222-4.96h.045l-.11-.424-2.057-7.884a4.422 4.422 0 0 0-4.12-3.297zm-.02.678a3.73 3.73 0 0 1 3.482 2.79l1.946 7.459.111.425c.522 2-.671 4.034-2.67 4.556l-13.14 3.428a3.73 3.73 0 0 1-4.556-2.67L.8 10.713A3.728 3.728 0 0 1 3.47 6.16l13.14-3.428a3.767 3.767 0 0 1 1.072-.12zm-.392 1.024a5.388 5.388 0 0 0-1.198.139L4.43 6.816c-2.428.707-3.107 2.017-2.624 4.266l1.75 6.705c.483 2.113 2.283 3.101 4.373 2.44l11.663-3.043c2.122-.505 3.107-2.097 2.624-4.266l-1.75-6.705c-.392-1.676-1.55-2.572-3.175-2.578zm1.25 3.553a.456.456 0 0 1 .47.345l.624 2.389.01.042a.457.457 0 0 1-.33.564l-3.404.888a.458.458 0 0 1-.564-.33l-.634-2.43a.458.458 0 0 1 .33-.565l3.405-.888a.48.48 0 0 1 .094-.015zm-10.217.659c.3-.017.576.176.655.48l.777 2.978a.639.639 0 0 1-.46.784l-4.173 1.089a.638.638 0 0 1-.784-.46L3.562 9.74a.638.638 0 0 1 .46-.784l4.173-1.088a.66.66 0 0 1 .13-.021zm5.858 1.462l.173.663-4.121.476-.173-.664zm.894 2.543c.183.147.408.238.646.254l-1.568 2.361a.901.901 0 0 0-.497-.25.885.885 0 0 0-.147-.008zm-5.62.897l2.031 1.961-.52.136a.868.868 0 0 0-.219.094l-2.063-1.99zm4.106 2.138c.081.01.15.069.172.156l.425 1.627.01.042a.207.207 0 0 1-.15.258l-2.338.61a.206.206 0 0 1-.257-.152l-.436-1.668a.206.206 0 0 1 .15-.257l2.339-.61a.22.22 0 0 1 .085-.006z"/></svg>