<svg role="img" viewBox="0 0 24 24" xmlns="http://www.w3.org/2000/svg"><title>FreshRSS</title><path d="M12 0v2.25A9.733 9.733 0 0 1 21.75 12H24c0-6.614-5.386-12-12-12m0 3.938v2.25A5.796 5.796 0 0 1 17.813 12h2.25c0-4.44-3.624-8.062-8.063-8.062m8.13-.069A11.5 11.5 0 0 1 22.626 16.4c-1.713 4.136-5.683 6.827-10.125 7.026v-1.25c3.939-.197 7.448-2.582 8.969-6.254A10.246 10.246 0 0 0 8.08 2.532C4.405 4.051 2.02 7.56 1.823 11.5H.574C.773 7.058 3.464 3.088 7.6 1.375c4.097-1.697 9.106-.93 12.53 2.494m-2.782 2.783a7.57 7.57 0 0 1 1.638 8.243c-1.103 2.664-3.637 4.4-6.486 4.593v-1.25c2.345-.19 4.42-1.621 5.332-3.822a6.31 6.31 0 0 0-1.37-6.879 6.31 6.31 0 0 0-6.878-1.369c-2.2.911-3.632 2.987-3.822 5.332h-1.25c.193-2.849 1.929-5.383 4.593-6.486 2.725-1.129 6.015-.59 8.243 1.638M7.408.914A12.01 12.01 0 0 0 0 12h2.25a9.74 9.74 0 0 1 6.019-9.008 9.74 9.74 0 0 1 10.625 2.114 9.74 9.74 0 0 1 2.114 10.625A9.74 9.74 0 0 1 12 21.75V24c4.85 0 9.23-2.927 11.086-7.408a12.01 12.01 0 0 0-2.601-13.077C16.883-.087 11.645-.84 7.408.914M8.915 4.55A8.07 8.07 0 0 0 3.938 12h2.25a5.81 5.81 0 0 1 3.588-5.37 5.81 5.81 0 0 1 6.334 1.26 5.81 5.81 0 0 1 1.26 6.334A5.81 5.81 0 0 1 12 17.813v2.25a8.07 8.07 0 0 0 7.449-4.978A8.07 8.07 0 0 0 17.7 6.3a8.08 8.08 0 0 0-8.786-1.748M15.094 12A3.094 3.094 0 0 1 12 15.094 3.094 3.094 0 0 1 8.906 12 3.094 3.094 0 0 1 12 8.906 3.094 3.094 0 0 1 15.094 12"/></svg>