<svg role="img" viewBox="0 0 24 24" xmlns="http://www.w3.org/2000/svg"><title>Frontify</title><path d="m23.13 15.791-2.588-1.5a.755.755 0 0 1-.376-.652v-3.001a1.758 1.758 0 0 0-.872-1.514l-2.588-1.5a.756.756 0 0 1-.374-.653V3.97a1.76 1.76 0 0 0-.872-1.517L12 .45 8.54 2.452c-.539.315-.87.893-.868 1.518v3.001a.76.76 0 0 1-.375.653l-2.591 1.5a1.75 1.75 0 0 0-.87 1.514v3.001a.754.754 0 0 1-.374.652l-2.59 1.5c-.54.314-.872.892-.872 1.516v4.005l3.46 2.002a1.731 1.731 0 0 0 1.741 0l2.589-1.5a.75.75 0 0 1 .75 0l2.588 1.501a1.742 1.742 0 0 0 1.744 0l2.588-1.501a.75.75 0 0 1 .75 0l2.589 1.501a1.733 1.733 0 0 0 1.742 0L24 21.312v-4.005a1.761 1.761 0 0 0-.87-1.516ZM15.343 3.97v3.001c.003.624.334 1.199.872 1.514l2.588 1.5a.756.756 0 0 1 .376.653v3.001c.001.624.332 1.199.87 1.514l2.589 1.501a.757.757 0 0 1 .376.653v2.86l-10.518-6.093V1.888l2.468 1.43a.752.752 0 0 1 .379.652ZM1.367 16.654l2.588-1.501a1.75 1.75 0 0 0 .873-1.513v-3.003c0-.268.142-.516.374-.652l2.589-1.501a1.75 1.75 0 0 0 .871-1.514v-3a.76.76 0 0 1 .374-.652l2.472-1.43v12.186L.993 20.167v-2.86c0-.269.143-.517.375-.653h-.001Zm18.678 5.807a.752.752 0 0 1-.751 0l-2.588-1.5a1.738 1.738 0 0 0-1.742 0l-2.588 1.5a.75.75 0 0 1-.75 0l-2.589-1.5a1.74 1.74 0 0 0-1.743 0l-2.588 1.5a.752.752 0 0 1-.751 0l-2.467-1.43L12 14.93l10.512 6.094-2.467 1.437Z"/></svg>