<svg role="img" viewBox="0 0 24 24" xmlns="http://www.w3.org/2000/svg"><title>Fueler</title><path d="M24 12c0 1.25-1.94 2.17-2.29 3.3-.36 1.16.67 3.08 0 4.05-.7.99-2.77.55-3.7 1.27-.94.7-1.18 2.9-2.3 3.28-1.08.37-2.51-1.25-3.71-1.25-1.2 0-2.63 1.62-3.7 1.25-1.13-.38-1.37-2.58-2.3-3.28-.94-.72-3.02-.28-3.7-1.27-.68-.97.35-2.89-.01-4.06C1.94 14.13 0 13.21 0 11.96S1.94 9.8 2.29 8.67c.36-1.17-.67-3.09 0-4.06.7-.98 2.77-.55 3.7-1.26.94-.7 1.18-2.9 2.3-3.29C9.37-.3 10.8 1.32 12 1.32S14.63-.3 15.7.06c1.13.38 1.37 2.58 2.3 3.29.94.71 3.02.28 3.7 1.26.68.97-.35 2.9.01 4.06.35 1.13 2.28 2.04 2.28 3.3M12.12 5.61 8.67 12.1a.47.47 0 0 0 .41.7h1.81a.47.47 0 0 1 .47.46v3.9c0 .48.64.65.88.23l3.6-6.43a.47.47 0 0 0-.41-.7h-1.97A.47.47 0 0 1 13 9.8V5.84c0-.49-.65-.65-.88-.22z"/></svg>