<svg role="img" viewBox="0 0 24 24" xmlns="http://www.w3.org/2000/svg"><title>Fueler</title><path d="M12 0c1.25 0 2.17 1.93 3.3 2.28 1.18.37 3.1-.67 4.08.01.99.69.55 2.76 1.27 3.7.7.94 2.91 1.18 3.3 2.3.36 1.08-1.26 2.51-1.26 3.71 0 1.2 1.62 2.63 1.25 3.7-.38 1.13-2.58 1.37-3.3 2.3-.71.95-.27 3.02-1.26 3.7-.98.69-2.9-.35-4.08.02-1.13.35-2.05 2.28-3.3 2.28s-2.17-1.93-3.3-2.28c-1.17-.37-3.1.67-4.08-.01-.98-.69-.55-2.77-1.27-3.7-.7-.94-2.91-1.18-3.3-2.3C-.3 14.63 1.32 13.2 1.32 12S-.3 9.37.06 8.3C.44 7.16 2.64 6.92 3.36 6c.71-.95.27-3.02 1.26-3.7.98-.69 2.9.35 4.08-.02C9.83 1.93 10.75 0 12 0Zm-.2 6.34-3.4 6.17a.43.43 0 0 0 .18.6.47.47 0 0 0 .23.05h1.77a.47.47 0 0 1 .33.13.45.45 0 0 1 .13.32v3.7c0 .46.63.62.86.22l3.53-6.1a.43.43 0 0 0-.17-.61.47.47 0 0 0-.23-.06H13.1a.47.47 0 0 1-.32-.13.44.44 0 0 1-.13-.32V6.55c0-.46-.64-.62-.87-.2Z"/></svg>