<svg role="img" viewBox="0 0 24 24" xmlns="http://www.w3.org/2000/svg"><title>Fueler</title><path d="M24 12c0 1.25-1.93 2.17-2.28 3.3-.37 1.18.67 3.1-.01 4.08-.69.99-2.77.55-3.7 1.27-.94.7-1.18 2.91-2.3 3.3-1.08.36-2.51-1.26-3.71-1.26-1.2 0-2.63 1.62-3.7 1.25-1.13-.38-1.37-2.58-2.3-3.3-.95-.71-3.02-.27-3.7-1.26-.69-.98.35-2.9-.02-4.08C1.93 14.17 0 13.25 0 12s1.93-2.17 2.28-3.3c.37-1.18-.67-3.1.01-4.08.69-.99 2.77-.55 3.7-1.27.94-.7 1.18-2.91 2.3-3.3C9.37-.3 10.8 1.32 12 1.32c1.2 0 2.63-1.62 3.7-1.25 1.13.38 1.37 2.58 2.3 3.3.94.71 3.02.27 3.7 1.26.69.98-.35 2.9.02 4.08C22.07 9.83 24 10.75 24 12M12.12 5.63l-3.45 6.51a.47.47 0 0 0 .41.7h1.81a.47.47 0 0 1 .47.46v3.91c0 .49.64.66.88.23l3.6-6.44a.47.47 0 0 0-.41-.7h-1.97a.47.47 0 0 1-.46-.47V5.86c0-.5-.65-.66-.88-.22z"/></svg>