<svg role="img" viewBox="0 0 24 24" xmlns="http://www.w3.org/2000/svg"><title>Fur Affinity icon</title><path d="M9.85 23.753c-.089-.163-.105-.482-.046-.887a13.2 13.2 0 00.113-1.121c.012-.27.114-.728.227-1.019.291-.75.118-1.341-.515-1.756l-.474-.31.01.641c.009.687-.174 1.036-.545 1.036-.385 0-.512-.42-.349-1.15.127-.568.119-.689-.068-.975l-.214-.326-.285.307c-.157.17-.339.308-.404.308-.284 0-.505-.166-.505-.38 0-.34-.092-.296-.799.372-.35.332-.901.727-1.223.878-.9.424-1.36.96-1.656 1.935-.21.691-.318.87-.596.985-.723.3-1.363-.2-1.182-.92.045-.182.259-.502.474-.712.215-.21.586-.657.824-.994.238-.337.606-.696.818-.797.212-.1.409-.268.437-.37.028-.104.39-.369.804-.59.472-.251.823-.536.94-.761.176-.34.173-.36-.062-.36-.256 0-.342-.294-.126-.428.068-.042.123-.128.123-.192s-.112-.047-.249.038c-.205.127-.269.122-.366-.03-.106-.165-.095-.259.077-.673.076-.183-.735-.4-1.054-.282-.15.056-.44.241-.643.412-.299.251-.475.304-.93.274-.461-.03-.593-.095-.744-.365-.165-.296-.163-.372.026-.768.255-.534.599-.679 1.62-.679.666 0 .83-.045 1.116-.31.3-.277.315-.33.148-.496-.409-.409-2.418-.697-3.362-.481-.315.071-.417.038-.576-.189-.426-.609.23-.98 1.267-.715.519.134.686.132 1.013-.01.216-.093.638-.16.938-.15.858.028 1.243-.532.831-1.208-.132-.217-.114-.283.14-.49.272-.224.278-.255.091-.461-.11-.122-.2-.417-.2-.656 0-.239-.083-.503-.184-.587-.222-.184-.242-.687-.03-.762.084-.03.427-.066.762-.081s.65-.093.702-.173c.176-.278.095-.707-.18-.953-1.002-.901-1.753-1.454-2.069-1.523-.5-.11-1.204-.75-1.204-1.094 0-.152.147-.424.327-.604.435-.435.8-.355 2.035.448.669.434 1.047.777 1.262 1.144.246.42.385.532.698.562.32.03.414.11.522.446.142.438.351.627.697.63.178.002.21-.09.183-.516-.03-.466-.004-.52.251-.535.156-.009.335-.067.398-.13.154-.154-.199-1.048-.713-1.808-.327-.483-.402-.703-.372-1.101.029-.399.088-.505.294-.535.41-.059.98.692 1.158 1.529.138.647.366 1.017.627 1.017.186 0 .1-.682-.149-1.167a5.864 5.864 0 01-.376-.975 3.917 3.917 0 00-.425-.946C8.582.684 8.546.288 8.833.177c.266-.101.654.375.655.803.001.555.57 1.763 1.162 2.465.311.37.618.756.682.857.098.156.15.14.34-.106.191-.246.265-.269.486-.15.231.123.27.102.343-.186.045-.18.039-.883-.013-1.564-.176-2.285-.185-2.21.291-2.256l.416-.04-.081 1.141c-.064.903-.042 1.215.105 1.492.102.193.186.413.186.49 0 .244.663.149.948-.137.152-.151.375-.275.497-.275s.328-.08.459-.18c.13-.099.416-.181.633-.183.318-.004.41.054.47.293.043.171-.005.442-.114.642l-.331.61c-.117.216-.102.32.085.577.126.173.289.316.362.318.074.002.2.148.28.323.148.327.224.335.955.107.225-.07.272-.03.306.265.066.58.4.495 1.127-.285.365-.392.702-.675.748-.63.047.046-.171.564-.484 1.152-.598 1.124-.68 1.655-.264 1.715a.737.737 0 01.36.164c.073.072.334.13.582.13.776 0 .945.605.288 1.035-.267.175-.283.222-.126.378.098.098.258.179.355.179.098 0 .25.087.338.193.13.157.131.241.007.44-.127.204-.12.284.038.46a.812.812 0 01.192.463c0 .138.138.342.306.452.51.335.395.544-.747 1.348-.33.233-.331.235-.066.334.236.087.25.13.112.362-.124.21-.125.275-.003.32.23.082.184.471-.078.662-.127.092-.266.32-.308.504-.066.286-.038.337.182.337.308 0 1.136.787 1.06 1.008-.056.168-.888.186-1.468.032-.504-.134-.438.222.1.54.284.167.424.333.397.47-.07.366-.47.32-.906-.102-.227-.22-.447-.368-.487-.327-.08.079.508 1.148.694 1.263.06.037.11.232.11.432 0 .699-.608.565-.93-.205-.171-.41-.776-1.153-.939-1.153-.056 0-.089.275-.073.611.03.685-.048.841-.314.62-.332-.276-.472-.022-.387.704.099.84.427 1.597 1.05 2.423.602.797.706 1.175.436 1.587-.448.685-1.227.122-1.366-.987-.042-.34-.32-1.118-.625-1.748-.482-.997-.61-1.164-1.049-1.377-.65-.314-.798-.304-.965.062-.134.294-.114.493.23 2.294.052.274.004.36-.266.483-.584.267-.738.039-.74-1.094 0-.793-.045-1.033-.232-1.24-.128-.141-.289-.257-.357-.257s-.226-.091-.35-.203c-.19-.173-.269-.18-.518-.047-.16.086-.355.118-.432.07-.077-.047-.223-.016-.326.07-.452.375-.69 1.255-.894 3.302-.058.578-.18 1.17-.27 1.316-.212.338-.67.344-.848.01zm4.75-5.686c.356-.25.847-1.108.947-1.658.125-.68-.137-1.418-.727-2.054-.404-.434-.546-.699-.609-1.132-.102-.702-.672-1.623-1.16-1.876-.504-.26-1.396-.24-1.955.046-.254.13-.665.46-.913.734-.3.334-.553.499-.76.499-.444 0-1.164.326-1.562.706-.449.43-.75 1.464-.64 2.197.162 1.082 1.093 1.509 2.76 1.265l.993-.145.663.528c1.301 1.037 2.317 1.342 2.962.89zm2.902-3.137c.888-.404 1.061-1.866.355-2.999-.333-.534-.41-.59-.806-.578-1.207.035-2.322 1.84-1.762 2.85.378.682 1.502 1.051 2.213.727zm-8.358-2.903c.305-.341.344-.478.344-1.214 0-.616-.071-.969-.276-1.375-.24-.475-.332-.55-.711-.582-.858-.072-2.193 1.181-2.191 2.056 0 .168.106.537.234.82.273.6.696.786 1.651.721.496-.033.667-.11.949-.426zm7.045-1.093c.798-.568 1.089-1.984.701-3.414-.259-.957-.78-1.627-1.266-1.627-.47 0-1.2.542-1.485 1.102-1.14 2.236-.574 4.394 1.117 4.25.313-.028.73-.166.933-.311zm1.932-.151c.106-.172-.038-.728-.188-.728-.064 0-.151.135-.192.3-.078.31.007.557.192.557.06 0 .144-.058.188-.13zm-5.835-.94c.76-.56 1.5-2.746 1.246-3.686-.386-1.434-1.48-1.505-2.717-.176-1.081 1.16-1.402 2.186-.981 3.136.33.746.873 1.093 1.595 1.02.294-.03.68-.162.857-.293zm-3.66-1.8c.08-.098.128-.305.106-.46l-.04-.282-.273.273c-.154.154-.241.353-.2.459.089.233.218.236.406.01zm7.292-2.524c.106-.17-.038-.727-.188-.727-.065 0-.151.134-.193.299-.078.311.007.558.193.558.06 0 .144-.059.188-.13zm-2.56-.915c.23-.352.136-.54-.174-.346-.233.146-.356.656-.158.656.07 0 .22-.14.331-.31zm6.292 16.934c-.23-.475-.332-1.079-.184-1.079.035 0 .283.139.55.308.379.238.488.384.488.649 0 .362-.193.635-.45.635-.086 0-.268-.231-.404-.513zm-7.592-.277c0-.307.277-.802.448-.802.195 0 .216.41.037.743-.148.276-.485.317-.485.059zM.583 19.52c-.208-.083-.193-.345.03-.53.23-.191.551.032.551.382 0 .224-.241.286-.581.148zm2.963-2.26c-.14-.44.872-1.099 1.106-.72.106.171-.569.98-.817.98-.113 0-.243-.116-.289-.26zm18.087-.156c-.155-.34-.091-.44.284-.44.329 0 .599.296.502.55-.115.297-.633.225-.786-.11zm.196-6.398c-.247-.03-.516-.133-.596-.23-.122-.147-.088-.177.205-.177.193 0 .605-.09.915-.2.606-.218 1.211-.155 1.211.126 0 .402-.717.601-1.735.48zM2.015 8.193c-.159-.348.032-.953.3-.953.257 0 .702.615.66.91-.056.393-.786.425-.96.043zm18.535-.764c-.094-.245.046-.434.321-.434.306 0 .424.213.24.434-.19.228-.473.229-.56 0zm.896.012c-.086-.222.012-.324.311-.324.156 0 .22.071.193.213-.052.268-.413.348-.504.111zm-18.147-.09c-.12-.193.258-.526.493-.436.157.06.171.127.066.323-.144.269-.427.326-.559.112zm16.593-3.217c0-.347.29-.622.55-.523.262.101.229.536-.052.687-.367.196-.498.152-.498-.164zm-5.508-2.345c0-.487.212-.639.602-.43.32.172.33.569.018.736-.45.24-.62.157-.62-.306z"/></svg>