<svg role="img" viewBox="0 0 24 24" xmlns="http://www.w3.org/2000/svg"><title>Furry Network icon</title><path d="m15.91 0c-3.122 0-6.218 0-9.313 0.027 0 0.055-0.054 0.055-0.082 0.082a10.508 10.508 0 0 0-3.665 2.567c-0.841 0.874-1.518 1.91-2.062 3.002-0.19 0.383-0.38 0.792-0.543 1.201-0.027 0.082-0.055 0.193-0.137 0.248v6.225c0.055 0.082 0.055 0.191 0.082 0.3 0.27 0.848 0.625 1.638 1.086 2.403 0.625 0.955 1.386 1.774 2.336 2.43 0.027 0.027 0.053 0.082 0.108 0.054-0.028-0.027-0.028-0.054-0.055-0.082-0.244-0.354-0.46-0.682-0.678-1.037-0.733-1.229-1.195-2.568-1.303-3.986-0.054-0.52-0.028-1.066 0.026-1.584 0.027-0.328 0.082-0.655 0.164-0.983 0.272-1.283 0.813-2.457 1.547-3.549a23.074 23.074 0 0 1 3.638-4.177 13.053 13.053 0 0 1 3.258-2.156c1.413-0.656 2.879-0.902 4.426-0.793 0.706 0.055 1.385 0.164 2.065 0.273 0.053 0 0.135 0.027 0.189 0.027 0.08 0.028 0.135 0.028 0.217 0.028-0.38-0.163-0.761-0.327-1.14-0.436-0.055-0.027-0.109-0.027-0.163-0.082zm-1.656 0.658c-0.436 0.027-0.843 0.053-1.277 0.135-0.733 0.137-1.44 0.356-2.145 0.574a7.475 7.475 0 0 0-1.438 0.627c-0.027 0-0.082 0-0.082 0.055h0.053a28.122 28.122 0 0 1 3.041-0.326c0.515-0.028 1.06-1e-3 1.576 0.08 0.76 0.11 1.466 0.383 2.118 0.765 1.927 1.12 3.42 2.677 4.398 4.698 0.814 1.72 1.249 3.547 1.385 5.431 0.054 0.655 0.054 1.339 0.027 2.022l-0.082 1.146c-0.028 0.328-0.08 0.655-0.135 0.983a6.098 6.098 0 0 1-0.273 1.173c-0.38 0.984-0.922 1.884-1.547 2.729-0.49 0.656-1.058 1.257-1.602 1.857-0.08 0.082-0.135 0.137-0.189 0.22 0.054 0 0.054-0.028 0.082-0.028a16.74 16.74 0 0 0 2.307-1.612c1.44-1.228 2.524-2.675 3.203-4.449l0.164-0.41h0.027v5.87c0 0.02 9e-3 -9.167 0.02-14.995-2e-3 0.02 0 0.042-0.02 0.063 0-0.028-0.027-0.057-0.027-0.084a10.75 10.75 0 0 0-1.52-2.729 9.702 9.702 0 0 0-3.123-2.648 9.763 9.763 0 0 0-4.941-1.147zm9.63 6.545c1e-3 -7e-3 9e-3 -0.014 9e-3 -0.021v-5.434c-8e-3 -0.11-4e-3 3.335-8e-3 5.455zm-13.012-3.332c-0.39-0.04-0.8 0.088-1.18 0.416a2.331 2.331 0 0 0-0.623 0.902c-0.326 0.792-0.38 1.583-0.217 2.403 0.109 0.628 0.406 1.173 0.922 1.582 0.516 0.437 1.113 0.493 1.656 0.193 0.326-0.191 0.57-0.437 0.76-0.766 0.326-0.572 0.463-1.2 0.463-1.855v-2e-3c0-0.3-0.028-0.573-0.082-0.873a2.8 2.8 0 0 0-0.625-1.393c-0.312-0.354-0.684-0.566-1.074-0.607zm5.133 1.283c-0.204 0-0.407 0.035-0.61 0.09-0.461 0.11-0.788 0.409-1.115 0.736-0.297 0.274-0.46 0.628-0.65 0.983a3.04 3.04 0 0 0-0.38 1.53h-1e-3c0 0.381 0.054 0.737 0.216 1.091 0.272 0.655 0.789 1.012 1.44 1.012 0.461 0 0.841-0.166 1.195-0.438 0.841-0.656 1.357-1.502 1.492-2.566 0.055-0.464 0-0.928-0.162-1.393-0.163-0.41-0.408-0.763-0.816-0.928a1.61 1.61 0 0 0-0.61-0.117zm-9.625 2.41c-0.435 0.028-0.842 0.19-1.114 0.6-0.353 0.491-0.462 1.066-0.488 1.639-0.028 0.6 0.109 1.147 0.38 1.666 0.218 0.436 0.515 0.818 0.923 1.092 0.516 0.354 1.169 0.354 1.63 0.027 0.272-0.191 0.462-0.465 0.596-0.766 0.272-0.627 0.327-1.31 0.164-1.992-0.163-0.738-0.488-1.365-1.058-1.857-0.299-0.245-0.626-0.408-1.033-0.408zm11.859 2.64a1.837 1.837 0 0 0-0.891 0.198c-0.869 0.41-1.466 1.066-1.819 1.967-0.19 0.519-0.272 1.037-0.109 1.584 0.136 0.491 0.407 0.847 0.897 0.983 0.19 0.055 0.408 0.082 0.597 0.082 0.326 0 0.543-0.03 0.815-0.166 0.516-0.246 0.922-0.6 1.275-1.036 0.57-0.737 0.815-1.556 0.625-2.457-0.109-0.6-0.461-0.983-1.086-1.12a1.873 1.873 0 0 0-0.304-0.036zm-7.109 1.646v2e-3c-0.081 0-0.216 0-0.351 0.027a3.581 3.581 0 0 0-1.495 0.408c-0.597 0.328-1.112 0.765-1.574 1.256a10.07 10.07 0 0 0-1.385 1.83c-0.217 0.381-0.352 0.792-0.326 1.229 0.027 0.245 0.028 0.464 0.137 0.681 0.298 0.384 0.704 0.657 1.193 0.766 0.462 0.082 0.924 0.027 1.385-0.027 0.515-0.055 1.004-0.11 1.492-0.082 0.789 0.054 1.495 0.3 2.12 0.79 0.244 0.192 0.46 0.411 0.732 0.602 0.516 0.355 1.06 0.518 1.684 0.381 0.515-0.109 0.869-0.437 0.976-0.955 0.11-0.438 0.082-0.847 0.027-1.283a9.464 9.464 0 0 0-0.378-1.502 9.946 9.946 0 0 0-1.006-2.266c-0.3-0.49-0.65-0.928-1.14-1.256-0.623-0.436-1.303-0.574-2.09-0.601zm-11.02 2.787v2.129c0.108 0.136 0.162 0.3 0.216 0.463 0.57 1.556 1.33 2.95 2.416 4.177 1.058 1.175 2.362 2.02 3.828 2.567 0.028 0 0.055 0.027 0.082 0.027h8.008c0.027-0.027 0.027-0.027 0.055-0.027a8.677 8.677 0 0 0 1.982-0.9c0.977-0.601 1.845-1.367 2.605-2.239 0.68-0.765 1.25-1.612 1.657-2.566 0.435-1.01 0.652-2.077 0.707-3.196a0.409 0.409 0 0 0 0-0.246c-0.028 0.028-0.055 0.055-0.055 0.082-0.082 0.246-0.136 0.464-0.217 0.71a8.29 8.29 0 0 1-1.873 3.195 8.081 8.081 0 0 1-2.851 1.91c-0.951 0.382-1.954 0.547-2.987 0.601-0.76 0.028-1.49 0-2.224-0.054a24.337 24.337 0 0 1-3.096-0.436 15.476 15.476 0 0 1-3.748-1.365c-1.303-0.71-2.417-1.584-3.313-2.758-0.489-0.628-0.921-1.31-1.193-2.074z"/></svg>