<svg role="img" xmlns="http://www.w3.org/2000/svg" viewBox="0 0 24 24"><title>Fyle</title><path d="M10.02.22H1.24C.56.22 0 .77 0 1.44v21.11c0 .67.56 1.22 1.24 1.22h21.51c.69 0 1.24-.55 1.24-1.22V1.44c0-.67-.56-1.22-1.24-1.22H11.67v15.3c-.04.76-.29 1.37-.76 1.83-.92.91-2.52 1.03-3.92 1.03-1.89 0-4.43-.24-4.86-2.23l-.06-.5c-.02-.1-.02-.38-.02-1.11V4.11c0-.48.16-.89.51-1.23.35-.34.76-.5 1.25-.5l4.61.02.16.04v1.53H3.96c-.12 0-.18.06-.18.14v3.42h3.49V9.1H3.78v6.44c.04 1.13 1.74 1.35 3.18 1.35.64-.02 1.99-.02 2.6-.62.16-.16.32-.46.46-.91V.22Z"/></svg>