<svg role="img" viewBox="0 0 24 24" xmlns="http://www.w3.org/2000/svg"><title>G2A icon</title><path d="M13.6972 11.2913c.3399 0 .6145-.2805.6056-.6231-.0084-.3312-.2891-.591-.6203-.591l-4.9989.0001c-.0001-.8046.6523-1.4568 1.4568-1.4568l3.6482-.0006c1.1398 0 2.0639.9241 2.0639 2.0639s-.9241 2.0639-2.0639 2.0639l-3.0656.0003a.6304.6304 0 0 0-.6303.6303v.584h4.6994l-.7731 1.4569H8.5683v-2.1853c0-1.0727.8697-1.9424 1.9424-1.9424l3.1865-.0002zM3.4888 13.9586c-1.0709 0-1.939-.8682-1.939-1.9391s.8681-1.9391 1.939-1.9391l3.9362-.003V8.6205l-4.0288.0029C1.5206 8.6234 0 10.1439 0 12.0195c0 1.8757 1.5206 3.3961 3.3962 3.3961l4.0288.0034v-4.1277l-4.3706.0001v1.4569l2.8462-.0001v1.214l-2.4118-.0036zm17.3525-4.5548c-.1147-.2186-.2738-.4213-.4676-.5658-.2217-.1652-.4891-.2572-.7932-.2572-.304 0-.5502.0919-.7719.2572-.1939.1445-.3529.3472-.4676.5658-1.2733 2.4256-3.18 6.0153-3.18 6.0153h1.74l2.6795-5.1335 1.2593 2.4125H18.901l.6835 1.3052h1.9366l.7389 1.4158H24s-1.8855-3.5896-3.1587-6.0153"/></svg>