<svg role="img" viewBox="0 0 24 24" xmlns="http://www.w3.org/2000/svg"><title>G2A icon</title><path d="M20.841 9.4038c-.1146-.2186-.2734-.4214-.4674-.566-.2216-.165-.4891-.257-.7934-.257-.3036 0-.55.092-.7716.257-.1937.1446-.3528.3474-.4675.566-1.2735 2.4256-3.18 6.0153-3.18 6.0153h1.74l2.6791-5.1336 1.2595 2.4125H18.901l.6834 1.3053h1.9367l.7388 1.4158H24s-1.8855-3.5897-3.159-6.0153m.1177 5.1883l-.1803.4955-.1802-.4955H20.37l-.3065.8269h.1945l.226-.6348.2014.5533h.186l.2014-.5533.2258.6348h.1945l-.3062-.8269zm-2.9767.4134c0 .228.1855.4134.4132.4134h.4726v-.1728h-.4641a.241.241 0 0 1-.2406-.2406c0-.1325.108-.2403.2406-.2403h.4641v-.1731h-.4726a.4138.4138 0 0 0-.4132.4134m1.6399.2406h-.2179a.241.241 0 0 1-.2403-.2406.2408.2408 0 0 1 .2403-.2403h.2179a.2408.2408 0 0 1 .2405.2403.241.241 0 0 1-.2405.2406m.0082-.654h-.2343a.4139.4139 0 0 0-.4134.4134c0 .228.1854.4134.4134.4134h.2343a.4139.4139 0 0 0 .4134-.4134.4139.4139 0 0 0-.4134-.4134m-16.1414-.6336c-1.0707 0-1.939-.8682-1.939-1.939 0-1.071.8683-1.9392 1.939-1.9392l3.9364-.003V8.6206l-4.0289.0027C1.5206 8.6233 0 10.1437 0 12.0196c0 1.8756 1.5206 3.396 3.3962 3.396l4.0289.0032v-4.1276H3.0544v1.457h2.8462v1.2139zm7.0218-2.6672c-1.0726 0-1.9422.8697-1.9422 1.9423v2.1856h5.4506l.7731-1.457h-4.6993v-.5843c0-.3479.282-.6299.6301-.6302h3.0657c1.1399 0 2.064-.9242 2.064-2.064 0-1.1399-.9241-2.0638-2.064-2.0638l-3.648.0005c-.8047 0-1.457.6524-1.457 1.457l4.9988-.0003c.3314 0 .612.2598.6203.5912.0088.3424-.2656.623-.6054.623Z"/></svg>