<svg role="img" viewBox="0 0 24 24" xmlns="http://www.w3.org/2000/svg"><title>Gauges icon</title><path d="M12 0A12 12 0 000 12a12 12 0 0012 12 12 12 0 0012-12A12 12 0 0012 0zm-.26 4.25c.3 0 .67.03 1.1.1.42.04.69.08.8.11h3.85V6l-1.72.45c.31.5.47 1.05.47 1.67 0 1.19-.41 2.12-1.24 2.79-.82.66-1.97.99-3.43.99l-.54-.03-.44-.05c-.31.24-.47.5-.47.8 0 .43.55.65 1.66.65h1.87c1.2 0 2.13.26 2.76.78.63.53.95 1.3.95 2.3 0 1.3-.54 2.31-1.61 3.03-1.07.71-2.61 1.07-4.62 1.07-1.54 0-2.71-.27-3.53-.81a2.56 2.56 0 01-1.2-2.27c0-.67.2-1.23.61-1.68a3.51 3.51 0 011.82-.96c-.3-.13-.57-.35-.8-.64-.23-.3-.35-.63-.35-.97 0-.42.12-.77.36-1.05.25-.29.6-.56 1.06-.84a2.99 2.99 0 01-1.38-1.2 3.74 3.74 0 01-.5-1.97c0-1.22.39-2.15 1.17-2.81.78-.67 1.9-1 3.35-1zm0 1.84c-1.1 0-1.66.67-1.66 2 0 .6.14 1.08.4 1.44.28.35.7.52 1.26.52s.98-.17 1.24-.52c.26-.36.4-.83.4-1.43 0-1.34-.55-2.01-1.64-2.01zm-.81 9.62c-.55 0-1.01.12-1.39.38-.37.27-.55.61-.55 1.04 0 .42.2.75.6.99.4.24.95.35 1.67.35 1.07 0 1.92-.14 2.53-.44.6-.3.91-.7.91-1.22 0-.42-.18-.7-.54-.87a4.4 4.4 0 00-1.67-.23h-1.56Z"/></svg>