<svg role="img" viewBox="0 0 24 24" xmlns="http://www.w3.org/2000/svg"><title>Gcore</title><path d="M22.2852 12c0 6.627-5.3608 12-11.973 12-2.6711 0-5.1385-.877-7.1298-2.3583.3409.1916.6922.3645 1.0538.5208a10.94 10.94 0 0 0 4.3382.8979c2.7791 0 5.4545-1.0542 7.4915-2.9458a11.06 11.06 0 0 0 3.5004-7.2625 8.3 8.3 0 0 0 .05-.7875c0-.3355-.027-.723-.0625-1.0771-.002-.0333-.004-.0688-.0062-.102 0-.0397-.0022-.0793-.0063-.1168l-.0103.0104c-.0499-.4604-.1018-.8145-.1018-.8145h-8.6868l-.6755 1.2666-1.5507 2.9376h6.5644a6.91 6.91 0 0 1-1.0747 2.0187 6.82 6.82 0 0 1-2.403 1.9813 6.796 6.796 0 0 1-3.0306.7082c-.8044 0-1.6026-.1458-2.3572-.425a6.845 6.845 0 0 1-3.2635-2.5145A6.893 6.893 0 0 1 1.7148 12a6.88 6.88 0 0 1 .5218-2.6312 6.92 6.92 0 0 1 1.4862-2.2313 6.82 6.82 0 0 1 2.2263-1.4896c.8335-.3437 1.7252-.5229 2.6253-.5229a6.82 6.82 0 0 1 4.043 1.3208l.9-1.6896L14.59 2.725A10.985 10.985 0 0 0 8.5723.9375c-1.8895 0-3.729.4875-5.3567 1.3917C5.205.8667 7.6577 0 10.3122 0c6.6122 0 11.973 5.373 11.973 12"/></svg>