<svg role="img" viewBox="0 0 24 24" xmlns="http://www.w3.org/2000/svg"><title>GDAL</title><path d="m12.66 16-1.79 6.48h1.2l.35-1.44h1.74l.35 1.44h1.2L14 16Zm0 3.91.53-2.19a3.18 3.18 0 0 0 .09-.57 3.64 3.64 0 0 0 .08.58l.53 2.18ZM7.88 17.36h-.4v3.48c.1.12.21.23.32.34h.09a1.17 1.17 0 0 0 1-.51 2.48 2.48 0 0 0 .38-1.47 2.22 2.22 0 0 0-.38-1.37 1.2 1.2 0 0 0-1.01-.47ZM14.32 13.63ZM14.09 13.86ZM5.72 6.44a.33.33 0 0 0 .51.27l.7-.43.81.59-1.22 7.5a.14.14 0 0 0 .08.15h.05a.14.14 0 0 0 .11-.06 13.86 13.86 0 0 1 8.12-4.9.14.14 0 0 0 .12-.13.14.14 0 0 0-.09-.14L8 6.74l-.16-1 .69-.42a.33.33 0 0 0 0-.58l-1-.52a.7.7 0 0 0-.1-.28l-.31-.51.29-.18.29.85L11 1.88 10.35 0 7 2.23l.3.77-.3.25-.42-.68a.71.71 0 0 0-1-.23l-.73.45a.71.71 0 0 0-.23 1l.38.66-.3.19-.29-.86L1.1 6l.64 1.88 3.33-2.23-.27-.8.34-.21.31.51a.69.69 0 0 0 .24.23ZM8 7l6.39 2.34a14.42 14.42 0 0 0-7.5 4.5ZM15 9.11c0-.16 0-.14-.15-.25a1.52 1.52 0 0 0-.46-.29c-.36-.07-.35.14-.39.34l.88.32a.67.67 0 0 0 .12-.12ZM9.21 11.71a.58.58 0 0 0-.18-.3l-.11-.16a1.38 1.38 0 0 0-.28-.38c-.08-.06-.27-.21-.45-.34a7.8 7.8 0 0 1 3-2.25l-1.3-.48a8.79 8.79 0 0 0-2.26 1.86L7 13.71a14.08 14.08 0 0 1 2.21-2ZM13.66 9.18a.38.38 0 0 0-.22 0s-.05.19-.1.25-.23.12-.35.19l-.23.17a14.49 14.49 0 0 1 1.44-.45ZM11.33 8.79c-.22 0-.45-.1-.63.09.1.06.39.3.35.05a3.6 3.6 0 0 1 .61 0c.08 0 .36.1.43.06s.06-.17.1-.22-.12 0-.18 0c.13-.17.27 0 .44 0-.19.11-.08.38.11.16a.17.17 0 0 0 0-.16l-1.22-.45a.48.48 0 0 0 0 .05c.1.15.2.14.4.18.04.26-.23.26-.41.24ZM3.2 20h1v1.26a1.16 1.16 0 0 1-.63.15 1.22 1.22 0 0 1-1-.55 2.63 2.63 0 0 1-.39-1.54 2.6 2.6 0 0 1 .43-1.57 1.33 1.33 0 0 1 1.12-.59 2.22 2.22 0 0 1 1.39.43v-1.38a3.16 3.16 0 0 0-1.38-.28 2.39 2.39 0 0 0-2 1A4 4 0 0 0 1 19.37a3.75 3.75 0 0 0 .68 2.38 2.25 2.25 0 0 0 1.87.86 2.87 2.87 0 0 0 1.79-.55v-3.24H3.2ZM9.88 21.6a3.79 3.79 0 0 0 .71-2.42Q10.59 16 8 16H6.24v6.48H8a2.3 2.3 0 0 0 1.88-.88ZM9 20.75a1.31 1.31 0 0 1-1.13.57h-.53v-4.1h.54a1.35 1.35 0 0 1 1.12.53 2.35 2.35 0 0 1 .41 1.46A2.6 2.6 0 0 1 9 20.75ZM17.44 16.03h-1.11v6.48h2.92v-1.19h-1.81v-5.29zM14.26 6.66a8.83 8.83 0 0 0-3.9.91l2.18.8.18.07h.13c.05-.07.16 0 .28 0h-.19c.15-.23.05-.28.26-.36s.64 0 .7-.16a4.13 4.13 0 0 0-1 .23c-.13.06-.28.27-.41.13s.09-.35.21-.42a7.81 7.81 0 0 1 2.68-.1c-.12.06 0 .1-.12.17a3.28 3.28 0 0 1-.66.3c.25 0 .86.23 1-.12h-.24a2.15 2.15 0 0 1 .5-.24A7.8 7.8 0 0 1 19.9 10a1.24 1.24 0 0 0-.76.18 1 1 0 0 1-.29.19h-.34c-.4.13-.34 1-.86.85-.25-.06-.42-.35-.55-.54s-.31-.3-.17-.51h-.19c.08-.18.37-.17.41-.26s-.32-.26-.45-.29c.15-.16.23.05.37 0s-.08-.22-.16-.24-.53.14-.24-.12l-1.09-.56c-.06.25.48.39.65.48 0 .1-.19.25-.32.21s-.07-.23-.25-.21c-.13.29.27.21.3.38s-.15.12-.22.11-.15-.14-.16 0 .22.08.23.2a.93.93 0 0 1-.62-.22L15 9.52a.18.18 0 0 1-.12.1 14 14 0 0 0-2.34.7c.14.23.61.33.83.42s.52.14.59.24-.08.26.12.35a.25.25 0 0 0 .25 0c.09-.1 0-.12-.06-.24s0-.13.14-.22.18-.18.1-.45-.18-.47-.06-.56.52.07.65.08.23.22.31.3.15.17.24.16.09-.15.17-.21.29.06.39.27a.94.94 0 0 0 .32.41c.07.06.39.28.36.41s-.38.23-.48.26c-.35.11-1-.18-1.08.37.14-.05.53-.36.64-.22s0 .17 0 .23.22.13.39.1c.22-.11.2-.09.3-.28a1.32 1.32 0 0 1 .13-.25c.16-.15.19 0 .29.07s.28.39.19.37a1.06 1.06 0 0 0-.81.11 2.21 2.21 0 0 1-.44.27s-.33 0-.3 0 .23-.12.3-.2c-.19-.08-.35.09-.5.19s-.2.21-.33.34-.17.06-.23.13-.06.17-.12.24-.13 0-.17.09 0 .17 0 .24-.26.21-.35.3a1.31 1.31 0 0 0-.23.23 2.46 2.46 0 0 1 .1.57c-.09.26-.26-.14-.33-.25-.24-.36-.73-.12-1.06-.09a.73.73 0 0 0-.58 1 .52.52 0 0 0 .58.24c.22 0 .28-.34.48-.35.37 0 0 .36 0 .5s0 .14.18.17.23 0 .32 0 .05.22.12.16h.23v.1l.11.4a.69.69 0 0 1 .23 0c.32.08.17 0 .45-.19s.22 0 .35 0 .15-.13.29-.09.17.12.31.14.12 0 .18 0a.74.74 0 0 1 .16.06v-.43h1.38v1.17a.26.26 0 0 1 0 .15v.28h.27s-.21.15-.21.09.13.1.16.13c.09-.3.25-.11.43 0a3.7 3.7 0 0 0 .52.11 1.42 1.42 0 0 1 .56.24c.13.14 0 .36-.05.5s-.31.25-.39.46a3.36 3.36 0 0 0 0 .53c0 .25-.08.16-.25.32s0 .11-.19.19-.36.06-.49.26a1.7 1.7 0 0 0-.11.28 1.12 1.12 0 0 1-.22.28v.41h1.82v1.17a8.61 8.61 0 0 0 3.66-7 8.73 8.73 0 0 0-8.84-8.72ZM16.19 21.84c0 .2-.15.16-.23.26a1.82 1.82 0 0 0-.11.32l.06.21h-.19v.06s.05.09.1.14a7.85 7.85 0 0 1-.88.12c.06-.07.07-.13-.11-.14a.69.69 0 0 1 .12-.19h-.5l-.35-1.44h-1.57l-.35 1.44H10.7l1.86-6.75H13c-.13 0-.22-.2-.33-.25s-.26 0-.43 0a2.56 2.56 0 0 1-.52-.24.94.94 0 0 1-.57-.55 2 2 0 0 0-.4-.56c-.17-.21-.22-.38-.48-.43 0 0 .06.22.07.23a5.21 5.21 0 0 0 .34.48c.17.23.09.28-.07.05s-.41-.51-.58-.79c-.06-.1-.05-.17-.15-.27s-.23-.14-.33-.23a1.3 1.3 0 0 1-.39-1.13 12.11 12.11 0 0 0-2.34 2.27.19.19 0 0 1-.16.08h-.07a.19.19 0 0 1-.12-.21l.66-4.08a8.51 8.51 0 0 0-1 8.25v-2.6H8c1.83 0 2.75 1.11 2.75 3.3a4 4 0 0 1-.74 2.5 2.48 2.48 0 0 1-.83.68 8.84 8.84 0 0 0 9.79.27h-2.78ZM15.33 19.45c-.05-.14-.24-.26-.39-.36l.34 1.27v-.2a1.81 1.81 0 0 0 .05-.71ZM14.34 16.5a.2.2 0 0 0-.09 0l.15.55a.55.55 0 0 0 .09-.16.31.31 0 0 0-.15-.39ZM12.83 19.81h.9l-.44-1.86-.46 1.86zM13.8 9.19Z"/></svg>