<svg role="img" viewBox="0 0 24 24" xmlns="http://www.w3.org/2000/svg"><title>GDAL</title><path d="m12.6668 16.0302-1.7855 6.4755h1.1997l.3459-1.4397h1.7426l.35 1.4397h1.1996l-1.7446-6.4755Zm-.007 3.9141.534-2.1945a3.1833 3.1833 0 0 0 .085-.5649h.027a3.6412 3.6412 0 0 0 .083.582l.5268 2.1774Zm1.4337-6.0916q-.005-.021-.008-.043Zm-8.367-7.4182a.332.332 0 0 0 .5069.273l.6998-.435.8138.5889-1.2177 7.4982a.138.138 0 0 0 .083.15.142.142 0 0 0 .05.01.136.136 0 0 0 .113-.06 13.8627 13.8627 0 0 1 8.118-4.8988.136.136 0 0 0 .02-.261L7.956 6.7404l-.162-.9998.6858-.4249a.332.332 0 0 0-.016-.5748l-.9627-.5179a.6998.6998 0 0 0-.1-.278l-.313-.5098.288-.178.2899.8488 3.3272-2.2265L10.3534 0 7.0262 2.2265l.2769.8138-.332.2-.4198-.6829a.7128.7128 0 0 0-.9798-.232l-.7348.453a.7128.7128 0 0 0-.23.9788l.42.6828-.3.185-.294-.8618-3.3301 2.2354.6398 1.8775 3.3292-2.2284-.2719-.7998.344-.212.3128.5079a.6918.6918 0 0 0 .238.226Zm2.2745.6098 6.3914 2.3445a14.4166 14.4166 0 0 0-7.4982 4.499ZM7.887 17.356h-.4v3.4812c.1.12.21.23.316.346h.091a1.1677 1.1677 0 0 0 1.0147-.511 2.4794 2.4794 0 0 0 .382-1.4676 2.2195 2.2195 0 0 0-.376-1.3697 1.1997 1.1997 0 0 0-1.0277-.4789Zm7.1603-8.25c.048-.156 0-.144-.154-.246a1.5196 1.5196 0 0 0-.4599-.286c-.3629-.072-.3499.144-.3879.34l.8848.325a.6729.6729 0 0 0 .117-.133Zm-1.3867.076a.38.38 0 0 0-.222.032c-.047.038-.05.19-.1.2449-.094.1-.2339.119-.3458.19a2.3554 2.3554 0 0 0-.235.174 14.5116 14.5116 0 0 1 1.4417-.4449Zm-4.45 2.5284a.5799.5799 0 0 0-.177-.3l-.1-.164a1.3847 1.3847 0 0 0-.2779-.3799q-.22-.179-.4529-.3379a7.8032 7.8032 0 0 1 3.0084-2.2525l-1.2997-.4758A8.79 8.79 0 0 0 7.631 9.6547l-.6578 4.051a14.0787 14.0787 0 0 1 2.2384-1.9995Zm-6.0085 8.271h.9797v1.2647a1.1577 1.1577 0 0 1-.6298.15 1.2217 1.2217 0 0 1-1.0498-.5479 2.6334 2.6334 0 0 1-.3899-1.5446 2.5994 2.5994 0 0 1 .434-1.5736A1.3297 1.3297 0 0 1 3.666 17.14a2.2245 2.2245 0 0 1 1.3907.4329v-1.3677a3.1593 3.1593 0 0 0-1.3757-.284 2.3854 2.3854 0 0 0-1.9845.9598 3.947 3.947 0 0 0-.7468 2.4894 3.7541 3.7541 0 0 0 .6838 2.3845 2.2495 2.2495 0 0 0 1.8665.8638 2.8673 2.8673 0 0 0 1.7846-.546v-3.2571H3.202Zm14.2396-3.9511H16.342v6.4755h2.9213V21.322h-1.8226Zm-6.1055-7.2483c-.217-.03-.446-.1-.6339.088.1.062.39.3.352.05a3.5991 3.5991 0 0 1 .6128.009c.08.01.355.1.4299.059.03-.017.063-.17.1-.215a1.5486 1.5486 0 0 0-.178-.023c.135-.17.27-.037.4409.04-.189.115-.077.386.108.165a.172.172 0 0 0 .032-.157L11.3842 8.35a.4858.4858 0 0 0 .022.052c.1.15.2.137.3999.178-.02.228-.29.23-.473.206ZM9.8795 21.604a3.7911 3.7911 0 0 0 .7128-2.4164q0-3.1593-2.6143-3.1563H6.2424v6.4755H7.979a2.2995 2.2995 0 0 0 1.9005-.9028Zm-.8578-.8498a1.3097 1.3097 0 0 1-1.1277.5699h-.5469v-4.106h.5399a1.3477 1.3477 0 0 1 1.1377.5299 2.3455 2.3455 0 0 1 .406 1.4576 2.6044 2.6044 0 0 1-.41 1.5497Zm5.2458-14.0967a8.835 8.835 0 0 0-3.8991.9098l2.1805.7998.184.068.127.047c.055-.07.163-.032.2779-.022v-.043a1.8136 1.8136 0 0 0-.192-.028c.146-.23.053-.282.26-.357.167-.06.6388 0 .6998-.158a4.131 4.131 0 0 0-1.0288.227c-.129.064-.282.267-.4099.135s.094-.3499.21-.4169h-.028a7.8122 7.8122 0 0 1 2.6794-.1c-.12.062-.033.1-.12.168a3.2792 3.2792 0 0 1-.6599.3c.251 0 .8618.234.9798-.116l-.245-.037a2.1495 2.1495 0 0 1 .5-.24 7.7982 7.7982 0 0 1 4.115 2.2485h-.023a1.2427 1.2427 0 0 0-.7569.175.9658.9658 0 0 1-.2879.19c-.112.03-.232 0-.343.04-.3998.134-.3358.9788-.8627.8498-.247-.06-.42-.346-.5449-.5349-.11-.166-.31-.3-.175-.5099-.06.016-.127 0-.187.01.084-.183.367-.167.414-.2599.117-.234-.323-.259-.447-.29.15-.159.226.052.374.016s-.075-.2199-.16-.2399c-.03-.008-.532.136-.242-.12L15.587 8.698c-.06.25.477.3929.6519.4799-.027.1-.19.255-.315.21s-.07-.233-.2479-.213c-.126.29.268.2.305.3839.042.2-.15.117-.223.113-.017 0-.154-.14-.16-.035-.01.126.217.077.233.2a.9268.9268 0 0 1-.616-.225.9778.9778 0 0 0-.187-.1.183.183 0 0 1-.118.1 14.0337 14.0337 0 0 0-2.3394.6999c.14.225.6129.3279.8298.4239.13.059.516.14.5869.238.1.132-.083.2558.118.3488a.25.25 0 0 0 .252-.026c.09-.1-.036-.122-.058-.238-.042-.2219.027-.133.14-.2159.2299-.168.18-.178.1-.4469-.039-.124-.184-.4718-.056-.5638.167-.12.5218.065.6498.08.15.018.233.222.314.305.054.055.15.172.2459.16.15-.02.087-.15.173-.21.233-.158.2939.058.3859.2738a.9378.9378 0 0 0 .3249.41c.072.06.3879.2759.358.4098-.02.09-.38.226-.477.256-.3529.11-1.0147-.18-1.0857.3699.137-.05.5269-.363.6438-.214.053.067-.043.165-.02.232.066.2.223.13.388.1a.28.28 0 0 1-.035.019c.2249-.114.2-.09.3049-.275a1.3196 1.3196 0 0 1 .13-.2499c.164-.148.19-.046.2899.068.027.03.277.386.188.368a1.0597 1.0597 0 0 0-.8118.107 2.2095 2.2095 0 0 1-.437.2729c-.04.015-.3338.042-.2998-.007.05-.073.227-.12.2999-.2-.192-.076-.352.1-.4999.2-.16.074-.2.213-.334.3349-.06.053-.172.062-.2299.132s-.063.174-.117.24c-.038.044-.134.017-.173.085-.05.088.047.17.025.2349-.039.116-.2629.215-.3489.3a1.3097 1.3097 0 0 0-.229.2249 2.4604 2.4604 0 0 1 .1.5738c-.09.264-.2639-.143-.3349-.248-.2429-.3608-.7278-.12-1.0597-.09a.7268.7268 0 0 0-.5789 1.0228.5149.5149 0 0 0 .5799.244c.215-.044.28-.34.4839-.347.3729-.01.008.36-.024.5s.047.138.178.17c.1.022.235-.042.32.013.052.034.05.2249.122.165-.013.01-.017.028-.027.04h.2279l.028.1.108.3998a.6859.6859 0 0 1 .227 0c.3218.08.168-.025.4518-.193.191-.114.222.02.353.02.09 0 .146-.125.2938-.088.122.03.17.123.315.144.06.008.12-.022.178-.016a.7378.7378 0 0 1 .156.056v-.4299h1.3747v1.1715a.26.26 0 0 1 .043.15.42.42 0 0 1-.043.075v.2c.094-.01.218-.034.2679-.037-.025.03-.2.154-.2.087 0 .034.127.1.158.126.094-.3.248-.108.4349-.033a3.699 3.699 0 0 0 .5199.106 1.4196 1.4196 0 0 1 .5628.244c.127.138.04.3638-.055.4998-.124.18-.3099.25-.3859.465a3.3602 3.3602 0 0 0-.05.5248c-.047.253-.085.164-.2499.318-.138.13 0 .108-.19.19s-.359.06-.4899.2649a.345.345 0 0 0 .013-.04 1.6997 1.6997 0 0 0-.11.2849 1.1217 1.1217 0 0 1-.22.28v.4158h1.8136v1.1697a8.615 8.615 0 0 0 3.6592-7.0283 8.728 8.728 0 0 0-8.7875-8.668h-.0004ZM16.199 21.842c.034.2-.148.157-.233.2629a1.8296 1.8296 0 0 0-.108.315l-.008.012.058.2149h-.193a.3858.3858 0 0 0-.037.064c0 .037.053.09.1.142a7.861 7.861 0 0 1-.8787.12c.056-.07.07-.13-.108-.14a.6928.6928 0 0 1 .12-.186h-.5l-.3498-1.4397H12.534l-.3449 1.4397h-1.4887l1.8626-6.7504h.4519c-.133-.043-.217-.2-.326-.255-.166-.08-.2599.034-.4349.01a2.5564 2.5564 0 0 1-.5148-.243.9368.9368 0 0 1-.568-.5458 1.9995 1.9995 0 0 0-.3998-.5579c-.169-.206-.22-.3799-.48-.4349-.03-.006.062.215.071.233a5.1916 5.1916 0 0 0 .345.4819c.166.2329.094.2769-.074.052-.192-.257-.4139-.513-.5798-.7859-.064-.1-.052-.17-.155-.2669s-.232-.14-.333-.23a1.2997 1.2997 0 0 1-.3899-1.1307 12.1102 12.1102 0 0 0-2.3424 2.2725.19.19 0 0 1-.158.082.2.2 0 0 1-.07-.013.194.194 0 0 1-.12-.21l.6648-4.084a8.516 8.516 0 0 0-1.0397 8.248v-2.6223H7.98c1.8265 0 2.7533 1.1097 2.7533 3.2992a3.948 3.948 0 0 1-.7438 2.4994 2.4804 2.4804 0 0 1-.8268.6828 8.842 8.842 0 0 0 9.7977.274H16.199Zm-3.3622-2.0366h.8998l-.4499-1.8555Zm2.4934-.3599c-.052-.14-.237-.256-.3859-.36l.343 1.2698c.008-.066.011-.14.023-.2a1.8156 1.8156 0 0 0 .02-.7068Zm-.9868-2.9443a.2.2 0 0 0-.094 0l.15.5519a.5479.5479 0 0 0 .093-.156.3.3 0 0 0-.149-.3959Z"/></svg>