<svg aria-labelledby="simpleicons-geeklist-icon" role="img" viewBox="0 0 24 24" xmlns="http://www.w3.org/2000/svg"><title id="simpleicons-geeklist-icon">Geeklist icon</title><path d="M12.498 12.563c-.174-.115-.34-.242-.498-.378-.156.138-.322.264-.498.376.177.074.345.17.498.288.154-.118.32-.213.498-.285zM10.803 9.467c0-.104.006-.196.012-.3v-.024c-.046-.37-.215-.716-.48-.98-.33-.33-.765-.498-1.295-.498-.505 0-.917.173-1.235.517-.317.346-.488.8-.476 1.27 0 .614.146 1.08.443 1.424.295.346.72.526 1.268.526s.986-.18 1.31-.525c.26-.286.417-.646.468-1.08-.01-.106-.015-.226-.015-.33z"/><path d="M12 0C5.373 0 0 5.373 0 12s5.373 12 12 12 12-5.373 12-12S18.627 0 12 0zm6.27 18.917c-.898.57-1.978.854-3.253.854-1.05 0-2.04-.208-2.97-.644-.93.44-1.944.666-2.97.66-1.26 0-2.356-.285-3.256-.855-.9-.57-1.35-1.35-1.35-2.353 0-1.8 1.126-2.716 3.376-2.716.33 0 .705.047 1.17.15.45.09.765.15.96.15.42 0 .645-.12.645-.36 0-.134-.134-.283-.434-.404-.285-.12-.45-.194-.495-.194l-.39.06c-.27.03-.494.045-.66.045-1.05 0-1.92-.33-2.61-1.005-.69-.675-1.034-1.575-1.034-2.715 0-.78.195-1.47.57-2.055l-1.094-.795 1.59-1.455.915 1.05c.6-.33 1.35-.495 2.235-.495 1.125 0 2.07.345 2.85 1.02L12 6.783c.77-.675 1.72-1.016 2.84-1.016.89 0 1.633.165 2.23.5l.906-1.055 1.6 1.455-1.096.803c.39.58.586 1.266.586 2.055 0 1.13-.344 2.03-1.02 2.708-.69.674-1.545 1.012-2.595 1.012-.164 0-.39-.015-.66-.045l-.39-.06c-.044 0-.194.067-.494.2-.285.132-.42.27-.42.41 0 .246.21.37.645.37.196 0 .512-.046.96-.14.45-.09.84-.134 1.156-.134 2.25 0 3.375.914 3.375 2.715.002 1.006-.448 1.788-1.35 2.357z"/><path d="M13.65 10.863c.324.354.76.53 1.31.53s.972-.172 1.267-.516c.297-.346.445-.81.445-1.426 0-.494-.158-.914-.477-1.26-.318-.344-.73-.51-1.236-.51-.53 0-.96.166-1.295.51-.267.27-.426.6-.48.976.014.215.013.43 0 .645v-.027c.05.435.206.795.465 1.08zM15.876 15.688c-.26 0-.646.03-1.155.09-.514.06-.9.09-1.157.09-.656 0-1.177-.09-1.563-.284v.054c-.386.195-.906.29-1.56.29-.26 0-.645-.028-1.158-.103-.513-.06-.9-.09-1.158-.09-.956 0-1.434.284-1.434.87 0 .345.216.614.648.81.432.194.98.285 1.647.285.99 0 2.224-.495 3.03-1.23l.015-.015c.807.734 1.992 1.245 2.986 1.245.666 0 1.215-.105 1.646-.3.432-.21.648-.48.648-.825 0-.587-.48-.887-1.434-.887z"/></svg>