<svg role="img" viewBox="0 0 24 24" xmlns="http://www.w3.org/2000/svg"><title>GeeksforGeeks icon</title><path d="M21.4498 14.3153a2.655 2.655 0 0 1-.5644.7444 3.691 3.691 0 0 1-1.1043.6955 4.5096 4.5096 0 0 1-3.1164-.0163 3.9153 3.9153 0 0 1-1.268-.8099 3.7908 3.7908 0 0 1-.867-1.2677 3.5714 3.5714 0 0 1-.1301-.3531h7.4184a4.2344 4.2344 0 0 1-.3678 1.0075l-.0004-.0004zm-11.9891-.6541a3.7931 3.7931 0 0 1-.8673 1.2677 3.908 3.908 0 0 1-1.2677.8099 4.5096 4.5096 0 0 1-3.1164.0163 3.6898 3.6898 0 0 1-1.1043-.6955 2.6518 2.6518 0 0 1-.5644-.7444 4.221 4.221 0 0 1-.3678-1.0059h7.4181a3.6008 3.6008 0 0 1-.1295.3521l-.0007-.0002zm14.5003-1.7584a3.849 3.849 0 0 0-.0818-.4744l-9.6343-.0085a3.932 3.932 0 0 1 .2847-1.0796 3.868 3.868 0 0 1 .8588-1.268 3.811 3.811 0 0 1 1.2599-.8093c1.5422-.6646 3.3471-.2795 4.4838.9567l1.5214-1.4888a5.6993 5.6993 0 0 0-1.9224-1.358 6.2825 6.2825 0 0 0-2.5436-.4904 6.3497 6.3497 0 0 0-2.4053.4575 6.0072 6.0072 0 0 0-1.9632 1.2762 6.1418 6.1418 0 0 0-1.3251 1.939 5.862 5.862 0 0 0-.4663 1.8647h-.0626a5.857 5.857 0 0 0-.4669-1.8647 6.128 6.128 0 0 0-1.3251-1.939A5.9982 5.9982 0 0 0 8.2099 6.34a6.698 6.698 0 0 0-4.9488.0313 5.7069 5.7069 0 0 0-1.9224 1.358l1.5217 1.4888c1.1658-1.186 2.9355-1.5635 4.4838-.9567a3.8025 3.8025 0 0 1 1.2595.8093c.3681.3611.6602.7923.8591 1.268.1458.3445.2417.708.2847 1.0796l-9.6343.0085a3.8302 3.8302 0 0 0-.0818.4744A4.7156 4.7156 0 0 0 0 12.4571a6.4923 6.4923 0 0 0 .3449 2.1268 4.9252 4.9252 0 0 0 1.0796 1.7829 5.4277 5.4277 0 0 0 1.8813 1.2928 6.4543 6.4543 0 0 0 2.5031.4578 6.3422 6.3422 0 0 0 2.4046-.4578 5.986 5.986 0 0 0 1.9632-1.2762 6.1164 6.1164 0 0 0 1.3251-1.939c.16-.3656.2812-.747.3615-1.1379h.2731c.0803.3908.2013.7722.3609 1.1379a6.128 6.128 0 0 0 1.3251 1.939 5.9918 5.9918 0 0 0 1.9632 1.2762 6.3454 6.3454 0 0 0 2.4053.4578 6.4495 6.4495 0 0 0 2.5025-.4578 5.4196 5.4196 0 0 0 1.8813-1.2928 4.9286 4.9286 0 0 0 1.0802-1.7829 6.498 6.498 0 0 0 .3449-2.1268 4.7589 4.7589 0 0 0-.0388-.5543z"/></svg>