<svg viewBox="0 0 24 24" xmlns="http://www.w3.org/2000/svg" fill-rule="evenodd" clip-rule="evenodd" stroke-linejoin="round" stroke-miterlimit="1.414"><path d="M24 12c0 6.627-5.373 12-12 12S0 18.627 0 12 5.373 0 12 0s12 5.373 12 12zm-12 3.637c-.386.195-.906.291-1.56.291-.261 0-.645-.03-1.158-.105-.513-.06-.9-.09-1.158-.09-.956 0-1.434.285-1.434.87 0 .345.216.615.648.81.432.195.981.285 1.647.285.99 0 2.224-.495 3.03-1.23l.015-.015c.807.735 1.992 1.245 2.985 1.245.666 0 1.215-.105 1.647-.3.432-.21.648-.48.648-.825 0-.585-.48-.885-1.434-.885-.26 0-.645.03-1.155.09-.515.06-.9.09-1.158.09-.657 0-1.177-.09-1.563-.285zm0-8.854c.772-.675 1.719-1.016 2.84-1.016.888 0 1.632.165 2.23.5l.906-1.055 1.6 1.455-1.095.803c.39.58.585 1.266.585 2.055 0 1.13-.344 2.031-1.02 2.708-.69.674-1.544 1.012-2.594 1.012-.165 0-.39-.015-.66-.045l-.39-.06c-.045 0-.195.068-.495.2-.285.132-.42.27-.42.41 0 .247.21.37.645.37.195 0 .51-.045.96-.138.45-.09.84-.135 1.155-.135 2.25 0 3.375.915 3.375 2.715 0 1.005-.45 1.785-1.35 2.355-.9.57-1.98.855-3.255.855-1.05 0-2.04-.21-2.97-.645a6.834 6.834 0 0 1-2.97.66c-1.26 0-2.355-.285-3.255-.855-.9-.57-1.35-1.35-1.35-2.355 0-1.8 1.125-2.715 3.375-2.715.33 0 .705.045 1.17.15.45.09.765.15.96.15.42 0 .645-.12.645-.36 0-.135-.135-.285-.435-.405-.285-.12-.45-.195-.495-.195l-.39.06c-.27.03-.495.045-.66.045-1.05 0-1.92-.33-2.61-1.005-.69-.675-1.035-1.575-1.035-2.715 0-.78.195-1.47.57-2.055l-1.095-.795 1.59-1.455.915 1.05c.6-.33 1.35-.495 2.235-.495 1.125 0 2.07.345 2.85 1.02zm0 6.064c.154-.116.321-.212.498-.284a4.816 4.816 0 0 1-.498-.379 4 4 0 0 1-.498.376c.177.074.345.17.498.287zm-1.185-3.704a1.667 1.667 0 0 0-.48-.979c-.33-.332-.765-.499-1.295-.499-.505 0-.917.173-1.235.517a1.815 1.815 0 0 0-.476 1.27c0 .614.147 1.08.444 1.424.295.346.72.526 1.268.526s.985-.18 1.309-.525c.261-.286.417-.646.468-1.08-.009-.106-.015-.226-.015-.33s.006-.196.012-.3zm2.37.64c.05.435.205.795.465 1.08.324.354.76.531 1.31.531s.971-.173 1.267-.517c.297-.346.445-.81.445-1.426 0-.495-.159-.915-.477-1.26-.318-.345-.73-.51-1.236-.51-.53 0-.96.165-1.294.51-.266.27-.426.6-.48.975a4.951 4.951 0 0 1-.002.645z"/></svg>