<svg role="img" viewBox="0 0 24 24" xmlns="http://www.w3.org/2000/svg"><title>Genius icon</title><path d="M12.8967 1.2348c-.36.001-.722.013-1.08.017-.218-.028-.371.225-.352.416-.035 1.012.023 2.0251-.016 3.0362-.037.841-.5551 1.596-1.2241 2.08-.5.345-1.118.4351-1.6711.6631.121.78.434 1.556 1.057 2.0701 1.189 1.053 3.2242.86 4.1702-.426.9451-1.071.453-2.5731.603-3.8542.2861-.48.9371-.132 1.3171-.49-.34-1.2491-.81-2.5292-1.725-3.4722a11.1256 11.1256 0 00-1.0801-.04zm-10.4205.006C.529 2.9918-.387 5.797.153 8.3612c.384 2.052 1.6821 3.8932 3.4502 4.9972.134-.23.23-.476.09-.73-.95-2.8142-.138-6.1193 1.9861-8.1904.014-.9861.043-1.9762-.003-2.9612l-.188-.214c-1.003-.051-2.008 0-3.0101-.022zm17.8809.055l-.205.356c.265.938.6 1.8621.72 2.8342.58 3.5461-.402 7.3133-2.6141 10.1405-1.8161 2.3531-4.4412 4.0742-7.3344 4.7732-2.6601.66-5.5143.45-8.0644-.543-.068.079-.207.237-.275.318 2.6641 2.6292 6.5433 3.9692 10.2595 3.4982 3.0752-.327 5.9953-1.8651 8.0234-4.1952 1.9351-2.1871 3.0832-5.0703 3.1252-7.9924.122-3.3842-1.207-6.8194-3.6362-9.1905z"/></svg>