<svg role="img" viewBox="0 0 24 24" xmlns="http://www.w3.org/2000/svg"><title>Gentoo icon</title><path d="M4.42 23.952c-.67-.11-1.183-.297-1.718-.625a4.592 4.592 0 01-1.422-1.352c-.219-.322-.526-.983-.6-1.289-.154-.647-.174-1.65-.042-2.138.205-.757.798-1.74 1.622-2.687.628-.722 1.822-1.85 3.25-3.069.322-.275.574-.512.559-.526a43.43 43.43 0 00-1.088-.574c-1.499-.776-2.13-1.166-2.726-1.686-.531-.463-.993-1.2-1.158-1.847-.106-.41-.09-1.09.033-1.566.477-1.826 2.057-3.807 4.051-5.08C6.114.92 7.405.388 8.435.174c1.441-.3 2.95-.19 4.304.31.412.153 1.52.698 2.104 1.035 3.48 2.01 7.298 5.54 8.294 7.664.281.601.315.784.313 1.699-.003.892-.053 1.168-.305 1.68-.46.93-2.335 2.896-4.384 4.597-2.777 2.305-5.774 4.249-8.464 5.49-1.283.592-2.373.967-3.52 1.211-.473.101-.64.118-1.296.13-.506.01-.853-.002-1.061-.037zm1.095-1.745c2.494-.293 5.186-1.354 8.498-3.348 2.485-1.497 4.772-3.251 6.546-5.023.913-.911 1.311-1.374 1.759-2.042.534-.796.739-1.299.742-1.82.007-.903-.835-2.16-2.625-3.92a32.487 32.487 0 00-4.75-3.833C13.192.567 11.894.073 10.036.073c-1.16 0-2.215.222-3.359.705-2.044.865-3.966 2.604-4.82 4.362-.455.939-.57 1.753-.329 2.33.454 1.088 2.118 2.26 4.975 3.507.425.185.778.341.784.347.006.006-.272.251-.618.546-2.25 1.915-3.944 3.515-4.606 4.35-.52.654-.848 1.254-1.013 1.849-.092.332-.092 1.188 0 1.524.264.966.766 1.746 1.398 2.168.748.5 1.58.622 3.066.446zm-1.173-1.135c-.509-.039-.771-.103-1.134-.277-.609-.29-1.077-.888-1.266-1.614-.1-.382-.088-1.066.024-1.39.335-.975 1.209-2.032 3.015-3.65.286-.256.997-.875 1.581-1.376 1.148-.984 1.525-1.35 1.655-1.603.196-.385.153-.42-1.462-1.171-2.019-.94-2.89-1.405-3.738-1.995-.52-.362-.785-.634-.892-.918-.124-.33-.097-.864.067-1.337.411-1.183 1.292-2.279 2.633-3.278C6.577 1.16 7.195.887 8.898.67c1.507-.193 2.579.007 4.088.762 2.355 1.178 4.15 2.495 6.22 4.565C20.94 7.73 21.75 8.87 21.834 9.695c.04.398-.038.753-.229 1.025-.524.75-2.495 2.695-4.06 4.004-2.492 2.086-5.92 4.277-8.32 5.318-1.371.595-2.66.93-3.956 1.028-.297.022-.55.038-.56.035a8.876 8.876 0 00-.367-.033zm8.583-12.221c.62-.233 1.212-.617 1.486-.962.238-.3.309-.492.313-.85.005-.51-.217-.956-.729-1.464-1.025-1.016-2.764-1.607-3.746-1.272-.61.208-1.04.738-1.214 1.493-.206.9-.105 1.345.434 1.908.542.566 1.504 1.056 2.405 1.225a1.88 1.88 0 001.05-.078zm-.07-.726c0-.153-.535-.42-1.062-.53-.462-.096-.771-.094-.965.004l-.151.077-.123-.119a1.274 1.274 0 01-.352-.707c-.04-.396.229-1.025.498-1.166a1.27 1.27 0 01.418-.083c.825-.048 1.995.532 2.318 1.15a.927.927 0 01.004.802c-.151.288-.585.713-.585.572z"/></svg>