<svg role="img" viewBox="0 0 24 24" xmlns="http://www.w3.org/2000/svg"><title>GeoGebra</title>
    <g xmlns="http://www.w3.org/2000/svg" transform="matrix(1, 0, 0, 1, 0, 1.4210854715202004e-14)">
    <path d="M 282.666 -4.286 C 287.364 0.054 291.32 5.31 294.186 11.042 C 296.783 11.621 296.783 11.621 299.959 11.936 C 301.167 12.084 302.375 12.232 303.62 12.384 C 305.571 12.617 305.571 12.617 307.561 12.854 C 347.997 18.021 381.471 34.787 409.186 65.042 C 410.082 66.529 410.961 68.027 411.811 69.542 C 413.95 72.602 415.118 73.025 418.834 73.952 C 421.032 74.309 423.232 74.61 425.44 74.898 C 436.99 76.504 447.616 82.199 455.014 91.288 C 463.603 102.854 467.212 115.485 465.717 129.842 C 463.391 143.848 455.38 154.581 444.186 163.042 C 443.126 163.454 442.067 163.867 440.975 164.292 C 437.812 165.848 437.812 165.848 437.119 169.639 C 436.931 171.125 436.767 172.614 436.623 174.104 C 436.404 175.743 436.178 177.381 435.944 179.018 C 435.825 179.855 435.707 180.692 435.585 181.554 C 430.97 210.295 415.421 236.756 397.506 259.108 C 395.159 261.994 395.159 261.994 393.186 265.042 C 393.791 267.061 394.469 269.059 395.186 271.042 C 397.596 286.697 394.833 299.953 385.815 313.03 C 378.218 322.735 366.433 328.737 354.408 330.639 C 342.916 331.654 330.404 330.66 320.565 323.934 C 318.791 322.753 317.184 321.788 315.186 321.042 C 311.838 321.646 311.838 321.646 308.561 323.417 C 307.241 324.014 305.916 324.602 304.588 325.182 C 303.88 325.492 303.172 325.802 302.443 326.122 C 288.12 331.959 272.412 334.757 257.186 337.042 C 256.509 337.148 255.831 337.254 255.134 337.363 C 248.042 338.321 240.891 338.192 233.75 338.172 C 231.521 338.167 229.292 338.172 227.063 338.178 C 225.6 338.178 224.137 338.177 222.674 338.174 C 221.958 338.174 221.243 338.173 220.505 338.172 C 214.665 338.129 208.96 337.599 203.165 336.847 C 198.202 337.171 195.703 340.297 192.401 343.749 C 184.987 351.424 172.856 353.147 162.623 353.417 C 148.867 353.019 135.833 348.077 126.186 338.042 C 118.413 329.347 113.817 318.712 113.186 307.042 C 113.449 304.643 113.742 302.246 114.061 299.854 C 114.545 295.004 114.545 295.004 112.795 290.612 C 111.43 289.144 110.014 287.723 108.561 286.342 C 86.989 265.444 78.517 232.223 77.299 203.26 C 77.255 202.229 77.255 202.229 77.209 201.177 C 77.186 199.042 77.186 199.042 77.365 196.702 C 77.653 192.265 77.705 190.672 74.772 187.108 C 73.719 186.251 72.648 185.417 71.561 184.604 C 62.17 176.822 56.909 167.193 55.186 155.042 C 54.1 141.654 56.857 129.682 65.186 119.042 C 65.763 118.175 66.341 117.309 66.936 116.417 C 74.205 108.744 85.676 101.641 96.436 100.883 C 98.835 100.846 101.225 100.866 103.623 100.917 C 104.45 100.926 105.277 100.935 106.129 100.944 C 108.148 100.967 110.167 101.003 112.186 101.042 C 112.592 100.173 112.592 100.173 113.006 99.288 C 117.535 90.665 125.153 83.525 131.803 76.503 C 132.958 75.282 134.103 74.052 135.244 72.819 C 147.713 59.76 163.77 49.067 179.436 40.229 C 180.097 39.853 180.759 39.476 181.44 39.088 C 184.505 37.382 187.422 35.953 190.717 34.714 C 194.053 33.434 196.484 32.389 199.186 30.042 C 200.765 26.051 201.583 22.23 202.346 18.026 C 204.245 7.863 212.212 -1.373 220.498 -7.208 C 240.372 -19.583 264.02 -18.592 282.666 -4.286 Z M 297.186 45.042 C 296.955 45.599 296.724 46.155 296.487 46.729 C 290.379 61.021 282.1 71.154 267.494 77.229 C 254.354 81.854 239.991 81.237 227.412 75.237 C 220.782 71.677 215.302 67.551 210.186 62.042 C 191.542 67.756 175.121 80.804 161.186 94.042 C 159.837 95.194 158.483 96.34 157.123 97.479 C 147.145 105.928 147.145 105.928 141.186 117.042 C 142.108 119.062 142.108 119.062 143.811 120.792 C 151.298 129.92 154.15 141.334 153.186 153.042 C 151.421 166.783 145.951 177.416 135.311 186.354 C 127.594 192.22 119.515 194.74 110.186 197.042 C 109.038 221.491 116.945 246.489 133.186 265.042 C 136.844 263.887 140.35 262.547 143.873 261.042 C 157.536 255.605 170.869 255.983 184.412 261.721 C 187.609 263.243 190.399 264.852 193.186 267.042 C 193.745 267.459 194.305 267.877 194.881 268.307 C 206.637 277.57 210.48 290.725 212.186 305.042 C 238.606 308.507 264.857 304.472 289.936 295.917 C 290.657 295.675 291.378 295.434 292.122 295.185 C 294.321 294.428 294.321 294.428 297.186 293.042 C 298.364 289.506 298.141 286.89 297.998 283.167 C 297.801 270.631 301.866 258.875 310.444 249.6 C 321.429 239.149 334.067 234.69 349.143 234.815 C 356.724 235.38 364.027 237.58 371.186 240.042 C 386.155 220.995 404.662 194.402 404.186 169.042 C 403.135 168.629 402.085 168.217 401.002 167.792 C 386.133 161.758 377.038 153.993 370.311 139.167 C 366.262 127.989 366.543 114.672 370.916 103.624 C 374.067 97.216 377.914 91.849 383.186 87.042 C 376.658 71.397 354.922 60.54 340.186 54.042 C 326.589 48.688 311.852 44.751 297.186 45.042 Z" fill="#010102"/>
    <path d="M 294.186 12.042 C 338.351 13.186 377.148 31.217 407.417 63.066 C 415.186 71.739 415.186 71.739 415.186 75.042 C 414.352 75.139 413.518 75.237 412.659 75.338 C 402.584 76.677 395.192 79.28 387.01 85.284 C 385.186 86.042 385.186 86.042 383.264 85.491 C 380.562 83.606 378.5 81.385 376.249 78.979 C 354.872 56.996 326.59 49.247 297.186 45.042 C 297.21 44.128 297.21 44.128 297.234 43.197 C 297.848 27.333 297.848 27.333 294.186 12.042 Z" fill="#656565"/>
    <path d="M 416.311 87.73 C 427.808 88.657 436.663 93.022 444.436 101.355 C 451.455 110.214 452.289 119.064 451.186 130.042 C 450.327 133.439 449.076 136.104 447.186 139.042 C 446.762 139.737 446.338 140.432 445.901 141.148 C 442.259 146.554 437.851 149.902 432.186 153.042 C 431.595 153.384 431.003 153.725 430.393 154.077 C 423.067 157.554 412.96 157.151 405.21 155.351 C 395.733 151.845 388.852 146.01 384.186 137.042 C 380.853 129.381 379.524 120.608 381.948 112.491 C 382.904 110.244 383.968 108.157 385.186 106.042 C 385.764 105.011 386.341 103.98 386.936 102.917 C 392.996 95.174 400.149 90.291 409.811 88.292 C 411.98 88.131 414.147 87.946 416.311 87.73 Z" fill="#9797FD"/>
    <path d="M 121.502 118.444 C 130.201 123.623 136.26 130.191 139.186 140.041 C 140.534 149.01 140.267 158.284 135.186 166.041 C 134.762 166.735 134.338 167.428 133.901 168.143 C 129.073 175.323 122.467 179.69 114.186 182.041 C 102.763 183.839 93.319 183.174 83.51 176.799 C 75.796 170.965 71.499 163.788 69.655 154.311 C 68.477 144.827 69.741 136.944 75.42 129.143 C 87.09 115.253 104.85 110.332 121.502 118.444 Z" fill="#9797FD"/>
    <path d="M 179.049 273.788 C 187.944 279.007 193.607 285.231 197.186 295.041 C 199.489 305.405 198.112 314.663 192.561 323.729 C 187.805 330.396 181.097 335.679 173.186 338.041 C 161.798 339.728 150.66 338.994 141.186 332.041 C 134.261 326.804 130.315 320.461 128.186 312.041 C 127.161 303.245 127.528 295.681 132.186 288.041 C 132.784 286.99 133.382 285.938 133.998 284.854 C 144.58 271.249 163.218 266.073 179.049 273.788 Z" fill="#9898FD"/>
    <path d="M 364.569 252.374 C 372.721 257.569 378.75 264.579 381.186 274.042 C 382.37 284.613 381.738 293.996 375.163 302.729 C 368.734 310.278 362.334 314.981 352.222 316.297 C 340.524 317.17 332.155 315.201 322.554 308.092 C 315.923 302.348 312.381 294.65 311.186 286.042 C 310.769 275.566 313.623 268.336 319.374 259.792 C 331.4 248.033 349.339 244.843 364.569 252.374 Z" fill="#9898FD"/>
    <path d="M 248.561 -1.333 C 249.311 -1.323 250.06 -1.313 250.832 -1.303 C 261.323 -1.009 268.332 2.403 275.878 9.67 C 282.58 16.91 284.845 24.143 284.723 33.95 C 284.293 43.013 281.226 50.233 275.124 56.979 C 265.974 65.228 256.275 67.017 244.335 66.456 C 239.292 66.053 235.39 64.897 231.186 62.042 C 230.409 61.532 229.632 61.023 228.831 60.499 C 220.56 54.602 216.796 48.068 214.632 38.19 C 213.084 27.249 216.153 19.379 221.936 10.292 C 229.287 2.941 238.133 -1.537 248.561 -1.333 Z" fill="#9898FD"/>
    <path d="M 285.186 -1.958 C 295.128 8.782 298.909 20.87 298.64 35.201 C 298.191 45.786 295.701 53.627 289.186 62.042 C 288.722 62.669 288.258 63.297 287.78 63.944 C 279.925 73.916 267.606 79.55 255.186 81.042 C 240.275 82.067 228.08 77.934 216.186 69.042 C 215.641 68.637 215.096 68.232 214.534 67.815 C 204.703 59.314 201.324 44.668 199.874 32.397 C 199.28 20.919 204.159 9.882 211.186 1.042 C 230.975 -20.311 263.545 -21.675 285.186 -1.958 Z M 221.456 11.225 C 220.975 11.969 220.494 12.713 219.999 13.479 C 219.51 14.22 219.022 14.961 218.518 15.725 C 213.941 23.685 213.313 32.324 215.249 41.229 C 217.965 50.59 222.911 56.972 231.186 62.042 C 231.806 62.455 232.426 62.869 233.065 63.295 C 241.396 67.974 252.65 67.321 261.702 65.229 C 271.139 61.745 277.856 55.51 282.249 46.479 C 285.736 36.907 285.955 26.782 281.624 17.479 C 276.68 8.926 270.421 3.13 260.979 -0.033 C 246.571 -3.549 231.145 -1.001 221.456 11.225 Z" fill="#010102"/>
    <path d="M 193.186 266.042 C 193.819 266.533 194.452 267.024 195.104 267.53 C 204.011 274.799 209.913 284.717 212.186 296.042 C 213.258 311.421 209.482 325.967 199.35 337.788 C 189.38 348.172 177.161 352.963 162.874 353.354 C 149.01 353.08 135.909 348.156 126.186 338.042 C 116.65 327.375 112.651 314.539 113.311 300.354 C 113.911 294.561 115.361 290.1 118.186 285.042 C 118.586 284.254 118.985 283.466 119.397 282.655 C 126.05 270.406 135.72 262.306 148.811 257.792 C 164.19 254.374 180.463 255.982 193.186 266.042 Z M 134.444 284.198 C 134.029 284.806 133.614 285.415 133.186 286.042 C 132.588 286.908 131.99 287.774 131.374 288.667 C 127.172 297.07 126.794 306.284 128.991 315.37 C 132.426 324.609 138.416 331.281 146.999 336.104 C 155.835 339.686 167.274 339.664 176.417 337.155 C 178.92 335.987 180.984 334.702 183.186 333.042 C 183.898 332.557 184.609 332.072 185.342 331.573 C 192.414 326.19 196.884 317.809 198.186 309.042 C 198.664 299.477 197.058 291.758 191.186 284.042 C 188.77 281.291 188.77 281.291 186.186 279.042 C 185.464 278.361 184.742 277.68 183.999 276.979 C 168.144 266.057 146.34 268.656 134.444 284.198 Z" fill="#010102"/>
    <path d="M 419.061 73.792 C 430.989 74.032 442.829 79.247 451.565 87.292 C 460.821 97.284 466.071 109.586 466.221 123.241 C 465.514 137.826 459.842 148.909 449.311 158.917 C 439.233 167.512 425.985 170.737 412.827 170.256 C 399.086 169.138 387.673 164.285 378.186 154.042 C 368.647 142.586 365.864 129.769 366.943 115.226 C 368.291 103.135 374.631 93.586 383.764 85.893 C 395.004 77.301 405.211 74.685 419.061 73.792 Z M 389.311 99.917 C 382.471 108.322 380.454 116.313 381.186 127.042 C 382.849 135.807 386.639 141.973 393.186 148.042 C 393.908 148.722 394.63 149.403 395.374 150.104 C 404.201 156.185 413.702 157.502 424.186 156.042 C 434.769 153.305 442.556 147.431 448.178 138.131 C 452.285 129.615 452.944 119.59 450.089 110.577 C 445.204 100.248 438.734 94.287 428.186 90.042 C 414.031 85.153 399.413 88.974 389.311 99.917 Z" fill="#010101"/>
    <path d="M 200.186 30.042 C 200.356 31.081 200.527 32.119 200.702 33.19 C 202.777 46.423 202.777 46.423 208.811 58.182 C 210.186 60.042 210.186 60.042 210.186 62.042 C 209.366 62.447 209.366 62.447 208.528 62.861 C 190.902 71.644 175.479 81.462 161.186 95.042 C 159.817 96.215 158.442 97.382 157.061 98.542 C 151.114 103.704 145.821 109.681 141.186 116.042 C 138.34 114.724 136.092 113.229 133.686 111.229 C 127.077 106.179 119.399 103.175 111.186 102.042 C 114.006 96.403 117.621 92.131 121.897 87.514 C 123.859 85.395 125.75 83.239 127.624 81.042 C 141.219 65.553 177.667 30.042 200.186 30.042 Z" fill="#656565"/>
    <path d="M 297.186 292.042 C 299.699 294.244 300.586 295.82 301.374 299.042 C 303.536 306.069 308.215 312.142 313.44 317.241 C 315.186 319.042 315.186 319.042 315.186 321.042 C 296.537 329.12 277.264 334.031 257.186 337.042 C 256.171 337.199 256.171 337.199 255.134 337.361 C 248.043 338.313 240.891 338.228 233.75 338.227 C 231.521 338.229 229.292 338.247 227.063 338.266 C 217.911 338.301 209.224 337.629 200.186 336.042 C 200.693 335.213 201.199 334.385 201.721 333.531 C 206.48 325.695 209.506 318.727 211.26 309.768 C 211.435 308.879 211.61 307.991 211.791 307.075 C 211.921 306.404 212.052 305.733 212.186 305.042 C 212.97 305.052 213.755 305.062 214.563 305.073 C 243.813 305.412 269.669 302.536 297.186 292.042 Z" fill="#656565"/>
    <path d="M 437.186 166.042 C 437.075 198.493 419.74 230.59 400.436 255.667 C 399.976 256.271 399.516 256.876 399.042 257.499 C 396.707 260.472 394.8 262.741 391.186 264.042 C 390.811 263.389 390.436 262.737 390.05 262.065 C 384.625 252.801 379.163 246.933 370.186 241.042 C 373.234 236.419 376.322 231.844 379.561 227.354 C 392.004 209.626 399.8 190.188 404.186 169.042 C 405.251 169.076 406.316 169.111 407.413 169.147 C 416.186 169.342 423.973 168.819 432.526 166.698 C 435.186 166.042 435.186 166.042 437.186 166.042 Z" fill="#656565"/>
    <path d="M 78.186 190.042 C 81.251 190.722 83.979 191.775 86.874 192.979 C 94.411 195.795 102.23 196.333 110.186 197.042 C 110.226 197.599 110.266 198.157 110.306 198.731 C 112.109 222.971 117.846 246.262 134.186 265.042 C 133.311 266.062 132.436 267.083 131.561 268.104 C 131.013 268.749 130.466 269.393 129.901 270.057 C 128.831 271.295 127.743 272.517 126.628 273.713 C 121.595 279.204 117.756 285.7 116.186 293.042 C 111.765 291.466 109.312 287.974 106.499 284.417 C 105.973 283.754 105.447 283.092 104.905 282.41 C 99.484 275.406 95.185 267.925 91.186 260.042 C 90.695 259.076 90.204 258.111 89.698 257.116 C 80.099 237.056 74.483 212.259 78.186 190.042 Z" fill="#656565"/>
  </g>
</svg>
