<svg role="img" viewBox="0 0 24 24" xmlns="http://www.w3.org/2000/svg"><title>Geopandas</title><path d="M12.004 0C5.391 0 0 5.38 0 12c0 6.61 5.382 12 12.004 12S24 18.61 24 12c0-6.62-5.382-12-11.996-12m9.83 12a9.75 9.75 0 0 1-.824 3.925v-7.85A9.7 9.7 0 0 1 21.833 12m-4.1 7.98v-1.872h-2.09v3.015a9.8 9.8 0 0 1-4.55.659V9.192H9.005v12.165c-3.96-1.273-6.838-4.99-6.838-9.366 0-5.423 4.412-9.834 9.837-9.834a9.8 9.8 0 0 1 6.926 2.86v13.888h.06c-.39.399-.814.754-1.257 1.075M15.643 9.2h2.09v4.333h-2.09zm-3.283 5.34h2.089v4.332h-2.09zm0-8.907h2.089v4.332h-2.09zm3.285 9.167h2.088v2.044h-2.088Zm-3.285-3.57h2.089v2.045h-2.09z"/></svg>