<svg xmlns="http://www.w3.org/2000/svg" version="1.2" baseProfile="tiny" viewBox="292.0334 271.1038 16 16"><path fill="#FFF" stroke="#000" stroke-width=".1" d="M299.446 272.9285s.3223-.2773.6504-.54c.3286-.2632.5122-.6323.5122-.6323l.9912.624s-.369.461-.5762.651c-.088.0805-.2568.2758-.2568.2758s-.4092-.2163-.6304-.2793c-.2236-.065-.6904-.0992-.6904-.0992z"/><path fill="#020202" d="M300.468 272.931l-.1606-.1744c.0015-.002.1914-.1777.272-.272.081-.098.2275-.3213.2295-.3232l.199.129c-.0077.0097-.1552.2382-.248.347-.0898.1065-.2837.2857-.292.2935z"/><path fill="#FFF" stroke="#000" stroke-width=".1" d="M296.12 274.2795s.0502-.519.1933-.724c.168-.238.453-.4342.7183-.4962.7197-.17 1.6787-.0493 1.6787-.0493s-.8052.1226-1.1802.2715c-.1322.0518-.367.214-.367.214s-.4195.0746-.7438.4164c-.3232.3402-.046.266-.046.266"/><path stroke="#000" stroke-width=".1" d="M298.887 278.1614l-.4434.7222s-.4453-.0786-1.0396.2646c-.5952.3433-.9404.8237-.9404.8237l.204-.047s.489-.4478.7804-.557c.292-.108.61-.1524.61-.1524s-.6354.3472-.7652.4263c-.1548.0937-.3643.292-.3643.292l.274-.044c.439-.249 1.0292-.5566 1.521-.5938.4125-.0215.9452.3262.9452.3262l-.1328-.249s-.311-.1777-.4757-.3047c-.1646-.128.375-.7363.375-.7363-.3848-.0265-.082-.2008-.5483-.171z"/><path stroke="#000" stroke-width=".1" d="M300.6848 278.6892l-.2983.9194s-.3862-.0103-1.02.256c-.6333.2645-1.1108.6737-1.1108.6737l.2827.0127s.4805-.3574.7524-.4727c.1963-.085.619-.1572.619-.1572s-.5092.2433-.7514.3858c-.1333.08-.3867.2598-.3867.2598l.2886.006s.7744-.4142 1.1987-.508c.288-.0644.2998-.118.8838-.0302.2725.041.4502.1104.4502.1104l-.1074-.1445s-.1563-.1016-.2383-.1455c-.1025-.0527-.3174-.1445-.3174-.1445l.3017-.8608c-.3692-.112-.085-.086-.547-.1603z"/><path stroke="#000" stroke-width=".1" d="M293.427 275.8792c.1895-.5713.5942-1.1133 1.1104-1.4233.562-.339 1.307-.4352 1.9385-.3424.223.1445.2133-.4844 1.138-.875.925-.39 2.3795-.4756 3.8014.1235 1.5205.6427-.4814 1.1783.1035 2.5025 1.2265 2.869-1.317 2.871-1.317 2.871s-.7153-.3397-.984-.3314c-.268.0064-1.306-.5038-1.9008-.5228-.5942-.018-.9053.6108-2.8633.1-.6695-.1752-.9972-.7606-.9972-.7606s-.17-.917-.0298-1.3414z"/><path fill="#FFF" stroke="#000" stroke-width=".1" d="M294.7937 278.068s.8643-.3202 1.4497-.5824c.585-.2632.8022-1.267 1.7114-1.517.9102-.2506 1.8706.3524 2.273.974.4003.621 1.5116 1.288 1.5116 1.288s.0635.2887-.3105.5235c-.3722.2374-.248.2374-.248.2374s-1.168-.1563-1.707-.3545c-.5392-.198-1.6813-.4005-2.5377-.4977-.71-.081-.9102.1832-2.1426-.0712zM302.511 277.9573s.6953 2.548 1.4102 4.0244c.7148 1.4775 2.6563 4.4697 2.6563 4.4697l.631-.9287-1.7423-2.7012 1.9043 2.3115.5635-1.0234s-2.1475-2.082-2.9287-3.3672c-.7832-1.2847-1.4922-3.8823-1.4922-3.8823l-1.002 1.0973z"/><path stroke="#FFF" stroke-width=".1" d="M298.9773 273.381s-1.0508.2672-1.357 1.2955c-.307 1.0283 1.715 2.8643 2.0314 3.2612.3164.3965.7646.9302.7646.9302s1.3555.68 2.3525 1.1342c.923.422 1.8203.6514 1.8203.6514s.0284-.0166.1192-.5264c-.3906-.5298-1.1816-1.2686-1.6582-1.6328.6826.2896 1.2305.5928 1.7627 1.2822 0 0 .0586-.577.0693-.829-.1104-.2408-1.4316-1.3243-1.4316-1.3243.5664.1616.96.4912 1.462 1.0063 0 0 .0145-.5762-.01-.876-.0878-.164-1.002-.8062-1.002-.8062.3673.1294.5538.224.9835.515 0 0-.2814-1.5805-2.1817-3.2035-1.8983-1.6235-3.725-.878-3.725-.878z"/><path fill="#FFF" stroke="#000" stroke-width=".1" d="M296.967 275.5657s-.8584-.706-1.6797-.4736c-.8203.2325-.9648 1.0196-.9102 1.176.0553.1557.3946.2636.6378.3383.2417.0732.8574-.1216 1.17-.3242.3115-.2027.7822-.7163.7822-.7163z"/><path fill="#FFF" stroke="#000" stroke-width=".1" d="M295.5583 275.1702c.3354.0166.5933.3003.5776.6357-.0157.3344-.2994.5932-.6344.5775-.3345-.015-.5938-.2998-.5786-.6343l.6353-.579z"/><path d="M295.6794 275.8982c.024.187-.1084.3574-.2944.381-.1865.0243-.3574-.108-.3813-.295-.0234-.186.109-.3564.2954-.381.1866-.023.357.109.3804.295z"/><path fill="#FFF" stroke="#000" stroke-width=".1" d="M292.745 276.508c-.7784.6505-.6373 1.5743-.5167 1.6808.121.1055.2153-.001.4053-.0923.191-.0913.6548-.3525 1.0752-.432.4194-.0802.5664.0082.62-.093.0543-.1015.0553-.411-.0062-.685-.062-.2744-.1035-.6055-.27-.6382-.1647-.0327-1.0187-.0054-1.3077.2598zM296.1887 274.088s.3887.5123 1.8682.629c1.4794.1157 3.168-1.4204 3.168-1.4204l1.1444.8828s-2.878 1.0483-3.8672 1.0513c-.9883.002-2.3013-1.0488-2.3013-1.0488"/><path d="M301.5217 273.734l-.7422.4776.1973.121.7373-.4687-.1923-.13z"/><path fill="#FFF" stroke="#000" stroke-width=".1" d="M293.7625 275.1746s-.1377.2114-.193.3252c-.0604.125-.1493.3882-.1493.3882s1.2266-.798 1.6714-1.0195c.4575-.2285 1.3638-.753 1.3638-.753s-.1074-.037-.163-.0438c-.084-.0088-.2525.0103-.2525.0103s-.6773.0815-1.1017.3022c-.4254.2205-1.1758.7904-1.1758.7904z"/><path d="M300.9866 273.72l.7168.516-.205.112-.711-.509.1992-.119z"/></svg>