<svg role="img" viewBox="0 0 24 24" xmlns="http://www.w3.org/2000/svg"><title>Ghostfolio</title><path d="M 12,0 C 6.830063,0.00928125 2.625001,4.2028381 2.625001,9.3749781 V 22.437164 c 0,0.696047 0.841266,1.044609 1.333453,0.552469 l 1.791375,-1.8435 2.57264,2.624718 c 0.305156,0.30511 0.799828,0.30511 1.104937,0 L 12,21.146133 l 2.57264,2.624718 c 0.305109,0.30511 0.799781,0.30511 1.104891,0 l 2.572687,-2.624718 1.791374,1.8435 c 0.492141,0.49214 1.333407,0.143531 1.333407,-0.552516 V 9.4552749 C 21.374952,4.2893225 17.165952,-0.00923438 12,0 Z M 8.093625,12.50004 c -1.292437,0 -2.343796,-1.051359 -2.343796,-2.343796 0,-1.2924377 1.051406,-2.343797 2.343796,-2.343797 1.292391,0 2.343797,1.0514062 2.343797,2.343797 0,1.29239 -1.051359,2.343796 -2.343797,2.343796 z m 7.812749,0 c -1.292437,0 -2.343796,-1.051359 -2.343796,-2.343796 0,-1.2924377 1.051406,-2.343797 2.343796,-2.343797 1.292391,0 2.343797,1.0514062 2.343797,2.343797 0,1.29239 -1.051359,2.343796 -2.343797,2.343796 z"/></svg>
