<svg role="img" viewBox="0 0 24 24" xmlns="http://www.w3.org/2000/svg"><title>Ghostty</title><path d="M12.001 0C6.475 0 1.98 4.496 1.978 10.022v9.186c0 1.261.489 2.455 1.376 3.362A4.7 4.7 0 0 0 6.73 24h.028a4.7 4.7 0 0 0 2.606-.8c.777.519 1.701.8 2.638.8a4.76 4.76 0 0 0 2.637-.8 4.76 4.76 0 0 0 2.902.793c2.514-.137 4.482-2.236 4.482-4.78v-9.19C22.022 4.495 17.528 0 12.002 0m-4.89 7.518c.13.003.26.039.38.108l2.949 1.702v.002a.803.803 0 0 1 0 1.39L7.49 12.422a.804.804 0 0 1-.804-1.39l1.745-1.008-1.745-1.008a.804.804 0 0 1 .425-1.498m6.131 1.7h3.873a.803.803 0 1 1 0 1.607h-3.873a.803.803 0 0 1 0-1.607"/></svg>