<svg role="img" viewBox="0 0 24 24" xmlns="http://www.w3.org/2000/svg"><title>Ghostfolio</title><path d="M12 0C6.83006.00928 2.625 4.20284 2.625 9.37498v13.06218c0 .69605.84127 1.04461 1.33345.55247l1.79138-1.8435 2.57264 2.62472c.30516.30511.79983.30511 1.10494 0L12 21.14613l2.57264 2.62472c.3051.30511.79978.30511 1.1049 0l2.57268-2.62472 1.79137 1.8435c.49214.49214 1.3334.14353 1.3334-.55251V9.45527C21.37496 4.28932 17.16596-.00923 12 0ZM8.09362 12.50004c-1.29243 0-2.3438-1.05136-2.3438-2.3438 0-1.29243 1.05141-2.3438 2.3438-2.3438 1.2924 0 2.3438 1.05141 2.3438 2.3438 0 1.2924-1.05136 2.3438-2.3438 2.3438zm7.81275 0c-1.29243 0-2.3438-1.05136-2.3438-2.3438 0-1.29243 1.05141-2.3438 2.3438-2.3438 1.2924 0 2.3438 1.05141 2.3438 2.3438 0 1.2924-1.05136 2.3438-2.3438 2.3438z"/></svg>
