<svg role="img" viewBox="0 0 24 24" xmlns="http://www.w3.org/2000/svg"><title>GIMP icon</title><path d="M23.5799 2.3998c-.963 1.206-2.5501 6.4762-11.4604 6.7102-4.2531.112-6.3602-4.7312-6.3602-4.7312l-.334 7.7713c-.831-1.042-1.945-1.705-3.0141-1.74a2.23 2.23 0 00-1.441.441c-.663.502-.977 1.345-.97 2.28.006.934.33 1.965.97 2.8961.64.931 1.476 1.587 2.324 1.89.456.164.916.214 1.35.157C10.6736 22.8825 26.797 26.5577 23.58 2.3999zM8.4034 8.85c1.265 0 2.314.94 2.614 2.196.484-1.19 1.6141-2.027 2.9312-2.027 1.758 0 3.178 1.49 3.178 3.3221 0 1.833-1.42 3.3341-3.178 3.3341-1.531 0-2.8101-1.14-3.1151-2.644-.437.978-1.353 1.666-2.4301 1.666-.915 0-1.716-.497-2.203-1.246a5.7262 5.7262 0 00-.2891-.567 3.1181 3.1181 0 01-.205-1.1131c0-1.604 1.198-2.9221 2.697-2.9221zm0 .36c-1.284 0-2.33 1.138-2.33 2.561 0 1.4231 1.046 2.5592 2.33 2.5592.214 0 .417-.043.614-.102a1.676 1.759 0 01-1.614-1.7561 1.676 1.759 0 011.676-1.758 1.676 1.759 0 011.635 1.373c.012-.105.029-.207.029-.316 0-1.423-1.056-2.5601-2.34-2.5601zm5.5452.131c-1.576 0-2.8601 1.334-2.8601 3.0001 0 1.667 1.284 3.008 2.86 3.008.591 0 1.1401-.188 1.5961-.512a2.146 2.252 0 01-.858.19 2.146 2.252 0 01-2.144-2.252 2.146 2.252 0 012.144-2.252 2.146 2.252 0 012.112 1.845l.003-.026c0-1.667-1.277-3.0001-2.853-3.0001zm-11.5454 1.39c1.038.035 2.206.77 3.008 1.9361.6061.882.9141 1.866.9201 2.727.006.8611-.282 1.5891-.846 2.0162-.564.426-1.31.48-2.082.205-.7721-.277-1.5641-.883-2.1701-1.764-.605-.8811-.911-1.8672-.917-2.7282-.007-.862.282-1.589.845-2.016a1.92 1.92 0 011.242-.375zm11.6904.245a1.006 1.056 0 00-1.006 1.059 1.006 1.056 0 001.006 1.0541 1.006 1.056 0 001.005-1.054 1.006 1.056 0 00-1.005-1.059zm-5.6452.22a.662.695 0 00-.662.694.662.695 0 00.662.6971.662.695 0 00.662-.697.662.695 0 00-.662-.693zm-6.4142.223a1.118 1.408 0 00-1.119 1.4071 1.118 1.408 0 001.12 1.408 1.118 1.408 0 001.116-1.408 1.118 1.408 0 00-1.117-1.407zm14.1764 3.9982s1.487.435 2.0111 1.145c.523.708.194 1.145.057 2.0501-.202-.528-.407-.942-.621-1.183-.81 1.259-3.1041 1.858-6.1802 1.559 1.38-.072 2.451-.288 3.301-.584-1.4.09-3.214-.27-5.365-1.067 4.262.895 6.4331.063 7.7032-.966-.335-.455-.906-.9541-.906-.9541z"/></svg>