<svg viewBox="0 0 16 16" xmlns="http://www.w3.org/2000/svg" fill-rule="evenodd" clip-rule="evenodd" stroke-linejoin="round" stroke-miterlimit="1.414"><path d="M15.698 7.287L8.708.302C8.305-.1 7.652-.1 7.248.302L5.8 1.752l1.84 1.84c.43-.144.92-.047 1.26.294.344.343.44.838.292 1.267l1.774 1.773c.43-.148.925-.052 1.268.29.48.48.48 1.256 0 1.735-.48.48-1.256.48-1.735 0-.36-.36-.45-.89-.267-1.332L8.574 5.964v4.352c.117.058.227.135.325.232.478.48.478 1.255 0 1.734-.48.48-1.257.48-1.736 0-.48-.48-.48-1.255 0-1.734.118-.118.256-.208.402-.268V5.887c-.146-.06-.283-.148-.402-.267-.363-.363-.45-.895-.264-1.34L5.085 2.465.29 7.255c-.4.403-.4 1.055 0 1.458l6.992 6.985c.402.403 1.055.403 1.458 0l6.958-6.953c.403-.402.403-1.055 0-1.458" fill-rule="nonzero"/></svg>