<svg role="img" xmlns="http://www.w3.org/2000/svg" viewBox="0 0 24 24"><title>GitLab icon</title><path d="M23.93 13.335l-1.278-3.936v.005l-.001-.006-2.537-7.81a1 1 0 00-.959-.685.986.986 0 00-.946.69l-2.408 7.414H8.203L5.791 1.593a.986.986 0 00-.946-.69H4.84c-.432 0-.815.274-.955.69l-2.53 7.804-.002.007v-.005L.072 13.335a1.434 1.434 0 00.521 1.607l11.075 8.046.005.003.014.01-.013-.008h.001l.002.002a.568.568 0 00.061.038c.002 0 .003.002.005.003h.004l.003.002.006.003.03.012a.539.539 0 00.028.012l.006.002.006.002h.002l.008.003h.003l.04.01.016.004.002.001.005.001.01.002h.007a.524.524 0 00.08.007H12a.698.698 0 00.08-.006h.001l.007-.001.01-.002.004-.001h.002l.017-.005.04-.01h.003l.008-.002h.002l.006-.003a.024.024 0 00.005-.002h.001l.03-.013.027-.011.007-.003.003-.001.004-.002c.002 0 .003-.002.005-.003l.008-.005a.583.583 0 00.053-.033l.004-.003h.001l.005-.003 11.076-8.047a1.434 1.434 0 00.52-1.607zM19.162 2.319l2.172 6.688h-4.344zm1.792 7.819l-.886 1.135-6.538 8.377 3.093-9.512zm-9.493 12.568l.002.005a.024.024 0 00-.002-.005zm-.991-3.055l-7.42-9.513h4.332zM4.839 2.319l2.176 6.688H2.671zm-3.58 11.708a.306.306 0 01-.111-.343L2.1 10.76l6.986 8.956zm10.39 8.946l-.007-.006a.458.458 0 01-.013-.011.488.488 0 01-.024-.022l.002.002.003.002a.57.57 0 00.051.043l.003.003-.015-.011zM12 20.701l-1.818-5.598-1.611-4.965h6.863zm.371 2.255l-.012.01-.001.002-.006.005-.015.01s.002 0 .002-.002a.55.55 0 00.051-.043l.002-.002.003-.002a.662.662 0 01-.023.021zm10.372-8.93l-7.828 5.687 6.988-8.954.95 2.925a.306.306 0 01-.11.343z"/></svg>