<svg role="img" viewBox="0 0 24 24" xmlns="http://www.w3.org/2000/svg"><title>Glitch icon</title><path d="M23.8 12.57c-.29-.15-3.4 1.4-4.07 1.27-1.68-.3-1.37-.5-3.63-1.02-.9-.2-.77-.08-.97-.23-.13-.1-.26-.12-.45-.3 3-.54 4.52-1.27 5.05-1.38.57-.11 3.87 1.47 4.07 1.1.2-.37-.72-1.18-.3-2.27.44-1.1-.52-1.82.01-2.69.54-.87.43-2.2.3-2.27-.3-.15-3.4 1.4-4.08 1.27-1.68-.31-1.37-.51-3.63-1.02-.9-.2-.77-.09-.97-.24-.2-.15-.39-.1-.78-.73s-4.88-1.6-5.18-1.6c-.62 0-1.78 1.6-1.78 1.6s-.45 0-1.8.07-2.53.67-4.12 1.92C-.13 7.3.1 8.56.1 8.56s1.48.5 1.48.78c0 .27-1.3.6-1.3.6C1.12 11 3.72 12 4.38 12h.52c-1.08.21-2.12.8-3.44 1.83C-.13 15.1.1 16.36.1 16.36s1.48.5 1.48.77-1.3.6-1.3.6c.84 1.07 3.44 2.07 4.1 2.07.63 0 1.07.02 1.87-.13.06.13.68 1.45 1.95 1.72 1.34.29 2.08.06 2.08.06s.07-.59-.24-1.18c1.16.12 2.48.15 3.77-.05 3.57-.54 5.34-1.4 5.92-1.51.57-.12 3.87 1.46 4.07 1.1.2-.38-.72-1.19-.29-2.28.43-1.1-.53-1.81 0-2.69.54-.87.43-2.2.3-2.27zM3.46 8.87a.95.95 0 0 1-.22-.03H3.2a2.6 2.6 0 0 1-.06-.03L3.1 8.8l-.06-.03H3a.57.57 0 0 1-.05-.03L2.9 8.7l-.05-.03-.04-.03a1.1 1.1 0 0 1-.05-.04l-.03-.03a1 1 0 0 1-.05-.06l-.02-.02a1.95 1.95 0 0 1-.07-.08l-.02-.02a1.15 1.15 0 0 1-.04-.08l-.02-.03-.04-.06a.78.78 0 0 0-.02-.05l-.02-.06-.02-.04A1.66 1.66 0 0 1 2.4 8l-.01-.05a.75.75 0 0 1-.02-.06v-.05c.07.43.42.76.83.76.47 0 .86-.43.86-.97s-.38-.98-.86-.98c-.47 0-.85.43-.86.96 0-.7.5-1.27 1.12-1.27s1.11.56 1.11 1.26-.5 1.27-1.11 1.27zm-.75-.95c0-.15.1-.27.24-.27s.23.12.23.27-.1.26-.23.26-.24-.12-.24-.26zm.75 8.74a.95.95 0 0 1-.11 0l-.04-.01a.88.88 0 0 1-.07-.01l-.04-.01-.06-.02-.04-.02a.57.57 0 0 1-.06-.02L3 16.55a.73.73 0 0 1-.05-.03l-.04-.02-.05-.04-.04-.03a.73.73 0 0 1-.05-.04l-.03-.03a1 1 0 0 1-.07-.07 1.44 1.44 0 0 1-.07-.09l-.02-.02a1.13 1.13 0 0 1-.04-.07l-.02-.04a1.3 1.3 0 0 1-.04-.06l-.02-.04-.02-.07-.02-.04a5.06 5.06 0 0 1-.02-.07l-.01-.04a.75.75 0 0 1-.02-.07v-.05c.07.43.42.76.83.76.47 0 .86-.43.86-.97s-.38-.97-.86-.97c-.47 0-.85.42-.86.95 0-.7.5-1.27 1.12-1.27s1.11.57 1.11 1.26-.5 1.27-1.11 1.27zm-.75-.95c0-.14.1-.26.24-.26s.23.12.23.26-.1.26-.23.26-.24-.11-.24-.26zm5.08-5.5v-.03l.03-.06.06-.22a18.71 18.71 0 0 0 .36-1.33c.12-.53.17-.96.15-1.2a3.04 3.04 0 0 0-.04-.27 5.92 5.92 0 0 0-.2-.79 8.05 8.05 0 0 0-.19-.5l-.06-.13-.02-.05c-.09-.2.04-.43.24-.42h.14l.4.03 1.2.06.38.02.86.06a21.12 21.12 0 0 1 7.93 2.12l.67.3c.13.06.2.23.14.38-.05.14-.2.22-.33.16l-.67-.3a20.72 20.72 0 0 0-7.77-2.09l-.86-.05-.38-.02-1.2-.07h-.12a8.69 8.69 0 0 1 .34 1.17l.05.32c.03.34-.03.81-.17 1.41l-.15.62a21.23 21.23 0 0 1-.29.99l-.02.06a.16.16 0 0 0 0 .03c-.05.14-.2.22-.33.16-.13-.05-.2-.22-.15-.37zm-1.5-4.76a.23.23 0 0 1 .36.02 4.68 4.68 0 0 1 .42.62c.22.4.37.8.41 1.21.02.23 0 .49-.04.77a6.2 6.2 0 0 1-.2.83 8.29 8.29 0 0 1-.25.69c-.06.14-.21.2-.34.13-.13-.07-.18-.24-.12-.39l.02-.04.05-.13a7.76 7.76 0 0 0 .16-.45 5.43 5.43 0 0 0 .18-.75c.04-.23.05-.43.04-.6a2.6 2.6 0 0 0-.34-.97 4.1 4.1 0 0 0-.33-.5l-.03-.03a.32.32 0 0 1 .02-.4zm1.15 10.4a6.17 6.17 0 0 1-.2.85 8.29 8.29 0 0 1-.25.68c-.06.14-.21.2-.34.13-.13-.07-.18-.24-.12-.39l.02-.04.05-.13a7.76 7.76 0 0 0 .16-.45 5.43 5.43 0 0 0 .18-.75c.04-.23.05-.43.03-.6a2.6 2.6 0 0 0-.33-.96 4.1 4.1 0 0 0-.33-.5l-.03-.04a.32.32 0 0 1 .02-.4.23.23 0 0 1 .35 0 4.68 4.68 0 0 1 .42.63c.22.4.37.81.41 1.21.02.23 0 .49-.04.77zm12.4.12c-.05.14-.2.22-.33.16l-.67-.3a20.72 20.72 0 0 0-7.77-2.09l-.85-.05h-.05l-.34-.02a913.89 913.89 0 0 0-1.32-.07l.03.06a6.38 6.38 0 0 1 .36 1.43c.03.34-.03.81-.17 1.41l-.15.62a21.29 21.29 0 0 1-.29 1l-.02.05a.16.16 0 0 0 0 .03c-.05.15-.2.22-.33.17-.13-.06-.2-.23-.15-.38v-.02l.03-.06.06-.22a18.71 18.71 0 0 0 .36-1.33c.12-.53.17-.96.15-1.2a3.04 3.04 0 0 0-.04-.27 5.92 5.92 0 0 0-.2-.79 8.02 8.02 0 0 0-.19-.49l-.04-.09-.02-.05-.02-.05c-.09-.2.04-.43.24-.42h.14l.4.03 1.2.06.38.02h.01l.85.06a21.07 21.07 0 0 1 7.93 2.12l.67.3c.13.06.2.23.14.38z"/></svg>