<svg role="img" viewBox="0 0 24 24" xmlns="http://www.w3.org/2000/svg"><title>Glitch icon</title><path d="M23.883 12.576c-.292-.151-3.425 1.41-4.1 1.279-1.692-.302-1.38-.504-3.656-1.027-.906-.202-.775-.08-.977-.232-.13-.1-.262-.12-.453-.302 3.021-.544 4.552-1.28 5.086-1.39.574-.11 3.898 1.48 4.1 1.108.201-.373-.726-1.189-.303-2.287.444-1.107-.523-1.833.01-2.709.544-.876.434-2.216.303-2.286-.302-.151-3.425 1.41-4.11 1.279-1.692-.312-1.38-.514-3.656-1.028-.906-.201-.775-.09-.977-.241-.201-.151-.393-.101-.786-.736-.392-.634-4.915-1.611-5.217-1.611-.624 0-1.793 1.611-1.793 1.611s-.453 0-1.813.071c-1.36.07-2.548.675-4.15 1.934C-.22 7.268.012 8.537.012 8.537s1.491.504 1.491.786c0 .272-1.309.604-1.309.604.846 1.068 3.465 2.075 4.13 2.075h.523c-1.088.211-2.135.806-3.465 1.843-1.601 1.28-1.37 2.548-1.37 2.548s1.491.504 1.491.776-1.309.604-1.309.604c.846 1.078 3.465 2.085 4.13 2.085.634 0 1.077.02 1.883-.13.06.13.685 1.46 1.964 1.731 1.35.293 2.095.06 2.095.06s.07-.593-.242-1.188c1.169.121 2.498.151 3.798-.05 3.595-.544 5.378-1.41 5.962-1.52.574-.122 3.898 1.47 4.1 1.107.201-.383-.726-1.198-.292-2.296.433-1.108-.534-1.823 0-2.71.543-.876.433-2.216.302-2.286zM3.396 8.849a.957.957 0 0 1-.222-.03h-.04a2.619 2.619 0 0 1-.06-.03l-.04-.01-.061-.03h-.04a.574.574 0 0 1-.05-.03l-.051-.041-.05-.03-.04-.03a1.108 1.108 0 0 1-.051-.04l-.03-.031a1.007 1.007 0 0 1-.05-.06l-.02-.02a1.964 1.964 0 0 1-.071-.081l-.02-.02a1.158 1.158 0 0 1-.04-.08l-.021-.031-.04-.06a.786.786 0 0 0-.02-.05l-.02-.061-.02-.04a1.672 1.672 0 0 1-.01-.071l-.01-.05a.755.755 0 0 1-.021-.06v-.051c.07.433.423.765.836.765.473 0 .866-.433.866-.977s-.383-.987-.866-.987c-.473 0-.856.433-.866.967 0-.705.503-1.28 1.128-1.28.624 0 1.118.565 1.118 1.27 0 .705-.504 1.28-1.118 1.28zm-.756-.957c0-.15.101-.272.242-.272s.232.121.232.272c0 .151-.1.262-.232.262-.13 0-.242-.12-.242-.262zm.756 8.803a.957.957 0 0 1-.11 0l-.041-.01a.886.886 0 0 1-.07-.01l-.041-.01-.06-.02-.04-.02a.574.574 0 0 1-.061-.02l-.04-.02a.735.735 0 0 1-.05-.03l-.041-.02-.05-.041-.04-.03a.735.735 0 0 1-.051-.04l-.03-.03a1.007 1.007 0 0 1-.07-.071 1.45 1.45 0 0 1-.071-.091l-.02-.02a1.138 1.138 0 0 1-.04-.07l-.02-.04a1.31 1.31 0 0 1-.041-.061l-.02-.04-.02-.071-.02-.04a5.096 5.096 0 0 1-.02-.07l-.01-.041a.755.755 0 0 1-.021-.07v-.051c.07.433.423.765.836.765.473 0 .866-.433.866-.977 0-.543-.383-.977-.866-.977-.473 0-.856.423-.866.957 0-.705.503-1.279 1.128-1.279.624 0 1.118.574 1.118 1.27 0 .694-.504 1.278-1.118 1.278zm-.756-.956c0-.141.101-.262.242-.262s.232.12.232.262c0 .14-.1.261-.232.261-.13 0-.242-.11-.242-.261zm5.117-5.54v-.03l.03-.06.06-.222a18.845 18.845 0 0 0 .363-1.34c.121-.534.172-.967.151-1.209a3.062 3.062 0 0 0-.04-.272 5.963 5.963 0 0 0-.201-.795 8.108 8.108 0 0 0-.192-.504l-.06-.13-.02-.051c-.09-.202.04-.433.242-.423h.14l.403.03 1.21.06.382.02.866.061a21.272 21.272 0 0 1 7.987 2.135l.675.302c.131.06.201.232.141.383-.05.141-.201.222-.332.161l-.675-.302a20.87 20.87 0 0 0-7.826-2.105l-.866-.05-.383-.02-1.209-.07h-.12a8.753 8.753 0 0 1 .342 1.178l.05.322c.03.342-.03.816-.171 1.42l-.151.624a21.383 21.383 0 0 1-.292.998l-.02.06a.161.161 0 0 0 0 .03c-.05.141-.202.222-.333.161-.13-.05-.201-.221-.15-.372zm-1.51-4.794a.232.232 0 0 1 .362.02 4.714 4.714 0 0 1 .423.624c.222.403.373.806.413 1.219.02.232 0 .493-.04.775a6.245 6.245 0 0 1-.202.836 8.35 8.35 0 0 1-.252.695c-.06.141-.211.202-.342.131-.131-.07-.181-.241-.121-.393l.02-.04.05-.13a7.816 7.816 0 0 0 .162-.454 5.47 5.47 0 0 0 .181-.755c.04-.232.05-.433.04-.605a2.619 2.619 0 0 0-.342-.977 4.13 4.13 0 0 0-.333-.503l-.03-.03a.322.322 0 0 1 .02-.403zM7.404 15.88a6.215 6.215 0 0 1-.202.856 8.35 8.35 0 0 1-.252.685c-.06.14-.211.201-.342.13-.131-.07-.181-.241-.121-.392l.02-.04.05-.132a7.816 7.816 0 0 0 .162-.453 5.47 5.47 0 0 0 .181-.755c.04-.232.05-.433.03-.605a2.619 2.619 0 0 0-.332-.966 4.13 4.13 0 0 0-.333-.504l-.03-.04a.322.322 0 0 1 .02-.403.232.232 0 0 1 .353 0 4.714 4.714 0 0 1 .423.634c.222.403.373.816.413 1.219.02.232 0 .494-.04.776zm12.489.12c-.05.141-.201.222-.332.162l-.675-.303a20.87 20.87 0 0 0-7.826-2.105l-.856-.05h-.05l-.343-.02a920.482 920.482 0 0 0-1.33-.07l.03.06a6.426 6.426 0 0 1 .363 1.44c.03.342-.03.816-.171 1.42l-.151.625a21.444 21.444 0 0 1-.292 1.007l-.02.05a.161.161 0 0 0 0 .03c-.05.152-.202.222-.333.172-.13-.06-.201-.232-.15-.383v-.02l.03-.06.06-.222a18.845 18.845 0 0 0 .362-1.34c.121-.534.172-.967.151-1.208a3.062 3.062 0 0 0-.04-.272 5.963 5.963 0 0 0-.201-.796 8.078 8.078 0 0 0-.192-.494l-.04-.09-.02-.05-.02-.051c-.09-.201.04-.433.242-.423h.14l.403.03 1.21.06.382.02h.01l.856.061a21.222 21.222 0 0 1 7.987 2.135l.675.303c.131.06.201.231.141.382z"/></svg>