<svg role="img" viewBox="0 0 24 24" xmlns="http://www.w3.org/2000/svg"><title>Globe</title><path d="M12 0a12 12 0 1 0 0 24 12 12 0 0 0 0-24ZM1.54 12.75h3.74c.05 1.4.25 2.65.54 3.75h-3.3c-.55-1.18-.89-2.45-.98-3.75ZM12.75 6V1.66c.7.52 2.25 1.87 3.32 4.35h-3.32V6Zm3.88 1.5c.32 1.08.53 2.32.6 3.75h-4.48V7.5h3.88ZM10.9 1.92l.34-.26V6H7.92c.4-.9.86-1.67 1.3-2.28.62-.83 1.23-1.43 1.7-1.8Zm.34 5.58v3.75H6.78c.06-1.43.28-2.67.6-3.75h3.87Zm-5.97 3.75H1.54c.1-1.34.44-2.6.99-3.75h3.29c-.3 1.1-.49 2.36-.54 3.75Zm1.5 1.5h4.47v3.75H7.37a15.42 15.42 0 0 1-.6-3.75h.01ZM11.25 18v4.34c-.7-.52-2.25-1.87-3.32-4.34h3.32Zm1.84 4.08-.34.26V18h3.33c-.4.9-.85 1.65-1.31 2.27-.49.67-1.05 1.27-1.68 1.8v.01Zm-.34-5.58v-3.75h4.47a15.7 15.7 0 0 1-.6 3.75h-3.87Zm5.97-3.75h3.74c-.1 1.3-.43 2.57-.99 3.75h-3.29c.3-1.1.49-2.36.54-3.75Zm0-1.5a17.03 17.03 0 0 0-.54-3.75h3.3c.54 1.15.88 2.41.98 3.75h-3.74ZM20.6 6h-2.92a13.36 13.36 0 0 0-2.33-3.94c2.15.72 3.98 2.12 5.25 3.94ZM8.65 2.06c-1 1.17-1.79 2.5-2.33 3.94H3.39a10.52 10.52 0 0 1 5.26-3.94ZM3.4 18h2.92c.65 1.71 1.52 3 2.32 3.94A10.52 10.52 0 0 1 3.4 18Zm11.95 3.94c1-1.17 1.79-2.5 2.33-3.94h2.92a10.52 10.52 0 0 1-5.25 3.94Z"/></svg>