<svg role="img" viewBox="0 0 24 24" xmlns="http://www.w3.org/2000/svg"><title>glTF</title><path d="m 9.67095,16.290192 c 0.41193,-0.461887 0.62962,-1.136992 0.62962,-2.046246 V 9.1634981 H 9.43065 V 9.958333 H 9.42005 C 9.25511,9.650495 9.02626,9.4196965 8.73266,9.2656475 8.43906,9.1118685 8.11673,9.034839 7.76592,9.034839 c -0.47975,0 -0.88443,0.091299 -1.21375,0.2737782 -0.32932,0.1825288 -0.59444,0.4172373 -0.79483,0.7035758 -0.20066,0.286338 -0.34383,0.601426 -0.4298,0.945254 -0.086,0.343837 -0.12893,0.680415 -0.12893,1.009733 0,0.379548 0.0519,0.739575 0.15573,1.079493 0.10382,0.340208 0.25955,0.639106 0.46719,0.896974 0.20763,0.257879 0.46551,0.461887 0.77334,0.612317 0.30783,0.150429 0.66953,0.225498 1.08509,0.225498 0.17192,0 0.3455,-0.0215 0.52105,-0.0645 0.17555,-0.043 0.3402,-0.105489 0.49425,-0.188098 0.15378,-0.0823 0.29165,-0.186149 0.41361,-0.311458 0.12168,-0.12531 0.22187,-0.273789 0.30085,-0.445697 h 0.0212 v 0.365037 c 0,0.315088 -0.0304,0.601426 -0.0913,0.859305 -0.0608,0.257868 -0.15935,0.478067 -0.29527,0.660585 -0.13619,0.182529 -0.3081,0.325698 -0.51547,0.429798 -0.20763,0.103819 -0.46188,0.155729 -0.76245,0.155729 -0.15043,0 -0.30812,-0.0162 -0.4725,-0.0483 a 1.88243,1.8824179 0 0 1 -0.17331,-0.0427 10.19466,10.194595 0 0 1 -0.18168,-0.0659 c -0.006,-0.002 -0.0112,-0.005 -0.0168,-0.007 v 0.001 C 4.56248,15.197639 3.00993,13.699789 3.00993,11.99989 c 0,-2.7113027 3.94961,-4.9090885 8.82187,-4.9090885 2.7141,0 5.14772,0.618166 6.76613,1.6909691 C 16.83133,6.9841921 13.66427,5.7210503 10.04287,5.7205003 4.49689,5.7195003 5.6e-4,8.5299722 0,11.99816 c -2.8e-4,2.367185 2.09453,4.428781 5.18819,5.499625 2.48134,0.0849 3.74085,-0.375648 4.48266,-1.207593 z M 9.29641,12.600696 c -0.0608,0.257878 -0.15573,0.488677 -0.28466,0.692686 -0.12894,0.204018 -0.2989,0.368957 -0.51017,0.493986 -0.21126,0.12531 -0.46718,0.188099 -0.76804,0.188099 -0.30085,0 -0.55147,-0.0625 -0.75185,-0.188099 C 6.78102,13.662339 6.61999,13.4974 6.49831,13.293382 6.37635,13.089373 6.29067,12.862204 6.24043,12.611306 c -0.0502,-0.250618 -0.0751,-0.501237 -0.0751,-0.751855 0,-0.264848 0.0304,-0.519097 0.0913,-0.762735 0.0608,-0.243359 0.1574,-0.458257 0.28997,-0.644406 0.1323,-0.186149 0.30253,-0.334628 0.51017,-0.445697 0.20764,-0.1110796 0.45826,-0.1666192 0.75186,-0.1666192 0.28634,0 0.5297,0.0575 0.73035,0.1719192 0.2004,0.114709 0.36337,0.266808 0.48868,0.456587 0.12531,0.189769 0.21658,0.402717 0.2738,0.639096 0.0572,0.236388 0.086,0.476397 0.086,0.719765 2.7e-4,0.257588 -0.0301,0.515467 -0.091,0.773335 z m 0.79819,4.213053 c -0.52608,0.477517 -1.46604,1.022853 -2.7462,1.236902 0.85708,0.149039 1.7602,0.228579 2.69289,0.228849 3.6069,8.4e-4 6.76558,-1.258382 8.53665,-3.043411 -1.61813,1.066383 -4.042,1.673109 -6.74632,1.673109 -0.64218,-2.8e-4 -1.13364,-0.0229 -1.73702,-0.0954 z m 5.5535,-2.081407 H 14.33752 V 10.316951 H 12.69316 V 9.1941979 h 4.5996 v 1.1227531 h -1.64438 v 4.415391 z m 3.63732,0 H 17.97456 V 9.1941979 H 22.021 v 1.1227531 h -2.73559 v 1.036243 h 2.39455 v 1.122753 h -2.39455 z m -8.2224,-6.9179352 h 0.91289 v 6.9020252 h -0.91289 z m 12.0908,1.5422201 H 22.94868 V 9.8899535 H 22.76952 V 9.3566269 h -0.20513 v -0.154059 h 0.58914 z m 0.0801,-0.154059 h 0.26373 l 0.11833,0.4582571 h 0.002 L 23.73631,9.2025679 H 24 V 9.8899535 H 23.83143 V 9.3680668 h -0.002 L 23.68514,9.8899535 H 23.54839 L 23.40382,9.3680668 h -0.002 V 9.8899535 H 23.23333 V 9.2025679 Z"/></svg>
