<svg role="img" viewBox="0 0 24 24" xmlns="http://www.w3.org/2000/svg"><title>glTF</title><path d="M9.67095 16.2902c.41193-.4619.62962-1.137.62962-2.04625V9.1635h-.86992v.79483h-.0106c-.16494-.30784-.39379-.53863-.68739-.69268-.2936-.15378-.61593-.23081-.96674-.23081-.47975 0-.88443.0913-1.21375.27378-.32932.18253-.59444.41723-.79483.70357-.20066.28634-.34383.60143-.4298.94526-.086.34383-.12893.68041-.12893 1.00973 0 .37955.0519.73957.15573 1.0795.10382.3402.25955.6391.46719.89697.20763.25788.46551.46188.77334.61231.30783.15043.66953.2255 1.08509.2255.17192 0 .3455-.0215.52105-.0645.17555-.043.3402-.10549.49425-.1881.15378-.0823.29165-.18615.41361-.31145.12168-.12531.22187-.2738.30085-.4457h.0212v.36504c0 .31508-.0304.60142-.0913.8593-.0608.25787-.15935.47807-.29527.66059-.13619.18252-.3081.3257-.51547.4298-.20763.10381-.46188.15572-.76245.15572-.15043 0-.30812-.0162-.4725-.0483a1.88243 1.88242 0 0 1-.17331-.0427 10.19466 10.1946 0 0 1-.18168-.0659c-.006-.002-.0112-.005-.0168-.007v.001c-2.35966-.88162-3.91221-2.37947-3.91221-4.07937 0-2.7113 3.94961-4.90909 8.82187-4.90909 2.7141 0 5.14772.61817 6.76613 1.69097-1.7666-1.79758-4.93366-3.06072-8.55506-3.06127C4.49689 5.7195.00056 8.52997 0 11.99816c-.00028 2.36719 2.09453 4.42878 5.18819 5.49962 2.48134.0849 3.74085-.37564 4.48266-1.20759zm-.37454-3.6895c-.0608.25787-.15573.48867-.28466.69268-.12894.20402-.2989.36896-.51017.49399-.21126.1253-.46718.1881-.76804.1881-.30085 0-.55147-.0625-.75185-.1881-.20067-.12503-.3617-.28997-.48338-.49399-.12196-.204-.20764-.43118-.25788-.68207-.0502-.25062-.0751-.50124-.0751-.75186 0-.26485.0304-.5191.0913-.76273.0608-.24336.1574-.45826.28997-.64441.1323-.18615.30253-.33463.51017-.4457.20764-.11108.45826-.16662.75186-.16662.28634 0 .5297.0575.73035.17192.2004.11471.36337.26681.48868.45659.12531.18977.21658.40272.2738.6391.0572.23638.086.4764.086.71976.00027.25759-.0301.51547-.091.77334zm.79819 4.21305c-.52608.47752-1.46604 1.02285-2.7462 1.2369.85708.14904 1.7602.22858 2.69289.22885 3.6069.00084 6.76558-1.25838 8.53665-3.04341-1.61813 1.06638-4.042 1.6731-6.74632 1.6731-.64218-.00027-1.13364-.0229-1.73702-.0954zm5.5535-2.0814h-1.31058v-4.4154h-1.64436V9.1942h4.5996v1.12275h-1.64438v4.4154zm3.63732 0h-1.31086V9.1942H22.021v1.12275h-2.73559v1.03624h2.39455v1.12276h-2.39455zm-8.2224-6.91794h.91289v6.90202h-.91289zm12.0908 1.54222h-.20514v.53332h-.17916v-.53332h-.20513v-.15406h.58914zm.0801-.15406h.26373l.11833.45826h.002l.11833-.45826H24v.68738h-.16857v-.52188h-.002l-.14429.52188h-.13675l-.14457-.52188h-.002v.52188h-.16849v-.68738Z"/></svg>