<svg role="img" viewBox="0 0 24 24" xmlns="http://www.w3.org/2000/svg"><title>glTF</title><path d="M10.54 16.676c.449-.504.686-1.24.686-2.23V8.909h-.948v.866h-.011a1.77 1.77 0 0 0-.75-.755 2.24 2.24 0 0 0-1.053-.252q-.784 0-1.323.299a2.54 2.54 0 0 0-.866.767 3.1 3.1 0 0 0-.469 1.03q-.14.561-.14 1.1 0 .62.17 1.177.169.555.509.977t.843.668 1.182.245a2.4 2.4 0 0 0 1.107-.275q.251-.135.45-.34.2-.204.328-.485h.023v.398q0 .515-.099.936a1.9 1.9 0 0 1-.322.72 1.6 1.6 0 0 1-.562.469q-.34.17-.83.17a2.7 2.7 0 0 1-.704-.1l-.198-.072-.019-.007C4.973 15.486 3.28 13.854 3.28 12c0-2.955 4.305-5.35 9.615-5.35 2.958 0 5.61.673 7.374 1.843-1.925-1.96-5.377-3.336-9.324-3.337C4.901 5.156.001 8.218 0 11.998c0 2.58 2.283 4.827 5.654 5.994 2.705.092 4.077-.41 4.886-1.316m-.408-4.021q-.1.42-.31.755a1.6 1.6 0 0 1-.556.538q-.346.205-.837.205-.492 0-.82-.205a1.6 1.6 0 0 1-.527-.538 2.3 2.3 0 0 1-.28-.744 4 4 0 0 1-.083-.82q0-.432.1-.83.099-.399.316-.703.216-.304.556-.486.34-.18.82-.181.467 0 .795.187.328.188.533.498t.298.696.094.785q0 .42-.1.843m.87 4.591c-.574.52-1.598 1.115-2.993 1.348.934.163 1.918.25 2.935.25 3.93 0 7.373-1.372 9.304-3.317-1.764 1.162-4.406 1.823-7.353 1.823-.7 0-1.236-.025-1.893-.104m6.052-2.268h-1.428v-4.812h-1.792V8.942h5.013v1.224h-1.792zm3.965 0h-1.43V8.942H24v1.224h-2.981v1.13h2.61v1.223h-2.61Zm-8.962-7.54h.995v7.523h-.995z"/></svg>