<svg xmlns="http://www.w3.org/2000/svg" role="img" viewBox="0 0 24 24"><title>glTF</title><path d="m 9.6709497,15.73118 c 0.4119283,-0.46189 0.6296173,-1.137 0.6296173,-2.04626 V 8.6044396 H 9.4306507 v 0.79484 h -0.0106 c -0.1649393,-0.30784 -0.3937883,-0.53864 -0.6873871,-0.69269 -0.2935988,-0.15378 -0.6159374,-0.23081 -0.966746,-0.23081 -0.479748,0 -0.8844263,0.0913 -1.2137449,0.27378 -0.3293186,0.18253 -0.5944475,0.41724 -0.7948367,0.70358 -0.2006592,0.28634 -0.3438286,0.6014304 -0.4297882,0.9452604 -0.086,0.34384 -0.1289395,0.68042 -0.1289395,1.00974 0,0.37955 0.0519,0.73958 0.1557294,1.0795 0.1038196,0.34021 0.2595489,0.63911 0.467188,0.89698 0.2076392,0.25788 0.4655181,0.46189 0.7733468,0.61232 0.3078287,0.15043 0.6695272,0.2255 1.0850855,0.2255 0.1719193,0 0.3455086,-0.0215 0.5210478,-0.0645 0.1755493,-0.043 0.3402086,-0.10549 0.494258,-0.1881 0.1537793,-0.0823 0.2916488,-0.18615 0.4136082,-0.31146 0.1216795,-0.12531 0.2218691,-0.27379 0.3008488,-0.4457 h 0.0212 v 0.36504 c 0,0.31509 -0.0304,0.60143 -0.0913,0.85931 -0.0608,0.25787 -0.1593494,0.47807 -0.2952688,0.66059 -0.1361894,0.18253 -0.3081087,0.3257 -0.5154678,0.4298 -0.2076392,0.10382 -0.4618881,0.15573 -0.7624569,0.15573 -0.1504293,0 -0.3081187,-0.0162 -0.472498,-0.0483 -0.0594,-0.0117 -0.1172095,-0.026 -0.1733093,-0.0427 -0.0611,-0.0215 -0.1216795,-0.0435 -0.1816792,-0.0659 -0.006,-0.002 -0.0112,-0.005 -0.0168,-0.007 v 0.001 C 4.562481,14.63862 3.0099275,13.14076 3.0099275,11.44085 c 0,-2.7113204 3.9496135,-4.9091204 8.8218735,-4.9091204 2.714098,0 5.147718,0.61817 6.766132,1.69098 -1.766603,-1.79759 -4.93366,-3.06074 -8.555065,-3.06129 C 4.4968913,5.1604196 5.6002574e-4,7.9709096 2.8065639e-8,11.43912 -2.7997076e-4,13.80632 2.0945313,15.86793 5.1881884,16.93878 7.669528,17.02368 8.9290428,16.56313 9.6708497,15.73118 Z M 9.2964113,12.04166 c -0.0608,0.25788 -0.1557294,0.48868 -0.2846588,0.69269 -0.1289395,0.20402 -0.2988988,0.36896 -0.5101679,0.49399 -0.2112691,0.12531 -0.4671881,0.1881 -0.7680468,0.1881 -0.3008488,0 -0.5514677,-0.0625 -0.7518469,-0.1881 C 6.7810217,13.10331 6.6199924,12.93837 6.4983129,12.73435 6.3763534,12.53034 6.2906738,12.30317 6.240434,12.05227 c -0.0502,-0.25062 -0.0751,-0.50124 -0.0751,-0.75186 0,-0.26485 0.0304,-0.5191 0.0913,-0.76274 0.0608,-0.24336 0.1573994,-0.45826 0.2899688,-0.6444104 0.1322895,-0.18615 0.3025288,-0.33463 0.5101679,-0.4457 0.2076391,-0.11108 0.4582581,-0.16662 0.7518569,-0.16662 0.2863388,0 0.5296978,0.0575 0.7303569,0.17192 0.2003892,0.11471 0.3633685,0.26681 0.488678,0.45659 0.1253095,0.1897704 0.2165791,0.4027204 0.2737888,0.6391004 0.0572,0.23639 0.086,0.4764 0.086,0.71977 2.8e-4,0.25759 -0.0301,0.51547 -0.091,0.77334 z m 0.7981867,4.21308 c -0.5260779,0.47752 -1.466034,1.02286 -2.7461986,1.23691 0.8570764,0.14904 1.7601926,0.22858 2.6928886,0.22885 3.606895,8.4e-4 6.765582,-1.25839 8.536655,-3.04343 -1.618134,1.06639 -4.041994,1.67312 -6.746322,1.67312 -0.642178,-2.8e-4 -1.133646,-0.0229 -1.737023,-0.0954 z m 5.553507,-2.08142 H 14.33752 V 9.7578996 h -1.644363 v -1.12276 h 4.599601 v 1.12276 H 15.648385 V 14.17332 Z m 3.637315,0 H 17.974555 V 8.6351396 h 4.046453 v 1.12276 H 19.28542 V 10.79415 h 2.39455 v 1.12276 H 19.28542 Z M 11.063024,7.2553396 H 11.97591 V 14.15741 h -0.912886 z m 12.09079,1.54223 h -0.20513 v 0.53333 h -0.179169 v -0.53333 h -0.205129 v -0.15406 h 0.589148 z m 0.0801,-0.15406 h 0.263739 l 0.11833,0.45826 h 0.002 l 0.118329,-0.45826 H 24 v 0.68739 h -0.168569 v -0.52189 h -0.002 l -0.14429,0.52189 h -0.136749 l -0.14457,-0.52189 h -0.002 v 0.52189 h -0.168489 v -0.68739 z"/></svg>
