<svg role="img" xmlns="http://www.w3.org/2000/svg" viewBox="0 0 24 24"><title>GNOME icon</title><path d="M19.705 0c-4.993 0-5.93 7.111-3.121 7.111C19.392 7.111 24.698 0 19.705 0zM11.99.871c-.079 0-.162.004-.25.016-2.81.364-1.822 5.252-.326 5.343 1.449.089 3.034-5.35.576-5.359zM7.121 2.805c-.148.003-.31.038-.486.111-2.259.932-.344 4.778.922 4.52 1.167-.238 1.317-4.67-.436-4.631zM3.523 5.82c-.196-.006-.408.059-.634.215-1.808 1.25.608 4.267 1.672 3.799.93-.41.337-3.967-1.038-4.014zm10.032 2.307c-3.836.034-8.719 1.978-9.569 5.785C3.042 18.138 7.875 24 12.916 24c2.48 0 5.34-2.24 5.875-5.076.409-2.163-4.81-1.297-4.623.135.225 1.715-1.258 2.563-2.711 1.457-4.624-3.521 7.657-5.278 6.848-10.088-.263-1.56-2.291-2.323-4.75-2.301Z"/></svg>
