<svg role="img" viewBox="0 0 24 24" xmlns="http://www.w3.org/2000/svg"><title>GNOME</title><path d="M19.66054,0.07c-4.96442,0 -5.89568,7.06983 -3.10291,7.06983c2.79236,0 8.06753,-7.06983 3.10291,-7.06983zM11.41724,6.26379c1.48699,0.09079 3.11845,-5.67386 0.32367,-5.3113c-2.79377,0.36256 -1.81126,5.22051 -0.32367,5.3113zM4.60242,9.84582c1.05758,-0.46546 0.13621,-5.01815 -1.66214,-3.77652c-1.79754,1.24183 0.60456,4.24178 1.66214,3.77652zM7.58224,7.46285c1.25896,-0.25664 1.32798,-5.42005 -0.91713,-4.49378c-2.24551,0.92648 -0.34082,4.75082 0.91713,4.49378l0,0zM14.15633,19.01778c0.22338,1.70567 -1.2515,2.54801 -2.6959,1.44843c-4.59817,-3.50031 7.61331,-5.24654 6.80837,-10.02863c-0.66812,-3.9694 -12.84913,-2.74735 -14.23623,3.46359c-0.93893,4.20082 3.86487,10.02883 8.87732,10.02883c2.46586,0 5.31008,-2.22621 5.8422,-5.04639c0.4064,-2.15055 -4.7822,-1.28884 -4.59575,0.13417l0,0z"/></svg>
