<svg role="img" viewBox="0 0 24 24" xmlns="http://www.w3.org/2000/svg"><title>GNOME</title><path d="M19.66054,0.03667c-4.96442,0 -5.89568,7.08959 -3.10291,7.08959c2.79236,0 8.06753,-7.08959 3.10291,-7.08959zM11.41724,6.24777c1.48699,0.09105 3.11845,-5.68972 0.32367,-5.32614c-2.79377,0.36357 -1.81126,5.2351 -0.32367,5.32614zM4.60242,9.8398c1.05758,-0.46676 0.13621,-5.03217 -1.66214,-3.78707c-1.79754,1.2453 0.60456,4.25363 1.66214,3.78707zM7.58224,7.45017c1.25896,-0.25735 1.32798,-5.43519 -0.91713,-4.50633c-2.24551,0.92907 -0.34082,4.76409 0.91713,4.50633l0,0zM14.15633,19.03739c0.22338,1.71044 -1.2515,2.55513 -2.6959,1.45247c-4.59817,-3.51009 7.61331,-5.2612 6.80837,-10.05665c-0.66812,-3.98049 -12.84913,-2.75503 -14.23623,3.47327c-0.93893,4.21256 3.86487,10.05685 8.87732,10.05685c2.46586,0 5.31008,-2.23243 5.8422,-5.06049c0.4064,-2.15656 -4.7822,-1.29244 -4.59575,0.13454l0,0z"/></svg>
