<svg xmlns="http://www.w3.org/2000/svg" viewBox="0 0 16 16"><path d="M3.382 9.289a.415.415 0 0 0-.346.226c-.077.14-.259.162-.344.134-.14-.047-.321-.08-.496.045s-.364.03-.331-.197c.033-.227.115-.43.333-.554.476-.274.145-.464.406-.74.262-.274.204-.358.195-.732-.884-.133-1.385-.388-1.944-1.087C.295 5.685.078 5.11.02 4.234-.038 3.356.012 2.788.391 2.06.77 1.334 1.17.984 1.86.621 2.55.256 3.227.17 3.853.18c.626.01 1.043.056 1.396.258.354.202.677.456.883.457A.696.696 0 0 0 6.58.767c.027.68-.585.739-1.132.753-.547.014-.883-.212-1.387-.128-.503.085-1.328.314-1.73 1.013-.402.7-.416.947-.382 1.534.033.586.538 1.024.823 1.029.285.004.348-.078.598-.24.25-.164 1.523-1.74 1.957-2.094.435-.354.864-.464 1.327-.47.463-.005.581.01.955.164.373.153.603.435.904.607.154-.09.25-.226.39-.33.506-.368.768-.468 1.368-.41.345.034.78.231 1.04.457.462.402.844.961 1.152 1.386.24.331.523.727.927.851.44.135.772-.435.821-.752.028-.18.064-.337.064-.534 0-.198-.02-.437-.077-.643a2.29 2.29 0 0 0-.26-.58c-.172-.277-.453-.566-.745-.715-.164-.083-.55-.235-.794-.24-.299-.007-.526.093-.802.112-.333.023-.93.098-1.191-.16-.167-.164-.188-.274-.216-.488.073.061.176.1.268.109.209.017.404-.153.573-.252.14-.082.336-.227.519-.3.469-.19 1.045-.185 1.54-.134.397.04.912.217 1.26.414.35.198.687.532.933.846.311.396.48.735.593 1.229.144.63.184 1.577.01 2.199-.137.49-.592 1.241-.979 1.61-.382.364-.823.54-1.324.636.02.1.022.195.048.278.037.118.108.25.253.208.057-.017.088-.031.164.035.077.067.037.324-.177.44-.109.058-.223.071-.397.075a3.756 3.756 0 0 1-.635-.03c-.188-.032-.301-.182-.51-.206-.323-.036-.57-.27-.83-.436-.108-.07-.145-.07-.207-.106.034.103.079.21.101.31.023.098.013.19.025.27.012.079.034.14.047.205.051.046.068.116.155.138.087.023.223-.012.312-.024.09-.012.149-.06.219-.047.07.013.136.063.194.11.059.047.11.054.157.17.047.118.09.358.097.518.007.16-.011.304-.059.432-.047.127-.09.183-.218.309s-.337.31-.546.44c.038.056.055.108.115.17.06.062.185.131.24.196.056.065.085.112.085.185a.392.392 0 0 1-.062.248c-.148.199-.322.234-.535.328.036.223.065.382.013.605-.02.091-.068.297-.18.35-.112.053-.328.027-.465.05-.137.02-.213.042-.32.063-.065.093-.161.197-.194.28-.033.085-.023.115.004.2.028.086.123.211.15.312.026.1.032.208.007.309a.542.542 0 0 1-.154.263c-.086.09-.255.16-.339.232-.084.073-.168.081-.145.201.032.165.273.432.447.496a.53.53 0 0 0 .371-.027c-.009.14-.13.235-.21.329.215-.062.424-.18.569-.336-.045.136-.2.354-.43.545-.23.191-.229.152-.344.228.21.042.404.031.566.002a1.12 1.12 0 0 1-.427.138c-.193.02-.312.006-.486-.036-.174-.042-.333-.2-.543-.31.02.079.035.173.123.253.09.08.223.121.366.19-.182-.02-.372-.026-.55-.065-.133-.03-.221-.06-.318-.108-.096-.048-.17-.118-.256-.176.04.078.053.17.122.234.07.065.184.089.275.133-.095-.002-.187.019-.286-.006a.807.807 0 0 1-.296-.14 2.144 2.144 0 0 1-.297-.265c-.088-.096-.197-.22-.23-.308-.032-.088.02-.15.03-.225-.06.04-.135.062-.182.12-.047.058-.088.111-.067.212.02.1.114.224.18.337-.197-.161-.307-.223-.354-.417-.043-.181.07-.346.156-.483.043-.069.107-.132.147-.198-.09-.087-.19-.161-.267-.26-.076-.1-.108-.234-.185-.328-.078-.095-.183-.155-.274-.232.08.171.212.382.24.515.029.133-.032.214-.079.286-.047.072-.123.088-.195.132-.073.044-.185.01-.228.075-.043.065-.055.164-.014.229l.17.266a.806.806 0 0 1-.218-.187c-.049-.065-.123-.125-.133-.212-.01-.088-.015-.164.042-.242.056-.078.212-.104.281-.164.07-.06.109-.099.105-.176-.004-.078-.08-.133-.145-.182-.199-.149-.453-.286-.622-.466a.621.621 0 0 1-.16-.253c-.02-.07.001-.125.048-.21.048-.087.21-.202.23-.295.02-.094-.063-.114-.137-.147-.074-.033-.214.017-.283-.04-.068-.058.02-.178-.057-.244s-.254-.03-.346-.1a.478.478 0 0 1-.16-.263.556.556 0 0 1-.014-.291c.021-.075.085-.088.124-.127.039-.038.072-.07.02-.128-.05-.058-.22.003-.317-.071s-.037-.252-.106-.327c-.069-.074-.192-.045-.257-.069-.065-.024-.09.06-.13-.073-.04-.133-.041-.531-.095-.68-.053-.148-.159-.01-.207-.157-.05-.148-.003-.384-.025-.606l-.1-.607c-.348.234-.578.308-.952.374-.031.915-.117 1.454.194 2.47.31 1.014.939 1.613 1.787 2.472-1.12-.838-1.653-1.52-1.988-2.393-.334-.873-.27-1.603-.236-2.444zm5.946-.368c.086.004.19.026.251.065.06.04.125.071.18.127.137.14.24.308.285.501.029.123.033.281.043.426-.041-.134-.069-.273-.128-.393-.093-.189-.251-.373-.448-.458a.238.238 0 0 0-.143-.018c.016.027.042.05.044.089 0 .039-.008.116-.075.148-.107.052-.226.015-.309-.058a.274.274 0 0 1-.068-.306c.052-.128.25-.128.368-.123zm-1.08-.182c.011-.22.09-.405.288-.513a1.21 1.21 0 0 1 .403-.144c.138-.017.475-.005.678.088.155.07.261.181.398.262.137.081.234.135.364.226.2.14.317.292.455.384.067.044.16.038.249.065-.069.02-.159.043-.233.019a1.05 1.05 0 0 1-.293-.175 1.988 1.988 0 0 0-.331-.24c-.083-.048-.219-.105-.31-.164-.09-.059-.248-.189-.335-.233a1.083 1.083 0 0 0-.434-.083c-.17.005-.417.033-.548.152-.131.12-.181.224-.151.378.049-.057.082-.128.13-.17.103-.088.22-.092.348-.075.143.018.215.1.262.236-.032-.023-.09-.074-.136-.09a.328.328 0 0 0-.292.028c-.12.065-.087.16-.104.265-.008.05-.027.088-.04.132a.26.26 0 0 1-.12-.064c.001.05-.006.093.004.148.01.056.037.122.056.182-.084-.083-.17-.16-.223-.268a.709.709 0 0 1-.085-.346zm.145-1.6c.061-.09.08-.23.117-.344-.015.144.014.302-.056.406-.07.105-.194.086-.296.117.08-.06.173-.087.235-.179zM6.922 9.275c.079-.064.292-.013.45-.001l-.342.088c-.011.039-.006.083-.032.116-.027.034-.076.046-.114.069.004-.103-.041-.208.038-.272zM8.044 4.84c.095.05.215.119.3.12.083.003.105-.054.155-.087.077.253.167.531.299.761.055.097.09.052.133.149.042.096.06.293.1.417.04.124.092.214.139.322-.117-.166-.268-.377-.334-.515-.065-.138-.023-.15-.076-.281-.053-.132-.16-.336-.239-.504-.057.007-.127.018-.17.004-.044-.013-.036-.06-.075-.089-.039-.03-.105-.018-.16-.066-.055-.047-.067-.145-.072-.231zm-.512 1.25c.09-.008.2.016.284.011.084-.005.144-.026.216-.04-.014-.126-.001-.358-.117-.442-.076-.054-.385-.013-.467.004-.186.04-.402.151-.582.22.172-.12.321-.231.527-.293.125-.037.414-.086.542-.051.059.015.07.04.106.09.122.17.122.316.153.515.031.048.064.08.09.13a.63.63 0 0 1 .046.193c-.032-.046-.012-.104-.1-.138-.09-.035-.225-.003-.344.01.087.063.13.123.134.255.004.156-.128.268-.266.278-.19.015-.289-.027-.366-.19-.034-.071-.01-.157-.012-.227-.23.016-.226.009-.394.148.092.134.149.21.3.29.084.045.18.089.284.107.105.018.277.035.387.018a.42.42 0 0 0 .253-.124c.082-.075.09-.183.121-.269a.777.777 0 0 1-.047.247c-.093.18-.253.235-.445.235-.184 0-.411-.042-.582-.113-.137-.056-.364-.217-.417-.356-.037-.095-.008-.212-.012-.318.19-.126.236-.095.46-.132.094-.016.159-.05.248-.058zm-1.103-.853c.005-.076.014-.074.02-.111-.172-.046-.241.066-.342.274-.038.077 0 .124-.041.175-.04.051-.106.044-.172.093-.066.05-.131.143-.193.194-.126.105-.297.168-.444.239.1-.074.295-.186.358-.293.033-.057.028-.165.08-.216.052-.05.07-.086.137-.1.067-.012.04-.09.062-.152.021-.061.064-.105.11-.167.046-.062.104-.154.194-.188.09-.033.231.003.3-.016.068-.02.029-.07.079-.1s.146-.016.213-.048c.117-.057.174-.151.245-.252.01.218.007.374-.071.58-.088.23-.178.366-.428.508-.086.049-.172.066-.243.092.041-.057.101-.082.125-.171.023-.09.006-.266.011-.341zm4.04 1.062c-.118.008-.146-.008-.242.06l.155.24c-.004-.158.011-.19.088-.3zm-.31-.115c.164-.07.308-.127.487-.138.072-.005.183.006.256.01.062-.091.14-.163.17-.267.019-.069.01-.389-.025-.472-.098-.241-.194-.252-.33-.39-.098-.1-.102-.253-.132-.425-.01-.063-.041-.142-.056-.207a2.647 2.647 0 0 0-.572-.03c.099-.095.194-.181.223-.324a.638.638 0 0 0-.076-.445c-.08-.128-.21-.24-.329-.344-.119-.104-.29-.19-.402-.275.147-.052.296-.13.44-.157.373-.072.695.038 1.056.256.21.127.382.247.601.477.22.229.491.65.703.899.212.25.383.447.568.595.185.15.353.192.529.287l.274.292.223-.275.357.04.074-.401.328-.09-.053-.541.236-.168-.178-.336.18-.368-.234-.42.09-.405-.272-.232-.035-.43-.38-.145-.152-.374-.426-.005-.21-.278-.287.02-.32-.035-.18-.133-.264.174-.318-.166-.631.24.412-.358.426-.068.327-.084.442.145.388-.098.375.221.397-.021.195.35.394.045.214.388.248.136.066.498.222.21-.098.435.26.33-.243.353.26.221-.333.296.338.353-.408.131.266.378-.334.058.219.415-.376-.005.19.311-.413-.05.098.448-.311-.274-.107.543-.215-.39-.117.486-.265-.358.007.51-.293-.459c.061.26.049.545.22.79.529-.072.874-.205 1.28-.595.369-.355.81-1.096.93-1.566.136-.535.14-1.521.006-2.067-.13-.525-.298-.776-.598-1.205-.286-.304-.568-.626-.932-.843-.535-.32-1.22-.405-1.829-.397a2.17 2.17 0 0 0-.765.143c-.352.128-.634.408-.992.546-.117.045-.211.046-.303-.003.09.18.188.261.413.327.163.047.55.017.818-.007.286-.027.436-.112.826-.107.381.006.683.15.848.245.341.195.585.41.798.753.116.188.198.4.255.617.058.216.083.458.087.67.004.212-.013.401-.064.592-.122.446-.39.9-.939.83-.336-.042-.842-.673-1.012-.905-.343-.467-.695-.984-1.125-1.373a1.734 1.734 0 0 0-.975-.433c-.662-.06-.858.065-1.356.476.101.032.2.05.304.097.23.104.441.238.625.41.193.18.28.295.286.553.005.172-.136.31-.266.433-.079.076-.184.145-.248.204-.085.078-.19.164-.083.288.04.047.11.082.168.126.094.069.05.326-.072.395a.407.407 0 0 1-.475-.04c.164-.024.268-.046.263-.18-.002-.077-.1-.142-.198-.186-.233-.107-.41-.09-.642-.258-.235-.17-.24-.262-.304-.527-.113.011-.218.014-.369.064s-.319.17-.456.2c-.347.074-.416.052-.605.003-.334-.087-.768.061-1.2.2-.072.022-.362 0-.557.068a3.675 3.675 0 0 0-.97.569c-.37.312-.857 1.246-1.132 2.318-.03.326.063.545-.142.704-.205.16-.2.567-.27.682-.069.114-.15.063-.3.224-.149.16-.225.134-.222.437.13-.084.318-.183.483-.19.147-.004.148.188.524-.183.2-.199.587-.205.855-.293.268-.087.75-.268 1.234-.808.483-.54.715-1.11.808-1.932.015.145.041.31-.021.712-.063.403-.197.854.086 1.396l.177.337c-.105-.144-.31-.378-.373-.545l-.142-.385c-.32.502-.393.591-.836.95-.018.223-.022.455.05.669.073.213-.043.458.013.599.055.14.183.06.225.202.042.142-.022.423.043.562.065.138.224.054.301.1.077.044.103.105.144.164.041.059-.016.198.068.243.084.045.214.007.302.05.087.044.1.148.08.241-.022.094-.115.137-.156.232a.245.245 0 0 0 .013.248c.05.087.158.135.267.18.108.043.26.019.373.08.112.06.213.182.272.27.059.088.075.15.072.243a.683.683 0 0 1-.09.289c-.05.09-.158.198.012.369.17.17.164.097.262.208-.011-.192-.09-.348-.032-.492.058-.145.232-.17.323-.235.092-.065.145-.154.217-.231 0 .1.01.206-.001.28-.023.152-.068.287.158.311.102.011.199-.055.306-.094-.056.1-.154.181-.169.302a.525.525 0 0 0 .087.372c.083.12.227.208.333.278.105.07.162.076.243.114.004.118-.02.244-.006.355.013.112.049.21.113.302.065.093.168.146.265.214-.053-.125-.161-.243-.16-.373.002-.131.04-.224.168-.34.128-.116.426-.217.567-.33a.695.695 0 0 0 .237-.29c.05-.11.036-.287.046-.385.046.137.053.18.068.325.015.144-.084.347-.126.453a.693.693 0 0 0 .34-.35c.038.023.019.083.032.2.063-.061.133-.109.196-.167.062-.059.13-.11.162-.191.03-.081.018-.168-.005-.262-.023-.095-.129-.204-.186-.308-.056-.103.01-.204.007-.329-.114-.02-.21-.077-.342-.059-.13.02-.28.166-.414.168-.133.001-.209-.124-.318-.158-.11-.035-.22-.03-.33-.046.139-.134.68-.198 1.051-.258a6.63 6.63 0 0 1 .98-.088c.147-.003.337.046.44.017.102-.03.08-.1.11-.176.086-.212.044-.402-.003-.616-.296-.035-.605-.077-.904-.054-.292.022-.638.161-.94.17-.261.009-.65-.05-.874-.187-.275-.167-.488-.527-.563-.643-.123-.188-.278-.557-.373-.726-.094-.169-.115-.216-.193-.286-.079-.07-.186-.076-.28-.114.108.01.225-.023.322.032.147.084.31.432.401.584.097-.324.074-.45.353-.633-.224.252-.23.443-.285.74.187.307.447.796.787.931.123.05.334.08.467.097.414.05.813-.08 1.219-.18.297-.074.598-.044.959-.023.122.007.411-.067.471-.19a.22.22 0 0 0-.016-.22c-.047-.07-.17-.105-.237-.169-.066-.064-.104-.14-.157-.21a4.287 4.287 0 0 1-.707.078c.147-.06.288-.095.44-.154a2.63 2.63 0 0 0 .45-.24c.124-.081.202-.128.292-.223.089-.095.203-.192.269-.308.066-.116.076-.246.08-.39.003-.143-.003-.344-.058-.46-.056-.115-.162-.15-.248-.177-.085-.027-.144.042-.233.051-.089.01-.172.065-.301.005a1.124 1.124 0 0 1-.412-.367c-.13-.183-.223-.482-.356-.712-.228-.397-.514-.767-.786-1.135-.023-.09-.056-.216-.068-.339-.02-.214-.023-.437.044-.646.05-.16.125-.329.292-.394a.322.322 0 0 1 .212-.015c.06.022.119.09.095.168-.026.086-.085.089-.126.132a.464.464 0 0 0-.122.22c.074-.002.175-.007.236.009.08.02.153.073.194.186-.095-.084-.142-.123-.26-.126-.055-.001-.121.018-.181.027-.023.073-.036.163-.067.22-.032.056-.094.042-.117.108a.635.635 0 0 0-.013.26zm.828-.099c.037.014.05.018.097.053.046.035.11.07.146.153a.584.584 0 0 1 .027.266c-.032-.009-.076-.003-.109-.031s-.053-.093-.095-.12c-.043-.028-.078-.022-.125-.028a.4.4 0 0 1 .024.2c-.024.136-.104.205-.234.221-.056.007-.146-.011-.195-.02.023.05.061.095.084.146.11-.016.19-.013.25-.04.059-.028.122-.09.197-.116.076-.026.143-.026.226-.039-.065.056-.108.112-.173.169l.143.415c.101.064.196.097.323.175.128.078.28.218.447.294.166.076.264.118.438.15.173.033.311.174.482.197.17.022.49.027.62.014.15-.014.344-.091.362-.255-.126.03-.317.003-.413-.233-.043-.104-.022-.297-.088-.42-.065-.124-.157-.164-.266-.316-.11-.153-.288-.393-.388-.597-.1-.205-.124-.436-.209-.619-.085-.183-.213-.33-.312-.472-.216-.308-.39-.518-.747-.674-.172-.075-.367-.095-.55-.142-.075.033-.178.07-.196.158a.355.355 0 0 0 .08.281c.106.11.263.228.325.402.04.112.051.487.017.588-.036.106-.119.17-.188.24zm.035.887c-.033.028-.058.058-.112.081-.053.024-.126.03-.196.048.099.154.203.31.298.472.095.162.177.34.268.51-.005-.098.001-.201-.013-.292-.014-.091-.055-.17-.096-.307-.041-.137-.091-.323-.149-.512zM8.356 3.58c-.014.151.012.388.043.537.038.178.074.27.218.377.265.196.433.163.637.277.096.054.219.145.255.24.035.097-.024.2-.097.242.128.019.272-.126.212-.274-.03-.073-.17-.106-.214-.18a.28.28 0 0 1-.022-.224c.036-.135.303-.258.398-.364.145-.165.2-.302.118-.513-.115-.297-.561-.536-.828-.652-.122-.054-.191-.057-.286-.086.195.115.4.206.5.461.082.214.01.295.013.48.002.087.115.13.166.184.043.048.04.083.005.148A.17.17 0 0 0 9.4 4.1c-.075-.053-.156-.041-.196-.15-.06-.165.06-.322-.075-.507-.1-.139-.235-.294-.416-.298a.722.722 0 0 0-.241.038l-.122-.147-.003-.002c-.248-.226-.418-.413-.765-.568-.348-.156-.52-.18-.919-.17-.398.008-.794.042-1.256.44-.462.399-1.653 1.924-1.942 2.117-.288.193-.352.259-.713.259-.36 0-.924-.51-.946-1.148-.022-.638-.03-.865.413-1.633.443-.768 1.246-1.004 1.842-1.084.596-.08.954.13 1.395.131.44.001.876-.075 1.005-.425-.063.037-.147.08-.384.067-.237-.012-.566-.287-.935-.47-.37-.184-.78-.206-1.308-.216-.527-.01-1.185.03-1.837.383C1.345 1.067.9 1.44.522 2.13.143 2.819.087 3.38.148 4.215c.06.834.318 1.454.813 2.065.496.61.99.909 1.883 1.02l.188-.829-.335.481.008-.535-.303.377-.134-.511-.245.41-.122-.57-.357.287.113-.47-.471.052.216-.327-.43.005.25-.436-.38-.06.303-.398-.466-.138.386-.37-.382-.311.299-.232-.28-.372.299-.346-.112-.458.253-.22.075-.524.284-.142.244-.408.452-.048.222-.368.453.023.429-.232.444.103.504-.152.374.087.488.072.47.376L4.86.864l-.363.174-.3-.183-.207.14-.366.037-.328-.02-.239.291-.488.005-.173.393-.434.152-.04.452-.311.244.103.425-.268.442.206.387-.203.353.27.176-.061.569.375.094.084.422.409-.042.254.289.313-.307c.572-.285.808-.445 1.254-.927.507-.549.798-1.056 1.474-1.432.485-.27.88-.367 1.425-.272.511.088.683.395 1.06.718.04-.073.047-.092.113-.145-.02.094-.053.191-.062.282z"/></svg>
