<?xml version="1.0" encoding="UTF-8" standalone="no"?>
<svg
   xmlns:dc="http://purl.org/dc/elements/1.1/"
   xmlns:cc="http://creativecommons.org/ns#"
   xmlns:rdf="http://www.w3.org/1999/02/22-rdf-syntax-ns#"
   xmlns:svg="http://www.w3.org/2000/svg"
   xmlns="http://www.w3.org/2000/svg"
   xmlns:sodipodi="http://sodipodi.sourceforge.net/DTD/sodipodi-0.dtd"
   xmlns:inkscape="http://www.inkscape.org/namespaces/inkscape"
   width="16"
   height="16"
   id="svg2"
   version="1.1"
   inkscape:version="0.91 r13725"
   sodipodi:docname="gnu.svg">
  <metadata
     id="metadata10">
    <rdf:RDF>
      <cc:Work
         rdf:about="">
        <dc:format>image/svg+xml</dc:format>
        <dc:type
           rdf:resource="http://purl.org/dc/dcmitype/StillImage" />
        <dc:title></dc:title>
      </cc:Work>
    </rdf:RDF>
  </metadata>
  <defs
     id="defs8" />
  <sodipodi:namedview
     pagecolor="#ffffff"
     bordercolor="#666666"
     borderopacity="1"
     objecttolerance="10"
     gridtolerance="10"
     guidetolerance="10"
     inkscape:pageopacity="0"
     inkscape:pageshadow="2"
     inkscape:window-width="2552"
     inkscape:window-height="1383"
     id="namedview6"
     showgrid="false"
     inkscape:zoom="28.879541"
     inkscape:cx="24.592376"
     inkscape:cy="-1.1514414"
     inkscape:window-x="0"
     inkscape:window-y="0"
     inkscape:window-maximized="1"
     inkscape:current-layer="svg2" />
  <path
     d="M 3.3816791,9.2870701 C 3.2729338,9.2944614 3.1313615,9.3431783 3.0363815,9.5134182 2.9588475,9.652447 2.7772064,9.6746209 2.6924006,9.6466117 2.5511276,9.5999297 2.3705638,9.5675515 2.1956557,9.6921866 2.0207476,9.8167918 1.8318648,9.7225598 1.8649911,9.4954037 1.8981174,9.2682776 1.9801701,9.0659587 2.1979599,8.9406653 2.6736081,8.6670366 2.3430333,8.4765978 2.6040938,8.2019816 2.8656629,7.9268268 2.8078789,7.8426195 2.7992008,7.4689237 1.9151444,7.3361192 1.4140903,7.081313 0.85459388,6.3822791 0.29509745,5.6832153 0.07820543,5.1077991 0.02021195,4.2313734 -0.03778153,3.3549477 0.01249146,2.7869527 0.39115477,2.0594607 0.76981807,1.3319687 1.1685008,0.98176352 1.8593952,0.6185113 2.5502897,0.25531891 3.2272393,0.16832869 3.8529584,0.17892193 4.4786775,0.18948524 4.8956141,0.23532942 5.2491708,0.43704977 5.6026976,0.63877012 5.9261205,0.89261872 6.1322996,0.89444412 6.3385086,0.89626952 6.4788839,0.84225602 6.5791007,0.76547001 6.6058532,1.4448435 5.994408,1.5038545 5.44739,1.5182182 4.9003421,1.532552 4.5642014,1.3062637 4.0603644,1.390441 3.5565273,1.4746183 2.7316016,1.703899 2.3297469,2.4033818 1.9278922,3.1028645 1.9141868,3.3501298 1.9475824,3.9367078 1.9809784,4.5233158 2.4858625,4.9609601 2.7708624,4.965718 3.0558323,4.970478 3.1194516,4.887944 3.3689013,4.7252456 3.618381,4.5625167 4.8919334,2.9859799 5.3264955,2.6318546 5.7610875,2.2777293 6.189934,2.1683855 6.6529841,2.1626999 7.1160342,2.1570142 7.2343552,2.1727246 7.6078117,2.3257878 7.9812682,2.4788212 8.2107584,2.7606791 8.5118576,2.9329838 8.6657588,2.8424026 8.7613672,2.7071443 8.9025805,2.6039351 9.4076145,2.2348177 9.6700215,2.135349 10.270275,2.1937614 c 0.344998,0.033575 0.780009,0.2306572 1.039573,0.456347 0.462183,0.4018547 0.844018,0.9613213 1.152569,1.3863374 0.240262,0.3309938 0.522988,0.7270132 0.926608,0.8508105 0.440697,0.1351086 0.772319,-0.4356693 0.821006,-0.7522694 0.02759,-0.1793968 0.06359,-0.3366195 0.06389,-0.5340607 C 14.274219,3.4034551 14.25405,3.1638205 14.197134,2.9580305 14.140218,2.7522404 14.042724,2.5474678 13.937151,2.3776767 13.765325,2.1013249 13.484185,1.8121356 13.191674,1.6633515 13.027509,1.5798624 12.641275,1.428056 12.39781,1.4227294 12.099493,1.4162658 11.872218,1.5164826 11.596404,1.5352751 11.262568,1.5580475 10.666235,1.6330979 10.404516,1.3751796 10.237957,1.2110442 10.21701,1.1015509 10.188551,0.88753162 c 0.07358,0.060627 0.176495,0.1004861 0.268093,0.1082365 0.209052,0.017655 0.404787,-0.1530333 0.573531,-0.25193345 0.138999,-0.0814841 0.335842,-0.22709624 0.51841,-0.30068033 0.469095,-0.18912218 1.045319,-0.18367594 1.540508,-0.13301393 0.396917,0.0405775 0.911527,0.21716134 1.259638,0.41415363 0.349756,0.19786008 0.686795,0.53148716 0.933671,0.84599256 0.310585,0.3957202 0.480376,0.7352424 0.592862,1.2287855 0.143787,0.6302676 0.183646,1.5770755 0.0098,2.1985154 -0.136994,0.4897127 -0.591875,1.2419821 -0.979096,1.6107405 -0.381895,0.363731 -0.822861,0.5392974 -1.324334,0.6353248 0.01963,0.1012043 0.02286,0.1955859 0.04881,0.2785662 0.03687,0.1177824 0.107369,0.2490907 0.252203,0.2075556 0.05775,-0.016548 0.08867,-0.030882 0.164824,0.03573 0.0761,0.066612 0.03648,0.3239316 -0.177691,0.4394099 -0.108596,0.058562 -0.223206,0.07128 -0.397127,0.074751 -0.17392,0.00347 -0.445365,0.00422 -0.634188,-0.028847 -0.188782,-0.033037 -0.301567,-0.1828683 -0.510678,-0.206329 -0.323154,-0.036149 -0.570599,-0.2696188 -0.829714,-0.4365969 -0.108117,-0.069694 -0.144595,-0.070412 -0.206897,-0.1056332 0.03366,0.1030597 0.07855,0.2100992 0.100935,0.3091789 0.02244,0.09908 0.01287,0.1908578 0.02478,0.2701574 0.01185,0.07924 0.03384,0.1408542 0.04665,0.2051318 0.05177,0.046293 0.06832,0.1167051 0.155278,0.1388492 0.08702,0.022114 0.223266,-0.012329 0.312291,-0.024299 0.08903,-0.01197 0.148694,-0.060477 0.218538,-0.047191 0.0699,0.013257 0.136126,0.06329 0.194688,0.1101816 0.05856,0.046891 0.108895,0.053744 0.156295,0.1707486 0.0474,0.1170044 0.09088,0.356609 0.09737,0.5167644 0.0065,0.1601554 -0.01146,0.3047201 -0.05892,0.431809 -0.04746,0.1270889 -0.08917,0.1834366 -0.2177,0.3092983 -0.128525,0.1258924 -0.337817,0.3106164 -0.546659,0.4392904 0.03845,0.05695 0.05551,0.109075 0.115478,0.170869 0.05997,0.06182 0.184993,0.131098 0.240622,0.196304 0.05557,0.06521 0.08376,0.111977 0.08457,0.185112 8.67e-4,0.0731 -0.0027,0.168145 -0.06206,0.247864 -0.147856,0.198488 -0.322734,0.234039 -0.535377,0.327403 0.03576,0.223295 0.06494,0.382822 0.01326,0.605789 -0.0211,0.09085 -0.06796,0.29685 -0.180026,0.349697 -0.112096,0.05285 -0.32824,0.02726 -0.465055,0.04899 -0.136814,0.02176 -0.213391,0.0424 -0.320041,0.06359 -0.06482,0.09369 -0.161322,0.197082 -0.194389,0.28105 -0.03313,0.084 -0.02313,0.114102 0.0047,0.199865 0.0278,0.08576 0.122451,0.210638 0.149263,0.311064 0.02681,0.100427 0.03202,0.208544 0.007,0.309239 -0.02508,0.100696 -0.06796,0.173771 -0.153781,0.263185 -0.08579,0.08944 -0.254597,0.159677 -0.338684,0.232154 -0.08415,0.07251 -0.1679061,0.08121 -0.1449541,0.201181 0.03157,0.164764 0.2723121,0.431989 0.4464721,0.495608 0.104376,0.03815 0.244482,0.02612 0.371242,-0.02738 -0.0086,0.140735 -0.130381,0.235595 -0.20995,0.329049 0.215486,-0.06161 0.424448,-0.179576 0.568983,-0.335931 -0.04483,0.135797 -0.199057,0.353796 -0.429744,0.545222 -0.230688,0.191427 -0.229281,0.152256 -0.343951,0.228413 0.209231,0.04204 0.403799,0.03067 0.56587,0.0016 -0.08885,0.04899 -0.234488,0.117872 -0.42741,0.138131 -0.192923,0.02023 -0.311872,0.0059 -0.485733,-0.0363 -0.1738907,-0.04225 -0.3326097,-0.200314 -0.5433073,-0.309269 0.020528,0.07816 0.035131,0.172155 0.1237373,0.252532 0.088606,0.08038 0.2226675,0.121254 0.3651674,0.190768 -0.1814016,-0.02059 -0.37202,-0.02681 -0.5502797,-0.0661 -0.1319666,-0.02912 -0.2206325,-0.06 -0.3171986,-0.107817 -0.096506,-0.04782 -0.1710179,-0.117573 -0.2565119,-0.176345 0.040966,0.07825 0.053116,0.1703 0.1228397,0.234817 0.069724,0.06452 0.1830475,0.08855 0.2747059,0.132864 -0.095608,-0.0021 -0.1875661,0.01864 -0.2866757,-0.0063 -0.099169,-0.02493 -0.1921745,-0.0641 -0.295264,-0.140046 -0.1030896,-0.07595 -0.2094109,-0.169462 -0.2973887,-0.26507 -0.087918,-0.09561 -0.1964835,-0.219556 -0.2293405,-0.307713 -0.032917,-0.08819 0.01975,-0.149861 0.029625,-0.224702 -0.060717,0.03989 -0.1354079,0.06185 -0.18206,0.119757 -0.046652,0.0579 -0.088008,0.11078 -0.06736,0.211715 0.020678,0.100935 0.1138324,0.224314 0.179696,0.33659 -0.1965434,-0.160724 -0.3063061,-0.222608 -0.353078,-0.416488 -0.043779,-0.181521 0.069484,-0.346285 0.155577,-0.483548 0.042762,-0.06817 0.1067403,-0.131608 0.1467193,-0.197411 -0.088786,-0.08687 -0.1902593,-0.161532 -0.2663571,-0.260612 -0.076068,-0.09905 -0.108027,-0.233111 -0.1856808,-0.327881 -0.077684,-0.0948 -0.1821798,-0.154799 -0.2731798,-0.232094 0.079988,0.171826 0.2114457,0.382583 0.2399936,0.515567 0.028518,0.132984 -0.031989,0.214379 -0.07918,0.286167 -0.047221,0.07179 -0.1234083,0.0878 -0.1956757,0.131907 -0.072267,0.04414 -0.1846634,0.0093 -0.2277246,0.07484 -0.043031,0.06547 -0.054582,0.163986 -0.013436,0.228862 l 0.1687736,0.266387 c -0.062183,-0.03139 -0.1693122,-0.12269 -0.2176102,-0.187447 -0.048298,-0.06476 -0.1223908,-0.124575 -0.1325351,-0.212134 -0.010144,-0.08753 -0.015082,-0.163507 0.041625,-0.24149 0.056737,-0.07795 0.2120443,-0.104047 0.2815586,-0.163985 0.069514,-0.05994 0.1085059,-0.09896 0.104526,-0.176435 -0.00395,-0.07747 -0.079629,-0.132894 -0.1446845,-0.18173 C 6.972435,13.813139 6.7176587,13.675876 6.5490048,13.496329 6.4537258,13.394886 6.408001,13.312983 6.3888494,13.242989 c -0.019122,-0.06996 0.00111,-0.124545 0.048448,-0.210607 0.04734,-0.08609 0.2096803,-0.201033 0.2294304,-0.294546 0.01972,-0.09348 -0.062273,-0.113563 -0.1362757,-0.14654 -0.074003,-0.03298 -0.214558,0.01691 -0.2832045,-0.04046 -0.068617,-0.05736 0.020169,-0.1779 -0.057186,-0.244003 -0.077325,-0.0661 -0.2543275,-0.02921 -0.3456867,-0.100307 -0.091359,-0.07113 -0.1291237,-0.159407 -0.1606042,-0.262587 -0.03148,-0.103179 -0.035042,-0.216203 -0.013705,-0.290925 0.021336,-0.07472 0.085434,-0.0878 0.1240965,-0.12652 0.038662,-0.03872 0.072208,-0.07083 0.020678,-0.128585 -0.05153,-0.05772 -0.2203932,0.0032 -0.317468,-0.07089 -0.097075,-0.07412 -0.037645,-0.251664 -0.1062914,-0.326505 -0.068617,-0.07484 -0.1917855,-0.04554 -0.2567813,-0.06945 -0.064966,-0.02391 -0.090461,0.06045 -0.1303207,-0.07296 C 4.9640811,10.724638 4.9630038,10.326913 4.9093793,10.178488 4.8557548,10.030063 4.7504508,10.168463 4.7015544,10.020936 4.6526579,9.8734382 4.6990108,9.6375446 4.6769865,9.4147575 L 4.5771886,8.808579 C 4.2290482,9.0424382 3.9992288,9.1158726 3.6252038,9.1819457 3.5939926,10.097093 3.5080199,10.636002 3.8186351,11.651307 4.1292503,12.666582 4.7578721,13.26495 5.6058995,14.124528 4.4868768,13.286166 3.9526365,12.604608 3.6182613,11.731474 3.2838263,10.85822 3.348044,10.127945 3.3816791,9.2870701 Z M 9.3278959,8.9192394 c 0.086092,0.00386 0.1907082,0.025705 0.2511554,0.064966 0.060477,0.039261 0.1246651,0.07134 0.1795464,0.1272086 0.1369341,0.1394477 0.2396346,0.3076228 0.2850303,0.5008745 0.02894,0.1231988 0.03325,0.2811998 0.04378,0.4258535 C 10.045962,9.9044402 10.018102,9.7650225 9.9590613,9.6452352 9.8659665,9.4563524 9.707816,9.2719882 9.5114222,9.1870927 9.446606,9.1590236 9.4033652,9.1642305 9.3676953,9.1691979 c 0.01595,0.026782 0.042672,0.049226 0.043839,0.088456 0.00117,0.039231 -0.0076,0.115987 -0.074123,0.1482455 C 9.2301628,9.4579384 9.110944,9.4213409 9.0281133,9.3481159 8.9445943,9.2743223 8.9161362,9.1494777 8.9598558,9.0421988 9.0119541,8.9143617 9.2104726,8.9140326 9.3278959,8.9192394 Z M 8.2484631,8.7372991 C 8.2592658,8.5175044 8.3385954,8.3321527 8.5355577,8.224365 8.6374204,8.1686458 8.7943439,8.0965879 8.9385496,8.0796507 c 0.13852,-0.016249 0.4754687,-0.00437 0.6781466,0.088127 0.1556368,0.071041 0.261659,0.1816411 0.3983238,0.2624669 0.136635,0.080856 0.233829,0.1350488 0.36394,0.2257197 0.199716,0.1391784 0.31678,0.2924212 0.45524,0.3842891 0.06658,0.044138 0.160245,0.037585 0.248642,0.064577 -0.06874,0.020409 -0.158569,0.042912 -0.232722,0.019211 C 10.757654,9.0944767 10.62838,9.0099403 10.556651,8.9493434 10.429892,8.8422739 10.364178,8.7900259 10.225837,8.7092599 10.143246,8.6611415 10.00724,8.6044348 9.9164788,8.5452443 9.8256583,8.4860539 9.6680166,8.356182 9.580757,8.3122231 9.4698273,8.2563841 9.2701119,8.2253226 9.1466139,8.2289435 8.9764638,8.2339109 8.730186,8.26198 8.5985187,8.3814382 8.4677191,8.5001782 8.4180446,8.6046443 8.4475501,8.7588447 8.4968057,8.702108 8.5296028,8.6308281 8.5789481,8.5886347 8.6811699,8.5013153 8.7984735,8.497096 8.925712,8.5136442 9.0686609,8.5322571 9.140629,8.6148185 9.1878497,8.7505257 9.15607,8.7271847 9.0976576,8.6759242 9.0515441,8.6600343 8.9433076,8.6226887 8.8614643,8.6341796 8.7600805,8.6885523 c -0.1196976,0.064218 -0.08714,0.1592576 -0.1043763,0.2649506 -0.0079,0.048747 -0.026304,0.088008 -0.03944,0.1320264 -0.045006,-0.01191 -0.086631,-0.030643 -0.120685,-0.064397 0.00141,0.049375 -0.00578,0.092556 0.00434,0.1480958 0.010055,0.05551 0.037106,0.1214632 0.055629,0.1821797 C 8.4722078,9.2680382 8.3869233,9.1904143 8.3330893,9.0827762 8.2791954,8.9750783 8.2426877,8.8555603 8.2484631,8.7372991 Z M 8.3926987,7.1375409 c 0.061435,-0.09118 0.079419,-0.2310463 0.1173036,-0.344759 -0.015142,0.1440262 0.013975,0.302416 -0.056348,0.4067324 -0.070322,0.1043165 -0.1938203,0.086033 -0.2961318,0.116376 0.079599,-0.060687 0.1737111,-0.08717 0.2351758,-0.1783494 z m -1.470814,2.1356443 c 0.078881,-0.063859 0.2917629,-0.012808 0.4509906,-0.00141 -0.1144309,0.029296 -0.2288618,0.058622 -0.3432927,0.087918 -0.010653,0.038932 -0.00584,0.083549 -0.031959,0.1167351 -0.026154,0.033216 -0.075828,0.045515 -0.1137127,0.068228 0.00374,-0.1022786 -0.040907,-0.2076424 0.037974,-0.2714711 z m 1.1218955,-4.435394 c 0.09504,0.051171 0.2156651,0.1188298 0.2996031,0.1209245 0.083938,0.00209 0.1059024,-0.054881 0.1552777,-0.087768 0.077684,0.25331 0.1668584,0.5316368 0.2991242,0.7614861 0.05542,0.096297 0.090761,0.05153 0.1328943,0.1483053 0.042074,0.096745 0.060776,0.2936181 0.1006956,0.4172358 0.039979,0.1236177 0.092107,0.2145879 0.1381609,0.3218668 C 9.0525915,6.3541501 8.9015032,6.1428839 8.8363278,6.0049923 8.7712124,5.8671306 8.812897,5.8551309 8.7601703,5.7238227 8.7074435,5.5925144 8.6008528,5.3878316 8.521194,5.219836 8.4641581,5.2274069 8.3935366,5.2377906 8.3501761,5.2244144 8.3068157,5.2110382 8.3154638,5.1649247 8.2762928,5.13512 8.2370619,5.1053153 8.1711385,5.1168662 8.1161973,5.0692864 8.0612561,5.0217365 8.0487477,4.924153 8.0437802,4.8377912 Z M 7.5320431,6.0877033 c 0.089444,-0.00784 0.2005234,0.016129 0.2842818,0.011371 0.083758,-0.00476 0.1435473,-0.026483 0.2153359,-0.03974 C 8.0183445,5.9331737 8.0309726,5.7013794 7.9145068,5.6171422 7.8392769,5.5627397 7.5303075,5.6037061 7.447776,5.6215112 7.2620652,5.66155 7.0458016,5.77239 6.8661954,5.8416949 7.0383205,5.7214586 7.1870148,5.6100202 7.3934633,5.547957 7.5175597,5.5106413 7.807168,5.4621338 7.9352444,5.4967264 c 0.058472,0.01577 0.070292,0.039979 0.1057529,0.089534 0.1219119,0.17021 0.1215529,0.3173183 0.1531829,0.5155974 0.031092,0.048448 0.064218,0.080766 0.089414,0.1307396 0.025136,0.049974 0.039381,0.1286151 0.046413,0.1928927 -0.0319,-0.046263 -0.012389,-0.1042867 -0.1007556,-0.1387297 -0.088427,-0.034443 -0.2238045,-0.00227 -0.3429335,0.010174 0.086841,0.062662 0.1299915,0.1230192 0.1333131,0.2554945 0.00389,0.155547 -0.1278071,0.2674942 -0.2653097,0.2781472 -0.1908877,0.014813 -0.289309,-0.027112 -0.366514,-0.1902593 -0.033815,-0.071459 -0.00931,-0.1574322 -0.012119,-0.2270962 -0.2293705,0.01595 -0.22563,0.00847 -0.3932664,0.1482455 0.09112,0.1334927 0.1485147,0.2102488 0.2990943,0.290117 0.084447,0.044827 0.1800551,0.088397 0.2847007,0.1062017 0.1046755,0.017805 0.2763518,0.035012 0.386294,0.018134 C 8.062483,6.9590419 8.1247856,6.9276512 8.2062996,6.8522716 8.2878436,6.7768622 8.2953247,6.6688949 8.3271643,6.5835506 8.3199225,6.665693 8.3104964,6.7703087 8.2800034,6.8298882 8.1872378,7.0110206 8.0268131,7.0647049 7.835267,7.0653034 7.6514115,7.0659019 7.4239861,7.023499 7.2529383,6.9525782 7.1161838,6.8959014 6.8894766,6.7353869 6.8356725,6.5959393 6.7988954,6.50066 6.8280119,6.3837454 6.8241516,6.2776335 7.0135132,6.1517116 7.0603748,6.1826834 7.2844188,6.1458165 7.378142,6.1303755 7.4425991,6.0955734 7.5320431,6.0877033 Z M 6.429,5.2348281 C 6.43433,5.1593891 6.442675,5.1610051 6.449528,5.1240779 6.277014,5.0779345 6.2078288,5.1898518 6.1066843,5.3977066 6.06883,5.4754801 6.1062953,5.5217732 6.0656879,5.5729738 6.0251403,5.6241744 5.9597855,5.6169926 5.8939219,5.6661584 5.8280583,5.7152942 5.7627932,5.8094064 5.7012088,5.8603078 5.574838,5.9647739 5.4040296,6.0285428 5.2574599,6.0988352 5.357557,6.0249818 5.5517962,5.9129748 5.6146375,5.8056659 c 0.033336,-0.056886 0.028398,-0.1641652 0.080287,-0.215306 0.051859,-0.051171 0.070023,-0.086571 0.1369939,-0.099618 0.066971,-0.013047 0.040039,-0.090671 0.061644,-0.1523751 0.021605,-0.061704 0.064637,-0.1055134 0.110421,-0.1671576 0.045784,-0.061644 0.1035384,-0.1542005 0.19394,-0.1878056 0.090402,-0.033635 0.2313754,0.00272 0.2998125,-0.016638 0.068407,-0.019361 0.029117,-0.069095 0.078821,-0.09896 0.049764,-0.029864 0.1465098,-0.016698 0.2129719,-0.048627 0.1178123,-0.056647 0.17416,-0.151208 0.245021,-0.2524422 0.010294,0.2179094 0.00778,0.374803 -0.070532,0.5798151 -0.088187,0.230747 -0.1775714,0.3666636 -0.4278591,0.5085651 -0.086242,0.048866 -0.1720652,0.065834 -0.2435546,0.091479 0.041685,-0.056856 0.1013539,-0.081544 0.125084,-0.170569 0.02367,-0.089085 0.00598,-0.2657287 0.011311,-0.341198 z m 4.040931,1.0625255 c -0.11901,0.00775 -0.147228,-0.0079 -0.242448,0.05925 0.05162,0.080317 0.103209,0.1606342 0.154769,0.2409513 -0.0045,-0.1585395 0.01089,-0.1903192 0.08768,-0.3002016 z M 10.158118,6.1821447 c 0.164824,-0.070203 0.308431,-0.1269991 0.487738,-0.1382208 0.07188,-0.00452 0.183467,0.00661 0.256063,0.0099 0.06182,-0.09103 0.140615,-0.1628186 0.169492,-0.2667161 0.01912,-0.068916 0.0097,-0.3887778 -0.02415,-0.471818 -0.0986,-0.2416694 -0.194449,-0.2518736 -0.330156,-0.3903039 -0.09848,-0.1003963 -0.102401,-0.2532801 -0.131847,-0.4245972 -0.0108,-0.062931 -0.04169,-0.1425598 -0.05617,-0.2074958 -0.177392,-0.029895 -0.36816,-0.03974 -0.5722442,-0.029535 0.09896,-0.09492 0.1946282,-0.181641 0.2230262,-0.324141 0.02834,-0.1425 0.0053,-0.3177073 -0.07574,-0.4454845 C 10.023129,3.3659598 9.8937363,3.2546411 9.7749664,3.1505341 9.6561366,3.0464271 9.4858369,2.9604843 9.3732613,2.8753194 c 0.14642,-0.052427 0.2959223,-0.1294529 0.43935,-0.1572527 0.3736357,-0.072477 0.6955627,0.038363 1.0559417,0.2562426 0.209531,0.1267299 0.382823,0.2471157 0.60187,0.4764263 0.218987,0.2292808 0.49061,0.6498681 0.702625,0.899288 0.212014,0.2494198 0.383181,0.4466814 0.568144,0.5954356 0.184993,0.1487841 0.35242,0.1911571 0.528585,0.2867057 l 0.274586,0.2915833 0.222219,-0.2749753 0.357566,0.040428 L 14.198028,4.887855 14.526209,4.797932 14.472679,4.256899 14.708632,4.089442 14.531299,3.7528224 14.711474,3.3849917 14.476568,2.9645241 14.567149,2.5596769 14.295196,2.3279125 14.259706,1.8976894 13.880324,1.7529751 13.728129,1.3786807 13.301586,1.3738928 13.092355,1.0960448 12.8052,1.116154 12.485099,1.0812921 12.304087,0.94764972 12.04138,1.1220491 11.723493,0.95629792 11.09158,1.1962017 l 0.411939,-0.35825478 0.426782,-0.0681678 0.326954,-0.0833394 0.441564,0.14501364 0.388658,-0.0984513 0.374743,0.22153028 0.396559,-0.021935 0.194807,0.34954686 0.394853,0.045575 0.21363,0.3886281 0.248343,0.1355874 0.06592,0.4978522 0.221171,0.20977 -0.09725,0.4356094 0.260552,0.3298866 -0.244303,0.3534669 0.26124,0.2209319 -0.333956,0.2959822 0.338235,0.35224 -0.408468,0.1317272 0.266058,0.3777955 -0.333657,0.057575 0.218807,0.4154105 -0.37603,-0.005 0.189422,0.3111539 -0.412448,-0.049645 0.09866,0.4476391 -0.311692,-0.2741973 -0.10677,0.5425293 -0.215097,-0.3895558 -0.116496,0.4858825 -0.265519,-0.3582848 0.0072,0.5094927 -0.293469,-0.4581126 c 0.06188,0.2599233 0.0495,0.5445343 0.220214,0.7895852 0.528944,-0.071579 0.87466,-0.2048625 1.279896,-0.5948073 0.369088,-0.3551427 0.810233,-1.0956219 0.929691,-1.5652853 0.136306,-0.5359459 0.140495,-1.5216555 0.0063,-2.0672969 C 15.629405,2.3289299 15.461469,2.0779839 15.161417,1.649287 14.874622,1.3446866 14.592555,1.0229096 14.228554,0.8056884 13.694224,0.48684396 13.009075,0.40087117 12.400114,0.40916023 c -0.337188,0.004608 -0.563058,0.0693647 -0.764658,0.14267952 -0.352539,0.12819611 -0.634487,0.40783957 -0.992892,0.54603045 -0.116884,0.045036 -0.210578,0.046443 -0.302625,-0.00272 0.09013,0.1803244 0.188194,0.26121 0.412987,0.3268342 0.162609,0.04746 0.550608,0.017446 0.817714,-0.00721 0.286735,-0.026483 0.436297,-0.1117377 0.826541,-0.1063812 0.381117,0.00524 0.683114,0.150011 0.848237,0.2444225 0.340689,0.1948078 0.584992,0.4109218 0.797276,0.7532569 0.116585,0.187985 0.198249,0.4000891 0.255764,0.6165323 0.05751,0.2164431 0.08271,0.4588607 0.08639,0.6707553 0.0037,0.2118947 -0.01251,0.4010468 -0.06434,0.591725 C 14.199284,4.6314974 13.93185,5.0857497 13.382498,5.015577 13.046331,4.9726006 12.539532,4.3416148 12.3698,4.1101197 12.027316,3.6429101 11.674926,3.1259063 11.244583,2.7368293 10.982206,2.4996785 10.622964,2.3364708 10.270185,2.3041824 9.6083473,2.2436154 9.4120732,2.3693278 8.9138919,2.7799504 c 0.1013539,0.032318 0.200284,0.050153 0.3041515,0.096955 0.2305077,0.1038676 0.441325,0.2381084 0.6252104,0.4102934 0.1926832,0.1804741 0.2791352,0.2946955 0.2859872,0.5531226 0.0045,0.1716164 -0.1366345,0.3092087 -0.2660575,0.432976 -0.07918,0.075799 -0.1839752,0.1451932 -0.2481032,0.2040246 -0.084985,0.078073 -0.1902294,0.1634769 -0.083459,0.2878427 0.040159,0.046742 0.1098824,0.081993 0.1686838,0.1256526 0.093334,0.069275 0.050602,0.3267444 -0.072357,0.3950319 C 9.4706053,5.3731387 9.2825904,5.3633833 9.1528382,5.2465286 9.3166144,5.2220205 9.4206316,5.2002954 9.4163823,5.0663238 9.4139285,4.98867 9.315208,4.924153 9.2183128,4.8799846 8.9846332,4.7734538 8.8081391,4.7891641 8.5755667,4.6218269 8.3406602,4.4527241 8.3354832,4.360138 8.2719837,4.0946488 8.1587198,4.1064989 8.0544333,4.1091023 7.9029859,4.1592556 7.7515386,4.2093789 7.5841714,4.3287174 7.4466688,4.3582528 7.1003837,4.4327645 7.0313781,4.4106803 6.8418669,4.3616343 6.5082099,4.2752724 6.0737675,4.4231289 5.6421978,4.5611701 5.5704391,4.5841221 5.2802024,4.5619482 5.084826,4.6305049 4.7830684,4.7363775 4.3596682,4.9927697 4.115126,5.1987094 3.7446021,5.5107909 3.2576724,6.4447612 2.9825476,7.5167728 2.9536406,7.8426494 3.0463164,8.0622047 2.8410351,8.2213726 2.6357538,8.3805405 2.6414394,8.7883202 2.5718353,8.9026912 2.5022311,9.0170324 2.4216447,8.96649 2.2718133,9.1270943 2.1219818,9.2876985 2.0457045,9.2608563 2.049475,9.5645291 2.1785988,9.4796336 2.3668531,9.3809429 2.5321555,9.374988 2.6785457,9.3696914 2.6801017,9.5624344 3.0558323,9.1909829 3.2567746,8.992255 3.6428293,8.9861803 3.9106825,8.8985317 4.1785657,8.8108832 4.6612761,8.6302595 5.1447347,8.0897651 5.6281932,7.5492707 5.8595387,6.9802583 5.9532919,6.1576366 5.9682239,6.3034881 5.9941389,6.4679825 5.9316869,6.870316 5.8692349,7.2726495 5.7346348,7.7245378 6.0181979,8.2658103 l 0.1766736,0.337218 C 6.0896873,8.459481 5.8842264,8.2253226 5.8223726,8.0584642 L 5.6796931,7.6735467 C 5.3604896,8.1747205 5.287115,8.2643739 4.8436953,8.6234368 4.8260403,8.846194 4.8217013,9.078527 4.8945073,9.2916785 4.9673133,9.5048 4.8512663,9.7504793 4.9066563,9.8908542 c 0.05539,0.1403758 0.1834964,0.06048 0.2253307,0.2025888 0.041834,0.142111 -0.021845,0.423071 0.043031,0.561591 0.064876,0.13852 0.2240439,0.05446 0.301189,0.0992 0.077145,0.04477 0.1023714,0.106112 0.1436371,0.164973 0.041236,0.05883 -0.016129,0.19792 0.067779,0.243076 0.083878,0.04519 0.2147374,0.0069 0.3020269,0.05027 0.087289,0.04336 0.100546,0.147587 0.079629,0.240981 -0.020947,0.09339 -0.1142214,0.136246 -0.1551879,0.231196 -0.040937,0.09498 -0.036358,0.161083 0.012838,0.248283 0.049196,0.08723 0.1581205,0.135258 0.2666862,0.179277 0.1085657,0.04402 0.2611203,0.0193 0.3731572,0.08017 0.1120369,0.06087 0.2127325,0.18215 0.2718931,0.270308 0.05916,0.08813 0.075589,0.15031 0.072567,0.242986 -0.00305,0.09265 -0.040637,0.199386 -0.090102,0.28889 -0.049465,0.0895 -0.1585993,0.198429 0.01179,0.369357 0.1703895,0.170898 0.1641054,0.09722 0.2617187,0.208094 -0.010623,-0.191786 -0.089863,-0.348021 -0.031929,-0.492406 0.057964,-0.144385 0.2319739,-0.169492 0.3236922,-0.234428 0.091718,-0.06497 0.1445348,-0.1542 0.2168322,-0.231285 -0.00105,0.0992 0.00958,0.20585 -0.00171,0.280541 -0.022982,0.151866 -0.067809,0.286676 0.1585095,0.311034 0.1019524,0.01095 0.1987578,-0.05515 0.3060368,-0.09483 -0.056198,0.100635 -0.1539311,0.181551 -0.168624,0.301997 -0.014693,0.120385 0.00296,0.252651 0.086332,0.372139 0.083399,0.119429 0.2273955,0.208125 0.3329089,0.278327 0.1054835,0.07023 0.1620107,0.07586 0.2430759,0.113833 0.00398,0.11838 -0.019331,0.243674 -0.00584,0.355172 0.013496,0.111499 0.048627,0.210189 0.1130843,0.302356 0.064517,0.0922 0.1679656,0.145074 0.2653995,0.213242 C 8.879,14.92339 8.7706438,14.805368 8.7721101,14.674598 c 0.00147,-0.130739 0.040667,-0.223415 0.168205,-0.339432 0.1275378,-0.116047 0.4261234,-0.216683 0.5669177,-0.329498 0.1407943,-0.112844 0.1862195,-0.18197 0.2367618,-0.291523 0.050542,-0.109553 0.036478,-0.286047 0.045814,-0.384528 0.046353,0.137951 0.052966,0.180833 0.068018,0.325158 0.015142,0.144355 -0.084117,0.346824 -0.1261313,0.453684 0.17416,-0.08412 0.2847007,-0.218568 0.3405097,-0.349966 0.03735,0.02214 0.01852,0.08286 0.03226,0.199865 0.06206,-0.06176 0.132625,-0.109284 0.195107,-0.167577 0.06254,-0.05823 0.131039,-0.109463 0.16207,-0.190768 0.03097,-0.0813 0.01828,-0.167756 -0.0048,-0.262227 -0.02307,-0.09447 -0.128645,-0.204025 -0.185502,-0.307354 -0.0568,-0.103299 0.01005,-0.204712 0.0062,-0.329198 -0.113743,-0.01954 -0.210339,-0.07747 -0.3410791,-0.05865 -0.1307995,0.01879 -0.280601,0.165572 -0.4142733,0.167278 -0.1336723,0.0017 -0.2087227,-0.123528 -0.3183058,-0.157941 -0.1095831,-0.03441 -0.220453,-0.03064 -0.3306346,-0.04596 0.1395673,-0.133702 0.6812587,-0.197381 1.0517826,-0.257799 0.3260272,-0.05318 0.6495692,-0.08391 0.9799042,-0.08855 0.147528,-0.0021 0.337129,0.04662 0.43956,0.01718 0.102521,-0.02938 0.08065,-0.0992 0.111049,-0.175297 0.08504,-0.212702 0.04312,-0.402124 -0.0031,-0.616323 -0.29655,-0.03477 -0.60555,-0.07732 -0.904345,-0.05437 -0.292122,0.02244 -0.6380482,0.161322 -0.939357,0.170718 -0.2619927,0.0081 -0.6499027,-0.05019 -0.8748444,-0.187304 C 8.4590111,11.246669 8.2463385,10.886828 8.1708392,10.77129 8.0478799,10.583095 7.8927817,10.213888 7.7984002,10.045085 7.7040785,9.8762812 7.683281,9.8290612 7.6047893,9.7585888 7.5262976,9.6881468 7.4187793,9.6827005 7.3258042,9.6447265 7.4329934,9.6556788 7.5500277,9.6217445 7.6474017,9.6775835 7.793702,9.7615214 7.9574483,10.109422 8.0484784,10.26081 8.1449247,9.9375072 8.1224215,9.8103879 8.4014965,9.6280885 8.1765847,9.8801712 8.1709888,10.071119 8.1161673,10.367909 c 0.1870275,0.306965 0.4470406,0.795929 0.787281,0.931606 0.1228995,0.04905 0.3339562,0.07981 0.4668205,0.09624 0.4134953,0.0512 0.8123272,-0.07984 1.2184312,-0.180115 0.29685,-0.07331 0.598069,-0.04378 0.959107,-0.02256 0.122571,0.0072 0.41158,-0.06655 0.471429,-0.190528 0.03232,-0.06688 0.02993,-0.147258 -0.01649,-0.218538 -0.04647,-0.07128 -0.17024,-0.105753 -0.236582,-0.169911 -0.06634,-0.06416 -0.104496,-0.140315 -0.156744,-0.210488 -0.275754,0.05291 -0.502581,0.07323 -0.707263,0.07879 0.146809,-0.06048 0.287663,-0.09498 0.440457,-0.154739 0.152794,-0.05976 0.326295,-0.157851 0.449614,-0.239246 0.123318,-0.08142 0.202049,-0.1286448 0.291284,-0.2233848 0.08918,-0.094801 0.203575,-0.1924441 0.269319,-0.3083114 0.0658,-0.1158672 0.07598,-0.2454698 0.07966,-0.3888675 0.0037,-0.1433678 -0.0025,-0.3445495 -0.05781,-0.4600577 C 12.319441,8.5923204 12.21291,8.5572789 12.127326,8.529958 12.041716,8.502637 11.983091,8.571732 11.894065,8.581069 11.804985,8.590409 11.721761,8.646544 11.592966,8.585979 11.464169,8.5254045 11.311494,8.4021159 11.181263,8.2191283 11.051092,8.0361107 10.957997,7.7369864 10.825283,7.5068678 10.596511,7.11019 10.311421,6.7396362 10.03878,6.3720749 10.016337,6.2814339 9.9826118,6.1561703 9.9713901,6.033211 9.9518195,5.8189523 9.9481388,5.5963747 10.014631,5.3875024 c 0.05096,-0.1600058 0.125084,-0.3290187 0.292631,-0.3946429 0.06703,-0.026274 0.151836,-0.036687 0.211745,-0.014483 0.05997,0.022174 0.118769,0.089833 0.09522,0.1679956 -0.02589,0.085943 -0.08543,0.088277 -0.125892,0.1316673 -0.06868,0.073614 -0.09615,0.1276276 -0.122091,0.2194057 0.07421,-0.0012 0.174519,-0.00685 0.235475,0.00919 0.07954,0.020947 0.153601,0.073674 0.19397,0.1863691 -0.09492,-0.084177 -0.142082,-0.1228097 -0.260552,-0.1258021 -0.05428,-0.00135 -0.120236,0.018074 -0.180295,0.027112 -0.02244,0.073016 -0.03564,0.1625493 -0.06733,0.2190466 -0.03169,0.056497 -0.09339,0.042941 -0.116555,0.1089547 -0.02316,0.065893 -0.02451,0.1732024 -0.01284,0.2598335 z m 0.829355,-0.09896 c 0.03636,0.014334 0.05021,0.017476 0.09627,0.052517 0.04605,0.035041 0.109583,0.070023 0.146061,0.1537515 0.03654,0.083758 0.03483,0.2132712 0.02705,0.2660279 -0.03202,-0.0094 -0.07568,-0.00305 -0.108895,-0.031451 -0.03313,-0.028398 -0.05291,-0.092706 -0.0954,-0.1202362 -0.04255,-0.0275 -0.07801,-0.021486 -0.125025,-0.027441 0.02415,0.068707 0.03588,0.1374428 0.02466,0.1997454 -0.02436,0.1360064 -0.104316,0.2048923 -0.233769,0.2211712 -0.05653,0.00709 -0.146301,-0.011521 -0.195496,-0.020468 0.0228,0.050931 0.06143,0.095549 0.08427,0.1464799 0.109463,-0.01583 0.190588,-0.013586 0.24945,-0.041116 0.05886,-0.02753 0.121971,-0.089205 0.197501,-0.1153286 0.07556,-0.026124 0.142948,-0.025705 0.2256,-0.038603 -0.06512,0.056108 -0.107848,0.1122464 -0.172874,0.1683547 0.0477,0.1386397 0.0954,0.2772495 0.143069,0.4158593 0.101114,0.06326 0.195975,0.096596 0.323393,0.1746986 0.127478,0.078133 0.280302,0.2178795 0.446292,0.294097 0.165991,0.076217 0.264831,0.1176926 0.438273,0.1504 0.173412,0.032707 0.311393,0.1731725 0.482052,0.1960048 0.170659,0.022832 0.489414,0.027441 0.620931,0.014603 0.149323,-0.014573 0.343323,-0.091628 0.360739,-0.2553449 -0.125204,0.030882 -0.316421,0.00317 -0.412987,-0.2324228 C 13.465781,7.5498692 13.486788,7.3574852 13.421194,7.2337778 13.35563,7.1100404 13.264211,7.0703307 13.154987,6.9178958 13.045763,6.765461 12.867084,6.5250184 12.766778,6.3207844 12.666531,6.1165804 12.64292,5.8852648 12.558115,5.7022771 12.473309,5.5193194 12.345382,5.3715228 12.246243,5.2304891 12.02977,4.9222678 11.855191,4.71163 11.498552,4.5561428 c -0.171527,-0.074781 -0.366814,-0.094711 -0.55022,-0.142081 -0.07463,0.033425 -0.176973,0.070352 -0.195137,0.1576417 -0.01816,0.087289 0.01673,0.2162038 0.08008,0.2817382 0.106022,0.1095532 0.263125,0.227964 0.324889,0.4020941 0.03968,0.1117377 0.0512,0.4863313 0.01682,0.5879845 -0.03567,0.1055433 -0.11859,0.169372 -0.187506,0.2396644 z m 0.03453,0.88663 c -0.03313,0.028578 -0.05838,0.057934 -0.111678,0.081664 -0.05324,0.02373 -0.125952,0.029865 -0.196603,0.04752 0.09908,0.1542303 0.203156,0.3100766 0.298076,0.4722369 0.09498,0.1621303 0.177273,0.3396718 0.267914,0.5094628 -0.0043,-0.097314 0.0015,-0.201062 -0.01269,-0.2920022 -0.01416,-0.09091 -0.05536,-0.1704793 -0.09621,-0.3069645 -0.04079,-0.1364852 -0.091,-0.322166 -0.148814,-0.5119166 z M 8.3561909,3.5786624 c -0.013975,0.1517167 0.0117,0.3888975 0.043121,0.5374422 0.037645,0.1778107 0.073883,0.2700078 0.2181787,0.3771371 0.2642325,0.1961545 0.4329163,0.163088 0.6361927,0.2768306 0.096716,0.054133 0.219286,0.144864 0.2550456,0.2407717 0.03576,0.095908 -0.02361,0.2000446 -0.096955,0.2409812 C 9.5400599,5.2709169 9.6839064,5.1262923 9.6238781,4.9778075 9.5943128,4.9047321 9.4535784,4.8721744 9.4104274,4.7984407 9.3673662,4.7247369 9.3674559,4.6488486 9.3877447,4.5739778 9.4244021,4.4390187 9.6914175,4.3163886 9.7857691,4.2097081 9.9309622,4.0455429 9.9867114,3.9082198 9.9044792,3.696804 9.7890009,3.3998043 9.3428581,3.1614864 9.0758427,3.0449309 8.9535716,2.9915757 8.8850148,2.9877753 8.7896458,2.9591975 c 0.1952567,0.1144309 0.4011066,0.2055806 0.499887,0.4613744 0.082472,0.2136302 0.011042,0.2941268 0.013795,0.4801369 0.00129,0.086242 0.1148498,0.1293631 0.1652724,0.1838555 0.043899,0.04737 0.040338,0.082531 0.00527,0.1479163 C 9.4700069,4.1734996 9.4448105,4.1294808 9.3995349,4.0974318 9.3247838,4.0444357 9.2442572,4.0558369 9.2044278,3.9471814 9.1439806,3.7819987 9.2638577,3.625554 9.1290782,3.4400826 9.0282629,3.3013231 8.8941717,3.1460155 8.7132787,3.1419458 c -0.085614,-0.00195 -0.149981,0.010982 -0.24143,0.038034 l -0.121912,-0.1467194 -0.00281,-0.00192 C 8.0991404,2.805027 7.929469,2.6185083 7.5815979,2.4629613 7.2337268,2.3074442 7.06229,2.2838937 6.6634277,2.2927513 6.2645654,2.301579 5.8687255,2.3349447 5.4067527,2.7333282 4.9448098,3.1317117 3.7542079,4.6572274 3.4654674,4.8502996 3.1767568,5.0433718 3.1128084,5.1087866 2.75204,5.1088763 2.3912715,5.1089661 1.828214,4.5986654 1.8061597,3.9609167 1.7840755,3.323138 1.7752179,3.0964607 2.2185478,2.3281519 2.6619077,1.5598131 3.4650784,1.3238891 4.0609928,1.2442304 4.6569371,1.1645717 5.0150424,1.3744614 5.4558586,1.3754489 5.896645,1.3764663 6.3322843,1.3003686 6.4607498,0.94980432 6.3978786,0.98723972 6.3136414,1.0294331 6.0767599,1.0170145 5.8398784,1.0045958 5.5114282,0.73033877 5.1419517,0.54657306 4.7724752,0.36283727 4.361314,0.34132163 3.8339564,0.3313568 3.3065988,0.32139198 2.6485614,0.36170014 1.9966285,0.71364096 1.3446956,1.0655818 0.89968995,1.4390083 0.52156528,2.127808 0.14344061,2.8166377 0.08694336,3.3790368 0.14789935,4.2130596 0.20885534,5.0470825 0.46608545,5.6673553 0.96136413,6.2777831 1.4566428,6.8882108 1.9516222,7.1868862 2.8441473,7.2979357 L 3.0320424,6.4691496 2.69662,6.9505134 2.704909,6.4151361 2.4015056,6.7916149 2.2684318,6.2810448 2.0226328,6.6903807 1.9005413,6.1203209 1.5443512,6.4084031 1.6571063,5.9380215 1.1857971,5.9901797 1.4023001,5.6632258 0.97255585,5.6684625 1.2226041,5.2319554 0.84130745,5.1714183 1.1453393,4.7744114 0.67851874,4.636011 1.0650222,4.2659061 0.68339641,3.9549019 0.98189226,3.7227484 0.7027575,3.3513268 1.0005052,3.0047125 0.88936603,2.546989 1.1421973,2.3265958 1.2174571,1.8034874 1.5012002,1.6609875 1.7453234,1.2526392 l 0.45123,-0.047909 0.2226375,-0.36729198 0.453205,0.0230717 0.4282778,-0.2327819 0.4441678,0.10344863 0.5045253,-0.15237502 0.373666,0.0875588 0.4876479,0.0716689 L 5.5814812,1.1144782 4.8593158,0.86239512 4.4960336,1.036585 4.1957423,0.85329812 3.9889947,0.99373332 3.6231689,1.0303607 3.2951078,1.0091743 3.055952,1.3011167 2.5684538,1.306144 2.3945631,1.6994403 1.9610783,1.8515161 1.9205308,2.3035839 1.6096762,2.5471087 1.7132445,2.9725139 1.4447927,3.4143476 1.6507324,3.8008212 1.4480545,4.1545275 1.7177032,4.330483 1.6565378,4.8989866 2.0315503,4.9934879 2.1160269,5.4152124 2.5246744,5.3727497 2.778553,5.6616996 3.0923401,5.3553037 C 3.6643748,5.0700644 3.8999397,4.9105075 4.3457533,4.4283357 4.8532411,3.8794325 5.1441063,3.3719447 5.8200984,2.9961242 6.3049334,2.7265653 6.7003843,2.6295504 7.2450083,2.7236626 c 0.5113481,0.088337 0.6825755,0.3950619 1.059174,0.7181855 0.039919,-0.072267 0.048029,-0.091419 0.1138025,-0.1446246 -0.020648,0.093843 -0.053445,0.191187 -0.061794,0.2814389 z"
     id="path4"
     inkscape:connector-curvature="0" />
</svg>
