<?xml version="1.0" encoding="UTF-8" standalone="no"?>
<svg
   xmlns:dc="http://purl.org/dc/elements/1.1/"
   xmlns:cc="http://creativecommons.org/ns#"
   xmlns:rdf="http://www.w3.org/1999/02/22-rdf-syntax-ns#"
   xmlns:svg="http://www.w3.org/2000/svg"
   xmlns="http://www.w3.org/2000/svg"
   xmlns:sodipodi="http://sodipodi.sourceforge.net/DTD/sodipodi-0.dtd"
   xmlns:inkscape="http://www.inkscape.org/namespaces/inkscape"
   role="img"
   viewBox="0 0 24 24"
   version="1.1"
   id="svg6"
   sodipodi:docname="gnucash.svg"
   inkscape:version="0.92.4 5da689c313, 2019-01-14">
  <metadata
     id="metadata12">
    <rdf:RDF>
      <cc:Work
         rdf:about="">
        <dc:format>image/svg+xml</dc:format>
        <dc:type
           rdf:resource="http://purl.org/dc/dcmitype/StillImage" />
        <dc:title>Sega icon</dc:title>
      </cc:Work>
    </rdf:RDF>
  </metadata>
  <defs
     id="defs10" />
  <sodipodi:namedview
     pagecolor="#ffffff"
     bordercolor="#666666"
     borderopacity="1"
     objecttolerance="10"
     gridtolerance="10"
     guidetolerance="10"
     inkscape:pageopacity="0"
     inkscape:pageshadow="2"
     inkscape:window-width="1366"
     inkscape:window-height="714"
     id="namedview8"
     showgrid="false"
     inkscape:zoom="11.721534"
     inkscape:cx="9.1051964"
     inkscape:cy="12"
     inkscape:window-x="0"
     inkscape:window-y="26"
     inkscape:window-maximized="1"
     inkscape:current-layer="svg6" />
  <title
     id="title2">Sega icon</title>
  <path
     inkscape:connector-curvature="0"
     style="fill:#000000;stroke-width:0.46021798"
     d="M 12.054803,4.7140121 A 7.3634878,7.3634878 0 0 0 5.2324392,9.3161915 H 3.770879 L 2.850443,11.157063 h 1.9074194 a 7.3634878,7.3634878 0 0 0 -0.066548,0.920435 l -0.9204359,1.840873 h 1.1649037 a 7.3634878,7.3634878 0 0 0 7.1190208,5.522616 7.3634878,7.3634878 0 0 0 5.747202,-2.761308 h -2.699639 a 5.5226158,5.5226158 0 0 1 -3.047563,0.920436 5.5226158,5.5226158 0 0 1 -5.2004639,-3.681744 h 6.1208999 l 0.920435,-1.840873 H 6.5321868 a 5.5226158,5.5226158 0 0 1 0.082839,-0.920435 H 13.895674 L 14.816111,9.3161915 H 7.2786604 a 5.5226158,5.5226158 0 0 1 4.7761426,-2.761308 5.5226158,5.5226158 0 0 1 3.045722,0.920436 h 2.694117 A 7.3634878,7.3634878 0 0 0 12.054803,4.7140121 Z"
     id="path6" />
  <path
     inkscape:connector-curvature="0"
     style="fill:#000000;stroke-width:0.46021798"
     d="m 12.054803,0.11183199 c -6.6289802,0 -11.96566785,5.33668751 -11.96566785,11.96566601 0,6.628981 5.33668765,11.965669 11.96566785,11.965669 6.628979,0 11.965667,-5.336688 11.965667,-11.965669 0,-6.6289785 -5.336688,-11.96566601 -11.965667,-11.96566601 z m 0,1.84087191 c 5.641351,0 10.124795,4.4838116 10.124795,10.1247941 0,5.641353 -4.483444,10.124797 -10.124795,10.124797 -5.6409842,0 -10.124796,-4.483444 -10.124796,-10.124797 0,-5.6409825 4.4838118,-10.1247941 10.124796,-10.1247941 z"
     id="path8" />
</svg>
