<svg role="img" viewBox="0 0 24 24" xmlns="http://www.w3.org/2000/svg"><title>GNU Free Documentation License</title><path d="M20.624 7.89q-.192 0-.379.007H.219a.22.22 0 0 0-.217.248l.482 3.556-.482 3.557a.22.22 0 0 0 .217.247H17.55q.02.016.043.03c.19.126.439.225.739.309.599.167 1.403.265 2.29.265.89 0 1.693-.098 2.292-.265.3-.084.548-.183.738-.308.19-.126.347-.298.347-.525 0-.043-.024-.078-.034-.118A.2.2 0 0 0 24 14.86V9.03l-.002-.014L24 8.99c0-.228-.156-.4-.347-.525a2.6 2.6 0 0 0-.738-.309c-.599-.167-1.403-.265-2.291-.265m-2.548.348-.019.006zm2.547.09q.125 0 .245.003a.2.2 0 0 0 .084.021c.45-.013.862.11 1.18.267.195.097.26.18.366.274-.397.11-.926.136-1.57.191a7 7 0 0 1-1.412-.03c-.084-.01-.143-.028-.22-.041.56-.063 1.2-.095 1.77-.078a.17.17 0 1 0 .01-.34c-.85-.025-1.95-.004-2.6.196a.17.17 0 0 0-.056.295c.11.09.254.141.433.19.178.048.39.087.622.115a7.5 7.5 0 0 0 1.482.032c.764-.066 1.474-.014 1.996-.3a.17.17 0 0 0 .061-.24 1.3 1.3 0 0 0-.341-.337q.064.014.125.032c.271.075.486.166.615.252s.15.144.15.16c0 .011-.012.047-.07.1a1 1 0 0 1-.08.06c-.13.085-.344.176-.615.252-.544.151-1.319.25-2.174.25-.856 0-1.63-.099-2.174-.25a2.3 2.3 0 0 1-.615-.252c-.13-.086-.15-.145-.15-.16s.02-.075.15-.16.343-.177.615-.252c.543-.152 1.318-.25 2.174-.25M.47 8.335h17.362q-.13.06-.237.13c-.19.125-.346.297-.346.525l.001.03-.001.01v5.829q.015.02.034.034c-.01.04-.034.075-.034.118q.001.03.005.057H.469l.452-3.337a.2.2 0 0 0 0-.059zm3.704 1.037c-1.364 0-2.206.87-2.206 2.284 0 1.44.82 2.375 2.083 2.375.538 0 .943-.098 1.583-.393v-1.066c.005-.164.026-.184.218-.236v-.222c-.464.013-.645.02-.8.02-.148 0-.308-.007-.761-.02v.268l.282.013c.224.007.299.072.304.242v.864c-.272.124-.448.164-.677.164-.858 0-1.433-.838-1.433-2.088 0-1.158.512-1.838 1.38-1.838.272 0 .554.065.783.19.134.065.182.11.31.26l.026.564h.208c.059-.629.074-.753.122-1.001l-.031-.072a3.04 3.04 0 0 0-1.391-.308m4.316.085c-.149 0-.34.007-.751.013a9 9 0 0 1-.507.013c-.138 0-.138 0-.927-.02v.243l.197.02c.246.026.25.052.256.64v2.67c-.005.4-.01.504-.048.55-.032.039-.08.059-.208.072l-.197.02v.261c.448-.013.64-.02.826-.02.181 0 .39.007.885.02v-.261l-.25-.02q-.193-.018-.22-.085c-.026-.06-.031-.17-.036-.537v-1.223a3 3 0 0 1 .357-.02h.271c.208.007.283.066.304.242l.032.327h.214l-.017-.706c0-.072 0-.17.017-.674h-.214l-.032.346c-.016.112-.07.138-.304.138h-.271c-.198 0-.256 0-.357-.013v-1.59c.351-.02.42-.02.602-.02.378 0 .602.046.607.125l.043.49h.192l.074-.929-.031-.046a4 4 0 0 0-.507-.026m.816.007v.242l.197.02c.245.026.25.052.255.64v2.932c-.005.235-.026.314-.106.373l-.17.118v.15c.463-.013.676-.02.83-.02.145 0 .337.007.512.013.123.007.245.007.315.007.634 0 1.22-.275 1.62-.759.362-.438.549-1.014.549-1.72 0-.622-.144-1.132-.41-1.453-.31-.373-.757-.543-1.45-.543l-.725.013-.56.006c-.069 0-.069 0-.857-.02m4.46 0v.261l.197.02c.25.026.25.026.256.622v2.93c0 .223-.027.315-.107.374l-.17.118v.15c.367-.013.517-.02.655-.02.096 0 .155 0 .341.007.336.013.613.02.858.02.293 0 .448-.007.752-.026l.026-.053.059-1.086h-.208l-.122.668q0 .009-.017.019c-.17.072-.314.092-.618.092-.218 0-.426-.007-.698-.02v-3.173c.005-.393.011-.498.048-.55.032-.04.08-.06.208-.072l.197-.02v-.261c-.64.02-.64.02-.83.02-.187 0-.193 0-.827-.02m3.92.106q.265.148.648.253c.599.167 1.403.266 2.29.266.89 0 1.693-.1 2.292-.266l.021-.007q-.427.344-1.109.517c-.847.216-1.988.231-3.387.063l-.342-.041 1.517 2.564-1.535 1.84.217.087c1.818.731 3.959.442 5.228.042q.004.045.024.085a.1.1 0 0 1 .014.038c0 .015-.021.075-.15.16-.13.085-.344.176-.615.252-.544.151-1.319.25-2.174.25-.856 0-1.63-.099-2.174-.25a2.3 2.3 0 0 1-.615-.252c-.13-.085-.15-.145-.15-.16q-.001-.01.014-.038a.22.22 0 0 0-.014-.225zm5.8.171.064 4.773c-1.127.382-3.16.674-4.886.077l1.367-1.639-1.302-2.2c1.265.13 2.347.124 3.183-.09.677-.172 1.211-.477 1.575-.92m-12.646.05c.373 0 .794.085 1.018.21q.162.096.299.26c.24.289.351.734.351 1.381q.001 1.002-.389 1.473c-.266.32-.645.464-1.247.464-.144 0-.229-.006-.362-.032v-3.73a2 2 0 0 1 .33-.026"/></svg>