<svg role="img" viewBox="0 0 24 24" xmlns="http://www.w3.org/2000/svg"><title>GNU nano</title><path d="M13.94.101q0-.042.03-.07a.1.1 0 0 1 .08-.03q.05 0 .08.028.03.027.03.072t-.03.073a.12.12 0 0 1-.08.027.1.1 0 0 1-.08-.027.1.1 0 0 1-.03-.073m0 .31q0-.042.03-.07a.1.1 0 0 1 .08-.029q.05 0 .08.027.03.028.03.073t-.03.072a.12.12 0 0 1-.08.028.1.1 0 0 1-.08-.028.1.1 0 0 1-.03-.072m.69-.31q0-.043.03-.072a.1.1 0 0 1 .08-.03q.05 0 .08.03.03.026.03.071t-.03.073a.12.12 0 0 1-.08.027.1.1 0 0 1-.08-.027.1.1 0 0 1-.03-.073m0 .31q0-.042.03-.07a.1.1 0 0 1 .08-.029q.05 0 .08.027.03.028.03.073t-.03.072a.12.12 0 0 1-.08.028.1.1 0 0 1-.08-.028.1.1 0 0 1-.03-.072m.69-.31q0-.043.03-.072a.1.1 0 0 1 .08-.028q.05 0 .08.028.03.027.03.072t-.03.073a.12.12 0 0 1-.08.027.1.1 0 0 1-.08-.027.1.1 0 0 1-.03-.073m0 .31q0-.042.031-.07a.1.1 0 0 1 .08-.029q.05 0 .08.027.03.028.03.073t-.03.072a.12.12 0 0 1-.08.028.1.1 0 0 1-.08-.028.1.1 0 0 1-.03-.072m-10.2 1.394h.18q.023 0 .034.01.01.008.01.03t-.01.03q-.01.01-.036.01h-.435q-.022 0-.034-.01-.01-.012-.011-.03 0-.02.012-.03t.035-.01h.172v-.36h-.11q-.024 0-.036-.01a.04.04 0 0 1-.012-.03q0-.02.012-.03.01-.009.033-.01h.165a.04.04 0 0 1 .024.006.02.02 0 0 1 .008.017zm-.103-.602q0-.06.01-.076.012-.016.048-.016t.046.013.01.063q0 .048-.01.06-.01.01-.046.01t-.047-.01-.01-.044m.954.455q0-.043.009-.055t.032-.012q.02 0 .03.01t.01.032v.21a.04.04 0 0 1-.01.03.04.04 0 0 1-.03.01h-.526q-.021 0-.03-.01-.01-.01-.01-.03t.012-.03q.012-.007.054-.008h.07v-.506h-.07q-.041 0-.054-.01-.012-.008-.012-.03t.01-.03.032-.01h.304q.02 0 .03.01.012.01.01.03 0 .022-.011.031-.012.01-.055.01h-.095v.505h.3Zm.239.226h-.027q-.02 0-.03-.01t-.01-.03q0-.022.01-.03.013-.01.057-.01h.036v-.505h-.036q-.042 0-.055-.01-.013-.008-.013-.03t.01-.03.033-.01h.49q.02 0 .028.01.01.012.01.034v.132q0 .03-.01.04-.006.012-.03.012-.022 0-.031-.012t-.008-.056v-.08h-.3v.19h.148v-.03q0-.03.008-.043t.028-.012.028.013a.1.1 0 0 1 .007.054v.104q0 .042-.008.054-.007.012-.028.012-.02 0-.028-.013a.1.1 0 0 1-.007-.053v-.02h-.147v.25h.299v-.09q0-.046.008-.057.01-.012.032-.012t.03.01.01.045v.142q0 .02-.011.03-.01.012-.03.01zm.818-.363a.2.2 0 0 1-.082-.068.17.17 0 0 1-.027-.097q0-.087.062-.143a.23.23 0 0 1 .16-.056q.096 0 .16.056a.18.18 0 0 1 .062.138.2.2 0 0 1-.026.102.2.2 0 0 1-.084.068.2.2 0 0 1 .087.068.2.2 0 0 1 .03.104.2.2 0 0 1-.064.152.24.24 0 0 1-.165.058.23.23 0 0 1-.165-.06.2.2 0 0 1-.064-.152q0-.057.03-.1a.2.2 0 0 1 .086-.07m-.024.17a.13.13 0 0 0 .038.095.14.14 0 0 0 .1.038.14.14 0 0 0 .1-.036.13.13 0 0 0 .036-.096.13.13 0 0 0-.038-.095.14.14 0 0 0-.1-.036.14.14 0 0 0-.097.036.12.12 0 0 0-.04.093m.007-.335a.12.12 0 0 0 .037.09.13.13 0 0 0 .094.037.13.13 0 0 0 .095-.036.12.12 0 0 0 .036-.092.12.12 0 0 0-.036-.09.13.13 0 0 0-.095-.035.13.13 0 0 0-.095.036.12.12 0 0 0-.036.09m.71.165a.2.2 0 0 1-.083-.068.17.17 0 0 1-.027-.097q0-.087.062-.143a.23.23 0 0 1 .16-.056q.095 0 .16.056a.18.18 0 0 1 .062.138.2.2 0 0 1-.027.102.2.2 0 0 1-.083.068.2.2 0 0 1 .087.068.2.2 0 0 1 .03.104.2.2 0 0 1-.064.152.24.24 0 0 1-.165.058.23.23 0 0 1-.166-.06.2.2 0 0 1-.063-.152q0-.057.03-.1a.2.2 0 0 1 .086-.07m-.025.17a.13.13 0 0 0 .037.095.14.14 0 0 0 .1.038.14.14 0 0 0 .1-.036.13.13 0 0 0 .037-.096.13.13 0 0 0-.04-.095.14.14 0 0 0-.098-.036.14.14 0 0 0-.098.036.12.12 0 0 0-.038.093m.006-.335a.12.12 0 0 0 .036.09.13.13 0 0 0 .094.037.13.13 0 0 0 .095-.036.12.12 0 0 0 .037-.092.12.12 0 0 0-.037-.09.13.13 0 0 0-.095-.035.13.13 0 0 0-.094.036.12.12 0 0 0-.036.09m.687.528h-.114q-.02 0-.03-.01-.012-.01-.01-.03 0-.022.01-.03.012-.01.046-.01h.01v-.503h-.01q-.033 0-.045-.01-.013-.008-.013-.03t.01-.03.033-.01h.237q.14 0 .223.09.084.09.084.243 0 .075-.024.138a.3.3 0 0 1-.07.113.25.25 0 0 1-.102.064.5.5 0 0 1-.194.018Zm0-.08.07.004q.138 0 .203-.06.064-.064.064-.197 0-.134-.065-.194t-.206-.06h-.04l-.027.004zm.998.047a.5.5 0 0 1-.008.108.2.2 0 0 1-.027.062.2.2 0 0 1-.09.063.4.4 0 0 1-.133.022.3.3 0 0 1-.093-.013q-.03-.013-.03-.04a.04.04 0 0 1 .014-.03.05.05 0 0 1 .035-.013q.014 0 .047.004l.048.004q.082 0 .118-.038t.035-.13v-.406h-.22q-.055 0-.07-.01-.013-.008-.015-.03 0-.02.01-.03.013-.008.035-.008h.31a.04.04 0 0 1 .024.006.02.02 0 0 1 .009.017zm-.152-.648q0-.06.012-.076.01-.016.048-.016.034 0 .045.013.01.014.01.063 0 .05-.01.06-.01.012-.045.01-.037 0-.048-.01t-.012-.044m.56.59q0-.045.03-.073a.1.1 0 0 1 .08-.028q.05 0 .08.027.03.028.03.073t-.03.073a.12.12 0 0 1-.08.027.1.1 0 0 1-.08-.027.1.1 0 0 1-.03-.073m2.072-.31q0-.045.03-.073a.1.1 0 0 1 .08-.028q.05 0 .08.028.03.027.03.072t-.03.073a.12.12 0 0 1-.08.027.1.1 0 0 1-.08-.027.1.1 0 0 1-.03-.073m0 .31q0-.044.032-.072a.1.1 0 0 1 .08-.028q.05 0 .08.027.03.028.03.073t-.03.073a.12.12 0 0 1-.08.027.1.1 0 0 1-.08-.027.1.1 0 0 1-.03-.073m.973.06a.5.5 0 0 1-.009.107.2.2 0 0 1-.027.062.2.2 0 0 1-.088.063.4.4 0 0 1-.134.022.3.3 0 0 1-.093-.013q-.03-.013-.03-.04a.04.04 0 0 1 .015-.03.05.05 0 0 1 .034-.013q.015 0 .047.004l.048.004q.082 0 .117-.038t.035-.13v-.406h-.22q-.054 0-.068-.01-.014-.008-.014-.03 0-.02.011-.03.012-.01.034-.01h.31a.04.04 0 0 1 .023.007.02.02 0 0 1 .01.017zm-.152-.649q0-.06.011-.076.012-.016.048-.016.034 0 .045.013.011.014.011.063 0 .05-.01.06-.01.012-.046.01-.036 0-.048-.01-.01-.01-.01-.044m.535.68h-.115q-.02 0-.03-.01t-.01-.03.011-.03.046-.01h.01v-.5h-.01q-.033 0-.046-.01-.012-.009-.012-.03 0-.023.01-.032t.033-.01h.237q.14 0 .223.09t.083.244q0 .075-.024.138a.3.3 0 0 1-.069.113.25.25 0 0 1-.103.064.5.5 0 0 1-.193.018zm0-.078.07.003q.138 0 .203-.06.063-.064.064-.197 0-.134-.065-.194t-.207-.06l-.065.002zm.712-.284a.2.2 0 0 1-.082-.068.17.17 0 0 1-.027-.097q0-.087.062-.143a.23.23 0 0 1 .16-.056q.095 0 .16.056a.18.18 0 0 1 .062.138.2.2 0 0 1-.027.102.2.2 0 0 1-.084.068.2.2 0 0 1 .087.068.2.2 0 0 1 .03.104.2.2 0 0 1-.063.152.24.24 0 0 1-.165.058.23.23 0 0 1-.166-.06.2.2 0 0 1-.063-.152q0-.057.03-.1a.2.2 0 0 1 .086-.07m-.024.17a.13.13 0 0 0 .037.095.14.14 0 0 0 .1.038.14.14 0 0 0 .1-.036.13.13 0 0 0 .036-.096.13.13 0 0 0-.038-.095.14.14 0 0 0-.099-.036.14.14 0 0 0-.098.036.12.12 0 0 0-.038.093m.006-.335a.12.12 0 0 0 .036.09.13.13 0 0 0 .095.037.13.13 0 0 0 .094-.036.12.12 0 0 0 .037-.092.12.12 0 0 0-.037-.09.13.13 0 0 0-.094-.035.13.13 0 0 0-.095.036.12.12 0 0 0-.036.09m.71.165a.2.2 0 0 1-.083-.068.17.17 0 0 1-.028-.097q0-.087.063-.143a.23.23 0 0 1 .16-.056q.095 0 .16.056a.18.18 0 0 1 .063.138.2.2 0 0 1-.027.102.2.2 0 0 1-.085.068.2.2 0 0 1 .088.068.2.2 0 0 1 .03.104.2.2 0 0 1-.063.152.24.24 0 0 1-.167.058.23.23 0 0 1-.165-.06.2.2 0 0 1-.063-.152q0-.057.03-.1a.2.2 0 0 1 .086-.07m-.024.17a.13.13 0 0 0 .037.095.14.14 0 0 0 .1.038.14.14 0 0 0 .1-.036.13.13 0 0 0 .037-.096.13.13 0 0 0-.038-.095.14.14 0 0 0-.1-.036.14.14 0 0 0-.098.036.12.12 0 0 0-.038.093m.005-.335a.12.12 0 0 0 .037.09.13.13 0 0 0 .094.037.13.13 0 0 0 .096-.036.12.12 0 0 0 .036-.092.12.12 0 0 0-.036-.09.13.13 0 0 0-.096-.035.13.13 0 0 0-.094.036.12.12 0 0 0-.037.09m.71.165a.2.2 0 0 1-.082-.068.17.17 0 0 1-.027-.097q0-.087.062-.143a.23.23 0 0 1 .16-.056q.096 0 .16.056a.18.18 0 0 1 .062.138.2.2 0 0 1-.026.102.2.2 0 0 1-.084.068.2.2 0 0 1 .087.068.2.2 0 0 1 .03.104.2.2 0 0 1-.064.152.24.24 0 0 1-.165.058.23.23 0 0 1-.165-.06.2.2 0 0 1-.064-.152q0-.057.03-.1a.2.2 0 0 1 .086-.07m-.025.17a.13.13 0 0 0 .038.095.14.14 0 0 0 .1.038.14.14 0 0 0 .1-.036.13.13 0 0 0 .036-.096.13.13 0 0 0-.038-.095.14.14 0 0 0-.1-.036.14.14 0 0 0-.098.036.12.12 0 0 0-.038.093m.006-.335a.12.12 0 0 0 .037.09.13.13 0 0 0 .094.037.13.13 0 0 0 .094-.036.12.12 0 0 0 .037-.092.12.12 0 0 0-.037-.09.13.13 0 0 0-.094-.035.13.13 0 0 0-.095.036.12.12 0 0 0-.036.09m.71.165a.2.2 0 0 1-.083-.068.17.17 0 0 1-.028-.097q0-.087.063-.143a.23.23 0 0 1 .16-.056q.095 0 .16.056a.18.18 0 0 1 .062.138.2.2 0 0 1-.027.102.2.2 0 0 1-.084.068.2.2 0 0 1 .087.068.2.2 0 0 1 .03.104.2.2 0 0 1-.063.152.24.24 0 0 1-.166.058.23.23 0 0 1-.165-.06.2.2 0 0 1-.063-.152q0-.057.03-.1a.2.2 0 0 1 .086-.07m-.024.17a.13.13 0 0 0 .037.095.14.14 0 0 0 .1.038.14.14 0 0 0 .1-.036.13.13 0 0 0 .036-.096.13.13 0 0 0-.038-.095.14.14 0 0 0-.1-.036.14.14 0 0 0-.097.036.12.12 0 0 0-.038.093m.006-.335a.12.12 0 0 0 .036.09.13.13 0 0 0 .094.037.13.13 0 0 0 .095-.036.12.12 0 0 0 .037-.092.12.12 0 0 0-.037-.09.13.13 0 0 0-.095-.035.13.13 0 0 0-.094.036.12.12 0 0 0-.036.09m.71.165a.2.2 0 0 1-.083-.068.17.17 0 0 1-.028-.097q0-.087.063-.143a.23.23 0 0 1 .16-.056q.095 0 .158.056a.18.18 0 0 1 .064.138.2.2 0 0 1-.027.102.2.2 0 0 1-.084.068.2.2 0 0 1 .087.068.2.2 0 0 1 .03.104.2.2 0 0 1-.063.152.24.24 0 0 1-.166.058.23.23 0 0 1-.165-.06.2.2 0 0 1-.064-.152q0-.057.03-.1a.2.2 0 0 1 .087-.07m-.024.17a.13.13 0 0 0 .037.095.14.14 0 0 0 .1.038.14.14 0 0 0 .1-.036.13.13 0 0 0 .036-.096.13.13 0 0 0-.038-.095.14.14 0 0 0-.1-.036.14.14 0 0 0-.097.036.12.12 0 0 0-.038.093m.005-.335a.12.12 0 0 0 .037.09.13.13 0 0 0 .094.037.13.13 0 0 0 .095-.036.12.12 0 0 0 .036-.092.12.12 0 0 0-.036-.09.13.13 0 0 0-.095-.035.13.13 0 0 0-.094.036.12.12 0 0 0-.037.09m.687.528h-.114q-.02 0-.03-.01t-.01-.03q0-.022.011-.03.012-.01.046-.01h.01v-.497h-.01q-.033 0-.046-.01-.012-.008-.012-.03t.01-.03.032-.01h.238q.14 0 .223.09t.083.243q0 .075-.024.138a.3.3 0 0 1-.07.113.25.25 0 0 1-.102.064.5.5 0 0 1-.193.018zm0-.08.07.004q.14 0 .203-.06.065-.064.065-.197 0-.134-.065-.194-.064-.06-.207-.06l-.066.002zm.998.047a.5.5 0 0 1-.008.108.2.2 0 0 1-.028.062.2.2 0 0 1-.088.063.4.4 0 0 1-.133.022.3.3 0 0 1-.094-.013q-.03-.013-.03-.04a.04.04 0 0 1 .015-.03.05.05 0 0 1 .034-.013q.015 0 .047.004l.05.004q.08 0 .115-.038t.035-.13v-.406h-.22q-.053 0-.068-.01-.013-.007-.013-.03 0-.02.01-.03.012-.01.034-.01h.31a.04.04 0 0 1 .024.007.02.02 0 0 1 .008.017zm-.152-.648q0-.06.012-.076.01-.016.047-.016.034 0 .046.013.01.014.01.063 0 .05-.01.06-.01.012-.046.01-.036 0-.047-.01-.01-.01-.012-.044m.56.278q0-.044.03-.072a.1.1 0 0 1 .08-.028q.05 0 .08.028.03.027.03.072t-.03.073a.12.12 0 0 1-.08.027.1.1 0 0 1-.08-.027.1.1 0 0 1-.03-.073m0 .31q0-.043.03-.07a.1.1 0 0 1 .08-.029q.05 0 .08.027.03.028.03.073t-.03.073a.12.12 0 0 1-.08.027.1.1 0 0 1-.08-.027.1.1 0 0 1-.03-.073M3.576 3.174q0-.044.032-.072a.1.1 0 0 1 .08-.028q.05 0 .08.028.03.027.03.072t-.03.073a.12.12 0 0 1-.08.027.1.1 0 0 1-.08-.027.1.1 0 0 1-.03-.073m1.012-.133q0-.042.009-.055t.032-.012q.02 0 .03.01t.01.033v.21a.04.04 0 0 1-.01.03.04.04 0 0 1-.03.01h-.525q-.021 0-.03-.01-.01-.01-.01-.03 0-.023.01-.03.014-.009.056-.009h.07v-.506h-.07q-.042 0-.054-.009t-.013-.032q0-.02.01-.03t.033-.01h.304q.02 0 .03.01.012.01.01.03 0 .023-.011.032-.012.01-.055.01h-.095v.505h.3Zm.658.13v-.134h-.14q-.017 0-.025-.01-.007-.006-.007-.026t.008-.029q.007-.008.028-.008h.242q.015 0 .022.01a.05.05 0 0 1 .007.027q0 .021-.01.03-.008.007-.032.007h-.008v.17q0 .015-.003.02l-.013.012a.3.3 0 0 1-.094.032.6.6 0 0 1-.124.014.32.32 0 0 1-.243-.096.35.35 0 0 1-.093-.25q0-.156.09-.256a.3.3 0 0 1 .232-.1q.038 0 .077.008l.08.026a.04.04 0 0 1 .015-.02l.026-.007q.027 0 .035.016.009.015.009.072v.077q0 .026-.01.038-.01.01-.033.011-.03 0-.042-.036l-.008-.016a.16.16 0 0 0-.148-.093.2.2 0 0 0-.16.073.3.3 0 0 0-.06.196q0 .128.066.203t.176.075a.3.3 0 0 0 .066-.008zm.564.017h.18q.022 0 .033.01.01.008.01.03t-.01.03-.036.01h-.436q-.022 0-.033-.01-.011-.012-.012-.03-.001-.02.012-.03.012-.01.036-.01h.17v-.36h-.11q-.022 0-.034-.01a.04.04 0 0 1-.012-.03q0-.02.01-.03.012-.01.035-.01h.164a.04.04 0 0 1 .024.006.02.02 0 0 1 .009.017zm-.104-.602q0-.06.01-.076.012-.015.048-.016.034 0 .046.013.01.013.01.063 0 .048-.01.06-.01.01-.046.011t-.047-.01-.011-.045m.896.194q.027 0 .04.01.012.008.012.03 0 .02-.011.03-.011.008-.036.01h-.227v.186q0 .092.023.122.024.03.082.03.05 0 .123-.03a.4.4 0 0 1 .088-.03q.016 0 .027.011a.04.04 0 0 1 .01.027.05.05 0 0 1-.013.032.14.14 0 0 1-.047.027 1 1 0 0 1-.1.032.4.4 0 0 1-.082.01.3.3 0 0 1-.11-.02.14.14 0 0 1-.067-.064.2.2 0 0 1-.016-.046l-.005-.084v-.205H6.2q-.024 0-.035-.009-.01-.009-.01-.03 0-.023.014-.032a.2.2 0 0 1 .062-.008h.064v-.145q0-.024.01-.035.01-.01.033-.012.023 0 .034.014.01.015.01.064v.114zm.296.487h-.026q-.02 0-.03-.01t-.01-.03q0-.022.01-.03.013-.008.056-.009h.036v-.505H6.9q-.042 0-.054-.009-.013-.009-.013-.032 0-.02.01-.03t.032-.01h.49q.018 0 .03.012.01.01.01.033v.133q0 .03-.01.04t-.03.011q-.023 0-.032-.012t-.01-.056v-.08h-.298v.19h.147v-.03q0-.03.01-.043.008-.013.027-.012.02.001.027.013a.1.1 0 0 1 .008.054v.105q0 .042-.008.054t-.028.012-.028-.014a.1.1 0 0 1-.007-.052v-.02h-.148v.25h.3v-.092q0-.043.008-.056.01-.012.032-.012t.03.012.008.043v.142q0 .02-.01.03-.01.011-.028.011zm.82-.363a.2.2 0 0 1-.083-.068.17.17 0 0 1-.027-.097q0-.087.062-.143a.23.23 0 0 1 .16-.056q.095 0 .16.057a.18.18 0 0 1 .062.137.2.2 0 0 1-.027.102.2.2 0 0 1-.083.068.2.2 0 0 1 .087.068.2.2 0 0 1 .03.105.2.2 0 0 1-.064.15.24.24 0 0 1-.165.06.23.23 0 0 1-.166-.06.2.2 0 0 1-.063-.152q0-.058.03-.102a.2.2 0 0 1 .086-.069m-.025.17a.13.13 0 0 0 .037.097.14.14 0 0 0 .1.037.14.14 0 0 0 .1-.036.13.13 0 0 0 .037-.096.13.13 0 0 0-.04-.095.14.14 0 0 0-.097-.036.14.14 0 0 0-.1.036.12.12 0 0 0-.037.093M7.7 2.74a.12.12 0 0 0 .036.091.13.13 0 0 0 .094.036.13.13 0 0 0 .095-.036.12.12 0 0 0 .037-.092.12.12 0 0 0-.037-.09.13.13 0 0 0-.095-.035.13.13 0 0 0-.094.036.12.12 0 0 0-.036.09m.71.165a.2.2 0 0 1-.083-.068.17.17 0 0 1-.028-.097q0-.087.063-.143a.23.23 0 0 1 .16-.056q.095 0 .158.057a.18.18 0 0 1 .064.137.2.2 0 0 1-.027.102.2.2 0 0 1-.084.068.2.2 0 0 1 .087.068.2.2 0 0 1 .03.105.2.2 0 0 1-.063.15.24.24 0 0 1-.166.06.23.23 0 0 1-.165-.06.2.2 0 0 1-.064-.152q0-.058.03-.102a.2.2 0 0 1 .087-.069m-.024.17a.13.13 0 0 0 .037.097.14.14 0 0 0 .1.037.14.14 0 0 0 .1-.036.13.13 0 0 0 .036-.096.13.13 0 0 0-.038-.095.14.14 0 0 0-.1-.036.14.14 0 0 0-.097.036.12.12 0 0 0-.038.093m.005-.335a.12.12 0 0 0 .037.091.13.13 0 0 0 .094.036.13.13 0 0 0 .095-.036.12.12 0 0 0 .036-.092.12.12 0 0 0-.036-.09.13.13 0 0 0-.095-.035.13.13 0 0 0-.094.036.12.12 0 0 0-.037.09m.71.165a.2.2 0 0 1-.082-.068.17.17 0 0 1-.028-.097q0-.087.062-.143a.23.23 0 0 1 .16-.056q.097 0 .16.057a.18.18 0 0 1 .064.137.2.2 0 0 1-.027.102.2.2 0 0 1-.084.068.2.2 0 0 1 .087.068.2.2 0 0 1 .03.105.2.2 0 0 1-.063.15.24.24 0 0 1-.167.06.23.23 0 0 1-.165-.06.2.2 0 0 1-.064-.152q0-.058.03-.102a.2.2 0 0 1 .087-.069m-.025.17a.13.13 0 0 0 .038.097.14.14 0 0 0 .1.037.14.14 0 0 0 .1-.036.13.13 0 0 0 .037-.096.13.13 0 0 0-.038-.095.14.14 0 0 0-.1-.036.14.14 0 0 0-.098.036.12.12 0 0 0-.04.093m.007-.335a.12.12 0 0 0 .037.091.13.13 0 0 0 .094.036.13.13 0 0 0 .095-.036.12.12 0 0 0 .037-.092.12.12 0 0 0-.037-.09.13.13 0 0 0-.095-.035.13.13 0 0 0-.095.036.12.12 0 0 0-.036.09m.688.528h-.114q-.02 0-.031-.01t-.01-.03q0-.022.01-.03.014-.01.047-.01h.01v-.504h-.01q-.032 0-.045-.01-.012-.008-.013-.03t.01-.03.033-.01h.238q.14 0 .223.09t.083.243q0 .075-.024.138a.3.3 0 0 1-.07.113.25.25 0 0 1-.102.064.5.5 0 0 1-.193.018zm0-.08.07.004q.139 0 .203-.062.064-.06.064-.195 0-.134-.064-.194t-.207-.06h-.04l-.026.002zm.715-.012q0-.044.03-.072a.1.1 0 0 1 .08-.028q.05 0 .08.028.03.027.03.072t-.03.073a.12.12 0 0 1-.08.027.1.1 0 0 1-.08-.027.1.1 0 0 1-.03-.073m.974.012q.023 0 .035.01t.012.03-.012.03q-.01.01-.033.01h-.368q-.023 0-.035-.01t-.012-.03.012-.03.033-.01h.096v-.343h-.092a.05.05 0 0 1-.036-.01.04.04 0 0 1-.012-.03q0-.022.012-.03.01-.012.034-.01h.089v-.04q0-.102.058-.147.057-.046.187-.046a.2.2 0 0 1 .093.014q.03.014.03.044a.04.04 0 0 1-.013.028.05.05 0 0 1-.033.011l-.05-.006a.4.4 0 0 0-.065-.007q-.064 0-.09.027-.03.026-.028.088v.032h.199q.023 0 .035.01t.012.03a.04.04 0 0 1-.013.03.05.05 0 0 1-.033.012h-.195v.343zm.405-.283a.2.2 0 0 1-.082-.068.17.17 0 0 1-.027-.097q0-.087.062-.143a.23.23 0 0 1 .16-.056q.094 0 .158.057a.18.18 0 0 1 .063.137.2.2 0 0 1-.027.102.2.2 0 0 1-.083.068.2.2 0 0 1 .086.068.2.2 0 0 1 .03.105.2.2 0 0 1-.063.15.24.24 0 0 1-.164.06.23.23 0 0 1-.166-.06.2.2 0 0 1-.063-.152q0-.059.03-.102a.2.2 0 0 1 .086-.069m-.024.17a.13.13 0 0 0 .037.097.14.14 0 0 0 .1.037.14.14 0 0 0 .098-.036.13.13 0 0 0 .037-.096.13.13 0 0 0-.038-.095.14.14 0 0 0-.099-.036.14.14 0 0 0-.097.036.12.12 0 0 0-.038.093m.005-.335a.12.12 0 0 0 .037.091.13.13 0 0 0 .093.036.13.13 0 0 0 .095-.036.12.12 0 0 0 .037-.092.12.12 0 0 0-.037-.09.13.13 0 0 0-.095-.035.13.13 0 0 0-.093.036.12.12 0 0 0-.037.09m1 .431v-.133h-.139q-.018 0-.025-.01-.009-.007-.008-.027t.007-.029q.007-.008.028-.008h.243q.015 0 .021.01a.05.05 0 0 1 .007.027q0 .021-.009.03-.009.007-.033.007h-.007v.17q0 .015-.004.02l-.013.012a.3.3 0 0 1-.093.032.6.6 0 0 1-.125.014.32.32 0 0 1-.243-.096.35.35 0 0 1-.093-.25q0-.156.091-.256a.3.3 0 0 1 .231-.1q.04 0 .077.008l.08.026a.04.04 0 0 1 .016-.02l.025-.007q.027 0 .035.016.01.015.01.072v.077q0 .026-.01.038-.01.01-.034.011-.03 0-.042-.036l-.007-.016a.16.16 0 0 0-.149-.093.2.2 0 0 0-.16.073.3.3 0 0 0-.06.196q0 .128.066.203t.176.075a.3.3 0 0 0 .066-.008zm.685.064a.5.5 0 0 1-.008.108.2.2 0 0 1-.027.062.2.2 0 0 1-.089.063.4.4 0 0 1-.133.022.3.3 0 0 1-.093-.013q-.03-.013-.03-.04a.04.04 0 0 1 .014-.03.05.05 0 0 1 .034-.013q.015 0 .047.004l.05.004q.081 0 .116-.038t.035-.13v-.406h-.22q-.055 0-.068-.009t-.014-.03.011-.03.034-.01h.31a.04.04 0 0 1 .023.006.02.02 0 0 1 .01.017zm-.15-.648q0-.06.01-.076t.048-.016q.034 0 .045.013.01.014.011.063 0 .05-.01.06-.01.012-.046.011-.037 0-.048-.01-.01-.012-.01-.045m.841.648a.5.5 0 0 1-.008.108.2.2 0 0 1-.028.062.2.2 0 0 1-.088.063.4.4 0 0 1-.133.022.3.3 0 0 1-.094-.013q-.03-.013-.03-.04a.04.04 0 0 1 .015-.03.05.05 0 0 1 .034-.013q.015 0 .047.004l.048.004q.082 0 .117-.038t.035-.13v-.406h-.22q-.054 0-.068-.009t-.014-.03.012-.03q.01-.01.033-.01h.31a.04.04 0 0 1 .023.006.02.02 0 0 1 .01.017zm-.152-.648q0-.06.011-.076.012-.016.048-.016.034 0 .046.013.01.014.01.063 0 .05-.01.06-.01.012-.046.011-.036 0-.047-.01-.012-.012-.012-.045m.844.648a.5.5 0 0 1-.01.108.2.2 0 0 1-.026.062.2.2 0 0 1-.089.063.4.4 0 0 1-.134.022.3.3 0 0 1-.093-.013q-.03-.013-.03-.04a.04.04 0 0 1 .015-.03.05.05 0 0 1 .034-.013q.015 0 .047.004l.048.004q.082 0 .117-.038t.035-.13v-.406h-.22q-.054 0-.068-.009t-.014-.03.011-.03q.012-.01.034-.01h.31q.015 0 .024.006a.02.02 0 0 1 .01.017zm-.153-.648q0-.06.011-.076.012-.016.048-.016.034 0 .045.013.012.014.011.063 0 .05-.01.06-.01.012-.046.011-.036 0-.048-.01-.01-.012-.01-.045m.882.455q0-.042.008-.055t.032-.012q.02 0 .03.01t.01.033v.21a.04.04 0 0 1-.01.03.04.04 0 0 1-.03.01h-.524q-.02 0-.03-.01t-.01-.03q0-.022.01-.03.013-.009.056-.009h.07v-.505h-.07q-.042 0-.054-.009-.013-.009-.013-.032 0-.02.01-.03t.033-.01h.304q.02 0 .03.01t.01.03q0 .023-.01.032-.013.01-.057.01h-.094v.505h.3zm.366-.137a.2.2 0 0 1-.082-.068.17.17 0 0 1-.028-.097q0-.087.063-.143a.23.23 0 0 1 .16-.056q.095 0 .16.057a.18.18 0 0 1 .062.137.2.2 0 0 1-.027.102.2.2 0 0 1-.084.068.2.2 0 0 1 .087.068.2.2 0 0 1 .03.105.2.2 0 0 1-.063.15.24.24 0 0 1-.166.06.23.23 0 0 1-.165-.06.2.2 0 0 1-.063-.152q0-.058.03-.102a.2.2 0 0 1 .086-.069m-.024.17a.13.13 0 0 0 .037.097.14.14 0 0 0 .1.037.14.14 0 0 0 .1-.036.13.13 0 0 0 .036-.096.13.13 0 0 0-.038-.095.14.14 0 0 0-.1-.036.14.14 0 0 0-.097.036.12.12 0 0 0-.038.093m.006-.335a.12.12 0 0 0 .036.091.13.13 0 0 0 .094.036.13.13 0 0 0 .095-.036.12.12 0 0 0 .037-.092.12.12 0 0 0-.037-.09.13.13 0 0 0-.095-.035.13.13 0 0 0-.094.036.12.12 0 0 0-.036.09m.71.165a.2.2 0 0 1-.083-.068.17.17 0 0 1-.028-.097q0-.087.063-.143a.23.23 0 0 1 .16-.056q.095 0 .158.057a.18.18 0 0 1 .064.137.2.2 0 0 1-.027.102.2.2 0 0 1-.084.068.2.2 0 0 1 .087.068.2.2 0 0 1 .03.105.2.2 0 0 1-.063.15.24.24 0 0 1-.166.06.23.23 0 0 1-.165-.06.2.2 0 0 1-.064-.152q0-.058.03-.102a.2.2 0 0 1 .087-.069m-.024.17a.13.13 0 0 0 .037.097.14.14 0 0 0 .1.037.14.14 0 0 0 .1-.036.13.13 0 0 0 .036-.096.13.13 0 0 0-.038-.095.14.14 0 0 0-.1-.036.14.14 0 0 0-.097.036.12.12 0 0 0-.038.093m.005-.335a.12.12 0 0 0 .037.091.13.13 0 0 0 .094.036.13.13 0 0 0 .095-.036.12.12 0 0 0 .036-.092.12.12 0 0 0-.036-.09.13.13 0 0 0-.095-.035.13.13 0 0 0-.094.036.12.12 0 0 0-.037.09m.71.165a.2.2 0 0 1-.083-.068.17.17 0 0 1-.027-.097q0-.087.062-.143a.23.23 0 0 1 .16-.056q.094 0 .16.057a.18.18 0 0 1 .062.137.2.2 0 0 1-.027.102.2.2 0 0 1-.083.068.2.2 0 0 1 .087.068.2.2 0 0 1 .03.105.2.2 0 0 1-.064.15.24.24 0 0 1-.165.06.23.23 0 0 1-.166-.06.2.2 0 0 1-.063-.152q0-.058.03-.102a.2.2 0 0 1 .086-.069m-.025.17a.13.13 0 0 0 .037.097.14.14 0 0 0 .1.037.14.14 0 0 0 .1-.036.13.13 0 0 0 .037-.096.13.13 0 0 0-.039-.095.14.14 0 0 0-.098-.036.14.14 0 0 0-.1.036.12.12 0 0 0-.037.093m.006-.335a.12.12 0 0 0 .037.091.13.13 0 0 0 .094.036.13.13 0 0 0 .094-.036.12.12 0 0 0 .037-.092.12.12 0 0 0-.037-.09.13.13 0 0 0-.094-.035.13.13 0 0 0-.095.036.12.12 0 0 0-.036.09m.71.165a.2.2 0 0 1-.08-.069.17.17 0 0 1-.028-.097q0-.087.062-.143a.23.23 0 0 1 .16-.056q.095 0 .16.057a.18.18 0 0 1 .062.137.2.2 0 0 1-.027.102.2.2 0 0 1-.084.068.2.2 0 0 1 .088.068.2.2 0 0 1 .03.105.2.2 0 0 1-.064.15.24.24 0 0 1-.165.06.23.23 0 0 1-.166-.06.2.2 0 0 1-.063-.152q0-.058.03-.102a.2.2 0 0 1 .086-.069m-.025.17a.13.13 0 0 0 .037.097.14.14 0 0 0 .1.037.14.14 0 0 0 .1-.036.13.13 0 0 0 .036-.096.13.13 0 0 0-.038-.095.14.14 0 0 0-.099-.036.14.14 0 0 0-.098.036.12.12 0 0 0-.038.093m.006-.335a.12.12 0 0 0 .036.091.13.13 0 0 0 .094.036.13.13 0 0 0 .095-.036.12.12 0 0 0 .037-.092.12.12 0 0 0-.037-.09.13.13 0 0 0-.095-.035.13.13 0 0 0-.094.036.12.12 0 0 0-.036.09m.58.528h-.026q-.02 0-.03-.01t-.01-.03q0-.022.011-.03.012-.009.056-.009h.036v-.505h-.036q-.043 0-.055-.009t-.013-.032q0-.02.01-.03t.032-.01h.49q.02 0 .03.012.01.01.01.033v.133q0 .03-.01.04-.007.011-.03.011t-.032-.012-.009-.056v-.08h-.299v.19h.148v-.03q0-.03.008-.043t.028-.012.028.013a.1.1 0 0 1 .007.054v.105q0 .042-.008.054-.007.012-.028.012-.02 0-.028-.014a.1.1 0 0 1-.007-.052v-.02h-.148v.25h.3v-.092q0-.043.008-.056.01-.012.032-.012t.03.012.01.043v.142q0 .02-.01.03-.01.012-.03.011zm.861-.137q.006-.018.012-.024.007-.005.023-.005h.117q.007 0 .012.004a.01.01 0 0 1 .004.008l-.004.015-.145.302a.03.03 0 0 1-.01.013.02.02 0 0 1-.013.004h-.011l-.038-.015-.012-.009-.004-.01v-.006l.002-.009zm-.043-.266q0-.043.03-.072a.1.1 0 0 1 .08-.028.12.12 0 0 1 .081.028.1.1 0 0 1 .031.072.1.1 0 0 1-.03.073.12.12 0 0 1-.082.027.1.1 0 0 1-.08-.027.1.1 0 0 1-.03-.073M3.74 4.57h.18q.023 0 .034.01.01.008.01.03t-.01.031-.036.008H3.48q-.022 0-.033-.01-.01-.01-.01-.03t.01-.03q.011-.01.036-.009h.172v-.36h-.11q-.024 0-.036-.01a.04.04 0 0 1-.012-.03q0-.02.011-.03.012-.01.034-.01h.166q.015 0 .023.007a.02.02 0 0 1 .01.016zm-.103-.602q0-.06.01-.076.012-.016.048-.016.034 0 .046.013.01.014.01.063 0 .048-.01.06t-.046.012-.047-.01q-.01-.012-.011-.046m.502.681H4.11q-.02 0-.03-.01-.01-.009-.01-.03 0-.022.01-.03.014-.009.057-.009h.036v-.506h-.036q-.042 0-.055-.009t-.013-.032q0-.02.01-.03t.033-.01h.49q.018 0 .028.011.01.013.01.034v.133q0 .03-.008.04t-.03.011q-.024 0-.033-.012-.008-.012-.008-.056v-.08h-.3v.19h.148v-.03q0-.03.008-.043t.029-.012.027.013a.1.1 0 0 1 .007.054v.105q0 .042-.008.054-.007.01-.028.011-.02 0-.028-.013a.1.1 0 0 1-.007-.052v-.02h-.147v.25h.299v-.092q0-.043.008-.055.01-.013.032-.013t.03.012.009.043v.142q0 .02-.01.031t-.03.01zm2.893-.403q0-.043.03-.072a.1.1 0 0 1 .08-.028q.05 0 .08.028.03.027.03.072 0 .046-.03.073a.12.12 0 0 1-.08.028.1.1 0 0 1-.08-.028.1.1 0 0 1-.03-.073m0 .311q0-.044.03-.072a.1.1 0 0 1 .08-.028q.05 0 .08.028.03.027.03.072t-.03.073a.12.12 0 0 1-.08.027.1.1 0 0 1-.08-.027.1.1 0 0 1-.03-.073m.688-.27a.2.2 0 0 1-.082-.069.17.17 0 0 1-.027-.097q0-.087.062-.143a.23.23 0 0 1 .16-.056q.095 0 .16.057a.18.18 0 0 1 .062.137.2.2 0 0 1-.027.102.2.2 0 0 1-.083.068.2.2 0 0 1 .087.068.2.2 0 0 1 .03.105.2.2 0 0 1-.064.15.24.24 0 0 1-.165.06.23.23 0 0 1-.166-.06.2.2 0 0 1-.063-.153q0-.057.03-.102a.2.2 0 0 1 .086-.068m-.024.17a.13.13 0 0 0 .037.097.14.14 0 0 0 .1.037.14.14 0 0 0 .1-.036.13.13 0 0 0 .037-.096.13.13 0 0 0-.04-.094.14.14 0 0 0-.097-.037.14.14 0 0 0-.1.036.12.12 0 0 0-.037.093m.006-.335a.12.12 0 0 0 .036.092.13.13 0 0 0 .094.035.13.13 0 0 0 .095-.036.12.12 0 0 0 .037-.092.12.12 0 0 0-.037-.09.13.13 0 0 0-.095-.034.13.13 0 0 0-.094.035.12.12 0 0 0-.036.09m.71.165a.2.2 0 0 1-.083-.068.17.17 0 0 1-.028-.097q0-.087.063-.143a.23.23 0 0 1 .16-.056q.095 0 .158.057a.18.18 0 0 1 .064.137.2.2 0 0 1-.027.102.2.2 0 0 1-.084.068.2.2 0 0 1 .087.068.2.2 0 0 1 .03.105.2.2 0 0 1-.063.15.24.24 0 0 1-.166.06.23.23 0 0 1-.165-.06.2.2 0 0 1-.064-.153q0-.057.03-.1a.2.2 0 0 1 .087-.07m-.024.17a.13.13 0 0 0 .037.097.14.14 0 0 0 .1.037.14.14 0 0 0 .1-.036.13.13 0 0 0 .036-.096.13.13 0 0 0-.038-.094.14.14 0 0 0-.1-.037.14.14 0 0 0-.097.036.12.12 0 0 0-.038.093m.005-.335a.12.12 0 0 0 .037.092.13.13 0 0 0 .094.035.13.13 0 0 0 .095-.036.12.12 0 0 0 .036-.092.12.12 0 0 0-.036-.09.13.13 0 0 0-.095-.034.13.13 0 0 0-.094.035.12.12 0 0 0-.037.09m.71.165a.2.2 0 0 1-.082-.068.17.17 0 0 1-.028-.097q0-.087.062-.143a.23.23 0 0 1 .16-.056q.097 0 .16.057a.18.18 0 0 1 .064.137.2.2 0 0 1-.027.102.2.2 0 0 1-.084.068.2.2 0 0 1 .087.068.2.2 0 0 1 .03.105.2.2 0 0 1-.063.15.24.24 0 0 1-.167.06.23.23 0 0 1-.165-.06.2.2 0 0 1-.064-.153q0-.057.03-.1a.2.2 0 0 1 .087-.07m-.025.17a.13.13 0 0 0 .038.097.14.14 0 0 0 .1.037.14.14 0 0 0 .1-.036.13.13 0 0 0 .037-.096.13.13 0 0 0-.038-.094.14.14 0 0 0-.1-.037.14.14 0 0 0-.098.036.12.12 0 0 0-.04.093m.007-.335a.12.12 0 0 0 .037.092.13.13 0 0 0 .094.035.13.13 0 0 0 .095-.036.12.12 0 0 0 .037-.092.12.12 0 0 0-.037-.09.13.13 0 0 0-.095-.034.13.13 0 0 0-.095.035.12.12 0 0 0-.036.09m.71.165a.2.2 0 0 1-.082-.068.17.17 0 0 1-.027-.097q0-.087.062-.143a.23.23 0 0 1 .16-.056q.095 0 .159.057a.18.18 0 0 1 .063.137.2.2 0 0 1-.027.102.2.2 0 0 1-.084.068.2.2 0 0 1 .088.068.2.2 0 0 1 .03.105.2.2 0 0 1-.064.15.24.24 0 0 1-.165.06.23.23 0 0 1-.166-.06.2.2 0 0 1-.063-.153q0-.057.03-.102a.2.2 0 0 1 .086-.068m-.025.17a.13.13 0 0 0 .037.097.14.14 0 0 0 .1.037.14.14 0 0 0 .1-.036.13.13 0 0 0 .036-.096.13.13 0 0 0-.038-.094.14.14 0 0 0-.1-.037.14.14 0 0 0-.097.036.12.12 0 0 0-.038.093m.006-.335a.12.12 0 0 0 .036.092.13.13 0 0 0 .094.035.13.13 0 0 0 .095-.036.12.12 0 0 0 .037-.092.12.12 0 0 0-.037-.09.13.13 0 0 0-.095-.034.13.13 0 0 0-.094.035.12.12 0 0 0-.036.09m.58.528h-.026q-.02 0-.03-.01-.01-.009-.01-.03 0-.022.01-.03.013-.009.057-.009h.036v-.506h-.036q-.043 0-.055-.009t-.013-.032q0-.02.01-.03t.032-.01h.49q.019 0 .029.011.01.013.01.034v.133q0 .03-.01.04-.008.011-.03.011t-.031-.012q-.008-.012-.008-.056v-.08h-.3v.19h.148v-.03q0-.03.008-.043t.028-.012.028.013a.1.1 0 0 1 .007.054v.105q0 .042-.008.054-.007.01-.028.011-.02 0-.028-.013a.1.1 0 0 1-.007-.052v-.02h-.148v.25h.3v-.092q0-.043.008-.055.01-.013.032-.013t.03.012.009.043v.142q0 .02-.01.031t-.03.01zm1.085-.487q.028 0 .04.01.012.008.013.03 0 .02-.012.03a.06.06 0 0 1-.035.01h-.228v.186q0 .093.024.122.024.03.082.03.05 0 .122-.03a.4.4 0 0 1 .089-.03q.015 0 .026.011a.04.04 0 0 1 .01.027.04.04 0 0 1-.012.032.14.14 0 0 1-.047.027 1 1 0 0 1-.1.032.4.4 0 0 1-.082.01.3.3 0 0 1-.11-.02.14.14 0 0 1-.067-.064.2.2 0 0 1-.016-.046l-.005-.084V4.24h-.096q-.024 0-.034-.009t-.01-.03q0-.023.014-.032a.2.2 0 0 1 .062-.008h.064v-.144q0-.026.01-.036.01-.012.032-.012.025 0 .035.014t.01.065v.114zm.427.395q0-.044.03-.072a.1.1 0 0 1 .08-.028q.05 0 .08.028.03.027.03.072t-.03.073a.12.12 0 0 1-.08.027.1.1 0 0 1-.08-.027.1.1 0 0 1-.03-.073m4.145 0q0-.044.03-.072a.1.1 0 0 1 .08-.028q.05 0 .08.028.03.027.03.072t-.03.073a.12.12 0 0 1-.08.027.1.1 0 0 1-.08-.027.1.1 0 0 1-.03-.073m.98-.005v-.133h-.14q-.016 0-.023-.009-.01-.009-.01-.027 0-.022.01-.03.006-.008.027-.008h.243q.015 0 .02.01a.05.05 0 0 1 .008.028q0 .02-.01.028-.008.008-.032.008h-.007v.17q0 .015-.004.02l-.013.012a.3.3 0 0 1-.093.033.6.6 0 0 1-.125.013.32.32 0 0 1-.243-.096.35.35 0 0 1-.093-.25q0-.156.09-.256t.232-.1q.038 0 .077.008l.08.027A.04.04 0 0 1 17 3.977l.025-.006q.027 0 .035.016.01.015.01.072v.077q0 .027-.01.038t-.034.011q-.03 0-.042-.036l-.007-.016a.16.16 0 0 0-.15-.093.2.2 0 0 0-.16.073.3.3 0 0 0-.06.196q0 .128.067.203.066.075.176.075a.3.3 0 0 0 .066-.008zm.401-.266a.2.2 0 0 1-.083-.068.17.17 0 0 1-.027-.097q0-.087.062-.143a.23.23 0 0 1 .16-.056q.095 0 .16.057a.18.18 0 0 1 .062.137.2.2 0 0 1-.027.102.2.2 0 0 1-.083.068.2.2 0 0 1 .087.068.2.2 0 0 1 .03.105.2.2 0 0 1-.064.15.24.24 0 0 1-.165.06.23.23 0 0 1-.166-.06.2.2 0 0 1-.063-.153q0-.057.03-.1a.2.2 0 0 1 .086-.07m-.025.17a.13.13 0 0 0 .037.097.14.14 0 0 0 .1.037.14.14 0 0 0 .1-.036.13.13 0 0 0 .037-.096.13.13 0 0 0-.039-.094.14.14 0 0 0-.098-.037.14.14 0 0 0-.099.036.12.12 0 0 0-.038.093m.006-.335a.12.12 0 0 0 .036.092.13.13 0 0 0 .095.035.13.13 0 0 0 .094-.036.12.12 0 0 0 .037-.092.12.12 0 0 0-.037-.09.13.13 0 0 0-.094-.034.13.13 0 0 0-.095.035.12.12 0 0 0-.036.09m.71.165A.2.2 0 0 1 18 4.217a.17.17 0 0 1-.027-.097q0-.087.062-.143a.23.23 0 0 1 .16-.056q.094 0 .16.057a.18.18 0 0 1 .062.137.2.2 0 0 1-.027.102.2.2 0 0 1-.084.068.2.2 0 0 1 .087.068.2.2 0 0 1 .03.105.2.2 0 0 1-.063.15.24.24 0 0 1-.165.06.23.23 0 0 1-.166-.06.2.2 0 0 1-.063-.153q0-.057.03-.102a.2.2 0 0 1 .086-.068m-.025.17a.13.13 0 0 0 .037.097.14.14 0 0 0 .1.037.14.14 0 0 0 .1-.036.13.13 0 0 0 .036-.096.13.13 0 0 0-.038-.094.14.14 0 0 0-.099-.037.14.14 0 0 0-.098.036.12.12 0 0 0-.038.093m.005-.335a.12.12 0 0 0 .037.092.13.13 0 0 0 .094.035.13.13 0 0 0 .095-.036.12.12 0 0 0 .037-.092.12.12 0 0 0-.037-.09.13.13 0 0 0-.095-.034.13.13 0 0 0-.094.035.12.12 0 0 0-.037.09m.71.165a.2.2 0 0 1-.082-.068.17.17 0 0 1-.028-.097q0-.087.062-.143a.23.23 0 0 1 .16-.056q.096 0 .16.057a.18.18 0 0 1 .063.137.2.2 0 0 1-.027.102.2.2 0 0 1-.084.068.2.2 0 0 1 .087.068.2.2 0 0 1 .03.105.2.2 0 0 1-.063.15.24.24 0 0 1-.166.06.23.23 0 0 1-.165-.06.2.2 0 0 1-.064-.153q0-.057.03-.1a.2.2 0 0 1 .087-.07m-.025.17a.13.13 0 0 0 .038.097.14.14 0 0 0 .1.037.14.14 0 0 0 .1-.036.13.13 0 0 0 .036-.096.13.13 0 0 0-.038-.094.14.14 0 0 0-.1-.037.14.14 0 0 0-.097.036.12.12 0 0 0-.039.093m.006-.335a.12.12 0 0 0 .037.092.13.13 0 0 0 .094.035.13.13 0 0 0 .095-.036.12.12 0 0 0 .036-.092.12.12 0 0 0-.036-.09.13.13 0 0 0-.095-.034.13.13 0 0 0-.095.035.12.12 0 0 0-.036.09m.71.165a.2.2 0 0 1-.083-.068.17.17 0 0 1-.027-.097q0-.087.062-.143a.23.23 0 0 1 .16-.056q.095 0 .16.057a.18.18 0 0 1 .062.137.2.2 0 0 1-.027.102.2.2 0 0 1-.083.068.2.2 0 0 1 .087.068.2.2 0 0 1 .03.105.2.2 0 0 1-.064.15.24.24 0 0 1-.165.06.23.23 0 0 1-.166-.06.2.2 0 0 1-.063-.153q0-.057.03-.1a.2.2 0 0 1 .086-.07m-.025.17a.13.13 0 0 0 .038.097.14.14 0 0 0 .1.037.14.14 0 0 0 .1-.036.13.13 0 0 0 .036-.096.13.13 0 0 0-.038-.094.14.14 0 0 0-.1-.037.14.14 0 0 0-.098.036.12.12 0 0 0-.038.093m.006-.335a.12.12 0 0 0 .037.092.13.13 0 0 0 .094.035.13.13 0 0 0 .094-.036.12.12 0 0 0 .037-.092.12.12 0 0 0-.037-.09.13.13 0 0 0-.094-.034.13.13 0 0 0-.095.035.12.12 0 0 0-.036.09m.711.436q0-.044.03-.072a.1.1 0 0 1 .08-.028q.05 0 .08.028.03.027.032.072 0 .045-.03.073a.12.12 0 0 1-.08.027.1.1 0 0 1-.08-.027.1.1 0 0 1-.03-.073M3.617 5.893q.006-.018.012-.023.007-.005.023-.005h.116q.008 0 .012.003.005.003.005.009l-.004.014-.145.302a.03.03 0 0 1-.01.013.02.02 0 0 1-.013.004h-.007l-.005-.001-.037-.014-.013-.008-.005-.011V6.17l.002-.01zm-.043-.266q0-.043.03-.072a.1.1 0 0 1 .08-.028.12.12 0 0 1 .08.028q.03.029.032.072 0 .045-.03.073a.12.12 0 0 1-.082.028.1.1 0 0 1-.08-.028.1.1 0 0 1-.03-.073m.857.324h.18q.02 0 .032.01.01.01.01.029 0 .023-.01.032t-.035.008h-.436q-.022 0-.033-.01t-.012-.03.012-.03.036-.01h.17v-.36h-.11q-.022 0-.034-.01a.04.04 0 0 1-.012-.03q0-.02.01-.03.012-.01.035-.01h.163a.04.04 0 0 1 .024.008.02.02 0 0 1 .009.017zm-.105-.603q0-.06.01-.076.012-.015.048-.016.036 0 .046.013.012.014.012.063 0 .048-.01.06-.012.01-.048.01t-.047-.01-.01-.044m3.265.682h-.026q-.02 0-.03-.01t-.01-.03q0-.023.01-.03.013-.01.056-.01h.036v-.506h-.036q-.042 0-.055-.01-.013-.008-.012-.031 0-.02.01-.03t.032-.01h.49q.02 0 .028.012.01.01.01.033v.134q0 .03-.008.04t-.03.01q-.024 0-.032-.011-.01-.012-.01-.056v-.08h-.298v.19h.147v-.03q0-.03.008-.043t.03-.012q.02 0 .026.013a.1.1 0 0 1 .008.054v.105q0 .042-.008.054t-.028.012-.028-.014a.1.1 0 0 1-.008-.052V5.7h-.147v.249h.3v-.091q0-.044.008-.056.01-.012.03-.012.023 0 .03.012.01.01.01.043v.142q0 .02-.01.03t-.03.01zm.82-.363a.2.2 0 0 1-.083-.068.17.17 0 0 1-.028-.097q0-.088.063-.144a.23.23 0 0 1 .16-.056q.095 0 .158.057a.18.18 0 0 1 .064.138.2.2 0 0 1-.027.102.2.2 0 0 1-.084.068.2.2 0 0 1 .087.068.2.2 0 0 1 .03.105.2.2 0 0 1-.063.15.24.24 0 0 1-.166.06.23.23 0 0 1-.165-.06.2.2 0 0 1-.064-.152q0-.058.03-.102a.2.2 0 0 1 .087-.07m-.024.17a.13.13 0 0 0 .037.098.14.14 0 0 0 .1.037.14.14 0 0 0 .1-.036.13.13 0 0 0 .036-.096.13.13 0 0 0-.038-.094.14.14 0 0 0-.1-.037.14.14 0 0 0-.097.036.12.12 0 0 0-.038.093m.005-.335a.12.12 0 0 0 .037.092.13.13 0 0 0 .094.035.13.13 0 0 0 .095-.036.12.12 0 0 0 .036-.092.12.12 0 0 0-.036-.09.13.13 0 0 0-.095-.035.13.13 0 0 0-.094.035.12.12 0 0 0-.037.09m.71.166a.2.2 0 0 1-.083-.068.17.17 0 0 1-.027-.097q0-.088.062-.144a.23.23 0 0 1 .16-.056q.097 0 .16.057a.18.18 0 0 1 .064.138.2.2 0 0 1-.027.102.2.2 0 0 1-.084.068.2.2 0 0 1 .087.068.2.2 0 0 1 .03.105.2.2 0 0 1-.064.15.24.24 0 0 1-.166.06.23.23 0 0 1-.165-.06.2.2 0 0 1-.064-.152q0-.058.03-.102a.2.2 0 0 1 .086-.07m-.025.17a.13.13 0 0 0 .038.098.14.14 0 0 0 .1.037.14.14 0 0 0 .1-.036.13.13 0 0 0 .037-.096.13.13 0 0 0-.038-.094.14.14 0 0 0-.1-.037.14.14 0 0 0-.1.036.12.12 0 0 0-.037.093m.006-.335a.12.12 0 0 0 .037.092.13.13 0 0 0 .094.035.13.13 0 0 0 .095-.036.12.12 0 0 0 .037-.092.12.12 0 0 0-.037-.09.13.13 0 0 0-.095-.035.13.13 0 0 0-.095.035.12.12 0 0 0-.036.09m.71.166a.2.2 0 0 1-.082-.068.17.17 0 0 1-.027-.097q0-.088.062-.144a.23.23 0 0 1 .16-.056q.095 0 .159.057a.18.18 0 0 1 .063.138.2.2 0 0 1-.027.102.2.2 0 0 1-.084.068.2.2 0 0 1 .087.068.2.2 0 0 1 .03.105.2.2 0 0 1-.063.15.24.24 0 0 1-.165.06.23.23 0 0 1-.166-.06.2.2 0 0 1-.063-.152q0-.058.03-.102a.2.2 0 0 1 .086-.07m-.025.17a.13.13 0 0 0 .037.098.14.14 0 0 0 .1.037.14.14 0 0 0 .099-.036.13.13 0 0 0 .037-.096.13.13 0 0 0-.038-.094.14.14 0 0 0-.1-.037.14.14 0 0 0-.097.036.12.12 0 0 0-.038.093m.005-.335a.12.12 0 0 0 .037.092.13.13 0 0 0 .094.035.13.13 0 0 0 .095-.036.12.12 0 0 0 .037-.092.12.12 0 0 0-.037-.09.13.13 0 0 0-.095-.035.13.13 0 0 0-.094.035.12.12 0 0 0-.037.09m.756.373q.005-.02.012-.025t.024-.005h.123q.009 0 .014.003t.005.009l-.005.016-.154.32-.01.015a.02.02 0 0 1-.015.005l-.004-.001-.006-.002-.04-.015-.013-.01-.005-.011v-.008l.002-.006zm6.216 0q.005-.02.012-.025t.024-.005h.123q.01 0 .014.003.005.003.005.009l-.005.016-.154.32-.01.015a.02.02 0 0 1-.015.005l-.004-.001-.006-.002-.04-.015-.013-.01-.005-.011v-.008l.002-.006zm.644-.207a.2.2 0 0 1-.082-.068.17.17 0 0 1-.027-.097q0-.088.062-.144a.23.23 0 0 1 .16-.056q.095 0 .16.057a.18.18 0 0 1 .062.138.2.2 0 0 1-.027.102.2.2 0 0 1-.083.068.2.2 0 0 1 .087.068.2.2 0 0 1 .03.105.2.2 0 0 1-.064.15.24.24 0 0 1-.165.06.23.23 0 0 1-.166-.06.2.2 0 0 1-.063-.152q0-.058.03-.102a.2.2 0 0 1 .086-.07m-.024.17a.13.13 0 0 0 .037.098.14.14 0 0 0 .1.037.14.14 0 0 0 .1-.036.13.13 0 0 0 .037-.096.13.13 0 0 0-.039-.094.14.14 0 0 0-.098-.037.14.14 0 0 0-.099.036.12.12 0 0 0-.038.093m.006-.335a.12.12 0 0 0 .036.092.13.13 0 0 0 .094.035.13.13 0 0 0 .095-.036.12.12 0 0 0 .037-.092.12.12 0 0 0-.037-.09.13.13 0 0 0-.095-.035.13.13 0 0 0-.094.035.12.12 0 0 0-.036.09m.71.166a.2.2 0 0 1-.083-.068.17.17 0 0 1-.028-.097q0-.088.063-.144a.23.23 0 0 1 .16-.056q.094 0 .16.057a.18.18 0 0 1 .062.137.2.2 0 0 1-.027.103.2.2 0 0 1-.084.068.2.2 0 0 1 .087.068.2.2 0 0 1 .03.105.2.2 0 0 1-.063.15.24.24 0 0 1-.166.06.23.23 0 0 1-.165-.06.2.2 0 0 1-.063-.152q0-.058.03-.102a.2.2 0 0 1 .086-.07m-.024.17a.13.13 0 0 0 .037.098.14.14 0 0 0 .1.037.14.14 0 0 0 .1-.036.13.13 0 0 0 .036-.096.13.13 0 0 0-.038-.094.14.14 0 0 0-.099-.037.14.14 0 0 0-.098.036.12.12 0 0 0-.038.093m.005-.336a.12.12 0 0 0 .037.093.13.13 0 0 0 .094.035.13.13 0 0 0 .095-.036.12.12 0 0 0 .037-.093.12.12 0 0 0-.037-.09.13.13 0 0 0-.095-.034.13.13 0 0 0-.094.035.12.12 0 0 0-.037.09m.71.166a.2.2 0 0 1-.082-.068.17.17 0 0 1-.028-.097q0-.088.062-.144a.23.23 0 0 1 .16-.056q.096 0 .16.057a.18.18 0 0 1 .063.138.2.2 0 0 1-.027.102.2.2 0 0 1-.084.068.2.2 0 0 1 .087.068.2.2 0 0 1 .03.105.2.2 0 0 1-.063.15.24.24 0 0 1-.166.06.23.23 0 0 1-.165-.06.2.2 0 0 1-.064-.152q0-.058.03-.102a.2.2 0 0 1 .087-.07m-.025.17a.13.13 0 0 0 .038.098.14.14 0 0 0 .1.037.14.14 0 0 0 .1-.036.13.13 0 0 0 .036-.096.13.13 0 0 0-.038-.094.14.14 0 0 0-.1-.037.14.14 0 0 0-.097.036.12.12 0 0 0-.039.093m.006-.335a.12.12 0 0 0 .037.092.13.13 0 0 0 .094.035.13.13 0 0 0 .094-.036.12.12 0 0 0 .037-.092.12.12 0 0 0-.037-.09.13.13 0 0 0-.094-.035.13.13 0 0 0-.095.035.12.12 0 0 0-.036.09m.71.166a.2.2 0 0 1-.083-.068.17.17 0 0 1-.027-.097q0-.088.062-.144a.23.23 0 0 1 .16-.056q.095 0 .16.057a.18.18 0 0 1 .062.138.2.2 0 0 1-.027.102.2.2 0 0 1-.084.068.2.2 0 0 1 .088.068.2.2 0 0 1 .03.105.2.2 0 0 1-.064.15.24.24 0 0 1-.165.06.23.23 0 0 1-.166-.06.2.2 0 0 1-.063-.152q0-.058.03-.102a.2.2 0 0 1 .086-.07m-.025.17a.13.13 0 0 0 .038.098.14.14 0 0 0 .1.037.14.14 0 0 0 .1-.036.13.13 0 0 0 .036-.096.13.13 0 0 0-.038-.094.14.14 0 0 0-.1-.037.14.14 0 0 0-.098.036.12.12 0 0 0-.038.093m.006-.335a.12.12 0 0 0 .037.092.13.13 0 0 0 .094.035.13.13 0 0 0 .094-.036.12.12 0 0 0 .037-.092.12.12 0 0 0-.037-.09.13.13 0 0 0-.094-.035.13.13 0 0 0-.095.035.12.12 0 0 0-.036.09m.755.373q.005-.02.012-.025t.025-.005h.123q.008 0 .013.003.006.003.005.009l-.004.016-.155.32-.01.015a.02.02 0 0 1-.015.005l-.004-.001-.006-.002-.04-.015-.013-.01-.004-.011v-.014ZM7.696 7.41h-.114q-.02 0-.03-.01-.012-.01-.01-.03 0-.023.01-.031.013-.008.046-.01h.01v-.505H7.6q-.034 0-.047-.01-.013-.008-.012-.031 0-.02.01-.03t.032-.01h.238q.14 0 .223.09t.083.244q0 .075-.024.139a.3.3 0 0 1-.07.112.25.25 0 0 1-.102.064.5.5 0 0 1-.193.019zm0-.08.07.004q.14 0 .203-.062.065-.061.065-.195t-.065-.195q-.065-.06-.207-.061h-.04l-.026.003zm.713-.284a.2.2 0 0 1-.082-.068.17.17 0 0 1-.028-.096q0-.087.063-.143a.23.23 0 0 1 .16-.056q.095 0 .158.056a.18.18 0 0 1 .064.137.2.2 0 0 1-.027.102.2.2 0 0 1-.084.068.2.2 0 0 1 .087.068.2.2 0 0 1 .03.105.2.2 0 0 1-.063.15.24.24 0 0 1-.166.06.23.23 0 0 1-.165-.06.2.2 0 0 1-.064-.152q0-.057.03-.102a.2.2 0 0 1 .087-.07m-.024.17a.13.13 0 0 0 .037.098.14.14 0 0 0 .1.037.14.14 0 0 0 .1-.036.13.13 0 0 0 .036-.096.13.13 0 0 0-.038-.094.14.14 0 0 0-.1-.036.14.14 0 0 0-.097.035.12.12 0 0 0-.038.093m.005-.334a.12.12 0 0 0 .037.09.13.13 0 0 0 .094.036.13.13 0 0 0 .095-.036.12.12 0 0 0 .036-.092.12.12 0 0 0-.036-.09.13.13 0 0 0-.095-.034.13.13 0 0 0-.094.035.12.12 0 0 0-.037.09m.71.164a.2.2 0 0 1-.082-.068.17.17 0 0 1-.028-.096q0-.087.062-.143a.23.23 0 0 1 .16-.056q.097 0 .16.056a.18.18 0 0 1 .064.137.2.2 0 0 1-.027.102.2.2 0 0 1-.084.068.2.2 0 0 1 .087.068.2.2 0 0 1 .03.105.2.2 0 0 1-.063.15.24.24 0 0 1-.167.06.23.23 0 0 1-.165-.06.2.2 0 0 1-.064-.152q0-.057.03-.102a.2.2 0 0 1 .087-.07m-.025.17a.13.13 0 0 0 .038.098.14.14 0 0 0 .1.037.14.14 0 0 0 .1-.036.13.13 0 0 0 .037-.096.13.13 0 0 0-.038-.094.14.14 0 0 0-.1-.036.14.14 0 0 0-.098.035.12.12 0 0 0-.04.093m.007-.334a.12.12 0 0 0 .037.09.13.13 0 0 0 .094.036.13.13 0 0 0 .095-.036.12.12 0 0 0 .037-.092.12.12 0 0 0-.037-.09.13.13 0 0 0-.095-.034.13.13 0 0 0-.095.035.12.12 0 0 0-.036.09m.71.164a.2.2 0 0 1-.082-.068.17.17 0 0 1-.027-.096q0-.087.062-.143a.23.23 0 0 1 .16-.056q.095 0 .159.056a.18.18 0 0 1 .063.137.2.2 0 0 1-.027.102.2.2 0 0 1-.084.068.2.2 0 0 1 .088.068.2.2 0 0 1 .03.105.2.2 0 0 1-.064.15.24.24 0 0 1-.165.06.23.23 0 0 1-.166-.06.2.2 0 0 1-.063-.152q0-.057.03-.102a.2.2 0 0 1 .086-.07m-.025.17a.13.13 0 0 0 .037.098.14.14 0 0 0 .1.037.14.14 0 0 0 .1-.036.13.13 0 0 0 .036-.096.13.13 0 0 0-.038-.094.14.14 0 0 0-.1-.036.14.14 0 0 0-.097.035.12.12 0 0 0-.038.093m.006-.334a.12.12 0 0 0 .036.09.13.13 0 0 0 .094.036.13.13 0 0 0 .095-.036.12.12 0 0 0 .037-.092.12.12 0 0 0-.035-.087.13.13 0 0 0-.095-.035.13.13 0 0 0-.094.035.12.12 0 0 0-.036.09m.755.37q.005-.018.012-.024.007-.005.024-.005h.123q.008 0 .014.003.005.004.005.009l-.004.016-.155.32-.01.015a.02.02 0 0 1-.015.005h-.004l-.006-.003-.04-.015-.013-.01-.005-.01v-.01l.002-.004zm6.172-.245q0-.045.03-.072a.1.1 0 0 1 .08-.028q.05 0 .08.027t.03.073-.03.072a.12.12 0 0 1-.08.028.1.1 0 0 1-.08-.028.1.1 0 0 1-.03-.072m0 .31q0-.043.03-.072a.1.1 0 0 1 .08-.028q.05 0 .08.028.03.027.03.072t-.03.073a.12.12 0 0 1-.08.028.1.1 0 0 1-.08-.028.1.1 0 0 1-.03-.073m.688-.27a.2.2 0 0 1-.082-.07.17.17 0 0 1-.027-.095q0-.087.062-.143a.23.23 0 0 1 .16-.056q.094 0 .16.056a.18.18 0 0 1 .062.137.2.2 0 0 1-.027.102.2.2 0 0 1-.083.068.2.2 0 0 1 .087.068.2.2 0 0 1 .03.105.2.2 0 0 1-.064.15.24.24 0 0 1-.165.06.23.23 0 0 1-.166-.06.2.2 0 0 1-.063-.152q0-.057.03-.102a.2.2 0 0 1 .086-.07m-.024.17a.13.13 0 0 0 .037.097.14.14 0 0 0 .1.037.14.14 0 0 0 .1-.036.13.13 0 0 0 .037-.096.13.13 0 0 0-.039-.094.14.14 0 0 0-.098-.036.14.14 0 0 0-.1.035.12.12 0 0 0-.037.093m.006-.335a.12.12 0 0 0 .037.09.13.13 0 0 0 .094.036.13.13 0 0 0 .094-.036.12.12 0 0 0 .037-.092.12.12 0 0 0-.037-.09.13.13 0 0 0-.094-.034.13.13 0 0 0-.095.035.12.12 0 0 0-.036.09m.71.164A.2.2 0 0 1 18 6.976a.17.17 0 0 1-.027-.096q0-.087.062-.143a.23.23 0 0 1 .16-.056q.095 0 .16.056a.18.18 0 0 1 .062.137.2.2 0 0 1-.027.102.2.2 0 0 1-.084.068.2.2 0 0 1 .088.068.2.2 0 0 1 .03.105.2.2 0 0 1-.064.15.24.24 0 0 1-.165.06.23.23 0 0 1-.166-.06.2.2 0 0 1-.063-.152q0-.057.03-.102a.2.2 0 0 1 .086-.07m-.025.17q0 .06.037.098a.14.14 0 0 0 .1.037.14.14 0 0 0 .1-.036.13.13 0 0 0 .036-.096.13.13 0 0 0-.038-.094.14.14 0 0 0-.099-.036.14.14 0 0 0-.098.035.12.12 0 0 0-.038.093m.006-.334a.12.12 0 0 0 .036.09.13.13 0 0 0 .094.036.13.13 0 0 0 .095-.036.12.12 0 0 0 .037-.092.12.12 0 0 0-.037-.09.13.13 0 0 0-.095-.034.13.13 0 0 0-.094.035.12.12 0 0 0-.036.09m.71.164a.2.2 0 0 1-.083-.068.17.17 0 0 1-.028-.096q0-.087.062-.143a.23.23 0 0 1 .16-.056q.096 0 .16.056a.18.18 0 0 1 .063.137.2.2 0 0 1-.027.102.2.2 0 0 1-.084.068.2.2 0 0 1 .087.068.2.2 0 0 1 .03.105.2.2 0 0 1-.063.15.24.24 0 0 1-.166.06.23.23 0 0 1-.165-.06.2.2 0 0 1-.064-.152q0-.057.03-.102a.2.2 0 0 1 .087-.07m-.025.17q0 .06.038.098a.14.14 0 0 0 .1.037.14.14 0 0 0 .1-.036.13.13 0 0 0 .036-.096.13.13 0 0 0-.038-.094.14.14 0 0 0-.1-.036.14.14 0 0 0-.097.035.12.12 0 0 0-.039.093m.006-.334a.12.12 0 0 0 .037.09.13.13 0 0 0 .094.036.13.13 0 0 0 .095-.036.12.12 0 0 0 .036-.092.12.12 0 0 0-.036-.09.13.13 0 0 0-.095-.034.13.13 0 0 0-.095.035.12.12 0 0 0-.036.09m.71.164a.2.2 0 0 1-.083-.068.17.17 0 0 1-.027-.096q0-.087.062-.143a.23.23 0 0 1 .16-.056q.094 0 .16.056a.18.18 0 0 1 .062.137.2.2 0 0 1-.027.102.2.2 0 0 1-.083.068.2.2 0 0 1 .087.068.2.2 0 0 1 .03.105.2.2 0 0 1-.064.15.24.24 0 0 1-.165.06.23.23 0 0 1-.166-.06.2.2 0 0 1-.063-.152q0-.057.03-.102a.2.2 0 0 1 .086-.07m-.025.17a.13.13 0 0 0 .038.098.14.14 0 0 0 .1.037.14.14 0 0 0 .1-.036.13.13 0 0 0 .036-.096.13.13 0 0 0-.038-.094.14.14 0 0 0-.1-.036.14.14 0 0 0-.098.035.12.12 0 0 0-.038.093m.006-.334a.12.12 0 0 0 .037.09.13.13 0 0 0 .094.036.13.13 0 0 0 .094-.036.12.12 0 0 0 .037-.092.12.12 0 0 0-.037-.09.13.13 0 0 0-.094-.034.13.13 0 0 0-.095.035.12.12 0 0 0-.036.09m.711.125q0-.045.03-.072a.1.1 0 0 1 .08-.028q.05 0 .08.027t.031.073-.03.072a.12.12 0 0 1-.08.028.1.1 0 0 1-.08-.028.1.1 0 0 1-.03-.072m0 .31q0-.043.03-.072a.1.1 0 0 1 .08-.028q.05 0 .08.028.03.027.031.072 0 .046-.03.073a.12.12 0 0 1-.08.028.1.1 0 0 1-.08-.028.1.1 0 0 1-.03-.073M7.698 8.792h-.114q-.02 0-.03-.01-.012-.01-.01-.03 0-.022.01-.03.013-.008.044-.01h.01v-.505H7.6q-.034 0-.047-.01-.013-.008-.012-.031 0-.02.01-.03t.032-.01h.238q.14 0 .223.09t.083.244q0 .075-.024.14a.3.3 0 0 1-.07.11.25.25 0 0 1-.102.065.5.5 0 0 1-.193.02Zm0-.08.07.005q.14 0 .203-.062.065-.062.065-.195 0-.134-.065-.195-.065-.06-.207-.06h-.04l-.026.002zm.713-.283a.2.2 0 0 1-.082-.068.17.17 0 0 1-.028-.096q0-.087.063-.143a.23.23 0 0 1 .16-.056q.095 0 .158.056a.18.18 0 0 1 .064.137.2.2 0 0 1-.027.102.2.2 0 0 1-.084.068.2.2 0 0 1 .087.068.2.2 0 0 1 .03.105.2.2 0 0 1-.063.15.24.24 0 0 1-.166.06.23.23 0 0 1-.165-.06.2.2 0 0 1-.064-.153q0-.057.03-.102a.2.2 0 0 1 .087-.068m-.024.17a.13.13 0 0 0 .037.097.14.14 0 0 0 .1.037.14.14 0 0 0 .1-.036.13.13 0 0 0 .036-.096.13.13 0 0 0-.038-.094.14.14 0 0 0-.1-.036.14.14 0 0 0-.097.035.12.12 0 0 0-.038.093m.005-.334a.12.12 0 0 0 .037.09.13.13 0 0 0 .094.036.13.13 0 0 0 .095-.036.12.12 0 0 0 .036-.092.12.12 0 0 0-.036-.09.13.13 0 0 0-.095-.034.13.13 0 0 0-.094.035.12.12 0 0 0-.037.09m.71.164a.2.2 0 0 1-.082-.068.17.17 0 0 1-.028-.096q0-.087.062-.143a.23.23 0 0 1 .16-.056q.097 0 .16.056a.18.18 0 0 1 .064.137.2.2 0 0 1-.027.102.2.2 0 0 1-.084.068.2.2 0 0 1 .087.068.2.2 0 0 1 .03.105.2.2 0 0 1-.063.15.24.24 0 0 1-.167.06.23.23 0 0 1-.165-.06.2.2 0 0 1-.064-.152q0-.057.03-.102a.2.2 0 0 1 .087-.07m-.025.17a.13.13 0 0 0 .038.098.14.14 0 0 0 .1.037.14.14 0 0 0 .1-.036.13.13 0 0 0 .037-.096.13.13 0 0 0-.038-.094.14.14 0 0 0-.1-.036.14.14 0 0 0-.098.035.12.12 0 0 0-.04.093m.007-.334a.12.12 0 0 0 .037.09.13.13 0 0 0 .094.036.13.13 0 0 0 .095-.036.12.12 0 0 0 .037-.092.12.12 0 0 0-.037-.09.13.13 0 0 0-.095-.034.13.13 0 0 0-.095.035.12.12 0 0 0-.036.09m.71.164a.2.2 0 0 1-.082-.068.17.17 0 0 1-.027-.096q0-.087.062-.143a.23.23 0 0 1 .16-.056q.095 0 .159.056a.18.18 0 0 1 .063.137.2.2 0 0 1-.027.102.2.2 0 0 1-.084.068.2.2 0 0 1 .088.068.2.2 0 0 1 .03.105.2.2 0 0 1-.064.15.24.24 0 0 1-.165.06.23.23 0 0 1-.166-.06.2.2 0 0 1-.063-.152q0-.057.03-.102a.2.2 0 0 1 .086-.07m-.025.17a.13.13 0 0 0 .037.098.14.14 0 0 0 .1.037.14.14 0 0 0 .1-.036.13.13 0 0 0 .036-.096.13.13 0 0 0-.038-.094.14.14 0 0 0-.1-.036.14.14 0 0 0-.097.035.12.12 0 0 0-.038.093m.006-.334a.12.12 0 0 0 .036.09.13.13 0 0 0 .094.036.13.13 0 0 0 .095-.036.12.12 0 0 0 .037-.092.12.12 0 0 0-.037-.09.13.13 0 0 0-.095-.034.13.13 0 0 0-.094.035.12.12 0 0 0-.036.09m.755.37q.005-.018.012-.024.007-.005.024-.005h.123q.008 0 .014.003.005.004.005.009l-.004.016-.155.32-.01.015a.02.02 0 0 1-.015.005h-.004l-.006-.003-.04-.015-.013-.01-.005-.01v-.01l.002-.005zm6.172-.245q0-.045.03-.072a.1.1 0 0 1 .08-.028q.05 0 .08.027t.03.073-.03.072a.12.12 0 0 1-.08.028.1.1 0 0 1-.08-.028.1.1 0 0 1-.03-.072m0 .31q0-.044.03-.072a.1.1 0 0 1 .08-.028q.05 0 .08.028.03.027.03.072 0 .046-.03.073a.12.12 0 0 1-.08.027.1.1 0 0 1-.08-.027.1.1 0 0 1-.03-.073m.688-.27a.2.2 0 0 1-.082-.07.17.17 0 0 1-.027-.095q0-.087.062-.143a.23.23 0 0 1 .16-.056q.095 0 .16.056a.18.18 0 0 1 .062.137.2.2 0 0 1-.027.102.2.2 0 0 1-.083.068.2.2 0 0 1 .087.068.2.2 0 0 1 .03.105.2.2 0 0 1-.064.15.24.24 0 0 1-.165.06.23.23 0 0 1-.166-.06.2.2 0 0 1-.063-.152q0-.057.03-.102a.2.2 0 0 1 .086-.07m-.024.17a.13.13 0 0 0 .037.097.14.14 0 0 0 .1.037.14.14 0 0 0 .1-.036.13.13 0 0 0 .037-.096.13.13 0 0 0-.039-.094.14.14 0 0 0-.098-.036.14.14 0 0 0-.1.035.12.12 0 0 0-.037.093m.006-.335a.12.12 0 0 0 .037.09.13.13 0 0 0 .094.036.13.13 0 0 0 .094-.036.12.12 0 0 0 .037-.092.12.12 0 0 0-.037-.09.13.13 0 0 0-.094-.034.13.13 0 0 0-.095.035.12.12 0 0 0-.036.09m.71.164A.2.2 0 0 1 18 8.355a.17.17 0 0 1-.027-.096q0-.087.062-.143a.23.23 0 0 1 .16-.056q.095 0 .16.056a.18.18 0 0 1 .062.137.2.2 0 0 1-.027.102.2.2 0 0 1-.084.068.2.2 0 0 1 .088.068.2.2 0 0 1 .03.105.2.2 0 0 1-.064.15.24.24 0 0 1-.165.06.23.23 0 0 1-.166-.06.2.2 0 0 1-.063-.152q0-.057.03-.102a.2.2 0 0 1 .086-.07m-.025.17q0 .06.037.098a.14.14 0 0 0 .1.037.14.14 0 0 0 .1-.036.13.13 0 0 0 .036-.096.13.13 0 0 0-.038-.094.14.14 0 0 0-.099-.036.14.14 0 0 0-.098.035.12.12 0 0 0-.038.093m.005-.334a.12.12 0 0 0 .037.09.13.13 0 0 0 .094.036.13.13 0 0 0 .095-.036.12.12 0 0 0 .037-.092.12.12 0 0 0-.037-.09.13.13 0 0 0-.095-.034.13.13 0 0 0-.094.035.12.12 0 0 0-.037.09m.71.164a.2.2 0 0 1-.082-.068.17.17 0 0 1-.028-.096q0-.087.062-.143a.23.23 0 0 1 .16-.056q.096 0 .16.056a.18.18 0 0 1 .063.137.2.2 0 0 1-.027.102.2.2 0 0 1-.084.068.2.2 0 0 1 .087.068.2.2 0 0 1 .03.105.2.2 0 0 1-.063.15.24.24 0 0 1-.166.06.23.23 0 0 1-.165-.06.2.2 0 0 1-.064-.152q0-.057.03-.102a.2.2 0 0 1 .087-.07m-.025.17q0 .06.038.098a.14.14 0 0 0 .1.037.14.14 0 0 0 .1-.036.13.13 0 0 0 .036-.096.13.13 0 0 0-.038-.094.14.14 0 0 0-.1-.036.14.14 0 0 0-.097.035.12.12 0 0 0-.039.093m.006-.334a.12.12 0 0 0 .037.09.13.13 0 0 0 .094.036.13.13 0 0 0 .095-.036.12.12 0 0 0 .036-.092.12.12 0 0 0-.036-.09.13.13 0 0 0-.095-.034.13.13 0 0 0-.095.035.12.12 0 0 0-.036.09m.71.164a.2.2 0 0 1-.083-.068.17.17 0 0 1-.027-.096q0-.087.062-.143a.23.23 0 0 1 .16-.056q.095 0 .16.056a.18.18 0 0 1 .062.137.2.2 0 0 1-.027.102.2.2 0 0 1-.083.068.2.2 0 0 1 .087.068.2.2 0 0 1 .03.105.2.2 0 0 1-.064.15.24.24 0 0 1-.165.06.23.23 0 0 1-.166-.06.2.2 0 0 1-.063-.152q0-.057.03-.102a.2.2 0 0 1 .086-.07m-.025.17a.13.13 0 0 0 .038.098.14.14 0 0 0 .1.037.14.14 0 0 0 .1-.036.13.13 0 0 0 .036-.096.13.13 0 0 0-.038-.094.14.14 0 0 0-.1-.036.14.14 0 0 0-.098.035.12.12 0 0 0-.038.093m.006-.334a.12.12 0 0 0 .037.09.13.13 0 0 0 .094.036.13.13 0 0 0 .094-.036.12.12 0 0 0 .037-.092.12.12 0 0 0-.037-.09.13.13 0 0 0-.094-.034.13.13 0 0 0-.095.035.12.12 0 0 0-.036.09m.711.125q0-.045.03-.072a.1.1 0 0 1 .08-.028q.05 0 .08.027t.031.073-.03.072a.12.12 0 0 1-.08.028.1.1 0 0 1-.08-.028.1.1 0 0 1-.03-.072m0 .31q0-.044.03-.072a.1.1 0 0 1 .08-.028q.05 0 .08.028.03.027.032.072 0 .046-.03.073a.12.12 0 0 1-.08.027.1.1 0 0 1-.08-.027.1.1 0 0 1-.03-.073m-12.46 1.483h-.113q-.02 0-.03-.01-.012-.01-.01-.03 0-.022.01-.03.013-.01.046-.01h.01v-.506H7.6q-.034 0-.047-.01-.013-.008-.013-.03 0-.02.01-.031.012-.01.033-.01h.238q.14 0 .223.09t.083.244q0 .075-.024.14a.3.3 0 0 1-.07.11.25.25 0 0 1-.102.065.5.5 0 0 1-.193.02zm0-.08.07.004q.14 0 .204-.062t.064-.195-.064-.195q-.064-.06-.207-.06h-.04l-.026.002zm.714-.284a.2.2 0 0 1-.082-.068.17.17 0 0 1-.028-.096q0-.087.063-.143a.23.23 0 0 1 .16-.056q.095 0 .158.056a.18.18 0 0 1 .064.137.2.2 0 0 1-.027.102.2.2 0 0 1-.084.07.2.2 0 0 1 .087.066.2.2 0 0 1 .03.105.2.2 0 0 1-.063.15.24.24 0 0 1-.166.06.23.23 0 0 1-.165-.06.2.2 0 0 1-.064-.152q0-.057.03-.102a.2.2 0 0 1 .087-.07m-.024.17a.13.13 0 0 0 .037.098.14.14 0 0 0 .1.037.14.14 0 0 0 .1-.036.13.13 0 0 0 .036-.095.13.13 0 0 0-.038-.095.14.14 0 0 0-.1-.036.14.14 0 0 0-.097.035.12.12 0 0 0-.038.093m.005-.334a.12.12 0 0 0 .037.09.13.13 0 0 0 .094.036.13.13 0 0 0 .095-.035.12.12 0 0 0 .036-.093.12.12 0 0 0-.036-.09.13.13 0 0 0-.095-.034.13.13 0 0 0-.094.035.12.12 0 0 0-.037.09m.71.164a.2.2 0 0 1-.083-.068.17.17 0 0 1-.027-.096q0-.087.062-.143a.23.23 0 0 1 .16-.056q.097 0 .16.056a.18.18 0 0 1 .064.137.2.2 0 0 1-.027.102.2.2 0 0 1-.084.07.2.2 0 0 1 .087.066.2.2 0 0 1 .03.105.2.2 0 0 1-.064.15.24.24 0 0 1-.166.06.23.23 0 0 1-.165-.06.2.2 0 0 1-.064-.152q0-.057.03-.102a.2.2 0 0 1 .087-.07m-.025.17a.13.13 0 0 0 .038.098.14.14 0 0 0 .1.037.14.14 0 0 0 .1-.036.13.13 0 0 0 .037-.095.13.13 0 0 0-.038-.095.14.14 0 0 0-.1-.036.14.14 0 0 0-.1.035.12.12 0 0 0-.037.093m.006-.334a.12.12 0 0 0 .037.09.13.13 0 0 0 .094.036.13.13 0 0 0 .095-.035.12.12 0 0 0 .037-.093.12.12 0 0 0-.037-.09.13.13 0 0 0-.095-.034.13.13 0 0 0-.095.035.12.12 0 0 0-.036.09m.71.164a.2.2 0 0 1-.082-.068.17.17 0 0 1-.027-.096q0-.087.062-.143a.23.23 0 0 1 .16-.056q.095 0 .159.056a.18.18 0 0 1 .063.137.2.2 0 0 1-.027.102.2.2 0 0 1-.084.07.2.2 0 0 1 .088.066.2.2 0 0 1 .03.105.2.2 0 0 1-.064.15.24.24 0 0 1-.165.06.23.23 0 0 1-.166-.06.2.2 0 0 1-.063-.152q0-.057.03-.102a.2.2 0 0 1 .086-.07m-.025.17a.13.13 0 0 0 .037.098.14.14 0 0 0 .1.037.14.14 0 0 0 .099-.036.13.13 0 0 0 .037-.095.13.13 0 0 0-.038-.095.14.14 0 0 0-.1-.036.14.14 0 0 0-.097.035.12.12 0 0 0-.038.093m.005-.334a.12.12 0 0 0 .037.09.13.13 0 0 0 .094.036.13.13 0 0 0 .095-.035.12.12 0 0 0 .037-.093.12.12 0 0 0-.037-.09.13.13 0 0 0-.095-.034.13.13 0 0 0-.094.035.12.12 0 0 0-.037.09m.756.37q.005-.018.012-.023t.024-.006h.123q.008 0 .014.003.005.004.005.01l-.005.015-.154.32-.01.015a.02.02 0 0 1-.015.005h-.004l-.006-.003-.04-.015-.013-.008a.02.02 0 0 1-.005-.012v-.01l.002-.004zm6.172-.245q0-.044.03-.072a.1.1 0 0 1 .08-.028q.05 0 .08.027.03.028.03.073t-.03.072a.12.12 0 0 1-.08.028.1.1 0 0 1-.08-.028.1.1 0 0 1-.03-.072m0 .31q0-.044.03-.07a.1.1 0 0 1 .08-.03q.05 0 .08.028.03.027.03.073t-.03.072a.12.12 0 0 1-.08.028.1.1 0 0 1-.08-.028.1.1 0 0 1-.03-.072m.688-.27a.2.2 0 0 1-.082-.07.17.17 0 0 1-.027-.095q0-.087.062-.143a.23.23 0 0 1 .16-.056q.095 0 .16.056a.18.18 0 0 1 .062.137.2.2 0 0 1-.027.102.2.2 0 0 1-.083.07.2.2 0 0 1 .087.066.2.2 0 0 1 .03.105.2.2 0 0 1-.064.15.24.24 0 0 1-.165.06.23.23 0 0 1-.166-.06.2.2 0 0 1-.063-.152q0-.057.03-.102a.2.2 0 0 1 .086-.07m-.024.17a.13.13 0 0 0 .037.097.14.14 0 0 0 .1.037.14.14 0 0 0 .1-.036.13.13 0 0 0 .037-.095.13.13 0 0 0-.039-.095.14.14 0 0 0-.098-.036.14.14 0 0 0-.1.035.12.12 0 0 0-.037.093m.006-.335a.12.12 0 0 0 .036.09.13.13 0 0 0 .095.036.13.13 0 0 0 .094-.035.12.12 0 0 0 .037-.093.12.12 0 0 0-.037-.09.13.13 0 0 0-.094-.034.13.13 0 0 0-.095.035.12.12 0 0 0-.036.09m.71.164a.2.2 0 0 1-.083-.068.17.17 0 0 1-.028-.096q0-.087.063-.143a.23.23 0 0 1 .16-.056q.094 0 .16.056a.18.18 0 0 1 .062.137.2.2 0 0 1-.027.102.2.2 0 0 1-.084.07.2.2 0 0 1 .087.066.2.2 0 0 1 .03.105.2.2 0 0 1-.063.15.24.24 0 0 1-.166.06.23.23 0 0 1-.165-.06.2.2 0 0 1-.063-.152q0-.057.03-.102a.2.2 0 0 1 .086-.07m-.024.17a.13.13 0 0 0 .037.098.14.14 0 0 0 .1.037.14.14 0 0 0 .1-.036.13.13 0 0 0 .036-.095.13.13 0 0 0-.038-.095.14.14 0 0 0-.099-.036.14.14 0 0 0-.098.035.12.12 0 0 0-.038.093m.005-.334a.12.12 0 0 0 .037.09.13.13 0 0 0 .094.036.13.13 0 0 0 .095-.035.12.12 0 0 0 .037-.093.12.12 0 0 0-.037-.09.13.13 0 0 0-.095-.034.13.13 0 0 0-.094.035.12.12 0 0 0-.037.09m.71.164a.2.2 0 0 1-.082-.068.17.17 0 0 1-.028-.096q0-.087.062-.143a.23.23 0 0 1 .16-.056q.096 0 .16.056a.18.18 0 0 1 .063.137.2.2 0 0 1-.027.102.2.2 0 0 1-.084.07.2.2 0 0 1 .087.066.2.2 0 0 1 .03.105.2.2 0 0 1-.063.15.24.24 0 0 1-.166.06.23.23 0 0 1-.165-.06.2.2 0 0 1-.064-.152q0-.057.03-.102a.2.2 0 0 1 .087-.07m-.025.17a.13.13 0 0 0 .038.098.14.14 0 0 0 .1.037.14.14 0 0 0 .1-.036.13.13 0 0 0 .036-.095.13.13 0 0 0-.038-.095.14.14 0 0 0-.1-.036.14.14 0 0 0-.097.035.12.12 0 0 0-.039.093m.006-.334a.12.12 0 0 0 .037.09.13.13 0 0 0 .094.036.13.13 0 0 0 .094-.035.12.12 0 0 0 .037-.093.12.12 0 0 0-.037-.09.13.13 0 0 0-.094-.034.13.13 0 0 0-.095.035.12.12 0 0 0-.036.09m.71.164a.2.2 0 0 1-.083-.068.17.17 0 0 1-.027-.096q0-.087.062-.143a.23.23 0 0 1 .16-.056q.095 0 .16.056a.18.18 0 0 1 .062.137.2.2 0 0 1-.027.102.2.2 0 0 1-.084.07.2.2 0 0 1 .088.066.2.2 0 0 1 .03.105.2.2 0 0 1-.064.15.24.24 0 0 1-.165.06.23.23 0 0 1-.166-.06.2.2 0 0 1-.063-.152q0-.057.03-.102a.2.2 0 0 1 .086-.07m-.025.17a.13.13 0 0 0 .038.098.14.14 0 0 0 .1.037.14.14 0 0 0 .1-.036.13.13 0 0 0 .036-.095.13.13 0 0 0-.038-.095.14.14 0 0 0-.1-.036.14.14 0 0 0-.098.035.12.12 0 0 0-.038.093m.006-.334a.12.12 0 0 0 .037.09.13.13 0 0 0 .094.036.13.13 0 0 0 .094-.035.12.12 0 0 0 .037-.093.12.12 0 0 0-.037-.09.13.13 0 0 0-.094-.034.13.13 0 0 0-.095.035.12.12 0 0 0-.036.09m.711.125q0-.044.03-.072a.1.1 0 0 1 .08-.028q.05 0 .08.027.03.028.03.073t-.03.072a.12.12 0 0 1-.08.028.1.1 0 0 1-.08-.028.1.1 0 0 1-.03-.072m0 .31q0-.044.03-.07a.1.1 0 0 1 .08-.03q.05 0 .08.028.03.027.03.073t-.03.072a.12.12 0 0 1-.08.028.1.1 0 0 1-.08-.028.1.1 0 0 1-.03-.072M7.698 11.557h-.114q-.02 0-.03-.01-.012-.01-.01-.03 0-.023.01-.03.013-.01.046-.01h.01v-.507H7.6q-.032 0-.045-.01-.013-.008-.013-.03 0-.02.01-.03t.033-.01h.237q.14 0 .224.09t.083.244q0 .075-.024.139a.3.3 0 0 1-.07.112.25.25 0 0 1-.102.064.5.5 0 0 1-.193.019zm0-.08.07.004q.14 0 .203-.062.064-.062.064-.195 0-.134-.064-.196-.064-.06-.207-.06h-.04l-.026.002zm.713-.283a.2.2 0 0 1-.082-.07.17.17 0 0 1-.028-.096q0-.087.062-.143a.23.23 0 0 1 .16-.056q.096 0 .16.056a.18.18 0 0 1 .063.137.2.2 0 0 1-.027.102.2.2 0 0 1-.084.069.2.2 0 0 1 .087.068.2.2 0 0 1 .03.105.2.2 0 0 1-.063.15.24.24 0 0 1-.166.06.23.23 0 0 1-.165-.06.2.2 0 0 1-.064-.152q0-.06.03-.102a.2.2 0 0 1 .087-.068m-.025.17a.13.13 0 0 0 .038.096.14.14 0 0 0 .1.037.14.14 0 0 0 .1-.036.13.13 0 0 0 .036-.095.13.13 0 0 0-.038-.095.14.14 0 0 0-.1-.036.14.14 0 0 0-.097.035.12.12 0 0 0-.04.094m.007-.336a.12.12 0 0 0 .037.09.13.13 0 0 0 .094.037.13.13 0 0 0 .095-.036.12.12 0 0 0 .036-.092.12.12 0 0 0-.036-.09.13.13 0 0 0-.095-.035.13.13 0 0 0-.095.035.12.12 0 0 0-.036.09m.71.166a.2.2 0 0 1-.083-.07.17.17 0 0 1-.027-.096q0-.087.062-.143a.23.23 0 0 1 .16-.056q.097 0 .16.056a.18.18 0 0 1 .063.137.2.2 0 0 1-.026.102.2.2 0 0 1-.084.069.2.2 0 0 1 .087.068.2.2 0 0 1 .03.105.2.2 0 0 1-.064.15.24.24 0 0 1-.166.06.23.23 0 0 1-.165-.06.2.2 0 0 1-.064-.152q0-.06.03-.102a.2.2 0 0 1 .086-.068m-.025.17a.13.13 0 0 0 .038.096.14.14 0 0 0 .1.037.14.14 0 0 0 .1-.036.13.13 0 0 0 .037-.095.13.13 0 0 0-.038-.095.14.14 0 0 0-.1-.036.14.14 0 0 0-.1.035.12.12 0 0 0-.037.094m.006-.336a.12.12 0 0 0 .037.09.13.13 0 0 0 .094.037.13.13 0 0 0 .095-.036.12.12 0 0 0 .037-.092.12.12 0 0 0-.037-.09.13.13 0 0 0-.095-.035.13.13 0 0 0-.095.035.12.12 0 0 0-.036.09m.71.166a.2.2 0 0 1-.082-.07.17.17 0 0 1-.028-.096q0-.087.063-.143a.23.23 0 0 1 .16-.056q.095 0 .159.056a.18.18 0 0 1 .063.137.2.2 0 0 1-.027.102.2.2 0 0 1-.084.069.2.2 0 0 1 .087.068.2.2 0 0 1 .03.105.2.2 0 0 1-.063.15.24.24 0 0 1-.166.06.23.23 0 0 1-.165-.06.2.2 0 0 1-.063-.152q0-.06.03-.102a.2.2 0 0 1 .086-.068m-.024.17a.13.13 0 0 0 .037.096.14.14 0 0 0 .1.037.14.14 0 0 0 .099-.036.13.13 0 0 0 .037-.095.13.13 0 0 0-.038-.095.14.14 0 0 0-.1-.036.14.14 0 0 0-.097.035.12.12 0 0 0-.038.094m.005-.336a.12.12 0 0 0 .037.09.13.13 0 0 0 .094.037.13.13 0 0 0 .095-.036.12.12 0 0 0 .037-.092.12.12 0 0 0-.037-.09.13.13 0 0 0-.095-.035.13.13 0 0 0-.094.035.12.12 0 0 0-.037.09m.756.372q.005-.02.01-.024.009-.006.026-.006h.123q.009 0 .014.004.005.003.005.008l-.005.016-.154.32-.01.015a.02.02 0 0 1-.015.005h-.004l-.006-.003-.04-.014-.013-.01-.005-.011v-.01l.002-.004zm6.172-.247q0-.044.03-.072a.1.1 0 0 1 .08-.028q.05 0 .08.027.03.028.03.073t-.03.073a.12.12 0 0 1-.08.028.1.1 0 0 1-.08-.028.1.1 0 0 1-.03-.073m0 .31q0-.043.03-.07a.1.1 0 0 1 .08-.028q.05 0 .08.027t.03.073-.03.072a.12.12 0 0 1-.08.028.1.1 0 0 1-.08-.028.1.1 0 0 1-.03-.072m.688-.27a.2.2 0 0 1-.082-.07.17.17 0 0 1-.027-.096q0-.087.062-.143a.23.23 0 0 1 .16-.056q.095 0 .16.056a.18.18 0 0 1 .062.137.2.2 0 0 1-.027.102.2.2 0 0 1-.083.068.2.2 0 0 1 .087.068.2.2 0 0 1 .03.106.2.2 0 0 1-.064.15.24.24 0 0 1-.165.06.23.23 0 0 1-.166-.06.2.2 0 0 1-.063-.152q0-.058.03-.103a.2.2 0 0 1 .086-.068m-.024.17a.13.13 0 0 0 .037.097.14.14 0 0 0 .1.037.14.14 0 0 0 .1-.036.13.13 0 0 0 .036-.095.13.13 0 0 0-.038-.096.14.14 0 0 0-.099-.036.14.14 0 0 0-.098.035.12.12 0 0 0-.038.095m.006-.336a.12.12 0 0 0 .036.09.13.13 0 0 0 .094.036.13.13 0 0 0 .095-.035.12.12 0 0 0 .037-.092.12.12 0 0 0-.037-.09.13.13 0 0 0-.095-.035.13.13 0 0 0-.094.035.12.12 0 0 0-.036.09m.71.165a.2.2 0 0 1-.083-.07.17.17 0 0 1-.028-.095q0-.087.063-.143a.23.23 0 0 1 .16-.056q.095 0 .158.056a.18.18 0 0 1 .064.137.2.2 0 0 1-.027.102.2.2 0 0 1-.084.068.2.2 0 0 1 .087.068.2.2 0 0 1 .03.106.2.2 0 0 1-.063.15.24.24 0 0 1-.166.06.23.23 0 0 1-.165-.06.2.2 0 0 1-.063-.152q0-.058.03-.103a.2.2 0 0 1 .086-.068m-.024.17a.13.13 0 0 0 .037.097.14.14 0 0 0 .1.037.14.14 0 0 0 .1-.036.13.13 0 0 0 .036-.095.13.13 0 0 0-.038-.096.14.14 0 0 0-.099-.036.14.14 0 0 0-.098.035.12.12 0 0 0-.038.095m.005-.336a.12.12 0 0 0 .037.09.13.13 0 0 0 .094.036.13.13 0 0 0 .095-.035.12.12 0 0 0 .037-.092.12.12 0 0 0-.037-.09.13.13 0 0 0-.095-.035.13.13 0 0 0-.094.035.12.12 0 0 0-.037.09m.71.165a.2.2 0 0 1-.083-.07.17.17 0 0 1-.027-.095q0-.087.062-.143a.23.23 0 0 1 .16-.056q.096 0 .16.056a.18.18 0 0 1 .063.137.2.2 0 0 1-.027.102.2.2 0 0 1-.084.068.2.2 0 0 1 .087.068.2.2 0 0 1 .03.106.2.2 0 0 1-.064.15.24.24 0 0 1-.165.06.23.23 0 0 1-.165-.06.2.2 0 0 1-.064-.152q0-.058.03-.103a.2.2 0 0 1 .087-.068m-.025.17a.13.13 0 0 0 .038.097.14.14 0 0 0 .1.037.14.14 0 0 0 .1-.036.13.13 0 0 0 .036-.095.13.13 0 0 0-.038-.096.14.14 0 0 0-.1-.036.14.14 0 0 0-.098.035.12.12 0 0 0-.038.095m.006-.336a.12.12 0 0 0 .037.09.13.13 0 0 0 .094.036.13.13 0 0 0 .094-.035.12.12 0 0 0 .037-.092.12.12 0 0 0-.037-.09.13.13 0 0 0-.094-.035.13.13 0 0 0-.095.035.12.12 0 0 0-.036.09m.71.165a.2.2 0 0 1-.083-.07.17.17 0 0 1-.027-.095q0-.087.062-.143a.23.23 0 0 1 .16-.056q.095 0 .16.056a.18.18 0 0 1 .062.137.2.2 0 0 1-.027.102.2.2 0 0 1-.084.068.2.2 0 0 1 .088.068.2.2 0 0 1 .03.106.2.2 0 0 1-.064.15.24.24 0 0 1-.165.06.23.23 0 0 1-.166-.06.2.2 0 0 1-.063-.152q0-.06.03-.103a.2.2 0 0 1 .086-.068m-.025.17a.13.13 0 0 0 .037.097.14.14 0 0 0 .1.037.14.14 0 0 0 .1-.036.13.13 0 0 0 .037-.095.13.13 0 0 0-.039-.096.14.14 0 0 0-.098-.036.14.14 0 0 0-.099.035.12.12 0 0 0-.038.095m.006-.336a.12.12 0 0 0 .036.09.13.13 0 0 0 .095.036.13.13 0 0 0 .094-.035.12.12 0 0 0 .037-.092.12.12 0 0 0-.037-.09.13.13 0 0 0-.094-.035.13.13 0 0 0-.095.035.12.12 0 0 0-.036.09m.711.125q0-.044.03-.072a.1.1 0 0 1 .08-.028q.05 0 .08.027.03.028.03.073t-.03.073a.12.12 0 0 1-.08.027.1.1 0 0 1-.08-.027.1.1 0 0 1-.03-.073m0 .31q0-.043.03-.07a.1.1 0 0 1 .08-.028q.05 0 .08.027t.03.073-.03.072a.12.12 0 0 1-.08.028.1.1 0 0 1-.08-.028.1.1 0 0 1-.03-.072M7.72 12.573a.2.2 0 0 1-.082-.068.17.17 0 0 1-.027-.096q0-.087.062-.143a.23.23 0 0 1 .16-.055q.095 0 .16.056a.18.18 0 0 1 .062.136.2.2 0 0 1-.027.102.2.2 0 0 1-.083.068.2.2 0 0 1 .087.068.2.2 0 0 1 .03.105.2.2 0 0 1-.064.15.24.24 0 0 1-.165.06.23.23 0 0 1-.166-.06.2.2 0 0 1-.063-.152q0-.06.03-.102a.2.2 0 0 1 .086-.068m-.024.17a.13.13 0 0 0 .037.097.14.14 0 0 0 .1.037.14.14 0 0 0 .1-.036.13.13 0 0 0 .037-.095.13.13 0 0 0-.04-.095.14.14 0 0 0-.097-.036.14.14 0 0 0-.1.035.12.12 0 0 0-.037.094m.006-.334a.12.12 0 0 0 .036.09.13.13 0 0 0 .094.036.13.13 0 0 0 .095-.035.12.12 0 0 0 .037-.091.12.12 0 0 0-.037-.09.13.13 0 0 0-.095-.035.13.13 0 0 0-.094.035.12.12 0 0 0-.036.09m.71.164a.2.2 0 0 1-.083-.07.17.17 0 0 1-.028-.094q0-.087.063-.143a.23.23 0 0 1 .16-.056q.095 0 .158.056a.18.18 0 0 1 .064.137.2.2 0 0 1-.027.101.2.2 0 0 1-.084.068.2.2 0 0 1 .087.068.2.2 0 0 1 .03.105.2.2 0 0 1-.063.15.24.24 0 0 1-.166.06.23.23 0 0 1-.165-.06.2.2 0 0 1-.064-.152q0-.06.03-.102a.2.2 0 0 1 .087-.068m-.024.17a.13.13 0 0 0 .037.096.14.14 0 0 0 .1.037.14.14 0 0 0 .1-.036.13.13 0 0 0 .036-.095.13.13 0 0 0-.038-.095.14.14 0 0 0-.1-.036.14.14 0 0 0-.097.035.12.12 0 0 0-.038.094m.005-.334a.12.12 0 0 0 .037.09.13.13 0 0 0 .094.036.13.13 0 0 0 .095-.035.12.12 0 0 0 .036-.092.12.12 0 0 0-.036-.09.13.13 0 0 0-.095-.035.13.13 0 0 0-.094.035.12.12 0 0 0-.037.09m.71.164a.2.2 0 0 1-.082-.07.17.17 0 0 1-.028-.094q0-.087.062-.143a.23.23 0 0 1 .16-.056q.097 0 .16.056a.18.18 0 0 1 .064.137.2.2 0 0 1-.027.102.2.2 0 0 1-.084.068.2.2 0 0 1 .087.067.2.2 0 0 1 .03.105.2.2 0 0 1-.063.15.24.24 0 0 1-.167.06.23.23 0 0 1-.165-.06.2.2 0 0 1-.064-.152q0-.06.03-.102a.2.2 0 0 1 .087-.067m-.025.17a.13.13 0 0 0 .038.095.14.14 0 0 0 .1.037.14.14 0 0 0 .1-.036.13.13 0 0 0 .037-.095.13.13 0 0 0-.038-.094.14.14 0 0 0-.1-.036.14.14 0 0 0-.098.035.12.12 0 0 0-.04.093m.007-.334a.12.12 0 0 0 .037.09.13.13 0 0 0 .094.036.13.13 0 0 0 .095-.035.12.12 0 0 0 .037-.092.12.12 0 0 0-.037-.09.13.13 0 0 0-.095-.035.13.13 0 0 0-.095.035.12.12 0 0 0-.036.09m.678.383.096-.335q.005-.018.012-.023.006-.005.023-.005h.025q.017 0 .024.005t.012.02l.11.34.054-.448h-.088q-.026 0-.038-.01-.012-.008-.012-.027 0-.022.012-.03.01-.01.043-.01h.18q.014 0 .023.013a.04.04 0 0 1 .01.027q0 .02-.011.028-.01.01-.032.01h-.007l-.08.56q0 .018-.006.023-.004.006-.016.006h-.04a.03.03 0 0 1-.02-.005.04.04 0 0 1-.011-.02l-.122-.386-.108.388q-.004.014-.01.018-.006.005-.02.005H9.72q-.011 0-.017-.005-.005-.006-.007-.025l-.086-.56h-.007q-.021 0-.033-.01-.01-.01-.01-.028 0-.017.008-.028a.03.03 0 0 1 .022-.01h.182q.03 0 .043.008.01.01.01.03.002.02-.011.03-.013.007-.037.007h-.08zm.769-.013q.005-.02.012-.024.007-.005.024-.006h.123q.008 0 .014.004a.01.01 0 0 1 .005.008l-.004.016-.155.32-.01.015a.02.02 0 0 1-.015.005h-.004l-.006-.003-.04-.014-.013-.01-.005-.01v-.01l.002-.005zm6.172-.245q0-.044.03-.072a.1.1 0 0 1 .08-.028q.05 0 .08.027.03.028.03.073t-.03.072a.12.12 0 0 1-.08.028.1.1 0 0 1-.08-.028.1.1 0 0 1-.03-.072m0 .31q0-.043.03-.071a.1.1 0 0 1 .08-.028q.05 0 .08.027.03.028.03.072 0 .045-.03.072a.12.12 0 0 1-.08.028.1.1 0 0 1-.08-.028.1.1 0 0 1-.03-.072m.688-.27a.2.2 0 0 1-.082-.07.17.17 0 0 1-.027-.094q0-.087.062-.143a.23.23 0 0 1 .16-.056q.095 0 .16.056a.18.18 0 0 1 .062.137.2.2 0 0 1-.027.102.2.2 0 0 1-.083.068.2.2 0 0 1 .087.068.2.2 0 0 1 .03.104.2.2 0 0 1-.064.15.24.24 0 0 1-.165.06.23.23 0 0 1-.166-.06.2.2 0 0 1-.063-.152q0-.058.03-.101a.2.2 0 0 1 .086-.068m-.024.17a.13.13 0 0 0 .037.095.14.14 0 0 0 .1.037.14.14 0 0 0 .1-.036.13.13 0 0 0 .037-.094.13.13 0 0 0-.039-.095.14.14 0 0 0-.098-.036.14.14 0 0 0-.1.035.12.12 0 0 0-.037.094m.006-.335a.12.12 0 0 0 .037.09.13.13 0 0 0 .094.036.13.13 0 0 0 .094-.035.12.12 0 0 0 .037-.092.12.12 0 0 0-.037-.09.13.13 0 0 0-.094-.035.13.13 0 0 0-.095.035.12.12 0 0 0-.036.09m.71.165a.2.2 0 0 1-.083-.07.17.17 0 0 1-.027-.095q0-.087.062-.143a.23.23 0 0 1 .16-.056q.095 0 .16.056a.18.18 0 0 1 .062.137.2.2 0 0 1-.027.102.2.2 0 0 1-.084.068.2.2 0 0 1 .088.068.2.2 0 0 1 .03.105.2.2 0 0 1-.064.15.24.24 0 0 1-.165.06.23.23 0 0 1-.166-.06.2.2 0 0 1-.063-.152q0-.058.03-.102a.2.2 0 0 1 .086-.068m-.025.17q0 .06.037.096a.14.14 0 0 0 .1.037.14.14 0 0 0 .1-.036.13.13 0 0 0 .036-.095.13.13 0 0 0-.038-.095.14.14 0 0 0-.099-.036.14.14 0 0 0-.098.035.12.12 0 0 0-.038.094m.006-.335a.12.12 0 0 0 .036.09.13.13 0 0 0 .094.036.13.13 0 0 0 .095-.035.12.12 0 0 0 .037-.092.12.12 0 0 0-.037-.09.13.13 0 0 0-.095-.035.13.13 0 0 0-.094.035.12.12 0 0 0-.036.09m.71.165a.2.2 0 0 1-.083-.07.17.17 0 0 1-.028-.095q0-.087.062-.143a.23.23 0 0 1 .16-.056q.096 0 .16.056a.18.18 0 0 1 .063.137.2.2 0 0 1-.027.102.2.2 0 0 1-.084.068.2.2 0 0 1 .087.068.2.2 0 0 1 .03.105.2.2 0 0 1-.063.15.24.24 0 0 1-.166.06.23.23 0 0 1-.165-.06.2.2 0 0 1-.064-.152q0-.058.03-.102a.2.2 0 0 1 .087-.068m-.025.17q0 .06.038.096a.14.14 0 0 0 .1.037.14.14 0 0 0 .1-.036.13.13 0 0 0 .036-.095.13.13 0 0 0-.038-.095.14.14 0 0 0-.1-.036.14.14 0 0 0-.097.035.12.12 0 0 0-.039.094m.006-.335a.12.12 0 0 0 .037.09.13.13 0 0 0 .094.036.13.13 0 0 0 .095-.035.12.12 0 0 0 .036-.092.12.12 0 0 0-.036-.09.13.13 0 0 0-.095-.035.13.13 0 0 0-.095.035.12.12 0 0 0-.036.09m.71.165a.2.2 0 0 1-.083-.07.17.17 0 0 1-.027-.095q0-.087.062-.143a.23.23 0 0 1 .16-.056q.095 0 .16.056a.18.18 0 0 1 .062.137.2.2 0 0 1-.027.102.2.2 0 0 1-.083.068.2.2 0 0 1 .087.068.2.2 0 0 1 .03.105.2.2 0 0 1-.064.15.24.24 0 0 1-.165.06.23.23 0 0 1-.166-.06.2.2 0 0 1-.063-.152q0-.058.03-.102a.2.2 0 0 1 .086-.068m-.025.17a.13.13 0 0 0 .038.096.14.14 0 0 0 .1.037.14.14 0 0 0 .1-.036.13.13 0 0 0 .036-.095.13.13 0 0 0-.038-.095.14.14 0 0 0-.1-.036.14.14 0 0 0-.098.035.12.12 0 0 0-.038.094m.006-.335a.12.12 0 0 0 .037.09.13.13 0 0 0 .094.036.13.13 0 0 0 .094-.035.12.12 0 0 0 .037-.092.12.12 0 0 0-.037-.09.13.13 0 0 0-.094-.035.13.13 0 0 0-.095.035.12.12 0 0 0-.036.09m.711.125q0-.044.03-.072a.1.1 0 0 1 .08-.028q.05 0 .08.027.03.028.031.073 0 .045-.03.072a.12.12 0 0 1-.08.028.1.1 0 0 1-.08-.028.1.1 0 0 1-.03-.072m0 .31q0-.042.03-.071a.1.1 0 0 1 .08-.028q.05 0 .08.027.03.028.031.073 0 .045-.03.072a.12.12 0 0 1-.08.028.1.1 0 0 1-.08-.028.1.1 0 0 1-.03-.072m-12.47 1.331.098-.336q.005-.018.012-.023.006-.004.023-.004h.025q.017 0 .023.005.008.005.012.02l.11.338.055-.446h-.088q-.026 0-.038-.01-.012-.008-.012-.028t.012-.03q.01-.008.043-.008h.18q.013 0 .023.01a.04.04 0 0 1 .01.028q0 .02-.01.028-.01.01-.033.01h-.007l-.08.562q0 .017-.006.023-.004.005-.016.005h-.04a.03.03 0 0 1-.02-.005.04.04 0 0 1-.01-.019l-.123-.387-.108.388q-.004.015-.01.02-.005.003-.02.003h-.042q-.01 0-.017-.005-.005-.006-.007-.025l-.086-.56H7.53q-.02 0-.032-.01-.01-.01-.01-.028 0-.016.007-.028a.03.03 0 0 1 .022-.01H7.7q.03 0 .043.008.01.01.01.03.002.021-.011.03t-.037.008h-.08zm.725-.22a.2.2 0 0 1-.082-.068.17.17 0 0 1-.028-.096q0-.087.063-.143a.23.23 0 0 1 .16-.056q.095 0 .158.056a.18.18 0 0 1 .064.137.2.2 0 0 1-.027.102.2.2 0 0 1-.084.07.2.2 0 0 1 .087.066.2.2 0 0 1 .03.105.2.2 0 0 1-.063.151.24.24 0 0 1-.166.058.23.23 0 0 1-.165-.059.2.2 0 0 1-.064-.152q0-.058.03-.102a.2.2 0 0 1 .087-.068m-.024.17a.13.13 0 0 0 .037.097.14.14 0 0 0 .1.037.14.14 0 0 0 .1-.036.13.13 0 0 0 .036-.095.13.13 0 0 0-.038-.095.14.14 0 0 0-.1-.036.14.14 0 0 0-.097.036.12.12 0 0 0-.038.093m.005-.334a.12.12 0 0 0 .037.091.13.13 0 0 0 .094.036.13.13 0 0 0 .095-.036.12.12 0 0 0 .036-.092.12.12 0 0 0-.036-.09.13.13 0 0 0-.095-.035.13.13 0 0 0-.094.035.12.12 0 0 0-.037.091m.71.165a.2.2 0 0 1-.083-.069.17.17 0 0 1-.027-.096q0-.087.062-.143a.23.23 0 0 1 .16-.056q.097 0 .16.056a.18.18 0 0 1 .064.137.2.2 0 0 1-.027.102.2.2 0 0 1-.084.07.2.2 0 0 1 .087.066.2.2 0 0 1 .03.105.2.2 0 0 1-.064.151.24.24 0 0 1-.166.058.23.23 0 0 1-.165-.059.2.2 0 0 1-.064-.152q0-.058.03-.102a.2.2 0 0 1 .087-.068m-.025.17a.13.13 0 0 0 .038.096.14.14 0 0 0 .1.037.14.14 0 0 0 .1-.036.13.13 0 0 0 .037-.095.13.13 0 0 0-.038-.095.14.14 0 0 0-.1-.036.14.14 0 0 0-.1.036.12.12 0 0 0-.037.093m.006-.335a.12.12 0 0 0 .037.091.13.13 0 0 0 .094.036.13.13 0 0 0 .095-.036.12.12 0 0 0 .037-.092.12.12 0 0 0-.037-.09.13.13 0 0 0-.095-.035.13.13 0 0 0-.095.035.12.12 0 0 0-.036.091m.678.384.096-.336q.005-.018.012-.023.006-.004.023-.004h.025q.017 0 .024.005t.012.02l.11.338.054-.446h-.088q-.026 0-.038-.01-.012-.008-.012-.028t.012-.03q.01-.008.043-.008h.18q.013 0 .023.01a.04.04 0 0 1 .01.028q0 .02-.011.028-.01.01-.032.01h-.007l-.08.562q-.002.017-.006.023t-.016.005h-.04a.03.03 0 0 1-.02-.005.04.04 0 0 1-.011-.019l-.122-.387-.108.388q-.004.015-.01.02-.006.003-.02.003H9.72q-.011 0-.017-.005-.005-.006-.008-.025l-.085-.56h-.007q-.021 0-.033-.01-.01-.01-.01-.028 0-.016.008-.028a.03.03 0 0 1 .022-.01h.182q.03 0 .043.008.01.01.01.03.002.021-.011.03-.013.007-.037.008h-.08zm.769-.013q.005-.019.012-.024t.024-.006h.123q.008 0 .014.004a.01.01 0 0 1 .005.008l-.005.016-.154.322-.01.013a.02.02 0 0 1-.015.005h-.004l-.006-.003-.04-.014-.013-.01-.005-.01v-.015zm6.172-.246q0-.044.03-.072a.1.1 0 0 1 .08-.028q.05 0 .08.027.03.028.03.073t-.03.073a.12.12 0 0 1-.08.027.1.1 0 0 1-.08-.027.1.1 0 0 1-.03-.073m0 .31q0-.042.03-.07a.1.1 0 0 1 .08-.029q.05 0 .08.027.03.028.03.073t-.03.072a.12.12 0 0 1-.08.028.1.1 0 0 1-.08-.028.1.1 0 0 1-.03-.072m.688-.27a.2.2 0 0 1-.082-.069.17.17 0 0 1-.027-.096q0-.087.062-.143a.23.23 0 0 1 .16-.056q.094 0 .16.056a.18.18 0 0 1 .062.137.2.2 0 0 1-.027.102.2.2 0 0 1-.083.07.2.2 0 0 1 .087.066.2.2 0 0 1 .03.105.2.2 0 0 1-.064.151.24.24 0 0 1-.165.058.23.23 0 0 1-.166-.059.2.2 0 0 1-.063-.152q0-.058.03-.102a.2.2 0 0 1 .086-.068m-.024.17a.13.13 0 0 0 .037.096.14.14 0 0 0 .1.037.14.14 0 0 0 .1-.036.13.13 0 0 0 .037-.095.13.13 0 0 0-.039-.095.14.14 0 0 0-.098-.036.14.14 0 0 0-.1.036.12.12 0 0 0-.037.093m.006-.335a.12.12 0 0 0 .036.091.13.13 0 0 0 .095.036.13.13 0 0 0 .094-.036.12.12 0 0 0 .037-.092.12.12 0 0 0-.037-.09.13.13 0 0 0-.094-.035.13.13 0 0 0-.095.035.12.12 0 0 0-.036.091m.71.165a.2.2 0 0 1-.083-.069.17.17 0 0 1-.028-.096q0-.087.063-.143a.23.23 0 0 1 .16-.056q.095 0 .16.056a.18.18 0 0 1 .062.137.2.2 0 0 1-.027.102.2.2 0 0 1-.084.07.2.2 0 0 1 .087.066.2.2 0 0 1 .03.105.2.2 0 0 1-.063.151.24.24 0 0 1-.166.058.23.23 0 0 1-.165-.059.2.2 0 0 1-.063-.152q0-.058.03-.102a.2.2 0 0 1 .086-.068m-.024.17q0 .06.037.096a.14.14 0 0 0 .1.037.14.14 0 0 0 .1-.036.13.13 0 0 0 .036-.095.13.13 0 0 0-.038-.095.14.14 0 0 0-.099-.036.14.14 0 0 0-.098.036.12.12 0 0 0-.038.093m.005-.335a.12.12 0 0 0 .037.091.13.13 0 0 0 .094.036.13.13 0 0 0 .095-.036.12.12 0 0 0 .037-.092.12.12 0 0 0-.037-.09.13.13 0 0 0-.095-.035.13.13 0 0 0-.094.035.12.12 0 0 0-.037.091m.71.165a.2.2 0 0 1-.082-.069.17.17 0 0 1-.028-.096q0-.087.062-.143a.23.23 0 0 1 .16-.056q.096 0 .16.056a.18.18 0 0 1 .063.137.2.2 0 0 1-.027.102.2.2 0 0 1-.084.07.2.2 0 0 1 .087.066.2.2 0 0 1 .03.105.2.2 0 0 1-.063.151.24.24 0 0 1-.166.058.23.23 0 0 1-.165-.059.2.2 0 0 1-.064-.152q0-.058.03-.102a.2.2 0 0 1 .087-.068m-.025.17q0 .06.038.096a.14.14 0 0 0 .1.037.14.14 0 0 0 .1-.036.13.13 0 0 0 .036-.095.13.13 0 0 0-.038-.095.14.14 0 0 0-.1-.036.14.14 0 0 0-.097.036.12.12 0 0 0-.039.093m.006-.335a.12.12 0 0 0 .037.091.13.13 0 0 0 .094.036.13.13 0 0 0 .095-.036.12.12 0 0 0 .036-.092.12.12 0 0 0-.036-.09.13.13 0 0 0-.095-.035.13.13 0 0 0-.095.035.12.12 0 0 0-.036.091m.71.165a.2.2 0 0 1-.083-.069.17.17 0 0 1-.027-.096q0-.087.062-.143a.23.23 0 0 1 .16-.056q.094 0 .16.056a.18.18 0 0 1 .062.137.2.2 0 0 1-.027.102.2.2 0 0 1-.084.07.2.2 0 0 1 .088.066.2.2 0 0 1 .03.105.2.2 0 0 1-.064.151.24.24 0 0 1-.165.058.23.23 0 0 1-.166-.059.2.2 0 0 1-.063-.152q0-.058.03-.102a.2.2 0 0 1 .086-.068m-.025.17a.13.13 0 0 0 .038.096.14.14 0 0 0 .1.037.14.14 0 0 0 .1-.036.13.13 0 0 0 .036-.095.13.13 0 0 0-.038-.095.14.14 0 0 0-.1-.036.14.14 0 0 0-.098.036.12.12 0 0 0-.038.093m.006-.335a.12.12 0 0 0 .037.091.13.13 0 0 0 .094.036.13.13 0 0 0 .094-.036.12.12 0 0 0 .037-.092.12.12 0 0 0-.037-.09.13.13 0 0 0-.094-.035.13.13 0 0 0-.095.035.12.12 0 0 0-.036.091m.711.125q0-.044.03-.072a.1.1 0 0 1 .08-.028q.05 0 .08.027.03.028.03.073t-.03.073a.12.12 0 0 1-.08.027.1.1 0 0 1-.08-.027.1.1 0 0 1-.03-.073m0 .31q0-.042.03-.07a.1.1 0 0 1 .08-.029q.05 0 .08.027.03.028.03.073t-.03.072a.12.12 0 0 1-.08.028.1.1 0 0 1-.08-.028.1.1 0 0 1-.03-.072m-12.468 1.33.097-.336q.005-.018.012-.022.006-.005.023-.005h.025q.017 0 .023.005.008.005.012.02l.11.338.055-.446h-.088q-.026 0-.038-.01-.012-.008-.012-.028t.012-.03q.01-.008.042-.008h.182q.012 0 .022.01a.04.04 0 0 1 .01.028q0 .02-.01.03-.01.008-.033.008h-.007l-.08.562q0 .017-.006.023-.004.005-.016.005h-.04a.03.03 0 0 1-.02-.005q-.006-.005-.01-.019l-.123-.387-.108.388q-.003.015-.01.02-.006.003-.02.003h-.04q-.012 0-.018-.005-.005-.006-.007-.025l-.086-.56h-.006q-.022 0-.033-.01-.01-.01-.01-.028 0-.016.007-.027a.03.03 0 0 1 .022-.01H7.7q.03 0 .043.007.012.008.01.03 0 .02-.011.03-.012.008-.037.008h-.08zm.724-.22a.2.2 0 0 1-.082-.067.17.17 0 0 1-.028-.097q0-.087.062-.143a.23.23 0 0 1 .16-.056q.096 0 .16.056a.18.18 0 0 1 .063.137.2.2 0 0 1-.027.102.2.2 0 0 1-.084.07.2.2 0 0 1 .087.066.2.2 0 0 1 .03.105.2.2 0 0 1-.063.151.24.24 0 0 1-.166.06.23.23 0 0 1-.165-.06.2.2 0 0 1-.064-.153q0-.057.03-.102a.2.2 0 0 1 .087-.068m-.025.17a.13.13 0 0 0 .038.097.14.14 0 0 0 .1.038.14.14 0 0 0 .1-.036.13.13 0 0 0 .036-.096.13.13 0 0 0-.038-.095.14.14 0 0 0-.1-.036.14.14 0 0 0-.097.036.12.12 0 0 0-.038.093m.006-.334a.12.12 0 0 0 .037.091.13.13 0 0 0 .094.036.13.13 0 0 0 .095-.036.12.12 0 0 0 .036-.092.12.12 0 0 0-.036-.09.13.13 0 0 0-.095-.035.13.13 0 0 0-.095.036.12.12 0 0 0-.036.09m.71.165a.2.2 0 0 1-.083-.068.17.17 0 0 1-.027-.097q0-.087.062-.143a.23.23 0 0 1 .16-.056q.097 0 .16.056a.18.18 0 0 1 .063.137.2.2 0 0 1-.026.102.2.2 0 0 1-.084.07.2.2 0 0 1 .087.066.2.2 0 0 1 .03.105.2.2 0 0 1-.064.151.24.24 0 0 1-.166.06.23.23 0 0 1-.165-.06.2.2 0 0 1-.064-.153q0-.057.03-.102a.2.2 0 0 1 .086-.068m-.025.17a.13.13 0 0 0 .038.096.14.14 0 0 0 .1.038.14.14 0 0 0 .1-.036.13.13 0 0 0 .037-.096.13.13 0 0 0-.038-.095.14.14 0 0 0-.1-.036.14.14 0 0 0-.1.036.12.12 0 0 0-.037.093m.006-.335a.12.12 0 0 0 .037.091.13.13 0 0 0 .094.036.13.13 0 0 0 .095-.036.12.12 0 0 0 .037-.092.12.12 0 0 0-.037-.09.13.13 0 0 0-.095-.035.13.13 0 0 0-.095.036.12.12 0 0 0-.036.09m.678.384.096-.336q.005-.018.012-.022.006-.006.023-.005h.025q.017 0 .024.005t.012.02l.11.338.054-.446h-.088q-.026 0-.038-.01-.012-.008-.012-.028t.012-.03q.01-.008.043-.008h.18q.013 0 .023.01a.04.04 0 0 1 .01.028q0 .02-.011.03-.01.008-.032.008h-.007l-.08.562q-.002.017-.006.023-.005.005-.016.005h-.04a.03.03 0 0 1-.02-.005.04.04 0 0 1-.011-.019l-.122-.386-.108.387q-.004.015-.01.02-.005.003-.02.003H9.72q-.011 0-.017-.005-.006-.006-.008-.025l-.085-.56h-.007q-.021 0-.033-.01-.01-.01-.01-.028 0-.017.008-.027a.03.03 0 0 1 .022-.01h.182q.03 0 .043.007.01.01.01.03.002.021-.011.03-.013.007-.037.008h-.08Zm.725-.259q0-.044.03-.072a.1.1 0 0 1 .08-.028q.05 0 .08.028.03.027.03.072t-.03.073a.12.12 0 0 1-.08.027.1.1 0 0 1-.08-.027.1.1 0 0 1-.03-.073m0 .311q0-.044.03-.072a.1.1 0 0 1 .08-.028q.05 0 .08.027.03.028.03.073t-.03.073a.12.12 0 0 1-.08.027.1.1 0 0 1-.08-.027.1.1 0 0 1-.03-.073m6.216-.31q0-.045.03-.073a.1.1 0 0 1 .08-.028q.05 0 .08.028.03.027.03.072t-.03.073a.12.12 0 0 1-.08.027.1.1 0 0 1-.08-.027.1.1 0 0 1-.03-.073m0 .31q0-.044.03-.072a.1.1 0 0 1 .08-.028q.05 0 .08.027.03.028.03.073t-.03.073a.12.12 0 0 1-.08.027.1.1 0 0 1-.08-.027.1.1 0 0 1-.03-.073m.688-.27a.2.2 0 0 1-.082-.069.17.17 0 0 1-.027-.097q0-.087.062-.143a.23.23 0 0 1 .16-.056q.094 0 .16.056a.18.18 0 0 1 .062.137.2.2 0 0 1-.027.102.2.2 0 0 1-.083.07.2.2 0 0 1 .087.066.2.2 0 0 1 .03.105.2.2 0 0 1-.064.151.24.24 0 0 1-.165.06.23.23 0 0 1-.166-.06.2.2 0 0 1-.063-.153q0-.057.03-.102a.2.2 0 0 1 .086-.068m-.024.17a.13.13 0 0 0 .037.096.14.14 0 0 0 .1.038.14.14 0 0 0 .1-.036.13.13 0 0 0 .037-.096.13.13 0 0 0-.039-.095.14.14 0 0 0-.099-.036.14.14 0 0 0-.098.036.12.12 0 0 0-.038.093m.006-.335a.12.12 0 0 0 .036.091.13.13 0 0 0 .094.036.13.13 0 0 0 .095-.036.12.12 0 0 0 .037-.092.12.12 0 0 0-.037-.09.13.13 0 0 0-.095-.035.13.13 0 0 0-.094.036.12.12 0 0 0-.036.09m.71.165a.2.2 0 0 1-.083-.068.17.17 0 0 1-.028-.097q0-.087.063-.143a.23.23 0 0 1 .16-.056q.095 0 .16.056a.18.18 0 0 1 .062.137.2.2 0 0 1-.027.102.2.2 0 0 1-.084.07.2.2 0 0 1 .087.066.2.2 0 0 1 .03.105.2.2 0 0 1-.063.151.24.24 0 0 1-.166.06.23.23 0 0 1-.165-.06.2.2 0 0 1-.063-.153q0-.057.03-.102a.2.2 0 0 1 .086-.068m-.024.17q0 .06.037.096a.14.14 0 0 0 .1.038.14.14 0 0 0 .1-.036.13.13 0 0 0 .036-.096.13.13 0 0 0-.038-.095.14.14 0 0 0-.099-.036.14.14 0 0 0-.098.036.12.12 0 0 0-.038.093m.005-.335a.12.12 0 0 0 .037.091.13.13 0 0 0 .094.036.13.13 0 0 0 .095-.036.12.12 0 0 0 .037-.092.12.12 0 0 0-.037-.09.13.13 0 0 0-.095-.035.13.13 0 0 0-.094.036.12.12 0 0 0-.037.09m.71.165a.2.2 0 0 1-.083-.068.17.17 0 0 1-.027-.097q0-.087.062-.143a.23.23 0 0 1 .16-.056q.096 0 .16.056a.18.18 0 0 1 .063.137.2.2 0 0 1-.027.102.2.2 0 0 1-.084.07.2.2 0 0 1 .087.066.2.2 0 0 1 .03.105.2.2 0 0 1-.064.151.24.24 0 0 1-.165.06.23.23 0 0 1-.165-.06.2.2 0 0 1-.064-.153q0-.057.03-.102a.2.2 0 0 1 .087-.068m-.025.17q0 .06.038.096a.14.14 0 0 0 .1.038.14.14 0 0 0 .1-.036.13.13 0 0 0 .036-.096.13.13 0 0 0-.038-.095.14.14 0 0 0-.1-.036.14.14 0 0 0-.098.036.12.12 0 0 0-.038.093m.006-.335a.12.12 0 0 0 .037.091.13.13 0 0 0 .094.036.13.13 0 0 0 .094-.036.12.12 0 0 0 .037-.092.12.12 0 0 0-.037-.09.13.13 0 0 0-.094-.035.13.13 0 0 0-.095.036.12.12 0 0 0-.036.09m.71.165a.2.2 0 0 1-.083-.068.17.17 0 0 1-.027-.097q0-.087.062-.143a.23.23 0 0 1 .16-.056q.094 0 .16.056a.18.18 0 0 1 .062.137.2.2 0 0 1-.027.102.2.2 0 0 1-.084.07.2.2 0 0 1 .088.066.2.2 0 0 1 .03.105.2.2 0 0 1-.064.151.24.24 0 0 1-.165.06.23.23 0 0 1-.166-.06.2.2 0 0 1-.063-.153q0-.057.03-.102a.2.2 0 0 1 .086-.068m-.025.17a.13.13 0 0 0 .037.096.14.14 0 0 0 .1.038.14.14 0 0 0 .1-.036.13.13 0 0 0 .037-.096.13.13 0 0 0-.039-.095.14.14 0 0 0-.098-.036.14.14 0 0 0-.099.036.12.12 0 0 0-.038.093m.006-.335a.12.12 0 0 0 .037.091.13.13 0 0 0 .094.036.13.13 0 0 0 .094-.036.12.12 0 0 0 .037-.092.12.12 0 0 0-.037-.09.13.13 0 0 0-.094-.035.13.13 0 0 0-.095.036.12.12 0 0 0-.036.09m.711.125q0-.044.03-.072a.1.1 0 0 1 .08-.028q.05 0 .08.028.03.027.03.072t-.03.073a.12.12 0 0 1-.08.027.1.1 0 0 1-.08-.027.1.1 0 0 1-.03-.073m0 .311q0-.044.03-.072a.1.1 0 0 1 .08-.028q.05 0 .08.027.03.028.03.073t-.03.073a.12.12 0 0 1-.08.027.1.1 0 0 1-.08-.027.1.1 0 0 1-.03-.073m-12.455 1.47h-.114q-.02 0-.03-.01-.012-.01-.01-.03 0-.024.01-.03.013-.01.046-.01h.01v-.508h-.01q-.033 0-.045-.008-.013-.01-.013-.032t.01-.03.033-.01h.237q.14 0 .224.09t.083.244q0 .075-.024.14a.3.3 0 0 1-.07.112.25.25 0 0 1-.102.064.5.5 0 0 1-.193.018zm0-.08.07.003q.14 0 .203-.06.064-.064.064-.198t-.064-.194-.207-.06l-.066.002zm1.004-.018v-.133h-.14q-.016 0-.025-.01-.008-.007-.008-.027t.008-.03q.006-.008.028-.008h.242q.016 0 .022.01a.05.05 0 0 1 .007.027q0 .021-.01.03-.008.007-.032.007h-.007v.17l-.004.02-.013.013a.3.3 0 0 1-.094.032.6.6 0 0 1-.124.014.32.32 0 0 1-.243-.096.35.35 0 0 1-.093-.25q0-.157.09-.257a.3.3 0 0 1 .232-.1q.04 0 .077.008l.08.026a.04.04 0 0 1 .015-.02l.026-.007q.027 0 .035.015.01.016.01.073v.076q0 .03-.01.04t-.034.01q-.03 0-.042-.036l-.007-.016a.16.16 0 0 0-.15-.093.2.2 0 0 0-.16.073.3.3 0 0 0-.06.196q0 .128.067.203.066.075.176.075a.3.3 0 0 0 .066-.008zm.69 0v-.133h-.138q-.018 0-.026-.01-.008-.007-.008-.027t.007-.03q.008-.008.03-.008h.242q.015 0 .022.01a.05.05 0 0 1 .007.027q0 .021-.01.03-.01.007-.032.007h-.008v.17l-.003.02a.04.04 0 0 1-.014.013.3.3 0 0 1-.093.032.6.6 0 0 1-.124.014.32.32 0 0 1-.244-.096.35.35 0 0 1-.093-.25q0-.157.09-.257a.3.3 0 0 1 .232-.1q.039 0 .078.008l.08.026a.04.04 0 0 1 .015-.02l.026-.007q.026 0 .035.015.009.016.009.073v.076q0 .03-.01.04t-.033.01q-.03 0-.042-.036l-.008-.016a.16.16 0 0 0-.15-.093.2.2 0 0 0-.16.073.3.3 0 0 0-.06.196q0 .128.066.203.067.075.178.075a.3.3 0 0 0 .066-.008zm.379.097h-.114q-.02 0-.031-.01t-.01-.03q0-.022.01-.03.013-.01.047-.01h.01v-.507h-.01q-.033 0-.045-.008-.013-.01-.013-.032t.01-.03.033-.01h.237q.14 0 .224.09t.083.244q0 .075-.024.14a.3.3 0 0 1-.07.112.25.25 0 0 1-.102.064.5.5 0 0 1-.193.018zm0-.08.07.004q.138 0 .203-.06.064-.064.064-.198t-.064-.194-.207-.06l-.066.002zm.715-.324q0-.043.03-.072a.1.1 0 0 1 .08-.028q.05 0 .08.028.03.027.03.072t-.03.073a.12.12 0 0 1-.08.027.1.1 0 0 1-.08-.027.1.1 0 0 1-.03-.073m0 .312q0-.044.03-.072a.1.1 0 0 1 .08-.028q.05 0 .08.027.03.028.03.073t-.03.073a.12.12 0 0 1-.08.027.1.1 0 0 1-.08-.027.1.1 0 0 1-.03-.073m6.216-.31q0-.046.03-.074a.1.1 0 0 1 .08-.028q.05 0 .08.028.03.027.03.072t-.03.073a.12.12 0 0 1-.08.027.1.1 0 0 1-.08-.027.1.1 0 0 1-.03-.073m0 .31q0-.043.03-.07a.1.1 0 0 1 .08-.029q.05 0 .08.027.03.028.03.073t-.03.073a.12.12 0 0 1-.08.027.1.1 0 0 1-.08-.027.1.1 0 0 1-.03-.073m.688-.272a.2.2 0 0 1-.082-.068.17.17 0 0 1-.027-.097q0-.087.062-.143a.23.23 0 0 1 .16-.056q.094 0 .16.056a.18.18 0 0 1 .062.137.2.2 0 0 1-.027.102.2.2 0 0 1-.084.07.2.2 0 0 1 .088.066.2.2 0 0 1 .03.106.2.2 0 0 1-.064.15.24.24 0 0 1-.165.06.23.23 0 0 1-.166-.06.2.2 0 0 1-.063-.152q0-.057.03-.103a.2.2 0 0 1 .086-.068m-.024.17a.13.13 0 0 0 .037.097.14.14 0 0 0 .1.038.14.14 0 0 0 .1-.036.13.13 0 0 0 .036-.096.13.13 0 0 0-.038-.096.14.14 0 0 0-.099-.036.14.14 0 0 0-.098.036.12.12 0 0 0-.038.094m.006-.336a.12.12 0 0 0 .036.091.13.13 0 0 0 .094.036.13.13 0 0 0 .095-.036.12.12 0 0 0 .037-.092.12.12 0 0 0-.037-.09.13.13 0 0 0-.095-.035.13.13 0 0 0-.094.036.12.12 0 0 0-.036.09m.71.165a.2.2 0 0 1-.083-.068.17.17 0 0 1-.028-.097q0-.087.063-.143a.23.23 0 0 1 .16-.056q.095 0 .158.056a.18.18 0 0 1 .064.137.2.2 0 0 1-.027.102.2.2 0 0 1-.084.07.2.2 0 0 1 .087.066.2.2 0 0 1 .03.106.2.2 0 0 1-.063.15.24.24 0 0 1-.166.06.23.23 0 0 1-.165-.06.2.2 0 0 1-.063-.152q0-.058.03-.103a.2.2 0 0 1 .086-.068m-.024.17q0 .06.037.097a.14.14 0 0 0 .1.038.14.14 0 0 0 .1-.036.13.13 0 0 0 .036-.096.13.13 0 0 0-.038-.096.14.14 0 0 0-.099-.036.14.14 0 0 0-.098.036.12.12 0 0 0-.038.094m.005-.336a.12.12 0 0 0 .037.091.13.13 0 0 0 .094.036.13.13 0 0 0 .095-.036.12.12 0 0 0 .037-.092.12.12 0 0 0-.037-.09.13.13 0 0 0-.095-.035.13.13 0 0 0-.094.036.12.12 0 0 0-.037.09m.71.165a.2.2 0 0 1-.083-.068.17.17 0 0 1-.027-.097q0-.087.062-.143a.23.23 0 0 1 .16-.056q.096 0 .16.056a.18.18 0 0 1 .063.137.2.2 0 0 1-.027.102.2.2 0 0 1-.084.07.2.2 0 0 1 .087.066.2.2 0 0 1 .03.106.2.2 0 0 1-.064.15.24.24 0 0 1-.165.06.23.23 0 0 1-.165-.06.2.2 0 0 1-.064-.152q0-.058.03-.103a.2.2 0 0 1 .087-.068m-.025.17q0 .06.038.097a.14.14 0 0 0 .1.038.14.14 0 0 0 .1-.036.13.13 0 0 0 .036-.096.13.13 0 0 0-.038-.096.14.14 0 0 0-.1-.036.14.14 0 0 0-.098.036.12.12 0 0 0-.038.094m.006-.336a.12.12 0 0 0 .037.091.13.13 0 0 0 .094.036.13.13 0 0 0 .094-.036.12.12 0 0 0 .037-.092.12.12 0 0 0-.037-.09.13.13 0 0 0-.094-.035.13.13 0 0 0-.095.036.12.12 0 0 0-.036.09m.71.165a.2.2 0 0 1-.083-.068.17.17 0 0 1-.027-.097q0-.087.062-.143a.23.23 0 0 1 .16-.056q.094 0 .16.056a.18.18 0 0 1 .062.137.2.2 0 0 1-.027.102.2.2 0 0 1-.084.07.2.2 0 0 1 .087.066.2.2 0 0 1 .03.106.2.2 0 0 1-.063.15.24.24 0 0 1-.165.06.23.23 0 0 1-.166-.06.2.2 0 0 1-.063-.152q0-.058.03-.103a.2.2 0 0 1 .086-.068m-.025.17a.13.13 0 0 0 .037.097.14.14 0 0 0 .1.038.14.14 0 0 0 .1-.036.13.13 0 0 0 .037-.096.13.13 0 0 0-.039-.096.14.14 0 0 0-.098-.036.14.14 0 0 0-.099.036.12.12 0 0 0-.038.094m.006-.336a.12.12 0 0 0 .036.091.13.13 0 0 0 .095.036.13.13 0 0 0 .094-.036.12.12 0 0 0 .037-.092.12.12 0 0 0-.037-.09.13.13 0 0 0-.094-.035.13.13 0 0 0-.095.036.12.12 0 0 0-.036.09m.711.125q0-.044.03-.072a.1.1 0 0 1 .08-.028q.05 0 .08.028.03.027.03.072t-.03.073a.12.12 0 0 1-.08.027.1.1 0 0 1-.08-.027.1.1 0 0 1-.03-.073m0 .312q0-.044.03-.072a.1.1 0 0 1 .08-.028q.05 0 .08.027.03.028.03.073t-.03.073a.12.12 0 0 1-.08.027.1.1 0 0 1-.08-.027.1.1 0 0 1-.03-.073m-3.453 1.07q0-.044.03-.072a.1.1 0 0 1 .08-.028q.05 0 .08.028.03.027.03.072 0 .046-.03.073a.12.12 0 0 1-.08.027.1.1 0 0 1-.08-.027.1.1 0 0 1-.03-.073m0 .31q0-.043.03-.07a.1.1 0 0 1 .08-.029q.05 0 .08.028.03.027.03.072t-.03.073a.12.12 0 0 1-.08.027.1.1 0 0 1-.08-.027.1.1 0 0 1-.03-.073m.688-.27a.2.2 0 0 1-.082-.069.17.17 0 0 1-.027-.097q0-.087.062-.143a.23.23 0 0 1 .16-.056q.095 0 .16.056a.18.18 0 0 1 .062.138.2.2 0 0 1-.027.1.2.2 0 0 1-.084.07.2.2 0 0 1 .088.068.2.2 0 0 1 .03.104.2.2 0 0 1-.064.15.24.24 0 0 1-.165.06.23.23 0 0 1-.166-.06.2.2 0 0 1-.063-.152q0-.057.03-.102a.2.2 0 0 1 .086-.068m-.024.17a.13.13 0 0 0 .037.097.14.14 0 0 0 .1.037.14.14 0 0 0 .1-.036.13.13 0 0 0 .036-.096.13.13 0 0 0-.038-.095.14.14 0 0 0-.1-.036.14.14 0 0 0-.097.036.12.12 0 0 0-.038.093m.006-.335a.12.12 0 0 0 .036.09.13.13 0 0 0 .094.037.13.13 0 0 0 .095-.036.12.12 0 0 0 .037-.092.12.12 0 0 0-.037-.09.13.13 0 0 0-.095-.034.13.13 0 0 0-.094.035.12.12 0 0 0-.036.09m.71.165a.2.2 0 0 1-.083-.068.17.17 0 0 1-.028-.097q0-.087.063-.143a.23.23 0 0 1 .16-.056q.095 0 .158.056a.18.18 0 0 1 .064.138.2.2 0 0 1-.027.1.2.2 0 0 1-.084.07.2.2 0 0 1 .087.068.2.2 0 0 1 .03.104.2.2 0 0 1-.063.15.24.24 0 0 1-.166.06.23.23 0 0 1-.165-.06.2.2 0 0 1-.063-.152q0-.057.03-.102a.2.2 0 0 1 .086-.068m-.024.17q0 .06.037.097a.14.14 0 0 0 .1.037.14.14 0 0 0 .1-.036.13.13 0 0 0 .036-.096.13.13 0 0 0-.038-.095.14.14 0 0 0-.099-.036.14.14 0 0 0-.098.036.12.12 0 0 0-.038.093m.005-.335a.12.12 0 0 0 .037.09.13.13 0 0 0 .094.037.13.13 0 0 0 .095-.036.12.12 0 0 0 .037-.092.12.12 0 0 0-.037-.09.13.13 0 0 0-.095-.034.13.13 0 0 0-.094.035.12.12 0 0 0-.037.09m.71.165a.2.2 0 0 1-.083-.068.17.17 0 0 1-.027-.097q0-.087.062-.143a.23.23 0 0 1 .16-.056q.096 0 .16.056a.18.18 0 0 1 .062.138.2.2 0 0 1-.026.1.2.2 0 0 1-.084.07.2.2 0 0 1 .087.068.2.2 0 0 1 .03.104.2.2 0 0 1-.064.15.24.24 0 0 1-.165.06.23.23 0 0 1-.165-.06.2.2 0 0 1-.064-.152q0-.057.03-.102a.2.2 0 0 1 .086-.068m-.025.17q0 .06.038.097a.14.14 0 0 0 .1.037.14.14 0 0 0 .1-.036.13.13 0 0 0 .036-.096.13.13 0 0 0-.038-.095.14.14 0 0 0-.1-.036.14.14 0 0 0-.098.036.12.12 0 0 0-.038.093m.006-.335a.12.12 0 0 0 .037.09.13.13 0 0 0 .094.037.13.13 0 0 0 .094-.036.12.12 0 0 0 .037-.092.12.12 0 0 0-.037-.09.13.13 0 0 0-.094-.034.13.13 0 0 0-.095.035.12.12 0 0 0-.036.09m.71.165a.2.2 0 0 1-.083-.068.17.17 0 0 1-.028-.097q0-.087.063-.143a.23.23 0 0 1 .16-.056q.095 0 .16.056a.18.18 0 0 1 .062.138.2.2 0 0 1-.027.1.2.2 0 0 1-.084.07.2.2 0 0 1 .087.068.2.2 0 0 1 .03.104.2.2 0 0 1-.063.15.24.24 0 0 1-.166.06.23.23 0 0 1-.165-.06.2.2 0 0 1-.063-.152q0-.057.03-.102a.2.2 0 0 1 .086-.068m-.024.17a.13.13 0 0 0 .037.097.14.14 0 0 0 .1.037.14.14 0 0 0 .1-.036.13.13 0 0 0 .037-.096.13.13 0 0 0-.039-.095.14.14 0 0 0-.099-.036.14.14 0 0 0-.098.036.12.12 0 0 0-.038.093m.006-.335a.12.12 0 0 0 .036.09.13.13 0 0 0 .094.037.13.13 0 0 0 .095-.036.12.12 0 0 0 .037-.092.12.12 0 0 0-.037-.09.13.13 0 0 0-.095-.034.13.13 0 0 0-.094.035.12.12 0 0 0-.036.09m.71.125q0-.044.032-.072a.1.1 0 0 1 .08-.028q.05 0 .08.028.03.027.03.072 0 .046-.03.073a.12.12 0 0 1-.08.027.1.1 0 0 1-.08-.027.1.1 0 0 1-.03-.073m0 .31q0-.043.031-.07a.1.1 0 0 1 .08-.029q.05 0 .08.028.03.027.03.072t-.03.073a.12.12 0 0 1-.08.027.1.1 0 0 1-.08-.027.1.1 0 0 1-.03-.073m-3.453 1.07q0-.044.03-.072a.1.1 0 0 1 .08-.028q.05 0 .08.028.03.027.03.072 0 .046-.03.073a.12.12 0 0 1-.08.027.1.1 0 0 1-.08-.027.1.1 0 0 1-.03-.073m0 .311q0-.044.03-.072a.1.1 0 0 1 .08-.028q.05 0 .08.028.03.027.03.072t-.03.073a.12.12 0 0 1-.08.027.1.1 0 0 1-.08-.027.1.1 0 0 1-.03-.073m.656-.051.096-.336q.005-.018.012-.023.006-.005.023-.005h.025q.016 0 .024.005.006.005.012.02l.11.339.054-.447h-.088q-.026 0-.038-.01-.012-.008-.012-.028t.012-.03.043-.008h.181q.013 0 .022.01a.04.04 0 0 1 .01.028q0 .02-.01.03-.012.008-.033.008h-.007l-.08.562q0 .017-.006.023-.005.006-.015.006h-.04a.03.03 0 0 1-.02-.005.04.04 0 0 1-.012-.02l-.122-.386-.107.387q-.004.015-.01.019-.007.004-.02.004h-.043q-.01 0-.017-.005-.005-.006-.007-.024l-.085-.56h-.008q-.02 0-.033-.01-.01-.01-.01-.029 0-.016.008-.027a.03.03 0 0 1 .022-.01h.182q.03 0 .043.008.01.008.01.03 0 .018-.01.028-.013.01-.038.01h-.08zm.723-.22a.2.2 0 0 1-.082-.068.17.17 0 0 1-.028-.097q0-.087.063-.143a.23.23 0 0 1 .16-.056q.095 0 .158.056a.18.18 0 0 1 .064.137.2.2 0 0 1-.027.102.2.2 0 0 1-.084.07.2.2 0 0 1 .087.067.2.2 0 0 1 .03.104.2.2 0 0 1-.063.151.24.24 0 0 1-.166.06.23.23 0 0 1-.165-.06.2.2 0 0 1-.063-.153q0-.057.03-.102a.2.2 0 0 1 .086-.068m-.024.17q0 .06.037.097a.14.14 0 0 0 .1.037.14.14 0 0 0 .1-.036.13.13 0 0 0 .036-.096.13.13 0 0 0-.038-.095.14.14 0 0 0-.099-.036.14.14 0 0 0-.098.036.12.12 0 0 0-.038.093m.005-.335a.12.12 0 0 0 .037.09.13.13 0 0 0 .094.037.13.13 0 0 0 .095-.036.12.12 0 0 0 .037-.092.12.12 0 0 0-.037-.09.13.13 0 0 0-.095-.035.13.13 0 0 0-.094.036.12.12 0 0 0-.037.09m.71.165a.2.2 0 0 1-.083-.068.17.17 0 0 1-.027-.097q0-.087.062-.143a.23.23 0 0 1 .16-.056q.096 0 .16.056a.18.18 0 0 1 .062.137.2.2 0 0 1-.026.102.2.2 0 0 1-.084.07.2.2 0 0 1 .087.067.2.2 0 0 1 .03.104.2.2 0 0 1-.064.151.24.24 0 0 1-.165.06.23.23 0 0 1-.165-.06.2.2 0 0 1-.064-.153q0-.057.03-.102a.2.2 0 0 1 .086-.068m-.025.17q0 .06.038.097a.14.14 0 0 0 .1.037.14.14 0 0 0 .1-.036.13.13 0 0 0 .036-.096.13.13 0 0 0-.038-.095.14.14 0 0 0-.1-.036.14.14 0 0 0-.098.036.12.12 0 0 0-.038.093m.006-.335a.12.12 0 0 0 .037.09.13.13 0 0 0 .094.037.13.13 0 0 0 .094-.036.12.12 0 0 0 .037-.092.12.12 0 0 0-.037-.09.13.13 0 0 0-.094-.035.13.13 0 0 0-.095.036.12.12 0 0 0-.036.09m.71.165a.2.2 0 0 1-.083-.068.17.17 0 0 1-.028-.097q0-.087.063-.143a.23.23 0 0 1 .16-.056q.095 0 .16.056a.18.18 0 0 1 .062.137.2.2 0 0 1-.027.102.2.2 0 0 1-.084.07.2.2 0 0 1 .087.067.2.2 0 0 1 .03.104.2.2 0 0 1-.063.151.24.24 0 0 1-.166.06.23.23 0 0 1-.165-.06.2.2 0 0 1-.063-.153q0-.057.03-.102a.2.2 0 0 1 .086-.068m-.024.17a.13.13 0 0 0 .037.097.14.14 0 0 0 .1.037.14.14 0 0 0 .1-.036.13.13 0 0 0 .036-.096.13.13 0 0 0-.038-.095.14.14 0 0 0-.099-.036.14.14 0 0 0-.098.036.12.12 0 0 0-.038.093m.006-.335a.12.12 0 0 0 .036.09.13.13 0 0 0 .094.037.13.13 0 0 0 .095-.036.12.12 0 0 0 .037-.092.12.12 0 0 0-.037-.09.13.13 0 0 0-.095-.035.13.13 0 0 0-.094.036.12.12 0 0 0-.036.09m.71.125q0-.044.031-.072a.1.1 0 0 1 .08-.028q.05 0 .08.028.03.027.03.072 0 .046-.03.073a.12.12 0 0 1-.08.027.1.1 0 0 1-.08-.027.1.1 0 0 1-.03-.073m0 .311q0-.044.031-.072a.1.1 0 0 1 .08-.028q.05 0 .08.028.03.027.03.072t-.03.073a.12.12 0 0 1-.08.027.1.1 0 0 1-.08-.027.1.1 0 0 1-.03-.073m-3.452 1.07q0-.044.03-.07a.1.1 0 0 1 .08-.03q.05 0 .08.028.03.027.03.073 0 .045-.03.072a.12.12 0 0 1-.08.028.1.1 0 0 1-.08-.028.1.1 0 0 1-.03-.072m0 .311q0-.044.03-.072a.1.1 0 0 1 .08-.028q.05 0 .08.028.03.027.03.072 0 .046-.03.073a.12.12 0 0 1-.08.027.1.1 0 0 1-.08-.027.1.1 0 0 1-.03-.073m.688-.27a.2.2 0 0 1-.082-.07.17.17 0 0 1-.027-.096q0-.087.062-.143a.23.23 0 0 1 .16-.056q.095.001.16.056a.18.18 0 0 1 .062.138.2.2 0 0 1-.027.101.2.2 0 0 1-.084.07.2.2 0 0 1 .087.067.2.2 0 0 1 .03.104.2.2 0 0 1-.063.151.24.24 0 0 1-.165.06.23.23 0 0 1-.166-.06.2.2 0 0 1-.063-.153q0-.057.03-.102a.2.2 0 0 1 .086-.068m-.024.17a.13.13 0 0 0 .037.096.14.14 0 0 0 .1.037.14.14 0 0 0 .1-.036.13.13 0 0 0 .036-.096.13.13 0 0 0-.038-.094.14.14 0 0 0-.1-.037.14.14 0 0 0-.097.036.12.12 0 0 0-.038.093m.005-.336a.12.12 0 0 0 .037.092.13.13 0 0 0 .094.035.13.13 0 0 0 .095-.036.12.12 0 0 0 .037-.092.12.12 0 0 0-.037-.09.13.13 0 0 0-.095-.034.13.13 0 0 0-.094.035.12.12 0 0 0-.037.09m.71.165A.2.2 0 0 1 18 20.79a.17.17 0 0 1-.028-.097q0-.087.063-.143a.23.23 0 0 1 .16-.056q.095.001.158.056a.18.18 0 0 1 .064.138.2.2 0 0 1-.027.101.2.2 0 0 1-.084.07.2.2 0 0 1 .087.067.2.2 0 0 1 .03.104.2.2 0 0 1-.063.151.24.24 0 0 1-.166.06.23.23 0 0 1-.165-.06.2.2 0 0 1-.063-.153q0-.057.03-.102a.2.2 0 0 1 .086-.068m-.024.17a.13.13 0 0 0 .037.097.14.14 0 0 0 .1.037.14.14 0 0 0 .1-.036.13.13 0 0 0 .036-.096.13.13 0 0 0-.038-.094.14.14 0 0 0-.099-.037.14.14 0 0 0-.098.036.12.12 0 0 0-.038.093m.005-.335a.12.12 0 0 0 .037.092.13.13 0 0 0 .094.035.13.13 0 0 0 .095-.036.12.12 0 0 0 .036-.092.12.12 0 0 0-.036-.09.13.13 0 0 0-.095-.034.13.13 0 0 0-.094.035.12.12 0 0 0-.037.09m.71.165a.2.2 0 0 1-.083-.068.17.17 0 0 1-.027-.097q0-.087.062-.143a.23.23 0 0 1 .16-.056q.096.001.16.056a.18.18 0 0 1 .062.138.2.2 0 0 1-.026.101.2.2 0 0 1-.084.07.2.2 0 0 1 .087.067.2.2 0 0 1 .03.104.2.2 0 0 1-.064.151.24.24 0 0 1-.165.06.23.23 0 0 1-.165-.06.2.2 0 0 1-.064-.153q0-.057.03-.102a.2.2 0 0 1 .086-.068m-.025.17a.13.13 0 0 0 .038.097.14.14 0 0 0 .1.037.14.14 0 0 0 .1-.036.13.13 0 0 0 .036-.096.13.13 0 0 0-.038-.094.14.14 0 0 0-.1-.037.14.14 0 0 0-.098.036.12.12 0 0 0-.038.093m.006-.335a.12.12 0 0 0 .037.092.13.13 0 0 0 .094.035.13.13 0 0 0 .094-.036.12.12 0 0 0 .037-.092.12.12 0 0 0-.037-.09.13.13 0 0 0-.094-.034.13.13 0 0 0-.095.035.12.12 0 0 0-.036.09m.71.165a.2.2 0 0 1-.083-.068.17.17 0 0 1-.028-.097q0-.087.063-.143a.23.23 0 0 1 .16-.056q.095.001.16.056a.18.18 0 0 1 .062.138.2.2 0 0 1-.027.101.2.2 0 0 1-.084.07.2.2 0 0 1 .087.067.2.2 0 0 1 .03.104.2.2 0 0 1-.063.151.24.24 0 0 1-.166.06.23.23 0 0 1-.165-.06.2.2 0 0 1-.063-.153q0-.057.03-.102a.2.2 0 0 1 .086-.068m-.024.17a.13.13 0 0 0 .037.097.14.14 0 0 0 .1.037.14.14 0 0 0 .1-.036.13.13 0 0 0 .036-.096.13.13 0 0 0-.038-.094.14.14 0 0 0-.099-.037.14.14 0 0 0-.098.036.12.12 0 0 0-.038.093m.006-.335a.12.12 0 0 0 .036.092.13.13 0 0 0 .094.035.13.13 0 0 0 .095-.036.12.12 0 0 0 .037-.092.12.12 0 0 0-.037-.09.13.13 0 0 0-.095-.034.13.13 0 0 0-.094.035.12.12 0 0 0-.036.09m.71.126q0-.045.031-.072a.1.1 0 0 1 .08-.029q.05 0 .08.028.03.027.03.073 0 .045-.03.072a.12.12 0 0 1-.08.028.1.1 0 0 1-.08-.028.1.1 0 0 1-.03-.072m0 .31q0-.044.031-.072a.1.1 0 0 1 .08-.028q.05 0 .08.028.03.027.03.072 0 .046-.03.073a.12.12 0 0 1-.08.027.1.1 0 0 1-.08-.027.1.1 0 0 1-.03-.073m-2.892 1.474h-.026q-.02 0-.03-.01-.012-.01-.01-.03 0-.024.011-.03.012-.01.055-.01h.036v-.506h-.036q-.043 0-.055-.01-.012-.008-.012-.03 0-.02.01-.03t.032-.01h.49q.018 0 .028.01.01.013.01.034v.133q0 .03-.008.04-.009.012-.03.012-.024 0-.032-.013-.01-.012-.01-.055v-.08h-.298v.19h.147v-.03q0-.03.008-.043t.03-.012q.02 0 .026.012a.1.1 0 0 1 .007.055v.104q0 .042-.007.054-.01.012-.03.012t-.026-.014a.1.1 0 0 1-.008-.052v-.02h-.147v.25h.3v-.092q0-.043.008-.055.01-.012.031-.013.022-.001.03.012.01.01.01.044v.142q0 .02-.01.03-.01.012-.03.01zm.82-.364A.2.2 0 0 1 18 22.17a.17.17 0 0 1-.028-.096q0-.088.063-.144a.23.23 0 0 1 .16-.056q.095 0 .158.057a.18.18 0 0 1 .064.137.2.2 0 0 1-.027.102.2.2 0 0 1-.084.068.2.2 0 0 1 .087.068.2.2 0 0 1 .03.105.2.2 0 0 1-.063.15.24.24 0 0 1-.166.06.23.23 0 0 1-.165-.06.2.2 0 0 1-.064-.153q0-.057.03-.102a.2.2 0 0 1 .087-.068m-.024.17q0 .06.037.097a.14.14 0 0 0 .1.037.14.14 0 0 0 .1-.036.13.13 0 0 0 .036-.096.13.13 0 0 0-.038-.094.14.14 0 0 0-.099-.036.14.14 0 0 0-.098.035.12.12 0 0 0-.038.093m.005-.334a.12.12 0 0 0 .037.09.13.13 0 0 0 .094.036.13.13 0 0 0 .095-.036.12.12 0 0 0 .036-.092.12.12 0 0 0-.036-.089.13.13 0 0 0-.095-.035.13.13 0 0 0-.094.035.12.12 0 0 0-.037.09m.71.164a.2.2 0 0 1-.083-.068.17.17 0 0 1-.027-.096q0-.088.062-.144a.23.23 0 0 1 .16-.056q.095 0 .16.057a.18.18 0 0 1 .062.137.2.2 0 0 1-.027.102.2.2 0 0 1-.083.068.2.2 0 0 1 .087.068.2.2 0 0 1 .03.105.2.2 0 0 1-.064.15.24.24 0 0 1-.165.06.23.23 0 0 1-.165-.06.2.2 0 0 1-.064-.153q0-.057.03-.102a.2.2 0 0 1 .086-.068m-.025.17q0 .06.038.097a.14.14 0 0 0 .1.037.14.14 0 0 0 .1-.036.13.13 0 0 0 .036-.096.13.13 0 0 0-.038-.094.14.14 0 0 0-.1-.036.14.14 0 0 0-.098.035.12.12 0 0 0-.038.093m.006-.334a.12.12 0 0 0 .037.09.13.13 0 0 0 .094.036.13.13 0 0 0 .094-.036.12.12 0 0 0 .037-.092.12.12 0 0 0-.037-.089.13.13 0 0 0-.094-.035.13.13 0 0 0-.095.035.12.12 0 0 0-.036.09m.71.164a.2.2 0 0 1-.083-.068.17.17 0 0 1-.028-.096q0-.088.063-.144a.23.23 0 0 1 .16-.056q.095 0 .158.057a.18.18 0 0 1 .064.137.2.2 0 0 1-.027.102.2.2 0 0 1-.084.068.2.2 0 0 1 .087.068.2.2 0 0 1 .03.105.2.2 0 0 1-.063.15.24.24 0 0 1-.166.06.23.23 0 0 1-.165-.06.2.2 0 0 1-.063-.153q0-.057.03-.102a.2.2 0 0 1 .086-.068m-.024.17a.13.13 0 0 0 .037.097.14.14 0 0 0 .1.037.14.14 0 0 0 .1-.036.13.13 0 0 0 .036-.096.13.13 0 0 0-.038-.094.14.14 0 0 0-.099-.036.14.14 0 0 0-.098.035.12.12 0 0 0-.038.093m.006-.334a.12.12 0 0 0 .036.09.13.13 0 0 0 .094.036.13.13 0 0 0 .095-.036.12.12 0 0 0 .037-.092.12.12 0 0 0-.037-.089.13.13 0 0 0-.095-.035.13.13 0 0 0-.094.035.12.12 0 0 0-.036.09m.873.448h.18q.023 0 .033.01t.01.03q0 .022-.01.03-.009.01-.036.009h-.435q-.022 0-.034-.01-.01-.01-.01-.03 0-.021.01-.03.013-.01.036-.01h.172v-.359h-.11a.05.05 0 0 1-.035-.01q-.012-.012-.012-.03 0-.02.011-.03.012-.01.034-.01h.165a.04.04 0 0 1 .023.007.02.02 0 0 1 .01.017v.416zm-.104-.6q0-.06.011-.078.011-.016.047-.016.035 0 .046.014.011.013.011.062 0 .05-.01.06-.01.012-.047.012-.036 0-.047-.01-.01-.012-.01-.045m-2.557 1.575q.028 0 .04.01.013.009.013.03t-.012.03a.06.06 0 0 1-.035.01h-.228v.187q0 .092.024.12.024.03.08.03.052 0 .124-.03a.4.4 0 0 1 .088-.03q.016 0 .027.012a.04.04 0 0 1 .01.027.04.04 0 0 1-.013.033.14.14 0 0 1-.047.027 1 1 0 0 1-.099.03.4.4 0 0 1-.083.01.3.3 0 0 1-.11-.02.15.15 0 0 1-.083-.11l-.005-.082v-.205h-.095q-.024 0-.034-.01-.012-.01-.01-.03 0-.023.013-.031a.2.2 0 0 1 .063-.01h.063v-.144q0-.024.01-.035t.033-.012.034.014.01.064v.114zm.392.344.097-.336q.005-.018.011-.023.007-.005.023-.005h.026q.015 0 .023.005t.012.02l.11.339.055-.447h-.088q-.027 0-.038-.01-.013-.008-.012-.027 0-.023.011-.03.012-.01.043-.01h.182q.012 0 .022.012a.04.04 0 0 1 .01.028q0 .018-.012.028-.01.01-.032.01h-.006l-.08.56q-.002.019-.006.024-.006.006-.016.006h-.04a.03.03 0 0 1-.02-.005.04.04 0 0 1-.01-.02l-.123-.386-.108.388q-.004.014-.01.018-.006.005-.02.005h-.043q-.01 0-.016-.006-.006-.005-.008-.024l-.085-.561h-.007q-.023 0-.033-.01t-.01-.028q0-.016.008-.027a.03.03 0 0 1 .022-.01h.182q.03 0 .042.008t.012.03q0 .02-.012.028-.012.01-.037.01h-.08zm.723-.22a.2.2 0 0 1-.082-.068.17.17 0 0 1-.027-.096q0-.088.062-.144a.23.23 0 0 1 .16-.056q.095 0 .16.057a.18.18 0 0 1 .062.137.2.2 0 0 1-.027.102.2.2 0 0 1-.083.068.2.2 0 0 1 .087.068.2.2 0 0 1 .03.105.2.2 0 0 1-.064.15.24.24 0 0 1-.165.059.23.23 0 0 1-.165-.06.2.2 0 0 1-.064-.152q0-.057.03-.102a.2.2 0 0 1 .086-.068m-.024.17q0 .06.038.097a.14.14 0 0 0 .1.037.14.14 0 0 0 .1-.036.13.13 0 0 0 .036-.096.13.13 0 0 0-.038-.094.14.14 0 0 0-.1-.036.14.14 0 0 0-.098.035.12.12 0 0 0-.038.093m.006-.334a.12.12 0 0 0 .037.09.13.13 0 0 0 .094.036.13.13 0 0 0 .094-.036.12.12 0 0 0 .037-.092.12.12 0 0 0-.037-.09.13.13 0 0 0-.094-.034.13.13 0 0 0-.095.035.12.12 0 0 0-.036.09m.71.164a.2.2 0 0 1-.083-.068.17.17 0 0 1-.028-.096q0-.088.063-.144a.23.23 0 0 1 .16-.056q.095 0 .158.057a.18.18 0 0 1 .064.137.2.2 0 0 1-.027.102.2.2 0 0 1-.084.068.2.2 0 0 1 .087.068.2.2 0 0 1 .03.105.2.2 0 0 1-.063.15.24.24 0 0 1-.166.059.23.23 0 0 1-.165-.06.2.2 0 0 1-.063-.152q0-.057.03-.102a.2.2 0 0 1 .086-.068m-.024.17a.13.13 0 0 0 .037.097.14.14 0 0 0 .1.037.14.14 0 0 0 .1-.036.13.13 0 0 0 .036-.096.13.13 0 0 0-.038-.094.14.14 0 0 0-.099-.036.14.14 0 0 0-.098.035.12.12 0 0 0-.038.093m.006-.334a.12.12 0 0 0 .036.09.13.13 0 0 0 .094.036.13.13 0 0 0 .095-.036.12.12 0 0 0 .037-.092.12.12 0 0 0-.037-.09.13.13 0 0 0-.095-.034.13.13 0 0 0-.094.035.12.12 0 0 0-.036.09m.687.528h-.114q-.02 0-.032-.01-.01-.01-.01-.03 0-.023.012-.031t.046-.01h.01v-.505h-.009q-.034 0-.046-.01-.013-.007-.013-.031 0-.02.01-.03t.033-.01h.237q.14 0 .224.09t.083.244q0 .075-.023.139a.3.3 0 0 1-.07.112.25.25 0 0 1-.103.064.5.5 0 0 1-.194.019zm0-.08.07.004q.138 0 .203-.062.064-.062.064-.195 0-.134-.065-.195-.065-.06-.206-.06h-.04l-.026.002z"/></svg>