<svg aria-labelledby="simpleicons-go-icon" role="img" xmlns="http://www.w3.org/2000/svg" viewBox="0 0 24 24"><title id="simpleicons-go-icon">Go icon</title><path d="M1.84 10.24c-.05 0-.06-.03-.04-.06l.25-.32c.02-.03.08-.06.12-.06h4.17c.04 0 .05.04.03.07l-.2.3c-.02.04-.08.08-.11.08zM.08 11.3c-.05 0-.06-.02-.04-.06l.25-.31c.02-.04.08-.06.12-.06h5.32c.05 0 .07.03.06.07l-.1.28c0 .04-.05.07-.1.07zm2.82 1.07c-.05 0-.06-.03-.04-.07l.17-.3c.02-.03.07-.06.11-.06h2.33c.05 0 .07.03.07.08l-.02.28c0 .05-.05.08-.08.08zM15 10.03l-1.96.5c-.18.06-.19.07-.34-.1-.17-.2-.3-.33-.55-.45a2.03 2.03 0 0 0-2.1.17c-.8.52-1.2 1.28-1.2 2.22.02.93.66 1.7 1.58 1.83.79.1 1.45-.18 1.98-.77l.31-.43h-2.25c-.24 0-.3-.15-.22-.35.15-.36.43-.97.6-1.27a.31.31 0 0 1 .29-.19h4.24c-.02.32-.02.63-.07.95-.13.84-.44 1.6-.95 2.28a4.86 4.86 0 0 1-3.33 1.98 4.13 4.13 0 0 1-3.13-.77 3.66 3.66 0 0 1-1.48-2.58 4.57 4.57 0 0 1 .99-3.42 5.17 5.17 0 0 1 3.26-2.02c1.1-.2 2.15-.07 3.1.57.6.41 1.05.97 1.34 1.65.07.1.03.16-.11.2zm3.85 6.44a4.37 4.37 0 0 1-2.84-1.02 3.66 3.66 0 0 1-1.26-2.25 4.45 4.45 0 0 1 .95-3.52 4.89 4.89 0 0 1 3.26-1.95c1.19-.21 2.3-.1 3.32.6.92.62 1.5 1.47 1.65 2.6a4.5 4.5 0 0 1-1.35 3.95 5.34 5.34 0 0 1-2.8 1.49c-.3.06-.62.07-.93.1zm2.78-4.7c-.01-.16-.01-.28-.04-.4a1.92 1.92 0 0 0-2.37-1.54 2.55 2.55 0 0 0-2.04 2.03c-.21.9.23 1.83 1.07 2.2.64.28 1.28.24 1.9-.07a2.55 2.55 0 0 0 1.48-2.23z"/></svg>