<svg role="img" viewBox="0 0 24 24" xmlns="http://www.w3.org/2000/svg"><title>Godot Engine icon</title><path d="M9.559 0.689c-1.096 0.244-2.181 0.583-3.198 1.095 0.023 0.898 0.081 1.758 0.199 2.632-0.395 0.253-0.81 0.47-1.178 0.766-0.375 0.288-0.758 0.564-1.097 0.901-0.678-0.448-1.396-0.869-2.135-1.241-0.797 0.857-1.542 1.782-2.15 2.818 0.458 0.741 0.936 1.435 1.452 2.094h0.014v6.356c0.012 0 0.023-0 0.035 0.003l3.896 0.376c0.204 0.020 0.364 0.184 0.378 0.389l0.12 1.72 3.399 0.242 0.234-1.587c0.030-0.206 0.207-0.358 0.415-0.358h4.111c0.208 0 0.385 0.152 0.415 0.358l0.234 1.587 3.399-0.242 0.12-1.72c0.014-0.205 0.174-0.369 0.378-0.389l3.895-0.376c0.012 0 0.023-0.003 0.035-0.003v-0.507h0.002v-5.848h0.014c0.516-0.659 0.994-1.353 1.452-2.094-0.608-1.036-1.354-1.961-2.151-2.819-0.739 0.372-1.457 0.793-2.135 1.241-0.339-0.337-0.721-0.613-1.096-0.901-0.369-0.296-0.784-0.513-1.178-0.766 0.117-0.874 0.175-1.734 0.199-2.632-1.017-0.512-2.101-0.851-3.198-1.095-0.438 0.736-0.838 1.533-1.187 2.312-0.414-0.069-0.829-0.094-1.246-0.099h-0.016c-0.417 0.005-0.832 0.030-1.246 0.099-0.349-0.779-0.749-1.576-1.188-2.312l0.001-0.001zM6.476 9.994c1.297 0 2.349 1.051 2.349 2.348s-1.052 2.348-2.349 2.348c-1.296 0-2.348-1.051-2.348-2.348s1.051-2.348 2.348-2.348zM17.524 9.994c1.296 0 2.348 1.051 2.348 2.348s-1.051 2.348-2.348 2.348c-1.297 0-2.349-1.051-2.349-2.348s1.051-2.348 2.349-2.348zM6.701 10.924c-0.861 0-1.559 0.698-1.559 1.559s0.698 1.558 1.559 1.558c0.861 0 1.559-0.698 1.559-1.558s-0.697-1.559-1.559-1.559zM17.298 10.924c-0.861 0-1.558 0.698-1.558 1.559s0.697 1.558 1.558 1.558c0.861 0 1.559-0.698 1.559-1.558s-0.697-1.559-1.559-1.559zM12 11.377c0.417 0 0.757 0.308 0.757 0.687v2.162c0 0.379-0.339 0.687-0.757 0.687s-0.756-0.308-0.756-0.687v-2.162c0-0.379 0.339-0.687 0.756-0.687zM1.46 16.951c0.002 0.377 0.006 0.789 0.006 0.871 0 3.701 4.694 5.479 10.526 5.5h0.014c5.832-0.020 10.525-1.799 10.525-5.5 0-0.084 0.005-0.495 0.007-0.871l-3.502 0.338-0.121 1.729c-0.015 0.208-0.18 0.375-0.389 0.39l-4.181 0.296c-0.206 0-0.384-0.151-0.415-0.358l-0.238-1.614h-3.386l-0.238 1.614c-0.032 0.217-0.226 0.373-0.445 0.357l-4.151-0.296c-0.208-0.015-0.375-0.181-0.389-0.389l-0.12-1.729-3.504-0.337z"/></svg>