<svg role="img" viewBox="0 0 24 24" xmlns="http://www.w3.org/2000/svg"><title>GoLand icon</title><path d="M0 0v24h24V0H0zm1.577 7.829V7.8c-.098-2.883 2.159-5.3 5.042-5.397.049-.002.098-.003.147-.003 1.438-.074 2.842.443 3.889 1.432L9.282 5.577c-.681-.692-1.616-1.075-2.588-1.058-1.678.123-2.945 1.572-2.841 3.252v.03c-.141 1.683 1.11 3.16 2.793 3.301.068.005.137.009.205.01.733.022 1.454-.198 2.05-.627V8.993H6.709V7.01h4.299v4.534c-1.15 1.064-2.66 1.655-4.228 1.657-2.811.066-5.143-2.158-5.21-4.969-.003-.134-.001-.268.007-.403zM11.4 21.48h-9v-1.44h9v1.44zM22.441 7.771v.03c.076 2.904-2.215 5.321-5.12 5.397-2.905.077-5.322-2.216-5.398-5.12-.002-.083-.002-.166-.001-.249V7.8c-.076-2.904 2.216-5.321 5.121-5.398 2.904-.076 5.321 2.216 5.398 5.121.002.081.002.165 0 .248zm-2.275.029c.101-1.71-1.203-3.177-2.913-3.278-.028-.002-.057-.003-.085-.004-1.687.043-3.018 1.443-2.976 3.129.002.041.003.082.006.124v.03c-.102 1.709 1.202 3.177 2.912 3.277.029.002.058.003.086.004 1.686-.043 3.018-1.442 2.975-3.128-.001-.042-.003-.084-.005-.125V7.8z"/></svg>