<svg role="img"
  viewBox="0 0 24 24"
   xmlns="http://www.w3.org/2000/svg"
  width="24" height="24"
   ><title>Goldman Sachs</title>
  <g transform="matrix(0.12,0,0,0.30313522,0.535872,-0.721)">
    <path
         d="M 16.92,21.2 H 28.3 V 39.84 C 24.5,40.61 21.59,41 18.4,41 5.92,41 1.52,33.85 1.52,22.08 c 0,-12.65 6.1,-19.8 18.26,-19.8 1.54,0 4.45,0.11 8.08,0.66 V 14.87 H 25.22 L 23.73,10.31 C 22.3,5.97 20.6,3.82 17.9,3.82 c -4.67,0 -7.15,6.32 -7.15,18.15 0,11.88 0.99,17.49 7.09,17.49 0.83,0 1.81,-0.11 2.75,-0.38 V 25.21 L 16.91,22.68 V 21.2 Z m 11.16,50.04 c 0,7.48 -5.11,11.77 -14.13,11.77 -2.47,0 -6.1,-0.38 -9.51,-0.94 V 67.45 h 2.64 l 1.1,3.46 c 2.47,7.97 4.23,10.61 7.37,10.61 3.3,0 5.66,-2.91 5.66,-6.76 0,-3.13 -1.48,-5.33 -4.67,-7.04 l -5.5,-2.97 C 6.8,62.5 4.49,58.98 4.49,54.69 4.49,48.2 9.82,44.3 18.57,44.3 c 1.98,0 4.29,0.17 7.97,0.66 V 56.89 H 23.9 l -1.48,-4.56 c -1.49,-4.84 -3.08,-6.6 -5.99,-6.6 -3.25,0 -5.17,2.09 -5.17,5.11 0,2.69 1.49,4.62 4.4,6.27 l 5.55,3.13 c 4.67,2.64 6.87,6.16 6.87,11 z m 24.31,8.64 1.1,1.65 v 0.83 h -8.41 l -0.39,-3.19 c -0.88,2.42 -3.19,3.85 -6.16,3.85 -4.4,0 -7.15,-2.75 -7.15,-7.26 0,-4.4 2.47,-7.31 10.06,-10.28 l 3.24,-1.26 V 60.1 c 0,-3.63 -0.66,-5.11 -2.69,-5.11 -1.65,0 -2.58,0.88 -4.18,4.89 L 36,64.37 H 33.53 V 55.4 c 3.24,-0.99 6.49,-1.65 9.29,-1.65 6.21,0 9.57,2.97 9.57,8.36 z M 55.57,26.37 C 55.57,35.72 50.57,41 44.13,41 37.7,41 32.7,35.72 32.7,26.37 c 0,-9.35 5,-14.63 11.44,-14.63 6.43,0 11.43,5.28 11.43,14.63 z M 44.69,75.26 v -9.51 l -1.04,0.44 c -3.25,1.32 -4.46,4.29 -4.46,8.63 0,3.25 0.77,5.11 2.58,5.11 1.81,0 2.92,-1.76 2.92,-4.67 z m 2.8,-48.89 c 0,-10.56 -0.88,-13.36 -3.35,-13.36 -2.47,0 -3.35,2.8 -3.35,13.36 0,10.56 0.88,13.36 3.35,13.36 2.47,0 3.35,-2.8 3.35,-13.36 z m 27.61,49.16 0.99,0.5 c -1.76,5.06 -4.01,6.98 -8.36,6.98 -7.09,0 -11.05,-5.33 -11.05,-14.63 0,-9.29 4.62,-14.63 12.15,-14.63 2.03,0 4.73,0.33 7.04,1.26 v 9.35 h -2.58 l -1.04,-3.52 c -1.38,-4.67 -2.14,-5.88 -3.52,-5.88 -2.2,0 -3.96,2.86 -3.96,13.75 0,8.74 1.32,11.93 4.67,11.93 2.25,0.01 4.17,-1.42 5.66,-5.11 z M 68.99,40.34 h -9.9 v -0.82 l 1.1,-1.65 V 7.18 L 59.09,5.53 V 4.7 l 8.8,-0.66 v 33.82 l 1.1,1.65 z M 82.52,41 c -6.05,0 -9.68,-5.5 -9.68,-14.9 0,-9.35 3.79,-14.35 9.62,-14.35 2.97,0 4.62,1.15 5.33,3.46 V 7.18 L 86.69,5.53 V 4.7 l 8.8,-0.66 v 33.82 l 1.1,1.65 v 0.82 h -7.81 l -0.6,-4.18 C 87.31,39.73 85.66,41 82.52,41 Z m 19.3,38.88 1.1,1.65 v 0.83 h -9.9 v -0.83 l 1.1,-1.65 v -19.8 c 0,-2.36 -0.71,-3.79 -2.42,-3.79 -2.04,0 -3.52,1.71 -3.52,5.06 v 18.53 l 1.1,1.65 v 0.83 h -9.9 v -0.83 l 1.1,-1.65 V 49.19 l -1.1,-1.65 v -0.82 l 8.8,-0.66 v 11.38 c 0.99,-2.36 3.24,-3.68 6.43,-3.68 4.51,0 7.2,2.86 7.2,8.41 V 79.88 Z M 80.93,26.2 c 0,9.9 0.88,12.92 3.3,12.92 3.02,0 3.57,-4.34 3.57,-13.03 0,-8.41 -0.6,-12.59 -3.52,-12.59 -2.47,0 -3.35,2.97 -3.35,12.7 z m 55.21,11.66 1.1,1.65 v 0.82 h -9.9 v -0.82 l 1.1,-1.65 v -20.4 c 0,-1.98 -0.66,-3.19 -2.2,-3.19 -1.92,0 -3.46,1.71 -3.46,5 v 18.59 l 1.1,1.65 v 0.82 h -9.9 v -0.82 l 1.1,-1.65 v -20.4 c 0,-1.98 -0.66,-3.19 -2.2,-3.19 -1.92,0 -3.46,1.71 -3.46,5 v 18.59 l 1.1,1.65 v 0.82 h -9.9 v -0.82 l 1.1,-1.65 V 15.48 l -1.1,-1.32 v -0.82 l 7.92,-0.94 h 0.66 l 0.22,3.08 c 0.93,-2.42 3.24,-3.74 6.38,-3.74 3.35,0 5.55,1.65 6.54,4.62 0.82,-2.86 3.41,-4.62 6.71,-4.62 4.34,0 7.09,2.86 7.09,8.41 z m -10.28,36.41 c 0,4.78 -3.08,8.74 -10.5,8.74 -1.92,0 -4.51,-0.22 -8.52,-0.94 V 71.85 h 2.25 l 0.71,2.2 c 1.76,5.61 3.46,7.7 6.16,7.7 2.53,0 4.18,-1.82 4.18,-4.62 0,-2.31 -1.16,-3.9 -3.9,-5.39 l -4.73,-2.53 c -3.02,-1.65 -4.67,-4.23 -4.67,-7.42 0,-5 3.91,-8.03 10.39,-8.03 1.87,0 4.29,0.27 6.93,0.82 v 8.03 h -2.25 l -1.16,-2.92 c -1.32,-3.52 -2.58,-4.67 -4.67,-4.67 -2.25,0 -3.57,1.32 -3.57,3.52 0,1.87 1.1,3.13 3.79,4.67 l 4.67,2.64 c 3.18,1.82 4.89,4.4 4.89,8.42 z m 35.58,-36.41 1.1,1.65 v 0.82 h -8.41 l -0.38,-3.19 c -0.88,2.42 -3.19,3.85 -6.16,3.85 -4.4,0 -7.15,-2.75 -7.15,-7.26 0,-4.4 2.47,-7.31 10.06,-10.28 l 3.24,-1.26 v -4.12 c 0,-3.63 -0.66,-5.11 -2.69,-5.11 -1.65,0 -2.58,0.88 -4.18,4.89 l -1.81,4.51 h -2.48 V 13.4 c 3.25,-0.99 6.49,-1.65 9.29,-1.65 6.21,0 9.57,2.97 9.57,8.36 z m -7.7,-4.62 v -9.51 l -1.04,0.44 c -3.24,1.32 -4.45,4.29 -4.45,8.63 0,3.25 0.77,5.12 2.58,5.12 1.81,0 2.91,-1.76 2.91,-4.68 z m 35.96,6.27 v 0.82 h -9.9 v -0.82 l 1.1,-1.65 v -19.8 c 0,-2.37 -0.71,-3.79 -2.42,-3.79 -2.04,0 -3.52,1.71 -3.52,5.06 v 18.53 l 1.1,1.65 v 0.82 h -9.9 v -0.82 l 1.1,-1.65 V 15.48 l -1.1,-1.32 v -0.82 l 7.92,-0.94 h 0.66 l 0.22,3.08 c 0.93,-2.42 3.19,-3.74 6.43,-3.74 4.51,0 7.2,2.86 7.2,8.41 v 17.71 z" /></g></svg>