<svg role="img" viewBox="0 0 24 24" xmlns="http://www.w3.org/2000/svg"><title>GoldenLine icon</title><path d="M16.377 21.658c0 1.225-.989 2.215-2.212 2.215-1.224 0-2.217-.99-2.217-2.215 0-1.223.993-2.215 2.217-2.215 1.223 0 2.213.993 2.212 2.215zm-4.715-.172L6.47 22.7s-.287.08-.392-.215c-.06-.181.091-.398.091-.398l5.213-8.514s.267-.402.77-.549c.418-.121.872.16.872.16l8.351 5.253s.362.147.348.438c-.015.293-.333.343-.333.343l-5.04 1.178c-.426-.744-1.23-1.244-2.156-1.244-1.32 0-2.413 1.032-2.504 2.335h-.028zM3.898 7.297l1.513-5.263s.072-.303.381-.242c.186.031.303.273.303.273l4.889 8.698s.223.425.106.941c-.099.425-.567.683-.567.683L1.864 17.11s-.307.243-.547.084c-.242-.163-.136-.463-.136-.463l1.472-5.116c1.177-.206 2.071-1.233 2.071-2.47 0-.738-.319-1.396-.826-1.859v.011zm.532 1.858c0 1.225-.989 2.218-2.214 2.218C.995 11.373 0 10.38 0 9.155c0-1.221.995-2.213 2.216-2.213 1.225 0 2.217.992 2.217 2.213H4.43zm15.666-1.734l3.81 4.18s.211.212.003.445c-.124.141-.394.111-.394.111l-9.974-.395s-.478-.035-.853-.402c-.31-.303-.282-.838-.282-.838l.51-9.852s-.05-.389.212-.511c.27-.122.467.129.467.129l3.318 3.628c-.188.35-.293.744-.293 1.17 0 1.381 1.123 2.504 2.509 2.504.341 0 .667-.075.964-.197l.003.028zm1.25-2.317c0 1.229-.986 2.217-2.212 2.217-1.224 0-2.217-.987-2.217-2.217 0-1.215.993-2.201 2.217-2.201 1.223 0 2.213 1.002 2.213 2.217l-.001-.016z"/></svg>