<svg viewBox="0 0 16 16" xmlns="http://www.w3.org/2000/svg" fill-rule="evenodd" clip-rule="evenodd" stroke-linejoin="round" stroke-miterlimit="1.414"><path d="M10.98 14.265c0 .807-.652 1.46-1.457 1.46-.806 0-1.46-.653-1.46-1.46 0-.805.654-1.458 1.46-1.458.805 0 1.458.653 1.458 1.458zm-3.106-.113l-3.42.8s-.19.053-.258-.142c-.04-.118.06-.262.06-.262L7.69 8.94s.175-.265.507-.362c.275-.08.574.106.574.106l5.5 3.46s.24.097.23.288c-.01.193-.22.226-.22.226l-3.32.776c-.28-.49-.81-.82-1.42-.82-.87 0-1.59.68-1.65 1.538zM2.76 4.805l.997-3.466s.047-.2.25-.16c.123.02.2.18.2.18l3.22 5.73s.146.28.07.62c-.065.28-.374.45-.374.45L1.42 11.27s-.202.16-.36.055c-.16-.107-.09-.305-.09-.305l.97-3.37c.775-.136 1.364-.813 1.364-1.627 0-.486-.21-.92-.544-1.225zm.35 1.225c0 .806-.652 1.46-1.458 1.46-.805 0-1.46-.654-1.46-1.46 0-.805.655-1.458 1.46-1.458.806 0 1.46.653 1.46 1.458zm10.32-1.143l2.51 2.753s.138.14.002.293c-.083.093-.26.074-.26.074l-6.57-.26s-.315-.023-.562-.265c-.204-.2-.186-.552-.186-.552L8.7.44s-.033-.256.14-.336c.177-.08.307.085.307.085l2.186 2.39c-.123.23-.193.49-.193.77 0 .91.74 1.65 1.653 1.65.225 0 .44-.05.635-.13zm.823-1.526c0 .81-.65 1.46-1.457 1.46-.806 0-1.46-.65-1.46-1.46 0-.8.654-1.45 1.46-1.45.806 0 1.458.66 1.458 1.46z"/></svg>