<svg role="img" viewBox="0 0 24 24" xmlns="http://www.w3.org/2000/svg"><title>Goodreads</title><path d="M17.444.014a1.596 1.596 0 0 0-.832.43c-.147.149-.288.397-.903 1.563-.859 1.63-.836 1.59-.968 1.655-.195.102-.416.053-.948-.209a5.587 5.587 0 0 0-1.424-.518c-2.733-.608-5.673.813-6.902 3.338-.79 1.618-.785 3.592.016 5.173.2.394.4.685.813 1.188.557.676.638.954.409 1.404a11.43 11.43 0 0 1-.666.973c-.742.992-1.003 1.465-1.117 2.006-.229 1.097.277 1.871 1.42 2.16.274.07.363.078 1.19.074a22.465 22.465 0 0 0 1.337-.04c1.381-.115 2.81-.119 3.717-.01.328.038.72.1.876.137.562.134.982.416 1.153.773a1.324 1.324 0 0 1 0 1.097c-.106.221-.412.481-.705.604-.547.228-1.049.278-2.53.253-1.864-.03-3.345-.114-4.196-.23-.823-.112-1.262-.094-1.61.06a1.36 1.36 0 0 0-.594.58c-.08.154-.092.226-.092.448 0 .553.3.866.974 1.024.22.053.378.06 1.356.047 1.443-.017 4.284-.017 5.683 0 1.157.016 1.364 0 1.896-.133 1.42-.356 2.316-1.367 2.499-2.818.164-1.295-.563-2.531-1.878-3.189-1.106-.554-2.346-.648-6.896-.515-.82.027-.866.023-1.01-.04-.268-.119-.29-.377-.07-.726.162-.255 1.157-1.576 1.255-1.672a.896.896 0 0 1 .503-.189c.05 0 .175.03.284.067 1.226.426 2.64.476 3.853.135 2.015-.57 3.6-2.22 4.14-4.315.152-.588.194-1.009.172-1.67-.044-1.268-.46-2.388-1.266-3.422-.303-.39-.31-.403-.31-.617a.467.467 0 0 1 .076-.291c.04-.063.57-.51 1.178-.992.609-.483 1.208-.974 1.326-1.093.638-.627.638-1.473.007-2.088-.358-.344-.74-.473-1.216-.41Zm-4.695 4.483c1.533.4 2.467 1.664 2.467 3.342.004.973-.205 1.798-.713 2.834-1.137 2.323-2.858 3.338-4.734 2.796-1.132-.33-2.029-1.17-2.35-2.21-.224-.72-.217-1.504.013-2.414.509-1.987 1.983-3.756 3.562-4.278a3.341 3.341 0 0 1 1.755-.07z"/></svg>
