<svg role="img" viewBox="0 0 24 24" xmlns="http://www.w3.org/2000/svg"><title>Google Play Games</title><path d="M1.281 7.027V2.682C1.281.62 3.516-.67 5.301.365l16.083 9.317c1.781 1.032 1.781 3.603 0 4.635l-7.194 4.168-1.396-7.976a4.209 4.209 0 0 0-4.146-3.483H1.281Zm0 9.948v4.343c0 2.063 2.235 3.352 4.02 2.317l4.942-2.863-3.798-3.797H1.28ZM7.683 9.62a1.247 1.247 0 1 1-2.495 0 1.247 1.247 0 0 1 2.495 0zm0 4.76a1.247 1.247 0 1 1-2.495 0 1.247 1.247 0 0 1 2.495 0zm-3.628-1.133a1.247 1.247 0 1 0 0-2.493 1.247 1.247 0 0 0 0 2.493zM10.085 12a1.247 1.247 0 1 1-2.493 0 1.247 1.247 0 0 1 2.494 0z"/></svg>