<svg role="img" viewBox="0 0 24 24" xmlns="http://www.w3.org/2000/svg"><title>Google Chat</title><path d="M6.049 0C4.697.001 3.352.005 2.016.012 1.383.015.902.269.57.772a1.807 1.807 0 0 0-.265.751v16.405c.131.73.5 1.201 1.11 1.414.216.076.571.116 1.064.117 1.18.002 2.374 0 3.576-.008-.001 1.17-.002 2.337.002 3.5 0 .287.03.484.088.592.136.255.35.405.638.447.31.046.556-.075.772-.293 1.409-1.416 2.812-2.82 4.21-4.213a.085.085 0 0 1 .061-.025c.427-.007.849-.01 1.264-.01l8.492.014c.432 0 .759-.037.98-.113.622-.213 1-.684 1.133-1.413V5.762l-.035-.026L17.986.043l-.029-.02a.118.121 63.3 0 0-.068-.021L6.049 0zm.002 5.754h11.896l.002 7.879a.062.062 0 0 1-.062.062l-8.897-.004a.135.133 22.3 0 0-.095.04l-2.842 2.841v-2.87L6.05 5.753z"/></svg>