<svg role="img" viewBox="0 0 24 24" xmlns="http://www.w3.org/2000/svg"><title>Google Developer Groups</title><path d="m 22.11062,13.938407 c 0.690042,0 1.320081,-0.36 1.6301,-0.94 0.530032,-0.9 0.220013,-2.11 -0.680042,-2.64 L 16.320265,6.4584074 c -0.900055,-0.52 -2.100129,-0.2 -2.630161,0.7 -0.530033,0.89 -0.220014,2.1 0.680041,2.62 l 6.740414,3.8999996 c 0.320019,0.16 0.690042,0.26 1.000061,0.26 z m -4.190257,-1.79 -3.500215,2 a 1.940119,1.94 0 0 0 -0.680041,2.64 1.8301122,1.83 0 0 0 2.580158,0.74 l 5.890361,-3.4 -0.300018,0.01 c -0.310019,0 -0.680042,-0.1 -1.000062,-0.26 l -3.000184,-1.73 z m -9.2405665,5.64 c 0.6900423,0 1.320081,-0.37 1.6300995,-0.95 0.530033,-0.9 0.220014,-2.1 -0.6800412,-2.63 l -6.7404134,-3.9 c -0.9000552,-0.5299996 -2.1001287,-0.21 -2.6301612,0.69 -0.5300325,0.9 -0.22001349,2.1 0.6800417,2.63 l 6.7404133,3.9 c 0.3700227,0.2 0.6900423,0.26 1.0000613,0.26 z M 8.6597953,6.2084074 a 2.0001226,2 0 0 0 -0.9300571,0.26 l -5.9003618,3.4 c 0.4200258,-0.06 0.8700534,0.01 1.2600773,0.2399996 l 3.0201852,1.75 3.5702189,-2.0799996 c 0.9000552,-0.52 1.2100742,-1.68 0.6900422,-2.63 a 1.9201177,1.92 0 0 0 -1.7101047,-0.94 z"/></svg>
