<svg role="img" viewBox="0 0 24 24" aria-labelledby="simpleicons-googlepay-icon" xmlns="http://www.w3.org/2000/svg"><title id="simpleicons-googlepay-icon">Google Pay icon</title><path d="M12 24C5.373 24 0 18.627 0 12S5.373 0 12 0s12 5.373 12 12-5.373 12-12 12zm7.75-12.817h-.623l-.884 2.202h-.012l-.908-2.202H16.7l1.257 2.87-.709 1.546h.59l1.912-4.416zm-8.256 1.3h.945c.39 0 .718-.127.983-.381.268-.242.418-.589.41-.95a1.25 1.25 0 0 0-.41-.946 1.369 1.369 0 0 0-.983-.388h-1.518v4.48h.573v-1.814zm3.745-1.4c-.544 0-.954.2-1.231.6l.504.32a.875.875 0 0 1 .759-.407.808.808 0 0 1 .552.21c.151.125.238.312.237.509v.131c-.22-.125-.5-.187-.84-.187-.398 0-.717.094-.955.281a.912.912 0 0 0-.358.757.96.96 0 0 0 .34.75c.226.201.507.301.842.301.394 0 .709-.175.946-.525h.025v.425h.547v-1.89c0-.395-.122-.707-.367-.934-.244-.227-.578-.341-1.001-.341zM6.809 9.41c-.967 0-1.852.548-2.286 1.418a2.586 2.586 0 0 0 0 2.31 2.558 2.558 0 0 0 2.287 1.419c.69 0 1.272-.228 1.696-.622.483-.448.762-1.11.762-1.893 0-.175-.015-.35-.044-.523H6.81v.99h1.382c-.057.32-.242.603-.511.783-.23.157-.525.246-.871.246-.668 0-1.235-.452-1.437-1.062a1.55 1.55 0 0 1 0-.985c.202-.61.769-1.063 1.437-1.063.365-.006.717.133.982.386l.73-.734a2.452 2.452 0 0 0-1.712-.67zm7.69 3.899c0-.167.077-.306.234-.42a.964.964 0 0 1 .581-.17c.32 0 .568.072.747.215a.843.843 0 0 1-.284.631.91.91 0 0 1-.644.27.696.696 0 0 1-.445-.151.46.46 0 0 1-.19-.375zm-3.006-2.94v-.001h.96c.213-.006.42.08.566.238a.766.766 0 0 1 0 1.095.754.754 0 0 1-.567.231h-.96V10.37z" fill="#000" fill-rule="evenodd"/></svg>
