<svg role="img" viewBox="0 0 24 24" xmlns="http://www.w3.org/2000/svg"><title>Google Developer Groups</title><path d="m 22.11,13.94 c 0.69,0 1.32,-0.36 1.63,-0.94 0.53,-0.9 0.22,-2.11 -0.68,-2.64 l -6.74,-3.9 c -0.9,-0.52 -2.1,-0.2 -2.63,0.7 -0.53,0.89 -0.22,2.1 0.68,2.62 l 6.74,3.9 c 0.32,0.16 0.69,0.26 1,0.26 z m -4.19,-1.79 -3.5,2 a 1.94,1.94 0 0 0 -0.68,2.64 1.83,1.83 0 0 0 2.58,0.74 l 5.89,-3.4 -0.3,0.01 c -0.31,0 -0.68,-0.1 -1,-0.26 l -3,-1.73 z m -9.24,5.64 c 0.69,0 1.32,-0.37 1.63,-0.95 0.53,-0.9 0.22,-2.1 -0.68,-2.63 L 2.89,10.31 C 1.99,9.78 0.79,10.1 0.26,11 c -0.53,0.9 -0.22,2.1 0.68,2.63 l 6.74,3.9 c 0.37,0.2 0.69,0.26 1,0.26 z M 8.66,6.21 A 2,2 0 0 0 7.73,6.47 l -5.9,3.4 C 2.25,9.81 2.7,9.88 3.09,10.11 L 6.11,11.86 9.68,9.78 C 10.58,9.26 10.89,8.1 10.37,7.15 A 1.92,1.92 0 0 0 8.66,6.21 Z" /></svg>
