<svg role="img" viewBox="0 0 24 24" xmlns="http://www.w3.org/2000/svg"><title>Google Ads icon</title><path d="M12.001 1.046h.007a4.007 4.007 0 013.667 2.398l7.77 13.469a4.008 4.008 0 11-6.979 3.935l-4.467-7.769-4.363 7.587a4.008 4.008 0 01-5.551 1.792 3.847 3.847 0 01-.809-.578 4.08 4.08 0 01-1.234-3.53c.076-.505.25-.994.511-1.437l7.77-13.469a3.93 3.93 0 01.634-.993 3.97 3.97 0 011.045-.868 3.984 3.984 0 011.946-.537h.053zm-3.913 4.85l-5.337 9.25a4.012 4.012 0 015.183 2.959c1.161-2.013 2.325-4.023 3.484-6.036L8.535 7.055a3.989 3.989 0 01-.447-1.159z"/></svg>