<svg role="img" viewBox="0 0 24 24" xmlns="http://www.w3.org/2000/svg"><title>Google Play Music icon</title><path d="M2.508 0c-.324.007-.603.12-.815.324-.3.287-.463.752-.463 1.352v20.638c0 .6.177 1.066.463 1.352.437.423 1.12.464 1.897.014l5.717-3.25a8.731 8.731 0 01-6.453-8.428 8.731 8.731 0 016.468-8.434L3.59.311C3.2.092 2.832-.007 2.508 0zm11.187 3.531a8.731 8.731 0 01.102.026c-.034-.01-.068-.017-.102-.026zm-2.111.115a8.356 8.356 0 00-8.355 8.356 8.356 8.356 0 006.564 8.162l9.717-5.52a8.356 8.356 0 00.43-2.642 8.356 8.356 0 00-8.356-8.356zm2.809.09a8.731 8.731 0 01.068.024l-.068-.024zm-2.809 2.809a5.457 5.457 0 015.457 5.457 5.457 5.457 0 01-5.457 5.457 5.457 5.457 0 01-5.457-5.457 5.457 5.457 0 015.457-5.457zm0 2.592v3.355a1.266 1.266 0 00-1.91 1.092c0 .71.574 1.27 1.27 1.27.709 0 1.322-.574 1.322-1.27v-3.082h1.228V9.137h-1.91zm8.4.488a8.731 8.731 0 01.33 2.377 8.731 8.731 0 01-.324 2.357l1.797-1.021c1.31-.737 1.31-1.937 0-2.688l-1.803-1.025zm.006 4.734a8.731 8.731 0 01-.006.018l.002-.002.004-.016z"/></svg>