<svg role="img" viewBox="0 0 24 24" xmlns="http://www.w3.org/2000/svg"><title>Google Password Manager</title><path d="M11.6572 13.9985c-.8249 2.329-3.0466 4.0019-5.656 4.0019C2.691 18.0004 0 15.3098 0 12s2.6934-6.0004 6.0012-6.0004c2.6106 0 4.8335 1.675 5.6568 4.0059H7.857c-.4865-.4545-1.1386-.7329-1.8558-.7329-1.5057 0-2.7282 1.2221-2.7282 2.7274 0 1.5053 1.2249 2.7274 2.7282 2.7274.7152 0 1.3657-.2768 1.8517-.7289zm.4884-3.633h4.9483v3.273h-4.9483c.2955-1.1112.2797-2.2213 0-3.273zm-.3728 3.273h-3.591v-.0072c.7324-.985.7174-2.3006 0-3.2586v-.0072h3.591c.2967 1.0507.3126 2.1663 0 3.273zm12.2272.36v2.9126h-2.1813V15.82c0-.6033-.4885-1.0925-1.0917-1.0925-.6029 0-1.0913.4892-1.0913 1.0925v1.0912h-2.1813v-2.9126Zm-6.5456-3.633H24v3.273h-6.5456z"/></svg>