<svg role="img" viewBox="0 0 24 24" xmlns="http://www.w3.org/2000/svg"><title>Google Pub/Sub</title><path d="M18.3 7.452a2.064 2.064 0 1 1 4.128 0 2.064 2.064 0 0 1-4.128 0zM3.636 9.516a2.064 2.064 0 1 0 0-4.128 2.064 2.064 0 0 0 0 4.128zM12 19.872A2.064 2.064 0 1 0 12 24a2.064 2.064 0 0 0 0-4.128zm8.364-5.4c-.58 0-1.112.194-1.547.513l-3.548-2.04a3.325 3.325 0 0 0-2.32-3.852v-4.02A2.623 2.623 0 0 0 11.999 0a2.624 2.624 0 0 0-.96 5.069v4.028a3.325 3.325 0 0 0-2.376 3.179c0 .268.04.526.1.776l-3.485 2.012a2.603 2.603 0 0 0-1.643-.592A2.628 2.628 0 1 0 6.264 17.1c0-.13-.02-.254-.038-.38l3.496-2.018a3.316 3.316 0 0 0 4.639-.07l3.425 1.969a2.628 2.628 0 1 0 2.578-2.129z"/></svg>