<svg role="img" xmlns="http://www.w3.org/2000/svg" viewBox="0 0 24 24"><title>Google Street View icon</title><path d="M1.723 2.23c-.946 0-1.717.774-1.717 1.72V22.28L12.937 9.348A6.394 6.394 0 0111.8 5.725c0-1.287.382-2.485 1.033-3.495zm3.13 1.774c.851 0 1.563.311 2.11.824l-.902.902a1.721 1.721 0 00-1.207-.468c-1.029 0-1.864.87-1.864 1.896 0 1.026.835 1.895 1.864 1.895.925 0 1.562-.528 1.697-1.252H4.854V6.582h2.968c.037.206.057.421.057.645 0 1.798-1.207 3.078-3.025 3.078a3.148 3.148 0 01-3.15-3.15 3.148 3.148 0 013.15-3.151zm16.92 7.142a6.446 6.446 0 01-1.7.791c.58.095 1.143.234 1.7.403zm-6.945.036l-1.951 1.95a14.684 14.684 0 012.502-.913h.002c.409-.11.802-.19 1.187-.256a6.444 6.444 0 01-1.74-.781zm-4.701 4.7L2.01 24h8.072v-7.7c0-.143.019-.281.045-.417zM18.272 0a5.723 5.723 0 110 11.446 5.723 5.723 0 010-11.446zm.125 12.546c-.87.001-1.795.122-2.822.397l-.194.054c-1.57.445-4.548 1.579-4.548 3.304V24h9.262c.059 0 .115-.009.17-.013.06-.006.119-.02.175-.03l.088-.024.032-.01c.541-.167.97-.596 1.138-1.137a1.85 1.85 0 00.074-.424l.002-.08v-9.164c-1.1-.353-2.186-.574-3.377-.572Z"/></svg>
