<svg role="img" viewBox="0 0 24 24" xmlns="http://www.w3.org/2000/svg"><title>Google Bigtable</title><path d="M10.498.272s.192-.384.456-.24c.26.142 4.071 2.396 6.193 3.657-.012-.01-.013-.025-.028-.034l.122.09.01.006.006.005.966.714a.88.88 0 0 1 .42.78l-.06 7.568a.42.42 0 0 1-.192.396l-1.2.816v-8.6c-.042-.034-.083-.07-.132-.097l-5.061-3.01a3.43 3.43 0 0 1-1.5-2.052zm-2.89 12.175 4.39 2.614v.048l4.39-2.614v-1.08l-4.15 2.423a.78.78 0 0 1-.24.072.431.431 0 0 1-.24-.072l-4.15-2.471v1.08zm0 1.943c0 .169.086.327.227.42l3.935 2.398c.14.084.315.084.455 0 .009-.014.01-.031.018-.046.002-.001.005 0 .006-.002l3.935-2.399a.468.468 0 0 0 .227-.42v-.791l-4.174 2.519a.432.432 0 0 1-.48 0l-4.15-2.47v.79zm8.78-4.138v-.516a.467.467 0 0 0-.228-.408l-3.935-2.399a.444.444 0 0 0-.455 0L7.835 9.328a.492.492 0 0 0-.227.408v.516l4.39 2.614 4.39-2.614zm-4.474 11.334-4.978-2.962c-.04-.025-.06-.07-.096-.1V9.892l-1.2.707a.491.491 0 0 0-.227.396v7.869a.9.9 0 0 0 .407.72l.688.428c.024.023.039.058.068.075l6.537 3.874a.216.216 0 0 0 .336-.216 3.262 3.262 0 0 0-1.535-2.159zM8.903 4.146a.9.9 0 0 1 .887 0l.049.06-.02-.056 6.58 3.907V6.64a.444.444 0 0 0-.24-.372L9.78 2.491l.024-.012a.851.851 0 0 0-.876 0l-1.415.828c.082-.047.175-.051.265-.07-2.088 1.24-6.245 3.707-6.407 3.788a.276.276 0 0 0 0 .48 3.154 3.154 0 0 0 2.495-.312l5.038-3.047zM22.625 16.49a3.155 3.155 0 0 0-2.52.3l-5.037 2.986a.876.876 0 0 1-.887 0l-.018-.006-6.555-3.868v1.391c.02.152.092.291.203.396l6.358 3.766a.84.84 0 0 0 .887 0l1.415-.84c-.025.016-.055.011-.081.024l6.235-3.694a.252.252 0 0 0 0-.455zM10.954 6.125l-1.2-.707a.408.408 0 0 0-.431 0l-5.65 3.334c-.214.115-.336.323-.397.551 0 .005-.01.007-.01.013v.027c-.013.06-.049.113-.048.177v1.667c0-.066.034-.122.048-.184v7.38a.216.216 0 0 0 .36.157 3.299 3.299 0 0 0 1.043-2.4v-5.996a.89.89 0 0 1 .107-.4l6.178-3.619zm2.111 11.731 1.2.684a.42.42 0 0 0 .443 0l5.686-3.419s.42-.455.443-.731v-1.728c0 .088-.04.164-.063.246-.006-2.447-.014-7.053.003-7.334.024-.384-.371-.252-.371-.252a3.37 3.37 0 0 0-1.008 2.399v5.997c-.047.236-.196.423-.384.565l-5.949 3.573z"/></svg>