<svg role="img" viewBox="0 0 24 24" xmlns="http://www.w3.org/2000/svg"><title>Google Play Music icon</title><path d="M2.51 0a1.186 1.186 0 00-.815.324c-.3.286-.464.75-.464 1.35v20.641c0 .6.178 1.065.464 1.35.436.423 1.12.465 1.899.015l5.72-3.25a8.73 8.73 0 01.014-16.863L3.593.31C3.204.094 2.834-.005 2.51 0zm9.077 3.647c-4.613 0-8.354 3.742-8.359 8.36a8.357 8.357 0 006.563 8.161l9.719-5.522a8.31 8.31 0 00.431-2.644c.005-4.613-3.736-8.355-8.354-8.355zm0 2.898a5.456 5.456 0 015.457 5.457 5.456 5.456 0 01-5.457 5.457 5.456 5.456 0 01-5.457-5.457 5.46 5.46 0 015.457-5.457zm0 2.592v3.357a1.307 1.307 0 00-.642-.178 1.267 1.267 0 100 2.536c.707 0 1.322-.572 1.322-1.27v-3.08h1.228V9.136zm8.4.488a8.724 8.724 0 01.005 4.735l1.796-1.022c1.308-.736 1.308-1.936 0-2.687zm.01 4.735c0 .005-.005.014-.005.018 0-.005 0-.014.005-.018z"/></svg>

