<svg role="img" viewBox="0 0 24 24" xmlns="http://www.w3.org/2000/svg"><title>Google Cloud Spanner</title><path d="m19.368 18.096-.096 1.668 3.24 1.836-2.616 1.44-3.888-2.244.079-2.737L12 15.696l-4.146 2.397.078 2.715-3.828 2.268L1.488 21.6l3.24-1.872-.096-1.632-1.398-.908L0 19.044v-2.988l3.876-2.244.04.024.02-.012 2.365 1.454 4.091-2.366V8.189L7.944 6.864V2.388L10.38.924v3.66l1.62.744 1.62-.744V.924l2.436 1.464v4.476l-2.448 1.325v4.723l4.065 2.35 2.391-1.462L24 16.056v2.988l-3.234-1.856-1.398.908z"/></svg>