<svg role="img" xmlns="http://www.w3.org/2000/svg" viewBox="0 0 24 24"><title>Google Ads icon</title><path d="M23.4641 16.9287L15.4632 3.072C14.3586 1.1587 11.9121.5028 9.9988 1.6074S7.4295 5.1585 8.534 7.0718l8.001 13.8567c1.1046 1.9133 3.5511 2.568 5.4644 1.4647 1.9133-1.1046 2.5679-3.5512 1.4646-5.4645zM8.2925 19.4941c.0246-.1867.0571-.3712.0571-.5644C8.3496 16.5312 6.3984 14.58 4 14.58c-.9953 0-1.9025.3493-2.6364.9139l6.34-10.9811c-.1204.9158.031 1.8738.5274 2.7342l3.5664 6.1765-3.5049 6.0705zm-4.2927-4.5646c2.209 0 3.9998 1.7908 3.9998 3.9998s-1.7908 3.9998-3.9998 3.9998S0 21.1383 0 18.9293s1.7908-3.9998 3.9998-3.9998z"/></svg>