<svg role="img" viewBox="0 0 24 24" xmlns="http://www.w3.org/2000/svg"><title>Google Street View icon</title><path d="M18.286 11.929a6.15 6.15 0 0 0 3.429-1.054v1.727a11.545 11.545 0 0 0-3.429-.53c-2.474 0-4.938.821-6.953 2.31l3.503-3.503a6.178 6.178 0 0 0 3.45 1.05zm-6.732 2.907c-.425.34-.697.863-.697 1.45V24H20a1.72 1.72 0 0 0 1.715-1.714v-9.165a11.07 11.07 0 0 0-3.429-.55c-2.51 0-4.87.865-6.732 2.265zm1.567-5.671L.001 22.285V4c0-.942.77-1.714 1.713-1.714h11.411a6.146 6.146 0 0 0-.004 6.879zm-5.246-1.95a2.7 2.7 0 0 0-.077-.643h-2.94v1.141h1.69c.001.303-.228.755-.624 1.025-.259.176-.607.298-1.067.298-.818 0-1.512-.552-1.76-1.295a1.893 1.893 0 0 1 0-1.196c.248-.743.942-1.295 1.76-1.295.6 0 .987.268 1.19.458l.913-.889A3.018 3.018 0 0 0 4.857 4a3.143 3.143 0 1 0 0 6.286c.848 0 1.563-.279 2.083-.759.594-.547.935-1.356.935-2.313zM10.357 24v-7.714c0-.512.17-.996.472-1.4L1.715 24h8.642zm7.929-24a5.714 5.714 0 1 0 0 11.428 5.714 5.714 0 0 0 0-11.428z"/></svg>