<svg role="img" viewBox="0 0 24 24" xmlns="http://www.w3.org/2000/svg"><title>Google AdMob</title><path d="M.88.001H.876A.921.921 0 0 0 0 .914v.004c0 .574.504.916.879.916h.013a.237.237 0 0 0 .24-.234c0-.13-.11-.224-.242-.224H.887A.462.462 0 0 1 .464.887V.883A.462.462 0 0 1 .892.46c.132 0 .24-.095.24-.224A.237.237 0 0 0 .891 0H.88zm.156.002a.27.27 0 0 1 .134.232.26.26 0 0 1-.148.234c.22.046.348.24.36.413v.59a.268.268 0 0 1 .461.002V.88a.925.925 0 0 0-.807-.878zM1.61 1.38a.23.23 0 1 0 .003 0H1.61z"/></svg>