<svg role="img" viewBox="0 0 24 24" xmlns="http://www.w3.org/2000/svg"><title>Google Play Music icon</title><path d="M11.7 9.3l-.1 3.2c-.2-.1-.4-.2-.6-.2-.7 0-1.2.6-1.2 1.2 0 .7.6 1.2 1.2 1.2.7 0 1.3-.6 1.3-1.2v-3h1.2V9.3h-1.8zm0 0l-.1 3.2c-.2-.1-.4-.2-.6-.2-.7 0-1.2.6-1.2 1.2 0 .7.6 1.2 1.2 1.2.7 0 1.3-.6 1.3-1.2v-3h1.2V9.3h-1.8zm0 0l-.1 3.2c-.2-.1-.4-.2-.6-.2-.7 0-1.2.6-1.2 1.2 0 .7.6 1.2 1.2 1.2.7 0 1.3-.6 1.3-1.2v-3h1.2V9.3h-1.8zm9.7 1.4l-1.7-1c.2.7.3 1.5.3 2.3s-.1 1.5-.3 2.3l1.7-1c1.2-.7 1.2-1.9 0-2.6zM3.2 12c0-3.9 2.6-7.1 6.2-8.1L3.9.8C3.2.4 2.5.4 2.1.8c-.3.3-.4.7-.4 1.3v19.8c0 .6.2 1 .4 1.3.4.4 1.1.4 1.8 0l5.5-3.1c-3.5-1-6.2-4.2-6.2-8.1zm16.1-2.2c-.9-3.3-4-5.8-7.7-5.8-.7 0-1.4.1-2.1.3-3.4.9-5.9 4-5.9 7.7s2.5 6.8 5.9 7.7l.4.1 9.2-5.2.1-.4c.2-.7.3-1.4.3-2.1 0-.9-.1-1.6-.2-2.3zM6.5 11.9c0-2.9 2.3-5.2 5.2-5.2s5.2 2.3 5.2 5.2c0 2.9-2.4 5.2-5.2 5.2-2.9 0-5.2-2.3-5.2-5.2zm13.2 2.4"/></svg>