<svg role="img" viewBox="0 0 24 24" xmlns="http://www.w3.org/2000/svg"><title>Google Display &amp; Video 360</title><path d="M21.9449 14.0354c-.1655.1652-.346.3186-.5547.4453a2.9677 2.9677 0 0 1-.113.0653L7.6199 22.4102l.0016-6.885L18.2936 9.38c.1571-.0955.3208-.1687.4865-.2322a3.0075 3.0075 0 0 1 .1316-.0462 2.957 2.957 0 0 1 .4475-.1118c.0212-.0034.0419-.0097.063-.0128a2.9713 2.9713 0 0 1 .4168-.0307c.0205 0 .04.007.0604.0076.9867.02 1.9427.5219 2.4928 1.428.0113.0186.0167.039.0275.0577.0917.1584.1728.3204.2325.487l.0001.0004.0004.0011c.0594.1661.0978.3353.1262.5055.009.0538.0143.1071.0204.161a2.932 2.932 0 0 1 .0174.3604c-.0005.059.0012.1173-.0028.176a2.9796 2.9796 0 0 1-.0665.4575c-.0177.0785-.046.1535-.07.2303-.0242.0764-.0486.1523-.079.2266-.0363.09-.077.1769-.122.2632-.027.0513-.0576.1005-.0876.1503-.124.2071-.269.4017-.4439.5763zM2.6789 5.5836l.0293.017 4.4148 2.526 6.1922 3.543 4.7188-2.717c.5178-.3144 1.107-.4828 1.7086-.4997L5.7226.4191C4.7705-.1562 3.629-.1173 2.729.4017c-.0148.0085-.0304.0156-.0449.0243-.0047.0029-.0087.007-.0134.0099a2.9103 2.9103 0 0 0-.3996.2933c-.0336.0282-.0734.0468-.1056.0774-.0028.0027-.005.006-.0078.0086C2.1424.83 2.132.851 2.117.866c-.164.1645-.3162.3438-.4417.5514a3.021 3.021 0 0 0-.0609.1058c-.8273 1.4151-.3507 3.233 1.0644 4.0604zm4.1358 16.7446a2.9371 2.9371 0 0 0 .1926-.5149c.0087-.0313.021-.0606.0287-.0923.053-.2221.0885-.4508.0885-.6892 0-.015-.0042-.0287-.0044-.0436v-.0001l-.0002-.0014a2.9554 2.9554 0 0 0-.8809-2.067c-.0092-.009-.0206-.0157-.03-.0246-.1258-.121-.2596-.2337-.4053-.3312-.0412-.0276-.0886-.0455-.1312-.0711-.1194-.0714-.2384-.1437-.368-.198-.094-.0396-.196-.0617-.2947-.0916-.0865-.026-.1689-.0613-.2585-.0795a2.9747 2.9747 0 0 0-.595-.06c-.1921 0-.3787.0216-.5605.0565-.0623.012-.1206.0327-.1815.0484-.116.0302-.2304.0623-.3403.1057-.0711.028-.138.0618-.2062.095a2.929 2.929 0 0 0-.267.1449 2.946 2.946 0 0 0-.2063.1409 2.944 2.944 0 0 0-.209.1724c-.0676.0605-.1337.121-.1954.1873-.0544.0587-.1029.1218-.1524.1848-.0619.0781-.1244.1544-.1784.2386-.033.0518-.058.1082-.0879.162-.1342.2418-.2423.499-.305.776l-.0003.0008c-.0477.2113-.0779.4291-.0779.6548C1.1882 22.6711 2.5172 24 4.1563 24c.9226 0 1.7365-.4297 2.2809-1.09a2.9505 2.9505 0 0 0 .3381-.5092c.013-.0244.027-.0477.0394-.0726zm-2.6584-4.7647c1.2613 0 2.3565.6837 2.9635 1.6932l.003-10.5541-4.6964-2.6873c-.5297-.3097-.9459-.7521-1.2434-1.2703v14.5297c.6047-1.0191 1.7047-1.7112 2.9733-1.7112z"/></svg>