<svg role="img" viewBox="0 0 24 24" aria-labelledby="simpleicons-googlepay-icon" xmlns="http://www.w3.org/2000/svg"><title id="simpleicons-googlepay-icon">Google Pay icon</title><path d="M19.75 11.183l-1.911 4.416h-.591l.71-1.545-1.258-2.871h.623l.908 2.202h.012l.884-2.202zM11.494 12.484v1.814h-.573v-4.48h1.518c.366-.008.72.132.983.388.266.24.416.585.41.945.008.362-.142.71-.41.95a1.364 1.364 0 0 1-.983.382h-.945zm-.001-2.115v1.564h.96a.754.754 0 0 0 .566-.231.766.766 0 0 0 0-1.095.745.745 0 0 0-.567-.238h-.96zM15.239 11.083c.423 0 .757.114 1.001.34.245.228.368.54.367.936v1.889h-.547v-.425h-.025c-.237.35-.552.525-.946.525-.335 0-.616-.1-.843-.3a.96.96 0 0 1-.339-.75c0-.318.12-.57.358-.758.238-.187.557-.28.955-.281.34 0 .62.062.84.187v-.131a.657.657 0 0 0-.237-.51.808.808 0 0 0-.552-.21.875.875 0 0 0-.76.408l-.503-.32c.277-.4.687-.6 1.23-.6zm-.74 2.227c-.002.148.07.288.189.375.127.1.284.153.445.15a.91.91 0 0 0 .644-.269c.19-.18.284-.39.284-.631-.179-.143-.427-.215-.747-.215a.964.964 0 0 0-.581.17c-.157.114-.235.253-.235.42zM6.81 9.41a2.452 2.452 0 0 1 1.712.67l-.73.735a1.386 1.386 0 0 0-.982-.386c-.668 0-1.235.453-1.437 1.063a1.55 1.55 0 0 0 0 .985c.202.61.769 1.062 1.437 1.062.346 0 .641-.09.871-.246.27-.18.454-.462.511-.782H6.81v-.991h2.414c.03.172.044.348.044.523 0 .783-.279 1.445-.762 1.893-.424.394-1.006.622-1.696.622a2.558 2.558 0 0 1-2.287-1.418 2.586 2.586 0 0 1 0-2.311A2.558 2.558 0 0 1 6.81 9.41z"/></svg>
