<svg role="img" viewBox="0 0 24 24" xmlns="http://www.w3.org/2000/svg"><title>Google Display &amp; Video 360</title><path d="M21.9449 14.0354c-.1655.1652-.346.3186-.5547.4453a2.9677 2.9677 0 0 1-.113.0653L7.206 22.6485c.2583-.485.4185-1.0298.4185-1.6167 0-.0172-.0049-.0333-.0051-.0505l.0005-1.7245.001-3.7313 6.1968-3.5683 4.4758-2.5771c.1571-.0955.3208-.1687.4865-.2322a3.0075 3.0075 0 0 1 .1316-.0462 2.957 2.957 0 0 1 .4475-.1118c.0212-.0034.0419-.0097.063-.0128a2.9713 2.9713 0 0 1 .4168-.0307c.0205 0 .04.007.0604.0076.9867.02 1.9427.5219 2.4928 1.428.0113.0186.0167.039.0275.0577.0917.1584.1728.3204.2325.487l.0001.0004.0004.0011c.0594.1661.0978.3353.1262.5055.009.0538.0143.1071.0204.161a2.932 2.932 0 0 1 .0174.3604c-.0005.059.0012.1173-.0028.176a2.9796 2.9796 0 0 1-.0665.4575c-.0177.0785-.046.1535-.07.2303-.0242.0764-.0486.1523-.079.2266-.0363.09-.077.1769-.122.2632-.027.0513-.0576.1005-.0876.1503-.124.2071-.269.4017-.4439.5763zM2.6789 5.5836l.0293.017 4.4148 2.526 6.1922 3.543 4.7188-2.717c.5178-.3144 1.107-.4828 1.7086-.4997L5.7226.4191C4.7705-.1562 3.629-.1173 2.729.4017c-.0148.0085-.0304.0156-.0449.0243-.0047.0029-.0087.007-.0134.0099a2.9103 2.9103 0 0 0-.3996.2933c-.0336.0282-.0734.0468-.1056.0774-.0028.0027-.005.006-.0078.0086C2.1424.83 2.132.851 2.117.866c-.164.1645-.3162.3438-.4417.5514a3.021 3.021 0 0 0-.0609.1058c-.8273 1.4151-.3507 3.233 1.0644 4.0604zm4.1497 16.719c.0732-.1535.1299-.3145.1761-.4811.0133-.0467.032-.0904.0429-.138.0472-.2103.0769-.427.0769-.6517 0-.8284-.3409-1.5758-.8881-2.1142-.0097-.0096-.0217-.0166-.0315-.026-.1254-.12-.2583-.232-.403-.3287-.0422-.0282-.0905-.0466-.134-.0727-.1185-.0705-.2363-.142-.3646-.1958-.0943-.0397-.1967-.062-.2959-.0919-.0858-.0258-.1676-.0608-.2564-.0789a2.9755 2.9755 0 0 0-.5947-.06 2.964 2.964 0 0 0-.5512.0541c-.012.0023-.0245.0029-.0365.0052-.0534.0107-.102.0322-.1543.0457-.111.0289-.2213.0584-.327.0995-.0206.008-.0424.013-.0628.0216-.0546.0225-.1038.0538-.1567.0795-.0881.043-.1746.0873-.2575.1385-.0244.0151-.0512.0262-.0751.042-.0493.0324-.0935.0703-.1407.1054a2.944 2.944 0 0 0-.209.1724c-.0065.0058-.0136.0107-.02.0165-.018.0165-.0387.0295-.0563.0465-.0417.0398-.0798.082-.1191.1243-.0544.0587-.1029.1218-.1524.1848-.0619.0781-.1244.1544-.1784.2386-.033.0518-.058.1082-.0879.162-.1342.2418-.2423.499-.305.776l-.0003.0008c-.037.1636-.0541.3333-.0629.5059v.0004c-.0025.0502-.015.0977-.015.1485C1.1882 22.6711 2.5172 24 4.1563 24c.9245 0 1.7398-.4314 2.2842-1.094.0102-.0122.0203-.0243.0303-.0368a2.9483 2.9483 0 0 0 .3057-.4707c.0172-.0323.036-.063.052-.0959zm-2.6723-4.739c.211 0 .415.0256.6151.0622.0327.0059.0645.013.0967.0197.0225.0048.0454.0087.0678.014.1728.0405.3415.0908.5032.1565.0642.0257.1247.0569.187.0864l.0019.0009c.1156.0555.2283.1154.3365.183.0658.0405.1285.0843.191.1287.0165.012.0344.0221.0508.0343.058.0434.112.091.167.1378l.0012.001c.1631.137.3116.2872.447.4516.022.027.0451.0527.0663.0802.0831.1078.1616.2195.232.3368l.001-3.4432.002-7.111-4.6964-2.6872c-.5297-.3097-.9459-.7521-1.2434-1.2703v14.5297c.6047-1.0191 1.7047-1.7112 2.9733-1.7112z"/></svg>