<svg role="img" viewBox="0 0 24 24" xmlns="http://www.w3.org/2000/svg"><title>Google Crowdsource icon</title><path d="M14.5909 7.4991c0-1.1292.9164-2.0455 2.0455-2.0455 1.1292 0 2.0456.9164 2.0456 2.0455s-.9164 2.0455-2.0456 2.0455c-1.129.0001-2.0455-.9163-2.0455-2.0455zM7.3634 9.5447c1.1292 0 2.0455-.9164 2.0455-2.0455s-.9163-2.0456-2.0455-2.0456-2.0455.9164-2.0455 2.0455.9164 2.0456 2.0455 2.0456zm4.6365 3.6819c1.1292 0 2.0455-.9164 2.0455-2.0455s-.9164-2.0455-2.0455-2.0455-2.0455.9164-2.0455 2.0455.9164 2.0455 2.0455 2.0455zm0-7.3639c1.1292 0 2.0455-.9164 2.0455-2.0455s-.9164-2.0455-2.0455-2.0455-2.0455.9163-2.0455 2.0454.9164 2.0456 2.0455 2.0456zm11.5846 2.1342c-.5223-.4923-1.3405-.4786-1.8451.03-.7198.7246-4.8963 4.9285-5.512 5.5489-.6765.6812-1.0761 1.5717-1.1804 2.5169.2646.4586.4351.9771.4531 1.5428v3.9963c.8989-.3171 1.7504-.7355 2.5151-1.2771 1.2382-.8755 1.9487-2.3224 1.9487-3.8416a5.4095 5.4095 0 0 1 1.1114-3.2838c.5951-.7782 2.0416-2.6665 2.6524-3.4638.4118-.5386.3505-1.3036-.1432-1.7686zM2.3409 8.106C1.8457 7.5346.9681 7.4711.4167 7.9969c-.4951.465-.5564 1.23-.1445 1.7687.6606.864 1.9919 2.604 2.651 3.4651a5.3991 5.3991 0 0 1 1.1114 3.2824c0 1.5192.7105 2.9661 1.9501 3.8416.765.541 1.6165.9588 2.5151 1.2758v-3.9078c0-.5908.1736-1.1382.454-1.6212-.1027-.949-.5036-1.8435-1.1813-2.5272L2.3409 8.106zm9.6618 6.757c-1.6583 0-3.0029 1.2805-3.0029 2.8597v4.0911c.9518.2673 1.9569.4146 3.0001.4146s2.0483-.1459 3.0001-.4146v-4.1783c-.049-1.5383-1.3704-2.7725-2.9973-2.7725z"/></svg>