<svg role="img" viewBox="0 0 24 24" xmlns="http://www.w3.org/2000/svg"><title>Google Developer Groups</title><path d="m9.6105 13.909-6.734-3.8877a1.9083 1.9083 0 0 0-.9569-.2573c-.6627 0-1.3072.344-1.6624.9592-.5295.9172-.2152 2.0899.7019 2.6193l6.7339 3.8878a1.909 1.909 0 0 0 .9569.2572c.6628 0 1.3072-.344 1.6624-.9591.5295-.9171.2153-2.0899-.7018-2.6194ZM23.0409 10.0211l-6.7338-3.888a1.9091 1.9091 0 0 0-.957-.2571c-.6627 0-1.3071.3438-1.6623.959-.5295.917-.2153 2.0898.7018 2.6194l6.7339 3.8878c.3019.1743.6317.2573.9569.2573.6628 0 1.3072-.3439 1.6624-.9592.5295-.917.2153-2.0897-.7019-2.6192ZM20.8568 13.8045 17.7139 11.99l-3.3243 1.9192c-.9171.5295-1.2313 1.7023-.7018 2.6194.3551.6151.9997.959 1.6624.959a1.908 1.908 0 0 0 .9569-.2572l5.4129-3.1251a2.4552 2.4552 0 0 1-.8632-.3008ZM3.1424 9.5596l3.1428 1.8145 3.3244-1.9193c.9171-.5295 1.2314-1.7023.7019-2.6194-.5296-.917-1.7022-1.2314-2.6194-.7018L2.2793 9.2587c.3025.0454.596.1466.863.3009Z"/></svg>