<svg role="img" viewBox="0 0 24 24" xmlns="http://www.w3.org/2000/svg"><title>Google AdSense icon</title><path d="M8.354 18.866c.152-2.5-1.928-4.622-4.418-4.614-.856 0-1.649.255-2.327.676 1.712-2.99 5.018-8.59 6.748-11.61 1.086-1.857 3.49-2.493 5.372-1.421a3.86 3.86 0 0 1 1.44 5.307c-1.793 3-5.069 8.67-6.815 11.662zm-4.418-4.114a3.936 3.936 0 1 0 0 7.872 3.936 3.936 0 0 0 0-7.872zm18.128-6.3l-.008-.005a3.894 3.894 0 0 0-5.312 1.419l-3.889 6.719a3.874 3.874 0 0 0 1.413 5.293l.01.006a3.894 3.894 0 0 0 5.313-1.42l3.888-6.718a3.875 3.875 0 0 0-1.415-5.294z"/></svg>