<svg role="img" viewBox="0 0 24 24" xmlns="http://www.w3.org/2000/svg"><title>Google AdSense icon</title><path d="M11.49 1.385a3.935 3.935 0 00-3.133 1.933 4.233 4.233 0 00-.134.254l-3.67 6.28a4.63 4.63 0 00-.227.386l-2.263 3.907a4.847 4.847 0 012.469-.36 4.765 4.765 0 011.857.617A4.981 4.981 0 018.81 18.08l2.308-3.969a3.753 3.753 0 00.225-.384l3.67-6.282a3.86 3.86 0 00-1.283-5.549 3.958 3.958 0 00-2.24-.511zm8.711 6.543a3.894 3.894 0 00-3.457 1.937l-3.889 6.719a3.874 3.874 0 001.424 5.3 3.894 3.894 0 005.313-1.42l3.888-6.718a3.875 3.875 0 00-1.423-5.299 3.894 3.894 0 00-1.856-.52zM4.217 14.76a3.987 3.987 0 00-3.496 1.7l-.065.11c-.043.067-.096.124-.136.194-1.08 1.887-.418 4.253 1.453 5.343 1.87 1.09 4.305.395 5.384-1.494.028-.047.04-.098.065-.146l.004-.006c.961-1.86.278-4.13-1.543-5.191a3.792 3.792 0 00-1.666-.51Z"/></svg>