<svg role="img" viewBox="0 0 24 24" xmlns="http://www.w3.org/2000/svg"><title>Google Campaign Manager</title><path d="M15.82563.34063a7.81768 7.81968 0 0 0-5.5471 2.29756C8.97292 3.9468 8.2507 5.59904 8.0609 7.30323a8.49197 8.49497 0 0 1 4.85484 1.44046 2.99881 2.99981 0 0 1 .81613-2.66716c1.17875-1.17875 3.06673-1.1288 4.19853.004a2.42742 2.42742 0 0 0 3.44134 0 2.42942 2.42942 0 0 0 0-3.44235 7.8117 7.81468 0 0 0-5.5461-2.29756zm5.78084 2.03584a2.77408 2.77508 0 0 1-3.91183 3.93581c1.06487 1.08385.95899 2.73909-.01 3.71005-.99095.99194-2.66216 1.06587-3.72503.003A8.1834 8.1864 0 0 0 2.3989 21.615a2.97583 2.97683 0 0 0 4.20852 0c1.16178-1.16176.86908-2.75706-.29368-3.92083-.936-.936-1.1238-2.59524-.00599-3.71605.91004-.90902 2.5373-1.16875 3.72504-.01a.16982.16982 0 0 0 .006.007c.01898.01398.03695.02497.05494.03995a8.18429 8.18529 0 0 0 11.51174-11.6376ZM11.0857 15.2288a2.99681 2.99681 0 0 1-.81514 2.70712 2.96984 2.96285 0 0 1-2.84696.7492c.13984.31766.24074.64332.2707.97696.06993.76919-.19379 1.55735-.82812 2.19068a3.30548 3.30648 0 0 1-2.20864.96697 7.83666 7.83866 0 0 0 9.07235-1.45846c1.31259-1.3116 2.03783-2.97283 2.22462-4.685a8.49497 8.49796 0 0 1-4.86981-1.44846z"/></svg>