<svg role="img" viewBox="0 0 24 24" xmlns="http://www.w3.org/2000/svg"><title>Google Campaign Manager 360</title><path d="M15.8227 17.112c.1468 0 .2911-.0143.4367-.0213-.2558 1.6538-1.0194 3.2437-2.2943 4.518-2.5115 2.5104-6.2446 3.0395-9.2804 1.6036.9243-.0457 1.7896-.414 2.4488-1.0731.7074-.7074 1.0414-1.6197.9404-2.569-.041-.385-.1624-.77-.339-1.1433.8271.1366 1.6915-.127 2.29-.7255.5826-.5826.828-1.3835.7418-2.1623 1.477 1.0196 3.223 1.573 5.056 1.573zm7.3271-12.56c-.0458.8364-.3741 1.6605-1.0113 2.2985-.6654.6654-1.55 1.0319-2.491 1.0319-.434 0-.853-.0864-1.2471-.2357.1743.8568-.086 1.7651-.7107 2.3898-.9915.9916-2.6622 1.0652-3.7246.0028l-.0007.0006.0007.0007c-3.1955-3.1954-8.374-3.194-11.5695 0-3.1941 3.1942-3.1941 8.374 0 11.5682.581.581 1.3423.8715 2.1037.8715.7613 0 1.5227-.2905 2.1037-.8715a2.7317 2.7317 0 0 0 .3685-.4542c.0277-.043.0412-.0891.0657-.133.0646-.1156.1305-.2311.1732-.351.0325-.0913.0442-.1855.0645-.2787.0164-.0753.0434-.1494.052-.2256.0126-.1121.0045-.2255.0008-.3386-.002-.0587.0064-.117.0002-.1757-.0147-.1397-.0493-.2787-.0873-.4175-.0088-.032-.0103-.0645-.0203-.0964-.0509-.1633-.1194-.3246-.2005-.4832-.0035-.0068-.0051-.014-.0087-.0207-.171-.3288-.405-.644-.692-.9331-.0017-.0016-.0028-.0035-.0044-.005v-.0001c-.0018-.0018-.0031-.0038-.0049-.0056-.9356-.9356-1.1225-2.594-.0054-3.7124.9096-.9096 2.538-1.1688 3.7273-.0067l.0008.0006a2.899 2.899 0 0 0 .4527.3694c.0444.0292.092.0468.1373.0731l-.0322.05c.51.4257 1.0626.7715 1.6383 1.0538-.0028.0002-.0055.0011-.0083.0013.0244.012.0503.0199.0748.0316.2339.112.4714.2126.7127.301.0383.0142.0757.0303.114.0439.2831.099.5695.186.8599.253.0053.0012.0108.0018.0161.003.2643.0604.531.105.799.139.109.014.2182.021.3277.0306.1695.0145.3389.0254.5089.0293.0632.0016.126.011.1893.011.068 0 .1357-.0063.2036-.0097 2.0252-.049 4.0354-.8407 5.5818-2.3864 2.5481-2.5471 3.0575-6.3544 1.5417-9.4138zm-9.934 3.8996c-.0769-.7803.191-1.5733.7548-2.137 1.046-1.046 2.7126-.9984 3.7164.0054a2.7594 2.7594 0 0 0 1.4329.7617 2.783 2.783 0 0 0 1.571-.1525 2.764 2.764 0 0 0 .9172-.6092c1.0829-1.0842 1.0829-2.8394 0-3.9224-3.1955-3.1954-8.374-3.194-11.5695 0-1.2737 1.2737-2.031 2.8642-2.289 4.5178.1438-.0069.2864-.021.4314-.021 1.824 0 3.5624.5472 5.0348 1.5572z"/></svg>