<svg role="img" viewBox="0 0 24 24" xmlns="http://www.w3.org/2000/svg"><title>Google Display &amp; Video 360</title><path d="M1.6126 1.5289a3.0767 3.0767 0 0 1 .0609-.1057C2.5152.0303 4.3268-.4166 5.7197.4252L19.736 8.4568c-.6012.0169-1.1897.1852-1.6976.4939l-4.7278 2.7223c-.0229-.0132-10.6158-6.074-10.6339-6.0847C1.2619 4.7612.7855 2.9437 1.6126 1.5289zm20.7725 8.8567c-.8549-1.4081-2.6895-1.8567-4.0976-1.0018L7.6176 15.5276l-.0014 5.4528c.0288.568-.1534 1.1461-.4135 1.6684l14.0676-8.1003a3.0113 3.0113 0 0 0 .113-.0653c1.4082-.8549 1.8567-2.6895 1.0018-4.0976zM4.1537 17.5654c1.2609 0 2.3558.6835 2.9629 1.6923l.003-10.5511-4.6622-2.667c-.5585-.3266-.9798-.7857-1.276-1.3048v14.5409c.6045-1.0186 1.7041-1.7103 2.9723-1.7103zm-2.9672 3.4672C1.1865 22.6715 2.515 24 4.1539 24s2.9674-1.3285 2.9674-2.9674c0-1.6388-1.3285-2.9674-2.9674-2.9674s-2.9674 1.3286-2.9674 2.9674z"/></svg>