<svg role="img" viewBox="0 0 24 24" xmlns="http://www.w3.org/2000/svg"><title>Google Password Manager</title><path d="M6.545 14.182c.6 0 1.109-.21 1.528-.627.436-.436.654-.954.654-1.555s-.218-1.109-.654-1.528a2.036 2.036 0 0 0-1.528-.654c-.6 0-1.118.218-1.555.654A2.079 2.079 0 0 0 4.363 12c0 .6.21 1.118.627 1.555.436.418.954.627 1.555.627zm0 4.363c-1.818 0-3.363-.636-4.636-1.909C.636 15.363 0 13.818 0 12s.636-3.363 1.909-4.637c1.273-1.272 2.818-1.908 4.636-1.908a6.39 6.39 0 0 1 3.409.954 6.22 6.22 0 0 1 2.4 2.59h9.464c.6 0 1.109.22 1.527.655.436.418.655.927.655 1.528v5.18c0 .6-.219 1.119-.655 1.556a2.079 2.079 0 0 1-1.527.627h-4.91a2.17 2.17 0 0 1-1.554-.627 2.17 2.17 0 0 1-.627-1.555v-1.364h-2.374a6.009 6.009 0 0 1-2.373 2.618 6.676 6.676 0 0 1-3.435.928Zm4.31-5.727h6.054v3.545h1.636v-1.364a.775.775 0 0 1 .219-.574.816.816 0 0 1 .6-.246.73.73 0 0 1 .573.246.73.73 0 0 1 .246.574v1.364h1.635v-5.181H10.855a4.336 4.336 0 0 0-1.528-2.537 4.193 4.193 0 0 0-2.782-1.008 4.202 4.202 0 0 0-3.081 1.281C2.61 9.772 2.182 10.8 2.182 12c0 1.2.428 2.228 1.282 3.081a4.202 4.202 0 0 0 3.081 1.282c1.055 0 1.982-.327 2.782-.982a4.461 4.461 0 0 0 1.528-2.563z"/></svg>