<svg role="img" viewBox="0 0 24 24" xmlns="http://www.w3.org/2000/svg"><title>Google Play Music icon</title><path d="M2.5277 0c-.2995 0-.599.0998-.7987.2995-.2995.2995-.4992.7987-.4992 1.3978v20.567c0 .599.1997 1.0982.4992 1.3977.3994.3994 1.0982.4992 1.897 0l5.6908-3.1949c-3.7939-.9984-6.4896-4.4928-6.4896-8.3865 0-3.9936 2.6957-7.3881 6.4896-8.3865L3.626.3994C3.2266.0998 2.8272 0 2.5277 0zm9.0854 3.5942c-4.5926 0-8.3865 3.6941-8.3865 8.3866 0 3.8937 2.6957 7.2883 6.5894 8.1868l9.6845-5.4912c.2995-.8985.3993-1.6972.3993-2.5958 0-4.6925-3.694-8.4864-8.2867-8.4864zm0 2.8954c2.9952 0 5.4912 2.3961 5.4912 5.4912 0 2.9951-2.3961 5.4911-5.4912 5.4911-2.9952 0-5.4912-2.3961-5.4912-5.4911 0-2.9952 2.496-5.4912 5.4912-5.4912zm0 2.5958V12.48c-.1997-.0998-.3993-.1997-.599-.1997-.6989 0-1.298.599-1.298 1.2979 0 .6989.5991 1.298 1.298 1.298.6989 0 1.2979-.5991 1.2979-1.298v-3.095h1.198V9.0854zm8.3866.4992c.1996.7987.2995 1.5974.2995 2.3962 0 .7987-.0998 1.5974-.2995 2.3961l1.797-.9984c1.298-.6989 1.298-1.897 0-2.6957zm0 4.7923z"/></svg>