<svg role="img" viewBox="0 0 24 24" xmlns="http://www.w3.org/2000/svg"><title>Google Tag Manager icon</title><path d="M14.066 18.925a2.973 2.973 0 1 1-4.205 4.204 2.973 2.973 0 0 1 4.205-4.204zm-4.559-.354a3.45 3.45 0 0 1 2.456-1.017c.285 0 .562.045.831.11L7.24 12.002l4.405-4.405-2.122-2.12a3.49 3.49 0 0 1-.9-3.343L.88 9.875a3 3 0 0 0-.002 4.24l.002.003 7.72 7.719a3.464 3.464 0 0 1 .91-3.266h-.002zM23.12 9.875h-.005L14.12.879a3 3 0 1 0-4.244 4.243l6.889 6.883-4.43 4.476 1.875 1.915.05.039c.055.042.11.085.16.136l.001.001c.203.203.366.43.508.666.037.062.066.125.1.189.101.196.183.397.246.606.014.05.032.1.044.15.138.553.14 1.127.003 1.68l7.77-7.722c.009-.01.02-.014.029-.023a3 3 0 0 0 0-4.243h-.001z"/></svg>