<svg role="img" viewBox="0 0 24 24" xmlns="http://www.w3.org/2000/svg"><title>Google Chrome icon</title><path d="M14.535 18.362l-3.212 5.617A11.977 11.977 0 0 1 0 12c0-2.208.605-4.359 1.75-6.237l5.302 9.094a.133.133 0 0 0 .023.03 5.73 5.73 0 0 0 4.924 2.825 5.715 5.715 0 0 0 3.677-1.348l-1.141 1.998zm8.201-11.72h-8.752A5.724 5.724 0 0 1 17.712 12c0 .985-.259 1.958-.748 2.817a.166.166 0 0 1-.015.039l-5.226 9.14c.092.002.184.004.277.004 6.617 0 12-5.383 12-12 0-1.879-.425-3.682-1.264-5.358zM6.375 12.988A5.636 5.636 0 0 1 6.287 12 5.72 5.72 0 0 1 12 6.287h10.551A11.952 11.952 0 0 0 12 0 11.962 11.962 0 0 0 1.965 5.424l2.79 4.785 1.62 2.779zM7.572 12a4.428 4.428 0 1 0 8.856 0 4.428 4.428 0 0 0-8.856 0z"/></svg>