<svg role="img" viewBox="0 0 24 24" xmlns="http://www.w3.org/2000/svg"><title>Google Forms</title><path d="M14.723 6V0l6 6zM4.339.077c-.439.17-.787.513-.964.949-.093.25-.098.574-.098 10.974v10.713l.108.287c.143.38.513.749.892.892.288.108.308.108 7.718.108 7.328 0 7.436 0 7.708-.103.333-.123.697-.466.866-.81l.118-.24.016-8.437.019-7.91h-6.5V0L9.636.005c-4.251 0-5.133.015-5.297.072zm4 9.185c.236.179.338.359.364.646.015.225 0 .302-.103.451-.272.405-.723.523-1.118.303-.39-.221-.533-.77-.292-1.129.2-.297.43-.415.743-.395.16.016.329.067.406.124zm8.58.687v.718l-3.421-.01-3.426-.016-.015-.636c-.006-.354 0-.672.01-.708.02-.056.682-.066 3.44-.066h3.411zm-8.58 2.595c.236.18.338.359.364.646.02.313-.098.543-.395.743-.36.241-.908.098-1.128-.292-.22-.395-.103-.846.302-1.118.149-.102.226-.118.451-.102.16.015.329.066.406.123zm8.58.687v.718l-3.421-.01-3.426-.016-.015-.636c-.006-.354 0-.672.01-.708.02-.056.682-.066 3.44-.066h3.411zm-8.58 2.595c.236.18.338.359.364.646.02.313-.098.543-.395.743-.36.241-.908.098-1.128-.292-.22-.395-.103-.846.302-1.118.149-.102.226-.118.451-.102.16.015.329.066.406.123zm8.58.687v.718l-3.421-.01-3.426-.016-.015-.636c-.006-.354 0-.672.01-.707.02-.057.682-.067 3.44-.067h3.411z"/></svg>