<svg role="img" viewBox="0 0 24 24" xmlns="http://www.w3.org/2000/svg"><title>Google Play Music icon</title><path d="M9.7 20.4L4 23.7c-.8.4-1.5.4-1.9 0-.3-.3-.5-.7-.5-1.3V1.7c0-.6.2-1.1.5-1.3.4-.4 1.1-.5 1.9 0l5.7 3.3C6 4.6 3.3 8 3.3 12c0 4 2.7 7.4 6.4 8.4zm12.5-9.7l-1.8-1c.2.8.3 1.6.3 2.4 0 .8-.1 1.6-.3 2.4l1.8-1c1.3-.9 1.3-2.1 0-2.8zm-2.4-1.4C18.7 6 15.7 3.7 12 3.7c-.6 0-1.2.1-1.7.2C6.5 4.7 3.7 8 3.7 12c0 3.8 2.6 7.1 6.1 8 0 0 .3.1.4.1l6.3-3.6 3.3-1.9.1-.4c.2-.7.3-1.5.3-2.2.1-.9-.1-1.9-.4-2.7zM12 17.5c-3 0-5.4-2.4-5.4-5.5C6.6 9 9 6.5 12 6.5c3 0 5.5 2.4 5.5 5.4 0 3.1-2.5 5.6-5.5 5.6zm0-8.4v3.4c-.2-.1-.4-.2-.6-.2-.7 0-1.3.6-1.3 1.3 0 .7.6 1.3 1.3 1.3.7 0 1.3-.6 1.3-1.3v-3.1h1.2V9.1H12z"/></svg>