<svg role="img" viewBox="0 0 24 24" xmlns="http://www.w3.org/2000/svg"><title>Google AI Edge Gallery</title><path d="M5.6105 0a1.49 1.49 0 0 0-.9116.3112l-1.352 1.042a1.533 1.533 0 0 1-.339.1965l-1.575.6548C.807 2.4638.432 3.114.5213 3.7893l.223 1.697a1.532 1.532 0 0 1 0 .393l-.223 1.697a1.5045 1.5045 0 0 0 .9118 1.586l1.5749.6536c.1206.0507.2352.1157.3401.1965l1.3509 1.042a1.493 1.493 0 0 0 1.8246 0l1.3506-1.042a1.4872 1.4872 0 0 1 .339-.1965l1.5751-.6525a1.5045 1.5045 0 0 0 .9118-1.586l-.2233-1.6969a1.5324 1.5324 0 0 1 0-.393L10.7 3.7892c.0893-.6741-.2846-1.3255-.9118-1.5848l-1.5751-.6548a1.569 1.569 0 0 1-.3401-.1965L6.5223.3112A1.4906 1.4906 0 0 0 5.6105 0Zm13.625.0002c-1.1729 0-2.3457.448-3.2412 1.3434l-1.5195 1.5219c-1.7898 1.791-1.7898 4.695 0 6.4859 1.7897 1.791 4.6914 1.791 6.4812 0l1.5207-1.5219c1.7897-1.791 1.7897-4.695 0-6.486C21.5812.4482 20.4083.0003 19.2355.0003ZM5.6105 13.1325C2.6123 13.1337.181 15.5649.181 18.5666.181 21.5672 2.6123 24 5.6105 24c2.9994 0 5.4294-2.4327 5.4294-5.4333 0-3.0017-2.43-5.4341-5.4294-5.4341zm10.186.6908c-1.7864-.0321-3.2395 1.836-2.4397 3.6798l.1569.3618a2.6195 2.6195 0 0 1 0 2.0924l-.1569.3618c-.9491 2.1854 1.27 4.4045 3.453 3.4554l.3618-.157a2.6267 2.6267 0 0 1 2.0912 0l.3606.157c2.1854.9491 4.4019-1.2688 3.4528-3.4554l-.157-.3618a2.6295 2.6295 0 0 1 0-2.0924l.157-.3618c.9491-2.1853-1.2687-4.4044-3.4516-3.4541l-.3618.1566a2.6239 2.6239 0 0 1-2.09 0l-.3618-.1566c-.3415-.1485-.6838-.2197-1.0146-.2257Z"/></svg>