<svg role="img" xmlns="http://www.w3.org/2000/svg" viewBox="0 0 24 24"><title>Google Tag Manager icon</title><path d="M12.078.054a2.98 2.98 0 0 0-2.107 5.088l6.821 6.82-6.654 6.796a2.913 2.913 0 0 1 1.872-.685 2.913 2.913 0 0 1 2.912 2.913 2.913 2.913 0 0 1-.607 1.774l8.608-8.491a2.98 2.98 0 0 0 .205-4.4L14.184.925a2.97 2.97 0 0 0-2.107-.872zM9.665 1.089L.872 9.799a2.978 2.978 0 0 0 0 4.21l8.625 8.683a2.913 2.913 0 0 1-.556-1.706 2.913 2.913 0 0 1 1.041-2.228l1.888-1.928-4.684-4.925 4.696-4.696L9.815 5.14a2.98 2.98 0 0 1-.15-4.052zm2.346 17.092a2.998 2.998 0 0 0-.284.005c-1.136.072-2.18.876-2.528 1.961-.38 1.079-.027 2.36.845 3.097.848.752 2.15.92 3.16.407a2.895 2.895 0 0 0 1.608-2.726c-.042-1.16-.857-2.24-1.963-2.594a2.858 2.858 0 0 0-.838-.15z"/></svg>