<svg role="img" viewBox="0 0 24 24" xmlns="http://www.w3.org/2000/svg"><title>Google Hangouts Chat icon</title><path d="M12 0A10.357 10.357 0 0 0 1.637 10.363c0 5.427 4.949 9.818 10.363 9.818v3.818c6.3-3.191 10.363-8.333 10.363-13.637A10.358 10.358 0 0 0 12-.001zm.027 4.227c.873 0 1.664.151 2.4.465s1.364.722 1.895 1.254c.532.532.94 1.145 1.24 1.855s.451 1.459.451 2.25c0 .45-.055.86-.15 1.242s-.246.722-.451 1.008c-.205.286-.45.518-.75.682s-.64.246-1.035.246c-.382 0-.735-.096-1.035-.287s-.547-.464-.725-.832a2.586 2.586 0 0 1-.885.832c-.355.191-.765.287-1.242.287a2.923 2.923 0 0 1-2.099-.873A3.066 3.066 0 0 1 9 11.374a3.376 3.376 0 0 1-.232-1.256c0-.45.082-.872.232-1.254.164-.382.368-.709.641-.982.259-.273.574-.491.928-.641s.723-.232 1.105-.232.735.082 1.035.232.559.355.764.6h.096v-.613h1.295v3.832c0 .245.068.464.205.668s.355.312.641.312c.191 0 .354-.054.49-.176s.232-.286.314-.477c.082-.191.136-.424.164-.656a6.67 6.67 0 0 0 .041-.723c0-.614-.123-1.201-.355-1.76a4.897 4.897 0 0 0-.98-1.459c-.423-.423-.914-.749-1.486-.994s-1.187-.367-1.869-.367c-.655 0-1.267.122-1.84.354s-1.064.56-1.486.969c-.423.409-.751.9-.996 1.459-.245.573-.367 1.186-.367 1.855s.122 1.282.367 1.855.586 1.05 1.023 1.459a4.75 4.75 0 0 0 3.287 1.322c.75 0 1.404-.164 1.99-.477l.477 1.199a5.864 5.864 0 0 1-2.455.518c-.873 0-1.664-.149-2.414-.463-.736-.314-1.376-.724-1.908-1.256s-.956-1.145-1.256-1.855c-.3-.709-.449-1.471-.449-2.275s.149-1.555.449-2.277a5.736 5.736 0 0 1 3.164-3.123c.723-.314 1.527-.465 2.414-.465zM11.836 8.4c-.218 0-.436.041-.641.123s-.382.19-.545.34a1.44 1.44 0 0 0-.369.561c-.095.218-.135.462-.135.734s.04.518.135.736c.095.218.219.409.369.559.164.15.341.274.545.342a1.727 1.727 0 0 0 1.282 0c.205-.082.382-.192.545-.342s.287-.327.369-.545c.095-.218.135-.464.135-.75s-.04-.532-.135-.75a1.74 1.74 0 0 0-.369-.545 1.759 1.759 0 0 0-1.186-.463z"/></svg>