<svg role="img" viewBox="0 0 24 24" xmlns="http://www.w3.org/2000/svg"><title>Google Optimize icon</title><path d="M23.999 3.32c-.023-1.785-1.502-3.17-3.32-3.17h-8.755c-1.721.08-3.17 1.44-3.17 3.17 0 1.732 1.449 3.242 3.17 3.321h5.584v5.284c0 1.846 1.528 3.32 3.321 3.32 1.792 0 3.17-1.474 3.17-3.32V3.32zM6.489 12A3.245 3.245 0 1 1 0 12a3.245 3.245 0 0 1 6.49 0zm8.906-.075c-.022-1.786-1.502-3.17-3.32-3.17H3.32c-1.72.08-3.17 1.438-3.17 3.17 0 1.73 1.449 3.24 3.17 3.32h5.585v5.283c0 1.846 1.527 3.321 3.32 3.321 1.792 0 3.17-1.475 3.17-3.32v-8.604zM0 23.5h24M0 23h24m-24-.5h24M0 22h24m-24-.5h24M0 21h24m-24-.5h24M0 20h24m-24-.5h24M0 19h24m-24-.5h24M0 18h24m-24-.5h24M0 17h24m-24-.5h24M0 16h24m-24-.5h24M0 15h24m-24-.5h24M0 14h24m-24-.5h24M0 13h24m-24-.5h24M0 12h24m-24-.5h24M0 11h24m-24-.5h24M0 10h24M0 9.5h24M0 9h24M0 8.5h24M0 8h24M0 7.5h24M0 7h24M0 6.5h24M0 6h24M0 5.5h24M0 5h24M0 4.5h24M0 4h24M0 3.5h24M0 3h24M0 2.5h24M0 2h24M0 1.5h24M0 1h24M0 .5h24m-.5-.5v24M23 0v24m-.5-24v24M22 0v24m-.5-24v24M21 0v24m-.5-24v24M20 0v24m-.5-24v24M19 0v24m-.5-24v24M18 0v24m-.5-24v24M17 0v24m-.5-24v24M16 0v24m-.5-24v24M15 0v24m-.5-24v24M14 0v24m-.5-24v24M13 0v24m-.5-24v24M12 0v24m-.5-24v24M11 0v24m-.5-24v24M10 0v24M9.5 0v24M9 0v24M8.5 0v24M8 0v24M7.5 0v24M7 0v24M6.5 0v24M6 0v24M5.5 0v24M5 0v24M4.5 0v24M4 0v24M3.5 0v24M3 0v24M2.5 0v24M2 0v24M1.5 0v24M1 0v24M.5 0v24"/></svg>