<svg role="img" viewBox="0 0 24 24" xmlns="http://www.w3.org/2000/svg"><title>Google Developer Groups</title><path d="m 22.1,13.9 c 0.7,0 1.3,-0.3 1.6,-0.9 0.6,-0.9 0.3,-2.1 -0.6,-2.6 L 16.3,6.46 c -0.9,-0.52 -2.1,-0.2 -2.6,0.7 -0.5,0.89 -0.2,2.1 0.7,2.62 l 6.7,3.92 c 0.3,0.1 0.7,0.2 1,0.2 z m -4.2,-1.8 -3.5,2 a 1.94,1.94 0 0 0 -0.7,2.7 1.83,1.83 0 0 0 2.6,0.7 l 5.9,-3.4 h -0.3 c -0.3,0 -0.7,-0.1 -1,-0.2 z m -9.22,5.7 c 0.69,0 1.32,-0.4 1.62,-1 0.5,-0.9 0.2,-2.1 -0.67,-2.6 L 2.89,10.3 C 1.99,9.78 0.789,10.1 0.259,11 c -0.53,0.9 -0.22,2.1 0.68,2.6 l 6.741,3.9 c 0.37,0.2 0.69,0.3 1,0.3 z M 8.66,6.21 A 2,2 0 0 0 7.73,6.47 l -5.9,3.4 c 0.42,-0.1 0.87,0 1.26,0.23 L 6.11,11.9 9.68,9.78 C 10.6,9.26 10.9,8.1 10.4,7.15 A 1.92,1.92 0 0 0 8.66,6.21 Z"/></svg>