<svg role="img" viewBox="0 0 24 24" xmlns="http://www.w3.org/2000/svg"><title>Google Lens icon</title><path d="M17.308 3.336a3.36 3.36 0 0 1 3.356 3.356v2.664H24V6.692A6.684 6.684 0 0 0 17.308 0h-2.664v3.336h2.664M3.336 6.692a3.36 3.36 0 0 1 3.356-3.356h2.664V0H6.692A6.684 6.684 0 0 0 0 6.692v2.664h3.336V6.692m3.356 13.972a3.36 3.36 0 0 1-3.356-3.356v-2.664H0v2.664A6.684 6.684 0 0 0 6.692 24h2.664v-3.336H6.692M12 7.322a4.679 4.679 0 1 1-.001 9.357A4.679 4.679 0 0 1 12 7.322m7.932 9.966c1.465 0 2.644 1.18 2.644 2.644s-1.18 2.644-2.644 2.644-2.644-1.18-2.644-2.644 1.18-2.644 2.644-2.644"/></svg>