<svg role="img" xmlns="http://www.w3.org/2000/svg" viewBox="0 0 24 24"><title>Google Street View icon</title><path d="M20.32 23.967l-.01.002-.037.005-.012.001-.028.004h-.012l-.034.004h-.005l-.039.003h-.011l-.03.001h-.011l-.04.001h-9.217v-7.695c0-1.76 3.099-2.904 4.64-3.33h.002l.043-.012.01-.002.044-.012a10.867 10.867 0 0 1 2.837-.397c1.184 0 2.264.22 3.359.571v9.199l-.001.012-.001.029v.012l-.003.038v.006l-.003.033-.002.013-.003.027-.002.012-.005.037-.001.01-.005.028-.003.014-.004.025-.003.013-.008.035-.003.013-.006.024-.004.015-.006.023-.004.014-.01.032a1.73 1.73 0 0 1-1.137 1.137l-.032.01-.013.003-.023.007-.015.004-.025.006-.012.003-.035.007-.013.003-.025.005-.014.002-.029.005zM15 11.003l-2.706 2.707c1.057-.62 2.293-1.02 3.034-1.224l.06-.017.056-.015c1.04-.279 2.01-.414 2.967-.414 1.081 0 2.155.18 3.358.552v-1.734a6.183 6.183 0 0 1-6.769.145zm3.269.438a5.72 5.72 0 1 0 0-11.441 5.72 5.72 0 0 0 0 11.44zm-7.935 12.547h-8.32a1.755 1.755 0 0 1-.203.012c-.946 0-1.804-.754-1.8-1.73V3.948c0-.945.773-1.718 1.718-1.718h11.394a6.183 6.183 0 0 0-1.074 3.49c0 1.28.388 2.47 1.053 3.46L.511 21.77v.5a1.17 1.17 0 0 0 .351.833 1.35 1.35 0 0 0 1.095.389l.029-.003h.529l7.973-7.974a2.052 2.052 0 0 0-.154.778v7.695zM1.71 7.15c0 1.74 1.408 3.15 3.149 3.15 1.818 0 3.023-1.28 3.023-3.078 0-.224-.02-.438-.057-.645H4.858v1.22h1.695c-.135.724-.77 1.251-1.695 1.251-1.028 0-1.864-.87-1.864-1.895s.836-1.896 1.864-1.896c.464 0 .876.16 1.205.47l.902-.902a3.01 3.01 0 0 0-2.107-.824 3.147 3.147 0 0 0-3.15 3.149zM.087 22.775l.006-.007-.014-.047c.005.017.003.037.008.054zm1.137 1.137c.017.005.037.004.054.008l-.047-.014-.007.006z"/></svg>