<svg role="img" viewBox="0 0 24 24" xmlns="http://www.w3.org/2000/svg"><title>Google News icon</title><path d="M3.34 7.15a.964.964 0 0 0-.963.963v6.852L.04 8.544c-.116-.318.03-.665.322-.771l12.665-4.61c.293-.106.627.066.742.384l1.312 3.603H3.341zm9.866-4.369c.393 0 .752.26.892.646l.403 1.107 4.59 1.235v-2.98a.612.612 0 0 0-.612-.607H5.521a.612.612 0 0 0-.612.607v2.956l7.998-2.911a.863.863 0 0 1 .299-.053zm10.383 4.56l-8.941-2.405.806 2.214h5.206c.53 0 .963.432.963.963v8.754l2.354-8.786c.088-.327-.087-.66-.388-.74zm-2.316.773v13.09a.616.616 0 0 1-.614.614H3.341a.616.616 0 0 1-.614-.613V8.114c0-.338.276-.614.614-.614h17.318c.338 0 .614.276.614.614zm-8.489 4.568h5.182c.15 0 .273-.122.273-.273v-.818a.273.273 0 0 0-.273-.273h-5.182v1.364zm-1.503 1.984c0-.215-.02-.421-.052-.62H8.148v1.23h1.764c-.145.749-.804 1.292-1.764 1.292-1.072 0-1.94-.906-1.94-1.977s.868-1.978 1.94-1.978c.482 0 .914.167 1.255.491v.001l.934-.934a3.143 3.143 0 0 0-2.19-.853 3.273 3.273 0 0 0 0 6.546c1.89 0 3.134-1.329 3.134-3.198zm6.958 2.107a.273.273 0 0 0-.273-.273h-5.182v1.364h5.182c.15 0 .273-.122.273-.273v-.818zm.818-2.591a.273.273 0 0 0-.273-.273h-6v1.364h6c.15 0 .273-.122.273-.273v-.818z"/></svg>