<svg role="img" viewBox="0 0 24 24" xmlns="http://www.w3.org/2000/svg"><title>Google Podcasts icon</title><path d="M1.502 9.678c-.83 0-1.5.67-1.5 1.5v1.63a1.5 1.5 0 103 0v-1.63c0-.83-.67-1.5-1.5-1.5zm20.996 0c-.83 0-1.5.67-1.5 1.5v1.63a1.5 1.5 0 103 0v-1.63c0-.83-.67-1.5-1.5-1.5zM6.68 14.587c-.83 0-1.5.67-1.5 1.5v1.63a1.5 1.5 0 103 0v-1.62c0-.83-.67-1.5-1.5-1.5zm0-9.818c-.83 0-1.5.67-1.5 1.5v5.358a1.5 1.5 0 003 0V6.258c0-.83-.67-1.5-1.5-1.5zm10.638 0c-.83 0-1.5.67-1.5 1.5v1.64a1.5 1.5 0 003 0v-1.64c0-.83-.67-1.5-1.5-1.5zM12-.001c-.83 0-1.5.67-1.5 1.5v1.63a1.5 1.5 0 103 0V1.5C13.5.67 12.83 0 12 0zm0 19.357c-.83 0-1.5.67-1.5 1.5v1.64a1.5 1.5 0 103 .01v-1.64c0-.82-.67-1.5-1.5-1.5zm5.319-8.458c-.83 0-1.5.68-1.5 1.5v5.328a1.5 1.5 0 003 0v-5.329c0-.83-.67-1.5-1.5-1.5zM12 6.128c-.83 0-1.5.68-1.5 1.5v8.728a1.5 1.5 0 003 0V7.638c0-.83-.67-1.5-1.5-1.5z"/></svg>