<svg role="img" viewBox="0 0 24 24" xmlns="http://www.w3.org/2000/svg"><title>Google Jules</title><path d="M4.416 24q-1.206 0-2.042-.836t-.836-2.042v-.575q0-.488.33-.818t.818-.33.818.33.33.818v.575q0 .229.173.402t.402.173.402-.173.173-.402V7.329q0-2.875 2.013-4.888T12.115 0q2.875 0 4.888 2.013t2.013 4.888v13.227q0 .229.173.402t.402.173.402-.173.173-.402v-.575q0-.488.33-.818t.818-.33.818.33.33.818v.575q0 1.206-.836 2.042t-2.042.836-2.042-.836-.836-2.042v-4.6h-1.552v4.6q0 .488-.33.818t-.818.33-.818-.33-.33-.818v-4.6h-1.524v4.6q0 .488-.33.818t-.818.33-.818-.33-.33-.818v-4.6H7.024v5.175q0 1.206-.836 2.042t-2.042.836zm4.161-10.246q.517 0 .834-.431t.317-1.005-.317-1.005-.834-.431-.834.431-.317 1.005.317 1.005.834.431m6.899 0q.517 0 .834-.431t.317-1.005-.317-1.005-.834-.431-.834.431-.317 1.005.317 1.005.834.431"/></svg>