<svg xmlns="http://www.w3.org/2000/svg" viewBox="0 0 16 16" fill-rule="evenodd" clip-rule="evenodd" stroke-linejoin="round" stroke-miterlimit="1.414"><path d="M7.226 1.28c-2.098.26-3.745 1.358-4.124 3.788 1.012-2.01 2.208-3.064 4.124-3.79zm-.437.992c-1.75.77-2.8 2.098-3.06 3.903.53-1.562 1.75-2.594 3.06-3.903zM4.25 15.267c.045-.11.306-.302.478-.35.11-.03.22-.093.253-.145.1-.31.11-.566.14-.898-.22-.41-.41-.875-.65-1.257-.19.306.12.814.09 1.144-1.08-1.91-2.6-4.38-2.58-7.18.03-.13-.02-.87-.41.02.31-4.51 3.58-7.72 7.97-6.22.04.04.25.06.58.08 2.358.07 3.93 2.54 4.32 4.8-.08.22-.38-.26-.463-.26.196 2.39.235 4.66-.95 6.106-.66 1.28-.47.92-.38-.01-.29.16-.74 1.97-.71 1.45.245-2.12-.256.315-.525.61-.06 0-.063.08-.04.71.035.96.04.98.298 1.07.206.076.43.27.43.38.19.16 1.377.55 1.264.69H2.86c-.044-.11 1.193-.56 1.392-.73zm.732-5.5c.17-.927.727.17.75.216.298-2.767 1.142-2.533 3.6-5.255.29.173-1.426 2.348-2.225 4.628 2.116-3.206 2.86-4.196 3.81-4.69.624 2.366 1.13 4.312.615 7.436.258-.468.96-3.2.806-2.057-.026.24-.13 1.096-.15 1.335.267-.525.46-1.088.725-1.61.27-.572-.262 1.554.24.526.684-1.783.693-2.458.58-5.52-.002-.142.19-.236.172-.334C13.593 2.622 11.96.606 9.93.71 9.46.706 9.426.7 9.27.59 6.094-.57 3.304 1.594 2.384 4.496c-.24.592.155.342.105.645-.13.76-.2 1.17-.11 1.95.13 1.16.5 2.57 1.03 3.93.23.6.72 1.65.75 1.62-.02-.34-.37-1.55-.16-1.58.21-.03.62 1.3 1.22 2.34-.22-1.18-.32-2.486-.25-3.616z"/></svg>
