<svg role="img" viewBox="0 0 24 24" xmlns="http://www.w3.org/2000/svg"><title>GoToWebinar icon</title><path d="M21.2946 13.7185a3.1587 3.1587 0 0 0-3.461.1248.6337.6337 0 0 1-.6818.0337l-3.1346-1.8098a.0768.0768 0 0 1 0-.1345l3.1202-1.8001a.6337.6337 0 0 1 .6865.0384 3.1587 3.1587 0 0 0 3.4707.1392c1.4288-.8818 1.9303-2.7198 1.1473-4.2052-.713-1.3136-2.2491-1.9477-3.6811-1.5195-1.432.4282-2.3678 1.8015-2.2426 3.2909a.6337.6337 0 0 1-.312.6048l-3.1347 1.8098a.0768.0768 0 0 1-.12-.0672V6.5995a.6337.6337 0 0 1 .3744-.5713c1.3483-.6202 2.083-2.0955 1.7655-3.5453C14.7739 1.0331 13.4899 0 12.0057 0c-1.4841 0-2.768 1.0332-3.0855 2.483-.3175 1.4497.4172 2.925 1.7654 3.5453a.6337.6337 0 0 1 .3745.5713v3.6243a.0768.0768 0 0 1-.12.0671L7.8054 8.4813a.6288.6288 0 0 1-.312-.6048c.1277-1.4787-.7911-2.8468-2.2082-3.288-1.417-.4411-2.95.1638-3.684 1.4538-.7341 1.29-.4711 2.9168.632 3.9098 1.103.9929 2.7486 1.084 3.9545.2189a.6337.6337 0 0 1 .6864-.0384l3.1203 1.8001a.0768.0768 0 0 1 0 .1345L6.8597 13.877a.6337.6337 0 0 1-.6816-.0337 3.1587 3.1587 0 0 0-3.4611-.1248c-1.4244.8832-1.9235 2.7175-1.1426 4.2004.7136 1.319 2.2564 1.9545 3.692 1.5205 1.4356-.4339 2.3682-1.8175 2.2317-3.3111a.6337.6337 0 0 1 .312-.6097l3.1347-1.8097a.0768.0768 0 0 1 .12.0672v3.6243a.6337.6337 0 0 1-.3744.5713c-1.3483.6203-2.083 2.0955-1.7655 3.5452C9.2424 22.9668 10.5264 24 12.0105 24c1.4842 0 2.768-1.0332 3.0856-2.483.3174-1.4498-.4172-2.925-1.7654-3.5453a.6337.6337 0 0 1-.3745-.5713v-3.6243a.0768.0768 0 0 1 .12-.0672l3.1347 1.8097a.6337.6337 0 0 1 .312.6097c-.1365 1.4936.796 2.8772 2.2316 3.3111 1.4357.434 2.9785-.2014 3.6922-1.5206.779-1.4853.2757-3.3202-1.1521-4.2002Z"/></svg>