<svg role="img" viewBox="0 0 24 24" xmlns="http://www.w3.org/2000/svg"><title>GOV.UK icon</title><path d="M2.4013 13.032c.261-.64-.04-1.374-.682-1.638-.631-.262-1.3619.049-1.6228.688-.266.637.038 1.3629.6679 1.6229.632.267 1.3679-.037 1.6229-.673m.858-3.2437c.2559-.636-.045-1.37-.691-1.639-.631-.2579-1.367.053-1.639.687-.2699.638.03 1.369.662 1.629.646.2659 1.367-.039 1.639-.677m1.2178-1.095c.645.264 1.367-.041 1.6369-.6749.256-.639-.045-1.3749-.676-1.6389-.6319-.26-1.3678.049-1.6388.686-.271.638.046 1.3669.678 1.6258m3.1557 1.053c.646.256 1.3679-.045 1.6399-.676.255-.646-.046-1.3829-.691-1.6389-.634-.271-1.3699.046-1.6259.676-.27.632.045 1.3679.677 1.6249m14.01 3.2767c.271.631.9929.933 1.6388.661.632-.27.933-.992.661-1.6389-.271-.646-1.008-.947-1.639-.676-.6459.256-.9448.992-.6759 1.639m.752-2.5699c.631-.257.931-.993.676-1.6399-.271-.632-1.008-.9459-1.639-.677-.6459.271-.9469.992-.6759 1.639.256.632.993.9329 1.6239.678m-2.7798-1.729c.631-.26.932-.9919.672-1.6308-.27-.646-1.001-.947-1.639-.686-.6319.271-.9369.992-.6699 1.6389.27.631 1.007.932 1.6379.676m-3.4118.8579c.631-.271.932-1.007.677-1.6389-.271-.646-.993-.947-1.6399-.691-.631.271-.932 1.008-.661 1.639.271.6319.993.9319 1.64.6619M9.4257 4.9365l.093 2.3989 1.7518-.923a.754.754 0 00.12.107c-.181.718-.621 1.9139-.896 2.5748-.3349.812.051 1.7439.862 2.0779.812.331 1.7469-.06 2.0828-.872.241-.57.121-1.1879-.24-1.6229-.3909-.6779-.7809-1.5328-.9919-2.1948.061-.045.105-.105.15-.15l1.8949.977.09-2.3899-1.9689.632c-.016-.031-.031-.061-.045-.075l.766-2.1808-2.3299-.074.707 2.1478c-.061.031-.105.076-.15.137zm11.895 9.1083c.16.883.188 1.284-.015 1.859-.285-.286-.5399-.807-.7489-1.594l-.872 2.7898c.52-.346.915-.565 1.364-.571-.815 1.713-1.8189 2.1459-2.4608 2.021-.787-.158-1.15-.867-1.012-1.466.175-.842 1.052-1.0519 1.448-.067.7919-1.5659-.52-2.0778-1.368-1.6239 1.313-1.2799 1.468-2.4258.426-3.8357-1.4639 1.106-1.4899 2.2099-.851 3.7717-.8419-.9849-2.1798-.466-1.7128 1.113.627-.949 1.4319-.346 1.2979.565-.109.7959-1.163 1.4128-2.4608 1.2918-1.8639-.165-1.9539-1.4569-1.9829-2.5248.451-.074 1.277.361 1.9829 1.354l.286-2.9619c-.767.782-1.474.946-2.2399.962.271-.781 1.459-2.0899 1.459-2.0899l-3.7288-.045s1.188 1.323 1.4429 2.1189c-.768-.014-1.4589-.164-2.2248-.961l.255 2.9608c.7059-.991 1.5338-1.4119 1.9838-1.3379-.045 1.053-.15 2.3458-2.0149 2.5108-1.2929.105-2.3448-.526-2.4488-1.3229-.121-.9009.691-1.5029 1.307-.541.4809-1.5778-.856-2.1038-1.699-1.1268.662-1.564.647-2.6758-.8109-3.7888-1.053 1.398-.902 2.5408.405 3.8497-.842-.467-2.1649.029-1.383 1.607.405-.992 1.278-.766 1.458.076.12.6009-.24 1.3078-1.021 1.4568-.6459.121-1.6388-.315-2.4508-2.0438.451.016.842.241 1.354.587l-.859-2.7829c-.209.781-.48 1.295-.766 1.578-.186-.57-.166-.977.014-1.859l-1.8028.613c.922 1.264 1.8569 3.0208 2.5898 6.1035 2.2748-.376 6.1565-.603 8.5084-.603 2.3448.015 6.2285.285 8.4933.691.767-3.0807 1.7129-4.8246 2.6458-6.0725l-1.7728-.646z"/></svg>