<svg viewBox="0 0 16 16" xmlns="http://www.w3.org/2000/svg" fill-rule="evenodd" clip-rule="evenodd" stroke-linejoin="round" stroke-miterlimit="1.414"><g fill-rule="nonzero"><path d="M1.597 8.686c.174-.425-.026-.914-.453-1.09-.42-.173-.906.033-1.08.458-.176.423.026.907.445 1.08.427.177.912-.025 1.087-.448M2.173 6.528c.175-.423-.026-.912-.454-1.09-.42-.172-.908.035-1.082.457-.175.424.027.91.447 1.083.428.177.914-.026 1.088-.45M2.984 5.8c.427.175.912-.027 1.087-.45.175-.424-.025-.914-.45-1.09-.422-.173-.91.033-1.083.456-.175.425.027.91.447 1.083M5.085 6.507c.428.177.914-.025 1.088-.448.174-.424-.026-.915-.454-1.09-.42-.174-.907.033-1.082.457-.174.422.028.908.447 1.08M14.402 8.686c.183.423.666.623 1.09.443.42-.175.62-.66.445-1.082-.177-.426-.664-.626-1.085-.452-.424.174-.627.663-.45 1.09M14.908 6.977c.425-.173.625-.66.448-1.086-.18-.422-.664-.625-1.087-.447-.425.174-.622.66-.448 1.086.177.425.664.626 1.086.447M13.006 5.806c.42-.175.622-.662.448-1.087-.177-.427-.664-.627-1.088-.454-.422.18-.623.666-.446 1.09.175.422.662.623 1.086.45M10.734 6.38c.42-.175.62-.662.446-1.083-.177-.425-.665-.626-1.09-.453-.42.18-.62.667-.444 1.093.175.42.662.62 1.088.442M6.27 3.302l.062 1.596 1.165-.614c.024.026.053.052.08.072-.12.477-.413 1.273-.595 1.713-.223.54.033 1.16.573 1.383.54.222 1.162-.036 1.386-.577.156-.377.08-.786-.164-1.078-.26-.45-.52-1.02-.664-1.457.037-.027.07-.063.096-.102l1.256.65.053-1.59-1.312.425c-.012-.02-.025-.035-.038-.05l.516-1.455-1.557-.044.462 1.427c-.04.025-.07.055-.1.087L6.27 3.302zM14.184 9.362c.106.587.124.854-.01 1.236-.19-.19-.36-.536-.498-1.06l-.58 1.856c.345-.23.608-.376.907-.38-.542 1.14-1.21 1.428-1.637 1.345-.523-.104-.765-.576-.673-.974.116-.56.7-.7.963-.045.528-1.042-.345-1.382-.91-1.08.874-.852.976-1.614.284-2.552-.974.736-.992 1.47-.566 2.51-.56-.656-1.45-.31-1.14.74.417-.632.953-.23.864.376-.073.525-.774.94-1.637.854-1.24-.117-1.305-.973-1.327-1.68.302-.055.85.234 1.313.896l.19-1.973c-.514.52-.978.624-1.49.633.176-.526.966-1.397.966-1.397l-2.467-.012s.784.874.956 1.405c-.513-.016-.974-.117-1.483-.647l.172 1.974c.467-.657 1.015-.94 1.32-.882-.032.707-.106 1.56-1.344 1.673-.864.075-1.557-.35-1.63-.874-.084-.603.46-1.003.87-.368.318-1.05-.567-1.4-1.135-.75.44-1.037.428-1.774-.546-2.518-.7.928-.6 1.696.266 2.56-.564-.312-1.44.017-.924 1.07.27-.655.85-.51.97.054.08.398-.16.866-.686.963-.43.08-1.094-.215-1.627-1.36.3.006.562.157.902.39l-.56-1.858c-.14.52-.32.864-.51 1.05-.128-.377-.11-.65.006-1.235L.57 9.717c.613.836 1.235 2.005 1.722 4.055 1.514-.253 4.096-.404 5.66-.4 1.562.01 4.143.185 5.65.454.51-2.048 1.142-3.208 1.762-4.038l-1.178-.426z"/></g></svg>