<svg xmlns="http://www.w3.org/2000/svg" viewBox="0 0 24 24" role="img">
  <path d="M4.00 17.92 c-0.01 -0.04 -0.06 -0.39 -0.12 -0.78 -0.12 -0.81 -0.34 -2.21 -1.59 -10.34 -0.45 -2.95 -0.63 -4.14 -0.61 -4.15 0.01 -0.01 0.12 -0.03 0.24 -0.05 0.12 -0.02 0.28 -0.04 0.37 -0.05 0.08 -0.01 0.15 -0.02 0.16 -0.01 0.01 0.01 0.64 4.11 1.56 10.10 0.23 1.52 0.51 3.31 0.61 3.98 0.11 0.68 0.18 1.24 0.18 1.24 -0.01 0.01 -0.65 0.12 -0.73 0.12 -0.04 0 -0.06 -0.02 -0.06 -0.06z M5.14 17.79 c-0.01 -0.02 -1.27 -8.21 -1.68 -10.92 -0.05 -0.33 -0.26 -1.71 -0.47 -3.06 -0.21 -1.35 -0.37 -2.47 -0.36 -2.47 0.04 -0.04 0.78 -0.14 0.78 -0.11 0 0.01 0.08 0.53 0.18 1.16 0.31 1.99 0.43 2.80 0.53 3.43 0.50 3.27 0.83 5.39 0.99 6.50 0.39 2.55 0.61 3.96 0.71 4.62 0.06 0.37 0.11 0.68 0.11 0.71 0 0.04 -0.11 0.07 -0.47 0.12 -0.11 0.01 -0.22 0.03 -0.25 0.04 -0.03 0.01 -0.06 0 -0.06 -0.02z M6.97 17.21 c-0.04 -0.22 -0.26 -1.67 -0.50 -3.23 -0.24 -1.56 -0.67 -4.39 -0.96 -6.29 -0.93 -6.06 -1.12 -7.29 -1.13 -7.42 -0.01 -0.13 -0.01 -0.13 0.05 -0.14 0.14 -0.03 0.72 -0.10 0.72 -0.08 0.01 0 0.23 1.43 0.50 3.18 0.27 1.74 0.60 3.93 0.74 4.85 0.14 0.93 0.34 2.21 0.43 2.86 0.05 0.32 0.13 0.88 0.19 1.22 0.05 0.35 0.15 0.88 0.19 1.22 0.05 0.35 0.14 0.97 0.21 1.45 0.06 0.41 0.16 1.07 0.22 1.45 0.06 0.39 0.10 0.71 0.09 0.72 -0.02 0.02 -0.66 0.12 -0.74 0.12 -0.03 0 -0.10 -0.09 -0.10 -0.39z M8.16 17.41 c0 -0.02 -0.04 -0.25 -0.08 -0.50 -0.04 -0.26 -0.27 -1.75 -0.51 -3.32 -0.24 -1.56 -0.50 -3.26 -0.58 -3.75 -0.08 -0.50 -0.26 -1.70 -0.41 -2.68 -0.09 -0.59 -0.20 -1.31 -0.24 -1.60 -0.04 -0.29 -0.16 -1.05 -0.26 -1.68 -0.10 -0.63 -0.29 -1.85 -0.41 -2.67 -0.17 -1.12 -0.20 -1.54 -0.15 -1.55 0.03 -0.01 0.37 -0.08 0.64 -0.11 0.11 -0.01 0.16 -0.01 0.16 0.01 0 0.01 0.14 0.95 0.32 2.08 0.17 0.96 0.37 2.40 0.49 3.19 0.12 0.79 0.26 1.73 0.35 2.24 l0.25 1.60 0.21 1.37 c0.23 1.56 0.54 3.51 0.72 4.60 0.33 1.97 0.50 3.16 0.48 3.17 -0.02 0.01 -0.41 0.08 -0.65 0.11 -0.09 0.01 -0.12 0 -0.13 -0.02z M10.02 17.09 c-0.01 -0.07 -0.63 -4.04 -0.85 -5.48 -0.07 -0.45 -0.39 -2.57 -0.72 -4.70 -0.23 -1.47 -0.59 -3.89 -0.57 -3.90 0.02 -0.01 0.13 -0.03 0.26 -0.05 0.12 -0.01 0.28 -0.04 0.35 -0.05 0.07 -0.02 0.13 -0.02 0.14 0 0.01 0.01 0.11 0.59 0.21 1.28 0.10 0.69 0.38 2.47 0.60 3.94 0.23 1.48 0.46 2.99 0.52 3.37 0.23 1.54 0.84 5.44 0.85 5.49 0.01 0.04 -0.01 0.05 -0.21 0.09 -0.12 0.02 -0.27 0.04 -0.33 0.05 -0.06 0.01 -0.15 0.02 -0.18 0.03 -0.05 0.01 -0.06 0 -0.07 -0.05z M11.14 16.99 c0 -0.01 -0.20 -1.31 -0.56 -3.66 -0.14 -0.93 -0.39 -2.55 -0.55 -3.60 -0.12 -0.79 -0.26 -1.68 -0.30 -1.98 -0.44 -2.82 -0.71 -4.65 -0.70 -4.67 0.03 -0.04 0.74 -0.13 0.77 -0.11 0.01 0 0.13 0.80 0.28 1.76 0.15 0.96 0.37 2.40 0.49 3.19 0.12 0.79 0.26 1.68 0.31 1.98 0.10 0.63 0.45 2.97 0.70 4.60 0.10 0.63 0.25 1.59 0.33 2.13 0.08 0.54 0.15 0.99 0.15 1.00 0 0.02 -0.20 0.06 -0.54 0.11 -0.28 0.04 -0.26 0.04 -0.26 0.03z M4.97 24 c-0.02 -0.07 -0.30 -1.90 -0.28 -1.90 0.02 -0.02 1.87 -0.31 1.88 -0.29 0.01 0.01 0.03 0.15 0.16 0.97 0.06 0.38 0.12 0.74 0.13 0.80 0.01 0.06 0.01 0.12 0 0.12 -0.02 0.01 -0.15 0.04 -0.59 0.10 -0.75 0.11 -1.00 0.15 -1.02 0.18 -0.02 0.02 -0.27 0.04 -0.27 0.02z M7.95 23.61 c0 -0.02 -0.07 -0.44 -0.14 -0.94 -0.08 -0.52 -0.14 -0.92 -0.12 -0.93 0.02 -0.02 1.74 -0.28 1.84 -0.28 0.03 0 0.05 0.01 0.05 0.02 0 0.02 0.15 0.95 0.24 1.54 0.03 0.18 0.05 0.33 0.04 0.33 -0.01 0.01 -0.15 0.04 -0.33 0.06 -0.17 0.03 -0.41 0.06 -0.53 0.08 -0.38 0.06 -1.00 0.15 -1.02 0.15 -0.01 0 -0.03 -0.01 -0.03 -0.03z M10.83 22.27 c-0.08 -0.51 -0.15 -0.94 -0.15 -0.95 0 -0.02 0.05 -0.04 0.11 -0.04 0.06 -0.01 0.45 -0.07 0.87 -0.13 0.42 -0.06 0.79 -0.12 0.84 -0.12 l0.08 0 0.09 0.57 c0.05 0.31 0.11 0.73 0.15 0.93 0.04 0.27 0.05 0.37 0.03 0.38 -0.03 0.02 -0.06 0.02 -0.76 0.13 -0.22 0.03 -0.48 0.07 -0.58 0.09 -0.10 0.02 -0.26 0.04 -0.35 0.05 l-0.18 0.02 -0.15 -0.93z M13.98 22.70 c-0.02 -0.05 -0.31 -1.86 -0.30 -1.87 0.01 -0.01 1.64 -0.27 4.27 -0.67 2.82 -0.43 4.08 -0.63 4.13 -0.64 0.05 -0.01 0.05 0 0.07 0.11 0.01 0.07 0.08 0.49 0.15 0.95 0.08 0.46 0.13 0.84 0.12 0.85 -0.02 0.02 -0.74 0.13 -1.72 0.28 -0.98 0.14 -1.41 0.21 -1.68 0.26 -0.14 0.03 -0.41 0.07 -0.60 0.09 -0.19 0.03 -0.40 0.06 -0.48 0.07 -0.08 0.01 -0.25 0.04 -0.38 0.06 -0.13 0.02 -0.62 0.10 -1.12 0.17 -1.30 0.19 -1.40 0.20 -1.45 0.20z M4.48 21.03 c-0.02 -0.11 -0.27 -1.77 -0.27 -1.80 0 -0.04 0.08 -0.06 1.01 -0.21 0.76 -0.12 0.89 -0.13 0.89 -0.10 0 0.01 0.06 0.43 0.14 0.94 0.08 0.51 0.14 0.93 0.13 0.94 -0.01 0.01 -0.40 0.07 -1.15 0.19 -0.82 0.12 -0.75 0.12 -0.76 0.04z M7.49 20.59 c-0.01 -0.03 -0.06 -0.36 -0.12 -0.74 -0.06 -0.38 -0.12 -0.76 -0.13 -0.84 -0.04 -0.23 -0.03 -0.26 0.05 -0.29 0.04 -0.02 0.18 -0.04 0.30 -0.06 1.51 -0.24 1.50 -0.23 1.52 -0.20 0 0.01 0.07 0.44 0.15 0.94 0.09 0.62 0.13 0.92 0.12 0.93 -0.03 0.02 -1.40 0.24 -1.73 0.27 -0.13 0.01 -0.15 0.01 -0.16 -0.03z M10.51 20.13 c-0.01 -0.04 -0.25 -1.55 -0.28 -1.77 l-0.02 -0.11 0.83 -0.12 c0.46 -0.07 0.88 -0.14 0.95 -0.15 0.06 -0.01 0.12 -0.02 0.12 -0.01 0.01 0.01 0.29 1.80 0.29 1.86 0 0.05 -0.02 0.06 -0.19 0.08 -0.20 0.03 -0.27 0.04 -1.05 0.16 -0.66 0.11 -0.63 0.10 -0.64 0.06z M13.50 19.66 c-0.01 -0.03 -0.16 -0.95 -0.26 -1.60 -0.02 -0.14 -0.03 -0.26 -0.03 -0.27 0.01 -0.01 0.07 -0.03 0.14 -0.04 0.07 -0.01 0.43 -0.06 0.80 -0.12 1.56 -0.25 7.23 -1.11 7.40 -1.13 l0.12 -0.01 0.06 0.40 c0.03 0.22 0.10 0.64 0.15 0.94 0.05 0.30 0.08 0.55 0.08 0.56 -0.02 0.02 -2.44 0.40 -3.75 0.59 -0.32 0.05 -0.74 0.11 -0.93 0.14 -0.19 0.03 -0.45 0.07 -0.58 0.09 -0.13 0.02 -0.40 0.06 -0.61 0.10 -0.21 0.03 -0.57 0.08 -0.81 0.13 -0.54 0.09 -0.54 0.09 -0.54 0.02z"/>
</svg>
