<svg role="img" viewBox="0 0 24 24" xmlns="http://www.w3.org/2000/svg"><title>Grafana k6</title><path d="M24,23.646H0L7.99,6.606,12.8,10.144,19.08.354Zm-8.8-3.681h.051a2.291,2.291,0,0,0,1.593-.64,2.1,2.1,0,0,0,.685-1.575,1.919,1.919,0,0,0-.66-1.513,2.007,2.007,0,0,0-1.37-.589h-.04a.673.673,0,0,0-.2.027l1.268-1.884-1.01-.7-.478.7L13.82,15.658c-.207.312-.384.581-.493.771a4.508,4.508,0,0,0-.291.622,1.978,1.978,0,0,0-.139.72,2.1,2.1,0,0,0,.677,1.556,2.253,2.253,0,0,0,1.578.64ZM9.834,17.938l1.4,1.978h1.493l-1.646-2.3,1.461-2.029-.969-.671-.428.565L9.833,17.339V13.614l-1.31-1.067v7.364h1.31V17.938Zm5.368.792a.964.964,0,0,1,0-1.926h.013a.938.938,0,0,1,.68.29.9.9,0,0,1,.29.668.977.977,0,0,1-.977.966Z"/></svg>
