<svg role="img" viewBox="0 0 24 24" xmlns="http://www.w3.org/2000/svg"><title>Gran Turismo</title><path d="M10.794 11.76H8.48c-.838 0-1.655.58-2.009 1.567-.225.632-1.201 3.404-1.387 3.992-.028.089.018.14.091.14H8.94c.109 0 .154-.048.18-.131.252-.78 1.81-5.294 1.824-5.377.014-.091-.023-.191-.15-.191m2.464-7.392c-.46-.015-1.794-.064-2.96.063-5.03.555-8.662 3.252-9.905 7.148-1.478 4.643 1.542 7.308 3.628 8.056.111.038.188.024.23-.082.042-.107.27-.7.296-.786.025-.085-.03-.145-.139-.19-2.124-.906-2.836-3.07-2.043-5.238.866-2.365 3.65-3.787 6.203-4.097.325-.04.9-.098 1.355-.106 1.287-.021 1.966-.286 2.285-1.203.353-1.014 1.102-3.21 1.15-3.364.046-.153.007-.197-.1-.201m4.805.22c.07-.207.123-.215.288-.215h5.466c.171 0 .216.036.16.212-.05.153-1.573 4.449-1.773 5.062-.035.11-.15.135-.204.135h-4.802c-.817 0-.84.007-1.157.987-.645 1.939-1.95 5.846-2.17 6.536-.033.1-.082.155-.173.155h-3.582c-.092 0-.107-.042-.081-.121.323-.993 2.63-7.724 2.687-7.864.1-.242.2-.433.55-.433h1.463c.921 0 1.822-.188 2.257-1.429 0 0 1.019-2.87 1.07-3.025" style="fill:#000;fill-opacity:1;stroke-width:.415272"/></svg>