<svg role="img" viewBox="0 0 24 24" xmlns="http://www.w3.org/2000/svg"><title>Gran Turismo</title><path d="M43.496.931c.17-.499.297-.518.694-.518h13.162c.413 0 .522.087.387.51-.12.368-3.788 10.714-4.271 12.19-.083.264-.36.325-.492.325H41.413c-1.966 0-2.023.018-2.785 2.376-1.554 4.67-4.695 14.08-5.227 15.739-.079.24-.195.374-.416.374H24.36c-.22 0-.256-.1-.194-.291.777-2.392 6.334-18.6 6.47-18.936.243-.584.483-1.044 1.323-1.044h3.524c2.22 0 4.389-.452 5.436-3.44 0 0 2.453-6.911 2.578-7.285M31.926.4c-1.106-.035-4.321-.153-7.13.152C12.688 1.89 3.94 8.384.947 17.766c-3.56 11.18 3.713 17.597 8.737 19.398.268.091.452.058.553-.197a68.54 68.54 0 0 0 .714-1.892c.06-.206-.072-.35-.335-.459-5.115-2.18-6.83-7.394-4.919-12.613 2.084-5.694 8.79-9.118 14.937-9.865.783-.096 2.168-.237 3.263-.255 3.1-.052 4.733-.69 5.502-2.897.849-2.443 2.654-7.728 2.767-8.102.113-.368.018-.473-.239-.484"/><path d="m25.992 18.2-5.57.002c-2.018 0-3.985 1.394-4.836 3.773-.543 1.522-2.893 8.198-3.34 9.613-.068.214.042.34.219.34h9.063c.261 0 .37-.118.435-.319.606-1.88 4.357-12.749 4.39-12.947.033-.22-.055-.461-.36-.461"/></svg>

