<svg xmlns="http://www.w3.org/2000/svg" viewBox="0 0 240 240"><path fill="#473a3a" d="m77.4 159.7-35-60.6c-1.5-2.3-.8-5.4 1.5-6.9s5.4-.8 6.9 1.5c.1.1.2.3.2.4l35 60.6c1.5 2.3.8 5.4-1.5 6.9s-5.4.8-6.9-1.5c-.1-.1-.2-.3-.2-.4M235.6 219c.3 3-.8 6-3.1 8.1-4.2 5.1-22.4 8.9-36.1 10.8-9.1 1.3-18.3 2-27.5 2.1-8.6-.1-20.6-2.3-32-3-16.1-1-69.4-3-87.8-2.9-20.6.1-24.7-1.1-28.2-4.1-1.4-1.1 10.3-7 35-9 60.2-4.9 113.3-5.5 131.4-4.6 7.3.4 14.5 1.7 21.5 3.8l-38.6-27.7c-3.2 2.1-7 3.3-10.8 3.3h-90c-7.1 0-13.7-3.8-17.3-10l-45-77.9c-3.6-6.2-3.6-13.8 0-20l45-77.9C55.6 3.8 62.2 0 69.4 0h90c7.1 0 13.8 3.8 17.3 10l33.2 57.5 11.8 20.4.1.2c0 .1.1.2.1.2 1.4 2.5 2.2 5.2 2.4 8.1 0 .5 10.3 112.5 11.2 121.9l.1.7zM65.2 27.3l56.1 97.2c7-1.7 14.2-2.6 21.4-2.5l14.8-20.1 24.8-2.8c3.6-6.3 7.9-12.1 12.9-17.3l-33.3-57.6c-1.7-2.5-4.5-4.1-7.5-4.3h-80c-3 .2-5.8 1.8-7.5 4.3l-1.7 3.1zM147 175.9l-31-22.2c-1.1-.8-2.1-1.9-2.8-3.1L53.6 47.3 26.9 93.6c-1.4 2.7-1.4 5.9 0 8.7l40 69.3c1.7 2.6 4.5 4.2 7.5 4.3H147zm63.8-4.3-7-70.9c-4.4 4.8-8.3 10.1-11.5 15.8l-24.8 2.8-14.8 20.1c-6.5 0-13.1.7-19.4 2.1l57.9 41.5c3.3-7.7 11.3-12.3 19.6-11.4"/></svg>