<svg viewBox="0 0 16 16" xmlns="http://www.w3.org/2000/svg" fill-rule="evenodd" clip-rule="evenodd" stroke-linejoin="round" stroke-miterlimit="1.414"><path d="M8 0C3.582 0 0 3.582 0 8s3.582 8 8 8 8-3.582 8-8-3.582-8-8-8zm4.326 9.31c-.834-.55-1.31-1.016-1.726-1.852-.284.573-.947 1.424-2.065 2.093-.56 1.738-3.215 5.062-4.075 4.59-.254-.138-.302-.322-.245-.51.062-.476 1.044-1.567 1.044-1.567s.02.23.334.71c-.415-1.288.686-2.877.977-3.42.46-.145.493-.733.493-.733.03-.91-.377-1.568-.77-1.962.282.345.374.867.387 1.345v.003c.002.054.002.107 0 .16-.012.395-.132.94-.388.94v.005c-.262-.01-.587.046-.877.136l-.642.154s.342-.016.527.144c-.206.335-.664.75-1.174.987-.742.346-.956-.34-.58-.785.094-.11.187-.2.276-.276-.057-.06-.093-.14-.102-.24-.053-.228-.024-.523.297-.992.064-.1.14-.2.23-.304l.01-.01.012-.014c0-.003.003-.005.006-.008.023-.026.047-.052.073-.076.383-.393.988-.8 1.942-1.168 1.113-1.635 1.52-1.942 1.52-1.942.124-.126.34-.283.418-.323-.58-1.01-.698-2.433-.546-2.816-.012.02-.024.042-.033.064.057-.13.095-.173.154-.242.158-.188.696-.286.89.112.102.212.122.486.118.692C8.386 2.18 8 2.666 8 2.666s.353-.166.79-.17c0 0 .118.103.263.293-.196.37-.52 1.152-.286 1.974.04.162.098.3.17.42.004.004.006.01.01.015l.015.02c.388.583 1.098.65 1.098.65-.335-.166-.607-.43-.784-.753-.092-.173-.15-.318-.183-.433-.188-.726.09-1.15.247-1.434.364-.565 1.03-.907 1.742-.826 1.002.114 1.72 1.02 1.607 2.02-.07.612-.436 1.118-.937 1.394.12.326-.01.722-.01.722.305.382.32.602.308.807-.385-.065-.76.195-.76.195s.745-.177 1.177.21c.282.3.47.575.58.777.16.287.905.307.82.825-.085.518-.652.522-1.54-.064zM9.11 6.237c-.146-.146-.383-.146-.53 0l-.31.312c-.148.147-.148.384 0 .53l.34.343c.148.148.385.147.53 0l.313-.31c.147-.147.147-.385 0-.53l-.342-.344zm-1.47-.124c-.093.093-.093.245 0 .34.094.092.246.092.34 0 .093-.095.093-.247 0-.34-.094-.094-.246-.094-.34 0zm.846-.168c.094-.093.094-.245 0-.34-.094-.092-.245-.092-.34 0-.093.095-.093.247 0 .34.095.094.246.094.34 0zm3.59-.87c.394-.753-.165-1.193-.55-1.554-.616-.58-1.23-.83-1.933-.028-.702.802-.256 1.733.386 2.192.64.46 1.698.144 2.095-.61zm-1.064-.308c-.248-.297.215-.835.505-.513.534.592-.258.81-.505.513z"/></svg>