<svg role="img" viewBox="0 0 24 24" xmlns="http://www.w3.org/2000/svg"><title>Gravit Designer</title><path d="m11.999946.00022325a11.999847 11.999847 0 0 0 -1.450976.098006 11.999847 11.999847 0 0 0 -.0022 0 11.999846 11.999846 0 0 0 -.0085.00218 11.999847 11.999847 0 0 0 -10.41250889 10.26549375 11.999846 11.999846 0 0 0 -.0085.0554c-.0088.0088-.01668.01891-.02557.0277-.007.0546-.0085.10934-.01491.164059.0069-.006.01233-.01312.01918-.01918a11.999846 11.999846 0 0 0 -.0022.04048 11.999847 11.999847 0 0 0 -.08309 1.078111 11.999846 11.999846 0 0 0 -.01069.287639 11.999846 11.999846 0 0 0 .05966 1.197428 11.999847 11.999847 0 0 0 .477267 2.347982 11.999846 11.999846 0 0 0 .424 1.152683c-.000939.0014-.0034.0028-.0043.0043l.0022.0064c.78149299 1.900492 2.02829099 3.454303 3.51771199 4.636304a11.999847 11.999847 0 0 0 .110793.08949c.279124.216213.564234.423764.858654.613629a11.999846 11.999846 0 0 0 .01279.0085 11.999847 11.999847 0 0 0 .16193.100144 11.999847 11.999847 0 0 0 .279116.159799c.158347.09295.315292.189567.477266.274854a11.999846 11.999846 0 0 0 .01491.0085 11.999847 11.999847 0 0 0 .213065.115055 11.999846 11.999846 0 0 0 .01069.0064 11.999846 11.999846 0 0 0 .03836.01705c.267586.132325.53942.252594.813911.364341a11.999846 11.999846 0 0 0 .01491.0064 11.999847 11.999847 0 0 0 .406955.153406 11.999846 11.999846 0 0 0 .01491.0064c.196981.07154.395194.135084.594453.196019a11.999847 11.999847 0 0 0 .451698.134232c.268505.07076.537065.129791.807518.181106a11.999846 11.999846 0 0 0 .0085.0022 11.999847 11.999847 0 0 0 .4239999.07031 11.999846 11.999846 0 0 0 .03622.0064c.141803.02092.282308.03404.424.049.02781.0029.05528.0079.08309.01069a11.999847 11.999847 0 0 0 1.122854.0767 11.999846 11.999846 0 0 0 .142754.0043 11.999847 11.999847 0 0 0 1.936764-.170452 11.999847 11.999847 0 0 0 .02557-.0043c-.0012.0014-.0031.0028-.0043.0043.0234-.0038.047-.0108.07031-.01491a11.999847 11.999847 0 0 0 .0022 0 11.999847 11.999847 0 0 0 .735076-.151276c.0093-.0022.01846-.0041.0277-.0064a11.999847 11.999847 0 0 0 .264201-.06818 11.999846 11.999846 0 0 0 .01069-.0043 11.999847 11.999847 0 0 0 .675417-.193889c.0094-.0031.01834-.0074.0277-.01069a11.999847 11.999847 0 0 0 .245025-.08736 11.999846 11.999846 0 0 0 .0277-.01069 11.999847 11.999847 0 0 0 1.080242-.447439 11.999846 11.999846 0 0 0 .01069-.0043c.137291-.06506.274727-.128098.409086-.198151a11.999847 11.999847 0 0 0 .530533-.298292c.121753-.07158.241131-.14588.36008-.221588a11.999847 11.999847 0 0 0 .511357-.338774 11.999847 11.999847 0 0 0 .01069-.0064c.11147-.07937.217403-.166239.32599-.249286a11.999847 11.999847 0 0 0 .830956-.696726c.06504-.05976.12924-.121086.193889-.181104a11.999847 11.999847 0 0 0 .138492-.12784 11.999846 11.999846 0 0 0 .0022-.0022 11.999847 11.999847 0 0 0 .38991-.411216 11.999847 11.999847 0 0 0 .0064-.0064c.114078-.124434.22571-.252207.334512-.381386a11.999847 11.999847 0 0 0 .330252-.404824c.0559-.07254.106123-.149527.159799-.223719a11.999847 11.999847 0 0 0 .268234-.372927 11.999846 11.999846 0 0 0 .01491-.02343 11.999847 11.999847 0 0 0 .240764-.368604 11.999847 11.999847 0 0 0 .0064-.01069c.149529-.241022.291495-.487327.424001-.739338a11.999846 11.999846 0 0 0 .0043-.0064 11.999847 11.999847 0 0 0 .166192-.338775 11.999847 11.999847 0 0 0 .0022-.0064c.105839-.218433.205576-.44131.298293-.666895a11.999846 11.999846 0 0 0 .0022-.0022 11.999847 11.999847 0 0 0 .129971-.32599 11.999847 11.999847 0 0 0 .0043-.01069c.104628-.278608.19721-.562109.281246-.850132a11.999847 11.999847 0 0 0 .05752-.183236c.01093-.03984.01712-.08148.0277-.121447.07216-.272458.141234-.546773.19389-.826695-.0031.0023-.0055.0041-.0085.0064a11.999846 11.999846 0 0 0 .0022-.01491 11.999847 11.999847 0 0 0 .12997-.914051 11.999846 11.999846 0 0 0 .04048-.328121 11.999847 11.999847 0 0 0 .04475-.97797 11.999847 11.999847 0 0 0 -6.999201-10.8919067 11.999847 11.999847 0 0 0 -.0085-.00425c-.126434-.057757-.250288-.11694134-.379256-.17045738a11.999846 11.999846 0 0 0 -.01705-.006436 11.999847 11.999847 0 0 0 -.539055-.20880387 11.999847 11.999847 0 0 0 -.01279-.00425c-.04409-.015698-.08988-.029541-.134231-.044749a11.999846 11.999846 0 0 0 -.01491-.00425 11.999847 11.999847 0 0 0 -1.161207-.3345132 11.999846 11.999846 0 0 0 -.0085-.00218c-.0037-.0008346-.007-.00131-.01069-.00218a11.999847 11.999847 0 0 0 -1.069589-.2002818 11.999846 11.999846 0 0 0 -.29403-.034091 11.999847 11.999847 0 0 0 -.894875-.074574 11.999846 11.999846 0 0 0 -.45596-.017051zm-.790474.84586916c-3.2328729 4.99876839-6.4658599 9.99850759-9.6987379 14.99980859a11.181675 11.181675 0 0 1 -.69246399-3.845831 11.181675 11.181675 0 0 1 .23011099-2.2435799c2.271883-2.0033984 4.544759-4.0070411 6.815964-6.0105759 1.093252-.9655305 2.1903599-1.9301578 3.2833389-2.89129863a11.181675 11.181675 0 0 1 .06179-.008509zm-1.6810859.26207119c-2.800662 2.7698035-5.595422 5.539751-8.394779 8.3095523a11.181675 11.181675 0 0 1 8.394779-8.3095523zm7.3678039.8543923a11.181675 11.181675 0 0 1 6.285431 10.0375141 11.181675 11.181675 0 0 1 -.426131 3.019137c-.982916.757316-1.956887 1.553654-2.83377 2.37568-2.233219 2.096457-3.656873 3.786214-5.066698 5.409732a11.181675 11.181675 0 0 1 -2.855076.377126 11.181675 11.181675 0 0 1 -.781951-.03836c.197212-6.513113 2.367432-14.3802749 5.678195-21.1808334z"/></svg>
