<svg role="img" viewBox="0 0 24 24" xmlns="http://www.w3.org/2000/svg"><title>Gravit Designer icon</title><path d="M12 0a12 12 0 0 0-1.451.098 12 12 0 0 0-.002 0 12 12 0 0 0-.009.002A12 12 0 0 0 .126 10.366a12 12 0 0 0-.009.055c-.009.01-.016.02-.025.028-.007.055-.009.11-.015.164l.019-.02a12 12 0 0 0-.002.041 12 12 0 0 0-.083 1.078A12 12 0 0 0 0 12a12 12 0 0 0 .06 1.198 12 12 0 0 0 .477 2.348 12 12 0 0 0 .424 1.152l-.004.005.002.006c.781 1.9 2.028 3.454 3.518 4.636a12 12 0 0 0 .11.09c.28.216.565.423.859.613a12 12 0 0 0 .013.009 12 12 0 0 0 .162.1 12 12 0 0 0 .279.16c.158.093.315.19.477.275a12 12 0 0 0 .015.008 12 12 0 0 0 .213.115 12 12 0 0 0 .01.007 12 12 0 0 0 .04.017c.267.132.539.252.813.364a12 12 0 0 0 .015.006 12 12 0 0 0 .407.154 12 12 0 0 0 .015.006c.197.072.395.135.594.196a12 12 0 0 0 .452.134c.268.071.537.13.807.182a12 12 0 0 0 .009.002 12 12 0 0 0 .424.07 12 12 0 0 0 .036.006c.142.021.282.034.424.05.028.002.055.007.083.01a12 12 0 0 0 1.123.077A12 12 0 0 0 12 24a12 12 0 0 0 1.937-.17 12 12 0 0 0 .025-.005l-.004.005.07-.015a12 12 0 0 0 .002 0 12 12 0 0 0 .735-.152l.028-.006a12 12 0 0 0 .264-.068 12 12 0 0 0 .011-.004 12 12 0 0 0 .675-.194l.028-.011a12 12 0 0 0 .245-.087 12 12 0 0 0 .028-.011 12 12 0 0 0 1.08-.447 12 12 0 0 0 .01-.005c.138-.065.276-.128.41-.198a12 12 0 0 0 .53-.298c.122-.072.242-.146.36-.222a12 12 0 0 0 .512-.339 12 12 0 0 0 .01-.006c.112-.08.218-.166.327-.25a12 12 0 0 0 .83-.696c.066-.06.13-.121.194-.181a12 12 0 0 0 .139-.128 12 12 0 0 0 .002-.002 12 12 0 0 0 .39-.411 12 12 0 0 0 .006-.007c.115-.124.226-.252.335-.381a12 12 0 0 0 .33-.405c.056-.072.106-.15.16-.224a12 12 0 0 0 .268-.373 12 12 0 0 0 .015-.023 12 12 0 0 0 .24-.369 12 12 0 0 0 .007-.01c.15-.241.292-.488.424-.74a12 12 0 0 0 .005-.006 12 12 0 0 0 .166-.339 12 12 0 0 0 .002-.006c.106-.219.206-.442.298-.667a12 12 0 0 0 .002-.002 12 12 0 0 0 .13-.326 12 12 0 0 0 .005-.011c.104-.279.197-.562.281-.85a12 12 0 0 0 .058-.183c.01-.04.017-.082.027-.122.072-.272.141-.547.194-.827a.627.627 0 0 0-.008.007 12 12 0 0 0 .002-.015 12 12 0 0 0 .13-.914 12 12 0 0 0 .04-.328A12 12 0 0 0 24 12a12 12 0 0 0-7-10.892 12 12 0 0 0-.008-.004c-.126-.058-.25-.117-.379-.17a12 12 0 0 0-.017-.007 12 12 0 0 0-.539-.209 12 12 0 0 0-.013-.004c-.044-.016-.09-.03-.134-.045a12 12 0 0 0-.015-.004A12 12 0 0 0 14.734.33a12 12 0 0 0-.009-.002l-.01-.002a12 12 0 0 0-1.07-.2 12 12 0 0 0-.294-.035 12 12 0 0 0-.895-.074A12 12 0 0 0 12 0zm-.79.846-9.7 15A11.182 11.182 0 0 1 .819 12a11.182 11.182 0 0 1 .23-2.244l6.816-6.01c1.094-.966 2.19-1.93 3.284-2.891a11.182 11.182 0 0 1 .061-.009zm-1.682.262c-2.8 2.77-5.595 5.54-8.394 8.31a11.182 11.182 0 0 1 8.394-8.31zm7.368.855A11.182 11.182 0 0 1 23.182 12a11.182 11.182 0 0 1-.427 3.02c-.982.757-1.956 1.553-2.833 2.375-2.233 2.096-3.657 3.786-5.067 5.41a11.182 11.182 0 0 1-2.855.377 11.182 11.182 0 0 1-.782-.039c.197-6.513 2.367-14.38 5.678-21.18z"/></svg>