<svg role="img" viewBox="0 0 24 24" xmlns="http://www.w3.org/2000/svg"><title>GreptimeDB</title><path d="M17.055 15.3h-1.96a4.5 4.5 0 0 1-3.073 1.2A4.51 4.508 0 0 1 7.506 12a4.51 4.508 0 0 1 4.516-4.5 4.516 4.514 0 0 1 4.457 3.75H18A6.017 6.014 0 0 0 12.023 6C8.697 6 6 8.688 6 12s2.697 6 6.024 6a6.024 6.023 0 0 0 5.032-2.7zm3.351 0a9.023 9.018 0 0 1-8.39 5.7C7.035 21 3 16.972 3 12c0-4.97 4.037-9 9.015-9C16.742 3 20.62 6.63 21 11.25h-1.508a7.51 7.507 0 0 0-7.477-6.749c-4.148 0-7.513 3.357-7.513 7.5S7.866 19.5 12.015 19.5a7.517 7.514 0 0 0 6.75-4.2ZM12.007 24c6.43 0 11.68-5.051 11.993-11.4H13.383a1.501 1.502 0 0 1-1.376.9 1.5 1.5 0 1 1 0-3 1.5 1.5 0 0 1 1.3.75h1.607A3 3 0 0 0 12.007 9a3.002 3 0 1 0 0 6 3 3 0 0 0 2.282-1.05h8.045c-.916 4.868-5.191 8.55-10.327 8.55C6.205 22.5 1.5 17.8 1.5 12c0-5.798 4.705-10.5 10.508-10.5 5.549 0 10.095 4.301 10.48 9.751h1.504C23.605 4.971 18.387 0 12.007 0 5.375.001 0 5.373 0 12c0 6.628 5.376 12 12.007 12"/></svg>