<svg role="img" viewBox="0 0 24 24" xmlns="http://www.w3.org/2000/svg"><title>Greptile</title><path d="M4.195 0a.6.6 0 0 0-.4.173l-3.58 3.58a.59.59 0 0 0-.083.73 22.6 22.6 0 0 1 3.167 8.58l.757 5.028a.165.165 0 0 0 .265.104l1.19-.941a8.05 8.05 0 0 1 4.995-1.738h.6a.33.33 0 0 0 .296-.188l.177-.38a7.06 7.06 0 0 1 3.411-3.411l.38-.178a.33.33 0 0 0 .188-.296v-.6c0-1.813.612-3.573 1.737-4.994l.943-1.19a.165.165 0 0 0-.105-.265l-5.028-.757A22.6 22.6 0 0 1 4.525.089.6.6 0 0 0 4.196 0m14.57 6.655a.3.3 0 0 0-.238.128c-.306.428-.572.91-.76 1.386q-.09.233-.162.47a6.3 6.3 0 0 0-.273 1.824c0 .123.097.223.22.228l.053.001v.002l6.015.204c.32.01.462-.399.205-.59l-2.921-2.16-1.933-1.43a.32.32 0 0 0-.206-.063m-2.042 6.057a.3.3 0 0 0-.121.03l-.862.402a5.27 5.27 0 0 0-2.554 2.554l-.402.861a.326.326 0 0 0 .144.427l4.708 2.474 3.005 1.58a.327.327 0 0 0 .441-.441l-4.053-7.713a.33.33 0 0 0-.306-.174m-6.217 4.577a6.3 6.3 0 0 0-2.294.436 6.3 6.3 0 0 0-1.6.92.173.173 0 0 0-.032.237l1.232 1.666 2.455 3.319c.19.258.6.115.588-.205l-.18-5.332-.03-.907a.14.14 0 0 0-.14-.134"/></svg>