<svg role="img" viewBox="0 0 24 24" xmlns="http://www.w3.org/2000/svg"><title>Groovy icon</title><path d="M535.27-164.843S465.184-48.71 431.885 7.763c-6.428 2.409-7.142 1.732-14.195 8.638-17.062-19.562-37.37-1.723-42.839 9.204-2.377-23.634-6.304-23.645-11.6-28.948 3.06-20.673 13.155-54.364-10.074-78.513C308.256-112.16 256.28-38.08 227.307.719l-15.62 25.914c-64.412-1.316-115.14.364-176.29-.874 74.565 27.945 77.655 28.596 167.743 62.78 0 2.755 6.736 15.497 14.144 22.983 6.157 6.222 12.872 9.737 16.23 11.826-4.408 2.256-13.364 5.777-16.026 10.746-12.189 22.747 5.767 28 17.4 46.121 13.118 23.69 15.942 39.365 46.909 26.068 10.614-4.557 23.417-6.194 31.595-8.74-28.854 45.545-36.271 57.99-86.797 136.408l.509.154c202.09-78.883 207.263-80.912 307.199-120.418 143.674 55.75 151.917 60.337 309.692 120.47-22.038-34.4-37.097-55.961-53.116-83.141 6.31-.51 20.135-1.9 32.41-9.702 8.86-5.63 19.264-11.977 28.643-23.925 18.45-23.505 22.975-53.184 16.23-90.236-3.208-17.62-9.777-34.746-8.853-35.375 85.88-32.436 95.985-35.957 176.088-66.173-96.256 1.41-100.903.464-191.3.668-1.472-17.239-10.14-26.104-36.734-25.246-9.945 1.63-16.2 5.027-20.86 18.562-14.866-27.408-35.405-19.345-44.11-5.862C730.91 1.997 704.155-1.95 690.7 6.632c-9.917-4.641-21.442-4.66-31.545 7.404-7.317-6.107-9.567-7.83-25.591-14.243-36.905-62.394-67.6-112.16-98.296-164.636zm.508 33.42c14.574 22.267 64.644 108.723 77.029 128.08-14.043.947-27.844 8.405-38.26 23.395-9.02-9.302-19.566-18.527-38.198-19.263-22.651-3.893-34.73 6.156-49.973 23.633-4.528-15.176-22.078-18.764-37.344-11.62 13.608-21.647 77.977-130.092 86.746-144.224zM345.75-35.015c-2.093 59.76-44.498 112.98-74.892 93.527-22.965-18.692 6.205-65.992 24.574-82.678-1.363 12.753 10.236 20.718.967 32.033-18.567 22.665-11.261 39.015-3.256 41.545 21.367 6.751 41.821-51.132 41.821-91.728 0-26.032-15.234-25.55-45.23 5.656C248.78 5.944 226.67 47.198 241.4 75.479c8.208 15.758 20.205 27.094 39.94 24.731 38.537-4.613 61.796-52.272 64.308-82.832 6.146-.154 4.52.37 6.157-.874 0 5.391 7.396 31.46 13.228 48.589 7.632 29.243 40.173 87.916-57.034 110.752-18.387 4.633-25.614 6.174-43.755 13.316-8.893-18.42-10.983-24.365-29.05-42.161 24.513-8.558 24.687-7.713 40.498-13.214 61.134-21.27 79.514-39.451 77.385-65.403 0 0 .745-13.374-7.734-24.525-4.28 14.93-12.21 26.89-12.21 26.89-18.18 28.334-53.975 45.876-85.78 34.707-17.394-6.108-24.88-19.425-24.88-42.316 0-29.265 66.724-113.96 99.466-128.336 23.13-6.883 24.124 12.203 23.811 30.181zm270.924 54.194c10.82.201 22.64 5.521 30.628 14.14 24.75 26.7 22.05 59.04 6.818 79.387-18.122 24.204-63.84 13.467-74.638-20.361-5.017-15.718 3.944-54.655 19.791-67.665 4.785-3.927 10.908-5.623 17.4-5.501zm-88.019 2.725a20.9 20.9 0 014.885.72c20.94 1.265 25.389 13.006 29.203 23.343 9.614 26.049 7.208 50.457-12.566 70.44-29.62 29.934-64.133 16.707-64.005-23.651.612-28.7 18.49-71.43 42.483-70.852zm77.843 1.594c-15.968 11.945-18.037 42.61-3.358 53.987 5.771 5.388 8.978 9.14 25.54 10.643 11.374 1.033 29.326-10.503 30.222-21.955.405-5.178-.527-13.856-13.025-27.919-10.468-11.779-24.1-14.518-27.524-12.494-11.022 6.513.884 11.692 5.19 15.99 6.766 6.758 8.389 9.713 5.24 11.724-6.264 3.998-13.226 3.427-15.518 2.365-4.357-2.02-18.975-10.245-6.767-32.341zm156.601.102c6.957 10.838 8.965 13.182 16.74 40.208 10.039 34.902 22.785 48.467 34.036 42.11 30.838-17.42 6.127-61.53-4.731-82.266 6.958-.099 5.58.289 11.905.205 5.009 19.626 3.608 16.136 16.993 75.532 16.016 71.07 18.41 89.993-22.03 121.909-18.583 14.667-45.957 15.44-69.448 14.14l-26.507-3.908c18.266-11.98 22.702-23.201 22.59-46.532 53.247 22.324 81.62 5.506 92.953-21.904 5.457-13.199 3.564-30.615-1.679-61.289.329 24.995-.212 29.602-3.51 41.956-6.617 24.785-22.809 31.707-33.834 14.14-4.243-6.76-14.384-29.21-17.502-53.37-3.118-24.162-5.507-58.154-20.86-72.344 1.68-3.341 3.417-7.103 4.884-8.587zm-51.946.412c10.748 2.856 23.823 8.527 30.857 21.683 9.716 18.172 16.15 27.845 15.62 60.294-.565 34.643-14.184 43.936-23.175 45.228-11.613 1.668-31.746 1.43-43.704-66.585-3.96-22.53-11.194-43.97-18.773-51.005 3.764-4.544 4.061-3.975 6.868-8.484 3.818 4.175 7.115 11.232 12.414 32.392 8.433 33.67 16.133 40.621 31.036 42.522 23.282 2.97 32.437-32.526 13.279-57.998-4.206-5.59-15.201-12.786-20.98-9.814.334 9.818 4.726 6.734 4.775 13.233-1.097 7.726-2.215 9.108-4.706 13.343-5.916-2.325-8.789-3.244-13.954-12.134-6.527-12.902-2.285-25.012 10.443-22.675zM519.6 27.199c-10.955 7.717-24.724 33.317-12.668 56.25 5.953 8.52 12.373 15.5 26.609 12.494 10.172-2.148 27.946-14.161 30.424-31.21 2.125-14.614-19.007-42.827-30.78-36.249-13.63 7.614-5.317 13.078 3.103 21.287 7.699 7.505 2.17 12.03-3.205 14.242-10.762 4.428-16.791.118-19.486-8.432-2.696-8.55-.37-15.833 6.003-28.382zm-119.46 2.673c2.34 7.167 4.213 16.712 9.106 25.966 1.152.957 5.48.05 11.194-6.53 3.599-4.145 7.688-9.91 14.856-19.282 4.364 3.973 4.744 6.928 5.953 9.101 3.01 5.415 9.359 4.987 11.345 4.422 7.01-6.94 8.124-11.441 12.77-12.031.432 8.974.867 14.562-10.735 28.176-6.795 7.974-17.218 8.165-20.86 7.147-5.018-1.403-8.272-4.496-16.187-8.53-10.756 1.65-7.906 13.118-5.995 22.772 5.037 25.452 20.88 35.599 34.698 28.125 4.808-2.6 3.708-2.584 12.974-6.375-1.551 16.153-2.48 19.282.407 37.328-22.54 12.545-40.884 10.377-45.891-21.08-3.8-26.361-10.883-58.354-17.299-64.837-6.058-6.122-8.547-8.124-8.547-8.124s7.59-10.073 12.21-16.248zm-296.414 3.394c31.372.39 66.746.398 104.401.72-5.407 13.237-7.262 22.506-8.038 35.58-17.579-6.805-78.177-28.499-96.363-36.3zm863.445.411c-41.538 14.97-71.448 26.557-111.524 41.853-4.384-18.773-5.186-24.503-9.107-41.442 66.693-.195 67.819-.093 120.63-.41zM676.455 118.72c4.361 17.913 10.512 26.691 10.512 26.691 8.417 14.48 18.938 22.699 35.014 26.84 3.538 5.672 4.785 6.79 6.186 9.84 1.532 19.055.427 21.422-14.373 32.265-8.688 8.507-9.059 20.69-.097 32.032 9.636 9.134 19.761 12.43 57.288 2.674 7.255 12.467 17.395 27.2 32.308 50.697-50.229-18.928-119.496-45.95-267.922-103.708 0 0-173.684 67.432-266.802 103.76 38.946-61.435 42.159-66.61 69.855-109.621 9.375-3.652 6.216-2.153 14.55-6.427 19.13-10.186 34.479-25.374 42.84-47.715 15.328 34.566 32.45 38.538 68.176 27.302 7.371-3.394 15.837-8.347 17.654-21.595 19.143 17.238 59.667 20.425 89.24-15.888 25.498 29.84 83.392 32.68 105.57-7.147zm89.85 35.992s1.703 5.381 2.696 7.044c-4.232.141-8.903.052-8.903.052 2.12-1.743 3.826-3.87 6.207-7.096z"/></svg>