<svg role="img" viewBox="0 0 24 24" xmlns="http://www.w3.org/2000/svg"><title>gRPC</title><path d="M2.693 15.556c.172.233.398.42.674.56.278.14.586.21.926.21.297 0 .55-.045.759-.13.21-.088.377-.204.506-.354.128-.149.22-.323.276-.522.057-.2.085-.414.085-.64v-.75h-.018c-.19.286-.423.488-.697.607-.274.12-.563.18-.866.18a2.256 2.256 0 0 1-.854-.162 2.17 2.17 0 0 1-.693-.442 2.037 2.037 0 0 1-.465-.675 2.117 2.117 0 0 1-.17-.849 2.222 2.222 0 0 1 .603-1.537 2 2 0 0 1 .671-.46c.26-.11.544-.166.854-.166.125 0 .257.012.397.036a1.883 1.883 0 0 1 .836.371c.137.104.265.237.384.398h.018v-.697h.59v4.147c0 .225-.028.467-.085.724a1.787 1.787 0 0 1-.33.705 1.883 1.883 0 0 1-.684.537c-.293.142-.674.214-1.144.214a2.885 2.885 0 0 1-1.118-.205 2.597 2.597 0 0 1-.893-.634zm.107-2.985a1.63 1.63 0 0 0 .934 1.475l.01.004c.186.087.391.13.612.13a1.632 1.632 0 0 0 1.126-.444v.001a1.41 1.41 0 0 0 .343-.505 1.627 1.627 0 0 0 .112-.66c0-.22-.036-.428-.107-.622a1.492 1.492 0 0 0-.313-.509 1.511 1.511 0 0 0-.5-.35 1.628 1.628 0 0 0-.661-.129 1.458 1.458 0 0 0-.613.13 1.613 1.613 0 0 0-.491.348 1.635 1.635 0 0 0-.452 1.131zm6.113 2.145H8.27V8.388h1.948c.644 0 1.151.14 1.523.42.373.28.56.703.56 1.27 0 .44-.14.811-.416 1.113-.277.3-.679.475-1.202.522l1.823 3.003h-.787l-1.734-2.94H8.913zm0-3.53h1.144c.286 0 .53-.03.729-.09.2-.06.36-.138.478-.237a.866.866 0 0 0 .26-.348 1.168 1.168 0 0 0 .08-.433c0-.15-.027-.29-.08-.425a.899.899 0 0 0-.26-.353 1.263 1.263 0 0 0-.479-.237 2.703 2.703 0 0 0-.728-.085H8.913zm4.701-2.798h1.841c.644 0 1.151.14 1.524.42.372.28.559.703.559 1.27 0 .566-.187.99-.56 1.273-.372.283-.879.425-1.523.425h-1.198v2.94h-.643zm.643 2.798h1.038c.285 0 .529-.03.728-.09.2-.06.36-.138.478-.237a.865.865 0 0 0 .26-.348 1.168 1.168 0 0 0 .08-.433c0-.15-.027-.29-.08-.425a.899.899 0 0 0-.26-.353 1.278 1.278 0 0 0-.479-.237 2.705 2.705 0 0 0-.727-.085h-1.038zM24 13.716a2.517 2.517 0 0 1-.938.826 3.086 3.086 0 0 1-1.403.336c-.471 0-.908-.084-1.31-.251a3.187 3.187 0 0 1-1.045-.693 3.176 3.176 0 0 1-.693-1.05 3.461 3.461 0 0 1-.25-1.332c0-.482.083-.926.25-1.332.167-.404.398-.754.693-1.05a3.189 3.189 0 0 1 1.045-.692 3.384 3.384 0 0 1 1.31-.25c.393 0 .787.077 1.18.232.392.155.729.412 1.01.769l-.564.42a1.541 1.541 0 0 0-.267-.304 1.956 1.956 0 0 0-.39-.268 2.341 2.341 0 0 0-.452-.184l-.017-.004a1.775 1.775 0 0 0-.5-.071c-.405 0-.769.074-1.09.223a2.466 2.466 0 0 0-.819.6c-.223.249-.394.54-.513.87-.12.331-.18.679-.18 1.041 0 .363.06.71.18 1.041.119.33.29.621.514.872a2.48 2.48 0 0 0 1.908.822c.167 0 .332-.014.496-.044a2.04 2.04 0 0 0 .495-.158l-.013.006a1.827 1.827 0 0 0 .448-.29c.14-.122.27-.276.389-.46zM.07 7.138l-.03.26v-.26zm.039 0-.068.604v-.345l.03-.26zm.039 0-.108.948L0 7.743l.07-.604zm.039 0L.04 8.43v-.343l.107-.948zm.039 0L.04 8.774 0 8.43l.186-1.29zm.039 0L.04 9.117v-.343l.185-1.635zm.037 0L.041 9.461v-.344L.264 7.14zm.04 0L.04 9.805 0 9.461l.301-2.322zm.038 0-.34 3.01v-.345l.301-2.665zm.04 0-.376 3.319H.04v-.31l.338-3.01zm.038 0-.375 3.32h-.02l-.018-.001.374-3.319zm.04 0-.376 3.32h-.04L.46 7.14zm.038 0L.16 10.46H.122l.375-3.32zm.039 0L.2 10.46H.16l.376-3.32zm.039 0-.375 3.32h-.04l.376-3.32zm.038 0-.374 3.32h-.04l.376-3.32zm.039 0-.376 3.32H.278l.374-3.32zm.039 0-.376 3.32H.315l.376-3.32zm.039 0-.376 3.32H.354L.73 7.14zm.039 0-.376 3.32H.393L.77 7.14zm.039 0L.47 10.46H.432L.81 7.14zm.039 0-.377 3.32H.471l.376-3.32zm.038 0L.55 10.46H.51l.377-3.32zm.04 0-.376 3.32h-.04l.376-3.32zm.037 0-.374 3.32h-.04l.376-3.32zm.04 0-.376 3.32H.627l.374-3.32zm.038 0-.375 3.32h-.04l.376-3.32zm.04 0-.376 3.32h-.04l.376-3.32zm.038 0-.375 3.32h-.04l.376-3.32zm.039 0-.375 3.32H.78l.376-3.32zm.039 0-.376 3.32h-.04l.376-3.32zm.039 0-.375 3.32h-.04l.376-3.32zm.038 0-.374 3.32h-.04l.377-3.32zm.039 0-.376 3.32H.938l.375-3.32zm.039 0-.376 3.32H.975l.376-3.32zm.039 0-.376 3.32h-.039l.376-3.32zm.039 0-.376 3.32h-.039l.376-3.32zm.038 0-.375 3.32h-.039l.376-3.32zm.04 0-.376 3.32h-.039l.375-3.32zm.038 0-.375 3.32h-.04l.376-3.32zm.038 0-.374 3.32h-.04l.376-3.32zm.04 0-.375 3.32h-.04l.375-3.32zm.038 0-.375 3.32h-.037l.374-3.32zm.04 0-.376 3.32h-.04L1.7 7.14zm.038 0-.375 3.32h-.04l.376-3.32zm.039 0-.375 3.32h-.04l.376-3.32zm.039 0-.375 3.32h-.04l.376-3.32zm.039 0-.376 3.32h-.04l.377-3.32zm.039 0-.376 3.32h-.04l.377-3.32zm.038 0-.375 3.32h-.04l.377-3.32zm.039 0-.376 3.32h-.038l.375-3.32zm.039 0-.376 3.32h-.039l.376-3.32zm.039 0-.376 3.32h-.039l.376-3.32zm.038 0-.375 3.32h-.039l.376-3.32zm.04 0-.376 3.32h-.039l.375-3.32zm.038 0-.375 3.32h-.04l.375-3.32zm.04 0-.376 3.32h-.04l.376-3.32zm.038 0-.375 3.32h-.04l.376-3.32zm.038 0-.374 3.32h-.04l.376-3.32zm.04 0-.376 3.32h-.038l.374-3.32zm.038 0-.375 3.32h-.04l.376-3.32zm.04 0-.376 3.32h-.04L2.4 7.14zm.038 0L2.1 10.46h-.038l.375-3.32zm.039 0-.376 3.32h-.039l.376-3.32zm.039 0-.376 3.32H2.14l.376-3.32zm.039 0-.376 3.32h-.04l.377-3.32zm.038 0-.375 3.32h-.04l.377-3.32zm.039 0-.376 3.32h-.038l.375-3.32zm.038 0-.375 3.32h-.038l.375-3.32zm.63 0 .022.002-.039 3.319h-.988l.375-3.32zm3.873 1.236-.026-.569h.026zm0 .598-.054-1.167h.028l.026.57zm0 .597L7.13 7.807h.028l.054 1.167zm-.019.184-.09-1.948h.027l.082 1.764v.184zm-.028 0-.09-1.948h.027l.09 1.948zm-.027 0-.092-1.948h.028l.09 1.948zm-.029 0-.09-1.948h.027l.092 1.948zm-.028 0-.09-1.948h.027l.091 1.948zm-.028 0-.09-1.948h.027l.091 1.948zm-.027 0-.09-1.948h.027l.09 1.948zm-.028 0-.09-1.948h.027l.09 1.948zm-.028 0-.09-1.947h.027l.09 1.948zm-.028 0-.09-1.948h.028l.09 1.948zm-.028 0-.09-1.948h.028l.09 1.948zm-.027 0-.09-1.948h.027l.09 1.948zm-.028 0-.09-1.948h.027l.09 1.948zm-.028 0-.09-1.948h.027l.09 1.948zm-.028 0-.09-1.948h.027l.09 1.948zm-.027 0-.091-1.948h.028l.09 1.948zm-.028 0-.091-1.948h.028l.09 1.948zm-.03 0L6.63 7.806h.028l.09 1.948zm-.026 0L6.6 7.806h.028l.09 1.948zm-.028 0-.09-1.948h.027l.09 1.948zm-.028 0-.09-1.948h.027l.09 1.948zm-.027 0-.092-1.948h.028l.09 1.948zm-.029 0-.09-1.948h.027l.092 1.948zm-.028 0-.09-1.948h.027l.091 1.948zm-.027 0-.09-1.948h.027l.09 1.948zm-.028 0-.09-1.948h.027l.09 1.948zm-.028 0-.09-1.948h.027l.09 1.948zm-.028 0L6.35 7.806h.028l.09 1.948zm-.028 0-.09-1.948h.027l.09 1.948zm-.028 0-.09-1.948h.027l.091 1.948zm-.028 0-.09-1.948h.028l.09 1.948zm-.028 0-.09-1.948h.028l.09 1.948zm-.027 0-.09-1.948h.027l.09 1.948zm-.027 0-.091-1.948h.028l.09 1.948zm-.028 0-.091-1.948h.028l.09 1.948zm-.028 0-.091-1.948h.028l.09 1.948zm-.03 0L6.1 7.806h.029l.09 1.948zm-.026 0-.09-1.948H6.1l.09 1.948zm-.028 0-.09-1.948h.027l.09 1.948zm-.028 0-.09-1.948h.027l.09 1.948zm-.027 0-.092-1.948h.028l.09 1.948zm-.03 0-.089-1.948h.027l.092 1.948zm-.026 0-.09-1.948h.027l.09 1.948zm-.028 0-.09-1.948h.027l.09 1.948zm-.028 0-.09-1.948h.027l.09 1.948zm-.028 0-.09-1.948h.027l.09 1.948zm-.028 0-.09-1.948h.027l.09 1.948zm-.028 0-.09-1.948h.027l.09 1.948zm-.028 0-.09-1.948h.027l.091 1.948zm-.028 0-.09-1.948h.027l.091 1.948zm-.028 0-.09-1.948h.027l.091 1.948zm-.028 0-.09-1.948h.028l.09 1.948zm-.027 0-.09-1.948h.028l.09 1.948zm-.028 0-.09-1.948h.028l.09 1.948zm-.027 0-.091-1.948h.028l.09 1.948zm-.028 0-.09-1.948h.027l.09 1.948zm-.028 0-.09-1.948h.027l.09 1.948zm-.028 0-.09-1.948h.027l.09 1.948zm-.028 0-.09-1.948h.027l.09 1.948zm-.027 0L5.46 7.806h.027l.09 1.948zm-.03 0-.089-1.948h.028l.09 1.948zm-.026 0-.091-1.948h.027l.09 1.948zm-.028 0-.091-1.948h.028l.09 1.948zm-.028 0-.09-1.948h.027l.09 1.948zm-.028 0-.09-1.948h.027l.09 1.948zm-.028 0-.09-1.948h.027l.09 1.948zm-.028 0-.09-1.948h.027l.091 1.948zm-.028 0L5.264 8.4v-.594l.091 1.948zm-.028 0-.035-.755V8.4l.063 1.353zm-.028 0-.007-.157V9l.035.755zm-.007-.157.007.157h-.007zm-3.497-1.8-1 1.008 1.009 1.002.854-.003-.895-.889 4.42-.016-.387.39.427-.001.5-.505-.503-.5h-.428l.39.388-4.42.017.889-.896z"/></svg>