<svg role="img" viewBox="0 0 24 24" xmlns="http://www.w3.org/2000/svg"><title>gRPC</title><path d="M8.947 11.449h.678q.316 0 .502-.084a.64.64 0 0 0 .287-.242 1 1 0 0 0 .134-.387q.035-.231.035-.534t-.035-.533a.94.94 0 0 0-.146-.393.66.66 0 0 0-.31-.242 1.5 1.5 0 0 0-.526-.079h-.62ZM7.755 7.83H9.67q2.104 0 2.104 2.448 0 .726-.228 1.247-.227.52-.8.837l1.285 3.806H10.77l-1.13-3.622h-.693v3.622H7.755Zm4.979 0h1.788q.49 0 .865.13.374.128.678.456.304.327.42.767.117.439.117 1.188c0 .367-.03.63-.072.891a1.4 1.4 0 0 1-.725 1.026c-.34.193-.827.262-1.271.262h-.608v3.618h-1.192zm1.192 3.618h.573q.362 0 .56-.093a.64.64 0 0 0 .293-.252.9.9 0 0 0 .11-.387 6.6 6.6 0 0 0 0-.994 1 1 0 0 0-.104-.402.62.62 0 0 0-.275-.268q-.187-.098-.538-.098h-.62zm7.351 2.858q0 .386-.146.738a1.93 1.93 0 0 1-1.005 1.036 1.8 1.8 0 0 1-.742.158q-.339 0-.69-.094a1.7 1.7 0 0 1-.63-.322 1.7 1.7 0 0 1-.462-.603q-.182-.375-.182-.948v-4.59q0-.411.14-.762a1.8 1.8 0 0 1 1.012-1.013q.355-.146.789-.146.408 0 .76.146a1.82 1.82 0 0 1 1.01 1.043q.147.368.146.802v.468h-1.192v-.398a.97.97 0 0 0-.198-.609.64.64 0 0 0-.538-.258q-.444 0-.59.276-.146.274-.146.696v4.263q0 .363.157.609.159.246.567.246a1 1 0 0 0 .252-.041.7.7 0 0 0 .245-.135.7.7 0 0 0 .181-.258q.07-.164.07-.41v-.41h1.192zm2.336-2.318a.55.55 0 0 0-.55-.55h-2.977v1.101h2.428v1.23h-.374l.93 1.314.93-1.314h-.387Zm-20.907.562v1.65q0 .516.175.896.175.381.462.633.286.25.642.38.357.129.72.129.36 0 .718-.129a2 2 0 0 0 .643-.38 1.9 1.9 0 0 0 .461-.633q.176-.38.176-.896v-2.75l-2.136-.003-.003 1.103h.947v1.65q0 .434-.24.639a.84.84 0 0 1-.567.205.84.84 0 0 1-.567-.205q-.24-.206-.24-.639V9.8q0-.434.24-.639a.84.84 0 0 1 .567-.205q.327 0 .567.205.24.206.24.639v.421h1.192V9.8q0-.504-.176-.89a1.9 1.9 0 0 0-.461-.639 2 2 0 0 0-.643-.38 2.1 2.1 0 0 0-.719-.129q-.362 0-.719.129a2 2 0 0 0-.642.38q-.286.251-.462.639a2.1 2.1 0 0 0-.175.89v1.65h-1.22v-1.23h.374L.93 8.907 0 10.22h.387V12a.55.55 0 0 0 .55.551z"/></svg>