<svg role="img" viewBox="0 0 24 24" xmlns="http://www.w3.org/2000/svg"><title>Grubhub icon</title><path d="M16.736 9.541h-.845c-.048 0-.072.049-.072.073v1.839h-.845v-1.84c0-.047-.048-.072-.073-.072h-.845c-.048 0-.072.049-.072.073v4.72c0 .048.048.072.072.072h.845c.048 0 .073-.048.073-.072v-1.887h.845v1.887c0 .048.048.072.072.072h.845c.048 0 .073-.048.073-.072v-4.72c0-.024-.025-.073-.073-.073m-7.122 0h-.845c-.048 0-.073.025-.073.073v3.344c0 .169-.048.29-.12.386-.073.097-.17.12-.29.12a.407.407 0 01-.29-.12.614.614 0 01-.12-.386V9.614c0-.048-.048-.073-.073-.073h-.845c-.048 0-.072.025-.072.073v3.368c0 .434.096.845.362 1.114.265.266.628.41 1.042.41.435 0 .8-.144 1.042-.41.266-.265.362-.651.362-1.114V9.614c-.004-.024-.028-.073-.08-.073M1.333 9.47c-.435 0-.8.145-1.042.41-.266.266-.363.652-.363 1.115v2.012c0 .435.097.845.363 1.115.265.265.627.41 1.042.41.434 0 .8-.145 1.042-.41.266-.266.362-.652.362-1.115v-1.11a.104.104 0 00-.096-.097H1.405c-.048 0-.096.048-.096.096v.825c0 .049.048.097.096.097h.318v.193a.68.68 0 01-.12.41c-.073.097-.17.121-.29.121a.407.407 0 01-.29-.12.69.69 0 01-.12-.411v-1.988a.68.68 0 01.12-.41c.072-.097.169-.121.29-.121.116 0 .217.048.29.12a.69.69 0 01.12.411v.193c0 .049.048.073.073.073h.845c.048 0 .072-.024.072-.073v-.193c0-.434-.097-.845-.362-1.114-.217-.294-.608-.439-1.018-.439m10.896 3.85c-.072.097-.169.122-.318.122h-.482v-1.023h.482a.4.4 0 01.29.121c.073.097.12.217.12.362.009.202-.015.318-.092.419zm-.8-2.784h.434c.12 0 .217.024.29.121.072.072.096.193.096.342 0 .149-.024.266-.096.362a.388.388 0 01-.266.12h-.434v-.945zm1.404 1.38c.145-.144.41-.482.41-.921 0-.511-.193-.825-.342-.994-.265-.29-.627-.434-1.042-.434h-1.324c-.048 0-.072.048-.072.072v4.724c0 .048.048.072.072.072h1.405c.434 0 .845-.169 1.114-.51.145-.194.318-.512.318-.994-.028-.58-.39-.922-.54-1.014zm-7.698-.462c-.072.096-.193.145-.342.145h-.41v-1.063h.41c.145 0 .266.049.342.145.097.097.121.217.121.386 0 .17-.02.29-.12.387zm.535.873c.097-.073.17-.12.242-.217.169-.194.386-.536.386-1.067 0-.51-.193-.845-.386-1.042-.242-.29-.604-.434-1.018-.459H3.49c-.049 0-.073.049-.073.073v4.72c0 .048.048.072.073.072h.845c.048 0 .072-.048.072-.072v-1.747h.29l.535 1.791c0 .024.048.048.072.048h.894c.024 0 .048-.024.072-.024.024 0 .024-.048.024-.072zm17.239.994c-.073.096-.17.12-.318.12h-.483v-1.022h.483a.4.4 0 01.29.121c.072.097.12.217.12.362.028.202-.016.318-.092.419zm-.777-2.785h.435c.12 0 .217.024.29.121.072.072.096.193.096.342 0 .149-.024.266-.097.362a.388.388 0 01-.265.12h-.435v-.945zm1.404 1.38c.145-.144.41-.482.41-.921 0-.511-.192-.825-.341-.994-.266-.29-.628-.434-1.042-.434h-1.336c-.048 0-.073.048-.073.072v4.724c0 .048.048.072.073.072h1.412c.435 0 .845-.169 1.115-.51.144-.194.318-.512.318-.994a1.449 1.449 0 00-.536-1.015zm-3.243-2.374h-.845c-.048 0-.072.025-.072.073v3.344c0 .169-.048.29-.121.386-.072.097-.169.12-.29.12a.407.407 0 01-.29-.12.614.614 0 01-.12-.386V9.614c0-.048-.048-.073-.073-.073h-.849c-.048 0-.072.025-.072.073v3.368c0 .434.097.845.362 1.114.266.266.628.41 1.042.41.435 0 .801-.144 1.042-.41.266-.265.363-.651.363-1.114V9.614c.024-.024-.024-.073-.077-.073"/></svg>