<svg role="img" viewBox="0 0 24 24" xmlns="http://www.w3.org/2000/svg"><title>Grubhub icon</title><path d="M16.69 9.565h-.836c-.048 0-.072.048-.072.072v1.821h-.837V9.637c0-.048-.047-.072-.072-.072h-.836c-.048 0-.072.048-.072.072v4.674c0 .048.047.072.072.072h.836c.048 0 .072-.048.072-.072v-1.869h.837v1.87c0 .047.048.071.072.071h.837c.047 0 .071-.048.071-.072V9.637c0-.024-.023-.072-.071-.072m-7.054 0H8.8c-.048 0-.072.024-.072.072v3.312a.607.607 0 01-.12.382c-.071.096-.167.12-.286.12a.403.403 0 01-.287-.12.609.609 0 01-.12-.382V9.637c0-.048-.048-.072-.072-.072h-.837c-.047 0-.071.024-.071.072v3.335c0 .43.095.837.358 1.104.263.263.622.407 1.033.407.43 0 .793-.144 1.032-.407.263-.263.358-.645.358-1.104V9.637c-.004-.024-.027-.072-.08-.072m-8.201-.072c-.43 0-.793.144-1.032.407-.263.263-.359.645-.359 1.104v1.992c0 .43.096.837.359 1.104.263.263.622.407 1.032.407.43 0 .793-.144 1.032-.407.263-.263.359-.645.359-1.104v-1.1a.103.103 0 00-.096-.095H1.507c-.048 0-.096.048-.096.095v.817c0 .048.048.096.096.096h.315V13a.673.673 0 01-.12.407c-.072.095-.167.12-.287.12a.403.403 0 01-.287-.12.684.684 0 01-.12-.407v-1.968c0-.168.048-.315.12-.407.072-.096.167-.12.287-.12.116 0 .215.048.287.12.072.096.12.24.12.407v.19c0 .049.047.073.071.073h.837c.048 0 .072-.024.072-.072v-.191c0-.43-.096-.837-.359-1.104-.215-.291-.602-.435-1.008-.435m10.792 3.814c-.072.096-.167.12-.315.12h-.478v-1.013h.478c.12 0 .215.048.287.12.072.096.12.215.12.359.008.199-.016.315-.092.414zm-.793-2.758h.43c.12 0 .216.024.287.12.072.072.096.191.096.339 0 .147-.024.263-.096.358a.384.384 0 01-.263.12h-.43v-.937zm1.39 1.367c.144-.143.407-.478.407-.912 0-.506-.19-.817-.338-.985-.263-.287-.622-.43-1.033-.43h-1.31c-.048 0-.072.048-.072.072v4.678c0 .048.047.072.071.072h1.391c.43 0 .837-.167 1.104-.506a1.59 1.59 0 00.315-.984c-.028-.574-.387-.913-.534-1.005zm-7.623-.458c-.072.096-.191.143-.339.143h-.406V10.55h.406c.144 0 .263.048.34.144.095.095.119.215.119.382 0 .168-.02.287-.12.383zm.53.865c.096-.072.167-.12.24-.215.167-.192.382-.53.382-1.057 0-.506-.191-.836-.383-1.032-.239-.287-.598-.43-1.008-.454h-1.39c-.049 0-.073.048-.073.072v4.674c0 .048.048.072.072.072h.837c.048 0 .072-.048.072-.072v-1.73h.287l.53 1.774c0 .024.047.048.071.048h.885c.024 0 .048-.024.072-.024.024 0 .024-.048.024-.072zm17.073.984c-.072.096-.167.12-.315.12h-.478v-1.013h.478c.12 0 .215.048.287.12.072.096.12.215.12.359.028.199-.016.315-.092.414zm-.77-2.758h.431c.12 0 .216.024.287.12.072.072.096.191.096.339 0 .147-.024.263-.096.358a.384.384 0 01-.263.12h-.43v-.937zm1.392 1.367c.143-.143.406-.478.406-.912 0-.506-.191-.817-.338-.985-.264-.287-.622-.43-1.033-.43h-1.323c-.047 0-.071.048-.071.072v4.678c0 .048.047.072.071.072h1.4c.43 0 .836-.167 1.103-.506a1.59 1.59 0 00.315-.984 1.435 1.435 0 00-.53-1.005zm-3.212-2.351h-.837c-.048 0-.072.024-.072.072v3.311a.607.607 0 01-.12.383c-.071.096-.167.12-.287.12a.403.403 0 01-.286-.12.609.609 0 01-.12-.383V9.637c0-.048-.048-.072-.072-.072h-.84c-.048 0-.072.024-.072.072v3.335c0 .43.095.837.358 1.104.263.263.622.407 1.032.407.43 0 .794-.144 1.033-.407.263-.263.358-.645.358-1.104V9.637c.024-.024-.023-.072-.075-.072"/></svg>