<svg role="img" xmlns="http://www.w3.org/2000/svg" height="24" width="24" viewBox="0 0 24 24"><title>Grubhub icon</title><path d="M11.923 5.02h-.4c-.024 0-.035.019-.035.057v2.689a.756.756 0 01-.06.31c-.033.077-.078.097-.135.097-.056 0-.104-.039-.138-.096a.761.761 0 01-.057-.311V5.077c0-.038-.023-.057-.034-.057h-.404c-.023 0-.034.019-.034.057v2.708c0 .35.045.68.173.895.124.215.296.33.494.33.206 0 .379-.115.495-.33.124-.21.172-.522.172-.895V5.077c.011-.019-.011-.057-.037-.057m1.54 1.909c.069-.115.196-.388.196-.742 0-.411-.093-.66-.164-.799-.127-.23-.297-.349-.495-.349h-.633c-.025 0-.037.038-.037.057v3.799c0 .038.023.057.037.057h.67c.206 0 .401-.134.529-.411.067-.153.15-.412.15-.799-.023-.464-.193-.737-.252-.813zm-.666-1.11h.206c.057 0 .102.019.136.095.037.063.048.158.048.278 0 .12-.012.21-.048.292-.034.057-.08.095-.125.095h-.206v-.76zm.367 2.239c-.034.076-.079.095-.15.095h-.228V7.33h.228c.057 0 .102.044.136.101.037.077.06.172.06.292a.654.654 0 01-.046.335zm-8.185-.8c.045-.057.082-.095.116-.176.079-.153.183-.426.183-.857 0-.411-.093-.679-.183-.837-.116-.23-.289-.349-.484-.368h-.667c-.022 0-.034.038-.034.057v3.794c0 .038.023.057.034.057h.402c.022 0 .034-.038.034-.057V7.469h.138l.252 1.44c0 .02.025.039.036.039h.424c.012 0 .023-.02.034-.02.012 0 .012-.038.012-.057zm-.255-.703c-.033.077-.09.12-.16.12h-.196V5.82h.195c.068 0 .125.038.161.115a.62.62 0 01.06.31c0 .14-.011.235-.06.311zm3.655.374c.07-.115.195-.388.195-.742 0-.411-.09-.66-.161-.799-.127-.23-.3-.349-.495-.349h-.63c-.023 0-.034.038-.034.057v3.799c0 .038.023.057.034.057h.667c.206 0 .401-.134.531-.411.068-.153.15-.412.15-.799-.014-.464-.186-.737-.257-.813zm-.664-1.11h.206c.057 0 .102.019.136.095a.614.614 0 01.045.278.74.74 0 01-.045.292c-.034.057-.08.095-.125.095h-.206v-.76zm.379 2.239c-.034.076-.08.095-.15.095h-.23V7.33h.23c.056 0 .102.044.135.101a.71.71 0 01.06.292c.003.158-.009.253-.045.335zM2.918 4.962c-.206 0-.378.115-.494.33-.125.216-.17.522-.17.895v1.617c0 .35.045.68.17.895.127.215.3.33.494.33.207 0 .382-.115.498-.33.124-.21.17-.522.17-.895v-.89c0-.043-.023-.081-.046-.081h-.585c-.025 0-.048.038-.048.081v.66c0 .039.023.077.048.077h.15v.158a.865.865 0 01-.057.33c-.034.077-.082.096-.138.096-.057 0-.102-.039-.139-.096a.864.864 0 01-.056-.33V6.21a.83.83 0 01.056-.33c.037-.077.082-.096.139-.096.056 0 .104.039.138.096a.847.847 0 01.057.33v.153c0 .038.023.062.034.062h.401c.023 0 .034-.024.034-.062v-.153c0-.35-.045-.68-.172-.895-.102-.239-.289-.354-.484-.354zm3.935.058H6.45c-.022 0-.033.019-.033.057v2.689a.756.756 0 01-.06.31c-.034.077-.079.097-.136.097-.056 0-.104-.039-.138-.096a.76.76 0 01-.057-.311V5.077c0-.038-.025-.057-.036-.057h-.402c-.022 0-.034.019-.034.057v2.708c0 .35.049.68.173.895.127.215.3.33.494.33.207 0 .382-.115.495-.33.127-.21.173-.522.173-.895V5.077c-.003-.019-.015-.057-.037-.057zm3.38 0h-.401c-.023 0-.034.038-.034.057v1.478h-.401V5.077c0-.038-.023-.057-.034-.057H8.96c-.022 0-.034.038-.034.057v3.794c0 .038.023.057.034.057h.402c.022 0 .034-.038.034-.057V7.354h.401v1.517c0 .038.023.057.034.057h.401c.023 0 .034-.038.034-.057V5.077c0-.019-.011-.057-.034-.057z"/></svg>