<svg xmlns="http://www.w3.org/2000/svg" viewBox="0 0 16 16" fill-rule="evenodd" clip-rule="evenodd" stroke-linejoin="round" stroke-miterlimit="1.414" id="svg3370"><style id="style3337">.st0{fill:#f3755c}</style><style id="style3389">.st0{fill:#f3755c}</style><path class="st0" d="M8 5.867c.4 0 .867-.534.867-.534-.334.134-.6.2-.867.267-.267-.067-.533-.133-.867-.267 0 0 .467.534.867.534zm-1 7.2h-.933c-.2 0-.267.066-.267.066-.067.067-.067.134 0 .267.133.267.333.533.4.6.067.067.2.133.4.133A.51.51 0 0 0 6.933 14c.267-.267.4-.533.4-.6 0-.067.067-.133 0-.2-.133-.067-.2-.133-.333-.133zM3.933 5.933c-.066.267.134.6.134.6 0-.266.066-.4.133-.533 0 .333.067.733.4 1.067.2.266 1.133.733 1.733.2 0 .066.067.2.067.266.067.334-.067.8-.067.8s.467-.533.467-1c.333 0 .667-.266.667-.6 0 0-.6.334-1.134-.266-.333-.334-1.266-1.334-2.6-1 .134 0 .267.066.4.133-.133 0-.2.133-.2.333zm.867-.066C5.4 6.2 6 6.667 6.2 7c-.2.133-.667.333-1.2-.067-.333-.2-.267-.8-.2-1.066zm5.133 7.2H9c-.133 0-.2 0-.267.066-.066.067-.066.134 0 .2.067.067.2.334.4.6a.51.51 0 0 0 .334.134c.133 0 .266-.067.4-.134.066-.066.333-.266.4-.6.066-.133 0-.2 0-.266-.067.066-.2 0-.334 0zm-.666-5.8c-.067.466.466 1 .466 1s-.2-.467-.066-.8c0-.067.066-.2.066-.267.6.533 1.467.067 1.734-.2.333-.333.4-.733.4-1.067.066.134.133.267.133.534 0 0 .2-.267.133-.6 0-.134-.066-.334-.2-.4.134-.067.267-.067.4-.134C11 5 10.067 6 9.733 6.333 9.2 7 8.6 6.667 8.6 6.667c0 .333.333.6.667.6zM9.8 7c.267-.333.8-.8 1.4-1.133.067.266.133.866-.2 1.133-.533.333-1 .133-1.2 0zm3.133 2.933c-.066.534-.4 1.067-.8 1.4A40.179 40.179 0 0 1 12 9.4c0-.467.267-.733.4-.8.067-.067.2-.067.267-.133.533-.334 1.266-.667 1.266-1.4 0-.534-.266-.734-.466-.867l-.067-.067c-.067-.066-.133-.066-.133-.133-.134-.333-.134-1.067-.067-1.2 0 0 .533-.667.4-1.2-.067-.2-.2-.4-.467-.533a1.592 1.592 0 0 0-.6-.134v-.2c0-.066-.066-.133 0-.266 0-.134 0-.267.067-.334.2-.466.8-.6.8-.6l.4-.066-.267-.267S13 .667 12.067.667c-.267 0-.534.066-.734.133C10.6 1.067 10 1.733 9.8 2c-.067 0-.2-.067-.267-.067C9.4 1.4 9.8.667 9.8.667S9.4.6 8.733 1.133c-.066-.2-.266-.6-.066-1.133-.867.333-1.134.8-1.2 1.267-.2-.134-.2-.734-.2-.867-.267 0-.934.667-.867 1.533-.067 0-.133 0-.2.067C6 1.667 5.4 1 4.667.733 4.4.667 4.133.6 3.867.6c-.934 0-1.467.533-1.467.533l-.2.334.4.066s.667.134.933.534c.067.066.067.2.067.333v.467c-.267 0-.467.066-.6.133-.333.133-.533.333-.533.533-.2.6.333 1.2.333 1.267.067.067.067.867-.067 1.133a.143.143 0 0 1-.133.134l-.067.066c-.2.134-.466.4-.466.867 0 .667.733 1.067 1.266 1.4.067.067.2.067.267.133.067.067.4.334.4.8 0 .2 0 1.267-.133 1.934-.334-.334-.667-.8-.8-1.4 0 0-.934.733-.667 2.2.267 1.4 1.333 1.866 2.667 1.933C5.533 15.067 6.2 16 8 16c1.8 0 2.467-.933 2.933-1.933 1.267-.134 2.4-.6 2.667-1.934.2-1.533-.667-2.2-.667-2.2zm-1.4-8.733c.2-.067.334-.067.534-.067.333 0 .6.067.8.134-.067.066-.2.066-.334.133h-.266c-.334 0-.667.067-.867.267-.4.266-.533.533-.667.666-.066-.066-.133-.066-.2-.133-.066 0-.066-.067-.133-.067.2-.2.6-.8 1.133-.933zm.667.533s-.067.067-.067.134A1.256 1.256 0 0 0 12 2.4c0 .2 0 .4-.133.533-.134 0-.267.067-.334.067l-.333-.333c.067-.134.2-.534.4-.734.2-.133.4-.2.6-.2zM3.4 1.4a.505.505 0 0 0-.267-.133c.134-.067.4-.134.8-.134.2 0 .4 0 .534.067.533.133 1 .733 1.133 1-.067 0-.067.067-.133.067-.067 0-.134.066-.2.133C5.2 2.2 5 2 4.6 1.733c-.267-.266-.533-.333-.867-.333H3.4zm1.4 1.267L4.467 3c-.134 0-.2-.067-.334-.067l-.333-1.2c.2 0 .467.067.6.2l.4.734zm-1 5.466C3.733 8.067 3.667 8 3.533 8c-.466-.267-.933-.533-.933-.933s.133-.467.267-.6l.066-.067c0 .267-.066.467-.066.467s.4-.467.466-1.4C3.4 5.133 3.267 4.4 3.2 4.133V4.6s0-.067-.067-.067c-.066-.133-.333-.6-.266-.866 0-.134.066-.2.2-.267.133-.067.266-.067.466-.067.4 0 .8.134 1 .2.8.267 1.734.934 2 1.2l.2.134-.066-.2s-.6-1-1.667-1.467c.067-.067.2-.267.667-.467C6.333 2.4 7.133 2.267 8 2.267c.867 0 1.667.133 2.333.466.467.2.6.4.667.467-1.067.467-1.667 1.467-1.667 1.467l-.133.2.2-.134c.267-.2 1.2-.933 2-1.2.267-.066.667-.2 1.067-.2.2 0 .333 0 .466.067.134.067.2.133.2.267.067.266-.2.733-.266.8 0 0 0 .066-.067.066v-.466c-.133.266-.2 1-.133 1.333.133.933.466 1.4.466 1.4 0-.067-.066-.267-.066-.467l.066.067c.134.2.267.267.267.6 0 .467-.467.733-.933.933-.067.067-.2.067-.267.134-.267.133-.533.533-.6 1.066 0 .467 0 1.534.133 2.4-.4.134-.866.2-1.266.2l-.2-.4c0-.066-.6-1.6-.8-1.933.2 1.2.533 2.333.733 2.8h-.4H5.867c.2-.467.533-1.6.733-2.8-.267.4-.867 1.933-.867 1.933l-.2.4c-.4 0-.866-.066-1.266-.2.066-.8.133-1.933.133-2.4 0-.466-.333-.866-.6-1zm1.267 4.4c-.267.267-.334.6-.2 1.067-.734 0-1.467-.333-1.8-.933C2.733 12 2.8 10.933 3 10.8c.333 1.067 1.467 1.4 2.333 1.4-.133.133-.2.267-.266.333zm5.6 1c-.2.6-.734 2-2.667 2-1.867 0-2.467-1.4-2.667-2-.133-.333-.133-.6 0-.733.067-.133.267-.2.8-.2H9.733c.467 0 .667.133.8.2.2.2.267.4.134.733zm2.266-.866c-.4.6-1.133.933-1.8.933.134-.4.067-.733-.133-1l-.067-.067c-.066-.066-.133-.2-.2-.333.867-.067 2-.333 2.334-1.4.133.133.2 1.2-.134 1.867z" id="path3393"/></svg>