<svg viewBox="0 0 8 16" xmlns="http://www.w3.org/2000/svg"><path d="M6.108 12.96l.424-.724s-.964.395-2.578.395c-1.614 0-2.564-.387-2.564-.387l.475.79.168 2.485c0 .266.878.482 1.96.482 1.084 0 1.962-.216 1.962-.482l.153-2.558zm.41-4.705c-.513.03-.77.603-1.028 1.205-.095.22-.42 1.16-.633 1.044-.213-.116.276-.888.413-1.347-.158.116-.738.567-.887.144-.24.206-.754.316-.696-.22-.128.226-.415.543-.76.41-.45-.17.263-1.613.44-1.54.178.073-.035.4-.09.53-.124.28-.266.632-.17.704.16.124.603-.468.613-.48.083-.11.32-.826.51-.744.19.082-.475 1.027-.227 1.215.05.038.255-.024.38-.158.08-.088.052-.28.32-.922.27-.642.51-1.44.694-1.38.184.06.032.47-.034.624-.31.716-.847 1.9-.594 1.81.252-.088.384-.094.632-.384.248-.29.236-.768.4-.758.167.01.14.164.1.28.16-.186.77-.578.916-.19.174.46-.87 1.124-.61 1.09.254-.033.665-.293.84-.53l.484-4.346s-.486.403-3.58.403C.863 4.715.426 4.32.426 4.32l.41 3.967c.22-.62.738-1.876 1.555-1.834.372.02.868.735.443.76-.18.01-.198-.358-.41-.412-.155-.038-.37.087-.507.223-.276.27-.87 1.336-.79 1.867.1.677.933-.236 1.074-.507.1-.19.167-.756.384-.697.218.06-.02.643-.176 1.16-.177.58-.27 1.19-.492 1.12-.222-.07.14-.82.126-.95-.208.193-.593.68-1.084.44l.255 2.462s.68.537 2.724.537 2.748-.528 2.748-.528l.317-2.853c-.26.253-1.08.702-1.133.196-.043-.407.888-.996.65-1.015zM7.57.43L5.794 2.3 5.47 3.57c1.256.08 2.13.257 2.13.463 0 .28-1.612.506-3.6.506S.4 4.315.4 4.036c0-.28 1.612-.507 3.6-.507.282 0 .563.005.844.014l.374-1.52 1.887-2c.046-.053.187-.005.316.107.126.108.194.237.156.29l-.003.004L7.57.43zM5.01 4.3s-.35 0-.408-.054a.092.092 0 0 1-.024-.06c0-.038.026-.06.06-.073l.03.05c-.014.004-.02.01-.022.015 0 .028.21.047.37.045.16-.002.355-.016.356-.043 0-.008-.015-.016-.04-.022l.03-.048c.042.013.078.038.078.08 0 .074-.094.086-.154.094-.072.01-.275.016-.275.016z" fill="#fff" fill-rule="evenodd"/></svg>