<svg role="img" viewBox="0 0 24 24" xmlns="http://www.w3.org/2000/svg"><title>Gutenberg icon</title><path d="M14.437 11.358a.184.184 0 00-.256.05c-.334.504-1.043.53-1.08.53h-.017c-.874 0-1.208.747-1.221.777a.187.187 0 00.168.26c.071 0 .138-.04.169-.111.003-.007.233-.52.823-.553v.955a.665.665 0 01-.294.489c-.179.125-.418.189-.712.189-.351 0-.638-.121-.85-.361-.216-.24-.324-.58-.324-1.02l.003-1.052c.017-.388.121-.695.321-.914.216-.24.499-.361.85-.361.294 0 .533.064.712.189.179.125.28.297.297.52v.024c0 .128.105.233.233.233a.234.234 0 00.233-.233v-.024a1.077 1.077 0 00-.459-.796c-.273-.201-.613-.3-1.025-.3-.489 0-.884.163-1.184.483-.283.3-.432.695-.449 1.18 0 .035-.003.068-.003.102l.003.948h-.003c0 .536.152.965.452 1.285.3.32.695.482 1.184.482.412 0 .752-.098 1.026-.297.25-.182.398-.422.449-.72l.01-1.058c.307-.074.725-.243.989-.641a.172.172 0 00-.045-.255zM17.686.51h2.588a.21.21 0 00.209-.21.21.21 0 00-.209-.208h-2.588a.21.21 0 00-.209.209.21.21 0 00.209.209zM3.823.51h2.588A.21.21 0 006.62.3a.21.21 0 00-.209-.208H3.823a.21.21 0 00-.209.209c0 .115.091.209.209.209zm16.583 1.68a.209.209 0 110 .418.209.209 0 010-.418zm-8.418-.658a.209.209 0 110 .418.209.209 0 010-.418zm-3.88.87h.01c.786 0 1.137-.492 1.404-.95.088-.152.412-.658.87-.79.567-.164 1.171.099 1.407.615a.211.211 0 00.182.12h.023a.211.211 0 00.182-.12c.236-.516.84-.78 1.407-.614.459.135.783.638.87.789.267.462.617.95 1.414.95.479 0 1.046-.357 1.204-1.042.132-.567-.111-1.08-.641-1.34a.208.208 0 00-.28.095.208.208 0 00.094.28c.503.25.459.692.418.87-.081.35-.391.722-.8.722-.523 0-.773-.263-1.053-.746-.138-.236-.523-.81-1.113-.982a1.614 1.614 0 00-1.717.533A1.614 1.614 0 0010.272.26c-.59.172-.975.746-1.113.982-.28.482-.53.746-1.043.746h-.007a.834.834 0 01-.81-.621c-.04-.145-.125-.641.442-.978a.208.208 0 00.071-.287.206.206 0 00-.285-.07c-.651.388-.752 1.002-.631 1.447.149.55.638.92 1.212.925zM11.994 22.1h.004zM3.496 2.19a.209.209 0 110 .419.21.21 0 01-.21-.21.21.21 0 01.21-.208zM2.909.097a.209.209 0 110 .418.21.21 0 110-.418zm18.239 0a.209.209 0 110 .418.209.209 0 010-.418zm1.12 13.404a.209.209 0 110 .418.209.209 0 010-.418zm-.84 4.785a.209.209 0 110 .418.209.209 0 010-.418zm-1.343.597a.209.209 0 110 .418.209.209 0 010-.418zM7.672 1.088a.564.564 0 001.126 0 .564.564 0 00-1.126 0zm.564-.15c.081 0 .148.068.148.149a.149.149 0 01-.148.148.149.149 0 01-.148-.148.149.149 0 01.148-.148zm7.591.713a.564.564 0 000-1.126.564.564 0 000 1.126zm0-.712c.081 0 .148.067.148.148a.149.149 0 01-.148.148.149.149 0 01-.148-.148.15.15 0 01.148-.148zm-3.269.5a.206.206 0 00-.121.267.21.21 0 00.267.125c.034-.013.843-.283 1.464.682a.21.21 0 00.175.094.19.19 0 00.111-.034.208.208 0 00.064-.287c-.648-1.002-1.565-.992-1.96-.847zm-1.127 0c-.03-.01-.307-.108-.685-.051-.351.05-.854.25-1.272.9a.207.207 0 00.064.288.193.193 0 00.111.034.213.213 0 00.175-.094c.617-.965 1.427-.695 1.464-.682a.21.21 0 00.143-.395zm9.599.57L22.046.855v1.663a.21.21 0 00.209.209.21.21 0 00.209-.21V.306A.208.208 0 0022.1.166l-1.38 1.569a.206.206 0 00.02.294c.081.078.212.068.29-.02zM1.765 2.73a.21.21 0 00.209-.21V.859L2.99 2.012a.208.208 0 10.313-.273L1.923.167a.21.21 0 00-.229-.058.21.21 0 00-.135.196v2.217c0 .114.091.209.206.209zm14.73.206a.208.208 0 00-.102.395c.331.155.631.216.901.216.516 0 .928-.226 1.215-.462.459-.378.695-.854.705-.874a.207.207 0 00-.081-.27c-.213-.125-.58-.202-1.14.138-.28.172-.496.378-.533.415-.513.452-.941.442-.965.442zm1.245-.132l.01-.01c.159-.16.607-.526.958-.543a2.608 2.608 0 01-.459.513c-.304.25-.628.37-.972.364.143-.074.301-.182.463-.324zM4.956 1.94a.206.206 0 00-.08.27c.01.02.246.496.705.874.287.236.695.462 1.215.462.273 0 .574-.061.901-.216a.207.207 0 00.111-.24.21.21 0 00-.213-.158c-.017 0-.449.013-.962-.44A3.313 3.313 0 006.1 2.08c-.56-.338-.931-.26-1.144-.14zm1.397.864c.159.142.317.246.462.324-.729.007-1.211-.55-1.431-.877.351.017.8.385.958.543.005.003.008.007.011.01zm16.161 16.954a1.693 1.693 0 00-.651-.334 1.49 1.49 0 00.226-.21c.516-.606.52-1.5.007-2.081a.206.206 0 00-.294-.017.206.206 0 00-.017.294c.375.425.368 1.083-.013 1.535-.31.364-.901.452-1.076.472-.53.057-1.124.179-1.444.904a1.01 1.01 0 00-.088.37.767.767 0 00-1.002.729c0 .29.162.544.401.672a1.527 1.527 0 00-.199.216 3.846 3.846 0 00-3.62-1.518 9.41 9.41 0 005.55-4.619 8.91 8.91 0 001.016-4.153v-.027-.007-.01a8.504 8.504 0 00-.644-3.168c.138.027.27.037.388.037.874 0 1.258-.601 1.299-.671.189-.317.219-.702.111-1.05.003-.01.003-.023.003-.036V3.284a.21.21 0 00-.209-.21.21.21 0 00-.209.21v3.195c-.354-.307-.867-.341-1.08-.341-.412.003-.668-.061-.857-.385a.592.592 0 01.091-.72c.199-.201.482-.228.759-.077.101.054.229.02.283-.081a.209.209 0 00-.081-.283c-.439-.243-.931-.182-1.258.148-.324.33-.385.82-.155 1.218.3.516.756.59 1.204.59h.017c.135 0 .57.02.82.256.324.307.408.789.196 1.147 0 0-.003.003-.003.007-.017.03-.418.712-1.538.354a10.453 10.453 0 00-1.093-1.808l-.166.127.165-.128-.067-.088c-.719-1.204.111-2.487.543-3.03l.243-.277a.21.21 0 00-.02-.294.208.208 0 00-.283.01 2.573 2.573 0 00-.101.108c-.375.38-1.839 1.73-3.259 1.026l-.04-.027-.02-.013c-1.272-.685-2.527-1.08-3.725-1.181-.155-.354-.361-.624-.621-.624-.263 0-.469.273-.628.634-1.677.074-3.762 1.157-3.85 1.2-1.428.72-2.899-.636-3.274-1.017-.057-.064-.098-.101-.101-.108a.207.207 0 00-.283-.01.209.209 0 00-.02.294l.26.294c.151.188.343.46.505.788.405.82.412 1.565.024 2.22a8.798 8.798 0 00-1.174 1.897c-1.13.368-1.535-.321-1.552-.351 0-.003-.003-.003-.003-.007-.213-.358-.129-.84.195-1.147.25-.236.685-.256.82-.256h.003c.452 0 .918-.071 1.218-.59.23-.4.169-.892-.155-1.22-.327-.333-.82-.39-1.258-.147a.204.204 0 00-.081.283.206.206 0 00.283.08c.28-.151.563-.124.759.079a.594.594 0 01.091.718c-.185.32-.438.385-.843.385h-.013c-.186 0-.617.027-.962.25V3.335a.21.21 0 00-.209-.21.21.21 0 00-.209.21v3.509c-.23.41-.243.914-.007 1.319.023.044.168.287.492.469.186.104.452.202.807.202.128 0 .27-.013.422-.044-.364.978-.547 2.03-.553 3.178v.037c0 2.072.729 4.106 2.051 5.729a9.459 9.459 0 004.528 3.047 3.837 3.837 0 00-3.633 1.492 1.387 1.387 0 00-.192-.206.77.77 0 00.375-.658.767.767 0 00-.989-.732 1.154 1.154 0 00-.088-.368c-.324-.725-.914-.847-1.444-.904-.175-.02-.766-.108-1.076-.472-.391-.442-.398-1.1-.024-1.525a.208.208 0 00-.311-.277c-.509.58-.506 1.474.007 2.082.067.08.145.148.226.209a1.729 1.729 0 00-.651.334c-.496.408-.749 1.09-.756 2.018a.211.211 0 00.094.219c.034.02.071.03.108.03.013 0 .03-.003.044-.007h.003c.007 0 .01-.003.017-.007.01-.003.024-.007.034-.013.003 0 .003-.003.007-.003a.233.233 0 00.084-.081c.081-.105.415-.236.692-.294 1.083-.236 1.309-.968 1.275-1.32a.208.208 0 10-.415.038c0 .003.003.064-.017.155-.051.209-.236.57-.931.722h-.007a2.75 2.75 0 00-.55.179c.061-.601.253-1.04.58-1.312.503-.418 1.167-.3 1.174-.297a.228.228 0 00.064 0c.111.024.206.037.277.044.557.06.897.182 1.11.658.165.375-.047.806-.334 1.022-.145.11-.533.33-.968-.027a.21.21 0 00-.267.321c.196.162.415.256.641.283-.29.236-.486.533-.574.688-.283.489-.513.752-.894.756v-1.461a.21.21 0 00-.209-.21.21.21 0 00-.209.21v1.694c0 .084.051.155.121.189a.22.22 0 00.128.047h4.858a.21.21 0 00.175-.094.222.222 0 00.061-.101 1.685 1.685 0 013.192-.222H9.65a1.203 1.203 0 00-1.117-.75c-.543 0-1.022.369-1.167.892a.21.21 0 00.145.256.21.21 0 00.256-.145.79.79 0 011.407-.253h-.122a.21.21 0 00-.209.209.21.21 0 00.209.209h.422c.007-.001.017.002.024.002.01 0 .02 0 .027-.003h.837a.21.21 0 00.209-.21c0-.01 0-.02-.003-.03a.293.293 0 00-.003-.087 2.106 2.106 0 00-4.035-.091H5.44c.088-.28.206-.54.354-.783.01-.013.017-.027.027-.04a3.434 3.434 0 014.862-.968c.017.01.034.02.051.024.088.105.175.216.26.33.02.028.037.055.057.082-.02.428.213.877.695 1.336.017.05.034.094.044.128v.044a.21.21 0 00.209.209.203.203 0 00.199-.155c0-.003.03-.105.091-.273.435-.425.651-.84.648-1.242a5.987 5.987 0 01.382-.496 3.395 3.395 0 011.947-.607c1.512 0 2.834.985 3.273 2.412h-1.09a2.1 2.1 0 00-2.004-1.461 2.11 2.11 0 00-2.031 1.552.174.174 0 000 .1v.018a.21.21 0 00.209.209h1.829a.21.21 0 00.209-.21.21.21 0 00-.209-.208h-.665a.792.792 0 011.41.263.206.206 0 00.253.148.21.21 0 00.152-.253 1.21 1.21 0 00-2.288-.16h-.422a1.687 1.687 0 013.192.223c.003.017.013.034.02.05a.208.208 0 00.199.146h4.95a.21.21 0 00.209-.21v-.012-.053c.003-.02.003-.04.003-.061 0-.003 0-.007-.003-.01v-1.582a.21.21 0 00-.209-.21.21.21 0 00-.209.21v1.417c-.351-.027-.57-.287-.84-.752a2.674 2.674 0 00-.54-.658c.186-.04.364-.128.53-.267a.21.21 0 00-.267-.321c-.432.358-.82.138-.968.027-.287-.216-.499-.651-.334-1.022.213-.476.553-.601 1.11-.658a2.5 2.5 0 00.277-.044.25.25 0 00.067 0c.007 0 .665-.121 1.171.297.331.273.526.712.584 1.316a2.767 2.767 0 00-.553-.182h-.007c-.692-.152-.881-.51-.931-.72a.49.49 0 01-.017-.154.208.208 0 10-.415-.037c-.034.354.192 1.083 1.279 1.319.28.06.634.199.698.304 0 0 0 .003.003.003.01.013.02.027.03.037.003.003.007.003.01.007.01.007.02.017.03.02.003.003.01.007.013.007.01.007.02.01.03.013l.013.003c.013.003.03.007.047.007.013 0 .024 0 .037-.003.003 0 .007 0 .01-.003.01-.003.02-.007.034-.01h.003c.01-.003.017-.01.027-.013l.003-.003c.007-.003.013-.01.017-.013.003-.003.01-.007.013-.013l.013-.013c.003-.007.01-.01.013-.017l.01-.017.01-.017c.003-.007.003-.013.007-.02.003-.007.003-.013.007-.02 0-.007.003-.013.003-.017 0-.007.003-.013.003-.024v-.008c-.001-.954-.257-1.646-.76-2.061zM5.007 23.575H2.811c.186-.19.317-.415.418-.59.088-.152.412-.658.87-.79.54-.158 1.046.028 1.296.456a3.996 3.996 0 00-.388.924zm.057-1.812a.348.348 0 110-.695.348.348 0 010 .695zm12.369-2.635l.03.037zm.007-.21c-1.97-.228-3.394.618-4.244 1.367a6.78 6.78 0 00-.877.94c-.04-.026-.078-.053-.111-.07v-.594c1.596-1.603 3.182-2.082 4.234-2.2a5.435 5.435 0 011.599.05 7.82 7.82 0 01-.601.508zm2.473-2.941a9.212 9.212 0 01-.692 1.117 4.793 4.793 0 00-1.002-.2 7.946 7.946 0 001.643-3.913c.29-.034.692-.16.999-.358a8.481 8.481 0 01-.948 3.354zm-1.42-3.765l.243-.01c.081.36.354.65.712.749a7.484 7.484 0 01-1.748 3.92c-.462 0-.999.054-1.606.186a6.49 6.49 0 002.399-4.845zm-3.965 5.33c-.135.054-.229.098-.277.118a6.053 6.053 0 01-1.788.415l5.597-5.597a6.082 6.082 0 01-3.532 5.064zm6.353-5.556c-.007.189-.523.496-.978.57a1.24 1.24 0 01-.189.017.59.59 0 010-1.18c.061 0 .125.007.189.017.455.074.968.38.978.567v.009zm-1.953-5.338l.088.118c.766 1.022 1.663 2.605 1.835 4.575a2.511 2.511 0 00-.989-.354 7.914 7.914 0 00-2.099-4.44.751.751 0 00-.051-.742l.958-1.093c-.181.694-.093 1.352.258 1.936zm-2.797-2.365l.044.03.023.014c.334.169.692.253 1.063.253.391 0 .8-.094 1.211-.283l-1.08 1.23a.761.761 0 00-.732.047 7.88 7.88 0 00-3.691-1.46 6.829 6.829 0 00-.202-.941c1.083.12 2.213.493 3.364 1.11zm1.289 1.94a.354.354 0 01-.348.348h-.034a.344.344 0 01-.307-.28c-.003-.02-.007-.044-.007-.064a.348.348 0 01.324-.347h.044c.155.01.287.12.321.27.003.02.007.037.007.057-.004.002 0 .009 0 .016zm-4.434-1.684a7.466 7.466 0 013.398 1.353.762.762 0 00.043.746l-1.68 1.916a.206.206 0 00.02.294.21.21 0 00.138.05.218.218 0 00.159-.07l1.677-1.913a.75.75 0 00.749-.047 7.502 7.502 0 011.96 4.15 1.007 1.007 0 00-.715.769l-.24.01a6.486 6.486 0 00-1.69-4.157.208.208 0 00-.307.28 6.07 6.07 0 011.569 3.63l-2.244-2.236a.208.208 0 00-.294.294l2.409 2.409L12 17.955l-5.938-5.938 2.389-2.39a.208.208 0 00-.294-.293L5.942 11.55a6.064 6.064 0 011.856-3.92l1.046 1.194c.04.047.098.07.159.07a.209.209 0 00.158-.345l-1.05-1.196a6.05 6.05 0 013.428-1.397L9.758 7.72a.208.208 0 10.296.294l1.957-1.937 1.9 1.9a.208.208 0 00.294-.294l-1.727-1.727a6.038 6.038 0 012.976 1.049.21.21 0 00.29-.054.21.21 0 00-.054-.29 6.436 6.436 0 00-3.468-1.134v-.15c.39-.093.704-.427.764-.84zM6.89 7.046a.755.755 0 00.327-.074l.3.344a6.487 6.487 0 00-2.011 4.477l-.169-.01a1.007 1.007 0 00-.783-.786 7.494 7.494 0 011.906-4.08.787.787 0 00.43.129zm-.348-.762c0-.017 0-.03.003-.047 0-.01.003-.017.003-.027a.345.345 0 01.314-.273h.024a.347.347 0 01.026.69h-.027a.348.348 0 01-.343-.344zM5.334 12.2l.172.01a6.487 6.487 0 002.406 4.852 7.7 7.7 0 00-1.613-.192 7.502 7.502 0 01-1.744-3.904c.388-.081.695-.381.779-.766zm.604.277l5.597 5.597a6.088 6.088 0 01-5.597-5.597zm5.49-8.401c.091-.631.401-1.474.563-1.542.186.07.472.945.56 1.538.017.119.027.227.027.315a.59.59 0 01-1.18 0c.003-.092.013-.196.03-.311zm.364 1.299v.145a6.472 6.472 0 00-3.961 1.515l-.297-.341a.757.757 0 00.037-.77 7.493 7.493 0 013.431-1.386.994.994 0 00.79.837zM6.64 4.58c.371 0 .729-.084 1.066-.253.02-.01 1.947-1.012 3.505-1.147a6.653 6.653 0 00-.202.938 7.885 7.885 0 00-3.735 1.504.749.749 0 00-.711-.03L5.429 4.3c.415.185.82.28 1.211.28zM4.956 6.668l.017-.024c.351-.58.439-1.242.263-1.937l1.012 1.157a.77.77 0 00-.057.73 7.912 7.912 0 00-2.058 4.4c-.3.047-.698.175-.999.368.119-1.782.716-3.324 1.822-4.694zm-1.838 5.31c.007-.195.55-.465.978-.552.094-.02.182-.03.256-.03a.591.591 0 01.162 1.158.653.653 0 01-.162.024c-.078 0-.165-.01-.256-.03-.428-.091-.972-.361-.978-.557v-.012zm.02.622c.3.196.702.324.999.37a7.892 7.892 0 001.643 3.92 4.805 4.805 0 00-1.005.197A8.533 8.533 0 013.138 12.6zm1.937 4.878l-.03-.037c1.016-.28 2.126-.132 2.905.054a9.06 9.06 0 011.636.557l.003-.007a6.5 6.5 0 004.808.003l.02-.01c.088-.037.179-.074.263-.115a9.288 9.288 0 011.35-.432c.786-.19 1.9-.337 2.915-.054a8.788 8.788 0 01-.553.62c-.283-.077-1.005-.225-1.98-.12-1.059.115-2.618.567-4.211 2.038v-.368a.21.21 0 00-.209-.21.21.21 0 00-.209.21v.348c-1.582-1.454-3.134-1.903-4.187-2.018-.999-.108-1.731.054-1.997.128a9.096 9.096 0 01-.524-.587zm.887.938a5.327 5.327 0 011.619-.054c1.873.209 3.31 1.279 4.211 2.176v.61a1.01 1.01 0 00-.101.065 6.818 6.818 0 00-.867-.924c-.85-.752-2.281-1.603-4.258-1.366v.003a8.7 8.7 0 01-.604-.51zm5.24 3.307a5.364 5.364 0 00-1.258-1.174l.003-.01c-.01-.003-.02-.007-.03-.007a5.003 5.003 0 00-2.021-.76 8.918 8.918 0 01-.803-.471c1.272-.037 2.426.395 3.445 1.289.351.307.628.624.837.897a1.26 1.26 0 00-.173.236zm1.008 1.265a3.017 3.017 0 01-.212.226l-.003.003-.003.003v-.007c-.007-.007-.017-.013-.024-.024a2.416 2.416 0 01-.179-.192c-.246-.294-.354-.567-.317-.816a.804.804 0 01.151-.344c.051-.067.108-.125.165-.175a1.616 1.616 0 01.199-.145s.003 0 .003-.003h.003c.024.013.047.03.078.05.04.028.088.065.135.106.061.054.121.118.172.189a.776.776 0 01.139.32c.038.245-.067.515-.307.809zm.824-1.522a4.616 4.616 0 00-.23.28 1.601 1.601 0 00-.169-.24c.209-.273.493-.601.85-.914 1.012-.891 2.163-1.323 3.425-1.292a8.933 8.933 0 01-.81.476c-1.444.219-2.432.968-3.066 1.69zm5.887-.398a.348.348 0 110 .695.348.348 0 010-.695zm1.053 1.083c.459.135.783.638.87.789.108.189.253.439.466.634h-2.332a3.92 3.92 0 00-.371-.894c.257-.458.83-.687 1.367-.53zM2.197 7.495a.622.622 0 101.243-.001.622.622 0 00-1.243 0zm.823 0a.203.203 0 01-.202.202.203.203 0 01-.202-.202.202.202 0 01.404 0zm18.715 0a.622.622 0 10-1.243.001.622.622 0 001.243-.001zm-.823 0c0-.111.091-.202.202-.202.111 0 .202.09.202.202a.203.203 0 01-.202.202.198.198 0 01-.202-.202zm1.42 1.545a.216.216 0 00-.229.047c-.273.28-.722.27-.729.27h-.007a.207.207 0 00-.01.415c.02 0 .351.01.688-.145v3.404a.21.21 0 00.209.209.21.21 0 00.209-.21V9.233a.212.212 0 00-.131-.192zm-20.604 4.2a.21.21 0 00.209-.208V9.627c.337.155.668.145.688.145a.205.205 0 00.199-.216.206.206 0 00-.216-.2c-.003 0-.455.01-.729-.27a.214.214 0 00-.229-.046.205.205 0 00-.128.192v3.802a.202.202 0 00.206.207zm20.769 3.472a.21.21 0 00-.209-.21h-1.35a.21.21 0 00-.209.21.21.21 0 00.209.209h1.35a.207.207 0 00.209-.21zm-1.4.8a.21.21 0 00.209-.21.21.21 0 00-.209-.208h-.52a.21.21 0 00-.209.209.21.21 0 00.209.209zm.506.385a.21.21 0 00-.209-.21h-1.289a.21.21 0 00-.209.21.21.21 0 00.209.209h1.289a.208.208 0 00.209-.21zm-.816.597a.21.21 0 00-.209-.21h-1.009a.21.21 0 00-.209.21.21.21 0 00.209.209h1.009a.21.21 0 00.209-.21zm-1.873.388a.21.21 0 00-.209.209.21.21 0 00.209.209h.574a.21.21 0 00.209-.21.21.21 0 00-.209-.208zm3.374-3.57h-.752a.21.21 0 00-.209.209.21.21 0 00.209.209h.752a.21.21 0 00.209-.21.21.21 0 00-.209-.208zm0 .597h-1.049a.21.21 0 00-.209.209.21.21 0 00.209.209h1.049a.21.21 0 00.209-.21.21.21 0 00-.209-.208zm0-1.788h-.334a.21.21 0 00-.209.209.21.21 0 00.209.209h.334a.21.21 0 00.209-.21.21.21 0 00-.209-.208zm0 .597h-.513a.21.21 0 00-.209.209.21.21 0 00.209.209h.513a.21.21 0 00.209-.21.21.21 0 00-.209-.208zM1.721 13.51a.209.209 0 110 .418.209.209 0 010-.418zm.843 4.78a.209.209 0 110 .418.209.209 0 010-.418zm1.343.598a.209.209 0 110 .418.209.209 0 010-.418zm-2.206-1.961h1.35a.21.21 0 00.209-.21.21.21 0 00-.21-.208H1.7a.208.208 0 10.001.418zm1.71.176h-.52a.21.21 0 00-.209.209.21.21 0 00.209.209h.52a.21.21 0 00.209-.21.21.21 0 00-.209-.208zm.473.594H2.595a.21.21 0 00-.209.209.21.21 0 00.209.209h1.289a.21.21 0 00.209-.21.208.208 0 00-.209-.208zm.536.593H3.411a.21.21 0 00-.209.209.21.21 0 00.209.209H4.42a.21.21 0 00.209-.21.21.21 0 00-.209-.208zm-.128.807a.21.21 0 00.209.209h.574a.21.21 0 00.209-.21.21.21 0 00-.209-.208h-.574a.21.21 0 00-.209.209zm-2.591-3.361h.752a.21.21 0 00.209-.21.21.21 0 00-.209-.208h-.752a.209.209 0 100 .418zm0 .598H2.75a.21.21 0 00.209-.21.21.21 0 00-.209-.208H1.701a.21.21 0 00-.209.209.21.21 0 00.209.209zm0-1.79h.334a.21.21 0 00.209-.208.21.21 0 00-.209-.21h-.334a.21.21 0 00-.209.21.21.21 0 00.209.209zm0 .595h.513a.21.21 0 00.209-.21.21.21 0 00-.209-.208h-.513a.21.21 0 00-.209.209.207.207 0 00.209.209zm10.293 8.077c.003-.003 0-.003 0-.007zm9.488-19.042c.003 0 .003 0 0 0a.208.208 0 00.202-.16c.074-.296.044-.55-.098-.758-.226-.337-.641-.401-.688-.408a.21.21 0 00-.233.162c-.078.354-.034.638.135.847.25.303.641.314.682.317zm-.236-.682c.04.064.064.138.064.226a.408.408 0 01-.175-.121.41.41 0 01-.081-.267.521.521 0 01.192.162zm-1.12-2.334C19.9.822 19.485.758 19.438.75a.21.21 0 00-.233.162c-.078.354-.034.638.135.847.243.304.634.314.678.314a.208.208 0 00.202-.16c.078-.29.047-.546-.094-.755zm-.456.34a.41.41 0 01-.081-.267.465.465 0 01.192.162c.04.064.064.138.064.226a.397.397 0 01-.175-.121zM3.131 2.849c-.047.007-.459.07-.688.408-.138.209-.172.462-.098.759a.214.214 0 00.203.159c.044 0 .435-.01.678-.314.168-.21.212-.496.135-.847a.207.207 0 00-.23-.165zm-.226.749a.387.387 0 01-.179.12c0-.087.024-.164.064-.225a.521.521 0 01.192-.162.422.422 0 01-.077.267zM4.562.75c-.047.007-.459.07-.689.409-.138.209-.172.462-.097.759a.212.212 0 00.202.158c.044 0 .435-.01.678-.314.169-.21.213-.496.135-.847A.208.208 0 004.562.75zm-.23.749a.394.394 0 01-.178.122c0-.088.024-.165.064-.226a.506.506 0 01.192-.162.409.409 0 01-.078.266zm14.245 9.063a.208.208 0 00.206.186h.024a.208.208 0 00.182-.233c-.209-1.822-1.454-3.111-1.508-3.165a.208.208 0 00-.297.29c.013.013 1.201 1.245 1.393 2.922zm-13.361.182h.024a.205.205 0 00.206-.186c.192-1.676 1.38-2.908 1.39-2.918a.208.208 0 00-.003-.294.205.205 0 00-.294.004c-.054.054-1.296 1.343-1.508 3.165a.211.211 0 00.185.229z"/></svg>