<svg role="img" viewBox="0 0 24 24" xmlns="http://www.w3.org/2000/svg"><title>Habitica</title><path d="M23.72 21.592c-.239-.526-.794-.782-1.155-.526-.36.256-.859.293-1.334.179-.475-.114-.566-1.198-.464-2.446.103-1.25.273-1.73.382-2.185.122-.455.657-.418.722-.063.065.356.435.36.98-.293.542-.648.462-2.543-.166-4.084s.244-1.39.497-1.237c.254.154.41-.077.347-.955-.06-.88-.876-1.568-1.53-1.99-.654-.42-1.454-.884-1.434-2.013.02-1.13 1.56-1.092 1.77-1.072.21.02.611-.07.378-1.24-.233-1.172-1.072-1.394-1.599-1.363-.527.031-.88.32-1.627.04-.745-.279-1.24-.17-1.934-.017-.694.153-1.603.58-2.733.884-.597.163-.8.205-1.448.214-.398.005-.566.486-.03 1.078.42.48 1.379.609 1.953.529.37-.051.455.193.42.552a6.028 6.028 0 0 0-.007 1.34c.06.446.134 1.209-.077 1.706-.105.245-.41.507-.734.487-.424-.026-.765-.524-1.06-1.112-.618-1.24-1.346-1.502-4.054-2.637C7.345 4.346 6.028 2.756 5.21 1.729c-.725-.907-1.453-.563-1.388.256.054.635.444 2.69 1.434 3.923 1.218 1.886 3.098 2.74 5.26 2.907.566.046.918.157.967.413.07.549-.467.927-1.47.813-1.002-.116-1.432.066-1.232.635.637 1.336 2.107 1.393 2.716 1.45.205.037.933 0 1.323.106.452.124.552.75-.105 1.088-1.17.57-1.68 1.038-2.27 2.114-.447.844-.831 2.255-.43 4.29.384 1.976-2.503 2.039-3.75 1.757-.537-.114-1.103-1.13.217-1.977 1.067-.688 1.28-1.112 1.235-1.983-.054-1.015-.618-1.09-.618-1.97v-2.106a.325.325 0 0 0-.327-.324h-1a.325.325 0 0 1-.327-.325v-1.268a.325.325 0 0 0-.327-.324h-.996a.325.325 0 0 1-.327-.325V9.742a.325.325 0 0 0-.327-.324H2.256a.325.325 0 0 1-.327-.324V7.899a.325.325 0 0 0-.327-.324H.328A.325.325 0 0 0 0 7.899V9.17c0 .179.145.324.327.324h1.214c.182 0 .327.145.327.324v4.536c0 .18.145.325.327.325H3.48c.182 0 .327.145.327.324v1.482c0 .18.145.324.327.324h1.801c.552-.04.646.697.64.96-.01.599-.69.789-1.015 1.039-.86.66-1.525 1.332-1.135 2.624l.008.025c.708 1.5 2.657 1.343 3.89 1.343h7.744c.438 0 .888.102.785-.407-.102-.506-.318-1.2-.95-1.2-.631 0-.526.347-1.143.17-.617-.177-.617-1.007.307-2.446.956-1.232 2.597-1.138 3.587-.267.99.87.696 2.38.49 3.25-.12.612.163.914.5.905h3.93c.606-.01.487-.415.14-1.206z"/></svg>