<svg role="img" viewBox="0 0 24 24" xmlns="http://www.w3.org/2000/svg"><title>Hack The Box</title><path d="M22.555 6.502a.967.967 0 0 0-.254-.662h-.051l-.051-.05-.05-.052h-.052L12.432.143l-.05-.05c-.255-.153-.61-.103-.865.05L1.852 5.688h-.05l-.052.05-.05.051-.052.051c-.152.153-.203.356-.203.61v11.192c0 .305.203.61.458.763l9.665 5.544s.05 0 .05.051H12.33s.051 0 .051-.05l9.665-5.545a.84.84 0 0 0 .458-.763l.051-11.14zM5.209 6.095l6.562-3.816c.153-.05.305-.05.407 0l6.562 3.816c.203.101.254.356.153.56l-.153.152-6.562 3.815c-.153.05-.305.05-.407 0L5.21 6.807c-.203-.102-.254-.356-.152-.56l.152-.152zm5.646 14.446a.401.401 0 0 1-.406.407c-.051 0-.153 0-.204-.051l-6.562-3.764c-.152-.051-.203-.204-.203-.356v-7.63c0-.255.203-.407.407-.407.05 0 .152 0 .203.05l6.562 3.765c.153.05.203.203.203.356v7.63zm9.665-3.815a.428.428 0 0 1-.203.356l-6.562 3.764c-.204.102-.458.051-.56-.152-.05-.051-.05-.153-.05-.204v-7.528c0-.153.101-.306.203-.356L19.91 8.79c.203-.102.458-.051.56.152.05.051.05.153.05.204v7.579z"/></svg>