<svg role="img" viewBox="0 0 24 24" xmlns="http://www.w3.org/2000/svg"><title>HackHands icon</title><path d="M5.3 17.63h6.35c.5 0 .89-.4.89-.9s-.4-.89-.9-.89H5.3c-.5 0-.89.4-.89.89 0 .5.4.9.9.9zM16.58 13.77c0-.5-.4-.9-.9-.9H6.54c-.5 0-.89.4-.89.9s.4.9.9.9h9.15c.5 0 .9-.4.9-.9zM18.44 10.8a.91.91 0 0 0-.89-.88H6.53c-.5 0-.89.39-.89.89s.4.89.9.89h11.01c.5 0 .89-.4.89-.9zM5.64 7.82c0 .5.4.89.9.89h9.5c.49 0 .88-.4.88-.9 0-.49-.4-.88-.89-.88h-9.5c-.5 0-.89.39-.89.89zM7.92 3.96H5.3c-.5 0-.89.4-.89.9s.4.89.9.89h2.64c.5 0 .9-.4.9-.9a.93.93 0 0 0-.93-.89zM22.87 20.8a.93.93 0 0 0-.94-.94H4.7c-.95 0-1.73-.8-1.73-1.74V3.57c0-.95.78-1.73 1.73-1.73h14.55c.95 0 1.74.76 1.74 1.73v11.8c0 .5.42.92.9.92.51 0 .93-.42.93-.92V3.57c0-1.97-1.6-3.57-3.57-3.57H4.7a3.57 3.57 0 0 0-3.57 3.57v14.55c0 1.97 1.6 3.57 3.57 3.57H20.4L22.87 24v-3.2z"/></svg>