<svg role="img" viewBox="0 0 24 24" xmlns="http://www.w3.org/2000/svg"><title>HackerEarth icon</title><path d="M20.9803 0H9.5063v6.4935h.11a3.6287 3.6287 0 013.5566-1.332l-.023-.004c1.9659.144 3.9097 1.336 4.0197 5.1576v7.5534a.299.299 0 01-.287.287h-2.1098a.287.287 0 01-.287-.287v-7.3214c0-1.7778-.585-3.1137-2.3408-3.1137h-.038a2.6058 2.6058 0 00-2.5998 2.7797v-.008 7.6644a.287.287 0 01-.287.287H7.1225a.287.287 0 01-.287-.287V.002H3.1919l-.067-.001c-.823 0-1.493.652-1.523 1.4679V22.454c.03.857.73 1.5409 1.59 1.5459h17.7905a1.4579 1.4579 0 001.4129-1.5499v.004V1.472A1.3799 1.3799 0 0021.0182.003l-.038.001h.002zm-2.5398 20.9813H5.5535v-1.325h12.887z"/></svg>