<svg width="16" height="16" viewBox="0 0 16 16" xmlns="http://www.w3.org/2000/svg"><path d="M12.286 6.899c.174 0 .319.139.319.319v1.437c0 .214.174.388.388.388h2.84c.197 0 .237.284.046.336l-5.714 1.646a.312.312 0 0 1-.4-.301V9.223a.141.141 0 0 0-.139-.14H3.362a.141.141 0 0 1-.14-.138V7.258a.432.432 0 0 0-.422-.434L.134 6.777c-.157-.006-.186-.226-.035-.272l5.842-1.687a.138.138 0 0 1 .173.134V6.58c0 .174.145.319.32.319h5.852zM5.86 3.028c.203-.035.25.232.25.232s.017.631 0 .892c-.018.26-.255.25-.255.25H3.536s-.21-.076-.238-.349c-.035-.272.29-.423.29-.423s2.069-.567 2.271-.602zm3.924-.736s-.03-.307.313-.44c.342-.128 2.179-.603 2.179-.603s.342-.134.365.313c.023.446 0 4.12 0 4.12s.011.301-.313.324c-.325.024-2.15 0-2.15 0s-.394.035-.394-.278V2.291zm.052 9.556c.017-.26.255-.25.25-.255h2.317s.203.075.238.348c.035.272-.29.423-.29.423s-2.069.568-2.272.602c-.203.041-.243-.226-.243-.226s-.017-.631 0-.892zm-3.68 1.86s.035.307-.313.44c-.342.128-2.179.603-2.179.603s-.342.134-.365-.313c-.023-.446 0-4.12 0-4.12s-.012-.301.313-.324c.324-.024 2.15 0 2.15 0s.353-.035.394.278c.04.307 0 .527 0 .527v2.91z" fill-rule="nonzero" /></svg>
