<svg role="img" viewBox="0 0 24 24" xmlns="http://www.w3.org/2000/svg"><title>HAL</title><path d="M18.8337 5.2738C19.3033 5.74383 19.9233 6.00705 20.5902 6.00705H20.5996C21.1726 6.00705 21.708 5.81904 22.1495 5.46181C21.2477 4.0611 20.0642 2.84841 18.6834 1.92714C18.317 2.36898 18.1104 2.92362 18.1104 3.50646C18.1104 4.18331 18.364 4.80376 18.8337 5.2738ZM18.101 6.07286C16.7296 4.70975 15.9781 2.89542 15.9875 0.977674C15.9875 0.846064 15.9969 0.714454 15.9969 0.592245C15.189 0.310224 14.3436 0.103408 13.4701 0C13.4325 0.319624 13.4231 0.648649 13.4231 0.968273C13.4137 3.58167 14.4376 6.03525 16.2975 7.88719C18.2231 9.80493 20.7593 10.7638 23.2955 10.7638C23.5303 10.7638 23.7652 10.7544 24 10.7356C23.9061 9.86134 23.7276 9.00587 23.4552 8.19741C21.5108 8.24442 19.5663 7.52996 18.101 6.07286ZM15.5554 8.67685C13.0755 6.20446 11.272 3.25264 10.2481 0.0188026C9.38395 0.141012 8.55734 0.357228 7.7589 0.648649C8.8955 4.31492 10.9339 7.68978 13.7425 10.4912C16.4947 13.2362 19.7636 15.1727 23.2391 16.3196C23.5397 15.53 23.7746 14.7027 23.9061 13.8378C20.8532 12.8132 17.9789 11.0928 15.5554 8.67685ZM21.3887 19.5629L4.48063 2.51939C3.8137 3.05523 3.19374 3.65687 2.64892 4.31492L19.5757 21.3772C20.2427 20.8414 20.8532 20.2303 21.3887 19.5629ZM0.666927 7.75558C0.36634 8.55464 0.150294 9.3819 0.0281803 10.2468C3.16556 11.2714 6.11507 13.0106 8.59491 15.483C11.0184 17.8989 12.7937 20.785 13.8364 23.9248C14.7006 23.7932 15.5272 23.5676 16.3162 23.2573C15.1609 19.6757 13.1601 16.3948 10.4078 13.6592C7.66497 10.9236 4.31155 8.95887 0.742074 7.82139L0.666927 7.75558ZM7.86223 16.2726C5.72055 14.1387 2.818 13.1892 0 13.4336C0.103327 14.3079 0.300587 15.1539 0.582387 15.9624C2.55499 15.8872 4.55577 16.5922 6.05871 18.087C7.43014 19.4501 8.1816 21.2644 8.17221 23.1821C8.17221 23.2667 8.17221 23.3607 8.16282 23.4454C8.97065 23.718 9.81605 23.906 10.699 24C10.7178 23.7368 10.7366 23.4642 10.7366 23.1915C10.7366 20.5875 9.72211 18.1246 7.86223 16.2726ZM5.32603 18.886C4.85636 18.416 4.2364 18.1528 3.56947 18.1528H3.56008C2.9683 18.1528 2.41409 18.3596 1.96321 18.7356C2.89315 20.1175 4.10489 21.2926 5.51389 22.1857C5.86145 21.7532 6.04931 21.2174 6.04931 20.6533C6.04931 19.9859 5.7863 19.3654 5.32603 18.886Z"/></svg>