<svg role="img" viewBox="0 0 24 24" xmlns="http://www.w3.org/2000/svg"><title>HAL</title><path d="M18.794 5.327a2.555 2.555 0 0 1-.162-3.413 12.105 12.105 0 0 1 3.549 3.615 2.51 2.51 0 0 1-1.581.553h-.01a2.534 2.534 0 0 1-1.796-.755zm4.46 5.503h.036c.238 0 .476-.01.71-.027a12.12 12.12 0 0 0-.566-2.66 7.27 7.27 0 0 1-5.287-2.106A7.056 7.056 0 0 1 16.058.624a12.05 12.05 0 0 0-2.64-.62 9.685 9.685 0 0 0 2.834 7.933 9.918 9.918 0 0 0 7.002 2.893zm-7.65-2.188a21.175 21.175 0 0 1-5.282-8.61c-.903.125-1.774.35-2.605.66a23.878 23.878 0 0 0 5.992 9.85 24.159 24.159 0 0 0 8.027 5.3c.49.198.988.383 1.487.549.323-.827.557-1.694.696-2.597a21.564 21.564 0 0 1-8.314-5.152zM2.629 4.375l16.907 17.029c.7-.562 1.334-1.2 1.896-1.9L4.54 2.493a12.038 12.038 0 0 0-1.913 1.882zm7.829 9.244a24.159 24.159 0 0 0-8.027-5.3c-.57-.23-1.145-.436-1.725-.624a11.954 11.954 0 0 0-.67 2.6 21.565 21.565 0 0 1 8.53 5.224 21.238 21.238 0 0 1 5.216 8.405c.903-.135 1.77-.369 2.596-.692-.18-.553-.377-1.1-.602-1.644a23.766 23.766 0 0 0-5.318-7.969zm-9.54-.287c-.31 0-.616.013-.917.04.103.921.314 1.806.61 2.65.09-.004.18-.004.27-.004 1.865 0 3.729.705 5.144 2.111a7.056 7.056 0 0 1 2.097 5.044c0 .081-.004.167-.004.248.844.287 1.734.48 2.65.574.022-.269.036-.539.036-.813a9.688 9.688 0 0 0-2.888-6.957 9.91 9.91 0 0 0-6.999-2.893zm1.023 5.34a12.107 12.107 0 0 0 3.63 3.536c.35-.445.543-.993.548-1.568a2.55 2.55 0 0 0-4.177-1.967z"/></svg>