<svg role="img" viewBox="0 0 24 24" xmlns="http://www.w3.org/2000/svg"><title>H and M</title><path d="M16.8658 4.565c.8712-.4295 1.3035-.3723 1.313.0614.0123.5646-.0713 1.3128-.1309 1.8563-.3233 2.9477-.8644 5.3566-.9055 8.3837 1.4238-3.6861 2.6182-6.248 4.1552-9.4038.4887-1.004.7998-.8173 1.2008-.9957 1.5628-.6954 1.6213-.2682 1.417.5808-.7583 3.1508-2.6957 13.0683-2.9925 14.5953-.0862.4418-.5656.2546-.6907.0818-.5562-.769-1.1827-.781-1.1123-1.2927.3484-2.546 1.6035-8.9338 1.9306-10.4391-1.669 3.4197-3.3986 7.6943-4.2865 10.118-.1887.5147-.5314.477-.745.1003-.3005-.5289-.8832-.799-.9795-1.424-.3051-1.9876.3485-5.7758.4396-8.1726-.9082 2.618-2.433 7.701-3.1008 9.9975-.2762.9503-1.193.7952-.9493-.131 1.0151-3.854 3.201-10.6703 4.1478-13.1216.2224-.5758.805-.556 1.289-.7946zm-5.5352-.4736c.2764.0665.254.3926.085.838-.4985 1.3139-1.1898 3.04-1.9803 5.0755.497-.0567.7664-.076.7664-.076.7135-.088.8463.2687.6455.6484-.16.3026-.3528.1008-1.0204 1.096-.3762.5609-.9903.709-1.3313.7837-.8217 2.1755-1.7022 4.6021-2.5579 7.1884-.1245.3767-.4882.2941-.5976.1411-.4018-.5611-.6981-.5797-1.0096-1.0336-.0375-.0734-.1107-.1734-.0667-.3535.2291-.9361.8372-2.8597 1.7623-5.3922-1.1654.2526-2.4262.524-2.9467.645-.6247 1.6513-1.234 3.3075-1.8111 4.9437-.3581 1.015-1.2901.8188-.963-.1405.521-1.5281 1.096-3.1152 1.6727-4.6542-.6456-.069-.864-.5249-1.2248-.9058-.1393-.1471-.4431-.1264-.5918-.3327-.2676-.3707-.241-.5353.377-.7136a61.9953 61.9953 0 012.4312-.6488C4.0137 8.5056 4.9573 6.194 5.4602 4.9605c.3877-.9504 1.387-.8619 1.0074.0757-.7715 1.9055-1.5626 3.885-2.3433 5.8924a57.1711 57.1711 0 012.9039-.5756 150.0789 150.0789 0 012.2466-5.4491c.0549-.1257.2148-.3036.3815-.3321.5251-.09 1.379-.5515 1.6743-.4804zm-1.788 12.335c.0821-.0501.1638-.1113.2445-.1784-.0621-.1828-.1231-.366-.183-.5496a9.0546 9.0546 0 00-.1786.2361c-.3496.48-.1426.6508.1171.492zm.4651-2.2755c.4329-.4887-.4229-.6931-.2258.0543.011.0421.0248.0916.0402.1462a6.3722 6.3722 0 00.1856-.2005zm.4504 1.4728c.4285-.3713.8377-.003.414.6248a7.0724 7.0724 0 01-.3068.4232c.0443.128.0908.255.1392.3814.219.5616-.3561.7025-.5415.2373a10.5563 10.5563 0 01-.0505-.1295c-.3496.3097-.754.5047-1.186.3704-.7108-.2211-.8916-1.222-.228-1.993.2663-.3094.4667-.524.6341-.6954a16.3501 16.3501 0 01-.118-.4004c-.0862-.3122-.164-.676.1484-1.0468.5858-.6951 1.945-.078 1.2574.9922-.1656.2578-.3592.5012-.5611.748.0693.2206.1398.4408.2116.6607a5.0815 5.0815 0 01.1872-.173z"/></svg>