<svg role="img" viewBox="0 0 24 24" xmlns="http://www.w3.org/2000/svg"><title>Hanko</title><path d="M10.053 16.879H8.082v4.287c-1.134-.246-5.618-3.154-5.766-7.737V4.953C.837 6.924 0 9.339 0 12c0 5.963 4.336 10.891 10.053 11.828 0-.098 0-.246.049-.394zm-3.942.591V3.178h1.97v7.836h7.738V9.043h-5.766V.567c0-.148 0-.296-.05-.395A11.904 11.904 0 0 0 4.19 2.833v10.053c.049 1.528.345 3.204 1.922 4.584zm7.786-10.349h1.971V2.834c1.183.246 5.618 3.154 5.815 7.737v8.476C23.113 17.077 24 14.612 24 12 24 6.037 19.663 1.11 13.947.172c0 .099 0 .247-.05.395zm3.893-.591v14.341H15.82v-7.885H8.082v1.971h5.766v8.476c0 .149 0 .296.049.395a11.904 11.904 0 0 0 5.815-2.661V11.064c-.05-1.528-.345-3.154-1.922-4.534z"/></svg>