<svg role="img" viewBox="0 0 24 24" xmlns="http://www.w3.org/2000/svg"><title>HappyCow icon</title><path d="M8.754 1.217c-.471-.016-1.044.167-1.213.236-.868.35-1.603 1.167-2.02 2.242a5.711 5.711 0 0 0-.36 1.756 5.711 5.711 0 0 0 0 .01c-.01.422.01.697.073.945.044.175.147.42.236.643.044-.075.077-.155.127-.227.127-.18.272-.348.43-.505a5.016 5.016 0 0 1 1.074-.803c.124-.07.251-.126.377-.186-.169-.863-.382-2.818 1.213-3.361 0 0-1.204.854-.646 3.13.16-.054.315-.099.47-.136-.24-.73-.283-1.36-.078-1.857a2.373 2.373 0 0 1 .473-.598c.288-.29.551-.564.508-.883a.454.454 0 0 0-.246-.313.978.978 0 0 0-.418-.093zm9.627 1.88a.455.455 0 0 0-.346.169c-.179.25-.07.61.04.992a2.395 2.395 0 0 1 .138.764c-.08.747-.628 1.35-1.098 1.754.114.111.223.236.334.37 1.799-1.84 1.065-3.244 1.065-3.244 1.284 1.375-.245 3.26-.664 3.731.116.143.237.3.351.488.18.295.656 1.303.674 1.836.382-.433.706-.788.881-1.013.196-.251.31-.468.45-.823a5.69 5.69 0 0 0 .294-1.197c.14-1.144-.125-2.208-.726-2.924-.194-.232-.866-.902-1.37-.902a.455.455 0 0 0-.023 0zm-8.123 1.204c-.12.008-.19.025-.19.025s.96.31 1.159 1.059l.005.012c-.872-.164-1.397.117-1.72.369a1.53 1.53 0 0 0-.42.472c.309-.205.908-.363 1.562-.181 0 0 .127.012.483.152a1.732 1.732 0 0 0-.457.186.874.874 0 0 0-.463.668c-.047.294.032.59.191.927.053-.45.21-.669.44-.9.256-.246.753-.513 1.416-.615a2.605 2.605 0 0 1 2.127 1.494c.022-.231.045-.402.004-.625-.083-.426-.295-.67-.512-.826a1.803 1.803 0 0 0-.379-.198s.213-.126.615-.039c.2.041.208.045.375.096.156.048.33.138.522.235.227.114.549.288.828.484a1.58 1.58 0 0 0-.805-1.014c-.608-.37-1.316-.433-1.316-.433.36-.436 1.553-.096 1.553-.096-1.051-1.057-2.301-.328-2.301-.328a1.147 1.147 0 0 0-.38-.825 1.03 1.03 0 0 0-.415.711c-.753-.788-1.564-.836-1.922-.81zm-.55.887a6.369 6.369 0 0 0-.913.068 5.156 5.156 0 0 0-1.522.564 4.664 4.664 0 0 0-.998.745 3.436 3.436 0 0 0-.39.459 2.727 2.727 0 0 0-.284.51l-.166.394-.158-.397a19.2 19.2 0 0 1-.287-.75c-.096-.04-.237-.1-.262-.109a9.672 9.672 0 0 0-1.457-.41 5.724 5.724 0 0 0-.598-.084 3.804 3.804 0 0 0-.496-.01c-.507.025-1.036.17-1.48.572a2.207 2.207 0 0 0-.694 1.512 1.557 1.557 0 0 0 .418 1.166c.49.517 1.294.641 2.073.641.42 0 .834-.038 1.187-.074h.051l.084-.006c.34-.028.594-.059.822-.09 0 .006-.003.013-.004.02a9.23 9.23 0 0 0-.095 1.248 4.944 4.944 0 0 1 1.853-.135c.106.012.205.048.307.072.029-.66.216-2.871 1.598-2.986.107-.01.221-.005.343.015 2.407.388 1.402 3.843 1.198 4.48.705.313 1.39.503 2.144.593.361.043.732.03 1.104-.006.04-.708.321-3.896 2.402-3.88.156.002.32.022.497.063 1.643.395 1.01 2.537.777 3.2.128.001.256-.007.385.01a3.601 3.601 0 0 1 1.623.64c.053-.358.102-.727.121-1.113.226.103.511.222.887.367l.092.035c.684.267 1.621.633 2.453.633a1.985 1.985 0 0 0 .861-.17 1.4 1.4 0 0 0 .752-.906 1.855 1.855 0 0 0-.219-1.467c-.521-.812-1.505-1.037-2.306-1.147a8.75 8.75 0 0 0-1.012-.066 8.75 8.75 0 0 0-.498.01h-.053l-.025.002c-.218.259-.443.509-.877 1.01l-.24.277-.065-.361a6.157 6.157 0 0 0-.738-2.024c-.188-.308-.414-.548-.602-.791a4.89 4.89 0 0 0-1.006-.98 4.431 4.431 0 0 0-.45-.215c.207.27.38.64.411 1.13l.022.37-.3-.217a8.596 8.596 0 0 0-1.118-.676c-.164-.082-.164-.086-.292-.137.086.208.101.252.145.489.077.417.06.892-.133 1.289l-.19.388-.134-.41c-.323-.987-1.124-1.633-2.006-1.703-.521.105-.909.253-1.154.498-.252.25-.39.61-.397 1.201l-.006.545-.312-.447c-.311-.406-.583-1.058-.512-1.62.08-.518.322-.69.322-.69-.605-.041-.992.242-1.459.529l-.492.302.242-.523c.168-.364.406-.802.805-1.137.153-.128.34-.226.547-.305-.041 0-.085-.005-.125-.005zM2.41 6.963a1.64 1.64 0 0 1 .252.004c.113.01.23.028.351.049.284.047.873.208 1.117.492.245.284.976 1.344-.738 1.61-.559.056-1.448.16-1.875-.293-.389-.417-.227-1.155.17-1.534.24-.223.475-.31.723-.328zm6.144 1.838c-.74.023-1.327.895-1.308 1.965.003.188.035.361.076.53.088.036.18.068.266.107.457.207.88.462 1.299.71.138.083.27.146.406.218.376-.346.637-.924.625-1.618-.019-1.07-.622-1.935-1.364-1.912zm.073.938a.41.41 0 0 1 .408.406.407.407 0 1 1-.408-.406zm6.922.22c-.633-.058-1.338.5-1.686 1.373-.257.647-.22 1.278.01 1.731.216-.04.435-.07.647-.12.536-.122 1.096-.274 1.668-.343.054-.093.114-.18.156-.285.397-.998.162-2.016-.53-2.291a.952.952 0 0 0-.265-.065zm5.28.182c.227-.01.45.006.591.025.493.07.898.164 1.182.618.275.435.219 1.107-.283 1.353-.54.262-1.355-.075-1.875-.283-1.562-.7-.557-1.403-.237-1.578.16-.088.394-.125.622-.135zm-5.546.635a.405.405 0 0 1 .418.396.407.407 0 1 1-.418-.396zm-9.822.574a4.46 4.46 0 0 0-.875.152 3.339 3.339 0 0 0-.864.418c-.136.09-.26.188-.361.278l-.004.004c-.057.063-.119.12-.172.19-.607.787-.95 1.9-.912 3.161a6.866 6.866 0 0 0 1.8 4.393c1.317 1.45 3.247 2.378 5.587 2.68a18.325 18.325 0 0 0 2.332.158c1.972 0 3.625-.376 4.956-1.123 1.473-.84 2.492-2.156 2.865-3.711.31-1.295.14-2.594-.365-3.565l-.004-.004a3.363 3.363 0 0 0-.801-.822 3.265 3.265 0 0 0-1.54-.629c-.806-.1-1.654.16-2.505.356-.841.193-1.757.365-2.657.258-1.13-.136-2.13-.475-3.232-1.13-.42-.249-.833-.497-1.266-.693-.36-.163-.726-.308-1.092-.351a4.677 4.677 0 0 0-.89-.02zm2.136 1.928c.353.07.737.364.973.773.304.546.218 1.098-.2 1.221-.416.123-1.002-.218-1.308-.764-.305-.545-.217-1.099.2-1.222a.702.702 0 0 1 .335-.008zm-2.847.924c.538-.052 1.22.254 1.681.9.616.862.616 2.016.084 2.395-.531.379-1.552.01-2.168-.852-.615-.86-.613-1.885-.074-2.273a.961.961 0 0 1 .477-.17zm10.852.172c.26.03.453.176.506.416.092.426-.283.982-.852 1.26-.569.275-1.108.15-1.201-.276-.093-.427.283-.983.851-1.26.143-.069.284-.112.416-.133.1-.015.193-.018.28-.007zm1.867 1.61c.28-.014.53.06.703.233.464.462.236 1.45-.521 2.198-.748.747-1.734.983-2.198.521-.464-.461-.226-1.448.522-2.197.467-.468 1.026-.734 1.494-.756zM7.345 17.72a.127.127 0 0 1 .03 0 .127.127 0 0 1 .056.02.138.138 0 0 1 .047.182.916.916 0 0 1-.213.238 4.147 4.147 0 0 0 3.047 2.102 5.779 5.779 0 0 0 4.06-.96.982.982 0 0 1-.147-.253.118.118 0 0 1 .084-.16.147.147 0 0 1 .17.083.71.71 0 0 0 .474.426.143.143 0 0 1 .11.153.146.146 0 0 1-.149.093h-.017a.982.982 0 0 1-.338-.16c-.292.227-1.947 1.422-4.266 1.051-2.308-.369-3.122-1.936-3.262-2.24a.916.916 0 0 1-.316.062h-.02l-.004-.004a.126.126 0 0 1-.11-.133.117.117 0 0 1 .124-.128.638.638 0 0 0 .547-.305.127.127 0 0 1 .093-.067z"/></svg>