<svg role="img" viewBox="0 0 24 24" xmlns="http://www.w3.org/2000/svg"><title>HAProxy</title><path d="m10.016 13.769-3.52-.025.025-3.51 3.52.025zm3.555-3.535-3.52-.024.025-3.51 3.52.024zm0 7.473-3.52-.025.024-3.51 3.52.025zm3.938-3.928-3.52-.024.024-3.51 3.52.024zm-1.17-7.875-2.35-.016.016-2.34 2.35.016zm-6.314.01-2.35-.016.016-2.34 2.35.016zm-3.928 4.32-2.35-.016.016-2.34 2.35.016zm0 6.294-2.35-.016.016-2.34 2.35.016zm14.189-.01-2.35-.016.016-2.34 2.35.017zm0-6.283-2.35-.017.017-2.34 2.35.017zM2.941 6.307l-1.57-.011.01-1.56 1.57.01zm3.162-3.152-1.57-.011.01-1.56 1.57.011zm4.33-1.57-1.57-.012.01-1.56 1.57.011zM1.581 11.02l-1.57-.011.01-1.56 1.57.01zm19.104-4.712-.011-1.58 1.59-.01.01 1.58zM17.533 3.17l-.011-1.58 1.59-.01.01 1.58zm-4.331-1.58L13.19.01 14.78 0l.01 1.58zm9.214 9.44-.011-1.58 1.59-.01.01 1.58zm-12.382 9.426-2.35-.017.017-2.34 2.35.017zm5.912 0-2.35-.017.016-2.34 2.35.017zm6.31-1.188-1.57-.011.01-1.56 1.57.01zm-3.143 3.152-1.57-.011.01-1.56 1.57.01zm-3.945 1.575-1.57-.011.011-1.56 1.57.01zm8.817-9.042-1.57-.012.012-1.56 1.57.012zm-22.61 4.33-.01-1.58 1.59-.011.01 1.58zm3.156 3.147-.01-1.58 1.59-.011.01 1.58zM8.868 24l-.01-1.58 1.59-.01.01 1.58zM.005 14.952l-.01-1.58 1.59-.01.01 1.58z"/></svg>