<svg role="img" viewBox="0 0 24 24" xmlns="http://www.w3.org/2000/svg"><title>Harbor icon</title><path d="M11.987 0a12 12 0 1 0 .437 23.992 12.01 12.01 0 0 0 11.584-12.41A12 12 0 0 0 11.988.002zm-.02 2.12a9.898 9.898 0 0 1 5.213 1.435L12.01 9.23l7.523-3.688a9.898 9.898 0 0 1 1.233 1.788l-8.47 2.79 9.398-.323a9.898 9.898 0 0 1 .24 1.753l-9.317-.613 9.094 3.22a9.898 9.898 0 0 1-10.128 7.747l-.043-1.485-4.7-1.824-.095 1.78a9.898 9.898 0 0 1 4.922-18.25 9.898 9.898 0 0 1 .3-.007zM9.204 6.216l-2.5 2.822h.286v2.537h-.234v.88h.407l-.067 1.322 4.198 1.508-.127-2.832h.415v-.88h-.235V9.04h.283zM7.8 9.04h2.737v2.537h-.913v-1.61h-.91v1.61H7.8zm-.735 5.416l-.048.817 4.352 1.562-.033-.725zM6.99 15.78l-.043.82 4.486 1.61-.033-.72zm-.063 1.327l-.048.822L11.5 19.58l-.032-.715z"/></svg>