<svg aria-labelledby="simpleicons-hatenabookmark-icon" role="img" viewBox="0 0 24 24" xmlns="http://www.w3.org/2000/svg"><title id="simpleicons-hatenabookmark-icon">Hatena Bookmark icon</title><path d="M13.647 0C14.947 0 16 1.053 16 2.353v11.294c0 1.3-1.053 2.353-2.353 2.353H2.353C1.053 16 0 14.947 0 13.647V2.353C0 1.053 1.053 0 2.353 0h11.294zm-2.47 9.647c-.52 0-.94.42-.94.94s.42.942.94.942.94-.43.94-.95-.42-.94-.94-.94zm-5.436 1.85c.8 0 1.37-.028 1.72-.08.35-.056.65-.148.88-.275.3-.155.52-.376.68-.66.16-.284.24-.61.24-.986 0-.52-.14-.936-.42-1.247-.28-.32-.66-.49-1.16-.53.44-.12.77-.3.97-.54.21-.23.31-.55.31-.95 0-.32-.07-.59-.2-.84-.14-.24-.33-.43-.59-.58-.23-.13-.49-.21-.81-.27-.31-.05-.86-.08-1.65-.08H3.77v6.99h1.97zm.49-2.79c.47 0 .79.058.96.174.18.12.26.33.26.62 0 .27-.09.46-.28.57-.18.12-.51.17-.96.17h-.67V8.71h.7zm5.77.47V4.47h-1.64v4.707H12zM5.95 6.053c.473 0 .79.054.955.16.163.107.245.29.245.554 0 .253-.087.43-.26.535-.177.103-.498.155-.968.155h-.38V6.053h.41z"/></svg>