<svg viewBox="0 0 16 16" xmlns="http://www.w3.org/2000/svg" fill-rule="evenodd" clip-rule="evenodd" stroke-linejoin="round" stroke-miterlimit="1.414"><path d="M13.647 0C14.947 0 16 1.053 16 2.353v11.294c0 1.3-1.053 2.353-2.353 2.353H2.353C1.053 16 0 14.947 0 13.647V2.353C0 1.053 1.053 0 2.353 0h11.294zm-2.47 9.647c-.52 0-.94.42-.94.94s.42.942.94.942.94-.422.94-.942-.42-.94-.94-.94zm-5.436 1.85c.794 0 1.367-.028 1.717-.08.35-.056.643-.148.88-.275.294-.155.518-.376.675-.66.157-.284.236-.61.236-.986 0-.52-.14-.936-.42-1.247-.28-.312-.666-.487-1.163-.525.442-.12.763-.297.966-.533.203-.232.304-.548.304-.945 0-.314-.07-.592-.202-.833-.137-.238-.333-.43-.59-.573-.226-.123-.494-.21-.807-.262-.314-.05-.864-.075-1.652-.075H3.765v6.994H5.74zm.49-2.79c.463 0 .783.058.953.174.173.118.258.323.258.618 0 .263-.093.453-.28.566-.187.115-.508.17-.958.17h-.666V8.708h.695zm5.77.47V4.47h-1.647v4.707H12zM5.945 6.053c.473 0 .79.054.955.16.162.107.244.29.244.554 0 .253-.087.43-.26.535-.177.103-.498.155-.968.155h-.38V6.053h.41z"/></svg>