<svg role="img" viewBox="0 0 24 24" xmlns="http://www.w3.org/2000/svg"><title>Havells</title><path d="M24 11.925a12.915 12.915 0 0 0-2.436-7.468c-1.263-1.734-2.895-3.056-4.79-3.894-.15-.058-.644-.196-.77-.173-.471.092-.804.529-.908 1.103a2.688 2.688 0 0 0-.034.437c-.023.287-.035.586-.046.919v.241c-.012.368-.035.93-.07 1.15-.332 1.895-2.24 3.101-3.905 3.17-1.138.046-2.24.103-3.298.172-.586.046-1.171.092-1.734.138-.276.023-.54.046-.816.08h-.058c-.149.024-.298.035-.448.035-.103 0-.206 0-.287-.023a1.72 1.72 0 0 1-1.378-1.08 2.27 2.27 0 0 1-.161-.838c0-.391.092-.759.172-1.034.15-.517.345-1.15.632-1.781A12.847 12.847 0 0 0 1.31 6.422 12.79 12.79 0 0 0 0 11.81v.242c0 3.25 1.206 6.318 3.332 8.628-.287-.678-.471-1.39-.598-1.953-.08-.345-.16-.713-.16-1.092 0-.299.045-.586.149-.862.23-.631.69-1.068 1.31-1.229.16-.046.333-.069.517-.069.103 0 .206 0 .333.023.275.023.551.058.85.08.574.047 1.195.104 1.827.138 1.103.08 2.263.138 3.458.184.919.035 1.872.414 2.62 1.034.792.655 1.286 1.528 1.412 2.447.023.196.058.747.07 1.15 0 .137 0 .24.01.31.024.459.058.873.081 1.252.012.16.023.321.035.46.103.528.413.93.85 1.033.15.035.298.035.448 0 .115-.057.241-.103.356-.16a12.022 12.022 0 0 0 4.722-3.941C23.162 17.336 24 14.682 24 12.017v-.069zM5.4 22.265c-.184 0-.368-.069-.552-.218l-.011-.012h-.012l-.011-.023s-.012 0-.023-.011a1.907 1.907 0 0 1-.287-.31c-.506-.644-.92-1.655-1.264-3.08-.07-.31-.15-.654-.15-.976 0-.241.035-.471.115-.69.173-.47.506-.792.954-.918.126-.035.253-.046.39-.046.092 0 .173 0 .276.011.276.023.563.058.862.08.586.047 1.206.104 1.838.138.218.012.448.035.666.046a28.462 28.462 0 0 1-.31 1.655c-.298 1.321-.689 2.424-1.126 3.182-.425.747-.919 1.172-1.344 1.172M4.676 7.341c-.08 0-.15 0-.218-.011a1.229 1.229 0 0 1-.988-.77 1.727 1.727 0 0 1-.115-.643c0-.322.08-.655.15-.897.378-1.344.815-2.297 1.32-2.895.092-.115.196-.218.299-.298l.034-.023s.023-.023.035-.023a.917.917 0 0 1 .551-.207c.425 0 .874.379 1.264 1.08.414.724.758 1.78 1.023 3.056.092.436.16.873.23 1.344l-.552.034c-.62.046-1.183.092-1.746.138a17.83 17.83 0 0 0-.816.08h-.069a2.48 2.48 0 0 1-.402.035"/></svg>