<svg role="img" viewBox="0 0 24 24" xmlns="http://www.w3.org/2000/svg"><title>HedgeDoc</title><path d="M14.3612 14.5048a.9296.9296 0 0 0-.9296.9297c0 .5135.4162.9297.9296.9297a.9296.9296 0 0 0 .9297-.9297.9296.9296 0 0 0-.9297-.9297zm.3535.5329a.2578.2578 0 0 1 .2575.2577.2574.2574 0 0 1-.2575.2575.2575.2575 0 1 1 0-.5152zm-5.0684-.5329c-.5134 0-.9295.4161-.9295.9297 0 .5135.4161.9297.9295.9297a.9296.9296 0 0 0 .9298-.9297.9296.9296 0 0 0-.9298-.9297zm.3535.5329a.2578.2578 0 0 1 .2576.2577.2575.2575 0 0 1-.2576.2575.2574.2574 0 0 1-.2577-.2575.2578.2578 0 0 1 .2577-.2577zm3.2135 7.7506a1.7119 1.7119 0 0 0-1.2164-.5056c-.475 0-.9051.1932-1.2166.5056.005.6676.5476 1.2074 1.2165 1.2074.6688 0 1.2115-.5399 1.2165-1.2074M11.9998.0043l-1.215 1.2152L9.3296.3053l-.9142 1.455-1.6221-.5677-.5675 1.622-1.7078-.1924L4.3258 4.33l-1.7077.1923.1925 1.7077-1.6222.5676.5676 1.622-1.455.9143.9143 1.4553L0 12.0043l1.2152 1.2153-.9142 1.4552 1.455.9142-.5676 1.622 1.6222.5677-.1924 1.7074 1.7077.1925.1923 1.7076 1.7078-.1924.5675 1.622 1.622-.5675.9143 1.4551 1.455-.9144.7769.7698-6.5513-6.548c-.8316-.776-1.352-1.8812-1.352-3.1086 0-2.3487 1.9039-4.2526 4.2526-4.2526 1.2753 0 2.4187.5622 3.1982 1.4514l.886.886 1.0836-1.0836.0004.0005c.7683-.7608 1.825-1.2309 2.9917-1.2309 2.3487 0 4.2527 1.904 4.2527 4.2527h.0002c0 1.2935-.6358 2.4278-1.4897 3.2315l-6.5883 6.5924.9695-.9602 1.455.9142.9142-1.4552 1.6221.5677.5675-1.622 1.7078.1922.1923-1.7077 1.7078-.1924-.1925-1.7075 1.6222-.5677-.5677-1.6221 1.4551-.9142-.9143-1.455L24 12.0044l-1.2152-1.2152.9142-1.455-1.455-.9143.5676-1.6222-1.622-.5675.1923-1.7077-1.7077-.1924-.1924-1.7078-1.7077.1924-.5676-1.6221-1.6219.5676L14.6701.305l-1.455.9144Z"/></svg>