<svg role="img" viewBox="0 0 24 24" xmlns="http://www.w3.org/2000/svg"><title>HedgeDoc</title><path d="M13.25 22.553a1.781 1.781 0 0 0-1.252-.51c-.488 0-.932.195-1.252.51.006.675.563 1.22 1.252 1.22.688 0 1.246-.545 1.252-1.22m2.577-7.88c0 .601-.497 1.09-1.112 1.09a1.1 1.1 0 0 1-1.11-1.09 1.1 1.1 0 0 1 1.11-1.092c.615 0 1.112.489 1.112 1.091m-5.423 0a1.1 1.1 0 0 1-1.112 1.09 1.1 1.1 0 0 1-1.111-1.09 1.1 1.1 0 0 1 1.111-1.09 1.1 1.1 0 0 1 1.112 1.09M12.097.227l-1.913 1.341L7.93.914 6.6 2.816l-2.346.142-.586 2.234-2.157.92.23 2.295L.032 9.995l1.015 2.083L0 14.14l1.679 1.616-.267 2.291 2.141.955.549 2.243 2.344.178 1.3 1.925 2.965-.836-6.421-6.298a4.548 4.548 0 0 1-1.491-3.364c0-2.542 2.1-4.601 4.692-4.601 1.406 0 2.668.607 3.527 1.57l.978.959 1.195-1.173a4.725 4.725 0 0 1 3.3-1.332c2.591 0 4.692 2.061 4.692 4.603 0 1.4-.702 2.628-1.644 3.497l-6.357 6.243 2.886.798 1.33-1.902 2.348-.142.585-2.234 2.156-.921-.227-2.297 1.705-1.587-1.015-2.081L24 10.186l-1.68-1.614.266-2.293-2.14-.955-.55-2.243-2.344-.18L16.253.98l-2.265.619z"/></svg>