<svg role="img" viewBox="0 0 24 24" xmlns="http://www.w3.org/2000/svg"><title>Heimdall</title><path d="m 14.7,22.1 v -1.4 l 0.5,-1.5 c 3.3,-3.3 6,-6.4 6.4,-7.3 L 21,12 c 0,0 0.5,-0.7 0.5,-1 C 21.1,4.5 17.4,1.2 16.4,0.3 17.9,2.1 17.5,2.7 17.5,2.7 16.8,1.5 15.5,0.3 15.2,0 L 14.9,1.9 C 16.2,2.6 15.8,3 15.8,3 15.5,2.6 14.7,2.2 14.7,2.2 l -0.1,0.5 c 0.4,0.3 2.2,1.3 2.2,4 0,3.3 -1.9,4.2 -2.2,4.3 -1.1,-0.7 -2.3,-0.6 -2.6,-0.7 -0.3,0 -1.5,0 -2.5999992,0.7 -0.300001,-0.1 -2.2000001,-1 -2.2000001,-4.3 0,-2.7 1.7999991,-3.7 2.2000001,-3.9 l -0.1,-0.5 c 0,0 -0.800001,0.4 -1.1,0.8 0,0 -0.3,-0.4 0.9,-1.2 l -0.3,-1.9 c -0.300001,0.3 -1.6,1.5 -2.3,2.7 0,0 -0.4000005,-0.6 1.1,-2.4 -1,0.9 -4.7000005,4.2 -5.1000005,10.7 0,0.4 0.5,1 0.5,1 l -0.6,-0.2 c 0.5,1 3.1,4 6.4000005,7.3 l 0.5,1.5 V 22 l -0.4,-1.5 -1.0000001,-1.6 v 1.6 C 8.3000008,21.7 9.9000008,24 9.9000008,24 V 19.3 L 4.0000002,12.8 c 0,0 3.7000005,3 4.8000006,4.1 l 0.6,-0.6 c -0.7,-0.5 -3.7000005,-3.5 -3.9000006,-6.1 C 7.7000007,15 9.9000008,15.6 11.5,17.4 v 0.5 h 1.4 v -0.5 c 1.6,-1.8 3.7,-2.4 6,-7.2 -0.3,2.6 -3.3,5.6 -3.9,6.1 l 0.6,0.6 c 1.1,-1.1 4.8,-4.1 4.8,-4.1 l -5.9,6.5 V 24 c 0,0 1.5,-2.3 1.9,-3.4 V 19 l -1,1.6 z M 12,16.4 c -1,-0.7 -3.5000003,-2.2 -4.5999993,-4.6 0.6,0.7 1.199999,1.3 1.899999,1.9 0,0 -0.1,-1.7 0.1,-2.1 0.2,2 0.7000003,2.9 2.6000003,4 1.9,-1.1 2.4,-2 2.6,-4 0.1,0.4 0.1,2.1 0.1,2.1 0.7,-0.6 1.3,-1.2 1.9,-1.9 -1.1,2.4 -3.6,3.9 -4.6,4.6 z"/></svg>