<svg role="img" viewBox="0 0 24 24" xmlns="http://www.w3.org/2000/svg"><title>HelloFresh</title><path d="M9.79 22.233c-.967-.097-2-.326-3.043-.759a10.973 10.973 0 0 1-1.212-.61c-.362-.207-.657-.458-1.213-.728a6.376 6.376 0 0 0-2.111-.61c-.984-.067-1.038.012-1.319-.075a1.206 1.206 0 0 1-.495-.285 1.445 1.445 0 0 1-.16-.18 1.314 1.314 0 0 1-.195-.4.966.966 0 0 1-.042-.333c0-.156.015-.24.035-.312.076-.278.173-.34.43-.847a6.116 6.116 0 0 0 .673-2.973c-.015-.506-.038-.613-.04-1.045a10.097 10.097 0 0 1 .554-3.286c.206-.607.389-1.007.605-1.433a11.824 11.824 0 0 1 2.935-3.692c.773-.655 1.974-1.5 3.554-2.118a12.352 12.352 0 0 1 3.064-.761c.664-.087 1.806-.124 2.975.053.996.151 2.244.487 3.513 1.2.431.243.681.438 1.014.63.814.47 1.65.705 2.448.801.424.051 1.061.005 1.302.067.147.038.255.086.39.176.113.075.362.276.49.648.061.177.125.608-.098.991l-.156.267c-.05.084-.142.262-.207.396-.661 1.368-.647 2.547-.601 3.263.053.84.05 2.235-.542 3.965-.103.303-.336.931-.702 1.614a12.047 12.047 0 0 1-2.538 3.226 12.669 12.669 0 0 1-3.926 2.402c-.897.34-1.583.51-2.302.633-.694.118-1.82.242-3.08.115z"/></svg>