<svg role="img" viewBox="0 0 24 24" xmlns="http://www.w3.org/2000/svg"><title>Helm icon</title><path d="M16.688 17.969c.388-.272 1.274.325 1.98 1.332s.963 2.044.574 2.316c-.388.272-1.275-.325-1.98-1.332s-.963-2.044-.574-2.316zm-9.284 0c-.388-.272-1.274.325-1.98 1.332s-.963 2.044-.574 2.316c.388.272 1.275-.325 1.98-1.332s.963-2.044.574-2.316zm4.637 1.578c-.474 0-.858.997-.858 2.227s.384 2.227.858 2.227.858-.997.858-2.227-.384-2.227-.858-2.227zM16.688 6.031c.388.272 1.274-.325 1.98-1.332s.963-2.044.574-2.316c-.388-.272-1.275.325-1.98 1.332s-.963 2.044-.574 2.316zm-9.284 0c-.388.272-1.274-.325-1.98-1.332s-.963-2.044-.574-2.316c.388-.272 1.275.325 1.98 1.332s.963 2.044.574 2.316zm4.637-1.578c-.474 0-.858-.997-.858-2.227s.384-2.227.858-2.227.858.997.858 2.227-.384 2.227-.858 2.227zM.471 9.066h1.653v2.325h1.864V9.066h1.653v6.245H3.988v-2.479H2.124v2.479H.471V9.066zm6.552 0h4.035v1.384H8.675v.98h2.037v1.384H8.675v1.115h2.479v1.384H7.023V9.068zm5.342 0h1.653v4.862h2.364v1.384h-4.016V9.067zm5.092 0h1.71l.98 2.594.346 1.018h.038l.346-1.018.942-2.594h1.71v6.245h-1.537v-1.845c0-.16.008-.336.024-.528s.034-.389.053-.591.042-.399.067-.591c.026-.192.048-.365.067-.519h-.038l-.519 1.46-.865 2.104h-.615l-.865-2.104-.5-1.46h-.038l.067.519c.025.192.048.389.067.591.019.202.037.399.053.591s.024.368.024.528v1.845h-1.518V9.066z"/></svg>