<svg role="img" viewBox="0 0 24 24" xmlns="http://www.w3.org/2000/svg"><title>Heptabase</title><path d="M2.5 0A2.5 2.5 0 000 2.5v15a2.5 2.5 0 105 0v-1.802c0-.728.43-1.387 1.097-1.68a4.584 4.584 0 013.532-.062l.21.083A1.84 1.84 0 0111 15.75v5.75a2.5 2.5 0 005 0v-15a2.5 2.5 0 00-5 0v1.75a1.84 1.84 0 01-1.162 1.711l-.209.083a4.584 4.584 0 01-3.532-.063A1.834 1.834 0 015 8.302V2.5A2.5 2.5 0 002.5 0zm18.773 18.545a2.727 2.727 0 00-2.728 2.728A2.727 2.727 0 0021.273 24 2.727 2.727 0 0024 21.273a2.727 2.727 0 00-2.727-2.728z"/></svg>