<svg role="img" viewBox="0 0 24 24" xmlns="http://www.w3.org/2000/svg"><title>HERE icon</title><path d="M6.6206 19.6694l-3.3083 3.2992L0 19.6694zm4.8402-7.5317c-.6909-.8221-.6568-1.2657-.2293-1.6922.5197-.5207 1.0484-.3064 1.6411.2743zM18.55 3.133c.5186-.5196 1.0473-.3054 1.64.2754l-1.4117 1.4118c-.693-.819-.6599-1.2596-.2293-1.6872zm4.2765 1.4419c-.6438.9632-1.7443 2.5232-2.9328 1.3447l2.9738-2.9738c-.2663-.2834-.4706-.5247-.6118-.6769-1.616-1.602-3.4224-1.622-4.8402-.2143-.9442.9443-1.1915 2.0226-.9162 3.055l-.9172-1.0664a1.9375 1.9375 0 00-.5557 2.6735L13.96 5.8315l-1.4328 1.4078 1.9094 1.9095c-1.4759-1.1695-3.0549-1.0564-4.3456.2173-1.3647 1.3627-1.2706 3.0159-.2463 4.3756l-.2083-.2052c-1.3507-1.3498-2.8166-.8732-3.5445-.1462-.5618.5617-.9162 1.3317-.763 1.8694L2.407 12.3359l-1.558 1.558 5.7715 5.7755h3.099l-2.0807-2.0927c-1.0944-1.1125-1.1125-1.6992-.5808-2.2279.5307-.5287 1.1054-.1922 2.1538.8521l2.0567 2.0527 1.564-1.545L10.88 14.759c1.4058 1.0634 3.092 1.1215 4.5829-.3784l.028-.028a4.4357 4.4357 0 001.1916-1.6803l-1.1706-.785c-.6478.9613-1.7622 2.5263-2.9337 1.3658l2.9798-2.9799 1.8574 1.8424 1.62-1.619-2.323-2.322c-1.0843-1.0845-.4425-2.1028 0-2.4873a4.583 4.583 0 00.9173 1.2717c1.503 1.506 3.4434 1.8083 5.1516.1061l.027-.027A4.4397 4.4397 0 0024 5.3579z"/></svg>