<svg role="img" viewBox="0 0 24 24" xmlns="http://www.w3.org/2000/svg"><title>Heroic Games Launcher</title><path d="m9.002 16.261 2.295.398.47.672-.47.688-2.295.382-.584-1.07.584-1.07zm3.789 4.1-.294-2.167L12 17.75l-.509.444-.282 2.167.79.552zm2.207-4.1-2.295.398-.47.672.47.688 2.295.382.585-1.07-.585-1.07zm-1.37-11.057-1.675-2.9-1.674 2.9zm-1.116 11.3 1.116-11.3h-3.35l1.21 11.3.512.409zM11.997.001a.896.896 0 0 0-.36.076L11.22.26 3.616 3.613A.895.895 0 0 0 3.1 4.62l3.146 14.646c.043.197.15.374.306.503l4.881 4.027c.328.27.8.273 1.132.006l4.999-4.03a.895.895 0 0 0 .314-.516L20.9 4.615a.895.895 0 0 0-.515-1L12.774.26l-.416-.184a.895.895 0 0 0-.36-.076zm.001.352c.114 0 .228.023.334.07l.384.169 7.036 3.102a.828.828 0 0 1 .477.924l-2.793 13.535a.827.827 0 0 1-.29.477l-4.622 3.726a.828.828 0 0 1-1.046-.006l-4.513-3.723a.828.828 0 0 1-.282-.464L3.774 4.623a.828.828 0 0 1 .476-.931l7.03-3.1.385-.17a.827.827 0 0 1 .333-.07z"/></svg>