<svg role="img" viewBox="0 0 24 24" xmlns="http://www.w3.org/2000/svg"><title>Hetzner</title><path d="M2.861 10.529H2.45c-.093 0-.133.038-.133.132v1.04H.68v-1.04c0-.093-.039-.132-.133-.132H.132c-.094 0-.132.038-.132.132v2.678c0 .094.038.132.132.132h.414c.093 0 .133-.037.133-.132v-1.058h1.64v1.058c0 .093.038.132.132.132h.411c.093 0 .133-.038.133-.132v-2.678c-.003-.09-.041-.132-.134-.132zm3.476 2.317H4.155v-.552h1.744c.093 0 .132-.038.132-.132v-.321c0-.093-.037-.133-.132-.133H4.155v-.55h2.182c.093 0 .132-.038.132-.132v-.365c0-.093-.038-.132-.132-.132H3.615c-.093 0-.132.038-.132.132v2.677c0 .092.038.132.132.132h2.722c.093 0 .132-.038.132-.132v-.361c-.001-.093-.04-.131-.132-.131zm3.476-2.317h-2.73c-.094 0-.132.037-.132.132v.365c0 .092.037.132.132.132h1.029v2.18c0 .092.038.132.132.132h.437c.092 0 .132-.038.132-.132v-2.181h1.001c.093 0 .133-.039.133-.132v-.364c-.003-.09-.041-.132-.134-.132zm3.476 2.3h-1.885l1.889-1.66a.34.34 0 0 0 .132-.244v-.264c0-.093-.04-.132-.132-.132h-2.734c-.093 0-.132.038-.132.132v.366c0 .093.038.132.132.132h1.752l-1.757 1.65a.347.347 0 0 0-.133.243v.287c0 .093.039.132.133.132h2.731c.093 0 .132-.038.132-.132v-.38c.003-.092-.035-.13-.128-.13zm3.606-1.335a.959.959 0 0 0-.15-.529.874.874 0 0 0-.709-.436h-2.005c-.094 0-.132.038-.132.132v2.674c0 .093.038.133.132.133h.431c.093 0 .132-.038.132-.133v-2.18h1.162c.247 0 .488.163.488.41v1.773c0 .092.038.132.132.132h.39c.094 0 .133-.038.133-.132zm3.342 1.352h-2.186v-.552h1.744c.093 0 .132-.038.132-.132v-.321c0-.093-.038-.133-.132-.133H18.05v-.55h2.188c.093 0 .132-.038.132-.132v-.365c0-.093-.038-.132-.132-.132H17.51c-.093 0-.133.038-.133.132v2.677c0 .092.039.132.133.132h2.727c.093 0 .132-.038.132-.132v-.361c0-.093-.043-.131-.132-.131zm2.784-.45a1.352 1.352 0 0 0 .6-.264.813.813 0 0 0 .222-.633 1.02 1.02 0 0 0-.151-.537.856.856 0 0 0-.699-.422h-.144l-.337-.011h-1.526c-.093 0-.133.038-.133.132v2.674c0 .093.039.133.133.133h.396c.093 0 .133-.039.133-.133v-.886H22a.46.46 0 0 1 .287.12l.77.774a.407.407 0 0 0 .264.122h.592c.092 0 .115-.054.05-.12zm-.1-.569h-1.409v-.674h1.409a.282.282 0 0 1 .247.284v.105a.283.283 0 0 1-.247.285z"/></svg>