<svg role="img" viewBox="0 0 24 24" xmlns="http://www.w3.org/2000/svg"><title>hh.ru</title><path d="M0 12a12 12 0 1 1 24 0 12 12 0 1 1-24 0zM17.838 10.23c-.363-.374-.879-.579-1.509-.579c-.783 0-1.384.318-1.73.914V7.608h-1.816v8.102h1.816v-2.849c0-.664.136-1.089.341-1.339.198-.25.476-.346.777-.346.267 0,.476.085.624.238.148.159.233.403.233.743v3.546h1.816v-3.904c0-.664-.193-1.203-.55-1.572zm-8.119-.579c-.783 0-1.385.318-1.73.914V7.608h-1.816v8.102h1.816v-2.849c0-.664.136-1.089.34-1.339.198-.25.476-.346.778-.346.266 0,.476.085.624.238.147.159.232.403.232.743v3.546h1.816v-3.904c0-.664-.193-1.203-.556-1.577-.358-.374-.874-.573-1.504-.573z"/></svg>