<svg role="img" viewBox="0 0 24 24" xmlns="http://www.w3.org/2000/svg"><title>Hi Bob</title><path d="M12.526712 17.537804c-2.076739 0-3.7668554-1.70433-3.7668554-3.80034 0-2.09501 1.6901164-3.799328 3.7668554-3.799328s3.766854 1.704328 3.766854 3.799328c0 2.09601-1.690115 3.80034-3.765844 3.80034m0-6.407549c-1.425999 0-2.5858834 1.170029-2.5858834 2.607209 0 1.43818 1.1588744 2.60821 2.5848734 2.60821 1.425999 0 2.584873-1.17003 2.584873-2.60821 0-1.43718-1.159884-2.606199-2.584873-2.606199m-10.8195286-.732149V7.0818558a.85761139.85769 0 0 0-.8535917-.8606998c-.4719868 0-.8535918.38465-.8535918.8606999v6.6325181c.00201 2.24365 1.8096141 4.06447 4.0299606 4.06447 2.2213464 0 4.0289507-1.82284 4.0289507-4.06447 0-2.24063-1.8076043-4.0634679-4.0289507-4.0634679-.8646407 0-1.6650074.2781999-2.3227771.7482199zm2.3227771 5.658328a2.334826 2.33504 0 0 1-2.3227771-2.34307 2.334826 2.33504 0 0 1 2.3227771-2.342069 2.334826 2.33504 0 0 1 2.3227771 2.342069 2.334826 2.33504 0 0 1-2.3227771 2.34307m16.4652905-5.854168a3.49069 3.49101 0 0 0-2.847989 1.483378V6.7042359a.32938981.32942 0 0 0-.32738-.33142.32938981.32942 0 0 0-.328379.33142v7.0362481c.002 1.94838 1.572615 3.53219 3.504748 3.53219 1.931123 0 3.503749-1.58582 3.503749-3.5352 0-1.94938-1.572616-3.534188-3.504749-3.534188m0 6.407548c-1.569606 0-2.846979-1.28854-2.846979-2.87235s1.277373-2.872349 2.846979-2.872349c1.570606 0 2.847989 1.287539 2.847989 2.872349 0 1.58481-1.277373 2.87235-2.847989 2.87235"/></svg>