<svg role="img" viewBox="0 0 24 24" xmlns="http://www.w3.org/2000/svg"><title>Hi Bob</title><path d="M12.52676 17.53781c-2.07693 0-3.7672-1.70433-3.7672-3.80034 0-2.09501 1.69027-3.79933 3.7672-3.79933s3.7672 1.70433 3.7672 3.79933c0 2.09601-1.69027 3.80034-3.76619 3.80034m0-6.40755c-1.42613 0-2.58612 1.17003-2.58612 2.60721 0 1.43818 1.15898 2.60821 2.58511 2.60821s2.58511-1.17003 2.58511-2.60821c0-1.43718-1.15999-2.6062-2.58511-2.6062m-10.82052-.73215V7.08186a.85769.85769 0 0 0-.85367-.8607c-.47203 0-.85367.38465-.85367.8607v6.63252c.00201 2.24365 1.80978 4.06447 4.03033 4.06447 2.22155 0 4.02932-1.82284 4.02932-4.06447 0-2.24063-1.80777-4.06347-4.02932-4.06347-.86472 0-1.66516.2782-2.32299.74822zm2.32299 5.65833a2.33504 2.33504 0 0 1-2.32299-2.34307 2.33504 2.33504 0 0 1 2.32299-2.34207 2.33504 2.33504 0 0 1 2.32299 2.34207 2.33504 2.33504 0 0 1-2.32299 2.34307m16.4668-5.85417a3.49101 3.49101 0 0 0-2.84825 1.48338V6.70424a.32942.32942 0 0 0-.32741-.33142.32942.32942 0 0 0-.32841.33142v7.03625c.00201 1.94838 1.57276 3.53219 3.50507 3.53219 1.9313 0 3.50407-1.58582 3.50407-3.5352s-1.57276-3.53419-3.50507-3.53419m0 6.40755c-1.56975 0-2.84724-1.28854-2.84724-2.87235s1.27749-2.87235 2.84724-2.87235c1.57075 0 2.84825 1.28754 2.84825 2.87235s-1.27749 2.87235-2.84825 2.87235"/></svg>