<svg role="img" viewBox="0 0 24 24" xmlns="http://www.w3.org/2000/svg"><title>Hilton icon</title><path d="M11.14 3.804C4.71 3.804 0 7.857 0 12.18a7.08 7.08 0 0 0 2.898 5.405l.091-.09a6.175 6.175 0 0 1-2.446-4.954c.363-4.774 6.25-7.477 11.503-7.477 3.713 0 10.415.812 10.415 7.026 0 3.244-3.441 7.387-10.687 7.387-3.713 0-6.612-1.983-6.612-4.865 0-2.432 1.903-4.233 4.8-4.233.726 0 1.45.09 2.084.36a6.437 6.437 0 0 0-4.076.81v4.144h3.533V11.28c.543.09 1.086.27 1.539.63v4.144h.905c-.815.9-2.082 1.26-3.26 1.08v.18c3.351.271 4.8-1.35 4.8-3.152 0-2.072-1.992-3.333-3.984-3.603V7.406H7.969v3.153c-2.264.45-4.528 1.802-4.528 4.053 0 3.514 4.89 5.585 9.147 5.585 6.43 0 11.412-3.062 11.412-7.476 0-5.134-7.245-8.918-12.86-8.918m4.89 10.448c0-1.53-1.087-2.792-2.99-3.332V7.406h3.533v8.557h-1.087c.454-.541.635-1.081.544-1.712Z"/></svg>