<svg aria-labelledby="simpleicons-hipchat-icon" role="img" viewBox="0 0 24 24" xmlns="http://www.w3.org/2000/svg"><title id="simpleicons-hipchat-icon">HipChat icon</title><path d="M21.85 21.881c-.835-.477-1.609-1.314-2.029-2.448-.06-.24 0-.417.181-.536C22.506 17.044 24 14.24 24 11.135 24 5.405 18.627.747 12 .747 5.373.807 0 5.463 0 11.135c0 5.73 5.373 10.387 12 10.387.836 0 1.672-.059 2.508-.24.18-.059.357 0 .478.12 1.612 1.017 4.119 1.852 6.21 1.852.654 0 .953-.416.953-.835.12-.181-.121-.361-.299-.538zm-3.225-.955c.061.06.061.118.061.118 0 .062-.061.12-.12.12-.596 0-2.505-1.014-3.461-1.791-.119-.121-.3-.181-.597-.121-.777.181-1.672.301-2.508.301-5.551 0-10.03-3.702-10.03-8.3 0-4.596 4.479-8.298 10.03-8.298s10.031 3.702 10.031 8.298c0 2.688-1.553 5.134-4.062 6.627-.18.12-.359.3-.359.54 0 .535.479 1.73 1.017 2.506h-.002zm-.06-7.343c0-.24-.177-.48-.476-.48-.12 0-.24.06-.3.12-1.192 1.076-3.282 2.031-5.79 2.031s-4.478-1.02-5.79-2.04c-.06-.061-.24-.12-.3-.12-.3 0-.477.24-.477.539 0 .24.119.405.299.586.716 1.005 2.926 2.865 6.268 2.865h.061c3.345 0 5.55-1.801 6.27-2.926.06-.18.236-.42.236-.6l-.001.025z"/></svg>