<?xml version="1.0" encoding="UTF-8"?>
<svg id="Layer_2" data-name="Layer 2" xmlns="http://www.w3.org/2000/svg" viewBox="0 0 24 24">
  <title>HiveMQ</title>
  <g id="Layer_5" data-name="Layer 5">
    <path class="cls-1" d="m12,24C5.38,24,0,18.62,0,12S5.38,0,12,0s12,5.38,12,12-5.38,12-12,12Zm0-22.99C5.94,1.01,1.01,5.94,1.01,12s4.93,10.99,10.99,10.99,10.99-4.93,10.99-10.99S18.06,1.01,12,1.01Z"/>
    <path class="cls-1" d="m12.04,18.56c.49-.88.74-1.18,1.06-1.52h-2.13c.33.34.58.64,1.06,1.52h0Z"/>
    <path class="cls-1" d="m17.57,11.17c-.12.11-.13.3-.01.42l.04.05c1.72-1.46,2.75-2.6,2.23-3.49-.57-.79-2.95-.42-5.88.9.15-.3.22-.62.22-.95,0-.12,0-.24-.03-.36-.07-.42-.27-.82-.59-1.15-.18-.18-.38-.32-.59-.42v-.02h.01l.22-.49c.04-.08,0-.17-.08-.21-.08-.04-.17,0-.21.08l-.24.53c-.41-.12-.84-.12-1.25,0l-.24-.53c-.04-.08-.13-.11-.21-.08-.08.04-.11.13-.08.21l.22.47.02.04c-.22.1-.42.24-.59.42-.42.42-.63.99-.62,1.55,0,.3.07.6.21.88-.76-.34-4.96-2.08-5.8-.89-.77,1.08,1.59,2.97,2.22,3.51l.04-.05c.11-.12.1-.31-.01-.42-.31-.29-.79-.77-1.13-1.24-.44-.62-.46-.98-.24-1.18.67-.63,3.15.2,3.92.5.74.28,1.54.64,2.36,1.08-3.93,2.28-6.61,5-5.97,6.1.4.68,2.04.6,4.16-.15l-.08-.13c-.07-.12-.21-.17-.34-.13-1.47.44-2.38.66-2.7.18-.44-.76,1.8-3.39,5.27-5.4l.26-.15c.09.05.18.1.26.15,3.47,2,5.71,4.64,5.27,5.4-.32.47-1.23.26-2.7-.18-.13-.04-.27.01-.34.13l-.08.13c2.11.75,3.76.84,4.16.15.63-1.09-2.04-3.82-5.97-6.1,2.77-1.46,5.26-2.11,6.18-1.64.82.42-.62,1.87-1.27,2.49h0Zm-7.3-2.8c-.13-.79.29-1.58,1.02-1.92.13.79-.29,1.58-1.02,1.92Zm3.54,0c-.73-.34-1.15-1.13-1.02-1.92.73.34,1.15,1.13,1.02,1.92Z"/>
    <path class="cls-1" d="m9.6,15.06c.12.39.3.76.56,1.08h3.78c.25-.32.44-.69.56-1.08h-4.89Z"/>
    <path class="cls-1" d="m14.44,12.86c-.72-.53-1.53-1.06-2.4-1.57-.87.51-1.68,1.04-2.4,1.57-.14.41-.21.86-.19,1.3h5.18c.01-.44-.05-.88-.19-1.3h0Z"/>
  </g>
</svg>