<svg role="img" viewBox="0 0 24 24" xmlns="http://www.w3.org/2000/svg"><title>HockeyApp icon</title><path d="M21.794 15.002c.075-.057.181-.007.194.083.006.057.012.114.012.171C22 16.842 18.669 19 12 19c-6.669 0-10-2.158-10-3.737 0-.057.006-.115.013-.166a.12.12 0 0 1 .193-.082c1.656 1.19 4.919 2.209 9.794 2.209 4.881 0 8.144-1.019 9.794-2.222zM12 14.168c-5.406 0-8.988-1.229-10.738-2.649a.122.122 0 0 0-.187.039c-.094.178-.137.369-.137.56 0 1.75 3.687 4.087 11.062 4.087s11.063-2.33 11.063-4.087c0-.198-.044-.382-.138-.56a.122.122 0 0 0-.188-.039c-1.75 1.42-5.33 2.649-10.737 2.649zm12-5.73c0 2.018-4 4.711-12 4.711S0 10.456 0 8.438C0 6.42 4 5 12 5s12 1.42 12 3.438zm-3.5-.318c0-1.013-2.831-1.592-8.5-1.592-5.669 0-8.5.58-8.5 1.592s2.831 2.483 8.5 2.483c5.669 0 8.5-1.471 8.5-2.483z"/></svg>