<svg role="img" viewBox="0 0 24 24" xmlns="http://www.w3.org/2000/svg"><title>Homepage</title><path d="M1.991.034C1.217.166.602.841.415 1.769.388 1.901.36 21.858.388 23.895c.467-.068 2.494-1.89 3.361-2.685.03-1.62.014-3.24.011-4.86a56.623 56.623 0 0 1 3.054.043c.04.055.008 2.247.044 2.247 1.101-.922 2.162-1.874 3.36-2.669 3.265 2.595 6.291 5.49 9.6 8.028.089-.04-.048-14.726.121-14.761 1.227-.027 2.456-.017 3.684-.017l-.022-3.761c-.005-2.07-.032-3.817-.049-3.877-.143-.495-.51-1.022-.884-1.28-.472-.318.165-.302-10.566-.302-5.442-.005-9.99.011-10.11.033Z"/></svg>