<svg role="img" viewBox="0 0 24 24" xmlns="http://www.w3.org/2000/svg"><title>homepage</title><path d="M1.991.034C1.217.166.602.841.415 1.769.388 1.901.36 21.858.388 23.895c0 .181 0 .181.922-.593.506-.423.978-.83 1.055-.89.077-.066.412-.351.747-.626.34-.28.626-.543.637-.576.01-.039.022-1.148.016-2.466L3.76 16.35h1.516c.83 0 1.521.022 1.538.043.016.022.027.539.022 1.143 0 .61.01 1.104.022 1.104.016 0 .642-.522.724-.605.017-.016.401-.335.852-.713.922-.77.917-.764 1.373-1.148.28-.236.34-.264.411-.203.072.066 2.878 2.421 3.592 3.02.154.12.373.313.5.417.126.105.362.302.521.44.165.137.473.395.687.576.209.182.769.648 1.235 1.044.467.39.912.763.989.829.077.071.384.33.68.582.303.253.731.61.956.796.226.193.423.335.44.324.022-.01.038-3.333.038-7.38-.005-6.574.005-7.365.083-7.381.043-.011.895-.017 1.883-.017h1.801l-.022-3.761c-.005-2.07-.032-3.817-.049-3.877-.143-.495-.51-1.022-.884-1.28-.472-.318.165-.302-10.566-.302-5.442-.005-9.99.011-10.11.033Z"/></svg>