<svg role="img" xmlns="http://www.w3.org/2000/svg" viewBox="0 0 24 24"><title>Homebridge icon</title><path d="M22.9 12.2a.94.94 0 0 1-1-1l-2-2c-.3-.3-.5-.8-.5-1.2V3.3c0-.2-.2-.4-.4-.4h-1.2c-.2 0-.4.2-.4.4v3.3l-5.3-5.1c-.2-.1-.4-.1-.5 0l-10 10c-.2.1-.2.4 0 .5l.9.9c.2.1.4.1.5 0l7.7-7.5a1.75 1.75 0 0 1 2.5 0l7.5 7.5a1.75 1.75 0 0 1 0 2.5l-.9.9a1.75 1.75 0 0 1-2.5 0L12 11.2c-.2-.1-.4-.1-.5 0l-5.1 5.1c-.1.2-.1.4 0 .5l.9.9c.2.1.4.1.5 0l2.7-2.7a1.75 1.75 0 0 1 2.5 0l2.7 2.7a1.75 1.75 0 0 1 0 2.5L13.2 23c0 .6-.5 1-1 1-.6 0-1-.5-1-1a.94.94 0 0 1 1-1l2.7-2.7c.1-.1.1-.2.1-.3s0-.2-.1-.3L12.2 16c-.2-.1-.4-.1-.5 0L9 18.7a1.75 1.75 0 0 1-2.5 0l-.9-.9a1.75 1.75 0 0 1 0-2.5l5.1-5.1a1.75 1.75 0 0 1 2.5 0l5.3 5.1c.2.1.4.1.5 0l.9-.9c.1-.2.1-.4 0-.5l-7.5-7.5c-.2-.1-.4-.1-.5 0L4 13.9a1.75 1.75 0 0 1-2.5 0L.6 13a1.75 1.75 0 0 1 0-2.5l10-10a1.75 1.75 0 0 1 2.5 0L16 3.3a1.79 1.79 0 0 1 1.8-1.8H19a1.79 1.79 0 0 1 1.8 1.8v4.6c0 .1 0 .2.1.3l2 2a.94.94 0 0 1 1 1c0 .5-.4 1-1 1z"/></svg>