<svg role="img" viewBox="0 0 24 24" xmlns="http://www.w3.org/2000/svg"><title>homify icon</title><path d="M20.4996 10.5628v.053l-.004.05c-.09 2.3279-.058 11.3565-.057 11.8214.002 1.078-.84 1.943-1.62 1.283l-7.0756-5.5298c-2.2239 2.302-4.3578 4.4948-4.8078 4.9248-.992.946-1.8099-1.327-1.06-1.8079.068-.042 2.254-1.95 4.6739-4.0498l-5.2398-4.0948c-.454-.355-.628-.945-.368-1.26.09-.085.21-.13.332-.127.056.002.112.014.165.038 1.62.72 4.0148 2.492 6.3997 4.3268 2.4859-2.1499 4.8728-4.1898 5.1858-4.3628.388-.214.49.353.36.516-.132.166-2.2 2.326-4.4668 4.6798 2.2329 1.73 4.3518 3.3858 5.6897 4.1348l.22-10.6195c-.174-.207-5.4058-7.1627-5.9727-7.7476-.905.782-5.6448 6.1137-5.8838 6.3437 1.082.108 5.6758.382 8.5696.683.73.07 1.216.6059-.35.5919l-11.2594-.017c-.176-.006-.333-.11-.398-.267-.066-.157-.028-.336.096-.456.06-.058 8.1526-8.9226 8.8316-9.4865.154-.127.317-.188.487-.183.23.008.416.144.492.227.084.077 4.3497 5.9397 6.4316 8.7996.498.678.624 1.137.628 1.5019v.032z"/></svg>