<svg role="img" viewBox="0 0 24 24" xmlns="http://www.w3.org/2000/svg"><title>honor</title><path d="M 2.600,9.754 V 11.576 H 0.806 V 9.754 H 0 V 14.249 H 0.806 V 12.377 H 2.600 v 1.873 H 3.407 V 9.754 Z M 21.264,10.555 h 0.898 c 0.368,0 0.667,0.296 0.667,0.662 0,0.366 -0.298,0.662 -0.667,0.662 H 21.264 Z M 20.458,9.754 v 4.4959803 h 0.806268 v -2.000728 l 1.678662,2.000728 h 1.047926 L 22.614793,12.61078 c 0.690709,-0.219692 1.117789,-0.905129 1.007284,-1.616708 -0.110505,-0.71158 -0.725859,-1.23774 -1.450841,-1.2403763 H 20.456545 Z M 12.830626,9.7402946 V 12.545751 L 10.872957,9.7402946 h -0.644134 v 4.4955414 h 0.806705 v -2.818199 l 1.967336,2.818418 h 0.63315 V 9.7402946 Z M 5.3018078,11.99872 c 4.542e-4,-0.831531 0.6795051,-1.505324 1.5167485,-1.505104 0.8374627,4.38e-4 1.5158691,0.674671 1.5156495,1.506202 -2.198e-4,0.831531 -0.6788458,1.505544 -1.5163088,1.505544 -0.4022548,0 -0.7878126,-0.158617 -1.0720931,-0.44092 C 5.4615237,12.782139 5.3018078,12.398998 5.3018078,11.999599 Z m -0.8064863,8.62e-4 c 0,0.933249 0.565705,1.774227 1.4337048,2.131445 0.868,0.356998 1.866936,0.159935 2.5312823,-0.499798 0.6643465,-0.659717 0.8631666,-1.651842 0.5035322,-2.51391 C 8.604426,10.255251 7.7572967,9.6932807 6.817897,9.6932807 5.535779,9.6935003 4.49642,10.72539 4.495761,11.998939 Z M 15.531289,11.99872 c 4.55e-4,-0.831531 0.679505,-1.505544 1.516968,-1.505104 0.837462,4.38e-4 1.515649,0.674891 1.515209,1.506422 -2.2e-4,0.831531 -0.679285,1.505544 -1.516747,1.505105 -0.402035,0 -0.787594,-0.158617 -1.072093,-0.440921 -0.2845,-0.282303 -0.443996,-0.665444 -0.443996,-1.064843 z m -0.807145,8.62e-4 c -2.2e-4,0.933249 0.565704,1.774227 1.433485,2.131445 0.868,0.356998 1.867154,0.159935 2.531282,-0.499798 0.664126,-0.659732 0.863386,-1.652 0.504,-2.514 C 18.833,10.255 17.986,9.693 17.047,9.693 15.764,9.693 14.725,10.725 14.724,11.999 Z"/></svg>