<svg role="img" viewBox="0 0 24 24" xmlns="http://www.w3.org/2000/svg"><title id="title1">honor</title><path d="M 2.6004848,9.7536957 V 11.576034 H 0.80648654 V 9.7536957 H 0 V 14.249676 H 0.80648654 V 12.377029 H 2.6004848 v 1.872647 H 3.4069713 V 9.7536957 Z M 21.263911,10.55469 h 0.897879 c 0.368421,0 0.666763,0.296363 0.666763,0.661929 0,0.365786 -0.298342,0.66215 -0.666763,0.66215 H 21.263911 Z M 20.457863,9.7536957 v 4.4959803 h 0.806268 v -2.000728 l 1.678662,2.000728 h 1.047926 L 22.614793,12.61078 c 0.690709,-0.219692 1.117789,-0.905129 1.007284,-1.616708 -0.110505,-0.71158 -0.725859,-1.23774 -1.450841,-1.2403763 H 20.456545 Z M 12.830626,9.7402946 V 12.545751 L 10.872957,9.7402946 h -0.644134 v 4.4955414 h 0.806705 v -2.818199 l 1.967336,2.818418 h 0.63315 V 9.7402946 Z M 5.3018078,11.99872 c 4.542e-4,-0.831531 0.6795051,-1.505324 1.5167485,-1.505104 0.8374627,4.38e-4 1.5158691,0.674671 1.5156495,1.506202 -2.198e-4,0.831531 -0.6788458,1.505544 -1.5163088,1.505544 -0.4022548,0 -0.7878126,-0.158617 -1.0720931,-0.44092 C 5.4615237,12.782139 5.3018078,12.398998 5.3018078,11.999599 Z m -0.8064863,8.62e-4 c 0,0.933249 0.565705,1.774227 1.4337048,2.131445 0.868,0.356998 1.866936,0.159935 2.5312823,-0.499798 0.6643465,-0.659717 0.8631666,-1.651842 0.5035322,-2.51391 C 8.604426,10.255251 7.7572967,9.6932807 6.817897,9.6932807 5.535779,9.6935003 4.49642,10.72539 4.495761,11.998939 Z M 15.531289,11.99872 c 4.55e-4,-0.831531 0.679505,-1.505544 1.516968,-1.505104 0.837462,4.38e-4 1.515649,0.674891 1.515209,1.506422 -2.2e-4,0.831531 -0.679285,1.505544 -1.516747,1.505105 -0.402035,0 -0.787594,-0.158617 -1.072093,-0.440921 -0.2845,-0.282303 -0.443996,-0.665444 -0.443996,-1.064843 z m -0.807145,8.62e-4 c -2.2e-4,0.933249 0.565704,1.774227 1.433485,2.131445 0.868,0.356998 1.867154,0.159935 2.531282,-0.499798 0.664126,-0.659732 0.863386,-1.651858 0.503531,-2.513926 C 18.833028,10.25524 17.986118,9.6932701 17.0465,9.6932701 15.764382,9.6934898 14.724803,10.725379 14.724144,11.998928 Z"/></svg>
