<svg role="img" viewBox="0 0 24 24" xmlns="http://www.w3.org/2000/svg"><title>Honor</title><path d="M2.6 9.75v1.83H.8V9.75H0v4.5h.8v-1.87h1.8v1.87h.8v-4.5Zm18.66.8h.9c.37 0 .67.3.67.67 0 .36-.3.66-.67.66h-.9Zm-.8-.8v4.5h.8v-2l1.68 2H24l-1.38-1.64a1.46 1.46 0 0 0-.44-2.86h-1.71Zm-7.63-.01v2.8l-1.96-2.8h-.64v4.5h.8v-2.82L13 14.24h.64v-4.5ZM5.3 12c0-.83.68-1.5 1.52-1.5s1.51.67 1.51 1.5a1.51 1.51 0 0 1-2.58 1.06A1.5 1.5 0 0 1 5.3 12Zm-.8 0c0 .93.56 1.77 1.43 2.13.87.36 1.87.16 2.53-.5a2.3 2.3 0 0 0 .5-2.51A2.32 2.32 0 0 0 4.5 12Zm11.03 0c0-.83.68-1.5 1.52-1.5s1.51.67 1.51 1.5-.68 1.5-1.51 1.5a1.52 1.52 0 0 1-1.52-1.5zm-.8 0c0 .93.56 1.77 1.43 2.13.87.36 1.86.16 2.53-.5a2.3 2.3 0 0 0-1.64-3.94 2.31 2.31 0 0 0-2.33 2.3Z"/></svg>