<svg viewBox="0 0 16 16" xmlns="http://www.w3.org/2000/svg" fill-rule="evenodd" clip-rule="evenodd" stroke-linejoin="round" stroke-miterlimit="1.414"><path d="M8.016 0c.968.003 1.874.266 2.656.72.783-.45 1.69-.708 2.655-.705V16c-5.882-.017-10.67-4.77-10.654-10.657V.015C3.64.012 4.546.27 5.328.72 6.112.263 7.022 0 7.993 0h.023zm2.278 1.942c-1.192-.004-2.174.91-2.28 2.075l-.01-.014-.01.014c-.1-1.167-1.076-2.085-2.27-2.09-1.26-.003-2.287 1.018-2.29 2.28C3.43 5.47 4.45 6.495 5.712 6.497c.45.003.866-.127 1.22-.35l1.062 1.068 1.07-1.062c.352.225.768.357 1.217.358 1.264.005 2.29-1.015 2.293-2.277.004-1.262-1.016-2.288-2.28-2.29zm-.01 3.808c-.84-.003-1.522-.687-1.52-1.528 0-.157.025-.308.07-.45.118.265.383.45.693.452.42 0 .762-.34.763-.76 0-.31-.184-.574-.45-.694.144-.044.296-.067.452-.067.84.003 1.522.686 1.52 1.528-.003.842-.687 1.522-1.528 1.52zm-4.57-.013c-.84-.003-1.522-.686-1.52-1.528.003-.842.688-1.522 1.53-1.52.156 0 .307.025.45.07-.266.117-.452.382-.453.692 0 .42.34.762.76.764.31 0 .575-.184.695-.45.044.143.067.295.067.452-.003.84-.687 1.52-1.528 1.52z"/></svg>