<svg xmlns="http://www.w3.org/2000/svg" viewBox="0 0 16 16"><path fill-rule="evenodd" d="M7.974 0h.015A5.474 5.474 0 0 1 10.5.619a5.454 5.454 0 0 1 2.494-.605h.017l.435.001V16l-.438-.001a10.501 10.501 0 0 1-7.435-3.083A10.381 10.381 0 0 1 2.5 5.488V.015l.436-.001h.016c.867 0 1.724.208 2.494.605A5.474 5.474 0 0 1 7.974 0zm0 .437c-.921 0-1.784.248-2.527.68A4.995 4.995 0 0 0 2.952.45h-.015v5.038c-.016 5.566 4.51 10.059 10.072 10.074V.45h-.015a4.99 4.99 0 0 0-2.495.666 5.013 5.013 0 0 0-2.511-.68h-.014zm2.168 1.835a2.16 2.16 0 1 1-1.164 3.981l-1.01 1.005-1.005-1.01a2.16 2.16 0 1 1 1.004-2.013l.01-.014.01.013a2.16 2.16 0 0 1 2.155-1.962zM5.812 5.86a1.44 1.44 0 0 0 1.382-1.863.72.72 0 1 1-.949-.952 1.439 1.439 0 0 0-1.87 1.37A1.44 1.44 0 0 0 5.812 5.86zm4.32.012a1.44 1.44 0 1 0-.418-2.817.72.72 0 1 1-.953.947 1.44 1.44 0 0 0 1.37 1.87z"/></svg>