<svg role="img" viewBox="0 0 24 24" xmlns="http://www.w3.org/2000/svg"><title>Hoppscotch</title><path d="M11.294 14.522c.671.299 1.41.104 1.65-.436s-.109-1.22-.78-1.518c-.671-.3-1.41-.104-1.65.436-.241.539.109 1.219.78 1.518Zm7.237 1.233c-.162.565-.863.86-1.566.658-.703-.202-1.142-.823-.98-1.388.163-.564.864-.859 1.567-.657.703.201 1.141.822.98 1.387ZM7.777 11.371c.311-.499.06-1.217-.56-1.604-.62-.388-1.374-.298-1.686.2-.31.498-.06 1.217.56 1.604.62.388 1.375.298 1.686-.2Zm13.145 1.342a8.894 8.894 0 0 0-5.29-7.937 8.894 8.894 0 0 0-9.439 1.38C3.852 5.75 1.081 5.749.218 7.687c-.968 2.175 1.405 4.677 4.845 6.853a7.111 7.111 0 0 0 10.385 4.623c3.919 1.1 7.366 1.19 8.334-.984.863-1.939-.993-3.996-2.86-5.466Zm-10.088 2.84c-6.916-3.08-9.442-6.077-8.972-7.133.39-.875 2.708-.81 4.903-.318 2.246-2.365 5.487-2.86 8.134-1.68.333.148.656.385.62.618-.029.15-.112.327-.747.329-1.35.062-1.99.5-2.282 1.155-.291.655-.02 1.48.673 1.789 2.549 1.134 4.503 2.258 5.929 3.277 1.834 1.303 3.435 2.983 3.046 3.857-.47 1.056-4.388 1.185-11.304-1.894Z"/></svg>