<svg role="img" viewBox="0 0 24 24" xmlns="http://www.w3.org/2000/svg"><title>Hoppscotch</title><path d="M11.294 14.484c.671.298 1.41.103 1.65-.435s-.11-1.215-.78-1.512c-.671-.3-1.41-.104-1.65.434-.241.537.109 1.215.78 1.513Zm7.237 1.228c-.162.563-.863.857-1.566.656-.703-.201-1.142-.82-.98-1.383.163-.562.864-.856 1.567-.655.703.2 1.14.82.979 1.382ZM7.777 11.344c.31-.497.06-1.212-.56-1.598-.62-.387-1.374-.297-1.686.2-.31.495-.06 1.212.56 1.597.62.387 1.375.297 1.686-.199Zm13.145 1.337a8.84 8.84 0 0 0-1.491-4.72 8.886 8.886 0 0 0-3.799-3.188 8.924 8.924 0 0 0-9.44 1.375c-2.34-.404-5.111-.405-5.974 1.526-.968 2.167 1.405 4.66 4.845 6.828.247 1.07.74 2.069 1.441 2.917.701.848 1.59 1.522 2.597 1.969a7.134 7.134 0 0 0 6.347-.28c3.919 1.096 7.366 1.185 8.334-.98.863-1.933-.993-3.982-2.86-5.447Zm-10.088 2.83c-6.916-3.069-9.442-6.055-8.972-7.107.39-.872 2.708-.807 4.903-.317 2.246-2.356 5.487-2.85 8.134-1.674.333.148.656.384.62.616-.029.15-.112.326-.747.328-1.35.062-1.99.498-2.282 1.15-.291.653-.02 1.475.673 1.783 2.549 1.13 4.503 2.25 5.929 3.265 1.834 1.298 3.435 2.972 3.046 3.843-.47 1.052-4.388 1.18-11.304-1.887Z"/></svg>