<svg role="img" xmlns="http://www.w3.org/2000/svg" viewBox="0 0 24 24"><title>Hotjar icon</title><path d="M13.98 6.24s.744.825-.207 1.48c-.6.414-.839.951-.58 1.535.197.449.613.632 1.062.698-.115-.223-.144-.541-.059-.872.01-.033.016-.069.03-.098.124.193.33.301.534.252.275-.069.439-.4.364-.744a.759.759 0 00-.082-.213c.01.003.023.003.032.007.345.098.512.613.37 1.15a1.42 1.42 0 01-.206.456c.59-.19.987-.665 1.095-1.091.111-.443.023-.954-.197-1.35-.547-.994-2.156-1.21-2.156-1.21zM.43 8.343c-.289 0-.43.137-.43.426v6.112c0 .289.141.427.43.427h.632c.289 0 .43-.138.43-.427v-2.9c.137-.095.465-.243.829-.243.4 0 .521.233.521.577v2.563c0 .289.141.426.43.426h.635c.289 0 .43-.137.43-.426v-2.786c0-.891-.364-1.56-1.632-1.56-.515 0-.885.131-1.213.298V8.77c0-.289-.141-.426-.43-.426zM11.493 9.48a.765.765 0 00-.198.027l-.485.131c-.337.095-.449.197-.449.466v.606h.003l-.42.111c-.268.076-.373.197-.373.436v.213c0 .289.14.426.43.426h.363v1.895c0 1.095.475 1.645 1.8 1.645.177 0 .327-.016.42-.036a.457.457 0 00.383-.465v-.305c0-.242-.187-.39-.4-.39h-.095c-.476 0-.616-.206-.616-.567V11.9h.727c.289 0 .43-.138.43-.426v-.38c0-.289-.141-.427-.43-.427h-.727v-.78c0-.234-.11-.406-.363-.407zM7.16 10.533c-1.724 0-2.193 1.003-2.193 2.452 0 1.448.469 2.451 2.193 2.451 1.724 0 2.19-1.003 2.19-2.451 0-1.45-.466-2.452-2.19-2.452zm16.29 0c-.541 0-1.118.243-1.35.465-.132-.232-.161-.334-.42-.334h-.233c-.288 0-.43.138-.43.426v3.79c0 .288.142.425.43.425h.633c.288 0 .43-.137.43-.426v-2.851c.12-.112.55-.27 1.07-.27.263 0 .42-.147.42-.425v-.384c0-.259-.13-.416-.55-.416zm-5.182.007c-.607 0-1.164.131-1.436.213-.187.056-.334.197-.334.492v.252c0 .279.213.502.587.42.127-.036.685-.184 1.18-.184.4 0 .55.112.55.325v.298l-.849.085c-.839.085-1.76.269-1.76 1.524 0 .698.4 1.478 1.587 1.478.56 0 1.035-.186 1.37-.481l.036.065c.121.213.206.289.439.289h.197c.288 0 .429-.138.429-.427v-2.592c0-1.04-.318-1.757-1.996-1.757zm-3.815.125c-.289 0-.43.137-.43.426v4.795c0 .436-.272.583-.54.613-.338.036-.42.216-.42.42v.425c0 .279.216.417.56.417.96 0 1.885-.502 1.885-1.764v-4.906c0-.289-.138-.426-.43-.426zm-7.293 1.058c.511 0 .698.335.698 1.262 0 .928-.187 1.262-.698 1.262-.515 0-.698-.334-.698-1.262 0-.93.187-1.262.698-1.262zm11.655 1.44v1.028c-.15.148-.403.223-.672.223-.318 0-.54-.206-.54-.547 0-.364.167-.567.586-.623z"/></svg>