<svg role="img" viewBox="0 0 24 24" xmlns="http://www.w3.org/2000/svg"><title>howler.js</title><path d="M13.797.001c.88-.006 1.748-.003 2.423.2.346.104.67.231.952.4.214.129.396.291.59.438l.852.638c.548.392 1.054.823 1.576 1.238l.576.529c.293.236.586.565.819.862.421.537.836 1.084 1.066 1.815.071.225.105.461.148.719l.014.305.005.295c0 .242-.002.479-.038.691-.049.285-.063.546-.129.805a13.202 13.202 0 0 1-.619 1.796l-.4.924c-.036.077-.145.259-.105.319.175.085.401.447.51.619.261.415.403.876.519 1.453.042.211.015.427.052.657a3.32 3.32 0 0 1-.014.786l-.053.586c-.081.429-.151.829-.271 1.21-.47 1.49-1.365 2.629-2.666 3.291a5.143 5.143 0 0 1-1 .367c-.143.039-.352.094-.547.062a4.382 4.382 0 0 1-1.009-.276c-.171-.07-.452-.217-.647-.233-.522.285-.907 1.143-1.028 1.848l.038 1.638a.31.31 0 0 1-.186.005c-.103-.026-.131-.098-.225-.239a3.92 3.92 0 0 0-.347-.414c-.343-.304-.672-.613-1.152-.781-.208-.073-.528-.107-.752-.019-.231.091-.35.248-.514.4h-.01c-.118-.152-.318-.274-.476-.386-.539-.382-1.36-.76-2.323-.534-.37.087-.706.278-.988.35a8.94 8.94 0 0 1-.726.155c-.265.035-.382.054-.797.091a5.975 5.975 0 0 1-.983-.015 1.26 1.26 0 0 1-.419-.097.161.161 0 0 1-.09-.121h.005c.018.058.452.101.624.086a5.6 5.6 0 0 0 .618-.086c.334-.067.624-.178.881-.366.762-.557 1.205-1.429 1.576-2.382.128-.328.191-.691.295-1.038.099-.331.156-.667.224-1.043a3.34 3.34 0 0 0 .047-.457c.003-.147.034-.156.117.035.121.251.249.557.302.936h.005c.015-.067.043-.132.057-.21.032-.182.022-.347.011-.574-.027-.43-.052-.627-.068-.831-.005-.103-.021-.203-.026-.306-.036-.219-.051-.405-.088-.623-.048-.278-.123-.574.086-.738.098-.077.21-.135.329-.171.492-.151 1.164.052 1.604.143.133.027.329.065.495.038.188-.031.361-.032.524-.081a3.19 3.19 0 0 0 1.58-1.086c.177-.22.43-.353.543-.638.237-.602-.059-1.631-.214-2.124-.442-1.405-1.432-2.431-2.737-2.967a5.04 5.04 0 0 0-.924-.267l-.367-.033-.348-.005-.324.032c-.382.077-.727.165-.98.367-.281.224-.55.805-.938.876l-.081-.257c-.073-.239-.11-.495-.295-.619-.195-.13-.562-.083-.786-.014a2.588 2.588 0 0 0-1.338.905l-.357.366c-.354.44-.649.662-.766 1.362-.018.104-.001.243.014.329.059.323.123.589.205.886.024.088.1.334.076.438-.02.085-.095.149-.143.21-.163.206-.374.37-.533.576-.332.43-.575 1.066-.728 1.667-.087.339-.112.731-.176 1.111-.006.176-.017.328-.023.504.004.444-.01.419 0 .668.006.156.049.713-.039.756-.079.046-.275-.001-.357-.019-.362-.078-.624-.185-.871-.367-.421-.31-.679-.764-.828-1.348-.22-.86-.13-2.12.148-2.834.11-.281.205-.542.352-.776.045-.071.104-.223.205-.233l.005.005c.084.043.071.239.071.367 0 .299-.051.628.024.895.165-.005.174-.224.214-.352.078-.248.25-.779.543-.786v.01c.043.103-.066.379-.09.467-.085.31-.091.683-.09 1.048 0 .139-.016.494.052.553l.01-.01c.2-.1.265-.676.343-.924.119-.377.242-.76.428-1.072.166-.277.375-.509.543-.781.075-.121.337-.538.195-.743-.059-.085-.227-.037-.324-.01-.11.03-.215.078-.309.143-.05.036-.097.107-.162.124-.071.018-.122-.033-.157-.057.005-.163.189-.251.162-.419-.066-.08-.206-.024-.271.019-.149.097-.262.234-.4.343-.049.035-.104.104-.179.094v-.005l.162-.276c.194-.274.472-.564.795-.705.414-.181.871-.075 1.1-.462.179-.303.139-.796.214-1.205.115-.628.159-1.281.29-1.881l.105-.519c.149-.51.359-1.001.624-1.462.122-.209.22-.426.357-.619.204-.291.443-.555.661-.83.278-.35.624-.725.971-1.005.442-.357.834-.786 1.323-1.095.542-.343 1.151-.577 1.866-.757.287-.072.593-.099.9-.152l.952-.081.295-.014.563-.021zM10.184 5.56a.358.358 0 0 0-.295-.348c-.078-.014-.13.023-.182.038.064-.3.538-.438.952-.362.702.128 1.099.542 1.89.557-.074-.559-.443-1.232-.824-1.486-.15-.1-.377-.215-.619-.171.017-.098.083-.158.148-.21.054-.043.098-.098.167-.129.346-.153.894-.071 1.233.033a5.728 5.728 0 0 1 1.661.834c.198.142.368.315.557.467.229.184.428.383.705.524.078.04.196.128.324.105.265-.048.174-.468.105-.662-.03-.083-.113-.179-.005-.205.183-.043.378.031.495.091.359.182.61.478.833.795.898 1.276 1.001 3.441 1.138 5.463l.281.095c.176.056.363.095.514.176l.119-.348c.077-.242.137-.491.195-.753.111-.5.13-1.023.219-1.553l.033-.572.01-.438-.005-.357-.01-.414v-.594l-.01-.467c-.047-.289-.028-.576-.086-.838a4.572 4.572 0 0 0-.947-1.953 3.729 3.729 0 0 0-.547-.548c-.453-.365-.866-.785-1.452-1.019-.644-.257-1.675-.222-2.414-.067-.249.052-.501.075-.724.143-1.067.326-1.804.9-2.58 1.505-.774.604-1.663 1.434-2.08 2.381-.084.195-.14.396-.213.611.112-.003.219-.04.314-.067l.666-.167c.134-.037.273-.089.434-.09zM6.956 9.585h.014l-.095.166-.167.357c-.148.356-.222.741-.324 1.153l-.095.5h-.023a.371.371 0 0 0-.214 0l-.01-.01c-.114-.158-.125-.596-.076-.834.112-.542.319-.969.719-1.219.082-.051.18-.066.271-.113zm4.56.143c.104-.001.182.025.262.043l-.09.243-.219.543c-.148.349-.299.691-.447 1.029-.084.19-.169.394-.3.538-.222-.027-.314-.257-.505-.324-.028-.189.12-.566.171-.729.162-.511.309-.947.719-1.205a.994.994 0 0 1 .271-.119l.138-.019zM7.37 11.804c-.242 0-.485-.009-.724-.005v-.005c.115-.247.287-.401.609-.443.089.116.116.239.115.453zm1.362-.157c.112-.002.534.028.571.067l.048.248c.01.046.054.207.024.243-.242.258-.796-.081-.995-.167l-.248-.081.01-.01c.053-.148.242-.236.405-.276l.185-.024zm9.525.595c.003-.274-.239-.323-.476-.362h-.162l-.19.167c-.54.54-.901 1.2-1.138 2.048-.066.234-.211.61-.043.834.026.034.055.077.105.086.084-.083.155-.241.338-.205.189.168.146.712.209 1.019l.071.262.005-.01c.069-.095.097-.239.138-.357.13-.37.213-.785.333-1.167.173-.549.477-.938.762-1.367.129-.191.233-.397.309-.614.021-.061.074-.187.057-.257-.036-.09-.189-.079-.318-.077zm-12.029.424c.732-.013 1.318.407 1.638.805.086.107.188.203.271.314.275.366.484.777.618 1.215.339 1.087.132 2.626-.171 3.587-.082.259-.199.5-.3.738-.194.456-.32.829-.866.938a1.218 1.218 0 0 1-.395.005l-.29-.067c-.29-.091-.488-.249-.709-.405-.061-.043-.222-.175-.343-.143-.117.031-.176.242-.219.352l-.086.267c-.133.533.698.702 1.028.862l-.005.009c-.112.047-.185.147-.319.181-.189.048-.399-.01-.528-.067-.398-.173-.607-.558-.824-.915a6.191 6.191 0 0 1-.5-1.005c-.283-.728-.317-1.686-.319-2.686-.001-.398-.044-.853.019-1.224.043-.257.063-.504.133-.729.249-.796.749-1.423 1.409-1.81.151-.084.313-.146.481-.186l.277-.036zm13.081.096-.119.028a1.104 1.104 0 0 0-.267.152c-.159.122-.257.299-.362.476-.293.495-.462 1.083-.619 1.719-.062.25-.07.515-.114.786-.02.123-.025.297.067.333.118.047.216-.073.252-.133.048-.081.058-.199.086-.3l.171-.653c.18-.573.462-.985.79-1.4.145-.183.359-.299.481-.505.156-.261-.085-.507-.366-.503z"/></svg>