<svg role="img" viewBox="0 0 24 24" xmlns="http://www.w3.org/2000/svg"><title>How-To Geek</title><path d="m20.715 7.107-3.024 5.085-.066.112 1.16 1.774 1.868-3.23.83 1.34-2.714 4.65-2.863-4.394L19.78 5.83l.064-.121-1.516-2.297-5.133 8.748-.022.036 5.682 8.751 5.124-8.803.021-.036zM6.636 15.7l3.218 5.248.063.103 1.212-2.11.02-.038L9.177 15.7zm-1.291-5.36H8.12l3.536-5.988 4.35-.026h.101l1.328-2.267-11.542.027h-.04L4.515 4.353h4.383zm9.897-4.513h-2.769L8.86 12.013l-6.083.017L6.45 5.81H3.695L.066 11.97 0 12.085l5.912 9.82.021.034h2.832l-4.574-7.503 6-.006 4.532 7.478.021.035h2.808l-6.208-9.473Z"/></svg>