<svg role="img" viewBox="0 0 24 24" xmlns="http://www.w3.org/2000/svg"><title>HoYoLAB</title><path d="M.216 9.841a.215.215 0 0 0-.216.216v3.835c0 .12.096.216.216.216h.4c.12 0 .217-.096.217-.216v-1.47h1.913v1.468c0 .12.096.216.216.216h.4c.12 0 .216-.096.216-.216v-3.833a.215.215 0 0 0-.216-.216h-.4a.215.215 0 0 0-.216.216v1.52H.833v-1.52a.215.215 0 0 0-.216-.216zm6.74 0c-.13 0-.212.142-.145.255l1.474 2.49v1.304c0 .12.096.216.216.216h.4c.12 0 .217-.096.217-.216v-1.32l1.456-2.474a.167.167 0 0 0-.144-.252H9.9a.29.29 0 0 0-.252.146l-.953 1.7-.95-1.702a.287.287 0 0 0-.252-.147Zm7.084 0a.215.215 0 0 0-.216.216v3.163c0 .49.398.888.888.888h1.486c.12 0 .216-.096.216-.216v-.41a.215.215 0 0 0-.216-.216h-1.373a.167.167 0 0 1-.168-.168v-3.04a.215.215 0 0 0-.216-.217zm4.567 0a.321.321 0 0 0-.295.19l-1.704 3.84c-.05.11.031.235.154.235h.506a.264.264 0 0 0 .245-.163l1.099-2.66 1.102 2.66c.04.098.139.163.244.163h.495a.167.167 0 0 0 .153-.235L18.9 10.03a.32.32 0 0 0-.293-.19Zm2.499 0a.24.24 0 0 0-.24.24v3.787c0 .132.108.24.24.24h1.718c.65 0 1.176-.525 1.176-1.176v-.153c0-.324-.127-.617-.336-.833.115-.173.185-.38.185-.602v-.303a1.2 1.2 0 0 0-1.2-1.2zm.592.847h.982c.185 0 .336.152.336.336v.219a.337.337 0 0 1-.336.336h-.982Zm-16.262.104c-.756 0-1.368.612-1.368 1.368v.63c0 .757.612 1.369 1.368 1.369h.502c.756 0 1.368-.612 1.368-1.368v-.631c0-.756-.612-1.368-1.368-1.368zm6.031 0c-.756 0-1.368.612-1.368 1.368v.63c0 .757.612 1.369 1.368 1.369h.502c.756 0 1.368-.612 1.368-1.368v-.631c0-.756-.612-1.368-1.368-1.368zm-6.086.842h.612c.264 0 .48.216.48.48v.725c0 .264-.216.48-.48.48H5.38a.481.481 0 0 1-.48-.48v-.725c0-.266.213-.48.48-.48zm6.031 0h.612c.264 0 .48.216.48.48v.725c0 .264-.216.48-.48.48h-.612a.481.481 0 0 1-.48-.48v-.725c0-.266.214-.48.48-.48zm10.286.79h1.133c.185 0 .336.15.336.336v.17a.337.337 0 0 1-.336.336h-1.133z"/></svg>