<svg role="img" viewBox="0 0 24 24" xmlns="http://www.w3.org/2000/svg"><title>Hugging Face</title><path d="M14.0043 8.9915c-.3532-.6653-.1002-1.4908.565-1.844.6651-.353 1.4906-.1001 1.8438.565.3531.6652.1002 1.4907-.565 1.8439-.3518.1854-.4882-.5291-.8372-.6491l.0027-.0027c-.3136-.1091-.8427.4009-1.009.0872l-.0003-.0003zm-5.416-.0842-.0028-.0027c.311-.1091.8427.4009 1.0091.0872l.0002-.0003c.3531-.6653.1002-1.4908-.565-1.844s-1.4906-.1001-1.8438.565c-.3531.6652-.1002 1.4907.565 1.8439.349.1854.4881-.5291.8373-.6491zm5.4295 5.8439c-.5301.4179-1.2349.6984-2.1528.6988-.8631-.0004-1.5368-.2485-2.0548-.625l-.0001.0004c-.0036-.0026-.0068-.0055-.0103-.008a3.1553 3.1553 0 0 1-.172-.1357c-.008-.0068-.0161-.0133-.024-.02a3.2863 3.2863 0 0 1-.3239-.3212c-.0117-.0132-.0228-.0267-.0342-.04a3.5286 3.5286 0 0 1-.1048-.1292c-.013-.0167-.026-.0332-.0385-.05a3.5775 3.5775 0 0 1-.1149-.1624c-.0157-.0237-.03-.0477-.045-.0716a3.7553 3.7553 0 0 1-.0597-.0968 3.9885 3.9885 0 0 1-.0906-.1626c-.335-.633-.474-1.3057-.474-1.7943 0-.2664.0754-.3854.2116-.4108H8.53a.3285.3285 0 0 1 .0599-.0054l.0017-.0002.0033.0002c.0464.0006.0982.0087.1551.0237a1.2848 1.2848 0 0 1 .0692.0202c.0109.0035.0222.0076.0334.0115a2.1311 2.1311 0 0 1 .1246.0479 4.8464 4.8464 0 0 1 .1083.0473l.0237.0106c.4339.199 1.021.5355 1.6954.7371l.0027.0008c.0395.0117.0794.023.1194.0338l.0162.0043c.1112.0295.2246.0546.3399.075.0154.0027.0307.0057.0462.0082.0282.0046.0565.0083.0848.0123a3.1863 3.1863 0 0 0 .2335.0243c.021.0014.0417.003.0627.004a3.175 3.175 0 0 0 .143.004c.004 0 .0079.0003.0119.0003.044 0 .0876-.0017.1312-.0036.0132-.0006.0267-.0005.0398-.0012a3.2122 3.2122 0 0 0 .1335-.0107c.0124-.0012.025-.0018.0374-.003.0353-.0038.0701-.009.105-.0139.0219-.003.044-.0054.0658-.0088.0269-.0042.0534-.0095.0801-.0143.0294-.0053.0588-.01.088-.016.0173-.0035.0345-.0077.0518-.0115.0396-.0086.0792-.0171.1183-.0268l.0095-.0026c.5964-.1496 1.1335-.4202 1.5683-.6349.0703-.0346.137-.0671.2018-.0981l.0467-.0224c.0194-.0091.0379-.0175.0567-.0262.02-.0092.0404-.0187.0598-.0274.016-.0071.0313-.0136.047-.0203.021-.009.0421-.0183.0624-.0266.0158-.0065.0307-.012.046-.0179.0178-.0069.036-.014.0531-.02.0161-.0058.0315-.0106.047-.0155.0156-.005.0314-.01.0463-.0143.0147-.004.0286-.0072.0426-.0105a.7961.7961 0 0 1 .0428-.0091c.013-.0024.0254-.0038.0377-.0052a.489.489 0 0 1 .0398-.0033c.0049-.0001.0104-.0012.0152-.0012.007 0 .0133.0014.0201.0017a.3339.3339 0 0 1 .0289.0026.26.26 0 0 1 .032.0072c.0086.0024.0173.0047.0254.008a.2035.2035 0 0 1 .0275.0145c.0073.0043.0149.0084.0217.0137.0082.0065.0155.0145.0228.0223.006.0064.0124.0124.018.0199.0068.0094.0126.0207.0186.0318.0045.0082.0093.0157.0133.025.0055.0128.0097.028.0141.0428.003.01.0067.0192.0092.0302.0043.0186.007.04.0099.0613.0012.0094.0032.0175.0042.0276a1.122 1.122 0 0 1 .0049.1076c0 .0455-.0016.093-.004.1415-.0008.0145-.0019.0294-.0028.0442a3.319 3.319 0 0 1-.009.11 3.6787 3.6787 0 0 1-.023.1864c-.0012.0074-.002.0145-.0031.0219a3.9652 3.9652 0 0 1-.0292.162c-.0036.0181-.0078.0364-.0117.0547a4.1966 4.1966 0 0 1-.0776.305c-.0051.0172-.0097.0342-.015.0515a4.2099 4.2099 0 0 1-.0559.1683c-.0075.021-.0157.042-.0236.0632a4.1866 4.1866 0 0 1-.0753.1886 4.085 4.085 0 0 1-.0484.1078c-.0108.0235-.0213.047-.0327.0705a3.9942 3.9942 0 0 1-.0839.163c-.0128.0235-.0268.0469-.0402.0704a3.855 3.855 0 0 1-.0594.1008 3.7646 3.7646 0 0 1-.1137.174c-.017.0247-.0337.0494-.0514.0737a3.5874 3.5874 0 0 1-.1148.1496c-.0176.0217-.0366.0426-.0548.064a3.4379 3.4379 0 0 1-.0818.093 3.3476 3.3476 0 0 1-.1505.1527c-.023.022-.0458.044-.0696.0655a3.2193 3.2193 0 0 1-.1253.1067c-.0117.0095-.0224.0198-.0343.0292 0-.0003-.0002-.0004-.0003-.0006zm-.2813-.4128a2.346 2.346 0 0 0-1.082-.7239c-.1172-.0355-.2373.15-.36.3409-.1173.1827-.24.3682-.3627.3682-.1145 0-.229-.1882-.3382-.3736-.1172-.1937-.229-.3819-.3381-.3491a2.3722 2.3722 0 0 0-1.1783.8016c.44.3271 1.022.5472 1.788.5475.815-.0004 1.4223-.2493 1.8713-.6116zm4.6043-4.1493a.8864.8864 0 1 0 0-1.7727.8864.8864 0 0 0 0 1.7727zM5.6592 8.4164a.8864.8864 0 1 0 0 1.7727.8864.8864 0 0 0 0-1.7727zm18.0706 10.6498c.266.409.304.9256.1009 1.3691-.2781.6327-.9736 1.129-2.3209 1.6636-.84.3327-1.609.5454-1.6145.5482a12.0915 12.0915 0 0 1-2.9808.4363c-1.44 0-2.5087-.3997-3.1872-1.1848-.5837.1-1.1832.154-1.7955.154-.5705 0-1.13-.047-1.676-.1342-.6793.772-1.7424 1.165-3.1703 1.165a12.0915 12.0915 0 0 1-2.9808-.4363c-.0055-.0028-.7746-.2155-1.6118-.5482-1.35-.5345-2.0455-1.031-2.3236-1.6636a1.4235 1.4235 0 0 1 .1009-1.369 1.5949 1.5949 0 0 1-.2182-1.2928 1.4458 1.4458 0 0 1 .4882-.769 1.5818 1.5818 0 0 1 .2182-1.9091c.27-.2918.6518-.4528 1.0745-.4528.004.0001.008.0006.012.0006a10.5596 10.5596 0 0 1-.481-3.1586c0-5.8366 4.7314-10.568 10.568-10.568s10.568 4.7314 10.568 10.568c0 1.1034-.1699 2.167-.4838 3.1668a1.9273 1.9273 0 0 1 .1537-.0088c.4227 0 .8046.161 1.0746.4528a1.5818 1.5818 0 0 1 .2181 1.909c.2404.1975.4106.4672.4855.7691.0654.2455.131.7637-.2182 1.2927zM7.0855 21.9898c.6687 0 1.3244-.101 1.8402-.3881a2.1455 2.1455 0 0 0 .3421-.2369 1.8907 1.8907 0 0 0 .0966-.0886c.008-.0078.0155-.0163.0233-.0244a1.8735 1.8735 0 0 0 .1056-.1185 1.8088 1.8088 0 0 0 .0904-.1198 4.6416 4.6416 0 0 0 .1005-.1557 4.721 4.721 0 0 0 .0853-.1442h.0003c.5429-.9543.4135-1.7214-.5188-2.6537-1.031-1.031-1.631-2.5363-1.631-2.5363s-.2045-.7991-.6681-.7991c-.0191 0-.0436 0-.0654.0054-.51.0791-.8837 1.3855.1854 2.1845.7091.5318.3818.9491-.0409.9491-.21 0-.4473-.1064-.5836-.3573-.4118-.75-1.5327-2.678-2.1163-3.049-.1855-.1172-.3573-.1772-.4964-.1772-.2919 0-.45.259-.3573.7772.1364.761 2.569 2.6045 2.3346 3.0027-.0437.0763-.1092.1036-.1855.1036-.3355 0-.8864-.5727-.8864-.5727s-.0754-.0685-.2026-.1788l.0003.0004c-.4336-.376-1.4777-1.243-2.2322-1.561l-.0005-.0014c-.1775-.0747-.339-.1192-.4722-.1192-.1145 0-.2073.0327-.2727.1037-.5673.619.4336 1.1372 1.8545 1.999.1717.1038.3239.198.4592.2847l.0023.0016c.0284.0181.0557.0358.0826.0534l.018.0117c.0222.0144.0434.0285.0645.0425.0098.0065.0199.013.0294.0195a7.657 7.657 0 0 1 .06.0406l.0263.0179c.021.0143.041.0282.0607.042.0054.004.011.0078.0164.0116l.0547.039.0224.0163c.0167.0122.033.0242.0487.036l.0191.0144a4.3711 4.3711 0 0 1 .102.08l.0188.0154a2.5774 2.5774 0 0 1 .0838.0727l.0161.0149a1.4512 1.4512 0 0 1 .0676.067l.0096.0105a1.0914 1.0914 0 0 1 .0324.0369.8527.8527 0 0 1 .0218.027l.007.0094a.763.763 0 0 1 .0187.0262l.0048.0075a.5037.5037 0 0 1 .0162.0263c.0014.0023.0025.0045.0038.0069a.4701.4701 0 0 1 .0144.028c.0542.1162.035.2143-.0226.3196l-.0002.0004a.8403.8403 0 0 1-.0222.0383c-.0109.019-.0354.0272-.0655.0272-.4036 0-2.329-1.508-3.1853-1.508-.1991 0-.3382.079-.3927.278-.2946 1.1237 3.2099 1.451 2.9944 2.2282-.0354.1173-.1145.1636-.2263.1636-.51 0-1.6882-.9654-2.3373-.9654-.1609 0-.289.06-.3654.2073-.4609.8727 3.1772 1.9008 3.2072 1.909.5973.1528 1.6663.3982 2.7054.3982zm4.8463-1.0281c.3958 0 .786-.0245 1.169-.0718-.5626-1.2692-.2725-2.4551.8792-3.6046.7582-.7581 1.2627-1.8736 1.3663-2.119.2127-.7254.7718-1.5327 1.7018-1.5327.502.008.9692.2578 1.2545.6709.2727-.3436.54-.6136.7827-.7691a2.0187 2.0187 0 0 1 1.08-.3464c.389 0 .7419.14 1.0069.3985a9.4964 9.4964 0 0 0 .2367-2.103c0-5.234-4.243-9.477-9.477-9.477s-9.4772 4.243-9.4772 9.477c0 .7656.093 1.5092.2644 2.2222.002-.0025.0036-.0052.0056-.0077.2754-.33.6682-.51 1.11-.51a2.0186 2.0186 0 0 1 1.0827.3464c.24.1555.5073.4255.78.7691a1.5545 1.5545 0 0 1 1.2545-.6709c.93 0 1.4918.8073 1.7045 1.5327.1037.2454.6082 1.3609 1.3636 2.119 1.1561 1.1538 1.4444 2.3445.873 3.6193.3412.0373.6877.057 1.0388.057zm10.9607-2.9127c-.0518-.1991-.1908-.2782-.3927-.2782-.8563 0-2.7817 1.5081-3.1854 1.5081-.0272 0-.0518-.0081-.0627-.0272a.666.666 0 0 1-.0504-.097l-.0015.0014c-.0222-.0549-.031-.1092-.023-.1665l.0015-.0105a.3304.3304 0 0 1 .0163-.0598c.0022-.006.0051-.0119.0077-.0178a.4582.4582 0 0 1 .0152-.0314c.0026-.0048.005-.0096.0078-.0144a.6208.6208 0 0 1 .0311-.0479c.002-.003.0044-.006.0066-.009.1566-.2123.5414-.4942 1.3196-.9653 1.4263-.8618 2.4272-1.38 1.8545-1.999-.0627-.071-.1555-.1037-.2673-.1037-.1766 0-.4023.078-.6493.2008l-.0006.0014c-.8994.4482-2.0858 1.5014-2.2423 1.6418-.0108.0099-.0177.016-.0177.016l-.0141.0144c-.004.004-.0083.0081-.014.014l-.0037.0035a3.7226 3.7226 0 0 1-.0756.0726l-.0028.0026a3.6343 3.6343 0 0 1-.0482.0441l-.0092.0082a3.016 3.016 0 0 1-.0518.0455l-.0118.0102a3.152 3.152 0 0 1-.0568.0474c-.0038.003-.0073.006-.011.0091a2.7313 2.7313 0 0 1-.069.0542l-.0025.002v-.0001c-.1683.128-.3628.245-.5131.245a.202.202 0 0 1-.1855-.1036c-.2372-.3982 2.1954-2.2418 2.3318-3.0027.0927-.5182-.0654-.7772-.3573-.7772-.139 0-.3082.06-.4964.1772-.5808.371-1.7045 2.299-2.1163 3.049a.6627.6627 0 0 1-.5836.3573c-.42 0-.75-.4173-.0382-.949 1.0664-.7991.6927-2.1055.1827-2.1846a.4194.4194 0 0 0-.0654-.0054c-.4636 0-.6682.799-.6682.799s-.6 1.5055-1.6281 2.5364c-.9252.9227-1.0617 1.6836-.5364 2.6242l.001-.0003c.0597.1076.1259.2169.2027.3297.0377.0553.0786.1071.1213.157.012.0138.0245.027.0368.0404.0327.036.0665.0704.1017.1034.0138.013.0277.026.042.0385.04.0353.0817.0688.1246.1007.0092.0068.0178.0143.0272.021.0524.0375.1069.0725.1629.1053.5213.3044 1.1948.41 1.8789.41 1.0417 0 2.108-.2454 2.7081-.3982.0272-.0082 3.6681-1.0363 3.2072-1.909-.079-.1473-.2045-.2073-.3654-.2073-.649 0-1.83.9654-2.3373.9654-.1145 0-.1936-.0463-.2263-.1636-.2182-.7772 3.2863-1.1045 2.9917-2.2281z"/></svg>