<svg role="img" viewBox="0 0 24 24" xmlns="http://www.w3.org/2000/svg"><title>Hugging Face</title><path d="M14.0043 8.9915c-.3532-.6652-.1003-1.4908.565-1.844.6651-.353 1.4906-.1001 1.8438.565.3531.6652.1002 1.4907-.565 1.8439-.3518.1854-.4882-.5291-.8372-.6491l.0027-.0027c-.3137-.1091-.8427.4009-1.009.0873l-.0003-.0004zm-5.416-.0842-.0028-.0027c.311-.1091.8427.4009 1.0091.0873l.0002-.0004c.3531-.6652.1002-1.4908-.565-1.844s-1.4906-.1001-1.8438.565c-.3531.6652-.1002 1.4907.565 1.8439.349.1854.4881-.5291.8372-.6491zm5.4201 5.8299c-.5306.4196-1.2233.7124-2.1434.7128-.866-.0004-1.525-.2639-2.0437-.6425-.0032.0063-.0081.0115-.0113.0179-.0596-.0434-.1094-.0942-.165-.1407-.044-.0368-.0884-.072-.1298-.1107-.1546-.1439-.2955-.2966-.4168-.46-.0156-.0211-.0276-.0433-.0427-.0646a3.8068 3.8068 0 0 1-.286-.475c-.0192-.0377-.0384-.0742-.0563-.1121-.1761-.3732-.2866-.749-.3432-1.0913-.0033-.0194-.0064-.038-.0092-.0572-.0257-.1711-.0428-.3356-.0428-.4802 0-.1411.0246-.2346.0645-.3014.0037-.0064.0058-.0159.0099-.0217.0161-.0226.0376-.0363.0589-.0501.0107-.0072.0199-.0172.032-.0222.0214-.0088.0472-.0114.0726-.014.0125-.0014.0221-.007.0355-.007.0038 0 .0094.0025.0133.0027.0623.002.1331.0157.2136.0419.012.0038.0264.01.0388.0145.0708.025.148.0567.2309.0943.0286.013.0587.0264.0887.0405.0721.0342.1485.0712.2281.1106.0526.026.1071.0515.1628.079.1077.0532.2198.1076.3378.1627.0616.0287.1282.056.1924.0843.1093.0481.2223.0943.3385.1384.072.0273.1456.0526.22.0774.123.041.2505.075.3795.1064.0696.0168.1382.0356.2094.0489.1973.0366.3991.0619.6065.0627.0044 0 .0085.0011.013.0011.0382 0 .074-.0102.1119-.0116.1932-.007.3848-.0227.569-.0602.0655-.0133.1255-.0368.1897-.0531.154-.0393.309-.0778.4544-.13.0295-.0106.0555-.0236.0846-.0346.3767-.1421.7234-.3118 1.019-.4577l.003-.0014c.1758-.0865.3339-.163.4728-.2198.0068-.0027.013-.0043.0196-.007.132-.0525.2455-.0845.3378-.0868.0032 0 .0086-.003.0118-.003.0202 0 .0357.0073.0538.0105.0174.003.0365.0039.0518.01.021.0085.0374.0248.0545.0397.0118.0102.0258.017.0357.0303.016.0217.0262.0533.037.0839.0058.016.0143.027.0185.0456.0124.054.0192.1185.0192.1962 0 .1355-.015.2885-.0373.4476a3.5941 3.5941 0 0 1-.0182.1164 4.0683 4.0683 0 0 1-.1202.5133c-.0025.008-.0061.016-.0086.0241-.0532.169-.1228.3398-.2021.5103a3.907 3.907 0 0 1-.0587.122c-.0906.1788-.1926.3548-.3154.5233-.01.0138-.0223.026-.0325.0396-.1157.1542-.249.2984-.3945.435-.0351.0331-.0693.0658-.1064.0976-.0335.0289-.062.0613-.097.089-.0027-.0052-.0069-.0094-.0097-.0146zm-.2818-.4058c-.2826-.331-.6507-.5832-1.072-.7169-.1173-.0355-.2374.15-.36.3409-.1174.1827-.24.3682-.3628.3682-.1145 0-.229-.1882-.3382-.3736-.1172-.1937-.229-.3819-.3381-.3491-.464.1395-.868.4183-1.166.79.4402.3277 1.009.5588 1.7757.559.8148-.0003 1.4126-.2562 1.8614-.6185zm4.6142-4.1423a.8864.8864 0 1 0 0-1.7727.8864.8864 0 0 0 0 1.7727zM5.6592 8.4164a.8864.8864 0 1 0 0 1.7727.8864.8864 0 0 0 0-1.7727zm18.0706 10.6498c.266.409.304.9256.1009 1.3691-.2782.6327-.9736 1.129-2.3209 1.6636-.84.3327-1.609.5454-1.6145.5482a12.0887 12.0887 0 0 1-2.9808.4363c-1.4334 0-2.4784-.4165-3.1574-1.1944-.5935.1036-1.202.1636-1.8253.1636-.582 0-1.1514-.0522-1.7076-.1432-.6798.7642-1.7182 1.174-3.1387 1.174a12.0887 12.0887 0 0 1-2.9808-.4363c-.0055-.0028-.7746-.2155-1.6118-.5482-1.35-.5345-2.0455-1.031-2.3236-1.6636a1.4235 1.4235 0 0 1 .1009-1.369 1.5949 1.5949 0 0 1-.2182-1.2928 1.4458 1.4458 0 0 1 .4882-.769 1.5818 1.5818 0 0 1 .2182-1.9091c.27-.2918.6517-.4528 1.0745-.4528.0079.0002.0154.0034.0232.0036-.3142-.9992-.4923-2.0587-.4923-3.1616 0-5.8366 4.7315-10.568 10.568-10.568s10.568 4.7314 10.568 10.568c0 1.1115-.1819 2.1784-.5007 3.1843.0574-.006.1128-.0255.1707-.0263.4227 0 .8046.161 1.0746.4528a1.5818 1.5818 0 0 1 .2181 1.909c.2404.1975.4106.4672.4855.7691.0654.2455.131.7637-.2182 1.2927zM7.0855 21.9898c.7098 0 1.3974-.1241 1.926-.4537a2.115 2.115 0 0 0 .1672-.1143c.1512-.1167.2934-.245.405-.4083.75-1.099.6954-1.9254-.3327-2.9536-1.031-1.031-1.631-2.5363-1.631-2.5363s-.2045-.7991-.6681-.7991c-.0191 0-.0436 0-.0654.0054-.51.0791-.8837 1.3855.1854 2.1845.7091.5319.3818.9491-.0409.9491-.21 0-.4473-.1064-.5836-.3572-.4118-.75-1.5327-2.6782-2.1164-3.049-.1854-.1173-.3573-.1773-.4964-.1773-.2918 0-.4499.259-.3572.7772.1364.761 2.569 2.6045 2.3345 3.0027-.0436.0763-.109.1036-.1854.1036-.3355 0-.8864-.5727-.8864-.5727s-.1118-.1004-.277-.2424a15.5912 15.5912 0 0 0-.3745-.3126c-.0326-.0265-.0683-.0546-.1025-.082a16.1416 16.1416 0 0 0-.287-.224c-.0404-.0308-.0795-.0613-.1209-.0922a11.6323 11.6323 0 0 0-.3875-.2768c-.0444-.0303-.0887-.0588-.1333-.088a6.8457 6.8457 0 0 0-.3165-.1961c-.038-.0223-.077-.0467-.1144-.0672-.3029-.1662-.5837-.2787-.7936-.2787-.1145 0-.2073.0327-.2727.1037-.5673.619.4336 1.1372 1.8545 1.999.0506.0307.0876.0548.135.0839l-.002-.0025c.0456.028.079.0501.1216.0767.0952.0592.1912.119.2725.1717.0485.0316.0884.0594.1322.0888.074.0498.1497.1004.211.1446.0348.0251.0612.0469.092.0705.0558.0424.1134.0857.1572.1235.022.019.0362.035.0553.0529.0404.0377.0824.0762.1112.11.01.0117.0142.0216.0229.0329.0938.122.1163.2229.0902.3206-.0017.0068-.0008.0139-.003.0207-.0085.0256-.0233.0518-.037.0778-.0063.012-.0096.0235-.017.0356l-.0003-.0004c-.0022.0037-.0032.0072-.0055.011-.0109.019-.0354.0271-.0655.0271-.4036 0-2.329-1.508-3.1853-1.508-.1991 0-.3382.079-.3927.278-.2946 1.1237 3.2099 1.451 2.9944 2.2282-.0354.1173-.1145.1636-.2263.1636-.51 0-1.6882-.9654-2.3373-.9654-.1609 0-.289.06-.3654.2073-.4609.8727 3.1772 1.9008 3.2072 1.909.5973.1528 1.6663.3982 2.7054.3982zm4.8463-1.0281c.3993 0 .7924-.026 1.1786-.0744-.5604-1.2679-.281-2.4537.8696-3.602.7582-.7581 1.2627-1.8736 1.3663-2.119.2127-.7254.7718-1.5327 1.7018-1.5327.502.008.9692.2578 1.2545.6709.2727-.3436.54-.6136.7827-.7691a2.018 2.018 0 0 1 1.08-.3463c.3875 0 .734.1457.9986.4023.1545-.6786.245-1.3814.245-2.1068 0-5.2341-4.243-9.4772-9.477-9.4772s-9.4772 4.243-9.4772 9.4772c0 .7645.0973 1.5051.2685 2.217.0007-.0007.0008-.0018.0015-.0026.2754-.33.6682-.51 1.11-.51a2.018 2.018 0 0 1 1.0827.3464c.24.1555.5073.4255.78.7691a1.5545 1.5545 0 0 1 1.2545-.6709c.93 0 1.4918.8073 1.7045 1.5327.1037.2454.6082 1.3609 1.3636 2.119 1.1546 1.1523 1.4325 2.3423.8644 3.615.344.0385.693.0614 1.0474.0614zm7.969-.6846c-.2182-.7772 3.2863-1.1045 2.9917-2.2281-.0518-.199-.1908-.2782-.3927-.2782-.8563 0-2.7817 1.5081-3.1854 1.5081-.0272 0-.0518-.0081-.0627-.0272a.6324.6324 0 0 1-.0501-.1012l-.0022.0023c-.0019-.0047-.0019-.0095-.0036-.0142-.0026-.0071-.0034-.0145-.0056-.0217a.315.315 0 0 1-.013-.0845.2846.2846 0 0 1 .0027-.0398.3275.3275 0 0 1 .0203-.0748c.006-.0154.0108-.0309.0193-.047a.662.662 0 0 1 .0634-.092 1.0899 1.0899 0 0 1 .0773-.0864c.0295-.03.0593-.0603.0973-.0935.0323-.0283.073-.06.1119-.0908a3.9969 3.9969 0 0 1 .1056-.0812 6.1471 6.1471 0 0 1 .1665-.1187c.0326-.0225.069-.0467.1045-.0704.1775-.1188.379-.2483.6366-.4042 1.4263-.8619 2.4272-1.38 1.8545-1.9991-.0627-.071-.1555-.1037-.2673-.1037-.1978 0-.4602.1043-.742.2536a4.9872 4.9872 0 0 0-.1962.1099 6.7524 6.7524 0 0 0-.2323.1438c-.0705.0455-.1408.0899-.2112.1383-.075.0516-.1482.105-.2219.1584a14.024 14.024 0 0 0-.3993.2998c-.0533.0417-.1091.084-.1595.1244-.0747.0597-.142.1152-.2086.1702-.045.0373-.0916.0753-.1321.1095-.0551.0464-.107.0903-.1524.1293-.0431.0372-.085.0732-.1174.1017-.0234.0206-.0529.0461-.0701.0614l-.067.0597s-.0262.0262-.062.061c-.0147.0143-.0164.016-.037.0353a3.8308 3.8308 0 0 1-.236.2024c-.0136.0106-.0255.0213-.0394.0318.0034-.0037.0064-.0078.0098-.0116-.1702.1305-.3663.2538-.519.2538a.2018.2018 0 0 1-.1854-.1036c-.2373-.3982 2.1954-2.2418 2.3318-3.0027.0927-.5181-.0655-.7772-.3573-.7772-.139 0-.3082.06-.4964.1772-.5808.371-1.7045 2.299-2.1163 3.049a.6626.6626 0 0 1-.5836.3573c-.42 0-.75-.4172-.0382-.949 1.0664-.7991.6927-2.1055.1827-2.1846a.4269.4269 0 0 0-.0654-.0054c-.4636 0-.6682.799-.6682.799s-.6 1.5055-1.6281 2.5364c-1.031 1.0282-1.0855 1.8545-.3327 2.9536.1094.161.2498.2869.3982.4025.052.0397.1044.0788.16.1138.5297.3353 1.224.46 1.9372.46 1.0417 0 2.108-.2454 2.7081-.3981.0272-.0083 3.6681-1.0364 3.2072-1.9091-.079-.1473-.2045-.2073-.3655-.2073-.649 0-1.83.9654-2.3372.9654-.1145 0-.1936-.0463-.2264-.1636z"/></svg>