<svg role="img" viewBox="0 0 24 24" xmlns="http://www.w3.org/2000/svg"><title>Hugging Face</title><path d="M14.004 8.991a1.364 1.364 0 1 1 1.844.565c-.352.186-.488-.529-.837-.649l.003-.002c-.314-.11-.843.4-1.01.087zm-5.416-.084-.002-.002c.31-.11.842.4 1.009.087a1.364 1.364 0 1 0-1.844.564c.349.186.488-.529.837-.649zm5.42 5.83c-.53.42-1.223.713-2.143.713-.866 0-1.525-.264-2.044-.643-.003.007-.008.012-.01.018-.06-.043-.11-.094-.166-.14-.044-.037-.088-.072-.13-.111a3.412 3.412 0 0 1-.417-.46c-.015-.021-.027-.043-.042-.065a3.807 3.807 0 0 1-.286-.475 4.177 4.177 0 0 1-.4-1.203l-.009-.057a3.34 3.34 0 0 1-.043-.48c0-.141.025-.235.065-.302.003-.006.005-.016.01-.022.016-.022.037-.036.058-.05.011-.007.02-.017.032-.022.022-.009.048-.011.073-.014.013-.001.022-.007.036-.007l.013.003a.78.78 0 0 1 .214.042l.038.014c.071.025.148.057.231.095l.089.04.228.11.163.08c.108.053.22.107.338.162.061.03.128.056.192.085a7.036 7.036 0 0 0 .558.215c.124.042.251.076.38.107.07.017.138.036.21.049.197.036.399.062.606.063h.013c.038 0 .074-.01.112-.011a3.5 3.5 0 0 0 .569-.06c.065-.013.125-.037.19-.053.154-.04.309-.078.454-.13.03-.01.055-.024.085-.035.376-.142.723-.312 1.019-.458l.003-.001c.175-.087.333-.163.472-.22l.02-.007a1.04 1.04 0 0 1 .338-.087l.011-.003c.02 0 .036.008.054.01.018.004.037.005.052.01.021.01.037.026.055.04.011.01.025.018.035.03.016.023.027.054.037.085.006.016.015.027.019.045.012.054.019.119.019.197a3.31 3.31 0 0 1-.055.564 4.068 4.068 0 0 1-.12.513l-.01.024a4.24 4.24 0 0 1-.26.632c-.09.18-.193.355-.316.524l-.032.04a3.404 3.404 0 0 1-.394.434c-.036.033-.07.066-.107.098-.033.029-.062.061-.097.089l-.01-.015zm-.281-.406a2.344 2.344 0 0 0-1.072-.716c-.118-.036-.238.15-.36.34-.118.183-.24.369-.363.369-.115 0-.23-.189-.338-.374-.118-.194-.23-.382-.339-.35a2.37 2.37 0 0 0-1.166.791c.44.328 1.01.559 1.776.559.815 0 1.413-.256 1.862-.619zm4.614-4.142a.886.886 0 1 0 0-1.773.886.886 0 0 0 0 1.773zM5.659 8.416a.886.886 0 1 0 0 1.773.886.886 0 0 0 0-1.773zm18.07 10.65c.267.41.305.926.102 1.37-.278.632-.974 1.128-2.321 1.663-.84.333-1.61.545-1.615.548-.971.27-1.973.416-2.98.436-1.434 0-2.479-.416-3.158-1.194-.593.104-1.202.164-1.825.164-.582 0-1.152-.053-1.708-.144-.68.765-1.718 1.174-3.138 1.174a12.089 12.089 0 0 1-2.981-.436c-.006-.003-.775-.215-1.612-.548-1.35-.535-2.046-1.031-2.324-1.664a1.424 1.424 0 0 1 .101-1.369 1.595 1.595 0 0 1-.218-1.293c.076-.302.247-.572.488-.769a1.582 1.582 0 0 1 .218-1.909c.27-.291.652-.452 1.075-.452.008 0 .015.003.023.003-.314-.999-.492-2.058-.492-3.161C1.364 5.648 6.095.917 11.932.917S22.5 5.648 22.5 11.485c0 1.111-.182 2.178-.5 3.184.057-.006.112-.026.17-.026.423 0 .804.16 1.074.452.496.515.585 1.297.219 1.91.24.197.41.467.485.768.065.246.13.764-.218 1.293zM7.087 21.99c.71 0 1.397-.124 1.925-.454.058-.036.114-.073.168-.114a1.82 1.82 0 0 0 .405-.409c.75-1.099.695-1.925-.333-2.953-1.031-1.031-1.631-2.536-1.631-2.536s-.204-.8-.668-.8c-.02 0-.044 0-.066.006-.51.079-.883 1.385.186 2.184.709.532.382.95-.041.95a.663.663 0 0 1-.584-.358c-.411-.75-1.532-2.678-2.116-3.049-.185-.117-.357-.177-.496-.177-.292 0-.45.26-.358.777.137.761 2.57 2.605 2.335 3.003a.198.198 0 0 1-.186.104c-.335 0-.886-.573-.886-.573s-.112-.1-.277-.243a15.591 15.591 0 0 0-.374-.312l-.103-.082c-.09-.073-.187-.148-.287-.224l-.12-.092a11.632 11.632 0 0 0-.388-.277l-.134-.088a6.846 6.846 0 0 0-.316-.196c-.038-.023-.077-.047-.115-.068-.302-.166-.583-.278-.793-.278-.115 0-.207.033-.273.103-.567.62.434 1.138 1.855 2l.135.083-.002-.002.121.077c.095.059.192.119.273.171l.132.09c.074.049.15.1.211.144.035.025.061.047.092.07.056.043.113.086.157.124.022.019.036.035.055.053.04.037.083.076.112.11.01.011.014.021.023.032.093.122.116.223.09.321-.002.007-.001.014-.003.02-.009.026-.023.053-.037.079-.006.012-.01.023-.017.035l-.006.01c-.01.02-.035.028-.065.028-.404 0-2.33-1.508-3.186-1.508-.199 0-.338.079-.393.278-.294 1.124 3.21 1.45 2.995 2.228-.036.117-.115.164-.226.164-.51 0-1.689-.966-2.338-.966-.16 0-.289.06-.365.208-.461.872 3.177 1.9 3.207 1.909.597.152 1.666.398 2.706.398zm4.846-1.028c.4 0 .792-.026 1.178-.075-.56-1.268-.28-2.453.87-3.602.758-.758 1.263-1.873 1.366-2.119.213-.725.772-1.532 1.702-1.532.502.008.97.257 1.255.67.272-.343.54-.613.782-.769.32-.216.695-.336 1.08-.346.388 0 .734.146.999.402a9.468 9.468 0 0 0 .245-2.106 9.477 9.477 0 1 0-18.954 0c0 .764.097 1.505.268 2.217l.002-.003c.275-.33.668-.51 1.11-.51.386.01.762.13 1.082.346.24.156.508.426.78.77a1.555 1.555 0 0 1 1.255-.671c.93 0 1.492.807 1.704 1.532.104.246.609 1.361 1.364 2.12 1.155 1.152 1.433 2.342.864 3.614.344.039.693.062 1.048.062zm7.969-.685c-.218-.777 3.286-1.104 2.992-2.228-.052-.2-.191-.278-.393-.278-.857 0-2.782 1.508-3.186 1.508-.027 0-.051-.008-.062-.027a.632.632 0 0 1-.05-.102l-.003.003c-.001-.005-.001-.01-.003-.014l-.006-.022a.315.315 0 0 1-.01-.124.327.327 0 0 1 .02-.075c.006-.016.011-.031.02-.047a1.09 1.09 0 0 1 .14-.178c.03-.03.06-.06.098-.094a3.997 3.997 0 0 1 .384-.29l.104-.071c.178-.119.379-.248.637-.404 1.426-.862 2.427-1.38 1.854-2-.063-.07-.155-.103-.267-.103-.198 0-.46.104-.742.253a4.987 4.987 0 0 0-.429.254c-.07.046-.14.09-.21.138a14.024 14.024 0 0 0-.621.458l-.16.125-.21.17-.131.11-.153.129-.117.102-.07.061-.067.06-.062.06-.037.036a3.83 3.83 0 0 1-.236.202l-.04.032.01-.011c-.17.13-.366.254-.519.254a.202.202 0 0 1-.185-.104c-.237-.398 2.195-2.242 2.332-3.003.092-.518-.066-.777-.358-.777-.139 0-.308.06-.496.177-.58.371-1.705 2.3-2.116 3.05a.663.663 0 0 1-.584.357c-.42 0-.75-.418-.038-.95 1.066-.799.693-2.105.183-2.184a.427.427 0 0 0-.066-.006c-.464 0-.668.8-.668.8s-.6 1.505-1.628 2.536c-1.031 1.028-1.086 1.854-.333 2.953.11.161.25.287.398.403.052.04.105.079.16.114.53.335 1.224.46 1.937.46 1.042 0 2.109-.246 2.709-.398.027-.009 3.668-1.037 3.207-1.91-.08-.147-.205-.207-.366-.207-.649 0-1.83.966-2.337.966-.114 0-.193-.047-.226-.164z"/></svg>