<svg aria-labelledby="simpleicons-hulu-icon" role="img" viewBox="0 0 24 24" xmlns="http://www.w3.org/2000/svg"><title id="simpleicons-hulu-icon">Hulu icon</title><path d="M3.771 10.512H2.562c-.419 0-.653.092-.653.092V8.043H0v7.914h1.908v-3.163c0-.325.232-.558.513-.558h1.116c.283 0 .523.232.523.512v3.205h1.902v-3.445c-.001-1.451-.975-2.006-2.188-2.006m18.292 0v3.176c0 .279-.236.51-.517.51h-1.116c-.27 0-.509-.23-.509-.51V10.51h-1.902v3.352c0 1.348.884 2.094 2.188 2.094h1.872c1.213 0 1.918-.834 1.918-2.092v-3.352h-1.918l-.016-.01zm-10.756 3.16c0 .285-.233.517-.513.517H9.68c-.278 0-.512-.234-.512-.515v-3.162H7.262v3.355c0 1.349.883 2.098 2.187 2.098h1.861c1.209 0 1.907-.833 1.907-2.09V10.51H11.31v3.168-.016zm3.395 2.285h1.909V8.045H14.71v7.91l-.005-.008z"/></svg>