<svg role="img" viewBox="0 0 24 24" xmlns="http://www.w3.org/2000/svg"><title>Huly</title><path d="M23.531 8.469A1.6 1.6 0 0 0 24 7.337V1.6A1.6 1.6 0 0 0 22.4 0h-4.8A1.6 1.6 0 0 0 16 1.6v4.8A1.6 1.6 0 0 1 14.4 8H8.663a1.6 1.6 0 0 0-1.132.469L.47 15.53A1.6 1.6 0 0 0 0 16.663V22.4A1.6 1.6 0 0 0 1.6 24h4.8A1.6 1.6 0 0 0 8 22.4v-4.8A1.6 1.6 0 0 1 9.6 16h5.737a1.6 1.6 0 0 0 1.132-.469zM6.4 0A1.6 1.6 0 0 1 8 1.6v4.8A1.6 1.6 0 0 1 6.4 8H1.6A1.6 1.6 0 0 1 0 6.4V1.6A1.6 1.6 0 0 1 1.6 0Zm16 16a1.6 1.6 0 0 1 1.6 1.6v4.8a1.6 1.6 0 0 1-1.6 1.6h-4.8a1.6 1.6 0 0 1-1.6-1.6v-4.8a1.6 1.6 0 0 1 1.6-1.6z"/></svg>