<svg xmlns="http://www.w3.org/2000/svg" role="img" viewBox="0 0 24 24" >
<title>Human Machine Interface (HMI) icon</title>
<path d="M5.8,19.8C5.8,19.8,5.8,19.8,5.8,19.8c0.2,0.6,0.7,1,1.4,1h0.7c0,0,0,0,0,0v2.8C7.9,23.8,8,24,8.2,24h8.9
	c0.2,0,0.4-0.2,0.4-0.4v-3.8c0,0,0,0,0,0h4.1c1.3,0,2.4-1.1,2.4-2.6V2.6C24,1.1,22.9,0,21.6,0L6.9,0C6.7,0,6.6,0.1,6.5,0.3
	c0,0.2,0.1,0.5,0.3,0.5h14.7c0.9,0,1.7,0.8,1.7,1.8v14.7c0,1-0.8,1.8-1.7,1.8h-4.1c0,0,0,0,0,0v-1.4c0-0.9-0.7-1.6-1.5-1.6
	c-0.4,0-0.8,0.2-1.1,0.5c0,0,0,0,0,0c-0.3-0.3-0.7-0.5-1.1-0.5c-0.4,0-0.8,0.2-1.1,0.5c0,0,0,0,0,0c-0.3-0.3-0.7-0.5-1.1-0.5
	c-0.3,0-0.5,0.1-0.8,0.2c0,0,0,0,0,0V15c0,0,0,0,0,0h6.6c0.2,0,0.4-0.2,0.4-0.4c0-0.2-0.2-0.4-0.4-0.4h-6.7c0,0,0,0,0,0
	c0-0.4-0.1-0.7-0.3-1c-0.3-0.4-0.7-0.6-1.2-0.6c-0.5,0-0.9,0.2-1.2,0.6c-0.2,0.3-0.3,0.6-0.3,1c0,0,0,0,0,0H2.8c0,0,0,0,0,0V3
	c0,0,0,0,0,0h18.4c0,0,0,0,0,0v11.3c0,0,0,0,0,0h-2.3c-0.2,0-0.3,0.1-0.4,0.3c0,0.2,0.1,0.5,0.3,0.5h2.7c0.2,0,0.4-0.2,0.4-0.4v-12
	c0-0.2-0.2-0.4-0.4-0.4H2.5c-0.2,0-0.4,0.2-0.4,0.4v12c0,0.2,0.2,0.4,0.4,0.4h5.4c0,0,0,0,0,0v2.6c0,0,0,0,0,0H7.1
	c-0.6,0-1.2,0.5-1.4,1.1c0,0,0,0.2,0,0.3c0,0,0,0,0,0H2.4c-0.9,0-1.7-0.8-1.7-1.8V2.6c0-1,0.8-1.8,1.7-1.8l3.1,0
	c0.2,0,0.4-0.2,0.4-0.4C5.8,0.2,5.7,0,5.5,0H2.4C1.1,0,0,1.1,0,2.6v14.7c0,1.4,1.1,2.6,2.4,2.6H5.8z M8.6,14.2
	c0-0.4,0.3-0.8,0.8-0.8c0.4,0,0.8,0.4,0.8,0.8v3.4c0,0.2,0.1,0.4,0.3,0.4c0.2,0,0.4-0.2,0.4-0.4c0-0.4,0.3-0.8,0.8-0.8
	c0.4,0,0.8,0.4,0.8,0.8c0,0.2,0.1,0.4,0.3,0.4c0.2,0,0.4-0.2,0.4-0.4c0-0.6,0.6-1,1.2-0.7c0.2,0.1,0.4,0.4,0.4,0.7
	c0,0.2,0.2,0.4,0.4,0.4c0.2,0,0.3-0.2,0.3-0.4c0-0.4,0.3-0.8,0.8-0.8c0.4,0,0.8,0.4,0.8,0.8v5.6c0,0,0,0,0,0H8.6c0,0,0,0,0,0V14.2z
	 M7.2,18.4h0.7c0,0,0,0,0,0V20c0,0,0,0,0,0H7.1c-0.5,0-0.9-0.6-0.7-1.2C6.6,18.6,6.9,18.4,7.2,18.4z M18.6,7.4
	c0.8,0,1.4-0.7,1.4-1.5s-0.6-1.5-1.4-1.5c-0.8,0-1.5,0.8-1.4,1.7l-2.8,3.3c0,0-0.1,0-0.2,0l-2.7-2.9c0,0,0-0.1,0-0.1
	c0-0.9-0.6-1.5-1.4-1.5S8.5,5.5,8.5,6.3c0,0,0,0,0,0L5.8,8.8C5,8.7,4.2,9.4,4.2,10.4c0,0.9,0.6,1.5,1.4,1.5s1.4-0.7,1.4-1.5
	c0,0,0,0,0,0l2.7-2.5c0.1,0,0.1,0,0.2,0c0,0,0.1,0,0.1,0l2.7,2.9c0,0,0,0.1,0,0.1c0,0.9,0.6,1.5,1.4,1.5s1.4-0.7,1.4-1.5
	c0-0.1,0-0.1,0-0.2L18.6,7.4C18.5,7.4,18.6,7.4,18.6,7.4z M5.6,11.1c-0.4,0-0.7-0.4-0.7-0.8s0.3-0.8,0.7-0.8c0.4,0,0.7,0.4,0.7,0.8
	C6.4,10.8,6,11.1,5.6,11.1z M6.9,9.5C6.9,9.5,6.9,9.5,6.9,9.5C6.8,9.4,6.7,9.3,6.6,9.2l2.2-2c0,0,0,0,0,0C8.8,7.3,8.9,7.4,9,7.5
	L6.9,9.5z M10.7,6.6c-0.1,0.3-0.4,0.6-0.7,0.6c-0.4,0-0.7-0.4-0.7-0.8c0-0.4,0.3-0.8,0.7-0.8C10.4,5.5,10.8,6.1,10.7,6.6z M13.4,9.6
	c-0.1,0.1-0.2,0.2-0.3,0.4l-2.3-2.4c0,0,0,0,0,0c0.1-0.1,0.2-0.2,0.3-0.4L13.4,9.6C13.4,9.6,13.4,9.6,13.4,9.6z M14.3,11.7
	c-0.4,0-0.7-0.4-0.7-0.8c0-0.4,0.3-0.8,0.7-0.8c0.4,0,0.7,0.4,0.7,0.8C15,11.3,14.7,11.7,14.3,11.7z M18.4,6.6
	c-0.3-0.1-0.6-0.4-0.6-0.8c0-0.4,0.3-0.8,0.7-0.8s0.7,0.4,0.7,0.8C19.3,6.3,18.9,6.7,18.4,6.6z"/>
</svg>
