<svg role="img" viewBox="0 0 24 24" xmlns="http://www.w3.org/2000/svg"><title>Humble Bundle icon</title><path d="M4.146 23.995c.12-.463.23-.9.343-1.3379.692-2.7128 1.3219-5.4395 1.8199-8.1963.245-1.3499.446-2.7098.6329-4.0737.142-1.0279.217-2.0638.198-3.1047-.01-.557-.034-1.116-.193-1.6549-.07-.24-.174-.473-.3-.686-.165-.2729-.43-.3779-.75-.3679-.8828.026-1.6328.363-2.2717.96-.727.6799-1.202 1.5268-1.5529 2.4447-.166.435-.284.887-.422 1.33-.02.066-.026.123-.115.122-.494-.006-.9889-.005-1.4838-.006-.013 0-.024-.008-.036-.01 0-.193-.02-.385.003-.572.346-2.8528 1.5698-5.2666 3.6677-7.2254.785-.734 1.7148-1.243 2.7767-1.474 1.555-.3379 2.7958.258 3.5337 1.68.375.7199.578 1.4958.71 2.2928.21 1.2868.218 2.5857.175 3.8846-.014.42-.04.84-.062 1.26-.002.054 0 .108 0 .176.057.003.105.008.154.008.9049 0 1.8098-.002 2.7167.005.124 0 .16-.047.18-.16.575-3.1128 1.367-6.1696 2.3898-9.1653.024-.074.05-.124.147-.124 1.12.004 2.2398.004 3.3617.004.017 0 .035.004.07.008l-.193.753C18.8898 3.7006 18.21 6.6503 17.66 9.6281c-.288 1.5459-.533 3.0997-.69 4.6636-.086.875-.14 1.7519-.113 2.6298.016.53.054 1.0619.22 1.5699.064.202.16.4.273.58.167.2599.426.3659.74.3559 1.1599-.033 2.0418-.59 2.7457-1.4699.707-.88 1.133-1.8998 1.434-2.9797.028-.1.06-.202.076-.306.014-.082.054-.104.13-.104.4669.002.9328.004 1.3998 0 .102-.002.12.043.117.13-.014.804-.157 1.5828-.39 2.3468-.59 1.9278-1.5569 3.6347-2.9917 5.0596-.813.8099-1.7619 1.4068-2.8798 1.7058-.677.183-1.3549.212-2.0248-.028-.76-.27-1.276-.816-1.6599-1.5039-.402-.7249-.613-1.5118-.75-2.3218-.24-1.4058-.24-2.8237-.172-4.2416.042-.89.127-1.7769.193-2.6658.014-.19.016-.19-.174-.19-.8548 0-1.7098.002-2.5657-.002-.104 0-.153.024-.17.137-.27 1.8129-.637 3.6077-1.0739 5.3866-.453 1.8418-.974 3.6637-1.5869 5.4595-.044.127-.104.16-.233.16-1.0649-.006-2.1298-.004-3.1967-.004h-.17z"/></svg>