<svg xmlns="http://www.w3.org/2000/svg" width="416" height="512" fill="none"><path fill="#14FFAF" d="m279.594 91.215 28.837-85.797H408.45l-28.991 85.797h-99.865Z"/><path fill="#0A23B9" fill-rule="evenodd" d="M158.59 208.407c28.198-22.356 62.548-36.417 101.228-36.417C338.994 171.99 416 222.487 416 351.912V512H314.772V351.912c0-66.705-31.796-91.946-75.2-91.946-35.791 0-61.814 20.554-76.282 42.184V512H61.703V96.633H0L32.478 0H158.59v208.407ZM375.57 85.774l25.328-74.938h-88.562l-25.202 74.938h88.436ZM304.51 0H416l-32.646 96.633H272.032L304.51 0Z" clip-rule="evenodd"/></svg>