<svg role="img" viewBox="0 0 24 24" xmlns="http://www.w3.org/2000/svg"><title>i18next</title><path d="M15.09 0c.503 0 .91.447.91 1 0 .553-.407 1-.91 1h-.251v4.62l4.907 13.33s1.498 3.257-2.786 4.05H7.185s-3.994-.44-3.037-3.786L9.305 6.62V2h-.397C8.408 2 8 1.553 8 1c0-.553.407-1 .908-1h6.182ZM7.215 15.324 5.44 19.843c-.799 2.697 2.538 3.052 2.538 3.052h8.164c3.579-.64 2.328-3.264 2.328-3.264l-1.611-4.226c-4.283-1.406-7.884-.651-9.644-.081ZM9.5 16c.829 0 1.501.447 1.501 1 0 .552-.673 1-1.501 1C8.671 18 8 17.551 8 17c0-.553.67-1 1.499-1Zm5.002 0c.827 0 1.499.447 1.499 1 0 .552-.673 1-1.499 1-.83 0-1.501-.449-1.501-1 0-.553.67-1 1.501-1Zm-4.632-5.132c-.534 0-.967.552-.967 1.233 0 .68.433 1.232.967 1.232s.967-.552.967-1.232c0-.681-.433-1.233-.967-1.233Zm3.52-1.326c-.633 0-1.146.652-1.146 1.461 0 .805.513 1.46 1.147 1.46.631 0 1.146-.655 1.146-1.46 0-.808-.515-1.461-1.146-1.461ZM20 7.457s-2.077 1.453-4-.395v-2.02s2.667-.564 4 2.415Zm-15 0c1.332-2.979 4-2.414 4-2.414v2.02c-1.925 1.847-4 .394-4 .394Z"/></svg>
