<svg role="img" viewBox="0 0 24 24" xmlns="http://www.w3.org/2000/svg"><title>i18next</title><path d="M14.839 2.487v4.517l4.907 13.036.013.028c.011.028.03.075.053.138l.034.101c.249.782.642 3.054-2.886 3.693H7.185s-3.994-.431-3.037-3.702L9.305 7.004V2.487h5.534ZM7.215 15.516 5.44 19.935c-.799 2.637 2.538 2.984 2.538 2.984h8.164c3.423-.598 2.427-2.972 2.334-3.177l-.006-.014-1.611-4.133c-4.283-1.374-7.884-.637-9.644-.079Zm2.09.856c.763 0 1.382.386 1.382.865 0 .476-.62.864-1.382.864-.763 0-1.38-.388-1.38-.864 0-.479.617-.865 1.38-.865Zm4.915 0c.761 0 1.38.386 1.38.865 0 .476-.62.864-1.38.864-.765 0-1.382-.388-1.382-.864 0-.479.617-.865 1.382-.865Zm-4.35-5.213c-.535 0-.968.54-.968 1.205 0 .666.433 1.205.967 1.205s.967-.54.967-1.205c0-.666-.433-1.205-.967-1.205Zm3.52-1.297c-.634 0-1.147.638-1.147 1.43 0 .786.513 1.426 1.147 1.426.631 0 1.146-.64 1.146-1.427 0-.79-.515-1.429-1.146-1.429Zm5.836-2.738s-2.052 1.546-3.95-.42V4.556s2.633-.6 3.95 2.568Zm-14.351 0c1.315-3.169 3.95-2.568 3.95-2.568v2.148c-1.901 1.966-3.95.42-3.95.42ZM14.943 0c.479 0 .866.439.866.981s-.388.98-.866.98H9.056c-.477 0-.865-.438-.865-.98S8.58 0 9.056 0h5.887Z"/></svg>
