<svg role="img" viewBox="0 0 24 24" xmlns="http://www.w3.org/2000/svg"><title>IBM Cloud</title><path d="M11.712 1.186c-.18.177-.18.185-.18 1.615 0 1.4 0 1.438.166 1.593.216.208.374.208.59-.022.18-.178.18-.193.18-1.593 0-1.402 0-1.416-.18-1.593C12.194 1.082 12.065 1 12 1c-.065 0-.194.082-.288.186ZM5.35 2.928a.516.516 0 0 0-.144.303c0 .185 1.244 2.423 1.453 2.601.079.074.201.134.266.134.18 0 .438-.275.438-.46 0-.17-1.15-2.283-1.387-2.564-.18-.2-.439-.208-.626-.015Zm12.676.014c-.237.274-1.388 2.393-1.388 2.563 0 .186.26.46.439.46a.5.5 0 0 0 .266-.134c.194-.17 1.452-2.43 1.452-2.608 0-.185-.273-.444-.467-.444-.086 0-.223.073-.302.163Zm-7.55 3.35c-3.27.644-5.902 3.342-6.456 6.632-.266 1.528.065 3.936.532 3.936.18 0 .201-.134.13-.815-.094-.875-.015-2.536.15-3.203A8.071 8.071 0 0 1 6.874 9.22c1.51-1.542 3.452-2.313 5.551-2.194 1.776.104 3.394.763 4.81 1.986.482.416.626.453.626.163 0-.155-.13-.333-.532-.741-.957-.963-2.157-1.652-3.567-2.038-.704-.193-2.523-.251-3.285-.103h-.001ZM.69 7.685c-.165.215-.165.415 0 .608.158.177 2.114 1.385 2.409 1.482.194.066.525-.215.525-.437 0-.268-.18-.423-1.338-1.105C1.201 7.604.856 7.477.69 7.685Zm21.009.563c-1.294.77-1.323.793-1.323 1.045 0 .288.158.474.403.474.194-.008 2.192-1.134 2.494-1.407.151-.149.159-.49.008-.646-.209-.215-.482-.125-1.582.534Zm-4.523 2.016c-.64.096-1.804.51-2.185.77-.209.149-.338.297-.352.409-.022.154-.008.17.18.133.107-.023.46-.142.776-.26.812-.311 1.524-.414 2.538-.363 1.423.067 2.401.504 3.393 1.534 1.029 1.052 1.496 2.186 1.56 3.75.137 3.157-1.66 5.255-4.903 5.736-.726.103-12.755.097-13.43-.007-1.985-.32-3.452-1.66-3.79-3.461-.129-.66-.057-2 .137-2.557.288-.852.597-1.326 1.309-2.06.467-.474.683-.741.64-.8-.144-.245-1.043.274-1.74 1.007-.518.541-.87 1.156-1.115 1.912-.165.52-.194.711-.194 1.556 0 1.097.108 1.617.503 2.447.496 1.045 1.251 1.793 2.366 2.341 1.337.66 1.466.675 9.059.637 6.24-.021 6.492-.03 7.118-.177 2.567-.608 4.192-2.149 4.796-4.544.122-.504.158-.85.158-1.703.007-1.32-.108-1.868-.619-2.943a6.14 6.14 0 0 0-1.768-2.186c-.518-.393-1.445-.845-2.1-1.016-.654-.17-1.754-.244-2.337-.154v-.002Z"/></svg>