<svg role="img" viewBox="0 0 24 24" xmlns="http://www.w3.org/2000/svg"><title>Icinga icon</title><path d="M13.826.011c-1.7.156-2.538 2.15-1.459 3.474.175.212.383.38.61.506l-1.998 4.152a4.102 4.102 0 00-4.36.894L4.412 7.231c.122-.287.13-.634-.053-1.007-.716-1.466-2.918-.392-2.2 1.074.421.862 1.352.843 1.905.384l2.18 1.783a4.096 4.096 0 00.973 5.904l-2.5 3.586a2.708 2.708 0 00-1.768-.475 2.758 2.758 0 00-2.547 2.96c.184 2.451 3.239 3.46 4.846 1.595 1.012-1.176.807-2.753-.098-3.712l2.563-3.673a4.104 4.104 0 003.67-.05l1.44 2.4a.827.827 0 00-.259.518c-.13 1.137 1.576 1.334 1.707.197.073-.643-.437-.973-.921-.944l-1.48-2.474c.07-.052.141-.101.21-.158a4.097 4.097 0 001.494-3.47l6.94-1.716c.812 1.298 3.229.844 3.086-1.062-.167-2.23-3.513-1.98-3.346.252.008.1.029.19.049.28L13.494 11.1a4.082 4.082 0 00-.824-1.73 4.082 4.082 0 00-1.18-.985l2.016-4.187c.65.166 1.34.014 1.861-.408 1.64-1.328.561-3.977-1.54-3.78z"/></svg>
