<svg role="img" viewBox="0 0 24 24" xmlns="http://www.w3.org/2000/svg"><title>Icinga icon</title><path d="M14.093 0a2.21 2.137 0 00-1.399.48 2.207 2.134 0 00-.316 3.004 2.209 2.137 0 00.63.512l-2.066 4.147a4.242 4.103 0 00-4.213.64 4.236 4.098 0 00-.293.254l-2.31-1.83a1.266 1.225 0 00-.026-.984 1.267 1.226 0 10-2.276 1.076 1.266 1.225 0 001.957.373l2.264 1.791a4.236 4.098 0 00.076 5.088 4.24 4.102 0 00.932.818l-2.586 3.588a2.855 2.762 0 00-1.824-.477 2.855 2.762 0 00-2.635 2.963 2.855 2.762 0 104.91-2.115l2.648-3.676a4.24 4.102 0 003.796-.052l1.487 2.404a.888.86 0 00-.264.517.888.86 0 001.764.198.888.86 0 00-.96-.955l-1.523-2.463a4.24 4.102 0 00.22-.16 4.244 4.106 0 001.548-3.475l7.2-1.717a1.735 1.678 0 003.16-1.055 1.735 1.678 0 10-3.46.25 1.735 1.678 0 00.05.278L13.55 11.1a4.244 4.106 0 00-.858-1.729 4.242 4.103 0 00-1.216-.986l2.08-4.178a2.209 2.137 0 001.927-.416A2.209 2.137 0 0015.8.785 2.21 2.137 0 0014.093 0z"/></svg>
