<svg role="img" viewBox="0 0 24 24" xmlns="http://www.w3.org/2000/svg"><title>Iconify</title><path d="M6.2858.0002a1.1428 1.1428 0 0 0-1.1429 1.1429v1.7142l2.2857-1.4788v-.2354A1.1428 1.1428 0 0 0 6.2858.0002Zm5.6573.0011a1.1428 1.1428 0 0 0-.5636.182L1.6653 6.4688a1.1428 1.1428 0 0 0-.3393 1.5803 1.1428 1.1428 0 0 0 1.5803.3393l9.7142-6.2856a1.1428 1.1428 0 0 0 .3393-1.5804A1.1428 1.1428 0 0 0 12.24.026a1.1428 1.1428 0 0 0-.297-.0246Zm2.3381 1.2567a2.2857 2.2857 0 0 1-1.039 1.8036l-.1909.1227 8.0424 5.2042a1.1428 1.1428 0 0 0 1.5803-.3393 1.1428 1.1428 0 0 0-.3393-1.5803zM5.143 8.3026 3.528 9.3472a2.2857 2.2857 0 0 1-.6707.2802v9.8012a1.1428 1.1428 0 0 0 .077.3884 1.1428 1.1428 0 0 0 .038.0904 1.1428 1.1428 0 0 0 .549.5491 1.1428 1.1428 0 0 0 .0905.038 1.1428 1.1428 0 0 0 .3884.077h5.7142v-2.2857H5.143Zm13.7142 0v9.9832h-4.5714v2.2857h5.7142a1.1428 1.1428 0 0 0 1.1429-1.1429V9.6274a2.2857 2.2857 0 0 1-.6708-.2802ZM12 9.143c-.9535 0-1.7143.7607-1.7143 1.7143 0 .7328.4495 1.351 1.0904 1.5982.045.0173.0906.0332.1373.0468.007.0021.0142.0036.0212.0056.0453.0126.0916.0235.1384.0324.0045.0009.0089.0014.0134.0022.0493.009.0988.0165.1495.0212h.0045c.0526.0047.1058.0078.1596.0078.054 0 .1071-.003.1596-.0078h.0045a1.7217 1.7217 0 0 0 .1496-.0212l.0134-.0022a1.7312 1.7312 0 0 0 .1384-.0324c.007-.0019.0142-.0035.0212-.0056a1.7088 1.7088 0 0 0 .1373-.0468c.6408-.2473 1.0903-.8654 1.0903-1.5982 0-.9536-.7607-1.7143-1.7143-1.7143zm-1.1428 4.3303v7.6696A1.1428 1.1428 0 0 0 12 22.2857a1.1428 1.1428 0 0 0 1.1428-1.1428v-7.6696a2.8284 2.8284 0 0 1-2.2856 0zM2 22.2857a.8571.8571 0 0 0-.8571.8572A.8571.8571 0 0 0 2 24h20a.8571.8571 0 0 0 .857-.8571.8571.8571 0 0 0-.857-.8572h-8.0313A2.2857 2.2857 0 0 1 12 23.4286a2.2857 2.2857 0 0 1-1.9687-1.1429Z"/></svg>