<svg role="img" viewBox="0 0 24 24" xmlns="http://www.w3.org/2000/svg"><title>Iconfinder icon</title><path d="M5.533 11.802c-.065.32-.1.648-.1.983 0 3.146 2.947 5.695 6.583 5.695s6.583-2.55 6.583-5.695a4.99 4.99 0 00-.1-.983c-1.366-1.402-3.758-2.333-6.483-2.333-2.725 0-5.117.931-6.483 2.333zm9.601 1.48a3.118 3.118 0 11-5.99-1.217 1.298 1.298 0 002.525-.43 1.3 1.3 0 00-.87-1.226 3.12 3.12 0 014.334 2.873z M12.016 0C4.508 2.746-.868 11.311.519 19.963c0 0 4.486 4.037 11.496 4.037 7.01 0 11.497-4.037 11.497-4.037C24.9 11.31 19.524 2.746 12.016 0zm9.902 19s-1.646 1.396-4.129 2.172a.372.372 0 01-.304-.026c-.144-.084-.183-.254-.097-.403a.487.487 0 01.093-.104 6.56 6.56 0 001.503-1.81c.731-1.267 1-2.674.856-4.026l-.001-.003A7.952 7.952 0 0116 20.184C11.58 22.736 6.009 22.066 2.115 19c0 0-.387-2.124.183-4.662a.37.37 0 01.174-.25c.146-.084.312-.033.398.116a.461.461 0 01.044.133c.126.76.405 1.498.814 2.206a6.634 6.634 0 003.058 2.755 7.952 7.952 0 01-1.671-2.031A7.932 7.932 0 014.05 13.06c.095-5.014 3.43-9.401 7.965-11.215 0 0 2.033.728 3.946 2.49.073.067.13.162.13.277-.002.168-.129.286-.301.286a.503.503 0 01-.137-.028 6.54 6.54 0 00-2.317-.399A6.625 6.625 0 009.42 5.744l-.001.001a7.977 7.977 0 016.808.769c4.268 2.596 6.385 7.664 5.69 12.486z"/></svg>