<svg xmlns="http://www.w3.org/2000/svg" viewBox="0 0 16 16"><path d="M15.1,8a6.71,6.71,0,0,0-.844-3.268C16.547-.458,11.8.3,11.536.353a12.072,12.072,0,0,0-2.794.913c-.127-.007-.254-.011-.382-.011a6.743,6.743,0,0,0-6.57,5.229A11.2,11.2,0,0,1,5.366,3.521a19.74,19.74,0,0,0-4.89,6.995c-1.92,6.852,4.066,3.959,4.9,3.527a6.745,6.745,0,0,0,9.334-3.789H11.17a3.113,3.113,0,0,1-2.692,1.485A2.979,2.979,0,0,1,5.4,8.864h9.641A6.805,6.805,0,0,0,15.1,8ZM13.841,1.363c.58.392,1.046,1.007.246,3.079A6.763,6.763,0,0,0,10.8,1.71C11.419,1.408,12.964.771,13.841,1.363ZM1.5,14.029c-.473-.485-.556-1.666.487-3.818A6.76,6.76,0,0,0,4.927,13.8c-.675.372-2.468,1.209-3.422.23ZM5.388,7.021A2.972,2.972,0,0,1,8.434,4.243,2.972,2.972,0,0,1,11.48,7.021H5.388Z"/></svg>