<svg role="img" xmlns="http://www.w3.org/2000/svg" viewBox="0 0 24 24"><title>iFood icon</title><path d="M8.43 1.67C3.78 1.67 1.24 5.82 1.24 8.67C1.24 10.96 3.44 11.97 5.5 11.97L5.5 11.96C9.73 11.96 12.67 8.11 12.67 4.96C12.67 2.67 10.5 1.67 8.43 1.67M19.76 1.67C15.11 1.67 12.57 5.82 12.57 8.67C12.57 10.96 14.77 11.97 16.82 11.97L16.82 11.96C21.06 11.96 24 8.11 24 4.96C24 2.67 21.82 1.67 19.76 1.67M14.17 14.5L16.61 16.35C14.44 18.42 10.5 19.88 7.25 19.5A8.91 8.91 0 0 1 .23 14.54H0A9.6 9.6 0 0 0 8.83 22.3C12.64 22.54 16.15 21.39 18.77 19.17L18.77 19.18L19.85 22.16L21.41 14.54L14.17 14.5Z"/></svg>
