<svg role="img" xmlns="http://www.w3.org/2000/svg" width="32" height="32" viewBox="0 0 24 24"><title>Iglumtech</title>
<path d="M12.03 8.95c1.7-1.09 3.6-3.21 5.8-2 2.34 1.41 4.19 3.47 6.17 5.32v2.57c-1.06 1.23-2.17 2.74-4.02 2.54-5.01-.02-9.98-.99-15.02-.85 2.16-.48 4.33-.92 6.49-1.39-2.9-.23-5.82-.34-8.71-.73 3.36-.85 6.84-.72 10.27-.83-2.65-.56-5.34-1-8.05-.91-.23-.39-.67-1.17-.89-1.56 2.69-.46 5.73-.32 7.96-2.16ZM0 10.58c1.39-.14 1.95.47 1.68 1.83-.42-.06-1.26-.19-1.68-.25v-1.58ZM1.38 15.87c1.18-.84 1.88-.58 2.1.78-1.19.86-1.89.6-2.1-.78Z"/></svg>