<svg role="img" viewBox="0 0 24 24" xmlns="http://www.w3.org/2000/svg"><title>&#206;le-de-France Mobilit&#233;s</title><path d="M18.54-.029A5.461 5.461 0 0 1 24 5.431V18.57a5.461 5.461 0 0 1-5.46 5.46H5.459A5.461 5.461 0 0 1 0 18.569V5.43a5.461 5.461 0 0 1 5.46-5.46h13.081ZM8.759 15.27c-1.365 1.82-2.503 3.413-3.925 5.346-.34.456-.057.626.398.341.512-.34.967-.738 1.309-1.25.3-.422.857-1.178 1.448-1.982l.595-.81c.33-.446.646-.878.914-1.246.796-1.138 2.047-1.025 2.9.17a398.137 398.137 0 0 0 3.242 4.493c.739 1.023 2.957.853 3.924.796.17 0 .228-.17.17-.284a310.878 310.878 0 0 0-4.663-6.483c-2.047-2.901-4.606-1.423-6.312.909zM17.8 7.308c-2.9 1.478-3.809 1.308-6.255 1.706-2.445.34-4.266.91-6.313 3.071-.51.569-.74 1.024.058.626 2.9-1.479 3.81-1.308 6.254-1.706 2.446-.341 4.267-.91 6.314-3.072.512-.568.796-1.023-.057-.625zm-5.06-4.152c-.966-.455-2.218.17-2.786 1.422-.569 1.194-.228 2.56.74 3.015.966.455 2.217-.17 2.786-1.423.568-1.25.228-2.616-.74-3.014Z"/></svg>