<svg role="img" viewBox="0 0 24 24" xmlns="http://www.w3.org/2000/svg"><title>ImageJ icon</title><path d="M13.129 17.508H5.057a.187.187 0 0 1-.187-.187v-.444c0-.103.083-.187.187-.187h8.072c.103 0 .187.084.187.187v.444a.187.187 0 0 1-.187.187zm4.906 3.861a6.17 6.17 0 0 0 1.095-3.461V5.692a.378.378 0 0 0-.378-.379c-1.415.004-4.227-.01-5.641-.006a.404.404 0 0 0-.404.403v3.606c0 .223.18.404.404.404h1.747v8.188c.004.918-.763 1.75-1.683 1.803-1.017.1-1.975-.78-1.962-1.803H6.941c-.04 3.301 2.82 6.125 6.095 6.092 1.965.002 3.894-1 4.999-2.63zM7.455 15.23h3.276a.64.64 0 0 0 .64-.64V.64a.64.64 0 0 0-.64-.64H7.455a.64.64 0 0 0-.64.64v13.95c0 .354.286.64.64.64z"/></svg>