<svg xmlns="http://www.w3.org/2000/svg" version="1.1" viewBox="0 0 24 24"><path d="M13.9954004,7.1133099v1.84834c0,.3173904.1064997.5834398.3195992.7981405.2131004.2147093.4771004.3221092.7920008.3221092h1.8341999c.1481991,0,.2917995-.0281.4307995-.0840597.1389008-.0560102.2639999-.1400299.3751011-.2520504l5.7804985-5.8250694c.1667004-.16803.2870998-.3594.3612003-.5741.0741005-.21471.1112003-.4247501.1112003-.63012s-.0417004-.4107401-.1250992-.6161101c-.0833015-.20538-.1991005-.3920799-.3473015-.56011l-1.0282993-1.036188c-.1667004-.16803-.3519993-.294053-.5557995-.378069-.2038002-.0840151-.4169006-.126023-.6392002-.126023-.2038002,0-.4076004.0373406-.6114006.112021-.2038002.07468-.3889999.196036-.5557995.364067l-5.8081999,5.8250719c-.1112003.11202-.1945.23804-.2501001.3780704-.0556002.1400199-.0833998.2847199-.0833998.4340796ZM16.7189007,8.4015398h-1.0561008v-1.0641899l3.390501-3.3886199,1.0281982,1.03619-3.3625984,3.4166198Z M19.7148991,13.0656004c0-1.3868008-.0008984-2.5118008-.0291996-3.4509602l1.8722-1.88662c.1431999,1.3450599.1431999,3.0596795.1431999,5.3375802,0,4.6057005,0,6.9085989-1.1842995,8.5101995-.3458004.467701-.7572002.8822002-1.2213001,1.2306995-1.5893002,1.1935005-3.8745003,1.1935005-8.4448996,1.1935005-4.5704303,0-6.8556402,0-8.4449604-1.1935005-.4640899-.3484993-.8754998-.7629986-1.2213299-1.2306995-1.18431-1.6016006-1.18431-3.9044991-1.18431-8.5101995,0-4.6056604,0-6.9085202,1.18431-8.5101104.3458301-.46768.7572401-.8822601,1.2213299-1.2307601,1.5893202-1.19346,3.8745301-1.19346,8.4449604-1.19346,2.4763994,0,4.2818995,0,5.6692991.1898501l-1.8414993,1.8557498c-1.0095005-.0427399-2.2472-.0440497-3.8277998-.0440497-2.3303699,0-3.9155002.0028501-5.1225004.1370997-1.16854.1299701-1.7399998.3626499-2.1356599.65976-.3098798.2326903-.5845699.5095-.81548.8217702-.2948298.3987198-.5257299.9745998-.6546998,2.1521502-.1332201,1.2163301-.1360501,2.8137002-.1360501,5.1620002,0,2.3483992.00283,3.9456987.1360501,5.1620989.02898.2646008.0631099.4988003.1019499.7075005l.01932-.0142002c1.7973702-1.3204994,3.6577599-2.6872997,5.2497199-1.7623997l1.36092.8432999c1.3293304.8304005,2.8589306-.5846996,4.52003-2.1215,1.1195002-1.0356998,2.2987003-2.1266994,3.5166998-2.6229,1.1123009-.4530993,1.8579006-.0633001,2.8234997.7455006.0004997-.2986002.0004997-.6107006.0004997-.9373999Z M5.16782,9.5073204c0,1.3125792,1.0330601,2.3536797,2.3356299,2.3536797,1.3025603,0,2.3356299-1.0862999,2.3356299-2.3536797,0-1.3126307-1.0330696-2.3536706-2.3356299-2.3536706-1.3025699,0-2.3356299,1.0410399-2.3356299,2.3536706Z"/></svg>