<svg role="img" viewBox="0 0 24 24" xmlns="http://www.w3.org/2000/svg"><title>Image Toolbox</title><path d="M13.995 7.152v1.834c0 .314.107.578.32.791.213.213.477.32.792.32h1.834c.148 0 .292-.028.43-.083.14-.056.265-.14.376-.25l5.78-5.78c.167-.166.288-.356.362-.57.074-.212.111-.42.111-.625 0-.203-.042-.407-.125-.61a1.933 1.933 0 0 0-.347-.557L22.499.594a1.672 1.672 0 0 0-1.195-.5c-.204 0-.407.037-.611.111a1.515 1.515 0 0 0-.556.362L14.33 6.346a1.111 1.111 0 0 0-.25.375 1.15 1.15 0 0 0-.084.43ZM16.72 8.43h-1.056V7.374l3.39-3.362 1.029 1.028-3.363 3.39Z M19.715 13.057c0-1.376-.001-2.492-.03-3.424l1.873-1.871c.143 1.334.143 3.035.143 5.295 0 4.57 0 6.855-1.184 8.444a5.976 5.976 0 0 1-1.221 1.22c-1.59 1.185-3.875 1.185-8.445 1.185s-6.856 0-8.445-1.184A5.978 5.978 0 0 1 1.184 21.5C0 19.91 0 17.627 0 13.057s0-6.854 1.184-8.443a5.977 5.977 0 0 1 1.222-1.221C3.995 2.209 6.28 2.209 10.85 2.209c2.476 0 4.282 0 5.669.188l-1.842 1.841c-1.01-.042-2.247-.043-3.827-.043-2.33 0-3.916.002-5.123.136-1.168.129-1.74.36-2.136.654a3.99 3.99 0 0 0-.815.816c-.295.395-.526.967-.655 2.135-.133 1.207-.136 2.791-.136 5.121 0 2.33.003 3.915.136 5.122.03.262.063.495.102.702l.02-.014c1.797-1.31 3.657-2.667 5.25-1.749l1.36.837c1.33.824 2.86-.58 4.52-2.105 1.12-1.028 2.299-2.11 3.517-2.602 1.112-.45 1.858-.063 2.823.74v-.93Z M5.168 9.527c0 1.302 1.033 2.335 2.335 2.335S9.84 10.784 9.84 9.527c0-1.302-1.033-2.335-2.336-2.335S5.168 8.225 5.168 9.527Z"/></svg>
