<?xml version="1.0" encoding="UTF-8"?>
<svg xmlns="http://www.w3.org/2000/svg" xmlns:xlink="http://www.w3.org/1999/xlink" width="24px" height="24px" viewBox="0 0 24 23" version="1.1">
<g id="surface1">
<path style=" stroke:none;fill-rule:evenodd;fill:rgb(37.64706%,91.764706%,47.058824%);fill-opacity:1;" d="M 13.996094 6.816406 L 13.996094 8.589844 C 13.996094 8.890625 14.101562 9.148438 14.316406 9.351562 C 14.527344 9.558594 14.792969 9.660156 15.105469 9.660156 L 16.941406 9.660156 C 17.089844 9.660156 17.234375 9.636719 17.371094 9.582031 C 17.511719 9.527344 17.636719 9.445312 17.746094 9.339844 L 23.527344 3.757812 C 23.695312 3.597656 23.816406 3.414062 23.890625 3.207031 C 23.964844 3 24 2.800781 24 2.601562 C 24 2.40625 23.957031 2.210938 23.875 2.011719 C 23.792969 1.816406 23.675781 1.636719 23.527344 1.476562 L 22.5 0.484375 C 22.332031 0.320312 22.148438 0.203125 21.945312 0.121094 C 21.738281 0.0390625 21.527344 0 21.304688 0 C 21.101562 0 20.898438 0.0351562 20.691406 0.105469 C 20.488281 0.179688 20.304688 0.296875 20.136719 0.457031 L 14.328125 6.039062 C 14.21875 6.144531 14.132812 6.265625 14.078125 6.402344 C 14.023438 6.535156 13.996094 6.671875 13.996094 6.816406 Z M 16.71875 8.050781 L 15.664062 8.050781 L 15.664062 7.03125 L 19.054688 3.785156 L 20.082031 4.777344 Z M 16.71875 8.050781 "/>
<path style=" stroke:none;fill-rule:nonzero;fill:rgb(37.64706%,91.764706%,47.058824%);fill-opacity:1;" d="M 19.714844 12.519531 C 19.714844 11.191406 19.714844 10.113281 19.6875 9.214844 L 21.558594 7.40625 C 21.703125 8.695312 21.703125 10.339844 21.703125 12.519531 C 21.703125 16.933594 21.703125 19.140625 20.515625 20.675781 C 20.171875 21.125 19.757812 21.523438 19.296875 21.855469 C 17.707031 23 15.421875 23 10.851562 23 C 6.28125 23 3.996094 23 2.40625 21.855469 C 1.941406 21.523438 1.53125 21.125 1.183594 20.675781 C 0 19.140625 0 16.933594 0 12.519531 C 0 8.109375 0 5.902344 1.183594 4.367188 C 1.53125 3.917969 1.941406 3.519531 2.40625 3.1875 C 3.996094 2.042969 6.28125 2.042969 10.851562 2.042969 C 13.328125 2.042969 15.132812 2.042969 16.519531 2.222656 L 14.679688 4.003906 C 13.667969 3.960938 12.429688 3.960938 10.851562 3.960938 C 8.519531 3.960938 6.933594 3.964844 5.726562 4.09375 C 4.558594 4.214844 3.988281 4.441406 3.59375 4.722656 C 3.28125 4.949219 3.007812 5.210938 2.777344 5.511719 C 2.480469 5.894531 2.25 6.445312 2.121094 7.574219 C 1.988281 8.738281 1.984375 10.269531 1.984375 12.519531 C 1.984375 14.773438 1.988281 16.300781 2.121094 17.46875 C 2.152344 17.722656 2.183594 17.945312 2.222656 18.144531 L 2.242188 18.132812 C 4.039062 16.867188 5.902344 15.558594 7.492188 16.445312 L 8.855469 17.25 C 10.183594 18.046875 11.714844 16.691406 13.375 15.21875 C 14.492188 14.226562 15.671875 13.179688 16.890625 12.707031 C 18.003906 12.269531 18.75 12.644531 19.714844 13.417969 C 19.714844 13.132812 19.714844 12.835938 19.714844 12.519531 Z M 19.714844 12.519531 "/>
<path style=" stroke:none;fill-rule:nonzero;fill:rgb(37.64706%,91.764706%,47.058824%);fill-opacity:1;" d="M 5.167969 9.109375 C 5.167969 10.367188 6.199219 11.367188 7.503906 11.367188 C 8.804688 11.367188 9.839844 10.324219 9.839844 9.109375 C 9.839844 7.851562 8.804688 6.855469 7.503906 6.855469 C 6.199219 6.855469 5.167969 7.851562 5.167969 9.109375 Z M 5.167969 9.109375 "/>
</g>
</svg>
