<svg viewBox="0 0 24 24" xmlns="http://www.w3.org/2000/svg" fill-rule="evenodd" clip-rule="evenodd" stroke-linejoin="round" stroke-miterlimit="1.414"><path d="M22.38 0H1.62C.742.06.06.744 0 1.596V22.38c.06.874.712 1.542 1.555 1.617.015.003.03.003.045.003h20.845A1.727 1.727 0 0 0 24 22.29V1.71C24 .819 23.304.069 22.416 0h-.038zM2.888 8.26h1.904v7.366H2.887V8.26zm11.4 7.366c.452 0 .799-.03 1.022-.075.231-.048.42-.135.57-.266.156-.12.264-.3.326-.522.06-.225.102-.664.102-1.32v-2.588c0-.697-.027-1.167-.075-1.402a1.269 1.269 0 0 0-.312-.645c-.17-.195-.42-.33-.745-.42-.32-.081-.855-.129-1.77-.129H11.98v7.365h2.305zm5.138-1.785c0 .352-.015.577-.045.672s-.18.142-.3.142a.237.237 0 0 1-.225-.135c-.03-.09-.06-.3-.06-.624v-1.947c0-.333.03-.543.06-.624.03-.081.105-.12.225-.12.12 0 .27.039.315.141.045.095.06.3.06.603v1.89zM14.31 9.588c.075.041.12.108.141.204.03.09.034.3.034.63v2.866c0 .48-.034.78-.094.885-.06.105-.231.165-.503.165V9.524c.195 0 .345.021.42.069zM8.85 8.26l-.441 3.445-.27-1.871a62.169 62.169 0 0 0-.231-1.575H5.439v7.365h1.668l.007-4.86.698 4.86H9l.67-4.971v4.971h1.663V8.259H8.85zm8.103 0v7.366h1.716l.116-.47c.156.189.325.333.516.427.18.076.46.136.678.136.3 0 .555-.075.78-.24.21-.165.345-.345.405-.57.045-.226.09-.54.09-.99v-2.054c0-.441-.015-.732-.045-.87a1.073 1.073 0 0 0-.18-.42 1.083 1.083 0 0 0-.435-.33 1.788 1.788 0 0 0-.66-.115c-.225 0-.495.044-.69.127-.195.09-.36.225-.51.4v-2.4h-1.8z"/></svg>