<svg viewBox="0 0 16 16" xmlns="http://www.w3.org/2000/svg" fill-rule="evenodd" clip-rule="evenodd" stroke-linejoin="round" stroke-miterlimit="1.414"><path d="M14.92 0H1.08C.495.04.04.496 0 1.064V14.92c.04.583.475 1.028 1.037 1.078.01.002.02.002.03.002H14.963c.58-.052 1.037-.553 1.037-1.14V1.14C16 .546 15.536.046 14.944 0h-.025zM1.925 5.507h1.27v4.91h-1.27v-4.91zm7.6 4.91c.302 0 .533-.02.682-.05.154-.032.28-.09.38-.177.104-.08.176-.2.217-.348.04-.15.068-.443.068-.88V7.237c0-.465-.018-.778-.05-.935-.027-.16-.095-.303-.208-.43-.113-.13-.28-.22-.497-.28-.213-.054-.57-.086-1.18-.086h-.95v4.91h1.537zm3.426-1.19c0 .235-.013.385-.036.448-.022.063-.126.095-.203.095-.072 0-.127-.032-.15-.09-.027-.06-.04-.2-.04-.416V7.966c0-.222.013-.362.036-.416.022-.054.072-.08.144-.08.077 0 .18.026.207.094.03.063.042.2.042.402v1.26zM9.54 6.393c.05.027.08.072.094.136.02.062.023.207.023.428V8.86c0 .327-.023.526-.063.598-.04.077-.154.113-.335.113V6.348c.135 0 .23.014.28.046zM5.9 5.507l-.294 2.296-.18-1.247c-.055-.403-.105-.75-.154-1.05H3.626v4.91h1.112l.005-3.24.465 3.24H6l.447-3.314v3.314h1.108v-4.91H5.9zm5.402 0v4.91h1.144l.077-.313c.104.126.217.222.344.285.12.058.307.09.452.09.202 0 .374-.05.52-.16.143-.103.238-.23.278-.374.037-.145.06-.362.06-.656V7.912c0-.294-.01-.488-.023-.58-.013-.09-.05-.184-.113-.28-.068-.094-.163-.166-.285-.22-.122-.05-.266-.077-.438-.077-.146 0-.332.03-.458.085-.122.06-.235.15-.34.267v-1.6h-1.22z"/></svg>