<svg role="img" viewBox="0 0 24 24" xmlns="http://www.w3.org/2000/svg"><title>Imgur icon</title><path d="M22.76 11.27c-.41.17-.45.33-.45.77v1.35c0 .63-.23.95-.73.95s-.73-.31-.73-.95v-2.61c0-.63.23-.94.73-.94.29 0 .52.13.69.41.31-.29.65-.44.99-.44.41 0 .74.3.74.65 0 .52-.65.56-1.24.81zm-4.87 3.14c-1.42 0-2.2-.66-2.2-1.9v-1.73c0-.63.23-.94.73-.94.49 0 .72.3.72.94v1.46c0 .61.16.95.75.95s.75-.34.75-.95v-1.46c0-.63.23-.94.73-.94s.72.3.72.94v1.73c0 1.24-.78 1.9-2.2 1.9zm-5.3-3.38c-.54 0-.95.41-.95 1.06 0 .67.41 1.09.95 1.09.55 0 .96-.43.96-1.09.01-.65-.42-1.06-.96-1.06zm2.01 4.15c-.41.64-1.19.97-2.22.97-1.33 0-2.14-.44-2.14-.95 0-.33.27-.57.63-.57.2 0 .39.08.62.16.25.09.55.18.95.18.71 0 1.14-.39 1.14-1.09l-.01-.16c-.31.4-.75.61-1.32.61-1.15 0-2.11-.94-2.11-2.25s1.03-2.29 2.27-2.29c.5 0 .87.15 1.17.46.17-.27.43-.41.65-.41.5 0 .73.3.73.94v2.61c-.01.78-.08 1.35-.36 1.79zm-5.78-.85c-.5 0-.72-.31-.72-.95v-1.46c0-.66-.19-.99-.67-.99-.53 0-.73.33-.73.97v1.48c0 .63-.23.95-.73.95s-.73-.31-.73-.95v-1.46c0-.66-.19-.99-.66-.99-.53 0-.73.33-.73.97v1.48c0 .63-.23.95-.73.95s-.73-.31-.73-.95v-2.61c0-.63.23-.94.73-.94.29 0 .52.13.69.41.31-.3.68-.43 1.17-.43.63 0 1.11.21 1.45.61.44-.42.87-.59 1.47-.59 1.01 0 1.65.58 1.65 1.7v1.86c0 .63-.23.94-.73.94zM.84 9.84c.49 0 .72.3.72.94v2.61c0 .63-.22.95-.72.95s-.73-.31-.73-.95v-2.61c0-.63.23-.94.73-.94zm0-.49C.37 9.35 0 9.02 0 8.6c0-.41.38-.75.84-.75.46 0 .83.34.83.75.01.42-.36.75-.83.75z"/></svg>