<svg role="img" viewBox="0 0 24 24" xmlns="http://www.w3.org/2000/svg"><title>Immich</title><path d="M11.9863.2695c-2.409 0-5.207 1.091-5.207 3.8946v.1523c1.3428.597 2.9347 1.6629 4.4121 2.9707 1.5713 1.3912 2.8374 2.8821 3.6524 4.2871 1.3997-2.5034 2.3358-5.4784 2.3476-7.373V4.164c0-2.8035-2.796-3.8946-5.205-3.8946m7.5117 4.4903c-.3778-.0081-.7747.0502-1.1914.1855-.0366.0118-.086.0278-.1445.0469-.1525 1.4611-.6756 3.304-1.4629 5.1133-.8373 1.9243-1.8627 3.5898-2.9472 4.7988 2.8132.558 5.9307.5273 7.7363-.0469.0126-.004.0246-.0065.0351-.0097 2.6665-.8666 2.84-3.8636 2.0957-6.1543-.6279-1.9332-2.081-3.89-4.121-3.9336m-14.996.039C2.4618 4.8424 1.0088 6.7973.3809 8.7305c-.7442 2.291-.5708 5.288 2.0957 6.1543l.1445.0468c.982-1.0926 2.4873-2.2761 4.1875-3.2773 1.8088-1.0646 3.619-1.808 5.207-2.1484-1.9483-2.1049-4.4884-3.9132-6.287-4.5098l-.0352-.0117c-.4167-.1354-.8136-.1936-1.1914-.1856m4.6718 6.7578c-2.6038 1.2025-5.1088 3.0598-6.2324 4.586l-.0215.0293c-1.6478 2.2683-.0272 4.7953 1.9219 6.211 1.9487 1.4159 4.8518 2.1765 6.5-.0919.0228-.0309.0536-.071.0898-.121-.7356-1.2717-1.396-3.0718-1.8222-4.9981-.4534-2.0492-.6023-4-.4356-5.6153m1.0723 3.338c.3387 2.8478 1.3315 5.8037 2.4355 7.3437l.0215.0293c1.6478 2.2683 4.551 1.5078 6.5.0918 1.9487-1.416 3.5697-3.943 1.9219-6.211-.0228-.0309-.0517-.073-.0879-.123-1.4367.3066-3.3522.3794-5.3164.1894-2.089-.2017-3.9895-.6623-5.4746-1.3203"/></svg>