<svg role="img" viewBox="0 0 24 24" xmlns="http://www.w3.org/2000/svg"><title>Imou icon</title><path d="M14.642 9.148A2.857 2.857 0 0011.786 12a2.857 2.857 0 005.712 0 2.857 2.857 0 00-2.856-2.852zm-9.817.005a2.504 2.504 0 00-2.503 2.5v2.953c0 .088.072.16.16.16h.973a.16.16 0 00.16-.16v-2.953a1.21 1.21 0 012.419 0v2.953c0 .088.072.16.16.16h.973a.16.16 0 00.16-.16v-2.953a1.21 1.21 0 012.419 0v2.953c0 .088.072.16.16.16h.973a.16.16 0 00.16-.16v-2.953c0-1.379-1.122-2.5-2.502-2.5-.737 0-1.398.321-1.856.828a2.495 2.495 0 00-1.856-.828zM.16 9.284A.161.161 0 000 9.445v5.16c0 .09.072.161.16.161h.964a.16.16 0 00.16-.16v-5.16a.161.161 0 00-.16-.162zm18.288 0a.161.161 0 00-.161.161v1.45c0 .088.072.16.16.16h.964a.16.16 0 00.16-.16v-1.45a.16.16 0 00-.16-.16zm4.427 0a.16.16 0 00-.161.161v1.45c0 .088.072.16.161.16h.963a.16.16 0 00.16-.16v-1.45a.16.16 0 00-.16-.16zm-8.234 1.147c.867 0 1.571.704 1.571 1.569a1.572 1.572 0 01-3.142 0c0-.865.705-1.57 1.571-1.57zm3.807 1.258a.16.16 0 00-.161.16v.08c0 1.545 1.2 2.862 2.746 2.92A2.858 2.858 0 0024 12v-.15a.161.161 0 00-.161-.16h-.963a.16.16 0 00-.16.16V12a1.572 1.572 0 01-3.144 0v-.15a.16.16 0 00-.16-.16z"/></svg>
