<svg role="img" viewBox="0 0 24 24" xmlns="http://www.w3.org/2000/svg"><title>InAccel Coral icon</title><path d="M18.2 20.6a.7.7 0 1 0 0 1.4.7.7 0 1 0 0-1.4zM12.4 0a.9.9 0 1 0 0 1.8.9.9 0 1 0 0-1.8zM6.3 9a.9.9 0 1 0 0 1.8.9.9 0 1 0 0-1.8zM18 2.4a.7.7 0 1 0 0 1.4.7.7 0 1 0 0-1.4zm-4.8 2.4v9.9c0 .4.3.7.7.7h2.6c.4 0 .7-.3.7-.7v-.4c0-.4-.3-.7-.7-.7h-1.3c-.4 0-.7-.3-.7-.7 0-.4.3-.7.7-.7h1.3c.4 0 .7-.3.7-.7V10c0-.4-.3-.7-.7-.7h-.7c-.4 0-.7-.3-.7-.7s.3-.7.7-.7h.7c.4 0 .7-.3.7-.7v-1c0-.4.3-.7.7-.7.4 0 .7.3.7.7v3.1c0 .4.3.7.7.7h1c.4 0 .7.3.7.7 0 .4-.3.7-.7.7h-1c-.4 0-.7.3-.7.7V16c0 .4-.3.7-.7.7h-4.1c-.4 0-.7.3-.7.7v2.2c0 .4.3.7.7.7h1.6c.4 0 .7.3.7.7 0 .4-.3.7-.7.7h-1.6c-.4 0-.7.3-.7.7V24h-1.5v-3.1c0-.4-.3-.7-.7-.7H6.3c-.4 0-.7-.3-.7-.7v-1c0-.4-.3-.7-.7-.7H3.5c-.4 0-.7-.3-.7-.7 0-.4.3-.7.7-.7h1.3c.4 0 .7-.3.7-.7v-2.4c0-.4.3-.7.7-.7.4 0 .7.3.7.7v.4c0 .4.3.7.7.7H8c.4 0 .7-.3.7-.7V11c0-.4.3-.7.7-.7.4 0 .7.3.7.7v4c0 .4-.3.7-.7.7H7.8c-.4 0-.7.3-.7.7v1.5c0 .4.3.7.7.7H11c.4 0 .7-.3.7-.7V9.5c0-.4-.3-.7-.7-.7H8.8c-.4 0-.7-.4-.7-.8V.9c0-.4.3-.7.7-.7.4 0 .7.3.7.7v5.6c0 .4.3.7.7.7h.6c.4 0 .7-.3.7-.7V4.8c0-.4.3-.7.7-.7.6 0 1 .3 1 .7"/></svg>
