<svg role="img" viewBox="0 0 24 24" xmlns="http://www.w3.org/2000/svg"><title>InfinityFree</title><path d="M4.348 1.674a1.4 1.4 0 0 0-.202.016l.41.18zm.151.07.23.196.259-.12a1.368 1.368 0 0 0-.489-.076zm-3.408.036a1.375 1.375 0 0 0-.686.373 1.375 1.375 0 0 0-.37.665l.026-.003a1.385 1.385 0 0 0-.045.619l.049-.032c.046.284.179.546.387.754.15.15.33.262.527.33l.04-.692a.736.736 0 0 1-.282-.885l-.034.02a.749.749 0 0 1 .139-.212l-.064-.014a.709.709 0 0 1 .309-.248l.013.131a.741.741 0 0 1 .426-.096.755.755 0 0 1 .472.208l1.572 1.51c.203.203.461.334.744.38l.025.074a1.413 1.413 0 0 0 .777-.11l-.622-.525a.76.76 0 0 1-.313-.089l-.03-.086a.688.688 0 0 1-.132-.103L2.447 2.24a1.356 1.356 0 0 0-.468-.304l-.003-.001a1.392 1.392 0 0 0-.883-.04zm3.292.07c-.31.036-.597.173-.821.398l-.394.378.461.446.382-.367a.75.75 0 0 1 .522-.222h.018c.194.002.376.079.514.217a.737.737 0 0 1 .157.819l.057-.004a.737.737 0 0 1-.168.256.744.744 0 0 1-.577.21l.627.525a1.38 1.38 0 0 0 .796-1.065l-.05.003a1.35 1.35 0 0 0 .012-.336l-1.18-1.07.005-.003-.009.001zm.635.052-.21.136 1.181 1.086a1.373 1.373 0 0 0-.401-.878 1.375 1.375 0 0 0-.57-.344Zm-4.004.826c.008.06.02.12.036.18l.145-.028zm5.066.519.03.261c.04-.068.075-.137.106-.207zm-3.695.13-.38.365a.744.744 0 0 1-.532.219.75.75 0 0 1-.413-.124l-.044.692a1.382 1.382 0 0 0 .642.066l.136-.162.682-.254.37-.355zm3.965.096-.289.227.223-.075c.026-.05.048-.1.066-.152zm-1.97.278.001.148.182-.15a1.413 1.413 0 0 0-.183.002zM2.664 4.2l-.693.26.15.105c.183-.068.351-.176.494-.318zm-.854.283-.152.18c.061-.007.121-.02.18-.035z"/></svg>