<svg role="img" viewBox="0 0 24 24" xmlns="http://www.w3.org/2000/svg"><title>Infosys icon</title><path d="M23.2663 9.0399c.391 0 .7337-.3224.7337-.7338 0-.391-.3224-.7337-.7337-.7337-.391 0-.7338.3224-.7338.7337.019.4112.3428.7338.7338.7338zm-.6048-.7298c0-.3386.2861-.6248.625-.6248.3386 0 .6248.286.6248.6248 0 .3387-.286.625-.6249.625-.3586 0-.6249-.2862-.6249-.625zm.3387.375h.141v-.3224h.1613l.1251.3023h.1614l-.141-.3386c.0526-.0151.1251-.0525.1251-.1977 0-.2135-.1613-.2498-.3023-.2498h-.2498v.8023h-.019zm.141-.645h.1613c.0889 0 .1251.0377.1251.1088 0 .0725-.0525.1088-.125.1088h-.1615zM0 8.6285V7.774h.8587v7.1228H0v-.8738zm8.7324 3.6808c.0162 1.3022.8224 2.3383 1.802 2.3222.9838-.0151 1.7498-1.0885 1.7336-2.3746-.0162-1.3022-.8224-2.3383-1.802-2.3222-.9838.0152-1.7538 1.0684-1.7336 2.3746zm7.1076-1.5723c.0162.0525-.0363-.0726-.0363-.0726zm.5886 5.374c.0363-.0725.0887-.1613.1613-.3023zm.0524-5.8215c.0162.0378.0162.0526.0363.0885l.2862.7135-.3226-.8022zm-3.6083 3.572c.5362.4838.9999.7337 1.6248.7337.6248 0 1.1772-.3023 1.1772-.891 0-.4998-.4274-.7861-1.2135-1.1086-.6612-.2862-1.141-.4838-1.411-.891.0362.1772.0523.3586.0523.5523 0 1.5885-1.161 2.8745-2.5883 2.8745-1.4271 0-2.5882-1.286-2.5882-2.8745 0-.9635.4273-1.8021 1.0724-2.3383H7.2487v4.9981h-.766v-.8224-4.1822h-.6773v-.516h.6974c.0888-1.0523.7338-1.6409 1.6409-1.6409.5886 0 .9111.0522 1.0885.141v.8024H9.196c-.2862-.266-.5523-.4475-1.1973-.4475-.516 0-.8588.4112-.7338 1.141h2.9108c.125-.0152.25-.0379.375-.0379 1.036 0 1.927.6774 2.3382 1.661v-.1772c0-1.016.9998-1.4634 2.0158-1.4634h.1088c.3589 0 .8749.1088 1.1974.1976l.2863.6975.3225.8023.8587 2.1407.1089.3387.1088-.3387 1.1087-2.7333c.1976-.75 1.016-1.0724 1.8909-1.0724.4474 0 .766.0525 1.161.1976v.8265c-.4838-.3587-.8224-.5523-1.3747-.5523-.4838 0-1.0523.2135-1.0523.9272-.0162.5362.3024.625 1.2498 1.0886.766.3386 1.4836.6974 1.4836 1.552 0 1.4273-1.411 1.6772-2.0883 1.6772-.6088 0-1.1773-.141-1.4836-.4112v-.9474l.0523.0378c.5524.516 1.0523.7861 1.6771.7861.625 0 1.1773-.3023 1.1773-.891 0-.4999-.4274-.786-1.2135-1.1086-.7499-.3224-1.2337-.5362-1.4272-1.0724-.3023.7337-1.7134 4.1767-2.052 4.9104h-.75l.1774-.3386.1613-.3024v-.0151c.1976-.375.4637-.9635.7136-1.536l-1.4634-3.5357c-.0163-.0151-.0363-.0726-.0888-.1772-.1088-.2499-.2137-.5-.5362-.6088a1.8393 1.8393 0 00-.5523-.0888c-.4838 0-1.0885.2135-1.0885.9272-.0163.5362.3386.625 1.286 1.0886.766.3386 1.4836.6974 1.4836 1.5521 0 1.4272-1.411 1.6772-2.0883 1.6772-.5362 0-1.0522-.1252-1.3748-.3224l-.012-.887zM2.4633 9.4511l.0162.6248v.0378c.0163-.0151.0163-.0525.0363-.0726.3225-.3386.7136-.6773 1.661-.6773.9111 0 1.4836.766 1.5159 1.2498v4.2846h-.766v-3.9268c0-.6087-.5362-1.036-1.1773-1.036-.5362 0-1.2336.4837-1.2497.9836v3.9781h-.7862V9.4505h.7499z"/></svg>
