<svg role="img" viewBox="0 0 24 24" xmlns="http://www.w3.org/2000/svg"><title>Infuse</title><path d="M6.6421.0316C4.5886.2825 2.9336 1.7945 2.5163 3.8082c-.054.2625-.1242.9119-.1008.9353.0047.007.0985-.047.2086-.1195.394-.2602.8932-.4665 1.3925-.572.3352-.0727 1.0057-.0891 1.3667-.0375.5954.089 1.1041.2953 1.7043.6986.1031.0703 1.9128 1.376 4.0203 2.902 2.1075 1.5285 3.8844 2.8038 3.95 2.8366.0985.0493.15.0586.3282.0586.1852 0 .2274-.0093.3517-.068.1875-.0914.654-.5555.8345-.8345.8814-1.341.7103-3.078-.4102-4.1844-.143-.143-.9377-.7268-3.2726-2.417C11.1946 1.7804 9.7061.7184 9.5842.6459c-.8744-.511-1.9458-.7337-2.942-.6142zM4.3096 5.6203c-.9025.1992-1.573.8439-1.8214 1.7488l-.0657.2344v7.7125l.0633.2274c.3024 1.0924 1.212 1.8004 2.3161 1.8004 1.158 0 2.1192-.7947 2.349-1.9457.0445-.2228.0445-7.654 0-7.8767-.047-.2367-.1196-.4383-.2298-.6563-.3165-.612-.851-1.041-1.5284-1.2237-.265-.0704-.811-.082-1.083-.0211zM18.8017 7.737c0 .5017-.0352.7994-.1454 1.24-.171.6893-.5087 1.362-.968 1.9318-.176.218-.5745.6095-.7784.7642-.0774.0586-2.6185 1.894-5.6496 4.0766-3.0288 2.18-5.5676 4.0157-5.6379 4.0766-.1946.1664-.4313.4759-.5509.715-.5767 1.172-.1383 2.5646 1.0033 3.1788.7033.3797 1.6223.3727 2.2927-.0188.1266-.075 10.9616-7.865 11.379-8.1837.2273-.1711.6586-.6048.844-.8486.9727-1.2682 1.254-2.9045.7593-4.4165-.2578-.783-.7548-1.5425-1.3526-2.0676-.1125-.0962-.4149-.3306-.6728-.5181-.2578-.1852-.4805-.3493-.497-.361-.021-.0164-.0257.089-.0257.4313z"/></svg>