<svg role="img" viewBox="0 0 24 24" xmlns="http://www.w3.org/2000/svg"><title>Ingress icon</title><path d="M11.7.04c-.18.05-.19.06-5.1 2.87-5.18 2.97-4.9 2.8-5.08 3.13l-.14.25-.01 5.6c-.01 6.31-.03 5.93.32 6.3.27.28 9.77 5.73 10.1 5.79.44.08.37.11 5.5-2.83 4.91-2.8 5.05-2.9 5.23-3.23l.1-.19.01-5.63c.02-6.27.03-5.93-.3-6.28-.19-.21-9.7-5.69-10.02-5.78-.2-.05-.44-.05-.6 0m.3 5.8l.51.01.02-2.26.01-2.26 4.5 2.57c3.17 1.81 4.5 2.6 4.52 2.66.01.05.02 2.4.01 5.2l-.01 5.12-1.7-.98-1.95-1.12-.26-.14-.26.43-.25.45 1.94 1.14c1.48.84 1.94 1.13 1.9 1.17-.04.02-2.07 1.2-4.53 2.6L12 22.98l-.14-.08a4926.4 4926.4 0 00-8.84-5.07c-.04-.04.42-.33 1.83-1.13l1.95-1.13c.06-.04-.22-.65-.43-.92l-1.98 1.1-1.96 1.13v-5.16c-.02-4.27 0-5.17.04-5.22L7 3.9l4.46-2.56.02 2.25.03 2.25.51.01M4.5 7.68c-.03.05 7.44 12.9 7.5 12.9.06.01 7.54-12.85 7.5-12.9-.03-.06-14.97-.06-15 0m12.12 1.05c-.05.05-3.94 2.29-4.22 2.42a.91.91 0 01-.76.03c-.23-.12-4.21-2.4-4.26-2.45-.02-.02 2.02-.04 4.62-.04 2.68 0 4.65.02 4.62.04M9 10.87c1.12.65 2.1 1.22 2.18 1.28.3.22.3.23.28 3v2.48l-2.04-3.5-2.33-4c-.2-.33-.26-.48-.2-.46L9 10.87m8.11-1.07a1436.17 1436.17 0 00-4.54 7.8c-.03.02-.04-.99-.03-2.53l.01-2.57.12-.17a55.5 55.5 0 014.5-2.68c.01 0 0 .07-.06.15"/></svg>
