<svg role="img" viewBox="0 0 24 24" xmlns="http://www.w3.org/2000/svg"><title>Ingress icon</title><path d="M11.702.037c-.181.055-.188.058-5.103 2.874-5.18 2.968-4.894 2.791-5.082 3.13l-.135.247-.012 5.604c-.014 6.312-.034 5.93.324 6.3.267.277 9.77 5.724 10.091 5.784.442.083.371.119 5.51-2.823 4.906-2.81 5.04-2.894 5.223-3.233l.101-.189.013-5.626c.014-6.271.03-5.932-.297-6.288C22.144 5.61 12.637.134 12.31.044c-.197-.056-.44-.058-.608-.007m.309 5.805l.514.013.012-2.262.013-2.263 4.496 2.57c3.17 1.812 4.504 2.597 4.521 2.662.014.05.02 2.392.013 5.204l-.014 5.113-1.692-.974c-.932-.534-1.812-1.038-1.954-1.12l-.26-.147-.255.434c-.141.239-.255.442-.255.452 0 .011.874.521 1.944 1.135 1.472.846 1.931 1.128 1.888 1.167-.031.028-2.063 1.2-4.518 2.604l-4.46 2.554-.139-.08c-.077-.045-2.086-1.194-4.465-2.554-2.379-1.36-4.35-2.496-4.38-2.524-.041-.037.422-.322 1.826-1.125 1.035-.592 1.913-1.1 1.952-1.128.06-.043-.222-.649-.431-.925-.006-.008-.894.492-1.973 1.11l-1.96 1.124-.012-5.158c-.009-4.269-.001-5.169.05-5.22.034-.033 2.068-1.211 4.521-2.617l4.458-2.555.023 2.249.023 2.249.514.012M4.498 7.677c-.031.051 7.441 12.91 7.502 12.912.063.001 7.536-12.857 7.504-12.91-.034-.054-14.973-.056-15.006-.002M16.62 8.73c-.053.049-3.944 2.286-4.218 2.425-.231.117-.554.127-.759.023-.235-.12-4.216-2.406-4.264-2.45-.024-.02 2.018-.038 4.621-.038 2.68 0 4.646.017 4.62.04m-7.618 2.143c1.121.644 2.102 1.219 2.182 1.278.292.219.293.227.28 2.99l-.013 2.49-2.034-3.498c-1.119-1.923-2.165-3.721-2.325-3.995-.198-.34-.264-.488-.209-.467.045.017.999.558 2.119 1.202m8.11-1.073c-.05.082-1.084 1.858-2.298 3.948-1.214 2.089-2.226 3.818-2.248 3.843-.025.027-.037-.979-.029-2.521l.013-2.565.117-.176c.104-.158 4.335-2.676 4.497-2.677.021-.001-.003.066-.052.148"/></svg>