<svg role="img" viewBox="0 0 24 24" xmlns="http://www.w3.org/2000/svg"><title>Inkdrop</title><path d="M8.854 1.812A3.698 3.698 0 0 1 11.607.02a3.677 3.677 0 0 1 2.656.77c.35.28.647.624.873 1.01 2.165 3.72 4.314 7.45 6.47 11.176.343.595.501 1.282.476 1.963a3.641 3.641 0 0 1-.463 1.658c-1.067 1.862-2.142 3.72-3.213 5.58a3.708 3.708 0 0 1-3.134 1.821c-2.17.004-4.339 0-6.508 0a3.71 3.71 0 0 1-3.137-1.8c-1.082-1.86-2.156-3.723-3.234-5.585a3.707 3.707 0 0 1-.007-3.628C4.534 9.256 6.698 5.536 8.854 1.812ZM4.625 14.15a1.192 1.192 0 0 0 0 1.182C5.7 17.197 6.71 18.96 7.8 20.815c.213.358.594.582 1.02.585 2.169.004 4.219.013 6.388 0a1.187 1.187 0 0 0 1.018-.591c1.075-1.858 2.095-3.612 3.154-5.478a1.188 1.188 0 0 0-.004-1.176c-2.15-3.73-4.172-7.26-6.352-10.973a1.196 1.196 0 0 0-1.118-.58c-.387.03-.733.245-.933.584-2.163 3.719-4.2 7.236-6.347 10.964Zm8.466 4.063a1.26 1.26 0 0 1-2.182 0l-2.164-3.748a1.26 1.26 0 0 1 1.091-1.89h4.328a1.26 1.26 0 0 1 1.091 1.89l-2.164 3.748Z"/></svg>