<svg xmlns="http://www.w3.org/2000/svg" viewBox="0 0 16 16"><path d="M7.915.127a1.85 1.85 0 0 0-1.329.536L.702 6.688c-2.228 2.227 1.443 2.041 2.77 2.884.615.4-1.97.914-1.442 1.442.514.528 3.1 1.014 3.614 1.528.514.528-1.043 1.085-.529 1.613.5.528 1.7.029 1.914 1.228.157.885 2.2.443 3.114-.314.57-.486-.986-.486-.472-1.014 1.286-1.3 2.428-.585 2.9-1.785.257-.642-1.943-1.1-1.357-1.513 1.4-.985 6.541-1.485 4.17-3.855L9.286.662A2 2 0 0 0 7.915.128zm.05.573c.353.002.706.134.963.39l2.328 2.371c.215.214.215.657.086.785l-1.157-.942-.228 1.385L9 4.175l-1.557.985-.514-2.07-.828 1.799-2.071-.015c-.4 0-.343-.414.071-.828.814-.9 2.4-2.427 2.9-2.955.256-.264.61-.393.963-.39zm6.503 10.85c-.494.017-.998.263-1.126.72 0 .3 2.328.472 2.2-.071-.094-.457-.58-.668-1.074-.65zm-10.23 1.297c-.672.04-1.392.527-.822 1.008.528.457 1.328-.1 1.585-.742-.16-.21-.457-.284-.762-.266zm8.818.051c-.657.6.114 1.228.757.814.171-.114-.014-.67-.757-.814z"/></svg>