<?xml version="1.0" encoding="UTF-8" standalone="no"?><!DOCTYPE svg PUBLIC "-//W3C//DTD SVG 1.1//EN" "http://www.w3.org/Graphics/SVG/1.1/DTD/svg11.dtd"><svg width="100%" height="100%" viewBox="0 0 768 768" version="1.1" xmlns="http://www.w3.org/2000/svg" xmlns:xlink="http://www.w3.org/1999/xlink" xml:space="preserve" xmlns:serif="http://www.serif.com/" style="fill-rule:evenodd;clip-rule:evenodd;stroke-linejoin:round;stroke-miterlimit:1.41421;"><rect id="Logo--New-" serif:id="Logo (New)" x="0" y="0" width="768" height="768" style="fill:none;"/><clipPath id="_clip1"><rect x="0" y="0" width="768" height="768"/></clipPath><g clip-path="url(#_clip1)"><g><path id="White" d="M768,384c0,210.656 -173.344,384 -384,384c0,0 0,0 0,0c-210.656,0 -384,-173.344 -384,-384c0,0 0,0 0,0c0,-210.656 173.344,-384 384,-384c0,0 0,0 0,0c210.656,0 384,173.344 384,384l0,0Z" style="fill:#fff;fill-rule:nonzero;"/><path id="Pupil" d="M302.253,90.394c26.018,-7.239 53.434,-11.109 81.747,-11.109c168.177,0 304.715,136.538 304.715,304.715c0,168.177 -136.538,304.715 -304.715,304.715c-168.177,0 -304.715,-136.538 -304.715,-304.715c0,-28.31 3.869,-55.723 11.107,-81.739c27.488,39.919 73.506,66.109 125.594,66.109c84.102,0 152.383,-68.28 152.383,-152.381c0,-52.089 -26.193,-98.108 -66.116,-125.595Z" style="fill:#5849be;"/></g></g></svg>