<svg viewBox="0 0 16 16" xmlns="http://www.w3.org/2000/svg" fill-rule="evenodd" clip-rule="evenodd" stroke-linejoin="round" stroke-miterlimit="1.414"><path d="M14.154 16H1.846C.826 16 0 15.173 0 14.153V1.846C0 .826.826 0 1.846 0h12.308C15.174 0 16 .826 16 1.846v12.307c0 1.02-.826 1.847-1.846 1.847M8 4.923C6.3 4.923 4.923 6.3 4.923 8S6.3 11.077 8 11.077 11.077 9.7 11.077 8C11.077 6.3 9.7 4.923 8 4.923m6.154-2.462c0-.34-.275-.614-.616-.614h-1.846c-.34 0-.615.275-.615.615V4.31c0 .34.276.615.615.615h1.846c.34 0 .616-.276.616-.615V2.46zm0 4.31H12.76c.103.392.163.804.163 1.23 0 2.72-2.204 4.923-4.923 4.923-2.72 0-4.923-2.204-4.923-4.923 0-.426.06-.838.162-1.23H1.845v6.768c0 .34.275.615.616.615h11.076c.34 0 .616-.275.616-.615v-6.77z"/></svg>