<svg viewBox="0 0 24 24" xmlns="http://www.w3.org/2000/svg">
<title>Instatus</title>
<path fill-rule="evenodd" clip-rule="evenodd" d="M3.74907 18.465C2.40827 20.284 1.37207 22.9641 2.44592 23.7716C3.96102 24.911 10.85 21.7583 16.3539 14.9665C21.8578 8.17477 23.6805 1.17054 21.233 0.0935368C20.1046 -0.402951 17.7469 1.17647 16.3936 2.48788L16.9778 2.80198C18.3097 1.94923 20.5304 1.06817 18.4771 4.77774L18.4476 4.83091C15.5409 2.6234 11.5007 2.16889 8.06831 3.99805C3.36575 6.50412 1.58513 12.3479 4.0912 17.0504C4.68097 18.1571 5.45559 19.102 6.35668 19.8672C2.79811 22.6165 3.66601 20.2268 4.16403 19.0509L3.74907 18.465ZM17.1435 21.0276C20.7276 19.1176 22.6144 15.2686 22.1996 11.4639C20.8789 12.549 19.5759 13.7842 18.3286 15.1545C16.2631 17.4238 14.5809 19.8103 13.3333 22.1362C14.628 22.0391 15.9241 21.6775 17.1435 21.0276Z" fill="black"/>
</svg>
