<svg role="img" viewBox="0 0 24 24" xmlns="http://www.w3.org/2000/svg"><title>International Olympic Committee</title><path d="M20.525 6.5a3.79 3.79 0 0 0-4.091 3.461c.211.018.421.054.627.107a3.165 3.165 0 1 1 .03.674 3.155 3.155 0 0 1 2.133 2.525c.21.068.429.115.65.138a3.787 3.787 0 0 0-3.772-3.456c-.112 0-.22 0-.327.015l.002.079a3.788 3.788 0 0 0-7.557-.081c.047.003.093.011.14.017a3.812 3.812 0 0 0-.794-.015c.01.098.01.188.01.298a3.788 3.788 0 1 0-3.788 3.789c.11 0 .22 0 .328-.014v-.004a3.79 3.79 0 0 0 7.553.006v-.002l-.004-.001c.11.01.22.015.332.015.11 0 .22 0 .327-.014l-.002-.043a3.788 3.788 0 0 0 7.555.044 3.788 3.788 0 0 0 4.116-3.776H24A3.79 3.79 0 0 0 20.525 6.5zM7.577 10.265a3.95 3.95 0 0 1 0-.002v.002zm-3.473 3.47a3.065 3.065 0 0 1 .001.046v-.046zm.003.135.003.061a4.862 4.862 0 0 1-.003-.061zm4.762 2.867a3.157 3.157 0 1 1-1.964-6c.024-.157.035-.314.035-.472v-.194a3.788 3.788 0 0 0-2.824 3.364l.003-.033a3.157 3.157 0 1 1 .659-.138 3.252 3.252 0 0 0-.035.471v.195a3.79 3.79 0 0 0 2.82-3.346v.011a3.06 3.06 0 0 1 .66.005 3.79 3.79 0 0 0 3.046 3.38c-.077-.014-.155-.028-.231-.047a3.157 3.157 0 0 1-2.169 2.804zm-4.762-3.134zm4.769-2.861a3.155 3.155 0 0 1 2.132 2.517 3.155 3.155 0 0 1-2.132-2.517zm2.404 3.241zm1.034-.325v-.003.003zm.013-.255a3.17 3.17 0 0 1-.66-.002 3.79 3.79 0 0 0-3.04-3.38c.073.014.147.028.22.047a3.157 3.157 0 0 1 6.3 0 3.79 3.79 0 0 0-2.82 3.335zM8.45 9.99zm4.494 3.547c.08-1.291.94-2.402 2.17-2.805.023-.155.035-.313.035-.47v-.159a3.157 3.157 0 0 1-2.17 3.16 3.254 3.254 0 0 0-.035.471v.18a3.186 3.186 0 0 1 0-.377zm6.302.392a3.157 3.157 0 0 1-6.3 0 3.79 3.79 0 0 0 2.836-3.714l.002.05c0 .102 0 .223-.014.332a3.058 3.058 0 0 1 .66.002 3.789 3.789 0 0 0 2.822 3.331l-.006-.001z"/></svg>