<svg xmlns="http://www.w3.org/2000/svg" width="16" height="16" viewBox="0 0 16 16">
  <path d="M4.7140149 7.199638v2.5837411h-.8224764V6.5357319l1.6980105.00169c.7212142 0 .9668973.5085581.9668973.970568v2.275403h-.8209918v-2.271146c0-.193517-.1001725-.3126816-.3418003-.3126816h-.6796407zm5.5927241-.03848c-.281121 0-.4986924.1444862-.5895626.3407352-.053847.117923-.072355.208041-.078698.352279H10.90382c-.016224-.3522791-.175997-.6928902-.597085-.6928902m-.668257 1.2527631c0 .420675.2615221.730254.72844.730254.363279 0 .54383-.100545.753879-.309703l.507998.484973c-.325269.321123-.666573.51613-1.267915.51613-.7873381 0-1.5408206-.429239-1.5408206-1.680488 0-1.0690026.6578635-1.6742575 1.5223096-1.6742575.876227 0 1.382443.7085306 1.382443 1.6366335v.296297H9.6384782m-1.5127039 1.365709c-.6700381 0-.9543267-.466354-.9543267-.926998v-3.20131h.8211905v.8849185h.6190606v.6639681h-.6190606v1.6010954c0 .188677.089088.293442.2849824.293442h.3340782v.685194h-.4859232m-4.9660424-3.69239H2.331615v-.786608h.8281181v.786608zm.00208 3.730597c-.6201458-.059582-.8310851-.435694-.8310851-.869774l.0008967-2.4120084h.8301973v3.2817954zm9.8700199-.06951c-.618871-.05958-.828811-.435198-.828811-.868782V5.1887189h.828811v4.5597942zm2.897431-4.0266853c-.751107-3.661991-7.8596099-3.8938275-12.4414861-1.1045034v.307965C8.0650019 2.5730623 14.55662 2.5869276 15.148063 5.9597467c.197874 1.1153026-.430593 2.2780724-1.552996 2.9464224v.874491c1.350965-.494283 2.736476-2.09693 2.334195-4.0587453M7.6004592 12.129002c-3.1622153.292325-6.4574679-.166581-6.91854607-2.6376869-.22568846-1.218082.32922867-2.5094001 1.06538967-3.311487V5.750961C.4220743 6.9130605-.2971602 8.3842921.11689934 10.122687c.52848835 2.229165 3.35662436 3.49243 7.67331646 3.072934 1.7079093-.166705 3.9433162-.715854 5.4974002-1.568834v-1.211751c-1.410159.839735-3.7436608 1.534078-5.687157 1.714041"/>
  <path d="M13.98989 5.4334256c0-.039721-.02346-.053376-.07708-.053376h-.05176v.114199c.0075 0 .04518.00139.05176.00139.05362 0 .07708-.017378.07708-.055858v-.00663zm.08081.282022h-.06144c-.0055 0-.01039-.00346-.01279-.00812l-.08379-.1418799c-.0015-.00287-.0087-.00632-.01158-.00632h-.03761v.1407627c0 .00752-.0051.016137-.01502.016137h-.05561c-.0069 0-.0139-.00812-.0139-.016137v-.3561272c0-.021102.008-.029791.02545-.032274.01961-.00257.07286-.00436.101662-.00436.102035 0 .163628.029791.163628.1258672v.00664c0 .059582-.02954.090614-.07522.10551l.08689.146721c.000553.00298.0026.00704.0026.010501 0 .00575-.0035.012177-.01328.012177m-.145756-.4721797c-.151053 0-.273208.1246259-.273208.2749466 0 .1503207.122267.2730847.273208.2730847.150259 0 .273606-.1228881.273606-.2730847 0-.1500725-.123384-.2749466-.273606-.2749466m0 .6046343c-.183525 0-.329911-.1479623-.329911-.3296877 0-.1813531.146398-.3298118.329911-.3298118.18154 0 .330718.1484587.330718.3298118 0 .1816013-.149166.3296877-.330718.3296877"/>
</svg>
