<svg role="img" viewBox="0 0 24 24" xmlns="http://www.w3.org/2000/svg"><title>Internet Computer</title><path d="M18.172 5.785c-1.338 0-2.803.73-4.349 2.168a19.07 19.07 0 0 0-1.84 1.994s.75.863 1.573 1.793c.448-.562 1.084-1.325 1.826-2.014C16.754 8.44 17.65 8.18 18.166 8.18c1.927 0 3.492 1.62 3.492 3.62 0 1.98-1.565 3.6-3.492 3.62-.094 0-.201-.014-.335-.04.562.26 1.171.448 1.74.448 3.532 0 4.228-2.442 4.268-2.616.1-.448.161-.917.161-1.399-.007-3.325-2.616-6.028-5.828-6.028ZM5.828 18.215c1.338 0 2.803-.73 4.349-2.168a19.07 19.07 0 0 0 1.84-1.994s-.75-.863-1.573-1.793c-.448.562-1.084 1.325-1.826 2.014-1.372 1.271-2.275 1.546-2.784 1.546-1.927 0-3.492-1.62-3.492-3.62 0-1.98 1.565-3.6 3.492-3.62.094 0 .201.014.335.04-.562-.26-1.171-.448-1.74-.448C.897 8.165.201 10.607.161 10.788c-.1.448-.161.917-.161 1.399 0 3.325 2.61 6.028 5.828 6.028zM8.517 9.98c-.388-.375-2.274-1.907-4.081-1.961-3.225-.08-4.168 2.262-4.255 2.563.622-2.623 2.924-4.584 5.653-4.597 2.228 0 4.483 2.188 6.15 4.162l.006-.007s.75.863 1.572 1.793c0 0 .937 1.104 1.927 2.074.388.375 2.268 1.887 4.075 1.94 3.312.094 4.229-2.381 4.275-2.569-.608 2.643-2.917 4.61-5.66 4.624-2.228 0-4.483-2.188-6.156-4.162 0 .007-.006.007-.006.013 0 0-.75-.863-1.573-1.793.007 0-.93-1.11-1.927-2.08zm-8.336.628c0-.006 0-.013.006-.02-.006.007-.006.014-.006.02z"/></svg>