<svg xmlns="http://www.w3.org/2000/svg" viewBox="0 0 16 16"><path d="M4.714 6.975V9.56h-.822V6.311l1.698.002c.72 0 .966.509.966.97V9.56h-.82V7.288c0-.194-.1-.313-.342-.313h-.68zm5.593-.038c-.281 0-.499.144-.59.34a.843.843 0 0 0-.079.353h1.266c-.016-.353-.176-.693-.597-.693zM9.638 8.19c0 .42.262.73.729.73.363 0 .544-.1.754-.31l.508.485c-.325.321-.667.516-1.268.516-.787 0-1.54-.429-1.54-1.68 0-1.07.657-1.674 1.521-1.674.877 0 1.383.708 1.383 1.636v.296H9.638zM8.126 9.555c-.67 0-.955-.466-.955-.927V5.427h.822v.885h.619v.664h-.62v1.6c0 .19.09.294.286.294h.334v.685h-.486zM3.16 5.863h-.828v-.787h.828v.787zm.002 3.73c-.62-.059-.831-.435-.831-.87V6.313h.83v3.282zm9.87-.069c-.619-.06-.829-.435-.829-.869v-3.69h.829v4.56zm2.897-4.026c-.75-3.662-7.86-3.894-12.441-1.105v.308c4.577-2.352 11.069-2.338 11.66 1.034.198 1.116-.43 2.278-1.553 2.947v.874c1.351-.494 2.737-2.097 2.334-4.058zM7.6 11.905c-3.162.292-6.457-.167-6.918-2.638-.226-1.218.33-2.51 1.065-3.312v-.428C.422 6.689-.297 8.16.117 9.898c.528 2.23 3.357 3.493 7.673 3.073 1.708-.166 3.944-.716 5.498-1.569v-1.211c-1.41.84-3.744 1.534-5.688 1.714z"/><path d="M13.99 5.209c0-.04-.024-.053-.077-.053h-.052v.114l.052.001c.053 0 .077-.017.077-.056V5.21zm.08.282h-.06a.015.015 0 0 1-.014-.008l-.083-.142c-.002-.003-.009-.006-.012-.006h-.038v.14c0 .008-.005.017-.015.017h-.055c-.007 0-.014-.009-.014-.017V5.12c0-.02.008-.03.025-.032a1.16 1.16 0 0 1 .102-.004c.102 0 .164.03.164.126v.006c0 .06-.03.09-.076.106l.087.146c0 .003.003.007.003.011 0 .006-.004.012-.013.012v.001zm-.145-.473a.273.273 0 1 0 .274.275.276.276 0 0 0-.274-.275zm0 .605a.33.33 0 1 1 0-.66c.181 0 .33.149.33.33 0 .182-.149.33-.33.33z"/></svg>
