<svg role="img" viewBox="0 0 24 24" xmlns="http://www.w3.org/2000/svg"><title>Internet Archive icon</title><path d="M22.61,24H1.39V22.91H22.61Zm-.8-3.18H2.23v1.51H21.81ZM21.58,3.66H2.1V5.75H21.58ZM11.84,0,1.64,2.39,2.23,3H21.46L22,2.39ZM3.71,20.21a3.44,3.44,0,0,0,1-.13c.16-1.74.25-4.9.25-6.87s-.09-5-.24-6.76a.18.18,0,0,0-.13-.15,3.56,3.56,0,0,0-.84-.1,3.69,3.69,0,0,0-.83.1.18.18,0,0,0-.13.15c-.16,1.76-.24,4.82-.24,6.76s.09,5.13.25,6.87A3.34,3.34,0,0,0,3.71,20.21Zm5.31,0a3.37,3.37,0,0,0,1-.13c.16-1.74.25-4.9.25-6.87s-.09-5-.24-6.76a.18.18,0,0,0-.13-.15A3.54,3.54,0,0,0,9,6.2a3.79,3.79,0,0,0-.84.1.18.18,0,0,0-.13.15c-.15,1.76-.24,4.82-.24,6.76s.09,5.13.25,6.87A3.36,3.36,0,0,0,9,20.21Zm6.15,0a3.37,3.37,0,0,0,1-.13c.16-1.74.25-4.9.25-6.87s-.08-5-.24-6.76A.17.17,0,0,0,16,6.3a3.54,3.54,0,0,0-.83-.1,3.62,3.62,0,0,0-.83.1.18.18,0,0,0-.14.15c-.15,1.76-.24,4.82-.24,6.76s.09,5.13.26,6.87A3.28,3.28,0,0,0,15.17,20.21Zm5.18,0a3.37,3.37,0,0,0,.95-.13c.16-1.74.25-4.9.25-6.87s-.08-5-.24-6.76a.18.18,0,0,0-.13-.15,3.54,3.54,0,0,0-.83-.1,3.79,3.79,0,0,0-.84.1.18.18,0,0,0-.13.15c-.15,1.76-.24,4.82-.24,6.76s.09,5.13.25,6.87A3.36,3.36,0,0,0,20.35,20.21Z"/></svg>