<svg viewBox="0 0 16 16" xmlns="http://www.w3.org/2000/svg" fill-rule="evenodd" clip-rule="evenodd" stroke-linejoin="round" stroke-miterlimit="1.414"><path d="M14 0H2C.895 0 0 .895 0 2v12c0 1.105.895 2 2 2h12c1.105 0 2-.895 2-2V2c0-1.105-.895-2-2-2zm-3.867 2.933c0-.294.24-.533.534-.533.294 0 .533.24.533.533v7.125c0 .295-.24.534-.533.534-.295 0-.534-.24-.534-.534V2.933zm-2.666-.27c0-.294.238-.533.533-.533.295 0 .533.24.533.533v7.734c0 .294-.238.533-.533.533-.295 0-.533-.24-.533-.533V2.663zm-2.667.27c0-.294.24-.533.533-.533.295 0 .534.24.534.533v7.125c0 .295-.24.534-.534.534-.294 0-.533-.24-.533-.534V2.933zM2.133 4c0-.295.24-.533.534-.533.294 0 .533.238.533.533v4.797c0 .294-.24.533-.533.533-.295 0-.534-.24-.534-.533V4zm11.547 8.135c-.082.07-2.058 1.728-5.68 1.728s-5.598-1.657-5.68-1.728c-.224-.192-.25-.528-.058-.752.19-.223.527-.25.75-.06.032.027 1.796 1.474 4.988 1.474 3.232 0 4.97-1.457 4.986-1.472.223-.192.56-.166.752.058.192.224.166.56-.058.752zm.187-3.338c0 .294-.24.533-.534.533-.294 0-.533-.24-.533-.533V4c0-.295.24-.533.533-.533.295 0 .534.238.534.533v4.797z" fill-rule="nonzero"/></svg>