<svg role="img" viewBox="0 0 24 24" xmlns="http://www.w3.org/2000/svg"><title>Invidious</title><path d="M12 0C5.377 0 0 5.377 0 12s5.377 12 12 12 12-5.377 12-12S18.623 0 12 0m0 .742C18.222.742 23.257 5.778 23.257 12A11.25 11.25 0 0 1 12 23.257 11.25 11.25 0 0 1 .743 12C.743 5.778 5.778.742 12 .742m-.66 4.375a.776.776 0 0 0-.777.776.776.776 0 0 0 .776.776.776.776 0 0 0 .776-.776.776.776 0 0 0-.776-.776m.034 2.265-.522 1.855-2.751 9.29h-.713v.372h1.976v-.372h-.875l2.605-8.808 4.6 9.175h1.428z"/></svg>