<svg viewBox="0 0 24 24" xmlns="http://www.w3.org/2000/svg" fill-rule="evenodd" clip-rule="evenodd" stroke-linejoin="round" stroke-miterlimit="1.414"><path d="M21.825 0H2.175C.975 0 0 .975 0 2.175v19.65C0 23.025.975 24 2.175 24h19.65c1.2 0 2.175-.975 2.175-2.175V2.175C24 .975 23.025 0 21.825 0zM4.98 15.288a4.993 4.993 0 0 0-.129 1.085c0 1.271.69 2.114 2.157 2.114 1.215 0 2.202-.72 2.91-1.885l-.432 1.74h2.415l1.38-5.535c.345-1.403 1.013-2.13 2.025-2.13.798 0 1.295.495 1.295 1.315 0 .237-.021.495-.108.776l-.711 2.544c-.106.367-.15.735-.15 1.08 0 1.206.72 2.09 2.204 2.09 1.276 0 2.296-.81 2.85-2.776l-.944-.36c-.465 1.32-.885 1.56-1.2 1.56-.315 0-.495-.21-.495-.645 0-.195.045-.405.105-.66l.69-2.475a5.23 5.23 0 0 0 .24-1.575c0-1.845-1.125-2.82-2.475-2.82-1.275 0-2.565 1.155-3.21 2.355l.48-2.16h-3.722L9.636 10.8h1.725l-1.062 4.251c-.834 1.851-2.364 1.881-2.559 1.839-.315-.072-.517-.192-.517-.603 0-.235.045-.576.15-.986l1.62-6.405h-4.1L4.375 10.8H6.08L4.98 15.291zm3.04-7.737c.799 0 1.468-.625 1.468-1.444 0-.81-.67-1.44-1.467-1.44a1.454 1.454 0 1 0 0 2.91z"/></svg>