<svg role="img" viewBox="0 0 24 24" xmlns="http://www.w3.org/2000/svg"><title>Invidious</title><path d="M0-.0002v24.0004h24V-.0002Zm12.0457 3.1874q.2054.0008.4095.011c1.213.061 2.3408.3172 3.4267.7785.3842.1631.9386.454 1.2983.6808.6632.4185 1.0483.7265 1.6162 1.2925.6213.6192 1.0373 1.1379 1.425 1.7768.3378.5568.6608 1.2726.8544 1.8936.075.2405.2082.7713.2665 1.0618.112.5586.1265.737.1268 1.5615.0003.8678-.0217 1.1443-.1367 1.723-.4372 2.1992-1.6678 4.1327-3.5096 5.5142-1.0694.8021-2.345 1.3844-3.6818 1.6808-.7835.1737-1.6603.246-2.5546.2102h-.0001c-.9278-.0369-1.815-.1994-2.6791-.4907-2.8578-.9632-5.0943-3.2145-5.953-5.9933-.3701-1.197-.4717-2.5285-.2934-3.8468.1739-1.2862.6376-2.5085 1.3754-3.6254.5657-.8566 1.3658-1.7005 2.2137-2.3351 1.6212-1.2133 3.7434-1.9022 5.7958-1.8934m-.5374 3.6855a.72.72 0 0 0-.1988.0307.55.55 0 0 0-.081.0294c-.0099.0045-.0218.0064-.0313.0114-.2804.1495-.3823.5198-.2245.816.04.0748.0972.1316.1614.1794a.56.56 0 0 0 .0768.048.6.6 0 0 0 .0836.0359.63.63 0 0 0 .1282.0293c.0153.0017.0301.0034.0458.004a.66.66 0 0 0 .1627-.0122c.0111-.0019.0212 0 .0324-.0024.0225-.0048.0436-.0173.0657-.0255l.0196-.0076a.56.56 0 0 0 .0932-.0473.6.6 0 0 0 .111-.0883.56.56 0 0 0 .0704-.0872l.0034-.0055a.56.56 0 0 0 .0599-.1225c.0055-.0157.0155-.0305.0191-.0464.0021-.009.0013-.0258.0028-.037a.6.6 0 0 0-.0027-.2312c-.0017-.0105-.0014-.0272-.0036-.0355-.0139-.052-.039-.1023-.0684-.1503a.6.6 0 0 0-.0228-.0357.6.6 0 0 0-.0362-.047.6.6 0 0 0-.0315-.0334c-.0385-.0389-.0795-.074-.1242-.0977-.0126-.0068-.0283-.0094-.0418-.0152a.5.5 0 0 0-.0573-.0208c-.0673-.021-.1383-.0354-.2119-.0354m.0696 1.8668c-.0032-.0003-.0062.0042-.0094.0045a.06.06 0 0 0-.0283.0132c-.0054.0038-.011.002-.0162.0077-.0369.0403-.1245.2972-.239.6636l-.0126.0417c-.0578.1864-.1085.3442-.1885.6198a690 690 0 0 1-.4666 1.5973 3528 3528 0 0 0-.6718 2.2914c-.0954.3258-.2249.7673-.2877.9811-.0629.214-.189.6474-.2804.9632-.2018.6974-.2877.9792-.3464 1.1368-.1002.2687-.1205.2966-.2306.3158a1.1 1.1 0 0 1-.1586.0133c-.0718 0-.1173.0113-.1505.0278a.1.1 0 0 0-.0206.012c-.0052.0042-.0155.006-.019.011-.001.0016-.001.0117-.002.0143-.0123.0232-.0157.055-.014.0975-.0035.0638-.0026.1293.0075.1452 0 0 .0022 0 .0022.0002l.0005.0062.0887.0012c.0794.0074.2677.0116 1.0026.0166l.4038.0028v-.0449a3.5 3.5 0 0 0-.0077-.1593l-.0076-.1144-.2203-.0124c-.1898-.0106-.2249-.0156-.2524-.0362-.0949-.0708-.0689-.2845.1054-.8652a146 146 0 0 0 .2577-.8794c.1012-.3488.2437-.836.3167-1.0828s.1966-.6695.2747-.9393c.0782-.2698.1695-.5813.203-.692.0334-.1109.1527-.5174.265-.9034.2319-.7972.3825-1.2995.4192-1.3974.0243-.065.0256-.0663.0467-.0447.012.0123.1804.3454.3742.7402s.6135 1.2456.9326 1.8904c.8057 1.628 1.7742 3.5896 2.0278 4.1073l.2126.4339.5325-.0042c.008 0 .0072-.0004.015-.0005h.011c.1907 0 .3521-.0055.451-.0126.0118-.001.08-.0014.0821-.0023.0068-.0028.0115-.0055.0136-.0106.0002-.0002.0036-.0004.0036-.0007l-.0045-.0095c-.0009-.0195-.0196-.0612-.0769-.1815-.05-.1052-.3817-.7782-.737-1.4955-2.2822-4.6074-2.8697-5.8058-3.1823-6.4911-.1607-.3525-.2445-.524-.3007-.628a1 1 0 0 0-.0242-.044c-.0099-.0166-.0305-.0595-.0367-.0668-.0099-.0117-.0194-.0128-.029-.019-.0057-.0044-.0114-.0088-.0168-.011-.0038-.0011-.0077-.007-.0114-.0074z"/></svg>