<svg role="img" viewBox="0 0 24 24" xmlns="http://www.w3.org/2000/svg"><title>IRFU icon</title><path d="M22.937 10.903c-.34-.49-.802-.651-.918-.818-.115-.165-.104-.653-.444-1.144-.644-.926-1.227-.601-1.717-.26-.52.361-.99 1.13-1.247 1.828-.122.32-.134.481-.196.474-.04-.004-.056-.05-.068-.198a5.201 5.201 0 0 0-.016-.259v-.012c-.057-.655-.232-1.345-.531-1.776-.342-.49-.774-.997-1.7-.354-.49.34-.65.802-.817.917l-.015.008a7.748 7.748 0 0 0-.224-.156c-.99-.662-1.83-.915-1.866-.927a9.988 9.988 0 0 0-1.428-.318 6.134 6.134 0 0 1-.127-1.12 1.91 1.91 0 0 1 .062-.53c.044-.127.076-.136.143-.063.047.063.104.145.143.218.382.705 1.64 1.7 2.648 1.806.593.061 1.26.064 1.376-1.057.063-.594-.183-1.016-.162-1.217.02-.2.348-.564.41-1.158v-.001h.002c.116-1.122-.537-1.256-1.13-1.318a2.704 2.704 0 0 0-.851.072l-.008.001a4.458 4.458 0 0 0-.169.042l-.036.01-.122.036-.055.017a5.05 5.05 0 0 0-.13.044l-.095.034-.035.014c-.111.042-.22.087-.326.136-.334.153-.44.209-.473.16-.016-.024.008-.057.06-.111a4.21 4.21 0 0 0 .276-.288l.008-.008c.35-.402.68-.918.865-1.412l.006-.015c.02-.052.037-.104.053-.155l.001-.005a.942.942 0 0 0 .02-.071l.01-.032a2.375 2.375 0 0 0 .033-.15l.01-.059.007-.048.006-.043c.063-.594.064-1.26-1.057-1.377-.593-.06-1.017.184-1.218.163-.2-.02-.563-.347-1.157-.41-1.122-.116-1.256.538-1.318 1.13l-.002.042a2.057 2.057 0 0 0 .006.393c.005.053.012.107.02.161l.008.053a3.573 3.573 0 0 0 .055.263l.009.032a5.123 5.123 0 0 0 .547 1.318c.125.212.201.3.163.336-.03.028-.076.01-.195-.077l-.01-.007a5.39 5.39 0 0 0-.196-.15l-.005-.004-.005-.004-.007-.004c-.531-.383-1.167-.699-1.687-.753-.594-.062-1.26-.065-1.378 1.057-.061.593.183 1.016.162 1.217-.02.2-.347.564-.409 1.158-.062.596.094.913.343 1.089.219.156.511.201.79.23l.003-.001c1.025.103 2.598-.554 3.032-1.079.17-.204.236-.288.302-.288.128 0 .107.158.107.265 0 .387.05.958.102 1.454a7.982 7.982 0 0 0-.622-.025c-1.136 0-1.828.254-1.975.315a9.096 9.096 0 0 0-.725.293.374.374 0 0 1-.092-.015c-.192-.064-.476-.462-1.041-.65-1.07-.358-1.343.251-1.531.817-.17.506-.139 1.225-.001 1.87h-.001c.078.36.11.475.054.497-.026.01-.054-.02-.095-.082a4.136 4.136 0 0 0-.228-.342c-.443-.602-1.115-1.216-1.723-1.419-.566-.19-1.216-.336-1.572.733-.19.566-.042 1.032-.106 1.224-.064.191-.461.475-.65 1.04-.357 1.07.252 1.344.818 1.532.6.2 1.493.117 2.207-.094.334-.094.47-.182.501-.128.02.035-.007.075-.117.173a5.378 5.378 0 0 0-.203.171l-.005.005c-.49.437-.939.99-1.105 1.488-.189.567-.336 1.216.733 1.574.567.188 1.032.041 1.224.105.191.063.475.462 1.041.65 1.07.357 1.343-.251 1.532-.817.288-.866-.013-2.34-.433-3.004.595.49.755.595 1.051.78.05.03.84.533.84.533s4.482 3.218.964 8.838l-.016.025c-.007.018-.009.034-.002.046.007.013.022.02.042.023h3.782s.058-.003.04-.07c-.016-.066-1.677-6.247.943-7.556 1.172-.207 1.842-.726 1.976-.839.32-.24.537-.479.68-.716l.007-.012c-.052.79.112 1.84.522 2.43.34.489.773.996 1.698.353.491-.34.65-.803.817-.918.166-.115.654-.104 1.144-.444.926-.644.602-1.227.262-1.716-.305-.438-.9-.845-1.499-1.121l-.016-.008-.012-.005c-.311-.142-.417-.185-.402-.241.008-.027.05-.03.126-.027.124.013.256.02.393.022h.014c.748.005 1.642-.165 2.168-.53.492-.34.998-.774.355-1.7zM11.73 21.997c-.074.12-.08.155-.107.149-.022-.005-.002-.036.016-.15-.055.348.781-4.13-1.061-6.107 0 0-.056-.082.053-.066.02.003.045.016.076.027.789.285 1.55.429 1.588.436 0 0 .315.214.34 1.309.058 2.563-.647 3.981-.905 4.402zm4.227-7.05c-.663.439-1.618.802-3.112.643-1.565-.166-3.457-.778-5.291-2.386-.365-.32-1.01-1.25-.696-2.35.106-.373.728-.534 1.193-.547 1.027-.031 1.845.116 2.598.302.007.142.042.264.04.358a.514.514 0 0 1 0 .035v.006c.004.06.05.11.11.12h.011l.003.001h.009a.13.13 0 0 0 .02-.001h.003l.003-.001h.003l.001-.001h.004l.003-.002a.132.132 0 0 0 .096-.126 1.02 1.02 0 0 1 .068-.287l.008-.02c.147.033.296.069.448.108a.621.621 0 0 0-.008.098c.002.158.044.291.042.394v.025a.132.132 0 0 0 .263.01v-.012c.005-.087.033-.18.068-.28a.616.616 0 0 1 .058-.119c.13.038.26.078.392.121a.58.58 0 0 0-.025.168c.002.157.044.292.042.395v.024a.133.133 0 0 0 .012.06l.001.003v.001l.001.002.001.002c.01.018.023.032.039.044l.002.001a.131.131 0 0 0 .134.01l.003-.001.002-.001h.001l.001-.002h.002v-.001l.003-.001a.135.135 0 0 0 .037-.035l.001-.003.002-.002.002-.002v-.001l.001-.002v-.001l.002-.003a.13.13 0 0 0 .017-.058v-.006c.004-.09.032-.186.067-.286a.734.734 0 0 1 .083-.157c1.291.457 2.567 1.153 3.633 2.214.442.478.223 1.136-.399 1.548zm.859-1.561c-.075.003-.212-.058-.478-.32-1.022-1.002-2.225-1.67-3.4-2.117a.223.223 0 0 0 .035-.18.153.153 0 0 0-.13-.118.128.128 0 0 0-.056-.003s-.158.037-.177.06a.682.682 0 0 0-.137.075c-.119-.04-.237-.077-.355-.113a.224.224 0 0 0 .058-.206.155.155 0 0 0-.127-.119.13.13 0 0 0-.06-.004s-.158.038-.178.06a.617.617 0 0 0-.196.127 11.84 11.84 0 0 0-.415-.1l.044-.035a.371.371 0 0 0 .071-.07.224.224 0 0 0 .04-.184.154.154 0 0 0-.128-.118.131.131 0 0 0-.06-.004s-.158.038-.177.06a.555.555 0 0 0-.274.227l-.01.02c-1.224-.235-2.005-.275-2.44-.276-.152 0-.227.013-.4.025-.085.007-.247.036-.333.036a.396.396 0 0 1-.265-.083c-.024-.02-.063-.047-.063-.109-.002-.108.092-.244.251-.376.237-.198.602-.386.906-.522.304-.136.546-.221.547-.221l.002-.001.002-.001s.035-.016.108-.04c.217-.076.76-.228 1.58-.228.605 0 1.362.083 2.25.342 0 0 .183.053.476.178.879.375 2.725 1.39 3.447 3.497 0 0 .034.103.07.237.034.133.067.298.067.414 0 .108-.048.188-.095.19Z"/></svg>