<svg role="img" xmlns="http://www.w3.org/2000/svg" viewBox="0 0 24 24"><title>iron</title><path d="m 13.625803,10.016108 2.842255,-0.4320235 0.159166,-1.432496 H 7.3955802 l 0.1591663,1.432496 2.8422545,0.4320235 c 0.181905,0.02274 0.295595,0.181904 0.295595,0.34107 v 3.319754 c 0,0.181904 -0.136428,0.318333 -0.295595,0.341071 L 7.5547465,14.450025 7.3955802,15.882522 H 16.604486 L 16.44532,14.450025 13.603065,14.018003 C 13.42116,13.995265 13.30747,13.836098 13.30747,13.676932 v -3.319754 c 0.02274,-0.181904 0.136428,-0.318332 0.318333,-0.34107 z M 21.766021,5.3775475 12.875447,0.23875053 c -0.545712,-0.318332 -1.205116,-0.318332 -1.750828,0 L 2.2340455,5.3775475 C 1.7110706,5.6958805 1.37,6.2643315 1.37,6.8782585 V 17.133114 c 0,0.613927 0.3410706,1.205116 0.8640455,1.500708 l 8.8905735,5.1388 c 0.272856,0.15917 0.56845,0.22738 0.864045,0.22738 0.295594,0 0.613927,-0.0909 0.864045,-0.22738 l 8.913312,-5.11606 c 0.545712,-0.318332 0.864045,-0.886783 0.864045,-1.50071 V 6.8782585 c 0,-0.613927 -0.318333,-1.182378 -0.864045,-1.500711 z M 16.809128,13.81336 c 0.159166,0.02274 0.272857,0.159167 0.295595,0.295595 l 0.22738,2.091899 c 0,0.09095 -0.02274,0.204643 -0.09095,0.272857 -0.06821,0.06821 -0.159166,0.11369 -0.250119,0.11369 H 7.0090336 c -0.090952,0 -0.1819044,-0.04548 -0.2501185,-0.11369 -0.068214,-0.06821 -0.090952,-0.181905 -0.090952,-0.272857 L 6.8953435,14.108955 C 6.9180815,13.949789 7.0317717,13.836098 7.190938,13.81336 L 9.9877166,13.404076 V 10.675511 L 7.1909379,10.243488 C 7.0317716,10.22075 6.9180814,10.084322 6.8953434,9.9478935 l -0.2273804,-2.0919 c 0,-0.09095 0.022738,-0.204642 0.090952,-0.272856 0.068214,-0.06821 0.1591663,-0.11369 0.2501185,-0.11369 h 9.9819985 c 0.09095,0 0.181905,0.04548 0.250119,0.11369 0.06821,0.06821 0.09095,0.181904 0.09095,0.272856 l -0.22738,2.0919 C 17.081981,10.10706 16.968292,10.22075 16.809126,10.243488 l -2.796779,0.409285 v 2.728565 z"/></svg>