<svg role="img" viewBox="0 0 24 24" xmlns="http://www.w3.org/2000/svg"><title>ISRO</title><path d="M8.8342 13.0152c-.0426.0012-.0863.005-.1311.0087l-.245.5866c.691-.1249.986.0679 1.2467.779H0v.5076h2.3379v.2891s-.9286-.3677-1.7163.3411C0 16.2451.5251 16.9458.5251 16.9458s.508-.2802 1.3134-.149c.753.1313.7181.4901.7181.4901s-.105.4466-.7092.359c-.604-.0964-.5603-.7-.5603-.7l-.6654.4461s.2528.4304.8222.568l.5086.763h.7531l-.5809-.7506a2.0491 2.0491 0 0 0 .2041-.0463c1.4622-.3852.9456-1.4883-.1398-1.777-.7534-.1927-1.5673.1749-1.5673.1749s.1047-.928 1.4532-.7088c.753.1309 1.0245.4376 1.0245.4376V14.897h1.5093l-.6336.2978s.324.359.4377.8314c.0965.4904-.1138.578-.245.5866-.0876-.0609-.499-.6474-.499-.6474l-.2892.2536 1.042 1.6372h.7354s-.674-.8143-.7791-.9632c.1727-.0062.4105-.061.5668-.2722.1091.0568.2417.1031.3964.1147.4638.0438.753-.1837.753-.1837v1.3045h.7615V14.897h1.648l-.641.2977s.3414.3591.438.8315c.096.4904-.105.578-.2454.5865-.0699-.0608-.499-.6474-.499-.6474l-.289.2536 1.0333 1.6373h.744s-.6564-.8143-.7615-.9632c.2364-.0088.6303-.1223.7002-.6827.1021-.7433-.2297-1.1847-.3448-1.3133h.9051v2.9587h.762V14.897h.4029v-.5076h-.5559c-.3145-1.1008-.6989-1.397-1.3183-1.3745zm-4.091 1.882H6.094v.8581s0 .2365-.4643.464c-.1958.1065-.3966.1478-.5689.1592a1.0817 1.0817 0 0 0 .0348-.1679c.1021-.7433-.2355-1.1847-.3526-1.3133zm1.193-.9802L12.5818.4451l-.0437 23.1096-1.8299-15.371-4.7721 5.7331m7.9505-.569c-.1051 0-.2013.044-.2888.123-.0704.07-.1227.1835-.1227.2972 0 .1141.0523.2102.1227.2978.0875.0698.1837.1226.2888.1226.1228 0 .2364-.0528.3064-.1226.0875-.0875.1226-.1837.1226-.2978 0-.1136-.0351-.2273-.1226-.2973-.07-.0788-.1837-.1228-.3064-.1228zm-.762 1.0595v.499h2.9509c-.4028.0874-.7615.28-1.0245.5512-.1399.1402-.2713.3591-.394.6393-.0527.1222-.0965.245-.1488.3849.8581.0087 1.3923.0437 1.6287.1312.1574.0614.2978.1488.4467.254.1836.1398.28.2716.3062.4029h-1.7337l-.5865.5865h2.0315c.595-.4466.8841-.8144.8841-1.1121 0-.1313-.0612-.2535-.1663-.3586-.2364-.2364-.5518-.3854-.9456-.4553-.2013-.0351-.5604-.0614-1.0684-.0614a3.1117 3.1117 0 0 0 .2103-.3325c.1052-.1313.2012-.1926.3153-.1926.2626 0 .7092.175 1.3043.5165l.5955-.604c-.2274-.14-.4637-.2626-.683-.35H24v-.499h-9.6843zm.403.9014v2.5476h.7267v-2.5476zm4.5442 0v2.5476h.7354V16.123c.1926-.079.3852-.1313.5869-.1313.2012 0 .3592.0615.4814.1576.149.1574.2102.4028.184.7353l.6217-.604c.0176-.315-.0613-.5604-.2188-.7179-.1317-.1228-.2891-.1926-.4903-.1926-.1927 0-.4115.0614-.6393.1926-.2103.0961-.3853.2364-.5256.3763v-.6302zm2.9856 0v1.8997s.0177.3678.263.5514c.1661.1051.4025.0965.4025.0965h1.9877v-1.8647c0-.184-.0614-.3416-.1665-.4729-.0961-.1398-.2273-.21-.3852-.21zm1.7936.6697c.19-.0038.1766.0469.1766.3457v.8491H21.881s-.114.0088-.1402-.0261c-.0348-.0438-.0177-.0961-.0177-.3502v-.8142h1.0336a1.3856 1.3856 0 0 1 .0945-.0038zM5.4634 3.9117l-.5342 1.0856 1.8478.4113.5253-1.0768zm2.2416.5167-.5256 1.0854 1.848.42.516-1.0769zm5.9975 1.3828-.5164 1.0854 1.8478.429.525-1.0854zm2.2504.5256-.5252 1.085 1.8561.4204.5165-1.0769z"/></svg>