<svg role="img" viewBox="0 0 24 24" xmlns="http://www.w3.org/2000/svg"><title>ISRO</title><path d="M12.5293.5067 5.9449 13.856l4.7616-5.7348 1.8261 15.372ZM5.4597 3.8449l-.528 1.085 1.8526.4203.5185-1.0755zm2.243.528L7.178 5.4547l1.8526.4203.5146-1.0755zm6.0003 1.3772-.518 1.0822 1.8499.423.5213-1.0754zm2.2435.528-.5151 1.079 1.8493.423.5213-1.0755zm-7.0452 6.6765a2.1418 2.1418 0 0 0-.1954.0096l-.2395.58c.6854-.1159.9826.077 1.2392.7908H.0034L0 14.8366h2.3446v.2819s-.928-.3607-1.7216.3507c-.6196.715-.1017 1.4138-.1017 1.4138s.518-.289 1.3246-.1514c.7507.1346.7117.492.7117.492s-.1015.4428-.705.3576c-.6065-.0918-.5608-.6982-.5608-.6982l-.6688.4423s.2584.4352.8315.5756l.4902.7591h.7637l-.5773-.7439a2.1576 2.1576 0 0 0 .1972-.043c1.459-.3901.948-1.4992-.1345-1.7876-.7507-.1967-1.5708.1706-1.5708.1706s.1114-.9248 1.4494-.705c.7639.1346 1.0297.436 1.0297.436v-1.1505h1.5047l-.6292.2949s.3312.364.436.8297c.1019.4886-.1082.584-.2462.5937-.0752-.0656-.4948-.6462-.4948-.6462l-.2988.2559 1.0528 1.6363h.7281s-.6624-.8261-.7738-.9642c.1672-.0132.4007-.0682.5592-.2722.108.056.2399.1018.3948.1146.4754.0359.7608-.1932.7608-.1932v1.315h.7609v-2.9643H8.502l-.6287.2949s.3312.364.436.8297c.0984.4886-.1113.584-.2524.5937-.0687-.0656-.4954-.6462-.4954-.6462l-.292.2559 1.0398 1.6329h.7343s-.6587-.8227-.7636-.9608c.2425-.0197.6324-.1313.7111-.692.0966-.7273-.2259-1.171-.3462-1.308h.9009v2.9608h.7636v-2.9609h.3966v-.5016h-.5536c-.301-1.0756-.6648-1.3793-1.2511-1.3804Zm4.992.331c-.1145 0-.2097.0428-.2914.1214-.0756.0752-.1215.1802-.1215.3016 0 .1084.046.2128.1215.2915.0817.0787.177.1248.2914.1248.125 0 .226-.0461.3017-.1248.0817-.0787.1282-.1831.1282-.2915 0-.1214-.0465-.2264-.1282-.3016-.0756-.0786-.1767-.1214-.3017-.1214zm-.7704 1.059v.4954h1.42v-.0006h1.5347c-.41.0953-.7541.2821-1.0263.561-.1377.1441-.2695.3543-.3875.6427-.0525.115-.0982.2396-.144.3807.8494.0031 1.3867.046 1.6165.1277.1604.0655.3082.1476.4558.2524.1836.1346.2785.2688.3017.4033h-1.7313l-.5902.5937h2.0294c.5935-.4558.8823-.8231.8823-1.115 0-.1346-.0586-.2523-.1604-.3638-.2329-.2294-.548-.384-.9382-.453-.2067-.0328-.5704-.0553-1.0817-.0553a7.5038 7.5038 0 0 0 .2164-.335c.1014-.131.2067-.1931.305-.1931.2722 0 .7084.1671 1.315.505l.5964-.6a5.6665 5.6665 0 0 0-.6818-.3513h.6722v.0006H24v-.4954h-9.4571Zm-8.3737.492h1.3465v.8654s.0034.2297-.4558.4626c-.2002.1038-.403.1448-.5761.157a1.078 1.078 0 0 0 .0384-.1768c.0941-.7279-.232-1.1714-.353-1.3082zm8.7742.4067v2.5508h.7309v-2.5508zm4.5509.0028v2.5514h.7348v-1.738c.1967-.0852.3902-.1249.5869-.1249.2067 0 .364.0497.479.1576.1473.1574.2125.3968.1898.7315l.6134-.6032c.0197-.315-.0494-.5581-.2163-.7185-.128-.125-.2889-.1966-.4886-.1966-.1936 0-.4068.0652-.6428.1932-.2067.1049-.3806.2294-.5214.3801v-.6326zm2.9908.0006v1.8984s.0131.3734.2491.5473c.1739.1146.4067.105.4067.105h1.9837v-1.8656c0-.1835-.0522-.3478-.1474-.4823-.1014-.1346-.2364-.2028-.3937-.2028zm1.7894.6642c.1882.0023.1678.0486.1678.3553v.849l-1.141-.0034s-.1081.0137-.1378-.026c-.0359-.0459-.0198-.0983-.0198-.3474v-.8263h1.0365a2.675 2.675 0 0 1 .0943-.0011z"/></svg>