<svg role="img" viewBox="0 0 24 24" xmlns="http://www.w3.org/2000/svg"><title>Itch.io icon</title><path d="M3.1287 1.3404C2.0818 1.9624.02 4.3312 0 4.9521v1.029c0 1.3038 1.2189 2.4497 2.3248 2.4497 1.3289 0 2.4358-1.1009 2.4358-2.4078 0 1.307 1.069 2.4078 2.3978 2.4078 1.3289 0 2.3638-1.1009 2.3638-2.4078 0 1.307 1.137 2.4078 2.4658 2.4078h.024c1.3289 0 2.4658-1.1009 2.4658-2.4078 0 1.307 1.035 2.4078 2.3638 2.4078 1.3289 0 2.3978-1.1009 2.3978-2.4078 0 1.307 1.107 2.4078 2.4358 2.4078C22.7821 8.4308 24 7.285 24 5.981V4.9521c-.02-.621-2.0818-2.9907-3.1287-3.6117-3.2538-.114-5.5096-.134-8.8703-.133-3.3607.001-7.9443.053-8.8703.133zM9.5052 7.817c-.133.23-.288.428-.467.601l-.001.001c-.502.4899-1.1889.7938-1.9468.7938h-.003a2.775 2.775 0 01-1.9488-.7949c-.182-.178-.32-.368-.446-.59h-.001c-.126.222-.302.412-.485.59a2.7784 2.7784 0 01-1.9488.794h-.003c-.091 0-.186-.025-.263-.052-.107 1.1119-.152 2.1748-.168 2.9497v.004c-.002.394-.004.717-.006 1.167.021 2.3337-.231 7.5633 1.029 8.8482 1.9528.455 5.5455.663 9.1502.664h.001c3.6047-.001 7.1974-.209 9.1502-.664 1.26-1.285 1.008-6.5155 1.029-8.8483-.002-.45-.004-.773-.006-1.1669v-.004c-.016-.775-.061-1.8378-.168-2.9497-.077.026-.172.052-.263.052h-.002a2.775 2.775 0 01-1.9488-.795h.001c-.182-.178-.358-.368-.485-.59h-.001c-.127.222-.265.412-.446.59-.502.491-1.1899.795-1.9478.795h-.003c-.758 0-1.4449-.304-1.9468-.795a2.777 2.777 0 01-.461-.589l-.007-.013c-.132.23-.286.428-.463.602-.502.491-1.1899.795-1.9488.795h-.003c-.026 0-.053-.001-.079-.002h-.001c-.026.001-.053.002-.08.002h-.003a2.775 2.775 0 01-1.9488-.795h.001a2.723 2.723 0 01-.456-.589l-.007-.013zm-2.0038 2.5907v.001h.001c.794.002 1.4979 0 2.3718.953.687-.072 1.4059-.108 2.1248-.107H12c.719-.001 1.4369.035 2.1248.107.873-.953 1.5779-.952 2.3718-.953h.001v-.001c.375 0 1.8749 0 2.9198 2.9348l1.1219 4.0257c.832 2.9947-.266 3.0687-1.6359 3.0707-2.0308-.076-3.1557-1.5509-3.1557-3.0257-1.124.184-2.4358.276-3.7477.276h-.001c-1.3119 0-2.6238-.092-3.7477-.276 0 1.4748-1.1249 2.9497-3.1557 3.0257-1.37-.003-2.4678-.076-1.6359-3.0707l1.123-4.0257c1.0448-2.9347 2.5447-2.9347 2.9197-2.9347zm4.4976 2.3069v.001c-.002.002-2.1378 1.9638-2.5228 2.6617l1.3989-.056v1.22c0 .057.561.034 1.1229.008h.001c.562.026 1.123.049 1.123-.008v-1.22l1.3988.056c-.384-.698-2.5228-2.6617-2.5228-2.6617v-.001z"/></svg>