<svg role="img" viewBox="0 0 24 24" xmlns="http://www.w3.org/2000/svg"><title>iTerm2</title><path d="m21.652 17.618c0 1.382-.214 2.451-.898 3.136-.685.684-1.754.898-3.136.898h-11.236c-1.382 0-2.451-.214-3.136-.898-.684-.685-.898-1.754-.898-3.136v-11.236c0-1.576.205-2.398.852-3.088.679-.723 1.599-.946 3.182-.946h11.236c1.583 0 2.503.223 3.182.946.647.69.852 1.512.852 3.088zm-1.265 2.769c.602-.601.747-1.553.747-2.766 0-.004 0-11.234 0-11.239 0-1.389-.141-2.126-.712-2.733-.595-.635-1.415-.783-2.804-.783h-11.236c-1.389 0-2.209.148-2.804.783-.571.607-.712 1.344-.712 2.733v11.236c0 1.215.144 2.167.747 2.769.602.603 1.554.747 2.769.747h11.236c1.215 0 2.167-.144 2.769-.747zm3.613-2.769c0 2.422-.493 3.635-1.488 4.695-1.06 1.128-2.425 1.687-4.894 1.687h-11.236c-2.469 0-3.834-.559-4.894-1.687-.995-1.06-1.488-2.273-1.488-4.695v-11.236c0-2.422.493-3.635 1.488-4.695 1.06-1.128 2.425-1.687 4.894-1.687h11.236c2.469 0 3.834.559 4.894 1.687.995 1.06 1.488 2.273 1.488 4.695zm-21.904-15.365c-.857.912-1.164 1.813-1.164 4.129v11.236c0 2.392.334 3.294 1.245 4.205s1.784 1.245 4.205 1.245h11.236c2.421 0 3.294-.334 4.205-1.245s1.245-1.813 1.245-4.205v-11.236c0-2.316-.307-3.217-1.164-4.129-.908-.967-2.003-1.321-4.286-1.321h-11.236c-2.283 0-3.378.354-4.286 1.321zm3.07 5.885c-.135-.011-.286-.06-.559-.175-.091-.039-.526-.305-.56-.324l.339-.524s.419.322.942.393c.577.079.9-.478.468-.666-.749-.327-.948-.448-1.117-.537-.394-.207-.651-.804-.263-1.317.224-.296.606-.368.75-.391v-.749h.573l.004.756s.199.009.546.197c.179.097.354.286.379.297l-.389.408c-.034-.016-.243-.308-.796-.324-.415-.012-.546.189-.545.311.002.356.424.427.7.521.643.218.924.502 1.016.671.097.179.176.658-.128.993-.267.293-.626.407-.787.437v.849h-.573zm2.697-4.29h2.587v5.174h-2.587z"/></svg>