<svg role="img" viewBox="0 0 24 24" xmlns="http://www.w3.org/2000/svg"><title>iTerm2</title><path d="M5.214 0A5.202 5.202 0 0 0 0 5.214v13.572A5.202 5.202 0 0 0 5.214 24h13.572A5.202 5.202 0 0 0 24 18.786V5.214A5.202 5.202 0 0 0 18.786 0zm-.036.635h13.644a4.534 4.534 0 0 1 4.543 4.543v13.644a4.534 4.534 0 0 1-4.543 4.543H5.178a4.534 4.534 0 0 1-4.543-4.543V5.178A4.534 4.534 0 0 1 5.178.635zm-.017 1.788a2.732 2.732 0 0 0-2.738 2.738v13.678a2.732 2.732 0 0 0 2.738 2.738h13.678a2.732 2.732 0 0 0 2.738-2.738V5.161a2.732 2.732 0 0 0-2.738-2.738zm-.08 1.27h.522v.816a2.725 2.725 0 0 1 .796.207c.06.023.102.04.127.052l-.255.472a2.224 2.224 0 0 0-.146-.058 2.556 2.556 0 0 0-.204-.08 2.038 2.038 0 0 0-.248-.07 1.265 1.265 0 0 0-.267-.028.904.904 0 0 0-.388.08.263.263 0 0 0-.165.26c0 .077.014.146.044.207a.54.54 0 0 0 .14.156c.064.046.14.09.229.132.093.038.2.077.318.115.157.058.297.117.42.179.123.061.227.13.312.207a.752.752 0 0 1 .19.265c.048.1.07.217.07.351a.903.903 0 0 1-.063.334.872.872 0 0 1-.184.3c-.08.092-.183.173-.306.242a1.419 1.419 0 0 1-.42.144v.851h-.521v-.828A2.8 2.8 0 0 1 4.7 7.94a4.278 4.278 0 0 1-.567-.196 4.159 4.159 0 0 1-.152-.08l.273-.507c.03.02.08.046.153.08.072.035.153.071.242.11.093.034.189.065.286.092.098.027.189.04.274.04.424 0 .636-.159.636-.478a.367.367 0 0 0-.044-.19.324.324 0 0 0-.121-.126.704.704 0 0 0-.191-.098 3.15 3.15 0 0 0-.248-.092 4.98 4.98 0 0 1-.478-.19 1.734 1.734 0 0 1-.35-.23.875.875 0 0 1-.222-.289.852.852 0 0 1-.077-.368c0-.108.024-.212.07-.311a.828.828 0 0 1 .198-.265c.085-.081.186-.148.305-.202a1.36 1.36 0 0 1 .395-.12zm2.707 0h2.597v5.192H7.788z"/></svg>