<svg role="img" viewBox="0 0 24 24" xmlns="http://www.w3.org/2000/svg"><title>iTerm2</title><path d="m21.32 18.524c0 1.543-1.253 2.796-2.796 2.796h-13.048c-1.543 0-2.796-1.253-2.796-2.796v-13.048c0-1.543 1.253-2.796 2.796-2.796h13.048c1.543 0 2.796 1.253 2.796 2.796zm2.68.117c0 2.958-2.401 5.359-5.359 5.359h-13.282c-2.958 0-5.359-2.401-5.359-5.359v-13.282c0-2.958 2.401-5.359 5.359-5.359h13.282c2.958 0 5.359 2.401 5.359 5.359zm-.932-13.515c0-2.315-1.879-4.194-4.194-4.194h-13.748c-2.315 0-4.194 1.879-4.194 4.194v13.748c0 2.315 1.879 4.194 4.194 4.194h13.748c2.315 0 4.194-1.879 4.194-4.194zm-15.262 3.845h2.563v-5.126h-2.563zm-1.27-3.876c-.123-.124-.261-.227-.412-.311-.147-.083-.326-.137-.537-.161v-.776h-.478v.782c-.299.04-.536.141-.711.304-.175.164-.262.375-.262.633 0 .179.043.329.131.448.092.116.205.215.34.299.136.083.281.155.436.215.155.055.301.113.436.173.135.055.247.117.334.185.092.068.138.153.138.257 0 .119-.05.215-.149.286-.096.072-.239.108-.43.108-.207 0-.398-.036-.574-.108-.175-.071-.348-.165-.519-.28l-.311.471c.148.124.323.229.526.317.203.083.408.135.615.155v.866h.478v-.878c.326-.048.579-.159.758-.334.183-.179.275-.396.275-.651 0-.183-.046-.335-.138-.454-.087-.123-.199-.227-.334-.31-.136-.084-.283-.154-.442-.209-.155-.06-.301-.116-.436-.168-.135-.055-.249-.113-.34-.173-.088-.059-.132-.135-.132-.227 0-.119.046-.213.138-.28.095-.068.227-.102.394-.102.183 0 .336.028.46.084.127.056.26.135.4.239z"/></svg>