<svg role="img" viewBox="0 0 50 50" xmlns="http://www.w3.org/2000/svg"><title>Itunes icon</title><path d="M 25 2 C 12.309295 2 2 12.309295 2 25 C 2 37.690705 12.309295 48 25 48 C 37.690705 48 48 37.690705 48 25 C 48 12.309295 37.690705 2 25 2 z M 25 4 C 36.609824 4 46 13.390176 46 25 C 46 36.609824 36.609824 46 25 46 C 13.390176 46 4 36.609824 4 25 C 4 13.390176 13.390176 4 25 4 z M 34.052734 12 C 33.978729 11.996242 33.902797 12.002125 33.826172 12.015625 L 20.130859 14.609375 C 19.476859 14.724375 19 15.291078 19 15.955078 L 19 29.222656 C 19 29.679656 18.689094 30.078406 18.246094 30.191406 L 14.800781 31.070312 L 14.509766 31.140625 C 13.199766 31.530625 12.209297 32.660781 12.029297 34.050781 C 11.986297 34.374781 11.989063 34.698438 12.039062 35.023438 C 12.312062 36.786438 13.980625 38 15.765625 38 L 15.865234 38 C 18.700234 38 21 35.700234 21 32.865234 L 21 22.328125 C 21 21.652125 21.485391 21.074031 22.150391 20.957031 L 31.826172 19.074219 C 32.439172 18.966219 33 19.436594 33 20.058594 L 33 26.222656 C 33 26.679656 32.689094 27.078406 32.246094 27.191406 L 28.800781 28.070312 L 28.509766 28.140625 C 27.199766 28.530625 26.209297 29.660781 26.029297 31.050781 C 25.986297 31.374781 25.989063 31.698437 26.039062 32.023438 C 26.312062 33.786437 27.980625 35 29.765625 35 L 29.865234 35 C 32.700234 35 35 32.700234 35 29.865234 L 35 13 C 35 12.45575 34.570775 12.026305 34.052734 12 z"/></svg>
