<svg aria-labelledby="simpleicons-jabber-icon" role="img" viewBox="0 0 24 24" xmlns="http://www.w3.org/2000/svg"><title id="simpleicons-jabber-icon">Jabber icon</title><path d="M9.6 11.7c0-.3-.1-.7-.3-1-.4-.6-1.3-.8-1.9-.4-.3.2-.5.5-.6.9-.2.7-.1 1.4 0 2.1 0 .2.1.4.1.6 0 .1 0 .2.1.2.1.1.3.1.4.1.4-.1.3-.7.3-1 0-.6-.2-1.3 0-1.9.1-.3.2-.6.5-.7.2-.1.5 0 .6.3.2.5.2.9.3 1.3 0 .1.1.3.1.4 0 0 0 .1.1.1s.3-.2.4-.3c.3-.3.6-.5 1-.7.2-.1.4-.2.6-.1l.1.1c.2.3 0 .6-.1.8-.2.4-.3.8-.6 1.1-.2.3-.5.5-.7.9-.1.2-.2.4-.1.7 0 .2.2.3.4.3.1 0 .2-.2.3-.3.1-.2.3-.4.4-.6.3-.4.6-.8.8-1.2.3-.5.4-1.1.4-1.7 0-.5-.2-1.2-.7-1.3h-.3c-.1 0-.3.1-.4.1-.3.2-.6.4-.8.6-.1.3-.2.5-.4.6"/><path d="M9.1 0c-.5.1-.9.1-1.3.1-.9.2-1.7.4-2.5.7-.2.2-.5.3-.8.4-.1 0-.3.1-.3.2v.7C4 2.7 4 3.3 4 3.9c0 .2.1.5.3.6.4 0 .7-.4.9-.7.4-.6.9-1.1 1.6-1.4.8-.3 1.8-.4 2.6-.4 2.4-.2 5.1.3 6.9 2.1.3.3.5.5.7.8.8 1.2 1.2 2.5 1.4 3.9.1.6.2 1.3 0 2-.3 1.1-.9 2.1-1.7 2.9-.5.6-1.1 1.1-1.7 1.6-.3.3-.7.5-1.1.8-.4.3-.7.7-.9 1.2-.6 1.2-.8 2.6-.6 3.9 0 .3.1.5.1.8 0 .1 0 .2.1.3.1.1.4.2.5.2.2 0 .3-.1.3-.2.1-.2 0-.5 0-.7-.1-.5-.1-1-.1-1.5 0-.9.4-1.8 1-2.4.6-.7 1.5-1.1 2.2-1.6 1.5-1.1 2.8-2.7 3.3-4.5.2-.7.2-1.3.2-2-.1-.8-.4-1.7-.7-2.5-.9-2.4-2.4-4.8-4.9-5.9-1-.4-2-.6-3-.8-.5-.3-1-.4-1.5-.4h-.8"/><path d="M5.3 15.8c-.5.1-.6.4-.5.9.1.5.5 1 1 1.3 1.1.8 2.5 1.3 3.9 1.2.5 0 1.1-.1 1.6-.3.3-.1.5-.6.2-.8 0 0-.1 0-.2-.1-.2 0-.3 0-.5.1-.3.1-.5.2-.8.2-.8.1-1.7-.1-2.4-.5-.5-.4-1-.9-1.4-1.4-.2-.3-.5-.7-.9-.6"/><path d="M4.7 18.5c-.1 0-.3 0-.4.1-.2.2 0 .5.1.6.3.4.8.8 1.2 1.1 1.2.9 2.6 1.3 4 1.4.4 0 .9 0 1.3-.1.2 0 .3 0 .5-.1.4-.2.3-.9-.1-1.1-.2-.1-.4 0-.6 0-.4.1-.8.1-1.2 0-1 0-2.1-.3-3-.8-.3-.2-.7-.4-1-.7-.2-.2-.4-.4-.6-.5.1 0-.1.1-.2.1"/><path d="M4.9 20.7c-.2 0-.3.1-.4.2-.1.1-.2.2-.2.3-.2.6.4 1.2.9 1.5.5.3 1.1.6 1.6.8 1.3.5 2.8.7 4.1.3.4-.1.8-.3 1.1-.6.2-.2.3-.4 0-.5-.2-.1-.4.1-.5.2-.4.2-.8.3-1.2.3-.5.1-1-.1-1.5-.2-.4-.1-.9-.2-1.3-.4-.4-.1-.7-.3-1-.5-.1-.1-.2-.1-.3-.2-.3-.3-.4-.6-.7-.9-.3-.1-.4-.3-.6-.3"/></svg>