<svg role="img" viewBox="0 0 24 24" xmlns="http://www.w3.org/2000/svg"><title>Jaguar</title><path d="M21.9475 10.8688c.232-.2303.5633-.3537.9213-.3537.4547 0 .882.2175 1.1312.6063l-.3844.2603c-.1944-.256-.4428-.3999-.7536-.3999-.2175 0-.423.0668-.5712.2175-.1387.1405-.2294.3571-.2294.6723v1.5507h-.4744V11.809c0-.4161.1386-.7201.3612-.9402m-3.4937 2.1494c.5558 0 1.007-.435 1.007-1.0182 0-.5832-.4512-1.0182-1.007-1.0182-.5558 0-1.0104.435-1.0104 1.0182 0 .5831.4546 1.0182 1.0104 1.0182zM16.9585 12c0-.816.6688-1.4849 1.4883-1.4849.4042 0 .7929.1636 1.0686.4393.2562.256.4162.6063.4162 1.049v1.419h-.4744v-.4316c-.1977.2757-.6062.4932-1.0258.4932-.8204 0-1.4729-.6525-1.4729-1.4849m-3.7738 1.0807c-.2098-.2218-.3382-.525-.3382-.8786v-1.6235h.4744v1.5619c0 .2877.0899.4855.2295.6294.16.1661.3845.2492.6062.2492.2218 0 .4462-.0823.6063-.2492.1388-.1447.2295-.3417.2295-.6294v-1.562h.4744v1.6245c0 .3537-.1284.656-.3382.8786-.2414.256-.5909.4042-.972.4042-.381 0-.7304-.1482-.9719-.4042M8.3731 12c0-.8238.649-1.4849 1.4925-1.4849.548 0 .9797.2253 1.2434.6106l-.3922.2603c-.1987-.2646-.4932-.4042-.8512-.4042-.5437 0-1.007.3845-1.007 1.0182 0 .5866.4196 1.0182 1.0147 1.0182.501 0 .8863-.3075.983-.7579h-.6413v-.4547h1.1235c.0077.0582.0154.1242.0154.1944 0 .8118-.649 1.4849-1.4883 1.4849-.8392 0-1.4925-.6568-1.4925-1.4849zm-2.9689 1.0182c.5558 0 1.007-.435 1.007-1.0182 0-.5832-.4512-1.0182-1.007-1.0182-.5557 0-1.0104.435-1.0104 1.0182 0 .5831.4547 1.0182 1.0104 1.0182zM3.9082 12c-.0017-.816.6671-1.4849 1.4866-1.4849.4042 0 .793.1636 1.0687.4393.2569.256.4162.6063.4162 1.049v1.419h-.4744v-.4316c-.1987.2757-.6063.4932-1.026.4932-.8203 0-1.4728-.6525-1.4728-1.4849m-3.9056.8786.3844-.2603c.1944.2569.4428.3999.7536.3999.2175 0 .423-.0668.5712-.2175.1387-.1404.2295-.357.2295-.6722v-1.55h.4744v1.6125c0 .4162-.1388.7202-.3614.9402-.232.2304-.5635.3537-.9214.3537-.4547 0-.882-.2175-1.1312-.6063z"/></svg>