<svg role="img" viewBox="0 0 24 24" xmlns="http://www.w3.org/2000/svg"><title>Japan Airlines</title><path d="M12 0a11.98 11.98 0 0 0-9.651 4.871 9.342 9.342 0 0 0 1.35 7.82c.011.015-.01.034-.02.02-1.904-2.103-2.37-4.696-2.078-6.658.002-.015-.012-.019-.019-.007A11.863 11.863 0 0 0 .365 9.065c.133 1.942.988 3.828 2.422 5.358.014.015-.004.035-.019.023C1.134 13.153.376 11.57.13 10.403c-.002-.014-.02-.014-.02 0a12.077 12.077 0 0 0-.06 2.655c.413 1.293 1.293 2.375 2.193 3.156.017.015 0 .035-.016.025-1.008-.626-1.572-1.24-1.954-1.78-.009-.013-.02-.007-.019.005C1.36 19.852 6.191 24 11.998 24c5.807 0 10.638-4.148 11.746-9.536.004-.012-.01-.018-.017-.006-.384.542-.948 1.155-1.956 1.78-.016.011-.03-.01-.014-.024.902-.78 1.782-1.865 2.195-3.156l-.002-.003c.079-.76.058-1.848-.057-2.654-.002-.014-.019-.014-.021 0-.246 1.17-1.002 2.752-2.638 4.043-.015.012-.031-.008-.019-.023 1.432-1.53 2.287-3.417 2.42-5.359a11.846 11.846 0 0 0-1.218-3.018c-.006-.012-.02-.008-.018.006.291 1.963-.174 4.556-2.078 6.658-.013.015-.033-.002-.023-.018a9.35 9.35 0 0 0 1.353-7.821A11.981 11.981 0 0 0 12 0Zm.002.295c4.27 0 7.726 3.487 7.726 7.726a7.722 7.722 0 0 1-2.297 5.497l-.004.002c-2.452 2.388-6.12.864-5.747-2.068.287-2.262 3.06-4.511 5.158-5.734.01-.006.01-.018 0-.025-.274-.26-.844-.853-1.212-1.297-1.016-1.225-2.795-1.275-3.857.066l-6.034.562c-.023.002-.025.037 0 .037l6.47.374c1.146.066 1.52 1.105.415 1.944-4.109 3.111-4.842 6.406-3.923 9.017.006.016-.02.03-.031.014a5.286 5.286 0 0 1-.814-1.873A7.718 7.718 0 0 1 4.278 8.02c0-4.239 3.454-7.726 7.724-7.726zM9.124 17.332h1.636l-.876 2.282c-.448 1.167-1.553 1.265-2.338 1.265v.002c-.44 0-.822-.044-1.138-.116l.279-.729c.75.087 1.39.023 1.642-.632zm3.866.004h1.462l.329 3.431h-1.634l-.027-.675h-1.478l-.545.675h-1.35l2.74-3.177c.13-.15.325-.254.503-.254zm3.55 0h1.637l-1.042 2.704h2.08l-.278.727h-3.715zm-3.485 1-.882 1.097h.924z"/></svg>