<svg role="img" viewBox="0 0 24 24" xmlns="http://www.w3.org/2000/svg"><title>Jasmine icon</title><path d="m19.268 9.336-3.6 1.17 0.238 0.734 3.6-1.17-0.238-0.734m-4.591 5.78-0.624 0.453 2.225 3.063 0.624-0.453-2.225-3.063m-5.315 0.028-2.225 3.063 0.624 0.453 2.225-3.063-0.624-0.453m-4.645-5.762-0.238 0.734 3.6 1.169 0.238-0.733-3.6-1.17m6.874-5.029h0.77v3.787h-0.77zm0.409 19.649c-6.616 0-12-5.382-12-11.998 0-6.618 5.385-12.002 12-12.002 6.617 0 12 5.384 12 12.002 0 6.616-5.383 11.998-12 11.998zm0-2.43c5.284 0 9.57-4.283 9.57-9.568 0-5.287-4.286-9.572-9.57-9.572-5.285 0-9.57 4.285-9.57 9.572 0 5.285 4.285 9.569 9.57 9.569m-0.93-7.509h1.86l0.461 0.636v4.98h-2.781v-4.98l0.462-0.636m-1.198-2.221 0.574 1.768-0.462 0.635-4.736 1.54-0.86-2.647 4.736-1.539 0.747 0.243m1.742-1.826-1.505 1.093-0.747-0.244-2.927-4.028 2.25-1.635 2.928 4.029v0.785m2.275 1.093-1.504-1.093v-0.785l2.927-4.03 2.25 1.636-2.927 4.029-0.746 0.243m-0.337 2.501 0.575-1.768 0.747-0.242 4.736 1.538-0.86 2.646-4.736-1.539-0.462-0.635"/></svg>