<svg role="img" viewBox="0 0 24 24" xmlns="http://www.w3.org/2000/svg"><title>Jasmine icon</title><path d="M11.591 19.649h.771v-3.7857h-.77zm-6.874-5.0296l-.238-.73294 3.6-1.1699.238.73394-3.6 1.1699m4.645-5.7615L7.138 5.7962l.624-.45296 2.224 3.0617-.624.45396m5.315.028l-.624-.45396 2.225-3.0617.624.45296-2.225 3.0627m4.592 5.7795l-3.6-1.1699.238-.73394 3.6 1.1699-.238.73394M12 .0014c-6.617 0-12 5.3826-12 11.997 0 6.6184 5.383 12.001 12 12.001s12-5.3826 12-12.001C24 5.384 18.617.0014 12 .0014zm0 2.4298c5.284 0 9.569 4.2826 9.569 9.5672 0 5.2866-4.285 9.5722-9.569 9.5722-5.286 0-9.57-4.2856-9.57-9.5722 0-5.2846 4.285-9.5672 9.57-9.5672m1.552 7.9593l.575 1.7689.747.24198 4.736-1.5379-.86-2.6458-4.736 1.5389-.462.63495m.337 2.5008l-1.504 1.0929v.78493l2.927 4.0297 2.25-1.6359-2.927-4.0287-.746-.24298m-2.275 1.0929l-1.504-1.0929-.747.24298-2.927 4.0287 2.25 1.6349 2.928-4.0287v-.78493m-1.741-1.8248l.574-1.7679-.462-.63495-4.736-1.5399-.86 2.6468 4.737 1.5389.747-.24298m1.198-2.2208h1.859l.462-.63595v-4.9796H10.61v4.9796l.461.63595"/></svg>