<svg aria-labelledby="title" role="img" xmlns="http://www.w3.org/2000/svg" viewBox="0 0 300 550">
	<title>Java icon</title>
  <path d="M102.7 291.3s-14.2 8.3 10 11c29.5 3.4 44.5 3 77-3.2 0 0 8.4 6 20.3 10-72.6 32-164.4-1-107.3-17m-9-40s-16 12 8.5 14.8c31.4 3.3 56.2 3.6 99-4.7 0 0 6 6 15.4 9.3-87.8 25.7-185.6 2-122.8-19m74.8-69c18 21-4.7 39-4.7 39s45-23 24-52.4c-19-27.4-34-41.4 47-88 0 0-127 31.7-67 101.6"/>
  <path d="M264.7 321.4s10.5 8.6-11.6 15.3c-41 12.7-174 16.5-211 .5-13-5.8 12-13.7 20-15.4 8-1.8 13-1.5 13-1.5-15-10.3-95 20.4-41 29.2 148 24 270-10.8 232-28m-156-113s-67 16-24 22c19 2.4 55.7 2 89.8-1 28-2.4 56-7.4 56-7.4s-10 5-17 10c-68.6 18-201 10-163-9C84 207 110 209 110 209m121 68c69.6-36 37.4-71 15-66-5.6 1-8 2-8 2s2-3 6-4.4c44.3-15.6 78.5 46-14.4 70.6l1.7-1.5m-42-272s38 38.2-37 97.6c-60.5 47-14 74-.2 105-35-32-61-59.7-43.2-85.7C134 84.6 204.4 66 189 4.6"/>
  <path d="M116.3 374.2c67 4.3 169.5-2.3 172-34 0 0-4.8 12-55.3 21.6-57 10.7-127.4 9.4-169 2.6 0 0 8.4 7 52.3 9.8"/>
</svg>