<svg role="img" viewBox="0 0 24 24" xmlns="http://www.w3.org/2000/svg"><title>Jeep icon</title><path d="M4.1257 7.2104h1.9826v5.1198a2.8714 2.8714 0 0 1-.5219 1.7041c-.5238.6898-1.3869 1.0402-2.571 1.0402-1.9715 0-3.0154-.9351-3.0154-2.702v-.9645h1.9291v.9424c-.0261.5637.4098 1.0418.9735 1.0678h.0003a.7878.7878 0 0 0 .0922 0c.7082 0 1.1306-.391 1.1306-1.0457V7.2104zm7.853 5.4333H8.3565c0 .8594.3559 1.2154.983 1.2154a.8982.8982 0 0 0 .8373-.5035h1.7798c0 .7746-1.0678 1.8222-2.6798 1.8019-1.8443 0-2.7425-1.3611-2.7425-2.7664 0-1.4054.7949-3.0357 2.582-3.0357l-.0073.0017c1.5289 0 2.8697.5865 2.8697 3.2866zm-1.7797-1.0882c0-.5238-.2932-1.0273-.9646-1.0273s-.8779.4611-.8779 1.0273h1.8425zm7.6003 1.0882h-3.6222c0 .8594.3559 1.2154.983 1.2154a.902.902 0 0 0 .8392-.5035h1.7798c0 .7746-1.0679 1.8222-2.6816 1.8019-1.8443 0-2.7425-1.3611-2.7425-2.7664 0-1.4054.7949-3.0357 2.582-3.0357l-.0074.0018c1.5289-.0001 2.8697.5864 2.8697 3.2865zm-1.7797-1.0882c0-.5238-.2932-1.0273-.9627-1.0273s-.8797.4611-.8797 1.0273h1.8424zm5.6712 3.6776c-.7949 0-1.1527-.2766-1.3611-.4389a1.1626 1.1626 0 0 1-.2508-.2527v2.2482h-1.8222V9.5655h1.8019v.8244a1.5288 1.5288 0 0 1 .2508-.4131c.1217-.1457.4611-.5644 1.3611-.5644s2.3035.6271 2.3035 2.8476c.0001 1.7171-.8373 2.9731-2.2832 2.9731zm.4408-2.9657c0-.7322-.1623-1.4459-1.0844-1.4459-.5644 0-.983.4408-1.0051 1.5086h-.0055c-.0203 1.0678.2102 1.6322 1.09 1.6322s1.005-.9627 1.005-1.6949zm1.7078 4.3673l.0018-.0037a.5386.5386 0 0 1-.7616.0001l-.0001-.0001a.5272.5272 0 0 1-.1549-.3818.5348.5348 0 0 1 .533-.5367.5385.5385 0 0 1 .3818.9222zm.083-.3854a.4423.4423 0 0 0-.1365-.3264.461.461 0 0 0-.6521-.0008l-.0008.0008h-.0018a.4648.4648 0 0 0 .3283.7931.4423.4423 0 0 0 .3264-.1365.4538.4538 0 0 0 .1365-.3302zm-.2822-.0093a.2984.2984 0 0 1-.0867.0295.1439.1439 0 0 1 .1033.0572.1837.1837 0 0 1 .0313.0922v.0867a.0455.0455 0 0 0 0 .0313h-.0977v-.0793a.1457.1457 0 0 0-.0553-.1346.229.229 0 0 0-.1162-.0203h-.083v.2342h-.1033v-.5846h.2121a.4382.4382 0 0 1 .1623.0221.1476.1476 0 0 1 .0904.1494.1271.1271 0 0 1-.0572.1162zm-.039-.1457a.1064.1064 0 0 0-.0348-.0443l-.0055-.0037a.266.266 0 0 0-.1254-.0221h-.0904v.2232h.0996a.2608.2608 0 0 0 .0996-.0129.107.107 0 0 0 .0569-.1402z"/></svg>