<svg role="img" viewBox="0 0 24 24" xmlns="http://www.w3.org/2000/svg"><title>Jeep</title><path d="M4.166 7.168v5.201c0 .676-.445 1.078-1.164 1.078-.718 0-1.1-.529-1.1-1.1v-.929H0v.951c0 .972.296 2.707 3.023 2.707 2.728 0 3.108-1.86 3.108-2.748v-5.16zm4.916 2.156c-1.797 0-2.6 1.65-2.6 3.067 0 1.416.91 2.79 2.77 2.79 1.628.022 2.707-1.035 2.707-1.818h-1.797s-.211.508-.846.508c-.634 0-.994-.36-.994-1.226h3.659c0-2.728-1.355-3.32-2.899-3.32zm5.848 0c-1.797 0-2.6 1.65-2.6 3.067 0 1.416.909 2.79 2.77 2.79 1.628.022 2.707-1.035 2.707-1.818h-1.8s-.21.508-.843.508c-.635 0-.994-.36-.994-1.226h3.656c0-2.728-1.352-3.32-2.896-3.32zm6.744.065c-.913 0-1.319.495-1.34.521-.128.154-.29.317-.29-.078v-.295h-1.817v7.295h1.84v-2.01c0-.148.147-.126.253 0 .107.128.571.444 1.375.444 1.46 0 2.305-1.268 2.305-3.002 0-2.242-1.416-2.875-2.326-2.875zM9.272 10.508c.676 0 .972.508.972 1.037h-1.86c0-.572.232-1.037.888-1.037zm5.847 0c.677 0 .973.508.973 1.037H14.23c0-.572.233-1.037.888-1.037zm5.92.297c.932 0 1.102.718 1.102 1.459 0 .74-.129 1.713-1.016 1.713-.888 0-1.122-.571-1.102-1.649.023-1.079.444-1.523 1.016-1.523zm2.252 4.566a.586.586 0 1 0 .031 0h-.031zm0 .063h.028a.524.524 0 1 1-.028 0zm-.182.2v.622h.073v-.268h.176l.117.268h.078l-.122-.287a.148.148 0 0 0 .073-.045.182.182 0 0 0 .045-.115c0-.104-.08-.174-.195-.174zm.069.07h.174c.072 0 .117.04.117.103 0 .072-.05.117-.128.117h-.163Z"/></svg>