<svg viewBox="0 0 16 16" xmlns="http://www.w3.org/2000/svg" fill-rule="evenodd" clip-rule="evenodd" stroke-linejoin="round" stroke-miterlimit="1.414"><path d="M5.382 16c-.232 0-.46-.042-.68-.126-.917-.35-1.402-1.346-1.15-2.268l-.01-.005.06-.157 4.664-12.11c.07-.178.037-.606.004-.844-.01-.057-.01-.108.005-.16L8.28.32l.004-.01V.305L8.29.293C8.362.098 8.59 0 8.963 0c.448 0 1.067.14 1.7.382.532.205 1.016.46 1.356.717.4.302.56.572.47.805l-.014.028-.004.01c-.024.046-.056.083-.098.116-.205.18-.508.488-.56.628L7.098 14.966l-.01-.005c-.33.632-.973 1.037-1.696 1.04h-.008zm-1.458-2.478l-.014.033c-.298.8.108 1.704.91 2.012.18.07.367.102.558.102.647 0 1.22-.387 1.458-.993l.018-.042 4.64-12.06c.097-.26.56-.675.652-.758l.01-.01c.008-.004.013-.01.013-.014l.004-.004c.004-.034-.038-.178-.364-.43-.312-.237-.764-.475-1.27-.67C9.95.46 9.355.325 8.954.325c-.265 0-.354.056-.368.084v.028c.01.07.098.69-.023 1.01l-4.64 12.074zM9.89 5.85s-.642.74-1.228 1.006c-.587.266-1.02.196-1.547.504-.526.307-.792.735-.792.735L4.18 13.67c-.232.63.112 1.366.75 1.613.64.247 1.36-.08 1.608-.704L9.89 5.85zm-3.287 6.657c.07-.028.15 0 .177.07.028.07 0 .148-.07.176-.07.028-.15 0-.177-.07-.028-.065 0-.144.07-.176zm-.676-1.202c-.102.046-.223 0-.265-.103-.047-.102 0-.223.102-.265.103-.047.224 0 .266.102.05.102.005.218-.103.265zm.19-.73c-.082-.192 0-.416.192-.505.19-.083.414 0 .502.19.084.192 0 .416-.19.504-.196.084-.42 0-.504-.19zm1.618-1.506c.102-.048.223 0 .265.1.047.104 0 .225-.102.267-.103.047-.224 0-.266-.103-.05-.102 0-.223.103-.265zm-.862-.92c.07-.027.15 0 .177.07.028.07 0 .15-.07.178-.07.028-.15 0-.177-.07-.028-.07.005-.15.07-.177zM9.12.76c.066-.174.662-.108 1.33.15.666.256 1.153.606 1.086.78-.068.176-.664.11-1.33-.146C9.537 1.287 9.05.937 9.118.76z"/></svg>