<svg viewBox="0 0 16 16" xmlns="http://www.w3.org/2000/svg" fill-rule="evenodd" clip-rule="evenodd" stroke-linejoin="round" stroke-miterlimit="1.414"><path d="M1.914 16h-.65c-.017-.044-.032-.088-.046-.132-.144-.444-.396-.993-.462-1.436-.098-.656.52-.693.916-.977.61-.44 1.09-.683 1.752-1.08.196-.118.787-.415.854-.552.134-.272-.23-.655-.327-.868-.152-.337-.232-.623-.254-.955-.555-.088-.976-.418-1.23-.79-.42-.617-.712-1.758-.348-2.625.028-.068.17-.203.192-.308.04-.206-.078-.48-.086-.7-.038-1.128.19-2.1.95-2.44.308-1.227 1.41-1.635 2.45-2.245.388-.228.817-.374 1.26-.537 1.585-.584 4.02-.474 5.335.522.557.422 1.45 1.314 1.77 1.96.842 1.703.782 4.55.192 6.623-.08.28-.194.688-.355 1.022-.112.233-.46.7-.417.907.043.212.793.78.954.936.29.28.84.65.883 1.002.048.375-.165.888-.273 1.25-.145.487-.29.96-.437 1.422H1.913zm7.403-2.362c-.363-.198-.908-.414-1.376-.503-.58-.11-.526.792-.5 1.33.018.427.24.878.337 1.162.045.132.055.273.168.3.2.045.86-.218 1.048-.32.397-.218.706-.562 1.043-.793.005-.112.01-.225.013-.337-.204-.1-.438-.173-.736-.186.202-.1.5-.1.683-.22l.006-.135c-.337-.026-.465-.176-.686-.297zm4.97 1.958c.13-.412.24-.814.31-1.168.04-.192.144-.612.12-.783-.04-.307-.457-.534-.67-.724-.39-.35-.634-.657-1.04-.985-.166.244-.52.407-.655.605.964-.467 1.138 1.747.76 2.46.06.214.26.295.342.486l-.058.103h.86c.01 0 .022 0 .03.006zm-4.423-.007c-.032-.046-.066-.09-.1-.134l-.2.133h.3zm1.848 0c.006-.132.012-.264.02-.395-.353.022-.55-.32-.797-.346-.216-.024-.4.247-.68.13-.064.07-.123.148-.19.217.103.123.196.254.282.392h.544c.006-.103.09-.183.192-.183.103 0 .186.08.19.182h.44zm1.41 0c-.21-.32-.632-.592-1.12-.362-.006.116-.012.237-.02.36h1.14zm-5.673 0l-.068-.226c-.15-.48-.236-.837-.272-1.114-.602-.287-1.246-.577-1.764-.945-.095-.068-.734-.9-.822-.865-1.157.456-2.24 1.245-3.206 1.99.173.373.327.76.463 1.16h5.67zm5.514-1.405c-.016-.34-.106-1.038-.315-1.16-.442-.257-1.225.52-1.556.637.036.104.095.186.1.32.196-.05.435-.016.605.067-.198.02-.416.02-.546.114-.048.137.012.325-.02.516.467.132 1 .202 1.59.22.114-.15.153-.434.14-.715zm-2.714-.24c-.023.256.036.34.088.633.842.263.695-1.155-.088-.633zm-4.398-.936c-.3.305.845.72 1.21.744-.003-.194.11-.376.087-.515-.434-.077-1.003-.027-1.298-.23zm3.708.143c0 .03-.04.02-.046.043.387.302.675.365 1.202.34.237-.174.448-.375.696-.537-.57.05-1.287.404-1.852.153zm2.28-11.818C10.763.725 8.936.268 7.788.84c-.927.462-2.18 1.227-2.606 2.195.4.935-.117 1.79-.15 2.74-.018.505.238.946.257 1.495-.136.225-.553.253-.842.238-.097-.486-.267-1.033-.768-1.088-.71-.077-1.227.51-1.26 1.122-.037.72.555 1.915 1.393 1.832.324-.032.404-.357.757-.354.19.382-.295.502-.346.775-.012.07.042.346.073.475.152.63.492 1.444.826 1.923.423.607 1.256.7 2.153.76.16-.346.75-.318 1.134-.228-.46-.182-.89-.624-1.244-1.016-.407-.45-.82-.932-.84-1.52.77 1.07 1.405 2.003 2.806 2.473 1.06.356 2.297-.163 3.11-.735.34-.237.54-.614.78-.96.9-1.292 1.32-3.138 1.227-4.926-.038-.738-.036-1.473-.284-1.97-.258-.518-1.133-.982-1.645-.513-.095-.505.425-.817 1.037-.636-.436-.563-.894-1.24-1.514-1.59zM9.056 9.937c.41 1.028 1.817.91 3.004.882-.053.132-.167.29-.307.347-.38.155-1.43.272-1.958-.008-.335-.18-.55-.582-.733-.818-.09-.113-.53-.404-.007-.405zm.112-.58c.593.31 1.68.344 2.486.32.043.177.042.395.044.61-1.035.052-2.258-.204-2.53-.93zm4.45-.39c-.317.6-.765 1.264-1.694 1.284-.018-.194-.033-.49 0-.607.71-.068 1.15-.43 1.693-.677zm-.434-.446c-.68.438-1.438.913-2.552.803-.237-.207-.327-.667-.096-.972.12.208.045.59.38.646.632.108 1.368-.386 1.822-.56.282-.475-.024-.65-.278-.955-.52-.626-1.217-1.403-1.192-2.34.21-.154.228.23.26.3.27.637.953 1.45 1.452 1.993.122.134.324.263.346.35.065.26-.168.567-.14.738zM4.22 8.063c-.212-.122-.263-.658-.513-.673-.357-.022-.292.694-.29 1.113-.247-.223-.29-.91-.11-1.264-.205-.102-.297.11-.412.185.147-1.067 1.56-.495 1.326.637zm-1.08-4.07c-.458.505-.362 1.452-.307 2.126.83-.523 1.933.04 1.922.93.397-.01.148-.496.077-.808-.235-1.02.395-2.127.028-3.06-.71.054-1.295.345-1.72.81zm6.08.744c.204.373.27.764.56 1.045.13.128.382.283.257.635-.03.083-.244.268-.367.305-.452.133-1.504.027-1.148-.536.374.018.876.243 1.155-.028-.215-.343-.597-1.02-.456-1.42zm4.133-.01h.045c.214.445.4.916.67 1.31-.182.42-1.37.793-1.353.037.258-.113.702-.023.93-.167-.132-.362-.323-.67-.292-1.18zm-4.617-1.08c-.948-.22-1.42.396-1.706 1.036-.256-.062-.154-.41-.09-.588.17-.467.854-1.088 1.412-1.004.24.037.566.256.384.555zM6.428 1.057c-1.04.295-2.373 1.05-2.8 1.984.33-.048.56-.215.887-.235.123-.008.285.052.427.016.282-.07.52-.703.734-.94.208-.23.457-.328.628-.537.11-.053.272-.05.28-.215-.05-.05-.1-.088-.156-.072z"/></svg>