<svg role="img" viewBox="0 0 24 24" xmlns="http://www.w3.org/2000/svg"><title>Jet</title><path d="M11.113 23.96c-2.15-.149-4.34-.94-6.132-2.217-.84-.599-2.139-1.897-2.738-2.737a12.111 12.111 0 0 1-2.216-6.17 12.086 12.086 0 0 1 2.216-7.858c.599-.84 1.898-2.14 2.738-2.738C6.786.954 8.975.167 11.133.028c2.293-.148 4.445.294 6.396 1.312 1.15.6 2.002 1.23 2.948 2.175 2.08 2.08 3.282 4.698 3.492 7.61a12.131 12.131 0 0 1-2.217 7.88c-.599.84-1.898 2.14-2.738 2.738-1.731 1.233-4.005 2.075-5.925 2.192-.357.022-.758.05-.89.061-.133.012-.622-.005-1.086-.037zm2.714-.997c2.287-.37 4.324-1.427 6.02-3.123 2.175-2.174 3.246-4.764 3.246-7.848 0-3.087-1.074-5.683-3.245-7.844-2.192-2.182-4.77-3.249-7.85-3.249-3.082 0-5.66 1.067-7.85 3.249C1.975 6.309.901 8.905.901 11.992c0 3.084 1.07 5.674 3.245 7.848 1.67 1.668 3.722 2.744 5.95 3.118.899.151 2.813.154 3.73.005zm-8.346-4.826c-.086-.103-.01-.61.443-2.954.301-1.556.58-2.893.62-2.97.064-.126.216-.14 1.386-.14 1.099 0 1.331.02 1.42.126.088.106.016.585-.444 2.954-.302 1.555-.581 2.89-.621 2.968-.064.125-.216.14-1.386.14-1.09 0-1.332-.02-1.418-.124zm2.65-2.87a91.58 91.58 0 0 1 .471-2.374c.03-.081-.127-.099-.714-.08l-.752.023-.408 2.09a588.02 588.02 0 0 1-.462 2.35l-.054.262h1.484l.434-2.27zm1.062 2.852c-.055-.102.142-1.266.68-4.03.417-2.136.758-3.896.758-3.91a.66.66 0 0 1 .126-.151c.103-.104.343-.126 1.327-.126 1.096 0 1.214.014 1.362.162.105.104.147.225.12.341-.024.1-.37 1.86-.77 3.915-.4 2.054-.765 3.78-.813 3.838-.063.077-.425.104-1.4.104-1.177 0-1.322-.015-1.39-.143zm2.242-.62c0-.02.29-1.522.643-3.337.354-1.815.643-3.353.643-3.418 0-.096-.139-.119-.724-.119-.398 0-.723.032-.723.072 0 .039-.29 1.553-.643 3.365-.354 1.811-.644 3.335-.644 3.385 0 .061.238.091.724.091.398 0 .724-.017.724-.038zm1.535.615c-.058-.108.234-1.76 1.092-6.17.644-3.311 1.207-6.066 1.252-6.122.058-.073.44-.1 1.394-.1 1.207 0 1.321.012 1.396.152.061.114-.21 1.65-1.089 6.168-.643 3.309-1.208 6.062-1.254 6.118-.062.074-.437.102-1.398.102-1.192 0-1.322-.014-1.393-.148zm2.244-.629c0-.029.47-2.466 1.045-5.416s1.045-5.422 1.045-5.493c0-.111-.11-.13-.723-.13-.403 0-.724.033-.724.075 0 .042-.47 2.493-1.045 5.446-.575 2.954-1.045 5.415-1.045 5.47 0 .074.198.101.723.101.398 0 .724-.024.724-.053z"/></svg>