<svg role="img" viewBox="0 0 24 24" xmlns="http://www.w3.org/2000/svg"><title>JetBlue</title><path d="M.7547 8.9148h.8989V8H.7587v.9148zm0 .9217h.8989v4.893C1.6536 15.4903 1.106 16 .3523 16H0v-.8614h.2542c.3083 0 .5005-.1423.5005-.4821zm5.153 2.613v-.7528c0-1.1697-.8519-1.9135-1.8378-1.9135-.8598 0-1.8378.571-1.8378 2.3344 0 1.8641 1.064 2.3116 1.979 2.3116.5985 0 1.169-.2173 1.6115-.734l-.6536-.563a1.3733 1.3554 0 0 1-.974.4366c-.6176 0-1.067-.3754-1.067-1.1193zm-2.7797-.7528c.02-.6866.4144-1.053.9419-1.053.5285 0 .9149.3654.9429 1.053zm3.4913-3.2373h.9v1.3771h.6485v.6984h-.6486v2.6397c0 .251.093.3398.3163.3398h.3323v.8605h-.4654c-.6256 0-1.083-.401-1.083-1.1193V10.535h-.4495v-.6984h.4504zm4.4423.401c.6877 0 1.013.4209 1.013.9149 0 .5018-.3253.9108-1.013.9108H9.6893V8.8595ZM8.7394 14.375h2.6385c.943 0 1.7437-.7063 1.7437-1.8098 0-.6441-.3363-1.304-1.021-1.466v-.0198c.7277-.332.9239-.8417.9239-1.3702 0-.9988-.6336-1.7091-1.8578-1.7091H8.7384Zm2.4123-2.8283c.7037 0 1.021.4544 1.021.9562 0 .5019-.3173.9583-1.021.9583H9.6893v-1.9145ZM13.634 8h.8998v5.2013c0 .2045.1131.3131.3323.3131h.3083v.8605h-.3943c-.6537 0-1.1461-.2865-1.1461-1.0995zm1.9198 1.8375h.8959v2.7009c0 .6214.3793.976.8908.976.5005 0 .8809-.3556.8809-.976V9.8365h.8948v4.5384h-.8958v-.482h-.02c-.2803.3585-.6837.5363-1.1532.5363-.7036 0-1.4934-.5482-1.4934-1.5747zm7.7224 2.612v-.7528c0-1.1697-.8568-1.9135-1.8418-1.9135-.8608 0-1.8377.571-1.8377 2.3344 0 1.8641 1.064 2.3116 1.9789 2.3116a2.032 2.0054 0 0 0 1.6115-.734l-.6506-.563a1.3813 1.3633 0 0 1-.977.4366c-.6175 0-1.063-.3754-1.063-1.1193zm-2.7797-.7528c.015-.6866.4104-1.053.938-1.053.5274 0 .9148.3654.9418 1.053zm3.033-1.5747h.056c.062 0 .1201-.004.1201-.0652 0-.0543-.05-.0691-.101-.0691h-.0742zm-.0771-.2075h.1751c.1061 0 .1572.0455.1572.1423 0 .0929-.051.1274-.1171.1353l.1321.1927h-.093l-.1302-.1887h-.046v.1877h-.0781zm.1481.57c.1802 0 .3133-.1343.3133-.324 0-.1887-.1331-.324-.3133-.324-.1761 0-.3083.1353-.3083.324 0 .1897.1322.324.3083.324zm0-.725c.055 0 .1061.0078.1522.0306a.3942.3942 0 0 1 .13.085.4454.4396 0 0 1 .1172.2864.4134.408 0 0 1-.1181.2845.3934.3882 0 0 1-.4344.089.4805.4742 0 0 1-.1282-.089.4324.4268 0 0 1-.086-.1304.4254.4199 0 0 1-.027-.155.4404.4347 0 0 1 .027-.1542.4845.4781 0 0 1 .086-.1314.4654.4594 0 0 1 .1292-.085.3553.3507 0 0 1 .1521-.0296z"/></svg>