<svg version="1.1" id="Layer_1" xmlns="http://www.w3.org/2000/svg" x="0" y="0" viewBox="0 0 24 24" xml:space="preserve"><style>.st0{fill:#fff}</style><path d="M0 0h51v51H0z"/><path class="st0" d="M4.4 41.5h19.1v3.2H4.4zM4.2 13.5l1.5-1.4c.3.5.8.8 1.3.8.6 0 .9-.4.9-1.2V6.4h2.3v5.3c.2 1.5-.9 2.9-2.5 3.1h-.6c-1.1.1-2.2-.4-2.9-1.3zM10.8 6.4h6.7v2h-4.4v1.3h4v1.8h-4v1.3h4.5v2h-6.7l-.1-8.4zM20.5 8.4H18v-2h7.3v2h-2.5v6.3h-2.3V8.4zM4.4 16.7h4.3c.8 0 1.6.2 2.3.7.3.4.5.9.5 1.4 0 .8-.5 1.6-1.3 1.9 1 .2 1.7 1 1.7 2 0 1.4-1.2 2.3-3.1 2.3H4.5v-8.3h-.1zm4.8 2.5c0-.5-.4-.7-1-.7H6.7V20h1.4c.7 0 1.1-.2 1.1-.8zm-.8 2.4H6.6v1.5h1.8c.7 0 1.1-.3 1.1-.8.1-.4-.3-.7-1.1-.7zM12.2 16.7h3.9c1-.1 2 .2 2.7.9.5.5.7 1.2.7 1.9 0 1.1-.7 2.2-1.7 2.6l2 2.9h-2.6l-1.7-2.5h-1V25h-2.3v-8.3zm3.8 4c.8 0 1.2-.4 1.2-1 0-.7-.5-1-1.2-1h-1.5v2H16z"/><path class="st0" d="M22.3 16.6h2.2L28 25h-2.5l-.6-1.5h-3.2l-.6 1.5h-2.4l3.6-8.4zm2 5.1l-.9-2.3-.9 2.4h1.8v-.1zM28.3 16.7h2.3V25h-2.3v-8.3zM31.2 16.7h2.2l3.4 4.4v-4.4h2.3V25h-2l-3.6-4.6V25h-2.3v-8.3zM39.2 23.8l1.3-1.5c.7.7 1.7 1 2.7 1 .6 0 1-.2 1-.6 0-.4-.3-.5-1.4-.8-1.8-.4-3.1-.9-3.1-2.6 0-1.5 1.2-2.7 3.2-2.7 1.2 0 2.4.4 3.4 1.1l-1.2 1.6c-.7-.5-1.5-.7-2.3-.8-.6 0-.8.2-.8.5 0 .4.3.5 1.4.8 1.9.4 3.1 1 3.1 2.6 0 1.7-1.3 2.7-3.4 2.7-1.4.1-2.8-.4-3.9-1.3z"/></svg>
