<svg role="img" viewBox="0 0 24 24" xmlns="http://www.w3.org/2000/svg"><title>JFrog Pipelines</title><path d="M21.892 22.477H2.108V24h19.784v-1.523ZM11.282.917c.989-.087 1.833-.087 2.562.007.938.108.729.96.722 1.624.188.224 1.234.592 1.523.743.39-.245.787-.996 1.357-.931.411.044 2.483 2.296 2.526 2.404.231.65-.592 1.104-.888 1.516.159.361.498 1.256.672 1.53 2.006-.015 1.71-.043 1.732 2.786.014 1.473-.383 1.328-1.732 1.321l-.664 1.53c.772 1.256 1.804.679-.26 2.736-1.689 1.689-1.336 1.443-2.729.238-.231.13-.462.238-.707.347-.296.122-.556.166-.83.346.014 1.667.101 1.732-1.805 1.725h-.209v-.007c-.339-.015-.96-.043-1.003-.051-4.526-.519-8.056-4.374-8.056-9.044 0-3.912 2.447-7.319 5.912-8.568L9.116 0l2.382 1.4-1.407 2.512-.289-1.147c-.115.043-.231.086-.346.137-2.678 1.169-4.555 3.832-4.555 6.936 0 3.92 2.995 7.139 6.828 7.536l1.198.079.289.007c.022-1.963.303-1.234 1.826-1.927 1.35-.621 1.242-1.061 2.332.145l.981-.924c-1.205-1.09-.83-1.011-.18-2.368.736-1.545-.108-1.783 1.913-1.812l.021-1.4c-2.035-.036-1.191-.296-1.927-1.826-.707-1.465-.996-1.177.152-2.331l-.96-1.004c-.282.238-.607.801-1.076.794-.26 0-.974-.455-1.27-.592-1.566-.743-1.761.109-1.805-1.92-.693-.036-1.227-.043-1.898.073l.599-1.076-.642-.375Zm2.115 12.242c2.248-.574 2.867-2.557 2.384-4.232-.482-1.675-2.067-3.041-4.225-2.38-4.258 1.306-2.591 7.745 1.841 6.612Zm-.556-1.256c-1.205.252-2.187-.672-2.368-1.668-.231-1.292.672-2.237 1.661-2.418 2.605-.476 3.573 3.494.707 4.086Z"/></svg>