<svg role="img" viewBox="0 0 24 24" xmlns="http://www.w3.org/2000/svg"><title>Jinja icon</title><path d="M23.718.6685l-.08.039s-4.5628 2.1749-8.2436 2.6519c-1.854.24-4.5549.481-6.9648.62a65.4723 65.4723 0 01-3.2538.117c-.917.005-1.63-.032-1.95-.11a20.1892 20.1892 0 01-2.3998-.732l-.252-.1.346 1.172-.92.8089.248.437.44.033 1.052.131.162.514.6349.057.318 1.0779.092.006s1.338.115 1.7619.115c.365 0 .93-.041 1.072-.05l.024.396.287.054v.315l-.799.71.156.028c-.14.01-.227.018-.5.03-.429.017-.934.02-1.203-.018-.586-.086-.709-.086-.709-.086h-.057l-.122.13-.046.4459h.152l.055 1.111 2.933-.113-.205 3.6818-.02.347-2.242-.127-.02-.761h.538l.057-.42.464-.106.223-.312-2.111-.51-1.7048.506.465.388h.166l.025.334.494.028v.763l-.611.157.19.404.105.068v.825h.343v3.2958l-.566.086.098 1.247.334.056-.055 2.3419 1.8028.033-.32-2.303 1.982-.048-.139 1.087-.25 1.032 2.6079.033.027-2.28 1.322-.119-.072 1.293-.063.99h1.6329l-.053-2.3.176.027.067-1.3919h-.243l-.058-.34-.131-1.29.049-1.3639h.295V14.629l-.364.027.04-.806.431-.043.022-.352.172-.025.51-.389-1.827-.375-1.709.379.285.469.239-.02.054-.004.034.442.41-.02.004.674-1.5259-.035.053-.877.059-.926V11.535l.048-1.152 3.4848-.178 4.1559-.24.033.674-.152 1.949-.063 1.693-1.32-.023-.006-1.018.574-.021.028-.373.27-.041-.012-.057.152-.01.29-.388-2.01-.471-1.9868.426.258.45.14-.01v.089h.246v.402l.5239.008-.006.856h-.527l-.014.5049.187.022-.021.978.394.02-.044 3.6148-.524.108.016.423h.176v.985h.289l-.07 1.2049-.112 1.314 2.17.057-.069-1.172-.138-.848-.022-.593 1.3249-.024-.041 1.002-.008 1.33 1.033.082 1.2519-.05.533-.157-.25-.76-.053-1-.08-.583 1.233-.045-.057.742-.006 1.515.7379.069.631-.016.416-.13-.187-1.424-.049-.862.25-.027.006-.895.08-.017-.027-.4299h-.303l-.049-.527-.023-2.6919.222-.006v-.902l.096.014v-.4609l-.334-.027.006-.836.57-.051-.033-.362.26-.021-.024-.117.5799-.29-2.056-.413-1.8808.38.232.432.223-.02.014.077h.203l.011.426.5469-.006.035.773-1.671-.012-.211-1.457-.178-.826-.1449-1.4688.075-.746 3.8468-.293.012-1.316.201-.05-.023-.38-.239-.138h-.037l-.357.05-.793.116a62.1574 62.1574 0 01-1.6248.216l-.191.02-.014-.178-.785-.41.006-.2749.271-.008.02-.672c.09-.006.352-.024.771-.062.484-.045 1.04-.105 1.3609-.18.597-.14 1.452-.281 1.452-.281l.076-.012.408-1.108.8049-.2339.066-.184 1.78-.492.3059-.252-.717-1.5639.047-.236.344-.18.297-.906-.252-.223zm-8.8926 6.0617l-.01.526.407.017-.016.32-.789.518-.086.258-1.86.09.01-.184.112-.181.01-.153.001-.228.067-.156.031-.16v-.092l.08-.323zm-5.1808.461l-.043.264.199.234-.014.387.176.27-.047.328.025.035-1.847.074.02-.152-.653-.354-.022-.345.291-.014.028-.598zm4.0148 8.4996l1.258.082-.05 1.938.183 1.5409-1.34-.047-.05-3.5139zm-10.2255.084l2.1599.112-.194 1.283v1.219l.137.523-2.09.098zm15.3763.01v3.2559l-1.291.094-.051-1.723-.158-1.5919zm-11.4945.076l1.538.006.017 2.996-1.43.026-.076-.928-.006-1.047z"/></svg>