<svg viewBox="0 0 16 16" xmlns="http://www.w3.org/2000/svg"><path d="M13.418 4.238c-.053-.044-.114-.06-.185-.06-.035 0-.07.007-.106.016-.65.247-1.303.44-1.912.573-.123.026-.22.123-.264.23-.44 1.197-1.558 2.342-2.73 3.54-.044.045-.114.106-.22.106-.105 0-.176-.053-.22-.105-1.172-1.2-2.29-2.335-2.732-3.542-.044-.106-.14-.203-.264-.23-.598-.14-1.26-.334-1.91-.58-.037-.018-.072-.018-.107-.018-.062 0-.132.017-.185.06-.08.063-.124.17-.115.266.098.995.493 1.973 1.207 2.995.67.96 1.542 1.85 2.388 2.713 1.55 1.586 3.02 3.083 3.153 4.818.01.16.142.283.3.283h1.824c.078 0 .157-.035.22-.096.052-.062.088-.142.08-.22-.063-1.164-.495-2.326-1.34-3.56-.177-.255-.362-.51-.564-.757-.08-.098-.044-.22.017-.29l.185-.187c.846-.862 1.718-1.753 2.388-2.713.713-1.02 1.11-1.99 1.207-2.995.008-.08-.036-.185-.115-.247zM6.035 11.56c-.044-.045-.105-.09-.21-.09-.133 0-.22.098-.248.142-.766 1.172-1.163 2.273-1.215 3.383 0 .08.026.168.08.22.052.062.13.097.22.097h1.823c.16 0 .29-.123.3-.282.043-.537.202-1.066.51-1.63.106-.193.027-.38-.035-.458-.308-.396-.67-.81-1.225-1.383z"/>
<path d="M9.022 5.093c.14 0 .273.115.273.282 0 .044-.01.08-.026.114-.08.202-.424.933-1.067 1.56-.07.07-.16.078-.212.078-.05 0-.14-.01-.21-.08-.643-.625-.987-1.356-1.067-1.56-.008-.025-.025-.06-.025-.113 0-.16.132-.282.272-.282.132 0 .467.035 1.04.035s.907-.035 1.022-.035z"/>
<path d="M4.855 1.56c-.528 0-.96.432-.96.96 0 .53.432.96.96.96s.96-.43.96-.96c-.01-.528-.432-.96-.96-.96zM11.145 1.56c-.528 0-.96.432-.96.96 0 .53.432.96.96.96.53 0 .96-.43.96-.96 0-.528-.43-.96-.96-.96zM8 .688c-.53 0-.96.43-.96.96s.43.96.96.96.96-.43.96-.96c0-.537-.43-.96-.96-.96z"/></svg>
