<svg viewBox="0 0 16 16" xmlns="http://www.w3.org/2000/svg" fill-rule="evenodd" clip-rule="evenodd" stroke-linejoin="round" stroke-miterlimit="1.414"><path d="M11.146 9.84L9.48 11.508l-1.58 1.58-.308.31c-.912.91-2.198 1.22-3.365.932-.218.95-1.07 1.66-2.087 1.66-1.182 0-2.14-.958-2.14-2.14 0-1.012.703-1.86 1.646-2.083-.298-1.173.01-2.47.93-3.386l.12-.12 1.58 1.58-.122.12c-.513.513-.513 1.343 0 1.856.514.515 1.348.514 1.858.002l.31-.31L7.9 9.93l1.668-1.67 1.578 1.58zm.616 4.436c-1.215.374-2.59.08-3.552-.88l-.12-.122 1.577-1.58.12.122c.514.512 1.345.512 1.858 0 .51-.51.512-1.34-.003-1.854l-.31-.31-1.577-1.58-1.668-1.668 1.58-1.58 1.666 1.67 1.578 1.58.31.31c.91.907 1.223 2.185.94 3.347 1.04.147 1.84 1.04 1.84 2.12 0 1.182-.96 2.14-2.14 2.14-1.037 0-1.9-.736-2.098-1.714zM4.65 6.308l1.672-1.67 1.58-1.58.308-.307c.95-.95 2.305-1.25 3.51-.895C11.862.813 12.757.01 13.84.01c1.182 0 2.14.958 2.14 2.14 0 1.087-.81 1.985-1.86 2.123.346 1.2.046 2.545-.9 3.49l-.12.123-1.58-1.58.122-.122c.513-.513.513-1.344 0-1.856-.51-.51-1.34-.512-1.854.002l-.308.308-1.58 1.58-1.67 1.668-1.58-1.578zM2.882 8.073l-.308-.308c-.954-.954-1.25-2.317-.888-3.526C.733 4.022.02 3.17.02 2.15.02.97.98.01 2.16.01c1.064 0 1.947.777 2.113 1.794 1.154-.27 2.418.044 3.32.944l.122.123-1.58 1.58-.122-.123c-.513-.512-1.344-.512-1.857 0-.514.515-.513 1.35-.003 1.86l.31.308 1.58 1.578 1.67 1.67-1.578 1.58-1.673-1.67-1.58-1.58z"/></svg>