<svg role="img" viewBox="0 0 24 24" xmlns="http://www.w3.org/2000/svg"><title>Jotform</title><path d="M7.9173 17.503c-1.1919-1.1841-1.1919-3.104 0-4.2882L17.699 3.497c1.192-1.1842 3.1244-1.1842 4.3163 0 1.192 1.1842 1.192 3.104 0 4.2882l-9.7815 9.7178c-1.192 1.1842-3.1244 1.1842-4.3164 0zm-5.9177-5.1295c-1.192-1.1842-1.192-3.104 0-4.2882L9.239.888c1.1919-1.1841 3.1244-1.1841 4.3163 0 1.192 1.1842 1.192 3.1041 0 4.2883L6.316 12.3735c-1.192 1.1842-3.1245 1.1842-4.3164 0zM13.3632 23.112c-1.192-1.1842-1.192-3.1041 0-4.2882l4.3016-4.2737c1.192-1.1841 3.1245-1.1841 4.3164 0 1.192 1.1842 1.192 3.1041 0 4.2883l-4.3017 4.2736c-1.1919 1.1841-3.1244 1.1841-4.3163 0zM7.069 22.808C7.5221 23.2474 7.202 24 6.5585 24H2.5317c-.7944 0-1.4409-.6267-1.4409-1.397v-3.9035c0-.6238.7764-.9341 1.2295-.4949z"/></svg>