<svg xmlns="http://www.w3.org/2000/svg" viewBox="0 0 24 24"><path d="m4.8217991 13.1065.1119953-.069a1.3569435 1.357 0 0 1-.4809799-1.037 1.3699429 1.37 0 0 1 1.3739427-1.365c.4099829 0 .7759677.18 1.0299571.462l.015999-.027c.1149952-.203.2259906-.402.3099871-.6.037998-.078.065997-.157.096996-.233a2.2839048 2.284 0 0 0-1.4519395-.517 2.2869047 2.287 0 0 0-2.2949044 2.28c0 .562.2049915 1.076.5439773 1.473a2.4938961 2.494 0 0 0 .1409942-.058c.1999916-.086.3999833-.195.6039751-.309zm2.7018874-2.642a4.8277988 4.828 0 0 1-.311987.787 6.7087205 6.709 0 0 1-.1179951.216 1.3599433 1.36 0 0 1 .1079955.532 1.3699429 1.37 0 0 1-1.8799216 1.269 5.831757 5.832 0 0 1-.3159869.175 4.8597975 4.86 0 0 1-.6729719.272l-.011999.004a2.2929045 2.293 0 0 0 1.5059372.56 2.2869047 2.287 0 0 0 2.2949044-2.28 2.256906 2.257 0 0 0-.5979756-1.535zm-6.2017416-.673h1.3989417v2.754c0 .592-.1459939 1.028-.4369818 1.31-.2919878.28-.7449689.42-1.3599433.42A3.7098454 3.71 0 0 1 0 14.1605v-.959a1.4179409 1.418 0 0 0 .44598142.075c.31598683 0 .5399775-.077.67397188-.23.1349944-.153.2019916-.418.2019916-.794v-2.46zm7.5546852 0h1.3999419v2.55c0 .374.065.644.198992.812.132994.166.345985.25.637973.25.299987 0 .526978-.09.679972-.27.152993-.178.22899-.443.22899-.792v-2.55h1.331945v2.55c0 .646-.186993 1.13-.559977 1.451-.372985.322-.932961.483-1.67993.483-.739969 0-1.298946-.162-1.6739304-.486-.3759843-.325-.5629765-.807-.5629765-1.448v-2.55zm6.9147119 0h1.68693l1.984917 4.383h-1.494938l-.371984-.928h-2.019916l-.389984.928h-1.384942zm.814966.978-.679972 1.644h1.336945zm2.173909-.978h1.46194l1.169951 3.411 1.155952-3.41H24l-1.777926 4.382h-1.753927z"/></svg>
