<svg role="img" viewBox="0 0 24 24" xmlns="http://www.w3.org/2000/svg"><title>JOUAV</title><path d="m4.825 13.108.112-.069a1.357 1.357 0 0 1-.481-1.037 1.37 1.37 0 0 1 1.374-1.365c.41 0 .776.18 1.03.462l.016-.027c.115-.203.226-.402.31-.6.038-.078.066-.157.097-.233a2.284 2.284 0 0 0-1.452-.517 2.287 2.287 0 0 0-2.295 2.28c0 .562.205 1.076.544 1.473a2.494 2.494 0 0 0 .141-.058c.2-.086.4-.195.604-.309Zm2.702-2.642a4.828 4.828 0 0 1-.312.787 6.709 6.709 0 0 1-.118.216 1.36 1.36 0 0 1 .108.532 1.37 1.37 0 0 1-1.88 1.269 5.832 5.832 0 0 1-.316.175 4.86 4.86 0 0 1-.673.272l-.012.004a2.293 2.293 0 0 0 1.506.56 2.287 2.287 0 0 0 2.295-2.28 2.257 2.257 0 0 0-.598-1.535zm-6.202-.673h1.399v2.754c0 .592-.146 1.028-.437 1.31-.292.28-.745.42-1.36.42a3.71 3.71 0 0 1-.924-.115v-.959a1.418 1.418 0 0 0 .446.075c.316 0 .54-.077.674-.23.135-.153.202-.418.202-.794v-2.46Zm7.555 0h1.4v2.55c0 .374.065.644.199.812.133.166.346.25.638.25.3 0 .527-.09.68-.27.153-.178.229-.443.229-.792v-2.55h1.332v2.55c0 .646-.187 1.13-.56 1.451-.373.322-.933.483-1.68.483-.74 0-1.299-.162-1.674-.486-.376-.325-.563-.807-.563-1.448v-2.55Zm6.915 0h1.687l1.985 4.383h-1.495l-.372-.928H15.58l-.39.928h-1.385l1.99-4.383Zm.815.978-.68 1.644h1.337zm2.174-.978h1.462l1.17 3.411 1.156-3.41h1.432l-1.778 4.382h-1.754z"/></svg>