<svg xmlns="http://www.w3.org/2000/svg" viewBox="0 0 24 24"><path d="M9.36 14.28c-.003.052-.006.104-.013.16l.206-.374-.023-.12.207-.033.075.517.095-.324c.008-.032.01-.055.012-.08 0-.023-.002-.048-.01-.083l.215-.04c.008.043.013.08.012.12-.002.053-.015.11-.05.195l-.175.468h-.258l-.054-.35-.202.35h-.25c.01-.326-.002-.53-.025-.743l.214-.033c.018.12.026.237.022.37zM10.7 14.103c-.1.054-.137.074-.227.13l-.096.453h-.223l.157-.75.198-.034-.008.104c.076-.044.137-.076.204-.104l-.004.2zM10.832 13.934l.23-.032-.166.784h-.223l.16-.752zm.072-.34l.23-.032-.05.237-.23.03.05-.236zM11.472 14.095l-.08.384c-.003.007-.005.015-.005.02 0 .01.006.016.022.016.037 0 .08-.016.12-.032l.04.155c-.065.034-.158.062-.248.062-.112 0-.17-.054-.167-.145 0-.01.002-.022.004-.033l.09-.428h-.114l.038-.18h.114l.038-.184.23-.032-.045.216h.184l-.05.18h-.172zM11.738 14.19c.038-.176.12-.29.364-.29.145 0 .254.063.25.193-.006.15-.086.22-.278.276-.094.027-.096.027-.163.045l-.01.054c-.006.027-.003.053.038.053.08 0 .2-.04.305-.085l.037.158c-.095.058-.244.106-.38.106-.16 0-.225-.07-.22-.2 0-.03.004-.06.012-.094l.046-.217zm.405-.073c0-.027-.022-.044-.063-.044-.08 0-.106.046-.12.11l-.01.053c.038-.01.056-.013.102-.027.06-.02.09-.047.09-.093zM12.926 13.602l.23-.032-.235 1.116H12.7l.228-1.084zM13.185 14.19c.038-.176.12-.29.364-.29.144 0 .253.063.248.193-.005.15-.085.22-.277.276-.093.027-.095.027-.162.045l-.01.054c-.007.027-.004.053.037.053.08 0 .2-.04.305-.085l.037.158c-.095.058-.244.106-.38.106-.16 0-.225-.07-.22-.2 0-.03.004-.06.012-.094l.045-.217zm.405-.073c0-.027-.022-.044-.063-.044-.08 0-.106.046-.12.11l-.01.053c.038-.01.056-.013.102-.027.06-.02.088-.047.09-.093zM13.816 14.65l.048-.163c.058.02.123.04.207.04.075 0 .08-.023.088-.06.008-.034-.014-.053-.1-.1-.157-.084-.16-.14-.137-.257.037-.166.087-.21.3-.21.074 0 .166.016.23.036l-.043.168c-.056-.016-.14-.028-.193-.028-.066 0-.076.008-.086.05-.008.035 0 .043.073.083.175.094.2.127.174.25-.038.173-.09.242-.32.242-.072 0-.17-.02-.238-.05zM14.454 14.65l.048-.163c.058.02.123.04.207.04.073 0 .08-.023.086-.06.008-.034-.014-.053-.1-.1-.157-.084-.16-.14-.137-.257.035-.166.085-.21.3-.21.072 0 .164.016.227.036l-.042.168c-.056-.016-.14-.028-.193-.028-.066 0-.076.008-.086.05-.008.035 0 .043.073.083.173.094.198.127.172.25-.038.173-.09.242-.32.242-.072 0-.17-.02-.238-.05zM15.065 14.858l.128-.172h-.084l.054-.262h.223l-.06.28-.183.22-.08-.066zM16.283 14.686l-.004-.066c-.058.046-.138.082-.25.082-.166 0-.204-.1-.168-.273l.044-.208c.038-.183.09-.32.414-.32.024 0 .073.002.093.007l.064-.308.23-.032-.236 1.116h-.187zm-.204-.23c-.01.04 0 .06.04.06.08 0 .137-.042.18-.08l.073-.343c-.025-.005-.055-.006-.087-.006-.115 0-.14.062-.158.136l-.05.232zM16.678 14.444c0-.017.003-.036.007-.054l.038-.18c.042-.197.142-.31.41-.31.208 0 .297.118.292.256 0 .017-.003.036-.007.055l-.038.18c-.04.185-.133.31-.412.31-.196.002-.295-.115-.29-.256zm.523-.27c.003-.057-.03-.087-.103-.087-.084 0-.134.043-.15.118l-.04.19c0 .012-.003.023-.003.033-.002.055.032.087.104.087.085 0 .134-.043.15-.12l.04-.19.003-.03zM18.784 14.163c.002-.01.004-.017.004-.024 0-.017-.007-.023-.03-.023-.04 0-.138.04-.202.074l-.104.496h-.222l.11-.523c.002-.01.004-.017.004-.024 0-.017-.007-.023-.03-.023-.04 0-.14.04-.2.073l-.105.496h-.224l.157-.75.197-.034-.005.085c.122-.057.218-.087.306-.087.077 0 .115.033.13.09.12-.068.227-.09.315-.09.103 0 .14.058.135.156 0 .027-.004.057-.01.09l-.115.54h-.223l.112-.523zM19.096 14.444c0-.017.003-.036.007-.054l.038-.18c.043-.197.143-.31.412-.31.207 0 .296.118.29.256 0 .017-.002.036-.006.055l-.038.18c-.04.185-.133.31-.412.31-.196.002-.295-.115-.29-.256zm.523-.27c0-.057-.033-.087-.105-.087-.084 0-.134.043-.15.118l-.04.19c0 .012-.003.023-.003.033-.002.055.032.087.104.087.085 0 .134-.043.15-.12l.04-.19.003-.03zM20.434 14.103c-.1.054-.137.074-.227.13l-.096.453h-.222l.157-.75.197-.034-.008.104c.076-.044.137-.076.204-.104l-.004.2zM20.484 14.19c.038-.176.12-.29.364-.29.145 0 .254.063.25.193-.006.15-.086.22-.278.276-.094.027-.096.027-.163.045l-.01.054c-.007.027-.004.053.037.053.08 0 .2-.04.305-.085l.036.158c-.095.058-.244.106-.38.106-.16 0-.225-.07-.22-.2 0-.03.004-.06.012-.094l.046-.217zm.406-.073c0-.027-.022-.044-.063-.044-.08 0-.106.046-.12.11l-.01.053c.038-.01.056-.013.102-.027.06-.02.088-.047.09-.093zM21.19 14.424h.222l-.055.262h-.223l.055-.262zM.77 10.188c-.377.54-.33 1.245-.042 1.82l.02.04.015.027.008.015.015.027c.01.016.02.03.028.047l.016.026.03.05.014.02c.015.024.03.046.046.068v.002l.01.01.04.057.016.02.04.048.014.018.054.062.003.003c.018.02.036.04.055.058l.018.018c.014.014.028.03.043.043l.018.017c.02.02.04.037.06.055h.002l.01.01.055.045.022.018.045.036c.008.005.016.01.024.018l.05.037c.006.004.012.01.02.013l.004.004c.017.01.033.022.05.033l.022.014c.026.016.052.03.077.047l.022.012c.02.01.04.02.058.032.01.006.022.01.033.017l.04.02.01.005.018.008.067.03.015.007c.026.01.05.022.077.032l.02.007.072.026.01.003.08.026.02.006c.028.008.055.018.084.024 1.82.332 2.35-1.094 2.35-1.094-.445.578-1.234.73-1.98.56-.03-.005-.056-.014-.084-.022l-.02-.006-.08-.026c-.004 0-.008-.003-.01-.004l-.072-.026-.02-.008-.076-.032-.015-.006-.063-.03-.02-.01-.05-.024c-.01-.006-.022-.01-.032-.017-.02-.01-.04-.02-.06-.032l-.02-.012c-.026-.015-.052-.03-.078-.048l-.02-.014-.057-.037-.018-.013-.052-.038-.023-.018-.047-.037-.02-.016-.06-.05-.007-.005c-.02-.02-.04-.038-.062-.057l-.017-.017-.044-.043-.02-.018-.054-.058-.003-.003c-.02-.02-.037-.042-.055-.063l-.014-.016-.04-.05c-.004-.005-.01-.01-.014-.018l-.046-.06C.88 11.24.73 10.458 1.06 9.818"/><path d="M1.94 9.732c-.274.392-.26.916-.046 1.33.035.07.075.138.12.202.04.06.086.128.14.175l.06.063.017.016c.02.02.042.038.063.057l.003.002.074.06c.006.003.01.008.017.012.025.02.05.038.076.056h.003c.01.01.023.016.035.024l.017.01c.02.013.037.025.056.036.003 0 .006.003.008.004l.05.028.02.01.034.018.006.002.072.034.016.007c.02.01.04.018.06.025l.026.01.055.018.024.008c.026.01.052.02.08.024 1.405.233 1.73-.85 1.73-.85-.293.423-.86.623-1.464.466l-.08-.023-.024-.008-.056-.02-.025-.01-.06-.023-.016-.007c-.026-.01-.05-.022-.075-.034l-.037-.02-.02-.01c-.017-.008-.033-.017-.048-.026l-.01-.006c-.02-.01-.04-.023-.057-.035-.006-.005-.01-.01-.017-.012l-.037-.024c-.027-.018-.052-.037-.077-.055l-.017-.015c-.265-.21-.475-.494-.574-.818-.105-.336-.082-.713.1-1.02"/><path d="M2.922 9.39c-.16.237-.176.53-.065.79.118.278.36.495.64.598l.034.012.017.005.05.015c.776.15.987-.398 1.043-.48-.185.267-.495.33-.875.238-.03-.007-.063-.018-.092-.03-.037-.012-.074-.027-.11-.044-.066-.033-.13-.072-.19-.117-.34-.258-.552-.75-.33-1.152"/><path d="M20.91 10.498l.03.13c.008.036-.016.066-.053.066M18.46 10.277l-.023.11-.27 1.257.283-1.324.01-.043zM10.412 11.118l-.148.526.148-.525z"/><path d="M20.94 10.627l-.078-.327c-.06-.237-.234-.35-.623-.35h-1.637c-.038 0-.075.018-.083.055l-.62 2.942c-.008.037-.01.064-.006.082.004.018.077.014.114.014h.567c.038 0 .107.003.127-.005.02-.01.03-.066.038-.103l.2-1.032.245-1.144c.008-.036.045-.066.083-.066h1.62c.036 0 .06-.03.05-.067"/><path d="M23.244 9.434h-.718c-.038 0-.086.04-.107.072l-1.262 1.855c-.022.032-.046.03-.054-.006l-.093-.407c-.007-.037-.045-.067-.083-.067h-.81c-.038 0-.06.03-.05.068l.362 1.274c.01.036.01.096 0 .133l-.168.645c-.01.037.014.048.052.048h.8c.038 0 .076-.01.086-.048l.17-.654c.01-.036.035-.086.058-.117l2.058-2.73c.023-.03.02-.067-.018-.067h-.224zM14.805 9.953h-.732c-.037 0-.076.013-.083.05l-.242 1.13-.24 1.084c-.01.037-.046.034-.084.034h-.48c-.477 0-.422-.3-.324-.75l.305-1.498c.007-.037-.018-.05-.055-.05h-.697c-.038 0-.075.013-.082.05l-.28 1.497c-.14.808-.143 1.52.795 1.544h1.482c.038 0 .075-.012.083-.05l.318-1.5.317-1.507s.012-.034 0-.034zM7.518 9.95h-.784c-.038 0-.076.01-.084.046l-.142.612c-.008.036.016.065.054.065h.75c.04 0 .077-.034.085-.07l.136-.618s.01-.035-.015-.035zM6.512 10.88c-.037 0-.076.03-.084.067l-.106.467-.236 1.08s-.126.572-.138.608c0 0-.106.414-.358.397-.117-.01-.252-.036-.252-.036-.07-.02-.076.052-.084.09l-.156.67c-.01.038.015.07.052.07 0 0 .338.05.576.05h.04c.588 0 .9-.347 1.098-1.288l.233-1.09.22-1.012c.007-.037-.015-.07-.053-.07M16.656 9.946c-1.32 0-1.634.815-1.81 1.624-.174.824-.16 1.475 1.206 1.475H17.3c.037 0 .074-.035.08-.07l.135-.524c.008-.036-.017-.047-.055-.047h-1.228c-.445 0-.604-.137-.588-.445 0-.035.04-.124.077-.124h1.892c.083 0 .086-.05.086-.05.193-.868.206-1.838-1.042-1.838m.347 1.295c0 .042-.13.034-.13.034l-1.027-.007c-.036 0-.046-.05-.048-.085 0 0 .003-.043.006-.053.08-.277.317-.434.693-.434.423 0 .513.21.513.443M10.954 12.194s.37-.898.453-1.416c.115-.694-.233-1.7-1.575-1.7-1.335 0-1.914.96-2.136 2.005-.22 1.053.068 1.97 1.396 1.962h2.026c.037 0 .076-.03.086-.067l.17-.65c.01-.037-.013-.066-.05-.067h-.327c-.032 0-.05-.022-.046-.05 0-.005 0-.01.004-.016m-.697-.55l-.152.52c-.01.036-.053.06-.09.06h-.786c-.596 0-.74-.46-.596-1.145.145-.703.433-1.137 1.018-1.18.8-.06.964.504.77 1.154l-.165.59z"/></svg>