<svg role="img" viewBox="0 0 24 24" xmlns="http://www.w3.org/2000/svg"><title>JSFiddle icon</title><path d="M21.078 11.251c.01-.141.021-.278.021-.419 0-3.883-3.193-7.031-7.135-7.031-2.738-.01-5.24 1.548-6.441 4.009-.575-.442-1.28-.681-2.007-.681-1.82 0-3.295 1.45-3.295 3.24 0 .338.053.663.15.967C.908 12.181.004 13.739 0 15.429c0 2.602 2.124 4.717 4.759 4.755h14.25c.09 0 .18.015.27.015 2.609 0 4.723-2.083 4.723-4.662-.012-1.886-1.16-3.579-2.91-4.286h-.014zM6.44 16.602c-.479-.434-.779-.959-.898-1.58-.041-.216-.061-.434-.061-.652 0-.885.322-1.613.967-2.188.645-.576 1.462-.864 2.455-.864 1.02 0 1.979.383 2.831 1.146.21.189.417.404.614.641l1.091 1.284c.188.259.389.48.6.671.563.504 1.17.756 1.686.756.438 0 .801-.135 1.094-.402.248-.229.402-.539.434-.875l.008-.148c.002-.141-.021-.281-.064-.416-.227-.619-.824-1.023-1.484-1.001-.543 0-1.082.183-1.672.755l-.967-1.139-.105-.129c.855-.829 1.695-1.139 2.834-1.139 1.004 0 1.828.284 2.441.854l.016.015c.646.569.959 1.305.959 2.208 0 .21-.016.435-.059.63-.121.614-.42 1.124-.885 1.559-.477.435-1.07.717-1.709.81-.225.03-.449.045-.705.045-1.033 0-2.008-.375-2.832-1.124-.234-.212-.449-.443-.645-.689l-1.094-1.275c-.171-.244-.366-.471-.585-.674-.555-.51-1.17-.75-1.709-.75-.156 0-.313.021-.465.061-.235.06-.452.178-.629.345-.279.259-.438.623-.436 1.005 0 .389.135.719.42.988l.016.016c.3.27.675.404 1.109.404.555 0 1.094-.194 1.678-.764l.96 1.124.104.119c-.869.84-1.708 1.154-2.803 1.154-1.004 0-1.828-.284-2.458-.854l-.052.073z"/></svg>