<svg viewBox="0 0 16 16" xmlns="http://www.w3.org/2000/svg" fill-rule="evenodd" clip-rule="evenodd" stroke-linejoin="round" stroke-miterlimit="1.414"><path d="M8.017 16c.32-.003.636-.02.952-.062.72-.092 1.43-.29 2.1-.576.94-.402 1.8-.982 2.53-1.698.67-.66 1.23-1.436 1.63-2.287.34-.732.58-1.518.68-2.32.1-.774.09-1.565-.03-2.335-.1-.64-.28-1.265-.53-1.86-.16-.374-.35-.735-.57-1.08C14 2.556 12.87 1.57 11.57.912c-.463-.237-.95-.43-1.45-.58h-.003c.08.042.16.088.23.134.08.05.16.098.234.15.38.257.73.552 1.04.888.71.763 1.2 1.7 1.48 2.696.19.656.29 1.334.33 2.014.03.496.03.995-.03 1.488-.1.847-.37 1.675-.82 2.4-.33.535-.76 1.013-1.27 1.39-.83.62-1.92.99-2.96.744-.17-.04-.34-.098-.5-.172-.18-.083-.36-.185-.52-.3-.31-.207-.59-.457-.83-.738-.29-.347-.53-.742-.7-1.166-.21-.538-.32-1.116-.33-1.695-.02-.85.15-1.704.57-2.45.28-.496.66-.932 1.11-1.28.15-.118.31-.222.47-.32l.01-.004c-.31-.07-.64-.1-.96-.08-.28.02-.55.07-.82.16-.24.08-.47.18-.68.3-.17.1-.34.21-.49.33-.14.12-.28.24-.41.37-.75.77-1.18 1.79-1.35 2.84-.1.65-.1 1.31-.06 1.97.07.93.26 1.86.63 2.71.23.53.53 1.02.9 1.45.57.66 1.29 1.17 2.09 1.49.45.18.93.31 1.41.36.05.01.1.01.14.01zm-1.958-.265c-.11-.047-.21-.1-.3-.152-.1-.055-.2-.113-.3-.173-.39-.242-.74-.525-1.06-.852-.73-.758-1.22-1.712-1.5-2.723-.19-.69-.29-1.402-.33-2.116-.03-.47-.02-.93.03-1.39.09-.84.33-1.67.75-2.39.3-.53.71-1 1.19-1.37.33-.25.7-.46 1.09-.6.55-.2 1.14-.26 1.71-.18.22.03.44.08.64.15.02 0 .02 0 .03.02.01.01.03.01.04.02.03.01.07.03.11.05.16.08.32.18.47.28.6.42 1.09 1 1.4 1.67.28.61.41 1.29.42 1.96.01.72-.12 1.44-.43 2.1-.37.79-1 1.46-1.76 1.89.06.02.12.03.18.05.15.03.3.05.46.05.98.03 1.93-.44 2.63-1.1.13-.12.25-.25.36-.39.15-.18.29-.36.41-.55.16-.25.29-.5.41-.77.15-.36.27-.73.34-1.11.13-.67.14-1.35.1-2.02-.09-1.35-.45-2.7-1.23-3.82-.12-.17-.24-.33-.37-.48-.22-.25-.46-.48-.71-.69-.28-.23-.59-.44-.91-.61C9.6.34 9.21.19 8.8.09L8.6.05C8.46.03 8.32.02 8.177.01 7.96 0 7.73.003 7.5.02c-.47.03-.943.106-1.41.224-2.24.578-4.2 2.14-5.243 4.21-.334.66-.57 1.366-.708 2.09-.16.83-.18 1.684-.07 2.52.08.68.25 1.35.52 1.987.15.38.34.75.55 1.1.73 1.19 1.79 2.16 3.01 2.83.46.26.94.46 1.44.63.15.05.3.1.46.14z"/></svg>