<svg role="img" viewBox="0 0 24 24" xmlns="http://www.w3.org/2000/svg"><title>OWASP Juice Shop</title><path d="M14.46234 19.70186a455.29725 455.29725 0 0 0-2.74679-0.85756l-0.52434-0.1631 0.01901-0.10007c0.03903-0.20914 0.05804-0.24216 0.1481-0.25717a0.77551 0.77551 0 0 0 0.59839-0.82053 0.78051 0.78051 0 0 0-0.4513-0.67044c-0.12008-0.05904-0.1541-0.06504-0.34322-0.06404-0.17311 0.002-0.23015 0.01101-0.31821 0.05303a0.94061 0.94061 0 0 0-0.37525 0.34923c-0.10007 0.18612-0.23916 0.81653-0.24015 1.09371 0 0.08606-0.00801 0.11608-0.02802 0.10807l-0.37825-0.11807c-0.29019-0.09006-0.35223-0.11608-0.36023-0.1531-0.004-0.02502-0.03903-0.42027-0.07705-0.87858-0.07005-0.84855-0.13409-1.57703-0.23616-2.71177a88.05749 88.05749 0 0 1-0.07705-0.89958 72.04704 72.04704 0 0 0-0.07505-0.86657l-0.12408-1.38891-0.13308-1.52299a807.5272 807.5272 0 0 1-0.25517-2.9119l-0.10107-1.15476c-0.02502-0.29319-0.05003-0.55836-0.05703-0.58938-0.01001-0.05404-0.00801-0.05504 0.11007-0.04803 0.11307 0.007 0.12608 0.003 0.19513-0.07005 0.04003-0.04103 0.34322-0.31521 0.67143-0.60639 0.56437-0.50133 0.84755-0.75349 2.2885-2.03933 0.38025-0.34022 0.60339-0.52334 0.6164-0.51034 0.01801 0.01801 1.03568 1.49498 2.21945 3.22211l0.3002 0.43628 0.37824-0.01501c0.20814-0.00801 0.85356-0.03903 1.43394-0.06804s1.20579-0.06004 1.38891-0.06705 0.80853-0.03702 1.3889-0.06604c1.73713-0.08806 1.71112-0.08706 1.71112-0.04003 0 0.03602-0.03202 0.41427-0.16611 1.93927l-0.25617 2.93291-0.12208 1.38891c-0.03002 0.33022-0.06004 0.68044-0.06804 0.77851l-0.06704 0.77751c-0.03002 0.33022-0.05904 0.66543-0.06505 0.74448l-0.06504 0.7675-0.12308 1.41093c-0.12208 1.40792-0.17812 2.03133-0.19012 2.1464-0.01301 0.11107-0.01401 0.11407-0.10607 0.13609-0.05103 0.01301-0.56337 0.1551-1.13775 0.3172a565.36911 565.36911 0 0 1-2.54466 0.71147c-0.08005 0.02201-0.43228 0.12008-0.78551 0.22014-0.35223 0.09906-0.65643 0.18012-0.67744 0.17812a1.40091 1.40091 0 0 1-0.19313-0.05304z m0.43529-0.6094l1.02066-0.26917c0.47031-0.12408 0.90459-0.24016 0.96663-0.25517l0.96663-0.25516c0.47031-0.12508 0.89358-0.23615 0.93962-0.24717 0.13909-0.03302 0.54936-0.1501 0.56837-0.1631a0.70046 0.70046 0 0 0 0.03202-0.20614 46.03005 46.03005 0 0 1 0.07005-0.78451 1499.97928 1499.97928 0 0 0 0.49032-5.27744l0.06604-0.71147 0.06604-0.71146c0.05303-0.55636 0.07305-0.7665 0.16811-1.81119a412.26915 412.26915 0 0 1 0.24416-2.62071c0-0.02302-0.03802-0.02702-0.18412-0.01501-0.10007 0.007-0.49332 0.02802-0.87157 0.04703-0.38025 0.01801-1.03968 0.05303-1.46696 0.07705s-1.09371 0.06004-1.47796 0.07906c-1.10072 0.05604-1.66709 0.09206-1.6811 0.10406-0.01201 0.01301-0.03903 2.9119-0.07405 8.14032a677.44228 677.44228 0 0 1-0.03602 4.1387c-0.01001 0.50733-0.007 0.78351 0.00801 0.78351 0.01201 0 0.09506-0.01901 0.18512-0.04203m-0.69045-4.76911c-0.01301-0.4523-0.04003-2.04233-0.05804-3.53431a500.32664 500.32664 0 0 0-0.03903-2.71377c-0.002-0.002-0.22415-0.02001-0.49232-0.03902l-0.63942-0.04703-0.15009-0.01101v0.13208c0 0.07305 0.01501 0.48031 0.03302 0.9056 0.02702 0.64142 0.07805 4.36485 0.07805 5.70672 0 0.35123-0.001 0.36724-0.04403 0.36724-0.02402 0-0.18112-0.03002-0.35023-0.06604a120.07839 120.07839 0 0 0-1.26082-0.26718l-0.48332-0.10306c-0.1561-0.03402-0.29019-0.05404-0.29819-0.04503-0.01801 0.01801 0.08005 1.28384 0.10106 1.30885 0.01301 0.01401 0.24816 0.06905 1.18077 0.27318a585.38217 585.38217 0 0 1 2.24347 0.49332l0.19012 0.04103 0.00701-0.79052a50.03266 50.03266 0 0 0-0.01701-1.61105z m0.20613-9.26805l-0.45129-0.65443c-0.12208-0.17511-1.67109-2.43459-2.02132-2.94792l-0.18312-0.26918 0.02401-0.48932c0.01401-0.26918 0.02502-0.52334 0.02502-0.56437 0-0.14009-0.006-0.13909 0.4683-0.07604 0.23715 0.03102 0.47631 0.06204 0.53035 0.06704l0.54536 0.06704 1.08871 0.13409c1.95328 0.23715 3.68541 0.4543 3.69241 0.4623 0.001 0.003 0.02702 0.18812 0.05503 0.41227l0.05304 0.40927 0.19813 0.25817 0.69345 0.90259a180.11759 180.11759 0 0 0 0.7655 1.00065c0.49432 0.64742 0.82054 1.0727 1.02367 1.33487l0.10407 0.13509-0.6034 0.02702-1.48096 0.07004-1.38891 0.06705-1.60105 0.07805a111.07251 111.07251 0 0 1-1.14875 0.05403c-0.05303 0-0.09706-0.05504-0.38825-0.47831m3.14205-0.69645c0.06905-0.03502 0.66043-0.66744 0.79552-0.85056 0.06004-0.08205 0.06704-0.10607 0.06704-0.26017s-0.00901-0.18812-0.09306-0.35923a1.90124 1.90124 0 0 0-0.50132-0.62141 2.20144 2.20144 0 0 0-0.65043-0.35823c-0.16411-0.04603-0.38225-0.04003-0.48031 0.01401-0.10007 0.05303-0.81253 0.83254-0.85556 0.93461-0.06704 0.16111-0.01001 0.42128 0.1501 0.68945 0.09806 0.16311 0.39326 0.4653 0.57237 0.58538 0.38425 0.25817 0.7665 0.34523 0.99565 0.22615m-9.13296 0.73648c-0.03402-0.005-0.06104-0.01401-0.06104-0.02002 0-0.005 0.17712-0.22515 0.39426-0.48932a232.15156 232.15156 0 0 0 0.96062-1.17576l0.44529-0.54336a310.20252 310.20252 0 0 0 1.17877-1.43994l0.17011-0.20613 0.01401-0.21614c0.00801-0.11908 0.01501-0.39326 0.01501-0.6104V0h0.24817l-0.01501 0.35023c-0.00901 0.19213-0.02302 0.4603-0.03202 0.59439l-0.01501 0.24416 0.20113 0.29519 0.22414 0.32821c0.02702 0.04103 0.02001 0.04703-0.78851 0.7655-0.32321 0.28719-0.74349 0.66243-0.93361 0.83355-0.19012 0.17211-0.57037 0.51133-0.84355 0.75549l-0.71047 0.63341c-0.32521 0.29319-0.34523 0.3102-0.36924 0.3072z m9.29607-1.51499a2.10137 2.10137 0 0 1-0.93861-0.68745 2.00131 2.00131 0 0 1-0.16912-0.28819 0.60039 0.60039 0 0 1-0.08105-0.32621c-0.002-0.28018 0.12508-0.38025 0.4533-0.36224 0.20814 0.01201 0.39626 0.08305 0.64642 0.24416 0.47531 0.3072 0.83555 0.87457 0.75549 1.19278a0.35023 0.35023 0 0 1-0.18212 0.23815c-0.08305 0.04303-0.33522 0.03802-0.48531-0.01zM17.005 4.32582a1.70111 1.70111 0 0 1-0.56036-0.32421c-0.40627-0.32721-0.66143-0.78551-0.59339-1.06769 0.02201-0.09206 0.07005-0.1561 0.32921-0.44329l0.3042-0.33622 0.01401 0.1561c0.05504 0.60039 0.86857 1.33487 1.48297 1.33987 0.06905 0 0.1501-0.007 0.18012-0.01601 0.04603-0.01501 0.03702 0.001-0.05304 0.10207-0.06004 0.06504-0.18812 0.21014-0.28618 0.32021-0.25216 0.28118-0.31621 0.32121-0.51334 0.32021a0.90059 0.90059 0 0 1-0.3042-0.05004zM14.73252 18.15185l0.05303-6.49524c0.02502-3.04399 0.04903-5.54562 0.05304-5.55863 0.005-0.01501 0.1501-0.03002 0.40426-0.04003 0.21814-0.00801 0.73648-0.03402 1.15275-0.05803s0.97063-0.05404 1.23281-0.06605c0.26317-0.01301 0.92861-0.04803 1.47796-0.07805 1.51299-0.08205 1.3709-0.07905 1.35789-0.03702-0.005 0.02001-0.01601 0.12708-0.02402 0.23715s-0.04303 0.51033-0.07905 0.88858l-0.26517 2.85587a827.54027 827.54027 0 0 0-0.25517 2.7558l-0.25716 2.7668-0.13209 1.41092c-0.03602 0.38525-0.07205 0.79252-0.08005 0.9056a0.80052 0.80052 0 0 1-0.04003 0.23615c-0.01401 0.01601-0.23015 0.08305-0.48031 0.1481-0.55136 0.14209-0.70546 0.18312-1.95628 0.51433l-1.12173 0.2962c-0.46831 0.12308-0.98064 0.25817-1.01366 0.26917-0.03302 0.01001-0.03502-0.07805-0.02802-0.95062z m0.94762-1.47396l0.44829-0.10007 0.65543-0.14309c0.20213-0.04303 0.4523-0.09806 0.55636-0.12208 0.10307-0.02402 0.34823-0.07805 0.54436-0.12008 0.70546-0.1541 1.20078-0.26317 1.20478-0.26717 0.003-0.003 0.01501-0.14409 0.02702-0.31421s0.04803-0.62041 0.07905-0.99865c0.20714-2.56167 0.24316-3.03198 0.22915-3.04599-0.007-0.006-0.19012 0.02001-0.40927 0.05704-1.42393 0.24516-1.92125 0.33222-2.01931 0.35523a1.00065 1.00065 0 0 1-0.1501 0.02101h-0.06204v-0.56036c0-0.3082 0.007-0.82354 0.01501-1.14375l0.01501-0.58238 0.09006-0.01201c0.22915-0.03002 1.95628-0.27218 2.38055-0.33221l0.33322-0.04803 0.01601-0.20014c0.01001-0.10907 0.03702-0.44329 0.06104-0.74248 0.06004-0.71747 0.06504-0.65042-0.05003-0.63541-0.05103 0.007-0.41327 0.03802-0.80453 0.06904l-3.27114 0.26317a1032.67419 1032.67419 0 0 0-0.06003 4.88719l-0.01001 0.88258 0.04803-0.01001 0.24816-0.05403c0.37825-0.08205 1.62306-0.35923 1.90925-0.42528 0.1571-0.03702 0.28919-0.06404 0.29219-0.06004 0.003 0.003 0.00901 0.28218 0.01301 0.62041l0.009 0.6164-0.11207 0.02601a637.41614 637.41614 0 0 1-2.28449 0.58038l-0.17211 0.04503v0.7645c0 0.67544 0.004 0.7635 0.03502 0.7635 0.01901 0 0.10607-0.01501 0.19413-0.03402z m-1.58504 7.19069c-0.37925-0.10007-0.53735-0.1561-1.24281-0.43628-0.69345-0.27618-1.13074-0.41227-1.61305-0.50533-0.50033-0.09706-0.78251-0.11307-1.96629-0.11208-1.29084 0.001-1.8342 0.03202-3.6784 0.20914-1.73713 0.16611-2.42758 0.21214-2.89989 0.19213-0.64942-0.02802-1.02167-0.13008-1.2278-0.33722-0.12308-0.12408-0.1581-0.23715-0.1461-0.47031 0.01401-0.27018 0.09506-0.44029 0.31321-0.66043 0.20013-0.20013 0.42828-0.35323 0.89358-0.60139 1.28684-0.68645 1.51299-0.85156 2.10638-1.54301 0.37625-0.43829 1.00566-1.0797 1.26482-1.28784 0.73348-0.59039 1.52199-0.95562 2.5957-1.20079 0.28018-0.06404 0.82554-0.16311 0.83554-0.1521 0.002 0.002 0.03002 0.27318 0.06004 0.6004 0.03002 0.32821 0.06004 0.59839 0.06404 0.60139 0.01901 0.01301 0.74649 0.23615 0.77051 0.23615 0.01601 0 0.02602-0.04003 0.02601-0.10507 0-0.25216 0.13008-0.86857 0.21814-1.04268a0.60039 0.60039 0 0 1 0.38125-0.29819c0.37725-0.11407 0.70446 0.02502 0.85656 0.36324 0.05604 0.12308 0.06004 0.1511 0.05004 0.34722-0.00801 0.17211-0.02201 0.23816-0.07005 0.34023a0.52034 0.52034 0 0 1-0.32121 0.29018q-0.09706 0.02702-0.12508 0.08306c-0.04003 0.07905-0.08305 0.29319-0.06304 0.3132 0.01001 0.01001 0.3122 0.10907 0.67344 0.22015l1.60605 0.50233c0.52234 0.16311 0.99565 0.3092 1.05068 0.32321s0.09306 0.03302 0.08306 0.04302c-0.05704 0.05504-0.87457 0.1541-1.63707 0.19813-0.51334 0.03002-1.96528 0.02902-2.43659 0a14.00915 14.00915 0 0 1-1.56703-0.18011 5.00327 5.00327 0 0 0-0.55536-0.07906c-0.77651-0.04603-1.70711 0.34723-2.58969 1.09372-0.52734 0.44729-1.01967 1.0787-1.02067 1.31286-0.002 0.19012 0.22315 0.20013 1.03268 0.04202 1.0757-0.20914 1.63106-0.28318 2.41858-0.32221 1.18477-0.05904 2.48362 0.12508 3.47026 0.49232 0.48832 0.18012 0.95763 0.4523 1.55602 0.89959 0.49032 0.36624 0.72347 0.51133 0.99865 0.62241 0.22014 0.09006 0.1501 0.09306-0.16511 0.008m-9.52922-1.17076c0.11207-0.05604 0.14009-0.18412 0.06004-0.27018-0.1591-0.17111-0.55336-0.09006-0.55336 0.11208 0 0.17011 0.28919 0.26217 0.49332 0.1591m4.91321-3.05199c0.47231-0.1461 0.31721-0.47831-0.24416-0.52435-0.49432-0.04003-0.89358 0.21214-0.65943 0.41628 0.17111 0.1481 0.60439 0.20013 0.90359 0.10807m0.70446-0.67544c0.09806-0.03602 0.11007-0.08506 0.02902-0.12409-0.09006-0.04303-0.4613-0.05404-0.58438-0.01701-0.12808 0.03802-0.13809 0.10307-0.02202 0.1431 0.10207 0.03502 0.47831 0.03302 0.57738-0.002m0.42027-0.83655c0.06004-0.33722 0.09006-0.39426 0.3012-0.59439 0.20213-0.19012 0.24416-0.25016 0.22315-0.31721-0.01801-0.05504-0.12108-0.11007-0.20914-0.11007-0.20814 0-0.49132 0.52634-0.49032 0.9096 0.001 0.21014 0.06504 0.41227 0.11407 0.36323 0.01001-0.01001 0.03802-0.12308 0.06004-0.25016z m4.18073 5.85182c-0.49232-0.08606-0.80052-0.24216-1.529-0.77751-0.52534-0.38625-0.74849-0.52634-1.14975-0.72047-0.59039-0.28419-1.29485-0.47531-2.25547-0.6104-0.34623-0.04803-1.60205-0.06804-2.03133-0.03202-0.59839 0.05003-1.10572 0.12808-2.24646 0.34523-0.35623 0.06804-0.67344 0.08405-0.73048 0.03602-0.05504-0.04603-0.04403-0.1601 0.02902-0.29619 0.39526-0.74048 1.47096-1.63807 2.37955-1.9843 0.34222-0.13109 0.6174-0.19012 0.94362-0.20413a1.80118 1.80118 0 0 1 0.56737 0.04503c0.83454 0.17011 1.66509 0.23715 2.97494 0.23615 0.42328 0 1.02567-0.01501 1.33888-0.03202 0.90559-0.05103 1.2268-0.09806 1.83119-0.26717l1.55502-0.43429 0.71146-0.19913 0.67844-0.18912 1.55102-0.43528c0.41127-0.11407 0.50033-0.1461 0.51633-0.18512 0.01001-0.02502 0.03502-0.24616 0.05604-0.49032 0.02001-0.24516 0.03903-0.44729 0.04003-0.4493 0.01001-0.01001 0.42528 0.13008 0.67043 0.22615q1.69611 0.67044 1.95628 1.92326c0.05303 0.25317 0.05303 0.68044 0 0.9336-0.08005 0.38025-0.29519 0.71046-0.59639 0.9146-0.32021 0.21814-0.66944 0.34222-1.68109 0.59839-1.11673 0.28318-1.60405 0.43528-2.17643 0.68045-0.6134 0.26117-0.94061 0.4643-1.45895 0.90359-0.32021 0.27018-0.60039 0.39126-1.06669 0.4573a6.00392 6.00392 0 0 1-0.87858 0.008z m0.41027-0.37424c0.19513-0.09506 0.19213-0.25517-0.007-0.4523-0.33522-0.33222-1.04368-0.51834-1.36089-0.35723-0.09806 0.05003-0.13209 0.10107-0.13209 0.20013 0 0.10007 0.05003 0.18212 0.18212 0.29719 0.33522 0.29319 1.02367 0.4573 1.31786 0.31321z m1.00366-0.55537c0.05704-0.1461-0.71947-0.4563-0.93461-0.37424-0.05804 0.02201-0.04003 0.09206 0.03902 0.1521 0.09206 0.07005 0.33622 0.18212 0.48832 0.22314 0.16411 0.04403 0.39025 0.04403 0.40827 0m4.35484-1.77916c0.16911-0.08005 0.23816-0.3062 0.13809-0.45229a0.44829 0.44829 0 0 0-0.67044-0.05304c-0.28318 0.3032 0.13008 0.69645 0.53235 0.50533m1.0677-0.6154c0.3042-0.1541 0.49032-0.51133 0.4703-0.90559a0.65042 0.65042 0 0 0-0.08305-0.34022 0.65042 0.65042 0 0 0-0.17512-0.22515c-0.11808-0.09206-0.1601-0.10607-0.29519-0.09606-0.08706 0.006-0.10207 0.01601-0.13509 0.08505a1.40091 1.40091 0 0 0-0.06304 0.35523c-0.02702 0.3102-0.04403 0.38025-0.17511 0.70847-0.10107 0.25417-0.11307 0.35423-0.05003 0.41227 0.10507 0.09306 0.32821 0.09606 0.50633 0.006m-11.14728-2.41658a1.13074 1.13074 0 0 1 0.11007-0.75049q0.17912-0.36024 0.34022-0.36023c0.10507 0 0.20513 0.08205 0.18312 0.1501a1.00065 1.00065 0 0 1-0.18112 0.19812c-0.22014 0.19613-0.26818 0.28318-0.33321 0.6024l-0.05304 0.26617c0 0.003-0.01001 0.006-0.02001 0.00601-0.01201 0-0.03202-0.05003-0.04503-0.11208z m-0.86256 0.71047c-0.09406-0.02902-0.09106-0.06004 0.01-0.10207s0.49833-0.03302 0.58138 0.01201c0.05003 0.02702 0.05003 0.03202 0.01701 0.06604-0.03002 0.02902-0.09006 0.03702-0.28618 0.04103a1.70111 1.70111 0 0 1-0.32221-0.01701m-0.77451 0.68144a0.80052 0.80052 0 0 1-0.19513-0.07905c-0.22215-0.13609-0.10507-0.31621 0.25617-0.39226 0.38825-0.08205 0.86056 0.05904 0.83755 0.25017-0.01001 0.08305-0.13609 0.17712-0.2952 0.21814-0.1561 0.04003-0.44329 0.04203-0.60239 0.003M4.27669 22.71483c-0.09006-0.02201-0.18212-0.10407-0.18212-0.16211 0-0.11608 0.11407-0.19413 0.28419-0.19412 0.23015 0 0.35023 0.17411 0.20413 0.29719-0.03802 0.03202-0.08606 0.05804-0.10707 0.05804l-0.08105 0.01001a0.3002 0.3002 0 0 1-0.11808-0.01001z m10.32975 0.90059c-0.26818-0.05003-0.60039-0.21514-0.7655-0.38025-0.18612-0.18512-0.17611-0.34723 0.02401-0.42428 0.39226-0.1501 1.2308 0.13809 1.41092 0.48532 0.05504 0.11007 0.05303 0.1571-0.01401 0.23515-0.09406 0.11207-0.33822 0.14409-0.65542 0.08506m1.10071-0.6104c-0.3002-0.09106-0.47831-0.20213-0.44829-0.28018 0.01301-0.03502 0.03402-0.03802 0.16511-0.02702 0.31421 0.02802 0.80653 0.25617 0.75049 0.34823-0.02702 0.04303-0.26317 0.02201-0.46831-0.04003z m-4.09267-4.83316q0-0.004 0.00901-0.012a0.50033 0.50033 0 0 0 0.08505-0.13809q0.005-0.001 0.00601-0.00801c0-0.00901 0.002-0.01401 0.01601-0.04003l0.006-0.02401q0-0.01001 0.00501-0.01101 0.005-0.002 0.008-0.01801l0.00901-0.04003a0.20013 0.20013 0 0 0 0.006-0.04302c0-0.01101 0.002-0.02201 0.006-0.02402 0.002-0.002 0.005-0.01801 0.00501-0.03602s0.003-0.03402 0.006-0.03603a1.00065 1.00065 0 0 0 0.00501-0.13408 0.70046 0.70046 0 0 0-0.01702-0.18613q-0.005-0.002-0.005-0.01501a0.64042 0.64042 0 0 0-0.12208-0.25116 1.00065 1.00065 0 0 0-0.16411-0.1561q-0.007 0-0.008-0.004-0.001-0.006-0.02402-0.01501l-0.02601-0.01401a0.10007 0.10007 0 0 0-0.03603-0.01701q-0.00801 0-0.008-0.00501t-0.00901-0.006l-0.02001-0.00601a0.13008 0.13008 0 0 0-0.06004-0.01901 0.10007 0.10007 0 0 1-0.03102-0.008c-0.002-0.003-0.02201-0.005-0.04403-0.00501-0.02302 0-0.04303-0.003-0.04503-0.006-0.004-0.007-0.09106-0.007-0.09106 0 0 0.003-0.02201 0.006-0.05503 0.006a0.20013 0.20013 0 0 0-0.05804 0.00401 0.10007 0.10007 0 0 1-0.04303 0.008 0.3002 0.3002 0 0 0-0.09006 0.02202l-0.01801 0.005-0.01801 0.004-0.02302 0.01001a1.00065 1.00065 0 0 0-0.12408 0.06304q-0.01401 0.00801-0.01501 0.01201 0 0.005-0.006 0.005c-0.006 0-0.007 0-0.04103 0.03002q-0.02001 0.01701-0.02502 0.01701a0.50033 0.50033 0 0 1 0.13009-0.13309 0.50033 0.50033 0 0 1 0.10407-0.06804q0.00901-0.003 0.01-0.008 0.001-0.004 0.01001-0.00501 0.01001 0 0.01301-0.004a0.50033 0.50033 0 0 1 0.1541-0.05704q0.01001 0 0.01401-0.005c0.002-0.003 0.01501-0.006 0.02902-0.00601 0.01301 0 0.02402-0.002 0.02401-0.005 0-0.004 0.02201-0.006 0.05604-0.006 0.03302 0 0.05504-0.002 0.05504-0.00501q0.001-0.005 0.008-0.006 0.00801 0 0.00901 0.006c0 0.003 0.02201 0.005 0.05503 0.00501 0.03402 0 0.05604 0.003 0.05604 0.006q0.002 0.005 0.02401 0.005c0.01401 0 0.02702 0.003 0.02802 0.00601q0.005 0.005 0.02202 0.005t0.02301 0.00501a0.80052 0.80052 0 0 1 0.25717 0.13408c0.007 0 0.12908 0.12008 0.12908 0.12609q0 0.005 0.01201 0.01801l0.03202 0.04202c0.01001 0.01501 0.02001 0.02902 0.02302 0.03002q0.005 0.002 0.005 0.01101c0 0.005 0.003 0.01501 0.00801 0.02001a0.04003 0.04003 0 0 1 0.008 0.02102q0 0.00901 0.00601 0.01 0.005 0.001 0.005 0.01001 0 0.01101 0.006 0.01201 0.005 0.001 0.00501 0.01101t0.006 0.011 0.005 0.01401 0.00501 0.01401c0.002 0 0.007 0.01401 0.01 0.03202l0.01401 0.05404 0.00801 0.05403c0.002 0.01801 0.005 0.03202 0.008 0.03202a0.70046 0.70046 0 0 1-0.03002 0.31721c-0.003 0.01501-0.007 0.02702-0.01 0.02702q-0.005 0.001-0.00501 0.01001a0.3002 0.3002 0 0 1-0.02501 0.06003l-0.02502 0.05804-0.005 0.00601q-0.005 0-0.00601 0.008 0 0.007-0.005 0.00801-0.005 0-0.006 0.007 0 0.00801-0.01001 0.01801l-0.02602 0.03302c-0.02001 0.02702-0.02001 0.02702-0.05003 0.06104a0.20013 0.20013 0 0 0-0.02502 0.03203q0 0.004-0.005 0.005a0.10007 0.10007 0 0 0-0.02401 0.01601c-0.03802 0.03402-0.05103 0.04503-0.05804 0.04503q-0.006-0.001-0.00701-0.00501"/></svg>