<svg xmlns="http://www.w3.org/2000/svg" role="img" viewBox="0 0 24 24"><path d="M 14.4586 19.6989 c -0.1423 -0.0473 -1.4526 -0.4566 -2.7447 -0.8573 l -0.5238 -0.1624 0.0188 -0.1011 c 0.0386 -0.2076 0.0577 -0.2406 0.1484 -0.256 0.1005 -0.017 0.2791 -0.1159 0.367 -0.2034 0.1668 -0.1659 0.2463 -0.3784 0.231 -0.6175 -0.019 -0.2964 -0.1812 -0.5367 -0.4518 -0.6696 -0.1188 -0.0583 -0.1531 -0.0647 -0.343 -0.0633 -0.1727 0.0013 -0.2303 0.0108 -0.3172 0.0527 -0.1448 0.0699 -0.3056 0.2192 -0.3755 0.3488 -0.1004 0.1863 -0.2387 0.8164 -0.2397 1.0929 -0.0003 0.0859 -0.0082 0.116 -0.0282 0.1084 -0.0152 -0.0058 -0.1855 -0.059 -0.3783 -0.1182 -0.2899 -0.089 -0.352 -0.1155 -0.3589 -0.1528 -0.0045 -0.0248 -0.0395 -0.42 -0.0777 -0.878 -0.0706 -0.8478 -0.1341 -1.5763 -0.2362 -2.7096 -0.0313 -0.3481 -0.0661 -0.7529 -0.0771 -0.8995 -0.011 -0.1466 -0.0448 -0.5363 -0.0751 -0.8662 -0.0302 -0.3298 -0.0858 -0.9545 -0.1234 -1.3881 -0.0377 -0.4336 -0.0978 -1.1182 -0.1337 -1.5214 -0.0359 -0.4031 -0.0956 -1.0827 -0.1327 -1.5103 -0.0372 -0.4276 -0.0921 -1.0572 -0.1221 -1.3993 -0.03 -0.342 -0.0754 -0.8617 -0.1007 -1.155 -0.0253 -0.2932 -0.0509 -0.558 -0.0568 -0.5886 -0.0106 -0.0544 -0.0084 -0.0554 0.1098 -0.0481 0.1129 0.007 0.1255 0.0025 0.1949 -0.0693 0.0408 -0.0422 0.343 -0.3155 0.6715 -0.6072 0.5637 -0.5005 0.8467 -0.7527 2.287 -2.038 0.3797 -0.3389 0.6021 -0.5228 0.6157 -0.5091 0.0179 0.0179 1.0345 1.4935 2.2181 3.2197 l 0.2989 0.436 0.3784 -0.015 c 0.2081 -0.0082 0.8531 -0.039 1.4334 -0.0684 0.5802 -0.0294 1.2049 -0.0594 1.3881 -0.0667 0.1833 -0.0073 0.8078 -0.0373 1.3881 -0.0664 1.7359 -0.0873 1.7102 -0.0866 1.7102 -0.0405 0.0001 0.0373 -0.0324 0.415 -0.1664 1.9385 -0.0611 0.695 -0.1502 1.7166 -0.2555 2.9317 -0.0376 0.4336 -0.0928 1.0583 -0.1226 1.3881 -0.0298 0.3298 -0.0602 0.6796 -0.0674 0.7774 -0.0072 0.0977 -0.0375 0.4476 -0.0671 0.7774 -0.0296 0.3298 -0.0589 0.6646 -0.065 0.744 -0.0062 0.0794 -0.0357 0.4242 -0.0658 0.7663 -0.03 0.342 -0.0854 0.9766 -0.123 1.4104 -0.122 1.4069 -0.1772 2.03 -0.1899 2.1453 -0.0122 0.1113 -0.0138 0.1135 -0.1056 0.136 -0.0513 0.0125 -0.563 0.1551 -1.1371 0.3167 -0.5741 0.1616 -1.1288 0.3172 -1.2326 0.3459 -0.1038 0.0286 -0.3187 0.0886 -0.4775 0.1331 -0.4994 0.14 -0.6841 0.1915 -0.8329 0.2322 -0.0794 0.0217 -0.4324 0.1206 -0.7845 0.2198 -0.3521 0.0991 -0.6569 0.1795 -0.6774 0.1785 -0.0205 -0.001 -0.1072 -0.0251 -0.1928 -0.0535 z m 0.4358 -0.6087 c 0.0901 -0.0231 0.5486 -0.1442 1.0189 -0.2689 0.4703 -0.1247 0.905 -0.2395 0.9662 -0.255 0.0611 -0.0154 0.4958 -0.1305 0.9662 -0.2554 0.4703 -0.1251 0.8929 -0.2363 0.9392 -0.2473 0.1386 -0.033 0.5489 -0.1501 0.5684 -0.1622 0.01 -0.0062 0.0242 -0.099 0.0315 -0.2063 0.0073 -0.1072 0.0386 -0.46 0.0694 -0.7837 0.0726 -0.7614 0.1642 -1.7455 0.3683 -3.9534 0.0378 -0.4092 0.0933 -1.0039 0.1232 -1.3215 0.0299 -0.3176 0.0594 -0.6374 0.0654 -0.7108 0.006 -0.0733 0.0357 -0.3931 0.066 -0.7108 0.0529 -0.556 0.0724 -0.7662 0.1677 -1.8101 0.0766 -0.8386 0.1557 -1.686 0.2004 -2.1438 0.0239 -0.2446 0.0434 -0.4581 0.0434 -0.4746 0 -0.0238 -0.0377 -0.027 -0.1833 -0.0159 -0.1008 0.0077 -0.493 0.0289 -0.8718 0.0473 -0.3787 0.0184 -1.0383 0.0529 -1.4659 0.0768 -0.4276 0.0239 -1.0922 0.0596 -1.4769 0.0793 -1.1006 0.0564 -1.6658 0.0916 -1.6788 0.1044 -0.013 0.013 -0.0395 2.9088 -0.0745 8.1342 -0.0123 1.8445 -0.0288 3.706 -0.0365 4.1366 -0.0091 0.5072 -0.0064 0.7829 0.0078 0.7829 0.012 0 0.0956 -0.0189 0.1857 -0.042 z m -0.6898 -4.7664 c -0.0134 -0.452 -0.0401 -2.041 -0.0591 -3.5313 -0.019 -1.4902 -0.0364 -2.7108 -0.0384 -2.7124 -0.0021 -0.0016 -0.2237 -0.0192 -0.4924 -0.0391 -0.2687 -0.0199 -0.5561 -0.041 -0.6385 -0.0472 l -0.1499 -0.0112 v 0.1323 c 0 0.0728 0.0148 0.4801 0.0328 0.9052 0.0272 0.641 0.0783 4.362 0.0783 5.7029 0 0.3511 -0.0019 0.3672 -0.044 0.3672 -0.0242 0 -0.1815 -0.0298 -0.3498 -0.0662 -0.1682 -0.0364 -0.4757 -0.1016 -0.6834 -0.145 -0.2077 -0.0433 -0.4675 -0.0981 -0.5775 -0.1217 -0.1099 -0.0235 -0.3271 -0.0701 -0.4827 -0.1035 -0.1555 -0.0334 -0.2898 -0.0536 -0.2984 -0.0449 -0.0178 0.0178 0.0804 1.2836 0.1015 1.3078 0.0127 0.0146 0.2476 0.069 1.1792 0.2731 1.0337 0.2265 1.5064 0.3304 1.7657 0.3883 0.1588 0.0354 0.3737 0.0827 0.4775 0.1052 l 0.1888 0.0407 0.0073 -0.7892 c 0.004 -0.4341 -0.0037 -1.159 -0.0171 -1.6109 z M 14.4096 5.0617 c -0.1808 -0.2631 -0.3836 -0.5574 -0.4508 -0.6541 -0.1215 -0.1749 -1.6699 -2.4328 -2.0198 -2.9455 l -0.1835 -0.2688 0.0245 -0.4891 c 0.0135 -0.269 0.0246 -0.5228 0.0248 -0.564 0.0006 -0.1402 -0.0058 -0.1391 0.4683 -0.0765 0.237 0.0313 0.4759 0.0618 0.5308 0.0676 0.055 0.0058 0.2998 0.0357 0.5441 0.0664 0.2443 0.0307 0.7341 0.091 1.0883 0.1341 1.9519 0.2375 3.6831 0.4545 3.6895 0.4625 0.0017 0.0022 0.0268 0.1876 0.0557 0.4121 l 0.0526 0.4082 0.1984 0.258 c 0.1091 0.1419 0.2676 0.348 0.3522 0.4579 0.0846 0.1099 0.2376 0.3099 0.34 0.4442 0.1024 0.1344 0.2669 0.3493 0.3654 0.4775 0.0985 0.1283 0.2783 0.3631 0.3996 0.522 0.4945 0.6476 0.8204 1.0728 1.0229 1.3348 l 0.1047 0.1354 -0.6031 0.027 c -0.3317 0.0149 -0.9978 0.0464 -1.4804 0.0701 -0.4825 0.0237 -1.1071 0.0537 -1.3881 0.0665 -0.2809 0.013 -1.0005 0.048 -1.5991 0.0778 -0.5985 0.0299 -1.1153 0.0542 -1.1483 0.0542 -0.0531 -0.0001 -0.0976 -0.055 -0.3887 -0.4784 z m 3.1404 -0.6954 c 0.0686 -0.0354 0.6595 -0.6673 0.7952 -0.8504 0.0605 -0.0815 0.0666 -0.1055 0.0664 -0.26 -0.0001 -0.1544 -0.0086 -0.1875 -0.0928 -0.3589 -0.1113 -0.227 -0.2838 -0.4409 -0.5013 -0.6214 -0.1742 -0.1447 -0.4722 -0.3088 -0.6494 -0.3577 -0.1643 -0.0454 -0.3826 -0.039 -0.4808 0.0138 -0.0997 0.0537 -0.8117 0.8326 -0.8543 0.9345 -0.0674 0.1611 -0.0109 0.421 0.1496 0.6886 0.0981 0.1635 0.3932 0.4656 0.572 0.5855 0.3847 0.2578 0.7664 0.3445 0.9953 0.226 z M 8.4231 5.1022 c -0.0336 -0.0051 -0.0611 -0.0138 -0.0611 -0.0193 0 -0.0056 0.1774 -0.226 0.3942 -0.4899 0.2169 -0.2638 0.4891 -0.5966 0.6052 -0.7393 0.116 -0.1428 0.2755 -0.3389 0.3545 -0.4359 0.0789 -0.097 0.2792 -0.3413 0.445 -0.5428 0.1659 -0.2015 0.4606 -0.5614 0.655 -0.7995 0.1944 -0.2382 0.43 -0.5259 0.5234 -0.6393 l 0.1699 -0.2062 0.0143 -0.2158 c 0.0079 -0.1187 0.0144 -0.3932 0.0144 -0.61 l 0.0001 -0.3942 h 0.1241 0.1241 l -0.0156 0.3498 c -0.0085 0.1923 -0.0227 0.4598 -0.0313 0.5941 l -0.0158 0.2443 0.2015 0.2948 c 0.1108 0.1622 0.2115 0.3101 0.2238 0.3285 0.0267 0.0405 0.0206 0.0464 -0.788 0.7646 -0.3232 0.2871 -0.7428 0.662 -0.9326 0.8332 -0.1898 0.1712 -0.5693 0.511 -0.8435 0.7551 -0.2742 0.2442 -0.5931 0.5289 -0.7088 0.6327 -0.3259 0.2928 -0.3458 0.3093 -0.3695 0.3067 -0.0122 -0.0013 -0.0497 -0.0066 -0.0833 -0.0117 z M 17.7123 3.5881 c -0.3323 -0.1075 -0.7157 -0.3884 -0.9376 -0.687 -0.0483 -0.0649 -0.124 -0.1945 -0.1684 -0.2878 -0.0685 -0.1441 -0.0808 -0.1934 -0.0814 -0.3261 -0.0015 -0.2794 0.1254 -0.3808 0.4531 -0.3621 0.2079 0.0119 0.3958 0.0829 0.6455 0.2441 0.4754 0.3069 0.8351 0.874 0.7555 1.1916 -0.0278 0.1109 -0.0874 0.1887 -0.1825 0.2382 -0.0828 0.0431 -0.335 0.0375 -0.4842 -0.0107 z M 16.9999 4.3327 c -0.2076 -0.0732 -0.3512 -0.1564 -0.5593 -0.3236 -0.4069 -0.3269 -0.6618 -0.7847 -0.594 -1.0673 0.0219 -0.0914 0.07 -0.1561 0.3294 -0.443 l 0.3037 -0.3361 0.0145 0.1567 c 0.0552 0.5992 0.868 1.3334 1.4819 1.3386 0.0688 0.0005 0.1497 -0.0068 0.1798 -0.0164 0.046 -0.0147 0.0374 0.0017 -0.0532 0.1021 -0.0594 0.0658 -0.1881 0.2095 -0.2861 0.3195 -0.2515 0.2822 -0.3153 0.3222 -0.5128 0.3216 -0.1072 -0.0003 -0.2044 -0.017 -0.3037 -0.0521 z M 14.7289 18.1499 c 0.0045 -0.5286 0.0285 -3.4496 0.0532 -6.4912 0.0247 -3.0416 0.0486 -5.5412 0.053 -5.5545 0.0051 -0.0156 0.1504 -0.0298 0.4042 -0.0396 0.2179 -0.0084 0.7361 -0.0348 1.1514 -0.0585 0.4154 -0.0238 0.9701 -0.0537 1.2326 -0.0663 0.2627 -0.0127 0.9273 -0.0476 1.4769 -0.0777 1.5114 -0.0825 1.3689 -0.0786 1.3572 -0.0366 -0.0055 0.0201 -0.0164 0.1264 -0.0242 0.2363 -0.0078 0.1099 -0.0432 0.5098 -0.0787 0.8884 -0.0355 0.3787 -0.0953 1.0183 -0.1326 1.4214 -0.0374 0.4031 -0.0974 1.0477 -0.1333 1.4325 -0.0913 0.9782 -0.1765 1.8988 -0.1891 2.0433 -0.0059 0.0672 -0.0355 0.387 -0.0659 0.7108 -0.0303 0.3237 -0.0855 0.9183 -0.1227 1.3215 -0.0372 0.4031 -0.0974 1.0528 -0.1339 1.4436 -0.0365 0.3909 -0.0958 1.0256 -0.1317 1.4103 -0.0359 0.3848 -0.072 0.7919 -0.0804 0.9047 -0.0083 0.1128 -0.0262 0.2188 -0.04 0.2355 -0.0137 0.0167 -0.2298 0.0834 -0.4803 0.1482 -0.5506 0.1423 -0.7043 0.1827 -1.9545 0.5141 -0.5769 0.1529 -0.672 0.178 -1.1216 0.2961 -0.4679 0.1229 -0.9787 0.2582 -1.0128 0.2684 -0.0323 0.0095 -0.0348 -0.0772 -0.0273 -0.9505 z m 0.9468 -1.4731 c 0.0879 -0.019 0.2898 -0.0635 0.4486 -0.0989 0.1588 -0.0354 0.4536 -0.1 0.6552 -0.1436 0.2015 -0.0435 0.4514 -0.0986 0.5552 -0.1224 0.1038 -0.0238 0.3487 -0.078 0.5441 -0.1204 0.7048 -0.1533 1.1995 -0.263 1.2043 -0.267 0.0027 -0.0023 0.015 -0.1434 0.0273 -0.3137 0.0123 -0.1703 0.0475 -0.6195 0.0783 -0.9981 0.2077 -2.5603 0.243 -3.0297 0.2289 -3.0439 -0.0062 -0.0062 -0.19 0.0197 -0.4085 0.0572 -1.4232 0.2451 -1.9197 0.3324 -2.0185 0.3553 -0.0489 0.0113 -0.1165 0.0208 -0.1501 0.0211 l -0.0611 0.0005 v -0.5608 c 0 -0.3084 0.0066 -0.8227 0.0147 -1.143 l 0.0146 -0.5822 0.0908 -0.012 c 0.2284 -0.0302 1.9548 -0.2714 2.3785 -0.3323 l 0.3332 -0.048 0.0161 -0.1989 c 0.0089 -0.1094 0.0364 -0.4438 0.0611 -0.743 0.0594 -0.7165 0.0646 -0.6493 -0.0495 -0.6347 -0.0519 0.0066 -0.4142 0.0376 -0.8051 0.0687 -0.3909 0.0312 -1.0705 0.0859 -1.5103 0.1215 -0.4398 0.0356 -1.0144 0.0815 -1.2771 0.102 -0.2627 0.0204 -0.4792 0.0383 -0.4813 0.04 -0.0036 0.0028 -0.0417 3.0743 -0.0606 4.8834 l -0.0092 0.8827 0.0478 -0.0108 c 0.0264 -0.0059 0.1378 -0.0302 0.2478 -0.0539 0.3781 -0.0815 1.6217 -0.3583 1.9078 -0.4247 0.1576 -0.0365 0.289 -0.0637 0.2919 -0.0605 0.0029 0.0032 0.0091 0.2827 0.0137 0.6212 l 0.0083 0.6154 -0.1115 0.0258 c -0.0612 0.0143 -0.3363 0.0834 -0.6112 0.1538 -0.2749 0.0703 -0.7246 0.1849 -0.9994 0.2546 -0.2749 0.0697 -0.5772 0.1469 -0.6719 0.1717 l -0.1722 0.045 v 0.7638 c 0 0.6757 0.004 0.7638 0.0345 0.7638 0.019 0 0.1064 -0.0156 0.1943 -0.0346 z M 14.0921 23.8634 c -0.379 -0.1013 -0.5367 -0.1567 -1.2419 -0.4368 -0.6928 -0.2751 -1.1295 -0.4119 -1.612 -0.5049 -0.5006 -0.0964 -0.7819 -0.1124 -1.9656 -0.1113 -1.2892 0.0011 -1.8327 0.032 -3.6757 0.2084 -1.7357 0.1662 -2.4263 0.212 -2.8984 0.1918 -0.6481 -0.0278 -1.0205 -0.13 -1.2265 -0.3369 -0.1231 -0.1237 -0.1581 -0.2363 -0.1461 -0.4705 0.0138 -0.2686 0.0953 -0.44 0.3132 -0.6584 0.2006 -0.201 0.4277 -0.3541 0.8927 -0.6021 1.2863 -0.6859 1.5119 -0.851 2.1047 -1.5414 0.3767 -0.4387 1.0054 -1.0788 1.2641 -1.2873 0.733 -0.5903 1.5214 -0.955 2.5944 -1.2002 0.2804 -0.064 0.8248 -0.1633 0.8347 -0.1522 0.0025 0.0027 0.0296 0.2731 0.0604 0.6008 0.0308 0.3277 0.0593 0.5981 0.0635 0.6009 0.019 0.0129 0.7469 0.2358 0.77 0.2358 0.0162 0 0.026 -0.0397 0.0261 -0.1055 0.0003 -0.2514 0.1295 -0.8681 0.2183 -1.0421 0.072 -0.1413 0.2029 -0.2433 0.3815 -0.2975 0.3765 -0.1144 0.7039 0.0245 0.8559 0.3632 0.0553 0.1232 0.0593 0.1511 0.0497 0.347 -0.0084 0.1717 -0.0221 0.2378 -0.0708 0.3403 -0.0708 0.1493 -0.1859 0.2533 -0.3207 0.29 -0.0649 0.0177 -0.1058 0.0445 -0.125 0.0822 -0.0403 0.0789 -0.0828 0.2935 -0.0623 0.3135 0.0095 0.0092 0.3121 0.1084 0.6724 0.2206 0.3604 0.1121 1.0826 0.3376 1.605 0.5011 0.5224 0.1635 0.9952 0.3087 1.0508 0.3227 0.0556 0.014 0.093 0.0334 0.0829 0.043 -0.0577 0.0557 -0.8744 0.1547 -1.6363 0.1982 -0.5135 0.0294 -1.9645 0.0292 -2.4351 -0.0004 -0.5929 -0.0372 -1.2089 -0.1074 -1.5658 -0.1785 -0.1833 -0.0365 -0.4331 -0.0724 -0.5552 -0.0796 -0.7759 -0.0461 -1.7063 0.3467 -2.5875 1.0925 -0.5279 0.4468 -1.0195 1.0783 -1.0211 1.3118 -0.0014 0.1906 0.2238 0.1999 1.0323 0.0427 1.0754 -0.2091 1.6312 -0.2833 2.4173 -0.3224 1.1843 -0.0589 2.4821 0.1251 3.4683 0.4917 0.4877 0.1813 0.9566 0.4525 1.5547 0.8994 0.4904 0.3664 0.7228 0.5114 0.9982 0.6224 0.2202 0.0888 0.1499 0.0921 -0.1653 0.0079 z M 4.5691 22.6937 c 0.1122 -0.0568 0.1403 -0.185 0.0596 -0.2716 -0.1585 -0.1702 -0.5531 -0.0895 -0.5531 0.1132 0 0.169 0.2892 0.2618 0.4936 0.1584 z m 4.9101 -3.0509 c 0.4717 -0.1457 0.3171 -0.4776 -0.244 -0.5235 -0.4941 -0.0404 -0.8937 0.2115 -0.6592 0.4154 0.1711 0.1487 0.6039 0.2006 0.9032 0.1081 z m 0.7041 -0.6752 c 0.0975 -0.0352 0.1091 -0.085 0.0286 -0.1238 -0.0896 -0.0432 -0.4613 -0.0542 -0.5839 -0.0173 -0.1281 0.0386 -0.1381 0.1039 -0.0222 0.1434 0.1022 0.0348 0.4786 0.0333 0.5775 -0.0024 z m 0.4195 -0.8357 c 0.0611 -0.3365 0.0904 -0.3943 0.3016 -0.5941 0.2012 -0.1905 0.2434 -0.2506 0.2225 -0.3165 -0.0175 -0.0553 -0.1214 -0.1099 -0.2088 -0.1099 -0.2082 0 -0.4916 0.5255 -0.49 0.9086 0.0009 0.2095 0.0645 0.4122 0.1138 0.3629 0.0103 -0.0103 0.0376 -0.1231 0.0607 -0.2508 z M 14.7806 23.9805 c -0.4919 -0.086 -0.8 -0.2428 -1.5275 -0.7778 -0.5246 -0.3858 -0.7476 -0.5254 -1.1488 -0.719 -0.59 -0.2847 -1.2945 -0.4753 -2.2543 -0.6101 -0.3456 -0.0485 -1.6014 -0.0689 -2.0299 -0.0328 -0.5977 0.0502 -1.1048 0.1283 -2.2454 0.3456 -0.3553 0.0677 -0.6722 0.0833 -0.7294 0.036 -0.0555 -0.0459 -0.0445 -0.1598 0.0285 -0.2968 0.3949 -0.7399 1.4704 -1.6369 2.3777 -1.983 0.3425 -0.1306 0.6177 -0.19 0.9439 -0.2035 0.2526 -0.0105 0.3235 -0.0049 0.5664 0.0449 0.8338 0.1709 1.6647 0.2368 2.973 0.2362 0.4231 -0.0002 1.0254 -0.0148 1.3383 -0.0323 0.9053 -0.0509 1.2257 -0.0975 1.8296 -0.2667 0.2321 -0.065 0.6268 -0.1751 0.8773 -0.2447 0.2505 -0.0697 0.5552 -0.1549 0.6774 -0.1895 0.1221 -0.0347 0.4419 -0.1241 0.7108 -0.1987 0.2687 -0.0746 0.5736 -0.1597 0.6774 -0.1891 0.279 -0.0787 0.987 -0.2773 1.5512 -0.4349 0.4104 -0.1147 0.4995 -0.1467 0.5148 -0.185 0.0103 -0.0255 0.0354 -0.2463 0.0559 -0.4906 0.0205 -0.2443 0.0391 -0.4463 0.0413 -0.4486 0.0091 -0.0107 0.4243 0.1298 0.6685 0.2262 1.1304 0.4463 1.7822 1.0865 1.9561 1.9215 0.0527 0.2528 0.0523 0.6801 -0.0009 0.9328 -0.0799 0.3804 -0.2948 0.7105 -0.5952 0.9145 -0.3202 0.2175 -0.6691 0.3415 -1.681 0.598 -1.115 0.2825 -1.6028 0.4348 -2.1744 0.679 -0.6131 0.2619 -0.9404 0.4647 -1.4581 0.9039 -0.3189 0.2705 -0.6002 0.3912 -1.0661 0.4574 -0.1515 0.0215 -0.7664 0.0266 -0.8773 0.0072 z m 0.4106 -0.374 c 0.1945 -0.0953 0.192 -0.2556 -0.0069 -0.4527 -0.3353 -0.3322 -1.0432 -0.5179 -1.3596 -0.3564 -0.099 0.0505 -0.1324 0.1007 -0.1324 0.199 0 0.1003 0.05 0.1823 0.1814 0.2973 0.3353 0.2934 1.0235 0.4568 1.3174 0.3128 z m 1.0032 -0.5553 c 0.0561 -0.1461 -0.7194 -0.4566 -0.9345 -0.3741 -0.0577 0.0221 -0.0401 0.0916 0.0386 0.1515 0.0926 0.0706 0.3369 0.1822 0.4883 0.2229 0.1644 0.0443 0.3905 0.0441 0.4077 -0.0004 z m 4.3519 -1.7782 c 0.1685 -0.0799 0.2374 -0.3061 0.1379 -0.4524 -0.1461 -0.2149 -0.4938 -0.2422 -0.6706 -0.0528 -0.2831 0.3035 0.1307 0.696 0.5327 0.5052 z m 1.0667 -0.6152 c 0.3036 -0.1539 0.4892 -0.511 0.4703 -0.9049 -0.0079 -0.1657 -0.0202 -0.216 -0.0833 -0.3402 -0.0497 -0.0977 -0.1075 -0.1718 -0.1755 -0.2249 -0.1176 -0.0917 -0.1597 -0.1054 -0.2941 -0.0958 -0.0874 0.0063 -0.1023 0.0156 -0.1358 0.0848 -0.0228 0.0472 -0.0473 0.1869 -0.0623 0.3553 -0.0276 0.3107 -0.0447 0.3794 -0.1751 0.7075 -0.1012 0.2546 -0.1132 0.3542 -0.0494 0.4119 0.1037 0.0939 0.3268 0.0967 0.505 0.0063 z M 10.4738 18.2427 c -0.0524 -0.2443 -0.0157 -0.4944 0.1099 -0.7489 0.1194 -0.2419 0.2309 -0.3605 0.3388 -0.3605 0.1053 0 0.2056 0.082 0.184 0.1503 -0.0083 0.0262 -0.0902 0.1149 -0.1819 0.197 -0.2193 0.1963 -0.2673 0.2833 -0.3323 0.6021 -0.0293 0.1436 -0.0534 0.2636 -0.0535 0.2667 -0.0001 0.003 -0.0094 0.0055 -0.0206 0.0055 -0.0112 0 -0.0312 -0.0504 -0.0444 -0.1121 z M 9.6113 18.953 c -0.0944 -0.0287 -0.0913 -0.0594 0.0105 -0.102 0.1002 -0.0419 0.4977 -0.0335 0.5807 0.0122 0.0488 0.0269 0.0499 0.0315 0.016 0.0656 -0.0289 0.0289 -0.0886 0.0376 -0.2858 0.0414 -0.1371 0.0027 -0.2817 -0.0051 -0.3214 -0.0172 z M 8.8375 19.6341 c -0.0622 -0.0151 -0.1504 -0.0505 -0.1959 -0.0786 -0.2214 -0.1368 -0.1042 -0.316 0.2568 -0.3926 0.3874 -0.0821 0.8595 0.0588 0.8367 0.2496 -0.0099 0.0838 -0.1365 0.1776 -0.2949 0.2186 -0.1558 0.0404 -0.4429 0.0418 -0.6026 0.003 z M 4.2795 22.7088 c -0.0891 -0.0217 -0.1818 -0.104 -0.1818 -0.1616 0 -0.1162 0.1146 -0.1945 0.2844 -0.1945 0.23 0 0.3496 0.1742 0.2038 0.2969 -0.0382 0.0322 -0.0863 0.0586 -0.1067 0.0588 -0.0204 0.0002 -0.0571 0.0043 -0.0815 0.0093 -0.0244 0.005 -0.0775 0.001 -0.118 -0.0089 z M 14.603 23.6097 c -0.2676 -0.0499 -0.6003 -0.2152 -0.7654 -0.3803 -0.1851 -0.1851 -0.1756 -0.3471 0.0246 -0.4241 0.3918 -0.1508 1.2306 0.1379 1.4091 0.4849 0.0561 0.109 0.0535 0.1564 -0.0129 0.2352 -0.0942 0.1119 -0.3388 0.1433 -0.6555 0.0842 z M 15.7023 22.9997 c -0.3 -0.0919 -0.4771 -0.2027 -0.4474 -0.2802 0.0134 -0.035 0.0341 -0.0384 0.1648 -0.027 0.3144 0.0275 0.8067 0.2554 0.75 0.3472 -0.0265 0.0429 -0.2625 0.0226 -0.4673 -0.0402 z M 11.613 18.1696 c 0 -0.0027 0.004 -0.0082 0.009 -0.0123 0.0199 -0.0165 0.0799 -0.1139 0.0799 -0.1297 0 -0.0048 0.0025 -0.0086 0.0055 -0.0086 0.003 0 0.0055 -0.0038 0.0055 -0.0084 0 -0.0081 0.0023 -0.014 0.0158 -0.0401 0.0036 -0.0068 0.0064 -0.0175 0.0064 -0.0235 0 -0.0062 0.0023 -0.0112 0.005 -0.0112 0.0027 0 0.0063 -0.0081 0.0078 -0.018 0.0016 -0.0099 0.0055 -0.0281 0.0089 -0.0403 0.0032 -0.0122 0.006 -0.0314 0.006 -0.0427 0.0001 -0.0112 0.0026 -0.022 0.0057 -0.024 0.003 -0.0018 0.0055 -0.0181 0.0055 -0.0361 0 -0.0179 0.0025 -0.0342 0.0055 -0.0361 0.0035 -0.0022 0.0055 -0.0527 0.0055 -0.1333 0 -0.0806 -0.0022 -0.1311 -0.0055 -0.1333 -0.003 -0.0018 -0.0055 -0.0146 -0.0055 -0.0281 0 -0.0136 -0.0025 -0.0246 -0.0055 -0.0246 -0.003 0 -0.0055 -0.0069 -0.0055 -0.0152 0.0001 -0.0397 -0.0706 -0.1915 -0.1069 -0.2296 -0.0084 -0.0089 -0.0152 -0.0187 -0.0152 -0.022 0 -0.0086 -0.116 -0.1233 -0.1374 -0.1359 -0.0099 -0.0058 -0.018 -0.0125 -0.018 -0.0149 0 -0.0024 -0.0038 -0.0043 -0.0083 -0.0043 -0.0045 0 -0.0083 -0.0022 -0.0083 -0.0048 0 -0.0026 -0.0106 -0.0094 -0.0235 -0.0151 -0.013 -0.0057 -0.0248 -0.0118 -0.0264 -0.0133 -0.0063 -0.0066 -0.0282 -0.0168 -0.036 -0.0168 -0.0046 0 -0.0084 -0.0025 -0.0084 -0.0055 0 -0.003 -0.0038 -0.0055 -0.0084 -0.0055 -0.0046 0 -0.014 -0.0029 -0.0208 -0.0064 -0.0266 -0.0137 -0.0318 -0.0154 -0.0593 -0.019 -0.0156 -0.0021 -0.0297 -0.0059 -0.0313 -0.0085 -0.0016 -0.0027 -0.0214 -0.0049 -0.044 -0.0049 -0.0226 0 -0.0426 -0.0025 -0.0444 -0.0055 -0.0045 -0.0073 -0.0916 -0.0073 -0.0916 0 0 0.0033 -0.0221 0.0055 -0.0552 0.0055 -0.0303 0 -0.0565 0.0022 -0.0581 0.0048 -0.0016 0.0026 -0.0205 0.0062 -0.0421 0.008 -0.0374 0.0031 -0.0692 0.0106 -0.0902 0.0213 -0.0053 0.0027 -0.0135 0.0049 -0.0181 0.0049 -0.0046 0 -0.0129 0.0022 -0.0181 0.0049 -0.0053 0.0027 -0.0159 0.0073 -0.0235 0.0104 -0.0222 0.0087 -0.1025 0.0475 -0.1055 0.051 -0.0015 0.0017 -0.0096 0.0067 -0.018 0.011 -0.0084 0.0043 -0.0152 0.0099 -0.0152 0.0125 0 0.0025 -0.0026 0.0046 -0.0058 0.0046 -0.0062 0 -0.007 0.0006 -0.0414 0.0301 -0.0122 0.0105 -0.0231 0.018 -0.0244 0.0168 -0.0054 -0.0054 0.0706 -0.0876 0.1067 -0.1153 0.0086 -0.0067 0.0187 -0.0146 0.0222 -0.0177 0.0298 -0.0256 0.0845 -0.0607 0.105 -0.0675 0.0053 -0.0017 0.0097 -0.0054 0.0097 -0.0081 0 -0.0027 0.0048 -0.0049 0.0107 -0.0049 0.0058 0 0.0114 -0.0018 0.0125 -0.0042 0.0051 -0.0113 0.1283 -0.0569 0.154 -0.0569 0.006 0 0.0125 -0.0025 0.0144 -0.0055 0.0018 -0.003 0.0146 -0.0055 0.0281 -0.0055 0.0136 0 0.0246 -0.0025 0.0246 -0.0055 0 -0.0033 0.0222 -0.0055 0.0555 -0.0055 0.0333 0 0.0555 -0.0023 0.0555 -0.0055 0 -0.003 0.0038 -0.0055 0.0083 -0.0055 0.0045 0 0.0083 0.0025 0.0083 0.0055 0 0.0033 0.0222 0.0055 0.0555 0.0055 0.0333 0 0.0555 0.0023 0.0555 0.0055 0 0.003 0.0111 0.0055 0.0246 0.0055 0.0136 0 0.0262 0.0025 0.0281 0.0055 0.0018 0.003 0.0116 0.0055 0.0214 0.0055 0.0099 0 0.0204 0.0022 0.0232 0.0046 0.0029 0.0026 0.0203 0.0091 0.0386 0.0144 0.0431 0.0125 0.1691 0.0759 0.174 0.0876 0.001 0.0025 0.0042 0.0044 0.0072 0.0044 0.0029 0 0.0116 0.0063 0.0192 0.0139 0.0077 0.0077 0.016 0.0139 0.0185 0.0139 0.0065 0 0.1281 0.1192 0.1281 0.1255 0 0.0028 0.0057 0.0113 0.0127 0.0189 0.007 0.0076 0.0213 0.0264 0.0316 0.0416 0.0104 0.0152 0.0208 0.0286 0.0233 0.0296 0.0025 0.001 0.0045 0.0062 0.0045 0.0114 0 0.0053 0.0037 0.0145 0.0081 0.0204 0.0045 0.0059 0.0082 0.0151 0.0083 0.0205 0.0001 0.0053 0.0027 0.0097 0.0057 0.0097 0.003 0 0.0055 0.005 0.0055 0.0111 0 0.0062 0.0025 0.0111 0.0055 0.0111 0.003 0 0.0055 0.005 0.0055 0.0111 0 0.0062 0.0025 0.0111 0.0055 0.0111 0.003 0 0.0055 0.0063 0.0055 0.0139 0 0.0077 0.0019 0.0139 0.0043 0.0139 0.0024 0 0.0075 0.0144 0.0111 0.032 0.0038 0.0176 0.0095 0.0419 0.0129 0.0541 0.0033 0.0122 0.0073 0.0366 0.0087 0.0541 0.0015 0.0176 0.005 0.032 0.0078 0.032 0.007 0 0.0066 0.1705 -0.0005 0.1749 -0.003 0.0018 -0.0055 0.0168 -0.0055 0.0333 0 0.0164 -0.0025 0.0314 -0.0055 0.0333 -0.003 0.0018 -0.0055 0.0119 -0.0055 0.0222 0 0.0104 -0.0023 0.0202 -0.0051 0.0219 -0.0028 0.0017 -0.0068 0.0156 -0.0089 0.0309 -0.0021 0.0152 -0.006 0.0278 -0.0089 0.0278 -0.0028 0 -0.0051 0.0042 -0.0051 0.0095 0 0.0052 -0.0112 0.0326 -0.0249 0.0608 -0.0137 0.0283 -0.0249 0.054 -0.0249 0.0571 0 0.0032 -0.0025 0.0058 -0.0055 0.0058 -0.003 0 -0.0055 0.0038 -0.0055 0.0083 0 0.0045 -0.0025 0.0083 -0.0055 0.0083 -0.003 0 -0.0055 0.0032 -0.0055 0.0072 0 0.004 -0.0043 0.0121 -0.0097 0.018 -0.0053 0.0059 -0.0172 0.0207 -0.0262 0.0329 -0.0201 0.0271 -0.02 0.0269 -0.0504 0.0607 -0.0136 0.015 -0.0247 0.0294 -0.0247 0.032 0 0.0025 -0.0026 0.0046 -0.0057 0.0046 -0.0031 0 -0.0137 0.0073 -0.0235 0.0162 -0.0377 0.0342 -0.0514 0.0448 -0.0581 0.0448 -0.0038 0 -0.0069 -0.0022 -0.0069 -0.0049 z"/></svg>