<svg role="img" viewBox="0 0 24 24" xmlns="http://www.w3.org/2000/svg"><title>JUnit5 icon</title><path d="M11.885 9.769q2.47 0 3.912 1.307 1.442 1.308 1.442 3.566 0 2.615-1.643 4.09-1.632 1.465-4.65 1.465-2.738 0-4.303-.883v-2.38q.905.513 2.079.793 1.174.28 2.18.28 1.777 0 2.705-.794.927-.794.927-2.325 0-2.929-3.733-2.929-.525 0-1.297.112-.77.1-1.352.235l-1.174-.693.626-7.98H16.1v2.335H9.918l-.369 4.047q.391-.068.95-.157.57-.09 1.386-.09zM12 0A12 12 0 000 12a12 12 0 006.3 10.556c.115.063.232.123.35.182v-3.675h.138c.01.004 4.861 2.466 8.022 0 3.163-2.468 1.62-5.785 1.08-6.557-.54-.771-3.317-2.083-5.709-1.851-2.391.231-2.391.308-2.391.308l.617-7.096 7.131-.074h.556V.744A12 12 0 0011.998 0zm4.096.744V2.47L15.89 3.79l-7.483.077-.617 7.096s0-.077 2.392-.308c2.391-.232 5.168 1.08 5.708 1.851.54.772 2.083 4.089-1.08 6.557-3.16 2.467-8.014.004-8.021 0h-.14v3.675A12.001 12.001 0 0012.002 24c6.627 0 12-5.373 12-12A12.007 12.007 0 0016.351.83c-.085-.03-.17-.059-.255-.086zM6.298 22.556z"/></svg>