<svg role="img" viewBox="0 0 24 24" xmlns="http://www.w3.org/2000/svg"><title>Juniper Networks icon</title><path d="M23.0864 13.1643c.0456 0 .0717-.0132.0717-.062 0-.0482-.0254-.0593-.0731-.0593h-.1023v.1213zm-.0104.0417h-.0933v.1285h-.0445v-.334h.1487c.0846 0 .1172.0347.1172.1006 0 .054-.0229.0912-.0807.102l.0756.1314h-.0484l-.0746-.1285m-.0187-.2919a.2535.2535 0 0 0-.2533.2533c0 .1394.1136.253.2533.253a.2535.2535 0 0 0 .253-.253.2534.2534 0 0 0-.253-.2533zm0 .544a.2912.2912 0 0 1-.291-.2907.2912.2912 0 0 1 .291-.2909.291.291 0 0 1 .2905.2909.291.291 0 0 1-.2905.2906m-22.8971.9781c1.7858 0 1.8616-.8002 1.8616-1.929V8.8304h-.4212v3.6767c0 .8506.0337 1.5332-1.4404 1.5332A4.0384 4.0384 0 0 1 0 14.0369v.397c.0518.0014.1051.0022.1602.0022m17.402-3.6262h3.1334c-.042-.918-.1011-1.7014-1.4404-1.7014-1.2887 0-1.6425.6992-1.693 1.7014zm-.4214.3118c0-1.356.3877-2.4007 2.123-2.4007 1.794 0 1.853 1.2045 1.8447 2.4764h-3.5548c.0085 1.1204.2863 1.9544 1.7436 1.9544.775 0 1.1288-.2107 1.5079-.4886l.2357.3116c-.421.3117-.918.556-1.7436.556-1.8194 0-2.1565-1.053-2.1565-2.4091m-2.0254.3048c.7439 0 1.1136-.3625 1.1136-1.0949 0-.7322-.399-1.0798-1.132-1.0798h-1.7286v2.1747zM12.956 8.839h2.1531c1.0678 0 1.5519.5307 1.5519 1.474 0 .9497-.478 1.527-1.5578 1.527h-1.7348v1.5981h-.4124V8.839m-1.1844 0h.4122v4.5991h-.4122V8.839m-.7817 1.794v2.8051h-.4296v-2.8134c0-.8086.0084-1.491-1.474-1.491-1.4743 0-1.4405.6824-1.4405 1.5331v2.7713h-.4212v-2.7713c0-1.1288.076-1.9289 1.8616-1.9289 1.7943 0 1.9037.8001 1.9037 1.8952m-8.2433 1.0024v-2.805h.4297v2.8133c0 .8088-.0084 1.491 1.474 1.491 1.4742 0 1.4405-.6822 1.4405-1.533V8.8303h.4212v2.7713c0 1.1289-.0759 1.929-1.8616 1.929-1.7943 0-1.9038-.8001-1.9038-1.8952M23.5758 8.738c-1.7859 0-1.8617.8001-1.8617 1.929v2.7712h.421v-2.7713c0-.8507-.0336-1.533 1.4407-1.533.1579 0 .298.0083.4242.023v-.4012a4.8515 4.8515 0 0 0-.4242-.0177M21.214 15.13l.0686-.1029c.1525.096.3017.1286.4542.1286.2624 0 .3789-.0737.3789-.2486 0-.18-.1508-.2057-.3789-.2468-.2743-.048-.4594-.0944-.4594-.3514 0-.2453.1577-.3413.4594-.3413.199 0 .3412.0447.4423.1132l-.072.1097c-.0908-.06-.2263-.0995-.3703-.0995-.228 0-.3257.0636-.3257.2144 0 .1612.132.192.3583.233.2777.0499.4783.091.4783.3635 0 .2521-.1612.3737-.5074.3737-.192 0-.3652-.0393-.5263-.1456m-.72-.5452l-.2538.2777v.396h-.132v-1.2703h.132v.7012l.643-.7012h.156l-.456.4989.5176.7715h-.1525l-.4543-.6738m-1.1006.0326c.18 0 .2914-.0549.2914-.2555 0-.1971-.108-.2485-.2965-.2485h-.4132v.504zm-.0377.1234h-.3806v.5178h-.132V13.988h.5486c.2948 0 .4286.1183.4286.3704 0 .2193-.1046.3479-.3258.377l.3068.523h-.1439l-.3017-.5178m-.924-.1166c0-.3429-.1594-.528-.5058-.528-.3446 0-.5023.1851-.5023.528 0 .3446.1577.5298.5023.5298.3464 0 .5058-.1852.5058-.5298zm-1.1435-.0017c0-.4525.2314-.6549.6377-.6549.408 0 .6412.2024.6412.655 0 .4542-.2332.6565-.6412.6565-.4063 0-.6377-.2023-.6377-.6566m-1.8583-.6343h.1389l.3342 1.0508.3412-1.0508h.1166l.3394 1.0508.336-1.0508h.1303l-.408 1.2789h-.1165l-.343-1.0577-.341 1.0577h-.1183l-.4098-1.2789m-.7766.1286h-.4765v-.1286h1.0886v.1286h-.4766v1.1418h-.1355v-1.1418m-1.5205-.1286h.84v.1286h-.7046v.42h.6874v.127h-.6874v.4713h.7114v.1235h-.8468V13.988m-1.3613 0h.1474l.7595 1.0475V13.988h.1304v1.2704h-.1235l-.7835-1.0784v1.0784h-.1303V13.988Z"/></svg>