<svg role="img" viewBox="0 0 24 24" xmlns="http://www.w3.org/2000/svg"><title>Just Eat</title><path d="M20.6138 7.1997c-.0019-.0024-.0716-.0708-.0867-.2003a37.1998 37.1998 0 0 0-.5677-4.0793.6637.6637 0 0 0-.575-.516l-1.9612-.2364c0 .0002-.0213-.0027-.0516 0a.4129.4129 0 0 0-.4129.4128v.6792c.0071.0337-.0345.0156-.0412.0186A27.5178 27.5178 0 0 0 12.9723.2931c-.366-.245-.7355-.293-.9692-.293-.5918-.0016-.9527.293-.9693.293C4.277 4.4686.559 11.243.4155 11.6146c-.1799.3807.0325.8309.4407.9341l1.9457.3747a.6668.6668 0 0 1 .4862.5688c.0155.3437.384 8.0161.8454 10.0062.0076.0609.1743.4985.6482.4986h.0145c1.1318-.0299 2.2639-.0485 3.396-.063a.2198.2198 0 0 0 .2178-.2188c0-.1794-.0283-.0597-.2312-3.9565a.4129.4129 0 0 0-.2024-.323 2.0985 2.0985 0 0 1-1.0208-1.695c-.2262-5.8941.0116-8.2329-.0072-8.2329.0112-.528.8097-.5116.7824.0465-.11 1.8084-.0902 3.6209-.0702 5.4315.0106.6197.9396.6032.929-.0165-.0351-1.9045-.0248-3.8347.0733-5.4615.0065-.5085.7941-.529.7824.0465-.1067 1.7985-.0933 3.601-.0702 5.4016.0097.6192.9387.6048.929-.0145.011.011-.0846-2.8339.0733-5.4346.0112-.528.7824-.5194.7824.0464-.1515 2.6902-.0805 5.386 0 8.0771a2.0975 2.0975 0 0 1-.9104 1.731.4046.4046 0 0 0-.1734.3045s-.0475.4036.13 2.3576c.0542.5713.116 1.1418.1766 1.7125a.2064.2064 0 0 0 .2064.1796 468.6068 468.6068 0 0 1 4.0556.0093.2064.2064 0 0 0 .2064-.1817c.256-2.3421.3159-3.6582.3159-3.6582a.2323.2323 0 0 0-.2065-.225l-1.3419-.1848c.0058.0119-.4402-.0659-.4005-.5347.5357-7.8107 3.109-10.4398 3.109-10.4398a.8257.8257 0 0 1 .125-.1032c.2186-.1583.528-.0676.6265.1837a.8132.8132 0 0 1 .033.188c.222 2.4535.1136 6.6298-.0237 9.8875-.1167 2.7653-.258 4.936-.258 4.936 0 .089.072.161.161.161.7425.0117 1.485.0293 2.2275.0465a.671.671 0 0 0 .6482-.4986c.4614-1.99.8258-9.6625.8454-10.0062a.6647.6647 0 0 1 .4862-.5688l1.9457-.3747c.4082-.1032.6206-.5534.4407-.9341-.0355-.0956-.918-1.8515-2.9707-4.418z"/></svg>