<svg role="img" xmlns="http://www.w3.org/2000/svg" viewBox="0 0 24 24"><title>k6</title><path d="M24,23.646H0L7.99,6.6l4.81,3.541L19.08.354Zm-8.8-3.681h.052a2.3,2.3,0,0,0,1.593-.64,2.09,2.09,0,0,0,.685-1.576,1.915,1.915,0,0,0-.66-1.511,2,2,0,0,0-1.37-.59h-.039a.71.71,0,0,0-.2.027l1.267-1.883-1.009-.7-.478.705L13.82,15.656c-.209.309-.385.582-.494.771a4.59,4.59,0,0,0-.29.624,1.947,1.947,0,0,0-.138.719,2.085,2.085,0,0,0,.676,1.558,2.258,2.258,0,0,0,1.578.64ZM9.835,17.938l1.4,1.978h1.5l-1.645-2.3,1.461-2.029-.97-.671-.428.565-1.32,1.858V13.614l-1.31-1.068v7.369h1.31V17.936Zm5.367.792a.964.964,0,0,1,0-1.927h.009a.936.936,0,0,1,.679.291.9.9,0,0,1,.29.667.979.979,0,0,1-.977.967Z"/></svg>
