<svg role="img" xmlns="http://www.w3.org/2000/svg" viewBox="0 0 24 24"><title>Kaggle</title><path d="M.103 7.348c-.069 0-.103.034-.103.102V14.2c0 .068.034.103.103.103h.704c.068 0 .103-.035.103-.103v-1.48l.418-.4 1.502 1.91c.04.048.088.072.143.072h.909c.047 0 .075-.013.082-.04.013-.041.006-.075-.021-.103L1.961 11.7l1.9-1.839c.021-.02.024-.05.01-.092-.013-.034-.04-.05-.081-.05h-.94c-.047 0-.095.023-.143.07L.91 11.608V7.45c0-.068-.035-.103-.103-.103zm18.04 0c-.067 0-.101.034-.101.102V14.2c0 .068.034.102.102.102h.705c.068 0 .102-.034.102-.102V7.45c0-.069-.034-.103-.102-.103zM5.962 9.625c-.565 0-1.11.18-1.634.542-.055.054-.065.102-.031.143l.368.52c.027.048.071.055.132.021.395-.272.783-.409 1.165-.409.293 0 .516.09.669.266a.84.84 0 01.199.644c-.66.068-1.154.15-1.481.245-.831.238-1.246.69-1.246 1.358 0 .422.153.77.46 1.042.313.265.684.398 1.113.398.47 0 .854-.112 1.154-.337v.143c0 .068.037.102.112.102h.705c.068 0 .102-.034.102-.102v-2.83c0-.66-.224-1.14-.674-1.44-.306-.204-.677-.306-1.113-.306zm4.322 0c-.674 0-1.195.263-1.562.787-.314.436-.47.967-.47 1.593 0 .66.163 1.21.49 1.645.374.497.892.745 1.553.745.53 0 .956-.132 1.276-.398v.531c0 .858-.412 1.287-1.236 1.287-.36 0-.732-.19-1.113-.572a.098.098 0 00-.071-.03.11.11 0 00-.082.03l-.48.48c-.041.061-.038.113.01.153.197.186.446.355.623.48.354.198.729.297 1.124.297.68 0 1.207-.193 1.578-.578.37-.384.556-.948.556-1.69V9.82c0-.069-.034-.103-.102-.103h-.705c-.068 0-.102.034-.102.103v.204c-.39-.305-.912-.41-1.287-.399zm4.802 0c-.674 0-1.195.263-1.562.787-.314.436-.47.967-.47 1.593 0 .66.163 1.21.49 1.645.374.497.892.745 1.553.745.53 0 .956-.132 1.276-.398v.531c0 .858-.412 1.287-1.236 1.287-.36 0-.732-.19-1.113-.572a.098.098 0 00-.071-.03.11.11 0 00-.082.03l-.48.48c-.041.061-.038.113.01.153.197.186.477.378.623.48.354.198.729.297 1.124.297.68 0 1.207-.193 1.578-.578.37-.384.556-.948.556-1.69V9.82c0-.069-.034-.103-.102-.103h-.704c-.069 0-.103.034-.103.103v.204c-.347-.266-.776-.399-1.287-.399zm6.746 0c-.654 0-1.185.211-1.594.634-.442.463-.664 1.028-.664 1.695 0 .708.225 1.29.674 1.747.464.463 1.042.694 1.737.694.647 0 1.215-.184 1.706-.551.054-.041.054-.089 0-.143l-.48-.49c-.041-.041-.092-.041-.154 0-.3.21-.636.316-1.01.316-.867-.007-1.39-.511-1.482-1.195 1.251-.003 3.32 0 3.32 0 .068 0 .102-.034.102-.102l.01-.225c.032-.687-.167-1.26-.603-1.716a2.083 2.083 0 00-1.562-.664zm-.02.787a1.2 1.2 0 01.837.316c.245.211.371.474.378.787h-2.462c.061-.327.208-.593.44-.797.23-.204.5-.306.806-.306zm-11.425.102c.62 0 1.014.218 1.184.654v1.685c-.183.46-.593.655-1.215.654-.323-.01-1.152-.11-1.165-1.502.003-.998.399-1.491 1.196-1.491zm4.802 0c.63.001 1.014.218 1.185.654v1.685c-.17.436-.576.646-1.216.654-.58.006-1.167-.39-1.165-1.502.007-.909.322-1.485 1.196-1.491zm-8.359 1.654v1.022c-.286.286-.667.412-1.144.378-.44-.057-.624-.258-.674-.521-.034-.266.116-.47.45-.613.244-.109.7-.197 1.368-.266z"/></svg>