<svg xmlns="http://www.w3.org/2000/svg" role="img" viewBox="0 0 24 24"><title>Kahoot Icon</title><path d="M19.923 20.105c-.102.242-.268.647-.374.906a6.186 6.186 0 01-.225.51c-.056.073-.298.707-.298.78.004.088 2.288 1.667 2.411 1.667.077 0 .574-.268.863-.464.06-.042.243-.149.404-.242.166-.09.387-.222.494-.294.11-.068.293-.174.416-.234.12-.06.217-.132.217-.162a1.78 1.78 0 00-.115-.34 26.36 26.36 0 01-.289-.817c-.098-.293-.272-.804-.383-1.14l-.208-.604h-2.73zM4.103 1.2c-.374.107-1.862.49-2.955.762-.455.11-.901.225-.986.255L0 2.265v21.607h.268c.144 0 1.059.03 2.028.064.97.034 1.888.064 2.037.064h.272l-.025-3.76-.026-3.762.54-.527c1.344-1.319 2.194-2.127 2.207-2.093.098.31.264.893.412 1.42.103.362.234.813.294 1 .06.188.157.54.221.788.068.246.136.48.153.519.021.038.123.39.23.787.106.391.212.753.234.8.02.046.127.4.233.786l.43 1.51c.127.443.306 1.069.4 1.392.089.319.204.706.255.86l.098.28h2.032c1.603 0 2.037-.013 2.037-.055 0-.056-.166-.681-.51-1.902-.12-.434-.306-1.102-.409-1.489a17.824 17.824 0 00-.246-.872c-.034-.094-.14-.477-.234-.85-.098-.375-.191-.72-.217-.767-.021-.047-.119-.391-.213-.765a10.542 10.542 0 00-.212-.766c-.021-.047-.12-.392-.213-.766a28.535 28.535 0 00-.276-1c-.055-.174-.17-.578-.255-.893a156.6 156.6 0 00-.362-1.319c-.395-1.425-.51-1.85-.51-1.902 0-.046 1.076-1.242 3.959-4.394C16.146 4.6 16.2 4.54 16.2 4.48c0-.046-.251-.157-.783-.344a7.389 7.389 0 01-.51-.196 8.135 8.135 0 00-.557-.213 9.746 9.746 0 01-.553-.217 15.74 15.74 0 00-.595-.225 16.023 16.023 0 01-.659-.255c-.26-.12-.302-.115-.493.068l-.617.587-1.186 1.127c-.408.387-.808.77-.893.851-.085.08-.506.485-.936.893-.433.409-.986.936-1.233 1.175-.246.234-.897.855-1.446 1.374A56.95 56.95 0 004.67 10.14c-.072.08-.077-.128-.077-4.472V1.112l-.093.004c-.055 0-.23.043-.396.085zM17.216.066c0 .038.042.25.092.474.111.478.197.886.336 1.541.2.949.46 2.144.514 2.371.032.127.121.543.2.925.078.382.224 1.056.317 1.503.097.444.264 1.226.375 1.735.11.509.271 1.272.36 1.696.09.424.175.813.193.867.018.054.1.436.182.848.079.413.16.786.179.829.017.042.103.432.196.867.15.74.314 1.496.735 3.45.093.443.236 1.098.31 1.453.118.563.19.786.233.72.003-.007.07-.492.146-1.075.078-.582.153-1.102.168-1.156.017-.054.096-.59.174-1.195.083-.605.161-1.16.179-1.233.018-.073.107-.682.196-1.35.09-.666.172-1.24.182-1.271.01-.031.1-.62.2-1.31.096-.69.253-1.793.35-2.448l.353-2.448c.097-.69.186-1.307.2-1.368.064-.317.385-2.618.4-2.853l.014-.27-.635-.127c-.35-.073-1.046-.212-1.546-.316-.5-.104-1.224-.25-1.606-.328-.381-.077-.849-.173-1.035-.212a42.13 42.13 0 00-.945-.192c-.332-.066-.636-.135-.668-.154A.48.48 0 0017.358 0c-.11 0-.142.015-.142.066z"/></svg>
