<svg role="img" viewBox="0 0 24 24" xmlns="http://www.w3.org/2000/svg"><title>KakaoTalk icon</title><path d="M12 .926c-6.628 0-12 4.237-12 9.462 0 3.378 2.246 6.343 5.625 8.016-.184.634-1.181 4.079-1.221 4.35 0 0-.024.202.108.28.131.077.286.017.286.017.378-.052 4.378-2.863 5.07-3.35.692.097 1.405.148 2.132.148 6.628 0 12-4.236 12-9.461C24 5.162 18.628.926 12 .926zM6.058 13.03c0 .364-.31.66-.693.66s-.692-.296-.692-.66V8.917h-1.08a.68.68 0 0 1-.68-.678.68.68 0 0 1 .68-.678h3.545a.68.68 0 0 1 .68.678.68.68 0 0 1-.68.678h-1.08v4.113zm5.818.556a1.059 1.059 0 0 1-.44.096c-.289 0-.51-.117-.576-.306l-.343-.897H8.406l-.343.897c-.066.189-.287.306-.576.306a1.06 1.06 0 0 1-.44-.096c-.19-.088-.374-.33-.164-.983l1.656-4.359c.117-.331.471-.673.922-.683.452.01.806.352.923.684l1.656 4.357c.21.654.027.896-.164.984zm3.499.004h-2.221c-.366 0-.664-.285-.664-.635V8.253a.7.7 0 0 1 .707-.692.7.7 0 0 1 .707.692v4.068h1.47c.367 0 .664.284.664.634s-.297.635-.663.635zm5.42-.521a.687.687 0 0 1-.686.596.687.687 0 0 1-.553-.275l-1.623-2.152-.24.24v1.511a.693.693 0 0 1-1.385 0V8.254a.693.693 0 0 1 1.384 0v1.488l1.932-1.931c.1-.1.236-.154.384-.154a.68.68 0 0 1 .476.204.682.682 0 0 1 .204.44.54.54 0 0 1-.153.42l-1.578 1.578 1.704 2.258c.112.146.16.33.133.513zM9.46 9.287l.692 1.964H8.77l.691-1.964z"/></svg>