<?xml version="1.0" encoding="UTF-8" standalone="no"?>
<!-- Created with Inkscape (http://www.inkscape.org/) -->

<svg
   xmlns:dc="http://purl.org/dc/elements/1.1/"
   xmlns:cc="http://creativecommons.org/ns#"
   xmlns:rdf="http://www.w3.org/1999/02/22-rdf-syntax-ns#"
   xmlns:svg="http://www.w3.org/2000/svg"
   xmlns="http://www.w3.org/2000/svg"
   xmlns:sodipodi="http://sodipodi.sourceforge.net/DTD/sodipodi-0.dtd"
   xmlns:inkscape="http://www.inkscape.org/namespaces/inkscape"
   version="1.1"
   id="svg815"
   width="3300"
   height="2550"
   viewBox="0 0 3300 2550"
   sodipodi:docname="Kamailio-os-sip-logo1.svg"
   inkscape:version="0.92.3 (2405546, 2018-03-11)">
  <metadata
     id="metadata821">
    <rdf:RDF>
      <cc:Work
         rdf:about="">
        <dc:format>image/svg+xml</dc:format>
        <dc:type
           rdf:resource="http://purl.org/dc/dcmitype/StillImage" />
        <dc:title></dc:title>
      </cc:Work>
    </rdf:RDF>
  </metadata>
  <defs
     id="defs819" />
  <sodipodi:namedview
     pagecolor="#ffffff"
     bordercolor="#666666"
     borderopacity="1"
     objecttolerance="10"
     gridtolerance="10"
     guidetolerance="10"
     inkscape:pageopacity="0"
     inkscape:pageshadow="2"
     inkscape:window-width="1360"
     inkscape:window-height="706"
     id="namedview817"
     showgrid="false"
     inkscape:zoom="0.14890837"
     inkscape:cx="1870.5454"
     inkscape:cy="1808.2521"
     inkscape:window-x="-8"
     inkscape:window-y="-8"
     inkscape:window-maximized="1"
     inkscape:current-layer="g825" />
  <g
     id="g825"
     transform="translate(134.31079,-1846.7733)">
    <g
       id="g874"
       transform="matrix(1.1341929,0,0,1.0647832,-373.37952,1690.3109)">
      <path
         inkscape:connector-curvature="0"
         id="path839"
         d="m 1035.7195,1688.993 c -54.92183,-2.8561 -111.82323,-11.3906 -144.11299,-21.6153 -79.89706,-25.2997 -109.49061,-73.5163 -89.83374,-146.3657 2.65415,-9.8364 3.76158,-10.0966 10.37398,-2.4375 13.59908,15.7517 37.10643,31.4969 64.56879,43.248 45.28438,19.3771 104.27384,30.329 195.99996,36.3892 26.1992,1.7309 153.8411,1.714 186,-0.025 76.8308,-4.1538 138.211,-10.1718 210.793,-20.667 116.5074,-16.8468 240.9193,-43.5525 370.9924,-79.6356 25.6638,-7.1193 33.7165,-8.4315 25.6583,-4.181 -4.9586,2.6154 -46.1292,18.7953 -83.9437,32.9895 -257.8963,96.8048 -465.5691,149.0095 -639.7521,160.8207 -27.2574,1.8483 -84.4156,2.6405 -106.7439,1.4793 z m 1397.996,-282.5656 c -1.375,-0.2385 -5.875,-0.9268 -10,-1.5295 -15.038,-2.1972 -35.161,-9.9834 -49,-18.9595 -38.8502,-25.1984 -60.6543,-68.4674 -58.6756,-116.4384 1.3777,-33.3989 13.8878,-63.0405 36.3787,-86.1962 18.7293,-19.283 45.7141,-33.6318 72.2969,-38.4431 11.316,-2.0481 41.3455,-1.7785 51.8747,0.4657 13.5116,2.8799 23.8991,6.5151 35.4681,12.4125 35.1554,17.9206 59.2872,49.7747 67.8235,89.5274 3.1364,14.6058 3.1364,39.8616 0,54.4674 -11.3434,52.8255 -50.5075,91.6621 -103.6663,102.7995 -7.6414,1.601 -36.7196,2.8969 -42.5,1.8942 z m 39.3075,-45.8655 c 23.9102,-7.0216 40.5366,-21.3921 51.6401,-44.6335 6.4996,-13.6046 8.4254,-22.8171 8.4511,-40.4284 0.024,-16.1699 -1.1315,-22.9245 -6.046,-35.3534 -8.2196,-20.7879 -23.9226,-37.5879 -43.5124,-46.5522 -12.024,-5.5023 -19.542,-7.0162 -34.8403,-7.0162 -15.2983,0 -22.8163,1.5139 -34.8403,7.0162 -20.8412,9.537 -36.5663,27.3147 -44.0056,49.7498 -4.3133,13.0077 -5.5102,21.9785 -4.824,36.1558 1.0774,22.2621 7.676,39.47 21.5662,56.2413 7.5043,9.0609 23.2833,19.5981 35.6037,23.7762 15.2942,5.1866 35.302,5.5979 50.8075,1.0444 z M 731.91554,1401.8 c -1.74298,-1.743 -1.74298,-251.857 0,-253.6 1.82168,-1.8217 43.14906,-1.6893 44.66981,0.1431 0.78652,0.9477 1.19058,19.3934 1.37244,62.6542 l 0.25775,61.311 58.79991,-62.1476 c 32.33995,-34.1812 59.78995,-62.3897 61,-62.6856 1.21005,-0.2959 13.44414,-0.4113 27.18688,-0.2565 21.49328,0.2421 25.02795,0.4955 25.28117,1.8125 0.17239,0.8966 -20.85397,23.4157 -50.73679,54.3388 -28.06714,29.0442 -51.03117,53.3978 -51.03117,54.1192 0,0.7213 24.09251,32.9368 53.5389,71.5899 29.4464,38.6532 53.40293,70.9856 53.23674,71.8497 -0.26386,1.3721 -3.60054,1.605 -26.32563,1.8375 -19.82613,0.2028 -26.40062,-0.035 -27.60717,-1 -0.87102,-0.6964 -19.97949,-25.5436 -42.46326,-55.216 -22.48377,-29.6723 -41.45211,-54.6473 -42.15187,-55.5 -1.09899,-1.3391 -3.85715,1.0985 -20.25,17.8959 l -18.97771,19.446 v 36.104 c 0,26.7475 -0.31098,36.4149 -1.2,37.3039 -0.8575,0.8575 -7.22222,1.2 -22.3,1.2 -15.07778,0 -21.4425,-0.3425 -22.3,-1.2 z m 236.07814,0.078 c -0.61702,-0.617 -0.8504,-1.8545 -0.51863,-2.75 1.72851,-4.6654 110.18275,-252.4041 110.74265,-252.9659 0.3629,-0.3642 9.5109,-0.7976 20.3288,-0.9631 14.977,-0.2291 20.0806,0.01 21.3945,1 1.4139,1.066 109.81,247.0971 111.534,253.1533 0.29,1.0188 -0.1,2.2494 -0.8661,2.7346 -1.8843,1.1932 -43.5639,1.1597 -45.7996,-0.037 -1.0684,-0.5718 -6.6953,-12.7085 -14.1403,-30.5 L 1158.3033,1342 h -45.2121 c -24.8667,0 -45.9239,-0.2731 -46.7939,-0.607 -0.87,-0.3338 -1.5818,-1.3378 -1.5818,-2.2309 0,-2.3176 15.0009,-37.5138 16.365,-38.3968 0.6242,-0.4041 13.9975,-0.7416 29.7183,-0.75 15.7209,-0.01 28.8195,-0.2514 29.1081,-0.54 0.6462,-0.6463 -40.2427,-95.4753 -41.1676,-95.4753 -0.3652,0 -19.4998,44.3519 -42.5213,98.5598 -25.9619,61.1313 -42.5245,98.9168 -43.6142,99.5 -2.586,1.384 -43.20988,1.2186 -44.61012,-0.1817 z m 306.92182,-0.078 c -1.743,-1.743 -1.743,-251.857 0,-253.6 0.8632,-0.8632 7.6022,-1.2 24.0098,-1.2 21.6815,0 22.8957,0.1004 24.5472,2.0291 0.9556,1.1161 18.1637,27.5195 38.2402,58.6742 20.0765,31.1548 36.9528,56.7843 37.5028,56.9545 0.55,0.1702 17.6193,-25.5624 37.9317,-57.1836 20.3124,-31.6212 37.6728,-58.1638 38.5787,-58.9836 1.3566,-1.2277 5.6103,-1.4906 24.1183,-1.4906 16.1444,0 22.8092,0.3379 23.6713,1.2 1.743,1.743 1.743,251.857 0,253.6 -1.476,1.476 -41.495,1.6782 -43.8,0.2213 -1.3086,-0.827 -1.5638,-12.1987 -2,-89.1012 l -0.5,-88.1532 -35.6388,53.3666 c -40.2095,60.2108 -41.3659,61.8665 -43.2069,61.8665 -0.7332,0 -18.3929,-25.6377 -39.2437,-56.9727 -20.8508,-31.335 -38.2481,-56.985 -38.6606,-57 -0.4125,-0.015 -0.75,39.2577 -0.75,87.2727 0,66.5667 -0.285,87.585 -1.2,88.5 -0.8557,0.8557 -7.1111,1.2 -21.8,1.2 -14.6889,0 -20.9443,-0.3443 -21.8,-1.2 z m 292.836,0.2434 c -1.2207,-0.772 -0.3935,-3.3866 4.9776,-15.7347 72.0276,-165.5871 104.9136,-239.7664 106.5872,-240.423 2.4746,-0.9709 37.3239,-0.9709 39.7984,0 1.6634,0.6526 37.6495,81.8212 106.5916,240.423 5.3677,12.3485 6.1939,14.9626 4.9732,15.7347 -0.8052,0.5093 -11.4214,0.9329 -23.5916,0.9413 -18.9864,0.013 -22.3142,-0.2096 -23.4426,-1.5693 -0.7233,-0.8715 -6.7413,-14.484 -13.3732,-30.25 l -12.0582,-28.6654 -46.2,-0.5 c -31.3064,-0.3388 -46.5502,-0.8505 -47.2865,-1.5873 -0.7822,-0.7828 1.2471,-6.5252 7.2444,-20.5 l 8.331,-19.4127 29.8191,-0.2651 c 29.5919,-0.263 29.8149,-0.2808 29.2782,-2.3331 -1.2402,-4.7424 -40.2516,-93.8659 -40.9834,-93.6285 -0.4393,0.1426 -19.3938,44.1269 -42.1212,97.743 -22.7273,53.616 -42.0554,98.2712 -42.9512,99.2337 -1.4535,1.5617 -3.9157,1.7484 -22.8788,1.7347 -11.6875,-0.01 -21.9088,-0.432 -22.714,-0.9413 z m 309.5354,-0.6148 c -1.4118,-1.4118 -1.5714,-14.2554 -1.5714,-126.4286 0,-112.1732 0.1596,-125.0168 1.5714,-126.4286 1.3275,-1.3275 4.7892,-1.5714 22.3,-1.5714 14.7889,0 21.0725,0.3439 21.9286,1.2 1.743,1.743 1.743,251.857 0,253.6 -0.8561,0.8561 -7.1397,1.2 -21.9286,1.2 -17.5108,0 -20.9725,-0.2439 -22.3,-1.5714 z m 112.6786,0.9091 c -0.9908,-0.3998 -1.25,-26.802 -1.25,-127.314 0,-114.7114 0.1509,-126.8676 1.5818,-127.4167 2.3491,-0.9014 41.7143,-0.7058 43.1636,0.2145 0.9783,0.6212 1.3,23.4027 1.5,106.2347 l 0.2546,105.4438 66,0.5 66,0.5 0.2713,20.4278 c 0.2081,15.6745 -0.025,20.6156 -1,21.2347 -1.3526,0.8585 -174.4023,1.0302 -176.5213,0.1752 z m 225.95,-0.5377 c -1.743,-1.743 -1.743,-251.857 0,-253.6 0.8581,-0.8581 7.2588,-1.2 22.4648,-1.2 20.0005,0 21.3264,0.115 22.3,1.9343 1.4416,2.6935 1.4416,249.4379 0,252.1314 -0.9736,1.8193 -2.2995,1.9343 -22.3,1.9343 -15.206,0 -21.6067,-0.3419 -22.4648,-1.2 z m -769.2,-318.2856 c 0,-2.4687 107.0022,-47.2026 179.2327,-74.9309 285.8031,-109.71608 516.2857,-158.77394 688.2673,-146.49661 69.2406,4.94292 111.0828,13.87888 144.1106,30.77673 39.7839,20.35447 59.4625,50.66845 59.3711,91.45874 -0.019,8.41106 -2.1333,25.70294 -4.0397,33.03604 -0.5921,2.2779 -1.5137,5.8291 -2.0479,7.8916 -0.5341,2.0625 -1.5163,3.7455 -2.1826,3.74 -0.6663,-0.01 -5.3753,-4.0307 -10.4645,-8.945 -30.9429,-29.87979 -80.7746,-49.47336 -151.247,-59.46964 -40.0907,-5.68674 -67.5891,-7.54577 -122.2439,-8.26433 -69.1263,-0.90882 -145.0978,2.50157 -217.2561,9.75271 -164.5588,16.53641 -345.4883,55.48476 -538.9272,116.01376 -17.4893,5.4726 -22.5728,6.697 -22.5728,5.4369 z"
         style="fill:#cff0a4" />
      <path
         inkscape:connector-curvature="0"
         id="path837"
         d="m 1043.7155,1688.0294 c -31.3828,-1.1855 -66.07812,-4.6036 -96.99996,-9.5561 -75.9556,-12.1653 -121.1495,-35.9871 -140.21894,-73.9097 -8.34529,-16.5959 -11.39337,-38.2275 -8.39306,-59.5636 1.44942,-10.3072 5.93313,-29.6545 7.15574,-30.8771 0.26107,-0.261 4.85803,3.8674 10.21547,9.1743 15.69555,15.5475 27.62946,23.7089 51.32296,35.0992 39.95919,19.2098 89.46775,30.5285 166.41779,38.0469 40.9502,4.0011 142.7572,5.8374 202.6108,3.6546 181.7089,-6.6267 375.9297,-38.4918 588.8067,-96.6036 17.2797,-4.717 32.1297,-8.4247 33,-8.2393 1.8218,0.3881 -25.9716,11.5286 -73.4175,29.4281 -306.4901,115.6267 -554.6453,170.367 -740.5,163.3463 z m 1381,-283.5008 c -18.6596,-3.1507 -38.1996,-11.0497 -53.732,-21.7211 -15.9307,-10.9452 -30.8288,-28.1473 -39.8462,-46.0088 -10.2884,-20.3789 -13.4516,-33.0907 -14.1334,-56.7987 -0.5383,-18.7199 0.636,-29.2573 4.8369,-43.402 13.3571,-44.9737 51.1391,-79.757 97.8747,-90.1064 11.4174,-2.5284 40.0435,-3.1402 52.7511,-1.1276 53.7058,8.5062 94.5973,47.2765 106.7736,101.2348 2.5323,11.2218 3.0744,37.105 1.0367,49.5009 -3.2974,20.0587 -12.4367,42.0824 -23.8353,57.4381 -19.5606,26.3509 -51.3174,45.6625 -83.7261,50.9146 -11.4615,1.8574 -37.2087,1.8983 -48,0.076 z m 36.2273,-41.0081 c 17.2769,-1.4679 38.0127,-11.9977 49.8858,-25.3322 13.1829,-14.8055 20.8698,-32.8937 22.8433,-53.7529 4.7796,-50.5202 -29.0384,-94.1147 -76.2175,-98.2513 -39.4408,-3.4581 -72.7513,16.9682 -86.84,53.2511 -7.925,20.4095 -8.7347,43.2956 -2.2584,63.8361 7.6134,24.147 22.2713,41.6407 43.6467,52.0908 6.1671,3.0149 13.6323,6.0254 16.5896,6.6899 6.188,1.3906 19.4486,2.7179 23.1232,2.3146 1.375,-0.151 5.5273,-0.5317 9.2273,-0.8461 z m -1728.75837,37.2491 c -0.26584,-0.6983 -0.3676,-57.7446 -0.22612,-126.7696 l 0.25723,-125.5 h 22 22 l 0.25777,61.4578 c 0.14177,33.8017 0.61586,61.8158 1.05353,62.2535 0.60197,0.602 64.28665,-65.7824 115.88772,-120.8004 L 896.61357,1148 h 26.49197 c 15.39562,0 26.73453,0.3925 27.07108,0.937 0.31851,0.5154 -22.60493,24.9216 -50.94098,54.236 -28.33606,29.3144 -51.5154,53.7552 -51.50965,54.313 0.006,0.5577 24.305,32.8957 53.99833,71.8622 29.69334,38.9665 53.73708,71.254 53.43054,71.75 -0.30827,0.4988 -12.31895,0.9018 -26.87507,0.9018 h -26.31771 l -42.86585,-56.5 c -23.57621,-31.075 -43.1442,-56.5 -43.48441,-56.5 -0.34021,0 -9.11855,8.8444 -19.50742,19.6542 l -18.88886,19.6542 -0.5,36.5958 -0.5,36.5958 -21.77388,0.2696 c -16.87646,0.2089 -21.88259,-0.016 -22.25723,-1 z m 236.00426,-0.02 c -0.25525,-0.6875 24.41572,-58.175 54.82431,-127.75 l 55.2885,-126.5 20.5681,-0.2699 c 15.6861,-0.2058 20.812,0.032 21.5958,1 1.7331,2.1416 110.2501,251.2131 110.2501,253.0496 0,1.5769 -1.9064,1.7203 -22.8776,1.7203 -17.1022,0 -23.1299,-0.3156 -23.8772,-1.25 -0.5499,-0.6875 -6.278,-13.85 -12.7293,-29.25 -6.4513,-15.4 -12.1866,-28.5625 -12.7452,-29.25 -0.7857,-0.967 -11.3876,-1.25 -46.8341,-1.25 -27.9253,0 -46.0483,-0.3718 -46.4069,-0.952 -0.4734,-0.7659 8.6977,-23.6906 14.5211,-36.298 l 1.2702,-2.75 h 29.3709 c 23.3445,0 29.4744,-0.2697 29.8753,-1.3146 0.5616,-1.4635 -39.9592,-95.9827 -41.3464,-96.4451 -1.1053,-0.3685 3.5497,-11.0486 -43.6987,100.2597 -22.4127,52.8 -41.204,96.5625 -41.7586,97.25 -0.7513,0.9313 -6.5946,1.25 -22.91729,1.25 -16.61297,0 -22.02112,-0.3022 -22.37302,-1.25 z m 306.99581,0.02 c -0.2659,-0.6985 -0.3677,-57.745 -0.2262,-126.77 l 0.2572,-125.5 h 23.8592 23.8591 l 37.6409,58.4257 c 20.7024,32.1341 38.0908,58.5642 38.6408,58.7336 0.55,0.1693 17.65,-25.6296 38,-57.3311 20.35,-31.7014 37.5946,-58.244 38.3214,-58.9836 1.0319,-1.0499 6.4322,-1.3446 24.643,-1.3446 20.3438,0 23.3991,0.202 23.9286,1.5818 0.9216,2.4017 0.6954,249.7306 -0.2297,251.1882 -0.6203,0.9774 -5.8591,1.2078 -22.7347,1 l -21.9286,-0.27 -0.2554,-88.75 c -0.1405,-48.8125 -0.6235,-88.75 -1.0734,-88.75 -0.4498,0 -18.0847,25.875 -39.1886,57.5 -24.7945,37.1556 -38.9528,57.5 -40.016,57.5 -1.0643,0 -15.0341,-20.12 -39.556,-56.9705 -20.8508,-31.3337 -38.3606,-56.8338 -38.9106,-56.6667 -0.6518,0.1979 -1.1741,30.9152 -1.5,88.2204 l -0.5,87.9168 -21.2737,0.27 c -16.476,0.209 -21.3828,-0.016 -21.7573,-1 z m 292.531,-0.2207 c 0,-1.312 105.9171,-244.6203 109.5278,-251.6026 l 1.5236,-2.9463 h 20.4486 20.4486 l 1.5551,3.0072 c 3.6614,7.0803 109.4963,250.1949 109.4963,251.5252 0,1.2476 -3.445,1.4676 -22.9769,1.4676 -22.7374,0 -22.9919,-0.024 -24.4079,-2.25 -0.787,-1.2375 -6.5017,-14.4 -12.6994,-29.25 -6.1977,-14.85 -11.6943,-27.5625 -12.2146,-28.25 -0.7327,-0.9681 -11.2991,-1.25 -46.855,-1.25 -36.185,0 -46.0122,-0.2689 -46.3962,-1.2697 -0.268,-0.6984 3.0481,-9.5859 7.3691,-19.75 l 7.8564,-18.4803 29.5805,-0.5 c 16.2693,-0.275 29.8797,-0.7999 30.2454,-1.1665 0.9351,-0.9373 -40.6699,-96.944 -41.8418,-96.5534 -0.5276,0.1759 -19.6882,44.3973 -42.5791,98.2698 -22.8909,53.8726 -41.9751,98.5126 -42.4092,99.2001 -0.5932,0.9394 -6.3652,1.25 -23.2303,1.25 -18.9447,0 -22.441,-0.2261 -22.441,-1.4511 z m 309.4614,0.2011 c -0.2617,-0.6875 -0.3601,-57.725 -0.2186,-126.75 l 0.2572,-125.5 22.25,-0.2691 22.25,-0.2692 V 1274.9809 1402 h -22.0314 c -16.7046,0 -22.1464,-0.3022 -22.5072,-1.25 z m 112,0 c -0.2617,-0.6875 -0.3601,-57.725 -0.2186,-126.75 l 0.2572,-125.5 22.25,-0.2691 c 12.2375,-0.1481 22.3574,-0.1481 22.4886,0 0.1312,0.148 0.4687,47.9691 0.75,106.2691 l 0.5114,106 66,0.5 66,0.5 0.2845,18 c 0.1565,9.9 0.035,19.0125 -0.269,20.25 l -0.5536,2.25 h -88.5123 c -69.8895,0 -88.6125,-0.263 -88.9882,-1.25 z m 227.0075,0.02 c -0.2659,-0.6983 -0.3676,-57.7446 -0.2261,-126.7696 l 0.2572,-125.5 h 22 22 v 126.5 126.5 l -21.7739,0.2696 c -16.8764,0.2089 -21.8826,-0.016 -22.2572,-1 z m -762.824,-320.2335 c 1.1495,-0.8051 14.6371,-6.8349 29.9725,-13.3995 166.4156,-71.23747 321.0377,-125.39469 455.8826,-159.67535 97.6438,-24.82329 175.5135,-38.12188 261.5,-44.659 22.1077,-1.68073 97.8837,-1.68889 117.5,-0.0127 67.1246,5.73589 103.4498,13.24648 134.2131,27.74988 33.8761,15.97091 53.1077,36.89518 61.5437,66.96052 2.5148,8.96256 3.4454,31.57414 1.8131,44.05345 -1.354,10.3518 -4.8846,26.214 -5.9862,26.8948 -0.4147,0.2562 -4.6187,-3.2538 -9.3424,-7.8002 -31.5006,-30.31788 -79.9847,-49.94998 -148.2413,-60.02551 -64.1422,-9.46818 -133.1105,-11.57911 -232.5,-7.11618 -34.1712,1.53441 -35.94,1.64036 -67,4.01314 -174.8992,13.36117 -370.2259,53.50575 -583.2742,119.87775 -15.7763,4.9149 -19.7138,5.6834 -16.0809,3.1388 z"
         style="fill:#abe55e" />
      <path
         inkscape:connector-curvature="0"
         id="path835"
         d="m 1049.7155,1687.3984 c -34.5243,-1.0884 -80.67068,-5.7858 -112.99996,-11.5025 -79.08515,-13.9846 -123.58338,-43.0584 -135.71459,-88.6721 -2.23191,-8.392 -2.59424,-11.8467 -2.64555,-25.2238 -0.0618,-16.117 1.3283,-26.4347 5.42602,-40.2728 l 2.00556,-6.7729 8.71428,8.8202 c 13.91515,14.0842 26.50373,22.855 48.80797,34.0058 49.66785,24.8309 122.40344,38.6227 228.40627,43.3095 30.594,1.3526 142.3076,0.6822 172.5,-1.0353 76.9447,-4.377 137.2401,-10.4403 210.5,-21.1677 112.2039,-16.4301 243.0403,-44.4719 359.2912,-77.0059 5.9352,-1.6611 11.2903,-2.8537 11.9002,-2.6504 1.8275,0.6091 -62.4244,25.1976 -122.1914,46.7612 -229.1624,82.6807 -422.9051,129.0287 -583,139.4679 -22.8977,1.4931 -71.9736,2.5387 -91,1.9388 z m 1375,-282.8698 c -18.6596,-3.1507 -38.1996,-11.0497 -53.732,-21.7211 -15.9307,-10.9452 -30.8288,-28.1473 -39.8462,-46.0088 -10.2884,-20.3789 -13.4516,-33.0907 -14.1334,-56.7987 -0.5383,-18.7199 0.636,-29.2573 4.8369,-43.402 13.3571,-44.9737 51.1391,-79.757 97.8747,-90.1064 11.4174,-2.5284 40.0435,-3.1402 52.7511,-1.1276 53.7058,8.5062 94.5973,47.2765 106.7736,101.2348 2.5323,11.2218 3.0744,37.105 1.0367,49.5009 -3.2974,20.0587 -12.4367,42.0824 -23.8353,57.4381 -19.5606,26.3509 -51.3174,45.6625 -83.7261,50.9146 -11.4615,1.8574 -37.2087,1.8983 -48,0.076 z m 36.2273,-41.0081 c 17.2769,-1.4679 38.0127,-11.9977 49.8858,-25.3322 13.1829,-14.8055 20.8698,-32.8937 22.8433,-53.7529 4.7796,-50.5202 -29.0384,-94.1147 -76.2175,-98.2513 -39.4408,-3.4581 -72.7513,16.9682 -86.84,53.2511 -7.925,20.4095 -8.7347,43.2956 -2.2584,63.8361 7.6134,24.147 22.2713,41.6407 43.6467,52.0908 6.1671,3.0149 13.6323,6.0254 16.5896,6.6899 6.188,1.3906 19.4486,2.7179 23.1232,2.3146 1.375,-0.151 5.5273,-0.5317 9.2273,-0.8461 z m -1728.75837,37.2491 c -0.26584,-0.6983 -0.3676,-57.7446 -0.22612,-126.7696 l 0.25723,-125.5 h 22 22 l 0.25777,61.4578 c 0.14177,33.8017 0.61586,61.8158 1.05353,62.2535 0.60197,0.602 64.28665,-65.7824 115.88772,-120.8004 L 896.61357,1148 h 26.49197 c 15.39562,0 26.73453,0.3925 27.07108,0.937 0.31851,0.5154 -22.60493,24.9216 -50.94098,54.236 -28.33606,29.3144 -51.5154,53.7552 -51.50965,54.313 0.006,0.5577 24.305,32.8957 53.99833,71.8622 29.69334,38.9665 53.73708,71.254 53.43054,71.75 -0.30827,0.4988 -12.31895,0.9018 -26.87507,0.9018 h -26.31771 l -42.86585,-56.5 c -23.57621,-31.075 -43.1442,-56.5 -43.48441,-56.5 -0.34021,0 -9.11855,8.8444 -19.50742,19.6542 l -18.88886,19.6542 -0.5,36.5958 -0.5,36.5958 -21.77388,0.2696 c -16.87646,0.2089 -21.88259,-0.016 -22.25723,-1 z m 236.00426,-0.02 c -0.25525,-0.6875 24.41572,-58.175 54.82431,-127.75 l 55.2885,-126.5 20.5681,-0.2699 c 15.6861,-0.2058 20.812,0.032 21.5958,1 1.7331,2.1416 110.2501,251.2131 110.2501,253.0496 0,1.5769 -1.9064,1.7203 -22.8776,1.7203 -17.1022,0 -23.1299,-0.3156 -23.8772,-1.25 -0.5499,-0.6875 -6.278,-13.85 -12.7293,-29.25 -6.4513,-15.4 -12.1866,-28.5625 -12.7452,-29.25 -0.7857,-0.967 -11.3876,-1.25 -46.8341,-1.25 -27.9253,0 -46.0483,-0.3718 -46.4069,-0.952 -0.4734,-0.7659 8.6977,-23.6906 14.5211,-36.298 l 1.2702,-2.75 h 29.3709 c 23.3445,0 29.4744,-0.2697 29.8753,-1.3146 0.5616,-1.4635 -39.9592,-95.9827 -41.3464,-96.4451 -1.1053,-0.3685 3.5497,-11.0486 -43.6987,100.2597 -22.4127,52.8 -41.204,96.5625 -41.7586,97.25 -0.7513,0.9313 -6.5946,1.25 -22.91729,1.25 -16.61297,0 -22.02112,-0.3022 -22.37302,-1.25 z m 306.99581,0.02 c -0.2659,-0.6985 -0.3677,-57.745 -0.2262,-126.77 l 0.2572,-125.5 h 23.8592 23.8591 l 37.6409,58.4257 c 20.7024,32.1341 38.0908,58.5642 38.6408,58.7336 0.55,0.1693 17.65,-25.6296 38,-57.3311 20.35,-31.7014 37.5946,-58.244 38.3214,-58.9836 1.0319,-1.0499 6.4322,-1.3446 24.643,-1.3446 20.3438,0 23.3991,0.202 23.9286,1.5818 0.9216,2.4017 0.6954,249.7306 -0.2297,251.1882 -0.6203,0.9774 -5.8591,1.2078 -22.7347,1 l -21.9286,-0.27 -0.2554,-88.75 c -0.1405,-48.8125 -0.6235,-88.75 -1.0734,-88.75 -0.4498,0 -18.0847,25.875 -39.1886,57.5 -24.7945,37.1556 -38.9528,57.5 -40.016,57.5 -1.0643,0 -15.0341,-20.12 -39.556,-56.9705 -20.8508,-31.3337 -38.3606,-56.8338 -38.9106,-56.6667 -0.6518,0.1979 -1.1741,30.9152 -1.5,88.2204 l -0.5,87.9168 -21.2737,0.27 c -16.476,0.209 -21.3828,-0.016 -21.7573,-1 z m 292.531,-0.2207 c 0,-1.312 105.9171,-244.6203 109.5278,-251.6026 l 1.5236,-2.9463 h 20.4486 20.4486 l 1.5551,3.0072 c 3.6614,7.0803 109.4963,250.1949 109.4963,251.5252 0,1.2476 -3.445,1.4676 -22.9769,1.4676 -22.7374,0 -22.9919,-0.024 -24.4079,-2.25 -0.787,-1.2375 -6.5017,-14.4 -12.6994,-29.25 -6.1977,-14.85 -11.6943,-27.5625 -12.2146,-28.25 -0.7327,-0.9681 -11.2991,-1.25 -46.855,-1.25 -36.185,0 -46.0122,-0.2689 -46.3962,-1.2697 -0.268,-0.6984 3.0481,-9.5859 7.3691,-19.75 l 7.8564,-18.4803 29.5805,-0.5 c 16.2693,-0.275 29.8797,-0.7999 30.2454,-1.1665 0.9351,-0.9373 -40.6699,-96.944 -41.8418,-96.5534 -0.5276,0.1759 -19.6882,44.3973 -42.5791,98.2698 -22.8909,53.8726 -41.9751,98.5126 -42.4092,99.2001 -0.5932,0.9394 -6.3652,1.25 -23.2303,1.25 -18.9447,0 -22.441,-0.2261 -22.441,-1.4511 z m 309.4614,0.2011 c -0.2617,-0.6875 -0.3601,-57.725 -0.2186,-126.75 l 0.2572,-125.5 22.25,-0.2691 22.25,-0.2692 V 1274.9809 1402 h -22.0314 c -16.7046,0 -22.1464,-0.3022 -22.5072,-1.25 z m 112,0 c -0.2617,-0.6875 -0.3601,-57.725 -0.2186,-126.75 l 0.2572,-125.5 22.25,-0.2691 c 12.2375,-0.1481 22.3574,-0.1481 22.4886,0 0.1312,0.148 0.4687,47.9691 0.75,106.2691 l 0.5114,106 66,0.5 66,0.5 0.2845,18 c 0.1565,9.9 0.035,19.0125 -0.269,20.25 l -0.5536,2.25 h -88.5123 c -69.8895,0 -88.6125,-0.263 -88.9882,-1.25 z m 227.0075,0.02 c -0.2659,-0.6983 -0.3676,-57.7446 -0.2261,-126.7696 l 0.2572,-125.5 h 22 22 v 126.5 126.5 l -21.7739,0.2696 c -16.8764,0.2089 -21.8826,-0.016 -22.2572,-1 z m -762.824,-320.2335 c 1.1495,-0.8051 14.6371,-6.8349 29.9725,-13.3995 166.4156,-71.23747 321.0377,-125.39469 455.8826,-159.67535 97.6438,-24.82329 175.5135,-38.12188 261.5,-44.659 22.1077,-1.68073 97.8837,-1.68889 117.5,-0.0127 67.1246,5.73589 103.4498,13.24648 134.2131,27.74988 33.8761,15.97091 53.1077,36.89518 61.5437,66.96052 2.5148,8.96256 3.4454,31.57414 1.8131,44.05345 -1.354,10.3518 -4.8846,26.214 -5.9862,26.8948 -0.4147,0.2562 -4.6187,-3.2538 -9.3424,-7.8002 -31.5006,-30.31788 -79.9847,-49.94998 -148.2413,-60.02551 -64.1422,-9.46818 -133.1105,-11.57911 -232.5,-7.11618 -34.1712,1.53441 -35.94,1.64036 -67,4.01314 -174.8992,13.36117 -370.2259,53.50575 -583.2742,119.87775 -15.7763,4.9149 -19.7138,5.6834 -16.0809,3.1388 z"
         style="fill:#9aa1a2" />
      <path
         inkscape:connector-curvature="0"
         id="path833"
         d="m 1049.7155,1687.3984 c -34.5243,-1.0884 -80.67068,-5.7858 -112.99996,-11.5025 -79.08515,-13.9846 -123.58338,-43.0584 -135.71459,-88.6721 -2.23191,-8.392 -2.59424,-11.8467 -2.64555,-25.2238 -0.0618,-16.117 1.3283,-26.4347 5.42602,-40.2728 l 2.00556,-6.7729 8.71428,8.8202 c 13.91515,14.0842 26.50373,22.855 48.80797,34.0058 49.66785,24.8309 122.40344,38.6227 228.40627,43.3095 30.594,1.3526 142.3076,0.6822 172.5,-1.0353 76.9447,-4.377 137.2401,-10.4403 210.5,-21.1677 112.2039,-16.4301 243.0403,-44.4719 359.2912,-77.0059 5.9352,-1.6611 11.2903,-2.8537 11.9002,-2.6504 1.8275,0.6091 -62.4244,25.1976 -122.1914,46.7612 -229.1624,82.6807 -422.9051,129.0287 -583,139.4679 -22.8977,1.4931 -71.9736,2.5387 -91,1.9388 z m 1386.5,-282.478 c -18.7816,-1.4931 -33.337,-5.6672 -50.4435,-14.4659 -24.2287,-12.462 -41.348,-29.7791 -54.0006,-54.625 -10.1331,-19.8983 -14.3556,-37.6543 -14.3466,-60.3295 0.01,-16.1135 1.8961,-28.5326 6.385,-41.9609 10.981,-32.8493 33.0378,-58.6345 63.5734,-74.3196 16.9164,-8.6893 31.2619,-12.6635 51.0789,-14.1507 62.8383,-4.7155 116.5375,29.7991 135.7659,87.2621 5.3075,15.8614 6.7795,27.1429 6.1546,47.1691 -0.7079,22.6851 -4.2282,36.7835 -13.9517,55.8753 -20.4687,40.1893 -60.0383,65.9785 -106.8139,69.6151 -6.8208,0.5303 -12.6265,0.9104 -12.9015,0.8446 -0.275,-0.066 -5,-0.4774 -10.5,-0.9146 z m 38,-42.9596 c 31.4448,-9.8628 54.1287,-36.6215 59.5307,-70.2243 1.7465,-10.864 0.7518,-33.057 -1.8943,-42.2632 -8.7272,-30.3634 -29.8765,-52.3956 -59.1364,-61.6049 -6.613,-2.0814 -9.4514,-2.3611 -24,-2.3645 -14.4903,0 -17.4135,0.2806 -24,2.3319 -23.4313,7.2975 -42.5371,23.8944 -52.6142,45.705 -5.9575,12.8942 -8.5413,24.8556 -8.6316,39.9592 -0.043,7.15 0.474,15.7 1.1482,19 5.9471,29.108 22.2367,51.5585 46.0312,63.4407 15.2987,7.6397 22.2493,9.0764 41.5664,8.5919 11.8906,-0.2982 16.4511,-0.8314 22,-2.5718 z M 732.71554,1275 v -126 h 21.49243 21.49243 l 0.25757,62.1668 c 0.18472,44.5845 0.57259,62.2717 1.37141,62.5379 0.61262,0.2042 27.74869,-27.7709 60.30238,-62.1668 L 896.8203,1149 h 25.94762 c 14.27119,0 25.94762,0.3821 25.94762,0.8491 0,0.4671 -22.97915,24.6313 -51.06477,53.6984 -32.64261,33.7833 -50.91685,53.4089 -50.65476,54.4008 0.2255,0.8534 24.32965,32.9344 53.56477,71.2911 29.23512,38.3566 53.15476,70.1941 53.15476,70.75 0,0.6549 -9.06275,1.0072 -25.75,1.0008 l -25.75,-0.01 -42.48676,-56.0776 c -23.36771,-30.8426 -42.87609,-56.3181 -43.35194,-56.6122 -1.02445,-0.6332 -10.01849,8.0873 -27.75297,26.9089 l -12.90833,13.6999 V 1364.9496 1401 h -21.5 -21.5 z m 236.27189,124.2695 c 0.94923,-3.2594 108.93517,-249.7523 109.97787,-251.0398 0.7835,-0.9674 5.8034,-1.2058 21.0559,-1 l 20.0273,0.2703 54.8323,125.5 c 30.1578,69.025 54.8329,126.0709 54.8336,126.7688 9e-4,0.9956 -4.8769,1.2109 -22.6582,1 l -22.6593,-0.2688 -12.5991,-30 -12.5992,-30 -46.4915,-0.5 c -40.5824,-0.4364 -46.4607,-0.6907 -46.2483,-2 0.3602,-2.2211 13.1309,-32.132 14.8367,-34.75 1.4656,-2.2493 1.4754,-2.25 30.9431,-2.25 24.2497,0 29.4769,-0.2422 29.4769,-1.366 0,-2.6366 -41.8248,-98.134 -42.9795,-98.134 -0.6423,0 -20.1856,44.775 -43.4295,99.5 l -42.2618,99.5 -22.28627,0.2695 c -20.91646,0.2529 -22.25465,0.1606 -21.771,-1.5 z M 1275.7155,1275 v -126 h 23.2515 23.2516 l 37.9715,59 c 20.8843,32.45 38.4949,59 39.1346,59 0.6396,0 17.7162,-25.7625 37.9479,-57.25 20.2318,-31.4875 37.4601,-58.0456 38.2852,-59.018 1.3673,-1.6114 3.5451,-1.7443 24.579,-1.5 l 23.0787,0.268 v 125.5 125.5 h -21.5 -21.5 l -0.5,-89 c -0.3277,-58.3333 -0.8446,-89 -1.5,-89 -0.55,0 -18.3397,25.8717 -39.5327,57.4926 -21.193,31.6209 -39.193,57.6038 -40,57.7398 -0.9453,0.1592 -15.0738,-20.203 -39.7182,-57.2426 -21.038,-31.6194 -38.7005,-57.4898 -39.25,-57.4898 -0.6578,0 -0.9991,29.8593 -0.9991,87.4182 0,48.08 -0.2731,88.13 -0.607,89 -0.5267,1.3726 -3.3708,1.5818 -21.5,1.5818 h -20.893 z m 293,125.0323 c 0,-0.771 94.3971,-217.5542 107.0246,-245.7823 l 3.2432,-7.25 h 20.2322 20.2322 l 3.2462,7.25 c 12.5163,27.9542 107.0216,245.0035 107.0216,245.7954 0,0.635 -8.1888,0.8954 -22.7494,0.7234 l -22.7493,-0.2688 -12.058,-28.6654 c -6.6319,-15.766 -12.6498,-29.3785 -13.3731,-30.25 -1.1652,-1.404 -6.5441,-1.5846 -47.1926,-1.5846 -26.8,0 -45.8776,-0.3774 -45.8776,-0.9075 0,-1.7869 15.2774,-36.6077 16.3771,-37.3272 0.6176,-0.4041 14.2854,-0.7416 30.3729,-0.75 20.905,-0.011 29.25,-0.3347 29.25,-1.1348 0,-1.4393 -39.7339,-93.6102 -41.7025,-96.7374 -0.816,-1.2963 -1.8554,-1.9713 -2.3096,-1.5 -0.4543,0.4713 -19.2672,44.2819 -41.8066,97.3569 -22.5394,53.075 -41.5481,97.7375 -42.2415,99.25 l -1.2608,2.75 h -21.8395 c -13.4064,0 -21.8395,-0.3737 -21.8395,-0.9677 z m 309,-125.0323 v -126.039 l 21.75,0.2695 21.75,0.2695 v 125.5 125.5 l -21.75,0.2695 -21.75,0.2695 z m 112.4635,124.7555 c -0.2629,-0.6905 -0.3622,-57.2805 -0.2207,-125.7555 l 0.2572,-124.5 h 21.5 21.5 l 0.2546,105.75 0.2545,105.75 65.2455,0.015 c 35.885,0.01 65.8181,0.3788 66.5181,0.8231 0.9732,0.6176 1.2086,5.2614 1,19.7347 l -0.2727,18.9269 -87.7793,0.2555 c -69.695,0.2028 -87.8777,0 -88.2572,-1 z m 226.1435,-0.3373 c -0.7934,-2.0676 -0.7934,-246.7688 0,-248.8364 0.5273,-1.3742 3.4149,-1.5818 22,-1.5818 h 21.393 v 126 126 h -21.393 c -18.5851,0 -21.4727,-0.2076 -22,-1.5818 z m -753.057,-322.3001 c 1.1348,-1.0534 46.1115,-20.2958 76.95,-32.9215 210.0624,-86.00279 389.374,-140.99403 541.8841,-166.18497 99.3971,-16.41796 179.3061,-20.08323 260.4136,-11.94467 50.6546,5.08284 83.1374,12.61007 110.1316,25.52085 33.4162,15.98225 52.3582,36.6606 60.3775,65.91219 1.9016,6.93632 2.1923,10.52624 2.1861,27 -0.01,16.2224 -0.3495,20.5498 -2.349,29.6011 -1.288,5.8306 -2.7095,11.196 -3.1588,11.9231 -0.5978,0.9672 -3.3183,-1.0327 -10.1387,-7.4531 -15.9379,-15.0032 -36.841,-27.59277 -62.8903,-37.87756 -68.898,-27.20227 -183.1315,-36.00465 -345.9561,-26.65798 -176.8701,10.15292 -368.9428,46.62254 -582.5,110.60174 -13.75,4.1193 -29.1679,8.8111 -34.262,10.4262 -9.6575,3.0619 -12.3257,3.5748 -10.688,2.0546 z"
         style="fill:#8adc20" />
      <path
         inkscape:connector-curvature="0"
         id="path831"
         d="m 1040.2155,1686.0139 c -43.50153,-1.8903 -91.86232,-7.9263 -125.39362,-15.6506 -47.42539,-10.9251 -81.81472,-29.8935 -99.75544,-55.023 -13.41371,-18.7886 -18.85333,-44.6295 -14.9525,-71.0318 1.41433,-9.5727 5.01414,-26.0544 5.87967,-26.9199 0.1504,-0.1504 4.85587,4.1671 10.4566,9.5944 40.21977,38.9746 110.06865,61.8837 217.76529,71.4231 41.9212,3.7132 53.9406,4.0939 129,4.0859 74.0678,-0.01 91.8729,-0.5156 142.5,-4.0628 153.6083,-10.7626 322.3092,-40.414 500,-87.8816 13.475,-3.5997 24.95,-6.5265 25.5,-6.504 1.727,0.071 -9.7643,4.6008 -50.5,19.9084 -257.2754,96.6787 -466.5817,149.203 -639.5,160.4793 -29.2558,1.9078 -76.484,2.6478 -101,1.5826 z m 1396,-281.0935 c -18.7816,-1.4931 -33.337,-5.6672 -50.4435,-14.4659 -24.2287,-12.462 -41.348,-29.7791 -54.0006,-54.625 -10.1331,-19.8983 -14.3556,-37.6543 -14.3466,-60.3295 0.01,-16.1135 1.8961,-28.5326 6.385,-41.9609 10.981,-32.8493 33.0378,-58.6345 63.5734,-74.3196 16.9164,-8.6893 31.2619,-12.6635 51.0789,-14.1507 62.8383,-4.7155 116.5375,29.7991 135.7659,87.2621 5.3075,15.8614 6.7795,27.1429 6.1546,47.1691 -0.7079,22.6851 -4.2282,36.7835 -13.9517,55.8753 -20.4687,40.1893 -60.0383,65.9785 -106.8139,69.6151 -6.8208,0.5303 -12.6265,0.9104 -12.9015,0.8446 -0.275,-0.066 -5,-0.4774 -10.5,-0.9146 z m 38,-42.9596 c 31.4448,-9.8628 54.1287,-36.6215 59.5307,-70.2243 1.7465,-10.864 0.7518,-33.057 -1.8943,-42.2632 -8.7272,-30.3634 -29.8765,-52.3956 -59.1364,-61.6049 -6.613,-2.0814 -9.4514,-2.3611 -24,-2.3645 -14.4903,0 -17.4135,0.2806 -24,2.3319 -23.4313,7.2975 -42.5371,23.8944 -52.6142,45.705 -5.9575,12.8942 -8.5413,24.8556 -8.6316,39.9592 -0.043,7.15 0.474,15.7 1.1482,19 5.9471,29.108 22.2367,51.5585 46.0312,63.4407 15.2987,7.6397 22.2493,9.0764 41.5664,8.5919 11.8906,-0.2982 16.4511,-0.8314 22,-2.5718 z M 732.71554,1275 v -126 h 21.49243 21.49243 l 0.25757,62.1668 c 0.18472,44.5845 0.57259,62.2717 1.37141,62.5379 0.61262,0.2042 27.74869,-27.7709 60.30238,-62.1668 L 896.8203,1149 h 25.94762 c 14.27119,0 25.94762,0.3821 25.94762,0.8491 0,0.4671 -22.97915,24.6313 -51.06477,53.6984 -32.64261,33.7833 -50.91685,53.4089 -50.65476,54.4008 0.2255,0.8534 24.32965,32.9344 53.56477,71.2911 29.23512,38.3566 53.15476,70.1941 53.15476,70.75 0,0.6549 -9.06275,1.0072 -25.75,1.0008 l -25.75,-0.01 -42.48676,-56.0776 c -23.36771,-30.8426 -42.87609,-56.3181 -43.35194,-56.6122 -1.02445,-0.6332 -10.01849,8.0873 -27.75297,26.9089 l -12.90833,13.6999 V 1364.9496 1401 h -21.5 -21.5 z m 236.27189,124.2695 c 0.94923,-3.2594 108.93517,-249.7523 109.97787,-251.0398 0.7835,-0.9674 5.8034,-1.2058 21.0559,-1 l 20.0273,0.2703 54.8323,125.5 c 30.1578,69.025 54.8329,126.0709 54.8336,126.7688 9e-4,0.9956 -4.8769,1.2109 -22.6582,1 l -22.6593,-0.2688 -12.5991,-30 -12.5992,-30 -46.4915,-0.5 c -40.5824,-0.4364 -46.4607,-0.6907 -46.2483,-2 0.3602,-2.2211 13.1309,-32.132 14.8367,-34.75 1.4656,-2.2493 1.4754,-2.25 30.9431,-2.25 24.2497,0 29.4769,-0.2422 29.4769,-1.366 0,-2.6366 -41.8248,-98.134 -42.9795,-98.134 -0.6423,0 -20.1856,44.775 -43.4295,99.5 l -42.2618,99.5 -22.28627,0.2695 c -20.91646,0.2529 -22.25465,0.1606 -21.771,-1.5 z M 1275.7155,1275 v -126 h 23.2515 23.2516 l 37.9715,59 c 20.8843,32.45 38.4949,59 39.1346,59 0.6396,0 17.7162,-25.7625 37.9479,-57.25 20.2318,-31.4875 37.4601,-58.0456 38.2852,-59.018 1.3673,-1.6114 3.5451,-1.7443 24.579,-1.5 l 23.0787,0.268 v 125.5 125.5 h -21.5 -21.5 l -0.5,-89 c -0.3277,-58.3333 -0.8446,-89 -1.5,-89 -0.55,0 -18.3397,25.8717 -39.5327,57.4926 -21.193,31.6209 -39.193,57.6038 -40,57.7398 -0.9453,0.1592 -15.0738,-20.203 -39.7182,-57.2426 -21.038,-31.6194 -38.7005,-57.4898 -39.25,-57.4898 -0.6578,0 -0.9991,29.8593 -0.9991,87.4182 0,48.08 -0.2731,88.13 -0.607,89 -0.5267,1.3726 -3.3708,1.5818 -21.5,1.5818 h -20.893 z m 293,125.0323 c 0,-0.771 94.3971,-217.5542 107.0246,-245.7823 l 3.2432,-7.25 h 20.2322 20.2322 l 3.2462,7.25 c 12.5163,27.9542 107.0216,245.0035 107.0216,245.7954 0,0.635 -8.1888,0.8954 -22.7494,0.7234 l -22.7493,-0.2688 -12.058,-28.6654 c -6.6319,-15.766 -12.6498,-29.3785 -13.3731,-30.25 -1.1652,-1.404 -6.5441,-1.5846 -47.1926,-1.5846 -26.8,0 -45.8776,-0.3774 -45.8776,-0.9075 0,-1.7869 15.2774,-36.6077 16.3771,-37.3272 0.6176,-0.4041 14.2854,-0.7416 30.3729,-0.75 20.905,-0.011 29.25,-0.3347 29.25,-1.1348 0,-1.4393 -39.7339,-93.6102 -41.7025,-96.7374 -0.816,-1.2963 -1.8554,-1.9713 -2.3096,-1.5 -0.4543,0.4713 -19.2672,44.2819 -41.8066,97.3569 -22.5394,53.075 -41.5481,97.7375 -42.2415,99.25 l -1.2608,2.75 h -21.8395 c -13.4064,0 -21.8395,-0.3737 -21.8395,-0.9677 z m 309,-125.0323 v -126.039 l 21.75,0.2695 21.75,0.2695 v 125.5 125.5 l -21.75,0.2695 -21.75,0.2695 z m 112.4635,124.7555 c -0.2629,-0.6905 -0.3622,-57.2805 -0.2207,-125.7555 l 0.2572,-124.5 h 21.5 21.5 l 0.2546,105.75 0.2545,105.75 65.2455,0.015 c 35.885,0.01 65.8181,0.3788 66.5181,0.8231 0.9732,0.6176 1.2086,5.2614 1,19.7347 l -0.2727,18.9269 -87.7793,0.2555 c -69.695,0.2028 -87.8777,0 -88.2572,-1 z m 226.1435,-0.3373 c -0.7934,-2.0676 -0.7934,-246.7688 0,-248.8364 0.5273,-1.3742 3.4149,-1.5818 22,-1.5818 h 21.393 v 126 126 h -21.393 c -18.5851,0 -21.4727,-0.2076 -22,-1.5818 z m -753.057,-322.3001 c 1.1348,-1.0534 46.1115,-20.2958 76.95,-32.9215 210.0624,-86.00279 389.374,-140.99403 541.8841,-166.18497 99.3971,-16.41796 179.3061,-20.08323 260.4136,-11.94467 50.6546,5.08284 83.1374,12.61007 110.1316,25.52085 33.4162,15.98225 52.3582,36.6606 60.3775,65.91219 1.9016,6.93632 2.1923,10.52624 2.1861,27 -0.01,16.2224 -0.3495,20.5498 -2.349,29.6011 -1.288,5.8306 -2.7095,11.196 -3.1588,11.9231 -0.5978,0.9672 -3.3183,-1.0327 -10.1387,-7.4531 -15.9379,-15.0032 -36.841,-27.59277 -62.8903,-37.87756 -68.898,-27.20227 -183.1315,-36.00465 -345.9561,-26.65798 -176.8701,10.15292 -368.9428,46.62254 -582.5,110.60174 -13.75,4.1193 -29.1679,8.8111 -34.262,10.4262 -9.6575,3.0619 -12.3257,3.5748 -10.688,2.0546 z"
         style="fill:#7b8385" />
      <path
         inkscape:connector-curvature="0"
         id="path829"
         d="m 1040.2155,1686.0139 c -43.50153,-1.8903 -91.86232,-7.9263 -125.39362,-15.6506 -47.42539,-10.9251 -81.81472,-29.8935 -99.75544,-55.023 -13.41371,-18.7886 -18.85333,-44.6295 -14.9525,-71.0318 1.41433,-9.5727 5.01414,-26.0544 5.87967,-26.9199 0.1504,-0.1504 4.85587,4.1671 10.4566,9.5944 40.21977,38.9746 110.06865,61.8837 217.76529,71.4231 41.9212,3.7132 53.9406,4.0939 129,4.0859 74.0678,-0.01 91.8729,-0.5156 142.5,-4.0628 153.6083,-10.7626 322.3092,-40.414 500,-87.8816 13.475,-3.5997 24.95,-6.5265 25.5,-6.504 1.727,0.071 -9.7643,4.6008 -50.5,19.9084 -257.2754,96.6787 -466.5817,149.203 -639.5,160.4793 -29.2558,1.9078 -76.484,2.6478 -101,1.5826 z m 1394,-282.0201 c -29.877,-3.163 -55.8695,-14.8909 -76.4085,-34.4759 -38.3366,-36.5557 -50.2991,-94.5713 -29.8449,-144.7416 16.2826,-39.9382 53.4497,-69.6475 96.7534,-77.3392 12.9797,-2.3055 36.3356,-2.2929 49.5,0.027 54.0999,9.5324 94.6354,50.2516 104.0647,104.5363 2.4847,14.3049 1.5513,40.9448 -1.9096,54.5 -12.6697,49.6225 -51.0173,86.0265 -100.6159,95.5161 -11.5853,2.2166 -30.6905,3.1262 -41.5392,1.9777 z m 33.2922,-39.5779 c 31.7703,-6.5295 55.4926,-29.7651 65.4428,-64.1002 3.0919,-10.6692 3.2959,-37.9355 0.3652,-48.8157 -7.3921,-27.4429 -23.4684,-47.639 -46.9302,-58.9567 -14.1725,-6.8367 -19.6282,-7.9982 -37.67,-8.0196 -13.1564,-0.016 -16.6792,0.323 -23.2992,2.2394 -24.2512,7.0204 -43.6654,23.7281 -54.2883,46.72 -17.7302,38.3747 -7.8633,86.7388 22.9944,112.7098 10.7909,9.082 27.4472,16.7366 41.5931,19.1145 6.4379,1.0822 24.6773,0.5707 31.7922,-0.8915 z M 733.17689,1398.75 c -0.26173,-0.6875 -0.36011,-56.825 -0.21861,-124.75 l 0.25726,-123.5 20.75,-0.2703 20.75,-0.2703 v 61.8979 c 0,53.2093 0.20613,62.0689 1.46845,63.1165 1.20022,0.9961 1.97653,0.6736 4.25,-1.7656 1.52985,-1.6413 28.39252,-30.0347 59.69481,-63.0962 L 897.04207,1150 h 25.56171 25.5617 l -7.05348,7.25 c -68.5235,70.4326 -95.55783,99.0249 -95.13994,100.6229 0.2568,0.982 24.37913,33.1622 53.60519,71.5114 29.22606,38.3493 53.13829,69.9339 53.13829,70.188 0,0.2541 -11.3458,0.3418 -25.21288,0.1949 l -25.21289,-0.2672 -41.54654,-54.7237 c -22.8506,-30.0981 -42.33512,-55.5123 -43.29893,-56.4761 -1.66986,-1.6699 -2.48652,-1.0235 -17.33913,13.7237 -8.57271,8.5119 -17.79239,18.087 -20.48819,21.278 l -4.90144,5.8019 V 1364.5519 1400 h -20.53138 c -15.50464,0 -20.6479,-0.306 -21.00727,-1.25 z m 236.53865,0.9873 c 0,-0.1445 24.67333,-56.732 54.82956,-125.75 l 54.8297,-125.4873 19.9547,-0.27 19.9547,-0.27 54.7194,125.27 c 30.0956,68.8985 54.7177,125.6075 54.7156,126.02 0,0.4125 -9.8078,0.75 -21.7907,0.75 h -21.787 l -12.3832,-29.5188 c -6.8108,-16.2354 -12.9097,-29.9558 -13.5532,-30.4898 -0.7085,-0.588 -19.1578,-1.0736 -46.7764,-1.2312 l -45.6065,-0.2602 7.6967,-18 7.6966,-18 30.25,-0.2647 c 27.9368,-0.2444 30.2512,-0.3973 30.2657,-2 0.02,-2.2027 -40.8521,-97.2298 -42.6667,-99.1996 -1.1845,-1.2857 -1.5128,-1.2857 -2.6923,0 -0.7389,0.8054 -20.1836,45.9018 -43.2106,100.2143 l -41.8673,98.75 h -21.28937 c -11.70917,0 -21.28939,-0.1182 -21.28939,-0.2627 z m 306.46926,-0.9665 c -0.2661,-0.6989 -0.3681,-56.8458 -0.2266,-124.7708 l 0.2573,-123.5 h 22.969 22.9689 l 37.6387,58.5 c 27.8426,43.2743 38.1285,58.5 39.5206,58.5 1.3916,0 11.695,-15.2381 39.5554,-58.5 l 37.6736,-58.5 23.0869,-0.2684 23.0869,-0.2685 V 1274.9816 1400 h -21 -21 v -89.5 c 0,-85.2181 -0.085,-89.5 -1.7838,-89.5 -1.2444,0 -13.5421,17.5403 -40.6645,58 -21.3844,31.9 -39.2563,58 -39.7153,58 -0.459,0 -18.2408,-26.1105 -39.5152,-58.0234 -21.2744,-31.9129 -39.1623,-57.8629 -39.751,-57.6668 -0.7446,0.2482 -1.2223,27.4121 -1.5702,89.2734 l -0.5,88.9168 -20.2734,0.2708 c -15.6749,0.2093 -20.3832,-0.017 -20.7573,-1 z m 293.5307,0.7286 c 0,-0.6392 106.7548,-245.0681 108.6417,-248.7494 l 1.4097,-2.75 h 19.4486 19.4486 l 1.414,2.75 c 1.8891,3.6739 108.6374,248.0896 108.6374,248.7409 0,0.28 -9.8446,0.5091 -21.8769,0.5091 h -21.8768 l -2.0182,-4.75 c -1.1099,-2.6125 -6.6319,-15.775 -12.2711,-29.25 -5.6391,-13.475 -10.6915,-25.0625 -11.2274,-25.75 -0.7545,-0.9678 -11.3578,-1.25 -46.959,-1.25 -36.38,0 -45.8831,-0.2611 -45.4989,-1.25 2.9201,-7.5149 14.2231,-33.5443 14.9814,-34.5 0.7531,-0.9492 8.0692,-1.25 30.4007,-1.25 24.3235,0 29.5021,-0.2428 29.9477,-1.4038 0.8243,-2.1482 -41.7713,-100.0071 -43.6912,-100.3758 -1.2334,-0.2369 -10.8435,21.4992 -42.8807,96.9871 -22.71,53.5109 -41.9187,98.53 -42.6859,100.0425 l -1.3951,2.75 h -20.9743 c -11.5359,0 -20.9743,-0.2253 -20.9743,-0.5006 z m 309,-124.4994 v -125 h 21 21 v 125 125 h -21 -21 z m 112,0 v -125 h 20.9954 20.9955 l 0.2545,105.75 0.2546,105.75 66,0.5 66,0.5 0.2721,18.75 0.272,18.75 h -87.522 -87.5221 z m 226.4614,123.75 c -0.2618,-0.6875 -0.3602,-56.825 -0.2187,-124.75 l 0.2573,-123.5 20.75,-0.2703 20.75,-0.2703 V 1274.9797 1400 h -20.5314 c -15.5046,0 -20.6479,-0.306 -21.0072,-1.25 z m -737.5438,-327.8427 c 10.6269,-5.0751 56.2696,-24.1056 95.5824,-39.8526 225.8599,-90.46969 416.9181,-144.10575 577,-161.98209 42.5641,-4.75313 57.1469,-5.51211 106.5,-5.54294 48.2812,-0.0302 57.2085,0.39932 94.2081,4.53218 77.9708,8.70938 125.0144,28.92097 147.5985,63.41353 10.146,15.49601 14.3766,30.99808 14.3341,52.52462 -0.026,13.13175 -2.5629,32.7199 -5.1032,39.4013 l -1.0646,2.8002 -8.9583,-8.525 c -36.9418,-35.15493 -97.5095,-55.47403 -191.0146,-64.08112 -67.1752,-6.18343 -171.3112,-5.03163 -267,2.95317 -164.3887,13.7175 -345.6648,50.30735 -539.3393,108.86335 -30.5923,9.2494 -30.6153,9.2549 -22.7431,5.4954 z"
         style="fill:#7cd803;stroke:#7cd803" />
      <path
         inkscape:connector-curvature="0"
         id="path827"
         d="m 2434.2155,1403.9938 c -29.877,-3.163 -55.8695,-14.8909 -76.4085,-34.4759 -38.3366,-36.5557 -50.2991,-94.5713 -29.8449,-144.7416 16.2826,-39.9382 53.4497,-69.6475 96.7534,-77.3392 12.9797,-2.3055 36.3356,-2.2929 49.5,0.027 54.0999,9.5324 94.6354,50.2516 104.0647,104.5363 2.4847,14.3049 1.5513,40.9448 -1.9096,54.5 -12.6697,49.6225 -51.0173,86.0265 -100.6159,95.5161 -11.5853,2.2166 -30.6905,3.1262 -41.5392,1.9777 z m 33.2922,-39.5779 c 31.7703,-6.5295 55.4926,-29.7651 65.4428,-64.1002 3.0919,-10.6692 3.2959,-37.9355 0.3652,-48.8157 -7.3921,-27.4429 -23.4684,-47.639 -46.9302,-58.9567 -14.1725,-6.8367 -19.6282,-7.9982 -37.67,-8.0196 -13.1564,-0.016 -16.6792,0.323 -23.2992,2.2394 -24.2512,7.0204 -43.6654,23.7281 -54.2883,46.72 -17.7302,38.3747 -7.8633,86.7388 22.9944,112.7098 10.7909,9.082 27.4472,16.7366 41.5931,19.1145 6.4379,1.0822 24.6773,0.5707 31.7922,-0.8915 z M 733.17689,1398.75 c -0.26173,-0.6875 -0.36011,-56.825 -0.21861,-124.75 l 0.25726,-123.5 20.75,-0.2703 20.75,-0.2703 v 61.8979 c 0,53.2093 0.20613,62.0689 1.46845,63.1165 1.20022,0.9961 1.97653,0.6736 4.25,-1.7656 1.52985,-1.6413 28.39252,-30.0347 59.69481,-63.0962 L 897.04207,1150 h 25.56171 25.5617 l -7.05348,7.25 c -68.5235,70.4326 -95.55783,99.0249 -95.13994,100.6229 0.2568,0.982 24.37913,33.1622 53.60519,71.5114 29.22606,38.3493 53.13829,69.9339 53.13829,70.188 0,0.2541 -11.3458,0.3418 -25.21288,0.1949 l -25.21289,-0.2672 -41.54654,-54.7237 c -22.8506,-30.0981 -42.33512,-55.5123 -43.29893,-56.4761 -1.66986,-1.6699 -2.48652,-1.0235 -17.33913,13.7237 -8.57271,8.5119 -17.79239,18.087 -20.48819,21.278 l -4.90144,5.8019 V 1364.5519 1400 h -20.53138 c -15.50464,0 -20.6479,-0.306 -21.00727,-1.25 z m 236.53865,0.9873 c 0,-0.1445 24.67333,-56.732 54.82956,-125.75 l 54.8297,-125.4873 19.9547,-0.27 19.9547,-0.27 54.7194,125.27 c 30.0956,68.8985 54.7177,125.6075 54.7156,126.02 0,0.4125 -9.8078,0.75 -21.7907,0.75 h -21.787 l -12.3832,-29.5188 c -6.8108,-16.2354 -12.9097,-29.9558 -13.5532,-30.4898 -0.7085,-0.588 -19.1578,-1.0736 -46.7764,-1.2312 l -45.6065,-0.2602 7.6967,-18 7.6966,-18 30.25,-0.2647 c 27.9368,-0.2444 30.2512,-0.3973 30.2657,-2 0.02,-2.2027 -40.8521,-97.2298 -42.6667,-99.1996 -1.1845,-1.2857 -1.5128,-1.2857 -2.6923,0 -0.7389,0.8054 -20.1836,45.9018 -43.2106,100.2143 l -41.8673,98.75 h -21.28937 c -11.70917,0 -21.28939,-0.1182 -21.28939,-0.2627 z m 306.46926,-0.9665 c -0.2661,-0.6989 -0.3681,-56.8458 -0.2266,-124.7708 l 0.2573,-123.5 h 22.969 22.9689 l 37.6387,58.5 c 27.8426,43.2743 38.1285,58.5 39.5206,58.5 1.3916,0 11.695,-15.2381 39.5554,-58.5 l 37.6736,-58.5 23.0869,-0.2684 23.0869,-0.2685 V 1274.9816 1400 h -21 -21 v -89.5 c 0,-85.2181 -0.085,-89.5 -1.7838,-89.5 -1.2444,0 -13.5421,17.5403 -40.6645,58 -21.3844,31.9 -39.2563,58 -39.7153,58 -0.459,0 -18.2408,-26.1105 -39.5152,-58.0234 -21.2744,-31.9129 -39.1623,-57.8629 -39.751,-57.6668 -0.7446,0.2482 -1.2223,27.4121 -1.5702,89.2734 l -0.5,88.9168 -20.2734,0.2708 c -15.6749,0.2093 -20.3832,-0.017 -20.7573,-1 z m 293.5307,0.7286 c 0,-0.6392 106.7548,-245.0681 108.6417,-248.7494 l 1.4097,-2.75 h 19.4486 19.4486 l 1.414,2.75 c 1.8891,3.6739 108.6374,248.0896 108.6374,248.7409 0,0.28 -9.8446,0.5091 -21.8769,0.5091 h -21.8768 l -2.0182,-4.75 c -1.1099,-2.6125 -6.6319,-15.775 -12.2711,-29.25 -5.6391,-13.475 -10.6915,-25.0625 -11.2274,-25.75 -0.7545,-0.9678 -11.3578,-1.25 -46.959,-1.25 -36.38,0 -45.8831,-0.2611 -45.4989,-1.25 2.9201,-7.5149 14.2231,-33.5443 14.9814,-34.5 0.7531,-0.9492 8.0692,-1.25 30.4007,-1.25 24.3235,0 29.5021,-0.2428 29.9477,-1.4038 0.8243,-2.1482 -41.7713,-100.0071 -43.6912,-100.3758 -1.2334,-0.2369 -10.8435,21.4992 -42.8807,96.9871 -22.71,53.5109 -41.9187,98.53 -42.6859,100.0425 l -1.3951,2.75 h -20.9743 c -11.5359,0 -20.9743,-0.2253 -20.9743,-0.5006 z m 309,-124.4994 v -125 h 21 21 v 125 125 h -21 -21 z m 112,0 v -125 h 20.9954 20.9955 l 0.2545,105.75 0.2546,105.75 66,0.5 66,0.5 0.2721,18.75 0.272,18.75 h -87.522 -87.5221 z m 226.4614,123.75 c -0.2618,-0.6875 -0.3602,-56.825 -0.2187,-124.75 l 0.2573,-123.5 20.75,-0.2703 20.75,-0.2703 V 1274.9797 1400 h -20.5314 c -15.5046,0 -20.6479,-0.306 -21.0072,-1.25 z m -737.5438,-327.8427 c 10.6269,-5.0751 56.2696,-24.1056 95.5824,-39.8526 225.8599,-90.46969 416.9181,-144.10575 577,-161.98209 42.5641,-4.75313 57.1469,-5.51211 106.5,-5.54294 48.2812,-0.0302 57.2085,0.39932 94.2081,4.53218 77.9708,8.70938 125.0144,28.92097 147.5985,63.41353 10.146,15.49601 14.3766,30.99808 14.3341,52.52462 -0.026,13.13175 -2.5629,32.7199 -5.1032,39.4013 l -1.0646,2.8002 -8.9583,-8.525 c -36.9418,-35.15493 -97.5095,-55.47403 -191.0146,-64.08112 -67.1752,-6.18343 -171.3112,-5.03163 -267,2.95317 -164.3887,13.7175 -345.6648,50.30735 -539.3393,108.86335 -30.5923,9.2494 -30.6153,9.2549 -22.7431,5.4954 z"
         style="fill:#445053;stroke:#445053" />
      <path
         transform="translate(-134.31079,1846.7733)"
         inkscape:connector-curvature="0"
         id="path843"
         d="m 869.93006,-571.47577 v -122.55859 h 18.46773 18.46773 l 0.0514,57.92152 c 0.0282,31.85684 1.29506,59.88206 2.81508,62.27826 1.95823,3.08703 19.80218,-13.76586 61.22788,-57.82726 l 58.46422,-62.18399 24.741,-0.0943 24.741,-0.0943 -49.0848,50.52558 c -26.9967,27.78907 -49.08486,52.00307 -49.08486,53.80887 0,1.80581 22.66496,33.42711 50.36656,70.26957 27.7016,36.84245 50.3665,67.77982 50.3665,68.74972 0,0.96989 -10.1992,1.72668 -22.6649,1.68174 l -22.6649,-0.0817 -41.89811,-55.3215 c -23.04392,-30.42683 -42.73053,-55.32151 -43.748,-55.32151 -1.01748,0 -11.25004,9.48438 -22.73902,21.0764 l -20.88906,21.07641 v 34.32679 34.3268 h -18.46773 -18.46773 z"
         style="fill:#445053;fill-opacity:1;stroke:#445053;stroke-width:3.35776973;stroke-opacity:0" />
      <path
         transform="translate(-134.31079,1846.7733)"
         inkscape:connector-curvature="0"
         id="path845"
         d="m 1108.2745,-451.43551 c -0.032,-1.38508 23.7667,-57.31983 52.8849,-124.29944 l 52.942,-121.78112 19.9066,0.90141 19.9065,0.90141 52.9001,120.87971 c 29.095,66.48384 53.0012,122.08505 53.1249,123.55825 0.1237,1.47321 -9.0365,2.22871 -20.3561,1.67889 l -20.581,-0.99967 -12.1882,-28.54104 -12.1882,-28.54104 -45.9135,-0.93273 -45.9135,-0.93274 6.9383,-16.69555 6.9384,-16.69556 h 29.7722 c 23.3942,0 29.7723,-1.0152 29.7723,-4.73884 0,-2.60637 -7.3752,-21.87157 -16.3893,-42.81157 -21.8661,-50.7958 -24.6187,-56.54045 -27.0921,-56.54045 -1.1606,0 -20.9387,44.53674 -43.9514,98.97054 l -41.8413,98.97053 -19.3072,0.0837 c -10.619,0.046 -19.3329,-1.04958 -19.3644,-2.43466 z"
         style="fill:#445053;fill-opacity:1;stroke:#445053;stroke-width:3.35776973;stroke-opacity:0" />
      <path
         transform="translate(-134.31079,1846.7733)"
         inkscape:connector-curvature="0"
         id="path847"
         d="m 1410.531,-571.47577 v -122.55859 h 23.0854 23.0855 l 32.9012,51.20598 c 33.3044,51.8336 41.2338,62.96414 44.8463,62.95081 1.0989,-0.004 18.6189,-25.65627 38.9334,-57.00494 l 36.9355,-56.99756 22.6649,-0.0771 22.6649,-0.0771 v 122.55859 122.55859 h -20.1466 -20.1466 v -89.17906 c 0,-53.15114 -1.2427,-88.41104 -3.076,-87.278 -1.6917,1.04558 -19.9578,26.82169 -40.5913,57.28025 -20.6334,30.45855 -38.0813,55.37919 -38.7731,55.37919 -0.6917,0 -18.0346,-24.93144 -38.5396,-55.4032 -20.505,-30.47176 -38.6923,-55.4032 -40.4163,-55.4032 -1.8603,0 -3.1344,35.48632 -3.1344,87.30201 v 87.30201 h -20.1466 -20.1466 z"
         style="fill:#445053;fill-opacity:1;stroke:#445053;stroke-width:3.35776973;stroke-opacity:0" />
      <path
         transform="translate(-134.31079,1846.7733)"
         inkscape:connector-curvature="0"
         id="path849"
         d="m 1649.2124,-789.42768 c 0.7695,-0.75666 24.8195,-10.73012 53.4445,-22.16323 231.3327,-92.39661 400.0251,-140.32364 580.8942,-165.03725 40.9269,-5.59217 177.2762,-5.66429 213.2183,-0.11277 62.0564,9.58506 96.6013,22.28427 120.4716,44.28717 22.8198,21.03453 29.5488,37.63452 29.4511,72.65404 -0.045,15.96035 -1.3295,30.26749 -2.8556,31.79364 -1.5262,1.52614 -9.5537,-2.61106 -17.8389,-9.1938 -61.1398,-48.57659 -180.664,-67.84664 -365.4946,-58.92615 -183.5251,8.85749 -360.0231,38.85154 -558.2087,94.86192 -43.6227,12.32848 -56.503,15.20058 -53.0819,11.83643 z"
         style="fill:#445053;fill-opacity:1;stroke:#445053;stroke-width:3.35776973;stroke-opacity:0" />
      <path
         transform="translate(-134.31079,1846.7733)"
         inkscape:connector-curvature="0"
         id="path851"
         d="m 2014.9295,-571.47577 v -122.55859 h 20.1466 20.1466 v 122.55859 122.55859 h -20.1466 -20.1466 z"
         style="fill:#445053;fill-opacity:1;stroke:#445053;stroke-width:3.35776973;stroke-opacity:0" />
      <path
         transform="translate(-134.31079,1846.7733)"
         inkscape:connector-curvature="0"
         id="path853"
         d="m 2125.7359,-571.47577 v -122.55859 h 20.0988 20.0988 l 0.8872,104.9303 0.8873,104.9303 64.2093,0.91045 64.2092,0.91044 2.0698,12.52064 c 1.1383,6.88634 2.0863,14.40937 2.1067,16.71784 0.029,3.25109 -19.6423,4.19721 -87.2651,4.19721 h -87.302 z"
         style="fill:#445053;fill-opacity:1;stroke:#445053;stroke-width:3.35776973;stroke-opacity:0" />
      <path
         transform="translate(-134.31079,1846.7733)"
         inkscape:connector-curvature="0"
         id="path855"
         d="m 2353.7691,-505.15982 c -0.1623,-30.93345 -0.3634,-60.77563 -0.4469,-66.31595 -0.084,-5.54032 0.049,-35.3825 0.2951,-66.31595 l 0.4469,-56.24264 h 18.4678 18.4677 v 122.55859 122.55859 h -18.4677 -18.4678 z"
         style="fill:#445053;fill-opacity:1;stroke:#445053;stroke-width:3.35776973;stroke-opacity:0" />
      <path
         transform="translate(-134.31079,1846.7733)"
         inkscape:connector-curvature="0"
         id="path857"
         d="m 2556.436,-445.74092 c -32.2104,-6.3573 -65.7502,-29.31701 -83.121,-56.90057 -21.6437,-34.36872 -24.7642,-88.20572 -7.2357,-124.83508 11.9885,-25.05234 42.4491,-53.37143 68.3489,-63.54364 26.9843,-10.59813 71.6805,-10.5685 99.1591,0.0657 36.6232,14.17316 67.052,50.2201 76.4374,90.55023 8.9421,38.42521 -4.195,86.76156 -31.9217,117.45169 -15.3406,16.98024 -47.0186,33.02262 -73.8849,37.41686 -22.8567,3.73842 -27.9109,3.71672 -47.7821,-0.20522 z m 64.814,-42.80277 c 30.9934,-15.96621 48.273,-45.61239 48.338,-82.93208 0.069,-39.42518 -17.724,-68.3359 -51.9389,-84.39369 -21.4365,-10.06063 -47.9109,-10.429 -68.8342,-0.95775 -33.6757,15.24379 -51.5198,44.12357 -51.8405,83.90159 -0.1765,21.88136 1.2052,28.17979 9.9439,45.32989 10.6078,20.81845 31.1465,38.19362 53.1945,45.0012 15.5105,4.78906 46.0636,1.81598 61.1372,-5.94916 z"
         style="fill:#445053;fill-opacity:1;stroke:#445053;stroke-width:3.35776973;stroke-opacity:0" />
    </g>
  </g>
</svg>
