
<svg  role="img" viewBox="0 0 24 24" xmlns="http://www.w3.org/2000/svg" ><title>Kaspersky icon</title><path d="M10.838 13.336c0 .907-.554 1.337-1.248 1.337h-.422v-.547h.391c.419 0 .698-.224.698-.794 0-.562-.264-.84-.71-.84-.43 0-.735.263-.735.828v2.28H8.23v-3.582h.578v.31h.081a.938.938 0 01.775-.376c.64 0 1.174.465 1.174 1.384zm-3.798-.237l-.383-.038c-.302-.027-.461-.109-.461-.287 0-.21.205-.33.496-.33.302 0 .496.144.511.345h.554c-.023-.519-.422-.837-1.061-.837-.644 0-1.078.341-1.078.841 0 .419.264.69.864.748l.392.039c.236.023.395.07.395.298 0 .206-.147.353-.539.353-.36 0-.538-.163-.6-.384h-.6c.057.5.48.888 1.2.888.679 0 1.117-.357 1.117-.888-.004-.46-.31-.701-.807-.748zm6.034.752c-.089.21-.306.365-.616.365-.422 0-.736-.276-.736-.869 0-.565.29-.88.744-.88.403 0 .632.24.655.605h-1.039v.419h1.609v-.275c0-.764-.508-1.26-1.229-1.26-.67 0-1.314.458-1.314 1.391 0 .934.644 1.392 1.314 1.392.612 0 1.054-.38 1.19-.888zm-9.11-1.899c-.632 0-1.105.33-1.163.837h.62c.043-.186.213-.325.539-.325.418 0 .554.22.554.488v.907c-.237.271-.512.395-.787.395-.287 0-.484-.14-.484-.383 0-.237.155-.384.45-.384h.46v-.415h-.48c-.66 0-1.031.33-1.031.837 0 .473.356.83.945.83.33 0 .62-.132.838-.29h.08v.224h.578v-1.771c.016-.655-.43-.95-1.12-.95zm-3.919 2.72h.578v-3.63H.045zm2.426-2.654h-.705l-.84 1.109v.345l.863 1.2h.717l-1.015-1.375zm20.892 0l-.472 1.05c-.117.252-.225.5-.26.667h-.081c-.035-.167-.148-.407-.264-.659l-.473-1.058h-.64l1.113 2.384-.55 1.2h.616l1.65-3.584zm-2.317 0h-.705l-.841 1.105v.345l.864 1.201h.717l-1.012-1.376zm-3.62 1.081l-.383-.038c-.303-.027-.461-.109-.461-.287 0-.21.205-.33.496-.33.302 0 .496.144.511.346h.554c-.023-.52-.422-.838-1.062-.838-.643 0-1.077.341-1.077.841 0 .419.264.69.864.748l.392.039c.236.023.395.07.395.298 0 .206-.147.353-.539.353-.36 0-.538-.163-.6-.384h-.601c.058.5.48.888 1.201.888.679 0 1.116-.357 1.116-.888 0-.46-.31-.701-.806-.748zm1.194 1.574h.577v-3.631h-.577zm-3.813-2.345h-.082v-.31h-.577v2.655h.577v-1.388c0-.472.217-.747.651-.747h.365v-.586h-.213c-.4 0-.57.152-.721.376z"/></svg>