<svg role="img" viewBox="0 0 24 24" xmlns="http://www.w3.org/2000/svg"><title>Kavita</title><path d="M12 0C5.366 0 0 5.366 0 12s5.366 12 12 12 12-5.366 12-12S18.634 0 12 0zm0 .549A11.434 11.434 0 0 1 23.451 12 11.434 11.434 0 0 1 12 23.451 11.434 11.434 0 0 1 .549 12 11.434 11.434 0 0 1 12 .549zM5.25 4.594a.281.281 0 0 0-.281.281v1.219H4.5a.637.637 0 0 0-.656.656V18c0 .379.277.656.656.656h5.363c.3 0 .531.112.66.319h.002v.002c.312.49.856.804 1.475.804.619 0 1.163-.315 1.475-.804v-.002h.002c.12-.193.406-.319.66-.319H19.5a.637.637 0 0 0 .656-.656V6.75a.634.634 0 0 0-.656-.656h-.469V4.875a.281.281 0 0 0-.281-.281h-5.625c-.474 0-.87.245-1.125.601-.254-.356-.65-.601-1.125-.601H5.25zm.281.562h5.344c.494 0 .844.35.844.844.005.37.557.37.562 0 0-.494.35-.844.844-.844h5.344V16.22H12.75a.999.999 0 0 0-.74.345h-.02a.999.999 0 0 0-.74-.345H5.531V5.156zM6.75 6v2.625h1.5V6h-1.5zm2.475.188c-.113 0-.188.075-.188.187s.075.188.188.188h1.65c.113 0 .188-.075.188-.188 0-.112-.075-.188-.188-.188h-1.65zm3.9 0c-.113 0-.188.075-.188.187s.075.188.188.188h4.125c.113 0 .188-.075.188-.188 0-.112-.075-.188-.188-.188h-4.125zM4.5 6.655h.469V17.25c0 .155.126.281.281.281h6c.26 0 .469.21.469.469.005.37.557.37.562 0 0-.26.21-.469.469-.469h6a.281.281 0 0 0 .281-.281V6.656h.469c.07 0 .094.023.094.094V18c0 .07-.023.094-.094.094h-5.363c-.42 0-.882.174-1.137.58a1.159 1.159 0 0 1-1 .545c-.43 0-.785-.21-.998-.543L11 18.674c-.246-.391-.688-.58-1.137-.58H4.5c-.071 0-.094-.023-.094-.094V6.75c0-.07.023-.094.094-.094zm4.725.657c-.113 0-.188.075-.188.187s.075.188.188.188h1.65c.113 0 .188-.075.188-.188 0-.112-.075-.188-.188-.188h-1.65zm3.9 0c-.113 0-.188.075-.188.187s.075.188.188.188h4.125c.113 0 .188-.075.188-.188 0-.112-.075-.188-.188-.188h-4.125zm-3.9 1.125c-.113 0-.188.074-.188.187s.075.188.188.188h1.65c.113 0 .188-.075.188-.188s-.075-.188-.188-.188h-1.65zm3.9 0c-.113 0-.188.074-.188.187s.075.188.188.188h4.125c.113 0 .188-.075.188-.188s-.075-.188-.188-.188h-4.125zM6.75 9.562c-.112 0-.188.075-.188.188s.075.188.188.188h4.125c.113 0 .188-.075.188-.188s-.075-.188-.188-.188H6.75zm6.375 0c-.113 0-.188.075-.188.188s.075.188.188.188h4.125c.113 0 .188-.075.188-.188s-.075-.188-.188-.188h-4.125zM6.75 10.688c-.112 0-.188.074-.188.187s.075.188.188.188h4.125c.113 0 .188-.075.188-.188s-.075-.188-.188-.188H6.75zm6.375 0c-.113 0-.188.074-.188.187s.075.188.188.188h4.125c.113 0 .188-.075.188-.188s-.075-.188-.188-.188h-4.125zM6.75 11.812c-.112 0-.188.075-.188.188s.075.188.188.188h4.125c.113 0 .188-.075.188-.188s-.075-.188-.188-.188H6.75zm6.375 0c-.113 0-.188.075-.188.188s.075.188.188.188h4.125c.113 0 .188-.075.188-.188s-.075-.188-.188-.188h-4.125zM6.75 12.938c-.112 0-.188.074-.188.187s.075.188.188.188h4.125c.113 0 .188-.075.188-.188s-.075-.188-.188-.188H6.75zm6.375 0c-.113 0-.188.074-.188.187s.075.188.188.188h4.125c.113 0 .188-.075.188-.188s-.075-.188-.188-.188h-4.125zM6.75 14.062c-.112 0-.188.075-.188.188s.075.188.188.188h4.125c.113 0 .188-.075.188-.188s-.075-.188-.188-.188H6.75zm6.375 0c-.113 0-.188.075-.188.188s.075.188.188.188h4.125c.113 0 .188-.075.188-.188s-.075-.188-.188-.188h-4.125zM6.75 15.188c-.112 0-.188.074-.188.187s.075.188.188.188h4.125c.113 0 .188-.075.188-.188s-.075-.188-.188-.188H6.75zm6.375 0c-.113 0-.188.074-.188.187s.075.188.188.188h4.125c.113 0 .188-.075.188-.188s-.075-.188-.188-.188h-4.125z"/></svg>