<?xml version="1.0" encoding="UTF-8" standalone="no"?>
<svg
   xmlns:dc="http://purl.org/dc/elements/1.1/"
   xmlns:cc="http://creativecommons.org/ns#"
   xmlns:rdf="http://www.w3.org/1999/02/22-rdf-syntax-ns#"
   xmlns:svg="http://www.w3.org/2000/svg"
   xmlns="http://www.w3.org/2000/svg"
   xmlns:sodipodi="http://sodipodi.sourceforge.net/DTD/sodipodi-0.dtd"
   xmlns:inkscape="http://www.inkscape.org/namespaces/inkscape"
   role="img"
   viewBox="0 0 24 24"
   version="1.1"
   id="svg6"
   sodipodi:docname="kde.svg"
   inkscape:version="0.92.4 5da689c313, 2019-01-14">
  <metadata
     id="metadata12">
    <rdf:RDF>
      <cc:Work
         rdf:about="">
        <dc:format>image/svg+xml</dc:format>
        <dc:type
           rdf:resource="http://purl.org/dc/dcmitype/StillImage" />
        <dc:title>Analogue icon</dc:title>
      </cc:Work>
    </rdf:RDF>
  </metadata>
  <defs
     id="defs10" />
  <sodipodi:namedview
     pagecolor="#ffffff"
     bordercolor="#666666"
     borderopacity="1"
     objecttolerance="10"
     gridtolerance="10"
     guidetolerance="10"
     inkscape:pageopacity="0"
     inkscape:pageshadow="2"
     inkscape:window-width="640"
     inkscape:window-height="480"
     id="namedview8"
     showgrid="false"
     inkscape:zoom="12.483724"
     inkscape:cx="10.598175"
     inkscape:cy="12"
     inkscape:window-x="0"
     inkscape:window-y="26"
     inkscape:window-maximized="0"
     inkscape:current-layer="svg6" />
  <title
     id="title2">Analogue icon</title>
  <path
     inkscape:connector-curvature="0"
     style="fill:#000000;stroke-width:1.58933806"
     d="M 13.511073,0.69862939 10.323496,1.3326163 V 14.862333 l 3.169776,-0.495238 V 8.6454784 L 17.952318,15.00283 21.430744,13.413301 16.680848,8.0097432 21.466981,2.2881264 17.952318,0.69856579 13.493272,7.3740083 V 0.69856579 Z"
     id="path4-3" />
  <path
     inkscape:connector-curvature="0"
     style="fill:#000000;stroke-width:1.58933806"
     d="M 6.0024831,5.786342 C 5.9633861,5.791112 5.9202951,5.800233 5.8907335,5.829801 L 4.5342078,7.1770128 c -0.056886,0.05674 -0.063548,0.1424238 -0.02173,0.211084 l 1.4434419,2.365382 C 5.6168567,10.304102 5.3535695,10.90365 5.1767717,11.541484 l -2.6602788,0.549439 c -0.080802,0.01652 -0.1396885,0.09429 -0.1396885,0.176938 v 1.90286 c 0,0.08058 0.061304,0.149033 0.1396885,0.167625 l 2.5795703,0.620834 c 0.1623095,0.717619 0.4366393,1.393329 0.8008774,2.008403 L 4.3945194,19.23984 c -0.045582,0.06914 -0.037057,0.161749 0.02173,0.220397 l 1.356525,1.347212 c 0.057216,0.05674 0.1455293,0.0632 0.214188,0.02173 L 8.3337189,19.41367 c 0.5795998,0.346438 1.2118178,0.611555 1.8842351,0.779148 l 0.549439,2.61682 c 0.01717,0.08074 0.08435,0.139686 0.167624,0.139686 h 1.918382 c 0.0801,0 0.148555,-0.05265 0.167624,-0.130374 l 0.651878,-2.635444 c 0.677758,-0.175578 1.308872,-0.459007 1.890443,-0.816399 l 2.35607,1.533463 c 0.06962,0.04481 0.161274,0.03596 0.220397,-0.02173 l 1.350316,-1.344109 c 0.05722,-0.05674 0.0699,-0.145997 0.02794,-0.214188 l -0.921939,-1.505525 -0.301105,0.09312 c -0.04387,0.01335 -0.09221,-0.0057 -0.117962,-0.04345 0,0 -0.285204,-0.387932 -0.512188,-0.695335 -0.09468,-0.144058 -0.875452,-1.093085 -1.415504,-1.781791 A 4.7680143,4.7680143 0 0 1 11.912834,18.181315 4.7680143,4.7680143 0 0 1 7.1448192,13.413301 4.7680143,4.7680143 0 0 1 9.3705125,9.384082 V 6.8572827 C 9.0158517,6.9891151 8.7826513,7.1502633 8.4578859,7.3353257 L 6.1111292,5.8111754 C 6.0763229,5.7882891 6.0411042,5.7825279 6.0024831,5.786342 Z"
     id="path6" />
</svg>
