<svg role="img" viewBox="0 0 24 24" xmlns="http://www.w3.org/2000/svg"><title>Keybase icon</title><path d="M10.4454 21.3719c0 .528-.428.953-.954.953-.525 0-.954-.425-.954-.953 0-.526.428-.954.953-.954.524 0 .951.431.951.955m5.9223-.001c0 .528-.428.953-.955.953a.9513.9513 0 01-.9521-.953c0-.526.423-.954.949-.954s.954.431.954.955m4.5443-9.1594l-.156-.204c-.046-.06-.096-.116-.143-.175-.045-.061-.094-.113-.141-.169-.104-.12-.209-.239-.319-.359l-.076-.08-.091-.099-.135-.131c-.015-.018-.032-.034-.05-.053-1.1601-1.139-2.5052-1.9861-3.9552-2.5041l-.23-.078c.012-.027.024-.055.035-.083.41-1.0641.367-2.2231-.12-3.2552-.491-1.035-1.3561-1.8-2.4382-2.16-.656-.216-1.23-.319-1.711-.305-.033-.1051-.1-.5771.496-1.8482L10.6625 0l-.287.399c-.33.455-.648.895-.9451 1.328-.328-.345-.766-.552-1.245-.58l-1.3961-.086h-.012c-.033-.003-.07-.003-.104-.003-.99 0-1.8101.771-1.8701 1.7551l-.088 1.402v.003c-.061 1.0291.727 1.9152 1.755 1.9792l1.0021.061c-.065.84.073 1.62.405 2.306-1.346.562-2.586 1.4011-3.6601 2.4842C.912 14.3916.912 18.0518.912 20.9949v1.775l1.305-1.387c.2661.93.6521 1.807 1.1451 2.6151h1.6971a9.1973 9.1973 0 01-1.68-3.8482l1.913-2.03-.985 3.091 1.74-1.268c3.0752-2.234 6.7443-2.75 10.9105-1.529 1.805.532 3.5602.039 4.4732-1.257l.104-.165c.091.498.141.998.141 1.496 0 1.563-.255 3.6871-1.38 5.5122h1.611c.776-1.563 1.181-3.4321 1.181-5.5122-.001-2.1991-.786-4.4212-2.184-6.2743zM8.8934 6.1913c.123-1.002.578-1.9491 1.23-2.9702.025.05.054.097.084.144.264.398.713.625 1.199.605.217-.008.6051.025 1.2331.232.714.236 1.286.7441 1.608 1.4251.3221.681.3491 1.442.079 2.1491-.173.445-.454.82-.806 1.109l-.408-.502-.002-.003c-.279-.341-.694-.535-1.134-.535-.335 0-.664.117-.925.33-.334.27-.514.66-.534 1.058-1.2001-.541-1.8001-1.643-1.6281-3.041zm4.3042 5.1102l-.519.425c-.046.036-.095.053-.146.053-.066 0-.133-.03-.177-.085l-.111-.135c-.083-.1-.067-.25.034-.334l.51-.42-1.0551-1.2991c-.109-.133-.091-.33.044-.436a.3033.3033 0 01.194-.072c.091 0 .181.038.24.113l2.9631 3.6451c.109.135.09.33-.042.436-.039.029-.082.053-.126.063a.2687.2687 0 01-.07.009c-.09 0-.178-.04-.24-.113l-.295-.365-1.045.854c-.046.037-.1.055-.154.055a.237.237 0 01-.186-.09l-.477-.579a.2395.2395 0 01.035-.336l1.051-.857-.426-.533zM7.7523 4.8662l-1.196-.075c-.255-.015-.45-.235-.435-.488l.09-1.401a.4617.4617 0 01.461-.4361h.024l1.401.091c.123.006.236.06.317.152.083.094.123.21.116.336l-.007.101c-.32.567-.585 1.134-.773 1.7201zm12.5245 11.4815c-.565.805-1.687 1.081-2.924.718-3.8862-1.141-7.3964-.903-10.4685.701l1.636-5.1232-5.2912 5.6093c.099-3.7622 2.4531-6.9663 5.7583-8.3114.471.373 1.034.66 1.673.841.16.044.322.074.48.102-.183.458-.119.997.21 1.4071l.075.09c-.172.45-.105.975.221 1.374l.4751.582c.266.3251.659.5131 1.079.5131.321 0 .635-.111.886-.314l.2851-.232c.174.074.367.113.566.113.113 0 .222-.01.33-.035.218-.05.424-.15.598-.291.623-.51.72-1.435.209-2.0601l-1.67-2.056c.145-.117.281-.2441.408-.3811.135.037.271.078.4.12.266.097.533.198.795.315 1.0051.445 1.9541 1.1 2.7712 1.897.029.03.059.055.085.083l.17.1751c.038.039.076.079.111.12.079.085.16.175.239.267l.126.15c.045.053.086.104.13.16l.114.15c.04.051.079.102.117.154.838 1.149.987 2.3291.404 3.1572v.005zM7.7183 4.1152l-.835-.051.053-.835.834.051z"/></svg>