<svg xmlns="http://www.w3.org/2000/svg" viewBox="0 0 16 16">
  <path d="M2.035 15.5c-.132-.265-.31-.675-.394-.91l-.15-.43-.43.43-.44.43.03-1.486c.02-.93.07-1.69.12-2.034.34-2.182 1.51-3.998 3.34-5.196.27-.173.64-.386.84-.473.26-.11.35-.18.32-.24-.13-.32-.24-.85-.24-1.19V4H4.7c-.533 0-.806-.095-1.1-.38-.35-.34-.39-.51-.326-1.365.06-.768.13-.964.44-1.248.31-.278.543-.324 1.354-.26.625.047.708.067.962.225.15.095.282.166.29.157l.41-.58c.22-.31.422-.57.45-.57.066 0 .22.08.5.25l.2.123-.132.33c-.074.18-.15.463-.17.63l-.036.3.295.04c1.352.173 2.253.843 2.635 1.96.18.522.165 1.305-.036 1.83-.015.044.07.105.24.17 1.633.612 3.086 1.91 3.916 3.5.587 1.12.8 1.99.8 3.26 0 1.21-.168 2.14-.56 3.12l-.19.48h-.973l.21-.452c.47-1.007.68-2.093.65-3.37-.016-.453-.04-.856-.068-.894-.03-.05-.106.01-.253.197-.63.796-1.653 1.02-3.054.67-1.16-.293-1.578-.35-2.61-.352-.71 0-1.09.025-1.446.096-1.184.24-2.19.7-3.363 1.546-.393.284-.72.51-.73.5-.008-.01.124-.45.294-.985.17-.536.3-.983.29-.994-.01-.01-.324.31-.7.708-.67.72-.674.725-.645.943.07.515.446 1.43.84 2.05.103.16.186.3.186.315 0 .015-.224.027-.496.027h-.49l-.24-.48zm1.66-4.976c1.02-1.08 1.86-1.946 1.867-1.923.007.03-.21.75-.484 1.61-.274.86-.49 1.57-.478 1.58.012.02.253-.08.536-.2 1.137-.49 2.06-.67 3.408-.67 1.05 0 1.817.11 2.804.39.98.275 1.65.185 2.104-.283.66-.68.423-1.745-.633-2.863-.79-.83-1.62-1.39-2.57-1.73-.34-.124-.35-.124-.46-.02s-.1.117.52.887c.38.474.654.865.693.996.21.703-.39 1.44-1.12 1.365-.24-.023-.317-.01-.5.117-.18.12-.28.147-.59.147-.33 0-.39-.02-.58-.17-.118-.096-.323-.313-.458-.486-.225-.288-.247-.344-.267-.68-.01-.218-.067-.468-.133-.608-.084-.184-.103-.307-.08-.528l.03-.29-.38-.12c-.21-.07-.548-.236-.75-.37-.42-.28-.386-.286-1.09.08-1.805.94-3.108 2.71-3.43 4.65-.035.21-.08.614-.105.893l-.04.508.16-.15c.088-.08.99-1.03 2.01-2.112zm5.564-1.77l.35-.3.18.175c.14.14.2.16.27.11.05-.04.1-.1.11-.14.01-.05-.45-.65-1.01-1.34C8.3 6.19 8.13 6 8 6c-.26 0-.21.182.18.66.2.24.36.457.36.478 0 .02-.085.104-.19.185-.22.17-.23.242-.08.382.11.097.12.095.33-.077l.22-.177.14.16c.077.09.137.18.136.21 0 .03-.16.19-.356.35s-.354.33-.354.37c0 .1.372.52.46.52.032 0 .22-.13.42-.3zm-2.31-2.81c0-.173.23-.526.44-.68.47-.345.95-.274 1.44.213l.32.317.14-.17c.27-.322.41-.72.41-1.153 0-1.1-.75-1.81-2.04-1.93-.436-.04-.616-.12-.796-.35l-.13-.16-.23.4c-.75 1.32-.81 2.457-.16 3.197.172.2.46.413.555.414.023 0 .04-.04.04-.086zm-1.5-3.368c.37-.853.33-.92-.55-.978-.58-.037-.59-.036-.67.094-.09.14-.18 1.077-.12 1.233.05.136.222.183.68.185h.41l.232-.535zm-.78.06c-.08-.02-.1-.072-.08-.28l.01-.258.29-.017.29-.01v.61l-.21-.01c-.12 0-.25-.02-.31-.03zm1.37 12.127c-.21-.113-.3-.285-.3-.547-.01-.446.35-.713.79-.592.48.132.57.857.14 1.11-.18.105-.47.118-.64.03zm3.92-.03c-.42-.26-.33-.978.15-1.11.25-.07.54.014.68.196.14.18.15.6.01.76-.204.25-.577.31-.848.14z"/>
</svg>
