<svg role="img" viewBox="0 0 24 24" xmlns="http://www.w3.org/2000/svg"><title>KFC</title><path d="M21.894 8.23c-4.187.001-5.249 2.365-5.42 3.97-.194 1.802 1.053 3.57 4.127 3.57 1.294 0 2.139-.225 2.44-.321a.215.215 0 00.146-.165l.173-.91a.184.184 0 00-.236-.21c-.335.106-.93.252-1.684.252-1.469 0-2.53-.882-2.395-2.4.13-1.47 1.121-2.59 2.485-2.59.82 0 1.183.43 1.156 1.003l-.001.033a.184.184 0 00.183.193h.556c.086 0 .16-.06.18-.143l.39-1.76a.215.215 0 00-.151-.255 7.21 7.21 0 00-1.949-.266zm-20.158.116a.2.2 0 00-.195.156l-.107.484a.198.198 0 00.129.23l.033.01c.208.082.45.266.348.748l-.791 3.619c-.207.988-.542 1.19-.861 1.227l-.01.001a.2.2 0 00-.175.156l-.102.464a.192.192 0 00.187.233h3.486c.085 0 .159-.06.177-.142l.12-.543a.184.184 0 00-.112-.21l-.022-.01c-.177-.071-.418-.224-.356-.511l.405-1.85h.001c1.388 2.536 1.847 3.267 3.513 3.266H8.91a.181.181 0 00.177-.142l.105-.47a.195.195 0 00-.186-.238c-.376-.006-.56-.093-.935-.575l-1.932-2.614 2.51-2.088c.337-.264.748-.338.976-.368l.022-.002a.185.185 0 00.163-.144l.103-.464a.184.184 0 00-.18-.223h-3.02a.199.199 0 00-.193.155l-.102.46a.2.2 0 00.138.235h.001c.177.069.216.239.062.366L4.046 11.7l.44-2.014a.683.683 0 01.477-.487l.025-.008a.199.199 0 00.135-.147l.106-.477a.181.181 0 00-.177-.22zm8.881 0a.2.2 0 00-.195.156l-.107.483a.19.19 0 00.122.221l.02.008c.204.077.487.274.364.758l-1.21 5.48a.182.182 0 00.178.222h2.777c.086 0 .16-.06.179-.143l.12-.547a.174.174 0 00-.098-.196 1.558 1.558 0 01-.027-.013c-.176-.086-.438-.285-.35-.669.009-.051.271-1.24.271-1.24h2.362c.086 0 .16-.06.179-.144l.222-1a.183.183 0 00-.18-.224h-2.28l.426-1.941 1.593-.002c.515 0 .672.27.642.728l-.002.024a.184.184 0 00.183.205h.587c.086 0 .16-.06.178-.144l.4-1.8a.184.184 0 00-.18-.222z"/></svg>