<svg role="img" viewBox="0 0 24 24" xmlns="http://www.w3.org/2000/svg"><title>Kiwigrid</title><path d="M13.357 2.434a16.661 15.652 0 0 0-5.95 1.107A13.483 12.666 0 0 0 2.913 5.51C1.478 6.532 1.126 8.69.871 10.27l-.046.289a84.045 78.957 0 0 0-.771 6.737v.028c-.106 1.328-.24 2.979 1.578 3.573a20.031 18.82 0 0 0 5.951.659c.989 0 1.964-.034 2.847-.092a16.918 15.892 0 0 0 5.993-1.544 28.573 26.842 0 0 0 3.903-1.995 11.524 10.826 0 0 0 3.534-3.164c.771-1.617-1.845-4.801-3.007-6.096h-.008a47.735 44.845 0 0 0-4.925-4.732 5.537 5.201 0 0 0-2.563-1.497zm-1.234 3.429a.375.353 0 1 1-.379.35.375.353 0 0 1 .38-.35zm-3.544.468a.375.353 0 1 1-.376.349.375.353 0 0 1 .376-.35zm1.908.665a.543.51 0 1 1-.543.51.543.51 0 0 1 .545-.506zm4.862.276a.375.353 0 1 1-.376.349.375.353 0 0 1 .376-.35zm-2.008.108a.543.51 0 0 1 .423.5.545.513 0 0 1-.543.512l-.003-.002a.543.51 0 1 1 .124-1.01zm-5.383.73a.543.51 0 1 1-.544.512.543.51 0 0 1 .544-.51zm-2.061.389a.375.353 0 1 1-.377.35.375.353 0 0 1 .378-.351zm9.429.58a.543.51 0 1 1-.547.509.545.513 0 0 1 .547-.51zm-3.45.744a2.481 2.332 0 0 1-.768 4.55 2.481 2.332 0 0 1-2.48-2.33l-.003-.003a2.481 2.332 0 0 1 3.25-2.217Zm5.093.35a.375.353 0 0 1 .64.25.375.353 0 0 1-.371.358l-.004-.004a.375.353 0 0 1-.265-.603zm-10.365.114a.543.51 0 0 1 .42.498.543.51 0 0 1-.543.517v-.006a.543.51 0 1 1 .123-1.01zm9.498 1.329a.543.51 0 0 1 .544.51.545.513 0 0 1-.54.515l-.004-.004a.544.51 0 1 1 0-1.021zm-11.484.188a.375.353 0 0 1 .642.25.375.353 0 0 1-.375.357l-.002-.004a.375.353 0 0 1-.267-.603zm1.99 1.09a.543.51 0 0 1 .42.498.543.51 0 0 1-.544.51h-.003a.543.51 0 1 1 .124-1.01zm10.627.534a.375.353 0 0 1 .376.353.375.353 0 0 1-.372.356l-.004-.002a.376.354 0 0 1 0-.708zm-1.91.636a.543.51 0 0 1 .543.513.543.51 0 0 1-.541.513l-.003-.004a.544.51 0 0 1 0-1.021zm-9.466.856a.375.353 0 0 1 .374.353.375.353 0 0 1-.372.359l-.002-.007a.375.353 0 0 1 0-.705zm2.118.146a.545.513 0 0 1 0 1.025.545.513 0 0 1-.543-.51v-.005a.543.51 0 0 1 .543-.51zm5.365.722a.543.51 0 0 1 .423.498.545.513 0 0 1-.543.515l-.003-.005a.543.51 0 1 1 .124-1.008zm-2.85.358a.543.51 0 0 1 .54.51.545.513 0 0 1-.542.515v-.004a.544.511 0 1 1 0-1.022zm4.552.185a.375.353 0 0 1 .641.247.375.353 0 0 1-.373.357l-.002-.004a.375.353 0 0 1-.266-.601zm-6.775.878a.375.353 0 0 1 .641.25.375.353 0 0 1-.374.357l-.002-.005a.375.353 0 0 1-.265-.602zm3.794.39a.375.353 0 0 1 .376.353.375.353 0 0 1-.375.357l-.002-.004a.375.353 0 0 1 0-.706z"/></svg>