<svg role="img" viewBox="0 0 24 24" xmlns="http://www.w3.org/2000/svg"><title>Known icon</title><path d="M23.966 11.07C23.47 4.205 17.13-.872 10.3.125 4.948.907.633 5.275.077 10.473c-.612 5.734 2.487 10.86 7.789 12.784.978.355 2.033.5 3.053.743h2.17c.246-.042.491-.085.737-.125 6.257-1.004 10.598-6.485 10.14-12.805zm-11.81 11.338C6.434 22.429 1.788 17.864 1.768 12.2A10.286 10.286 0 0 1 12.047 1.839c5.668-.021 10.288 4.564 10.309 10.23.02 5.685-4.55 10.317-10.2 10.339zm1.63-11.546c1.104 1.674 2.283 3.446 3.385 5.122.392.596.783 1.178 1.677.954v1.882h-6.06v-1.81c.251-.017.527-.03.801-.054.294-.026.462-.137.268-.452-.761-1.237-1.525-2.472-2.393-3.88-.591.653-1.122 1.231-1.643 1.817-.238.267-.176 2.119.094 2.35.119.1.306.151.468.17.246.027.497.007.806.007v1.856H5.28v-1.818c.274-.016.55-.03.827-.048.354-.024.542-.225.576-.567.021-.202.026-.407.026-.61V8.397c0-.157 0-.314-.013-.47-.042-.563-.232-.754-.787-.784-.2-.012-.4-.002-.629-.002V5.295h5.886v1.85h-.712c-.46 0-.729.256-.736.686-.024 1.308-.01 2.616-.01 3.888.336-.302.687-.585 1-.905.956-.976 1.902-1.96 2.836-2.956.136-.144.187-.367.276-.554-.187-.056-.372-.125-.562-.162-.149-.03-.305-.019-.483-.027V5.29h5.95v1.797c-.078.016-.14.047-.197.038-.934-.142-1.584.326-2.17.97l-2.572 2.766z"/></svg>