<svg role="img" viewBox="0 0 24 24" xmlns="http://www.w3.org/2000/svg"><title>kobo</title><path d="M15.5498 9.7658v3.3118h.5333v-1.152h.0098l.8058 1.152h.6382l-.9216-1.297.8456-.9874h-.639l-.7388.8726v-1.9Zm4.244 0v2.3416c0 .6816.3543 1.0227.9545 1.0227.744 0 .965-.5599.965-1.1947 0-.7302-.2395-1.1958-.7872-1.1958a.666.666 0 0 0-.5881.3289h-.0116V9.7658ZM4.6074 9.875v3.2027h.5621v-.9882l.8046.9882h.7647l-1.0856-1.2779.9361-1.1271H5.824l-.6545.838V9.8749ZM0 10.0735v3.0041h.5708v-.9316h.404l.6984.9316h.7146l-.8445-1.1243a1.0354 1.0354 0 0 0-.6002-1.8798Zm9.152 0v.599h-.2886v.5691h.2886v1.039c0 .5367.404.8575.8115.8575a1.12 1.12 0 0 0 .534-.1517l-.358-.475a.327.327 0 0 1-.183.0577c-.0888 0-.2567-.068-.2567-.2949v-1.0326h.4663v-.569h-.4663v-.5991zm2.251.5379c-.6315 0-1.0852.5552-1.0852 1.264 0 .7445.5691 1.2633 1.1394 1.2633.2885 0 .6568-.0987.9667-.5385l-.4819-.278c-.3728.5494-.9945.2706-1.066-.2789h1.5721c.1345-.8657-.4241-1.432-1.0452-1.432m2.2694.0023a.84.84 0 0 0-.4618.1483v-.0894h-.546v2.405h.5437v-1.4129c0-.2649.1818-.4888.4473-.4888s.4473.224.4473.4888v1.413h.5454v-1.413c0-.5771-.3965-1.051-.976-1.051m-10.4363.0007c-.621 0-1.0925.5661-1.0925 1.2616s.4715 1.2605 1.0925 1.2605a.893.893 0 0 0 .5143-.1634v.1068h.546v-2.4073h-.546v.1073a.893.893 0 0 0-.5143-.1656Zm-2.6653.0294h.3723a.4658.4658 0 1 1 0 .9309H.5708zm6.1116.0288v1.4128c0 .5772.3965 1.0511.9766 1.0511a.836.836 0 0 0 .4617-.1483v.0895h.546v-2.4051h-.5443v1.4128c0 .265-.1818.4889-.4468.4889s-.4472-.224-.4472-.489v-1.4127zm11.8155.0658c-.658 0-1.0089.4456-1.0089 1.1959s.3521 1.1946 1.009 1.1946c.6567 0 1.0072-.4472 1.0072-1.1946s-.3493-1.196-1.0073-1.196m4.4944 0c-.6573 0-1.0077.4456-1.0077 1.1959s.3504 1.1946 1.0077 1.1946S24 12.6816 24 11.9342s-.3503-1.1959-1.0077-1.1959Zm-2.2394.3423c.3561 0 .3988.4415.3988.8547 0 .374-.0571.8196-.3988.8196-.3359 0-.422-.2488-.422-.8196 0-.3838.1005-.8547.422-.8547m-2.255.0334c.3827 0 .4405.393.4405.8202 0 .427-.0578.8195-.4405.8195-.385 0-.4426-.3918-.4426-.8195s.06-.8202.4426-.8202m4.4944 0c.3839 0 .4415.393.4415.8202 0 .427-.0577.8195-.4415.8195s-.4415-.3918-.4415-.8195.0577-.8202.4415-.8202m-11.602.0162c.2178-.004.4343.1367.4865.4345h-.9811c.0577-.2816.2768-.4305.4946-.4345m-8.1542.0629c.306 0 .5195.3013.5195.6822s-.2159.6822-.5195.6822c-.3058 0-.5303-.3019-.5303-.6822s.2245-.6822.5303-.6822m-.3065 2.3345.706.7065 8.1564-.7065z"/></svg>