<svg role="img" viewBox="0 0 24 24" xmlns="http://www.w3.org/2000/svg"><title>KOReader</title><path d="M5.8866 0v10.9186l-1.237-1.0351-1.237 1.035V.0194C2.3898.1523 1.5923 1.0325 1.5923 2.092v13.8162c0 1.0022.7133 1.8451 1.6561 2.046a5.9313 5.9313 0 0 1-.1772-1.4401c0-3.27 2.655-5.9303 5.9188-5.9303 3.2637 0 5.9187 2.6602 5.9187 5.9303 0 .2876-.0216.57-.0613.8468.3648-.3771.591-.8894.591-1.4527V2.0919c0-.8714-.5395-1.6219-1.3-1.9352L9.153 5.4924c.55.6483 2.4015 2.4518 4.799 4.5006.503.43.8898.7547 1.2914.9256-.8698.0018-1.7773-.0036-2.0717 0-1.7124.0232-1.7509-.3113-2.302-.752-.8416-.6728-2.7618-2.5856-3.7033-3.4596-.3209-.2982-.5026-.6447-.5026-.9691v-.264c0-.4315.1622-.8476.454-1.1651L11.0837 0Zm7.9485 0c1.1482 0 2.088.9414 2.088 2.092v13.816c0 1.1506-.9398 2.092-2.088 2.092h.4846c1.1482 0 2.088-.9414 2.088-2.092V2.092c0-1.1506-.9398-2.092-2.088-2.092zM8.99 12.8128c-2.0369 0-3.694 1.6603-3.694 3.7012 0 .5286.1131 1.0307.3133 1.486h6.7612a3.6824 3.6824 0 0 0 .3133-1.486c0-2.0409-1.657-3.7012-3.6938-3.7012z"/></svg>