<svg role="img" viewBox="0 0 24 24" xmlns="http://www.w3.org/2000/svg"><title>KrakenD</title><path d="M12 .073c-3.214 0-6.227 1.218-8.482 3.428C1.248 5.725 0 8.713 0 11.913c0 1.645.332 3.212.932 4.64l-.004.003a4.2 4.2 0 0 0 .064.136C2.842 20.946 7.08 23.927 12 23.927c6.617 0 12-5.389 12-12.014 0-3.2-1.25-6.188-3.52-8.412C18.225 1.291 15.214.073 12 .073Zm0 1.01c2.923 0 5.661 1.097 7.72 3.088-2.367-1.53-5.042-1.874-7.228-1.537v.002C8.957 3.11 6.522 5.768 6.54 9.18c.018 3.473 2.84 6.3 6.293 6.3a6.231 6.231 0 0 0 3.865-1.328c.047.272.077.55.084.834.035 1.409-.448 2.67-1.398 3.645-1.183 1.214-2.956 1.883-4.994 1.883v.01c-6.115.097-8.19-3.654-8.494-4.284a10.953 10.953 0 0 1-.887-4.328c0-2.926 1.143-5.657 3.217-7.69C6.29 2.2 9.05 1.084 12 1.084Zm2.18 2.443c2.855.039 6.179 1.366 8.293 5.059.34 1.06.52 2.178.52 3.328 0 6.068-4.932 11.006-10.993 11.006-2.557 0-4.912-.882-6.781-2.354 1.277.572 2.893.971 4.922.971.201 0 .407-.004.617-.012v-.007c2.158-.079 4.046-.845 5.346-2.18 1.143-1.174 1.728-2.689 1.685-4.375-.089-3.527-2.854-6.287-6.295-6.287-1.428 0-2.775.47-3.877 1.338a5.343 5.343 0 0 1-.07-.836C7.534 6.68 9.165 3.99 12.84 3.608v-.004a9.33 9.33 0 0 1 1.34-.078zm-1.61.99a1.82 1.82 0 0 0 0 3.639 1.819 1.819 0 0 0 0-3.638zm0 1.01a.809.809 0 1 1 0 1.618.809.809 0 0 1 0-1.618zm5.184.098a2.399 2.399 0 0 0-2.395 2.397 2.398 2.398 0 0 0 2.395 2.396 2.397 2.397 0 0 0 0-4.793zM4.35 6.229a1.82 1.82 0 0 0 0 3.639 1.819 1.819 0 0 0 0-3.639zm13.404.405a1.387 1.387 0 0 1 0 2.773 1.387 1.387 0 0 1 0-2.773zM4.35 7.239a.81.81 0 1 1-.004 1.62.81.81 0 0 1 .004-1.62zm7.144 2.444c2.234 0 4.127 1.394 4.906 3.4a5.234 5.234 0 0 1-3.568 1.389c-2.231 0-4.147-1.408-4.92-3.387a5.232 5.232 0 0 1 3.582-1.402Zm-7.117 1.285a2.397 2.397 0 0 0 0 4.793 2.399 2.399 0 0 0 2.394-2.397 2.399 2.399 0 0 0-2.394-2.396zm15.992.045a2.072 2.072 0 0 0 0 4.143 2.072 2.072 0 0 0 0-4.143zm-15.992.965c.764 0 1.387.621 1.387 1.386 0 .765-.623 1.387-1.387 1.387a1.387 1.387 0 0 1 0-2.773zm15.992.044a1.062 1.062 0 0 1 0 2.123 1.062 1.062 0 0 1 0-2.123zM8.33 15.26a2.071 2.071 0 0 0 0 4.143 2.072 2.072 0 0 0 0-4.143zm0 1.01a1.062 1.062 0 0 1 0 2.123 1.062 1.062 0 0 1 0-2.123z"/></svg>