<svg role="img" viewBox="0 0 24 24" xmlns="http://www.w3.org/2000/svg"><title>Krutrim</title><path d="M1.642 0v2.789h8.704v6.733c-3.713 3.1-5.126 1.084-5.31.78-.159-.265-.255-.576-.236-1.016.093-2.03 3.007-1.863 4.605-1.617l.472-2.883c-1.212-.195-3.175-.375-4.67.149-4.032 1.55-3.678 5.205-2.674 6.873a4.708 4.708 0 0 0 2.144 1.869c.558.272 1.902.691 3.528.304.696-.166 1.407-.46 2.142-.885v1.496c.005.337-.01.833-.072 1.138-.433.375-1.176 1.067-1.61 2.14a4.4 4.4 0 0 0-.323 1.68 4.81 4.81 0 0 0 .397 1.837c.271.639.697 1.2 1.24 1.633 1.877 1.478 4.491.874 4.895.769.69-.18 1.465-.508 1.465-.508l-1.228-3.156c-.939.345-2.661 1.043-3.257-.066-.297-.553-.04-1.057.264-1.406.186-.222.42-.394.636-.585 1.009-.846 1.006-2.922.979-3.558v-4.018c.367-.318.7-.607.987-.831.707-.554 1.115-.762 1.668-.812.549-.05.824.09 1.067.289.488.4.518 1.012.518 1.17-.002.44-.083.872-.263 1.265-.228.459-1.204 2.446-1.204 2.446l2.621 1.291s1.114-2.26 1.225-2.482c.425-.983.48-1.494.54-2.411.063-1.686-.775-2.831-1.585-3.539-.77-.63-1.905-1.055-3.183-.939-.906.082-1.69.415-2.39.85v-4h8.624V0z"/></svg>