<svg role="img" viewBox="0 0 24 24" xmlns="http://www.w3.org/2000/svg"><title>Ky</title><path d="M14.444 6.83c-.312.208-1.84.083-2.326-.115-.218-.088-.377-.057-.483.005.039-.585.091-1.224.091-1.723.366-.699-.359-2.253-1.315-3.004.99 1.195 1.31 2.937 1.063 3.038-.247.099-.226 2.581-.19 2.797s-.413 1.328-.855 1.595c-.411.249-.372 1.224-.374 1.222 0 0-.026 1.219-.024 1.821l-.002.544q-.003.294-.011.579-.007.286-.018.543t-.026.427q.17-.015.33-.016c.16-.001.218.005.33.016a7 7 0 0 1-.046-.629q-.01-.314-.011-.642v-.442q-.001-.089.073-.088.03.001.06.02a.3.3 0 0 1 .052.052q.13.14.317.354.185.214.384.455l.408.488q.207.246.367.429.103-.015.197-.016h.372q.098 0 .223.016-.463-.49-.907-.998a41 41 0 0 1-.862-1.014q.382-.374.803-.738t.886-.738l-.205.026a1.2 1.2 0 0 1-.44-.026 17 17 0 0 1-.774.835 9 9 0 0 1-.577.538l-.159.116q-.07.051-.127.052-.089 0-.088-.14c.005-.595-.068-1.227-.018-1.822l.039-.839s1.203-1.159 1.047-1.601c-.06-.169-.062-.525-.042-.959.239-.055.894-.192 1.214-.075.395.143 1.323.099 1.752-.052s.99-1.029.99-1.029-.806.53-1.118.738m-1.686 1.45a.213.213 0 1 0-.123-.408.21.21 0 0 0-.143.265.214.214 0 0 0 .266.143m-.107-.356a.159.159 0 1 1-.107.197.16.16 0 0 1 .107-.197m3.992-1.011c.057.036.112.052.158.031q.069-.029.091-.133c.14.036.288.185.372.395.114.283.068.569-.104.637s-.4-.107-.515-.387c-.083-.211-.081-.421-.002-.543m-2.147-2.337c.01.073.039.127.086.151s.107.016.171-.021c.07.138.057.364-.051.582-.148.294-.411.46-.588.372s-.2-.398-.054-.691c.111-.221.283-.367.436-.393M9.974 8.498c.008.057.031.099.068.117s.083.01.132-.016c.055.107.044.283-.041.45-.114.226-.317.356-.455.288s-.156-.309-.042-.535c.086-.172.218-.286.338-.304m7.781-4.005c-.039.062-.055.12-.034.169s.073.081.143.099c-.039.151-.198.312-.423.403-.304.125-.611.075-.686-.107s.112-.431.415-.556c.226-.094.452-.091.585-.008M11.372 6.25c-.021-.06-.057-.101-.101-.112q-.068-.014-.143.05c-.086-.104-.114-.299-.062-.505q.012-.047.028-.09-.046.009-.096.01c-.211.013-.398-.052-.483-.156.049-.039.078-.083.075-.13s-.036-.088-.091-.119c.073-.114.249-.203.46-.216a.5.5 0 0 1 .096 0 1 1 0 0 1-.041-.089c-.078-.198-.073-.392 0-.506.052.036.104.047.148.031q.066-.029.086-.125c.13.034.268.174.345.372q.018.045.031.091a1 1 0 0 1 .071-.065c.164-.135.351-.192.483-.159q-.027.094.016.151c.029.036.081.049.143.044.008.135-.083.309-.247.445q-.039.03-.078.057a1 1 0 0 1 .083.046c.179.114.291.275.299.411-.062.003-.112.023-.138.062s-.021.091.003.151c-.127.049-.32.016-.499-.096a.5.5 0 0 1-.078-.057q-.007.046-.019.093c-.047.205-.166.361-.291.411m.037-.546q-.016-.04-.044-.049-.032-.007-.063.021c-.039-.047-.052-.133-.028-.224l.013-.041a.2.2 0 0 1-.042.005c-.094.005-.177-.023-.216-.07q.034-.026.034-.058-.002-.031-.041-.054c.034-.052.112-.091.205-.096h.041a.2.2 0 0 1-.018-.039c-.034-.088-.034-.174 0-.226q.036.024.065.013c.029-.011.031-.029.039-.055.057.016.12.078.154.166q.008.019.013.042l.031-.029c.073-.06.156-.086.215-.07q-.012.044.008.068.02.022.065.021c.003.06-.036.138-.109.197q-.016.014-.034.026a.2.2 0 0 1 .037.021c.081.049.13.122.132.182q-.043 0-.062.028-.015.028 0 .068c-.057.021-.143.008-.224-.044a.2.2 0 0 1-.033-.026l-.008.041c-.021.088-.073.159-.13.182m2.248 4.054q-.064-.025-.104.003c-.04.028-.039.055-.037.099-.094 0-.211-.073-.296-.192q-.02-.026-.036-.058l-.037.055c-.088.117-.205.187-.298.187q.004-.067-.037-.099-.04-.028-.104-.005c-.029-.091.005-.224.091-.34l.042-.052q-.031-.006-.065-.019c-.138-.047-.242-.138-.271-.226.042-.013.073-.034.084-.065q.014-.047-.026-.101c.078-.055.213-.065.35-.018l.063.026q-.004-.032-.003-.068c0-.146.055-.273.133-.327q.04.056.086.057.048-.001.088-.057c.075.057.127.182.127.33q-.001.034-.005.067l.062-.023c.14-.044.275-.031.351.023-.026.034-.039.07-.028.102q.017.046.08.065c-.031.088-.135.177-.273.221a.3.3 0 0 1-.065.015q.023.025.042.052c.086.127.114.26.086.348m-.273-.262q-.027-.013-.047.003c-.01.008-.018.023-.015.044-.042 0-.094-.031-.133-.086l-.016-.026-.015.026c-.039.052-.091.083-.133.083q0-.032-.015-.044c-.01-.008-.029-.008-.047-.003-.013-.039.003-.099.041-.15l.019-.024-.029-.008c-.062-.021-.107-.06-.119-.101q.028-.009.036-.028t-.013-.045c.034-.023.096-.029.156-.007l.028.01-.002-.029c0-.065.023-.122.06-.145q.015.025.039.026c.024.001.029-.01.039-.026.034.026.057.081.057.145q0 .016-.003.029a.1.1 0 0 1 .029-.01c.062-.021.122-.013.156.01q-.02.024-.013.044t.036.029c-.013.039-.06.078-.122.098l-.029.008.019.024c.036.055.049.114.036.153m-2.76.769c-.016-.016-.034-.026-.052-.021q-.027.006-.039.039c-.044-.021-.086-.083-.099-.161l-.005-.036q-.016.011-.031.018c-.07.036-.14.044-.187.024q.016-.034.005-.055-.013-.023-.049-.026c.008-.049.052-.107.122-.146l.031-.015-.029-.024c-.057-.055-.086-.12-.08-.171q.035.005.054-.013c.019-.018.016-.031.011-.055.049-.008.117.016.174.071q.014.013.023.026l.013-.034c.034-.07.088-.12.138-.13.003.023.013.042.028.047q.024.012.055-.008c.023.044.021.117-.013.187q-.007.015-.018.031.016 0 .036.003c.078.01.14.047.167.091q-.032.017-.037.041c-.005.024.008.034.024.05-.034.036-.104.055-.182.046l-.034-.007.008.033c.018.088.003.159-.034.195m-.073-.189q-.012-.01-.023-.011c-.011-.001-.013.008-.018.018-.021-.01-.039-.036-.045-.07l-.002-.015-.013.007c-.031.016-.062.021-.083.011a.03.03 0 0 0 .002-.026q-.005-.01-.021-.011.006-.036.055-.065l.016-.007-.013-.011c-.026-.023-.039-.055-.037-.075q.015.003.024-.005.006-.008.005-.024c.021-.005.052.008.078.031q.007.005.01.011l.005-.016q.025-.048.063-.057.003.016.013.021.012.005.023-.003c.01.021.01.052-.005.083l-.008.013h.016c.034.005.062.021.072.042q-.016.007-.015.018 0 .012.01.024c-.016.016-.047.026-.08.02q-.007-.002-.016-.002.004.008.003.015c.008.036 0 .068-.016.084m5.377-6.136q-.035-.008-.054.007c-.019.015-.018.031-.013.055-.049.005-.117-.026-.169-.083l-.024-.029-.015.031c-.039.068-.099.112-.148.117-.003-.023-.01-.042-.026-.049q-.024-.013-.055.003c-.021-.047-.01-.12.029-.187l.02-.029q-.016-.001-.036-.005c-.078-.016-.138-.057-.159-.104q.033-.015.039-.039.003-.024-.02-.052c.036-.034.109-.047.187-.031q.018.004.034.01l-.006-.036c-.008-.078.013-.148.05-.182q.025.029.049.026.026-.005.044-.037c.044.026.078.088.086.167l.003.036.031-.016c.073-.031.146-.034.19-.007q-.019.031-.011.054.011.024.047.031c-.01.049-.06.101-.133.136l-.033.013q.013.011.026.026c.055.057.078.125.067.174m-.161-.122q-.015-.005-.023.002t-.006.024c-.023.003-.052-.01-.075-.037q-.006-.006-.01-.013l-.008.013c-.018.031-.044.049-.065.052q-.001-.015-.01-.023c-.009-.008-.016-.003-.026.002-.008-.021-.005-.052.013-.083l.007-.013-.015-.002c-.034-.008-.06-.026-.07-.047q.015-.007.018-.018.003-.012-.011-.024c.016-.016.049-.021.084-.013q.008.001.015.005-.002-.007-.002-.015c-.003-.034.005-.065.023-.081q.012.013.023.011c.008 0 .013-.008.018-.016.018.01.036.039.039.075v.016l.013-.008c.031-.013.065-.016.084-.002q-.008.014-.006.023.005.01.021.013c-.005.021-.026.047-.06.06a.03.03 0 0 1-.015.005l.01.01c.026.029.036.06.034.084m-4.379-1.227q.088.008.133-.042.04-.052.013-.137c.12-.031.294.021.444.142.203.166.286.4.187.523-.099.122-.346.088-.548-.078-.151-.125-.234-.283-.229-.408m2.677 5.117c-.034-.034-.07-.052-.107-.044-.034.005-.062.036-.083.08-.094-.044-.174-.169-.205-.327q-.007-.036-.011-.073l-.062.039c-.14.078-.291.091-.385.047q.033-.067.011-.114-.025-.046-.102-.055c.013-.101.107-.218.25-.296a.4.4 0 0 1 .065-.031q-.029-.023-.055-.047c-.117-.112-.177-.247-.163-.351.047.008.088 0 .111-.026q.034-.04.021-.112c.101-.018.242.034.359.146q.027.026.049.052a.4.4 0 0 1 .029-.068c.07-.146.182-.244.283-.265.008.047.026.083.06.099.031.016.073.008.114-.016.049.091.042.242-.026.385q-.016.034-.036.065.036.001.073.005c.159.021.288.096.337.187q-.067.035-.075.086-.006.052.049.104c-.07.075-.216.114-.374.093q-.038-.005-.073-.013.011.035.019.071c.031.159-.003.304-.073.379m-.151-.39q-.023-.024-.047-.021-.025.005-.036.037c-.042-.021-.078-.075-.091-.146l-.005-.031q-.012.009-.029.018c-.062.034-.13.042-.171.021q.016-.027.005-.052-.012-.02-.044-.023c.005-.047.047-.099.111-.133l.029-.013-.026-.021c-.052-.049-.078-.109-.073-.156q.033.005.05-.01.015-.017.007-.049c.044-.008.107.016.159.065l.023.023.013-.031c.031-.065.081-.109.125-.117a.06.06 0 0 0 .026.044q.02.01.049-.008c.021.042.018.107-.013.172l-.015.028q.015 0 .034.003c.07.01.127.044.15.083q-.029.015-.033.039t.023.047c-.031.034-.096.052-.166.041l-.032-.005.008.031c.016.068.003.133-.031.164M11.705 8.42c-.036-.029-.073-.044-.104-.034-.034.008-.057.039-.073.083-.094-.034-.182-.148-.223-.296q-.007-.036-.016-.067a.3.3 0 0 1-.057.041c-.127.086-.27.112-.361.078q.027-.066 0-.109c-.027-.043-.055-.042-.102-.044.005-.099.083-.218.214-.304q.03-.02.059-.037-.029-.019-.057-.041c-.12-.096-.19-.221-.184-.32q.072.005.104-.034c.021-.026.023-.065.01-.109.096-.026.234.013.353.109l.052.047q.008-.034.021-.067c.055-.146.153-.249.247-.276.01.044.034.078.065.088.031.013.07.003.107-.026.055.083.06.226.005.372l-.029.065a.3.3 0 0 1 .07 0c.153.008.283.068.338.151q-.06.039-.065.088c-.003.034.021.065.057.094-.062.078-.198.127-.35.119a.4.4 0 0 1-.071-.008l.024.068c.047.151.029.291-.034.369m-.174-.359q-.024-.02-.047-.015-.024.008-.031.036c-.042-.016-.081-.065-.099-.132l-.008-.031a.1.1 0 0 1-.026.018c-.057.039-.12.049-.161.033q.012-.028 0-.049c-.012-.021-.023-.018-.044-.018.003-.044.036-.096.094-.135l.026-.016q-.013-.007-.026-.018c-.055-.042-.086-.099-.084-.143q.031.004.047-.016.014-.02.005-.049c.042-.01.104.005.159.049l.023.021q.003-.016.011-.028c.023-.065.068-.112.109-.122q.008.032.029.038c.013.005.031 0 .046-.01.023.036.026.101.003.166l-.013.029h.031c.068.003.127.031.151.068q-.028.015-.029.039c-.001.024.008.029.026.041-.029.034-.088.057-.156.055l-.031-.003.011.029c.018.065.01.13-.016.163M4.311 4.41q.064.013.096-.018c.032-.031.029-.055.021-.096.088-.013.208.039.304.137.13.135.172.307.091.388-.081.078-.252.034-.384-.102-.097-.101-.143-.221-.128-.309m17.802 10.744c.01.047.034.081.065.091q.048.018.11-.024c.055.086.06.234.002.38-.078.2-.236.322-.356.275s-.156-.244-.078-.444c.057-.146.161-.252.257-.278m-13.896-.198c.034.052.047.104.029.146s-.062.07-.122.083c.034.13.172.268.364.346.262.107.525.062.587-.094.062-.159-.096-.372-.359-.476-.192-.078-.385-.075-.499-.005m3.909 2.846c.026.122-.052.244-.174.27s-.244-.052-.27-.174.052-.244.174-.27.242.052.27.174m-.392.086a.17.17 0 0 0 .202.132.173.173 0 0 0 .133-.202.173.173 0 0 0-.203-.133.17.17 0 0 0-.132.203m3.181-3.407q.094-.214.192-.432l.195-.434.192-.431q.094-.214.19-.421l.179-.398q.085-.191.167-.361.078-.172.148-.317c.07-.145.086-.187.124-.27s.07-.153.099-.211.049-.104.068-.138q-.074.018-.135.029c-.061.011-.075.01-.11.01q-.047 0-.109-.01a1 1 0 0 1-.135-.029 24 24 0 0 1-.793 2.152q-.149.344-.301.668-.155-.367-.301-.722-.147-.354-.286-.702a22 22 0 0 1-.507-1.396q-.047.008-.091.013c-.044.005-.057.008-.083.013l-.081.008q-.04.004-.08.003c-.04-.001-.055 0-.081-.003l-.08-.008-.086-.013-.091-.013.065.148.091.211q.05.122.111.262c.061.14.083.195.128.302q.066.16.14.33l.151.353.153.362.148.353.143.341q.07.167.133.324.063.159.117.286l.093.229c-.135.32-.301.621-.434.845-1.518 2.521-3.672.748-4.345.343-.554-.335-.798.65-2.183 1.169.156.465 1.484-.998 2.004-.845.671.2 2.919 2.51 4.662-.449m-3.074.166c-.068.01-.125 0-.159-.036s-.042-.094-.028-.159c-.143-.026-.343.047-.507.203a1 1 0 0 0-.07.075 1 1 0 0 0-.039-.096c-.096-.205-.255-.348-.398-.374-.01.068-.039.117-.083.138s-.101.01-.161-.024c-.07.127-.06.34.036.546q.023.047.049.091a1 1 0 0 0-.104.008c-.226.029-.408.135-.48.262.06.031.099.073.106.122q.006.075-.073.146c.101.107.304.164.531.135q.051-.007.101-.018-.014.047-.026.099c-.042.224.003.431.101.538.049-.047.101-.073.151-.063q.073.016.117.115c.133-.062.249-.239.291-.463q.01-.053.013-.101c.029.018.057.039.088.054.2.109.411.133.544.07q-.047-.094-.013-.161c.023-.044.075-.068.143-.075-.018-.146-.151-.312-.349-.421q-.046-.026-.093-.044c.026-.021.055-.042.078-.065.166-.164.252-.359.234-.502m-.497.317q-.047.008-.07-.015c-.016-.016-.018-.042-.013-.07-.065-.013-.153.021-.226.09l-.031.034q-.007-.021-.018-.041c-.044-.091-.114-.156-.177-.167q-.008.046-.036.063-.03.014-.073-.011c-.031.057-.026.151.015.245l.021.041q-.024 0-.047.003c-.101.013-.182.06-.213.117.026.013.044.034.047.054q.003.033-.031.065c.044.047.135.073.236.06l.045-.008-.011.044c-.018.099 0 .192.044.24q.032-.032.068-.029.032.009.052.049c.06-.029.112-.107.13-.205l.005-.047q.02.014.039.024c.088.049.182.06.242.031q-.02-.042-.006-.073c.014-.031.034-.031.065-.034-.008-.065-.068-.138-.155-.187l-.042-.021q.018-.012.036-.028c.073-.073.112-.159.104-.224m-2.219.949q-.056-.047-.05-.101.009-.05.073-.086c-.049-.088-.177-.161-.335-.18l-.073-.005.034-.062c.065-.143.07-.291.021-.38q-.064.036-.112.019c-.048-.017-.052-.049-.06-.097-.099.021-.208.12-.273.263l-.026.068-.049-.052c-.117-.107-.255-.156-.353-.138q.016.072-.019.112-.037.038-.109.026c-.01.101.049.234.167.34l.054.044a.4.4 0 0 0-.065.031c-.138.078-.229.192-.239.294.047.005.083.021.099.052q.025.048-.008.112c.091.042.239.026.377-.052l.06-.039.01.07c.031.156.114.275.205.32.018-.044.047-.073.081-.078.034-.008.07.01.104.041.068-.075.099-.218.067-.374q-.007-.035-.018-.07l.07.013c.156.023.296-.016.367-.091m-.393-.122a.06.06 0 0 1-.023-.044q.004-.024.031-.039c-.023-.039-.078-.073-.148-.081l-.031-.003.015-.028c.029-.065.031-.13.011-.169q-.028.015-.049.008c-.021-.007-.023-.021-.026-.042-.044.008-.094.052-.123.117l-.01.029q-.01-.012-.023-.024c-.052-.047-.114-.07-.159-.062q.008.033-.008.049-.017.016-.049.013c-.005.044.021.104.073.154l.023.02-.029.013c-.062.034-.101.086-.106.13q.032.004.044.024.01.02-.003.049c.042.018.107.01.167-.023a.1.1 0 0 0 .026-.019q.001.015.005.032c.013.07.049.122.091.143a.07.07 0 0 1 .036-.037q.024-.003.047.018c.031-.034.044-.099.029-.166l-.008-.031q.016.005.031.005c.073.016.138-.003.166-.036m7.282-1.172c-.023-.008-.042-.021-.046-.037a.06.06 0 0 1 .015-.057c-.044-.031-.122-.039-.202-.01l-.037.013q.004-.02.003-.039c0-.083-.031-.156-.076-.19q-.023.033-.049.034c-.026.001-.036-.013-.049-.034-.044.031-.073.104-.073.19q0 .02.002.039l-.036-.013c-.081-.026-.159-.018-.203.013q.024.033.016.057-.01.027-.047.039c.018.052.078.101.159.127l.036.011-.023.028c-.049.068-.068.146-.05.198q.035-.012.06.002.023.017.021.057c.055 0 .122-.042.171-.109l.021-.031q.008.016.021.031c.049.068.117.109.171.109q-.002-.04.021-.057.024-.015.06-.002c.016-.052-.003-.127-.052-.198l-.023-.028q.018-.003.036-.011c.078-.031.138-.081.153-.132m-.215.028q-.016-.005-.021-.015-.004-.011.008-.026c-.021-.013-.055-.016-.091-.006l-.016.006v-.019c0-.036-.013-.07-.034-.083q-.008.015-.023.016-.012 0-.023-.016a.11.11 0 0 0-.034.083v.019l-.016-.006c-.036-.01-.07-.008-.091.006q.012.013.008.026t-.021.015c.008.023.034.047.07.057l.016.006q-.006.006-.01.013c-.021.031-.029.065-.024.088q.017-.005.026 0 .011.007.011.026c.023 0 .055-.018.075-.049l.01-.016q.003.007.011.016c.023.031.052.049.075.049q0-.017.011-.026.012-.008.026 0c.008-.023 0-.057-.024-.088l-.01-.013q.008 0 .015-.006c.042-.01.068-.034.076-.057m-1.411.782q-.068-.026-.081-.075c-.008-.034.008-.068.039-.104-.075-.065-.218-.088-.369-.052l-.068.021q.007-.035.011-.07c.013-.153-.031-.291-.107-.356q-.044.055-.096.052c-.034-.003-.062-.029-.086-.068-.086.052-.151.179-.163.333q-.004.035-.003.07l-.062-.031c-.143-.06-.286-.06-.372-.008q.04.06.021.109c-.013.031-.047.052-.091.063.023.096.125.2.267.259q.034.015.065.024-.025.023-.049.049c-.101.117-.146.255-.122.351.044-.013.083-.008.109.013q.037.035.031.107c.099.008.229-.057.328-.175l.041-.054q.015.032.034.062c.081.133.198.216.296.226.003-.047.018-.083.047-.098q.045-.027.109.005c.039-.091.016-.234-.062-.367l-.039-.057.07-.013c.146-.039.262-.125.302-.216m-.401.019q-.028-.011-.036-.034c-.008-.023.003-.031.018-.047-.034-.029-.096-.039-.164-.023l-.031.008.005-.032c.005-.068-.013-.13-.046-.158q-.02.026-.045.023c-.016 0-.029-.013-.039-.031-.039.023-.068.081-.072.148v.031a.1.1 0 0 0-.029-.013c-.062-.026-.127-.026-.166-.002.01.018.016.034.01.049q-.01.02-.041.029c.01.044.055.088.119.114q.016.007.029.01-.013.012-.021.024c-.044.052-.065.114-.055.156q.03-.007.05.005.016.015.013.047c.044.003.101-.026.145-.078a.1.1 0 0 0 .018-.026l.016.028c.036.06.088.096.133.102q.001-.032.02-.044.02-.012.05.002c.018-.042.008-.104-.029-.164a.1.1 0 0 0-.018-.026q.015-.001.031-.005c.065-.016.117-.052.135-.093m2.76-10.437c-.034-.01-.06-.029-.067-.052q-.012-.04.023-.083c-.062-.044-.174-.055-.288-.016q-.026.008-.052.021a.3.3 0 0 0 .002-.055c0-.12-.044-.224-.106-.27q-.031.047-.07.047-.04-.002-.073-.047c-.062.047-.104.151-.104.27q.002.027.002.055l-.052-.021c-.114-.036-.226-.026-.288.018q.035.044.023.083t-.067.055c.023.073.109.146.226.182l.052.013q-.019.021-.034.041c-.07.099-.096.208-.07.281q.053-.02.086.003.031.025.031.08c.078 0 .174-.06.244-.158q.016-.023.029-.047.012.024.028.047c.07.096.169.156.245.156q-.001-.055.028-.081.033-.023.086-.005c.023-.073-.003-.182-.075-.281q-.016-.024-.034-.041l.052-.013c.114-.034.2-.107.223-.182m-.309.044q-.024-.007-.031-.024-.005-.016.01-.036c-.029-.021-.078-.023-.13-.008l-.023.008c0-.008.003-.016 0-.023 0-.055-.021-.099-.047-.12q-.016.02-.031.021-.02 0-.031-.021c-.029.021-.047.068-.047.12q0 .012.003.023l-.024-.008c-.052-.016-.101-.013-.13.008q.014.02.011.036c-.003.01-.016.018-.029.024.01.034.049.065.101.08l.024.006-.016.018c-.031.044-.042.094-.031.125q.024-.008.039.002.014.013.013.037c.034 0 .078-.026.109-.071q.008-.01.013-.02l.013.02c.031.044.075.07.109.071q-.001-.024.013-.037.015-.012.039-.002c.01-.034-.003-.081-.034-.125l-.015-.018.023-.006c.049-.016.088-.049.099-.08m4.956 4.478c-.023-.008-.042-.021-.047-.037q-.008-.028.016-.057c-.044-.031-.122-.039-.203-.01l-.036.013a.1.1 0 0 0 .002-.039c0-.083-.031-.156-.075-.19q-.023.033-.049.034c-.026.001-.036-.013-.05-.034-.044.031-.073.104-.073.19q0 .02.003.039l-.036-.013c-.081-.026-.159-.018-.203.013q.024.033.016.057-.01.027-.047.039c.018.052.078.101.158.127q.02.007.037.011l-.024.028c-.049.068-.068.146-.049.198q.035-.012.06.002.023.017.02.057c.055 0 .122-.042.172-.109l.021-.031q.008.015.021.031c.049.068.117.109.171.109q-.002-.04.021-.057.024-.014.06-.002c.016-.052-.003-.127-.052-.198q-.012-.016-.024-.028.018-.003.037-.011c.075-.029.135-.081.153-.132m-.218.028q-.016-.005-.021-.015-.004-.011.008-.026c-.021-.013-.055-.016-.091-.006l-.016.006v-.019c0-.036-.013-.07-.034-.083q-.008.015-.023.016-.012 0-.023-.016a.11.11 0 0 0-.034.083v.019l-.016-.006c-.036-.01-.07-.008-.091.006q.011.013.008.026-.005.012-.021.015c.008.023.034.047.07.057l.016.006-.01.013c-.021.031-.029.065-.024.088q.017-.004.026 0 .01.007.011.026c.023 0 .055-.018.075-.049q.003-.007.01-.016.003.007.011.016c.023.031.052.049.075.049q0-.017.011-.026c.011-.009.016-.005.026 0 .008-.023 0-.057-.024-.088q-.006-.006-.01-.013.008 0 .015-.006c.042-.01.068-.034.076-.057m-14.33-.057c.026.122-.052.244-.174.27s-.244-.052-.271-.174.052-.244.174-.27.242.052.271.174m-.393.086a.171.171 0 0 0 .335-.07.173.173 0 0 0-.202-.133.17.17 0 0 0-.133.203M23.995 3.22c.026.122-.052.244-.174.27s-.244-.052-.27-.174.052-.244.174-.27.244.052.27.174m-.39.086c.021.094.112.151.203.132s.151-.112.132-.203c-.021-.094-.112-.151-.202-.132s-.151.109-.133.203M.449 9.387c.026.122-.052.244-.174.27s-.244-.052-.27-.174.052-.244.174-.27a.224.224 0 0 1 .27.174M.06 9.47a.173.173 0 0 0 .202.133.173.173 0 0 0 .133-.203.173.173 0 0 0-.203-.133.17.17 0 0 0-.132.203M9.369 19.6l-.026.013v.115c0 .062.003.088.002.117v.005c0 .01-.003.013-.018.023q-.01.008-.013.008-.006 0-.005-.013v-.034h-.081v.031c0 .01-.003.01-.018.021q-.012.006-.015.005-.005 0-.006-.01v-.013c.003-.023.003-.052.003-.107v-.119q0-.043-.003-.086h-.106v.096c.075.036.101.06.101.089 0 .023-.013.034-.026.033-.008 0-.01-.005-.015-.026a.2.2 0 0 0-.06-.077v.41c0 .01-.003.013-.018.024-.008.005-.01.008-.016.007q-.006 0-.005-.013v-.013c.003-.031.003-.073.002-.174v-.247a1 1 0 0 1-.127.252l-.01-.01c.057-.099.109-.231.135-.351h-.052a.1.1 0 0 0-.055.011l-.023-.032a.4.4 0 0 0 .06.003h.072v-.083c0-.057 0-.088-.002-.12l.062.029q.009.004.011.008.002.005-.011.007l-.023.011v.148h.039l.036-.042.042.047q.006.007.005.011 0 .004-.01.002h-.008l.049.034h.06l.023-.031.05.034.005.005s-.003 0-.005.002m.296.458h-.468a.1.1 0 0 0-.054.01l-.024-.031a.4.4 0 0 0 .06.003h.405l.037-.047.047.052q.008.007.007.01 0 .004-.01.003m-.029-.621a.1.1 0 0 0-.052.015 1 1 0 0 0-.145.107v.358c0 .057-.005.07-.05.094l-.005.003q-.003 0-.005-.006c-.005-.031-.029-.044-.099-.059l.003-.013c.042.008.068.01.086.01.029 0 .031-.008.031-.021v-.306c0-.065 0-.096-.003-.123l.047.034.109-.106h-.268a.2.2 0 0 0-.054.01l-.023-.031a.3.3 0 0 0 .059.002h.284l.033-.028.055.049.005.005q0 .005-.008.006m-.33.166h-.08v.21h.08zm.343-.005-.028.013a2 2 0 0 1-.044.161c.034.044.07.107.07.138 0 .018-.008.031-.024.031-.008 0-.018-.013-.02-.031a.3.3 0 0 0-.039-.102.5.5 0 0 1-.102.151l-.01-.008a.7.7 0 0 0 .091-.179 1 1 0 0 0-.086-.114l.01-.008q.05.048.086.088.02-.07.031-.148h-.057a.1.1 0 0 0-.054.01l-.024-.028a.3.3 0 0 0 .06.002h.068l.026-.031.046.039q.008.004.008.008zm.551.267c.065.094.153.143.328.149v.01c-.049.008-.065.016-.078.039q-.004.005-.008.005a.42.42 0 0 1-.262-.203h-.021v.167c0 .008.003.052.002.06 0 .013-.029.021-.031.02q-.008 0-.008-.015v-.232a.66.66 0 0 1-.361.232l-.003-.013a.67.67 0 0 0 .312-.219h-.239a.1.1 0 0 0-.054.011l-.021-.031a.3.3 0 0 0 .06.002h.306c0-.034 0-.052-.002-.093l.054.028q.01.007.011.011c0 .003-.003.005-.026.018v.036h.257l.036-.047.05.05q.008.007.008.01-.001.005-.011.005zm-.213-.252-.112.122a.2.2 0 0 0-.039.055q-.004.008-.01.008l-.008-.003-.039-.031.198-.161zm-.174-.202c.088.047.117.073.125.104l.002.013c0 .021-.01.036-.028.036q-.015.002-.018-.031c-.003-.026-.036-.075-.086-.115zm.291.044a.5.5 0 0 0 .021-.125l.06.023q.005.004.005.008 0 .006-.008.008a.04.04 0 0 0-.028.021l-.034.067h.093l.024-.033.046.033q.008.004.008.008c0 .005-.003.005-.026.016v.156c0 .052 0 .075.005.114v.008q0 .014-.018.021l-.015.005q-.006 0-.006-.011v-.028h-.174c0 .029 0 .031-.015.036-.008.003-.01.005-.016.005q-.008 0-.008-.018v-.008c.003-.047.003-.068.003-.111v-.154c0-.018 0-.057-.003-.08l.047.041h.039zm-.052.135h.174v-.12h-.174zm.174.016h-.174v.122h.174zm.078.018c.07.029.122.052.156.085.013.01.018.029.018.042 0 .021-.01.031-.02.031a.03.03 0 0 1-.021-.013.35.35 0 0 0-.138-.132zm.182-.185.003.005q0 .004-.008.008c-.016.003-.042.021-.164.133l-.008-.008c.052-.06.104-.13.133-.169zm.858.354q.008.008.008.013 0 .006-.011.005h-.195a.6.6 0 0 1-.091.132.7.7 0 0 1 .211.084q.016.017.015.033c0 .013-.008.023-.015.024q-.006.002-.037-.021a.8.8 0 0 0-.2-.096c-.091.081-.218.122-.415.14v-.013c.187-.036.299-.078.374-.14a1 1 0 0 0-.213-.044q.033-.047.065-.102h-.18a.1.1 0 0 0-.054.011l-.024-.032a.4.4 0 0 0 .06.003h.211c.023-.039.044-.078.057-.106l.047.025q.008.003.007.006t-.007.005l-.024.01-.036.057h.364l.039-.046zm-.024-.398q.008.008.008.013-.001.006-.01.005h-.247v.102h.117l.021-.032.052.032q.008.004.007.007-.001.004-.005.008l-.023.021v.075c0 .013.003.07.002.078 0 .01-.005.013-.018.021l-.015.005q-.008-.001-.008-.01v-.036h-.46v.025c0 .01-.003.013-.018.021l-.016.005q-.006 0-.005-.01c0-.008.003-.044.002-.052v-.109c0-.018 0-.057-.002-.081l.044.032h.12v-.102h-.201a.1.1 0 0 0-.054.011l-.026-.034a.3.3 0 0 0 .06.002h.592l.031-.044zm-.454.27v-.132h-.125v.132zm-.045.234q.099.013.19.034a.5.5 0 0 0 .083-.122h-.218zm.211-.384v-.102h-.13v.102zm0 .15v-.132h-.13v.132zm.169 0v-.132h-.13v.132zm.985.312c-.047 0-.06.008-.081.031q-.004.005-.008.006-.003 0-.01-.006c-.13-.096-.208-.2-.268-.413v.437c0 .062-.005.068-.059.088h-.006q-.007.001-.01-.013c-.005-.029-.023-.039-.107-.065l.003-.013c.052.01.083.013.104.013.031 0 .036-.01.036-.028v-.24l-.228.141a.2.2 0 0 0-.063.057q-.007.011-.01.01-.004-.001-.008-.005l-.044-.041.353-.177v-.224h-.272a.1.1 0 0 0-.055.011l-.023-.031a.3.3 0 0 0 .059.002h.291v-.057c0-.034-.003-.091-.002-.122l.06.028q.012.007.013.011c.001.004-.003.005-.032.023v.117h.255l.034-.041.049.041q.01.01.011.013 0 .005-.013.005h-.333v.016c.029.083.065.166.088.205.047-.052.104-.125.138-.174l.031.037q.01.011.011.018t-.013.005c-.013-.001-.016.003-.024.008l-.135.122c.07.114.156.174.27.195v.01zm-.671-.379c.057.034.114.086.122.111q.004.012.003.024c0 .026-.013.044-.029.044q-.018.002-.023-.036c-.005-.031-.023-.075-.08-.135zm.393-.216c.065.013.114.031.124.055l.008.026c0 .021-.013.042-.026.041-.01 0-.013-.003-.02-.026-.008-.029-.034-.06-.091-.086zm.561.79c-.125-.078-.177-.205-.177-.348s.055-.27.177-.346l.01.013c-.091.068-.138.198-.137.335 0 .138.047.268.137.336zm.229-.756c.008-.018.031-.029.052-.029.031 0 .083.018.083.05 0 .018-.018.021-.029.075-.01.065-.023.239-.026.346 0 .135.062.161.167.161.127 0 .231-.065.306-.208l.021.01c-.07.164-.187.236-.327.237-.107 0-.203-.042-.203-.198 0-.114.01-.294.021-.408v-.005c0-.008-.003-.031-.039-.031q-.014 0-.024.002zm.878-.024a.06.06 0 0 1 .047-.026c.036 0 .075.021.075.042 0 .018-.016.016-.026.057l-.018.06a1 1 0 0 0 .122-.031q.034-.014.037-.037c.062-.003.083.003.083.016 0 .016-.016.023-.055.036-.044.016-.135.036-.195.05-.039.12-.114.281-.171.361-.005.008-.016.016-.021.016-.01 0-.021-.013-.021-.029 0-.01.005-.029.013-.036a.8.8 0 0 0 .164-.307l-.078.008c-.049 0-.088-.013-.099-.055l.013-.01c.016.029.039.036.076.036a.5.5 0 0 0 .096-.01.4.4 0 0 0 .015-.102c0-.013 0-.031-.036-.031q-.007 0-.018.003zm.239.224a.4.4 0 0 1 .161-.042c.099 0 .14.034.141.06q-.002.01-.016.011a.1.1 0 0 1-.031-.008.1.1 0 0 0-.036-.008l-.032.003c-.088.021-.099.062-.098.119v.023c0 .031.008.06.01.086 0 .008.003.021.005.029.075.029.187.075.187.132 0 .01-.016.016-.026.016-.013 0-.049-.068-.156-.112a.4.4 0 0 1 .003.065c0 .047-.047.088-.148.089-.096 0-.159-.047-.159-.107 0-.057.07-.104.162-.104.029 0 .075.005.101.013-.003-.029-.01-.073-.011-.101v-.016c0-.065.016-.117.128-.151v-.005a.4.4 0 0 0-.177.029zm.07.291a.4.4 0 0 0-.109-.018c-.065 0-.125.031-.124.075 0 .049.042.078.124.078s.114-.026.115-.062a.4.4 0 0 0-.006-.073m.936-.45c.039 0 .075 0 .075.019 0 .042-.216.081-.249.088.018.073.068.164.13.197.021.01.023.031.023.045s-.01.018-.023.018-.026-.026-.065-.037a.3.3 0 0 0-.117-.015c-.127 0-.203.07-.203.135 0 .099.122.13.242.13.044 0 .127-.005.138-.018.029.005.052.018.052.031 0 .018-.055.023-.182.023-.148 0-.283-.042-.284-.161 0-.042.029-.164.263-.164.026 0 .06 0 .094.008v-.002a.4.4 0 0 1-.099-.185c-.062.01-.146.018-.18.018a.3.3 0 0 1-.091-.01.14.14 0 0 1-.057-.055l.016-.01c.034.039.07.047.117.047.049 0 .138-.01.19-.018l-.024-.099c-.005-.031-.026-.031-.039-.031a.1.1 0 0 0-.031.007l-.005-.007c.008-.021.029-.031.052-.032.029 0 .073.013.073.032 0 .013-.01.01-.011.028 0 .01.008.065.016.096.044-.008.161-.034.176-.07zm.257.021a.03.03 0 0 1 .032-.018c.034 0 .081.034.08.073 0 .01-.008.021-.013.031a.7.7 0 0 0-.023.197c0 .127.07.198.085.198.01 0 .018-.01.039-.039.021-.026.073-.114.117-.192l.019.007c-.034.065-.101.185-.117.224q-.004.007-.003.016 0 .009.003.01c.01.008.016.021.015.029 0 .008-.013.01-.028.01a.2.2 0 0 1-.071-.034.32.32 0 0 1-.09-.231c0-.065.005-.153.01-.208v-.01c.003-.026-.008-.06-.055-.063m.505.034a.295.295 0 0 1 .207.273c0 .029-.005.057-.023.057-.01 0-.021-.01-.021-.036-.003-.117-.062-.231-.174-.278zm.33-.034c.125.078.177.205.176.348s-.055.27-.176.346l-.011-.013c.091-.068.138-.198.138-.335 0-.138-.047-.268-.138-.335zm-9.034 1.809q0-.07-.003-.135t-.005-.135q.039.004.078.002c.039-.002.052.003.078.003s.052 0 .078-.003.052-.003.078-.002q.091 0 .156.023a.3.3 0 0 1 .107.068.24.24 0 0 1 .059.109.5.5 0 0 1-.018.317.3.3 0 0 1-.091.114.4.4 0 0 1-.122.063.5.5 0 0 1-.127.018h-.211l-.07.002q.005-.065.005-.13.004-.065.003-.135v-.179zm.086.179q.001.112.005.221l.06.008c.026.003.049.003.078.003a.6.6 0 0 0 .114-.013q.059-.012.101-.052a.26.26 0 0 0 .073-.102.4.4 0 0 0 .029-.169.4.4 0 0 0-.024-.148.2.2 0 0 0-.062-.091.2.2 0 0 0-.094-.047.5.5 0 0 0-.119-.013q-.046 0-.089.003l-.072.008-.005.104-.003.112v.176zm.657.037q0-.13.06-.2.062-.073.177-.073.054 0 .096.018.04.015.067.047a.2.2 0 0 1 .039.067.3.3 0 0 1 .013.084v.02l-.002.021q-.055-.002-.112-.002h-.179q-.033.002-.068.002v.029q0 .04.013.075a.2.2 0 0 0 .034.06.2.2 0 0 0 .057.041q.033.015.078.016.021-.001.042-.005a.1.1 0 0 0 .041-.016l.039-.023a.1.1 0 0 0 .031-.029l.006.003-.006.052q-.032.025-.078.041a.3.3 0 0 1-.096.019.2.2 0 0 1-.101-.019.21.21 0 0 1-.133-.127.4.4 0 0 1-.018-.101m.242-.242a.1.1 0 0 0-.065.018q-.026.018-.044.044a.13.13 0 0 0-.026.058.4.4 0 0 0-.011.059l.068.003h.138l.067-.003q-.001-.028-.005-.059a.2.2 0 0 0-.018-.058.1.1 0 0 0-.039-.044.13.13 0 0 0-.065-.018m.348-.088-.002-.084-.003-.077c0-.023-.003-.047-.003-.063q.027.005.047.005c.02 0 .029-.003.047-.005q-.004.027-.003.063-.002.035-.002.077 0 .04-.003.084v.343q0 .042.003.083l.002.078.003.06q-.024-.004-.047-.003-.024 0-.047.003.004-.024.003-.06l.003-.078.002-.083zm.276-.115q0-.022.015-.036.015-.016.037-.016c.022 0 .026.005.036.016q.016.016.016.036a.05.05 0 0 1-.016.037q-.016.016-.036.015c-.02-.001-.026-.005-.037-.015a.05.05 0 0 1-.015-.037m.013.375q0-.047-.003-.099a1 1 0 0 0-.008-.096q.027.005.047.005c.02 0 .029-.003.047-.005l-.008.096-.003.099v.109q0 .047.003.098c.003.051.003.065.008.094q-.024-.004-.047-.003-.024 0-.047.003l.008-.094q.004-.052.003-.098zm.236-.034q0-.044.016-.076t.044-.052c.028-.02.039-.023.062-.031a.2.2 0 0 1 .076-.01h.039q.02.002.046.002.025.004.042.003h.031l.083-.005q0 .006-.002.01v.021q0 .006.002.01l-.059-.005a.3.3 0 0 0-.058-.002l-.002.002a.14.14 0 0 1 .052.055.15.15 0 0 1 .021.075q0 .079-.052.122c-.052.043-.083.044-.141.044H8.88q-.018 0-.034.013c-.016.013-.016.021-.015.034q0 .027.013.039t.049.013q.028 0 .057.003.029 0 .057.002.048.001.081.011a.2.2 0 0 1 .055.028q.02.019.031.042c.011.023.01.031.01.049a.2.2 0 0 1-.013.073.2.2 0 0 1-.044.068q-.03.03-.075.049a.24.24 0 0 1-.112.021q-.101 0-.159-.039c-.058-.039-.057-.062-.057-.109q0-.026.011-.05.011-.023.026-.041c.015-.018.023-.021.036-.029a.1.1 0 0 1 .041-.015v-.003a.08.08 0 0 1-.049-.031.1.1 0 0 1-.015-.052q0-.02.007-.031a.1.1 0 0 1 .019-.026l.023-.019.026-.01v-.003a.2.2 0 0 1-.075-.059c-.029-.021-.036-.055-.037-.091m.369.444q0-.062-.036-.088a.2.2 0 0 0-.12-.026.2.2 0 0 0-.119.026q-.043.026-.042.091 0 .035.013.06a.1.1 0 0 0 .031.041q.019.015.05.023a.23.23 0 0 0 .122 0 .14.14 0 0 0 .054-.025.1.1 0 0 0 .039-.042q.006-.024.008-.06m-.057-.449q0-.067-.031-.099a.1.1 0 0 0-.083-.034.11.11 0 0 0-.089.039.16.16 0 0 0-.031.101q0 .066.029.104.028.039.088.039a.11.11 0 0 0 .088-.044.1.1 0 0 0 .021-.047.3.3 0 0 0 .008-.059m.242-.221q0-.042-.003-.084l-.003-.077c0-.023-.003-.047-.002-.063q.027.005.047.005c.02 0 .029-.003.046-.005q-.004.027-.002.063c.002.036-.003.049-.003.075s0 .055-.002.08v.154h.002a.2.2 0 0 1 .07-.07.2.2 0 0 1 .097-.024q.028 0 .059.008c.021.005.036.016.055.029a.14.14 0 0 1 .039.054q.015.034.016.089 0 .044-.003.091-.004.047-.003.101v.101q0 .016.003.031a.2.2 0 0 0-.044-.002q-.023 0-.042.002l.005-.111.003-.117v-.063q0-.078-.031-.117a.1.1 0 0 0-.083-.039q-.072 0-.107.045a.2.2 0 0 0-.034.124v.068q0 .039.003.078l.002.075.003.06q-.024-.004-.047-.003-.023 0-.047.003.004-.024.003-.06l.003-.078.002-.083v-.265zm.665-.073-.005.078-.003.075h.042l.067-.002v.041l-.028-.002h-.083q-.002.004-.003.033l-.003.071-.002.083v.078q0 .029.002.057.001.028.011.049a.1.1 0 0 0 .026.037q.015.012.047.013.008 0 .023-.003l.023-.005v.026l-.039.008a.2.2 0 0 1-.041.005q-.065 0-.096-.031t-.032-.094v-.06l.003-.072.003-.086v-.107h-.052q-.008 0-.021.003l.002-.013v-.024q0-.006-.002-.01l.067.003-.002-.052q0-.031-.003-.065l.086-.037h.013zm.359-.081a.1.1 0 0 0-.039.008.06.06 0 0 0-.026.024.1.1 0 0 0-.016.033q-.005.02-.005.039c0 .019 0 .031.002.055l.008.067h.109l-.002.011v.021q0 .006.002.01l-.054-.003h-.055v.227l.003.226q-.012-.004-.024-.003h-.02q-.022 0-.047.003a3 3 0 0 0 .008-.224v-.226h-.037l-.036.003q0-.005.003-.011v-.021q0-.006-.003-.01h.075q0-.031.006-.065.007-.035.018-.07.012-.034.028-.065a.2.2 0 0 1 .037-.052q.02-.019.046-.034a.1.1 0 0 1 .06-.015q.013 0 .021.002l-.003.042-.002.041-.005.003a.1.1 0 0 0-.052-.016m.124.556q0-.055.003-.093c.003-.038.003-.052.003-.078v-.078q0-.043-.003-.086l.044.005q.017-.001.042-.005l-.008.138q-.004.074-.003.153 0 .053.011.083a.1.1 0 0 0 .023.045.1.1 0 0 0 .037.028.1.1 0 0 0 .052.011q.045.001.072-.019a.13.13 0 0 0 .042-.046l.01-.032q.004-.011.008-.033.004-.021.003-.057v-.229q0-.02-.003-.039a.04.04 0 0 0 .021.002l.021.003q.013 0 .02-.003.01-.002.021-.002a3 3 0 0 0-.005.156v.249l.003.086q-.021-.004-.042-.003c-.021.001-.026 0-.042.003q0-.008.003-.021v-.065h-.003a.18.18 0 0 1-.163.096q-.081-.001-.128-.044c-.047-.043-.039-.07-.039-.125m.606-.402q0-.042-.003-.084l-.002-.077c0-.023-.003-.047-.003-.063q.027.005.047.005c.02 0 .029-.003.047-.005q-.004.027-.003.063l-.003.077-.002.084v.343q0 .042.002.083l.003.078.003.06q-.024-.004-.047-.003-.023 0-.047.003.004-.024.003-.06.002-.034.002-.078 0-.04.003-.083zm1.091-.019-.005-.135.026.003c.015.001.016 0 .026-.003s.018-.003.026-.003a2 2 0 0 0-.005.135q-.004.065-.003.136v.179q0 .07.003.135q-.024-.004-.052-.003c-.028.001-.034 0-.052.003q.005-.065.005-.13.004-.065.003-.135v-.094q-.055 0-.109-.002h-.218l-.11.002v.094q0 .07.003.135l.005.13q-.025-.004-.052-.003c-.027.001-.034 0-.052.003q.005-.065.005-.13.004-.065.003-.135v-.182q0-.07-.003-.135t-.005-.135l.026.002.026.003c.015.001.016 0 .026-.003s.018-.003.026-.002a2 2 0 0 0-.005.135q-.004.065-.003.135v.036l.11.003h.218l.109-.003v-.036zm.432-.08h-.057l-.06.002-.057.003-.05.005.006-.033q0-.011-.006-.032.07.004.135.003c.065-.001.088.003.136.003s.091 0 .135-.003l.135-.003-.005.034c0 .008.003.021.005.031l-.049-.005c-.026-.002-.036-.003-.058-.003s-.039-.003-.059-.002h-.058q-.004.106-.002.216v.179q0 .07.002.135l.006.13q-.024-.004-.052-.003c-.028.001-.034 0-.052.003q.005-.065.005-.13.004-.065.002-.135v-.182q0-.107-.002-.213m.579 0h-.057l-.06.002-.057.003-.049.005.005-.033-.005-.032q.07.004.135.003c.065-.001.088.003.135.003s.091 0 .135-.003l.135-.003-.005.034c0 .008.003.021.005.031l-.049-.005c-.026-.002-.036-.003-.057-.003s-.039-.003-.06-.002h-.057q-.004.106-.003.216v.179q0 .07.003.135l.005.13q-.024-.004-.052-.003c-.028.001-.034 0-.052.003q.005-.065.005-.13.004-.065.003-.135v-.182zm.437.213q0-.07-.003-.135t-.005-.135q.025.004.05.002c.025-.002.034.003.049.003h.031q.018 0 .037-.003c.019-.003.023 0 .033-.002h.068q.023.001.049.005a.1.1 0 0 1 .05.016q.024.012.044.031c.02.019.023.029.034.049a.2.2 0 0 1 .013.073q0 .07-.029.112a.25.25 0 0 1-.164.098l-.085.008h-.045l-.041-.002v.057q0 .07.002.135l.006.13q-.024-.004-.052-.003c-.028.001-.034 0-.052.003q.005-.065.005-.13.004-.065.002-.135v-.177zm.083.078a.4.4 0 0 0 .141 0q.035-.007.062-.026c.027-.019.034-.031.047-.052a.2.2 0 0 0 .018-.086q0-.045-.013-.073c-.013-.028-.021-.034-.034-.044a.14.14 0 0 0-.055-.021l-.072-.005h-.094zm.782-.078q0-.07-.002-.135l-.005-.135a.3.3 0 0 0 .059.002l.06.003a.3.3 0 0 0 .06-.003.4.4 0 0 1 .143.006q.039.009.07.028c.031.019.036.029.047.049a.2.2 0 0 1 .018.078q0 .05-.023.086c-.023.036-.034.044-.055.06a.4.4 0 0 1-.138.055l.034.044q.023.027.049.062t.058.07l.057.07q.026.034.052.063.024.029.039.041a.1.1 0 0 0-.031-.002h-.063q-.016 0-.031.002-.015-.023-.047-.065l-.07-.093-.078-.099q-.04-.05-.073-.083h-.044v.075q0 .07.003.135l.005.13q-.024-.004-.052-.002c-.028.002-.034 0-.052.002q.005-.065.005-.13.004-.065.003-.135v-.179zm.086.06.031.005h.039q.032 0 .068-.008c.036-.008.044-.013.065-.026a.2.2 0 0 0 .049-.049.14.14 0 0 0 .018-.078.14.14 0 0 0-.015-.068.1.1 0 0 0-.039-.041.2.2 0 0 0-.052-.021.3.3 0 0 0-.055-.005q-.036 0-.059.002l-.042.003-.005.114q-.004.055-.003.112zm.484.156q.001-.13.059-.2.062-.073.177-.073.054 0 .096.018.04.015.068.047a.2.2 0 0 1 .039.067.3.3 0 0 1 .013.084v.02q0 .01-.003.021-.055-.002-.112-.002h-.179l-.067.002v.029q0 .04.013.075c.013.035.021.044.033.06s.034.031.057.041q.033.015.078.016.021-.001.042-.005a.1.1 0 0 0 .042-.016l.039-.023a.1.1 0 0 0 .031-.029l.005.003-.005.052a.3.3 0 0 1-.078.041.3.3 0 0 1-.096.019.24.24 0 0 1-.102-.019.21.21 0 0 1-.132-.127.3.3 0 0 1-.018-.101m.241-.242a.1.1 0 0 0-.065.018q-.026.018-.044.044c-.018.026-.021.036-.026.058s-.01.042-.01.059l.067.003h.138l.068-.003a.4.4 0 0 0-.006-.059.2.2 0 0 0-.018-.058.1.1 0 0 0-.039-.044.13.13 0 0 0-.065-.018m.754.45v.075q0 .043.003.081c.003.038.003.052.002.078s.003.047.003.062q-.027-.005-.047-.005c-.02 0-.029.003-.047.005q.004-.027.003-.062c-.001-.035.003-.049.002-.078s0-.055.003-.081v-.153h-.003a.2.2 0 0 1-.075.085.2.2 0 0 1-.096.026q-.039 0-.078-.013a.15.15 0 0 1-.07-.041.2.2 0 0 1-.052-.078.3.3 0 0 1-.021-.12q0-.07.021-.117a.2.2 0 0 1 .052-.08.22.22 0 0 1 .148-.063q.07 0 .112.032a.2.2 0 0 1 .057.08h.002q0-.025-.002-.049l-.005-.052q.027.005.046.005c.019 0 .029-.003.047-.005q-.004.027-.002.065c.002.038-.003.052-.003.078q0 .042-.003.083v.242zm-.078-.234a.25.25 0 0 0-.034-.141.2.2 0 0 0-.047-.046.2.2 0 0 0-.067-.019.14.14 0 0 0-.102.047q-.022.025-.036.07c-.014.045-.013.068-.013.112q0 .044.008.083.01.038.026.065a.1.1 0 0 0 .044.044.13.13 0 0 0 .13-.005q.03-.02.049-.052c.019-.032.023-.047.032-.075a.3.3 0 0 0 .01-.083m.223.098q0-.055.003-.093c.003-.038.003-.052.003-.078v-.078q0-.043-.003-.086l.044.005q.017-.001.042-.005l-.008.138q-.004.074-.003.153 0 .053.011.083a.1.1 0 0 0 .023.045.1.1 0 0 0 .037.028.1.1 0 0 0 .052.011q.045.001.072-.019a.13.13 0 0 0 .042-.046l.01-.032q.004-.011.008-.033.004-.021.003-.057v-.229q0-.02-.003-.039.013.004.021.002c.008-.002.013.003.021.003q.013 0 .02-.003.01-.002.021-.002a3 3 0 0 0-.005.156v.249l.003.086q-.021-.004-.042-.003c-.021.001-.026 0-.041.003l.002-.021c.002-.013 0-.013 0-.021v-.044h-.002a.17.17 0 0 1-.071.073.2.2 0 0 1-.093.023.2.2 0 0 1-.128-.044.2.2 0 0 1-.039-.125m.536-.072q0-.13.06-.2a.22.22 0 0 1 .176-.073q.054 0 .096.018.04.015.068.047a.2.2 0 0 1 .039.067.3.3 0 0 1 .013.084v.02q0 .01-.003.021l-.111-.002h-.18q-.033.002-.067.002v.029q0 .04.013.075c.013.035.021.044.034.06s.034.031.057.041q.033.015.078.016.021-.001.041-.005a.1.1 0 0 0 .042-.016l.039-.023a.1.1 0 0 0 .031-.029l.005.003-.005.052a.3.3 0 0 1-.078.041.3.3 0 0 1-.096.019.2.2 0 0 1-.101-.019.21.21 0 0 1-.133-.127.3.3 0 0 1-.018-.101m.242-.242a.1.1 0 0 0-.065.018q-.026.018-.045.044c-.019.026-.021.036-.026.058s-.01.042-.01.059l.068.003h.137l.068-.003q-.001-.028-.005-.059a.2.2 0 0 0-.019-.058.1.1 0 0 0-.039-.044.13.13 0 0 0-.064-.018m.332.398q.011.012.026.023t.034.018a.1.1 0 0 0 .042.008q.02-.001.039-.005a.1.1 0 0 0 .031-.018q.014-.012.023-.029a.1.1 0 0 0 .008-.042q0-.033-.018-.049t-.044-.029c-.026-.013-.039-.013-.06-.018a.2.2 0 0 1-.06-.023.1.1 0 0 1-.044-.039q-.019-.024-.018-.068 0-.035.01-.062a.13.13 0 0 1 .034-.049.2.2 0 0 1 .054-.034.2.2 0 0 1 .138-.003q.027.011.049.018l-.015.039-.011.037h-.013q-.008-.024-.031-.044c-.023-.02-.036-.021-.059-.021q-.015.001-.032.005a.1.1 0 0 0-.028.016q-.013.011-.021.026a.1.1 0 0 0-.008.039q0 .034.018.052a.1.1 0 0 0 .045.028q.028.011.059.018a.4.4 0 0 1 .06.021.1.1 0 0 1 .044.039q.019.024.018.068a.2.2 0 0 1-.013.059.2.2 0 0 1-.036.052.15.15 0 0 1-.06.037.2.2 0 0 1-.078.013q-.048 0-.08-.011c-.032-.011-.039-.013-.055-.02q.006-.013.013-.037a.1.1 0 0 0 .008-.039h.013q.007.012.018.024m.489-.559-.005.078-.003.075h.042l.067-.002v.041l-.028-.002h-.084q-.002.004-.002.033l-.003.071-.002.083c-.002.043 0 .055 0 .078q0 .029.002.057.001.028.011.049a.1.1 0 0 0 .026.037q.016.012.046.013l.024-.003.023-.005v.026l-.039.008a.2.2 0 0 1-.041.005q-.065 0-.097-.031-.031-.031-.031-.094v-.06l.003-.072c.001-.039.003-.055.002-.086v-.107h-.052q-.009 0-.02.003l.002-.013v-.024q0-.006-.002-.01l.067.003-.002-.052q0-.031-.003-.065l.086-.037h.013zm.205.559q.011.012.026.023t.034.018a.1.1 0 0 0 .041.008q.02-.001.039-.005a.1.1 0 0 0 .032-.018q.014-.012.023-.029a.1.1 0 0 0 .008-.042q0-.033-.018-.049t-.045-.029c-.027-.013-.039-.013-.059-.018a.2.2 0 0 1-.06-.023.1.1 0 0 1-.044-.039q-.019-.024-.019-.068 0-.035.011-.062a.13.13 0 0 1 .034-.049.2.2 0 0 1 .054-.034.2.2 0 0 1 .138-.003q.027.011.049.018l-.015.039-.011.037h-.013q-.008-.024-.031-.044c-.023-.02-.036-.021-.06-.021q-.016.001-.031.005a.1.1 0 0 0-.028.016q-.013.011-.021.026a.1.1 0 0 0-.008.039q0 .034.018.052a.1.1 0 0 0 .044.028q.028.011.06.018a.4.4 0 0 1 .06.021.1.1 0 0 1 .044.039q.019.024.018.068a.2.2 0 0 1-.013.059.2.2 0 0 1-.036.052.15.15 0 0 1-.06.037.2.2 0 0 1-.078.013q-.048 0-.08-.011c-.032-.011-.039-.013-.055-.02q.006-.013.013-.037a.1.1 0 0 0 .008-.039h.013q.007.012.018.024M13.064 8.685a.164.164 0 1 0 .328 0 .164.164 0 1 0-.328 0m-1.377.912a.164.164 0 1 0 .327 0 .164.164 0 1 0-.327 0m2.957-1.369a.286.286 0 1 0 .572 0 .286.286 0 1 0-.572 0m-3.292-2.963a.088.088 0 1 0 .176 0 .088.088 0 1 0-.176 0m1.749 4.018a.062.062 0 1 0 .124 0 .062.062 0 1 0-.124 0m-2.641.642a.034.034 0 1 0 .068 0 .034.034 0 1 0-.068 0m5.143-6.209a.034.034 0 1 0 .068 0 .034.034 0 1 0-.068 0m-1.876 3.29a.068.068 0 1 0 .135 0 .068.068 0 1 0-.135 0m-2.404.767a.065.065 0 1 0 .13 0 .065.065 0 1 0-.13 0m.351 8.412a.177.177 0 1 0 .353 0 .177.177 0 1 0-.353 0m2.31.767a.307.307 0 1 0 .614 0 .307.307 0 1 0-.614 0m-3.755-.579a.096.096 0 1 0 .192 0 .096.096 0 1 0-.192 0m-2.495.473a.065.065 0 1 0 .13 0 .065.065 0 1 0-.13 0m7.235-1.024a.036.036 0 1 0 .073 0 .036.036 0 1 0-.073 0m-1.988.792a.065.065 0 1 0 .13 0 .065.065 0 1 0-.13 0M15.52 6.24a.049.049 0 1 0 .099 0 .049.049 0 1 0-.099 0m4.826 4.498a.036.036 0 1 0 .073 0 .036.036 0 1 0-.073 0M3.409 13.041a.177.177 0 1 0 .354 0 .177.177 0 1 0-.354 0"/></svg>