<svg role="img" viewBox="0 0 24 24" xmlns="http://www.w3.org/2000/svg"><title>Lamborghini</title><path d="M22.193 13.826a4.69 4.69 0 0 1-.288.136c-.408.182-.774.152-1.182-.088-.293-.172-.565-.552-.671-.685-.085-.105-.186-.243-.332-.373-.271-.244-.638-.404-1.272-.393a.301.301 0 0 1-.147-.034c-.64-.34-1.745-.752-2.8-.7-.21.015-.24-.137-.308-.307-.192-.513-.332-.75-.462-.937-.166-.236-.24-.238-.377-.277-.153-.043-.319-.059-.42-.236-.013-.022-.063-.116-.006-.182.14-.164.529-.388-.055-.718-.356-.2-.198-.33-.138-.36a.615.615 0 0 1 .392-.043c.169.034.365.135.558.36.19.223.833 1.264 1.223 2.054.006.01.014.068.086.075.109.01.296.01.334.014.06.005.06-.044.055-.063-.554-1.838-1.19-4.125-2.296-5.716-.023-.046-.003-.093.066-.086.99.1 1.276 1.509 1.856 2.433.745 1.19 1.181.723 1.252-.079.05-.56-.098-1.273-.489-1.673-.093-.114-.257-.257-.326-.341-.025-.03-.028-.082.037-.098a.446.446 0 0 1 .119-.008c.457.035 1.092.405 1.36.817.547.846.506 1.3.43 1.6-.128.512-.367.807-.07 1.617.588 1.604.434 1.27.1 2.279-.03.076.018.134.084.128.77-.071 1.005.103 1.17.192.018.01.032.023.044.02.03-.01.04-.047.045-.097.063-.433-.027-.616-.126-.871-.058-.15-.123-.319-.144-.483a.798.798 0 0 1 .068-.488c.109-.27.173-.479.085-.884-.195-.855-.896-2.264-1.344-3.075a81.21 81.21 0 0 0-.391-.734c-.033-.058-.02-.129.005-.184.02-.045.054-.137.054-.137.107-.272.164-.48.196-.718.104-.767-.097-1.313-.652-1.77-.515-.424-1.433-.611-2.654-.542l-.258.014c-1.15.066-2.455.14-3.436.06-.95-.08-1.504-.23-1.696-.46a.331.331 0 0 1-.075-.261c.021-.207.146-.412.343-.563.17-.132.371-.202.513-.18.256.01.536.154.86.321.291.15.62.318 1.004.429.324.093.645.134.953.122.29-.01.575-.072.846-.18a.892.892 0 0 0 .232-.13c.019-.017.026-.05.004-.08-.014-.017-.03-.017-.09-.017a4.5 4.5 0 0 1-1.002-.119c-.255-.064-.277-.126-.274-.15.005-.054.14-.106.293-.113.753-.034 1.33.007 1.71.034a3.579 3.579 0 0 0 .487.016c.023-.002.03-.017.031-.023a.04.04 0 0 0-.01-.038c-.266-.22-1.128-.55-2.111-.724-1.582-.28-2.642-.05-3.253.192a3.09 3.09 0 0 0-.712.4c-.307.237-.478.496-.509.769-.04.365.224.837 1.722 1.01 1.585.184 3.066.158 4.373.135l.402-.007c.827-.012 1.528.188 1.829.523.346.386.366.902.279 1.227a1.183 1.183 0 0 1-.139.324c-.095.13-.199.168-.39.118-.612-.162-1.703-.521-2.232-.7-.472-.16-.844-.285-1.16-.362-.936-.23-1.229-.078-1.858.32-.151.096-.306.2-.484.322-.258.176-.55.375-.94.618a19.84 19.84 0 0 1-.869.495c-.33.183-.674.371-1.01.572-1.075.632-1.247 1.48-1.446 2.46-.141.696-.301 1.485-.833 2.284-.058.088-.519.647-.617.806-.364.585-.56 1.09-.483 1.94.058.635-.16 1.187-.37 1.722-.165.42-.32.818-.346 1.243-.02.264-.01.51-.001.747.015.395.02.788-.1 1.129-.092.261-.326.519-.417.772a3.845 3.845 0 0 0-.2 1.213c-.007.358-.273.621-.554.9-.248.246-.508.504-.603.838-.012.044-.02.078-.037.105-.024.04-.061.064-.11.1-.096.067-.21.156-.337.409-.106.213-.075.594.022.78.015.028.057.095.121.102.044.005.088-.018.13-.068 0 0 .276-.318.383-.414a.086.086 0 0 1 .108-.007c.03.023.037.06.018.101-.01.024-.176.32-.273.568l-.002.006c-.014.035-.03.08-.006.116.022.035.076.054.17.06L2.57 24c.51 0 .778-.135.916-.255a.343.343 0 0 0 .082-.123l.017-.038c.102-.274.17-.59.178-.826 0-.1.028-.128.097-.197.268-.27.269-.628.269-.974 0-.318 0-.646.21-.905.57-.638.865-1.384 1.152-2.104.295-.744.6-1.513 1.207-2.155.153-.157.303-.242.402-.226.048.007.086.038.114.092.13.24.09.563.053.875-.043.353-.084.687.104.905.124.162.158.332.097.494-.08.255-.323 1.032-.903 1.376a2.439 2.439 0 0 0-.214.163.405.405 0 0 0-.064.094c-.051.09-.114.204-.314.263a.963.963 0 0 0-.535.345c-.307.433-.293.97-.265 1.123a.51.51 0 0 0 .089.216c.034.047.075.076.117.082a.133.133 0 0 0 .1-.03c.034-.026.074-.072.124-.13.08-.092.178-.206.302-.297.04-.03.08-.022.102-.006.022.015.032.04.026.062a.85.85 0 0 1-.096.172c-.06.094-.133.21-.192.348-.014.03-.016.06-.005.084.016.04.058.055.07.06.37.117.92-.023 1.23-.312.154-.146.229-.338.229-.59a.35.35 0 0 1 .096-.228c.217-.186.307-.476.403-.783l.07-.223c.1-.29.229-.539.542-.813.406-.38.59-.738.706-.959.118-.237.144-.37.23-.508.17-.268.742-.318.953-.194.088.052.108.124.059.214-.033.058-.335.546-.477.88-.07.164-.227.225-.32.28-.568.332-.671.956-.688 1.212-.005.08.004.186.044.245a.14.14 0 0 0 .092.062.135.135 0 0 0 .105-.03c.033-.025.34-.335.377-.367.05-.044.095-.037.118-.017.024.022.034.064.002.11-.042.064-.254.383-.23.453.043.118.163.116.284.117.973-.083 1.316-.775 1.316-.775.024-.04.053-.093.038-.237-.028-.26-.09-1.16.431-1.72.155-.172.246-.056.28.02.064.138.157.377.21.496.112.254.189.442.318.693.219.424.547.483.954.432.525-.066.888-.024 1.24.01.3.026.467.046.687-.156.12-.11.35-.31.505-.53.098-.138.129-.226.104-.441-.073-1.082.49-2.022 1.504-2.514.152-.061.321-.042.424.096.228.338.757 1.202.757 1.935 0 .07-.027.146-.059.234-.072.2-.16.45.005.79.01.294-.099.524-.195.727-.137.289-.245.517.13.742.106.063.243.12.42.174.01.003.02.004.03.004.015 0 .03-.003.04-.01a.048.048 0 0 0 .024-.035c.01-.085.02-.38.036-.449.006-.028.02-.06.052-.063.03-.001.06.023.068.046.03.071.106.359.127.405.018.039.04.066.068.074.15.043.356-.215.433-.348.132-.274.078-.682-.138-1.036a.304.304 0 0 1-.037-.158.975.975 0 0 0-.04-.66 1.451 1.451 0 0 1-.087-.345c-.058-.509.253-2.12.283-2.285.052-.3.096-.513.115-.733a.855.855 0 0 0-.217-.62c-.135-.146-.299-.279-.457-.407-.14-.113-.271-.22-.38-.33a.87.87 0 0 1-.228-.514c.001-.02.005-.032.012-.039.005-.005.014-.006.027-.006.24.018.432.177.676.378.217.18.464.385.81.539.683.303 1.331.258 1.983-.137.277-.197.362-.365.376-.389.017-.029-.008-.114-.087-.069ZM7.055 11.124c.04-.315.272-.65.374-1.044.145-.445.186-1.22.265-1.836.039-.307.156-.437.378-.464.146-.013.298.114.377.547.273 1.775.805 2.02 1.115 2.49a.328.328 0 0 1 .016.027c.08.147.105.284-.02.384-.073.058-.316.146-.728-.103-.495-.299-.57-.62-1.391.036 0 0-.11.086-.215.11-.09.02-.188-.015-.171-.147Zm4.298 6.51c-.03.019-.063.006-.111-.025-.326-.208-1.23-.373-1.993-.067-.785.315-1.504.759-1.552-.018-.01-.688.137-.987-.102-1.397l-.02-.03c-.022-.033.003-.04.011-.04 1.103-.087 1.397-.431 1.466-.552.015-.026-.005-.055-.033-.058-.253-.028-1.516-.066-2.024.007-.893.13-1.493 1.475-1.61 1.602-.133.147-.302.034-.302-.1 0-.224.132-1.313.22-1.691.14-.598.332-1.042.915-1.132.409-.063 1.412-.17 1.343-.44a2.388 2.388 0 0 1-.086-.5c-.001-.133.067-.16.201-.13.1.022.233.081.403.121 1.262.297 1.909.06 2.66-.273.022-.01.302-.136.319-.145a.167.167 0 0 1 .23.222c-.04.086-.094.125-.21.237-.248.239-1.174.998-.616 2.282.435 1.002.562 1.26.87 1.944.05.11.058.16.02.183Zm2.346 1.733c-.061.095-.156.163-.34.163-.227 0-.388-.068-.484-.17a.758.758 0 0 1-.174-.687c.031-.12.103-.198.18-.22.033-.012.052-.01.068.012.035.055.157.25.185.29a.342.342 0 0 0 .142.108c.092.037.21.069.272.097.19.082.234.277.151.407Zm3.639-3.54c-.024.038-.046.044-.078.059-1.143.432-2.052 1.6-1.887 3.002a.338.338 0 0 1-.088.245s-.24.243-.391.347c-.052.036-.11.065-.245.056l-.51-.032c-.08-.014-.045-.083-.039-.098a.34.34 0 0 0 .016-.051c.043-.21.012-.505-.284-.616-.042-.024-.015-.063-.01-.075.127-.313.285-.7.413-1.243a1.007 1.007 0 0 0-.182-.906l-.18-.238c-.05-.058-.037-.12.035-.145l.254-.065c.062-.022.056-.116-.004-.13l-.13-.043a.61.61 0 0 1-.255-.226.57.57 0 0 1-.1-.226l-.016-.074c-.001-.038-.06-.038-.086-.012-.2.2-.262.509-.115.754.205.343.197.31.38.57.06.085.097.155.117.24.028.117.02.413-.059.625l-.208.632c-.125.283-.265.215-.345.162-.102-.068-.198-.245-.25-.432 0 0-.143-.528-.138-1.229-.01-.084-.067-.223-.25-.102l-.49.406c-.07.037-.19.017-.165-.142 0 0 .352-1.57.73-2.453.285-.721-.032-1.127-.409-1.574-.616-.786-.755-1.845.681-1.265.385.176.523-.052.999-.093.34-.03.453.108.482.167.026.052.035.11.038.14.001.013-.003.022-.017.022-.805.046-1.766.714-1.024 1.763.728 1.028 2.733 1.374 3.628.394.012-.013.015-.043-.003-.058a.044.044 0 0 0-.046-.007 2.9 2.9 0 0 1-.557.16c-.427.07-1.333.02-1.762-.47-.245-.28-.238-.602.176-.651.23-.019.344.024.443.025.259-.003.312-.261.259-.378a.976.976 0 0 0-.292-.365c-.134-.095-.062-.195.025-.192.83.047 1.622.19 1.92 1.186.012.037.032.163.064.21.064.095.176.166.299.274.3.262.57.73-.344 2.151Zm1.077-.616c.145-.305.343-.1.437.234.12.424.137 1.107.087 1.46-.066.46-.282.367-.398.204-.182-.258-.38-.602-.517-.838a.294.294 0 0 1-.012-.022c-.064-.132-.074-.237-.007-.336.07-.106.343-.562.41-.702Z"/></svg>