<svg role="img" viewBox="0 0 24 24" xmlns="http://www.w3.org/2000/svg"><title>Lamborghini icon</title><path d="M11.865 0a31.57 31.57 0 00-3.712.245l-.272.037-.338.046c-.073.009-.18.026-.236.038-.056.012-.15.028-.206.036a7.727 7.727 0 00-.265.043l-.265.048c-.193.034-.763.15-1.051.215-1.064.238-2.245.594-2.73.824-.343.163-.772.506-.93.743a2.157 2.157 0 00-.287.777c-.029.158-.032.23-.034.832-.003.728.009 1.223.044 1.865.166 3.019.696 5.54 1.686 8a20.798 20.798 0 002.635 4.81c1 1.363 2.12 2.572 3.395 3.67.769.66 1.737 1.405 2.076 1.595.386.217.82.234 1.19.047.3-.153 1.382-.974 2.113-1.604a24.361 24.361 0 003.119-3.27c.51-.645 1.541-2.254 1.977-3.085 1.622-3.09 2.549-6.883 2.651-10.812.03-.642.045-1.224.03-1.529a4.107 4.107 0 00-.017-.228l.001-.397-.165-.343a1.683 1.683 0 00-.383-.533c-.196-.205-.372-.321-.783-.519-.997-.48-2.338-.858-3.958-1.118a25.348 25.348 0 00-1.552-.216l-.404-.048a7.686 7.686 0 00-.41-.037 41.829 41.829 0 00-1.988-.12A22.85 22.85 0 0011.864 0zm.167.83c3.34-.007 6.128.436 8.399 1.332.84.33.99.433 1.16.792.128.27.13.31.094 1.691-.197 7.59-2.8 13.219-8.113 17.541-.644.525-1.316 1.003-1.484 1.056-.083.026-.235-.033-.483-.187-.492-.305-1.718-1.303-2.54-2.068-1.352-1.255-2.707-2.937-3.63-4.506-1.97-3.344-2.993-7.244-3.114-11.866-.035-1.35-.032-1.392.096-1.662.17-.357.322-.462 1.13-.777C5.777 1.303 8.132.9 11.357.837c.228-.004.453-.007.675-.007zm-.96.71c-.013 0-.024.002-.037.003-.197.029-.439.208-.556.42-.102.186-.159.455-.173.74v.02c-.002.024-.002.048-.002.073 0 .072.001.149.004.23.023.372.114.726.267.911.123.15.188.176.421.176.155 0 .334-.04.407-.093.073-.052.19-.207.26-.345.184-.36.188-1.265.007-1.668-.098-.218-.268-.384-.443-.444a.66.66 0 00-.156-.024zm1.113.058l-.017 1.233a62.047 62.047 0 00-.01 1.177c.007.026.013.05.021.068.025.004.088.008.172.008h.182v-.529c0-.495.006-.526.12-.51.019-.019.044-.008.074.033.067.056.13.197.239.511l.127.367c.046.095.084.137.134.157h.36l-.193-.564-.193-.565.158-.151c.193-.186.253-.456.17-.767-.091-.347-.322-.467-.891-.468zm2.376.06c-.505 0-.733.383-.73 1.228 0 .514.072.854.224 1.062a.889.889 0 00.081.091v.001c.223.197.638.221.904.043.153-.102.251-.414.255-.805a1.177 1.177 0 00-.02-.253c-.036-.089-.134-.1-.405-.127l-.231-.023a.07.07 0 00-.024.02.078.078 0 00-.01.017l-.004.01a.744.744 0 00-.01.094V3.068c0 .099.008.152.035.18l.007.007.004.002c.022.013.054.017.1.017.12 0 .147.03.147.154 0 .355-.28.512-.49.276-.288-.324-.223-1.56.087-1.66.13-.042.345.115.345.251 0 .052.072.08.205.08.234 0 .26-.079.118-.358a.605.605 0 00-.588-.36zm-5.199.038a2.322 2.322 0 00-.327.014l-.353.038-.016 1.249-.013 1.06v.188l.425-.041c.235-.024.49-.074.569-.111.241-.118.378-.366.383-.695.003-.23-.025-.329-.123-.429-.126-.128-.126-.13-.015-.316a.692.692 0 00.105-.432.75.75 0 00-.08-.265c-.084-.163-.264-.249-.555-.26zm6.287.074v1.285c0 .822 0 1.123.073 1.234l.132.015.16.02c.024-.032.038-.096.046-.227v-.325c0-.266-.003-.412.029-.487v-.04l.024.002c.053-.053.16-.03.374.006l.22.038v.556c0 .48.014.561.103.585.26.069.253.1.236-1.202l-.016-1.243-.161-.019-.162-.019v.968l-.25-.036c-.337-.048-.387-.048-.395-.337a4.277 4.277 0 01-.014-.249l-.014-.391c-.011-.046-.027-.067-.047-.067-.04 0-.133-.017-.206-.037l-.096-.026-.007-.001zm-7.437.035l-.172.02c-.196.024-.203.035-.356.542-.085.285-.19.626-.232.758l-.077.24-.191-.629c-.105-.346-.212-.652-.238-.68-.025-.028-.128-.033-.228-.01l-.137.03c-.016.042-.033.342-.045.753v.48c0 1.166.005 1.224.113 1.224a.64.64 0 00.19-.03c.058-.023.074-.14.06-.437a6.524 6.524 0 010-.643c.018-.22.036-.188.248.446l.229.685.212-.768.212-.767.005.207.012-.04.003.24a.26.26 0 010 .05l.003.314.002.135c.013.353.034.43.1.404a.672.672 0 01.203-.036c.108 0 .113-.058.113-1.246v-.31c-.01-.493-.022-.892-.03-.932zm4.32.137l.249.033c.352.049.5.296.325.541a.216.216 0 01-.06.05l-.002.002c-.134.083-.406.136-.467.073-.024-.024-.044-.192-.044-.372zm-1.46.025c.082.004.162.07.226.2.132.268.122 1.21-.016 1.425-.066.103-.142.155-.218.155a.08.08 0 01-.023-.002h-.009l-.003-.002c-.065-.013-.128-.063-.185-.15-.062-.097-.095-.25-.112-.514a2.404 2.404 0 01-.01-.187v-.003c-.015-.464 0-.571.105-.74.076-.125.161-.185.244-.182zm-2.008.11h.194c.235 0 .335.09.335.304 0 .19-.08.265-.338.315l-.19.037v-.328zm8.514.012c-.011 0-.018 0-.02.003-.004.005-.015.271-.028.613v1.88l.162.025c.089.013.181.029.206.033.024.005.044-.54.044-1.21v-.005c0-.673-.02-1.235-.044-1.25a1.238 1.238 0 00-.206-.064l-.1-.024-.014-.001zm-11.996.21a.698.698 0 00-.137.025c-.18.05-.182.058-.4 1.025-.12.536-.256 1.13-.3 1.322l-.081.348.186-.04a1.36 1.36 0 00.224-.063c.02-.012.055-.17.078-.352.045-.37.041-.364.334-.42l.213-.041.07.302c.07.296.076.301.258.266a.944.944 0 00.21-.057c.03-.025-.528-2.253-.577-2.304-.01-.01-.039-.014-.078-.011zm12.771.018v1.189c0 .47.01.873.023 1.097.012.119.028.17.05.17.041 0 .133.017.205.037.094.025.12.025.134-.259v-.358c0-.255.01-.466.024-.573l.005-.234.322.817c.176.45.362.842.411.871.234.14.24.106.224-1.18l-.016-1.24-.162-.043-.162-.044v.668c-.002.767-.008.764-.36-.14-.258-.662-.341-.778-.562-.778zm1.902.539c-.011 0-.02.562-.02 1.249v1.249l.19.062.192.064.016-1.208c.008-.684-.005-1.262-.029-1.3l-.143-.05a1.991 1.991 0 00-.206-.066zm-16.538.01c-.036.01-.095.029-.17.055l-.186.066v.31l.017.988c.008.47.021.844.047 1.182.011.004.024.001.04-.005a42.7 42.7 0 01.587-.222c.456-.169.485-.19.485-.354 0-.095-.009-.174-.02-.174-.011 0-.174.054-.362.12a5.96 5.96 0 01-.362.12c-.011 0-.02-.472-.02-1.048 0-.18-.002-.313-.004-.461-.015-.306-.035-.531-.052-.577zm5.59.196c.263.01.427.297.279.568a.453.453 0 01-.05.072c-.054.06-.126.088-.243.1a.343.343 0 01-.094.008l-.135.011v-.356c0-.311.015-.36.124-.389a.406.406 0 01.119-.014zm-3.852.003l.078.322c.047.197.06.281.036.33a.045.045 0 01-.013.02.123.123 0 01-.027.023c-.141.091-.238.063-.2-.06.02-.062.056-.23.08-.374zm6.879 1.66c-.391.01-.744.09-1.014.234-.111.064-.217.144-.306.228-.178.188-.23.383-.153.523.058.06.14.122.225.172.275.118.766.162 2.042.202 1.368.044 1.532.06 1.77.177.292.145.419.333.41.61-.005.217-.14.447-.268.474l-.011.013-.073-.015c-.278-.024-.966-.203-1.467-.385a6.823 6.823 0 00-.594-.19.572.572 0 00-.352.08c-.127.08-.3.22-.571.453-.22.189-.61.454-.867.59-.834.443-1.091.794-1.207 1.649-.063.463-.14.648-.499 1.187-.298.448-.508 1.05-.51 1.457 0 .197-.07.511-.184.839-.15.433-.184.627-.195 1.122-.012.514-.035.64-.163.879-.093.172-.166.43-.192.674-.037.36-.067.426-.33.74-.159.188-.289.375-.289.415 0 .022-.026.071-.064.128-.007.038-.026.065-.048.068a1.64 1.64 0 01-.06.076 1.369 1.369 0 01-.07.091c-.01.01-.017.02-.025.031-.162.228-.232.458-.152.54.05.05.09.033.158-.065.051-.076.094-.116.123-.126l.03-.037-.006.039c.023.014.024.07-.003.168-.034.12-.028.186.019.207.088.039.422-.014.597-.095.092-.043.16-.153.21-.34.04-.153.114-.327.164-.386.055-.066.101-.265.116-.506.004-.062.009-.114.014-.161a.606.606 0 01.044-.216c.035-.097.092-.182.193-.31.128-.167.266-.438.32-.633.053-.188.137-.423.188-.522.377-.74.62-1.168.663-1.168.13 0 .234.284.234.64 0 .28.024.386.094.426a.379.379 0 01.022.014c.022.002.033.01.032.03.022.033.007.078-.045.184a1.978 1.978 0 00-.128.35c-.057.24-.245.497-.442.6-.09.048-.286.208-.436.357-.216.214-.273.31-.272.467.001.264.086.402.185.3.118-.12.172-.085.13.085-.022.092-.028.13.01.138h.036c.027-.002.063-.009.112-.019.243-.05.463-.192.504-.326.017-.056.054-.142.082-.191.029-.05.137-.274.242-.5.13-.28.273-.478.453-.628.144-.12.3-.313.348-.428.139-.338.542-.627.543-.39v.001c0 .141-.228.565-.394.734-.209.213-.37.499-.37.657 0 .066.019.11.046.126a.17.17 0 00.034.006c.022-.005.045-.022.067-.057.027-.046.056-.063.078-.058l.008-.002c.027 0 .036.033.026.075a.236.236 0 01-.007.045.344.344 0 00-.007.033.21.21 0 00.045.077c.025.007.06.01.112.01.302 0 .587-.174.63-.385.021-.101.09-.27.152-.375.074-.124.1-.242.076-.341-.04-.161.068-.577.15-.577.06 0 .274.447.328.69a.823.823 0 00.156.308c.108.121.155.128.683.098.547-.031.573-.04.715-.217.106-.134.156-.285.18-.547.042-.462.242-.776.7-1.104l.342-.244.084.134c.047.073.147.289.223.479.128.316.133.368.065.64-.041.164-.057.354-.036.423.022.07-.007.256-.065.42l-.046.13c-.003.017-.005.041-.008.054a.895.895 0 00-.014.11.324.324 0 00.022.065l.08.088c.158.17.267.192.317.06.017-.045.044-.072.07-.082l.015-.037.012.033c.032.003.058.033.058.092 0 .127.115.08.248-.1.102-.14.103-.165.016-.416-.052-.148-.081-.315-.067-.371.014-.057 0-.219-.032-.36a2.63 2.63 0 01.011-1.095c.057-.278.05-.339-.083-.63-.081-.177-.136-.334-.123-.347.014-.014.125.015.248.064.57.228 1.015.176 1.286-.15l.137-.166a.12.12 0 00.003-.03l-.327-.028-.036-.004a.745.745 0 01-.104-.008.423.423 0 01-.082-.013c-.201-.033-.287-.105-.607-.39a2.64 2.64 0 01-.2-.19l-.059-.053-.001-.03c-.032-.064-.028-.127-.014-.235l-.015-.26-.011-.228a3.35 3.35 0 00-.04-.221c-.092-.422-.092-.483-.006-.784.014-.052.028-.107.04-.163l.009-.346c.003-.118.005-.21.004-.285a1.887 1.887 0 00-.305-.682 1.535 1.535 0 01-.238-.462 1.843 1.843 0 00-.208-.458 1.778 1.778 0 01-.071-.113c-.07-.08-.072-.116-.022-.222l.034-.09c.047-.115.086-.357.086-.538 0-.287-.025-.359-.191-.551a1.85 1.85 0 00-.162-.169 1.37 1.37 0 00-.171-.115l-.082-.047c-.289-.118-.758-.145-1.834-.177-1.986-.06-2.298-.136-1.99-.483.126-.142.332-.138.76.014.469.166 1.042.207 1.377.099.1-.032.164-.053.187-.07a.06.06 0 00.009-.016c-.008-.025-.13-.05-.402-.108-.08-.017-.147-.06-.147-.097 0-.012.007-.022.02-.029 0-.007.003-.011.016-.012a.273.273 0 01.11 0c.037.001.08.005.133.012.36.049.576.075.707.085.124.003.182-.009.188-.036-.014-.099-.522-.294-1.053-.404a3.533 3.533 0 00-.79-.074zm.213.491a.86.86 0 01.232.054l.254.092-.178.003h-.003l-.025.001h-.041a.494.494 0 01-.162-.022.313.313 0 01-.09-.03c-.103-.067-.08-.103.013-.098Z"/></svg>