<svg role="img" viewBox="0 0 24 24" xmlns="http://www.w3.org/2000/svg"><title>Lamborghini</title><path d="M18.815 12.655c-.02.01-.136.066-.168.079-.238.106-.451.088-.69-.051-.17-.101-.329-.322-.39-.4-.05-.061-.109-.141-.194-.217-.158-.142-.372-.236-.742-.23a.176.176 0 0 1-.085-.02c-.374-.197-1.018-.438-1.633-.407-.122.008-.14-.08-.18-.18a2.253 2.253 0 0 0-.27-.545c-.096-.138-.138-.14-.218-.162-.09-.025-.186-.035-.246-.138-.007-.013-.036-.067-.003-.106.082-.095.308-.226-.032-.418-.208-.118-.115-.193-.08-.21a.356.356 0 0 1 .228-.025c.098.02.213.078.325.21.111.13.486.736.714 1.197.002.006.008.04.05.043.063.007.172.007.194.009.035.003.036-.026.032-.037-.323-1.071-.694-2.405-1.339-3.332-.012-.027-.001-.055.04-.05.576.058.743.879 1.081 1.418.435.693.69.421.73-.046.029-.327-.057-.743-.285-.976-.054-.066-.15-.15-.19-.199-.014-.017-.016-.047.022-.057a.26.26 0 0 1 .069-.004c.267.02.637.236.792.476.32.493.296.758.252.933-.075.299-.214.47-.041.943.342.935.253.74.058 1.328-.017.045.01.078.049.075.449-.041.586.06.682.112.01.005.019.013.026.012.017-.006.023-.028.026-.057.037-.252-.016-.36-.073-.508-.034-.087-.072-.186-.084-.281a.465.465 0 0 1 .04-.285.752.752 0 0 0 .049-.515c-.114-.499-.522-1.32-.783-1.793-.022-.041-.2-.379-.229-.428-.02-.034-.01-.075.003-.107.012-.027.032-.08.032-.08.062-.159.095-.28.114-.419.06-.447-.057-.765-.38-1.032-.3-.247-.835-.356-1.547-.316l-.151.009c-.671.038-1.431.081-2.003.034-.554-.046-.877-.134-.989-.268a.193.193 0 0 1-.044-.152.492.492 0 0 1 .2-.328c.1-.077.216-.118.3-.105.149.006.312.09.501.187.17.087.362.186.585.25.189.054.376.078.556.071.169-.006.336-.042.493-.105a.522.522 0 0 0 .136-.076c.01-.01.014-.028.001-.046-.007-.01-.017-.01-.052-.01-.238 0-.45-.038-.584-.07-.149-.037-.161-.073-.16-.087.003-.032.082-.062.17-.066.44-.02.776.004.998.02.076.005.136.01.18.01h.104c.013-.002.017-.01.018-.014a.024.024 0 0 0-.006-.023c-.155-.127-.658-.32-1.231-.422-.922-.163-1.54-.029-1.896.112-.07.028-.253.108-.416.233-.178.139-.278.29-.296.449-.024.213.13.488 1.003.59.925.106 1.788.091 2.55.078l.234-.004c.483-.007.892.109 1.067.304a.793.793 0 0 1 .163.716.702.702 0 0 1-.08.19c-.056.074-.117.097-.229.068a26.255 26.255 0 0 1-1.301-.408 8.932 8.932 0 0 0-.676-.212c-.546-.134-.717-.045-1.083.187a9.477 9.477 0 0 0-.283.188c-.15.102-.321.219-.548.36a11.47 11.47 0 0 1-.506.289c-.194.106-.393.216-.589.333-.627.369-.727.863-.843 1.435-.083.406-.176.866-.486 1.331-.034.051-.303.378-.36.47-.212.341-.326.636-.281 1.13.033.371-.093.693-.216 1.005-.096.245-.187.477-.202.725a3.77 3.77 0 0 0 0 .436c.008.23.012.459-.059.658-.053.152-.19.302-.243.45-.068.19-.116.46-.116.707-.004.209-.16.362-.324.525-.144.143-.296.294-.35.488-.008.026-.013.046-.023.061-.014.023-.035.038-.064.058a.56.56 0 0 0-.196.24c-.062.124-.044.346.012.454.01.016.034.055.071.06.026.003.05-.01.076-.04 0 0 .16-.186.223-.241a.05.05 0 0 1 .063-.005c.018.014.022.036.01.06-.006.013-.102.186-.159.33l-.001.004c-.008.02-.017.046-.003.068.013.02.044.032.098.035l.07.002c.297 0 .453-.08.534-.149a.198.198 0 0 0 .047-.072l.01-.022c.06-.16.1-.344.104-.481 0-.059.017-.075.057-.115.156-.158.156-.367.157-.568 0-.186 0-.377.122-.528.332-.372.505-.807.672-1.227.172-.434.35-.882.704-1.256.089-.091.176-.142.234-.132.028.004.05.022.066.054.076.14.053.328.031.51-.025.206-.048.4.06.527.073.095.093.194.057.288-.046.15-.188.602-.526.802a1.47 1.47 0 0 0-.125.096c-.015.014-.025.033-.037.055a.277.277 0 0 1-.183.153.562.562 0 0 0-.312.201.967.967 0 0 0-.154.655.3.3 0 0 0 .051.126c.02.027.044.044.068.047.02.003.04-.003.059-.017a.58.58 0 0 0 .072-.076c.046-.053.104-.12.176-.173.023-.017.046-.013.06-.004.013.01.018.023.015.037-.007.023-.029.057-.056.1-.035.055-.078.123-.112.203-.008.018-.01.034-.003.049.01.023.034.032.041.035.215.068.537-.013.716-.182a.445.445 0 0 0 .134-.344c0-.037.018-.094.057-.133.126-.108.178-.277.234-.457a5.64 5.64 0 0 1 .042-.13c.057-.169.133-.314.315-.473.237-.222.344-.43.412-.56.069-.138.084-.215.134-.296.099-.156.432-.185.556-.113.05.03.062.072.033.124-.018.035-.194.32-.277.514-.04.095-.133.131-.187.163-.33.193-.391.558-.4.707-.004.046.001.108.025.143.013.02.033.033.053.036a.08.08 0 0 0 .062-.018c.019-.014.198-.195.22-.214.029-.025.055-.021.068-.01.014.013.02.037.002.065-.025.037-.149.223-.134.264.024.068.095.067.165.068.567-.048.768-.452.768-.452.013-.023.03-.055.021-.138-.016-.152-.052-.677.252-1.003.09-.1.143-.033.163.012.037.08.091.22.122.29.066.147.11.257.186.403.127.247.319.281.556.252.306-.039.518-.014.723.006.175.015.272.026.4-.091.07-.064.205-.182.295-.309.057-.081.075-.132.06-.257-.042-.631.286-1.18.877-1.466.089-.036.188-.025.248.056.132.197.44.7.44 1.128a.43.43 0 0 1-.033.136c-.042.117-.094.263.003.46.006.172-.058.306-.114.425-.08.168-.143.301.075.432a1.111 1.111 0 0 0 .263.104.042.042 0 0 0 .024-.006.028.028 0 0 0 .013-.02c.006-.05.012-.221.021-.262.004-.016.012-.035.03-.037.018 0 .036.014.04.027.018.042.062.21.074.236.01.023.023.039.04.044.088.025.207-.126.252-.203.078-.16.046-.398-.08-.605a.176.176 0 0 1-.021-.092c.046-.188.012-.283-.024-.384a.857.857 0 0 1-.05-.202c-.034-.296.147-1.235.164-1.332.03-.174.057-.299.068-.427a.499.499 0 0 0-.127-.362 2.66 2.66 0 0 0-.267-.237c-.08-.066-.158-.128-.22-.193a.508.508 0 0 1-.134-.299c0-.011.003-.019.007-.022.003-.003.008-.004.015-.004.14.01.252.103.394.22.127.105.271.225.473.314.398.177.776.15 1.156-.08.162-.114.211-.212.22-.226.01-.017-.005-.067-.051-.04m-8.827-1.576c.024-.183.16-.38.219-.609.084-.259.108-.711.154-1.07.023-.179.091-.255.22-.27.086-.008.175.066.22.319.16 1.034.47 1.178.65 1.451l.01.016c.046.086.06.166-.012.224-.042.034-.184.085-.424-.06-.29-.175-.333-.362-.811.021 0 0-.064.05-.126.063-.052.012-.11-.008-.1-.085m2.506 3.796c-.017.01-.036.003-.064-.015-.19-.121-.717-.217-1.162-.039-.458.184-.877.443-.905-.01-.006-.401.08-.576-.06-.815l-.012-.018c-.012-.019.003-.023.007-.023.643-.05.815-.251.855-.321.009-.016-.003-.032-.02-.034-.147-.017-.883-.039-1.18.004-.52.075-.87.86-.937.934-.079.086-.177.02-.177-.058 0-.13.077-.766.129-.987.08-.348.193-.607.533-.66.238-.036.823-.098.783-.256a1.389 1.389 0 0 1-.05-.292c-.001-.077.038-.093.117-.075.057.013.135.047.235.07.736.174 1.112.036 1.55-.159l.186-.084a.098.098 0 0 1 .135.13c-.023.049-.055.072-.122.137-.145.14-.685.582-.36 1.331.254.584.327.735.507 1.133.03.064.034.094.012.107m1.368 1.01c-.036.056-.09.095-.198.095-.132 0-.226-.04-.282-.099a.44.44 0 0 1-.101-.4c.017-.07.06-.116.104-.13.02-.006.03-.004.04.008.02.032.092.146.108.169.02.027.054.052.083.063.054.022.122.04.159.057.11.048.136.162.087.237m2.122-2.064c-.014.022-.027.026-.045.034-.667.253-1.197.933-1.1 1.75a.198.198 0 0 1-.052.144s-.14.141-.228.202c-.03.02-.064.038-.143.033l-.297-.02c-.046-.007-.026-.048-.023-.056a.244.244 0 0 0 .01-.03c.025-.123.007-.294-.166-.359-.024-.014-.009-.036-.006-.044.074-.182.166-.408.24-.724a.588.588 0 0 0-.105-.528l-.105-.14c-.03-.033-.022-.07.02-.084l.148-.038c.036-.013.033-.067-.002-.076l-.076-.024a.356.356 0 0 1-.149-.132.328.328 0 0 1-.058-.132l-.009-.043c0-.022-.035-.023-.05-.007a.361.361 0 0 0-.068.44c.12.2.115.18.222.331.036.05.057.09.068.14a.792.792 0 0 1-.034.365l-.12.368c-.074.165-.156.126-.202.095-.06-.04-.116-.143-.146-.252 0 0-.083-.308-.08-.717-.006-.049-.04-.13-.147-.059l-.285.237c-.04.021-.11.01-.096-.083 0 0 .205-.915.426-1.43.166-.42-.019-.658-.239-.918-.36-.458-.44-1.075.397-.738.225.103.305-.03.582-.054.2-.017.265.063.281.097.016.03.021.065.023.082 0 .008-.002.013-.01.013-.47.027-1.03.416-.597 1.028.424.6 1.593.8 2.115.23.007-.008.009-.025-.002-.034a.026.026 0 0 0-.027-.004c-.114.043-.219.076-.324.093-.25.041-.778.011-1.027-.274-.143-.163-.14-.351.102-.38.134-.01.2.014.258.015.151-.002.182-.153.15-.22a.564.564 0 0 0-.17-.213c-.077-.056-.035-.114.016-.112.483.027.945.11 1.12.691.006.022.018.095.036.123.038.055.103.097.174.16.176.152.333.425-.2 1.254m.628-.359c.085-.178.2-.058.255.136.07.248.08.646.05.851-.038.269-.164.215-.231.12-.107-.15-.222-.351-.302-.489l-.007-.012c-.037-.078-.043-.14-.004-.196.04-.062.2-.328.239-.41M12 .32c1.872 0 3.67.152 5.343.451 1.544.277 2.915.666 4.076 1.156.365.168.588.352.724.593.142.25.207.6.207 1.1 0 2.335-.226 4.531-.674 6.529a22.18 22.18 0 0 1-1.91 5.325c-1.552 3.007-3.807 5.575-6.894 7.85-.382.263-.61.356-.872.356s-.49-.094-.871-.357c-3.088-2.274-5.344-4.841-6.896-7.85a22.18 22.18 0 0 1-1.91-5.324C1.877 8.15 1.65 5.955 1.65 3.62c0-.5.065-.85.207-1.1.136-.242.36-.426.724-.594 1.16-.49 2.532-.879 4.076-1.155C8.33.472 10.127.32 12 .32M12 0C8.06 0 4.726.673 2.45 1.634c-.832.385-1.12.897-1.12 1.987 0 9.677 3.78 15.669 9.613 19.963.416.288.704.416 1.057.416s.64-.128 1.057-.416c5.832-4.294 9.614-10.286 9.614-19.963 0-1.09-.289-1.602-1.122-1.987C19.274.673 15.941 0 12 0M3.127 2.533v2.29c.22-.072.442-.139.665-.202l-.018.36a43.31 43.31 0 0 0-1.026.318V2.652l.379-.119Zm1.414 1.268.277-1.263.286 1.122-.563.141Zm.642.181.154.603.393-.088-.661-2.47-.476.119-.656 2.796.379-.106.146-.673.721-.18Zm1.106.405V2.582c0-.07 0-.159-.005-.238.018.088.035.158.053.22l.529 1.762.018-.004.54-1.943c.023-.08.045-.172.062-.247-.004.08-.008.172-.008.247v1.797l.352-.053V1.507l-.48.07-.4 1.467c-.018.066-.04.154-.062.247a1.611 1.611 0 0 0-.049-.225l-.396-1.334-.498.097v2.624l.344-.066Zm2.893-.423c.422-.048.66-.233.66-.634v-.343c0-.234-.097-.37-.304-.41.18-.074.26-.211.26-.41V1.9c0-.396-.242-.603-.735-.546l-.753.088v2.62l.872-.097Zm-.48-2.219.37-.04c.25-.026.33.058.33.238v.238c0 .185-.08.282-.33.304l-.37.035v-.775Zm0 1.083.418-.04c.247-.021.326.053.326.247v.295c0 .18-.088.273-.317.295l-.427.04v-.837Zm2.285 1.07c.493 0 .832-.317.832-.858V2.014c0-.546-.33-.832-.797-.832-.484 0-.823.338-.823.884v1.026c0 .529.317.806.788.806m-.396-.814V2.018c0-.304.185-.48.423-.48.242 0 .414.15.414.454v1.065c0 .317-.172.485-.428.485-.238 0-.409-.141-.409-.458m2.034.753V2.665l.265.01.448 1.188.423.022-.484-1.255c.25-.057.405-.229.405-.541v-.234c0-.4-.22-.603-.67-.625-.188-.009-.532-.013-.779-.013v2.615l.392.005Zm0-2.272.37.013c.203.009.29.101.29.277v.234c0 .176-.087.264-.303.255l-.357-.013v-.766Zm2.286 2.448c.484 0 .74-.295.74-.762v-.7l-.767-.088v.339l.375.04v.4c0 .29-.155.414-.38.414-.277 0-.48-.18-.48-.51V2.101c0-.286.164-.445.388-.445.3 0 .467.229.472.506l.391.049c-.013-.524-.343-.916-.898-.916-.41 0-.74.269-.74.797V3.11c0 .608.419.903.899.903m1.536.15V2.99l.722.12v1.17l.388.07V1.733l-.388-.066V2.78l-.722-.119V1.547l-.387-.062V4.11l.387.052Zm1.594-2.334.194.04.194.04v2.623l-.387-.088V1.83Zm1.19 2.888V3.04c0-.102-.005-.207-.005-.326.026.127.053.211.084.3l.682 1.906.405.114V2.42l-.321-.093v1.89a2.684 2.684 0 0 0-.08-.291l-.63-1.793-.462-.11v2.616l.326.08Zm1.637.463V2.555l.192.06.192.06v2.624l-.384-.12Z"/></svg>