<svg role="img" viewBox="0 0 24 24" xmlns="http://www.w3.org/2000/svg"><title>Land Rover icon</title><path d="M18.57 12.094h-1.226l-.024.074.051.047c.05.05.05.117.004.25l-.86 2.488h.782l.336-.984h.27l.292.984h.79l-.372-1.012c.215-.039.324-.097.434-.199.148-.133.25-.328.336-.601.12-.41.047-.641-.031-.762-.11-.164-.34-.285-.782-.285zm.07 1.035c-.046.121-.1.14-.171.168-.047.02-.149.016-.242.016h-.375l.199-.61h.457c.133 0 .191.094.191.172a.852.852 0 0 1-.058.254zm-7.492 1.453c.313-.332.598-1.238.594-1.71-.004-.481-.32-.825-.976-.825h-.086c-.54 0-.844.148-1.098.418-.316.332-.61 1.238-.602 1.71.004.481.32.825.977.825h.098c.535 0 .84-.148 1.093-.418zm-.335-1.012c-.098.282-.172.461-.286.582-.09.094-.207.16-.476.16-.211 0-.328-.09-.328-.253 0-.11.027-.27.14-.582.098-.282.172-.461.29-.582.09-.094.206-.16.48-.16.21 0 .332.09.332.253-.012.11-.04.27-.153.582zm-3.79-2.101l-1.945.008.852-2.485c.047-.133.047-.199-.004-.25l-.047-.066.023-.098h.973l-.742 2.203h1.129zm5.848-2.852l.746-.012-.969 2.833h-.718l-.367-1.848-.622 1.848h-.718l.847-2.465c.047-.133.047-.18-.004-.23l-.046-.067.023-.098h1.008l.297 1.574zm1.856 3.477l-1.57 2.86h-.97l-.117-2.49c-.007-.14-.027-.198-.101-.25l-.078-.05.035-.074h.87l.052 2.062h.023l1.043-2.062h.813zM5.53 13.828H3.637l.261-.687 2.153-.688-.094.23-1.488.489H5.78zm9.942-2.734c.316-.332.601-1.219.59-1.692-.008-.48-.32-.824-.977-.824h-1.14l-.024.098.047.062c.05.051.05.121.004.254l-.852 2.492h1.254c.54 0 .844-.12 1.098-.39zm-.809-1.813h.305c.21 0 .328.086.332.25 0 .106-.028.258-.137.567-.098.28-.172.433-.285.55-.09.094-.207.133-.48.133h-.25zm.672 4.453l-.164.563h1.117l-.23.656h-1.91l.851-2.48c.047-.13.047-.2-.004-.254l-.05-.063.027-.105h2.047l-.239.656h-1.086l-.156.469h1.004l-.215.562h-.992zm3.133-3.382l-2.153.714.094-.242 1.492-.512H16.59l.246-.703h1.898zM8.035 12.094H6.801l-.024.074.051.047c.055.05.055.117.008.25l-.86 2.488h.79l.336-.988.265.004.297.988h.79l-.372-1.012c.215-.039.324-.097.43-.195.152-.137.254-.328.34-.605.125-.41.046-.637-.032-.762-.117-.168-.343-.29-.785-.29zm.07 1.035c-.046.121-.105.14-.175.168-.047.02-.149.015-.242.015h-.375l.207-.609h.453c.136 0 .191.094.191.172a1.195 1.195 0 0 1-.059.254zm.645-4.55l-.023.097.039.047c.062.058.03.129-.184.48l-1.348 2.235h.829l.355-.61h.86l.007.61h.75l-.164-2.86zm-.008 1.687l.488-.891h.028l.015.89zm14.184 1.507a1.8 1.8 0 0 0-.067-.375c-.004-.015-.007-.039-.015-.062a1.62 1.62 0 0 0-.04-.129l-.042-.117c-.465-1.207-1.766-2.133-2.836-2.684C17.57 7.187 14.629 6.703 12 6.703h-.008c-2.637 0-5.57.484-7.93 1.703-1.324.684-3.007 1.906-3.007 3.574 0 1.372 1.14 2.457 2.28 3.16.04.048.08.067.114.09.04.024.074.055.114.075.039.023.078.05.117.07.043.023.086.05.125.074.086.047.172.094.254.137 2.359 1.219 5.296 1.687 7.933 1.687 2.633 0 5.57-.468 7.93-1.687 1.328-.684 3.008-1.922 3.008-3.586 0-.05 0-.102-.004-.156a.213.213 0 0 0 0-.07zM12 17.012c-5.898 0-10.707-2.403-10.707-5.008C1.293 9.383 6.102 7 12 7c5.898 0 10.707 2.383 10.707 5.004 0 2.613-4.809 5.008-10.707 5.008zm8.418-9.535C17.906 6.18 14.808 5.672 12 5.672c-2.809 0-5.906.508-8.418 1.805C1.859 8.363 0 9.883 0 12c0 2.117 1.86 3.637 3.582 4.523 2.512 1.297 5.61 1.805 8.418 1.805 2.809 0 5.906-.508 8.418-1.805C22.141 15.633 24 14.117 24 12c0-2.117-1.86-3.637-3.582-4.523zm2.922 4.66c0 .023-.004.047-.004.066a3.233 3.233 0 0 1-.047.34c-.25 1.266-1.351 2.453-3.172 3.395-2.16 1.117-5.043 1.734-8.117 1.734-2.883 0-5.594-.54-7.703-1.527-.14-.067-.274-.137-.41-.204C1.809 14.867.664 13.47.664 12.004c0-1.465 1.145-2.863 3.223-3.938 2.16-1.113 5.043-1.73 8.117-1.73 3.074 0 5.953.617 8.113 1.73 2.078 1.075 3.227 2.473 3.227 3.938-.004.043-.004.086-.004.133zm0 0"/></svg>
