<svg role="img" viewBox="0 0 24 24" xmlns="http://www.w3.org/2000/svg"><title>LangGraph</title><path d="M6.1 5.88h11.8a6.12 6.12 0 0 1 0 12.24H6.1a6.12 6.12 0 0 1 0-12.24Zm5.42 9.49c.15.15.37.14.56.1.1-.07-.04-.16-.16-.25-.07-.05-.14-.1-.16-.15.06-.08-.14-.27-.3-.42a1.02 1.02 0 0 1-.35-.58 8.36 8.36 0 0 0-1.25-2.3c-.31-.4-.67-.76-1.03-1.11l-.68-.7c-.23-.24-.37-.53-.5-.81a3.46 3.46 0 0 0-.4-.7c-.5-.75-2.1-.95-2.34.1 0 .04-.01.06-.04.08-.13.1-.24.2-.34.34-.24.33-.28.9.02 1.19v-.02c.01-.15.02-.3.14-.4.23.2.58.27.84.12.32.46.42 1.02.53 1.57.08.47.17.93.38 1.34l.01.03c.13.2.25.41.41.6.06.09.18.18.3.28.16.13.31.26.33.37v.14c0 .3 0 .6.18.83.1.21-.15.42-.35.4-.11 0-.23-.02-.35-.05-.17-.04-.33-.08-.47 0-.03.04-.09.04-.14.04-.06 0-.13 0-.17.07l-.04.07c-.04.05-.09.1-.03.15l.01-.02c.08-.06.16-.12.27-.08-.01.08.04.1.1.13h.02v.06c-.02.05-.03.1 0 .13a.6.6 0 0 0 .06-.05c.03-.05.07-.1.13-.11.15.19.3.11.48.01.2-.11.45-.25.8-.06-.13 0-.25.01-.34.13-.02.02-.04.05 0 .08.2-.13.3-.08.37-.04.06.03.12.07.22.03l.06-.04c.16-.09.32-.17.5-.14-.13.04-.18.13-.24.22-.02.05-.05.1-.1.15-.01.02-.02.04 0 .08.3-.03.4-.1.55-.2l.26-.16c.12-.07.25-.02.37.02.13.05.25.1.37-.01.04-.04.08-.04.13-.04h.05c-.04-.2-.24-.19-.45-.19-.24 0-.48 0-.48-.3.23-.14.23-.4.23-.66v-.17c.17.09.34.16.51.23.17.07.33.13.48.22.16.25.4.59.73.56l.03-.07.05.01c.1.03.18.05.23-.05zm6.43-2.89a1.01 1.01 0 0 0 1.43-1.43 1.01 1.01 0 0 0-1.08-.23l-.58-.84-.4.27.58.86a1 1 0 0 0 .05 1.37zm-1.82-2.74a1.01 1.01 0 0 0 1.4-1.25 1.01 1.01 0 1 0-1.4 1.25zm0 5.86a1.02 1.02 0 0 0 1.4-1.24 1.01 1.01 0 1 0-1.4 1.24zm.93-3.58v-.5h-1.55a1 1 0 0 0-.22-.42l.59-.86-.43-.28-.58.86a1.01 1.01 0 0 0-1.34.94 1 1 0 0 0 1.34.95l.58.86.42-.28-.58-.86a1 1 0 0 0 .22-.41z"/></svg>