<svg role="img" viewBox="0 0 24 24" xmlns="http://www.w3.org/2000/svg"><title>LangGraph</title><path d="M5.073 18.926h5.072c0 3.058-2.502 5.073-5.11 5.073a4.96 4.96 0 0 1-3.55-1.488A4.96 4.96 0 0 1 0 18.961c0-2.608 2.014-5.11 5.073-5.109Zm13.854-5.074c3.058 0 5.073 2.501 5.073 5.11a4.96 4.96 0 0 1-1.486 3.55 4.96 4.96 0 0 1-3.55 1.487c-2.608 0-5.11-2.015-5.11-5.073h5.072zM5.073.001a5.073 5.073 0 0 1 5.072 5.072H5.073v5.073C1.738 10.099.071 7.586.071 5.073.071 2.562 1.738.048 5.073.002m13.854 0a5.073 5.073 0 0 1 0 10.145V5.072h-5.073A5.073 5.073 0 0 1 18.927.001"/></svg>