<svg role="img" viewBox="0 0 24 24" xmlns="http://www.w3.org/2000/svg"><title>LangChain</title><path d="M7.531 15.976a7.533 7.533 0 0 0 2.2055-5.3255 7.537 7.537 0 0 0-2.2056-5.3256L2.2056 0A7.537 7.537 0 0 0 0 5.3256a7.537 7.537 0 0 0 2.2056 5.3255l5.3246 5.325Zm11.1428.4927a7.534 7.534 0 0 0-5.3247-2.2057 7.538 7.538 0 0 0-5.3253 2.2057l5.3253 5.3254a7.536 7.536 0 0 0 5.3254 2.2057 7.537 7.537 0 0 0 5.3254-2.2057l-5.3254-5.3254zm-16.4554 5.313a7.537 7.537 0 0 0 5.3253 2.2057v-7.5312H.0122a7.538 7.538 0 0 0 2.2063 5.3255M20.7301 8.5949a7.533 7.533 0 0 0-5.3261-2.2056 7.533 7.533 0 0 0-5.3254 2.2062l5.3254 5.3256Z"/></svg>