<svg viewBox="0 0 16 16" xmlns="http://www.w3.org/2000/svg" fill-rule="evenodd" clip-rule="evenodd" stroke-linejoin="round" stroke-miterlimit="1.414"><g fill-rule="nonzero"><path d="M4.3 8.85l9.14-2.19c-.507-.718-2.806-3.977-3.028-4.287-.25-.35.006-.512.412-.58.406-.07 3.902-.657 4.202-.7.252-.037.46-.118.808.205C15.514.536 14.758 0 13.878 0H2.122C1.086 0 .225.74.038 1.722L4.3 8.85z"/><path d="M15.157 1.917c-.137.03-3.178.58-3.365.605-.187.025-.125.13-.05.238l2.676 3.67L16 6.04V2.617c-.22-.28-.38-.485-.418-.54-.17-.23-.288-.192-.425-.16M16 10.087c-.778-1.065-1.625-2.225-1.706-2.34-.11-.16-.17-.19-.432-.106l-8.91 2.32s2.735 4.732 2.945 5.035c.21.304.338.28.502.21.126-.054 5.202-1.77 7.6-2.583v-2.535zM16 8.52V7.18l-.834.223L16 8.52M10.53 16h3.348c1.117 0 2.032-.863 2.115-1.958-1.71.618-3.924 1.41-5.464 1.958M3.698 10.288c-.994.26-2.423.634-3.698.964v2.626C0 15.05.95 16 2.122 16h4.8c-.628-1.026-2.337-4.105-3.224-5.712M2.95 8.908L0 3.816v6.07l2.887-.69c.235-.055.18-.085.063-.288"/><path d="M15.095 7.305L16 7.06v.42l-.62.207-.285-.382z"/></g></svg>