<svg viewBox="0 0 16 16" xmlns="http://www.w3.org/2000/svg" fill-rule="evenodd" clip-rule="evenodd" stroke-linejoin="round" stroke-miterlimit="1.414"><path d="M7.056 11.473L6.47 9.88s-.954 1.062-2.383 1.062c-1.265 0-2.163-1.1-2.163-2.86 0-2.254 1.137-3.06 2.255-3.06 1.61 0 2.12 1.044 2.56 2.382l.58 1.833c.58 1.778 1.68 3.207 4.85 3.207 2.27 0 3.81-.696 3.81-2.53 0-1.483-.85-2.253-2.42-2.62l-1.17-.256c-.81-.183-1.05-.513-1.05-1.063 0-.623.49-.99 1.3-.99.88 0 1.35.33 1.43 1.118l1.83-.22c-.15-1.65-1.29-2.327-3.16-2.327-1.65 0-3.26.623-3.26 2.62 0 1.247.6 2.035 2.12 2.4l1.24.295c.93.22 1.24.61 1.24 1.14 0 .68-.66.96-1.91.96-1.85 0-2.62-.97-3.06-2.31l-.6-1.83c-.77-2.38-2-3.26-4.44-3.26C1.43 3.56 0 5.26 0 8.16c0 2.783 1.43 4.29 3.996 4.29 2.07 0 3.06-.97 3.06-.97z" fill-rule="nonzero"/></svg>