<svg role="img" viewBox="0 0 24 24" xmlns="http://www.w3.org/2000/svg"><title>LATAM Airlines</title><path d="M8.156-.001c.157 0 1.752.556 7.16 2.497 4.023 1.442 3.939 1.406 4.092 1.752.1.229.141 1.063.08 1.611-.084.741-.273.974-1.059 1.304-.555.234-.797.359-.797.403 0 .085.205.189.729.371.717.249 1.035.414 1.075.555.016.057.028.532.024 1.051-.004 1.579-.064 1.688-1.055 2.018-.282.093-1.027.358-1.659.588-.632.233-1.8.656-2.597.938-.798.282-2.409.862-3.584 1.289-1.172.427-2.211.801-2.308.833-.133.049-.185.053-.221.017-.053-.053-.053-1.507-.004-2.183l.024-.342 1.01-.367c.56-.205 2.276-.825 3.814-1.381 2.738-.995 3.181-1.168 3.181-1.273 0-.024-.12-.096-.269-.157-.52-.209-1.845-.672-1.925-.672-.045 0-1.349.463-2.896 1.031-2.323.849-2.855 1.031-3.024 1.031-.254 0-.846-.165-1.651-.455-1.164-.423-1.675-.657-1.736-.782-.048-.108-.072-2.347-.024-2.396.024-.024.616.173 1.635.548.878.322 1.619.588 1.651.588.028 0 .415-.133.858-.298.817-.298 1.325-.536 1.317-.608-.012-.073-1.257-.56-3.157-1.236-1.116-.395-1.668-.661-1.978-.951-.35-.322-.378-.427-.378-1.357 0-.85.02-.987.145-.987.112 0 1.385.451 3.974 1.406 1.2.447 2.195.809 2.207.809.008 0 .685.238 1.498.532.814.29 1.506.527 1.539.523.032 0 .43-.137.885-.302 1.116-.41 1.386-.511 1.422-.547.044-.045-.882-.395-5.227-1.957-1.297-.468-2.094-.786-2.328-.919-.116-.068-.241-.201-.362-.378-.157-.23-.193-.322-.234-.576-.06-.383-.028-1.422.045-1.51.028-.032.076-.061.108-.061Zm5.413 15.142c.088 0 .112.024.133.125.04.201.028 1.562-.017 1.848-.068.431-.064.427-.269.516-.902.382-5.058 1.896-5.26 1.912l-.129.009-.024-.363a25.601 25.601 0 0 1-.032-1.232l-.004-.87.234-.085c.124-.044.962-.35 1.86-.676.898-.322 2.03-.725 2.517-.886.487-.165.934-.298.991-.298Zm-3.133 6.21c.04.431-.004 1.381-.077 1.627-.028.104-.201.205-.741.418A41.21 41.21 0 0 1 7.983 24c-.012 0-.012-.584-.008-1.296l.012-1.297.343-.137c.189-.072.632-.233.986-.354.967-.331 1.055-.298 1.12.435Z"/></svg>