<svg role="img" viewBox="0 0 24 24" xmlns="http://www.w3.org/2000/svg"><title>LaTeX icon</title><path d="M5.263 11.798h-.241c-.097.983-.232 2.178-1.928 2.178h-.78c-.454 0-.473-.068-.473-.386V8.472c0-.327 0-.462.906-.462h.318v-.29c-.347.03-1.214.03-1.61.03-.375 0-1.127 0-1.455-.03v.29h.222c.742 0 .761.106.761.453v5.06c0 .347-.02.453-.761.453H0v.299h5.002l.26-2.477zM5.099 7.71c-.039-.116-.058-.154-.183-.154s-.155.038-.193.154L3.17 11.643c-.067.164-.183.463-.78.463v.241h1.493v-.241c-.298 0-.482-.135-.482-.328 0-.048.01-.067.03-.135l.327-.829h1.908l.386.984c.02.038.039.086.039.115 0 .193-.367.193-.55.193v.241h1.899v-.241h-.135c-.453 0-.501-.067-.569-.26L5.1 7.71zm-.386.684l.858 2.178H3.855l.858-2.178zm8.106-.617H6.95l-.173 2.16h.231c.135-1.552.28-1.87 1.735-1.87.174 0 .424 0 .52.019.203.038.203.144.203.366v5.06c0 .328 0 .463-1.012.463h-.386v.299c.396-.03 1.37-.03 1.813-.03s1.436 0 1.83.03v-.3h-.385c-1.012 0-1.012-.134-1.012-.462v-5.06c0-.193 0-.328.174-.366.106-.02.366-.02.55-.02 1.445 0 1.59.319 1.724 1.87h.241l-.183-2.159zm5.167 6.188h-.241c-.241 1.475-.463 2.179-2.111 2.179H14.36c-.453 0-.472-.068-.472-.386v-2.564h.858c.935 0 1.041.309 1.041 1.128h.24v-2.545h-.24c0 .82-.106 1.118-1.041 1.118h-.858v-2.303c0-.318.02-.386.472-.386h1.234c1.475 0 1.725.53 1.88 1.87h.24l-.27-2.159h-5.397v.29h.222c.742 0 .761.105.761.452v5.032c0 .347-.019.453-.761.453h-.222v.298h5.533l.405-2.477zm2.9-3.402l1.321-1.928c.203-.308.53-.617 1.388-.626v-.29h-2.294v.29c.386.01.598.221.598.443 0 .096-.02.116-.087.222l-1.099 1.619-1.233-1.85c-.02-.03-.068-.107-.068-.145 0-.116.212-.28.617-.29V7.72c-.328.03-1.031.03-1.398.03-.298 0-.896-.01-1.253-.03v.29h.183c.53 0 .714.067.897.337l1.764 2.67-1.571 2.323c-.135.193-.424.636-1.388.636v.299h2.294v-.3c-.444-.009-.608-.269-.608-.442 0-.087.03-.126.097-.232l1.359-2.014 1.523 2.294c.019.038.048.077.048.106 0 .115-.212.28-.627.289v.299c.338-.03 1.041-.03 1.398-.03.405 0 .848.01 1.253.03v-.3h-.183c-.501 0-.704-.047-.906-.346l-2.024-3.065z"/></svg>