<svg role="img" xmlns="http://www.w3.org/2000/svg" viewBox="0 0 24 24"><title>LaTeX icon</title><path d="M2.175 2.815c.233.42.477.78.73 1.09h-.002a2.312 2.312 0 00-.357-.026 2.701 2.701 0 00-.79.13c.493.415.911.717 1.28.95.905.294 1.912.782 2.77 1.327.428.273.811.543 1.112.78.301.236.567.471.621.574.054.102 0 .14-.082.06-.08-.078-.302-.319-.6-.553a14.2 14.2 0 00-1.106-.775c-.775-.49-1.982-.96-2.715-1.413-.57-.182-1.181-.207-1.901.135.526.33.966.568 1.352.746 1.104.155 2.259.694 3.225 1.307.482.308.904.616 1.22.868.157.125.29.237.39.328.097.09.175.155.197.21.03.074-.02.104-.085.057-.032-.022-.085-.102-.182-.191a7.473 7.473 0 00-.385-.326c-.312-.25-.73-.553-1.21-.858-.893-.56-2.232-1.012-3.174-1.395-.6-.11-1.222-.06-1.903.388.449.2.837.35 1.182.464-.566.02-1.128.197-1.676.717.477.118.885.198 1.244.25-.44.09-.87.3-1.289.72.324.07.616.123.883.163A2.52 2.52 0 000 9.325c.373.03.703.042 1 .043-.36.166-.696.428-.996.85.533.025.979.023 1.363.001-.422.172-.812.464-1.144.97a11.657 11.657 0 001.629-.078l-.008.002c.99-.073 2.299.127 2.964.848.052.057-.024.118-.073.074-.648-.58-1.494-.827-2.891-.922-.544.15-1.047.447-1.461 1.075.535.007.98-.011 1.365-.047-.47.255-.871.643-1.137 1.304.483-.091.888-.19 1.237-.293-.363.265-.67.636-.873 1.193.324-.072.61-.146.87-.22a2.52 2.52 0 00-.513 1.095c.35-.13.655-.256.925-.38h.002c.283-.23.71-.457 1.29-.622.505-.145 1.08-.283 1.65-.3a3.63 3.63 0 01.245 0c.1.003.063.103.006.102-.728-.008-1.302.132-1.873.295a9.798 9.798 0 00-1.318.526 2.5 2.5 0 00-.55 1.191 12.62 12.62 0 001.237-.568c-.31.333-.543.76-.635 1.357a11.791 11.791 0 001.442-.744c-.432.362-.764.844-.879 1.588a10.807 10.807 0 001.766-.957c-.184.372-.281.807-.235 1.35.762-.585 1.245-1.056 1.603-1.473a2.67 2.67 0 00.076.885c.45-.772.897-1.093 1.353-1.358-.563.37-.464.67-.464 1.014.683-.72 1.636-1.483 1.927-1.96-.39.584-.547 1.139-.65 1.628-1.994 1.055-3.21 1.33-4.569 1.751.528.194 1.095.383.86.652l-.624.623c.399-.124.805-.3 1.158-.058-.034.327-.448.493-.8.683.62-.224.756-.173.92-.12.08.39-.203.602-.387.86 1.564-1.19 3.605-2.128 5.044-2.52 2.021-.681 4.63-1.39 5.34-3.117.234-.946.477-1.904.706-2.841-.11-.035-.245-.063-.35-.133a.655.655 0 01-.234-.3c-.252.067-.44.032-.56-.087-.118-.117-.168-.294-.203-.49-.204.042-.364.017-.47-.076-.113-.102-.17-.26-.197-.443l-.006-.04.037-.015a.84.84 0 00.3-.195.256.256 0 00.07-.225l-.006-.037.03-.016c.163-.093.346-.168.43-.279a.277.277 0 00.05-.21.886.886 0 00-.154-.36l-.028-.04.04-.026c.118-.09.246-.176.31-.257.032-.041.046-.077.045-.11 0-.033-.015-.071-.065-.12l-.097-.093.135.006c.212.009.396-.006.54-.053a.5.5 0 00.295-.224.455.455 0 01-.005-.074.455.455 0 01.455-.455.455.455 0 01.455.455.455.455 0 01-.022.132c.184.016.359.008.524-.064l.037-.012c.236-.084.333.045.72-.46-1.69-2.19-4.157-.631-4.977 1.625-.21.577-1.405.577-1.752-.002-1.37-2.949-5.53-6.065-9.07-7.214zm.732 1.091c.252-.009 1.13.453 1.31.52a23.594 23.594 0 011.567.967c.504.336.96.662 1.273.901.156.12.277.218.351.285.037.034.064.057.08.082a.079.079 0 01.01.022.056.056 0 01-.004.045c-.01.02-.03.03-.043.03a.075.075 0 01-.027 0c-.057.001-.202-.163-.496-.415a23.421 23.421 0 00-2.757-1.825c-.504-.28-.956-.54-1.264-.612zM1.766 6.692c.811 0 1.89.365 2.93.92 1.043.557 2.042 1.219 2.525 1.779.066.076-.019.123-.077.068-.52-.496-1.461-1.206-2.497-1.758-.637-.336-2.148-1.005-2.881-1.008zm-.428.967c1.115.015 2.347.446 3.43.996.542.275 1.025.57 1.396.832.372.263.673.523.734.656.062.133-.019.13-.086.054a4.403 4.403 0 00-.705-.626 11.493 11.493 0 00-1.383-.824C3.76 8.265 2.44 7.82 1.338 7.659zm.162.815c.066-.003.133 0 .2.006.822.07 1.72.366 2.533.748 1.087.509 2.034 1.156 2.433 1.665.035.045-.01.133-.078.064-.428-.44-1.32-1.131-2.396-1.636C3.279 8.9 1.91 8.45.93 8.54c.188-.023.373-.06.57-.067zm16.536.013c-.364.475-.53.425-.7.465.093.43.35.587.586.772C19.94 9.352 22.21 9.45 24 9.499l-5.962-1.01zm-.802.494c-.19.077-.387.079-.584.06a.455.455 0 01-.39.224.455.455 0 01-.414-.268.616.616 0 01-.3.21 1.57 1.57 0 01-.493.054c.02.035.054.067.054.103a.275.275 0 01-.07.174c-.073.093-.188.172-.295.25a.946.946 0 01.15.36.388.388 0 01-.07.284c-.107.14-.288.211-.439.295a.374.374 0 01-.092.267.886.886 0 01-.296.197c.026.157.073.283.153.354.086.076.212.104.426.05l.055-.017.01.055c.034.207.088.386.187.484.1.099.243.135.502.055l.05-.016.014.05a.53.53 0 00.21.282c.087.06.25.112.36.147.798-.868 1.525-1.772 1.884-2.86-.225-.175-.508-.334-.612-.794zM1.44 9.349a6.681 6.681 0 012.769.64c.92.43 1.658.938 1.974 1.306.074.087-.02.122-.073.074a8.184 8.184 0 00-1.946-1.29c-.904-.415-2.195-.645-3.16-.717.146-.01.29-.014.436-.013zm.432.815c.61.02 1.24.155 1.806.352.756.262 1.42.614 1.746.98.044.05-.005.13-.072.07-.35-.304-.962-.694-1.707-.953-.575-.195-1.616-.367-2.27-.396.197-.02.294-.06.497-.053zm.892 1.781c.05 0 .103.004.156.008.424.034.886.133 1.342.406.043.026.049.136-.05.09-.856-.402-1.327-.489-2.457-.308.337-.113.651-.199 1.01-.196zm.416.784c.3.004.613.062.998.216.044.018.08.126-.033.094-.857-.243-1.167-.328-2.287.104.28-.23.62-.367 1.021-.403.1-.01.2-.013.3-.011zm1.459.68c.156 0 .31.01.46.027.053.005.055.102-.007.1a7.898 7.898 0 00-1.838.114c-.243.046-.422.044-1.403.46.285-.234.794-.451 1.385-.56.444-.08.934-.142 1.403-.14zm1.336.906c.034-.005.104.084.017.1-.73.136-1.244.268-1.795.455-.216.074-.579.207-1.242.588.26-.269.655-.494 1.213-.684a10.647 10.647 0 011.807-.459zm.31.508c.074-.012.098.087.021.102-1.216.24-1.76.556-2.54 1.144.503-.523 1.296-1.05 2.52-1.246zm.595.447a.095.095 0 01.03 0c.06.011.07.09-.009.1-.872.13-1.478.555-2.256 1.332.295-.494 1.006-1.242 2.235-1.432zm.371.391c.046-.005.116.073.025.1-.193.056-.433.15-.67.3-.182.118-.302.202-.6.508.112-.245.3-.435.546-.591.246-.157.507-.293.7-.317z"/></svg>