<svg role="img" viewBox="0 0 24 24" xmlns="http://www.w3.org/2000/svg"><title>Launchpad</title><path d="M19.6218 0v24H4.3782V0h15.2436Zm-7.2342 14.7558a.9368.9368 0 0 0-.1284-.009c-.1938 0-.3768.06-.5262.174-.1824.1386-.3006.3474-.333.5874-.0318.2334.0276.4638.1662.648.1404.1866.3486.3072.5862.3396.48.0648.9228-.273.9876-.753.066-.4878-.2646-.9222-.753-.9876l.0006.0006Zm-5.256-1.3452h.0012c-.069.1008-.0108.1602.0144.1824 1.2492.8958 2.9028 1.0398 4.4256.3852 1.4982-.6336 2.5566-1.9758 2.763-3.5034.0042-.0318.0096-.075-.1476-.1146l-.9318-.2022c-.03-.0042-.0732-.0048-.1062.1128-.3132 1.3032-.9618 2.13-2.0406 2.5974-1.0854.4698-2.1372.3738-3.3108-.3036-.054-.0258-.0852-.024-.1344.0486l-.5328.7974Zm10.0272-.2586-.4434-.849c-.063-.1398-.1134-.126-.1656-.1086-1.4178.6114-2.3964 1.956-2.6178 3.5982-.222 1.6434.366 3.201 1.5726 4.1658.027.024.054.0324.0834.03a.138.138 0 0 0 .0918-.0498l.6234-.7476c.0576-.072.033-.1092.003-.1404-.9774-.9624-1.3434-1.9188-1.1844-3.0978.1602-1.1856.7854-2.0352 1.9674-2.6748.0936-.0564.0786-.105.0696-.1266v.0006Zm-5.3838 7.9698.9552.0522c.1608.003.165-.0396.1692-.0714.2064-1.5276-.4584-3.1026-1.7346-4.11-1.2948-1.0356-2.928-1.3356-4.3698-.8028-.03.015-.102.0564-.0624.171l.3024.9108c.0288.0828.0576.093.1164.0822 1.311-.3414 2.3508-.1554 3.2724.5856.9162.7368 1.3224 1.7058 1.278 3.0498.0012.1182.0426.129.0726.1332l.0006-.0006Z"/></svg>