<svg role="img" viewBox="0 0 24 24" xmlns="http://www.w3.org/2000/svg"> <title>LCEDA</title> <path d="M 20.315739,8.1248692 C 19.901891,6.9959399 19.186809,5.9793124 18.284194,5.1511487 16.853874,3.9097632 15.047399,3.1939028 13.16476,3.1939028 c -1.655701,0 -3.1995684,0.5267714 -4.5182107,1.4675454 C 8.0065437,5.1131443 7.480396,5.6779228 6.9906917,6.3173046 6.6897695,6.2800742 6.4260725,6.2428569 6.12515,6.2428569 c -1.6186308,0 -3.1623431,0.6400082 -4.3289659,1.8067867 -1.12892959,1.1289299 -1.76955976,2.6721734 -1.76955976,4.2917384 0,1.506175 0.56462067,2.97372 1.58140486,4.102339 0.8283176,0.903394 1.8440115,1.506175 3.0109457,1.806787 0.4895451,1.506173 1.9200206,2.560495 3.5749424,2.560495 2.0711067,0 3.7657487,-1.692926 3.7657487,-3.765745 0,-0.111679 0,-0.226796 0,-0.375844 l 5.268337,-2.783853 -1.166156,-1.994473 -5.041554,2.634792 C 10.34306,13.73479 9.3273675,13.244462 8.1954772,13.244462 c -1.6186307,0 -3.010946,1.0537 -3.5377194,2.486046 -1.3186401,-0.601379 -2.257235,-1.920021 -2.257235,-3.463267 0,-2.071106 1.6929271,-3.7657445 3.7657463,-3.7657445 0.7144585,0 1.4303202,0.2267695 1.9944749,0.5646189 0.7144585,-2.1083314 2.672173,-3.6168406 5.041554,-3.6168406 2.7094,0 4.967261,2.0711065 5.268339,4.7034062 0.111678,0 0.189569,0 0.300922,0 1.61863,0 2.936495,1.318639 2.936495,2.936491 0,1.543402 -1.166157,2.824819 -2.709401,2.936497 h -1.692926 c -0.07445,0 -0.148903,-0.03723 -0.22677,-0.03723 -0.640008,0 -1.166156,0.52677 -1.166156,1.166155 0,0.601381 0.489545,1.12893 1.091704,1.166155 v 0 h 1.994473 0.111678 0.111678 c 1.318642,-0.111678 2.523114,-0.714458 3.422614,-1.692925 0.903393,-0.979249 1.393093,-2.257239 1.393093,-3.574946 C 24.000811,10.79564 22.456637,8.7983625 20.309519,8.1228413 Z M 8.1540449,15.616802 c 0.7910928,0 1.4675484,0.640005 1.4675484,1.467546 0,0.79109 -0.6400085,1.467546 -1.4675484,1.467546 -0.7910913,0 -1.4675459,-0.640009 -1.4675459,-1.467546 0,-0.828319 0.6772339,-1.467546 1.4675459,-1.467546 z" /></svg>