<svg role="img" viewBox="0 0 24 24" xmlns="http://www.w3.org/2000/svg"><title>LCEDA</title><path d="M19.0493 15.4743c-.2657-.7248-.7248-1.3775-1.3043-1.9092-.9183-.797-2.0781-1.2566-3.2868-1.2566-1.063 0-2.0542.3382-2.9008.9422-.4109.29-.7487.6526-1.0631 1.0631-.1932-.0239-.3625-.0478-.5557-.0478-1.0392 0-2.0303.4109-2.7793 1.16-.7248.7248-1.1361 1.7156-1.1361 2.7554 0 .967.3625 1.9092 1.0153 2.6338.5318.58 1.1839.967 1.9331 1.16.3143.967 1.2327 1.6439 2.2952 1.6439 1.3297 0 2.4177-1.0869 2.4177-2.4177 0-.0717 0-.1456 0-.2413l3.3824-1.7873-.7487-1.2805-3.2368 1.6916c-.4348-.5079-1.0869-.8227-1.8136-.8227-1.0392 0-1.9331.6765-2.2713 1.5961-.8466-.3861-1.4492-1.2327-1.4492-2.2235 0-1.3297 1.0869-2.4177 2.4177-2.4177.4587 0 .9183.1456 1.2805.3625.4587-1.3536 1.7156-2.3221 3.2368-2.3221 1.7395 0 3.1891 1.3297 3.3824 3.0197.0717 0 .1217 0 .1932 0 1.0392 0 1.8853.8466 1.8853 1.8853 0 .9909-.7487 1.8136-1.7395 1.8853h-1.0869c-.0478 0-.0956-.0239-.1456-.0239-.4109 0-.7487.3382-.7487.7487 0 .3861.3143.7248.7009.7487v0h1.2805.0717.0717c.8466-.0717 1.6199-.4587 2.1974-1.0869.58-.6287.8944-1.4492.8944-2.2952-.0239-1.4492-1.0153-2.7315-2.3938-3.1652zM11.2412 20.2843c.5079 0 .9422.4109.9422.9422 0 .5079-.4109.9422-.9422.9422-.5079 0-.9422-.4109-.9422-.9422 0-.5318.4348-.9422.9422-.9422z"/></svg>
