<svg role="img" viewBox="0 0 24 24" xmlns="http://www.w3.org/2000/svg"><title>Leantime</title><path d="M11.377 12.0666h6.5183v1.1263h-6.5184zm0-8.0866h1.2006v8.5452h-1.2007ZM12.0002 0C5.373 0 0 5.3725 0 12.0003c0 6.6279 5.3724 12.0003 12.0003 12.0003V20.723c-.0075-.0006-.015 0-.023 0-4.839 0-8.7613-3.923-8.7613-8.7613s3.9229-8.7613 8.7612-8.7613 8.7613 3.923 8.7613 8.7613c0 .4085-.0374.8072-.0916 1.2007 1.1194.003 2.2227.0138 3.2333.035.0576-.432.0996-.776.1198-1.1977C24 5.3724 18.6276-.0006 11.9997-.0006Z"/></svg>