<svg aria-labelledby="simpleicons-leetcode-icon" role="img" viewBox="0 0 24 24" xmlns="http://www.w3.org/2000/svg"><title id="simpleicons-leetcode-icon">LeetCode icon</title><path d="M10.87 23.948c-.954-.07-1.957-.443-2.806-1.044-.547-.387-5.022-4.873-5.32-5.333-.648-.999-1.016-2.189-1.015-3.285 0-.956.328-2.128.833-2.984.356-.603.864-1.133 6.429-6.7C12.315 1.275 13.448.175 13.637.089c.543-.246 1.295-.088 1.683.354.371.423.458 1.12.2 1.616-.063.121-.68.783-1.369 1.47l-1.254 1.25.382.122c.45.144.752.293 1.292.639.53.34 3.396 3.178 3.568 3.534.167.345.164.889-.007 1.219-.28.542-.69.807-1.25.81-.669.001-.69-.013-2.254-1.571-.783-.78-1.54-1.495-1.68-1.587-.805-.53-1.9-.58-2.848-.131-.405.191-.54.316-2.596 2.374-1.193 1.195-2.263 2.314-2.378 2.488-.357.539-.46.903-.46 1.62 0 .699.104 1.065.448 1.583.1.15 1.164 1.257 2.365 2.46 2.332 2.337 2.493 2.47 3.22 2.646.366.089 1.06.088 1.423 0 .674-.166.887-.329 2.422-1.852 1.034-1.026 1.527-1.476 1.709-1.558.699-.317 1.61.048 1.91.765.151.362.126.87-.06 1.212-.194.357-2.923 3.081-3.418 3.413-.814.545-1.785.906-2.59.96-.236.017-.493.037-.571.045a6.32 6.32 0 0 1-.655-.022zM10 15.602c-.659-.328-.955-1.03-.742-1.755.045-.152.18-.346.388-.555.267-.27.368-.332.629-.388.228-.05 1.66-.062 5.464-.05 5.742.02 5.295-.011 5.743.41.314.295.433.578.433 1.032 0 .46-.098.708-.41 1.029-.438.45-.025.421-5.94.422l-5.271.001-.295-.146z"/></svg>
