<svg role="img" viewBox="0 0 24 24" xmlns="http://www.w3.org/2000/svg"><title>LeetCode icon</title><path d="M16.1012 17.9297l-2.6971 2.6071c-.466.467-1.111.662-1.8231.662-.712 0-1.3571-.195-1.8241-.662l-4.3323-4.3632c-.467-.467-.702-1.1501-.702-1.8631 0-.713.235-1.3571.702-1.8241L9.744 8.106c.467-.467 1.125-.645 1.837-.645.7121 0 1.3572.195 1.8232.662l2.6971 2.6062c.514.515 1.3651.497 1.9001-.038.535-.536.553-1.3871.039-1.9012L15.4312 6.154a5.0553 5.0553 0 00-2.4451-1.337l2.467-2.5032c.5161-.514.4981-1.3661-.037-1.9011-.535-.535-1.387-.552-1.902-.038L3.4135 10.4762c-.981.982-1.494 2.3372-1.494 3.8353 0 1.498.513 2.8951 1.494 3.8752l4.3473 4.3612C8.7418 23.527 10.0978 24 11.595 24c1.497 0 2.8531-.512 3.8352-1.494l2.6091-2.6372c.514-.514.496-1.3651-.039-1.9001-.535-.535-1.386-.553-1.899-.039zm4.7093-4.9203H10.6649c-.702 0-1.27.604-1.27 1.346 0 .7421.568 1.3461 1.27 1.3461h10.1456c.701 0 1.27-.604 1.27-1.346 0-.742-.569-1.3461-1.27-1.3461z"/></svg>