<svg role="img" viewBox="0 0 24 24" xmlns="http://www.w3.org/2000/svg"><title>Lemmy</title><path d="M8.364 12.833a1.097 1.097 0 1 0 .001 2.194 1.097 1.097 0 0 0 0-2.194za1.097 1.097 0 1 1-.002 2.193 1.097 1.097 0 0 1 .002-2.193zm7.282.01a1.087 1.087 0 1 0 .002 2.173 1.087 1.087 0 0 0-.002-2.173za1.087 1.087 0 1 1-.002 2.173 1.087 1.087 0 0 1 .002-2.173zM14.56 13.93a1.087 1.087 0 1 0 2.174.002 1.087 1.087 0 0 0-2.174-.002zm-7.292 0a1.097 1.097 0 1 0 2.194.002 1.097 1.097 0 0 0-2.194-.002zM2.96 4.223c-.113.002-.223.01-.333.022A2.838 2.838 0 0 0 .473 5.629c-.476.8-.593 1.68-.35 2.497.242.816.83 1.559 1.698 2.147l.016.01a6.96 6.96 0 0 0 2.288.899c-.02.332-.028.67-.007 1.02.064 1.043.456 1.993 1.017 2.84l-2.026.827a.417.417 0 0 0 .154.8c.055 0 .11-.01.16-.032l2.225-.907c.17.202.337.408.527.593.282.274.581.53.895.765l-1.298 1.716a.417.417 0 1 0 .665.503l1.329-1.76a9.657 9.657 0 0 0 2.206 1.029c.38.73 1.14 1.202 2.029 1.202.895 0 1.654-.506 2.031-1.22a9.876 9.876 0 0 0 2.187-1.03l1.344 1.78a.417.417 0 1 0 .665-.504l-1.313-1.736c.511-.384.97-.83 1.383-1.312l2.163.881a.416.416 0 0 0 .314-.77l-1.954-.798c.575-.851.977-1.808 1.058-2.863.027-.35.024-.691.008-1.026a6.97 6.97 0 0 0 2.292-.907c.87-.588 1.456-1.33 1.699-2.147.242-.816.125-1.697-.35-2.497a2.838 2.838 0 0 0-2.156-1.384c-.11-.013-.22-.02-.331-.022-.786-.015-1.624.228-2.429.693-.593.343-1.127.87-1.546 1.443-1.275-.73-2.966-1.115-5.072-1.08-2.085.034-3.754.43-5.014 1.144a.378.378 0 0 0-.009-.016C6.55 5.816 6 5.267 5.388 4.917c-.805-.466-1.644-.71-2.428-.694Zm.286.736c.556.042 1.169.238 1.779.59.484.28.975.754 1.345 1.269a5.668 5.668 0 0 0-.497.409c-.92.85-1.463 1.958-1.67 3.23a6.206 6.206 0 0 1-1.981-.792C1.466 9.152 1.005 8.543.819 7.92c-.184-.623-.106-1.271.278-1.919.375-.63.928-.954 1.612-1.032.171-.02.35-.024.536-.01zm17.508 0c.18-.014.359-.01.535.01.685.08 1.239.402 1.612 1.032.385.648.463 1.296.278 1.92-.185.622-.645 1.231-1.4 1.744a6.217 6.217 0 0 1-1.962.79c-.193-1.298-.736-2.435-1.664-3.303a5.611 5.611 0 0 0-.475-.39c.365-.492.831-.944 1.298-1.214.61-.351 1.222-.547 1.779-.59zm-8.748 1.048c2.648-.044 4.5.601 5.65 1.676.84.786 1.327 1.815 1.473 3.04a.364.364 0 0 0-.04.22c.008.061.033.12.07.169.02.334.024.677-.004 1.038-.194 2.52-2.55 4.481-4.865 5.403a2.157 2.157 0 0 0-.637-1.541l-.003-.004c-.026-.027-.06-.046-.088-.07-.08-.07-.155-.142-.244-.2a2.227 2.227 0 0 0-.387-.206l-.004-.002a2.444 2.444 0 0 0-.927-.175c-.51 0-.964.143-1.33.385a2.109 2.109 0 0 0-.806.98c-.11.272-.164.564-.156.857 0 .032.01.061.012.094-1.075-.41-2.166-1.02-3.036-1.868-1.034-1.009-1.752-2.259-1.837-3.648a7.715 7.715 0 0 1 .012-1.067.364.364 0 0 0 .03-.327c.155-1.216.64-2.223 1.479-3.002C7.51 6.702 9.352 6.05 12.006 6.007ZM12 16.084c.384 0 .7.088.946.245.326.21.527.536.594.93v.002c.016.098.024.2.024.306a1.441 1.441 0 0 1-.117.553 1.56 1.56 0 0 1-1.447.931c-.674 0-1.187-.305-1.422-.837a.36.36 0 0 0-.02-.07 1.668 1.668 0 0 1-.121-.585v-.002a1.687 1.687 0 0 1 .02-.302v-.002a1.31 1.31 0 0 1 .863-1.057h.002a1.949 1.949 0 0 1 .678-.112Z"/></svg>
