
<svg role="img" xmlns="http://www.w3.org/2000/svg" viewBox="0 0 24 24"><title>Lenovo icon</title><path d="M0 8v8h24V8zm5 5.83H2.23v-4h.85v3.22H5zm1.81-.62a1.32 1.32 0 00.89-.33l.53.41a2 2 0 01-1.43.59 1.59 1.59 0 11-.09-3.18 1.52 1.52 0 011.21.5 1.6 1.6 0 01.37.86L6.14 13a.93.93 0 00.68.21zm4.89.62h-.85v-1.76a.68.68 0 00-.71-.65.67.67 0 00-.7.65v1.76h-.83v-3.08h.84v.44a1.28 1.28 0 011-.49 1.18 1.18 0 011.25 1.22zm2 .05a1.59 1.59 0 111.66-1.59 1.6 1.6 0 01-1.67 1.59zm2.8-.05l-1.27-3.08h1l.76 2.1.77-2.1h1l-1.27 3.08zm3.71.05a1.59 1.59 0 111.66-1.59 1.6 1.6 0 01-1.67 1.59zm2-.42h-.14v.37H22v-.37h-.14v-.08h.36zm.54.37h-.08v-.32l-.14.21-.14-.21v.32h-.08v-.45h.09l.14.21.13-.21h.09zm-9.06-2.41a.82.82 0 00-.82.87.84.84 0 00.83.86.82.82 0 00.82-.86.84.84 0 00-.83-.87zm6.51 0a.82.82 0 00-.82.87.84.84 0 00.83.86.82.82 0 00.82-.86.84.84 0 00-.83-.87zm-13.47-.05a.79.79 0 00-.65.31 1 1 0 00-.17.73l1.48-.61a.7.7 0 00-.66-.43z"/></svg>