<svg role="img" viewBox="0 0 24 24" xmlns="http://www.w3.org/2000/svg"><title>Lenskart</title><path d="M6.72 6.895c-3.36 0-5.675 2.084-5.675 5.09 0 2.93 2.26 5.078 5.338 5.078 1.435 0 2.729-.479 3.642-1.358a5.74 5.74 0 0 1-2.566.576c-2.87 0-4.783-1.748-4.783-4.342 0-2.539 1.738-4.34 4.283-4.34 2.251 0 3.98 1.357 4.937 3.83l.479 1.249c1.055 2.777 2.838 4.384 5.273 4.384 2.12 0 3.86-1.031 4.655-2.822-.936 1.074-2.75 1.606-4.317 1.606-2.098 0-3.522-1.139-4.392-3.526l-.305-.89c-1.044-2.854-3.48-4.535-6.568-4.535m9.864 0c-1.435 0-3.067.738-4.383 2.105.5.5 1.186 1.53 1.621 3.104 0-2.084 1.739-3.745 3.729-3.745 1 0 2.393.413 3.209 1.791-.62-2.094-2.393-3.255-4.176-3.255m-2.078.14-5.143.012c1.088.39 1.707.759 2.664 1.724a6.6 6.6 0 0 1 2.479-1.736m4.187.121c1.62.673 2.621 2.581 2.621 4.74 0 1.509-.51 2.615-1.859 3.44 2.012-.163 3.49-1.757 3.49-3.72 0-2.247-1.772-4.134-4.252-4.46m-11.798.77c-1.164 0-2.055.39-2.686 1.181.544-.455 1.325-.748 2.12-.748 1.957 0 3.197 1.043 3.991 3.332l.37 1.118c.826 2.441 2.783 3.928 5.273 4.296-1.599-.51-2.969-1.887-4.024-4.654l-.433-1.107c-.816-2.138-2.502-3.418-4.611-3.418M1.52 9.229l-1.216.335C.065 9.64 0 9.77 0 10.096v1.855c0 .206.13.348.326.348h.436l-.022-.315c-.043-.922.227-1.974.781-2.755m21 0c.512.726.773 1.55.686 2.765l-.023.305h.478c.207 0 .338-.142.338-.348v-1.855c0-.326-.064-.445-.314-.532zm-12.353 2.906c-.076 2.224-1.74 3.658-3.828 3.7.391.088.783.132 1.207.132 1.24 0 2.425-.435 3.676-1.4-.446-.695-.848-1.51-1.055-2.432"/></svg>