<svg role="img" viewBox="0 0 24 24" xmlns="http://www.w3.org/2000/svg"><title>Simple Icons</title><path d="M24,2.2c0-1-0.5-2-1.4-2.5c-0.5-0.3-1-0.5-1.6-0.5c-1.6,0-3,1.3-3,3c0,0.8,0.3,1.5,0.8,2c-0.6,0.7-1.1,1.6-1.5,2.4  c-0.3,0-0.5-0.1-0.8-0.1c-2.9,0-5.3,2.4-5.3,5.3c0,2.4,1.6,4.5,3.9,5.1C14,20,11.2,22,7.9,22c-2.8,0-5.3-1.5-6.6-3.7  c-0.4,0.1-0.8,0.1-1.3,0.1c1.5,2.8,4.5,4.7,7.9,4.7c3.9,0,7.2-2.5,8.4-5.9h0.3c2.9,0,5.3-2.4,5.3-5.3c0-2.3-1.4-4.2-3.4-5  c0.3-0.8,0.7-1.5,1.3-2.1c0.4,0.2,0.8,0.2,1.2,0.2C22.6,5.2,24,3.8,24,2.2L24,2.2z M16.6,16.1c-2.3,0-4.2-1.9-4.2-4.1  s1.9-4.2,4.2-4.2s4.2,1.9,4.2,4.2S18.9,16.1,16.6,16.1z M21,0.4c0.1,0,0.2,0,0.3,0c0.8,0.1,1.5,0.9,1.5,1.8C22.8,3.2,22,4,21,4  c-1,0-1.8-0.8-1.8-1.8c0-0.2,0-0.5,0.1-0.7C19.6,0.9,20.3,0.4,21,0.4L21,0.4z"/></svg>