<?xml version="1.0" encoding="utf-8"?>
<!-- Generator: Adobe Illustrator 27.1.1, SVG Export Plug-In . SVG Version: 6.00 Build 0)  -->
<svg version="1.1" id="Layer_1" xmlns="http://www.w3.org/2000/svg" xmlns:xlink="http://www.w3.org/1999/xlink" x="0px" y="0px"
	 viewBox="0 0 115.9988 115.9988" style="enable-background:new 0 0 115.9988 115.9988;" xml:space="preserve">
<g>
	<g>
		<g>
			<path style="fill:#180D38;" d="M29.1281,108.2941c9.5736-4.5548,17.1531-12.6456,21.0335-22.5787
				c-12.0865-3.4232-20.9707-14.548-20.9707-27.7159c0-15.8849,12.9236-28.8085,28.8085-28.8085
				c1.4832,0,2.9404,0.113,4.3639,0.3303c1.9125-4.8287,4.5771-9.2786,7.8607-13.1979c-2.7243-2.8871-4.4077-6.7665-4.4077-11.0399
				c0-1.6191,0.2457-3.1808,0.6921-4.6562C63.7305,0.2186,60.8908,0,57.9995,0C25.9672,0,0,25.9672,0,57.9994
				C0,79.5165,11.7263,98.2828,29.1281,108.2941z"/>
			<path style="fill:#EF3939;" d="M81.9297,15.0082c3.6788,0,6.886-2.0536,8.5379-5.0742
				c-5.3185-3.5997-11.2684-6.3339-17.646-8.0151c-0.3903,1.0504-0.6168,2.1798-0.6168,3.3644
				C72.2049,10.6458,76.5673,15.0082,81.9297,15.0082z"/>
			<path style="fill:#180D38;" d="M95.5663,13.828c-2.8537,4.5375-7.8918,7.5688-13.6366,7.5688
				c-1.2614,0-2.4835-0.1604-3.6622-0.4359c-0.9722-0.2272-1.9121-0.5362-2.8083-0.931c-2.8492,3.3173-5.1907,7.0806-6.8945,11.1766
				c10.6715,4.2233,18.2432,14.6371,18.2432,26.7928c0,15.8849-12.9235,28.8085-28.8085,28.8085
				c-0.4718,0-0.9406-0.0131-1.4069-0.0357c-3.7532,10.4704-11.0354,19.2744-20.406,24.9696
				c6.7355,2.7367,14.0948,4.257,21.8129,4.257c32.0322,0,57.9994-25.9672,57.9994-57.9995
				C115.9988,40.3018,108.0628,24.4664,95.5663,13.828z"/>
			<circle style="fill:#EF3939;" cx="57.9994" cy="57.9994" r="22.4198"/>
		</g>
		<path style="fill:#FFFFFF;" d="M78.2676,20.961c1.1786,0.2755,2.4008,0.4359,3.6622,0.4359
			c5.7448,0,10.7829-3.0313,13.6366-7.5688c-1.6275-1.3855-3.3236-2.6925-5.0987-3.894c-1.6519,3.0206-4.8591,5.0742-8.5379,5.0742
			c-5.3624,0-9.7249-4.3624-9.7249-9.7249c0-1.1846,0.2264-2.3141,0.6168-3.3644c-2.062-0.5436-4.1682-0.9763-6.3133-1.2917
			c-0.4464,1.4753-0.6921,3.0371-0.6921,4.6562c0,4.2734,1.6834,8.1528,4.4077,11.0399c-3.2836,3.9193-5.9482,8.3692-7.8607,13.1979
			c-1.4235-0.2172-2.8807-0.3303-4.3639-0.3303c-15.8849,0-28.8085,12.9235-28.8085,28.8085
			c0,13.168,8.8842,24.2928,20.9707,27.7159c-3.8804,9.9332-11.4599,18.0239-21.0335,22.5787
			c2.2621,1.3013,4.6175,2.456,7.0584,3.4478c9.3706-5.6952,16.6528-14.4992,20.406-24.9696
			c0.4663,0.0226,0.9351,0.0357,1.4069,0.0357c15.8849,0,28.8085-12.9236,28.8085-28.8085c0-12.1557-7.5717-22.5695-18.2432-26.7928
			c1.7038-4.0959,4.0453-7.8593,6.8945-11.1766C76.3555,20.4248,77.2953,20.7338,78.2676,20.961z M80.4193,57.9994
			c0,12.3623-10.0576,22.4199-22.4198,22.4199c-12.3623,0-22.4199-10.0576-22.4199-22.4199
			c0-12.3622,10.0576-22.4199,22.4199-22.4199C70.3617,35.5795,80.4193,45.6371,80.4193,57.9994z"/>
	</g>
</g>
</svg>
