<svg viewBox="0 0 16 16" xmlns="http://www.w3.org/2000/svg" fill-rule="evenodd" clip-rule="evenodd"><title>Letterboxd</title><path d="M10.101 6.757a2.442 2.442 0 0 0-2.093-1.18c-.89 0-1.666.474-2.092 1.18a2.391 2.391 0 0 1 0 2.487 2.44 2.44 0 0 0 2.092 1.179c.89 0 1.666-.474 2.093-1.179a2.398 2.398 0 0 1 0-2.487" fill="none" stroke="#000" stroke-width=".25"/><path d="M5.917 6.757a2.442 2.442 0 0 0-2.093-1.18A2.432 2.432 0 0 0 1.383 8a2.432 2.432 0 0 0 2.441 2.423c.89 0 1.666-.474 2.093-1.179a2.398 2.398 0 0 1 0-2.487" fill="none" stroke="#000" stroke-width=".25"/><path d="M5.899 6.765a2.397 2.397 0 0 0 0 2.487 2.394 2.394 0 0 0 0-2.487"/><path d="M12.176 5.577c-.89 0-1.666.474-2.093 1.18a2.391 2.391 0 0 1 0 2.487 2.443 2.443 0 0 0 2.093 1.179A2.432 2.432 0 0 0 14.617 8a2.432 2.432 0 0 0-2.441-2.423" fill="none" stroke="#000" stroke-width=".25"/><path d="M10.101 6.765a2.398 2.398 0 0 0 0 2.487 2.391 2.391 0 0 0 0-2.487"/></svg>
