<svg role="img" viewBox="0 0 24 24" xmlns="http://www.w3.org/2000/svg"><title>LG</title><path d="M12 0C5.374 0 0 5.372 0 11.999 0 18.628 5.373 24 12 24c6.628 0 12-5.372 12-12.001C24 5.372 18.628 0 12 0m7.17 19.18a10.08 10.08 0 0 1-7.168 2.97 10.078 10.078 0 0 1-7.17-2.97 10.081 10.081 0 0 1-2.968-7.17c0-5.585 4.55-10.134 10.138-10.134l.57.006v1.123l-.57-.007a8.96 8.96 0 0 0-6.375 2.64 8.96 8.96 0 0 0-2.64 6.373c0 2.408.939 4.672 2.64 6.375a8.959 8.959 0 0 0 6.375 2.643c4.728 0 8.676-3.696 8.993-8.41 0 0 .002-.016.002-.035h-6.039v-1.119h6.684l.497-.002v.548a10.08 10.08 0 0 1-2.969 7.17m-4.212-2.942v1.123H11.43V6.657h1.142v9.582h2.386zM9.701 8.183A1.531 1.531 0 1 1 8.17 6.65c.845 0 1.532.688 1.532 1.532"/></svg>