<svg role="img" viewBox="0 0 24 24" xmlns="http://www.w3.org/2000/svg"><title>LibreOffice Calc</title><path d="M15 11h-2v-1h2v1zm-6 1H7v1h2v-1zm3-2h-2v1h2v-1zm-3 0H7v1h2v-1zm6-10 7 7V0h-7zM9 14H7v1h2v-1zm1.5-1.5H12V12h-2v1h.5v-.5zM10 14v1h.5v-1H10zm5-1.5V12h-2v.5h2zM22 9v12c0 1.662-1.338 3-3 3H5c-1.662 0-3-1.338-3-3V3c0-1.662 1.338-3 3-3h8l9 9zm-3.5 3.5H16V9H6v7h4.5v2.5h8v-6zM16 13h2v5h-7v-5h5zm-3 2h-1v2h1v-2zm2-1h-1v3h1v-3zm2 2h-1v1h1v-1zm1-3v5h-7v-5h7zm-4 4h1v-3h-1v3zm-2 0h1v-2h-1v2zm4 0h1v-1h-1v1z"/></svg>