<svg role="img" xmlns="http://www.w3.org/2000/svg" viewBox="0 0 24 24"><title>Libraries.io icon</title><path d="M3.83 23.996c-.205-.001-.43.01-.677 0-1.047.007-1.62-.02-1.894-.308-.26-.26-.277-.404-.298-2.718L.95 18.835l2.56-2.028 2.594-2.01-.008 3.632c.016 3.828.06 4.612-.167 5.083-.106.34-.497.487-2.1.483zm5.894-.421c-.35-.286-.347-1.285-.313-6.353v-5.037l2.565-2.02 2.587-1.999-.007 6.998c.01 4.196.075 7.07-.093 8.091-.279.699-1.073.545-2.476.62-.953-.036-1.863-.029-2.263-.3zm8.482-.014c-.319-.276-.308.011-.33-8.056-.015-7.2-.055-7.393.04-7.324.054.037 1.264.98 2.626 2.048l2.485 1.951-.016 5.388c.04 5.706-.01 5.669-.287 5.961-.24.255-.479.336-2.278.336-1.163-.016-2.15-.045-2.24-.304zM.972 15.558L.956 8.544c-.01-4.451.01-7.174.043-7.456C1.084.37 1.28.152 1.94.072 2.478.003 5.014-.01 5.404.125c.36.062.527.314.612.622.048.192.115 1.525.075 5.52l.02 5.265-2.57 2.01zm8.471-6.655c-.048 0-.038-7.187.016-7.703.074-.825.255-1.032.937-1.122A23.04 23.04 0 0111.88.025c1.972-.04 2.272.09 2.49.457.224.33.192 1.016.197 2.813v1.6l-2.554 2.006c-.855.672-1.707 1.341-2.57 2.002zm13.568 0l-2.538-1.987-2.571-2.012.01-1.8c-.01-1.032-.028-1.843.055-2.18.096-.607.284-.844 1.165-.852 1.373-.1 2.794-.129 3.41.137.458.234.575.652.474 5.218z"/></svg>