<svg role="img" viewBox="0 0 24 24" xmlns="http://www.w3.org/2000/svg"><title>LibreTube</title><path d="M2.032.0025c-.0441.004-.0858.0126-.1145.025-.0573.0244-.151.0966-.2082.1602-.1009.112-.1047.1996-.1186 2.7665-.0118 2.1814-.001 2.6752.058 2.7887.0549.1049 1.278.8181 5.0912 2.9693 2.7605 1.5573 5.0718 2.8905 5.1363 2.9627.0789.0883.1171.1973.1171.3336 0 .1376-.0375.2433-.1171.3297-.0645.0699-2.3738 1.3989-5.132 2.9533-4.0155 2.263-5.03 2.8556-5.0914 2.974-.0649.1256-.0743.5494-.062 2.8023l.0143 2.6544.1432.1432c.3018.3018-.3527.6578 10.5491-5.737 6.8708-4.0304 10.032-5.9118 10.0688-5.9923.1412-.31.6242-.0095-10.0531-6.253C6.8058 2.6628 2.2373.0177 2.1608.0053A.54.54 0 0 0 2.032.0025m.069 7.965c-.0671-.0017-.1405.0083-.1834.0268-.0573.0245-.151.0966-.2083.1603-.1017.113-.1044.1993-.1182 3.768-.0147 3.8328-.0134 3.8594.215 4.0193.2615.1831.3234.1539 3.6448-1.7255 1.7511-.9909 3.2248-1.8487 3.275-1.9063.132-.1517.1187-.4735-.026-.6335-.1466-.162-6.3394-3.6716-6.535-3.7036a.5.5 0 0 0-.0638-.0056"/></svg>