<svg role="img" viewBox="0 0 24 24" xmlns="http://www.w3.org/2000/svg"><title>Lichess icon</title><path d="M18.834 0c-1.729.204-3.16.442-4.55 1.462C2.466.63-.584 8.835.089 14.142c1.377 10.216 15.3 12.945 19.91 6.044-3.647 3.77-9.442 4.288-13.873 1.511-4.432-2.777-6.619-8.52-4.077-13.334 2.543-4.815 7.01-6.387 11.926-5.47 1.19-.694 2.559-1.577 3.75-1.56l-.831 2.38 6.246 10.47a3.075 3.076 0 01-2.673 2.995c-.282-.72-.801-1.442-2.373-2.957-1.57-1.516-8.554-4.987-7.733-7.942-.979 3.414 5.05 6.935 6.878 8.655 1.826 1.72 2.658 2.959 2.838 3.31 0 0 4.6-1.227 3.839-4.374L18.072 3.269z"/></svg>