<svg role="img" viewBox="0 0 24 24" xmlns="http://www.w3.org/2000/svg"><title>Lidl</title><path d="M24 0v24H0V0zM.209 23.791h23.582V.209H.209zm22.956-11.787c0 1.96-.517 3.886-1.497 5.584-4.3 7.444-15.045 7.442-19.342-.004C-1.971 10.138 3.403.833 12 .835c6.167.003 11.164 5.003 11.165 11.169zM12 1.54c-8.052 0-13.084 8.717-9.058 15.69 4.026 6.973 14.09 6.973 18.116 0a10.457 10.457 0 001.402-5.226C22.46 6.227 17.778 1.542 12 1.54zM9.206 15.153l-.357-.359.549-.546-1.486-1.49-.537.538v.651H2.73v-.714h.551v-2.464H2.73v-.71h3.289v.71H5.47v2.295l1.905-1.06v.576l2.129-2.133 1.847 1.847.808-.812v-.713h-.549v-.71h3.13c2.348 0 2.319 3.888-.006 3.888h-3.131v-.714h.556v-1.037zm10.685-5.094v.71h-.551v2.295l1.907-1.06v1.943h-4.649v-.714h.551v-2.464h-.551v-.71zM9.233 7.849a1.171 1.171 0 11-.001 2.342 1.171 1.171 0 01.001-2.342zm4.91 4.881h.157c.661 0 .661-1.46-.025-1.46h-.132z"/></svg>