<svg role="img" viewBox="0 0 24 24" xmlns="http://www.w3.org/2000/svg"><title>Lidl</title><path d="M23.791.209v23.583H.208V.209zM24 0H0v24h24zM9.229 7.85c-.644 0-1.167.521-1.167 1.166v.004a1.17 1.17 0 1 0 1.17-1.17zm-6.5 2.21v.709h.551v2.465h-.55v.713h4.645v-.65l.537-.54 1.486 1.49-.55.548.357.359 2.972-2.977v-.713l-.825.83h-.001l-1.847-1.846-2.129 2.132v-.575l-1.905 1.06v-2.296h.549v-.71zm13.869 0v.709h.55v2.465h-.55v.713h4.649v-1.942l-1.907 1.06v-2.296h.55v-.71z"/><path d="M12 .835h-.002C5.83.835.831 5.835.831 12.002c0 6.168 5 11.167 11.167 11.167s11.166-4.998 11.167-11.165C23.164 5.837 18.166.838 12 .834zm0 21.627c-5.777 0-10.46-4.683-10.46-10.46 0-5.777 4.683-10.46 10.46-10.46 5.777 0 10.46 4.683 10.46 10.46v.004C22.455 17.78 17.774 22.458 12 22.46z" fill="#000014"/><path d="M11.635 10.06v.709h.549v2.465h-.556v.713h3.13c2.325 0 2.354-3.888.007-3.888zm2.534 1.21h.131c.687 0 .687 1.46.025 1.46h-.156z"/></svg>