<svg role="img" viewBox="0 0 24 24" xmlns="http://www.w3.org/2000/svg"><title>Lightspeed</title><path d="m12 0 1.106 1.924c.221.399.221.885 0 1.283L6.514 14.643l3.12 5.398A2.75 2.75 0 0 0 12 21.412c.973 0 1.88-.53 2.367-1.371l3.119-5.398-.819-1.46-3.539 6.128a1.282 1.282 0 0 1-1.106.641c-.464 0-.885-.243-1.106-.641l-2.72-4.668 6.127-10.617 1.106 1.924c.22.398.22.885 0 1.283l-4.27 7.41.841 1.46 4.645-8.051 3.053 5.286a2.66 2.66 0 0 1 0 2.633L16.6 21.346C16.136 22.164 14.654 24 12 24s-4.114-1.836-4.6-2.654L4.301 15.97a2.66 2.66 0 0 1 0-2.633z"/></svg>