<svg role="img" viewBox="0 0 24 24" xmlns="http://www.w3.org/2000/svg"><title>Lime</title><path d="M12,24 C5.377,24 0.008,18.627 0.008,12 C0.008,5.372 5.377,0 12,0 C18.623,0 23.992,5.372 23.992,12 C23.992,18.627 18.623,24 12,24 M12.597,4.193 L12.597,9.481 C12.597,10.141 13.311,10.553 13.882,10.223 L18.459,7.579 C19.098,7.21 19.217,6.346 18.717,5.802 C17.472,4.453 15.826,3.48 13.969,3.072 C13.263,2.917 12.597,3.469 12.597,4.193 M13.969,20.927 C15.826,20.519 17.472,19.547 18.717,18.197 C19.217,17.654 19.098,16.79 18.459,16.42 L13.882,13.776 C13.311,13.447 12.597,13.859 12.597,14.519 L12.597,19.807 C12.597,20.531 13.263,21.082 13.969,20.927 M4.943,8.612 C4.305,8.243 3.497,8.57 3.277,9.275 C3.009,10.136 2.863,11.051 2.863,12 C2.863,12.949 3.009,13.864 3.277,14.724 C3.497,15.429 4.305,15.756 4.943,15.387 L9.522,12.742 C10.093,12.412 10.093,11.587 9.522,11.257 L4.943,8.612 Z M20.724,9.275 C20.503,8.57 19.696,8.244 19.057,8.612 L14.478,11.257 C13.907,11.587 13.907,12.412 14.478,12.742 L19.057,15.387 C19.696,15.756 20.503,15.429 20.723,14.724 C20.992,13.864 21.138,12.949 21.138,12 C21.138,11.051 20.992,10.136 20.724,9.275 M5.542,7.579 L10.119,10.223 C10.689,10.553 11.404,10.141 11.404,9.481 L11.404,4.192 C11.404,3.469 10.737,2.917 10.031,3.072 C8.174,3.48 6.528,4.453 5.284,5.802 C4.783,6.346 4.903,7.21 5.542,7.579 M10.118,13.776 L5.542,16.42 C4.903,16.79 4.783,17.654 5.284,18.197 C6.528,19.547 8.174,20.519 10.031,20.927 C10.737,21.082 11.404,20.531 11.404,19.807 L11.404,14.519 C11.404,13.859 10.69,13.447 10.118,13.776 M13.1,12 C13.1,12.607 12.608,13.1 12,13.1 C11.393,13.1 10.9,12.607 10.9,12 C10.9,11.392 11.393,10.899 12,10.899 C12.608,10.899 13.1,11.392 13.1,12"/></svg>