<svg width="2937" height="4380" viewBox="0 0 2937 4380" fill="none" xmlns="http://www.w3.org/2000/svg">
<path d="M790.383 3874.27H622.485V4369.24H790.383V3874.27Z" fill="#00DD00"/>
<path d="M184.752 3955.4C184.752 3947.15 185.276 3493.31 185.334 3411.43H17.4355C17.4355 3494.01 17.4937 3955.57 17.4937 3957.78C18.1329 4067.39 61.139 4170.49 138.666 4248.01C147.093 4256.61 156.101 4264.87 165.574 4272.6C242.171 4336.76 335.216 4369.24 442.324 4369.24H539.03V4201.87C522.525 4201.93 433.2 4201.99 431.34 4201.99C295.348 4201.99 184.752 4091.33 184.752 3955.4Z" fill="#00DD00"/>
<path d="M1945.56 3635.06C1888.14 3575.14 1815.44 3550.85 1736.4 3550.85C1654.92 3550.85 1582.28 3577.12 1526.31 3635.06C1484.99 3677.83 1460.81 3732.46 1460.81 3732.46C1460.81 3732.46 1436.69 3677.83 1395.32 3635.06C1339.35 3577.12 1266.7 3550.85 1185.22 3550.85C1106.13 3550.85 1033.43 3575.14 976.064 3635.06C914.054 3699.8 883.311 3793.02 883.311 3898.73C883.311 4081.1 883.136 4311.24 883.078 4367.44H1049.87C1050.28 4303.46 1052.08 4015.78 1052.08 3898.73C1052.08 3753.62 1131.35 3701.89 1209.23 3701.89C1226.66 3701.89 1243.92 3704.74 1260.49 3710.44C1294.08 3720.08 1330.63 3753.09 1346.73 3779.48C1362.19 3804.88 1372.48 3834.05 1372.48 3893.74V4367.44H1549.09V3893.74C1549.09 3834.05 1559.38 3804.88 1574.84 3779.48C1590.88 3753.09 1627.49 3720.08 1661.08 3710.44C1677.64 3704.8 1694.91 3701.89 1712.34 3701.89C1790.22 3701.89 1869.49 3753.62 1869.49 3898.73C1869.49 4015.72 1871.29 4303.46 1871.7 4367.44H2038.49C2038.43 4311.24 2038.26 4081.1 2038.26 3898.73C2038.31 3793.02 2007.63 3699.86 1945.56 3635.06Z" fill="#00DD00"/>
<path d="M2916.16 3952.61C2916.16 3842.59 2875.07 3755.54 2803.47 3678.01C2731.12 3599.61 2621.98 3550.79 2509.41 3550.79C2390.04 3550.79 2286.94 3596.94 2204.64 3683.47C2130.55 3761.35 2101.43 3853.81 2101.43 3968.18C2101.43 4082.73 2146.82 4190.88 2228.18 4263.82C2313.67 4340.48 2402.36 4379.94 2530.56 4379.94C2640.11 4379.94 2754.25 4337.57 2830.73 4281.84L2722.17 4173.28C2668.76 4210.53 2598.73 4233.89 2534.63 4233.89C2442.22 4233.89 2337.67 4175.19 2294.96 4096.85L2914.19 3987.71C2915.06 3977.77 2916.16 3963.18 2916.16 3952.61ZM2277.06 3940.58C2278.86 3818.3 2347.44 3703.75 2510.51 3703.75C2654.75 3703.75 2722.29 3799.35 2737.92 3875.78L2277.06 3956.97V3940.58Z" fill="#00DD00"/>
<path d="M706.462 3774.66C605.63 3774.66 580.466 3716.6 580.466 3662.43C580.466 3608.27 610.396 3550.21 706.462 3550.21C802.528 3550.21 832.458 3608.27 832.458 3662.43C832.458 3716.6 807.236 3774.66 706.462 3774.66Z" fill="#00DD00"/>
<path d="M1468.08 166.503C2185.76 166.503 2769.65 750.398 2769.65 1468.02C2769.65 2185.64 2185.76 2769.59 1468.08 2769.59C750.398 2769.59 166.503 2185.7 166.503 1468.08C166.503 750.456 750.398 166.503 1468.08 166.503ZM1468.08 0C657.296 0 0 657.238 0 1468.08C0 2278.92 657.296 2936.15 1468.08 2936.15C2278.86 2936.15 2936.15 2278.92 2936.15 1468.08C2936.15 657.238 2278.86 0 1468.08 0Z" fill="#00DD00"/>
<path d="M1468.08 1658C1572.97 1658 1658 1572.97 1658 1468.08C1658 1363.18 1572.97 1278.15 1468.08 1278.15C1363.18 1278.15 1278.15 1363.18 1278.15 1468.08C1278.15 1572.97 1363.18 1658 1468.08 1658Z" fill="#00DD00"/>
<path d="M1789.63 1186.56L2245.27 923.527C2335.11 871.629 2352.2 748.887 2279.67 674.672C2136.76 528.51 1954.69 420.762 1750.41 368.516C1649.46 342.654 1551.01 418.205 1551.01 522.466V1048.88C1551.07 1171.22 1683.63 1247.76 1789.63 1186.56Z" fill="#00DD00"/>
<path d="M1385.09 1048.77V522.35C1385.09 418.147 1286.64 342.596 1185.69 368.4C981.411 420.704 799.332 528.394 656.424 674.557C583.895 748.771 600.923 871.513 690.829 923.411L1146.46 1186.45C1252.52 1247.76 1385.09 1171.22 1385.09 1048.77Z" fill="#00DD00"/>
<path d="M1872.62 1605.81L2328.55 1869.02C2418.39 1920.86 2533.29 1874.37 2561.24 1774.47C2588.5 1677 2603.09 1574.2 2603.09 1468.02C2603.09 1361.84 2588.5 1259.03 2561.24 1161.57C2533.29 1061.67 2418.39 1015.18 2328.55 1067.02L1872.62 1330.22C1766.56 1391.54 1766.56 1544.62 1872.62 1605.81Z" fill="#00DD00"/>
<path d="M1146.46 1749.53L690.83 2012.57C600.982 2064.47 583.895 2187.21 656.425 2261.42C799.333 2407.59 981.411 2515.33 1185.69 2567.58C1286.64 2593.44 1385.09 2517.89 1385.09 2413.63V1887.21C1385.09 1764.88 1252.52 1688.34 1146.46 1749.53Z" fill="#00DD00"/>
<path d="M1063.47 1330.28L607.548 1067.07C517.701 1015.23 402.805 1061.73 374.851 1161.63C347.594 1259.09 333.007 1361.9 333.007 1468.08C333.007 1574.26 347.594 1677.06 374.851 1774.52C402.805 1874.43 517.701 1920.92 607.548 1869.08L1063.47 1605.87C1169.53 1544.62 1169.53 1391.54 1063.47 1330.28Z" fill="#00DD00"/>
<path d="M1551.07 1887.33V2413.75C1551.07 2517.95 1649.52 2593.5 1750.46 2567.7C1954.74 2515.39 2136.82 2407.7 2279.73 2261.54C2352.26 2187.32 2335.23 2064.58 2245.33 2012.69L1789.69 1749.65C1683.63 1688.34 1551.07 1764.88 1551.07 1887.33Z" fill="#00DD00"/>
</svg>
