<svg role="img" viewBox="0 0 24 24" xmlns="http://www.w3.org/2000/svg"><title>Lime</title><path d="M12 1.36c6.927 0 12.562 4.773 12.562 10.64 0 5.865-5.635 10.638-12.562 10.638S-.562 17.865-.562 12 5.073 1.36 12 1.36M12 0C4.174 0-2.17 5.372-2.17 12S4.175 24 12 24c3.923 0 7.474-1.35 10.041-3.533 2.551-2.17 4.128-5.161 4.128-8.467C26.17 5.37 19.826 0 12 0m0 13.553c1.012 0 1.834-.696 1.834-1.553s-.822-1.553-1.834-1.553-1.834.696-1.834 1.553.82 1.553 1.834 1.553m3.104-3.854 4.397-2.15c.867-.424 1.033-1.428.332-2.034-1.38-1.195-3.137-2.076-5.108-2.503-.975-.21-1.924.406-1.924 1.259v4.302c0 1 1.278 1.626 2.303 1.127M11.2 8.573V4.269c0-.85-.95-1.469-1.924-1.258-1.972.428-3.73 1.308-5.11 2.503-.699.607-.535 1.61.333 2.034l4.398 2.15c1.022.501 2.303-.124 2.303-1.125m4.705 4.553 4.401 2.151c.867.424 1.975.045 2.246-.773a7.97 7.97 0 0 0 0-5.01c-.27-.816-1.379-1.196-2.246-.772l-4.401 2.15c-1.022.503-1.022 1.753 0 2.254M8.896 14.3l-4.398 2.15c-.868.425-1.032 1.427-.331 2.035 1.378 1.195 3.136 2.074 5.108 2.503.974.21 1.924-.406 1.924-1.259v-4.305c0-1-1.28-1.625-2.303-1.126m-.801-3.427-4.4-2.15c-.867-.425-1.977-.045-2.247.773a7.97 7.97 0 0 0 0 5.009c.27.818 1.38 1.196 2.247.772l4.4-2.15c1.022-.501 1.022-1.752 0-2.254m4.705 4.555v4.302c0 .852.951 1.47 1.925 1.258 1.972-.427 3.728-1.308 5.108-2.501.7-.608.537-1.61-.33-2.036l-4.399-2.15c-1.024-.5-2.303.126-2.303 1.127"/></svg>