<?xml version="1.0" encoding="UTF-8" standalone="no" ?>
<!DOCTYPE svg PUBLIC "-//W3C//DTD SVG 1.1//EN" "http://www.w3.org/Graphics/SVG/1.1/DTD/svg11.dtd">
<svg xmlns="http://www.w3.org/2000/svg" xmlns:xlink="http://www.w3.org/1999/xlink" version="1.1" width="512" height="512" viewBox="0 0 512 512" xml:space="preserve">
<desc>Created with Fabric.js 5.2.4</desc>
<defs>
</defs>
<g transform="matrix(1 0 0 1 256 256)" id="02aedce2-d472-48b4-be71-9faaec8a63e2"  >
<rect style="stroke: none; stroke-width: 1; stroke-dasharray: none; stroke-linecap: butt; stroke-dashoffset: 0; stroke-linejoin: miter; stroke-miterlimit: 4; fill: rgb(255,255,255); fill-rule: nonzero; opacity: 1; visibility: hidden;" vector-effect="non-scaling-stroke"  x="-256" y="-256" rx="0" ry="0" width="512" height="512" />
</g>
<g transform="matrix(Infinity NaN NaN Infinity 0 0)" id="1d29bccc-4fa8-4729-ba5b-10d2e2d4aa14"  >
</g>
<g transform="matrix(0.47 0 0 0.47 256 239.38)"  >
<g style="" vector-effect="non-scaling-stroke"   >
		<g transform="matrix(1 0 0 1 -321.47 0)"  >
<path style="stroke: none; stroke-width: 1; stroke-dasharray: none; stroke-linecap: butt; stroke-dashoffset: 0; stroke-linejoin: miter; stroke-miterlimit: 4; fill: rgb(0,0,0); fill-rule: nonzero; opacity: 1;" vector-effect="non-scaling-stroke"  transform=" translate(-190.75, -190.32)" d="M 163.5 370.5 C 95.1 359.4 39.7 312.8 18.099999999999994 248.3 C 10.999999999999995 227.10000000000002 9.499999999999995 216.9 9.499999999999995 190.5 C 9.499999999999995 170.2 9.799999999999995 166.2 11.899999999999995 156 C 15.399999999999995 139 20.199999999999996 125.2 27.999999999999996 109.5 C 36.9 91.7 45.5 79.6 60 64.7 C 86.2 37.5 118.4 19.700000000000003 154 12.600000000000001 C 266.8 -10 372.2 76.2 372 191 C 371.9 238.7 354 282.6 320.6 316.9 C 294.3 343.79999999999995 263.90000000000003 360.7 227.20000000000002 368.7 C 217.20000000000002 370.8 212.4 371.3 194 371.59999999999997 C 178.5 371.79999999999995 170 371.49999999999994 163.5 370.49999999999994 z M 205.8 352 C 225.9 349.9 242.3 345.3 260 336.9 C 305.7 315.09999999999997 338.3 273.59999999999997 349.1 223.29999999999998 C 351.8 211.1 352.8 182.59999999999997 351.1 169.7 C 348.6 151 341.20000000000005 128.5 332.20000000000005 112.39999999999999 C 318.00000000000006 86.79999999999998 293.70000000000005 62.49999999999999 267.70000000000005 48.099999999999994 C 253.20000000000005 40.099999999999994 230.00000000000006 32.49999999999999 212.50000000000006 29.999999999999993 C 203.10000000000005 28.699999999999992 178.00000000000006 28.699999999999992 168.30000000000007 30.099999999999994 C 115.90000000000006 37.39999999999999 70.20000000000007 69.89999999999999 46.100000000000065 117.1 C 39.90000000000006 129.2 34.20000000000007 145.29999999999998 31.600000000000065 158 C 20.500000000000064 212.5 38.40000000000006 269.8 78.40000000000006 307.8 C 112.80000000000007 340.40000000000003 160.00000000000006 356.8 205.80000000000007 352 z" stroke-linecap="round" />
</g>
		<g transform="matrix(1 0 0 1 -380.12 85.09)"  >
<path style="stroke: none; stroke-width: 1; stroke-dasharray: none; stroke-linecap: butt; stroke-dashoffset: 0; stroke-linejoin: miter; stroke-miterlimit: 4; fill: rgb(0,0,0); fill-rule: nonzero; opacity: 1;" vector-effect="non-scaling-stroke"  transform=" translate(-132.1, -275.41)" d="M 145 323.5 C 126.7 317.2 109.4 306.9 95.8 294.1 C 86.5 285.40000000000003 84.7 282.3 84.7 275.5 C 84.7 269.8 86.5 265.8 90.7 261.8 C 92.2 260.40000000000003 107.2 251.20000000000002 124 241.5 L 154.5 223.9 L 161.2 224.20000000000002 C 166.89999999999998 224.50000000000003 168.5 225.00000000000003 171.7 227.60000000000002 C 179.7 234.10000000000002 179.5 232.8 179.5 275.5 C 179.5 318.2 179.7 316.9 171.7 323.3 C 165.89999999999998 328.1 158.6 328.1 145 323.5 z" stroke-linecap="round" />
</g>
		<g transform="matrix(1 0 0 1 -263.76 84.89)"  >
<path style="stroke: none; stroke-width: 1; stroke-dasharray: none; stroke-linecap: butt; stroke-dashoffset: 0; stroke-linejoin: miter; stroke-miterlimit: 4; fill: rgb(0,0,0); fill-rule: nonzero; opacity: 1;" vector-effect="non-scaling-stroke"  transform=" translate(-248.46, -275.21)" d="M 212.5 325.6 C 208.6 323.8 204.5 319.40000000000003 202.6 314.8 C 201.2 311.7 201 305.40000000000003 201 275.2 L 201 239.39999999999998 L 203.6 234.2 C 207.5 226.29999999999998 216 222.1 224.2 223.89999999999998 C 228.1 224.79999999999998 286 257.79999999999995 289.79999999999995 261.4 C 295.79999999999995 266.79999999999995 297.69999999999993 276.7 294.09999999999997 283.79999999999995 C 289.2 293.4 265.99999999999994 310.59999999999997 246.29999999999995 319.29999999999995 C 229.69999999999996 326.59999999999997 219.19999999999996 328.59999999999997 212.49999999999994 325.59999999999997 z" stroke-linecap="round" />
</g>
		<g transform="matrix(1 0 0 1 -412.63 0.66)"  >
<path style="stroke: none; stroke-width: 1; stroke-dasharray: none; stroke-linecap: butt; stroke-dashoffset: 0; stroke-linejoin: miter; stroke-miterlimit: 4; fill: rgb(0,0,0); fill-rule: nonzero; opacity: 1;" vector-effect="non-scaling-stroke"  transform=" translate(-99.59, -190.98)" d="M 67.5 241.5 C 62.2 239.6 56.4 233.3 55 227.9 C 50.5 211.3 48.8 189.2 50.9 173.8 C 52.6 161 55.6 150.20000000000002 58.6 146.3 C 62.5 141.20000000000002 68.2 138.70000000000002 74.9 139.20000000000002 C 80 139.60000000000002 83.4 141.3 110.5 157.00000000000003 C 127 166.50000000000003 141.7 175.40000000000003 143.2 176.80000000000004 C 152 184.90000000000003 150.89999999999998 199.80000000000004 141.1 206.40000000000003 C 134 211.20000000000005 82.69999999999999 240.30000000000004 79.1 241.60000000000002 C 74.5 243.3 72.39999999999999 243.20000000000002 67.5 241.50000000000003 z" stroke-linecap="round" />
</g>
		<g transform="matrix(1 0 0 1 -231.24 0.67)"  >
<path style="stroke: none; stroke-width: 1; stroke-dasharray: none; stroke-linecap: butt; stroke-dashoffset: 0; stroke-linejoin: miter; stroke-miterlimit: 4; fill: rgb(0,0,0); fill-rule: nonzero; opacity: 1;" vector-effect="non-scaling-stroke"  transform=" translate(-280.97, -190.99)" d="M 301.8 241.7 C 299.8 241 284.5 232.6 267.90000000000003 223 C 235.10000000000002 204 232.70000000000005 202.1 231.40000000000003 193.4 C 230.60000000000002 187.70000000000002 232.80000000000004 181.5 237.30000000000004 177.3 C 239.00000000000003 175.60000000000002 254.00000000000003 166.5 270.50000000000006 156.9 C 296.70000000000005 141.9 301.20000000000005 139.6 305.70000000000005 139.20000000000002 C 312.50000000000006 138.60000000000002 319.1 141.70000000000002 322.70000000000005 147.10000000000002 C 328.50000000000006 155.8 332.1 182.8 330.20000000000005 202.3 C 329.6 208.60000000000002 328.1 217.9 326.90000000000003 223 C 325.1 231 324.3 232.7 320.6 236.5 C 318.1 239.2 315 241.2 312.5 241.9 C 307.7 243.20000000000002 306.6 243.20000000000002 301.8 241.70000000000002 z" stroke-linecap="round" />
</g>
		<g transform="matrix(1 0 0 1 -321.9 0.51)"  >
<path style="stroke: none; stroke-width: 1; stroke-dasharray: none; stroke-linecap: butt; stroke-dashoffset: 0; stroke-linejoin: miter; stroke-miterlimit: 4; fill: rgb(0,0,0); fill-rule: nonzero; opacity: 1;" vector-effect="non-scaling-stroke"  transform=" translate(-190.31, -190.83)" d="M 183.8 212.9 C 179 211.5 172.5 205.8 169.8 200.6 C 166.8 195 166.8 186 169.8 180.4 C 174 172.3 181.3 168 190.70000000000002 168 C 210.00000000000003 168 220.10000000000002 190.8 207.50000000000003 205.8 C 202.20000000000002 212.20000000000002 192.00000000000003 215.20000000000002 183.80000000000004 212.9 z" stroke-linecap="round" />
</g>
		<g transform="matrix(1 0 0 1 -380.21 -84.21)"  >
<path style="stroke: none; stroke-width: 1; stroke-dasharray: none; stroke-linecap: butt; stroke-dashoffset: 0; stroke-linejoin: miter; stroke-miterlimit: 4; fill: rgb(0,0,0); fill-rule: nonzero; opacity: 1;" vector-effect="non-scaling-stroke"  transform=" translate(-132, -106.11)" d="M 154 156.6 C 150.5 155.29999999999998 97 124.5 91.7 120.8 C 90.2 119.7 88.10000000000001 117.2 87.10000000000001 115.2 C 81.10000000000001 103.2 85.10000000000001 94.7 103.4 80.6 C 118.2 69.3 129.9 62.99999999999999 146.8 57.3 C 162.8 52 170.8 53.699999999999996 176.8 63.8 L 179.5 68.5 L 179.5 105 C 179.5 125.1 179.2 142.7 178.7 144.2 C 177.6 148.2 172.1 154 167.5 156.1 C 162.8 158.29999999999998 158.8 158.4 154 156.6 z" stroke-linecap="round" />
</g>
		<g transform="matrix(1 0 0 1 -263.72 -84.45)"  >
<path style="stroke: none; stroke-width: 1; stroke-dasharray: none; stroke-linecap: butt; stroke-dashoffset: 0; stroke-linejoin: miter; stroke-miterlimit: 4; fill: rgb(0,0,0); fill-rule: nonzero; opacity: 1;" vector-effect="non-scaling-stroke"  transform=" translate(-248.5, -105.88)" d="M 214 156.7 C 209.1 155.1 203.6 149.2 202.1 143.89999999999998 C 201.2 140.7 201 129.79999999999998 201.2 103.29999999999998 L 201.5 67.19999999999999 L 204.5 62.79999999999999 C 208.1 57.69999999999999 214.7 53.999999999999986 220.3 53.999999999999986 C 230 53.999999999999986 256.2 65.29999999999998 270.90000000000003 75.79999999999998 C 290.6 89.89999999999998 296.6 97.59999999999998 295.8 107.49999999999999 C 295 117.49999999999999 293.8 118.49999999999999 260 138 C 243.4 147.6 228.3 156 226.6 156.7 C 222.79999999999998 158.1 218.6 158.1 214 156.7 z" stroke-linecap="round" />
</g>
		<g transform="matrix(1 0 0 1 427.5 13.58)"  >
<path style="stroke: none; stroke-width: 1; stroke-dasharray: none; stroke-linecap: butt; stroke-dashoffset: 0; stroke-linejoin: miter; stroke-miterlimit: 4; fill: rgb(0,0,0); fill-rule: nonzero; opacity: 1;" vector-effect="non-scaling-stroke"  transform=" translate(-939.72, -203.9)" d="M 927.5 279.5 C 910.8 276.4 898.7 269.8 885.5 256.6 C 878.1 249.20000000000002 875.6 245.90000000000003 872.2 239.00000000000003 C 865.8000000000001 225.80000000000004 864.5 219.90000000000003 864.5 203.00000000000003 C 864.5 186.20000000000002 865.9 179.90000000000003 872 167.40000000000003 C 878.8 153.50000000000003 891.9 141.20000000000005 908.1 133.50000000000003 C 930.9 122.70000000000003 961.2 125.40000000000003 982.6 140.10000000000002 C 994.4 148.20000000000002 1006 163.20000000000002 1011.2 177.20000000000002 C 1013.8000000000001 184.10000000000002 1014.4000000000001 187.4 1014.8000000000001 196.8 C 1015.1 204.60000000000002 1014.9000000000001 208 1014.2 208 C 1013.1 208 908 226.3 901.7 227.6 C 899 228.2 899 228.2 900.7 231.1 C 903.4000000000001 235.6 910.9000000000001 242.5 917.5 246.5 C 926.4 251.8 934.9 254.2 945 254.1 C 955.1 254.1 962.9 252.2 972.8 247.29999999999998 L 980.0999999999999 243.7 L 989.5999999999999 253.1 L 999.0999999999999 262.5 L 996.8 264.4 C 995.5 265.4 991.4 267.79999999999995 987.5 269.79999999999995 C 968.1 279.59999999999997 946.6 283.09999999999997 927.5 279.49999999999994 z M 954.9 192.4 C 972.3 189.3 982.4 187.1 982.6999999999999 186.3 C 983.5999999999999 184 977.3 172.20000000000002 972.4 167 C 960.5 154.2 936.9 150.4 919.3 158.5 C 905.5 164.8 896 180.8 896 197.9 L 896 202.70000000000002 L 911.8 199.9 C 920.4 198.4 939.8 195 954.9 192.4 z" stroke-linecap="round" />
</g>
		<g transform="matrix(1 0 0 1 9.78 -0.82)"  >
<path style="stroke: none; stroke-width: 1; stroke-dasharray: none; stroke-linecap: butt; stroke-dashoffset: 0; stroke-linejoin: miter; stroke-miterlimit: 4; fill: rgb(0,0,0); fill-rule: nonzero; opacity: 1;" vector-effect="non-scaling-stroke"  transform=" translate(-522, -189.5)" d="M 536.7 277.4 C 507.00000000000006 272.09999999999997 483.1 249.2 475.90000000000003 219.49999999999997 C 474.20000000000005 212.09999999999997 474.00000000000006 207.29999999999998 474.00000000000006 155.79999999999995 L 474.00000000000006 99.99999999999996 L 489.00000000000006 99.99999999999996 L 504.00000000000006 99.99999999999996 L 504.00000000000006 152.99999999999994 C 504.00000000000006 187.69999999999993 504.40000000000003 207.69999999999993 505.1000000000001 211.19999999999993 C 508.1000000000001 225.29999999999993 517.3000000000001 237.09999999999994 530.6000000000001 243.69999999999993 L 538.4000000000001 247.49999999999994 L 554.2 247.79999999999995 L 570 248.19999999999996 L 570 263.59999999999997 L 570 278.99999999999994 L 557.3 278.8999999999999 C 550.1999999999999 278.8999999999999 541 278.19999999999993 536.6999999999999 277.3999999999999 z" stroke-linecap="round" />
</g>
		<g transform="matrix(1 0 0 1 89.78 42.68)"  >
<path style="stroke: none; stroke-width: 1; stroke-dasharray: none; stroke-linecap: butt; stroke-dashoffset: 0; stroke-linejoin: miter; stroke-miterlimit: 4; fill: rgb(0,0,0); fill-rule: nonzero; opacity: 1;" vector-effect="non-scaling-stroke"  transform=" translate(-602, -233)" d="M 587 233 L 587 187 L 602 187 L 617 187 L 617 233 L 617 279 L 602 279 L 587 279 L 587 233 z" stroke-linecap="round" />
</g>
		<g transform="matrix(1 0 0 1 231.28 12.68)"  >
<path style="stroke: none; stroke-width: 1; stroke-dasharray: none; stroke-linecap: butt; stroke-dashoffset: 0; stroke-linejoin: miter; stroke-miterlimit: 4; fill: rgb(0,0,0); fill-rule: nonzero; opacity: 1;" vector-effect="non-scaling-stroke"  transform=" translate(-743.5, -203)" d="M 636.2 226.8 L 636.5 174.5 L 639.2 166.5 C 642.9000000000001 155.8 648.3000000000001 146.8 655.1 140.6 C 665.7 130.79999999999998 676 127 692.3000000000001 127 C 712.8000000000001 127 729.4000000000001 136.4 739.2 153.7 C 740.9000000000001 156.6 742.5 159.2 743 159.5 C 743.4 159.7 745.4 157.2 747.5 153.9 C 758.8 135.5 773.9 127 794.8 127 C 811.5999999999999 127 822.5 131.3 833.1999999999999 142.1 C 837.8 146.79999999999998 840.9 151.1 843.3 156.2 C 850.4 171 850.3 169.89999999999998 850.6999999999999 227.29999999999998 L 851.0999999999999 279 L 836.1999999999999 279 L 821.3 279 L 820.6999999999999 230.3 C 820.1999999999999 184.60000000000002 819.9999999999999 181.10000000000002 818.0999999999999 174.9 C 815.6999999999999 167.20000000000002 809.9999999999999 160.1 803.5999999999999 156.70000000000002 C 797.8999999999999 153.70000000000002 784.4999999999999 153.60000000000002 777.9999999999999 156.60000000000002 C 771.4999999999999 159.60000000000002 764.5999999999999 167.00000000000003 761.8999999999999 173.8 C 759.5999999999999 179.4 759.5999999999999 180.3 759.1999999999998 229.3 L 758.7999999999998 279 L 742.9999999999999 279 L 727.0999999999999 279 L 726.8 227.8 L 726.5 176.5 L 724.1 171.7 C 720.7 164.79999999999998 712.1 157.39999999999998 705.2 155.39999999999998 C 692.9000000000001 151.79999999999998 679.9000000000001 155.89999999999998 673.3000000000001 165.39999999999998 C 666.6 175.09999999999997 666.6 175.2 666.2 229.79999999999998 L 665.9000000000001 279 L 650.9000000000001 279 L 635.9000000000001 279 L 636.2 226.8 z" stroke-linecap="round" />
</g>
		<g transform="matrix(1 0 0 1 89.88 -43.36)"  >
<path style="stroke: none; stroke-width: 1; stroke-dasharray: none; stroke-linecap: butt; stroke-dashoffset: 0; stroke-linejoin: miter; stroke-miterlimit: 4; fill: rgb(0,0,0); fill-rule: nonzero; opacity: 1;" vector-effect="non-scaling-stroke"  transform=" translate(-602.1, -146.96)" d="M 596.2 166.9 C 586.5 165.6 580.8000000000001 159.8 579.4000000000001 149.8 C 578.2 141 582.4000000000001 132.9 590.4000000000001 128.8 C 598.1000000000001 124.80000000000001 613.2 126.4 619.4000000000001 131.8 C 622.6000000000001 134.70000000000002 625.0000000000001 141.10000000000002 625.0000000000001 147.3 C 625.0000000000001 162 614.2000000000002 169.3 596.2000000000002 166.9 z" stroke-linecap="round" />
</g>
</g>
</g>
</svg>