<svg xmlns="http://www.w3.org/2000/svg" aria-labelledby="simpleicons-line-webtoon-icon" role="img" viewBox="0 0 24 24"><title id="simpleicons-line-webtoon-icon">LINE WEBTOON icon</title><path d="M21.612.539c.15.063.044.34.029.524-.25 2.995-.524 6.16-.787 9.146.99.068 2.107.01 3.146.029-.457 2.882-.976 5.704-1.427 8.592-3.392 1.53-6.74 3.105-10.136 4.631v-3.379c-2.837.377-5.83.851-8.709 1.282C2.484 17.541 1.23 13.727 0 9.888h3.612c-.533-2.118-1.108-4.193-1.66-6.29C8.518 2.59 15.063 1.562 21.612.537zM18.67 6.772c-.722-.804-2.576-.238-3.757-.233-.033 1.501-.06 3.163 0 4.66 1.245-.03 3.231.366 3.873-.466.438-.567.3-1.781-.407-1.951.582-.384.775-1.47.29-2.01zm-7.427 0c-.027 1.4-.096 2.914-.03 4.31 1.016.036 2.278.127 3.204.059.05-.287.046-.762 0-1.049a24.322 24.322 0 0 0-2.038-.058c.019-.185-.039-.446.029-.583.574-.018 1.221.038 1.747-.029.058-.316.093-.793.03-1.136-.553-.084-1.266.072-1.806 0 .015-.17-.033-.401.029-.524.687-.022 1.39-.028 2.01-.116.033-.322.096-.75.029-1.078-1.104.032-2.162.11-3.204.204zm-1.515.116c-.233.825-.425 1.691-.64 2.534-.214-.805-.391-1.648-.612-2.446-.296-.02-.74.025-1.078.058-.239.78-.39 1.65-.64 2.417-.125-.817-.336-1.547-.496-2.33-.367.031-.827-.031-1.077.117.207 1.22.58 2.526.903 3.728.416-.009.81.005 1.194.03.249-.664.395-1.43.64-2.098.17.733.348 1.458.583 2.126.44-.04.873.077 1.252 0 .386-1.362.84-2.81 1.107-4.194-.338-.056-.806.01-1.136.058zm-6.233 4.923c-.136.345-.008.917 0 1.31.355.068.995-.015 1.427.059.02 1.223-.038 2.524.03 3.699.455-.04.954-.036 1.368-.117.005-1.18-.006-2.497 0-3.582.428-.019.931.037 1.311-.03.051-.339.034-.896.03-1.194-1.313-.124-2.78-.093-4.166-.145zm4.253 2.708c.06.97.538 1.644 1.31 1.981 1.6.697 3.5-.189 3.495-2.214-.002-.817-.42-1.504-.815-1.835-.443-.37-1.15-.602-1.98-.495-1.28.166-2.098 1.147-2.01 2.563zm5.126-.203c.045 2.027 2.636 2.818 3.815 1.398.305-.367.531-.903.525-1.544-.014-1.266-.942-2.261-2.447-2.097-1.217.132-1.921.977-1.893 2.243zm4.806-2.185a.148.148 0 0 0-.088.087c.015 1.317-.051 2.55-.029 3.874.364.07.831-.002 1.194-.029.087-.535-.028-1.271.058-1.806.486.524.809 1.211 1.282 1.748.271-.069.693.013.961-.058.083-1.19.154-2.545.146-3.729a4.254 4.254 0 0 0-1.107 0c-.105.565.066 1.406-.087 1.923-.51-.608-.878-1.356-1.37-1.98a8.964 8.964 0 0 1-.96-.03z"/><path d="M17.417 7.587c.042.094.028.245.03.379-.172.315-.843.282-1.282.233V7.5c.408-.008 1.009-.161 1.252.087zM16.165 10.18v-.758c.655-.078 1.76-.023 1.34.612-.193.292-.869.078-1.34.146zM10.049 13.209c.184-.022.487-.003.67.087.968.476.524 2.617-.933 2.097-.912-.326-.81-2.056.263-2.184zM14.913 13.238c.457-.07.844.137.99.408.534.994-.62 2.187-1.456 1.427-.567-.516-.359-1.708.466-1.835z"/></svg>