<svg viewBox="0 0 16 16" xmlns="http://www.w3.org/2000/svg" fill-rule="evenodd" clip-rule="evenodd" stroke-linejoin="round" stroke-miterlimit="1.414"><path d="M13.106.014L2.916 0c-1.6-.002-2.9 1.293-2.9 2.894L0 13.084c-.002 1.6 1.294 2.9 2.894 2.902l10.19.014c1.6.002 2.9-1.293 2.9-2.894L16 2.916c.002-1.6-1.294-2.9-2.894-2.902zm.722 7.282c0-2.606-2.613-4.727-5.825-4.727S2.177 4.69 2.177 7.295c0 2.337 2.073 4.294 4.872 4.665.19.04.447.126.512.288.06.147.04.378.02.526l-.084.5c-.025.146-.117.575.505.313.62-.262 3.354-1.975 4.576-3.382.843-.926 1.248-1.865 1.248-2.91zm-3.712-1.07c0-.167.137-.305.305-.305h1.158c.17 0 .306.14.306.307 0 .168-.137.305-.306.305h-.85v.547h.85c.17 0 .306.136.306.304 0 .17-.137.306-.306.306h-.85v.546h.85c.17 0 .306.137.306.306 0 .168-.137.305-.306.305H10.42c-.167 0-.304-.137-.304-.305V6.227zm-.41 2.316c0 .132-.084.248-.21.29-.03.01-.063.015-.096.015-.095 0-.187-.045-.244-.122L7.97 7.11v1.432c0 .168-.137.305-.306.305-.168 0-.305-.137-.305-.305V6.227c0-.132.083-.248.207-.29.032-.01.065-.016.097-.016.096 0 .187.047.244.124L9.095 7.66V6.226c0-.168.137-.306.305-.306.17 0 .306.14.306.307v2.315zm-2.787 0c0 .168-.138.305-.306.305-.168 0-.305-.137-.305-.305V6.227c0-.168.136-.306.304-.306.168 0 .305.14.305.307v2.315zm-1.198.305H4.565c-.168 0-.306-.137-.306-.305V6.227c0-.168.137-.306.305-.306.168 0 .305.14.305.307v2.01h.852c.17 0 .306.136.306.305 0 .168-.137.305-.306.305z" fill="#fff"/></svg>