<svg viewBox="0 0 16 16" xmlns="http://www.w3.org/2000/svg" fill-rule="evenodd" clip-rule="evenodd" stroke-linejoin="round" stroke-miterlimit="1.414"><path d="M12.91 6.57c.232 0 .42.19.42.42 0 .23-.188.42-.42.42h-1.17v.75h1.17c.232 0 .42.188.42.42 0 .23-.188.42-.42.42h-1.59c-.23 0-.418-.19-.418-.42V5.4c0-.23.188-.42.42-.42h1.59c.23 0 .418.19.418.42 0 .232-.188.42-.42.42h-1.17v.75h1.17zm-2.57 2.01c0 .18-.116.34-.288.398-.043.014-.088.02-.133.02-.132 0-.257-.06-.336-.167l-1.63-2.217V8.58c0 .23-.187.42-.42.42-.23 0-.418-.19-.418-.42V5.4c0-.18.115-.34.286-.397.044-.015.09-.022.134-.022.13 0 .256.064.335.17L9.5 7.366V5.4c0-.23.188-.42.42-.42.23 0 .42.19.42.42v3.18zm-3.828 0c0 .23-.188.42-.42.42-.23 0-.418-.19-.418-.42V5.4c0-.23.188-.42.42-.42.23 0 .418.19.418.42v3.18zM4.868 9h-1.59c-.23 0-.42-.19-.42-.42V5.4c0-.23.19-.42.42-.42.232 0 .42.19.42.42v2.76h1.17c.232 0 .42.188.42.42 0 .23-.188.42-.42.42M16 6.87C16 3.29 12.41.376 8 .376S0 3.29 0 6.87c0 3.208 2.846 5.896 6.69 6.405.26.056.615.172.705.394.08.2.053.518.026.722 0 0-.092.565-.113.685-.035.203-.16.79.693.432.854-.36 4.607-2.714 6.285-4.646C15.445 9.594 16 8.302 16 6.87" fill-rule="nonzero"/></svg>