<svg role="img" viewBox="0 0 24 24" xmlns="http://www.w3.org/2000/svg"><title>Linktree</title><path d="M7.953 15.066c-.08.163-.08.324-.08.486.08.517.528.897 1.052.89h1.294v4.776c0 .486-.404.89-.89.89H6.577a.898.898 0 0 1-.889-.891v-4.774H.992c-.728 0-1.214-.729-.89-1.377l6.96-12.627a1.065 1.065 0 0 1 1.863 0l2.913 5.585-3.885 7.042zm15.945 0l-6.96-12.627a1.065 1.065 0 0 0-1.862 0l-2.995 5.586 3.885 7.04c.081.164.081.326.081.487-.08.517-.529.897-1.052.89h-1.296v4.776c.005.49.4.887.89.89h2.914a.9.9 0 0 0 .892-.89v-4.775h4.612c.73 0 1.214-.729.89-1.377Z"/></svg>