<svg role="img" viewBox="0 0 24 24" xmlns="http://www.w3.org/2000/svg"><title>Linode icon</title><path d="M22.0061 10.6836a.15.15 0 00-.07-.1501l-3.261-1.8206a.14.14 0 00-.1401 0l-2.771 1.6906a.17.17 0 00-.07.13v1.4505l-1.1304-.7403a.14.14 0 00-.15 0l-1.6205 1.0004-.07-1.6406a.19.19 0 00-.07-.12L11.0024 9.393l1.5105-.7802a.16.16 0 00.08-.14l-.2701-6.2722a.16.16 0 00-.08-.13L8.0015 0h-.1l-5.822 1.8106a.16.16 0 00-.08.19l1.2704 6.2321a.22.22 0 000 .08l1.8306 1.3805-1.2604.6002a.16.16 0 00-.08.17l1.0003 4.7016a.18.18 0 000 .07l1.2404 1.1404-.8003.4902a.15.15 0 00-.06.16l.7503 3.6413a.11.11 0 000 .07l3.001 3.221a.14.14 0 00.2 0l3.9213-3.121a.16.16 0 00.06-.12l-.07-2.1207 1.3205 1.1003a.14.14 0 00.18 0l3.141-2.5108a.24.24 0 00.06-.11l.0901-1.5706 1.0004.6703a.14.14 0 00.17 0l2.5709-2.0007a.14.14 0 00.05-.1zm-9.6232.15l.07 1.5705.12 2.781-4.2313 2.8709-.6602-4.5315zm-.3501-8.4228l.25 5.912-5.0016 2.5908-.9003-6.322zM3.54 8.1227l-1.2104-5.862 3.7412 2.3208.9303 6.202-1.5805-1.2003zm1.4605 6.9323l-.8803-4.2614 3.281 2.7409.6003 4.3815-1.6806-1.6206zm1.1403 5.5118l-.6502-3.141 2.891 2.851.4701 3.161zm3.001 3.001l-.4901-3.331 4.0013-2.871.14 3.281zm3.8613-5.3617v-1.0804a.16.16 0 00-.05-.11l-1.1304-.9203 1.0004-.7003a.14.14 0 00.06-.12v-.2601l1.3904 1.0603v3.2111zm4.4415-1.2004l-2.861 2.2807v-3.221l3.071-2.2008zm1.2904-1.2104l-.9003-.6303.09-1.5905a.11.11 0 000-.06.1.1 0 000-.05l-1.9306-1.2704v-1.3905l3.001 1.8906zm2.5509-1.8607l-2.2808 1.8106.2601-3.061 2.4308-1.6805z"/></svg>