<svg xmlns="http://www.w3.org/2000/svg" viewBox="0 0 16 16"><path d="M8.337 0c-.103 0-.21.005-.32.014-2.818.222-2.07 3.205-2.112 4.199-.052.728-.2 1.303-.701 2.014-.59.7-1.418 1.833-1.81 3.013-.186.555-.274 1.123-.192 1.66-.026.023-.051.046-.074.09-.173.178-.3.4-.442.559-.133.133-.323.178-.531.267-.208.09-.438.179-.576.454a.89.89 0 0 0-.088.4c0 .133.019.268.037.357.038.267.077.487.025.647-.165.453-.186.764-.07.99.116.223.357.312.627.4.54.134 1.273.09 1.85.4.617.312 1.244.447 1.744.313a1.18 1.18 0 0 0 .806-.63c.391-.002.82-.179 1.506-.223.466-.038 1.05.177 1.719.133.017.089.042.133.076.222l.002.002c.26.52.742.755 1.256.715.514-.04 1.061-.357 1.504-.871.421-.51 1.122-.722 1.586-1.002.232-.133.419-.312.433-.568.015-.267-.133-.541-.476-.918v-.065l-.002-.002c-.113-.133-.167-.356-.225-.617-.057-.267-.121-.524-.328-.697h-.002c-.04-.036-.083-.045-.125-.09a.252.252 0 0 0-.127-.043c.287-.852.175-1.7-.115-2.463-.356-.94-.977-1.758-1.451-2.322-.53-.67-1.05-1.305-1.04-2.246.017-1.434.157-4.088-2.364-4.092zm.353 2.27h.008c.143 0 .265.041.39.132.128.09.22.222.293.356.07.172.105.306.11.482 0-.013.004-.026.004-.039v.069a.05.05 0 0 1-.002-.014L9.49 3.24a1.184 1.184 0 0 1-.1.471.633.633 0 0 1-.142.223c-.02-.01-.038-.02-.059-.028-.07-.03-.133-.043-.19-.088a.86.86 0 0 0-.146-.045c.033-.039.097-.088.121-.132a.779.779 0 0 0 .059-.268v-.012a.803.803 0 0 0-.04-.267c-.03-.09-.067-.134-.122-.223-.056-.044-.111-.088-.178-.088h-.01c-.062 0-.117.02-.174.088a.542.542 0 0 0-.138.223.788.788 0 0 0-.059.267v.012a1.44 1.44 0 0 0 .012.178c-.128-.045-.291-.09-.404-.135a1.102 1.102 0 0 1-.012-.133V3.27a1.189 1.189 0 0 1 .1-.512.73.73 0 0 1 .287-.356.653.653 0 0 1 .394-.132zm-1.975.039h.024c.095 0 .18.032.267.09a.918.918 0 0 1 .229.31c.06.133.093.267.102.445v.002c.004.09.003.134-.002.178v.053c-.02.005-.037.012-.055.017-.102.036-.183.089-.262.133a.725.725 0 0 0 .002-.178v-.01c-.008-.088-.026-.133-.055-.222a.41.41 0 0 0-.11-.178.17.17 0 0 0-.122-.043h-.014c-.048.004-.087.027-.125.088a.358.358 0 0 0-.08.18.651.651 0 0 0-.015.22v.01c.008.09.025.134.054.223.03.089.064.133.11.178a.224.224 0 0 0 .023.017c-.047.037-.078.046-.117.09-.025.018-.054.04-.088.045a1.804 1.804 0 0 1-.184-.268 1.182 1.182 0 0 1-.103-.445 1.157 1.157 0 0 1 .053-.445.945.945 0 0 1 .19-.356c.085-.089.173-.134.278-.134zm.914 1.138c.221 0 .488.043.81.266.196.133.349.179.702.312h.002c.17.09.27.177.319.266v-.088a.38.38 0 0 1 .01.313c-.082.207-.344.429-.71.562v.002c-.178.09-.334.222-.517.31-.184.09-.392.195-.674.178a.758.758 0 0 1-.299-.045 2.364 2.364 0 0 1-.215-.132c-.13-.09-.242-.222-.408-.31v-.003h-.002c-.267-.164-.411-.341-.457-.474-.046-.178-.003-.312.129-.4.149-.09.253-.18.322-.224.069-.049.095-.067.117-.087h.002V3.89c.112-.134.29-.312.559-.4.092-.024.195-.043.31-.044zm1.866 1.428c.24.945.799 2.317 1.158 2.982.191.356.57 1.106.734 2.016.104-.003.22.012.342.043.43-1.114-.364-2.311-.726-2.644-.147-.134-.155-.223-.082-.223.393.356.91 1.048 1.097 1.838.086.356.106.736.014 1.113.045.019.09.04.137.045.688.356.942.626.82 1.025v-.029c-.04-.002-.08 0-.12 0h-.009c.1-.311-.122-.55-.711-.816-.61-.267-1.097-.224-1.18.31-.005.029-.008.045-.011.09-.046.016-.093.035-.14.043-.286.178-.441.446-.528.791-.087.356-.113.771-.137 1.246v.002c-.015.222-.114.558-.213.9-1 .715-2.387 1.026-3.566.223a1.723 1.723 0 0 0-.268-.355.95.95 0 0 0-.184-.223c.121 0 .226-.02.31-.045a.409.409 0 0 0 .21-.223c.072-.178 0-.464-.23-.775s-.62-.663-1.192-1.014c-.42-.267-.657-.58-.767-.931-.11-.356-.095-.723-.01-1.096.163-.714.582-1.407.85-1.842.071-.044.024.09-.272.649-.265.501-.761 1.665-.082 2.57a5.408 5.408 0 0 1 .432-1.918c.376-.852 1.162-2.336 1.224-3.512.032.024.144.09.193.135.145.089.253.222.393.31.14.134.318.223.584.223.026.002.05.004.074.004.274 0 .486-.089.664-.178.194-.089.348-.223.494-.267H8.8c.31-.09.556-.268.696-.467zm1.457 5.973c.025.4.229.83.588.918.392.089.956-.222 1.195-.51l.14-.006c.21-.005.385.007.565.178l.002.002c.138.133.203.354.26.584.057.267.102.52.273.71.324.352.43.605.424.76l.002-.004v.012l-.002-.008c-.01.175-.124.265-.332.397-.42.267-1.164.474-1.639 1.047-.412.492-.914.76-1.357.795-.443.035-.825-.134-1.05-.6l-.003-.002c-.14-.267-.08-.683.037-1.127.118-.445.286-.897.309-1.265.024-.476.051-.89.13-1.21.08-.31.205-.531.427-.656l.03-.015zm-7.21.033h.007a.68.68 0 0 1 .105.008c.251.037.47.223.682.502l.607 1.109.002.002c.162.356.503.71.793 1.092.289.398.513.754.486 1.047v.004c-.038.495-.32.765-.75.863-.43.089-1.014.001-1.597-.31-.645-.357-1.412-.312-1.905-.401-.246-.044-.408-.134-.482-.268-.074-.133-.075-.4.082-.82v-.002l.002-.002c.078-.222.02-.502-.018-.746-.037-.267-.056-.472.028-.627.107-.222.265-.266.46-.355.196-.09.427-.135.61-.313h.002v-.002c.17-.178.297-.4.445-.558.126-.134.253-.223.442-.223zm4.773-6.05c-.29.134-.63.356-.992.356s-.647-.177-.853-.31c-.103-.09-.186-.179-.249-.223-.109-.09-.096-.223-.05-.223.074.01.086.09.133.134.064.044.144.133.241.222.194.134.453.311.778.311.323 0 .701-.177.932-.31.13-.09.297-.223.432-.312.104-.09.1-.178.186-.178.086.01.023.089-.098.222-.12.09-.307.223-.46.312zm-.722-1.056V3.76c-.004-.013.009-.028.02-.034.05-.028.12-.018.173.003.042 0 .107.045.1.09-.004.032-.056.044-.09.044-.036 0-.061-.028-.093-.045-.036-.012-.098-.006-.11-.044zm-.367 0c-.013.038-.075.032-.11.044-.032.017-.058.045-.093.045-.034 0-.087-.012-.091-.045-.006-.044.059-.089.1-.089.054-.02.123-.031.173-.003.012.006.024.02.02.034v.014z"/></svg>
