<svg role="img" viewBox="0 0 24 24" xmlns="http://www.w3.org/2000/svg"><title>Linux Mint</title><path d="M5.438 5.906v8.438c0 2.06 1.69 3.75 3.75 3.75h5.625c2.06 0 3.75-1.69 3.75-3.75V9.656a2.827 2.827 0 0 0-2.813-2.812 2.8 2.8 0 0 0-1.875.737A2.8 2.8 0 0 0 12 6.844a2.827 2.827 0 0 0-2.812 2.812v4.688h1.875V9.656c0-.529.408-.937.937-.937s.938.408.938.937v4.688h1.875V9.656c0-.529.408-.937.937-.937s.938.408.938.937v4.688a1.86 1.86 0 0 1-1.875 1.875H9.188a1.86 1.86 0 0 1-1.875-1.875V5.906ZM12 0C5.384 0 0 5.384 0 12s5.384 12 12 12 12-5.384 12-12S18.616 0 12 0m0 1.875A10.11 10.11 0 0 1 22.125 12 10.11 10.11 0 0 1 12 22.125 10.11 10.11 0 0 1 1.875 12 10.11 10.11 0 0 1 12 1.875"/></svg>