<svg xmlns="http://www.w3.org/2000/svg" viewBox="0 0 16 16"><style>.a{fill:#202020;}.b{fill:#fff;}</style><path d="m14.112463 12.571318c-0.000186 0-0.000391-0.000444-0.000391-0.000444-0.112901-0.133453-0.166727-0.355875-0.224556-0.616997-0.0577-0.266906-0.122243-0.52358-0.328694-0.697069-0.000391 0-0.000949-0.000444-0.0013-0.000889-0.04093-0.03594-0.08296-0.0444-0.125223-0.08897-0.0424-0.02531-0.08541-0.04439-0.128382-0.04439 0.28701-0.852323 0.174509-1.6997478-0.11535-2.4630978C12.833048 7.7186191 12.212266 6.901888 11.738073 6.3382723 11.207322 5.6678945 10.688275 5.0335489 10.698519 4.0922619 10.714314 2.658534 10.856083 0.00460287 8.3349593 0.00015444137 8.232423-0.00029040126 8.1254829 0.00415803 8.0140498 0.01305488 5.1967724 0.2354762 5.944068 3.2177012 5.9022083 4.2119245 5.8506955 4.9396871 5.7029633 5.516648 5.2016078 6.2270617 4.6128141 6.9281337 3.7834815 8.0602582 3.3907669 9.2408706 3.205481 9.7955893 3.1172999 10.363653 3.1985949 10.901023c-0.025486 0.02264-0.049671 0.04435-0.072928 0.08897-0.1728259 0.177937-0.3006291 0.400358-0.4429432 0.559167-0.1330124 0.133453-0.3223952 0.177937-0.5307506 0.266906-0.2083599 0.08897-0.4369912 0.177937-0.575771 0.452849l-0.0001859 0c-0.0001855 0.000445-0.0003724 0.00089-0.0007438 0.0013-0.065298 0.133453-0.086504 0.266906-0.086504 0.400358 0 0.133453 0.018231 0.266906 0.036649 0.355874 0.038323 0.266906 0.077202 0.488438 0.025676 0.648136-0.1648276 0.45285-0.1860333 0.76335-0.069952 0.989775 0.1164554 0.222421 0.3555049 0.31139 0.6258135 0.400358 0.5406111 0.133453 1.2726494 0.08897 1.8495356 0.400359l0.049671-0.08897-0.049115 0.08897c0.6176284 0.31139 1.2438138 0.444842 1.7433116 0.31139 0.3624133-0.08897 0.6563208-0.31139 0.8073805-0.630342 0.3906608-0.0018 0.8194757-0.177937 1.5063083-0.222422 0.4660127-0.03777 1.0481026 0.177937 1.7176353 0.133453 0.017487 0.08897 0.042806 0.133453 0.077403 0.222421 0.0003901 0.000401 0.0007429 0.000846 0.00113 0.0017 0.2595213 0.519132 0.7416903 0.754453 1.2557193 0.714418 0.51455-0.04084 1.061671-0.355875 1.504076-0.870113l-0.08109-0.08897 0.08167 0.08897c0.421577-0.510234 1.121221-0.723314 1.58537-1.00312 0.231986-0.133453 0.420065-0.31139 0.434789-0.568064 0.01447-0.266905-0.13492-0.541373-0.478326-0.9186z" class="a"/><path d="m14.397618 13.479865c-0.0089 0.177937-0.122599 0.266906-0.332609 0.400358-0.419709 0.266906-1.163655 0.475092-1.638573 1.047605-0.412637 0.492441-0.915669 0.758901-1.358599 0.794489-0.442975 0.03505-0.825054-0.133453-1.050523-0.599203l-0.00039-0.00089-0.00054-0.0013c-0.1399027-0.26694-0.081673-0.683313 0.03607-1.127266 0.11775-0.444842 0.287012-0.896358 0.309744-1.265132l0-0.00089c0.02379-0.475092 0.0504-0.887461 0.129805-1.207303 0.07963-0.31139 0.20485-0.532476 0.426604-0.657032 0.01042-0.0057 0.02063-0.01108 0.03086-0.01642 0.02513 0.400358 0.228071 0.830076 0.586747 0.9186 0.392529 0.08897 0.958271-0.222421 1.197138-0.510235 0.04782-0.0018 0.09431-0.0044 0.139547-0.0053 0.209655-0.0049 0.385323 0.0071 0.564982 0.177937l0.000538 0.000445 0.000559 0.000445c0.138034 0.133453 0.203738 0.355874 0.260633 0.585858 0.05694 0.266905 0.102314 0.519131 0.273133 0.709969l0.000183 0 0.000187 0.000445c0.32816 0.355874 0.433677 0.612548 0.424557 0.767798zm-7.9761458 1.160594-0.0001859 0.00089 0 0.0013c-0.03795 0.496889-0.3185074 0.767798-0.7493375 0.865663-0.4304742 0.08897-1.0144369 0.000445-1.597461-0.311389-0.0001868 0-0.0003723-0.000445-0.0005587-0.000445-0.6451638-0.355874-1.4125485-0.31139-1.9049759-0.400359-0.2461181-0.04435-0.4068477-0.133452-0.480519-0.266905-0.07367-0.133453-0.075343-0.400359 0.081295-0.82118l0.0007429-0.0018 0.0005591-0.0018c0.077576-0.222422 0.020092-0.501783-0.017488-0.745557-0.037578-0.266905-0.055997-0.470643 0.027906-0.625893l0.0007443-0.0013c0.1073405-0.222421 0.2647214-0.266905 0.460058-0.355874 0.1955217-0.08897 0.427129-0.133453 0.6100007-0.31139l0.00112-0.000845 0.0009298-0.0013c0.1691025-0.177937 0.2961629-0.400358 0.4448026-0.559167 0.1253878-0.133452 0.2509535-0.222421 0.440154-0.222421l0.00651 0c0.033114 0 0.068279 0.0031 0.1054811 0.0089 0.2511403 0.03777 0.4701043 0.222422 0.6810652 0.501338l0.6090696 1.109438 0.0001859 0.000444 0.0003724 0.000445c0.1620562 0.355874 0.5043314 0.709969 0.7943599 1.091644 0.2900374 0.400358 0.5143805 0.758902 0.4851721 1.052053zM9.4590134 4.2917738C9.4100807 4.2028053 9.3102136 4.1138367 9.1401502 4.0248682l-0.000931 0C8.7855693 3.8914154 8.6320941 3.8469312 8.434713 3.7134784 8.1134032 3.491057 7.8479656 3.4465728 7.6273325 3.4465728 7.5118069 3.4470176 7.4085589 3.4674359 7.3161206 3.4909236 7.0473022 3.5798921 6.868898 3.7578292 6.7570913 3.891282l-0.0001855 0.0004448-0.0001859 0C6.7347682 3.9125899 6.7064971 3.9316737 6.6380358 3.9806953 6.5689963 4.0250461 6.4655704 4.1141481 6.316726 4.2031167 6.1844743 4.2920852 6.1415025 4.425538 6.1872768 4.603475 6.2328732 4.7369278 6.3786926 4.9148649 6.6454781 5.078567l0.0003718 0.0004448 0.0005583 0.0004448c0.1655705 0.088969 0.2786939 0.2224214 0.4085435 0.3113899 0.064947 0.044351 0.1331859 0.088969 0.2154373 0.1334528 0.082251 0.035054 0.178204 0.044395 0.2984004 0.044395 0.2820303 0.016415 0.4896383-0.088969 0.6728824-0.1779371 0.183631-0.088969 0.339148-0.2224213 0.5175432-0.3113898l0.0003724 0 0.0003901-0.0004449C9.1257271 4.94547 9.3865383 4.7230487 9.4681848 4.5153072 9.5091116 4.4263387 9.5078096 4.2928859 9.4590686 4.2039174Z" class="b"/><path d="M8.5125115 4.8315458C8.22154 4.9649986 7.8816757 5.18742 7.5200231 5.18742 7.158544 5.18742 6.8730039 5.0094829 6.6676245 4.8760301 6.5649104 4.7870616 6.4815469 4.6980931 6.4187351 4.6536088 6.3096597 4.5646403 6.3226936 4.4311875 6.3675337 4.4311875c0.075134 0.0093 0.086522 0.088969 0.1338087 0.1334528 0.064013 0.044395 0.1441735 0.1334528 0.2412826 0.2224213 0.1942183 0.1334528 0.4531746 0.3113898 0.7774293 0.3113898 0.3237119 0 0.7015657-0.177937 0.9322077-0.3113898 0.1306503-0.088969 0.296977-0.2224213 0.432654-0.3113899 0.1038263-0.088969 0.1000451-0.177937 0.1857663-0.177937 0.085721 0.00974 0.022308 0.088969-0.097732 0.2224213C8.8528873 4.609125 8.6651192 4.7425773 8.512556 4.8315458Z" class="a"/><path d="m12.986561 11.040926c-0.04037-0.0018-0.0802-0.0013-0.118862-0.000445l-0.01079 0c0.09991-0.311389-0.121131-0.55027-0.710089-0.816731-0.610747-0.2669052-1.09741-0.222421-1.179634 0.31139-0.0052 0.02843-0.0095 0.0444-0.01265 0.08897-0.04577 0.01601-0.0915 0.03599-0.137679 0.04439-0.286701 0.177937-0.44333 0.444843-0.530382 0.790041-0.08688 0.355874-0.111967 0.772246-0.13581 1.247338l0 0.000445c-0.0147 0.222425-0.112899 0.559171-0.2122326 0.901255C8.9379457 14.321997 7.549405 14.632942 6.3703273 13.830001 6.2905225 13.696548 6.198796 13.563095 6.1044449 13.474127 6.0441687 13.385158 5.9822021 13.296189 5.9208138 13.251705 6.0417221 13.25215 6.1446142 13.232177 6.2277553 13.20731 6.3311812 13.162915 6.403735 13.073857 6.4398117 12.984889 6.5116093 12.806952 6.4394394 12.518694 6.2093388 12.208193 5.9792217 11.896804 5.5894772 11.546712 5.0168669 11.196176 4.5960458 10.929271 4.3609153 10.614767 4.2507843 10.264231 4.1404677 9.9083569 4.1559082 9.5409169 4.2409248 9.1681388 4.4038929 8.4537215 4.8224622 7.7611015 5.0896053 7.3260454 5.1614029 7.2816501 5.1152772 7.415014 4.819141 7.9741811 4.5538369 8.4755188 4.0577097 9.6387823 4.7368896 10.544037 4.755121 9.9003498 4.9089547 9.243762 5.1673638 8.6267653 5.5437007 7.7744468 6.3308097 6.2922311 6.393319 5.1160672c0.03237 0.023532 0.1430614 0.088969 0.19235 0.1334528 0.0001859 0.0004448 0.0001859 0.0004448 0.0003714 0.0004448 0.1443959 0.088969 0.2528041 0.2224214 0.3932854 0.3113899 0.1408372 0.1334528 0.316639 0.2224213 0.5822812 0.2224213 0.025488 0.00178 0.050401 0.00267 0.074778 0.00267 0.2738451 0 0.4874051-0.088969 0.6652532-0.1779371 0.1932841-0.088969 0.347689-0.2224213 0.4941223-0.2669056l0.0005605 0c0.3093437-0.088969 0.5551237-0.2669065 0.695-0.466196 0.2403485 0.9452906 0.799195 2.3167405 1.158446 2.9826699 0.19106 0.3558741 0.570915 1.1049891 0.735013 2.0151372 0.104005-0.00307 0.218597 0.012011 0.341195 0.043506C12.155159 8.802834 11.362049 7.6044279 10.999329 7.2712408 10.852887 7.137788 10.845858 7.0488195 10.91859 7.0488195c0.393285 0.3558741 0.909864 1.0476044 1.097774 1.8376449 0.08577 0.3558741 0.104004 0.7366594 0.01207 1.1138856 0.04484 0.01864 0.09057 0.03861 0.136922 0.0444 0.688879 0.355874 0.943556 0.625893 0.821149 1.025362zM9.4913833 3.2003969c0.00149 0.177937-0.030881 0.3558741-0.1021359 0.5102345-0.040555 0.088969-0.087234 0.177937-0.1432393 0.2224213-0.018995-0.0093-0.038695-0.017749-0.059164-0.026201C9.1159806 3.8766911 9.0533023 3.8625006 8.9971186 3.8178829 8.940935 3.796575 8.8970735 3.7819396 8.851833 3.7734876 8.884594 3.7339856 8.94912 3.6845186 8.9731416 3.6400348c0.036463-0.088969 0.054315-0.177937 0.057652-0.2669055 0-0.00396 0.0013-0.00752 0.0013-0.012411 0.00205-0.088969-0.010976-0.177937-0.03981-0.2669055C8.9621469 3.004844 8.9237792 2.9603598 8.8683518 2.8713912 8.8127465 2.826996 8.7573191 2.7824227 8.6906817 2.7824227l-0.0093 0c-0.0625 0-0.1168157 0.021753-0.1730438 0.088969-0.058986 0.044395-0.1027141 0.1334528-0.1391467 0.2224214-0.036276 0.088969-0.054137 0.177937-0.057696 0.2669055-0.0005383 0.004-0.0005383 0.00756-0.0005383 0.011521-0.0013 0.044395 0.00242 0.088969 0.011161 0.177937C8.1940905 3.5058258 8.0303884 3.4612081 7.9172204 3.4167238 7.9107093 3.3723285 7.9069882 3.3277553 7.9058725 3.283271l0-0.01419C7.9038262 3.0911435 7.9345213 2.9132065 8.0065404 2.7584012 8.0785159 2.5804642 8.1676624 2.4914956 8.293019 2.4025271 8.4185981 2.3135586 8.541953 2.2690743 8.6879948 2.2690743l0.00688 0c0.1428835 0 0.2651262 0.042171 0.3906608 0.1334528 0.1274475 0.088969 0.2193519 0.2224213 0.2933738 0.3558741 0.072554 0.1779371 0.1075629 0.3113899 0.1110772 0.4968892-9e-7 0.00489-9e-7 0.0089 0.00128 0.01379zM7.331917 3.3872308c-0.018788 0.00574-0.03702 0.011521-0.055072 0.017304-0.1023138 0.035499-0.1835865 0.088969-0.2621012 0.1334528 0.00763-0.044395 0.00874-0.088969 0.00279-0.177937-0.0005565-0.00356-0.0005565-0.00623-0.0005565-0.00974C7.0087931 3.2613403 6.9914909 3.216856 6.9626638 3.1278875 6.9319661 3.038919 6.8975388 2.9944347 6.8523428 2.9499505 6.811415 2.9148969 6.772716 2.9055552 6.7299221 2.9055552c-0.00428 0-0.00874 0-0.013208 0.0004448C6.6687151 2.91 6.6289021 2.933536 6.591135 2.994969 6.553556 3.03932 6.528813 3.083938 6.51093 3.1729061 6.493072 3.2618751 6.488421 3.3063589 6.495862 3.3953274c0 0.00356 0.0007442 0.00623 0.0007442 0.00979 0.00819 0.088969 0.024742 0.1334528 0.054137 0.2224214 0.030137 0.088969 0.065125 0.1334528 0.110321 0.177937 0.00763 0.00663 0.015069 0.012856 0.02251 0.017749-0.046886 0.036388-0.078381 0.044395-0.1170825 0.088969-0.024742 0.017749-0.054137 0.039502-0.08839 0.044395-0.0746-0.088969-0.13283-0.1779371-0.183809-0.2669056C6.234016 3.5562265 6.2018538 3.4227737 6.1921563 3.2448366l0-0.00133C6.1832263 3.0655696 6.1990363 2.9321168 6.2434913 2.798664 6.2881533 2.6652112 6.3476735 2.5317584 6.4341509 2.4427899 6.5204949 2.3538209 6.607506 2.3093371 6.7124444 2.3093371c0.00819-0.0004449 0.016185-0.0004449 0.024184-0.0004449 0.095063 0 0.1798944 0.03194 0.2677063 0.088969 0.095241 0.088969 0.1672608 0.177937 0.227537 0.3113898 0.060454 0.1334528 0.092616 0.2669056 0.1016021 0.4448426l0 0.00133c0.00428 0.088969 0.00372 0.1334528-0.00167 0.177937z" class="b"/><path d="m7.7906414 3.7747332c0.012033 0.038612 0.074289 0.031984 0.110232 0.044395 0.031559 0.016415 0.05694 0.044395 0.092394 0.044395 0.033866 0.0008897 0.086611-0.011566 0.09097-0.044395 0.00582-0.044395-0.058986-0.088969-0.1007124-0.088969-0.053648-0.020863-0.1224207-0.031495-0.1727324-0.00351-0.011536 0.00618-0.024127 0.021308-0.0202 0.034164zm-0.3676625 0c-0.012033 0.038612-0.074289 0.031984-0.110232 0.044395-0.031559 0.016415-0.05694 0.044395-0.092394 0.044395-0.033866 0.0008897-0.086611-0.011566-0.09097-0.044395-0.00582-0.044395 0.058986-0.088969 0.1007123-0.088969 0.053648-0.020863 0.1224207-0.031495 0.1727324-0.00351 0.011536 0.00618 0.024126 0.021263 0.0202 0.034164z" class="a"/></svg>
