<svg role="img" viewBox="0 0 24 24" xmlns="http://www.w3.org/2000/svg"><title>Lion Air icon</title><path d="M6.078-.062C4.068-.187 3.78 2.793 3.78 2.793c-.106 7.657 6.346 11.725 6.346 11.725l-.193.383c-6.855-4.428-7.018-9.512-7.018-9.512-1.753-.288-1.826 1.922-1.826 1.922.037 5.304 8.652 8.264 8.652 8.264v.48c-6.113-1.112-8.46-4.709-8.46-4.709-.56.066-.672 1.346-.672 1.346.258 4.792 9.132 4.035 9.132 4.035v.576c-4.6 1.207-8.171-1.152-8.171-1.152-1.084 2.504 2.404 3.17 2.404 3.17 2.65.446 6.152-1.344 6.152-1.344l.287.48c-3.24 2.636-6.537 1.538-6.537 1.538-.043 1.459 1.635 1.824 1.635 1.824 2.418.53 5.287-2.785 5.287-2.785l.385.287C9.24 22.287 6.47 22.493 6.47 22.493c.555 1.086 1.443.96 1.443.96 2.362-.065 3.748-3.748 3.748-3.748l.385.194c-.652 2.87-2.787 3.555-2.787 3.555.268.51 1.152.48 1.152.48 1.98-.103 2.211-3.844 2.211-3.844.174.048.48.096.48.096.194 2.391-.863 3.268-.863 3.268 1.02.338 1.442-.192 1.442-.192.398-.334.391-1.35.32-2.123.698-.06 4.07-.518 5.063-3.738 0 0 .25-.78.384-.865 0 0 .434-.013.48-.48 0 0-.097-.366-.288-.386 0 0-.513-.58-.385-.865 0 0 .06-.215.385-.383 0 0 .35-.181.193-.482 0 0 .06-.123-.674-.48 0 0-.623-.486-.672-1.825 0 0 .037-.28.481-.097 0 0 1.024.285 1.25-.481l.096-.863V10s-.416.51-.866.385c0 0-.801-.021-.673-1.152 0 0 .312-1.35 1.443-1.059 0 0 .465.07.48.674 0 0 .937-.566.866-1.537l-.096-.098v-.191h.096s.1-.58-.29-.672l-.96-.098-.194-.095h-.384l-.383-.287s.353-.436 0-.674c0 0-2.412-1.148-2.5-2.018 0 0-.88-.334-.866.48 0 0-.121.068-.19-.095 0 0 .116-.092-1.25-.674 0 0-.837-.134-1.06-.383 0 0-.671-.066-.671.864 0 0-2.231-.064-2.692 0 0 0-.515.164-.289 1.058 0 0-1.577.651-2.017.287 0 0-.366 1.175.48 1.73l-.674.288s.281 4.224 2.883 6.344c0 0 1.94-1.978 4.615-.961 0 0 3.4 1.17 2.885 4.9 0 0-.594 3.398-4.059 3.645a8.033 8.033 0 0 0-.076-.475c4.057-.375 3.75-4.13 3.75-4.13-.4-3.893-3.941-3.749-3.941-3.749-2.286-.053-3.076 1.441-3.076 1.441C5.15 8.302 7.049.2 7.049.2a2.808 2.808 0 0 0-.97-.262zm8.655 4.908c.608-.059.87.445.87.445-1.545-.333-.865.866-.865.866-.33-.17-.48-.385-.48-.385-.342-.61.193-.863.193-.863.102-.035.195-.055.282-.063zm4.427 1.31l-.384.77-.479-.48v-.194h.672l.191-.095Z"/></svg>