<svg role="img" viewBox="0 0 24 24" xmlns="http://www.w3.org/2000/svg"><title>Liquibase</title><path d="M2.9,3.6a9.1,3.6 0 1,0 18.2,0a9.1,3.6 0 1,0 -18.2,0 M12.2,19.6c-2.9,0.7-5.9,1.4-7.8,2.7c-1-0.6-1.5-1.3-1.5-1.9c0-2.9,4.8-4,9.4-5c3.3-0.8,6.8-1.5,8.7-3.1v2.5 C21,17.5,16.6,18.5,12.2,19.6z M12,13.8c-3.5,0.8-7.1,1.6-9.1,3.3v-0.6c0-5,5.5-6.3,10.8-7.5c3.9-0.9,5.7-1.4,7.3-2.6v2.8 C21,11.8,16.5,12.8,12,13.8z M21,17.9c-1.9,1.6-5.2,2.4-8.5,3.2c-2.2,0.4-4.4,1.1-6.5,2C8,23.7,10,24,12,24c5.3,0,9-1.9,9-3.6L21,17.9z"/></svg>