<svg viewBox="0 0 16 16" xmlns="http://www.w3.org/2000/svg" fill-rule="evenodd" clip-rule="evenodd" stroke-linejoin="round" stroke-miterlimit="1.414"><path d="M14.07 4.2l.027.002.027.004.026.007.027.01.025.013.026.015.024.02.024.02.025.023.024.026.022.03.023.03.043.072.02.04.022.043.02.045.02.048.02.05.02.054.018.056.02.058.016.06.017.064.018.065.017.07.016.07.017.073.014.076.016.077.014.08.015.084.013.084.015.087.012.09.013.09.013.094.013.094.012.097.012.102.01.1.012.105.01.105.01.107.01.107.008.112.01.11.008.115.016.233.01.12.005.12.008.122.006.123.007.125.007.126.006.127.004.13.006.13.004.13.005.132.003.133.005.134.003.133.004.136.004.136.002.137.002.138.003.14.004.278.003.423V10.873l.003.144v.42l.01.25.027.175.03.118.03.077.035.067.04.058.027.035.032.03.033.028.035.024.057.03.06.023.066.018.096.013.128.008.18-.007.078-.005v1.51l-.165.02-.378.018-.41-.018-.296-.044-.23-.06-.17-.064-.163-.08-.154-.102-.144-.123-.09-.093-.083-.106-.113-.18-.096-.206-.08-.237-.056-.27-.036-.303-.012-.338V10.872l-.003-.14V10.45l-.003-.282-.002-.14-.002-.138-.002-.14-.002-.137-.006-.274-.003-.137-.005-.134-.003-.135-.005-.133-.005-.132-.004-.13-.006-.13-.005-.13-.006-.126-.005-.126-.006-.125-.008-.123-.007-.122-.007-.12-.01-.12-.005-.117-.01-.115-.008-.114-.01-.11-.008-.113-.01-.108-.01-.108-.01-.105-.01-.104-.013-.1-.01-.102-.013-.096-.01-.095-.027-.186-.013-.09-.014-.086-.014-.084-.014-.083-.016-.08-.014-.076-.017-.076-.015-.073-.016-.07-.018-.07-.017-.065-.017-.063-.02-.06-.017-.06-.018-.055-.02-.053-.02-.052-.02-.048-.02-.045-.02-.043-.022-.04-.02-.037-.023-.034-.023-.03-.022-.03-.024-.027-.025-.023-.023-.02-.025-.02-.025-.014-.026-.013-.026-.01-.026-.007-.027-.004h-.027 1.712zM.005 2.078l.784.014.732.017.65.018.568.02.495.02.435.023.386.025.345.027.31.028.285.03.26.03.238.034.22.034.208.036.194.038.18.04.17.04.16.042.15.044.144.046.136.046.13.048.124.05.118.05.112.053.108.052.104.055.098.056.095.058.093.06.087.06.085.06.082.062.078.065.077.064.073.067.07.067.07.068.066.07.063.07.063.068.06.072.058.073.058.074.054.074.053.076.052.075.05.078.05.078.046.08.047.08.045.08.044.08.043.08.04.083.04.082.04.083.04.084.037.084.036.085.037.086.036.085.035.088.035.086.033.086.033.087.033.088.032.087.032.088.03.088.03.088.028.088.03.09.027.087.028.09.027.09.028.087.026.09.026.088.027.088.024.09.026.088.024.09.025.088.023.087.024.09.003.01.02.076.022.088.022.088.022.086.02.086.023.087.02.086.023.086.02.085.02.086.022.084.02.083.02.083.018.082.02.082.018.082.02.08.018.08.018.08.02.08.016.078.02.077.016.077.018.076.034.15.017.073.018.073.017.072.016.07.018.072.015.07.017.067.015.067.015.067.016.067.014.064.016.066.014.062.016.062.015.06.016.06.014.06.015.056.013.057.015.055.014.054.014.054.015.052.014.05.012.05.013.05.014.046.01.046.015.046.013.043.013.042.015.04.012.04.012.04.012.038.012.036.013.035.013.035.01.033.014.03.012.03.012.03.012.028.023.05.012.024.023.044.01.02.013.018.012.018.012.015.01.015.012.012.012.013.01.01.01.01.022.015.012.006.01.004.01.003h.01H7.17l-.037-.003-.036-.004-.037-.006-.037-.007-.036-.008-.037-.01-.038-.01-.037-.013-.037-.012-.037-.015-.037-.015-.037-.018-.037-.02-.04-.018-.036-.02-.038-.024-.037-.023-.04-.025-.037-.026-.037-.027-.04-.03-.036-.03-.038-.032-.038-.033-.04-.034-.037-.034-.038-.036-.04-.037-.037-.04-.04-.04-.038-.04-.038-.044-.04-.044-.037-.046-.04-.046-.076-.096-.04-.05-.038-.05-.04-.052-.038-.054-.04-.054-.038-.055-.04-.057-.038-.057-.04-.06-.04-.06-.04-.06-.038-.062-.04-.062-.04-.065-.04-.063-.038-.066-.04-.066-.04-.067-.04-.068-.04-.07-.04-.07-.04-.072-.04-.072-.04-.073-.04-.074-.04-.074-.04-.076-.04-.076-.04-.077-.04-.077-.042-.08-.04-.078-.04-.08-.04-.08-.04-.08-.042-.082-.042-.082-.04-.082-.04-.083-.04-.083-.043-.084-.04-.085-.04-.084-.043-.085-.04-.085-.042-.087-.04-.086-.042-.086-.04-.088-.042-.087-.043-.086-.04-.09-.042-.086-.04-.09-.043-.087-.042-.088-.04-.09-.044-.087-.04-.088-.043-.09-.04-.088-.043-.09-.04-.09-.043-.087-.043-.09-.04-.087-.086-.176-.04-.088-.043-.087-.042-.088-.042-.087-.043-.086-.043-.086-.042-.087-.043-.084-.042-.085-.043-.084-.042-.084-.043-.084-.042-.083-.043-.082-.044-.082-.085-.16-.042-.08-.043-.08-.043-.08-.043-.077-.087-.153-.044-.076-.044-.075-.044-.075-.042-.073-.044-.072-.087-.14-.045-.068-.044-.068-.042-.067-.044-.066-.044-.063-.043-.065-.044-.062-.044-.06-.045-.06-.043-.06-.044-.057-.045-.056-.043-.055-.045-.053-.044-.053-.043-.052-.044-.05-.045-.047-.045-.046-.043-.046-.045-.044L.76 2.55l-.045-.04-.043-.04-.045-.038-.045-.036-.044-.034-.045-.033-.044-.033-.046-.03L.36 2.24l-.046-.027-.044-.025-.046-.022-.045-.022-.045-.02-.046-.017-.046-.016L0 2.078h.005z"/></svg>