<svg role="img" viewBox="0 0 24 24" xmlns="http://www.w3.org/2000/svg"><title>llama.cpp</title><path d="M8.915.001C8.442-.015 7.836.151 7.58.24 4.515 1.334 3.9 6.906 4.127 9.663c1.23-1.356 2.86-2.324 4.615-2.848l.012.011c-.627-1.15-1.049-2.062-.593-3.384C8.423 2.69 9.506 1.3 9.55.491c.02-.354-.268-.477-.636-.49m4.57 1.33c-2.53-.102-3.687 3.036-3.945 5.256 1.276-.148 2.472-.308 3.76-.114-.445-1.06-.843-1.698-.25-2.815.204-.376 1.492-1.846 1.264-2.187a3.5 3.5 0 0 0-.83-.14m-1.94 6.59q-.4 0-.809.033C.31 8.82-.351 25.468 11.18 23.895c1.265-.17 2.439-.718 3.59-1.253l-.684-2.723c-1.299.444-2.507 1.116-3.931 1.116-5.093-.034-5.321-6.278-2.051-8.979 2.028-1.675 5.036-1.447 7.065.114l1.538-2.734h.011c-1.635-.958-3.314-1.514-5.173-1.515m-.182 5.16v1.88l-.171.172H9.426v1.595h1.937v1.937h1.709v-1.937h1.823v-1.595h-1.823v-2.051zm6.267 0v2.052h-1.823v1.595h1.823v1.937h1.709v-1.937h1.937v-1.595H19.51l-.171-.171v-1.88z"/></svg>