<svg role="img" viewBox="0 0 24 24" xmlns="http://www.w3.org/2000/svg"><title>LlamaIndex</title><path d="M15.814 17.122c-2.09.924-4.354.545-5.225.24 0 .21-.01.857-.047 1.78-.038.924-.333 1.507-.476 1.684.016.577.029 1.837-.047 2.26a1.93 1.93 0 0 1-.475.914H8.26c.114-.577.555-.946.76-1.058.114-1.193-.11-2.229-.237-2.597-.127.449-.437 1.49-.665 2.068a6.42 6.42 0 0 1-.713 1.298h-.95c-.047-.577.27-.77.475-.77.095-.175.323-.73.475-1.538.152-.808-.063-2.325-.19-2.982v-2.068c-1.52-.818-2.09-1.636-2.47-2.55-.304-.73-.222-1.843-.143-2.308-.095-.176-.372-.625-.475-1.25-.142-.866-.063-1.492 0-1.828-.095-.096-.285-.587-.285-1.78s.349-1.811.523-1.972v-.529c-.665-.048-1.33-.336-1.71-.721-.38-.385-.095-.962.142-1.154.238-.193.475-.049.808-.145.332-.096.617-.192.76-.48C4.48 1.403 4.256.448 4.128 0c.57.077.935.577 1.046.818V0c.712.337 1.995 1.154 2.422 2.934.342 1.423.586 4.409.665 5.723 1.821.016 4.133-.26 6.223.193 1.9.412 2.756 1.25 3.753 1.25.998 0 1.568-.577 2.28-.096.713.481 1.093 1.828.998 2.838-.076.808-.697 1.074-.998 1.106-.38 1.27 0 2.485.238 2.934v1.827c.11.16.332.655.332 1.347 0 .693-.221 1.154-.332 1.299.19 1.077-.08 2.18-.238 2.597h-1.282c.152-.385.411-.481.522-.481.228-1.193.064-2.293-.047-2.693-.722-.424-1.188-1.17-1.33-1.491.016.272-.029 1.029-.333 1.875-.304.847-.76 1.347-.95 1.491v1.01h-1.283c0-.615.349-.737.523-.721.222-.4.76-1.01.76-2.213 0-1.014-.712-1.49-1.235-2.404-.248-.435-.127-.978-.048-1.203z"/></svg>