<svg role="img" viewBox="0 0 24 24" xmlns="http://www.w3.org/2000/svg"><title>LLVM icon</title><path d="M20.8293 2.9777l-.085.095a16.2446 16.2446 0 00-1.19 1.4869 5.7725 5.7725 0 00-.4459.719 2.8798 2.8798 0 00-.249.5969.497.497 0 00-.033.177v.004a.297.297 0 00-.21.29.3.3 0 00.187.284c.038.3709.08 1.1418.07 2.1997l-.004.142a8.0013 8.0013 0 01-.434 2.3268c-.016-.01-.03-.014-.04-.013-.03.003-.111.12-.19.251-.058.09-.119.195-.154.291a.37.37 0 00-.03.14.249.249 0 00.01.088c.01.037.022.058.022.058a6.8364 6.8364 0 01-.003.007.144.144 0 00-.028.067l-.012.029a6.8364 6.8364 0 01-.2579.527l-.077.1419a6.8364 6.8364 0 01-.07.115.157.157 0 00-.022-.014.16.16 0 00-.113.024c-.047.035-.151.194-.498.368-.118.059-.2259.093-.3199.114a14.1008 14.1008 0 00.248-2.0699 5.0716 5.0716 0 00-.064-1.0569c.003-.01.003-.017.003-.017l-.005.01a4.3446 4.3446 0 00-.104-.458 3.5537 3.5537 0 00-.724-1.3848c-.6309-.754-1.4958-1.14-2.2557-1.165l-.125-.002c0-.008 0-.015.002-.022.021-.098.024-.127-.087-.032a.872.872 0 00-.057.054c-.053.001-.101.004-.146.007a.716.716 0 01-.003-.108c.004-.076.024-.127-.087-.032a.553.553 0 00-.142.167c-.05.008-.08.015-.08.015l.045-.002-.047.008c-.016-.042-.053-.105-.048-.16.01-.118.043-.14-.037-.065-.098.09-.202.226-.22.299l-.096.03c-.018-.018-.074-.07-.086-.178-.013-.11-.012-.166-.08-.051a1.14 1.14 0 00-.13.349c-.032.015-.063.03-.093.046a.27.27 0 01-.057-.173c-.005-.144.04-.261-.067-.068a1.6339 1.6339 0 00-.1459.406c-.036.025-.071.051-.105.079a2.6998 2.6998 0 01-.008-.17c-.002-.142.021-.295-.067-.025-.026.079-.053.192-.07.321-.404.385-.65.917-.644 1.5719v.007a3.42 3.42 0 00.014.33c.02.238.057.438.107.6049-.095.13-.103.689-.01.818.073.104.496.3499.586.3989a.367.367 0 01.094.093c.115.188.115.567.027.762-.107.2379.107.2849.285.3199.178.036.415-.023.463-.118.047-.095-.154-.309-.237-.748-.084-.4389.13-.4739.13-.4739s.095.024.237.249c.11.175.227.313.336.413a.727.727 0 01-.201.172c.12.005.24-.051.304-.087a.77.77 0 00.0709.045 1.015 1.015 0 01-.05.05.506.506 0 00.108-.022.295.295 0 00.084.022c.155.012.57-.368.57-.439 0-.018-.015-.04-.038-.063-.042-.045-.12-.1-.207-.177a1.03 1.03 0 01-.11-.116.723.723 0 01-.141-.374v-.01l-.003-.031s.007-.007.016-.02v.004l.004-.01c.052-.08.15-.379-.47-1.0779a3.0447 3.0447 0 00-.924-.706c-.042-.4719.15-.9128.626-1.1298l-.005.005.008-.006c.227-.102.517-.155.877-.136.6899.036 1.2199.359 1.5898.845.514.7119.738 1.7798.575 2.8557-.068.065-.055.075-.013.077a4.6156 4.6156 0 01-.055.273l-.027.015c-.123.074-.071.073 0 .092l-.006.02c-.02.065-.043.13-.066.193a.956.956 0 00-.087.03c-.135.053-.08.06-.012.091l.044.022c-.032.08-.066.16-.101.2369a.746.746 0 00-.08.017c-.142.036-.088.05-.024.09a.52.52 0 01.04.027 6.7834 6.7834 0 01-.107.214.76.76 0 00-.153.025c-.14.036-.087.05-.023.09.034.02.06.041.081.059a8.0213 8.0213 0 01-.095.165l-.023.036a.59.59 0 00-.206.024c-.142.036-.088.05-.024.09a.67.67 0 01.104.079 8.6093 8.6093 0 01-.126.1799.514.514 0 00-.23-.005c-.144.02-.092.04-.033.086.068.053.101.099.118.118l-.062.084c-.044-.058-.149-.124-.246-.193a.85.85 0 00-.2899-.13c-.048 0-.199.268-1.0169.197-.819-.071-.87-.15-.942-.15-.07 0-.2229.057-.2279.059l-.034-.02a11.03 11.03 0 01-.972-.674c-.4639-.37-.7199-.6469-.7199-.6469s.137-.125-.047-.284a3.3197 3.3197 0 00-.338-.277 2.1568 2.1568 0 00-.2419-.166 3.5697 3.5697 0 01-.088-.127 11.485 11.485 0 01-.363-.6279 10.4551 10.4551 0 01-.25-.527c-.16-.3599-.27-.6819-.346-.9638a5.6205 5.6205 0 01-.1479-.923 2.2568 2.2568 0 01.004-.242.411.411 0 00.158-.323.411.411 0 00-.358-.4069c-.204-.427-.9819-1.4769-3.8817-3.6797l-.127-.098.005.004-.036-.027c2.9538 2.5298 3.5298 3.5187 3.6817 3.9317a.411.411 0 00-.027.033 18.6904 18.6904 0 00-.018-.013c.018 0 .025-.005.025-.005s-.6719-.546-1.7868-1.2299c-1.119-.687-1.7489-.849-1.8798-.877l-.027-.006s.206.19.174.285c-.01.032-.168.022-.421.028a3.9477 3.9477 0 00-.725.07 4.0997 4.0997 0 00-1.5668.63C.2379 7.7844 0 8.4013 0 8.4013s.55-.768 1.5799-1.305c-.014.337-.047 1.969.445 4.1197.5309 2.3198 1.5308 4.4867 1.6138 4.6647.004.178.016.272.016.272s.148-1.79.756-3.6468c.175.283.7579 1.117 2.0758 2.0959 1.6278 1.2099 2.3698 1.5358 2.3998 1.5478.001.157.005.24.005.24s.005-.1.018-.263c.044-.065.298-.43.552-.67a3.5797 3.5797 0 01.5399-.4349c.032.11.063.204.093.276-.02-.097-.036-.19-.052-.282.107.01.538.066 1.2059.393.343.168.6089.395.7979.595a.167.167 0 00-.014.006s.123.112.269.403a2.4158 2.4158 0 00-.73.0839 2.9128 2.9128 0 00-.098-.189.484.484 0 00-.039-.135c-.027-.061-.095-.1-.164-.14a.397.397 0 00-.104-.073.225.225 0 01-.055-.073c-.084-.184-.7979.012-.9419.18-.175.204-.209.464-.14.608.021.045.07.082.138.11.002.221.137.75.404 1.1339a4.9636 4.9636 0 01-.108-.667c-.009-.16 0-.274.015-.35.047.328.174.684.577 1.125-.248-.54-.22-.862-.195-1.144l.009-.044.006-.001c.036.263.142.534.482.964a.412.412 0 01-.014-.028l.014.021a1.6259 1.6259 0 01-.167-1.03l.008-.003c.046.03.091.07.134.126.128.172.188.349.212.47a.528.528 0 00.067.384c-.245.179-.485.346-.72.501-.23.149-.49.313-.757.47-.14.0799-.279.1579-.414.2299l-.1349-.077h.002l-.008-.004c-.97-.559-1.6899-.932-2.5178-1.082-.931-.1669-1.7868.283-1.9828 1.082a1.2839 1.2839 0 00.552 1.3799l.012.008c.013.01.026.017.04.026l.06.036h.002c.1919.11.4239.191.6909.237l.028.005h.006a3.4997 3.4997 0 00.412.044c.9748.047 2.1557-.408 3.3226-.982.1.054.202.108.306.166 2.5468 1.403 4.0977 1.5849 6.1535.728-.502.151-1.2079.356-2.0938.344a.05.05 0 00-.02-.006l.001.006a5.4605 5.4605 0 01-.648-.05v-.001l-.03-.003v-.003a.267.267 0 00-.001.002 6.2495 6.2495 0 01-1.5558-.436 7.7924 7.7924 0 01-.745-.362 57.0652 57.0652 0 01-1.0059-.569c.348-.178.692-.363 1.026-.5449.3549-.189.6719-.362.9179-.5l.009-.004.007-.001s.083-.018.16-.042c.17-.052.4099-.149.6949-.283.028.117.095.215.195.253.235.091.407.027.522-.102l.018-.01.047-.037c.05-.03.107-.067.156-.09a1.14 1.14 0 01.0529-.022c.04-.01.078-.023.116-.037l.033-.01c-.145.297-.091.581-.091.581.043-.371.22-.608.392-.715.064-.027.13-.05.2-.067.064 0 .116.023.144.07.07.12.217.194.364.226.024.15-.045.404-.4.866l.09-.062.004-.003.072-.053c.143-.108.2519-.21.3339-.305a.97.97 0 00.191-.305c.012.2-.043.507-.311 1.036 0 0 .317-.276.514-.63.006.191-.01.443-.063.785.345-.673.325-1.085.239-1.326l-.01-.036a.433.433 0 00-.01-.065l.042-.057c.118-.166-.048-.3439-.154-.4149-.06-.04-.2-.154-.454-.157-.225-.27-.51-.15-.958.145a1.2969 1.2969 0 01-.166.093.725.725 0 00-.055-.117c.16-.096.326-.199.494-.308.317-.207.553-.416.728-.615.51-.5169.69-1.0198 1.2099-1.4458l-.013.001.06-.032c.854-.458 1.3069-.547 1.3389-.553l-.003.128.018-.125a1.7949 1.7949 0 01.481.344 2.1198 2.1198 0 01.362.487l.044.301s0-.117-.01-.33c.1529-.152 1.0198-1.044 1.7238-2.4668.694-1.4039.9439-2.5228 1.0169-2.9238a18.1885 18.1885 0 01.665 2.4658s-.002-.133-.031-.374c.097-.336.5159-1.8718.6269-3.7556.1-1.6809-.065-2.7798-.14-3.1738.648.537.9949 1.307.9949 1.307s-.04-.163-.188-.437l.02.027s-.236-.455-.644-.905a6.4495 6.4495 0 00-.157-.172c-.4319-.4589-.8539-.6169-1.1698-.6719-.1-.02-.203-.03-.308-.03h-.019c-.125-.003-.201.002-.207-.026-.02-.095.11-.285.11-.285s-.177.046-.554.33c-.23.167-.5199.41-.8529.76a13.6889 13.6889 0 00-.8899.9949l-.075.095a.203.203 0 00-.023-.017c.076-.331.362-1.118 1.7879-3.1118zM11.92 14.0908a.351.351 0 01.012.006zm-.263 2.6058c.088.044.19.106.303.194h-.005a.484.484 0 00-.155.07.956.956 0 01-.126-.224zm-4.8546 1.5699c.132 0 .276.014.432.048l.02.005.017.004c.11.027.223.062.337.102l.057.021c.191.074.395.156.611.248.3199.139.6189.2769.8378.3749l.183.088c-.221.106-.424.196-.577.261-1.0138.416-1.8298.536-2.3377.391-.945-.269-.76-1.536.42-1.542z"/></svg>