<svg role="img" viewBox="0 0 24 24" xmlns="http://www.w3.org/2000/svg"><title>LM Studio</title><path d="M8.4 16.8a1.2 1.2 0 1 0 0 2.4h10.4a1.2 1.2 0 1 0 0-2.4Zm-3.2-4a1.2 1.2 0 1 0 0 2.4h10.4a1.2 1.2 0 1 0 0-2.4Zm3.2-4a1.2 1.2 0 1 0 0 2.4h10.4a1.2 1.2 0 1 0 0-2.4Zm-3.2-4a1.2 1.2 0 1 0 0 2.4h10.4a1.2 1.2 0 1 0 0-2.4ZM8.96 0C5.824 0 4.256 0 3.058.61A4.8 4.8 0 0 0 .61 3.058C0 4.256 0 5.824 0 8.96v6.08c0 3.136 0 4.704.61 5.902a4.8 4.8 0 0 0 2.448 2.448C4.256 24 5.824 24 8.96 24h6.08c3.136 0 4.704 0 5.902-.61a4.8 4.8 0 0 0 2.448-2.448c.61-1.198.61-2.766.61-5.902V8.96c0-3.136 0-4.704-.61-5.902A4.8 4.8 0 0 0 20.942.61C19.744 0 18.176 0 15.04 0Zm0 1.6h6.08c1.595 0 2.694.001 3.548.07.835.069 1.292.195 1.628.366a3.2 3.2 0 0 1 1.748 1.748c.171.336.297.793.366 1.628.069.854.07 1.953.07 3.548v6.08c0 1.595-.001 2.694-.07 3.548-.069.835-.195 1.292-.366 1.628a3.2 3.2 0 0 1-1.748 1.748c-.336.171-.793.297-1.628.366-.854.069-1.953.07-3.548.07H8.96c-1.595 0-2.694-.001-3.548-.07-.835-.069-1.292-.195-1.628-.366a3.2 3.2 0 0 1-1.748-1.748c-.171-.336-.297-.793-.366-1.628-.069-.854-.07-1.953-.07-3.548V8.96c0-1.595.001-2.694.07-3.548.069-.835.195-1.292.366-1.628a3.2 3.2 0 0 1 1.748-1.748c.336-.171.793-.297 1.628-.366.854-.069 1.953-.07 3.548-.07"/></svg>