<svg role="img" viewBox="0 0 24 24" xmlns="http://www.w3.org/2000/svg"><title>LocalSend</title><path d="M5.538 12.015a6.462 6.454 0 1 1 12.924 0 6.462 6.454 0 0 1-12.923 0zM22.53 6.262a1.846 1.844 0 0 1-2.472-.42 10.225 10.212 0 0 0-1.877-1.875 1.846 1.844 0 0 1-.421-2.469 12.055 12.04 0 0 1 4.77 4.764Zm-18.587-.42a1.846 1.844 0 0 1-2.472.42 12.055 12.04 0 0 1 4.77-4.764 1.846 1.844 0 0 1-.42 2.469 10.225 10.212 0 0 0-1.878 1.875ZM24 12.015a11.994 11.979 0 0 1-.48 3.37 1.846 1.844 0 0 1-1.452-2.043c.115-.88.115-1.773 0-2.654a1.846 1.844 0 0 1 1.451-2.043 12 11.985 0 0 1 .481 3.37Zm-24 0c0-1.14.162-2.275.482-3.37a1.846 1.844 0 0 1 1.45 2.043 10.277 10.264 0 0 0 0 2.654 1.846 1.844 0 0 1-1.45 2.043A12 11.985 0 0 1 0 12.014Zm17.76 10.518a1.846 1.844 0 0 1 .42-2.47 10.225 10.212 0 0 0 1.878-1.875 1.846 1.844 0 0 1 2.472-.42 12.055 12.04 0 0 1-4.77 4.765zm-11.519 0a12.055 12.04 0 0 1-4.77-4.764 1.846 1.844 0 0 1 2.472.42 10.225 10.212 0 0 0 1.877 1.874c.765.587.948 1.663.421 2.47zM12.001 24a11.993 11.978 0 0 1-3.375-.48 1.846 1.844 0 0 1 2.046-1.45c.882.115 1.775.115 2.657 0a1.846 1.844 0 0 1 2.046 1.449A12 11.985 0 0 1 12 24Zm1.506-22.057a1.859 1.857 0 0 1-.178-.013 10.262 10.25 0 0 0-2.656 0A1.848 1.846 0 0 1 8.626.48 11.999 11.984 0 0 1 11.999 0h.002c1.142-.001 2.277.16 3.373.48a1.845 1.843 0 0 1-1.867 1.463Z" style="stroke-width:.999375"/></svg>