<svg role="img" viewBox="0 0 24 24" xmlns="http://www.w3.org/2000/svg"><title>LocalSend</title><g transform="scale(1.3187)"><path d="M12 16.9c-2.7 0-4.9-2.2-4.9-4.9S9.3 7.1 12 7.1s4.9 2.2 4.9 4.9-2.2 4.9-4.9 4.9zM12 2.9c.8 0 1.6.1 2.4.3.2 0 .2.1.1.3-.2.6-.8 1-1.4.9-.7-.1-1.5-.1-2.2 0-.6 0-1.2-.4-1.4-1 0-.1 0-.2.1-.2.8-.2 1.6-.3 2.4-.3zM2.9 12.1c0-.9.1-1.7.3-2.5 0-.2.1-.2.3-.1.6.2 1 .8.9 1.4-.1.7-.1 1.5 0 2.2.1.6-.4 1.2-.9 1.4-.1 0-.2 0-.2-.1-.2-.4-.3-.7-.3-1-.1-.5-.1-.9-.1-1.3zM12.1 21.1c-.9 0-1.7-.1-2.5-.3-.2 0-.2-.1-.1-.3.2-.6.8-1 1.4-.9.7.1 1.5.1 2.2 0 .6-.1 1.2.4 1.4.9.1.2 0 .2-.1.3-.3.1-.7.2-1 .2-.5.1-.9.1-1.3.1zM21.1 12c0 .8-.1 1.6-.3 2.4 0 .2-.1.2-.3.1-.6-.2-1-.8-.9-1.4.1-.7.1-1.5 0-2.2-.1-.6.4-1.2.9-1.4.1-.1.2 0 .2.1.3.8.4 1.6.4 2.4zM19.3 7.8c-.5 0-.9-.2-1.2-.5-.4-.6-.9-1.1-1.5-1.5-.5-.4-.7-1.1-.4-1.7.2-.1.2-.1.3 0 1.4.8 2.6 2 3.4 3.4.1.1 0 .2-.1.3h-.5zM4.7 7.8c-.1 0-.3 0-.5-.1-.2 0-.2-.1-.1-.3.4-.7.9-1.3 1.5-1.9.6-.6 1.2-1 1.9-1.4.1-.1.2-.1.2.1.3.6.1 1.2-.4 1.6-.6.4-1 .9-1.5 1.5-.2.4-.6.5-1.1.5zM19.3 16.2c.2 0 .4 0 .5.1.1.1.2.1.1.3-.7 1.3-1.7 2.3-3 3.1-.1.1-.3.2-.4.2-.1.1-.2.1-.3-.1-.2-.6-.1-1.2.4-1.6.6-.5 1.1-1 1.5-1.6.4-.3.7-.4 1.2-.4zM7.8 19.3v.1c0 .6-.2.7-.7.4-1.3-.8-2.3-1.9-3.1-3.2 0-.2 0-.3.2-.3.6-.2 1.2-.1 1.6.4.4.6.9 1.1 1.5 1.5.4.2.5.6.5 1.1z"/></g></svg>
