<svg role="img" viewBox="0 0 24 24" xmlns="http://www.w3.org/2000/svg"><title>LocalSend</title><path d="M10.925 23.94c-.68-.06-2.13-.336-2.218-.422-.093-.092.138-.59.396-.856.132-.136.36-.309.505-.384.259-.134.315-.138 2.392-.139h2.127l.332.18c.183.1.423.3.536.449.229.3.375.673.295.753-.09.09-1.555.361-2.304.427-.804.071-1.188.07-2.061-.007zM5.68 22.195a12.213 12.213 0 0 1-3.879-3.87c-.162-.26-.28-.514-.261-.564.019-.05.193-.136.388-.192.738-.215 1.458.017 1.974.635.164.196.575.633.915.972.339.34.777.75.973.914.512.427.69.795.69 1.427 0 .36-.033.565-.123.76l-.122.265zm11.944.046c-.069-.155-.102-.393-.101-.724.002-.636.179-1.003.687-1.427.196-.163.634-.574.973-.913.34-.34.75-.777.914-.973.418-.5.797-.687 1.398-.69.306 0 .562.037.757.112l.296.114-.166.287a12.707 12.707 0 0 1-2.445 2.971c-.587.515-1.968 1.474-2.122 1.474-.048 0-.134-.104-.19-.23zm-6.395-3.844c-2.21-.279-4.056-1.599-5.027-3.596-1.006-2.068-.834-4.487.457-6.426 1.268-1.905 3.715-3.048 5.964-2.787.813.095 1.452.266 2.078.56a6.34 6.34 0 0 1 3.097 3.047c1.006 2.068.834 4.487-.457 6.427-1.012 1.519-2.767 2.567-4.663 2.784-.6.07-.845.068-1.449-.009zM.446 15.272c-.018-.028-.103-.4-.19-.825-.234-1.16-.307-2.228-.222-3.275.071-.877.334-2.362.437-2.465.092-.093.59.137.856.396.137.132.31.359.385.504.134.258.138.314.139 2.39l.001 2.126-.18.328c-.19.35-.5.634-.855.782-.251.104-.327.112-.372.04zm22.676-.065c-.314-.143-.66-.483-.837-.824-.131-.253-.135-.32-.136-2.386l-.001-2.125.18-.332c.1-.183.302-.423.45-.536.3-.229.674-.375.754-.294.097.097.367 1.6.436 2.426.084.994.002 2.188-.227 3.32-.085.42-.169.788-.186.816-.048.078-.152.062-.432-.065zM1.917 6.43c-.506-.166-.502-.14-.118-.752a12.208 12.208 0 0 1 3.87-3.874c.26-.162.514-.28.564-.26.05.018.136.193.192.387.215.738-.017 1.457-.635 1.973-.196.164-.634.575-.973.914-.34.339-.751.776-.915.972-.382.458-.79.672-1.335.7a2.142 2.142 0 0 1-.65-.06zm19.177.025c-.366-.09-.705-.316-.997-.665-.382-.458-1.429-1.504-1.887-1.886-.5-.417-.687-.795-.69-1.396 0-.306.036-.562.112-.757l.114-.295.287.166c1.038.6 2.176 1.535 2.973 2.443.568.646 1.489 1.992 1.462 2.136-.04.214-.892.372-1.374.254zM9.809 1.796a1.738 1.738 0 0 1-.826-.594C8.768.909 8.633.55 8.71.473c.097-.096 1.602-.367 2.428-.436a9.266 9.266 0 0 1 1.687.002c.878.071 2.364.334 2.467.437.093.092-.137.59-.396.856-.132.136-.359.309-.504.384-.257.132-.326.136-2.326.142-1.351.004-2.128-.018-2.257-.062z" style="fill:#000;stroke-width:.0873548"/></svg>