<?xml version="1.0" encoding="utf-8"?>
<!-- Generator: Adobe Illustrator 24.0.1, SVG Export Plug-In . SVG Version: 6.00 Build 0)  -->
<svg version="1.1" id="图层_1" xmlns="http://www.w3.org/2000/svg" xmlns:xlink="http://www.w3.org/1999/xlink" x="0px" y="0px"
	 viewBox="0 0 24 24" style="enable-background:new 0 0 24 24;" xml:space="preserve">
<style type="text/css">
	.st0{fill:none;}
	.st1{fill:#1A1A1A;}
</style>
<g>
	<path class="st0" d="M12,24c-3.9,0-7.9,0-11.8,0C0,24,0,24,0,23.8C0,15.9,0,8.1,0,0.2C0,0,0,0,0.2,0c7.9,0,15.7,0,23.6,0
		C24,0,24,0,24,0.2c0,7.9,0,15.7,0,23.6c0,0.2,0,0.2-0.2,0.2C19.9,24,15.9,24,12,24z"/>
	<path d="M12,16.9c-2.7,0-4.9-2.2-4.9-4.9c0-2.7,2.2-4.9,4.9-4.9c2.7,0,4.9,2.2,4.9,4.9C16.9,14.7,14.7,16.9,12,16.9z"/>
	<path d="M12,2.9c0.8,0,1.6,0.1,2.4,0.3c0.2,0,0.2,0.1,0.1,0.3c-0.2,0.6-0.8,1-1.4,0.9c-0.7-0.1-1.5-0.1-2.2,0
		C10.3,4.4,9.7,4,9.5,3.4c0-0.1,0-0.2,0.1-0.2C10.4,3,11.2,2.9,12,2.9z"/>
	<path d="M2.9,12.1c0-0.9,0.1-1.7,0.3-2.5c0-0.2,0.1-0.2,0.3-0.1c0.6,0.2,1,0.8,0.9,1.4c-0.1,0.7-0.1,1.5,0,2.2
		c0.1,0.6-0.4,1.2-0.9,1.4c-0.1,0-0.2,0-0.2-0.1C3.1,14,3,13.7,3,13.4C2.9,12.9,2.9,12.5,2.9,12.1z"/>
	<path d="M12.1,21.1c-0.9,0-1.7-0.1-2.5-0.3c-0.2,0-0.2-0.1-0.1-0.3c0.2-0.6,0.8-1,1.4-0.9c0.7,0.1,1.5,0.1,2.2,0
		c0.6-0.1,1.2,0.4,1.4,0.9c0.1,0.2,0,0.2-0.1,0.3c-0.3,0.1-0.7,0.2-1,0.2C12.9,21.1,12.5,21.1,12.1,21.1z"/>
	<path d="M21.1,12c0,0.8-0.1,1.6-0.3,2.4c0,0.2-0.1,0.2-0.3,0.1c-0.6-0.2-1-0.8-0.9-1.4c0.1-0.7,0.1-1.5,0-2.2
		c-0.1-0.6,0.4-1.2,0.9-1.4c0.1-0.1,0.2,0,0.2,0.1C21,10.4,21.1,11.2,21.1,12z"/>
	<path d="M19.3,7.8c-0.5,0-0.9-0.2-1.2-0.5c-0.4-0.6-0.9-1.1-1.5-1.5c-0.5-0.4-0.7-1.1-0.4-1.7C16.4,4,16.4,4,16.5,4.1
		c1.4,0.8,2.6,2,3.4,3.4c0.1,0.1,0,0.2-0.1,0.3C19.6,7.8,19.5,7.8,19.3,7.8z"/>
	<path d="M4.7,7.8c-0.1,0-0.3,0-0.5-0.1C4,7.7,4,7.6,4.1,7.4C4.5,6.7,5,6.1,5.6,5.5c0.6-0.6,1.2-1,1.9-1.4C7.6,4,7.7,4,7.7,4.2
		C8,4.8,7.8,5.4,7.3,5.8c-0.6,0.4-1,0.9-1.5,1.5C5.6,7.7,5.2,7.8,4.7,7.8z"/>
	<path d="M19.3,16.2c0.2,0,0.4,0,0.5,0.1c0.1,0.1,0.2,0.1,0.1,0.3c-0.7,1.3-1.7,2.3-3,3.1c-0.1,0.1-0.3,0.2-0.4,0.2
		c-0.1,0.1-0.2,0.1-0.3-0.1c-0.2-0.6-0.1-1.2,0.4-1.6c0.6-0.5,1.1-1,1.5-1.6C18.5,16.3,18.8,16.2,19.3,16.2z"/>
	<path class="st1" d="M7.8,19.3c0,0,0,0.1,0,0.1c0,0.6-0.2,0.7-0.7,0.4c-1.3-0.8-2.3-1.9-3.1-3.2C4,16.4,4,16.3,4.2,16.3
		c0.6-0.2,1.2-0.1,1.6,0.4c0.4,0.6,0.9,1.1,1.5,1.5C7.7,18.4,7.8,18.8,7.8,19.3z"/>
</g>
</svg>
