<svg xmlns="http://www.w3.org/2000/svg" viewBox="0 0 24 24"><path d="M18.462 12a6.462 6.462 0 1 1-12.924 0 6.462 6.462 0 0 1 12.923 0zM8.624 23.519a1.846 1.846 0 0 1 2.046-1.451 10.277 10.277 0 0 0 1.329.086V24a11.994 11.994 0 0 1-3.375-.481zm4.703-1.451a1.846 1.846 0 0 1 2.046 1.45 12.004 12.004 0 0 1-3.374.482v-1.846a10.277 10.277 0 0 0 1.328-.086zM1.47 17.76a1.846 1.846 0 0 1 2.472.42 10.225 10.225 0 0 0 1.877 1.878 1.846 1.846 0 0 1 .421 2.472 12.055 12.055 0 0 1-4.77-4.77zm18.587.42a1.846 1.846 0 0 1 2.472-.42 12.055 12.055 0 0 1-4.77 4.77 1.846 1.846 0 0 1 .42-2.472 10.225 10.225 0 0 0 1.878-1.877zM0 12.001a11.994 11.994 0 0 1 .48-3.374 1.846 1.846 0 0 1 1.452 2.045 10.268 10.268 0 0 0 0 2.658 1.846 1.846 0 0 1-1.451 2.045A12.004 12.004 0 0 1 0 12.001zm24 0a11.994 11.994 0 0 1-.482 3.374 1.846 1.846 0 0 1-1.45-2.045 10.277 10.277 0 0 0 0-2.658 1.846 1.846 0 0 1 1.45-2.045A12 12 0 0 1 24 12.001zM6.24 1.47a1.846 1.846 0 0 1-.42 2.473A10.225 10.225 0 0 0 3.942 5.82a1.846 1.846 0 0 1-2.472.42 12.055 12.055 0 0 1 4.77-4.77zm11.519 0a12.055 12.055 0 0 1 4.77 4.77 1.846 1.846 0 0 1-2.472-.42 10.225 10.225 0 0 0-1.877-1.877 1.846 1.846 0 0 1-.421-2.473zM11.999 0a11.994 11.994 0 0 1 3.375.481 1.846 1.846 0 0 1-2.046 1.451 10.268 10.268 0 0 0-2.657 0A1.846 1.846 0 0 1 8.625.482 12 12 0 0 1 12 0Z" style="stroke-width:.0615383"/></svg>