<svg role="img" viewBox="0 0 24 24" xmlns="http://www.w3.org/2000/svg"><title>LocalAI</title><path d="M0 0v.02036A.02033.02033 0 0 1 .02036 0Zm23.97964 0A.02033.02033 0 0 1 24 .02036V0ZM8.32969.63281c-.05156 0-.5883 1.4789-.65392 1.80468-.0586.2836-.03985.8578.03515 1.08984.06563.21094.19922.46172.44766.84375.15469.2414.29766.4875.3164.54375 0 .0047.15705-.05624.34923-.13358l.3492-.14063h2.94141l-.12187-.1125c-.06797-.06329-.17108-.15-.23202-.1922-.06328-.04218-.10782-.08203-.10314-.08672.0211-.02344.39846.12424.61877.24143.22266.11484.25547.12654.3961.12654h.15233l-.08673-.11247c-.04922-.06094-.13826-.16174-.19686-.22268-.30703-.32344-.84374-.5789-1.46952-.69608l-.14063-.02812.32345-.16641c.17812-.0914.3164-.17345.30703-.18282-.04687-.03984-.53907-.09612-.72657-.08205-.20157.01406-.52735.10314-.6586.18048-.07734.04453-.07734.04452-.06327-.0047.0094-.02578.05622-.11718.1031-.2039.09844-.17344.20625-.43124.22968-.54609l.01408-.07498-.12421.06794c-.23204.12656-.55548.46407-.975 1.0172-.10313.13593-.20859.28125-.23203.32344-.02578.04219-.05157.07502-.0586.07502-.01875 0-.00234-.35862.03515-.7055.03985-.36797.04452-.82734.01171-1.06406-.03515-.22968-.1289-.59296-.21094-.80155-.11484-.3-.33514-.62578-.4781-.7125C8.38827.6539 8.34375.63281 8.32968.63281m4.73233.34363c-.01344.00012-.0324.01585-.07062.05013-.03984.03515-.17813.20623-.30704.38201-.32109.43829-.66563.84375-1.0875 1.275l-.18282.18986.21564.02812c.22734.03047.67502.13594.7055.1664.03046.03047-.47583.39846-.55317.4008-.01406.00234.06096.03749.17111.08202s.21093.08202.22265.08202c.06797-.00234.45-.5461.6164-.8789.2414-.4875.3164-.7992.31874-1.35936.0023-.20625-.007-.36798-.02108-.39142-.01025-.01743-.01736-.02677-.02781-.02668m-4.61773.3595h.00024c.03047 0 .17344.32812.23672.54609.17344.5953.17578 1.45312.00937 2.28515-.03047.14531-.06329.26486-.07735.26954-.03984.00938-.29298-.34452-.41017-.58124-.2039-.40547-.26717-.7383-.21327-1.13908.02813-.21328.1664-.675.33515-1.11562.05582-.14418.10933-.263.11931-.26484m-.39365 3.58593c-.01213.0017-.08185.21801-.07251.22735.00469.0047.06093-.0164.12421-.04686.1125-.05157.11718-.05627.08202-.1008q-.03514-.0457-.02108-.00704c.00938.02578-.00706.04689-.04456.06564-.08437.0375-.0867.03514-.07265-.05627.00703-.04453.0094-.08202.0047-.08202zm3.7431.02345-2.54765.00233-.3164.12888c-1.30313.5297-1.45549.60471-1.5258.743-.0586.1125-.09844.11953.40546-.07265.47813-.18516 1.29376-.45 1.37813-.45.0797 0 .08205.00468.12892.33516.0914.66093.25548.93515.63048 1.05468.15234.04688.21327.05154.70546.05154.49687 0 .55313-.00465.71016-.05387.30469-.0961.42889-.2672.56717-.77814.04687-.17813.08908-.28359.11955-.30937.06797-.05625.18515-.07501.33515-.04923.13593.02343.1547.01406.1547-.08673 0-.05859-.10548-.07967-.39376-.08202-.19922 0-.22267.0047-.26017.05157-.02344.02813-.082.20624-.12888.39843-.09844.38906-.16172.52032-.29766.6047-.16875.1078-.35157.13358-.9211.1242-.51094-.00703-.52034-.00702-.6516-.07264-.14062-.06797-.18747-.12422-.24372-.28125-.03281-.08906-.19686-.9797-.19686-1.0594 0-.05156 4.67812-.05389 4.7461-.00232.0328.02343.04451.06328.04685.15703 0 .07032.0117.13359.02341.14296.01406.01172.01174.01875-.0047.01875-.02109 0-.03045.03516-.03045.10313 0 .05625-.02579.20626-.0586.33282l-.05862.23202.05861.05156c.03516.03047.0703.0539.08202.0539.02578 0 .05858-.1195.11718-.41013.04922-.24844.05158-.74062.0047-.82734l-.03045-.05156zm-.96095.35156-.27188.5156c-.15.2836-.27184.52032-.27184.52735s.05856.01173.13122.00704l.12891-.00704.26955-.52264.26954-.5203h-.12658zm.59532 0c-.10078 0-.11017.01171-.38205.53905-.2625.51094-.2648.51562-.17808.51327.03516 0 .08437-.00938.1078-.0164.02344-.00938.1453-.22966.28592-.51795.13594-.27421.2461-.5039.2461-.5086 0-.00468-.03515-.00936-.07968-.00936zm2.31798 0-.11484.28122c-.06328.15703-.11016.28593-.10547.29062.0047.0047.04218.01642.08202.02345l.0703.01641.11718-.28829c.06328-.15703.11957-.29529.12192-.30466.0047-.01172-.03284-.01875-.08205-.01875zm-1.4203.4922c-.06093 0-.11016.06091-.13828.17107-.09141.35625-.19687.56487-.37265.75002-.13593.14531-.3961.2953-.51797.3l-.0586.00233.0586.0164c.04922.01407.03046.02814-.14766.10314-.31172.1336-.525.18284-.87187.1969-.37734.0164-.52968-.01174-.77577-.13362-.31172-.15703-.54377-.40312-.71487-.75703-.04453-.0914-.06325-.11015-.1031-.09843-.16171.04688-.92812.2039-.93984.19453-.00703-.00703.01873-.07736.05857-.1547l.07031-.1383.20627-.06323c.41953-.13125.90937-.293.8789-.293-.01406-.00234-.18984.04923-.38671.11251-.19453.06328-.43127.13595-.52268.16408-.0914.02578-.18281.06793-.20156.08902-.03516.03984-.27891.5297-.48282.97033l-.09372.20394.16874-.11254c.23203-.15703.46173-.30467.4711-.30467h.00003v.00003h.00002c.00167.00294-.01231.07908-.03759.1687-.02344.09375-.0797.3656-.12658.60466-.10078.51563-.26718 1.21174-.36327 1.5258-.03985.12422-.07032.23201-.07032.24139s.13358-.08436.2953-.20624c.2789-.21328.33282-.24845.3047-.20626-.01172.02109-.2508 1.34062-.3047 1.7039-.03985.2461-.1078.88594-.1078.97734.00233.05391.00232.05392.03045.0047.0164-.02578.09844-.13593.18282-.2461.08671-.1078.24142-.31641.34689-.46172.10312-.14766.18986-.26014.18986-.25077 0 .0094-.02112.13358-.0469.27655-.04653.26756-.05163.48006-.07605.71713.01825-.16658.03638-.32437.07838-.58351.04922-.30469.06798-.36799.06798-.23205 0 .23672.21564 1.2797.33986 1.65.12656.36798.40546.97502.5625 1.21877l.0586.09373-.01172-.08201c-.02812-.19453-.08203-.90002-.07968-1.06877 0-.18046.00235-.18278.03282-.1031.0164.04453.09376.22266.17344.3961.22266.48984.45235.85547.73828 1.16719.1711.18984.62343.59296.67968.60703.02813.007.09374.0867.15233.18045.0586.09375.14063.2133.18516.2672.04453.05626.07033.10077.05627.10077-.04922 0-.4219-.16874-.60236-.27421-.27188-.15703-.51328-.34219-.73125-.5625-.23437-.23203-.26015-.2344-.03515-.0024.34219.35625.8367.67266 1.34764.86016l.1383.04923-.10548-.12188c-.23437-.2789-.40077-.58827-.52967-.9867-.0586-.18516-.12658-.53202-.10314-.53202.0023 0 .04923.04684.10314.10543.10547.11485.3492.31642.51326.42892l.10547.07265.01174-.1453.01171-.14533h3.7336l.03983-.11013c.0211-.06094.05157-.1219.06798-.13363.01875-.0164.28124-.0281.69609-.03279.36562-.0047.26015-.007-.23672-.0023-.83907.0047-2.00859-.01407-3.13124-.05157l-.47111-.01408.04923-.10313.04686-.1031h.63752l.04686-.08672c.03516-.06563.0656-.0914.12655-.10547.04453-.0094.70547-.02812 1.46485-.03749 1.29844-.01875 1.33126-.0211.53438-.02345-.82969-.0047-.85079-.007-.85079-.05157 0-.02344-.01877-.05388-.03986-.06794-.02344-.01172-.43825-.03284-.92106-.0469-1.2164-.0375-1.61719-.0539-1.61719-.0703 0-.007.0211-.04457.04453-.08207l.0469-.06794.8156.0023c.44765.0023 1.19064.01171 1.64767.01875.48281.0094 1.23045.0024 1.78123-.01404.52265-.01406 1.42967-.03752 2.01561-.0469.58594-.01172 1.1836-.02576 1.32423-.03279.14297-.0047.34924-.0094.4594-.01174l.2039-.0023.04686-.09376c.02344-.05156.03985-.09844.03282-.10547-.007-.007-.22264-.0117-.47811-.0117-.32344 0-.46407-.007-.46407-.02579 0-.01406.01404-.0211.03279-.01408.01875.007.0633.0047.1008-.007.04453-.01172-.04687-.0211-.27421-.0211-.1875-.0023-.3961-.0094-.46407-.01876-.10781-.01172-.12423-.02108-.1125-.05624.007-.02578.02108-.06329.02811-.08672.01172-.04219-.03282-.04452-.99141-.06328-2.32969-.04219-2.58278-.04688-2.56637-.03282.04922.03984.42889.18983.67264.26718.15468.04922.30233.09843.3281.1078.02813.01172-.21093.01643-.5625.01174-.56015-.007-.6281-.01407-.8367-.06798-.25547-.06797-.5672-.20626-.78985-.34923-.14062-.0914-.14529-.09842-.09373-.1195.03047-.01173.16168-.0164.29059-.0094.1143.0042.1973.0046.20156-.00025.00044-.0006-.00028-.0013-.0023-.0021-.07969-.02578-.5086-.24844-.6047-.31407-.1289-.08906-.37499-.31874-.50155-.46874l-.0961-.11487.09143.01408c.04922.007.13827.02344.19686.03516s.16408.02812.23439.03749l.12891.0164-.1172-.09372c-.38207-.30465-.69846-.825-.98908-1.63593-.09375-.26016-.09844-.27187-.08673-.15234.03984.39375.1711.9117.3047 1.2164.03047.06797.05624.12892.05624.13595 0 .0047-.082-.03283-.18045-.08439-.10039-.05136-.18453-.08876-.18982-.08442l-.00002.00003c-.0375.03516.53437 1.03594.60702 1.06172.01172.0047.02108.01876.02108.03282s-.15936.01876-.44295.01408c-.24375-.0047-.4383 0-.43362.0094.02344.0375.5719.39142.6516.41954.04687.01641.08435.03746.08435.04449 0 .02344-.35391 0-.59766-.03749-.1289-.02109-.31875-.06328-.42188-.0961-.35391-.11014-1.47889-.73122-1.3242-.73356.06328 0 .63514.06095.78514.08439.09375.01406.09373.01406-.0469-.06094-.4078-.22034-.87183-.59536-1.41558-1.14614-.47344-.48047-.7008-.78985-.9797-1.32657l-.14534-.28125-.00233.12892c-.00234.3586-.16641-.30705-.18282-.74298-.01406-.375.0047-.44998.06564-.26014.11953.38438.56484.92577.98671 1.19765l.0586.03982-.08905-.2648c-.04922-.14297-.08906-.26722-.08906-.27425v-.00012l.00003-.00002.0000-.0001h.00002l.00003-.00002.00002-.00002h.00002c.00373-.00093.0421.03087.08885.0754.13829.13124.3328.2742.45233.33748.14531.07265.46406.16406.64219.18515l.14062.01408-.10547-.09843c-.05859-.05391-.1664-.15705-.23905-.22502-.075-.07031-.13596-.1289-.13596-.13125 0-.00234.12892-.00703.28829-.00937.15703-.00234.35391-.01405.43829-.02812.2203-.0375.75234-.03047.98437.00937.10781.01875.3258.07031.48048.11484.78984.22266 1.17421.23203 1.575.0375.20624-.10313.34452-.23436.3703-.35624.02578-.11484-.01407-.12891-.1922-.06798-.25546.08438-.52498.11017-.82967.07736-.38203-.0422-.6328-.13829-.97733-.36798-.08672-.0586-.16876-.10547-.18282-.10547s-.03983.0258-.05624.0586c-.04687.08673-.08206.05857-.0891-.07034-.0094-.15.04692-.29531.15004-.38672.11016-.0961.16402-.09139.1945.01408.03983.14531.13126.23671.33751.33515.3.14531.52266.19922.825.20157.22266 0 .27186-.00704.35624-.05157.31875-.1711.33986-.58827.03986-.8039-.15235-.1078-.37969-.20623-.53672-.232-.1289-.01876-.18986-.0141-.4008.03278-.06093.01406-.07965.00704-.11247-.0375-.0539-.07968-.04689-.11953.03983-.20156.13594-.13125.21797-.15937.45-.15937.19453 0 .22498.00702.37264.08202.09141.04453.2227.13593.2977.2039.14765.13828.14997.1383.2273-.03982.10548-.24844.07736-.4008-.1078-.5672-.1875-.16876-.64687-.35155-1.2914-.51327-.19922-.04922-.382-.0914-.4031-.0914Zm-3.30001.07027c-.05156 0 .0797.45002.1922.6633.16874.31875.58123.5625.94217.55313.04675-.00203.07236-.0032.07375-.00518l.00002-.0001c0-.00005.00002-.00014 0-.00016-.0015-.00261-.04136-.00671-.12534-.01562-.21798-.02345-.3703-.075-.53906-.18516-.17344-.1125-.27657-.23205-.36564-.4172-.0703-.15235-.15703-.44533-.15703-.54143 0-.02812-.00936-.05156-.02108-.05156zm5.46563.8836-.02815.11252c-.03047.11718-.11953.30935-.19453.41717-.0422.0586-.04452.0797-.02108.2133.01406.07969.02578.23907.02578.35157 0 .19921-.00002.2039.0656.22734.03517.01407.1008.01874.14534.01171.33515-.0539.42655-.55314.18749-1.0336-.05157-.10313-.11249-.21326-.13593-.24373Zm-3.38204.2953c-.04453 0-.16642.00941-.26954.01645l-.1875.01404.16408.00237c.09141.00234.21092-.0047.26951-.01408.0482-.00989.0723-.01457.07364-.01679l.00002-.0001.00003-.00001v-.0001l-.00003-.00002c0-.00001-.00004-.00009-.00007-.00009-.0017-.00153-.01866-.00158-.05016-.00158zm-.63281.0469c-.0657 0-.1051.0022-.10774.00508-.00001.00001-.00004.0001-.00007.0001l-.00002.00009-.00002.00009v.0001l.00007.00009c0 .00001.00004.0001.00007.0001.0011.00115.0079.00242.021.00366.04688.0047.12657.0047.17579 0 .01209-.0012.01842-.0024.0195-.00354.00001-.00002.00004-.0001.00007-.0001l.00007-.00009v-.00019l-.00003-.00009c-.0018-.00297-.0415-.0053-.1087-.0053zm5.67656 1.21172-.02578.07031-.02345.07032.21564.00233c.11953.00234.33516.00469.48282.00704l.26717.00233.0422-.07736.04453-.07498h-.50156zm.48748.02345c.45235 0 .46409-.00001.45237.04686-.01172.04453-.03283.04687-.47815.04687-.25781 0-.4664-.0047-.4664-.00937 0-.0047.007-.02577.01408-.04687.01172-.0328.07733-.03749.4781-.03749m-.02107.77107-.03517.07968c-.07734.1875-.13827.16876.57892.16408.34921-.00234.90233-.0047 1.22343-.00704h.58828l.03749-.1031.03749-.10314-.06091-.0117c-.03516-.00703-.58127-.0141-1.21643-.01645zm-7.28438.51797c-.0164 0 .11014.49688.13592.525q.00116.00147.00182.00094c.00462-.0043-.01124-.08581-.03694-.19079L9.382 9.73357l.31407.32345c.34219.35156.52032.50625.825.7125l.19687.13125-.23669-.007c-.1289-.0047-.22971 0-.22268.0094.0047.01172.1289.01878.27188.01878h.2625l-.17578-.11258c-.38906-.25078-1.03124-.8367-1.20702-1.10155-.03515-.0539-.06798-.09846-.07501-.09846m-2.43337.12926c-.00559-.00001-.0119.01197-.0182.03244-.00937.03985-.00704.04924.01171.0305.01172-.01173.01876-.0375.01408-.05391-.00231-.00615-.00486-.00902-.0076-.00903zm10.22634.02544c-.0047 0-.83202-.00002-1.83983.00467l-1.8305.0047-.02577.07498c-.01406.03985-.02106.07737-.01638.08206.0047.00469.01872-.02344.03279-.06094l.02578-.07265h3.61172l-.03045.07498-.0305.07735-1.82812.0117-1.82578.01171 1.83049.00707 1.82812.00467.05153-.10783c.03047-.06094.05158-.11013.0469-.11248zm-10.33754.0814c-.00558.00019-.01905.00734-.04058.0217-.01875.01172-.02815.02816-.02112.0352.00937.00702.02816-.00236.04457-.02346.01845-.02241.0243-.0337.01713-.03344m8.15786.7764c-.53907-.0023-.9797.0024-.9797.01173 0 .01641.75468.01641 1.61718 0 .1875-.0023-.10076-.0094-.63748-.01174m1.51638 0c-.0375 0-.05156.0047-.02812.01173.0211.0047.05391.0047.07031 0 .01406-.007-.0023-.01174-.04219-.01174m1.79297 0c-.0328 0-.04452.0047-.02812.01173.01406.0047.0422.0047.05861 0 .01406-.007.0023-.01174-.03049-.01174m-2.2148.0024c-.04228 0-.06786.0021-.06898.0049v.00008l-.00002.0001v.00002l.00002.0001c.00053.0013.0061.0027.01737.0042.03516.0047.08674.0047.11721 0 .0069-.0012.01043-.0023.01081-.0034l.00003-.0001v-.00019l-.00003-.00009c-.0015-.0031-.02925-.0056-.07642-.0056zm.76169 0c-.04834 0-.07784.0022-.07938.0051l-.00007.00009v.00019l.00002.00009c.00055.0012.0057.0025.01614.0038.03516.0047.09138.0047.12889 0 .0095-.0013.01418-.0025.01462-.0037l.00002-.0001v-.00019l-.00002-.00009c-.0017-.003-.03134-.0053-.08023-.0053zm-2.0909.2292a.1.1 0 0 0-.0091.00048c-.02578 0-.0328.007-.01404.01408.0164.007.03747.0047.0445-.0024.0082-.0062-.0015-.01233-.02136-.0122zm.87214.0052c-.06606 0-.10554.0022-.10777.0051l-.00007.00009-.00002.0001v.00011l.00007.0001c0 .00001.00004.00009.00007.00009.0011.0012.0079.0025.021.0037.04689.0047.1266.0047.17582 0 .0121-.0012.0184-.0024.01947-.0036l.0001-.0001.00002-.0001.00002-.00008v-.0001l-.00002-.00002-.00003-.0001c0-.00001-.00004-.00009-.00007-.00009-.003-.0029-.04253-.0052-.10859-.0052zm-1.31249.0023c-.14746 0-.23444.0022-.23844.0044-.00001 0-.0001.00004-.0001.00007v.00002l-.00001.00002v.00003l.00002.00003.00002.00002c.0014.00087.01641.0018.04631.0024.10547.0047.2789.0047.38672 0 .02925-.00065.04372-.0015.0448-.0024l.00002-.00002.00003-.00002v-.00005l-.00003-.00002c-.0029-.0022-.09023-.0045-.23936-.0045zm.79689 0c-.1206 0-.19249.0011-.19515.0034l-.00002.00002-.00003.00002v.00005l.00003.0001c.0011.00093.01344.0021.03814.0034.08672.0047.22734.0047.3164 0 .02337-.0013.03517-.0024.03653-.0033.00002-.00002.0001-.00005.0001-.00008l.00002-.0001v-.00001l-.00002-.00003c-.0027-.0023-.07473-.0035-.196-.0035zm3.78046.27888c-1.20938 0-2.17032.0047-2.13516.0094l.06327.0094-.06327.11484-.06328.11717h-1.97108l-.0516.12188c-.02812.06563-.04684.12423-.0445.12892.0047.0023.80388.0094 1.7742.01171l1.76718.007.0422-.13829c.02343-.07734.04687-.14297.05156-.14766.0047-.0047.62579-.0094 1.37813-.007l1.3711.0024.03983-.10314c.02109-.0539.03753-.1055.03753-.11487 0-.007-.98907-.01171-2.1961-.01171zm-1.68283.2086c.03984 0 .05626.0047.04219.01174-.01641.0047-.04922.0047-.07031 0-.02344-.007-.0094-.01174.02812-.01174m.38672.0024c.04889 0 .0785.0023.0802.0052l.00007.0001v.00002l.00002.00009-.00002.0001v.00009c-.00057.0012-.0053.0025-.01463.0037-.0375.0047-.09376.0047-.12892 0-.01025-.0013-.01544-.0026-.0161-.0038l-.00002-.0001-.00003-.00009V11.356l.00003-.0001c.0015-.0029.03107-.0051.0794-.0051zm.3516.0234c.04142 0 .06526.0024.06574.0054v.0002c-.00031.0012-.0042.0025-.01188.0038-.03047.0047-.07734.0047-.10547 0-.0086-.0013-.01286-.0026-.01332-.0038l-.00002-.0001v-.00019c.0007-.0029.02445-.0052.06496-.0052zm-.47376.22925c.01983-.00012.0296.006.0214.01215-.007.007-.02813.0094-.04454.0024-.01875-.007-.0117-.01408.01408-.01408a.1.1 0 0 1 .0091-.00045zm-.24111.0028c.03984 0 .05626.0047.04219.01174-.01641.0047-.04922.0047-.07031 0-.02344-.007-.0094-.01174.02812-.01174m-.8133.4594-.6703.0047-.02578.07502c-.01406.03984-.02578.07264-.02578.07498 0 .0023.23439.0047.52267.0047l.5203.0047-.48514-.01644c-.26719-.0094-.49453-.02341-.50156-.0328-.0094-.007-.0094-.03046-.0024-.05156.01406-.03047.23205-.03517 1.9547-.03986 1.06641-.0023 1.78357-.0094 1.58904-.01171-.65156-.01172-2.19843-.01874-2.87577-.01171zm-8.27627.02887c-.04263.56941-.04189 1.08873.05442 1.53204.02578.11484.0539.21565.06094.22268.00938.007.00935-.01874-.00237-.05624-.09141-.37735-.11013-.53909-.12185-1.06643-.00646-.26488-.00368-.44382.00886-.63206zm8.59937.16331c-.0074.00094-.02809.03106-.04885.07028-.02109.0375-.0305.07031-.02582.07031.007 0 .02814-.0328.04923-.0703.0211-.03985.03047-.07029.02578-.07029zm-8.28372.88609c-.00225.00014-.00343.0047-.00343.0139 0 .03517.12189.41718.12892.4078.00447-.0053-.01655-.0965-.0469-.2039-.0415-.14333-.0693-.21838-.07859-.2178m-.06207.0394c-.00432.0004-.00697.01712-.00697.04715 0 .0375.00468.05156.0117.02812.0047-.0211.0047-.05391 0-.07031-.00165-.0033-.00317-.0049-.00453-.0049h-.0002zm-.02204.13562c-.00543.00065-.01817.05435-.02476.12246-.00937.07266-.01176.13593-.00707.14296.00703.0047.01878-.04919.02815-.12184s.0117-.13831.00467-.143c-.00029-.00043-.00063-.00058-.001-.00058zm.23222.29807-.00007.00002h-.0001l-.00002.00003h-.00002l-.00002.00002-.00003.00002-.00002.00003c-.00262.0034.01301.04967.04803.13595.02344.05625.04454.09608.05157.0914.00469-.007-.01876-.06796-.05157-.13593-.0282-.06163-.04432-.09162-.04769-.0916zm-.28025.0058c-.00625.00024-.01192.03733-.01192.08576 0 .05391-.0117.11951-.02341.1453-.0164.02812-.01642.07266-.0047.11954.01875.06563.02343.0492.03749-.12892.01172-.11484.01173-.21328.0047-.2203-.00071-.00095-.00146-.0014-.00216-.0014zm5.00372.09747c-.21259 0-.33713.0023-.33938.0045v.00007c.0013.00087.02228.0018.06513.0024.15.0047.39845.0047.5508 0 .04218-.00066.0627-.0015.06364-.0024l.00003-.00003-.00003-.00002c-.0031-.0022-.1276-.0045-.3402-.0045m-4.61721.1617c0 .04923.25547.50861.42187.76174.20157.30468.43126.56486.65626.74298.13594.10547.14533.1078.11018.04686-.10547-.1875-.2133-.53905-.2508-.8203-.0083-.06912-.01334-.09991-.01655-.09768-.0022.0018-.00358.01936-.00453.05078-.00234.11484.09374.5203.1617.67734.02579.06328.04222.11955.03753.12658-.0211.02109-.27425-.2133-.42191-.39143-.08203-.09844-.20622-.26952-.27888-.37968s-.19453-.32108-.27188-.46874-.143-.25784-.143-.24846Zm7.00285.29955a.1.1 0 0 0-.0091.00049c-.02578 0-.03286.007-.0141.01404.0164.007.03752.0047.04455-.0023.0082-.0062-.0016-.01233-.02139-.0122zm-.1825.0028c-.03282 0-.04454.0047-.02813.01171.01406.0047.04216.0047.05857 0 .01406-.007.0024-.0117-.03045-.0117m.37298.0018a.5.5 0 0 0-.03316.00052c-.03424 0-.054.0021-.0545.0048l-.00002.0001v.00002c.0002.0013.0049.0029.0147.0044.02812.0047.07028.0047.09372 0 .01582-.0053.0066-.0092-.02074-.0099zm-.58393.00052c-.0405 0-.06422.0023-.06492.0052l-.00002.0001v.00002l.00002.00009c.00036.0012.0047.0026.01336.0039.02812.0047.075.0047.10547 0 .0078-.0013.01163-.0026.01184-.0038V14.192c-.00073-.003-.02455-.0054-.06575-.0054zm2.42578.02578c-.43828 0-.62112.0047-.4055.007.21563.0047.57423.0047.7969 0 .22265-.0023.04688-.007-.3914-.007m.76874.03282-.02578.0656c-.01172.0375-.03045.08675-.03983.10785-.01641.03984.04217.04216 1.00545.04216h1.02187l.03986-.08202c.02109-.04453.03515-.08674.02812-.09143-.0047-.0047-.46407-.01641-1.01953-.02578zm-5.82186.2156-.07031.1547c-.03984.08438-.06566.15936-.06097.16405l.00021.00014c.0055.0025.0379-.06004.07481-.1431l.06327-.15233 1.4344-.007 1.432-.0047-1.4367-.007zm-1.94043.05189c-.0017.00007-.0025.0007-.0025.002 0 .02109.39139.25784.68201.41487l.2625.14059 1.05703-.0047 1.05702-.007-1.0664-.01171-1.06639-.01171-.16874-.0891c-.09375-.04687-.27655-.14999-.4078-.22968-.13125-.07734-.26489-.15702-.29536-.17811-.02285-.01523-.04414-.0258-.05133-.02547zm1.88416.3278c-.0375 0-.05156.0047-.02812.01174.02109.0047.0539.0047.0703 0 .01407-.007-.0024-.01174-.04218-.01174m.69142.02345c-.03281 0-.04452.0047-.02812.01171.01406.0047.0422.0047.0586 0 .01407-.007.0023-.01171-.03048-.01171m.83204.0047c-.38672 0-.54144.0047-.34456.007.19687.0047.51331.0047.70316 0 .18984-.0023.02812-.007-.3586-.007m1.41795.01878c-.0328 0-.04452.0047-.02812.01171.01406.0047.0422.0047.05861 0 .01406-.007.0023-.01171-.03049-.01171m-.26954.0023c-.04202 0-.0675.0021-.0689.0048l-.00003.0001v.00002l-.00002.0001.00002.00008v.0001c.00065.0013.0062.0027.01737.0041.03516.0047.08674.0047.1172 0 .0069-.0012.01044-.0023.01083-.0034l.00002-.0001v-.00019l-.00002-.00009c-.0015-.0031-.0293-.0056-.07646-.0056zm1.01953.0023c-.37968 0-.5367.0047-.34452.007.18984.0047.4992.0047.69138 0 .18985-.0023.03283-.007-.34686-.007m-1.4297.16174c-.05768 0-.09125.0022-.09325.0051l-.00007.0001v.00009l-.00002.00002.00002.0001v.00009c.00067.0012.0066.0025.01833.0038.03984.0047.11015.0047.15234 0 .01074-.0013.01623-.0025.01682-.0037l.00002-.0001v-.00019l-.00002-.00002-.00003-.0001c-.0021-.0029-.0358-.0052-.09414-.0052m-.84574.0229a.5.5 0 0 0-.03317.00055c-.03444 0-.05422.0021-.05448.0049v.00002c.0001.0014.0048.0029.01466.0045.02812.0047.07032.0047.09376 0 .01582-.0053.0066-.0093-.02077-.0099zm.1875 0a.5.5 0 0 0-.03314.00055c-.03444 0-.05425.0021-.05452.0049v.00002c.0001.0014.0048.0029.01466.0045.02812.0047.07032.0047.09376 0 .01582-.0053.0066-.0093-.02077-.0099zm.27153.00055c-.06332 0-.10176.0024-.10437.0054-.00002.00001-.00005.0001-.00007.0001l-.00003.00009-.00002.00009v.0001l.00002.00009c.00061.0011.0056.0023.01545.0034.0422.0047.11717.0047.16404 0 .01442-.0014.0218-.0028.02273-.004l.00007-.0001.00003-.0001v-.00011l-.00003-.0001c-.0018-.0028-.03676-.0049-.0978-.0049zm1.7508.34452-.03282.10547-.03516.10547.74766-.0047.74765-.007.04453-.1008.04453-.09843h-.75703zm-2.23829.0047c-.89297-.0047-.95624-.0024-.96796.03512-.007.02344-.02578.07031-.04453.10547l-.03282.06564.94218-.0047.94221-.007-.91876-.0047-.91877-.007.03282-.07732.0305-.07502.94688-.0117.94451-.01175zm-2.03202.95856c-4.68516 0-8.54063.0094-8.56641.02111-.02579.0094-.07734.05157-.11718.09376l-.07031.07265-.00704 2.48905c-.0047 2.43516-.00471 2.49142.03982 2.56408.02578.04219.07504.09374.11254.11717.06094.03985.41249.0422 8.60858.0422 8.12343 0 8.54767-.0023 8.6086-.0422.03516-.02109.08201-.06798.1031-.10313.03984-.0586.0422-.21328.0422-2.55 0-2.35781-.0023-2.48905-.0422-2.55-.02344-.0375-.07499-.0867-.11717-.11013-.075-.04688-.18985-.04691-8.59453-.04456m-.007.27892c5.73047 0 8.39064.007 8.42345.02345.04453.02344.04453.07498.04453 2.38592 0 1.80703-.0071 2.36953-.02815 2.39062-.02109.0211-1.92887.02815-8.43746.02815-8.2875 0-8.40704-.00002-8.43283-.04456-.0164-.03047-.02344-.81325-.02344-2.37184 0-2.13047.00236-2.3297.03986-2.36955s.3281-.04219 8.41404-.04219m-4.57381.63075c-.26836.0021-.53205.0173-.61057.04425-.1711.05859-.28357.1547-.35623.3047l-.06564.13358v2.67188l.05627.12421c.03047.06797.0984.15937.14996.2039.1664.14297.24377.1547.90002.14766.55781-.007.58593-.0094.68672-.06094.225-.11718.31875-.26482.35156-.54138.01172-.10547.01875-.71019.0164-1.34534-.00706-1.24447-.00707-1.2257-.13832-1.41086-.08437-.12188-.19453-.19453-.35156-.23672-.09727-.02578-.3703-.03693-.63865-.03488Zm-3.0129.0021v3.63283h1.66405v-.63284h-.96092v-2.99999h-.3516Zm9.8672 0v3.63283h1.68749v-.63284h-1.00782v-2.99999h-.33985zm2.70469 0-.11017.5789c-.06094.3211-.21094 1.11797-.33515 1.77657-.12188.65625-.22736 1.21407-.23439 1.23517-.01172.03984.01641.04219.34923.04219h.3586l.05387-.31174c.02812-.16875.0586-.3328.06564-.36327.01172-.05156.01405-.05159.38905-.0469l.37735.007.06097.35156.0609.35157.36331.007.36327.0047-.10076-.5086c-.05625-.28125-.2133-1.07579-.3469-1.76485-.13594-.68906-.2508-1.27735-.25783-1.30782l-.01171-.05157h-.52264zm2.14686 0v3.63283h.70313v-3.63283h-.35156zm-6.52264.0047c-.30938-.0023-.53205.0023-.53205.0164 0 .01173-.03749.21328-.08202.45-.1664.89531-.57424 3.11484-.57424 3.13828 0 .01406.12891.02345.34923.02345h.34689l.03983-.25313c.02344-.13828.05158-.3.06564-.36327l.0234-.11017h.37032c.36328 0 .37033 0 .38205.05157.007.03047.03514.19452.0656.36326l.05158.31174h.74298l-.01171-.05394c-.0047-.02812-.07502-.37967-.15237-.7781a4325 4325 0 0 1-.34922-1.75782l-.2039-1.03124zm-2.51254.0047c-.29531-.0023-.56718 0-.6.007-.11718.01875-.30937.15468-.37734.26484-.1078.17578-.11484.2789-.10547 1.61015.00703 1.37109.0047 1.34065.16408 1.52112.17812.2039.20158.20857.8836.20857h.59766l.12889-.07265c.15234-.08672.26717-.23905.30233-.4078.01406-.06563.02582-.25546.02582-.4242v-.30471l-.33986.007-.34219.007-.0047.24843c-.007.34453-.01173.34923-.34923.34923-.38437 0-.34689.12655-.34689-1.20235 0-1.32188-.03516-1.19764.33515-1.19061.13125.0023.25782.0094.27892.0164.06328.01876.09376.16404.08439.4031l-.007.21564h.69141v-.34686c0-.41953-.03047-.54843-.1664-.69608-.05156-.05625-.14297-.12658-.2039-.1547-.10547-.05391-.13598-.05626-.64926-.05861zm-2.7539.6164c.08438-.0047.21094-.007.28126 0 .225.01406.21093-.06093.21093 1.20235 0 1.19297.00471 1.15313-.12888 1.18594-.10313.02578-.51799 0-.55783-.03516-.03516-.02812-.03983-.13828-.03983-1.15078 0-1.28672-.01877-1.18595.23436-1.20235zm10.1866.14262c.0059-.00028.0087.02204.0087.06599 0 .03516.0586.38204.12891.7711.07031.3914.12892.71481.12892.7195 0 .0023-.12891.007-.28829.0047-.15937 0-.28358-.01173-.28358-.02345.0023-.01172.06559-.36092.14059-.7781.0933-.5168.14543-.75884.16472-.75974zm-4.90612.005c.0094 0 .0164.02345.0164.04923 0 .02812.05858.375.1289.77343.0703.3961.1289.72419.1289.72888 0 .02109-.56249.0047-.56249-.01638 0-.01406.05859-.3633.13359-.77814.075-.4172.14298-.75703.1547-.75703zM0 23.97964V24h.02036A.02033.02033 0 0 1 0 23.97964m24 0A.02033.02033 0 0 1 23.97964 24H24Z"/></svg>