<svg role="img" viewBox="0 0 24 24" xmlns="http://www.w3.org/2000/svg"><title>Locust</title><path d="M16.607 12.668L22.15 7.079l-.725-.731-5.543 5.589z m1.928 .506L24 7.708l-.73-.73L17.804 12.443z m-1.692-1.214h1.112v3.237h-1.112ZM6.622 5.969l-1.517 .738-.157 .076-2.936 11.248h2.912l2.038-7.799 7.799 7.799h3.924z m-4.485 9.881l-.47 1.802H0v-.82z m10.257-4.712l5.684-2.612h1.702l1.701 1.701v2.888l-1.65 1.65-2.09-2.118-.532 .524 4.421 4.481h-2.722z m-5.953 2.735l2.449-1.126 3.605 3.605-3.008 1.3H5.454z"/></svg>