<svg role="img" viewBox="0 0 24 24" xmlns="http://www.w3.org/2000/svg"><title>Lodash</title><path d="m0 20.252h24v2.543h-24zm0-19.047h2.237v14.847h8.848v1.831h-11.085zm18.126 16.678c-1.409.001-2.816-.433-3.909-1.342-1.993-1.943-2.461-5.136-1.444-7.678.712-2.207 3.065-3.664 5.353-3.634 2.288-.03 4.641 1.427 5.353 3.634 1.017 2.542.549 5.735-1.444 7.678-1.093.909-2.5 1.343-3.909 1.342zm0-10.875c-1.424-.03-2.791.919-3.299 2.241-.732 1.831-.732 4.17.691 5.695.642.787 1.62 1.191 2.608 1.204.988-.013 1.966-.417 2.608-1.204 1.423-1.525 1.423-3.864.691-5.695-.508-1.322-1.875-2.271-3.299-2.241z"/></svg>