<svg role="img" viewBox="0 0 24 24" xmlns="http://www.w3.org/2000/svg"><title>Longhorn</title><path class="cls-1" d="M12.019 12.28a1.2 1.2 0 0 1-.239-.024l-.643-.128.554 3.405a1 1 0 0 1 .016.195h.624a1.2 1.2 0 0 1 .02-.218l.62-3.396-.714.142a1.2 1.2 0 0 1-.238.024m9.317-9.812H2.701A2.51 2.51 0 0 0 .2 4.97v14.356a2.51 2.51 0 0 0 2.502 2.502h18.635a2.51 2.51 0 0 0 2.502-2.502V4.97a2.51 2.51 0 0 0-2.502-2.502m.42 5.06-.304 2.069a1.22 1.22 0 0 1-.965 1.016l-4.95.988-.001.015-.775 4.241a2.437 2.437 0 0 1-2.43 2.305h-.624a2.437 2.437 0 0 1-2.432-2.319L8.59 11.62l-5.038-1.006a1.22 1.22 0 0 1-.966-1.016l-.304-2.069a1.217 1.217 0 0 1 2.408-.354l.18 1.22 7.15 1.428 7.15-1.428.18-1.22a1.217 1.217 0 0 1 2.408.354" style="fill:#000000;stroke-width:0.12169"/></svg>