<svg role="img" viewBox="0 0 24 24" xmlns="http://www.w3.org/2000/svg"><title>Longhorn</title><path d="M23.55 0H.45a3.11 3.11 0 0 0-3.103 3.102v17.796A3.11 3.11 0 0 0 .45 24h23.102a3.11 3.11 0 0 0 3.102-3.102V3.102A3.11 3.11 0 0 0 23.55 0m.522 6.273-.377 2.564a1.51 1.51 0 0 1-1.197 1.26l-6.136 1.225-.002.018-.96 5.258a3.02 3.02 0 0 1-3.013 2.858h-.774A3.02 3.02 0 0 1 8.6 16.58l-.85-5.237-6.247-1.247a1.51 1.51 0 0 1-1.197-1.26l-.377-2.564a1.509 1.509 0 0 1 2.985-.44l.223 1.514L12 9.117l8.864-1.77.223-1.513a1.509 1.509 0 0 1 2.985.439M12 12.163a1.5 1.5 0 0 1-.295-.029l-.798-.159.687 4.221a1.5 1.5 0 0 1 .02.243h.773a1.5 1.5 0 0 1 .024-.272l.77-4.21-.886.177a1.5 1.5 0 0 1-.295.03"/></svg>
