<svg role="img" viewBox="0 0 24 24" xmlns="http://www.w3.org/2000/svg"><title>Looker icon</title><path d="M12.392 0a2.099 2.099 0 00-1.741 3.27l.896-.896a.885.885 0 11.565.564l-.895.895A2.097 2.097 0 1012.392 0zm-.835 6.113a3.261 3.261 0 00-.653-1.965L9.74 5.31a1.667 1.667 0 01-.318 2.012l.632 1.545a3.278 3.278 0 001.503-2.754zM8.307 7.78h-.03a1.669 1.669 0 11.916-3.063l1.152-1.152a3.28 3.28 0 10-1.406 5.761L8.307 7.78zm4.129 1.336c-.728 0-1.452.106-2.15.315l.922 2.252a5.02 5.02 0 11-1.128.436L9.17 9.874a7.443 7.443 0 103.273-.759l-.006.001z"/></svg>
