<svg role="img" viewBox="0 0 24 24" xmlns="http://www.w3.org/2000/svg"><title>Loom icon</title><path d="M24 12c0-3.24-1.89-6.02-4.6-7.37C18.02 1.82 15.15 0 12 0 8.76 0 5.98 1.89 4.63 4.6 1.82 5.98 0 8.85 0 12c0 3.24 1.89 6.02 4.6 7.37C5.98 22.18 8.85 24 12 24c3.24 0 6.02-1.89 7.37-4.6C22.18 18.02 24 15.15 24 12zm-9.51-2.52c.33.81.51 1.65.51 2.52 0 .88-.18 1.73-.48 2.49-.81.33-1.65.51-2.52.51-.88 0-1.73-.18-2.49-.48C9.18 13.71 9 12.87 9 12c0-.88.18-1.73.48-2.49C10.29 9.18 11.13 9 12 9c.88 0 1.71.18 2.49.48zM12 1.5c2 0 3.87.88 5.13 2.37-.45-.07-.92-.12-1.38-.12-3.35 0-6.21 2-7.52 4.86h-.01v.03A8.04 8.04 0 007.5 12c0 .47.05.93.12 1.38a6.78 6.78 0 01-2.37-5.13C5.25 4.53 8.28 1.5 12 1.5zM1.5 12c0-2 .88-3.87 2.37-5.13-.07.45-.12.92-.12 1.38 0 3.35 2 6.21 4.86 7.52v.02h.03a8.191 8.191 0 004.74.59 6.78 6.78 0 01-5.13 2.37c-3.72 0-6.75-3.03-6.75-6.75zM12 22.5c-2 0-3.87-.88-5.13-2.37.45.08.92.12 1.38.12 3.35 0 6.21-2 7.52-4.86h.02v-.03c.47-1.03.72-2.16.72-3.36 0-.47-.05-.93-.12-1.38a6.78 6.78 0 012.37 5.13c-.01 3.72-3.04 6.75-6.76 6.75zm3.39-14.27c-.02-.02-.02-.02-.03-.02a8.191 8.191 0 00-4.74-.59 6.78 6.78 0 015.13-2.37c3.72 0 6.75 3.03 6.75 6.75 0 1.99-.88 3.87-2.37 5.13.08-.45.12-.92.12-1.38 0-3.35-2-6.21-4.86-7.52z"/></svg>