<svg role="img" viewBox="0 0 24 24" xmlns="http://www.w3.org/2000/svg"><title>Loops</title><path d="M13.608 1.622h-3.231A10.39 10.39 0 0 0 0 12.002a10.39 10.39 0 0 0 10.377 10.376h3.243A10.39 10.39 0 0 0 24 12.001 10.39 10.39 0 0 0 13.608 1.622zM1.284 12a9.085 9.085 0 0 1 10.6-8.96 9.044 9.044 0 0 1 7.568 8.955 5.849 5.849 0 0 1-4.87 5.756 7.12 7.12 0 0 0 2.923-5.756 7.121 7.121 0 0 0-7.136-7.136 7.143 7.143 0 0 0-7.12 7.136 10.35 10.35 0 0 0 4.83 8.783 9.097 9.097 0 0 1-6.788-8.778zm10.704-5.606a5.83 5.83 0 0 1 4.216 5.606 5.83 5.83 0 0 1-4.216 5.603 5.83 5.83 0 0 1-4.216-5.603 5.83 5.83 0 0 1 4.216-5.606zm1.62 14.686h-.036a9.33 9.33 0 0 1-1.474-.125 9.041 9.041 0 0 1-7.558-8.651v-.304a5.844 5.844 0 0 1 4.87-5.756 7.12 7.12 0 0 0-2.925 5.756 7.12 7.12 0 0 0 5.35 6.907A7.143 7.143 0 0 0 20.756 12a10.342 10.342 0 0 0-4.828-8.784 9.086 9.086 0 0 1 6.774 8.784 9.086 9.086 0 0 1-9.092 9.08z"/></svg>