<?xml version="1.0" encoding="UTF-8"?> <svg id="Layer_1" xmlns="http://www.w3.org/2000/svg" version="1.1" viewBox="0 0 24 24"> <title>LoseIt!</title> <path d="M19,0H5C2.2,0,0,2.2,0,5v14c0,2.8,2.2,5,5,5h14c2.8,0,5-2.2,5-5V5c0-2.8-2.2-5-5-5ZM12,8.4c-3.2,0-5.8-1.6-5.8-3.7s2.6-3.7,5.8-3.7,5.8,1.6,5.8,3.7-2.6,3.7-5.8,3.7ZM12,7.6h0c-.1,0-.2-.1-.2-.2V2.2c0-.1.1-.2.2-.2h0c.1,0,.2.1.2.2v5.1c0,.1-.1.2-.2.2h0ZM10.7,3.1c-.1,0-.4-.5-.4-.8,0-.2.2-.2.2-.2,0,0,.2,0,.2,0,0,.2.1.8,0,.9M9.3,3.4c-.1,0-.4-.3-.4-.5,0-.1.1-.2.1-.2,0,0,.1,0,.2,0,0,.1.2.6,0,.6M8.4,3.9c0,0-.4-.2-.4-.2,0,0,0-.2,0-.2,0,0,.1,0,.2,0,.1,0,.3.4.2.5M13.3,3.1c.1,0,.4-.5.4-.8,0-.2-.2-.2-.2-.2,0,0-.2,0-.2,0,0,.2-.1.8,0,.9M14.7,3.4c.1,0,.4-.3.4-.5,0-.1-.1-.2-.1-.2,0,0-.1,0-.2,0,0,.1-.2.6,0,.6M15.6,3.9c0,0,.4-.2.4-.2,0,0,0-.2,0-.2,0,0-.1,0-.2,0-.1,0-.3.4-.2.5"/> </svg>