<svg role="img" viewBox="0 0 24 24" xmlns="http://www.w3.org/2000/svg"><title>LOT Polish Airlines icon</title><path d="M12 0C5.37 0 0 5.37 0 12s5.37 12 12 12 12-5.37 12-12S18.63 0 12 0zM.74 12C.74 5.78 5.78.75 12 .75c1.28 0 2.51.22 3.66.62L9.39 13.94l-8.1178 1.4708C.9322 14.3308.74 13.19.74 12zM12 23.26c-5 0-9.2425-3.271-10.7025-7.781l7.8425.001 7.07 6.95c-1.3.53-2.72.83-4.21.83zm4.2352-.8353c.39-.4.6247-.9548.6247-1.5647 0-.71-.33-1.35-.85-1.76l-4.73-3.62H22.7c-1.03 3.16-3.4048 5.7047-6.4648 6.9447zm5.151-8.0841h-2.7009l.2044.2814h.9289l.4569.5755h-5.0812c0-1.02-.8244-1.8475-1.8444-1.8475-.1 0-.2.01-.29.02l-1.82.28 5.39-8.98c.21-.35.33-.76.33-1.19 0-.91-.5-1.71-1.26-2.1 4.4 1.53 7.56 5.7 7.56 10.62 0 1.11-.1716 2.1763-.4716 3.1963-.5404-.0552-.9921-.2535-1.4021-.8557z"/></svg>