<svg role="img" viewBox="0 0 24 24" xmlns="http://www.w3.org/2000/svg"><title>LottieFiles</title><path d="M17.9274 0H6.07294C2.71918 0 0 2.71918 0 6.07294V17.9271C0 21.2812 2.71918 24 6.07294 24H17.9271C21.2812 24 24 21.2808 24 17.9271V6.07294C24.0004 2.71918 21.2812 0 17.9274 0ZM19.3597 6.99302C19.3001 7.13687 19.2125 7.26779 19.1023 7.37799C18.9921 7.48819 18.8612 7.57546 18.7173 7.635C18.5735 7.69454 18.4189 7.72523 18.2632 7.72486C15.7541 7.72486 14.7808 9.25179 13.4761 11.7661L12.6718 13.2812L12.6684 13.2875C11.4388 15.6568 9.91078 18.6012 5.77747 18.6012C5.46277 18.6012 5.161 18.4762 4.93838 18.2536C4.71576 18.031 4.59076 17.7292 4.59076 17.4145C4.59076 17.0998 4.71576 16.798 4.93838 16.5754C5.161 16.3528 5.46277 16.2282 5.77747 16.2282C8.2866 16.2282 9.25993 14.7009 10.5657 12.1869L11.3689 10.6718L11.3745 10.6607C12.6048 8.29215 14.1325 5.35182 18.2632 5.35182C18.4189 5.35182 18.5735 5.38215 18.7173 5.44169C18.8612 5.50122 18.9921 5.5885 19.1023 5.6987C19.2125 5.8089 19.2998 5.93981 19.3597 6.08367C19.4192 6.22752 19.4499 6.3821 19.4495 6.53779C19.4495 6.69348 19.4192 6.84806 19.3597 6.99191V6.99302Z"/></svg>