<svg role="img" viewBox="0 0 24 24" xmlns="http://www.w3.org/2000/svg"><title>LottieFiles</title><path d="M17.9275 0H6.07253C2.72113 0 0 2.72113 0 6.07253V17.9275C0 21.2789 2.72113 24 6.07253 24H17.9275C21.2789 24 24 21.2789 24 17.9275V6.07253C24 2.72113 21.2789 0 17.9275 0ZM19.3481 7.01292C19.288 7.15298 19.198 7.28303 19.088 7.40308C18.9779 7.51313 18.8479 7.60317 18.6978 7.66319C18.5577 7.72322 18.3977 7.75323 18.2476 7.75323C15.7366 7.75323 14.7662 9.28387 13.4556 11.7949L12.6553 13.3055C11.4248 15.6865 9.89412 18.6278 5.7624 18.6278C5.45227 18.6278 5.14214 18.5077 4.92205 18.2776C4.70196 18.0575 4.57191 17.7574 4.57191 17.4373C4.57191 17.1171 4.69196 16.817 4.92205 16.5969C5.14214 16.3768 5.44227 16.2468 5.7624 16.2468C8.27345 16.2468 9.24385 14.7161 10.5544 12.2051L11.3547 10.6945C12.5852 8.31346 14.1159 5.37224 18.2476 5.37224C18.4077 5.37224 18.5577 5.40225 18.6978 5.46228C18.8379 5.5223 18.9679 5.61234 19.088 5.72238C19.198 5.83243 19.288 5.96248 19.3481 6.11255C19.4081 6.25261 19.4381 6.41267 19.4381 6.56273C19.4381 6.7228 19.4081 6.87286 19.3481 7.01292Z"/></svg>