<svg role="img" viewBox="0 0 24 24" xmlns="http://www.w3.org/2000/svg"><title>Luanti</title><path d="M6.11 0 1.757 2.515v4.48l1.88 1.085-3.564 2.057v6.97L12.012 24l11.774-6.961.14-.081v-6.672l-3.325-1.92V6.148l-1.06-.612-1.157.772v.776l-1.109-.64v-.948c-.002-.11-.053-.182-.138-.24L12.97 2.852a.278.278 0 0 0-.278 0c-.873.506-1.748 1.01-2.622 1.515v-2.08Zm0 .64 3.407 1.966v4.296L6.11 8.868 2.311 6.675V2.834Zm6.721 2.771 3.612 2.086-4.383 2.531a.277.277 0 0 0 0 .48l3.271 1.89-7.2 4.07-7.226-4.171L4.19 8.399l.683.395v2.218l1.237.714 1.238-.714V8.795l2.722-1.572V5.007l2.761-1.596Zm3.89 2.567v.468L13.16 8.504l-.406-.234zm2.84.21.485.28v4.33l-.495.287-.613-.353V6.605Zm-2.563.738 1.386.8v3.326l1.167.674 1.05-.608V9.005l2.771 1.6v.49l-3.825 2.206-3.381-1.952v-.943a.28.28 0 0 0-.138-.246l-2.316-1.337ZM5.428 9.114l.682.395.684-.395v1.576l-.684.395-.682-.395Zm-4.8 1.662 7.363 4.252c.086.05.19.05.277.001l7.344-4.154v.472l-7.76 4.388v1.43l.862.497v1.109l3.298 1.903 6.926-4.081v-1.189l1.108-.64v-1.112c1.108-.64 2.217-1.278 3.326-1.916v1.024l-2.217 1.278v.555l-1.11.64v1.109l-1.107.64v2.28l-6.93 4.095-3.6-2.079V20.17l-1.06-.611V18.45c-.385-.225-.772-.445-1.158-.67v-2.216l-3.325-1.92v1.109l-1.108-.64v3.326l-1.13-.652Zm15.26 1.052c1.21.697 2.402 1.393 3.604 2.083v.533l-1.108.64v1.192l-6.375 3.757-2.741-1.582v-1.11l-.86-.495v-.788zm7.484 1.57v3.24l-3.88 2.24v-1.577l1.109-.64v-1.108l1.108-.64v-.555ZM3.42 14.604l2.217 1.28v1.577l-1.445-.834-1.88 1.086v-2.64l1.108.64zm.772 2.664 1.445.833 1.11.64v1.109l1.008.583v.467l-4.928-2.844Z"/></svg>