<svg role="img" viewBox="0 0 24 24" xmlns="http://www.w3.org/2000/svg"><title>Lucide</title><path d="M18.134 1.193a1.314 1.314 0 0 0-.546.512 1.037 1.037 0 0 0-.063.805c.068.233.12.3.562.74 1.113 1.102 1.806 2.03 2.434 3.262a11.579 11.579 0 0 1 1.292 4.993c.042 1.135-.062 1.915-.382 2.871-1.336 4.005-5.659 6.169-9.656 4.834a7.633 7.633 0 0 1-5.187-6.426c-.108-.987-.032-1.598.28-2.24a3.26 3.26 0 0 1 4.369-1.53 3.18 3.18 0 0 1 1.526 1.53c.225.468.282.684.329 1.27.039.494.107.678.336.906.228.23.427.311.757.311.322 0 .522-.08.74-.293.264-.258.331-.442.325-.906-.026-2.248-1.535-4.309-3.676-5.02-.668-.223-1.018-.278-1.757-.278-.74 0-1.089.055-1.757.277a5.455 5.455 0 0 0-3.395 3.395c-.231.697-.28 1.01-.28 1.866a9.57 9.57 0 0 0 1.921 5.75 12.37 12.37 0 0 0 1.698 1.772 10.024 10.024 0 0 0 4.792 2.095c.681.105 2.097.105 2.779 0a10.062 10.062 0 0 0 4.79-2.095 12.37 12.37 0 0 0 1.698-1.773c1.847-2.485 2.372-5.482 1.58-9.024-.374-1.673-1.191-3.534-2.158-4.914-.69-.986-2.057-2.463-2.459-2.657-.228-.11-.675-.127-.892-.033m-9.06.97C6.697 2.38 4.64 3.315 2.988 4.928c-.857.836-1.47 1.667-1.951 2.646C.07 9.536-.203 11.52.145 14.016c.291 2.087 1.208 4.389 2.436 6.115.678.952 1.959 2.337 2.404 2.598.529.31 1.244.082 1.508-.48.113-.239.122-.637.02-.879-.044-.107-.3-.398-.695-.792-1.02-1.017-1.724-1.97-2.322-3.14C2.659 15.8 2.25 14.226 2.188 12.4c-.05-1.386.16-2.483.694-3.647.61-1.326 1.72-2.575 2.948-3.314 2.264-1.362 5.023-1.485 7.361-.33a7.657 7.657 0 0 1 4.223 6.033c.108.987.031 1.599-.281 2.24a3.26 3.26 0 0 1-4.368 1.53 3.18 3.18 0 0 1-1.526-1.53c-.225-.468-.282-.684-.329-1.27-.04-.494-.107-.677-.336-.906-.229-.229-.427-.31-.757-.31s-.529.081-.757.31c-.268.268-.314.411-.305.954.02 1.343.587 2.651 1.585 3.648.784.785 1.678 1.263 2.818 1.509.482.104 1.572.104 2.053 0 1.14-.246 2.034-.724 2.818-1.51a5.447 5.447 0 0 0 1.539-2.989c.076-.453.062-1.656-.026-2.244a10.016 10.016 0 0 0-2.095-4.791 12.37 12.37 0 0 0-1.772-1.698 9.943 9.943 0 0 0-4.438-1.841c-.43-.066-1.778-.117-2.163-.081"/></svg>