<svg role="img" viewBox="0 0 24 24" xmlns="http://www.w3.org/2000/svg"><title>Luos icon</title><path d="M10.58 14.268l-.009-.958c0-1.262.463-2.346 1.388-3.252.92-.905 2.028-1.358 3.32-1.358 1.278 0 2.373.457 3.287 1.37.915.912 1.373 2.006 1.375 3.284v.008c0 1.289-.46 2.382-1.381 3.28-.925.902-2.042 1.353-3.35 1.353-1.158 0-2.197-.4-3.118-1.202a4.434 4.434 0 01-.304-.291c.3-.519.43-1.067.455-1.669.164.344.402.661.691.938.662.64 1.426.958 2.293.958.94 0 1.734-.325 2.38-.975.646-.657.97-1.457.97-2.4v-.004c0-.956-.32-1.757-.958-2.403-.635-.65-1.42-.976-2.357-.976-.933 0-1.72.325-2.363.976-.642.642-.964 1.436-.964 2.38l-.002 1.312c0 .945-.294 1.722-.882 2.334-.662.681-1.475 1.022-2.439 1.022-.963 0-1.774-.34-2.432-1.022-.589-.611-.883-1.39-.883-2.334V9.227H6.65v5.04c0 .77.126 1.334.377 1.69.376.515.904.772 1.585.772.686 0 1.216-.257 1.591-.772.252-.344.378-.908.378-1.69zm.002-5.035v2.457a4.971 4.923 0 011.356-2.003v-.454zm-3.971 8.496H3.263v0c-.939-.014-1.73-.354-2.375-1.022-.589-.612-.883-1.39-.883-2.334V5.869h1.353V14c0 .77.126 1.334.377 1.69.374.513.9.77 1.58.772h2.108c.142.259.318.498.53.718.205.213.425.395.658.548zm12.295-7.746c.124-.22.29-.42.498-.604.515-.457 1.155-.685 1.922-.685 1.033 0 1.84.503 2.42 1.51l-1.096.65c-.206-.356-.401-.589-.587-.697-.193-.124-.443-.186-.749-.186-.375 0-.687.107-.935.32a.99.99 0 00-.371.79c0 .436.325.789.975 1.056l.894.366c.728.294 1.26.653 1.597 1.077.337.423.505.943.505 1.558 0 .825-.275 1.506-.824 2.044-.554.542-1.24.813-2.061.813-.778 0-1.42-.23-1.928-.691a2.633 2.633 0 01-.383-.442c.383-.374.69-.78.924-1.218.058.222.131.39.22.505.278.387.685.58 1.219.58.422 0 .772-.141 1.05-.424.28-.282.419-.64.419-1.074 0-.174-.025-.333-.073-.479a1.215 1.215 0 00-.226-.4 1.807 1.807 0 00-.398-.343 3.834 3.834 0 00-.58-.305l-.865-.36a5.277 5.277 0 01-.223-.1c-.028-1.255-.475-2.343-1.344-3.261z"/></svg>