<svg role="img" viewBox="0 0 24 24" xmlns="http://www.w3.org/2000/svg"><title>Lutris</title><path d="M21.232 18.889h.001c-1.294 3.242-5.218 5.232-9.449 5.105-6.485 0-11.785-5.512-11.785-12.088C-.001 5.331 5.275 0 11.784 0c1.794 0 3.494.405 5.016 1.13.082-.178.272-.545.452-.558.237-.017.373.138.526.309.153.172.459.429.459.429s1.393-.48 2.956.378 1.784 1.115 2.089 1.716c.151.296.194.812.2 1.26a.79.79 0 0 0-.068-.003c-.508 0-.984.464-.984 1.102 0 .304.109.569.277.763-.147-.054-.331-.125-.57-.21a2.473 2.473 0 0 1-.803-.458c.126-.213.199-.461.199-.727a1.41 1.41 0 0 0-2.415-1.001c-.471-.264-1.173-.471-2.506-.553l-.407-.011c-2.283.012-3.612.279-5.98 1.301-.603.283-1.206.616-1.786 1.002-.422.3-.638.67-.709 1.137a1.327 1.327 0 0 0 1.273 1.373c.473.022.876.304 1.197.675l.045.053.042.053.043.055.022.029.032.044.037.052.007.011.039.057.025.037.025.041.029.045.021.037.022.036.03.052.031.055.03.056.026.05.018.036.025.052.026.055.026.054.021.049.016.036.005.011.016.039.025.062.024.062.017.045.008.022.017.048.022.066.017.054.011.04.015.052.015.058.009.043.007.032.008.048.007.046.002.026.002.023.004.041v.039c-.032.727-.371 1.267-1.088 1.246a1.231 1.231 0 0 1-.976-.494c-.063-.077-.103-.172-.159-.254l-.027-.043-.028-.042-.033-.047-.034-.046-.029-.039-.03-.037-.024-.03-.03-.036-.031-.035-.031-.035-.01-.011-.026-.028-.01-.011-.032-.033a2.973 2.973 0 0 0-1.04-.672c-.424-.168-.877-.26-1.325-.33-.438-.069-1.073-.122-1.31.251a8.316 8.316 0 0 0-.578 3.062c-.019 5.036 4.042 9.118 9.028 9.118 2.576 0 5.35-.951 6.994-2.699l-.061.051.032-.029c-1.775 1.457-4.641 1.92-6.002 1.921-4.302 0-7.819-3.233-7.819-7.579 0-1.268.284-2.382.803-3.343.493.183.943.479 1.273 1.015a.269.269 0 0 0 .014.022c.064.093.112.198.183.286.428.53.891.666 1.358.687a.028.028 0 0 0 .009.001c.438.013.78-.122 1.04-.347.351-.304.558-.799.584-1.398v-.015c.002-.086.002-.054-.004-.114-.024-.378-.335-1.327-.909-2.04-.266-.329-.586-.605-.946-.774l.098-.06c.757-.457 2.363-.977 4.592-.637 1.13.172 2.056.418 3.483.878 1.657.534 2.58 1.279 3.855 1.427.15.018.301.019.449.004.411 1.129.635 2.349.635 3.621a10.54 10.54 0 0 1-1.611 5.62Zm-1.037.781-.01.009Zm.016-.015-.009.009Zm.016-.014-.009.008Zm.016-.015-.008.008Zm.016-.015-.008.008Zm.017-.015-.008.008Zm.016-.015-.008.008Zm.017-.014-.008.007Zm.016-.015-.007.007Zm.017-.015-.008.007Zm.016-.015-.007.007Zm.017-.015-.007.007Zm.017-.014-.007.006Zm.016-.015-.006.006Zm.017-.015-.006.006Zm.017-.015-.006.006Zm.017-.014-.006.005Zm.008-.008-.001.002Zm.009-.007-.002.001Zm.008-.007-.001.001Zm.009-.008-.001.001Zm.008-.007-.001.001Zm.009-.007-.001.001Zm.008-.007h-.001Zm.009-.008-.001.001Zm.008-.007v.001Zm.009-.007h-.001Zm.008-.007Zm.009-.007Zm.009-.008-.001.001Zm.008-.007Zm2.601-12.717s-.115.202-.364.323c-.103.05-.282-.075-.451.098-.358.727.517 1.333.924 1.316.408-.017.73-.432.713-.793-.017-.558-.822-.944-.822-.944Zm-.219-.748a.707.707 0 0 1-.008-.104c0-.32.207-.58.462-.58l.026.001.015.001.011.002c.23.032.409.278.409.576 0 .243-.119.451-.287.537l-.039.017-.029.01-.034.009-.04.006-.029.001h-.003a.434.434 0 0 1-.36-.217l-.012-.019-.008-.015a.712.712 0 0 1-.019-.036l-.003-.007-.01-.023-.005-.014-.004-.01a.159.159 0 0 0-.007-.02l-.007-.025a.49.49 0 0 1-.013-.055l-.005-.026-.001-.009Zm-2.839-1.635c.491 0 .89.403.89.899l-.001.035-.002.04-.005.045-.006.039-.003.016-.007.033-.001.005-.008.03a.891.891 0 0 1-.857.656.895.895 0 0 1-.89-.899c0-.315.161-.593.404-.754l.041-.025.036-.02.034-.017.035-.015.035-.014.036-.012.036-.011.033-.009.038-.007.039-.007.039-.004.039-.003.035-.001h.01Z"/></svg>