<svg role="img" viewBox="0 0 24 24" xmlns="http://www.w3.org/2000/svg"><title>LVMH</title><path d="M8.31 9.352c.3 0 .517.166.517.466 0 .167-.066.383-.183.65l-1.282 3.164-1.45-3.28c-.116-.25-.166-.434-.166-.617 0-.2.167-.383.533-.383v-.15H4.147v.15c.433 0 .566.15.816.733l2.049 4.713h.116l1.916-4.663c.233-.55.533-.8.766-.8v-.133H8.328v.15H8.31zM0 9.202v.15c.6 0 .733.15.733.65v3.664c0 .782-.117.866-.733.866v.15h4.197l.466-1.483-.116-.033c-.45 1.116-.766 1.282-1.716 1.282h-.583c-.732 0-.766-.016-.766-.916v-3.33c0-.684.134-.834.866-.834v-.166H0zm17.371.15v-.15h-1.365l-2 4.33-2.08-4.33h-1.4v.15c.583 0 .716.183.716.716v3.58c0 .784-.15.867-.716.867v.15h1.699v-.15c-.583 0-.716-.083-.716-.866v-3.581l2.115 4.597h.133l2.099-4.597v3.58c0 .784-.117.867-.766.867v.15h2.281v-.15c-.633 0-.733-.1-.733-.866V9.985c0-.483.15-.633.733-.633M24 9.352c-.54 0-.696.076-.727.609l-.005.12v3.567c0 .72.102.852.622.866H24v.15h-2.232v-.15c.616 0 .733-.099.733-.865v-1.4c0-.182-.05-.249-.233-.249h-2.415c-.183 0-.233.067-.233.25v1.399c0 .718.102.85.623.865h.11v.15H18.12v-.15c.616 0 .733-.099.733-.865v-3.431c0-.048 0-.093-.002-.136l-.005-.121c-.03-.533-.187-.61-.726-.61v-.15h2.232v.15c-.617 0-.733.1-.733.867V11.5c0 .2.05.25.233.25h2.415c.183 0 .233-.05.233-.25v-1.282c0-.766-.117-.866-.733-.866v-.15H24z"/></svg>