<svg role="img" viewBox="0 0 24 24" xmlns="http://www.w3.org/2000/svg"><title>LVMH</title><path d="M8.3109 9.3518c.2998 0 .5163.1666.5163.4664 0 .1665-.0666.383-.1832.6495l-1.2824 3.1645-1.449-3.281c-.1166-.2499-.1666-.433-.1666-.6163 0-.1999.1666-.383.533-.383v-.15H4.147v.15c.433 0 .5663.1498.8161.7328l2.0486 4.7134h.1166l1.9153-4.6635c.2332-.5496.533-.7994.7662-.7994v-.1333H8.3276v.15h-.0167zM0 9.202v.15c.5996 0 .7328.1498.7328.6495v3.6641c0 .7828-.1166.866-.7328.866v.15h4.197l.4664-1.4823-.1166-.0333c-.4496 1.1158-.766 1.2824-1.7154 1.2824h-.583c-.7328 0-.7661-.0167-.7661-.916v-3.331c0-.683.1332-.8328.866-.8328v-.1666H0zm17.3713.15v-.15h-1.3657l-1.9987 4.3304-2.0818-4.3304h-1.399v.15c.5829 0 .716.1831.716.7161v3.5809c0 .7827-.1498.866-.716.866v.15h1.6987v-.15c-.5829 0-.7161-.0833-.7161-.866V10.068l2.1152 4.5968h.1332l2.0986-4.5968v3.5809c0 .7827-.1166.866-.7662.866v.15h2.2818v-.15c-.633 0-.7329-.1-.7329-.866V9.9847c0-.483.15-.6329.7329-.6329m2.2484.8661c0-.7661.1166-.866.7328-.866v-.15h-2.2318v.15c.633 0 .7329.0999.7329.866v3.431c0 .766-.1166.866-.7329.866v.15h2.2318v-.15c-.6329 0-.7328-.1-.7328-.866v-1.449c0-.15.0666-.1999.2332-.1999h2.415c.1832 0 .2331.0666.2331.2498v1.399c0 .7662-.1165.8661-.7328.8661v.15H24v-.15c-.6329 0-.7328-.1-.7328-.866v-3.431c0-.7661.1166-.866.7328-.866v-.15h-2.2318v.15c.633 0 .7328.0999.7328.866v1.2824c0 .2-.05.2499-.2331.2499h-2.4317c-.1665 0-.2331-.05-.2331-.1832v-1.3491h.0166z"/></svg>