<svg role="img" viewBox="0 0 24 24" xmlns="http://www.w3.org/2000/svg"><title>LXDE icon</title><path d="M17.984 9.337c-1.471-1.66-2.797-2.733-4.76.064-1.167 1.664-8.175 11.197-9.46 12.716-.374.441-.593.748-.88.925 0-.603 4.84-8.268 6.195-10.49 1.628-2.668 1.576-2.512 1.381-2.511-.275 0-.836.407-1.689 1.317-1.556 1.66-6.167 7.839-6.485 7.744.11-.45 3.717-5.98 5.355-8.268 1.412-1.972.872-2.122.063-1.93-3.448.823-7.57 2.81-7.704 2.739.05-.103 13.886-9.833 15.734-10.019.216-.022.67-.405 1.479-.725.878-.347 1.469-.63 1.615-.54-.64.898-.978 1.08-.984 1.37-.01.474-.178 1.241-.363 1.486 3.575 2.382 4.97 10.504 5.992 17.036.243 1.55.47 2.715.527 3.407-.302-.777-3.16-11.097-6.016-14.32z"/></svg>