<svg role="img" viewBox="0 0 24 24" xmlns="http://www.w3.org/2000/svg"><title>M5Stack</title><path d="m11.48,20.105q0.13,0.05 0.26,0.08q0.13,0.03 0.26,0.03q0.13,0 0.26,-0.03a1.38,1.38 0 0 0 0.26,-0.08l10.16,-4.35a0.62,0.62 0 0 0 0.15,-0.09a0.56,0.56 0 0 0 0.11,-0.12a0.53,0.53 0 0 0 0.07,-0.15a0.63,0.63 0 0 0 0.03,-0.17c0,-2.13 0,-4.25 0,-6.38a0.04,0.04 0 0 0 0,-0.01a0.02,0.02 0 0 0 -0.01,-0.01a0.04,0.04 0 0 0 -0.02,-0.01c-0.02,0 -0.04,0.01 -0.05,0.02c-3.33,1.47 -6.71,2.87 -10.06,4.3a2.42,2.42 0 0 1 -0.45,0.14a2.16,2.16 0 0 1 -0.45,0.05a2.16,2.16 0 0 1 -0.45,-0.05a2.42,2.42 0 0 1 -0.45,-0.14c-3.6,-1.54 -7.2,-3.1 -10.81,-4.63a0.48,0.48 0 0 1 -0.25,-0.26a0.47,0.47 0 0 1 0,-0.36a0.48,0.48 0 0 1 0.25,-0.25l10.81,-4.62a2.42,2.42 0 0 1 0.45,-0.15a2.17,2.17 0 0 1 0.45,-0.04c0.15,0 0.3,0.01 0.45,0.04a2.42,2.42 0 0 1 0.45,0.15l8.41,3.59a0.71,0.71 0 0 1 0.2,0.13c0.06,0.06 0.11,0.12 0.13,0.18c0.02,0.07 0.03,0.14 -0.01,0.22a0.38,0.38 0 0 1 -0.07,0.11c-0.12,0.12 -0.28,0.17 -0.46,0.17c-0.26,0 -0.54,-0.09 -0.68,-0.15l-7.9,-3.38a1.38,1.38 0 0 0 -0.26,-0.08a1.26,1.26 0 0 0 -0.26,-0.03c-0.17,0 -0.35,0.04 -0.52,0.11l-9.68,4.14a0.05,0.05 0 0 0 -0.02,0.02a0.05,0.05 0 0 0 0,0.03c0,0.01 0,0.02 0,0.02a0.05,0.05 0 0 0 0.02,0.02l9.68,4.14q0.13,0.06 0.26,0.08a1.26,1.26 0 0 0 0.52,0a1.38,1.38 0 0 0 0.26,-0.08l10.81,-4.62a0.48,0.48 0 0 1 0.37,-0.01a0.48,0.48 0 0 1 0.29,0.35q0.01,0.04 0.01,0.08c0,2.39 0,4.78 0,7.17c0,0.15 -0.02,0.3 -0.06,0.44a1.51,1.51 0 0 1 -0.19,0.4a1.51,1.51 0 0 1 -0.3,0.33a1.59,1.59 0 0 1 -0.39,0.24l-10.16,4.34a2.42,2.42 0 0 1 -0.45,0.15a2.17,2.17 0 0 1 -0.45,0.05c-0.15,0 -0.3,-0.02 -0.45,-0.05a2.42,2.42 0 0 1 -0.45,-0.15l-10.16,-4.34a1.59,1.59 0 0 1 -0.39,-0.24a1.51,1.51 0 0 1 -0.3,-0.33a1.51,1.51 0 0 1 -0.19,-0.4a1.53,1.53 0 0 1 -0.06,-0.44l0,-4.87c0,-0.13 0.05,-0.25 0.14,-0.34a0.48,0.48 0 0 1 0.34,-0.14c0.14,0 0.26,0.05 0.35,0.14a0.47,0.47 0 0 1 0.14,0.34l0,4.87c0,0.06 0,0.12 0.02,0.17a0.53,0.53 0 0 0 0.07,0.15a0.56,0.56 0 0 0 0.11,0.12a0.62,0.62 0 0 0 0.15,0.09l10.16,4.35zm0.21,-12.04l-2.81,1.2c-0.39,0.2 -0.73,-0.01 -0.73,-0.01l-2.31,-0.99a0.37,0.37 0 0 1 -0.2,-0.19c-0.08,-0.19 0.01,-0.41 0.2,-0.49l5.44,-2.32c0.23,-0.1 0.62,-0.17 0.78,0.07c0.1,0.19 0.08,0.36 -0.19,0.48l-4.83,2.07c0,0 -0.13,0.04 0,0.08l1.26,0.54l0.03,0.01c0.05,0.03 0.2,0.07 0.36,0.02l3.49,-1.49c0.83,-0.34 1.26,-0.59 2.21,-0.55c0.83,0.06 2.23,0.51 2.78,1.13c0.16,0.18 0.26,0.37 0.28,0.56c0.03,0.22 -0.03,0.43 -0.18,0.62c-0.12,0.14 -0.29,0.26 -0.52,0.35l-4.26,1.83c-0.19,0.08 -0.42,-0.01 -0.5,-0.2c-0.14,-0.34 0.18,-0.53 0.37,-0.61l3.72,-1.55c0.22,-0.1 0.56,-0.34 0.39,-0.54c-0.41,-0.46 -1.51,-0.82 -2.13,-0.86c-0.92,-0.06 -1.8,0.48 -2.65,0.84"/></svg>