<svg role="img" viewBox="0 0 24 24" xmlns="http://www.w3.org/2000/svg"><title>M5Stack</title><path d="M11.482 22.606q.128.072.257.108a1 1 0 0 0 .521 0q.13-.036.258-.108l10.162-5.685a.6.6 0 0 0 .15-.117.8.8 0 0 0 .18-.356q.023-.105.023-.226V7.886l-.003-.024q-.003-.007-.008-.01a.03.03 0 0 0-.015-.006.1.1 0 0 0-.057.016c-3.32 1.93-6.706 3.752-10.053 5.625a2 2 0 0 1-.449.187 1.66 1.66 0 0 1-.901 0 2 2 0 0 1-.449-.187C7.497 11.47 3.9 9.43.29 7.438a.58.58 0 0 1-.253-.34.8.8 0 0 1 .004-.471l.002-.005a.6.6 0 0 1 .101-.194.5.5 0 0 1 .15-.13L11.101.251a2 2 0 0 1 .449-.187 1.67 1.67 0 0 1 .901 0q.224.062.449.187l8.412 4.706c.07.04.14.097.199.167.057.069.102.15.126.237a.48.48 0 0 1-.078.421.55.55 0 0 1-.458.227c-.263.006-.543-.116-.687-.196l-7.897-4.418a1.2 1.2 0 0 0-.258-.107 1 1 0 0 0-.26-.036q-.262 0-.518.143L1.802 6.81a.1.1 0 0 0-.018.024.1.1 0 0 0-.007.035q0 .02.007.035.006.015.018.024l9.68 5.415q.128.072.257.108a1 1 0 0 0 .521 0q.13-.036.258-.108l10.808-6.046a.38.38 0 0 1 .368-.007.56.56 0 0 1 .265.332.7.7 0 0 1 .039.225c-.001 3.127.002 6.248.002 9.375q0 .3-.064.579a2.3 2.3 0 0 1-.19.527 1.8 1.8 0 0 1-.298.43 1.5 1.5 0 0 1-.386.307L12.9 23.75a2 2 0 0 1-.449.187 1.67 1.67 0 0 1-.901 0 2 2 0 0 1-.449-.187L.939 18.065a1.6 1.6 0 0 1-.387-.307 2 2 0 0 1-.298-.43 2.6 2.6 0 0 1-.19-.527A2.6 2.6 0 0 1 0 16.222V9.853c0-.173.054-.329.142-.442a.43.43 0 0 1 .341-.183c.134 0 .255.07.342.183s.142.27.142.442v6.368q0 .12.023.226a.8.8 0 0 0 .068.196c.031.059.069.113.16.044"/></svg>