<svg role="img" viewBox="0 0 24 24" xmlns="http://www.w3.org/2000/svg"><title>M5Stack</title><path d="M11.482 22.606c.085.048.171.084.257.108.087.023.174.035.261.035.087 0 .174-.012.26-.035.087-.024.173-.06.258-.108l10.162-5.685c.056-.031.106-.07.15-.117.043-.047.08-.101.112-.161.03-.058.053-.124.068-.195.015-.07.023-.146.023-.226V7.886c0-.01-.001-.018-.003-.024-.002-.005-.004-.008-.008-.01-.003-.003-.009-.005-.015-.006-.018-.002-.04.006-.057.016-3.32 1.93-6.706 3.752-10.053 5.625-.15.083-.299.146-.449.187-.15.042-.3.063-.45.063s-.301-.02-.451-.063c-.15-.041-.3-.104-.449-.187C7.497 11.47 3.9 9.43.29 7.438c-.12-.068-.208-.193-.253-.34-.045-.146-.047-.315.004-.471l.002-.005c.024-.075.059-.14.101-.194.043-.056.094-.1.15-.13l10.807-6.047c.15-.083.299-.146.449-.187.15-.042.301-.063.45-.063s.3.02.451.063c.149.041.299.104.449.187l8.412 4.706c.07.04.14.097.199.167.057.069.102.15.126.237.024.089.026.184-.006.28-.015.047-.039.095-.072.141-.117.164-.284.223-.458.227-.263.006-.543-.116-.687-.196l-7.897-4.418c-.085-.047-.171-.083-.258-.107-.086-.024-.173-.036-.26-.036-.174 0-.348.048-.518.143L1.802 6.81c-.008.006-.014.015-.018.024-.004.01-.007.022-.007.035 0 .013.003.025.007.035.004.01.01.018.018.024l9.68 5.415c.085.048.171.084.257.108.087.024.174.036.261.036.087 0 .174-.012.26-.036.087-.024.173-.06.258-.108l10.808-6.046c.122-.068.254-.066.368-.007.115.059.212.174.265.332.013.04.023.08.029.121.006.034.009.069.01.104-.001 3.127.002 6.248.002 9.375 0 .2-.022.394-.064.579-.043.187-.107.364-.19.527-.081.16-.181.306-.298.43-.113.124-.243.227-.386.307L12.9 23.75c-.15.083-.299.146-.449.187-.15.042-.301.063-.451.063s-.3-.02-.45-.063c-.15-.041-.3-.104-.449-.187l-10.162-5.685c-.143-.08-.273-.183-.387-.307-.116-.125-.216-.27-.298-.43a2.6 2.6 0 0 1-.19-.527c-.042-.185-.064-.379-.064-.579V9.853c0-.173.054-.329.142-.442.087-.113.208-.183.341-.183.134 0 .255.07.342.183.088.113.142.27.142.442v6.368c0 .08.008.156.023.226.015.071.038.137.068.196.031.059.069.113.16.044.047.094.086.15.117z"/></svg>