<?xml version="1.0" encoding="UTF-8" standalone="no"?>
<svg
   xmlns:dc="http://purl.org/dc/elements/1.1/"
   xmlns:cc="http://creativecommons.org/ns#"
   xmlns:rdf="http://www.w3.org/1999/02/22-rdf-syntax-ns#"
   xmlns:svg="http://www.w3.org/2000/svg"
   xmlns="http://www.w3.org/2000/svg"
   xmlns:sodipodi="http://sodipodi.sourceforge.net/DTD/sodipodi-0.dtd"
   xmlns:inkscape="http://www.inkscape.org/namespaces/inkscape"
   role="img"
   viewBox="0 0 24 24"
   version="1.1"
   id="svg6"
   sodipodi:docname="maas.svg"
   inkscape:version="0.92.3 (2405546, 2018-03-11)">
  <metadata
     id="metadata12">
    <rdf:RDF>
      <cc:Work
         rdf:about="">
        <dc:format>image/svg+xml</dc:format>
        <dc:type
           rdf:resource="http://purl.org/dc/dcmitype/StillImage" />
        <dc:title>Zulip icon</dc:title>
      </cc:Work>
    </rdf:RDF>
  </metadata>
  <defs
     id="defs10">
    <linearGradient
       id="SVGID_1_"
       gradientUnits="userSpaceOnUse"
       x1="131.11929"
       y1="373.57339"
       x2="103.2589"
       y2="396.95099">
      <stop
         offset="5.152266e-07"
         style="stop-color:#71CAEE"
         id="stop44" />
      <stop
         offset="4.104413e-02"
         style="stop-color:#83CAE2"
         id="stop46" />
      <stop
         offset="0.1206"
         style="stop-color:#9FCACE"
         id="stop48" />
      <stop
         offset="0.2107"
         style="stop-color:#B6CBBE"
         id="stop50" />
      <stop
         offset="0.3139"
         style="stop-color:#C7CBB1"
         id="stop52" />
      <stop
         offset="0.4384"
         style="stop-color:#D4CBA8"
         id="stop54" />
      <stop
         offset="0.6058"
         style="stop-color:#DBCBA3"
         id="stop56" />
      <stop
         offset="1"
         style="stop-color:#DDCBA2"
         id="stop58" />
    </linearGradient>
  </defs>
  <sodipodi:namedview
     pagecolor="#ffffff"
     bordercolor="#666666"
     borderopacity="1"
     objecttolerance="10"
     gridtolerance="10"
     guidetolerance="10"
     inkscape:pageopacity="0"
     inkscape:pageshadow="2"
     inkscape:window-width="1920"
     inkscape:window-height="1025"
     id="namedview8"
     showgrid="false"
     inkscape:zoom="13.906433"
     inkscape:cx="17.550972"
     inkscape:cy="13.322441"
     inkscape:window-x="0"
     inkscape:window-y="27"
     inkscape:window-maximized="1"
     inkscape:current-layer="svg6" />
  <title
     id="title2">Zulip icon</title>
  <path
     inkscape:connector-curvature="0"
     style="fill:#000000;stroke-width:0.12095089"
     d="M 12.00012,1.2e-4 C 5.38338,1.2e-4 0,5.38368 0,11.99952 0,18.61632 5.38338,23.99988 12.00012,23.99988 18.61746,23.99988 24,18.61632 24,11.99952 23.99988,5.38368 18.61746,1.2e-4 12.00012,1.2e-4 Z M 6.342828,6.25716 h 11.314104 c 0.28416,0 0.5142,0.2304 0.51408,0.5148 v 0.6852 c 0,0.2844 -0.23028,0.5148 -0.51432,0.5148 h -7.2e-4 -11.312448 -7.32e-4 c -0.28404,0 -0.51432,-0.2304 -0.51432,-0.5148 v -0.6852 c 0,-0.2844 0.23028,-0.5148 0.51432,-0.5148 z m 0,3.25692 h 11.314104 v 2.4e-4 c 0.28416,0 0.5142,0.2304 0.51408,0.5148 v 0.6852 c 0,0.2844 -0.23028,0.5148 -0.51432,0.5148 h -7.2e-4 -11.312448 -7.32e-4 c -0.28404,0 -0.51432,-0.2304 -0.51432,-0.5148 v -0.6852 c 0,-0.2844 0.23028,-0.5148 0.51432,-0.5148 z m 0,3.25716 h 11.314104 c 0.28416,2.4e-4 0.5142,0.2304 0.51408,0.5148 v 0.6852 c 0,0.2844 -0.22992,0.5148 -0.51408,0.5148 H 6.342828 c -0.28404,0 -0.51432,-0.2304 -0.51432,-0.5148 v -0.6852 c 0,-0.2844 0.23028,-0.5148 0.51432,-0.5148 z m 0,3.25752 h 11.314104 c 0.28416,0 0.5142,0.2304 0.51408,0.5136 v 0.6864 c 0,0.2844 -0.22992,0.5148 -0.51408,0.5148 H 6.342828 c -0.28404,0 -0.51432,-0.2304 -0.51432,-0.5148 v -0.6864 c 0,-0.2844 0.23028,-0.5136 0.51432,-0.5136 z"
     id="path2" />
</svg>
