<svg role="img" xmlns="http://www.w3.org/2000/svg" viewBox="0 0 24 24"><title>MacPorts</title><path fill="currentColor" d="M13.2 19.6c-.34-.16-.79-.56-1-.91-.37-.6-.39-.96-.39-6.68 0-8.3-.34-7.88 6.18-7.87 3.72 0 4.15.03 4.7.37 1.32.8 1.31.77 1.31 7.5 0 6.72 0 6.7-1.3 7.5-.57.33-.99.36-4.75.36-3.1 0-4.28-.07-4.75-.28zm3.8-4.3v-1.7l1.23-.1c2.44-.2 3.75-1.59 3.51-3.72-.19-1.7-1.26-2.54-3.47-2.71-.78-.06-1.9-.05-2.5.03l-1.08.13V17h2.3zm0-5.02V8.93h.77c.88 0 1.72.66 1.72 1.35 0 .69-.84 1.34-1.72 1.34h-.78zM.3 12.05l.34-4.8c.01-.02.62-.04 1.35-.04h1.33l.39 1.3c.21.7.62 2.2.9 3.3.29 1.11.55 2.05.59 2.1.08.09.02.27 1.14-3.58l.9-3.12h2.77l.13 2.83c.07 1.56.18 3.72.25 4.8l.12 1.96H8.6l-.12-2.04a77.15 77.15 0 0 1-.13-3.88c0-2.02-.16-2.1-.66-.31-.18.63-.67 2.25-1.1 3.6l-.76 2.46-1.57-.11-.54-1.92c-.3-1.06-.73-2.74-.96-3.75l-.43-1.82-.14.86c-.08.48-.15 1.57-.16 2.42 0 .86-.07 2.22-.14 3.03l-.12 1.46H0z"/></svg>