 <svg role="img" xmlns="http://www.w3.org/2000/svg" viewBox="0 0 24 24">
        <title>MacPorts</title>
        <path
          fill="currentColor"
          d="M14.054 4.154c-1.323 0-2.395 1.16-2.395 2.593v10.506c0 1.431 1.072 2.592 2.395 2.592h7.55c1.322 0 2.395-1.16 2.395-2.592V6.747c0-1.432-1.072-2.593-2.396-2.593zm3.604 3.003c1.34 0 2.296.257 2.938.77.628.486 1.027 1.284 1.027 2.226 0 .941-.3 1.754-.884 2.282-.742.684-1.84 1.013-3.124 1.013-.285 0-.542-.015-.741-.058v3.452H14.72V7.357c.67-.114 1.612-.2 2.938-.2zM.612 7.193l-.614 9.614H2.01l.185-3.652c.057-1.198.114-2.681.157-3.98h.028c.243 1.256.557 2.625.87 3.766l1.027 3.708h1.698l1.17-3.75c.37-1.127.77-2.497 1.083-3.723h.029c0 1.398.042 2.796.085 3.95l.157 3.68h2.111l-.513-9.613H7.244l-1.013 3.195a53.179 53.179 0 0 0-.912 3.452h-.057a41.426 41.426 0 0 0-.813-3.438l-.942-3.209zm17.145 1.62c-.428 0-.727.028-.884.07v2.839c.185.042.4.057.727.057 1.156 0 1.869-.585 1.869-1.555 0-.884-.614-1.412-1.712-1.412z"
        />
      </svg>