<svg xmlns="http://www.w3.org/2000/svg" width="24" height="24"><path d="M14.016 4.9v.002c-1.322 0-2.395 1.131-2.395 2.528V17.68c0 1.398 1.073 2.53 2.395 2.53h7.552c1.324 0 2.395-1.132 2.395-2.53V7.43c0-1.398-1.07-2.53-2.395-2.53h-7.552zm3.604 2.93c1.341 0 2.3.25 2.94.751.627.473 1.028 1.253 1.028 2.17 0 .92-.3 1.714-.885 2.227-.742.67-1.84.99-3.124.99-.285 0-.542-.016-.742-.056v3.368h-2.155V8.025c.672-.111 1.612-.195 2.938-.195zM.572 7.866l-.613 9.378h2.01l.188-3.562c.057-1.169.115-2.616.156-3.88h.027c.243 1.223.557 2.559.871 3.672l1.028 3.618h1.698l1.17-3.66c.37-1.1.77-2.435 1.084-3.63h.027c0 1.362.044 2.727.086 3.853l.158 3.589h2.112l-.514-9.378H7.206l-1.014 3.116a51.61 51.61 0 0 0-.912 3.368h-.056a39.268 39.268 0 0 0-.813-3.353l-.942-3.13H.572zm17.15 1.579c-.428 0-.73.027-.885.07v2.768c.185.043.4.056.726.056 1.157 0 1.872-.57 1.872-1.516 0-.863-.616-1.378-1.713-1.378z" class="layer" style="stroke:none;fill:#000;fill-opacity:1" transform="matrix(.99983 0 0 1.5677 .041 -7.682)"/></svg>