<svg role="img" viewBox="0 0 24 24" xmlns="http://www.w3.org/2000/svg"><title>Magisk icon</title><path d="M10.857 14.4582s.155.921-.034 2.952c-.236 2.5459.97 6.5898.97 6.5898s1.645-4.052 1.358-6.6699c-.236-2.152.107-2.9039.034-2.8029-1.264 1.746-2.328-.069-2.328-.069zm3.082 2.185c.206 1.591-.023 2.462-.32 4.1639-.15.861 3.0679-2.589 4.3019-4.645.206-.343-1.18 1.337-2.551.137-.951-.832-1.114-1.085-1.853-1.8079-.249-.244.277 1.014.423 2.151zm-3.512-2.025c-.739.723-.903.976-1.853 1.808-1.3709 1.2-2.7569-.48-2.5509-.137 1.234 2.057 4.452 5.5058 4.302 4.6449-.297-1.703-.526-2.574-.32-4.164.147-1.137.673-2.3949.423-2.1509zm3.166-2.839c1.504.434 2.088 2.523 3.6059 2.781.314.053.667.148 1.079.128.77-.037 1.744-.472 3.0449-2.318.385-.546-.955 3.514-4.313 3.563-2.4599.036-2.7468-2.408-4.3868-2.482-.592-.027-.629-1.156-.629-1.156s.706-.774 1.598-.517zm-3.186-.012c-1.504.434-2.088 2.523-3.6059 2.781-.314.053-.667.148-1.079.128-.77-.037-1.744-.472-3.0449-2.318-.385-.546.955 3.514 4.313 3.563 2.4599.036 2.7468-2.408 4.3868-2.482.592-.027.629-1.156.629-1.156s-.706-.774-1.598-.517zm5.626-.02c1.5129 1.146 1.0619 2.408 1.9109 2.048 2.859-1.212 2.359-7.4338 2.128-6.6818-1.303 4.2419-4.143 4.4799-6.876 2.528-.534-.381 1.985 1.4589 2.837 2.1049zm-5.24-2.1059c-2.733 1.951-5.5729 1.714-6.8758-2.528-.231-.752-.731 5.469 2.128 6.682.849.36.398-.902 1.9109-2.048.852-.646 3.371-2.486 2.837-2.105zm5.526.584c3.2998-.136 3.9088-5.5449 3.6498-4.8849-1.165 2.963-5.5739 1.848-5.9948 3.718-.083.367.747 1.2329 2.345 1.1669zm-6.304-1.167c-.421-1.87-4.8309-.755-5.9948-3.7179-.259-.66.35 4.7489 3.6499 4.8849 1.599.066 2.428-.8 2.345-1.167zm3.753-.824s1.794-.964 3.3299-1.384c1.435-.393 2.512-1.3589 2.631-2.3799.089-.76-1.11-2.197-1.11-2.197s-.841 2.334-1.945 3.501c-1.201 1.27-.745 1.099-2.906 2.46zm-6.4529-2.46c-1.104-1.1669-1.945-3.5008-1.945-3.5008s-1.199 1.436-1.11 2.197c.12 1.0209 1.196 1.9869 2.631 2.3799 1.536.421 3.33 1.384 3.33 1.384-2.162-1.361-1.705-1.19-2.906-2.46zm6.2349 2.312c1.943-1.594 2.9759-3.6729 4.6569-5.9488.317-.429-1.419-1.465-2.105-1.533-.686-.068-1.262 2.453-1.327 3.936-.059 1.3539-1.486 3.7608-1.224 3.5468zM9.214 4.5394C9.149 3.0564 8.573.5355 7.887.6035c-.6859.068-2.4219 1.104-2.1049 1.533 1.681 2.276 2.713 4.3559 4.657 5.9488.261.214-1.165-2.193-1.224-3.5469zm4.531-1.602c.137-1.098.631-1.8999 1.613-2.5739-.868-.29-1.591-.526-1.968-.217-.377.309-1.403 1.342-1.266 3.023s.007 7.9618.305 7.8458c.16-4.302 1.522-5.5379 1.316-8.0768zm-2.186 8.0769c.297.116.167-6.1649.305-7.8458.138-1.681-.888-2.714-1.266-3.023-.377-.309-1.099-.073-1.968.217.983.674 1.476 1.476 1.613 2.574-.206 2.5389 1.156 3.7749 1.316 8.0768z"/></svg>