<svg role="img" viewBox="0 0 24 24" xmlns="http://www.w3.org/2000/svg"><title>Mahindra</title><path d="M23.5 10.298h-1.792c-.087-.001-.169.065-.219.178l-.301.722h1.805c.114.013.204.168.203.355v1.38h-1.355v-.396c0-.077.041-.141.088-.141h.945v-.506c.008-.107-.045-.199-.111-.195h-1.311c-.161.001-.292.212-.291.474v1.254c0 .007.001.015.003.022.017.189.12.328.238.327h2.558v-2.725c.001-.413-.205-.749-.46-.749m-5.638-1.263v3.868h-1.125c-.069-.001-.127-.089-.131-.202v-1.143c0-.195.097-.353.217-.353h.57c.082-.001.159-.067.207-.175l.262-.727h-1.575c-.254.001-.462.337-.461.749v2.103c-.005.34.164.621.375.621h2.437V9.035h-.776Zm1.611 1.263c-.176-.007-.32.221-.32.506v2.965h.78v-2.21c-.005-.197.092-.361.213-.361h.577c.081-.011.156-.084.201-.196l.303-.702-1.754-.002Zm-8.096 1.129v2.342h.773v-3.431l-.612.622c-.101.101-.161.277-.161.467Zm0-2.396h.773v.875l-.773.839V9.031Zm-7.56 0H.091v4.736h.775v-3.628h.826c.081.003.144.109.143.237v3.393h.774v-3.393c0-.13.065-.236.145-.237h.611c.118.001.213.156.213.347v3.283h.774V9.906c.002-.48-.239-.87-.535-.871v-.004Zm11.045 1.267H12.66v3.469h.78v-2.569h.886c.121.001.219.159.219.354v2.217h.776v-2.722c.001-.412-.204-.746-.459-.749Zm-3.997.748c0-.412-.206-.748-.46-.748H9.386c-.091 0-.135.074-.183.188l-.301.712h.983c.116.009.208.165.208.355v2.216h.775v-2.715s-.003-.004-.003-.008Zm-2.74-2.011h.777v4.734h-.774l-.003-4.734Zm-.941 1.263H5.393c-.087-.001-.169.065-.22.178l-.303.722h1.805c.115.013.205.168.204.355v1.38H5.526v-.396c0-.077.038-.14.086-.141h.946v-.506c.007-.107-.047-.199-.113-.195H5.134c-.162 0-.292.212-.291.474v1.254a.081.081 0 0 0 0 .022c.019.189.12.328.239.327h2.557v-2.725c.001-.41-.202-.745-.455-.749Z"/></svg>