<svg role="img" viewBox="0 0 24 24" xmlns="http://www.w3.org/2000/svg"><title>Mailfence</title><path d="M11.938 3.9h7.203l-5.808 10.094c-.349.598-.15 1.37.474 1.744.598.35 1.37.125 1.72-.473L22.08 3.9h.075C23.178 3.9 24 4.773 24 5.844v12.287c0 1.072-.822 1.969-1.844 1.969h-.15l-4.261-6.854-1.421 2.492 2.691 4.362h-7.077v-5.558l2.641-4.536a1.29 1.29 0 0 0-.473-1.744c-.623-.35-1.396-.15-1.745.473l-.423.698Zm-10.119 0h.025l4.287 6.854 1.445-2.492L4.86 3.9h7.078v5.533l-2.617 4.56c-.349.599-.15 1.372.473 1.745.599.35 1.396.125 1.745-.473l.399-.723V20.1H4.735l5.832-10.094c.349-.623.15-1.395-.474-1.744-.598-.35-1.37-.15-1.744.473L1.794 20.1C.798 20.075 0 19.202 0 18.13V5.845C0 4.773.822 3.9 1.82 3.9"/></svg>