<svg role="img" viewBox="0 0 24 24" xmlns="http://www.w3.org/2000/svg"><title>mailbox</title><path d="M17.523 9.825c.5.283.713.283 1.137-.141l.283-.283c.212-.283.354-.43.283-.784l-2.422-7.409C16.59.424 16.02 0 15.165 0h-3.56c-.572 0-.855.141-1.137.501l-.996 1.285c-.714.996-.572 1.497.353 2.21M6.477 14.175c-.5-.283-.713-.283-1.137.141l-.283.283c-.212.283-.354.43-.283.784l2.422 7.409C7.41 23.576 7.98 24 8.835 24h3.56c.572 0 .855-.141 1.137-.501l.996-1.285c.714-.996.572-1.497-.353-2.21m0-2.481c-.283.5-.283.713.141 1.137l.283.283c.283.212.43.354.784.283l7.409-2.422C23.576 16.59 24 16.02 24 15.165v-3.56c0-.572-.141-.855-.501-1.137l-1.285-.996c-.996-.714-1.497-.572-2.21.353M9.825 6.477c.283-.5.283-.713-.141-1.137L9.4 5.057c-.283-.212-.43-.354-.784-.283L1.208 7.196C.424 7.41 0 7.98 0 8.835v3.56c0 .572.141.855.501 1.137l1.285.996c.996.714 1.497.572 2.21-.353"/></svg>