<svg role="img" viewBox="0 0 24 24" xmlns="http://www.w3.org/2000/svg"><title>Mail.Ru icon</title><path d="M11.5848 5.2666c1.834 0 3.558.811 4.824 2.08v.004c0-.609.4101-1.068.9791-1.068h.145c.891 0 1.073.842 1.073 1.109l.005 9.475c-.063.621.64.941 1.029.543 1.5211-1.564 3.3422-8.038-.946-11.79-3.996-3.497-9.3572-2.921-12.2093-.955-3.031 2.091-4.9711 6.718-3.086 11.064 2.054 4.74 7.9311 6.152 11.4242 4.744 1.7691-.715 2.5861 1.676.749 2.457-2.776 1.184-10.5022 1.064-14.1103-5.188-2.439-4.221-2.309-11.649 4.158-15.497C10.5668-.6984 17.09.1166 21.022 4.2236c4.1111 4.294 3.8721 12.334-.139 15.461-1.816 1.42-4.5161.037-4.4981-2.031l-.019-.678c-1.265 1.256-2.948 1.988-4.7821 1.988-3.6251 0-6.8132-3.189-6.8132-6.812 0-3.659 3.189-6.885 6.8142-6.885zm4.561 6.623c-.137-2.653-2.106-4.249-4.484-4.249h-.09c-2.7451 0-4.2682 2.159-4.2682 4.61 0 2.747 1.842 4.481 4.2562 4.481 2.693 0 4.464-1.973 4.592-4.306z"/></svg>