<svg viewBox="0 0 16 16" xmlns="http://www.w3.org/2000/svg" fill-rule="evenodd" clip-rule="evenodd" stroke-linejoin="round" stroke-miterlimit="1.414"><path d="M15.59 10.418c-.11-.235-.32-.397-.584-.46-.088-.402-.21-.6-.22-.63.046-.052.09-.105.1-.117.373-.46.13-1.138-.506-1.297-.358-.344-.682-.506-.948-.64-.255-.127-.153-.077-.392-.185-.064-.31-.085-1.034-.186-1.542-.09-.457-.274-.788-.556-1.006-.113-.244-.27-.49-.462-.67.888-1.36 1.12-2.705.47-3.408C12.02.15 11.59 0 11.077 0 10.35 0 9.46.295 8.56.84L7.965.36C5.462-1.61-1.617 7.1.882 9.003l.645.493c-.405 1.126.158 2.47 1.332 2.9.258.096.54.142.83.126 0 0 1.897 3.477 5.898 3.478 4.627 0 5.805-4.526 5.818-4.567 0 0 .375-.554.184-1.015zm-5.364.73c-.305.014-.494-.036-.6.32-.008.03-.014.066-.017.103 1.192.376 3.08-.356 3.262-.398l.018-.003c.118.01-1.014.722-2.584.722-.265 0-.493-.023-.673-.06.085.295.31.425.605.494.224.052.462.057.462.057 2.175.06 3.964-1.624 4.038-1.71 0 0-.02.045-.02.05-.32.717-2.166 2.017-4.004 1.98l-.006.002c-.426 0-.944-.11-1.213-.445-.426-.528-.205-1.406.474-1.427l.225-.005c1.68-.052 3.19-.67 4.27-1.96.147-.183-.02-.436-.34-.444h-.005l-.003-.004c-.382-.408-.717-.552-1.015-.704-.626-.32-.567-.043-.712-1.59-.04-.416-.12-.984-.485-1.202-.096-.057-.2-.08-.31-.08-.107 0-.16.02-.18.025-.2.044-.315.157-.458.29-.675.62-1.214.453-2.02.445-.756-.006-1.423.52-1.55 1.33v.002c-.063.424-.023.855.043 1.048 0 0-.205-.136-.303-.257.12.74.794 1.224.794 1.224-.105.024-.258.014-.258.014s.385.305.72.41c-.088.055-.528.49-.755 1.087-.213.56-.126 1.232-.126 1.232l.185-.275s-.12.612.113 1.206c.077-.177.246-.492.246-.492s-.026.658.29 1.197c.01-.123.056-.44.056-.44s.182.562.602.955c.786.698 2.868.824 4.453-.42 1.255-.988 1.474-2.175 1.495-2.216.31-.37.225-.736-.183-.736-.13 0-.228.034-.228.034s0-.54-.25-.962c-.192.217-.727.647-1.43.98-.657.312-1.536.586-2.624.622zM3.543 12c-.894 0-1.62-.762-1.62-1.703 0-.94.726-1.704 1.62-1.704.232 0 .452.05.65.143 0 0 .345.174.442.994.1-.256.152-.467.152-.467.115.353.174.724.15 1.1.097-.128.2-.368.2-.368C5.313 11.043 4.55 12 3.542 12zm.397-2.243c.05 0 .087.02.086.037 0 .018-.035.032-.078.062-.056.04-.063.077-.05.142.01.036.027.06.06.086.125.1.46.17.52.505.068.386-.213.732-.554.74h-.012c-.23 0-.355-.145-.332-.177.004-.007.014-.01.028-.01.02 0 .043.005.075.01.032.004.063.007.093.007h.002c.247 0 .397-.167.437-.34 0-.003.012-.055.012-.09.002-.032 0-.063-.006-.092-.035-.2-.265-.238-.413-.398-.133-.145-.107-.33-.023-.418.048-.048.107-.065.154-.065h.002zm-.722-.22c-.015.007-.145.065-.25.195-.144.177-.195.408-.187.63.01.217.073.337.085.366.027.057.005.09-.036.09h-.002c-.035 0-.086-.024-.134-.076-.084-.09-.138-.225-.165-.345-.107-.5.116-1 .628-1.2.03-.01.063-.017.09-.025.04-.012.15-.035.28-.035h.003c.05 0 .098.003.148.01.21.033.395.14.512.275.09.103.16.247.147.376-.005.054-.03.13-.077.15-.006.003-.012.005-.018.005-.012 0-.022-.005-.03-.013-.035-.034-.008-.105-.093-.225-.094-.13-.282-.257-.54-.258h-.002c-.056 0-.116.006-.178.02h-.003c-.066.013-.03.005-.094.024l-.028.01c-.02.01-.04.016-.057.026zm-2.144-1.11c-.507-.856.376-2.614 1.004-3.614C3.628 2.343 6.212.395 7.385.673L7.708.55l.882.745C9.196.93 9.968.56 10.69.487c-.44.098-.975.326-1.61.714-.014.01-1.5 1.013-2.407 1.913-.495.49-2.48 2.87-2.48 2.87.364-.687.603-1.025 1.178-1.747.326-.41.672-.806 1.027-1.173.165-.17.332-.334.5-.49.114-.106.23-.21.343-.307.053-.046.106-.09.16-.133l-1.165-.96.062.43.846.745s-.75.504-1.12.822C4.528 4.443 3.064 6.398 2.52 8.3h.026c-.272.15-.54.39-.777.716-.007 0-.61-.444-.696-.59zm8.54-.35c.26 0 .436.143.41.188-.01.014-.03.02-.065.02h-.003c-.026 0-.06-.004-.098-.007-.045-.003-.09-.005-.135-.005h-.002c-.15 0-.312.023-.523.11-.064.026-.11.048-.14.048-.007 0-.013 0-.018-.005-.023-.017 0-.086.077-.16.066-.065.135-.102.215-.135.013-.006.026-.01.04-.014.036-.01.074-.022.115-.028.042-.008.083-.01.123-.01zm1.62-.112c.05 0 .105.014.156.042.127.07.19.2.138.293-.03.054-.092.083-.164.083-.05 0-.105-.013-.157-.042-.127-.068-.188-.2-.138-.292.03-.054.092-.083.164-.083zm.83-.287c.005 0 .01 0 .017.002.093.014.152.128.132.255-.018.117-.097.203-.182.204-.007 0-.013-.002-.02-.003-.092-.014-.15-.128-.13-.254.017-.118.097-.204.182-.205zm-2.79-.235c.12 0 .242.02.357.063.153.056.325.17.415.3.034.05.043.087.03.103-.007.006-.017.01-.03.01-.047 0-.13-.036-.24-.08-.184-.067-.343-.107-.516-.107h-.004c-.175 0-.364.04-.606.132-.112.043-.195.077-.24.077h-.01c-.067-.01-.002-.135.146-.255.2-.16.448-.244.696-.244h.002zm2.274-.228c.184-.015.364.017.516.093-.01-.44-.267-.934-.46-.867-.114.038-.133.237-.13.357.005.144.027.277.074.418zM5.536 5.982c.008-.016.706-1.33 2.226-2.2-.114-.017-.393.02-.442.024.278-.24.794-.398 1.15-.47-.103-.067-.352-.084-.475-.087-.037-.002-.037-.002-.08 0 .336-.188.958-.298 1.524-.2-.072-.093-.234-.162-.347-.195L9.04 2.84l.042-.01c.34-.065.738.006 1.053.133-.035-.083-.123-.18-.19-.24-.005-.007-.045-.036-.045-.036.33.07.646.212.883.375-.032-.062-.112-.167-.167-.224.314.09.668.314.82.636l.014.037c-.597-.458-2.338-.328-4.08.802-.798.517-1.383 1.083-1.834 1.67zM7.94 1.72c-.092.065-.173.125-.242.177l-.007.005-.484-.406.734.224zm.37-.25l-.357-.298.13.45c.07-.05.146-.1.226-.152zm-.966-.234l.216.07-.175-.633-.102.315.06.248z"/></svg>