<svg role="img" viewBox="0 0 24 24" xmlns="http://www.w3.org/2000/svg"><title>Mailfence</title><path d="M11.938 0h7.203l-5.808 14.954c-.349.886-.15 2.03.474 2.585.598.516 1.37.184 1.72-.702L22.08 0h.075C23.178 0 24 1.292 24 2.88v18.203C24 22.671 23.178 24 22.156 24h-.15l-4.261-10.154-1.421 3.692L19.015 24h-7.077v-8.234l2.641-6.72c.35-.923.125-2.068-.473-2.584-.623-.517-1.396-.222-1.745.701l-.423 1.034ZM1.819 0h.025l4.287 10.154 1.445-3.692L4.86 0h7.078v8.197L9.32 14.954c-.349.886-.15 2.03.473 2.585.599.516 1.396.184 1.745-.702l.399-1.07V24H4.735l5.832-14.954c.349-.923.15-2.068-.474-2.584-.598-.517-1.37-.222-1.744.701L1.794 24C.798 23.963 0 22.67 0 21.083V2.88C0 1.292.822 0 1.82 0"/></svg>