<svg role="img" viewBox="0 0 24 24" xmlns="http://www.w3.org/2000/svg"><title>Mail.Ru icon</title><path d="M11.5848 5.2664c1.834 0 3.558.811 4.824 2.08v.004c0-.609.4101-1.068.9791-1.068h.145c.891 0 1.073.842 1.073 1.109l.005 9.4753c-.063.621.64.941 1.029.543 1.5211-1.564 3.3422-8.0382-.946-11.7903-3.996-3.4971-9.3572-2.921-12.2093-.955-3.031 2.091-4.9711 6.7182-3.086 11.0643 2.054 4.7401 7.9311 6.1521 11.4242 4.7441 1.7691-.715 2.5861 1.676.749 2.457-2.776 1.1841-10.5022 1.0641-14.1103-5.188-2.439-4.2212-2.309-11.6494 4.158-15.4975C10.5668-.6987 17.09.1163 21.022 4.2233c4.1111 4.2942 3.8721 12.3344-.139 15.4615-1.816 1.42-4.5161.037-4.4981-2.031l-.019-.678c-1.265 1.256-2.948 1.988-4.7821 1.988-3.6251 0-6.8132-3.1891-6.8132-6.8122 0-3.6591 3.189-6.8852 6.8142-6.8852zm4.561 6.6232c-.137-2.6531-2.106-4.2491-4.484-4.2491h-.09c-2.7451 0-4.2682 2.159-4.2682 4.61 0 2.7472 1.842 4.4812 4.2562 4.4812 2.693 0 4.464-1.973 4.592-4.3061z"/></svg>