<svg role="img" viewBox="0 0 24 24" xmlns="http://www.w3.org/2000/svg"><title>Major League Hacking icon</title><path d="M23.769 7.887c.063 0 .119.02.16.063a.225.225 0 0 1 .071.161v7.778a.213.213 0 0 1-.07.161.222.222 0 0 1-.161.063H22.07a.228.228 0 0 1-.231-.224v-2.714a.206.206 0 0 0-.063-.155c-.042-.042-.091-.056-.162-.056h-2.377a.25.25 0 0 0-.161.056.212.212 0 0 0-.07.155v2.714c0 .147-.078.224-.232.224h-1.683c-.155 0-.232-.077-.232-.224V8.111c0-.147.077-.224.232-.224h1.683c.154 0 .231.077.231.224v2.63c0 .147.078.225.232.225h2.377c.064 0 .12-.022.162-.064a.222.222 0 0 0 .063-.16V8.11a.21.21 0 0 1 .07-.161.222.222 0 0 1 .161-.063zm-8.374 6.207c.063 0 .119.02.154.063a.222.222 0 0 1 .063.16v1.55a.234.234 0 0 1-.063.162.206.206 0 0 1-.154.063h-5.45c-.154 0-.231-.077-.231-.224V8.11c0-.147.077-.224.231-.224h1.67c.154 0 .23.077.23.224v5.78a.19.19 0 0 0 .07.153.221.221 0 0 0 .162.057h3.318zm-7.75-6.102c.161.07.301.168.42.287.12.12.21.26.288.421a1.3 1.3 0 0 1 .105.52v6.648a.206.206 0 0 1-.063.154.206.206 0 0 1-.154.063H6.649a.181.181 0 0 1-.148-.063.231.231 0 0 1-.056-.154V9.822H5.162v6.046a.231.231 0 0 1-.056.154.191.191 0 0 1-.147.063H3.514a.206.206 0 0 1-.155-.063.206.206 0 0 1-.063-.154V9.822H2.013v6.046c0 .147-.07.217-.218.217H.217c-.147 0-.217-.07-.217-.217V8.104c0-.147.07-.217.217-.217H7.12c.189 0 .357.035.526.105Z"/></svg>