<svg role="img" viewBox="0 0 24 24" xmlns="http://www.w3.org/2000/svg"><title>Make</title><path d="M19.24 3.71h4.18c.32 0 .58.26.58.58v15.412c0 .32-.26.58-.58.58h-4.18a.58.58 0 0 1-.57-.58v-15.4c0-.321.26-.581.57-.581zm-12.251.2L.058 17.703a.58.58 0 0 0 .26.77l3.73 1.88c.29.14.63.03.78-.26l6.92-13.78a.58.58 0 0 0-.25-.78L7.758 3.66a.57.57 0 0 0-.76.24m5.812.06L9.85 19c-.06.3.14.61.45.67l4.1.83c.31.06.62-.14.68-.45L18.04 5a.58.58 0 0 0-.45-.67l-4.1-.83a.58.58 0 0 0-.68.45" style="stroke-width:1.00009"/></svg>