<svg role="img" xmlns="http://www.w3.org/2000/svg" viewBox="0 0 24 24"><title>makedeb</title><path d="m 18.81631,14.95685 -0.785459,0.4533 v 0.01 l 0.785459,-0.4537 0.06916,-0.04 c -0.02316,0.01 -0.04633,0.021 -0.06916,0.034 m 0.840107,1.1968 c 0.0073,-0.037 0.01105,-0.074 0.01105,-0.1121 v 0 -0.5934 c 0,-0.039 -0.0038,-0.077 -0.01105,-0.1135 v 0 z M 11.716474,0.08025 1.7662458,5.82465 C 1.5904683,5.92605 1.4825,6.11365 1.4825,6.31635 v 0 11.3755 c 0,0.2027 0.1079683,0.3903 0.2837458,0.4917 v 0 l 5.3565752,3.0923 c 0.1754516,0.101 0.3917141,0.101 0.5674916,0 v 0 l 1.7151589,-0.9907 c 0.3782023,-0.2183 0.3782023,-0.7643 0,-0.9826 v 0 L 4.6159866,16.53795 C 4.4405601,16.43655 4.332266,16.24895 4.332266,16.04655 v 0 -5.7842 c 0,-0.4367 0.4726589,-0.7097 0.851187,-0.4914 v 0 l 6.533372,3.7716 c 0.175452,0.1014 0.391689,0.1014 0.567115,0 v 0 l 4.923074,-2.8422 0.823837,-0.4757 0.785459,-0.4533 c 0.344611,-0.199 0.767084,0.01 0.840107,0.3778 v 0 c 0.0073,0.036 0.01105,0.074 0.01105,0.1135 v 0 0.5934 c 0,0.038 -0.0038,0.075 -0.01105,0.1121 v 0 c -0.03186,0.1575 -0.129402,0.2958 -0.271262,0.3785 v 0 l -1.354304,0.7821 -0.85432,0.4933 -4.892591,2.8252 c -0.175426,0.1014 -0.391663,0.1014 -0.567466,0 v 0 l -4.8784014,-2.8169 c -0.3782023,-0.2183 -0.8508612,0.054 -0.8508612,0.4914 v 0 1.9809 c 0,0.2024 0.1079682,0.3899 0.2833948,0.4914 v 0 l 5.4462188,3.1434 c 0.175452,0.1014 0.391689,0.1014 0.567115,0 v 0 l 4.923074,-2.8421 0.701355,-0.4049 0.122482,-0.071 v -0.01 l 0.785459,-0.4533 c 0.02284,-0.013 0.046,-0.025 0.06916,-0.034 v 0 h 3.76e-4 c 0.329746,-0.1363 0.702383,0.068 0.770568,0.4121 v 0 c 0.0073,0.036 0.01105,0.075 0.01105,0.1135 v 0 0.5935 c 0,0.038 -0.0038,0.075 -0.01105,0.1121 v 0 c -0.03186,0.1574 -0.129401,0.2958 -0.271262,0.3785 v 0 l -1.354303,0.782 -8.0350767,4.6334 c -0.3785282,0.2183 -0.3785282,0.7643 -3.76e-4,0.983 v 0 l 1.7210747,0.9937 c 0.175803,0.1014 0.39204,0.1014 0.567467,0 v 0 l 9.949902,-5.7444 c 0.175427,-0.1014 0.283395,-0.289 0.283395,-0.4913 v 0 -11.3759 c 0,-0.2027 -0.107968,-0.3903 -0.283395,-0.4917 v 0 l -9.949902,-5.7444 c -0.08771,-0.051 -0.185629,-0.076 -0.283595,-0.076 v 0 c -0.09797,0 -0.195982,0.025 -0.283872,0.076 m 0,10.172 -5.1081501,-2.9493 c -0.3782024,-0.2185 -0.3782024,-0.7644 0,-0.9828 v 0 l 5.1081501,-2.9497 c 0.175803,-0.1014 0.39204,-0.101 0.567467,0 v 0 l 5.107825,2.9497 c 0.378202,0.2184 0.378202,0.7643 0,0.9828 v 0 l -5.107825,2.9493 c -0.08771,0.051 -0.185629,0.076 -0.283595,0.076 v 0 c -0.09797,0 -0.195982,-0.025 -0.283872,-0.076"/></svg>
