<svg viewBox="0 0 16 16" xmlns="http://www.w3.org/2000/svg" fill-rule="evenodd" clip-rule="evenodd" stroke-linejoin="round" stroke-miterlimit="1.414"><path d="M15.37 4.886c-.402-.953-.98-1.81-1.713-2.543-.735-.734-1.59-1.31-2.543-1.714C10.127.21 9.08 0 8 0 6.92 0 5.873.212 4.886.63c-.953.402-1.808.98-2.543 1.713-.734.734-1.31 1.59-1.714 2.543C.21 5.873 0 6.92 0 8c0 1.08.212 2.127.63 3.114.402.953.98 1.81 1.713 2.543.735.734 1.59 1.31 2.543 1.714C5.873 15.79 6.92 16 8 16c1.08 0 2.127-.212 3.114-.63.953-.402 1.808-.98 2.543-1.713.734-.734 1.31-1.59 1.714-2.543C15.79 10.127 16 9.08 16 8s-.212-2.127-.63-3.114zM8 14.89c-3.805 0-6.89-3.085-6.89-6.89 0-3.805 3.085-6.89 6.89-6.89 3.805 0 6.89 3.085 6.89 6.89 0 3.805-3.085 6.89-6.89 6.89zm2.162-12.143H5.838c-.615 0-1.134.217-1.556.65-.423.43-.635.95-.635 1.556v6.788c0 .3.09.54.267.722.178.182.41.274.7.274.297 0 .537-.092.72-.274.182-.183.273-.423.273-.72V4.72h1.427v7.02c0 .297.087.537.26.72.173.182.408.274.706.274s.533-.092.706-.274c.173-.183.26-.423.26-.72V4.72h1.427v7.02c0 .297.09.537.273.72.183.182.423.274.72.274.29 0 .522-.094.7-.282.178-.187.267-.425.267-.713V4.954c0-.606-.212-1.125-.635-1.557-.422-.432-.94-.65-1.556-.65z"/></svg>