<svg role="img" viewBox="0 0 24 24" xmlns="http://www.w3.org/2000/svg"><title>Malaysia Airlines</title><path d="m2.492 11.935-.084.324s1.064-.017 1.493-.017c.983-.001 1.581.089 1.646.687.059.403-.128.79-.236 1.17-.104.369-.198.723-.301 1.088-.108.384-.224.723-.43.983a1.57 1.57 0 0 1-.838.564c-.422.103-2.144.042-2.624.042-.054.135-.086.292-.129.438 1.397.072 2.743-.022 4.172.021.463.014.923.064 1.333-.021a1.67 1.67 0 0 0 1.268-1.129c.192-.563.366-1.22.538-1.818.094-.328.155-.637.301-.899.139-.25.323-.444.559-.628.433-.335 1.138-.618 1.806-.292.33.16.521.426.516.92-.004.425-.146.774-.258 1.17-.332 1.183-.626 2.188-.946 3.346-.105.38-.186.787-.322 1.108a2.11 2.11 0 0 1-1.613 1.254c-.64.102-1.368.021-2.043.021H.15s-.105.303-.15.46c2.699.038 5.48.021 8.106.021.715 0 1.378.019 2-.042 1.784-.173 3.363-.674 4.666-1.38a13.1 13.1 0 0 0 5.118-4.913c.719-1.211 1.921-2.134 3.898-2.134.057-.151.085-.216.132-.344zM24 11.716c-1.514.034-2.647-.616-2.755-1.986-.022-.277.002-.535-.022-.774a6.2 6.2 0 0 0-.494-1.944c-.987-2.267-2.934-3.515-6.064-3.764H4.946c-.019.17-.095.284-.108.46h6.279c.685 0 1.446-.093 2.021.063.371.1.824.434.796 1.087-.015.334-.171.69-.28 1.066-.301 1.041-.559 2.072-.86 3.116-.196.678-.335 1.401-.753 1.902-.378.455-1.065.9-1.892.669-.301-.084-.489-.19-.623-.397-.325-.5-.026-1.269.129-1.819.085-.302.178-.581.258-.857.076-.266.208-.584.215-.899.01-.485-.298-.735-.602-.837-.361-.12-.881-.062-1.355-.062-1.384 0-2.877-.017-4.215.021-.028.146-.084.266-.107.418 1.204 0 3.139-.151 3.139.836.003.231-.08.489-.15.732-.129.445-.263.886-.387 1.338-.063.229-.107.465-.194.669-.228.537-.471.962-1.354.962H2.549l-.057.219H23.92c.033-.098.051-.146.08-.219"/></svg>