<?xml version="1.0" encoding="UTF-8" standalone="no"?>
<svg
   role="img"
   viewBox="0 0 24 24"
   version="1.1"
   id="svg22"
   width="24"
   height="24"
   xmlns="http://www.w3.org/2000/svg"
   xmlns:svg="http://www.w3.org/2000/svg"
   xmlns:rdf="http://www.w3.org/1999/02/22-rdf-syntax-ns#"
   xmlns:cc="http://creativecommons.org/ns#"
   xmlns:dc="http://purl.org/dc/elements/1.1/">
  <defs
     id="defs26" />
  <title
     id="title18">Malt</title>
  <path
     d="M 12.029905,0 C 10.052168,0 9.3105167,1.1802625 9.0553248,2.488121 9.238744,2.6476159 9.4221632,2.8071108 9.6095697,2.9945174 L 12.033893,5.414853 14.498089,2.9506563 C 14.662269,2.7874929 14.832518,2.6305499 15.008473,2.4801462 14.749294,1.1762751 14.007642,0 12.033893,0 Z m 6.46752,2.5279947 c -1.116465,0.00797 -2.157169,0.7496262 -2.910783,1.5032397 L 4.1428809,15.474996 c -1.2121615,1.212161 -2.4801462,3.054328 -0.5741818,4.960292 1.9059645,1.905965 3.7481309,0.63798 4.9563051,-0.574182 L 19.968766,8.4173451 C 21.180927,7.209171 22.353215,5.2713075 20.542947,3.46104 19.865094,2.7831866 19.167304,2.5240073 18.497425,2.5279947 Z m -12.8393423,0 C 4.988204,2.5200199 4.2824389,2.7911613 3.5686991,3.5049011 2.1691311,4.9004818 2.4801462,6.2641635 3.2217976,7.3686659 3.4450905,7.3527164 10.111979,7.3287922 10.111979,7.3287922 L 10.949327,6.4994185 8.5250042,4.0750955 C 7.7674032,3.3174946 6.7665725,2.5399568 5.6540954,2.5279947 Z M 3.9116132,8.8639309 C 2.1970427,8.8639309 0,9.4022263 0,11.96212 0,13.876059 1.2241236,14.661572 2.5559063,14.9367 2.7154012,14.753281 8.5808274,8.8639309 8.5808274,8.8639309 Z M 21.515866,8.9835521 c -0.147532,0.1754444 -6.028908,6.0847319 -6.028908,6.0847319 h 4.609404 c 1.71457,0 3.911613,-0.406712 3.911613,-3.106164 0,-1.9737498 -1.180263,-2.7193886 -2.488121,-2.9745805 z m -0.677853,7.5839839 c -0.24323,0.01595 -6.886194,0.0319 -6.886194,0.0319 l -0.837348,0.837349 2.468184,2.464196 c 1.212161,1.212162 3.150025,2.384449 4.960292,0.574182 1.35172,-1.355707 1.036717,-2.771224 0.291079,-3.907626 z m -8.80412,1.953813 -2.4243233,2.420336 C 9.4336428,21.118285 9.2514358,21.288546 9.0632996,21.452068 9.3424157,22.783851 10.123941,24 12.029905,24 c 1.913939,0 2.699452,-1.224124 2.974581,-2.555906 -0.171457,-0.147533 -0.338927,-0.291079 -0.506397,-0.458548 z"
     id="path20"
     style="stroke-width:3.98737" />
  <metadata
     id="metadata356">
    <rdf:RDF>
      <cc:Work
         rdf:about="">
        <dc:title>Malt</dc:title>
      </cc:Work>
    </rdf:RDF>
  </metadata>
</svg>
