<svg role="img" viewBox="0 0 24 24" xmlns="http://www.w3.org/2000/svg" width="24" height="24"><title>Malt</title><path d="M12.03 0c-1.978 0-2.72 1.18-2.975 2.488.184.16.367.32.555.507l2.424 2.42 2.464-2.464c.164-.164.335-.32.51-.47C14.75 1.175 14.008 0 12.034 0Zm6.467 2.528c-1.116.008-2.157.75-2.91 1.503L4.143 15.475c-1.212 1.212-2.48 3.054-.574 4.96 1.906 1.906 3.748.638 4.956-.574L19.969 8.417c1.212-1.208 2.384-3.146.574-4.956-.678-.678-1.376-.937-2.046-.933Zm-12.839 0c-.67-.008-1.376.263-2.09.977C2.17 4.9 2.48 6.265 3.223 7.369c.223-.016 6.89-.04 6.89-.04l.837-.83-2.424-2.424c-.758-.758-1.758-1.535-2.87-1.547ZM3.912 8.864C2.197 8.864 0 9.402 0 11.962c0 1.914 1.224 2.7 2.556 2.975.16-.184 6.025-6.073 6.025-6.073Zm17.604.12c-.148.175-6.029 6.084-6.029 6.084h4.61c1.714 0 3.911-.406 3.911-3.106 0-1.974-1.18-2.72-2.488-2.974zm-.678 7.584c-.243.015-6.886.031-6.886.031l-.838.838 2.469 2.464c1.212 1.212 3.15 2.384 4.96.574 1.352-1.356 1.037-2.771.291-3.907zm-8.804 1.953-2.424 2.42c-.176.177-.359.348-.547.511.28 1.332 1.06 2.548 2.967 2.548 1.914 0 2.7-1.224 2.974-2.556-.171-.147-.338-.291-.506-.458z" style="stroke-width:3.98737"/></svg>
