<svg role="img" xmlns="http://www.w3.org/2000/svg" viewBox="0 0 24 24"><title>ManageIQ icon</title><path d="M12.096.1C5.728.1.532 5.27.537 11.655c0 2.06.53 3.956 1.497 5.685l2.869-2.868a7.67 7.67 0 01-.54-2.817c0-4.262 3.468-7.752 7.73-7.733 4.264.02 7.733 3.47 7.733 7.73 0 4.265-3.468 7.736-7.73 7.736a7.669 7.669 0 01-2.604-.457L6.6 21.828a11.506 11.506 0 005.496 1.388 11.5 11.5 0 006.273-1.856l2.395 2.39L24 20.511l-2.35-2.35a11.5 11.5 0 002-6.503c0-6.292-5.075-11.56-11.554-11.56zm0 9.34c-1.226 0-2.215.99-2.215 2.216 0 1.973 2.386 2.961 3.781 1.566 1.395-1.396.407-3.781-1.566-3.781zm-4.242 3.368L0 20.662l3.238 3.24 7.856-7.858z"/></svg>
