<svg role="img" xmlns="http://www.w3.org/2000/svg" viewBox="0 0 24 24"><title>ManageIQ icon</title><path d="M12.096.1C5.728.1.532 5.271.537 11.657c0 2.059.522 3.945 1.49 5.674l2.871-2.854a7.683 7.683 0 01-.535-2.82c0-4.262 3.468-7.752 7.73-7.733 4.264.02 7.733 3.47 7.733 7.73 0 4.264-3.468 7.735-7.73 7.735a7.669 7.669 0 01-2.604-.457L6.6 21.828a11.506 11.506 0 005.496 1.388c2.316 0 4.465-.685 6.273-1.855l2.395 2.39L24 20.512l-2.35-2.35c1.262-1.851 2-4.088 2-6.503C23.65 5.367 18.575.099 12.096.099zm0 9.341c-1.226 0-2.215.99-2.215 2.215a2.215 2.215 0 102.215-2.215zm-4.242 3.367L0 20.662l3.238 3.24 7.856-7.857z"/></svg>