<svg role="img" viewBox="0 0 24 24" xmlns="http://www.w3.org/2000/svg"><title>Mantine</title><path d="M12 24a12 12 0 1 1 0-24 12 12 0 0 1 0 24ZM8.73 12.63a1.35 1.34 0 0 0 .95.39 1.35 1.34 0 0 0 .94-.39 1.38 1.38 0 0 0 .32-1.47 1.37 1.36 0 0 0-.3-.45 1.35 1.35 0 0 0-.44-.3 1.34 1.33 0 0 0-1.05 0 1.35 1.35 0 0 0-.44.3 1.38 1.37 0 0 0-.39.98 1.38 1.37 0 0 0 .41.94zm1.04-6.3a.92.92 0 0 0-.05 1.02.91.9 0 0 0 .24.27 5.37 5.37 0 0 1 0 8.69.9.9 0 0 0-.24.26.92.91 0 0 0-.1.7.92.91 0 0 0 .15.31.91.9 0 0 0 1.27.2 7.41 7.37 0 0 0 1.18-1.1h2.59a.91.91 0 1 0 0-1.82h-1.43a7.28 7.24 0 0 0 .6-2.9 7.28 7.24 0 0 0-.6-2.9h1.43a.91.91 0 1 0 0-1.82h-2.59a7.42 7.38 0 0 0-1.18-1.1.91.9 0 0 0-.67-.16.92.91 0 0 0-.6.36Z"/></svg>