<svg role="img" xmlns="http://www.w3.org/2000/svg" viewBox="0 0 24 24"><title>MariaDB icon</title><path d="M0 17.149c.584-.732 1.365-.56 2.13-.47.551.075 1.094.207 1.653.215.354.008.593-.132.823-.387.436-.485.757-1.06 1.217-1.521a6.791 6.791 0 012.607-1.629c1.687-.592 3.422-1.06 5.083-1.735 1.407-.576 2.476-1.505 3.233-2.821.493-.864.97-1.736 1.587-2.525.83-1.045 1.9-1.596 3.232-1.588.708.008 1.308-.296 1.933-.543h.157c.263.099.345.305.345.568 0 .715-.239 1.332-.79 1.793-.37.304-.756.584-1.143.863a2.495 2.495 0 00-1.02 1.514c-.304 1.316-.543 2.648-.962 3.94-.37 1.151-.822 2.27-1.678 3.174-.263.28-.567.518-.913.7-.197.098-.304.09-.271-.173a1.903 1.903 0 00-.017-.609c-.115.247-.222.493-.337.74-.773 1.571-1.916 2.69-3.676 3.085-.025.008-.05.016-.074.016-.198.025-.477.123-.568-.025-.115-.189.181-.304.288-.452.839-1.077 1.431-2.254 1.546-3.652-.123-.008-.115.099-.14.148-.033.058-.049.124-.074.19-.115.312-.213.624-.386.912-.181.296-.428.436-.782.453-.904.024-1.8-.083-2.69-.206-.789-.107-1.586-.164-2.376-.107-.905.066-1.686.469-2.41.962-.839.568-1.735 1.029-2.648 1.448-.412.19-.847.313-1.283.428H.642c-.132-.206-.074-.412.04-.592.165-.255.338-.502.51-.749.091-.123.19-.255 0-.362-.419-.247-.74-.641-1.192-.839v-.164Z"/></svg>
