<svg role="img" viewBox="0 0 24 24" xmlns="http://www.w3.org/2000/svg"><title>MariaDB icon</title><path d="M23.499 4.145c-.625.247-1.225.552-1.933.543-1.332-.008-2.401.543-3.232 1.588-.617.79-1.095 1.661-1.589 2.525-.756 1.316-1.825 2.245-3.232 2.82-1.661.675-3.396 1.143-5.082 1.736a6.792 6.792 0 0 0-2.608 1.629c-.46.46-.781 1.036-1.217 1.52-.23.256-.47.396-.823.388-.56-.008-1.102-.14-1.653-.214-.765-.09-1.546-.263-2.13.47v.163c.452.198.772.592 1.192.839.19.107.09.24 0 .363-.173.247-.345.493-.51.748-.114.181-.173.386-.041.592h.954c.436-.116.872-.239 1.284-.428.913-.42 1.81-.88 2.649-1.447.723-.494 1.505-.897 2.41-.962.789-.058 1.587-.001 2.377.106.888.123 1.784.23 2.689.205.354-.016.6-.155.78-.451.173-.288.273-.602.388-.914.025-.066.04-.13.074-.188.024-.05.016-.156.14-.148-.116 1.398-.709 2.574-1.547 3.652-.107.148-.403.262-.288.45.09.149.37.051.567.027.025 0 .05-.008.076-.016 1.76-.395 2.902-1.514 3.675-3.085.115-.246.222-.494.337-.74.042.214.041.411.016.609-.032.263.075.27.272.171.345-.18.65-.419.914-.698.855-.905 1.307-2.023 1.677-3.175.42-1.29.658-2.624.962-3.94a2.495 2.495 0 0 1 1.02-1.513c.387-.28.774-.56 1.144-.865.551-.46.789-1.077.789-1.792 0-.264-.082-.469-.345-.568z"/></svg>