<svg role="img" viewBox="0 0 24 24" xmlns="http://www.w3.org/2000/svg"><title>Mastodon icon</title><path d="M23.1925 7.8795c0-5.2063-3.411-6.7324-3.411-6.7324C18.0615.357 15.1075.025 12.0405 0h-.076c-3.068.025-6.02.357-7.74 1.147 0 0-3.411 1.5262-3.411 6.7325 0 1.192-.023 2.6181.015 4.1292.124 5.0923.934 10.1096 5.641 11.3557 2.17.574 4.034.695 5.535.612 2.722-.15 4.25-.972 4.25-.972l-.09-1.9751s-1.945.613-4.129.539c-2.165-.074-4.449-.233-4.799-2.8912a5.499 5.4993 0 01-.048-.745s2.125.52 4.817.643c1.646.075 3.19-.097 4.758-.283 3.007-.359 5.625-2.2121 5.954-3.9052.517-2.6652.475-6.5074.475-6.5074zm-4.024 6.7094h-2.497V8.4695c0-1.29-.543-1.9441-1.628-1.9441-1.2 0-1.802.776-1.802 2.3121v3.3492h-2.483V8.8365c0-1.536-.602-2.3121-1.802-2.3121-1.085 0-1.628.655-1.628 1.9441v6.1194h-2.497V8.2845c0-1.289.328-2.3131.987-3.0702.68-.758 1.569-1.146 2.674-1.146 1.278 0 2.246.491 2.886 1.474l.621 1.0431.622-1.043c.64-.9831 1.608-1.4742 2.886-1.4742 1.104 0 1.994.388 2.674 1.1461.658.757.986 1.7811.986 3.0702v6.3044z"/></svg>