<svg role="img" viewBox="0 0 24 24" xmlns="http://www.w3.org/2000/svg"><title>MathWorks</title><path d="M20.41 10.009c-.44-1.217-.825-2.469-1.259-3.693-.469-1.327-.956-2.602-1.608-3.733-.27-.47-.94-1.564-1.657-1.562-.217.002-.374.093-.52.188-.463.298-1.038 1.26-1.323 1.773-.434.776-1.297 2.057-1.933 2.805-.213.25-.417.545-.666.756-.39.33-.884.772-1.39.976-.157.064-.353.088-.52.147-.399.14-.7.308-.998.561-.518.437-.997 1.007-1.422 1.537-.092.114-.217.282-.342.44l2.234 1.74c1.748-2.072 3.679-4.061 5.071-7.802 0 0-.484 4.167-4.081 8.483-2.209 2.65-4.117 4.037-4.379 4.317 0 0 .667-.116 1.167.09 1.161.477 1.773 2.165 2.28 3.369.357.85.76 1.714 1.113 2.578 1.156-.257 1.938-.824 2.705-1.472.826-.7 1.566-1.631 2.265-2.465 1.349-1.606 3.074-3.797 5.114-2.796.335.167.696.404.972.625.413.335.747.677 1.149 1.017.705.596 1.072 1.062 1.618 1.382-1.386-2.996-2.43-6.046-3.59-9.261M4.528 16.34C3.34 15.563 1.747 14.507 0 13.39c2.063-.776 4.006-1.363 6.106-2.156l2.575 1.751c-2.007 1.953-3.155 2.68-4.153 3.355"/></svg>