<svg role="img" viewBox="0 0 24 24" xmlns="http://www.w3.org/2000/svg"><title>Mathworks icon</title><path d="M4.3234 16.2494C3.1303 15.3553 1.64 14.3112 0 13.119l5.8145-2.2362 2.3852 1.7892c-1.7892 2.0871-2.9813 2.8322-3.8763 3.5783zm15.9513-6.2606c-.447-1.193-.745-2.3852-1.1931-3.5783-.447-1.342-.894-2.5342-1.6401-3.5783-.298-.447-.8941-1.491-1.6402-1.491-.149 0-.298.149-.447.149-.447.149-1.0431 1.043-1.1931 1.64-.447.7451-1.3421 1.9382-1.9382 2.6833-.149.298-.447.596-.596.745-.447.298-.8941.7451-1.4912 1.0431-.149 0-.298.149-.447.149-.447 0-.745.298-1.043.447-.4471.4471-.8942 1.0432-1.3422 1.4912 0 .149-.149.298-.298.447l2.2362 1.6402c1.6401-1.9382 3.5783-3.8763 4.9194-7.6027 0 0-.447 4.0254-4.0254 8.3487-2.2361 2.5343-4.0253 3.8764-4.3233 4.1744 0 0 .596-.149 1.193.149 1.1932.447 1.7892 2.0872 2.2363 3.2793.298.894.745 1.6401 1.043 2.5342 1.1932-.298 1.9382-.745 2.6833-1.4911.745-.7461 1.4911-1.6402 2.2362-2.3852 1.342-1.6402 2.9812-3.7273 5.0684-2.6833.298.149.745.447.894.596.4471.2981.7451.5961 1.1932 1.0432.745.596 1.043 1.043 1.6401 1.342-1.4911-2.9812-2.5342-5.9634-3.7273-9.0937z"/></svg>