<svg role="img" viewBox="0 0 24 24" xmlns="http://www.w3.org/2000/svg"><title>Matillion</title><path d="M21.223 4.83 13.597.429a3.196 3.196 0 0 0-3.194 0L2.777 4.83A3.195 3.195 0 0 0 1.18 7.597v8.806c0 1.141.609 2.196 1.597 2.766l7.626 4.403c.988.57 2.206.57 3.194 0l7.626-4.403a3.195 3.195 0 0 0 1.597-2.766V7.597a3.194 3.194 0 0 0-1.597-2.766zm-16.5 12.55a1.383 1.383 0 0 1-1.044-2.287l7.277-8.402a1.382 1.382 0 1 1 2.09 1.81l-7.278 8.403a1.379 1.379 0 0 1-1.045.477zm15.457-.331a1.378 1.378 0 0 1-1.949-.152l-3.483-4.07-3.484 4.07c-.273.32-.66.484-1.05.484h-.001A1.381 1.381 0 0 1 9.164 15.1l4.533-5.297c.026-.03.057-.053.085-.08.023-.024.042-.05.067-.071l.024-.016c.042-.035.088-.064.133-.093.033-.02.064-.043.097-.061.044-.023.09-.04.136-.059.039-.015.076-.032.115-.044.044-.013.089-.02.134-.028.042-.009.084-.019.127-.023.044-.004.088-.002.133-.002.044 0 .088-.002.132.002.042.004.084.014.126.022.045.009.091.016.136.03.037.01.073.027.109.041.048.019.096.037.143.062.031.016.06.038.09.057.048.03.095.06.14.096l.022.016c.025.02.043.046.066.069.028.028.06.051.086.082l4.533 5.297a1.38 1.38 0 0 1-.151 1.949z"/></svg>