<svg xmlns="http://www.w3.org/2000/svg" width="1196" height="1074.667" version="1.0" viewBox="0 0 897 806"><title>MatLab</title><path d="M582.6 7.5c-7.4 3.1-18.1 11.8-25.2 20.3-7.3 8.8-23.5 33.2-36.9 55.7-5.9 9.9-12.9 21.1-15.5 25-2.5 3.8-5.9 9.2-7.5 11.9-6.2 10.8-27.4 39.8-44.3 60.6-14.3 17.6-42 43.3-52.2 48.5-1.9 1-5.3 3-7.5 4.5-5 3.3-14.1 6.9-26.5 10.5-11.8 3.3-36.2 16-34.3 17.8 1.2 1.3 15.1.7 22.5-.8 4-.9 8.4-1.7 9.8-1.9 3.9-.6 7.6-2.1 21.5-8.7 13.5-6.4 19.4-10.5 30.2-20.7 3-2.8 5.8-5.2 6.1-5.2 1.1 0 22-22 26.3-27.8 2.4-3.1 8.3-10.7 13.1-16.8 4.8-6.2 8.8-11.6 8.8-12.1s1.1-2 2.5-3.3c1.4-1.3 2.5-2.9 2.5-3.7 0-.7.4-1.3.9-1.3s1.2-.8 1.5-1.8c.4-1 1.4-2.7 2.4-3.8.9-1.1 4.4-6 7.7-10.9 3.3-5 6.2-9.2 6.6-9.5.3-.3 1.6-2.3 2.9-4.5 1.3-2.2 2.6-4.2 3-4.5.3-.3 2.2-3.1 4.3-6.3 3.4-5.3 6.7-7.8 5.3-4.1-.3.9-.9 3.5-1.1 5.9-.6 4.6-3.8 15.9-7.8 27-1.4 3.8-2.9 8.8-3.3 11-.4 2.2-1.7 6.2-2.9 9-1.2 2.7-2.6 6.5-3 8.3-.4 1.8-1.3 4.5-2.1 6s-1.4 3.6-1.4 4.7c0 2.7-7.1 16.7-9 17.6-.8.4-4.2 1.9-7.4 3.4-7.8 3.3-20.8 12.1-32.2 21.5-5 4.1-10.6 8.7-12.5 10.2-9.2 7.2-10.7 8.5-12.9 10.5-1.3 1.3-2.7 2.3-3.1 2.3-.5 0-3.8 2.7-7.5 6s-8.2 6.6-10 7.5c-1.8.8-3.4 1.9-3.6 2.3-.6 1.4-10.3 8-21.8 14.7-6.3 3.6-12.2 7.1-13 7.6-.8.5-4.4 2.3-8 4-22.2 10.5-47.7 16.4-58.5 13.6-2.8-.8-3.3-.4-9 6.5-3.3 4-9.7 12-14.2 17.8l-8 10.5 2.2 5c1.2 2.8 3.5 5.9 5.1 7 1.5 1.1 3.8 3 5.1 4.2 1.3 1.1 4.2 3.6 6.5 5.5 2.3 1.8 4.9 4 5.7 4.9.9.9 4.8 4.1 8.6 7 3.9 2.9 7.9 6.1 9 7.1 1.1 1 5.8 4.8 10.5 8.5s9.2 7.4 10 8.2c.8.9 3.8 3.2 6.5 5 2.8 1.9 5.9 4.3 7 5.3 2.1 1.8 13.5 10.5 21.8 16.5 2.6 1.9 4.7 3.8 4.7 4.2 0 .8-11.9 18.4-12.9 19.1-.5.3-1.5 1.8-2.4 3.5-.8 1.6-2.4 3.9-3.4 5s-4.5 5.5-7.8 9.9c-3.3 4.3-6.5 8.1-7.2 8.3-.7.3-1.3 1-1.3 1.7 0 .6-2.3 3.5-5 6.4-2.8 2.9-5 5.5-5 5.8 0 1.4-15.9 19-25.6 28.5-22.7 22-50.8 43.5-71.7 54.9-4.3 2.3-7.6 4.5-7.3 4.7.3.3 3.4-.3 6.8-1.5 3.5-1.1 7.6-2.3 9.2-2.7 1.6-.3 5.2-2.5 8-4.9 5.7-4.7 11.7-9.3 15.1-11.6 11.3-7.7 34.8-28.1 46-39.9 3.3-3.6 7.6-8.1 9.5-10 1.9-2 4.8-5.4 6.4-7.6 1.6-2.2 3.4-4.5 4.1-5 .6-.6 2.7-3 4.6-5.5 3.3-4.3 4.8-6 12.9-15.4 7-8 15-18.5 15-19.5 0-.6.3-1.1.8-1.1.4 0 1.6-1.7 2.7-3.7s2.5-4.1 3.1-4.7c2.1-2.2 19.3-28.5 24.9-38.1 3.2-5.5 6.5-10.9 7.5-12 1.6-1.9 7.1-11.3 12-20.5 1.3-2.5 2.7-4.7 3-5 .7-.5 1.3-1.5 6-10.7 1.4-2.6 2.7-5 3-5.3 1.7-1.7 7.2-12.1 21.9-41 1.9-3.6 3.8-7.3 4.3-8.3 4.7-9.3 9.5-19 13.8-28.2 8.5-17.8 12.7-26.6 15.5-32.5 4.7-9.6 10.5-23.3 10.5-24.6 0-.7.5-1.4 1.1-1.6.5-.2 1.1-1 1.3-1.8.1-.8 1.7-4.6 3.4-8.4 1.8-3.8 3.4-7.9 3.6-9.2.4-2.2 10.1-24.9 15.9-37.4 1.7-3.6 3.1-6.8 3.1-7.2.1-.3.4-1 .9-1.4.4-.4.7-1.5.7-2.5 0-1.8 2-6.9 4.7-12.2.8-1.5 1.1-2.7.7-2.7-.5 0-.3-.5.4-1.2s1.2-1.9 1.2-2.7c0-1.7 8.3-23.1 10.6-27.4.8-1.5 1.3-2.7 1.1-2.7-.2 0 1.6-5.7 4-12.8 2.4-7 4.4-13.5 4.4-14.4 0-1 .4-2 1-2.3.5-.4.9-1.3.9-2.2 0-1.5 11.8-26.2 13.1-27.3.3-.3.8-1.3 1.2-2.3.4-1 3.9-6 7.9-11.2 5.5-7 9-10.5 14.3-13.9 5.9-3.9 11.5-5.9 11.5-4.1 0 .6-5.1 8.5-6.5 10.1-3.9 4.4-29.6 55-31 61-.2.6-1.9 4.6-3.9 8.9-2 4.3-3.6 8.4-3.6 9.1 0 .8-.4 1.4-1 1.4-.5 0-1 .5-1 1.1 0 .5-1.1 3.5-2.5 6.5s-2.5 5.6-2.5 5.9c0 .2-1.4 3.4-3.1 7.2-1.6 3.7-3.8 8.8-4.9 11.3-4.3 10.6-11.6 27.3-16.6 38.1-3 6.4-5.4 12.1-5.4 12.7 0 .6-3 7.4-6.6 14.9-7.1 14.8-6.9 14.5-13.9 30.3-6.3 14.2-29.5 61.4-30.6 62-.4.3-3.9 7.1-7.7 15-3.8 8-10.2 20.6-14.2 28-4 7.4-9.7 17.9-12.6 23.3-2.9 5.5-5.9 10.6-6.8 11.5-.8 1-1.4 2-1.3 2.3.1.3-1.6 3.4-3.9 7-5.2 8.1-12.5 20.2-14.3 23.7-1.7 3.2-17.3 26.5-18.2 27.2-.4.3-2.3 3.3-4.3 6.7-2 3.4-4.1 6.5-4.6 6.8-.5.3-2.6 3.6-4.7 7.3-2 3.7-4.3 7.3-5 8.1-.8.7-3.2 4.1-5.5 7.5-2.3 3.3-5 7-6 8-1 1.1-3 3.8-4.5 6-1.5 2.3-3.2 4.5-3.8 5.1-.6.5-2.4 2.8-4 5-3.4 4.5-5.5 7.2-7 8.9-.6.6-2.4 2.9-4 5.1-1.6 2.2-4.5 5.6-6.5 7.6-7.1 7.4-13.6 14.6-16.5 18.3-6.4 8.1-8.4 10.3-21 23-7.1 7.2-15.1 15.5-17.7 18.5l-4.8 5.4 7.8 3.8c6.8 3.3 9.5 5.5 19.8 16.2 10.7 11 13.4 14.6 24.2 32 12.4 20 17.9 30.1 22.7 41.7 4.6 11.1 9.8 22 10.5 22 .4 0 1.3-.7 2-1.5s1.7-1.5 2.2-1.5c.5 0 2.4-1.1 4.2-2.5 1.8-1.3 5.2-3.2 7.7-4 8.5-3 27.4-8.4 33.4-9.4 20.3-3.5 25.5-4.2 39-5.6 8.3-.8 16.6-1.7 18.5-2 1.9-.3 9.8-1 17.5-1.5 14.5-1 22.8-2.2 33-4.6 9.2-2.2 19.7-5.5 22.5-7.1 1.4-.7 4.8-2.5 7.5-3.9 10.2-5.2 13.3-7 16.9-9.9 8.4-6.7 17.7-17 19.5-21.4.8-1.7 1.7-3.1 2.2-3.1.5 0 .9-.4.9-1 0-.5 1.3-3.1 2.8-5.7 1.6-2.6 4.1-8.2 5.7-12.3 1.5-4.1 3.6-9.3 4.6-11.5 1-2.2 2.8-9.2 3.9-15.5 1.2-6.3 2.6-12.2 3.1-13.2.6-1 1.2-4.4 1.5-7.6.3-3.1.7-7.3.9-9.2.3-1.9.7-6 1-9 .3-3 .8-7.5 1.1-10 1.2-9.9 1.8-27.8 1.7-53 0-23.8-.3-35.2-1.8-75-.3-6.3-.7-17.4-1-24.5-.2-7.2-.9-18.6-1.5-25.3-.5-6.8-.8-12.7-.6-13 .2-.4 0-4.5-.4-9.2-1.5-15-2.6-112.2-1.5-136.5.3-6.6.7-19.2.9-27.9.5-19.3 1.6-32.9 2.6-33.6.4-.3 1.1-4.8 1.4-10 .6-8.2 1.7-17.1 4.1-32.3.4-2.1 1.5-6.4 2.6-9.5 1.1-3.1 2.5-7.2 3-9.1 1.6-5 5.7-11.1 7.5-11.1 1.8 0 5.3 1.8 7 3.5 5.7 5.6 14.7 26.7 18.4 43 1.2 5 2.8 11.9 3.7 15.4.9 3.5 1.7 7.6 1.9 9 .1 1.4.9 5.5 1.8 9.1 3.1 13.7 3.9 17.6 4.2 20.5.1 1.7.7 4.8 1.2 7 .6 2.2 1.4 6.2 1.7 9 .3 2.7 1 6.4 1.6 8.2.5 1.7.9 3.8.8 4.5-.2.7.1 3.8.6 6.8.4 3 .9 6.6 1 8 1.1 10.8 1.6 15.2 2.4 19.5 1.8 8.9 3.5 21 3.3 21.9-.2.5.2 3 .7 5.5.6 2.5 1.3 7.1 1.6 10.1.7 9 3.5 32.2 3.9 32.9.2.3.7 4.4 1 9 .4 4.6.9 8.7 1.1 9.1.2.3.7 4.2 1 8.6 1.1 14.5 2.4 25.1 4.7 39.9.6 3.8 1.2 8.9 1.3 11.2.2 2.3 1 8.9 1.9 14.5.8 5.7 2.2 16.8 3.1 24.8 1.8 16.3 11.3 75 12.5 76.5.4.5 1.7 7.1 3 14.5s2.9 15.2 3.6 17.4c.8 2.1 1.4 5.7 1.4 8 .1 4.3 5.3 36.2 6.1 37 .2.3 2.4 0 4.8-.5 10-2.2 35.5 3.2 50.1 10.6 13.7 7 42.1 29.7 65.5 52.5 28.4 27.6 58.4 53.3 70.2 60.3 1.3.8-4.2-12.5-14.2-34.3-3.7-8-8.7-19.7-11-26-2.4-6.3-7.6-19.2-11.5-28.5-4-9.4-9.1-22.4-11.5-29-2.4-6.6-7.5-19.7-11.5-29-3.9-9.4-9.6-23.3-12.5-31-2.9-7.7-8.5-22.1-12.3-32-8-20.7-26-72.3-53.7-154-27.6-81.3-41-119.2-56.8-160-13.4-34.7-38.4-86.2-51.9-106.7-6-9.1-10.9-15.1-19.2-23.3-14.2-14-18.8-16.6-30.5-17.2-7.5-.3-9.4 0-14.5 2.2z"/></svg>