<svg role="img" viewBox="0 0 24 24" xmlns="http://www.w3.org/2000/svg"><title>Matter</title><path d="M21.22 10.896c-2.582 0.707-4.897 2.391-6.341 4.893s-1.746 5.35-1.067 7.939l2.53-1.461a7.717 7.717 0 0 1 0.356-3.822l5.913 3.413 1.389-0.803v-1.604L18.088 16.038a7.724 7.724 0 0 1 3.132-2.221z m-18.441 0v2.921a7.721 7.721 0 0 1 3.132 2.221L0 19.451v1.604l1.389 0.803 5.912-3.413c0.449 1.249 0.557 2.563 0.357 3.822l2.529 1.462c0.678-2.59 0.377-5.438-1.067-7.94A10.501 10.501 0 0 0 2.779 10.896zM12 0.271l-1.39 0.802v6.826c-1.306-0.236-2.498-0.8-3.489-1.602l-2.531 1.46c1.904 1.883 4.521 3.045 7.41 3.045s5.506-1.162 7.409-3.045l-2.53-1.46a7.724 7.724 0 0 1-3.489 1.602V1.073z"/></svg>