<svg role="img" viewBox="0 0 24 24" xmlns="http://www.w3.org/2000/svg"><title>Max</title><path d="m3.784 8.7155c-0.655 0-1.32 0.291-2.173 0.946v-0.78h-1.611v6.236h1.715v-3.876c0.749-0.593 1.091-0.78 1.372-0.78 0.333 0 0.551 0.208 0.551 0.728v3.928h1.715v-3.887c0.748-0.582 1.081-0.769 1.372-0.769 0.333 0 0.55 0.208 0.55 0.728v3.928h1.715v-4.531c0-1.403-0.8-1.871-1.57-1.871-0.654 0-1.32 0.27-2.192 0.936-0.28-0.697-0.894-0.936-1.444-0.936zm8.689 0c-1.705 0-3.118 1.466-3.118 3.284 0 1.82 1.413 3.285 3.118 3.285 0.842 0 1.57-0.312 2.131-0.988v0.821h1.632v-6.236h-1.632v0.822c-0.561-0.676-1.29-0.988-2.131-0.988zm4.064 0.166c0.707 1.102 1.507 2.09 2.443 3.077a26.593 26.593 0 0 0-2.443 3.16h2.069c0.488-0.79 1.039-1.508 1.673-2.183a14.067 14.067 0 0 1 1.632 2.182h2.089a25.142 25.142 0 0 0-2.432-3.159 23.918 23.918 0 0 0 2.432-3.077h-2.047c-0.51 0.79-1.06 1.455-1.674 2.11a13.357 13.357 0 0 1-1.674-2.11zm-3.804 1.279c1.018 0 1.84 0.821 1.84 1.84 0 1.018-0.822 1.839-1.84 1.839-1.019 0-1.84-0.82-1.84-1.84 0-1.018 0.821-1.84 1.84-1.84zm0 0.415c-0.78 0-1.414 0.634-1.414 1.424s0.634 1.424 1.413 1.424c0.78 0 1.414-0.634 1.414-1.424s-0.634-1.424-1.414-1.424z"/></svg>
