<svg role="img" viewBox="0 0 24 24" xmlns="http://www.w3.org/2000/svg"><title>Max</title><path d="M3.784 9c-.655 0-1.32.291-2.173.946v-.78H0v6.236h1.715v-3.876c.749-.593 1.091-.78 1.372-.78.333 0 .551.208.551.728v3.928h1.715v-3.887c.748-.582 1.081-.769 1.372-.769.333 0 .55.208.55.728v3.928H8.99v-4.531C8.99 9.468 8.19 9 7.42 9c-.654 0-1.32.27-2.192.936C4.948 9.239 4.334 9 3.784 9Zm8.689 0c-1.705 0-3.118 1.466-3.118 3.284 0 1.82 1.413 3.285 3.118 3.285.842 0 1.57-.312 2.131-.988v.821h1.632V9.166h-1.632v.822C14.043 9.312 13.314 9 12.473 9Zm4.064.166c.707 1.102 1.507 2.09 2.443 3.077a26.593 26.593 0 0 0-2.443 3.16h2.069c.488-.79 1.039-1.508 1.673-2.183a14.067 14.067 0 0 1 1.632 2.182H24a25.142 25.142 0 0 0-2.432-3.159A23.918 23.918 0 0 0 24 9.166h-2.047c-.51.79-1.06 1.455-1.674 2.11a13.357 13.357 0 0 1-1.674-2.11h-2.068Zm-3.804 1.279c1.018 0 1.84.821 1.84 1.84 0 1.018-.822 1.839-1.84 1.839-1.019 0-1.84-.82-1.84-1.84 0-1.018.821-1.84 1.84-1.84Zm0 .415c-.78 0-1.414.634-1.414 1.424 0 .79.634 1.424 1.413 1.424.78 0 1.414-.634 1.414-1.424 0-.79-.634-1.424-1.414-1.424Z"/></svg>