<svg role="img" viewBox="0 0 24 24" xmlns="http://www.w3.org/2000/svg"><title>Max Fashion</title><path d="m21.62 11.801 2.232-2.658H21.53l-1.14 1.474-1.133-1.464-.007-.01h-2.323L19.16 11.8l-2.38 3.055h2.273l1.337-1.74 1.33 1.73.007.01H24Zm-5.752 3.055h-1.703v-.617c-.308.557-1.015.814-1.681.814-1.805 0-2.86-1.42-2.86-3.058.001-1.874 1.344-3.048 2.861-3.048.933 0 1.456.453 1.68.803v-.607h1.702zm-4.54-2.83c0 .524.388 1.431 1.414 1.431.604 0 .974-.288 1.189-.636a1.577 1.577 0 0 0 .234-.734 1.472 1.472 0 0 0-.142-.752c-.184-.39-.574-.792-1.29-.792-.974 0-1.405.824-1.405 1.472zM0 9.142h1.59v.607a1.34 1.34 0 0 1 .348-.401c.246-.206.646-.402 1.24-.402.39 0 .88.103 1.302.546a1.934 1.934 0 0 1 .338.473 2.35 2.35 0 0 1 .41-.494c.339-.309.8-.525 1.394-.525.4 0 1.035.093 1.497.577.534.566.616.947.616 2.213v3.12H7.033v-3.038c0-.238 0-.545-.113-.803-.103-.267-.318-.463-.759-.463-.471 0-.707.216-.82.474-.123.257-.123.545-.123.71v3.12H3.516v-3.11c0-.154 0-.453-.102-.71-.112-.268-.318-.484-.748-.484-.482 0-.716.227-.84.504-.125.278-.124.587-.124.762v3.037H0Z"/></svg>