<svg role="img" viewBox="0 0 24 24" xmlns="http://www.w3.org/2000/svg"><title>MDX</title><path d="M.791 7.12H23.21c.437 0 .791.355.791.792v8.176a.791.791 0 0 1-.791.791H.79A.791.791 0 0 1 0 16.088V7.912c0-.437.354-.791.791-.791Zm2.506 7.605v-3.122l1.89 1.89L7.12 11.56v3.122h1.055V9.012l-2.99 2.99-2.944-2.946v5.67h1.055Zm8.44-1.845-1.474-1.473-.746.746 2.747 2.747 2.746-2.747-.746-.746-1.473 1.473v-4h-1.055v4Zm10.042.987-2.175-2.175 2.22-2.22-.746-.746-2.22 2.22-2.221-2.22-.746.746 2.22 2.22-2.176 2.177.746.746 2.177-2.177 2.176 2.175.745-.746Z"/></svg>
