<svg viewBox="0 0 16 16" xmlns="http://www.w3.org/2000/svg" fill-rule="evenodd" clip-rule="evenodd" stroke-linejoin="round" stroke-miterlimit="1.414"><g fill-rule="nonzero"><path d="M3.226 6.763v.38h.023c.68-.41 1.38-.444 1.8-.444 1.135 0 1.52.323 1.668.442.26-.15.827-.443 1.79-.443 1.928 0 1.928.76 1.928 1.067V9.56H8.882V7.962c0-.33 0-.697-.827-.697-.408 0-.828.124-.975.307-.136.156-.193.297-.193.642V9.56H5.334V8.025c0-.474.01-.76-.804-.76-.41 0-.828.108-.987.27-.124.123-.204.253-.204.664v1.36H1.786V6.762h1.44zM14.18 7.382h-1.127v1.12c0 .396 0 .525.46.525.22 0 .413-.025.62-.064l.047-.006.146.57c-.545.1-1.14.11-1.31.11-.507 0-1.162-.074-1.404-.283-.206-.17-.23-.337-.23-.76V7.38h-.764v-.584h.763v-.553l1.673-.433v.986h1.127v.584zM1.027 11.14C.41 10.208 0 9.1 0 7.986 0 6.67.517 5.6 1.04 4.846h.624C1.2 5.873.886 6.746.886 8.014c0 1.455.516 2.577.75 3.085.007.007.022.033.022.04h-.63zM14.973 4.86C15.59 5.792 16 6.9 16 8.014c0 1.314-.517 2.387-1.04 3.14h-.624c.463-1.028.78-1.9.78-3.168 0-1.456-.518-2.576-.753-3.086-.007-.007-.02-.033-.02-.04h.63z"/></g></svg>