<svg viewBox="0 0 16 16" xmlns="http://www.w3.org/2000/svg" fill-rule="evenodd" clip-rule="evenodd" stroke-linejoin="round" stroke-miterlimit="1.414"><path d="M11.824 12.628l-.276.45.798.398 2.744 1.372c.15.076.294.11.418.11.278 0 .467-.177.467-.492V5.883l-4.15 6.745zm4.096-8.67c-.004-.003 0-.01-.003-.012l-4.825-2.412c-.06-.03-.123-.038-.187-.044-.016 0-.03-.01-.047-.01-.184 0-.368.092-.467.254l-.24.39-.5.814-1.89 3.08 1.89 3.076.5.813.5.812.59.95 4.71-7.64c.02-.03.01-.06-.02-.08zm-6.27 7.045L7.17 6.97l-.295-.477-.294-.477-.25-.416v4.867l3.32 1.663.5.25.5.25-.5-.813-.5-.813zM.737 1.68L.59 1.608c-.085-.042-.166-.062-.24-.062-.206 0-.35.16-.35.427v10.162c0 .272.2.594.442.716l4.145 2.08c.107.06.208.08.3.08.257 0 .438-.2.438-.53V4.01c0-.02-.012-.04-.03-.047L.738 1.68z"/></svg>