<svg role="img" xmlns="http://www.w3.org/2000/svg" viewBox="0 0 24 24"><title>MediaWiki</title><path d="M12.11.111c.475.595.899 1.197 1.221 1.828A7.879 7.879 0 0 1 15.01.491l.115-.076.057.129c.306.699.561 1.39.707 2.083a7.846 7.846 0 0 1 1.996-.964l.134-.042.021.137c.115.755.18 1.488.143 2.195a7.81 7.81 0 0 1 2.176-.414l.138-.008-.016.138c-.083.758-.207 1.484-.43 2.156a7.94 7.94 0 0 1 2.217.163l.134.031-.049.131c-.28.708-.589 1.377-.976 1.97a7.845 7.845 0 0 1 2.098.733l.122.062-.084.114c-.45.614-.922 1.177-1.448 1.651a7.91 7.91 0 0 1 1.831 1.249l.104.094-.111.087c-.595.474-1.197.899-1.826 1.22a7.837 7.837 0 0 1 1.445 1.679l.077.115-.128.056c-.7.307-1.391.562-2.083.708.413.617.74 1.291.964 1.997l.043.134-.138.021c-.755.115-1.487.18-2.196.143.24.701.38 1.437.414 2.176l.007.138-.137-.016c-.758-.083-1.483-.207-2.157-.428a8.01 8.01 0 0 1-.161 2.215l-.03.134-.133-.049c-.709-.28-1.377-.589-1.97-.976a7.906 7.906 0 0 1-.732 2.097l-.062.122-.113-.084c-.616-.45-1.179-.922-1.653-1.448a7.847 7.847 0 0 1-1.247 1.832l-.094.104-.086-.111c-.477-.595-.901-1.197-1.222-1.827a7.848 7.848 0 0 1-1.681 1.446l-.115.077-.055-.128c-.308-.7-.562-1.39-.708-2.082a7.883 7.883 0 0 1-1.997.963l-.135.043-.019-.138c-.115-.755-.181-1.487-.144-2.196-.699.24-1.434.38-2.175.414l-.139.008.016-.137c.083-.759.209-1.484.431-2.158a8.016 8.016 0 0 1-2.217-.161l-.134-.03.049-.133c.28-.708.588-1.376.975-1.97a7.919 7.919 0 0 1-2.097-.732l-.123-.063.083-.113c.452-.616.924-1.179 1.45-1.653a7.816 7.816 0 0 1-1.832-1.247L0 11.978l.111-.086c.595-.477 1.197-.9 1.828-1.222A7.856 7.856 0 0 1 .491 8.99l-.076-.115.129-.055c.699-.308 1.389-.562 2.082-.708a7.858 7.858 0 0 1-.964-1.998l-.042-.135.137-.019c.755-.114 1.488-.181 2.196-.144a7.818 7.818 0 0 1-.413-2.175l-.008-.138.138.015c.758.084 1.484.209 2.156.431a7.981 7.981 0 0 1 .163-2.217l.031-.133.131.049c.708.279 1.377.587 1.97.974A7.782 7.782 0 0 1 8.853.528l.062-.123.114.083c.614.452 1.176.924 1.65 1.449a7.927 7.927 0 0 1 1.25-1.833L12.023 0l.087.111Zm-2.041 4.661a4.198 4.198 0 0 1 .202-1.837c.09-.266.191-.527.307-.782-.444-.5-.982-.946-1.579-1.392a7.271 7.271 0 0 0-.67 2.001c.725.512 1.324 1.15 1.74 2.01ZM8.99 7.803c.108.006.217.006.327-.002a.534.534 0 0 0 .415-.258 2.49 2.49 0 0 0 .14-.245 2.943 2.943 0 0 1-1.024-.76c.134.407.185.841.142 1.265Zm.9-2.856a4.733 4.733 0 0 0-1.599-1.945c-.033.23-.057.465-.07.703a3.841 3.841 0 0 0 .718 2.57 2.57 2.57 0 0 0 1.027.815 2.66 2.66 0 0 0-.076-2.143ZM6.195 1.922a7.393 7.393 0 0 0-.131 2.108c.831.304 1.576.765 2.2 1.491a4.203 4.203 0 0 1-.28-1.83c.014-.279.048-.558.094-.835-.559-.368-1.194-.66-1.883-.934Zm2.686 6.439a.95.95 0 0 1-.481.505c-.12.039-.24.069-.365.093.009.11.013.222.009.333a.935.935 0 0 1-.334.611c-.104.068-.213.13-.326.185.037.102.07.213.094.32a.942.942 0 0 1-.163.678 2.917 2.917 0 0 1-.27.263c.063.091.123.185.175.285a.92.92 0 0 1 .017.695 2.84 2.84 0 0 1-.193.323c.084.072.165.148.244.229a.94.94 0 0 1 .194.67c-.025.12-.058.243-.099.359.1.049.199.102.295.162a.938.938 0 0 1 .362.593c.007.126.006.253-.004.377.111.02.218.047.325.077a.955.955 0 0 1 .505.482c.039.119.069.24.093.364a2.86 2.86 0 0 1 .334-.008.927.927 0 0 1 .61.333c.068.105.13.215.185.327.103-.038.213-.07.32-.096a.949.949 0 0 1 .678.165c.093.085.181.173.263.269.091-.062.186-.122.286-.174a.924.924 0 0 1 .695-.018c.11.058.221.121.322.192.073-.085.148-.166.229-.243a.941.941 0 0 1 .67-.195c.121.025.244.058.36.1.049-.1.102-.199.161-.295a.937.937 0 0 1 .593-.361c.126-.007.252-.005.377.004a3.59 3.59 0 0 1 .077-.326.953.953 0 0 1 .482-.504c.119-.039.24-.07.364-.093a2.87 2.87 0 0 1-.008-.334.931.931 0 0 1 .333-.611 2.87 2.87 0 0 1 .327-.187 3.073 3.073 0 0 1-.096-.318.951.951 0 0 1 .165-.679c.085-.093.173-.18.269-.262a3.157 3.157 0 0 1-.174-.283.934.934 0 0 1-.018-.697c.059-.112.122-.22.193-.324a2.616 2.616 0 0 1-.243-.229.946.946 0 0 1-.196-.668c.026-.122.061-.245.101-.362a3.108 3.108 0 0 1-.295-.159.944.944 0 0 1-.363-.595 3.143 3.143 0 0 1 .004-.376 3.65 3.65 0 0 1-.325-.077.95.95 0 0 1-.504-.482 2.773 2.773 0 0 1-.093-.364c-.112.009-.223.013-.334.009a.937.937 0 0 1-.61-.334 2.695 2.695 0 0 1-.187-.326 2.919 2.919 0 0 1-.319.094.946.946 0 0 1-.679-.163 2.906 2.906 0 0 1-.262-.27 2.952 2.952 0 0 1-.283.175.924.924 0 0 1-.697.017 2.833 2.833 0 0 1-.323-.192 3.28 3.28 0 0 1-.23.244.936.936 0 0 1-.668.195 2.765 2.765 0 0 1-.362-.1c-.048.1-.1.198-.159.294a.95.95 0 0 1-.594.361 2.772 2.772 0 0 1-.376-.004 3.517 3.517 0 0 1-.078.326ZM10.37 5.91c.024.425-.039.857-.193 1.259.105.032.21.06.319.081a.531.531 0 0 0 .466-.142c.071-.064.139-.133.2-.2a2.92 2.92 0 0 1-.792-.998ZM8.004 8.726c.109-.021.213-.052.319-.086a.535.535 0 0 0 .331-.357c.028-.092.053-.182.072-.277a2.914 2.914 0 0 1-1.185-.466c.236.357.396.762.463 1.186Zm.135-2.987a4.684 4.684 0 0 0-2.05-1.468c.029.227.066.458.114.692a3.85 3.85 0 0 0 1.358 2.3c.357.278.767.455 1.202.517a2.628 2.628 0 0 0-.624-2.041ZM3.783 3.77a7.31 7.31 0 0 0 .421 2.064c.88.08 1.718.333 2.508.87a4.215 4.215 0 0 1-.741-1.693 7.676 7.676 0 0 1-.126-.827c-.634-.209-1.326-.327-2.062-.414Zm3.513 6.101a2.57 2.57 0 0 0 .281-.164.537.537 0 0 0 .229-.432 2.428 2.428 0 0 0-.001-.283 2.965 2.965 0 0 1-1.267-.145c.32.283.581.633.758 1.024Zm-.648-2.923a4.717 4.717 0 0 0-2.359-.886c.086.214.182.427.29.643a3.85 3.85 0 0 0 1.907 1.867c.419.176.859.245 1.295.19a2.64 2.64 0 0 0-1.133-1.814Zm-4.716-.772c.227.679.534 1.301.942 1.887.87-.15 1.748-.124 2.651.191A4.192 4.192 0 0 1 4.367 6.81a7.518 7.518 0 0 1-.334-.77c-.67-.036-1.365.027-2.101.136Zm4.974 4.987c.078-.073.156-.151.229-.233a.537.537 0 0 0 .109-.476 3.607 3.607 0 0 0-.073-.276c-.403.156-.837.22-1.263.19.383.189.726.462.998.795ZM5.524 8.506a4.734 4.734 0 0 0-2.509-.246c.14.184.289.366.448.547a3.854 3.854 0 0 0 2.325 1.309c.448.063.891.011 1.302-.151a2.652 2.652 0 0 0-1.566-1.459ZM.765 8.98a7.408 7.408 0 0 0 1.4 1.58c.802-.374 1.656-.572 2.61-.5a4.22 4.22 0 0 1-1.489-1.095 7.841 7.841 0 0 1-.525-.658c-.657.136-1.311.376-1.996.673Zm6.095 3.53a2.66 2.66 0 0 0 .163-.285.53.53 0 0 0-.017-.488 3.06 3.06 0 0 0-.143-.244c-.347.25-.749.426-1.17.506.42.087.819.261 1.167.511Zm-2.022-2.206a4.684 4.684 0 0 0-2.483.409c.182.142.371.28.571.413a3.843 3.843 0 0 0 2.586.663 2.542 2.542 0 0 0 1.217-.484 2.645 2.645 0 0 0-1.891-1.001Zm-4.47 1.687a7.44 7.44 0 0 0 1.759 1.163c.678-.568 1.452-.982 2.388-1.159a4.218 4.218 0 0 1-1.718-.671 7.723 7.723 0 0 1-.677-.5c-.599.303-1.167.706-1.752 1.167Zm6.8 1.831c.031-.104.06-.21.081-.317a.543.543 0 0 0-.143-.468 2.855 2.855 0 0 0-.199-.198 2.95 2.95 0 0 1-.999.793c.425-.024.857.036 1.26.19Zm-2.525-1.609a4.696 4.696 0 0 0-2.294 1.04c.212.094.431.175.66.249a3.816 3.816 0 0 0 2.67-.028 2.557 2.557 0 0 0 1.049-.779 2.641 2.641 0 0 0-2.085-.482ZM.76 15c.644.323 1.3.546 2.004.67.511-.723 1.15-1.325 2.01-1.739a4.212 4.212 0 0 1-1.84-.203 8.443 8.443 0 0 1-.782-.306c-.501.444-.946.981-1.392 1.578Zm7.044.011c.007-.11.005-.218-.002-.328a.53.53 0 0 0-.258-.413 2.358 2.358 0 0 0-.247-.143 2.975 2.975 0 0 1-.763 1.028 3.028 3.028 0 0 1 1.27-.144Zm-2.856-.901a4.735 4.735 0 0 0-1.945 1.599c.23.035.464.057.701.07a3.848 3.848 0 0 0 2.57-.718 2.58 2.58 0 0 0 .814-1.028 2.662 2.662 0 0 0-2.14.077Zm-3.025 3.697a7.392 7.392 0 0 0 2.108.129c.303-.832.766-1.579 1.493-2.201a4.222 4.222 0 0 1-1.834.282 7.537 7.537 0 0 1-.832-.094c-.368.56-.66 1.194-.935 1.884Zm6.803-1.812a2.684 2.684 0 0 0-.086-.316.54.54 0 0 0-.357-.333 2.66 2.66 0 0 0-.276-.071c-.065.422-.227.83-.466 1.184a3.055 3.055 0 0 1 1.185-.464Zm-2.987-.132a4.679 4.679 0 0 0-1.468 2.048c.227-.027.459-.066.693-.114a3.837 3.837 0 0 0 2.3-1.358c.278-.358.455-.767.516-1.201a2.635 2.635 0 0 0-2.041.625ZM3.77 20.217a7.283 7.283 0 0 0 2.065-.421c.08-.879.333-1.718.87-2.507a4.197 4.197 0 0 1-1.692.741c-.274.057-.55.099-.829.125-.209.635-.327 1.326-.414 2.062Zm6.102-3.512a2.765 2.765 0 0 0-.165-.282.532.532 0 0 0-.431-.229 2.69 2.69 0 0 0-.284 0c.045.426-.005.863-.145 1.266a3.062 3.062 0 0 1 1.025-.755Zm-2.923.649a4.703 4.703 0 0 0-.886 2.356c.214-.084.427-.18.642-.289a3.84 3.84 0 0 0 1.867-1.906c.176-.418.245-.859.19-1.296-.73.102-1.38.505-1.813 1.135Zm-.772 4.714a7.287 7.287 0 0 0 1.886-.942c-.15-.869-.124-1.747.19-2.648-.387.484-.88.882-1.442 1.154a7.531 7.531 0 0 1-.77.336c-.036.669.026 1.363.136 2.1Zm4.986-4.972a2.664 2.664 0 0 0-.234-.229.532.532 0 0 0-.475-.112 3.96 3.96 0 0 0-.275.075c.155.401.22.835.189 1.264.19-.383.462-.727.795-.998Zm-2.657 1.381a4.731 4.731 0 0 0-.246 2.508c.184-.139.366-.288.547-.448a3.842 3.842 0 0 0 1.31-2.324 2.557 2.557 0 0 0-.152-1.302 2.646 2.646 0 0 0-1.459 1.566Zm.474 4.757a7.33 7.33 0 0 0 1.58-1.4c-.374-.801-.571-1.655-.5-2.611a4.205 4.205 0 0 1-1.095 1.491 8.05 8.05 0 0 1-.658.525c.136.655.377 1.311.673 1.995Zm3.53-6.095a2.568 2.568 0 0 0-.284-.162.533.533 0 0 0-.488.017 2.968 2.968 0 0 0-.245.144c.25.347.427.748.506 1.17.087-.421.261-.82.511-1.169Zm-2.205 2.022c-.099.929.072 1.73.409 2.484.141-.181.279-.372.412-.571a3.85 3.85 0 0 0 .663-2.587 2.526 2.526 0 0 0-.484-1.214 2.63 2.63 0 0 0-1 1.888Zm1.686 4.472a7.459 7.459 0 0 0 1.164-1.76c-.568-.679-.983-1.453-1.16-2.39a4.203 4.203 0 0 1-.671 1.721 8.02 8.02 0 0 1-.5.676c.303.598.706 1.167 1.167 1.753Zm1.832-6.801a3.428 3.428 0 0 0-.317-.082.539.539 0 0 0-.468.144c-.071.063-.138.13-.199.199.333.27.607.614.792.998a3.058 3.058 0 0 1 .192-1.259Zm-1.61 2.524a4.704 4.704 0 0 0 1.041 2.295c.093-.212.175-.432.249-.659a3.825 3.825 0 0 0-.028-2.671 2.513 2.513 0 0 0-.78-1.048 2.639 2.639 0 0 0-.482 2.083Zm2.788 3.884a7.242 7.242 0 0 0 .669-2.002c-.722-.512-1.323-1.148-1.738-2.009.069.617 0 1.248-.203 1.837-.09.265-.191.527-.306.782.444.501.981.946 1.578 1.392Zm.01-7.045a2.761 2.761 0 0 0-.328.003.532.532 0 0 0-.413.26 2.01 2.01 0 0 0-.142.246c.391.174.745.435 1.026.758a3.02 3.02 0 0 1-.143-1.267Zm-.901 2.857a4.745 4.745 0 0 0 1.6 1.946c.034-.23.056-.463.069-.702a3.839 3.839 0 0 0-.718-2.572 2.571 2.571 0 0 0-1.027-.812 2.657 2.657 0 0 0 .076 2.14Zm3.697 3.027a7.399 7.399 0 0 0 .129-2.109c-.831-.304-1.576-.766-2.199-1.49.226.579.326 1.206.281 1.828a7.833 7.833 0 0 1-.095.836c.559.368 1.194.659 1.884.935Zm-1.813-6.804a2.722 2.722 0 0 0-.315.086.536.536 0 0 0-.333.356 2.804 2.804 0 0 0-.072.276c.423.067.831.228 1.185.467a3.073 3.073 0 0 1-.465-1.185Zm-.132 2.988a4.711 4.711 0 0 0 2.049 1.467 8.49 8.49 0 0 0-.114-.694 3.838 3.838 0 0 0-1.358-2.299 2.537 2.537 0 0 0-1.201-.517 2.641 2.641 0 0 0 .624 2.043Zm4.355 1.967a7.29 7.29 0 0 0-.421-2.066c-.879-.078-1.719-.332-2.508-.868.367.5.625 1.079.742 1.692.057.274.099.551.125.828.635.209 1.326.327 2.062.414Zm-3.511-6.102a2.241 2.241 0 0 0-.283.165.534.534 0 0 0-.229.432 2.69 2.69 0 0 0 0 .284c.427-.046.865.005 1.269.146a3.072 3.072 0 0 1-.757-1.027Zm.648 2.923a4.705 4.705 0 0 0 2.356.887 7.251 7.251 0 0 0-.289-.642 3.844 3.844 0 0 0-1.907-1.868 2.532 2.532 0 0 0-1.295-.189c.102.73.505 1.381 1.135 1.812Zm4.714.773a7.3 7.3 0 0 0-.942-1.888c-.871.15-1.751.124-2.652-.191.487.388.885.882 1.158 1.445.126.249.238.506.336.768.669.04 1.363-.025 2.1-.134Zm-4.972-4.986c-.08.071-.158.151-.229.234a.533.533 0 0 0-.111.475c.021.092.047.185.075.274a2.93 2.93 0 0 1 1.261-.188 3.05 3.05 0 0 1-.996-.795Zm1.381 2.655a4.732 4.732 0 0 0 2.508.247 8.633 8.633 0 0 0-.448-.546 3.839 3.839 0 0 0-2.324-1.311 2.568 2.568 0 0 0-1.302.152 2.642 2.642 0 0 0 1.566 1.458Zm4.757-.473a7.326 7.326 0 0 0-1.399-1.58c-.801.373-1.654.571-2.61.5a4.21 4.21 0 0 1 1.489 1.096c.187.211.362.428.525.657.655-.137 1.311-.378 1.995-.673Zm-6.094-3.529a2.486 2.486 0 0 0-.163.284.528.528 0 0 0 .018.487c.045.086.091.167.143.246.347-.25.748-.427 1.17-.508a3.079 3.079 0 0 1-1.168-.509Zm2.021 2.205a4.701 4.701 0 0 0 2.485-.409 8.509 8.509 0 0 0-.571-.413 3.857 3.857 0 0 0-2.588-.663c-.447.054-.862.22-1.214.484a2.626 2.626 0 0 0 1.888 1.001Zm4.472-1.687a7.484 7.484 0 0 0-1.759-1.164c-.679.567-1.453.982-2.389 1.16a4.218 4.218 0 0 1 1.72.671c.233.154.458.321.676.5.597-.303 1.168-.706 1.752-1.167Zm-6.799-1.831c-.033.104-.06.209-.082.318a.535.535 0 0 0 .143.466c.063.07.13.139.199.199.27-.334.614-.606.999-.792a3.039 3.039 0 0 1-1.259-.191Zm2.523 1.609a4.685 4.685 0 0 0 2.295-1.04 7.305 7.305 0 0 0-.66-.249 3.816 3.816 0 0 0-2.67.028 2.504 2.504 0 0 0-1.048.78c.59.444 1.334.621 2.083.481Zm3.884-2.788a7.25 7.25 0 0 0-2.003-.67c-.512.725-1.149 1.324-2.011 1.74a4.215 4.215 0 0 1 1.84.202c.264.09.526.191.782.308.501-.444.945-.983 1.392-1.58Zm-7.046-.01c-.006.109-.006.217.002.328a.535.535 0 0 0 .261.414c.079.053.162.099.247.141.174-.392.436-.747.76-1.025-.406.135-.84.186-1.27.142Zm2.857.901a4.736 4.736 0 0 0 1.946-1.599 7.618 7.618 0 0 0-.702-.07 3.852 3.852 0 0 0-2.571.718 2.571 2.571 0 0 0-.812 1.027 2.65 2.65 0 0 0 2.139-.076Zm3.027-3.696a7.4 7.4 0 0 0-2.109-.13c-.304.832-.767 1.579-1.493 2.201a4.212 4.212 0 0 1 1.832-.281c.281.014.557.048.835.093.368-.559.659-1.194.935-1.883Zm-6.804 1.81c.022.109.051.213.086.318a.531.531 0 0 0 .356.331c.092.029.184.053.275.072.067-.421.228-.829.467-1.183a3.023 3.023 0 0 1-1.184.462Zm2.988.134a4.711 4.711 0 0 0 1.467-2.049c-.227.027-.46.065-.694.114a3.845 3.845 0 0 0-2.299 1.358 2.515 2.515 0 0 0-.517 1.201 2.635 2.635 0 0 0 2.043-.624Zm1.967-4.355a7.324 7.324 0 0 0-2.066.421c-.078.879-.331 1.717-.866 2.506a4.21 4.21 0 0 1 1.688-.739c.275-.057.553-.1.83-.126.209-.634.327-1.327.414-2.062Zm-6.102 3.513c.048.096.103.19.165.281.105.145.25.221.432.229.095.005.19.005.284-.001a2.921 2.921 0 0 1 .145-1.267 3.047 3.047 0 0 1-1.026.758Zm2.923-.647a4.722 4.722 0 0 0 .887-2.36 8.631 8.631 0 0 0-.642.289 3.856 3.856 0 0 0-1.868 1.907 2.537 2.537 0 0 0-.189 1.296 2.636 2.636 0 0 0 1.812-1.132Zm.773-4.716a7.312 7.312 0 0 0-1.888.941c.151.869.126 1.747-.189 2.649.388-.485.88-.883 1.442-1.156.25-.124.507-.238.769-.335.039-.669-.025-1.363-.134-2.099Zm-4.986 4.972c.072.079.152.157.235.228a.526.526 0 0 0 .474.111c.092-.02.185-.046.275-.073a2.937 2.937 0 0 1-.189-1.263 3.065 3.065 0 0 1-.795.997Zm2.655-1.381a4.726 4.726 0 0 0 .248-2.509 9.01 9.01 0 0 0-.547.448 3.85 3.85 0 0 0-1.31 2.325c-.063.448-.011.891.151 1.303a2.652 2.652 0 0 0 1.458-1.567ZM15.02.765a7.379 7.379 0 0 0-1.579 1.4c.373.802.57 1.656.499 2.611.25-.57.624-1.083 1.096-1.49.211-.187.429-.363.658-.525-.137-.657-.377-1.311-.674-1.996Zm-4.522 2.244a3.81 3.81 0 0 0 .028 2.67c.167.42.436.775.781 1.05.444-.59.62-1.336.48-2.085a4.683 4.683 0 0 0-1.041-2.294c-.093.211-.174.43-.248.659Zm1.277 4.014a.528.528 0 0 0 .487-.017c.085-.045.167-.092.246-.144A2.993 2.993 0 0 1 12 5.693c-.086.42-.259.819-.508 1.168.091.06.184.113.283.162Zm.902-4.226c.153-.235.32-.461.499-.677-.302-.599-.706-1.167-1.166-1.752a7.372 7.372 0 0 0-1.165 1.76c.567.678.982 1.452 1.16 2.389a4.195 4.195 0 0 1 .672-1.72Zm1.019 2.041a4.694 4.694 0 0 0-.409-2.483 9.28 9.28 0 0 0-.413.571 3.86 3.86 0 0 0-.663 2.586c.054.449.221.863.484 1.216a2.636 2.636 0 0 0 1.001-1.89Z"/></svg>