<svg aria-labelledby="simpleicons-medium-icon" role="img" viewBox="0 0 24 24" xmlns="http://www.w3.org/2000/svg"><title id="simpleicons-medium-icon">Medium icon</title><path d="M17.765 18.585l-.415.676 1.199.599 4.122 2.06c.226.115.441.166.628.166.418 0 .701-.266.701-.739V8.45l-6.235 10.135zM23.918 5.56c-.006-.005 0-.016-.005-.02l-7.249-3.623c-.09-.045-.185-.057-.28-.065-.023 0-.045-.016-.07-.016-.277 0-.553.138-.702.382l-.36.586-.752 1.223-2.84 4.627 2.84 4.621.752 1.223.751 1.219.887 1.428 7.076-11.479c.029-.045.015-.09-.029-.119l-.019.013zm-9.42 10.584l-3.726-6.059-.443-.717-.441-.717-.376-.625v7.312l4.987 2.498.752.376.751.376-.751-1.222-.753-1.222zM1.106 2.137l-.22-.109c-.127-.062-.249-.093-.36-.093-.31 0-.526.241-.526.642v15.267c0 .409.301.892.664 1.077l6.228 3.125c.16.089.313.118.451.118.386 0 .658-.301.658-.796V5.637c0-.029-.02-.06-.046-.07l-6.847-3.43h-.002z"/></svg>