<svg role="img" viewBox="0 0 24 24" xmlns="http://www.w3.org/2000/svg"><title>MediaTek icon</title><path d="M3.863 9c-.297 0-.665.21-.816.467L.064 14.54c-.15.257-.03.469.268.469h19.805c.297 0 .665-.212.816-.469l2.983-5.074c.15-.257.03-.467-.268-.467zm3.41 1.975h1.09l-.232.402h-.776c-.238 0-.312.092-.312.338v.806h1.37l-.233.403H6.502v-1.197c0-.589.307-.752.771-.752zm1.444 0h.937c.703 0 1.002.269 1.002.959 0 .73-.301.99-.976.99h-.963zm7.832 0h1.09l-.233.402h-.775c-.239 0-.313.092-.313.338h-.002v.806h1.371l-.232.403h-1.678v-1.197c0-.589.308-.752.772-.752zm-11.567.003v.989l.569-.987.65-.002v1.942h-.547v-1.192l-.672 1.192h-.546v-.002h-.004l.004-.008v-1.182l-.688 1.19h-.535l1.121-1.938zm5.98 0h.546v1.942h-.545zm1.798 0H13.54v1.942h-.553v-1.38l-.797 1.38h-.552zm1.256 0h1.714l-.232.405h-.504v1.537h-.533v-1.537h-.68zm3.873 0h.547v1.942h-.547zm1.345 0h.545l-.558.97-.002.003h.002l.558.969h-.545l-.56-.969h.004l-.004-.004zm-9.994.399v1.146h.297c.432 0 .567-.105.567-.587 0-.483-.135-.56-.567-.56zm-1.847.416h.87l-.185.318h-.86zm9.255 0h.872l-.186.318h-.86z"/></svg>