<svg role="img" viewBox="0 0 24 24" xmlns="http://www.w3.org/2000/svg"><title>MediaWiki</title><path d="M22.368 12.006c.546-.341 1.06-.767 1.568-1.246a8.123 8.123 0 0 0-1.793-.91c.463-.447.877-.97 1.274-1.544a8.133 8.133 0 0 0-1.94-.52c.359-.534.654-1.13.923-1.773a8.838 8.838 0 0 0-1.468-.132c-.182 0-.36.016-.54.03.24-.598.406-1.244.536-1.93a8.129 8.129 0 0 0-1.986.318c.112-.634.14-1.301.123-1.998a8.116 8.116 0 0 0-1.874.723c-.023-.644-.135-1.302-.296-1.98a8.107 8.107 0 0 0-1.684 1.097c-.157-.625-.403-1.245-.701-1.876a8.119 8.119 0 0 0-1.42 1.424C12.807 1.11 12.438.555 12.015 0a8.124 8.124 0 0 0-1.093 1.688C10.525 1.181 10.048.714 9.52.26a8.12 8.12 0 0 0-.717 1.877c-.494-.414-1.057-.77-1.67-1.105a8.115 8.115 0 0 0-.31 1.986c-.57-.303-1.195-.535-1.864-.735-.043.712-.01 1.37.11 2.007-.62-.177-1.28-.274-1.976-.33.105.707.276 1.346.526 1.946-.168-.012-.335-.028-.506-.028-.486 0-.984.043-1.497.11.25.667.548 1.255.916 1.789-.638.09-1.28.27-1.94.501a8.14 8.14 0 0 0 1.267 1.558c-.605.22-1.195.532-1.79.895.499.509 1.01.924 1.564 1.263-.546.341-1.06.767-1.568 1.246a8.124 8.124 0 0 0 1.793.91c-.464.447-.878.97-1.274 1.544a8.151 8.151 0 0 0 1.94.52c-.359.534-.654 1.131-.923 1.773.508.086.993.132 1.467.132.182 0 .362-.015.541-.03-.24.598-.406 1.244-.536 1.93a8.125 8.125 0 0 0 1.985-.318c-.111.634-.139 1.301-.122 1.999a8.12 8.12 0 0 0 1.874-.724c.023.644.135 1.302.296 1.98a8.117 8.117 0 0 0 1.684-1.097c.157.625.403 1.245.701 1.876a8.115 8.115 0 0 0 1.42-1.424c.283.579.652 1.134 1.075 1.689a8.123 8.123 0 0 0 1.092-1.688c.397.507.874.974 1.404 1.428.33-.632.566-1.247.717-1.877.494.414 1.057.77 1.67 1.106.19-.688.294-1.338.31-1.986.57.302 1.195.534 1.863.735.044-.713.01-1.371-.108-2.008.62.177 1.28.274 1.975.33a8.117 8.117 0 0 0-.526-1.946c.168.012.335.028.506.028.486 0 .984-.043 1.497-.11a8.12 8.12 0 0 0-.916-1.789c.638-.09 1.28-.27 1.94-.5a8.124 8.124 0 0 0-1.267-1.56c.605-.22 1.195-.531 1.79-.893a8.116 8.116 0 0 0-1.564-1.264zm1.161-1.21a8.655 8.655 0 0 1-1.402 1.062 6.235 6.235 0 0 0-.63-.306c-.544-.225-1.096-.357-1.658-.357-.296 0-.595.036-.898.115-.358.096-.68.277-.96.512-.08-.084-.166-.159-.241-.257a.36.36 0 0 1-.049-.292 2.25 2.25 0 0 1 .182-.357c.386.214.799.336 1.248.336.209 0 .426-.025.65-.075.867-.196 1.562-.6 2.167-1.134a7.39 7.39 0 0 1 1.591.753zm-1.659 1.21a4.653 4.653 0 0 1-2.14.554c-.616 0-1.138-.185-1.577-.558.249-.206.535-.365.851-.45.273-.071.554-.107.835-.107.5 0 1.012.11 1.562.338.16.066.315.143.47.223zm-4.35-2.288c.25.077.504.126.76.126.253 0 .51-.054.767-.133a3.56 3.56 0 0 0-.4.171 2.49 2.49 0 0 0-.838.707 2.969 2.969 0 0 1-.285-.208.36.36 0 0 1-.108-.276 2.25 2.25 0 0 1 .104-.387zm.105-.225c.143-.287.339-.547.592-.75.612-.49 1.359-.74 2.283-.765l.158-.002c.121 0 .242.01.364.018a4.554 4.554 0 0 1-1.697 1.358c-.349.16-.7.242-1.044.242-.218 0-.437-.038-.656-.101zm1.133.613c.476-.239.98-.355 1.542-.355.268 0 .555.028.85.082.172.032.34.075.51.122-.54.45-1.172.803-1.944.978-.203.046-.404.069-.595.069-.39 0-.752-.101-1.097-.286.2-.25.445-.463.734-.61zm4.269-1.68a8.772 8.772 0 0 1-1.148 1.33 6.226 6.226 0 0 0-.683-.168A4.923 4.923 0 0 0 20.3 9.5c-.424 0-.84.064-1.247.208.125-.039.25-.072.377-.13.809-.372 1.405-.912 1.886-1.563.547.06 1.106.192 1.711.41zM20.932 6.13c.352 0 .718.026 1.11.08a8.755 8.755 0 0 1-.849 1.545 6.226 6.226 0 0 0-.7-.028c-.896.024-1.724.252-2.432.819a2.49 2.49 0 0 0-.667.853c-.11-.043-.22-.074-.327-.132a.36.36 0 0 1-.163-.247 2.25 2.25 0 0 1 .02-.4c.081.007.163.02.243.02.557 0 1.09-.176 1.597-.554.713-.532 1.184-1.184 1.52-1.92.212-.021.426-.036.648-.036zm-3.95 2.245c.08-.31.217-.603.421-.855.498-.606 1.176-1.006 2.075-1.222.169-.04.34-.065.512-.09a4.553 4.553 0 0 1-1.375 1.678c-.455.338-.928.503-1.448.503-.06 0-.124-.01-.185-.014zM20.62 4.25a8.764 8.764 0 0 1-.509 1.684 6.237 6.237 0 0 0-.691.122c-.873.21-1.634.604-2.21 1.306a2.49 2.49 0 0 0-.478.988 2.984 2.984 0 0 1-.344-.075.36.36 0 0 1-.211-.209 2.248 2.248 0 0 1-.063-.4 2.594 2.594 0 0 0 1.689-.9c.586-.667.911-1.402 1.086-2.19a7.39 7.39 0 0 1 1.73-.326zm-4.5 3.165c.014-.318.087-.632.234-.92.36-.696.941-1.228 1.775-1.626a5.99 5.99 0 0 1 .483-.201 4.553 4.553 0 0 1-.997 1.933c-.416.473-.911.734-1.496.814zm2.7-4.788a8.78 8.78 0 0 1-.147 1.751c-.22.076-.437.163-.651.265-.81.386-1.473.931-1.89 1.737a2.49 2.49 0 0 0-.262 1.06c-.042.001-.08.011-.124.011a3.65 3.65 0 0 1-.228-.007.36.36 0 0 1-.25-.16 2.25 2.25 0 0 1-.141-.368c.613-.21 1.108-.61 1.462-1.242.434-.775.6-1.562.607-2.37a7.386 7.386 0 0 1 1.624-.677zM15.114 5.71c.207-.755.665-1.396 1.399-1.96.138-.106.284-.203.432-.298a4.556 4.556 0 0 1-.574 2.1c-.309.55-.734.92-1.293 1.118a2.238 2.238 0 0 1 .036-.96zm1.61-4.296c.124.57.212 1.155.22 1.742-.2.121-.395.251-.583.396-.712.546-1.248 1.217-1.488 2.092a2.49 2.49 0 0 0-.037 1.083c-.119.03-.232.068-.362.085a.362.362 0 0 1-.258-.105 2.251 2.251 0 0 1-.214-.33c.555-.333.956-.828 1.17-1.519.265-.848.263-1.652.102-2.443a7.375 7.375 0 0 1 1.45-1.001zM13.738 5.2c.046-.783.36-1.505.96-2.208.113-.132.235-.257.36-.38.12.693.11 1.416-.125 2.172-.188.605-.53 1.056-1.03 1.364-.12-.3-.182-.621-.165-.948zm.68-4.537c.24.533.448 1.087.577 1.66-.17.159-.333.327-.487.507-.582.682-.966 1.45-1.02 2.355-.019.37.053.733.19 1.07-.104.052-.202.11-.318.152a.364.364 0 0 1-.293-.045 2.246 2.246 0 0 1-.28-.279c.475-.44.764-1.008.83-1.728.082-.885-.087-1.67-.409-2.411a7.385 7.385 0 0 1 1.21-1.28zM12.644 5.88a2.236 2.236 0 0 1-.358-.893c-.118-.775.039-1.546.48-2.36.083-.152.176-.3.273-.446.261.653.402 1.362.33 2.151-.06.63-.3 1.142-.725 1.548zM12.008.408c.346.472.664.97.91 1.503a6.234 6.234 0 0 0-.37.598c-.429.788-.645 1.618-.508 2.516.057.365.203.705.408 1.007-.092.072-.175.15-.28.214a.366.366 0 0 1-.296.018 2.252 2.252 0 0 1-.33-.215c.371-.53.536-1.145.451-1.863-.104-.882-.432-1.616-.901-2.274.226-.502.522-.996.916-1.504zm-1.185 4.673c-.277-.734-.284-1.521-.021-2.408.05-.167.11-.33.173-.493.392.584.677 1.249.77 2.035.074.63-.055 1.18-.386 1.665a2.238 2.238 0 0 1-.536-.8zM9.598.66c.436.388.851.81 1.203 1.28-.091.215-.172.434-.239.661-.255.86-.294 1.718.027 2.567.132.346.345.648.608.9-.074.09-.14.183-.23.268a.366.366 0 0 1-.23.082c-.024 0-.049-.002-.055-.003a2.253 2.253 0 0 1-.368-.141c.253-.596.287-1.232.055-1.917-.285-.842-.76-1.49-1.354-2.037a7.387 7.387 0 0 1 .583-1.66zm-.71 2.465c.014-.173.04-.346.068-.519.505.49.922 1.081 1.176 1.831.203.6.191 1.166-.032 1.71a2.236 2.236 0 0 1-.69-.67c-.423-.661-.594-1.43-.521-2.352zM7.294 1.407c.508.29 1 .616 1.443 1.003-.044.229-.078.46-.096.697-.07.894.07 1.74.56 2.505.2.31.472.562.781.754-.054.103-.098.208-.168.31a.36.36 0 0 1-.263.136 2.25 2.25 0 0 1-.39-.062c.124-.635.025-1.264-.345-1.886-.453-.764-1.052-1.3-1.748-1.71a7.387 7.387 0 0 1 .226-1.747zM8.925 6.67a2.236 2.236 0 0 1-.815-.512c-.55-.558-.877-1.274-.998-2.191a5.974 5.974 0 0 1-.042-.522A4.555 4.555 0 0 1 8.6 4.992c.324.544.43 1.1.325 1.678zM5.193 2.617a8.768 8.768 0 0 1 1.62.681c.005.233.02.467.051.702.117.889.43 1.688 1.068 2.334.262.262.58.45.922.575-.031.112-.053.223-.1.337a.36.36 0 0 1-.23.189 2.25 2.25 0 0 1-.318.022c-.026 0-.05-.01-.075-.01-.012-.645-.241-1.236-.73-1.765-.603-.653-1.3-1.053-2.065-1.31a7.385 7.385 0 0 1-.143-1.755zm2.69 4.794a2.224 2.224 0 0 1-.903-.317c-.655-.43-1.123-1.064-1.432-1.935a5.975 5.975 0 0 1-.149-.502c.66.243 1.281.613 1.818 1.194.426.462.645.979.666 1.56zM3.39 4.237a8.774 8.774 0 0 1 1.726.33c.053.227.117.452.196.675.3.846.772 1.562 1.53 2.061.31.202.662.305 1.022.355-.007.121-.006.24-.03.367a.36.36 0 0 1-.184.232c-.124.046-.251.08-.38.103-.145-.632-.492-1.166-1.083-1.584-.726-.514-1.49-.763-2.294-.854a7.41 7.41 0 0 1-.503-1.685zm3.632 4.145c-.05.003-.098.013-.147.013a2.24 2.24 0 0 1-.806-.15c-.73-.285-1.32-.807-1.803-1.595-.09-.148-.171-.301-.25-.457.769.11 1.429.364 2.027.787.517.366.84.83.979 1.402zM1.965 6.197c.43-.047.8-.07 1.147-.07.215 0 .413.02.613.038.098.21.206.415.328.615.47.765 1.08 1.367 1.926 1.698a2.5 2.5 0 0 0 .897.167c.06 0 .12-.012.18-.016.016.115.041.226.045.349a.36.36 0 0 1-.133.265c-.112.07-.237.111-.358.16-.274-.578-.723-1.021-1.381-1.304a4.698 4.698 0 0 0-2.418-.354 7.383 7.383 0 0 1-.846-1.548zm4.416 3.305a2.247 2.247 0 0 1-.962.058c-.774-.127-1.459-.515-2.095-1.186a5.993 5.993 0 0 1-.338-.394c.12-.008.24-.018.356-.018.63 0 1.215.12 1.788.366.584.252.997.641 1.251 1.174zM.978 8.41a8.855 8.855 0 0 1 1.71-.404c.14.187.29.367.454.54.618.65 1.34 1.112 2.236 1.26a2.5 2.5 0 0 0 1.087-.068c.04.107.086.207.114.323a.36.36 0 0 1-.074.287 2.248 2.248 0 0 1-.307.248c-.389-.517-.923-.864-1.632-1.005a4.726 4.726 0 0 0-.928-.093c-.52 0-1.015.105-1.502.257A7.386 7.386 0 0 1 .978 8.411zm5.003 2.308a2.236 2.236 0 0 1-1.08.266c-.729 0-1.429-.238-2.142-.728a5.96 5.96 0 0 1-.4-.306 4.668 4.668 0 0 1 1.28-.202c.29 0 .585.03.878.088.621.124 1.105.417 1.464.882zm-5.508.06a8.832 8.832 0 0 1 1.592-.746c.175.153.358.297.553.43.693.477 1.443.772 2.282.772a2.488 2.488 0 0 0 1.211-.304c.063.099.13.19.184.3a.36.36 0 0 1-.013.297c-.074.11-.157.211-.248.306-.479-.417-1.06-.644-1.764-.644v.25c.616 0 1.138.185 1.577.558a2.236 2.236 0 0 1-.851.45 3.3 3.3 0 0 1-.835.107c-.5 0-1.012-.11-1.562-.338a5.993 5.993 0 0 1-.473-.225 4.557 4.557 0 0 1 2.105-.552l.039-.25h-.042c-.889.011-1.652.261-2.356.659a7.38 7.38 0 0 1-1.4-1.07zM.47 13.205a8.765 8.765 0 0 1 1.4-1.063c.204.113.413.216.632.307.544.225 1.095.357 1.658.357.296 0 .595-.036.898-.115a2.49 2.49 0 0 0 .96-.512c.08.084.166.16.241.257a.36.36 0 0 1 .049.292c-.05.125-.112.244-.182.357a2.535 2.535 0 0 0-1.248-.336c-.21 0-.426.025-.65.075-.867.196-1.562.6-2.167 1.135a7.384 7.384 0 0 1-1.591-.754zm5.504.08c-.199.25-.444.463-.733.61-.476.239-.98.355-1.542.355a4.7 4.7 0 0 1-.85-.082 5.949 5.949 0 0 1-.51-.122 4.556 4.556 0 0 1 1.944-.978c.203-.046.403-.069.595-.069.39 0 .752.101 1.096.286zm-5.002 2.29a8.77 8.77 0 0 1 1.148-1.33c.223.068.45.125.683.168.302.056.601.087.896.087.567 0 1.12-.114 1.654-.381.332-.17.612-.416.837-.707.096.064.192.129.285.208a.359.359 0 0 1 .108.276 2.25 2.25 0 0 1-.104.387 2.597 2.597 0 0 0-.76-.126c-.377 0-.76.086-1.15.265-.808.373-1.405.913-1.886 1.563a7.397 7.397 0 0 1-1.711-.41zm6.102-.195c-.08-.007-.162-.02-.242-.02-.502 0-.984.152-1.446.457.191-.101.376-.221.552-.363.287-.232.508-.526.667-.853.11.043.22.074.327.132a.36.36 0 0 1 .163.248c.005.134-.002.267-.02.399zm-.057.245c-.08.31-.217.603-.422.855-.497.606-1.175 1.006-2.074 1.222-.17.04-.34.065-.512.09.31-.628.742-1.205 1.375-1.678.455-.338.928-.503 1.448-.503.06 0 .123.01.185.014zm-1.235-.366c-.612.49-1.359.74-2.283.764l-.158.002c-.12 0-.242-.01-.363-.017a4.554 4.554 0 0 1 1.696-1.358c.349-.161.7-.243 1.044-.243.218 0 .437.038.655.101a2.236 2.236 0 0 1-.59.751zm-2.716 2.611c-.351 0-.717-.026-1.11-.08a8.75 8.75 0 0 1 .85-1.545 6.214 6.214 0 0 0 .7.028c.672-.018 1.305-.15 1.88-.455-.05.033-.102.06-.151.096-.713.532-1.184 1.184-1.52 1.92a6.445 6.445 0 0 1-.649.036zm.313 1.881a8.767 8.767 0 0 1 .509-1.684c.23-.028.461-.066.691-.122.872-.21 1.634-.604 2.21-1.306.235-.29.391-.63.478-.988.115.019.23.043.344.075a.36.36 0 0 1 .21.209c.034.132.055.266.064.4a2.594 2.594 0 0 0-1.689.9c-.586.668-.911 1.402-1.086 2.19a7.385 7.385 0 0 1-1.73.326zm4.5-3.165a2.237 2.237 0 0 1-.234.92c-.36.696-.941 1.228-1.775 1.626-.157.075-.32.14-.483.201a4.554 4.554 0 0 1 .997-1.933c.415-.473.911-.734 1.495-.814zm-2.7 4.788a8.77 8.77 0 0 1 .147-1.751c.22-.076.437-.163.651-.265.81-.386 1.473-.931 1.89-1.737.169-.331.25-.693.262-1.06.042-.001.08-.011.124-.011.081 0 .164.003.228.007a.36.36 0 0 1 .25.16c.058.12.105.242.141.368-.613.21-1.108.61-1.462 1.242-.434.775-.6 1.562-.607 2.37a7.384 7.384 0 0 1-1.624.677zm3.705-3.083c-.207.756-.664 1.397-1.398 1.96a5.96 5.96 0 0 1-.431.297 4.554 4.554 0 0 1 .574-2.099c.31-.552.738-.922 1.291-1.12.055.318.05.646-.036.962zm-1.608 4.296a8.769 8.769 0 0 1-.22-1.743c.2-.12.394-.25.582-.395.712-.546 1.248-1.217 1.488-2.092.096-.357.1-.727.037-1.086.112-.029.22-.065.342-.082l.02-.25h-.034c-.132.018-.25.057-.374.089a2.502 2.502 0 0 0-.162-.421.615.615 0 0 0-.435-.297c-.09-.007-.18-.01-.267-.01-.042 0-.079.01-.12.011a2.495 2.495 0 0 0-.069-.437.615.615 0 0 0-.364-.381 3.364 3.364 0 0 0-.378-.085c.02-.144.029-.29.023-.437a.615.615 0 0 0-.277-.448c-.118-.064-.238-.098-.358-.146.053-.141.093-.288.119-.439a.615.615 0 0 0-.178-.495 3.326 3.326 0 0 0-.312-.229c.078-.124.145-.255.2-.393a.615.615 0 0 0-.07-.522c-.082-.105-.175-.19-.264-.281.104-.107.2-.224.283-.35a.615.615 0 0 0 .04-.525c-.058-.12-.132-.222-.2-.33.124-.083.241-.178.35-.283a.615.615 0 0 0 .147-.506c-.033-.137-.086-.259-.134-.385.139-.056.281-.103.41-.183.148-.11.24-.28.249-.464-.004-.134-.03-.257-.049-.384.147-.025.293-.063.435-.115a.615.615 0 0 0 .34-.402c.025-.136.025-.265.033-.396.033 0 .063.013.096.013.118 0 .236-.008.354-.025a.615.615 0 0 0 .417-.322c.05-.124.076-.246.11-.37a2.5 2.5 0 0 0 .446.071.615.615 0 0 0 .474-.228c.076-.11.126-.225.186-.338a2.5 2.5 0 0 0 .42.162.614.614 0 0 0 .512-.126c.097-.092.17-.193.252-.292a2.5 2.5 0 0 0 .378.246.614.614 0 0 0 .526-.016c.114-.07.207-.154.308-.234.096.115.202.222.318.32a.615.615 0 0 0 .519.093c.126-.045.234-.108.349-.164.07.132.151.259.245.378a.615.615 0 0 0 .488.2c.132-.018.25-.057.374-.088a2.5 2.5 0 0 0 .161.42c.094.16.254.268.436.297.09.007.18.01.267.01.041 0 .079-.01.12-.011.01.147.032.293.069.437a.615.615 0 0 0 .364.381c.127.038.253.064.378.085-.02.144-.029.29-.023.437.02.184.122.348.277.448.118.064.238.098.357.146a2.498 2.498 0 0 0-.118.439.615.615 0 0 0 .177.495c.102.087.207.158.313.229a2.5 2.5 0 0 0-.2.393.615.615 0 0 0 .07.522c.082.106.175.19.264.281a2.499 2.499 0 0 0-.283.35.615.615 0 0 0-.04.525c.058.12.132.222.2.33a2.503 2.503 0 0 0-.35.283.615.615 0 0 0-.148.506c.034.138.087.26.135.386-.139.055-.281.102-.41.182a.615.615 0 0 0-.249.464c.004.134.03.257.049.384a2.493 2.493 0 0 0-.435.115.615.615 0 0 0-.34.402c-.026.136-.026.265-.034.397-.032-.002-.063-.014-.095-.014-.118 0-.236.008-.354.025a.615.615 0 0 0-.417.322c-.05.124-.076.246-.11.37a2.5 2.5 0 0 0-.446-.071.615.615 0 0 0-.474.229c-.076.11-.126.224-.186.337a2.497 2.497 0 0 0-.42-.162.618.618 0 0 0-.512.126c-.097.092-.17.193-.252.292a2.5 2.5 0 0 0-.378-.246.614.614 0 0 0-.527.016c-.113.07-.206.155-.307.234a2.494 2.494 0 0 0-.319-.32.615.615 0 0 0-.518-.093c-.126.045-.234.108-.348.164a2.493 2.493 0 0 0-.246-.378.615.615 0 0 0-.454-.2v.25c.102 0 .2.043.258.105.082.104.153.215.214.33-.555.333-.956.827-1.17 1.518-.265.85-.263 1.653-.102 2.444a7.383 7.383 0 0 1-1.449 1.001zm2.984-3.786c-.046.783-.36 1.505-.96 2.208a5.957 5.957 0 0 1-.36.38 4.555 4.555 0 0 1 .125-2.172c.188-.605.53-1.056 1.03-1.364.12.3.183.62.165.948zm-.68 4.537a8.768 8.768 0 0 1-.578-1.66c.171-.159.334-.326.488-.507.583-.682.967-1.45 1.02-2.355a2.49 2.49 0 0 0-.19-1.07c.105-.052.202-.11.318-.152a.364.364 0 0 1 .293.045c.102.085.195.178.28.279-.475.44-.764 1.008-.83 1.728-.082.885.087 1.67.409 2.411a7.379 7.379 0 0 1-1.21 1.28zm1.773-5.217c.18.268.308.57.359.893.118.775-.04 1.546-.48 2.36-.083.152-.176.3-.273.446a4.554 4.554 0 0 1-.33-2.151c.059-.63.3-1.142.724-1.548zm.638 5.472a8.77 8.77 0 0 1-.91-1.503 6.22 6.22 0 0 0 .37-.598c.428-.788.645-1.618.508-2.516a2.489 2.489 0 0 0-.408-1.007c.092-.072.175-.15.28-.214a.367.367 0 0 1 .296-.018c.117.062.227.135.33.215-.371.53-.536 1.145-.451 1.863.104.882.432 1.616.901 2.274a7.383 7.383 0 0 1-.916 1.504zm1.185-4.673c.277.734.284 1.521.021 2.408-.05.167-.11.33-.174.493a4.554 4.554 0 0 1-.769-2.035c-.074-.63.055-1.18.386-1.665.231.225.42.493.536.8zm1.225 4.42a8.767 8.767 0 0 1-1.203-1.28c.091-.215.172-.434.239-.661.255-.86.293-1.718-.027-2.567a2.488 2.488 0 0 0-.608-.9c.074-.09.14-.183.23-.269a.366.366 0 0 1 .23-.081c.024 0 .049.002.055.003.128.036.25.084.368.141-.254.596-.287 1.232-.055 1.917.285.842.76 1.49 1.354 2.037a7.379 7.379 0 0 1-.583 1.66zm.71-2.465a5.97 5.97 0 0 1-.068.519 4.555 4.555 0 0 1-1.176-1.831c-.203-.6-.191-1.166.032-1.71.273.173.512.396.69.67.423.661.594 1.43.521 2.352zm1.595 1.719a8.771 8.771 0 0 1-1.443-1.003 6.22 6.22 0 0 0 .096-.697c.07-.894-.07-1.74-.56-2.505a2.489 2.489 0 0 0-.781-.754c.054-.103.099-.208.168-.31a.363.363 0 0 1 .273-.135c.13.01.256.031.38.062-.124.635-.025 1.264.344 1.885.454.764 1.053 1.3 1.749 1.71a7.383 7.383 0 0 1-.226 1.747zm-1.632-5.263c.303.112.584.28.815.512.55.558.877 1.275.998 2.191.023.173.034.347.042.522a4.555 4.555 0 0 1-1.53-1.547c-.324-.544-.43-1.1-.325-1.678zm3.732 4.053a8.779 8.779 0 0 1-1.62-.681 6.222 6.222 0 0 0-.051-.702c-.117-.889-.43-1.688-1.068-2.334a2.49 2.49 0 0 0-.922-.575c.031-.112.053-.223.1-.337a.359.359 0 0 1 .23-.189 2.25 2.25 0 0 1 .318-.022c.026 0 .05.01.074.01.013.645.242 1.236.73 1.765.603.653 1.3 1.053 2.066 1.31a7.39 7.39 0 0 1 .143 1.755zm-2.69-4.794c.32.047.63.14.903.317.655.43 1.123 1.064 1.431 1.935.059.164.106.332.15.502a4.552 4.552 0 0 1-1.819-1.194c-.426-.462-.645-.979-.665-1.56zm4.492 3.174a8.765 8.765 0 0 1-1.726-.33 6.217 6.217 0 0 0-.196-.675c-.3-.846-.772-1.562-1.53-2.061-.31-.202-.662-.305-1.022-.355.006-.121.006-.24.029-.367a.36.36 0 0 1 .185-.232 2.25 2.25 0 0 1 .38-.103c.145.632.492 1.166 1.083 1.584.726.513 1.49.763 2.294.854.22.504.39 1.053.503 1.685zm-3.632-4.145c.05-.003.097-.013.146-.013.278 0 .55.05.807.15.73.286 1.32.808 1.803 1.595.09.148.17.301.249.457a4.512 4.512 0 0 1-2.026-.787c-.517-.366-.84-.831-.979-1.402zm5.058 2.185c-.43.047-.8.07-1.147.07-.215 0-.414-.02-.613-.038a6.23 6.23 0 0 0-.329-.615c-.469-.765-1.08-1.367-1.925-1.698a2.499 2.499 0 0 0-.898-.167c-.06 0-.119.012-.178.016-.017-.115-.042-.226-.046-.349a.36.36 0 0 1 .133-.265c.112-.07.236-.11.358-.16.274.578.723 1.021 1.38 1.304a4.7 4.7 0 0 0 2.419.354c.322.448.602.952.846 1.548zm-4.417-3.305a2.245 2.245 0 0 1 .963-.058c.774.127 1.459.515 2.095 1.186.12.125.23.258.338.394-.12.008-.24.018-.355.018-.631 0-1.216-.12-1.79-.366-.583-.251-.996-.641-1.25-1.174zm5.404 1.092a8.854 8.854 0 0 1-1.71.403 6.238 6.238 0 0 0-.454-.54c-.618-.65-1.34-1.112-2.236-1.26a2.504 2.504 0 0 0-1.087.068c-.04-.107-.086-.207-.115-.324a.36.36 0 0 1 .075-.286c.095-.093.198-.175.307-.248.389.517.922.864 1.632 1.005.318.064.627.093.928.093.52 0 1.015-.105 1.502-.257.412.372.793.81 1.158 1.346zm-5.003-2.309a2.236 2.236 0 0 1 1.08-.266c.729 0 1.429.238 2.142.728.138.095.27.199.4.306a4.669 4.669 0 0 1-1.28.202c-.29 0-.585-.03-.878-.088-.621-.124-1.105-.417-1.464-.882zm3.363.255c-.694-.476-1.443-.771-2.282-.771a2.489 2.489 0 0 0-1.211.304c-.063-.099-.13-.19-.184-.3a.359.359 0 0 1 .013-.297c.074-.11.157-.211.248-.305.479.417 1.06.643 1.764.643h.042c.889-.011 1.652-.261 2.355-.658.477.277.936.623 1.4 1.068a8.834 8.834 0 0 1-1.592.746 6.23 6.23 0 0 0-.553-.43z"/></svg>