<svg role="img" viewBox="0 0 24 24" xmlns="http://www.w3.org/2000/svg"><title>Meetup icon</title><path d="M6.9802.5545a.518.518 0 00-.1055.0117c-.2873.062-.4704.3437-.4082.6309.0619.2868.344.47.6309.4082a.5327.5327 0 00.4081-.6328c-.0542-.251-.2781-.4206-.5253-.418zm6.4547.6387a.9836.9836 0 00-.5135.1425c-.4698.2818-.6237.8898-.3418 1.3593.2822.4696.8918.6216 1.3612.34.4698-.2822.6217-.8901.34-1.3594a.9919.9919 0 00-.8459-.4824zm-3.029 2.2362c-.9744.0047-1.9565.292-2.8204.8887-.8744.604-1.4964 1.436-1.8475 2.3592-.5085.069-1.0096.239-1.461.5508-1.4917 1.0307-1.8859 3.039-.9393 4.5623-1.2846 1.1762-1.5815 3.1355-.6055 4.6484.579.897 1.4882 1.437 2.4648 1.5975.018.732.238 1.466.6855 2.1132 1.224 1.7709 3.6525 2.2157 5.4236.9922.0677-.047.1198-.1061.1836-.1563.9872.8809 2.4707 1.0255 3.6074.2403.6065-.4189.9928-1.0292 1.162-1.6913.8894.0326 1.7955-.1935 2.5838-.7383 1.8916-1.3067 2.3995-3.8614 1.1895-5.7888.9713-.819 1.1798-2.2513.4336-3.3086-.3327-.4718-.8028-.7806-1.3164-.9336.0752-.984-.1704-1.9978-.7753-2.8729-1.1792-1.7057-3.3326-2.3314-5.1952-1.6562a5.1056 5.1056 0 00-2.7734-.8066zm-5.6035.8164a.7589.7589 0 00-.4237.1348c-.3447.2383-.4317.7097-.1934 1.0546.2384.3446.7115.4316 1.0566.1933a.7574.7574 0 00.1933-1.0546.758.758 0 00-.6328-.3281zm15.9938 2.3708a.8419.8419 0 00-.4707.1505.8453.8453 0 101.1758.2148.8452.8452 0 00-.7051-.3652zM12.646 7.644c.0629.0004.1244.0053.1816.0137.2285.0336.3654.119.4511.1875.1682.1342.2726.2412.4316.3926.2394.2274.4132.089.5332.0195.208-.121.3692-.2181.9844-.207.6331.011 1.3625.2366 1.5136 1.3163.1682 1.1994-1.9655 4.289-1.8163 5.7224.1054 1.0103 1.8145.2987 1.959 1.2207.1871 1.197-2.1353.752-2.666.4922-.832-.4077-1.337-1.3399-1.121-2.2597.1611-.6881 1.6999-3.4977 1.7577-3.9295.0587-.4404-.1773-.477-.3242-.4844-.1895-.0098-.3394.0808-.5254.3613-.1692.2558-2.082 4.0854-2.2479 4.3983-.2969.5594-.6698.6938-1.045.6738-.5471-.0285-.7977-.3206-.7187-.8477.0467-.31 1.2593-3.049 1.3222-3.4764.0387-.2642-.0132-.5451-.2754-.6796-.2625-.1346-.5713.0704-.664.2266-.128.2154-1.848 4.7063-2.0312 5.0388-.3168.576-.6508.7594-1.1522.7832-1.1862.0562-2.0656-.919-1.6778-2.1152.173-.5327 1.3159-4.5714 1.8945-5.5994.3887-.691 1.4679-1.2164 2.2167-.8924.3878.1679.9251.4376 1.084.5077.366.1622.7593-.2775.9139-.412.1549-.1345.3017-.2765.4902-.3574.1412-.0605.3426-.0947.5313-.0938zm10.8804 2.0566a.4683.4683 0 00-.0937.0117.467.467 0 00-.3594.5547.4696.4696 0 00.5567.3594c.2523-.0546.414-.3044.3593-.5567a.4696.4696 0 00-.463-.3691zm-22.5187.8105a.9972.9972 0 00-.832.4336c-.3123.4552-.1977 1.0783.2578 1.3905.4555.3123 1.0783.1956 1.3905-.2597.3123-.4553.1977-1.0764-.2577-1.3886a.9992.9992 0 00-.5586-.1758zm21.2942 2.0937a.635.635 0 00-.127.0136.6268.6268 0 00-.4805.746.6278.6278 0 00.7461.4826c.3393-.0733.5558-.407.4824-.7461a.6295.6295 0 00-.621-.4961zM4.0622 18.7022a.453.453 0 00-.0918.0117c-.2507.0543-.4117.3018-.3574.5528.054.251.302.4096.5527.3554a.4644.4644 0 00.3555-.5527.4655.4655 0 00-.459-.3672zm13.6753 1.5507a1.0444 1.0444 0 00-.584.1856c-.4758.3287-.5945.9813-.2656 1.457.3288.4756.9809.5943 1.457.2656.4757-.3287.5944-.9814.2656-1.457a1.0444 1.0444 0 00-.873-.4512zm-6.3378 1.9004a.6427.6427 0 00-.3593.1152.6456.6456 0 00-.164.8984.6457.6457 0 00.8984.164.6456.6456 0 00.164-.8983.646.646 0 00-.539-.2793z"/></svg>