<svg role="img" xmlns="http://www.w3.org/2000/svg" viewBox="0 0 24 24"><title>Meetup icon</title><path d="M6.9941.5664c-.3073-.0012-.5449.2332-.5449.539 0 .304.2398.5407.5469.5391.298-.0015.5312-.2392.5312-.541 0-.3046-.2292-.5355-.5332-.537zm6.4473.6348c-.5583-.0031-1.0125.4427-1.0156.996-.0034.5528.4503 1.0073 1.0058 1.0079a.9939.9939 0 00.998-.9961c.0014-.5564-.4386-1.005-.9882-1.0078zM10.5156 3.418a4.9199 4.9199 0 00-.9101.084C7.853 3.827 6.59 4.8113 5.8379 6.4316c-.0775.1672-.1693.236-.3457.2735-1.5248.3222-2.6212 1.6238-2.6817 3.1992-.0242.6312.1247 1.2278.4395 1.7773.045.0792.0406.1261-.0254.1934-.8188.8387-1.177 1.8457-1.0488 3.0098.1123 1.017.5941 1.839 1.3984 2.4687.437.3421.9327.5655 1.4785.6719.0984.0192.1368.0592.1387.1621.0019.1238.0235.2483.043.371.2838 1.7771 1.8005 3.155 3.6035 3.2638.924.0558 1.7707-.183 2.5254-.7227.0937-.067.1484-.0668.2383.004.6452.507 1.3803.7253 2.1914.6093 1.226-.1756 2.0386-.8713 2.4453-2.039.0278-.0805.0626-.1163.1504-.1153.2603.0025.5189-.0224.7754-.0664 2.0372-.3524 3.535-2.1462 3.5332-4.2266.0008-.7717-.1993-1.488-.586-2.1543-.0359-.062-.0497-.1.0137-.162.7317-.714.9752-1.5717.6855-2.5509-.2325-.7872-.764-1.32-1.5351-1.6054-.0822-.0304-.1081-.0675-.1016-.1543.0174-.2296.0036-.4592-.0234-.6875-.1234-1.0443-.54-1.9603-1.3008-2.6836-1.2866-1.2234-2.8014-1.5841-4.5117-1.088-.098.0286-.1751.0242-.2656-.0292-.8077-.475-1.6609-.7303-2.5567-.7324zm-5.6972.836c-.4387.0008-.7674.3274-.7676.7616 0 .4309.3356.769.7637.7696.4335.0006.769-.3403.7675-.7774-.0015-.424-.3371-.7552-.7636-.7539zm15.9902 2.3593c-.4702-.0034-.8703.394-.8672.8633.0033.468.3846.843.8555.8437.485.001.868-.3784.8652-.8555-.0025-.4587-.3929-.8484-.8535-.8515zm-8.1621 1.0469c.2784.01.553.1239.789.3418.1.092.1968.1857.2989.2753.1336.118.2816.1422.4355.041.4628-.3051.9707-.2944 1.4824-.1992.559.1043.8834.467 1.0254 1.0079.0934.3563.0441.7022-.0586 1.0468-.1864.6275-.4626 1.2187-.7265 1.8145-.2734.617-.558 1.229-.7696 1.871-.1156.3508-.2177.7062-.2128 1.0821.0055.425.1813.6468.6015.7305.2546.0504.5117.089.7676.1347.0856.0149.1674.0427.248.0762.232.0966.3417.277.3516.5195.01.241-.0932.4218-.3125.5313-.2789.139-.581.1595-.8828.1465-.4228-.0186-.8384-.0815-1.2422-.2149-.8058-.2658-1.3744-1.0484-1.375-1.9336-.0211-.383.1571-.749.3281-1.1132.4058-.8632.821-1.7208 1.2305-2.582.0708-.15.1295-.3042.1934-.4571.0304-.0735.0533-.1514.0566-.2305.0061-.147-.0048-.2954-.1504-.377-.1492-.0837-.3056-.0764-.4512.0157-.1612.1024-.2613.2572-.3476.4219-.2323.4442-.464.889-.6914 1.336-.4923.9673-.982 1.9369-1.4746 2.9042-.1434.2817-.3293.5258-.6407.6387-.2676.0971-.5348.0782-.793-.0332-.253-.1091-.3766-.382-.3261-.6914.0295-.1802.1032-.3478.17-.5157.33-.83.6636-1.6576.9921-2.4882.0775-.1958.161-.3924.1777-.6055.0152-.1994-.0267-.3853-.1816-.5254-.2537-.2295-.6812-.1117-.83.2344-.1475.3427-.281.6906-.42 1.037-.505 1.2593-.982 2.53-1.5117 3.7794-.1594.3766-.3882.7106-.8047.836-.514.1544-1.0114.0839-1.4648-.2052-.5813-.3707-.8232-1.046-.6172-1.7324.46-1.5337.9035-3.0732 1.4492-4.58.1182-.326.2438-.6512.3965-.963.344-.7044 1.1596-1.166 1.9394-1.0996.2466.0208.4587.1414.6778.2403.2162.098.4332.1969.6425.3086.2198.1172.4187.0817.6172-.043.2221-.1396.3952-.3374.5996-.498.2534-.199.5361-.2933.8145-.2832zm10.877 2.0312c-.2506-.0028-.4774.2225-.4805.4766-.0034.2627.2156.4798.4824.4804.2649.001.4727-.2046.4746-.4707a.48.48 0 00-.4766-.4863zM1.0116 10.5c-.5646-.0015-1.012.4482-1.0117 1.0137.0005.5595.4468 1.0105 1.002 1.0117.5555.0012 1.0236-.4631 1.0214-1.0137-.0025-.5514-.4608-1.0101-1.0117-1.0117zm21.2969 2.0879c-.3487-.0025-.6512.3-.6484.6484.003.3443.2887.6282.6367.629.3648.0006.6397-.2685.6406-.629.001-.3567-.2787-.646-.629-.6484zM4.0742 18.6797c-.2618-.0023-.4784.2164-.4765.4844.0021.2618.2158.4686.4804.4668.2597-.0016.4718-.2148.4727-.4766.0012-.2544-.2182-.4722-.4766-.4746zm13.6797 1.5488c-.5903-.0021-1.0677.4707-1.0703 1.0567-.0025.5728.4846 1.0598 1.0605 1.0605.5841.0006 1.0636-.4808 1.0645-1.0664.001-.5713-.4786-1.0492-1.0547-1.0508zm-6.3398 1.9004c-.3726-.0011-.665.2887-.6641.6563.001.3625.2922.6484.6582.6484.3657.0003.657-.2856.6602-.6484.0037-.3589-.2914-.655-.6543-.6563Z"/></svg>
