<svg aria-labelledby="simpleicons-meetup-icon" role="img" xmlns="http://www.w3.org/2000/svg" viewBox="0 0 24 24"><title id="simpleicons-meetup-icon">Meetup icon</title><path d="M21.6 13c-.1.1-.2 0-.2-.2 0 0 .2-1.2.6-1.4.1-.1.2-.1.3 0 .2.2.1.4 0 .7-.1.4-.5.8-.7.9m-9.9-1c0 .2-.1.4-.2.4l-.1.1s-.2-.4-.3-.7c0-.1 0-.3.1-.4.1 0 .2 0 .3.1.2.2.2.3.2.5M9 11.9c0 .2-.1.3-.2.5-.1.1-.1 0-.2 0-.1-.1-.3-.8-.1-.9.1 0 .2-.1.3 0 .1 0 .1.1.2.2v.2m14.5 1.3c-.1-.3-.4-.1-.6-.1-.2.1-.5.2-.7.1-.1 0 0-.1 0-.1s.6-.4.8-1.1c.3-1.2-.6-1.6-.9-1.6-.4 0-.7 0-.9.1-.5.2-.6.6-.6.9 0 .3 0 .9-.1 1.2 0 .2-.2.5-.4.4-.5 0-.7-.2-.7-.6 0-.2 0-.3.1-.8.1-.4.1-.5.1-.6 0-.3-.4-.3-.5-.2-.1.1-.1.3-.1.6s-.1.7-.1 1c-.1.4-.1.4-.2.5-.2.2-.5.2-.7 0-.1-.1-.1-.2-.1-.4 0-.3.1-.7.1-1.2.1-.4 0-.5-.1-.6-.1-.1-.6-.1-.8-.1-.3 0-.3.2-.3.7v.9c0 .5-.9.8-1.3.8s-.5-.8-.5-1v-1.8s.3-.1.6-.1c.3-.1.4-.2.4-.4 0-.1 0-.2-.1-.3-.1 0-.2 0-.4-.1-.6-.1-.7-.1-.7-.1v-.5c0-.3-.3-.3-.7-.3-.1 0-.2 0-.2.1v.3c0 .3 0 .4-.2.4-.1 0-1.1-.1-1.3 0-.2.1-.2.2-.2.3v.6c0 .2.1.4.1.4s.1.1.3.1c.7-.1 1.1-.2 1.2-.2h.1v1.1c0 .4.1 1.6-1 1.8-.5.1-.9-.1-1.1-.3-.1-.1-.1-.1 0-.2s.7-.9.2-1.6c-.3-.5-1.1-.5-1.3-.4-.2.1-.4.4-.4.7-.1 1.1.5 1.7.5 1.8 0 0-.1.2-.4.3-.5.1-1.3-.5-1.2-.6 0 0 .3-.6.4-1.1 0-.2-.1-.4-.2-.7-.1-.2-.5-.6-.9-.5-1 .2-.9 1.2-.8 1.4.1.6.5 1 .5 1.1.1.1-2.1 1-2.2.2-.1-.8 1.1-2.5 1-3.2-.2-.6-.6-.7-1-.8-.3 0-.4 0-.6.1-.1 0-.2.1-.3 0l-.2-.2s-.1-.1-.3-.1h-.4c0 .1-.1.2-.2.3-.1 0-.3.3-.5.2-.1 0-.4-.2-.6-.3-.4-.2-1 .1-1.2.5-.3.6-1 2.8-1.1 3.1-.2.7.3 1.2.9 1.2.3 0 .5-.1.6-.4.1-.2 1.1-2.7 1.1-2.8.1-.1.2-.2.4-.1.1.1.2.2.2.4s-.7 1.8-.7 2c0 .3.1.5.4.5.2 0 .4-.1.6-.4.1-.2 1.2-2.3 1.3-2.5.1-.2.2-.2.3-.2.1 0 .2 0 .2.3 0 .2-.9 1.8-1 2.2-.1.6.2 1.4 1.2 1.4.5 0 1.7-.2 2.3-.7.2-.2.2-.2.3-.1.2.2.6.5 1 .5.9 0 1.5-.6 1.6-.6.1.1.6.4 1 .4.9 0 1.5-.5 1.7-.7.2-.2.3-.3.3-.4h.1c.1.1.5.8 1.3.7.5-.1 1.1-.4 1.2-.5 0 .1.1.4.5.7.3.2 1 .3 1.3.1.2-.1.3-.2.5-.4.1-.1.2-.1.4-.1s.8.2.9.2v.2c0 .1-.1.6-.1 1s-.2 1.8.2 1.9c.2 0 .4-.2.5-.4.1-.5.2-1.1.2-1.6.1-.6.1-.8.2-.8 0-.1 0 0 .4 0 .3 0 .5.1.9 0 .1-.2.7-.4.7-.8"/></svg>
