<svg role="img" xmlns="http://www.w3.org/2000/svg" viewBox="0 0 24 24"><title>Meetup icon</title><path d="M6.99414.5664c-.30738-.00123-.54492.2332-.54492.53907 0 .30395.23976.54062.54687.53906.29806-.00155.53125-.2392.53125-.54101.00005-.3046-.22924-.53556-.5332-.53711zm6.44727.63477c-.55831-.0031-1.01248.44277-1.01563.9961-.00338.55273.45034 1.00721 1.00586 1.0078.55333.00033.99704-.4424.99805-.99609.00132-.55638-.43866-1.00502-.98828-1.0078zm-2.92578 2.2168c-.29861-.0007-.60263.0269-.91016.08398-1.75237.32503-3.01549 1.30935-3.76758 2.9297-.07753.16717-.1693.23594-.3457.27343-1.5248.32224-2.6212 1.62386-2.68164 3.19922-.02423.63122.12466 1.22776.43945 1.77734.04503.07913.04062.12607-.0254.19336-.81883.83872-1.17691 1.8457-1.04882 3.00977.11232 1.01705.59414 1.83903 1.39844 2.46875.43703.34208.93264.56545 1.47851.67187.09834.01925.1368.05916.13868.16211.00187.1238.02344.24826.04296.3711.2838 1.777 1.8005 3.15482 3.60352 3.26367.92398.05581 1.77074-.18291 2.5254-.72266.0937-.06697.1484-.06677.23827.0039.64522.50711 1.3803.7254 2.1914.60938 1.22611-.17554 2.0386-.87134 2.44532-2.03906.02784-.08041.06262-.1162.1504-.11524.26029.00247.51888-.02238.77538-.0664 2.03722-.35237 3.53508-2.1462 3.5332-4.22657.00087-.7717-.19923-1.4881-.58593-2.1543-.03593-.06194-.04973-.10011.01367-.1621.7317-.71397.97524-1.57158.68555-2.55078-.2326-.7872-.76414-1.32008-1.53516-1.60547-.0822-.0304-.1081-.06749-.10156-.1543.01737-.22953.00358-.4592-.02344-.6875-.12343-1.0443-.53991-1.9603-1.30078-2.6836-1.28658-1.22335-2.8014-1.58411-4.51172-1.08788-.09797.02852-.17511.0241-.26562-.0293-.80764-.47503-1.66083-.7303-2.55664-.73242zm-5.69727.83594c-.43863.00086-.76735.32747-.76758.76171 0 .43086.33565.7689.76367.76954.43356.0006.76914-.34027.76758-.77735-.00155-.42395-.33716-.75518-.76367-.7539zm15.99023 2.35937c-.47021-.00338-.87034.39402-.86718.86328.00333.46807.3846.84311.85546.84375.48508.00096.86798-.3784.86524-.85547-.00247-.45879-.3929-.84845-.85352-.85156zm-8.1621 1.04688c.27837.01007.55303.1239.78906.3418.09988.0921.1968.18574.29883.27538.13357.1179.28167.14214.43554.04102.46277-.30519.9707-.29444 1.48242-.19922.55895.10427.88331.46688 1.0254 1.00781.09334.3564.04407.70228-.0586 1.04688-.18642.62752-.46265 1.21866-.72656 1.81445-.27337.61696-.55797 1.22904-.76953 1.8711-.11566.35076-.21778.70612-.2129 1.08203.00558.42496.18132.64676.60157.73047.25463.05046.51167.0891.76758.13476.08562.01486.1674.04266.24804.07617.232.09655.34165.27697.35157.51953.00992.24096-.09321.42177-.3125.53125-.2789.13902-.58096.15952-.88282.14649-.4228-.0186-.83834-.0815-1.24218-.21485-.80581-.26582-1.37436-1.04842-1.375-1.93359-.02112-.38304.1571-.74898.32812-1.11328.40576-.86318.82105-1.72073 1.23047-2.58203.07077-.14985.12954-.30416.19336-.45703.0304-.07351.0533-.15143.05664-.23047.00613-.14702-.0048-.2954-.1504-.37696-.1492-.08379-.3056-.07648-.45116.01563-.16124.10235-.26135.25721-.34766.42188-.23227.44425-.46402.88903-.6914 1.33593-.49226.96736-.98204 1.93698-1.47461 2.9043-.14336.2817-.32922.5258-.64063.63867-.26761.09714-.53482.0782-.79297-.0332-.25303-.10912-.37668-.38206-.32617-.6914.02948-.18017.10323-.34777.16992-.51563.33001-.83.66364-1.65766.99219-2.48828.07753-.19575.16105-.39235.17773-.60547.01518-.1994-.02676-.38528-.18164-.5254-.25371-.22953-.68123-.11172-.83008.23438-.14742.34277-.28095.6906-.41992 1.03711-.50496 1.25925-.98198 2.52997-1.51172 3.7793-.1594.3766-.38823.71059-.80468.83593-.51406.15447-1.01136.08393-1.46485-.20507-.58125-.37075-.82317-1.04598-.61718-1.73242.45997-1.53377.90357-3.07325 1.44921-4.58008.11818-.32595.24385-.65117.39649-.9629.344-.7044 1.15966-1.16598 1.93945-1.0996.24654.0208.45872.1413.67774.24023.21623.09801.4332.19691.64257.3086.2198.1172.4187.08169.6172-.04297.22212-.13957.39512-.33741.5996-.49805.2534-.199.53608-.29328.81445-.2832zM23.52343 9.6914c-.25056-.00284-.47732.22252-.48047.47656-.00338.26272.21568.47983.48242.48047.26491.00096.47274-.2046.47461-.4707.00251-.26766-.20922-.48295-.47656-.48633zM1.01172 10.5C.44715 10.4985-.00032 10.94823 0 11.51367c.00046.5595.44675 1.01049 1.00195 1.01172.55552.00123 1.02368-.46313 1.02149-1.01367-.00252-.55145-.46086-1.01017-1.01172-1.01172zm21.29687 2.0879c-.34866-.00252-.65122.30009-.64843.64843.00301.34423.28874.62822.63671.6289.3648.00069.63976-.2684.64063-.6289.001-.35676-.27873-.64597-.6289-.64844zM4.07422 18.67968c-.26185-.00224-.47844.2164-.47656.48437.00214.2618.21582.46863.48047.4668.25965-.0016.47178-.2148.47265-.47656.00119-.25436-.21823-.47219-.47656-.47461zm13.67969 1.54883c-.59027-.00215-1.06776.47067-1.07032 1.05664-.00246.5728.4846 1.05981 1.06055 1.06054.5841.0006 1.06354-.48076 1.06445-1.0664.00096-.57134-.47864-1.04923-1.05468-1.05078zm-6.33985 1.90039c-.37252-.00115-.66502.2887-.66406.65625.00096.36256.29221.64843.6582.64843.36567.00032.657-.28555.66016-.64843.0037-.35886-.29137-.65497-.6543-.65625Z"/></svg>
