<svg role="img" viewBox="0 0 24 24" xmlns="http://www.w3.org/2000/svg"><title>MEGA icon</title><path d="M12 0A12 12 0 0 0 0 12a12 12 0 0 0 12 12 12 12 0 0 0 12-12A12 12 0 0 0 12 0zm4.611 7.498h1.03a.36.36 0 0 1 .359.361v8.282a.36.36 0 0 1-.36.359h-1.507a.36.36 0 0 1-.36-.36v-4.706a.044.044 0 0 0-.02-.038.044.044 0 0 0-.056.004l-3.199 3.24a.704.704 0 0 1-1.006 0L8.3 11.4a.044.044 0 0 0-.076.032v4.709a.36.36 0 0 1-.36.359H6.36a.36.36 0 0 1-.36-.36V7.86a.36.36 0 0 1 .36-.36h1.036a.707.707 0 0 1 .501.211l3.985 4.025a.176.176 0 0 0 .252 0l3.976-4.025a.707.707 0 0 1 .502-.213z"/></svg>
