<svg role="img" viewBox="0 0 24 24" xmlns="http://www.w3.org/2000/svg"><title>Meizu</title><path d="M12 14.25h.747v-4.5H12v4.5Zm11.253-4.5v3.37a.372.372 0 0 1-.373.374h-2.25a.372.372 0 0 1-.374-.374V9.75h-.747v3.557a.93.93 0 0 0 .934.933h2.624a.93.93 0 0 0 .933-.933V9.749h-.747Zm-18.192 0H.933a.93.93 0 0 0-.933.933v3.557h.747v-3.37c0-.208.166-.374.373-.374h1.504v3.755h.747v-3.755h1.504c.207 0 .373.166.373.373v3.371h.747v-3.557a.93.93 0 0 0-.934-.934m2.064.944v2.624a.93.93 0 0 0 .934.934h2.81v-.747H8.245a.372.372 0 0 1-.373-.373v-.747h2.998v-.747H7.872v-.747c0-.207.166-.373.373-.373h2.624V9.77H8.06a.93.93 0 0 0-.934.934m11.254-.384a.558.558 0 0 0-.56-.56h-3.942v.746h3.381l-3.194 2.77a.557.557 0 0 0 .373.975h3.942v-.747h-3.382l3.164-2.749a.55.55 0 0 0 .218-.446"/></svg>