<svg xml:space="preserve" role="img" viewBox="0 0 24 21" style="enable-background:new 0 0 24 21;" xmlns="http://www.w3.org/2000/svg"><path d="M12 8.3h.8v4.5H12zm11.2 0v3.4c0 .2-.2.4-.4.4h-2.3c-.2 0-.4-.2-.4-.4V8.3h-.8v3.6c0 .5.4.9.9.9h2.6c.5 0 .9-.4.9-.9V8.3h-.5zm-18.1 0H.9c-.5 0-.9.4-.9.9v3.6h.8V9.4c0-.2.1-.4.3-.4h1.5v3.7h.7V9h1.5c.2 0 .4.2.4.4v3.4H6V9.2c0-.5-.4-.9-.9-.9zm2 .9v2.6c0 .5.4.9.9.9h2.8V12H8.3c-.2 0-.4-.2-.4-.4v-.8h3v-.7h-3v-.7c0-.2.1-.4.4-.4h2.6v-.7H8.1c-.6 0-1 .4-1 .9zm11.3-.4c0-.3-.3-.6-.6-.6h-3.9V9h3.4l-3.2 2.8c-.1.1-.2.3-.2.4 0 .3.3.6.6.6h3.9V12H15l3.2-2.7c.1-.1.2-.3.2-.5z"/></svg>