<?xml version="1.0" encoding="utf-8"?>
<!-- Generator: Adobe Illustrator 27.1.1, SVG Export Plug-In . SVG Version: 6.00 Build 0)  -->
<svg version="1.1" id="Layer_1" xmlns="http://www.w3.org/2000/svg" xmlns:xlink="http://www.w3.org/1999/xlink" x="0px" y="0px"
	 viewBox="0 0 24 24" style="enable-background:new 0 0 24 24;" xml:space="preserve">
<path d="M12.1,9.8h0.8v4.5h-0.8V9.8z M23.3,9.8v3.4c0,0.2-0.2,0.4-0.4,0.4h-2.3c-0.2,0-0.4-0.2-0.4-0.4V9.8h-0.8v3.6
	c0,0.5,0.4,0.9,0.9,0.9H23c0.5,0,0.9-0.4,0.9-0.9V9.8C23.9,9.8,23.4,9.8,23.3,9.8z M5.2,9.8H1c-0.5,0-0.9,0.4-0.9,0.9v3.6h0.8v-3.4
	c0-0.2,0.1-0.4,0.3-0.4h1.5v3.7h0.7v-3.7h1.5c0.2,0,0.4,0.2,0.4,0.4v3.4h0.8v-3.6C6.1,10.2,5.7,9.8,5.2,9.8z M7.2,10.7v2.6
	c0,0.5,0.4,0.9,0.9,0.9h2.8v-0.7H8.4c-0.2,0-0.4-0.2-0.4-0.4v-0.8h3v-0.7H8v-0.7c0-0.2,0.1-0.4,0.4-0.4H11V9.8H8.2
	C7.6,9.8,7.2,10.2,7.2,10.7z M18.5,10.3c0-0.3-0.3-0.6-0.6-0.6h-3.9v0.8h3.4l-3.2,2.8c-0.1,0.1-0.2,0.3-0.2,0.4
	c0,0.3,0.3,0.6,0.6,0.6h3.9v-0.8h-3.4l3.2-2.7C18.5,10.7,18.5,10.5,18.5,10.3z"/>
</svg>
