<svg role="img" viewBox="0 0 24 24" xmlns="http://www.w3.org/2000/svg"><title>Messenger icon</title><path d="M0 11.64C0 4.95 5.24 0 12 0s12 4.95 12 11.64-5.24 11.64-12 11.64c-1.21 0-2.38-.16-3.47-.46a.96.96 0 0 0-.64.05L5.5 23.92a.96.96 0 0 1-1.35-.85l-.07-2.14a.97.97 0 0 0-.32-.68A11.39 11.39 0 0 1 0 11.64zm8.32-2.19l-3.52 5.6c-.35.53.32 1.14.82.75l3.79-2.87c.26-.2.6-.2.87 0l2.8 2.1c.84.63 2.04.4 2.6-.48l3.52-5.6c.35-.53-.32-1.13-.82-.75l-3.79 2.87c-.25.2-.6.2-.86 0l-2.8-2.1a1.8 1.8 0 0 0-2.61.48z"/></svg>