<svg role="img" viewBox="0 0 24 24" xmlns="http://www.w3.org/2000/svg"><title>Meta</title><path d="M5.10607337 4.37355095c1.47181228-.65443886 3.25599084-.46719913 4.60897792.3897827 1.05142308.66614134 1.93090969 1.57803483 2.67356727 2.5700453.8488801-1.11713702 1.79588104-2.22527214 3.05614844-2.8905133.9307975-.49150428 2.04523395-.57342166 3.05434806-.29526264 1.27647084.36097659 2.35309928 1.23326167 3.14976831 2.27388246 1.46821152 1.89670244 2.18296318 4.2813084 2.38910692 6.64701035.04230897 1.11353627.08821871 2.24777693-.18723973 3.33790823-.25205348 1.10633474-.81827362 2.20276737-1.79588105 2.8311007-.8803868.5896251-1.99752383.65713942-3.01744023.50500714-1.00281277-.16563514-1.8597946-.78586674-2.5304369-1.52222298-1.42410216-1.58793692-2.41881322-3.4909407-3.53324968-5.29492346-.28806112-.49240448-.58062319-.98210838-.88668813-1.46461076-.8695845 1.41329987-1.62934571 2.89861502-2.51333327 4.30561356-.67334287 1.06222538-1.38719433 2.12085-2.32519336 2.9706303-.57702243.51580944-1.28457255.91189348-2.05783662 1.02441735-.97850762.11702483-2.02813032.04771013-2.88871292-.47530084-1.03611984-.57612224-1.69325927-1.66265278-1.97771963-2.78879172C.0028906 15.38828803.05600185 14.21803973.1127139 13.07839792c.18633953-1.95701523.7408572-3.89602665 1.73646844-5.59828783.7804656-1.29627504 1.84359116-2.49532945 3.25689103-3.10655914m10.19556327 2.43321627c-.68774592.61212988-1.22425976 1.36558975-1.73556825 2.12445076 1.36378937 1.98942211 2.49622965 4.12647555 3.8510171 6.1212988.42849092.63733523.85878221 1.29267428 1.44930751 1.79318047.51851002.45639684 1.32418096.53291308 1.9309097.21424546.49780562-.2898615.76246177-.8398782.88218718-1.38269337.20344316-1.00641354.10622253-2.0416332.01440305-3.05524826-.2304489-1.71846462-.71385146-3.45223248-1.72656634-4.88263598-.56712033-.76156159-1.32418096-1.46911171-2.28468475-1.65905201-.85158069-.22414756-1.7616738.13682903-2.3810052.72645413m-8.66973952-.21244507c-1.00911411.15303247-1.75447226.9497015-2.30358877 1.75357206-.95150189 1.45560885-1.42770293 3.17407347-1.62214418 4.88983752-.06391356.89388966-.13502865 1.82108639.15843361 2.68616994.14763133.46179798.4401934.89118909.86508356 1.13784142.53291307.2799594 1.19815422.23945081 1.72386576-.03510744.63283427-.4014852 1.10633474-1.00281278 1.55282948-1.59423827 1.32508115-1.87599804 2.49893021-3.85191728 3.78440296-5.75402087.0999212-.08821872-.0009002-.19084049-.05401146-.26645653-.58782472-.78226598-1.18195078-1.5807354-1.96241638-2.18386337-.60312797-.4599976-1.3799928-.75165948-2.14245458-.63373446z"/></svg>
