<svg role="img" viewBox="0 0 24 24" xmlns="http://www.w3.org/2000/svg"><title>Metabase icon</title><path d="M7.974 4.675c-.794 0-1.438.654-1.438 1.461s.644 1.461 1.438 1.461 1.438-.654 1.438-1.461-.644-1.461-1.438-1.461zm0 2.422c-.517 0-.938-.431-.938-.961s.421-.961.938-.961.938.431.938.961-.421.961-.938.961zM12 4.675c-.794 0-1.438.654-1.438 1.461S11.206 7.597 12 7.597s1.438-.654 1.438-1.461S12.794 4.675 12 4.675zm0 2.422c-.517 0-.938-.431-.938-.961s.421-.961.938-.961.938.431.938.961-.421.961-.938.961zM12 0c-.794 0-1.438.654-1.438 1.461S11.206 2.922 12 2.922s1.438-.654 1.438-1.461S12.794 0 12 0zm0 2.422c-.517 0-.938-.431-.938-.961S11.483.5 12 .5s.938.431.938.961-.421.961-.938.961zm0 6.384c-.794 0-1.438.654-1.438 1.461s.644 1.461 1.438 1.461 1.438-.654 1.438-1.461S12.794 8.806 12 8.806zm0 2.422a.95.95 0 0 1-.938-.961c0-.53.421-.961.938-.961s.938.431.938.961a.95.95 0 0 1-.938.961zm4.026-6.553c-.794 0-1.438.654-1.438 1.461s.644 1.461 1.438 1.461 1.438-.654 1.438-1.461-.643-1.461-1.438-1.461zm0 2.422c-.517 0-.938-.431-.938-.961s.421-.961.938-.961.938.431.938.961-.42.961-.938.961zm-8.052 5.799a1.45 1.45 0 0 0-1.438 1.461c0 .807.644 1.461 1.438 1.461s1.438-.654 1.438-1.461a1.45 1.45 0 0 0-1.438-1.461zm0 2.422a.95.95 0 0 1-.938-.961c0-.53.421-.961.938-.961s.938.431.938.961a.95.95 0 0 1-.938.961zm8.052-2.422a1.45 1.45 0 0 0-1.438 1.461c0 .807.644 1.461 1.438 1.461s1.438-.654 1.438-1.461a1.45 1.45 0 0 0-1.438-1.461zm0 2.422a.95.95 0 0 1-.938-.961c0-.53.421-.961.938-.961s.938.431.938.961a.95.95 0 0 1-.938.961zm-8.052 1.669c-.794 0-1.438.654-1.438 1.461s.644 1.461 1.438 1.461 1.438-.654 1.438-1.461-.644-1.461-1.438-1.461zm0 2.422c-.517 0-.938-.431-.938-.961s.421-.961.938-.961.938.431.938.961-.421.961-.938.961zM12 16.987c-.794 0-1.438.654-1.438 1.461s.644 1.461 1.438 1.461 1.438-.654 1.438-1.461-.644-1.461-1.438-1.461zm0 2.422c-.517 0-.938-.431-.938-.961s.421-.961.938-.961.938.431.938.961-.421.961-.938.961zm0 1.669c-.794 0-1.438.654-1.438 1.461S11.206 24 12 24s1.438-.654 1.438-1.461-.644-1.461-1.438-1.461zm0 2.422c-.517 0-.938-.431-.938-.961s.421-.961.938-.961.938.431.938.961-.421.961-.938.961zm4.026-6.513c-.794 0-1.438.654-1.438 1.461s.644 1.461 1.438 1.461 1.438-.654 1.438-1.461-.643-1.461-1.438-1.461zm0 2.422c-.517 0-.938-.431-.938-.961s.421-.961.938-.961.938.431.938.961-.42.961-.938.961zM5.385 6.136c0 .807-.644 1.461-1.438 1.461s-1.438-.654-1.438-1.461.644-1.461 1.438-1.461 1.438.654 1.438 1.461zm0 4.091c0 .807-.644 1.461-1.438 1.461s-1.438-.654-1.438-1.461.644-1.461 1.438-1.461 1.438.654 1.438 1.461zm1.151.04c0-.807.644-1.461 1.438-1.461s1.438.654 1.438 1.461-.644 1.461-1.438 1.461-1.438-.654-1.438-1.461zm12.079-4.131c0-.807.644-1.461 1.438-1.461s1.438.654 1.438 1.461-.644 1.461-1.438 1.461-1.438-.654-1.438-1.461zm-1.151 4.131c0 .807-.644 1.461-1.438 1.461s-1.438-.654-1.438-1.461.644-1.461 1.438-1.461 1.438.654 1.438 1.461zm4.027 0c0 .807-.644 1.461-1.438 1.461s-1.438-.654-1.438-1.461.644-1.461 1.438-1.461 1.438.654 1.438 1.461zM5.385 14.318c0 .807-.644 1.461-1.438 1.461s-1.438-.654-1.438-1.461.644-1.461 1.438-1.461 1.438.654 1.438 1.461zm8.053.039c0 .807-.644 1.461-1.438 1.461s-1.438-.654-1.438-1.461.644-1.461 1.438-1.461 1.438.655 1.438 1.461zm8.053 0c0 .807-.644 1.461-1.438 1.461s-1.438-.654-1.438-1.461.644-1.461 1.438-1.461 1.438.655 1.438 1.461zM5.385 18.409c0 .807-.644 1.461-1.438 1.461s-1.438-.654-1.438-1.461.644-1.461 1.438-1.461 1.438.654 1.438 1.461zm16.106.039c0 .807-.644 1.461-1.438 1.461s-1.438-.654-1.438-1.461.644-1.461 1.438-1.461 1.438.654 1.438 1.461z"/></svg>