<svg role="img" viewBox="0 0 24 24" xmlns="http://www.w3.org/2000/svg"><title>Meta</title><path d="M5.106 4.374c1.472-.655 3.256-.468 4.61.39 1.05.665 1.93 1.577 2.673 2.57.848-1.118 1.795-2.226 3.056-2.891.93-.492 2.045-.574 3.054-.295 1.277.36 2.353 1.233 3.15 2.273 1.468 1.897 2.183 4.282 2.389 6.647.042 1.114.088 2.248-.187 3.338-.252 1.107-.819 2.203-1.796 2.832-.88.59-1.998.657-3.018.505-1.002-.166-1.86-.786-2.53-1.523-1.424-1.588-2.419-3.49-3.533-5.295-.288-.492-.58-.982-.887-1.464-.87 1.413-1.63 2.898-2.513 4.305-.674 1.063-1.387 2.121-2.325 2.971-.577.516-1.285.912-2.058 1.024-.979.117-2.028.048-2.889-.475C1.266 18.71.609 17.623.324 16.497c-.321-1.109-.268-2.279-.211-3.419.186-1.957.74-3.896 1.736-5.598.78-1.296 1.844-2.495 3.257-3.106m10.196 2.433c-.688.612-1.225 1.365-1.736 2.124 1.364 1.99 2.496 4.127 3.851 6.122.429.637.859 1.292 1.45 1.793.518.456 1.324.533 1.93.214.498-.29.763-.84.882-1.383.204-1.006.107-2.041.015-3.055-.23-1.718-.714-3.452-1.727-4.883-.567-.761-1.324-1.469-2.284-1.659-.852-.224-1.762.137-2.381.727m-8.67-.213c-1.01.153-1.755.95-2.304 1.754-.951 1.456-1.427 3.174-1.622 4.89-.064.894-.135 1.82.159 2.686.147.462.44.891.865 1.138.533.28 1.198.24 1.724-.035.632-.402 1.106-1.003 1.552-1.595 1.325-1.876 2.5-3.852 3.785-5.754.1-.088-.001-.19-.054-.266-.588-.782-1.182-1.58-1.963-2.184-.603-.46-1.38-.752-2.142-.634z"/></svg>