<svg role="img" viewBox="0 0 24 24" xmlns="http://www.w3.org/2000/svg"><title>Meta AI</title><path d="M10.73.032c-1.333 0-2.032 1.016-2.032 2.285 0 2.223 2.127 4.953 4.318 4.953 1.301 0 2-.953 2-2.254 0-2.254-2.095-4.984-4.286-4.984m8.413 2.984c-1.968 0-3.397 2.73-3.397 4.825 0 1.556.794 3.016 2.254 3.016 2 0 3.365-2.762 3.365-4.794 0-1.523-.762-3.047-2.222-3.047M4.857 4.159c-1.968 0-3.778 1.016-3.778 2.54 0 1.65 2.16 2.793 4.254 2.793 1.873 0 3.778-.92 3.778-2.508 0-1.682-2.159-2.825-4.254-2.825m-.222 6.476C2.413 10.635 0 13.175 0 15.397c0 1.301.825 2.159 2.095 2.159 2.19 0 4.603-2.508 4.603-4.794 0-1.27-.761-2.127-2.063-2.127m16.667.698c-2.223 0-5.016 1.62-5.016 3.651 0 1.238 1.047 2.19 2.698 2.19 2.159 0 5.016-1.587 5.016-3.682 0-1.302-1.08-2.159-2.698-2.159M7.619 16c-1.524 0-2.38 1.746-2.38 3.429 0 2.063 1.269 4.54 3.047 4.54 1.524 0 2.38-1.81 2.38-3.461C10.667 18.57 9.46 16 7.62 16m6.571 1.016c-1.333 0-2.476.667-2.476 2.032 0 2.095 2.667 4.063 4.92 4.063 1.366 0 2.54-.73 2.54-2.063 0-2.032-2.698-4.032-4.984-4.032"/></svg>