<svg xmlns="http://www.w3.org/2000/svg" role="img" viewBox="0 0 24 24"><title>Microsoft Edge icon</title><path d="M23.158 14.25H7.821c0 .578.086 1.103.262 1.575.188.465.431.881.743 1.245.31.364.675.675 1.102.938.413.262.863.48 1.343.648.476.173.975.3 1.48.383a10.078 10.078 0 0 0 3.311-.026c.564-.105 1.111-.244 1.651-.42.54-.177 1.061-.387 1.583-.627.525-.24 1.057-.502 1.605-.795v5.085c-.612.3-1.212.552-1.812.769-.6.21-1.2.394-1.81.54-.612.15-1.23.263-1.865.33a18.41 18.41 0 0 1-1.957.105c-.9 0-1.77-.105-2.606-.311a10.217 10.217 0 0 1-2.355-.893 9.869 9.869 0 0 1-2.018-1.417 8.957 8.957 0 0 1-2.595-4.148 9.359 9.359 0 0 1-.356-2.61c0-.986.135-1.924.405-2.82.274-.9.66-1.717 1.17-2.467a8.92 8.92 0 0 1 1.856-1.999A9.82 9.82 0 0 1 9.426 5.91a5.206 5.206 0 0 0-1.163 1.774 7.671 7.671 0 0 0-.536 2.055h8.542c0-.863-.086-1.613-.262-2.258-.176-.645-.458-1.181-.851-1.605-.39-.427-.893-.75-1.512-.96-.618-.214-1.365-.322-2.238-.322-1.032 0-2.063.15-3.094.461-1.031.3-2.01.731-2.94 1.275-.93.551-1.785 1.2-2.565 1.942-.78.75-1.436 1.557-1.969 2.43a14 14 0 0 1 .649-2.913C1.798 6.863 2.21 6 2.706 5.2a11.606 11.606 0 0 1 1.74-2.152c.663-.645 1.398-1.2 2.212-1.65C7.472.949 8.334.585 9.272.34A13.4 13.4 0 0 1 12.257 0c.615 0 1.226.056 1.837.165.612.113 1.208.263 1.79.458 1.154.397 2.185.952 3.093 1.657a10.553 10.553 0 0 1 2.287 2.449c.62.926 1.088 1.95 1.41 3.063.323 1.114.488 2.273.488 3.477v2.981z"/></svg>