<svg role="img" viewBox="0 0 24 24" xmlns="http://www.w3.org/2000/svg"><title>Microsoft Teams icon</title><path d="M12156.947 14484.93a2495.378 2495.378 0 0 1-85.527-5.178 2013.8 2013.8 0 0 0 85.527 5.178zm38.123 1.324l-18.691-.559 18.691.559z" fill="#5059C9"/><path d="M20.295 3.486a2.401 2.401 0 1 0-.002 4.803h.002a2.401 2.401 0 1 0 0-4.803zm-8.677 2.118c.609 0 1.102.493 1.102 1.102v1.581a3.492 3.492 0 1 0-3.463-2.683h2.361zm11.383 3.995h-10.28v8.131c0 .61-.494 1.103-1.103 1.103H7.406a6.115 6.115 0 0 0 11.194.402 3.68 3.68 0 0 0 1.682.405h.027a3.697 3.697 0 0 0 3.697-3.697v-5.34c0-.554-.45-1.004-1.005-1.004zm-10.783 7.713V7.125a1.02 1.02 0 0 0-1.018-1.02H1.012a1.02 1.02 0 0 0-1.018 1.02v10.187c0 .562.456 1.018 1.018 1.018H11.2c.562 0 1.018-.456 1.018-1.018zM8.73 9.829H6.736v5.688h-1.27V9.829H3.484V8.725H8.73V9.83z"/></svg>