<svg role="img" viewBox="0 0 24 24" xmlns="http://www.w3.org/2000/svg"><title>Microsoft 365</title><path d="M12.072 0a4.428 4.428 0 0 0-2.219.558l-.016.01-.008.003-.107.06-6.6 3.96a4.379 4.379 0 0 0-1.555 1.59A4.334 4.334 0 0 0 1 8.323v7.352a4.35 4.35 0 0 0 2.122 3.73l.178.109-.027-.014 6.447 3.87c1.402.84 3.156.84 4.558 0l6.601-3.964a4.376 4.376 0 0 0 1.525-1.54c.37-.633.574-1.348.593-2.078l.001.03c.002-.047.002-.095.002-.143V8.323c0-.75-.196-1.488-.567-2.142a4.378 4.378 0 0 0-1.556-1.59l-6.6-3.96A4.432 4.432 0 0 0 12.073 0ZM12 7.64c.788 0 1.578.21 2.278.63l2.12 1.273v2.178c0 .75-.195 1.488-.566 2.142a4.38 4.38 0 0 1-1.554 1.59L12 16.816l-2.277-1.364a4.384 4.384 0 0 1-1.555-1.59 4.339 4.339 0 0 1-.567-2.144V9.54l2.121-1.272A4.424 4.424 0 0 1 12 7.639h.002z"/></svg>