<svg viewBox="0 0 16 16" xmlns="http://www.w3.org/2000/svg" fill-rule="evenodd" clip-rule="evenodd" stroke-linejoin="round" stroke-miterlimit="1.414"><path d="M16 2.488V13.52c0 .093-.033.17-.1.23-.067.062-.147.092-.24.092H9.954v-1.53h4.655v-.697H9.953v-.853h4.655v-.696H9.953v-.86h4.655v-.688H9.953v-.862h4.655V6.96H9.953v-.852h4.655v-.696H9.953v-.87h4.655V3.88H9.953V2.15h5.708c.093 0 .173.032.24.1.067.066.1.146.1.238zM9.1.426v15.148L0 14V2.044L9.1.425zM7.727 4.898l-1.14.07-.73 4.524h-.018c-.035-.214-.17-.963-.41-2.245l-.425-2.175-1.07.053-.427 2.122c-.25 1.236-.39 1.955-.426 2.158h-.017L2.42 5.238l-.984.052 1.052 5.255 1.088.07.41-2.045c.237-1.2.373-1.897.408-2.088h.026c.035.203.17.916.41 2.14l.408 2.106 1.174.07 1.314-5.9z" fill-rule="nonzero"/></svg>