<svg viewBox="0 0 16 16" xmlns="http://www.w3.org/2000/svg" fill-rule="evenodd" clip-rule="evenodd" stroke-linejoin="round" stroke-miterlimit="1.414"><path d="M15.702 2.067h-5.36v.992h1.58v1.57h-1.58v.5h1.58V6.7h-1.58v.515h1.58V8.7h-1.58v.595h1.58v1.49h-1.58v.595h1.58v1.498h-1.58v1.092h5.36c.084-.025.155-.124.212-.298.057-.175.086-.316.086-.424v-11c0-.085-.03-.136-.086-.154-.057-.018-.128-.027-.212-.027zm-.695 10.81h-2.572V11.38h2.572v1.498zm0-2.093h-2.572v-1.49h2.572v1.49zm0-2.085h-2.572V7.22h2.572V8.7zm0-2h-2.572V5.13h2.572V6.7zm0-2.08h-2.572V3.06h2.572v1.57zM0 1.82v12.4l9.44 1.633V.145L0 1.825zm5.595 9.38c-.036-.097-.205-.51-.505-1.242-.3-.73-.48-1.156-.533-1.277H4.54l-1.012 2.41L2.175 11 3.78 8 2.31 5l1.38-.073.912 2.347h.018L5.65 4.82l1.425-.09-1.697 3.247 1.75 3.312-1.533-.09z" fill-rule="nonzero"/></svg>