<svg role="img" viewBox="0 0 24 24" xmlns="http://www.w3.org/2000/svg"><title>Microsoft 365</title><path d="M11.98 0a4.362 4.362 0 0 0-2.2.555l-.016.01-.008.003-.106.06L3.105 4.59A4.362 4.362 0 0 0 1 8.322v7.352c0 1.527.797 2.942 2.104 3.732l.177.108-.027-.014 6.394 3.87c1.39.84 3.13.84 4.52 0l6.547-3.964a4.36 4.36 0 0 0 2.1-3.619l.001.03a4.23 4.23 0 0 0 .002-.143V8.322a4.362 4.362 0 0 0-2.105-3.732L14.168.63A4.368 4.368 0 0 0 11.98 0zm-2.6.813c-.015.01-.028.022-.043.033.015-.011.028-.023.043-.033zm2.53 6.824c.781 0 1.565.21 2.259.63l2.103 1.272v2.178a4.362 4.362 0 0 1-2.103 3.732l-2.26 1.367-2.258-1.365a4.367 4.367 0 0 1-2.105-3.734V9.54L9.65 8.268a4.36 4.36 0 0 1 2.258-.631z"/></svg>