<svg role="img" viewBox="0 0 24 24" xmlns="http://www.w3.org/2000/svg"><title>Microchip Technology Incorporated</title><path d="m3.82 10.187-3.396 4.76a7.428 7.428 0 0 1-.32-1.46C-.698 7.623 3.252 2.412 8.908 1.027c2.662-.653 5.28-.507 7.806.64.16.071.276.167.37.317 2.264 3.575 4.53 7.149 6.802 10.72.084.135.116.26.114.417-.01.852-.274 1.628-.682 2.392l-2-3.166L17.28 5.98a2.092 2.092 0 0 0-.634-.696c-.384-.242-.734-.234-1.102.03a2.12 2.12 0 0 0-.486.518c-.628.888-1.252 1.78-1.892 2.66-.12.168-.104.276 0 .44 2.318 3.646 4.626 7.3 6.946 10.944.142.222.118.334-.074.5-2.65 2.266-5.72 3.22-9.18 2.932a11.844 11.844 0 0 1-7.49-3.398c-.18-.176-.184-.28-.036-.48.966-1.316 1.914-2.646 2.88-3.964.352-.484.368-.976.06-1.466-.782-1.246-1.586-2.482-2.382-3.72-.016-.026-.036-.048-.07-.096v.002zm8.314 9.026a.806.806 0 0 0 .47-.16 2.14 2.14 0 0 0 .546-.578c.64-.928 1.278-1.858 1.924-2.782.104-.148.116-.246.01-.412-1.176-1.84-2.34-3.688-3.508-5.534-.83-1.312-1.652-2.628-2.5-3.928-.64-.98-1.414-.988-2.102-.054-.58.816-1.302 1.854-1.894 2.66-.142.192-.13.316-.008.508 1.96 3.066 3.91 6.136 5.862 9.206.164.258.298.538.522.754.19.182.396.33.678.32z"/></svg>