<svg xmlns="http://www.w3.org/2000/svg" aria-labelledby="simpleicons-microsoftedge-icon" role="img" viewBox="0 0 24 24"><title id="simpleicons-microsoftedge-icon">Microsoft Edge icon</title><path d="m 23.158125,14.25 h -15.3375 c 0,0.5775 0.08625,1.1025 0.2625,1.575 0.1875,0.465 0.43125,0.88125 0.7425,1.245 0.31125,0.36375 0.675,0.675 1.1025,0.9375 0.4125,0.2625 0.8625,0.48 1.3425,0.64875 0.47625,0.1725 0.975,0.3 1.48125,0.3825 0.51375,0.0825 1.0125,0.12375 1.51875,0.12375 0.6375,0 1.23,-0.04875 1.7925,-0.15 0.5625,-0.105 1.11,-0.24375 1.65,-0.42 0.54,-0.17625 1.06125,-0.38625 1.5825,-0.62625 0.525,-0.24 1.0575,-0.5025 1.605,-0.795 v 5.085 c -0.61125,0.3 -1.21125,0.55125 -1.81125,0.76875 -0.6,0.21 -1.2,0.39375 -1.81125,0.54 -0.61125,0.15 -1.23,0.2625 -1.86375,0.33 -0.63375,0.0675 -1.2825,0.105 -1.9575,0.105 -0.9,0 -1.77,-0.105 -2.60625,-0.31125 -0.83625,-0.20625 -1.62,-0.5025 -2.355,-0.8925 -0.735,-0.39 -1.40625,-0.8625 -2.0175,-1.4175 -0.615,-0.555 -1.13625,-1.18125 -1.575,-1.875 -0.43875,-0.69375 -0.7762501,-1.455 -1.0200001,-2.2725 -0.23625,-0.8175 -0.35625,-1.6875 -0.35625,-2.61 0,-0.98625 0.135,-1.92375 0.405,-2.82 0.27375,-0.9 0.6600001,-1.7175 1.1700001,-2.4675 0.50625,-0.75 1.125,-1.4175 1.85625,-1.99875 0.73125,-0.58125 1.5525,-1.0575 2.4675,-1.425 -0.49875,0.49875 -0.88875,1.0875 -1.1625,1.77375 -0.28125,0.6825 -0.4575,1.36875 -0.53625,2.055 h 8.5425 c 0,-0.8625 -0.08625,-1.6125 -0.2625,-2.2575 -0.17625,-0.645 -0.4575,-1.18125 -0.85125,-1.605 -0.39,-0.4275 -0.8925,-0.75 -1.51125,-0.96 -0.61875,-0.21375 -1.365,-0.3225 -2.23875,-0.3225 -1.03125,0 -2.0625,0.15 -3.09375,0.46125 -1.03125,0.3 -2.01,0.73125 -2.94,1.275 -0.9300001,0.55125 -1.7850001,1.2 -2.5650001,1.9425 -0.78,0.75 -1.43625,1.55625 -1.96874991,2.43 C 0.950625,9.69 1.1756249,8.715 1.4868749,7.78875 1.7981249,6.8625 2.2106249,6 2.7056249,5.20125 c 0.495,-0.7875 1.07625,-1.5075 1.74,-2.1525 0.6637501,-0.645 1.3987501,-1.2 2.2125001,-1.65 0.81375,-0.45 1.67625,-0.81375 2.61375,-1.0575 C 10.209375,0.1275 11.206875,0 12.256875,0 c 0.615,0 1.22625,0.05625 1.8375,0.165 0.61125,0.1125 1.2075,0.2625 1.78875,0.4575 1.155,0.3975 2.18625,0.9525 3.09375,1.6575 0.9075,0.7125 1.66875,1.5225 2.2875,2.44875 0.61875,0.92625 1.0875,1.95 1.41,3.06375 0.3225,1.11375 0.4875,2.2725 0.4875,3.47625 V 14.25 Z"/></svg>
