<svg role="img" viewBox="0 0 24 24" xmlns="http://www.w3.org/2000/svg"><title>Microsoft Azure icon</title><path d="M23.9136 21.2042 17.3511 1.7595A1.6204 1.6204 0 0 0 15.8158.6573H8.1842c-.6952 0-1.313.4435-1.5353 1.1022L.0864 21.204c-.3545 1.0503.4267 2.1385 1.5352 2.1385h4.7415c.6953 0 1.313-.4434 1.5353-1.1022l.9762-2.8924 4.9473 3.675a1.62 1.62 0 0 0 .9663.3198h.0283c.0523 0 .1038-.0025.1545-.0072v.0072h7.4074c1.1085 0 1.8898-1.0883 1.5352-2.1386zm-9.097 1.0583h-.0284a.5399.5399 0 0 1-.3221-.1066l-9.102-6.7615-.1859-.1387h4.8544l.1316-.35 1.54-4.0942 3.6241 10.7381c.1182.3502-.1423.713-.5118.713zm7.5618 0H16.345c.1162-.3261.1296-.6945.0069-1.0583L9.7893 1.7595a2.6799 2.6799 0 0 0-.0076-.0219h6.0341a.5402.5402 0 0 1 .5118.3674L22.89 21.5496c.1182.3502-.1422.713-.5117.713z"/></svg>