<svg role="img" viewBox="0 0 24 24" xmlns="http://www.w3.org/2000/svg"><title>Midjourney</title><path d="M22.119 17.07c-.16.008-2.39.15-4.632.298-.714.048-1.559.1-1.88.12-.318.02-.902.058-1.299.085-.393.028-.995.065-1.333.086-.338.02-1.193.075-1.896.12-.704.047-2.003.13-2.888.187-.882.059-2.075.134-2.65.17-.574.039-1.541.1-2.153.138-1.651.1-1.634.096-1.71.328-.044.134-.016.205.42 1.026l.223.413-.567.39c-.92.632-1.251.817-1.466.817-.048 0-.127.044-.185.1-.14.14-.137.31.007.454.099.099.113.102.325.085.297-.024.673-.205 1.292-.63 1.042-.717 1.302-.864 1.524-.864.164 0 .342.11.886.544.735.584 1.01.752 1.456.889.369.116.728.13 1.077.04.406-.098.69-.256 1.288-.7.687-.516.83-.585 1.207-.585.369 0 .53.076 1.008.462.544.44.69.547.954.68.31.157.573.219.925.219.527-.003.971-.215 1.624-.766.608-.513.878-.632 1.343-.601.346.023.547.12.992.482.905.734 1.258.909 1.863.909.55 0 .96-.185 1.675-.76.276-.218.601-.45.724-.512.205-.102.246-.113.564-.113.318 0 .36.007.568.11.13.065.39.253.601.434.209.178.455.38.544.45.383.295 1.005.49 1.24.39a.364.364 0 0 0 .21-.334c0-.15-.2-.315-.377-.315-.287 0-.496-.116-1.06-.598-.717-.615-1.028-.776-1.592-.824-.554-.051-1.04.154-1.792.756-.72.577-1.05.714-1.51.632-.189-.034-.599-.195-.568-.222.007-.007.202-.106.438-.226.854-.427 2.177-1.176 2.734-1.548.728-.486 2.188-1.583 2.273-1.71.069-.095.062-.293-.01-.386-.068-.092-.208-.133-.417-.12zm-.957.75c0 .03-.937.7-1.354.974-.786.512-2.546 1.466-3.13 1.698l-.192.079-.236-.181c-.63-.486-1.316-.62-1.962-.386-.315.112-.585.287-1.108.714-.225.185-.51.383-.632.44-.198.093-.257.107-.53.107-.455 0-.632-.092-1.45-.76-.716-.583-1.308-.737-1.967-.515-.277.096-.527.25-1.094.677-.263.198-.578.407-.7.46-.206.097-.254.104-.6.104-.361 0-.385-.003-.638-.127-.335-.157-.49-.263-1.002-.68-.742-.595-1.05-.745-1.45-.697l-.194.024-.191-.356c-.103-.195-.178-.362-.168-.372.02-.024.824-.082 2.704-.202l2.94-.188c1.025-.065 2.454-.157 3.178-.205.724-.045 1.685-.11 2.136-.137.451-.03 1.535-.1 2.41-.154l4.632-.304c.588-.041.598-.041.598-.014zM9.842 4.484c-.117.061-.165.147-.165.294 0 .154.038.198.35.41.88.605 2.1 1.736 2.736 2.54 1.432 1.801 2.943 4.874 3.822 7.776.095.308.198.592.23.626.101.116.2.13.491.075a6.03 6.03 0 0 1 .605-.072c.403-.024.728.055 1.453.342.612.246.76.246.858.007.058-.14.044-.202-.226-.892-.817-2.106-1.897-4.123-2.984-5.572a17.102 17.102 0 0 0-.67-.837c-.01-.01-.103-.11-.202-.223-1.962-2.16-3.9-3.736-5.3-4.307-.233-.092-.722-.222-.838-.222a.438.438 0 0 0-.16.055Zm3.595 2.728c.51.44 1.972 1.907 2.406 2.413 1.077 1.254 2.136 2.987 2.984 4.888.24.537.49 1.145.49 1.193 0 .017-.165-.024-.367-.092-.355-.12-.39-.123-.865-.123a7.457 7.457 0 0 0-.646.013l-.15.014-.178-.56c-.73-2.315-1.856-4.728-3.083-6.615a18.65 18.65 0 0 0-.43-.632c-.21-.274-.756-.93-.842-1.005-.037-.038-.072-.079-.072-.096 0-.038.188.113.752.602zM3.422 2.1c-.154.157-.137.256.113.72 1.1 2.017 1.835 4.13 2.058 5.917.06.492.068 1.637.017 2.25-.202 2.354-1.015 4.5-2.195 5.807-.188.205-.222.31-.164.458.11.263.31.267.718.017 1.125-.697 2.714-1.278 4.17-1.528.417-.072.568-.08 1.573-.082 1.158 0 1.336.017 2.323.19.848.15 1.856.432 2.601.719.253.096.5.18.547.192.127.024.287-.07.34-.195.057-.14-.015-.61-.213-1.381-.63-2.478-2.065-5.182-3.938-7.418C9.522 5.562 7.045 3.62 4.42 2.322c-.707-.35-.84-.38-.998-.222Zm1.484 1.223a22.656 22.656 0 0 1 3.302 2.25c2.87 2.357 5.1 5.553 6.21 8.899.167.51.386 1.389.345 1.406a2.17 2.17 0 0 1-.328-.093 15.943 15.943 0 0 0-3.22-.731c-.864-.106-2.19-.106-2.942 0a12.04 12.04 0 0 0-3.056.844c-.205.09-.397.168-.424.18-.034.015-.028-.016.024-.098.112-.188.465-.91.598-1.23.684-1.658 1.039-4.003.875-5.774-.15-1.63-.8-3.76-1.692-5.544a4.26 4.26 0 0 1-.15-.318c0-.034.05-.01.458.21z"/></svg>