<svg role="img" viewBox="0 0 24 24" xmlns="http://www.w3.org/2000/svg"><title>Migadu</title><path d="M14.165 22.1H9.837v-6.594c.1-1.781-.965-3.183-2.755-3.253-1.083-.043-2.828.836-2.753 3.133.13.782.636 1.604 1.349 2.017a3.99 3.99 0 0 0 1.228.363c.058.004.117.006.177.007-.01.024.015.011.025.019L7.09 22.1h-.007c-4.675-.113-7.145-3.848-7.082-7.366-.004-2.054.003 1.081.001-5.922a7.085 7.085 0 0 1 7.08-6.914 7.086 7.086 0 0 1 7.064 6.586l.019.009A7.085 7.085 0 0 1 24 15.02c0 2.36-.006 4.72 0 7.08h-4.328v-7.116a2.783 2.783 0 0 0-2.57-2.719h-.383c-1.241.12-2.148.944-2.447 1.984a2.793 2.793 0 0 0-.107.77zM4.32 10.219a1.024 1.024 0 1 1 0 2.048 1.024 1.024 0 0 1 0-2.048z"/></svg>