<svg role="img" viewBox="0 0 24 24" xmlns="http://www.w3.org/2000/svg"><title>Milvus</title><path d="M15.536 11.997a4.005 4.506 0 0 1-4.015 4.52c-2.36-.006-4.05-2.198-4.01-4.59a4.013 4.515 0 0 1 8.025.07zM24 11.95a.823.926 0 0 1-.25.695q-1.122 1.268-2.25 2.53c-.081.093-.164.112-.249.061-.092-.054-.124-.137-.098-.272a12.764 14.359 0 0 0 .25-1.829 12.153 13.672 0 0 0 .028-1.676 11.56 13.004 0 0 0-.27-2.378.255.287 0 0 1 .017-.24.194.219 0 0 1 .273-.058.628.707 0 0 1 .085.084l2.175 2.446c.17.192.29.411.289.637zM11.226 21c-1.89-.002-3.488-.636-4.926-1.812a8.317 9.356 0 0 1-.952-.918q-1.125-1.251-2.253-2.499l-1.931-2.135c-.291-.322-.584-.641-.873-.964-.393-.44-.387-.935.012-1.37.296-.324.59-.651.885-.977l2.867-3.17c.532-.586 1.057-1.182 1.604-1.749a7.996 8.995 0 0 1 3.786-2.193A7.668 8.626 0 0 1 11.135 3c1.89.017 3.612.614 5.113 1.939a7.987 8.985 0 0 1 2.282 3.115 7.567 8.512 0 0 1 .76 2.875c.255 2.706-.414 5.083-2.046 7.102a7.772 8.743 0 0 1-3.927 2.66 8.995 10.119 0 0 1-2.091.309Zm.364-2.404a5.819 6.546 0 0 0 .605-.04 4.32 4.32 0 0 0 .38-.058c1.525-.313 2.76-1.182 3.704-2.544.92-1.326 1.28-2.86 1.168-4.531a5.626 6.329 0 0 0-.63-2.44c-.628-1.364-1.597-2.325-2.818-2.976-1.096-.584-2.248-.73-3.443-.522a5.814 6.54 0 0 0-3.227 1.79c-.858.932-1.707 1.876-2.56 2.816-.426.47-.85.946-1.28 1.413-.274.3-.286.662-.013.964q.803.893 1.61 1.781c.722.797 1.44 1.598 2.165 2.392 1.185 1.297 2.604 1.954 4.339 1.955z"/></svg>