<svg role="img" viewBox="0 0 24 24" xmlns="http://www.w3.org/2000/svg"><title>Minetest icon</title><path d="M1.59 0L.46.652v1.16l.018.01.53.306-1 .591.004.002H.01v1.81l3.17 1.82 1.91-1.14.048-.027.002-.002 1.21-.697v-1.71l-.896-.517v-.63l-.242-.14-.27.18v.292l-.378-.22-.004-.311h-.002L3.407.746l-.017.01-.767.44V.593zm0 .078l.958.55v1.2l-.666.383-.066.04-.226.128-.224-.129-.067-.039-.226-.129-.547-.316V.686zM3.4.822l1.03.607-1.26.746.994.57-2.02 1.14-2-1.17.937-.552.224.129v.595l.291.168.293-.168v-.595l.732-.422v-.595zm1.09.644l.006.277-.956.57-.244-.141zm.72.1l.174.101v1.21l-.174.1-.207-.119v-1.15zm-.679.233l.406.238v.86l.016.01.258.145.24-.139v-.58l.83.48v.23l-.478.301-.45.285-1.01-.582v-.285l-.733-.418zm-2.71.527v.521l-.226.13-.224-.13v-.519l.224.13zm-1.74.427l2.06 1.21 2.1-1.18.043.026v.246l-2.09 1.18v.336l.23.135v.297l.847.488 1.82-1.07V4.1l.299-.172v-.232l.449-.285.443-.277v.279l-.597.344v.148l-.3.172v.299l-.298.172v.595l-1.91 1.14-1.01-.58v-.3l-.223-.128v-.297l-.31-.18v-.595l-.812-.468v.3l-.3-.173v.898l-.45-.26zm4.24.351l1.01.582v.193l-.299.172v.318L3.272 5.4l-.781-.449v-.299l-.23-.133v-.26zm1.97.373v.967l-1.13.65v-.52l.299-.171v-.3l.299-.171v-.148zm-5.39.36l.681.393v.52l-.496-.285-.482.279v-.78l.297.173v-.06zm.301.39l-.035.056.027.016.033-.057zm.102.064l-.033.056.021.012.033-.056zm-.217.25l.496.283v.002l.006.002.305.176v.299l.223.127v.223l-1.48-.851V4.8z"/></svg>