<svg role="img" viewBox="0 0 24 24" xmlns="http://www.w3.org/2000/svg"><title>MinGW-w64</title><path d="m-.0003 9.4029 4.187-4.187 4.1869 4.187-4.187 4.187Zm0 10.417 4.187-4.1869 4.1869 4.187-4.187 4.1869zm5.2086-5.2085 4.1869-4.187 4.187 4.187-4.187 4.187zm0-10.417 4.187-4.187 4.1869 4.187-4.187 4.1868Zm5.2085 5.2084 4.187-4.1869 4.1869 4.187-4.187 4.1869zm5.2085-5.2084 4.187-4.187 4.1869 4.187-4.187 4.1869zm-5.208 15.626 4.187-4.1869 4.1869 4.187-4.187 4.1869zm5.2086-5.2085 4.187-4.187 4.1868 4.187-4.1869 4.187z"/></svg>
