<svg role="img" viewBox="0 0 24 24" xmlns="http://www.w3.org/2000/svg"><title>MinIO</title><path d="M8.15 15.011a13.978 13.978 0 012.77-3.919 14.178 14.178 0 011.389-1.22v3zm-2.4 2.78l6.559-3.33v7.62L13.779 24V13.682l.9-.46a4.44 4.44 0 001.22-7.029l-3.37-3.52a.75.75 0 01.03-1.06.75.75 0 011.06.04l.47.49 1-.97c-1.19-1.549-2.66-1.369-3.49-.58a2.15 2.15 0 00-.1 3.03l3.41 3.56a3.04 3.04 0 01-.66 4.679l-.47.24v-4.8A15.417 15.417 0 005.77 17.782zm9.348-16.617l3.14 5.139a.06.06 0 010 .07.06.06 0 01-.08 0l-4.07-4.24z"/></svg>