<svg role="img" viewBox="0 0 24 24" xmlns="http://www.w3.org/2000/svg"><title>Miraheze</title><path d="M 2.677 12.923 L 6.445 12.934 L 8.394 16.303 L 6.468 19.626 L 2.666 19.626 L 0.727 16.292 L 2.677 12.923 Z M 2.673 4.323 L 6.434 4.334 L 8.378 7.701 L 6.456 11.027 L 2.662 11.027 L 0.727 7.69 L 2.673 4.323 Z M 17.555 4.323 L 21.323 4.334 L 23.273 7.701 L 21.345 11.027 L 17.544 11.027 L 15.606 7.69 L 17.555 4.323 Z M 17.555 12.923 L 21.323 12.934 L 23.273 16.303 L 21.345 19.626 L 17.543 19.626 L 15.606 16.292 L 17.555 12.923 Z M 10.099 17.296 L 13.866 17.307 L 15.817 20.675 L 13.889 24 L 10.088 24 L 8.149 20.664 L 10.099 17.296 Z M 10.099 0 L 13.866 0.011 L 15.817 3.38 L 13.889 6.704 L 10.088 6.704 L 8.149 3.368 L 10.099 0 Z M 10.099 8.628 L 13.866 8.639 L 15.817 12.007 L 13.889 15.332 L 10.088 15.332 L 8.149 11.996 L 10.099 8.628 Z"/></svg>