<svg role="img" viewBox="0 0 24 24" xmlns="http://www.w3.org/2000/svg"><title>Misskey</title><path d="M8.91076 17.2496c-1.03957.0037-1.93213-.6228-2.35267-1.3516-.22516-.3182-.66989-.4317-.6761 0v1.9935c0 .8008-.29152 1.4936-.87581 2.0779-.56755.567-1.25977.8504-2.0779.8504-.80014 0-1.49298-.2834-2.07727-.851C.28408 19.3851 0 18.6923 0 17.8915V6.92832c0-.61717.17553-1.17603.52599-1.67658.36657-.51731.83426-.87644 1.4018-1.07617a2.87292 2.87292 0 0 1 1.00049-.17553c.90125 0 1.65239.35045 2.25281 1.05135l2.99713 3.47846c.06699.04962.263.43232.73192.43232.47016 0 .6916-.3827.75797-.43294l2.97169-3.47784c.6178-.7009 1.377-1.05135 2.2782-1.05135.3337 0 .6675.0583 1.0012.17553.5669.19973 1.0259.55824 1.377 1.07617.3665.50055.5501 1.05941.5501 1.67658V17.8915c0 .8008-.2915 1.4936-.8758 2.0779-.5675.567-1.2604.8504-2.0779.8504-.8008 0-1.493-.2834-2.0779-.851-.5669-.5837-.8504-1.2765-.8504-2.0773V15.898c-.0496-.544-.5303-.201-.7009 0-.4503.8343-1.31369 1.3472-2.35264 1.3516ZM21.447 9.05583c-.7009 0-1.3015-.2419-1.8019-.72571-.4838-.50035-.7257-1.10097-.7257-1.80187 0-.70091.2419-1.29326.7257-1.77707.5004-.50035 1.101-.75052 1.8019-.75052.7009 0 1.3017.25017 1.8025.75052.5003.48381.7505 1.07616.7505 1.77707 0 .7009-.2502 1.30152-.7505 1.80187-.5008.48381-1.1016.72571-1.8025.72571Zm.0248.50118c.7009 0 1.2935.25018 1.7777.75049.5003.5004.7505 1.1012.7505 1.8025v6.1822c0 .7009-.2502 1.3016-.7505 1.8019-.4838.4838-1.0764.7257-1.7777.7257-.7005 0-1.3011-.2419-1.8019-.7257-.5003-.5003-.7505-1.101-.7505-1.8019V12.11c0-.7009.2502-1.3017.7505-1.8025.5004-.50031 1.101-.75049 1.8019-.75049Z"/></svg>