<svg role="img" viewBox="0 0 24 24" xmlns="http://www.w3.org/2000/svg"><title>Mixi</title><path d="M12.552 7.094c-.47 0-.711.404-.711.892 0 .487.242.892.71.892.47 0 .711-.405.711-.892 0-.491-.242-.892-.71-.892zm10.737.08c-.469 0-.71.404-.71.891 0 .492.241.896.71.896.472 0 .71-.408.71-.896 0-.487-.238-.892-.71-.892zm-19.94 3.008c-.976 0-1.739.529-2.181 1.243v-1.08a.045.045 0 0 0-.046-.046H.045a.045.045 0 0 0-.045.045v6.354c0 .026.019.045.045.045H1.15a.045.045 0 0 0 .042-.045V13.33c0-1.285.873-2.09 1.799-2.09.963 0 1.353.503 1.353 1.455v4.006c0 .023.018.042.041.042h1.104a.045.045 0 0 0 .045-.045v-3.383c0-1.285.884-2.075 1.81-2.075.964 0 1.338.503 1.338 1.455v4.006c0 .023.023.042.046.042H9.83a.045.045 0 0 0 .046-.045v-4.135c0-1.429-.696-2.381-2.17-2.381a2.872 2.872 0 0 0-2.358 1.27c-.31-.794-.953-1.27-2-1.27Zm8.654.117a.045.045 0 0 0-.041.045v6.354c0 .026.019.045.045.045h1.089a.045.045 0 0 0 .045-.045v-6.354a.045.045 0 0 0-.045-.045H12zm3.001 0a.038.038 0 0 0-.019.008.042.042 0 0 0-.007.064l2.317 3.103-2.385 3.197v.004l-.008.008v.037h.004v.004l.011.008.008.007h.008l.003.004h1.16a.042.042 0 0 0 .038-.019l1.777-2.373 1.772 2.373a.042.042 0 0 0 .038.02h1.176l.007-.005v-.004h.008l.004-.007.007-.008v-.011l.004-.004v-.019l-.008-.011-2.388-3.201 2.32-3.103a.042.042 0 0 0-.011-.064.038.038 0 0 0-.027-.008h-1.149a.045.045 0 0 0-.037.019l-1.712 2.336-1.701-2.336a.042.042 0 0 0-.038-.019h-1.168zm7.737 0a.042.042 0 0 0-.038.045v6.354c0 .026.015.045.038.045h1.096a.045.045 0 0 0 .041-.045v-6.354a.045.045 0 0 0-.045-.045z"/></svg>