<svg xmlns="http://www.w3.org/2000/svg" role="img" width="24" height="24" viewBox="0 0 24 24"><title>Mizuno</title><defs><clipPath id="a" clipPathUnits="userSpaceOnUse"><path d="M-.489 53.251h241.396v93.992H-.489z" style="fill:#000"/></clipPath></defs><path d="M238.81 55.46c-18.013 10.514-38.99 16.964-58.854 22.948-18.15 5.467-36.293 11.068-55.006 14.318-10.79 1.874-23.222 3.926-34.103 2.41-4.244-.592-10.3-1.809-10.396-7.222-.144-8.077 9.79-14.274 14.247-19.802-9.37 1.612-19.04 6.594-28.053 9.712-19.87 6.873-41.824 14.428-62.706 17.24v.55c6.175 1.825 13.88 1.002 20.351 1.807 15.06 1.874 30.804 4.883 44.556 11.536 10.752 5.202 20.836 11.84 28.319 21.311 2.782 3.52 4.925 7.42 6.65 11.55.637 1.528 1.055 4.363 2.67 5.168 2.309 1.15 6.58.334 9.115.334h22.553c-1.33-9.051-3.6-17.256-.86-26.404 7.106-23.718 42.654-29.884 63.014-36.67 7.126-2.376 17.99-3.866 24.025-8.348 3.423-2.542 6.116-7.635 8.589-11.088 1.85-2.583 5.724-6.122 5.89-9.35zm-108.359 50.055v.549c-6.947 4.897-10.553 12.597-13.2 20.353h-.552c-4.842-6.532-11.246-13.51-18.701-17.052l10.452-.707zm-45.654 43.032c-.72.002-1.44.007-2.159.018l-.03.008c-.004.06-.007.121-.02.196.946 2.94-.002 2.39-2.012 2.394l-.314-.006c-1.152.763-2.427 1.291-3.79 1.644-3.345.802-6.79 1.023-10.217 1.214-2.327.116-4.658.211-6.988.243a18.543 18.543 0 0 0-2.523 4.061h-.55l-16.546 19.802-9.306 12.102c4.567 0 13.688 1.736 17.551-.883 10.663-7.229 15.028-24.716 27.003-30.163 2.852-1.298 6.3-.858 9.352-.858l-25.854 31.904c6.41 0 18.325 2.281 23.595-1.964 3.59-2.891 2.808-7.692 2.808-11.788zm-28.602 9.772v-4.065c-2.74-.039-5.476-.187-8.203-.53-1.65-.181-3.312-.36-4.971-.568-.266.022-.53.06-.796.071-.314.013-.918.27-.943-.044-.008-.11.002-.151-.005-.255-1.91-.279-3.808-.63-5.663-1.143a16.563 16.563 0 0 1-1.72-.576c-3.314 2.75-5.883 6.667-8.547 9.86-7.568 9.07-18.2 18.672-23.609 29.154 4.625 0 13.64 1.72 17.582-.883 10.784-7.12 15.126-24.502 26.974-30.155 2.95-1.408 6.724-.866 9.9-.866zm128.092-.468c-3.345.054-6.774.468-9.28.468-3.008 0-10.448-1.352-12.872.567-1.472 1.166-.88 4.395-.88 6.034 0 4.364 1.682 13.172-.567 16.971-1.771 2.991-8.123 2.289-9.096-1.043-1.897-6.5-.239-15.753-.239-22.529h-12.102v19.802c0 2.95-.616 6.697 1.182 9.248 3.825 5.426 19.303 3.102 25.222 2.833 2.448-.111 5.138-.61 6.595-2.789 3.327-4.974 1.105-16.645 1.105-22.493l9.112.958 1.34 6.742v17.603h12.1v-21.452c0-3.383.354-7.09-2.853-9.226-2.165-1.443-5.423-1.748-8.767-1.694zm31.356.03c-3.616-.119-7.211-.044-10.384.731-7.652 1.87-4.952 15.245-4.952 21.159 0 2.486-.385 5.435 1.107 7.598 1.476 2.142 4.152 2.721 6.595 2.833 6.614.303 16.224 1.566 22.552-.422 7.554-2.373 4.95-14.884 4.95-21.009 0-2.86.273-5.902-1.804-8.178-2.039-2.234-4.74-2.27-7.546-2.274-3.262-.005-6.901-.318-10.518-.437zm-121.215.06c-1.573.049-2.975.292-3.799.945-1.625 1.287-.883 5.311-.883 7.135v17.052c0 1.717-.573 4.827.567 6.267 2.085 2.633 8.923.328 10.431-1.927 2.494-3.728 1.105-11.032 1.105-15.342v-13.752c-1.7 0-4.799-.458-7.42-.378zm11.271.378c0 1.61-.501 4.372.565 5.719 1.986 2.507 12.326.882 15.387.882-7.543 7.606-15.402 14.172-15.402 25.303h29.153v-6.601H119.45c7.673-7.678 15.402-14.05 15.402-25.303zm112.525 5.94c4.805.088 5.187 6.21 5.187 11.112 0 2.578.757 6.711-2.234 7.92-8.609 3.476-8.768-4.178-8.768-10.12 0-2.274-.873-6.782 1.731-7.92 1.63-.71 2.975-1.012 4.084-.992zm23.337 16.612v.552h2.201zm-1.099.552-1.651 2.199zm-2.2 2.75v2.748h.549zm.549 3.3 2.75 2.199v-.55zm7.152.549-.551 1.1zm-1.652 1.1.552.55zm-1.833.735.367.183z" clip-path="url(#a)" style="fill:#04168b;stroke:none" transform="translate(-.126 1.87) scale(.09995)"/></svg>