<svg role="img" viewBox="0 0 24 24" xmlns="http://www.w3.org/2000/svg"><title>Modrinth</title><path d="M12.24 0a11.77 11.77 0 0 0-8.91 3.72 11 11 0 0 0-2.17 3.12A11.36 11.36 0 0 0 0 12.01c0 1.42.17 2.49.59 3.77.25.76.78 1.9 1.18 2.53a12.3 12.3 0 0 0 8.84 5.64c.44.05 2.54.07 2.76.02.2-.04.22.1-.26-1.7l-.36-1.37-1.01-.06a8.49 8.49 0 0 1-5.17-1.8 5.34 5.34 0 0 1-1.31-1.26c0-.05.35-.28.75-.51a37.55 37.55 0 0 1 2.87-1.62c.03 0 .5.45 1.06.98l1 .97 2.07-.43 2.06-.43 1.47-1.47c.81-.81 1.48-1.5 1.48-1.52 0-.09-.42-1.63-.46-1.7-.04-.06-.2-.03-1.02.18-.53.13-1.19.3-1.45.4l-.48.15-.53.53-.53.53-.93.09-.93.08-.52-.5a2.7 2.7 0 0 1-.96-1.71l-.13-.6.43-.56c.68-.9.68-.9 1.46-1.1.4-.11.65-.2.83-.33.13-.1.65-.58 1.14-1.07l.9-.9-.7-.7-.7-.7-1.95.54c-1.07.3-1.96.53-1.97.53-.03 0-2.22 2.48-2.62 2.97l-.29.35.28 1.03c.16.56.3 1.16.31 1.34l.03.3-.34.23c-.37.23-2.22 1.3-2.84 1.63-.36.2-.37.2-.44.1-.08-.11-.23-.6-.32-1.03-.18-.86-.17-2.75.02-3.73a8.84 8.84 0 0 1 7.9-6.93c.42-.03.76-.08.77-.11.06-.16.5-3 .47-3.03-.01-.02-.09-.02-.2-.03zm3.68.66c-.19 0-.3.11-.37.38-.06.24-.46 2.42-.46 2.53 0 .04.1.11.22.16a8.51 8.51 0 0 1 2.99 2 8.38 8.38 0 0 1 2.16 3.45 6.9 6.9 0 0 1 .4 2.8c0 1.07 0 1.27-.1 1.73A9.37 9.37 0 0 1 19 17.48c-.32.39-.98 1.06-1.37 1.38-.38.32-1.54 1.09-1.7 1.14-.09.03-.1.06-.07.26.03.18.64 2.56.71 2.78.01.03.04.06.05.06a12.06 12.06 0 0 0 7.27-9.41c.13-.76.13-2.57 0-3.4a11.95 11.95 0 0 0-5.73-8.57c-.7-.42-2.05-1.06-2.25-1.06z"/></svg>
