<svg role="img" viewBox="0 0 24 24" xmlns="http://www.w3.org/2000/svg"><title>Mojang icon</title><path d="M6.916.203A6.901 6.901 0 000 7.12v16.678h17.084A6.901 6.901 0 0024 16.88V.203zm10.03 2.508c.56 1.053 1.114 2.231.939 3.455-.135 1.033-1.798 1.02-2.055.066-.23-.933.12-1.889.488-2.738.12-.326.355-.577.627-.783zm-2.721 3.01c.772.85 1.277 1.99 2.308 2.576.642.327 1.21-.272 1.717-.586.63.937.859 2.065 1.068 3.154.268 1.399.385 2.816.452 4.235-.706-.299-1.365-.694-2.022-1.086-.568-2.007-2.176-3.52-3.955-4.498-1.407-.74-3.155-.888-4.613-.211-1.53.648-2.555 2.303-2.395 3.965.05 1.861 1.29 3.565 3.006 4.253 3.151 1.337 6.674.91 9.975.506.184.942-.616 1.842-1.504 1.989-4.303.015-8.602-.004-12.905.01-.901.113-1.66-.765-1.613-1.631-.015-3.492.006-6.985-.008-10.479-.044-.91.543-2.082 1.594-2.018 1.488-.01 2.977-.018 4.465.002 1.51.087 2.683 1.125 3.926 1.846.073-.69-.08-1.513.504-2.027z"/></svg>