<svg role="img" viewBox="0 0 24 24" xmlns="http://www.w3.org/2000/svg"><title>Mojang Studios icon</title><path d="M6.0582 2.1047a616.8368 616.8368 0 01-5.5232.0008c-.3372-.0021-.4499.1267-.4456.459C.1042 3.6311.095 4.6983.095 5.7657c0 1.0905.0063 2.1825-.0042 3.271-.0014.3048.1077.4252.4118.409.328-.017.6569 0 .9857-.0036.464 0 .4822-.0168.4829-.4688 0-1.455.0016-2.91.0049-4.365 0-.4928.1134-.597.6027-.5984.5674 0 .6773.0908.6801.5913.0042.8794.0092 1.7601 0 2.638 0 .269.1006.388.3724.381.3393-.0093.68 0 1.0201 0 .4724 0 .4929-.0205.4929-.4999V4.6561c0-.5512.107-.6483.6667-.6462h.2111c.2528.0127.383.1541.4041.3991.0092.1042.005.2113.005.3162v4.2566c0 .4308.0295.4526.4653.4547h.9498c.4386 0 .4612-.0218.4619-.454 0-1.5363-.0064-3.0725.0063-4.6087 0-.3337-.1105-.4801-.4478-.4513-1.0187.0937-1.4313-.2576-1.3517-1.332v-.0351c.031-.3358-.1288-.4528-.4568-.4507zm6.3964 0a3.6712 3.6712 0 00-.0072 7.3424h.0543c2.0628.0082 3.7131-1.6111 3.7131-3.6582a3.6691 3.6691 0 00-3.6567-3.6828 3.6712 3.6712 0 00-.1034-.0013zm6.3596 0c-.2726 0-.3796.1254-.3747.3867.0056.3522 0 .7043 0 1.0565.0056.4099.055.4584.4761.4598.9381 0 1.8762.0085 2.8172 0 .2542 0 .3522.0768.3522.3416-.0113.9029 0 1.8058-.0056 2.7087-.0028.362-.1557.5107-.5184.5184-.3874.0092-.7747.0049-1.1614 0-.9937-.0085-1.6966-.5768-1.886-1.5494-.0459-.2494-.1656-.3367-.398-.3367-.3635.0056-.7269.0113-1.0903 0-.3085-.0105-.4098.1162-.3901.4226.0852 1.3163 1.1134 2.6348 2.4177 3.1102.8311.3028 1.6904.2063 2.542.219.5535.0085.5535 0 .557-.538.0078-1.0474.2346-1.2728 1.2875-1.277a.8811.8811 0 01.1056 0c.3049.0338.4162-.102.4113-.4063-.0134-.786-.0049-1.5714-.0049-2.3574 0-.7972-.0042-1.5945 0-2.3946 0-.25-.0944-.3647-.3521-.364-1.5964.0037-3.1915.0037-4.785 0zm-6.3024 1.9328a1.7321 1.7321 0 011.7391 1.722c.0096.953-.7625 1.7526-1.699 1.7588-.9434.0096-1.7631-.797-1.7652-1.7383a1.7321 1.7321 0 011.725-1.7425zm8.9287 6.2413c-.4044.0005-.8088.0057-1.2129.021-1.5473.0577-2.6767.8095-3.3111 2.219-.9966 2.2154.5352 4.8247 2.9539 5.0771.3622.038.431-.0225.436-.3987.005-.3046 0-.6091.005-.9143.0048-.3053.1539-.4635.4493-.4747.2954-.0113.5858-.0105.8784 0 .263.008.41.1406.4058.4219-.0042.3397.0084.6794 0 1.0191-.0063.2715.114.3798.3827.3707.3629-.012.7272-.017 1.0894 0 .301.0148.427-.0992.422-.4038a196.6541 196.6541 0 010-2.9751c.0042-.3088-.133-.31-.4284-.305-.7616.014-1.6149.0049-2.3773.0049-.9846 0-.893-.0917-.9036.893 0 .2426 0 .624-.2651.6802a1.0778 1.0778 0 01-.7216-.1139c-.6182-.3763-.8848-1.2266-.6717-1.9566a1.7203 1.7203 0 011.6064-1.249c.5387-.0106 1.0781 0 1.6176 0v-.0042h1.7583c.2616 0 .391-.1105.3868-.3792-.0056-.3516 0-.7033 0-1.055-.0105-.412-.0584-.462-.4776-.4634-.6738-.0022-1.3482-.0148-2.0223-.014zm-16.236.0002c-.5041.012-1.0118-.0076-1.5124.0072-1.8123.0493-3.4176 1.4616-3.55 3.2386-.0944 1.2596-.0317 2.5348-.0415 3.7972 0 .207.0957.2978.3006.2958H1.492c.4457 0 .4731-.0282.4738-.4852 0-1.0674-.007-2.1347.0064-3.2014.012-.8998.7808-1.699 1.6658-1.737.4795-.0204.9611-.007 1.442-.0056.3049 0 .4472.169.4528.4633a16.861 16.861 0 010 .704c-.0071.4344-.1366.569-.5633.5746-.5513.007-1.1026.0218-1.6532 0-.331-.012-.44.1246-.4281.4344.0134.3394.012.6802 0 1.0203-.0099.2957.1042.4223.4126.4174.5738-.0127 1.149-.008 1.7236.008.378.0112.4964.1408.5084.5245.0092.3049.0134.6104 0 .9153-.0099.276.1118.3774.3794.369.3633-.012.7274-.017 1.09 0 .3105.0155.414-.112.409-.4126-.012-.7858-.0042-1.5716-.0042-2.3573V12.985c0-.954.1225-.8837-.845-.8837h-.1055c-.4766-.0323-.8034-.352-.8344-.8336a4.849 4.849 0 01-.0034-.5632c.0126-.3-.1078-.4338-.414-.426zm3.6796.0009c-.3357-.0043-.4482.1246-.4482.4568.014 1.079.005 2.158.0064 3.2376 0 1.067.0092 2.1348-.0056 3.2018-.005.3379.1191.4434.4525.4434.3081 0 .6228-.004.915-.004.5018 0 .5138-.0113.5145-.511 0-1.5132.0078-3.0265 0-4.539 0-.288.095-.3914.3872-.3865.832.0148 1.6652 0 2.4978.005.6166 0 .6828.0703.6835.6925 0 1.4422.0049 2.8858-.0035 4.3272 0 .2992.1028.4308.411.4153.3273-.0169.6567 0 .9854-.004.461 0 .4927-.0317.4927-.5047v-4.4342c0-.5539-.0198-.5715-.5744-.5743-.9995-.0056-1.2437-.2506-1.243-1.2465v-.1407c.0367-.3195-.1083-.4364-.4258-.4343a428.17 428.17 0 01-4.6454 0zm10.3814 8.997a1.3092 1.3092 0 101.321 1.3165 1.329 1.329 0 00-1.3004-1.3164 1.3092 1.3092 0 00-.0206 0zm3.8498 0c-.5953-.008-.9903.3577-.9559.855.0227.3182.2274.493.4893.6173.1616.0732.3379.1258.4944.21a.1828.1828 0 01.0944.1944.2004.2004 0 01-.1661.1353.512.512 0 01-.3372-.1418c-.1404-.136-.2508-.131-.3838-.01a.8974.8974 0 01-.1464.104c-.1463.0848-.155.1732-.0365.299.3584.3833 1.0275.471 1.467.1836.4901-.321.4886-.9779-.0124-1.277a4.6281 4.6281 0 00-.5697-.2633c-.1067-.0454-.2136-.1097-.1375-.2245.0373-.0556.1273-.1046.2691-.0556a.3284.3284 0 01.1266.087c.1258.1397.2487.142.3832.0124a1.3077 1.3077 0 01.1792-.1353c.1317-.087.1105-.1725.0095-.2713a1.1702 1.1702 0 00-.7672-.3196zm-22.123.003a.847.847 0 00-.2427.0363 1.4693 1.4693 0 00-.3577.1463.6904.6904 0 00-.0285 1.1585 2.2373 2.2373 0 00.3964.2062c.0943.0446.207.0606.2882.1206a.2194.2194 0 01.106.2078.199.199 0 01-.1909.1316.5946.5946 0 01-.3138-.1463c-.139-.1345-.2501-.1294-.3927.0102a.5485.5485 0 01-.1288.0914c-.1535.0805-.16.1624-.0657.2655a1.1432 1.1432 0 00.9917.379c.4966-.0468.8045-.3233.8637-.741.0527-.3554-.139-.6136-.6173-.8272-.1228-.0548-.256-.1016-.37-.1601a.1463.1463 0 01-.0732-.106.1148.1148 0 01.0425-.1288.2786.2786 0 01.122-.041c.082-.01.1684.0659.229.1259.1178.1155.2195.1177.3357.016a2.1042 2.1042 0 01.2092-.1595c.1163-.0789.1185-.1564.0205-.2559-.1843-.188-.4067-.2802-.708-.3219a.847.847 0 00-.1156-.008zm14.7491.0692c-.2143-.007-.2925.0607-.2874.2786.011.5544 0 1.1095.0043 1.664 0 .6194-.0577.5155.5479.5302.1645.004.2289-.0541.2245-.2194-.0088-.3387-.003-.6766-.003-1.0138v-.7423c-.0051-.5559.0731-.4805-.4863-.4973zm-8.1385.001c-.136 0-.1946.0578-.1924.1864.0095.512 0 1.024.0359 1.5302a.833.833 0 00.7218.7832 2.35 2.35 0 00.6246.007c.4213-.052.7073-.3124.7797-.7278a2.6169 2.6169 0 00.0534-.6457 2.276 2.276 0 000-.2502c-.0022-.1484-.0015-.2984-.0022-.449 0-.4746.0498-.4307-.4388-.4315-.302 0-.302 0-.3035.2977 0 .3906.0066.7811-.0066 1.1702-.0088.2538-.1418.3795-.3561.3795-.2143 0-.3314-.1103-.3446-.3583-.0168-.3225-.0123-.6459-.0175-.9684-.0095-.6122.0731-.512-.5537-.5237zm-3.764.0008c-.2962 0-.2962 0-.2976.3056 0 .3555 0 .3554.3599.3562h.1572c.155.007.2143.0476.2113.2048-.008.3657 0 .7365 0 1.1044 0 .5748-.0446.485.512.501.1902.006.2523-.0688.2494-.2487-.0059-.4433 0-.8864 0-1.3296 0-.1704.0388-.2334.2319-.2318h.158c.343 0 .3437 0 .3415-.3533a.936.936 0 01-.0044-.1112c.0037-.1463-.0621-.2004-.2062-.1974-.3006.007-.6012 0-.901 0zm7.8202 0c-.174-.009-.2442.0548-.239.2324.0087.3306 0 .6583 0 .9918v1.0371c0 .136.0423.2122.1937.2085.308-.007.6173.011.9238-.0124.6582-.0497 1.1204-.4945 1.1585-1.081.0497-.7401-.2816-1.2068-1.0042-1.3355-.3357-.06-.6883-.0241-1.0328-.041zm.6104.6713c.5286-.0214.786.2899.6455.7657-.0732.256-.409.4447-.662.3657a.1463.1463 0 01-.0884-.103c-.0066-.3358-.0045-.6722-.0045-1.0196.0376-.004.074-.007.1093-.009zm7.0038.0121a.5464.5464 0 01.5497.5445.5259.5259 0 01-.5515.5515.5288.5288 0 01-.5413-.5397.5464.5464 0 01.543-.5563z"/></svg>