
<svg role="img" viewBox="0 0 24 24" xmlns="http://www.w3.org/2000/svg"><title>Mojang icon</title>
  <path
d="M 0.00352709,3.6848371 C -0.06303959,2.1578798 0.81560812,0.19411651 2.3865184,0.30238497 4.6097555,0.28371981 6.8363216,0.2725221 9.0595593,0.30613575 11.316079,0.45173779 13.07004,2.1877651 14.927176,3.397383 15.037006,2.2400328 14.807361,0.86241074 15.679348,-3.3588992e-6 16.834233,1.4261527 17.589736,3.3376491 19.130692,4.3195309 20.089213,4.8683394 20.937904,3.8640568 21.696734,3.3376491 22.638615,4.9094067 22.978091,6.798503 23.290942,8.6241306 23.690325,10.9687 23.86672,13.346871 23.966566,15.725041 22.911527,15.224771 21.92638,14.560226 20.944561,13.90315 20.09587,10.539364 17.692909,8.0006582 15.033678,6.3616995 12.930255,5.1222141 10.320947,4.8720765 8.1409763,6.0070271 5.8545024,7.0934436 4.3202023,9.871087 4.5598326,12.656197 c 0.073224,3.121115 1.9270281,5.977159 4.4930703,7.130776 4.7094031,2.240036 9.9746151,1.523224 14.9070071,0.847482 0.276241,1.579223 -0.918584,3.087514 -2.246535,3.333917 -6.430082,0.02614 -12.8568364,-0.0074 -19.2869185,0.01493 C 1.0785359,24.173691 -0.05305257,22.702735 0.0168396,21.250445 -0.0064573,15.396487 0.02348877,9.5425312 0.00352454,3.6848397 Z"/>
</svg>
