<svg role="img" xmlns="http://www.w3.org/2000/svg" viewBox="0 0 24 24"><title>Momenteo icon</title><path d="M15.6398 6.048c-.3507.005-.7004.1815-.952.5403-.9714 1.21-1.9286 2.4317-2.8889 3.6506l.4978.6266c.985-1.2434 1.968-2.4884 2.9539-3.731.2662-.3231.6201-.2546.82 0 .2233.2728 1.0538 1.3304 1.753 2.2155.4337.5429.7112.9582.8614 1.2097.4048.6776-.256 1.312-.5132 1.5974L16.061 9.493c-.2067-.2581-.5978-.263-.8109-.01l-2.023 2.5589c-.0816-.1057-.4981-.6312-.931-1.1767l-.4972-.6263c-.2091-.2632-2.6238-3.3406-2.8861-3.6502-.5192-.7413-1.4581-.705-1.958.015-.0386.043-1.1068 1.4005-1.9387 2.4542-.3423.4557-.6203.8644-.764 1.1052-.679 1.1377.2859 2.2502.8026 2.7066.1093.0963.2693.1778.413.1769.1158 0 .2375.009.4388-.239l2.0404-2.5801s1.8692 2.3684 2.0929 2.645c.1926.2361.4955.216.6703-.003.4106-.5231.7212-.9135 1.0905-1.3785l-.4975-.6269c-.317.3994-.6549.8285-.93 1.1775L8.35 9.483c-.213-.253-.6041-.2482-.811.01l-2.1098 2.664c-.2573-.2847-.9181-.9198-.5133-1.5975.1502-.2514.4278-.6669.8614-1.2096.6991-.885 1.5297-1.9427 1.753-2.2156.2006-.2545.5537-.323.82 0 .1091.1334 2.6354 3.3295 2.9502 3.726l.002.002-.001-.001.003.003h.0001l.5184.6532c.4542.5726.9174 1.1576 1.069 1.3523.1748.219.4784.239.6704.003.2238-.2766 2.093-2.6449 2.093-2.6449l2.0398 2.5799c.2006.2479.323.2383.4388.239.1437.0008.3037-.0807.413-.177.5172-.4564 1.4827-1.5687.8026-2.7066-.1437-.2406-.4217-.6495-.764-1.1051-.8313-1.0532-1.9-2.4107-1.9384-2.4541-.2581-.3714-.6326-.561-1.006-.5558zm1.3058 8.539c-.0617 0-.106.0403-.139.0725-.0329.0321-.0463.1034-.0463.1646v.4729h-.1742c-.0617 0-.0889-.005-.121.0273-.032.032-.0289.0582-.0289.1195v.1637c0 .0617-.003.1212.029.1531.032.032.0598.0617.121.0617h.1752v1.2349c0 .2515.0821.463.2487.6273.1665.1642.362.249.5857.2528h.0154c.2536 0 .463-.0906.6245-.2709.0523-.0617.0793-.106.088-.1457.011-.0514-.008-.1055-.0562-.165l-.0005-.0005-.006-.006-.1043-.126c-.0414-.0416-.1607-.1325-.2836.0183a.286.286 0 01-.2315.1132.2749.2749 0 01-.1952-.0819c-.0573-.0534-.0833-.1234-.0833-.216v-1.2349h.4118a.181.181 0 00.1333-.0617c.0321-.0319.0414-.0926.0414-.1531v-.163c0-.0617-.009-.0875-.0414-.1196-.032-.0321-.0724-.0272-.1333-.0272h-.4116v-.473c0-.0616-.0181-.1324-.0502-.1645-.0321-.032-.0812-.0726-.1424-.0726zm-8.866.5692a.977.977 0 00-.118.007 1.1865 1.1865 0 00-.3834.1293.1167.1167 0 00-.037-.0508c-.032-.032-.0792-.0378-.1404-.0378h-.2253c-.0617 0-.0906.006-.1225.0378-.032.0321-.031.0687-.031.1298v2.3556c0 .0617-.002.1261.031.1582.0324.0321.0617.0661.1225.0661h.2253a.2056.2056 0 00.1425-.066c.0321-.0322.0503-.0972.0503-.1583v-1.8904c.0617-.0529.2202-.084.355-.0926.1593-.006.295.0366.407.1308.108.0912.1637.2144.1637.3767v1.4749c0 .0617.0128.126.0448.158s.0758.0662.137.0662h.2254a.208.208 0 00.1434-.066c.0321-.032.0514-.097.0514-.1582v-1.638a.859.859 0 00-.0373-.2315.9172.9172 0 01.39-.1116c.1593-.006.2886.0366.4013.1307.108.0912.1573.2144.1573.3768v1.4749c0 .0617.0194.126.0515.1582.0374.04.089.0637.1437.066h.2253c.0617 0 .0817-.034.1136-.066.032-.0321.0216-.0971.0216-.1582v-1.6393c0-.2843-.0982-.5182-.3446-.6946l-.0005-.0004c-.216-.1544-.437-.2337-.683-.2337a.857.857 0 00-.0726.003c-.2613.0182-.4834.0962-.6685.233l-.0324.0266a1.1137 1.1137 0 00-.707-.2662zm-7.0047.0008a.9819.9819 0 00-.1184.007 1.1872 1.1872 0 00-.3834.1295.1167.1167 0 00-.037-.0508c-.0322-.0321-.0794-.0378-.1405-.0378H.1698c-.0617 0-.099.006-.1309.0378-.032.032-.0389.0677-.0389.1288v2.3556c0 .0617.007.1261.0389.1582.0321.0321.0691.0661.1309.0661H.395a.244.244 0 00.1573-.066.247.247 0 00.065-.1583v-1.8904c.0772-.0529.2054-.084.3405-.0926.1594-.006.2792.0366.3912.1308.108.0912.148.2144.148.3768v1.4748c0 .0617.0211.1261.0531.158a.2124.2124 0 00.1454.0663h.2254a.2065.2065 0 00.1427-.066c.0321-.0322.0508-.0972.0508-.1583v-1.638a.8574.8574 0 00-.0366-.2315.9186.9186 0 01.3904-.1116c.1596-.006.2881.0366.4002.1307.108.0912.1568.2144.1568.3768v1.4749c0 .0617.02.126.0522.1582a.2102.2102 0 00.1443.066h.2253a.2292.2292 0 00.1516-.066.2431.2431 0 00.0593-.1589v-1.6386c0-.2843-.1361-.5181-.3826-.6946v-.0004c-.2161-.1544-.456-.2337-.702-.2337-.0262 0-.0554.001-.0823.003-.2613.0182-.4882.0962-.6732.233l-.035.0266a1.0861 1.0861 0 00-.355-.2037 1.0746 1.0746 0 00-.353-.0617zm13.9266.004c-.0239 0-.0477.0006-.0715.002-.2075.014-.3925.0639-.5501.1485a.1291.1291 0 00-.0426-.0692c-.0321-.0321-.0798-.0378-.141-.0378h-.2252c-.0617 0-.1081.006-.1404.0378-.0323.032-.048.0687-.048.1298v2.3554c0 .0617.0153.1261.048.1582.0327.0321.0792.066.1404.066h.2251a.2194.2194 0 00.148-.066c.032-.032.0558-.097.0558-.1582v-1.8214c.1234-.0983.3048-.1525.5134-.1611.1681-.006.2945.0381.421.1357.1203.0926.1614.2144.1614.3718v1.4749a.2444.2444 0 00.0617.1582.2356.2356 0 00.1543.066h.2253a.2228.2228 0 00.1494-.066c.0321-.0321.0574-.0971.0574-.1582v-1.6385c0-.1914-.0764-.3657-.2095-.5177v.0006a1.1637 1.1637 0 00-.472-.3241 1.2748 1.2748 0 00-.461-.0867zm-9.6677.002c-.3806 0-.71.1369-.9803.4068-.2702.27-.4068.5997-.4068.9802 0 .3805.1369.71.4068.9803.27.2702.5998.4069.9803.4069.3804 0 .71-.137.9802-.407.2702-.2699.4068-.5996.4068-.9802 0-.3807-.1369-.71-.4068-.9802-.27-.27-.5996-.4068-.9802-.4068zm6.8647 0c-.3755 0-.6846.1358-.9161.4038-.228.264-.3438.595-.3438.9832 0 .4075.1281.7441.3808 1.0003.2527.2563.5656.3869.9294.3869.3902 0 .71-.1186.9522-.353.043-.0433.0645-.09.0636-.139-.001-.0489-.026-.0855-.067-.1349l-.1267-.1528c-.0454-.045-.0772-.0965-.2679.024-.2332.1459-.3336.1735-.5542.1735-.1725 0-.3156-.0477-.4375-.1452-.122-.0975-.1971-.1988-.234-.3686h1.691c.0616 0 .109-.0154.1412-.0482.032-.0327.049-.079.049-.1406v-.1025c0-.3882-.1163-.7191-.3443-.9832-.2315-.268-.5402-.4038-.9157-.4038zm7.5022 0c-.377 0-.6891.1358-.9203.4038-.228.264-.346.595-.346.9832 0 .4075.1267.7441.3795 1.0003.2528.2563.565.3869.9286.3869.3904 0 .71-.1186.9518-.353.0431-.0433.0643-.09.0636-.139-.0007-.0489-.026-.0855-.067-.1349l-.127-.1528c-.0451-.045-.0771-.0965-.2676.024-.2332.1459-.3338.1735-.5544.1735-.1724 0-.3156-.0477-.4375-.1452-.122-.0975-.197-.1988-.234-.3686h1.6905c.0617 0 .1284-.0154.1605-.0482.0321-.0327.069-.079.069-.1406v-.1025a1.4726 1.4726 0 00-.3636-.9832c-.2315-.268-.5492-.4038-.926-.4038zm2.912 0c-.3804 0-.7099.1369-.9801.4068-.2703.27-.4069.5997-.4069.9802 0 .3805.137.71.4069.9803.2699.2702.5997.4069.9802.4069.3804 0 .71-.137.9802-.407.2703-.2699.407-.5999.407-.9802 0-.3804-.1369-.71-.4068-.9802h-.0002c-.27-.27-.5998-.4068-.9802-.4068zm-17.279.5825c.2234 0 .4057.0772.5572.2346.1516.1574.227.3453.227.5699 0 .2246-.0744.4112-.227.57-.1526.1588-.334.2346-.5571.2346-.2234 0-.4056-.0772-.5574-.2346-.1517-.1574-.2267-.3453-.2267-.57 0-.2248.0743-.411.2267-.5699.1525-.1588.334-.2346.5574-.2346zm17.279 0c.2234 0 .4057.0772.5573.2346.1515.1574.2268.3453.2268.5699 0 .2246-.0742.4112-.2268.57-.1517.1579-.3339.2346-.5572.2346-.2234 0-.4056-.0772-.5572-.2346-.1516-.1574-.2269-.3453-.2269-.57 0-.2248.0742-.411.227-.5699.1526-.1588.3337-.2346.557-.2346zm-10.4147.003c.1672 0 .299.0497.403.1432.104.0935.1764.224.2173.3783H11.578c.0404-.1543.1135-.2863.2172-.3797.104-.0935.2358-.1418.403-.1418zm7.4934 0c.1673 0 .299.0497.403.1432.104.0935.1764.224.2172.3783H19.071c.0406-.1543.1136-.2863.2172-.3797.104-.0935.2358-.1418.4031-.1418z"/></svg>