<svg xmlns="http://www.w3.org/2000/svg" viewBox="0 0 24 24"><path d="M7.704.52c-1.05.55-1.98 1.842-3.357 4.648-.724 1.464-1.534 2.98-1.791 3.36C1.057 10.713.3 13.107.333 15.655c.018 1.6.431 4.062.482 2.84.034-.894.224-.808.724.362.498 1.206 1.997 3.547 2.96 4.648l.604.69-.344-1.034c-.587-1.756-.174-3.786.929-4.613.723-.535 1.739-.535 4.27-.019 2.997.603 7.18.707 8.867.19 2.084-.636 3.72-1.911 4.528-3.495 1.98-3.925-.206-8.299-5.389-10.762-1.308-.62-3.46-1.188-4.528-1.188-.361 0-.55-.12-.688-.43-.31-.672-1.583-1.98-2.305-2.342C9.632.09 8.513.09 7.704.52zm2.772.928c.344.224.912.844 1.29 1.377l.655.964-.413.465-.413.466.465-.294c.964-.602 3.823-.189 5.872.862 2.324 1.17 5.113 4.046 5.113 5.285 0 .346-.896.5-1.67.294-.878-.26-.912-.24-.912.172 0 .206.293.672.67 1.033.62.62 1.086.792 1.895.67.173-.015.207.12.12.638-.327 1.756-1.497 3.203-3.27 4.03-3.1 1.446-6.717.447-10.211-2.84l-1.086-1v1.773l-.498-.258c-.259-.138-.862-.672-1.308-1.17-.827-.896-.792-.587.05.533.448.603 1.827 1.567 2.239 1.567.173 0 .207-.12.137-.431-.068-.24-.068-.43-.017-.43.07 0 .587.395 1.172.878.585.465 1.687 1.17 2.444 1.55l1.377.706-1.17-.12c-.638-.053-1.928-.259-2.84-.45-3.41-.705-4.822-.446-5.787 1.103-.379.62-.516 1.086-.585 2.014-.034.656-.138 1.206-.206 1.206-.241 0-1.36-2.686-1.533-3.685a15.035 15.035 0 01-.19-2.221c0-1.206 0-1.206-.343-.895-.19.173-.396.276-.448.224-.155-.173.378-2.91.792-3.96.189-.533.74-1.567 1.205-2.274.465-.706 1.377-2.409 2.032-3.769C7.136 1.225 8.547.174 10.476 1.45z"/><path d="M7.6 3.498c-.207.207-.603.862-.895 1.447l-.533 1.067.653-.43c.5-.345.81-.43 1.464-.38.448.035.81-.017.81-.102 0-.276-.69-1.619-.93-1.808-.156-.138-.31-.087-.569.206zm6.2 4.08c-.467.19-.483.363-.139 1.034.344.672 1.395 1 2.135.706.413-.173.517-.328.568-.896.053-.602.017-.688-.447-.844-.602-.206-1.601-.206-2.118 0zm1.445.276a.41.41 0 01-.154.483c-.138.103-.224.293-.19.396.12.36-.258.257-.533-.156-.448-.636-.363-.999.24-.999.328 0 .568.104.637.276z"/></svg>