<svg role="img" xmlns="http://www.w3.org/2000/svg" viewBox="0 0 24 24"><title>MongoDB icon</title><path d="M17.182 9.518c-1.263-5.56-4.242-7.387-4.562-8.086C12.268.939 11.887 0 11.887 0l-.005.049v.013h-.001a.574.574 0 00-.004.039v.015h-.002l-.002.026v.026h-.003c-.001.008-.001.018-.003.025v.021h-.002c0 .007 0 .015-.002.021v.02h-.002l-.002.032v.002l-.01.05v.008h-.001l-.003.012v.017h-.003v.022h-.005v.018h-.005v.021h-.004v.019h-.004v.017h-.006v.014h-.004v.018h-.004v.014h-.005v.013h-.003v.015h-.004l-.001.004v.01h-.003l-.001.006v.006h-.002a.044.044 0 00-.002.01l-.01.021v.002a.03.03 0 00-.005.007v.008h-.004v.008h-.005v.008h-.003v.01h-.006v.014h-.004v.004h-.004v.008h-.004v.011h-.004v.008h-.006v.011h-.004v.008h-.005v.008h-.003v.01h-.005v.008h-.004v.006h-.004v.008h-.006V.76h-.004v.006h-.005v.008h-.004v.011h-.005v.004h-.003v.008h-.006v.004h-.004v.01h-.004v.004h-.004v.008h-.005v.006h-.003l-.002.004v.004h-.002l-.002.004v.001h-.001a.016.016 0 01-.004.007v.003h-.001l-.012.018v.001l-.01.01v.002l-.003.003v.003h-.002l-.003.003v.001h-.001l-.003.004v.004h-.003l-.002.002v.002h-.002c0 .002-.002.002-.002.003v.003h-.004l-.002.003V.92h-.003v.004h-.004V.93h-.004v.008h-.005V.93h-.005v.004h-.004V.94h-.005v.008h-.005v.004h-.004v.006h-.004v.004h-.004V.97h-.006v.004h-.004V.98h-.005v.004h-.004v.005h-.005v.01h-.002v.004h-.006v.005h-.004v.002h-.004v.004h-.005v.01h-.004v.004h-.005v.004h-.004v.006h-.005v.004h-.005v.004h-.004v.004h-.004v.01h-.004v.005h-.006v.004h-.004v.004h-.005v.006h-.004v.004h-.005v.007h-.004v.004h-.006V1.1h-.002v.004h-.004v.004h-.005v.004h-.004v.006h-.005v.004h-.003l-.001.002v.002h-.002l-.004.004-.004.003v.006h-.004v.005h-.004v.004h-.004v.004h-.003l-.003.003v.003h-.002l-.002.002v.003h-.002c-.005.006-.007.01-.014.016a.366.366 0 00-.051.042l-.022.017v.001h-.001a2.821 2.821 0 01-.05.039v.001l-.073.062V1.34h-.002c-.057.047-.117.1-.186.159V1.5h-.001c-.17.148-.37.338-.595.568l-.015.015-.004.004c-1.36 1.407-3.503 4.339-3.73 9.077-.02.392-.015.773.007 1.144v.009c.109 1.867.695 3.461 1.428 4.756v.001c.292.516.607.985.926 1.405v.001c1.102 1.455 2.227 2.317 2.514 2.526.44 1.023.4 2.779.4 2.779l.644.215s-.131-1.701.053-2.522c.057-.257.192-.476.349-.662a8.38 8.38 0 00.797-.645c.018-.019.028-.036.044-.054 1.52-1.418 4.362-4.91 3.388-10.599z"/></svg>