<svg aria-labelledby="simpleicons-mongodb-icon" role="img" viewBox="0 0 24 24" xmlns="http://www.w3.org/2000/svg"><title id="simpleicons-mongodb-icon">MongoDB icon</title><path d="M17.393 11.349c-.009-.403-.045-.806-.096-1.206-.017-.126-.018-.256-.064-.378.011-.112-.023-.219-.048-.325-.283-1.22-.677-2.4-1.228-3.526-.118-.242-.233-.484-.382-.71-.014-.067-.058-.121-.091-.179-.27-.467-.565-.918-.894-1.348-.093-.121-.174-.252-.288-.354-.078-.132-.187-.241-.285-.356-.325-.381-.677-.736-1.023-1.098-.11-.115-.223-.229-.31-.361-.15-.229-.299-.461-.419-.709-.085-.175-.172-.35-.259-.523-.006-.07-.04-.127-.071-.185.004-.033-.01-.06-.032-.082-.015-.014-.034-.012-.037.012-.003.022.002.047.004.07-.01.066-.021.133-.028.199-.021.187-.093.354-.2.504-.119.17-.251.328-.419.455-.063.047-.131.09-.173.159l.001-.001c-.006.019-.019.031-.038.036-.054.057-.113.109-.178.154-.16.117-.293.264-.434.402-.034.033-.074.063-.089.111-.031.027-.067.051-.095.082-.154.172-.309.344-.458.52-.106.125-.22.244-.3.389-.152.171-.288.355-.404.552-.093.102-.16.223-.236.337-.046.07-.101.134-.124.217h.001c-.016.022-.008.059-.044.07v-.001c-.006.082-.047.142-.113.186-.02.029-.045.057-.062.088-.127.234-.255.469-.378.705-.077.15-.161.299-.21.462-.091.164-.169.334-.22.514-.031.025-.036.063-.05.098-.274.682-.489 1.383-.649 2.101-.032.136-.078.27-.077.414-.008.016-.02.031-.023.049-.136.71-.227 1.426-.263 2.148-.013.274-.012.551-.014.826-.005.602.06 1.198.169 1.788.233 1.258.683 2.437 1.32 3.544.506.88 1.111 1.686 1.805 2.426.204.219.407.44.641.629.046.055.09.11.157.141l.003.003c.012.011.022.021.034.032l.004.004c.033.054.079.093.138.117l.001.003c.016.042.055.063.086.09.149.122.3.243.45.362.048.037.099.07.135.12.018.118.063.228.109.336.011.102.034.2.073.295.004.127.033.248.072.368-.014.114.023.222.04.332.002.075-.021.154.031.223.001.023.002.047.003.07.015-.009.013-.024.018-.038-.002.013-.01.025-.018.038.001.037.002.074.002.111 0 .084 0 .167.001.251 0 .031.009.059.032.08v.001c.001.073.001.146.002.219.027.035.048.038.069.043-.002.003-.003.006-.005.01-.028-.022-.046-.037-.064-.053.001.147.002.294.004.44.062.056.136.072.216.075.079.047.166.067.257.072.019.001.037-.001.055-.005.024-.005.048-.02.049-.047.004-.121.053-.236.045-.36-.008-.109-.004-.22-.001-.329.003-.099-.005-.194-.036-.288.001-.09-.014-.184.007-.27.042-.18.022-.359.027-.539.003-.06-.004-.122.012-.178.027-.1.028-.2.028-.301.011-.028.025-.056.031-.085.049-.259.156-.489.33-.688.107-.081.217-.16.32-.246.158-.132.329-.252.464-.412.024-.018.052-.032.073-.052.41-.377.785-.786 1.132-1.222.132-.166.273-.327.376-.516.001-.024.016-.039.035-.051v.001c.04-.026.064-.063.075-.109.005-.018.019-.027.029-.041l.002-.003c.022-.018.014-.055.043-.068l-.002.002c.005-.018.02-.028.031-.041l.002-.003c.021-.018.013-.055.042-.068l-.002.003c.005-.019.02-.029.031-.042l.002-.003c.04-.022.054-.065.076-.101.187-.288.354-.587.511-.892.427-.832.742-1.704.95-2.615.035-.154.081-.308.084-.469.035-.059.037-.123.033-.188.01-.008.012-.017.005-.028.033-.06.035-.125.03-.191.003-.024.006-.048.01-.072.007-.017.018-.032.02-.049.068-.51.1-1.022.108-1.535.005-.183-.008-.366-.012-.549z"/></svg>