<svg aria-labelledby="simpleicons-mongodb-icon" role="img" viewBox="0 0 24 24" xmlns="http://www.w3.org/2000/svg"><title id="simpleicons-mongodb-icon">MongoDB icon</title><path d="M12.595 21.642c.051-.26.158-.49.332-.69.108-.081.217-.16.321-.246.158-.132.33-.253.465-.413.025-.018.859-.84 1.207-1.276.133-.166.393-.556.412-.567 0 0 .309-.439.332-.475.186-.288.354-.588.512-.894.426-.833.742-1.707.951-2.62.035-.154.18-.983.182-1 .068-.511.1-1.024.109-1.538.004-.184-.01-.367-.014-.551-.01-.404-.045-.808-.096-1.209-.018-.126-.088-.598-.113-.704-.283-1.222-.678-2.405-1.23-3.534-.117-.242-.439-.832-.473-.891-.27-.467-.566-.919-.896-1.35-.092-.121-.475-.598-.574-.713-.326-.381-.678-.737-1.026-1.1-.109-.115-.223-.229-.309-.361-.152-.23-.301-.463-.42-.711-.086-.176-.174-.35-.26-.524 0 0-.082-.243-.105-.267-.014-.014-.053.216-.061.282-.021.187-.094.354-.201.505-.119.17-.252.328-.42.456-.063.047-.322.304-.387.349-.16.117-.295.264-.436.402-.033.033-.156.163-.184.194-.153.172-.307.345-.458.521l-.301.389s-.566.777-.641.893c-.046.067-.325.528-.343.56-.127.234-.256.468-.379.706-.078.151-.467 1.042-.48 1.077-.275.683-.49 1.385-.65 2.104-.032.137-.098.447-.102.464-.137.711-.227 1.428-.264 2.152-.012.275-.012.552-.014.828-.004.603.061 1.2.17 1.791.234 1.261.684 2.441 1.322 3.552.508.882 1.113 1.688 1.809 2.431.205.219.408.441.643.63.045.055.393.364.424.391.148.122.32.221.451.363.209.229.318.752.318.752l.072.369s.023.222.039.333c.002.075.074 1.251.076 1.397 0 0 .576.124.576.097l.114-2.354z"/></svg>