<svg xmlns="http://www.w3.org/2000/svg" viewBox="0 0 16 16"><path d="M13.148.402H2.87A2.57 2.57 0 0 0 .3 2.972V13.25a2.57 2.57 0 0 0 2.57 2.57h10.278a2.57 2.57 0 0 0 2.57-2.57V2.972a2.57 2.57 0 0 0-2.57-2.57zM8.224 10.87l-.556-4.342-1.657 2.98-1.666-2.97-.555 4.332H2.557l.898-6.48h.972L6.01 7.34 7.586 4.39h.972l.898 6.48h-1.23zm4.194-3.685H11.4v2.092c0 .704.056.74.704.74h.315l-.103.945h-.824c-.87 0-1.24-.61-1.24-1.213V7.184h-.66l.103-.944h.555V5.223l1.15-.12v1.14h1.017v.943zm1.078 3.778h-.954l.103-.954h.954l-.104.953z"/></svg>