<svg role="img" viewBox="0 0 24 24" xmlns="http://www.w3.org/2000/svg"><title>Montecristo</title><path d="m15.637 15.93-7.528.087-1.596 2.314 10.87-.063zm-7.275-.275 7.12.069-3.72-4.996zm-3.445-.035 2.98.029 3.715-5.122-1.527-2.056zm8.389-7.132-1.418 2.05 4.036 5.186 2.985.028zm-1.671-2.164-1.46 2.015 1.563 2.01 1.453-2.004zm-.012-.735.557-.816c-.356-.46-.235-1.068-.068-1.355l-.3-.224c-.16.115-.303.236-.464.368.247.281.23.941-.155 1.44zm9.796 10.933.006.551c.04.11.074.213.097.327.167-.246.414-.413.804-.453.356.011.816.212.867.752.104.063.104.253-.017.287-.115.017-.19-.132-.132-.253a.467.467 0 0 0-.126-.356c-.287-.183-.615-.39-1.16.023-.155.121-.167.115-.224.288.006.08 0 .488.006.574h.143c.035-.023.075-.058.144-.063a2.324 2.324 0 0 1 1.022.023l.057.023h.138c.063-.213.27-.144.26.028.182-.086.458-.069.584-.04.086.04.11.086.11.12-.007.035 0 .075 0 .081.005.04 0 .075-.087.115-.126.029-.425.04-.608-.052.017.132-.12.259-.264.035h-.115l-.058.023c-.293.074-.66.126-1.039.046-.069-.006-.11-.046-.138-.07l-.143.006c0 .155-.012 1.011-.098 1.114l.006.46c.03.034.046.074.04.149-.006.075-.046.15-.109.144-.069-.006-.109-.098-.103-.19.006-.052.017-.08.046-.109l-.006-.448c-.362-.029-.873-.402-.942-.953l-2.164-.029.39.505c.476-.166 1.091-.08 1.32.156l.218-.133a.187.187 0 0 1 .058-.109c.07-.063.15-.057.195-.011.046.052.017.126-.034.178-.052.052-.092.063-.132.063-.184.132-.138.126-.316.276a2.27 2.27 0 0 1-.592.631l.08.115c.04.012.087.035.133.086.281.282.35.408.47.69l.018.063.057.074c.236-.097.253.16.161.241.201.07.35.328.396.46.023.092-.006.126-.04.143-.006 0-.034.023-.063.046-.029.023-.08.029-.16-.011a1.048 1.048 0 0 1-.3-.506c-.126.121-.327-.023-.224-.2l-.057-.058-.069-.023c-.24-.178-.35-.299-.528-.637a.384.384 0 0 1-.046-.155l-.098-.121c-.068.046-.603.39-.67.436-.156.879.504 1.2 1.136.908.045-.12.206-.167.264-.063.04.137-.04.235-.184.206-.569.442-1.464.132-1.453-.93-.207.115-.253.155-.447.287a.215.215 0 0 1-.097.12c-.08.047-.15.04-.184-.016-.035-.058.01-.15.069-.184.057-.035.092-.029.126-.029l.401-.304c-.223-.454-.16-1.08.23-1.424l-.585-.781-11.266-.15-.592.856c.442.425.414 1.005.23 1.36l.488.328c.035-.005.08-.017.144.017.057.035.12.132.086.19-.035.057-.127.069-.207.029a.184.184 0 0 1-.092-.11c-.281-.166-.264-.149-.551-.298.155.775-.534 1.447-1.327 1.108-.137.035-.235.012-.23-.138.052-.103.19-.074.265.03.15.045.293.056.534.022.212-.092.632-.253.586-.924-.012-.196-.058-.115-.161-.265-.07-.04-.517-.344-.592-.384l-.114.16c0 .04.006.092-.03.155-.16.345-.31.552-.54.741l-.051.035-.074.115c.137.178-.04.304-.173.189-.034.201-.19.379-.287.465-.08.046-.132.04-.16.017a1.544 1.544 0 0 0-.064-.046c-.034-.017-.057-.04-.046-.132.052-.12.196-.333.38-.43-.115-.058-.138-.247.126-.236l.069-.092.017-.063c.109-.281.212-.528.494-.792.046-.052.097-.063.137-.075l.11-.15a6.73 6.73 0 0 1-.638-.493c-.126-.08-.143-.155-.143-.155l-.483-.31c-.04 0-.074 0-.132-.046-.057-.046-.092-.15-.052-.201.046-.052.138-.046.207.011.04.035.063.075.07.115l.453.299c.224-.247.752-.546 1.332-.287l.454-.626-4.847-.063v-.063l4.96-.03 1.678-2.313-3.026.034-1.298 1.792-.046-.04 1.2-1.758-.58.006c-.086.505-.39.861-1.004.982l.028.534c.023.029.04.04.046.11.006.068-.011.166-.08.171-.07.006-.12-.063-.126-.155a.222.222 0 0 1 .034-.143l-.057-.482-.012-.104c-.011-.063-.011-.074-.023-.15-.086.185-.454.38-.878.409-.362.005-1.017-.178-1.097-.684-.075-.08-.115-.258.011-.298.115-.018.173.114.11.275.005.155.189.299.304.368.379.281 1.292.235 1.493-.322-.006-.08-.023-.551-.03-.637h-.2c-.034.023-.075.057-.144.063-.373.069-.855 0-1.142-.08l-.058-.023H.915c-.064.212-.27.143-.259-.03-.184.087-.42.064-.545.035-.086-.04-.11-.086-.11-.12.007-.035 0-.075 0-.08-.005-.04 0-.075.087-.115a.954.954 0 0 1 .568.057c-.017-.132.132-.31.241-.034h.138l.057-.023c.293-.075.78-.07 1.16.005.07.006.11.046.144.07l.184.005c-.023-.172.034-1.01.16-1.16l.018-.505c-.03-.035-.04-.064-.035-.138.006-.075.035-.161.104-.155.069.005.115.086.109.178a.197.197 0 0 1-.052.12l.029.523c.362.063.9.43.947 1.068l.896.011 5.1-7.447L7.368 4.83l.05-.035L9.94 8.034l1.419-2.073-.534-.69c-.546.27-.867.19-1.38-.195l-.36.282c-.017.092-.19.212-.247.12-.075-.109.092-.264.184-.218l.344-.27.057-.08c.046-.052.052-.16.156-.23-.753.172-1.626-.838-.925-1.63.006-.144.172-.236.24-.15.047.086-.028.19-.15.236a.824.824 0 0 0-.205.505c0 .362.27.827.81.884.258-.006.31-.017.425-.069.057-.057.339-.264.402-.316l-.063-.091c-.04-.012-.087-.018-.133-.064-.287-.252-.602-.683-.717-.959l-.018-.057-.063-.098c-.206.08-.235-.126-.132-.218-.184-.092-.316-.304-.373-.419-.017-.092-.012-.138.01-.167.019-.022.053-.04.053-.045.029-.03.069-.04.155.005.098.08.276.31.316.511.092-.097.276-.017.178.161l.069.092.052.034c.24.184.557.552.735.896.034.058.05.12.05.161l.093.115c.224-.184.437-.339.672-.488.023-.012.098-.052.195-.07l.414-.315c-.03-.006-.063-.011-.092-.034-.08-.046-.115-.138-.075-.196.035-.057.127-.063.207-.017a.194.194 0 0 1 .086.11l.023.016.029-.023a.17.17 0 0 1 .086-.114c.063-.04.092-.018.126.034.04.057.006.11-.07.16a.498.498 0 0 0-.045.035l.253.201.126.104c.242.143.465.293.695.47l.12-.132c0-.04-.005-.097.03-.155.16-.35.522-.804.757-.993l.052-.034.058-.07c-.11-.218.09-.286.183-.195.035-.2.196-.407.293-.493.086-.046.115-.03.144 0 0 .005.017.011.05.028.036.018.053.063.036.161-.052.115-.19.339-.356.43.138.121.046.3-.11.225l-.057.086-.017.074c-.11.282-.43.747-.706 1.005-.046.052-.103.058-.144.075l-.097.172.178.15c.172.057.35.103.545.068.632-.114.804-.516.793-.867a1.087 1.087 0 0 0-.184-.43c-.092-.035-.201-.178-.12-.259.097-.069.212.023.223.167.724.735-.15 1.728-.953 1.579.052.052.08.11.12.16l.196.156.42.339c.045 0 .09.017.137.057.069.063.086.155.04.207-.046.051-.138.04-.207-.023a.221.221 0 0 1-.063-.104l-.453-.361c-.494.396-.88.459-1.373.19l-.643.89 1.516 2.078 2.417-3.33.052.034-2.371 3.434 5.534 7.58 3.336.034v.063l-3.238.04 1.033 1.413-.046.04-1.12-1.453-2.933.035 1.825 2.343 2.424-.012c.057-.568.453-1.005.982-1.177l-.023-.546c-.023-.028-.04-.04-.046-.109-.006-.069.028-.184.092-.184.068 0 .097.04.11.133.005.074-.007.097-.036.132zm-11.007-5.484-.92-.683.489-.655.115.086-.396.534.275.201.362-.494.11.08-.362.495.31.23.402-.546.114.086zm-.483.649-.81-.597-.212.293-.11-.08.524-.707.109.08-.213.293.81.597zm-.918 1.252-.92-.684.104-.137.988.063c.023 0 .04.005.057.005a.1.1 0 0 1 .046.012l-.746-.551.086-.12.919.682-.098.138-1.005-.063c-.017 0-.03-.006-.046-.006-.017 0-.028-.005-.046-.011l.747.551zm-1.315.81c-.15-.115-.241-.242-.27-.38a.496.496 0 0 1 .109-.413c.103-.138.224-.213.362-.224.143-.011.287.034.442.15.15.114.24.24.27.378a.5.5 0 0 1-.11.414.501.501 0 0 1-.367.224c-.138.011-.281-.04-.436-.15zm.097-.133c.12.086.23.127.34.12a.332.332 0 0 0 .263-.154.361.361 0 0 0 .07-.299.53.53 0 0 0-.22-.287.579.579 0 0 0-.338-.126.341.341 0 0 0-.264.15.361.361 0 0 0-.07.298c.03.12.099.212.219.298zm-1.183.919.78.58-.085.115-.918-.683.132-.178.872.292c.023.006.046.018.058.018.01.005.023.011.034.011a.25.25 0 0 0-.034-.04c-.012-.012-.017-.023-.03-.035l-.527-.758.132-.178.919.684-.092.12-.781-.58c.01.012.023.03.034.04a.173.173 0 0 1 .03.04l.527.759-.086.12-.873-.287c-.017-.005-.028-.011-.045-.017-.012-.006-.03-.011-.046-.023zm9.51-.568c.149-.115.292-.173.436-.167.144.012.27.08.373.213.104.132.15.27.12.407-.022.144-.108.27-.258.39-.15.121-.292.173-.436.167-.144-.006-.264-.08-.373-.212a.504.504 0 0 1-.127-.414c.03-.138.115-.264.265-.384zm.097.126a.536.536 0 0 0-.207.293c-.023.103.006.2.08.298a.364.364 0 0 0 .27.144c.11 0 .219-.046.334-.138a.536.536 0 0 0 .207-.293.335.335 0 0 0-.08-.293.347.347 0 0 0-.27-.143c-.11-.006-.22.04-.334.132zm-.987-.327.786-.626-.224-.282.11-.086.545.69-.11.085-.223-.281-.787.626zm-.603-1.356.092.115a.264.264 0 0 0-.104.19.31.31 0 0 0 .075.212c.057.07.115.115.172.127a.176.176 0 0 0 .167-.035c.069-.057.063-.172-.023-.35-.006-.012-.012-.017-.012-.023a.832.832 0 0 1-.097-.316.253.253 0 0 1 .103-.178.297.297 0 0 1 .264-.063.46.46 0 0 1 .258.172c.08.098.115.195.11.293a.344.344 0 0 1-.138.253l-.092-.115a.258.258 0 0 0 .092-.172.296.296 0 0 0-.075-.19.278.278 0 0 0-.155-.11c-.057-.01-.103-.005-.15.03-.068.057-.062.172.024.344.01.029.023.046.029.058 0 0 .006.005.006.017.05.115.08.2.08.252 0 .04-.012.08-.03.115a.316.316 0 0 1-.08.098.318.318 0 0 1-.281.069.523.523 0 0 1-.275-.19.471.471 0 0 1-.12-.321c.005-.104.062-.195.16-.282zm-.58-.126.895-.712.098.12-.896.713zm.166-1.62.276.345a.806.806 0 0 1 .092.132.3.3 0 0 1 .034.092.242.242 0 0 1-.017.155.337.337 0 0 1-.11.132.273.273 0 0 1-.15.07.251.251 0 0 1-.154-.03c.018.04.023.081.012.115a.33.33 0 0 1-.098.121l-.137.126a.5.5 0 0 0-.064.07c-.011.016-.011.034-.011.057l-.023.017-.11-.138a.386.386 0 0 1 .104-.12s.006 0 .006-.006l.11-.098c.057-.052.085-.097.085-.132 0-.034-.034-.098-.103-.184l-.155-.195-.385.304-.097-.12zm-.011.202-.305.24.167.208c.057.074.115.12.16.132.052.011.104-.006.16-.052.053-.04.08-.086.076-.132 0-.046-.034-.11-.098-.19zm-.821-.098.09.12a.478.478 0 0 1-.35.098.474.474 0 0 1-.31-.19.455.455 0 0 1-.108-.395c.029-.138.12-.27.27-.39a.64.64 0 0 1 .425-.156.497.497 0 0 1 .367.207c.08.103.12.207.12.31 0 .109-.04.2-.125.281l-.098-.12a.274.274 0 0 0 .075-.19.324.324 0 0 0-.086-.207c-.075-.091-.161-.137-.265-.132a.534.534 0 0 0-.327.138.521.521 0 0 0-.2.287.344.344 0 0 0 .062.287.32.32 0 0 0 .213.127.368.368 0 0 0 .247-.075zm-1.93 1.826v-.034m2.952 5.19.425-1.148H15l.425 1.149h-.167l-.12-.345h-.454l-.12.345zm.333-.476h.356l-.178-.505zm-1.5.477v-1.149h.173l.534.839a.22.22 0 0 1 .029.051.173.173 0 0 1 .023.046v-.93h.15v1.148h-.167l-.546-.85-.023-.04c-.006-.011-.011-.028-.017-.046v.93zm-1.285 0 .425-1.149h.172l.425 1.149h-.167l-.12-.345h-.448l-.12.345zm.333-.477h.356l-.178-.505zm-1.246.339h.316c.08 0 .137-.017.178-.052a.194.194 0 0 0 .063-.155.182.182 0 0 0-.063-.15.349.349 0 0 0-.196-.045h-.298zm0-.528h.275a.3.3 0 0 0 .178-.046c.04-.03.058-.075.058-.138 0-.058-.017-.104-.052-.132-.034-.029-.092-.04-.166-.04h-.288v.356zm-.155.666v-1.149h.459a.44.44 0 0 1 .27.07c.057.045.086.114.086.212a.283.283 0 0 1-.04.155.293.293 0 0 1-.12.097.27.27 0 0 1 .16.092c.04.046.057.11.057.184a.33.33 0 0 1-.103.253c-.07.063-.16.091-.281.091h-.488zm-1.287 0 .425-1.149h.173l.425 1.149h-.167l-.12-.345h-.454l-.12.345zm.333-.477h.356l-.178-.505zm1.522-4.68a1.688 1.688 0 0 1 .077-.517c.062-.182.173-.453.306-.532.302.412.41.943.33 1.444-.036.267-.103.527-.165.788.186-.302.45-.612.826-.647.327-.057.68.171.73.506.044.228-.01.538-.255.626-.188.083-.475-.05-.438-.28-.028-.154.31-.21.136-.314a.305.305 0 0 0-.258-.091c-.113-.012-.214.046-.32.08a.71.71 0 0 0-.283.27c.269.022.165.442-.078.402-.076.135.16.394.335.436.106.043.326.076.375.017a.207.207 0 0 1-.157-.16c-.001-.065-.008-.13.036-.184.026-.08.118-.103.186-.132.118-.006.252.017.327.115.094.075.086.195.083.303-.027.085-.046.188-.124.242-.07.094-.183.133-.293.155-.117-.006-.24.011-.354-.01-.097-.04-.213-.052-.294-.122-.06-.056-.13-.138-.184-.178-.004.117.008.237-.006.35-.055.095-.092.203-.16.287-.074.132-.147-.018-.192-.102-.094-.178-.11-.383-.125-.58-.237.268-.643.413-.982.258a.76.76 0 0 1-.173-.172.564.564 0 0 1-.054-.287c-.004-.109.088-.202.175-.253.14-.067.335-.07.425.077.14.138-.075.311-.114.342.312.067.7-.13.734-.47-.23.06-.393-.31-.15-.397.074-.045-.134-.193-.206-.245-.191-.133-.512-.164-.65.062.162.072.285.294.144.442-.142.16-.43.13-.54-.046-.096-.121-.106-.281-.1-.43a.642.642 0 0 1 .226-.437.712.712 0 0 1 .57-.131.75.75 0 0 1 .326.142c.157.094.269.245.402.367.043.046.088.098.058.003-.05-.295-.108-.59-.15-.885-.003-.033.006-.192-.007-.116.003.037-.016-.009.005.004zm-3.026 5.157v-1.149h.155v.471h.59v-.47h.157v1.148H9.17v-.54h-.59v.54z"/></svg>