<svg role="img" viewBox="0 0 24 24" xmlns="http://www.w3.org/2000/svg"><title>Motorola icon</title><path d="M11.532 23.996c-1.332-.074-2.418-.283-3.54-.68a12.015 12.017 0 01-7.77-9.02 11.993 11.995 0 012.146-9.454 12.794 12.796 0 012.287-2.334 12.087 12.09 0 014.11-2.07 12.194 12.196 0 017.082.183 11.957 11.96 0 016.576 5.411 12.065 12.067 0 01.678 10.536 12.067 12.07 0 01-3.88 5.016c-1.697 1.28-3.625 2.057-5.787 2.333a15.58 15.582 0 01-1.902.08zm-6.428-6.431a.621.621 0 00.02-.097c0-.043.26-.974.374-1.338.294-.946.67-1.852 1.006-2.413.48-.806 1.09-1.293 1.815-1.448.186-.04.652-.033.82.012.455.121.86.404 1.286.9.23.264.443.557.612.84.161.266.563 1.063.785 1.556.087.192.163.356.17.364.005.008.06-.096.12-.23.175-.397.583-1.226.74-1.506.488-.87 1.117-1.546 1.684-1.81.248-.117.415-.15.76-.149.27 0 .336.007.507.053.407.108.753.314 1.098.654.34.336.595.716.888 1.327.367.764.784 1.98 1.044 3.044l.077.316h.408c.397 0 .408-.001.398-.04a2906.157 2906.59 0 00-4.342-14.184c-.01.012-1.477 4.867-2.956 9.788-.215.716-.398 1.31-.406 1.318-.009.01-.025 0-.035-.02-.01-.02-.765-2.51-1.675-5.534L8.631 3.42c-.015-.047-.017-.047-.03-.01A8572.953 8574.23 0 006.837 9.21a32369.566 32374.386 0 00-2.553 8.376l-.018.055h.817z"/></svg>