<svg aria-labelledby="simpleicons-mozillafirefox-icon" role="img" viewBox="0 0 24 24" xmlns="http://www.w3.org/2000/svg"><title id="simpleicons-mozillafirefox-icon">Mozilla Firefox icon</title><path d="m 19.856763,13.062191 c -0.887805,-1.834145 -1.995365,-2.634145 -3.044146,-3.501218 0.121952,0.1707317 0.151952,0.2309756 0.219513,0.3414633 0.922682,0.9834147 2.28317,3.3819507 1.295365,6.3929247 -1.859268,5.66756 -9.2953633,2.99878 -10.0758509,2.249024 0.3153657,3.280243 5.8048759,4.849755 9.3804849,2.723902 2.034146,-1.926829 3.679756,-5.200243 2.224634,-8.206096 z m 0.364146,6.490243 c 2.540487,-2.49439 3.825853,-5.52634 3.282438,-8.926827 0,0 0.217074,1.743902 -0.606097,3.52756 0.395366,-1.741219 0.441463,-3.905121 -0.609756,-6.1463399 C 20.885787,5.0156083 18.57969,3.4417062 17.699203,2.785121 16.3653,1.7902432 15.812618,0.77731667 15.80213,0.56829233 15.403593,1.3848774 14.197984,4.1829255 15.672618,6.5926811 c 1.381463,2.2575604 3.55756,2.9268285 5.081218,4.9999989 2.806829,3.813901 -0.532927,7.959754 -0.532927,7.959754 z M 4.2348158,3.8163403 c -0.02439,-0.04439 -0.039024,0.091463 -0.058537,0.04878 C 4.0299378,3.5282916 3.9426207,2.9821941 3.9635963,2.5968284 c 0,0 -0.3004877,0.1368292 -0.5490242,0.7087803 -0.046098,0.1026829 -0.075854,0.1595121 -0.1053659,0.2160975 -0.013659,0.016585 0.030976,-0.1878048 0.02439,-0.1765853 -0.043171,0.073171 -0.1551219,0.1753658 -0.2036585,0.3019511 -0.040244,0.1034146 -0.081707,0.1590244 -0.112439,0.2870731 -0.00951,0.034878 0.00951,-0.1541463 0,-0.1312195 C 2.4399382,4.9190229 2.3294504,6.6097542 2.390426,6.5365835 3.6216452,5.2229253 5.0321327,4.911218 5.0321327,4.911218 4.8821327,4.8007303 4.5557913,4.4812182 4.2345719,3.8163403 Z M 12.022131,7.78951 C 12.031643,7.5756076 11.920667,7.4319491 10.151888,7.2660955 9.4240828,7.1987785 9.1455463,6.5263396 9.0604244,6.2431689 8.8016439,6.9153639 8.6945708,7.6209735 8.7521317,8.4743879 c 0.039268,0.5590243 0.4146341,1.1590241 0.5943901,1.5121948 0,0 0.04,-0.051951 0.058293,-0.070976 C 9.7428632,9.5636559 11.159448,9.0273146 11.292375,8.9512171 11.439204,8.8575586 11.997497,8.4497538 12.022131,7.78951 Z m 8.203168,11.74707 c 0.514147,-0.566829 0.97561,-1.215122 1.32561,-1.951219 0.9,-1.892195 2.292682,-5.038535 1.195122,-8.3246318 C 21.880177,6.6639005 20.690665,5.2439009 19.181153,3.8565842 16.728715,1.6039018 16.043837,0.59804842 16.043837,-2.2180872e-7 c 0,0 -2.831463,3.15634062180872 -1.603414,6.44829102180872 1.228048,3.2919505 3.742926,3.170731 5.406828,6.6065832 1.957804,4.042438 -1.584146,8.453901 -4.512194,9.688779 0.179268,-0.03976 6.512193,-1.472683 6.844144,-5.094633 -0.0085,0.06658 -0.151219,1.068292 -1.953902,1.88756 z m 1.534878,-2.409024 c 0.09268,-0.130731 0.218049,-0.549512 0.328781,-0.736829 0.672682,-1.085853 0.67756,-1.951219 0.67756,-1.971707 0.406342,-2.029755 0.369512,-2.858535 0.119513,-4.390242 C 22.684811,8.7946317 21.805055,7.0265834 21.04286,6.1751202 20.257495,5.2970716 20.810909,5.5836569 20.050421,4.9429254 19.383836,4.204145 18.737739,3.4724379 18.385788,3.1780477 15.842374,1.0509751 15.899691,0.59951183 15.948715,0.52243868 c -0.0083,0.009024 -0.02049,0.022439 -0.03585,0.04 -0.03024,-0.11999997 -0.05146,-0.22097556 -0.05146,-0.22097556 0,0 -1.390243,1.39024348 -1.682926,3.70731608 -0.190976,1.5121948 0.375122,3.0897554 1.195121,4.09756 a 9.3078026,9.3078026 0 0 0 1.439024,1.4146338 v 0 c 0.619512,0.889756 0.960488,1.98756 0.960488,3.168536 0,2.957072 -2.398536,5.354389 -5.357316,5.354389 A 5.369267,5.369267 0 0 1 11.217497,17.949263 C 9.8213998,17.682922 9.0150585,16.978532 8.6131074,16.500239 8.3826196,16.226337 8.2848148,16.026581 8.2848148,16.026581 c 1.2507314,0.448049 2.6341452,0.35439 3.4748772,-0.110244 0.847561,-0.469756 1.360243,-0.818292 1.776585,-0.680975 0.410244,0.136829 0.736829,-0.260244 0.443902,-0.671707 -0.287073,-0.410976 -1.034146,-1 -2.143414,-0.836342 -0.848536,0.123659 -1.625853,0.725854 -2.7375602,0.142439 A 2.3741458,2.3741458 0 0 1 8.8906683,13.747801 c -0.073171,-0.04317 0.2382926,0.06561 0.1656097,0.01658 -0.2163414,-0.105365 -0.5992681,-0.334878 -0.6985364,-0.416341 -0.016585,-0.01366 0.1678048,0.05268 0.1512195,0.03902 -1.039512,-0.767073 -0.9097559,-1.285121 -0.8780486,-1.609755 0.026098,-0.26 0.214878,-0.593171 0.5331706,-0.728293 0.1536585,0.07512 0.2495121,0.132439 0.2495121,0.132439 0,0 -0.06561,-0.12 -0.1009755,-0.18317 0.012439,-0.0046 0.02439,-0.0037 0.036585,-0.0083 0.1258536,0.05439 0.4043902,0.195122 0.5509755,0.282195 0.1909756,0.120732 0.2517072,0.228293 0.2517072,0.228293 0,0 0.050244,-0.02439 0.013171,-0.13 -0.013659,-0.04317 -0.071463,-0.180244 -0.2604878,-0.318781 h 0.011707 a 2.2353653,2.2353653 0 0 1 0.3202439,0.199268 c 0.053415,-0.173658 0.1492682,-0.355121 0.1280487,-0.679512 -0.012927,-0.228048 -0.00683,-0.287317 -0.051707,-0.375365 -0.040244,-0.07561 0.022439,-0.105122 0.092195,-0.02659 A 0.72512177,0.72512177 0 0 0 9.3455462,9.9904851 v -0.00585 C 9.4326192,9.7129279 11.187741,9.0060988 11.315546,8.9234159 a 1.7131703,1.7131703 0 0 0 0.516341,-0.5031743 c 0.09756,-0.1395122 0.170732,-0.334878 0.189024,-0.6314633 0.0061,-0.1336585 -0.03512,-0.2395121 -0.5,-0.3414633 C 11.241887,7.3865833 10.81018,7.3275589 10.14457,7.2651199 9.6592047,7.2221931 9.3743267,6.9070712 9.2126194,6.6163396 9.1831073,6.5536567 9.1528634,6.4968274 9.1228634,6.4402421 A 1.3026826,1.3026826 0 0 1 9.053839,6.2363397 3.865121,3.865121 0 0 1 10.548473,4.3812182 c 0.03902,-0.031951 -0.156098,0.00805 -0.117074,-0.02439 0.04561,-0.037073 0.342927,-0.1446341 0.399269,-0.1687804 C 10.899204,4.1590231 10.537985,4.0212183 10.217009,4.0546329 9.8911559,4.0875597 9.8221315,4.1224378 9.6482291,4.1885353 9.7213998,4.1241451 9.9499363,4.0397548 9.8960339,4.0402427 9.5448145,4.0890231 9.1082292,4.2714621 8.7350586,4.4792669 A 0.23707311,0.23707311 0 0 1 8.7574976,4.374145 C 8.5835952,4.4402426 8.1565221,4.7075596 8.0323758,4.9351205 A 0.97048757,0.97048757 0 0 0 8.0394458,4.8046327 2.1597556,2.1597556 0 0 0 7.6833483,5.138779 l -0.00659,0.00537 C 6.6696932,4.7804864 5.7821325,4.7560961 5.0321327,4.9199985 4.8677424,4.7721937 4.6035962,4.5485352 4.2299377,3.8126817 c -0.02439,-0.04439 -0.039024,0.091463 -0.058536,0.04878 C 4.0250597,3.524633 3.9384744,2.9726819 3.951889,2.5931698 c 0,0 -0.3004877,0.1368293 -0.5490242,0.7087803 C 3.3567668,3.404633 3.3270108,3.4614623 3.2974989,3.5182916 3.2838399,3.5348766 3.3284749,3.3304867 3.3218889,3.3417062 3.2787179,3.4148772 3.166767,3.517072 3.1177426,3.649511 3.0840836,3.747072 3.0367666,3.8024378 3.0065231,3.9248768 l -0.00707,0.01122 c -0.00244,-0.036097 0.00902,-0.1482926 0,-0.1253658 A 5.741462,5.741462 0 0 0 2.6989622,4.536584 c -0.1339024,0.4390243 -0.289756,1.039268 -0.3143902,1.81878 -0.00585,0.059024 0,0.1253659 -0.0061,0.1785366 C 2.0614017,6.8956078 1.8453042,7.2019492 1.7638408,7.3609735 1.3538409,7.9951197 0.90213367,8.981461 0.46408499,10.542924 A 7.7890225,7.7890225 0 0 1 1.1601824,9.3234121 C 0.79603613,10.152436 0.444085,11.454143 0.37359721,13.458533 a 10.656583,10.656583 0 0 1 0.3382926,-1.225366 c -0.0629268,1.336585 0.0929268,2.993658 0.93780469,4.864389 0.5017071,1.097561 1.6565849,3.331707 4.4785354,5.07317 v 0 c 0,0 0.9599998,0.714634 2.6097555,1.250243 0.1219512,0.04415 0.2453658,0.0878 0.3714633,0.13 q -0.059268,-0.02439 -0.114878,-0.04878 a 11.826826,11.826826 0 0 0 3.3856083,0.497805 c 4.272682,0.0037 5.532926,-1.712195 5.532926,-1.712195 l -0.01244,0.0093 q 0.09049,-0.08512 0.174146,-0.177073 c -0.674146,0.636098 -2.213414,0.679024 -2.787804,0.634146 0.980975,-0.288048 1.626585,-0.531951 2.882194,-1.012682 q 0.219513,-0.08195 0.450732,-0.186342 l 0.04878,-0.02293 c 0.03049,-0.01415 0.06073,-0.02756 0.09146,-0.04244 a 8.5195101,8.5195101 0 0 0 1.713658,-1.07317 c 1.260975,-1.007317 1.536585,-1.989268 1.67878,-2.636585 -0.02,0.06195 -0.0822,0.206586 -0.126097,0.300488 -0.324635,0.694634 -1.044878,1.121951 -1.827073,1.487804 a 16.806093,16.806093 0 0 0 1.033658,-1.522926 c 0.256829,-0.255366 0.33561,-0.651463 0.527073,-0.917805 z m -8.960485,6.044633 c 3.810486,1.215853 7.086095,-1.785853 5.066828,-2.788292 -1.83439,-0.903902 -6.875365,2.213414 -5.066828,2.788292 z m 8.676583,-7.503413 c 2.732926,-1.590487 2.019268,-5.02634 2.019268,-5.02634 0,0 -1.054878,1.225366 -1.771219,3.178536 -0.70683,1.935121 -1.89122,2.808536 -0.248049,1.847804 z m -3.75878,5.470487 c 3.972438,-0.46 5.731706,-4.553658 3.472682,-4.634146 -2.039755,-0.0661 -5.353169,4.851219 -3.472682,4.634146 z M 19.160909,2.2331699 c -0.584146,0.6799999 -0.856097,2.2107312 -0.263902,3.7624381 0.592195,1.551707 1.5,1.2146339 2.065853,2.7968286 0.746829,2.0878044 0.399268,4.8924374 0.399268,4.8924374 0,0 0.897805,2.600244 1.523659,-0.161707 C 24.270908,8.3351197 19.160909,3.5107306 19.160909,2.2331699 Z"/></svg>
