<svg aria-labelledby="simpleicons-mozilla-icon" role="img" viewBox="0 0 24 24" xmlns="http://www.w3.org/2000/svg"><title id="simpleicons-mozilla-icon">Mozilla icon</title><path d="M0 8.569v6.861h24V8.569H0zm17.333.873h.846l-1.298 4.584h-.848l1.3-4.584zm1.748 0h.847l-1.301 4.584h-.846l1.3-4.584zM3.6 10.964c.433 0 .831.207.978.646.156-.402.551-.662.982-.646.539 0 1.034.326 1.034 1.039v1.369h.386v.654H5.726v-1.688c0-.521-.176-.721-.515-.721-.413 0-.577.293-.577.715v1.045h.397v.654h-1.26v-1.695c0-.52-.173-.721-.513-.721-.413 0-.58.295-.58.717v1.045h.572v.654H1.427v-.654h.401v-1.699h-.403v-.652h1.26v.449c.183-.329.538-.528.915-.511zm5.367 0c1.081 0 1.604.728 1.604 1.568 0 .959-.692 1.564-1.652 1.564-.927 0-1.567-.564-1.567-1.525 0-.88.535-1.607 1.615-1.607zm12.424 0c.646 0 1.197.334 1.197 1.021v1.298c0 .176.064.236.202.236.044-.002.087-.008.126-.021l.021.461c-.165.09-.352.139-.54.139-.398 0-.618-.232-.657-.6-.174.307-.48.6-.966.6-.437 0-.932-.232-.932-.859 0-.74.715-.916 1.401-.916.166 0 .342.008.496.027v-.1c0-.306-.008-.67-.496-.67-.158-.012-.316.018-.461.084l-.098.34-.684-.073.104-.695c.527-.214.793-.272 1.287-.272zm-10.271.06h2.631l.066.451-1.666 1.902h.975l.139-.465.68.063-.186 1.057h-2.62l-.085-.455 1.653-1.898h-.941l-.132.465-.621-.066.108-1.051-.001-.003zm3.46 0h.899v1.08h-.899v-1.08zm-5.628.592c-.441 0-.713.327-.713.895 0 .52.24.92.705.92.449 0 .74-.352.74-.932.001-.605-.326-.883-.732-.883zm12.345 1.104c-.306 0-.569.085-.569.412 0 .193.089.344.351.344.306 0 .634-.22.651-.719-.142-.023-.288-.035-.433-.037zm-6.717.23h.899v1.08h-.899v-1.08z"/></svg>