<svg role="img" viewBox="0 0 24 24" xmlns="http://www.w3.org/2000/svg"><title>MPLAB X IDE</title><path d="M16.034 16.475c.647-.048 1.134-.353 1.436-.928a2.724 2.724 0 0 0 .188-2.195c-.117-.356-.296-.678-.583-.93-.355-.311-.78-.419-1.239-.42-1.231-.003-2.461-.001-3.692-.001-.031 0-.061.003-.097.004v4.477h3.72c.09 0 .179-.001.267-.007zm-2.884-.91V12.93c.03-.002.054-.006.078-.006.803 0 1.606-.003 2.41.002.462.003.813.246.979.677.051.132.088.271.11.41.064.4-.021.774-.242 1.112a.915.915 0 0 1-.772.435c-.85.014-1.701.005-2.563.005zm2.198-8.885.204 1.641h-.422l.203-1.645a.054.054 0 0 0 .015.004zm3.545 1.881v.284c-.001.178-.056.268-.23.292-.195.027-.395.023-.599.032v-.9c.204 0 .409-.017.61.005.152.018.218.132.219.287zm-.345-1.085c-.156.014-.314.004-.485.004v-.885h.715c0 .23.011.457-.005.682-.008.118-.113.189-.225.199zm-17.217 2.75c.05-.023.07-.049.063-.108-.102-.883-.2-1.765-.301-2.648C.982 6.496.871 5.523.756 4.549c-.013-.102.016-.14.112-.172 1.84-.607 3.678-1.217 5.517-1.826l4.652-1.543c.282-.094.563-.191.846-.28a.292.292 0 0 1 .173-.001c1.153.379 2.304.763 3.456 1.145l2.835.94 3.482 1.156c.42.139.84.279 1.261.415.08.026.113.053.102.15-.11.926-.214 1.853-.319 2.78l-.256 2.262c-.02.173-.038.346-.063.518-.01.066.013.094.071.122.428.203.855.41 1.282.616.02.009.038.021.077.042h-2.371l.068-.623c.085-.77.17-1.54.257-2.31l.316-2.799c.028-.241.031-.243-.201-.318-1.092-.353-2.185-.703-3.277-1.053l-3.601-1.158c-1.047-.337-2.094-.674-3.141-1.009a.223.223 0 0 0-.128.002c-1.417.454-2.834.911-4.251 1.366L4.062 4.123c-.773.249-1.546.499-2.32.746-.06.019-.079.042-.071.107.099.854.195 1.708.291 2.563l.213 1.923.142 1.253c.006.05.008.1.012.157H.021l-.005-.014.869-.419c.149-.072.297-.145.446-.213zm22.669.92c-.081.101-.148.177-.292.177-7.8-.004-15.6-.004-23.4 0-.148 0-.22-.073-.308-.178l24 .001zm-.418.972c-.006.234-.002.468-.002.702 0 .031-.003.062-.005.103h-3.591v.397c0 .098.006.197-.002.294-.008.095.03.115.118.114.623-.004 1.246-.002 1.87-.002.123 0 .123 0 .123.124 0 .247-.003.494.002.74.002.083-.022.108-.106.107-.62-.003-1.24-.002-1.86-.002H20v.804h3.561v.977h-4.733v-.106c0-1.417.001-2.834-.002-4.251 0-.086.02-.113.109-.113 1.512.003 3.024.003 4.536 0 .088 0 .114.025.111.112zM9.932 6.593c.003.026.008.053.008.08v.748c-.001.143-.052.227-.196.248-.205.03-.413.032-.63.047V6.593h.818zm10.356-.529a.05.05 0 0 1 .005.021c0 .011-.002.02-.005.027a.043.043 0 0 1-.015.018.057.057 0 0 1-.026.011.213.213 0 0 1-.037.003h-.021v-.105h.028l.032.001a.071.071 0 0 1 .022.007c.008.005.013.01.017.017zm-13.716 5.94-2.225 2.221 2.228 2.224-.015.027c-.021.002-.042.006-.063.006-.319 0-.639.002-.958-.002a.198.198 0 0 1-.122-.052 5912.86 5912.86 0 0 1-4.32-4.362c-.015-.015-.028-.032-.053-.061.242 0 .469.018.693-.005.273-.027.466.065.649.268.305.337.641.647.963.969.024.024.039.059.062.095.049-.044.074-.066.098-.09.39-.388.779-.778 1.171-1.164a.24.24 0 0 1 .144-.07c.566-.007 1.132-.007 1.699-.009l.049.005zm-4.53 4.476c-.56.004-1.12.003-1.68.002-.021 0-.042-.004-.07-.007l2.227-2.225-2.252-2.248c.159 0 .293-.002.426.002.023.001.047.029.066.049l3.364 3.399.928.937a.31.31 0 0 1 .06.081c-.161-.016-.323.069-.475-.092-.375-.398-.77-.777-1.157-1.164l-.047-.045-.083.078c-.392.391-.784.782-1.178 1.171a.202.202 0 0 1-.129.062zm20.794.69c.15 0 .229.069.32.181H.826c.089-.11.166-.182.316-.181 7.231.004 14.462.004 21.694 0zm.211.507c.011 0 .022.002.037.019-.132.064-.264.13-.396.193-.336.162-.672.324-1.01.482-.058.027-.076.067-.082.123-.039.358-.083.716-.118 1.075-.009.09-.04.136-.128.169-.911.343-1.82.69-2.73 1.037l-3.11 1.183-2.748 1.044c-.239.091-.478.184-.719.271a.22.22 0 0 1-.141 0c-1.029-.388-2.057-.779-3.085-1.17l-3.332-1.268c-.972-.37-1.943-.741-2.916-1.108-.066-.025-.092-.06-.099-.128-.038-.358-.083-.716-.118-1.075-.009-.091-.044-.135-.126-.173-.438-.205-.872-.418-1.308-.628l-.049-.026.004-.017h2.222l.065.567c.031.273.059.547.095.82.004.034.04.079.071.091.966.368 1.933.732 2.9 1.096a3854.18 3854.18 0 0 0 5.696 2.144.15.15 0 0 0 .098 0c.876-.328 1.752-.658 2.627-.987l2.466-.93c1.168-.44 2.336-.881 3.505-1.32.056-.021.067-.054.073-.106l.143-1.291c.006-.056.013-.092.086-.092.71.006 1.418.005 2.127.005zM21.855 5.269c.006-.055.019-.104-.063-.13-.931-.295-1.86-.595-2.79-.893l-3.25-1.043c-1.234-.396-2.467-.793-3.701-1.187a.264.264 0 0 0-.155-.001c-.374.116-.747.237-1.12.357L6.985 3.589 2.417 5.055c-.111.035-.221.073-.337.112l.64 5.708h18.498c.005-.021.009-.033.01-.045l.288-2.554c.061-.544.12-1.087.182-1.631.052-.459.106-.918.157-1.376zm-9.878-2.702a.348.348 0 1 1 .011.697.348.348 0 0 1-.011-.697zM7.51 9.926c-.228-.005-.456-.001-.684-.002-.031 0-.062-.003-.098-.004V7.315l-.016-.002c-.01.035-.021.07-.029.105a652.72 652.72 0 0 0-.554 2.42c-.015.064-.039.089-.107.088a39.521 39.521 0 0 0-.911 0c-.074.001-.096-.029-.11-.094-.184-.804-.37-1.607-.556-2.41a.094.094 0 0 0-.036-.061v2.563h-.314c-.168 0-.335-.002-.503.001-.061.002-.089-.018-.082-.08V5.827h.619c.174 0 .348.005.522-.002.079-.004.107.022.125.097.2.826.404 1.651.608 2.476l.173.695.018.001.054-.208c.242-.988.483-1.977.723-2.965.016-.067.04-.098.118-.097.351.005.702.002 1.053.002.028 0 .056.002.097.004v.096c0 1.297-.001 2.593.002 3.89 0 .09-.027.112-.112.11zm3.329-2.544c.014.481-.258.781-.636.952a1.672 1.672 0 0 1-.676.13c-.136.002-.271 0-.419 0v1.451h-.893V5.829c.69 0 1.37-.011 2.049.005a.589.589 0 0 1 .576.628c-.016.306-.01.613-.001.92zm2.611 2.466c.001.057-.017.078-.076.078l-1.992-.001c-.018 0-.036-.006-.059-.01V5.836h.888v3.327h.122c.341 0 .683.002 1.025-.001.069-.001.094.017.092.09-.004.197-.002.396 0 .596zm2.488.071c-.02 0-.052-.041-.058-.067a21.99 21.99 0 0 1-.143-.667c-.012-.069-.037-.095-.11-.093-.193.005-.386.005-.579 0-.069-.002-.091.023-.104.088-.044.223-.093.445-.145.667-.007.029-.041.072-.063.072-.281.005-.562.003-.858.003l.867-4.091h1.191l.865 4.091c-.301 0-.582.002-.863-.003zm3.801-.729c-.113.371-.409.561-.76.662a1.97 1.97 0 0 1-.496.068c-.408.009-.816.001-1.224.005-.081.001-.1-.026-.1-.103.002-1.3.001-2.6.002-3.9 0-.028.003-.056.005-.092.03-.002.048-.004.067-.004.601 0 1.202-.001 1.803.001a.675.675 0 0 1 .474.186c.109.102.17.225.169.378-.001.225-.007.449.002.674.012.297-.035.568-.287.765.052.041.098.075.141.112a.61.61 0 0 1 .217.338c.06.302.077.612-.013.91zm.771-2.753a.36.36 0 0 1-.266.11.367.367 0 0 1-.267-.11c-.074-.074-.111-.163-.111-.267s.037-.193.111-.267a.36.36 0 0 1 .267-.11c.104 0 .192.037.266.11.074.074.111.163.111.267s-.037.193-.111.267zM9.543 16.484c-.076.001-.104-.017-.104-.099.002-1.429.002-2.858.002-4.287 0-.028.003-.056.004-.091h1.286v4.47c-.036.002-.067.005-.098.005-.363 0-.727-.002-1.09.002zm10.701-10.61c-.082 0-.15.029-.208.087s-.086.128-.086.209.028.151.086.209.126.087.208.087c.081 0 .149-.029.207-.087s.086-.128.086-.209-.028-.15-.086-.208-.126-.088-.207-.088zm.09.475-.109-.138h-.036v.138H20.1v-.375h.137c.025 0 .046.001.062.003s.03.007.046.016c.017.01.028.021.036.035a.101.101 0 0 1 .012.051c0 .028-.008.05-.022.068s-.034.031-.058.041l.136.162h-.115zM4.448 19.174l3.938 1.486c1.153.435 2.307.868 3.459 1.305a.327.327 0 0 0 .253 0c1.315-.499 2.631-.994 3.947-1.49l4.215-1.586c.052-.019.073-.045.079-.101.022-.217.05-.433.074-.65.017-.15.03-.3.046-.457H3.493c-.001.023-.005.041-.003.059l.117 1.056c.006.057.038.078.087.095.251.093.502.188.754.283zm15.183-1.078a.353.353 0 0 1 .348.344.353.353 0 0 1-.347.354.355.355 0 0 1-.354-.348c0-.19.162-.351.353-.35zm-7.646 2.642c.195 0 .349.157.346.352a.347.347 0 0 1-.354.344.354.354 0 0 1-.344-.347.351.351 0 0 1 .352-.349zm-7.704-2.642a.349.349 0 1 1-.003.697.347.347 0 0 1-.343-.355.346.346 0 0 1 .346-.342z"/></svg>