<svg role="img" viewBox="0 0 24 24" xmlns="http://www.w3.org/2000/svg"><title>mpv</title><path d="M10.161 9.29v5.624l4.838-2.88zm2.952-6.816a8.457 8.47 0 0 0-8.413 8.47 8.457 8.47 0 0 0 8.456 8.47 8.457 8.47 0 0 0 8.457-8.47 8.457 8.47 0 0 0-8.457-8.47 8.457 8.47 0 0 0-.044 0zM12.041 6.64a5.433 5.442 0 0 1 .02 0 5.433 5.442 0 0 1 5.433 5.442 5.433 5.442 0 0 1-5.434 5.441 5.433 5.442 0 0 1-5.432-5.441 5.433 5.442 0 0 1 5.414-5.442zM12.002 0A12 12 0 0 0 0 12a12 12 0 0 0 12 12 12 12 0 0 0 12-12A12 12 0 0 0 12 0zm.262.491a11.142 11.142 0 0 1 .049 0 11.142 11.142 0 0 1 11.143 11.142 11.142 11.142 0 0 1-11.142 11.142A11.142 11.142 0 0 1 1.17 11.633 11.142 11.142 0 0 1 12.263.491z"/></svg>
