<svg role="img" viewBox="0 0 24 24" xmlns="http://www.w3.org/2000/svg"><title>mpv</title><path d="M10.54 23.94A12.1 12.1 0 0 1 .1 13.96c-.08-.45-.1-.85-.1-1.95 0-1.5.05-1.9.37-3.12A12.05 12.05 0 0 1 15.73.6a12.16 12.16 0 0 1 7.9 8.37 11.94 11.94 0 0 1-3.14 11.54 12.01 12.01 0 0 1-6.85 3.41c-.7.1-2.4.12-3.1.03zm2.41-5.91a5.74 5.74 0 0 0 2.67-1.53 5.82 5.82 0 0 0 1.53-2.66c.1-.38.13-.6.13-1.4 0-1.02-.07-1.4-.4-2.2a6.07 6.07 0 0 0-2.76-2.97 5.98 5.98 0 0 0-4.63-.22 5.99 5.99 0 0 0-3.34 3.34 5.78 5.78 0 0 0 4.4 7.72c.56.11 1.82.07 2.4-.08zm-3.36-5.56c0-1.6.02-2.9.04-2.9.06 0 5.1 2.83 5.1 2.87a571.13 571.13 0 0 0-5 2.86l-.14.09z"/></svg>
