<svg role="img" viewBox="0 0 24 24" xmlns="http://www.w3.org/2000/svg"><title>MTA icon</title><path d="M15.094 10.07L13.8 9.962v6.861l-1.926.34-.004-7.371-1.638-.145V6.944l4.86.85v2.277l.002-.001zm3.668 5.884l-1.143.198-.133-1-1.114.145-.14 1.1-1.472.26 1.458-8.651 1.384.24 1.16 7.708zm-1.48-2.492l-.306-2.642h-.067l-.31 2.682.683-.04zM10.914 24c6.59 0 11.931-5.373 11.931-12 0-6.628-5.34-12-11.931-12C6.782 0 3.142 2.112 1 5.323l3.307.583.91 6.965c.003-.012.066-.004.066-.004l.998-6.615 3.308.58v10.735l-2.088.367V13.32s.077-1.987.032-2.327c0 0-.091.002-.093-.005l-1.246 7.18-2.074.366L2.595 10.8l-.092-.007c-.032.28.112 2.707.112 2.707v5.298l-1.364.24C3.42 22.044 6.939 24 10.914 24z"/></svg>
