<svg role="img" viewBox="0 0 24 24" xmlns="http://www.w3.org/2000/svg"><title>MTN</title><path d="M6.025 14.061V9.974h.948l1.05 1.662 1.049-1.662h.948v4.087h-.948v-2.32l-.71 1.125h-.66L6.99 11.74v2.321zm11.932-4.087v4.087h-.947l-1.71-2.442v2.442h-.948V9.974h.948l1.71 2.442V9.974zm-7.464.952v-.97h3.385v.97H12.66v3.118h-.948v-3.118zM12 17.178c-6.093 0-11.052-2.32-11.052-5.16 0-2.84 4.959-5.179 11.052-5.179S23.052 9.16 23.052 12c0 2.84-4.943 5.178-11.052 5.178zM12 5.87C5.382 5.87 0 8.623 0 12c0 3.377 5.365 6.13 12 6.13S24 15.378 24 12s-5.366-6.13-12-6.13z"/></svg>