<svg role="img" viewBox="0 0 24 24" xmlns="http://www.w3.org/2000/svg"><title>Multisim</title><path d="M20.3636 5.7778c-.1616.3232-.5656.5656-.9697.5656-.6464 0-1.1313-.4848-1.1313-1.1313s.4849-1.1313 1.1313-1.1313c.404 0 .7273.2424.9697.5657h3.5556V.1212H0v2.7475h15.0303c.1616-.3232.5657-.5657.9697-.5657.6465 0 1.1313.4849 1.1313 1.1313S16.6465 4.5657 16 4.5657c-.404 0-.7273-.2425-.9697-.5657H0v6.5455h2.101V6.505h10.586c.1616-.3232.5656-.5656.9697-.5656.6464 0 1.1313.4848 1.1313 1.1313s-.485 1.1313-1.1314 1.1313c-.404 0-.7273-.2424-.9697-.5656H3.313v3.0707h11.798c.1616-.3233.5657-.5657.9697-.5657.6465 0 1.1313.4849 1.1313 1.1313s-.4848 1.1313-1.1313 1.1313c-.404 0-.7273-.2424-.9697-.5656H0v3.0707h6.5455c.1616-.3232.5656-.5657.9697-.5657.6464 0 1.1313.4849 1.1313 1.1313 0 .6465-.4849 1.1314-1.1313 1.1314-.404 0-.7273-.2425-.9697-.5657H0v3.0707h7.6768c.1616-.3232.5656-.5657.9697-.5657.6464 0 1.1313.4849 1.1313 1.1314 0 .6464-.4849 1.1313-1.1313 1.1313-.404 0-.7273-.2424-.9697-.5657H0v3.6364h12.606v-7.4344c-.3232-.1616-.5656-.5656-.5656-.9697 0-.6464.4849-1.1313 1.1313-1.1313s1.1313.4849 1.1313 1.1313c0 .404-.2424.7273-.5656.9697v7.4344h2.6666v-5.6566c-.3232-.1616-.5656-.5656-.5656-.9697 0-.6464.4848-1.1313 1.1313-1.1313s1.1313.4849 1.1313 1.1313c0 .404-.2424.7273-.5656.9697v5.6566h2.6666v-8.3232c-.3232-.1617-.5656-.5657-.5656-.9697 0-.6465.4848-1.1314 1.1313-1.1314.6464 0 1.1313.4849 1.1313 1.1314 0 .404-.2424.7272-.5657.9697v8.3232H24V9.9798h-2.9899c-.1616.3232-.5657.5657-.9697.5657-.6465 0-1.1313-.4849-1.1313-1.1314s.4848-1.1313 1.1313-1.1313c.404 0 .7273.2425.9697.5657H24V5.697l-3.6364.0808z"/></svg>