<svg xmlns="http://www.w3.org/2000/svg" role="img" viewBox="0 0 24 24"><title>Mumble icon</title><path d="M12 0A12 12 0 000 12a12 12 0 0012 12 12 12 0 0012-12A12 12 0 0012 0zM9.398 1.553c.409.002.796.22.983.598-.013 1.42-.007 2.843-.009 4.267.028.617-.13 1.327.34 1.823.348.44.925.46 1.436.438.722.094 1.446-.468 1.495-1.202.013-1.753.008-3.506.001-5.259.119-.41.583-.701 1.015-.647 1.48-.11 3.048.624 3.718 1.984.259.46.335 1.044.388 1.52v4.3a3.427 3.427 0 00-.795-.186l-.037-.004V9.5h-.023v-.227c0-.148-.13-.265-.286-.265h-.362a.3.3 0 00-.136.033c-.002-1.313.007-2.621-.01-3.938-.047-.972-.837-1.983-1.878-1.907v3.99c.106 1.14-.686 2.306-1.831 2.52-.752.092-1.515.03-2.272.048-1.211.102-2.356-.897-2.441-2.105-.027-1.486-.004-2.973-.012-4.459-1.001-.011-1.723.973-1.773 1.907-.018 1.353-.008 2.697-.01 4.046a.289.289 0 00-.19-.07h-.354c-.154 0-.281.118-.281.265v.156h-.007v-.251l-.037.004c-.265.029-.522.09-.771.178V5.324c.007-.375.046-.743.14-1.13.41-1.602 2.046-2.672 3.662-2.631l.083.003h.077a1.16 1.16 0 01.177-.012zm7.864 7.522h.361c.125 0 .22.09.22.199v10.808c0 .11-.095.199-.22.199h-.361c-.124 0-.22-.09-.22-.2V9.275c0-.11.096-.2.22-.2zM6.355 9.14h.354c.121 0 .215.09.215.2v10.808c0 .11-.094.199-.215.199h-.354c-.122 0-.216-.09-.216-.2V9.34c0-.11.094-.2.216-.2zm11.644.12c2.154.261 3.851 2.625 3.851 5.513S20.153 20.025 18 20.286V9.26zm-11.998.06v11.025c-2.154-.261-3.851-2.625-3.851-5.513S3.847 9.58 6 9.319zm11.917 10.679l.015.001v.36l.037-.003a3.39 3.39 0 00.405-.07.23.23 0 01-.105.21s-.62.498-.956.713c-.315.187-.494.34-.767.46a1.44 1.44 0 01-.346.102h-2.22a.218.218 0 01-.037-.003.664.664 0 00.06-.523h2.088s.121-.01.27-.081c.188-.091.39-.225.577-.348.21-.137.404-.284.61-.437.015-.01.027-.022.04-.033h.035c.156 0 .286-.117.286-.265V20h.008v-.001zm-5.73.426c.491 0 .935.116 1.254.301.318.185.509.436.509.71 0 .273-.19.524-.51.71-.318.184-.762.3-1.252.3-.491 0-.935-.116-1.254-.3-.318-.186-.508-.437-.508-.71 0-.274.19-.525.508-.71.319-.185.763-.301 1.254-.301z"/></svg>
