<svg role="img" viewBox="0 0 24 24" xmlns="http://www.w3.org/2000/svg"><title>Musixmatch</title><path d="m21.91 7.261-4.39 3.388-3.798-2.944 5.718-4.308a1.515 1.515 0 0 1 1.616-.15c.534.268.854.783.854 1.38zm0 6.788-2.682-2.077 2.682-2.069zm0 5.324c0 .6-.322 1.115-.858 1.381a1.514 1.514 0 0 1-1.619-.157l-5.717-4.368.46-.356 3.343-2.581 4.39 3.404zM12 14.912l-.325-.25-3.487-2.693L12 9.016l3.812 2.953-3.584 2.768zm-7.433 5.685a1.514 1.514 0 0 1-1.619.157 1.514 1.514 0 0 1-.858-1.381v-2.677l4.39-3.404 3.31 2.556.494.381zM2.09 9.903l2.681 2.069-2.681 2.077zm0-5.277c0-.596.32-1.11.854-1.378.224-.112.459-.167.693-.167.324 0 .645.107.922.316l5.719 4.308-3.799 2.944L2.09 7.26Zm19.898-3.248a3.61 3.61 0 0 0-3.806.349L12 6.384 5.816 1.727a3.61 3.61 0 0 0-3.806-.35A3.61 3.61 0 0 0 0 4.628v14.746c0 1.392.774 2.639 2.022 3.256a3.623 3.623 0 0 0 3.814-.37L12 17.549l6.163 4.71a3.626 3.626 0 0 0 3.815.37A3.61 3.61 0 0 0 24 19.373V4.626c0-1.386-.77-2.63-2.012-3.248"/></svg>