<svg role="img" viewBox="0 0 24 24" xmlns="http://www.w3.org/2000/svg"><title>mpv</title><path d="M10.03 9.17v5.7l4.9-2.92zm2.88-6.86a8.59 8.59 0 0 0-8.54 8.59 8.59 8.59 0 0 0 8.59 8.59 8.59 8.59 0 0 0 8.58-8.6 8.59 8.59 0 0 0-8.58-8.58 8.59 8.59 0 0 0-.05 0zm-1.09 4.22a5.52 5.52 0 0 1 .02 0 5.52 5.52 0 0 1 5.52 5.52 5.52 5.52 0 0 1-5.52 5.52 5.52 5.52 0 0 1-5.51-5.52 5.52 5.52 0 0 1 5.5-5.52zM12 0A12 12 0 0 0 0 12a12 12 0 0 0 12 12 12 12 0 0 0 12-12A12 12 0 0 0 12 0zm.26.5a11.14 11.14 0 0 1 .05 0 11.14 11.14 0 0 1 11.14 11.13 11.14 11.14 0 0 1-11.14 11.15A11.14 11.14 0 0 1 1.17 11.63 11.14 11.14 0 0 1 12.27.5z"/></svg>
