<svg role="img" viewBox="0 0 24 24" xmlns="http://www.w3.org/2000/svg"><title>MyAnimeList icon</title><path d="M15.293 7.19c-.17 0-.307.001-.373.005-2.151.112-3.677.743-4.507 1.866-.82 1.103-.99 2.717-.498 4.714a17.62 17.62 0 001.135 3.034l1.66-1.087c.035-.033.026-.062-.066-.199-.26-.397-.498-.986-.67-1.686-.11-.438-.213-1.04-.186-1.063l2.823.012-.002 2.826 2.323.012-.021-6.314h-2.294l-.047 1.825-2.658-.014c-.036-.054-.015-.256.065-.507.267-.83.765-1.34 1.535-1.574.577-.232 3.763-.11 3.763-.11 0-.011-.116-.393-.258-.853-.246-.794-.26-.838-.335-.853a28.051 28.05 0 00-1.39-.034zm3.493.008v8.444l4.797.039.418-1.743-3.08-.074-.025-6.61zM.021 7.227l-.02 8.394h2.132v-5.214l2.022 2.513 2.023-2.454v5.155h2.09V7.227h-2.09L4.155 9.74 2.133 7.227z"/></svg>
