<svg role="img" viewBox="0 0 24 24" xmlns="http://www.w3.org/2000/svg"><title>MyAnimeList icon</title><path d="M18.774 7.183v8.48h2.413c1.328 0 2.414-.01 2.414-.023 0-.012.094-.407.207-.88.114-.471.2-.864.191-.871a44.13 44.13 0 00-1.554-.028l-1.539-.013V7.223c-.759.002-1.386-.02-2.132-.04zm-3.252.011c-.364.003-.728.012-.942.028-1.145.09-1.968.294-2.751.682-.43.202-.82.482-1.148.826-.677.709-1.012 1.598-1.049 2.788-.038 1.2.235 2.518.84 4.052.147.372.558 1.247.587 1.247.01 0 .397-.247.86-.55.464-.304.844-.557.844-.563 0-.007-.052-.09-.115-.183-.26-.382-.462-.873-.642-1.562-.095-.365-.22-1-.22-1.115 0-.052.064-.054 1.391-.054h1.392v2.872h2.369V9.315h-2.384v1.802l-1.303-.01c-.715-.004-1.314-.019-1.327-.034-.042-.042.033-.403.135-.65.27-.646.652-1.049 1.215-1.274.403-.162.557-.173 2.36-.178.903-.003 1.645-.008 1.647-.01a33.69 33.69 0 00-.263-.869l-.268-.86-.283-.02c-.323-.021-.657-.012-.945-.018zm-7.23.058l-2.207.003a212.05 212.05 0 01-2.004 2.513c-.676-.875-1.17-1.558-1.875-2.516H0v8.44h2.132c.004-1.915.019-3.407.044-5.244a175.31 175.31 0 001.965 2.4c.719-.82 1.248-1.46 2.004-2.358l.03 5.187h2.102l.007-4.212z"/></svg>
