<svg role="img" viewBox="0 0 24 24" xmlns="http://www.w3.org/2000/svg"><title>MyFitnessPal</title><path d="M2.608.023A3.033 3.033 0 0 0 .046 2.435c-.04.19-.042.596-.042 9.577 0 8.98.002 9.386.042 9.576a3.069 3.069 0 0 0 1.437 2.023c.263.157.745.34.823.312.021-.009.026-.005.016.014-.011.019.005.021.059.012.054-.012.07-.007.058.011-.011.019.007.021.071.012.049-.007.079-.005.072.009-.009.012 3.58.021 9.429.019 5.64 0 9.424-.009 9.396-.024-.033-.014-.009-.016.07-.007.092.009.11.007.082-.014-.028-.021-.023-.023.028-.014.08.019.282-.03.263-.061-.009-.014.002-.019.033-.009.051.017.363-.096.344-.124-.005-.009.038-.04.094-.068.127-.061.141-.047.019.016-.049.026-.08.047-.07.05.047.002.204-.099.19-.122-.009-.017-.007-.019.009-.009.028.016.227-.087.255-.132.009-.016.002-.018-.016-.007-.021.012-.026.009-.014-.009.009-.014.028-.021.04-.011.011.007.072-.026.133-.075.223-.178.518-.488.399-.418-.017.009-.005-.011.026-.044.065-.07.096-.085.046-.021-.018.023.002.005.043-.04.042-.047.072-.096.065-.113a.039.039 0 0 1 .017-.044c.016-.012.018-.005.007.014-.012.019-.009.026.007.016.044-.028.147-.227.131-.255-.009-.017-.007-.019.009-.009.023.014.124-.143.122-.19-.002-.009-.024.021-.049.07-.064.122-.078.108-.017-.019.028-.056.059-.098.068-.093.028.018.141-.293.124-.345-.009-.03-.005-.042.009-.033.031.019.08-.183.061-.262-.009-.043-.007-.054.009-.033.017.023.026.007.036-.061.025-.152.018-18.928-.005-18.911-.015.007-.017-.024-.009-.073.009-.063.007-.082-.012-.07-.019.011-.024-.005-.012-.059.009-.049.005-.07-.009-.061-.014.009-.019-.009-.012-.047.007-.033.002-.056-.009-.047-.011.007-.023-.023-.025-.065-.005-.099-.148-.448-.27-.657A3.022 3.022 0 0 0 21.371.024c-.248-.033-18.522-.031-18.763 0V.023ZM8.633 5.52l.166.085.09.258.089.257.576.72c.521.647 1.351 1.662 1.843 2.255.223.268.314.338.434.336.126-.005.201-.066.286-.237.075-.153.075-.155.032-.228-.114-.194-.201-.391-.201-.454 0-.092.047-.129.298-.237a2.33 2.33 0 0 0 .321-.164 1.92 1.92 0 0 1 .239-.136c.241-.11.565-.05.781.147.154.139.178.197.173.46-.005.267-.028.33-.197.518-.077.089-.19.173-.349.265-.216.126-.235.145-.282.253a.392.392 0 0 0-.037.127.82.82 0 0 0 .176-.099 2.02 2.02 0 0 1 .52-.258c.204-.077.239-.084.49-.084.148 0 .399-.012.556-.023.333-.026.415-.054 1.125-.378.387-.176.504-.218.844-.3.438-.105.895-.19 1.027-.19.145 0 .293.106.293.209-.002.091-.12.29-.195.326-.056.028-.084.025-.192-.009a.709.709 0 0 1-.169-.071c-.037-.025-.091-.005-.405.155-.305.157-.406.197-.626.244-.19.042-.326.091-.5.178-.386.195-.965.408-1.545.57-.609.171-.548.136-.808.494a1.607 1.607 0 0 0-.305.624 6.511 6.511 0 0 1-.192.532l-.129.307.086.209c.05.119.122.246.172.3.199.218.356.497.405.722.035.164.096.225.277.265.246.058.621.286 1.102.677.161.132.431.333.597.448a3.36 3.36 0 0 0 1.109.504c.139.04.347.101.462.138.265.089 1.21.594 1.554.83.239.164.268.178.596.27.319.089.365.096.635.096h.291l.124.188c.115.175.122.192.094.255-.042.106-.134.131-.347.101a6.04 6.04 0 0 0-.403-.04 6.52 6.52 0 0 1-.411-.04c-.171-.021-.204-.035-.386-.159-.319-.216-.436-.265-1.219-.493-.882-.258-2.253-.722-2.872-.973-.614-.248-1.177-.433-1.355-.445a39.828 39.828 0 0 0-1.121-.063c-.112-.002-.157.011-.33.103-.113.059-.345.199-.521.309a8.7 8.7 0 0 1-1.305.657c-.298.115-.333.136-.912.52-.277.185-.57.364-.65.396-.079.031-.417.132-.75.223a8.453 8.453 0 0 1-1.624.295c-.153.015-.2.031-.378.136-.185.108-.218.139-.321.296-.181.276-.237.328-.366.328-.173 0-.33-.045-.387-.108-.06-.07-.138-.073-.501-.009-.218.038-.293.042-.385.024-.164-.036-.265-.104-.265-.176 0-.047.024-.071.136-.125.073-.037.209-.093.298-.121.091-.031.354-.15.586-.27.359-.183.467-.225.727-.291.333-.084 1.341-.459 2.021-.752.422-.183.433-.19.703-.422.312-.267.422-.342 1.052-.715.249-.146.662-.403.922-.572.321-.209.523-.324.623-.357.186-.058.247-.126.247-.271 0-.057.025-.282.058-.502.033-.218.08-.598.103-.839l.045-.441-.054-.232a5.764 5.764 0 0 1-.092-.49 4.883 4.883 0 0 0-.06-.352c-.04-.162-.026-.251.058-.424.094-.19.099-.223.066-.678l-.019-.304L9.85 7.959 8.727 6.32l-.282-.234a2.825 2.825 0 0 1-.293-.258c-.016-.044.047-.272.094-.331.071-.089.183-.082.387.024V5.52Zm15.334 15.932c-.007.019-.014.012-.014-.014-.002-.026.005-.04.012-.031.007.007.009.028.002.045Zm-.392 1.097c-.014.026-.03.047-.037.047-.005 0 0-.021.014-.047s.031-.047.038-.047c.005 0 0 .021-.015.047Zm-.14.22c0 .005-.019.024-.04.04-.038.031-.04.028-.009-.009.03-.037.049-.049.049-.03v-.001Zm-.211.256c0 .002-.056.059-.122.122l-.124.117.117-.124c.108-.113.129-.134.129-.115Zm-.258.234a.403.403 0 0 1-.063.066l-.066.056.056-.065c.054-.059.073-.075.073-.057Zm-.141.12c0 .005-.018.023-.04.04-.037.03-.04.028-.009-.009.031-.038.05-.049.05-.031h-.001Zm-.234.166c0 .005-.024.021-.052.036-.051.025-.051.023-.009-.009.049-.04.061-.045.061-.026v-.001Z"/></svg>