<svg role="img" viewBox="0 0 24 24" xmlns="http://www.w3.org/2000/svg"><title>MyIP</title><path d="M7.65 1.026a5 5 0 0 0-.723.923c-.814 1.303-1.42 3.279-1.87 5.77C2.42 8.216.791 9.317.846 10.441c.049 1.018 1.333 1.8 3.263 2.338-.127.393-.097.46.075.943-1.442.608-2.948 2.455-4.152 4.072l4.685 3.167L3.063 24H21.07l-1.746-3.038 4.644-3.226c-1.362-1.913-3.007-3.54-4.034-3.98.217-.564.255-.662.073-.974 1.93-.55 3.196-1.351 3.194-2.411-.003-1.156-1.663-2.267-4.137-2.653-.592-2.506-1.181-4.479-1.931-5.774a6 6 0 0 0-.426-.638c-2.233-2.863-3.015-.126-4.597-.13-1.835-.003-2.068-2.514-4.46-.15m2.84 18.639c0 .167.136.303.303.303h.418c.23.128.487.2.75.212a1.4 1.4 0 0 0 .775-.212h.513a.303.303 0 1 0 0-.606l-.598.001a.3.3 0 0 0-.17.052.9.9 0 0 1-.324.144.7.7 0 0 1-.182.017 1.1 1.1 0 0 1-.516-.16.3.3 0 0 0-.173-.054h-.493a.303.303 0 0 0-.303.303m-2.934-6.573c2.74.256 5.754.308 8.492.086-2.831.916-5.662.933-8.492-.086m4.985 1.27c1.565 3.679 5.754 1.998 4.775-1.31q.538-.062 1.074-.146l.01.073.026.17.15.986c1.452-.266.472 3.358-.72 3.168-.205.644-.234.91-.54 1.36-1.283 1.891-2.931 4.514-5.291 4.514s-3.966-2.444-5.326-4.514c-.276-.42-.329-.938-.527-1.508-1.294.324-2.092-3.353-.668-3.038l.163-.978.027-.167.015-.088q.495.066 1.01.123c-.935 3.425 3.188 5.022 4.786 1.355zm.807-6.11V3.146c3.854 0 3.613 5.106 0 5.106M8.032 19.19c0-.59.001-.903.86-1.185 1.577-.517 4.669-.57 6.309 0 .748.26.794.658.794 1.185q-.794-.393-3.964-.393t-3.999.393m1.686 1.738c0 .59.001.903.506 1.185.469.261 1.166.404 1.864.407.684.004 1.37-.126 1.847-.407.44-.26.467-.658.467-1.185q-.787.4-2.332.4t-2.352-.4m2.317-11.179-1.264-.157V4.104l1.264-.96M9.74 9.749l-1.265-.157V4.104l1.265-.96"/></svg>