<svg role="img" viewBox="0 0 24 24" xmlns="http://www.w3.org/2000/svg"><title>MYOB</title><path d="m11.244 9.406-1.283 3.52-1.35-3.52H7.125l2.04 5.063-.876 2.038h1.369l2.838-7.101zm-6.19 1.127c.548 0 .815.325.815.996v3.065h1.317v-3.21c0-1.223-.85-2.07-2.068-2.07-.585 0-1.12.202-1.508.57l-.016.015-.015-.015a2.01 2 0 0 0-1.507-.57C.851 9.314 0 10.161 0 11.384v3.21h1.246v-3.065c0-.67.267-.996.816-.996.55 0 .817.325.817.996v3.065h1.318v-3.065c0-.67.267-.996.816-.996zm18.244-.39a2.652 2.64 0 0 0-1.954-.83 2.552 2.54 0 0 0-1.515.488V7.493h-1.317v4.42c0 .707.258 1.37.721 1.866.508.544 1.21.831 2.024.831s1.515-.287 2.025-.83c.462-.496.718-1.16.718-1.867a3 3 0 0 0-.702-1.914Zm-2.017 3.422c-.932 0-1.44-.764-1.44-1.481s.508-1.49 1.44-1.49 1.435.773 1.435 1.49-.501 1.48-1.435 1.48zm-5.894 1.23c1.78 0 2.742-1.406 2.742-2.73s-.963-2.73-2.743-2.73c-1.778 0-2.74 1.406-2.74 2.73s.962 2.73 2.74 2.73zm0-1.23c-.932 0-1.44-.764-1.44-1.481s.508-1.49 1.44-1.49 1.435.773 1.435 1.49-.502 1.48-1.435 1.48z"/></svg>