<svg role="img" viewBox="0 0 24 24" xmlns="http://www.w3.org/2000/svg"><title>MYOB</title><path d="m11.283 9.347-1.255 3.344-1.323-3.344H7.282l2.063 5.13-.885 2.064h1.38l2.845-7.194Zm-6.2 1.113c.55 0 .817.33.817 1.01v3.11h1.313v-3.257c0-1.24-.853-2.108-2.074-2.108-.588 0-1.126.207-1.516.581l-.016.015-.016-.015a2.16 2.16 0 0 0-1.51-.58C.855 9.216 0 10.08 0 11.323v3.258h1.313V11.47c0-.68.268-1.01.818-1.01s.82.33.82 1.01v3.11h1.312v-3.11c0-.68.268-1.01.818-1.01m18.203-.398a2.6 2.6 0 0 0-1.962-.847 2.56 2.56 0 0 0-1.52.496V7.459h-1.314v4.508c0 .722.257 1.396.725 1.9.512.553 1.214.845 2.033.845s1.519-.292 2.03-.844c.467-.505.724-1.18.724-1.9a2.83 2.83 0 0 0-.716-1.907zm-2.038 3.404c-.936 0-1.446-.771-1.446-1.499s.51-1.507 1.446-1.507 1.442.777 1.442 1.508-.506 1.5-1.442 1.5zm-5.983 1.247c1.789 0 2.755-1.416 2.755-2.75s-.965-2.748-2.755-2.748-2.755 1.416-2.755 2.748.966 2.75 2.755 2.75m0-1.247c-.935 0-1.443-.771-1.443-1.499s.508-1.507 1.444-1.507 1.443.777 1.443 1.508-.506 1.5-1.443 1.5z"/></svg>