<svg role="img" viewBox="0 0 24 24" xmlns="http://www.w3.org/2000/svg"><title>MYOB</title><path d="m11.281 9.826-1.255 2.743-1.323-2.743H7.281l2.063 4.206-.886 1.692h1.38l2.845-5.898Zm-6.202.912c.551 0 .819.271.819.828v2.551h1.315v-2.671c0-1.018-.855-1.729-2.075-1.729-.588 0-1.127.17-1.516.476l-.016.013-.015-.013a2.158 1.77 0 0 0-1.511-.476c-1.225 0-2.08.711-2.08 1.729v2.671h1.312v-2.55c0-.558.268-.829.817-.829s.82.271.82.828v2.551h1.313v-2.55c0-.558.268-.829.817-.829m18.204-.326a2.605 2.136 0 0 0-1.96-.696 2.562 2.1 0 0 0-1.522.408V8.277h-1.315v3.697c0 .591.258 1.145.725 1.558.512.453 1.215.693 2.034.693s1.52-.24 2.031-.693A2.134 2.09 0 0 0 24 11.974c0-.591-.255-1.144-.718-1.563zm-2.036 2.792c-.938 0-1.446-.634-1.446-1.23s.508-1.236 1.445-1.236 1.441.637 1.441 1.237-.504 1.229-1.441 1.229zm-5.985 1.022c1.79 0 2.754-1.162 2.754-2.255s-.963-2.254-2.754-2.254c-1.789 0-2.754 1.161-2.754 2.254s.964 2.255 2.754 2.255m.002-1.022c-.937 0-1.446-.634-1.446-1.23s.509-1.236 1.446-1.236 1.442.637 1.442 1.237-.506 1.229-1.442 1.229"/></svg>