<svg role="img" viewBox="0 0 24 24" xmlns="http://www.w3.org/2000/svg"><title>MyShows</title><path d="M5.515.001c-.253 0-.505.083-.715.252-.421.42-.421 1.011 0 1.432.33.33.764.4 1.14.212l3.323 3.324c.027.027.056.05.086.068a3.064 3.064 0 0 0-.507 1.7h6.484a3.614 3.614 0 0 0-.6-1.692.533.533 0 0 0 .095-.076l3.272-3.273c.346.12.726.033 1.022-.263.42-.42.42-1.011 0-1.432-.337-.337-1.01-.337-1.431 0-.36.36-.413.844-.156 1.24L14.23 4.716c0 .002 0 .004-.002.005a3.191 3.191 0 0 0-2.187-.847c-.874 0-1.666.33-2.243.877-.01-.012-.018-.023-.03-.035L6.443 1.391C6.63 1.016 6.56.583 6.23.253A1.141 1.141 0 0 0 5.515 0Zm-.631 7.83c-2.442 0-4.462 2.022-4.462 4.464v7.241C.422 21.978 2.442 24 4.884 24h14.23c2.443 0 4.464-2.022 4.464-4.464v-7.241c0-2.442-2.021-4.464-4.463-4.464zm.674 2.78h12.968c1.432 0 2.526 1.179 2.526 2.526v5.641c0 1.432-1.179 2.526-2.526 2.526H5.558c-1.432 0-2.526-1.179-2.526-2.526v-5.641c0-1.432 1.094-2.526 2.526-2.526z"/></svg>