<svg role="img" viewBox="0 0 24 24" xmlns="http://www.w3.org/2000/svg"><title>MyShows</title><path d="M5.515.001c-.2526 0-.5048.0832-.7154.2516-.421.421-.421 1.0115 0 1.4325.3306.3306.7646.4007 1.1398.2122l3.3239 3.3239a.4567.4567 0 0 0 .0855.0674c-.3197.4841-.5066 1.0643-.5066 1.7006h6.4833c-.0602-.6328-.2729-1.2099-.6003-1.6924a.5332.5332 0 0 0 .0954-.0756l3.2729-3.273c.3455.1203.7253.033 1.0213-.263.421-.4211.421-1.0115 0-1.4326-.3368-.3368-1.0098-.3368-1.4308 0-.3604.3603-.4127.8442-.1563 1.2401l-3.2975 3.2236c-.0008.0015-.001.0033-.0017.0049-.573-.5281-1.3298-.847-2.1874-.847-.8744 0-1.666.3298-2.2433.8766-.01-.0116-.018-.023-.0296-.0346L6.4427 1.3907c.1873-.3747.1178-.808-.2122-1.138A1.1414 1.1414 0 0 0 5.5151.001Zm-.6315 7.8303c-2.442 0-4.462 2.0216-4.462 4.4636v7.2415c0 2.442 2.02 4.4636 4.462 4.4636h14.2313c2.442 0 4.4637-2.0216 4.4637-4.4636v-7.2415c0-2.442-2.0217-4.4636-4.4637-4.4636zm.6743 2.7794H18.526c1.4316 0 2.5263 1.179 2.5263 2.5263v5.6412c0 1.4315-1.179 2.5262-2.5263 2.5262H5.5578c-1.4315 0-2.5262-1.179-2.5262-2.5262V13.137c0-1.4316 1.0947-2.5263 2.5262-2.5263z"/></svg>