<svg xmlns="http://www.w3.org/2000/svg" viewBox="0 0 24 24"><title>MySQL icon</title><path d="M16.404 5.52a1.07 1.07 0 0 0-.274.033v.014h.012c.054.104.146.18.214.273.054.107.1.214.154.32l.014-.015c.093-.066.14-.173.14-.333-.041-.047-.047-.094-.08-.14-.042-.066-.127-.1-.181-.153M5.784 18.697h-.926a50.716 50.716 0 0 0-.27-4.403H4.58l-1.406 4.403h-.706l-1.4-4.403H1.06a71.69 71.69 0 0 0-.196 4.403H.022c.054-1.964.19-3.806.409-5.524h1.146l1.334 4.06h.008l1.344-4.06h1.095c.241 2.013.383 3.855.427 5.524m4.01-4.076c-.377 2.042-.875 3.528-1.49 4.454-.481.714-1.007 1.07-1.58 1.07-.153 0-.341-.045-.565-.137v-.493c.11.016.24.025.385.025.268 0 .483-.075.647-.222.197-.179.295-.381.295-.604 0-.154-.077-.469-.229-.942L6.243 14.62h.909l.727 2.357c.164.535.233.909.204 1.121.398-1.063.678-2.224.834-3.478h.878zM22.104 18.697h-2.626v-5.524h.882v4.845h1.743zM18.788 18.83l-1.015-.5a1.97 1.97 0 0 0 .254-.248c.432-.506.646-1.257.646-2.25 0-1.828-.717-2.743-2.151-2.743-.704 0-1.253.232-1.647.696-.43.508-.646 1.255-.646 2.243 0 .97.19 1.683.573 2.136.35.41.876.615 1.58.615.264 0 .505-.034.724-.098l1.323.77.361-.62zm-3.289-1.24c-.224-.359-.335-.937-.335-1.733 0-1.391.423-2.087 1.269-2.087.442 0 .767.166.974.5.224.36.336.933.336 1.72 0 1.402-.423 2.104-1.27 2.104-.443 0-.768-.167-.975-.5M13.845 17.165c0 .47-.172.855-.516 1.155-.344.3-.802.45-1.382.45-.542 0-1.063-.173-1.571-.516l.237-.474c.438.22.832.327 1.188.327.332 0 .592-.072.782-.218a.756.756 0 0 0 .3-.615c0-.328-.23-.609-.648-.844-.388-.213-1.162-.657-1.162-.657-.42-.306-.63-.635-.63-1.175 0-.448.156-.81.468-1.084.315-.277.72-.414 1.217-.414.513 0 .98.135 1.4.41l-.213.474a2.715 2.715 0 0 0-1.063-.229c-.283 0-.502.068-.654.205a.684.684 0 0 0-.248.523c0 .328.234.611.665.85.393.214 1.186.668 1.186.668.431.305.646.63.646 1.167"/><path d="M23.213 11.322c-.534-.014-.948.04-1.295.188-.1.038-.26.038-.274.166.055.052.063.139.108.213.08.133.22.312.347.406.14.109.282.215.428.308.26.161.554.255.807.416.146.094.294.213.44.313.074.052.12.14.215.173v-.02c-.047-.06-.06-.147-.107-.213-.066-.067-.133-.128-.2-.193a3.2 3.2 0 0 0-.694-.674c-.213-.146-.681-.348-.768-.594l-.013-.014c.146-.013.32-.067.46-.107.226-.06.434-.047.667-.107.107-.027.214-.06.321-.093v-.06c-.12-.12-.208-.282-.333-.395a9.01 9.01 0 0 0-1.103-.82c-.208-.134-.474-.22-.695-.334-.079-.04-.213-.06-.26-.127-.12-.146-.188-.34-.274-.514-.192-.368-.38-.774-.546-1.162-.12-.26-.194-.52-.341-.76-.688-1.136-1.435-1.824-2.582-2.497-.247-.14-.542-.2-.855-.274-.166-.008-.333-.021-.5-.027-.108-.047-.214-.174-.308-.235-.38-.241-1.362-.76-1.642-.073-.18.434.266.861.42 1.08.115.154.261.328.34.501.047.115.06.234.108.354.106.294.206.621.347.897.073.14.153.286.247.412.054.073.145.107.166.227-.094.136-.1.334-.154.5-.24.756-.146 1.69.194 2.245.107.167.361.534.702.394.3-.12.234-.5.32-.834.02-.08.007-.133.048-.187v.014c.094.188.188.367.274.555.206.327.566.666.867.894.16.12.287.327.487.4v-.018h-.015c-.042-.06-.1-.086-.153-.133a3.201 3.201 0 0 1-.348-.4 8.527 8.527 0 0 1-.747-1.215c-.109-.209-.201-.435-.289-.641-.04-.08-.04-.201-.107-.24-.1.146-.247.273-.32.452-.127.288-.14.641-.188 1.009-.027.007-.013 0-.027.013-.213-.052-.286-.274-.367-.458-.2-.475-.233-1.237-.06-1.784.047-.14.247-.58.167-.714-.042-.127-.174-.2-.247-.302a2.522 2.522 0 0 1-.24-.427c-.16-.373-.24-.787-.414-1.16-.08-.175-.22-.355-.333-.515-.127-.179-.267-.306-.368-.518-.033-.073-.08-.194-.027-.275.014-.054.042-.075.094-.088.086-.073.333.02.42.06.247.1.454.194.66.334.094.066.195.194.315.227h.14c.214.047.455.013.655.073.354.114.674.281.96.461a5.925 5.925 0 0 1 2.083 2.282c.08.155.114.295.187.455.141.327.313.66.455.98.14.314.275.635.475.895.1.14.5.214.68.287.133.06.34.115.459.187.229.14.454.3.669.454.11.076.444.243.463.377M23.85 18.697h.137v-.677h-.208l-.167.46-.185-.461h-.2v.677h.13v-.516h.007l.193.515h.1l.193-.516v.515zm-1.115 0h.146v-.562h.192v-.115h-.538v.115h.198v.562z"/></svg>
