<svg aria-labelledby="simpleicons-mysql-icon" role="img" xmlns="http://www.w3.org/2000/svg" viewBox="0 0 24 24"><title id="simpleicons-mysql-icon">MySQL icon</title><path d="M16.222 5.774c-.11 0-.185.013-.263.032v.013h.012c.052.1.14.172.205.262.052.103.096.205.148.307l.013-.014c.09-.064.135-.166.135-.32-.04-.045-.045-.09-.077-.135-.04-.063-.122-.095-.174-.146"/><path d="M6.03 18.42h-.888c-.03-1.498-.118-2.906-.26-4.226h-.007l-1.35 4.226h-.677l-1.343-4.226h-.008c-.1 1.267-.162 2.676-.188 4.226H.5c.052-1.885.183-3.653.393-5.302h1.1l1.28 3.896h.008l1.29-3.896h1.05c.232 1.932.368 3.7.41 5.302M9.88 14.508c-.362 1.96-.84 3.386-1.43 4.275-.462.685-.967 1.027-1.517 1.027-.147 0-.327-.044-.542-.132v-.473c.106.015.23.024.37.024.257 0 .463-.072.62-.213.19-.172.284-.366.284-.58 0-.148-.074-.45-.22-.904l-.974-3.025h.872l.698 2.262c.157.514.223.872.196 1.076.382-1.02.65-2.134.8-3.338h.843z"/><path d="M21.692 18.42h-2.52v-5.302h.847v4.65h1.672z"/><path d="M18.51 18.548l-.974-.48c.087-.072.17-.15.244-.238.414-.486.62-1.207.62-2.16 0-1.754-.688-2.632-2.065-2.632-.675 0-1.202.222-1.58.668-.413.487-.62 1.204-.62 2.152 0 .932.183 1.616.55 2.05.335.393.84.59 1.516.59.253 0 .485-.032.695-.094l1.27.74.346-.596zm-3.156-1.19c-.215-.345-.322-.9-.322-1.664 0-1.335.406-2.003 1.218-2.003.424 0 .736.16.935.48.215.346.322.896.322 1.65 0 1.346-.406 2.02-1.218 2.02-.426 0-.738-.16-.936-.48"/><path d="M13.766 16.95c0 .45-.165.82-.495 1.108-.33.288-.77.432-1.326.432-.52 0-1.02-.166-1.508-.495l.228-.455c.42.21.798.314 1.14.314.318 0 .568-.07.75-.21.18-.142.288-.34.288-.59 0-.315-.22-.584-.622-.81-.372-.204-1.115-.63-1.115-.63-.403-.294-.605-.61-.605-1.128 0-.43.15-.777.45-1.04.302-.266.69-.398 1.168-.398.492 0 .94.13 1.343.393l-.204.456c-.345-.146-.685-.22-1.02-.22-.272 0-.482.065-.628.197-.147.13-.238.298-.238.502 0 .314.224.586.638.816.377.205 1.138.64 1.138.64.414.293.62.605.62 1.12"/><path d="M22.757 11.342c-.513-.013-.91.038-1.243.18-.096.037-.25.037-.263.16.053.05.06.133.104.204.077.128.21.3.333.39.134.104.27.206.41.295.25.155.532.245.775.4.14.09.282.204.423.3.07.05.115.135.205.166v-.02c-.045-.056-.058-.14-.102-.204-.064-.064-.128-.122-.192-.185-.186-.25-.417-.467-.666-.647-.205-.14-.654-.334-.737-.57l-.013-.013c.14-.013.308-.064.442-.103.217-.057.416-.045.64-.102.103-.026.205-.058.308-.09v-.058c-.116-.115-.2-.27-.32-.378-.327-.282-.687-.557-1.058-.788-.2-.128-.455-.21-.667-.32-.076-.038-.205-.057-.25-.122-.115-.14-.18-.326-.263-.493-.184-.353-.364-.743-.524-1.115-.115-.25-.186-.5-.327-.73-.66-1.09-1.377-1.75-2.478-2.396-.237-.135-.52-.192-.82-.263-.16-.008-.32-.02-.48-.026-.104-.045-.206-.167-.296-.225-.365-.232-1.307-.73-1.576-.07-.173.416.256.826.404 1.037.11.147.25.314.326.48.045.11.058.224.103.34.102.282.198.596.333.86.07.134.147.275.237.396.052.07.14.103.16.218-.09.13-.096.32-.148.48-.23.725-.14 1.622.186 2.154.103.16.347.513.674.378.288-.115.224-.48.307-.8.02-.077.007-.128.046-.18v.014c.09.18.18.352.263.532.198.314.543.64.832.858.153.116.275.314.467.385v-.018h-.014c-.04-.057-.096-.083-.147-.128-.116-.115-.244-.256-.334-.384-.27-.36-.506-.756-.717-1.166-.104-.2-.193-.417-.277-.615-.038-.077-.038-.193-.103-.23-.096.14-.237.262-.307.434-.122.276-.134.615-.18.968-.026.007-.013 0-.026.013-.205-.05-.275-.263-.352-.44-.192-.456-.224-1.187-.058-1.712.045-.134.237-.557.16-.685-.04-.122-.167-.192-.237-.29-.083-.12-.173-.274-.23-.41-.154-.358-.23-.755-.397-1.114-.077-.167-.212-.34-.32-.493-.122-.172-.256-.294-.353-.498-.032-.07-.077-.186-.026-.263.013-.052.04-.072.09-.085.083-.07.32.02.403.058.237.096.436.186.634.32.09.064.187.186.302.218h.135c.205.045.436.013.628.07.34.11.647.27.922.443.84.532 1.53 1.288 1.998 2.19.077.148.11.283.18.436.135.314.3.634.436.94.135.302.264.61.456.86.096.134.48.205.653.275.127.057.326.11.44.18.22.133.436.287.642.435.105.073.426.233.445.362"/><path d="M23.368 18.42h.132v-.65h-.2l-.16.442-.178-.443h-.192v.65h.125v-.495h.007l.185.494h.096l.185-.495v.494zm-1.07 0h.14v-.54h.184v-.11h-.516v.11h.19v.54z"/></svg>