<svg aria-labelledby="simpleicons-mysql-icon" role="img" xmlns="http://www.w3.org/2000/svg" viewBox="0 0 24 24"><title id="simpleicons-mysql-icon">MySQL icon</title><path d="M16.222 5.774c-.11 0-.185.013-.263.032v.013h.01c.053.1.14.17.206.26.052.104.096.206.148.308l.013-.014c.09-.064.135-.166.135-.32-.04-.045-.045-.09-.077-.135-.04-.064-.122-.096-.174-.147zM6.03 18.42h-.888c-.03-1.498-.118-2.906-.26-4.226h-.007l-1.35 4.226h-.677l-1.343-4.226h-.008c-.1 1.267-.162 2.676-.188 4.226H.5c.052-1.885.183-3.653.393-5.302h1.1l1.28 3.896h.008l1.29-3.896h1.05c.233 1.932.37 3.7.41 5.302zm3.85-3.912c-.362 1.96-.84 3.386-1.43 4.275-.462.685-.967 1.027-1.517 1.027-.147 0-.327-.044-.542-.132v-.473c.107.015.23.024.37.024.258 0 .464-.073.62-.214.19-.172.285-.366.285-.58 0-.148-.074-.45-.22-.904l-.974-3.025h.873l.698 2.262c.158.513.224.87.197 1.075.382-1.02.65-2.134.8-3.338h.843zM21.692 18.42h-2.52v-5.302h.847v4.65h1.67zM18.51 18.548l-.974-.48c.087-.072.17-.15.244-.238.414-.486.62-1.207.62-2.16 0-1.754-.688-2.632-2.065-2.632-.675 0-1.202.222-1.58.668-.413.487-.62 1.204-.62 2.152 0 .932.183 1.616.55 2.05.335.393.84.59 1.516.59.254 0 .486-.032.696-.094l1.27.74.346-.596zm-3.156-1.19c-.215-.345-.322-.9-.322-1.664 0-1.335.406-2.003 1.218-2.003.424 0 .736.16.935.48.215.347.322.897.322 1.65 0 1.347-.406 2.02-1.218 2.02-.427 0-.74-.16-.937-.48zM13.766 16.95c0 .45-.165.82-.495 1.108s-.77.432-1.325.432c-.52 0-1.02-.166-1.508-.495l.228-.455c.42.21.798.314 1.14.314.318 0 .568-.07.75-.21.18-.142.288-.34.288-.59 0-.315-.22-.584-.622-.81-.37-.204-1.114-.63-1.114-.63-.403-.294-.605-.61-.605-1.128 0-.43.15-.777.45-1.04.303-.266.69-.398 1.17-.398.49 0 .94.13 1.342.393l-.204.457c-.345-.146-.685-.22-1.02-.22-.272 0-.482.065-.628.197-.147.13-.238.298-.238.502 0 .314.224.586.638.816.377.205 1.138.64 1.138.64.414.293.62.605.62 1.12z"/><path d="M22.757 11.342c-.513-.013-.91.038-1.243.18-.096.037-.25.037-.263.16.054.05.06.133.105.204.077.128.21.3.333.39.134.104.27.206.41.295.25.156.532.246.775.4.14.09.282.205.423.3.07.05.115.136.205.167v-.02c-.044-.056-.057-.14-.1-.204-.065-.064-.13-.122-.193-.185-.186-.25-.417-.467-.666-.647-.204-.14-.653-.333-.736-.57l-.013-.012c.14-.013.31-.064.443-.103.217-.057.416-.045.64-.102.103-.026.205-.058.308-.09v-.058c-.115-.115-.2-.27-.32-.378-.326-.282-.686-.557-1.057-.788-.2-.13-.455-.21-.667-.32-.076-.04-.205-.058-.25-.123-.115-.14-.18-.326-.263-.493-.184-.353-.364-.743-.524-1.115-.116-.25-.187-.5-.328-.73-.66-1.09-1.377-1.75-2.478-2.397-.237-.135-.52-.192-.82-.263-.16-.008-.32-.02-.48-.026-.104-.045-.206-.167-.296-.225-.365-.233-1.307-.73-1.576-.07-.173.415.256.825.404 1.036.11.147.25.314.326.48.045.11.058.224.103.34.102.282.198.596.333.86.07.134.147.275.237.396.052.07.14.103.16.218-.09.13-.096.32-.148.48-.23.725-.14 1.622.186 2.154.103.16.347.513.674.378.288-.115.224-.48.307-.8.02-.077.007-.128.046-.18v.014c.09.18.18.352.263.532.198.314.543.64.832.858.153.116.275.314.467.385v-.017h-.014c-.04-.057-.096-.083-.147-.128-.115-.115-.243-.256-.333-.384-.27-.36-.506-.755-.717-1.165-.104-.2-.193-.417-.277-.615-.038-.077-.038-.193-.103-.23-.096.14-.237.262-.307.434-.122.276-.134.615-.18.968-.026.007-.013 0-.026.013-.205-.05-.275-.263-.352-.44-.192-.456-.224-1.187-.058-1.712.045-.134.237-.557.16-.685-.04-.122-.167-.192-.237-.29-.083-.12-.173-.274-.23-.41-.154-.358-.23-.755-.397-1.114-.077-.167-.212-.34-.32-.493-.122-.17-.256-.293-.353-.497-.032-.07-.077-.186-.026-.263.013-.052.04-.072.09-.085.083-.07.32.02.403.058.237.096.436.186.634.32.09.064.188.186.303.218h.135c.205.046.436.014.628.07.34.11.647.27.922.444.84.532 1.53 1.288 1.998 2.19.077.148.11.283.18.436.135.314.3.634.436.94.135.302.264.61.456.86.096.134.48.205.653.275.128.057.327.11.44.18.22.133.437.287.643.435.105.073.426.233.445.362z"/></svg>