<svg role="img" viewBox="0 0 24 24" xmlns="http://www.w3.org/2000/svg"><title>n8n</title><path d="M21.51 5.854c-1.117 0-2.064.74-2.378 1.756h-3.187c-1.869 0-2.705 1.325-2.705 2.639 0 .776-.28 1.017-.72 1.068a3 3 0 0 0-.213-.008h-.678a2.49 2.49 0 0 0-2.411-1.886A2.49 2.49 0 0 0 6.8 11.329H4.906A2.49 2.49 0 0 0 2.49 9.423 2.49 2.49 0 0 0 0 11.912 2.49 2.49 0 0 0 2.489 14.4a2.49 2.49 0 0 0 2.417-1.906h1.895A2.49 2.49 0 0 0 9.218 14.4a2.49 2.49 0 0 0 2.417-1.906h.672q.11 0 .214-.008c.439.05.719.292.719 1.068 0 1.314.836 2.639 2.705 2.639h.57a2.49 2.49 0 0 0 2.43 1.952 2.49 2.49 0 0 0 2.488-2.489 2.49 2.49 0 0 0-2.489-2.489 2.49 2.49 0 0 0-2.405 1.86h-.594c-1.428 0-1.539-1.127-1.539-1.473 0-.71-.19-1.27-.545-1.653.355-.383.545-.943.545-1.653 0-.346.111-1.473 1.54-1.473h3.116a2.49 2.49 0 0 0 2.45 2.056A2.49 2.49 0 0 0 24 8.342a2.49 2.49 0 0 0-2.49-2.488m-19.02 7.38a1.324 1.324 0 0 1 0-2.645c.73 0 1.323.594 1.323 1.323 0 .73-.594 1.323-1.323 1.323m6.729 0a1.324 1.324 0 0 1 0-2.645 1.324 1.324 0 0 1 0 2.646m9.726 1.1c.73 0 1.323.594 1.323 1.323 0 .73-.594 1.323-1.323 1.323a1.324 1.324 0 0 1 0-2.645m2.567-4.669a1.324 1.324 0 0 1 0-2.645 1.324 1.324 0 0 1 0 2.645"/></svg>