<svg role="img" viewBox="0 0 24 24" xmlns="http://www.w3.org/2000/svg" ><title>Nagios</title><path d="M21.397 5.929c-.07 1.138-.004 2.272.085 3.41.05.638.01 1.276-.07 1.91-.117.924-.216 1.852-.17 2.79.017.365.093.731.137 1.097.1.777.152 1.553-.017 2.33a2.95 2.95 0 0 1-.206.577c-.28.62-.794.906-1.44 1.004-.474.07-.934-.01-1.398-.107a6.962 6.962 0 0 0-1.009-.152 3.291 3.291 0 0 1-1.88-.737c-.637-.504-1.097-1.16-1.494-1.86-.34-.6-.656-1.207-.99-1.805a9.723 9.724 0 0 0-1.603-2.11c-.446-.447-.794-.97-1.142-1.49-.13-.193-.192-.43-.3-.64a1.985 1.985 0 0 0-.263-.415c-.277-.308-.718-.232-.87.157-.067.174-.098.37-.107.557-.023.6-.01 1.197-.036 1.795-.018.428-.09.852-.107 1.28-.018.416-.018.83.018 1.241.03.375.009.728-.134 1.076-.085.21-.156.424-.228.643-.093.29-.053.567.09.84.08.156.15.33.165.5.04.45-.197.785-.648.963a3.52 3.52 0 0 1-1.116.224c-.505.026-1.013.08-1.509-.04-.584-.14-1.12-.375-1.504-.866-.13-.17-.21-.357-.227-.576-.045-.67-.107-1.336-.13-2.005a30.011 30.012 0 0 1 .01-2.102c.013-.438.227-.799.526-1.11.187-.198.375-.394.55-.604.186-.228.271-.504.307-.799a.84.84 0 0 0-.192-.66c-.28-.344-.545-.701-.71-1.112-.29-.714-.509-1.45-.54-2.236-.03-.732.054-1.45.143-2.173.067-.531.045-1.058.01-1.59-.04-.584-.095-1.165.008-1.75.085-.486.317-.763.736-.839.134-.022.277-.022.41-.008.532.053 1.05.035 1.563-.148.348-.125.705-.21 1.05-.334.494-.183 1.303.111 1.544.544.143.254.254.527.375.794.12.264.218.536.348.795.152.3.402.519.723.62.406.13.705.38.96.724a50.696 50.698 0 0 1 1.892 2.763c.567.87 1.174 1.718 1.776 2.57.13.184.308.335.473.487.072.067.165.12.259.156.138.058.25.023.29-.12.076-.241.134-.491.165-.737.03-.26.027-.526.03-.79.01-.325.028-.651.024-.977-.01-.446-.036-.893-.058-1.334-.023-.465-.058-.93-.067-1.388-.005-.215.036-.433.053-.652.032-.37.054-.745.085-1.117.027-.343.036-.696.103-1.035.125-.634.518-1.004 1.156-1.022.696-.018 1.397 0 2.084.076.844.093 1.388.615 1.687 1.405.183.487.241.997.286 1.505.071.866.076 1.737.03 2.607zm-2.66 18.036c-.696-.05-1.535-.085-2.37-.165-.995-.094-1.99-.156-2.99-.12-.5.017-1 .084-1.49.16-.853.134-1.714.156-2.576.16-.763 0-1.527 0-2.286-.084-.334-.04-.67-.094-1.004-.103-.38-.009-.763.027-1.142.036-.576.018-1.152.05-1.719-.112-.575-.165-.754-.428-.624-1.102.098-.527.477-.826.928-1.05.495-.244 1.022-.311 1.566-.271.523.04 1.045.094 1.567.12.723.036 1.447.085 2.165.076a73.062 73.063 0 0 0 3.125-.116c.5-.026.995-.107 1.49-.187.679-.107 1.353-.058 2.026.04.697.107 1.397.205 2.098.272.424.04.853 0 1.276.014.563.022 1.13.022 1.68.16.137.036.271.085.4.143.563.246.8 1.036.281 1.553-.366.366-.785.603-1.325.58-.308-.013-.62 0-1.076 0z"/></svg>
