<svg role="img" viewBox="0 0 24 24" xmlns="http://www.w3.org/2000/svg"><title>Namecheap icon</title><path d="M18.28 18.415a2.3 2.3 0 0 1-.99.232h-3.068a2.259 2.259 0 0 1-1.957-1.143l-.082-.157L8.24 9.524 6.785 6.668l-.08-.157a2.268 2.268 0 0 0-.974-.922c.136-.067.279-.12.425-.16a2.3 2.3 0 0 1 .572-.072h3.05c.81.003 1.558.438 1.959 1.143l.08.157 3.944 7.814 1.454 2.856.08.157c.227.403.57.728.985.931zM7.796 9.752L6.339 6.894l-.07-.139a1.76 1.76 0 0 0-.76-.719l-.224-.11c-.204.165-.391.35-.522.581l-.083.16L.3 15.288l-.106.206a2.245 2.245 0 0 0 4.016 1.999l.049-.092 1.762-3.473 1.945-3.836-.171-.34zM22.65 5.543a2.245 2.245 0 0 0-.892-.187l-.003-.011c-.816 0-1.569.443-1.965 1.157l-.046.094-1.75 3.473-1.953 3.847.165.327L17.66 17.1l.07.139c.178.316.444.568.77.727l.228.112c.205-.167.393-.352.525-.585l.08-.157 4.373-8.629.106-.208a2.245 2.245 0 0 0-1.162-2.955z"/></svg>