<svg role="img" viewBox="0 0 24 24" xmlns="http://www.w3.org/2000/svg"><title>NameSilo</title><path d="m4.184 23.975-.192-.02-.247-.047-.247-.048-.302-.099-.3-.098-.273-.133-.272-.132-.237-.156-.236-.156-.202-.17-.203-.169-.194-.202-.195-.203-.156-.211-.156-.212-.116-.193-.116-.194-.104-.222-.105-.223-.095-.292-.096-.293-.047-.247-.048-.248-.022-.232L0 19.542V4.458l.023-.233.022-.232.048-.248.047-.247.096-.293.095-.292.105-.223.104-.222.116-.194.116-.193.158-.214.158-.214.226-.233.227-.233.191-.152.191-.152.214-.14.214-.14.272-.133.272-.133.301-.098.302-.099.247-.047.247-.048.233-.022L4.458 0h15.084l.233.023.232.023.246.046.246.046.316.104.317.103.293.149.292.148.191.127.191.128.18.145.18.145.227.233.226.233.158.214.158.214.116.193.116.194.104.222.105.223.095.292.096.293.047.247.048.248.022.232.023.233v15.084l-.023.233-.022.232-.048.248-.047.247-.096.293-.095.292-.105.223-.104.222-.116.194-.116.193-.153.208-.154.207-.238.247-.238.246-.18.142-.18.143-.195.13-.196.13-.292.145-.292.145-.304.099-.304.099-.247.047-.248.048-.232.022-.233.023-7.584-.003-7.583-.003zm9.11-4.54.325-.024.35-.034.348-.035.314-.045.314-.045.322-.067.323-.068.231-.075.232-.076.138-.07.137-.07.076-.075.077-.077.014-.073.015-.072v-2.502l-.05.07-.05.071-.104.07-.103.071-.167.069-.167.068-.338.086-.337.086-.36.058-.36.057-.303.034-.304.034-.27.022-.27.023-.607.026-.608.026-.652-.014-.652-.014-.36-.023-.36-.023-.337-.034-.338-.033-.247-.035-.248-.035-.247-.045-.247-.045-.264-.065-.263-.066-.176-.068-.175-.067-.123-.074-.123-.073-.05-.077-.052-.076v2.573l.033.065.034.065.073.055.073.055.135.067.135.068.214.068.214.068.27.057.27.058.202.034.202.034.372.045.37.044.316.025.315.025.37.02.372.018.9-.008.9-.008zm.112-3.306.303-.024.417-.046.416-.045.337-.057.337-.056.282-.069.28-.068.226-.089.225-.088.108-.08.109-.08.032-.076.032-.077V12.75l-.096.098-.095.098-.147.07-.146.07-.213.069-.214.068-.259.057-.258.058-.282.045-.28.045-.299.035-.298.034-.433.035-.433.034-.843.013-.844.014-.549-.027-.549-.026-.352-.033-.352-.032-.269-.035-.268-.034-.203-.034-.202-.034-.214-.046-.213-.045-.192-.055-.19-.055-.17-.069L7.48 13l-.09-.062-.09-.061-.05-.077-.052-.076.006 1.319.006 1.318.076.079.076.078.126.067.127.066.168.06.17.061.27.064.269.064.259.047.258.046.36.045.36.044.461.035.461.034.158.008.157.008 1.069-.006 1.068-.006zm-.349-3.287.45-.022.36-.034.36-.034.393-.056.394-.057.306-.067.307-.067.222-.075.222-.075.115-.058.115-.058.074-.062.073-.062.031-.074.03-.073V9.439l-.076.09-.077.09-.131.069-.131.07-.169.06-.169.06-.315.075-.314.076-.282.045-.28.046-.282.034-.281.034-.416.036-.416.037-1.013.012-1.012.012-.46-.026-.462-.026-.36-.034-.36-.034-.258-.033-.26-.033-.19-.035-.191-.034-.214-.045-.214-.044-.258-.08-.26-.08-.15-.08-.152-.08-.08-.087-.078-.087v2.58l.05.066.05.064.034.03.034.028.154.08.154.079.196.064.196.064.314.068.314.068.303.046.304.046.303.033.304.033.349.027.348.026.596.014.597.014.404-.006.405-.006zm.326-3.304.349-.022.281-.025.281-.024.36-.044.36-.044.259-.046.258-.046.225-.056.224-.057.176-.068.176-.068.09-.084.088-.085V7.253L14.2 5.735l-2.309-1.518-.018-.007-.018-.007-2.329 1.523-2.328 1.523v1.61l.059.07.06.07.103.052.104.052.146.048.146.047.18.045.18.044.259.046.259.046.348.044.349.044.46.037.462.036.439.02.438.019.922-.01.923-.01z"/></svg>