<svg role="img" xmlns="http://www.w3.org/2000/svg" viewBox="0 0 24 24"><title>Nano icon</title><path d="M13.7136 12.0065a1.7145 1.7145 0 01-3.4289 0c0-1.286-.4292-1.7136-1.7135-1.7136s-1.7136.4293-1.7136 1.7136a1.7144 1.7144 0 11-1.7152-1.7136c1.286 0 1.7135-.4292 1.7135-1.7135a1.7136 1.7136 0 013.4271-.0262v.0262c0 1.286.4293 1.7135 1.7136 1.7135a1.7145 1.7145 0 011.717 1.712zm-12 1.7153A1.7136 1.7136 0 110 15.4354a1.7136 1.7136 0 011.7135-1.7135zM24 8.5777a1.7138 1.7138 0 01-1.7136 1.7135c-1.286 0-1.7135.4293-1.7135 1.7136a1.7138 1.7138 0 01-1.7136 1.7136c-1.286 0-1.7135.4292-1.7135 1.7135a1.7136 1.7136 0 11-1.7137-1.7135c1.286 0 1.7136-.4293 1.7136-1.7136a1.7138 1.7138 0 011.7135-1.7136c1.2861 0 1.7136-.4292 1.7136-1.7135A1.7136 1.7136 0 1124 8.5514v.0263z"/></svg>