<svg role="img" viewBox="0 0 24 24" xmlns="http://www.w3.org/2000/svg"><title>NASA icon</title><path d="M24 2.9999898a15.86 15.86 0 01-4.5 3.84 9.81 9.81 0 00-8.34-4.66A9.82 9.82 0 001.34 11.99999a9.49 9.49 0 00.24 2.14c-.56.29-1.1.59-1.58.9l.26.1c.51-.28 1-.52 1.39-.71a9.76 9.76 0 002.8 4.73l-1.59 1.47v.32c.73-.65 1.32-1.17 1.83-1.6a9.78 9.78 0 006.47 2.47 9.82 9.82 0 009.84-9.82 9.81 9.81 0 00-.8-3.8700002 12.9 12.9 0 003.8-5.13zM16.89 10.13999l-.18.13a1.43 1.43 0 00-.14-.13zM13 3.9999898a.11.11 0 01.09-.1v-.28.27a.14.14 0 01.19.11h.27-.28a.09.09 0 01-.1.09v.28-.28a.11.11 0 01-.17-.09h-.24zm.3 2.21a.11.11 0 01-.11.11.11.11 0 01-.11-.11.11.11 0 01.11-.11.11.11 0 01.11.11zm-1.59-2.11a.11.11 0 01.11.11.11.11 0 01-.11.11.11.11 0 01-.11-.11.11.11 0 01.11-.11zm.09 1.27a.09.09 0 01-.08.08.08.08 0 01-.08-.08.08.08 0 01.08-.09.09.09 0 01.08.09zm-.62-2.47a.09.09 0 01.08.1.09.09 0 01-.08.08.09.09 0 01-.09-.08.09.09 0 01.09-.1zm-.32 1.92a.08.08 0 01.08.08.07.07 0 01-.08.1.08.08 0 01-.08-.08.09.09 0 01.08-.1zm-.28-.82a.11.11 0 01.11.11.11.11 0 01-.11.11.11.11 0 01-.11-.11.11.11 0 01.11-.11zm-.82 1.16a.08.08 0 01.08.08.08.08 0 01-.08.09.09.09 0 01-.08-.09.09.09 0 01.08-.12zm-.24-.16a.09.09 0 01.08 0 .08.08 0 01-.08.08.07.07 0 01-.08-.08.08.08 0 01.08 0zm0 .57a.08.08 0 01-.09.08.08.08 0 01-.08-.08.09.09 0 01.08-.08.09.09 0 01.05.04zm-.22-.77a.09.09 0 01.08.08.08.08 0 01-.08.12.08.08 0 01-.09-.08.09.09 0 01.09-.12zM4 16.69999a.08.08 0 01-.08-.08.08.08 0 01.08-.09.09.09 0 01.08.09.09.09 0 01-.08.08zm-.3-5.24v1.85c0 .19.18.36.37.51H2.86a.67.67 0 00.35-.48v-2.66c0-.11-.22-.4-.39-.54h1.64l1.38 2.34v-1.83a.77.77 0 00-.35-.51h1.14a.71.71 0 00-.3.51v2.69c0 .16.24.39.36.48H5.1zm1.22 5.66a.08.08 0 01-.09-.12.09.09 0 01.09 0 .09.09 0 01.08 0 .08.08 0 01-.08.12zm.14-.53a.1.1 0 01-.06-.11.11.11 0 01.11-.11.11.11 0 01.11.11.1.1 0 01-.16.11zm.28.89a.11.11 0 01-.11-.11.11.11 0 01.11-.12.11.11 0 01.11.12.11.11 0 01-.11.11zm1.29-.42a.09.09 0 01-.09-.06.09.09 0 01.09-.09.09.09 0 01.08.09.09.09 0 01-.08.06zm1.1 2.26a.11.11 0 01-.1.09v.28-.28a.12.12 0 01-.1-.09h-.28.28a.12.12 0 01.09-.1v-.28.27a.13.13 0 01.1.1h.27zm-.47-1.18a.08.08 0 01.08-.08.08.08 0 01.08.08.07.07 0 01-.08.08.07.07 0 01-.08-.08zm.38-4a.08.08 0 01-.08-.08.07.07 0 01.08-.06.08.08 0 01.08.08.09.09 0 01-.08.1zm.14 1.86a.11.11 0 01-.11.11.11.11 0 01-.11-.11.11.11 0 01.11-.11.11.11 0 01.11.11zm.44 1.4a.11.11 0 01.11-.11.11.11 0 01.11.11.11.11 0 01-.11.11.11.11 0 01-.11-.12zm.24 1a.09.09 0 01-.09-.08.09.09 0 01.09-.09.09.09 0 01.08.09.09.09 0 01-.08.11zm1.28-3.78c-.13-.17-.38-.45-.65-.79s-.42-.59-.63-.88c0 0-.06.29-.08.44-.02.15.07.27.19.4H7.36c.11-.09.39-.27.45-.43.06-.16.13-.46.27-.95.2-.72.43-1.61.46-1.74.03-.13-.23-.47-.32-.55h1.91l1.23 3.33a.91.91 0 00.19.29l-.12.08H9.5c.14-.12.29-.29.27-.44a1.64 1.64 0 00-.12-.38h-.89c.13.17.25.35.39.53l.74.92.23.27-.24.16zM7.87 7.3599898a.08.08 0 01-.08-.08.07.07 0 01.08-.08.08.08 0 01.13.08.09.09 0 01-.13.08zm.27-.36h.28a.13.13 0 01.09-.11v-.27.27a.14.14 0 01.11.1h.27-.28a.11.11 0 01-.1.1v.28-.28a.12.12 0 01-.09-.09zM10.66 18.18999a.09.09 0 01-.09-.08.09.09 0 01.09-.11.09.09 0 01.08.09.09.09 0 01-.08.1zm.45-1.93a3.66 3.66 0 01-1-1.06l.3-.2c.45.43.88.71 1.06.88.18.17.11.6-.36.38zm1.48 1.23a.09.09 0 01-.08-.08.09.09 0 01.08-.09.09.09 0 01.09.09.09.09 0 01-.09.08zm-.34-3.35v-.38l.37-.25.31-.19a1.28 1.28 0 00.28.07c.48.05 1-.08 1-.34s-.21-.25-.35-.34l1.14-.71a1.16 1.16 0 01.43.8c0 .59-.92 1.11-1.4 1.14a2.56 2.56 0 01-1.31-.17.68.68 0 00-.47.37zm0-.87v-.39a2.15 2.15 0 00.26.21zm3.24 2.58a.08.08 0 01-.08-.08.09.09 0 01.08-.08.08.08 0 01.08.08.07.07 0 01-.08.08zm.07 1a.09.09 0 01-.08.15.09.09 0 01-.09-.08.08.08 0 01.09-.08.08.08 0 01.08.05zm.31 2.26a.08.08 0 01-.08-.08.08.08 0 01.08-.03.09.09 0 01.13.07.09.09 0 01-.13.08zm1.81-3.83a.11.11 0 11.11-.11.11.11 0 01-.11.11zm.09 1.5a.09.09 0 01-.08.08.08.08 0 01-.08-.08.08.08 0 01.08-.09.09.09 0 01.08.09zm-.25-2a.08.08 0 01-.09-.08.09.09 0 01.09-.08.09.09 0 01.08.08.08.08 0 01-.08.05zm.48 2.48a.13.13 0 01-.1.1v.28-.28a.13.13 0 01-.1-.1h-.3.28a.12.12 0 01.09-.1v-.27.27a.13.13 0 01.1.1h.27zm.42.08a.09.09 0 01-.09-.09.09.09 0 01.09-.08.09.09 0 01.08.08.09.09 0 01-.06.09zm.14-1.34a.08.08 0 01-.08 0 .08.08 0 11.16 0 .08.08 0 01-.08 0zm.23-.83v.28-.28a.13.13 0 01-.1-.09h-.28.28a.13.13 0 01.05-.08v-.27.27a.13.13 0 01.1.1h.27-.27a.13.13 0 01-.05.1zm.3.68a.11.11 0 11.11-.11.11.11 0 01-.11.14zm-1.23-2.03c.13-.12.29-.29.26-.44a1.64 1.64 0 00-.12-.38h-1.21s-.07.29-.09.44a.52.52 0 00.19.4h-.7c.62 1.7.63 3.09-.09 3.66-.52.41-1.54.25-2.62-.18 0 0-.05-.08 0-.1a2.68 2.68 0 002.52.16c.73-.65.7-2 .08-3.56h-.37a2.37 2.37 0 00.29-.19 13.16 13.16 0 00-.95-1.79c-.24-.38-.5-.78-.79-1.17a1.13 1.13 0 00-.32 0c-.49 0-.7.19-.63.4.07.21.6.33 1.07.55l.28.15-.45.23-.84.53-.14-.05a1.23 1.23 0 01-1-1.23 1.19 1.19 0 011.14-1.11h.52c-.07-.08-.13-.1700002-.19-.2500002-2.5-3.12-5.5-4.89-6.7-3.89-1 .78-.59 3.1.87 5.6000002l-.22.07C6.2 9.1099898 5.77 6.6699898 6.82 5.8399898c1.35-1.07 4.49.7 7.06 3.93l.33.4400002.53.09c.14 0 .3-.16.34-.2v1a1.88 1.88 0 00-.46-.26 14.24 14.24 0 011.5 2.75.34.34 0 00.09-.13c0-.12.69-2.48.73-2.7l.76-.53h.83l1.18 3.22a.62.62 0 00.29.37zm-1.62 2a.11.11 0 11-.11.11.11.11 0 01.11-.11zm-.11-.59a.11.11 0 11.11.11.11.11 0 01-.11-.11zM7.6 6.8499898a.09.09 0 01-.08.09.09.09 0 01-.09-.09.09.09 0 01.09-.08.09.09 0 01.08.08zm.94 5.6600002h.96l-.55-1.35zm9.31 0l-.54-1.35-.42 1.35z"/></svg>