<svg role="img" viewBox="0 0 24 24" xmlns="http://www.w3.org/2000/svg"><title>NASA icon</title><path d="M0 0h24v24H0z M20.33 8.11C22.44 6.24 23.9 4.4 24 2.7a37.12 37.12 0 01-4.32 3.67 9.88 9.88 0 00-5.31-3.84A9.9 9.9 0 002.12 9.22a10 10 0 00-.22 4.64A16.05 16.05 0 000 15a12.15 12.15 0 011.95-1 9.93 9.93 0 002.55 4.85l.07-.06c-1.07.87-1.79 1.56-1.85 1.88 1-1.14 6.07-4.53 9.83-7l.82-.52.89-.56c.41-.27.74-.51 1.11-.7l.08-.06c-.1-.12-.17-.31-.25-.39l-.5-.73-.09-.13a1.76 1.76 0 00-.38 0 1 1 0 00-.3 0c-.18.05-.29.14-.3.25a.32.32 0 00.11.17 4.31 4.31 0 001 .38 3.18 3.18 0 01.26.17c-.38.25-.82.52-1.3.83h-.1c-.43-.22-1.16-.6-1.15-1.18A1.41 1.41 0 0113.8 10h.33A13.88 13.88 0 009.9 6.23c-2.17-1-3.4-.27-3 1.95a12.28 12.28 0 001.64 3.74L9 10.44S8.52 10 8.53 10h2l1.07 3.18.4.35c-.08 0-.17.11-.25.16H9.78l.37-.44-.15-.45h-.91a8.78 8.78 0 001 1.31 3 3 0 00.41.39l-.25.18a21.44 21.44 0 01-1.44-1.88l-.14.46.38.43h-1.4l.49-.43.31-1A10.66 10.66 0 017.7 11c-.65-1.22-1.88-4.44-.44-5.28s3.53.45 5.7 2.52A14.21 14.21 0 0114.51 10a1.72 1.72 0 00.49.14l.4-.3v1.12a1.38 1.38 0 00-.4-.26c.14.19.25.4.38.6.56-.38 1.1-.76 1.63-1.14H17l-.17-.16h.4c.51-.37 1-.73 1.49-1.1-.48.37-1 .75-1.54 1.13l-.18.13c-.53.38-1.07.76-1.63 1.14a14.08 14.08 0 011.08 2l.79-2.72L18 10h.8l1.1 3.21.54.48h-2.35l.37-.42-.16-.47h-1.19l-.11.48.36.41h-.74a5.87 5.87 0 01.45 2.7c-.23 1.9-2.48 1.42-3.3.78 1.66.58 2.36.49 2.78 0s.32-1.22.17-2.42a4.47 4.47 0 00-.28-1H16l.34-.28a12.46 12.46 0 00-.89-1.64l-.07.05a1.1 1.1 0 01.31.77c0 .63-.81 1.06-1.5 1.11a2.61 2.61 0 01-1.19-.14c-.14.1-.32.19-.46.31a1.76 1.76 0 010-.23l-1.68 1.11a7.32 7.32 0 00.82.62c.42.3.23.6.11.66a.54.54 0 01-.64-.28 5.2 5.2 0 00-.55-.76l.17-.12c-2.15 1.42-4.43 3-6 4.14a9.86 9.86 0 004.04 2.4 9.89 9.89 0 0012.24-6.69 9.83 9.83 0 00-.5-6.86zm-7.78 4.5a.9.9 0 00.29.33l-.29.2c-.01-.14.01-.35 0-.53zM7.93 6.79a.06.06 0 010-.09.07.07 0 01.07 0 .07.07 0 010 .05.08.08 0 01-.07.04zm.3.51a.1.1 0 01-.07-.13.09.09 0 01.12-.07.11.11 0 01.08.12.11.11 0 01-.13.08zm.82-.42A.14.14 0 019 7l-.07.64L8.84 7a.17.17 0 01-.07-.08h-.33l.34-.09.06-.06.07-.47.09.4.06.06h.37zm-1 9a.12.12 0 01-.08-.14.14.14 0 01.14-.08.14.14 0 01.08.15.12.12 0 01-.19.09zm0-2a.08.08 0 010 .1A.1.1 0 018 14a.11.11 0 010-.12.08.08 0 010-.01zM4.4 16.45a.08.08 0 01-.05-.1.08.08 0 01.1-.06.09.09 0 010 .1.08.08 0 01-.05.06zm.92.52a.1.1 0 01-.08-.11.1.1 0 01.11-.08.11.11 0 01.07.13.1.1 0 01-.1.09zm.11-.59a.11.11 0 01-.07-.13.11.11 0 01.12-.09.12.12 0 01.07.14.1.1 0 01-.12.08zm.48.81a.16.16 0 01-.19.1.15.15 0 01-.1-.19.15.15 0 01.18-.1.15.15 0 01.1.19zm1-.35a.09.09 0 01-.06-.11.09.09 0 01.15-.05.09.09 0 01.06.11.09.09 0 01-.06.05zM7.14 10l-.36.41v2.76l.41.52H5.51l-1.3-2.2v1.84l.39.36H3.31l.34-.47v-2.78L3.28 10h1.63l1.25 2.13.08.12v-1.82L5.88 10zm2.43-5.21s0-.06.07 0 .06 0 0 .07a.07.07 0 01-.08.06.07.07 0 01.01-.13zm.16.75a.08.08 0 010-.11.07.07 0 01.1 0 .1.1 0 01.06.11.09.09 0 01-.16 0zm.09-.5a.06.06 0 010-.08s0-.06.07 0a.07.07 0 01.02.04.08.08 0 01-.09 0zm.29.16a.09.09 0 01-.06-.11.1.1 0 01.11-.09.08.08 0 01.06.1.09.09 0 01-.11.1zm.73-1.09a.1.1 0 01-.08-.11.11.11 0 01.15-.08A.11.11 0 0111 4a.1.1 0 01-.16.11zm.3.82a.1.1 0 01-.06-.13.1.1 0 01.12-.07c.06 0 .09.08.07.13s-.07.08-.13.07zm.33-1.87a.13.13 0 01-.09-.15.14.14 0 01.16-.08.12.12 0 01.07.17.12.12 0 01-.14.06zm.59 1a.08.08 0 010 .09h-.09a.08.08 0 010-.09.06.06 0 01.09.01zm0 1.29s-.06 0 0-.07a.08.08 0 01.09 0 .07.07 0 010 .08.05.05 0 01-.09 0zm1.28.79a.12.12 0 01-.08-.14.12.12 0 01.16-.08.11.11 0 01.08.15.12.12 0 01-.16.08zM13.49 4a.12.12 0 01-.06.09l-.07.8-.08-.8a.15.15 0 01-.06-.09h-.52l.53-.08.09-.76.07.76a.1.1 0 01.05 0L14 3.9zM18 10c.8-.61 1.55-1.22 2.24-1.82-.67.6-1.42 1.21-2.24 1.82zm-1.48 5.92a.14.14 0 01-.08-.16.13.13 0 01.16-.09.13.13 0 01.08.16.13.13 0 01-.16.09zm.07-1a.16140012.16140012 0 11-.09.31.17.17 0 01-.12-.23.16.16 0 01.21-.08zm-.66 1.87s-.09.09-.14.07-.1-.08-.07-.13a.11.11 0 01.13-.07.11.11 0 01.08.13zm-.1-1.27s.09.08.06.12a.1.1 0 01-.12.07.11.11 0 01-.06-.13.11.11 0 01.12-.06zm-8.26 2.42a.1.1 0 01.12-.08.12.12 0 01.07.14.1.1 0 01-.13.06.08.08 0 01-.07-.06zm.58 1.18s0 .08-.07.09l-.08.47-.08-.47a.35.35 0 01-.06-.09h-.37l.4-.12v-.46L8 19h.06l.39.06zm.39-2a.16.16 0 01.19-.12.16.16 0 01.1.19.15.15 0 01-.19.11.15.15 0 01-.1-.15zm.25 1.08a.09.09 0 010-.1.08.08 0 01.1-.06.08.08 0 01.05.1.08746428.08746428 0 01-.15.09zm2.21-.12a.11.11 0 01-.08-.15.12.12 0 01.15-.09.13.13 0 01.09.16.12.12 0 01-.16.08zm1.89-.72a.09.09 0 01-.07-.11.09.09 0 01.1-.07.1.1 0 01.08.12s-.07.09-.11.06zm3.28 1.7a.16.16 0 01-.1-.19.15.15 0 01.19-.1.17.17 0 01.1.19.16.16 0 01-.19.1zM18 14.89a.11.11 0 110 .22.12.12 0 01-.1-.11.12.12 0 01.1-.11zm0 1.62c.06 0 .09.09.08.15a.12.12 0 01-.14.07.11.11 0 01-.08-.14.12.12 0 01.14-.08zm-.18-2.07a.08.08 0 010 .09.07.07 0 01-.09.05.07.07 0 010-.08s.05-.07.09-.06zm.52 2.7a.22.22 0 01-.07.09l-.07.29-.08-.3a.1.1 0 01-.07-.08h-.29l.31-.14a.1.1 0 010-.06l.06-.28.14.34h.05l.25.09zm.38.09a.11.11 0 01-.06-.13.11.11 0 01.13-.1.11.11 0 01.07.13.12.12 0 01-.14.1zm.13-1.35a.11.11 0 01-.09-.13.13.13 0 01.15-.09.13.13 0 01.09.16.11.11 0 01-.15.06zm.5-.2c-.06 0-.11-.1-.08-.15a.11.11 0 01.15-.09.15.15 0 01.09.16.13.13 0 01-.16.08zm-.13-.74a.15.15 0 01-.06.06l-.08.48L19 15a.15.15 0 010-.06h-.45l.45-.11a.12.12 0 010-.05l.08-.48.07.48.36.07z M14.43 13a.31.31 0 00-.16-.4l-.89.56c.48.13.97.11 1.05-.16zM9.4 11.17h-.11c-.08.29-.23.82-.3 1l.7-.15zM17.28 12.3h.79l-.42-1.3s-.35 1.29-.37 1.3z"/></svg>