<svg role="img" viewBox="0 0 24 24" xmlns="http://www.w3.org/2000/svg"><title>Nativewind</title><path d="M6.488 14.643c2.284-.143 4.696.13 6.338.965 1.167.575 2.42 1.752 2.306 3.56-.119 1.333-1.08 2.434-2.324 2.736-1.906.47-3.902-.845-4.18-2.706l-.026-.26a.77.77 0 0 1 .72-.743.78.78 0 0 1 .838.616l.04.265c.201.926 1.256 1.595 2.22 1.357.62-.148 1.087-.73 1.146-1.395.087-.979-.689-1.711-1.471-2.087-1.277-.649-3.355-.928-5.505-.794-2.15.135-4.174.672-5.352 1.475a.805.805 0 0 1-1.095-.183.743.743 0 0 1 .19-1.057c1.632-1.103 4.025-1.615 6.155-1.75m17.51-4.86c-.051 1.147-.503 2.152-1.325 2.89-.814.73-1.934 1.148-3.239 1.247-.715.054-1.667-.12-2.68-.306-1.06-.195-2.31-.432-3.757-.58-2.882-.294-6.55-.232-10.868 1.28a.794.794 0 0 1-1.006-.456.753.753 0 0 1 .47-.972c4.592-1.607 8.509-1.674 11.569-1.361 1.523.155 2.836.405 3.887.598 1.098.202 1.807.318 2.263.284 1.036-.08 1.794-.4 2.293-.847.491-.441.789-1.056.824-1.843.043-1.391-1.2-2.325-2.45-2.326-1.243-.012-2.2.737-2.447 1.915a.786.786 0 0 1-.926.594.76.76 0 0 1-.615-.894c.39-1.903 2.031-3.152 4.004-3.133 2.166.044 4.075 1.66 4.003 3.91M9.78 4.987c.157-1.79 1.882-3.219 3.78-2.956 1.426.211 2.523 1.312 2.68 2.772.182 1.708-.997 2.994-2.48 3.62-2.806 1.172-3.753 1.202-8.2 2.17l-2.136.477a.79.79 0 0 1-.946-.562.76.76 0 0 1 .583-.915l2.19-.49c4.524-.987 5.226-.963 7.884-2.074.89-.361 1.65-1.055 1.541-2.07-.078-.736-.645-1.35-1.34-1.425-.989-.137-1.966.666-1.995 1.67a.78.78 0 0 1-.808.739c-.572-.04-.818-.47-.753-.956"/></svg>