<svg role="img" viewBox="0 0 24 24" xmlns="http://www.w3.org/2000/svg"><title>Nativewind</title><path d="M6.488 13.738c2.284-.148 4.696.134 6.339.999l.308.174c1.479.898 2.109 2.229 1.999 3.512-.106 1.228-.903 2.346-2.083 2.757l-.242.074c-1.907.487-3.904-.876-4.182-2.802l-.022-.188-.003-.08a.786.786 0 0 1 1.558-.133l.01.08.03.196c.201.958 1.257 1.65 2.22 1.404l.111-.034c.55-.193.98-.741 1.037-1.41.053-.613-.217-1.411-1.255-2.037l-.218-.122c-1.277-.672-3.355-.962-5.505-.823-2.15.14-4.174.696-5.353 1.527l-.068.043a.785.785 0 0 1-.838-1.327l.294-.195c1.517-.947 3.722-1.476 5.863-1.615M20.2 4.667c2.019.12 3.778 1.724 3.804 3.827L24 8.706c-.051 1.187-.503 2.226-1.324 2.99-.815.757-1.935 1.19-3.24 1.293-.716.056-1.669-.124-2.681-.317-1.06-.203-2.31-.448-3.758-.601-2.883-.304-6.552-.24-10.871 1.324a.786.786 0 0 1-.535-1.477c4.592-1.663 8.51-1.733 11.571-1.41 1.524.161 2.836.42 3.887.62 1.098.21 1.808.33 2.263.295 1.037-.082 1.796-.415 2.294-.878.491-.457.789-1.092.823-1.907l-.002-.238c-.077-1.1-1.004-2.025-2.189-2.154l-.258-.015c-1.244-.012-2.2.763-2.448 1.983l-.02.077a.785.785 0 0 1-1.52-.39l.04-.182c.457-1.856 2.029-3.078 3.964-3.06zM9.781 3.745c.156-1.854 1.881-3.333 3.78-3.06l.279.053c1.365.324 2.267 1.52 2.401 2.815.14 1.354-.54 2.761-2.146 3.59l-.334.157c-3.207 1.387-3.987 1.229-10.336 2.74l-.08.015a.786.786 0 0 1-.285-1.544l2.19-.507c4.526-1.021 5.228-.996 7.887-2.146l.228-.107c1.09-.556 1.38-1.382 1.314-2.035-.074-.711-.558-1.295-1.21-1.45l-.132-.026c-.99-.142-1.966.69-1.995 1.73l-.007.08a.786.786 0 0 1-1.565-.124z"/></svg>