<svg role="img" viewBox="0 0 24 24" xmlns="http://www.w3.org/2000/svg"><title>NBA icon</title><path d="M9.193 0a2.499 2.499 0 0 0-2.489 2.496v19.04C6.704 22.914 7.824 24 9.2 24h5.6c1.376 0 2.496-1.087 2.496-2.463V2.497C17.296 1.12 16.176 0 14.832 0H9.2a2.499 2.499 0 0 0-.007 0zM9.2.577h3.2c-.608.255-.705.511-.736 1.375-.096.033-.32-.096-.224.448 0 0 .032.352.16.288-.128.896.032.992-.928 1.023l-.031.065c-.96.096-1.248-.031-2.049 1.6 0 0-.224.512-.288.704-.192.416-.673 1.344-.8 1.952-.065.193-.16.256-.032.544.192.416-.128.512.96.48v.256s-.288.256-.352.384c-.064.16-.224.896-.224 1.248.032.928.768 1.696.992 2.592l.512.096c.256.608 1.472 2.336 1.728 2.56.064.16.384.351.544.575.16.129 1.025 1.09 2.048 1.665 0 0 .192.352.256.64-.32.255.32.768.545 1.6 0 .128-.193.223.095.512-.032 1.248-.383 1.92.256 2.24H9.2c-1.056 0-1.92-.832-1.92-1.887V2.497c0-1.057.864-1.92 1.92-1.92zm3.808 0h1.824c1.024 0 1.887.863 1.887 1.92v9.183a2.331 2.331 0 0 0-.224-.384c0-.256-.255-.256-.351-.352-.064-.063.064-.128-.383-.225-.096-.063-.161-.735-.161-.735-.096-.448-.257-.768-.48-1.248-.129-.223-.193-.991-.32-1.375.096-1.76-.48-2.305-.929-2.593-.192-.096-.255-.192-.447-.288v-.064c-.128-.128-.416-.256-.608-.384-.096-.063-.065-.192 0-.256.16-.032.352-.352.512-.705.128 0 .16-.126.224-.19.127-.224.288-.417.096-.545.415-.768.127-1.312-.096-1.312-.096-.192-.256-.319-.544-.447zm.544 6.368c.063.32.351 1.918.447 2.175.129.256.545 1.056.737 1.536a1.718 1.718 0 0 0-1.28 1.664 1.687 1.687 0 0 0 1.695 1.696c.704 0 1.313-.448 1.568-1.088v8.609c0 .96-.704 1.727-1.6 1.886h-.031c.831-.511.32-1.47.16-2.047 0-.031.032-.064.032-.096.064-.064-.033-.257-.033-.257-.096-.064-.127-.543-.19-.767-.097-.352.159-.96.159-1.185 0-.191-.16-.478-.448-.862-.064-.065-.256-1.857-.449-2.305-.255-.608-.35-.512-.639-1.28-.256-.512-.064-1.279-.608-3.072l.128-.129s-.417-1.535-.577-1.95c-.128-.449-.383-.481-.383-.481s0-.16.032-.191c0-.096.511-1.377.544-1.409 0-.032.736-.512.736-.447Z"/></svg>