<svg role="img" viewBox="0 0 24 24" xmlns="http://www.w3.org/2000/svg"><title>NBC</title><path d="M9.2311 5.1133c-.0856 0-.17.0046-.2535.0137-1.1654.0246-2.913 1.4087-2.1361 3.5226l3.5923 8.4556 1.2623-8.8928c.2731-2.0726-1.1819-3.0988-2.465-3.099zm5.5518.0007c-1.2106.0232-2.572.9086-2.5037 2.7767h.6792s.3647 0 .4136.1702c-.2673.2187-.9957.2433-.8983 1.4087l1.1403 7.6543 3.5686-8.48c.728-1.8952-.8014-3.4749-2.1606-3.5234a2.485 2.485 0 0 0-.239-.0065zM4.5193 8.2612c-.5946.0034-1.2038.2247-1.7319.6714-.9948.8996-1.3593 2.9404.4373 4.1315l7.161 4.9078-3.4717-7.9465c-.4552-1.17-1.4037-1.7699-2.3947-1.7642zm14.9926.0876c-.9196-.0364-1.9235.4203-2.4973 1.8145l-3.374 7.848 7.161-4.932c1.6506-1.1666 1.3844-3.038.4616-3.9608-.3717-.4146-1.036-.7414-1.7513-.7697zm2.0457 5.3608c-.4926-.016-1.0179.1221-1.5337.4639l-6.7237 4.6895h8.2775c1.699-.0002 2.7935-1.7504 2.3056-3.3532-.317-.986-1.242-1.765-2.3257-1.8002zm-18.9813.0008c-.4833-.0185-.9458.102-1.347.3453a2.479 2.479 0 0 0-.4222.326c-.009.0086-.019.0157-.028.0244-.277.2715-.5042.6174-.662 1.0304h.0014c-.1663.592-.1501 1.1507.0022 1.6393v.0007c.0914.2932.2316.561.4114.7956.06.0783.1247.1527.1931.2233.478.4933 1.1513.7913 1.8942.7913h8.154l-6.7237-4.6888c-.4853-.3113-.99-.469-1.4734-.4875Z"/></svg>