<svg role="img" viewBox="0 0 24 24" xmlns="http://www.w3.org/2000/svg"><title>NDI</title><path d="M0 6.78v10.44h2.565v-4.41c0-.275.166-.47.43-.47.222 0 .372.124.625.511l2.756 4.37h2.798V6.78H6.61v4.467c0 .275-.166.47-.43.47-.222 0-.373-.124-.625-.511L2.798 6.782Zm19.317 5.213c0-2.878-2.425-5.213-5.39-5.213h-4.13v10.44h4.127c2.983 0 5.394-2.35 5.394-5.228zm-2.632-.015c0 1.672-1.231 2.889-2.922 2.889h-1.067a.336.336 0 0 1-.335-.336V9.466c0-.184.15-.336.335-.336h1.066c1.69 0 2.922 1.217 2.922 2.848zm3.189-5.197v10.44h2.566V6.78Zm3.616 9.418a.513.513 0 0 0-.528.509c0 .286.23.512.528.512a.51.51 0 1 0 0-1.02m0 .084c.24 0 .43.185.43.425a.42.42 0 0 1-.43.426.423.423 0 0 1-.43-.426c0-.24.188-.425.43-.425m.215.316c0-.094-.08-.162-.19-.162h-.195v.546h.098v-.222l.177.222h.113l-.14-.173a.06.06 0 0 1-.01-.034q-.002-.029.03-.034h.004a.15.15 0 0 0 .113-.143m-.102.004c0 .05-.034.076-.09.076h-.094v-.155h.094c.052 0 .09.03.09.08z"/></svg>