<svg role="img" viewBox="0 0 24 24" xmlns="http://www.w3.org/2000/svg"><title>NEC icon</title><path d="M0 9.0312h1.9329c.443 0 .9564.4027 1.198.6342l3.3825 3.7148v-4.349h1.1577v5.9396H5.6577c-.3624-.0202-.7147-.1007-1.1275-.4933l-3.3825-3.7249v4.2081H0zm24 5.9698c-1.3792.1912-2.7685.2013-4.1678.0906a6.2517 6.2517 0 01-2.3557-.6141c-.9262-.4832-1.2282-1.5504-1.208-2.5168 0-.886.2718-1.8423 1.0771-2.3658a4.359 4.359 0 011.7014-.5637c1.6309-.282 3.2718-.2215 4.8725-.0403v.8456c-1.8826-.3624-3.8759-.2718-4.5504.584a2.2651 2.2651 0 00-.4832 1.51c0 .8054.2819 2.0134 1.9329 2.255 1.0772.151 2.1443.0302 3.1812-.151zm-11.7987-.9262c.1611 0 2.7584.0201 3.6544 0v.8859c-1.802.0705-3.5235.1007-5.3356.0302-1.5402-.0604-1.812-.8255-1.8322-1.5604V9.0312h7.0772v.8456h-4.5705v1.51h4.1779v.8256h-4.1779l.0202 1.0369c.02.5738.302.7852.9966.8255z"/></svg>