<svg role="img" viewBox="0 0 24 24" xmlns="http://www.w3.org/2000/svg"><title>Nectar</title><path d="M11.934 1.785C4.346 1.785 0 6.924 0 10.984c0 4.369 4.346 5.227 6.352 5.23 3.109 0 4.245-.28 6.55.728 4.236 1.854 4.326 5.273 6.112 5.273 1.17 0 4.986-5.097 4.986-9.62 0-5.891-5.449-10.81-12.066-10.81zm1.83 6.552h.507c.092 0 .166.073.166.165v.612h.572c.09 0 .163.073.165.163v.42a.164.164 0 0 1-.165.165h-.572v1.297c0 .253.058.421.352.421.115 0 .155-.006.22-.013a.136.136 0 0 1 .163.133v.457c0 .071-.05.147-.134.163a2.596 2.596 0 0 1-.502.034c-.535 0-.937-.373-.937-1.063V9.865h-.273a.165.165 0 0 1-.166-.165v-.42c0-.093.074-.166.166-.166h.273v-.612c0-.092.074-.165.165-.165zm-5.75.709c.932.003 1.591.767 1.591 1.66 0 .034 0 .07-.002.107a.164.164 0 0 1-.163.153H7.174c.094.386.407.659.88.659.24 0 .498-.077.684-.25a.167.167 0 0 1 .216-.008s.228.186.31.247c.068.052.089.165.023.236-.3.328-.748.512-1.226.512-.953 0-1.686-.714-1.686-1.638 0-.901.633-1.678 1.639-1.678zm9.02 0c.314 0 .572.057.869.254.005.003.01 0 .01-.005v-.018c0-.09.074-.165.166-.165h.49c.092 0 .166.073.166.165v.887c0 .583.034.885.103 1.164.094.386.251.727.251.727.058.118-.031.234-.154.234h-.368c-.218 0-.22-.095-.367-.27-.037-.043-.077-.05-.135-.003-.247.205-.52.349-1.032.349a1.666 1.666 0 0 1-1.677-1.66c0-.919.745-1.66 1.677-1.66zm-12.29.003c.694.026 1.285.422 1.285 1.415h.008v1.66a.165.165 0 0 1-.166.165h-.49a.165.165 0 0 1-.166-.166v-1.562c0-.612-.329-.746-.654-.746-.328 0-.654.126-.654.733v1.575a.165.165 0 0 1-.165.166H3.25a.165.165 0 0 1-.165-.166V9.245a.16.16 0 0 1 .184-.163c.234.03.586.116.586.116s.291-.17.89-.15zm6.833 0a1.69 1.69 0 0 1 1.305.604c.05.057.06.183-.047.246l-.415.242a.167.167 0 0 1-.205-.026.869.869 0 0 0-.638-.276.88.88 0 0 0-.872.867c0 .472.392.87.872.87.194 0 .404-.041.667-.309a.168.168 0 0 1 .197-.023l.417.25c.076.047.11.162.045.243a1.706 1.706 0 0 1-1.326.628 1.667 1.667 0 0 1-1.678-1.66c0-.918.746-1.656 1.678-1.656zm9.723 0a.169.169 0 0 1 .171.165v.452c0 .102-.092.163-.16.165-.914.024-1.061.234-1.061.743v1.552a.164.164 0 0 1-.165.165h-.491a.164.164 0 0 1-.166-.165V9.251c0-.11.103-.176.19-.163.091.013.672.113.672.113.265-.066.506-.147 1.01-.152zm-13.294.708c-.373 0-.675.268-.798.6-.003.01.002.02.013.02h1.507c.01 0 .016-.008.016-.018a.753.753 0 0 0-.738-.602zm9.062.048a.915.915 0 0 0-.909.9c0 .494.41.909.909.909a.917.917 0 0 0 .914-.908.914.914 0 0 0-.914-.901z"/></svg>