<svg role="img" viewBox="0 0 24 24" xmlns="http://www.w3.org/2000/svg"><title>Neo4j icon</title><path d="M22.717 8.417c-.014 2.959-2.412 5.321-5.391 5.309-2.946-.014-5.306-2.424-5.291-5.407.014-2.9 2.458-5.287 5.391-5.265 2.926.022 5.304 2.434 5.291 5.363zM9.813 24c-2.357.008-4.337-1.965-4.361-4.344-.024-2.33 1.955-4.33 4.295-4.34 2.438-.01 4.395 1.916 4.395 4.326.003 2.383-1.952 4.35-4.329 4.358zM8.923 2.84c0 1.562-1.286 2.847-2.841 2.839C4.533 5.672 3.221 4.35 3.246 2.82 3.271 1.268 4.588-.022 6.126 0c1.531.023 2.797 1.308 2.797 2.84zM21.9 11.948c-2.697 2.356-5 2.779-7.42 1.36-2.14-1.254-3.196-3.721-2.654-6.197.587-2.68 2.506-4.085 6.197-4.467C15.222.642 12.26.025 9.008.821c-.421.102-.241.261-.126.473.786 1.447.383 3.207-.942 4.151-1.325.943-3.126.755-4.218-.49-.322-.367-.427-.269-.654.063C.56 8.691.705 13.697 3.44 17.203c.492.631 1.027 1.219 1.691 1.71.75-3.208 3.394-4.251 5.519-3.888 2.593.442 4.002 2.602 3.758 5.787 3.516-.43 7.927-5.65 7.492-8.864zm-9.088-9.853c.462-.023.87.365.881.835.009.456-.347.827-.807.843-.506.017-.862-.32-.866-.818-.005-.476.328-.837.792-.86zM5.076 6.629c.48.009.853.401.832.876-.019.452-.398.804-.859.798-.46-.006-.821-.366-.828-.827-.007-.483.369-.855.855-.847zm-.721 3.099c.003-.451.374-.824.829-.835.461-.011.825.335.844.803.02.489-.337.878-.813.887-.473.007-.863-.381-.86-.855zm.515 2.371c.023-.46.396-.806.858-.797.479.01.822.391.802.891-.019.468-.384.813-.846.797-.478-.014-.838-.409-.814-.891zm1.992 3.034c-.5.007-.857-.345-.851-.838.006-.46.371-.832.818-.836.47-.004.873.391.869.853-.002.452-.371.813-.836.821zm3.831-12.11c-.469.012-.868-.38-.866-.849.002-.481.384-.84.876-.826.462.013.814.376.813.837-.001.449-.372.827-.823.838zm5.008 15.122c-.494-.004-.856-.375-.838-.858.018-.446.402-.81.855-.808.479.004.85.393.833.875-.015.462-.37.792-.85.791zm1.534-1.77c-.482.011-.872-.367-.866-.84.005-.462.363-.822.825-.833.485-.011.864.356.863.841.001.455-.362.821-.822.832z"/></svg>