<?xml version="1.0" encoding="utf-8"?>
<svg version="1.1" id="Layer_1" xmlns="http://www.w3.org/2000/svg" xmlns:xlink="http://www.w3.org/1999/xlink" x="0px" y="0px"
	 viewBox="0 0 64 64" style="enable-background:new 0 0 64 64;" xml:space="preserve">
<title>logo_NET</title>
<path d="M32,0C14.3,0,0,14.3,0,32s14.3,32,32,32s32-14.3,32-32S49.7,0,32,0z M8.4,40.8c-0.3,0.3-0.6,0.4-1,0.4c-0.4,0-0.7-0.1-1-0.4
	c-0.3-0.3-0.4-0.6-0.4-1c0-0.4,0.1-0.7,0.4-1c0.3-0.3,0.6-0.4,1-0.4c0.4,0,0.7,0.2,1,0.4c0.3,0.3,0.4,0.6,0.4,1
	C8.8,40.2,8.7,40.6,8.4,40.8z M27.3,41h-2.6l-9.4-14.5c-0.2-0.4-0.4-0.7-0.6-1.1h-0.1c0.1,0.8,0.1,1.7,0.1,2.5V41h-2.1V22.8h2.8
	L24.5,37c0.4,0.6,0.6,1,0.7,1.2h0.1c-0.1-0.9-0.1-1.8-0.1-2.7V22.8h2.1V41z M41.7,41H32V22.8h9.2v1.9h-7.1v6.1h6.6v1.9h-6.6V39h7.5
	L41.7,41z M50.7,24.7V41h-2.1V24.7h-5.2v-1.9H56v1.9H50.7z"/>
</svg>
