<svg role="img" viewBox="0 0 24 24" xmlns="http://www.w3.org/2000/svg"><title>NetAlertX</title><path d="m20.491 3.52-2.727 2.73A8.924 8.924 0 0 0 12 4.138a8.924 8.924 0 0 0-5.833 2.17l-2.7-2.702A12 12 0 0 0 0 12a12 12 0 0 0 3.542 8.47l6.567-6.565-.002-.004 1.826-1.826 8.46 8.46A12 12 0 0 0 24 12a12 12 0 0 0-3.509-8.48zM12 7.849a5.104 5.104 0 0 1 3.103 1.055l-3.168 3.168-3.106-3.103A5.104 5.104 0 0 1 12 7.848zm-.087 7.86L8.61 19.013h6.606Zm-5.926 5.926-.465.465A12 12 0 0 0 12 24a12 12 0 0 0 6.367-1.837l-.528-.529ZM12 0A12 12 0 0 0 0 12a12 12 0 0 0 12 12 12 12 0 0 0 12-12A12 12 0 0 0 12 0Zm0 .398A11.602 11.602 0 0 1 23.602 12 11.602 11.602 0 0 1 12 23.602 11.602 11.602 0 0 1 .398 12 11.602 11.602 0 0 1 12 .398Z"/></svg>