<svg role="img" viewBox="0 0 24 24" xmlns="http://www.w3.org/2000/svg"><title>NetBox</title><path d="M7.12227.0025A1.88377 1.88404 0 0 0 5.2384 1.88666a1.88377 1.88404 0 0 0 1.23256 1.75806v2.82971H3.64868a1.88377 1.88404 0 0 0-1.7648-1.23275A1.88377 1.88404 0 0 0 0 7.12582a1.88377 1.88404 0 0 0 1.88386 1.88413 1.88377 1.88404 0 0 0 1.7578-1.22574h2.8293v7.34043A1.88377 1.88404 0 0 0 5.2384 16.8757a1.88377 1.88404 0 0 0 .18208.77747l-2.75226 2.75267a1.88377 1.88404 0 0 0-.78436-.1751A1.88377 1.88404 0 0 0 0 22.11485 1.88377 1.88404 0 0 0 1.88386 23.999a1.88377 1.88404 0 0 0 1.88386-1.88413 1.88377 1.88404 0 0 0-.17508-.78449l2.75226-2.75265a1.88377 1.88404 0 0 0 .77736.1821 1.88377 1.88404 0 0 0 1.7648-1.23273h7.32536v2.8297a1.88377 1.88404 0 0 0-1.22556 1.75807 1.88377 1.88404 0 0 0 1.88386 1.88413 1.88377 1.88404 0 0 0 1.88386-1.88413 1.88377 1.88404 0 0 0-1.22556-1.76507v-2.8227h2.82229a1.88377 1.88404 0 0 0 1.7648 1.23274A1.88377 1.88404 0 0 0 24 16.8757a1.88377 1.88404 0 0 0-1.88386-1.88414 1.88377 1.88404 0 0 0-1.76481 1.22574h-2.8223V8.89087a1.88377 1.88404 0 0 0 1.22557-1.76505 1.88377 1.88404 0 0 0-.17508-.78449l2.74526-2.74565a1.88377 1.88404 0 0 1 .007 0 1.88377 1.88404 0 0 0 .78436.1751A1.88377 1.88404 0 0 0 24 1.88666 1.88377 1.88404 0 0 0 22.11612.0025a1.88377 1.88404 0 0 0-1.88386 1.88414 1.88377 1.88404 0 0 0 .16808.78447l-2.74523 2.74566a1.88377 1.88404 0 0 0-.78436-.1751 1.88377 1.88404 0 0 0-1.7648 1.23274H7.78056v-2.8297a1.88377 1.88404 0 0 0 1.22556-1.75806A1.88377 1.88404 0 0 0 7.12227.0025Zm.6583 7.78171h7.33235a1.88377 1.88404 0 0 0 1.0995 1.10667v7.32643H8.87308a1.88377 1.88404 0 0 0-1.0925-1.10667ZM7.12227-.001A1.88377 1.88404 0 0 0 5.2384 1.88316a1.88377 1.88404 0 0 0 1.23256 1.75805v2.82972H3.64868a1.88377 1.88404 0 0 0-1.7648-1.23275A1.88377 1.88404 0 0 0 0 7.12232a1.88377 1.88404 0 0 0 1.88386 1.88412 1.88377 1.88404 0 0 0 1.7578-1.22573h2.8293v7.34043a1.88377 1.88404 0 0 0-1.23256 1.75105 1.88377 1.88404 0 0 0 .18208.77747l-2.75226 2.75267a1.88377 1.88404 0 0 0-.78436-.1751A1.88377 1.88404 0 0 0 0 22.11134a1.88377 1.88404 0 0 0 1.88386 1.88415 1.88377 1.88404 0 0 0 1.88386-1.88413 1.88377 1.88404 0 0 0-.17508-.78449l2.75226-2.75265a1.88377 1.88404 0 0 0 .77736.1821 1.88377 1.88404 0 0 0 1.7648-1.23273h7.32536v2.8297a1.88377 1.88404 0 0 0-1.22556 1.75807 1.88377 1.88404 0 0 0 1.88386 1.88412 1.88377 1.88404 0 0 0 1.88386-1.88412 1.88377 1.88404 0 0 0-1.22556-1.76507v-2.8227h2.82229a1.88377 1.88404 0 0 0 1.7648 1.23274A1.88377 1.88404 0 0 0 24 16.8722a1.88377 1.88404 0 0 0-1.88386-1.88414 1.88377 1.88404 0 0 0-1.76481 1.22574h-2.8223V8.88737a1.88377 1.88404 0 0 0 1.22557-1.76505 1.88377 1.88404 0 0 0-.17508-.78449l2.74526-2.74565a1.88377 1.88404 0 0 1 .007 0 1.88377 1.88404 0 0 0 .78436.1751A1.88377 1.88404 0 0 0 24 1.88316 1.88377 1.88404 0 0 0 22.11612-.001a1.88377 1.88404 0 0 0-1.88386 1.88414 1.88377 1.88404 0 0 0 .16808.78447l-2.74523 2.74566a1.88377 1.88404 0 0 0-.78436-.1751 1.88377 1.88404 0 0 0-1.7648 1.23274H7.78056v-2.8297a1.88377 1.88404 0 0 0 1.22556-1.75806A1.88377 1.88404 0 0 0 7.12227-.001Zm.6583 7.78171h7.33235a1.88377 1.88404 0 0 0 1.0995 1.10667v7.32643H8.87308a1.88377 1.88404 0 0 0-1.0925-1.10667Z"/></svg>