<svg role="img" viewBox="0 0 24 24" xmlns="http://www.w3.org/2000/svg"><title>NetBox</title><path d="M7.126 0a1.884 1.884 0 0 0-1.884 1.884 1.884 1.884 0 0 0 1.229 1.761v2.826H3.65a1.884 1.884 0 0 0-1.766-1.229A1.884 1.884 0 0 0 0 7.126 1.884 1.884 0 0 0 1.884 9.01a1.884 1.884 0 0 0 1.761-1.228h2.826v7.33a1.884 1.884 0 0 0-1.229 1.762 1.884 1.884 0 0 0 .172.785L2.67 20.404a1.884 1.884 0 0 0-.785-.172A1.884 1.884 0 0 0 0 22.116 1.884 1.884 0 0 0 1.884 24a1.884 1.884 0 0 0 1.884-1.884 1.884 1.884 0 0 0-.172-.785l2.745-2.745a1.884 1.884 0 0 0 .785.172 1.884 1.884 0 0 0 1.762-1.229h7.33v2.826a1.884 1.884 0 0 0-1.228 1.761A1.884 1.884 0 0 0 16.874 24a1.884 1.884 0 0 0 1.884-1.884 1.884 1.884 0 0 0-1.229-1.766v-2.82h2.826a1.884 1.884 0 0 0 1.761 1.229A1.884 1.884 0 0 0 24 16.874a1.884 1.884 0 0 0-1.884-1.884 1.884 1.884 0 0 0-1.761 1.228h-2.826v-7.33a1.884 1.884 0 0 0 1.229-1.762 1.884 1.884 0 0 0-.172-.785l2.745-2.745a1.884 1.884 0 0 0 .785.172A1.884 1.884 0 0 0 24 1.884 1.884 1.884 0 0 0 22.116 0a1.884 1.884 0 0 0-1.884 1.884 1.884 1.884 0 0 0 .172.785l-2.745 2.745a1.884 1.884 0 0 0-.785-.172 1.884 1.884 0 0 0-1.762 1.229h-7.33V3.645A1.884 1.884 0 0 0 9.01 1.884 1.884 1.884 0 0 0 7.126 0Zm.656 7.782h7.33a1.884 1.884 0 0 0 1.106 1.106v7.33H8.892a1.884 1.884 0 0 0-1.11-1.11Z"/></svg>