<svg role="img" viewBox="0 0 24 24" xmlns="http://www.w3.org/2000/svg"><title>NetEase Cloud Music</title><path d="M12 0C5.373 0 0 5.373 0 12s5.373 12 12 12 12-5.373 12-12S18.627 0 12 0Zm3.123 4.225c.684.155 1.541.622 1.729 1.084.117.27.076.58-.08.812a.883.883 0 0 1-.627.387c-.642.126-1.01-.669-1.727-.58-.379 0-.8.357-.707.812.118.387.197.813.314 1.2.785.038 1.53.232 2.198.619 4.62 2.847 2.79 8.191-.235 10.02-2.455 1.54-6.251 1.576-8.87-1.007-4.556-4.49-1.11-10.815 2.825-12.11.61-.1 1.094.4 1.022.97-.04.31-.276.579-.55.695-4.789 1.888-4.703 8.14-.628 10.213 1.913.992 3.772.462 4.395.232 3.318-1.168 3.97-5.197 1.806-7.002a5.218 5.218 0 0 0-.746-.54c-.235-.117-.471-.234-.746-.272.238.845.46 1.695.627 2.553.122 2.157-2.453 3.884-4.55 2.591a3.273 3.273 0 0 1-1.454-2.707c-.083-1.807 1.073-3.463 3.102-4.023-.079-.27-.158-.542-.198-.813-.608-1.8 1.22-3.64 3.1-3.134ZM12.77 9.797a2.69 2.69 0 0 0-1.256.695c-.73.72-.807 2.248.078 2.903.235.154.55.231.863.154.55-.078.98-.58.98-1.121-.184-.884-.436-1.757-.665-2.631z"/></svg>