<svg role="img" xmlns="http://www.w3.org/2000/svg" viewBox="0 0 24 24"><title>Netflix icon</title><path d="M5.388.0039l4.7505 13.4623v-.007l.376 1.0602c2.0882 5.909 3.2103 9.0766 3.2163 9.0836.004 0 .32.02.7021.04 1.1561.05 2.5903.18 3.6764.31.25.03.466.04.48.03l-4.7105-13.3623-.436-1.2302-2.4232-6.8512c-.46-1.3002-.8501-2.4084-.8701-2.4504l-.031-.089H5.393zm8.5088.008l-.01 5.3069-.008 5.307-.437-1.2323v-.002l-.565 11.812c.555 1.5674.852 2.4035.855 2.4075.004.004.32.024.7021.042 1.1571.05 2.5903.18 3.6804.31.25.03.467.04.48.03.013-.01.02-5.4209.017-12.012L18.6033.0099h-4.7065zM5.388.0019v11.992c0 6.5952.007 11.9972.015 12.0052.008.008.416-.03.907-.086.4901-.06 1.1702-.13 1.5102-.16.518-.05 2.0682-.15 2.2483-.15.052 0 .056-.2701.063-5.081l.008-5.0809.38 1.0602.13.376.57-11.802-.19-.546-.88-2.4405-.03-.087z"/></svg>