<svg role="img" viewBox="0 0 24 24" xmlns="http://www.w3.org/2000/svg"><title>New Japan Pro-Wrestling icon</title><path d="M11.952.086C10.875.082 9.812.24 8.69.562c-3.173.914-6.006 3.228-7.423 6.064a13.052 13.052 0 0 0-1.184 3.73c-.122.8-.11 2.42.025 3.298.204 1.327.562 2.499 1.08 3.537a11.782 11.782 0 0 0 2.295 3.188c2.014 2.007 4.58 3.206 7.503 3.51.516.053 1.874.017 2.478-.065 4.408-.602 8.04-3.365 9.697-7.376 1.064-2.578 1.119-5.861.14-8.507a15.18 15.18 0 0 0-1.058-2.157 12.042 12.042 0 0 0-4.651-4.299C16.455.894 15.286.506 13.923.268a11.643 11.643 0 0 0-1.971-.181zm-.05.418h.187c.5.006.998.033 1.33.08 2.696.386 5.014 1.521 6.836 3.347 1.76 1.763 2.856 3.936 3.242 6.424.116.752.114 2.599-.005 3.372-.109.706-.34 1.624-.556 2.204-.24.646-.851 1.827-1.267 2.45-1.796 2.687-4.692 4.501-7.998 5.009-.57.087-2.183.152-2.592.104-1.77-.208-2.905-.534-4.335-1.245-3.11-1.545-5.417-4.52-6.095-7.857C.444 13.386.413 13.05.416 11.87c.002-1.216.065-1.753.319-2.728.34-1.309 1.08-2.861 1.858-3.9A11.992 11.992 0 0 1 10.741.556 10.87 10.87 0 0 1 11.9.503zm-.02.112c-.982.003-1.545.066-2.409.27-3.308.782-6.245 3.034-7.684 5.893a19.088 19.088 0 0 0-.772 1.902c-.715 2.185-.629 4.949.227 7.265.362.978 1.03 2.162 1.71 3.026.464.591 1.353 1.484 1.886 1.896 1.813 1.4 3.882 2.234 6.124 2.466 2.47.255 5.34-.484 7.495-1.93 1.717-1.152 2.946-2.567 3.903-4.492.801-1.613 1.12-3.018 1.118-4.928-.003-2.143-.48-3.906-1.553-5.74a11.254 11.254 0 0 0-4.638-4.34c-1.77-.898-3.43-1.293-5.407-1.288zm.073.212a11.66 11.66 0 0 1 6.358 1.941c1.702 1.136 2.878 2.483 3.812 4.364.812 1.637 1.13 3.025 1.127 4.92-.004 1.918-.367 3.424-1.215 5.046a11.044 11.044 0 0 1-5.018 4.888 11.325 11.325 0 0 1-4.22 1.166c-.523.044-1.14.051-1.49.017-1.83-.18-3.059-.523-4.496-1.256-2.77-1.414-4.917-4.05-5.693-6.99-.491-1.864-.522-3.842-.086-5.568.248-.98.786-2.283 1.285-3.11.782-1.294 2.045-2.598 3.36-3.466 1.507-.996 3.078-1.606 4.758-1.847a10.492 10.492 0 0 1 1.518-.105zm.667.463c-.231-.002-.425.056-.533.164-.105.105-.165.461-.11.653.057.197.227.308.522.342.308.034.413.084.413.195 0 .177-.516.15-.542-.028-.01-.076-.057-.106-.2-.13-.207-.035-.266.01-.267.208 0 .205.146.43.32.49.235.08.716.073.896-.012.175-.083.251-.252.251-.552 0-.383-.156-.531-.625-.594-.285-.037-.36-.08-.322-.179.023-.059.078-.073.247-.062.187.012.221.03.233.117.013.092.041.104.247.104h.232l-.022-.234c-.03-.31-.127-.4-.497-.461a1.551 1.551 0 0 0-.243-.021zm1.493.193c-.006 0-.009.001-.009.003 0 .012-.092.427-.206.922-.114.495-.206.917-.206.936 0 .02.067.055.149.078.274.08.287.071.348-.224.031-.151.061-.275.066-.274.005 0 .124.03.262.068.325.087.482.086.62-.004.146-.097.298-.51.298-.816 0-.371-.103-.44-.93-.62a2.956 2.956 0 0 0-.392-.069zm-3.13.26l-.465.085a4.822 4.822 0 0 0-.482.102c-.01.01.028.288.083.62l.1.602h.142c.22 0 .254-.043.214-.259l-.035-.19.268-.053.269-.052v-.185c0-.154-.013-.18-.08-.16a3.083 3.083 0 0 1-.299.054c-.178.025-.218.017-.218-.04 0-.048.067-.078.22-.1.31-.042.349-.075.313-.265zm3.56.367a.774.774 0 0 1 .372.102c.068.05.072.077.026.179-.057.125-.18.147-.424.077-.094-.027-.112-.057-.1-.167a.392.392 0 0 1 .052-.172c.011-.012.039-.018.074-.019zm-5.109.034c-.26 0-.666.177-.744.323a.568.568 0 0 0-.027.307c.033.242.238.64.344.67.25.066.653-.04.851-.224.192-.177.147-.598-.097-.928-.098-.131-.136-.149-.327-.148zm6.803.074a.27.27 0 0 0-.033.003c-.27.052-.732.783-.797 1.258-.027.197-.018.224.14.4.105.114.263.222.408.278.313.12.537.12.69 0 .176-.138.52-.748.584-1.033.066-.294.007-.473-.207-.636-.177-.134-.603-.278-.785-.27zm-9.114.257c-.149.005-.323.08-.54.225-.282.188-.415.364-.415.548 0 .278.619 1.173.884 1.28.172.069.262.052.545-.098.37-.198.544-.402.544-.64a.788.788 0 0 0-.05-.285c-.089-.176-.339-.536-.373-.536-.054 0-.678.414-.678.45 0 .018.053.11.117.206l.117.172.131-.093c.161-.114.231-.118.231-.011 0 .081-.333.331-.442.331-.07 0-.422-.484-.46-.63-.03-.122.044-.222.256-.347.135-.08.142-.08.215.006.074.087.08.086.27-.032l.196-.121-.12-.17c-.117-.166-.244-.25-.399-.255h-.029zm2.276.091c.002 0 .004 0 .005.002.122.153.144.38.04.42-.142.054-.234.025-.286-.09-.083-.18-.065-.237.091-.291a.923.923 0 0 1 .15-.04zm6.96.189a.51.51 0 0 1 .308.117c.139.106.11.259-.114.618-.09.142-.186.259-.216.259-.09 0-.365-.156-.412-.233-.051-.084.155-.586.292-.71a.216.216 0 0 1 .141-.051zm1.693.397c-.018 0-.303.34-.634.756l-.601.755.183.145.184.146.075-.108c.042-.06.132-.17.2-.247l.125-.14.126.095c.229.17.234.217.049.469l-.169.23.163.142c.193.17.23.175.302.04a3.13 3.13 0 0 1 .208-.305c.085-.111.154-.25.154-.31 0-.075.026-.108.086-.108.121 0 .402-.326.467-.54.04-.134.04-.205.002-.276-.05-.092-.855-.744-.92-.744zm-12.566.322a.789.789 0 0 0-.188.13l-.156.13.33.391c.18.216.33.403.33.417 0 .013-.22-.09-.487-.23-.542-.283-.56-.282-.84.006l-.14.145.63.72c.346.396.65.72.674.72.024.001.11-.064.193-.144l.15-.145-.286-.325c-.458-.52-.458-.52.064-.241.268.143.516.26.553.26.036 0 .155-.09.264-.202l.199-.203-.63-.715c-.345-.393-.643-.715-.66-.715zm6.375.186a8.254 8.254 0 0 0-1.06.063c-1.403.204-2.417.582-3.49 1.304-2.598 1.745-3.976 4.666-3.664 7.765.104 1.035.346 1.935.731 2.723.958 1.959 2.8 3.608 4.812 4.308.469.163 1.155.313 1.795.392.19.024.747.035 1.239.025.717-.015 1.005-.041 1.451-.132a8.409 8.409 0 0 0 3.641-1.704c.436-.355 1.218-1.175 1.57-1.647 1.49-1.996 1.923-5.085 1.06-7.564-.943-2.71-3.392-4.83-6.237-5.401-.442-.089-1.178-.136-1.848-.132zm.162.138c.387-.003.754.01 1.024.043a7.97 7.97 0 0 1 4.184 1.773c.461.375 1.217 1.182 1.563 1.669.35.492.83 1.43 1.042 2.034.679 1.946.504 4.387-.453 6.315-.383.77-.725 1.254-1.368 1.93-1.233 1.294-2.76 2.107-4.622 2.457-.44.083-1.974.12-2.425.057-.929-.127-1.948-.427-2.667-.785-2.239-1.115-3.947-3.335-4.427-5.75-.12-.607-.165-1.734-.094-2.384a7.792 7.792 0 0 1 .83-2.844A7.543 7.543 0 0 1 5.98 6.36c1.21-1.273 2.676-2.101 4.303-2.429.397-.08 1.098-.128 1.743-.131zm6.07.052h.012a.16.16 0 0 1 .066.037c.251.19.288.24.242.327-.063.118-.177.104-.349-.043-.145-.125-.145-.126-.062-.237.041-.054.066-.08.091-.084zm1.467.487l-.178.153c-.098.084-.18.175-.182.202-.002.027.059.109.136.182.076.073.133.155.126.182-.008.027-.23.251-.495.499-.265.247-.489.47-.498.495-.01.026.05.116.133.2l.15.155.519-.48c.286-.263.535-.479.553-.479.019 0 .108.072.198.16l.165.161.176-.18.176-.18-.095-.12a13.304 13.304 0 0 0-.489-.535zm-8.736.2c-.403-.007-.715.208-.64.55.043.196.327.495.572.602.113.05.297.165.409.256.112.091.256.202.321.246.137.093.373.106.453.026.079-.079.07-.674-.014-.911a1.028 1.028 0 0 0-.525-.611 1.267 1.267 0 0 0-.576-.158zm2.48.099h-.048c-.29.007-.626.133-.798.33-.233.265-.293.965-.113 1.317.08.156.11.157.25.007.06-.066.31-.22.553-.342.243-.122.485-.278.539-.346.258-.328.22-.73-.087-.898a.651.651 0 0 0-.296-.068zM9.34 4.84c-.334.007-.542.107-.853.388-.185.168-.216.219-.192.316.04.157.193.217.689.268.231.024.503.074.604.111.228.083.446.09.518.018.208-.207-.282-1.081-.615-1.098a3.244 3.244 0 0 0-.151-.003zm5.26.056c-.197 0-.248.02-.384.156-.134.134-.155.186-.155.378 0 .286.127.502.33.56.212.062.293.06.64-.014.347-.074.657-.217.698-.323.043-.113-.308-.46-.625-.619a1.082 1.082 0 0 0-.505-.138zm-10.757.152h-.02c-.066.007-.107.072-.18.174l-.091.129.747.618.747.62.15-.145c.081-.08.149-.16.149-.179 0-.019-.334-.314-.74-.657-.468-.392-.65-.55-.762-.56zm-.61.72c-.013 0-.084.108-.156.242l-.131.242.194.354c.107.195.176.354.154.354-.023 0-.153-.072-.291-.16-.138-.087-.271-.16-.296-.16-.05 0-.272.362-.24.394.01.01.379.235.818.498.439.264.808.48.821.481.033.002.24-.37.218-.391a8.358 8.358 0 0 0-.336-.225l-.318-.205.482-.001.482-.001.126-.208c.07-.115.126-.218.126-.23 0-.011-.258-.02-.574-.02h-.574l-.24-.482c-.13-.265-.25-.482-.264-.482zm13.061.047h-.041c-.16.006-.274.058-.688.256-.619.296-.688.306-1.505.225a1.609 1.609 0 0 0-.633.039c-.625.16-1.01.44-1.11.807-.079.295-.016 1.13.104 1.363.085.168.09.208.038.305-.093.174-.214.2-.815.178-.447-.017-.565-.035-.587-.091-.018-.047.102-.202.359-.465.367-.376.5-.608.422-.735-.015-.025-.008-.172.018-.328.073-.454-.057-.66-.57-.9-.263-.122-.306-.128-.918-.125-.494.004-.736.027-1.048.104a3.607 3.607 0 0 1-.673.099c-.252 0-.294-.017-.644-.257-.581-.398-.747-.448-1.032-.312-.317.15-.408.609-.295 1.48.045.347.01.511-.11.511-.034 0-.093-.083-.133-.183-.065-.168-.087-.184-.238-.184-.333 0-.56.203-.832.743a4.95 4.95 0 0 1-.323.544c-.19.265-.264.594-.133.594a.463.463 0 0 0 .201-.086 3.11 3.11 0 0 1 .78-.371.9.9 0 0 0 .4-.26c.217-.223.21-.226.26.098.013.081.05.091.342.091.18 0 .343.016.362.034.055.055-.116.21-.296.27-.285.093-.363.174-.553.572-.23.483-.324.501-.324.064 0-.215-.08-.303-.315-.342-.315-.053-.707.115-.937.401-.314.391-.427.895-.382 1.706.047.844.076 1.034.155 1.034.038 0 .234-.176.436-.392.201-.215.487-.485.636-.599.284-.218.375-.35.427-.615.017-.088.053-.217.08-.286l.048-.125.125.134c.198.213.32.219.701.036.183-.087.414-.224.512-.303.098-.08.188-.136.198-.126.01.01-.022.1-.073.2-.062.122-.216.27-.478.461-.246.179-.408.332-.445.422-.093.223-.04 1.25.076 1.514.105.236.205.335.296.296.035-.015.126-.114.202-.219.077-.105.246-.253.377-.329.188-.11.249-.175.296-.32.073-.224.24-.327.38-.237.051.033.168.21.26.394.306.609.743.925 1.41 1.019l.37.052.308.343c.17.189.371.382.448.429.194.118.273.112.239-.017-.075-.277-.17-.934-.147-1.024.034-.137.132-.166.312-.092.116.048.214.051.433.015.33-.054.561-.02.711.1.099.08.107.121.107.546 0 .252.014.473.031.49.053.053.342-.2.515-.45.101-.148.181-.335.21-.491.026-.139.079-.276.117-.304.076-.056.609-.033.79.034.086.032.103.072.103.246 0 .236.03.252.196.098.193-.179.32-.48.344-.819.032-.434-.047-.68-.29-.903-.362-.335-.898-.409-1.525-.21-.383.12-.488.199-.538.398-.017.068-.134.22-.261.336-.23.213-.23.213-.2.439.027.205.02.226-.062.226-.19 0-.325-.1-.325-.241 0-.134-.08-.23-.453-.545-.16-.136-.194-.353-.07-.456.06-.05.097-.05.217 0 .08.034.21.07.29.083.206.03.636-.106.797-.253l.137-.125-.005-.688a93.95 93.95 0 0 0-.01-.974c-.004-.31.1-.525.272-.554a5.37 5.37 0 0 0 .577-.245c.333-.155.612-.25.87-.295.499-.087.605-.157.576-.379a1.851 1.851 0 0 0-.054-.265c-.024-.072.006-.14.116-.266.162-.184.156-.232-.054-.493-.13-.162-.088-.25.152-.318.25-.07.34-.155.515-.486.18-.34.434-.49.78-.459.262.023.394.144.394.361 0 .191-.064.294-.394.639-.326.34-.388.49-.276.661.144.22.33.102.56-.356.508-1.008.362-1.526-.446-1.584a2.918 2.918 0 0 0-.147-.008zm4.362.136c-.318 0-.723.314-.723.56 0 .044.065.212.144.374.15.302.151.461.006.433-.044-.008-.125-.097-.181-.197-.096-.171-.098-.187-.025-.267.072-.08.07-.095-.02-.251-.053-.092-.118-.174-.144-.182-.081-.028-.423.333-.423.446 0 .24.12.49.346.724.263.272.376.298.654.15.463-.247.513-.416.276-.93-.12-.261-.135-.324-.081-.357.081-.05.198.05.276.238.048.115.047.146-.007.18-.054.033-.05.067.027.21.05.093.116.178.145.187.029.01.127-.048.218-.128.14-.123.164-.173.163-.335-.002-.397-.35-.855-.65-.855zM7.14 6.318c.186.006.423.112.605.294.294.294.248.55-.165.919-.157.14-.298.255-.314.255-.096.001-.278-.222-.359-.438-.116-.31-.127-.778-.023-.927.052-.074.144-.106.256-.103zm10.423.567c-.063-.004-.11.057-.17.182-.098.207-.096.382.005.441a.358.358 0 0 0 .206.026c.499-.088.51-.11.222-.436-.121-.138-.2-.208-.263-.213zm.369 1h-.015c-.037.003-.059.029-.101.082-.065.08-.085.181-.085.423 0 .524.112.694.609.92.285.13.497.14.605.033.082-.082.048-.51-.057-.713-.129-.248-.51-.587-.775-.688a.777.777 0 0 0-.18-.057zm-.963.038c-.12-.004-.206.105-.235.318-.045.337.015.497.23.612.106.057.234.117.285.134.19.064.276.025.27-.126-.013-.28-.16-.674-.302-.807-.091-.086-.176-.129-.248-.131zm-14.482.701a.767.767 0 0 0-.554.26c-.37.41-.233.983.29 1.218.343.154.793-.018.964-.368.165-.338.095-.667-.197-.923a.737.737 0 0 0-.503-.187zm18.947.003a.744.744 0 0 0-.68.402.776.776 0 0 0 .457 1.1.784.784 0 0 0 .99-.874.87.87 0 0 0-.185-.356.775.775 0 0 0-.582-.272zm-12.79.17c.384 0 .874.112 1.195.274.207.104.336.138.53.138.213 0 .275.02.372.117.113.112.116.132.086.477-.02.226-.012.457.023.622.05.245.047.273-.046.398-.09.122-.096.17-.068.477.023.243.016.36-.024.409-.042.05-.043.102-.005.212.027.08.05.153.05.162 0 .052-.096.003-.153-.08-.048-.068-.06-.17-.042-.365.036-.405-.054-.478-.827-.668-.89-.218-1.081-.457-1.27-1.585a22.017 22.017 0 0 1-.093-.57c0-.01.122-.019.272-.019zm-6.153.061a.534.534 0 0 1 .286.09c.277.145.329.546.139.781-.225.299-.747.22-.906-.112-.151-.309.09-.732.438-.758h.043zm18.893.003a.614.614 0 0 1 .412.145c.242.194.222.593-.01.789-.23.223-.642.14-.81-.124-.213-.309.034-.797.408-.81zm-6.012.188c-.094 0-.686.159-.725.198-.02.02 0 .108.044.195.112.219.108.626-.009.78-.249.327-.635.412-.945.207-.207-.137-.273-.267-.273-.54 0-.164-.008-.18-.072-.127-.124.103-.19.285-.218.605l-.027.308.193-.024a1.43 1.43 0 0 1 .4.02c.576.12.983-.01 1.226-.389.125-.196.463-1.189.418-1.23-.001-.003-.005-.003-.012-.003zm-6.604.023c-.056 0-.028.58.041.85.104.406.301.63.624.712.085.021.258.03.384.018.126-.011.401-.034.611-.05.358-.029.38-.037.36-.127a4.966 4.966 0 0 1-.055-.316c-.03-.21-.115-.353-.208-.353-.023 0-.043.024-.043.053 0 .11-.248.373-.43.455-.51.232-1.003-.039-1.067-.587-.023-.19-.01-.268.064-.395l.093-.157-.172-.052a1.66 1.66 0 0 0-.202-.051zm8.175.049c-.073 0-.134.037-.17.115-.029.065-.066.298-.082.517-.036.516.064.775.432 1.11.139.127.275.223.304.214.035-.012.051-.25.051-.752 0-.728 0-.735-.128-.918-.128-.186-.284-.287-.407-.286zm-7.414.184c-.093 0-.137.028-.218.108-.104.104-.118.148-.093.292a.6.6 0 0 0 .188.319c.188.177.373.194.6.053.376-.232.15-.706-.364-.764a1.093 1.093 0 0 0-.113-.008zm4.741.096a.714.714 0 0 0-.168.034.858.858 0 0 0-.305.171c-.098.098-.111.145-.091.32.014.13.063.25.131.322.088.094.139.111.263.091.328-.053.482-.253.456-.595-.01-.135-.046-.205-.138-.274-.062-.046-.099-.067-.148-.07zm-4.595.135a.35.35 0 0 1 .055.003c.169.02.235.134.166.286-.096.21-.423.14-.423-.091 0-.117.08-.193.202-.197zm8.352.005c-.114.002-.134.1-.121.351a2.52 2.52 0 0 1-.058.575 2.54 2.54 0 0 0-.07.454c0 .22.152.509.344.656.094.073.348.282.564.465.415.35.54.396.691.245.243-.242.24-1.169-.005-1.69-.196-.415-.675-.843-1.125-1.003a.71.71 0 0 0-.22-.053zm-3.92.127c.065 0 .144.025.174.055.061.061.071.216.02.294-.052.078-.205.108-.32.062-.074-.03-.104-.08-.104-.171 0-.162.075-.24.23-.24zm2.658 1.284c-.088 0-.098.041-.157.655a2.85 2.85 0 0 1-.122.545c-.119.342-.078.512.198.835.1.117.199.213.219.213.051 0 .208-.387.28-.688.067-.286.08-.763.027-1.024-.04-.2-.32-.536-.445-.536zm-15.687.09v.507l.585.005c.902.007.91.029.11.294l-.693.229v.7l.194-.021c.107-.012.587-.056 1.067-.1l.871-.077.015-.201.014-.201-.609.032c-.335.018-.6.022-.587.01.013-.013.28-.123.595-.247l.572-.224.014-.283c.012-.256.005-.283-.077-.283-.124 0-1.43-.085-1.783-.115zm21.002.307c-.178 0-.357.017-.473.051l-.138.04v.774l.215.014.215.013.015-.197c.015-.21.115-.281.246-.173.09.076.09.518-.001.594-.078.065-.568.085-.813.034-.137-.03-.178-.064-.22-.188-.061-.188.004-.393.137-.428.074-.02.092-.063.092-.225 0-.185-.01-.201-.117-.201-.155 0-.373.116-.434.23-.08.148-.107.646-.048.863.063.232.191.304.713.4.404.073.819.075 1.053.004.285-.086.37-.272.368-.81 0-.487-.043-.6-.264-.721-.08-.044-.269-.07-.47-.074h-.076zm-15.896.429c-.083 0-.776.554-.938.75-.18.219-.36.682-.36.925 0 .414.304 1.425.494 1.64.146.165.256.073.462-.386.075-.167.24-.419.368-.56.356-.393.39-.484.357-.945-.028-.383-.164-1.045-.265-1.298-.028-.07-.081-.126-.118-.126zm11.68.094c-.108.003-.169.154-.273.574a6.667 6.667 0 0 1-.199.68c-.159.377-.065.579.54 1.163.24.234.467.425.502.425.121 0 .293-.181.402-.423.145-.325.147-.861.004-1.229-.115-.294-.672-1.047-.85-1.146a.262.262 0 0 0-.126-.044zm-14.671.884c-.247.002-2.072.166-2.105.192-.007.006.06.331.15.724.088.392.161.725.161.74 0 .015.028.027.061.027.075 0 .5-.14.545-.179.018-.015-.007-.211-.056-.435-.05-.224-.078-.425-.064-.447.013-.022.08-.04.15-.04.12 0 .128.016.204.375.043.206.088.384.099.395.02.02.484-.08.484-.105 0-.007-.034-.173-.074-.368-.061-.296-.063-.361-.011-.394.107-.068.146-.02.208.26.115.523.08.475.3.421.108-.026.2-.05.206-.054.018-.013-.204-1.084-.23-1.11-.002-.002-.011-.003-.028-.003zm4.897.169c-.285 0-.566.513-.566 1.034 0 .307.011.342.229.7.126.207.297.47.379.583.082.113.178.206.213.206.079 0 .67-.878.67-.995 0-.11-.102-.261-.35-.52a1.342 1.342 0 0 1-.31-.527c-.163-.471-.168-.481-.265-.481zm12.654.184c-.059 0-.094 0-.097.004a.711.711 0 0 0-.035.2l-.014.182.454.058c.25.031.478.065.505.074.027.01-.203.064-.511.12l-.561.105-.032.236c-.017.13-.031.246-.031.259 0 .012.431.16.96.328.527.167.994.307 1.037.31.076.004.11-.096.14-.407.01-.109-.01-.117-.631-.255a19.06 19.06 0 0 1-.704-.164c-.035-.012.275-.06.688-.105.412-.046.755-.088.76-.093.025-.023.12-.716.1-.734-.023-.024-1.614-.113-2.028-.118zm-4.49.048c-.049.003-.088.033-.106.09-.017.053-.193.268-.39.477-.382.407-.48.555-.527.809-.026.14 0 .203.214.522.134.2.265.39.29.424.025.033.09.06.144.06.077 0 .155-.099.354-.447.339-.594.396-.772.396-1.226 0-.317-.016-.402-.104-.533-.08-.12-.189-.182-.27-.176zm-12.81.777c-.023 0-1.97.827-1.986.843-.008.009.03.132.084.274.064.167.126.26.173.26.041 0 .296-.06.568-.133a4.45 4.45 0 0 1 .493-.118c0 .008-.227.123-.505.254-.278.132-.505.265-.505.295 0 .031.044.162.098.292.054.129.112.235.129.235s.154-.04.304-.09c.15-.048.607-.194 1.017-.323l.745-.235-.07-.167a1.377 1.377 0 0 0-.087-.184c-.01-.01-.218.047-.463.126-.245.078-.452.136-.46.129-.007-.008.181-.115.42-.238.38-.197.43-.236.404-.32-.047-.153-.155-.35-.191-.35a7.547 7.547 0 0 0-.415.093c-.21.05-.396.09-.413.09-.017 0 .134-.075.336-.164.202-.09.384-.18.406-.201.033-.032-.042-.368-.083-.368zm3.42.23c-.243 0-.523.277-.728.718-.106.228-.124.33-.125.68 0 .36.015.443.12.643.155.292.467.718.901 1.227.189.22.37.401.404.401.034 0 .072-.073.088-.172.016-.094.13-.495.255-.89.124-.394.226-.778.226-.854 0-.086-.083-.264-.227-.484a6.611 6.611 0 0 1-.386-.693c-.18-.388-.352-.577-.529-.576zm10.428.086c-.126-.006-.23.106-.349.344a13.27 13.27 0 0 1-.456.788c-.379.609-.388.684-.14 1.14.098.179.224.464.28.635.088.267.117.31.211.31.15 0 .407-.237.527-.486.118-.243.101-.454-.073-.916-.123-.326-.11-.434.053-.434.078 0 .143.054.226.186.125.198.292.303.41.257.309-.118.09-1.15-.34-1.595-.14-.147-.251-.224-.349-.229zm3.092.281c-.029 0-.188.42-.165.436a114.817 114.817 0 0 0 1.966.8c.028.002.267-.606.248-.63a67.47 67.47 0 0 0-2.049-.606zm-11.096.229c-.108 0-.363.495-.396.77-.036.31.136.659.53 1.068.199.207.34.318.407.318.1 0 .103-.015.102-.447 0-.622-.134-1.092-.429-1.514-.075-.108-.171-.195-.214-.195zm1.875.046c-.017 0-.066.092-.11.205-.087.229-.074.615.025.733.032.04.094.07.138.07.098 0 .322-.169.322-.243 0-.076-.338-.765-.375-.765zm2.022.025l-.18.32c-.216.386-.227.499-.057.593.17.094.296.07.366-.067.066-.13.038-.438-.064-.687zm1.784.207c-.086 0-.19.053-.308.159-.245.221-.38.525-.396.893-.007.164-.028.43-.047.59-.026.227-.02.3.03.331.086.055.055.066.414-.147.388-.23.578-.449.617-.708.035-.232-.058-.875-.147-1.018-.041-.066-.096-.099-.163-.1zm-2.921.64c-.085 0-.24.08-.442.229-.352.26-.49.283-.809.138a1.03 1.03 0 0 0-.305-.091c-.216-.003-.185.291.057.533.085.085.168.154.186.154.017 0 .278-.083.579-.184.685-.23.925-.237 1.478-.046.504.175.627.175.827 0 .311-.274.295-.552-.028-.483-.452.096-.606.083-1.015-.086-.219-.09-.456-.164-.528-.164zm9.54.009l-.169.36-.168.359-.636-.319a8.915 8.915 0 0 0-.673-.318c-.054 0-.21.338-.163.355.021.007.43.23.91.493.48.264.884.48.899.48.014.002.151-.264.304-.588l.277-.591-.29-.116zm-1.942.543c-.003 0-.006 0-.007.002a17.51 17.51 0 0 0-.66.98l.18.133.166.124.132-.161.132-.161.688.455c.378.25.698.456.71.457.027.001.286-.416.266-.428l-.701-.414a42.116 42.116 0 0 1-.708-.423c-.01-.01.026-.097.08-.194.055-.098.1-.188.1-.2 0-.028-.32-.17-.377-.17zm-16.415.135l-.216.11c-.3.154-.506.37-.543.57-.025.132-.005.213.102.41.145.27.354.506.5.564.154.063.248.049.51-.08.292-.143 1.258-.921 1.254-1.01a.645.645 0 0 0-.113-.172l-.11-.136-.129.094c-.387.285-1.018.705-1.059.705-.063 0-.284-.266-.284-.341 0-.033.072-.109.16-.169.088-.06.16-.13.16-.156a.772.772 0 0 0-.116-.217zm12.547.046c-.036 0-.204.13-.375.289-.41.381-.619.538-.96.718-.363.19-.432.328-.321.638.042.117.09.404.106.637.016.234.036.425.044.425.009 0 .336-.168.728-.374.8-.42.987-.582 1.1-.962a1.65 1.65 0 0 0 .02-.865c-.05-.241-.23-.506-.342-.506zm-7.303.02c-.075 0-.12.035-.22.14-.192.204-.265.517-.243 1.042.014.353.031.418.156.595.153.218.402.397 1.099.79.252.142.49.252.526.246.08-.014.112-.115.187-.585.141-.882.109-1.1-.2-1.338a9.419 9.419 0 0 1-.5-.436c-.334-.31-.477-.398-.719-.444a.465.465 0 0 0-.086-.01zm-3.207.986l-1.04.376c-.572.206-1.039.388-1.038.403 0 .015.078.114.172.22l.17.194.223-.098.154.18a.956.956 0 0 1 .156.217c0 .02-.06.127-.135.235l-.135.198.328.378.328.377.232-.258c.128-.143.254-.258.28-.258.027 0 .118.073.203.16.194.2.43.316.562.274.055-.017.211-.137.347-.266.4-.378.463-.582.264-.852-.109-.147-.614-.6-.665-.597-.014 0-.335.298-.713.661-.378.363-.695.653-.703.644-.017-.016.41-.697.825-1.316.147-.22.268-.418.268-.439 0-.021-.069-.105-.153-.187zm13.698.003c-.251 0-.685.443-.685.7 0 .174.103.364.277.51.286.241.495.217.829-.095.205-.192.236-.207.34-.16.155.071.143.16-.054.377l-.167.185-.11-.102-.109-.103-.17.17.18.149c.098.082.221.174.274.205.168.097.402.067.592-.077.23-.173.434-.447.47-.627.056-.288-.225-.63-.673-.816-.221-.092-.412-.037-.7.201a2.68 2.68 0 0 1-.237.185.55.55 0 0 1-.087-.028c-.107-.041-.088-.123.063-.267.1-.096.162-.122.244-.102.083.02.14-.004.233-.1.117-.123.12-.133.042-.2-.122-.107-.27-.175-.382-.175zm-8.296.47c-.172.01-.28.263-.278.687.001.54.151.78.584.934.337.12.79.064.79-.098 0-.214-.755-1.377-.967-1.49a.244.244 0 0 0-.129-.034zm-5.72.09h.006c.007.007-.055.09-.137.185-.147.17-.15.17-.23.082-.08-.089-.078-.093.136-.185.106-.045.198-.079.224-.082zm8.52.13c-.094.005-.208.052-.342.14-.382.253-.871.887-.847 1.096.01.08.064.14.174.196.196.098.232.098.575.009.464-.12.726-.467.73-.967.002-.301-.086-.461-.252-.474h-.039zm4.56.157a.052.052 0 0 0-.035.011c-.318.245-.815.672-.815.7 0 .03.367.568.996 1.46l.203.288.11-.082c.316-.237 1.026-.82 1.028-.843.004-.043-.367-.454-.409-.454-.02 0-.188.122-.374.271-.313.251-.344.266-.419.2-.044-.04-.08-.098-.08-.13s.134-.165.298-.295l.298-.237-.165-.202-.165-.201-.299.253c-.287.244-.302.25-.386.175-.1-.09-.112-.073.263-.371l.28-.223-.152-.177c-.083-.096-.137-.14-.176-.143zm-12.174.53c.065 0 .36.283.36.345 0 .034-.057.102-.128.152l-.128.091-.196-.163-.196-.162.126-.132c.07-.072.143-.132.162-.132zm1.229.396a.043.043 0 0 0-.014.003c-.034.02-.447.314-.918.655l-.858.62.151.129c.262.225.28.226.49.048l.19-.163.225.144.225.145-.085.247c-.064.186-.071.257-.03.289.098.077.86.478.876.461.009-.009.153-.292.322-.629.168-.337.312-.605.319-.596.007.009-.033.336-.09.727a15.32 15.32 0 0 0-.094.72c.004.005.141.07.305.144.163.074.31.121.325.105.016-.015.185-.452.375-.969.19-.517.358-.974.375-1.015.022-.055-.018-.093-.163-.15a.734.734 0 0 0-.201-.064c-.005.007-.099.225-.208.484-.11.258-.208.47-.22.47-.024 0 .026-.767.065-.99.023-.135.012-.147-.22-.243-.291-.121-.202-.213-.796.824-.246.429-.452.774-.46.766-.007-.007.11-.435.259-.95.149-.516.27-.952.27-.969 0-.063-.326-.25-.415-.244zm9.802.017c-.09 0-.706.312-.89.451l-.105.08.459.95c.252.522.47.95.485.95.05 0 .384-.183.41-.224.014-.023-.067-.203-.179-.4l-.204-.358.186-.105a.85.85 0 0 1 .251-.106c.036 0 .17.143.297.318l.233.319.225-.139.225-.139-.206-.267c-.266-.346-.471-.55-.553-.55-.044 0-.066-.052-.066-.152 0-.25-.341-.628-.568-.628zm-.013.507c.046.001.077.024.095.07.048.125.032.152-.155.27-.1.064-.191.116-.201.116a.447.447 0 0 1-.098-.12c-.086-.132-.084-.135.17-.272a.417.417 0 0 1 .189-.064zm-1.03.004l-.2.074-.2.074.156.436c.086.24.148.443.14.453-.01.009-.116-.165-.236-.388-.12-.222-.224-.41-.23-.418-.027-.033-.48.154-.48.198 0 .025.051.231.114.457.062.226.107.416.1.423-.006.006-.103-.173-.214-.4-.111-.226-.225-.411-.254-.411-.067 0-.342.095-.342.118 0 .019.755 1.628.855 1.82.036.07.08.126.096.126.066 0 .563-.207.563-.235 0-.015-.072-.262-.16-.548a4.948 4.948 0 0 1-.146-.532c.007-.007.124.214.26.49.137.278.274.504.304.504.03 0 .168-.043.306-.096l.252-.096-.342-1.025zm-8.95.118c.03.002.02.055-.01.16-.065.218-.104.244-.227.15-.085-.063-.084-.068.023-.159.119-.102.185-.152.214-.15zm2.802.476a.04.04 0 0 0-.016.003c-.017.02-.507 1.759-.547 1.947-.03.137-.024.143.166.189.335.08.315.1.381-.358.048-.333.058-.339.408-.27.37.074.516.034.64-.178.094-.162.156-.69.104-.898a.369.369 0 0 0-.136-.187c-.093-.06-.877-.252-1-.248zm3.485.225c-.348 0-.565.073-.7.234-.108.128-.118.175-.117.56 0 .489.1 1.014.221 1.179.047.063.155.14.241.17.188.07.589.035.804-.068.238-.113.31-.317.28-.788-.034-.498-.183-.986-.355-1.157-.11-.11-.167-.13-.374-.13zm-1.673.046c-.423 0-.567.014-.567.057 0 .032-.031.48-.069.998-.037.517-.067.976-.068 1.02 0 .067.042.08.252.08h.252v-.825h.231c.142 0 .24.022.253.057.012.032.037.213.056.402l.034.344.234.013.234.014-.017-.243-.033-.461c-.009-.124-.05-.257-.094-.306-.075-.082-.075-.094-.002-.206.108-.164.08-.713-.044-.85-.079-.086-.138-.094-.653-.094zm-1.486.263c.046.002.113.01.184.024.201.04.23.06.23.158a.504.504 0 0 1-.047.2c-.026.049-.062.086-.08.084a7.125 7.125 0 0 1-.232-.05l-.2-.044.032-.168c.017-.093.039-.181.049-.197.002-.004.011-.006.025-.007h.039zm3.086.15c.161 0 .184.015.248.169.039.093.082.32.096.504l.025.335-.165.07c-.364.151-.444.072-.506-.503-.045-.418-.043-.453.038-.512a.541.541 0 0 1 .264-.063zm-1.597.046c.235 0 .302.04.302.183 0 .074-.03.14-.073.156a.844.844 0 0 1-.23.027c-.152 0-.156-.005-.156-.183s.005-.184.157-.184zm2.89.056a1.822 1.822 0 0 0-.236.059c-.178.053-.23.088-.218.149l.042.201.025.122.264-.069a2.77 2.77 0 0 0 .276-.08c.011-.01-.12-.353-.146-.381H14.4zM23.707 12A11.707 11.707 0 0 1 12 23.707 11.707 11.707 0 0 1 .293 12 11.707 11.707 0 0 1 12 .293 11.707 11.707 0 0 1 23.707 12Z"/></svg>