<svg role="img" viewBox="0 0 24 24" xmlns="http://www.w3.org/2000/svg"><title>NextUI</title><path d="M17.89 0H6.11A6.116 6.116 0 0 0 0 6.11v11.78a6.058 6.058 0 0 0 1.79 4.32c.11.1.21.21.32.3a7.274 7.274 0 0 0 .71.53c.12.08.25.15.38.22a4.434 4.434 0 0 0 .54.26 7.1 7.1 0 0 0 .92.31 7.386 7.386 0 0 0 .82.14q.315.03.63.03h11.78q.315 0 .63-.03c.3-.04.6-.09.9-.16a7.552 7.552 0 0 0 .84-.29 3.935 3.935 0 0 0 .55-.26 6.134 6.134 0 0 0 1.08-.75c.11-.09.22-.2.32-.3A6.058 6.058 0 0 0 24 17.89V6.11A6.109 6.109 0 0 0 17.89 0Zm-3.71 13.75a3.931 3.931 0 0 1-7.85 0V6.77h1.09v6.98h.01a2.833 2.833 0 0 0 5.65 0h.01V6.77h1.09Zm3.71 3.49H16.8V6.77h1.09Z"/></svg>
