<svg role="img" viewBox="0 0 24 24" xmlns="http://www.w3.org/2000/svg"><title>Next.js</title><path d="m3.887 14.414-3.058-3.8v3.798H0V9.58h1.036L4.9 14.377V9.583h4.18v.771H5.73v1.242h2.694v.771H5.728v1.275H9.08v.772H3.887Zm8.683-3.087 1.398-1.737 1.085-.002-1.94 2.414 1.944 2.414h-1.089l-3.886-4.831h1.085l1.403 1.742Zm-1.403 3.092h-1.089l1.659-2.06.543.676-1.113 1.384Zm4.787-4.836h4.18v.771h-1.657v4.06h-.83v-4.06h-1.693v-.771Zm4.367 4.801a.215.215 0 0 1-.155-.063.203.203 0 0 1-.064-.153.2.2 0 0 1 .064-.152.215.215 0 0 1 .155-.063c.059 0 .11.021.153.063a.205.205 0 0 1 .035.26.224.224 0 0 1-.188.108Zm1.415-2.035h.368v1.416c0 .13-.029.24-.084.335a.557.557 0 0 1-.231.215.754.754 0 0 1-.345.075.791.791 0 0 1-.322-.064.519.519 0 0 1-.227-.188.541.541 0 0 1-.084-.31h.368c0 .054.013.101.037.14.023.04.056.07.097.09a.32.32 0 0 0 .145.032c.06 0 .11-.012.15-.037a.235.235 0 0 0 .095-.11.45.45 0 0 0 .033-.178v-1.416Zm1.88.554a.267.267 0 0 0-.117-.2.459.459 0 0 0-.268-.073.52.52 0 0 0-.198.035.298.298 0 0 0-.127.093.229.229 0 0 0-.045.135c0 .042.01.078.03.109.02.03.045.057.08.078.033.021.071.04.112.053.042.015.083.027.125.037l.191.047c.077.018.152.042.223.072a.79.79 0 0 1 .193.114.494.494 0 0 1 .185.394.53.53 0 0 1-.092.311.604.604 0 0 1-.265.21 1.05 1.05 0 0 1-.418.075c-.159 0-.297-.024-.413-.073a.61.61 0 0 1-.274-.212.616.616 0 0 1-.106-.34h.364a.305.305 0 0 0 .217.279.608.608 0 0 0 .209.034c.08 0 .151-.012.212-.036a.332.332 0 0 0 .143-.1.234.234 0 0 0 .053-.15.194.194 0 0 0-.047-.131.358.358 0 0 0-.128-.087 1.316 1.316 0 0 0-.192-.062l-.233-.059a.933.933 0 0 1-.398-.194.44.44 0 0 1-.146-.347.51.51 0 0 1 .098-.311.64.64 0 0 1 .268-.208.947.947 0 0 1 .384-.074c.145 0 .272.024.381.074.11.05.196.118.258.205a.52.52 0 0 1 .097.302h-.356Z"/></svg>
