<svg role="img" viewBox="0 0 24 24" xmlns="http://www.w3.org/2000/svg"><title>NextDNS</title><path d="M11.996 0a1.55 1.55 0 0 0-1.04.412c-.589.54-.83.73-1.307 1.04-.907.59-1.973 1.009-3.164 1.247a15.782 15.782 0 0 1-2.563.299 11.223 11.223 0 0 0-.495.026 1.814 1.814 0 0 0-1.55 1.444 32.572 32.572 0 0 0-.17 2.468c-.064 1.664 0 4.404.125 5.33.238 1.762.77 3.38 1.614 4.884.88 1.58 2.09 2.994 3.564 4.173a16.43 16.43 0 0 0 4.77 2.624c.216.075.235.075.519-.03a16.454 16.454 0 0 0 4.74-2.635 13.079 13.079 0 0 0 1.172-1.059 13.551 13.551 0 0 0 3.923-7.737c.068-.454.083-.65.129-1.497a48.77 48.77 0 0 0-.114-6.381 1.83 1.83 0 0 0-1.772-1.603c-.087 0-.28-.011-.428-.019a12.977 12.977 0 0 1-3.938-.706A8.142 8.142 0 0 1 13.304.654l-.272-.257A1.486 1.486 0 0 0 11.996 0ZM2.954 14.534a.42.465 0 0 0 .012 0v.027zm.923 2.162a1.217 1.304 0 0 0 .019.016.775.707 0 0 0 0 .022zm15.294 1.501-.057.076a7.613 5.258 0 0 0 .038-.072.816.794 0 0 0 .019 0z"/></svg>