<svg role="img" viewBox="0 0 24 24" xmlns="http://www.w3.org/2000/svg"><title>Nexus Mods</title><path d="M17.38 0c-1 0-2.18.69-2.91 1.18a10.9 10.9 0 0 0-6.79.64 7.31 7.31 0 0 0-3.32-.5 2.16 2.16 0 0 0-1.27.44C2.76 1.98.3 4.45.02 6.4c-.17 1.1.66 2.52 1.2 3.3-.44 1.77-.2 4.58.52 6.2-.36 1.04-.72 2.08-.67 3.2.01.58.06 1.19.4 1.68.25.4 3.06 3.21 5.08 3.21.95 0 1.93-.43 3.07-1.24 2.16.38 4.4.35 6.44-.53 2.58 1 4.23.62 4.84.16.59-.46 2.83-2.91 3.07-4.62.1-.68-.02-1.64-1.22-3.4a10.98 10.98 0 0 0-.5-6.45 8 8 0 0 0 .59-3.34 2.47 2.47 0 0 0-.5-1.5c-.2-.34-2.4-2.4-4.02-2.92a3.1 3.1 0 0 0-.94-.16m-.03 2.08c.65.02 2.15 1.1 3 1.9l.36.35c-.96-.17-2.12.43-3.26 1.55a10.3 10.3 0 0 0-1.36 1.6 7.02 7.02 0 0 0-.75 1.28l1.18.63-3.9 1.48-1.12-4.18 1.04.55c1.35-3.1 2.52-3.98 3.23-4.42h.01a5.12 5.12 0 0 1 1.5-.72zM12 3.06a9 9 0 0 1 2.22.28 7.67 7.67 0 0 0-.42.5 8.4 8.4 0 0 0-1.8-.2 8.34 8.34 0 0 0-5.9 2.43 7.86 7.86 0 0 1-.37-.44A8.9 8.9 0 0 1 12 3.08m-7.08.3c.71 0 1.31.13 2.2.47a9.53 9.53 0 0 0-1.7 1.33c-.34-.54-.63-1.15-.5-1.8m-.6.04c-.17.96.42 2.13 1.55 3.27a10.27 10.27 0 0 0 2.87 2.1l.62-1.17 1.5 3.91-4.18 1.12.54-1.03c-3.1-1.36-3.97-2.53-4.4-3.24v-.01a5.14 5.14 0 0 1-.73-1.5l-.02-.07c.02-.65 1.1-2.15 1.9-3ZM20.35 4.9l.26.01.14.02c0 .37-.04.75-.13 1.14v.01c-.1.39-.23.77-.37 1.15a9.53 9.53 0 0 0-1.35-1.77 3.05 3.05 0 0 1 1.45-.57m-1.92.91a8.9 8.9 0 0 1 2.5 6.2c0 .75-.09 1.48-.26 2.18a7.66 7.66 0 0 0-.5-.42 8.4 8.4 0 0 0 .2-1.76A8.34 8.34 0 0 0 18 6.17a7.25 7.25 0 0 1 .43-.37M3.32 9.9c.15.15.31.3.48.43A8.42 8.42 0 0 0 3.64 12c0 2.25.88 4.29 2.32 5.79a8.94 8.94 0 0 1-.42.37A8.9 8.9 0 0 1 3.32 9.9m13.98 1.55-.54 1.03c3.1 1.36 3.97 2.53 4.4 3.23v.02c.35.49.58.99.73 1.49l.02.07c-.02.65-1.1 2.16-1.9 3.02l-.35.35c.17-.96-.42-2.13-1.55-3.26a10.3 10.3 0 0 0-1.59-1.36 7 7 0 0 0-1.28-.75l-.6 1.15-1.51-3.87zm-6 1.68 1.12 4.18-1.03-.55c-1.36 3.1-2.53 3.97-3.24 4.42h-.01c-.49.34-.99.57-1.5.72l-.06.02c-.65-.02-2.16-1.1-3.01-1.9l-.36-.35c.96.16 2.13-.43 3.26-1.55.49-.46.95-1 1.36-1.6a7.02 7.02 0 0 0 .75-1.28l-1.16-.63Zm-7.58 3.53c.38.67.84 1.29 1.37 1.84-.7.47-1.33.67-1.78.59l-.14-.02c0-.37.04-.75.13-1.14v-.01c.11-.42.25-.84.42-1.26m14.13 1.32.37.43a8.93 8.93 0 0 1-8.5 2.23l.41-.49a8.34 8.34 0 0 0 7.72-2.17m.7.89c.43.66.6 1.26.53 1.7l-.02.13c-.37 0-.75-.04-1.14-.13h-.01a10.72 10.72 0 0 1-1.12-.36 9.53 9.53 0 0 0 1.76-1.34"/></svg>