<svg role="img" viewBox="0 0 24 24" xmlns="http://www.w3.org/2000/svg"><title>nf-core</title><path d="M4.213 10.88s.013-.31.04-.573c.439-4.425 2.61-4.981 6.506-5.111.252-.008.44-.01.44-.01s-.009-.218.01-.5c.06-.891.195-2.246.994-3.265q.198-.263.448-.483c.898-.785 1.983-.978 2.95-.933.177.009.399.032.549.052.151.021.223.036.355.068.13.034.342.087.432.134s.093.049.125.098a.32.32 0 0 1 .046.188c-.005.057-.027.079-.065.136q-.072.11-.17.2-.136.125-.385.278a7 7 0 0 1-.63.307c-.15.063-.159.083-.258.092-.355.004-.516-.138-.646-.349-.03-.047-.032-.056-.052-.099-.02-.041-.021-.12-.066-.155-.046-.035-.09-.022-.173-.031a2.2 2.2 0 0 0-.749.041 2 2 0 0 0-.452.18c-.96.517-1.544 2.035-1.326 3.693.011.1.033.225.033.225l.122-.01c2.334-.317 4.028-.235 5.411.61 1.737 1.042 2.147 3.083 2.078 5-.008.24-.026.385-.026.385s-.566-.43-.825-.596c-3.038-1.963-4.382 1.985-4.423 3.862-.005 2.134.64 4.925 1.427 5.482 1.105-.457 1.499-.75 2.923-1.823 0 0 .03.068.085.325s.185.856.206 1.221q.026.483-.054.96c-.046.266-.118.47-.178.628-.817 2.166-4.515 2.598-4.938 2.577-.927-.08-1.39-.592-2.113-.768-.724-.108-1.014.22-1.524.676-.436.314-.67.368-1.022.406a4 4 0 0 1-.983-.105c-2.21-.445-3.138-1.983-3.281-4.033 0-.192.01-.371.026-.574s.078-.64.078-.64.383.315.599.455c.756.49 1.73.87 3.157.74.205-.02.475-.074.475-.074s.238-.242.346-.375a4 4 0 0 0 .301-.425c.287-.48.958-2.67 1.117-4.128.038-.35.061-.7.061-1.01 0-.8-.138-1.969-.759-3.186-.659-.88-1.407-1.062-2.37-.484-.157.13-.398.34-.54.456-.104.083-.314.244-.314.244s-.202-.167-.306-.244c-.105-.076-.215-.159-.322-.216-.7-.33-1.19-.114-1.86.183" style="fill:#ffffff;stroke:none;stroke-width:0.00104378;stroke-linecap:round;stroke-dasharray:none;paint-order:stroke markers fill"/></svg>