<svg role="img" viewBox="0 0 24 24" xmlns="http://www.w3.org/2000/svg"><title>nf-core</title><path d="M4.848 10.88s.013-.31.036-.573c.024-.263.065-.69.119-1.004s.112-.593.198-.88a7 7 0 0 1 .317-.834c.098-.212.144-.288.246-.445.102-.156.267-.363.37-.486.102-.122.085-.125.237-.256.153-.132.472-.355.709-.487.237-.131.439-.215.705-.306s.541-.163.89-.228c.35-.065.842-.114 1.206-.143.365-.03.75-.033.981-.041s.404-.011.404-.011-.008-.218.01-.5c.016-.282.06-.84.12-1.19a7 7 0 0 1 .226-.916c.081-.255.146-.422.24-.615a4 4 0 0 1 .325-.543c.124-.171.243-.323.413-.485s.4-.341.613-.467a3.3 3.3 0 0 1 .654-.29c.222-.073.508-.123.671-.149s.172-.02.3-.026c.13-.006.309-.008.472 0s.366.03.505.052c.138.021.205.035.326.068.12.033.314.086.396.133s.086.049.115.098a.35.35 0 0 1 .043.188c-.005.057-.026.08-.06.137a1 1 0 0 1-.157.2 2.2 2.2 0 0 1-.353.277c-.154.1-.441.244-.579.307s-.145.083-.236.092a.8.8 0 0 1-.292-.047c-.06-.02-.045-.02-.075-.041a.6.6 0 0 1-.105-.087 1.3 1.3 0 0 1-.122-.174c-.027-.046-.03-.056-.048-.098s-.019-.12-.06-.156c-.043-.035-.082-.022-.159-.032a1.8 1.8 0 0 0-.688.043 2 2 0 0 0-.415.178 1.6 1.6 0 0 0-.333.26c-.12.118-.28.33-.364.456-.083.127-.09.147-.155.288-.063.14-.147.344-.21.56a7 7 0 0 0-.152.728c-.03.193-.031.252-.039.423a8 8 0 0 0 0 .606c.008.163.023.274.034.373.011.1.03.225.03.225l.113-.01s.421-.062.647-.089c.225-.027.471-.059.703-.07a8 8 0 0 1 .688 0c.281.01.665.016 1.002.064.336.049.686.11 1.01.229.325.118.654.298.92.475.266.178.481.364.676.57.194.208.348.426.488.661a5 5 0 0 1 .527 1.335c.057.237.117.603.152.834s.035.293.05.56c.017.268.023.803.016 1.042-.007.24-.024.384-.024.384s-.52-.43-.757-.596a7 7 0 0 0-.662-.412c-.181-.098-.414-.19-.414-.19s-.3-.016-.604.096c-.305.112-.287.09-.492.21s-.528.347-.71.542c-.183.195-.259.343-.395.592s-.3.644-.398.908a5 5 0 0 0-.2.664 6.7 6.7 0 0 0-.188 1.452c-.006.233-.01.344.015.7s.104.94.167 1.433.204 1.242.237 1.463c.033.22.087.578.12.783.033.204.078.29.141.417.064.128.173.268.233.342s.048.057.113.116.285.227.285.227.372-.166.533-.252a7 7 0 0 0 .724-.449c.145-.101.425-.31.575-.425.15-.116.185-.15.328-.265l.525-.431s.027.068.078.325c.05.257.17.856.189 1.222a5 5 0 0 1-.051.96 3.4 3.4 0 0 1-.163.627c-.055.158-.083.209-.146.328a4 4 0 0 1-.236.383 3 3 0 0 1-.275.33c-.09.094-.148.148-.26.24a4 4 0 0 1-.417.306 4 4 0 0 1-.578.318 10 10 0 0 1-.999.372c-.3.092-.592.152-.798.196a4 4 0 0 1-.438.08c-.138.017-.253.032-.388.023a2.3 2.3 0 0 1-.418-.077c-.116-.032-.2-.068-.276-.1s-.188-.087-.188-.087-.35-.19-.473-.254-.169-.092-.267-.134a2 2 0 0 0-.32-.116 1.4 1.4 0 0 0-.32-.043.8.8 0 0 0-.24.036.8.8 0 0 0-.221.103c-.077.05-.127.102-.231.198s-.25.272-.387.383a3 3 0 0 1-.435.283c-.099.05-.05.026-.134.05s-.238.06-.371.072c-.133.013-.3-.007-.451-.023a3 3 0 0 1-.451-.082c-.175-.044-.384-.096-.571-.163a5 5 0 0 1-.551-.238 3 3 0 0 1-.382-.232 4 4 0 0 1-.37-.298 2.6 2.6 0 0 1-.29-.312c-.104-.13-.225-.3-.322-.472a3.6 3.6 0 0 1-.252-.56 5.2 5.2 0 0 1-.247-1.179 6 6 0 0 1-.029-.578c0-.192.008-.372.024-.574.015-.203.071-.64.071-.64s.352.315.55.455c.2.14.434.28.641.38s.427.177.596.229c.17.052.252.068.413.095.163.027.35.051.559.059a6 6 0 0 0 .691-.023c.188-.019.437-.075.437-.075s.218-.24.318-.374c.099-.133.206-.297.276-.425s.097-.185.155-.336.113-.356.177-.574.153-.54.205-.735c.053-.194.056-.197.113-.43s.153-.629.217-.971c.063-.342.124-.733.16-1.082.035-.35.055-.7.055-1.009s-.018-.563-.049-.843a9 9 0 0 0-.135-.833 5 5 0 0 0-.172-.646 8 8 0 0 0-.34-.865c-.1-.19-.11-.195-.195-.295s-.191-.208-.317-.296a1.8 1.8 0 0 0-.434-.217 1.4 1.4 0 0 0-.433-.072c-.146.001-.431.076-.431.076s-.224.19-.368.32c-.145.129-.365.34-.497.456a12 12 0 0 1-.287.244s-.185-.167-.282-.244-.197-.158-.296-.216a1.2 1.2 0 0 0-.29-.134 1.4 1.4 0 0 0-.405-.056 1.1 1.1 0 0 0-.388.071c-.172.057-.439.202-.624.303-.186.101-.49.299-.49.299"/></svg>