<svg role="img" viewBox="0 0 24 24" xmlns="http://www.w3.org/2000/svg"><title>Nginx Proxy Manager</title><path d="M1.6753 18.0428V17.9572L1.5895 17.9143V18.0001Z M1.5895 15.0142 1.6753 14.957V13.4712L1.5895 13.4289Z M1.5895 17.9143 1.6753 17.957 2.7055 17.3569V15.5572L1.6753 14.957 1.5895 15.0142Z M4.1796 19.4997 4.2654 19.4427 5.5532 20.1997V20.2858Z M4.1796 19.4997 4.2654 19.4429V18.2572L2.7055 17.3571 1.6753 17.9572V18.0428Z M1.5895 10.5288 1.6753 10.486V8.9857L1.5895 8.9426Z M1.5895 13.4289 1.6751 13.4715 2.5765 12.9574A7.0653 7.0653 0 012.5196 12.0002C2.5196 11.6712 2.5482 11.3282 2.5765 11.0001L1.6751 10.4851 1.5895 10.528Z M1.6751 14.9713 2.7055 15.5572 4.2654 14.6713V13.471L3.5066 13.0287C3.5211 13.2432 3.5641 13.4572 3.607 13.6715L2.777 14.1566A7.017 7.017 0 012.5765 12.9564L1.6751 13.4705Z M4.2654 19.443V18.2573L4.6801 18.0144 4.666 18.0008C4.8663 18.2434 5.0808 18.4717 5.2955 18.6862A9.6247 9.6247 0 006.4545 19.6717L5.553 20.2002ZM5.8107 17.3573 6.8551 17.9572V18.8285A6.8459 6.8459 0 015.9537 18.0428 5.1546 5.1546 0 015.4815 17.543Z M9.4454 22.5287V22.4286L8.1433 21.686 8.0718 21.7288Z M8.0718 21.7289 8.1433 21.6862V20.6429A9.0435 9.0435 0 016.4545 19.6724L5.553 20.201V20.2872Z M1.5895 6.0428 1.6753 6V5.9573L1.5895 5.9998Z M1.5895 8.9426 1.6753 8.9854 2.9632 8.2425V6.743L1.6753 5.9998 1.5895 6.0428Z M1.6751 10.4851 2.5765 10.9992A9.7697 9.7697 0 013.2352 8.3999L2.9632 8.2432 1.6751 8.9858ZM3.5066 10.9136 4.2654 10.4851V8.9858L4.0355 8.8567A8.3764 8.3764 0 003.5059 10.9144Z M3.5066 13.0287 4.2654 13.4712 5.553 12.7285V11.2285L4.2654 10.4851 3.5066 10.9136A9.072 9.072 0 003.4354 11.9992 8.1465 8.1465 0 003.5066 13.0279Z M5.8107 15.5572 6.7121 15.0425 8.1433 15.8713V17.1997L6.8554 17.9572 5.8107 17.3571Z M8.1433 21.686 9.4457 22.4286 10.7481 21.686V21.3859C9.8321 21.2583 8.9592 21.0147 8.1433 20.6428ZM10.7481 20.4571V20.2L9.4457 19.443 8.687 19.8858A8.1409 8.1409 0 0010.7479 20.4571Z M5.8107 15.5572 6.7121 15.0425V13.3856L5.5532 12.7285 4.2654 13.4712V14.6713Z M11.9497 23.9716 12.0358 23.9289V22.4288L10.7477 21.6862 9.4455 22.4288V22.529Z M8.6867 19.8858 9.4454 19.443V17.9572L8.1431 17.1997 6.8549 17.9572V18.8285A8.0564 8.0564 0 008.6865 19.8858Z M12.0782 23.9573 12.0355 23.9292 11.9494 23.9718 12.0065 24Z M1.6753 5.9999 2.9632 6.743 4.2654 5.9999V4.4998L4.2224 4.4854 1.6753 5.9572Z M2.9632 8.2432 3.2352 8.3999C3.5641 7.5852 4.0077 6.8421 4.5376 6.1571L4.2656 5.9999 2.9632 6.743ZM4.0358 8.856 4.2656 8.985 5.5532 8.2423V6.743L5.3387 6.6286A8.8407 8.8407 0 004.0363 8.8567Z M4.2654 10.4859 5.5532 11.2285 6.7121 10.5572V8.9574L6.7552 8.9288 5.5532 8.2431 4.2653 8.986Z M9.4454 19.443 10.7477 20.2 12.0358 19.443V18.0717L12.0072 18.0852 10.6049 17.2854 9.4458 17.9568Z M5.5532 12.7285 6.7121 13.3856V10.5572L5.5532 11.2285Z M10.7477 21.686 12.0355 22.4286 13.338 21.686V21.3716A10.3939 10.3939 0 0112.007 21.4572 11.9341 11.9341 0 0110.7479 21.3857ZM13.3377 20.4428V20.2L12.0353 19.443 10.7474 20.2V20.4571A9.0453 9.0453 0 0012.0064 20.5429 8.3697 8.3697 0 0013.3374 20.4429Z M8.1433 17.1997 9.4454 17.9572 10.6047 17.2858 8.1433 15.8713Z M12.0358 23.9287 12.0784 23.9569 14.6256 22.4854V22.4281L13.3382 21.6855 12.036 22.4281Z M4.2225 4.4855 4.2654 4.4998 5.5533 3.7571V3.7139Z M4.2654 5.9999 4.5373 6.1571C4.7802 5.8571 5.0381 5.5859 5.2956 5.3144A9.0447 9.0447 0 016.4976 4.3001L5.5527 3.7574 4.2651 4.5ZM5.338 6.6286 5.5525 6.743 6.8549 5.9999V5.1717A6.7699 6.7699 0 005.9534 5.9572C5.7389 6.1712 5.5387 6.3852 5.3382 6.6286Z M5.5532 8.2429 6.7553 8.9286 8.1433 8.1287V6.743L6.8554 5.9999 5.5532 6.743Z M15.9706 21.7141 15.9279 21.686 14.6257 22.4286V22.4859Z M12.0358 19.443 13.338 20.2 14.6253 19.443V17.9572L13.4381 17.257 12.0358 18.0717Z M13.3377 21.686 14.6253 22.4286 15.9277 21.686V20.6135A9.5019 9.5019 0 0113.3377 21.3716ZM15.3552 19.8716 14.6253 19.443 13.3377 20.2V20.4428C14.039 20.3284 14.7255 20.1427 15.3552 19.8716Z M5.553 3.7571 6.4979 4.2998A9.3943 9.3943 0 018.1435 3.3569V2.257L8.1148 2.2427 5.5533 3.714Z M6.8551 5.9999 8.1433 6.743 9.4457 5.9999V4.4998L8.7434 4.1006C8.0565 4.3723 7.4269 4.7436 6.8536 5.1732Z M15.9275 21.686 15.9701 21.7143 18.5173 20.243V20.2002L17.5724 19.6575A9.9113 9.9113 0 0115.9267 20.6147Z M10.6476 6.6853 9.4454 5.9999 8.1433 6.743V8.1287Z M13.4381 17.257 14.6253 17.9572 15.9275 17.1997V15.8284Z M14.6253 19.443 15.3552 19.8716A8.0758 8.0758 0 0017.2154 18.7714V17.9572L15.9275 17.1997 14.6251 17.9572Z M8.1144 2.2427 8.1431 2.257 9.4453 1.5136V1.4712Z M8.7434 4.1006 9.4447 4.5008 10.4889 3.9149V3.5855L10.5462 3.5715A8.4579 8.4579 0 008.7434 4.1006ZM10.4889 2.1148 9.4454 1.5139 8.1431 2.257V3.3569A9.8972 9.8972 0 0110.4895 2.6572Z M17.5731 19.6573 18.5181 20.2 19.8205 19.443V18.2573L18.2602 17.3573 17.2154 17.9572V18.7714C17.3875 18.657 17.5302 18.5285 17.688 18.3998L18.5175 18.8714A9.7908 9.7908 0 0117.5727 19.6573Z M19.8629 19.4714 19.8201 19.4433 18.518 20.2002V20.2429Z M9.4454 5.9999 10.6476 6.6853 12.007 5.9143 12.0355 5.9282V4.7996L10.49 3.9139 9.4454 4.4998Z M15.9275 17.1997 17.2156 17.9572 18.2602 17.3571V15.5572L17.2874 15.0002V15.0427L15.9275 15.8285Z M9.4454 1.5136 10.49 2.1138 12.0358 1.2138V.0283L12.007 0 9.4454 1.4712Z M12.0358 5.9283V4.7996L13.5953 3.9139 14.6253 4.4998V5.9999L13.3949 6.7141Z M19.82 19.443 19.8627 19.4712 22.4099 18V17.9572L21.3651 17.3571 19.8198 18.2572Z M17.2874 13.4289 18.5177 12.7285V11.2285L17.2874 10.5142Z M15.9275 8.1711V6.743L14.6253 5.9999 13.3949 6.7141Z M17.2874 15.0002 18.2602 15.5572 19.82 14.6713V13.4712L18.5177 12.7285 17.2874 13.4289Z M13.5956 2.1138 14.6255 1.5139 15.928 2.257V3.3855A8.6269 8.6269 0 0014.7259 2.9425V3.9001A4.7756 4.7756 0 0115.3133 4.1141L14.6264 4.4998 13.5956 3.9139Z M19.9918 15.0564A.449.449 0 0020.049 14.9131.449.449 0 0119.9918 15.0564ZM20.0774 14.8559A8.1509 8.1509 0 0020.4927 13.0706L19.8197 13.4702V14.6705L20.092 14.8279ZM21.3653 15.5562 22.4101 14.956V13.4712L21.4358 12.9142A9.5905 9.5905 0 0120.8778 15.3149L20.8928 15.2863Z M17.2729 8.9574 18.5177 8.2429V6.743L17.2156 5.9999 15.9275 6.743V8.1711Z M13.5953 2.1138 14.6253 1.5136 12.0358.0283V1.2138Z M17.2874 10.5142 18.5177 11.2285 19.82 10.4859V8.9858L18.5177 8.2429 17.2729 8.9574H17.2874Z M14.6253 5.9999 15.9277 6.743 17.2156 5.9999V5.2283A7.9098 7.9098 0 0015.3125 4.1141L14.6255 4.4998Z M18.5175 12.7285 19.82 13.4712 20.4929 13.0716A8.7084 8.7085 0 0020.5644 11.999 9.8867 9.8867 0 0020.4929 10.8702L19.8197 10.4851 18.5173 11.2278Z M21.4357 12.9142 22.4093 13.4712V10.4851L21.4217 11.0421A7.0191 7.0191 0 0121.479 11.9992C21.479 12.3134 21.465 12.6134 21.4362 12.9134Z M17.2154 5.9999 18.5177 6.743 18.6751 6.657A7.1128 7.1128 0 0018.0599 5.9572 10.1544 10.1544 0 0017.2156 5.2283ZM19.4763 6.186 19.8197 5.9999V4.4998L18.5173 3.7571 17.5446 4.3281A9.4 9.4 0 0118.7032 5.3142 11.3107 11.3107 0 0119.4757 6.186Z M22.41 14.957V14.971 13.4709Z M18.5175 8.2432 19.82 8.9858 19.9773 8.8996A8.1359 8.1359 0 0018.6749 6.657L18.5175 6.743ZM20.7784 8.4288 21.1078 8.2432V6.743L19.8197 5.9999 19.4763 6.186A9.7254 9.7254 0 0120.7786 8.4288Z M17.5448 4.3281 18.5175 3.7571 15.9275 2.257V3.3855A9.1992 9.1992 0 0117.5448 4.3281Z M19.8197 10.4851 20.4926 10.8705A8.8729 8.8729 0 0019.977 8.8989L19.8197 8.985ZM21.4224 11.0421 22.41 10.4851V8.9858L21.1076 8.2432 20.7782 8.4288C21.1076 9.2575 21.3362 10.1286 21.4222 11.0429Z M19.82 5.9999 21.1078 6.743 22.41 5.9999 19.82 4.4998Z M21.1078 8.2429 22.41 8.9858V5.9999L21.1078 6.743Z M21.3653 17.3571 22.41 17.9572V14.957L21.3653 15.5572Z M9.3167 13.4 9.4454 13.4713V13.6146L9.3167 13.5427Z M9.3167 10.5572 9.4454 10.4857 10.7477 11.2283V12.7284L9.4454 13.4711 9.3167 13.3998Z M12.1358 15.0142 12.0358 14.9569 11.9068 15.0425 12.007 15.0997Z M11.9068 15.0425 12.0358 14.957V13.4712L10.7477 12.7285 9.4454 13.4712V13.6144Z M12.0358 14.957 12.1358 15.0144 14.6253 13.5715V13.4713L13.338 12.7287 12.0358 13.4713Z M10.7477 12.7285 12.0358 13.4712 13.338 12.7285V11.2285L12.0358 10.4859 10.7477 11.2285Z M13.338 12.7285 14.6253 13.4712 14.6827 13.4431V10.5143L14.6253 10.4862 13.338 11.2288Z M14.683 13.4429 14.6256 13.4709V13.571L14.683 13.5425Z M9.3167 10.5572 9.4454 10.4857V10.3854L9.3167 10.4571Z M9.4454 10.4859V10.3855L11.9497 8.9426 12.0358 8.9854V10.4855L10.7477 11.2282Z M12.0929 8.9574 12.0357 8.9856 11.9495 8.9427 12.0067 8.9147Z M12.0358 10.4859 13.338 11.2285 14.6253 10.4859V10.4287L12.0929 8.9574 12.0357 8.9855Z M14.6253 10.4859 14.6827 10.5139V10.4568L14.6253 10.4287Z M11.1483 3.5283 12.0358 4.0429 12.9224 3.5283V2.4999L12.0358 1.9858 11.1483 2.4999Z M18.9182 16.9712 19.82 17.4858 20.7072 16.9712V15.9426L19.82 15.4287 18.9182 15.9426Z M3.3782 16.9712 4.2654 17.4858 5.1525 16.9712V15.9426L4.2654 15.4287 3.3782 15.9426Z"/></svg>