<svg role="img" viewBox="0 0 24 24" xmlns="http://www.w3.org/2000/svg"><title>NHL</title><path d="M2.14949,14.59783c0,-2.26477 1.07071,-3.11739 1.28485,-5.27558c-0.29444,1.89175 -1.55253,3.41048 -1.55253,5.27558c0,0.7194 0.10707,1.35886 0.26768,1.94504c0.77626,2.61115 3.13182,4.04994 5.3803,4.63612c-3.45303,-0.87926 -5.3803,-3.81014 -5.3803,-6.58116zm19.94192,0c0,-1.17235 -0.32121,-2.10491 -0.66919,-2.95752c-0.42828,-1.01249 -0.88333,-1.94504 -0.88333,-3.09075c0,2.74437 1.31162,3.5437 1.31162,6.04827c0,2.77101 -1.90051,5.70189 -5.3803,6.58116c3.13182,-0.79933 5.62121,-3.09075 5.62121,-6.58116zM20.94041,3.62035c-0.72273,-0.21315 -1.23131,-0.74604 -1.55253,-1.59866l-0.69596,-1.97168l-0.34798,1.25229c0.69596,3.0641 3.21212,3.27726 3.21212,3.27726l1.01717,-0.4796l-1.63283,-0.4796zm-11.93839,11.16399l-1.31162,-2.02497l-1.47222,1.09242s0.50859,0.02664 0.50859,0.55953l0,3.81014l1.04394,-0.77269l0,-2.69108l1.17778,1.81182l1.09747,-0.82598l0,-4.7427l-1.04394,0.77269l0,3.01081zm4.22929,-4.42297l-1.17778,0.87926l0,-1.75853l-1.57929,1.17235s0.50859,0.02664 0.50859,0.55953l0,3.81014l1.07071,-0.79933l0,-1.73188l1.17778,-0.87926l0,1.75853l1.01717,-0.74604l0,-4.76934l-1.01717,0.77269l0,1.73188zm2.94444,-0.42631l0,-3.5437l-1.57929,1.17235s0.50859,0.02664 0.50859,0.55953l0,3.81014l2.94444,-2.21148c-0.05354,-0.74604 0,-1.199 0,-1.199l-1.87374,1.41215zM2.73838,8.54955c0,2.69108 -1.33838,3.22397 -1.33838,6.04827c0,0.85262 0.13384,1.6786 0.40152,2.39799c0.0803,-0.15987 0.21414,-0.34638 0.34798,-0.45295c-0.18737,-0.58618 -0.26768,-1.22564 -0.26768,-1.94504c0,-1.83846 1.25808,-3.38383 1.55253,-5.27558c0.02677,-0.2398 0.02677,-0.50624 0.02677,-0.77269c0.02677,-2.15819 -1.01717,-3.97001 -1.01717,-3.97001l-1.01717,-0.4796l0.69596,1.57202c0.34798,0.79933 0.61566,1.78517 0.61566,2.87759zM20.53889,8.54955c0,1.14571 0.45505,2.05162 0.88333,3.09075l0.56212,-0.02664c-0.34798,-0.85262 -0.69596,-1.6786 -0.69596,-3.0641c0,-1.09242 0.26768,-2.07826 0.61566,-2.87759l0.69596,-1.57202l-1.04394,0.4796s-1.01717,1.81182 -1.01717,3.97001zM11.19697,22.00496c-0.8298,-0.29309 -1.98081,-0.39967 -3.6404,-0.82598c-2.27525,-0.55953 -4.60404,-2.02497 -5.3803,-4.63612c-0.13384,0.13322 -0.26768,0.29309 -0.34798,0.45295c0.88333,2.50457 3.13182,4.2631 5.54091,4.90256c1.55253,0.39967 2.27525,0.42631 3.42626,0.74604c0.16061,0.15987 1.20455,1.30557 1.20455,1.30557l0,-1.09242s-0.69596,-0.77269 -0.80303,-0.85262zM7.74394,20.43294c1.84697,0.45295 3.05152,0.50624 3.85455,0.90591c0,0 0.29444,0.26644 0.40152,0.39967c0.10707,-0.13322 0.40152,-0.39967 0.40152,-0.39967c0.80303,-0.39967 2.00758,-0.45295 3.85455,-0.90591c2.32879,-0.58618 4.84495,-2.63779 4.84495,-5.83512c0,-2.29142 -1.31162,-3.14404 -1.31162,-6.04827c0,-1.97168 0.7495,-3.49041 0.7495,-3.49041s-1.71313,-0.34638 -2.51616,-2.50457c0,0 -1.15101,1.06577 -2.7303,1.06577c-1.98081,0 -3.29242,-1.38551 -3.29242,-1.38551s-1.31162,1.38551 -3.29242,1.38551c-1.57929,0 -2.7303,-1.06577 -2.7303,-1.06577c-0.80303,2.15819 -2.51616,2.50457 -2.51616,2.50457s0.7495,1.51873 0.7495,3.49041c0,2.90424 -1.31162,3.75686 -1.31162,6.04827c0,3.22397 2.51616,5.24894 4.84495,5.83512zm12.52727,-5.83512c0,2.71773 -2.16818,4.5029 -4.20253,5.03579c-1.47222,0.37302 -3.23889,0.55953 -3.80101,0.87926c-0.13384,0.07993 -0.26768,0.2398 -0.26768,0.2398s-0.16061,-0.15987 -0.26768,-0.2398c-0.53535,-0.29309 -2.32879,-0.50624 -3.80101,-0.87926c-0.05354,-0.02664 -0.10707,-0.02664 -0.16061,-0.05329l11.5101,-8.60613c0.40152,1.38551 0.9904,2.26477 0.9904,3.62363zm-0.8298,-9.05909c-0.24091,0.69275 -0.50859,1.78517 -0.50859,3.01081c0,0.50624 0.02677,0.98584 0.10707,1.38551l-12.3399,9.21895c-1.55253,-0.79933 -2.89091,-2.31806 -2.97121,-4.39632l14.18687,-10.60446c0.50859,0.69275 1.07071,1.11906 1.52576,1.38551zm-14.37424,3.01081c0,-1.25229 -0.26768,-2.31806 -0.50859,-3.01081c0.53535,-0.29309 1.23131,-0.82598 1.76667,-1.73188c0.58889,0.31973 1.41869,0.66611 2.38232,0.66611c1.47222,0 2.62323,-0.63946 3.29242,-1.11906c0.66919,0.4796 1.8202,1.11906 3.29242,1.11906c0.24091,0 0.45505,-0.02664 0.66919,-0.05329l-12.07222,9.0058c0.34798,-1.35886 1.17778,-2.47793 1.17778,-4.87592zM8.70758,2.8743c1.98081,0 3.29242,-1.6786 3.29242,-1.6786l0,-1.06577l-1.04394,1.01249c-0.53535,0.53289 -1.39192,0.9592 -2.24849,0.9592c-0.64242,0 -1.25808,-0.29309 -1.76667,-0.7194l-1.60606,-1.33222l0.34798,1.25229c-0.02677,0 1.49899,1.57202 3.02475,1.57202zM22.09142,14.59783c0,3.49041 -2.48939,5.78183 -5.64798,6.58116c-1.6596,0.42631 -2.81061,0.53289 -3.6404,0.82598c-0.10707,0.10658 -0.80303,0.85262 -0.80303,0.85262l0,1.09242s1.07071,-1.14571 1.20455,-1.30557c1.15101,-0.31973 1.87374,-0.34638 3.42626,-0.74604c3.13182,-0.79933 5.96919,-3.51706 5.96919,-7.30056c0,-1.35886 -0.29444,-2.18484 -0.61566,-2.98417l-0.56212,0.02664c0.34798,0.85262 0.66919,1.78517 0.66919,2.95752zM15.29242,2.8743c1.52576,0 3.05152,-1.54537 3.05152,-1.54537l0.34798,-1.27893l-1.60606,1.33222c-0.53535,0.42631 -1.12424,0.7194 -1.76667,0.7194c-0.85657,0 -1.71313,-0.42631 -2.24849,-0.9592l-1.04394,-1.01249l0,1.03913c-0.02677,0.02664 1.28485,1.70524 3.26566,1.70524zM5.65606,1.30229l-0.32121,-1.25229l-0.72273,1.97168c-0.32121,0.85262 -0.8298,1.38551 -1.55253,1.59866l-1.63283,0.4796l1.01717,0.4796s2.54293,-0.21315 3.21212,-3.27726z"/></svg>