<svg role="img" viewBox="0 0 24 24" xmlns="http://www.w3.org/2000/svg"><title>Nitrokey</title><path d="M12 1.888a.167.167 0 0 0-.065.013L3.437 5.492c-.08.034-.137.13-.137.231v7.468c0 .036.007.071.019.1.428 1.072 2.843 6.497 8.617 8.807a.172.172 0 0 0 .129 0c5.773-2.31 8.188-7.735 8.613-8.799a.303.303 0 0 0 .022-.108V5.723c0-.102-.055-.196-.134-.23l-8.502-3.592A.165.165 0 0 0 12 1.888zM12 24c-.263 0-.52-.05-.766-.148-6.49-2.597-9.19-8.662-9.666-9.851a2.128 2.128 0 0 1-.157-.81V5.723A2.13 2.13 0 0 1 2.7 3.753L11.201.161a2.06 2.06 0 0 1 1.597 0l8.5 3.592a2.122 2.122 0 0 1 1.29 1.97v7.468c0 .273-.052.544-.154.805-.478 1.194-3.179 7.26-9.668 9.856A2.057 2.057 0 0 1 12 24m4.19-12.482-.49.285a.169.169 0 0 1-.23-.061l-.412-.71a.168.168 0 0 1 .06-.23l.488-.284a.169.169 0 0 1 .23.06l.414.71c.047.08.02.184-.06.23zm-2.442-2.735a.169.169 0 0 1 .06-.23l.489-.284a.169.169 0 0 1 .23.06l.413.71c.047.08.02.184-.06.23l-.489.285a.169.169 0 0 1-.23-.061zm-2.466.517 2.495 4.322 4.938-2.85-2.495-4.323-4.938 2.85m2.556 5.287-4.925 2.843a.703.703 0 0 1-.957-.256L5.322 12.61a.703.703 0 0 1 .256-.958l4.925-2.843 3.335 5.776"/></svg>