<svg role="img" viewBox="0 0 24 24" xmlns="http://www.w3.org/2000/svg"><title>Nobelium</title><path d="m6.615 10.489 5.268-3.525 5.551 3.574c.665 0 1.33-.2 1.895-.548l4.654-2.991L11.4 1.214 0 7.663l5.235 2.51a3.63 3.63 0 0 0 1.38.315zm6.664 10.304L1.961 15.374 0 16.488l13.18 6.3L24 15.823l-1.762-.798Zm0-3.108L1.961 12.283 0 13.38l13.18 6.3L24 12.731l-1.762-.814Zm6.616-6.881a4.443 4.443 0 0 1-2.41.715h-.017l-10.72-.05a4.52 4.52 0 0 1-1.912-.432L1.496 9.44 0 10.29l13.18 6.283L24 9.624l-1.313-.598Z"/></svg>