<?xml version="1.0" standalone="no"?>
<!DOCTYPE svg PUBLIC "-//W3C//DTD SVG 20010904//EN"
 "http://www.w3.org/TR/2001/REC-SVG-20010904/DTD/svg10.dtd">
<svg version="1.0" xmlns="http://www.w3.org/2000/svg"
 width="589.000000pt" height="361.000000pt" viewBox="0 0 589.000000 361.000000"
 preserveAspectRatio="xMidYMid meet">
<metadata>
Created by potrace 1.15, written by Peter Selinger 2001-2017
</metadata>
<g transform="translate(0.000000,361.000000) scale(0.100000,-0.100000)"
fill="#000000" stroke="none">
<path d="M2743 2354 c-28 -49 -72 -129 -98 -177 l-48 -88 -18 28 c-19 28 -19
24 -19 -259 0 -270 1 -288 18 -285 32 5 222 120 228 139 3 10 -6 37 -20 61
-14 24 -26 47 -26 50 0 14 32 -7 40 -27 5 -12 9 112 9 299 0 176 -3 326 -8
334 -6 9 -23 -12 -58 -75z"/>
<path d="M1757 2038 c-151 -259 -196 -343 -190 -348 12 -11 548 -318 577 -331
14 -7 29 -10 32 -6 3 3 -22 57 -56 119 -35 62 -123 223 -197 358 -74 135 -136
246 -138 248 -2 2 -15 -16 -28 -40z"/>
</g>
</svg>
