<svg xmlns="http://www.w3.org/2000/svg" aria-labelledby="simpleicons-nodejs-icon" role="img" viewBox="0 0 24 24"><title id="simpleicons-nodejs-icon">Node.js icon</title><path d="m 8.7049167,8.0606 -2.279715,1.31586 c -0.08528,0.0492 -0.137748,0.14008 -0.137748,0.23844 v 0 2.63388 c 0,0.0984 0.05247,0.18929 0.13764,0.23856 v 0 l 2.2797151,1.31693 c 0.08523,0.0492 0.190265,0.0492 0.27555,0 v 0 l 2.2802042,-1.31693 c 0.08523,-0.0492 0.137693,-0.14015 0.137693,-0.23856 v 0 -2.63376 c 0,-0.0985 -0.05247,-0.1894 -0.137748,-0.23856 v 0 L 8.9802508,8.0606 C 8.9376608,8.0359 8.8901308,8.0237 8.8425568,8.0237 v 0 c -0.04752,0 -0.09511,0.012 -0.13764,0.0369 m 12.6998982,2.29738 c 0.01649,-0.009 0.03679,-0.009 0.05328,0 l 0.441073,0.25444 c 0.0165,0.009 0.0266,0.0272 0.0266,0.0461 v 0.50933 c 0,0.0191 -0.0101,0.0367 -0.0266,0.0461 l -0.441073,0.2545 c -0.01649,0.009 -0.03679,0.009 -0.05328,0 l -0.440752,-0.2545 c -0.01649,-0.009 -0.02664,-0.0271 -0.02664,-0.0461 v -0.50933 c 0,-0.0191 0.01013,-0.0367 0.02664,-0.0461 z m 2.457053,0.12426 c 0.0855,-0.0496 0.13813,-0.1411 0.13813,-0.24001 V 9.59911 c 0,-0.0989 -0.0526,-0.19043 -0.13823,-0.24007 L 21.577764,8.03293 c -0.08593,-0.05 -0.192002,-0.05 -0.278154,-3.8e-4 L 19.001665,9.3592 c -0.08588,0.0496 -0.138779,0.14118 -0.138779,0.24035 v 2.65313 c 0,0.0999 0.05355,0.1919 0.14019,0.24122 l 2.283675,1.30125 c 0.0842,0.0481 0.187445,0.0487 0.272188,0.001 l 1.38128,-0.76773 c 0.0438,-0.0244 0.0711,-0.0704 0.0714,-0.1204 3.3e-4,-0.0501 -0.0263,-0.0964 -0.0696,-0.12133 l -2.312537,-1.32731 c -0.04319,-0.0248 -0.06977,-0.0708 -0.06977,-0.1204 V 10.5075 c 0,-0.0496 0.02648,-0.0955 0.06949,-0.12027 l 0.719722,-0.41492 c 0.0428,-0.0248 0.09571,-0.0248 0.138562,0 l 0.720043,0.41492 c 0.043,0.0248 0.0694,0.0707 0.0694,0.12027 v 0.65419 c 0,0.0497 0.0266,0.0956 0.0696,0.12026 0.043,0.0248 0.096,0.0247 0.13894,-2.8e-4 z m -7.86787,0.93523 c 0,0.0248 -0.0132,0.0477 -0.03472,0.06 l -0.789272,0.45496 c -0.02143,0.012 -0.04785,0.012 -0.06928,0 l -0.789274,-0.45496 c -0.02153,-0.012 -0.03472,-0.0353 -0.03472,-0.06 v -0.9114 c 0,-0.0248 0.0132,-0.0477 0.03467,-0.0601 l 0.78922,-0.45583 c 0.02153,-0.012 0.04796,-0.012 0.06949,0 l 0.78922,0.45583 c 0.02143,0.012 0.03467,0.0353 0.03467,0.0601 z m 0.213268,-6.74926 c -0.04303,-0.0239 -0.09548,-0.0233 -0.137965,10e-4 -0.04237,0.0249 -0.06847,0.0705 -0.06847,0.11973 v 3.52645 c 0,0.0347 -0.01856,0.0668 -0.04851,0.0841 -0.03005,0.0173 -0.06711,0.0173 -0.09717,0 L 15.279581,8.0679 c -0.08583,-0.0495 -0.191459,-0.0495 -0.277342,5e-5 L 12.703481,9.3946 c -0.08593,0.0496 -0.138833,0.14122 -0.138833,0.2404 v 2.65384 c 0,0.0992 0.05289,0.19076 0.138725,0.24045 l 2.298704,1.32763 c 0.08593,0.0496 0.19173,0.0496 0.277666,0 l 2.299083,-1.32763 c 0.08583,-0.0497 0.13878,-0.14128 0.13878,-0.24045 V 5.67343 c 0,-0.10053 -0.05447,-0.19336 -0.14236,-0.2424 z M 5.1506237,9.56331 c 0,-0.0999 -0.05257,-0.19168 -0.13878,-0.24115 l -2.29789,-1.32243 c -0.03884,-0.0229 -0.08241,-0.0348 -0.126466,-0.0365 h -0.02376 c -0.04395,10e-4 -0.08745,0.0137 -0.126894,0.0365 L 0.13894475,9.32216 C 0.05327475,9.37166 1.75e-6,9.46343 1.75e-6,9.56331 l 0.0051,3.56091 c 0,0.0495 0.02572,0.0956 0.06928,0.11986 0.04264,0.0256 0.09537,0.0256 0.137857,0 l 1.36565895,-0.782 c 0.08637,-0.0512 0.138941,-0.14181 0.138941,-0.24082 v -1.66363 c 0,-0.0992 0.05252,-0.19096 0.138563,-0.24028 l 0.581485,-0.33491 c 0.04335,-0.0251 0.09071,-0.0373 0.139104,-0.0373 0.04736,0 0.09592,0.012 0.13802,0.0373 l 0.581322,0.33491 c 0.08604,0.0493 0.13878,0.14111 0.13878,0.24028 v 1.66363 c 0,0.0991 0.05328,0.19009 0.139105,0.24082 l 1.365279,0.782 c 0.0428,0.0256 0.09629,0.0256 0.138726,0 0.04232,-0.0243 0.06896,-0.0704 0.06896,-0.11986 z m 10.0203283,5.41083 h 0.07287 c 0.05957,0 0.07075,-0.042 0.07075,-0.0663 0,-0.0641 -0.04427,-0.0641 -0.06857,-0.0641 h -0.07503 z m -0.08855,-0.20558 h 0.161403 c 0.05528,0 0.163628,0 0.163628,0.12387 0,0.0863 -0.05528,0.10387 -0.08855,0.11493 0.06424,0.004 0.06857,0.0464 0.07736,0.106 0.0045,0.0376 0.0112,0.10174 0.02431,0.12374 h -0.09933 c -0.0024,-0.022 -0.01785,-0.14144 -0.01785,-0.148 -0.0064,-0.0265 -0.01547,-0.0397 -0.04856,-0.0397 h -0.08171 v 0.18776 h -0.09071 z m -0.193304,0.23319 c 0,0.19455 0.156954,0.35151 0.349172,0.35151 0.194552,0 0.351452,-0.16027 0.351452,-0.35151 0,-0.19444 -0.15907,-0.34917 -0.351452,-0.34917 -0.190048,0 -0.349172,0.15245 -0.349172,0.34917 m 0.767953,0.001 c 0,0.22982 -0.187933,0.4177 -0.417694,0.4177 -0.2277,0 -0.41775,-0.18565 -0.41775,-0.4177 0,-0.23648 0.194552,-0.4178 0.41775,-0.4178 0.225476,0 0.417694,0.18132 0.417694,0.4178 m -3.125271,2.62317 c -0.948453,0 -1.147128,-0.43533 -1.147128,-0.80051 0,-0.0347 0.02789,-0.0624 0.06261,-0.0624 h 0.280218 c 0.03131,0 0.0574,0.0225 0.06228,0.0531 0.04232,0.28527 0.168456,0.42925 0.74202,0.42925 0.456593,0 0.650983,-0.10333 0.650983,-0.34554 0,-0.13964 -0.05512,-0.24332 -0.764698,-0.31282 -0.59304,-0.0587 -0.959845,-0.18966 -0.959845,-0.66406 0,-0.43734 0.368594,-0.69812 0.986646,-0.69812 0.694331,0 1.037915,0.24098 1.081427,0.75802 0.0016,0.0179 -0.0047,0.0349 -0.01655,0.0483 -0.01187,0.012 -0.02843,0.02 -0.04589,0.02 h -0.281302 c -0.02913,0 -0.05491,-0.0207 -0.06081,-0.0489 -0.06749,-0.30019 -0.231607,-0.39611 -0.676861,-0.39611 -0.498532,0 -0.556475,0.17367 -0.556475,0.30383 0,0.15765 0.06836,0.20349 0.741477,0.29258 0.666066,0.088 0.98247,0.21272 0.98247,0.68087 0,0.47223 -0.393769,0.74273 -1.080559,0.74273 m -0.669496,1.72323 c -0.07921,0 -0.157984,-0.0207 -0.22732,-0.0608 L 10.911349,18.8604 c -0.108013,-0.0604 -0.05528,-0.0819 -0.01964,-0.0943 0.14415,-0.05 0.173339,-0.0616 0.3272,-0.14881 0.016,-0.009 0.03727,-0.005 0.05381,0.004 l 0.555932,0.33002 c 0.02013,0.0107 0.04856,0.0107 0.06711,0 l 2.167411,-1.25097 c 0.02019,-0.012 0.03309,-0.0347 0.03309,-0.0587 v -2.50128 c 0,-0.0245 -0.01293,-0.0473 -0.03364,-0.0597 l -2.166489,-1.24989 c -0.02003,-0.012 -0.0466,-0.012 -0.06679,0 l -2.1659463,1.25026 c -0.02105,0.012 -0.0344,0.0356 -0.0344,0.0593 v 2.50128 c 0,0.0239 0.01335,0.0467 0.03419,0.058 l 0.5937453,0.34304 c 0.322154,0.16108 0.519418,-0.0287 0.519418,-0.21924 v -2.46955 c 0,-0.0349 0.02805,-0.0624 0.06299,-0.0624 h 0.274792 c 0.0344,0 0.06283,0.0275 0.06283,0.0624 v 2.46955 c 0,0.42996 -0.234158,0.67653 -0.64176,0.67653 -0.125267,0 -0.223903,0 -0.499238,-0.13568 l -0.5683533,-0.3272 c -0.140407,-0.0812 -0.227322,-0.23292 -0.227322,-0.3954 v -2.50128 c 0,-0.16249 0.08692,-0.31424 0.227322,-0.39503 l 2.1673553,-1.25242 c 0.137152,-0.0775 0.319443,-0.0775 0.455509,0 l 2.167249,1.25242 c 0.140352,0.0812 0.227645,0.23254 0.227645,0.39503 v 2.50128 c 0,0.16248 -0.08729,0.31369 -0.227645,0.3954 l -2.167249,1.25135 c -0.06928,0.0401 -0.147894,0.0608 -0.228189,0.0608"/></svg>
