<svg role="img" viewBox="0 0 24 24" xmlns="http://www.w3.org/2000/svg"><title>Nordic Semiconductor</title><path d="m7.032 17.321 3.328 1.92-3.328 1.928V17.32zm16.967.871V5.71c0-.628-.33-1.191-.86-1.489l-4.436-2.549a1.932 1.932 0 0 0-.86-.199v6.654L7.877 2.334l-1.125-.629c-.497-.265-.96-.265-1.457-.033-.066.033-.099.066-.165.1L3.376 2.797.861 4.254c-.184.11-.332.248-.46.405l23.598 13.673c.002-.051 0-.14 0-.14zM0 5.711v12.777c0 .397.232.761.563.96l5.031 2.946c.166.1.364.133.563.133v-6.72l11.42 6.587c.033.033.067.033.1.033h.033c.33.133.596.033.894-.165l1.92-1.093 3.045-1.82c.027-.016.046-.048.071-.07L.015 5.592c-.004.04-.015.077-.015.12zm16.967-2.947L13.635 4.66l3.332 1.943V2.764z"/></svg>