<svg role="img" viewBox="0 0 24 24" xmlns="http://www.w3.org/2000/svg"><title>Notesnook</title><path d="M7.2 0A7.184 7.184 0 0 0 0 7.2v9.6C0 20.789 3.211 24 7.2 24h9.6c3.989 0 7.2-3.211 7.2-7.2V7.2C24 3.211 20.789 0 16.8 0zM6.037 3.438H12a5.963 5.963 0 0 1 5.963 5.963v5.197c0 .067 0 .134-.004.201l-2.093-.875V9.401a3.867 3.867 0 0 0-1.079-2.678 3.867 3.867 0 0 0-5.354-.212 3.866 3.866 0 0 0-1.287 2.585 4.155 4.155 0 0 0-.012.305v1.291l-2.097-.876zm0 8.238 2.097.876v2.044a3.858 3.858 0 0 0 1.32 2.907c.079.069.16.136.245.198a3.848 3.848 0 0 0 2.133.758c.026 0 .051.002.077.003h.18c.029 0 .05 0 .077-.003a3.85 3.85 0 0 0 2.132-.757c.084-.063.166-.13.245-.198a3.868 3.868 0 0 0 1.155-1.789l1.947.813a5.965 5.965 0 0 1-11.608-1.93z"/></svg>