<svg role="img" viewBox="0 0 24 24" xmlns="http://www.w3.org/2000/svg"><title>Notion Everything</title><path d="M11.926 0c-.573 0-1.138.133-1.65.39L1.709 4.693c-.47.234-.836.633-1.029 1.121a1.427 1.427 0 0 1 1.915-.632l8.573 4.376c.692.348 1.179 1.087 1.179 1.787v11.004a1.424 1.424 0 0 1-1.837 1.368 3.685 3.685 0 0 0 3.067-.108l8.565-4.304a2.132 2.132 0 0 0 1.178-1.916V6.601c0-.808-.458-1.547-1.182-1.908L13.577.389A3.697 3.697 0 0 0 11.926 0ZM3.773 10.116c-.111.034-.143.167-.212.246a2.2 2.2 0 0 0 .232.279c.084.059.175.108.271.144.008.062.012.101.012.134-.003 1.585-.003 3.17 0 4.754 0 .152-.04.18-.161.152-.292-.067-.378.039-.337.375.508.253 1.021.522 1.532.761.107.049.218.008.313-.027.04-.015.071-.11.057-.173-.082-.195-.382-.351-.415-.367-.175-.079-.218-.192-.218-.4.004-1.115.004-2.231.004-3.346 0-.073.008-.145.008-.218l.048.004.304.744A711.684 711.684 0 0 0 6.986 17.5c.27.652.5.863.988.963.068.015.132.023.204.043.149.043.197-.023.197-.217-.003-1.675-.004-3.35-.004-5.025v-.275c.567.118.609.094.52-.327-.472-.239-.95-.488-1.429-.718-.183-.086-.386.019-.359.211.039.201.429.397.484.424v3.384c-.054-.121-.089-.189-.118-.261-.601-1.459-1.201-2.919-1.799-4.379-.084-.203-.165-.37-.344-.456-.445-.213-.889-.448-1.333-.665-.073-.038-.164-.091-.222-.085l.002-.001Zm16.389.144c.026.673.042 1.01.072 1.683l-.487.245c-.145-1.014-1.116-.7-1.733-.322l-.659.333v2.11l.352-.18c.667-.337.866-.68 1.001-1.46l.397-.201v2.48l-.415.209c-.145-.782-.316-.854-1.056-.481l-.279.14V17l.64-.321c1.11-.532 1.787-1.232 1.968-2.472l.487-.245c-.023.687-.048 1.374-.072 2.059l-4.891 2.455V18l.652-.393v-4.766l-.652.261v-.476l4.675-2.366Z"/></svg>