<svg role="img" viewBox="0 0 24 24" xmlns="http://www.w3.org/2000/svg"><title>NSIS</title><path d="M.15 0 5.55 5.396 10.945 0H.15zm11.053.045L5.807 5.44h10.795L11.203.045zM22.406.15 17.01 5.55l2.11 2.11 3.286 3.286V.15zM1.594 1.744V12.54L6.99 7.143 1.594 1.744zm4.213 3.91 5.396 5.399 5.399-5.399H5.807zm11.05.045-5.396 5.397h10.795l-3.569-3.569-1.83-1.828zM7.141 7.293l-5.399 5.396H12.54L7.141 7.293zm4.32 4.018 5.396 5.396 5.399-5.396H11.46zm10.945.15-3.816 3.816-1.58 1.58 5.396 5.399V11.46zM1.742 12.904l5.399 5.397 5.396-5.397H1.742zm11.055.043-5.399 5.399h10.795l-5.396-5.399zm-11.205.108V23.85l5.396-5.399-1.58-1.58-3.816-3.816zm5.806 5.504 5.399 5.396 5.396-5.396H7.398zm11.053.045L13.055 24H23.85l-5.399-5.396z"/></svg>