<svg role="img" viewBox="0 0 24 24" xmlns="http://www.w3.org/2000/svg"><title>Nucleo icon</title><path d="M7.247 22.499c1.488.661 3.058 1.075 4.794 1.075 1.736 0 3.39-.414 4.795-1.075-1.57-1.075-3.224-2.397-4.795-3.803-1.57 1.406-3.224 2.728-4.794 3.803zm14.715-4.63A11.75 11.75 0 0 0 23.532 12c0-1.736-.413-3.39-1.074-4.795-1.736 2.563-4.216 5.456-7.027 8.267-.579.579-1.24 1.24-1.902 1.819-.248-.248-.496-.496-.826-.744a20.637 20.637 0 0 0 1.901-1.902c3.059-3.058 5.622-6.117 7.275-8.68 1.901-2.893 2.397-4.712 1.57-5.621-.082-.166-.495-.331-.909-.331-.992 0-2.645.744-4.63 2.067-1.735-.992-3.72-1.654-5.869-1.654-2.15 0-4.133.579-5.87 1.654C4.189.757 2.535.013 1.543.013 1.046.013.716.178.468.426-1.516 2.41 4.684 10.1 9.313 14.728c5.456 5.456 10.913 9.259 13.227 9.259.496 0 .827-.165 1.075-.413.827-.827.33-2.728-1.57-5.622l-.083-.083zm.578-16.781c.083 0 .248 0 .331.082.248.248.165 1.323-1.488 3.968-.661-.909-1.488-1.818-2.48-2.48 1.653-.992 2.893-1.57 3.637-1.57zM2.7 5.138C1.294 2.906.88 1.501 1.212 1.17c.082-.082.248-.082.33-.082.744 0 1.984.578 3.638 1.57a17.58 17.58 0 0 0-2.48 2.48zM22.87 22.83c-.083.082-.248.082-.33.082-.745 0-1.985-.578-3.638-1.57.91-.662 1.819-1.488 2.48-2.48 1.653 2.645 1.736 3.72 1.488 3.968zm-12.152-5.374c-.744-.661-1.488-1.323-2.15-2.067-2.728-2.728-5.373-5.786-7.027-8.266C.881 8.61.468 10.264.468 11.917c0 2.15.578 4.134 1.57 5.87l-.082.082C.054 20.763-.442 22.582.385 23.491c.248.248.661.413 1.075.413 1.818 0 5.539-2.314 9.672-5.952a3.13 3.13 0 0 1-.413-.496zm-9.177 5.456c-.082 0-.248 0-.33-.082-.248-.248-.166-1.323 1.488-3.968.661.909 1.488 1.736 2.48 2.48-1.654.992-2.894 1.57-3.638 1.57z"/></svg>