<svg role="img" viewBox="0 0 24 24" xmlns="http://www.w3.org/2000/svg"><title>NuGet icon</title><path d="M17.67026 21.63333a3.99483 3.99483 0 110-7.98967 3.99483 3.99483 0 010 7.98967M9.7016 12.47671a2.4969 2.4969 0 110-4.99379 2.4969 2.4969 0 010 4.9938m8.14466-7.79468h-6.66673a6.15574 6.15574 0 00-6.15374 6.15474v6.66672a6.15374 6.15374 0 006.15374 6.15375h6.66673A6.15374 6.15374 0 0024 17.5035v-6.66672a6.15474 6.15474 0 00-6.15374-6.15474M3.99583 2.34014a1.99792 1.99792 0 11-3.99583 0 1.99792 1.99792 0 013.99583 0"/></svg>