<svg width="512" height="512" xmlns="http://www.w3.org/2000/svg" xmlns:xlink="http://www.w3.org/1999/xlink"><defs><path id="a" d="M0 46.021V3.701h84.652v84.64H0z"/></defs><g transform="translate(0 6)" fill="none" fill-rule="evenodd"><path d="M374.425 454.857c-46.75 0-84.652-37.907-84.652-84.66 0-46.733 37.903-84.661 84.652-84.661 46.75 0 84.652 37.928 84.652 84.66 0 46.754-37.903 84.661-84.652 84.661m-168.86-194.042c-29.226 0-52.908-23.705-52.908-52.913 0-29.23 23.682-52.913 52.908-52.913 29.226 0 52.908 23.684 52.908 52.913 0 29.208-23.682 52.913-52.908 52.913M378.171 95.642H236.886c-71.996 0-130.406 58.416-130.406 130.44V367.36c0 72.046 58.41 130.42 130.406 130.42h141.285c72.039 0 130.406-58.374 130.406-130.42V226.083c0-72.025-58.367-130.441-130.406-130.441" fill="#004880"/><mask id="b" fill="#fff"><use xlink:href="#a"/></mask><path d="M84.652 46.012c0 23.387-18.962 42.33-42.326 42.33C18.941 88.342 0 69.399 0 46.012c0-23.367 18.94-42.33 42.326-42.33 23.364 0 42.326 18.963 42.326 42.33" fill="#004880" mask="url(#b)"/></g></svg>