<svg role="img" viewBox="0 0 24 24" xmlns="http://www.w3.org/2000/svg"><title>NumPy icon</title><path d="M8.605 4.103l-3.32-1.676-3.643 1.818 3.41 1.712 3.553-1.854zm1.521.767l3.48 1.758-3.61 1.813L6.58 6.726l3.545-1.855zm4.649-2.418l3.575 1.793-3.198 1.606-3.487-1.759 3.11-1.64zm-1.539-.772L10.016.066l-3.184 1.59 3.317 1.672 3.087-1.648zM10.72 15.541v4.393l3.899-1.946-.005-4.395-3.895 1.948zm3.893-3.481l-.005-4.349-3.889 1.934v4.35l3.894-1.935zm4.681-2.357V5.382l-3.332 1.656.003 4.357 3.33-1.692zm0 1.542v4.41l-3.326 1.66-.002-4.39 3.328-1.68zm-9.952-1.6l-2.626-1.32v5.707s-3.212-6.835-3.51-7.449c-.038-.079-.196-.166-.237-.187A299.85 299.85 0 0 0 .706 5.24v10.084L3.04 16.57V11.3s3.179 6.107 3.21 6.174c.033.066.352.71.693.936.454.3 2.4 1.47 2.4 1.47V9.646z"/></svg>