<svg role="img" viewBox="0 0 24 24" xmlns="http://www.w3.org/2000/svg"><title>NUnit</title><path d="M12 0C5.373 0 0 5.373 0 12s5.373 12 12 12 12-5.373 12-12S18.627 0 12 0zm9.554 17.516a1.5 1.5 0 0 1-1.447.743A10.206 10.206 0 0 1 12 22.24a10.206 10.206 0 0 1-7.242-3c-.31-.31-.6-.639-.865-.983a1.5 1.5 0 0 1-1.368-2.365A10.178 10.178 0 0 1 1.76 12a10.206 10.206 0 0 1 3-7.242 10.206 10.206 0 0 1 5.875-2.91 1.5 1.5 0 0 1 2.732 0 10.206 10.206 0 0 1 5.876 2.91 10.206 10.206 0 0 1 3 7.242c0 1.348-.259 2.657-.767 3.893a1.5 1.5 0 0 1 .08 1.623zm-2.598-1.5a1.5 1.5 0 0 1 1.438-.744A8.963 8.963 0 0 0 21.009 12c0-4.504-3.323-8.247-7.646-8.906a1.5 1.5 0 0 1-2.726 0C6.314 3.754 2.99 7.496 2.99 12c0 1.154.218 2.257.615 3.272a1.5 1.5 0 0 1 1.366 2.358 8.997 8.997 0 0 0 14.057 0 1.5 1.5 0 0 1-.073-1.614zm-2.601-.534c0 .49-.114.86-.34 1.11-.221.25-.51.376-.869.376-.364 0-.66-.128-.886-.385-.227-.257-.34-.624-.34-1.1v-4.074c0-.805-.113-1.42-.34-1.844-.221-.43-.666-.644-1.334-.644-.436 0-.832.131-1.19.394a2.206 2.206 0 0 0-.788 1.065c-.12.364-.18 1.044-.18 2.04v3.062c0 .495-.116.868-.348 1.119-.227.245-.522.367-.886.367-.352 0-.642-.128-.869-.385-.226-.257-.34-.624-.34-1.101V8.42c0-.466.102-.812.305-1.039.202-.233.48-.349.832-.349.215 0 .409.05.582.152s.31.254.412.457c.107.203.16.45.16.743v.295c.43-.567.899-.982 1.406-1.244.513-.269 1.101-.403 1.763-.403.645 0 1.22.14 1.728.42.507.281.886.678 1.137 1.191.16.299.265.62.313.967.048.346.072.788.072 1.325v4.547z"/></svg>