<svg role="img" xmlns="http://www.w3.org/2000/svg" viewBox="0 0 24 24"><title>Nushell</title><path d="M0 16.351h1.252v-5.707c.417-.625 1.206-1.311 2.13-1.311 1.177 0 1.341.641 1.341 2.25v4.768h1.252v-5.692c0-1.46-.671-2.324-2.205-2.324-.924 0-1.967.462-2.593 1.266l-.104-1.102H0v7.852Zm10.191-7.852H8.94v5.706c0 1.461.745 2.31 2.265 2.31.923 0 1.892-.432 2.518-1.222l.104 1.058H14.9V8.499h-1.252v5.781c-.432.67-1.266 1.252-2.131 1.252-.908 0-1.326-.447-1.326-1.461V8.499Zm8.121-.999-.611.954 5.259 3.233-5.259 3.249.67.923 5.662-3.531v-1.281L18.312 7.5Z"/></svg>