<svg role="img" xmlns="http://www.w3.org/2000/svg" viewBox="0 0 24 24"><title>Nutanix icon</title><path d="M.477 3.606c-.271 0-.507.106-.474.4a.92.92 0 00.326.488c2.688 2.34 5.376 4.682 8.064 7.025.5.423.5.521 0 .96-.612.535-1.224 1.063-1.839 1.595-2.088 1.82-4.18 3.634-6.254 5.466-.148.13-.181.39-.264.593a1.835 1.835 0 00.568.228H2.8c.764 0 1.527.022 2.291 0a.93.93 0 00.554-.191c2.97-2.575 5.937-5.155 8.9-7.74.398-.34.394-.528 0-.89-2.951-2.572-5.907-5.14-8.868-7.702a.865.865 0 00-.517-.232zm20.698.012c-.74-.002-1.48-.002-2.221.007a1.086 1.086 0 00-.64.239c-1.499 1.281-2.983 2.58-4.47 3.876a.46.46 0 000 .796 414.8 414.8 0 012.233 1.944.478.478 0 00.713.018 2374.32 2374.32 0 006.975-6.088A1.524 1.524 0 0024 4.08c-.05-.455-.318-.455-.604-.455-.74 0-1.48-.005-2.22-.007zm-4.728 9.758a.565.565 0 00-.446.206c-.684.608-1.386 1.201-2.08 1.81-.417.365-.42.557 0 .92 1.317 1.15 2.652 2.279 3.944 3.459a2.005 2.005 0 001.657.612 16.146 16.146 0 011.622 0c.75 0 1.498.014 2.244-.018a1.81 1.81 0 00.568-.224c-.083-.2-.108-.468-.256-.594-2.266-1.984-4.554-3.975-6.827-5.965a.565.565 0 00-.426-.206Z"/></svg>
