<svg role="img" viewBox="0 0 24 24" xmlns="http://www.w3.org/2000/svg"><title>Nutanix icon</title><path d="M.3942 3.6174a.395.395 0 00-.393.395c0 .12.054.225.139.297l8.5066 7.4036a.39.39 0 01-.013.588L.1142 19.7126a.393.393 0 00.28.67h4.8597c.103 0 .195-.04.265-.104l9.1696-7.9796a.396.396 0 00.001-.596L5.5189 3.7214a.386.386 0 00-.264-.104zm18.358 0a.389.389 0 00-.273.113l-4.7167 4.1058a.392.392 0 00-.04.564l2.4279 2.1139a.393.393 0 00.291.129.394.394 0 00.278-.118l7.1266-6.2027a.389.389 0 00.154-.31.395.395 0 00-.393-.395zm-2.3098 9.7415c-.116 0-.22.05-.292.13l-2.4269 2.113a.392.392 0 00.039.5639l4.7168 4.1038c.07.07.166.113.273.113h4.8547a.393.393 0 00.239-.705l-7.1267-6.2027a.393.393 0 00-.278-.116z"/></svg>