<svg role="img" viewBox="0 0 24 24" xmlns="http://www.w3.org/2000/svg"><title>Nuxt.js</title><path d="M13.464 20.286h8.922a1.603 1.603 0 0 0 1.398-.815 1.64 1.64 0 0 0 0-1.628l-5.992-10.47a1.603 1.603 0 0 0-2.795 0l-1.533 2.68-2.995-5.239A1.621 1.621 0 0 0 9.07 4a1.604 1.604 0 0 0-1.398.814L.217 17.843a1.64 1.64 0 0 0 .59 2.224c.245.143.524.219.807.219h5.6c2.22 0 3.856-.984 4.982-2.902l2.733-4.776 1.464-2.556 4.395 7.678h-5.859l-1.465 2.556Zm-6.341-2.559H3.215L9.073 7.49l2.923 5.118-1.957 3.421c-.747 1.245-1.597 1.698-2.916 1.698Z"/></svg>
