<svg role="img" viewBox="0 0 24 24" xmlns="http://www.w3.org/2000/svg"><title>Nuxt.js</title><path d="M13.3759 19.5563H22.2392C22.5207 19.5563 22.7973 19.4845 23.0411 19.3479C23.2849 19.2114 23.4873 19.015 23.628 18.7785C23.7687 18.542 23.8427 18.2737 23.8426 18.0006C23.8425 17.7275 23.7683 17.4593 23.6273 17.2229L17.675 7.22245C17.5343 6.98599 17.3319 6.78963 17.0882 6.65311C16.8444 6.51658 16.5679 6.44471 16.2864 6.44471C16.005 6.44471 15.7285 6.51658 15.4847 6.65311C15.241 6.78963 15.0386 6.98599 14.8979 7.22245L13.3759 9.78121L10.4002 4.77763C10.2594 4.54119 10.0569 4.34486 9.81309 4.20836C9.56927 4.07186 9.29272 4 9.01121 4C8.7297 4 8.45315 4.07186 8.20934 4.20836C7.96552 4.34486 7.76306 4.54119 7.62224 4.77763L0.215286 17.2229C0.0743736 17.4593 0.00012264 17.7275 1.51792e-07 18.0006C-0.000122336 18.2737 0.0738881 18.542 0.214588 18.7785C0.355287 19.015 0.557713 19.2114 0.801509 19.3479C1.0453 19.4845 1.32187 19.5563 1.60339 19.5563H7.16703C9.37141 19.5563 10.9971 18.6171 12.1157 16.7847L14.8314 12.2227L16.286 9.78121L20.6516 17.1148H14.8314L13.3759 19.5563ZM7.07634 17.1123L3.19362 17.1115L9.01381 7.33388L11.9178 12.2227L9.97346 15.4903C9.2306 16.6792 8.3867 17.1123 7.07634 17.1123Z"/></svg>
