<svg role="img" viewBox="0 0 24 24" xmlns="http://www.w3.org/2000/svg"><title>nvm</title><path d="m7.1789 8.0024-.1986.004.104.1715.1986-.004zm-1.2177.0847-.1625.0036.0851.1405.1626-.0036zm.711.3967-.281.0058.1712.2824.281-.0059zm.843.2485-.3525.0077.1846.3053.353-.0077zm8.7284.0803c-.076-.0007-.152.0215-.231.067q-1.3417.7728-2.6863 1.541.0528-.0893.1055-.1789c.0693-.1576.027-.2241-.1445-.2241-.6025-.0005-1.205.0008-1.8076-.0014-.0887-.0005-.145.0315-.189.109-.2027.357-.409.712-.6152 1.0672h-.0004c-.2737.4719-.851 1.4258-.9035 1.5134h.0001l-1.034 1.8846.0009-.0025-.0012.0025c.2107.3336.466.7128.6786 1.046-.1306-.2098.114.1486.1918.231.1621.172.2995.1743.4607.0023.0635-.068.1193-.144.1738-.2197.2508-.3499.4688-.7205.6872-1.0907.4539-.769.8956-1.5454 1.3432-2.3182.2004-.3458.4035-.6899.6057-1.0348.0102-.0194.0211-.0383.0314-.0576.0031 1.4098.0034 2.82.006 4.2297.0005.25.1185.318.3337.1954.543-.3089 1.0839-.6227 1.6288-.9289.171-.0964.2467-.227.2445-.4256-.0072-.6543.0018-1.3081-.0055-1.9624-.0027-.2247.0824-.376.2814-.4795.2022-.105.399-.2212.593-.34.1671-.1023.3248-.1063.4932-.0027.194.1193.3904.236.593.3395.2072.1063.2895.2653.2873.495-.0068.6425.004 1.285-.0058 1.9272-.0036.2202.0806.3593.2702.4647.521.2896 1.0361.589 1.5535.8844.2833.1617.3823.1054.3832-.218.0027-1.0572.0072-2.1142.004-3.1715-.0004-.1612.0613-.266.1941-.3422.2283-.1306.4562-.2612.6836-.3936.1513-.0882.2972-.0832.4471.0063.2004.1194.4008.241.6084.3477.2075.1067.2891.2657.2869.4953-.0069.6426.004 1.2852-.006 1.9273-.0036.2206.0815.3598.2707.4647.526.2923 1.0465.5944 1.5693.892.2616.1491.366.0906.3665-.2089.001-.73 0-1.4603 0-2.1903h.0072c0-.73-.003-1.4603.0018-2.1902.0014-.2085-.0766-.3509-.2608-.4553a313 313 0 0 1-2.7963-1.6053c-.1946-.113-.3638-.1113-.5566.0022-.5989.3526-1.2055.6921-1.8058 1.043-.0932.054-.1589.0544-.2526 0-.616-.359-1.2365-.7093-1.8534-1.0664-.0788-.0457-.1548-.0691-.2309-.0697zm-12.9129.0017c-.0803.0008-.1604.0264-.2455.0757a334 334 0 0 1-2.8117 1.6134c-.1968.1117-.276.259-.2734.4828.0081.7182.0032 1.4364.0032 2.1547h.0045c0 .7358-.001 1.4715 0 2.2073.0004.2918.113.354.3701.2072.5224-.2986 1.0415-.6016 1.568-.8934.1909-.1059.2733-.2445.2701-.4642-.009-.6539-.0013-1.3082-.0045-1.962-.0009-.1928.0649-.3364.2396-.4319.2256-.1233.4471-.2536.6687-.3837.145-.0851.286-.0837.4305.0014.2067.1211.4111.2468.624.3558.209.1071.286.2683.2838.4966-.0068.648.0023 1.2964-.0049 1.9444-.0023.2063.0792.3368.2571.436.5305.2958 1.056.6011 1.5833.9024.2553.1459.3647.0824.3651-.2144.003-1.3659.0037-2.732.0081-4.0978l2.09 3.2855.7118-2.2514-.2012-.3451-.0797-.1373-.1828-.314-.756.1023-.077-.14-.2338-.4008-.258.0032.0706.1215-.6574.0036-.144-.248-.2837.002c-.0086-.1884-.0896-.3182-.2622-.4163a358 358 0 0 1-2.8265-1.623c-.0856-.0495-.166-.0734-.2462-.0725m2.8373.0685-.237.0049.1442.2378.2368-.005zm.5498.4138-.2495.0055.1306.2156.2495-.0054zm.7551.0396-.3656.0077.191.3157.2502-.005.1897.313.5196-.0108-.3166-.5223-.4034.0085zm-1.3612.0797-.199.004.104.1716.1985-.004zm.6016.459-.2882.0057.1756.29.103-.0022.1636.2702.4724-.01-.2878-.4745-.2868.0058zm1.925.643-.6448.014.1279.2107.1972-.004.1188.1954.4473-.0095z"/></svg>