<svg role="img" viewBox="0 0 24 24" xmlns="http://www.w3.org/2000/svg"><title>Nx icon</title><path d="M0 4.545v14.91h3.65l.012-8.822 5.192 8.428 3.132-4.924-3.045-4.758-.004 3.998-5.246-8.832H0zm8.947 0l-.006 3.79.002.042h3.645l.01-.041V4.545h-3.65zm-.004 4.168l3.463 5.424-3.379 5.318h3.54l1.54-2.365 1.567 2.365h3.54l-3.21-5.05a.701.701 0 01-.084-.321 2.688 2.688 0 012.69-2.691c1.487 0 1.737.89 2.058 1.308.634.826 1.898.464 1.898 1.541a.708.708 0 001.414-.021v-.01h.002v-.012c-.01-2.957-2.412-5.486-5.37-5.486a5.364 5.364 0 00-4.487 2.418l-.018-.033-1.52-2.385H8.944zm9.668 2.95a2.48 2.48 0 00-2.293 1.536 2.326 2.326 0 014.002.387.748.748 0 00.836.334c.493-.106.46.362 1.203.52l-.002-.135c0-.447-.241-.55-.746-.733-.374-.13-.8-.278-1.109-.681a3.554 3.554 0 01-.176-.264 2.133 2.133 0 00-.533-.643c-.294-.216-.68-.322-1.182-.322zm-.388.849a2.06 2.06 0 00-1.97 1.336 1.962 1.962 0 012.343-.739c.396.162.917.421 1.33.282a2.095 2.095 0 00-1.703-.88zm5.763 2.459c-.173.372-.558.339-.754.64-.176.27.114.412.114.412s.335.155.537-.312c.103-.232.14-.489.103-.74z"/></svg>