<svg role="img" viewBox="0 0 24 24" xmlns="http://www.w3.org/2000/svg"><title>Obtainium</title><path d="M16.8513.9703c-.2694.0043-.7714.1704-2.7527.8984-.6676.2453-1.291.4788-1.7573.6577a39 39 0 0 0-.568.2222 8 8 0 0 0-.1696.0703c-.0423.0182-.0678.0294-.0832.0395-.201.1318-.2842.3626-.2174.6004.026.0922.1432.4289.3079.8911.1646.4622.3759 1.0472.5873 1.628s.423 1.1574.5882 1.6014c.0827.222.154.4103.2077.5502s.0886.2285.1042.2593c.05.0989.0975.176.168.2263.0705.0502.1615.0697.2877.0597.2523-.0198.656-.1542 1.3945-.4152.7452-.2635 1.1127-.3932 1.3097-.4404.0984-.0235.1523-.026.189-.017s.0618.03.1026.063c.0583.0473.0822.0725.0897.11.0075.0374-.003.097-.0307.206-.0308.1213-.1979.5818-.4306 1.1966a193 193 0 0 1-.8314 2.149 176 176 0 0 1-.8306 2.0781 41 41 0 0 1-.2892.6932 7 7 0 0 1-.0905.2036 1.3 1.3 0 0 1-.029.0582c-.0077.0142-.015.0239-.0138.0226-.0326.0352-.0572.0664-.0808.0889s-.0445.0367-.076.0428c-.063.0122-.1756-.0127-.4007-.1139-.4503-.2024-1.3478-.7017-3.2455-1.7484a148 148 0 0 1-1.7815-.9978 43 43 0 0 1-.572-.3305 8 8 0 0 1-.169-.1026 1 1 0 0 1-.0726-.0484c-.0862-.0797-.1168-.1643-.1035-.244.0134-.0798.0734-.1597.185-.2247.044-.0255.2173-.0992.4509-.1914.2336-.0923.5305-.2053.8346-.316.3045-.1107.6-.2225.8298-.3126.1148-.045.2128-.0845.2884-.1164s.1269-.055.1527-.0703c.0844-.0498.1504-.1003.1915-.1712.041-.071.0552-.1591.0436-.278-.0231-.2376-.1472-.6047-.3846-1.2474A603 603 0 0 1 9.348 5.918a71 71 0 0 0-.3571-.9622c-.1038-.2723-.1832-.4726-.2157-.5414-.0666-.1405-.1577-.244-.2667-.3038s-.2346-.0747-.3676-.042c-.0344.0085-.1298.0404-.2787.0921s-.3486.1224-.5825.206a293 293 0 0 0-1.6741.606c-.602.2199-1.202.4412-1.6636.6133-.2307.086-.427.1596-.5712.2149-.072.0276-.1312.0502-.1753.0678a1.2 1.2 0 0 0-.0864.0372c-.2064.1067-.4093.3536-.5365.644-.0295.0671-.192.4817-.4339 1.1044A848 848 0 0 0 1.237 9.986c-.4328 1.1242-.7421 1.943-.9428 2.5014-.1004.2792-.1738.4933-.2222.648S0 13.3816 0 13.4327c0 .1577.041.2792.1964.4161s.4233.2953.8863.5502c.4073.2242 2.6265 1.4547 4.9317 2.7341 8.284 4.5978 10.051 5.5775 10.3554 5.7388l.0429.0219v-.0065c.1599.0813.291.1372.3975.1421.118.0056.216-.0397.3159-.1276.0129-.0114.0215-.0265.0347-.0493a1.4 1.4 0 0 0 .0485-.0921c.0379-.078.0882-.1906.1535-.3442.1307-.3072.3207-.7775.589-1.4567.5366-1.3584 1.3845-3.5517 2.6872-6.9435.9237-2.405 1.7633-4.6103 2.3722-6.2252.3044-.8075.5508-1.4672.7215-1.931.0853-.232.152-.415.197-.543a6 6 0 0 0 .051-.1502c.0058-.018.0106-.0318.0137-.0428S24 5.1092 24 5.0964c0-.1232-.0607-.2484-.1729-.3709-.1122-.1224-.2766-.244-.4896-.362-3.048-1.6863-4.5827-2.5347-5.398-2.9618-.4075-.2135-.635-.3214-.7836-.3765-.1487-.055-.2212-.0562-.3046-.055"/></svg>