<svg role="img" viewBox="0 0 24 24" xmlns="http://www.w3.org/2000/svg"><title>OCaml icon</title><path d="M12.186 21.63c-.085-.169-.186-.523-.254-.675-.067-.135-.27-.506-.37-.625-.22-.253-.27-.27-.338-.607-.119-.574-.405-1.587-.76-2.295-.186-.372-.49-.676-.76-.946-.236-.236-.776-.624-.877-.607-.895.169-1.165 1.046-1.586 1.738-.237.388-.473.709-.659 1.114-.168.371-.152.793-.439 1.114a2.95 2.95 0 0 0-.624 1.097c-.034.084-.101.928-.186 1.13l1.317-.084c1.232.085.877.557 2.785.456l3.02-.101a5.372 5.372 0 0 0-.27-.709zm8.776-20.084H3.038a3.018 3.018 0 0 0-3.021 3.02v6.583c.439-.152 1.046-1.08 1.249-1.3.337-.388.405-.894.574-1.198.388-.709.455-1.215 1.333-1.215.405 0 .574.101.844.473.186.253.523.742.675 1.063.186.371.473.86.608.962.1.067.185.135.27.169.135.05.253-.051.354-.119.118-.1.169-.286.287-.556.169-.389.338-.827.439-.996.169-.27.236-.608.422-.76.27-.236.641-.253.742-.27.557-.118.81.27 1.08.507.186.168.422.489.608.91.135.338.304.66.388.845.068.185.237.49.338.86.101.321.337.574.439.743 0 0 .152.405 1.03.777a7.5 7.5 0 0 0 .81.286c.388.135.759.119 1.231.068.338 0 .524-.49.676-.878.084-.236.185-.894.236-1.08.05-.185-.085-.32.034-.49.135-.185.219-.202.286-.438.17-.523 1.114-.54 1.654-.54.456 0 .389.439 1.148.287.439-.085.86.05 1.317.185.388.102.76.22.979.473.135.169.489.996.135 1.03.033.033.067.118.118.151-.085.321-.422.085-.625.051-.253-.05-.439 0-.692.118-.439.186-1.063.169-1.451.49-.32.27-.32.86-.473 1.198 0 0-.422 1.063-1.316 1.721-.237.17-.692.574-1.671.726-.439.068-.86.068-1.317.05-.219-.016-.438-.016-.658-.016-.135 0-.574-.017-.557.034l-.05.118a.6.6 0 0 0 .033.169c.017.1.017.185.034.27 0 .185-.017.388 0 .574.017.388.169.742.186 1.147.017.439.236.912.455 1.266.085.135.203.152.254.32.067.186 0 .406.033.608.118.794.355 1.637.71 2.363v.017c.438-.067.894-.236 1.468-.32 1.063-.153 2.531-.085 3.476-.17 2.397-.219 3.697.98 5.84.49V4.567a3.043 3.043 0 0 0-3.038-3.021zm-8.945 14.177c0-.034 0-.034 0 0zM5.553 18.49c.169-.371.27-.777.405-1.148.135-.354.337-.86.692-1.046-.05-.05-.743-.068-.928-.085-.203-.017-.406-.05-.608-.084a22.96 22.96 0 0 1-1.148-.236c-.22-.051-.979-.321-1.13-.389-.389-.168-.642-.658-.929-.607-.185.034-.371.101-.49.287-.1.152-.134.422-.202.607-.084.203-.22.405-.32.608-.237.354-.625.675-.794 1.03-.033.084-.05.168-.084.253v4.067c.202.034.405.068.624.135 1.688.456 2.093.49 3.747.304l.152-.017c.118-.27.22-1.164.304-1.434.067-.22.152-.389.186-.591.033-.203 0-.405-.017-.59-.034-.49.354-.66.54-1.064z"/></svg>