<svg role="img" viewBox="0 0 24 24" xmlns="http://www.w3.org/2000/svg"><title>Octane Render</title><path d="M11.8 0C8.3 3.9 7 6 6.7 9.1c-1.3-.7-2.4-2.2-3-3.7l-2.2.9c1.6 4.9 2.8 7.1 5.4 8.9-1.3.7-3.1.9-4.7.7l-.4 2.4c5.1 1.1 7.6 1.1 10.5-.2v.1c0 1.5-.8 3.1-1.8 4.4l1.9 1.5c3.5-3.9 4.8-6 5.1-9.1 1.3.7 2.3 2.2 2.9 3.7l2.2-.9c-1.6-4.9-2.8-7.1-5.4-8.9 1.3-.9 3.1-1 4.7-.8l.4-2.4c-5.1-1.1-7.6-1.1-10.4.2v-.1c0-1.5.8-3.1 1.8-4.4L11.8 0zm.1 8.8c1.8-.1 3.2 1.3 3.3 3.1S13.8 15 12 15.1 8.9 13.8 8.8 12c0-1.7 1.4-3.1 3.1-3.2z"/></svg>