<svg role="img" viewBox="0 0 24 24" xmlns="http://www.w3.org/2000/svg"><title>October CMS</title><path d="M21.071 11.496C20.691 5.365 13.921.06 11.131 0c-2.79-.059-8.004 6.435-8.215 13.032C2.718 19.22 8.07 23.461 10.375 24c.064-2.91.3-13.627.34-14.877.083-2.554.21-6.526.642-6.659.248-.076.586 2.158.545 3.478a107.83 107.83 0 0 0-.012 2.225c.467-.468.954-.953 1.25-1.241.812-.787 1.171-.693.782.009-.24.432-1.271 1.868-2.03 2.908.004 2.1.014 4.74.024 7.203 1.071-1.236 2.382-2.72 3.07-3.379 1.445-1.38 1.6-1.206.917.244-.419.888-2.468 3.258-3.98 5.127.01 2.184.017 4.02.019 4.897 4.056-.88 9.502-6.419 9.13-12.439"/></svg>