<svg role="img" viewBox="0 0 24 24" xmlns="http://www.w3.org/2000/svg"><title>Odigos</title><path d="M1.87327,2.34522C0.98925,2.38322,0.10923,2.95624,0.02722,3.90326C0.00622,9.11838,0.02422,14.3355,0.01922,19.55162c-0.149,0.99502,0.58501,2.01705,1.61804,2.07605c2.62606,0.02,5.25212,0.003,7.87818,0.009v-3.90309C7.94241,16.69156,6.33337,15.99655,4.74533,15.29853C3.67831,14.76552,2.44528,14.48451,1.58526,13.61549C0.27523,12.27346,0.76324,9.8154,2.45528,9.02939C4.79933,7.97136,7.16139,6.94434,9.51344,5.89931V2.36222H2.25128a2.00005,2.00005,0,0,0-0.37801-0.018M18.42365,2.36222c-1.31303,0.001-2.62606,0.004-3.94009,0.001V6.26831c1.57404,0.70002,3.18307,1.39503,4.77011,2.09305c1.06803,0.53301,2.30205,0.81402,3.16007,1.68304c1.31003,1.34203,0.82202,3.80009-0.86802,4.5861c-2.34705,1.05803-4.70911,2.08505-7.06116,3.13007v3.87809h7.26317c0.99502,0.137,2.13005-0.45801,2.22305-1.54004c0.022-5.21512,0.004-10.43224,0.01-15.64836C24.12978,3.45525,23.39576,2.43323,22.36274,2.37422q-1.97005-0.013-3.93909-0.01M12.0295,8.00835a3.50008,3.50008,0,0,0-0.83402,0.093C8.95543,8.49537,7.4544,11.03542,8.19441,13.18747c0.48701,1.63304,2.09705,2.82307,3.80309,2.79807c2.27905,0.07,4.2631-2.13005,3.96209-4.3901c-0.145-1.98605-1.98705-3.57308-3.93009-3.58708"/></svg>