<svg role="img" viewBox="0 0 24 24" xmlns="http://www.w3.org/2000/svg"><title>Odnoklassniki icon</title><path d="M14.5249 17.44073a11.59901 11.59901 0 003.60014-1.49006c.83404-.55803 1.05805-1.68608.50003-2.52011-.53603-.80203-1.60407-1.04404-2.4351-.55302-2.55011 1.59506-5.79025 1.59506-8.34035 0-.84704-.53403-1.96509-.28001-2.5001.56502 0 .002 0 .004-.002.005-.53403.84704-.28002 1.96608.56702 2.5001l.002.002c1.10504.69503 2.3221 1.20005 3.59615 1.48807l-3.46515 3.46514c-.70703.69503-.72003 1.83008-.028 2.5371l.03.03C6.39356 23.824 6.85957 24 7.3236 24c.46502 0 .93004-.176 1.27506-.53002l3.42114-3.40414 3.40414 3.40614c.72003.69503 1.87008.67603 2.5661-.045.67804-.70303.67804-1.81808 0-2.5201zm-2.50511-5.05221c3.42014-.004 6.19026-2.77412 6.19526-6.19326C18.21505 2.78012 15.43493 0 12.01979 0S5.82453 2.78012 5.82453 6.19726c.005 3.42014 2.77612 6.19026 6.19526 6.19226zm0-8.75737c1.41606.002 2.5631 1.15005 2.5641 2.5651 0 1.41607-1.14804 2.56311-2.5641 2.56512-1.41506-.002-2.5621-1.14805-2.5651-2.56411.002-1.41706 1.15004-2.5641 2.5651-2.5671z"/></svg>