<svg role="img" viewBox="0 0 24 24" xmlns="http://www.w3.org/2000/svg"><title>Odoo</title><path d="M21.1 10a2.9 2.9 0 1 0 2.9 2.9 2.88 2.88 0 0 0-2.86-2.9Zm0 4.61a1.71 1.71 0 1 1 1.71-1.71 1.72 1.72 0 0 1-1.71 1.72ZM15 10a2.9 2.9 0 1 0 2.9 2.9A2.88 2.88 0 0 0 15 10Zm0 4.61a1.71 1.71 0 1 1 1.71-1.71A1.72 1.72 0 0 1 15 14.64Zm-3.76-6.42a.58.58 0 0 0-.57.57v1.85a2.89 2.89 0 1 0 .57 4.05 2.93 2.93 0 0 0 .58-1.74V8.77a.58.58 0 0 0-.58-.58Zm-2.33 6.45a1.71 1.71 0 1 1 1.71-1.71 1.73 1.73 0 0 1-1.71 1.71Zm-6-4.64a2.9 2.9 0 1 0 2.89 2.92A2.89 2.89 0 0 0 2.93 10Zm0 4.61a1.71 1.71 0 1 1 1.71-1.71A1.71 1.71 0 0 1 3 14.64h-.12Z"/></svg>