<svg role="img" viewBox="0 0 24 24" xmlns="http://www.w3.org/2000/svg"><title>Odoo</title><path d="M11.224 8.184a.576.576 0 0 0-.576.576v1.845a2.896 2.896 0 1 0 1.152 2.312V8.76a.576.576 0 0 0-.576-.576zm-2.323 6.443a1.708 1.708 0 1 1 .016-3.418 1.708 1.708 0 1 1-.016 3.418zm6.062-4.608a2.898 2.898 0 0 0-.008 5.795l.003.003a2.898 2.898 0 1 0 .005-5.798zm-.006 4.608a1.71 1.71 0 1 1 .005-3.42 1.71 1.71 0 0 1-.005 3.42zM2.899 10.013a2.9 2.9 0 1 0 0 5.798 2.9 2.9 0 0 0 0-5.798zm-.027 4.619a1.71 1.71 0 0 1-1.709-1.699v-.011a1.709 1.709 0 1 1 1.709 1.71zm18.232-4.613a2.898 2.898 0 1 0-.006 5.796 2.898 2.898 0 0 0 .006-5.796zm-.005 4.608a1.71 1.71 0 1 1 .005-3.42 1.71 1.71 0 0 1-.005 3.42z"/></svg>