<svg role="img" viewBox="0 0 24 24" xmlns="http://www.w3.org/2000/svg"><title>Odoo</title><path d="M21.1 1.82a2.9 2.9 0 1 0 2.9 2.9 2.89 2.89 0 0 0-2.9-2.9Zm0 4.61a1.71 1.71 0 1 1 1.71-1.71 1.71 1.71 0 0 1-1.71 1.73ZM15 1.82a2.9 2.9 0 1 0 2.9 2.9 2.89 2.89 0 0 0-2.9-2.9Zm0 4.61a1.71 1.71 0 1 1 1.71-1.71A1.72 1.72 0 0 1 15 6.45ZM11.23 0a.57.57 0 0 0-.57.58v1.85a2.9 2.9 0 1 0 1.15 2.31V.58a.58.58 0 0 0-.58-.58ZM8.9 6.45a1.71 1.71 0 1 1 1.71-1.71A1.72 1.72 0 0 1 8.9 6.45Zm-6-4.63a2.9 2.9 0 1 0 2.89 2.89A2.89 2.89 0 0 0 2.9 1.82Zm0 4.61a1.71 1.71 0 1 1 1.71-1.71 1.7 1.7 0 0 1-1.74 1.73Z"/></svg>