<svg id="Calque_1" data-name="Calque 1" xmlns="http://www.w3.org/2000/svg" viewBox="0 0 24 24"><title>odoo</title><path d="M21.1,10A2.9,2.9,0,1,0,24,12.9h0A2.88,2.88,0,0,0,21.12,10h0Zm0,4.61a1.71,1.71,0,1,1,1.71-1.71,1.72,1.72,0,0,1-1.71,1.71ZM15,10a2.9,2.9,0,1,0,2.9,2.9h0A2.88,2.88,0,0,0,15,10Zm0,4.61a1.71,1.71,0,1,1,1.71-1.71h0A1.72,1.72,0,0,1,15,14.63h0ZM11.24,8.18a.57.57,0,0,0-.57.57h0V10.6a2.89,2.89,0,1,0,.57,4.05,2.93,2.93,0,0,0,.58-1.74V8.76A.58.58,0,0,0,11.24,8.18ZM8.91,14.63a1.71,1.71,0,1,1,1.71-1.71h0A1.73,1.73,0,0,1,8.91,14.63ZM2.91,10A2.9,2.9,0,1,0,5.8,12.91h0A2.89,2.89,0,0,0,2.93,10Zm0,4.61A1.71,1.71,0,1,1,4.62,12.9h0A1.71,1.71,0,0,1,3,14.63H2.88Z"/></svg>