<svg role="img" viewBox="0 0 24 24" xmlns="http://www.w3.org/2000/svg"><title>Okta</title><path d="m13.202.17-.492 6.08a5.9 5.9 0 0 0-1.591.023l-.28-2.948a.157.157 0 0 1 .157-.172h.503L11.256.17a.157.157 0 0 1 .156-.17h1.632c.091 0 .163.079.156.17zM9.084.472a.157.157 0 0 0-.206-.106L7.344.925a.157.157 0 0 0-.089.214l1.248 2.72-.474.17a.16.16 0 0 0-.089.217L9.21 6.92c.461-.254.96-.445 1.488-.566zM5.318 2.165l3.53 4.973A5.8 5.8 0 0 0 7.645 8.18L5.534 6.1a.16.16 0 0 1 .009-.233l.386-.323-2.101-2.128a.157.157 0 0 1 .01-.231l1.25-1.05a.16.16 0 0 1 .23.03m-2.96 2.88a.16.16 0 0 0-.227.05l-.816 1.414a.157.157 0 0 0 .07.22l2.703 1.282-.253.436a.157.157 0 0 0 .07.222L6.6 9.899c.195-.5.456-.967.774-1.389zM.365 8.885a.157.157 0 0 1 .194-.125l5.9 1.541a5.8 5.8 0 0 0-.25 1.571l-2.954-.236a.157.157 0 0 1-.142-.185l.088-.495-2.978-.28a.16.16 0 0 1-.14-.184zm-.223 3.985a.16.16 0 0 0-.14.184l.283 1.608c.016.09.106.148.194.125l2.895-.757.086.496c.017.091.108.149.197.124l2.855-.789a5.7 5.7 0 0 1-.3-1.563zm.944 4.224a.157.157 0 0 1 .068-.22l5.508-2.613c.21.495.487.953.82 1.365l-2.415 1.717a.157.157 0 0 1-.227-.05l-.251-.436-2.46 1.701a.157.157 0 0 1-.227-.05zM7.76 15.95l-4.284 4.34a.157.157 0 0 0 .01.23l1.251 1.05c.07.06.177.045.23-.03l1.73-2.44.386.325c.07.06.178.045.23-.032l1.68-2.437A6 6 0 0 1 7.76 15.95m-.846 6.968a.157.157 0 0 1-.088-.214l2.54-5.544c.469.239.973.417 1.504.522l-.746 2.866a.157.157 0 0 1-.205.108l-.473-.173-.793 2.885a.157.157 0 0 1-.206.106l-1.534-.558zm4.377-5.168-.492 6.08a.16.16 0 0 0 .156.17h1.632a.157.157 0 0 0 .156-.17l-.243-2.982h.503a.157.157 0 0 0 .158-.172l-.28-2.947a6 6 0 0 1-1.59.022zm5.884-16.455a.16.16 0 0 0-.088-.214L15.553.523a.16.16 0 0 0-.206.106l-.793 2.885-.473-.173a.157.157 0 0 0-.205.108l-.745 2.866c.53.105 1.034.283 1.502.522l2.542-5.543m3.35 2.416-4.285 4.34a5.8 5.8 0 0 0-1.234-1.007l1.68-2.437a.157.157 0 0 1 .231-.03l.385.324 1.73-2.44a.16.16 0 0 1 .23-.03l1.251 1.05c.07.059.076.166.011.23m2.32 3.416a.156.156 0 0 0 .069-.221l-.817-1.414a.157.157 0 0 0-.226-.05l-2.46 1.7-.252-.436a.156.156 0 0 0-.227-.05l-2.414 1.718c.332.413.609.87.819 1.365zm.87 2.212.283 1.608a.157.157 0 0 1-.14.184l-6.071.57a5.7 5.7 0 0 0-.3-1.563l2.855-.788a.157.157 0 0 1 .197.124l.085.495 2.895-.756a.157.157 0 0 1 .194.125zm-.275 5.9a.157.157 0 0 0 .194-.124l.283-1.608a.16.16 0 0 0-.14-.184l-2.978-.28.088-.495a.16.16 0 0 0-.142-.184l-2.954-.237a5.8 5.8 0 0 1-.25 1.572zm-1.571 3.668a.16.16 0 0 1-.226.05l-5.018-3.465c.318-.422.58-.889.774-1.39l2.694 1.232a.157.157 0 0 1 .07.222l-.253.436 2.704 1.282c.083.039.115.14.069.22l-.816 1.414zm-6.717-2.044 3.53 4.974a.16.16 0 0 0 .23.03l1.25-1.05a.157.157 0 0 0 .01-.232l-2.101-2.128.386-.323a.157.157 0 0 0 .01-.232l-2.111-2.08c-.351.4-.756.75-1.204 1.042m-.03 6.772a.16.16 0 0 1-.206-.106l-1.615-5.881a5.8 5.8 0 0 0 1.487-.566l1.271 2.674a.157.157 0 0 1-.089.216l-.474.172 1.248 2.72a.16.16 0 0 1-.089.213z"/></svg>