<svg role="img" viewBox="0 0 24 24" xmlns="http://www.w3.org/2000/svg"><title>OKX</title><path d="M6 0h12c3.324 0 6 2.33 6 5.226v13.548C24 21.669 21.324 24 18 24H6c-3.324 0-6-2.33-6-5.226V5.226C0 2.331 2.676 0 6 0Zm-.516 5.621c-.168 0-.303.127-.303.283V9.59c0 .156.135.285.303.285h3.94c.167 0 .302-.129.302-.285V5.904c0-.156-.135-.283-.302-.283Zm9.092 0c-.167 0-.302.127-.302.283V9.59c0 .156.135.285.302.285h3.94c.168 0 .303-.129.303-.285V5.904c0-.156-.135-.283-.303-.283ZM10.03 9.875c-.167 0-.303.127-.303.283v3.686c0 .156.136.283.303.283h3.94c.167 0 .303-.127.303-.283v-3.686c0-.156-.136-.283-.303-.283zm-4.545 4.252c-.168 0-.303.126-.303.283v3.686c0 .156.135.283.303.283h3.94c.167 0 .302-.127.302-.283V14.41c0-.157-.135-.283-.302-.283zm9.092 0c-.167 0-.302.126-.302.283v3.686c0 .156.135.283.302.283h3.94c.168 0 .303-.127.303-.283V14.41c0-.157-.135-.283-.303-.283z"/></svg>