<svg role="img" viewBox="0 0 24 24" xmlns="http://www.w3.org/2000/svg"><title>Olympic Games icon</title><path d="M3.79 6.456c-2.09 0-3.79 1.7-3.79 3.79a3.795 3.795 0 0 0 4.116 3.774 3.795 3.795 0 0 0 3.779 3.524c2 0 3.641-1.558 3.779-3.523l.088.006.063.004a3.765 3.765 0 0 0 .501-.01 3.795 3.795 0 0 0 3.78 3.523 3.793 3.793 0 0 0 3.778-3.523l.088.006.064.004c.058.002.116.004.174.004 2.09 0 3.79-1.7 3.79-3.79 0-2.088-1.7-3.789-3.79-3.789a3.796 3.796 0 0 0-3.779 3.524 3.825 3.825 0 0 0-.652 0v-.01l-.004-.042a2.593 2.593 0 0 0-.012-.122c0-.01-.003-.022-.004-.032a3.768 3.768 0 0 0-.07-.395l-.008-.036a3.659 3.659 0 0 0-.127-.412 3.755 3.755 0 0 0-.137-.323l-.005-.01a3.785 3.785 0 0 0-.38-.626v.001a3.786 3.786 0 0 0-6.81 2.007 3.825 3.825 0 0 0-.652 0l-.001-.01-.003-.042a2.593 2.593 0 0 0-.012-.122l-.004-.032a3.768 3.768 0 0 0-.07-.395l-.009-.036a3.659 3.659 0 0 0-.126-.412 3.755 3.755 0 0 0-.137-.323l-.005-.01a3.784 3.784 0 0 0-.38-.626l-.002.001a3.786 3.786 0 0 0-3.03-1.517zm0 .667c1.024 0 1.93.49 2.5 1.248h-.003a3.121 3.121 0 0 1 .535 1.13l.01.04a3.142 3.142 0 0 1 .043.222c0 .009.002.017.003.026.006.04.011.082.015.123l.003.03c.005.05.01.102.011.154a3.8 3.8 0 0 0-2.781 3.254 3.118 3.118 0 0 1-3.46-3.105 3.118 3.118 0 0 1 3.122-3.122zm8.21 0c1.024 0 1.93.49 2.5 1.248h-.002a3.121 3.121 0 0 1 .508 1.03l.027.1.009.04a3.142 3.142 0 0 1 .043.222l.003.026c.006.04.012.082.016.123l.003.03c.005.05.009.102.01.154a3.8 3.8 0 0 0-2.78 3.254 3.175 3.175 0 0 1-.676 0 3.8 3.8 0 0 0-2.781-3.254 3.117 3.117 0 0 1 3.119-2.973zm8.21 0a3.118 3.118 0 0 1 3.123 3.123 3.118 3.118 0 0 1-3.46 3.104 3.8 3.8 0 0 0-2.781-3.254 3.117 3.117 0 0 1 3.119-2.973zM7.896 10.632c.114 0 .226.006.337.018a3.79 3.79 0 0 0 1.495 2.626v.001c.248.186.516.34.799.46l.007.002c.049.02.098.04.147.058l.065.023a3.824 3.824 0 0 0 .248.078l.02.006a3.117 3.117 0 0 1-3.118 2.973 3.117 3.117 0 0 1-3.119-2.973 3.802 3.802 0 0 0 2.044-1.386l.002.001c.149-.198.275-.408.38-.625l.005-.01c.05-.107.097-.214.137-.324l.022-.063.03-.09.03-.095.015-.054a3.665 3.665 0 0 0 .108-.542l.004-.03.005-.036a3.12 3.12 0 0 1 .338-.018zm8.21 0c.114 0 .227.006.338.018a3.79 3.79 0 0 0 1.495 2.626l-.001.001a3.787 3.787 0 0 0 .8.46l.006.002c.049.02.098.04.147.058l.066.023a3.824 3.824 0 0 0 .247.078l.022.006a3.117 3.117 0 0 1-3.12 2.973 3.117 3.117 0 0 1-3.118-2.973 3.802 3.802 0 0 0 2.043-1.386l.001.001a3.7 3.7 0 0 0 .38-.625l.005-.01c.051-.107.097-.214.138-.324l.022-.063a3.673 3.673 0 0 0 .06-.185l.015-.054a3.665 3.665 0 0 0 .108-.542c0-.01.003-.02.004-.03 0-.012.003-.024.005-.036.11-.012.223-.018.337-.018zm-9.244.174l-.01.056-.02.089-.008.038a2.437 2.437 0 0 1-.027.102l-.005.02c-.103.356-.27.698-.503 1.008l.002.001a3.12 3.12 0 0 1-1.466 1.074 3.118 3.118 0 0 1 2.038-2.388zm2.067 0a3.118 3.118 0 0 1 2.038 2.386 3.122 3.122 0 0 1-.84-.448v.001a3.115 3.115 0 0 1-1.198-1.939zm6.144 0l-.01.056-.02.089-.009.038a2.437 2.437 0 0 1-.027.102l-.005.02c-.102.356-.27.698-.503 1.008l.002.001a3.12 3.12 0 0 1-1.466 1.074 3.118 3.118 0 0 1 2.038-2.388zm2.067 0a3.118 3.118 0 0 1 2.038 2.386 3.122 3.122 0 0 1-.84-.448l-.001.001a3.115 3.115 0 0 1-1.197-1.939z"/></svg>