<svg role="img" viewBox="0 0 24 24" xmlns="http://www.w3.org/2000/svg"><title>Omegle</title><path d="M8.016 1.089c-1.731.099-3.364.841-4.75 2.226-3.167 3.168-2.87 7.572.742 11.233 3.118 3.068 6.037 3.316 9.303 2.376 1.04-.396 1.732-.1 2.425.593.742.743.841 1.584.248 2.178L11.678 24h10.194C23.06 24 24 23.06 24 21.872V11.678l-4.305 4.306c-.643.643-1.485.494-2.178-.198-.692-.693-.99-1.337-.643-2.524.94-3.266.594-6.235-2.375-9.204-2.029-2.03-4.305-3.068-6.483-2.97ZM0 14.004v7.868C0 23.06.94 24 2.078 24h6.334c.05-.149.1-.247.248-.346l3.018-3.019c.396-.445 1.287-1.188 1.88-1.633-3.562 1.287-7.867 1.188-11.579-2.524A14.973 14.973 0 0 1 0 14.004ZM13.955 0c.84.544 1.682 1.237 2.523 2.029 3.662 3.662 3.761 7.967 2.475 11.58.445-.644 1.237-1.485 1.633-1.881l3.018-3.068c.099-.1.247-.198.396-.248V2.128C24 .94 23.06 0 21.872 0h-7.917Z"/></svg>