<svg role="img" viewBox="0 0 24 24" xmlns="http://www.w3.org/2000/svg"><title>Omnivore</title><path d="M11.1493.041C5.2186.452.4386 5.2337.0276 11.1643v.0019c-.468 6.9604 5.0618 12.8215 11.9708 12.8215V21.857c-5.7107 0-10.233-4.7815-9.8453-10.5477.3384-4.8695 4.2732-8.8026 9.1428-9.141 5.7957-.3896 10.549 3.8719 10.573 9.5556-.0004.4622-.1392 1.2464-.3186 2.0168-.2602 1.0517-1.185 1.7797-2.2793 1.7797h-.0525c-1.2682 0-2.0096-.9064-2.0096-2.2775V9.4462c0-.7245-.4667-1.3612-1.0537-1.6221s-1.348-.188-1.8974.2697l-.1159.096-2.0983 3.1085a.11.11 0 0 1-.0905 0l-2.1436-3.123-.0978-.087c-.5455-.4849-1.3426-.5659-1.9335-.295s-1.0428.903-1.0428 1.6276v7.1911h2.1309v-6.045l1.5642 2.281.1159.096c.8344.6873 2.0712.6872 2.9058 0l.1194-.0995 1.5063-2.2323v2.6306c0 2.3185 1.719 4.4084 4.1406 4.4084h.0525c2.0591 0 3.8607-1.4113 4.3505-3.4054l.0019-.0055.0019-.0055c.1934-.829.3747-1.6954.3747-2.5148v-.0055C23.9706 4.8323 18.0836-.425 11.153.041h-.0018z"/></svg>