<svg viewBox="0 0 16 16" xmlns="http://www.w3.org/2000/svg" fill-rule="evenodd" clip-rule="evenodd" stroke-linejoin="round" stroke-miterlimit="1.414"><path d="M3.28 11.72c-.333.203-.706.305-1.12.305-.613-.02-1.12-.23-1.525-.634C.23 10.99.02 10.48 0 9.87c.01-.575.194-1.063.553-1.462.36-.4.816-.632 1.372-.7-.02-.118-.028-.244-.028-.377.02-.76.28-1.39.78-1.88.502-.49 1.133-.75 1.894-.77.48 0 .91.11 1.29.34.32-.51.73-.93 1.24-1.24.52-.31 1.1-.47 1.74-.48.86.02 1.59.29 2.21.81.62.52 1.01 1.19 1.17 2.02h-.19c-.31 0-.58.04-.82.13-.32-.34-.69-.6-1.11-.78-.41-.18-.86-.26-1.34-.26-.44 0-.86.07-1.26.22s-.76.36-1.08.64c-.28.24-.51.51-.7.82-.19.31-.32.64-.39.99-.24.05-.47.12-.68.21-.34.16-.63.38-.86.67-.22.25-.39.54-.5.87-.11.33-.17.67-.17 1.03 0 .4.06.77.2 1.11zm11.232-2.497c1.05.26 1.545.88 1.483 1.854-.062.975-.63 1.524-1.704 1.647H5.8c-1.403-.185-2.092-.91-2.068-2.175.023-1.27.736-1.97 2.14-2.09.184-1.36.878-2.2 2.08-2.52 1.204-.33 2.228.04 3.075 1.12.29-.24.657-.34 1.1-.31.446.03.823.12 1.132.29.4.21.72.51.93.89.21.38.32.81.32 1.28z" fill-rule="nonzero"/></svg>