<svg viewBox="0 0 16 16" xmlns="http://www.w3.org/2000/svg" fill-rule="evenodd" clip-rule="evenodd" stroke-linejoin="round" stroke-miterlimit="1.414"><path d="M3.28 11.72c-.333.203-.706.305-1.12.305-.613-.02-1.12-.23-1.525-.634C.23 10.988.02 10.48 0 9.866c.01-.575.194-1.063.553-1.462.36-.4.816-.632 1.372-.7-.02-.118-.028-.244-.028-.377.02-.76.28-1.39.78-1.886.502-.497 1.133-.755 1.894-.774.476 0 .904.112 1.285.335.313-.517.727-.932 1.24-1.243.514-.31 1.094-.472 1.74-.48.856.018 1.59.288 2.204.808.612.52 1.002 1.192 1.168 2.015h-.192c-.314 0-.587.042-.82.128-.324-.342-.693-.603-1.11-.78-.415-.18-.863-.268-1.343-.268-.438 0-.858.072-1.263.217-.404.145-.765.358-1.083.638-.28.233-.515.504-.703.813-.188.31-.32.637-.396.984-.242.048-.47.117-.684.207-.343.156-.63.38-.863.67-.223.25-.39.54-.502.87-.112.328-.167.67-.167 1.026-.004.4.062.77.2 1.113zm11.232-2.497c1.05.26 1.545.88 1.483 1.854-.062.975-.63 1.524-1.704 1.647H5.8c-1.403-.185-2.092-.91-2.068-2.175.023-1.265.736-1.962 2.14-2.09.184-1.355.878-2.195 2.08-2.52 1.204-.327 2.228.048 3.075 1.122.29-.233.657-.335 1.1-.306.446.028.823.126 1.132.292.408.214.72.51.934.89.215.382.322.81.322 1.285z" fill-rule="nonzero"/></svg>