<svg viewBox="0 0 24 24" role="img" xmlns="http://www.w3.org/2000/svg"><title>ONNX icon</title><path d="M23.025 11.273c-.05 0-.1 0-.152.013l-4.012-7.624a.967.967 0 00.114-.454c0-.546-.43-1-.975-1a.926.926 0 00-.696.311L9.29.883A.982.982 0 008.33 0a.988.988 0 00-.975 1 .98.98 0 00.114.468l-6.24 9.168a.797.797 0 00-.253-.039.988.988 0 00-.975 1c0 .546.43 1 .975 1h.038l3.38 8.533c-.051.13-.09.26-.09.415 0 .546.431 1 .975 1a.953.953 0 00.71-.311l10.1 1.013a.97.97 0 00.937.753.988.988 0 00.975-1 1.06 1.06 0 00-.228-.65l5.089-9.103c.05.013.101.013.164.013a.988.988 0 00.975-1 .977.977 0 00-.975-.987zm-5.797-7.455a.929.929 0 00.456.338l-1.532 11.857a.818.818 0 00-.266.104L7.468 8.623a.857.857 0 00.038-.26c0-.064-.012-.13-.012-.194zm4.86 8.727l-5.177 3.637a1.107 1.107 0 00-.126-.078L18.329 4.13h.013l3.95 7.48c-.153.182-.241.403-.241.663zM6.393 7.377c-.468.065-.822.48-.822.987v.065L2.1 10.519l5.367-7.896zm.342 1.96c.127-.025.253-.09.355-.155l8.354 7.454a1.153 1.153 0 00-.063.364v.052l-9.317 3.935a.98.98 0 00-.595-.416zm8.899 8.325c.126.143.304.26.494.299l.455 4.143a.981.981 0 00-.443.467l-9.797-.987zm1.152.221c.316-.169.544-.506.544-.896a.774.774 0 00-.038-.247l4.734-3.337-4.784 8.545zm.24-14.714L7.152 7.584l-.114-.078 1.253-5.519h.038a.947.947 0 00.81-.455l7.886 1.61zM1.95 11.597c0-.065-.012-.13-.012-.181l3.898-2.364c.076.078.165.156.266.208L4.835 20.455 1.62 12.338a.984.984 0 00.33-.74z"/></svg>
