<svg role="img" viewBox="0 0 24 24" xmlns="http://www.w3.org/2000/svg"><title>Opel icon</title><path d="M23.79 12.894c-.123-.008-2.515-.16-2.528-.162.021-.256.032-.513.033-.77a9.324 9.324 0 0 0-18.402-2.07H.837a.362.362 0 0 0-.285.14l-.514.73c-.093.113-.003.296.144.29l2.529.156a9.324 9.324 0 0 0 18.381 2.853h2.056a.357.357 0 0 0 .285-.141l.53-.728c.097-.125-.01-.328-.172-.298zM11.97 3.727a8.255 8.255 0 0 1 8.248 8.244c0 .234-.013.466-.03.694l-6.894-.437 2.991-2.056c.125-.08.061-.287-.087-.282H3.991a8.257 8.257 0 0 1 7.977-6.163h.001zm0 16.492a8.255 8.255 0 0 1-8.244-8.247c0-.234 0-.466.03-.694l6.896.429-2.986 2.056c-.124.082-.06.29.09.285H19.95a8.26 8.26 0 0 1-7.98 6.17h-.001z"/></svg>