<svg role="img" viewBox="0 0 24 24" xmlns="http://www.w3.org/2000/svg"><title>OpenRouter</title><path d="M16.79 1.86v1.916a34 34 0 0 0-1.136-.032 19 19 0 0 0-1.413.037c-1.926.126-4.016.727-6.138 2.233C5.196 8.077 5.376 7.962 3.97 8.759c-.396.224-1.34.574-2.182.798-.84.224-1.75.332-1.748.332v4.222c-.255 0 .767.108 1.608.332.84.224 1.785.574 2.181.798 1.407.797 1.226.682 4.133 2.745 2.122 1.507 4.212 2.107 6.138 2.233.878.058 1.713.041 2.55.005v1.915l7.21-4.162-7.21-4.162v2.172c-.858.038-1.608.065-2.274.021-1.362-.09-2.413-.357-3.972-1.463-2.241-1.59-2.862-2.023-3.674-2.504.887-.517 1.446-.904 3.815-2.586 1.558-1.106 2.61-1.374 3.972-1.463.666-.044 1.415-.017 2.274.021v2.172L24 6.023Z"/></svg>