<svg role="img" viewBox="0 0 24 24" xmlns="http://www.w3.org/2000/svg"><title>OpenAI</title><path d="M22.283 9.82a5.985 5.985 0 0 0-0.516-4.911 6.046 6.046 0 0 0-6.51-2.9 6.067 6.067 0 0 0-10.276 2.172 5.985 5.985 0 0 0-3.998 2.9 6.046 6.046 0 0 0 0.742 7.097 5.985 5.985 0 0 0 0.511 4.911 6.046 6.046 0 0 0 6.515 2.9 5.985 5.985 0 0 0 4.509 2.011 6.056 6.056 0 0 0 5.773-4.206 5.995 5.995 0 0 0 3.997-2.9 6.056 6.056 0 0 0-0.747-7.074m-9.023 12.609a4.473 4.473 0 0 1-2.876-1.041l0.142-0.08 4.778-2.759a0.792 0.792 0 0 0 0.393-0.681v-6.737l2.02 1.168q0.032 0.016 0.038 0.053v5.582a4.504 4.504 0 0 1-4.495 4.495M3.599 18.303a4.473 4.473 0 0 1-0.534-3.014l0.142 0.086 4.782 2.759a0.771 0.771 0 0 0 0.782 0l5.842-3.37v2.333a0.082 0.082 0 0 1-0.033 0.062l-4.84 2.791a4.5 4.5 0 0 1-6.141-1.647M2.341 7.895a4.483 4.483 0 0 1 2.365-1.973v5.677a0.771 0.771 0 0 0 0.388 0.677l5.814 3.355-2.019 1.168a0.082 0.082 0 0 1-0.071 0l-4.831-2.787a4.504 4.504 0 0 1-1.646-6.14z m16.596 3.856l-5.833-3.388 2.015-1.164a0.082 0.082 0 0 1 0.071 0l4.831 2.792a4.495 4.495 0 0 1-0.677 8.105v-5.678a0.781 0.781 0 0 0-0.407-0.667m2.011-3.024l-0.141-0.084-4.775-2.783a0.781 0.781 0 0 0-0.784 0L9.409 9.229V6.897a0.062 0.062 0 0 1 0.028-0.062l4.831-2.787a4.499 4.499 0 0 1 6.68 4.661zM8.307 12.863l-2.021-1.164a0.082 0.082 0 0 1-0.038-0.057V6.073a4.499 4.499 0 0 1 7.376-3.454l-0.142 0.081-4.778 2.758a0.802 0.802 0 0 0-0.393 0.682z m1.097-2.366l2.603-1.499 2.606 1.499v2.999l-2.597 1.5-2.607-1.5z"/></svg>