<svg role="img" viewBox="0 0 24 24" xmlns="http://www.w3.org/2000/svg"><title>openSUSE Tumbleweed</title><path d="M6.357 0A6.35 6.35 0 0 0 0 6.357c.008 3.508 2.872 6.372 6.38 6.38l1.578.004h-.003.002l3.295.007.01 4.872c.009 3.508 2.872 6.372 6.38 6.38A6.35 6.35 0 0 0 24 17.643c-.009-3.508-2.872-6.372-6.38-6.38l-1.49-.004-3.381-.007-.011-4.871C12.729 2.872 9.866.009 6.358 0zm-.004 1.5c.207.001.41.016.61.041v5.404H1.54a4.822 4.822 0 0 1 4.814-5.444zm2.111.482a4.891 4.891 0 0 1 2.773 4.402l.011 4.864-4.863-.011a4.891 4.891 0 0 1-4.41-2.791h6.49V1.982zm4.288 10.77 4.864.01a4.89 4.89 0 0 1 4.44 2.857h-6.463v6.424a4.891 4.891 0 0 1-2.83-4.428l-.011-4.863zm4.341 4.367h5.376a4.822 4.822 0 0 1-5.376 5.346v-5.346z"/></svg>