<?xml version="1.0" encoding="UTF-8" standalone="no"?>
<svg
   xmlns:dc="http://purl.org/dc/elements/1.1/"
   xmlns:cc="http://creativecommons.org/ns#"
   xmlns:rdf="http://www.w3.org/1999/02/22-rdf-syntax-ns#"
   xmlns:svg="http://www.w3.org/2000/svg"
   xmlns="http://www.w3.org/2000/svg"
   xmlns:sodipodi="http://sodipodi.sourceforge.net/DTD/sodipodi-0.dtd"
   xmlns:inkscape="http://www.inkscape.org/namespaces/inkscape"
   role="img"
   viewBox="0 0 24 24"
   version="1.1"
   id="svg6"
   sodipodi:docname="openshot.svg"
   inkscape:version="0.92.4 5da689c313, 2019-01-14">
  <metadata
     id="metadata12">
    <rdf:RDF>
      <cc:Work
         rdf:about="">
        <dc:format>image/svg+xml</dc:format>
        <dc:type
           rdf:resource="http://purl.org/dc/dcmitype/StillImage" />
        <dc:title>Sega icon</dc:title>
      </cc:Work>
    </rdf:RDF>
  </metadata>
  <defs
     id="defs10" />
  <sodipodi:namedview
     pagecolor="#ffffff"
     bordercolor="#666666"
     borderopacity="1"
     objecttolerance="10"
     gridtolerance="10"
     guidetolerance="10"
     inkscape:pageopacity="0"
     inkscape:pageshadow="2"
     inkscape:window-width="1366"
     inkscape:window-height="714"
     id="namedview8"
     showgrid="false"
     inkscape:zoom="5.3680013"
     inkscape:cx="10.598175"
     inkscape:cy="16.145296"
     inkscape:window-x="0"
     inkscape:window-y="26"
     inkscape:window-maximized="1"
     inkscape:current-layer="svg6" />
  <title
     id="title2">Sega icon</title>
  <path
     inkscape:connector-curvature="0"
     style="fill:#000000;stroke-width:0.37441322"
     d="M 15.126726,1.7775072 C 13.433751,2.734128 9.1227731,5.483658 9.4726471,7.9048675 c 0.484155,3.3504605 7.2818789,2.7835725 7.4882649,5.4055905 0.267934,3.403961 -5.401063,6.854518 -8.3331809,8.354094 1.222922,0.482278 2.5256389,0.730249 3.8402219,0.730984 5.789916,0 10.48357,-4.693655 10.48357,-10.48357 -0.0029,-4.7635555 -3.216982,-8.9263587 -7.824797,-10.1344588 z"
     id="path10" />
  <path
     inkscape:connector-curvature="0"
     style="fill:#000000;stroke-width:0.37441322"
     d="m 3.4001331,6.6701815 c -0.473219,0.821281 -0.832872,1.702947 -1.069126,2.620892 h 2.648682 v 5.2417855 h -2.654532 c 0.239252,0.918427 0.602111,1.800113 1.078632,2.620892 h 0.677893 2.095837 5.2417849 2.097299 5.241785 2.095836 0.678624 0.0029 c 0.139924,-0.244274 0.269953,-0.494086 0.38977,-0.748827 h -0.846082 v -1.123239 h 1.12324 v 0.497267 c 0.159901,-0.406578 0.29423,-0.822754 0.402201,-1.246093 H 22.455697 20.33061 V 9.2910735 h 0.374413 1.760912 0.144793 c -0.109305,-0.428177 -0.245594,-0.849012 -0.408031,-1.259988 v 0.511162 h -1.12324 v -1.12324 h 0.849011 c -0.121972,-0.254848 -0.254198,-0.50466 -0.396351,-0.748826 h -0.827073 z m -0.292511,0.748826 h 1.12324 v 1.12324 h -1.12324 z m 2.24648,0 h 1.12324 v 1.12324 h -1.12324 z m 2.246479,0 h 1.12324 v 1.12324 h -1.12324 z m 2.24648,0 H 10.9703 v 1.12324 H 9.8470611 Z m 2.2464789,0 h 1.12324 v 1.12324 h -1.12324 z m 2.246479,0 h 1.12324 v 1.12324 h -1.12324 z m 2.246479,0 h 1.12324 v 1.12324 h -1.12324 z m 2.24648,0 h 1.123239 v 1.12324 H 18.832978 Z M 6.8517551,9.2910735 H 11.719127 V 14.532859 H 6.8517551 Z m 6.7394379,0 h 4.867372 V 14.532859 H 13.591193 Z M 3.1076221,15.281685 h 1.12324 v 1.123239 h -1.12324 z m 2.24648,0 h 1.12324 v 1.123239 h -1.12324 z m 2.246479,0 h 1.12324 v 1.123239 h -1.12324 z m 2.24648,0 H 10.9703 v 1.123239 H 9.8470611 Z m 2.2464789,0 h 1.12324 v 1.123239 h -1.12324 z m 2.246479,0 h 1.12324 v 1.123239 h -1.12324 z m 2.246479,0 h 1.12324 v 1.123239 h -1.12324 z m 2.24648,0 h 1.123239 v 1.123239 h -1.123239 z"
     id="path14" />
</svg>
