<svg role="img" viewBox="0 0 24 24" xmlns="http://www.w3.org/2000/svg"><title>OpenCage</title><path d="M11.991 0C6.174 0 1.446 3.555 1.446 7.926v15.989h1.122V7.858c0-2.84 2.399-5.29 5.818-6.327-.77.769-2.858 3.263-2.858 7.671V24H6.6V9.202c0-3.422 1.437-6.857 3.98-7.858-.85 1.922-1.106 5.46-1.106 7.824v14.798h1.038V9.168c0-4.95.935-7.858 1.462-8.097.392.205 1.276 2.382 1.43 6.94l1.054.017c-.034-.952-.17-4.677-1.055-6.684 2.058.85 3.657 3.453 3.963 6.684h1.123c0-.034-.017-.085-.017-.119-.255-2.653-1.276-4.881-2.721-6.293 3.35 1.054 5.715 3.487 5.715 6.293v.12h1.054C22.52 3.673 17.81.016 12.026 0zm1.497 20.003v3.963h1.072v-3.963zm3.998 0v3.963h1.054v-3.963zm3.997 0v3.98h1.071v-3.98z"/></svg>