<svg role="img" viewBox="0 0 24 24" xmlns="http://www.w3.org/2000/svg"><title>openHAB</title><path d="M10.7058.0708c-.695.0703-1.168.1687-1.957.3886-3.796 1.0593-6.96 4.147-8.14 7.9675-.422 1.3917-.5 1.9098-.5 3.5806 0 1.5614.07 2.1417.394 3.2513l.148.491.77-.7732.762-.7731-.106-.5995c-.117-.718-.14-2.2994-.027-3.0474a10.0146 10.0146 0 0 1 2.98-5.7856c1.856-1.8004 4.008-2.7302 6.586-2.8436 1.102-.0392 1.856.0351 2.895.2982 3.773.9569 6.676 4.1108 7.41 8.0448.168.9097.176 2.4902.008 3.439-.383 2.1458-1.39 4.0245-2.98 5.5627-1.805 1.7452-4 2.701-6.489 2.8155-2.781.1336-5.348-.8504-7.426-2.8436l-.734-.7018-.668.6667-.664.6667.48.482c.961.985 1.953 1.715 3.192 2.3465 3.625 1.8546 7.918 1.714 11.468-.3926 2.38-1.4007 4.399-3.926 5.258-6.5698.446-1.3806.524-1.9419.524-3.7342.008-1.4389-.016-1.714-.157-2.3727a12.0414 12.0414 0 0 0-1.07-3.0203c-2.232-4.476-7.001-7.086-11.957-6.5437zm-4.066 11.7238-5.324 5.3418.199.4117c.105.228.324.6125.48.8595l.29.4519 9.753-9.795 3.707 3.7222 3.7 3.7262.16-.2661c.093-.1496.277-.5533.418-.9027l.246-.6346-4.114-4.1348c-2.27-2.2743-4.132-4.1339-4.152-4.1339s-2.434 2.4128-5.363 5.3538z"/></svg>