<svg role="img" viewBox="0 0 24 24" xmlns="http://www.w3.org/2000/svg"><title>openmediavault</title><path d="M0 0v24h24V0Zm2.672 2.734h18.656c.435 0 .797.364.797.797v16.893a.804.804 0 0 1-.797.799H2.672a.804.804 0 0 1-.797-.797V3.53c0-.433.362-.797.797-.797m.101.897v16.693h18.454V3.631Zm2.08 1.943h14.293c.168 0 .303.127.303.283V8.98c0 .155-.136.28-.303.28H4.854c-.168 0-.303-.125-.303-.28V5.857c0-.156.135-.283.303-.283m1.737.748a1.095 1.095 0 0 0-1.096 1.096A1.095 1.095 0 0 0 6.59 8.514a1.095 1.095 0 0 0 1.094-1.096A1.095 1.095 0 0 0 6.59 6.322m-.002.524h.002a.573.573 0 0 1 .572.572.573.573 0 0 1-.572.572.573.573 0 0 1-.572-.572.573.573 0 0 1 .57-.572m-1.734 3.312h14.292c.168 0 .303.126.303.281v3.122c0 .155-.136.283-.303.283H4.854c-.168 0-.303-.128-.303-.283v-3.122c0-.155.135-.28.303-.28m1.736.746A1.095 1.095 0 0 0 5.494 12a1.095 1.095 0 0 0 1.096 1.096A1.095 1.095 0 0 0 7.684 12a1.095 1.095 0 0 0-1.094-1.096m-.002.524h.002a.573.573 0 0 1 .572.572.573.573 0 0 1-.572.572.573.573 0 0 1-.572-.572.573.573 0 0 1 .57-.572M4.854 14.74v.002h14.292c.168 0 .303.124.303.28v3.123c0 .155-.136.28-.303.28H4.854c-.168 0-.303-.125-.303-.28V15.02c0-.155.135-.28.303-.28m1.736.748a1.095 1.095 0 0 0-1.096 1.096A1.095 1.095 0 0 0 6.59 17.68a1.095 1.095 0 0 0 1.094-1.096 1.095 1.095 0 0 0-1.094-1.096m-.002.524h.002a.573.573 0 0 1 .572.572.573.573 0 0 1-.572.572.573.573 0 0 1-.572-.572.573.573 0 0 1 .57-.572"/></svg>