<svg role="img" viewBox="0 0 24 24" xmlns="http://www.w3.org/2000/svg"><title>OpenAI Gym icon</title><path d="M23.996 9.652c0-.04-.008-.055-.008-.074-.008-.02-.008-.035-.02-.055-.016-.035-.023-.055-.035-.062-.008-.027-.023-.035-.043-.055l-.008-.008c-.016-.012-.035-.027-.05-.035l-3.72-2.227V2.684c0-.02 0-.047-.012-.062 0-.035-.008-.055-.016-.074-.008-.027-.016-.043-.027-.055-.016-.023-.035-.043-.043-.05-.016-.012-.023-.027-.043-.04l-.027-.016-3.89-2.34c-.105-.066-.234-.066-.34 0l-3.72 2.223L8.285.047c-.105-.066-.234-.066-.34 0L4.063 2.375c-.02.012-.02.02-.027.02-.016.008-.027.027-.043.035-.016.02-.027.027-.035.047l-.008.008c-.008.02-.02.027-.027.047-.008.027-.008.043-.016.063 0 .035-.008.063-.008.082V7.13L.168 9.363c-.016.008-.035.023-.05.035l-.008.008-.043.047c-.012.027-.02.035-.027.055-.02.035-.027.05-.027.07-.008.02-.008.035-.008.055v4.69c0 .125.062.242.164.305l3.72 2.223v4.457c0 .125.063.242.168.305l3.883 2.332c.008.008.016.008.027.02s.023.016.035.016c.023.012.03.012.043.02h.06c.043 0 .1-.008.133-.027.016-.008.023-.008.043-.02l3.72-2.223 3.72 2.223c.016.012.027.02.043.02.043.02.086.027.13.027h.047c.023 0 .035 0 .043-.008.023-.012.035-.02.043-.02.016-.008.027-.02.035-.027l3.883-2.332c.105-.062.164-.18.164-.305v-4.457l3.72-2.223c.105-.062.168-.18.168-.305V9.668zm-11.828 11.34c-.016-.02-.023-.02-.043-.027-.008 0-.016-.012-.023-.012s-.02-.008-.035-.008-.027-.008-.035-.008h-.07c-.008 0-.027 0-.035.008-.008 0-.016 0-.035.008-.008 0-.016.012-.027.012-.008.008-.016.008-.03.016l-3.38 2.035v-3.84l3.543-2.125 3.543 2.125v3.84zM4.402 7.637c.016-.02.027-.027.035-.027.008-.012.016-.012.023-.02s.02-.016.027-.027.02-.016.02-.027c.008-.008.008-.016.016-.027s.008-.016.016-.027.012-.016.012-.035c0-.008.008-.02.008-.035 0-.008 0-.02.008-.035V3.29l3.207 1.926V9.46l-3.547 2.125L1.023 9.66zM11.996 3.1l3.543 2.125v3.84L12.16 7.03c-.016-.02-.023-.02-.043-.027-.008 0-.016-.012-.027-.012s-.016-.008-.035-.008c-.008 0-.016-.008-.03-.008h-.07c-.008 0-.027 0-.035.008-.008 0-.02 0-.035.008-.008 0-.02.012-.027.012-.008.008-.023.008-.035.016L8.453 9.055v-3.84zm0 13.148l-3.543-2.125V9.867l3.543-2.125 3.543 2.125v4.246zm-7.43-4.047l3.207-1.926v4.094c0 .008 0 .016.008.035 0 .008.008.02.008.035s.008.02.008.04c.012.008.012.016.02.023s.008.02.016.027.02.02.02.027c.008.012.016.02.023.027s.02.02.027.02c.008.008.02.02.027.02l.008.008 3.38 2.023-3.203 1.926-3.547-2.125zm11.32 6.38l-3.203-1.926 3.387-2.03c.008-.012.02-.02.027-.02.008-.008.016-.008.027-.02s.016-.016.023-.027.02-.016.02-.027c.008-.008.008-.016.016-.027s.008-.016.02-.023.008-.02.008-.04c0-.008.008-.016.008-.035 0-.008 0-.02.008-.035v-4.094l3.207 1.926v4.246zm3.887-6.984L16.227 9.46V5.215l3.207-1.926v4.094c0 .008 0 .02.008.035 0 .008.008.02.008.035s.012.02.012.04c.008.008.008.016.016.027s.008.016.016.027.02.016.02.027c.008.008.016.016.027.023s.016.02.023.02c.008.008.02.02.027.02l.008.008 3.38 2.023zM15.887.758l3.207 1.926-3.207 1.926-3.203-1.926zm-7.773 0l3.203 1.926-3.203 1.914-3.207-1.914zm-7.43 9.516L3.887 12.2v3.84L.684 14.113zm7.1 12.742L4.566 21.1v-3.84l3.207 1.926zm11.66-1.918l-3.207 1.926v-3.84l3.207-1.926zm3.883-6.984l-3.203 1.926V12.2l3.203-1.926zm0 0"/></svg>