<svg role="img" viewBox="0 0 24 24" xmlns="http://www.w3.org/2000/svg"><title>OpenSCAD</title><path d="M12.064 2.48c-1.286.017-2.478.283-3.345.702-.896.431-1.426 1.014-1.426 1.627 0 .493.374.98.975 1.396.242-.178.493-.306.728-.422.236-.115.556-.147.977-.15.42-.003.855.09.855.09.008.001 1.498.644 1.498.644l.895-.418h.002s.591-.265 1.267-.258a3.88 3.88 0 0 1 .791.113c.3.07.591.24.778.391.562-.406.896-.88.896-1.365 0-.617-.5-1.202-1.363-1.639-.863-.436-2.069-.71-3.402-.71h-.125zm7.301.143c-.325-.02-.444.02-.695.13-.507.275-1.025.551-1.545.825a9.872 9.872 0 0 1 4.725 8.06c.417-.213.832-.427 1.228-.636 1.158-.843 1.234-3.072.178-5.193-.94-1.885-2.53-3.189-3.89-3.186ZM8.55 2.99a9.648 9.648 0 0 0-6.178 8.16c.425-.213.857-.424 1.295-.617l.002-.002h.002c.204-.086.417-.128.637-.133.22-.004.444.03.672.094.454.13.916.387 1.355.727.879.68 1.693 1.713 2.213 2.883.575 1.292.84 2.532.795 3.56-.046 1.028-.412 1.875-1.139 2.268l-.976.467a9.594 9.594 0 0 0 4.744 1.248 9.594 9.594 0 0 0 5.334-1.612c-.746.29-1.48.318-2.086-.006-.54-.29-.915-.832-1.082-1.54-.122-.413-.09-.715-.104-1.147.015-.476.142-.93.207-1.248.104-.434.377-1.155.776-1.865.398-.711.976-1.41 1.61-2.008.635-.599 1.253-.966 1.704-1.082.45-.116.743-.171 1.043-.174.3-.003.609.046.922.209.771.411 1.163 1.295 1.187 2.357.075-.226.108-1.16.13-1.525a9.636 9.636 0 0 0-5.124-8.516c.447.386.717.84.717 1.342 0 .619-.408 1.185-.92 1.524a6.2 6.2 0 0 1-1.498.744 7.273 7.273 0 0 1-2.21.377c-.739.001-1.25.01-1.665-.06a12.338 12.338 0 0 1-.844-.167c-.35-.066-.333-.053-.607-.15-.59-.21-.775-.29-1.377-.686-.602-.395-1.041-.972-1.041-1.603 0-.737.602-1.367 1.506-1.819Zm1.498 2.9c.054.333.146.73.162 1.131.174.041.353.078.537.108.46-.228.864-.423 1.27-.621L10.77 5.97a8.56 8.56 0 0 0-.215-.034 9.161 9.161 0 0 0-.508-.046Zm3.29.292-.868.404.021.639c.844-.033 1.631-.175 2.3-.407.019-.297.107-.59.151-.824-.144-.036-.305-.032-.693-.035-.387-.004-.91.223-.91.223Zm1.85-.116c-.04.123-.082.25-.107.391-.013.073-.02.167-.027.256.266-.107.507-.228.724-.36a1.745 1.745 0 0 0-.59-.287Zm-2.966.625c-.292.14-.64.307-.985.477.338.03.675.058 1.002.066l-.017-.543zm-7.905 3.96a1.459 1.459 0 0 0-.548.11c-.756.333-1.507.71-2.213 1.089.105.01.207.024.3.037.387.051.81.217 1.508.761.28.22.593.543.899.92.326.389.609.844.865 1.239.172.287.325.575.45.847.15.316.26.642.376.946.112.306.181.617.262.91.078.285.104.573.15.844.032.267.045.52.04.753-.012.45-.044.855-.169 1.215-.04.116-.092.225-.154.328a76.45 76.45 0 0 0 2.002-.941c1.25-.676 1.36-2.977.234-5.506-.88-1.978-2.651-3.573-4.002-3.553zm14.44.665c.186.347.338.904.13 1.633-.066.172-.12.378-.214.557-.529 1.099-1.507 1.61-1.79 1.738.001.048-.001.113-.038.463-.037.35-.064.497-.174.861-.11.364-.227.627-.385.88-.077.1-.15.257-.506.65-.436.27-1.007.452-1.312.453.17.567.444 1.027.87 1.256.672.358 1.554.238 2.452-.278.507-.291 1.013-.71 1.48-1.23.35-.405.667-.836 1.172-1.719.505-.883.814-2.064.791-3.045-.023-1.004-.384-1.782-1.054-2.14a1.478 1.478 0 0 0-.722-.163c-.247 0-.492.06-.7.084zm-.283.047c-.5.165-1.01.471-1.498.875.172.192.37.357.61.537a3.73 3.73 0 0 0 .91.502l.048-.113a3.14 3.14 0 0 0 .096-.283c.137-.48.101-.866.011-1.154a1.64 1.64 0 0 0-.177-.364zm-17.178.733a.8.8 0 0 0-.469.154c-.472.37-.779.918-.822 1.895-.044.976.21 2.184.773 3.449.503 1.13 1.298 2.135 2.139 2.785.84.65 1.727.943 2.48.6.62-.343.737-1 .758-1.877.021-.878-.24-2.099-.806-3.344-.475-1.045-1.46-2.382-2.139-2.912-.68-.53-1.04-.665-1.387-.711a2.995 2.995 0 0 0-.527-.04Zm15.475.322c-.582.582-1.084 1.198-1.45 1.797l1.444.793a3.24 3.24 0 0 0 .53-.313 3.503 3.503 0 0 0 1.065-1.191 4.335 4.335 0 0 1-.943-.54c-.356-.266-.509-.39-.646-.546zm-1.575 2.033a7.495 7.495 0 0 0-.658 1.715l1.955-1.004c-.41-.22-.87-.467-1.297-.71zm1.42.936-2.224 1.158-.03.146c.226.054.475.128.782.291.427.228.627.39.78.53.052-.068.104-.138.153-.217.343-.548.472-1.156.524-1.586.012-.107.01-.217.015-.322z"/></svg>