<svg role="img" viewBox="0 0 24 24" xmlns="http://www.w3.org/2000/svg"><title>Open WebUI</title><path d="M12 0C5.373 0 0 5.373 0 12s5.373 12 12 12 12-5.373 12-12S18.627 0 12 0zm3.885 18.397c-1.097.759-2.433 1.167-3.885 1.167-3.732 0-6.761-3.029-6.761-6.761 0-3.732 3.029-6.761 6.761-6.761 1.452 0 2.788.408 3.885 1.167.552.383.682 1.142.3 1.694-.383.552-1.142.682-1.694.3a5.402 5.402 0 0 0-2.49-.765c-2.438 0-4.424 1.986-4.424 4.424 0 2.439 1.986 4.425 4.424 4.425 1.067 0 2.053-.27 2.49-.765.552-.383 1.311-.251 1.694.3.382.552.252 1.311-.3 1.694z"/></svg>