<svg role="img" viewBox="0 0 24 24" xmlns="http://www.w3.org/2000/svg"><title>OpenZFS</title><path d="M19.3555 3.403a.6254.614 0 0 1-.9004 0 .6598.6478 0 0 1 0-.905.6254.614 0 0 1 .9004 0 .6483.6366 0 0 1 0 .905m-.1392 17.8594a1.1001 1.0802 0 0 1-1.5732 0 1.1509 1.13 0 0 1 0-1.577c.4338-.434 1.1443-.434 1.5716 0 .442.434.442 1.1414 0 1.5754m-3.7211-2.154a1.1427 1.122 0 0 1 0-1.569 1.0887 1.069 0 0 1 1.5732 0c.4355.434.4355 1.1414 0 1.569a1.0887 1.069 0 0 1-1.5716 0m-.5763 2.154c-.4354.434-1.146.434-1.5732 0a1.1509 1.13 0 0 1 0-1.5753c.4338-.434 1.1443-.434 1.5716 0 .4355.434.4355 1.1413 0 1.5753m-3.7211-2.154a1.1296 1.1092 0 0 1 0-1.569 1.0887 1.069 0 0 1 1.5732 0c.4355.434.4355 1.1414 0 1.569a1.0887 1.069 0 0 1-1.5716 0m-.5763 2.154c-.4354.434-1.146.434-1.5732 0a1.1509 1.13 0 0 1 0-1.5753c.4338-.434 1.1443-.434 1.5716 0 .4355.434.4355 1.1413 0 1.5753m-3.7277-2.154a1.1427 1.122 0 0 1 0-1.569 1.0969 1.077 0 0 1 1.5798 0c.4355.434.4355 1.1414 0 1.569a1.1018 1.0818 0 0 1-1.5798 0m-.5697 2.1476a1.0887 1.069 0 0 1-1.5716 0 1.1296 1.1092 0 0 1 0-1.569 1.0887 1.069 0 0 1 1.5716 0c.4355.434.4355 1.1414 0 1.569M4.6035 2.58a.6336.6221 0 0 1 .907 0 .6598.6478 0 0 1 0 .905.6336.6221 0 0 1-.907 0 .6663.6543 0 0 1 0-.905m1.3867 1.3873a.6336.6221 0 0 1 .9086 0 .6598.6478 0 0 1 0 .905.645.6334 0 0 1-.9086 0 .6598.6478 0 0 1 0-.905m1.3882 1.3825a.645.6334 0 0 1 .9086 0 .6598.6478 0 0 1 0 .9034.6336.6221 0 0 1-.9086 0 .6598.6478 0 0 1 0-.9034m0-2.7698a.6336.6221 0 0 1 .9086 0 .6598.6478 0 0 1 0 .905.6385.627 0 0 1-.9086 0 .6598.6478 0 0 1 0-.905m1.3883 4.157a.6385.627 0 0 1 .907 0 .6598.6478 0 0 1 0 .905.6336.6221 0 0 1-.907 0 .6598.6478 0 0 1 0-.905m0-2.7697a.6336.6221 0 0 1 .907 0 .6598.6478 0 0 1 0 .905.6336.6221 0 0 1-.907 0 .6598.6478 0 0 1 0-.905M10.1533 2.58a.6336.6221 0 0 1 .9086 0 .6598.6478 0 0 1 0 .905.6336.6221 0 0 1-.9086 0 .6598.6478 0 0 1 0-.905m1.3883 4.157a.632.6205 0 0 1 .9004 0 .6598.6478 0 0 1 0 .905.6254.614 0 0 1-.9004 0 .6598.6478 0 0 1 0-.905m0-2.7697a.6254.614 0 0 1 .9004 0 .6548.643 0 0 1 0 .905.6368.6253 0 0 1-.9004 0 .6598.6478 0 0 1 0-.905M12.9298 2.58a.6254.614 0 0 1 .9005 0 .6598.6478 0 0 1 0 .905.6254.614 0 0 1-.9004 0 .6598.6478 0 0 1 0-.905m.4272 12.8038c.4355-.434 1.146-.434 1.5733 0a1.1509 1.13 0 0 1 0 1.5753c-.4338.434-1.1443.434-1.5716 0a1.1509 1.13 0 0 1 0-1.5753m.4715-6.393a.6254.614 0 0 1-.9004 0 .6598.6478 0 0 1 0-.9035.632.6205 0 0 1 .9004.0065.6516.6398 0 0 1 0 .897m0-2.7682a.6254.614 0 0 1-.9004 0 .6598.6478 0 0 1 0-.905.6254.614 0 0 1 .9004 0 .6598.6478 0 0 1 0 .905m-2.2887 3.252a.6368.6253 0 0 1 .9004 0 .6598.6478 0 0 1 0 .905.6254.614 0 0 1-.9004 0 .6598.6478 0 0 1 0-.905m-.3389 3.7616a1.0887 1.069 0 0 1 1.5716 0c.442.434.442 1.1429 0 1.5753a1.1001 1.0802 0 0 1-1.5716 0 1.1509 1.13 0 0 1 0-1.5753m-.5697 2.1476a1.1509 1.13 0 0 1 0 1.5753c-.442.434-1.1443.434-1.5798 0a1.1509 1.13 0 0 1 0-1.5753c.4355-.434 1.146-.434 1.5798 0m-.4797-10.0662a.6336.6221 0 0 1 .9086 0 .6712.659 0 0 1 0 .905.6336.6221 0 0 1-.9086 0 .6598.6478 0 0 1 0-.905m0 2.7762a.632.6205 0 0 1 .902-.0065.668.6559 0 0 1 0 .9099.6368.6253 0 0 1-.9003 0 .6598.6478 0 0 1 0-.9034m4.1615-1.3873a.6254.614 0 0 1 .902 0 .6598.6478 0 0 1 0 .9034.6254.614 0 0 1-.9004 0 .6598.6478 0 0 1 0-.9034m0-2.7762a.6368.6253 0 0 1 .9004 0 .6598.6478 0 0 1 0 .9035.6254.614 0 0 1-.9004 0 .6598.6478 0 0 1 0-.9035m1.3866 1.3873a.6254.614 0 0 1 .9004 0 .6598.6478 0 0 1 0 .905.6254.614 0 0 1-.9004 0 .6598.6478 0 0 1 0-.905m0-2.7681a.6254.614 0 0 1 .9004 0 .6516.6398 0 0 1 0 .897.6254.614 0 0 1-.9004 0 .6516.6398 0 0 1 0-.897m1.3883 1.3808a.6368.6253 0 0 1 .9004 0 .6598.6478 0 0 1 0 .905.6254.614 0 0 1-.9004 0 .6598.6478 0 0 1 0-.905m6.9053-2.1042C23.9983.8214 23.1863 0 22.1696 0H1.8336A1.85 1.8165 0 0 0 0 1.8261v6.983h2.7225L0 15.191v6.9765C0 23.1721.8186 24 1.8352 24h20.336A1.85 1.8165 0 0 0 24 22.1674V15.191h-2.7241l2.7241-6.3818z"/></svg>