<svg role="img" viewBox="0 0 24 24" xmlns="http://www.w3.org/2000/svg"><title>OpenTofu</title><path d="m20.498 6.581-8.315 4.57a.383.383 0 0 1-.366 0L3.504 6.582a.378.378 0 0 1 .01-.66l8.303-4.564a.383.383 0 0 1 .366 0l8.303 4.564a.371.371 0 0 1 .188.253.378.378 0 0 1-.176.406Zm-9.7 15.5L2.4 17.465a.38.38 0 0 1-.197-.332V8.005a.384.384 0 0 1 .562-.333l8.383 4.608a.378.378 0 0 1 .196.332v9.14a.383.383 0 0 1-.546.329ZM5.71 15.187l.013-.007c.028-.308-.066-.657-.23-.952-.163-.295-.401-.55-.674-.693-.273-.144-.531-.15-.727-.041-.196.108-.336.342-.352.652l.005.007 1.965 1.034Zm3.092 1.785.013-.007c.028-.314-.066-.657-.23-.952a1.729 1.729 0 0 0-.674-.693c-.273-.144-.531-.15-.727-.041-.196.108-.332.336-.352.651l.005.009 1.965 1.033ZM12.815.209a1.692 1.692 0 0 0-1.63 0L1.768 5.385c-.54.297-.876.866-.876 1.482v10.266c0 .617.335 1.185.876 1.482l9.417 5.176a1.692 1.692 0 0 0 1.63 0l1.005-.553.03-.016 8.382-4.607c.54-.297.876-.866.876-1.482V6.867c0-.616-.335-1.184-.876-1.482L12.815.209Z"/></svg>