<svg role="img" viewBox="0 0 24 24" xmlns="http://www.w3.org/2000/svg"><title>OpenCritic</title><path d="M11.998 13.087c.96.954 1.914 1.914 2.871 2.871v3.203a7.717 7.717 0 0 1-5.735.002v-3.21l2.864-2.866zM13.085 12c.958-.956 1.912-1.916 2.874-2.869 1.068.003 2.136 0 3.204.001a7.748 7.748 0 0 1 0 5.74h-3.204c-.96-.956-1.916-1.914-2.874-2.872zM4.832 9.135c1.07-.006 2.141 0 3.211-.003L10.914 12c-.957.958-1.914 1.915-2.873 2.872l-3.203-.001a7.77 7.77 0 0 1-.005-5.736zm4.301-4.297a7.72 7.72 0 0 1 5.735.001v3.207c-.957.956-1.911 1.914-2.87 2.868L9.135 8.05c-.002-1.07 0-2.142 0-3.213zm9.536 1.581 2.342-2.342c.822.935 1.5 1.996 1.996 3.138a12.05 12.05 0 0 1 .35 8.67 12.016 12.016 0 0 1-2.349 4.041c-.78-.78-1.561-1.56-2.341-2.342a8.726 8.726 0 0 0 1.678-3.132 8.751 8.751 0 0 0 .046-4.742 8.722 8.722 0 0 0-1.721-3.29zM7.684.8a12.045 12.045 0 0 1 8.47-.06 12.008 12.008 0 0 1 3.77 2.25c-.778.784-1.561 1.563-2.34 2.344a8.668 8.668 0 0 0-5.429-2.027 8.659 8.659 0 0 0-4.082.933 8.726 8.726 0 0 0-4.448 5.407 8.723 8.723 0 0 0 .628 6.31 8.73 8.73 0 0 0 2.395 2.9 8.66 8.66 0 0 0 3.485 1.64 8.733 8.733 0 0 0 4.759-.292 8.69 8.69 0 0 0 2.688-1.534c.78.781 1.563 1.56 2.341 2.344a12.056 12.056 0 0 1-3.083 1.971 12.044 12.044 0 0 1-8.793.349 12.04 12.04 0 0 1-5.897-4.48 11.926 11.926 0 0 1-1.93-4.564A11.996 11.996 0 0 1 4.02 3.038 11.989 11.989 0 0 1 7.685.8z"/></svg>