<svg role="img" viewBox="0 0 24 24" xmlns="http://www.w3.org/2000/svg"><title>OpenSpeedTest</title><path d="M20.815 7.69q-2.243 3.106-4.486 6.218l-.09.126-.083.115c-.441.613-.394 1.062.126 1.377.519.315 1.129.17 1.432-.5 1.094-2.393 2.168-4.793 3.25-7.186l.425-.948zm-3.691 7.293a.338.338 0 0 1-.32.145.394.394 0 0 1-.393-.393.394.394 0 0 1 .394-.394.342.342 0 0 1 .33.177.429.429 0 0 1-.011.465zm5.6-.17c-.5 4.101-3.857 5.148-6.718 4.833-3.616-.393-5.14-3.176-4.888-6.466.272-3.624 3.015-5.336 6.596-5.017a7.139 7.139 0 0 1 .724.087c.342.066.917.216.917.216l-.57.807-.221.307-.484-.087a5.706 5.706 0 0 0-1.968-.059c-2.428.358-3.71 1.779-3.75 4.262-.027 1.77.484 3.349 2.216 4.18 1.806.865 3.628.834 5.285-.37 1.656-1.205 2.164-4.33 1.003-6.25l-.503-.842.519-1.031c1.732 1.492 2.094 3.38 1.842 5.43zm-2.759.583a3.66 3.66 0 0 0-.634-2.597l.394-.787c.763.736.878 2.12.24 3.384zm-2.16-4.809-.603.83c-1.137-.35-2.754.213-3.766 1.669.52-2.153 2.48-3.054 4.368-2.499zM7.327 23.455c-1.794.752-3.537.161-4.635-1.511a9.445 9.445 0 0 1-1.393-4.4C.776 11.937 2.43 6.938 5.69 2.43A5.966 5.966 0 0 1 8.344.273 3.416 3.416 0 0 1 11.83.76a1.39 1.39 0 0 1 .335.315 6.387 6.387 0 0 0-1.2.964c-1.035-.583-1.822.067-2.251.456a6.902 6.902 0 0 0-1.417 1.838c-2.302 4.27-3.73 8.752-3.475 13.66a8.587 8.587 0 0 0 .488 2.557c.327.882.807 1.657 2.153 1.775a4.329 4.329 0 0 0 .866 1.13zM20.04 7.198a12.927 12.927 0 0 0-2.782-4.006c-1.149-1.027-2.038-1.02-3.148 0a7.477 7.477 0 0 0-1.212 1.468c-2.586 4.057-4.329 8.394-4.439 13.278a9.256 9.256 0 0 0 .224 2.53c.445 1.716 1.464 2.338 3.212 1.991a16.56 16.56 0 0 0 3.34-1.204c-.826 1.248-3.073 2.582-4.458 2.716a3.593 3.593 0 0 1-3.542-1.724 8.551 8.551 0 0 1-1.255-4.36 19.448 19.448 0 0 1 1.523-8.831 22.325 22.325 0 0 1 3.935-6.415 7.796 7.796 0 0 1 1.85-1.515c1.743-1.007 3.502-.708 4.8.846C19.23 3.334 19.74 4.96 19.98 6.695z"/></svg>