<svg role="img" viewBox="0 0 24 24" xmlns="http://www.w3.org/2000/svg"><title>Dassault Systèmes icon</title><path d="M12.008 0C10.711 0 9.48.26 8.312.648c-.39.13-.65.26-1.038.455-.325.13-.65.324-.974.519-.908.519-.908.519-1.75 1.232-.455.39-.715.649-1.104 1.038-.648.649-1.816 2.335-2.14 3.048l-.454.974c-.389.973-.779 2.595-.779 3.698v.064c0 1.168-.064 1.816.26 3.049.195.908.518 2.075.972 2.918.065.13.066.196.131.325.065.13.13.194.194.324l.778 1.232c.52.714 1.234 1.493 1.882 2.012.195.13.325.324.52.454l1.167.778c0-.584.454-3.179.583-4.022.195-1.946.325-.713-.583-2.205-.454-.779-.714-1.233-.974-2.141-.454-1.881-.26-3.503.649-5.19l.454-.777C6.43 7.979 7.34 7.07 7.793 6.746c.583-.389.26-.26 1.038-.648 1.427-.714 2.205-.714 3.632-.714.648 0 1.816.325 2.464.584.52.195.974.519 1.363.778.324.195 1.102.908 1.362 1.297.26.39.389.454.713 1.038.714 1.233 1.039 2.855.844 4.282a7.417 7.417 0 0 1-1.038 3.048l-.649.909c-.324.324-.194.194-.064 1.232l.583 4.216c.454-.195 1.817-1.298 2.206-1.687 1.362-1.362 2.4-2.853 3.048-4.735.844-2.594.908-4.67.26-7.394-.13-.52-.52-1.687-.779-2.141l-.778-1.362c-.13-.194-.195-.26-.325-.454-.194-.324-1.037-1.233-1.361-1.557-.844-.779-1.558-1.297-2.53-1.88-.13-.066-.324-.195-.454-.26a15.86 15.86 0 0 0-1.557-.65C14.733.26 13.176 0 12.008 0zm.196 8.758c-1.168 0-1.817.129-2.79.907-.194.195-.714.779-.779 1.038-.194.39-.454.844-.454 1.428l.066-.066c0 .713 0 1.103.259 1.817.195.454.195.453.519.907.454.584.908.844 1.622 1.168L9.154 24h5.709l-1.492-8.108c.195-.13.583-.26.973-.519 1.167-.908 1.687-2.205 1.427-3.761-.065-.26-.13-.39-.26-.65-.454-1.168-1.88-2.204-3.307-2.204z"/></svg>