<svg role="img" viewBox="0 0 24 24" xmlns="http://www.w3.org/2000/svg"><title>OpenSea</title><path d="M12 0C5.37 0 0 5.37 0 12s5.37 12 12 12 12-5.37 12-12S18.63 0 12 0zM5.92 12.4l.05-.08 3.12-4.88c.05-.07.15-.06.19.01.52 1.17.97 2.62.76 3.53-.09.37-.34.88-.61 1.34-.04.07-.07.13-.12.2-.02.03-.05.05-.09.05H6.01c-.08 0-.13-.1-.09-.17zm13.91 1.68c0 .05-.03.08-.06.1-.24.1-1.07.48-1.41.96-.88 1.22-1.55 2.97-3.05 2.97H9.05c-2.22 0-4.01-1.8-4.01-4.03v-.07c0-.06.05-.11.11-.11h3.48c.07 0 .12.06.12.13-.03.23.02.46.12.67.21.42.64.68 1.1.68h1.73v-1.35H9.99c-.09 0-.14-.1-.09-.17l.06-.09c.16-.23.39-.59.62-.99.16-.27.31-.57.43-.86.02-.05.04-.11.06-.16.03-.09.07-.18.09-.27.02-.07.05-.15.06-.22.06-.25.08-.51.08-.79 0-.11 0-.22-.01-.33 0-.12-.02-.24-.03-.35a7.87 7.87 0 0 0-.15-.78l-.01-.06-.09-.32c-.1-.34-.21-.66-.33-.97-.04-.12-.09-.24-.14-.36-.07-.18-.15-.34-.21-.49-.04-.07-.06-.13-.09-.2s-.07-.14-.1-.21c-.02-.05-.05-.1-.07-.15l-.21-.37c-.03-.05.02-.12.08-.1l1.32.36.17.05.19.05.07.02v-.78c0-.38.3-.69.68-.69a.68.68 0 0 1 .68.68v1.16l.14.04c.01 0 .02.01.03.02.03.02.08.06.15.11.05.04.1.09.17.14.13.1.28.24.45.39.04.04.09.08.13.12.21.2.45.43.68.69.06.07.13.15.19.23.06.08.13.16.19.23.08.1.16.21.24.32.03.05.07.11.11.16.1.14.18.29.26.43.03.07.07.14.1.21.09.2.16.4.2.6l.03.13v.01c.01.06.02.12.02.18a2.171 2.171 0 0 1-.1.88c-.03.08-.06.17-.1.25-.07.17-.16.34-.26.5-.03.06-.07.12-.11.18-.04.06-.09.12-.13.18-.06.07-.11.15-.17.22-.05.07-.11.14-.17.21-.08.1-.16.19-.24.28-.05.06-.1.12-.16.17-.05.06-.11.11-.16.16-.08.08-.15.15-.21.2l-.14.12c-.02.02-.05.03-.07.03h-1.05v1.35h1.32c.3 0 .58-.1.8-.3.08-.07.42-.36.82-.8.01-.02.03-.03.05-.03l3.65-1.06c.07-.02.14.03.14.1v.79h-.02z"/></svg>