<svg role="img" viewBox="0 0 24 24" xmlns="http://www.w3.org/2000/svg"><title>OpenCV icon</title><path d="M24 17.8c0 3.4-2.6 6.2-5.7 6.2-3.2 0-5.7-2.8-5.7-6.2 0-2.3 1.1-4.2 2.8-5.3l1.7 3.1c-.7.4-1.2 1.3-1.2 2.2 0 1.4 1.1 2.5 2.4 2.5 1.3 0 2.3-1.1 2.3-2.5 0-.9-.5-1.7-1.2-2.2l1.7-3.1c1.8 1.1 2.9 3.1 2.9 5.3zM5.7 20.4c-1.3 0-2.4-1.1-2.4-2.5s1.1-2.5 2.4-2.5c.3 0 .7.1 1 .2.1 0 .2 0 .2-.1l1.6-3c-.8-.5-1.8-.8-2.8-.8-3.2 0-5.7 2.8-5.7 6.2C0 21.3 2.6 24 5.7 24c3.2 0 5.8-2.9 5.7-6.3H8c.2 1.4-.9 2.7-2.3 2.7zm8.6-14.2c0 .9-.5 1.7-1.2 2.2l1.7 3.1c1.7-1.1 2.8-3.1 2.8-5.3C17.6 2.8 15 0 11.9 0S6.2 2.8 6.2 6.2c0 2.3 1.1 4.2 2.8 5.3l1.7-3.1c-.7-.5-1.1-1.3-1.1-2.2 0-1.4 1.1-2.5 2.4-2.5 1.2 0 2.3 1.1 2.3 2.5z"/></svg>