<svg role="img" viewBox="0 0 24 24" xmlns="http://www.w3.org/2000/svg"><title>OpenTofu</title><path d="m20.498 6.581-7.855 4.317-.46.253a.383.383 0 0 1-.366 0l-.46-.253-7.853-4.316a.377.377 0 0 1 .01-.66l8.303-4.564a.383.383 0 0 1 .366 0l8.303 4.564a.371.371 0 0 1 .188.253l.009-.002-.009.002a.378.378 0 0 1-.176.406Zm-9.71 15.494h-.001l-.005-.003L2.4 17.465a.38.38 0 0 1-.197-.332V8.005a.382.382 0 0 1 .562-.333l8.383 4.608a.378.378 0 0 1 .196.332v9.14a.381.381 0 0 1-.546.329l-.01-.006ZM5.71 15.187l.013-.007.001-.013c.023-.308-.067-.644-.231-.939-.163-.295-.401-.55-.674-.693-.273-.144-.531-.15-.727-.041-.196.108-.328.33-.351.638l-.001.008v.005l.005.008 1.965 1.034Zm3.092 1.785.013-.007.001-.012c.023-.308-.067-.645-.231-.94a1.729 1.729 0 0 0-.674-.693c-.273-.144-.531-.15-.727-.041-.196.108-.328.331-.351.638l-.001.013.005.009 1.965 1.033ZM12.815.209a1.692 1.692 0 0 0-1.63 0L2.882 4.773l-.021.012-1.093.6c-.54.297-.876.866-.876 1.482v10.266c0 .617.335 1.185.876 1.482l8.382 4.607.016.009.017.009 1.002.551a1.692 1.692 0 0 0 1.63 0l1.005-.553.03-.016 8.382-4.607c.54-.297.876-.866.876-1.482V6.867c0-.616-.335-1.184-.876-1.482l-1.089-.598h-.001l-.001-.001-.005-.003-.006-.003-.012-.007L12.815.209Z" style="fill:#f00;fill-rule:nonzero;"/><path d="m20.498 6.581-8.315 4.57a.383.383 0 0 1-.366 0L3.504 6.582a.377.377 0 0 1 .01-.66l8.303-4.564a.383.383 0 0 1 .366 0l8.303 4.564a.371.371 0 0 1 .188.253.378.378 0 0 1-.176.406Zm-9.7 15.5L2.4 17.465a.38.38 0 0 1-.197-.332V8.005a.382.382 0 0 1 .562-.333l8.383 4.608a.378.378 0 0 1 .196.332v9.14a.381.381 0 0 1-.546.329ZM5.71 15.187l.013-.007c.028-.308-.066-.657-.23-.952-.163-.295-.401-.55-.674-.693-.273-.144-.531-.15-.727-.041-.196.108-.336.342-.352.652l.005.007 1.965 1.034Zm3.092 1.785.013-.007c.028-.314-.066-.657-.23-.952a1.729 1.729 0 0 0-.674-.693c-.273-.144-.531-.15-.727-.041-.196.108-.332.336-.352.651l.005.009 1.965 1.033ZM12.815.209a1.692 1.692 0 0 0-1.63 0L1.768 5.385c-.54.297-.876.866-.876 1.482v10.266c0 .617.335 1.185.876 1.482l9.417 5.176a1.692 1.692 0 0 0 1.63 0l1.005-.553.03-.016 8.382-4.607c.54-.297.876-.866.876-1.482V6.867c0-.616-.335-1.184-.876-1.482L12.815.209Z"/></svg>