<svg viewBox="0 0 16 16" xmlns="http://www.w3.org/2000/svg" fill-rule="evenodd" clip-rule="evenodd" stroke-linejoin="round" stroke-miterlimit="1.414"><path d="M5.367 3.492C4.482 4.536 3.91 6.08 3.87 7.812v.376c.04 1.732.612 3.276 1.497 4.32 1.147 1.49 2.853 2.435 4.76 2.435 1.17 0 2.267-.357 3.204-.98C11.917 15.23 10.05 16 8 16c-.128 0-.255-.003-.38-.01C3.377 15.793 0 12.29 0 8c0-4.42 3.582-8 8-8h.03c2.037.008 3.894.777 5.302 2.036-.938-.62-2.034-.98-3.206-.98-1.906 0-3.612.946-4.76 2.436zM16 8c0 2.37-1.03 4.498-2.668 5.963-2.052 1-3.964.3-4.597-.137 2.015-.442 3.538-2.88 3.538-5.826 0-2.948-1.523-5.384-3.538-5.827.632-.436 2.545-1.136 4.597-.137C14.97 3.5 16 5.63 16 8z"/></svg>