<svg role="img" viewBox="0 0 24 24" xmlns="http://www.w3.org/2000/svg"><title>OPNSense icon</title><path d="M20.084 13.811l-1.66-.885h5.255V11.08h-5.26l1.66-.891V8.343l-5.111 2.737v1.846h.005l5.111 2.732zm1.797 2.808v-1.847h-1.297v1.719l-.736-.393-2.481-1.326h-2.4v1.846l3.455 1.846H5.573l3.453-1.846v-1.846H6.632l-2.481 1.326-.736.393v-1.719H2.119v1.847h3.455L.322 19.427V24h20.703c1.248 0 2.297-.89 2.578-2.088v-.001a2.89 2.89 0 0 0 .077-.636v-1.846l-5.255-2.808h3.456zm-1.764 3.688v-.936l1.764.943v.96c0 .072-.027.22-.027.22l-.033.104-.006.005v.006l-.005.011v.006l-.005.011-.005.006-.033.071-.011.017-.022.033-.016.027h-.005l-.013.016-.011.016-.006.006-.011.016-.011.011-.011.016-.011.005v.005l-.027.028-.011.005v.006l-.005.005-.017.016-.017.011-.005.006-.017.011-.017.011v.005l-.028.017-.027.022h-.005l-.017.011-.066.038-.022.005-.011.005-.011.006-.099.033h-.006a.66.66 0 0 1-.209.028H2.119v-1.84l1.83-.979v.972h16.168zm-11.09-7.386V11.08L3.916 8.343v1.846l1.665.891H.321v1.846h5.254l-1.659.885v1.847l5.111-2.732zM2.119 7.386v1.847h1.297V7.508l.736.394 2.486 1.331h2.389V7.386L5.578 5.54h12.841l-3.451 1.846v1.847h2.39l2.486-1.331.736-.394v1.725h1.303V7.386h-3.462l5.259-2.814V0H2.976C1.946 0 1.048.611.608 1.498l-.003.006a3.141 3.141 0 0 0-.04.083l-.008.02-.032.075-.01.025-.029.075-.006.019a2.604 2.604 0 0 0-.087.293v.003a2.77 2.77 0 0 0-.072.629v1.846l5.256 2.814H2.119zm1.797-3.693v.957l-1.797-.962v-.962c0-.072.027-.22.027-.214l.033-.104v-.006l.005-.011.006-.011.005-.017v-.005l.038-.066v-.006l.012-.016.017-.027.005-.005.01-.016h.001l.006-.011.011-.011v-.007l.011-.011v-.006l.005-.005.017-.017h-.006l.011-.005.017-.016.006-.011.027-.027.011-.011.011-.011.017-.011.01-.012v-.006l.011-.005.017-.011.01-.011.027-.022.033-.017v-.005l.017-.005.071-.038.017-.011.011-.006.016-.005.093-.033h.005a.93.93 0 0 1 .214-.027h18.905v1.839l-1.797.961v-.955H3.916z"/></svg>