<svg role="img" viewBox="0 0 24 24" xmlns="http://www.w3.org/2000/svg"><title>OPNSense icon</title><path d="M20.084 15.658l-5.11-2.732h-.006V11.08l5.11-2.737v1.846l-1.659.89h5.26v1.847h-5.255l1.66.885v1.847zm-1.66.961l5.255 2.808v1.847a2.856 2.856 0 0 1-.077.603v.035c-.008.033-.023.064-.032.097a2.745 2.745 0 0 1-.25.61 2.647 2.647 0 0 1-.105.18c-.011.017-.02.036-.03.052l-.007-.003c-.481.695-1.264 1.152-2.154 1.152H.321v-4.572l5.252-2.808H2.12v-1.847h1.297v.885a.5.5 0 0 0 .735.44l2.481-1.325h2.395v1.846l-3.454 1.847h12.85l-3.455-1.846v-1.847h2.4l2.48 1.326a.5.5 0 0 0 .736-.441v-.885h1.297v1.846h-3.457zM3.949 20.307v-.972l-1.83.978v1.84h18.905a.654.654 0 0 0 .209-.027h.006l.098-.033.012-.006.01-.005.022-.005.066-.039.017-.011h.005l.027-.022.028-.017v-.005l.017-.011.016-.01.006-.007.016-.01.017-.017.005-.005v-.006l.01-.005.028-.028v-.005l.011-.006.011-.016.011-.011.011-.017.006-.005.011-.017.011-.016h.005l.017-.028.022-.033.011-.016.033-.071.005-.006.006-.011v-.006l.005-.01v-.006l.006-.006.033-.104s.027-.148.027-.22v-.96l-1.764-.943v.936H3.95zm1.628-12.92L.322 4.571V2.726c0-.205.029-.402.071-.594v-.038c.008-.035.023-.067.033-.101a2.67 2.67 0 0 1 .251-.611c.035-.063.07-.125.11-.184.01-.016.018-.034.029-.05l.005.003C1.304.458 2.088 0 2.976 0h20.703v4.572l-5.26 2.814h3.462v1.847H20.58v-.89a.5.5 0 0 0-.736-.441l-2.486 1.33h-2.39V7.387L18.42 5.54H5.578l3.449 1.846v1.846h-2.39l-2.485-1.33a.5.5 0 0 0-.736.44v.89H2.119V7.388h3.458zm14.507-3.694v.956l1.797-.962v-1.84H2.976a.961.961 0 0 0-.215.027h-.005l-.093.033-.017.006-.01.005-.017.011-.072.038-.016.006v.006l-.033.016-.028.022-.01.01-.017.012-.011.005v.006l-.011.01-.017.012-.01.01-.012.012-.027.027-.006.011-.016.017-.011.005h.005l-.016.017-.006.005v.006l-.01.01v.006l-.011.011-.006.011h-.001l-.01.017-.005.005-.017.028-.011.016v.006l-.038.066v.005l-.006.017-.006.01-.005.012v.005l-.033.104c0-.005-.027.143-.027.215v.962l1.797.962v-.957h16.168zM9.027 12.921V11.08L3.916 8.343v1.846l1.665.89H.321v1.847h5.254l-1.66.885v1.846l5.112-2.73v-.006z"/></svg>