<svg role="img" viewBox="0 0 24 24" xmlns="http://www.w3.org/2000/svg"><title>Oppo</title>
  <g transform="translate(0.000000,134.000000) scale(0.100000,-0.100000)">
	<path d="M783.19,1329.17c-465-48-806-268-782-504c22-210,289-385,692-451c151-25,439-25,589,0c332,55,577,186,667,357
		c35,65,33,166-4,236C1812.19,1222.17,1297.19,1383.17,783.19,1329.17z M1107.19,1194.17c260-46,442-185,443-339
		c2-166-193-306-489-350c-166-25-328-14-501,35c-235,66-367,206-333,353C281.19,1127.17,690.19,1267.17,1107.19,1194.17z"/>
	<path d="M3005.19,1328.17c-43-4-115-16-160-26l-82-17l-3-64c-3-58-1-63,15-57c94,37,293,57,439,45c308-24,531-153,569-326
		c4-21,0-54-10-89c-34-117-173-215-382-271c-85-22-119-26-263-27c-128-1-183,3-245,18c-119,27-227,72-295,122l-60,44v315v315h-175
		h-175v-655v-655h175h175l2,244l3,244l74-30c85-33,229-71,346-90c131-21,446-15,589,11c319,57,545,181,634,346c36,69,38,168,3,239
		C4054.19,1219.17,3513.19,1387.17,3005.19,1328.17z"/>
	<path d="M5243.19,1330.17c-38-5-109-16-157-26l-88-16v-62v-62l73,18c233,59,528,34,724-62c142-70,217-163,217-270
		c1-139-145-262-391-327c-88-23-116-26-273-26s-185,3-272,26c-113,30-204,71-271,122l-47,36v314v315h-170h-170v-655v-655h170h170
		v238c0,131,2,241,5,244c4,3,37-7,74-23c76-32,227-71,346-91c131-21,446-15,590,11c455,82,730,313,651,547c-62,184-308,326-671,390
		C5655.19,1333.17,5338.19,1342.17,5243.19,1330.17z"/>
	<path d="M7378.19,1326.17c-364-47-652-194-732-373c-149-335,440-650,1111-595c588,49,953,324,810,610c-78,157-321,289-629,343
		C7789.19,1337.17,7523.19,1344.17,7378.19,1326.17z M7703.19,1198.17c201-30,376-123,440-233c103-175-47-360-360-441
		c-131-35-362-39-493-11c-175,39-290,90-363,161c-54,53-79,107-79,175c0,130,115,245,314,311
		C7328.19,1215.17,7506.19,1228.17,7703.19,1198.17z"/>
</g></svg> 

