<svg role="img" viewBox="0 0 24 24" xmlns="http://www.w3.org/2000/svg"><title>Oppo</title><path d="M 254.25531,123.02832 V 8.3258619 h 17.8859 17.8857 v 7.5820251 c 0,4.170111 0.064,7.582024 0.1416,7.582024 0.078,0 2.3357,-1.374368 5.0175,-3.054162 31.6368,-19.8160321 77.6264,-25.7830951 118.8751,-15.4238101 37.1618,9.3328941 64.1016,31.4877521 73.6786,60.5920371 5.5965,17.0074 5.2878,35.921174 -0.8545,52.369654 -7.6407,20.46091 -23.3481,36.91163 -46.004,48.18097 -19.8263,9.8619 -42.4622,14.80014 -67.8408,14.80014 -21.0393,0 -40.6612,-3.508 -57.9344,-10.35756 -6.854,-2.71786 -15.6393,-7.17926 -20.9688,-10.64848 l -4.1103,-2.67552 v 40.22878 40.2288 h -17.8857 -17.8859 z m 136.0877,27.43238 c 20.1206,-2.85403 35.7316,-9.2377 47.4362,-19.39771 8.8603,-7.69101 15.0308,-18.37258 17.3684,-30.0656 0.956,-4.782224 0.9587,-16.076154 0.01,-20.844424 -2.7523,-13.76094 -10.6379,-25.78166 -22.4426,-34.21136 -4.7585,-3.39793 -14.4236,-8.238747 -20.593,-10.313995 -17.422,-5.860382 -38.5451,-7.595847 -57.8916,-4.756377 -33.5905,4.930031 -56.2936,21.589222 -62.3849,45.776952 -2.6874,10.67162 -2.2075,22.19226 1.3439,32.261384 8.067,22.87168 31.8541,38.09172 65.4696,41.8903 6.7581,0.76367 25.3142,0.56507 31.689,-0.33917 z m 118.5907,-27.43238 V 8.3258619 h 17.8857 17.8859 v 7.5820251 c 0,4.170111 0.078,7.582024 0.1724,7.582024 0.095,0 2.0633,-1.232605 4.3743,-2.739112 5.3472,-3.485847 15.9027,-8.699437 22.6708,-11.1976101 29.2166,-10.784218 64.8897,-12.523397 96.1081,-4.685594 50.889,12.7763191 80.8571,47.7795211 78.0279,91.1375911 -2.1596,33.096554 -24.1821,60.282694 -60.4056,74.568914 -11.8163,4.66022 -23.9256,7.59902 -39.0805,9.48439 -7.9984,0.99505 -29.5561,0.99355 -37.9062,-0.002 -23.633,-2.81945 -44.382,-9.83727 -60.5591,-20.48245 l -3.4021,-2.23878 v 40.19807 40.19807 h -17.8859 -17.8857 V 123.02823 Z m 136.9527,27.26382 c 27.8671,-4.16163 47.5049,-15.38799 57.8236,-33.05602 5.9933,-10.26198 8.2376,-23.914334 6.0148,-36.589384 -4.6202,-26.34658 -27.7745,-44.577453 -63.2241,-49.780339 -23.3977,-3.434062 -49.8153,-0.01351 -67.7735,8.775379 -18.3319,8.9717 -29.3645,22.36757 -33.1306,40.22731 -0.9886,4.68811 -0.9857,16.74106 0.01,21.336494 2.6672,12.37023 8.6958,22.6051 17.8459,30.29743 12.5989,10.5916 28.996,16.89831 50.2735,19.33632 7.0377,0.80639 25.1665,0.49798 32.1652,-0.54719 z m -539.3834,30.42561 C 87.528008,179.04186 71.332108,175.30368 57.559808,169.42116 26.234808,156.04144 6.4497084,133.4595 1.0803084,104.95751 0.05480842,99.513716 -0.33639158,87.249766 0.32860842,81.389316 4.2060084,47.218306 29.378208,20.152264 69.176108,7.3621129 c 21.1786,-6.806313 47.248102,-9.029696 70.647202,-6.025286 42.8703,5.504484 75.2987,25.3836611 89.552,54.8969591 11.6055,24.03049 10.1328,53.220444 -3.8172,75.660724 -6.2846,10.10949 -16.6312,20.54177 -27.2931,27.51917 -16.5875,10.85525 -36.3995,17.60845 -60.4618,20.6093 -4.8198,0.60109 -26.8294,1.08964 -31.3002,0.69477 z m 25.3748,-29.8816 c 18.6601,-1.98033 34.3574,-7.30719 46.1685,-15.66719 9.6554,-6.83422 17.296,-16.90656 20.7243,-27.32045 2.0068,-6.09557 2.4049,-8.957574 2.4049,-17.286824 0,-8.30475 -0.3923,-11.14296 -2.3835,-17.24283 -6.5446,-20.04895 -25.6873,-34.96216 -52.4347,-40.849636 -23.451,-5.161898 -50.799502,-3.367773 -71.062602,4.661846 -14.6184,5.79282 -26.1572,15.17004 -32.9238,26.7562 -7.1954,12.32016 -8.8278,29.10099 -4.2376,43.562284 4.9456,15.58135 17.9741,28.62171 35.9031,35.93577 9.7655,3.98378 21.8568,6.7595 33.827502,7.76555 4.593,0.38601 19.2172,0.19435 24.0139,-0.31472 z m 737.8825,29.89499 c -0.7485,-0.0853 -3.373,-0.34562 -5.8323,-0.57869 -19.7463,-1.8714 -40.5053,-8.10708 -55.7243,-16.73871 -20.574,-11.6689 -34.9045,-28.25409 -41.4461,-47.96746 -4.4272,-13.34135 -5.1831,-28.334494 -2.124,-42.128174 4.6258,-20.85746 17.3224,-38.56859 37.039,-51.667735 26.0013,-17.2743781 64.232,-24.9465721 101.1376,-20.2964341 30.6614,3.863375 55.9226,15.0775541 73.5,32.6287411 13.3864,13.366458 21.0826,29.028738 23.3072,47.431498 0.57799,4.78249 0.48809,14.45413 -0.1818,19.528574 -4.8241,36.54347 -33.7923,64.47305 -78.1564,75.354 -13.451,3.29906 -21.8944,4.29773 -37.7157,4.46095 -6.8433,0.0706 -13.0547,0.0587 -13.8032,-0.0266 z m 23.5237,-29.71295 c 23.6191,-2.17284 42.87,-9.95668 55.2284,-22.33087 8.3676,-8.37829 13.2245,-17.60139 15.1386,-28.747644 0.7888,-4.59338 0.7776,-14.16809 -0.022,-18.93281 -4.3054,-25.64851 -26.9196,-44.23973 -60.4299,-49.679679 -8.0455,-1.306086 -13.3962,-1.731601 -21.774,-1.731601 -37.5699,0 -66.7207,14.16576 -77.9322,37.871 -3.3418,7.06576 -4.8838,14.35752 -4.8838,23.0951 0,11.529394 2.6871,20.673254 8.7528,29.784574 11.1352,16.72634 32.2528,27.4123 60.2028,30.46386 5.7648,0.62939 19.8968,0.74372 25.7194,0.20807 z"/></svg>