<svg role="img" viewBox="0 0 24 24" xmlns="http://www.w3.org/2000/svg"><title>OpsLevel</title><path d="M21.247 4.86 13.527.41a3.075 3.075 0 0 0-3.07 0L8.115 1.756v6.209l3.104-1.793a1.514 1.514 0 0 1 1.544 0l3.884 2.241c.482.282.764.78.764 1.328v4.482a1.54 1.54 0 0 1-.764 1.328l-3.884 2.241V24l8.483-4.897a3.082 3.082 0 0 0 1.543-2.656V7.532a3.055 3.055 0 0 0-1.543-2.672zM6.589 14.222V2.652L2.754 4.876A3.082 3.082 0 0 0 1.21 7.532v8.915c0 1.095.581 2.108 1.544 2.656L11.237 24v-6.209l-3.885-2.24a1.526 1.526 0 0 1-.763-1.329Z"/></svg>