<svg role="img" viewBox="0 0 24 24" xmlns="http://www.w3.org/2000/svg"><title>OpsLevel icon</title><path d="M12.002 24l-6.079-3.48 2.901-1.68v-4.533L4.91 12.042l-2.465 1.427V7.582L7.408 4.74V2.659L12.001 0l4.592 2.659V4.74l4.965 2.842v5.886l-2.468-1.427-3.913 2.265v4.533l2.903 1.68L12.002 24zm-4.719-3.484l4.719 2.702 4.717-2.7-2.22-1.286v-5.316l4.591-2.659 1.789 1.036V7.976l-4.286-2.453v2.452L12 10.634 7.407 7.975V5.523L3.124 7.975v4.317l1.787-1.035 4.592 2.659v5.316l-2.22 1.284zm.804-12.933L12 9.849l3.913-2.266V3.05L12 .784 8.087 3.05zm3.916 2.963a.34.34 0 0 1-.34-.34V5.48l-4.05-2.33a.34.34 0 0 1 .338-.589l4.05 2.33 4.05-2.33a.34.34 0 0 1 .338.588l-4.047 2.33v4.728a.34.34 0 0 1-.34.34zM4.91 21.889L.318 19.232v-5.316l4.592-2.66 4.593 2.658v5.317zM.997 18.84l3.913 2.264 3.915-2.265v-4.533L4.91 12.04.997 14.307v4.533zm3.915 2.962a.34.34 0 0 1-.34-.34v-4.728l-4.05-2.329a.34.34 0 0 1-.124-.463.34.34 0 0 1 .463-.125l4.05 2.33 4.05-2.33a.34.34 0 0 1 .464.125.34.34 0 0 1-.125.463l-4.048 2.328v4.73a.34.34 0 0 1-.34.34zm14.178.087l-4.592-2.658v-5.316l4.592-2.659 4.592 2.658v5.317zm-3.914-3.05l3.914 2.265 3.913-2.264v-4.534L19.09 12.04l-3.914 2.265zm3.916 2.963a.34.34 0 0 1-.34-.34v-4.727l-4.049-2.33a.34.34 0 1 1 .339-.588l4.049 2.33 4.05-2.33a.34.34 0 1 1 .338.588l-4.048 2.328v4.73a.34.34 0 0 1-.339.34z"/></svg>