<?xml version="1.0" standalone="no"?>
<!DOCTYPE svg PUBLIC "-//W3C//DTD SVG 20010904//EN"
 "http://www.w3.org/TR/2001/REC-SVG-20010904/DTD/svg10.dtd">
<svg version="1.0" xmlns="http://www.w3.org/2000/svg"
 width="222.000000pt" height="210.000000pt" viewBox="0 0 222.000000 210.000000"
 preserveAspectRatio="xMidYMid meet">

<g transform="translate(0.000000,210.000000) scale(0.100000,-0.100000)"
fill="#000000" stroke="none">
<path d="M1025 2089 c-170 -22 -351 -87 -502 -181 -102 -63 -270 -223 -333
-317 -344 -514 -202 -1139 326 -1441 145 -83 393 -150 554 -150 89 0 229 20
320 47 488 140 834 628 807 1137 -14 255 -108 469 -279 632 -220 212 -560 315
-893 273z m400 -168 c271 -75 495 -261 600 -498 67 -149 84 -357 45 -522 -65
-268 -262 -511 -525 -648 -279 -144 -612 -150 -879 -17 -203 102 -377 288
-468 502 -43 98 -58 167 -65 287 -23 434 292 799 782 905 128 28 393 23 510
-9z"/>
<path d="M963 1805 c-355 -64 -647 -315 -718 -619 -90 -379 202 -777 655 -893
129 -33 296 -35 425 -4 461 110 744 587 601 1011 -34 101 -79 172 -168 265
-193 203 -495 294 -795 240z m313 -100 c238 -45 440 -228 510 -461 24 -79 24
-245 0 -334 -23 -88 -86 -215 -135 -273 -133 -159 -332 -248 -561 -251 -138
-1 -194 11 -315 69 -155 74 -278 208 -336 365 -21 56 -24 83 -24 190 0 105 4
136 23 190 39 109 98 198 197 297 80 79 105 98 196 142 160 77 287 96 445 66z"/>
<path d="M962 1520 c-289 -76 -472 -335 -408 -576 59 -222 296 -393 547 -396
151 -1 274 43 375 135 123 112 179 243 172 400 -3 82 -8 102 -41 171 -106 223
-379 336 -645 266z m343 -164 c73 -33 128 -84 163 -151 22 -42 27 -63 27 -130
0 -69 -4 -89 -31 -146 -87 -183 -296 -278 -485 -220 -213 67 -315 272 -224
451 96 188 360 283 550 196z"/>
</g>
</svg>
