<svg role="img" viewBox="0 0 24 24" xmlns="http://www.w3.org/2000/svg"><title>Oracle SQL Developer</title><path d="M 24 18.491 C 24 21.315 21.71 23.605 18.886 23.605 C 16.061 23.605 13.772 21.315 13.772 18.491 C 13.772 15.667 16.061 13.377 18.886 13.377 C 21.71 13.377 24 15.667 24 18.491 Z M 17.085 21.237 L 21.84 18.492 L 17.085 15.746 L 17.085 21.237 Z M 0 10.057 C 0 10.987 4.399 11.745 9.827 11.745 C 15.255 11.745 19.654 10.991 19.654 10.057 L 19.654 12.688 C 19.403 12.655 19.146 12.638 18.886 12.638 C 16.419 12.638 14.31 14.168 13.456 16.331 C 12.334 16.408 11.109 16.45 9.827 16.45 C 4.399 16.45 0 15.696 0 14.761 L 0 10.057 Z M 9.827 23.234 C 4.399 23.234 0 22.48 0 21.545 L 0 16.143 C 0 17.073 4.399 17.831 9.827 17.831 C 10.973 17.831 12.074 17.797 13.097 17.736 C 13.066 17.978 13.051 18.224 13.051 18.473 C 13.051 20.279 13.871 21.893 15.159 22.963 C 13.623 23.134 11.792 23.234 9.827 23.234 Z M 19.654 3.273 L 19.654 8.674 C 19.654 9.604 15.255 10.364 9.827 10.364 C 4.399 10.364 0 9.61 0 8.674 L 0 3.283 C 0 4.213 4.399 4.972 9.827 4.972 C 15.255 4.972 19.654 4.213 19.654 3.273 Z M 19.653 2.089 C 19.653 3.025 15.254 3.783 9.827 3.783 C 4.399 3.783 0 3.025 0 2.089 C 0 1.154 4.399 0.396 9.827 0.396 C 15.254 0.396 19.653 1.154 19.653 2.089 Z"/></svg>