<svg role="img" viewBox="0 0 24 24" xmlns="http://www.w3.org/2000/svg"><title>Oracle icon</title><path d="M9.99 12.453h1.53l-.81-1.3-1.483 2.351h-.675l1.805-2.825a.426.426 0 0 1 .354-.183c.14 0 .271.066.347.178l1.812 2.83h-.675l-.319-.525h-1.548l-.338-.526zm7.016.526v-2.455h-.573v2.695a.28.28 0 0 0 .083.2.293.293 0 0 0 .21.085h2.613l.338-.525h-2.671zm-9.482-.44a1.007 1.007 0 1 0 0-2.015H5.017v2.98h.573V11.05h1.896c.267 0 .48.216.48.483s-.213.482-.48.482l-1.616-.002 1.711 1.491h.833l-1.151-.965h.261zm-4.302-2.015H1.49a1.49 1.49 0 1 0 0 2.98h1.732a1.489 1.489 0 1 0 0-2.98zm-.038 2.455H1.528a.963.963 0 1 1 0-1.93h1.656a.965.965 0 0 1 0 1.93zm10.882.525a1.49 1.49 0 1 1 0-2.98h2.058l-.336.526h-1.683a.964.964 0 1 0 0 1.929h2.066l-.338.525h-1.767zm7.009-.525a.963.963 0 0 1-.928-.702h2.45l.338-.526h-2.788a.966.966 0 0 1 .928-.701h1.681l.34-.526h-2.06a1.49 1.49 0 0 0 0 2.98h1.768l.337-.525h-2.066zm2.328-2.138a.26.26 0 0 1 .262-.262c.147 0 .264.117.264.262a.262.262 0 0 1-.264.264.261.261 0 0 1-.262-.264zm.262.337a.335.335 0 1 0 0-.67.335.335 0 0 0 0 .67zm-.031-.535c.052 0 .073.003.097.012.067.022.074.081.074.105 0 .005 0 .016-.005.03a.096.096 0 0 1-.045.065l-.017.01.086.154h-.083l-.076-.143h-.053v.143h-.073v-.376h.095zm.026.171c.024-.002.047-.002.062-.023a.05.05 0 0 0 .01-.034.053.053 0 0 0-.03-.045c-.016-.007-.033-.007-.068-.007h-.022v.11h.048z"/></svg>