<svg role="img" viewBox="0 0 24 24" xmlns="http://www.w3.org/2000/svg"><title>Organic Maps</title><path d="M22.9948 3.972c.5734 1.5243-2.4945 5.2306-5.419 6.1817-5.2898-1.8321-5.4618 1.2448-9.7912 4.1679 5.1178 3.5385 10.4794.7832 10.379-2.6993-4.0283 2.3077-6.5514 2.5594-7.9993 2.4896 4.874-.9651 10.1353-3.958 11.2376-5.217.001.056.002.1119.002.168C21.404 15.0769 12.1145 24 12.1145 24s-4.8628-4.6563-7.5518-9.5194c-.3759-.005-2.638.8171-3.4723-.2848-.9319-1.2308 2.523-5.3567 5.5192-6.5875 5.3615 2.4337 8.3003-3.8741 9.9776-4.2237-5.003-2.9651-9.9489-1.7483-10.508 2.6573 2.781-1.5804 6.193-2.4755 7.7699-2.4055-4.43.9052-9.5045 4.1818-11.0241 5.4266C2.825 4.0576 6.984 0 12.1145 0c3.034 0 5.7282 1.419 7.4234 3.6138.0001 0 3.0273-.9846 3.4573.3581zm-1.0608.4474c-.3985-.5422-1.7856.0911-1.7856.0911.1941.3256.3683.664.5204 1.0137.1542.3544.286.7205.3936 1.0964 0 0 1.4163-1.4599.8716-2.2012M2.12 13.6842c.4307.586 1.93-.0985 1.93-.0985a9.7 9.7 0 0 1-.5626-1.0957 9.6 9.6 0 0 1-.4254-1.185s-1.5309 1.578-.942 2.3792"/></svg>