<svg role="img" viewBox="0 0 24 24" xmlns="http://www.w3.org/2000/svg"><title>OSGeo</title><path d="M11.43 4.83V0L9.92 2.64a9.61 9.61 0 0 0-7.49 8.79h2.42a7.23 7.23 0 0 1 6.58-6.6ZM4.83 12.57H0l2.64 1.51a9.61 9.61 0 0 0 8.79 7.49v-2.42a7.22 7.22 0 0 1-6.6-6.58ZM19.16 11.43H24l-2.64-1.51a9.61 9.61 0 0 0-8.78-7.49v2.42a7.22 7.22 0 0 1 6.58 6.58ZM12.57 19.16V24l1.51-2.64a9.61 9.61 0 0 0 7.49-8.78h-2.42a7.22 7.22 0 0 1-6.58 6.58ZM15.75 15.62l-2-3 4.57-.76-4.57-.74 2-3-3 2L12 5.6l-.74 4.57-3-2 2 3-4.57.76 4.57.74-2 3 3-2 .74 4.55.76-4.57ZM12 12.43a.55.55 0 1 1 .55-.55.55.55 0 0 1-.55.55Z"/></svg>