<svg role="img" viewBox="0 0 24 24" xmlns="http://www.w3.org/2000/svg"><title>osu! icon</title><path d="M12 0C5.376 0 0 5.376 0 12s5.376 12 12 12 12-5.376 12-12S18.624 0 12 0zm0 1.2c5.968 0 10.8 4.832 10.8 10.8 0 5.968-4.832 10.8-10.8 10.8-5.968 0-10.8-4.832-10.8-10.8C1.2 6.032 6.031 1.2 12 1.2zm7.225 6.696c-.224 0-.458.023-.69.055l.098 4.393c.2.04.407.056.607.056.192 0 .392-.024.6-.056l.088-4.393a4.23 4.23 0 00-.703-.055zM6.008 9.648c-.376 0-.713.064-.985.192a2.03 2.03 0 00-.687.52c-.184.215-.32.48-.416.777a3.346 3.346 0 00-.137.959c0 .344.04.657.137.953.096.296.232.551.416.767.176.216.407.392.687.512.28.12.609.184.985.184s.712-.056.984-.184c.288-.12.52-.296.703-.512.192-.216.328-.471.416-.767.088-.296.137-.61.137-.953 0-.344-.049-.663-.137-.96a2.267 2.267 0 00-.416-.777 1.991 1.991 0 00-.703-.52 2.35 2.35 0 00-.984-.19zm4.904.008c-.568 0-1.008.127-1.336.383-.328.264-.488.616-.488 1.072 0 .376.087.658.28.85.183.184.448.328.784.424l.584.15c.152.048.272.104.36.168.088.064.129.169.129.313a.36.36 0 01-.088.248.671.671 0 01-.21.152.974.974 0 01-.27.08 1.698 1.698 0 01-.272.024c-.192 0-.377-.015-.553-.055a3.732 3.732 0 01-.56-.178 3.117 3.117 0 00-.176.48c-.048.16-.08.329-.088.489.128.048.247.089.351.121.112.032.216.054.329.078.111.024.223.04.343.049.12.008.249.016.393.016.32 0 .607-.04.855-.12.248-.088.465-.192.64-.336.177-.136.305-.304.401-.496a1.45 1.45 0 00.135-.617c0-.208-.022-.39-.078-.543a1.099 1.099 0 00-.568-.633 2.362 2.362 0 00-.457-.175l-.512-.153a1.283 1.283 0 01-.344-.15c-.08-.056-.119-.153-.119-.281 0-.144.056-.24.168-.303.112-.064.27-.098.47-.098.185 0 .37.017.546.065.168.048.326.104.47.16a2.523 2.523 0 00.256-.928 3.925 3.925 0 00-1.375-.256zm3.024.057c-.214 0-.418.023-.631.055v2.503c0 .496.063.898.191 1.194.12.296.288.528.504.68.216.152.464.254.744.302a5.213 5.213 0 001.863-.023 6.9 6.9 0 00.76-.192V9.768a3.503 3.503 0 00-.638-.055c-.208 0-.417.023-.633.055V13.4c-.152.04-.337.065-.56.065a1.36 1.36 0 01-.425-.057.653.653 0 01-.302-.201.862.862 0 01-.176-.375c-.04-.16-.057-.36-.057-.607V9.768a3.524 3.524 0 00-.64-.055zm-7.928.935c.336 0 .577.127.72.375.145.248.215.609.215 1.073 0 .464-.07.824-.214 1.072-.144.248-.385.377-.721.377-.328 0-.567-.121-.711-.377-.144-.248-.217-.608-.217-1.072 0-.464.073-.825.217-1.073.144-.248.383-.375.71-.375zm13.217 2.383c-.216 0-.433.025-.657.057-.04.224-.056.448-.056.664 0 .216.024.432.056.656.224.032.44.049.664.057.208 0 .433-.025.657-.057.04-.224.054-.44.054-.664 0-.208-.022-.432-.054-.656a3.786 3.786 0 00-.664-.057z"/></svg>