<svg role="img" viewBox="0 0 24 24" xmlns="http://www.w3.org/2000/svg"><title>Overleaf icon</title><path d="m7.3606 6.0269a11.689 11.689 0 00-5.6957 9.6089 8.3705 8.3705 0 1011.358-7.8254 7.7263 7.7263 0 00-2.9709-.56216 12.35 12.35 0 00-4.2113 4.8715 5.4976 5.4976 0 114.1943 9.0297 5.4976 5.4976 0 01-4.1933-1.9306 6.604 6.604 0 01-1.5855-5.5647c1.0733-6.4219 8.7666-10.12 14.462-11.556a59.188 59.188 0 00-7.5943 4.3753c6.8851 2.6578 7.9914-3.1369 11.21-5.7297-3.203-1.2544-14.958-1.7165-14.974 5.2846z"/></svg>