<?xml version="1.0" encoding="UTF-8"?> <svg role="img" id="Layer_1" data-name="Layer 1" xmlns="http://www.w3.org/2000/svg" viewBox="0 0 24 24"> <title>Overseerr</title> <path class="cls-1" d="M12,0C5.37,0,0,5.37,0,12s5.37,12,12,12,12-5.37,12-12S18.63,0,12,0ZM6.31,10.94c.55,1.22,1.77,2.06,3.19,2.06,1.93,0,3.5-1.57,3.5-3.5,0-1.42-.85-2.64-2.06-3.19.65-.2,1.34-.31,2.06-.31.1,0,.2,0,.3,0,.06,0,.11,0,.17.01.06,0,.12,0,.18.01.06,0,.11.01.17.02.06,0,.12.01.18.02.06,0,.11.02.16.03.06,0,.12.02.18.03.05.01.11.02.16.03.06.01.12.03.17.04.05.01.11.03.16.04.06.02.11.03.17.05.05.02.1.03.16.05.06.02.11.04.17.06.05.02.1.04.15.06.05.02.11.04.16.06.05.02.1.04.15.06.05.02.11.05.16.07.05.02.1.05.14.07.05.03.1.05.16.08.05.03.09.05.14.08.05.03.1.06.15.09.05.03.09.05.14.08.05.03.1.06.15.09.04.03.09.06.13.09.05.03.09.07.14.1.04.03.09.06.13.1.05.04.09.07.14.11.04.03.08.07.12.1.04.04.09.08.13.11.04.04.08.07.12.11.04.04.08.08.13.12.04.04.08.07.11.11.04.04.08.08.12.13.04.04.07.08.11.12.04.04.08.09.11.13.03.04.07.08.1.12.04.05.07.09.11.14.03.04.06.08.1.13.03.05.07.1.1.14.03.04.06.09.09.13.03.05.06.1.1.15.03.04.06.09.08.13.03.05.06.1.09.15.03.05.05.09.08.14.03.05.05.11.08.16.02.05.05.09.07.14.03.05.05.11.07.16.02.05.04.09.06.14.02.06.05.11.07.17.02.05.04.1.06.14.02.06.04.12.06.18.02.05.03.1.05.15.02.06.04.12.05.18.01.05.03.1.04.15.02.06.03.13.04.19.01.05.02.1.03.15.01.07.02.13.04.2,0,.05.02.09.02.14.01.07.02.14.03.21,0,.05.01.09.02.14,0,.08.01.16.02.24,0,.04,0,.07,0,.11,0,.12,0,.24,0,.36,0,3.87-3.13,7-7,7,0,0,0,0,0,0-.12,0-.24,0-.36,0-.04,0-.08,0-.12,0-.08,0-.16,0-.23-.02-.05,0-.09-.01-.14-.02-.07,0-.14-.02-.2-.03-.05,0-.1-.02-.15-.03-.06-.01-.13-.02-.19-.03-.05-.01-.1-.02-.15-.03-.06-.01-.12-.03-.18-.04-.05-.01-.1-.03-.15-.04-.06-.02-.12-.03-.18-.05-.05-.02-.1-.03-.15-.05-.06-.02-.12-.04-.17-.06-.05-.02-.1-.04-.15-.06-.06-.02-.11-.04-.17-.07-.05-.02-.1-.04-.15-.06-.05-.02-.11-.05-.16-.07-.05-.02-.1-.05-.14-.07-.05-.03-.1-.05-.16-.08-.05-.03-.09-.05-.14-.08-.05-.03-.1-.06-.15-.09-.05-.03-.09-.06-.14-.09-.05-.03-.1-.06-.15-.09-.04-.03-.09-.06-.13-.09-.05-.03-.09-.07-.14-.1-.04-.03-.09-.06-.13-.1-.05-.04-.09-.07-.13-.11-.04-.03-.08-.07-.12-.1-.04-.04-.09-.07-.13-.11-.04-.04-.08-.07-.12-.11-.04-.04-.08-.08-.12-.12-.04-.04-.08-.08-.11-.12-.04-.04-.08-.08-.12-.12-.04-.04-.07-.08-.11-.12-.04-.04-.07-.08-.11-.13-.03-.04-.07-.08-.1-.13-.04-.04-.07-.09-.11-.13-.03-.04-.07-.09-.1-.13-.03-.05-.07-.09-.1-.14-.03-.04-.06-.09-.09-.14-.03-.05-.06-.09-.09-.14-.03-.05-.06-.09-.08-.14-.03-.05-.06-.1-.08-.15-.03-.05-.05-.1-.08-.14-.03-.05-.05-.1-.08-.15-.02-.05-.05-.1-.07-.15-.02-.05-.05-.1-.07-.16-.02-.05-.04-.1-.06-.15-.02-.05-.04-.11-.06-.16-.02-.05-.04-.1-.06-.16-.02-.05-.04-.11-.06-.16-.02-.05-.03-.11-.05-.16-.02-.06-.03-.11-.05-.17-.01-.05-.03-.11-.04-.16-.01-.06-.03-.11-.04-.17-.01-.06-.02-.11-.03-.17-.01-.06-.02-.12-.03-.17,0-.06-.02-.11-.03-.17,0-.06-.02-.12-.02-.18,0-.06-.01-.11-.02-.17,0-.06,0-.12-.01-.18,0-.06,0-.11-.01-.17,0-.1,0-.2,0-.3,0-.72.11-1.41.31-2.06Z"/> </svg>