<svg role="img" viewBox="0 0 24 24" xmlns="http://www.w3.org/2000/svg"><title>Oxc</title><path d="M12.001 0c-1.33 0-2.487.933-2.768 2.233a2.83 2.83 0 0 0 1.271 2.993l-.029.84h.494l-3.22.243a.95.95 0 0 0-.872.944v.864a.95.95 0 0 0 .872.944l2.62.2-.134 5.12c-.022.827-.108 1.728-.355 2.406-.146.403-.473 1.28-1.654 1.28-.277 0-.723-.213-1.173-.628-.31-.284-.604-.657-.877-1.048 1.02-.344.864-1.152.418-1.447v-.001c-1.027-.678-1.834-1.585-2.325-2.62a.76.76 0 0 0-.652-.432.76.76 0 0 0-.693.417c-.468.976-1.182 2.95-.787 5.343.056.337.581.979 1.347.323.8 1.9 2.195 3.345 3.687 4.337C8.852 23.431 10.643 24 12 24c1.36 0 3.15-.57 4.832-1.69 1.492-.994 2.886-2.438 3.685-4.338.613.572 1.271.167 1.35-.326a9.04 9.04 0 0 0-.785-5.334.76.76 0 0 0-.695-.418.76.76 0 0 0-.65.434c-.49 1.033-1.293 1.939-2.314 2.616-.028.018-1.007.905.406 1.442-.274.392-.57.767-.88 1.052-.45.416-.896.629-1.173.629q-.226 0-.447-.05h-.002c-.627-.137-.96-.551-1.207-1.23-.246-.678-.332-1.58-.354-2.406l-.134-5.12 2.62-.202a.95.95 0 0 0 .872-.94V7.25a.95.95 0 0 0-.871-.94l-.001-.001-3.22-.243h.494l-.03-.84a2.83 2.83 0 0 0 1.272-2.993A2.84 2.84 0 0 0 12 0m0 2.021c.453 0 .81.356.81.81a.8.8 0 0 1-.81.808.8.8 0 0 1-.809-.809c0-.453.356-.809.809-.809m2.282.81a.01.01 0 0 1 .01.01 2.29 2.29 0 0 1-1.346 2.075l.065 1.69-.784.732A.135.135 0 0 1 12 7.239V4.853c0-.149.121-.269.27-.283 1.034-.108 1.86-.823 2-1.73a.01.01 0 0 1 .012-.01M7.416 7.683h4.325c.096 0 .144.117.075.185l-.894.894-3.256-.25a.27.27 0 0 1-.25-.269Zm4.787 0h4.383v.444a.404.404 0 0 1-.364.402l-3.142.233.148 5.632c.046 1.7.32 3.79 1.982 4.15q.276.062.557.061a.67.67 0 0 0-.492.219c-.657.782-1.402 1.57-2.504 1.925 2.25.105 5.155-1.06 6.672-4.564.73-1.683.89-3.589.934-3.672v-.001a.121.121 0 0 1 .212.013q.285.598.479 1.23a8.4 8.4 0 0 1 .267 3.805c-.027.162-.228.22-.347.105a8 8 0 0 0-.708-.604c-1.353 4.264-5.88 6.399-8.279 6.399V7.887c0-.112.09-.203.202-.203"/></svg>