<svg role="img" viewBox="0 0 24 24" xmlns="http://www.w3.org/2000/svg"><title>p5.js icon</title><path d="M1.367 9.128v.782h.035c.07-.109.161-.22.274-.332.113-.113.251-.214.415-.304a2.552 2.552 0 011.25-.31 2.627 2.627 0 011.96.853c.241.265.428.576.56.934.133.358.199.743.199 1.156 0 .412-.064.8-.193 1.161a2.85 2.85 0 01-.548.946 2.636 2.636 0 01-.864.642c-.339.16-.722.24-1.15.24-.397 0-.761-.083-1.092-.246a1.856 1.856 0 01-.764-.666h-.024v3.55h-1.4V9.127zm3.269 2.779c0-.218-.034-.434-.1-.648a1.816 1.816 0 00-.297-.578 1.5 1.5 0 00-.502-.415 1.526 1.526 0 00-.712-.157c-.257 0-.487.054-.69.163a1.767 1.767 0 00-.519.42 1.791 1.791 0 00-.327.584 1.966 1.966 0 000 1.302 1.803 1.803 0 00.327.578 1.683 1.683 0 00.52.414c.202.105.432.158.689.158a1.48 1.48 0 001.214-.584c.132-.171.231-.366.297-.584a2.243 2.243 0 00.1-.653zM18.29 8.86v6.21c0 .334-.028.651-.082.95-.055.3-.158.56-.31.783a1.62 1.62 0 01-.618.531c-.261.132-.601.198-1.022.198a2.67 2.67 0 01-.35-.023 3.5 3.5 0 01-.28-.047l.117-1.19a1.758 1.758 0 00.385.047.75.75 0 00.397-.094.626.626 0 00.233-.257c.055-.109.09-.235.105-.38.016-.143.024-.297.024-.46V8.86zm4.774 1.761a1.618 1.618 0 00-.513-.426 1.446 1.446 0 00-.713-.18c-.225 0-.431.046-.618.14a.482.482 0 00-.28.466c0 .218.103.372.309.461.206.09.508.182.905.275.21.047.422.109.636.187.214.077.409.18.584.31a1.526 1.526 0 01.426.478c.109.19.163.422.163.694 0 .343-.064.633-.192.87-.129.238-.3.43-.514.578a2.164 2.164 0 01-.747.321 3.876 3.876 0 01-.882.1 3.5 3.5 0 01-1.272-.24 2.688 2.688 0 01-1.028-.683l.923-.864c.155.203.358.37.607.502.249.133.525.199.829.199.1 0 .204-.012.31-.035a1.05 1.05 0 00.29-.111.606.606 0 00.217-.205.578.578 0 00.081-.315c0-.233-.107-.4-.32-.502-.215-.101-.536-.202-.964-.303a4.625 4.625 0 01-.613-.181 2 2 0 01-.53-.292 1.347 1.347 0 01-.374-.45c-.094-.179-.14-.4-.14-.665 0-.311.064-.58.192-.805a1.656 1.656 0 01.508-.555c.21-.144.447-.251.712-.321a3.177 3.177 0 01.817-.105c.405 0 .8.07 1.185.21.385.14.69.354.917.642zm-8.272 2.925l.834-.252.164.504-.831.283.516.732-.435.315-.543-.719-.529.7-.422-.322.516-.706-.838-.302.164-.505.841.271v-.87h.563v.87zm-2.882-2.639a2.304 2.304 0 00-.601-.817 2.673 2.673 0 00-.905-.508 3.51 3.51 0 00-1.127-.175c-.148 0-.313.008-.496.024a2.43 2.43 0 00-.473.082l.082-1.787h3.374v-1.26H7.06l-.14 4.517a3.48 3.48 0 01.426-.175 6.55 6.55 0 01.49-.146 4.478 4.478 0 01.514-.099 3.773 3.773 0 01.496-.035c.226 0 .448.025.666.076.218.05.414.14.59.268.174.129.316.298.425.508.11.21.164.475.164.794 0 .25-.041.473-.123.671a1.41 1.41 0 01-.332.496 1.44 1.44 0 01-.49.304c-.188.07-.386.105-.596.105-.374 0-.697-.1-.97-.298a1.628 1.628 0 01-.583-.788l-.015.006-1.014.95c.205.334.47.614.796.836.474.323 1.058.485 1.75.485a3.41 3.41 0 001.168-.199 2.699 2.699 0 001.605-1.489c.16-.361.24-.771.24-1.23 0-.421-.072-.792-.216-1.116z"/></svg>
