<svg role="img" viewBox="0 0 24 24" xmlns="http://www.w3.org/2000/svg"><title>Packagist icon</title><path d="M8.653 21.66c.088-.182.198-.35.298-.524.211-.368.426-.733.637-1.102.066-.116.06-.118-.03-.214-.172-.181-.34-.367-.516-.545-.23-.234-.482-.446-.701-.692a10.74 10.74 0 0 0-.678-.71.447.447 0 0 1-.133-.207 6.038 6.038 0 0 0-.348-.842c-.012-.026-.027-.05-.025-.082.024-.41-.093-.798-.199-1.187l-.12-.436c-.01-.038-.018-.059-.07-.054a.299.299 0 0 1-.223-.087.593.593 0 0 1-.17-.256c-.092-.272-.235-.52-.367-.773-.09-.174-.18-.348-.257-.528-.02-.046-.046-.063-.096-.064-.14-.002-.279-.005-.41.065a.349.349 0 0 1-.146.03 3.716 3.716 0 0 1-.698-.035 2.767 2.767 0 0 0-.27-.022c-.038-.002-.062-.015-.08-.05-.053-.097-.12-.19-.161-.291-.09-.222-.27-.234-.435-.217-.226.023-.451.076-.68.057a3.63 3.63 0 0 1-.777-.146c-.162-.05-.21-.14-.201-.313.005-.098-.037-.191-.063-.285a7.202 7.202 0 0 1-.23-1.258c-.023-.25.048-.483.12-.716.175-.566.402-1.113.633-1.658a.34.34 0 0 0 .026-.123l.06-1.357c.017-.384.032-.767.052-1.15.021-.428.041-.856.075-1.284.01-.127.02-.255.034-.382a.62.62 0 0 1 .21-.403c.491-.459 1.087-.741 1.678-1.031a36.076 36.076 0 0 1 1.963-.902c.176-.073.38-.093.568.034.276.187.563.358.843.539.043.027.075.03.122.008.397-.19.796-.376 1.195-.564a.318.318 0 0 0 .1-.077c.247-.272.486-.549.708-.842.122-.161.297-.264.45-.392.326-.273.705-.44 1.104-.571a.4.4 0 0 1 .125-.017c.237 0 .473-.009.71 0 .319.012.623.102.916.227.026.01.058.026.07.05.053.1.145.13.243.161.092.029.166.092.244.147.435.309.853.64 1.276.965.102.078.218.118.335.16.357.125.717.248 1.076.368.058.02.102.048.14.096.129.166.266.325.408.48.075.082.158.094.258.074.362-.073.712-.19 1.062-.307.055-.019.109-.031.16-.005.066.034.13.025.2.017.19-.025.38.01.568.037.288.041.574.092.862.136.05.007.083.026.11.073.337.595.674 1.19 1.015 1.782.083.145.177.284.273.42.06.086.1.173.106.277.015.234.033.468.051.701.053.662.036 1.327.067 1.99.008.18.012.36.042.54.012.074.06.128.085.195.11.297.206.6.3.902.106.34.21.681.315 1.022.032.101.026.206.03.309a8.3 8.3 0 0 1 .005.575c-.008.213-.065.419-.103.627-.063.355-.133.708-.199 1.063a.131.131 0 0 1-.066.1c-.26.153-.517.309-.775.466a.176.176 0 0 1-.104.027c-.191-.008-.382-.012-.573-.024-.05-.003-.068.01-.084.056-.053.15-.08.307-.115.462-.014.06-.042.074-.095.082-.456.075-.915.132-1.368.225a1.526 1.526 0 0 0-.626.31c-.188.145-.257.346-.306.566-.12.546-.225 1.095-.33 1.643-.05.269-.153.51-.285.745a25.11 25.11 0 0 1-.865 1.428c-.084.128-.192.24-.291.358-.028.033-.039.061-.027.106.192.72.383 1.441.573 2.162l.02.074-.665-.276c.038.147.068.28.107.412.063.21.105.426.15.64.01.047-.003.056-.045.052-.196-.015-.392-.027-.587-.044-.121-.01-.122-.015-.154.103-.107.392-.216.784-.32 1.178-.013.051-.034.062-.08.06a44.108 44.108 0 0 1-1.041-.06c-.193-.013-.387-.028-.58-.022-.061.002-.112.031-.166.052a.399.399 0 0 1-.32 0c-.139-.06-.297-.044-.447-.05-.767-.03-1.534-.008-2.3 0-.065 0-.094-.01-.108-.084-.046-.245-.111-.485-.158-.73a.874.874 0 0 0-.063-.215c-.017-.037-.04-.051-.079-.043-.414.08-.838.106-1.248.22-.021-.033.004-.066.011-.096a.371.371 0 0 0 0-.233c-.013-.032.005-.062.017-.09l.457-1.03.021-.051c.013-.032-.004-.058-.022-.08-.015-.018-.038 0-.056.006l-.54.18a.06.06 0 0 0-.009-.012zM14.66 6.816c.051-.05.1-.1.154-.148a.806.806 0 0 1 1.237.171.674.674 0 0 1 .093.564.653.653 0 0 1-.2.325.912.912 0 0 0 .679-.562.622.622 0 0 0-.063-.586 1.541 1.541 0 0 0-.398-.42.915.915 0 0 0-.498-.19c-.428-.015-.862.312-.989.74-.01.034-.029.069-.014.107l-.012.003.002.007.009-.011zM6.907 5.703l.01-.022a.63.63 0 0 0 .076-.164c.19-.702.836-1.145 1.541-1.163.24-.007.477.012.713.05.29.046.561.142.793.332.255.208.402.489.52.787.116.296.165.602.101.92a1.913 1.913 0 0 1-.247.606c-.001.007-.006.017-.004.019.008.005.013 0 .015-.009l.798-.345a.74.74 0 0 1 .213-.057c.34-.038.676.018 1.01.073.31.051.616.125.927.164.265.033.484.14.675.32.025.023.052.044.088.074a6.608 6.608 0 0 1-.053-.45 3.18 3.18 0 0 1 .148-1.226c.084-.271.217-.51.474-.662.297-.176.61-.31.947-.389.215-.05.433-.078.653-.037.318.059.581.23.827.431.098.08.185.171.281.267-.015-.243-.03-.471-.043-.7-.012-.21-.021-.42-.035-.63-.003-.053.015-.08.062-.104.159-.084.316-.171.47-.263.056-.032.1-.035.145.012.03.03.07.037.107.045.46.098.918.196 1.378.29.053.01.083.033.109.078.211.358.426.715.649 1.066.108.17.21.344.292.528.019.043.04.087.04.136.001.09-.069.121-.133.15-.06.027-.062-.042-.08-.071-.235-.364-.466-.729-.696-1.095a.147.147 0 0 0-.081-.069l-1.39-.45c-.115-.037-.117-.037-.171.075a2.984 2.984 0 0 0-.252.865 6.836 6.836 0 0 0-.048 1.164c.004.194.045.377.23.486.051.03.087.069.12.113.115.15.231.299.343.45.197.267.39.537.556.825.072.125.11.252.105.4-.012.357-.027.715-.011 1.071.012.27-.05.5-.204.721-.16.231-.308.471-.493.684a.713.713 0 0 1-.447.265c-.12.016-.18.121-.268.184-.006.004-.002.025 0 .037.02.164.024.33.021.495 0 .051.014.052.06.042.25-.05.502-.08.758-.069.217.01.43.042.63.138.047.022.072.048.083.103.022.107.003.213.014.319.024.253.046.326.298.355.233.026.46.073.638.246l.21.207c.02.021.038.04.072.039.215-.003.43-.003.645-.004a.429.429 0 0 0 .374-.104c.075-.066.16-.122.247-.174.063-.038.085-.09.097-.159.08-.451.167-.901.247-1.353.022-.127.057-.254.049-.385a4.133 4.133 0 0 0-.027-.286c-.028-.219-.023-.44-.079-.656-.123-.47-.22-.95-.48-1.373a.221.221 0 0 1-.027-.082c-.031-.218-.076-.433-.087-.655-.023-.473-.06-.946-.09-1.419-.029-.47-.056-.941-.084-1.412.024-.084-.028-.134-.075-.194-.173-.222-.327-.458-.484-.691l-.932-1.386c-.016-.063-.07-.07-.122-.081-.259-.05-.52-.093-.78-.135a2.016 2.016 0 0 0-1.11.128.14.14 0 0 1-.111.003.357.357 0 0 0-.255-.002 1.998 1.998 0 0 0-.398.21c-.05.034-.079.032-.11-.02a2.036 2.036 0 0 0-.775-.721c-.026-.014-.049-.032-.074-.048-.229-.147-.455-.299-.72-.374-.203-.058-.404-.121-.608-.176-.456-.122-.458-.118-.794-.447-.275-.27-.544-.547-.815-.821-.024-.025-.045-.045-.086-.045a18.906 18.906 0 0 0-1.938.082.384.384 0 0 0-.218.084c-.174.144-.353.282-.53.42-.414.32-.735.72-1.013 1.158a.352.352 0 0 1-.173.14c-.186.086-.37.176-.556.265-.046.02-.09.044-.139.058-.18.049-.363.087-.541.143a.57.57 0 0 1-.47-.055 4.909 4.909 0 0 1-.54-.333.716.716 0 0 0-.222-.119c-.273-.078-.536-.07-.782.095-.237.16-.501.269-.748.41-.184.093-.37.183-.552.278-.325.17-.661.318-.972.518-.248.16-.448.35-.547.634-.015.042-.037.082-.058.122a2.02 2.02 0 0 0-.23 1.035c.008.323-.003.645-.01.968-.008.412-.024.825-.007 1.238.004.083.013.162.035.243.04.147.011.3-.027.441-.108.406-.236.806-.348 1.21-.115.413-.295.806-.351 1.235-.013.097-.042.196-.03.291.032.274.082.545.124.818.015.11.03.22.043.331.02.175.094.315.263.387a.775.775 0 0 0 .494.054c.27-.064.533-.148.807-.195.158-.027.29 0 .394.138.11.145.194.303.28.461a.175.175 0 0 0 .149.101c.338.035.67.01.997-.087.04-.012.044-.029.036-.068a2.246 2.246 0 0 1-.034-.643c.022-.273.07-.541.132-.808.003-.011.003-.03-.004-.036-.008-.006-.01.038-.03.012-.009-.011-.008-.03-.01-.046a1.7 1.7 0 0 0-.24-.659c-.217-.327-.37-.683-.519-1.043a.798.798 0 0 1-.052-.373c.003-.034.01-.068.013-.103a2.94 2.94 0 0 1 .24-.958c.109-.242.288-.43.463-.624a.798.798 0 0 0 .209-.436c.029-.213.058-.426.081-.64.03-.275.057-.55.092-.824.022-.17.016-.345.072-.511.144-.429.284-.859.428-1.287.018-.052.008-.073-.04-.095-.18-.083-.357-.17-.536-.253a.576.576 0 0 0-.222-.055c-.515-.02-.977.143-1.401.424-.176.117-.324.272-.349.491-.014.126-.068.226-.12.331-.043.09-.09.18-.135.27l-.136.265c-.093-.114-.147-.232-.091-.366.117-.28.19-.572.26-.864a.517.517 0 0 1 .307-.377c.248-.112.49-.236.737-.348.422-.193.87-.302 1.325-.382.163-.029.324-.04.474.063.18.126.33.282.475.447.03.035.032.064.017.105-.158.437-.316.874-.47 1.313-.074.211-.164.42-.197.643-.056.372-.06.748-.054 1.124.004.206-.006.415.053.618.055.186.048.207-.113.312l-.04.026c-.424.25-.721.619-.97 1.034a.515.515 0 0 0-.069.314c.03.34.122.662.305.95.155.245.32.482.482.722.01.016.016.04.045.04.095-.175.193-.348.32-.502.145-.174.33-.297.518-.419.043-.025.085-.052.13-.075.076-.04.11-.102.126-.187.052-.283.144-.552.285-.803.122-.216.276-.403.499-.523l.275-.145a1.241 1.241 0 0 1-.224-.092.844.844 0 0 1-.191-.141 3.526 3.526 0 0 1-.671-.905c-.204-.407-.316-.827-.144-1.278l-.001.001zm1.525 1.881l.001.01.006-.001-.008-.008a.953.953 0 0 1-.016-.549.86.86 0 0 1 .74-.633c.332-.042.594.1.779.423.005.009.006.027.028.02-.007-.24-.056-.467-.204-.66-.204-.265-.472-.407-.81-.347-.492.087-.911.57-.942 1.069-.01.17.011.337.11.481.075.11.173.193.316.195zm2.314 15.968c.004.046.025.061.075.061l4.123.03c.066 0 .136-.01.189.064.007-.059.028-.098.02-.142.026-.16.048-.32.082-.478.03-.142-.005-.296.082-.429.03-.045-.018-.036-.04-.037-.103-.008-.206-.013-.309-.02l-.807-.06c-.219-.016-.437-.029-.653-.072-.115-.022-.228-.062-.35-.043-.14.022-.283.033-.425.05-.193.024-.387.055-.58.072-.076.006-.127.064-.198.07l-.34.033c-.322.033-.646.064-.969.098-.16.018-.16.02-.127.18a.184.184 0 0 0 .026.066c.115.168.16.361.2.557zm3.439-1.426c.22.058.436.134.666.146.217.01.433.029.65.042.189.011.378.02.569.03-.011-.045-.02-.087-.041-.124l-.24-.766c-.011-.037-.035-.055-.071-.066-.091-.027-.184-.05-.27-.089a.292.292 0 0 0-.272.014.778.778 0 0 1-.35.09c-.37.01-.74.023-1.112.032a64.31 64.31 0 0 0-.905.03c-.42.016-.842.024-1.262.036a.327.327 0 0 1-.16-.037c-.059-.029-.111-.075-.181-.075l-1.313.002c-.056-.012-.087.005-.113.063-.158.36-.323.718-.484 1.077-.009.019-.03.038-.015.066l.298-.04.941-.134c.317-.045.632-.1.95-.136.375-.043.755-.048 1.13-.099l.43-.061c.175-.016.35-.037.527-.047.21-.012.422-.013.628.046zm.654-14.002l-.018-.006.003.019c.107.162.242.295.4.406a.429.429 0 0 0 .216.092.79.79 0 0 1 .34.123c.348.192.672.421.995.652.027.02.038.041.04.073.009.116.022.233.026.35.007.178.005.357.177.472a.028.028 0 0 1 .01.012c.147.176.264.373.385.566.03.048.055.053.105.032.108-.048.217-.1.331-.127.231-.056.374-.2.484-.403.152-.281.323-.552.41-.865.047-.172.014-.35.038-.524a.435.435 0 0 0-.08-.311c-.297-.462-.597-.921-.859-1.404-.071-.132-.098-.14-.215-.04a1.31 1.31 0 0 0-.12.118 3.46 3.46 0 0 0-.259.333c-.02.029-.038.057-.069.076a4.86 4.86 0 0 1-1.012.5c-.262.088-.52.115-.789.009a2.92 2.92 0 0 0-.539-.153zm2.61 7.156l-.009.001a4.47 4.47 0 0 0-1.193 1.042c-.02.025-.03.056-.042.084-.08.17-.164.338-.317.45-.31.23-.623.45-.936.674a.488.488 0 0 0-.117.118c-.125.178-.235.366-.347.552a.214.214 0 0 1-.09.085c-.176.09-.352.18-.525.277a.381.381 0 0 1-.18.045c-.37.012-.738.005-1.107.027a2.958 2.958 0 0 1-1.288-.202 172.08 172.08 0 0 1-.046-.005c-.057-.046-.13-.053-.194-.08-.108-.046-.225-.065-.319-.15-.458-.416-.922-.827-1.383-1.239a.184.184 0 0 1-.05-.062c-.217-.481-.446-.958-.631-1.453a1.121 1.121 0 0 0-.286-.44 1.742 1.742 0 0 1-.405-.594 7.976 7.976 0 0 1-.38-1.165c-.012-.044-.017-.09-.06-.12-.026.084-.054.166-.078.249-.075.256-.15.514-.148.785-.033.213-.037.43-.048.644-.007.136-.02.274.004.407.068.397.141.793.219 1.188.052.264.1.53.187.786.011.033.017.074.048.088.114.052.188.148.267.235.258.283.51.57.81.812.419.338.72.785 1.047 1.206.362.465.677.964.996 1.459.034.052.065.078.131.072.205-.018.407.017.61.036.285.026.57.057.854.087.036.004.043-.016.052-.044.12-.346.24-.693.362-1.04.014-.039.001-.055-.034-.065a9.715 9.715 0 0 1-.204-.063c-.05-.016-.129-.02-.142-.052-.019-.045.049-.09.07-.138.03-.067.077-.086.15-.088.277-.009.559-.001.832-.05a2.287 2.287 0 0 0 1.007-.436.43.43 0 0 1 .136-.08c.091-.027.183.02.227.114.038.08.022.133-.072.192-.143.09-.279.193-.435.26-.298.128-.588.273-.903.356a.592.592 0 0 0-.172.08.228.228 0 0 0-.105.152c-.05.27-.076.542-.1.814-.004.057.018.06.062.058.244-.013.488-.018.73-.037.152-.012.304.002.453-.027h.151c.024.001.038-.008.053-.026.238-.3.514-.565.756-.863.182-.225.4-.423.565-.66a29.39 29.39 0 0 0 1.177-1.813 1.86 1.86 0 0 0 .247-.828c.017-.218.058-.431.193-.614a.742.742 0 0 0 .093-.192c.092-.256.137-.521.16-.792.006-.072-.032-.11-.104-.105a.375.375 0 0 0-.2.088zm-6.287 2.655c.273.118.554.212.836.308.254.087.515.123.78.073.103-.02.195-.03.283.035.032.022.067.002.086-.019.05-.053.114-.063.178-.077.1-.022.201-.043.303-.056.173-.022.326-.096.483-.165.06-.026.107-.055.131-.114.03-.073.08-.13.14-.18.022-.02.044-.037.038-.073-.01-.067.029-.108.077-.146l1.038-.831c.041-.033.095-.056.12-.104.126-.24.315-.425.512-.604.272-.249.5-.544.799-.765a.698.698 0 0 0 .164-.137.76.76 0 0 1 .242-.175c.195-.096.38-.212.573-.308.3-.148.622-.246.939-.353.412-.138.822-.29 1.266-.294.018 0 .035.003.038-.026.028-.203-.06-.585-.358-.678a1.69 1.69 0 0 0-.548-.063.23.23 0 0 1-.21-.16c-.037-.148-.076-.296-.11-.446a.34.34 0 0 0-.23-.26.698.698 0 0 0-.2-.044c-.354-.02-.695.024-1.013.198-.287.158-.582.302-.868.46-.456.253-.89.537-1.249.924a10.8 10.8 0 0 0-.465.547c-.016.02-.025.044-.06.046-.097.005-.213-.092-.217-.192-.007-.208.02-.409.132-.59.058-.094.121-.186.182-.28.014-.02.043-.039-.001-.06-.246-.117-.502-.165-.76-.068-.312.117-.598.292-.887.457-.12.068-.221.163-.336.239-.07.046-.101.026-.101-.057 0-.146.085-.248.185-.338.06-.055.135-.095.193-.153.143-.143.313-.243.497-.32.14-.058.141-.058.058-.188-.154-.24-.375-.404-.625-.528-.155-.077-.322-.132-.477-.21a1.339 1.339 0 0 0-.586-.148c-.133-.001-.266-.011-.405-.018.047-.067.112-.089.178-.106.277-.075.561-.07.844-.07.076 0 .154-.008.228.024.285.124.568.253.845.394.189.096.36.204.452.406.02.043.053.063.109.049a.778.778 0 0 1 .33-.01c.21.038.374.156.525.297.085.079.14.084.228.008a.719.719 0 0 0 .26-.518 4.42 4.42 0 0 0-.052-.844c-.026-.196-.042-.395-.13-.578-.014-.03-.026-.062-.016-.097.026-.003.037.015.05.026.03.027.058.054.085.084.028.029.051.06.078.09.062.069.089.067.139-.012.025-.04.047-.083.07-.125.048-.088.09-.18.156-.258a.897.897 0 0 0 .155-.292c.064-.181.107-.362.072-.56-.06-.338-.23-.583-.54-.736a7.287 7.287 0 0 0-.662-.282.911.911 0 0 1-.374-.26c-.147-.168-.27-.355-.395-.54a1.386 1.386 0 0 0-.655-.52 5.346 5.346 0 0 0-.761-.234 9.875 9.875 0 0 0-1.149-.19 1.604 1.604 0 0 0-.522.001c-.54.116-.978.405-1.346.807a.767.767 0 0 1-.264.196c-.231.1-.474.162-.72.208-.176.033-.358.043-.53.09-.402.112-.621.42-.763.785-.115.295-.082.606-.026.912.014.076.023.153.06.227.037-.048.067-.092.102-.131.708-.789 1.604-1.17 2.648-1.226.273-.015.546-.009.819.017.188.017.376.041.56.089-.442.006-.876.07-1.309.147a7.915 7.915 0 0 0-1.678.497c-.034.014-.052.029-.05.068a.233.233 0 0 1-.08.179c-.145.142-.285.287-.428.43a1.966 1.966 0 0 0-.486.802c-.08.249-.12.498-.007.749.009.019.014.04.019.06.013.054.036.1.086.128.036.02.04.048.033.087a2.583 2.583 0 0 0-.007.803c.06.424.208.819.424 1.188.123.211.257.415.441.58.062.057.124.113.184.172.025.025.042.023.066.001.16-.15.35-.26.524-.393.12-.082.242-.161.359-.248.057-.042.076-.015.094.033.016.042.008.078-.028.107-.056.042-.098.097-.14.151-.206.261-.392.536-.587.804a.247.247 0 0 0-.044.208c.038.198.12.374.228.544.138.216.252.449.409.653.105.137.218.267.308.415.04.065.068.138.165.141.045.001.077.044.11.076l.24.233a.227.227 0 0 0 .078.053l.399.148.016.003h.006zM7.169 10.42a1.706 1.706 0 0 0-.545.211.449.449 0 0 0-.16.151c-.257.45-.39.938-.42 1.452-.022.362 0 .723.079 1.078.033.148.041.31.158.425.073.073.122.16.165.25.068.144.136.287.202.431.052.113.05.111.173.094.029-.004.032-.015.034-.04.02-.268.09-.524.172-.78.096-.299.175-.603.268-.903a.21.21 0 0 0-.006-.166.718.718 0 0 1-.07-.363c.019-.236.031-.473.045-.709.007-.109.027-.22.016-.327-.03-.268-.073-.535-.111-.804zm3.03-3.903c.008-.015.013-.021.015-.028a.42.42 0 0 0 .017-.07 1.998 1.998 0 0 0-.109-.995 1.002 1.002 0 0 0-.486-.565 1.694 1.694 0 0 0-.863-.209c-.228.007-.46.024-.66.145-.592.355-.915.992-.795 1.686.037.212.131.4.28.57l.02-.104c.101-.72.567-1.213 1.277-1.338.403-.07.752.032 1.015.365.087.111.155.234.211.364l.077.179zm4.334-.248c.466-.723 1.262-.733 1.818-.404.374.22.57.575.681.983.03.11.048.224.074.346.03-.04.056-.071.079-.103.232-.33.266-.698.187-1.077-.102-.487-.39-.847-.819-1.094a.698.698 0 0 0-.2-.072c-.564-.123-1.052.045-1.494.387a.594.594 0 0 0-.14.163c-.16.262-.195.55-.186.87zm1.545 6.41c.103-.097.199-.162.303-.214.222-.112.454-.202.688-.284.046-.016.07-.037.079-.086.015-.088.041-.175.054-.265.024-.165.055-.331.03-.5-.032-.226-.161-.41-.27-.603-.029-.049-.047-.048-.082-.003-.262.345-.526.688-.79 1.03a.124.124 0 0 0-.027.088c.006.165.012.33.015.495.002.105 0 .21 0 .342zm-.031 7.257c-.073.05-.112.123-.172.174-.042.034-.043.074-.03.121l.209.775c.025.094.029.206.084.278.058.075.18.075.272.114l.015.006c.02.003.04.027.059.008.019-.018 0-.04-.007-.058-.086-.287-.171-.574-.258-.86l-.172-.558zM9.21 21.199l.015.016c.082-.042.162-.086.245-.124a.235.235 0 0 0 .115-.114c.084-.16.164-.323.26-.475.074-.117.079-.212-.024-.307l-.02-.018c-.198.343-.395.682-.59 1.022zm.73-.092c.168-.032.32-.016.486-.027l-.286-.419-.2.446zm5.78-13.97a.137.137 0 0 0 .134-.138.137.137 0 0 0-.139-.134.137.137 0 0 0-.13.134.138.138 0 0 0 .135.138zm-6.126-.348a.137.137 0 0 0-.14-.132.138.138 0 0 0-.13.136c0 .074.063.137.137.136a.137.137 0 0 0 .133-.14zm-.94 14.87l-.012.009c.006.009.013.007.02.002a.06.06 0 0 0-.009-.01zM13.696 3.64c-.049.122-.04.163.053.257.045.046.101.076.157.107.06.033.096.025.134-.035.134-.215.296-.393.544-.488.299-.114.581-.27.9-.329a.515.515 0 0 0 .19-.075c.029-.019.056-.043.024-.077-.053-.057-.063-.133-.099-.198-.076-.08-.168-.063-.259-.037-.19.053-.372.134-.558.202a4 4 0 0 0-.988.547.526.526 0 0 0-.09.087c-.003.013-.003.027-.008.039zm-3.11.272c-.302-.224-.565-.49-.831-.753a2.186 2.186 0 0 0-.13-.117.45.45 0 0 0-.198-.097c-.186-.04-.351.02-.507.112-.105.063-.098.117.012.174.17.087.345.164.507.263.353.215.7.44 1.05.66.025.017.049.055.089.021.046-.04.098-.073.115-.138a.288.288 0 0 0-.107-.125z"/></svg>