<svg role="img" viewBox="0 0 24 24" xmlns="http://www.w3.org/2000/svg"><title>PaddlePaddle</title><path d="M13.3,6c0,0.6-0.5,1.1-1.1,1.1C11.5,7.1,11,6.6,11,6s0.5-1.1,1.1-1.1C12.8,4.8,13.3,5.3,13.3,6 M11.6,19.2h1.7  c0,0,0.1,0,0.1,0l5-11c0,0,0-0.1,0-0.1c0,0,0,0,0,0h-1.7c0,0-0.1,0-0.1,0l-5,11C11.5,19.1,11.6,19.1,11.6,19.2  C11.6,19.2,11.6,19.2,11.6,19.2z M23.3,6c0,0.6-0.5,1.2-1.1,1.2S21,6.6,21,6c0,0,0,0,0,0c0-0.6,0.5-1.2,1.1-1.2  C22.8,4.8,23.3,5.3,23.3,6C23.3,6,23.3,6,23.3,6 M8.3,8H6.7c0,0-0.1,0-0.1,0l-2,4.3H0.8c-0.1,0-0.1,0-0.1,0.1L0,13.8  c0,0,0,0.1,0,0.1c0,0,0,0,0,0h3.9l-2.3,5.1c0,0,0,0.1,0,0.1c0,0,0,0,0,0h1.7c0,0,0.1,0,0.1,0l5-11C8.4,8.1,8.4,8,8.3,8  C8.4,8,8.3,8,8.3,8z M14,10.6c-0.2-1.5-1.4-2.6-2.8-2.6c0,0,0,0,0,0c0,0,0,0,0,0h-1c0,0,0,0-0.1,0L9.5,9.3c0,0,0,0.1,0,0.1  c0,0,0,0,0,0h1c0.2,0,0.4,0,0.6,0c0.8,0.1,1.4,0.8,1.3,1.5c0,0.8-0.6,1.4-1.4,1.4H7.4c-0.1,0-0.1,0-0.1,0.1l-0.6,1.3  c0,0,0,0.1,0,0.1c0,0,0,0,0,0H11c1.7,0,3-1.3,3-3C14,10.8,14,10.7,14,10.6z M24,10.6c-0.2-1.5-1.4-2.6-2.8-2.6c0,0,0,0,0,0  c0,0,0,0,0,0h-1c0,0,0,0-0.1,0l-0.6,1.3c0,0,0,0.1,0,0.1c0,0,0,0,0,0h1c0.2,0,0.4,0,0.6,0c0.8,0.1,1.4,0.8,1.3,1.5  c0,0.8-0.6,1.4-1.4,1.4h-3.7c-0.1,0-0.1,0-0.1,0.1l-0.6,1.3c0,0,0,0.1,0,0.1c0,0,0,0,0,0H21c1.7,0,3-1.3,3-3  C24,10.8,24,10.7,24,10.6z"/></svg>