<svg role="img" viewBox="0 0 24 24" xmlns="http://www.w3.org/2000/svg"><title>PageSpeed Insights icon</title><path d="M23.735 2.384c-.006-.009-.009-.019-.015-.028a1.553 1.553 0 0 0-.164-.198c-.013-.014-.023-.03-.036-.043-.048-.048-.103-.087-.156-.128-.03-.023-.055-.05-.086-.071-.043-.029-.092-.05-.138-.075-.047-.026-.09-.056-.14-.077-.046-.019-.096-.029-.144-.045-.054-.017-.107-.039-.163-.05-.051-.01-.104-.01-.157-.016-.057-.006-.113-.017-.172-.017H1.636A1.636 1.636 0 0 0 .001 3.273V4.91H0v15.821a1.635 1.635 0 0 0 1.635 1.634h20.731A1.635 1.635 0 0 0 24 20.728V3.27c0-.327-.099-.63-.265-.886zm-19.371.343a.546.546 0 1 1 0 1.092.546.546 0 0 1 0-1.092zm-2.182 0a.546.546 0 1 1 0 1.092.546.546 0 0 1 0-1.092zM23.5 20.728a1.131 1.131 0 0 1-1.137 1.136H1.635A1.137 1.137 0 0 1 .5 20.727V5.409h.001v-.5H23.5v15.819zM3.279 19.091c-.01-.137 0-.363 0-.546v-.012a8.714 8.714 0 0 1 13.382-7.359c-.006.005-.014.006-.02.011l-3.403 2.62a4.865 4.865 0 0 0-1.233-.165 4.912 4.912 0 0 0-4.92 4.905c-.01.182-.01.364 0 .546H3.279zm12.491-3.667l1.97-3.177a.73.73 0 0 0 .088-.174 8.7 8.7 0 0 1 2.893 6.467c0 .183.01.415 0 .546h-3.819c.01-.182.01-.364 0-.546a4.89 4.89 0 0 0-1.132-3.116zm-4.77.735l5.946-4.577a.266.266 0 0 1 .168-.06c.15.001.272.122.273.273a.268.268 0 0 1-.052.159l-.001-.003-3.936 6.349a1.637 1.637 0 0 1-2.695.152A1.634 1.634 0 0 1 11 16.159z"/></svg>