<svg role="img" viewBox="0 0 24 24" xmlns="http://www.w3.org/2000/svg"><title>Pagure</title><path d="m19.792 14.104-.156.156h-.155l-.624.623h-.156l-.311.312h-.156l-.468.467h-.156l-.311.312h-.156l-.156.156h-.156l-.312.312h-.155l-.312.311h-.156l-.312.312v.156l.156.156v.467l.156.156v.156l.156.156v.156l.935.935h.156l.312.311h.311l.156.156h.156l.156.156h2.182l.155-.156h.468l.156-.156h.779v-.156h-.312l-.156-.155h-.155l-.156-.156h-.156l-.156-.156h-.156l-.156-.156h-.155l-1.403-1.403v-.155l-.312-.312.468-.468h1.091l.156.156h.467l.156.156h.623l.156.156h.156l.156.156h.467l.156.156h.156l.156.155h.623l.156.156H24v-.467l-.623-.624v-.155l-.624-.624h-.156l-.155-.156v-.156h-.156l-.624-.623h-.156l-.311-.312h-.312l-.312-.311h-.311l-.156-.156ZM7.948 3.351l-.156.155h-.467l-.156.156h-.468l-.156.156H6.39l-.156.156h-.468l-.156.156h-.155l-.156.156h-.156l-.156.156h-.156l-.156.155h-.156l-.311.312h-.156l-.312.312h-.156l-.623.623h-.156l-.623.624v.155l-.468.468v.156l-.467.467v.156l-.156.156v.156l-.312.312v.311l-.156.156v.156l-.155.156v.311l-.156.156v.312l-.156.156v.779L0 11.143v2.338l.156.155v.78l.156.155v.156l.156.156v.468l.155.155v.156l.156.156v.156l.156.156v.156l.156.156v.155l.312.312v.156l.311.312v.155l1.559 1.559h.156l.311.312h.156l.312.311h.156l.155.156h.156l.156.156h.312l.156.156h.156l.155.156h.468l.156.156h.311l.156.155h2.65l.155-.155h.312l.156-.156h.468l.155-.156h.156l.156-.156h.312l.311-.312h.156l.312-.311h.156l1.247-1.247V18l.311-.312v-.156l.312-.311v-.156l.312-.312h.156l.155-.156h.156l.312-.311h.312l.311-.312h.156l.312-.312h.156l.311-.311h.312l.312-.312h.156l.467-.468h.156l.467-.467h.156l1.247-1.247v-.156l.312-.311v-.78l-.156-.155v-.312l-.156-.156v-.312l-.156-.156v-.155l-.156-.156v-.312l-.311-.312v-.311l-.312-.312v-.156l-.156-.156v-.155l-.312-.312v-.156l-.467-.468v-.155l-1.559-1.559h-.155l-.624-.623h-.156l-.311-.312h-.156l-.156-.156h-.156l-.156-.156h-.155l-.156-.155h-.156l-.156-.156h-.156l-.156-.156h-.156l-.155-.156h-.468l-.156-.156h-.156l-.155-.156h-.624l-.156-.156h-.311l-.156-.155Zm0 1.246.156-.155h2.805l.156.155h.467l.156.156h.624l.156.156h.155l.156.156h.312l.156.156h.156l.155.156h.156l.156.155h.156l.156.156h.156l.311.312h.156l.312.312h.156l.623.623h.156l.935.935v.156l.623.623v.156l.312.312v.156l.312.311v.312l.311.312v.311l.312.312v.468l.156.156v.155l.156.156v.156l-.312.312v.156l-.312.311h-.311l-.156-.156v-.467l-.156-.156v-.156l-.156-.156v-.467l-.311-.312v-.312l-.312-.311v-.156l-.312-.312v-.156l-.312-.311v-.156l-1.714-1.714h-.156l-.311-.312h-.156l-.312-.312h-.156l-.156-.156h-.155l-.156-.155h-.156l-.156-.156h-.156l-.156-.156h-.311L12.156 6h-.312l-.156-.156h-.779l-.156-.156h-.779l-.156-.156h-.779l-.156.156h-.779l-.156.156h-.779L7.013 6h-.156l-.156.156h-.467l-.312.312H5.61l-.311.311h-.156l-.312.312h-.156L3.584 8.182v.156l-.311.311v.156l-.312.312v.312l-.312.311v.468l-.155.156v.311l-.156.156v3.273l.156.156v.156l.155.155v.468l.312.312v.311l.312.312v.156l.311.312v.155h.156l.156.156v.156h.156l.156.156v.156h.156l.311.311h.156l.312.312h.312L5.61 18h.156l.156.156h.468l.155.156h.624l.156.156h.779l.156-.156h.779l.156-.156h.623L9.974 18h.156l.156-.156h.311l.312-.312h.156l.935-.935v-.155l.156-.156v-.156l.156-.156v-.156l.156-.156v-1.714l-.156-.156v-.156l-.156-.155v-.156L12 13.169v-.156l-.623-.623h-.156l-.312-.312H9.351l-.312.312h-.156l-.467.467v.156l-.156.156v1.091l.311.311v.156l.156.156v.156l-.156.156h-.467l-.623-.624v-.155l-.156-.156v-.156l-.156-.156v-.779l.156-.156v-.156l.156-.156v-.156l.311-.311v-.156l.156-.156h.156v-.156l.156-.156h.156l.155-.155h.156l.156-.156h.623l.156-.156h.312l.156.156h.779l.312.311h.311l1.091 1.091v.156l.312.312v.312l.156.155v.156l.156.156v2.182l-.156.156v.156l-.156.155v.312l-.312.312v.156l-1.091 1.091h-.155l-.312.311h-.156l-.156.156h-.156l-.155.156h-.156l-.156.156h-.468l-.156.156h-.155l-.156.155H7.013l-.156-.155h-.312l-.155-.156h-.624l-.311-.312h-.312l-.312-.312h-.312L3.896 18H3.74l-.935-.935v-.156l-.623-.623v-.156l-.156-.156v-.156l-.156-.156v-.156l-.156-.155v-.156l-.156-.156v-.312l-.155-.156v-.155l-.156-.156v-.779l-.156-.156v-2.026l.156-.156v-.779l.156-.156v-.156l.155-.156v-.312l.156-.155v-.156l.156-.156v-.312l.312-.311v-.156l.312-.312V7.87l1.558-1.558h.156l.623-.624h.156l.156-.156h.156l.156-.155h.155l.156-.156h.156l.156-.156h.312l.155-.156h.156l.156-.156h.624l.155-.156Z"/></svg>