<svg role="img" viewBox="0 0 24 24" xmlns="http://www.w3.org/2000/svg"><title>Palo Alto Software icon</title><path d="M1.53 14.459l6.35-6.463L9.538 6.31a3.434 3.434 0 014.847 0L16 7.926l6.462 6.463.844-.844c.913-.843.913-2.247.07-3.16L13.611.69c-.915-.914-2.319-.914-3.232 0L.686 10.385c-.915.913-.915 2.317 0 3.23zm12.082-7.306c-.914-.914-2.319-.914-3.232 0l-8.078 8.078-1.615 1.616c-.915.914-.915 2.318 0 3.231l3.23 3.232c.914.913 2.318.913 3.232 0l4.846-4.848 4.848 4.848c.913.913 2.318.913 3.23 0l3.232-3.232c.914-.843.914-2.318.07-3.231z"/></svg>