<svg role="img" viewBox="0 0 24 24" xmlns="http://www.w3.org/2000/svg"><title>Panasonic</title><path d="M23.74 13.413a1.269 1.269 0 0 1-.686.38 1.692 1.692 0 0 1-.534.03 1.36 1.36 0 0 1-1.162-1.724c.118-.474.5-.836.98-.926a1.79 1.79 0 0 1 .812.02c.2.048.352.134.504.276.091.08.166.177.22.286a.792.792 0 0 1 .086.42h-.878a.452.452 0 0 0-.17-.286.344.344 0 0 0-.41-.02.426.426 0 0 0-.18.228 1.186 1.186 0 0 0-.01.706.56.56 0 0 0 .152.258.39.39 0 0 0 .314.104.306.306 0 0 0 .18-.096.392.392 0 0 0 .096-.2c.01-.056.02-.094.02-.152h.924a.9.9 0 0 1-.258.696m-3.524-3.25h.952v.676h-.952v-.676zm0 1.02h.952v2.562h-.952v-2.562zm-1.992.278c.117-.11.252-.198.4-.26.235-.114.504-.134.754-.056a.826.826 0 0 1 .57.562c.04.134.058.258.058.39v1.648h-1.02v-1.486a.714.714 0 0 0-.02-.142.28.28 0 0 0-.16-.18.386.386 0 0 0-.486.16.442.442 0 0 0-.058.22v1.428h-.98v-2.56h.924l.02.274-.002.002zm-11.318 0c.117-.11.252-.198.4-.26.235-.114.505-.134.754-.056.275.076.49.288.572.562.037.126.056.258.056.39v1.648H7.68v-1.486a.714.714 0 0 0-.02-.142.28.28 0 0 0-.16-.18.386.386 0 0 0-.486.16.442.442 0 0 0-.058.22v1.428h-.99v-2.56h.924l.02.274-.004.002zm6.04 1.34c.076.012.134.03.21.05a.18.18 0 0 1 .114.124c.01.066 0 .124-.048.17a.296.296 0 0 1-.17.086.404.404 0 0 1-.258-.028.486.486 0 0 1-.104-.066.206.206 0 0 1-.086-.134c-.01-.048-.02-.086-.02-.134h-.934v.058c0 .086.01.16.048.248.048.124.114.22.21.314a1 1 0 0 0 .428.238c.344.096.66.114 1.02.066a1.33 1.33 0 0 0 .458-.152c.066-.038.124-.066.18-.114a.776.776 0 0 0 .248-.848.66.66 0 0 0-.19-.296 1.04 1.04 0 0 0-.43-.228c-.038-.01-.066-.02-.104-.028a3.936 3.936 0 0 0-.58-.124 4.558 4.558 0 0 1-.154-.028c-.028-.01-.046-.01-.066-.02-.058-.028-.086-.096-.058-.152v-.01a.184.184 0 0 1 .134-.104.508.508 0 0 1 .314.008c.106.04.162.124.162.23h.906a.84.84 0 0 0-.058-.306.536.536 0 0 0-.18-.256 1.23 1.23 0 0 0-.504-.21 2.87 2.87 0 0 0-.64-.04 1.512 1.512 0 0 0-.36.06 1.138 1.138 0 0 0-.45.208.724.724 0 0 0-.276.534.6.6 0 0 0 .058.314.66.66 0 0 0 .39.39c.096.04.18.068.276.086.144.03.314.068.514.096M3.04 10.887a1.22 1.22 0 0 0-1.06-.714c-.066-.01-.132-.01-.2-.01H0v3.592h1.086V12.64h.658c.17 0 .314-.01.486-.048.498-.106.872-.522.924-1.028a1.19 1.19 0 0 0-.114-.678zm-.954.61a.314.314 0 0 1-.066.154.376.376 0 0 1-.276.142c-.076.01-.144.01-.23.01h-.428v-.772h.64c.188 0 .34.134.36.324a.36.36 0 0 1 0 .142zm13.928-.362c-.104-.02-.19-.02-.286-.02-.104 0-.19.012-.286.02a1.29 1.29 0 0 0-.742.372c-.222.21-.358.495-.38.8-.02.19 0 .362.046.552.07.278.235.524.466.696.148.117.321.2.506.24.131.026.266.038.4.036.134.001.268-.012.4-.038.185-.036.358-.118.504-.238l-.552-.6a.384.384 0 0 1-.696 0 1.07 1.07 0 0 1-.076-.248 1.554 1.554 0 0 1 .01-.514.574.574 0 0 1 .106-.248.37.37 0 0 1 .62 0 .72.72 0 0 1 .104.248c.038.18.038.334.008.514a.824.824 0 0 1-.076.248l.552.6c.231-.172.397-.417.468-.696a1.35 1.35 0 0 0 .048-.552 1.224 1.224 0 0 0-.38-.8c-.21-.2-.477-.33-.764-.372m-4.496 2.41c-.02-.208-.02-.39-.028-.6-.01-.276-.01-.514-.01-.79 0-.142-.02-.284-.058-.42a.66.66 0 0 0-.334-.428.962.962 0 0 0-.314-.114 2.684 2.684 0 0 0-1.066-.02 1.418 1.418 0 0 0-.286.086.786.786 0 0 0-.458.496.624.624 0 0 0-.028.266c0 .02.01.03.01.048l.856.02c0-.058.01-.106.02-.154a.272.272 0 0 1 .16-.16.53.53 0 0 1 .344-.01c.076.028.134.076.154.16a.134.134 0 0 1-.02.134.242.242 0 0 1-.096.076l-.076.03c-.124.028-.22.056-.342.076-.096.02-.18.028-.276.048-.134.028-.24.056-.362.094a.71.71 0 0 0-.296.172.658.658 0 0 0-.21.39.772.772 0 0 0 .01.296.72.72 0 0 0 .504.544c.279.082.578.068.848-.04a.852.852 0 0 0 .334-.246l-.056-.44a.358.358 0 0 1-.172.144.79.79 0 0 1-.2.058.342.342 0 0 1-.172-.02.246.246 0 0 1-.124-.076.228.228 0 0 1-.056-.104.192.192 0 0 1 .056-.172.64.64 0 0 1 .106-.068c.094-.038.18-.066.284-.094.124-.04.23-.076.344-.124.01.088.01.177 0 .266a.418.418 0 0 1-.066.18l.056.44c.02.066.04.114.058.172.008.038.028.056.048.084h.952c-.01-.066-.028-.122-.04-.2m-5.742 0c-.02-.208-.02-.39-.03-.6-.01-.276-.01-.514-.01-.79 0-.142-.018-.284-.056-.42a.66.66 0 0 0-.334-.428.962.962 0 0 0-.314-.114 2.684 2.684 0 0 0-1.066-.02 1.418 1.418 0 0 0-.286.086.786.786 0 0 0-.458.496.624.624 0 0 0-.028.266c0 .02.008.03.008.048l.86.02c0-.058.008-.106.018-.154a.272.272 0 0 1 .16-.16.53.53 0 0 1 .344-.01c.076.028.134.076.152.16a.134.134 0 0 1-.02.134.242.242 0 0 1-.094.076l-.076.03c-.124.028-.22.056-.342.076-.096.02-.18.028-.278.048a3.784 3.784 0 0 0-.36.094.71.71 0 0 0-.296.172.6.6 0 0 0-.2.39.772.772 0 0 0 .01.296.72.72 0 0 0 .504.544c.28.082.578.068.848-.04a.852.852 0 0 0 .334-.246l-.058-.44a.358.358 0 0 1-.172.144.79.79 0 0 1-.2.058.342.342 0 0 1-.17-.02.246.246 0 0 1-.124-.076.228.228 0 0 1-.058-.104.192.192 0 0 1 .058-.172.64.64 0 0 1 .104-.068c.096-.038.18-.066.286-.094.124-.04.228-.076.342-.124.01.088.01.177 0 .266a.418.418 0 0 1-.066.18l.058.44.056.172c.01.038.03.056.048.084h.952c-.02-.066-.038-.122-.046-.2"/></svg>