<svg role="img" viewBox="0 0 24 24" xmlns="http://www.w3.org/2000/svg"><title>Pangolin</title><path d="M20.19 7.991c.499 0 .903.381.903.852s-.404.852-.903.852-.903-.381-.903-.852.404-.852.903-.852m3.546 3.556c-.09 2.831-2.381 6.573-5.486 7.535-3.628 1.124-6.383-.563-7.256-2.54-.68-1.54-.166-3.382 1.103-4.162 1.072-.659 3.069-.833 4.747.208-.59-1.457-2.177-2.415-3.583-2.706-1.405-.292-2.857.042-3.9.541 1.338-1.394 4.47-2.749 7.876-1.04 2.282 1.144 3.265 2.747 4.232 4.912 2.54-3.664.771-8.076-2.313-10.699C16.012.922 11.765-.151 8.515.017a22 22 0 0 1 3.497 2.559c-5.145-.603-9.385.5-12.007 3.865a24.2 24.2 0 0 1 5.32-.355C1.577 8.578-.6 12.768.507 17.141a20.6 20.6 0 0 1 2.891-3.668C3.028 16.737 3.542 21.15 7.99 24a18.5 18.5 0 0 1-.494-3.135c2.08 1.532 5.101 2.794 8.849 1.922 6.62-1.54 8.389-7.576 7.391-11.24"/></svg>