<?xml version="1.0" encoding="UTF-8" standalone="no"?>
<svg
   version="1.1"
   width="24"
   height="24"
   id="svg3923"
   viewBox="0 0 24 24"
   xmlns="http://www.w3.org/2000/svg"
   xmlns:svg="http://www.w3.org/2000/svg"
   xmlns:rdf="http://www.w3.org/1999/02/22-rdf-syntax-ns#"
   xmlns:cc="http://creativecommons.org/ns#"
   xmlns:dc="http://purl.org/dc/elements/1.1/">
  <metadata
     id="metadata3929">
    <rdf:RDF>
      <cc:Work
         rdf:about="">
        <dc:format>image/svg+xml</dc:format>
        <dc:type
           rdf:resource="http://purl.org/dc/dcmitype/StillImage" />
      </cc:Work>
    </rdf:RDF>
  </metadata>
  <defs
     id="defs3927" />
  <path
     d="M 6.3390704,23.02945 C 6.2222813,22.468846 5.9863575,21.349969 5.9559893,21.349969 0.97944695,18.375722 1.5683163,13.222354 3.2174298,10.277539 c 0.3527148,3.71051 6.9202132,6.272477 3.0919766,10.807311 -0.023474,0.07008 0.1868739,0.766162 0.352713,1.413194 C 7.4282816,21.201643 8.575187,19.641756 8.5167906,19.494364 3.8051313,8.009888 18.529209,7.1264672 21.591752,0 22.976917,6.8907781 20.883988,17.55093 9.0470309,20.260059 8.9769461,20.283533 6.8980413,23.970567 6.8092804,24 c 0,-0.07008 -0.8829551,-0.02347 -0.7661622,-0.324685 0.070085,-0.186855 0.1868739,-0.413447 0.2943165,-0.647031 z M 6.1989197,20.261225 C 7.7008759,18.523349 5.9349676,15.54957 4.8744871,14.577852 c 1.7962764,3.091975 1.6794835,4.888249 1.3244326,5.683373 z"
     style="display:inline;fill:#17541f;stroke-width:0.029448"
     id="path3913" />
</svg>
