<svg role="img" viewBox="0 0 24 24" xmlns="http://www.w3.org/2000/svg"><title>PaperMC</title><path d="m11.975 0-3.5 3.514-.16.162-4.8.222v8.28l.008.2-.01-.198-.161-3.52-.032-.633-.013-.308-.028-.576-.017-.37-.045-.976-.018-.361-1.472.363.101.42.276 1.107.101.416.158.635.082.338.17.683.9 3.635.05.2.01.224-.061-.195-1.108-3.655-.21-.695-.104-.346-.197-.65-.131-.428-1.08.518.22.46.332.696.176.365.35.73 1.754 3.665.09.19.011.275-.101-.186-2.04-3.658-.413-.74-.208-.373-.67.466.268.385.53.758 2.533 3.629.123.178.011.261-.134-.173-2.83-3.598-.686.69 3.516 3.5.162.162.224 4.796h8.274l-3.516.164-.63.03-.31.015-.575.026-.37.017-.98.045-.36.018.366 1.474.416-.101 1.113-.277.412-.102.637-.156.338-.084.68-.168 4.058-.96-.193.06-3.655 1.109-.693.209-.346.105-.65.197-.426.13.518 1.08.459-.22.695-.333.365-.174.729-.35 3.666-1.754.187-.09.278-.013-.186.103-3.66 2.04-.738.412-.375.207.468.67.385-.268.754-.527 3.631-2.534-3.332 2.828.69.688c3.166-3.876 3.705-3.68 8.458-3.902v-8.315l.166 3.555.032.63.013.31.028.576.015.369.047.98.018.36 1.47-.364-.101-.416-.276-1.113-.103-.414-.156-.635-.084-.34-.168-.68-.9-3.634-.047-.19-.01-.222.056.19 1.108 3.648.21.693.104.346.197.65.131.426 1.082-.518-.218-.46-.334-.696-.174-.367-.35-.727-1.756-3.67-.088-.183-.011-.274.1.182 2.04 3.66.41.738.21.375.67-.466-.27-.385-.527-.756-2.534-3.63-.12-.177-.014-.263.134.172 2.83 3.6.686-.688-3.516-3.5-.162-.16-.222-4.801h-8.32l3.556-.166.633-.03.31-.013.575-.028.37-.017.977-.045.361-.018-.363-1.472-.418.103-1.11.276-.413.101-.637.158-.338.082-.683.17-3.633.899-.19.047-.222.01.187-.057 3.65-1.106.696-.21.344-.106.652-.197.426-.13-.52-1.083-.459.218-.697.334-.365.176-.73.35-3.669 1.754-.183.088-.274.013.182-.101 3.658-2.04.742-.411.373-.21-.466-.67-.385.27-.758.527L9.33 3.514l-.176.123-.263.011.17-.134 3.6-2.83Zm5.144 6.389q.026 0 .05.004a.15.15 0 0 0-.034.07l-1.977 10.016-.002.025q.1.042.2.084l-.2-.082-.224-.092q-2.01-.821-4.028-1.627a.3.3 0 0 0-.111-.014c-.077.007-.136.05-.139.135l-.002.03q-.02 1.228.002 2.457.015.153.162.154l.01-.01-.014-.002h.01l.004.002.385-.361a.1.1 0 0 1 .01-.067l.24-.35a4.6 4.6 0 0 0-.535-1.831l.033-.024q.942.379 1.865.787l.02.008-1.992 1.838-.016.014a.1.1 0 0 1-.035.01c-.022.004-.04.003-.04.003s-.22-.011-.3-.06a.1.1 0 0 1-.023-.026.1.1 0 0 1-.01-.048q-.006-1.313-.03-2.612a.3.3 0 0 1 .008-.078.4.4 0 0 1 .067-.127q1.224-1.442 2.43-2.9c.162-.197 1.245-1.53 1.4-1.719-1.3 1.006-3.017 2.3-5.235 4.04 0 0-1.72-.725-2.55-1.077l-.034-.025-.029-.024q-.214-.182-.066-.42l.033-.049.01-.013q5.191-2.95 10.355-5.948a.6.6 0 0 1 .332-.091m.283.127.004.004a.2.2 0 0 1 .02.035l.01.027q.029.134-.002.268c-.546 3.203-1.076 6.423-1.606 9.627q0 .006-.002.013c-.006.034-.022.09-.057.121-.08.064-.153.062-.335.002l-.065-.021a.3.3 0 0 0 .024-.055l.021-.086.035-.138.104-.48.361-1.852.568-2.862.895-4.463V6.65l.025-.128z"/></svg>