<svg role="img" viewBox="0 0 24 24" xmlns="http://www.w3.org/2000/svg"><title>Paradox Interactive</title><path d="M10.408.41c-.264.106-.363.214-.363.402 0 .14.083.503.253 1.112.11.401.118.86.027 1.16-.076.244-.113.278-.272.236-.322-.09-.545-.311-1.044-1.025-.593-.844-.767-.991-1.243-1.006-.31-.007-.382.011-.733.18-.25.124-.386.244-.386.35.004.176.408.747.93 1.314.367.39.624.93.556 1.179a.953.946 0 0 1-.352.488c-.132.09-.174.097-.393.097-.4 0-.567-.139-1.236-.983-.635-.811-.907-1.025-1.323-1.018-.329 0-.548.15-.643.44-.049.142-.003.3.144.51.132.195.132.192.624.713.529.564.578.676.552 1.127-.023.375-.057.413-.303.36a6.365 6.323 0 0 1-1.028-.405c-.68-.32-.794-.353-1.172-.364-.378-.008-.514.022-.703.165a1.217 1.209 0 0 0-.374.518c-.038.225.042.32.465.537.416.218.53.308.605.48.106.248.038.575-.23 1.21-.292.687-.33.893-.205 1.303.102.349.113.424.05.626a.813.807 0 0 1-.31.477c-.19.128-.454.113-1.04-.063a2.42 2.403 0 0 0-.579-.128c-.419-.049-.71.3-.68.826.015.297.038.42.185.976.155.6.163.8.046 1.21a2.298 2.283 0 0 0-.087.562 1.21 1.202 0 0 0 .136.616c.177.436.177.443.234.969.034.353.09.597.166.72.197.324.454.361.81.113.14-.093.173-.123.623-.533.469-.42.635-.525.801-.484.19.045.363.353.34.59-.015.142-.075.243-.226.356-.114.083-.688.376-1.059.54-.453.2-.616.365-.616.64 0 .345.378.791 1.153 1.388 1.274.984 1.678 1.716 1.5 2.741-.037.226-.26 1.052-.336 1.247-.019.053.125.075.503.075.431-.004 1.077-.578 1.399-1.247a3.425 3.402 0 0 0 .385-1.704c.004-.387-.022-.526-.276-1.296-.344-1.04-.446-1.445-.46-1.813-.016-.285 0-.376.203-1.333.09-.42.129-.717.129-1.021.003-.323 0-.376-.087-.545a1.402 1.393 0 0 0-.23-.323l-.14-.131-.107.06c-.15.09-.366.075-.597-.034-.227-.113-.355-.263-.374-.436-.015-.165.113-.3.507-.51.37-.207.438-.278.457-.47.03-.225-.08-.413-.476-.826-.469-.495-.54-.6-.526-.777.027-.319.367-.732.756-.912a.87.864 0 0 1 .454-.102c.438 0 1.024.188 1.436.458.454.3.526.496.37 1.014a1.338 1.33 0 0 0-.094.496c0 .263.06.33.594.653.275.17.34.45.207.871-.196.639-.177.74.186.947.453.262.506.375.453.968-.03.413 0 .594.133.732.09.094.249.15.294.106a1.727 1.716 0 0 0 .05-.38c.018-.345.06-.499.17-.638.049-.068.053-.064.132.03.038.06.162.218.257.36.283.406.321.451.518.639.17.158.359.251.408.199.098-.094-.106-.939-.333-1.378-.037-.079-.068-.15-.056-.158.007-.007.113.038.234.105.503.267.635.323.767.323.16 0 .197-.019.254-.127.064-.124.045-.244-.106-.549-.14-.289-.144-.3-.14-.668l.011-.698c.02-.541-.072-.635-1.122-1.176a12.617 12.533 0 0 1-.836-.454 1.266 1.258 0 0 1-.238-.199c-.174-.169-.204-.221-.227-.364-.022-.147-.011-.188.068-.346.167-.315.333-.368 1.29-.398a8.883 8.824 0 0 0 .63-.037c.235-.038.492-.188.738-.42.657-.639.763-1.18.397-2.013-.17-.383-.174-.575-.023-.89.234-.484.737-.815 1.417-.928.337-.06.983-.045 1.399.034.053.008.14.023.196.038.719.127 1.342.537 1.588 1.025a.9.9 0 0 1 .102.44c.015.615-.197.776-1.123.844-.397.03-.54.101-.854.413-.442.447-.831 1.104-.831 1.427-.004.248.045.417.242.863a2.128 2.114 0 0 1 .234 1.014 5.564 5.527 0 0 1-.22 1.416l-.249.867c-.363 1.213-.355 1.19-.329 1.577.03.507-.038.59-.563.68a1.656 1.645 0 0 0-.71.289c-.11.097-.382.281-.689.458a1.493 1.483 0 0 0-.578.488c-.113.177-.136.308-.057.353.068.038.114.026.462-.064a.979.973 0 0 1 .302-.045c.087.023.08.147-.023.45a3.13 3.109 0 0 0-.223.872c0 .199.057.42.11.42.019 0 .189-.142.367-.319.313-.3.483-.428.582-.41l.124.012c.102 0 .163.113.31.582.099.3.265.657.325.695.046.03.16-.038.19-.11a2.31 2.294 0 0 0 .037-.348l.03-.657c.02-.406.072-.564.276-.826a1.047 1.04 0 0 0 .242-.526c.046-.255.091-.315.454-.503l.661-.364a2.268 2.253 0 0 1 1.437-.308c.287.011.536.026.56.037.014.015.044-.018.063-.067.05-.124 0-.312-.389-1.581a12.031 11.951 0 0 1-.227-.789 6.781 6.736 0 0 1-.227-1.54c0-.262.004-.273.084-.273.064 0 .102.045.192.203.06.112.235.39.378.62.152.224.37.57.492.765.313.51.567.774.748.774.076 0 .185-.105.246-.244.038-.087.22-.995.264-1.307a2.548 2.53 0 0 1 .295-.766 1.727 1.716 0 0 1 .605-.54 1.19 1.183 0 0 1 .885-.016c.521.21.925.811 1.046 1.532.034.21.023 1.063-.015 1.277-.132.758-.46 1.52-.812 1.915-.14.161-.242.225-.662.428-.748.368-.794.413-.775.886.027.698.02.931-.045 1.085-.197.477-.764.995-1.743 1.596-.752.458-.94.612-1.183.954a1.905 1.892 0 0 1-.366.405c-.133.086-.167.09-.57.101-.492.012-.587.038-.882.21a22.69 22.54 0 0 1-.718.41l-.605.32c-.616.326-.665.36-.638.457.098.293.491.443 1.122.428.386-.011.548-.03 1.02-.139.65-.142.832-.247 1.275-.758.268-.304.366-.338.793-.237.076.019.238.045.348.057.19.015.216.007.45-.128.393-.225 1.591-1.006 2.222-1.446l.295-.199c.053-.041.114-.09.14-.105a1 1 0 0 1 .151-.12 1.777 1.765 0 0 0 .488-.54c.06-.136.064-.192.045-.444l-.038-.405c-.01-.173.046-.338.148-.406.113-.075.132-.075.544-.09.314-.011.367-.019.514-.105a3.685 3.66 0 0 0 .836-.826c.389-.57.718-1.427.861-2.234.087-.488.129-.638.303-1.1.09-.237.181-.48.196-.533.083-.316.02-.519-.268-.826-.284-.3-.314-.376-.287-.703a2.453 2.437 0 0 1 .155-.69c.155-.451.189-.733.102-.962-.06-.161-.117-.233-.303-.383a2.722 2.703 0 0 0-.793-.398c-.745-.3-.96-.495-.96-.863 0-.428.28-.537 1.186-.45l.5.033h.188v-.32a2.204 2.189 0 0 0-.083-.679c-.193-.728-.567-1.104-1.104-1.1a1.55 1.54 0 0 0-.635.146 2.162 2.148 0 0 1-.257.102c-.506.169-.914-.011-.982-.432-.038-.237.026-.345.423-.713.62-.564.695-.661.695-.856 0-.17-.071-.305-.317-.612-.321-.391-.34-.444-.352-.8a3.629 3.605 0 0 0-.026-.383c-.034-.12-.174-.143-.71-.094-.356.03-.485-.011-.851-.274a2.124 2.11 0 0 0-.348-.222 2.638 2.62 0 0 0-.333.364C17.87 3.7 17.412 4 17.113 3.79c-.189-.128-.238-.395-.189-.931a6.01 5.97 0 0 0-.015-1.127.964.958 0 0 0-.347-.604c-.288-.263-.556-.368-1.229-.496l-.612-.116-.363-.064a2.888 2.869 0 0 1-.295-.038 4.241 4.213 0 0 0-1.228-.056c-.065.037-.068.06-.057.236a3.659 3.635 0 0 0 .05.338c.048.263.037 1.506-.016 1.652-.076.214-.197.312-.378.312-.265 0-.416-.214-.59-.803-.31-1.082-.37-1.228-.604-1.484-.167-.18-.356-.281-.514-.281a1.089 1.081 0 0 0-.318.086zM7.222 7.736c.351.375.468 1.141.211 1.397-.087.09-.177.082-.396-.023-.401-.195-.575-.495-.48-.83a1.905 1.892 0 0 1 .374-.706c.083-.037.128-.01.29.162m12.17.38c.492.6.863 1.35.957 1.967a1.95 1.938 0 0 1-.011.702c-.03.026-.798.022-1.074-.008-.42-.037-.752-.191-.892-.401-.2-.305-.075-.853.4-1.758.383-.728.417-.75.62-.503m-4.27 3.675a4 4 0 0 1 .09.458l.038.304.034.376c.046.548.06.65.17 1.089.174.713.19.96.053 1.265-.102.233-.208.33-.359.323-.34-.015-.642-.308-.646-.63a11.993 11.914 0 0 1 .098-1.281 11.287 11.212 0 0 1 .2-1.48l.072-.308.072-.3c.05-.263.076-.24.181.184zm-6.135.368c.51.383.794.819.805 1.232.008.263-.007.285-.2.319-.238.041-.575-.143-.73-.402-.113-.188-.151-.41-.17-.818-.007-.346.004-.496.05-.496.014 0 .124.075.245.165m-6.365.751a.84.834 0 0 1 .136 1.49c-.473.32-.994.17-1.27-.356a1.123 1.115 0 0 1-.023-.63 1.115 1.108 0 0 1 .597-.58 1.104 1.096 0 0 1 .56.076"/></svg>