<svg role="img" viewBox="0 0 24 24" xmlns="http://www.w3.org/2000/svg"><title>Paradox Interactive</title><path d="M10.408.4104c-.2645.1051-.3628.214-.3628.4017 0 .139.0831.5032.2532 1.1115.1097.4017.1172.8598.0265 1.1602-.0756.244-.1134.2778-.2721.2365-.3213-.09-.5443-.3116-1.0433-1.025-.5934-.8448-.7673-.9913-1.2436-1.0063-.3099-.0075-.3817.0113-.7332.1802-.2495.124-.3856.244-.3856.3492.0038.1765.4082.7472.9299 1.3142.3666.3905.6236.9312.5556 1.179a.9525.9462 0 0 1-.3515.4881c-.1323.0901-.174.0976-.3931.0976-.4007 0-.567-.1389-1.236-.9837-.635-.811-.9072-1.025-1.323-1.0176-.3288 0-.548.1502-.6426.4394-.0491.1426-.0037.3003.1437.5106.1323.1952.1323.1915.6236.7134.5292.5632.5784.6759.5519 1.1264-.0227.3755-.0567.413-.3024.3605a6.3653 6.323 0 0 1-1.0281-.4055c-.6804-.3192-.7938-.353-1.1718-.3642-.378-.0075-.514.0225-.703.1652a1.2171 1.209 0 0 0-.3742.5181c-.0378.2253.0416.3192.465.537.4157.2177.529.3079.6047.4806.1058.2478.0378.5745-.2306 1.209-.291.6871-.3288.8936-.2041 1.303.102.3491.1134.4242.0491.627a.8127.8073 0 0 1-.31.4768c-.1889.1277-.4535.1127-1.0394-.0638a2.4191 2.403 0 0 0-.5783-.1277c-.4195-.0488-.7106.3004-.6803.826.015.2967.0377.4206.1852.9763.155.6008.1625.7998.0453 1.209a2.2981 2.2829 0 0 0-.087.5633 1.2095 1.2015 0 0 0 .1362.6157c.1776.4356.1776.4431.2343.9688.034.353.0907.597.1663.7209.1966.3229.4536.3604.809.1126.1398-.0938.1738-.1239.6236-.5331.4687-.4206.635-.5257.8013-.4844.189.045.3629.353.3402.5895-.0151.1427-.0756.244-.2268.3567-.1134.0826-.688.3755-1.0584.5407-.4535.199-.616.3642-.616.6383 0 .3454.378.7922 1.1528 1.3893 1.2738.9837 1.6782 1.7159 1.5006 2.741-.0378.2252-.2608 1.0513-.3364 1.2465-.019.0526.1247.0751.5027.0751.4309-.0038 1.0772-.5782 1.3985-1.2466a3.4245 3.4018 0 0 0 .3856-1.7046c.0038-.3868-.0227-.5257-.276-1.2954-.344-1.0401-.446-1.4456-.461-1.8136-.0152-.2853 0-.3755.204-1.333.0907-.4205.1285-.717.1285-1.0212.0038-.323 0-.3755-.0869-.5445a1.4023 1.393 0 0 0-.2306-.3229l-.1398-.1314-.1059.06c-.1512.0902-.3666.0752-.5972-.0337-.2268-.1126-.3553-.2628-.3742-.4356-.0151-.1652.1134-.3003.5065-.5106.3704-.2065.4385-.2779.4574-.4694.0302-.2252-.0794-.413-.4763-.826-.4687-.4956-.5405-.6008-.5254-.7772.0265-.3192.3667-.7322.756-.9124a.8694.8636 0 0 1 .4536-.1014c.4384 0 1.0243.1877 1.4363.458.4536.3004.5254.4957.3704 1.0138a1.338 1.3292 0 0 0-.0945.4957c0 .2628.0605.3304.5935.6533.2759.169.3402.4506.2079.8711-.1966.6383-.1777.7397.1852.9462.4536.2628.5065.3755.4536.9687-.0303.413 0 .5933.1323.7322.0907.0939.2494.1502.2948.1052a1.7274 1.716 0 0 0 .0491-.3793c.019-.3454.0605-.4994.1701-.6383.0492-.0676.053-.0638.1323.03.0378.0601.1625.2178.257.3605.2835.4055.3213.4506.5179.6383.17.1577.359.2516.4082.199.0983-.0938-.1058-.9387-.3326-1.378-.0378-.0788-.068-.1502-.0567-.1577.0075-.0075.1134.0376.2343.1052.5027.2666.635.3229.7673.3229.1588 0 .1966-.0188.2533-.1277.0642-.1239.0453-.244-.1059-.5482-.1398-.2891-.1436-.3004-.1398-.6683l.0113-.6984c.019-.5407-.0718-.6346-1.1226-1.1753a12.6171 12.5334 0 0 1-.8353-.4543 1.2662 1.2578 0 0 1-.2382-.199c-.1738-.169-.204-.2215-.2267-.3642-.0227-.1464-.0114-.1878.068-.3454.1663-.3155.3326-.368 1.289-.398a8.8826 8.8237 0 0 0 .6311-.0376c.2344-.0376.4914-.1877.7371-.4205.6577-.6383.7635-1.179.3969-2.0126-.17-.383-.1739-.5745-.0227-.8899.2344-.4843.737-.8148 1.4175-.9274.3364-.06.9827-.045 1.3985.0338.053.0075.1399.0225.1966.0375.7181.1277 1.3418.537 1.5875 1.025.0756.1503.0945.2479.102.4394.0152.6158-.1965.7772-1.1226.8448-.3969.03-.5405.1014-.8542.413-.4423.4469-.8316 1.104-.8316 1.4269-.0038.2478.0454.4167.242.8636a2.128 2.114 0 0 1 .2343 1.0137 5.564 5.527 0 0 1-.2193 1.4156l-.2494.8673c-.3629 1.2128-.3553 1.1903-.3289 1.577.0303.507-.0378.5895-.5632.6797a1.6556 1.6446 0 0 0-.7106.289c-.1096.0977-.3817.2817-.688.4582a1.493 1.4831 0 0 0-.5782.488c-.1134.1765-.1361.308-.0567.353.068.0376.1134.0263.4611-.0638a.979.9725 0 0 1 .3024-.045c.087.0225.0794.1464-.0227.4505a3.1297 3.109 0 0 0-.223.8711c0 .199.0567.4206.1096.4206.019 0 .189-.1427.3667-.3192.3137-.3004.4838-.428.582-.4093l.1248.0113c.102 0 .1625.1126.31.582.0982.3004.2645.657.325.6946.0454.03.1588-.0375.189-.1089a2.3095 2.2942 0 0 0 .0378-.3492l.0303-.657c.0189-.4056.0718-.5633.2759-.826a1.047 1.04 0 0 0 .2419-.5258c.0454-.2553.0907-.3154.4536-.503l.6614-.3643a2.2679 2.2529 0 0 1 1.4364-.3079c.2873.0113.5367.0263.5594.0376.0151.015.0454-.0188.0643-.0676.0491-.124 0-.3117-.3894-1.5808a12.0312 11.9514 0 0 1-.2268-.7885 6.781 6.736 0 0 1-.2267-1.5395c0-.2628.0038-.274.0831-.274.0643 0 .102.045.1928.2027.0605.1126.2343.3905.378.6195.1512.2253.3704.5708.4914.766.3137.5107.567.7735.7484.7735.0756 0 .1852-.1051.2457-.244.0378-.0864.2192-.995.2645-1.3067a2.5476 2.5307 0 0 1 .2949-.766 1.7274 1.716 0 0 1 .6047-.5407 1.1906 1.1828 0 0 1 .8845-.015c.5216.2103.926.811 1.047 1.532.034.2102.0227 1.0625-.015 1.2766-.1324.7584-.4612 1.5206-.8128 1.9149-.1398.1615-.2419.2253-.6614.428-.7484.368-.7938.413-.7749.8862.0265.6984.019.9312-.0453 1.0851-.1966.4769-.7636.995-1.7426 1.5958-.7521.458-.9411.612-1.183.9537a1.905 1.8924 0 0 1-.3667.4055c-.1323.0864-.1663.0901-.5707.1014-.4914.0113-.586.0375-.8807.2102a22.6904 22.5399 0 0 1-.7182.4093l-.6048.3192c-.616.3266-.6652.3604-.6388.458.0983.293.4914.4431 1.1226.428.3856-.0112.5481-.03 1.0206-.1388.6501-.1427.8316-.2478 1.2738-.7585.2684-.3041.3667-.338.7938-.2365.0756.0187.2381.045.3477.0563.189.015.2155.0075.4498-.1277.3931-.2253 1.5913-1.0063 2.2226-1.4456l.2948-.199c.053-.0413.1134-.09.1398-.1051.019-.0225.087-.0751.1512-.1202a1.7765 1.7647 0 0 0 .4876-.5406c.0605-.1352.0643-.1915.0454-.4431l-.0378-.4055c-.0114-.1727.0454-.338.1474-.4055.1134-.0751.1323-.0751.5443-.0902.3137-.0113.3666-.0188.514-.1051a3.6853 3.6609 0 0 0 .8354-.826c.3893-.5708.7182-1.4269.8618-2.2341.087-.4882.1285-.6384.3024-1.1002.0907-.2365.1814-.4806.1966-.5332.0831-.3154.0189-.5181-.2684-.826-.2835-.3004-.3137-.3755-.2873-.7022a2.4531 2.4368 0 0 1 .155-.6908c.155-.4506.189-.7322.102-.9613-.0604-.1614-.1171-.2328-.3023-.383a2.7215 2.7034 0 0 0-.7938-.398c-.7446-.3003-.9601-.4956-.9601-.8635 0-.428.2797-.537 1.1869-.4506l.499.0338h.189v-.3192a2.2036 2.189 0 0 0-.0833-.6796c-.1927-.7284-.567-1.1039-1.1037-1.1001a1.5497 1.5395 0 0 0-.635.1464 2.162 2.1477 0 0 1-.257.1014c-.5065.169-.9147-.0113-.9828-.4318-.0378-.2366.0265-.3455.4234-.7134.6199-.5632.6955-.6609.6955-.8561 0-.169-.0719-.3042-.3175-.612-.3213-.3905-.3402-.4431-.3516-.7998a3.6286 3.6046 0 0 0-.0264-.383c-.034-.1201-.1739-.1427-.7106-.0939-.3553.03-.4839-.0112-.8505-.274a2.1243 2.1102 0 0 0-.3477-.2216 2.6383 2.6208 0 0 0-.3327.3642c-.737.9012-1.1944 1.2015-1.493.9913-.189-.1277-.2381-.3943-.189-.9312a6.01 5.97 0 0 0-.0151-1.1264.9639.9575 0 0 0-.3478-.6046c-.2872-.2628-.5556-.368-1.2284-.4956l-.6123-.1164-.363-.0638a2.8878 2.8686 0 0 1-.2947-.0376 4.241 4.2129 0 0 0-1.2285-.0563c-.0643.0376-.068.0601-.0567.2366a3.6589 3.6346 0 0 0 .0492.3379c.049.2628.0378 1.5057-.0152 1.6521-.0756.214-.1965.3116-.378.3116-.2645 0-.4157-.214-.5896-.8035-.31-1.0814-.3704-1.2278-.6048-1.4831-.1663-.1802-.3553-.2816-.514-.2816a1.0886 1.0814 0 0 0-.3175.0863zM7.2217 7.7359c.3516.3755.4687 1.1415.2117 1.3968-.087.0901-.1776.0826-.3969-.0225-.4006-.1953-.5745-.4956-.48-.8298a1.905 1.8924 0 0 1 .3742-.706c.0832-.0375.1285-.0112.291.1615zm12.1711.3793c.4914.6007.8618 1.3517.9563 1.9675a1.9504 1.9375 0 0 1-.0113.7021c-.0303.0263-.7976.0225-1.0735-.0075-.4196-.0375-.7522-.1915-.892-.4017-.2004-.3042-.0757-.8524.4006-1.7573.3818-.7284.4158-.751.6199-.5031zm-4.2712 3.6759c.0378.1577.0832.3642.0907.458l.0378.3042.034.3755c.0454.5482.0605.6496.1702 1.0889.1738.7134.189.9612.0529 1.2653-.1021.2328-.208.3304-.3591.323-.3402-.015-.6426-.308-.6464-.6309a11.9934 11.9139 0 0 1 .0983-1.2803 11.2866 11.2117 0 0 1 .2003-1.4794l.0718-.308.0719-.3003c.0491-.2628.0756-.2403.1814.184zm-6.1347.368c.5103.383.7938.8185.8051 1.2315.0076.2629-.0075.2854-.2003.3192-.2381.0413-.5745-.1427-.7295-.4018-.1134-.1877-.1512-.4093-.17-.8185-.0076-.3455.0037-.4957.049-.4957.0152 0 .1248.0751.2457.1653zm-6.3652.751a.8391.8336 0 0 1 .136 1.4906c-.4724.3191-.994.169-1.27-.3567a1.1226 1.1152 0 0 1-.0227-.6308 1.115 1.1077 0 0 1 .5973-.5783 1.1037 1.0964 0 0 1 .5594.0751z"/></svg>