<svg role="img" viewBox="0 0 24 24" xmlns="http://www.w3.org/2000/svg"><title>Parsec</title><path d="M7.199 16.485c.66.406 9.7 5.99 9.7 5.99s.945.742 1.898.282.913-1.393.913-1.515V8.909s.036-.74-.28-1.41c-.357-.754-.843-1.154-1.371-1.48C17.53 5.696 8.886.348 8.886.348s-.769-.61-1.687-.212S6.25 1.418 6.25 1.65v13.337c.007.201.03.468.106.617.131.261.182.475.843.881zm3.098-10.467 5.379 3.314v7.508l-5.38-3.278zM4.288 16.062c.007.201.03.485.106.634.132.261.183.475.843.881l9.7 5.99s.945.743 1.898.282c.953-.46.914-1.393.914-1.515V10.001s.035-.74-.281-1.41c-.357-.754-.843-1.154-1.371-1.48-.528-.325-9.173-5.672-9.173-5.672s-.768-.61-1.687-.212c-.918.397-.948 1.283-.948 1.515zM8.323 7.11l5.38 3.313v7.509l-5.38-3.278z"/></svg>