<svg role="img" viewBox="0 0 24 24" xmlns="http://www.w3.org/2000/svg"><title>Passbolt</title><path d="M1.393 9.736a2.691 2.691 0 0 1 1.145-.274h.001c1.391 0 2.538 1.153 2.483 2.525a2.51 2.51 0 0 1-2.51 2.524c-.438 0-.847-.11-1.202-.302A2.519 2.519 0 0 1 0 11.987c0-.988.572-1.84 1.393-2.25zm12.14-8.562 9.77 9.193h.001c.928.907.928 2.387 0 3.266l-9.74 9.193c-.875.795-2.211.795-3.058 0l-6.167-5.79c1.638-.577 2.894-1.949 3.358-3.65h3.682v1.782c0 .411.326.768.764.768h2.1c.41 0 .764-.329.764-.768v-1.783h.955c.41 0 .764-.328.764-.768v-1.263a.764.764 0 0 0-.764-.767H7.667a5.444 5.444 0 0 0-3.33-3.623l6.14-5.79c.874-.795 2.21-.795 3.057 0z"/></svg>