<svg role="img" xmlns="http://www.w3.org/2000/svg" viewBox="0 0 24 24"><title>Pastebin icon</title><path d="M16.635.006c-.109.01-.21.03-.307.066C8.973 2.718 2.898 4.934 2.453 5.137c-.834.383-1.2.975-1.195 1.945.003.68.22 1.326 2.57 7.746 1.402 3.85 2.667 7.288 2.791 7.633.384.99 1.146 1.544 2.115 1.539.413-.002 1.57-.377 4.93-1.598 2.415-.87 4.596-1.706 4.852-1.863.544-.315.966-.819 1.972-2.34.907-1.364 1.867-3.33 2.108-4.29.338-1.362.258-1.663-1.766-7.249-1.017-2.782-1.942-5.252-2.055-5.474-.374-.72-1.38-1.248-2.14-1.18zm.539.447c.24.014.39.093.572.203.201.11.448.345.549.5.19.29 3.808 10.147 3.945 10.748.103.435-.284 1.149-.74 1.352-.2.101-.712.294-1.146.43-1.403.464-2.058.88-2.467 1.55-.365.593-.318 1.184.156 2.385.463 1.146.534 1.87.225 2.406-.188.313-.567.472-4.795 1.998-4.974 1.81-4.952 1.809-5.735 1.278a2.104 2.104 0 01-.56-.576C6.93 22.293 1.653 7.739 1.572 7.26c-.08-.468.283-1.317.694-1.586.166-.112 3.382-1.334 7.154-2.713C14.936.95 16.454.41 17.174.453zm-1.297 1.83l-.711.518-.496.369.113.316.074.205.526-.316.4 1.115.405 1.127-.36.13-.338.12c.046.145.216.642.239.664l2.173-.779-.24-.666-.244.088-.445.16-.334-.932zm-3.3 1.186l-.712.517-.494.37.113.316.073.205.525-.316.4 1.115.407 1.127-.362.129-.338.12c.046.145.216.645.239.667l2.174-.782-.24-.666-.245.088-.443.16-.336-.931zM8.88 4.836c-.213.021-.43.092-.643.217-.733.45-.852 1.385-.334 2.564.339.779.876 1.222 1.467 1.219 1.349-.007 1.867-1.402 1.09-2.959-.336-.721-.94-1.105-1.58-1.041zm.07.674c.141.026.292.116.438.271.145.156.349.511.44.79.35 1 .163 1.694-.417 1.552-.603-.142-1.248-2.078-.838-2.492a.408.408 0 01.377-.121zm-4.039.752c-.213.02-.43.092-.642.217-.734.45-.851 1.385-.332 2.564.338.779.874 1.222 1.464 1.219 1.35-.007 1.867-1.403 1.09-2.96-.336-.72-.94-1.104-1.58-1.04zm.072.674c.141.025.292.116.438.271.146.155.347.51.437.79.351 1 .165 1.694-.416 1.552-.602-.142-1.246-2.078-.836-2.492a.408.408 0 01.377-.121zm13.139.656a1.587 1.587 0 00-.644.217c-.734.45-.851 1.387-.333 2.566.339.779.876 1.222 1.467 1.219 1.35-.007 1.865-1.403 1.088-2.96-.336-.72-.938-1.106-1.578-1.042zm.07.676c.141.025.292.116.438.271.146.155.349.51.44.79.35 1 .164 1.692-.417 1.55-.602-.142-1.248-2.078-.838-2.492a.407.407 0 01.377-.12zm-4.039.75c-.213.02-.43.092-.642.216-.734.45-.853 1.388-.334 2.567.338.778.876 1.222 1.467 1.219 1.348-.007 1.866-1.403 1.09-2.96-.337-.72-.94-1.106-1.58-1.042zm.07.675c.141.026.292.117.438.272.146.155.349.51.44.789.35 1.001.164 1.693-.416 1.55-.603-.141-1.249-2.077-.838-2.492a.407.407 0 01.377-.119zm-4.017.745a1.587 1.587 0 00-.645.216c-.733.45-.85 1.386-.332 2.565.339.778.876 1.221 1.467 1.219 1.35-.008 1.865-1.403 1.088-2.96-.336-.72-.938-1.104-1.578-1.04zm.07.673c.141.026.292.116.438.272.146.155.347.51.437.789.351 1.001.167 1.695-.414 1.553-.602-.142-1.248-2.078-.838-2.493a.408.408 0 01.377-.12zm-3.63.612l-.71.515-.496.371.114.315.072.207.525-.318.403 1.115.404 1.127-.361.129-.338.12c.045.145.216.645.238.667l2.174-.782-.24-.664-.245.088-.443.158-.336-.931zm15.664 1.285c.045-.014.062.032.08.133.022.111-.064.545-.196.959-.472 1.44-2.063 4.236-3.093 5.412l-.41.468.052-.668c.03-.568-.016-.813-.377-1.714-.497-1.269-.532-1.737-.156-2.319.343-.514 1.03-.909 2.455-1.373.723-.237 1.18-.462 1.39-.664.134-.145.209-.22.255-.234zm-6.4 1.53l-.712.517-.496.369.113.316.075.205.525-.316.4 1.115.405 1.127-.36.129-.338.121c.046.145.216.644.239.666l2.172-.781-.239-.666-.244.088-.445.16-.334-.932zm-3.749 1.34a1.587 1.587 0 00-.644.218c-.734.45-.851 1.385-.332 2.564.338.779.876 1.222 1.466 1.219 1.35-.007 1.865-1.402 1.088-2.96-.336-.72-.938-1.104-1.578-1.04zm.07.675c.141.025.292.116.438.271.146.156.347.513.437.791.351 1.002.167 1.693-.414 1.551-.602-.142-1.248-2.078-.838-2.492a.408.408 0 01.377-.121zm-3.628.611l-.711.516-.497.37.114.315.074.207.523-.318.403 1.117.404 1.125-.361.129-.338.123c.045.145.216.642.238.664l2.174-.781-.238-.664-.246.088-.444.16-.336-.934z"/></svg>