<svg role="img" viewBox="0 0 24 24" xmlns="http://www.w3.org/2000/svg"><title>PAYBACK</title><path d="M3.909 0A3.912 3.912 0 0 0 0 3.906v16.187A3.912 3.912 0 0 0 3.909 24H20.09A3.912 3.912 0 0 0 24 20.093V3.906A3.912 3.912 0 0 0 20.09 0zm0 1.208H20.09c1.49 0 2.7 1.211 2.7 2.698v16.187a2.703 2.703 0 0 1-2.7 2.699H3.909c-1.489 0-2.7-1.211-2.7-2.699V3.906a2.702 2.702 0 0 1 2.7-2.698zM8.24 4.953c-1.813 0-3.288 1.475-3.288 3.288s1.475 3.288 3.288 3.288 3.288-1.475 3.288-3.288-1.475-3.288-3.288-3.288zm7.519.001c-1.814 0-3.29 1.476-3.29 3.288s1.477 3.287 3.29 3.287c1.812 0 3.287-1.474 3.287-3.287s-1.473-3.288-3.287-3.288zm-7.519.65c1.454 0 2.636 1.183 2.636 2.637s-1.182 2.636-2.636 2.636-2.636-1.182-2.636-2.636S6.787 5.604 8.24 5.604zm0 6.867c-1.813 0-3.288 1.474-3.288 3.288s1.475 3.288 3.288 3.288 3.288-1.475 3.288-3.288-1.475-3.288-3.288-3.288zm7.518 0c-1.813 0-3.288 1.474-3.288 3.288s1.475 3.288 3.288 3.288 3.288-1.475 3.288-3.288-1.475-3.288-3.288-3.288zm-7.518.651c1.454 0 2.636 1.183 2.636 2.637s-1.182 2.636-2.636 2.636-2.636-1.182-2.636-2.636 1.182-2.637 2.636-2.637zm7.518 0c1.454 0 2.636 1.183 2.636 2.637s-1.182 2.636-2.636 2.636-2.636-1.182-2.636-2.636 1.182-2.637 2.636-2.637z"/></svg>