<svg role="img" viewBox="0 0 24 24" xmlns="http://www.w3.org/2000/svg"><title>Payoneer icon</title><path d="M1.534 3.36c.233 1.792 1.029 5.61 1.39 7.222.095.456.2.848.296 1.007.499.86.902-.286.902-.286C5.68 6.647 3.22 3.646 2.436 2.84c-.138-.149-.382-.33-.605-.393-.318-.095-.371.085-.371.234.01.148.064.562.074.678zm21.71-1.454c.307.223 1.378 1.347 0 1.517-1.973.233-5.728.371-11.953 5.578C8.937 10.974 3.655 16.287.824 22.894A.18.18 0 01.61 23c-.254-.074-.71-.35-.477-1.41.318-1.432 3.182-8.887 10.754-15.463 2.471-2.142 8.368-7.19 12.355-4.22z"/></svg>
