<svg role="img" viewBox="0 0 24 24" xmlns="http://www.w3.org/2000/svg"><title>Payoneer icon</title><path d="m 1.4738017,3.3095374 c 0.2343488,1.8023741 1.034957,5.6424769 1.3980468,7.2638096 0.09555,0.458639 0.2011578,0.852909 0.2977136,1.012829 C 3.6714509,12.451155 4.0767839,11.29852 4.0767839,11.29852 5.6438033,6.6155662 3.1695621,3.5971931 2.3810234,2.7865271 2.2422245,2.6366645 1.996812,2.4546167 1.772521,2.391252 1.4526801,2.295702 1.3993733,2.4767441 1.3993733,2.6266066 c 0.010058,0.1488568 0.06437,0.5652535 0.074428,0.6819251 z M 23.309483,1.8471201 c 0.308777,0.224291 1.385978,1.3547979 0,1.5257821 C 21.325061,3.607251 17.548323,3.7460499 11.287286,8.9831937 8.9196584,10.967616 3.6070804,16.311373 0.75969146,22.956622 A 0.18104204,0.18104204 0 0 1 0.54445259,23.063236 C 0.28898216,22.988807 -0.16965767,22.711209 0.06469119,21.645073 0.38453212,20.204783 3.2651121,12.706625 10.880947,6.0925559 13.366252,3.9381556 19.29739,-1.1390677 23.307472,1.8481259 Z" /></svg>
