<svg viewBox="0 0 16 16" xmlns="http://www.w3.org/2000/svg" fill-rule="evenodd" clip-rule="evenodd" stroke-linejoin="round" stroke-miterlimit="1.414"><path d="M4.613 16h-2.07c-.443 0-.724-.354-.624-.786l.103-.45h1.383c.444 0 .89-.355.988-.787l.708-3.062c.1-.432.544-.786.987-.786h.588c2.526 0 4.49-.517 5.894-1.553 1.406-1.036 2.108-2.398 2.108-4.09 0-.743-.13-1.364-.392-1.862-.004-.01-.01-.018-.014-.027.028.016.055.032.082.05.497.31.878.715 1.138 1.214.262.498.392 1.12.392 1.863 0 1.69-.702 3.053-2.108 4.09-1.405 1.035-3.368 1.55-5.894 1.55h-.588c-.444 0-.888.356-.988.787L5.6 15.214c-.1.432-.544.786-.987.786zm-1.785-1.797H.758c-.442 0-.723-.353-.624-.786L3.05.787C3.15.353 3.593 0 4.036 0h4.31c.93 0 1.74.065 2.433.192.69.127 1.288.346 1.793.66.496.31.878.715 1.137 1.213.26.498.392 1.12.392 1.864 0 1.69-.702 3.05-2.108 4.088C10.59 9.053 8.624 9.57 6.1 9.57h-.59c-.442 0-.887.353-.986.786l-.707 3.06c-.1.434-.545.787-.99.787zm4.964-11.58h-.676c-.444 0-.888.353-.987.785l-.62 2.68c-.1.433.18.786.625.786h.513c1.114 0 1.982-.228 2.603-.68.623-.457.932-1.103.932-1.942 0-.553-.2-.963-.602-1.226-.4-.27-.997-.404-1.788-.404z"/></svg>