<?xml version="1.0" encoding="UTF-8" standalone="no"?>
<svg
   id="Layer_1"
   data-name="Layer 1"
   viewBox="0 0 24 23.999999"
   version="1.1"
   sodipodi:docname="pbs.svg"
   width="24"
   height="24"
   inkscape:version="1.3.2 (1:1.3.2+202311252150+091e20ef0f)"
   xmlns:inkscape="http://www.inkscape.org/namespaces/inkscape"
   xmlns:sodipodi="http://sodipodi.sourceforge.net/DTD/sodipodi-0.dtd"
   xmlns="http://www.w3.org/2000/svg"
   xmlns:svg="http://www.w3.org/2000/svg"
   xmlns:rdf="http://www.w3.org/1999/02/22-rdf-syntax-ns#"
   xmlns:cc="http://creativecommons.org/ns#"
   xmlns:dc="http://purl.org/dc/elements/1.1/">
  <sodipodi:namedview
     id="namedview5"
     pagecolor="#ffffff"
     bordercolor="#000000"
     borderopacity="0.25"
     inkscape:showpageshadow="2"
     inkscape:pageopacity="0.0"
     inkscape:pagecheckerboard="0"
     inkscape:deskcolor="#d1d1d1"
     showguides="true"
     inkscape:zoom="3.7939847"
     inkscape:cx="29.520414"
     inkscape:cy="11.33373"
     inkscape:window-width="1920"
     inkscape:window-height="1016"
     inkscape:window-x="0"
     inkscape:window-y="0"
     inkscape:window-maximized="1"
     inkscape:current-layer="g5" />
  <defs
     id="defs1">
    <style
       id="style1">.cls-1{opacity:0.25;}.cls-2{fill:#fff;}</style>
  </defs>
  <title
     id="title1">PBS_watermark_QuarterOpac</title>
  <g
     class="cls-1"
     id="g5"
     transform="translate(-146.72091,-65.051484)">
    <g
       id="g6">
      <path
         id="path2"
         style="fill:#000000;fill-opacity:1;stroke-width:0.221459"
         class="cls-2"
         d="m 154.89669,67.844453 c -4.36715,0 -8.07206,3.5762 -7.97461,7.943359 0.0776,3.262081 2.18054,5.697877 5.10156,6.619141 v 4.572265 h 7.16797 v -3.804687 h 0.89649 c 1.12182,0.03722 2.05553,-0.854249 2.07226,-1.976563 v -3.269531 l 1.77149,-0.361328 h 0.008 c 0.38733,-0.07262 0.59436,-0.498237 0.41211,-0.847656 l -4.65039,-8.875 z m 8.25391,0 4.65039,8.875 c 0.18206,0.347132 -0.02,0.771229 -0.4043,0.847656 l -1.77148,0.361328 v 3.269531 c -0.0165,1.122491 -0.95223,2.014024 -2.07422,1.976563 h -0.9043 v 3.804687 h 2.91406 v -3.804687 h 0.89454 c 1.12178,0.03722 2.05553,-0.854249 2.07226,-1.976563 v -3.269531 l 1.77149,-0.361328 c 0.39093,-0.06778 0.6044,-0.49535 0.42187,-0.847656 l -4.65234,-8.875 z m -4.75391,4.734375 c 0.93081,0.04745 1.72864,0.814169 1.72852,1.820312 -9.2e-4,1.006172 -0.8161,1.823055 -1.82227,1.824219 -2.07665,0.0011 -2.53786,-2.916015 -0.5625,-3.556641 0.22082,-0.07175 0.44145,-0.09884 0.65625,-0.08789 z" />
    </g>
  </g>
  <metadata
     id="metadata5">
    <rdf:RDF>
      <cc:Work
         rdf:about="">
        <dc:title>PBS_watermark_QuarterOpac</dc:title>
      </cc:Work>
    </rdf:RDF>
  </metadata>
</svg>
