<svg id="Layer_1" data-name="Layer 1" xmlns="http://www.w3.org/2000/svg" viewBox="0 0 356.09 152.63"><defs><style>.cls-1{opacity:0.25;}.cls-2{fill:#fff;}</style></defs><title>PBS_watermark_QuarterOpac</title><g class="cls-1"><path class="cls-2" d="M147.6,75.6a72,72,0,1,1-72-72,72,72,0,0,1,72,72"/><path class="cls-2" d="M328,67.58c-7.87-4.08-14.24-7.4-14.24-13.72,0-4.47,3.82-7.24,10.26-7.24a38.67,38.67,0,0,1,19.62,5.56V35.92A52.93,52.93,0,0,0,324,31.6c-19,0-27.51,11.32-27.51,23.56,0,14.37,9.68,21.27,20.35,26.91s14.51,8,14.51,14c0,5.07-4.41,8-11.79,8-10.26,0-17.54-4.74-22.26-8.54v17.29a44.44,44.44,0,0,0,22.14,6.81c18.44,0,30.07-9.62,30.07-25.11C349.51,78.5,335.86,71.66,328,67.58Z"/><path class="cls-2" d="M187.38,32.4H164.6v86.4h17V91.32H185c21.28,0,34.51-11.32,34.51-29.55C219.54,43.38,207.51,32.4,187.38,32.4ZM181.6,46.8h5c10,0,16.43,5.78,16.43,14.71,0,9.69-5.94,15.24-16.3,15.24H181.6Z"/><path class="cls-2" d="M273.81,72.28c5.75-4,8.56-9.87,8.56-17.77,0-13.64-10-22.11-26.16-22.11H229.83v86.4h27.55c21.12,0,30.73-13.56,30.73-26.16C288.11,82.68,282.66,75,273.81,72.28ZM255,47c6.66,0,11,4.15,11,10.56S261.29,68.2,254.08,68.2h-7.24V47Zm-8.15,57.43V81.82h10.77c8.57,0,13.69,4.2,13.69,11.22,0,7.52-5.13,11.34-15.26,11.34Z"/><path d="M128,76.3l-8,1.63V92.7a9.06,9.06,0,0,1-9.36,8.92H106.6V118.8H93.45V101.62h4.08a9.06,9.06,0,0,0,9.36-8.92V77.93l8-1.63a2.65,2.65,0,0,0,1.83-3.83l-21-40.07H108.9l21,40.07A2.65,2.65,0,0,1,128,76.3Zm-28.75,0-8,1.63V92.7a9.06,9.06,0,0,1-9.36,8.92H77.84V118.8H45.48V98.16C32.29,94,22.79,83,22.44,68.27,22,48.55,38.73,32.4,58.45,32.4H80.14l21,40.07A2.65,2.65,0,0,1,99.28,76.3ZM82.06,62a8.23,8.23,0,1,0-8.23,8.23A8.24,8.24,0,0,0,82.06,62Z"/></g></svg>