<svg role="img" viewBox="0 0 24 24" xmlns="http://www.w3.org/2000/svg"><title>PDF</title><path d="M8.066 16.884h.91q.436 0 .708.084.272.08.457.363.186.28.186.676 0 .363-.15.624-.151.261-.407.377-.253.116-.78.116h-.316v1.434h-.608zm.608.471v1.282h.302q.404 0 .557-.151.156-.15.156-.49 0-.253-.102-.41-.102-.158-.226-.193-.121-.038-.385-.038zm2.119-.47h.826q.6 0 .958.212.36.213.544.633.186.42.186.93 0 .54-.167.962-.164.42-.506.678-.34.258-.97.258h-.871zm.608.487v2.7h.253q.53 0 .77-.367.24-.369.24-.982 0-1.351-1.01-1.351zm2.49-.488h2.04v.488h-1.432v1.098h1.147v.487h-1.147v1.601h-.608ZM7.113 14.29c-.56-.56.046-1.33 1.691-2.148l1.036-.514.403-.883c.222-.485.553-1.277.736-1.76l.332-.877-.229-.65c-.282-.798-.382-1.997-.203-2.429.242-.584 1.035-.524 1.348.102.246.49.22 1.375-.07 2.493l-.238.916.21.356c.115.196.452.661.749 1.034l.557.693.694-.09c2.204-.288 2.959.201 2.959.902 0 .884-1.73.957-3.184-.063-.327-.23-.552-.458-.552-.458s-.91.185-1.358.306c-.463.125-.694.203-1.371.432 0 0-.238.345-.393.596-.577.934-1.25 1.708-1.73 1.99-.539.315-1.103.337-1.387.052zm.88-.314c.315-.194.952-.948 1.393-1.648l.18-.284-.815.41c-1.256.631-1.831 1.227-1.532 1.587.168.202.369.185.774-.065zm8.162-2.29c.308-.217.263-.651-.085-.827-.271-.136-.49-.164-1.194-.154-.433.03-1.128.117-1.246.143 0 0 .382.265.552.362.225.129.775.368 1.175.49.396.122.624.11.798-.015zm-3.282-1.365a8.053 8.053 0 0 1-.705-.909c-.263-.345-.395-.588-.395-.588s-.192.618-.35.99l-.491 1.216-.143.276s.758-.249 1.144-.35c.409-.106 1.238-.27 1.238-.27zM11.815 6.08c.048-.4.068-.798-.06-.999-.356-.389-.785-.064-.713.86.025.31.102.843.205 1.17l.188.596.132-.449c.073-.247.185-.777.248-1.178zM4.718.815h10.917a.407.407 0 0 0 .009 0s.436.004.755.14c.308.133.526.332.527.334l.002.001 3.603 3.535s.217.23.322.465c.085.19.09.539.09.539a.407.407 0 0 0 0 .017v15.675c0 .929-.735 1.665-1.664 1.665H4.719c-.93 0-1.665-.736-1.665-1.665V2.48c0-.93.735-1.665 1.664-1.665zm0-.815A2.483 2.483 0 0 0 2.24 2.48v19.04A2.483 2.483 0 0 0 4.718 24h14.56a2.483 2.483 0 0 0 2.48-2.48V5.865s.038-.459-.16-.905a2.507 2.507 0 0 0-.491-.71.407.407 0 0 0-.003-.002L17.492.703a.407.407 0 0 0-.006-.006s-.309-.293-.766-.49c-.538-.23-1.093-.206-1.093-.206L15.635 0z"/></svg>