<svg role="img" viewBox="0 0 24 24" xmlns="http://www.w3.org/2000/svg"><title>Pearson</title><path d="M18.22 1.546c5.092 2.888 6.278 9.368 2.736 15.922-3.114 5.762-9.914 8.224-14.98 5.29-5.068-2.934-6.056-11.12-3.88-15.83 3.162-6.84 10.5-8.576 16.124-5.382zM11.88 18.4c-.152-.119-.33-.2-.518-.24a.996.996 0 0 0-.186-.018c-.358.01-.69.192-.89.49a1.15 1.15 0 0 0-.208.854.944.944 0 0 0 .21.474c.12.138.302.242.528.306.13.035.265.053.4.054.274.006.542-.082.76-.248a.944.944 0 0 0 .366-.76 1.168 1.168 0 0 0-.462-.912zm6.592-12.172c1.02 1.066 1.34 2.684 1.16 4.01-.202 1.514-1.14 2.914-2.7 3.84-1.236.738-2.86 1.032-4.46 1.046-.012.248-.062 1.1-.088 1.236a.87.87 0 0 1-.196.42c-.172.218-.47.36-.766.44a2.496 2.496 0 0 1-.632.096.8.8 0 0 1-.568-.234.8.8 0 0 1-.204-.482l-.012-.17c-.034-.144-.22-7.496-.184-7.366.028-.88 1.48-1.034 2.27-.88.79.158.59 1.098.57 2.252 0 0-.04 1.52-.112 3.124a6.18 6.18 0 0 0 2.556-.684c1.512-.732 2.312-1.856 2.312-3.512s-1.648-3.51-4.688-3.51-4.346.75-5.818 1.94c-.332.27-.588.54-.83.72-.24.178-.882.204-1.054-.212-.208-.504.18-1.064.406-1.334.36-.426 1.24-1.284 2.218-1.78C8.772 4.616 10.14 4 12.048 3.954c1.724-.044 4.448.094 6.41 2.26"/></svg>