<svg role="img" viewBox="0 0 24 24" xmlns="http://www.w3.org/2000/svg"><title>Pearson</title><path d="M18.219 1.545C12.593-1.647 5.257.089 2.097 6.929c-2.178 4.71-1.188 12.896 3.878 15.83 5.066 2.932 11.866.47 14.98-5.29 3.544-6.556 2.358-13.034-2.736-15.924zM11.977 20.07a1.2 1.2 0 0 1-.76.248c-.135 0-.27-.018-.4-.054-.228-.064-.41-.168-.53-.306a.934.934 0 0 1-.208-.474 1.15 1.15 0 0 1 .206-.854c.2-.298.531-.48.89-.49a1 1 0 0 1 .186.018c.188.04.366.121.518.24.286.217.456.553.462.912a.944.944 0 0 1-.364.76zm7.654-9.834c-.2 1.514-1.14 2.914-2.7 3.84-1.236.738-2.86 1.032-4.46 1.046-.012.248-.062 1.1-.088 1.236a.87.87 0 0 1-.196.42c-.172.218-.47.36-.766.44-.206.06-.42.09-.632.094a.802.802 0 0 1-.568-.234.8.8 0 0 1-.202-.48l-.014-.17c-.034-.146-.22-7.496-.184-7.366.028-.88 1.48-1.034 2.27-.88.792.158.59 1.096.57 2.252 0 0-.038 1.52-.11 3.122 1.006-.038 1.806-.32 2.554-.68 1.512-.734 2.312-1.86 2.312-3.514 0-1.656-1.648-3.51-4.688-3.51s-4.346.75-5.818 1.94c-.332.27-.586.54-.83.72-.24.176-.882.204-1.054-.212-.208-.504.18-1.064.408-1.334.356-.426 1.24-1.284 2.216-1.782 1.12-.572 2.488-1.188 4.396-1.234 1.724-.044 4.448.094 6.41 2.26l.014.016c1.02 1.066 1.34 2.684 1.16 4.01z"/></svg>