<svg role="img" viewBox="0 0 24 24" xmlns="http://www.w3.org/2000/svg"><title>Pearson</title><path d="M18.27 1.566C12.598-1.62 5.208.114 2.022 6.939-.172 11.64.824 19.808 5.93 22.737c5.105 2.927 11.957.471 15.094-5.279 3.57-6.541 2.376-13.007-2.754-15.892zm-6.51 18.698c-.201.16-.46.246-.749.246-.132 0-.263-.02-.392-.055a1.057 1.057 0 0 1-.521-.303.944.944 0 0 1-.207-.471 1.157 1.157 0 0 1 .205-.848c.213-.303.542-.485.875-.485.061 0 .123.007.184.019.176.035.352.118.508.237.283.217.453.557.456.903a.943.943 0 0 1-.359.757zm7.533-9.757c-.201 1.501-1.123 2.89-2.656 3.811-1.217.731-2.817 1.022-4.39 1.036-.013.246-.062 1.094-.087 1.228a.868.868 0 0 1-.193.415c-.169.218-.462.356-.753.439a2.5 2.5 0 0 1-.623.092c-.026 0-.053-.002-.08-.004a.791.791 0 0 1-.479-.228.803.803 0 0 1-.199-.479l-.012-.167c-.033-.144-.215-7.439-.181-7.308.026-.874 1.457-1.026 2.234-.872.777.155.58 1.086.56 2.233 0 0-.037 1.506-.109 3.098.99-.038 1.779-.316 2.514-.676 1.486-.728 2.273-1.844 2.273-3.485 0-1.644-1.619-3.482-4.611-3.482-2.991 0-4.275.743-5.723 1.925-.326.267-.579.534-.816.712-.238.176-.871.203-1.039-.21-.204-.499.177-1.055.402-1.325.352-.421 1.219-1.271 2.181-1.766 1.101-.566 2.448-1.178 4.323-1.225 1.696-.041 4.376.093 6.306 2.244l.014.014c1.005 1.058 1.318 2.662 1.144 3.98z"/></svg>