<svg role="img" viewBox="0 0 24 24" xmlns="http://www.w3.org/2000/svg"><title>Pearltrees</title><path d="M18.134 1.964c1.875 1.535 3.402 3.69 3.67 6.161.148 2.994-.276 5.753-2.336 8.07a9.774 9.774 0 0 1-6.429 3.065l-.264.02c-1.463.052-3.134-.269-4.359-1.085L8.3 24H3.204a1797.225 1797.225 0 0 1-.045-9.347 295.093 295.093 0 0 1-.012-2.59c0-.453 0-.91-.007-1.367-.038-3.644-.038-3.644.654-5.3l.132-.321c.098-.234.208-.457.329-.684l.12-.238c.976-1.826 2.409-2.979 4.37-3.648 3.164-.933 6.75-.642 9.39 1.455Zm-6.16 1.3a3.58 3.58 0 0 0-.757 1.252c-.846 1.954-.846 1.954-1.591 2.373-.714.242-1.436.322-2.185.378-.892.065-.892.065-1.633.5.004.38.155.513.416.8l.37.356.39.378.189.189c.302.298.578.616.854.94.121.145.253.284.39.417.003.302.003.302-.03.691l-.039.443a102.847 102.847 0 0 1-.226 2.192l-.038.314-.03.28c-.02.256-.02.256.245.464a3.243 3.243 0 0 0 1.391-.453l.382-.197.79-.42c1.081-.551 1.081-.551 1.66-.374.173.083.347.17.517.261l.302.144a50.373 50.373 0 0 1 1.622.794l.283.143c.31.114.549.121.87.102a1.724 1.724 0 0 0 .057-.967c-.016-.125-.038-.246-.05-.37l-.056-.386a49.034 49.034 0 0 1-.186-1.474l-.037-.33c-.03-.415-.046-.721.181-1.088.2-.22.408-.412.635-.605l.454-.427.226-.204c.261-.25.5-.51.726-.794l.19-.23c.15-.314.075-.495-.005-.824l-.317-.064a443.607 443.607 0 0 1-2.415-.47l-.443-.086c-.752-.181-.752-.181-1.005-.544l-.129-.265a116.432 116.432 0 0 1-.612-1.21L13.18 4.6c-.367-.707-.367-.707-.85-1.334h-.36z"/></svg>