<svg role="img" viewBox="0 0 24 24" xmlns="http://www.w3.org/2000/svg"><title>Pearson</title><path d="M18.413 1.545C12.61-1.647 5.05.088 1.791 6.93-.455 11.639.564 19.828 5.789 22.76c5.224 2.93 12.234.471 15.443-5.295 3.654-6.551 2.431-13.029-2.819-15.92zm-6.66 18.732c-.209.162-.47.252-.764.252-.138 0-.27-.021-.406-.063a1.077 1.077 0 0 1-.53-.293.971.971 0 0 1-.211-.48 1.125 1.125 0 0 1 .21-.846c.214-.307.552-.49.892-.49.061 0 .128.016.188.02.185.041.362.117.519.238.291.223.466.559.468.91a.939.939 0 0 1-.366.752zm7.701-9.775c-.197 1.508-1.148 2.902-2.717 3.818-1.244.73-2.881 1.031-4.489 1.037-.013.252-.061 1.098-.085 1.234a.868.868 0 0 1-.198.42c-.174.215-.471.354-.772.432-.235.066-.47.094-.635.094-.025 0-.056-.004-.082-.004a.816.816 0 0 1-.491-.23.755.755 0 0 1-.202-.475l-.012-.164c-.035-.144-.222-7.458-.187-7.325.026-.878 1.49-1.029 2.285-.875.796.154.596 1.089.573 2.237 0 0-.042 1.511-.115 3.104 1.014-.041 1.823-.322 2.575-.68 1.521-.727 2.322-1.841 2.322-3.491 0-1.647-1.66-3.49-4.713-3.49-3.059 0-4.377.747-5.857 1.931-.33.269-.588.537-.831.714-.246.177-.891.202-1.065-.211-.209-.5.179-1.056.41-1.325.361-.422 1.25-1.276 2.234-1.771 1.127-.569 2.501-1.18 4.422-1.228 1.731-.043 4.48.094 6.455 2.25l.006.013c1.027 1.057 1.353 2.67 1.169 3.985z"/></svg>