<svg role="img" viewBox="0 0 24 24" fill="none" xmlns="http://www.w3.org/2000/svg"><title>Peerlist</title><defs><filter color-interpolation-filters="sRGB" height="1" id="a" width="1" x="0" y="0"><feColorMatrix values="0.21 0.72 0.072 0 0 0.21 0.72 0.072 0 0 0.21 0.72 0.072 0 0 0 0 0 1 0"/></filter></defs><g filter="url(#a)" transform="scale(.42857)"><path d="M28 0C6.222 0 0 6.222 0 28s6.238 28 28 28 28-6.222 28-28S49.762 0 28 0z" fill="#00aa45"/><g clip-rule="evenodd" fill-rule="evenodd"><path d="M7.248 7.248C3.588 10.908 2 17.153 2 28c0 10.846 1.591 17.092 5.253 20.752S17.161 53.999 28 53.999s17.085-1.587 20.747-5.247C52.41 45.092 54 38.846 54 28s-1.59-17.092-5.253-20.752C45.085 3.588 38.84 2 28 2 17.153 2 10.908 3.587 7.248 7.247zM0 28C0 6.222 6.222 0 28 0c21.762 0 28 6.222 28 28s-6.238 28-28 28S0 49.777 0 28z" fill="#219653"/><path d="M27.077 13H15v34h9.385v-7.111h2.692C34.73 39.889 41 33.905 41 26.445S34.73 13 27.077 13zm-2.692 17.778v-8.667h2.692c2.542 0 4.538 1.976 4.538 4.334s-1.995 4.333-4.538 4.333z" fill="#24292e"/><path d="M18 12h11.077C36.214 12 42 17.572 42 24.444c0 6.873-5.786 12.444-12.923 12.444h-3.692v7.111H18zm7.385 17.778h3.692c3.059 0 5.538-2.388 5.538-5.333 0-2.946-2.48-5.334-5.538-5.334h-3.692z" fill="#fff"/><path d="M17 11h12.077C36.731 11 43 16.984 43 24.444s-6.27 13.444-13.923 13.444h-2.692v7.111H17zm2 2v30h5.385v-7.111h4.692c6.62 0 11.923-5.16 11.923-11.444C41 18.16 35.698 13 29.077 13zm5.385 5.111h4.692c3.575 0 6.538 2.8 6.538 6.333 0 3.534-2.963 6.334-6.538 6.334h-4.692zm2 2v8.667h2.692c2.542 0 4.538-1.976 4.538-4.334s-1.996-4.333-4.538-4.333z" fill="#24292e"/></g></g></svg>