<svg width="24" height="24" viewBox="0 0 24 24" fill="none" xmlns="http://www.w3.org/2000/svg">
<path fill-rule="evenodd" clip-rule="evenodd" d="M3.34853 3.34853C1.88583 4.81122 1.2 7.35844 1.2 12C1.2 16.641 1.88732 19.1884 3.35084 20.6513C4.81449 22.1143 7.36205 22.8 12 22.8C16.6379 22.8 19.1855 22.1143 20.6492 20.6513C22.1127 19.1884 22.8 16.641 22.8 12C22.8 7.359 22.1127 4.81158 20.6492 3.34872C19.1855 1.88573 16.6379 1.2 12 1.2C7.35844 1.2 4.81122 1.88583 3.34853 3.34853ZM0 12C0 2.66667 2.66667 0 12 0C21.3267 0 24 2.66667 24 12C24 21.3333 21.3267 24 12 24C2.67333 24 0 21.3333 0 12Z" fill="#24292E"/>
<path fill-rule="evenodd" clip-rule="evenodd" d="M6.85718 5.14285H11.7267C14.4918 5.14285 16.7334 7.3844 16.7334 10.1495C16.7334 12.9135 14.4937 15.1543 11.7301 15.1561C11.5876 17.2239 9.86508 18.8571 7.76108 18.8571H6.85718V5.14285ZM7.96063 14.0527H11.7267C13.8824 14.0527 15.6299 12.3052 15.6299 10.1495C15.6299 7.99382 13.8824 6.2463 11.7267 6.2463H7.96063V14.0527ZM10.623 15.1561H7.96063V17.7469C9.36339 17.6507 10.4896 16.5484 10.623 15.1561Z" fill="#24292E"/>
</svg>
