<svg role="img" viewBox="0 0 24 24" xmlns="http://www.w3.org/2000/svg"><title>Pegasus icon</title><path d="M21.87 10.1578c.292-.1595.5926-.2744.9442-.2744.3335-.0099 1.3647.2714 1.1588.5068-.0469.1213-.0825.3627-.131.4182-.048.0557-.1165.0461-.1768-.0295-.0598-.0753-.2211-.3455-.4084-.3968-.1873-.0508-.4245-.1882-.8043.0161-.3791.2043-.0351.8862.1141 1.0147.1489.1283.6316.841.6734 1.0261.0421.1846.1679.6963-.2288 1.0431-.397.3466-.6685.5487-1.4921.5647 0 0-.2359-.0061-.3442-.0369-.1082-.0308-.0991-.0747-.2069-.0725-.108.0022-.2453.0159-.2844.0055-.0399-.0101-.089-.031-.0701-.0971.0185-.0659.1327-.2977.1327-.2977s.0375-.0993.115-.1556c.0775-.0559.0386-.0443.139.096.2407.2907.5036.2552.8761.1903.156-.0572.3006-.2242.3088-.3449.0076-.12.0153-.2733-.2942-.6063-.3093-.3333-.6509-.8405-.6675-1.2777-.0166-.4372.1895-1.0426.6469-1.2919v-.0002zm-6.388-.1035c.3362-.1499.6777-.1129.9606-.041.3195.0874.4792.1597.7109.2818.1087.0633.0319.1849.0319.1849s-.0651.22-.1028.3191c-.0376.0995-.0271.1318-.096.1224-.0135-.0018-.0229-.0011-.0305-.0007-.0332.0018-.0336.0041-.1392-.1711-.131-.2161-.3494-.3868-.8004-.378-.4511.0087-.5053.316-.492.5564.014.2403.3747.7142.5649.9732.1906.2587.3922.5937.435.8447.0434.2506-.0406.5365-.2233.7807-.1823.244-.6306.4387-.8065.4968-.1755.058-.6651.1004-.793.0923-.1275-.0087-.3543-.0808-.4234-.1015-.0395-.0116-.1292-.0081-.2157-.0044-.0653.0026-.1286.0052-.1668.0011-.0888-.0092-.0419-.174-.0419-.174l.1519-.3093-1.3925.0269c-.0692-.0203-.031-.1087.0264-.1971.0576-.0888.0258-.2193.0258-.2193l-.261-1.0123-.9614.019s-.7172 1.1729-.7652 1.2506c-.048.0775-.0185.0771-.0185.0771.1094.0963-.0373.11-.0373.11l-.569.0111c-.0788-.0203-.0314-.1089.0271-.1537.0581-.0448.1248-.1775.1248-.1775l1.9129-3.1212s1.0787-.0319 1.1378-.0218c.0592.0094.0605.108.0321.1631-.0286.0554-.0085.0877-.0085.0877s.6519 2.7979.6823 2.8628c.0306.065.0013.0764.0901.1078.089.0312.0603.0971.0603.0971.048-.0664.1698.1827.2097.2366.04.0541.2076.0834.3257.1142.1183.0305.3632.0144.5961-.1321.2335-.1469.2006-.3542.1091-.5601-.0914-.206-.5596-.667-.6908-.894-.131-.2272-.3466-.8246-.0901-1.3654s.4614-.5996.9099-.7829h.0005zm-3.3497.9946l-.4402.6974.6079-.012-.1679-.6854h.0002zm-3.9239-.6127c.4776-.2676.844-.3771 1.2471-.3771.396.0074.6804.0219.848.0847.2222.0709.2573.1073.4082.1024.0766-.0039.1395-.0078.096.1392-.0561.187-.2202.3654-.2691.366-.0489.0011-.0391.0227-.0989-.0415-.0596-.0646-.2303-.291-.3876-.3208-.1574-.0295-.5206-.0334-.7641.0807-.2434.1141-.5919.4049-.8028.726-.2108.3217-.4197.7521-.4743 1.0376-.0544.2851-.127.6585.0133.8416.1403.1833.3756.179.4732.155.0978-.024.4477-.2384.5817-.4487.1342-.2104.2565-.519.2853-.5854.0281-.0659.0176-.1207-.0224-.1633-.0399-.0432-.0993-.0856-.1-.1292-.0009-.0439.0277-.1102.0277-.1102l1.2651-.0244s.129.0954.0037.2294c0 0-.1356.1011-.1737.1783-.0382.0773-.1881.5503-.2062.6164-.0188.0661-.1002.5049-.2252.6607-.1249.1554-.1058.155-.1058.155l-.7452.0148s.0365-.1759-.1484-.0849-.5068.2285-.6932.2322c-.186.0037-.5998-.1085-.7486-.2038-.1488-.096-.3876-.3208-.4798-.5596-.0923-.239-.1286-.7083.0987-1.2159.2279-.5072.5918-1.0721 1.0973-1.3552zm11.7441-.2896l1.3288-.0258s.1858.0172.0683.1956c0 0-.7093 1.6093-.7816 1.7455-.0723.1362-.4219.9615-.8731 1.2192-.4516.2573-.8218.423-1.2661.4697-.4826.0513-1.0224-.0007-1.4098-.3868-.387-.3861-.1572-1.147-.0498-1.4288.107-.2818.5623-1.451.5623-1.451s.0369-.0424.0079-.0938c-.0286-.0511-.0493-.1853.0434-.2078.0926-.0227.1484-.003.1484-.003l1.2546-.0244s.1956.0375.0035.2174c0 0-.0471-.0196-.1355.251-.0888.2713-.8139 2.0573-.8139 2.0573s-.1596.4798.0651.5895a.4543.4543 0 0 0 .5832-.1565c.1178-.1783 1.2643-2.9673 1.2643-2.9673zm-15.0432.1116c.0403-.0001 2.0163-.0511 2.4422-.0478.1801.0078.0926.1661.0926.1661s-.0583.1124-.107.2028c-.0487.0899-.15.0026-.15.0026-.0609-.0659-.0908-.0428-.0908-.0428l-.9907.0192-.4629 1.1361s.8008-.0157.8909-.017c.0901-.002.1082-.1141.1082-.1141.1787-.115.1329.165.0954.3444-.0369.179-.1059.2586-.1761.2599-.0701.0015-.0914-.0875-.1026-.1541a.0919.0919 0 0 0-.0712-.077l-.8506.0168-.5697 1.3279s1.5715-.0196 1.5813-.0308c.0375-.0434.0877-.1356.0877-.1356.2089-.0934.1716.0635.1543.2425-.0173.179-.2146.3503-.2146.3503l-3.0526.0592c-.11.0018-.0816-.088-.0816-.088s1.236-2.9142 1.2937-3.0492c.0581-.1351-.0723-.1434-.1329-.1871-.0609-.0434.067-.1798.067-.1798l.24-.0045zm-3.7875.0161l2.7065-.0526s.4156.1345.4725.6382c.0572.5038-.2004 1.0134-.5911 1.2188-.3907.205-.6458.2538-.9412.2595l-.856.0166-.4553 1.1064s.1901.1716-.0055.2525l-1.4174.0277s-.0596-.0317-.0214-.1094c.0382-.0777 1.2046-2.9094 1.2046-2.9094s.1268-.0904.007-.1975c0 0-.1392-.0742-.1491-.0851-.0511-.055.0464-.1657.0464-.1657zm.961 1.6496c.1337.0137.3477.0076.5109-.0869.1249-.0727.3305-.2479.406-.4577.0572-.1595.132-.3868.0209-.5603-.0693-.1572-.2785-.2357-.4165-.2004l-.5213 1.3053z"/></svg>