<svg role="img" viewBox="0 0 24 24" xmlns="http://www.w3.org/2000/svg"><title>Peloton icon</title><path d="M22.754 12.086c-.12-.113-.285-.325-.285-.325s.035.261.035.432v.996h-.459v-2.398h.05l1.199 1.127c.116.107.278.325.278.325s-.032-.27-.032-.433v-.996H24v2.398h-.05zm-3.954-.084c0-.703.546-1.22 1.23-1.22.686 0 1.232.517 1.232 1.22s-.546 1.219-1.231 1.219-1.231-.517-1.231-1.22zm1.956 0c0-.444-.293-.784-.725-.784s-.726.34-.726.784.293.784.726.784.725-.34.725-.784zm-3.646-.76h-.68v-.43h1.847v.43h-.68v1.947h-.49v-1.948zm-3.666.76c0-.703.545-1.22 1.23-1.22.686 0 1.231.517 1.231 1.22s-.545 1.219-1.23 1.219c-.686 0-1.231-.517-1.231-1.22zm1.956 0c0-.444-.293-.784-.725-.784s-.726.34-.726.784.293.784.726.784.725-.34.725-.784zm-4.067-1.19h.488v1.947h1.077v.43h-1.565zm-2.444 0h1.573v.43H9.38v.545h.955v.42H9.38v.552h1.132v.43H8.889zm-2.439 0h.836c.485 0 .886.24.886.798s-.4.801-.886.801h-.345v.78h-.49zm.822 1.17c.24 0 .395-.108.395-.372 0-.267-.16-.366-.395-.366h-.331v.737zM4.166 10.17l.508-.883a.54.54 0 00-.935-.54l-.51.883a2.483 2.483 0 00-2.895 1.13 2.482 2.482 0 00-.195 2.063l.94-1.631c.216-.375.567-.642.985-.755a1.622 1.622 0 011.82 2.375 1.621 1.621 0 01-2.212.592l.54-.935a.54.54 0 10-.197-.737L.296 14.713a.54.54 0 00.935.54l.51-.882a2.483 2.483 0 002.895-1.13 2.487 2.487 0 00-.47-3.071z"/></svg>
