<svg role="img" viewBox="0 0 24 24" xmlns="http://www.w3.org/2000/svg"><title>Peloton icon</title><path d="M17.89 0a1.846 1.846 0 00-1.603.881l-1.742 3.025A8.487 8.487 0 004.65 7.765a8.484 8.484 0 00-.667 7.05L7.194 9.24a5.52 5.52 0 013.372-2.577c4.757-1.252 8.668 3.85 6.222 8.118a5.54 5.54 0 01-7.564 2.023l1.849-3.198c1.424.826 3.135-.484 2.709-2.074-.426-1.59-2.563-1.87-3.383-.442L4.524 21.278c-1.095 2.089 1.922 3.838 3.19 1.849l1.743-3.018a8.487 8.487 0 009.901-3.865A8.501 8.501 0 0017.75 5.748l1.736-3.017A1.846 1.846 0 0017.889 0z"/></svg>

