<svg viewBox="0 0 24 24" xmlns="http://www.w3.org/2000/svg"><title>Percy</title><defs><filter style="color-interpolation-filters:sRGB" id="a" x="0" y="0" ><feColorMatrix values="-10 -10 -10 -10 0 -10 -10 -10 -10 0 -10 -10 -10 -10 0 0 0 0 1 0" result="fbSourceGraphic"/><feColorMatrix result="fbSourceGraphicAlpha" in="fbSourceGraphic" values="0 0 0 -1 0 0 0 0 -1 0 0 0 0 -1 0 0 0 0 1 0"/><feColorMatrix values="-10 -10 -10 -10 0 -10 -10 -10 -10 0 -10 -10 -10 -10 0 0 0 0 1 0" in="fbSourceGraphic" result="fbSourceGraphic"/><feColorMatrix result="fbSourceGraphicAlpha" in="fbSourceGraphic" values="0 0 0 -1 0 0 0 0 -1 0 0 0 0 -1 0 0 0 0 1 0"/><feColorMatrix values="-10 -10 -10 -10 0 -10 -10 -10 -10 0 -10 -10 -10 -10 0 0 0 0 1 0" in="fbSourceGraphic"/></filter></defs><g transform="translate(.013 8.539) scale(.16497)" style="filter:url(#a)" ><path d="M137.154 32.982c-.083.264-.219.449-.405.553l-.054.027c-.203.082-.419.07-.673.008-.822-.203-4.634-.631-3.109-5.083l.904-2.641-.205-.513-.991-2.356-6.208-14.422c-.136-.3-.087-.572.035-.758.127-.193.35-.291.664-.297h3.532c.242 0 .448.065.606.187.158.123.274.31.372.54l4.557 10.66 3.269-10.63a.998.998 0 0 1 .361-.557.994.994 0 0 1 .617-.2h3.771c.321 0 .548.093.682.263.133.176.151.421.052.749l-5.072 15.918-1.957 6.177zM121.71 18.686h3.856c.596 0 .947.38.736.967-1.087 3.59-4.522 6.076-8.624 6.076-5.329 0-9.291-3.97-9.291-9.115 0-5.144 3.962-9.114 9.291-9.114 4.102 0 7.537 2.486 8.624 6.076.211.587-.14.967-.736.967h-3.856c-.456 0-.772-.207-1.052-.587-.631-.863-1.718-1.347-2.98-1.347-2.279 0-4.032 1.623-4.032 4.005 0 2.383 1.753 4.005 4.032 4.005 1.262 0 2.349-.483 2.98-1.311.28-.415.56-.622 1.052-.622zM102.824 8.433v.9c.436-.761 1.431-1.842 4.027-1.808.188.003.34.073.451.187.164.168.242.394.242.686v4.22c0 .286-.06.5-.187.644-.122.142-.303.214-.539.214a5.102 5.102 0 0 0-1.483.161c-.472.125-.902.34-1.277.632a3.137 3.137 0 0 0-.896 1.186c-.222.495-.335 1.097-.338 1.812l-.025 4.5c-.026 4.7-3.665 3.988-4.515 3.94-.29-.017-.515-.078-.672-.233-.157-.154-.236-.375-.236-.661V8.433c0-.285.079-.506.236-.661.158-.155.382-.232.672-.232h3.631c.291 0 .515.077.672.232.158.155.237.375.237.661zM87.09 7.508c1.282.006 2.458.235 3.53.689a8.43 8.43 0 0 1 2.79 1.904 8.697 8.697 0 0 1 1.829 2.88c.431 1.1.653 2.305.658 3.613 0 .224-.005.442-.023.648-.012.212-.03.42-.047.626-.034.275-.14.476-.302.602-.163.126-.38.19-.641.19H83.21c.22.676.53 1.227.937 1.651a3.76 3.76 0 0 0 1.421.918 5.072 5.072 0 0 0 1.73.287c.496-.006.973-.08 1.428-.235a3.717 3.717 0 0 0 1.159-.626c.169-.137.338-.247.501-.327.169-.08.361-.12.582-.12l3.356-.034c.32.005.553.097.693.275.134.178.14.407.006.688-.46.998-1.073 1.836-1.835 2.507a7.706 7.706 0 0 1-2.657 1.526c-1.007.338-2.108.51-3.302.51-1.456-.006-2.767-.24-3.932-.7-1.17-.459-2.167-1.095-2.994-1.921a8.423 8.423 0 0 1-1.91-2.88c-.443-1.101-.665-2.294-.67-3.585.005-1.29.233-2.484.687-3.585a8.642 8.642 0 0 1 1.928-2.88c.827-.825 1.817-1.462 2.96-1.92 1.14-.46 2.405-.695 3.791-.7zM62.569 9.384a8.223 8.223 0 0 1 2.35-1.364 7.82 7.82 0 0 1 2.737-.497 8.434 8.434 0 0 1 6.11 2.673c1.518 1.649 2.458 3.926 2.458 6.44 0 2.514-.94 4.79-2.459 6.44a8.432 8.432 0 0 1-6.11 2.672c-1.699 0-3.482-.526-4.724-1.7l.003 5.59c.003 4.7-3.665 3.988-4.515 3.94-.289-.017-.515-.078-.672-.233-.157-.154-.235-.376-.235-.661L57.5 8.458c0-.292.08-.521.242-.68.162-.16.394-.239.691-.239h3.19c.298 0 .53.08.691.239.162.159.239.386.243.68zm9.07 7.203c0-2.216-1.814-4.014-4.05-4.014-2.237 0-4.05 1.798-4.05 4.014 0 2.218 1.813 4.015 4.05 4.015 2.236 0 4.05-1.797 4.05-4.015zm12.952-3.819c-.658.448-1.124 1.107-1.398 1.968h7.485c-.186-.649-.466-1.17-.839-1.56a3.273 3.273 0 0 0-1.281-.838 4.307 4.307 0 0 0-1.503-.252c-.985.005-1.812.23-2.464.682z"/><path fill-rule="evenodd" d="M49.352 9.094c-.288-.948-1.05-1.88-1.955-1.5A7.11 7.11 0 0 1 45 8.125c-1.786-1.676-7.039-5-10.497-6.881 0 0 .422 1.234 1.005 3.539 0 0-3.723-2.908-7.936-4.783 0 0 1.185 2.433 1.284 3.22 0 0-3.866-1.345-9.288-1.855 0 0 2.604 1.817 3.614 3.205 0 0-3.832-.195-9.555 0 0 0 3.252 1.32 4.69 2.53 0 0-6.793.69-10.631 1.795 0 0 4.325 1.525 5.526 2.66 0 0-5.516 1.57-11.075 4.78 0 0 3.088.54 5.506 1.596 0 0-3.08 2.152-7.643 8.025 0 0 3.372-.643 5.686-.462 0 0-2.931 3.424-4.46 8.663 0 0 1.695-1.08 3.338-1.471 0 0 .176 6.246 3.592 7.247l.002-.005c.168.053.328.072.466.072.167 0 .341-.026.519-.077 1.083-.31 1.904-1.38 2.853-2.617.311-.405.631-.822.97-1.228a8.243 8.243 0 0 1 1.47-1.588c1.208-.995 2.878-1.749 4.914-1.447 2.292.193 3.707 2.476 4.846 4.312.591.955 1.374 2.645 2.686 2.645 1.45 0 1.96-1.737 2.605-3.88a21.189 21.189 0 0 1 2.686-5.69c2.262-3.368 5.156-5.198 8.625-7.002 3.325-1.729 6.466-3.362 8.04-5.839.789-1.239 1.18-2.76 1.161-4.519-.015-1.578-.36-3.033-.647-3.976zM32.94 8.125l-5.367-2.5 7.936 1.969zm-12.197.77 6.632 1.697 2.892-.96zm13.076 3.325 1.415-1.072-6.377 1.352zm-10.635 0-2.269 1.52-6.287-.599 8.556-.92zm7.084 3.798 2.3-1.287-8.555.921zm-6.338 1.43-1.604 2.635-8.027 1.964 9.63-4.6zM13.9 19.07l-6.214 2.736 7.628-5.471Zm-2.149 3.28-.245 2.737L7.5 28.75Z"/><path d="M32.915 39.322c-.697-.012-1.438-.609-2.25-1.819.479-2.74 2.372-6.238 4.648-8.585-.581 2.18-.659 4.368-.72 6.126v.002c-.041 1.137-.076 2.119-.238 2.833-.217.958-.694 1.443-1.416 1.443zm-19.288-1.978c.59 1.335 1.222 1.985 1.927 1.985.057 0 .115-.004.171-.013.958-.151 1.845-2.007 2.587-3.803.193-.466.374-.932.535-1.363-2.12.024-4.182 1.73-5.22 3.194z"/></g></svg>