<svg role="img" viewBox="0 0 24 24" xmlns="http://www.w3.org/2000/svg" ><title>Percy</title><path style="stroke-width:.165437" d="M2.256 15.027c.097.22.202.328.319.328.009 0 .019 0 .028-.002.158-.025.305-.332.428-.629.032-.077.062-.154.089-.225-.351.004-.693.286-.864.528zm3.192.327c-.115-.002-.238-.1-.372-.3.08-.454.392-1.032.77-1.42-.097.36-.11.722-.12 1.013-.007.188-.013.35-.04.468-.035.159-.114.239-.234.239zm2.72-4.998c-.047-.157-.173-.311-.323-.248-.126.052-.26.081-.396.088-.296-.278-1.166-.827-1.738-1.138 0 0 .07.204.166.585 0 0-.616-.48-1.313-.79 0 0 .196.401.212.532 0 0-.64-.223-1.537-.307 0 0 .431.3.598.53 0 0-.634-.033-1.581 0 0 0 .538.218.776.418 0 0-1.125.114-1.76.297 0 0 .716.252.915.44 0 0-.913.26-1.833.79 0 0 .51.09.911.264 0 0-.51.356-1.265 1.327 0 0 .558-.106.941-.077 0 0-.485.567-.738 1.433 0 0 .28-.179.552-.243 0 0 .03 1.032.595 1.198a.26.26 0 0 0 .077.011.312.312 0 0 0 .086-.013c.18-.05.316-.228.473-.432.051-.067.104-.136.16-.203.07-.098.151-.187.244-.263.2-.165.476-.29.813-.24.38.033.613.41.802.714.098.158.227.437.445.437.24 0 .324-.287.43-.641.101-.334.251-.652.445-.941.375-.557.854-.86 1.428-1.158.55-.286 1.07-.556 1.33-.966a1.34 1.34 0 0 0 .193-.747 2.394 2.394 0 0 0-.107-.657zm-2.716-.16-.888-.414 1.314.326Zm-2.019.127 1.098.28.479-.158zm2.165.55.234-.178-1.055.224zm-1.76 0-.376.251-1.04-.1 1.416-.151zm1.172.628.38-.213-1.415.152zm-1.049.236-.266.436-1.328.325 1.594-.761Zm-1.66.268-1.029.453 1.263-.905Zm-.356.543-.04.452-.664.606Zm20.757 1.758a.15.15 0 0 1-.067.091l-.009.005a.177.177 0 0 1-.111 0c-.136-.033-.767-.103-.515-.84l.15-.436-.034-.085-.164-.39-1.028-2.384a.128.128 0 0 1 .006-.126c.021-.032.058-.048.11-.049h.585c.04 0 .074.011.1.031.026.02.045.051.062.09l.754 1.762.541-1.758a.165.165 0 0 1 .06-.092.165.165 0 0 1 .102-.033h.624c.053 0 .09.016.113.044.022.029.025.07.009.124l-.84 2.632-.324 1.02zm-2.556-2.364h.638c.099 0 .157.063.122.16-.18.593-.749 1.004-1.427 1.004-.883 0-1.538-.656-1.538-1.507 0-.85.655-1.507 1.538-1.507.678 0 1.247.411 1.427 1.005.035.097-.023.16-.122.16h-.638c-.076 0-.128-.034-.174-.097-.105-.143-.285-.223-.493-.223-.378 0-.668.268-.668.662s.29.662.668.662c.208 0 .388-.08.493-.216.046-.069.092-.103.174-.103zm-3.126-1.696v.15c.072-.127.237-.305.666-.3.031 0 .057.012.075.031.027.028.04.065.04.114v.697c0 .048-.01.083-.03.107a.116.116 0 0 1-.09.035.845.845 0 0 0-.246.027.519.519 0 0 0-.36.3.736.736 0 0 0-.055.3l-.004.744c-.005.777-.607.66-.748.652-.048-.003-.085-.013-.11-.039-.027-.025-.04-.062-.04-.11v-2.708c0-.047.013-.083.04-.109.025-.025.062-.038.11-.038h.601c.049 0 .086.013.112.038.026.026.039.062.039.11zm-2.605-.152c.213 0 .407.038.585.113a1.395 1.395 0 0 1 .764.791 1.64 1.64 0 0 1 .105.705l-.007.104a.142.142 0 0 1-.05.1.17.17 0 0 1-.106.03h-1.933a.622.622 0 0 0 .39.425.84.84 0 0 0 .287.048.758.758 0 0 0 .236-.04.616.616 0 0 0 .192-.103.444.444 0 0 1 .083-.054.222.222 0 0 1 .096-.02l.556-.005c.053 0 .091.016.115.045.022.03.023.068 0 .114a1.23 1.23 0 0 1-.743.667 1.71 1.71 0 0 1-.546.084 1.782 1.782 0 0 1-.651-.116 1.428 1.428 0 0 1-.496-.317 1.393 1.393 0 0 1-.316-.476 1.587 1.587 0 0 1-.11-.593c0-.213.038-.41.113-.593a1.429 1.429 0 0 1 .809-.794c.189-.076.398-.115.627-.115zm-4.058.31a1.297 1.297 0 0 1 .842-.308c.384 0 .76.169 1.011.442.251.273.407.65.407 1.065 0 .416-.156.792-.407 1.065-.262.28-.628.44-1.011.442-.282 0-.577-.087-.782-.282v.925c0 .777-.607.66-.747.651-.048-.003-.086-.013-.111-.038a.15.15 0 0 1-.04-.11l-.001-4.005c0-.049.013-.087.04-.113a.156.156 0 0 1 .114-.04h.528c.05 0 .088.014.114.04.027.026.04.064.04.113zm1.501 1.19c0-.366-.3-.663-.67-.663-.37 0-.67.297-.67.664 0 .366.3.664.67.664.37 0 .67-.298.67-.664zm2.144-.63a.598.598 0 0 0-.232.325h1.24a.608.608 0 0 0-.14-.258.542.542 0 0 0-.212-.139.713.713 0 0 0-.248-.041c-.163 0-.3.038-.408.112z"/></svg>