<svg role="img" viewBox="0 0 24 24" xmlns="http://www.w3.org/2000/svg"><title>Perforce icon</title><path d="M3.7412 8.7555c.1637-.4255.352-.8347.5728-1.2193-.2127-.1964-.7446-.6137-.7119-.6464 2.774-3.3223 6.3909-4.3206 9.5904-3.7396.6546.09 1.3092.2455 1.9557.4828 4.5824 1.702 6.8982 6.7509 5.1798 11.2842-.1719.45-.3846.8838-.6138 1.2847.2537.221.8101.63.7774.6628-3.0768 3.6414-7.1764 4.4842-10.5886 3.4696a11.1797 11.1797 0 0 1-.982-.2946c-4.5742-1.702-6.8982-6.7509-5.1798-11.2842zM19.3706.9817c-.581.5565-1.2766 1.2275-1.6203 1.5302-.54-.3027-1.121-.581-1.7265-.8019-5.2044-1.931-10.6869.2537-13.7064 4.3206C.7381 8.3627-.1947 11.2349.0344 14.1889c0 0 .0082 5.5562 5.1388 8.8294.4174-.5728.9493-1.3093 1.3011-1.784.5728.3274 1.1784.622 1.8166.8593 5.8917 2.1848 12.4216-.6055 14.5574-6.2272 0 0 1.563-3.4286 1.0474-7.1764 0 0-.401-5.057-4.5251-7.7083z"/></svg>