<svg role="img" viewBox="0 0 24 24" xmlns="http://www.w3.org/2000/svg"><title>Perfecto</title><path d="M20.223 0c-.35.007-.744.097-1.155.334l-2.515 1.453a6.65 6.65 0 0 1 5.576 2.594v.002c.222.287.414.59.58.9V2.436c0-1.265-.849-1.89-1.215-2.102A2.5 2.5 0 0 0 20.223 0m-3.371 4.437a4.02 4.02 0 0 0-3.014 1.338 4 4 0 0 0-.47.657v-.006a4 4 0 0 0-.513 1.49 1.339 1.339 0 0 1-2.654-.35c.13-.982.47-1.887.967-2.675L2.504 9.902c-1.096.632-1.215 1.68-1.215 2.102s.12 1.468 1.215 2.101l3.668 2.12a1.34 1.34 0 0 1-.488-1.83l-.002-.002a1.337 1.337 0 0 1 1.828-.489l3.46 1.996 4.684-8.115a1.337 1.337 0 0 1 1.825-.494c.637.368.855 1.187.486 1.826l-1.893 3.28a4.01 4.01 0 0 0 4.201-1.946c1.109-1.92.458-4.374-1.455-5.478a4 4 0 0 0-1.476-.5h.02a4 4 0 0 0-.51-.035m5.859 7.149a6.7 6.7 0 0 1-1.832 2.16l-.002.002a6.69 6.69 0 0 1-6.187 1.043l-1.717 2.977-.698 1.207a.667.667 0 0 1-.91.244l7.705 4.447c1.096.632 2.062.211 2.426 0s1.215-.837 1.215-2.102z"/></svg>