<svg role="img" viewBox="0 0 24 24" xmlns="http://www.w3.org/2000/svg"><title>Perplexity</title><path d="M11.55 20.722c0-1.803-.025-3.278-.056-3.278s-1.432 1.382-3.114 3.07l-3.059 3.07v-6.819H2.62V6.895h2.701V.075l3.115 3.127 3.114 3.126V.112h.825V6.33l3.152-3.165L18.679 0v6.894h2.701v9.872h-2.701v6.894l-3.152-3.164-3.152-3.164V24h-.825zM8.867 18.97l2.683-2.693V8.289l-2.74 2.75-2.738 2.75v3.937c0 2.166.025 3.938.056 3.938.03 0 1.263-1.212 2.739-2.694zm6.248-7.93-2.74-2.751V16.2l2.72 2.732 2.72 2.733.02-3.937.02-3.937zM5.32 14.71v-1.226l2.82-2.88 2.82-2.882H3.37v8.214h1.951Zm15.234-2.88V7.722h-7.616l2.87 2.883 2.87 2.883v2.448h1.876zM8.619 4.5C7.321 3.187 6.217 2.083 6.166 2.05c-.075-.048-.094.448-.094 2.393v2.452h4.908zm9.234-.056c0-1.347-.009-2.449-.02-2.449-.01 0-1.115 1.102-2.456 2.45l-2.438 2.448h4.914z"/></svg>