<svg role="img" viewBox="0 0 24 24" xmlns="http://www.w3.org/2000/svg"><title>Persistent</title><path d="M17.5566 0c-.7811.0003-1.5605.1634-2.2734.4883-1.4295.6424-2.5573 1.9127-3.0703 3.414a5.9344 5.9344 0 0 0-.2695 1.1583c-.0543.3895-.0552.8015-.0489 1.166l.0215 2.248.0332 4.4961.0117 2.2481c.0015.3747-.0018.7503.0039 1.1249.0021.1861.009.3776.0079.5586.0023.181-.0102.3617-.0137.543-.023.3609-.063.7219-.1387 1.0801-.0733.3588-.1915.7098-.3418 1.0449-.3021.6694-.7293 1.2886-1.2676 1.791-1.0794.9983-2.5563 1.5428-4.0058 1.416a5.105 5.105 0 0 1-2.0801-.6054c-.6432-.3474-1.2096-.8401-1.6602-1.4258a6.0837 6.0837 0 0 1-.5957-.9356c-.1704-.3294-.3143-.6745-.414-1.0332-.2157-.7127-.2642-1.4723-.166-2.1953a6.591 6.591 0 0 1 .248-1.0644 6.286 6.286 0 0 1 .4297-.9824c.1659-.3106.3624-.5962.5762-.8594.2102-.2658.4447-.5065.703-.711 1.0102-.845 2.3494-1.2078 3.7188-1.2128 1.4175.0021 2.8343.022 4.252.0136l-.0098-1.5351c-1.4112.0311-2.8233.1298-4.2343.2363-.7869.0599-1.5646.2548-2.295.5684-.3657.1542-.7135.351-1.043.5683-.3278.2205-.6387.4647-.916.7442-.2824.2734-.5312.5811-.7519.9043-.2217.3228-.4155.6664-.5723 1.0253-.3273.7127-.5362 1.4742-.621 2.2657a7.5306 7.5306 0 0 0 .1542 2.4121 6.882 6.882 0 0 0 .9786 2.2578c.4659.6926 1.0722 1.3151 1.7968 1.7891.7235.473 1.5618.7909 2.42.9199.1074.02.2146.0313.3222.0429.1074.012.215.0239.3281.0274.1122.0063.224.0102.336.0078a4.1793 4.1793 0 0 0 .336-.0117 5.911 5.911 0 0 0 1.328-.2285 6.8287 6.8287 0 0 0 1.2578-.5039c.4036-.2097.7823-.4698 1.1387-.7598.7056-.5906 1.2862-1.3415 1.7168-2.1758a4.67 4.67 0 0 0 .1524-.3164 4.8284 4.8284 0 0 0 .1367-.3262 5.4395 5.4395 0 0 0 .2207-.6718c.1227-.455.1988-.919.25-1.3829.018-.2325.0403-.4651.0469-.6972l.0117-.3008.0137-.2813.0527-1.1249.0488-2.2481.0957-4.496.0469-2.2481.0039-.2813.002-.0664.0019-.0469.0059-.0957c.008-.125.0213-.2486.041-.371.0412-.2445.0971-.484.1816-.715.1678-.4623.4316-.8861.7559-1.2519.3276-.3635.7281-.6574 1.168-.8554.4406-.1976.9196-.298 1.4082-.2989a3.4291 3.4291 0 0 1 1.4218.2813c.4499.1944.8658.489 1.209.8594.3407.3723.6169.8113.793 1.2949.1771.482.256 1.0096.2305 1.539a3.9597 3.9597 0 0 1-.3809 1.5293c-.2308.4778-.5546.9187-.9629 1.2637-.4069.3456-.8842.6048-1.3945.752a3.8576 3.8576 0 0 1-.7852.1504l-.1015.0058c-.0367.002-.0585.0053-.1094.0059l-.2735.0078-.5429.0137-2.0274.0566-.0371 1.7656 2.0645.0274.5429.0078.2735.0039.291-.002a5.6096 5.6096 0 0 0 1.168-.1621c.7692-.1853 1.5017-.5436 2.1308-1.0429.6321-.4966 1.1497-1.1427 1.5293-1.8614.7613-1.4439.9015-3.2072.3867-4.7558-.2549-.7737-.6643-1.4938-1.2031-2.0899-.5367-.5973-1.1922-1.0773-1.9121-1.4023-.7205-.329-1.504-.4925-2.2852-.4922Z"/></svg>