<svg role="img" viewBox="0 0 24 24" xmlns="http://www.w3.org/2000/svg"><title>Phabricator icon</title><path d="M23.18 10.019l-4.451-4.45h.025C17.053 3.782 14.66 2.665 12 2.665S6.947 3.783 5.246 5.568h.025L.821 10.02a2.802 2.802 0 0 0 0 3.962L5.4 18.56h-.037c1.692 1.711 4.04 2.773 6.637 2.773s4.945-1.062 6.637-2.774H18.6l4.58-4.579a2.802 2.802 0 0 0 0-3.962zM12 19.384a7.384 7.384 0 1 1 0-14.768 7.384 7.384 0 0 1 0 14.768zm3.672-6.93c-.015-.016-.016-.03-.018-.33l-.003-.312c.226-.224.858-.85.901-.92.09-.107.088-.103.065-.158-.105-.257-.404-.94-.413-.946-.14-.049-1.153-.02-1.424-.018l-.456-.45c-.012-.455.013-1.062-.044-1.404-.01-.034-.01-.036-.073-.062-.258-.106-.686-.3-.93-.387-.212.12-.77.754-.993.98.011.015-.535.003-.64.003-.317-.302-.93-.96-1.068-.998-.293.112-.705.266-.984.4-.047.352.004 1.018.018 1.413l-.444.443c-.418-.011-1.37-.02-1.424.011-.017.004-.024.015-.046.067-.113.28-.254.614-.367.9-.008.02-.005.026.028.07.17.212.724.726.99.971l.006.633c-.295.298-.744.697-.986 1.028.127.295.213.5.324.762.104.246.095.229.13.236.321.04 1.017.015 1.403.01l.456.453c.003.479-.007 1.337.06 1.44.28.116.718.309.976.41.249-.128.764-.744 1.013-.99l.636.01c.3.304 1.039 1.041 1.05.997.009.002.1-.03.223-.08.867-.347.77-.307.776-.323.034-.078.002-1.012-.02-1.415l.442-.44c.255.01 1.197.009 1.323.003.082-.008.114-.014.123-.026.105-.236.32-.786.372-.902.034-.087.037-.08-.087-.215-.14-.157-.61-.598-.895-.863zm-3.736 1.164a1.533 1.533 0 1 1 0-3.066 1.533 1.533 0 0 1 0 3.066z"/></svg>