<svg role="img" viewBox="0 0 24 24" xmlns="http://www.w3.org/2000/svg"><title>Phaser</title><path d="M0 9.5248v4.0967h1.537s.015-1.3604.015-2.0764c.004-.0008.007-.001.0106-.002.1059.2727.2084.6078.3159.8837h2.0496v1.1947h1.537v-1.3657h.854v1.3657h2.8628l.7364-2.2547.7111 2.2547H21.178v-2.089l1.2578 2.9418L24 14.4752l-.854-2.2194.001.001h.7645V9.5253H11.9558c0 .4856.0183.932.0171 1.4177 0 .0322.0114.0497.0367.068 1.0315.7388 1.8167 1.2452 1.8167 1.2452h-1.8708s.0199.3805.0199.6252h-.0001v.0001l-.0002.0001c-.002.005-.007.0828-.007.0828l-1.29-3.4396H9.133s-.9094 2.3809-1.2855 3.5097c-.004 0-.008-.1636-.0114-.164V9.9678c0-.2894.0199-.4429.0199-.4429H6.319v1.3657h-.854V9.5249zm4.0998.1714h1.1956v1.3657h1.1955V9.6963h1.1955v3.7554H6.491V12.086H5.2954v1.3657H4.0998Zm5.124 0h1.3666l1.3664 3.7555h-1.1955l-.854-2.5604h-.0004l-.854 2.5604H7.8574Zm10.5892 0h3.928v2.3898h-.8539l.854 2.2194h-1.1955l-1.3665-3.2435h1.3665v-.1706h-1.537v2.5604H19.813ZM.1717 9.6968H3.929v2.5603H2.0503l-.5125-1.1947h1.3665v-.1706h-1.537v2.5604H.1717Zm11.9557 0h3.928v1.0237H14.006l2.0495 1.7072v1.0241h-3.9281v-1.0241h2.2205l-2.2205-1.5363Zm4.0986 0h3.416v1.1954h-2.391v.1707h2.391v1.1946h-2.391v.1706h2.391v1.0241h-3.416zm-1.8297 1.1942h1.6592v1.3169z"/></svg>