<svg role="img" viewBox="0 0 24 24" xmlns="http://www.w3.org/2000/svg" width="24" height="24"><title>Photobucket icon</title><path d="M22.909 4.417H16.22c-1.25-.689-2.689-1.083-4.221-1.083s-2.97.394-4.221 1.083H5.454a1.09 1.09 0 00-1.091-1.083H2.181c-.6 0-1.091.487-1.091 1.083-.6 0-1.091.488-1.091 1.083v13c0 .595.491 1.084 1.091 1.084h6.688c1.251.689 2.689 1.083 4.221 1.083s2.97-.394 4.221-1.083h6.689c.6 0 1.091-.488 1.091-1.083v-13a1.09 1.09 0 00-1.091-1.083zM1.091 18.5V5.499h5.15c-1.815 1.588-2.968 3.908-2.968 6.5s1.153 4.912 2.968 6.5h-5.15zm14.827 0a7.655 7.655 0 01-1.816.785l-.114.03a7.29 7.29 0 01-.801.167c-.074.012-.149.026-.225.035-.315.04-.636.067-.963.067s-.648-.027-.963-.067c-.076-.009-.15-.022-.225-.035a7.29 7.29 0 01-.801-.167l-.114-.03a7.666 7.666 0 01-1.815-.785c-2.224-1.325-3.718-3.737-3.718-6.5s1.494-5.175 3.718-6.5a7.666 7.666 0 011.815-.785c.038-.011.077-.019.114-.03.261-.07.528-.125.8-.167.076-.012.151-.025.227-.035.315-.04.636-.067.962-.067a7.63 7.63 0 011.189.102c.272.042.539.097.8.167l.114.03c.643.184 1.253.45 1.815.785 2.224 1.325 3.718 3.737 3.718 6.5s-1.494 5.175-3.718 6.5zm6.991 0h-5.15c1.815-1.588 2.968-3.908 2.968-6.5s-1.153-4.912-2.968-6.5h5.15v13zM18.001 12h-.923c0-2.781-2.278-5.042-5.078-5.042v-.917c3.309 0 6.001 2.674 6.001 5.96z"/></svg>