<svg role="img" viewBox="0 0 24 24" xmlns="http://www.w3.org/2000/svg"><title>PhotoPrism</title><path d="m12.197 1.447-.103.153c-.174-.054-.366-.17-.46 0L.052 19.018l-.01.017c-.078.15.1.236.205.356l-.115.123 1.889 1.785.04-.043c.073.06.131.145.23.142l20.77 1.192c.186.02.193-.198.253-.363l.177.029.51-3.084-.2-.033c.034-.11.204-.154.134-.252L17.822 9.78l-2.99-6.496-.023-.033c-.035-.047-.101.004-.15-.022l.058-.085-2.52-1.698zm-.213 1.006 1.348 2.01L3.305 18.84l-2.225.01L11.984 2.453zm1.4.717.579.389-.162.232-.416-.621zm1.042 1.062.719 1.559-.887-1.318.168-.24zm-.635.913 3.361 5.007 3.963 8.612-16.875.072 9.551-13.691zm6.04 9 3.093 4.61-.97.005-2.124-4.615zm3.337 5.375-.229 1.38-.632-1.377.861-.003zm-1.701.007 1.04 2.266-19.546-1.121.744-1.067 17.762-.078zM2.77 19.61l-.567.81-.851-.804 1.418-.006z" /></svg>