<svg role="img" viewBox="0 0 24 24" xmlns="http://www.w3.org/2000/svg"><title>Photobucket icon</title><path d="M22.91 1.5h-6.69C14.97.546 13.533 0 12 0c-1.532 0-2.97.546-4.221 1.5H5.454c0-.825-.49-1.5-1.09-1.5H2.18c-.6 0-1.09.675-1.09 1.5C.49 1.5 0 2.176 0 3v18c0 .824.491 1.5 1.09 1.5H7.78c1.25.954 2.69 1.5 4.221 1.5 1.532 0 2.97-.546 4.22-1.5h6.69c.599 0 1.09-.676 1.09-1.5V3c0-.824-.491-1.5-1.09-1.5zM1.09 21V3h5.151C4.426 5.198 3.273 8.41 3.273 12c0 3.589 1.152 6.802 2.968 9H1.09zm14.828 0a6.774 6.774 0 01-1.815 1.087l-.114.041c-.261.098-.53.173-.801.231-.075.018-.15.036-.225.049A5.538 5.538 0 0112 22.5c-.327 0-.648-.037-.963-.092-.076-.013-.15-.031-.225-.049a5.645 5.645 0 01-.801-.231c-.038-.014-.076-.026-.114-.041A6.783 6.783 0 018.08 21c-2.224-1.834-3.718-5.174-3.718-9 0-3.826 1.494-7.166 3.719-9a6.779 6.779 0 011.815-1.087c.038-.015.077-.027.114-.041.261-.097.528-.173.8-.232.076-.017.151-.035.227-.048A5.55 5.55 0 0112 1.5c.326 0 .647.037.962.092.075.013.151.031.227.048.272.059.539.135.8.232l.114.041A6.789 6.789 0 0115.918 3c2.224 1.834 3.718 5.174 3.718 9 0 3.826-1.494 7.166-3.718 9zm6.991 0h-5.15c1.815-2.198 2.968-5.411 2.968-9 0-3.589-1.152-6.801-2.968-9h5.15v18zm-4.908-9h-.923c0-3.85-2.278-6.982-5.078-6.982v-1.27c3.309 0 6.001 3.702 6.001 8.252z"/></svg>