<svg role="img" viewBox="0 0 24 24" xmlns="http://www.w3.org/2000/svg"><title>PhotoPrism</title><path d="m12.186 1.43-.103.152c-.174-.054-.366-.17-.46 0L.029 19.001l-.01.017c-.078.15.1.235.205.355l-.115.123L2 21.28l.04-.043c.074.06.132.145.231.142l20.789 1.192c.186.02.193-.198.253-.363l.177.03.51-3.084-.2-.034c.035-.11.205-.153.135-.251l-6.12-9.108-2.992-6.496-.023-.033c-.035-.047-.1.004-.15-.022l.058-.085-2.521-1.698zm-.213 1.005 1.35 2.01L3.284 18.823l-2.227.01zm1.4.717.58.39-.161.231-.417-.62zm1.043 1.062.72 1.56-.888-1.319.168-.24zm-.634.913 3.363 5.007 3.966 8.613-16.889.072zm6.044 9 3.096 4.61-.97.006-2.127-4.616zm3.34 5.375-.23 1.38-.632-1.377zm-1.703.007 1.041 2.266-19.563-1.12.744-1.068zm-18.714.083-.567.81-.852-.804z"/></svg>