<svg role="img" xmlns="http://www.w3.org/2000/svg" viewBox="0 0 24 24"><title>Photocrowd icon</title><path d="M2.182 0C.977 0 0 .591 0 1.32v21.162C0 23.32.977 24 2.182 24h19.636C23.023 24 24 23.32 24 22.482V1.32C24 .591 23.023 0 21.818 0zM12 3.49a1.022 1.022 0 1 1 0 2.045 1.022 1.022 0 0 1 0-2.044zM8.326 4.498a1.02 1.02 0 1 1-.138 2.036 1.02 1.02 0 0 1 .138-2.036zm7.348 0a1.02 1.02 0 1 1 .143 2.035 1.02 1.02 0 0 1-.143-2.035zm-10.23 2.74a1.021 1.021 0 1 1 .142 2.036 1.021 1.021 0 0 1-.142-2.035zm13.112 0a1.022 1.022 0 1 1-.144 2.036 1.022 1.022 0 0 1 .144-2.035zm-7.497.116a1.021 1.021 0 1 1 .12 2.04 1.021 1.021 0 0 1-.12-2.04zm3.688.88a1.02 1.02 0 0 1 .723 1.741 1.021 1.021 0 1 1-.723-1.742zm-6.308 1.864a1.02 1.02 0 1 1-.118 2.04 1.02 1.02 0 0 1 .118-2.04zm3.561.88a1.022 1.022 0 1 1 0 2.045 1.022 1.022 0 0 1 0-2.045zm-7.489.002a1.02 1.02 0 1 1 .001 2.042 1.02 1.02 0 0 1 0-2.042zm14.978 0a1.02 1.02 0 1 1 0 2.04 1.02 1.02 0 0 1 0-2.04zm-3.793.88a1.02 1.02 0 0 1 .925 1.284 1.02 1.02 0 1 1-.925-1.284zm-6.443 1.867a1.021 1.021 0 1 1-.001 2.042 1.021 1.021 0 0 1 .001-2.042zm3.568.882a1.022 1.022 0 1 1 .119 2.04 1.022 1.022 0 0 1-.119-2.04zm-7.235.117a1.02 1.02 0 0 1 .44 1.903 1.022 1.022 0 1 1-.44-1.903zm12.828 0a1.022 1.022 0 1 1 .142 2.038 1.022 1.022 0 0 1-.142-2.038zm-10.23 2.74a1.021 1.021 0 1 1 .142 2.036 1.021 1.021 0 0 1-.141-2.035zm7.631 0a1.02 1.02 0 1 1-.141 2.036 1.02 1.02 0 0 1 .141-2.035zM12 18.464a1.022 1.022 0 1 1 0 2.044 1.022 1.022 0 0 1 0-2.044z" /></svg>