<svg role="img" viewBox="0 0 24 24" xmlns="http://www.w3.org/2000/svg"><title>PhotoPrism</title><path d="M11.974 1.408c-.454.078-.586.65-.9 1.018C7.388 7.963 3.696 13.497.014 19.036c-.119.569.571.829.882 1.227.415.358.788.81 1.229 1.106.463.078 1.194.077 1.772.124l19.196 1.099c.51-.039.445-.738.546-1.157.109-.8.32-1.636.361-2.41-.515-.902-1.212-1.823-1.797-2.732-1.471-2.213-2.99-4.4-4.431-6.63-.992-2.135-1.963-4.283-2.965-6.411-.542-.462-1.316-.906-1.954-1.36-.295-.16-.544-.46-.878-.484Zm.002 1.045 1.35 2.01L3.283 18.842l-2.23.01zm1.404.718c.37.048.753.767.31.46zm1.042 1.06.72 1.559-.887-1.32.167-.24zm-.638.913c1.135 1.713 2.318 3.398 3.424 5.128l3.913 8.492-16.902.074 9.566-13.694Zm6.052 9.002 3.1 4.61c-.331-.09-.904.202-1.052-.17zm3.344 5.373-.23 1.382-.635-1.378zm-1.707.008 1.046 2.266-19.582-1.12.747-1.068zm-18.726.082c-.24.177-.419.97-.708.68-.114-.2-.942-.684-.522-.675z"/></svg>