<svg xmlns="http://www.w3.org/2000/svg" viewBox="0 0 16 16"><path d="M5.14,6.831a3.766,3.766,0,0,0-1.1-.088L3.666,8.612A3.56,3.56,0,0,0,4.827,8.5c.265-.082.446-.392.537-.912C5.439,7.15,5.366,6.9,5.14,6.831Z"/><path d="M12.55,6.831a3.808,3.808,0,0,0-1.1-.088l-.374,1.869A3.658,3.658,0,0,0,12.238,8.5c.267-.084.446-.392.538-.912C12.85,7.15,12.777,6.9,12.55,6.831Z"/><path d="M8,3.792C3.582,3.792,0,5.675,0,8s3.582,4.208,8,4.208S16,10.325,16,8,12.418,3.792,8,3.792Zm-1.729,3.8a2.194,2.194,0,0,1-.194.65,1.933,1.933,0,0,1-.4.575,1.4,1.4,0,0,1-.669.413,3.079,3.079,0,0,1-.738.087H3.52L3.283,10.5H2.414l.894-4.482H4.983a1.3,1.3,0,0,1,1.069.425,1.425,1.425,0,0,1,.219,1.147Zm3.1,1.725H8.5l.4-1.988a.564.564,0,0,0-.038-.444.531.531,0,0,0-.432-.132l-.695,0L7.224,9.319H6.36l.9-4.488h.863L7.879,6.025h.775a1.557,1.557,0,0,1,.95.262q.319.25.188.95Zm4.308-1.725a2.194,2.194,0,0,1-.194.65,1.932,1.932,0,0,1-.4.575,1.4,1.4,0,0,1-.669.413,3.079,3.079,0,0,1-.738.087h-.75L10.693,10.5H9.825l.894-4.482h1.675a1.3,1.3,0,0,1,1.069.425,1.425,1.425,0,0,1,.219,1.146Z"/></svg>