<svg xmlns="http://www.w3.org/2000/svg" viewBox="0 0 16 16"><path d="M8,4.326C4,4.326.75,5.971.75,8S4,11.674,8,11.674,15.25,10.029,15.25,8,12,4.326,8,4.326ZM6.114,8.716a1.417,1.417,0,0,1-.576.3,2.84,2.84,0,0,1-.808.054H3.987l-.205,1.186H2.914l.773-4.035H5.353a1.388,1.388,0,0,1,1.1.407,1.25,1.25,0,0,1,.207,1.108,1.745,1.745,0,0,1-.544.981Zm2.529.35.342-1.711a.508.508,0,0,0-.043-.422.6.6,0,0,0-.432-.122H7.823L7.38,9.066H6.521L7.294,5.15h.86l-.2,1.07h.766a1.483,1.483,0,0,1,1,.265.755.755,0,0,1,.165.774L9.518,9.068ZM13.42,7.74a1.729,1.729,0,0,1-.544.974,1.418,1.418,0,0,1-.576.3,2.84,2.84,0,0,1-.809.054H10.75l-.205,1.186H9.677L10.45,6.22h1.666a1.388,1.388,0,0,1,1.1.407,1.266,1.266,0,0,1,.207,1.114Zm-1.632-.928h-.594l-.323,1.661H11.4a1.287,1.287,0,0,0,.781-.166,1,1,0,0,0,.347-.643.773.773,0,0,0-.078-.65.88.88,0,0,0-.658-.2Zm-6.762,0H4.432L4.109,8.473h.527a1.287,1.287,0,0,0,.78-.166,1,1,0,0,0,.346-.643.773.773,0,0,0-.078-.65.879.879,0,0,0-.658-.2Z"/></svg>