<svg role="img" viewBox="0 0 24 24" xmlns="http://www.w3.org/2000/svg"><title>Pi-hole icon</title><path d="M9.3754 8.7817l-4.4419 4.4399c-1.451 1.45-1.451 3.8029 0 5.2528l4.4419 4.4389c1.45 1.449 3.7989 1.449 5.2488 0l4.4419-4.4389c1.451-1.45 1.452-3.8029 0-5.2528l-4.4419-4.4399c-1.449-1.449-3.7989-1.449-5.2488 0zm1.22-1.402C7.5974 7.0598 4.5775 4.794 4.3386 0c4.6518 0 7.1397 2.754 7.3797 7.1178.88-5.2339 5.0029-4.6209 5.0029-4.6209.196 2.966-2.24 4.7649-5.0029 4.9139-.776-1.636-5.4258-5.6479-5.4258-5.6479-.005-.004-.014-.004-.018.002a.0123.0123 0 00-.002.013s4.4869 3.909 4.3229 5.6019m1.399 10.3036c-2.231.165-3.212 1.738-3.148 3.274-.003-.036-.007-.07-.009-.107-.133-1.848 1.327-3.21 1.327-5.0049-.172-2.322-1.869-3.2869-3.462-3.1329.101-.012.204-.022.313-.028 1.848-.133 3.212 1.327 5.005 1.327 2.0818-.157 3.0738-1.537 3.1458-2.969.022 1.75-1.331 3.079-1.331 4.8099.165 2.23 1.736 3.2099 3.271 3.148-.036.003-.07.007-.107.009-1.848.1339-3.212-1.326-5.0049-1.326z"/></svg>