<svg role="img" viewBox="0 0 24 24" xmlns="http://www.w3.org/2000/svg"><title>Pi</title><path d="M17.534 6.1a2.523 2.523 0 0 0 2.516 2.516 2.523 2.523 0 0 0 2.516-2.515 2.523 2.523 0 0 0-2.516-2.516 2.523 2.523 0 0 0-2.516 2.516m-1.056 15.246v-.025c0-.528.302-.856 1.006-1.082.705-.252.88-.428.88-1.359v-4.603c0-.931-.25-1.057-.955-1.283-.579-.176-.931-.453-.931-.88 0-.353.226-.63.553-.755l3.648-1.309c.805-.302 1.434.101 1.434.83v8c0 .931.176 1.107.88 1.359.705.226 1.007.554 1.007 1.082v.025c0 .503-.403.855-1.006.855h-5.51c-.604 0-1.006-.352-1.006-.855M7.069 8.063c0-3.22.453-4.277 1.837-4.277 1.685 0 2.666 1.635 2.666 4.428 0 2.792-.956 4.478-2.515 4.478s-1.988-1.233-1.988-4.63M0 21.32c0 .465.324.88 1.006.88h8.252c.604 0 1.006-.352 1.006-.855 0-1.82-2.968-.236-2.968-2.566v-3.598c0-.452.2-.754.629-.754.427 0 .78.201 1.56.201 4.075 0 6.968-2.717 6.968-6.54 0-3.825-2.717-6.29-6.591-6.29-2.114 0-3.673.78-5.711.78H1.006C.403 2.579 0 2.93 0 3.434c0 .667.45.917 1.006 1.057 1.258.302 1.434.478 1.434 1.408V18.88c0 2.146-2.44.74-2.44 2.44"/></svg>