<svg role="img" viewBox="0 0 24 24" xmlns="http://www.w3.org/2000/svg">
  <title>picoCTF</title>
  <path d="M10.64245,11.233086c0.17079,0.172346,0.384837,0.323183,0.620179,0.409471c0.235117,0.107796,0.491754,0.150837,0.748391,0.150837c0.256638,0,0.513489,-0.04303,0.727322,-0.150837c0.235342,-0.107797,0.427653,-0.237114,0.598896,-0.409471c0.171242,-0.172346,0.320963,-0.36666,0.427879,-0.603774a1.7079497,1.7079534,0,0,0,0.149495,-0.7113512c0,-0.2801425,-0.04259,-0.5390057,-0.149495,-0.7759011c-0.106905,-0.2368954,-0.235557,-0.4522705,-0.406347,-0.6463548c-0.17079,-0.1940843,-0.385063,-0.3234011,-0.620179,-0.4311976c-0.235342,-0.107797,-0.491979,-0.1725641,-0.748617,-0.1725641c-0.256637,0,-0.513275,0.064768,-0.748617,0.1725641c-0.235342,0.1077965,-0.427654,0.2586337,-0.62018,0.4311976a2.1515691,2.1515698,0,0,0,-0.427653,0.625282c-0.106916,0.2371147,-0.149506,0.4742395,-0.149506,0.7328618c0,0.258634,0.04259,0.517267,0.149721,0.754381c0.127985,0.237343,0.277707,0.452718,0.448723,0.625282M15.732579,6.6635663c-0.02152,0,0,0,0,0c0.385063,0.4094594,0.68429,0.9052179,0.898337,1.4657325c0.214047,0.5605146,0.299443,1.064087,0.299443,1.7891337c0,0.7113517,-0.128652,1.3581537,-0.406585,1.9186687c-0.277706,0.560296,-0.620179,1.013014,-1.047833,1.401183c-0.406358,0.36643,-0.877268,0.668093,-1.368796,0.840669c-0.49198,0.193866,-0.962664,0.280154,-1.411613,0.280154c-0.53457,0,-1.026538,-0.08629,-1.454417,-0.258634c-0.427654,-0.172564,-0.791207,-0.431198,-1.069129,-0.754599v5.108985l-2.9301299,0.43098l4.8763009,4.914901c5.603398,0,10.265878,-4.030985,11.335232,-9.355346zM6.942701,9.9815232c0,-0.7541628,0.110902,-1.4417791,0.3548932,-2.0406629c0.2439912,-0.5988838,0.5767086,-1.1090582,1.0203279,-1.5305001c0.663426,-0.6321571,1.329963,-1.2643142,2.2615761,-1.6303083c0.621072,-0.2218139,1.330869,-0.3548954,2.129393,-0.3548954c0.8207,0,1.552685,0.110907,2.195707,0.3548954c0.621297,0.2439884,1.153417,0.5767093,1.552684,0.9981512l7.985216,7.9852211C23.911059,13.597046,24,12.798523,24,12c0,-6.6321628,-5.36784,-12,-12,-12c-6.6321595,0,-12,5.3678372,-12,12h0.02218L6.9648769,18.942698V9.9815117Z" />
</svg>
