<svg xmlns="http://www.w3.org/2000/svg" role="img" viewBox="0 0 24 24">
  <title>picoCTF</title>
  <path d="m 10.79769,11.33181 c 0.15126,0.15016 0.34083,0.28158 0.54926,0.35676 0.20823,0.09392 0.43552,0.13142 0.66281,0.13142 0.22729,0 0.45477,-0.03749 0.64415,-0.13142 0.20843,-0.09392 0.37875,-0.20659 0.53041,-0.35676 0.15166,-0.15016 0.28426,-0.31946 0.37895,-0.52605 a 1.51264,1.48809 0 0 0 0.1324,-0.61978 c 0,-0.24408 -0.03772,-0.46962 -0.1324,-0.67602 C 13.46858,9.30318 13.35464,9.11553 13.20338,8.94643 13.05211,8.77752 12.86234,8.66485 12.65411,8.57093 12.44588,8.477 12.21839,8.42057 11.9911,8.42057 c -0.22729,0 -0.45458,0.05643 -0.66301,0.15035 -0.20843,0.09392 -0.37875,0.22534 -0.54926,0.3755 a 1.90553,1.8746 0 0 0 -0.37875,0.54479 c -0.09488,0.20659 -0.1326,0.41319 -0.1326,0.63852 0,0.22534 0.03772,0.45068 0.1326,0.65727 0.11335,0.20679 0.24595,0.39444 0.39741,0.54479 M 15.30555,7.35012 c -0.01906,0 0,0 0,0 0.34103,0.35675 0.60604,0.78869 0.79561,1.27705 a 4.7933,4.71549 0 0 1 0.2652,1.55882 c 0,0.61978 -0.11394,1.18332 -0.36009,1.67168 -0.24595,0.48817 -0.54926,0.88261 -0.92801,1.22081 -0.35989,0.31926 -0.77695,0.58209 -1.21227,0.73245 -0.43572,0.16891 -0.85258,0.24409 -1.25019,0.24409 -0.47344,0 -0.90915,-0.07518 -1.2881,-0.22534 -0.37875,-0.15035 -0.70073,-0.37569 -0.94687,-0.65746 v 4.45131 l -2.59506,0.3755 4.31868,4.28221 c 4.96263,0 9.09194,-3.51208 10.03901,-8.15104 z m -7.78453,2.89124 c 0,-0.65708 0.09822,-1.25618 0.31431,-1.77797 C 8.03178,7.92226 8.32645,7.47776 8.71934,7.11057 Q 9.30868,6.55979 10.13376,6.24091 c 0.55005,-0.19326 1.17868,-0.30921 1.88589,-0.30921 0.72685,0 1.37513,0.09663 1.94462,0.30921 0.55025,0.21258 1.02152,0.50247 1.37513,0.86966 l 7.07208,6.95729 C 22.54899,13.39146 22.62776,12.69573 22.62776,12 22.62776,6.22159 17.87375,1.54475 11.99999,1.54475 6.12625,1.54475 1.37224,6.22159 1.37224,12 c 0,5.77841 4.75401,10.45525 10.62776,10.45525 h 0.01964 L 7.54066,18.04897 v -7.80762 z"/>
</svg>
