<svg role="img" viewBox="0 0 24 24" xmlns="http://www.w3.org/2000/svg">
  <title>picoCTF</title>
  <path d="m 10.64245,11.233086 c 0.17079,0.172346 0.384837,0.323183 0.620179,0.409471 0.235117,0.107796 0.491754,0.150837 0.748391,0.150837 0.256638,0 0.513489,-0.04303 0.727322,-0.150837 0.235342,-0.107797 0.427653,-0.237114 0.598896,-0.409471 0.171242,-0.172346 0.320963,-0.36666 0.427879,-0.603774 a 1.7079497,1.7079534 0 0 0 0.149495,-0.7113512 c 0,-0.2801425 -0.04259,-0.5390057 -0.149495,-0.7759011 C 13.658201,8.9047282 13.529549,8.6893532 13.358759,8.4952689 13.187957,8.3014026 12.973684,8.1720858 12.738568,8.0642892 12.503451,7.9564812 12.246588,7.8917137 11.989951,7.8917137 c -0.256637,0 -0.513275,0.064768 -0.748617,0.1725641 -0.235342,0.1077965 -0.427654,0.2586337 -0.62018,0.4309796 a 2.1515691,2.1515698 0 0 0 -0.427653,0.625282 C 10.08637,9.3576529 10.04378,9.5947777 10.04378,9.8534 c 0,0.258634 0.04259,0.517267 0.149721,0.754381 0.127985,0.237343 0.277707,0.452718 0.448723,0.625282 m 5.090134,-4.5699569 c -0.02152,0 0,0 0,0 0.385063,0.4094594 0.68429,0.9052179 0.898337,1.4657325 a 5.4122035,5.4121977 0 0 1 0.299443,1.7891337 c 0,0.7113517 -0.128652,1.3581537 -0.406585,1.9186687 -0.277706,0.560296 -0.620179,1.013014 -1.047833,1.401183 -0.406358,0.36643 -0.877268,0.668093 -1.368796,0.840669 -0.49198,0.193866 -0.962664,0.280154 -1.411613,0.280154 -0.53457,0 -1.026538,-0.08629 -1.454417,-0.258634 -0.427654,-0.172564 -0.791207,-0.431198 -1.069129,-0.754599 v 5.108985 l -2.9301299,0.43098 4.8763009,4.914901 c 5.603398,0 10.265878,-4.030985 11.335232,-9.355346 z M 6.942701,9.9815232 c 0,-0.7541628 0.110902,-1.4417791 0.3548932,-2.0406629 C 7.5194095,7.3197791 7.8521269,6.8096047 8.2957462,6.3881629 Q 8.9611809,5.7560058 9.892794,5.3900117 c 0.621072,-0.2218139 1.330869,-0.3548954 2.129393,-0.3548954 0.8207,0 1.552685,0.110907 2.195707,0.3548954 0.621297,0.2439884 1.153417,0.5767093 1.552684,0.9981512 l 7.985216,7.9852211 C 23.911059,13.597046 24,12.798523 24,12 24,5.3678372 18.63216,0 11.999989,0 5.3678404,0 0,5.3678372 0,12 0,18.632163 5.3678404,24 12,24 h 0.02218 L 6.9648769,18.942698 V 9.9815117 Z" id="path1" style="stroke-width:1.1384" />
</svg>
