<svg
   role="img"
   viewBox="0 0 24 24"
   version="1.1"
   xmlns="http://www.w3.org/2000/svg">
  <title>picoCTF</title>
  <path
     d="m 10.797691,11.331808 c 0.151263,0.150162 0.340834,0.281577 0.549264,0.356755 0.208234,0.09392 0.435522,0.131415 0.662811,0.131415 0.227289,0 0.454774,-0.03749 0.644148,-0.131415 0.20843,-0.09392 0.37875,-0.206593 0.530406,-0.356755 0.151657,-0.150161 0.284259,-0.319455 0.378946,-0.526047 a 1.5126388,1.4880859 0 0 0 0.132405,-0.619779 c 0,-0.2440848 -0.03772,-0.4696168 -0.132405,-0.676016 C 13.468579,9.3031796 13.354639,9.1155262 13.203376,8.9464257 13.052112,8.7775186 12.862344,8.6648489 12.654111,8.5709252 12.445878,8.4770022 12.218393,8.4205705 11.991103,8.4205705 c -0.227288,0 -0.454577,0.056433 -0.663007,0.1503547 -0.208429,0.093924 -0.378748,0.2253391 -0.549264,0.3755005 a 1.905532,1.8746018 0 0 0 -0.37875,0.5447939 c -0.09488,0.2065931 -0.132601,0.4131856 -0.132601,0.6385244 0,0.225339 0.03772,0.450678 0.132601,0.65727 0.11335,0.206787 0.245951,0.39444 0.397412,0.544794 M 15.30555,7.350115 c -0.01906,0 0,0 0,0 0.341032,0.3567545 0.606039,0.7886857 0.79561,1.2770486 a 4.7932971,4.715493 0 0 1 0.265202,1.5588184 c 0,0.619779 -0.113939,1.183318 -0.360087,1.671681 -0.24595,0.48817 -0.549264,0.882609 -0.928013,1.22081 -0.35989,0.319263 -0.776947,0.582093 -1.212272,0.732448 -0.435719,0.168907 -0.852578,0.244085 -1.250186,0.244085 -0.473436,0 -0.909155,-0.07518 -1.2881,-0.225339 -0.37875,-0.150355 -0.700725,-0.375693 -0.946873,-0.657463 v 4.451309 l -2.5950597,0.3755 4.3186827,4.282209 c 4.962633,0 9.091941,-3.512076 10.03901,-8.151039 z m -7.7845335,2.891238 c 0,-0.6570776 0.098224,-1.2561766 0.3143147,-1.7779734 C 8.0317782,7.9222571 8.3264481,7.4777639 8.7193408,7.1105739 Q 9.3086806,6.5597889 10.133756,6.2409136 c 0.550051,-0.1932581 1.17868,-0.3092129 1.885888,-0.3092129 0.726852,0 1.375126,0.096629 1.944625,0.3092129 0.550247,0.2125835 1.021522,0.5024703 1.375126,0.8696603 l 7.072079,6.9572851 C 22.548987,13.391457 22.627762,12.695728 22.627762,12 22.627762,6.2215875 17.873753,1.5447463 11.999999,1.5447463 6.1262457,1.5447463 1.372238,6.2215875 1.372238,12 c 0,5.778411 4.7540077,10.455254 10.627761,10.455254 h 0.01964 L 7.5406613,18.048972 v -7.807619 z" />
</svg>
