<svg role="img" viewBox="0 0 24 24" xmlns="http://www.w3.org/2000/svg"><title>picoCTF</title><path d="M12 0C5.374 0 .011 5.363.011 11.989S5.374 23.978 12 23.978l.022.022c5.806 0 10.637-4.144 11.745-9.618l-.022-.022c.155-.775.244-1.573.244-2.371C23.989 5.363 18.626 0 12 0m.022 5.03c.82 0 1.552.111 2.194.355.62.244 1.152.576 1.551.997.4.421.71.93.931 1.507.2.576.31 1.175.31 1.84 0 .73-.133 1.396-.42 1.972a4.7 4.7 0 0 1-1.086 1.44c-.422.377-.91.687-1.419.865-.51.2-.997.288-1.462.288a4.1 4.1 0 0 1-1.507-.266 2.86 2.86 0 0 1-1.108-.776v5.252l-3.017.44-.02-.019V9.972h-.021c0-.753.11-1.44.354-2.038.222-.62.554-1.13.997-1.552a4.9 4.9 0 0 1 1.596-.997 6.3 6.3 0 0 1 2.127-.354m-.132 2.615a1.9 1.9 0 0 0-.776.178c-.244.11-.443.266-.643.443a2.2 2.2 0 0 0-.443.643c-.11.244-.155.487-.155.753s.044.532.155.776c.133.243.288.465.465.642.178.178.399.333.643.421.243.111.51.155.775.155a1.7 1.7 0 0 0 .754-.155c.244-.11.443-.243.62-.42.178-.178.333-.377.444-.621s.155-.488.155-.731a1.9 1.9 0 0 0-.155-.798 2.6 2.6 0 0 0-.421-.665c-.177-.2-.399-.332-.643-.443a1.9 1.9 0 0 0-.775-.178" style="stroke-width:0.221605;fill:#000000"/></svg>