<svg role="img" viewBox="0 0 24 24" xmlns="http://www.w3.org/2000/svg">
  <title>picoCTF</title>
  <path d="m 10.64245,11.23309 c 0.17079,0.17235 0.38484,0.32318 0.62018,0.40947 0.23512,0.1078 0.49175,0.15084 0.74839,0.15084 0.25664,0 0.51349,-0.04303 0.72732,-0.15084 0.23534,-0.1078 0.42765,-0.23711 0.5989,-0.40947 0.17124,-0.17235 0.32096,-0.36666 0.42788,-0.60377 a 1.70795,1.70795 0 0 0 0.1495,-0.71135 c 0,-0.28014 -0.04259,-0.53901 -0.1495,-0.7759 C 13.6582,8.90473 13.52955,8.68935 13.35876,8.49527 13.18796,8.3014 12.97368,8.17209 12.73857,8.06429 12.50345,7.95648 12.24659,7.89171 11.98995,7.89171 c -0.25664,0 -0.51328,0.06477 -0.74862,0.17256 -0.23534,0.1078 -0.42765,0.25863 -0.62018,0.43098 a 2.15157,2.15157 0 0 0 -0.42765,0.62528 C 10.08637,9.35765 10.04378,9.59478 10.04378,9.8534 c 0,0.25863 0.04259,0.51727 0.14972,0.75438 0.12799,0.23734 0.27771,0.45272 0.44872,0.62528 m 5.09013,-4.56996 c -0.02152,0 0,0 0,0 0.38506,0.40946 0.68429,0.90522 0.89834,1.46573 a 5.4122,5.4122 0 0 1 0.29944,1.78913 c 0,0.71135 -0.12865,1.35815 -0.40659,1.91867 -0.27771,0.5603 -0.62018,1.01301 -1.04783,1.40118 -0.40636,0.36643 -0.87727,0.66809 -1.3688,0.84067 -0.49198,0.19387 -0.96266,0.28015 -1.41161,0.28015 -0.53457,0 -1.02654,-0.08629 -1.45442,-0.25863 -0.42765,-0.17256 -0.79121,-0.4312 -1.06913,-0.7546 v 5.10898 l -2.93013,0.43098 4.8763,4.9149 c 5.6034,0 10.26588,-4.03099 11.33523,-9.35535 z M 6.9427,9.98152 c 0,-0.75416 0.1109,-1.44178 0.35489,-2.04066 0.37372,-0.66874 0.70644,-1.17892 1.14946,-1.60036 0.93161,-0.36619 1.59899,-1.1534 2.5306,-1.51939 0.62107,-0.22181 1.33087,-0.3549 2.12939,-0.3549 0.8207,0 1.55268,0.11091 2.19571,0.3549 0.6213,0.24399 1.15342,0.57671 1.55268,0.99815 l 7.98522,7.98522 C 23.91106,13.59705 24,12.79852 24,12 24,5.36784 18.63216,0 11.99999,0 5.36784,0 0,5.36784 0,12 0,18.63216 5.36784,24 12,24 h 0.02218 L 6.96488,18.9427 V 9.98151 Z"/>
</svg>
