<svg role="img" viewBox="0 0 24 24" xmlns="http://www.w3.org/2000/svg">
  <title>picoCTF</title>
  <path d="m 10.642,11.233 c 0.171,0.172 0.385,0.323 0.620,0.409 0.235,0.108 0.492,0.151 0.748,0.151 0.257,0 0.513,-0.043 0.727,-0.151 0.235,-0.108 0.428,-0.237 0.599,-0.409 0.171,-0.172 0.321,-0.367 0.428,-0.604 a 1.708,1.708 0 0 0 0.149,-0.711 c 0,-0.280 -0.043,-0.539 -0.149,-0.776 C 13.658,8.905 13.530,8.689 13.359,8.495 13.188,8.301 12.974,8.172 12.739,8.064 12.503,7.956 12.247,7.892 11.990,7.892 c -0.257,0 -0.513,0.065 -0.749,0.173 -0.235,0.108 -0.428,0.259 -0.620,0.431 -0.235,0.108 -0.428,0.259 -0.620,0.431 a 2.152,2.152 0 0 0 -0.428,0.625 C 10.086,9.358 10.044,9.595 10.044,9.853 c 0,0.259 0.043,0.517 0.150,0.754 0.128,0.237 0.278,0.453 0.449,0.625 m 5.090,-4.570 c -0.022,0 0,0 0,0 0.385,0.409 0.684,0.905 0.898,1.466 0.021,0.237 0.067,0.478 0.150,0.712 a 5.412,5.412 0 0 1 0.299,1.789 c 0,0.711 -0.129,1.358 -0.407,1.919 -0.278,0.560 -0.620,1.013 -1.048,1.401 -0.406,0.366 -0.877,0.668 -1.369,0.841 -0.492,0.194 -0.963,0.280 -1.412,0.280 -0.535,0 -1.027,-0.086 -1.454,-0.259 -0.428,-0.173 -0.791,-0.431 -1.069,-0.755 v 5.109 l -2.930,0.431 4.876,4.915 c 5.603,0 10.266,-4.031 11.335,-9.355 z M 6.943,9.982 c 0,-0.754 0.111,-1.442 0.355,-2.041 0.374,-0.669 0.706,-1.179 1.149,-1.600 0.932,-0.366 1.599,-1.153 2.531,-1.519 0.621,-0.222 1.331,-0.355 2.129,-0.355 0.821,0 1.553,0.111 2.196,0.355 0.621,0.244 1.153,0.577 1.553,0.998 l 7.985,7.985 c 0.235,0.237 0.385,0.453 0.449,0.625 0.064,0.172 0.098,0.431 0.098,0.755 0,0.259 -0.043,0.517 -0.150,0.754 -0.064,0.173 -0.235,0.324 -0.450,0.431 l -7.985,7.985 c -0.441,0.441 -0.963,0.625 -1.553,0.625 -0.575,0 -1.098,-0.184 -1.554,-0.625 l -4.876,-4.915 v 5.109 c 0.277,0.324 0.640,0.582 1.068,0.755 0.427,0.173 0.920,0.259 1.454,0.259 0.449,0 0.926,-0.086 1.412,-0.280 0.572,-0.373 0.994,-0.841 1.369,-1.401 0.278,-0.561 0.406,-1.208 0.406,-1.919 0,-0.751 -0.115,-1.499 -0.299,-1.789 -0.214,-0.561 -0.513,-1.057 -0.898,-1.466 l -4.876,-4.915 h 5.082 c 0.574,0 1.097,-0.184 1.553,-0.625 0.441,-0.441 0.625,-0.963 0.625,-1.553 0,-0.575 -0.184,-1.098 -0.625,-1.554 l -7.985,-7.985 c -0.442,-0.442 -0.964,-0.625 -1.553,-0.625 -0.575,0 -1.098,0.183 -1.554,0.625 -0.441,0.441 -0.625,0.963 -0.625,1.554 0,0.574 0.184,1.096 0.625,1.553 l 4.876,4.914 v -5.109 c -0.277,-0.324 -0.640,-0.582 -1.068,-0.755 -0.428,-0.173 -0.921,-0.259 -1.454,-0.259 -0.449,0 -0.926,0.086 -1.412,0.280 -0.572,0.373 -0.994,0.841 -1.369,1.401 -0.278,0.561 -0.406,1.208 -0.406,1.919 0,0.751 0.115,1.499 0.299,1.789 0.214,0.561 0.513,1.057 0.898,1.466 z"/>
</svg>
