<svg role="img" viewBox="0 0 24 24" xmlns="http://www.w3.org/2000/svg"><title>Picrew</title><path d="M2.22 10.825a.037.037 0 0 1 .04-.04.603.603 0 0 1 .44.216 1.037 1.037 0 0 1 .21.62.035.035 0 0 1-.041.037c-.473-.062-.592-.22-.648-.833Zm-.146 0a.037.037 0 0 0-.038-.04.603.603 0 0 0-.44.216 1.037 1.037 0 0 0-.208.62.035.035 0 0 0 .041.037c.47-.062.59-.22.645-.833zm-.647 1.002a.036.036 0 0 0-.039.035 1.04 1.04 0 0 0 .21.626.603.603 0 0 0 .438.22.037.037 0 0 0 .038-.04c-.055-.614-.175-.773-.647-.84Zm.794.845a.037.037 0 0 0 .04.04.603.603 0 0 0 .44-.216 1.04 1.04 0 0 0 .21-.634.036.036 0 0 0-.042-.039c-.473.072-.592.23-.648.844zm2.619-1.848a.037.037 0 0 0-.04-.04.603.603 0 0 0-.44.216 1.037 1.037 0 0 0-.21.62.035.035 0 0 0 .042.037c.473-.062.593-.22.648-.833zm.795.844a.035.035 0 0 0 .04-.037 1.037 1.037 0 0 0-.21-.625.603.603 0 0 0-.44-.216.037.037 0 0 0-.038.04c.056.607.175.765.648.832zm-.648 1.004a.037.037 0 0 0 .039.04.603.603 0 0 0 .44-.216 1.04 1.04 0 0 0 .21-.635.036.036 0 0 0-.041-.039c-.473.072-.592.23-.648.844Zm-.795-.845a.036.036 0 0 0-.04.04 1.04 1.04 0 0 0 .21.624.603.603 0 0 0 .44.215.037.037 0 0 0 .038-.04c-.055-.613-.175-.772-.648-.84Zm17.222-.964a.29.29 0 0 0-.29.29v.88a.29.29 0 1 0 .579 0v-.88a.288.288 0 0 0-.29-.295Zm-2.15-.395a.288.288 0 0 0-.29.288v1.271a.29.29 0 1 0 .58 0v-1.273a.288.288 0 0 0-.29-.289Zm4.3 0a.288.288 0 0 0-.288.288v1.271a.29.29 0 1 0 .578 0v-1.273a.288.288 0 0 0-.29-.289zm-5.152 1.568a.29.29 0 0 1-.29.29h-2.744v.106a.29.29 0 0 1-.578 0 2.412 2.412 0 0 1 .05-.455c.263-1.447 2.011-1.974 3.06-1.03a1.496 1.496 0 0 1 .502 1.08zm-2.883-.296h2.25a.99.99 0 0 0-.26-.376 1.31 1.31 0 0 0-.893-.322 1.22 1.22 0 0 0-1.097.698zm-5.264-1.277a2.05 2.05 0 0 0-1.8 1.036 1.347 1.347 0 0 0-.784-.24 1.36 1.36 0 0 0-.664.17 4.297 4.297 0 0 0-.793-1.912.685.685 0 0 1-.097-.15c.013-.96-1.153-1.406-1.832-.724a.938.938 0 0 0-.052.056.75.75 0 0 1-.133-.007 5.118 5.118 0 0 0-.58-.029 6.856 6.856 0 0 0-.71.04C2.177 7.94.924 8.363.938 9.36a.685.685 0 0 1-.098.15A4.385 4.385 0 0 0 0 11.761a.29.29 0 0 0 .577.05A3.784 3.784 0 0 1 1.3 9.864a.81.81 0 0 0 .21-.502.433.433 0 0 1 .268-.432.51.51 0 0 1 .6.137c.15.185.31.24.63.193a4.74 4.74 0 0 1 .522-.026 4.74 4.74 0 0 1 .523.026c.337.05.492-.018.643-.208a.51.51 0 0 1 .583-.12.433.433 0 0 1 .27.431.81.81 0 0 0 .215.502 3.784 3.784 0 0 1 .723 1.947c.02.198 0 .37.174.47a.29.29 0 0 0 .4-.12.754.754 0 0 1 1.251.01.29.29 0 0 0 .528-.068 1.447 1.447 0 0 1 1.424-1.06 1.478 1.478 0 0 1 1.253.656.29.29 0 1 0 .484-.32 2.05 2.05 0 0 0-1.737-.915zm13.723 2.93a1.405 1.405 0 0 1-1.274.99 1.636 1.636 0 0 1-1.3-.546c-.63.723-1.86.749-2.39-.068-.523.372-1.327.614-2.113.614-1.06-.035-1.58-.388-2.3-.956-.762-.712-1.85-.145-2.353.738v1.206a.29.29 0 0 1-.577 0v-1.532a2.086 2.086 0 0 1-1.416.544 2.05 2.05 0 0 1-1.8-1.035 1.367 1.367 0 0 1-1.55.01c-.587 1.096-1.817 1.724-3.378 1.724-1.23 0-2.25-.385-2.916-1.085v1.372a.29.29 0 0 1-.579 0v-2.3a.294.294 0 0 1 .12-.24.29.29 0 0 1 .417.096c.458 1.025 1.528 1.577 2.953 1.583 1.426.006 2.704-.63 2.997-1.78a.286.286 0 0 1 .148-.166.29.29 0 0 1 .376.12c.248.45 1.01.45 1.258 0a.29.29 0 0 1 .492-.02.276.276 0 0 1 .04.09 1.487 1.487 0 0 0 2.847 0 .29.29 0 0 1 .562.007c.014.035.006.43.008.475.438-.421 1.002-.7 1.5-.7.92-.031 1.234.565 1.877.923a2.554 2.554 0 0 0 1.275.353c.857 0 1.652-.31 2.058-.75a.292.292 0 0 1 .422.163c.24.785 1.382.79 1.755-.017a.288.288 0 0 1 .523-.031 1.04 1.04 0 0 0 1.01.635.832.832 0 0 0 .76-.587.289.289 0 0 1 .55.176zm-16.308.41a.288.288 0 0 0-.288.29v1.276a.29.29 0 1 0 .577 0v-1.275a.288.288 0 0 0-.289-.29Z"/></svg>