<svg viewBox="0 0 24 24" fill="none" xmlns="http://www.w3.org/2000/svg">
<path d="M3.16176 8.21489V8.3116C3.15994 8.35139 3.15994 8.39119 3.16176 8.43417C3.15336 9.10116 3.15539 9.76273 3.15742 10.428L3.15813 10.6627C3.16054 10.8802 3.15886 11.0967 3.15718 11.3131C3.15464 11.6386 3.15211 11.9637 3.16358 12.2907C3.11793 12.9324 3.16756 12.9302 3.41522 12.919C3.49624 12.9154 3.59846 12.9108 3.72547 12.9274L3.73283 12.9276C4.01 12.9335 4.08449 12.9351 4.05866 12.5331C4.05866 12.2091 4.05866 11.8749 4.06593 11.5529C4.06164 10.9261 4.06375 10.2976 4.06585 9.67031C4.06657 9.45615 4.06729 9.24211 4.06775 9.02831C4.05392 8.81188 4.05493 8.59425 4.07078 8.37806C4.09047 8.07163 3.97749 8.05054 3.77878 8.06845C3.72863 8.09191 3.63665 8.08427 3.53875 8.07615C3.35932 8.06125 3.16 8.04471 3.16176 8.21489Z" fill="black"/>
<path fill-rule="evenodd" clip-rule="evenodd" d="M8.0346 9.5158C8.0561 9.18669 8.03248 8.87032 8.03218 8.53962C8.01582 8.38044 8.11759 8.10188 7.92979 8.08078C7.72412 8.04935 7.52784 8.07322 7.32186 8.08357C7.16647 8.12854 7.1483 8.4477 7.05288 8.60091C6.90325 8.94434 6.79299 9.30011 6.64154 9.64116C6.58732 9.86083 6.47645 10.022 6.41921 10.2417C6.24291 10.7865 6.12296 10.1712 6.0224 9.93485C5.86822 9.593 5.74736 9.24599 5.6162 8.88942C5.48626 8.66299 5.42901 8.39198 5.32148 8.14844C5.23394 7.99522 5.0425 8.09392 4.9177 8.07601C4.7917 8.10387 4.53332 7.9602 4.50939 8.21489C4.50696 8.76128 4.50333 9.29971 4.50727 9.8465C4.51423 10.5286 4.50121 11.2031 4.50454 11.8832C4.50454 12.0384 4.50939 12.2155 4.50969 12.3699C4.51908 12.5398 4.42791 12.8896 4.6145 12.9294C4.77291 12.9103 4.9174 12.9294 5.07582 12.9211C5.18971 12.9044 5.39629 13.0007 5.40902 12.7766C5.41114 12.4376 5.41659 12.1001 5.4069 11.7614C5.4069 11.6819 5.40356 11.611 5.4069 11.5279C5.41901 11.3547 5.61105 11.379 5.62256 11.5386C5.70768 11.7475 5.77402 11.9692 5.87095 12.1682C5.90427 12.3918 5.99211 12.4014 6.14356 12.389C6.23989 12.3918 6.30531 12.389 6.40103 12.3807C6.48282 12.3807 6.57611 12.4316 6.62397 12.3106C6.72605 12.1487 6.91415 11.3659 7.06015 11.3985C7.08642 11.4108 7.1081 11.4359 7.12073 11.4686C7.12867 11.5002 7.13434 11.5327 7.1377 11.5657C7.14133 11.6564 7.12346 11.7626 7.13437 11.841C7.12073 12.0058 7.14527 12.1443 7.13043 12.309C7.14527 12.6672 7.02289 12.9796 7.41304 12.9143C7.5342 12.8964 8.0552 13.017 8.0455 12.7766C8.03278 11.689 8.04399 10.6026 8.0346 9.5158ZM8.02763 9.53291V9.50307C8.02793 9.51302 8.02793 9.52296 8.02763 9.53291ZM5.62559 8.95867C5.63135 8.97299 5.6368 8.98772 5.64256 9.00244C5.63953 8.99289 5.63589 8.98334 5.63286 8.97419L5.62559 8.95867ZM5.8764 12.1654C5.87004 12.1534 5.86459 12.1415 5.85883 12.1296C5.87337 12.1745 5.88549 12.2119 5.897 12.2422C5.89033 12.2163 5.88427 12.19 5.8764 12.1654ZM7.13558 12.6135V12.7161C7.13389 12.6819 7.13389 12.6477 7.13558 12.6135Z" fill="black"/>
<path fill-rule="evenodd" clip-rule="evenodd" d="M2.91035 9.71717C2.87642 9.00921 2.56231 8.33269 1.96165 8.12536C1.75693 8.0492 1.54204 8.03249 1.33191 8.07641C1.15965 8.06618 0.988227 8.06752 0.816516 8.06887C0.714365 8.06968 0.612112 8.07048 0.509522 8.06885C0.451385 8.08021 0.384616 8.07468 0.318967 8.06924C0.138683 8.05429 -0.0331494 8.04005 0.00548702 8.37845C0.0185346 9.11409 0.0154368 9.84846 0.0123424 10.582C0.0111983 10.8532 0.0100547 11.1243 0.0097277 11.3953C0.0174698 11.5864 0.0158059 11.7776 0.0141381 11.9693C0.0127392 12.1301 0.0113375 12.2911 0.0154829 12.4527C0.0154829 12.5479 0.0107804 12.6241 0.00701302 12.6852C-0.00680154 12.9093 -0.00804365 12.9294 0.281239 12.9294C0.35193 12.9294 0.406858 12.9307 0.452513 12.9317C0.557183 12.934 0.613116 12.9352 0.698534 12.9183C0.897846 12.9501 0.933589 12.8514 0.917838 12.6087C0.917051 12.4792 0.919702 12.3466 0.922344 12.2146C0.924784 12.0926 0.927216 11.971 0.926925 11.8526C0.922693 11.8278 0.921264 11.8023 0.922685 11.777C0.925375 11.758 0.929328 11.7393 0.934498 11.7213C0.97071 11.6353 1.07903 11.6416 1.1763 11.6472C1.2141 11.6494 1.25023 11.6515 1.27981 11.648C1.988 11.7762 2.46811 11.3918 2.71588 10.8322C2.87117 10.4982 2.93944 10.1067 2.91035 9.71717ZM2.7177 8.91688C2.5799 8.60008 2.36888 8.34918 2.11522 8.20057C2.37548 8.33555 2.58957 8.5901 2.7177 8.91688ZM1.92742 9.49471C1.90536 9.45704 1.88017 9.42274 1.8523 9.39244L1.84721 9.38711C1.84172 9.38134 1.83628 9.37563 1.83049 9.37015V9.36856C1.73255 9.28664 1.61698 9.24879 1.50123 9.26071C1.33585 9.27345 1.18197 9.27345 1.01659 9.27345C0.897699 9.24666 0.913527 9.63814 0.924963 9.92097C0.929494 10.033 0.933335 10.128 0.927834 10.1732C0.90027 10.3404 0.922079 10.4741 1.07353 10.4458C1.13972 10.4458 1.21161 10.4495 1.28207 10.4531C1.32769 10.4554 1.37271 10.4577 1.41521 10.4589C1.4354 10.4629 1.4556 10.4657 1.47579 10.4673C1.55897 10.4666 1.64162 10.45 1.72114 10.418C2.00739 10.2624 2.08857 9.78601 1.92742 9.49471ZM1.45943 9.24161C1.52026 9.23408 1.58161 9.23932 1.64118 9.25713C1.58113 9.24418 1.52025 9.23899 1.45943 9.24161ZM0.91178 12.0134V11.9023C0.913995 11.9393 0.914196 11.9764 0.91178 12.0134ZM2.04767 11.5458C2.02799 11.5569 2.00739 11.5668 1.98709 11.5756L1.98679 11.5768C2.22349 11.4933 2.43339 11.3117 2.58533 11.0591C2.43745 11.2742 2.25333 11.4408 2.04767 11.5458ZM0.0263591 12.5689L0.0272962 12.6473C0.0261922 12.6135 0.026278 12.5779 0.0260243 12.5413L0.0263591 12.5689Z" fill="black"/>
<path fill-rule="evenodd" clip-rule="evenodd" d="M12.0941 10.8899C12.1446 10.4658 12.1087 10.0316 11.9899 9.63161C11.7552 8.77322 11.1766 8.06964 10.2585 8C9.79599 8.00199 9.41766 8.16157 9.12203 8.42183C9.0291 8.49629 8.94014 8.57899 8.85577 8.66936C8.78947 8.77656 8.72778 8.88856 8.671 9.00483C8.50019 9.33694 8.39031 9.71656 8.34999 10.1139C8.30968 10.5112 8.34004 10.9154 8.43867 11.2946C8.63889 12.0925 9.13293 12.7699 9.91806 12.9545C10.0073 12.9777 10.0977 12.9922 10.1886 12.9979H10.1964C10.4074 13.0098 10.6182 12.9712 10.8186 12.8841C11.5834 12.5916 12.0069 11.7746 12.0941 10.8899ZM11.8912 11.7236C11.9839 11.4786 12.0498 11.2177 12.0869 10.9484C12.0565 11.2198 11.9903 11.4822 11.8912 11.7236ZM11.5604 8.77163C11.2029 8.30202 10.7212 8.03186 10.2158 8.01751C10.4675 8.01405 10.7169 8.0793 10.9484 8.20911C11.1798 8.33892 11.3882 8.53047 11.5604 8.77163ZM11.017 9.64434C11.6922 10.9846 10.5215 12.4809 9.51368 11.4626C8.70402 10.2074 9.80266 8.63434 10.7859 9.38527C10.8708 9.45868 10.9485 9.54571 11.017 9.64434ZM9.99773 11.7798C9.91556 11.7572 9.83567 11.7222 9.75964 11.6755C9.83633 11.72 9.91605 11.7549 9.99773 11.7798ZM11.2651 12.5964C11.4488 12.4331 11.6132 12.235 11.7528 12.0086C11.6362 12.2123 11.4967 12.3915 11.339 12.5398C11.3145 12.5593 11.2899 12.578 11.2651 12.5964ZM18.0193 8.13013C17.7462 8.01575 17.4569 7.98418 17.1733 8.03781L17.153 8.04139L17.1293 8.04616C16.7484 8.12247 16.3903 8.33256 16.0928 8.65423C15.873 8.99514 15.7174 9.39921 15.6384 9.83377C15.5669 10.2022 15.5603 10.5873 15.6193 10.9596C15.7756 12.0309 16.4296 12.9302 17.4395 12.9927C17.9078 12.9764 18.3158 12.8168 18.6348 12.5152C18.7029 12.4571 18.7711 12.3958 18.8383 12.3242C18.8898 12.2406 18.9372 12.1564 18.9804 12.0715C19.1536 11.771 19.2754 11.3977 19.3348 10.9504C19.512 9.52296 18.8683 8.4672 18.0193 8.13013ZM16.761 11.455C15.9289 10.2146 17.0942 8.50062 18.1213 9.478C19.0897 10.6993 17.8081 12.5908 16.761 11.4566V11.455ZM17.9269 9.31444C17.8966 9.29494 17.8663 9.27783 17.836 9.26231C17.9633 9.32208 18.0824 9.40863 18.1886 9.51859C18.2275 9.57908 18.2631 9.64303 18.2952 9.71C18.1998 9.5394 18.0731 9.40332 17.9269 9.31444ZM22.6377 9.2476C22.6372 9.02406 22.6367 8.80059 22.6383 8.57703V8.53763C22.6383 8.44183 22.6402 8.34571 22.6421 8.24983L22.6428 8.21489C22.6393 8.06737 22.5086 8.07702 22.4209 8.08349L22.4144 8.08397C22.2999 8.06108 22.1836 8.05827 22.0685 8.07561C21.7198 8.0552 21.7216 8.1258 21.729 8.4017C21.7307 8.46466 21.7326 8.5383 21.7308 8.62399C21.7366 8.77395 21.7331 8.92886 21.7295 9.08406C21.7255 9.25833 21.7215 9.43296 21.7308 9.60136C21.7308 9.68095 21.7308 9.76054 21.7329 9.84013V9.84332C21.7329 9.95037 21.7329 10.0574 21.7283 10.1661C21.6669 10.4338 21.5387 10.1877 21.4706 10.057C21.4638 10.044 21.4576 10.0321 21.4521 10.022C21.3144 9.75197 21.1794 9.47873 21.0444 9.20538C20.8792 8.87083 20.7139 8.53611 20.5434 8.20694C20.507 8.04868 20.3879 8.06005 20.284 8.06997C20.2625 8.07202 20.2416 8.07401 20.2223 8.07442C20.0708 8.0784 19.9194 8.0784 19.7679 8.06924C19.6275 8.05211 19.649 8.50238 19.6608 8.74766C19.6632 8.7986 19.6652 8.8407 19.6653 8.86793L19.6633 9.09631C19.6619 9.26504 19.6606 9.4333 19.6577 9.60176C19.6525 10.0687 19.6556 10.5373 19.6588 11.006C19.6629 11.597 19.6669 12.1882 19.654 12.777C19.6578 12.9523 19.8617 12.931 20.0346 12.913C20.1133 12.9047 20.1855 12.8972 20.2296 12.9091C20.5722 12.9792 20.5708 12.8447 20.568 12.5645C20.5674 12.5058 20.5667 12.4408 20.5691 12.3699C20.5744 12.1089 20.5704 11.8413 20.5665 11.576C20.5648 11.4595 20.5631 11.3435 20.5622 11.2286C20.5622 11.2072 20.5614 11.1799 20.5605 11.1491C20.5544 10.9384 20.5435 10.5612 20.7454 10.751C20.7853 10.8558 20.8288 10.9442 20.874 11.0358C20.8974 11.0834 20.9213 11.1319 20.9453 11.184C21.0769 11.4071 21.1923 11.644 21.3078 11.8809C21.4101 12.0909 21.5124 12.3008 21.626 12.5012C21.8026 12.9286 21.8373 12.9272 22.0139 12.92C22.0777 12.9174 22.1601 12.914 22.2745 12.9298C22.3143 12.914 22.365 12.9181 22.4156 12.9222C22.5191 12.9305 22.6227 12.9389 22.6349 12.7778C22.64 12.6635 22.6385 12.549 22.6369 12.4349C22.6351 12.3039 22.6334 12.1733 22.6416 12.0436C22.6489 11.65 22.6447 11.2543 22.6405 10.8592C22.6378 10.6012 22.6351 10.3434 22.6355 10.0865C22.6391 9.80657 22.6384 9.52703 22.6377 9.2476ZM23.9901 9.46932C23.9861 9.24108 23.9822 9.01312 23.9926 8.78516C23.9931 8.70598 23.9951 8.63402 23.9968 8.56891C24.0086 8.13428 24.0121 8.00511 23.5361 8.07641L23.5349 8.07635C23.2944 8.06501 23.1782 8.05954 23.1234 8.11483C23.0723 8.16642 23.0745 8.2709 23.0787 8.47287C23.0801 8.53954 23.0817 8.61684 23.0817 8.70637C23.0795 8.79286 23.0826 8.87576 23.0857 8.95781C23.0877 9.0094 23.0896 9.06066 23.0902 9.11228C23.0918 9.19458 23.0877 9.27691 23.0778 9.35821C23.0755 9.4524 23.079 9.54274 23.0824 9.6324C23.0871 9.75679 23.0919 9.87986 23.0811 10.0101C23.0862 10.2958 23.085 10.5809 23.0839 10.8661C23.0825 11.2319 23.0811 11.5976 23.0926 11.9644C23.0741 12.1375 23.0804 12.3112 23.0867 12.4847C23.0892 12.5553 23.0918 12.6258 23.0926 12.6962C23.0666 12.9446 23.2327 12.933 23.3854 12.9223C23.4421 12.9184 23.497 12.9146 23.5394 12.9243C23.5821 12.9084 23.643 12.9132 23.7062 12.9181C23.8352 12.9281 23.9738 12.9389 23.9874 12.777C23.9927 12.6414 23.9913 12.5103 23.9898 12.3792C23.9883 12.2411 23.9868 12.103 23.9932 11.9592C23.989 11.6289 23.9909 11.2999 23.9927 10.9704C23.9945 10.6493 23.9963 10.3278 23.9926 10.0045C23.9963 9.82584 23.9932 9.64749 23.9901 9.46932Z" fill="black"/>
<path fill-rule="evenodd" clip-rule="evenodd" d="M14.9475 11.3134C14.9368 11.2651 14.9368 11.2139 14.9475 11.1657C14.9522 11.1559 14.9578 11.1468 14.9642 11.1387C15.1995 10.8235 15.3601 10.375 15.3613 9.92848V9.79238C15.3654 9.5332 15.3235 9.27631 15.239 9.04204C15.1546 8.80776 15.0298 8.60252 14.8745 8.44252C14.7284 8.27566 14.5525 8.16023 14.3632 8.10705C14.1647 8.03934 13.9574 8.02888 13.7556 8.07641C13.6009 8.0595 13.4465 8.06855 13.2926 8.07756C13.2617 8.07937 13.2309 8.08118 13.2 8.08277C12.9747 8.06111 12.7485 8.05991 12.523 8.07919C12.4033 8.08523 12.4104 8.21254 12.4172 8.33239C12.4198 8.37831 12.4223 8.42314 12.4176 8.45964C12.4176 8.52083 12.4169 8.58547 12.4162 8.65085C12.4152 8.753 12.414 8.85694 12.4155 8.9523C12.4016 9.5747 12.4098 10.2015 12.4192 10.8259C12.4135 11.152 12.4135 11.4777 12.4135 11.8031C12.4135 12.1285 12.4135 12.4535 12.4079 12.7782C12.4146 12.933 12.5291 12.9398 12.62 12.9199H12.6697C12.756 12.9315 12.8408 12.9273 12.9256 12.9232C13.0213 12.9186 13.1169 12.9139 13.2149 12.9318C13.3605 12.9081 13.3429 12.584 13.3275 12.3005C13.3194 12.1516 13.312 12.014 13.3291 11.9369C13.2989 11.6319 13.3814 11.6368 13.5469 11.6467C13.5643 11.6477 13.5825 11.6488 13.6017 11.6496C13.7583 11.6429 13.9152 11.6441 14.073 11.6496C14.1161 11.7813 14.1608 11.9108 14.2054 12.0399C14.2784 12.2515 14.3512 12.4621 14.4159 12.6803C14.4462 12.8144 14.4986 12.9664 14.6219 12.9163C14.6758 12.9127 14.7332 12.9163 14.7911 12.92C14.8599 12.9244 14.9293 12.9289 14.9942 12.9211L15.0463 12.9231C15.3753 12.9361 15.5123 12.9416 15.3028 12.4336C15.2446 12.2591 15.1922 12.0827 15.1399 11.9066C15.0977 11.7646 15.0555 11.6228 15.0105 11.4825C15.0042 11.4479 14.9887 11.4122 14.9731 11.3761C14.964 11.3553 14.9549 11.3343 14.9475 11.3134ZM13.3273 10.2584C13.2945 10.449 13.4303 10.4669 13.5417 10.4534C13.6261 10.4607 13.7108 10.4587 13.7949 10.4474L13.8134 10.4482C13.9994 10.4558 14.2166 10.4647 14.3523 10.2783C14.5322 9.99494 14.485 9.43422 14.1933 9.30568C14.0549 9.2628 13.9141 9.26335 13.7729 9.2639C13.6965 9.26419 13.62 9.26449 13.5435 9.25793C13.3152 9.25167 13.3183 9.33426 13.3267 9.56298L13.3288 9.62166C13.3223 9.76583 13.324 9.91302 13.3257 10.0595C13.3265 10.126 13.3273 10.1925 13.3273 10.2584ZM15.0299 11.5979C15.0217 11.5607 15.0109 11.5246 14.9975 11.49C14.9905 11.4603 14.981 11.4316 14.9693 11.4045C14.9832 11.4578 15.0029 11.5211 15.0299 11.5979ZM14.9778 11.0933C15.006 11.0563 15.0323 11.0181 15.0572 10.9771C15.0461 10.9936 15.0355 11.0086 15.0255 11.0225L15.0187 11.032C15.0032 11.0538 14.9893 11.0731 14.9778 11.0921V11.0933ZM14.0742 11.6401H14.0657V11.6413C14.0695 11.6429 14.0732 11.645 14.0767 11.6476L14.0742 11.6401Z" fill="black"/>
</svg>
