<svg role="img" viewBox="0 0 24 24" xmlns="http://www.w3.org/2000/svg"><title>Pinia</title><path d="M13.277.002c-.079-.01-.193.024-.31.09a2.346 2.346 0 0 0-.415.311c-.301.274-.65.68-.985 1.176-.672.99-1.31 2.356-1.485 3.785-.12.977-.154 1.849-.074 2.578a5.878 5.878 0 0 1 1.956-.338c.922 0 1.804.218 2.618.613.197-.637.34-1.395.445-2.246.175-1.429-.1-2.907-.499-4.028a6.695 6.695 0 0 0-.653-1.378 2.296 2.296 0 0 0-.321-.401c-.097-.092-.199-.153-.277-.162zm-6.81 2.965a.603.603 0 0 0-.288.117l-.013.011a.863.863 0 0 0-.177.327c-.051.15-.094.344-.126.565a8.205 8.205 0 0 0-.044 1.637c.08 1.222.397 2.665 1.079 3.769.093.15.193.296.294.442.726-.776 1.567-1.385 2.488-1.768-.1-.79-.06-1.714.066-2.744.038-.31.1-.616.176-.916a6.45 6.45 0 0 0-1.692-1.08 4.575 4.575 0 0 0-1.29-.366 1.805 1.805 0 0 0-.474.006zm11.751 1.789c-.21.003-.442.022-.687.06a5.974 5.974 0 0 0-2.132.76c-.009.146-.019.291-.036.437-.11.888-.258 1.684-.475 2.364.848.468 1.614 1.13 2.267 1.94.823-.85 1.43-2.05 1.787-3.13.187-.57.304-1.1.35-1.514.022-.207.027-.38.017-.51-.01-.133-.042-.206-.04-.202a.35.35 0 0 0-.114-.072 1.516 1.516 0 0 0-.375-.1 3.42 3.42 0 0 0-.562-.033zm-6.254 3.139c-2.014 0-3.83 1.087-5.147 2.834-1.316 1.748-2.131 4.16-2.131 6.807 0 2.65.806 4.258 2.131 5.218C8.132 23.707 9.96 24 11.964 24c2.004 0 3.831-.293 5.147-1.246 1.326-.96 2.133-2.568 2.133-5.218 0-2.647-.816-5.059-2.133-6.806-1.317-1.748-3.134-2.835-5.147-2.835Zm-3.297 5.209a1.282 1.282 0 0 1 .292 2.518c.115.094.177.201.164.307-.032.265-.521.424-1.09.354-.571-.07-1.007-.342-.974-.607.024-.198.302-.336.678-.364a1.282 1.282 0 0 1 .93-2.208zm6.284.22a1.282 1.282 0 0 1 .726 2.303c.437.058.757.244.757.466 0 .267-.466.483-1.04.483-.574 0-1.04-.216-1.04-.483 0-.098.063-.189.17-.265a1.282 1.282 0 0 1 .427-2.505zm-6.318.215a.822.822 0 1 0 .028 1.645.822.822 0 0 0-.028-1.645zm6.284.22a.822.822 0 1 0 .027 1.644.822.822 0 0 0-.027-1.644zm-6.543.109a.338.338 0 1 1-.023.677.338.338 0 0 1 .023-.677zm6.284.22a.339.339 0 1 1-.018 0h.018zm-3.91 1.179c.17.252.432.404.808.447.372.043.694-.05.976-.28a.145.145 0 1 1 .183.226c-.344.28-.745.394-1.192.343-.445-.051-.79-.24-1.016-.574a.145.145 0 1 1 .24-.162z"/></svg>