<svg viewBox="0 0 16 16" xmlns="http://www.w3.org/2000/svg" fill-rule="evenodd" clip-rule="evenodd" stroke-linejoin="round" stroke-miterlimit="1.414"><path d="M8 0C3.582 0 0 3.582 0 8c0 3.39 2.108 6.285 5.084 7.45-.07-.633-.133-1.604.028-2.295.146-.625.938-3.977.938-3.977s-.24-.48-.24-1.188c0-1.11.646-1.943 1.448-1.943.683 0 1.012.513 1.012 1.127 0 .687-.436 1.713-.662 2.664-.19.797.4 1.445 1.185 1.445 1.42 0 2.514-1.498 2.514-3.662 0-1.915-1.376-3.254-3.342-3.254-2.276 0-3.61 1.707-3.61 3.472 0 .687.263 1.424.593 1.825.066.08.075.15.057.23-.06.252-.196.796-.223.907-.035.146-.115.178-.268.107-.998-.465-1.624-1.926-1.624-3.1 0-2.524 1.834-4.84 5.287-4.84 2.774 0 4.932 1.977 4.932 4.62 0 2.757-1.74 4.977-4.153 4.977-.81 0-1.572-.422-1.833-.92l-.5 1.902c-.18.695-.667 1.566-.994 2.097.75.232 1.545.357 2.37.357 4.417 0 8-3.582 8-8s-3.583-8-8-8z" fill-rule="nonzero"/></svg>