<svg role="img" viewBox="0 0 24 24" xmlns="http://www.w3.org/2000/svg"><title>Pipecat</title><path d="M3.309 5.056a.86.86 0 0 1 .958.242l3.102 3.567h9.262l3.102-3.567a.86.86 0 0 1 .958-.242.875.875 0 0 1 .562.819v7.875H24v1.75h-4.482V8.2l-1.842 2.117a.86.86 0 0 1-.652.298H6.976a.86.86 0 0 1-.652-.298L4.482 8.199v7.3H0v-1.75h2.747V5.876c0-.364.224-.69.562-.819M19.518 17.25H24V19h-4.482zM0 17.25h4.482V19H0zm9.253-2.917c0 .645-.518 1.167-1.157 1.167a1.16 1.16 0 0 1-1.156-1.167c0-.644.518-1.166 1.156-1.166.64 0 1.157.522 1.157 1.166m7.807 0c0 .645-.518 1.167-1.156 1.167a1.16 1.16 0 0 1-1.157-1.167c0-.644.518-1.166 1.157-1.166.638 0 1.156.522 1.156 1.166"/></svg>