<svg role="img" viewBox="0 0 24 24" xmlns="http://www.w3.org/2000/svg"><title>Piped</title><path d="M.02.79S.37.63.98.42c.34-.09.77-.19 1.27-.27A19.8 19.8 0 0 1 3.93 0c.61 0 1.22.02 1.79.07.57.07 1.1.16 1.55.26.86.25 1.4.46 1.4.46v22H.02v-22ZM4.35 24C1.95 24 0 23.51 0 22.91s1.94-1.09 4.35-1.09 4.35.49 4.35 1.09S6.76 24 4.35 24Zm7.09-19.23v-.65c0-.17-.02-.35-.03-.54L11.38 3v-.7c.01-.27.03-.56.05-.83.07-.62.13-1.11.13-1.11s.69-.04 1.85-.04c.28.01.59.03.92.05.33.03.68.06 1.05.1.35.06.72.13 1.1.21.38.08.77.18 1.17.28.38.13.76.27 1.14.43.38.16.76.33 1.14.52.35.2.7.42 1.04.65.32.24.63.49.93.76.28.27.54.56.79.86.23.3.44.62.62.94.17.33.31.66.43 1 .1.34.18.68.23 1.03.03.34.03.69.01 1.03-.04.34-.11.67-.21 1-.12.33-.26.64-.42.95-.19.3-.4.59-.63.88-.25.27-.52.53-.81.78-.31.24-.64.46-.97.67-.37.2-.75.38-1.13.54-.38.17-.77.32-1.16.45-.42.12-.84.22-1.25.31-.41.09-.82.17-1.21.24-.42.05-.81.09-1.19.13-.38.03-.73.06-1.06.08-.69.01-1.24.01-1.62.01h-.58s.02-.28.03-.68c0-.19.02-.41.02-.63v-.74c0-.27-.01-.56-.02-.84-.02-.31-.04-.62-.06-.9-.06-.63-.1-1.1-.1-1.1s.33.01.88.01c.26 0 .57-.02.92-.05.33-.04.68-.09 1.04-.15.34-.08.68-.18 1-.3.15-.06.3-.13.44-.2.13-.08.26-.16.38-.24.11-.09.22-.18.31-.27.09-.1.16-.2.23-.3.06-.1.1-.21.14-.32a1.242 1.242 0 0 0-.01-.66c-.04-.11-.09-.22-.15-.32a2.34 2.34 0 0 0-.24-.31c-.1-.1-.21-.19-.32-.29-.13-.09-.26-.18-.4-.26-.15-.08-.3-.15-.46-.23-.34-.13-.69-.25-1.03-.34-.37-.09-.73-.15-1.07-.21-.35-.04-.67-.07-.95-.1-.57-.03-.91-.03-.91-.03Zm.3.04c-1.06 0-1.92-1-1.92-2.24S10.68.33 11.74.33s1.92 1 1.92 2.24-.86 2.24-1.92 2.24Zm.07 9.42c-1.06 0-1.92-1.1-1.92-2.46s.86-2.46 1.92-2.46 1.92 1.1 1.92 2.46-.86 2.46-1.92 2.46Z"/></svg>