<svg role="img" viewport="0 0 24 24" xmlns="http://www.w3.org/2000/svg"><title>Piwigo icon</title><path d="M16.71 12.78A4.71 4.71 0 0112 17.49a4.71 4.71 0 01-4.71-4.71A4.71 4.71 0 0112 8.06a4.71 4.71 0 014.71 4.72zM19.11 0c-2.57.06-2.36 1.54-8.24 1.55H6.72A5.95 5.95 0 00.78 7.5v10.55A5.95 5.95 0 006.72 24h10.56a5.95 5.95 0 005.94-5.95V4.06v-.04A4.09 4.09 0 0019.12 0zm.1 2.54a1.4 1.4 0 011.4 1.42 1.4 1.4 0 01-1.4 1.4 1.4 1.4 0 01-1.42-1.4 1.4 1.4 0 011.41-1.42zM12 6.12a6.66 6.66 0 016.66 6.66A6.66 6.66 0 0112 19.43a6.66 6.66 0 01-6.66-6.65A6.66 6.66 0 0112 6.12z"/></svg>
