<svg role="img" viewBox="0 0 24 24" xmlns="http://www.w3.org/2000/svg"><title>Piwigo icon</title><path d="M16.7118 12.7775A4.7128 4.7128 0 0112 17.4903a4.7128 4.7128 0 01-4.7128-4.7128A4.7128 4.7128 0 0112 8.0657a4.7128 4.7128 0 014.7118 4.7118zM19.1117.001c-2.5719.058-2.3579 1.544-8.2367 1.555H6.7252A5.9468 5.9468 0 00.7775 7.5026v10.5495A5.9468 5.9468 0 006.7252 24h10.5496a5.9468 5.9468 0 005.9477-5.9468V4.0808l-.008-.018c0-.014.004-.028.004-.043C23.2185 1.793 21.3386 0 19.1107 0zm.09 2.5449a1.409 1.409 0 011.407 1.41 1.409 1.409 0 01-1.408 1.4079 1.409 1.409 0 01-1.41-1.408 1.409 1.409 0 011.41-1.41zM12 6.1207a6.6557 6.6557 0 016.6557 6.6558A6.6557 6.6557 0 0112 19.4342a6.6557 6.6557 0 01-6.6557-6.6567A6.6557 6.6557 0 0112 6.1217z"/></svg>