<svg role="img" viewBox="0 0 24 24" xmlns="http://www.w3.org/2000/svg"><title>Pixabay</title><path d="M0 2C0 .8954.8954 0 2 0h20c1.1046 0 2 .8954 2 2v20c0 1.1046-.8954 2-2 2H2c-1.1046 0-2-.8954-2-2Zm3.8592 4.8752c.8732-.8807 1.9695-1.3376 3.2889-1.3707v.0001c1.3203.0332 2.4201.49 3.2994 1.3707.8793.8807 1.3358 1.9863 1.3696 3.317-.0338 1.3315-.4903 2.4406-1.3696 3.3274s-1.9792 1.3472-3.2994 1.3812H4.3468v3.7669H2.5v-8.4757c.0328-1.3306.486-2.4363 1.3592-3.317Zm.4876 3.317v2.8462H7.148c.8075-.0192 1.475-.2947 2.0025-.8267.5273-.5319.8006-1.205.8196-2.0194-.019-.8044-.2923-1.4715-.8196-2.0012-.5275-.5297-1.195-.8044-2.0025-.824-.7976.0196-1.459.2943-1.9843.824-.5252.5298-.7975 1.1968-.817 2.0012Zm12.287 1.648 2.3946 3.0648h2.6383l-3.9096-4.8123L21.3358 5.5h-2.4816L16.66 8.3716 14.692 5.5h-2.499l3.2914 4.5927-3.5788 4.8123h2.5774z"/></svg>