<svg role="img" viewBox="0 0 24 24" xmlns="http://www.w3.org/2000/svg"><title>pkgsrc</title><path d="M8.463 1.18A1275.222 1275.222 0 0 1 1.93 3.927l-.738.306.562.237c.305.124.726.271.914.317.199.045 1.194.407 2.225.802 1.03.407 2.4.905 3.044 1.131.644.215 1.78.633 2.518.927.738.294 1.64.622 2.003.735.76.237.69.26 2.927-1.018.691-.395 1.312-.723 1.358-.723.059 0 .48-.226.937-.498a48.487 48.487 0 0 1 1.98-1.085 66.23 66.23 0 0 0 1.896-1.04c.398-.238.797-.43.867-.43.328 0-.152-.203-1.253-.531-.644-.192-1.956-.588-2.928-.882-.96-.294-2.435-.724-3.279-.961a85.89 85.89 0 0 1-2.576-.78c-.574-.192-1.136-.34-1.23-.34-.093 0-1.31.487-2.693 1.086zM19.295 8.224c-2.447 1.436-4.461 2.657-4.473 2.736-.059.26-.386 12.685-.34 12.72.024.022.352-.193.726-.476.387-.282 1.171-.87 1.745-1.3.586-.418 1.16-.87 1.288-.983a15.9 15.9 0 0 1 .879-.656c.35-.238.737-.52.843-.633.105-.102.702-.566 1.323-1.018.62-.463 1.23-.916 1.347-1.006.234-.181.316-.916.936-7.971.141-1.492.27-3.007.317-3.37.035-.35.023-.644-.035-.632-.059 0-2.108 1.164-4.556 2.589zM.102 7.06c.14 1.752.656 7.473.75 8.23.058.498.14 1.425.187 2.058l.082 1.164 1.007.532c.55.282 1.534.791 2.178 1.108.644.328 2.143 1.085 3.338 1.696 1.194.622 2.6 1.334 3.138 1.594l.96.463V11.106l-.679-.27c-.878-.351-4.696-1.855-7.342-2.895-1.16-.452-2.436-.95-2.834-1.12-.398-.158-.75-.293-.773-.293-.023 0-.023.237-.012.531z"/></svg>