<svg role="img" viewBox="0 0 24 24" xmlns="http://www.w3.org/2000/svg"><title>pkgsrc</title><path d="M8.638 1.12a1316.232 1316.232 0 0 1-6.745 2.836l-.761.315.58.245c.314.129.75.28.943.327.205.047 1.233.42 2.296.829 1.064.42 2.478.933 3.143 1.166a59.06 59.06 0 0 1 2.599.957c.761.304 1.692.642 2.066.759.786.245.714.268 3.022-1.05.713-.409 1.354-.747 1.402-.747.06 0 .496-.234.967-.514.472-.28 1.39-.782 2.043-1.12a68.36 68.36 0 0 0 1.958-1.074c.41-.245.822-.443.894-.443.339 0-.157-.21-1.293-.549-.665-.198-2.018-.606-3.022-.91-.99-.303-2.514-.747-3.384-.992A88.651 88.651 0 0 1 12.687.35C12.095.152 11.515 0 11.417 0c-.096 0-1.353.502-2.78 1.12zM19.818 8.39c-2.526 1.483-4.605 2.743-4.617 2.825-.06.268-.399 13.093-.35 13.128.024.023.362-.198.749-.49.399-.292 1.209-.899 1.8-1.342a24.479 24.479 0 0 0 1.33-1.015c.133-.117.544-.42.907-.677.362-.245.761-.537.87-.654.109-.105.725-.583 1.366-1.05.64-.478 1.269-.945 1.39-1.039.242-.186.326-.945.967-8.227.145-1.54.278-3.104.326-3.477.036-.362.024-.665-.036-.654-.06 0-2.176 1.202-4.702 2.673zM.008 7.189c.145 1.808.677 7.713.773 8.495.06.514.146 1.47.194 2.124l.084 1.202 1.04.549c.568.291 1.583.816 2.248 1.143.665.339 2.212 1.12 3.445 1.75a162.44 162.44 0 0 0 3.24 1.646l.99.479V11.366l-.7-.28c-.907-.361-4.848-1.914-7.58-2.987-1.196-.467-2.513-.98-2.924-1.155C.407 6.78.044 6.64.02 6.64c-.024 0-.024.245-.012.549z"/></svg>