<svg role="img" viewBox="0 0 24 24" xmlns="http://www.w3.org/2000/svg"><title>Plane</title><path d="M0 5.358a.854.854 0 0 1 1.235-.767L6.134 7.05v5.768c0 .81.456 1.553 1.179 1.915l4.42 2.218v1.692a.853.853 0 0 1-1.235.766L1.18 14.732A2.14 2.14 0 0 1 0 12.817zm6.134 0a.853.853 0 0 1 1.235-.766l4.898 2.458v5.768c0 .81.457 1.552 1.18 1.915l4.42 2.218v1.692a.853.853 0 0 1-1.235.765l-4.899-2.457v-5.769a2.14 2.14 0 0 0-1.179-1.914L6.134 7.05zm6.133 0a.853.853 0 0 1 1.235-.766l9.319 4.676A2.14 2.14 0 0 1 24 11.182v7.46a.853.853 0 0 1-1.235.766l-4.899-2.457v-5.769a2.14 2.14 0 0 0-1.179-1.914l-4.42-2.218z"/></svg>