<svg role="img" viewBox="0 0 24 24" xmlns="http://www.w3.org/2000/svg"><title>Plane</title><path d="M0 5.321a.856.856 0 0 1 1.242-.771l4.928 2.471v5.804c0 .815.46 1.559 1.185 1.925l4.445 2.227v1.701a.856.856 0 0 1-1.241.77L1.185 16.973A2.176 2.176 0 0 1 0 15.048zm6.171 0a.856.856 0 0 1 1.242-.771l4.928 2.471v5.804c0 .815.46 1.559 1.185 1.925l4.445 2.227v1.701a.856.856 0 0 1-1.241.77l-4.928-2.471v-5.804a2.176 2.176 0 0 0-1.185-1.925L6.171 7.021zm6.171 0a.856.856 0 0 1 1.242-.771l9.363 4.692A2.176 2.176 0 0 1 23.999 11.168v7.507a.856.856 0 0 1-1.241.77l-4.928-2.471v-5.804a2.176 2.176 0 0 0-1.185-1.925l-4.443-2.226V5.321Z"/></svg>