<svg role="img" viewBox="0 0 24 24" xmlns="http://www.w3.org/2000/svg"><title>PlatformIO icon</title><path d="m 12.2058 17.34 c -1.5499 -2.5187 -0.8718 -8.2341 3.1968 -9.009 c 1.0656 -0.1937 2.4218 0.5812 2.9061 2.1312 c 0.9687 3.3905 -4.9404 8.2341 -6.006 6.8779 z m -4.6498 0 c -1.0656 1.3562 -7.0716 -3.4874 -6.006 -6.8779 c 0.3875 -1.6468 1.7437 -2.3249 2.9061 -2.1312 c 4.0686 0.8718 4.7467 6.5873 3.1968 9.009 z m 7.2654 -14.5307 c 0.8718 -0.0969 1.4531 -0.9687 1.1625 -1.8406 c -0.3875 -0.9687 -1.7437 -1.1625 -2.3249 -0.3875 c -0.5812 0.6781 -0.2906 1.6468 0.3875 2.0343 l -0.6781 2.4218 c -2.7124 -0.5812 -4.553 -0.5812 -7.0716 0.0969 l -0.6781 -2.5187 c 0.775 -0.4844 0.8718 -1.5499 0.1937 -2.228 c -0.775 -0.6781 -2.0343 -0.2906 -2.228 0.775 c -0.1937 0.8718 0.4844 1.6468 1.3562 1.6468 l 0.6781 2.5187 c -2.6155 0.8718 -5.4248 2.8093 -5.4248 6.8779 c 0.0969 6.006 7.9435 11.334 9.784 11.334 c 1.8406 0 9.784 -5.5217 9.784 -11.334 c 0 -4.2623 -2.8093 -6.1029 -5.4248 -6.9747 z m -8.5247 10.559 c 0 -0.9687 -1.0656 -1.5499 -1.8406 -1.0656 c -0.8718 0.4844 -0.8718 1.6468 0 2.1312 c 0.8718 0.4844 1.8406 -0.0969 1.8406 -1.0656 z m 9.5903 0 c 0 -0.9687 -1.0656 -1.5499 -1.8406 -1.0656 c -0.8718 0.4844 -0.8718 1.6468 0 2.1312 c 0.8718 0.4844 1.8406 -0.0969 1.8406 -1.0656 z m 0 0"/></svg>