<svg role="img" viewBox="0 0 24 24" xmlns="http://www.w3.org/2000/svg"><title>PlatformIO icon</title><path d="m 14.0442 17.106 c -1.3949 -2.2668 -0.7846 -7.4107 2.8771 -8.1081 c 0.959 -0.1743 2.1796 0.5231 2.6155 1.9181 c 0.8718 3.0514 -4.4464 7.4107 -5.4054 6.1901 z m -4.1848 0 c -0.959 1.2206 -6.3644 -3.1387 -5.4054 -6.1901 c 0.3488 -1.4821 1.5693 -2.0924 2.6155 -1.9181 c 3.6617 0.7846 4.272 5.9286 2.8771 8.1081 z m 6.5389 -13.0776 c 0.7846 -0.0872 1.3078 -0.8718 1.0463 -1.6565 c -0.3488 -0.8718 -1.5693 -1.0463 -2.0924 -0.3488 c -0.5231 0.6103 -0.2615 1.4821 0.3488 1.8309 l -0.6103 2.1796 c -2.4412 -0.5231 -4.0977 -0.5231 -6.3644 0.0872 l -0.6103 -2.2668 c 0.6975 -0.436 0.7846 -1.3949 0.1743 -2.0052 c -0.6975 -0.6103 -1.8309 -0.2615 -2.0052 0.6975 c -0.1743 0.7846 0.436 1.4821 1.2206 1.4821 l 0.6103 2.2668 c -2.354 0.7846 -4.8823 2.5284 -4.8823 6.1901 c 0.0872 5.4054 7.1492 10.2006 8.8056 10.2006 c 1.6565 0 8.8056 -4.9695 8.8056 -10.2006 c 0 -3.8361 -2.5284 -5.4926 -4.8823 -6.2772 z m -7.6722 9.5031 c 0 -0.8718 -0.959 -1.3949 -1.6565 -0.959 c -0.7846 0.436 -0.7846 1.4821 0 1.9181 c 0.7846 0.436 1.6565 -0.0872 1.6565 -0.959 z m 8.6313 0 c 0 -0.8718 -0.959 -1.3949 -1.6565 -0.959 c -0.7846 0.436 -0.7846 1.4821 0 1.9181 c 0.7846 0.436 1.6565 -0.0872 1.6565 -0.959 z m 6.6426 10.4685 L 12 24 C -4 24 -4 0 12 0 C 28 0 28 24 12 24"/></svg>