<svg role="img" xmlns="http://www.w3.org/2000/svg" xmlns:xlink="http://www.w3.org/1999/xlink" aria-hidden="true" focusable="false" style="-ms-transform: rotate(360deg); -webkit-transform: rotate(360deg); transform: rotate(360deg);" preserveAspectRatio="xMidYMid meet" viewBox="0 0 24 24"><path d="M265.405 376.633c-33.654-53.758-19.427-178.887 68.491-196.773c24.106-3.861 53.62 11.976 62.316 47.16c21.961 74.641-107.232 179.159-130.807 149.613zm-100.71 0C141.12 406.18 11.927 301.661 33.888 227.02c8.697-35.183 38.21-51.02 62.316-47.159c87.918 17.886 102.145 143.015 68.491 196.773zM321.966 59.845c19.065-1.796 32.57-22.007 25.03-40.983c-8.466-21.306-37.014-25.488-51.264-7.51c-11.696 14.758-6.665 35.61 8.091 44.39l-14.675 52.88c-58.375-13.653-98.876-12.645-154.566 1.232L120.024 55.1c16.33-10.274 19.127-34.355 3.623-47.807c-17.317-15.024-44.59-5.607-48.973 16.91c-3.712 19.068 11.314 35.526 29.185 35.574l14.581 54.91C61.635 133.549 0 174.777 0 264.984c1.263 130.349 172.49 246.945 211.996 247.014c39.439 0 212.006-119.153 212.429-247.014c0-91.612-60.902-132.75-117.484-151.21l15.025-53.928zm-184.562 229.7c0-20.882-22.762-34.005-40.874-23.563c-18.11 10.44-18.11 36.686 0 47.127s40.874-2.68 40.874-23.564zm208.001 0c0-20.882-22.762-34.005-40.873-23.563c-18.111 10.44-18.111 36.686 0 47.127c18.111 10.442 40.873-2.68 40.873-23.564z" fill="black"/></svg>