<svg viewBox="0 0 16 16" xmlns="http://www.w3.org/2000/svg" fill-rule="evenodd" clip-rule="evenodd" stroke-linejoin="round" stroke-miterlimit="1.414"><path d="M4.993 5.773H4.99v4.607h.003v.03H9.19c1.25 0 2.262-1.044 2.262-2.332 0-1.288-1.012-2.33-2.26-2.33h-4.2v.025zm4.33-.767V4.99H4.21v9.17C2.142 12.886.765 10.603.765 7.998c0-3.994 3.24-7.232 7.233-7.232 3.995 0 7.232 3.238 7.232 7.232 0 3.995-3.237 7.232-7.232 7.232-1.073 0-2.09-.233-3.007-.653v-3.415h4.34v-.013c1.61-.01 2.92-1.38 2.92-3.08S10.94 5 9.33 5zM8 16c4.418 0 8-3.582 8-8s-3.582-8-8-8-8 3.582-8 8 3.582 8 8 8z"/></svg>