<svg role="img" viewBox="0 0 24 24" xmlns="http://www.w3.org/2000/svg"><title>Playwright</title><path d="M16.58 6.655c2.6.697 4.705.505 5.582.352.17-.03.329-.061.477-.09.933-.181 1.411-.274 1.357.545-.056.837-.257 2.135-.716 3.85-.995 3.714-4.269 10.874-10.419 9.226-1.682-.451-2.848-1.364-3.635-2.528a5.5 5.5 0 0 1-.657.22c-4.748 1.279-7.26-4.224-8.02-7.08C.197 9.831.043 8.833.003 8.189c-.041-.63.328-.56 1.046-.424.114.022.237.045.369.068.677.117 2.3.261 4.307-.28a11.105 11.105 0 0 0 3.042-1.325c.354-1.146.7-2.005.986-2.584.361-.736.728-.417 1.444.205.115.1.238.206.371.318.684.573 2.41 1.791 5.012 2.488Zm-8.757 6.828c-.046.011-.092.024-.139.037-2.292.65-2.617 2.537-2.617 2.537l3.005-.852a12.19 12.19 0 0 1-.249-1.722Zm4.593-4.444c-1.644-.467-2.614 1.04-2.614 1.04h.001l4.386 1.246s-.127-1.819-1.773-2.286Zm-1.938 4.653s.446 2.306 3.338 3.153h.001c2.862.836 4.43-.981 4.43-.981l-7.769-2.172Zm8.697-2.624c-1.644-.469-2.612 1.037-2.612 1.037l4.385 1.25s-.129-1.819-1.773-2.287Zm-13.431-.769-3.374.889s.745 1.076 2.011.743c1.265-.333 1.363-1.632 1.363-1.632Z"/></svg>
