<svg viewBox="0 0 24 24" xmlns="http://www.w3.org/2000/svg" fill-rule="evenodd" clip-rule="evenodd" stroke-linejoin="round" stroke-miterlimit="1.414"><path d="M7.49 8.66h-.005v6.91h.005v.045h6.295c1.875 0 3.393-1.566 3.393-3.498 0-1.932-1.518-3.495-3.39-3.495h-6.3v.038zm6.495-1.151v-.024h-7.67V21.24a10.84 10.84 0 0 1-5.168-9.243c0-5.991 4.86-10.848 10.85-10.848 5.992 0 10.848 4.857 10.848 10.848 0 5.992-4.856 10.848-10.848 10.848-1.61 0-3.135-.35-4.51-.98v-5.122h6.51v-.02c2.414-.015 4.38-2.07 4.38-4.62S16.41 7.5 13.994 7.5zM12 24c6.627 0 12-5.373 12-12S18.627 0 12 0 0 5.373 0 12s5.373 12 12 12z"/></svg>