<svg role="img" viewBox="0 0 24 24" xmlns="http://www.w3.org/2000/svg"><title>plotly icon</title><path d="M22.1 0H2C.9 0 0 .9 0 2v20c0 1.1.8 2 1.9 2h20.2c1.1 0 1.9-.9 1.9-2V2c.1-1.1-.8-2-1.9-2zm-4.5 5.3c0-.1.1-.1.1-.1 0-.1 0-.2.1-.3.1-.2.2-.2.4-.2h.3c.2-.2.4-.1.6 0 0 .2.1.3.3.4.1.1.1.1.1.2.2.4.2.8-.2 1.2-.2.2-.4.3-.6.3-.1 0-.1.1-.1.1-.4.2-.9-.2-1-.7-.1-.3-.2-.7 0-.9zM9 5.3c0-.1.1-.1.1-.1 0-.1 0-.2.1-.3.1-.2.2-.2.4-.2h.3c.2-.2.4-.1.6 0s.3.2.4.4c.1.1.1.1.1.2.2.4.2.8-.2 1.2-.2.2-.4.3-.6.3-.1 0-.1.1-.1.1-.5 0-1-.3-1.1-.8-.2-.2-.2-.6 0-.8zm-4.6.5c.1-.2.2-.5.4-.6 0 0 0-.1.1-.1.2-.4.7-.4 1.1-.1.1 0 .2.1.2.2 0 0 .1 0 .1.1.4.3.3.7.1 1-.2.2-.5.5-1 .5-.3 0-.6-.1-.8-.3-.2-.1-.4-.3-.3-.6l.1-.1zm-.1 4.1c0-.1.1-.1.1-.1.1-.2.2-.5.4-.6 0 0 0-.1.1-.1.2-.4.7-.4 1.1-.2l.2.2s.1 0 .1.1c.4.3.3.7.1 1-.2.3-.5.6-.9.6-.3 0-.6-.1-.8-.3-.3-.1-.4-.3-.4-.6zm2.4 8.4c0 .6-.5 1.1-1.1 1.1s-1.1-.5-1.1-1.1V14c0-.6.5-1.1 1.1-1.1s1.1.5 1.1 1.1v4.3zm4.2 0c0 .6-.5 1.1-1.1 1.1-.6 0-1.1-.5-1.1-1.1V9.7c0-.6.5-1.1 1.1-1.1.6 0 1.1.5 1.1 1.1v8.6zm4.4 0c0 .6-.5 1.1-1.1 1.1-.6 0-1.1-.5-1.1-1.1V14c0-.6.5-1.1 1.1-1.1.6 0 1.1.5 1.1 1.1v4.3zm-.1-8.1c-.2.3-.5.6-.9.6-.3 0-.6-.1-.8-.3-.2-.2-.4-.4-.3-.6 0-.1.1-.1.1-.1.1-.2.2-.5.4-.6 0 0 0-.1.1-.1.3-.4.8-.4 1.2-.2 0 .1 0 .2.1.3 0 0 .1 0 .1.1.3.1.2.6 0 .9zm0-3.9c-.2.3-.5.6-.9.6-.3 0-.6-.1-.8-.3-.2-.2-.4-.4-.3-.6 0-.1.1-.1.1-.1.1-.2.2-.5.4-.6 0 0 0-.1.1-.1.2-.5.7-.5 1.2-.2l.2.2s.1 0 .1.1c.2.2.1.7-.1 1zm4.3 12c0 .6-.5 1.1-1.1 1.1-.6 0-1.1-.5-1.1-1.1V9.7c0-.6.5-1.1 1.1-1.1.6 0 1.1.5 1.1 1.1v8.6z"/></svg>