<svg role="img" viewBox="0 0 24 24" xmlns="http://www.w3.org/2000/svg"><title>plotly icon</title><path d="M10.6 11v-.1H10.3v.1c.1-.1.2-.1.3 0zM17.8 12.4c.1 0 .1.1.2.1-.1-.1-.2-.3-.3-.5-.1-.3-.2-.5-.3-.8v.3c0 .2.1.6.4.9zM27.1 18.4h-.2v.1c.1-.1.3-.1.3.1v-.1s-.1 0-.1-.1zM26.7 19.8c.1.1.3 0 .4 0l-.1-.1c-.1.1-.2.1-.3.1zM20 12c.2-.3.3-.7.3-1 0 .2-.1.4-.2.5 0 .1 0 .2-.1.2 0 0 0 .1-.1.1-.1.2-.2.4-.3.5.2.1.3-.1.4-.3zM18.9 10.5s-.1-.1 0 0c-.1 0-.1-.1-.1-.1v.6c.1-.1.1-.4.1-.5zM11.1 11.5l.1.1v-.3c-.1.1-.1.2-.1.2zM11.1 19.1s0 .1.1.1v-.3c-.1.1-.1.1-.1.2zM10.6 18.6v-.1H10.3v.1c.1-.1.2-.1.3 0zM10.4 19.8c-.1 0-.2.1-.3.1 0 0 .2 0 .3-.1zM10.9 17.8c.1 0 .1.1.2.1.2 0 .3.1.4.2 0-.1-.1-.2-.2-.3-.1.1-.3 0-.4 0zM10.4 12.2c-.1 0-.2.1-.3.1 0 0 .2 0 .3-.1zM9.8 11.2c-.1-.1-.1-.1-.1-.2v.1c.1 0 .1.1.1.1zM10.9 10.3c.1 0 .1.1.2.1.2 0 .3.1.4.2 0-.1-.1-.2-.2-.3-.1 0-.3-.1-.4 0 0-.1 0-.1 0 0zM27.5 10.2c.2.1.2.2.3.2.2 0 .3.1.4.2 0-.1-.1-.2-.2-.3-.1 0-.3-.1-.5-.1zM35 10.5c-.1 0-.1-.1-.1-.1v.6c.1-.1.2-.4.1-.5zM27.7 11.5l.1.1v-.3c0 .1-.1.2-.1.2zM33.9 12.4c.1 0 .1.1.2.1-.1-.1-.2-.3-.3-.5-.1-.3-.2-.5-.3-.8v.3c.1.2.2.6.4.9zM27.7 19.1s0 .1.1.1v-.3c0 .1-.1.1-.1.2zM27.1 10.9s0-.1 0 0h-.2v.1c.1-.1.3-.1.3.1V11c0-.1-.1-.1-.1-.1z"/><path class="st0" d="M41.9 0H3.7C1.6 0 0 1.7 0 3.8v38.4C0 44.3 1.6 46 3.7 46h38.2c2 0 3.7-1.7 3.7-3.8V3.8c0-2.1-1.7-3.8-3.7-3.8zm-8.6 10.1c0-.1.1-.1.2-.2 0-.2 0-.3.1-.5.1-.4.4-.4.7-.3h.5c.3-.3.7-.2 1.1 0 .3.2.5.4.7.7.1.1.2.2.2.3.3.7.3 1.6-.3 2.3-.4.4-.8.6-1.2.5-.1 0-.1.1-.2.1-.8.3-1.7-.4-1.9-1.3-.2-.4-.3-1.2.1-1.6zm-16.2 0c0-.1.1-.1.2-.2 0-.2 0-.3.1-.5.1-.4.4-.4.8-.3h.5c.3-.3.7-.2 1.1 0 .3.2.5.4.7.7.1.1.2.2.2.3.3.7.3 1.6-.3 2.3-.4.4-.8.6-1.2.5-.1 0-.1.1-.2.1-.8.3-1.7-.4-1.9-1.3-.3-.4-.3-1.2 0-1.6zm-8.8 1c.1-.4.3-.9.7-1.2 0 0 0-.1.1-.1.5-.8 1.6-.8 2.3-.3.2.1.3.3.4.4 0 0 .1 0 .1.1.7.5.6 1.3.1 1.9-.3.6-.9 1.1-1.7 1.1-.6 0-1.2-.2-1.6-.5-.4-.3-.7-.7-.6-1.2l.2-.2zm-.2 7.8c0-.1.1-.2.2-.2.1-.4.3-.9.7-1.2 0 0 0-.1.1-.1.5-.8 1.6-.8 2.3-.3.2.1.3.3.4.4 0 0 .1 0 .1.1.7.5.6 1.3.1 1.9-.3.6-.9 1.1-1.7 1.1-.6 0-1.2-.2-1.6-.5-.4-.2-.6-.6-.6-1.2zm4.6 16.2c0 1.1-.9 2.1-2 2.1s-2-.9-2-2.1v-8.2c0-1.1.9-2.1 2-2.1s2 .9 2 2.1v8.2zm8.1 0c0 1.1-.9 2.1-2 2.1s-2-.9-2-2.1V18.6c0-1.1.9-2.1 2-2.1s2 .9 2 2.1v16.5zm8 0c0 1.1-.9 2.1-2 2.1s-2-.9-2-2.1v-8.2c0-1.1.9-2.1 2-2.1s2 .9 2 2.1v8.2zm-.1-15.5c-.3.6-.9 1.1-1.7 1.1-.6 0-1.2-.2-1.6-.5-.4-.3-.7-.7-.6-1.2 0-.1.1-.2.2-.2.1-.4.3-.9.7-1.2 0 0 0-.1.1-.1.5-.8 1.6-.8 2.3-.3.2.1.3.3.4.4 0 0 .1 0 .1.1.6.4.5 1.3.1 1.9zm0-7.6c-.3.6-.9 1.1-1.7 1.1-.6 0-1.2-.2-1.6-.5-.4-.3-.7-.7-.6-1.2 0-.1.1-.2.2-.2.1-.4.3-.9.7-1.1 0 0 0-.1.1-.1.3-1 1.4-.9 2.2-.4.2.1.3.3.4.4 0 0 .1 0 .1.1.7.5.6 1.3.2 1.9zm8.2 23.1c0 1.1-.9 2.1-2 2.1s-2-.9-2-2.1V18.6c0-1.1.9-2.1 2-2.1s2 .9 2 2.1v16.5z"/><path class="st0" d="M27.5 17.7c0 .1 0 .1 0 0 .2.1.2.2.3.2.2 0 .3.1.4.2 0-.1-.1-.2-.2-.3-.1.1-.3 0-.5-.1zM26.7 12.3c.1.1.3 0 .4 0l-.1-.1c-.1 0-.2 0-.3.1zM36.2 12c.2-.3.3-.7.3-1 0 .2-.1.4-.2.5 0 .1 0 .2-.1.2 0 0 0 .1-.1.1-.1.2-.2.4-.3.5.1.1.3-.1.4-.3z"/></svg>