<svg role="img" viewBox="0 0 24 24" xmlns="http://www.w3.org/2000/svg"><title>plotly icon</title><path d="M22.1,0H2C0.9,0,0,0.9,0,2v20c0,1.1,0.8,2,1.9,2h20.2c1.1,0,1.9-0.9,1.9-2V2C24.1,0.9,23.2,0,22.1,0z M17.6,5.3
	C17.6,5.2,17.7,5.2,17.6,5.3c0.1-0.2,0.1-0.3,0.2-0.4c0.1-0.2,0.2-0.2,0.4-0.2h0.3c0.2-0.2,0.4-0.1,0.6,0c0,0.2,0.1,0.3,0.3,0.4
	c0.1,0.1,0.1,0.1,0.1,0.2c0.2,0.4,0.2,0.8-0.2,1.2c-0.2,0.2-0.4,0.3-0.6,0.3c-0.1,0-0.1,0.1-0.1,0.1c-0.4,0.2-0.9-0.2-1-0.7
	C17.5,5.9,17.4,5.5,17.6,5.3z M9,5.3C9,5.2,9.1,5.2,9,5.3C9.1,5.1,9.1,5,9.2,4.9c0.1-0.2,0.2-0.2,0.4-0.2h0.3c0.2-0.2,0.4-0.1,0.6,0
	c0.2,0.1,0.3,0.2,0.4,0.4C11,5.2,11,5.2,11,5.3c0.2,0.4,0.2,0.8-0.2,1.2c-0.2,0.2-0.4,0.3-0.6,0.3c-0.1,0-0.1,0.1-0.1,0.1
	c-0.5,0-1-0.3-1.1-0.8C8.8,5.9,8.8,5.5,9,5.3z M4.4,5.8c0.1-0.2,0.2-0.5,0.4-0.6c0,0,0-0.1,0.1-0.1C5.1,4.7,5.6,4.7,6,5
	c0.1,0,0.2,0.1,0.2,0.2c0,0,0.1,0,0.1,0.1c0.4,0.3,0.3,0.7,0.1,1c-0.2,0.2-0.5,0.5-1,0.5c-0.3,0-0.6-0.1-0.8-0.3
	C4.4,6.4,4.2,6.2,4.4,5.8C4.3,5.9,4.4,5.8,4.4,5.8z M4.3,9.9c0-0.1,0.1-0.1,0.1-0.1c0.1-0.2,0.2-0.5,0.4-0.6c0,0,0-0.1,0.1-0.1
	C5.1,8.7,5.6,8.7,6,8.9l0.2,0.2c0,0,0.1,0,0.1,0.1c0.4,0.3,0.3,0.7,0.1,1c-0.2,0.3-0.5,0.6-0.9,0.6c-0.3,0-0.6-0.1-0.8-0.3
	C4.4,10.4,4.3,10.2,4.3,9.9z M6.7,18.3c0,0.6-0.5,1.1-1.1,1.1s-1.1-0.5-1.1-1.1V14c0-0.6,0.5-1.1,1.1-1.1s1.1,0.5,1.1,1.1V18.3z
	 M10.9,18.3c0,0.6-0.5,1.1-1.1,1.1c-0.6,0-1.1-0.5-1.1-1.1V9.7c0-0.6,0.5-1.1,1.1-1.1c0.6,0,1.1,0.5,1.1,1.1V18.3z M15.3,18.3
	c0,0.6-0.5,1.1-1.1,1.1c-0.6,0-1.1-0.5-1.1-1.1V14c0-0.6,0.5-1.1,1.1-1.1c0.6,0,1.1,0.5,1.1,1.1V18.3z M15.2,10.2
	c-0.2,0.3-0.5,0.6-0.9,0.6c-0.3,0-0.6-0.1-0.8-0.3c-0.2-0.2-0.4-0.4-0.3-0.6c0-0.1,0.1-0.1,0.1-0.1c0.1-0.2,0.2-0.5,0.4-0.6
	c0,0,0-0.1,0.1-0.1c0.3-0.4,0.8-0.4,1.2-0.2c0,0.1,0,0.2,0.1,0.3c0,0,0.1,0,0.1,0.1C15.5,9.4,15.4,9.9,15.2,10.2z M15.2,6.3
	c-0.2,0.3-0.5,0.6-0.9,0.6c-0.3,0-0.6-0.1-0.8-0.3c-0.2-0.2-0.4-0.4-0.3-0.6c0-0.1,0.1-0.1,0.1-0.1c0.1-0.2,0.2-0.5,0.4-0.6
	c0,0,0-0.1,0.1-0.1C14,4.7,14.5,4.7,15,5l0.2,0.2c0,0,0.1,0,0.1,0.1C15.5,5.5,15.4,6,15.2,6.3z M19.5,18.3c0,0.6-0.5,1.1-1.1,1.1
	c-0.6,0-1.1-0.5-1.1-1.1V9.7c0-0.6,0.5-1.1,1.1-1.1c0.6,0,1.1,0.5,1.1,1.1V18.3z"/>
</svg>
