<svg role="img" viewBox="0 0 24 24" xmlns="http://www.w3.org/2000/svg"><title>Plotly icon</title><path d="M5.5521 6.3944a.53.53 0 0 1-.2275.0146l.0125-.0162a.608.608 0 0 0 .1795-.0376.4866.4866 0 0 0 .0355.0392zm-.3454-.6036a.4442.4442 0 0 1-.0099-.0517c-.0052.058.0068.1007.0329.1294a.8459.8459 0 0 1-.023-.0777zm.6099-.4399c.0386.0073.0709.0386.0882.0767a.5963.5963 0 0 1 .2259.1268.6623.6623 0 0 0-.0798-.1356c-.083-.048-.18-.0856-.2797-.1122a.561.561 0 0 1 .0339.0417l.0115.0026zm-.1675 4.3446a.4333.4333 0 0 0-.0036-.0558.3264.3264 0 0 1-.0746-.0246.134.134 0 0 1-.0225-.0146l-.0855.0261.0104.0417c.0569-.0323.1336-.0286.1758.0272zm.1675-.395c.0386.0073.0709.0391.0882.0767a.5997.5997 0 0 1 .2259.1268.663.663 0 0 0-.0798-.1357c-.083-.0475-.18-.085-.2797-.1122a.5318.5318 0 0 1 .0339.0423l.0115.0021zm.0814.659l.0355.0694a.2373.2373 0 0 0-.0068-.133.427.427 0 0 1-.0287.0636zm4.0581-4.5c-.0073-.0052-.0136-.0099-.0209-.0141a.3063.3063 0 0 0-.0376-.0188 1.9072 1.9072 0 0 0-.0052.2937c.0752-.0412.0809-.1679.0637-.2608zm8.4292 0l-.0203-.0141a.2853.2853 0 0 0-.0381-.0188 1.9458 1.9458 0 0 0-.0052.2937c.0756-.0412.0813-.1679.0636-.2608zm.6.8238c.1002-.1565.1461-.3402.1409-.5233l-.011.0172c-.0172.0976-.0636.1884-.1294.2374-.0005.0016-.0005.0036-.0016.0052.0131.0433-.0057.0881-.0391.1184a1.1316 1.1316 0 0 1-.0292.0657 1.8624 1.8624 0 0 1-.1477.2849c.0799-.0406.1545-.1079.2171-.2055zm-1.1666.1618a.588.588 0 0 0 .0861.0662c-.0595-.0751-.1065-.1784-.143-.2765-.0636-.132-.1257-.2828-.1669-.4367a1.3044 1.3044 0 0 0 .0047.1341c.0177.1857.0788.3824.2191.5129zM5.898 6.0094l.0355.0689a.237.237 0 0 0-.0068-.1326.4307.4307 0 0 1-.0287.0637zm4.6581.2739h-.0005c.1007-.1565.1461-.3402.1408-.5233l-.0104.0172c-.0177.0976-.0637.1884-.1294.2374l-.0016.0052c.0125.0433-.0062.0881-.0396.1184a.9183.9183 0 0 1-.0287.0657 1.8625 1.8625 0 0 1-.1482.2849c.0799-.0406.155-.1079.2176-.2055zm-1.1666.1618a.588.588 0 0 0 .0861.0662c-.06-.0751-.107-.1784-.1435-.2765-.0637-.132-.1252-.2828-.167-.4367a1.3059 1.3059 0 0 0 .0053.1341c.0172.1857.0787.3824.2191.5129zm-3.8729 3.8603a.6227.6227 0 0 1-.1795.037v.0005l-.0125.0157a.548.548 0 0 0 .2275-.0141.6429.6429 0 0 1-.0355-.0391zm.1325-4.5595a.4426.4426 0 0 0-.0036-.0564.3314.3314 0 0 1-.0746-.024.1336.1336 0 0 1-.0225-.0145l-.0855.026.0104.0417c.0569-.0328.1336-.0286.1758.0272zm8.3682.647l-.0125.0161a.5332.5332 0 0 0 .2275-.0146.6584.6584 0 0 1-.0355-.0391.6111.6111 0 0 1-.1795.0376zm.4341 2.8633a.5318.5318 0 0 1 .0339.0423l.0115.0021c.0386.0073.0709.0391.0882.0767a.5976.5976 0 0 1 .2259.1268.663.663 0 0 0-.0798-.1357c-.083-.0475-.1795-.0851-.2797-.1122zm.1268-3.2463l.0355.0689a.241.241 0 0 0-.0062-.1325.5206.5206 0 0 1-.0293.0636zm-.1268-.7033a.5411.5411 0 0 1 .0339.0417l.0115.0026c.0386.0073.0709.0386.0882.0767a.5963.5963 0 0 1 .2259.1268.663.663 0 0 0-.0798-.1357c-.083-.0479-.1795-.0855-.2797-.1121zm.1268 4.6529l.0355.0694a.2425.2425 0 0 0-.0062-.133.4406.4406 0 0 1-.0293.0636zm9.3099-7.9873v20.0556c0 1.0889-.8556 1.9722-1.9101 1.9722H2.0215C.9676 24 .1119 23.1167.1119 22.0278V1.9722C.1119.8828.9676 0 2.022 0h19.956c1.055 0 1.9101.8828 1.9101 1.9722zm-6.5009 4.1817c.1095.4445.5828.7941.9928.6626a.241.241 0 0 0 .096-.0386c.2191.0412.4581-.0324.6485-.2645.2844-.3459.3136-.8139.1482-1.2026a.212.212 0 0 0-.0835-.1617 1.1969 1.1969 0 0 0-.3558-.3741c-.1998-.133-.4252-.1983-.5661-.0245a1.907 1.907 0 0 0-.1586-.0078.5603.5603 0 0 0-.0903.0062c-.168-.0663-.3475-.0678-.4252.1471a.91.91 0 0 0-.0485.2645.368.368 0 0 0-.0824.0856c-.1632.2343-.1398.6469-.0751.9078zm-8.4297 0c.1095.4445.5833.7941.9934.6626a.241.241 0 0 0 .096-.0386c.2191.0412.4576-.0324.6485-.2645.2838-.3459.3131-.8139.1477-1.2026a.2119.2119 0 0 0-.083-.1617 1.1952 1.1952 0 0 0-.3563-.3741c-.1993-.133-.4252-.1983-.5656-.0245a1.869 1.869 0 0 0-.1586-.0079.5448.5448 0 0 0-.0903.0063c-.1685-.0663-.348-.0679-.4257.1471a.9168.9168 0 0 0-.0486.2645.37.37 0 0 0-.0824.0856c-.1628.2343-.1398.6469-.0751.9078zM4.3307 5.928c-.0078.2713.1315.4837.3318.6261.2087.1873.5181.2629.8207.2713.4477.012.7565-.2332.8953-.5582l.0052-.0068c.2385-.3131.2661-.7477-.0757-.9918a1.3515 1.3515 0 0 0-.0584-.0392 1.0637 1.0637 0 0 0-.2295-.2243c-.3746-.2703-.9475-.2959-1.2198.1314a.7356.7356 0 0 0-.0376.0652 1.0423 1.0423 0 0 0-.3402.6.131.131 0 0 0-.0918.1263zm.3318 4.5762c.2087.1878.5181.2635.8207.2713.4477.012.7565-.2332.8953-.5583l.0052-.0068c.2385-.313.2661-.7476-.0757-.9918a1.7858 1.7858 0 0 0-.0584-.0386 1.0757 1.0757 0 0 0-.2295-.2249c-.3746-.2697-.9475-.2958-1.2198.1315a.6788.6788 0 0 0-.0376.0657 1.0423 1.0423 0 0 0-.3402.6.131.131 0 0 0-.0918.1263c-.0078.2713.1315.4837.3318.6256zm2.063 3.5128c0-.5921-.4717-1.0722-1.0539-1.0722v-.0005c-.5823 0-1.0539.48-1.0539 1.0727v4.2892c0 .5922.4716 1.0722 1.0539 1.0722.5822 0 1.0539-.48 1.0539-1.0722V14.017zm4.2162-4.2897c0-.5922-.4716-1.0722-1.0539-1.0722v.0005c-.5823 0-1.0539.48-1.0539 1.0716v8.579c0 .5922.4716 1.0722 1.0539 1.0722s1.0539-.48 1.0539-1.0722V9.7273zm4.2161 4.2897c0-.5921-.4722-1.0722-1.0539-1.0722v-.0005c-.5822 0-1.0539.48-1.0539 1.0727v4.2892c0 .5922.4717 1.0722 1.0539 1.0722.5817 0 1.0539-.48 1.0539-1.0722V14.017zm-.1695-4.7984a2.007 2.007 0 0 0-.0579-.0386 1.0739 1.0739 0 0 0-.2301-.2249c-.3741-.2697-.9475-.2958-1.2198.1315a.8015.8015 0 0 0-.0375.0657 1.0406 1.0406 0 0 0-.3402.6.1308.1308 0 0 0-.0918.1263c-.0078.2713.1315.4837.3318.6256.2087.1878.5186.2635.8207.2713.4476.012.7565-.2332.8953-.5583l.0052-.0068c.2383-.313.266-.7476-.0757-.9918zm0-3.9496a1.5045 1.5045 0 0 0-.0579-.0391 1.0665 1.0665 0 0 0-.2301-.2243c-.3741-.2703-.9475-.2958-1.2198.1315a.8837.8837 0 0 0-.0375.0652 1.0406 1.0406 0 0 0-.3402.6.131.131 0 0 0-.0918.1263c-.0078.2713.1315.4837.3318.6261.2087.1873.5186.263.8207.2713.4476.012.7565-.2332.8953-.5583l.0052-.0068c.2383-.3131.266-.7477-.0757-.9919zm4.3857 4.4583c0-.5922-.4722-1.0722-1.0539-1.0722v.0005c-.5822 0-1.0539.48-1.0539 1.0716v8.579c0 .5922.4716 1.0722 1.0539 1.0722.5817 0 1.0539-.48 1.0539-1.0722V9.7273zm-5.123-4.0617a.144.144 0 0 1-.0224-.0146l-.0855.026.0104.0417c.0568-.0329.1341-.0287.1758.0271a.4443.4443 0 0 0-.0031-.0564.3307.3307 0 0 1-.0752-.0238zm0 3.9495a.144.144 0 0 1-.0224-.0146l-.0856.0261.0104.0417c.0568-.0324.1341-.0287.1758.0271a.4329.4329 0 0 0-.0031-.0558.322.322 0 0 1-.0751-.0245zm-.2337.7273v.0005l-.0125.0157a.5478.5478 0 0 0 .2275-.0141c-.0125-.0125-.024-.0261-.0355-.0391a.6234.6234 0 0 1-.1795.037z"/></svg>