<svg role="img" viewBox="0 0 24 24" xmlns="http://www.w3.org/2000/svg"><title>Plunk</title><path d="M 21.6875 6.324219 C 21.6875 7.738281 21.324219 9.035156 20.589844 10.214844 C 19.859375 11.398438 18.796875 12.363281 17.398438 13.109375 C 16.003906 13.859375 14.339844 14.300781 12.410156 14.433594 L 11.339844 20.445312 C 10.921875 22.753906 9.792969 23.910156 7.949219 23.910156 C 6.933594 23.910156 5.992188 23.613281 5.128906 23.011719 C 4.28125 22.414062 3.601562 21.5 3.085938 20.269531 C 2.570312 19.039062 2.3125 17.523438 2.3125 15.730469 C 2.3125 12.351562 2.851562 9.492188 3.933594 7.148438 C 5.03125 4.785156 6.492188 3.023438 8.320312 1.859375 C 10.167969 0.679688 12.195312 0.0898438 14.40625 0.0898438 C 15.96875 0.0898438 17.292969 0.363281 18.371094 0.910156 C 19.46875 1.460938 20.292969 2.210938 20.839844 3.15625 C 21.40625 4.089844 21.6875 5.144531 21.6875 6.324219 M 12.859375 11.863281 C 16.269531 11.429688 17.972656 9.660156 17.972656 6.550781 C 17.972656 5.453125 17.605469 4.5625 16.875 3.878906 C 16.160156 3.183594 15.046875 2.832031 13.535156 2.832031 C 11.820312 2.832031 10.324219 3.375 9.042969 4.453125 C 7.78125 5.535156 6.800781 7.039062 6.101562 8.96875 C 5.421875 10.882812 5.078125 13.070312 5.078125 15.53125 C 5.078125 16.5625 5.179688 17.476562 5.378906 18.273438 C 5.59375 19.070312 5.859375 19.695312 6.175781 20.144531 C 6.507812 20.578125 6.824219 20.792969 7.125 20.792969 C 7.539062 20.792969 7.855469 20.21875 8.070312 19.070312 L 8.894531 14.355469 C 8.246094 14.257812 7.964844 14.214844 8.046875 14.234375 C 7.546875 14.148438 7.222656 14 7.074219 13.785156 C 6.925781 13.550781 6.851562 13.257812 6.851562 12.910156 C 6.851562 12.542969 6.949219 12.253906 7.148438 12.039062 C 7.367188 11.820312 7.65625 11.714844 8.023438 11.714844 C 8.1875 11.714844 8.3125 11.722656 8.394531 11.738281 C 8.796875 11.804688 9.101562 11.847656 9.320312 11.863281 C 9.535156 10.566406 9.84375 8.828125 10.242188 6.648438 C 10.339844 6.082031 10.566406 5.683594 10.914062 5.453125 C 11.28125 5.203125 11.703125 5.078125 12.1875 5.078125 C 12.734375 5.078125 13.125 5.1875 13.359375 5.402344 C 13.609375 5.601562 13.734375 5.925781 13.734375 6.375 C 13.734375 6.640625 13.714844 6.855469 13.683594 7.023438 Z M 12.859375 11.863281 "/></svg>
