<svg aria-labelledby="simpleicons-plurk-icon" role="img" viewBox="0 0 24 24" xmlns="http://www.w3.org/2000/svg"><title id="simpleicons-plurk-icon">Plurk icon</title><path d="M12 0C5.373 0 0 5.373 0 12s5.373 12 12 12 12-5.373 12-12S18.627 0 12 0zm.509 4.734c.11 0 .221.003.333.01 2.815.145 5.227 1.973 6.224 4.5.311.07.569-.01.904-.134.43-.16.39.204.226.557-.151.33-.539.713-.751.908a7.074 7.074 0 0 1-.775 4.69.21.21 0 0 0 .037.255l.185.175a.64.64 0 0 1 .024.901l-.886.933-.158-.149a.184.184 0 0 0-.252.269l.148.138.002.003a.64.64 0 0 1-.829-.041l-.114-.11a.21.21 0 0 0-.267-.017 7.07 7.07 0 0 1-3.92 1.304 7.065 7.065 0 0 1-4.589-1.533.21.21 0 0 0-.263 0l-.18.147a.64.64 0 0 1-.898-.093l-.827-1.017.026-.02.172-.131a.184.184 0 0 0-.222-.293l-.161.123-.036.027a.665.665 0 0 1-.042-.1l-.004-.011a.637.637 0 0 1 .204-.682l.195-.159a.21.21 0 0 0 .055-.255 7.054 7.054 0 0 1-.676-2.42c-.004-.048-.01-.094-.013-.142a7.187 7.187 0 0 1-.016-.312l-.003-.04v-.053a7.186 7.186 0 0 1 0-.28v-.037.004c.094 1.115.564 1.96 1.274 2.103 1.013.203 2.128-1.1 2.49-2.91s-.165-3.441-1.178-3.644a1.148 1.148 0 0 0-.633.061l-.04.017c-.172.07-.342.174-.505.313l-.002.002.015-.02c.06-.078.122-.155.184-.231a7.077 7.077 0 0 1 5.541-2.607zm-7.48 3.052a.865.865 0 0 1 .651 1.452c.068.014.121.079.22.107l.02.005c.202-.522.486-.947.802-1.217.29-.247.608-.365.913-.304.783.157 1.191 1.419.91 2.818-.28 1.399-1.141 2.406-1.924 2.25-.55-.11-.914-.766-.985-1.63a3.975 3.975 0 0 1-.012-.421 1.566 1.566 0 0 1-.548-.58.856.856 0 0 1-.277.332.865.865 0 1 1-.53-1.572.863.863 0 0 1 .76-1.24zm2.013.874c-.163.003-.328.078-.482.208a1.751 1.751 0 0 0-.391.506c.223-.016.37-.126.621-.034.322.117.506 1.022.262 1.349-.188.253-.43.377-.8.36a1.246 1.246 0 0 1-.394-.085c.057.536.29.939.636 1.008.51.102 1.072-.554 1.254-1.466.182-.911-.083-1.733-.593-1.835a.533.533 0 0 0-.113-.01z"/></svg>