<svg viewBox="0 0 16 16" xmlns="http://www.w3.org/2000/svg" fill-rule="evenodd" clip-rule="evenodd" stroke-linejoin="round" stroke-miterlimit="1.414"><path d="M12.533 6.84L8.77 10.45c-.213.204-.486.306-.76.306-.273 0-.547-.102-.76-.306L3.488 6.84c-.437-.418-.45-1.113-.032-1.55.42-.438 1.114-.452 1.55-.033l3.005 2.88 3.005-2.88c.436-.42 1.13-.405 1.55.032.42.437.405 1.13-.032 1.55zm3.388-5.028c-.207-.572-.755-.956-1.363-.956H1.45c-.6 0-1.144.376-1.357.936-.063.166-.095.34-.095.515v4.828l.055.96c.232 2.184 1.365 4.092 3.12 5.423.03.024.063.047.095.07l.02.015c.94.687 1.992 1.152 3.128 1.382.524.105 1.06.16 1.592.16.492 0 .986-.046 1.472-.136.058-.013.116-.023.175-.037.016-.002.033-.01.05-.018 1.088-.237 2.098-.69 3.004-1.352l.02-.014.096-.072c1.754-1.33 2.887-3.24 3.12-5.423l.054-.96V2.307c0-.167-.02-.333-.08-.495z" fill-rule="nonzero"/></svg>