<svg role="img" viewBox="0 0 24 24" xmlns="http://www.w3.org/2000/svg"><title>Podio</title><path d="M12.008 0a11.201 11.201 0 0 0-7.646 2.91v-.007l-.045.053a9.977 9.977 0 0 0-3.19 7.24c-.01 2.722 1.127 5.326 3.145 7.257l6.511 6.198a1.52 1.52 0 0 0 2.003-.057 1.33 1.33 0 0 0 .06-1.893l-6.518-6.217A7.294 7.294 0 0 1 4.022 10.2c0-1.98.832-3.882 2.306-5.284a8.163 8.163 0 0 1 5.615-2.173 8.155 8.155 0 0 1 5.597 2.207 7.468 7.468 0 0 1 .81 9.55 1.338 1.338 0 0 0 .475 1.852 1.538 1.538 0 0 0 1.988-.355 10.068 10.068 0 0 0 1.799-6.69 10.257 10.257 0 0 0-2.993-6.307 11.209 11.209 0 0 0-7.611-3Zm0 5.469c-.654 0-1.308.113-1.916.351a5.076 5.076 0 0 0-1.625 1.02 4.61 4.61 0 0 0-1.463 3.35c0 1.254.53 2.456 1.463 3.348l6.511 6.182a1.512 1.512 0 0 0 2.38-.434 1.285 1.285 0 0 0 .005-1.055 1.376 1.376 0 0 0-.314-.45l-6.572-6.19a1.939 1.939 0 0 1-.567-1.02 1.867 1.867 0 0 1 .129-1.149 1.98 1.98 0 0 1 .786-.88 2.241 2.241 0 0 1 1.972-.167 2.079 2.079 0 0 1 1.217 1.342 1.89 1.89 0 0 1-.026 1.05 1.285 1.285 0 0 0 .064 1.093 1.387 1.387 0 0 0 .363.438 1.546 1.546 0 0 0 1.67.144 1.406 1.406 0 0 0 .696-.873 4.52 4.52 0 0 0-.771-4.18 4.973 4.973 0 0 0-1.761-1.41 5.208 5.208 0 0 0-2.245-.51z"/></svg>