<svg role="img" viewBox="0 0 24 24" xmlns="http://www.w3.org/2000/svg"><title>Pokémon GO icon</title><path d="M6.223 5.777A6.23 6.23 0 0 0 0 12a6.23 6.23 0 0 0 6.223 6.223A6.231 6.231 0 0 0 12 14.307a6.231 6.231 0 0 0 5.777 3.916A6.23 6.23 0 0 0 24 12a6.23 6.23 0 0 0-6.223-6.223 6.232 6.232 0 0 0-5.804 3.987h-1.594l.463-.465.273-.273.27-.27.144-.146-.136-.155-.252-.285-.256-.29a6.227 6.227 0 0 0-4.662-2.103zm11.523.625a5.604 5.604 0 0 1 .031 0A5.604 5.604 0 0 1 23.375 12a5.604 5.604 0 0 1-5.598 5.598A5.604 5.604 0 0 1 12.18 12a5.604 5.604 0 0 1 5.566-5.597zm-11.553.002a5.604 5.604 0 0 1 .03 0 5.602 5.602 0 0 1 4.195 1.89l.256.29-.274.274-1.525 1.529h1.15l.412.002h1.157l.074.316a5.604 5.604 0 0 1-5.445 6.893A5.604 5.604 0 0 1 .625 12a5.604 5.604 0 0 1 5.568-5.596zm11.584 3.54A2.06 2.06 0 0 0 15.721 12a2.06 2.06 0 0 0 2.056 2.057A2.06 2.06 0 0 0 19.834 12a2.06 2.06 0 0 0-2.057-2.056zm-11.525.005a2.06 2.06 0 0 0-2.088 2.055 2.06 2.06 0 0 0 3.47 1.498H5.67v-3.115h1.824a2.06 2.06 0 0 0-1.242-.438zm11.504.287A1.764 1.764 0 0 1 19.54 12a1.764 1.764 0 0 1-3.527 0 1.764 1.764 0 0 1 1.742-1.764zm.021.891a.873.873 0 0 0-.859.734h-.969v.297h.97a.876.876 0 0 0 .858.715.874.874 0 0 0 .858-.715h.984v-.297h-.98a.873.873 0 0 0-.862-.734zm.01.299a.575.575 0 0 1 .565.574.575.575 0 0 1-1.15 0 .575.575 0 0 1 .585-.574zm-.01-4.612a5.186 5.186 0 1 0 0 10.372 5.186 5.186 0 0 0 0-10.372m0 7.654a2.469 2.469 0 1 1 0-4.937 2.469 2.469 0 0 1 0 4.937M11.268 10.8h-1.242v-.002H6.083v2.294h2.356a2.468 2.468 0 1 1-.26-2.59l1.93-1.935a5.186 5.186 0 1 0 1.16 2.233"/></svg>