<svg role="img" viewBox="0 0 24 24" xmlns="http://www.w3.org/2000/svg"><title>Pokémon GO</title><path d="M6.1429 5.7528C2.7557 5.7528 0 8.5554 0 12c0 3.4446 2.7557 6.2472 6.1429 6.2472 2.6812 0 5.0551-1.7812 5.8571-4.361.802 2.5798 3.1758 4.361 5.8571 4.361C21.2442 18.2472 24 15.4446 24 12c0-3.4446-2.7558-6.2472-6.1429-6.2472-2.6814 0-5.0552 1.7818-5.8571 4.362a7.6281 7.6281 0 0 0-.029-.0899l-.0164-.0508H9.693l1.5713-1.4225-.0344-.0526C10.0836 6.7798 8.1818 5.7528 6.143 5.7528zm11.7142.488c3.1225 0 5.663 2.5836 5.663 5.7592 0 3.1756-2.5405 5.7591-5.663 5.7591-3.1226 0-5.663-2.5835-5.663-5.7591s2.5404-5.7591 5.663-5.7591zm-11.5954.0863c1.6213 0 3.1676.7033 4.2414 1.9297l.2159.2467-.2422.2205-1.8118 1.6394h2.7135l.0036.0009.0808.0009s.1362.0864.1787.1333c.0437.0485.1116.1942.1116.1942l.0281.0862c.0909.4088.1361.83.1361 1.251 0 3.1445-2.5371 5.702-5.6557 5.702-3.1185 0-5.6557-2.5575-5.6557-5.702 0-3.1444 2.5372-5.7028 5.6557-5.7028zm0 .3311c-2.939 0-5.33 2.4098-5.33 5.3717 0 .3083.0274.6095.0771.9037.1679-.0305 1.1673-.208 2.7263-.4029.0142.073.0314.1452.0517.216-1.5613.1944-2.564.3722-2.7371.4037.513 2.4256 2.6544 4.2513 5.212 4.2513 2.9391 0 5.331-2.4098 5.331-5.3718a5.449 5.449 0 0 0-.137-1.2138s-.0191-.0895-.0318-.107c-.0101-.014-.0172-.0146-.0172-.0146H6.1492v1.5759a74.6478 74.6478 0 0 1 2.0595-.1606c.1073-.007.2173-.0135.3275-.02.0278-.0017.0554-.0038.0834-.0054.1108-.0064.2222-.013.3357-.019h.0027c.1136-.0061.2286-.0116.3448-.0173.0288-.0013.058-.003.087-.0045.117-.0056.2353-.0104.3548-.0154h.0018c.1197-.005.2408-.01.3629-.0145.0296-.0011.0592-.0026.0889-.0036.2466-.0088.4984-.0163.7539-.0227.0296-.0007.0593-.001.089-.0018.178-.0043.3578-.008.5397-.0109.0003.0225.001.0456.001.068a5.524 5.524 0 0 1-.0019.1525c-.0492.0007-.099.0018-.1479.0027h-.0036a75.6543 75.6543 0 0 0-.3819.0082c-.0308.0007-.0619.001-.0925.0018-.1269.003-.2527.007-.3775.0109h-.0009c-.1246.0038-.2477.0074-.3701.0118-.0295.001-.0596.0025-.089.0036-.2441.009-.483.0188-.7175.0299-.0282.0013-.0573.0032-.0853.0045a72.403 72.403 0 0 0-.3448.0172h-.0018c-.1138.0061-.2254.0126-.3366.019-.027.0016-.0538.0032-.0807.0046a96.9045 96.9045 0 0 0-.3275.02 74.749 74.749 0 0 0-2.073.1623v.6297h2.4313c-.4113.866-1.2962 1.467-2.3189 1.467-1.414 0-2.5638-1.1475-2.5638-2.5584 0-1.411 1.1498-2.5594 2.5638-2.5594a2.569 2.569 0 0 1 1.9325.8764l2.0657-1.8707C9.248 7.3204 7.7903 6.6582 6.2617 6.6582zm11.5954.0236c-2.877 0-5.2096 2.3632-5.2275 5.2846h.1887a63.69 63.69 0 0 1 .8338.0082l.0952.0018c.2812.005.5646.0119.851.021.033.001.066.0015.099.0026.2068.007.415.0153.624.0245a2.642 2.642 0 0 0 .0119.2214c-.0718-.0032-.1435-.0061-.215-.0091-.0026 0-.0057-.0009-.0082-.001-.1407-.0056-.2805-.0097-.42-.0145-.035-.001-.0696-.0025-.1044-.0036a55.2555 55.2555 0 0 0-.4219-.0117c-.0025-.0001-.0048-.0009-.0073-.001a65.1059 65.1059 0 0 0-.4128-.0081c-.0338-.0007-.0678-.0012-.1016-.0018a64.5406 64.5406 0 0 0-.4128-.0054h-.0073c-.135-.0013-.2693-.0014-.4028-.0018-.033-.0001-.066-.0009-.0989-.001h-.087c.0968 2.8504 2.3973 5.1314 5.2238 5.1314 2.8879 0 5.2293-2.3813 5.2293-5.3182 0-2.937-2.3414-5.3183-5.2293-5.3183zm.0182 2.7126c1.4053 0 2.5447 1.1584 2.5447 2.5875 0 .1748-.0173.3456-.0499.5107.0578.0085.1156.0176.1733.0263l.1125.0173c.1477.0228.2953.0463.4428.0707.0019.0004.0044.0007.0064.001.1476.0245.2953.05.4427.0762.0377.0067.0747.0131.1125.02.1472.0266.295.0541.4418.0825l.0045.0009c.147.0285.2936.0578.44.088.0372.0077.0745.0157.1116.0236.1113.0233.222.0472.333.0717a5.4964 5.4964 0 0 1-.0427.2159c-.1114-.0246-.2238-.0482-.3357-.0717l-.1097-.0227a36.7774 36.7774 0 0 0-.8846-.1714c-.0365-.0066-.0724-.0136-.1089-.02a37.282 37.282 0 0 0-.4445-.0762 39.0099 39.0099 0 0 0-.4455-.0717c-.0363-.0057-.0733-.0107-.1097-.0163-.0642-.0097-.1282-.0196-.1924-.029-.3087 1.0755-1.2848 1.8616-2.4422 1.8616-1.4053 0-2.544-1.1583-2.544-2.5874s1.1387-2.5875 2.544-2.5875zm-11.6136.4074c-1.2345 0-2.2381.9997-2.2381 2.2281 0 1.2285 1.0036 2.2273 2.2381 2.2273.6699 0 1.3005-.3037 1.721-.8047H5.8236v-3.0891h1.9252a2.2463 2.2463 0 0 0-1.487-.5616zm11.6.127c-1.1256 0-2.0413.931-2.0413 2.0757 0 1.1447.9157 2.0758 2.0412 2.0758 1.1257 0 2.0413-.931 2.0413-2.0758 0-1.1447-.9156-2.0757-2.0413-2.0757zm0 .1823c.995 0 1.8056.7947 1.857 1.7936h-1.0786c-.0507-.3933-.3826-.6985-.783-.6985-.4035 0-.7362.3099-.783.7076h-1.0696c.047-1.0032.859-1.8027 1.8571-1.8027zm-.0046 1.2774c.337 0 .6106.2779.6106.6206 0 .3426-.2736.6205-.6106.6205s-.6096-.2779-.6096-.6205c0-.3427.2726-.6206.6096-.6206zm.7857.6977h1.0769c-.0425 1.0075-.8569 1.8117-1.858 1.8117-.9982 0-1.8102-.7993-1.8571-1.8026h1.0678c.0421.4026.3778.7167.7847.7167.41 0 .7477-.3189.7857-.7258zm-17.614.9562c.0054.0284.0096.057.0155.0853-.0058-.0282-.0101-.0569-.0155-.0853z"/></svg>