<svg role="img" viewBox="0 0 24 24" xmlns="http://www.w3.org/2000/svg"><title>Polestar</title><path d="M11.911 17.931c0 5.46-.01 5.688-.188 5.906-.158.188-.208.208-.247.089-.02-.08-.455-2.196-.95-4.699s-.94-4.57-.989-4.6c-.04-.03-2.176-.475-4.738-.99l-4.65-.939.208-.218.208-.227H11.91v5.678zm11.742-6.41-.277.237-5.609-.02-5.609-.03-.03-5.618c-.019-5.233-.01-5.639.15-5.856.217-.307.306-.307.375-.03.03.129.455 2.226.94 4.67.485 2.443.9 4.45.91 4.47.02.01 2.077.426 4.58.93 2.503.495 4.62.92 4.699.95.119.04.089.109-.129.297z"/></svg>