<svg role="img" viewBox="0 0 24 24" xmlns="http://www.w3.org/2000/svg"><title>Polkadot</title><path d="M12,0c2.39,0,4.33,1.13,4.33,2.52S14.39,5,12,5,7.67,3.9,7.67,2.51,9.61,0,12,0Zm0,19c2.39,0,4.33,1.13,4.33,2.52S14.39,24,12,24s-4.33-1.13-4.33-2.52S9.61,19,12,19ZM1.6,6C2.79,3.92,4.74,2.81,6,3.5s1.21,2.94,0,5S2.82,11.7,1.61,11,.4,8.07,1.6,6ZM18,15.49c1.2-2.08,3.14-3.19,4.35-2.5s1.21,2.94,0,5-3.14,3.18-4.35,2.49S16.84,17.56,18,15.49ZM1.61,13c1.21-.69,3.16.42,4.35,2.5s1.19,4.31,0,5S2.79,20.08,1.6,18,.41,13.69,1.61,13ZM18.06,3.5c1.2-.69,3.15.42,4.34,2.49s1.19,4.32,0,5-3.15-.42-4.35-2.5S16.85,4.2,18.06,3.5Z" /></svg>
