<svg role="img" viewBox="0 0 24 24" xmlns="http://www.w3.org/2000/svg"><title>Polywork</title><path d="M8.708 16.64H.027V7.809h8.681zm-7.483-1.197h6.286V9.007H1.225zm7.482 8.53H4.892A4.854 4.854 0 01.03 19.109V15.59h8.68zM1.225 16.79v2.32a3.592 3.592 0 003.592 3.59H7.51v-5.91zm15.116-7.933H7.66V.027h8.68zM8.856 7.584h6.211v-6.36h-6.21zm15.116 1.273h-8.68V.027h3.817a4.854 4.854 0 014.863 4.864zM16.49 7.584h6.21V4.892A3.592 3.592 0 0019.11 1.3h-2.62zM8.707 8.857H.027V4.891A4.854 4.854 0 014.892.028H8.71zM1.225 7.584h6.286v-6.36H4.892A3.592 3.592 0 001.3 4.817v2.768zm15.116 9.056H7.66V7.809h8.68zm-7.485-1.197h6.211V9.007h-6.21zm10.253 1.197h-3.817V7.809h8.681v3.967a4.854 4.854 0 01-4.864 4.863zm-2.62-1.197h2.62A3.592 3.592 0 0022.7 11.85V9.007h-6.21zm-5.014 8.53H7.66v-8.382h8.68v3.518a4.854 4.854 0 01-4.863 4.864zm-2.619-1.198h2.619a3.592 3.592 0 003.592-3.591v-2.32h-6.21z"/></svg>
