<svg role="img" viewBox="0 0 24 24" xmlns="http://www.w3.org/2000/svg"><title>Polywork</title><path d="M 8.708336,16.639975 H 0.02696101 V 7.8089566 H 8.708336 Z M 1.2251242,15.442823 H 7.5111839 V 9.0071197 H 1.2251242 Z m 7.4822007,8.53072 H 4.8924137 A 4.8543305,4.8543305 0 0 1 0.02898322,19.10809 V 15.590445 H 8.7093471 Z M 1.2251242,16.789619 v 2.319482 a 3.5924674,3.5924674 0 0 0 3.5914563,3.591456 H 7.5111839 V 16.789619 Z M 16.341191,8.8574757 H 7.6588057 V 0.02645671 H 16.33917 Z M 8.8559578,7.5844905 H 15.067195 V 1.2246199 H 8.8569689 Z M 23.972025,8.8574757 H 15.291662 V 0.02645671 h 3.816933 a 4.8543305,4.8543305 0 0 1 4.86343,4.86444149 z m -7.4822,-1.2729852 h 6.210227 V 4.8919094 A 3.5924674,3.5924674 0 0 0 19.108595,1.300453 h -2.61877 z M 8.7073249,8.8574757 H 0.02696101 V 4.8908982 A 4.8543305,4.8543305 0 0 1 4.8924137,0.02847893 H 8.7093471 Z M 1.2251242,7.5844905 H 7.5111839 V 1.2246199 H 4.8924137 A 3.5924674,3.5924674 0 0 0 1.2999462,4.8160762 V 7.5844905 Z M 16.341191,16.639975 H 7.6588057 V 7.8089566 H 16.33917 Z M 8.8559578,15.442823 H 15.067195 V 9.0071197 H 8.8569689 Z M 19.108595,16.639975 H 15.291662 V 7.8089566 h 8.681375 v 3.9665774 a 4.8543305,4.8543305 0 0 1 -4.864442,4.86343 z m -2.61877,-1.197152 h 2.61877 a 3.5924674,3.5924674 0 0 0 3.591457,-3.592467 V 9.0071197 h -6.210227 z m -5.015097,8.53072 H 7.6608279 v -8.382087 h 8.6803631 v 3.517645 a 4.8543305,4.8543305 0 0 1 -4.86343,4.863431 z M 8.8559578,22.77538 h 2.6187702 a 3.5924674,3.5924674 0 0 0 3.592467,-3.591457 V 16.86343 H 8.8569689 Z"/></svg>
