<svg role="img" viewBox="0 0 24 24" xmlns="http://www.w3.org/2000/svg"><title>Polywork</title><defs><filter id="a" x="0" y="0" width="1" height="1" color-interpolation-filters="sRGB"><feColorMatrix values="1 0 0 0 0 0 1 0 0 0 0 0 1 0 0 0 0 0 1 0"/></filter></defs><path transform="translate(-.103 -.103) scale(1.00859)" d="M8.744 16.589H.158V7.855h8.586zm-7.401-1.184H7.56V9.04H1.343zm7.4 8.437H4.97A4.801 4.801 0 01.16 19.03v-3.479h8.585zm-7.4-7.105v2.294a3.553 3.553 0 003.552 3.552H7.56v-5.846zm14.95-7.845H7.706V.158h8.585zM8.89 7.633h6.143v-6.29H8.891zm14.95 1.259h-8.585V.158h3.775a4.801 4.801 0 014.81 4.811zm-7.4-1.259h6.142V4.97a3.553 3.553 0 00-3.552-3.552h-2.59zM8.743 8.892H.158V4.969A4.801 4.801 0 014.97.16h3.775zM1.343 7.633H7.56v-6.29H4.97a3.553 3.553 0 00-3.553 3.552v2.738zm14.95 8.956H7.706V7.855h8.585zM8.89 15.405h6.143V9.04H8.891zm10.14 1.184h-3.775V7.855h8.586v3.923a4.801 4.801 0 01-4.811 4.81zm-2.59-1.184h2.59a3.553 3.553 0 003.552-3.553V9.04H16.44zm-4.96 8.437H7.708v-8.29h8.585v3.479a4.801 4.801 0 01-4.81 4.81zm-2.59-1.185h2.59a3.553 3.553 0 003.553-3.552V16.81H8.891z" filter="url(#a)" fill="#000"/></svg>
