<svg role="img" viewBox="0 0 24 24" xmlns="http://www.w3.org/2000/svg"><title>pomofocus</title><path d="M12.72 24.001h-1.458l-.495-.06c-2.33-.258-4.45-1.075-6.26-2.573-3.335-2.755-4.823-6.322-4.45-10.625.181-2.139.933-4.107 2.24-5.817C5.047 1.31 8.714-.326 13.239.053c2.14.176 4.092.953 5.822 2.23 2.558 1.896 4.147 4.419 4.738 7.562.085.47.136.943.201 1.413v1.458l-.06.494c-.242 2.18-.984 4.167-2.306 5.923-1.902 2.527-4.409 4.091-7.527 4.667-.454.09-.923.136-1.387.201zm-2.573-11.058c-.07-.096-.111-.182-.177-.242-.888-.893-1.776-1.786-2.663-2.674-.485-.485-1.035-.48-1.524 0l-1.21 1.21c-.485.49-.485 1.035.004 1.524l4.843 4.843c.5.5 1.04.495 1.54-.005 2.824-2.825 5.65-5.65 8.47-8.475.494-.495.494-1.03.005-1.524-.384-.388-.772-.772-1.156-1.155-.56-.56-1.074-.56-1.63 0-1.563 1.569-3.127 3.138-4.696 4.702-.585.57-1.165 1.15-1.806 1.796z"/></svg>