<svg role="img" viewBox="0 0 24 24" xmlns="http://www.w3.org/2000/svg"><title>Porsche icon</title><path d="M11.9716 0c-.706.0084-1.3396.029-2.0415.0915a27.8583 27.8583 0 00-4.2484.684 23.5654 23.5654 0 00-2.9751.9665c-.0406.0159-.0604.0225-.0604.0225s.1187 7.2425.2099 10.8307a9.9341 9.9341 0 00.5699 3.0983 14.8987 14.8987 0 001.6217 3.2136 12.884 12.884 0 002.512 2.7518 11.2343 11.2343 0 001.1928.873 15.2136 15.2136 0 002.0379 1.0312c.233.0984.4353.192.6205.2545a4.5806 4.5806 0 00.5894.1824 4.5806 4.5806 0 00.5888-.1824c.1834-.0625.3875-.1551.6205-.2545a15.2204 15.2204 0 002.0379-1.0311 11.2509 11.2509 0 001.1934-.8731 12.8794 12.8794 0 002.5114-2.7518 14.889 14.889 0 001.6217-3.2136 9.9341 9.9341 0 00.57-3.0983c.0911-3.5885.2098-10.827.2098-10.827a.6354.6354 0 00-.0567-.0262 23.5635 23.5635 0 00-2.9757-.9665 27.8558 27.8558 0 00-4.2484-.684C13.371.0297 12.7374.0085 12.0314 0zm0 .3612h.0574c.6788.0081 1.2883.0291 1.9634.089a26.5847 26.5847 0 014.0837.6633 22.5298 22.5298 0 012.861.9372.6189.6189 0 01.0573.025c0 .001-.015.9268-.0384 2.274a.1128.1128 0 00-.019-.0091 22.5498 22.5498 0 00-2.8609-.9372 26.6097 26.6097 0 00-4.0837-.6626c-.675-.06-1.2815-.0993-1.9604-.1074h-.058c-.6788.0081-1.2901.0474-1.9652.1074a26.6078 26.6078 0 00-4.0843.6656 22.5467 22.5467 0 00-2.861.9372.1156.1156 0 00-.0189.0098c-.0234-1.3514-.0384-2.2807-.0384-2.2807s.0186-.0067.0573-.022a22.527 22.527 0 012.861-.9372 26.5813 26.5813 0 014.0843-.6632c.675-.06 1.2837-.0807 1.9628-.089zm.2886.216c-.3043-.0046-.6089-.0036-.9018.008-.1218.005-.2882.1087-.2898.2306l-.008.6467c-.0018.1328.1727.2364.3052.2392.4623.0103.8711.002 1.3179.0311.033.0022.0622.0224.0622.0555l-.003.1306a.0422.0422 0 01-.0452.0452c-.521 0-1.066-.0248-1.593.017-.0276.0022-.0263-.0049-.0282.0226l-.0231.3838-.0025.0311a16.3176 16.3176 0 011.8823 0 .3199.3199 0 00.305-.263l.0062-.6266c0-.1287-.1584-.224-.2618-.2306-.4414-.0272-.9446-.0129-1.3941-.0244a.0465.0465 0 01-.0434-.0494l.0086-.1453c0-.028.0192-.0368.047-.0378.4445-.016 1.1077.0055 1.562.0195A.0722.0722 0 0013.223.991V.6736c0-.0169-.0316-.0665-.0628-.0671V.6047a33.113 33.113 0 00-.9-.0275zm-1.8817.064C9.9555.6489 9.0378.766 8.517.831L8.5146 2.64v.0233l.4704-.061a.0137.0137 0 00.0103-.0055.0137.0137 0 00.0025-.0098v-.5229l.9475-.1019c.0828-.0153.18.046.2557.1684a.8794.8794 0 01.114.3393l.4668-.0348c.01 0 .031.0002.0287-.0092a.9878.9878 0 00-.3075-.6638.3158.3158 0 00.1965-.31 4.3395 4.3395 0 00-.0214-.5643.3199.3199 0 00-.2996-.2465zm3.592.0184v.0012a.404.404 0 00-.4125.3313l-.0091 1.1947a.3124.3124 0 00.2385.2892c.6101.0574 1.2101.1116 1.8915.2153.0103 0 .031-.0073.031-.0177v-.4155c0-.0087-.019-.0283-.0274-.0292-.4536-.0578-1.053-.1379-1.5882-.1935a.0756.0756 0 01-.058-.0701v-.8121c0-.0344.0493-.0523.0836-.0494.529.0428 1.056.1399 1.584.1964.014.0016.0363-.0073.0366-.0213l.0104-.3814a.0369.0369 0 00-.0287-.033c-.587-.0852-1.0364-.1334-1.7517-.205zm1.9799.2373c-.011 0-.0214.0141-.0214.025-.0062.2743-.0446 1.4573-.053 1.7719l.0005.0268c.1547.0269.325.048.4522.0739.0143.0028.0354-.0073.0354-.022-.002-.2062 0-.4471-.0037-.6352 0-.0137.0058-.0147.0195-.0122a31.392 31.392 0 011.1025.219c.0075.0016.0516.0078.0513.0312-.0025.2162-.0069.4-.0128.6162a.041.041 0 00.0268.0403c.145.0328.283.0676.421.0995.036.0084.0427.0021.0434-.0116.0218-.4511.029-1.1737.036-1.7835 0-.0081-.003-.02-.011-.022-.1519-.035-.2963-.0718-.4522-.1055-.014-.0028-.0216.021-.0225.0354-.015.2227-.009.4295-.0269.6522 0 .0081.0002.012-.0085.0104-.3699-.0765-.7648-.1592-1.1324-.2276-.01-.0022-.0052-.0192-.005-.0311.0026-.2187.0019-.4342.0031-.6529a.0331.0331 0 00-.0256-.0299 23.196 23.196 0 00-.4167-.0683zM7.9349.9213a.303.303 0 00-.0366.0006c-.543.0847-1.089.2004-1.6394.3191a.4998.4998 0 00-.23.1428.3218.3218 0 00-.1032.2056L5.93 2.7072a.4342.4342 0 00.1062.2654.24.24 0 00.2037.1098 38.5179 38.5179 0 011.6334-.3221.4967.4967 0 00.2678-.1666.362.362 0 00.0983-.2306l-.003-1.1636a.2793.2793 0 00-.1099-.1976.303.303 0 00-.1916-.0806zm2.1569.1965a.076.076 0 01.0805.069l.0025.189a.1721.1721 0 01-.1392.166l-1.0622.1038-.0092-.0074V1.23l.0086-.0042 1.1117-.1074a.076.076 0 01.0073-.0006zm-2.52.2898a.1671.1671 0 01.0782.022.1175.1175 0 01.0543.1067l-.0092.7041a.125.125 0 01-.0488.1044.2912.2912 0 01-.1196.0476c-.2861.0578-.7039.1354-.9976.1903a.1062.1062 0 01-.0878-.0177.1325.1325 0 01-.0311-.1006v-.7255a.1428.1428 0 01.0402-.097.2434.2434 0 01.1202-.0592c.2903-.055.6703-.1295.9683-.1727a.1671.1671 0 01.033-.0024zm10.8094.0006l-.0006.0012c-.0072-.0012-.0073.0118-.0073.0183-.0144.6058-.0295 1.167-.0354 1.7731 0 .0128.006.0304.0183.0336a22.245 22.245 0 012.158.6992c.0313.0116.0312-.0123.0312-.022.0025-.1374.009-.278.0024-.4155a.0412.0412 0 00-.025-.033 16.6018 16.6018 0 00-1.6602-.5411.0281.0281 0 01-.0183-.0256l.0073-.1813c.0006-.0071.0145-.0092.022-.0073a21.848 21.848 0 011.6712.5418c.0093.0031.0091-.0098.0091-.0183.0053-.1562.009-.3124 0-.4686a.029.029 0 00-.0195-.0256 21.4566 21.4566 0 00-1.6383-.5229c-.0084-.0025-.0183-.0099-.0183-.0183v-.1922c0-.0081.0136-.0125.0214-.0104.5642.1447 1.1836.3606 1.615.5193.0379.014.0598.0084.0598-.0269.0007-.1568.0064-.1678-.0024-.324-.0012-.02-.0032-.0398-.022-.047a21.3827 21.3827 0 00-2.1684-.7065zm-12.9692.064a.3646.3646 0 00-.0842.0086c-.6507.1665-1.3026.414-1.9555.6523a.0625.0625 0 00-.0312.0518v1.4656l.0037.33s.4714-.1773.573-.2104c.0137-.0044.0134-.017.0134-.0311l-.0098-.5205c0-.0147.0018-.0362.0159-.0403l1.6248-.5009A.3061.3061 0 005.7 2.576a.2368.2368 0 00.0518-.1562l-.017-.6833a.2724.2724 0 00-.1184-.1965.3646.3646 0 00-.2044-.0677zm-.2856.4955c.036-.01.0689.0316.072.0629a1.8594 1.8594 0 01.0116.2501c-.001.0457-.0655.0977-.1092.1105l-1.1849.3862c-.011.0031-.0311.0003-.0311-.0122l.0018-.3582c0-.0172.0198-.0313.036-.036a10.7957 10.7957 0 011.2038-.4033zm6.9666.9817c.6533.0088 1.2456.0298 1.8994.0879a26.5912 26.5912 0 014.0837.6626 22.5014 22.5014 0 012.861.9372.1075.1075 0 01.014.0067 89.441 89.441 0 00-.0067.4478H12.093zm-.3172.0019l-.0012 4.6175H8.827c-.0432-.004-.015-.023.0146-.0518a1.7091 1.7091 0 01.715-.3124c.022-.0019.0289-.0137-.0024-.0537a.8981.8981 0 00-.9298-.2123.9853.9853 0 00-.6248.6034.0397.0397 0 01-.039.0311c-.1453.011-.3258.0128-.471.0128-.0241 0-.037-.032-.0349-.0561a.737.737 0 01.3435-.4833 1.1 1.1 0 01.5187-.1787.0397.0397 0 00.0207-.0623.5148.5148 0 00-.1055-.094.7585.7585 0 00-.504-.0762 1.053 1.053 0 00-.9482.964c-.0103.0603.0066.0737-.0525.094-.1121.0378-.3222.0641-.4344.0873-.0203.0034-.0495-.0426-.0451-.0629a1.309 1.309 0 01.244-.5217 1.0062 1.0062 0 01.3417-.291c.0266-.0134.0497-.0438.0262-.064-.2527-.22-.7712.012-.9798.2415a1.3692 1.3692 0 00-.2752.9104c0 .015.0144.0404 0 .0464a4.9419 4.9419 0 01-.399.1488c-.0125.004-.0143-.0268-.0171-.0396a.9303.9303 0 01.147-.676.661.661 0 01.244-.2417c.0107-.006.0079-.0174 0-.0274-.1143-.1494-.5684-.0426-.7077.0933-.3205.3127-.2974.6156-.3124 1.097-.001.0232-.0305.1117-.0555.1233a.5698.5698 0 01-.1843.0702c-.021.0059-.0224.0136-.028-.0074a.3899.3899 0 00-.5705-.2214.3564.3564 0 00-.0763.5314c.015.0175.0191.0346-.003.0415a.4208.4208 0 00-.2752.5339.3364.3364 0 00.2965.2098.6276.6276 0 00.3704-.108.0431.0431 0 01.0591.0098.3858.3858 0 00.5315.1245c.1612-.1069.234-.2737.1135-.559-.0066-.0158.0198-.046.0347-.0542a6.6152 6.6152 0 013.1435-.881 1.7806 1.7806 0 01.4564.1024.0937.0937 0 01.0226.008l.0018.9408a.1893.1893 0 01-.0336.0244 1.005 1.005 0 00-.432.5498c-.0043.0175-.0066.0216-.0353.0244-.1925.0187-.3985.0475-.5913.0622-.0109.0019-.0312-.019-.0274-.0293a1.8706 1.8706 0 01.7248-.909.0569.0569 0 00.0092-.0666.3749.3749 0 00-.1672-.0934 1.0874 1.0874 0 00-.8945.3625 1.4176 1.4176 0 00-.3124.8743c-.0015.0225.0027.0584-.0189.0653-.124.039-.2614.0742-.3905.111-.0146.0035-.035-.0121-.0372-.0274a1.006 1.006 0 01.4857-1.0312c.051-.039-.0378-.1012-.1025-.1012a.9628.9628 0 00-.9122.5308 1.3014 1.3014 0 00-.0311.7926c.004.023.0192.0624-.0049.0683-.079.019-.2656.0905-.3234.1086-.0212.0069-.0347-.0033-.047-.0311a1.0412 1.0412 0 01-.0213-.4875 1.1018 1.1018 0 01.2685-.493c.0078-.0097.0112-.032 0-.0372a.5404.5404 0 00-.3783-.0244.7407.7407 0 00-.4765.3795c-.159.2977-.1187.5838.0506 1.0049.0081.02.0178.0586 0 .0707l-.1367.0806c-.0171.0119-.0326.001-.0445-.0159-.0547-.078-.1237-.202-.2105-.2404a.4152.4152 0 00-.4277.0354.4061.4061 0 00-.119.4314.8747.8747 0 00.0989.152c.01.0133-.0007.0356-.0129.0469-.0587.0519-.1392.0888-.1873.1391a.3952.3952 0 00-.011.4716.3646.3646 0 00.4515.1233 1.6244 1.6244 0 00.2307-.122c.0275-.0185.0458-.0516.0695-.025a.546.546 0 00.2252.1525.4267.4267 0 00.3539-.0622.3052.3052 0 00.1678-.338.8747.8747 0 00-.1428-.2697c-.0334-.0344-.0353-.0328 0-.0537a7.435 7.435 0 011.6602-.7237 5.0236 5.0236 0 011.6895-.2074h.0463l.003 1.9488H3.2058c-.0537-2.1324-.1156-5.51-.1562-7.8361a.1125.1125 0 01.014-.0067 22.4986 22.4986 0 012.861-.9372 26.5894 26.5894 0 014.0837-.6626c.6098-.0547 1.1656-.0764 1.7676-.086zm-3.0874.8157a1.2368 1.2368 0 00-.693.2319c-.2862.1884-.4566.7727-.4906.9817a.044.044 0 01-.0397.0366 5.998 5.998 0 00-.6766.125c-.0066.0013-.0116-.0101-.0116-.017a.9825.9825 0 01.258-.59 3.5057 3.5057 0 01.493-.396c.0129-.0115.0041-.0453-.0121-.0512a1.035 1.035 0 00-.7969.0116 1.129 1.129 0 00-.6748.8676 2.0618 2.0618 0 00-.0287.41c.0013.0172-.0295.0179-.0458.0232-.2458.0771-.504.1664-.7095.2361-.011.0038-.0391.0018-.0391-.0098a1.1677 1.1677 0 01.1751-.6559c.1194-.1952.343-.3052.5046-.4685.0116-.0125.0278-.0447.0116-.0513-.4099-.1653-.7977.0038-1.1245.3746a1.3951 1.3951 0 00-.1989 1.1245c.0081.0356-.0017.0749-.0195.083a1.805 1.805 0 01-.23.0885.025.025 0 01-.033-.019c-.0937-.297-.4411-.2385-.5973-.1482a.3611.3611 0 00-.1391.4881.0312.0312 0 01-.0104.0445.4423.4423 0 00-.205.5962.3524.3524 0 00.4283.1372 1.2083 1.2083 0 00.2465-.1293.0266.0266 0 01.0293.0043.393.393 0 00.5668.0793c.1146-.0819.1588-.0954.2038-.244a.3908.3908 0 00-.0903-.3003c-.0116-.0103-.001-.0395.0128-.0463A9.692 9.692 0 018.9471 5.509a2.3492 2.3492 0 011.4455.5534.0722.0722 0 00.0622.0311.0975.0975 0 00.0537-.0567.6604.6604 0 00-.2032-.678 1.2099 1.2099 0 00-.612-.3434c-.0128-.0035-.0197-.0294-.0097-.0378a.9684.9684 0 01.3344-.219 3.5866 3.5866 0 01.6046-.0501c.014-.0016.0355-.0153.0311-.0287a.6057.6057 0 00-.5278-.3996 1.3245 1.3245 0 00-.6925.1006 1.118 1.118 0 00-.5003.5522.036.036 0 01-.0323.0201 12.1388 12.1388 0 00-.5937-.0067c-.0137 0-.0348-.0009-.0348-.0146a.9431.9431 0 01.255-.5168 1.9887 1.9887 0 01.6798-.3856c.0184-.0066.0408-.0366.0286-.0519a.5489.5489 0 00-.2007-.1696 1.2368 1.2368 0 00-.3466-.0409zm3.4046 1.6071h8.8453c-.0122.6859-.0253 1.4328-.0403 2.1953h-8.805zM8.6811 7.8013l6.6658.0024a.0156.0156 0 01.0171.0135l-.0018 5.1374a2.3542 2.3542 0 01-.1428.7645 3.3267 3.3267 0 01-1.4411 1.7249 3.4676 3.4676 0 01-1.7402.4911 3.5122 3.5122 0 01-2.2587-.8597 3.0783 3.0783 0 01-1.1056-2.3112l-.0073-4.944c0-.0131.0015-.0189.0146-.0189zm6.9941.0854h5.2173c-.0121.6454-.025 1.2964-.0347 1.9262h-5.1826V8.3175zm-6.839.0714c-.0129 0-.0141.0049-.0141.0177l.0067 4.7536A2.9709 2.9709 0 009.883 14.954a3.3332 3.3332 0 002.1532.8268 3.2845 3.2845 0 001.6596-.473 3.193 3.193 0 001.3747-1.6589 2.2805 2.2805 0 00.136-.7352l.0018-4.9397a.015.015 0 00-.0164-.014zm4.4356.3039a.1012.1012 0 01.0013 0 .1097.1097 0 01.0872.0713l.2422.7151a.0787.0787 0 01-.0036.069.066.066 0 01-.0543.025.0647.0647 0 01-.0623-.044l-.0384-.125h-.33l-.0355.1275c-.0112.0397-.0401.0445-.0714.0445a.0625.0625 0 01-.0439-.028.0565.0565 0 01-.0097-.0519l.2318-.7285a.1012.1012 0 01.0866-.075zm-.7626.0067a.2262.2262 0 01.0225.0006.2315.2315 0 01.2356.1562.0465.0465 0 01-.0318.0592.0528.0528 0 01-.0695-.0202.1656.1656 0 00-.1324-.089.1515.1515 0 00-.133.0994.498.498 0 00-.0543.222.5245.5245 0 00.0457.2277.1587.1587 0 00.1538.1025.233.233 0 00.1665-.2435v-.0384h-.1354a.0572.0572 0 01-.0586-.0629c0-.0234.0064-.05.0586-.05h.1922l.0006.0006c.0628 0 .0726.047.0726.0885a.792.792 0 01-.0116.1531.399.399 0 01-.1489.2356.3011.3011 0 01-.15.0427.2568.2568 0 01-.2276-.1452.6182.6182 0 01-.0733-.31.577.577 0 01.08-.3032.2262.2262 0 01.1983-.1257zm-2.9879.0024a.318.318 0 01.0037 0c.1833.0016.2434.1114.2434.1507 0 .034-.0617.079-.0958.0378a.2006.2006 0 00-.1562-.0677.1428.1428 0 00-.1507.0964.114.114 0 00.094.1349.6092.6092 0 01.2678.0805h-.0018a.2021.2021 0 01.0818.1794.2471.2471 0 01-.0678.1745.3265.3265 0 01-.247.0885.297.297 0 01-.263-.1398c-.0032-.0097-.0096-.0637.0347-.0787a.0837.0837 0 01.0818.0263.2387.2387 0 00.1562.0628.2227.2227 0 00.1476-.0506.1047.1047 0 00.0238-.1154.2187.2187 0 00-.1928-.0982.25.25 0 01-.172-.069.25.25 0 01-.069-.1964.2187.2187 0 01.1007-.1635.318.318 0 01.1806-.0525zm1.6486.0006a.0603.0603 0 01.0012 0 .0603.0603 0 01.0061 0h.3545a.0603.0603 0 110 .1202l-.114.0006v.6822a.0625.0625 0 01-.1252 0v-.6828h-.1153a.0603.0603 0 01-.0073-.1202zm.5601 0a.0603.0603 0 01.0012 0 .0603.0603 0 01.0061 0h.354a.0603.0603 0 110 .1202l-.1142.0006v.6822a.0625.0625 0 01-.125 0v-.6828h-.1148a.0603.0603 0 01-.0073-.1202zm2.7408 0a.0603.0603 0 01.0012 0 .0603.0603 0 01.0061 0h.3527a.0603.0603 0 110 .1202l-.1123.0006v.6822a.0625.0625 0 01-.125 0v-.6828h-.1154a.0603.0603 0 01-.0073-.1202zm-.6779.0037a.0625.0625 0 01.0122 0h.1898a.364.364 0 01.208.058.278.278 0 01.108.2056.2346.2346 0 01-.0714.1976.3055.3055 0 01-.1165.0751l-.0201.0073.158.2008a.0856.0856 0 01.0226.0549c-.0013.0318-.023.0512-.0598.0512a.066.066 0 01-.0556-.028l-.1873-.2581h-.1171v.23a.059.059 0 01-.0629.0671.06.06 0 01-.0622-.0671v-.726a.0728.0728 0 01.0165-.0489.0625.0625 0 01.0378-.0195zm-3.8701.0018a.0604.0604 0 01.0036 0h.3564a.0604.0604 0 010 .1208l-.116.0006v.6834a.0625.0625 0 01-.125 0v-.684h-.1154a.0604.0604 0 01-.0036-.1208zm.5827.0006a.0625.0625 0 01.0024 0 .0625.0625 0 01.0647.0629v.4716a.2583.2583 0 00.0372.1507.1465.1465 0 00.1275.0561.138.138 0 00.1245-.056.2652.2652 0 00.0348-.1508v-.4716h.0018a.0625.0625 0 01.125 0v.4326a.4742.4742 0 01-.0567.2617.25.25 0 01-.2282.1043.26.26 0 01-.2288-.1043.4564.4564 0 01-.0622-.2624v-.432a.0625.0625 0 01.058-.0628zm3.3545.1141v.3283l.13-.0006a.18.18 0 00.2001-.1733.1493.1493 0 00-.0512-.1092.1778.1778 0 00-.1294-.0452zm-.5845.0153l-.136.4686h.2788zM12.1364 9.412c.011-.0004.021.0019.022.011.0018.018-.0162.0286-.0422.042a.2062.2062 0 00-.094.0806.3105.3105 0 00-.039.1623.1153.1153 0 00.0629.0787.2983.2983 0 00.1421.028.5017.5017 0 00.2148-.0622.5814.5814 0 01.2758-.0201.3411.3411 0 01.1946.0622c.0231.0172.0191.0384.011.041-.0144.0046-.0292-.0123-.044-.0098a.6741.6741 0 00-.1421.0292c-.0603.027-.0872.0366-.116.091a.099.099 0 00-.0072.072c.0096.024.0349.0401.0408.0573a.4455.4455 0 00.0629.125.205.205 0 00.0311.0233 2.6682 2.6682 0 01.2813.2422.2605.2605 0 01.039.0933c.004.0116-.0067.0304-.017.0245a.2552.2552 0 01-.0367-.0281.178.178 0 00-.053-.039.3677.3677 0 00-.1752-.0257c-.0274.0003-.0818.0248-.0506.036a.3574.3574 0 01.1318.116.4299.4299 0 01.1074.3111c0 .005-.0119.0093-.0147.0049a.3586.3586 0 00-.1025-.1086.324.324 0 00-.2099-.0622c-.0153.0012-.0592 0-.0549.0146a1.1902 1.1902 0 01.1227.191.5623.5623 0 01.039.2758c-.0006.005-.0194.0089-.0226.0048a.6095.6095 0 00-.0774-.0762.349.349 0 00-.094-.0598.2899.2899 0 00-.2038.028.3246.3246 0 00-.1293.1324.492.492 0 00-.0623.2044.4595.4595 0 00.0421.257.3683.3683 0 00.1898.164.955.955 0 00.3337.0446c.139.0047.2777-.0161.4167-.0202a1.9434 1.9434 0 01.3966.003.8803.8803 0 01.299.1203 2.6397 2.6397 0 01.216.1824c.0078.0063.0263-.0032.0348-.0085a.4617.4617 0 00.1312-.233.3464.3464 0 00-.0562-.246c-.0471-.0859-.1156-.181-.169-.2709a2.9618 2.9618 0 01-.2025-.2959.3049.3049 0 01-.0177-.2209.2377.2377 0 01.1073-.1281c.011-.0066.0221.0067.0165.0213a.184.184 0 00-.0073.1117.3199.3199 0 00.0885.141c.0134.0096.0477-.0058.0549-.022.0187-.0428.0072-.1097.0238-.1538a.6185.6185 0 01.108-.2257 1.4701 1.4701 0 01.3593-.1959c.0332-.019.0544-.1052.0916-.0915.0371.0137.0162.101-.0116.1422-.0403.0624-.0869.0996-.1312.1562a1.536 1.536 0 00-.1562.2465.2218.2218 0 00-.0293.1372.1393.1393 0 00.0732.094c.0219.0103.0496-.0097.069-.0244a.3849.3849 0 00.0976-.1037c.0228-.0381.0105-.0885.0317-.1276.0063-.0087.0307-.0074.0372 0a.139.139 0 01.044.0836.3927.3927 0 01-.0098.113c-.0028.0087-.0242.0276-.0311.0457a.2443.2443 0 01-.0201.0402c-.036.0625-.0773.1154-.1245.1251-.0106.0016-.0172.0215-.011.0311a.3911.3911 0 00.1141.1312.198.198 0 00.1513.0092c.0269-.0075.048-.026.0793-.036.0128-.004.0055.004.0055.017a.2705.2705 0 01-.0152.0855.1896.1896 0 01-.0757.083.3946.3946 0 01-.1653.05c-.0272.0056-.0683.025-.0586.0512a.2559.2559 0 00.042.0849.1218.1218 0 00.08.039.2052.2052 0 00.1251-.0354c.04-.026.0614-.0749.0958-.108.0072-.0065.0268-.0011.0268.0086a.3593.3593 0 01-.0414.1592.4967.4967 0 01-.1276.1379c-.0156.0125-.0335.0288-.0335.0488a.2.2 0 00.0439.0842.134.134 0 00.083.0537.269.269 0 00.1007 0v.0006c.0121-.0012.0103.0224-.0019.0305a.2527.2527 0 01-.1165.0684.25.25 0 01-.1281.0073c-.0813-.019-.1342-.0495-.2142-.0726a.2293.2293 0 00-.1348-.0086.2265.2265 0 00-.1062.0824.133.133 0 00-.0293.064c-.006.0635.0246.1307.0049.1917a1.4151 1.4151 0 01-.0818.2342 1.314 1.314 0 01-.1147.1648c-.0406.054-.0927.0743-.1196.1336a.6382.6382 0 01-.0378.0629.5151.5151 0 00-.058.2288.452.452 0 00.0842.2086l.1532.2374a.149.149 0 01.0091.083.0878.0878 0 01-.0439.0695.8931.8931 0 00-.4186.5278l-.0024.0128v.0037a.1062.1062 0 01-.0213.0427.334.334 0 01-.1898.0958c-.0553.0146-.1104.0288-.1647.0457a.0772.0772 0 00-.044.0311.0797.0797 0 00.0086.097.1371.1371 0 01.031.0714.0625.0625 0 01-.014.0415.108.108 0 01-.028.022.8653.8653 0 01-.216.0872c-.0506.0113-.0861-.0017-.0702-.0591a3.0752 3.0752 0 01.0983-.2935.4195.4195 0 01.133-.1404 2.289 2.289 0 01.2123-.1616.4111.4111 0 00.1184-.1251 3.2986 3.2986 0 01.191-.2758.163.163 0 00.028-.1281.2459.2459 0 00-.1415-.1855 1.0524 1.0524 0 00-.0855-.0336.5342.5342 0 01-.2458-.175.0897.0897 0 00-.0623-.0398c-.063.0016-.0805.0886-.0824.1373a1.1702 1.1702 0 00.0037.2118.1803.1803 0 01.0037.0726.0547.0547 0 01-.0385.0341 2.7397 2.7397 0 00-.565.2783.2393.2393 0 00-.0628.0707l-.017.0281a.1874.1874 0 01-.2234.0805.5008.5008 0 00-.044-.011.0937.0937 0 00-.064.0165.1618.1618 0 00-.0409.036.0606.0606 0 00-.0104.019v.0066a.0569.0569 0 000 .0074.0694.0694 0 00.0043.0177l.022.0598a.0662.0662 0 01-.0378.0964.881.881 0 01-.2026.0543c-.041.0056-.0753-.01-.0653-.0568a1.0996 1.0996 0 01.0702-.2367.0937.0937 0 01.0567-.061.79.79 0 00.1788-.1398.2662.2662 0 01.169-.072.5123.5123 0 00.2617-.1012 1.73 1.73 0 00.2258-.185.3708.3708 0 00-.0061-.4593l-.0195-.0354c-.0194-.0297-.0302-.0737-.0464-.105a.2393.2393 0 01-.039-.103c0-.0685.0264-.1336.031-.202a.0237.0237 0 00-.0164-.0245.4883.4883 0 00-.1373-.0292 2.6769 2.6769 0 01-.5589.0048 1.423 1.423 0 01-.3899-.1787c-.0534-.0338-.0863-.0707-.1397-.102-.0137-.0084-.0156-.005-.028.0056a.672.672 0 01-.4589.125h-.0024a1.7663 1.7663 0 01-.2941-.0762c-.0731-.0275-.1906-.074-.2605-.0153-.0281.0253-.0208.06-.0208.0934a1.2436 1.2436 0 01-.0104.305.0381.0381 0 00.0031.0312.044.044 0 00.0055.006.1359.1359 0 00.036.0202l.0097.0037c.029.01.0341.0232.05.058a.1959.1959 0 01.0166.0622.1587.1587 0 01-.0025.0622.5438.5438 0 01-.0091.039.2071.2071 0 00.0079.1355.1153.1153 0 00.042.0525.0728.0728 0 00.0099.0042.0625.0625 0 00.0097.0025.0684.0684 0 00.0104 0h.0104a.074.074 0 00.0195-.0073l.0036-.0025a.05.05 0 01.0354-.0122.0456.0456 0 01.0104.003.0793.0793 0 01.0622.0739.4839.4839 0 01-.0457.2215.0581.0581 0 01-.0769.0299c-.006-.0022-.0124-.0045-.0183-.0073a.4445.4445 0 01-.1397-.1166.1906.1906 0 01-.0488-.1123.1209.1209 0 00-.0287-.0817.0897.0897 0 00-.0317-.0165.1443.1443 0 01-.0708-.0451.2677.2677 0 01-.0513-.219 1.4995 1.4995 0 00-.0457-.6407.1487.1487 0 01.0018-.1074c.005-.0144.0102-.029.0159-.0433a.1478.1478 0 01.0067-.0165.0594.0594 0 01.042-.0317.1674.1674 0 01.0294-.0025 1.5157 1.5157 0 00.4496-.0695.1518.1518 0 01.0623-.0104c.0243.0016.0488.0012.0732.0012.0297.0003.06-.027.0244-.0488a.8466.8466 0 01-.0842-.0879.0456.0456 0 00-.0519-.022.0719.0719 0 00-.0097.005l-.0092.0054a.098.098 0 01-.152-.0292.824.824 0 01-.0872-.202.5554.5554 0 00-.1092-.2386.235.235 0 00-.1897-.0628.2165.2165 0 00-.1312.0982c-.0213.0294-.0416.0588-.0622.0885a.1437.1437 0 00-.0312.0665.1072.1072 0 000 .0159.1393.1393 0 00.008.0317.1334.1334 0 01-.0385.1544c-.0312.0253-.0627.049-.094.075a.0875.0875 0 00-.031.061.5273.5273 0 01-.0116.0592.1296.1296 0 00-.003.0452.0878.0878 0 00.0024.0116.0812.0812 0 00.031.0402.1562.1562 0 01.0129.0116.0737.0737 0 01.0122.0171.0606.0606 0 01-.0122.0696.2187.2187 0 01-.0238.022.7535.7535 0 01-.1904.1073.0975.0975 0 01-.0256.0067c-.0381.0022-.0503-.0267-.0525-.0598-.0025-.0447-.0024-.0895-.0024-.1342a.2068.2068 0 01.0567-.1373.3605.3605 0 00.072-.2251.1965.1965 0 01.0403-.1306.3052.3052 0 00.0567-.0903.2568.2568 0 01.039-.0653 3.8612 3.8612 0 00.2814-.3838c.0537-.0865.1549-.1922.2367-.0732a.357.357 0 00.078.0842 2.3948 2.3948 0 00.2588.1641c.0937.0528.1091-.0423.125-.1214v-.003a.3311.3311 0 01.038-.0922 1.2593 1.2593 0 01.2025-.2465c.043-.0384.1051-.0763.1495-.1134.0184-.016.023-.0178.031-.0397.0082-.0219.0236-.05.0336-.0775.01-.0275.0145-.055.0238-.0763a.3436.3436 0 00.0433-.0982v-.003a.0234.0234 0 000-.005v-.0073l-.0024-.0067a.0497.0497 0 00-.0213-.0238.18.18 0 00-.102-.0262h-.0024a.3842.3842 0 00-.1482.0311.1059.1059 0 00-.0544.0543.2259.2259 0 01-.042.0623.098.098 0 01-.1306.0067c-.0231-.016-.0131-.0438 0-.0629a.4136.4136 0 00.036-.0512.0419.0419 0 00.0049-.0238v-.0049l-.0025-.0043a.0312.0312 0 00-.0049-.0067.0456.0456 0 00-.0451-.0067.9795.9795 0 00-.0824.0275.0644.0644 0 01-.094-.047.1737.1737 0 01-.0036-.055.0547.0547 0 01.0409-.05c.0197-.0059.0492-.0174.0451-.0427a.0787.0787 0 010-.0225.0522.0522 0 01.0122-.0238.1409.1409 0 01.0311-.0257 3.8687 3.8687 0 00.3185-.2337.0503.0503 0 01.0641-.0097l.011.0055a.2234.2234 0 00.1507.0195.0456.0456 0 00.0409-.0287.025.025 0 000-.0055v-.0055l-.0019-.0055-.003-.0042a.071.071 0 00-.0354-.0208l-.058-.0213a.269.269 0 01-.0518-.0244.0528.0528 0 01-.025-.0592c.0225-.1128.1473-.1137.241-.105h.0042a.5055.5055 0 00.1404-.0225c.0587-.021.1051-.0671.1623-.094.0571-.0269.1173-.0568.1763-.0793.0178-.0066.0329-.0023.0488-.0092a.0912.0912 0 00.0348-.025.9653.9653 0 01.1422-.1629.8216.8216 0 01.2355-.0921.1069.1069 0 01.0299-.0061zm-.4253.557a.2187.2187 0 00-.105.0257c-.0087.0056-.015.016-.0085.0238.0188.0218.049.0312.0702.0506a.1596.1596 0 01.0348.0464c.009.0184.0248.0401.0329.0592a1.2955 1.2955 0 01.0458.1232 1.2268 1.2268 0 01.0506.2087c.0088.0578.0057.1173.0085.1757 0 .0272.0007.0583 0 .0811-.0006.0228-.0005.0465-.0024.0696a1.143 1.143 0 00-.0043.0982v.08c.0025.0706.0133.119.0446.119a.1793.1793 0 00.0836-.0178.1753.1753 0 00.0848-.1488 2.0256 2.0256 0 00-.003-.5754.5101.5101 0 00-.1874-.3624.2187.2187 0 00-.1446-.0568.2187.2187 0 01-.0006 0zm3.9604.1611h5.1765c-.0169.8246-.0341 1.6005-.0506 2.263h-5.129l.0031-1.8621zm-.0067 2.5443h5.1234a9.6967 9.6967 0 01-.5449 2.911 14.495 14.495 0 01-1.5601 3.1172 12.4504 12.4504 0 01-2.415 2.6694 10.8088 10.8088 0 01-1.1476.8475 14.5916 14.5916 0 01-1.9592.9994c-.2243.0962-.4186.1865-.5967.2471-.1924.065-.3573.125-.4735.1562v-.1147l.003-7.2955a3.5522 3.5522 0 00.3155-.0232c.0056.0147.0158.0567.0317.1007a.3333.3333 0 00.2185.1654.3168.3168 0 00.3057-.1074.3727.3727 0 00.388.067.2352.2352 0 00.1751-.2269.4295.4295 0 00-.033-.2074l-.036-.066a3.9246 3.9246 0 00.7438-.4093l.0214-.0067c.3717-.094 1.8708-.6312 2.7902-.6437a3.2801 3.2801 0 011.6266.391 2.7925 2.7925 0 01.6822.5602c.0059.008.0128.027.0372.031a.0356.0356 0 00.0335-.0219 1.1387 1.1387 0 00.0794-.5155c-.02-.2821-.2998-.4865-.3826-.5705-.0031-.0032-.0098-.021.019-.041a.6745.6745 0 01.1055-.0853.9831.9831 0 01.5619-.2111c.03.003.0203-.0413.0122-.0763-.0584-.25-.4146-.4117-.7895-.3539a.9625.9625 0 00-.6138.4167c-.0072.0113-.0418.0275-.0555.0128a2.9265 2.9265 0 00-.3692-.1067c-.045-.0106-.021-.0441-.0189-.0494a1.0034 1.0034 0 01.3039-.338 1.1246 1.1246 0 01.4936-.224c.0221 0 .022-.0294.0164-.039a.5498.5498 0 00-.3746-.3027.8435.8435 0 00-.781.1398 1.397 1.397 0 00-.4448.673c-.0134.0206-.0179.036-.036.0323-.0984-.0203-.3448-.0073-.3667-.022-.0153-.0069-.012-.0292-.0085-.0451a.9097.9097 0 01.2215-.3808.8822.8822 0 01.3636-.2855.055.055 0 00.0098-.094.9806.9806 0 00-1.2185.263 2.1918 2.1918 0 00-.305.6962c-.002.0087-.017.036-.036.036l-.5077.1122-.083.019c-.0172.0178-.0053.0052-.022.0225a3.2895 3.2895 0 00.4967-1.6486zm-12.4506.0848h5.19v.0903a3.1446 3.1446 0 00.8376 2.0977H3.5565a9.7395 9.7395 0 01-.3423-2.188zm.4162 2.443h5.8622a2.566 2.566 0 00.1123.0989 3.8968 3.8968 0 002.1709.8987v1.2105H4.5553a13.789 13.789 0 01-.8005-1.8273 10.401 10.401 0 01-.1244-.3808zm10.5841.2899l-.011.0115h-.0012l-.0024-.0012a3.2895 3.2895 0 00.0146-.0103zm1.7377.1848a.9113.9113 0 00-.5076.155.9337.9337 0 00-.3917.41 2.65 2.65 0 00-.1715.775.0625.0625 0 01-.0384.0353 2.8965 2.8965 0 00-.335.0866.0262.0262 0 01-.0226-.0207 1.105 1.105 0 01.1489-.726.8863.8863 0 01.2184-.263.0375.0375 0 00-.017-.0684.9806.9806 0 00-.648.1141.8878.8878 0 00-.4521.6675 1.5885 1.5885 0 00.042.5937c0 .0062.006.0267-.0158.031-.0762.0366-.2814.1451-.3551.18-.005.0023-.0182.0052-.022-.006a.5804.5804 0 00-.2678-.3582.5264.5264 0 00-.446.022.5483.5483 0 00-.216.2245.3749.3749 0 00.1269.4552c.0062.0056.0168.0188 0 .025-.0897.0481-.0915.059-.1593.161a.428.428 0 00.0519.4492.4648.4648 0 00.6998.0823c.0038-.0028.0175.0049.025.0195a.5476.5476 0 00.1428.152.4633.4633 0 00.4546 0 .4133.4133 0 00.2099-.415.3783.3783 0 00-.1105-.2629c-.0128-.0153.0005-.0236.0342-.0458a5.4044 5.4044 0 011.9604-.6662 3.1214 3.1214 0 011.0757.022 1.5039 1.5039 0 01.6284.3123 2.841 2.841 0 01.4064.4021.1643.1643 0 00.1171-.025.6598.6598 0 00.014-.5168 1.6041 1.6041 0 00-.3837-.5894c-.0032-.0028-.0034-.0142-.0037-.0201-.0034-.0313.015-.0453.0519-.0794a1.2111 1.2111 0 01.562-.2977c.0271-.0016.0378-.0212.0207-.0525a.656.656 0 00-.8085-.2983l-.0012.0006a.9156.9156 0 00-.4533.4155c-.0063.0112-.0229.05-.0373.0378-.09-.0078-.2422-.0312-.3313-.039-.0412-.0028-.0247-.0396-.0238-.0452a.7441.7441 0 01.1935-.3167 1.1762 1.1762 0 01.4447-.3178.021.021 0 00.016-.0312.6267.6267 0 00-.465-.2288.8091.8091 0 00-.6169.238 1.2552 1.2552 0 00-.3374.7407c-.0087.0225-.02.0339-.0366.0342a1.9993 1.9993 0 01-.2788.0256c-.0144-.0044-.014-.0204-.0134-.0366a.9094.9094 0 01.1012-.4057 1.4914 1.4914 0 01.5492-.5821c.0368-.025.0387-.0758.0268-.0818a.9113.9113 0 00-.3551-.0714zM4.7066 17.6917h7.0692v2.191H6.213a11.2368 11.2368 0 01-.8981-1.1818 16.4456 16.4456 0 01-.6084-1.0092zm10.0766 1.1758a.4973.4973 0 00-.2734.0695.9819.9819 0 00-.4747.5601 1.0906 1.0906 0 00.0122.5711c.0025.0072.0113.0237-.0018.0293-.0781.0313-.1367.0658-.2135.0964-.0038 0-.0238.0055-.0275-.0049a.631.631 0 01.0873-.7358c.0174-.015.0267-.0348-.008-.047a.5882.5882 0 00-.5308.1928.677.677 0 00-.1172.659.9225.9225 0 00.0989.2611c.0028.0047.0312.0212.0146.0281-.0553.0431-.0966.0732-.15.1147-.0035.0028-.014.0078-.019 0a.4864.4864 0 00-.2898-.238.3414.3414 0 00-.3179.088.3614.3614 0 00.1477.6021c.0062.0028.0167.0117.0049.0195a.587.587 0 00-.1898.213.377.377 0 00.0848.4057.3702.3702 0 00.2904.0885.6054.6054 0 00.3564-.3124c.0015-.0034.0214-.0173.031-.0067a.531.531 0 00.2637.2001.3243.3243 0 00.3233-.0647.3499.3499 0 00.111-.4002.6092.6092 0 00-.2013-.216c-.013-.01-.0027-.0346.0232-.0543a2.9721 2.9721 0 011.4021-.6205 1.8013 1.8013 0 011.0245.166 1.547 1.547 0 01.3374.2666c.0134.0075.0503.02.0628.008a.397.397 0 00.0354-.548.6542.6542 0 00-.2056-.1641.0431.0431 0 01-.0073-.0153.906.906 0 01.3008-.393 1.382 1.382 0 01.2953-.1433c.0215-.0062.0182-.0195.0067-.0464-.1275-.293-.6348-.3044-.8737-.1513a1.0878 1.0878 0 00-.346.3972c-.0053.0094-.0119.039-.0256.0311l-.2123-.0646c-.0047 0-.0047-.0237-.0025-.0281a1.1146 1.1146 0 01.6962-.5644c.015-.0062.0101-.02.0067-.028-.1096-.2687-.6609-.2457-.9299-.0739a1.1674 1.1674 0 00-.493.7139c-.003.0197.0062.0362-.0073.0396a1.2386 1.2386 0 01-.2294.055.0237.0237 0 01-.0226-.0226.642.642 0 01.0678-.3923 1.9993 1.9993 0 01.3233-.4082.0431.0431 0 00-.0024-.0629.4973.4973 0 00-.2361-.0695zm-3.0062 1.296v3.4173c-.0978-.0321-.2142-.0734-.3423-.1171-.1777-.0597-.3724-.151-.5967-.2471a14.5866 14.5866 0 01-1.9592-.9994 10.816 10.816 0 01-1.1477-.8475 12.861 12.861 0 01-1.266-1.2057h5.3107Z"/></svg>