<svg role="img" viewBox="0 0 24 24" xmlns="http://www.w3.org/2000/svg"><title>Portainer</title><path d="M8.4 15.737a2.556 2.556 0 00-1.649 1.66l-.06.178h-.296c-.726 0-1.242.224-1.786.768-.314.319-.403.44-.525.745-.224.535-.28 1.008-.182 1.472a2.619 2.619 0 001.162 1.701c.155.098.38.216.501.253.324.108.844.164 1.125.127l.253-.038.117.192c.22.347.685.76 1.055.933 1.022.487 2.076.314 2.906-.473l.342-.328.117.093c.365.3 1.176.535 1.678.488a2.805 2.805 0 001.4-.581c.573-.478.891-1.078.938-1.772.038-.506-.042-.886-.276-1.354-.188-.37-.188-.38-.136-.638.065-.328.065-.81 0-1.13-.09-.416-.39-.937-.727-1.255-.407-.38-.707-.544-1.232-.661-.422-.098-.455-.098-.881-.028-.31.047-.553.122-.774.234l-.328.16-.21-.197c-.647-.624-1.664-.844-2.531-.549zM4.25 12.644a4.01 4.01 0 00-.244.69 3.653 3.653 0 001.054 3.645l.324.3.365-.065c.202-.038.422-.057.492-.047.113.014.136-.005.183-.15.398-1.233 1.753-2.006 3.13-1.79.437.07.975.276 1.224.473.103.084.197.145.206.136.01-.01.052-.127.094-.253.29-.9.22-2.1-.169-2.873l-.145-.29H4.37zm4.536-2.413c-.014.033-.019.468-.014.97l.014.914.975.014.97.01-.01-.971-.013-.975-.952-.014c-.745-.01-.956 0-.97.052zm-2.18.923v.984h1.922V10.17H6.606zm-2.169-.951c-.019.014-.033.459-.033.984v.951h1.922V10.17h-.928c-.511 0-.947.014-.961.033zm2.17-1.205v.984H8.527V8.014H6.606zm-2.203 0v.984h1.922V8.014H4.404zM12.511.506v.506l-.923.53c-.511.295-1.19.684-1.514.872-.323.187-.858.496-1.195.688-.333.193-1.022.591-1.523.886l-.914.535-1.51.014-1.513.014v.745h5.343v3.608h1.968V5.296h1.78v10.39l.306.033c.168.018.337.042.374.056.061.023.07-.553.07-5.226V5.296h.516v10.582l.249.15c.13.084.3.206.375.272l.126.122V5.296l3.028-.01 3.027-.014V4.57l-.647-.023-.651-.023-.445-.263c-.244-.145-.877-.51-1.406-.815l-1.406-.811a33.893 33.893 0 00-.75-.431c-.169-.094-.59-.338-.937-.54a33.099 33.099 0 00-.853-.491l-.225-.118V0h-.75zm0 2.704v1.336l-2.282-.005c-2.166 0-2.283-.004-2.175-.08.117-.084.872-.524 3.51-2.038.328-.192.67-.389.76-.445.088-.057.168-.103.178-.103.004 0 .009.6.009 1.335zm1.176-1.059c.216.122.605.347.863.497.257.15.815.473 1.241.717 1.622.937 1.899 1.097 1.945 1.139.024.023-.857.042-2.216.042h-2.26V3.234c0-.722.01-1.313.02-1.313.009 0 .192.104.407.23zM10.355 6.14v.844H9.137V5.296H10.356z"/></svg>