<svg role="img" viewBox="0 0 24 24" xmlns="http://www.w3.org/2000/svg"><title>Posts</title><path d="m9.062 23.773-6.126-1.64a3.482 3.482 0 0 1-2.462-4.265L4.571 2.58A3.482 3.482 0 0 1 8.835.12l12.229 3.277a3.482 3.482 0 0 1 2.462 4.264l-2.46 9.184a6.647 6.647 0 0 1-3.098 4.036l-3.862 2.23a6.647 6.647 0 0 1-5.044.663ZM2.31 18.36a1.583 1.583 0 0 0 1.119 1.939l5.809 1.556 1.229-4.586a3.482 3.482 0 0 1 4.264-2.462l4.586 1.23 2.375-8.867a1.583 1.583 0 0 0-1.119-1.938L8.343 1.954a1.583 1.583 0 0 0-1.938 1.119L2.309 18.359Zm16.257-.559-4.328-1.16a1.583 1.583 0 0 0-1.938 1.12l-1.16 4.327a4.748 4.748 0 0 0 2.016-.622l3.863-2.23a4.75 4.75 0 0 0 1.547-1.435Z"/></svg>