<svg role="img" viewBox="0 0 24 24" xmlns="http://www.w3.org/2000/svg"><title>PostCSS icon</title><path d="M23.95 10.44c-.016-.317-.024-.633-.057-.95-.057-.43-.113-.868-.21-1.29a7.299 7.299 0 0 0-.316-1.014c-.154-.39-.308-.787-.503-1.16-.316-.6-.729-1.136-1.11-1.696-.252-.357-.576-.649-.819-1.014-.137-.21-.34-.39-.543-.551a14.13 14.13 0 0 0-1.004-.723c-.26-.178-.519-.348-.795-.503-.218-.122-.453-.22-.68-.325-.26-.121-.51-.268-.802-.324-.073-.016-.138-.04-.211-.065-.186-.065-.364-.138-.551-.195-.283-.089-.559-.194-.85-.267A7.809 7.809 0 0 0 14.631.2c-.324-.047-.656-.064-.98-.096a8.222 8.222 0 0 0-.624-.057c-.308-.016-.624-.016-.932-.024-.154-.008-.316-.024-.47-.016a6.89 6.89 0 0 0-.705.065c-.226.024-.453.064-.672.097-.267.033-.534.05-.802.082-.25.032-.51.081-.761.122-.09.016-.179.048-.268.064-.194.04-.396.057-.591.122a16.47 16.47 0 0 0-1.037.357c-.316.13-.624.268-.924.43-.307.17-.6.373-.89.568-.277.187-.552.381-.82.592-.259.203-.502.43-.737.658-.13.129-.235.283-.357.43-.202.235-.404.462-.599.705-.161.204-.308.414-.462.625-.275.373-.51.77-.728 1.169-.09.162-.17.324-.251.486-.122.243-.252.479-.365.73a3.11 3.11 0 0 0-.195.544c-.113.398-.226.804-.331 1.2-.098.358-.122.731-.13 1.096-.008.325.024.641.057.966.008.081-.04.178.056.243-.032.09-.008.139.04.154-.056.09.025.146-.007.228-.008.016.024.048.04.072 0 .025-.008.057 0 .082.009.073.04.146.04.227 0 .057.05.122.065.179.008.024 0 .064-.016.08-.048.057-.04.106.033.138.04.106.024.154.016.204.016.072-.008.097 0 .113.065.13.09.276.097.422 0 .032.016.065.033.105.008 0 0 .154 0 .154.04-.024.073-.032.113-.048.025.105.049.203.081.292.04.065.04.097.025.105.032.146.048.284.104.422 0-.154-.015-.308-.04-.454.114.04.211.08.276.08.008-.024.016-.056.025-.072-.05-.048-.09-.121-.138-.17.016.065 0 .09 0 .114-.033-.017-.073-.033-.114-.05.033-.04.065-.08.114-.129 0-.073-.04-.138-.154-.13.048-.016.097-.04.154-.057.089-.048-.008-.137-.008-.251.008-.138-.073-.276-.098-.422-.04-.227-.032-.567-.056-.795-.049-.04-.09.065-.098.073.025.195.05.39.065.584-.048-.162-.08-.34-.121-.535-.008.057-.016.08-.016.114-.04.04-.008.089.016.145-.057-.024-.122-.016-.122-.016v.228c-.08-.082-.104-.146-.145-.204-.016-.064-.025-.129-.04-.194.015-.04 0-.065 0-.089a4.868 4.868 0 0 1-.025-.195.667.667 0 0 0-.008-.13c.065.009.106.016.146.016-.081-.105-.025-.17.008-.235.016-.033.073-.04.09-.073.064-.122.17-.219.17-.373 0-.073.024-.154.032-.228.016-.138.032-.276.04-.413.017-.179 0-.358.041-.528.065-.283.146-.567.235-.851.065-.204.138-.398.219-.6.122-.317.235-.634.39-.934.218-.438.469-.86.712-1.29a15.2 15.2 0 0 1 .487-.779c.161-.251.323-.51.51-.746.26-.333.543-.641.859-.917.324-.292.632-.592.98-.86.453-.35.932-.658 1.442-.926.413-.218.842-.39 1.272-.552.275-.105.575-.154.859-.243.324-.106.648-.154.988-.162.219-.008.43-.033.648-.057.195-.015.389-.032.6-.056a.267.267 0 0 0-.04.064c-.09.13-.187.26-.276.39l-.227.324c-.13.171-.268.341-.389.52-.186.268-.357.544-.551.811-.194.26-.405.503-.608.755-.267.349-.518.705-.785 1.054-.244.333-.502.65-.737.982-.211.292-.398.6-.6.9-.3.447-.6.885-.9 1.331-.234.34-.47.673-.712 1.014-.016.025-.04.032-.065.049-.065.105-.065.162-.09.21a4.458 4.458 0 0 1-.202.358c-.04.064-.097.12-.146.186-.008-.097.13-.146.065-.268-.04.065-.081.122-.121.187l-.098.194c.033.024.09.04.033.09-.025.04-.049.088-.073.13a.294.294 0 0 0 .089-.082c0 .09-.049.162-.09.235-.032.065-.113.114-.17.162.009.008.065.033.074.041.073-.025.097-.065.105-.04.025-.033.049-.057.057-.082a.293.293 0 0 1 .162-.178c.032-.016.056-.041.08-.065.244-.252.495-.495.714-.763.34-.414.648-.843.973-1.265.137-.179.3-.357.445-.528.024.187.008.365 0 .536-.025.3-.04.6-.065.908-.008.122 0 .243-.008.365 0 .032-.025.057-.025.09 0 .08.025.17.025.251-.025.3-.057.592-.082.892-.008.065.024.13.04.187-.04.438.05.9-.024 1.363.057-.09.073-.146.073-.202.008-.05 0-.098 0-.154v-.082c.008-.146.04-.3.024-.446a1.518 1.518 0 0 1 .016-.47c.017-.065-.007-.147.033-.228v.122c-.008.462.008.924-.056 1.387-.009.04.024.114-.065.105-.073.146.016.252-.065.333-.016.016.016.09.024.138-.033.097-.033.097.016.105.008.179.025.341.032.512.13-.308.065-.625.122-.942.008.13.017.26.008.397 0 .212-.008.414-.016.625 0 .04-.008.082-.016.122-.025.114-.032.227-.073.333-.032.081-.016.203-.016.3v.309c.032.138-.008.21.016.292-.025.081-.032.105-.025.13l.025.121c.162-.016.09.106.154.17-.049.066-.032.09-.032.123 0 .073-.008.138-.016.21 0 .187-.008.374-.008.552 0 .025.008.049.008.073l-.008.228c.016.024 0 .048-.025.073-.008 0-.032-1.03-.032-1.03h-.122c-.016.486.025.924-.064 1.379-.097.008-.13.024-.235.024-.252 0-.503 0-.754.008-.3 0-.591.008-.891.008-.146 0-.3.016-.446.016-.194 0-.397-.024-.59-.024-.301 0-.593.024-.892.032-.219.008-.438.008-.656.016-.146.008-.293.016-.438.032-.065.008-.122.033-.203.057-.024 0-.08-.008-.129 0-.081.016-.154.065-.235.081-.122.025-.154.057-.138.179v.08c-.008.017.178-.024.178-.024-.016 0-.024.049-.05.09l.147-.057c.122.057.227.025.324.05.316.08.64.113.964.145.21.016.413.024.624.032.3.016.6.033.899.033.251 0 .494-.025.745-.025.348 0 .697.016 1.045.025.073 0 .154-.01.235-.01h.591c.527-.015 1.054-.024 1.58-.04.3-.008.609-.024.908-.032l.924-.025c.356-.008.713-.008 1.062-.015.267 0 .526-.009.794-.017.3-.008.607-.032.907-.048.162-.008.324-.025.486-.041.195-.016.398-.04.591-.048.292-.017.592-.025.884-.041.365-.024.73-.057 1.102-.065.34-.016.688-.008 1.029-.016.3-.008.6-.025.908-.033l.51-.024s.34-.008.51-.025c.292-.016.584-.048.876-.056.186-.008.372 0 .559-.008.3-.008.607-.025.907-.025.113 0 .235.017.38.025-.064.057-.105.09-.153.13.032.008.064.024.097.04a.219.219 0 0 1-.13.04c-.016.041-.032.058-.049.139h.146c-.056 0-.105.073-.162.122-.064-.017-.121 0-.154.089.057.032.049.056.041.09-.097.031-.17.064-.13.17-.032.015-.073.031-.113.056-.04.065-.113.08-.097.17.032.008.064.025.089.032-.04.016-.081.04-.122.057-.145.09-.08.13-.048.17a.318.318 0 0 1-.073.041c.016.073.04.09.048.09a2.89 2.89 0 0 0-.121.097c-.025.073-.057.105-.09.154-.032.048-.048.113-.089.162-.17.187-.292.406-.51.552-.081.057-.154.13-.227.203-.146.138-.276.292-.43.422-.202.17-.412.324-.631.478a44.15 44.15 0 0 1-.802.552c-.146.097-.308.17-.462.26l-.454.259c-.097.065-.186.154-.292.203-.267.114-.55.21-.826.317-.268.113-.462.21-.664.283a4.555 4.555 0 0 1-.575.154c-.065.017-.138 0-.211.008-.138.025-.276.058-.414.074-.356.048-.713.081-1.07.13-.21.024-.413.064-.623.089-.146.008-.3-.008-.446-.008-.105 0-.218.024-.324.008-.17-.025-.34-.065-.51-.097-.04-.008-.098-.025-.13-.008-.064.032-.122-.016-.187 0-.04.008-.08-.025-.12-.025-.034-.008-.074.009-.115 0-.09-.024-.17-.056-.268-.048-.096.008-.194-.041-.298-.065l-.43-.098a.729.729 0 0 1-.162-.073c-.21 0-.349-.008-.478-.057-.113-.04-.219-.097-.34-.08-.032.008-.057-.008-.09-.008-.024-.033-.048-.098-.072-.098-.162.008-.26-.13-.397-.17-.073-.025-.13-.106-.203-.13-.178-.073-.323-.227-.526-.251-.065-.008-.13-.04-.203-.065.025.032.04.056.065.08-.235-.113-.453-.242-.672-.364-.032-.008-.057-.04-.081-.057l-.219-.146c-.121.025-.17-.025-.203-.04-.218-.155-.47-.252-.68-.422-.09-.074-.194-.122-.259-.212a1.28 1.28 0 0 0-.405-.316c-.122-.065-.235-.138-.348-.21-.057-.041-.114-.09-.114-.18 0-.056-.024-.113-.097-.08-.032-.05-.065-.106-.105-.122-.098-.04-.162-.114-.235-.179-.073-.064-.13-.154-.219-.186-.162-.065-.26-.203-.356-.316-.228-.268-.43-.56-.64-.844-.017-.024-.05-.04-.074-.065.032.09.073.162.113.243a.485.485 0 0 1-.186-.146c-.008.008.56.941.56.941.049.073.089.147.137.22a.25.25 0 0 1-.243-.13c-.073-.13-.154-.211-.316-.194a1.407 1.407 0 0 1-.04-.179c-.033 0-.057 0-.114-.008.114.179.211.333.316.511-.04-.024-.064-.04-.081-.049.145.154.25.35.437.447.04.186.251.275.3.454l-.114-.025c-.065-.08-.138-.162-.21-.25a.42.42 0 0 0 .072.145c.098.122.187.243.3.349.04.041.097.058.097.13.065.033.09.04.114.04.016.05-.008.123.089.106.065.122.13.122.219.082.105.105.162.114.235.049 0 .04.008.08.008.113.032-.016.024-.04.024-.081.04.032.065.049.081.065.081.114.154.219.267.308.154.13.292.268.438.39.283.235.6.43.916.608.389.22.762.455 1.158.665.478.252.989.423 1.515.544.195.041.381.081.576.13.17.05.34.122.51.162.26.057.527.106.786.154l.178.025c.073.016.162-.016.178.008.04.065.073.032.122.024.056-.016.121-.016.186-.016.227.008.445.056.672.04.05 0 .122-.04.163.04.073-.032.113-.032.145-.04.01.073 0 .073-.015.081-.016.008-.04.016-.073.04.291.057.567.065.81 0a2.72 2.72 0 0 0 1.135-.137c.032.04.056.097.105.016.016-.025.056-.033.09-.041.072-.016.161-.049.226-.025.073.025.097-.04.154-.04.097 0 .186-.008.275-.024.05-.008.098-.032.154-.049a.393.393 0 0 0-.178-.04c.097-.05.186-.09.276-.13-.016.024-.033.056-.065.056h.113c-.025 0-.057.073-.097.122l.818-.203c-.09-.17.097-.113.162-.21a2.517 2.517 0 0 1-.243.064c.275-.138.559-.26.834-.381-.04.049-.09.073-.162.114.049.008.081.008.106.015.129.041.097-.08.137-.154.154 0 .219-.024.292-.048.08-.025.162-.049.243-.081.13-.057.25-.13.38-.194.025-.01.065 0 .098 0 .09-.058.121-.106.145-.098.114.016.194-.025.227-.13.057-.04.097-.073.138-.098.178-.097.348-.194.526-.291.065 0 .097 0 .113-.008.106-.05.204-.106.3-.163a.696.696 0 0 1-.08-.04c.08-.016.104-.024.154-.04.194-.228.461-.382.664-.56.089-.009.089-.033.089-.05.032-.04.065-.088.105-.121.178-.162.372-.3.534-.47.235-.236.462-.48.673-.731.194-.228.39-.455.551-.706.227-.349.421-.706.624-1.072.146-.259.275-.518.422-.778.015-.025.048-.057.072-.057.219-.025.438-.04.649-.065.048-.008.105-.04.154-.064-.025-.04-.041-.09-.065-.13-.033-.05-.081-.09-.114-.139-.032-.04-.056-.09-.08-.137-.025-.04-.05-.073-.074-.114a2.947 2.947 0 0 1-.138-.276c-.008-.024-.025-.064-.016-.089.146-.316.202-.657.34-.973.138-.325.179-.69.243-1.039.057-.332.09-.665.13-.997.024-.236.056-.463.064-.698.05-.373.033-.722.025-1.072-.008-.307-.025-.624-.04-.932zM3.622 20.427c-.057-.065-.106-.138-.162-.203l.024-.024c.089.097.178.194.267.3-.049-.025-.105-.04-.13-.073zm.129.073c.025-.008.05-.008.073-.016.025.04.04.09.065.138-.113-.008-.17-.057-.138-.122zm8.427 3.35v-.024l.453-.048v.024c-.154.024-.3.04-.453.048zm2.041-.21c-.113.024-.235.04-.348.057-.04.008-.09.049-.105-.024-.016.008-.033.008-.049.016.04.121.138.024.219.073-.179.024-.348.04-.519.065v-.016l.154-.025v-.024a2.438 2.438 0 0 0-.243-.016c-.024 0-.056.032-.08.04-.033.008-.065.017-.106.017-.138.008-.275.008-.405.016-.008 0-.025-.008-.033-.008v-.025l1.62-.219c.009.016.009.033.017.049-.049 0-.081.017-.122.024zm.122-.08c.186-.025.357-.041.535-.066-.373.106-.494.122-.535.065zM7.284 7.177c.259-.357.526-.714.786-1.079.08-.106.145-.22.226-.325.025-.033.057-.049.098-.081l-.008-.016c.032-.04.064-.074.08-.106.042-.064.066-.138.098-.21a.119.119 0 0 1 .033-.032c.114.057.114-.065.154-.106a5.65 5.65 0 0 0 .21-.251c.049-.065.098-.122.138-.195.008-.024-.016-.065-.024-.097H9.05c.024-.016.048-.04.073-.057.008 0 .008 0 .016-.008a3.491 3.491 0 0 1 .462-.584c-.017.04-.033.081-.05.113.009 0 .009.008.017.008.097-.13.202-.251.3-.381-.009-.008-.017-.016-.025-.016-.04.04-.073.08-.113.122-.008-.008-.016-.017-.025-.017.082-.105.163-.21.243-.332a.96.96 0 0 1 .065.121c.033-.08.065-.137.09-.194-.025.024-.057.049-.081.073l-.025-.024.146-.22c.154-.218.308-.445.462-.665.057-.08.129-.146.178-.227.154-.308.397-.552.583-.836.041-.056.098-.105.146-.153.04-.05.073-.033.106.008.218.275.437.56.655.835.163.203.325.397.479.609.186.26.364.519.551.778.21.3.421.6.624.909.308.454.6.909.907 1.363.227.333.454.657.673.99h-.414c-.38-.008-.77-.04-1.15-.024-.519.024-1.045.081-1.564.122a22.89 22.89 0 0 1-1.977.064c-.235 0-.47.033-.705.05-.284.016-.56.032-.843.04-.332.016-.655.024-.988.033-.187.008-.38 0-.583 0zm9.293 3.732v.073c-.008 0-.016.008-.033.008-.032-.114-.064-.236-.105-.35a2.724 2.724 0 0 0-.316-.681c-.163-.227-.308-.462-.47-.697-.04-.057-.098-.106-.146-.154-.17-.187-.341-.382-.56-.52a6.614 6.614 0 0 0-1.012-.52 2.269 2.269 0 0 1-.284-.145h.194l1.386-.025c.3-.008.591-.008.891-.024.073 0 .113.025.154.09.073.12.146.243.227.364.008.016.024.04.024.065 0 .179 0 .365.008.544.008.186.025.365.032.552 0 .186-.016.38-.008.575.009.277.016.56.016.844zM7.859 8.193c.38-.016.745-.04 1.118-.057.29-.016.591-.025.882-.04.122-.009.236-.016.357 0-.13.065-.26.13-.373.21-.146.098-.283.228-.43.333a2.43 2.43 0 0 0-.396.373c-.154.187-.325.349-.487.527-.114.13-.243.252-.34.39-.138.178-.26.372-.389.576.04-.771.09-1.534.057-2.313zm5.29 7.805c-.259.065-.526.138-.794.17-.226.033-.461.025-.696.025-.212 0-.414-.008-.625-.025-.235-.024-.47-.048-.696-.154-.195-.09-.398-.17-.592-.268-.195-.097-.39-.21-.535-.389-.105-.13-.251-.235-.38-.349a.383.383 0 0 0 .17.235c-.041.049-.098.025-.18-.105-.023.016-.048.024-.064.032.025-.057.049-.114.073-.162-.032-.065-.073-.138-.105-.203a6.828 6.828 0 0 1-.186-.324c-.017-.025-.017-.05-.033-.073a1.804 1.804 0 0 1-.114-.147c-.064-.097-.121-.202-.202-.3 0 .025.008.049.008.082-.008 0-.016.008-.016.008l-.17-.414c-.008 0-.008 0-.017.008l.146.536c-.008 0-.016.008-.025.008-.023-.032-.048-.065-.064-.105-.016-.065-.065-.065-.105-.04-.025.015-.04.072-.033.096.057.138.122.276.187.414.016.049.032.09.057.138.008.016.032.032.032.057.033.065.057.13.098.186.073.098.154.195.227.292.072.098.137.203.201.3.008.017.033.017.04.025.041.122.18.21.276.162.025.187.227.252.308.43a3.737 3.737 0 0 1-.235-.105c-.008.008-.008.016-.016.032.097.049.194.097.283.154.082.05.163.097.236.154.097.089.21.138.347.17a.087.087 0 0 0-.015-.033c.227.106.462.22.64.308-.843.017-1.742.033-2.674.05 0-.154-.008-.3-.008-.455 0-.065.016-.121.008-.186-.025-.373-.025-.747-.073-1.112a7.947 7.947 0 0 1-.04-1.16c.008-.21-.009-.43-.017-.641 0-.284 0-.56.009-.844 0-.04.016-.073.032-.114h.025c.008.017 0 .041.015.05.025.024.066.064.082.056.048-.032.121-.064.138-.113a.795.795 0 0 0 .056-.3c0-.073.033-.122.065-.17.017-.025.025-.05.04-.082-.031-.024-.064-.04-.104-.073.032-.089.024-.195.146-.243.016-.008.016-.05.025-.073.007-.066.015-.139.024-.203.016.024.024.032.04.048.008-.016.016-.025.016-.025 0-.032-.008-.097 0-.097.097-.016.057-.121.105-.17.008-.009-.008-.033-.008-.05 0-.015 0-.04.008-.04.113-.024.097-.145.17-.202.025-.017.032-.04.065-.081.064.113-.049.17-.057.25.137-.08.178-.275.097-.332a.478.478 0 0 0 .09-.089c.089-.097.185-.187.267-.284.056-.073.089-.162.145-.235a.477.477 0 0 1 .146-.097c.146-.081.284-.17.373-.308a.407.407 0 0 1 .065-.049c.024-.016.073-.016.08-.04.01-.017-.015-.057-.031-.082.032-.016.064-.048.129-.08-.025.048-.032.08-.049.113l.04.04c.074-.057.187-.121.26-.17 0-.008-.04-.04-.04-.04-.05.025-.122.065-.195.097.015-.024.015-.04.025-.048.113-.073.226-.146.348-.203.283-.13.567-.26.85-.381.049-.025.114-.008.17-.008.025 0 .04 0 .065-.008.13-.04.26-.082.39-.114a.674.674 0 0 1 .178-.024c.242.008.485.008.728.024.105.008.203.032.3.065.121.04.251.097.365.153.137.074.267.155.397.244.235.154.453.325.688.463.227.138.405.324.551.535.179.252.381.479.462.787l.121.536c.025.097.082.194.057.308-.04.203-.073.414-.105.617-.016.081-.033.163-.024.243.015.252-.082.471-.179.698-.032.073-.081.146-.121.227a.244.244 0 0 0 .064.033l.073-.146c.009 0 .009 0 .016.008-.04.113-.073.235-.113.349-.097.251-.194.511-.316.754-.065.138-.179.252-.26.382-.08.113-.145.235-.226.34-.073.09-.146.18-.243.244a6.213 6.213 0 0 1-.68.454 1.7 1.7 0 0 1-.478.179zm-4.318-.431l-.008.008c-.017-.008-.041-.016-.057-.032l-.195-.293a.093.093 0 0 1-.016-.08c.09.138.179.267.276.397zm5.04 1.111a3.26 3.26 0 0 0 .94-.624c.04-.04.08-.081.13-.114.34-.21.59-.503.817-.827.26-.373.43-.795.64-1.193a.846.846 0 0 1 .05-.09c-.017.926.088 1.834.21 2.751l-2.787.098zm8.215-.243c-.008.016-.024.033-.032.05-.008-.017-.008-.042-.016-.075-.049.13-.154.066-.227.066-.437.008-.883.008-1.32.008-.422 0-.851 0-1.272.007-.138 0-.284.032-.422.04-.332.016-.664.025-.997.033-.024 0-.048-.04-.089-.073a.56.56 0 0 1-.049.073c-.008-.016-.024-.032-.04-.056a.456.456 0 0 1-.025.064h-.024c-.016-.113-.048-.218-.048-.332 0-.243.024-.487.032-.73.008-.114 0-.22 0-.325l.09.065a.69.69 0 0 1 .048-.08s-.016-.01-.033-.025c.016-.008.032-.024.032-.032.008-.025.025-.05.025-.065 0-.057-.017-.106-.025-.154.008 0 .017 0 .025-.01l.048.244h.025c-.033-.056.073-.105-.016-.17-.008-.008.008-.057.008-.081-.025-.048-.04-.097-.065-.162.008-.008.032-.016.057-.025-.033-.016-.057-.032-.081-.04.08-.073.08-.114.008-.195.016-.008.032-.008.032-.015 0-.073 0-.146-.016-.218-.016-.082.025-.179-.097-.228a.23.23 0 0 0 .032.064s-.024.008-.048.025c-.106-.098-.04-.228-.065-.373.057.016.097.032.138.049-.017-.057-.057-.122-.081-.195h-.033v-.536c0 .008.056.008.089.017 0-.008.008-.017.008-.025-.025-.032-.057-.065-.09-.105l.017-.017c-.065-.08-.033-.194-.033-.218v-.568c.082.081-.04.186.082.235v-.081h-.009c-.008-.122-.008-.243-.016-.365h-.016c-.008.016-.008.024-.016.04h-.016l.048-1.938c.081.105.17.203.227.308.186.34.43.633.656.941.195.268.373.56.551.836.219.332.43.665.648.997.162.252.333.504.502.747.154.219.317.43.479.641.137.187.283.373.42.56.163.227.325.454.487.673.08.114.17.227.259.34.049.065.122.115.17.155-.007 0-.016 0-.032-.008.025.032.04.056.057.073.09.048.097.097.049.17zm.414-2.028v-.057c0 .017.007.04 0 .057zm.275-3.577c-.008 0-.057-.05-.065-.058-.008.025 0 .05-.016.082-.008-.024-.064-.016-.064-.04-.009.113.048.227.04.34.024-.016.121-.024.146-.048a.064.064 0 0 0 .032.016c-.162.122-.121.243-.049.382.017.032.065.097.017.161-.017.017.008.065.016.106h.023v.015l-.072.025c-.017-.025-.113-.073-.113-.114v.414c.08.025.08.138.113.195a.24.24 0 0 0 .033-.064l.008.007c-.008.048-.016.097-.033.146-.016.073-.032.138-.04.21 0 .008.016.025.016.033-.089.203-.04.43-.073.64-.024.154 0 .317-.016.48-.016.137-.05.283-.081.421-.008.025-.025.032-.065.049a.656.656 0 0 0-.008-.252c-.009 0-.114-.057-.122-.057 0 .114.064.268.089.398-.025-.008-.122-.065-.13-.065-.016.097-.016.227-.024.332-.008.082-.081.154-.09.244 0 .049.057.08.05.162h.064c0-.162.073-.308.073-.478h.024c.009.016.033.032.025.04-.016.09-.05.187-.04.276 0 .049.04.097.024.154a.793.793 0 0 0-.033.17c-.008-.04-.016-.056-.016-.08l-.09-.008c-.007.048.057.097.05.138-.009.008-.017.008-.033.016l-.267-.39a81.837 81.837 0 0 1-.633-.933 1.948 1.948 0 0 1-.146-.243 11.61 11.61 0 0 0-.834-1.242c-.235-.3-.422-.625-.64-.94-.203-.3-.405-.593-.608-.893-.073-.097-.162-.186-.227-.292-.21-.333-.397-.673-.607-1.006-.179-.276-.373-.544-.56-.812-.064-.089-.128-.186-.194-.284a.113.113 0 0 1-.016-.056 12.63 12.63 0 0 1-.04-.527c0-.162.016-.325.016-.495v-.146c0-.04.007-.073.007-.114.008-.008.017-.024.024-.032-.234 0-.478-.01-.713 0-.154.008-.235-.057-.34-.17-.308-.35-.535-.747-.802-1.12a50.03 50.03 0 0 0-.77-1.056c-.21-.283-.421-.56-.632-.843-.235-.325-.461-.65-.705-.974-.292-.389-.591-.779-.891-1.168-.139-.178-.292-.349-.446-.535.105.016.203.032.3.04l.389.025c.292.024.583.04.874.08.244.033.487.082.738.122.535.09 1.062.236 1.572.406.3.097.591.227.884.349.656.268 1.28.592 1.895.933.194.105.308.275.454.43.21.219.421.438.624.665.234.268.453.543.68.82.202.243.413.486.616.73.065.073.114.162.17.243.13.195.275.382.389.592.08.155.129.333.186.504.08.251.162.494.243.746.056.186.105.382.145.576.033.13.025.267.065.397.05.171 0 .357.05.528.007.016.014.04.023.057.032.032.057.065.008.113-.008.008-.008.04 0 .065.017-.016.025-.033.04-.057 0 .016.009.025.009.032 0 .032-.009.065 0 .097 0 .017.016.04.024.057.016-.016.032-.024.064-.05.073.277.082.553.082.837 0 .268.048.536-.065.795.024-.09-.033-.17-.008-.252z"/></svg>