<svg role="img" viewBox="0 0 24 24" xmlns="http://www.w3.org/2000/svg"><title>Power Platform</title><path d="m9.608 15.175-4.153 8.306a.937.937 0 0 1-1.677 0L.703 17.33c-.05-.099-.089-.2-.12-.301l.556-1.094c.233-.466.709-.76 1.23-.76h7.239Zm9.875-7.313a3.938 3.938 0 0 0 3.514-2.168l.035-.071-.001.002.178-.354-3.616 7.232a3.937 3.937 0 0 1-3.516 2.173H2.369c-.709 0-1.357.399-1.676 1.032l.019-.036 3.387-6.774a1.874 1.874 0 0 1 1.677-1.036h13.707Zm-1.394-.5a3.9 3.9 0 0 0-2.011-.548h-9.42a.943.943 0 0 1-.938-.938c0-.146.034-.289.099-.419L8.289.518A.94.94 0 0 1 9.127 0h10.357c2.218 0 3.848 1.772 3.933 3.77l-.867 1.7a3.437 3.437 0 0 1-3.067 1.892h-1.394Z"/></svg>