<svg role="img" xmlns="http://www.w3.org/2000/svg" viewBox="0 0 24 24"><title>PowerShell icon</title><path d="M23.181 3.077c.568 0 .923.463.792 1.035l-3.659 15.981c-.13.572-.697 1.035-1.265 1.035H.819c-.568 0-.923-.463-.792-1.035L3.686 4.112c.13-.572.697-1.035 1.265-1.035h18.23zm-8.375 9.345c.251-.394.227-.905-.09-1.243L9.122 5.228c-.38-.405-1.037-.407-1.466-.004-.429.403-.468 1.057-.088 1.461l4.662 4.96v.11l-7.42 5.373c-.45.327-.533.977-.187 1.453.346.476.991.597 1.44.27l8.229-5.909c.28-.197.438-.366.514-.52zm-2.796 4.399a.928.928 0 0 0-.934.923c0 .51.418.923.934.923h4.433a.928.928 0 0 0 .934-.923.928.928 0 0 0-.934-.923H12.01z"/></svg>