<svg role="img" viewBox="0 0 24 24" xmlns="http://www.w3.org/2000/svg"><title>Power Platform</title><path d="m9.77 14.925-4.278 8.556a.937.937 0 0 1-1.677 0L.739 17.33a1.816 1.816 0 0 1-.104-1.387.25.25 0 0 0 .317-.12 1.628 1.628 0 0 1 1.453-.898H9.77Zm6.344-.249H2.405c-.71 0-1.359.4-1.676 1.035l3.406-6.813a1.878 1.878 0 0 1 1.677-1.036H19.52a3.936 3.936 0 0 0 3.513-2.168l.227-.453-3.63 7.262a3.937 3.937 0 0 1-3.516 2.173Zm2.381-7.064a3.879 3.879 0 0 0-2.381-.798h-9.42a.942.942 0 0 1-.838-1.357L8.325.518A.94.94 0 0 1 9.164 0h10.357c2.666 0 4.482 2.561 3.786 4.996a.248.248 0 0 0-.27.133l-.227.453a3.69 3.69 0 0 1-3.29 2.03h-1.025Z"/></svg>