<?xml version="1.0" encoding="iso-8859-1"?>
<!DOCTYPE svg PUBLIC "-//W3C//DTD SVG 1.1//EN" "http://www.w3.org/Graphics/SVG/1.1/DTD/svg11.dtd">
<svg version="1.1" id="PowerShell" xmlns="http://www.w3.org/2000/svg" xmlns:xlink="http://www.w3.org/1999/xlink" x="0px" y="0px"
	 width="204.691px" height="154.521px" viewBox="0 0 204.691 154.521" style="enable-background:new 0 0 204.691 154.521;"
	 xml:space="preserve">
<g>
	<path style="display:none;fill-rule:evenodd;clip-rule:evenodd;fill:#2671BE;" d="M-47.547,226.872
		c0-97.129,0.094-194.259-0.195-291.387c-0.021-6.982,1.404-8.411,8.388-8.389c94.397,0.292,188.798,0.292,283.195,0
		c6.984-0.022,8.41,1.407,8.389,8.389c-0.289,97.128-0.195,194.258-0.195,291.387c-3.238,2.008-6.837,1.129-10.268,1.131
		c-93.015,0.049-186.031,0.049-279.047,0C-40.711,228.001-44.31,228.88-47.547,226.872z"/>
	<path style="fill-rule:evenodd;clip-rule:evenodd;fill:#E0EAF5;" d="M120.14,0.032c23.011-0.008,46.023-0.078,69.034,0.019
		c13.68,0.056,17.537,4.627,14.588,18.137c-8.636,39.566-17.466,79.092-26.415,118.589c-2.83,12.484-9.332,17.598-22.465,17.637
		c-46.023,0.137-92.046,0.152-138.068-0.006c-15.043-0.053-19-5.148-15.759-19.404C9.849,96.287,18.69,57.582,27.602,18.892
		C30.997,4.148,36.099,0.1,51.104,0.057C74.116-0.008,97.128,0.04,120.14,0.032z"/>
	<path style="fill-rule:evenodd;clip-rule:evenodd;fill:#2671BE;" d="M85.365,149.813c-23.014-0.008-46.029,0.098-69.042-0.053
		c-11.67-0.076-13.792-2.83-11.165-14.244c8.906-38.71,18.099-77.355,26.807-116.109C34.3,9.013,39.337,4.419,50.473,4.522
		c46.024,0.427,92.056,0.137,138.083,0.184c11.543,0.011,13.481,2.48,10.89,14.187c-8.413,38.007-16.879,76.003-25.494,113.965
		c-3.224,14.207-6.938,16.918-21.885,16.951C129.833,149.856,107.598,149.821,85.365,149.813z"/>
	<path style="fill-rule:evenodd;clip-rule:evenodd;fill:#FDFDFE;" d="M104.948,73.951c-1.543-1.81-3.237-3.894-5.031-5.886
		c-10.173-11.3-20.256-22.684-30.61-33.815c-4.738-5.094-6.248-10.041-0.558-15.069c5.623-4.97,11.148-4.53,16.306,1.188
		c14.365,15.919,28.713,31.856,43.316,47.556c5.452,5.864,4.182,9.851-1.823,14.196c-23.049,16.683-45.968,33.547-68.862,50.443
		c-5.146,3.799-10.052,4.75-14.209-0.861c-4.586-6.189-0.343-9.871,4.414-13.335c17.013-12.392,33.993-24.83,50.9-37.366
		C101.146,79.256,104.527,78.238,104.948,73.951z"/>
	<path style="fill-rule:evenodd;clip-rule:evenodd;fill:#FCFDFD;" d="M112.235,133.819c-6.196,0-12.401,0.213-18.583-0.068
		c-4.932-0.223-7.9-2.979-7.838-8.174c0.06-4.912,2.536-8.605,7.463-8.738c13.542-0.363,27.104-0.285,40.651-0.02
		c4.305,0.084,7.483,2.889,7.457,7.375c-0.031,5.146-2.739,9.133-8.25,9.465c-6.944,0.42-13.931,0.104-20.899,0.104
		C112.235,133.78,112.235,133.8,112.235,133.819z"/>
</g>
</svg>