<svg role="img" viewBox="0 0 24 24" xmlns="http://www.w3.org/2000/svg"><title>Power Platform</title><path d="m9.645 15.175-4.153 8.306a.937.937 0 0 1-1.677 0L.739 17.33a1.826 1.826 0 0 1-.166-1.147.5.5 0 0 0 .613-.248c.232-.466.708-.76 1.229-.76h7.23ZM5.822 7.862h13.769a3.824 3.824 0 0 0 3.407-2.096l-3.378 6.74a3.936 3.936 0 0 1-3.514 2.17H2.415c-.71 0-1.359.4-1.677 1.035l3.407-6.813a1.878 1.878 0 0 1 1.677-1.036Zm12.304-.5a3.904 3.904 0 0 0-2.012-.548h-9.42a.942.942 0 0 1-.838-1.357L8.325.518A.94.94 0 0 1 9.164 0H19.52c2.782 0 4.638 2.787 3.683 5.309a.502.502 0 0 0-.651.231 3.32 3.32 0 0 1-2.961 1.822h-1.465Zm5.096-2.044.038-.077Z"/></svg>