<svg role="img" viewBox="0 0 24 24" xmlns="http://www.w3.org/2000/svg"><title>pr.co icon</title><path d="M12 4.67c-1.8758 0-3.7517.7158-5.183 2.147h-.0003c-.0108.0108-.0217.0214-.0323.0322l-6.248 6.248c-.7152.7157-.7152 1.8758 0 2.5913.7158.7159 1.8763.7159 2.5918 0l1.7903-1.7904c.3213 1.2034.954 2.3407 1.8982 3.2849C8.248 18.6144 10.1242 19.33 12 19.33c1.876 0 3.7516-.7156 5.183-2.147l6.2802-6.2802c.7157-.7155.7157-1.8758 0-2.5913-.7155-.7157-1.876-.7157-2.5917 0l-1.7903 1.7908c-.3185-1.193-.9428-2.321-1.8731-3.2602l-.0016-.0016-.0016-.0016-.0052-.0052-.0167-.0167C15.7516 5.3858 13.876 4.67 12 4.67zm0 3.665c.938 0 1.876.3577 2.5917 1.0733 1.431 1.4312 1.431 3.7522 0 5.1834h-.0004c-1.4314 1.431-3.7518 1.4312-5.183 0-1.4313-1.4312-1.4313-3.752 0-5.183v-.0004C10.124 8.6927 11.062 8.335 12 8.335z"/></svg>