<svg role="img" viewBox="0 0 24 24" xmlns="http://www.w3.org/2000/svg"><title>Premier League icon</title><path d="M5.206 6.946c-.16.17-.782.845-.89.956-.09-.133-.61-.955-.61-.955s-.288.816-.37 1.065c-.205-.136-.824-.555-1.091-.736.052.345.142.9.166 1.016-.053-.04-.348-.298-.806-.502.251.292.44.735.562 1.09a4.699 4.699 0 0 1 3.488-.415c.037-.368.12-.826.292-1.159-.399.3-.637.626-.668.667-.01-.084-.046-.639-.073-1.027zm-.785 1.62a4.5 4.5 0 0 0-2.025.475c.321.018.536.282.61.49-.247-.187-.632-.27-.861-.028-.23.24-.203.704.017 1.079-.517-.255-.515-.925-.338-1.197h-.001a4.38 4.38 0 0 0-1.388 1.609l.473.074C.371 11.666 0 12.733 0 13.235l.757-.229c-.136.44-.176 1.936.279 2.682 0 0 .596-.4 1.27-1.417.287.912.153 1.674.002 2.426 1.217.671 2.633.294 3.458-.288l.148.569c.972-.624 1.501-1.52 1.605-2.573l.36.39c.557-1.61.124-2.892-.67-3.998l-.034.261-.345-.364s.063-.031.128-.106a.464.464 0 0 0-.165-.327.516.516 0 0 0-.296.187c-.19-.166-.403-.23-.403-.23.038.028.262.332.287.42.205.165.47.36.654.593-.145-.165-.852-.205-1.177-.031 0 0-.32-.366-.614-.622-.061-.224.142-.408.142-.408s-.205-.006-.4.18c-.295-.213-.667-.315-.667-.315a1.373 1.373 0 0 0-.695.346c.1.061.229.135.338.177.23.087.44.06.58.06.112-.002.272.03.272.03s.278.203.68.656c-.612-.24-1.261.034-1.713-.186-.527-.258-.49-.668-.49-.668s-.359-.05-.362-.057c0 0 .263-.339.668-.46l-.205-.17c.235-.198.667-.45 1.338-.545 0 0 .3.109.91.539.107-.139.132-.427.132-.427.307.108.95.559 1.205.838-.135-.316-.237-.516-.27-.85-.157-.15-.534-.464-1.324-.651.122.258.112.472.112.472-.145-.182-.456-.473-.668-.557a4.655 4.655 0 0 0-.405-.017zm5.035.077v3.35h.65V10.9h.411c.7 0 1.21-.42 1.21-1.136 0-.708-.518-1.12-1.21-1.12zm10.181.099a.373.373 0 0 0-.378.379c0 .205.164.37.378.37a.371.371 0 0 0 .38-.37.373.373 0 0 0-.38-.38zm-9.531.518h.379c.33 0 .568.173.568.503 0 .329-.239.51-.568.51h-.379zm4.362.47c-.716 0-1.168.551-1.168 1.169 0 .683.502 1.152 1.185 1.152.37 0 .716-.148.955-.42l-.37-.379a.777.777 0 0 1-.593.256c-.272 0-.494-.165-.552-.412h1.613c.017-.082.017-.157.017-.214 0-.75-.552-1.152-1.087-1.152zm2.47 0c-.412 0-.544.345-.544.345l-.065-.288h-.535v2.206h.609v-1.292c0-.247.123-.395.362-.395.206 0 .337.148.337.386v1.301h.61v-1.292c0-.247.123-.395.362-.395.205 0 .337.148.337.386v1.301h.61v-1.407c0-.502-.322-.856-.79-.856a.724.724 0 0 0-.643.33l-.016.024-.017-.025a.708.708 0 0 0-.617-.33zm4.403 0c-.716 0-1.168.551-1.168 1.169 0 .683.502 1.152 1.185 1.152.37 0 .716-.148.955-.42l-.37-.379a.777.777 0 0 1-.593.256c-.272 0-.494-.165-.552-.412h1.613c.017-.082.017-.157.017-.214 0-.75-.552-1.152-1.087-1.152zm-8.255.033a.6.6 0 0 0-.56.345l-.066-.32h-.527v2.205h.61v-1.111c0-.354.205-.535.501-.535a.95.95 0 0 1 .214.025v-.585a.623.623 0 0 0-.172-.024zm10.733 0a.6.6 0 0 0-.56.345l-.066-.32h-.526v2.205h.609v-1.111c0-.354.205-.535.502-.535a.92.92 0 0 1 .214.025v-.585a.625.625 0 0 0-.173-.024zm-4.494.024v2.206h.609V9.787zm-4.873.478c.247 0 .453.156.502.386h-1.02c.049-.238.263-.386.518-.386zm6.873 0c.247 0 .453.156.502.386h-1.02c.049-.238.263-.386.518-.386zM5.84 11.548c.279.211.54.293.54.293l.002.572c-.21.168-.86.712-1.302.652-.251-.459-.48-.884-.48-.884s.678-.55 1.24-.633zm1.286.023c.203.47.246 1.041.025 1.43-.117-.26-.273-.402-.43-.574l-.003-.574s.187-.101.408-.282zm2.329.776v3.268h2.066v-.618h-1.416v-2.65zm-2.746.645c.192.221.237.458.237.458-.096.476-.367.778-.564.89.017-.345-.076-.637-.076-.637-.14.16-.489.312-.687.354-.1-.188-.299-.548-.299-.548.36-.011.951-.507.951-.507zm6.112.36c-.716 0-1.169.55-1.169 1.168 0 .683.503 1.152 1.186 1.152.37 0 .716-.148.954-.42l-.37-.378a.778.778 0 0 1-.593.255c-.271 0-.494-.165-.551-.412h1.613c.017-.082.017-.156.017-.214 0-.749-.552-1.152-1.087-1.152zm10.091 0c-.716 0-1.168.55-1.168 1.168 0 .683.502 1.152 1.185 1.152.37 0 .716-.148.955-.42l-.37-.378a.777.777 0 0 1-.593.255c-.272 0-.494-.165-.552-.412h1.613c.017-.082.017-.156.017-.214 0-.749-.552-1.152-1.087-1.152zm-7.704.024c-.584 0-1.094.518-1.094 1.136 0 .625.51 1.16 1.094 1.16.305 0 .552-.14.683-.337l.066.28h.535v-2.206h-.535l-.066.288c-.131-.206-.353-.321-.683-.321zm2.65 0c-.625 0-1.135.494-1.135 1.136 0 .65.494 1.16 1.12 1.16a.833.833 0 0 0 .633-.263v.156c0 .33-.198.552-.65.552-.288 0-.51-.14-.675-.297l-.338.47c.264.255.593.411 1.054.411.337 0 .617-.115.823-.271.272-.214.387-.502.387-.914V13.41h-.535l-.066.28a.752.752 0 0 0-.617-.313zm1.515.033v1.177c0 .823.593 1.086 1.078 1.086.478 0 1.079-.263 1.079-1.086v-1.177h-.61v1.136c0 .354-.197.543-.469.543-.296 0-.469-.165-.469-.543v-1.136zm-6.568.477c.247 0 .453.157.502.387h-1.02c.049-.239.262-.387.518-.387zm10.09 0c.248 0 .454.157.503.387h-1.02c.049-.239.263-.387.518-.387zm-7.563.042c.32 0 .568.246.568.584a.566.566 0 0 1-.568.576.567.567 0 0 1-.577-.576c0-.338.247-.584.577-.584zm2.6 0a.57.57 0 0 1 .577.584.573.573 0 0 1-.576.576.573.573 0 0 1-.577-.576.57.57 0 0 1 .577-.584z"/></svg>