<svg role="img" viewBox="0 0 24 24" xmlns="http://www.w3.org/2000/svg"><title>PreMiD</title><path d="M22.44 4.24H1.56A1.56 1.56 0 0 0 0 5.8v12.4a1.56 1.56 0 0 0 1.56 1.56h20.88A1.56 1.56 0 0 0 24 18.2V5.8a1.56 1.56 0 0 0-1.56-1.56m-9.506 4.851a.72.72 0 0 1 .509-.21h4.64a.72.72 0 0 1 0 1.438h-4.644a.72.72 0 0 1-.509-1.229Zm-3.27 3.244-6.085 3.51A.386.386 0 0 1 3 15.511V8.489a.386.386 0 0 1 .58-.334l6.08 3.51a.386.386 0 0 1 0 .67zm11.885 2.574a.72.72 0 0 1-.509.21h-7.601a.72.72 0 0 1 0-1.438h7.601a.72.72 0 0 1 .509 1.229zm0-2.4a.72.72 0 0 1-.509.211h-7.601a.72.72 0 0 1 0-1.439h7.601a.72.72 0 0 1 .509 1.229z"/></svg>