<svg role="img" viewBox="0 0 24 24" xmlns="http://www.w3.org/2000/svg"><title>PrestaShop</title><path d="M2.605 12v12h6.316v-6.842h1.568c3.032 0 4.716-.326 6.484-1.242 1.253-.653 2.758-2.116 3.358-3.263 1.758-3.38 1.316-7.074-1.168-9.716C17.605 1.284 15.72.4 13.183.105 12.669.053 10.069 0 7.427 0H2.605zm11.568-8.053c.506.253.59.853.169 1.264l-.253.263H11.5c-1.8 0-2.578-.032-2.578-.116 0-.063.094-.442.22-.842l.222-.727h2.252c1.78 0 2.327.032 2.558.158m-4.052 2.064c.21.168.273.305.273.62 0 .316-.063.453-.273.622-.242.19-.432.22-1.316.22-.926 0-1.042-.02-1.042-.189 0-.158.22-.958.368-1.368.032-.084.306-.127.874-.127.684 0 .884.043 1.116.222m4.105 2c.347.273.379.831.063 1.147-.2.2-.347.21-2.61.21H9.29l-.22-.79-.222-.789h2.547c2.421 0 2.569.011 2.832.222m1.295 2.01a.76.76 0 0 1-.01 1.126c-.222.21-.338.232-1.232.2l-.98-.031-.23-.769-.232-.758h1.22c1.106 0 1.243.022 1.464.232M14.394 12c.316.316.285.874-.063 1.147-.263.21-.41.221-2.631.221H9.352l-.22-.726c-.117-.39-.211-.747-.211-.79 0-.03 1.19-.063 2.631-.063 2.495 0 2.642.011 2.842.211"/></svg>