<svg role="img" xmlns="http://www.w3.org/2000/svg" viewBox="0 0 24 24"><title>Pretzel</title><path d="M22.412.032l-11.636 6.49a.274.274 0 00-.14.236v5.434l2.701 1.723V8.34c0-.102.055-.188.14-.235l6.234-3.477c.18-.102.4.031.4.235V15.19a2.822 2.822 0 01-4.283 2.537c-2.081-1.326-4.162-2.65-6.242-3.978a5.492 5.492 0 00-4.674-.5 5.498 5.498 0 00-3.093 2.67A5.518 5.518 0 006.697 24a5.54 5.54 0 005.004-3.163l.101-.227L9.5 19.137l-.243.549a2.84 2.84 0 01-1.738 1.48 2.83 2.83 0 01-3.531-1.935c-.407-1.417.399-2.967 1.793-3.445.305-.102.618-.157.924-.157.509 0 1.01.134 1.456.408 2.083 1.329 4.167 2.655 6.249 3.985a5.536 5.536 0 004.455.58 5.542 5.542 0 003.947-5.411V.274c.007-.211-.22-.336-.4-.242z"/></svg>