<svg xmlns="http://www.w3.org/2000/svg" viewBox="0 0 24 24"><g id="prime"><polygon points="15.36 11.33 14.26 11.08 15.12 12.3 15.12 16.09 18.05 13.65 18.05 9.5 16.7 9.98 15.36 11.33"/><polygon points="8.52 11.33 7.17 9.98 5.83 9.5 5.83 13.65 8.76 16.09 8.76 12.3 9.62 11.08 8.52 11.33"/><polygon points="13.16 11.45 10.72 11.45 10.11 11.08 9.13 12.55 9.13 18.05 9.86 19.14 10.72 20 13.16 20 14.02 19.14 14.75 18.05 14.75 12.55 13.77 11.08 13.16 11.45"/><polygon points="15.12 18.41 16.7 16.82 16.7 15.24 15.12 16.58 15.12 18.41"/><polygon points="7.17 16.82 8.76 18.41 8.76 16.58 7.17 15.24 7.17 16.82"/><polygon points="11.08 10.96 11.7 10.96 11.7 4 10.35 4 9.38 6.31 4.97 5.95 5.71 9.01 10.96 10.96 11.08 10.96"/><path d="M14.5,6.31,13.53,4H12.18v7H13l5.25-2L19,6Z"/><polygon points="17.32 5.71 15.6 4 13.89 4 14.75 5.95 17.32 5.71"/><polygon points="9.98 4 8.27 4 6.56 5.71 9.13 5.95 9.98 4"/></g></svg>