<svg role="img" viewBox="0 0 24 24" xmlns="http://www.w3.org/2000/svg"><title>Prisma icon</title><path fill-rule="evenodd" clip-rule="evenodd" d="M21.685 18.159L13.646 1.087a1.3 1.3 0 00-1.102-.736 1.277 1.277 0 00-1.173.61L2.65 15.083c-.271.441-.265.984.016 1.418l4.261 6.602a1.376 1.376 0 001.541.566l12.372-3.658c.38-.112.689-.382.851-.735.161-.357.16-.763-.006-1.117zm-1.8.733L9.386 21.996a.439.439 0 01-.559-.506l3.749-17.96c.07-.333.534-.389.68-.077l6.945 14.742a.504.504 0 01-.316.697z"/></svg>