<svg role="img" viewBox="0 0 24 24" xmlns="http://www.w3.org/2000/svg"><title>Private Internet Access</title><path d="M11.9473 0C7.9939 0 4.789 3.2049 4.789 7.1582v1.414c-.8118.147-1.3666.8449-1.3868 1.6465a2.3945 2.3945 0 0 0-.33 1.2208v9.1777a2.4154 2.4154 0 0 0 1.7851 2.3281A1.7677 1.7677 0 0 0 6.4727 24h2.0058a1.7644 1.7644 0 0 0 1.5762-.9668h3.6816c.301.5938.9105.9677 1.5762.9668h2.0078a1.7739 1.7739 0 0 0 1.5899-1c1.1654-.1913 2.02-1.1998 2.0175-2.3809v-9.1777a2.4216 2.4216 0 0 0-.3144-1.1973v-.0097c-.005-.7531-.5062-1.4225-1.2305-1.629V7.1583c0-3.9541-3.206-7.1592-7.1601-7.1582h-.2754zm.0312 2.5586h.2149c2.4748-.0002 4.4814 2.0056 4.4824 4.4805V8.543H15.668a1.6692 1.6692 0 0 0-1.1739.4804H9.5273a1.6731 1.6731 0 0 0-1.1836-.4804h-.8476V7.039c.001-2.4748 2.0075-4.4806 4.4824-4.4804zM9.9648 4.9453c-.9936-.0176-1.107 1.6339.0313 1.6309a.8115.8115 0 0 0 .8125-.8125.812.812 0 0 0-.6328-.791 1.0279 1.0279 0 0 0-.211-.0274zm4.0391.0078c-.7243-.0013-1.0882.8747-.5762 1.3867.5121.5121 1.3881.1481 1.3868-.5761a.812.812 0 0 0-.8106-.8106zM10.711 7.047c-.1577.016-.28.2265-.125.3691.795.7483 2.0351.7483 2.8301 0 .13-.1205.0623-.338-.1133-.3633a.2108.2108 0 0 0-.1738.0528c-.6415.5782-1.6163.5782-2.2578 0-.0518-.0475-.1076-.064-.1602-.0586zm1.293 5.0039v.0039a1.9739 1.9739 0 0 1 1.1055 3.6035.3126.3126 0 0 0-.1328.2988l.4863 3.297a.307.307 0 0 1-.0703.246.3137.3137 0 0 1-.2344.1074h-2.3164a.3097.3097 0 0 1-.3047-.3535l.4844-3.2969a.2934.2934 0 0 0-.129-.2949 1.975 1.975 0 0 1 .8848-3.5976 2.176 2.176 0 0 1 .2266-.0137z"/></svg>