<svg width="100%" height="100%" viewBox="0 0 96 24" fill="none" xmlns="http://www.w3.org/2000/svg"><g clip-path="url(#clip0_520_1053)"><rect width="96" height="24" fill="white"></rect><path fill-rule="evenodd" clip-rule="evenodd" d="M96 0V24H0V0H96ZM71.757 5.76C70.9322 5.76 70.1419 5.88887 69.3858 6.14661C68.6298 6.40434 67.9454 6.78522 67.3325 7.28924C66.7197 7.79326 66.2271 8.46623 65.8548 9.30817C65.4826 10.1501 65.2964 11.098 65.2964 12.1519C65.2964 13.1599 65.4826 14.0648 65.8548 14.8667C66.2271 15.6685 66.7254 16.31 67.3497 16.7911C67.974 17.2722 68.6642 17.6388 69.4202 17.8908C70.1762 18.1428 70.9666 18.2688 71.7914 18.2688C73.0514 18.2688 74.2141 18.0111 75.2794 17.4956V14.9698C74.5463 15.6342 73.5153 15.9664 72.1866 15.9664C71.6482 15.9664 71.1298 15.889 70.6316 15.7344C70.1333 15.5798 69.6808 15.3535 69.2741 15.0557C68.8675 14.7579 68.5439 14.3598 68.3033 13.8615C68.0628 13.3632 67.9425 12.7933 67.9425 12.1519C67.9425 10.8002 68.3577 9.77783 69.1882 9.0848C70.0187 8.39177 71.0182 8.04526 72.1866 8.04526C73.3779 8.04526 74.3802 8.36027 75.1935 8.99029V6.53321C74.1625 6.01773 73.0171 5.76 71.757 5.76ZM12.9362 6.00055H8.4V18.0282H10.9774V14.0763H12.9362C16.3956 14.0763 18.1252 12.7303 18.1252 10.0384C18.1252 7.3465 16.3956 6.00055 12.9362 6.00055ZM25.9978 6.00055H21.0493V18.0282H23.6266V13.8186H25.5167L28.7642 18.0282H31.7367L28.1456 13.4921C29.8982 12.9308 30.7745 11.7395 30.7745 9.91815C30.7745 9.18503 30.6399 8.55501 30.3707 8.02808C30.1015 7.50115 29.7293 7.0945 29.2539 6.80813C28.7785 6.52175 28.2745 6.31557 27.7418 6.18956C27.2092 6.06356 26.6278 6.00055 25.9978 6.00055ZM36.9632 6.00055H34.3858V18.0282H36.9632V6.00055ZM42.5855 6.00055H39.8019L44.4755 18.0282H47.1216L51.8124 6.00055H49.0289L45.7986 15.0041L42.5855 6.00055ZM59.3145 6.00055H56.531L51.6168 18.0282H54.2801L55.1736 15.7773H60.6719L61.5482 18.0282H64.2115L59.3145 6.00055ZM80.016 6.00055H77.1122L81.8202 13.767V18.0282H84.3803V13.767L89.0712 6.00055H86.1673L83.0917 11.3958L80.016 6.00055ZM57.9227 8.38891C57.98 8.6982 58.0659 9.0132 58.1805 9.33394L59.8644 13.6467H55.9811L57.6478 9.33394C57.7624 9.05902 57.854 8.74402 57.9227 8.38891ZM13.0564 8.26863C14.683 8.26863 15.4963 8.85856 15.4963 10.0384C15.4963 11.2183 14.683 11.8082 13.0564 11.8082H10.9774V8.26863H13.0564ZM26.1181 8.26863C26.7137 8.26863 27.2006 8.40609 27.5786 8.68101C27.9566 8.95593 28.1456 9.38549 28.1456 9.96969C28.1456 10.5424 27.9537 10.9691 27.57 11.2498C27.1863 11.5304 26.7023 11.6708 26.1181 11.6708H23.6266V8.26863H26.1181Z" fill="black"></path></g><defs><clipPath id="clip0_520_1053"><rect width="96" height="24" fill="white"></rect></clipPath></defs></svg>
