<svg role="img" viewBox="0 0 24 24" xmlns="http://www.w3.org/2000/svg"><title>Probot icon</title><path d="M12 1.246l1.211 5.064h-2.45L12 1.246z"/><path d="M2.456 6.02A2.456 2.456 0 0 0 0 8.476v13.029a2.456 2.456 0 0 0 2.456 2.456h19.088c1.356 0 2.456-1.1 2.456-2.456V8.476c0-1.356-1.1-2.456-2.456-2.456H2.456zm1.477 1.861h16.136c1.101 0 1.994.893 1.994 1.994v10.117a1.994 1.994 0 0 1-1.994 1.994H3.933a1.994 1.994 0 0 1-1.994-1.994V9.875c0-1.101.893-1.994 1.994-1.994z"/><path d="M9.03 14.769a1.843 1.843 0 1 1-3.686 0 1.843 1.843 0 0 1 3.686 0z"/><path d="M7.187 10.193a4.575 4.575 0 1 0 0 9.15 4.575 4.575 0 0 0 0-9.15zm0 1.07a3.506 3.506 0 1 1 0 7.011 3.506 3.506 0 0 1 0-7.011zM18.772 14.769a1.843 1.843 0 1 1-3.686 0 1.843 1.843 0 0 1 3.686 0z"/><path d="M16.93 10.193a4.575 4.575 0 1 0 0 9.15 4.575 4.575 0 0 0 0-9.15zm0 1.07a3.506 3.506 0 1 1 0 7.011 3.506 3.506 0 0 1 0-7.011zM10.003 19.426v2.159h.706v-2.159h-.706zm1.077 0v2.159h.705v-2.159h-.705zm1.076 0v2.159h.706v-2.159h-.706zm1.077 0v2.159h.706v-2.159h-.706zm1.077.03v2.1a1.08 1.08 0 0 0 .829-1.049v-.001c0-.51-.354-.937-.829-1.05zm-4.678.028a1.08 1.08 0 0 0-.731 1.021v.001c0 .474.306.876.731 1.021v-2.043zM13.743 1.783a1.743 1.743 0 1 1-3.485 0 1.743 1.743 0 0 1 3.485 0z"/></svg>