<svg role="img" viewBox="0 0 24 24" xmlns="http://www.w3.org/2000/svg"><title>ProtoPie</title><path d="M.8924.0003C.6353.0003.4001.109.2402.2866a.8724.8724 0 0 0-.2401.5777v.0593a.839.839 0 0 0 .0608.2954c.0016.008.0047.0148.0076.0228a.8394.8394 0 0 0 .112.192.456.456 0 0 0 .0532.0624c.003.0049.0077.0093.0126.0142l2.8448 3.3779H.8924a.8768.8768 0 0 0-.6522.2863c-.144.1528-.2342.3543-.2401.5777v.0598a.8781.8781 0 0 0 .0598.2954.8717.8717 0 0 0 .1277.225.8038.8038 0 0 0 .036.0436L3.0738 9.757H.8924a.889.889 0 0 0-.6521.2848c-.1313.1406-.2178.32-.2352.5214a.3317.3317 0 0 0-.005.0578v.0608a.8502.8502 0 0 0 .0607.2929c.0273.0768.0688.147.1171.2123.0029.0034.0045.0068.0076.0101l.04.0461a.0359.0359 0 0 0 .0147.0163l2.5134 2.9841 7.3857 8.766.302.3603c0 .0013 0 .001.0015.001A2.2385 2.2385 0 0 0 12 23.9998c.0561 0 .1106-.0013.1647-.0061.5391-.0382 1.0256-.2687 1.392-.6223.0018 0 .002-.0002.002-.002l.302-.3599 7.3857-8.766 2.528-3.0019c.0128-.0127.0241-.0273.0355-.0415a.832.832 0 0 0 .1293-.2255.8557.8557 0 0 0 .0608-.3233V.893a.8777.8777 0 0 0-.2418-.6081.8804.8804 0 0 0-.6526-.2848ZM7.555 10.1852l.6658.7895 2.7536 3.269 1.0251 1.2171-1.0256-1.2172-2.7536-3.2684zm-2.6396 1.7583 1.9382 2.3001 4.515 5.3582.63.7485-.631-.7485-4.515-5.3582z"/></svg>