<svg role="img" viewBox="0 0 24 24" xmlns="http://www.w3.org/2000/svg"><title>ProtonMail</title><path d="M18.896 5.925 15.24 8.998h.003l-4.792 4.284a2.186 2.186 0 0 1-2.871.042L0 6.944v12.279c0 1.386 1.11 2.512 2.482 2.512h16.414V5.925zm0 0L15.24 8.998h.003l-4.792 4.284a2.186 2.186 0 0 1-2.871.042L0 6.944v12.279c0 1.386 1.11 2.512 2.482 2.512h16.414V5.925zM0 5.637V2.826c0-.473.544-.734.905-.431l9.51 7.992c.348.293.756.462 1.178.533l-1.809 1.616a1.186 1.186 0 0 1-1.558.024L.644 6.18 0 5.637zm24-2.813v16.399c0 1.386-1.11 2.513-2.481 2.513h-1.623V5.083l3.199-2.688a.551.551 0 0 1 .905.429z"/></svg>