<svg role="img" viewBox="0 0 24 24" xmlns="http://www.w3.org/2000/svg"><title>ProtonMail icon</title><path d="M12 20.3518s-1.096-.108-1.9551-.705c-.86-.596-6.5804-4.6883-6.5804-4.6883v8.0984S3.5125 24 4.5496 24h14.9008c1.036 0 1.085-.942 1.085-.942v-8.1005s-5.7233 4.0922-6.5803 4.6903c-.86.595-1.9551.704-1.9551.704zm0-20.351S4.9246-.2313 3.4645 7.623v5.3503s.06.572 1.6701 1.7351c1.6071 1.162 5.7733 4.4362 6.8674 4.4362 1.088 0 5.2543-3.2731 6.8654-4.4372 1.607-1.164 1.668-1.737 1.668-1.737V7.62C19.0755-.2293 12 .0027 12 .0027zm4.8463 10.5365H7.1557V7.623C8.1397 3.723 12 3.669 12 3.669s3.8632.054 4.8463 3.9542z"/></svg>