<svg role="img" viewBox="0 0 24 24" xmlns="http://www.w3.org/2000/svg"><title>ProtonVPN</title><path d="m10.185 20.053.857-1.278 6.509-9.833c.57-.86.026-2.013-1.004-2.13L.393 4.955 8.76 20.001a.839.839 0 0 0 1.424.052zM23.586 7.144 13.93 21.745c-1.035 1.566-3.378 1.477-4.29-.162l-.364-.655a1.357 1.357 0 0 0 1.343-.584l.857-1.278v-.001l.002-.001 6.509-9.833a1.884 1.884 0 0 0 .138-1.848 1.901 1.901 0 0 0-1.518-1.091L.452 4.437.13 4.4C-.437 2.732.932.937 2.797 1.15l18.98 2.159c1.854.21 2.833 2.287 1.81 3.835z"/></svg>