<svg xmlns="http://www.w3.org/2000/svg" viewBox="0 0 16 16"><path fill-rule="evenodd" d="M11.227 7.026H4.762V5.082c.656-2.6 3.232-2.636 3.232-2.636s2.577.035 3.233 2.636v1.944zM7.994 0s4.72-.155 5.694 5.082v3.566s-.04.382-1.113 1.157c-1.074.776-3.853 2.959-4.58 2.959-.729 0-3.508-2.183-4.581-2.959C2.34 9.03 2.3 8.648 2.3 8.648V5.082C3.274-.155 7.994 0 7.994 0zm0 13.567s.732-.072 1.304-.47c.573-.397 4.39-3.125 4.39-3.125v5.4s-.032.628-.724.628h-9.94c-.692 0-.724-.628-.724-.628v-5.4s3.817 2.728 4.39 3.125c.573.398 1.304.47 1.304.47z"/></svg>