<svg role="img" viewBox="0 0 24 24" xmlns="http://www.w3.org/2000/svg"><title>ProtonVPN icon</title><path d="M22.9701 2.6803C22.9701 1.2 21.7701 0 20.2898 0s-2.6803 1.2-2.6803 2.6803v.083L5.9276 6.5347c-.8319-1.2244-2.4988-1.5427-3.7233-.7108-1.2245.8318-1.5427 2.4988-.7109 3.7232a2.6804 2.6804 0 0 0 2.2164 1.1741 2.6446 2.6446 0 0 0 .8183-.1423l7.6733 9.6894c-.5802 1.3618.0534 2.9362 1.4152 3.5164 1.3618.5802 2.9362-.0534 3.5164-1.4152a2.6803 2.6803 0 0 0-.7214-3.0856l4.0798-13.9353c1.3992-.0996 2.4822-1.2656 2.4787-2.6683zm-8.29 15.904a2.6565 2.6565 0 0 0-1.186.2965L5.9987 9.393a2.6565 2.6565 0 0 0 .3795-1.1148l11.9309-3.807c.1247.1407.2638.2679.4151.3795l-4.0323 13.7336h-.0118z"/></svg>