<svg role="img" viewBox="0 0 24 24" xmlns="http://www.w3.org/2000/svg"><title>Proteus</title><path d="M23.97918 11.40888c-.2458-1.2699-2.57727-2.19904-5.41552-2.76355.05798-.08911.13122-.18622.18603-.27362.61518-.98028.98535-1.77167 1.11042-2.3698.49523-.16316.85308-.6288.85308-1.17866 0-.68573-.55585-1.24157-1.24157-1.24157-.68567 0-1.24152.55584-1.24152 1.24157 0 .01172.0014.02301.00177.03467-.5412.1905-1.20593.54742-1.99206 1.07092-.5318.35413-1.1034.78906-1.6881 1.25647-.76783-.45044-1.65052-.72687-2.60505-.72687-.90661 0-1.74603.25354-2.48717.6629-.57056-.4605-1.12824-.88958-1.64777-1.24102-.79516-.5379-1.45928-.89471-2.00305-1.08801.00025-.01044.00598-.01917.00598-.02966 0-.68567-.5559-1.24152-1.24157-1.24152S3.3315 4.07698 3.3315 4.76265c0 .5581.37513 1.01257.8819 1.16894.12683.59662.48773 1.37988 1.09906 2.35864.08063.12909.1861.27154.2735.40442-.5597.12121-1.11145.2503-1.6297.40014C2.49532 9.5171.03885 10.4079.00064 11.62903c-.01245.39892.1574.7829.50476 1.1413.9845 1.01574 3.43078 1.80395 6.59496 2.2058-.27997.3905-.54565.77441-.77368 1.13782-.42658.6798-.73425 1.26788-.92535 1.76464-.67615.01117-1.22193.55884-1.22193 1.2376 0 .68568.55585 1.24152 1.24158 1.24152.45892 0 .8432-.26061 1.05804-.63085.59772-.13575 1.38-.51905 2.35754-1.16998.73804-.49152 1.54352-1.11475 2.37414-1.81635.2425.0348.48389.07422.73597.07422.30963 0 .60919-.03906.90386-.09112.82166.70135 1.6186 1.32623 2.34882 1.82018.82916.56091 1.5224.9339 2.078 1.12012.17419.47516.62914.81494 1.16473.81494.68566 0 1.24151-.5559 1.24151-1.24158 0-.60906-.4389-1.11468-1.01745-1.22033-.1861-.52008-.50867-1.14838-.96753-1.883-.2398-.38397-.51648-.78863-.81354-1.203 3.26239-.46325 5.87414-1.36059 6.76434-2.43963.28985-.35138.40081-.71551.32977-1.08245zm-7.47082-5.07672c.7782-.51825 1.38245-.83038 1.83301-.99719.17883.39429.55682.67895 1.00628.72357-.12994.469-.43621 1.14398-1.00836 2.05566-.08697.13855-.20031.29126-.29534.43427-.72687-.13068-1.4765-.2409-2.2306-.32471-.25036-.28345-.52471-.54193-.83105-.76501.52814-.41742 1.04389-.80548 1.52606-1.12659zM7.07472 9.9455c-.23852-.31195-.4682-.6184-.6784-.91724.39929-.07562.80249-.14618 1.21289-.20636-.22528.3465-.39649.7265-.53449 1.1236zm9.17534-1.18634c.51447.06512 1.01325.14178 1.49622.22687-.26422.37817-.55298.7663-.86371 1.16558-.14954-.49664-.3501-.97094-.6325-1.39245zM5.72341 8.03351c-.57343-.91802-.87567-1.59008-1.00531-2.05859.4367-.05328.80542-.31652.98077-.70208.45203.16809 1.04602.47082 1.84137 1.00885.46502.31457.961.69067 1.4693 1.09576-.36347.25122-.67939.5586-.96735.89215-.66058.08594-1.30908.19348-1.94366.31842-.12335-.18408-.26465-.37763-.37512-.5545zM.8533 12.43311c-.25263-.26069-.37659-.52613-.36835-.78894.01514-.48487.96857-1.3216 3.60583-2.08392.56732-.164 1.16736-.30909 1.78436-.43805.31006.44915.65027.91168 1.02374 1.3897-.08063.36304-.13037.73737-.13037 1.1247 0 1.00335.2981 1.93194.79211 2.72527-.04132.0545-.08679.1106-.12725.1648-3.16833-.3761-5.65033-1.13428-6.58007-2.09357zm7.7147 5.72044c-.83007.55286-1.45952.86853-1.91826 1.02594.00116-.02215.01275-.04083.01275-.0633 0-.52013-.32098-.96257-.77472-1.14733.1703-.42028.44208-.94842.8493-1.59735.266-.42376.57429-.87103.91193-1.33203.15479.01703.30695.03571.46478.0509.65631.72797 1.51093 1.261 2.48486 1.52466-.7077.58374-1.39703 1.11658-2.03063 1.53851zm8.71972-1.76293c.41937.6715.6958 1.21393.86499 1.64044-.50928.12176-.8966.55621-.94629 1.08978-.4381-.17853-1.01135-.48834-1.7356-.97827-.63683-.43079-1.33007-.97394-2.04192-1.56921.92828-.279 1.74188-.8014 2.37036-1.5069.18194-.01959.35962-.04248.53833-.06476.35174.48102.67492.9483.95013 1.38892zm5.98797-4.20758c-.55707.67517-2.0246 1.33753-4.02624 1.8172-.8338.19983-1.75311.3529-2.7027.47876-.05212-.06982-.10913-.14166-.1626-.21204.45954-.77331.74067-1.66552.74067-2.63036 0-.30493-.03919-.59961-.08972-.89008.4585-.57568.8648-1.1292 1.23132-1.66412 2.91137.56922 5.05492 1.47723 5.23711 2.41852.04285.22119-.03174.44433-.22784.68212z"/></svg>