<svg role="img" viewBox="0 0 24 24" xmlns="http://www.w3.org/2000/svg"><title>Proteus</title><path d="M23.98 11.409c-.247-1.27-2.578-2.2-5.416-2.764.058-.089.13-.186.186-.273.615-.98.985-1.772 1.11-2.37a1.241 1.241 0 1 0-1.63-1.179l.002.035c-.541.19-1.206.547-1.992 1.07-.532.355-1.104.79-1.688 1.257a5.127 5.127 0 0 0-2.605-.727c-.907 0-1.746.254-2.488.663a25.11 25.11 0 0 0-1.647-1.24c-.795-.539-1.46-.895-2.003-1.089 0-.01.006-.019.006-.03a1.242 1.242 0 0 0-2.484 0c0 .559.376 1.013.882 1.17.127.596.488 1.38 1.1 2.358.08.13.186.272.273.405-.56.12-1.112.25-1.63.4-1.46.422-3.917 1.313-3.955 2.534-.013.399.157.783.504 1.141.985 1.016 3.431 1.804 6.595 2.206-.28.39-.545.775-.773 1.138-.427.68-.735 1.268-.926 1.765a1.24 1.24 0 0 0 .02 2.479c.459 0 .843-.26 1.058-.631.598-.136 1.38-.52 2.358-1.17a26.885 26.885 0 0 0 2.374-1.816c.242.034.484.074.736.074.31 0 .609-.04.904-.091a27.222 27.222 0 0 0 2.348 1.82c.83.56 1.523.934 2.078 1.12a1.24 1.24 0 1 0 1.39-1.647c-.187-.52-.51-1.148-.968-1.883-.24-.384-.517-.789-.814-1.203 3.262-.463 5.874-1.36 6.764-2.44.29-.351.401-.715.33-1.082zm-7.472-5.077c.779-.518 1.383-.83 1.833-.997.18.394.557.679 1.007.724-.13.469-.437 1.144-1.009 2.055-.087.139-.2.291-.295.434-.727-.13-1.477-.24-2.23-.324a5.182 5.182 0 0 0-.832-.765 23.873 23.873 0 0 1 1.526-1.127zM7.075 9.945a28.983 28.983 0 0 1-.679-.917c.4-.075.803-.146 1.213-.206a5.15 5.15 0 0 0-.534 1.123zM16.25 8.76c.515.065 1.013.142 1.496.227-.264.378-.553.766-.863 1.166-.15-.497-.35-.971-.633-1.393zM5.723 8.034c-.573-.919-.875-1.59-1.005-2.06.437-.052.805-.316.98-.701.453.168 1.047.47 1.842 1.009.465.314.961.69 1.47 1.095-.364.252-.68.559-.968.893-.66.086-1.309.193-1.943.318-.124-.184-.265-.378-.376-.554zm-4.87 4.4c-.252-.262-.376-.527-.368-.79.015-.485.968-1.321 3.606-2.084.567-.164 1.167-.309 1.784-.438.31.45.65.912 1.024 1.39a5.17 5.17 0 0 0-.13 1.125c0 1.003.298 1.932.792 2.725-.042.054-.087.11-.128.165-3.168-.376-5.65-1.135-6.58-2.094zm7.715 5.72c-.83.552-1.46.868-1.918 1.026 0-.023.012-.041.012-.064 0-.52-.32-.962-.774-1.147.17-.42.442-.949.85-1.597.265-.424.573-.872.911-1.333.155.018.307.036.465.051a5.147 5.147 0 0 0 2.485 1.525 25.65 25.65 0 0 1-2.031 1.539zm8.72-1.763c.42.671.696 1.214.865 1.64-.51.122-.897.556-.947 1.09-.438-.179-1.01-.488-1.735-.978-.637-.431-1.33-.974-2.042-1.57a5.147 5.147 0 0 0 2.37-1.507c.182-.02.36-.042.539-.064.351.48.675.948.95 1.389zm5.988-4.208c-.557.675-2.025 1.338-4.027 1.817-.833.2-1.753.353-2.702.479-.052-.07-.11-.142-.163-.212.46-.773.74-1.666.74-2.63 0-.305-.038-.6-.089-.89.459-.576.865-1.13 1.231-1.665 2.912.57 5.055 1.478 5.238 2.419.042.221-.032.444-.228.682z"/></svg>