<svg xmlns="http://www.w3.org/2000/svg" viewBox="0 0 24 24"><defs/><g stroke="#449fdb"><path stroke-width=".03125" d="M.5 0v24" opacity=".3"/><path stroke-width=".03125" d="M1 0v24"/><path stroke-width=".03125" d="M1.5 0v24" opacity=".3"/><path stroke-width=".03125" d="M2 0v24"/><path stroke-width=".03125" d="M2.5 0v24" opacity=".3"/><path stroke-width=".03125" d="M3 0v24"/><path stroke-width=".03125" d="M3.5 0v24" opacity=".3"/><path stroke-width=".03125" d="M4 0v24"/><path stroke-width=".03125" d="M4.5 0v24" opacity=".3"/><path stroke-width=".03125" d="M5 0v24"/><path stroke-width=".03125" d="M5.5 0v24" opacity=".3"/><path stroke-width=".03125" d="M6 0v24"/><path stroke-width=".03125" d="M6.5 0v24" opacity=".3"/><path stroke-width=".03125" d="M7 0v24"/><path stroke-width=".03125" d="M7.5 0v24" opacity=".3"/><path stroke-width=".03125" d="M8 0v24"/><path stroke-width=".03125" d="M8.5 0v24" opacity=".3"/><path stroke-width=".03125" d="M9 0v24"/><path stroke-width=".03125" d="M9.5 0v24" opacity=".3"/><path stroke-width=".03125" d="M10 0v24"/><path stroke-width=".03125" d="M10.5 0v24" opacity=".3"/><path stroke-width=".03125" d="M11 0v24"/><path stroke-width=".03125" d="M11.5 0v24" opacity=".3"/><path stroke-width=".03125" d="M12 0v24"/><path stroke-width=".03125" d="M12.5 0v24" opacity=".3"/><path stroke-width=".03125" d="M13 0v24"/><path stroke-width=".03125" d="M13.5 0v24" opacity=".3"/><path stroke-width=".03125" d="M14 0v24"/><path stroke-width=".03125" d="M14.5 0v24" opacity=".3"/><path stroke-width=".03125" d="M15 0v24"/><path stroke-width=".03125" d="M15.5 0v24" opacity=".3"/><path stroke-width=".03125" d="M16 0v24"/><path stroke-width=".03125" d="M16.5 0v24" opacity=".3"/><path stroke-width=".03125" d="M17 0v24"/><path stroke-width=".03125" d="M17.5 0v24" opacity=".3"/><path stroke-width=".03125" d="M18 0v24"/><path stroke-width=".03125" d="M18.5 0v24" opacity=".3"/><path stroke-width=".03125" d="M19 0v24"/><path stroke-width=".03125" d="M19.5 0v24" opacity=".3"/><path stroke-width=".03125" d="M20 0v24"/><path stroke-width=".03125" d="M20.5 0v24" opacity=".3"/><path stroke-width=".03125" d="M21 0v24"/><path stroke-width=".03125" d="M21.5 0v24" opacity=".3"/><path stroke-width=".03125" d="M22 0v24"/><path stroke-width=".03125" d="M22.5 0v24" opacity=".3"/><path stroke-width=".03125" d="M23 0v24"/><path stroke-width=".03125" d="M23.5 0v24M0 .5h24" opacity=".3"/><path stroke-width=".03125" d="M0 1h24"/><path stroke-width=".03125" d="M0 1.5h24" opacity=".3"/><path stroke-width=".03125" d="M0 2h24"/><path stroke-width=".03125" d="M0 2.5h24" opacity=".3"/><path stroke-width=".03125" d="M0 3h24"/><path stroke-width=".03125" d="M0 3.5h24" opacity=".3"/><path stroke-width=".03125" d="M0 4h24"/><path stroke-width=".03125" d="M0 4.5h24" opacity=".3"/><path stroke-width=".03125" d="M0 5h24"/><path stroke-width=".03125" d="M0 5.5h24" opacity=".3"/><path stroke-width=".03125" d="M0 6h24"/><path stroke-width=".03125" d="M0 6.5h24" opacity=".3"/><path stroke-width=".03125" d="M0 7h24"/><path stroke-width=".03125" d="M0 7.5h24" opacity=".3"/><path stroke-width=".03125" d="M0 8h24"/><path stroke-width=".03125" d="M0 8.5h24" opacity=".3"/><path stroke-width=".03125" d="M0 9h24"/><path stroke-width=".03125" d="M0 9.5h24" opacity=".3"/><path stroke-width=".03125" d="M0 10h24"/><path stroke-width=".03125" d="M0 10.5h24" opacity=".3"/><path stroke-width=".03125" d="M0 11h24"/><path stroke-width=".03125" d="M0 11.5h24" opacity=".3"/><path stroke-width=".03125" d="M0 12h24"/><path stroke-width=".03125" d="M0 12.5h24" opacity=".3"/><path stroke-width=".03125" d="M0 13h24"/><path stroke-width=".03125" d="M0 13.5h24" opacity=".3"/><path stroke-width=".03125" d="M0 14h24"/><path stroke-width=".03125" d="M0 14.5h24" opacity=".3"/><path stroke-width=".03125" d="M0 15h24"/><path stroke-width=".03125" d="M0 15.5h24" opacity=".3"/><path stroke-width=".03125" d="M0 16h24"/><path stroke-width=".03125" d="M0 16.5h24" opacity=".3"/><path stroke-width=".03125" d="M0 17h24"/><path stroke-width=".03125" d="M0 17.5h24" opacity=".3"/><path stroke-width=".03125" d="M0 18h24"/><path stroke-width=".03125" d="M0 18.5h24" opacity=".3"/><path stroke-width=".03125" d="M0 19h24"/><path stroke-width=".03125" d="M0 19.5h24" opacity=".3"/><path stroke-width=".03125" d="M0 20h24"/><path stroke-width=".03125" d="M0 20.5h24" opacity=".3"/><path stroke-width=".03125" d="M0 21h24"/><path stroke-width=".03125" d="M0 21.5h24" opacity=".3"/><path stroke-width=".03125" d="M0 22h24"/><path stroke-width=".03125" d="M0 22.5h24" opacity=".3"/><path stroke-width=".03125" d="M0 23h24"/><path stroke-width=".03125" d="M0 23.5h24" opacity=".3"/></g><path d="M23.88528 11.99969c0 6.56456-5.32053 11.8859-11.88522 11.8859-6.56525 0-11.88522-5.3213-11.88522-11.8859 0-6.56425 5.3201-11.88522 11.88522-11.88522 6.5647 0 11.88522 5.32094 11.88522 11.88522z"/><path fill="#f5f5f5" d="M6.14406 12.86828c0-3.23444 2.62188-5.85522 5.85588-5.85522 3.23356 0 5.85472 2.62078 5.85472 5.85522zm13.16344.27006v-.54056h1.69381c-.06728-2.28347-.98347-4.35256-2.44522-5.90403l-1.26546 1.2659-.38194-.38246 1.26522-1.2656c-1.5514-1.46171-3.62057-2.37778-5.90357-2.44462l-.00053 1.69337h-.54015V3.86697c-2.2836.06684-4.3522.9835-5.9036 2.44462l1.2656 1.2656-.38275.38181-1.26547-1.26522c-1.46144 1.5514-2.3775 3.62056-2.44481 5.90403H4.692l-.00028.54H2.99175v1.98228h18.01669v-1.98184h-1.70081z"/></svg>