<svg role="img" viewBox="0 0 24 24" xmlns="http://www.w3.org/2000/svg"><title>Proton Calendar</title><path d="M0 5.034h16.968a1.93 1.93 0 0 1 1.931 1.931v6.138l-1.058.002-.331.03-.4.092-.406.163-.398.241-.326.28-.118.125-.002-.002-4.372 5.132a2.483 2.483 0 0 0-.592 1.609v1.156H2.482l-.192-.007a2.015 2.015 0 0 1-.176-.02l-.078-.013a2.448 2.448 0 0 1-.703-.241l-.209-.122a2.712 2.712 0 0 1-.244-.182l-.142-.13-.19-.211-.107-.143-.098-.152a3.295 3.295 0 0 1-.072-.13l-.042-.087-.079-.192a2.516 2.516 0 0 1-.15-.852V5.034Zm15.184 10.564-3.316 3.892a1.982 1.982 0 0 0-.472 1.285v1.156h3.776v-6.07c0-.088.004-.176.012-.263Zm2.404 3.181h.873a.655.655 0 0 0 .251.379.664.664 0 0 0 .435.134c.395 0 .655-.217.655-.536 0-.319-.271-.496-.807-.496h-.352v-.719h.301c.519 0 .732-.189.732-.478 0-.286-.231-.483-.549-.483a.546.546 0 0 0-.577.498h-.838c.031-.501.425-1.219 1.415-1.219.794 0 1.343.453 1.343 1.09a.962.962 0 0 1-.67.919v.012a.96.96 0 0 1 .789.98c0 .69-.632 1.146-1.45 1.146-.868.005-1.488-.488-1.551-1.227Zm4.529-2.852h.636v4.021h-.82v-3.085l-.79.537v-.813l.974-.66ZM0 4.534h16.968a2.43 2.43 0 0 1 2.431 2.431v6.138H24V4.551a2.481 2.481 0 0 0-2.482-2.482H2.485A2.483 2.483 0 0 0 0 4.534Z"/></svg>