<svg role="img" viewBox="0 0 24 24" xmlns="http://www.w3.org/2000/svg"><title>Proton Pass</title><path d="M6.918 3.33c.837-.837 1.256-1.255 1.738-1.412a2.114 2.114 0 0 1 1.307 0c.482.157.9.575 1.738 1.413l6.278 6.277c.837.837 1.255 1.256 1.412 1.739.138.424.138.881 0 1.306-.157.483-.575.901-1.412 1.738L11.7 20.67c-.837.837-1.256 1.256-1.738 1.412a2.114 2.114 0 0 1-1.307 0c-.482-.156-.9-.575-1.738-1.412l-3.886-3.886C1.358 15.109.52 14.27.207 13.306a4.228 4.228 0 0 1 0-2.613c.314-.965 1.15-1.802 2.825-3.476L6.918 3.33zm16.875 7.364c-.314-.966-1.15-1.803-2.825-3.477l-4.185-4.185C15.109 1.358 14.272.52 13.306.207a4.227 4.227 0 0 0-2.612 0c-.377.122-.735.327-1.13.628.24.02.478.057.708.132.71.231 1.217.737 2.136 1.656l6.278 6.278c.919.92 1.425 1.425 1.656 2.137.205.629.205 1.294 0 1.924-.23.711-.737 1.217-1.656 2.136l-6.278 6.278c-.919.92-1.425 1.425-2.136 1.657-.23.074-.468.112-.709.132.395.3.754.506 1.13.628.85.276 1.764.276 2.613 0 .966-.314 1.803-1.15 3.477-2.825l4.185-4.185c1.674-1.674 2.511-2.511 2.825-3.477a4.227 4.227 0 0 0 0-2.612z"/></svg>