<svg role="img" viewBox="0 0 24 24" xmlns="http://www.w3.org/2000/svg"><title>Protractor</title><path d="M17.988 12.961h-11.8l-.001-.047a5.901 5.901 0 1111.802 0l-.001.047zm1.396-.267h1.886a9.183 9.183 0 00-2.662-6.087L17.306 7.91l-.315-.314 1.296-1.296a9.18 9.18 0 00-6.035-2.415v1.678h-.446V3.886a9.179 9.179 0 00-6.024 2.47L6.967 7.54l-.315.315-1.188-1.188a9.181 9.181 0 00-2.605 6.027h1.726v.445H2.85c.003.689.083 1.359.23 2.003h17.969a9.244 9.244 0 00.23-2.003h-1.895zM24 12c0 6.627-5.373 12-12 12S0 18.627 0 12 5.373 0 12 0s12 5.373 12 12"/></svg>