<svg role="img" viewBox="0 0 24 24" xmlns="http://www.w3.org/2000/svg"><title>Proton Drive</title><path d="M24.01 6.59v12.792a2.472 2.472 0 0 1-2.482 2.462h-1.622V8.996a2.925 2.925 0 0 0-2.929-2.915l-9.422.053a.944.944 0 0 1-.55-.171L4.912 4.487a2.919 2.919 0 0 0-1.694-.536H.107a2.471 2.471 0 0 1 2.381-1.806h4.658c.47 0 .929.148 1.306.424l1.558 1.134c.38.277.838.425 1.308.425h10.21A2.471 2.471 0 0 1 24.01 6.59zm-5.104 2.406v12.85H2.488a2.471 2.471 0 0 1-2.482-2.462V4.951h3.21c.4 0 .793.123 1.12.354L6.43 6.78c.332.234.726.357 1.131.354l9.402-.052a1.922 1.922 0 0 1 1.943 1.914z"/></svg>