<svg xmlns="http://www.w3.org/2000/svg" xml:space="preserve" id="Layer_1" x="0" y="0" style="enable-background:new 0 0 99.6 54.4" version="1.1" viewBox="0 0 99.6 54.4"><style>.st0{fill:#fe414d}</style><path d="M77.2 17.1c-1.1.8-2.4 1.3-3.9 1.3-3.4 0-6.1-2.7-6.1-6s2.8-6 6.1-6c1.5 0 2.8.5 3.9 1.3l1.3-1.3c-1.4-1.2-3.2-1.9-5.2-1.9-4.4 0-8 3.5-8 7.8s3.6 7.8 8 7.8c2 0 3.8-.7 5.2-1.9l-1.3-1.1z"/><path d="M53.6 30.9c.6 0 1.2-.5 1.2-1.2s-.5-1.2-1.2-1.2c-.6 0-1.2.5-1.2 1.2s.5 1.2 1.2 1.2zM52.7 33.1h1.8v15.6h-1.8z" class="st0"/><path d="M15.1 12.4c0-4.3-3.4-7.7-7.5-7.7-2.2 0-4.3 1-5.7 2.7V4.7H.1v21.2h1.8v-8.3c1.4 1.7 3.5 2.7 5.7 2.7 4.1-.1 7.5-3.6 7.5-7.9zm-7.6 6c-3.1 0-5.6-2.5-5.7-5.7v-.2c0-3.3 2.6-5.9 5.7-5.9s5.7 2.7 5.7 5.9-2.5 5.9-5.7 5.9z"/><path d="M21.9 48.7c2.2 0 4.3-1 5.7-2.7v2.7h1.8V33.1h-1.8v2.7a7.41 7.41 0 0 0-5.7-2.7c-4.1 0-7.5 3.5-7.5 7.7 0 4.4 3.4 7.9 7.5 7.9zm-5.7-7.8c0-3.3 2.6-5.9 5.7-5.9s5.7 2.7 5.7 5.9v.2c-.1 3.2-2.6 5.7-5.7 5.7-3.1.1-5.7-2.6-5.7-5.9zM49.3 40.9c0-4.3-3.4-7.7-7.5-7.7-2.2 0-4.3 1-5.7 2.7v-2.7h-1.8v21.2h1.8v-8.3c1.4 1.7 3.5 2.7 5.7 2.7 4.1-.1 7.5-3.6 7.5-7.9zm-7.5 6c-3.1 0-5.6-2.5-5.7-5.7V41c0-3.3 2.6-5.9 5.7-5.9s5.7 2.7 5.7 5.9-2.6 5.9-5.7 5.9z" class="st0"/><path d="M28.8 4.6v9.2c0 2.5-2 4.5-4.6 4.6-2.5 0-4.5-2-4.5-4.6V4.6h-1.8v9.2c0 3.5 2.8 6.4 6.3 6.4s6.4-2.9 6.4-6.4V4.6h-1.8zM41.8 4.6c-2.2 0-4.3 1-5.7 2.7V0h-1.8v20.2h1.8v-2.7c1.4 1.7 3.5 2.7 5.7 2.7 4.1 0 7.5-3.5 7.5-7.7 0-4.4-3.4-7.9-7.5-7.9zm5.7 7.9c0 3.3-2.6 5.9-5.7 5.9s-5.7-2.7-5.7-5.9v-.2c.1-3.2 2.6-5.7 5.7-5.7 3.1-.1 5.7 2.6 5.7 5.9zM60.8 2.4c.6 0 1.2-.5 1.2-1.2S61.5 0 60.8 0c-.6 0-1.2.5-1.2 1.2s.5 1.2 1.2 1.2zM59.9 4.6h1.8v15.6h-1.8zM83.7 2.4c.6 0 1.2-.5 1.2-1.2S84.4 0 83.7 0c-.6 0-1.2.5-1.2 1.2s.5 1.2 1.2 1.2zM82.8 4.6h1.8v15.6h-1.8z"/><path d="M83.5 33.1c-1.7 0-3.4.7-4.6 2v-2h-1.8v15.6h1.8v-9.2C79 37 81 35 83.5 35s4.5 2 4.5 4.5v9.2h1.8v-9.2c.1-3.5-2.8-6.4-6.3-6.4zM99.4 46.9h-.2c-.2 0-.5.1-.9.1-.7 0-1.1-.5-1.1-1.6V34.8h2.2V33h-2.2v-5.2h-1.9V33h-2.2v1.8h2.2v10.7c0 1.2.2 1.9.7 2.4.4.5 1.1.7 1.8.7.6 0 1.1-.1 1.5-.2h.1v-1.5zM70.7 44.2c-1 1.7-2.8 2.7-4.8 2.7-3 0-5.5-2.4-5.7-5.5h12.3c.5 0 .9-.4.9-.8v-.1c-.3-4.1-3.5-7.2-7.5-7.2-4.2 0-7.6 3.5-7.6 7.8s3.4 7.7 7.6 7.7c2.5 0 4.9-1.3 6.3-3.5l-1.5-1.1zM66 35c2.7 0 5 1.9 5.5 4.6H60.3C61 36.9 63.2 35 66 35zM10.2 41.2s-.5-.4-1-.6c-.5-.2-1.2-.5-2.8-.8-.2-.1-.4-.1-.6-.1-1-.3-1.8-.6-2.4-1-.6-.5-.8-.9-.8-1.4 0-.6.4-1.1 1-1.6.7-.5 1.7-.8 2.8-.7 1.3.1 2.3.7 3.3 1.5l.1.1 1.3-1.2c-.2-.2-.2-.2-.6-.5-1-.7-2.3-1.5-4.1-1.5-1.5-.1-2.8.2-3.9.9-1.1.8-1.8 1.9-1.8 3 0 .9.2 1.7 1 2.5 1 1 2.7 1.5 4.1 1.8 1.3.2 2.4.7 3 1.2.7.6 1 1.1 1 1.8 0 .6-.5 1.3-1.2 1.7-.7.5-1.8.8-2.8.8-1.4-.1-2.9-.7-4.4-1.8l-.1-.1L0 46.4l.1.1c1.7 1.5 3.6 2.3 5.6 2.4 1.5.1 2.8-.3 3.9-1.1 1.2-.8 1.9-1.9 1.9-3.1.4-1.5-.3-2.7-1.3-3.5z" class="st0"/><path d="M98.2 12.7s-.5-.4-1-.6c-.5-.2-1.2-.5-2.8-.8-.2-.1-.4-.1-.6-.1-1-.3-1.8-.6-2.4-1-.6-.5-.8-.9-.8-1.4 0-.6.4-1.1 1-1.6.7-.5 1.7-.8 2.8-.7 1.3.1 2.3.7 3.3 1.5l.1.1 1.3-1.2c-.2-.2-.2-.2-.6-.5-1-.7-2.3-1.5-4.1-1.5-1.5-.1-2.8.2-3.9.9-1.1.8-1.8 1.9-1.8 3 0 .9.2 1.7 1 2.5 1 1 2.7 1.5 4.1 1.8 1.3.2 2.4.7 3 1.2.7.6 1 1.1 1 1.8 0 .6-.5 1.3-1.2 1.7-.7.5-1.8.8-2.8.8-1.4-.1-2.9-.7-4.4-1.8l-.1-.1-1.3 1.2.1.1c1.7 1.5 3.6 2.3 5.6 2.4 1.5.1 2.8-.3 3.9-1.1 1.2-.8 1.9-1.9 1.9-3.1.4-1.5-.2-2.7-1.3-3.5zM52.7.1h1.8v20.1h-1.8z"/></svg>