<svg role="img" viewBox="0 0 24 24" xmlns="http://www.w3.org/2000/svg"><title>Pug</title><path d="M12.0938 4.6358c-2.0663 0-3.6817.204-4.9221.5704a6.4511 6.4511 0 0 0 .0918-.084c.0374-.0375-.0507-.0625-.2285-.0684-.5335-.0175-1.8672.1436-2.9904.7051-1.273.599-4.118 3.7446-4.0432 3.9318.075.1872 1.4594 1.3458 1.8712 1.795.2621.2995 1.0485 2.9592 1.7599 2.51.189-.131.2656-.651.33-1.2931.0582.4975.1155 1.013.1934 1.4805.1123.7488 1.087 1.3474 1.1993 2.0587.1391 1.0138.7614 1.7234 1.9805 2.174.4847.6681 1.2382.3299 1.801.6347.8984.4867 1.9091.2617 2.92.2617 1.0108 0 1.984.186 2.92-.3007.576-.2995 1.32.0311 1.8087-.5802 1.2254-.4494 1.8319-1.1633 1.9727-2.1895.1123-.7113 1.0479-1.3099 1.1602-2.0587.0633-.3799.1102-.802.1582-1.2032.0568.4994.13.9042.291 1.0157.674.4493 1.4978-2.2104 1.7599-2.5099.4118-.4492 1.7963-1.6078 1.8712-1.795.0748-.1872-2.8074-3.3327-4.0803-3.9318-1.1231-.5615-2.4568-.7226-2.9903-.705-.167.0054-.2454.0287-.2247.0624-1.1748-.308-2.6728-.4805-4.6095-.4805zm.0293.5c2.2035 0 3.8486.2253 5.01.6153.1335.0449.2387.098.3593.1465.6901.715 1.6233 1.831 2.0138 3.1173.0246.081.0405.1658.0625.248.0003.0013-.0003.0028 0 .004v.0039c.0453.77.3158 1.4169.2305 1.9903-.1536.9982-.2285 1.9726-.373 2.84l-.002.0039v.0039c-.0289.1922-.218.4762-.4786.8067-.2606.3305-.5955.7024-.6817 1.248v.006l-.0019.0038c-.1006.733-.4207 1.1997-1.17 1.5821.1252-.4447.2051-1.055.2051-1.963.0374-1.1231.0766-1.5722-.8594-2.6954-.7184-.9236-1.704-1.5746-2.793-1.8985-.1111-.3899-.7217-.836-1.551-.836-.8285 0-1.4147.422-1.5352.8204-1.1098.3182-2.116.9759-2.8458 1.9141-.936 1.1232-.8594 1.6097-.8594 2.6955 0 .9037.0795 1.5135.2031 1.961-.7697-.385-1.1078-.857-1.207-1.5802v-.0097c-.0875-.5541-.4371-.9235-.7071-1.254-.27-.3305-.4626-.6166-.4903-.8008l-.002-.004v-.0038c-.1444-.8669-.2196-1.8406-.373-2.838v-.002c-.0853-.5734.1833-1.2203.2285-1.9903v.0156c.0131-.1437.0173-.241.0254-.371.3604-1.1587 1.1531-2.1726 1.8048-2.8752a6.4135 6.4135 0 0 1 .7246-.289c1.1921-.3916 2.8593-.6153 5.0628-.6153zm-5.2092 3.805a1.6473 1.6473 0 0 0-1.6349 1.6484 1.6473 1.6473 0 0 0 1.6485 1.6466 1.6473 1.6473 0 0 0 .4415-.0606c.3487-.3747.7177-.7223 1.1113-1.041a1.6473 1.6473 0 0 0 .0938-.545 1.6473 1.6473 0 0 0-1.6466-1.6485 1.6473 1.6473 0 0 0-.0136 0zm10.2973 0a1.6473 1.6473 0 0 0-1.6368 1.6484 1.6473 1.6473 0 0 0 .1504.6836c.3125.2642.611.547.8945.8477a1.6473 1.6473 0 0 0 .6036.1153 1.6473 1.6473 0 0 0 1.6465-1.6466 1.6473 1.6473 0 0 0-1.6465-1.6485 1.6473 1.6473 0 0 0-.0117 0zm-9.8715.4863a.4118.4118 0 0 1 .4101.412.4118.4118 0 0 1-.4101.4122.4118.4118 0 0 1-.4122-.4121.4118.4118 0 0 1 .4122-.4121zm9.471 0a.4118.4118 0 0 1 .4122.412.4118.4118 0 0 1-.4121.4122.4118.4118 0 0 1-.4122-.4121.4118.4118 0 0 1 .4122-.4121zm-5.1095 1.4863a.1498.2995 17.23 0 1 .0293.004.1498.2995 17.23 0 1 .0547.33.1498.2995 17.23 0 1-.2325.2422.1498.2995 17.23 0 1-.0527-.33.1498.2995 17.23 0 1 .2012-.2462zm.6719.0215a.2995.1498 75.54 0 1 .205.254.2995.1498 75.54 0 1-.0703.328.2995.1498 75.54 0 1-.2207-.2519.2995.1498 75.54 0 1 .0703-.3281.2995.1498 75.54 0 1 .0157-.002zm-.3164.4766s.0358.226.1855.3008c.1498.0749.8614-.1504.8614-.1504-.337.262-.9727.263-.9727.338v.373c0 .4079.0263 1.4614-.0313 1.6856.8238.0045 2.09 1.1255 2.09 2.508v.0741c-.0375-1.3478-1.6091-2.4337-2.0958-2.4337-.4867 0-2.0603 1.0485-2.0978 2.4337v-.0742c0-1.3626 1.2326-2.47 2.0567-2.506-.0704-.5517-.0722-1.1372-.0722-1.6875v-.373c-.2145-.0954-.4322-.1714-.6563-.2364.1846.0326.371.0488.545.0488.1497-.0749.1875-.3008.1875-.3008zm-3.0412 1.3477a.1498.1498 0 0 1 .0078 0 .1498.1498 0 0 1 .1504.1504.1498.1498 0 0 1-.1504.1504.1498.1498 0 0 1-.1504-.1504.1498.1498 0 0 1 .1426-.1504zm1.1231 0a.1498.1498 0 0 1 .0078 0 .1498.1498 0 0 1 .1504.1504.1498.1498 0 0 1-.1504.1504.1498.1498 0 0 1-.1504-.1504.1498.1498 0 0 1 .1426-.1504zm3.67 0a.1498.1498 0 0 1 .0079 0 .1498.1498 0 0 1 .1504.1504.1498.1498 0 0 1-.1504.1504.1498.1498 0 0 1-.1504-.1504.1498.1498 0 0 1 .1426-.1504zm1.1232 0a.1498.1498 0 0 1 .0078 0 .1498.1498 0 0 1 .1504.1504.1498.1498 0 0 1-.1504.1504.1498.1498 0 0 1-.1504-.1504.1498.1498 0 0 1 .1426-.1504zm-5.6526.8985a.1498.1498 0 0 1 .0078 0 .1498.1498 0 0 1 .1484.1504.1498.1498 0 0 1-.1484.1504.1498.1498 0 0 1-.1504-.1504.1498.1498 0 0 1 .1426-.1504zm5.3908 0a.1498.1498 0 0 1 .006 0 .1498.1498 0 0 1 .1503.1504.1498.1498 0 0 1-.1504.1504.1498.1498 0 0 1-.1484-.1504.1498.1498 0 0 1 .1425-.1504Z"/></svg>