<svg role="img" viewBox="0 0 24 24" xmlns="http://www.w3.org/2000/svg"><title>Puma</title><path d="M23.845 3.0084c-.417-.533-1.1456-.1065-1.4666.08-2.2845 1.346-2.6215 3.716-3.417 5.077-.6265 1.089-1.652 1.8895-2.5796 1.9516-.6865.049-1.4305-.0836-2.169-.405-1.8065-.781-2.78-1.7916-3.017-1.97-.4865-.3696-4.2295-4.0151-7.2796-4.1636 0 0-.372-.75-.465-.763-.2225-.0255-.451.451-.6165.501-.15.0525-.4125-.512-.565-.4875-.153.021-.3015.586-.5995.8775-.2195.2125-.4865.199-.6375.463-.052.096-.034.265-.093.42-.1265.3205-.551.354-.555.697 0 .381.357.4535.669.719.248.2125.265.3625.5545.462.2575.088.632-.187.964-.0885.2765.0815.5425.1395.602.423.054.2565 0 .658-.341.613-.111-.015-.597-.174-1.1975-.11-.725.077-1.5525.309-1.6335 1.11-.0415.4475.514.971 1.055.8665.371-.0715.196-.5065.3985-.7165.2675-.2705 1.7725.944 3.172.944.593 0 1.0315-.15 1.4675-.605.039-.0285.0925-.1015.155-.109.0565.0075.162.064.195.0875 1.131.8965 1.9836 2.6996 6.1301 2.7206.582.007 1.249.279 1.7955.7765.48.433.764 1.1255 1.0375 1.825.418 1.053 1.161 2.0695 2.292 3.2035.0596.0675.99.7805 1.0596.833.0125.0105.084.167.053.255-.0195.69-.1225 2.67 1.3655 2.753.3655.02.2745-.2314.2745-.41-.005-.3415-.0645-.6855.113-1.04.2535-.4785-.5255-.709-.5085-1.7565.0185-.7835-.6455-.651-.9845-1.249-.1905-.3435-.368-.5325-.3495-.947.0725-2.38-.517-3.948-.805-4.327-.2275-.2935-.4235-.403-.207-.539 1.2405-.816 1.525-1.575 1.525-1.575.66-1.5406 1.256-2.945 2.075-3.569.166-.1206.5885-.44.8515-.56.7635-.3626 1.173-.5781 1.3885-.7881.3555-.3375.635-1.0535.294-1.48h-.0005z"/></svg>