<svg role="img" viewBox="0 0 24 24" xmlns="http://www.w3.org/2000/svg"><title>Puppeteer icon</title><path d="M18.047 2.757l-.594.05.236 2.933.626.363zm-12.016.01L5.735 6.01l.624-.3.266-2.89zm-.45 4.907l-.076.842-1.208 3.129a1.2 1.2 0 0 0-.336.835v10.308c0 .668.543 1.212 1.21 1.212h13.656c.67 0 1.212-.544 1.212-1.21V12.477c0-.306-.116-.584-.303-.797l-1.288-3.932-.006-.068-.575.257.267 3.33H5.852l.238-2.615.226-.588L6.15 8l.002-.03zm13.072 2.617l.323.987a1.193 1.193 0 0 0-.149-.01h-.096zm-13.347.396l-.053.58h-.08c-.031 0-.061.005-.092.007zm-.133.939h13.654c.471 0 .853.383.853.854v.796H4.32v-.796c0-.471.38-.854.853-.854zm.119.584a.27.27 0 0 0-.272.27.27.27 0 0 0 .542 0 .27.27 0 0 0-.27-.27zm.921 0a.27.27 0 1 0 0 .54.27.27 0 0 0 .271-.27.27.27 0 0 0-.27-.27zm.895 0a.27.27 0 1 0 0 .538.27.27 0 0 0 0-.538zM4.32 13.634h15.36v9.153c0 .471-.38.855-.853.855H5.173a.852.852 0 0 1-.853-.855zm1.903 4.437a.313.313 0 0 0 .071-.211.305.305 0 0 0-.07-.21.268.268 0 0 0-.206-.078h-.43v.578h.43a.262.262 0 0 0 .205-.08zm-.205-.848a.58.58 0 0 1 .442.172c.11.117.164.273.164.465a.65.65 0 0 1-.16.462.582.582 0 0 1-.446.175h-.43v.78h-.331v-2.054zm1.793 1.26v-.6h.358v1.353H7.81v-.122a.574.574 0 0 1-.425.162.517.517 0 0 1-.394-.16.568.568 0 0 1-.15-.409v-.824h.36v.748c0 .095.024.174.075.23a.247.247 0 0 0 .198.088c.225 0 .336-.155.336-.467zm1.755.37a.404.404 0 0 0 .105-.292.41.41 0 0 0-.105-.295.37.37 0 0 0-.274-.112c-.1 0-.19.038-.27.114a.388.388 0 0 0-.116.293c0 .12.038.217.117.29a.376.376 0 0 0 .269.114.37.37 0 0 0 .274-.11zm-.212-1.01c.176 0 .333.068.466.203a.71.71 0 0 1 .197.515.7.7 0 0 1-.197.512.63.63 0 0 1-.466.203.693.693 0 0 1-.448-.146v.75h-.358v-1.997h.358v.11a.67.67 0 0 1 .448-.15zm1.951 1.01a.404.404 0 0 0 .106-.292.41.41 0 0 0-.106-.295.37.37 0 0 0-.274-.112c-.1 0-.19.038-.269.114a.388.388 0 0 0-.116.293c0 .12.038.217.116.29a.376.376 0 0 0 .27.114.37.37 0 0 0 .273-.11zm-.212-1.01c.177 0 .334.068.467.203a.712.712 0 0 1 .198.515.7.7 0 0 1-.198.512.63.63 0 0 1-.467.203.694.694 0 0 1-.447-.146v.75h-.358v-1.997h.358v.11a.67.67 0 0 1 .447-.15zm1.193.56h.653a.32.32 0 0 0-.12-.186.357.357 0 0 0-.406.003.3.3 0 0 0-.127.184zm.333-.56a.67.67 0 0 1 .478.192c.133.13.2.296.209.5v.121h-1.03c.02.095.06.17.12.228a.31.31 0 0 0 .218.086c.155 0 .266-.06.336-.179l.32.068a.642.642 0 0 1-.257.312.74.74 0 0 1-.4.105.672.672 0 0 1-.492-.2.7.7 0 0 1-.2-.515c0-.209.067-.382.203-.518a.675.675 0 0 1 .495-.2zm1.673 1.1a.487.487 0 0 0 .225-.065l.102.298a.737.737 0 0 1-.352.1.547.547 0 0 1-.39-.135c-.094-.09-.14-.222-.14-.404v-.56h-.29v-.294h.29v-.41h.357v.41h.441v.293h-.44v.534c0 .155.065.233.198.233zm.75-.54h.654a.32.32 0 0 0-.12-.186.357.357 0 0 0-.407.003.3.3 0 0 0-.127.184zm.334-.56c.185 0 .345.065.477.192.133.13.2.296.21.5v.121h-1.03c.017.095.058.17.12.228a.31.31 0 0 0 .218.086c.155 0 .266-.06.336-.179l.32.068a.64.64 0 0 1-.258.312.74.74 0 0 1-.398.105.672.672 0 0 1-.494-.2.7.7 0 0 1-.2-.515c0-.209.067-.382.202-.518a.675.675 0 0 1 .497-.2zm1.274.56h.654a.32.32 0 0 0-.12-.186.357.357 0 0 0-.407.003.3.3 0 0 0-.127.184zm.333-.56c.185 0 .346.065.478.192.133.13.2.296.21.5v.121h-1.03c.017.095.058.17.12.228a.31.31 0 0 0 .217.086c.154 0 .266-.06.337-.179l.32.068a.642.642 0 0 1-.258.312.74.74 0 0 1-.4.105.672.672 0 0 1-.492-.2.7.7 0 0 1-.2-.515c0-.209.067-.382.202-.518a.675.675 0 0 1 .496-.2zm1.8.02a.3.3 0 0 1 .095.012l-.02.345h-.078c-.322 0-.482.192-.482.58v.436h-.357v-1.353h.357v.247a.566.566 0 0 1 .485-.265zM17.461 7.95v-.401l1.452-.754v.45zM5.02 6.785l1.403.806v.32L5.021 7.2zm7.19-1.695l4.832 2.387v.48l-4.831-2.474zM6.84 7.547l4.955-2.457v.393L6.841 7.988zm3.508-4.013l-5.013-2.42 1.297-.66 5.369 2.783L17.285.455l1.343.689-4.888 2.459a.266.266 0 0 0 0 .476l4.838 2.42-1.253.65-5.32-2.725-5.416 2.781-1.235-.71 4.998-2.484a.266.266 0 0 0-.004-.477zm-5.267-1.6v-.44l4.675 2.33-.472.19zm9.585 2.106c-.006-.004-.447-.212-.447-.212l4.691-2.361v.441zm.47.23l4.124-2.069a.124.124 0 0 0 .07-.11v-.98a.124.124 0 0 0-.069-.11l-1.92-.987a.124.124 0 0 0-.114 0L12.06 2.636a.123.123 0 0 1-.11 0L6.686.014a.124.124 0 0 0-.11 0L4.67.984a.124.124 0 0 0-.068.11v.995c0 .047.027.09.07.11l4.14 2.047L4.69 6.293a.124.124 0 0 0-.068.108l-.018.98a.123.123 0 0 0 .068.113l1.98 1a.124.124 0 0 0 .11 0l5.186-2.602a.124.124 0 0 1 .111 0l5.12 2.603a.124.124 0 0 0 .11 0l1.971-.954a.124.124 0 0 0 .07-.11V6.405a.124.124 0 0 0-.069-.11z"/></svg>