<svg role="img" viewBox="0 0 24 24" xmlns="http://www.w3.org/2000/svg"><title>PurgeCSS icon</title><path d="m11.549 23.98-.27-.018.012-5.24.012-5.24c3.802.003 5.172-3.053 5.103-5.204-.097-1.068-.621-3.321-3.36-4.32-.674-.141-1.027-.196-1.942-.198l-1.33-.02v10.02c0 8.743-.007 10.019-.067 10.019-.776 0-3.131-.966-4.374-1.795-7.838-5.221-6.85-17.107 1.739-20.92 9.258-4.11 19.126 4.343 16.496 14.13-1.415 5.266-6.695 9.125-12.018 8.785zm-.27-15.401c0-2.295.013-4.173.03-4.173.014 0 .358.225.763.5 4.123 2.804 4.126 4.125.02 7.232l-.813.613z"/></svg>