<svg role="img" viewBox="0 0 24 24" xmlns="http://www.w3.org/2000/svg"><title>PurgeCSS icon</title><path d="m11.55 23.98-.269-.018.012-5.24.54-.029c4.572-.251 6.236-6.248 2.457-8.86-.964-.666-1.507-.808-3.196-.833L9.78 3.74c0 6.053-.068 13.269-.068 20.039-.774 0-3.124-.966-4.364-1.795-7.82-5.221-6.834-17.107 1.735-20.92 9.237-4.11 19.083 4.343 16.459 14.13-1.412 5.266-6.68 9.125-11.991 8.785zm-.269-15.401c0-2.295.013-4.173.029-4.173.015 0 .358.225.762.5 4.114 2.804 4.117 4.125.019 7.232l-.81.613z"/></svg>