<svg role="img" viewBox="0 0 24 24" xmlns="http://www.w3.org/2000/svg"><title>Pusher icon</title><path d="M11.95 24.01v-6.02c0-.013.007-.026.019-.032l7.743-4.467a.035.035 0 00.018-.031v-1.712a.035.035 0 00-.053-.031l-7.673 4.426a.035.035 0 01-.053-.031v-1.713c0-.013.006-.025.017-.031L19.712 9.9a.037.037 0 00.018-.032v-1.71a.037.037 0 00-.053-.032l-7.673 4.426a.035.035 0 01-.054-.03v-1.714c0-.012.007-.024.02-.03l7.742-4.466a.035.035 0 00.018-.031V4.548a.076.076 0 00-.035-.062L11.985.038a.07.07 0 00-.07 0l-1.468.847a.035.035 0 000 .062l7.673 4.425a.037.037 0 010 .062l-1.466.846a.076.076 0 01-.073 0L8.874 1.834a.076.076 0 00-.076 0l-1.461.845a.035.035 0 000 .062l7.67 4.426a.035.035 0 010 .063l-1.466.845a.076.076 0 01-.075 0L5.762 3.629a.076.076 0 00-.075 0l-1.517.877v15.058c0 .013.007.026.019.03l1.484.858a.035.035 0 00.053-.032V5.466a.035.035 0 01.054-.031l1.485.856c.01.006.017.018.017.032v15.035c0 .013.007.025.018.032l1.484.857a.037.037 0 00.055-.032V7.26a.035.035 0 01.054-.032l1.483.856a.037.037 0 01.019.032v15.038c0 .012.006.024.017.03l1.488.856a.035.035 0 00.05-.03z"/></svg>