<svg role="img" viewBox="0 0 24 24" xmlns="http://www.w3.org/2000/svg"><title>PyCQA</title><path d="M18.6426 1.664c-2.471 0-4.4785 2.0142-4.4785 4.4962 0 2.482 2.0075 4.498 4.4785 4.498 2.471 0 4.4765-2.016 4.4765-4.498S21.1136 1.664 18.6426 1.664zm-17.5703.1856-.0078.0684c1.02 0 .9311.5053.7441 1.6933l-.5176 3.332c-.187 1.143-.2752 1.6934-1.2832 1.6934L0 8.7031h4.129l.0077-.0664c-1.124 0-1.0568-.5063-.8808-1.6933l.7851-5.0215h.2735c.773 0 1.1093.3713 1.1093 1.1953 0 1.184-.3633 2.6543-1.7343 2.6543H3.543l-.0098.08h.1777c1.634 0 3.7598-.4817 3.7598-2.3827 0-1.147-1.0074-1.6192-2.9004-1.6192zm18.7382.4902c1.626.502 2.8086 2.0234 2.8086 3.8204a3.9954 3.9954 0 0 1-.9746 2.6191zM9.1211 3.5c-.47 0-1.156.2148-1.498.3828l.0273.0274c.275-.087.4303.0589.4023.2539l-.4785 2.9297c-.112.678-.1469 1.6855 1.2031 1.6855 1.04 0 1.6868-.5857 2.3438-3.0957l.039.0078-.6757 3.416c-.108.529-.3627 2.3613-1.0957 2.3613-.562 0-1.443-2.33-3.707-2.33-1.283 0-2.1622 1.1943-2.1622 2.1543 0 .638.4013 1.1777 1.1543 1.1777 1.451 0 1.4231-2.0188.0801-1.8828.107.283-.1888.5195-.4238.5195-.35 0-.5176-.2199-.5176-.4629 0-.275.2292-.5586.8262-.5586 1.399 0 2.0155 1.7344 3.9765 1.7344 1.168 0 3.4594-1.694 3.7344-3.42l.5293-3.3593c.247-1.59-.4034-1.6097-1.7344-1.5097l-.0273.0292c.335.167.0596 1.4295-.1074 2.1075-.359 1.458-.8415 2.586-1.4395 2.586-.307 0-.3925-.2822-.3125-.7442l.5098-3.1368c.107-.666-.0885-.873-.6465-.873Zm-3.2402 9.793c-2.498 0-4.5254 2.0293-4.5254 4.5273 0 2.209 1.5837 4.0503 3.6777 4.4473l3.0723-5.3184 1.7539 3.0332a4.507 4.507 0 0 0 .5488-2.162c0-2.498-2.0283-4.5274-4.5273-4.5274zm12.6718.1133-5.1562 8.9296H23.709s-1.7117-2.8706-1.7637-2.9316h-4.0547v-1.8926h3.0332zm4.5 4.1152a.951.951 0 0 0-.832.4902h-3.83v.8926h3.8183a.9489.9489 0 0 0 .8437.5137c.523 0 .9473-.4243.9473-.9473 0-.524-.4243-.9492-.9473-.9492zm-14.9472.4277L5.5742 22.332h5.0645z"/></svg>