<svg role="img" viewBox="0 0 24 24" xmlns="http://www.w3.org/2000/svg"><title>PyMC</title><path d="M21.639.258c-.077.011-1.846.454-4.026 2.445-1.369 1.245-3.084 3.299-4.568 6.563-.813.065-3.532.51-4.05 3.59l-.005.027-.31 3.092a.38.38 0 0 0 .166.345l.017.012a.38.38 0 0 0 .358-.008l2.373-1.383.79.442-2.189 3.988a2.2 2.2 0 0 0-.988.447l-1.98-2.474a1.64 1.64 0 0 0 .345-1.508 1.615 1.615 0 0 0-1.56-1.2 1.642 1.642 0 0 0-1.56 2.07 1.626 1.626 0 0 0 1.986 1.14 1.6 1.6 0 0 0 .4-.176l2.014 2.512a2 2 0 0 0-.207.283 2.2 2.2 0 0 0-.245.838H4.373a1.634 1.634 0 0 0-1.594-1.389 1.634 1.634 0 0 0 0 3.268 1.634 1.634 0 0 0 1.592-1.375h4.033a2 2 0 0 0 .053.341 2.191 2.191 0 0 0 4.037.457 2.2 2.2 0 0 0 .262-.798h5.894a1.634 1.634 0 0 0 1.594 1.375 1.634 1.634 0 0 0 0-3.268 1.634 1.634 0 0 0-1.596 1.389H12.76a2 2 0 0 0-.074-.381 2 2 0 0 0-.094-.217l2.193-3.986.744.414.094 2.765a.38.38 0 0 0 .188.309l.015.008a.35.35 0 0 0 .377-.04l2.438-1.902.02-.02c2.318-2.069 1.251-4.627.874-5.357C21.5 9.892 22.32 7.331 22.64 5.498c.519-2.906-.053-4.66-.076-4.728a.38.38 0 0 0-.17-.204L21.9.296a.4.4 0 0 0-.261-.038m.039.75.23.127c.242.957 1.414 7.14-6.097 15.32l-3.795-2.121c1.626-6.034 4.176-9.34 6.045-11.055 1.718-1.58 3.186-2.133 3.617-2.271m-3.137 3.61a2.19 2.19 0 0 0-1.846 1.146 2.23 2.23 0 0 0 .858 3.01 2.19 2.19 0 0 0 2.99-.87 2.2 2.2 0 0 0 .19-1.683v-.004a2.19 2.19 0 0 0-2.192-1.6m.08.487h.004a1.715 1.715 0 0 1 1.648 1.247 1.715 1.715 0 1 1-3.322.12l.014-.062a1.7 1.7 0 0 1 .135-.357l.025-.051a1.75 1.75 0 0 1 .555-.606 2 2 0 0 1 .177-.105l.04-.018a1.7 1.7 0 0 1 .724-.168m.088.39c-.969.017-1.37.903-1.37.903.845-.946 1.968-.814 1.968-.814a1.9 1.9 0 0 0-.598-.09m.184.45c-.724.015-1.026.676-1.026.672.63-.702 1.47-.605 1.47-.605a1.4 1.4 0 0 0-.444-.067M12.71 10.04a33 33 0 0 0-1.43 4.242L9.475 15.34l.238-2.373c.374-2.205 2.089-2.778 2.998-2.928m6.355 3.549c.358.857.779 2.623-.875 4.111l-1.865 1.461-.07-2.103a33 33 0 0 0 2.81-3.47M6.012 15.074a1.192 1.192 0 0 1 1.033 1.783 1.15 1.15 0 0 1-.719.563 1.2 1.2 0 0 1-.314.045 1.2 1.2 0 0 1 0-2.39m6.793.555 1.552.867-2.043 3.715a2.2 2.2 0 0 0-.677-.615 2.2 2.2 0 0 0-.877-.25zm-2.034 4.209a1.715 1.715 0 0 1 1.307 2.53 1.715 1.715 0 0 1-3.152-.362 1.715 1.715 0 0 1 1.845-2.168m-7.992.516a1.19 1.19 0 0 1 1.184 1.19 1.19 1.19 0 0 1-1.184 1.2 1.19 1.19 0 0 1-1.185-1.195 1.19 1.19 0 0 1 1.185-1.195m17.465 0a1.19 1.19 0 0 1 1.184 1.19 1.19 1.19 0 0 1-1.184 1.2 1.19 1.19 0 0 1-1.19-1.195 1.19 1.19 0 0 1 1.19-1.195"/></svg>