<svg role="img" viewBox="0 0 24 24" xmlns="http://www.w3.org/2000/svg"><title>PyPy icon</title><path d="M12.642.011a2.704 2.704 0 00-1.279.456c-.184.01-.365.036-.548.055-1.755.355-2.881 1.2-3.79 2.318-1.603 2.368-1.697 5.108-1.47 7.918a6.657 6.657 0 012.234-3.672c.19-.152.402-.293.577-.42.194-.132.352-.214.533-.324.207-.115.384-.18.577-.268.127-.056.268-.097.395-.14-.084-.083-.17-.17-.268-.24a1.826 1.826 0 00-.73-.265 2.465 2.465 0 00-.41-.047 4.36 4.36 0 00-1.254.127 3.98 3.98 0 01.819-.264 3.786 3.786 0 01.871-.112c.148 0 .303.01.458.036l.004.002c.153.026.307.068.453.13.265.103.486.3.644.462a2.83 2.83 0 002.35.956c2.234-.441 3.294-.79 4.014-1.247.393-.316.542-.53.606-.728.064-.196.05-.428.067-.766-.003-.338-.265-.75-.673-1.166-.403-.41-.922-.814-1.357-1.187-.546-.384-.793-.769-1.022-1.036a1.538 1.538 0 00-.368-.334l-.002-.002a2.783 2.783 0 00-1.43-.24zm2.864 1.003c.088.08.184.15.266.215.423.364.962.78 1.406 1.23.444.451.817.949.82 1.52v.014c-.017.314.01.59-.093.905-.1.314-.33.618-.78.975-.147.103-.322.174-.463.25 1.195.473 2.393 1.056 3.663 2.071l.004.002c1.173.908 2.28 1.987 3.39 3.582-.193-5.069-3.583-9.3-8.213-10.764zm-7.318.065a11.646 11.646 0 00-4.49 2.8A11.627 11.627 0 00.28 11.82c.046 1.873.695 3.285 1.714 4.325 1.046 1.066 2.488 1.743 4.056 2.072 1.402.294 2.884.381 4.262.32a6.607 6.607 0 01-3.263-2.032c-.183-.2-.227-.262-.356-.423a4.909 4.909 0 01-.518-.801c-.387-.7-.8-1.686-.995-2.984v-.01c-.366-3.339-.566-6.788 1.432-9.733.002-.008.01-.012.014-.018A7.37 7.37 0 018.188 1.08zm5.299 3.756c.123.01.237.034.342.067h.002c.208.065.37.17.453.29a.32.32 0 01.06.193.302.302 0 01-.09.174.624.624 0 01-.19.129 1.244 1.244 0 01-.36.092c-.092.01-.186.019-.288.013-.492-.042-.872-.282-.858-.55a.287.287 0 01.075-.161.426.426 0 01.043-.043 1.005 1.005 0 01.43-.188c.112-.014.24-.03.38-.016zm2.531 1.57c-.175.067-.337.135-.545.2a6.549 6.549 0 013.065 4.894c.007.118.028.237.04.342v.002c.273 2.579-.157 3.86-1.234 6.103h.002c-.983 2.08-3.181 4.576-4.954 6.054 6.15-.22 11.094-5.158 11.326-11.316-1.221-1.91-2.406-3.095-3.698-4.095h-.002l-.002-.002c-1.385-1.109-2.665-1.684-3.998-2.182zm2 8.409c-.017.04-.029.082-.046.122-.029.056-.056.125-.085.182a6.54 6.54 0 01-1.462 1.927l-.295.252c-.14.113-.295.226-.45.34a5.133 5.133 0 01-.55.321c-.185.105-.39.183-.572.268a6.57 6.57 0 01-.412.156 8.425 8.425 0 01-.487.16l-.018.007-.015.003c-2.05.59-4.984.718-7.68.153-1.641-.345-3.174-1.057-4.306-2.21A6.309 6.309 0 01.57 15.03a11.761 11.761 0 0011.02 8.959c1.75-1.326 4.288-4.11 5.303-6.259h.002c.558-1.162.932-2.013 1.124-2.917z"/></svg>