<svg role="img" viewBox="0 0 24 24" xmlns="http://www.w3.org/2000/svg"><title>PyScaffold</title><path d="M2.402.87C.357.87 0 4.864 0 4.864L5.36 5.98s-3.65.965-4.227 1.18c.167.51 1.701.697 1.701.697h5.434c.886 0 1.342-.912 1.342-.912h9.056c.193 0 1.366 0 1.366 1.771 0 1.772-1.366 1.99-1.366 1.99H7.787c-.175 0-1.577.288-2.765 1.524h.077v.122h-.184a5.159 5.797 0 00-1.352 2.606h4.57c.154-.08.27-.123.27-.123h10.208a5.24 5.24 0 004.466-2.483h-.282v-.124h.331v.042c.539-.904.874-2.053.874-3.477 0-4.175-2.84-6.188-4.72-6.188H10.03C9.42 1.27 7.929.869 7.929.869h-.896l.316 1.228h-.283v4.5h.283l-.286 1.11-.032.128-.318-1.238h.261v-4.5h-.26l.285-1.11.03-.118zm4.62.999v4.957zm-3.848.59a.56.628 0 01.022 0 .56.628 0 01.56.627.56.628 0 01-.561.628.56.628 0 01-.559-.628.56.628 0 01.538-.627zm2.035 9.77h.33v.122h-.33v-.124zm.44 0h.33v.122h-.33v-.124zm.439 0h.332v.122h-.331v-.124zm.44 0h.33v.122h-.33v-.124zm.44 0h.33v.122h-.33v-.124zm.44 0h.33v.122h-.33v-.124zm.44 0h.328v.122h-.327v-.124zm.437 0h.33v.122h-.33v-.124zm.44 0h.33v.122h-.33v-.124zm.44 0h.33v.122h-.33v-.124zm.44 0h.33v.122h-.33v-.124zm.44 0h.33v.122h-.33v-.124zm.44 0h.329v.122h-.33v-.124zm.439 0h.33v.122h-.33v-.124zm.44 0h.33v.122h-.33v-.124zm.44 0h.329v.122h-.33v-.124zm.439 0h.33v.122h-.33v-.124zm.44 0h.33v.122h-.33v-.124zm.44 0h.33v.122h-.33v-.124zm.44 0h.329v.122h-.33v-.124zm.439 0h.33v.122h-.33v-.124zm.44 0h.33v.122h-.33v-.124zm.44 0h.33v.122h-.33v-.124zm.439 0h.33v.122h-.33v-.124zm.44 0h.33v.122h-.33v-.124zm.44 0h.33v.122h-.33v-.124zm.44 0h.329v.122h-.33v-.124zm.439 0h.33v.122h-.33v-.124zm.44 0h.33v.122h-.33v-.124zm.44 0h.33v.122h-.33v-.124zm.439 0h.33v.122h-.33v-.124zm.44 0h.33v.122h-.33v-.124zm.44 0h.33v.122h-.33v-.124zm.44 0h.329v.122h-.33v-.124zm.439 0h.33v.122h-.33v-.124zm.44 0h.33v.122h-.33v-.124zm.44 0h.33v.122h-.33v-.124zm.44 0h.329v.122h-.33v-.124zm.439 0h.33v.122h-.33v-.124zm.44 0h.33v.122h-.33v-.124zM3.52 15.149c-.015.068-.022.145-.036.216l.277-.215h-.243zm.543 0l-.622.48a9.069 9.069 0 00-.097.857L5.07 15.15zm1.306 0l-2.038 1.58c-.005.123-.019.233-.019.36 0 .206.017.393.03.587l3.262-2.526H5.368zm1.532 0L3.354 17.9c.022.243.057.469.099.689h.02l4.103-3.177c.09-.104.182-.19.273-.261H6.9zm.404.702l-3.532 2.737h.992l2.337-1.813a2.39 2.39 0 01.2-.924zm-.203 1.16l-2.039 1.577h1.003l1.149-.89a2.052 2.306 0 01-.113-.688zm.173.872l-.908.705h.843l.336-.261a1.532 1.722 0 01-.27-.445zm.397.579l-.163.126h.348c-.064-.046-.119-.062-.185-.126zm-4.186.316c.835 3.9 4.47 4.353 4.47 4.353h7.856c2.412 0 4.141-4.26 4.141-4.26h-3.458l-8.135-.013s-.092-.02-.224-.08h-.878a.085.095 0 01-.066 0H3.485zm9.038.184l.267 1.046h-.231v2.001h.23l-.266 1.046-.268-1.047h.211v-2h-.21z"/></svg>