<svg xmlns="http://www.w3.org/2000/svg" viewBox="0 0 16 16"><path d="M7.918,1a9.537,9.537,0,0,0-1.6.136c-1.413.25-1.67.772-1.67,1.736V4.145h3.34V4.57H3.4A2.085,2.085,0,0,0,1.312,6.263a6.243,6.243,0,0,0,0,3.394c.237.989.8,1.693,1.775,1.693H4.235V9.825A2.122,2.122,0,0,1,6.322,7.75H9.658a1.683,1.683,0,0,0,1.67-1.7V2.873a1.864,1.864,0,0,0-1.67-1.736A10.417,10.417,0,0,0,7.918,1ZM6.111,2.024a.637.637,0,1,1-.627.638A.634.634,0,0,1,6.111,2.024Z"/><path d="M11.744,4.57V6.053A2.142,2.142,0,0,1,9.658,8.171H6.322a1.7,1.7,0,0,0-1.67,1.7v3.18c0,.905.787,1.438,1.67,1.7a5.588,5.588,0,0,0,3.336,0c.841-.243,1.67-.733,1.67-1.7V11.775H7.992v-.424H13c.971,0,1.332-.677,1.67-1.693a5.732,5.732,0,0,0,0-3.394c-.24-.966-.7-1.693-1.67-1.693ZM9.868,12.624a.637.637,0,1,1-.627.635A.63.63,0,0,1,9.868,12.624Z"/></svg>