<svg role="img" viewBox="0 0 24 24" xmlns="http://www.w3.org/2000/svg"><title>Qase</title><path d="M23.85 19.052s-.802.464-1.795.283c-.19-.03-.37-.1-.551-.192a11.905 11.92 0 0 0 2.367-7.147C23.87 5.373 18.525 0 11.935 0S0 5.373 0 11.996s5.346 11.996 11.935 11.996a11.88 11.88 0 0 0 5.747-1.482c.562.595 1.344 1.22 2.297 1.412 1.796.342 3.1-.484 3.631-1.592.451-.969.482-2.118.24-3.278m-11.925-.13c-3.79 0-6.88-3.105-6.88-6.916 0-3.81 3.09-6.915 6.88-6.915 3.792 0 6.89 3.094 6.89 6.905 0 1.17-.29 2.278-.812 3.246-.15-.192-.28-.373-.37-.493-.352-.485-.713-.979-1.064-1.482-.461-.656-1.524-1.967-2.989-2.248-1.795-.344-3.099.483-3.63 1.592-.452.968-.482 2.117-.251 3.266 0 0 .802-.464 1.795-.282.722.13 1.404.686 2.277 1.774.07.09.371.494.772 1.018a6.648 6.657 0 0 1-2.618.534"/></svg>