<svg role="img" xmlns="http://www.w3.org/2000/svg" width="740" height="740" viewBox="0 0 740 740" version="1.1"><title>Qase</title><path d="M 344.195 116.029 C 283.482 121.915, 227.183 148.916, 185.458 192.157 C 122.739 257.157, 99.397 348.869, 123.397 436 C 132.137 467.730, 148.180 499.225, 168.986 525.500 C 181.786 541.665, 204.768 563.370, 221.500 575.098 C 265.657 606.046, 320.423 622.664, 371.893 620.732 C 399.544 619.695, 415.240 614.726, 456.341 594.001 C 494.832 574.592, 505.207 570.811, 523.843 569.404 C 550.180 567.416, 583.516 580.065, 614.285 603.723 L 620.070 608.170 619.744 475.335 C 619.387 330.224, 619.703 338.545, 613.520 311 C 603.684 267.177, 581.276 226.061, 549.003 192.616 C 509.287 151.460, 458.923 125.787, 401.500 117.426 C 389.063 115.616, 356.618 114.824, 344.195 116.029 M 352.500 258.626 C 351.400 258.842, 348.025 259.495, 345 260.076 C 325.137 263.892, 305.869 274.193, 290.257 289.342 C 275.988 303.188, 265.520 321.072, 260.311 340.500 C 257.920 349.419, 257.623 352.338, 257.565 367.500 C 257.481 389.469, 259.869 399.888, 269.177 418.167 C 275.282 430.154, 281.416 438.313, 291.608 448.002 C 307.891 463.480, 328.083 473.481, 350.203 477.025 C 361.999 478.915, 383.242 477.821, 395 474.718 C 433.193 464.641, 463.592 434.246, 473.730 396 C 477.449 381.972, 478.008 360.491, 475.030 346.036 C 465.935 301.882, 430.325 267.210, 386.119 259.468 C 378.584 258.148, 357.595 257.622, 352.500 258.626" stroke="none" fill="#3c3489" fill-rule="evenodd"/><path d="M -0 370.001 L -0 740.003 370.250 739.751 L 740.500 739.500 740.751 369.750 L 741.003 -0 370.501 -0 L 0 0 -0 370.001 M 0.495 370.500 C 0.495 574, 0.610 657.399, 0.750 555.831 C 0.890 454.264, 0.890 287.764, 0.750 185.831 C 0.610 83.899, 0.495 167, 0.495 370.500 M 344.195 116.029 C 283.482 121.915, 227.183 148.916, 185.458 192.157 C 122.739 257.157, 99.397 348.869, 123.397 436 C 132.137 467.730, 148.180 499.225, 168.986 525.500 C 181.786 541.665, 204.768 563.370, 221.500 575.098 C 265.657 606.046, 320.423 622.664, 371.893 620.732 C 399.544 619.695, 415.240 614.726, 456.341 594.001 C 494.832 574.592, 505.207 570.811, 523.843 569.404 C 550.180 567.416, 583.516 580.065, 614.285 603.723 L 620.070 608.170 619.744 475.335 C 619.387 330.224, 619.703 338.545, 613.520 311 C 603.684 267.177, 581.276 226.061, 549.003 192.616 C 509.287 151.460, 458.923 125.787, 401.500 117.426 C 389.063 115.616, 356.618 114.824, 344.195 116.029 M 352.500 258.626 C 351.400 258.842, 348.025 259.495, 345 260.076 C 325.137 263.892, 305.869 274.193, 290.257 289.342 C 275.988 303.188, 265.520 321.072, 260.311 340.500 C 257.920 349.419, 257.623 352.338, 257.565 367.500 C 257.481 389.469, 259.869 399.888, 269.177 418.167 C 275.282 430.154, 281.416 438.313, 291.608 448.002 C 307.891 463.480, 328.083 473.481, 350.203 477.025 C 361.999 478.915, 383.242 477.821, 395 474.718 C 433.193 464.641, 463.592 434.246, 473.730 396 C 477.449 381.972, 478.008 360.491, 475.030 346.036 C 465.935 301.882, 430.325 267.210, 386.119 259.468 C 378.584 258.148, 357.595 257.622, 352.500 258.626" stroke="none" fill="#fbfbfb" fill-rule="evenodd"/></svg>