<svg role="img" viewBox="0 0 24 24" xmlns="http://www.w3.org/2000/svg"><title>qbittorrent</title><path d="M11.911 23.9942c-1.3092 0-2.6051-.2322-3.8315-.7052-3.399-1.0242-6.1997-3.8647-7.4323-7.5793-1.2306-3.709-.6856-7.6547 1.4586-10.555C4.0616 2.038 7.6773.0942 11.7418.0086c4.0761-.0833 7.7586 1.7032 9.8822 4.7849 1.5175 2.0316 2.365 4.5777 2.369 7.1446.1376 3.7333-1.7498 7.3681-5.0516 9.7278-2.147 1.5348-4.6106 2.3283-7.0304 2.3283zm.1102-22.3144c-.0813 0-.1622.0007-.2439.0027-3.5.0739-6.5988 1.7244-8.2896 4.4151-1.8565 2.5156-2.3108 5.892-1.2513 9.0852 1.0613 3.1977 3.4487 5.6363 6.3865 6.5237 3.0246 1.1642 6.4968.6333 9.3451-1.4026 2.8467-2.0344 4.473-5.1438 4.351-8.3177l-.0008-.0321c0-2.2138-.7294-4.41-2.0547-6.1849-1.7787-2.5808-4.8404-4.0894-8.2423-4.0894zM9.4058 20.2465V15.668c-.2255.3463-.5431.6334-.9519.8629a2.5733 2.5733 0 0 1-1.2903.3439c-1.016 0-1.8927-.4439-2.6295-1.33-.7312-.8869-1.0967-2.1016-1.0967-3.6459 0-.9389.148-1.781.444-2.527.3007-.7454.7335-1.3084 1.2983-1.6907a3.2597 3.2597 0 0 1 1.8719-.5806c1.0583 0 1.8919.487 2.4998 1.4611v-1.25h1.3064v12.9347h-1.452zm-4.4765-8.2851c0 1.2028.232 2.1072.6935 2.711.4632.5998 1.016.899 1.6624.899.6183 0 1.1503-.2848 1.5967-.8542.4464-.5758.6695-1.4475.6695-2.615 0-1.2452-.2367-2.1809-.7095-2.8095-.468-.6277-1.0192-.942-1.6535-.942-.6296 0-1.1648.2935-1.6056.8805-.4351.5814-.6535 1.4914-.6535 2.7294m9.5499 4.7023h-1.3463V3.7547h1.4519v4.6048c.6127-.8397 1.3951-1.2588 2.347-1.2588.5264 0 1.024.1176 1.492.3519a3.014 3.014 0 0 1 1.1615.9772c.3064.4167.5456.9221.7176 1.5147.172.5926.2584 1.2268.2584 1.9017 0 1.6027-.3632 2.8414-1.0888 3.7163-.7263.8741-1.5975 1.3116-2.6134 1.3116-1.0112 0-1.804-.4607-2.3791-1.382v1.1708m-.016-4.7463c0 1.1212.1392 1.9313.4192 2.4311.4567.8158 1.0751 1.2236 1.855 1.2236.6344 0 1.1832-.2999 1.6456-.898.4624-.6047.6935-1.5035.6935-2.6951 0-1.2204-.224-2.1217-.6695-2.703-.4408-.5806-.976-.8717-1.6055-.8717-.6344 0-1.1824.3022-1.6456.9068-.4623.5998-.6935 1.4675-.6935 2.6071"/></svg>