<svg role="img" viewBox="0 0 24 24" xmlns="http://www.w3.org/2000/svg"><title>qbittorrent</title><path d="M11.75.002c-3.776.08-7.513 1.822-9.643 5.192-4.55 6.198-1.337 15.858 6.016 18.103 7.449 2.85 16.158-3.375 15.865-11.347a12.002 12.002 0 0 0-2.376-7.158c-2.27-3.285-6.083-4.869-9.862-4.79Zm.037 1.715c3.261-.068 6.551 1.267 8.459 4.037l.008.012.01.016a10.329 10.329 0 0 1 2.054 6.18v.031c.26 6.722-7.347 12.157-13.624 9.736l-.031-.012-.03-.008C2.423 19.833-.389 11.379 3.47 6.16l.019-.025.016-.026c1.788-2.848 5.022-4.322 8.283-4.392Zm1.353 2.049v12.9h1.346v-1.169c.575.921 1.366 1.382 2.377 1.382 1.015 0 1.886-.438 2.612-1.311.725-.875 1.087-2.112 1.087-3.714 0-.674-.086-1.308-.258-1.9-.172-.593-.411-1.098-.717-1.515a3.012 3.012 0 0 0-1.16-.977 3.285 3.285 0 0 0-1.49-.352c-.951 0-1.734.42-2.346 1.259v-4.6ZM7.063 7.11a3.256 3.256 0 0 0-1.87.58c-.564.381-.995.944-1.295 1.689-.296.746-.445 1.589-.445 2.527 0 1.543.364 2.757 1.095 3.643.736.886 1.613 1.331 2.628 1.331a2.57 2.57 0 0 0 1.29-.344c.407-.23.724-.518.95-.864v4.576h1.45V7.321H9.563v1.25c-.608-.973-1.443-1.46-2.5-1.46ZM7.2 8.359c.634 0 1.183.314 1.651.943.472.627.71 1.561.71 2.806 0 1.167-.223 2.04-.669 2.615-.446.569-.977.854-1.594.854-.646 0-1.2-.3-1.66-.9-.462-.603-.696-1.506-.696-2.708 0-1.238.22-2.149.655-2.73.44-.586.975-.879 1.603-.879Zm9.605.053c.629 0 1.165.292 1.606.872.445.582.667 1.481.667 2.701 0 1.191-.231 2.091-.693 2.694-.462.6-1.009.898-1.642.898-.78 0-1.398-.407-1.855-1.222-.28-.5-.417-1.311-.417-2.43h-.002c0-1.14.23-2.006.693-2.606.463-.604 1.009-.907 1.643-.907z"/></svg>