<svg role="img" viewBox="0 0 24 24" xmlns="http://www.w3.org/2000/svg"><title>qbittorrent</title><path d="M21.624 4.794C19.5 1.712 15.82-.076 11.742.008c-4.065.086-7.68 2.03-9.636 5.147C-.038 8.055-.584 12 .647 15.71c1.233 3.714 4.034 6.554 7.433 7.578 1.226.473 2.522.706 3.83.706 2.42 0 4.884-.795 7.031-2.329 3.302-2.36 5.19-5.994 5.052-9.728a12.06 12.06 0 0 0-2.37-7.144zm-3.656 15.51c-2.848 2.036-6.32 2.569-9.345 1.403-2.938-.888-5.325-3.326-6.386-6.524-1.06-3.193-.606-6.57 1.25-9.085 1.692-2.691 4.79-4.342 8.29-4.416l.244-.002c3.402 0 6.464 1.508 8.242 4.09a10.397 10.397 0 0 1 2.055 6.184l.001.032c.122 3.174-1.504 6.284-4.351 8.318zM19.585 8.43a3.014 3.014 0 0 0-1.161-.977 3.289 3.289 0 0 0-1.492-.352c-.952 0-1.734.419-2.347 1.259V3.755h-1.452v12.908h1.347v-1.17c.575.92 1.368 1.381 2.38 1.381 1.015 0 1.886-.437 2.613-1.311.725-.875 1.088-2.114 1.088-3.717 0-.675-.086-1.309-.258-1.901s-.411-1.098-.718-1.515zm-1.201 6.243c-.462.599-1.011.899-1.646.899-.78 0-1.398-.408-1.855-1.224-.28-.5-.419-1.31-.419-2.431 0-1.139.23-2.007.693-2.607.463-.604 1.011-.906 1.645-.906.63 0 1.165.29 1.606.871.446.582.67 1.483.67 2.703 0 1.192-.232 2.09-.694 2.695zM9.552 8.562c-.608-.974-1.442-1.461-2.5-1.461a3.26 3.26 0 0 0-1.872.58c-.565.383-.998.946-1.299 1.691-.296.746-.444 1.588-.444 2.527 0 1.544.366 2.76 1.097 3.646.737.886 1.614 1.33 2.63 1.33.453.001.898-.118 1.29-.344.409-.23.726-.516.952-.863v4.579h1.452V7.312H9.552v1.25zm-.67 6.155c-.446.57-.978.855-1.597.855-.646 0-1.199-.3-1.662-.9-.462-.603-.694-1.508-.694-2.71v-.001c0-1.238.219-2.148.654-2.73.44-.587.976-.88 1.605-.88.635 0 1.186.314 1.654.942.473.628.71 1.564.71 2.81 0 1.167-.224 2.039-.67 2.614z"/></svg>