<svg role="img" viewBox="0 0 24 24" xmlns="http://www.w3.org/2000/svg"><title>Qi icon</title><path d="M16.539 0a1.524 1.524 0 100 3.05 1.525 1.525 0 100-3.05zm-4.761 2.858a7.627 7.627 0 00-.01 15.245c.297 0 .296.293.296.293v2.65s0 2.763 2.657 2.954c.295.01.295-.295.295-.295V3.785s0-.292-.295-.413a7.667 7.667 0 00-2.943-.514zm4.887 1.663c-.124-.02-.123.167-.123.386v11.146c0 .294-.002.528.293.297.01-.01.023-.02.033-.028a7.626 7.626 0 00-.03-11.71.41.41 0 00-.173-.091zM11.9 5.907c.165 0 .164.164.164.164v8.82s0 .164-.164.164a4.577 4.577 0 010-9.147z"/></svg>