<svg role="img" viewBox="0 0 24 24" xmlns="http://www.w3.org/2000/svg"><title>Qiskit icon</title><path d="M 11.943,0.0001 V 0.0020 A 12.023,11.9914 0 0 0 11.334,23.9648 C 11.5458,23.987 11.765,24 11.993,24 c 0.235,0 0.461,-0.013 0.679,-0.037 A 12.023,11.991 0 0 0 23.992,12.080 c 0,-0.012 0.007,-0.024 0.007,-0.037 v -0.035 c 0,-0.012 -0.005,-0.023 -0.005,-0.035 A 12.023,11.991 0 0 0 22.575,6.338 12.023,11.991 0 0 0 11.962,0.002 C 11.957,0.001 11.947,0 11.942,0 Z m -0.005,0.84 c 0.002,0 0.003,0 0.005,0 1.236,0 2.078,0.274 2.078,0.514 0,0.24 -0.858,0.549 -2.061,0.549 -1.202,0 -2.096,-0.291 -2.096,-0.531 0,-0.239 0.857,-0.53 2.073,-0.531 z M 14.808,1.201 A 11.215,11.186 0 0 1 19.879,4.084 C 17.905,3.312 15.032,2.873 12.216,2.843 c -1.350,0 -2.706,0.090 -3.983,0.259 A 1.030,1.027 0 0 0 6.466,3.400 C 5.572,3.586 4.783,3.829 4.084,4.101 A 11.198,11.169 0 0 1 9.071,1.226 c -0.007,0.049 -0.031,0.090 -0.031,0.144 0,1.233 2.027,1.335 2.920,1.335 0.893,0 2.885,-0.119 2.885,-1.335 0,-0.063 -0.026,-0.112 -0.037,-0.169 z m -2.591,2.447 c 4.806,0.059 8.341,1.157 9.152,2.255 a 11.215,11.186 0 0 1 0.003,0.005 c 0.112,0.154 0.170,0.310 0.170,0.462 0,0.828 -1.757,1.709 -4.497,2.234 -1.528,-0.219 -3.158,-0.352 -4.775,-0.367 -0.596,0 -1.192,0.023 -1.787,0.050 L 8.231,4.402 A 1.030,1.027 0 0 0 8.456,3.880 C 9.604,3.735 10.866,3.648 12.216,3.648 Z M 6.511,4.209 a 1.030,1.027 0 0 0 0.949,0.570 1.133,1.130 0 0 0 0.137,0 L 9.670,8.333 C 8.734,8.396 7.829,8.499 6.953,8.626 4.169,8.100 2.428,7.198 2.428,6.373 c 0,-0.114 0.043,-0.230 0.107,-0.345 A 11.198,11.169 0 0 1 2.643,5.859 C 3.151,5.236 4.548,4.629 6.511,4.209 Z M 22.089,7.181 a 11.198,11.169 0 0 1 1.004,3.365 C 22.218,9.873 20.752,9.347 19.008,8.962 20.488,8.513 21.608,7.911 22.089,7.181 Z m -20.209,0.029 C 2.372,7.947 3.505,8.543 4.976,8.986 3.226,9.374 1.763,9.896 0.89,10.558 A 11.198,11.169 0 0 1 1.880,7.210 Z m 10.371,1.816 c 0.179,0.001 0.340,0.015 0.516,0.019 -0.338,0.010 -0.665,0.033 -1.015,0.033 -0.185,-0.001 -0.352,-0.016 -0.534,-0.021 0.346,-0.009 0.677,-0.031 1.033,-0.031 z m 4.881,0.380 c 3.673,0.550 6.010,1.610 6.056,2.578 a 11.198,11.169 0 0 1 0,0.039 c -0.039,0.968 -2.422,2.003 -6.026,2.556 C 16.132,14.387 15.028,14.245 13.896,14.169 L 12.355,11.529 11.406,9.888 c 0.110,0.002 0.220,0.012 0.330,0.013 1.864,0 3.741,-0.177 5.396,-0.494 z m -10.279,0.019 c 1.164,0.219 2.421,0.362 3.701,0.425 l 1.164,1.999 1.319,2.279 c -0.274,-0.010 -0.548,-0.031 -0.822,-0.035 -1.885,0 -3.784,0.175 -5.453,0.496 -3.554,-0.544 -5.835,-1.567 -5.968,-2.513 a 11.198,11.169 0 0 1 -0.001,-0.140 C 0.912,10.981 3.286,9.969 6.853,9.427 Z M 23.091,13.486 a 11.198,11.169 0 0 1 -0.984,3.310 c -0.471,-0.727 -1.555,-1.314 -2.979,-1.751 1.696,-0.389 3.112,-0.908 3.963,-1.558 z M 0.896,13.511 C 1.752,14.170 3.165,14.684 4.84,15.066 3.426,15.504 2.346,16.079 1.866,16.781 A 11.198,11.169 0 0 1 0.895,13.511 Z M 12.216,14.886 c 0.398,0.006 0.768,0.033 1.148,0.052 -0.541,0.023 -1.078,0.05 -1.646,0.05 -0.421,-0.004 -0.81,-0.032 -1.214,-0.049 0.556,-0.03 1.12,-0.05 1.71,-0.055 z m 5.038,0.516 c 2.649,0.538 4.295,1.411 4.306,2.224 0,0.735 -1.442,1.52 -3.72,2.057 a 1.03,1.028 0 0 0 -0.814,-0.412 1.048,1.045 0 0 0 -0.155,0 l -2.088,-3.58 c 0.852,-0.069 1.676,-0.166 2.472,-0.29 z m -10.587,0.009 c 1.6,0.246 3.325,0.395 5.034,0.416 0.76,0 1.523,-0.022 2.278,-0.066 l 2.239,3.887 a 1.03,1.028 0 0 0 -0.196,0.379 c -1.281,0.188 -2.713,0.307 -4.271,0.307 -4.741,-0.059 -8.235,-1.112 -9.119,-2.191 A 11.199,11.169 0 0 1 2.493,17.922 c -0.047,-0.099 -0.08,-0.197 -0.082,-0.294 0.01,-0.804 1.66,-1.675 4.257,-2.215 z m 13.294,4.443 a 11.199,11.169 0 0 1 -4.96,2.910 c 0.051,-0.12 0.084,-0.244 0.084,-0.375 0,-0.558 -0.494,-1.034 -1.266,-1.324 0.792,-0.052 1.56,-0.143 2.306,-0.254 a 1.03,1.028 0 0 0 1.91,-0.367 c 0.708,-0.169 1.356,-0.363 1.926,-0.59 z m -15.896,0.043 c 1.605,0.628 3.790,1.031 6.07,1.177 -0.753,0.287 -1.233,0.749 -1.233,1.299 v 0.017 c 0,0.133 0.035,0.258 0.09,0.380 a 11.199,11.169 0 0 1 -4.927,-2.873 z m 7.927,1.635 c 1.391,0 2.267,0.498 2.284,0.857 0.013,0.263 -0.487,0.585 -1.288,0.742 a 11.198,11.169 0 0 1 -2.051,-0.005 c -0.761,-0.17 -1.229,-0.493 -1.229,-0.736 0,-0.343 0.893,-0.857 2.284,-0.857 z"/></svg>
