<svg role="img" viewBox="0 0 24 24" xmlns="http://www.w3.org/2000/svg"><title>Qiskit icon</title><path d="M11.94277.00005v.002a12.0231 11.99138 0 00-.60874 23.96278A6.20026 6.20026 0 0011.99366 24c.23501 0 .46126-.01352.6792-.03709A12.0231 11.99138 0 0023.9922 12.08007c.00055-.0127.0076-.02434.0078-.0371v-.03517c-.00017-.01208-.0054-.02313-.0059-.03516a12.0231 11.99138 0 00-1.41902-5.63473A12.0231 11.99138 0 0011.96234.002C11.95704.00199 11.948 0 11.94277 0zm-.0059.83984h.0059c1.23666 0 2.0787.27384 2.0787.51367 0 .23982-.85878.54882-2.06109.54882-1.2023 0-2.09631-.29142-2.09631-.53125 0-.2394.85672-.53023 2.07283-.53124zm2.87143.36132a11.21584 11.18625 0 015.07148 2.8828c-1.97384-.77188-4.84732-1.21087-7.66293-1.24023-1.35022 0-2.70624.09076-3.9832.25977a1.03055 1.02783 0 00-1.76754.29687c-.89317.18629-1.68295.42866-2.38209.70117A11.19866 11.16911 0 019.07134 1.2266c-.0076.04986-.03132.09048-.03132.14453 0 1.2334 2.02722 1.33593 2.92036 1.33593.89315 0 2.88513-.11966 2.88513-1.33593 0-.06333-.02665-.11222-.0372-.16992zm-2.59153 2.44726c4.80626.05991 8.3414 1.15717 9.15256 2.25585a11.21584 11.18625 0 01.0039.0059c.11252.155.17029.31073.17029.46288 0 .82868-1.75768 1.70995-4.49799 2.23437-1.5283-.21987-3.15874-.35252-4.77593-.36719-.59606 0-1.19256.0236-1.78706.05078l-2.2509-3.88865a1.03055 1.02783 0 00.2251-.52148c1.14762-.14508 2.40952-.23243 3.76006-.23243zM6.51113 4.209a1.03055 1.02783 0 00.94932.57031 1.1336 1.13062 0 00.13701 0L9.6703 8.334c-.93606.06252-1.84033.16575-2.7168.29297-2.78419-.52688-4.52538-1.42814-4.52538-2.2539 0-.11436.0432-.23002.10765-.3457a11.19866 11.16911 0 01.10765-.16797c.50772-.62305 1.90514-1.22946 3.86772-1.65038zm15.57853 2.97264a11.19866 11.16911 0 011.00412 3.36522c-.87566-.67326-2.34142-1.199-4.08499-1.58397 1.48017-.44923 2.59963-1.05098 3.08087-1.78125zm-20.20961.0293c.4927.73655 1.62544 1.33258 3.09652 1.77539-1.74982.38773-3.21268.91052-4.08694 1.57226a11.19866 11.16911 0 01.99042-3.34765zm10.37198 1.8164c.1795.0019.34033.01534.51674.01953-.3386.01075-.66556.0332-1.01586.0332-.18551-.0017-.35273-.01669-.53436-.02148.34616-.0091.67712-.03125 1.03348-.03125zm4.88163.38086c3.67318.55099 6.01056 1.61026 6.05603 2.57811a11.19866 11.16911 0 010 .03906c-.03964.9683-2.4227 2.00334-6.02668 2.55663-1.03086-.19422-2.13461-.33653-3.2668-.4121l-1.54044-2.64062-.94931-1.64061c.11029.0024.22074.01252.33079.01367 1.86476 0 3.74132-.17717 5.3964-.49414zm-10.28.01953c1.16456.2198 2.42188.3623 3.70135.42578l1.16462 2 1.31925 2.27928c-.27444-.0109-.5486-.03134-.82208-.03516-1.88525 0-3.78427.1752-5.45317.49609-3.55411-.5449-5.83495-1.5671-5.96795-2.51366a11.19866 11.16911 0 01-.002-.14063c.11886-.95797 2.49326-1.9699 6.05995-2.5117zm16.23816 4.05858a11.19866 11.16911 0 01-.98454 3.31053c-.47165-.72707-1.55548-1.3141-2.97909-1.75194 1.69631-.38948 3.11276-.90828 3.96363-1.5586zm-22.19632.0254c.85635.65864 2.26935 1.17258 3.94406 1.55467-1.41386.4383-2.49295 1.01295-2.97321 1.71484a11.19866 11.16911 0 01-.97085-3.26952zm11.3213 1.37498c.39889.0062.76844.03319 1.14896.05273-.54135.02261-1.07805.05078-1.64613.05078-.42118-.0045-.80977-.032-1.21355-.04883.5559-.03048 1.12024-.05469 1.71072-.05469zm5.03821.51562c2.64975.53835 4.29499 1.41069 4.30616 2.2246 0 .73473-1.4421 1.52034-3.72091 2.05663a1.03055 1.02783 0 00-.81426-.4121 1.04773 1.04496 0 00-.15463 0l-2.08849-3.58007c.85217-.06857 1.67567-.1661 2.47213-.28906zm-10.58729.0098c1.6007.2461 3.32487.39535 5.0343.41602.76012 0 1.52359-.02191 2.27835-.06641l2.2392 3.8867a1.03055 1.02783 0 00-.19573.3789c-1.28152.18804-2.71355.3067-4.27093.3067-4.74082-.0592-8.23534-1.11157-9.11928-2.1915a11.19866 11.16911 0 01-.14093-.22073c-.04793-.09887-.08085-.19744-.08221-.29492.01075-.80394 1.65557-1.67547 4.25723-2.21484zm13.2943 4.44334a11.19866 11.16911 0 01-4.95992 2.91015c.05117-.12019.08417-.24391.08417-.375 0-.55834-.49422-1.0336-1.2664-1.32421.79236-.0526 1.55954-.14342 2.30575-.2539a1.03055 1.02783 0 001.91037-.3672c.7085-.169 1.35623-.36309 1.92603-.58983zm-15.89561.04301c1.60496.62772 3.79027 1.03138 6.06973 1.17578-.75279.2868-1.23313.7486-1.23313 1.29882v.01758c0 .13295.0355.25828.09004.38086a11.19866 11.16911 0 01-4.92664-2.87307zm7.92725 1.63473c1.39124 0 2.26705.49767 2.28422.85741.01255.26277-.48654.58513-1.28793.74219a11.19866 11.16911 0 01-2.0513-.0059c-.76151-.17047-1.22921-.49266-1.22921-.73634 0-.34262.89297-.85742 2.28422-.85742z"/></svg>