<svg role="img" viewBox="0 0 24 24" xmlns="http://www.w3.org/2000/svg"><title>QNAP</title><path d="M2.952 12.6232c.508.3224 1.4332.9623 1.7393 1.5453h1.1526c-.1969-.3512-.8624-1.198-2.8919-1.5453m.4538.4733H1.7096v-2.2386h2.2582v1.899c.6782.2113 1.1446.4834 1.4623.7418.0538-.1359.0813-.293.0813-.4723v-2.0681c0-.71-.4157-1.0842-1.2456-1.1231V9.832c-.8063-.0012-1.947-.0002-2.8694 0C.4654 9.832 0 10.2076 0 10.9583v2.0681c0 .7463.4653 1.1197 1.3964 1.1197l2.7957-.0005c.0727-.0005.2053-.0111.328-.0296-.2273-.3272-.6485-.6829-1.042-.9677l-.0723-.0518zm6.738-3.208v2.468c-.024.0584-.1033.0426-.1375.006-.5324-.7853-1.0947-1.55-1.6533-2.3166-.0089-.0175-.0253-.028-.038-.042-.0857-.0774-.1983-.1153-.3477-.1153H6.6586c-.5411 0-.5096.5075-.5172.513v3.7292h1.5304s-.0087-1.97-.0126-2.5509c.0066-.0382.0343-.0942.1512-.0796 0 0 .045.003.0642.037.2953.4716 2.2305 2.5935 2.2305 2.5935h1.5895V9.8886m10.6568 2.2024h-2.0609v-1.0996h2.0609zm1.3876-1.99c-.164-.13-.4156-.1993-.753-.2105l-3.0768-.0015c-.3879 0-.6862.081-.8956.245-.2088.1624-.3145.3824-.32.6561l-.0002 3.3407h1.6197v-1.1081h2.6194c.7117 0 1.0675-.2849 1.0675-.8579v-1.3602c0-.3267-.0876-.5605-.261-.7035m-7.4295 2.1186v-1.2283h-2.2683v1.2283zm1.6204 1.9111h-1.6204v-1.1305h-2.2683v1.1305h-1.6194v-3.3205c0-.2838.1064-.5083.3205-.677.2088-.1635.5073-.2447.8957-.2447h3.0827c.3884 0 .6865.0812.8954.2447.2093.1631.3138.3897.3138.677v3.3205"/></svg>