<svg role="img" viewBox="0 0 24 24" xmlns="http://www.w3.org/2000/svg"><title>QT icon</title><path d="M21.69 3.16H3.33L0 6.49V20.84h20.67L24 17.51V3.16z M8.94 17c-1.58 0-2.68-.43-3.31-1.28-.62-.85-.93-2.2-.93-4.04 0-1.84.32-3.2.95-4.1.63-.88 1.73-1.32 3.29-1.32s2.65.44 3.28 1.33c.63.89.94 2.25.94 4.1 0 1.22-.13 2.2-.39 2.95s-.68 1.32-1.27 1.72l1.28 2.05-1.57.73-1.35-2.22c-.19.05-.5.08-.92.08zm-1.98-2.36c.34.59 1 .89 1.98.89s1.63-.29 1.97-.87c.34-.58.51-1.57.51-2.96s-.17-2.4-.52-3.02c-.35-.63-1-.94-1.95-.94s-1.61.31-1.96.94c-.35.63-.53 1.63-.53 3.01-.02 1.37.16 2.36.5 2.95zM19.01 10.46h-2.1v3.34c0 .62.05 1.03.14 1.23.09.2.32.3.7.3L19 15.3l.08 1.32c-.68.13-1.2.2-1.55.2-.86 0-1.45-.2-1.77-.59-.32-.4-.48-1.14-.48-2.23v-3.53h-1.16V9.05h1.16v-2.2h1.64v2.2h2.1v1.41z"/></svg>