<svg role="img" viewBox="0 0 24 24" xmlns="http://www.w3.org/2000/svg"><title>Quasar icon</title><path d="M14.394 11.812c0 1.273-1.085 2.304-2.424 2.304-1.34 0-2.425-1.031-2.425-2.304 0-1.272 1.085-2.304 2.425-2.304 1.339 0 2.425 1.032 2.425 2.304zm8.343-5.907a11.962 11.962 0 0 0-1.907-2.366l-2.802 1.537a9.464 9.464 0 0 0-2.928-1.61 10.856 10.856 0 0 0-2.265 3.071c3.12-.203 6.344.87 9.338 3.092l1.762-.967a11.46 11.46 0 0 0-1.198-2.757zm0 11.812a11.52 11.52 0 0 0 1.205-2.751l-2.805-1.537a8.43 8.43 0 0 0 .008-3.216 12.074 12.074 0 0 0-3.935-.326c1.745 2.465 2.378 5.653 1.85 9.226l1.766.97a11.882 11.882 0 0 0 1.911-2.366zM11.97 23.624a13.178 13.178 0 0 0 3.112-.386v-3.077a9.44 9.44 0 0 0 2.932-1.603 10.645 10.645 0 0 0-1.669-3.397c-1.375 2.668-3.966 4.783-7.484 6.134v1.937a13.13 13.13 0 0 0 3.109.392zM1.206 17.72a11.89 11.89 0 0 0 1.903 2.366l2.805-1.54a9.386 9.386 0 0 0 2.925 1.612 10.967 10.967 0 0 0 2.27-3.07c-3.124.202-6.346-.87-9.339-3.092l-1.766.966c.275.963.68 1.888 1.202 2.758zM1.202 5.908A11.366 11.366 0 0 0 0 8.659l2.802 1.537a8.43 8.43 0 0 0-.004 3.215c1.318.327 2.639.437 3.93.327-1.744-2.464-2.376-5.657-1.848-9.23l-1.762-.966a11.9 11.9 0 0 0-1.915 2.366zM11.97 0a12.96 12.96 0 0 0-3.11.385V3.46a9.487 9.487 0 0 0-2.935 1.602c.362 1.248.923 2.39 1.669 3.401 1.375-2.668 3.967-4.783 7.488-6.135V.392A13.008 13.008 0 0 0 11.97 0zm0 0"/></svg>