<svg role="img" viewBox="0 0 24 24" xmlns="http://www.w3.org/2000/svg">
    <title>
        Quasar icon
    </title>
    <path d="M14.410513203340207,12.058394421888986 C14.410513203340207,13.330734007066615 13.324705769469745,14.362361934960122 11.98554487372464,14.362361934960122 C10.646383977979534,14.362361934960122 9.560576544109068,13.330734007066615 9.560576544109068,12.058394421888986 C9.560576544109068,10.786054836711356 10.646383977979534,9.75442690881785 11.98554487372464,9.75442690881785 C13.324705769469745,9.75442690881785 14.410513203340207,10.786054836711356 14.410513203340207,12.058394421888986 zM14.410513203340207,12.058394421888986 M22.753126302909514,6.15060975596717 C22.224700006071828,5.290920989818244 21.584074398394357,4.49312940636275 20.84572597341976,3.7847450602026016 L18.044344721268125,5.321869581164961 C17.168461268644336,4.613486115326559 16.17675845524022,4.070162096777892 15.116286738179168,3.7125313869530165 C14.157157888355798,4.6341182161171215 13.397093796512333,5.662306726944078 12.850570956191437,6.783341011811182 C15.970454523934091,6.58045501936338 19.19530008230008,7.653347148838009 22.188506919105414,9.87478361778166 L23.951132121064873,8.90849316996988 C23.676062065766473,7.945641258902905 23.27431342642099,7.017177356249196 22.753126302909514,6.15060975596717 zM22.753126302909514,6.15060975596717 M22.753126302909514,17.962739670744252 C23.27431342642099,17.099611487528776 23.67968118915214,16.174586121619868 23.958371294391085,15.211734210552894 L21.15337091885379,13.674610569912282 C21.363293973545574,12.601718440437653 21.363293973545574,11.511631866595517 21.16061009218,10.459372718233194 C19.83954481336322,10.132690599755035 18.522100511041863,10.02265038134738 17.226370949034497,10.132690599755035 C18.970899607510752,12.598279023371104 19.604286968416893,15.786006820448275 19.07586159813409,19.358875381952238 L20.842106850034092,20.32860436650882 C21.58045527500869,19.620220900670418 22.224700006071828,18.825867853959725 22.753126302909514,17.962739670744252 zM22.753126302909514,17.962739670744252 M11.98554487372464,23.870524336666065 C13.035157367518924,23.867084919599517 14.081151664482425,23.7364126004013 15.098190194695965,23.485383572239275 L15.098190194695965,20.407695993569757 C16.18037757862588,20.04318732993353 17.172080392029997,19.49986419170661 18.029868227725466,18.805234872847418 C17.667931798732056,17.556966805526898 17.110551588254168,16.41873807629229 16.3613448665677,15.407744009832838 C14.9859899573013,18.07621930621845 12.39453175984145,20.19105409349925 8.876518676138977,21.542486186059563 L8.876518676138977,23.478505618427924 C9.88993808296685,23.732974063656496 10.935932379930355,23.863646382854714 11.98554487372464,23.870524336666065 zM11.98554487372464,23.870524336666065 M1.2215825679254253,17.966179087810797 C1.7463897413774532,18.825867853959725 2.3870153490549226,19.620220900670418 3.125363774029516,20.332043783575365 L5.930364149566816,18.791480725868205 C6.802628478804943,19.503302728451413 7.797951342149611,20.046626747000076 8.854803009270107,20.404257456824954 C9.813931859093483,19.48267062766085 10.573995950936942,18.454482116833894 11.124137914643502,17.333447831966787 C8.000635223515186,17.53633382441459 4.77940878853486,16.463441694939963 1.7862028782844124,14.242005225996312 L0.019957626384404344,15.20829567380809 C0.2950276816827979,16.171147584875065 0.7003954444139471,17.096172950783973 1.2215825679254253,17.966179087810797 zM1.2215825679254253,17.966179087810797 M1.2179634445397611,6.1540491730337195 C0.6967763210282839,7.017177356249196 0.2914085582971345,7.942202722158102 0.01633757644385447,8.905054633225078 L2.817718828595491,10.44217827386569 C2.607795773903702,11.515070403340319 2.6114148972893663,12.605156977182453 2.8140987786549414,13.657416125544776 C4.1315449340860635,13.984098244022936 5.452609286347961,14.09413846243059 6.7447187984147785,13.984098244022936 C5.0001901399385265,11.518509820406868 4.366802779032383,8.327343486584892 4.89522814931519,4.754474925080931 L3.132602020800844,3.7881844772691524 C2.3906344724405866,4.496567943107554 1.7500088647631162,5.290920989818244 1.2179634445397611,6.1540491730337195 zM1.2179634445397611,6.1540491730337195 M11.98554487372464,0.24626450711190492 C10.935932379930355,0.24970392417845444 9.88993808296685,0.3769377066318686 8.876518676138977,0.6314052715386957 L8.876518676138977,3.7056543134634117 C7.790712168823398,4.070162096777892 6.799009355419279,4.616924652071361 5.941221519723808,5.308114553864004 C6.303157948717221,6.556383501506269 6.864157282580771,7.698050767485682 7.6097448808815775,8.709044833945134 C8.985099790147975,6.040569537559516 11.576557987607824,3.92573475027872 15.098190194695965,2.5743026577184054 L15.098190194695965,0.6382832253500472 C14.081151664482425,0.383814780121473 13.035157367518924,0.24970392417845444 11.98554487372464,0.24626450711190492 zM11.98554487372464,0.24626450711190492"/>
</svg>
