<svg role="img" viewBox="0 0 24 24" xmlns="http://www.w3.org/2000/svg"><title>Qubes OS</title><path d="M11.92 0a2.4 2.405 0 00-.063 0 2.4 2.405 0 00-.042.002 2.4 2.405 0 00-.001 0 2.4 2.405 0 00-.003 0 2.4 2.405 0 00-.041.002 2.4 2.405 0 00-.038.003 2.4 2.405 0 00-.005 0 2.4 2.405 0 00-.024.002 2.4 2.405 0 00-.043.004 2.4 2.405 0 00-.041.005 2.4 2.405 0 00-.004 0 2.4 2.405 0 00-.041.006 2.4 2.405 0 00-.043.006 2.4 2.405 0 00-.043.007 2.4 2.405 0 00-.128.027 2.4 2.405 0 00-.651.257l-5.408 3.13-2.7 1.562A2.4 2.405 0 001.4 7.096v9.384a2.4 2.405 0 001.2 2.08l8.108 4.693a2.4 2.405 0 001.202.323 2.4 2.405 0 00.002 0 2.4 2.405 0 00.055-.001 2.4 2.405 0 00.076-.003 2.4 2.405 0 001.065-.317l1.803-1.044 2.302 1.34c1.029.599 2.686.599 3.716 0l1.029-.6c1.029-.598 1.029-1.563 0-2.162l-2.29-1.332 1.547-.895a2.4 2.405 0 001.2-2.05 2.4 2.405 0 000-.002 2.4 2.405 0 000-.028V7.099a2.4 2.405 0 000-.003 2.4 2.405 0 000-.04 2.4 2.405 0 000-.004 2.4 2.405 0 00-.002-.04 2.4 2.405 0 00-1.198-2l-3.58-2.07-4.529-2.62a2.4 2.405 0 00-.434-.196 2.4 2.405 0 00-.083-.027 2.4 2.405 0 00-.001 0 2.4 2.405 0 00-.04-.012 2.4 2.405 0 00-.002 0 2.4 2.405 0 00-.04-.01 2.4 2.405 0 00-.002-.001 2.4 2.405 0 00-.041-.01 2.4 2.405 0 00-.002 0 2.4 2.405 0 00-.04-.01 2.4 2.405 0 00-.002 0 2.4 2.405 0 00-.04-.01 2.4 2.405 0 00-.002 0 2.4 2.405 0 00-.042-.007 2.4 2.405 0 00-.001 0 2.4 2.405 0 00-.042-.008 2.4 2.405 0 00-.001 0 2.4 2.405 0 00-.085-.012 2.4 2.405 0 00-.001 0 2.4 2.405 0 00-.002 0 2.4 2.405 0 00-.128-.013 2.4 2.405 0 00-.11-.005 2.4 2.405 0 00-.02 0A2.4 2.405 0 0011.92 0zm-.024 5.305a1.32 1.323 0 01.288.029 1.32 1.323 0 01.032.007 1.32 1.323 0 01.031.008 1.32 1.323 0 01.031.009 1.32 1.323 0 01.031.01 1.32 1.323 0 01.061.02 1.32 1.323 0 01.06.025 1.32 1.323 0 01.03.013 1.32 1.323 0 01.023.01 1.32 1.323 0 01.006.003 1.32 1.323 0 01.008.005 1.32 1.323 0 01.02.01 1.32 1.323 0 01.009.005 1.32 1.323 0 01.02.01 1.32 1.323 0 01.008.005 1.32 1.323 0 01.014.008L15.367 7.1l1.66.96a1.32 1.323 0 01.005.003 1.32 1.323 0 01.023.014 1.32 1.323 0 01.027.017 1.32 1.323 0 01.426.45v-.002a1.32 1.323 0 01.003.004l-.003.002a1.32 1.323 0 01.178.661v5.16a1.32 1.323 0 01-.056.381 1.32 1.323 0 01-.001.002 1.32 1.323 0 01-.01.029 1.32 1.323 0 010 .002 1.32 1.323 0 01-.01.029 1.32 1.323 0 010 .001 1.32 1.323 0 01-.01.029 1.32 1.323 0 01-.001.002 1.32 1.323 0 01-.571.667l-4.46 2.582a1.32 1.323 0 01-1.319 0l-4.46-2.582a1.32 1.323 0 01-.66-1.143V9.207a1.32 1.323 0 01.178-.662l.002.001a1.32 1.323 0 01.482-.484l4.46-2.58a1.32 1.323 0 01.646-.177z"/></svg>