<svg role="img" xmlns="http://www.w3.org/2000/svg" viewBox="0 0 24 24"><title>Quizlet</title><path d="M10.052.888a9.39 9.39 0 0 0-4.255.714 9.431 9.431 0 0 0-3.494 2.542 9.51 9.51 0 0 0-2.098 8.174 9.505 9.505 0 0 0 1.834 3.923 9.44 9.44 0 0 0 3.38 2.693 9.396 9.396 0 0 0 8.397-.18.261.261 0 0 1 .264.014A7.277 7.277 0 0 0 18.223 20a.264.264 0 0 0 .264-.265v-3.219a.266.266 0 0 0-.22-.264 3.735 3.735 0 0 1-.881-.254.263.263 0 0 1-.153-.281.27.27 0 0 1 .04-.106 9.52 9.52 0 0 0 .616-9.463 9.465 9.465 0 0 0-3.223-3.69A9.398 9.398 0 0 0 10.041.882l.01.006Zm-6.326 9.465a5.765 5.765 0 0 1 .96-3.193 5.723 5.723 0 0 1 2.563-2.118 5.686 5.686 0 0 1 3.303-.329 5.71 5.71 0 0 1 2.927 1.571 5.77 5.77 0 0 1 1.24 6.261 5.735 5.735 0 0 1-2.107 2.578 5.697 5.697 0 0 1-7.214-.714 5.758 5.758 0 0 1-1.676-4.057l.004.001Z"/></svg>