<svg viewBox="0 0 16 16" xmlns="http://www.w3.org/2000/svg" fill-rule="evenodd" clip-rule="evenodd" stroke-linejoin="round" stroke-miterlimit="1.414"><path d="M8.49 12.476c-.554-1.09-1.204-2.193-2.473-2.193-.242 0-.485.04-.707.14l-.43-.86c.524-.452 1.373-.81 2.464-.81 1.697 0 2.568.82 3.26 1.862.41-.89.604-2.094.604-3.585 0-3.724-1.164-5.636-3.884-5.636-2.68 0-3.84 1.912-3.84 5.636 0 3.704 1.16 5.596 3.84 5.596.426 0 .812-.046 1.166-.15zm.665 1.3c-.588.157-1.212.244-1.83.244-3.57 0-7.065-2.848-7.065-6.99C.26 2.85 3.754 0 7.324 0c3.63 0 7.09 2.828 7.09 7.03 0 2.337-1.09 4.236-2.675 5.464.51.767 1.038 1.277 1.772 1.277.8 0 1.124-.618 1.178-1.104h1.044c.06.647-.263 3.334-3.18 3.334-1.765 0-2.7-1.024-3.4-2.224z"/></svg>