<svg role="img" viewBox="0 0 24 24" xmlns="http://www.w3.org/2000/svg"><title>Qwant</title><path d="M9.313 5.163c4.289 0 7.766 2.589 7.766 7.616 0 4.759-3.072 7.301-7.003 7.59 1.87 1.142 4.693 1.143 6.45-.348l.547.297-.615 3.074-.226.285c-3.118.918-5.947-.099-7.921-3.329-3.816-.37-6.765-2.9-6.765-7.568 0-5.03 3.477-7.617 7.766-7.617zm0 13.88c2.756 0 4.08-2.804 4.08-6.264 0-3.46-1.148-6.264-4.08-6.264-2.85 0-4.08 2.805-4.08 6.264 0 3.46 1.182 6.264 4.08 6.264zm8.719-16.319L18.734 0h.263l.703 2.725 2.754.71v.248l-2.754.71-.703 2.725h-.263l-.702-2.725-2.696-.695V3.42z"/></svg>