<svg role="img" viewBox="0 0 24 24" xmlns="http://www.w3.org/2000/svg"><title>Qwik</title><path d="m 21.073838,24 -4.570743,-4.284686 -0.07,0.0094 v -0.04714 L 6.7126456,10.628386 9.107511,8.4478631 7.7005901,0.83630009 1.0239653,8.6354654 C -0.11397077,9.7158283 -0.32295903,11.473068 0.494995,12.770258 l 4.1717656,6.521773 c 0.6389641,1.005887 1.796899,1.606403 3.0438289,1.596976 l 2.065884,-0.01885 11.2973645,3.128905 z M 23.568698,8.4855721 22.65075,6.8876529 22.171777,6.0703102 l -0.18999,-0.3195838 -0.02,0.018855 L 19.446928,1.66307 C 18.817965,0.62984328 17.640032,-0.00932438 16.363103,1.0286592e-4 L 14.157227,0.05666638 7.5805968,0.07552088 C 6.332667,0.08494813 5.1957309,0.70526129 4.5667662,1.7102063 L 0.56499106,9.1897878 7.7205889,0.81744559 17.102062,10.534114 l -1.666907,1.587549 0.997944,7.602136 0.01,-0.01885 v 0.01885 h -0.02 l 0.02,0.01885 0.778956,0.714586 3.782787,3.486197 c 0.159991,0.141409 0.418977,-0.02828 0.308983,-0.206456 l -2.334869,-4.331822 4.071771,-7.09495 0.129993,-0.141409 c 0.05,-0.05656 0.09999,-0.113127 0.139992,-0.16969 0.797955,-1.0238 0.907949,-2.3964077 0.249986,-3.5144797 z" /></svg>
