<svg role="img" xmlns="http://www.w3.org/2000/svg" viewBox="0 0 24 24"><title>R icon</title><path d="M12 2.746c-6.627 0-12 3.599-12 8.037 0 3.897 4.143 7.144 9.639 7.88v-2.407c-2.924-.915-4.924-2.751-4.924-4.873 0-3.035 4.084-5.494 9.12-5.494 5.038 0 8.757 1.683 8.757 5.494 0 1.976-1.005 3.374-2.668 4.267.09.066.18.133.264.221.208.222.312.451.312.451l.055.092c2.128-1.45 3.445-3.436 3.445-5.63 0-4.44-5.373-8.038-12-8.038zm-2.111 4.99v13.516l4.093-.002-.002-5.291h1.1c.225 0 .321.066.549.25.272.22.715.982.715.982l2.164 4.063 4.627-.002-2.864-4.826s-.086-.193-.265-.383a2.22 2.22 0 00-.582-.416c-.422-.214-1.149-.434-1.149-.434s3.578-.264 3.578-3.826c0-3.562-3.744-3.63-3.744-3.63zm4.127 2.93l2.478.002s1.149-.062 1.149 1.127c0 1.165-1.149 1.17-1.149 1.17h-2.478zm.214 6.193v1.817c.823-.104 1.617-.26 2.372-.47l-.473-.89s-.108-.183-.248-.394c-.038-.057-.07-.083-.111-.14-.538.052-1.082.06-1.54.077z"/></svg>