<svg role="img" xmlns="http://www.w3.org/2000/svg" viewBox="0 0 24 24"><title>R3 icon</title><path  d="M7.6 14.9563h3.03a3.0098 3.0098 0 00.4555 1.5704c.2942.473.7141.8581 1.2145 1.1138a3.1429 3.1429 0 001.5519.3489 3.1377 3.1377 0 001.5233-.4544 3.07 3.07 0 001.0931-1.1379 3.0058 3.0058 0 00.3746-1.5214 3.0097 3.0097 0 00-.4427-1.5035 3.0764 3.0764 0 00-1.1432-1.0892 3.1408 3.1408 0 00-1.5424-.3877 3.1412 3.1412 0 00-1.5346.416l-.44-.7374-1-1.7207c-.08-.118-.06-.1966 0-.295.8-1.1012 1.56-2.2024 2.32-3.3135.04-.059.09-.1081.14-.2163H8.23l.12-.1966 1.89-2.6942c.05-.0688.15-.1376.24-.1376 2.12.0197 4.24.0197 6.35.0197h.14v2.8317a.584.584 0 01-.1.3147l-1.85 2.6252c-.03.0492-.06.118-.12.1967a6.1702 6.1702 0 012.6249 1.1606 6.0369 6.0369 0 011.7951 2.2119 5.948 5.948 0 01.5529 3.3461c-.1444 1.1444-.6192 2.2241-1.3682 3.1115-.749.8875-1.7407 1.5454-2.858 1.8961a6.2406 6.2406 0 01-3.4467.0826c-1.3231-.3229-2.4969-1.075-3.3316-2.1348-.8347-1.0598-1.2816-2.3654-1.2684-3.7057zM0 3.0393h3.05v.767l1.02-.4327A5.7557 5.7557 0 016 3.0196h3.1c.04 0 .09 0 .16.0197-.07.118-.14.1967-.2.2852l-1.74 2.527c-.1.1376-.2.1966-.36.1966-.48 0-.95 0-1.4.059-.6972.1308-1.3258.4974-1.777 1.0361-.451.5388-.6963 1.2157-.693 1.9136v5.8798H.03C0 10.9938 0 7.0215 0 3.0393zm20.93 10.3831a1.4967 1.4967 0 01.4566-1.0643 1.549 1.549 0 011.0884-.4351 1.5476 1.5476 0 011.0824.449c.286.2849.4452.6698.4426 1.0701-.02.8161-.7 1.4847-1.53 1.4847a1.5233 1.5233 0 01-.5934-.1034 1.5008 1.5008 0 01-.5041-.3247 1.4715 1.4715 0 01-.3335-.4935 1.4514 1.4514 0 01-.109-.5828z"/></svg>