<?xml version="1.0" encoding="utf-8"?>
<!-- Generator: Adobe Illustrator 24.0.1, SVG Export Plug-In . SVG Version: 6.00 Build 0)  -->
<svg version="1.1" id="图层_1" xmlns="http://www.w3.org/2000/svg" xmlns:xlink="http://www.w3.org/1999/xlink" x="0px" y="0px"
	 viewBox="0 0 24 24" style="enable-background:new 0 0 24 24;" xml:space="preserve">
<style type="text/css">
	.st0{fill:#FFFFFF;}
</style>
<title>未标题-2</title>
<g>
	<g>
		<g>
			<path class="st0" d="M12.7,24.1c-4.1,0-8.3,0-12.4,0c-0.2,0-0.2,0-0.2-0.2c0-7.9,0-15.8,0-23.8c0-0.2,0-0.2,0.2-0.2
				c8.3,0,16.5,0,24.8,0c0.2,0,0.2,0,0.2,0.2c0,7.9,0,15.8,0,23.8c0,0.2,0,0.2-0.2,0.2C21,24.1,16.8,24.1,12.7,24.1z"/>
			<path d="M15.5,17.8c-1.6,0-3.2,0-4.9,0c-0.9,0-1.7-0.3-2.3-0.9c-0.3-0.3-0.5-0.6-0.7-1s-0.4-0.8-0.5-1.3c0-0.5,0-0.5,0.1-0.8
				c0.2-0.4,0.3-0.9,0.6-1.3c0.4-0.5,0.8-0.8,1.4-1.1c0.4-0.2,0.6-0.4,0.7-0.9c0.2-1.5,1-2.6,2.3-3.3c0.8-0.4,1.7-0.4,2.5,0
				c0.5,0.2,1,0.5,1.3,1c0.2,0.2,0.5,0.3,0.8,0.3c0.4,0,0.7,0,1.1-0.1c0.8-0.1,1.4,0.2,2,0.7s0.9,1.1,1.2,1.7
				c0.1,0.3,0.4,0.5,0.7,0.6c0.5,0.2,0.9,0.5,1.3,0.9c0.5,0.6,0.9,1.3,0.8,2.1c0,0.9-0.4,1.7-1.1,2.3c-0.8,0.7-1.7,0.9-2.7,0.9
				C18.5,17.8,17,17.8,15.5,17.8z"/>
			<path d="M4,7.7c-0.3,1-0.2,2,0.3,3c0.1,0.2,0.2,0.5,0.4,0.6c0.1,0.1,0.2,0.2,0.3,0.3c0.2,0.2,0.5,0.3,0.7,0.5s0.3,0.4,0.2,0.6
				c-0.4,0.9-0.4,1.9-0.2,2.8c0,0.3,0,0.5-0.3,0.7c-0.1,0.1-0.2,0.2-0.3,0.2c-0.4,0.3-0.8,0-0.9-0.5c0-0.1,0.1,0,0,0
				c-0.1-0.8-0.3-1.6-0.4-2.4c0-0.2-0.1-0.4-0.2-0.5c-0.1,0-0.3,0-0.4-0.1c-0.8-0.2-1.7-0.3-2.5-0.5c-0.1,0-0.3-0.1-0.5-0.2
				c-0.2-0.3-0.1-0.5,0-0.8c0.4-0.6,0.8-1.2,1.2-1.8c0.1-0.2,0,0,0.4-0.5c0-0.1,0-0.3-0.1-0.5C1.4,7.9,1,7.3,0.5,6.7
				C0.3,6.4,0.2,6.1,0.1,5.8c0-0.2,0.1-0.4,0.3-0.5C1,5.2,1.6,5.1,2.1,5S3,4.8,3.4,4.7c0.2,0,0.3-0.2,0.3-0.4C3.9,3.5,4,2.5,4.1,1.6
				c0-0.1,0-0.3,0.1-0.4C4.5,0.9,4.7,0.9,5,1.1c0.8,0.6,1.5,1.1,2.3,1.7C7.5,3,7.6,3,7.8,2.8l0,0C8,2.7,8.2,2.5,8.4,2.3
				c0.1,0,0.1-0.1,0.2-0.1C8.7,2.1,8.9,2.1,9,1.9l0,0c0.1-0.1,0.2-0.2,0.3-0.3l0,0C9.6,1.5,9.8,1.4,10,1.2c0,0,0,0,0.1,0
				c0.5-0.2,0.7,0.1,0.8,0.6c0,0.1,0,0.1,0,0.2c0,0.6,0.2,1.1,0.3,1.7c0,0.2,0.1,0.4,0.1,0.6c0,0.3,0.2,0.5,0.5,0.6
				c0.1,0,0.3,0,0.4,0.1c0.1,0,0.3,0.1,0.3,0.2c0,0.2-0.1,0.2-0.3,0.2c-0.5,0.1-0.9,0.4-1.4,0.6c-0.4,0.2-0.7,0.1-0.9-0.1
				c-0.5-0.5-1.1-0.8-1.8-1c-0.7-0.1-1.3,0-1.9,0.2s-1,0.6-1.4,1.1C4.6,6.4,4.4,6.7,4.3,7C4.2,7.2,4.1,7.4,4,7.7z"/>
			<path d="M5.2,10C4.9,9.5,5,9,5,8.5c0.1-1.1,0.8-2,1.8-2.3c0.9-0.3,1.7-0.1,2.4,0.6c0.3,0.3,0.3,0.6,0.1,0.9
				C9,8.2,8.7,8.6,8.6,9.2C8.5,9.4,8.4,9.5,8.3,9.7C8.1,9.9,8,10,7.8,10.2c-0.4,0.3-0.7,0.7-1,1c-0.2,0.2-0.4,0.2-0.7,0
				C5.7,10.8,5.4,10.5,5.2,10z"/>
			<path d="M19.5,23.1c-0.1-0.4,0-0.7,0.3-1c0.5-0.8,1-1.5,1.4-2.3c0.3-0.5,1.2-0.4,1.5,0.1c0.3,0.4,0.3,1,0,1.5
				c-0.4,0.6-0.8,1.3-1.2,1.9c-0.2,0.2-0.4,0.4-0.7,0.5c-0.5,0.2-1-0.1-1.2-0.5C19.6,23.3,19.5,23.2,19.5,23.1z"/>
			<path d="M11.6,23.3c-0.3-0.6,0-1.1,0.3-1.6c0.4-0.6,0.8-1.2,1.2-1.9c0.2-0.3,0.6-0.4,0.9-0.4c0.4,0.1,0.6,0.3,0.7,0.7
				c0.1,0.4,0.1,0.7-0.1,1.1c-0.3,0.6-0.7,1.2-1.1,1.8c-0.1,0.2-0.2,0.3-0.4,0.5C12.6,24,12,24,11.6,23.3z"/>
			<path d="M15.6,23.1c-0.1-0.4,0-0.7,0.1-1c0.4-0.8,1-1.5,1.4-2.3c0.2-0.3,0.7-0.4,1.1-0.3s0.8,1.1,0.6,1.4
				c-0.1,0.2-0.2,0.4-0.3,0.7c-0.3,0.6-0.7,1.1-1.1,1.7c-0.1,0.2-0.2,0.3-0.4,0.4c-0.5,0.4-1.1,0.2-1.4-0.4
				C15.6,23.3,15.6,23.2,15.6,23.1z"/>
			<path d="M7.5,23.1c0-0.4,0.1-0.7,0.2-1c0.4-0.8,1-1.5,1.4-2.3c0.2-0.3,0.5-0.4,0.8-0.3c0.4,0,0.6,0.2,0.8,0.6
				c0.2,0.5,0.1,1-0.2,1.4s-0.5,0.9-0.8,1.3c-0.1,0.2-0.2,0.3-0.3,0.5S9.2,23.6,9,23.8c-0.6,0.3-1,0.3-1.3-0.3
				C7.6,23.4,7.5,23.2,7.5,23.1z"/>
			<path d="M4,7.7C4,7.4,4.2,7.2,4.2,7c0.4-0.8,1-1.4,1.7-1.8C6.4,4.9,7,4.8,7.6,4.8c0.8,0.1,1.6,0.4,2.2,1c0.4,0.4,0.6,0.3,1,0.1
				c0.4-0.2,0.8-0.4,1.3-0.5c0.2,0,0.3-0.1,0.4-0.3C12.5,5,12.6,5,12.7,5c0.1,0,0.2,0,0.3,0.1s0.1,0.3,0,0.4c-0.1,0-0.1,0.1-0.2,0.1
				c-0.6,0-1.2,0.3-1.7,0.6c-0.1,0.1-0.2,0.1-0.4,0.2s-0.3,0.1-0.5,0C9.6,5.8,9,5.3,8.1,5.2C6.8,5,5.7,5.4,4.8,6.3
				C4.5,6.8,4.3,7.2,4,7.7z"/>
			<path d="M12.7,5c0,0.3-0.2,0.4-0.4,0.4c-0.5,0.1-1,0.3-1.5,0.6c-0.2,0.1-0.4,0.1-0.6,0C9.9,5.9,9.7,5.7,9.5,5.6
				c-1-0.7-2.2-0.9-3.4-0.4C5.2,5.5,4.7,6.2,4.2,7c0-0.3,0.2-0.5,0.3-0.7c0.7-0.9,1.6-1.4,2.7-1.5C8.1,4.7,8.9,5,9.6,5.5
				c0.9,0.7,0.9,0.6,1.7,0.2c0.3-0.1,0.5-0.2,0.8-0.3c0.3-0.1,0.1-0.3-0.1-0.5C12.3,5,12.5,5,12.7,5z"/>
			<path d="M0.1,12c1.1,0.4,2.1,0.5,3.2,0.8c0.2,0,0.7,0.3,0.6,0.5C3.5,13,2.6,12.9,2,12.7c-0.5-0.1-1.1-0.3-1.6-0.4
				C0.1,12.2,0.2,12.2,0.1,12z"/>
			<path d="M4.2,15.9c0.3,0.6,0.5,0.8,1.1,0.3c0.2-0.2,0.4-0.4,0.3-0.7c0.1,0.4,0.1,0.5-0.2,0.8c-0.1,0.1-0.1,0.1-0.4,0.3
				c-0.4,0.3-0.6,0.2-0.7-0.3C4.3,16.3,4.2,16,4.2,15.9z"/>
			<path d="M15.6,23.1c0.2,0.3,0.4,0.6,0.7,0.6c0.4,0.1,0.7,0,0.9-0.3c0.1-0.1,0.1-0.1,0.2-0.2c-0.1,0.4-0.6,0.7-0.9,0.7
				C16.1,24,15.6,23.6,15.6,23.1z"/>
			<path d="M10.9,2c-0.1-0.2-0.1-0.5-0.3-0.7c-0.2-0.1-2.7,1.6-2.8,1.5c0.3-0.2,2.7-2.3,2.9-1.8C10.8,1.3,10.9,1.7,10.9,2z"/>
			<path d="M5,11.6c-0.3-0.2-0.6-0.5-0.7-1C4.4,11.1,4.8,11.3,5,11.6z"/>
			<path d="M10,1.2C9.9,1.5,9.6,1.6,9.3,1.7C9.5,1.4,9.7,1.3,10,1.2z"/>
			<path d="M8.4,2.3C8.3,2.6,8,2.7,7.8,2.8C8,2.6,8.2,2.4,8.4,2.3z"/>
			<path d="M7.8,2.8c-0.2,0.3-0.3,0.3-0.5,0C7.4,2.9,7.6,2.9,7.8,2.8z"/>
			<path d="M9,1.9c0,0.3-0.2,0.2-0.4,0.3C8.7,2.1,8.8,2,9,1.9z"/>
			<path d="M9.3,1.7C9.2,1.8,9.2,1.9,9,1.9C9,1.8,9.2,1.7,9.3,1.7z"/>
			<path d="M3.5,8.8c-0.1,1,0.1,1.9,0.7,2.7c0.2,0.3,0.4,0.5,0.7,0.8c0.3,0.2,0.5,0.5,0.4,0.9c-0.2,0.7-0.1,1.4-0.1,2.2
				c0,0.1,0,0.3-0.1,0.4C5,15.9,4.9,16,4.8,16s-0.2-0.1-0.2-0.3c-0.1-0.5-0.2-1.1-0.3-1.6c-0.1-0.3-0.1-0.7-0.2-1s-0.3-0.5-0.6-0.6
				c-0.7-0.2-1.3-0.3-2-0.4c-0.7-0.1-0.7-0.2-0.4-0.8c0.3-0.4,0.5-0.9,0.8-1.3c0.4-0.5,0.4-1,0.4-1.5c0-0.2-0.1-0.4-0.2-0.6
				C1.7,7.3,1.3,6.7,0.9,6.1c-0.1-0.2,0-0.3,0.2-0.4s0.4-0.1,0.5-0.1c0.6-0.1,1.2-0.3,1.9-0.4c0.4-0.1,0.6-0.3,0.7-0.7
				C4.3,3.7,4.5,2.8,4.6,2c0.1-0.4,0.2-0.4,0.5-0.2c0.5,0.5,1,0.8,1.6,1.2C6.8,3.2,7,3.2,7.2,3.2c0.7,0.1,1.2-0.1,1.7-0.6
				C9.3,2.4,9.7,2.1,10,1.8c0.2-0.2,0.3-0.1,0.4,0.2c0.1,0.8,0.3,1.7,0.4,2.5c0,0.2,0.1,0.4,0.3,0.6c0.1,0.1,0.1,0.2,0,0.3
				c-0.2,0.1-0.3,0.2-0.5,0.2c-0.1,0.1-0.2,0-0.3,0c-0.2-0.2-0.4-0.3-0.6-0.5c-1.4-0.7-2.9-0.8-4.3,0C4.1,5.7,3.5,6.9,3.5,8.3
				C3.5,8.5,3.5,8.6,3.5,8.8z"/>
			<path d="M7.6,6.5C8,6.6,8.4,6.8,8.8,7.1c0.1,0.1,0.1,0.2,0,0.3C8.4,7.9,8.2,8.6,8,9.3C7.9,9.6,7.6,9.8,7.3,10
				c-0.2,0.1-0.4,0.3-0.6,0.5c-0.1,0.1-0.2,0.1-0.3,0C6,10.2,5.7,9.8,5.5,9.3C5.3,8.6,5.5,8,5.9,7.5s0.8-0.9,1.4-0.9
				C7.4,6.5,7.5,6.5,7.6,6.5z"/>
			<path d="M22.4,20.6c0,0.3-0.2,0.5-0.3,0.7c-0.3,0.5-0.6,1-1,1.5c0,0,0,0.1-0.1,0.1c-0.4,0.5-0.7,0.4-1-0.1
				c-0.1-0.2-0.1-0.3,0.1-0.5c0.4-0.5,0.7-1.1,1-1.6c0.2-0.3,0.4-0.5,0.6-0.7c0.1-0.1,0.3-0.1,0.4,0C22.2,20.2,22.4,20.3,22.4,20.6z
				"/>
			<path d="M14.4,20.6v0.1c-0.4,0.8-1,1.6-1.5,2.4c-0.1,0.2-0.3,0.3-0.5,0.2c-0.2-0.1-0.4-0.5-0.3-0.7c0.1-0.2,0.2-0.4,0.3-0.5
				c0.4-0.5,0.6-1,1-1.5c0.1-0.1,0.2-0.2,0.2-0.3c0.1-0.1,0.2-0.3,0.5-0.2C14.1,20,14.4,20.4,14.4,20.6z"/>
			<path d="M15.9,22.7c0-0.1,0.1-0.2,0.1-0.3c0.4-0.6,0.8-1.3,1.2-1.9c0.1-0.1,0.2-0.2,0.3-0.3c0.2-0.1,0.3-0.3,0.5-0.1
				c0.3,0.2,0.4,0.5,0.2,0.8c-0.2,0.4-0.4,0.8-0.6,1.1c-0.3,0.4-0.5,0.8-0.8,1.2c-0.1,0.1-0.2,0.3-0.4,0.2
				C16.2,23.1,16,23,15.9,22.7z"/>
			<path d="M7.9,22.7C8,22.3,8,22.5,8,22.4c0.4-0.6,0.8-1.3,1.2-1.9c0.1-0.1,0.1-0.2,0.2-0.3C9.6,20,9.7,19.8,10,20s0.5,0.5,0.3,0.8
				c-0.1,0.3-0.3,0.6-0.5,0.8c-0.3,0.3-0.5,0.7-0.7,1.1c-0.1,0.2-0.3,0.4-0.5,0.6c-0.1,0.1-0.2,0.1-0.4,0
				C7.8,23.2,7.8,23.1,7.9,22.7z"/>
		</g>
	</g>
</g>
</svg>
