<svg role="img" viewBox="0 0 24 24" xmlns="http://www.w3.org/2000/svg"><title>RainYun</title><path d="M7.976 23.913c-.539-.213-.81-.926-.63-1.653.09-.362 1.554-2.775 1.773-2.923.992-.668 2.026.636 1.469 1.854-.202.442-1.211 2.088-1.469 2.395-.342.41-.686.507-1.143.327zm3.979.029c-.517-.173-.816-.96-.637-1.68.09-.365 1.548-2.772 1.772-2.927.99-.683 2.032.626 1.473 1.85-.208.456-1.305 2.246-1.516 2.475a1 1 0 0 1-1.092.282zm3.966-.029c-.54-.213-.811-.926-.63-1.653.09-.362 1.554-2.775 1.773-2.923.992-.668 2.025.636 1.469 1.854-.202.442-1.211 2.088-1.469 2.395-.342.41-.686.507-1.143.327zm3.973 0c-.54-.213-.812-.926-.63-1.653.09-.362 1.553-2.775 1.772-2.923.98-.606 1.915.804 1.212 1.962-.046.076-.642 1.527-1.259 2.254-.31.367-.812.472-1.095.36zm-10.4-5.885c-3.439-.468-3.997-6.27-.719-7.46.418-.152.498-.241.498-.553 0-3.615 4.472-5.475 6.881-2.862.47.508.47.508.753.38 1.553-.704 3.65.45 4.266 2.347.165.508.194.548.43.598 3.21.672 3.19 6.306-.026 7.45-.381.135-11.167.225-12.083.1zm-5.248-1.592c-.18-.16-.216-.311-.493-2.103-.282-1.82-.094-1.617-1.794-1.947-1.743-.34-1.66-.316-1.789-.5-.267-.38-.194-.598.68-2.023.435-.71.82-1.353.857-1.43.086-.18.081-.188-.872-1.74C-.416 4.659-.408 4.64 1.873 4.199c.852-.165 1.572-.316 1.6-.335.027-.02.174-.836.327-1.815.397-2.547.309-2.506 2.227-1.037 1.556 1.19 1.135 1.183 2.643.041C10.66-.454 10.556-.5 10.953 2.072c.31 2.008.16 1.769 1.301 2.066 1.493.253.742.55-.195.823-.32.083-.712.249-1.103.468-.763.427-.79.426-1.27-.03-2.228-2.124-5.526-.646-5.85 2.622-.138 1.39.59 2.843 1.837 3.665.228.151.235.363.034 1.028-.223.74-.286 1.64-.163 2.35.162.934-.727 1.874-1.298 1.372zm1.769-5.668c-2.738-1.957-.423-6.666 2.52-5.128.912.476 1.035.865.536 1.682-.355.582-.496.91-.705 1.648-.176.622-.17.615-.677.997-.22.166-.553.454-.74.64-.401.4-.562.427-.934.161z"/></svg>