<svg role="img" viewBox="0 0 24 24" xmlns="http://www.w3.org/2000/svg"><title>Iconfinder icon</title><path d="M12 0l-.579.901s-1.844 2.875-3.69 6.227c-.923 1.677-1.848 3.473-2.55 5.107-.702 1.635-1.202 3.07-1.202 4.236 0 4.168 3.638 7.529 8.02 7.529 4.383 0 8.021-3.361 8.021-7.529 0-1.165-.5-2.6-1.202-4.236-.702-1.634-1.627-3.43-2.55-5.107-1.846-3.352-3.69-6.227-3.69-6.227zm0 2.622c.448.709 1.532 2.392 3.064 5.172.91 1.652 1.818 3.419 2.491 4.986.673 1.567 1.09 2.974 1.09 3.691 0 3.362-2.961 6.152-6.645 6.152-3.685 0-6.646-2.79-6.646-6.152 0-.717.417-2.124 1.09-3.691.673-1.567 1.58-3.334 2.49-4.986C10.467 5.014 11.552 3.33 12 2.622zM9.178 14.426c-1.614-.082-2.2 1.159-2.2 1.159a1.335 1.335 0 00-.126.566c0 2.638 2.336 4.766 5.249 4.766 2.912 0 5.295-2.128 5.295-4.766 0-.17-.044-.34-.044-.553 0 0-1.5 2.638-5.295 0-1.2-.825-2.146-1.135-2.88-1.172z"/></svg>