<svg role="img" viewBox="0 0 24 24" xmlns="http://www.w3.org/2000/svg"><title>Raindrop</title><path d="M12.117 2.34c-.025 0-.05.005-.074.005a8.664 8.664 0 0 0-.729.034 8.584 8.584 0 0 0-2.272.532l-.135.053a8.412 8.412 0 0 0-1.396.717 8.374 8.374 0 0 0-.634.452l-.083.068a8.392 8.392 0 0 0-.598.524 8.143 8.143 0 0 0-1.045 1.243l-.026.031v.002l-.022.034a8.036 8.036 0 0 0-.38.625l-.02.032v.002l-.016.03a7.956 7.956 0 0 0-.904 2.973c-.007.066-.01.131-.014.197a6.117 6.117 0 0 0 2.23 11.765h12.235a6.117 6.117 0 0 0 2.238-11.65 7.974 7.974 0 0 0-.023-.308v-.006l-.002-.01a7.965 7.965 0 0 0-.303-1.525 7.947 7.947 0 0 0-.598-1.436l-.035-.064a8.034 8.034 0 0 0-.38-.625l-.049-.068a8.139 8.139 0 0 0-.471-.625 8.325 8.325 0 0 0-1.259-1.21 8.37 8.37 0 0 0-.63-.45 8.35 8.35 0 0 0-1.395-.718l-.136-.054a8.5 8.5 0 0 0-3-.565c-.025 0-.05-.004-.074-.004z"/></svg>