<svg role="img" viewBox="0 0 24 24" xmlns="http://www.w3.org/2000/svg"><title>Raindrop</title><path d="M10.86 2.311c-.99.144-2.011.477-2.812.91-2.133 1.156-3.713 3.195-4.24 5.472-.05.216-.09.464-.09.545 0 .144-.018.162-.387.342-1.553.77-2.62 2.21-3.105 4.181-.302 1.233-.302 1.93.004 3.169.657 2.65 2.34 4.302 4.838 4.743.446.077.847.081 6.932.081 6.085 0 6.485-.004 6.93-.08 1.86-.33 3.304-1.364 4.195-3.003.392-.71.743-1.894.847-2.826.072-.635.009-1.256-.208-2.111-.495-1.976-1.557-3.394-3.11-4.163-.355-.176-.373-.194-.373-.333 0-.423-.315-1.45-.675-2.201-1.098-2.286-3.263-4.028-5.694-4.573-.98-.22-2.173-.279-3.051-.153zm2.4 1.845c1.417.315 2.525.923 3.47 1.895.778.81 1.269 1.594 1.553 2.494.058.184.108.346.108.36 0 .013-.41.022-.914.022-1.022.005-1.58.086-2.318.342-1.265.446-2.43 1.387-3.024 2.458-.059.108-.117.193-.131.193-.013 0-.076-.085-.135-.193a6.646 6.646 0 0 0-.873-1.121c-.792-.792-1.845-1.332-3.056-1.575-.423-.086-.662-.1-1.418-.104-.504 0-.914-.009-.914-.022.005-.072.235-.734.33-.95.526-1.166 1.601-2.354 2.708-2.997a7.42 7.42 0 0 1 2.566-.887c.306-.045 1.72.013 2.048.085zm-5.824 6.617c.756.121 1.413.391 1.949.805.666.513 1.246 1.445 1.485 2.39.207.81.23 1.085.23 2.741v1.58L9.24 16.42c-2.182-2.192-2.69-2.795-3.168-3.758-.292-.59-.554-1.413-.554-1.742 0-.144.014-.166.127-.184.31-.045 1.413-.027 1.79.036zm10.878-.041c.158.027.167.04.167.194 0 .324-.261 1.152-.554 1.737-.477.963-.986 1.566-3.168 3.758l-1.86 1.868v-1.575c0-1.657.028-1.98.226-2.746.256-.972.832-1.89 1.516-2.408.523-.396 1.117-.639 1.927-.787.328-.063 1.454-.086 1.746-.041zm-14.528.792.063.306c.211.986.855 2.25 1.683 3.308.176.22 1.31 1.404 2.525 2.62l2.205 2.219H8.057c-1.305 0-2.318-.018-2.476-.045-.607-.108-.922-.203-1.39-.428-1.17-.563-1.936-1.656-2.282-3.263-.257-1.193.054-2.656.806-3.79.18-.274.918-1.026 1.008-1.026.022 0 .05.045.063.1zm16.913.261c.707.662 1.14 1.49 1.391 2.656.176.823.1 1.683-.234 2.633-.288.8-.603 1.3-1.161 1.827-.59.549-1.256.855-2.277 1.03-.158.028-1.17.046-2.476.046h-2.205l2.205-2.22c1.215-1.215 2.35-2.398 2.525-2.619.828-1.057 1.472-2.322 1.683-3.308.077-.378.086-.405.126-.405.018 0 .212.162.423.36z"/></svg>