<svg role="img" viewBox="0 0 24 24" xmlns="http://www.w3.org/2000/svg"><title>Rakuten Kobo</title><path d="M0 13.192h.874v3.115l1.21-1.432h1.047l-1.385 1.619 1.51 2.125H2.21L.889 16.732H.874v1.887H0zm3.177 3.555c0-1.227.575-1.957 1.653-1.957 1.077 0 1.655.73 1.655 1.957s-.575 1.957-1.651 1.957-1.652-.731-1.652-1.957zm1.653 1.341c.627 0 .722-.643.722-1.344 0-.7-.095-1.343-.722-1.343-.628 0-.722.646-.722 1.346s.091 1.341.722 1.341m2.999-2.764h.016a1.09 1.09 0 0 1 .967-.535c.898 0 1.29.763 1.29 1.957 0 1.045-.362 1.957-1.581 1.957-.978 0-1.564-.559-1.564-1.678v-3.83h.872zm.699 2.767c.56 0 .653-.73.653-1.344 0-.676-.07-1.398-.653-1.398-.527 0-.699.771-.699 1.398 0 .935.14 1.344.699 1.344m2.011-1.344c0-1.227.573-1.957 1.65-1.957 1.078 0 1.653.731 1.653 1.957s-.575 1.957-1.653 1.957c-1.077 0-1.65-.73-1.65-1.957m1.655 1.341c.629 0 .724-.643.724-1.344 0-.7-.095-1.343-.724-1.343s-.723.643-.723 1.343c0 .701.094 1.344.723 1.344m7.126-6.807L5.956 12.439 4.8 11.281zM6.141 6.604h.903v3.935h-.903v-.17c-.245.174-.538.27-.839.272-1.018 0-1.791-.928-1.791-2.067s.773-2.068 1.791-2.068c.301.003.594.098.839.273zm-.839 3.088c.502 0 .857-.493.857-1.118s-.355-1.118-.857-1.118-.868.494-.868 1.118c0 .623.366 1.118.868 1.118m8.006-3.088h.894v3.935h-.894v-.14a1.37 1.37 0 0 1-.759.242c-.951 0-1.599-.773-1.599-1.723V6.604h.893v2.314c0 .434.297.801.732.801s.733-.367.733-.801zm8.332 3.935h-.897V6.61h.897v.14c.224-.155.489-.239.761-.244.95 0 1.599.773 1.599 1.723v2.31h-.893v-2.31c0-.434-.298-.8-.733-.8-.434 0-.734.366-.734.8zm-20.705 0H.013V5.627H1.55c.927.006 1.686.77 1.686 1.697 0 .546-.264 1.06-.707 1.378l1.384 1.837H2.741L1.592 9.017H.935zm0-3.982v1.525h.642a.767.767 0 0 0 .764-.763.77.77 0 0 0-.764-.763l-.032.001zm15.679 3.054v.003l.588.785a1.8 1.8 0 0 1-.875.245 1.353 1.353 0 0 1-1.331-1.346l.002-.059v-1.7h-.473v-.935h.473v-.978h.894v.978h.768v.935h-.765v1.686l-.002.043c0 .234.187.43.422.441a.54.54 0 0 0 .299-.098m-7.352-1.16 1.78 2.092H9.789L8.47 8.925v1.618h-.922V5.296h.922v2.68l1.073-1.372h1.253zm9.416-1.947c1.014 0 1.934.931 1.713 2.345h-2.577c.118.9 1.137 1.358 1.748.457l.79.456c-.508.72-1.113.882-1.584.882-.935 0-1.866-.85-1.866-2.07 0-1.16.742-2.07 1.776-2.07m.782 1.561c-.175-.979-1.423-.923-1.612 0z"/></svg>