<svg role="img" viewBox="0 0 24 24" xmlns="http://www.w3.org/2000/svg"><title>Ram icon</title><path d="M11.46 22.431l-.515-1.14h-.024l-.578 1.14h1.117zm.222.756h-1.556L9.792 24H7.344l1.791-3.359h3.627L14.494 24h-2.448l-.364-.813zm9.516-1.122h-.105L20.048 24h-1.493l-1.042-1.926-.099.001L17.406 24h-2.239v-3.359h3.523l.627 1.056h.03l.686-1.056h3.403V24h-2.239v-1.935zm-18.32.1h.468c.501 0 .646-.161.65-.322.007-.31-.052-.553-.626-.553h-.49v.875zm.513.703h-.499V24H.564v-3.359h3.358c1.761 0 2.48.29 2.566 1.037.042.372-.161 1.043-.978 1.11L6.728 24H4.265l-.874-1.132zM11.844.412c-2.642.002-5.658.155-6.66.24-1.093.094-1.289.164-1.29 1.087l-.009.838c-.008.659-.02 1.588-.02 2.633 0 1.704.101 3.718.227 5.373.134 1.761.24 3.152 2.458 4.475 1.704 1.016 4.668 2.485 4.696 2.499l.1.049c.14.068.508.244.6.278a.524.524 0 0 0 .126 0c.088-.03.333-.158.535-.249l.25-.118c.022-.01 2.078-.95 4.61-2.458 2.217-1.323 2.324-2.715 2.458-4.476.125-1.656.226-3.67.226-5.374 0-1.045-.012-1.974-.02-2.632l-.008-.838c-.004-.813-.158-.993-1.291-1.086C17.83.57 14.814.415 12.172.412h-.328zM12.173 0c2.632.003 5.647.139 6.7.243 1.337.131 1.662.194 1.662 1.496 0 1.026.047 5.619-.2 8.875-.137 1.806-.256 3.365-2.657 4.798a51.072 51.072 0 0 1-4.71 2.487c-.311.139-.721.37-.804.387a.893.893 0 0 1-.313 0c-.092-.02-.593-.265-.786-.36-.193-.094-3.067-1.525-4.726-2.514-2.401-1.432-2.52-2.991-2.658-4.798-.246-3.256-.2-7.849-.2-8.875 0-1.302.326-1.365 1.663-1.496C6.197.139 9.212.003 11.844 0h.329zM8.28 2.312c1.95 0 2.955 1.664 3.531 2.876l-.181.991c-1.01-2.1-2.215-3.436-3.674-3.436-1.577 0-2.465 2.013-2.693 2.352C5.67 4.06 6.854 2.312 8.28 2.312zm10.342 2.783c-.228-.34-1.115-2.352-2.693-2.352-1.459 0-2.663 1.336-3.673 3.436l-.182-.991c.576-1.212 1.581-2.876 3.532-2.876 1.425 0 2.61 1.748 3.016 2.783zm-3.444 4.12c-.162.07-.288.116-.288.116l.098-.845.522-.685c.161.77.15 1.204-.332 1.414zm-6.374 0c-.482-.21-.493-.643-.332-1.414l.522.684.098.846s-.126-.045-.288-.116zm8.367-4.41c-1.277-.024-2.382.962-3.127 3.352l.419.264-.173.998-.953.338-.187 1.292.461-.587.65-.132-.289.778-.895.499-.317 2.084.12.783-.92.356v.001l-.844-.357.12-.783-.318-2.084-.894-.5-.289-.777.65.132.461.587-.187-1.292-.953-.338-.173-.998.419-.264c-.745-2.39-1.85-3.376-3.127-3.352-1.02.02-1.778 1.209-1.693 2.466l.885.105c.317 1.773.612 4.025 1.28 4.025.203 0 .211-.319.211-.577 0-.627-.378-1.38-.378-2.576 0-.552.18-1.027.587-1.027.277 0 .402.075.532.316-.11.818-.114 1.52.524 1.953.141.095.446.382.446.382s.525 2.067.558 2.205c.03.126.104.298.161.403l.666 1.163s.2 1.25.241 1.464c.105.534.648.58 1.092.583h.122c.444-.003.987-.05 1.092-.583.042-.215.24-1.464.24-1.464l.667-1.163c.057-.105.131-.277.161-.403.032-.138.558-2.205.558-2.205s.305-.287.446-.382c.638-.433.634-1.135.524-1.953.13-.241.255-.315.532-.315.407 0 .587.474.587 1.026 0 1.196-.378 1.949-.378 2.576 0 .259.008.577.212.577.667 0 .962-2.252 1.279-4.025l.885-.104c.085-1.258-.673-2.447-1.693-2.467zm-5.01-3.33h.057c1.928 0 5.848.197 6.1.222.325.03.541.074.614.153.073.074.094.158.107.344.011.173.023.858.023.86.007.61.018 1.474.018 2.445 0 .57-.004 1.177-.014 1.791l.132.086c.012-.644.016-1.28.016-1.877 0-.972-.011-1.836-.019-2.448 0-.001-.011-.684-.023-.866-.011-.188-.038-.322-.146-.43-.136-.13-.367-.157-.695-.191-.265-.026-4.175-.223-6.113-.223-.278.002-.57-.003-.854-.003-2.324 0-5.419.21-5.676.226-.378.024-.58.032-.716.188-.105.13-.136.323-.143.513-.006.185-.008.786-.008.787-.007.611-.018 1.476-.018 2.448 0 .587.004 1.214.015 1.848l.132-.085c-.01-.605-.013-1.202-.013-1.763 0-.971.01-1.835.018-2.447 0-.001.002-.603.007-.784.005-.176.042-.348.113-.431.075-.096.236-.12.621-.141.258-.016 3.35-.226 5.665-.226.272 0 .536.006.8.004zm7.178 6.07l-.145.278s-.582.06-.602.06c-.281 2.239-1.19 4.63-2.183 4.63-.327 0-.336-.508-.336-1.11 0-.258.036-.487.076-.688-.106.197-.289.918-.289 1.534 0 .72.405 1.115 1.097 1.115.702 0 1.29-.343 1.673-.98-.248.685-.732 1.28-1.767 1.902a46.162 46.162 0 0 1-4.298 2.27c-.182.08-.417.187-.6.266-.17-.079-.334-.161-.471-.228-.025-.012-2.769-1.372-4.34-2.308-.969-.582-1.455-1.14-1.716-1.772.382.551.914.85 1.565.85.692 0 1.097-.396 1.097-1.116 0-.615-.183-1.336-.289-1.533.04.201.077.43.077.687 0 .603-.01 1.11-.337 1.11-.993 0-1.904-2.401-2.185-4.64-.04-.003-.565-.057-.565-.057l-.18-.336s-.033 1.075.003 1.78a9.75 9.75 0 0 0 .337 2.17c.043.164.094.318.15.462.198.946.658 1.729 1.975 2.51 1.58.941 4.322 2.3 4.35 2.313.148.073.348.173.526.254.194-.08.459-.201.657-.29.022-.01 1.972-.883 4.312-2.278 1.458-.864 1.865-1.73 2.03-2.82.013-.05.027-.099.038-.151.194-.868.274-1.322.31-2.028.032-.607.031-1.593.03-1.855z"/></svg>