<svg role="img" viewBox="0 0 24 24" xmlns="http://www.w3.org/2000/svg"><title>Ram icon</title><path d="M23.468 20.601v3.365h-2.254v-1.885h-.122l-1.012 1.887h-1.53l-1.01-1.887h-.096v1.885h-2.278v-3.365h3.573l.624 1.048.672-1.048h3.433zm-17.88 2.207l1.24 1.172H4.21l-.839-1.098h-.38V24H.532v-3.394h4.505s1.51.002 1.51 1.24c0 .762-.96.962-.96.962zm-1.56-1.06a.453.453 0 0 0-.42-.452H2.97v.792h.589s.468-.005.468-.34zm8.764-1.142l1.75 3.36H12.02l-.328-.808h-1.52l-.342.81H7.34l1.768-3.362h3.684zm-1.33 1.78l-.53-1.045-.532 1.048 1.061-.002zM3.525 7.195a176.79 176.79 0 0 1-.043-5.473 3.337 3.337 0 0 1 .063-.704.79.79 0 0 1 .586-.634 4.7 4.7 0 0 1 .833-.136C5.87.158 6.798.117 7.717.08 8.42.053 9.123.033 9.825.012c.701-.02 1.452-.009 2.179-.009h1.724c.8.017 1.602.04 2.403.07.725.028 1.45.065 2.174.113.464.021.926.073 1.383.154.097.02.192.048.285.082.235.08.414.273.475.514.06.212.088.433.084.653v3.562c0 .772-.02 1.543-.043 2.315a68.91 68.91 0 0 1-.09 2.163c-.043.72-.082 1.419-.177 2.125a4.467 4.467 0 0 1-.948 2.321c-.456.528-1 .973-1.607 1.315a53.76 53.76 0 0 1-4.512 2.396c-.264.125-.531.25-.79.385a.747.747 0 0 1-.71 0c-.66-.31-1.31-.64-1.96-.975-1.163-.6-2.323-1.202-3.446-1.876a5.499 5.499 0 0 1-1.706-1.514 4.494 4.494 0 0 1-.722-1.892 16.716 16.716 0 0 1-.158-1.61c-.04-.67-.076-1.342-.107-2.014-.018-.365-.022-.73-.031-1.096zm.4-.178c0 .226 0 .452.023.694.048.865.088 1.731.154 2.596.043.54.072 1.084.165 1.62.088.593.31 1.157.65 1.652.45.602 1.025 1.1 1.685 1.46 1.132.678 2.315 1.284 3.494 1.886.58.297 1.154.598 1.747.867.1.049.218.049.319 0 .355-.172.715-.335 1.073-.507a53.79 53.79 0 0 0 3.498-1.853 11.452 11.452 0 0 0 1.561-1.005 3.865 3.865 0 0 0 1.392-2.204c.12-.612.195-1.232.226-1.855.043-.552.066-1.107.102-1.661a52.37 52.37 0 0 0 .104-2.86c0-.844.014-1.688 0-2.532-.016-.544 0-1.089-.014-1.632a2.872 2.872 0 0 0-.025-.342.609.609 0 0 0-.5-.55 3.314 3.314 0 0 0-.696-.11 98.394 98.394 0 0 0-5.092-.23c-.602-.013-1.197.005-1.79.005h.003c-.806 0-1.614 0-2.42.02-.576.017-1.153.04-1.73.062-.906.034-1.793.08-2.686.147a4.01 4.01 0 0 0-.779.113.54.54 0 0 0-.423.428c-.027.13-.041.263-.043.396 0 .527 0 1.057-.018 1.584a82.034 82.034 0 0 0 .02 3.81zm12.862 2.1a4.4 4.4 0 0 0 .032-1.25.926.926 0 0 0-.195-.468.52.52 0 0 0-.832.097.209.209 0 0 0 0 .122c.04.294.05.591.029.887-.028.39-.228.746-.545.973-.145.102-.272.227-.405.335a.282.282 0 0 0-.084.145c-.174.692-.353 1.385-.525 2.077a3.81 3.81 0 0 1-.453.921 3.228 3.228 0 0 1-.226.394c-.195.262-.2.575-.253.876-.055.3-.095.547-.136.821a.647.647 0 0 1-.541.57 2.79 2.79 0 0 1-1.31 0 .647.647 0 0 1-.518-.57c-.07-.453-.147-.885-.227-1.328a.512.512 0 0 0-.063-.17c-.197-.342-.391-.679-.588-1.03a1.946 1.946 0 0 1-.204-.504c-.167-.679-.34-1.358-.51-2.037a.362.362 0 0 0-.128-.205 15.693 15.693 0 0 0-.414-.34 1.29 1.29 0 0 1-.498-.928 3.423 3.423 0 0 1 .02-.819.376.376 0 0 0-.253-.425.514.514 0 0 0-.675.27l-.004.01a1.342 1.342 0 0 0-.122.53 6.8 6.8 0 0 0 .244 1.94c.09.314.132.64.123.968a.905.905 0 0 1-.041.246.201.201 0 0 1-.32.136.679.679 0 0 1-.289-.312 4.41 4.41 0 0 1-.387-1.132c-.19-.798-.314-1.61-.452-2.419a.14.14 0 0 0-.143-.138h-.002l-.647-.072c-.073 0-.123-.03-.123-.115-.033-.661.18-1.31.6-1.822a1.55 1.55 0 0 1 1.613-.52 2.608 2.608 0 0 1 1.537 1.038 6.683 6.683 0 0 1 1.009 2.01c.093.269.09.271-.158.425-.172.106-.172.106-.138.303.034.197.081.453.115.68a.172.172 0 0 0 .129.15c.249.082.496.175.742.26a.143.143 0 0 1 .113.125c.055.376.111.752.165 1.132 0 .02.014.05-.015.059-.03.009-.039-.019-.052-.037-.113-.142-.227-.285-.338-.43a.256.256 0 0 0-.17-.104c-.16-.029-.323-.068-.51-.106.092.253.176.477.26.701a.195.195 0 0 0 .108.095c.226.13.453.258.679.383.078.034.13.108.136.192.092.631.19 1.263.287 1.894.005.103-.005.205-.027.306-.02.149-.045.3-.073.452a.093.093 0 0 0 .063.115c.227.096.453.195.693.293a.165.165 0 0 0 .143 0c.244-.095.489-.193.733-.283a.095.095 0 0 0 .072-.13 14.038 14.038 0 0 1-.095-.62 1.437 1.437 0 0 1 .048-.402c.081-.543.167-1.082.246-1.625a.226.226 0 0 1 .136-.192c.227-.124.453-.256.68-.38a.267.267 0 0 0 .128-.152c.075-.206.152-.411.238-.642-.166.03-.31.063-.453.083a.369.369 0 0 0-.26.161c-.09.131-.195.254-.294.38-.016.018-.03.052-.06.043-.029-.009-.017-.045-.015-.07.054-.364.109-.728.158-1.093a.165.165 0 0 1 .13-.151c.248-.084.493-.177.742-.26a.147.147 0 0 0 .113-.125c.045-.269.093-.538.142-.808a.116.116 0 0 0-.047-.124c-.093-.055-.179-.116-.272-.17a.093.093 0 0 1-.047-.122 6.774 6.774 0 0 1 1.183-2.338 2.537 2.537 0 0 1 1.283-.87c.905-.245 1.618.08 2.055.93.214.419.319.886.305 1.357 0 .09-.036.129-.126.138l-.645.072c-.088 0-.13.043-.147.138-.152.867-.279 1.74-.496 2.595a3.935 3.935 0 0 1-.344.953.71.71 0 0 1-.28.308c-.166.083-.283.038-.33-.143a1.782 1.782 0 0 1 0-.78c.076-.453.21-.878.273-1.329zm-7.723.047c-.02-.188-.045-.4-.07-.611a.225.225 0 0 0-.043-.115l-.405-.534c-.014-.018-.027-.046-.052-.034-.025.01-.023.029-.025.047a2.76 2.76 0 0 0-.068.654.652.652 0 0 0 .453.63c.045.017.09.035.136.058.072.04.09.002.074-.095zm6.429-1.333c-.145.188-.265.353-.396.511a.495.495 0 0 0-.12.286c-.016.147-.039.294-.05.452-.02.226-.02.226.2.138a.636.636 0 0 0 .452-.532 2.487 2.487 0 0 0-.086-.855zM4.628 9.084c.02.573.084 1.145.194 1.708.086.441.231.867.349 1.299a3.2 3.2 0 0 0 .563 1.163c.378.459.838.843 1.358 1.131.566.34 1.143.654 1.724.962a94.358 94.358 0 0 0 3.048 1.557c.064.032.14.032.204 0 .37-.172.744-.333 1.11-.51.989-.471 1.959-.98 2.91-1.524.515-.273 1.01-.58 1.483-.919a3.394 3.394 0 0 0 1.181-1.532c.092-.306.168-.616.226-.93.23-.914.347-1.854.349-2.797v-1.05c0-.029.013-.06-.016-.088-.043.018-.054.063-.07.097a.226.226 0 0 1-.226.161c-.102-.004-.231.03-.328.032-.098.002-.143.047-.143.138-.1.789-.278 1.565-.532 2.32a5.656 5.656 0 0 1-.81 1.651 1.34 1.34 0 0 1-.498.453c-.38.167-.547.058-.593-.308a4.838 4.838 0 0 1 0-1.172c.01-.066.023-.131.034-.204-.056.016-.068.057-.068.086a4.14 4.14 0 0 0-.226 1.659.93.93 0 0 0 .708.844c.4.101.821.058 1.19-.123.299-.137.558-.347.754-.61-.044.12-.102.234-.172.341-.37.539-.86.984-1.432 1.301-.647.396-1.326.772-2.005 1.132-.923.49-1.858.961-2.817 1.38a.238.238 0 0 1-.226 0c-1.526-.751-3.04-1.527-4.512-2.374a5.355 5.355 0 0 1-1.358-1.036 2.69 2.69 0 0 1-.419-.609h.027l.032.032c.323.368.78.59 1.27.615.678.043 1.206-.278 1.224-1.07a4.388 4.388 0 0 0-.227-1.457c-.009-.032-.006-.086-.065-.086a.486.486 0 0 0 0 .056c.056.299.075.603.056.906.007.194-.02.388-.076.574a.244.244 0 0 1-.286.19.8.8 0 0 1-.522-.25 3.253 3.253 0 0 1-.713-1.069 11.314 11.314 0 0 1-.876-3.2c-.013-.092-.036-.126-.138-.13-.102-.005-.204-.026-.305-.026a.199.199 0 0 1-.204-.13 1.677 1.677 0 0 0-.113-.198.195.195 0 0 0-.018.154c0 .487-.018.973 0 1.46zm7.616-2.926a.226.226 0 0 0 .093-.127c.267-.554.58-1.084.94-1.584a4.649 4.649 0 0 1 1.43-1.357 2.37 2.37 0 0 1 1.253-.329 2.136 2.136 0 0 1 1.435.65c.393.388.727.832.988 1.319l.204.357c.014-.027.002-.033.002-.033a.148.148 0 0 0-.011-.046 5.53 5.53 0 0 0-1.62-2.183 2.263 2.263 0 0 0-1.736-.507 3.226 3.226 0 0 0-1.934.98 6.525 6.525 0 0 0-1.132 1.67.539.539 0 0 0-.063.432c.06.243.075.513.151.758zM6.017 3.943c.178-.238.382-.456.607-.65.744-.624 1.556-.685 2.414-.274.609.322 1.13.788 1.516 1.358.39.535.73 1.105 1.016 1.702.014.027.032.074.063.068.032-.007.032-.05.032-.08.048-.264.095-.531.145-.796a.246.246 0 0 0-.02-.165A6.944 6.944 0 0 0 10.774 3.5a3.408 3.408 0 0 0-1.652-1.09 2.374 2.374 0 0 0-2.288.477c-.458.39-.847.854-1.154 1.371a5.15 5.15 0 0 0-.416.829.269.269 0 0 0 .113-.134c.188-.352.402-.69.64-1.011zm-1.156 3.38a.113.113 0 0 0 .115-.093.654.654 0 0 0 0-.115V5.187H5v-2.91c0-.087.01-.175.03-.26a.315.315 0 0 1 .278-.265c.081-.011.165-.027.249-.027.579-.034 1.16-.063 1.74-.1 1.07-.067 2.14-.11 3.213-.126a64.092 64.092 0 0 1 3.09.018c.41.014.822.025 1.232.04.982.04 1.962.078 2.941.125.312.001.622.03.928.088.222.05.29.134.31.36.036.426.036.851.036 1.276v3.732a.563.563 0 0 0 0 .124.115.115 0 0 0 .118.088c.05-.004.03-.06.03-.097.013-.097.013-.197.013-.294.009-1.6.016-3.184-.038-4.768a.527.527 0 0 0-.514-.595 13.804 13.804 0 0 0-1.466-.108 145.32 145.32 0 0 0-4.43-.156 69.116 69.116 0 0 0-3.14.02c-.409.013-.819.027-1.23.047l-2.014.109c-.322.02-.668.04-1 .07a.493.493 0 0 0-.52.453 1.334 1.334 0 0 0-.028.248c-.018.496-.018.99-.018 1.485v1.81c.002.552-.016 1.104.018 1.654.002.034-.016.095.034.095z"/></svg>