<svg role="img" viewBox="0 0 24 24" xmlns="http://www.w3.org/2000/svg"><title>Ram Trucks icon</title><path d="M11.998.004h2.266a195.8 195.8 0 0 1 3.158.092c.954.036 1.906.086 2.858.149.61.027 1.217.095 1.817.202.127.027.253.063.375.107.31.105.544.36.625.675.077.28.114.57.11.86v4.68c0 1.015-.027 2.03-.057 3.043-.027.949-.062 1.898-.119 2.843s-.107 1.865-.232 2.793a5.871 5.871 0 0 1-1.246 3.051 7.948 7.948 0 0 1-2.112 1.728 70.636 70.636 0 0 1-5.93 3.15c-.347.163-.698.327-1.037.505a.981.981 0 0 1-.934 0A76.627 76.627 0 0 1 8.964 22.6c-1.528-.788-3.054-1.579-4.529-2.465a7.225 7.225 0 0 1-2.242-1.99 5.907 5.907 0 0 1-.949-2.486c-.113-.702-.164-1.41-.208-2.117-.054-.88-.1-1.763-.14-2.647-.024-.479-.03-.958-.042-1.44a232.227 232.227 0 0 1-.056-7.194c-.005-.31.023-.62.083-.925.07-.405.371-.732.77-.832A5.918 5.918 0 0 1 2.747.325C3.936.206 5.155.153 6.362.105 7.287.07 8.212.043 9.134.016c.922-.027 1.91-.012 2.864-.012zm0 .595c-1.059 0-2.12 0-3.18.027-.758.02-1.516.05-2.274.08-1.19.045-2.356.104-3.53.193a5.145 5.145 0 0 0-1.023.149.71.71 0 0 0-.557.562 2.792 2.792 0 0 0-.056.52c0 .693 0 1.39-.024 2.082-.018 1.669-.033 3.337.027 5.008 0 .298 0 .595.03.913.062 1.136.116 2.275.202 3.411.056.711.095 1.425.217 2.13a5.19 5.19 0 0 0 .853 2.17 6.865 6.865 0 0 0 2.217 1.92c1.487.892 3.042 1.69 4.592 2.48.761.39 1.517.785 2.296 1.14a.482.482 0 0 0 .419 0c.467-.227.94-.44 1.41-.667a70.732 70.732 0 0 0 4.597-2.436 15.057 15.057 0 0 0 2.052-1.32 5.08 5.08 0 0 0 1.83-2.897c.156-.804.256-1.62.297-2.438.056-.726.086-1.455.133-2.183.084-1.252.122-2.504.137-3.76 0-1.108.018-2.218 0-3.327-.02-.714 0-1.43-.018-2.144a3.79 3.79 0 0 0-.032-.45.8.8 0 0 0-.657-.722 4.45 4.45 0 0 0-.916-.146 128.57 128.57 0 0 0-3.022-.178 173.42 173.42 0 0 0-3.67-.122C13.557.575 12.774.6 11.995.6h.003zM9.054 13.583c.121.333.232.628.342.922.03.058.08.103.142.125.298.17.595.339.892.503a.296.296 0 0 1 .179.252c.122.83.25 1.66.378 2.49.006.134-.006.27-.036.401-.027.196-.06.396-.095.595a.122.122 0 0 0 .082.151h.001c.297.125.595.256.91.384.06.028.128.028.187 0 .322-.125.643-.253.964-.372a.125.125 0 0 0 .095-.17c-.048-.27-.09-.54-.125-.814a1.891 1.891 0 0 1 .063-.53c.107-.713.22-1.421.324-2.135a.298.298 0 0 1 .178-.253c.298-.163.595-.336.892-.5a.35.35 0 0 0 .17-.199c.098-.27.2-.54.312-.844-.217.039-.407.083-.595.11a.485.485 0 0 0-.342.211c-.119.172-.255.333-.386.5-.021.023-.039.068-.077.056s-.024-.06-.021-.092c.071-.479.142-.958.208-1.437a.217.217 0 0 1 .17-.199c.327-.11.648-.232.975-.342a.193.193 0 0 0 .149-.163c.059-.353.121-.707.187-1.062a.152.152 0 0 0-.063-.164c-.121-.071-.234-.151-.356-.223a.122.122 0 0 1-.063-.16 8.902 8.902 0 0 1 1.555-3.072 3.334 3.334 0 0 1 1.687-1.145c1.19-.322 2.126.107 2.7 1.222a3.7 3.7 0 0 1 .401 1.784c0 .12-.047.17-.166.182l-.848.095c-.116 0-.17.056-.193.181-.2 1.14-.366 2.287-.651 3.411a5.208 5.208 0 0 1-.452 1.252.934.934 0 0 1-.37.405c-.216.11-.37.05-.433-.188a2.34 2.34 0 0 1 0-1.026c.1-.594.276-1.153.36-1.745a5.724 5.724 0 0 0 .041-1.642 1.216 1.216 0 0 0-.256-.615.684.684 0 0 0-1.094.127.273.273 0 0 0 0 .161c.053.386.066.777.039 1.166-.037.511-.3.98-.717 1.279-.19.133-.357.297-.532.44a.371.371 0 0 0-.11.19c-.23.91-.464 1.82-.69 2.73a5.014 5.014 0 0 1-.595 1.21c-.087.18-.187.353-.298.518-.255.345-.261.755-.333 1.15-.071.396-.125.72-.178 1.08a.85.85 0 0 1-.71.75 3.664 3.664 0 0 1-1.723 0 .85.85 0 0 1-.68-.75 76.137 76.137 0 0 0-.298-1.745.673.673 0 0 0-.084-.223c-.258-.45-.514-.893-.773-1.353a2.532 2.532 0 0 1-.267-.664c-.22-.892-.447-1.784-.67-2.676a.476.476 0 0 0-.169-.27 20.73 20.73 0 0 0-.544-.447 1.696 1.696 0 0 1-.655-1.22 4.5 4.5 0 0 1 .027-1.076.493.493 0 0 0-.333-.559.675.675 0 0 0-.892.37c-.1.218-.155.455-.16.695a8.92 8.92 0 0 0 .32 2.549c.12.413.174.843.161 1.273a1.15 1.15 0 0 1-.053.324.265.265 0 0 1-.42.178.892.892 0 0 1-.38-.41 5.8 5.8 0 0 1-.509-1.487c-.25-1.05-.413-2.117-.594-3.18a.184.184 0 0 0-.188-.18h-.003l-.85-.096c-.096 0-.16-.039-.16-.152a3.494 3.494 0 0 1 .787-2.394 2.037 2.037 0 0 1 2.12-.684 3.43 3.43 0 0 1 2.02 1.365 8.783 8.783 0 0 1 1.326 2.641c.122.354.12.357-.208.56-.226.14-.226.14-.181.398.044.259.107.595.151.892a.226.226 0 0 0 .17.2c.327.107.651.228.975.341.08.017.14.083.15.164.07.494.145.987.216 1.487 0 .027.018.066-.02.077-.04.012-.051-.023-.069-.047a47.798 47.798 0 0 1-.443-.565.336.336 0 0 0-.223-.137c-.211-.039-.426-.09-.672-.14zm-.92-1.54c-.026-.247-.059-.527-.091-.803a.298.298 0 0 0-.057-.152l-.532-.702c-.018-.024-.036-.06-.069-.045-.032.015-.03.04-.032.063-.064.282-.094.57-.09.86a.857.857 0 0 0 .595.826c.06.024.12.048.179.078.095.053.118.003.098-.125zm8.45-1.752c-.19.247-.348.464-.52.672a.651.651 0 0 0-.158.375c-.021.193-.051.386-.066.595-.027.297-.027.297.262.18a.836.836 0 0 0 .595-.698 3.274 3.274 0 0 0-.113-1.124zM2.327 9.818c.055.083.105.17.148.259.04.111.15.182.268.172.134 0 .268.027.401.033s.164.05.182.172a14.87 14.87 0 0 0 1.15 4.206c.217.525.535 1.002.938 1.403.18.192.424.31.687.33a.321.321 0 0 0 .374-.25c.075-.244.11-.5.101-.755a4.87 4.87 0 0 0-.074-1.19.614.614 0 0 1 0-.074c.077 0 .074.072.086.113a5.77 5.77 0 0 1 .298 1.915c-.024 1.041-.717 1.464-1.61 1.407a2.38 2.38 0 0 1-1.668-.809l-.041-.041H3.53c.146.29.33.56.55.8a7.036 7.036 0 0 0 1.785 1.362c1.936 1.112 3.925 2.132 5.93 3.12.092.05.204.05.297 0 1.26-.55 2.49-1.17 3.703-1.815a49.266 49.266 0 0 0 2.634-1.487 5.55 5.55 0 0 0 1.883-1.71c.092-.14.168-.29.226-.449a2.593 2.593 0 0 1-.99.803 2.278 2.278 0 0 1-1.565.16 1.222 1.222 0 0 1-.93-1.108c-.05-.74.05-1.481.297-2.18 0-.039.015-.092.09-.113-.016.095-.034.181-.046.267a6.352 6.352 0 0 0 0 1.54c.06.483.28.625.78.405.265-.139.49-.343.654-.594a7.461 7.461 0 0 0 1.065-2.171c.333-.99.567-2.012.699-3.049 0-.119.06-.178.187-.181s.297-.048.431-.042a.297.297 0 0 0 .298-.21c.02-.045.035-.105.092-.129.038.036.02.078.02.116v1.38a15.166 15.166 0 0 1-.457 3.676c-.077.413-.176.82-.298 1.222a4.461 4.461 0 0 1-1.552 2.014c-.622.445-1.273.849-1.948 1.207a58.42 58.42 0 0 1-3.825 2.005c-.481.232-.972.443-1.46.669a.298.298 0 0 1-.268 0 123.71 123.71 0 0 1-4.005-2.046 48.26 48.26 0 0 1-2.267-1.264 6.219 6.219 0 0 1-1.784-1.487 4.198 4.198 0 0 1-.74-1.529c-.155-.568-.345-1.127-.458-1.707-.145-.74-.23-1.491-.256-2.245-.024-.64 0-1.28 0-1.918a.256.256 0 0 1 .024-.203zm18.322-3.131l-.268-.47a7.267 7.267 0 0 0-1.3-1.734 2.808 2.808 0 0 0-1.885-.854 3.114 3.114 0 0 0-1.647.431 6.108 6.108 0 0 0-1.88 1.785 13.903 13.903 0 0 0-1.234 2.082.297.297 0 0 1-.122.166 4.296 4.296 0 0 1-.119-.568c-.033-.143-.036-.297-.08-.428a.708.708 0 0 1 .083-.568 8.573 8.573 0 0 1 1.487-2.195 4.238 4.238 0 0 1 2.543-1.288 2.974 2.974 0 0 1 2.28.667 7.269 7.269 0 0 1 2.13 2.87.194.194 0 0 1 .015.059s.015.009-.003.044zm-17.51 0c.149-.379.332-.743.547-1.089a7.17 7.17 0 0 1 1.516-1.802 3.12 3.12 0 0 1 3.007-.628c.85.253 1.605.752 2.171 1.434.54.638.989 1.348 1.335 2.108a.324.324 0 0 1 .027.217c-.065.348-.128.7-.19 1.047 0 .039 0 .095-.042.104-.041.01-.065-.053-.083-.089a14.152 14.152 0 0 0-1.335-2.236 5.526 5.526 0 0 0-1.993-1.785c-1.127-.54-2.195-.46-3.173.36a5.41 5.41 0 0 0-.797.854c-.313.421-.594.866-.842 1.33a.354.354 0 0 1-.148.175zm-.378.13v2.534a.854.854 0 0 1 0 .152.149.149 0 0 1-.152.122c-.065 0-.041-.08-.044-.125-.045-.723-.021-1.448-.024-2.174v-2.38c0-.65 0-1.299.024-1.95.001-.11.013-.22.035-.327a.648.648 0 0 1 .684-.595c.437-.039.892-.065 1.315-.092l2.646-.143a90.877 90.877 0 0 1 5.743-.09 190.707 190.707 0 0 1 5.823.206c.644.013 1.288.061 1.927.143a.693.693 0 0 1 .675.782c.072 2.082.063 4.163.05 6.266 0 .128 0 .259-.017.387 0 .047.027.122-.039.128a.152.152 0 0 1-.154-.116.746.746 0 0 1 0-.164V4.477c0-.56 0-1.118-.048-1.677-.027-.298-.116-.408-.407-.473a6.723 6.723 0 0 0-1.22-.116 415.372 415.372 0 0 0-3.866-.164c-.538-.02-1.08-.036-1.617-.053a84.13 84.13 0 0 0-4.063-.024c-1.41.022-2.817.077-4.223.166-.761.048-1.526.087-2.287.131-.11 0-.22.021-.327.036a.413.413 0 0 0-.366.348 1.653 1.653 0 0 0-.039.342v3.825h-.03z"/></svg>