<svg viewBox="0 0 16 16" xmlns="http://www.w3.org/2000/svg" fill-rule="evenodd" clip-rule="evenodd" stroke-linejoin="round" stroke-miterlimit="1.414"><path d="M10.763 11.503c-.572.66-.89 1.862-.473 2.25.398.3 1.47.26 2.26-.822.574-.725.38-1.937.053-2.258-.487-.372-1.186.103-1.84.83zm-5.377.2c-.606-.694-1.394-1.107-1.903-.8-.34.254-.404 1.124.082 1.98.72 1.018 1.733 1.12 2.15.872.44-.325.2-1.426-.33-2.053zm2.74 2.1c-.736-.018-1.867.292-1.853.688-.012.27.888 1.05 1.805 1.01.886.016 1.802-.762 1.79-1.106-.003-.355-1-.622-1.74-.59zm-.05-9.307c-.852-.022-1.67.622-1.67.996-.003.454.672.918 1.675.93 1.025.007 1.68-.372 1.682-.84.004-.53-.93-1.094-1.687-1.086zm-2.05.355c-1.425-.236-2.612.6-2.564 2.122.047.584 3.09-2.034 2.565-2.12zm6.506 2.166c.048-1.523-1.14-2.357-2.565-2.12-.525.087 2.518 2.704 2.565 2.12zm.243.55c-.827-.218-.28 3.367.393 3.073.74-.587.978-2.303-.393-3.074zm-9.943 3.118c.672.294 1.22-3.292.393-3.073-1.37.772-1.133 2.488-.393 3.074zm6.284-3.97c-.765.494-.903 1.613-.308 2.5s1.698 1.206 2.464.712c.765-.494.903-1.613.308-2.5S9.882 6.22 9.116 6.714zm-2.066.09c-.765-.495-1.868-.176-2.463.71-.595.888-.457 2.008.308 2.502.765.494 1.868.175 2.464-.712.594-.887.456-2.007-.31-2.5zm2.916 4.774c-.005-.926-.836-1.674-1.856-1.67-1.02.006-1.843.76-1.838 1.688v.018c.006.926.837 1.673 1.857 1.668 1.02-.004 1.842-.76 1.836-1.686v-.018zm2.142-10.093c-1.54.783-2.438 1.416-2.93 1.956.252.994 1.565 1.04 2.044 1.01-.098-.044-.18-.098-.21-.18.12-.085.548-.01.846-.174-.114-.024-.168-.047-.22-.13.28-.088.584-.165.762-.31-.096 0-.186.02-.312-.066.252-.134.52-.24.73-.444-.13-.003-.27-.002-.31-.05.23-.14.424-.296.585-.468-.182.022-.26.003-.303-.028.174-.176.395-.325.5-.54-.135.045-.26.062-.348-.005.06-.132.313-.21.46-.518-.143.014-.295.03-.325 0 .066-.266.18-.415.29-.57-.304-.004-.766 0-.745-.024l.188-.19c-.298-.08-.603.013-.824.08-.1-.076 0-.174.123-.274-.255.032-.484.09-.69.17-.11-.1.07-.198.16-.296-.392.073-.558.176-.723.28-.12-.114-.007-.21.074-.308-.294.107-.446.246-.606.383-.055-.073-.138-.126-.037-.3-.21.12-.368.26-.484.417-.13-.082-.078-.193-.078-.295-.218.174-.356.36-.526.54-.035-.023-.064-.106-.09-.237-.52.496-1.255 1.747-.19 2.243.906-.737 1.99-1.272 3.19-1.673h-.002zm-8.182 0c1.2.4 2.282.937 3.188 1.673 1.065-.496.33-1.747-.188-2.243-.027.13-.057.214-.09.238-.17-.18-.308-.367-.526-.54 0 .1.052.212-.078.294C6.115.75 5.958.61 5.748.49c.1.175.017.227-.037.3C5.55.652 5.4.513 5.105.406c.08.098.193.194.074.307-.165-.103-.33-.206-.723-.28.09.1.27.198.16.296C4.41.65 4.18.592 3.925.56c.123.1.224.197.124.274-.222-.068-.527-.16-.825-.08l.188.19c.02.025-.44.02-.747.023.112.155.225.305.292.57-.03.03-.182.014-.325 0 .147.308.4.386.46.518-.09.067-.213.05-.35.004.107.215.327.364.502.54-.044.03-.12.05-.304.028.162.172.357.328.588.47-.04.046-.18.045-.312.048.21.204.478.31.73.444-.125.086-.215.066-.31.065.177.146.48.223.762.31-.054.084-.107.107-.222.13.298.165.725.09.846.174-.03.082-.11.136-.21.18.48.03 1.792-.016 2.044-1.01-.49-.54-1.388-1.172-2.93-1.955zM5.083 0c.157-.005.29.09.435.134.353-.113.434.042.608.106.385-.08.502.094.687.28l.215-.006c.58.338.87 1.025.972 1.378.102-.353.39-1.04.972-1.378l.215.005c.185-.186.302-.36.687-.28.174-.064.254-.22.608-.106.22-.068.414-.25.705-.023.246-.093.485-.125.698.065.33-.042.436.045.517.146.072 0 .54-.072.755.243.54-.063.71.313.517.663.11.168.225.334-.033.655.092.18.036.373-.18.607.057.25-.054.428-.254.566.037.343-.32.543-.426.614-.04.2-.126.39-.534.493-.067.298-.313.35-.55.412.784.45 1.457 1.04 1.453 2.49l.114.202c.9.54 1.708 2.27.443 3.678-.083.44-.22.757-.345 1.107-.184 1.41-1.39 2.07-1.707 2.15-.466.35-.962.68-1.633.913-.632.642-1.318.887-2.007.887h-.03c-.69 0-1.375-.245-2.007-.887-.672-.233-1.167-.564-1.633-.913-.318-.08-1.523-.74-1.707-2.15-.124-.35-.262-.667-.345-1.108-1.265-1.407-.456-3.14.443-3.678l.115-.202c-.003-1.45.67-2.04 1.454-2.49-.238-.062-.483-.114-.55-.412-.408-.104-.493-.293-.534-.493-.107-.07-.464-.27-.426-.614-.2-.138-.312-.315-.255-.566-.216-.234-.272-.428-.18-.606-.26-.32-.145-.486-.034-.654-.194-.35-.023-.726.517-.663.214-.315.683-.244.755-.242.08-.1.188-.187.517-.145.213-.19.45-.158.697-.064.1-.077.19-.107.27-.11z" fill-rule="nonzero"/></svg>