<svg xmlns="http://www.w3.org/2000/svg" xmlns:xlink="http://www.w3.org/1999/xlink" width="500" zoomAndPan="magnify" viewBox="0 0 375 374.999991" height="500" preserveAspectRatio="xMidYMid meet" version="1.0"><defs><g/></defs><rect x="-37.5" width="450" fill="#ffffff" y="-37.499999" height="449.999989" fill-opacity="1"/><rect x="-37.5" width="450" fill="#000000" y="-37.499999" height="449.999989" fill-opacity="1"/><g fill="#ffffff" fill-opacity="1"><g transform="translate(46.617367, 208.992916)"><g><path d="M 26.40625 0 C 25.96875 0 25.660156 -0.195312 25.484375 -0.59375 L 17.96875 -16.71875 C 17.894531 -16.863281 17.785156 -16.9375 17.640625 -16.9375 L 9.96875 -16.9375 C 9.78125 -16.9375 9.6875 -16.84375 9.6875 -16.65625 L 9.6875 -0.8125 C 9.6875 -0.5625 9.613281 -0.363281 9.46875 -0.21875 C 9.320312 -0.0703125 9.125 0 8.875 0 L 5.28125 0 C 5.03125 0 4.832031 -0.0703125 4.6875 -0.21875 C 4.539062 -0.363281 4.46875 -0.5625 4.46875 -0.8125 L 4.46875 -37.359375 C 4.46875 -37.609375 4.539062 -37.804688 4.6875 -37.953125 C 4.832031 -38.097656 5.03125 -38.171875 5.28125 -38.171875 L 19.65625 -38.171875 C 21.832031 -38.171875 23.742188 -37.71875 25.390625 -36.8125 C 27.046875 -35.90625 28.328125 -34.632812 29.234375 -33 C 30.148438 -31.363281 30.609375 -29.472656 30.609375 -27.328125 C 30.609375 -24.828125 29.9375 -22.695312 28.59375 -20.9375 C 27.25 -19.175781 25.429688 -17.988281 23.140625 -17.375 C 22.992188 -17.300781 22.941406 -17.191406 22.984375 -17.046875 L 30.71875 -0.984375 L 30.828125 -0.546875 C 30.828125 -0.179688 30.585938 0 30.109375 0 Z M 9.96875 -33.65625 C 9.78125 -33.65625 9.6875 -33.5625 9.6875 -33.375 L 9.6875 -21.296875 C 9.6875 -21.109375 9.78125 -21.015625 9.96875 -21.015625 L 19 -21.015625 C 20.882812 -21.015625 22.414062 -21.59375 23.59375 -22.75 C 24.78125 -23.914062 25.375 -25.425781 25.375 -27.28125 C 25.375 -29.207031 24.789062 -30.75 23.625 -31.90625 C 22.46875 -33.070312 20.925781 -33.65625 19 -33.65625 Z M 9.96875 -33.65625 "/></g></g></g><g fill="#ffffff" fill-opacity="1"><g transform="translate(84.176913, 208.992916)"><g><path d="M 27.828125 0 C 27.359375 0 27.050781 -0.21875 26.90625 -0.65625 L 25 -6.75 C 24.925781 -6.894531 24.832031 -6.96875 24.71875 -6.96875 L 9.53125 -6.96875 C 9.414062 -6.96875 9.320312 -6.894531 9.25 -6.75 L 7.34375 -0.65625 C 7.207031 -0.21875 6.898438 0 6.421875 0 L 2.5625 0 C 1.945312 0 1.726562 -0.304688 1.90625 -0.921875 L 13.671875 -37.46875 C 13.816406 -37.90625 14.125 -38.125 14.59375 -38.125 L 19.609375 -38.125 C 20.078125 -38.125 20.382812 -37.90625 20.53125 -37.46875 L 32.40625 -0.921875 C 32.4375 -0.847656 32.453125 -0.738281 32.453125 -0.59375 C 32.453125 -0.195312 32.21875 0 31.75 0 Z M 10.671875 -11.4375 C 10.640625 -11.21875 10.710938 -11.109375 10.890625 -11.109375 L 23.359375 -11.109375 C 23.578125 -11.109375 23.648438 -11.21875 23.578125 -11.4375 L 17.265625 -31.75 C 17.222656 -31.894531 17.164062 -31.96875 17.09375 -31.96875 C 17.019531 -31.96875 16.96875 -31.894531 16.9375 -31.75 Z M 10.671875 -11.4375 "/></g></g></g><g fill="#ffffff" fill-opacity="1"><g transform="translate(122.66181, 208.992916)"><g><path d="M 14.328125 0 C 13.847656 0 13.535156 -0.21875 13.390625 -0.65625 L 1.84375 -37.1875 C 1.8125 -37.257812 1.796875 -37.367188 1.796875 -37.515625 C 1.796875 -37.921875 2.050781 -38.125 2.5625 -38.125 L 6.421875 -38.125 C 6.640625 -38.125 6.835938 -38.054688 7.015625 -37.921875 C 7.203125 -37.796875 7.3125 -37.625 7.34375 -37.40625 L 16.28125 -7.734375 C 16.320312 -7.585938 16.375 -7.515625 16.4375 -7.515625 C 16.507812 -7.515625 16.566406 -7.585938 16.609375 -7.734375 L 25.484375 -37.40625 C 25.515625 -37.625 25.617188 -37.796875 25.796875 -37.921875 C 25.984375 -38.054688 26.1875 -38.125 26.40625 -38.125 L 30.171875 -38.125 C 30.816406 -38.125 31.050781 -37.8125 30.875 -37.1875 L 19.21875 -0.65625 C 19.070312 -0.21875 18.765625 0 18.296875 0 Z M 14.328125 0 "/></g></g></g><g fill="#ffffff" fill-opacity="1"><g transform="translate(159.568164, 208.992916)"><g><path d="M 5.28125 0 C 5.03125 0 4.832031 -0.0703125 4.6875 -0.21875 C 4.539062 -0.363281 4.46875 -0.5625 4.46875 -0.8125 L 4.46875 -37.296875 C 4.46875 -37.554688 4.539062 -37.757812 4.6875 -37.90625 C 4.832031 -38.050781 5.03125 -38.125 5.28125 -38.125 L 8.875 -38.125 C 9.125 -38.125 9.320312 -38.050781 9.46875 -37.90625 C 9.613281 -37.757812 9.6875 -37.554688 9.6875 -37.296875 L 9.6875 -0.8125 C 9.6875 -0.5625 9.613281 -0.363281 9.46875 -0.21875 C 9.320312 -0.0703125 9.125 0 8.875 0 Z M 5.28125 0 "/></g></g></g><g fill="#ffffff" fill-opacity="1"><g transform="translate(177.912983, 208.992916)"><g><path d="M 5.28125 0 C 5.03125 0 4.832031 -0.0703125 4.6875 -0.21875 C 4.539062 -0.363281 4.46875 -0.5625 4.46875 -0.8125 L 4.46875 -37.296875 C 4.46875 -37.554688 4.539062 -37.757812 4.6875 -37.90625 C 4.832031 -38.050781 5.03125 -38.125 5.28125 -38.125 L 8.765625 -38.125 C 9.203125 -38.125 9.53125 -37.941406 9.75 -37.578125 L 26.40625 -10.625 C 26.476562 -10.507812 26.550781 -10.460938 26.625 -10.484375 C 26.695312 -10.503906 26.734375 -10.585938 26.734375 -10.734375 L 26.734375 -37.296875 C 26.734375 -37.554688 26.804688 -37.757812 26.953125 -37.90625 C 27.097656 -38.050781 27.296875 -38.125 27.546875 -38.125 L 31.140625 -38.125 C 31.398438 -38.125 31.601562 -38.050781 31.75 -37.90625 C 31.894531 -37.757812 31.96875 -37.554688 31.96875 -37.296875 L 31.96875 -0.8125 C 31.96875 -0.5625 31.894531 -0.363281 31.75 -0.21875 C 31.601562 -0.0703125 31.398438 0 31.140625 0 L 27.609375 0 C 27.171875 0 26.84375 -0.179688 26.625 -0.546875 L 9.96875 -27.65625 C 9.894531 -27.769531 9.820312 -27.816406 9.75 -27.796875 C 9.675781 -27.773438 9.640625 -27.691406 9.640625 -27.546875 L 9.6875 -0.8125 C 9.6875 -0.5625 9.613281 -0.363281 9.46875 -0.21875 C 9.320312 -0.0703125 9.125 0 8.875 0 Z M 5.28125 0 "/></g></g></g><g fill="#ffffff" fill-opacity="1"><g transform="translate(218.466321, 208.992916)"><g><path d="M 27.828125 0 C 27.359375 0 27.050781 -0.21875 26.90625 -0.65625 L 25 -6.75 C 24.925781 -6.894531 24.832031 -6.96875 24.71875 -6.96875 L 9.53125 -6.96875 C 9.414062 -6.96875 9.320312 -6.894531 9.25 -6.75 L 7.34375 -0.65625 C 7.207031 -0.21875 6.898438 0 6.421875 0 L 2.5625 0 C 1.945312 0 1.726562 -0.304688 1.90625 -0.921875 L 13.671875 -37.46875 C 13.816406 -37.90625 14.125 -38.125 14.59375 -38.125 L 19.609375 -38.125 C 20.078125 -38.125 20.382812 -37.90625 20.53125 -37.46875 L 32.40625 -0.921875 C 32.4375 -0.847656 32.453125 -0.738281 32.453125 -0.59375 C 32.453125 -0.195312 32.21875 0 31.75 0 Z M 10.671875 -11.4375 C 10.640625 -11.21875 10.710938 -11.109375 10.890625 -11.109375 L 23.359375 -11.109375 C 23.578125 -11.109375 23.648438 -11.21875 23.578125 -11.4375 L 17.265625 -31.75 C 17.222656 -31.894531 17.164062 -31.96875 17.09375 -31.96875 C 17.019531 -31.96875 16.96875 -31.894531 16.9375 -31.75 Z M 10.671875 -11.4375 "/></g></g></g><g fill="#ffffff" fill-opacity="1"><g transform="translate(256.951219, 208.992916)"><g><path d="M 26.40625 0 C 25.96875 0 25.660156 -0.195312 25.484375 -0.59375 L 17.96875 -16.71875 C 17.894531 -16.863281 17.785156 -16.9375 17.640625 -16.9375 L 9.96875 -16.9375 C 9.78125 -16.9375 9.6875 -16.84375 9.6875 -16.65625 L 9.6875 -0.8125 C 9.6875 -0.5625 9.613281 -0.363281 9.46875 -0.21875 C 9.320312 -0.0703125 9.125 0 8.875 0 L 5.28125 0 C 5.03125 0 4.832031 -0.0703125 4.6875 -0.21875 C 4.539062 -0.363281 4.46875 -0.5625 4.46875 -0.8125 L 4.46875 -37.359375 C 4.46875 -37.609375 4.539062 -37.804688 4.6875 -37.953125 C 4.832031 -38.097656 5.03125 -38.171875 5.28125 -38.171875 L 19.65625 -38.171875 C 21.832031 -38.171875 23.742188 -37.71875 25.390625 -36.8125 C 27.046875 -35.90625 28.328125 -34.632812 29.234375 -33 C 30.148438 -31.363281 30.609375 -29.472656 30.609375 -27.328125 C 30.609375 -24.828125 29.9375 -22.695312 28.59375 -20.9375 C 27.25 -19.175781 25.429688 -17.988281 23.140625 -17.375 C 22.992188 -17.300781 22.941406 -17.191406 22.984375 -17.046875 L 30.71875 -0.984375 L 30.828125 -0.546875 C 30.828125 -0.179688 30.585938 0 30.109375 0 Z M 9.96875 -33.65625 C 9.78125 -33.65625 9.6875 -33.5625 9.6875 -33.375 L 9.6875 -21.296875 C 9.6875 -21.109375 9.78125 -21.015625 9.96875 -21.015625 L 19 -21.015625 C 20.882812 -21.015625 22.414062 -21.59375 23.59375 -22.75 C 24.78125 -23.914062 25.375 -25.425781 25.375 -27.28125 C 25.375 -29.207031 24.789062 -30.75 23.625 -31.90625 C 22.46875 -33.070312 20.925781 -33.65625 19 -33.65625 Z M 9.96875 -33.65625 "/></g></g></g><g fill="#ffffff" fill-opacity="1"><g transform="translate(294.510778, 208.992916)"><g><path d="M 16.875 0.484375 C 14.226562 0.484375 11.890625 -0.0546875 9.859375 -1.140625 C 7.828125 -2.234375 6.25 -3.769531 5.125 -5.75 C 4 -7.726562 3.4375 -10.003906 3.4375 -12.578125 L 3.4375 -25.53125 C 3.4375 -28.113281 4 -30.382812 5.125 -32.34375 C 6.25 -34.300781 7.828125 -35.820312 9.859375 -36.90625 C 11.890625 -38 14.226562 -38.546875 16.875 -38.546875 C 19.5625 -38.546875 21.921875 -38 23.953125 -36.90625 C 25.992188 -35.820312 27.578125 -34.300781 28.703125 -32.34375 C 29.828125 -30.382812 30.390625 -28.113281 30.390625 -25.53125 L 30.390625 -12.578125 C 30.390625 -10.003906 29.828125 -7.726562 28.703125 -5.75 C 27.578125 -3.769531 25.992188 -2.234375 23.953125 -1.140625 C 21.921875 -0.0546875 19.5625 0.484375 16.875 0.484375 Z M 16.875 -4.03125 C 19.34375 -4.03125 21.335938 -4.789062 22.859375 -6.3125 C 24.390625 -7.84375 25.15625 -9.859375 25.15625 -12.359375 L 25.15625 -25.59375 C 25.15625 -28.132812 24.390625 -30.175781 22.859375 -31.71875 C 21.335938 -33.257812 19.34375 -34.03125 16.875 -34.03125 C 14.40625 -34.03125 12.414062 -33.257812 10.90625 -31.71875 C 9.40625 -30.175781 8.65625 -28.132812 8.65625 -25.59375 L 8.65625 -12.359375 C 8.65625 -9.859375 9.40625 -7.84375 10.90625 -6.3125 C 12.414062 -4.789062 14.40625 -4.03125 16.875 -4.03125 Z M 16.875 -4.03125 "/></g></g></g></svg>