<svg aria-labelledby="simpleicons-rdio-icon" role="img" viewBox="0 0 24 24" xmlns="http://www.w3.org/2000/svg"><title id="simpleicons-rdio-icon">Rdio icon</title><path d="M23.38 6.564c-2.773.081-6.123-2.096-7.421-2.915-.121-.076-.146-.15-.271-.211-.135-.074-.276-.15-.417-.225v8.006h-.001c.004.72-.307 1.47-.755 2.189l-.03.061c-1.289 2.098-4.018 3.313-6.582 2.443-2.488-.84-3.148-3.254-1.829-5.382l.044-.028c1.274-2.085 4.003-3.313 6.566-2.444.195.064.378.145.555.23V2.495c-.92-.247-1.889-.39-2.916-.39C4.4 2.105 0 6.539 0 12v.07c0 5.462 4.363 9.824 10.25 9.824 5.923 0 10.321-4.432 10.321-9.894v-.07c0-.426-.029-.844-.074-1.254 3.088-.805 4.363-3.998 2.895-4.112"/></svg>