<svg role="img" viewBox="0 0 24 24" xmlns="http://www.w3.org/2000/svg"><title>React Query</title><path d="M7.262 1.252c-.626 0-1.183.191-1.624.581-.417.37-.692.881-.842 1.509-.253 1.055-.169 2.508.222 4.402.014.068.034.133.06.195-.712.187-1.347.396-1.906.627-1.352.56-2.301 1.265-2.817 2.16-.313.543-.427 1.122-.31 1.699.11.546.415 1.04.882 1.483.784.746 2.08 1.398 3.91 2.004a1.1 1.1 0 0 0 .236.05c-.201.73-.343 1.4-.424 2.015-.193 1.454-.056 2.632.46 3.528.314.544.758.931 1.316 1.119.528.178 1.107.16 1.725-.023 1.039-.308 2.253-1.107 3.696-2.392a1.1 1.1 0 0 0 .195-.229 15.08 15.08 0 0 0 1.491 1.337c1.16.895 2.247 1.366 3.28 1.366.626 0 1.183-.192 1.624-.582.417-.369.692-.88.842-1.508.253-1.055.169-2.508-.222-4.402a1.105 1.105 0 0 0-.072-.225 14.925 14.925 0 0 0 1.844-.61c1.352-.56 2.301-1.266 2.817-2.16.313-.544.427-1.122.31-1.699-.11-.547-.415-1.04-.882-1.484-.784-.745-2.08-1.397-3.91-2.004a1.101 1.101 0 0 0-.215-.048c.19-.7.324-1.345.403-1.938.193-1.454.056-2.632-.46-3.528-.314-.544-.758-.931-1.316-1.119-.528-.178-1.107-.16-1.725.023-1.039.308-2.253 1.107-3.696 2.392a1.105 1.105 0 0 0-.137.147 14.94 14.94 0 0 0-1.475-1.32c-1.16-.895-2.247-1.366-3.28-1.366Zm-.001.993c1.482 0 3.37 1.41 5.662 4.233a.345.345 0 0 1-.271.563 33.3 33.3 0 0 0-2.934.1 35.443 35.443 0 0 0-3.368.44.345.345 0 0 1-.4-.275c-.656-3.374-.22-5.061 1.31-5.061Zm9.542.043c.548-.005.967.242 1.258.742.752 1.29.48 3.635-.817 7.035a.346.346 0 0 1-.623.048 33.681 33.681 0 0 0-1.577-2.508 35.908 35.908 0 0 0-2.09-2.71.345.345 0 0 1 .038-.485c1.627-1.407 2.898-2.114 3.811-2.122Zm-6.37 5.87h2.961c.433 0 .833.232 1.048.607l1.487 2.59c.214.373.214.83 0 1.203l-1.487 2.59a1.209 1.209 0 0 1-1.048.607h-2.96c-.433 0-.833-.231-1.048-.607l-1.487-2.59a1.209 1.209 0 0 1 0-1.203l1.487-2.59a1.209 1.209 0 0 1 1.048-.607Zm-2.687.238a.345.345 0 0 1 .294.52c-.512.87-.973 1.737-1.383 2.599a35.883 35.883 0 0 0-1.31 3.147.345.345 0 0 1-.436.208C1.68 13.762.447 12.543 1.213 11.213c.742-1.288 2.9-2.225 6.473-2.813a.345.345 0 0 1 .06-.004zm3.139.544a1.21 1.21 0 0 0-1.049.608L8.8 11.356a1.21 1.21 0 0 0 0 1.202l1.036 1.808a1.21 1.21 0 0 0 1.049.608h2.058a1.21 1.21 0 0 0 1.049-.608l1.036-1.808a1.21 1.21 0 0 0 0-1.202l-1.036-1.808a1.208 1.208 0 0 0-1.049-.608Zm8.07.042a.344.344 0 0 1 .134.018c3.232 1.108 4.464 2.327 3.698 3.657-.742 1.288-2.9 2.226-6.473 2.813a.345.345 0 0 1-.354-.516c.512-.87.973-1.736 1.383-2.598.465-.977.902-2.026 1.31-3.147a.345.345 0 0 1 .302-.227zm-7.584.813h1.086c.432 0 .832.231 1.048.606l.547.954c.215.373.215.831 0 1.204l-.547.953a1.209 1.209 0 0 1-1.048.607H11.37a1.21 1.21 0 0 1-1.048-.607l-.547-.953a1.209 1.209 0 0 1 0-1.204l.547-.954a1.209 1.209 0 0 1 1.048-.606zm.469.818c-.433 0-.832.231-1.048.606l-.078.135a1.209 1.209 0 0 0 0 1.206l.078.135a1.21 1.21 0 0 0 1.048.605h.148c.433 0 .832-.23 1.048-.605l.078-.135a1.209 1.209 0 0 0 0-1.206l-.078-.135a1.209 1.209 0 0 0-1.048-.606zm.074.806a.538.538 0 1 1 0 1.076.538.538 0 0 1 0-1.076zm-4.81 2.294c.111.009.216.07.275.174.504.882 1.03 1.718 1.577 2.508.62.892 1.316 1.796 2.09 2.71a.345.345 0 0 1-.038.485c-2.604 2.251-4.294 2.711-5.07 1.38-.75-1.29-.478-3.635.818-7.035a.345.345 0 0 1 .349-.222zm10.744 2.658a.345.345 0 0 1 .33.28c.658 3.374.221 5.061-1.31 5.061-1.482 0-3.37-1.41-5.661-4.233a.345.345 0 0 1 .271-.563 33.31 33.31 0 0 0 2.934-.1 35.445 35.445 0 0 0 3.367-.44.344.344 0 0 1 .07-.004z" /></svg>
