<svg role="img" viewBox="0 0 24 24" xmlns="http://www.w3.org/2000/svg"><title>React Navigation</title><path d="M10.8682.0333C9.449.193 7.8372.7429 6.6622 1.4666a21.5863 21.5863 0 0 1-.9069.5216c-.9446.5122-1.6448 1.0245-2.3779 1.734C1.6763 5.367.6565 7.3738.29 9.7845c-.094.6486-.1127 3.534-.0234 4.2765.4041 3.3224 2.4436 6.3347 5.3478 7.8808.2538.1363.6203.3477.813.4746.4605.3008 1.5555.8365 2.0912 1.0198 1.2125.4182 2.1006.5639 3.4728.5639 1.142 0 1.6824-.061 2.5847-.2867 1.0057-.2537 2.1664-.7472 2.9512-1.2547.188-.1222.5545-.3383.8083-.4746 2.1946-1.1655 3.8817-3.0781 4.798-5.4278.2397-.6156.4042-1.203.5499-1.9784.1033-.531.108-.6814.108-2.5142 0-1.3722-.0188-2.0677-.061-2.3496-.094-.611-.3243-1.518-.5358-2.0913-.2303-.6344-.7895-1.7293-1.1654-2.2745-.954-1.3957-2.2322-2.5376-3.736-3.3412a18.681 18.681 0 0 1-.7331-.4276C16.4416.8744 15.107.3669 13.73.1226c-.6344-.1128-2.2134-.1598-2.8619-.0893Zm2.3967.7472.235.0329-.329.0329c-.1786.0188-.517.0564-.752.0846-.2772.0281-.545.0281-.7753 0-.1927-.0235-.5216-.0611-.7284-.08-.423-.0375-.4088-.047.188-.1127.4323-.0423 1.7434-.0188 2.1617.0423zm-3.83 1.0526c-.7848.3948-1.2876.7425-1.9972 1.3722-.2867.2585-.4324.3525-.611.3995-.6814.1833-1.7105.6579-2.3731 1.0996-.2162.1457-.3948.2585-.4042.2491-.0047-.0047.127-.202.3008-.4323.5921-.799 1.6918-1.8422 2.2369-2.1241.733-.376 2.3356-.7848 3.1533-.8083.1785-.0047.1597.0094-.3055.2443zm5.4278-.1785c.7049.094 1.3957.2725 2.0912.545.6438.2491 1.0056.4982 1.7481 1.2078.3666.3525 1.0574 1.1749 1.2219 1.4568.0752.1222.0376.1081-.376-.1692-.5733-.3853-1.4239-.7942-2.1194-1.0197-.5216-.1645-.5498-.1833-.8976-.5076-.4934-.4652-1.1043-.8881-1.8186-1.264-.6626-.3478-.658-.3572.1504-.2491Zm-2.3215.1832c.5968.1504 1.2923.4136 1.814.6861.4276.2209 1.0526.6204 1.1372.7237.0329.0376-.1504.0517-.6908.0611-.86.0047-1.4192.1034-2.2698.39l-.5405.1833-.3007-.1221c-.7425-.296-1.9878-.5076-2.8102-.4747-.2115.0047-.3854 0-.3854-.014 0-.047.8741-.5969 1.2548-.7896.2161-.108.5545-.2584.7519-.3383.3759-.1504 1.3252-.4136 1.499-.4183.0564 0 .3008.0517.5405.1128zM10.1633 4.103c.4746.0752.9634.202.9634.249 0 .0189-.0658.0706-.1457.1176-.2867.1691-.7425.5733-1.4521 1.297l-.7284.7378-.3525.0987c-.1926.0517-.4793.1222-.6344.1504-.5545.108-1.2876.3477-1.9361.6438-.0987.0423-.0705-.1175.1316-.7143.2772-.8271.6767-1.5414 1.2359-2.2134.2303-.2773.2538-.2914.5451-.3478.7096-.1363 1.6119-.141 2.3732-.0188Zm5.9212-.0047.423.0658.2255.249c.4182.4606.9023 1.2642 1.1654 1.9268.1175.3055.3337 1.0339.3055 1.0574-.0094.0094-.1833-.0564-.3853-.1457-.4982-.2162-1.0104-.3713-1.7106-.5216-.8224-.174-.9305-.2303-1.4286-.766-.7378-.7895-1.1749-1.189-1.673-1.518-.0658-.0422-.1034-.094-.0893-.108.0188-.0188.2444-.0846.5029-.1457.7988-.1974 1.7434-.2303 2.6645-.094zm-10.0096.752c-.4653.7236-.8882 1.8186-1.0339 2.6739-.0658.3947-.0846.4323-.249.5592-.094.0799-.4042.376-.6909.6626-.5263.5357-.968 1.1278-1.25 1.673l-.155.3054-.0377-.2115c-.0235-.1174-.0329-.6015-.0188-1.0808.0188-.6861.047-.9822.141-1.4098.188-.8788.282-1.1185.531-1.4051.3102-.3525.9211-.8788 1.4286-1.2266.4042-.2772 1.3535-.7988 1.4521-.7988.0235 0-.0282.1174-.1174.2584zm12.068-.1223c.8458.3807 1.8045 1.0856 2.5282 1.861.2443.2584.2866.3336.3947.7096.1833.6203.3055 1.3346.3384 1.969.0282.5686-.0141 1.3863-.0752 1.3863-.0141 0-.1222-.1692-.235-.376-.4135-.7471-1.0104-1.4661-1.6965-2.0441l-.3571-.2961-.0517-.3713c-.1316-.8928-.5686-2.0066-1.0997-2.8243-.0516-.0799-.0892-.1503-.0751-.1503.014 0 .1597.061.329.1362zm-5.2869.4982c.329.249.7002.6062 1.3957 1.344.5029.531.7096.6485 1.4944.8177 1.1185.249 1.6777.4417 2.3074.7942l.3243.1832-.033.5217c-.0375.6579-.1503 1.203-.4088 2.0066-.1926.5827-.2067.6673-.2067 1.1231.0047.4559.0188.5405.2255 1.1749.2632.8177.3525 1.2594.39 1.9502l.0283.517-.296.1738c-.5828.3337-1.0903.5075-2.4014.813-.7801.1786-.8882.249-1.8469 1.2218-.8083.8177-1.2077 1.142-1.6777 1.3676l-.1738.0798-.3196-.1926c-.517-.3102-1.062-.7754-1.5696-1.3487-.7472-.846-.9446-.9634-1.9455-1.1796-.8553-.1786-1.3346-.3383-1.9033-.6203l-.5404-.2679.0047-.5404c0-.6673.0611-.9916.3572-1.9502.3571-1.1514.3571-1.2407-.033-2.5142-.1174-.376-.2443-.8929-.2819-1.1513-.0846-.5827-.094-1.1702-.0094-1.236.108-.0892.9023-.4699 1.2312-.5874.1833-.0658.6485-.1833 1.0339-.2678 1.048-.2256 1.2312-.3149 1.7435-.8506.155-.1645.4417-.4653.6344-.6673.376-.3995.827-.7613 1.311-1.0574l.3055-.188.2726.1504c.1504.08.4136.249.5874.3807zm-9.9344.2208a17.2 17.2 0 0 0-.3337.719c-.0893.2021-.2302.4606-.3195.5687-.0846.1033-.2773.3665-.4183.5827-.1456.2162-.2631.3806-.2631.3665 0-.108.5451-1.2077.7848-1.5884.1973-.3054.6814-.9868.7049-.9868.0094 0-.0611.155-.1551.3383zm18.553.3807c.3807.5733 1.0433 1.8656.9587 1.8656-.014 0-.0893-.1128-.1739-.2443-.0798-.1363-.2725-.4089-.4229-.611-.1504-.1973-.3196-.4699-.3712-.6109-.0517-.1363-.1833-.437-.3008-.6626-.2632-.5263-.1645-.4417.3102.2632ZM1.9019 9.1124c-.0564.6203.0282 1.6683.1833 2.3685l.1128.5216-.0893.3948c-.0517.2162-.1175.5733-.1504.7942-.0658.437-.0799 1.8656-.0235 2.0912.0705.2726-.0658.047-.282-.4746-.2678-.6439-.5028-1.4474-.6062-2.0866-.1362-.813-.0329-1.6541.3478-2.8149.1645-.4934.4887-1.2735.531-1.2735.0094 0 0 .2162-.0235.4793zm20.7336.8177c.3712 1.1514.484 1.9832.3618 2.6975-.155.8881-.4793 1.9455-.7847 2.547l-.1128.2209.014-.846c.0189-.8834-.0187-1.2922-.188-2.063-.1174-.5404-.1174-.4558 0-.9398.1505-.6203.2069-1.2923.1928-2.143l-.0188-.78.1738.3666c.0987.2067.2585.625.3619.9398zM5.0222 9.62c.0658.4605.1504.7895.376 1.5038.2537.78.2537.968 0 1.7622-.2444.7613-.3666 1.3017-.4089 1.7999-.0188.2114-.047.3853-.0705.3853-.0752 0-.8177-.8412-1.0526-1.1983-.423-.6391-.8694-1.5978-.8694-1.861 0-.1597.2537-.7989.4793-1.2171.3713-.6814.86-1.3252 1.3111-1.734l.1598-.141.0094.1738c.0094.094.0376.3337.0658.5264zm14.9628.296c.3571.4747.7143 1.1232.9398 1.7153l.1316.343-.0799.268c-.188.5967-.6814 1.5084-1.1231 2.0535-.235.2914-.7002.7754-.7425.7754-.0188 0-.047-.155-.0658-.343-.047-.4982-.1927-1.142-.4136-1.814-.2584-.8036-.2584-1.001.0094-1.8327.2256-.705.3619-1.3112.4089-1.828l.0329-.3478.2772.2772c.1551.1504.437.4794.625.7331zM3.241 14.2488c.3196.5076.9822 1.2219 1.532 1.6683.2021.1598.2068.1786.2726.564.1363.8505.4746 1.7669.9352 2.5329.1363.2209.2396.4088.235.4182-.0236.0282-.9634-.4605-1.283-.6673-.1739-.1128-.4417-.3007-.5968-.423-.423-.3289-1.203-1.1137-1.2735-1.2782-.1034-.2443-.3008-1.0855-.3713-1.5836-.0705-.4982-.094-1.518-.0423-1.9503l.033-.2443.216.3853c.1223.2162.2774.4746.3431.578zm18.1584-.4135c.0423.6626-.0376 1.64-.1974 2.345-.2068.9257-.235.9774-.8365 1.5555-.2867.2772-.7237.6438-.9587.813-.423.296-1.2171.7518-1.4803.8411l-.1315.047.1221-.1974c.2538-.4135.6439-1.2312.7801-1.6353.1598-.484.3196-1.1702.3243-1.3863 0-.1034.0376-.1692.155-.2538.7379-.5404 1.6871-1.6777 2.0255-2.4343.047-.108.1034-.1973.1269-.1973.0188 0 .047.2255.0705.5028zm.8364 2.9794c-.1221.2631-.3242.6626-.451.8788-.221.3853-.7755 1.1842-.8178 1.1842-.0094 0 .0846-.2068.2115-.4605.1222-.2491.2538-.5358.282-.6297.0329-.094.1926-.3572.3618-.5875.1692-.2255.376-.5216.4558-.6532.0846-.1363.1551-.2396.1645-.2302.0094.0094-.0846.2302-.2068.498zm-19.9346.5216c.0893.1128.2302.3713.3148.578.0846.2068.2256.5123.3149.6814l.155.3055-.141-.1645c-.2913-.343-.7236-1.0338-1.0338-1.673-.1785-.3618-.3242-.6767-.3242-.7002 0-.0235.1269.141.2772.3666.1551.2209.3478.4981.437.6062zm4.563-.3195c.1974.0657.658.1832 1.0292.2631.39.0893.7707.202.9023.2773.155.0799.3947.3007.7237.672.5028.564.86.8929 1.3393 1.2265.1457.1081.2538.2068.235.2256-.0235.0235-.1645.0705-.3196.1128-.8036.2114-1.8468.2678-2.7491.141l-.4934-.0658-.2256-.2491c-.531-.5874-1.0762-1.5602-1.344-2.4014-.2162-.672-.2162-.672.202-.4793.188.0893.5029.2115.7002.2773zm11.288-.1128c-.2445.9445-.7332 1.8891-1.377 2.6598-.2303.2726-.249.2867-.5592.343-.4794.0894-1.6213.1222-2.0865.0565-.3713-.0517-1.1514-.2256-1.2313-.2726-.0188-.0141.1175-.1269.3055-.2585.1927-.1316.6814-.578 1.1184-1.0244.4418-.4512.8553-.8271.9634-.8835.1034-.0517.4934-.1598.8694-.2444.7143-.1598 1.4662-.4041 1.8327-.5874.1175-.061.2162-.1034.2256-.094.0094.0047-.0188.1457-.061.3055zM5.1584 19.7377c.4605.249 1.2171.5592 1.6542.672.2537.0705.343.1269.625.3947.5874.5546 1.1372.9352 1.9737 1.3723.2867.1503.4934.2678.4605.2725-.1362 0-1.1701-.1504-1.4568-.2162-.9821-.2208-1.7904-.5404-2.2698-.9022-.498-.3666-1.3816-1.2642-1.7763-1.8046-.188-.249-.3384-.4652-.3384-.4793 0-.0141.1645.0893.3666.2255.1974.141.5404.3478.7613.4653zm14.8218-.6626c-.094.1692-.6392.8553-.9211 1.1701-.3525.3995-.9869.9587-1.377 1.2265-.6296.423-1.969.8083-3.313.954l-.2584.0235.5263-.2772c.7942-.423 1.3769-.8318 1.9972-1.4052.2303-.2114.3619-.2913.578-.3571.8083-.2397 1.7106-.6626 2.3638-1.109.4512-.3055.4512-.3055.4042-.2256zm-7.5378 1.2171c.86.3102 2.1288.5075 2.8384.4323.1833-.0188.2679-.014.249.0188-.0704.1128-.8834.6063-1.4144.8647-.5969.2867-1.203.4982-1.7764.6297-.343.0752-.343.0752-.8835-.061-.9258-.2397-1.781-.6157-2.5705-1.1467-.4606-.3054-.4747-.343-.1034-.3054.3618.0375 1.2641-.033 1.767-.1363.202-.0376.6015-.1504.8834-.249.2867-.0988.5405-.1834.5686-.188.0235 0 .2256.061.4418.141zm.6579 2.8572.4464.033-.235.0422c-.3195.061-2.5.0517-2.6786-.0141-.1221-.0423-.0893-.0517.2585-.0564.2209-.0047.5075-.0282.6344-.047.2209-.0376.4512-.0329 1.5743.0423z"/></svg>