<svg role="img" viewBox="0 0 24 24" xmlns="http://www.w3.org/2000/svg"><title>React Navigation</title><path d="m11.8208 0-.1468.008h-.1473l-.1573.009-.1464.016-.1478.0082-.1482.0171-.1562.0171-.139.024-.1468.0161-.1568.0272-.1468.0321-.141.0243-.1481.0342-.1392.0321-.1479.0342-.1479.0426-.1392.0402-.139.0401-.1476.0427-.1504.052-.1313.0481-.1392.0482-.1426.0523-.1365.0583-.139.0563-.1464.0626-.1236.064-.1275.0546-.1428.07-.131.068-.1315.0721-.1275.0663-.131.0765-.1236.0723-.1352.079-.1226.0848-.1236.0803-.1201.0833-.116.0802-.0513.0356-.0427.0221-.12.0624-.1313.0641-.1349.0701-.131.0767-.1236.072-.1352.0791-.1226.085-.1236.0802-.116.0803-.1235.0803-.1266.0876-.1223.0931-.1206.0917-.1082.0885-.1218.0928-.1138.1012-.116.0963-.1125.1003-.1183.1054-.1005.1044-.1083.0963-.1098.114-.105.1092-.1004.1124-.1006.1043-.1095.1226-.0972.1179-.0927.1122-.0966.1171-.0927.1204-.0975.118-.0928.1316-.085.1204-.0881.1248-.0895.1351-.0773.1204-.0878.1328-.0856.1422-.0696.1284-.0772.1284-.0735.1358-.0717.1324-.0735.1443-.062.1284-.0713.1403-.0654.144-.0655.1446-.0573.1447-.0554.1397-.054.1445-.0542.1364-.0572.1532-.0492.1448-.0501.1562-.0379.1414-.0463.1364-.0418.1564-.041.1537-.031.1444-.0387.1445-.0333.1557-.0328.162-.0244.152-.0233.1444-.0234.1461-.0246.1621-.0153.143-.0248.1549-.0083.1622-.0154.1441-.0083.1549-.0077.1525-.0077.144-.0083.1545v.317l.0078.1446v.1439l.0082.1624.0083.155.0107.1004-.003.0564-.0154.1444-.0088.1645v.145l-.0078.1525v.308l.0078.1525v.145l.0082.154.0083.1625.0164.1549.0154.1434.0156.1524.0155.1457.0163.1527.0246.1622.025.1555.033.154.0288.135.0247.1538.0411.1538.031.1445.041.1535.0386.1445.041.1534.0493.1531.0472.1475.0463.1364.0492.1534.0574.1447.0542.1443.0554.1399.0573.1447.0654.1444.0618.1365.0672.1483.0696.1284.0619.1364.0735.136.0733.1437.0796.1325.0695.1284.0885.1469.085.1204.0731.1215.0814.127.0895.135.0924.131.0964.1251.085.1124.0973.1264.0966.117.0927.1123.0972.118.1005.1123.0969.1174.1099.1142.105.109.1082.1043.1005.1045.118.1138.1134.101.1082.0962.1081.0964.1183.1052.116.0883.108.0964.1328.1011.116.0803.1158.0882.1268.0878.1236.0803.116.0803.1347.0874.1306.0764.1237.0723.1236.072.131.0767.1312.068.1274.0662.0988.0483.1152.0798.116.0803.12.0832.1348.0875.1264.0739.1159.0722.1317.077.1389.0764.1197.062.1272.0745.1506.0735.1313.0562.128.0625.1346.0613.1427.0576.1364.0583.1346.0494.139.0562.1478.0541.1392.0402.1313.048.1506.0435.139.0401.1479.0427.148.0342.141.0326.1467.0321.1464.0337.1497.0259.1469.0241.139.0242.1562.0255.148.0171.147.016.148.017.157.0087.1462.008.1391.008.1564.0086H12.21l.156-.0085.1472-.0081.1392-.008.1564-.0086.1482-.0171.1458-.0158.1477-.0162.148-.017.1563-.0258.1405-.0243.1464-.0254.156-.034.1409-.0326.1391-.032.148-.0342.1478-.0426.139-.0401.1392-.0402.1506-.0436.1396-.051.1392-.0482.1395-.0511.1473-.0596.1263-.054.1394-.0512.1395-.0682.1313-.0561.143-.07.1235-.064.1313-.0643.135-.0701.1311-.0765.1236-.0723.1237-.0722.135-.079.1226-.0849.1237-.0802.1202-.0833.1159-.0803.0269-.0186.0554-.0251.147-.072.1272-.0743.1237-.0643.131-.0765.1237-.0722.135-.0789.1226-.085.1238-.0802.1159-.0803.1236-.0803.1266-.0876.1223-.0931.1204-.092.114-.0929.1159-.0962.1129-.0922.1138-.1013.1133-.101.1082-.1044.1082-.0962.118-.1138.105-.1092.1005-.1042.105-.1091.1096-.1226.0927-.1124.1005-.1123.0972-.1179.0966-.117.0973-.1264.0895-.1184.0885-.1251.085-.1204.088-.125.0894-.135.0773-.1203.088-.133.0854-.1422.0696-.1284.0773-.1284.0757-.1396.0695-.1366.0736-.1358.0672-.1483.06-.1326.0618-.1284.0652-.144.0653-.1525.0559-.141.0587-.148.0463-.1444.0542-.1366.0492-.1531.0463-.1366.0501-.1561.041-.1534.0387-.1445.041-.1535.0309-.1445.0386-.1446.035-.163.0231-.1446.0312-.146.0246-.162.023-.143.0249-.1552.0164-.1623.0154-.1434.0166-.1549.0077-.1525.0154-.144.0088-.1644v-.1525l.008-.1444v-.3172l-.008-.1444v-.1445l-.008-.1544-.0084-.1535-.009-.0892.0013-.0124.0081-.1544.0078-.145.0077-.1526.0083-.154v-.4615l-.0083-.154-.0077-.1525-.0083-.1548-.0154-.144-.0077-.1525-.0166-.1549-.0163-.1527-.0247-.1622-.0234-.1462-.0233-.1443-.0243-.1521-.0329-.162-.0312-.1464-.0309-.1445-.0329-.1536-.041-.1537-.0387-.1444-.0418-.1564-.0493-.1452-.0455-.1414-.0472-.1475-.0463-.1364-.0492-.1533-.0587-.148-.0559-.141-.0619-.1445-.0555-.1402-.0672-.1483-.0655-.136-.0676-.1327-.0637-.1406-.0797-.147-.075-.1247-.0656-.129-.0758-.1397-.0842-.14-.0815-.127-.085-.1284-.0773-.1204-.0893-.1351-.0882-.1248-.0928-.1316-.0928-.1124-.085-.1204-.0975-.118-.097-.126-.1088-.1217-.0927-.1044-.1008-.1127-.105-.1173-.105-.1091-.1003-.1044-.1099-.1142-.1132-.1006-.108-.1044-.1136-.101-.1082-.0962-.1182-.1054-.1219-.0928-.108-.0883-.1207-.0918-.1159-.0883-.1222-.0931-.1266-.0877-.1237-.0802-.1159-.0803-.1347-.0875-.1265-.0738-.116-.0723-.1278-.0748-.1346-.0787-.139-.0678-.12-.0624-.1192-.0618-.0984-.0682-.116-.0803-.12-.083-.1308-.0849-.1227-.0766-.128-.0747-.1236-.0722-.1275-.0745-.1389-.0763-.131-.068-.1313-.0644-.1313-.0682-.1352-.0578-.1313-.0641-.1476-.0632-.1345-.0494-.1392-.0561-.1365-.05-.1342-.0493-.142-.0492-.1475-.051-.1476-.0426-.1392-.0401L14.48.3238l-.1392-.0322-.1391-.0401-.157-.0362-.141-.0245-.1468-.0321-.1464-.0253-.1494-.0258-.1469-.0162-.1391-.024-.1662-.0182-.1458-.008-.1392-.0161-.157-.0085-.1462-.008L12.2724 0h-.3033zm.0183.7224H12.253l.13.0075.1472.008.1368.0076.1391.016.1478.0081.1274.014.1391.024.1467.0161.1288.0223.0745.0128h-.1821l-.1415.0088-.1212.0074h-.1338l-.1416.0172-.1313.008-.1426.0176-.1238.016-.1301.0158-.143.0176-.1355.0263-.0268.0052-.12-.0156-.1313-.024-.1336-.0173-.1326-.0162-.1301-.016-.1338-.0172-.1427-.0088-.1314-.008-.1415-.0086h-.1313l-.1315-.0082h-.1283l.028-.006.1214-.0211.1469-.0161.1391-.024.1374-.015.13-.0151.1459-.008.1473-.016.1209-.007h.1462zm2.1054.8684.0983.006.1224.0075.139.016.1302.008.1224.0149.1292.0148.1303.0239.133.0163.1293.0224.12.022.133.0326.139.024.111.027.1313.0402.1339.0328.13.0374.1288.0394.1224.0374.1227.0449.1313.0483.1315.0481.1194.0437.1154.0526.1348.0577.1279.0545.1159.0527.0827.0404.0934.0712.111.077.0976.0795.1023.0835.1082.0964.1082.0883.0977.087.1005.0963.1082.0964.0957.0917.0903.0865.0928.1044.1004.0963.0833.0938.0926.1044.0835.0937.085.1124.0926.1043.0805.1063.085.1044.0762.1006.0726.1057.0772.1124.0742.1075.0772.1204.0725.1054.0321.0556-.0323-.025-.1005-.0723-.0927-.0723-.106-.0762-.1081-.0777-.1004-.0642-.1005-.0722-.117-.0748-.1005-.0561-.1004-.0643-.1092-.0611-.1052-.0588-.108-.0562-.1054-.059-.1144-.0548-.1083-.0481-.0961-.0461-.1047-.0503-.1187-.0527-.1105-.0442-.1082-.0401-.1005-.0402-.1194-.0443-.1005-.032-.1082-.0402-.1224-.0392-.108-.0241-.098-.0312-.0916-.022-.04-.0462-.0838-.087-.0773-.0803-.0895-.093-.085-.0722-.0772-.0803-.0984-.0837-.085-.0721-.0907-.0771-.0928-.0723-.085-.0723-.0986-.0768-.1005-.0782-.1006-.0698-.0849-.0586-.0978-.0762-.1086-.0695-.101-.07-.1061-.0593-.0968-.0618-.1167-.0694-.109-.061-.1082-.0561-.1005-.0562-.122-.0635-.1082-.048-.112-.0583-.1254-.052zm-3.9134.006-.0939.042-.1082.056-.1082.0484-.1173.0608-.1082.0563-.1129.0586-.1005.0561-.1171.0609-.1135.0725-.097.062-.0927.0562-.112.0715-.1057.076-.09.0625-.1009.0697-.1003.0783-.0908.0707-.085.0642-.1006.0784-.0907.077-.092.0782-.085.0803-.0915.0778-.083.0862-.0711.0664-.0918.0867-.0831.0864-.0696.0723-.0261.0271-.0622.015-.1201.0355-.1005.0321-.1083.0322-.1038.033-.1078.0345-.1195.0444-.1004.0401-.1082.0402-.1105.044-.1082.0483-.1003.0402-.1286.057-.1046.0587-.0957.0457-.1082.0563-.1052.0505-.1188.0663-.1004.0643-.0955.0533-.1168.0694-.1054.0673-.1058.0677-.1005.0696-.103.074-.1004.0723-.106.0762-.0927.0721-.0468.0337.0047-.0075.0652-.1127.0692-.1007.0772-.1124.0773-.1124.0726-.1057.0802-.1058.085-.1124.0811-.1072.0802-.0985.0928-.1124.0807-.0992.0877-.0986.0833-.0938.1004-.0962.0928-.1045.0954-.0914.1004-.1044.0907-.0868.1025-.0913.1003-.0882.1036-.092.108-.0885.098-.0871.1097-.076.1143-.0932.105-.08.022-.0153.0385-.02.1234-.0603.1159-.0526.1195-.0512.1315-.048.1313-.0562.123-.0452.1313-.048.1227-.045.1224-.0376.1314-.04.1313-.0402.1223-.0373.1198-.0293.1392-.0322.1239-.0302.1292-.0237.1392-.0322.1139-.0208.1298-.0158.139-.0242.1232-.015.1313-.016.1207-.0148.139-.008.1218-.0149h.1208zm1.9871.1368h.0002l.1236.0321.1238.0242.1236.032.1136.0222.1138.0369.1307.034.1031.0285.109.0376.1236.0402.1128.0392.1062.0366.1025.0427.1082.0481.116.0481.1081.0482.1064.0442.1043.0542.1082.0482.0944.049.1005.0562.1082.0562.092.0515.0994.0589.1041.0666.095.0532.0843.0583.0922.0591.0877.0682.1008.0698.0847.0586.085.0663.0868.0676.0554.047-.0151-.0012-.1004-.008-.1138-.0091H15.0039l-.1005-.008h-.2121l-.1005.008h-.0939l-.1071.0092-.0927.0082-.0928.008-.094.0081-.085.008-.1057.0091-.1092.019-.0723.0136-.085.008-.1114.021-.0957.025-.0662.0138-.0968.0181-.085.0242-.0893.0168-.0916.0286-.0851.024-.0814.0254-.0772.0242-.0773.024-.0773.0241-.0985.0307-.0695.032-.0772.0242-.0745.0343-.0633.022-.0929.0385-.0827.0383-.0613.0316-.0585-.027-.0696-.032-.0696-.0322-.0848-.0392-.076-.0262-.0772-.0321-.0842-.0292-.0675-.021-.0772-.0321-.0921-.0287-.0773-.0242-.0815-.0254-.1008-.0285-.0773-.016-.085-.0241-.0772-.016-.088-.025-.0998-.0188-.085-.0161-.0875-.0165-.0926-.0161-.0992-.0187-.085-.0161-.1095-.0094-.0928-.0082-.1071-.0092H9.333l-.0927-.008H9.0194l-.1006.008h-.1016l-.106.0092-.0994.0079-.0465.0037.0248-.0193.085-.064.0947-.074.0852-.0662.0846-.0587.0953-.066.0952-.0685.089-.0567.0927-.0563.104-.0665.0874-.0558.0992-.0516.1005-.0561.1035-.0538.108-.0561.0992-.0514.1081-.0483.1082-.0561.095-.0422.112-.0466.1098-.0456.1082-.0401.1125-.0467.103-.0358.1237-.0401.109-.0378.1127-.0312.121-.0393.1138-.0295.1263-.0328.106-.0293.109-.0213.1313-.024zM9.046 4.0134h.1653l.0928.008h.1855l.0782.0067.0928.0082.0927.008.0928.008.076.0066.0849.016.0928.008.071.0134.0926.016.0826.0157.085.016.0701.0133.0821.0232.0773.016.085.0241.0773.016.0692.0198.073.0227.0774.024.0623.0196.0773.032.005.0016-.0316.0188-.0685.0508-.0397.0294-.0542.0322-.0789.0584-.0327.0286-.054.032-.07.0605-.0321.0277-.0463.0322-.0607.0525-.0321.0277-.0595.0413-.052.0539-.0315.0273-.0386.0321-.0463.0401-.051.0424-.0523.0542-.025.026-.0538.0447-.0309.0402-.0235.0195-.0523.0543-.0309.0321-.0308.032-.0386.0401-.031.0322-.0445.0462-.031.0402-.0173.018-.0308.0321-.0484.0502-.0233.0321-.0134.014-.0483.0503-.0232.032-.031.0321-.023.0322-.0058.006-.0484.0501-.0231.0321-.0232.0242-.0231.0321-.0233.024-.0232.0321-.0056.006-.0233.024-.0406.0423-.0232.0322-.0057.0058-.0379.0393-.0097.01-.0101.0105-.0375.0388-.0148.0152-.0226.0157-.0386.0402-.0233.016-.0154.0161-.0178.0122-.0383.0267-.0078.0026-.062.043-.0052.0036-.0154.008-.0255.0177h-.0001l-.0464.016-.0163.0115-.0496.0128-.0323.0224-.0227.006-.0232.008-.0764.0197-.0232.0162.0146-.0038-.0232.008-.018.0047-.0202.0052h-.0445l-.0562.0194-.0255.0054-.039.0102-.023.006-.0386.008-.0308.008-.0386.008-.031.008-.0304.0063-.0387.008-.0386.0082-.0386.0081-.0332.0068-.0779.0135-.0386.0161-.0094.0016-.0835.0144-.0386.0161-.0361.0063-.0465.016-.0463.008-.0723.025-.0204.0071-.039.0068-.0802.0238-.0536.0185-.0391.0136-.0542.016-.0463.0162-.068.02-.061.0273-.0464.016-.0472.021-.054.016-.0745.0331-.0338.0152-.054.016-.0744.033-.0723.0324-.047.0279-.0432.0168-.0799.0355-.047.028-.0618.024-.07.0415-.062.0321-.008.0047.011-.0567.0155-.0803.013-.068.019-.072.0266-.0922.0163-.0846.0188-.072.019-.066.031-.0883.0232-.0802.0275-.0786.029-.083.031-.0802.0327-.0936.0264-.075.0362-.0832.031-.0802.0353-.0808.0386-.0882.0305-.0696.0463-.0803.0417-.095.0403-.0768.0463-.0883.043-.0818.0403-.0698.0516-.0843.0604-.0986.0427-.0812.0412-.0612.0618-.0882.0541-.0803.06-.0856.0572-.0817.0567-.0738.0669-.0867.0558-.0798.0575-.0663.0694-.0803.075-.0865.0453-.0576.0445-.0099.1031-.0246.0862-.0207.0954-.014.1023-.0164.1004-.0161.1005-.016.0874-.014.0874-.007.1004-.008.1005-.008.1015-.0082.0794-.0069h.0993zm5.6719 0h.1587l.1006.008H15.1704l.087.007.1006.008.1003.008.0874.007.1004.016.1005.008.0874.014.1005.0162.0877.014.1023.0244.108.0161.0863.0206.0188.0045.0326.0376.0696.0803.0628.0726.0568.0735.0695.0884.0606.0787.0569.0737.0617.0884.055.0715.0499.0812.0664.0947.0478.0712.05.0815.0516.0844.0465.0802.0503.082.0407.0776.0464.0883.0433.0826.0386.0803.0433.0824.0334.0764.0414.0944.0386.0802.0303.0695.031.0883.0409.0934.026.0672.029.083.0274.0785.0232.0803.0295.084.0205.0782.0273.0947.0252.0723.0136.07.0266.0923.0188.0718.0132.068.0187.097.0223.0772.0005.0022-.0077-.004-.0542-.032-.0795-.0413-.0452-.02-.0611-.0365-.0619-.024-.047-.028-.0724-.0321-.0616-.0275-.0617-.024-.0468-.0208-.0742-.033-.0443-.0133-.0464-.024-.0639-.019-.0542-.024-.068-.0203-.0254-.0088-.0542-.0241-.0671-.0232-.0542-.0162-.065-.0224-.054-.0094-.0279-.0083-.065-.0224-.0464-.0082-.0205-.007-.0721-.025-.0678-.0117-.012-.0025-.0462-.016-.0654-.0136-.015-.0025-.0386-.0162-.0779-.0135-.033-.0069-.0386-.008-.0387-.008-.0386-.008-.0387-.008-.0386-.0081-.0386-.008-.0307-.0063-.0308-.0081-.0386-.008-.031-.008-.0386-.008-.023-.006-.0389-.0102-.0804-.0166h-.0222l-.0207-.0053-.018-.0047-.0232-.008-.0438-.0113-.0309-.0082-.018-.0045-.0232-.0082-.0225-.0058-.0262-.0138-.0467-.0161-.0359-.0124-.0039-.0011-.0165-.0113-.0463-.016-.0002-.0001-.023-.016-.0233-.008-.023-.016-.0233-.0082-.0254-.0174.0077.008-.0518-.0359-.0176-.0122-.0002-.0002-.0154-.016-.0463-.0321-.0154-.016-.0172-.0119-.0154-.024-.0525-.0364-.0142-.0149-.0476-.0492-.0079-.0055-.0053-.0081-.0475-.0494-.0233-.0241-.022-.023-.0003-.0004-.015-.0235-.0476-.0494-.0057-.006-.023-.0321-.0408-.0422-.0056-.006-.0233-.032-.0484-.0504-.0056-.0058-.0084-.0116-.053-.0734-.031-.0241-.008-.0113-.031-.0321-.023-.0322-.031-.0321-.0233-.0322-.0483-.0501-.0309-.0322-.0174-.018-.0309-.0401-.0445-.0463-.0308-.032-.0387-.04-.0309-.0322-.031-.0322-.0522-.0542-.0235-.0196-.031-.0401-.0537-.0447-.025-.026-.0522-.0543-.051-.0423-.0316-.0273-.0518-.054-.0464-.0319-.0254-.0265-.0728-.063-.0463-.0322-.0321-.0277-.0607-.0525-.0463-.032-.0422-.0365-.069-.0513-.0464-.0321-.0638-.0474-.0429-.0254-.0328-.0284-.0869-.0644-.0436-.0227.0101-.0032.0773-.0241.0773-.0241.0772-.024.073-.0228.085-.0241.063-.0196.0806-.0152.085-.0242.0732-.0138.0884-.0183.0898-.0234.0586-.011.085-.008.0977-.0184.0761-.0132.0798-.0069.085-.0081.0915-.0079.0928-.008.0927-.0081.0783-.0068h.0916zm2.8015.5554.0884.0395.0962.0461.1047.0502.1082.0481.0865.0416.0955.0534.1083.0562.0958.0536.0916.0512.1005.0643.1004.0561.084.0536.1004.0723.1005.0643.0927.0666.095.0684.0928.0723.1005.0722.0857.0668.0934.0746.0876.0758.0863.0747.0928.0883.0927.0803.0866.0826.0928.0882.0815.0778.08.0905.0903.0939.0874.0907.08.0905.0803.091.0763.0938.0423.1171.0355.1109.0354.1179.031.1204.0378.1257.0292.121.031.1204.0275.1153.0218.1199.023.1204.0228.1264.0237.1304.021.1097.0139.1153.0157.13.014.1092.0077.1284.0156.1204.0069.1165.0069.1092v.1197l.0079.1284v.3378l-.008.1204v.1204l-.0068.1085-.0068.1068-.0155.1124-.0077.1204-.0138.1006-.0155.1204-.0003.0022-.0189-.047-.0545-.1132-.0493-.094-.0463-.0883-.0464-.0883-.0463-.0882-.0498-.0949-.0524-.0908-.0542-.0882-.0502-.087-.0612-.0908-.054-.0803-.0591-.0876-.054-.0723-.0543-.0803-.0594-.0794-.054-.0722-.0542-.0722-.054-.0723-.0674-.09-.069-.0716-.0473-.0562-.062-.0722-.0683-.0814-.0619-.0561-.0465-.0552-.0781-.0812-.0618-.0561-.0542-.0563-.0704-.0641-.062-.0562-.0529-.0482-.0634-.0659-.0816-.0635-.062-.0481-.0616-.0483-.0529-.041-.054-.0482-.0508-.0395-.0084-.0792-.015-.0784-.006-.0627-.0098-.1016-.0192-.0895-.0114-.0592-.0074-.077-.0215-.1224-.024-.0835-.0122-.0634-.0178-.0925-.0275-.1048-.0197-.0683-.0175-.0905-.0366-.1042-.019-.066-.0258-.0983-.0324-.0927-.0231-.0802-.0344-.098-.0328-.0936-.036-.0935-.0363-.083-.031-.0883-.0467-.107-.0387-.0804-.036-.0823-.0438-.1001-.0495-.0943-.0386-.0802-.0494-.094-.0463-.0882-.052-.099-.0579-.0946-.0465-.0803-.0564-.0923-.0583-.095-.0602-.0894zm-11.0422.0038-.0458.0657-.067.0995-.0502.0953-.0478.078-.0564.0923-.0524.0908-.0498.0947-.0464.0884-.0525.0997-.0356.0815-.0463.0803-.047.107-.0386.0883-.042.096-.0308.0802-.041.0935-.0355.1016-.029.0829-.031.0803-.0327.0935-.0344.098-.023.0803-.031.0884-.0273.0946-.0275.1047-.0146.0757-.0198.0684-.0275.1047-.0178.0925-.0154.0802-.0155.0803-.0154.0803-.0154.0802-.0189.0976-.0077.0802-.0155.0803-.0094.0978-.0075.0784-.0033.0309-.0177.0138-.0619.0401-.0934.0728-.054.0562-.0421.0328-.0723.0563-.0617.0561-.0711.0555-.0634.0659-.0532.048-.0792.0722-.0542.0643-.0531.0481-.0782.0812-.054.0643-.0619.0643-.054.064-.069.0717-.0611.0819-.0467.0551-.0685.0802-.0611.0815-.054.0723-.0595.0794-.054.0803-.0542.0721-.0661.0982-.0464.0802-.047.07-.0653.0967-.0463.0882-.0542.0803-.0555.106-.0465.0884-.0463.0883-.0464.0882-.0493.094-.0521.1081-.0334.0764-.01-.0717-.0075-.1107-.0154-.1196-.0069-.1094-.0077-.1123-.0077-.1196-.0078-.1204-.0069-.1083V9.4114l.007-.1085.0077-.121.0077-.1286.0071-.1091.0154-.1284.0077-.1204.0142-.1182.014-.1152.021-.1096.0254-.14.014-.1098.0287-.1191.0227-.1256.0309-.1204.0237-.1312.0252-.1046.0386-.1204.0317-.1317.0346-.1152.0356-.1108.0476-.1317.008-.0265.022-.0271.0727-.0908.0745-.0842.0926-.0964.0901-.102.0749-.0849.087-.083.0852-.0882.087-.083.0927-.0883.0868-.0825.0864-.0748.0875-.0758.1005-.0803.086-.0745.0932-.067.0926-.0722.0951-.0682L5.05 5.37l.098-.0705.0849-.0588.095-.0607.0958-.0611.0994-.0591.1054-.059.1005-.0642.0822-.046.0957-.046.108-.056.1054-.0505.0962-.0538.088-.0392.1003-.0401zm5.5198.1351.0555.0257.04.0207.0536.0348.0683.0408.0557.0288.0536.0348.0448.0267.062.046.0618.032.0214.0159.06.0519.0653.0387.0444.033.0463.032.039.029.0507.0438.0463.0322.0321.0277.0607.0525.0463.0322.02.0172.0519.0538.0463.0321.0255.0265.0611.053.0263.0218.025.026.0523.0543.0235.0196.031.04.0537.0448.025.0258.0308.0322.031.0321.0386.0401.031.0322.0173.0179.0308.04.0445.0463.031.0322.0134.014.0232.032.031.0322.023.0321.031.032.0382.053.0308.0238.0002.0002.0314.0434.0406.0424.0134.014.0232.032.0406.0422.0057.006.0231.0321.0396.041.0155.024.0474.0495.0232.024.022.0228.0155.0242.072.0746.0226.0157.0005.0003.0143.0149.0475.0494-.006-.0043.0154.0242.0756.0524.0154.016.0465.032.0154.016.0518.036.0178.0124.049.051.057.0197.0463.0321.0232.008.0233.016.023.0081.0233.016.0466.0162.023.016.08.0277.031.008.0103.0036.0307.016.0593.0206.031.008.0231.008.0438.0114.031.008.018.0047.0232.008.0437.0114.031.008.0724.0189h.0385l.0205.0051.039.0102.0386.008.0308.008.0386.0082.031.008.0468.0097.0387.008.0386.008.0387.0081.0386.008.044.0091.015.0027.0386.016.078.0135.0118.0025.0464.016.0653.0136.025.0044.0205.007.0723.025.0463.0081.0276.0096.0803.0238.039.0068.0276.0095.0541.016.0254.0088.0542.0241.0671.0232.0402.012.0542.024.0442.0133.0463.024.064.019.0338.0151.0614.0273.062.0241.0466.0207.0359.016.061.0362.0618.0242.0471.0279.063.028.044.023.0542.032.0703.0366.0533.0276.0397.0237.0619.0401.054.0321.056.0364.0619.0402.0451.0293v.1177l.008.0723v.1767l-.008.0722v.1341l-.0077.064v.0669l-.0077.072v.0619l-.0047.0387-.0077.0563-.008.0672-.0078.0643-.0074.0611-.0072.053-.008.0593-.0049.0398-.0146.0532-.011.0805-.0044.0317-.0154.0563-.0106.0763-.0038.024-.0155.0561-.0077.0482-.0154.0563-.0065.0402-.007.0214-.024.075-.0076.0482-.007.0211-.0221.0697-.008.04-.0085.0269-.0222.0694-.0057.0297-.0074.0193-.0255.0794-.0057.0298-.0156.0402-.0074.0385-.0283.0588-.0106.055-.0124.0322-.0077.0321-.0154.0402-.0077.0321-.0155.0401-.012.0496-.0153.032-.0156.0642-.0154.0322-.017.0705-.0077.0322-.0077.0321-.0077.032-.0045.0186-.0077.0242-.0077.0321-.008.024-.0212.0887v.018l.0059-.0183-.0213.0886v.01l-.0078.024v.0322l-.0077.0241v.0561l-.0077.0242v.1389a.3477.3612 0 0 0 .0032.008.3477.3612 0 0 0-.0032.008v.1487l.0077.0322v.0481l.0077.0321v.0383l.0155.0483v.0178l.0213.0886.0018.0056v.0403l.0214.0665.0045.0186.011.0457.0197.0616.0095.0196.0062.0257.0077.0321.017.0706.0117.0243.0002.001.019.079.0155.032.0042.0176.0154.0402.0077.032.0124.032.0077.0402.0327.0848.0011.0023.0048.0253.0274.0708.0015.004.0077.048.0176.0457.0056.0296.0257.0796.0053.0137.006.0376.0273.0851.0053.0138.006.0377.024.075.0056.0171.0077.0563.0167.0522.0065.0403.0154.0563.008.0481.0143.052.0044.032.011.0805.0154.0563.0044.0316.0074.0532.0106.0886.0155.0562.0047.0397.0078.0563.0047.0387v.0641l.0104.0866.0077.0642.005.042v.0642l.0077.0641v.134l.008.0723v.1687l-.008.0723v.1464l-.0015.0165-.0219.014-.054.0402-.0386.0252-.0716.037-.054.0402-.0522.0271-.07.0455-.0397.0236-.062.0322-.0381.0225-.0619.0242-.0611.0362-.0451.0202-.062.032-.0446.0199-.054.0241-.0542.024-.054.0242-.054.0241-.034.015-.054.016-.054.0242-.0543.016-.061.0273-.0254.0088-.0468.0138-.0615.0183-.0535.0185-.0391.0135-.0542.0161-.0534.0185-.0206.0071-.0463.008-.0723.0251-.0205.0071-.0464.008-.0463.0162-.025.0042-.0654.0136-.0463.016-.012.0025-.0463.008-.044.0092-.0387.008-.0386.008-.07.0146-.0387.016-.0072.0016-.005.001h-.0386l-.0805.0167-.031.008-.0386.008-.0309.008-.0386.008-.039.0103-.031.008-.0307.008-.031.008-.0309.008-.031.0082-.0309.008-.0308.008-.0439.0114-.0232.008-.018.0047-.0437.0113-.0233.008-.031.0081-.0357.0124-.0106.0036-.0763.0199-.0346.0238-.0463.0162-.0233.016-.0463.016-.0232.0161-.0231.008-.0464.0321-.0232.008-.0771.0535-.0078.0027-.0906.0629-.0155.016-.0231.016-.0233.0241-.023.016-.0156.0161-.023.016-.0476.0494-.0148.0152-.052.036-.0247.0385-.0371.0257-.0346.054-.0002.0004-.022.0229-.0233.024-.0231.0241-.0476.0494-.0292.0455-.0026.0036-.0057.006-.0231.024-.031.032-.0406.0423-.038.0526-.0085.0116-.0056.006-.0484.0502-.0233.0322-.0308.032-.0232.0322-.031.0322-.023.032-.0135.0139-.031.0321-.0309.0322-.0309.0321-.0445.0463-.031.0401-.0172.0179-.031.0321-.0385.0401-.031.0322-.025.026-.0538.0447-.031.0401-.0233.0195-.0524.0544-.0142.0147-.0463.0321-.0495.0513-.0262.022-.0612.0528-.0255.0265-.033.0229-.0607.0525-.0322.0277-.0463.0322-.0507.0439-.039.029-.0463.032-.0587.0435-.0495.0367-.0463.0322-.0444.0329-.0448.0266-.0617.0402-.0636.0376-.0461.0342-.0521.027-.0619.0402-.047.0245-.0766.0398-.0581.0376-.0566-.0293-.0471-.0245-.0617-.0401-.0767-.0397-.0374-.0194-.054-.0401-.062-.0322-.0461-.0343-.054-.0321-.0542-.0402-.054-.032-.0293-.0217-.06-.052-.054-.032-.023-.0198-.0698-.0604-.054-.0321-.0228-.0198-.049-.0424-.0387-.0322-.0438-.0378-.049-.0425-.0263-.0217-.0362-.0377-.0612-.053-.0262-.0217-.0387-.0402-.0386-.0321-.0115-.012-.043-.0557-.0537-.0447-.0174-.0179-.0386-.0401-.0172-.018-.043-.0559-.0538-.0446-.0173-.018-.0174-.018-.0154-.0202-.0347-.048-.0484-.0503-.031-.0321-.0134-.014-.0231-.032-.0484-.0503-.0057-.006-.0231-.0321-.031-.0321-.0232-.0322-.0231-.024-.0232-.0321-.0233-.0241-.023-.032-.0408-.0424-.0056-.006-.0233-.032-.0406-.0423-.0232-.024-.022-.0228-.0154-.0242-.072-.0746-.008-.0053-.0247-.0387-.0523-.0362-.0142-.015-.0476-.0493-.0232-.016-.0387-.0401-.0463-.0322-.0155-.016-.0464-.0321-.049-.0511-.0566-.0194-.0003-.0002-.0464-.0322-.0229-.0078-.0003-.0002-.0463-.0321-.0233-.008-.023-.0162-.0466-.016-.0003-.0001-.0228-.016-.0674-.0232-.0228-.008-.0003-.0002-.0307-.0158-.0593-.0206-.031-.008-.0231-.008-.0308-.008-.0233-.008-.0439-.0115-.018-.0047-.023-.008-.044-.0113-.031-.0081-.0307-.008-.031-.008-.0389-.0102-.0806-.0166h-.0225l.0026.0006-.0386-.008-.031-.008-.0386-.008-.0308-.008-.0468-.0098-.0387-.008-.0386-.008-.0387-.008-.0074-.0015-.0439-.0183-.0779-.0135-.0386-.008-.0148-.0025-.0386-.0161-.0835-.0145-.0092-.0016-.0386-.0161-.0566-.0097-.0206-.0071-.076-.0263-.054-.008-.0167-.0058-.0465-.0162-.0534-.0185-.0542-.016-.0463-.0161-.0613-.0182-.023-.0067-.0464-.0242-.064-.019-.054-.024-.0542-.016-.0338-.0151-.054-.0241-.0542-.024-.054-.0242-.0542-.0241-.0615-.0273-.0431-.0168-.0471-.028-.063-.028-.044-.0228-.054-.0322-.062-.0321-.054-.0322-.0704-.0365-.0375-.0194-.0542-.0402-.0713-.0371-.0387-.025-.0542-.0402-.0434-.0282-.003-.0286v-.0802l-.0078-.0723v-.2385l.0078-.064v-.1391l.0053-.0499.0101-.084v-.0643l.005-.0419.0079-.0642.0072-.061.0078-.0563.008-.0672.0074-.0612.0072-.053.0077-.0563.0044-.0316.0155-.0563.011-.0806.0045-.0317.0155-.0562.0066-.0483.0154-.0483.0077-.0561.0155-.0482.0077-.0562.0142-.044.0077-.0482.0068-.0213.0242-.0751.006-.0377.0053-.0136.0255-.0796.0077-.0402.0054-.0167.0235-.061.0097-.0507.0156-.048.0056-.0297.0036-.0094.0243-.0629.0077-.0321.0185-.0482.0048-.0252.0154-.0321.008-.0402.0153-.0321.0077-.0401.0118-.0243.0112-.0468.0155-.04.0134-.056.0062-.0258.0094-.0196.0198-.0616.011-.0454.0077-.0322.0077-.0321.0045-.0187.0077-.0241.0215-.0886v-.018l.0018-.0056.0212-.0888v-.0241l.0078-.0321v-.01l.0077-.024v-.0562l.0077-.0241V11.8534l-.0077-.0242v-.056l-.0077-.0242v-.0562l-.0155-.0482v-.018l-.0213-.0886-.0077-.024-.0079-.0322-.0077-.0241-.0045-.0187-.0109-.0454-.0077-.0242-.0045-.0186-.0077-.0322-.0079-.032-.0077-.032-.0169-.0706-.0155-.0322-.012-.0495-.0153-.0401-.0113-.047-.0116-.0242-.0077-.0401-.0156-.032-.0048-.0253-.0154-.04-.0107-.0551-.0282-.0587-.0076-.0388-.0234-.0612-.0054-.0168-.0098-.0504-.0133-.0347-.0077-.0483-.0257-.0664-.0036-.0112-.0077-.0483-.0241-.0749-.0068-.0213-.0077-.0481-.0154-.0482-.0078-.0483-.0216-.0675-.008-.029-.0077-.0482-.0143-.052-.005-.036-.0116-.0725-.0144-.052-.0039-.0287-.0077-.0643-.0116-.0837-.0146-.0532-.0047-.0397-.0077-.056-.008-.0644-.0076-.056-.0047-.039v-.064L5.9315 9.13l-.005-.0419v-.0727l-.0078-.0641v-.1339l-.0078-.0723v-.1686l.0078-.0723v-.1464l.0002-.0018.0696-.045.054-.04.0388-.0253.0557-.0289.0684-.0406.0535-.0348.0557-.029.0542-.032.0617-.0321.0382-.0227.0619-.0242.0611-.0362.0284-.0127.0804-.0313.0612-.0363.0357-.0158.034-.0152.054-.016.0744-.033.0338-.0151.054-.0162.0612-.027.0463-.016.0471-.021.0402-.012.0463-.0162.0542-.016.0536-.0184.039-.0137.028-.0083.0539-.0092.0723-.0251.0203-.007.0464-.008.0464-.016.0565-.01.0386-.016.0094-.0017.0835-.0144.0386-.016.0148-.0025.044-.0092.0386-.0082.0386-.008.0387-.008.0386-.008.0387-.008.0468-.0097.0309-.008.0386-.0081.031-.008.0386-.008.039-.0102.0307-.008.031-.008.023-.006.0517-.0107-.0098.0033h.0169l.0724-.0188.031-.008.0439-.0114.023-.008.0764-.0198.0233-.0161-.0147.0037.0233-.008.031-.008.0357-.0124.0675-.0233.0117-.0082-.0146.0038.0801-.0278.0231-.016.0465-.016.0619-.0429.005-.0036.0155-.008.0256-.0177.0233-.0082.0905-.0627.0154-.016.0178-.0122.0518-.0359.0156-.0161.023-.016.0387-.0402.0232-.0161.0476-.0492.0142-.015.0525-.0363.0338-.0527.0511-.0356.0346-.0539.0003-.0005.0396-.041.0232-.032.0056-.006.0232-.0241.0406-.0422.0233-.0321.0232-.0242.0231-.032.0232-.0241.0231-.0321.0135-.014.0407-.0422.0231-.0321.031-.0321.0232-.0322.0134-.014.0483-.0501.0233-.0321.0134-.014.031-.0321.0444-.0463.031-.0401.0172-.0179.031-.0321.0386-.0402.031-.0321.0309-.0321.0249-.026.0538-.0447.0308-.0402.0236-.0194.0522-.0543.025-.026.0263-.022.0465-.04.0386-.032.0612-.053.0253-.0265.0332-.023.0607-.0524.0321-.0278.0464-.0321.0606-.0525.0228-.0198.054-.0321.06-.052.0293-.0216.0541-.0321.0684-.0508.0397-.0295.0542-.0321.0462-.0342.046-.024.0684-.0406.0537-.0348.0617-.0321.062-.0401.047-.0245zm8.5012.305.0695.0841.085.1204.0926.1124.0773.1095.0818.1158.0806.1218.0772.1204.085.1284.073.1139.0704.1169.0634.1171.0733.1438.0797.1324.0593.1096.0601.1323.0714.1404.0582.1208.0563.1245.0527.1328.0619.1445.0522.1319.0495.125.0403.125-.04-.0724-.0742-.1285-.0695-.1125-.074-.1279-.0804-.117-.0695-.1123-.0858-.1248-.0773-.1043-.0772-.1124-.081-.1094-.0823-.111-.0815-.1002-.0081-.0268-.05-.1298-.0498-.138-.0557-.124-.0448-.1163-.058-.1376-.0598-.1331-.0618-.1204-.054-.1204-.0663-.129-.066-.1285-.0694-.1204ZM3.5005 5.017l-.0638.1107-.066.1284-.0619.1204-.066.1289-.0582.1292-.054.1204-.0559.1243-.0541.1284-.0565.1257-.0513.1334-.0465.1284-.0432.1123-.0655.0804-.082.111-.0773.1042-.0811.1095-.0773.1124-.0773.1044-.0858.1246-.077.1247-.0696.1204-.0696.1122-.0742.1286-.0618.1124-.002.0036.03-.0801.054-.1366.0542-.1444.0527-.1332.0508-.1283.0583-.1284.0582-.1287.0676-.1326.062-.1284.0654-.1287.0675-.1245.0655-.1212.0773-.1284.0695-.1284.069-.1146.0821-.1241.0773-.1204.0806-.1217.082-.116.0849-.1204.0771-.1094.088-.1066.0928-.1204zm18.1546 3.5382.0176.0344.0521.1161.06.1245.056.1328.0573.1118.0403.1116.0576.1453.052.1233.0418.116.0452.1332.0443.1301.0359.1193.0379.1336.0386.1364.0379.1339.036.135.0293.1293.0305.1344.0308.1444.0288.1271.0213.1326.0233.1446.0217.1359.0143.1267.0154.1433.0154.1445.0146.1365-.008.0745-.0077.1446-.0132.1248-.0233.1443-.0152.1429-.0216.1268-.0219.1365-.0284.133-.033.1458-.0216.1346-.0355.125-.0315.1392-.036.1348-.038.134-.0386.1363-.035.1239-.0432.1194-.0463.1366-.0463.1284-.0434.1273-.0526.1252-.0464.1284-.0468.111-.0618.1284-.0523.1242-.0599.1165-.05.1114.0106-.0882.017-.1316.0083-.1403.0077-.1204.0077-.1284.0077-.1197.0086-.1324v-.5137l-.0086-.1323-.0077-.1204-.0077-.1214-.0079-.1124-.0085-.1313-.017-.134-.0157-.114-.0153-.1107-.0155-.1204-.0174-.1264-.0256-.1246-.0233-.1124-.0237-.1151-.0232-.1044-.0227-.1096-.0262-.1278-.0355-.1194-.0127-.0428.0018-.0086.0264-.0894.0354-.1195.0264-.1277.023-.1124.0227-.1096.0232-.1043.0266-.129.017-.1328.0153-.1108.0157-.114.0154-.1204.0172-.1242.0077-.1204.0154-.1124.0086-.134.0085-.1323v-.1204l.0078-.1204V9.4683l-.0078-.1284v-.1212l-.0085-.1315-.0085-.1405-.0154-.1204-.0077-.1284-.0169-.1315zm-19.3137.0129-.0071.0583-.0077.1204-.0154.1284-.0084.1317-.0077.1284-.0077.1196-.0086.1323v.5138l.0086.1324.0077.1204.0077.1212.0079.1124.0084.1314.0155.1214.008.114.0168.1233.017.1328.0236.114.0154.1124.0258.1246.0231.1124.0239.115.0258.1163.0308.1124.0232.1044.0228.0829-.0039.013-.0342.1248-.0233.1044-.031.1123-.0257.1161-.0237.1153-.0258.1246-.0154.1122-.0236.1142-.017.1328-.0154.1124-.017.133-.008.1123-.0154.1204-.0086.1243-.0077.1212-.0084.1325v.1204l-.0079.1204v.3932l.0086.1325.007.1083v.1405l.0168.1315.0077.1284.0154.1204.006.101-.0252-.0493-.0596-.1162-.0558-.1158-.0505-.12-.0541-.1285-.0503-.1195-.0465-.1284-.0527-.1252-.0433-.1273-.0463-.1284-.0421-.1242-.0361-.1271-.0386-.1366-.0387-.1364-.0386-.1365-.036-.1268-.0282-.1247-.0309-.1445-.0287-.127-.0214-.1328-.0234-.1461-.0232-.1364-.0228-.1428-.0218-.1348-.0143-.1347-.0143-.1345-.0078-.1446-.0005-.004.0005-.0082.0145-.1346.0153-.1444.0145-.1348.0216-.1347.0231-.1445.023-.1429.0215-.1268.0289-.1345.0309-.1366.0308-.1443.0282-.1247.036-.127.0387-.1364.0387-.1365.0359-.1271.0463-.1366.0377-.133.0387-.107.0555-.1317.0464-.1366.0489-.1163.0541-.1284.0524-.1243.0503-.112.0578-.1199.0617-.1204zm2.8816.3306V8.9964l.0077.0643v.072l.0104.0866.005.042v.0642l.011.0896.0076.0563.0077.0641.0077.0563.0107.0886.0163.0593.004.0286.0076.0643.0117.0837.0164.0602.004.0239.0103.0765.0166.0602.0077.0481.023.0834.0092.0287.0078.0483.0154.0481.0077.0482.0241.075.0068.0212.0077.0483.0273.0851.0053.0137.0077.048.0177.0457.0057.0298.0255.0795.0074.0191.0077.0401.0327.085.0011.0022.0048.0252.0154.0402.0108.055.0154.0321.0077.0402.0193.04.004.0174.0156.04.002.0084.017.0705.0155.0322.0062.0257.0077.0321.0077.0322.011.0454.0077.0242.0045.0186.011.0456.0077.024.0077.0322.0018.0056v.018l.0156.0644.0059.0243-.006-.0183v.0561l.0078.0242v.056l.0077.0242v.0754l-.0077.024v.0563l-.0077.024v.0382l-.0078.0322v.018l-.0018.0056-.0213.0887v.018l-.0018.0057-.011.0454-.0077.0322-.0077.0321-.0023.0092-.0195.0406-.0169.0706-.0079.0321-.002.0083-.0154.0401-.0042.0174-.0192.04-.0079.0401-.0154.032-.0077.0401-.0155.0322-.0106.055-.0123.0322-.0077.0321-.0066.0174-.0274.0709-.0098.0506-.0153.0481-.0057.0297-.0074.0192-.0256.0795-.0077.0402-.0054.0167-.0256.0667-.0094.0586-.0068.0213-.0242.0751-.0077.0481-.0167.0522-.0077.0562-.0156.048-.0077.0564-.0154.0481-.0089.064-.0154.056-.011.0808-.0044.0317-.0155.0563-.011.0805-.0077.0562-.0083.0594-.008.0672-.0074.0612-.0077.0561-.0082.0674-.0077.0641-.0105.0866v.0643l-.0053.0443-.01.0946V15.1007l-.002-.0017-.054-.056-.0706-.0642-.0443-.0403-.0542-.0643-.0705-.064-.0454-.0473-.0542-.0643-.0617-.064-.0474-.0564-.062-.0722-.0464-.0552-.055-.0734-.0618-.0722-.0471-.063-.054-.0722-.0488-.065-.0542-.0803-.054-.0723-.0421-.0624-.0463-.0803-.054-.0802-.0425-.0734-.0502-.0821-.0443-.084-.0463-.0803-.0486-.0925-.0472-.0772-.0313-.0713-.052-.1082-.0406-.0773-.0363-.0903-.0463-.0964-.0341-.0848-.0386-.0962-.0387-.0965-.0367-.0917-.0327-.088-.0323-.1092-.0386-.0962-.026-.0878-.012-.0402.0275-.0925.0274-.0925.0371-.1004.031-.0963.034-.092.0369-.0917.0386-.0965.0387-.0962.034-.0848.0438-.0913.0387-.0882.0407-.0845.0433-.0828.0464-.0883.0465-.0882.0463-.0883.0371-.0707.054-.0803.0464-.0882.043-.0638.0611-.0906.0464-.0803.042-.0624.0541-.0723.054-.0803.0488-.065.0542-.0723.047-.0629.0551-.0644.0616-.073.047-.0628.0548-.0569.054-.064.0619-.0644.054-.0642.0454-.0472.0707-.0641.054-.0642.0444-.0404.0706-.0641zm13.554.0063.057.0517.053.0483.0541.0563.0617.0561.0456.0472.0617.0734.0618.0561.0397.0472.0618.0723.0609.072.0546.057.041.0544.054.0723.0541.0722.054.0723.0488.065.054.0803.0542.0722.049.0729.054.0802.0472.0698.0424.0735.0542.0883.0403.0699.0428.0817.0465.0882.0463.0885.0464.0882.0433.0826.0383.0795.041.1022.0464.0883.0316.0788.0368.0918.0386.1044.0405.101.0323.0802.0294.0995.0386.1043.0275.0925.0211.0718-.0316.0853-.0348.1082-.0285.0964-.0326.088-.0368.0918-.0405.101-.0386.1044-.0299.0741-.0463.0884-.041.1023-.0438.0912-.0361.0823-.0433.0825-.0463.0962-.04.0762-.0403.0698-.0542.0884-.0464.0803-.054.0882-.0425.0734-.0471.07-.061.0905-.042.0726-.0465.062-.0475.0706-.056.0656-.0611.0815-.054.0723-.048.064-.0467.0553-.0617.0722-.0474.0562-.0619.0642-.054.0642-.0454.0473-.0707.0641-.054.0641-.0444.0403-.0705.0642-.0541.0562-.025.0228v-.1104l-.0078-.0643v-.0643l-.0104-.0865-.0077-.0641-.005-.0419v-.0643l-.0109-.0896-.0077-.0562-.0107-.0887-.0154-.0563-.0048-.0396-.008-.0593-.011-.0807-.0156-.0562-.0044-.0318-.011-.0806-.0167-.0602-.0077-.048-.0155-.0564-.0089-.0558-.0142-.0442-.0077-.0561-.0254-.0792-.0068-.0211-.0095-.0588-.0256-.0665-.0035-.0113-.0095-.0586-.0257-.0666-.0053-.0168-.0098-.0505-.0133-.0348-.0077-.0481-.0294-.0764-.0036-.0094-.0106-.055-.0283-.0588-.0074-.0386-.0186-.0482-.0078-.0322-.0154-.0401-.0113-.0467-.014-.0295-.013-.0671-.0193-.0398-.0062-.0259-.0077-.032-.017-.0707-.0193-.0398-.0024-.0099-.011-.0456.006.0183v-.0178l-.0214-.0888-.0018-.0056v-.018l-.0214-.0887.006.0183v-.0099l-.0078-.0321v-.0482l-.0077-.0321V12a.3477.3612 0 0 0-.002-.0108.3477.3612 0 0 0 .002-.0052v-.0218l.0077-.024v-.0563l.0077-.024v-.0321l.0078-.0242v-.0321l.0154-.0481v-.0402l.0018-.0056.0077-.0321.0078-.024.0109-.0456.0077-.0321.0078-.0322.0062-.0257.0154-.0321.0155-.0646.0154-.0317.017-.0705.002-.0083.0154-.0402.0077-.0321.0155-.0401.0077-.0322.0186-.0481.0048-.0253.0011-.0023.0328-.0848.0077-.0401.0153-.0401.0098-.0507.0054-.0167.0234-.061.0098-.0507.0086-.0268.0224-.0694.0077-.0402.0086-.0268.0241-.075.0077-.0482.0068-.0213.0242-.0751.0089-.056.0154-.056.0078-.0482.0154-.0563.0116-.0724.005-.036.0154-.056.0111-.0808.0044-.0317.0163-.0592.0106-.0887.0074-.053.0081-.0595.008-.0672.008-.0643.0071-.0611.0078-.0562.0107-.0896v-.0667l.0077-.0722v-.0618l.0077-.0643zM3.045 13.2536l.017.0426.0523.0992.0406.0845.0462.1054.0608.0994.0442.084.0463.0803.0486.0925.058.0945.0503.0872.054.0802.0463.0803.0663.0981.054.0723.054.0803.0595.0793.0542.0723.0611.0815.0618.0723.0532.0711.0616.0731.0619.0723.0608.0722.0617.0642.0542.0642.0782.0813.0531.0482.054.0642.0793.072.0531.0484.054.056.0805.0731.0619.0483.0533.0483.064.057.0709.0553.0617.0482.062.0482.0556.0434.0003.0025.0077.0723.0075.0782.0095.0978.0158.0823.0077.0722.0179.0926.0154.0883.0161.0834.0154.0802.0187.097.0222.0772.0156.0883.0274.0951.0233.0883.023.0803.0274.104.031.0802.023.0882.0362.0941.0292.083.0327.0937.036.0933.0363.083.031.0883.0469.1073.0386.0802.036.0822.0439.1003.0523.0997.0434.0828.0439.091.0575.0938.0407.0776.0556.106.0608.0903.05.0815.0541.0883.0583.095.0154.0229-.012-.0044-.0905-.0434-.1082-.0482-.0962-.046-.0955-.0458-.1082-.0563-.0957-.0458-.0957-.0536-.0992-.0514-.096-.0613-.1003-.0563-.092-.0588-.1004-.0641-.0926-.0591-.1003-.0723-.095-.0607-.085-.0663-.0932-.067-.0928-.0802-.1004-.0723-.086-.0744-.1005-.0803-.0812-.0704-.0927-.0882-.0928-.0803-.081-.0771-.0798-.0828-.0926-.0964-.085-.0883-.0874-.0908-.08-.0904-.085-.0964-.085-.0963-.0585-.0663-.0321-.0837-.0347-.115-.0396-.1316-.0355-.1106-.0276-.1149-.0317-.1312-.0308-.1204-.0277-.1152-.0237-.1312-.031-.1204-.0207-.1151-.0215-.119-.014-.1096-.017-.14-.021-.1094-.007-.1167-.0155-.1204-.0077-.1285-.014-.1091v-.1165l-.0086-.1325-.0069-.1083v-.3452l.0079-.1204v-.1204l.0069-.1083.0077-.1197.0068-.1005.0156-.1204.0077-.1124.0138-.1077zm17.9072.0038.0074.0539.0153.1107.0137.1069.0069.1094.0077.1124.0077.1195.0079.1204.0069.1085v.4654l-.0069.1085-.0079.1212-.0077.1284-.0077.1204-.0071.1165-.014.1092-.0154.1286-.0156.1204-.0142.1188-.021.1156-.023.1204-.0236.1306-.0208.115-.0282.11-.0316.1312-.0303.1257-.0308.1204-.0291.121-.0348.115-.0386.1205-.0356.1184-.0183.0473-.0385.0437-.085.1043-.0802.091-.0851.0963-.0748.0848-.0872.083-.0902.0939-.0817.0846-.087.0753-.0986.094-.0867.0827-.0864.0747-.0927.0803-.0809.07-.1004.0722-.0928.0803-.0877.063-.1058.0762-.0852.0663-.0948.0607-.1005.0722-.0926.0591-.0919.0588-.1004.0561-.096.0613-.0991.0516-.1052.0588-.091.051-.0957.0457-.1082.0563-.0912.0436-.0976.0436-.105.0418-.0378.0182.057-.0932.05-.0817.0608-.0902.05-.0953.0542-.0882.0486-.0925.0463-.0803.0498-.0949.0524-.0998.0386-.0883.0433-.0824.0442-.092.0414-.0944.0442-.101.0287-.0821.0386-.0803.0378-.1077.0291-.083.0308-.0802.0377-.1077.0217-.0828.031-.0803.0273-.1038.0231-.0802.0232-.0883.0231-.0803.0275-.1047.0146-.0759.0233-.0802.0185-.097.0162-.0833.0184-.1057.0071-.0732.0118-.055.0194-.1013.0095-.098.0076-.0782.0077-.0723.0023-.0233.013-.0116.052-.0339.0737-.0574.062-.0481.0814-.0635.0542-.0563.0525-.0409.0717-.065.0705-.0642.0542-.0563.053-.0482.0793-.072.054-.0643.0532-.0483.0782-.0812.054-.0641.0619-.0643.0608-.0721.0617-.0723.0618-.0732.0602-.0804.054-.0723.0471-.0628.0676-.079.0607-.09.0616-.0823.051-.0882.047-.0699.061-.0906.0504-.087.054-.0884.0464-.0803.0542-.0882.0524-.0907.0526-.1004.0465-.0965.0494-.094.0412-.0942zM1.924 16.149l.0393.0634.0593.1155.0768.133.0771.1246.0773.1122.0694.1124.0859.1248.0773.1044.0773.1123.081.1094.0823.111.085.1044.0197.0267.0157.0435.0417.1297.058.1381.048.1245.0565.1256.054.1285.056.1243.058.1292.0661.1289.066.1284.0123.0215-.0368-.0447-.0882-.1143-.085-.1124-.0891-.1157-.0776-.1099-.0806-.1218-.073-.1138-.0814-.1353-.085-.1204-.0662-.11-.0696-.1283-.0749-.1247-.0658-.129-.0655-.121-.0619-.1364-.0694-.1284-.0564-.1246-.062-.1366-.0582-.1284-.0507-.1282-.0528-.1331-.054-.1446-.0509-.1282zm20.1308.044-.0029.0075-.0463.1445-.0495.125-.0524.1318-.0582.1362-.0586.129-.0617.1286-.0637.1403-.0564.1247-.0655.1208-.0696.1366-.0634.1171-.0773.1284-.0696.1284-.069.1147-.082.124-.0773.1205-.0806.1218-.0818.1158-.085.1204-.0816.1157-.0805.1063-.0881.1145-.0369.0446.0124-.0214.0619-.1204.0743-.1288.0578-.1287.0575-.1119.066-.1289.0582-.129.0558-.1245.058-.1376.0498-.1295.0465-.1284.0463-.1204.0255-.0707.06-.0737.0822-.111.0773-.1044.081-.1094.081-.1176.0736-.107.0824-.1114.0804-.13.0696-.1203.0696-.1125.0694-.1204zm-16.025.3542.049.0256.0543.0321.0795.0414.0453.02.061.0363.0806.0313.0466.0209.0542.0241.054.024.054.0242.0542.024.0743.033.0542.0162.054.024.0442.0131.0463.0242.0853.0252.0468.014.0463.016.0542.016.0391.0136.0463.016.0763.0263.054.0082.0166.0056.0723.025.0362.0064.0386.016.0835.0144.0092.0017.0386.016.078.0135.0386.008.0149.0027.0334.0138.0698.0146.0387.008.0386.008.0387.008.0305.0064.031.008.0386.008.031.008.0386.008.0644.0168h.0385l.0204.0052.031.0082.0309.008.031.008.0179.0047.023.008.044.0115.018.0045.023.008.031.008.0232.008.022.0057.027.014.0466.016.002.0009.0233.016.0464.0161.023.016.0233.008.0463.0322.0233.008.0252.0174-.0076-.0078.0463.0321.0154.016.0462.0318.0001.0003h.0002l.0003.0003.0382.0398.0228.0157.0004.0003.0144.0149.0374.0388.0101.0105.0617.0642.0078.0055.0053.008.0476.0494.0232.0242.0231.0241.0057.0058.0232.0322.0406.0423.0057.0058.0231.0321.0233.0242.0232.0321.0231.024.0232.0321.031.0322.023.0321.0408.0422.0135.014.023.032.0485.0502.031.0322.0134.014.0116.016.0463.0603.0445.0462.0446.0463.0233.0194.019.0245.0444.0462.0387.0402.0445.0462.0235.0196.0188.0243.066.0685.0386.0322.0386.0401.051.0423.0315.0273.041.0426.0511.0425.0436.0378.049.0425.0387.032.0438.038.0699.0603.054.0321.0228.0198.0699.0605.0541.0321.0328.0284.079.0586.0541.0322.054.0401.054.032.005.0038-.04.0166-.0624.0194-.0773.0242-.073.0227-.085.0242-.0658.0203-.073.0152-.0822.0232-.085.0162-.085.024-.07.0133-.085.016-.0852.0162-.0683.0128-.0927.008-.0851.0162-.076.0066-.107.0092-.0783.0134H9.644l-.1061.0092-.086.007h-.094l-.0926.008H9.101l-.0927-.008h-.1016l-.1005-.008h-.0994l-.0793-.007-.0885-.007-.1004-.0162-.1005-.008-.0874-.014-.1023-.0163-.1082-.0161-.0986-.0157-.0877-.014-.0905-.0217-.1023-.023-.0162-.0186-.0696-.0802-.0694-.0803-.0628-.0724-.0567-.0737-.0696-.0883-.0557-.0723-.0553-.079-.054-.0802-.0619-.0883-.0478-.071-.05-.0817-.0541-.0883-.0582-.095-.0474-.0702-.037-.0706-.052-.099-.0509-.0828-.0333-.0695-.0494-.0939-.0403-.0768-.0333-.0764-.0414-.0943-.0386-.0803-.0304-.0693-.031-.0884-.0408-.0935-.0258-.0672-.0291-.083-.0328-.0935-.0255-.0665-.0232-.0883-.031-.0802-.019-.0728-.0232-.0802-.0233-.0883-.0189-.0654-.0153-.0882-.024-.0833-.0124-.0636-.0154-.0803zm11.943.0027-.008.0428-.0123.0637-.0232.0802-.0163.0849-.0189.0718-.0232.0802-.0231.0883-.0232.0803-.019.0727-.031.0803-.0246.0939-.0242.0688-.0309.0803-.0327.0937-.0242.0688-.0386.0803-.033.0945-.0331.0756-.036.0821-.033.0686-.0495.0942-.0386.0882-.0403.0769-.043.0816-.0462.0803-.0443.0842-.054.0883-.0427.0813-.0474.0702-.0583.095-.0439.0718-.0619.0803-.054.0883-.055.0715-.062.0882-.0555.0723-.0696.0883-.0567.0736-.0628.0725-.0696.0802-.0729.0842-.061.0137-.0905.0216-.0877.0141-.1105.0176-.1082.0241-.0774.0124-.1004.008-.1005.016-.0873.007-.1015.0082-.0927.008-.0995.0078-.087.007h-.1016l-.0927.008h-.1644l-.0926-.008H14.58l-.0927-.008h-.0928l-.0782-.0068-.0915-.0078-.0708-.0067-.094-.0163-.0902-.0077-.085-.0162-.0927-.008-.0685-.0128-.085-.0162-.0702-.0132-.085-.0241-.0807-.0152-.0773-.0241-.085-.016-.0629-.0196-.085-.0242-.073-.0227-.0773-.0241-.0772-.024-.061-.019.0235-.0154.0636-.0376.0638-.0473.0463-.0322.0586-.0434.0496-.0368.0464-.0322.0691-.0512.0421-.0364.0463-.0322.0607-.0525.032-.0277.0596-.0413.0518-.0539.0317-.0273.0509-.0423.0279-.029.0463-.0321.063-.0654.0251-.026.0538-.0447.031-.0401.0233-.0195.0524-.0544.0308-.032.0386-.0401.031-.0321.0445-.0463.0309-.0401.0174-.018.0308-.0322.0309-.032.031-.0321.0484-.0503.023-.0322.031-.032.0233-.032.0307-.0322.0233-.0322.0134-.014.0406-.042.038-.0528.0085-.0116.0056-.006.031-.032.0232-.024.0406-.0423.0438-.0606.0018-.0027.022-.023.0231-.024.0233-.024.0374-.039.0004-.0004.0097-.01.0518-.0538.0097-.01.0003-.0005.0376-.0388.0142-.015.0232-.016.0154-.016.0232-.016.0231-.0242.0097-.0066.008-.0028.0771-.0536.0078-.0027.0467-.0322.023-.008.0232-.016.0463-.0161.0232-.016.0464-.016.0117-.0083-.0146.004.036-.0126.0105-.0036.0308-.008.0232-.008.018-.0047.044-.0115.023-.008.018-.0047.0309-.008.031-.008.0309-.008.0308-.008.031-.008.0308-.008.031-.008.0228-.006.0386-.008.031-.008.0386-.008.0278-.0075H15.875l.0723-.015.07-.0146.0387-.016.0072-.0016.0387-.008.0386-.008.0332-.0068.0463-.008.0654-.0136.0463-.0161.012-.0023.0677-.0118.0463-.0161.0464-.008.0723-.025.0205-.0072.0463-.008.0723-.0249.0391-.0136.0542-.016.0536-.0187.039-.0135.047-.0139.0613-.0182.0673-.0233.047-.0209.0541-.0161.0542-.024.054-.0162.0744-.033.054-.024.0542-.0242.054-.0241.054-.024.0636-.0284.062-.032.0629-.028.047-.0281.062-.024.0698-.0415zM4.2995 18.9592l.0097.0069.0928.0803.1077.0776.1003.078.106.0678.1006.0722.1083.0693.1006.0643.109.0696.1004.0563.105.067.117.061.1054.0587.1052.0505.1082.0561.1054.0507.1047.0501.1082.0482.1102.053.119.044.1005.0401.108.0402.1078.043.1044.0333.1082.0401.1113.0356.1201.0356.1005.0242.1082.0321.009.0022.0496.0572.0838.0869.0831.0864.0918.0867.0839.0785.078.0662.0773.0802.104.0886.0928.0721.0792.0674.0908.0772.1064.0827.0926.0643.0929.0723.1059.0734.1005.0642.0927.0642.1058.0677.1005.0641.109.0698.114.0636.1081.0563.1004.0561.1129.0587.1082.0562.1174.0609.1125.0501.1159.0562.0252.0113-.0565-.0033-.1308-.008-.1224-.0075-.129-.015-.1302-.0158-.1325-.0161-.1292-.015-.1204-.022-.133-.0245-.139-.024-.1201-.022-.1218-.0299-.1334-.0326-.1392-.0321-.12-.0293-.122-.0373-.1315-.0402-.1224-.0373-.1315-.0483-.1313-.0401-.1143-.0419-.1313-.056-.1314-.0482-.1195-.0513-.1238-.0561-.123-.0527-.108-.0561-.0686-.0474-.105-.08-.1037-.0846-.1128-.092-.1047-.0798-.0962-.0922-.1132-.0925-.0978-.087-.0956-.0917-.0954-.0914-.1004-.1044-.0954-.0914-.088-.099-.1053-.1096-.0833-.0865-.0833-.101-.0892-.1094-.0885-.0996-.0765-.101-.0838-.111-.0772-.1043-.0812-.1073-.0695-.101-.0772-.1203-.0806-.1171-.0692-.1007zm15.3985.0022-.0606.1047-.0692.1007-.0805.117-.0772.1205-.0659.0955-.085.1044-.0808.1177-.0716.0946-.0928.1044-.085.1124-.0833.0937-.0928.1043-.0927.1044-.088.099-.0907.0941-.1003.0964-.0883.0916-.1028.0915-.1005.0965-.1082.0962-.095.091-.0973.0796-.1037.0845-.116.0884-.1081.0883-.105.0799-.0312.0216-.0252.0115-.1201.0624-.1197.0512-.1348.0577-.1237.0561-.1196.0512-.123.0451-.1225.045-.1315.0401-.1313.0482-.1225.0373-.1288.0395-.13.0374-.1246.0305-.1313.032-.1293.0316-.1295.03-.1238.0227-.1298.0236-.1292.0225-.133.0163-.1302.0238-.1292.0149-.1224.015-.1207.0074-.139.008-.132.008-.0175.0011.1147-.051.1083-.0563.1082-.0482.1172-.0608.113-.0586.1005-.0563.117-.0608.105-.0671.1005-.0562.109-.0697.1005-.0642.1058-.0677.106-.0733.0876-.0684.1067-.0682.09-.0763.0866-.06.1064-.0829.0906-.0771.085-.0723.092-.0782.085-.0803.0914-.0776.0773-.0802.085-.0723.0896-.093.0836-.087.0636-.0732.0023-.002.0548-.0163.1038-.0248.109-.035.1082-.032.1005-.032.1197-.0356.111-.0444.1081-.0401.1004-.0402.119-.044.1042-.05.096-.0383.1187-.0528.1097-.0527.1082-.0561.1052-.0505.1099-.0614.0958-.0537.1171-.0608.105-.067.1004-.0562.109-.0698.1085-.0693.1004-.0722.106-.0677.1003-.0781.095-.0684.1133-.0815zm-7.7 1.1333.0617.0285.0694.024.0543.0251.0849.0392.0757.0262.0773.0321.0696.0242.0821.034.0922.0287.0773.0241.0773.0242.0815.0254.085.024.0915.0285.085.0161.0773.024.0893.017.085.024.1.0189.0849.016.1016.0193.0926.008.085.016.0954.0082.0915.0159.0991.0094.094.008.1072.0094h.0927l.0928.008h.1004l.0928.008h.222l.0928-.008h.0993l.1138-.0091.1016-.0081.0647-.0056-.0134.0114-.079.0616-.099.0684-.08.0682-.0943.0602-.0978.0762-.0793.055-.0951.0607-.1005.0642-.092.0588-.1003.0562-.096.0613-.0993.0515-.1004.0562-.1035.0537-.099.0514-.1083.0482-.1082.0563-.0947.0421-.112.0466-.11.0456-.1081.0401-.1125.0468-.103.0357-.1238.0401-.1088.0378-.1128.0312-.121.0392-.1165.0303-.116.032-.1109.029-.1237.024-.1236.032-.0867.017-.0145-.0028-.1236-.0241-.1135-.022-.1136-.0296-.1236-.032-.121-.0315-.116-.0322-.1132-.0293-.1064-.0368-.1236-.0401-.1129-.039-.106-.037-.1026-.0426-.1175-.0522-.116-.0401-.0899-.0401-.116-.0562-.1038-.0462-.099-.0514-.1082-.0562-.1034-.0537-.1005-.0563-.1082-.0561-.087-.0486-.0918-.0588-.1006-.0643-.095-.0607-.0927-.0643-.1005-.064-.0794-.0551-.0927-.0723-.0928-.0643-.0791-.0616-.073-.0619h.0007l.1061.0092h.1016l.1003.008h.0994l.0928.008h.222l.0928-.008h.0916l.1149-.0092.0794-.0069h.0993l.1071-.0185.0785-.0067.1094-.0096.085-.016.0928-.008.1016-.0193.0997-.019.0851-.0239.085-.0161.0878-.025.0817-.017.0887-.0275.085-.0241.0815-.0254.0773-.024.092-.0287.0823-.0342.0548-.019.0934-.0291.0838-.0386.0615-.0257.076-.0262.0848-.0392.0768-.0354zm.0084 2.9069.1272.0233.1238.016.1313.0242.1436.0186.1327.008.1313.0162.1416.0086.1307.008.1337.0086h.1327l.139.008h.089l-.1195.0208-.1375.0225-.1301.015-.146.016-.1477.016-.1301.0151-.1372.0075-.1392.008-.1462.008-.1376.0075H11.7773l-.1372-.0075-.1391-.008-.1473-.008-.1368-.0075-.13-.015-.147-.016-.13-.015-.1375-.0226-.139-.024-.0773-.0127h.0472l.1313-.0081h.1315l.1414-.0086.1315-.008.1313-.008.1428-.0088.1337-.0174.1313-.016.1337-.0174.1313-.024.1236-.0162z"/></svg>