<svg viewBox="0 0 16 16" xmlns="http://www.w3.org/2000/svg" fill-rule="evenodd" clip-rule="evenodd" stroke-linejoin="round" stroke-miterlimit="1.414"><path d="M8.007 2.65l.007-.008c.333-.32.685-.62 1.062-.887.148-.105.3-.205.457-.3.136-.08.275-.155.417-.224.11-.05.22-.1.333-.144.1-.04.205-.074.31-.103.16-.045.322-.078.487-.093l.105-.006h.077c.047 0 .094 0 .14.005.1.007.2.025.297.053.084.025.167.058.246.1.05.025.096.055.14.087.078.055.15.118.213.187.057.063.11.13.157.2.102.154.18.323.24.496.018.05.035.102.05.154.02.067.036.136.05.205.02.088.036.176.05.264.016.11.027.22.035.332.01.147.016.295.015.443 0 .193-.01.384-.028.574-.022.234-.053.467-.093.698-.024.14-.052.278-.082.417-.017.077-.035.156-.055.234l.13.038c.24.073.478.153.71.243.188.073.372.15.553.237.163.077.322.16.478.25.168.098.33.203.485.318.133.098.26.205.38.32.09.088.174.18.252.28.064.083.124.17.175.262.07.125.126.258.16.397.02.085.034.174.037.263 0 .055 0 .11-.006.166-.01.093-.03.186-.057.276-.026.086-.06.17-.1.25-.088.172-.203.33-.332.476-.04.044-.08.087-.122.128-.054.055-.11.107-.168.157-.072.063-.148.124-.224.182-.1.074-.202.145-.307.212-.132.085-.27.165-.407.24-.173.09-.35.176-.53.254-.178.08-.36.15-.545.217-.155.056-.313.108-.472.156l-.053.015c.02.08.04.16.057.24.026.12.05.237.07.356.044.242.077.485.098.73.016.187.025.375.026.564 0 .146-.005.292-.016.438-.01.115-.022.23-.04.344-.014.093-.03.185-.052.277-.017.072-.036.145-.057.216-.037.125-.083.25-.14.37-.045.095-.098.188-.158.277-.06.088-.13.17-.206.246-.087.085-.185.158-.292.216-.08.042-.163.076-.25.102-.134.04-.275.06-.415.064-.19.006-.38-.018-.566-.06-.117-.027-.23-.06-.344-.1-.126-.043-.25-.094-.37-.15-.146-.066-.288-.14-.426-.22-.16-.093-.316-.193-.468-.3-.39-.27-.754-.58-1.096-.91l-.077.072c-.156.148-.318.29-.485.427-.167.137-.34.267-.517.39-.158.11-.322.213-.49.31-.16.09-.325.173-.493.247-.118.05-.237.097-.358.137-.115.037-.23.07-.347.094-.185.04-.373.062-.562.056-.147-.004-.295-.025-.437-.07-.09-.026-.174-.062-.255-.107-.056-.03-.11-.066-.16-.104-.035-.03-.07-.058-.1-.09-.025-.02-.048-.045-.07-.07-.14-.148-.245-.324-.326-.51l-.036-.087c-.015-.038-.03-.076-.042-.114-.017-.054-.034-.108-.048-.16-.018-.066-.034-.132-.047-.197-.02-.09-.035-.178-.047-.267-.015-.115-.026-.23-.033-.347-.008-.148-.01-.295-.007-.44.004-.19.016-.378.036-.565.023-.235.06-.47.103-.703.036-.19.078-.382.125-.57l-.2-.06c-.24-.075-.475-.16-.706-.253-.16-.066-.317-.136-.472-.212-.145-.07-.288-.147-.428-.23-.174-.1-.342-.21-.503-.33C.91 9.523.777 9.41.654 9.29.562 9.2.475 9.104.395 9c-.07-.09-.134-.183-.19-.282-.05-.09-.093-.186-.127-.284-.015-.044-.03-.09-.04-.134C.016 8.208.003 8.113 0 8.018c0-.06.002-.12.008-.178.006-.044.013-.09.023-.133L.06 7.6c.064-.21.175-.406.31-.58.018-.026.037-.05.057-.074.026-.032.053-.063.08-.093.038-.042.077-.082.118-.122.055-.053.112-.105.17-.156.075-.063.15-.122.228-.18.1-.073.204-.143.31-.208.13-.083.266-.16.404-.23.176-.093.356-.176.54-.253.33-.14.668-.255 1.012-.355l.082-.024c-.052-.21-.1-.42-.138-.632-.042-.227-.075-.456-.098-.686-.02-.182-.03-.366-.035-.55-.003-.147 0-.296.007-.443.006-.113.016-.225.03-.336.012-.09.027-.18.045-.27.013-.072.03-.142.05-.213.014-.054.03-.108.048-.16l.037-.104c.01-.03.023-.06.036-.088.08-.184.185-.36.32-.508.032-.034.065-.066.1-.096.03-.028.062-.054.095-.08.046-.032.093-.062.143-.09.08-.044.167-.08.255-.105.096-.03.194-.047.294-.056C4.587.904 4.62.9 4.65.9h.053c.013-.002.027-.002.04-.002h.054l.11.008c.163.014.324.045.48.088.106.028.21.062.31.1.11.04.215.085.32.134.16.075.316.158.468.248.166.097.326.2.483.312.186.13.367.27.542.417.14.116.276.236.41.36l.087.084zm4.007 8.198c-.117.027-.235.053-.353.076-.27.055-.542.102-.815.142-.293.042-.586.077-.88.105-.04.005-.08.01-.118.012-.186.27-.38.534-.578.792-.214.275-.434.543-.665.8-.033.038-.066.075-.1.11.296.286.61.554.943.793.137.098.277.19.422.278.12.072.246.14.374.202.11.052.22.1.336.142.09.03.18.06.274.082.078.02.157.034.236.042.066.008.132.01.198.01.102-.005.205-.02.3-.06.026-.013.053-.026.078-.04.057-.036.108-.08.152-.13.062-.07.112-.148.155-.23.015-.027.03-.055.042-.084.018-.04.034-.08.05-.123.02-.052.036-.105.05-.158.02-.067.036-.134.05-.2.02-.092.033-.183.045-.276.012-.095.02-.192.025-.288.012-.222.008-.444-.007-.666-.014-.213-.04-.425-.073-.636-.028-.177-.062-.353-.1-.528l-.04-.168zm-7.993.03c-.023.097-.046.194-.067.29-.072.332-.127.668-.156 1.007-.02.224-.027.45-.02.674.004.096.01.194.02.29.01.09.023.177.04.265.01.064.026.13.042.192.013.052.028.103.045.153.014.04.03.08.046.12l.043.09c.01.023.023.045.036.067.008.016.018.032.028.048l.026.038c.056.08.124.153.207.206l.058.03c.046.023.095.04.145.052.065.015.132.023.198.025.068.002.136 0 .202-.008.08-.01.16-.024.24-.042.094-.02.187-.05.278-.08.107-.037.212-.08.315-.126.143-.065.283-.138.42-.217.15-.087.298-.183.442-.283.152-.107.3-.22.443-.338.087-.07.172-.144.255-.218.073-.065.144-.13.215-.198l.03-.03-.174-.19c-.233-.26-.456-.528-.67-.8-.183-.232-.36-.468-.53-.707-.02 0-.04-.003-.06-.004-.31-.026-.617-.06-.924-.1-.28-.04-.56-.085-.838-.138-.11-.022-.222-.045-.333-.07zm4.946.362c-.307.014-.615.02-.923.022-.293 0-.586-.004-.88-.015l-.1-.003.204.262c.194.246.396.486.605.72.05.057.102.114.155.17l.08-.09c.212-.237.414-.483.61-.735.084-.108.167-.218.25-.33zm.494-5.762c-.318-.024-.637-.04-.955-.048-.154-.004-.307-.006-.46-.007h-.067c-.148 0-.296.002-.444.006-.33.007-.66.023-.99.048-.193.28-.377.567-.553.857-.2.333-.394.673-.576 1.017-.113.215-.222.432-.328.65.116.242.238.48.364.716.187.35.384.694.592 1.03.164.266.333.528.51.785.197.012.396.022.594.03.285.01.57.015.854.015.49 0 .978-.016 1.465-.05.167-.25.328-.504.484-.76.35-.576.676-1.168.97-1.775-.1-.205-.206-.41-.315-.61-.14-.264-.287-.525-.438-.782-.212-.36-.435-.716-.668-1.064l-.04-.058zm-4.736 3.33c-.077.18-.15.366-.22.55-.11.285-.21.572-.3.86.172.04.344.072.516.102.25.044.504.08.757.112.068.01.135.017.203.024-.112-.173-.22-.348-.327-.524-.22-.368-.43-.744-.63-1.125zm6.565-.026c-.103.197-.208.39-.316.585-.12.216-.245.43-.373.644-.087.146-.176.29-.266.434l.148-.018c.248-.032.495-.07.74-.114.203-.036.404-.077.604-.122-.087-.274-.184-.545-.29-.812-.078-.2-.16-.4-.247-.596zm-7.74-2.8c-.073.02-.146.043-.22.066-.246.075-.49.16-.727.258-.143.058-.284.12-.423.19-.15.073-.297.152-.44.24-.125.075-.248.158-.365.248-.087.066-.17.136-.25.212-.065.063-.128.13-.186.2-.045.055-.086.11-.122.17-.03.05-.056.1-.077.154-.03.073-.05.15-.055.23-.002.02-.002.04 0 .06.003.088.026.176.06.257l.02.043.025.052.04.07c.017.028.036.057.056.085.024.033.048.065.074.096.032.04.066.078.1.115.044.046.09.09.136.134.053.05.11.097.166.143.076.06.156.12.237.176.1.07.204.135.31.197.136.08.276.152.417.22.172.082.347.157.525.225.152.058.306.113.46.162l.23.07c.064-.212.134-.42.208-.63.124-.348.26-.693.408-1.033.056-.13.114-.258.173-.387-.057-.125-.113-.252-.168-.378-.15-.347-.29-.698-.416-1.054-.07-.194-.134-.39-.195-.588zm8.907.01c-.053.172-.11.343-.17.513-.126.358-.267.712-.418 1.06l-.19.425c.08.172.16.346.236.52.143.325.276.654.396.987.063.172.122.346.177.52l.117-.036c.135-.04.268-.086.4-.134.265-.097.525-.206.778-.33.154-.077.304-.16.45-.25.126-.077.25-.16.366-.25.087-.065.17-.135.25-.21.07-.067.138-.138.2-.214.046-.055.088-.113.125-.174.03-.05.058-.102.08-.156.033-.076.055-.157.06-.24.002-.023.002-.046 0-.07-.003-.054-.014-.108-.03-.16-.023-.07-.055-.134-.09-.197l-.037-.058-.053-.074c-.024-.032-.05-.062-.074-.092-.03-.037-.065-.073-.1-.108-.044-.044-.09-.086-.135-.127-.06-.052-.122-.103-.186-.15-.075-.056-.15-.11-.227-.16-.1-.064-.204-.126-.31-.184-.134-.074-.27-.142-.41-.207-.164-.075-.33-.143-.498-.207-.232-.087-.47-.164-.708-.233zM8 6.56c.79 0 1.43.64 1.43 1.43 0 .787-.64 1.427-1.43 1.427-.79 0-1.43-.64-1.43-1.428 0-.79.64-1.43 1.43-1.43zm2.336-.99c.176.274.345.554.508.837.15.262.298.527.44.795.085-.202.167-.406.245-.612.095-.253.184-.508.265-.766-.17-.04-.342-.075-.514-.107-.313-.06-.628-.108-.944-.148zm-4.67-.003c-.145.018-.288.038-.432.06-.245.037-.49.08-.733.13-.095.018-.19.038-.285.06.085.275.18.548.282.817.072.19.147.38.226.567.18-.348.368-.69.567-1.025.122-.205.247-.41.375-.61zm6.313-.402l.03-.133c.04-.174.074-.348.103-.524.038-.228.067-.46.084-.69.016-.225.022-.452.01-.678-.004-.102-.012-.205-.024-.306-.01-.09-.024-.177-.042-.264-.013-.068-.03-.135-.047-.2-.014-.05-.03-.1-.048-.15L12 2.104l-.037-.078c-.013-.024-.025-.048-.04-.07-.01-.02-.022-.04-.035-.058-.01-.013-.018-.027-.027-.04-.058-.08-.13-.15-.215-.2-.027-.017-.055-.03-.084-.04-.073-.03-.15-.044-.23-.05-.02 0-.042 0-.063-.002h-.024c-.023 0-.046 0-.07.003-.062.003-.124.01-.186.022-.074.013-.147.03-.22.05-.092.028-.184.06-.274.096-.105.042-.208.09-.31.14-.13.066-.257.138-.38.215-.138.085-.272.175-.402.27-.322.235-.626.497-.913.774l.134.147c.255.282.497.575.73.875.168.217.33.44.49.665.136.012.272.027.41.043.3.035.6.078.9.13.278.047.554.1.83.165zM7.53 3.137c-.015-.013-.03-.026-.043-.04-.13-.12-.262-.24-.4-.354-.15-.127-.307-.25-.468-.365-.143-.102-.29-.198-.44-.288-.13-.078-.262-.15-.4-.217-.096-.047-.195-.09-.296-.13-.09-.034-.183-.064-.276-.09-.07-.02-.138-.034-.208-.047-.062-.01-.125-.018-.188-.022l-.073-.002H4.72c-.02 0-.04 0-.06.002-.096.005-.193.023-.282.062-.03.013-.057.028-.084.046-.056.037-.105.084-.148.135-.058.07-.104.147-.143.228l-.038.084c-.015.036-.03.073-.04.11-.017.05-.032.097-.044.145-.017.064-.03.13-.043.195-.016.084-.028.168-.037.254-.01.097-.017.195-.02.294-.01.22-.002.442.016.663.027.344.08.685.153 1.022.024.11.05.223.077.334.105-.024.21-.047.316-.068.247-.05.495-.094.744-.132.274-.043.55-.078.824-.107.084-.01.168-.02.25-.026.162-.227.328-.45.5-.67.22-.28.447-.555.684-.82l.18-.197zm.478.488l-.163.18c-.214.24-.42.486-.618.738l-.17.22c.124-.007.247-.012.37-.015.16-.005.32-.007.48-.008h.116c.144 0 .288.002.432.005.165.004.33.01.494.017l-.153-.2c-.21-.272-.43-.538-.66-.794l-.13-.143z"/></svg>