<svg role="img" viewBox="0 0 24 24" xmlns="http://www.w3.org/2000/svg"><title>React-PDF</title><path d="M7.694 1.229a2.346 2.346 0 0 0-1.221.29c-.619.332-1.087.815-1.474 1.87-.172.47-.429 1.738-.473 2.47-.024.386-.039.79-.05.972.31-.155.51-.274.843-.444.617-.314 1.205-.48 1.345-.523l.222-.066-.159.196c-.307.356-.844.894-1.144 1.651-.313.788-.365 1.56-.309 2.078.124 1.142.362 1.615.641 2.193.143.295.322.58.499.881.675-2.286 1.236-3.737 2.143-5.406-.301.08-.617.17-1.014.274-.345.09-.519.125-.887.22-.4.09-.46-.081-.482-.116-.115-.19.035-.41.128-.506.322-.33.592-.6 1.013-.979C8.95 4.736 10.993 3.407 12.1 2.788c-.053-.028-2.711-1.51-3.855-1.534-.166 0-.348-.02-.552-.025Zm9.315.028c-1.238-.01-2.58.427-4.219 1.296-2.262 1.201-4.022 2.587-5.365 3.794-.365.329-.909.853-1.08 1.058-.1.119-.105.23-.067.294.054.092.174.102.254.084.2-.046.605-.143.991-.244.502-.13.619-.17 1.266-.34.874-.232 1.74-.437 2.877-.587.869-.115 1.361-.19 2.238-.175 1.316.023 2.324.073 3.327.539.705.329 1.367.95 1.703 1.343.228.269.423.666.57 1.035.11.271.143.417.244.72.074-.3.16-.705.198-1.173.074-.726.077-1.598.08-2.534 0-1.106-.23-2.896-.816-3.8-.612-.944-1.374-1.303-2.2-1.31ZM6.526 6.03c-.577.164-1.286.483-2.678 1.288C2.5 8.096 1.537 8.729.533 10.064c-.221.353-.323.52-.43.902-.112.408-.146.917-.035 1.277.11.36.398.974.699 1.342.188.23.688.771 1.366 1.324.461.376 1.169.842 1.562 1.107 2.195 1.392 4.527 2.23 5.899 2.64.533.16.814.253 1.185.343.181.044.404.076.479-.063.073-.136-.058-.283-.136-.355-.13-.118-.202-.2-.303-.297-.344-.335-.893-.87-1.325-1.33-.886-.948-1.304-1.426-2.143-2.533-.591-.773-1.03-1.366-1.56-2.462-.395-.818-.588-1.328-.647-2.233-.065-.868.065-1.505.314-2.132.207-.52.707-1.185 1.068-1.565Zm7.514.55c.198.338 2.416 2.681 3.446 4.365.08-.29.16-.615.234-.892.12-.46.174-.626.305-1.021.057-.175.198-.295.342-.295.18 0 .303.132.35.29.072.24.227.857.342 1.404.246 1.168.39 2.159.48 3.254.098 1.22.118 2.177.052 3.418.148-.066.458-.229.745-.388.379-.209.652-.369.952-.566a9.98 9.98 0 0 0 1.454-1.178c.31-.315.54-.544.787-.927.256-.4.427-.803.463-1.316.025-.351 0-.849-.242-1.309-.294-.558-.523-.815-.937-1.274a6.755 6.755 0 0 0-1.178-1.073c-.57-.424-1.185-.863-1.514-1.04-.02.31-.04.572-.055.886-.016.3-.12.842-.13.883-.056.22-.155.681-.171.694-.068-.212-.224-.715-.375-1.095-.174-.435-.369-.77-.555-.99-.219-.26-.674-.81-1.665-1.312-.863-.437-1.635-.467-3.13-.518Zm4.336 2.277c-.087 0-.187.072-.234.209-.058.17-.185.562-.303 1.014l-.296 1.136c-.271 1.046-.745 2.297-1.293 3.477-.66 1.424-1.456 3.115-3.05 4.1-.541.336-1.369.671-2.107.694a6.342 6.342 0 0 1-1.782-.231c.463.47.858.813 1.42 1.209 1.036.751 2.266 1.29 3.151 1.693.736.335 1.774.624 2.55.543.93-.099 1.503-.514 1.89-1.043.155-.212.45-.831.532-1.06a9.71 9.71 0 0 0 .423-1.63c.127-.7.144-1.103.188-1.812.18-2.888-.22-5.246-.525-6.7a21.69 21.69 0 0 0-.338-1.395c-.035-.118-.13-.204-.226-.204Zm-6.44.969a2.192 2.224 0 0 0-2.191 2.223 2.192 2.224 0 0 0 2.191 2.224 2.192 2.224 0 0 0 2.192-2.224 2.192 2.224 0 0 0-2.192-2.223Zm-7.858 6.563c.004.217.012.63.008.898-.013.752.06 1.672.22 2.34.23.976.418 1.568 1.011 2.265.386.455.662.608 1.168.775.482.157.92.108 1.471.053.619-.062 1.53-.402 1.83-.511.813-.328 1.538-.705 1.922-.953-1.359-.811-2.182-1.575-2.578-2.013l-.184-.198.194.044c.29.066 1.17.325 1.944.275.738-.047 1.516-.354 2.046-.683a5.435 5.435 0 0 0 1.795-1.778c-1.652.493-2.987.665-4.71.607.254.254.492.49.682.675.242.236.247.245.398.419.15.153.113.317.079.378a.373.373 0 0 1-.285.183c-.112.014-.225-.017-.338-.043-.244-.05-.647-.177-1.182-.338-1.292-.386-3.873-1.353-5.491-2.395Z"/></svg>