<svg role="img" viewBox="0 0 24 24" xmlns="http://www.w3.org/2000/svg"><title>React-PDF</title><path d="M6.663 7.278c-.457.46-.084.396.209.346.215-.036.32-.065.453-.1.232-.057.462-.126.688-.206.174-.058.357-.12.564-.176.076-.02.189-.054.328-.095.462-.137 1.214-.36 1.89-.488.892-.183 1.8-.279 2.71-.285l.364-.008c.734-.019 1.25-.032 2.046.143.692.152 1.096.25 1.71.6.347.198.537.326.832.594.217.197.328.32.51.552.203.258.274.384.453.701l.014.025.1.17c.092.158.193.33.193.36.013-.116.025-.186.036-.25.022-.13.04-.242.06-.658.043-.84-.02-1.458-.058-1.858v-.003l-.016-.16c-.13-1.43-.388-2.385-.526-2.799-.242-.724-.423-1.079-.692-1.425-.507-.654-1.131-.966-1.49-1.01-.867-.109-1.33.02-2.17.405-.716.324-1.417.683-2.098 1.077-.776.44-1.204.707-1.942 1.203-.773.52-1.186.823-1.915 1.402-.596.474-.926.745-1.495 1.25-.3.266-.566.503-.758.693Zm11.89 2.341c-.13-.57-.234-.386-.358.056-.032.11-.053.195-.073.275-.033.128-.061.242-.122.42a7.58 7.58 0 0 0-.151.54c-.05.193-.102.4-.173.624-.243.77-.43 1.203-.732 1.912l-.052.12c-.1.236-.187.45-.27.65-.246.603-.446 1.093-.84 1.76-.396.671-.651 1.01-.832 1.25-.05.065-.093.123-.133.18a5.313 5.313 0 0 1-.905 1.01c-.334.284-.607.493-1.057.711-.331.16-.54.228-.903.314-.25.06-.445.08-.654.102l-.136.015c-.215.018-.43.02-.645.003l-.13-.005c-.2-.007-.463-.039-.5-.06.18.165.364.331.696.56.794.546 1.022.7 1.708 1.098l.336.197c.575.338.987.58 1.69.844.75.28 1.546.56 1.982.514l.056-.006c.476-.05 1.363-.142 1.833-.832.23-.337.417-.78.58-1.32.149-.48.18-.82.22-1.24.015-.145.029-.298.05-.469.078-.66.1-1.033.138-1.696l.005-.078c.043-.783.07-1.247.045-2.052-.014-.444-.04-.742-.07-1.112l-.001-.003-.034-.408-.025-.32a21.824 21.824 0 0 0-.543-3.554Zm-7.64 8.906c.17.221.225.39-.338.23-.496-.14-1.09-.36-1.778-.623-.103-.04-.2-.076-.292-.11a15.16 15.16 0 0 1-1.567-.667c-.161-.08-.325-.156-.495-.235a19.784 19.784 0 0 1-3.086-1.757c-.858-.586-1.34-.934-2.098-1.627-.09-.083-.825-.845-1.045-1.537-.202-.636-.324-1.04-.072-1.707.169-.405.553-.847 1.064-1.286.358-.309 1.22-.934 2.212-1.495.092-.053.183-.107.273-.163.237-.144.527-.32 1.145-.63l.099-.05c.487-.244.599-.3.95-.455.086-.04.37-.137.37-.137a1.28 1.28 0 0 1-.171.252 2.084 2.084 0 0 0-.153.212c-.153.256-.207.35-.272.467l-.065.114-.075.144c-.122.231-.2.378-.295.664-.084.253-.15.464-.16.8-.018.583.019 1.265.122 1.646.166.612.468 1.517.998 2.37.167.267.3.44.458.645.065.084.133.174.21.277l.027.036c.294.395.466.627.783 1.02.319.395.515.62.833.982l.06.07c.328.374.533.597.84.932l.12.13c.268.292.419.456.69.746.105.11.206.21.302.305.156.155.297.295.406.437ZM6.476 7.28l-.01.01c-.416.41-.084.523.192.485.286-.04.822-.14 1.057-.23.173-.044.413-.126.66-.21.154-.053.31-.107.457-.153-.128.203-.25.41-.365.62-.365.674-.934 2.112-1.037 2.425-.224.68-.568 1.77-.646 2.102-.05.21-.094.476-.137.732v.001l-.035.208a7.887 7.887 0 0 1-.2-.33c-.257-.455-.833-1.645-1-2.257-.103-.38-.192-1.082-.173-1.665l.002-.063c.008-.274.009-.293.119-.7.055-.203.1-.31.21-.575l.057-.14c.064-.155.224-.418.385-.682l.137-.226c.103-.17.317-.518.353-.538l-.011.003c-.36.1-.8.221-1.36.5-.21.106-.403.206-.581.298 0-.08 0-.157.002-.228.007-.79.035-1.734.26-2.639.203-.858.33-1.18.839-1.892.21-.294.705-.71 1.52-.846.434-.07.83-.062 1.584.07.43.075 1.404.308 2.66.987.203.11.498.27.883.49-.38.212-.81.465-1.238.741-.614.397-1.135.79-1.76 1.26l-.222.166A25.052 25.052 0 0 0 6.477 7.28h-.001Zm7.643 4.773a2.19 2.19 0 1 1-4.38 0 2.19 2.19 0 0 1 4.38 0Zm.794 4.918c-.3.41-.638.835-.884 1.073-.284.274-.856.69-1.376.956l-.056.03c-.243.123-.26.132-.67.231-.205.05-.32.063-.604.095l-.151.017c-.167.018-.473.005-.782-.009l-.265-.01c-.2-.009-.606-.029-.642-.05l.008.008c.26.267.58.594 1.094.948.584.403 1.045.698 1.377.905-.27.15-.514.28-.711.384-.7.368-1.545.788-2.45 1.018-.851.226-1.195.266-2.063.154-.357-.045-.96-.285-1.464-.94-.267-.348-.448-.703-.687-1.428-.137-.414-.391-1.383-.387-2.81 0-.29.003-.742.026-1.363.327.194.692.402 1.07.6.648.34 1.246.6 1.963.913l.253.11c1.06.456 2.15.838 3.263 1.144l.013.004c.563.16.497-.184.328-.406-.176-.228-.526-.646-.72-.806a4.462 4.462 0 0 0-.184-.18c.07.003.133.004.188.004.767.003 2.303-.176 2.628-.233.63-.11 1.258-.23 1.885-.36v.001ZM13.87 6.43l-.108.001c.116.115.263.25.414.388.192.176.39.358.54.513.237.247.965 1.13 1.413 1.687.202.252 1.072 1.472 1.45 2.153l.062-.266a9.9 9.9 0 0 1 .168-.674c.047-.247.244-.755.36-1.02.112-.254.382-.478.512.092l.003.013c.118.504.43 1.841.572 3.41l.025.273c.072.78.132 1.43.148 2.162a25.82 25.82 0 0 1-.053 2.117c.55-.276.943-.49 1.195-.63 1.254-.684 1.98-1.375 2.276-1.694.52-.56.744-.889.92-1.29.33-.759.25-1.402.118-1.737-.321-.814-.522-1.096-1.131-1.733-.637-.68-1.414-1.219-2.073-1.655-.177-.117-.397-.26-.645-.416l-.015.315a6.864 6.864 0 0 1-.232 1.428l-.003.012c0-.042-.197-.399-.295-.572a33.376 33.376 0 0 1-.13-.23c-.15-.27-.3-.54-.403-.672l-.094-.12a4.177 4.177 0 0 0-.397-.465c-.3-.295-.316-.305-.55-.447l-.054-.033c-.498-.303-1.153-.572-1.535-.669-.615-.156-1.934-.24-2.458-.24Z"/></svg>