<svg role="img" viewBox="0 0 24 24" xmlns="http://www.w3.org/2000/svg"><title>React Bootstrap</title><path d="M23.3584 12.886q-.6345-1.1667-1.867-1.5138a.032.032 0 0 1-.0202-.0321.034.034 0 0 1 .0154-.0303c.6118-.3401 1.082-.8245 1.4115-1.4425q.498-.9348.498-2.2499c0-1.4464-.366-2.5224-1.0946-3.238-.7287-.7158-1.6988-1.0715-2.9064-1.0715h-6.5228c-.0141 0-.0256.0147-.0256.033v17.3182c0 .0183.0112.033.0256.033h6.1643q1.3018 0 2.2457-.38c.6305-.2528 1.1436-.594 1.5475-1.0227.4038-.4285.6983-.9398.8871-1.5338.1888-.589.2831-1.227.2831-1.9087.0005-1.1884-.2152-2.1719-.6416-2.9608m-8.1466-7.0827c0-.0183.0113-.033.0256-.033h3.8286c.6423 0 1.1335.1804 1.4735.5362.3399.3559.5098.9745.5098 1.8517 0 .7802-.1888 1.375-.5668 1.7942-.378.419-.85.6239-1.4169.6239h-3.8284c-.014 0-.0256-.0148-.0256-.033zm5.844 11.682c-.3932.4823-.952.7219-1.67.7219h-4.1486c-.014 0-.0256-.0148-.0256-.033v-5.373c0-.0183.0113-.033.0256-.033h4.1484c.718 0 1.2696.2242 1.67.6918s.597 1.1258.597 1.9884c.0002.8771-.2004 1.5594-.5968 2.037m-12.439-5.544a31 31 0 0 1 .5659-1.0979l.0017-.003.2074-.4024.3063-.5075.002-.0033a28 28 0 0 1 .3526-.584l.2108-.3482c.2806-.4645.5061-.8033.862-1.2943.1917-.2642.3735-.4962.6616-.8562l.0006-.0007.0143-.018.0055-.007c.117-.1492.235-.2961.3508-.4369l.0038-.0047.0023-.0028a82 82 0 0 1 .8142-.9925l.108-.1295V3.3402h-.1953a16 16 0 0 0-.3167-.2898c-.8607-.7637-1.7191-1.363-2.552-1.7796C9.1689.8432 8.3803.6264 7.6792.6264c-.5007 0-.9481.1121-1.3299.333-.367.2125-.6755.5291-.917.9411-.2262.386-.393.856-.4957 1.3964-.1978 1.0417-.155 2.3459.124 3.7708.0353.1793.074.3609.1157.5413a17 17 0 0 0-.6444.209c-1.345.469-2.4699 1.0817-3.2528 1.7723-.406.3576-.72.7357-.9349 1.1235C.1158 11.1263 0 11.5493 0 11.9712c0 .846.4686 1.703 1.355 2.4806.8347.7323 2.015 1.3717 3.4123 1.8496.1299.0441.262.087.3948.128-.0465.2021-.0895.406-.1281.609-.2658 1.3994-.2968 2.6799-.0903 3.7032.1073.53.2776.9912.5063 1.371.2432.4039.5519.7156.9174.9264.3851.222.8384.3346 1.3472.3346.6927 0 1.4672-.2054 2.302-.6105.8184-.3971 1.6537-.9659 2.4827-1.6905.1278-.1117.2594-.231.3909-.3556h.1964v-1.9668l-.0715-.088-.0339-.0414-.9002-1.1115-.5002-.6174c-.2525-.3118-.657-.8887-1.1391-1.6241a29 29 0 0 1-.7951-1.2816l-.0145-.0249c-.231-.3985-.4027-.7194-.5405-.9772a39 39 0 0 1-.5066-.9812l.03-.0583zm-.912-1.9499a23 23 0 0 1-.4172-1.1595 23 23 0 0 1 1.2104-.2155 31.5 31.5 0 0 0-.7931 1.375m-.4313 5.2118a23 23 0 0 1 .433-1.2022 31.4 31.4 0 0 0 .818 1.411 22 22 0 0 1-1.251-.2087zm-.696-11.4049c.1015-.6963.3287-1.194.6245-1.3653.1228-.0712.2858-.1072.4842-.1072.4338 0 .9952.1703 1.623.4925.6806.3497 1.4185.8697 2.1341 1.5051q.0665.0591.1361.1228c-.6294.696-1.2497 1.4694-1.846 2.302-1.016.0992-1.9927.2474-2.9071.441a15 15 0 0 1-.0925-.4342l-.0027-.0149c-.218-1.1138-.2711-2.1316-.1536-2.9418m.1276 8.1993c-.4297.9474-.795 1.8853-1.087 2.791a12 12 0 0 1-.3005-.0982c-1.1617-.397-2.1292-.9097-2.798-1.4823-.5116-.4381-.817-.9003-.817-1.2364 0-.345.3055-.7895.8384-1.2203.6203-.5016 1.503-.96 2.551-1.3252a15 15 0 0 1 .5414-.1764c.288.8924.6483 1.8157 1.0716 2.7477Zm.0013 5.3563c.0323-.1692.0677-.3393.1064-.5085.9022.1846 1.8901.3238 2.9408.414.602.8384 1.2275 1.617 1.8615 2.317-.0783.072-.1573.143-.2357.212-.9178.8022-1.8394 1.3821-2.6649 1.6771l-.0171.0061c-.37.1306-.7003.1968-.9812.1968-.2073 0-.3747-.0358-.4975-.1066-.299-.1725-.5317-.6594-.6384-1.336-.1247-.7884-.081-1.7816.126-2.872Z"/></svg>