<svg role="img" viewBox="0 0 24 24" xmlns="http://www.w3.org/2000/svg"><title>ReactiveX icon</title><path d="M12.561 23.968c-1.224-.104-2.152-.318-3.535-.818a12.499 12.5 0 01-4.86-3.086c-.994-1.004-1.532-1.784-2.232-3.246-.222-.458-.236-.518-.32-1.226a10.565 10.566 0 01.104-3.376C2.08 10.426 3.17 8.65 4.466 7.73a5.385 5.386 0 014.196-.908c.51.106 1.71.546 2.335.854l.504.248-.192.04c-.734.16-1.66.584-2.28 1.044a6.941 6.942 0 00-1.88 2.258c-.355.706-.56 1.922-.513 3.048.064 1.54.576 2.96 1.474 4.088.308.386.96 1.004 1.347 1.28.306.218 1.1.668 1.178.668.02 0-.06-.104-.176-.23-.822-.88-1.447-2.076-1.511-2.888l-.026-.32.347.378c.354.38 1.316 1.26 1.846 1.682 1.06.85 2.45 1.492 3.832 1.77.464.094.698.11 1.556.112.672 0 1.146-.024 1.42-.07l.407-.072-.433-.036a4.847 4.848 0 01-2.108-.662c-.314-.18-.996-.718-1.03-.812-.008-.02.22-.064.504-.1a9.87 9.872 0 004.781-2c.408-.324 1.34-1.214 1.34-1.28 0-.02-.104.036-.23.126a5.365 5.366 0 01-1.862.8c-.468.1-1.707.134-1.707.048 0-.026.102-.116.228-.2.86-.582 1.831-1.596 2.443-2.542a14.598 14.6 0 001.004-2.014c.21-.532.476-1.538.56-2.12.08-.536.08-1.706 0-2.16a7.38 7.38 0 00-.22-.84l-.16-.482.202.228c.44.494.858 1.36 1.052 2.174.14.592.15 1.88.02 2.452a9.887 9.888 0 01-1.068 2.67 1.054 1.054 0 00-.154.312c.026.026.54-.512.894-.938a9.783 9.783 0 001.38-2.28l.14-.334.046.188c.024.104.046.6.048 1.102.002.766-.014 1-.106 1.452a8.44 8.44 0 01-1.3 3.066c-.768 1.156-1.47 1.804-2.58 2.388-.488.256-.428.306.15.128.768-.236 1.91-.92 3.006-1.8.34-.274.618-.476.618-.452a8.759 8.76 0 01-3.534 4.982c-.306.204-1.388.816-1.876 1.06-1.691.846-3.973 1.29-5.819 1.132zM.932 14.764a4.23 4.23 0 01-.82-1.148c-.183-.44-.143-.8.133-1.224.551-.84.56-1.05.11-2.422-.212-.648-.244-.8-.248-1.154-.004-.32.018-.454.098-.624.175-.378.54-.802 1.001-1.176.894-.718.94-.818.982-2.188.036-1.126.074-1.262.47-1.658.34-.34.732-.5 1.352-.554 1.11-.096 1.8-.5 2.516-1.468C7.136.324 7.726.004 8.638 0c.661-.002 1.007.12 1.645.574.278.196.53.388.56.424.042.052-.052.074-.536.12a9.359 9.36 0 00-3.423.994 10.753 10.754 0 00-4.856 4.744 8.355 8.356 0 00-.8 2.128c-.28 1.14-.352 1.764-.35 3.124.002 1.23.048 1.63.284 2.496.064.236.108.436.1.446a2.01 2.01 0 01-.33-.286zm.33-2.124c-.098-.82.082-2.428.41-3.68.112-.424.25-.762.596-1.466.694-1.4 1.302-2.27 2.222-3.18 1.6-1.578 3.252-2.414 5.255-2.66.492-.06 1.876-.034 2.694.054a10.775 10.776 0 015.556 2.276c.571.458 1.847 1.668 2.12 2.016.535.678.975 1.85.881 2.348a1.612 1.612 0 01-.112.364c-.188.36-.954.812-1.568.92-.604.11-2.083-.032-3.213-.31-1.54-.38-2.98-.92-4.674-1.76-1.73-.856-2.37-1.076-3.331-1.14-1.14-.076-2.048.098-2.992.57-1 .5-1.752 1.2-2.506 2.33a7.587 7.588 0 00-1.262 3.362l-.04.288zm13.923-6.708a.51.51 0 00.168-.602c-.098-.234-.27-.328-.542-.296-.294.032-.398.156-.398.468 0 .194.024.256.148.38a.46.46 0 00.624.048zM9.19 5.764c.683-.04 1.325-.072 1.425-.072.16 0 .188-.016.234-.152a.512.512 0 00.04-.16c-.006-.006-.4.02-.876.052a61.57 61.57 0 01-1.755.096l-.89.034-.15-.21a3.688 3.688 0 01-.224-.358 4.196 4.196 0 01-.276-.802c0-.108.288-.416.514-.548.292-.172.866-.4 1.002-.4.06 0 .796.26 1.633.58.838.32 1.534.57 1.546.558a.424.424 0 00.032-.16l.01-.134-1.562-.496-1.683-.534c-.132-.042-.46.05-.82.234-.604.306-.912.66-.912 1.048 0 .234.3.928.578 1.328l.152.224.37-.028c.2-.016.928-.06 1.612-.1z"/></svg>