<svg role="img" xmlns="http://www.w3.org/2000/svg" viewBox="0 0 24 24"><title>ReactiveX icon</title><path d="M7.4,2.3L7.4,2.3C5.2,3.3,3.8,4.9,3,6.1C2.2,7.4,1.8,8.4,1.8,8.4v0C1.6,9,1.5,9.6,1.4,10.2 c-0.2,0.9-0.2,1.7-0.1,2.6c0,0.1,0,0.2,0,0.2c0-0.3,0.1-0.7,0.1-1c0-0.1,0.4-2,1.7-3.5c0.1-0.2,1.7-2.2,4.5-2.2 c0.6,0,1.3,0.1,1.9,0.3h0c0,0,0.9,0.3,1.2,0.5c0.3,0.1,0.8,0.4,0.8,0.4h0c1.6,0.8,3.3,1.4,5.1,1.8c0.6,0.1,1.2,0.2,1.8,0.2 c1.1,0,1.9-0.2,2.3-0.7c0.2-0.2,0.3-0.5,0.3-0.8v0c0-1-0.8-2-1.5-2.7c-0.5-0.5-1-0.9-1.5-1.3l0,0c-2-1.5-4.2-2.3-6.5-2.3l0,0 C9,1.5,7.4,2.3,7.4,2.3z M14.8,5c0.3,0,0.5,0.2,0.5,0.5c0,0.3-0.2,0.5-0.5,0.5c-0.3,0-0.5-0.2-0.5-0.5C14.3,5.2,14.5,5,14.8,5 L14.8,5L14.8,5z M8.2,3.1c0,0,0.1,0,0.1,0l3.2,1l-0.1,0.3L9.9,3.9L8.3,3.3c0,0,0,0,0,0c0,0,0,0,0,0s0,0-0.1,0l0,0 C7.9,3.4,7,3.7,6.8,4.1c-0.1,0.1-0.1,0.2,0,0.4c0.1,0.4,0.3,0.8,0.6,1.1l2.1-0.1l1.4-0.1l-0.1,0.3L7.2,5.9C6.9,5.5,6.7,5.1,6.5,4.6 c-0.3-1,1.6-1.5,1.6-1.5C8.1,3.1,8.2,3.1,8.2,3.1z M19.4,18.8c2.2-0.9,3.1-2.6,3.1-2.6c2-2.8,1.3-5.7,1.3-5.7 c-1.3,2.8-2.5,3.6-2.5,3.6c3.2-4.9,0-7.8,0-7.8c1.3,2.8-0.4,6.1-0.4,6.1c-1.4,3-3.5,4.1-3.5,4.1c2.3,0.4,4-1.1,4-1.1 c-3.3,3.5-6.8,3.4-6.8,3.4c1.5,1.7,3.7,1.5,3.7,1.5c-2.9,0.7-5.7-0.3-7.9-2.2c-0.4-0.3-0.8-0.7-1.2-1.1c0,0-0.3-0.4-0.4-0.4l0,0 c0,1.7,1.8,3.4,1.8,3.4c-2.3-0.9-3.3-3-3.3-3s-1.5-2.6-0.4-5.6c1.1-3,4.4-3.6,4.5-3.6c0,0,0,0,0,0c0,0,0,0,0,0c0,0-0.5-0.2-0.8-0.4 c-0.3-0.1-1.1-0.4-1.1-0.4C8.8,6.7,8.2,6.6,7.6,6.6c-2.8,0-4.3,2.1-4.3,2.1c-1.3,1.5-1.6,3.4-1.6,3.4c-0.4,1.8,0,3.7,0,3.7 s0,0.1,0,0.2c0.3,0.7,0.7,1.4,1.1,2.1c2.5,3.7,6.5,4.9,6.5,4.9c5.9,2,10-0.9,10-0.9c3.7-2.6,4.5-5.5,4.5-5.5 C20.7,19,19.4,18.8,19.4,18.8z M1.3,14.9c-0.2-0.6-0.3-1.2-0.4-1.8v0c0,0,0,0,0-0.1c0-0.1,0-0.2,0-0.2c-0.1-0.9,0-1.8,0.1-2.7 c0,0,0,0,0-0.1c0-0.2,0.1-0.4,0.1-0.5c0,0,0,0,0,0l0,0c0.1-0.4,0.2-0.8,0.3-1.2c0,0,1.3-4.3,5.7-6.2c0,0,1.5-0.8,3.8-0.9l0,0 c-0.2-0.2-0.3-0.3-0.5-0.4C9.5,0,7.9-0.2,6.9,0.8C6.6,1.1,6.4,1.5,6.1,1.8C5.8,2.1,5.4,2.4,5,2.5C4.6,2.7,4.2,2.7,3.8,2.7 C3.4,2.8,3,2.9,2.7,3.2C2.4,3.5,2.2,3.8,2.2,4.3c0,0.3,0,0.7,0,1c0,1-0.4,1.3-1.1,1.8C0.7,7.4,0.5,7.7,0.3,8c-0.6,1,0.3,2,0.4,3.1 c0,0.2,0,0.4-0.1,0.6c-0.1,0.2-0.2,0.4-0.3,0.5C0.1,12.5,0,12.7,0,13c0,0.3,0.2,0.6,0.3,0.8c0.3,0.4,0.6,0.9,1,1.2c0,0,0,0,0.1,0.1 c0,0,0,0,0,0l0,0.1C1.4,15.1,1.3,15,1.3,14.9L1.3,14.9z M0.9,11.5L0.9,11.5z M1.1,14C1.1,14,1.1,14,1.1,14C1.1,14,1.1,14,1.1,14 C1.1,14,1.1,14,1.1,14L1.1,14z"/></svg>