<svg role="img" viewBox="0 0 24 24" xmlns="http://www.w3.org/2000/svg"><title>React Navigation</title><path d="M11.8176.0016C9.8172.027 7.8568.729 6.2336 1.8844c-3.363 1.6703-5.526 5.339-5.581 9.0667.0516 1.3291-.101 2.677.2137 3.987.5937 3.1046 2.6821 5.8892 5.5286 7.278 2.8667 2.0817 6.901 2.3711 10.0328.712.728-.388 1.4005-.8636 2.1273-1.2537 3.2303-2.0127 5.082-5.9185 4.7554-9.6894.3284-3.8603-1.6394-7.8528-5.0102-9.8071C17.2962 1.637 16.378.9207 15.2734.5775c-1.1036-.4048-2.2808-.5971-3.4558-.576Zm.0183.7225a9.1872 9.1872 0 0 1 1.7316.1364c-.7413-.0377-1.4692.2337-2.2012.0508-.2324-.0524-.9253-.0265-.8475-.0681.4362-.0682.8755-.111 1.3171-.1191zm2.1057.8685c1.2367.0815 2.509.3551 3.57 1.0138.8606.6797 1.6128 1.4974 2.1867 2.4336-.8853-.6918-1.9053-1.2229-2.9961-1.5-.7683-.8313-1.7208-1.5-2.7606-1.9474Zm-3.9139.006c-1.0295.4575-1.97 1.1153-2.739 1.9398-1.081.2755-2.1225.8229-2.98 1.4866.6703-1.0488 1.5168-2.0423 2.598-2.6747.985-.4346 2.0436-.7085 3.121-.7517Zm1.9874.1368c1.2255.2438 2.474.8005 3.3935 1.5827-1.1628-.0949-2.355.0996-3.4128.595-1.0629-.503-2.2656-.6925-3.4341-.5913.9967-.8 2.1951-1.3579 3.4534-1.5864ZM9.0425 4.0155c.7252-.0025 1.4579.0932 2.1413.343-.8562.5172-1.4463 1.3355-2.1365 2.0335-.5392.371-1.2424.3293-1.8748.5722-.3955.1267-.7805.2863-1.1442.4864.2419-1.2076.8096-2.3967 1.6698-3.2672.4397-.1073.8931-.1496 1.3444-.1679Zm5.6726 0c.5493.0168 1.1446.0153 1.6526.2094.801.907 1.3815 2.0615 1.5976 3.2289-.8347-.5053-1.809-.637-2.7295-.8965-.624-.303-.9866-1.0458-1.5381-1.503-.2705-.2536-.6058-.4996-.882-.7008.6128-.211 1.2521-.3194 1.8994-.338Zm2.802.5555c1.1862.5185 2.2816 1.3175 3.0584 2.352.4059 1.224.5526 2.5413.3739 3.8208-.496-1.0878-1.2474-2.0636-2.201-2.787-.13-1.2048-.5519-2.3795-1.2314-3.3858Zm-11.0438.0038c-.6855 1.0077-1.0878 2.204-1.2426 3.3973-.9539.715-1.6952 1.6979-2.1909 2.78-.1618-1.3104-.0428-2.6752.4207-3.9113.8076-.9777 1.8435-1.7714 3.0128-2.266Zm5.5206.1351c.9867.48 1.7101 1.377 2.403 2.1591.7354.653 1.8127.5304 2.669.9476.339.1753.807.3074 1.0132.6067.084 1.102-.3097 2.1452-.5949 3.1842-.0884.344-.0217.8706.1243 1.2616.2954.891.5605 1.8599.4475 2.7912-.9016.661-2.0206.8223-3.0715 1.1053-.8779.3961-1.2866 1.3608-2.0583 1.9123-.2867.2366-.6012.4376-.9254.6179-1.0004-.48-1.6873-1.3699-2.4174-2.1625-.7015-.6389-1.735-.5176-2.5624-.9111-.382-.1592-.8061-.332-1.106-.6022-.0923-1.1382.3247-2.2088.6104-3.283.1308-.9858-.482-1.866-.5594-2.838-.0513-.378-.066-.7594-.051-1.1403.8664-.6297 1.9666-.8445 2.9553-1.0698.4244-.1153.9058-.5504 1.2161-.971.5356-.6434 1.1624-1.2155 1.9075-1.608Zm8.5023.305c.676.8446 1.2132 1.8028 1.571 2.8241-.3508-.6969-.945-1.2431-1.1593-2.0054-.1273-.2778-.2615-.5525-.4117-.8186Zm-17 .0044c-.4148.6686-.5625 1.4712-1.1001 2.0612-.1523.1776-.4284.7211-.4548.7161.3618-1.0017.8872-1.9472 1.555-2.7773Zm18.157 3.5386c.5474 1.1564.9617 2.4327.9335 3.722-.1293 1.1-.4439 2.1798-.935 3.1734.146-1.156.055-2.34-.2449-3.4632.3089-1.1111.385-2.2883.2465-3.4322zM2.337 8.571c-.138 1.1521-.0467 2.3313.2455 3.45-.3094 1.1058-.3724 2.272-.2466 3.4099-.5407-1.1165-.9205-2.3513-.9369-3.5964.1191-1.1302.4258-2.2476.938-3.2636Zm2.882.3306c-.013.9938.3973 2.0302.6182 2.9115.0527.7889-.4306 1.5002-.5065 2.2824-.061.3306-.1024.678-.1138 1.0072-.9023-.8318-1.5467-1.923-1.9035-3.0935.3473-1.179 1.0025-2.2723 1.9055-3.1076zm13.5558.0063c.909.8292 1.5575 1.9286 1.9067 3.1048-.363 1.167-.9989 2.263-1.9067 3.089.0116-1.0114-.4047-2.035-.6242-2.9345-.0474-.3056.0988-.76.2151-1.1076.2315-.6932.3863-1.4179.409-2.1517zM3.0406 13.257c.4981 1.0911 1.2525 2.0743 2.2111 2.798.1007 1.2023.5852 2.3992 1.2116 3.3763-1.1882-.5233-2.291-1.3232-3.0572-2.3713-.3934-1.2229-.5353-2.5274-.3655-3.803Zm17.9097.0036c.1698 1.309.0463 2.686-.4273 3.9144-.8047.9693-1.8318 1.763-2.9958 2.252.6696-1.0131 1.0918-2.1928 1.23-3.391.9568-.7104 1.6982-1.695 2.193-2.7754zM1.9195 16.1527c.3202.6778.9164 1.188 1.1277 1.9158.1244.3104.2814.6059.4363.9017-.6782-.8404-1.1993-1.8022-1.564-2.8175zm20.1335.044c-.3376.9928-.9374 2.0274-1.5457 2.7762.394-.6105.5102-1.3628.9958-1.912.2064-.2735.3731-.5713.55-.8642zM6.026 16.551c.8395.5087 1.817.638 2.7408.9014.6507.3187 1.0108 1.1064 1.6041 1.5612a5.6448 5.6448 0 0 0 .817.6353c-1.1317.3919-2.3949.4523-3.5466.1484-.8071-.9142-1.387-2.0468-1.6153-3.2463Zm11.9446.0025c-.2425 1.2079-.8148 2.3458-1.637 3.2637-1.1384.2652-2.489.2338-3.509-.1827.8605-.5098 1.4332-1.3407 2.1318-2.0268.5578-.373 1.3406-.3353 1.9896-.6091.3549-.1132.6967-.2697 1.0246-.445zM4.2953 18.9633c.8794.7051 1.9126 1.22 3.0021 1.5082.7612.8308 1.7099 1.4782 2.7356 1.9398-1.2173-.0859-2.473-.3488-3.5216-.9901-.8771-.6798-1.6366-1.51-2.216-2.4579Zm15.4006.0021c-.6495 1.034-1.4862 1.986-2.5181 2.6472-1.0064.4644-2.1007.7477-3.2094.7963 1.0532-.4494 1.9781-1.169 2.7836-1.9558 1.0703-.2821 2.0778-.8006 2.944-1.4877zm-7.701 1.1335c1.0573.498 2.3204.6795 3.4276.595-1.0093.7905-2.2233 1.3978-3.4958 1.5625-1.2232-.2425-2.3894-.7865-3.3581-1.5682 1.168.0944 2.3603-.096 3.4263-.5893zm.008 2.9073c.5127.0986 1.0354.1314 1.5568.1395-1.0256.1741-2.0827.189-3.1073 0 .5198-.0085 1.0383-.0471 1.5505-.1395z"/></svg>