<svg role="img" viewBox="0 0 24 24" xmlns="http://www.w3.org/2000/svg"><title>React-PDF</title><path d="M7.735 1.205c-.403.003-.866.065-1.272.28-.617.33-1.258 1.18-1.466 1.939-.484 1.759-.492 2.502-.497 3.039 0 .125 0 .24-.007.353.309-.155.6-.292.869-.408.637-.276 1.137-.439 1.367-.469l.168-.023-.11.13-.074.087c-.306.355-.84.972-1.074 1.558-.312.786-.337 1.226-.31 2.078.018.605.263 1.366.654 2.176.142.294.302.595.478.895.673-2.28 1.233-3.72 2.138-5.385-.301.08-.63.163-1 .254-.087.02-.278.073-.474.127l-.012.002c-.2.054-.401.11-.5.13a.374.374 0 0 1-.424-.189.4.4 0 0 1 .072-.465c.17-.18.65-.656 1.067-1.027 1.022-.91 2.828-2.282 4.87-3.502a6.323 6.323 0 0 0-.28-.154 9.893 9.893 0 0 1-.342-.19c-.634-.37-1.038-.586-1.68-.81-.524-.183-.994-.335-1.525-.39a5.615 5.615 0 0 0-.635-.036Zm9.314.047c-1.235-.01-2.67.427-4.248 1.33-2.25 1.287-4.282 2.817-5.386 3.803a21.82 21.82 0 0 0-1.06 1.02.27.27 0 0 0-.05.314.24.24 0 0 0 .278.123c.095-.02.295-.076.496-.13l.013-.005c.193-.053.386-.105.477-.125.48-.118.89-.225 1.265-.324.999-.264 1.74-.462 2.868-.582.71-.107 1.44-.173 2.232-.172l.012.012c1.162-.032 2.3.066 3.3.53.704.328 1.357.947 1.692 1.34.228.268.416.654.563 1.022.109.27.197.536.262.738.02-.083.043-.187.065-.308.042-.238.08-.54.117-.889.07-.697.122-1.58.125-2.514 0-1.103-.252-2.661-.787-3.761l-.022-.045a6.354 6.354 0 0 0-.21-.326c-.43-.568-1.177-1.045-2.002-1.051ZM6.561 6.107a8.73 8.73 0 0 0-1.146.422c-.452.196-.977.45-1.528.754l-.123.07-.098.057-.07.041-.197.113c-.064.04-.13.076-.193.116-.903.556-2.002 1.404-2.668 2.38-.061.093-.117.18-.166.268a3.06 3.06 0 0 0-.258.65l-.014.053c-.023.102-.043.195-.06.281a3.152 3.152 0 0 0-.03.743c.012.08.03.167.053.261.142.575.405.911.742 1.342.188.23.398.457.63.682.245.23.508.451.745.642.35.283.518.391.748.541.082.054.173.112.28.186.193.13.386.254.552.356 2.227 1.3 4.527 2.267 5.895 2.676.532.16.931.265 1.17.315a.798.798 0 0 0 .295.01c.08-.013.134-.042.164-.077.028-.032.041-.075.027-.135a.542.542 0 0 0-.15-.234 17.64 17.64 0 0 0-.3-.295c-.343-.334-.89-.866-1.321-1.326-.884-.945-1.304-1.426-2.141-2.53a15.023 15.023 0 0 1-1.533-2.467c-.394-.816-.65-1.595-.668-2.227-.027-.862-.001-1.322.32-2.13.229-.576.732-1.176 1.043-1.538Zm7.916.535c-.137-.001-.275 0-.414.002 1.461 1.6 2.385 2.69 3.443 4.297.08-.29.156-.574.23-.85.12-.458.201-.699.26-.868.018-.056.034-.104.047-.149.057-.182.2-.28.35-.28.15 0 .291.1.346.282.071.238.225.855.34 1.4.3 1.44.708 3.994.53 6.628.148-.066.407-.187.576-.28l.172-.091c.348-.188.654-.355.953-.552a9.876 9.876 0 0 0 1.45-1.179c.329-.34.564-.594.782-.928.358-.547.484-1.104.454-1.617-.024-.406-.09-.702-.248-.992-.301-.553-.497-.79-.932-1.266-.4-.437-.66-.687-1.135-1.037-.54-.399-1.206-.883-1.535-1.059-.02.308-.043.597-.07.86-.036.35-.077.656-.12.898a2.59 2.59 0 0 1-.134.526l-.07.158-.051-.164-.028-.086c-.067-.212-.166-.52-.293-.838-.146-.365-.329-.736-.54-.986-.33-.387-.969-.99-1.648-1.307-.827-.384-1.753-.51-2.715-.522Zm3.916 2.282c-.087 0-.183.056-.225.19a6.472 6.472 0 0 1-.05.152v.001c-.058.17-.14.405-.258.856-.353 1.343-.768 2.845-1.524 4.473l-.058.127-.002.002c-.658 1.42-1.44 3.109-3.03 4.092-.54.335-1.369.68-2.105.703a6.17 6.17 0 0 1-1.758-.207c.444.445 1.406 1.274 2.656 2.008.372.208 1.065.578 1.68.826a9.081 9.081 0 0 0 1.59.502c.4.079.78.107 1.158.075.58-.05 1.205-.267 1.72-.854.06-.067.112-.133.161-.2a6.692 6.692 0 0 0 .514-1.027l.01-.03a9.657 9.657 0 0 0 .419-1.624c.085-.555.133-1.146.18-1.806.193-2.649-.215-5.23-.52-6.679a21.604 21.604 0 0 0-.337-1.39c-.04-.134-.135-.19-.22-.19zm-6.455.935c-1.225 0-2.219.983-2.219 2.196 0 1.212.994 2.195 2.22 2.195a2.206 2.206 0 0 0 2.216-2.195 2.206 2.206 0 0 0-2.217-2.196zm-7.807 6.57.002.114c.004.217.01.502.006.77-.013.75.059 1.672.217 2.339.23.973.406 1.555 1.014 2.27.385.453.664.606 1.175.773.456.15.92.102 1.47.047l.038-.004c.465-.046 1.152-.286 1.576-.435l.213-.075c.798-.326 1.507-.693 1.89-.94-1.318-.81-2.284-1.692-2.605-2.052l-.146-.164.21.057c.421.113 1.08.289 1.946.262.705-.022 1.512-.356 2.041-.684.778-.481 1.357-1.135 1.826-1.848-1.69.433-3.052.547-4.752.688.254.254.501.49.69.674.147.142.258.252.312.308.1.103.162.202.184.295a.276.276 0 0 1-.055.252.408.408 0 0 1-.242.12.923.923 0 0 1-.344-.011c-.243-.05-.646-.158-1.18-.318-1.288-.385-3.392-1.26-5.486-2.437Z"/></svg>