<svg role="img" viewBox="0 0 24 24" xmlns="http://www.w3.org/2000/svg"><title>Read the Docs</title><path d="M10.806 11.568a.573.573 0 0 0-.076 1.123s1.403.464 3.788.658c1.917.157 4.09-.135 4.09-.135.841-.028.678-1.318-.143-1.136 0 0-2.127.262-3.854.123-2.28-.186-3.52-.604-3.52-.604a.65.65 0 0 0-.285-.03m0-2.854a.573.573 0 0 0-.076 1.123s1.403.464 3.788.658c1.917.157 4.09-.135 4.09-.135.841-.028.678-1.318-.143-1.136 0 0-2.127.263-3.854.123-2.28-.186-3.52-.604-3.52-.604a.65.65 0 0 0-.285-.03m0-2.854a.573.573 0 0 0-.076 1.123s1.403.464 3.788.66c1.917.155 4.09-.137 4.09-.137.841-.028.678-1.318-.143-1.136 0 0-2.127.263-3.854.123-2.28-.186-3.52-.603-3.52-.603a.65.65 0 0 0-.285-.03m0-2.85a.573.573 0 0 0-.076 1.123s1.403.465 3.788.66c1.917.155 4.09-.136 4.09-.136.841-.028.678-1.318-.143-1.136 0 0-2.127.262-3.854.122-2.28-.185-3.52-.603-3.52-.603a.6.6 0 0 0-.285-.03M6.81 0C3.812.021 2.693.941 2.693.941v22.39s1.09-.943 4.602-.799 4.234 1.378 8.55 1.46q.366.008.702.008c3.732 0 4.699-.668 4.699-.668l.06-22.825s-1.941.548-5.72.578S10.9.122 7.43.008A34 34 0 0 0 6.81 0m2.508 1.46s1.815.6 5.173.77c2.837.138 5.678-.28 5.678-.28v20.286s-1.44.756-5.036.5c-2.787-.2-5.857-1.255-5.857-1.255Zm-1.752.528c.718.052.718 1.105 0 1.157 0 0-.942.004-1.51.064-.964.097-1.618.447-1.618.447-.677.346-1.207-.658-.54-1.022 0 0 .852-.45 2.043-.57.688-.07 1.625-.076 1.625-.076m-.557 2.863c.32-.008.56 0 .56 0a.58.58 0 0 1 .001 1.152s-.94.004-1.51.064c-.964.097-1.618.447-1.618.447-.662.294-1.155-.65-.536-1.026 0 0 .852-.45 2.043-.57.334-.038.74-.059 1.06-.067m.557 2.85c.71.06.71 1.097 0 1.156 0 0-.942-.004-1.51.051-.964.097-1.618.448-1.618.448-.665.3-1.162-.65-.537-1.026 0 0 .853-.452 2.044-.57.684-.064 1.62-.06 1.62-.06"/></svg>