<svg role="img" viewBox="0 0 24 24" xmlns="http://www.w3.org/2000/svg"><title>Read the Docs icon</title><path d="M2.7599 24l.664-.144c.207-.044.412-.085.619-.126.318-.062.6369-.123.9549-.182.24-.046.48-.085.721-.129l.055-.015c.25-.044.498-.09.747-.12l1.2139-.179V0h-.042c-.63.004-1.256.016-1.884.036-.689.018-1.3939.06-2.0839.105-.299.021-.6.046-.899.07h-.045v23.783zM8.9116.016v22.941c.861-.1 1.72-.182 2.582-.246a61.3235 61.3235 0 016.3727-.151c1.128.034 2.2529.099 3.3738.192V1.504a57.4903 57.4903 0 00-3.0279-.607C16.2443.555 14.2574.316 12.2655.166A58.5003 58.5003 0 008.9136.017h-.002zm10.7626 14.7964l-.046-.004-.561-.061a61.1427 61.1427 0 00-4.2068-.291c-1.407-.045-2.8149-.03-4.2228.016h-.044c-.045 0-.091 0-.135-.016-.101-.03-.195-.074-.267-.149-.127-.136-.186-.315-.156-.495.008-.061.029-.105.054-.166.027-.044.063-.104.104-.134.043-.045.09-.075.143-.104.061-.03.121-.046.18-.061h.09c.195 0 .391-.016.57-.016 1.3949-.029 2.7728-.029 4.1688.03 1.4389.06 2.8638.165 4.2878.33l.151.015c.044.016.089.016.135.03.105.046.194.105.255.181.044.044.074.104.105.164.029.061.044.12.044.18.015.165-.044.33-.164.45-.046.046-.091.075-.135.105-.047.03-.105.044-.166.06-.03.016-.045.016-.089.016h-.047zm.035-2.7109c-.044 0-.044 0-.09-.006l-.555-.071c-1.395-.179-2.8039-.3-4.1978-.359-1.395-.075-2.805-.09-4.2138-.06l-.046-.016c-.045-.015-.09-.015-.135-.029-.09-.03-.194-.09-.254-.166-.03-.045-.076-.104-.09-.148-.075-.166-.075-.361.014-.525.031-.061.061-.105.105-.15s.09-.09.15-.104c.061-.03.119-.06.18-.06l.09-.016.585-.015c1.3959-.016 2.7738.015 4.1528.09 1.4389.075 2.8648.21 4.2888.39l.149.016.091.014c.105.031.194.075.27.166.12.119.18.284.165.449 0 .061-.016.121-.045.165-.029.06-.061.104-.09.15-.03.044-.074.075-.136.12-.044.029-.104.045-.164.061l-.091.014h-.042zm0-2.7109c-.044 0-.044 0-.09-.006l-.555-.08c-1.395-.19-2.7889-.334-4.1978-.428a60.238 60.238 0 00-4.2138-.129h-.046l-.09-.016c-.059-.016-.104-.036-.164-.068-.15-.092-.256-.254-.285-.438 0-.061 0-.12.016-.18.014-.061.029-.117.059-.17.031-.054.076-.102.121-.144.074-.075.18-.126.285-.15a.559.559 0 01.135-.015h.569c1.4389.009 2.8788.064 4.3038.172 1.3949.105 2.7738.26 4.1528.457l.15.021c.046.007.061.007.09.019.06.02.12.046.165.08.061.033.104.075.135.123.031.048.061.101.09.158.062.156.045.334-.029.479-.029.055-.061.105-.105.146-.075.074-.164.127-.27.15-.029.012-.046.012-.091.014l-.044.005zm0-2.7119c-.044 0-.044 0-.09-.007l-.555-.09a49.323 49.323 0 00-4.1978-.496c-1.395-.119-2.8049-.179-4.2138-.209h-.046l-.105-.014c-.061-.015-.115-.045-.165-.074-.053-.031-.099-.076-.14-.121-.036-.045-.068-.104-.094-.149-.02-.06-.037-.12-.044-.181-.016-.18.053-.371.181-.4939.074-.075.176-.125.279-.15.045-.015.09-.015.135-.015.189 0 .38.005.57.008 1.4369.034 2.8708.113 4.3037.246 1.387.119 2.77.3 4.1449.524l.135.016c.04 0 .052 0 .09.014.062.016.112.046.165.076.046.029.09.074.125.119.091.135.135.301.105.465a.7427.7427 0 01-.061.166c-.03.045-.074.104-.12.135-.074.074-.165.119-.271.149h-.135zm-15.6694-.509c-.09 0-.181-.021-.271-.063-.194-.095-.314-.293-.329-.505 0-.057.015-.111.03-.165a.4563.4563 0 01.09-.19c.045-.065.104-.12.164-.162.077-.05.167-.076.241-.092l.48-.044c.659-.0579 1.305-.1049 1.949-.1439h.06c.105.004.195.024.271.071.194.103.314.305.314.519 0 .055-.015.109-.029.161a.4734.4734 0 01-.091.189c-.044.075-.104.12-.165.165a.6742.6742 0 01-.24.09c-.104.015-.209.015-.314.03-.136.015-.286.015-.436.031l-1.168.088-.285.031c-.061.015-.122.015-.196.015zm15.6544-2.2009l-.091-.01-.554-.1c-1.395-.234-2.8049-.425-4.2138-.564-1.395-.138-2.8039-.225-4.2138-.271h-.045l-.09-.018c-.061-.015-.105-.038-.165-.071-.045-.03-.091-.072-.135-.121a.5641.5641 0 01-.12-.5059c.016-.061.045-.12.074-.18.031-.061.076-.105.121-.15.074-.076.18-.121.285-.15.045-.015.089-.015.135-.015l.584.015c1.3949.061 2.7738.15 4.1538.301 1.4389.148 2.8638.359 4.2878.6l.15.014c.046 0 .061 0 .09.016.06.015.12.045.165.074.135.105.225.256.239.421.016.06 0 .12-.015.181 0 .059-.029.119-.059.164-.031.045-.062.09-.105.135-.076.076-.181.12-.286.135l-.086.014h-.046zm-15.6714-.769a.5884.5884 0 01-.25-.056.5985.5985 0 01-.187-.137c-.045-.053-.086-.112-.111-.181a.5414.5414 0 01-.039-.156.5903.5903 0 01.255-.5459.5992.5992 0 01.26-.099c.158-.014.314-.014.473-.029.65-.045 1.301-.075 1.949-.105h.048c.091.016.181.03.256.075.179.105.3.315.3.524 0 .061-.016.121-.03.166-.03.074-.06.135-.104.195-.047.06-.107.12-.182.15-.075.045-.165.075-.255.075-.104.014-.21.014-.33.014l-.449.031c-.405.029-.795.045-1.186.074l-.3.016c-.075.015-.134.015-.194.015z"/></svg>