<svg role="img" xmlns="http://www.w3.org/2000/svg" viewBox="0 0 24 24"><title>Reddit icon</title><path d="M12 0A12 12 0 000 12a12 12 0 0012 12 12 12 0 0012-12A12 12 0 0012 0zm5.0104 4.7437c.6877 0 1.2492.5615 1.2492 1.2492 0 .6877-.5615 1.2492-1.2492 1.2492-.6737 0-1.221-.5334-1.2492-1.193l-2.5965-.5475-.7998 3.7476c1.8245.0702 3.4808.6315 4.6738 1.4876.3087-.3087.7297-.4912 1.207-.4912.9683 0 1.7543.786 1.7543 1.7544 0 .7158-.4353 1.3333-1.0107 1.614a3.111 3.111 0 01.0422.5192c0 2.6948-3.1299 4.8704-7.0035 4.8704-3.8737 0-7.0036-2.1756-7.0036-4.8704 0-.1824.0141-.3647.0422-.5331C4.4491 13.3194 4.028 12.7158 4.028 12c0-.9684.786-1.7544 1.7543-1.7544.4632 0 .8982.1965 1.207.4912 1.207-.8842 2.8773-1.4315 4.744-1.4876l.8843-4.1826c.028-.0842.0702-.1544.1403-.1965.0702-.0421.1543-.056.2385-.042l2.9052.6173c.1965-.421.6176-.7017 1.1088-.7017zM9.2492 12C8.5615 12 8 12.5615 8 13.2492c0 .6877.5615 1.2489 1.2492 1.2489.6877 0 1.2489-.5612 1.2489-1.249 0-.6876-.5612-1.2491-1.249-1.2491zm5.5016 0c-.6877 0-1.2492.5615-1.2492 1.2492 0 .6877.5615 1.2489 1.2492 1.2489.6877 0 1.2492-.5612 1.2492-1.249C16 12.5616 15.4385 12 14.7508 12zm-5.4665 3.9893a.3268.3268 0 00-.2317.0949c-.1263.1263-.1263.337 0 .4632.8421.8421 2.4842.9123 2.9614.9123.4772 0 2.1052-.0561 2.9613-.9123.1263-.1263.1265-.3229.0283-.4632-.1264-.1264-.337-.1264-.4633 0-.5474.5333-1.6843.7297-2.5123.7297-.8281 0-1.979-.1964-2.5124-.7297a.3262.3262 0 00-.2313-.0949Z"/></svg>