<svg viewBox="0 0 16 16" xmlns="http://www.w3.org/2000/svg" fill-rule="evenodd" clip-rule="evenodd" stroke-linejoin="round" stroke-miterlimit="1.414"><path d="M1.473 9.368c-.04.185-.06.374-.06.566 0 2.3 2.94 4.173 6.554 4.173 3.613 0 6.553-1.872 6.553-4.173 0-.183-.02-.364-.055-.54l-.01-.022c-.013-.036-.02-.073-.02-.11-.2-.784-.745-1.497-1.533-2.072-.03-.01-.058-.026-.084-.047-.017-.013-.03-.028-.044-.043-1.198-.824-2.91-1.34-4.807-1.34-1.88 0-3.576.506-4.772 1.315-.01.012-.02.023-.033.033-.026.022-.056.04-.087.05-.805.576-1.364 1.293-1.572 2.086 0 .038-.01.077-.025.114l-.005.01zM8 13.003c-1.198 0-2.042-.26-2.58-.8-.116-.116-.116-.305 0-.422.117-.116.307-.116.424 0 .42.42 1.125.625 2.155.625 1.03 0 1.735-.204 2.156-.624.116-.116.306-.116.422 0 .117.118.117.307 0 .424-.538.538-1.382.8-2.58.8zM5.592 7.945c-.61 0-1.12.51-1.12 1.12 0 .608.51 1.102 1.12 1.102.61 0 1.103-.494 1.103-1.102 0-.61-.494-1.12-1.103-1.12zm4.83 0c-.61 0-1.12.51-1.12 1.12 0 .608.51 1.102 1.12 1.102.61 0 1.103-.494 1.103-1.102 0-.61-.494-1.12-1.103-1.12zM13.46 6.88c.693.556 1.202 1.216 1.462 1.94.3-.225.48-.578.48-.968 0-.67-.545-1.214-1.214-1.214-.267 0-.52.087-.728.243zM1.812 6.64c-.67 0-1.214.545-1.214 1.214 0 .363.16.7.43.927.268-.72.782-1.375 1.478-1.924-.202-.14-.443-.218-.694-.218zm6.155 8.067c-3.944 0-7.152-2.14-7.152-4.77 0-.183.016-.363.046-.54C.33 9.068 0 8.487 0 7.852c0-1 .813-1.812 1.812-1.812.446 0 .87.164 1.2.455 1.24-.796 2.91-1.297 4.75-1.33l1.208-3.69.264.063c.002 0 .004 0 .006.002l2.816.663c.228-.533.757-.908 1.373-.908.822 0 1.49.67 1.49 1.492 0 .823-.668 1.492-1.49 1.492-.823 0-1.492-.67-1.493-1.49l-2.57-.606L8.39 5.17c1.773.07 3.374.572 4.57 1.35.333-.307.767-.48 1.228-.48 1 0 1.812.814 1.812 1.813 0 .665-.354 1.26-.92 1.578.025.166.04.334.04.504-.002 2.63-3.21 4.77-7.153 4.77zM13.43 1.893c-.494 0-.895.4-.895.894 0 .493.4.894.894.894.49 0 .892-.4.892-.893s-.4-.894-.893-.894z"/></svg>