<svg xmlns="http://www.w3.org/2000/svg" viewBox="0 0 16 16"><path d="M11.1 11c.58-.05 1.03-.56 1-1.17s-.53-1.1-1.14-1.1h-.04c-.63.02-1.12.55-1.1 1.18.02.32.15.58.33.77-.7 1.36-1.75 2.36-3.34 3.2-1.07.56-2.2.77-3.3.62-.92-.13-1.64-.54-2.08-1.2-.66-1-.72-2.08-.17-3.16.4-.78 1-1.35 1.4-1.63-.1-.26-.22-.7-.28-1.03C-.58 9.6-.28 12.5.62 13.87c.67 1 2.04 1.64 3.54 1.64.4 0 .82-.03 1.23-.13 2.6-.5 4.57-2.06 5.7-4.36z"/><path d="M14.67 8.5c-1.55-1.82-3.83-2.82-6.43-2.82H7.9c-.17-.37-.56-.6-1-.6h-.03c-.63 0-1.12.54-1.1 1.17.02.6.53 1.1 1.14 1.1h.05c.45-.02.84-.3 1-.7h.37c1.54 0 3 .45 4.33 1.33 1.02.67 1.75 1.55 2.16 2.6.36.86.34 1.7-.03 2.4-.57 1.1-1.53 1.68-2.8 1.68-.8 0-1.58-.25-1.98-.43-.24.2-.64.53-.93.73.88.4 1.77.63 2.63.63 1.95 0 3.4-1.1 3.95-2.16.6-1.2.55-3.22-.98-4.95z"/><path d="M4.33 11.36c.02.6.53 1.1 1.14 1.1h.04c.64-.02 1.13-.55 1.1-1.18 0-.6-.52-1.1-1.13-1.1h-.04c-.04 0-.1 0-.15.02-.83-1.4-1.18-2.9-1.05-4.52.08-1.22.48-2.28 1.2-3.16.6-.75 1.73-1.12 2.5-1.14C10.1 1.34 11 4.03 11.07 5.1l1 .3c-.23-3.28-2.27-5-4.22-5-1.83 0-3.52 1.33-4.2 3.28-.93 2.6-.32 5.1.82 7.1-.1.13-.16.36-.14.58z"/></svg>