<svg role="img" viewBox="0 0 24 24" xmlns="http://www.w3.org/2000/svg"><title>RedwoodJS icon</title><path d="M6.534 3.47l5.084 3.18c.114.071.248.11.386.111a.74.74 0 00.386-.11l5.088-3.192a.617.617 0 00.287-.569.637.637 0 00-.384-.518L12.298.064a.756.756 0 00-.61 0l-5.07 2.308a.637.637 0 00-.386.526.62.62 0 00.302.572zm7.197 4.18c0 .21.113.408.301.527l4.076 2.554c.26.164.61.144.846-.05l3.418-2.803a.613.613 0 00.231-.494.62.62 0 00-.262-.48l-3.264-2.393a.742.742 0 00-.819-.028l-4.226 2.65a.63.63 0 00-.301.516zM3.594 11.122a.61.61 0 01.228.538.624.624 0 01-.344.485l-2.434 1.338a.739.739 0 01-.782-.05.61.61 0 01-.23-.692l.9-2.596a.666.666 0 01.476-.421.713.713 0 01.64.139zm13.2.27l-4.4-2.76a.744.744 0 00-.773 0l-4.4 2.76a.637.637 0 00-.3.486.632.632 0 00.23.52l4.397 3.606a.73.73 0 00.46.16.73.73 0 00.46-.16l4.396-3.606a.618.618 0 00.228-.52.622.622 0 00-.298-.485zM5.058 10.68L1.643 7.878a.626.626 0 01-.232-.503.612.612 0 01.26-.482l3.264-2.407a.75.75 0 01.822-.028l4.223 2.65a.628.628 0 01.314.534.628.628 0 01-.314.535l-4.072 2.554a.741.741 0 01-.85-.05zm17.535 4.026l-3.477-1.908a.733.733 0 00-.811.071l-4.25 3.477a.611.611 0 00-.222.587c.04.218.2.4.423.483l5.895 2.19c.08.03.168.046.255.046a.697.697 0 00.634-.378l1.827-3.752c.149-.297.03-.65-.274-.816zm.482-4.561l.9 2.596h-.007a.599.599 0 01-.102.57.712.712 0 01-.559.26.723.723 0 01-.351-.088l-2.438-1.338a.618.618 0 01-.332-.485.607.607 0 01.228-.538l1.545-1.263a.734.734 0 01.641-.139.677.677 0 01.475.425zm-12.894 6.786a.607.607 0 00-.22-.585L5.71 12.87a.733.733 0 00-.81-.07l-3.477 1.908c-.301.168-.42.516-.278.813l1.831 3.751c.152.313.544.46.888.332l5.892-2.19a.652.652 0 00.425-.481zm2.086 1.07l4.728 1.754c.231.091.39.29.417.521a.613.613 0 01-.293.596l-4.733 3.013A.727.727 0 0112 24a.74.74 0 01-.386-.114l-4.729-3.013a.617.617 0 01-.297-.596.66.66 0 01.433-.52l4.728-1.755a.758.758 0 01.518 0z"/></svg>