<svg role="img" viewBox="0 0 24 24" xmlns="http://www.w3.org/2000/svg"><title>Refine.dev</title><path d="M14.636 4.814c0 1.441-1.18 2.609-2.636 2.609-1.456 0-2.636-1.168-2.636-2.609 0-1.44 1.18-2.608 2.636-2.608 1.456 0 2.636 1.168 2.636 2.608zm-6.13-3.378A4.978 4.978 0 0 1 12 0a4.978 4.978 0 0 1 3.495 1.436 4.874 4.874 0 0 1 1.45 3.459v14.212c0 1.298-.522 2.542-1.449 3.46A4.97 4.97 0 0 1 12 24a4.97 4.97 0 0 1-3.496-1.433 4.868 4.868 0 0 1-1.448-3.46V4.895a4.874 4.874 0 0 1 1.45-3.46zM14.45 2.47a3.483 3.483 0 0 0-3.776-.743c-.42.173-.802.425-1.124.743a3.426 3.426 0 0 0-1.015 2.425v14.212c0 .91.366 1.781 1.015 2.424.65.643 1.531 1.004 2.45 1.004s1.8-.36 2.45-1.004a3.41 3.41 0 0 0 1.014-2.424V4.895A3.41 3.41 0 0 0 14.45 2.47z"/></svg>