<svg role="img" viewBox="0 0 24 24" xmlns="http://www.w3.org/2000/svg"><title>Reka UI</title><path d="M6.2978 1.3264c-.7222 0-1.1755.7874-.8129 1.412L8.0634 7.179h7.977c1.0835 0 1.7887 1.2194 1.248 2.1584L13.32 16.2316l3.4227 5.8943a.9403.9403 0 0 0 .8129.468h5.5041c.7478 0 1.1968-.8385.7822-1.461l-3.6297-5.4502c-.3004-.4511-.0832-1.0494.3838-1.2906v-.0002h.0002c1.1395-.5959 1.9842-1.4154 2.534-2.4556.551-1.0422.8274-2.239.8274-3.5903 0-1.3511-.2765-2.5555-.8276-3.6129-.5499-1.0552-1.3982-1.886-2.5453-2.4893l-.0014-.0006-.0018-.0007c-1.146-.6096-2.614-.916-4.409-.916ZM.9406 7.679c-.7207 0-1.1742.7844-.8147 1.409l7.5499 13.116c.3603.626 1.269.626 1.6293 0l7.55-13.116c.3596-.6246-.094-1.409-.8147-1.409z"/></svg>