<svg role="img" viewBox="0 0 24 24" xmlns="http://www.w3.org/2000/svg"><title>Reka UI</title><path d="M6.3467 1.3263c-.6865 0-1.1142.7443-.7696 1.338l2.5645 4.416h7.9473c1.1214 0 1.8504 1.2603 1.291 2.2323l-3.9532 6.8692 3.4063 5.8672a.893.893 0 0 0 .7715.4433h5.5039c.711 0 1.1344-.791.7402-1.3828l-3.6289-5.4511c-.3177-.477-.0888-1.1078.4024-1.3614 1.1317-.5919 1.9667-1.4024 2.5117-2.4336.5467-1.0343.8222-2.2239.8222-3.5683 0-1.3443-.2752-2.5402-.8222-3.5899-.5451-1.046-1.3841-1.8675-2.5235-2.4668h-.002c-1.1368-.6053-2.5962-.912-4.3866-.912ZM.9912 7.5803c-.761 0-1.237.8227-.8574 1.4823L7.6826 22.178c.3805.661 1.3343.661 1.7149 0l7.5488-13.1153c.3796-.6596-.0964-1.4824-.8574-1.4824Z"/></svg>