<svg role="img" viewBox="0 0 24 24" xmlns="http://www.w3.org/2000/svg"><title>Reka UI</title><path d="M6.3457 1.3281c-.6865 0-1.1142.7443-.7695 1.338L8.1387 7.08h7.9511c1.1217 0 1.8505 1.2625 1.291 2.2344l-3.955 6.869 3.4082 5.8692a.8898.8898 0 0 0 .7695.4434h5.504c.711 0 1.1363-.793.7421-1.3848l-3.6308-5.4492c-.3178-.477-.089-1.1096.4023-1.3633 1.1318-.5919 1.9686-1.4023 2.5137-2.4336.5467-1.0344.8222-2.2238.8222-3.5683 0-1.3444-.2751-2.5401-.8222-3.5899-.5452-1.0461-1.386-1.8694-2.5254-2.4687-1.137-.6054-2.5981-.9102-4.3887-.9102h-9.875zM.9883 7.5801c-.7564 0-1.2348.8288-.8574 1.4844l7.5507 13.1152c.3782.657 1.3367.657 1.7149 0l7.5508-13.1152c.3773-.6556-.1011-1.4844-.8575-1.4844H.9883z"/></svg>