<svg role="img" viewBox="0 0 24 24" xmlns="http://www.w3.org/2000/svg"><title>Relay</title><path id="path4954" d="M 2.26428,4.93674 C 1.013537,4.93674 0,5.95018 0,7.20093 c 0,1.25074 1.013629,2.26428 2.264373,2.26428 1.05365,0 1.939289,-0.71975 2.191903,-1.69462 h 10.338697 c 0.987641,0 1.791277,0.80368 1.791277,1.79146 0,0.98779 -0.803588,1.79156 -1.791277,1.79156 H 9.064072 c -1.672467,0 -3.033189,1.36067 -3.033189,3.03318 0,1.67252 1.360627,3.03301 3.033189,3.03301 h 10.494294 c 0.269874,0.9487 1.141971,1.64346 2.177353,1.64346 1.250744,0 2.264281,-1.01344 2.264281,-2.26419 0,-1.25074 -1.013537,-2.26428 -2.264281,-2.26428 -1.035304,0 -1.907408,0.69469 -2.177353,1.64328 H 9.063979 c -0.987784,0 -1.791463,-0.80359 -1.791463,-1.79128 0,-0.98797 0.803584,-1.79164 1.791463,-1.79164 h 5.730901 c 1.672514,0 3.033003,-1.36063 3.033003,-3.0331 0,-1.67246 -1.360442,-3.03319 -3.033003,-3.03319 H 4.427176 C 4.140873,5.60643 3.280789,4.93674 2.26428,4.93674 Z"/></svg>