<svg role="img" viewBox="0 0 24 24" xmlns="http://www.w3.org/2000/svg"><title>Render</title><path d="M7.509 0a7.474 7.474 0 00-5.305 2.204A7.474 7.474 0 00.589 4.588 7.432 7.432 0 000 7.51v11.284h3.172V7.467a4.498 4.498 0 011.333-2.99 4.528 4.528 0 013.018-1.305h6.063V0H7.509zm8.112 0v3.158h3.172V0H15.62zm5.207 10.414H24v3.172h-3.172v-3.172zm0-5.207v3.172H24V5.207h-3.172zM24 0v3.158h-3.172V0H24zm-3.172 15.621v3.172H24V15.62h-3.172zm0 5.207H24V24h-3.172v-3.172zm-5.207 0V24h3.172v-3.172H15.62zm-5.207 0h3.172V24h-3.172v-3.172zm-5.207 0V24h3.172v-3.172H5.207zm-5.207 0h3.158V24H0v-3.172z"/></svg>