<svg version="1.1" xmlns="http://www.w3.org/2000/svg" x="0" y="0" viewBox="0 0 24 24" xml:space="preserve"><style>.st0{fill:#fe2}.st1{fill:#e62}.st10{fill:#0aa}</style><circle class="st0" cx="12" cy="12" r="11.9"/><path d="M19.2 18.3l-.5.5c-.3.3-.7.3-1 0l-3-3c-.3-.3-.3-.8 0-1l.5-.5c.3-.3.7-.3 1 0l3 3c.2.3.2.8 0 1z" fill="#d51"/><path d="M18.2 16.4l.5.5c.3.3.3.7 0 1l-.5.5c-.3.3-.7.3-1 0l-.4-.5c.3.3.7.3 1 0l.5-.5c.1-.3.1-.8-.1-1z" fill="#b30"/><path d="M18.6 16.8l.5.5c.3.3.3.7 0 1l-.5.5c-.3.3-.7.3-1 0l-.6-.5c.3.3.8.3 1 0l.5-.5c.3-.3.3-.8.1-1z" fill="#a30"/><path class="st1" d="M16.6 14.8l-.3-.3c-.4-.4-1.1-.4-1.5 0-.5.5-.5 1.1 0 1.5l.3.3c-.3-.3-.3-.7 0-1l.5-.5c.3-.3.7-.3 1 0z"/><path d="M9.6 7l1.2-1.2L11.9 7l-1.2 1.2L9.6 7zm.1-2.2l1.2-1.2L12 4.8 10.8 6 9.7 4.8zm-5.8 5.7L5 9.4l1.2 1.2L5 11.7l-1.1-1.2zm2.2-2.3L7.3 7l1.2 1.2-1.2 1.2-1.2-1.2z" fill="#1cc"/><path d="M8.5 8.2L9.6 7l1.2 1.2-1.2 1.2-1.1-1.2zm-2.3 2.3l1.2-1.2 1.2 1.2-1.2 1.2-1.2-1.2z" fill="#1dd"/><path d="M7.3 9.4l1.2-1.2 1.2 1.2-1.2 1.2-1.2-1.2zm3.5-3.5L12 4.7l1.2 1.2L11.9 7l-1.1-1.1zM5 11.7l1.2-1.2 1.2 1.2-1.2 1.2L5 11.7zm9-5.5l1.5 1.5c.3.3.3.7 0 1L9 15.2c-.3.3-.7.3-1 0l-1.5-1.5c-.3-.3-.3-.7 0-1L13 6.2c.3-.3.7-.3 1 0z" fill="#2bb"/><path d="M8.5 5.9l1.2-1.2 1.2 1.2L9.6 7 8.5 5.9zM5 7l1.2-1.1L7.3 7 6.1 8.2 5 7zm3.5-3.4l1.2-1.2 1.2 1.2-1.2 1.2-1.2-1.2zm6 3.1l-.5-.5c-.3-.3-.7-.3-1 0l-6.5 6.5c-.3.3-.3.7 0 1l.5.5c-.3-.3-.3-.7 0-1l6.5-6.5c.3-.2.8-.2 1 0z" fill="#3ee"/><path d="M1.6 8.2L2.7 7l1.2 1.2-1.2 1.2-1.1-1.2zM5 4.8l1.2-1.2 1.2 1.2-1.2 1.1L5 4.8z" fill="#9ee"/><path class="st10" d="M14.6 6.8l.8.8c.3.3.3.7 0 1L9 15.2c-.3.3-.7.3-1 0l-.8-.8c.3.3.7.3 1 0l6.5-6.5c.3-.4.3-.7-.1-1.1z"/></svg>
