<svg role="img" viewBox="0 0 24 24" xmlns="http://www.w3.org/2000/svg"><title>Renovate</title><path d="m18.173 17.196-2.556 2.555 2.848 3.438q.065.075.141.15c.874.873 2.315.89 3.206 0 .94-.941.872-2.482-.152-3.33zm-1.048-.699a.53.53 0 0 0-.334.15l-1.74 1.73a.51.51 0 0 0-.032.691l.15.183h.008l2.489-2.489-.183-.149a.52.52 0 0 0-.358-.116M13.857 5.698c-.448 0-.896.17-1.236.51L8.71 10.102 5.105 13.69v.001a1.745 1.745 0 0 0 0 2.464l.141.142 1.29 1.282c.68.68 1.794.68 2.473 0l.524-.524 1.589-1.582 1.1-1.09 1.773-1.765 2.53-2.522v-.002a1.745 1.745 0 0 0 0-2.463V7.63l-1.432-1.422a1.74 1.74 0 0 0-1.236-.509m0 .632c.285 0 .568.11.786.327h.002l1.43 1.424a1.096 1.096 0 0 1 0 1.563l-2.53 2.523-1.772 1.764-1.1 1.09-1.59 1.582v.002l-.524.524a1.11 1.11 0 0 1-1.573 0l-1.291-1.283-.141-.141a1.096 1.096 0 0 1 0-1.564l3.605-3.588 3.91-3.896h.002c.218-.218.502-.327.786-.327m0 0c-.284 0-.568.11-.786.327h-.001l-3.911 3.896-3.605 3.588a1.096 1.096 0 0 0 0 1.564l.14.14 1.292 1.284a1.11 1.11 0 0 0 1.573 0l.524-.524v-.002l1.59-1.582 1.1-1.09 1.772-1.764 2.53-2.523a1.096 1.096 0 0 0 0-1.563l-1.43-1.424h-.002a1.1 1.1 0 0 0-.786-.327m2.885.094c-.38 0-.76.117-1.083.344l.423.421a1.295 1.295 0 0 1 1.577.199l1.056 1.057c.904.905.905 2.353.002 3.248v.002l-3.496 3.479h-.002c-.56.56-.56 1.477.003 2.03l.506.5.415-.413-.51-.503h-.003a.84.84 0 0 1 .004-1.201l3.494-3.48a2.88 2.88 0 0 0 .002-4.075l-1.058-1.057a1.88 1.88 0 0 0-1.33-.551M7.6 0a1.71 1.71 0 0 0-1.23.463 1.71 1.71 0 0 0-.073 2.423l.002.002L8.91 5.651H8.91a.623.623 0 0 1-.026.89.625.625 0 0 1-.891-.027L6.734 5.181h-.001a1.727 1.727 0 0 0-2.427-.072 1.71 1.71 0 0 0-.074 2.423v.002l1.88 1.988c.242.258.23.65-.026.89a.623.623 0 0 1-.89-.027h-.002l-.686-.729-.014-.022a1.73 1.73 0 0 0-2.428-.072 1.71 1.71 0 0 0-.074 2.425l2.254 2.443.005.007.352.363c.017-.245.084-.485.203-.706l-.094-.097-2.253-2.445-.003-.002a1.063 1.063 0 0 1 .043-1.521l.002-.002a1.08 1.08 0 0 1 1.528.042l.003.012.7.74c.477.508 1.282.53 1.789.056a1.27 1.27 0 0 0 .057-1.79l-.002-.002-1.88-1.988v-.002a1.06 1.06 0 0 1 .042-1.52h.001a1.08 1.08 0 0 1 1.533.044l1.256 1.33a1.27 1.27 0 0 0 1.789.057 1.27 1.27 0 0 0 .057-1.79l-.002-.001L6.76 2.452v-.001A1.06 1.06 0 0 1 6.803.93L6.805.93a1.077 1.077 0 0 1 1.533.046l2.63 2.779 1.279 1.355.744.818c.207-.118.434-.189.665-.215l-.94-1.033-.006-.005-1.28-1.357L8.797.537V.535A1.73 1.73 0 0 0 7.599 0"/></svg>