<svg role="img" viewBox="0 0 24 24" xmlns="http://www.w3.org/2000/svg"><title>Ren'Py icon</title><path d="M10.178 0S6.92 1.035 6.262 4.744c-1.365.903-2.056 1.624-2.059 1.916 0 .023.02.042.031.063.115-.054 5.565-2.614 9.422-2.967a8.31 8.31 0 01.707-.03c1.8-.007 4.532.365 4.569.37-.063-.269-1.722-1.02-2.817-1.217C13.517.009 10.178 0 10.178 0zm8.754 4.096c-.039-.003-3.665-.261-5.342-.096-3.94.388-9.242 2.675-9.356 2.725.16.27 1.288.38 1.848.384-.085 1.63-.804 4.532-.674 4.553.09.014.295-.547.295-.547s-.105.322-.201.692c.404-.02.597-.04.852-.018.056.005.142.01.183.078.134-.26.137-.494.137-.494s.056.211.043.494c.096-.082.209-.316.209-.316s-.009.201-.018.324c.08.048.213.033.213.033a6.8 6.8 0 01-.092.592c-.062.312-.16.488-.4.803-.297.002-.616.244-.748.57-.019.17.246.37.246.37l-.39 1.896a1.743 1.743 0 00-.583.937s-.078.912-.013 1.23c.04.202 1 .846 1.671.89.397.025 1.19-.618 1.19-.618l.506-.049c.276.346.528.441.931.553l.11.34s-.182.149-.182.26c0 .11.197.214.197.214s-1.108.156-1.074 1.53c.018.728 1.01 1.074 1.824 1.105.855.033 2.012-.513 2.012-.513s.184.066.412.048c.262-.02.55-.205.55-.205s-.427.331-.436 1.268c-.003.25.171.537.363.7.114.095.3.17.412.171.173.001-.358-.495-.375-.813-.028-.541.69-.626 1.135-.626.471-.001 1.812.614 2.82.627 1.57.018 2.583-1.213 2.613-2.16.037-1.14-.951-1.835-1.304-2.212-.052-.232-.324-.72-.604-.78-.487-.105-.963.089-.963.089s-.112-.03-.222-.088c.793-1.087.876-1.977.886-2.728.032-2.214-1.539-3.268-1.761-3.39.37-.38.529-.64.62-.847a27.5 27.5 0 00-.179 1.051l.37-.326v.379s.438-.45.503-.914c.039.377.021.914.021.914s.553-.561.737-1.92c.035.862.066 1.508.066 1.508s.29-1.837.192-3.75c-.048-.928-.144-2.02-.47-2.746.825-.647 1.245-.959 1.227-1.16 0-.004-.007-.009-.007-.012zM10.516.25s.962.233 1.406.578c.737.573 1.562 1.75 1.562 1.75s-.98-1.165-1.625-1.625C11.463.67 10.516.25 10.516.25zM10 .281s-.72.785-1 1.235c-.42.672-1 2.156-1 2.156s.358-1.511.766-2.156C9.076 1.024 10 .28 10 .28zm3.914 2.56c.813.013 1.465.054 1.465.054s-2.596.027-3.867.253c-2.018.36-4.729 1.538-4.729 1.538S9.285 3.36 11.49 2.96c.638-.116 1.611-.132 2.424-.12zm-3.031 3.07s-.122.283-.23.552c-.056-.01-.112-.027-.165-.026.19-.26.395-.527.395-.527zm1.293.01s-.513 1.13-.598 2.433c.17-.534.299-.83.299-.83s-.063.815.121 1.425a4.068 4.068 0 01.773-1.955s-.209.81-.12 1.37c.107-.826.398-1.69.398-1.69s-.187 1.808.209 2.64c.385-.368.719-1.193.719-1.193s.073.246.044.508c.506-.967.452-2.574.452-2.574s.122.406.26.998c-.19.13-.315.271-.315.271s.136-.113.326-.215c.08.347.155.75.223 1.176-.005 0-.009-.004-.014-.004-.62-.006-.944.26-1.047.594-.288.935.01 1.18.453 1.18.836-.001.961-1.149.961-1.149s.119.33.094.57c-.01.104-.101.274-.101.274l.335-.242s-.092-.74-.394-1.069c.145-.587.24-1.068.285-1.42.05.023.097.052.143.085.063.634.133 1.446.117 2.066.172-.286.31-.586.31-.586l.01.52s-.344.88-.906 2.033c-1.185.85-1.903 1.111-3.17 1.181-.478.027-1.305-.175-1.305-.175s-.556-1.118-1.037-1.106c-.288.007-.719.22-.719.22s-.542-1.166-.232-4.009c.041-.38.674-.928.674-.928s-.257.515-.414 1.284a5.42 5.42 0 01-.115.14s.092-.094.11-.115a5.608 5.608 0 00-.1.713c.122-.289.288-.541.288-.541s-.063.57.121.84c.355-.915.75-1.59 1.063-2.053.013-.003.028-.012.041-.014.052-.009.12.01.182.016a5.67 5.67 0 00-.354 1.531c-.886.086-1.043 1.293-1.043 1.293l.324.309s-.104-.216-.105-.34c.273.375.461.746 1.025.74 1.124-.013.951-1.56.951-1.56l.07.023s-.376-.51-1.171-.477l-.006.002a8.303 8.303 0 01.852-1.384c.127.051.159.068.252.115-.155.395-.291.859-.27 1.312.137-.467.31-.861.479-1.209l.074.037-.069-.048c.295-.606.567-1.012.567-1.012zm-.344.013s-.222.368-.42.863c-.08-.057-.104-.075-.219-.139.362-.464.639-.724.639-.724zm3.768.375l.066.644a.698.698 0 00-.117-.055c.031-.307.05-.59.05-.59zm-4.54 2.105c.068.002.135.05.17.123.05.1.024.214-.056.252-.08.04-.184-.01-.233-.111-.049-.1-.023-.214.057-.252a.133.133 0 01.063-.012zm4.04.106c.058.002.121.05.16.123.053.1.042.211-.024.25-.065.038-.161-.01-.215-.11-.053-.1-.042-.211.024-.25a.098.098 0 01.055-.013zm-3.83.714s-.004.734-.805.793c-.556.042-.805-.445-.805-.445l.106.04s.077-.066.156-.028c.089.043.098.168.098.168s.059.075.398.066c.633-.016.852-.594.852-.594zm3.824.102s-.145.637-.719.648c-.607.012-.48-.527-.48-.527s.057.343.5.379c.427.035.699-.5.699-.5zm-2.578 1.5c-.238-.003-.704.125-.704.125l.157.453-.016-.36s.347-.075.524-.077c.157-.003.468.054.468.054l-.062.406.25-.476s-.407-.123-.617-.125zm-2.907.656c1.032-.02.72 1.828.72 1.828s-.542-.113-1.071-.078c-.087-.747-.188-1.74.351-1.75zm-1.484.28c.675.101.617 1.58.617 1.58s-.588.168-.844.53c-.455-.878-.654-1.85-.109-2.062a.655.655 0 01.336-.049zm5.893.271l.027.178s-.382.309-.477.867l-.783-.373.016-.315c.56-.016 1.217-.357 1.217-.357zm-3.047.314l.347.067-.021.187-.326-.254zm.486.051s.34.052.508.055c.22.003.68-.055.68-.055l.017.457-.271.592-.977-.713.043-.336zm-1.846.297c-.104 0-.188.106-.187.236 0 .13.084.235.187.235.105 0 .19-.104.19-.235 0-.13-.085-.237-.19-.236zm.059.078c.05 0 .091.043.092.096 0 .054-.041.098-.092.098s-.092-.044-.092-.098c0-.053.042-.096.092-.096zm-1.307.164a.154.154 0 00-.056.012c-.098.037-.139.166-.092.287.046.121.163.19.26.152.098-.035.14-.165.093-.287-.036-.097-.12-.164-.205-.164zm.051.059c.04-.004.08.02.096.06.02.051-.003.108-.051.125-.048.02-.102-.007-.121-.058-.02-.05.003-.105.05-.123a.088.088 0 01.026-.004zm4.422.037l.732.768.254.199.221-.586s.867.283.889 1.662l-1.127-.623-.076.182 1.189.695c-.02.162-.054.325-.107.49-.02-.03-.04-.068-.061-.072-.562.133-1.453.492-1.453.492l.008 1.834c-.154.166-.307.337-.461.49l-.073-2.515.208-.586c-.043-.06-.315-.449-.377-.702-.03-.118.032-.245.003-.363-.035-.144-.186-.246-.209-.392-.017-.117-.014-.308.067-.348.044-.022.127.027.127.076 0 .088-.08.096-.082.154-.008.193.19.343.23.532.025.113-.022.235.006.347.049.197.222.479.28.569l.519-1.465-.695-.748-.352.375.34-.465zm-1.34.219l.758.254-.777-.16.02-.094zm-.36.57l1.725 1.818-.177.43.074 2.584c-1.201 1.182-3.051 1.203-3.051 1.203s-.202-.063-.217-.183c-.013-.106.158-.235.158-.235-.171-.552-.21-.736-.224-1.34l-.227-.105.52-.74c-.016-.215.009-.438.072-.598 0 0 .382-.099.535-.215.171-.129.201-.385.201-.385s.262.06.602-.015a.89.89 0 00.678-.856c.01-.811-.883-.953-.883-.953l.215-.41zm-1.284.035c.08 0 .155.037.207.098a.273.273 0 00-.102-.022.273.273 0 00-.209.45.273.273 0 01.104-.526zm-1.149.227c.08 0 .156.036.207.097a.273.273 0 00-.101-.021.273.273 0 00-.21.45.273.273 0 01.104-.526zm2.135.263s.699.024.857.76c.081.377-.301.828-.767.881-.111.013-.408-.037-.408-.037s-.055-.114-.155-.115c-.227-.003-.342.138-.72.185-.3.038-.386-.011-.575.022-.214.037-.22.277-.22.277s-.387.118-.586.121c-.772.014-.97-.427-1.028-.873-.082-.634.541-.883.541-.883s.072.202.397.352l-.23.068.06.264-.215.066.027.287.254-.027.045.26.266-.012-.05-.303.226-.05.025-.442c.218.039.474.063.826.033.345-.028.603-.147.82-.28a.671.671 0 00-.056.269c0 .38.316.687.707.687.39 0 .707-.308.707-.687a.697.697 0 00-.87-.668c.076-.089.122-.155.122-.155zm3 .188l1.1.615c0 .028-.008.058-.01.086l-1.13-.644.04-.057zm-2.807.037c.05.002.1.02.137.06l.01.01a.198.198 0 01-.008.28l-.477.447a.198.198 0 01-.279-.01l-.008-.01a.195.195 0 01.008-.277l.094-.09.033.074a.15.15 0 10.186.147.15.15 0 00-.125-.147l.01-.17.279-.261a.195.195 0 01.14-.053zm-.006.059a.15.15 0 10.016.3.15.15 0 00-.016-.3zm.245.34c.05.001.099.02.136.06l.01.01a.198.198 0 01-.008.28l-.476.446a.198.198 0 01-.28-.01l-.007-.01a.195.195 0 01.007-.277l.477-.447a.195.195 0 01.14-.053zm-.008.058a.15.15 0 10.002 0h-.002zm-3.008.047l.137.232-.11.024-.027-.256zm1.537.35a.08.08 0 00-.049.04l-.062.118a.087.087 0 00.035.117.088.088 0 00.117-.037l.06-.117a.085.085 0 00-.035-.116.088.088 0 00-.066-.005zm1.014.025a.15.15 0 10.002 0h-.002zm-1.483.057a.088.088 0 00-.05.043l-.061.117a.085.085 0 00.035.115.085.085 0 00.115-.035l.063-.12a.085.085 0 00-.037-.115.083.083 0 00-.065-.005zm5.397.357c.024.008.04.04.054.07a4.003 4.003 0 01-.285.608l-.765.279s-.015-.196-.028-.293c-.019-.148-.28-.172-.28-.172s.895-.376 1.304-.492zm-1.305.586c.077.008.193.03.197.123.007.138.028.414.028.414l.74-.27a7.746 7.746 0 01-.576.78l-.065-.365v.449c-.11.132-.216.258-.332.385l.008-1.516zm-2.006.031c-.324.004-.645.04-.972.108-.129.183-.073.564-.073.564l2.133-.105s-.014-.334-.105-.487a5.44 5.44 0 00-.983-.08zm-.076.09c.263-.007.551.008.992.05.068.152.067.34.067.34l-1.934.087s-.014-.204.035-.387c.339-.053.577-.083.84-.09zm1.066.59s-.109.838-.023 1.32c-.462.113-1.205.137-1.828.11a22.382 22.382 0 01-.086-1.22s-.08.55-.008 1.36c.714-.004 1.466-.006 2.031-.14a25.108 25.108 0 01-.086-1.43zm-1.222.246s-.029.34-.028.512c.002.188.04.562.04.562s.045-.37.042-.555c-.002-.174-.054-.519-.054-.519zm.484.098s-.043.285-.043.43c0 .147.047.44.047.44s.028-.29.027-.437c0-.145-.03-.433-.03-.433zm6.229.617c.25.139.459.393.457.611-.003.254-.264-.15-.557-.404.233.249.397.632.215.637-.238.006-.255-.311-.602-.514-.183-.107-.496-.152-.496-.152s.371-.174.983-.178zm-1.881.789c.161-.025.325 0 .453.187.138.203.176.746.176.746s-.448.437-.735.547c-.01-.128-.007-.244-.023-.402-.013-.123-.172-.28-.361-.309v-.171c.174-.192.34-.392.49-.598zm-.563.674v1.513c-.136.058-.245.115-.414.172-.254.087-.544-.005-.804.063-.286.073-.53.26-.805.367-.409.16-.95.176-.95.176s1.709-.936 2.973-2.291zm.073.16c.126.025.282.153.287.256.013.26.022.344.03.504.158-.017.427-.262.427-.262s.042.256-.055.406c-.081.125-.348.271-.69.42v-1.324zm.85.549s1.599.075 1.6.71c.002.4-.703.64-1.124.641-.571.002-1.54-.343-1.54-.343s.913-.391 1.032-.575c.098-.151.031-.433.031-.433z"/></svg>