<svg role="img" viewBox="0 0 24 24" xmlns="http://www.w3.org/2000/svg"><title>Ren'Py icon</title><path d="M10.1777 0s-3.2576 1.0349-3.916 4.7441c-1.3648.9025-2.0553 1.6234-2.0586 1.916-.0002.0226.0195.042.0313.0626.115-.0542 5.5644-2.6134 9.4218-2.9668.2086-.0191.4482-.0282.707-.0293 1.8003-.008 4.532.3641 4.5684.3691-.0623-.2685-1.7218-1.0198-2.8164-1.2168C13.5166.0092 10.1777 0 10.1777 0zm8.754 4.0957c-.0383-.0027-3.6646-.261-5.3419-.0957-3.9392.3884-9.2415 2.6753-9.3554 2.7246.159.271 1.2874.381 1.8476.3848-.0847 1.63-.8037 4.532-.6738 4.5527.0897.0143.295-.5469.295-.5469s-.1055.3215-.2012.6914c.4037-.0198.5967-.0399.8515-.0175.0569.005.1422.009.1836.078.1335-.2595.1367-.494.1367-.494s.0562.211.043.494c.096-.082.209-.3163.209-.3163s-.0086.2016-.0176.3242c.0794.0484.2129.0332.2129.0332-.0384.3045-.0526.3952-.0918.5918-.0623.3124-.161.4877-.4004.8027-.2971.0024-.6163.2441-.748.5703-.019.1705.246.3692.246.3692l-.3906 1.8965c-.2818.235-.4725.5277-.582.9375 0 0-.0786.912-.0137 1.2304.0411.2014 1.0008.8459 1.6719.8887.3966.0253 1.1895-.6172 1.1895-.6172l.5058-.0488c.2759.346.5285.4408.9317.5527l.1093.3399s-.1817.1491-.1816.2597c0 .1105.1973.2149.1973.2149s-1.1082.1556-1.0743 1.5293c.018.728 1.0103 1.0743 1.8243 1.1054.855.0328 2.0117-.5136 2.0117-.5136s.1837.0661.412.0488c.2619-.0198.549-.205.549-.205s-.4261.3309-.4356 1.2675c-.0025.2508.1716.5375.3632.6992.114.0962.3006.1712.4122.1719.1735.0011-.3585-.4947-.375-.8125-.0283-.5415.6908-.6261 1.1347-.627.4716-.0008 1.8126.615 2.8203.627 1.5705.0188 2.5829-1.213 2.6133-2.1602.0366-1.1395-.9514-1.834-1.3047-2.2109-.0513-.232-.3234-.7212-.6035-.7812-.4868-.1043-.9629.0898-.9629.0898s-.112-.0304-.2226-.0879c.7939-1.0874.876-1.9766.8867-2.7285.0316-2.2134-1.5389-3.2676-1.7617-3.3887.3705-.3807.5292-.64.621-.8476-.0975.4992-.1796 1.0507-.1796 1.0507l.3691-.3261v.3789s.4392-.4495.504-.914c.0386.3768.0214.914.0214.914s.552-.561.7363-1.92c.0353.8619.0664 1.5079.0664 1.5079s.289-1.8366.1914-3.75c-.0472-.9272-.144-2.0201-.4687-2.7461.8241-.6466 1.2442-.9585 1.2266-1.1602-.0003-.0031-.007-.0084-.0078-.0117zM10.5156.25s.9619.233 1.4062.5781c.7371.5728 1.5625 1.75 1.5625 1.75s-.9801-1.1652-1.625-1.625C11.4628.6703 10.5156.25 10.5156.25zM10 .2813s-.7198.785-1 1.2343C8.5808 2.188 8 3.672 8 3.672s.3584-1.5114.7656-2.1563C9.0763 1.0236 10 .2812 10 .2812zm3.914 2.5605c.8129.0123 1.465.0527 1.465.0527s-2.5955.0273-3.8673.254c-2.0181.3595-4.7285 1.537-4.7285 1.537s2.502-1.325 4.707-1.7246c.638-.1155 1.611-.1314 2.4239-.1191zm-3.0312 3.0684s-.1219.2834-.2305.5527c-.0552-.0097-.111-.0264-.164-.0254.1896-.2605.3945-.5273.3945-.5273zm1.293.0117s-.5125 1.1299-.5977 2.4316c.1706-.5339.2989-.83.2989-.83s-.0634.815.121 1.4257c.1301-1.1687.7735-1.955.7735-1.955s-.2091.81-.1211 1.369c.1074-.8248.3984-1.6894.3984-1.6894s-.1864 1.8085.209 2.6407c.3856-.3687.7188-1.1934.7188-1.1934s.0739.2463.0449.5078c.5058-.9673.4512-2.5742.4512-2.5742s.122.4061.2597.998c-.19.1299-.3144.2715-.3144.2715s.1362-.1129.3261-.2148c.0798.3465.1547.7503.2227 1.1758-.005-.0003-.0087-.0039-.0137-.004-.6207-.0057-.9437.2597-1.0469.5938-.2885.935.009 1.18.4532 1.1797.8355-.0007.961-1.1485.961-1.1485s.1186.3293.0937.5704c-.0107.1031-.1016.2734-.1016.2734l.336-.2422s-.092-.7406-.3946-1.0683c.145-.5873.2408-1.0687.2852-1.42a.8619.8619 0 01.1425.084c.0637.6346.1333 1.4461.1172 2.0664.1718-.2858.3106-.586.3106-.586l.0098.5196s-.344.8809-.9063 2.0332c-1.1852.8508-1.9032 1.1117-3.1699 1.1817-.478.0264-1.3047-.1758-1.3047-.1758s-.5567-1.1174-1.037-1.1055c-.288.0071-.7188.2207-.7188.2207S8.4396 10.091 8.75 7.248c.0415-.38.6739-.9277.6739-.9277s-.2573.5144-.4141 1.2832c-.02.0276-.1152.1406-.1152.1406s.0927-.0938.1113-.1152c-.0442.221-.0834.4556-.1016.7129.1224-.2885.289-.541.289-.541s-.063.571.1212.8398c.355-.9146.75-1.5889 1.0625-2.0527.0134-.003.0278-.0114.041-.0137.0519-.009.1207.0105.1816.0156-.1575.4228-.3114.962-.3535 1.5313-.8864.086-1.043 1.293-1.043 1.293l.3243.3086s-.1041-.2152-.1055-.3399c.2735.375.4613.7466 1.0254.7402 1.1235-.0128.9512-1.5605.9512-1.5605l.0703.0234s-.3765-.51-1.1719-.4765c-.0023 0-.0037.0018-.0059.002.2857-.582.5847-1.0348.8516-1.3848.1279.0519.1594.0682.252.1152-.1542.3956-.291.859-.2696 1.3125.137-.4672.3104-.8614.4785-1.209.0098.0056.0742.0371.0742.0371s-.0593-.0415-.0683-.0488c.2942-.6058.5664-1.0117.5664-1.0117zm-.3438.0117s-.222.3686-.4199.8633c-.0808-.0573-.1045-.0745-.2187-.1387.3613-.4642.6386-.7246.6386-.7246zm3.7676.375s.0381.3757.0664.6445c-.037-.023-.0768-.039-.1172-.0547.0316-.3075.0508-.5898.0508-.5898zm-4.539 2.1055c.0671.0016.1342.0501.1699.123.049.1004.0235.2135-.0567.252-.0797.0391-.184-.0108-.2324-.1114-.049-.1003-.0235-.2135.0566-.252a.133.133 0 01.0625-.0116zm4.039.1054c.0589.0028.1218.0512.1602.123.0531.0996.0426.2117-.0235.25-.0656.0387-.1617-.0103-.2148-.1093-.0532-.0995-.0427-.2116.0234-.25a.0977.0977 0 01.0547-.0137zm-3.83.7149s-.0034.7336-.8048.793c-.556.0411-.8046-.4454-.8046-.4454l.1054.039s.0777-.0653.1563-.0272c.0891.043.0976.168.0976.168s.059.0747.3985.0663c.6334-.0157.8515-.5937.8515-.5937zm3.8241.1015s-.1442.6375-.7187.6485c-.6071.0116-.4805-.5274-.4805-.5274s.0572.3427.5.379c.4273.035.6992-.5.6992-.5zm-2.578 1.5c-.2381-.0028-.7032.125-.7032.125l.1563.4532-.0157-.3594s.347-.0753.5235-.0781c.1572-.0025.4687.0546.4687.0546l-.0625.4063.25-.4766s-.4073-.1225-.6172-.125zm-2.9063.6563c1.0311-.0195.7187 1.8281.7187 1.8281s-.5413-.1136-1.0703-.0781c-.0866-.7472-.1874-1.7398.3516-1.75zm-1.4844.2793c.675.1015.6172 1.58.6172 1.58s-.5877.1686-.8438.5313c-.455-.8792-.6546-1.8504-.1093-2.0625.1286-.05.2395-.0633.3359-.0488zm5.8926.2715l.0273.1777s-.3818.309-.4765.8672l-.7832-.373.0156-.3145c.5598-.0168 1.2168-.3574 1.2168-.3574zm-3.0469.3144l.3477.0664-.0215.1875zm.4863.0508s.339.0523.5078.0547c.22.003.6797-.0547.6797-.0547l.0176.457-.2715.5918-.9765-.7129zm-1.8457.2969c-.104.0002-.1882.1062-.1875.2363.0002.1294.084.2342.1875.2344.1043.001.1893-.104.1895-.2344.0007-.131-.0846-.2374-.1895-.2363zm.0586.0781c.0503-.0004.0913.0424.0918.0957.0005.054-.0408.098-.0918.0977-.051.0003-.0923-.0437-.0918-.0977.0005-.0533.0416-.096.0918-.0957zm-1.3066.164a.1533.1533 0 00-.0567.0118c-.0974.0368-.1385.1656-.0918.2871.0464.1214.1628.1897.2598.1523.0983-.0358.1405-.1649.0938-.287-.0365-.0974-.12-.1641-.2051-.1641zm.0508.0587c.0404-.0037.0793.021.0957.0605.0204.0506-.0026.1072-.0508.125-.0476.0189-.1023-.0076-.1211-.0586-.0192-.05.0036-.1051.0508-.123a.0872.0872 0 01.0254-.004zm4.4218.037l.7325.7676.2539.1993.2207-.586s.8672.283.8886 1.6621l-1.127-.623-.076.1816 1.1894.6953c-.0196.162-.054.325-.1075.4903-.0203-.03-.0401-.0678-.0605-.0723-.5621.133-1.4531.4922-1.4531.4922l.0078 1.834c-.154.1657-.307.3367-.461.4902l-.0722-2.5156.207-.586c-.0424-.0598-.3145-.4482-.377-.7011-.029-.118.0326-.2452.004-.3633-.035-.1441-.1866-.246-.209-.3926-.0179-.1167-.0142-.3075.0664-.3476.0444-.0221.127.0266.127.0761-.0003.0877-.0798.0959-.0821.1543-.0077.1928.1895.3427.2305.5313.0247.1134-.022.235.0059.3476.0484.197.2223.4784.2793.5684l.5195-1.4648-.6953-.748-.3516.375zm-5.953.0528s-.26.496-.1817.7363c.1242.3811 1.002.8399 1.002.8399s-.5907.2468-.4376 1.1484c.1213.714 1.125.6328 1.125.6328s.0484.538-.0039.9317c-.0541.4077-.3828.8457-.3828.8457s.408-.4138.4746-.8282c.0267-.1662.0176-.5.0176-.5s.0931.1598.125.2461c.069.1873.1406.582.1406.582s-.0177-.3855-.0547-.5742c-.046-.2348-.207-.6874-.207-.6874l.3633-.047.3437.2852.4883.004s.0036.3004-.0508.457c-.094.2708-.4687.75-.4687.75s-.2558.3723-.457.4257c-.2651.0704-.6817.0254-.6817.0254s-.8194.6899-1.2754.6895c-.4236-.0004-1.4179-.6738-1.5078-.8223-.1048-.173.0143-.723.0098-1.084-.004-.3276.5976-.9492.5976-.9492l.42-1.961s-.2946-.2122-.25-.3476c.1572-.4775.6445-.4883.6445-.4883zm4.6132.166l.7578.254-.7773-.1602zm-.3594.5703l1.7246 1.8184-.1777.4297.0742 2.584c-1.2012 1.1816-3.0508 1.203-3.0508 1.203s-.2018-.0626-.2168-.1835c-.013-.1054.1582-.2344.1582-.2344-.1717-.5526-.2111-.7363-.2246-1.3398l-.1543-.1446s.3117-.4252.4473-.7011c.0885-.1801.0755-.3269.0723-.5977 0 0 .3814-.0989.5351-.2148.171-.129.2012-.3848.2012-.3848s.2617.0602.6016-.0156c.386-.0862.6729-.4477.6777-.8555.0096-.8118-.8828-.9531-.8828-.9531zm-1.2851.0352a.2735.2735 0 01.207.0976.2736.2736 0 00-.1016-.0214.2735.2735 0 00-.2734.2734.2734.2734 0 00.0644.1758.2734.2734 0 01-.1699-.252c0-.151.1225-.2734.2735-.2734zm-1.1485.2265a.2735.2735 0 01.207.0977.2734.2734 0 00-.1015-.0215.2735.2735 0 00-.2734.2735.2735.2735 0 00.0644.1757.2735.2735 0 01-.17-.2519c0-.151.1225-.2734.2735-.2734zm2.1348.2637s.699.024.8574.7598c.0812.377-.3013.8276-.7676.8808-.111.0127-.4082-.037-.4082-.037s-.0542-.114-.1543-.1153c-.2271-.003-.342.1382-.7207.1855-.2997.0375-.3854-.0114-.5742.0215-.2146.0375-.2676.207-.2676.207s-.324.0629-.5234.0665c-.7714.0139-.8832-.2946-.9414-.7403-.0827-.6336.4863-.7968.4863-.7968s.0247.1076.3496.2578l-.2304.0683.0605.2637-.2148.0664.0273.2871.254-.0273.0448.2598.2657-.0118-.0508-.3027.2265-.0508.0254-.4414c.2182.0387.474.0627.8262.0332.3446-.0288.6023-.1471.8203-.2812a.6712.6712 0 00-.0566.2695c0 .3797.3165.6875.707.6875.3905 0 .707-.3078.707-.6875s-.3165-.6875-.707-.6875a.729.729 0 00-.1621.0195 2.4368 2.4368 0 00.121-.1543zm3 .1875l1.0996.6153c-.0003.0282-.0079.0575-.0098.0859l-1.129-.6445zm-2.8067.0371a.1934.1934 0 01.1368.0606l.0098.0098a.1977.1977 0 01-.0078.2793l-.4766.4472a.1978.1978 0 01-.2793-.0098l-.0078-.0098a.1954.1954 0 01.0078-.2773l.0938-.0898.0332.0742a.1504.1504 0 00-.1153.1465.1504.1504 0 10.3008 0 .1504.1504 0 00-.125-.1465l.0098-.17.2793-.2617a.1947.1947 0 01.1406-.0527zm-.0059.0586a.1504.1504 0 10.0157.3005.1504.1504 0 00-.0156-.3005zm.2442.3399a.1934.1934 0 01.1367.0605l.0098.0098a.1977.1977 0 01-.0078.2793l-.4766.4473a.1978.1978 0 01-.2792-.0098l-.0078-.0098a.1954.1954 0 01.0078-.2774l.4765-.4472a.1946.1946 0 01.1406-.0528zm-.0078.0586a.1504.1504 0 00-.1406.1503.1504.1504 0 10.1426-.1503zm-3.0078.0468l.1367.2325-.1094.0234zm1.537.3496a.081.081 0 00-.0487.041l-.0625.1172a.087.087 0 00.0351.1172.0877.0877 0 00.1172-.037l.0605-.1173a.0847.0847 0 00-.0351-.1152.0882.0882 0 00-.0664-.0059zm1.0138.0254a.1504.1504 0 00-.1407.1504.1504.1504 0 10.1426-.1504zm-1.4825.0567a.0878.0878 0 00-.0507.043l-.0606.1171a.0847.0847 0 00.0352.1153.0847.0847 0 00.1152-.0352l.0625-.1191a.0854.0854 0 00-.0371-.1153.0833.0833 0 00-.0645-.0059zm5.3965.3574c.0244.0083.0404.0406.0547.0703a4.003 4.003 0 01-.2851.6074l-.7656.2793s-.0147-.1957-.0274-.293c-.0193-.1484-.2812-.1718-.2812-.1718s.8959-.3763 1.3047-.4922zm-1.3046.586c.0765.0082.1926.03.1972.123.0068.1382.0274.414.0274.414l.7402-.2695c-.1661.2656-.367.5236-.5762.7793l-.0644-.3652v.4492c-.11.1318-.2167.258-.332.3848zm-2.0059.0312a5.0348 5.0348 0 00-.9727.1074c-.1281.1837-.0722.5645-.0722.5645l2.1328-.1055s-.0144-.3334-.1055-.4863c-.3324-.0566-.6584-.0841-.9824-.0801zm-.0762.0898c.2632-.0072.5515.0084.9922.0508.0681.1513.0664.3399.0664.3399l-1.9336.0859s-.0136-.204.0352-.3867c.3385-.0525.5766-.0826.8398-.0899zm1.0664.5899s-.1094.8385-.0234 1.3203c-.4616.1125-1.2052.137-1.8281.1094-.0561-.5109-.086-1.2188-.086-1.2188s-.0804.5493-.0078 1.3594c.7137-.0043 1.4662-.0057 2.0313-.1406-.0677-.7415-.086-1.4297-.086-1.4297zm-1.2226.246s-.0288.341-.0274.5118c.0015.188.0391.5625.0391.5625s.0456-.3693.043-.5547c-.0024-.1741-.0547-.5195-.0547-.5195zm.4844.0977s-.0435.2858-.043.4297c.0004.148.0469.4414.0469.4414s.028-.2914.0273-.4375c-.0007-.1449-.0313-.4336-.0313-.4336zm6.2285.6172c.2507.1392.4592.3933.457.6113-.0026.2536-.2633-.1504-.5566-.4043.2329.2491.3969.632.2148.6368-.238.006-.2544-.311-.6016-.5137-.1838-.1074-.496-.1524-.496-.1524s.3709-.173.9824-.1777zm-1.8809.789c.1616-.0248.3249-.0003.4531.1876.1383.2025.1758.746.1758.746s-.4472.4366-.7344.547c-.0095-.1288-.0072-.2448-.0234-.4024-.0127-.1227-.1718-.2794-.3613-.3086v-.1719c.1744-.1917.3407-.3912.4902-.5976zm-.5625.6739v1.5137c-.1366.0573-.2457.1145-.414.1719-.2547.0867-.5442-.0048-.8047.0625-.2855.0737-.53.26-.8047.3671-.4085.1593-.9492.1758-.9492.1758s1.7078-.9358 2.9726-2.291zm.0723.1602c.1265.0254.282.1532.287.2558.013.2601.0226.3445.0313.504.157-.0166.4258-.2618.4258-.2618s.0426.2565-.0547.4063c-.081.1249-.3484.2709-.6894.4199zm.8496.5488s1.5996.0755 1.6016.711c.0012.4002-.7043.6395-1.125.6406-.5708.0014-1.5391-.3438-1.5391-.3438s.9128-.3906 1.0312-.5742c.0977-.1513.0313-.4336.0313-.4336z"/></svg>