<svg role="img" viewBox="0 0 24 24" xmlns="http://www.w3.org/2000/svg"><title>Republic of Gamers</title><path d="M14.4323 6.73313C14.3973 6.74109 14.3853 6.76099 14.3502 6.79183C14.3192 6.81472 14.2912 6.83462 14.2641 6.8575L14.1 7.00178C13.8097 7.24258 13.4153 7.6187 13.1341 7.88337C12.6926 8.29631 12.2933 8.69233 11.8709 9.10029C11.0741 9.87044 10.1662 10.7948 9.36847 11.5381C8.70784 12.152 8.14129 12.7033 7.45264 13.3172C7.18738 13.551 7.02223 13.765 6.66288 13.7759C6.07232 13.7958 5.29157 13.2943 4.88819 13.0694C4.53986 12.8665 3.61297 12.3262 3.16755 12.3112L3.49186 12.758C3.72708 13.1162 4.12246 13.8893 4.30964 14.2655C4.96226 15.556 5.8381 16.9122 6.95616 17.8147C7.24144 18.0436 7.49968 18.2386 7.86303 18.4555C8.02018 18.553 8.18333 18.6306 8.3605 18.7321C8.42256 18.767 8.84897 18.965 8.90402 18.965C8.78591 18.8485 8.66479 18.7043 8.5717 18.5968C8.1453 18.0993 7.19839 17.1301 6.91312 16.6366C6.67489 16.2247 6.61984 15.9719 6.8861 15.556C7.19139 15.0784 7.89506 14.4913 8.34048 14.1142C9.41951 13.1968 10.3894 12.365 11.5195 11.4943C12.055 11.0824 12.6106 10.6625 13.1851 10.2545C13.7476 9.85452 14.3152 9.46944 14.9058 9.08039L15.7926 8.52118C15.8787 8.47442 16.6885 7.99283 16.7005 7.97691L17.4942 7.54208C17.7595 7.39382 18.0177 7.26944 18.299 7.1182C19.1278 6.67541 20.7703 5.95203 21.7092 5.62168C22.0175 5.5172 22.3148 5.41273 22.6271 5.30725L23.562 5.01571C23.4879 4.97591 22.451 4.96497 22.2608 4.96497C21.494 4.96497 21.0246 4.98785 20.2889 5.04258C19.7304 5.08934 18.6864 5.20178 18.1779 5.32616C18.0838 5.34606 17.9747 5.35701 17.8846 5.38089C17.7084 5.42765 17.5052 5.4585 17.3261 5.50526C16.9507 5.59482 16.6104 5.69929 16.262 5.80377C15.8987 5.91322 15.5744 6.0376 15.2491 6.16994C15.0579 6.24755 14.4833 6.63263 14.4323 6.73313V6.73313ZM21.9275 8.57591L22.6081 8.22964C22.8463 8.1172 23.0886 7.98885 23.3118 7.88039C23.7652 7.66148 24.0235 6.95104 24.0154 6.49631C23.9374 6.49631 23.6131 6.65153 23.527 6.68238C23.4639 6.70626 23.4099 6.72516 23.3508 6.74905C22.9484 6.91621 22.4129 7.1172 22.0336 7.29631C21.9194 7.35104 21.8143 7.39382 21.7012 7.44059C21.6152 7.48039 21.419 7.55303 21.3839 7.59581C21.2638 7.59183 18.7995 8.80477 18.4912 8.96397C18.0528 9.18984 17.5052 9.4575 17.0828 9.69034C17.0328 9.7182 15.7536 10.3908 15.7035 10.4565C15.6174 10.4724 14.7376 10.9898 14.5965 11.0675C12.8608 12.0426 10.937 13.2704 9.27137 14.3938C8.75508 14.7373 8.24776 15.094 7.74992 15.4635L7.37957 15.7391C7.33553 15.7699 7.28448 15.7938 7.26145 15.8406C7.42561 15.9839 8.52466 16.4346 8.78591 16.5272C10.2603 17.0565 11.6366 17.4227 13.1891 17.6864L14.17 17.8376L14.9448 17.9043L14.3142 17.8495C14.4363 17.8615 14.5544 17.8804 14.6705 17.8923C14.8427 17.9122 15.0149 17.9232 15.195 17.9421C15.5313 17.9739 15.9217 17.9968 16.266 18.0048C16.6965 18.0127 16.9307 18.0326 17.283 17.8854C17.5563 17.7719 17.7795 17.6277 17.9937 17.4645C18.8045 16.8476 19.5232 15.8864 20.0977 15.0167C20.7034 14.0756 21.2393 13.0919 21.7012 12.0734C21.9395 11.561 22.1617 11.0247 22.3739 10.4764C22.479 10.2008 22.5691 9.93213 22.6672 9.64059C22.7212 9.4774 22.9134 8.88238 22.9284 8.75104C22.7062 8.78089 18.8545 10.8456 18.4872 11.0436C17.9907 11.3082 17.5132 11.5839 17.0328 11.8446C16.5623 12.0973 16.0669 12.3968 15.6014 12.6565C14.6505 13.1779 13.6976 13.761 12.7507 14.3082C12.5865 14.4018 11.3824 15.1013 11.3393 15.152C11.4214 15.1371 15.2421 13.5043 15.3352 13.4694C15.5153 13.3948 19.2689 11.7938 19.328 11.7898C19.308 11.8754 19.0737 12.3073 19.0147 12.4356C18.9166 12.6446 18.7995 12.8864 18.6944 13.0963C18.0878 14.2854 17.4312 15.7162 16.1099 16.2406L16.0318 16.2903C15.9618 16.2903 15.7696 16.3689 15.6835 16.3918C15.5544 16.4267 15.4292 16.4505 15.3001 16.4774C14.6895 16.6018 13.7717 16.5361 13.1381 16.4386C12.4144 16.3262 11.9069 16.2018 11.2062 16.0306C11.0381 15.9908 9.8259 15.6535 9.75584 15.6068C9.79888 15.5411 10.4905 15.0973 10.5496 15.0545C11.8869 14.1291 14.112 12.7699 15.5584 11.953C15.7145 11.8675 15.8557 11.7859 15.9958 11.7082C16.1099 11.6426 16.3251 11.5291 16.4182 11.4635L17.0948 11.0943C17.3251 10.9699 17.5333 10.8575 17.7755 10.7212C18.2329 10.4645 18.6944 10.2466 19.1398 9.99482C19.2069 9.959 21.7673 8.62168 21.9275 8.57591V8.57591ZM4.51684 15.561C4.48881 15.5013 4.02737 15.0157 3.93428 14.9112C3.35172 14.2655 2.78418 13.6635 2.19762 12.9829C1.79123 12.5092 1.42689 12.0694 1.07955 11.6545C0.935417 11.4794 0.137655 10.4844 0.0165397 10.2784C0.000524393 10.3212 0.199715 11.1341 0.230744 11.2416C0.277789 11.4058 0.312822 11.557 0.355864 11.7242C0.810297 13.364 1.26373 13.9829 2.82322 14.7749C3.0154 14.8724 4.41073 15.5451 4.51684 15.561V15.561Z" /></svg>
