<svg role="img" viewBox="0 0 24 24" xmlns="http://www.w3.org/2000/svg"><title>Republic of Gamers</title><<path d="M7.905 15.867c.285.18.57.36.855.505 3.062 1.37 7.584 2.2 8.439 1.912 2.386-.794 5.056-5.88 5.875-8.224 0 0-2.492 1.01-5.02 2.2-2.101 1.01-4.416 2.165-4.416 2.165l5.875-1.804s-1.566 3.751-3.632 4.184c-2.065.433-5.697-1.046-5.697-1.046.285-.252 4.13-3.102 13.104-6.817.392-.288.64-.757.712-1.226-2.065.217-4.06.83-5.947 1.731-3.774 1.804-10.148 6.42-10.148 6.42Zm-6.552-1.84c.641.83 3.276 1.516 3.632 1.588C3.347 14.46 0 11.287 0 11.287c.356.973.819 1.875 1.353 2.74Zm7.763-.396c1.745-1.298 7.94-6.6 13.923-8.043 0 0-3.134-.505-7.585.902-1.602.505-3.917 2.777-8.226 6.997-.57.324-2.67-.902-3.88-1.479 0 0 1.993 3.21 2.705 4.148C7.122 17.634 9.08 18.5 9.08 18.5c-.178-.18-1.531-1.623-1.923-2.453-.249-.396.036-.973 1.959-2.416Z"/></svg>
