<svg role="img" viewBox="0 0 24 24" xmlns="http://www.w3.org/2000/svg"><title>Republic of Gamers</title><path d="M14.432 6.733c-.035.008-.047.028-.082.059-.03.023-.059.043-.086.066l-.164.144c-.29.24-.685.617-.966.881-.441.413-.84.81-1.263 1.217-.797.77-1.705 1.695-2.503 2.438-.66.614-1.227 1.165-1.915 1.78-.266.233-.43.447-.79.458-.59.02-1.371-.482-1.775-.707-.348-.203-1.275-.743-1.72-.758l.324.447c.235.358.63 1.131.818 1.508.652 1.29 1.528 2.646 2.646 3.549.285.229.544.424.907.64.157.098.32.176.497.277.063.035.489.233.544.233-.118-.116-.24-.26-.332-.368-.427-.498-1.374-1.467-1.659-1.96-.238-.412-.293-.665-.027-1.081.305-.478 1.01-1.065 1.454-1.442 1.08-.917 2.05-1.749 3.18-2.62a54.403 54.403 0 0 1 1.665-1.24c.563-.4 1.13-.785 1.72-1.174l.888-.559c.086-.047.896-.528.908-.544l.793-.435c.265-.148.524-.273.805-.424.829-.443 2.471-1.166 3.41-1.496.308-.105.606-.21.918-.315l.935-.291c-.074-.04-1.111-.051-1.301-.051-.767 0-1.236.023-1.972.078-.559.046-1.603.159-2.111.283-.094.02-.203.031-.293.055-.177.047-.38.077-.559.124-.375.09-.716.194-1.064.299-.363.11-.688.234-1.013.366-.191.078-.766.463-.817.563Zm7.495 1.843.681-.346c.238-.113.48-.241.704-.35.453-.219.711-.929.703-1.384-.078 0-.402.156-.488.186-.063.024-.117.043-.176.067-.403.167-.938.368-1.317.547-.115.055-.22.098-.333.145-.086.04-.282.112-.317.155-.12-.004-2.585 1.209-2.893 1.368-.438.226-.986.493-1.408.726-.05.028-1.33.7-1.38.767-.086.015-.965.533-1.106.61-1.736.976-3.66 2.203-5.326 3.327-.516.343-1.023.7-1.521 1.07l-.37.275c-.044.03-.096.055-.119.102.165.143 1.264.594 1.525.686 1.474.53 2.85.896 4.403 1.16l.981.15.775.067-.63-.055c.121.012.24.031.356.043.172.02.344.031.524.05.336.032.727.055 1.071.063.43.008.665.028 1.017-.12.273-.113.496-.257.71-.42.812-.617 1.53-1.579 2.105-2.448a22.962 22.962 0 0 0 1.603-2.944c.238-.512.46-1.048.673-1.597.105-.275.195-.544.293-.835.054-.164.246-.759.261-.89-.222.03-4.073 2.095-4.44 2.293-.497.264-.975.54-1.455.8-.47.253-.966.553-1.432.813-.95.52-1.903 1.104-2.85 1.651-.165.094-1.369.793-1.412.844.082-.015 3.903-1.648 3.996-1.683.18-.074 3.934-1.675 3.993-1.68-.02.086-.254.518-.313.647-.098.209-.216.45-.32.66-.607 1.19-1.264 2.62-2.585 3.145l-.078.05c-.07 0-.262.078-.348.1-.13.036-.255.06-.384.086-.61.125-1.528.06-2.162-.038-.724-.113-1.231-.237-1.932-.408-.168-.04-1.38-.377-1.45-.424.043-.066.735-.51.794-.552 1.337-.926 3.562-2.285 5.008-3.102.156-.085.298-.167.438-.245.114-.065.33-.179.422-.245l.677-.369c.23-.124.438-.236.68-.373.458-.257.92-.474 1.365-.726.067-.036 2.627-1.373 2.787-1.42ZM4.517 15.56c-.028-.06-.49-.545-.583-.65-.582-.646-1.15-1.247-1.736-1.928-.407-.474-.771-.914-1.118-1.329-.145-.175-.942-1.17-1.063-1.376-.016.043.183.856.214.964.047.164.082.315.125.482.454 1.64.908 2.259 2.467 3.05.192.098 1.588.771 1.694.787Z"/></svg>