<svg role="img" viewBox="0 0 24 24" xmlns="http://www.w3.org/2000/svg"><title>Reqable</title><path d="M23.977 1.15c-.062-.127-.226-.141-.344-.141-.407 0-1.205.218-2.413.548l-.394.108c-1.833.5-3.59 1.914-4.339 2.518l-.03.024c.685-.934 2.494-3.814 2.344-4.148A.1.1 0 0 0 18.71 0c-.165 0-.349.19-.682.534-.475.49-1.27 1.311-2.703 2.298-.92.633-1.912 1.538-2.787 2.336-1.124 1.025-2.186 1.994-2.687 1.994a.24.24 0 0 1-.214-.108c-.65-.953-1.32-1.465-1.99-1.524-.142-.012-.288-.025-.438-.025-.561 0-1.196.162-2.033 1.336-.186.26-1.99.476-3.307.633-.7.084-1.304.156-1.625.225-.175.037-.252.057-.245.133.008.073.075.079.28.079.249 0 .696-.02 1.215-.043a63 63 0 0 1 2.61-.078c.897 0 1.447.051 1.634.153.725.392 1.79 1.853 2.714 3.72.897 1.812 3.19 3.732 4.643 4.238 1.11.387 1.286 1.416 1.551 2.975.068.397.145.847.244 1.32.333 1.583.52 1.797.66 1.797.12 0 .197-.16.25-.521q.012-.076.018-.144c.5 1.82.761 2.054.933 2.054q.057-.001.093-.047c.102-.138 0-.588-.174-1.312-.091-.378-.213-.884-.196-1.031.138.14.511.863.79 1.401.632 1.225.852 1.607.996 1.607a.1.1 0 0 0 .047-.013c.152-.096.007-.528-.413-1.65-.22-.59-.45-1.2-.474-1.463.128.1.443.524.68.843.49.66.718.95.845.95a.1.1 0 0 0 .07-.034c.029-.035.035-.089.021-.176-.057-.361-.52-1.465-1.01-2.634-.421-1.002-.856-2.038-.959-2.446-.226-.898-1.545-4.3-1.943-5.133-.265-.554.71-1.19 1.423-1.654.313-.204.583-.38.723-.526.225-.235.474-.351.739-.474.263-.122.535-.249.777-.501.324-.34.379-.624.431-.9a2 2 0 0 1 .107-.4c.073-.179.32-.282.58-.39.306-.128.653-.272.816-.58.115-.216.184-.47.251-.717.1-.365.193-.71.412-.776.42-.125 1.083-.562 1.209-.988l.02-.072c.123-.42.408-1.404 1.118-2.431.238-.345.312-.55.246-.685"/></svg>