<svg role="img" viewBox="0 0 24 24" xmlns="http://www.w3.org/2000/svg"><title>Resend</title><path stroke="null" d="M2.12 24.023V-.061h10.837c1.537 0 2.924.333 4.163.998 1.261.665 2.248 1.582 2.959 2.752.71 1.147 1.066 2.454 1.066 3.922 0 1.514-.355 2.879-1.066 4.094a7.681 7.681 0 0 1-2.925 2.822c-1.238.688-2.638 1.032-4.197 1.032H7.693v8.464H2.119zm13.348 0L9.344 13.15l5.987-.86 6.812 11.732h-6.675zM7.693 11.086h4.748c.596 0 1.112-.126 1.548-.378a2.6 2.6 0 0 0 1.032-1.136c.252-.481.379-1.032.379-1.651 0-.62-.138-1.158-.413-1.617a2.677 2.677 0 0 0-1.204-1.101c-.505-.252-1.124-.378-1.858-.378H7.693v6.261z"/></svg>
