<svg viewBox="0 0 16 16" xmlns="http://www.w3.org/2000/svg" fill-rule="evenodd" clip-rule="evenodd" stroke-linejoin="round" stroke-miterlimit="1.414"><path d="M28.98 39.61c-.524.238-1.383.38-2.194.38-2.768 0-4.964-1.096-6.396-2.817-1.575-1.81-4.345-5.725-7.256-10.93-1.528 0-2.53 0-3.675-.095v7.973c0 2.96.66 3.58 1.95 3.77l2.48.34v1.39c-1.2-.04-3.96-.14-6.11-.14-2.25 0-4.49.1-5.78.14v-1.39l1.81-.33c1.24-.23 1.95-.81 1.95-3.77V15.32c0-2.96-.71-3.53-1.958-3.77L2 11.215V9.82c1.194.048 3.103.048 5.015.048 2.1 0 4.345-.14 7.16-.14 5.444 0 9.596 2.48 9.596 7.827 0 3.627-2.86 7.257-6.73 8.164 2.34 4.15 5.15 7.83 7.25 10.12 1.24 1.33 2.96 2.53 4.68 2.53v1.24zM38.966 9.2c0 .723-.002 1.393-.074 2.012-.068.618-.166 1.158-.292 1.55-.392 1.224-1.01 2.096-1.96 2.747-.947.65-2.172 1-3.504 1-1.365 0-2.52-.32-3.46-.94-.94-.63-1.613-1.56-2.023-2.8-.077-.24-.14-.48-.185-.73-.048-.25-.09-.55-.13-.88-.04-.34-.068-.74-.083-1.21s-.02-1.04-.02-1.7c0-.66.005-1.22.02-1.7.015-.47.044-.88.082-1.22.04-.336.083-.63.13-.88.046-.25.11-.495.187-.73.41-1.238 1.084-2.17 2.025-2.798.94-.626 2.09-.94 3.46-.94.7 0 1.34.082 1.9.245.56.165 1.06.39 1.5.682.44.29.81.626 1.13 1.012.31.384.57.794.77 1.23.072.145.05.256-.078.334l-1.74.72c-.14.08-.25.036-.33-.118-.39-.72-.726-1.2-1.27-1.54-.55-.35-1.06-.51-1.91-.51-.91 0-1.323.18-1.896.59s-.967.93-1.217 1.7c-.048.14-.096.312-.143.52-.047.2-.08.453-.105.75-.024.296-.044.66-.06 1.092-.014.432-.022.954-.022 1.564 0 .61.01 1.133.02 1.564.02.43.04.795.07 1.093.03.3.06.55.11.756.05.2.1.372.14.516.25.77.6 1.187 1.12 1.525.51.34 1.106.59 2.018.59.815 0 1.56-.23 2.045-.59.483-.36.88-.82 1.06-1.46.078-.27.18-.61.245-1.01.06-.41.06-.85.06-1.44 0-.1-.05-.15-.14-.15h-2.78c-.158 0-.236-.08-.236-.24V7.84c0-.158.08-.234.234-.234h5.103c.16 0 .233.076.233.234V9.2zM19.72 17.796c0-3.82-2.386-5.92-6.396-5.92-1.288 0-2.768 0-3.865.095v11.98c1.09.1 1.81.15 3.43.15 4.25 0 6.82-2.53 6.82-6.3z"/>
</svg>
