<svg role="img" viewBox="0 0 24 24" xmlns="http://www.w3.org/2000/svg"><title>REST Assured</title><path d="m7.3716 15.8555.5613-.5655 3.3123-3.3123.0111.0106.5318-.5535L15.332 7.891l.5655-.5613-.0021-.002 3.9266-3.9267C17.5547 1.1337 14.583 0 11.6114 0S5.6682 1.1337 3.401 3.401c-4.5345 4.5345-4.5345 11.8864 0 16.421l3.9686-3.9686.002.002zm.0304-2.1559c-.7237-.8313-1.3188-1.6835-1.7475-2.6182L7.9368 8.799l2.2266 2.1392-2.7614 2.7614zM4.98 5.9582l1.875 1.8015-1.7367 1.7368c-.2425-1.0422-.2996-2.2023-.1383-3.5383zm2.9361.7404L6.0734 4.9283c1.3058-.151 2.4424-.091 3.4658.1472l-1.623 1.6231zm3.2077-1.0866c.9347.429 1.7867 1.0242 2.6179 1.748l-2.5171 2.517-2.2267-2.139 2.126-2.126zm3.681.6848c-.8117-.7153-1.652-1.3263-2.56-1.8057l2.4974-2.4975a10.0037 10.0037 0 0 1 2.8808 1.485L14.805 6.2968zm-1.7922-4.6946-2.2544 2.2543c-1.466-.4901-3.1327-.6509-5.1308-.3832C7.3532 2.1989 9.4263 1.5 11.6114 1.5c.4734 0 .9403.0386 1.4012.1022zM3.5172 5.5674c-.2715 2.0063-.1109 3.6786.381 5.1492l-2.2887 2.2886c-.356-2.5772.2801-5.2604 1.9077-7.4378zm-.0378 12.0548c-.6603-.8921-1.146-1.8714-1.475-2.8907l2.5284-2.5285c.4796.9079 1.0907 1.7483 1.8059 2.56l-2.8593 2.8592zM20.5991 4.178l-3.9264 3.9264-.0018-.0019-.5035.5073-3.6125 3.6125-.5403.5248.0077.0078-3.3705 3.3705-.5073.5035.002.0018-3.9685 3.9684C6.4453 22.8664 9.417 24 12.3885 24s5.9433-1.1336 8.2106-3.4009c4.5345-4.5345 4.5345-11.8865 0-16.421zm-.0785 2.1999c.6605.8922 1.1462 1.8718 1.4753 2.8913l-2.4864 2.4864c-.4796-.9082-1.0907-1.7488-1.806-2.5607l2.8171-2.817zm-1.4401 11.4818-1.7524-1.8016 1.5958-1.5958c.234 1.0058.2973 2.12.1566 3.3974zm-.9714 1.1528c-1.3636.171-2.5449.116-3.6047-.1307l1.7629-1.7628 1.8418 1.8935zm-1.8268-4.0297-2.1531-2.2136 2.511-2.5108c.7235.8315 1.3186 1.684 1.7475 2.619l-2.1054 2.1054zm-1.061 1.061-2.3016 2.3016c-.935-.4288-1.7876-1.0239-2.6193-1.7474l2.7678-2.7678 2.1532 2.2136zm-5.9802 1.6135c.8112.7146 1.6497 1.3304 2.5572 1.8096l-2.5398 2.5397a10.0045 10.0045 0 0 1-2.8816-1.4851l2.8642-2.8642zm1.7472 4.7406 2.3024-2.3024c.9906.3309 2.0637.5256 3.2777.5256.5881 0 1.2207-.059 1.8765-.148-1.74 1.3087-3.8406 2.0269-6.0564 2.0269-.473 0-.9396-.0386-1.4002-.102zm9.5384-4.0233c.2683-1.9989.1075-3.666-.3827-5.1324l2.2466-2.2466c.3526 2.554-.2685 5.2123-1.864 7.379z"/></svg>