<svg role="img" viewBox="0 0 24 24" xmlns="http://www.w3.org/2000/svg"><title>Retro Achievements</title><path d="M0 5.389V7.22h4.617l.74-.014a1.6 1.6 0 0 1 .262.008c.061.008.146.024.201.035s.082.015.135.031a2.4 2.4 0 0 1 .44.182 3 3 0 0 1 .312.191 2 2 0 0 1 .25.213c.047.046.1.1.143.147s.076.086.113.138.08.118.111.176q.048.087.08.154c.022.046.043.088.069.153a3 3 0 0 1 .181.672 3 3 0 0 1 .03.453 4 4 0 0 1-.026.357 3 3 0 0 1-.037.225c-.015.066-.03.114-.045.168l-.049.18a2 2 0 0 1-.168.392 2 2 0 0 1-.117.188 6 6 0 0 1-.185.24 2 2 0 0 1-.184.21 3.6 3.6 0 0 1-.43.32 2 2 0 0 1-.234.12 1 1 0 0 1-.182.07 1 1 0 0 1-.199.022l-.174.01.41.726 3.24 5.623 1.823-.007-3.06-5.5q.045-.031.099-.073a2 2 0 0 0 .125-.113c.049-.048.106-.107.158-.162a2 2 0 0 0 .143-.164c.044-.058.086-.123.127-.18.04-.058.08-.109.117-.166q.056-.084.111-.19a8 8 0 0 0 .244-.497 2.5 2.5 0 0 0 .16-.508c.02-.082.033-.157.05-.235q.023-.118.044-.255a4 4 0 0 0 .03-.3c.006-.105.007-.216.01-.316.002-.1.004-.189.003-.297a7 7 0 0 0-.013-.36 4 4 0 0 0-.041-.376 3 3 0 0 0-.075-.34 6 6 0 0 0-.095-.31 4 4 0 0 0-.112-.297 4 4 0 0 0-.164-.348 4 4 0 0 0-.181-.303 4 4 0 0 0-.19-.273A3 3 0 0 0 8.4 6.8a7 7 0 0 0-.25-.246 5 5 0 0 0-.304-.266 4 4 0 0 0-.272-.195 4 4 0 0 0-.271-.168 4 4 0 0 0-.729-.32 6 6 0 0 0-.424-.124 3 3 0 0 0-.345-.062 4 4 0 0 0-.272-.022H.217L.035 5.39zm17.54.01a3 3 0 0 0-.25.013 1 1 0 0 0-.19.035 2 2 0 0 0-.211.073q-.109.043-.221.095a1.5 1.5 0 0 0-.219.114 1.6 1.6 0 0 0-.207.167 3 3 0 0 0-.377.428q-.082.12-.14.233a3 3 0 0 0-.106.248 14 14 0 0 0-.121.334c-.036.107-.068.194-.746 2.101l-2.662 7.494c-.662 1.863-.661 1.864-.656 1.864h.002l.03.002h1.766l3.725-10.633.09-.252q.039-.12.082-.211a.4.4 0 0 1 .11-.14.6.6 0 0 1 .16-.098.8.8 0 0 1 .19-.053 1 1 0 0 1 .206-.006.7.7 0 0 1 .182.047 1 1 0 0 1 .193.092.5.5 0 0 1 .142.138 1 1 0 0 1 .094.198c.028.076.054.163.614 1.72a7065.411 7066 0 0 0 2.742 7.606l-5.578.002-.014 1.584 7.83-.01-4.1-11.613c-.042-.1-.08-.2-.12-.285a2.6 2.6 0 0 0-.264-.45 3 3 0 0 0-.2-.232 2 2 0 0 0-.171-.156 2 2 0 0 0-.207-.16 1 1 0 0 0-.215-.11 3 3 0 0 0-.51-.146 2 2 0 0 0-.283-.034 6 6 0 0 0-.39 0m.17 2.253a.3.3 0 0 0-.073.012.4.4 0 0 0-.102.043.4.4 0 0 0-.144.166 2 2 0 0 0-.055.147l-.066.205-3.407 9.88-.134.366-.047.127h1.681l.795-2.47v.41h4.979l-2.518-7.13c-.513-1.452-.535-1.518-.558-1.562a.24.24 0 0 0-.08-.092 1 1 0 0 0-.112-.065.4.4 0 0 0-.119-.037zM.013 7.678C0 7.676 0 7.674 0 9.494v9.104h1.813V9.506c1.12 0 2.241 0 2.816.002s.605.007.629.015a.1.1 0 0 1 .05.034.2.2 0 0 1 .03.056.4.4 0 0 1 .023.147.4.4 0 0 1-.01.084.2.2 0 0 1-.029.062.2.2 0 0 1-.06.055.3.3 0 0 1-.108.027 2 2 0 0 1-.183.006l-.264.002H2.26v8.6h1.826v-4.573l2.633 4.575h1.927l-3.814-6.711h.365a1 1 0 0 0 .164-.01 3 3 0 0 0 .29-.05 2 2 0 0 0 .265-.089q.125-.05.234-.103.105-.052.196-.115a1.8 1.8 0 0 0 .336-.31c.05-.06.1-.129.144-.189.043-.058.08-.107.113-.166a2 2 0 0 0 .098-.2 3 3 0 0 0 .078-.208 1.5 1.5 0 0 0 .078-.418 4 4 0 0 0-.002-.521 6 6 0 0 0-.02-.24 3 3 0 0 0-.025-.184 1 1 0 0 0-.044-.18 2 2 0 0 0-.086-.21 2 2 0 0 0-.106-.186 3 3 0 0 0-.137-.19 2 2 0 0 0-.136-.148 1 1 0 0 0-.143-.11 4 4 0 0 0-.205-.124 2 2 0 0 0-.207-.106 2 2 0 0 0-.24-.078 2 2 0 0 0-.207-.047l-.127-.018H.076zM17.72 11.59l1.148 3.336H16.7z"/></svg>