<?xml version="1.0" encoding="UTF-8" standalone="no"?>
<svg
   xmlns:dc="http://purl.org/dc/elements/1.1/"
   xmlns:cc="http://creativecommons.org/ns#"
   xmlns:rdf="http://www.w3.org/1999/02/22-rdf-syntax-ns#"
   xmlns:svg="http://www.w3.org/2000/svg"
   xmlns="http://www.w3.org/2000/svg"
   xmlns:sodipodi="http://sodipodi.sourceforge.net/DTD/sodipodi-0.dtd"
   xmlns:inkscape="http://www.inkscape.org/namespaces/inkscape"
   role="img"
   viewBox="0 0 24 24"
   version="1.1"
   id="svg6"
   sodipodi:docname="retropie.svg"
   inkscape:version="0.92.4 5da689c313, 2019-01-14">
  <metadata
     id="metadata12">
    <rdf:RDF>
      <cc:Work
         rdf:about="">
        <dc:format>image/svg+xml</dc:format>
        <dc:type
           rdf:resource="http://purl.org/dc/dcmitype/StillImage" />
        <dc:title>Google Drive icon</dc:title>
      </cc:Work>
    </rdf:RDF>
  </metadata>
  <defs
     id="defs10">
    <linearGradient
       id="b"
       gradientUnits="userSpaceOnUse"
       x1="23.561724"
       x2="179.79216"
       y1="239.83093"
       y2="91.728653">
      <stop
         offset="0"
         stop-color="#9764f8"
         id="stop7" />
      <stop
         offset="1"
         stop-color="#b576e9"
         id="stop9" />
    </linearGradient>
    <linearGradient
       id="c"
       gradientUnits="userSpaceOnUse"
       x1="169.66934"
       x2="161.79051"
       y1="384.09351"
       y2="494.7962">
      <stop
         offset="0"
         stop-color="#965ff9"
         id="stop12" />
      <stop
         offset="1"
         stop-color="#c076e9"
         id="stop14" />
    </linearGradient>
    <linearGradient
       id="a"
       gradientUnits="userSpaceOnUse"
       x1="305.65414"
       x2="55.276554"
       y1="176.02727"
       y2="332.48212">
      <stop
         offset="0"
         stop-color="#9563f9"
         id="stop2" />
      <stop
         offset="1"
         stop-color="#b073ec"
         id="stop4" />
    </linearGradient>
  </defs>
  <sodipodi:namedview
     pagecolor="#ffffff"
     bordercolor="#666666"
     borderopacity="1"
     objecttolerance="10"
     gridtolerance="10"
     guidetolerance="10"
     inkscape:pageopacity="0"
     inkscape:pageshadow="2"
     inkscape:window-width="1366"
     inkscape:window-height="714"
     id="namedview8"
     showgrid="false"
     inkscape:zoom="15.183"
     inkscape:cx="10.220339"
     inkscape:cy="10.812042"
     inkscape:window-x="0"
     inkscape:window-y="26"
     inkscape:window-maximized="1"
     inkscape:current-layer="svg6" />
  <title
     id="title2">Google Drive icon</title>
  <path
     inkscape:connector-curvature="0"
     style="fill:#000000;stroke-width:0.37594682"
     d="m 8.5333328,12.264276 h 7.3685582 c 1.749506,0 3.772246,1.51984 3.157953,3.157954 l -1.578977,4.210605 c -0.614292,1.638113 -1.408447,3.157952 -3.157953,3.157952 H 10.11231 c -1.7495067,0 -2.5436612,-1.519839 -3.1579538,-3.157952 L 5.3753796,15.42223 C 4.761087,13.784116 6.7838267,12.264276 8.5333328,12.264276 Z"
     id="path4" />
  <path
     inkscape:connector-curvature="0"
     style="fill:#000000;stroke-width:0.37594682"
     d="m 12.217612,11.136436 a 1.670874,0.83543729 0 0 0 -0.952455,0.148953 1.670874,0.83543729 0 0 0 -0.994413,-0.02098 1.670874,0.83543729 0 0 0 -0.8412644,0.266436 1.670874,0.83543729 0 0 0 -0.9713362,0.10909 1.670874,0.83543729 0 0 0 -0.675529,0.367136 1.670874,0.83543729 0 0 0 -0.8811262,0.23077 1.670874,0.83543729 0 0 0 -0.4636397,0.442661 1.670874,0.83543729 0 0 0 -0.7321729,0.335667 1.670874,0.83543729 0 0 0 -0.2171345,0.486717 1.670874,0.83543729 0 0 0 -0.5339201,0.419583 1.670874,0.83543729 0 0 0 0.043007,0.498256 1.670874,0.83543729 0 0 0 -0.2989532,0.475179 1.670874,0.83543729 0 0 0 0.2989532,0.476227 1.670874,0.83543729 0 0 0 -0.043007,0.497206 1.670874,0.83543729 0 0 0 0.5339201,0.420633 1.670874,0.83543729 0 0 0 0.2171345,0.485667 1.670874,0.83543729 0 0 0 0.7342714,0.337765 1.670874,0.83543729 0 0 0 0.4615412,0.440563 1.670874,0.83543729 0 0 0 0.8842728,0.23182 1.670874,0.83543729 0 0 0 0.6723824,0.366086 1.670874,0.83543729 0 0 0 0.9744829,0.109092 1.670874,0.83543729 0 0 0 0.8381177,0.266436 1.670874,0.83543729 0 0 0 0.99756,-0.02098 1.670874,0.83543729 0 0 0 0.949308,0.14895 1.670874,0.83543729 0 0 0 0.952455,-0.148952 1.670874,0.83543729 0 0 0 0.994412,0.02098 1.670874,0.83543729 0 0 0 0.841265,-0.266436 1.670874,0.83543729 0 0 0 0.971336,-0.10909 1.670874,0.83543729 0 0 0 0.675529,-0.367136 1.670874,0.83543729 0 0 0 0.881127,-0.23077 1.670874,0.83543729 0 0 0 0.463639,-0.442661 1.670874,0.83543729 0 0 0 0.732173,-0.335667 1.670874,0.83543729 0 0 0 0.217135,-0.486717 1.670874,0.83543729 0 0 0 0.53392,-0.419583 1.670874,0.83543729 0 0 0 -0.04301,-0.498256 1.670874,0.83543729 0 0 0 0.298953,-0.475177 1.670874,0.83543729 0 0 0 -0.298953,-0.476228 1.670874,0.83543729 0 0 0 0.04301,-0.497207 1.670874,0.83543729 0 0 0 -0.53392,-0.420631 1.670874,0.83543729 0 0 0 -0.217135,-0.485669 1.670874,0.83543729 0 0 0 -0.734271,-0.337765 1.670874,0.83543729 0 0 0 -0.461541,-0.440563 1.670874,0.83543729 0 0 0 -0.884274,-0.231819 1.670874,0.83543729 0 0 0 -0.672382,-0.366087 1.670874,0.83543729 0 0 0 -0.974483,-0.109091 1.670874,0.83543729 0 0 0 -0.838118,-0.266436 1.670874,0.83543729 0 0 0 -0.99756,0.02098 1.670874,0.83543729 0 0 0 -0.949307,-0.148953 z"
     id="path8" />
  <path
     inkscape:connector-curvature="0"
     style="fill:#000000;stroke:#000000;stroke-width:2.25568104;stroke-linecap:round;stroke-opacity:1"
     d="M 12.217612,12.640223 V 5.9483699"
     id="path22" />
  <circle
     style="fill:#000000;stroke-width:0.37594682"
     cx="12.217611"
     cy="4.7453403"
     r="3.3835213"
     id="circle26" />
</svg>
