<svg role="img" viewBox="0 0 24 24" xmlns="http://www.w3.org/2000/svg"><title>RevenueCat</title><path d="M4.304.4C2.779.4 1.09.55 0 .814v15c.308.171.843.28 1.563.28.74 0 1.255-.108 1.543-.28V10.58c.703.101 1.412.151 2.121.151h.33l2.86 5.059c.432.195 1.029.302 1.935.302.803 0 1.38-.11 1.647-.302L8.563 9.955c1.42-.8 2.326-2.27 2.326-4.496 0-3.632-2.466-5.06-6.585-5.06zm15.454 0c-1.379 0-2.624.27-3.69.794-2.455 1.203-3.961 3.738-3.961 7.363 0 4.825 2.655 7.716 7.166 7.716.9 0 1.587-.302 2.005.255.42.557-.358 1.217-.775 1.51-1.634 1.155-5.721-.102-9.49-.48C5.598 17.015.925 16.301.145 19.193c-.41 1.526.122 2.501.642 3.05C1.832 23.348 3.67 23.6 5.132 23.6a13.959 13.959 0 0 0 2.05-.156 1.311 1.311 0 0 0 1.024-.806 1.236 1.236 0 0 0-.212-1.256 1.346 1.346 0 0 0-1.235-.453c-1.502.271-3.622.869-4.435.011-.274-.291-.226-1.004 0-1.226.605-.875 4.493-.539 8.413-.029 4.329.434 8.402 1.86 10.945.635.995-.48 2.318-1.194 2.318-3.792h-.001a12.9 12.9 0 0 0-.448-3.38c-1.382.188-2.478.286-3.288.295-2.845 0-4.87-1.449-4.87-5.097 0-3.648 2.047-5.157 5.019-5.157 1.2 0 2.129.251 3.14.733.107-.923-.105-2.16-.59-2.852C22.182.61 20.96.4 19.758.4zM4.51 3.189c2.058 0 3.21.711 3.21 2.442 0 1.682-1.09 2.355-2.88 2.355a10.284 10.284 0 0 1-1.772-.15v-4.52A7.778 7.778 0 0 1 4.51 3.19z"/></svg>