<svg role="img" xmlns="http://www.w3.org/2000/svg" viewBox="0 0 24 24"><title>Revue icon</title><path d="M4.3004 7.1304c-1.6206 0-3.42.8708-4.197 2.5578-.4902 1.0647.9185 1.3967.9884 1.0645.2296-1.0894 1.4472-2.805 3.2208-2.805.935 0 1.4817.6161 1.4817 1.7038 0 1.3492-1.5586 2.0598-2.25 2.29.3078-1.4104.415-1.8358.415-2.0862 0-.5545-.3208-.6468-.648-.6468-.397 0-.6835.2901-.6835.2901.23.4181-.1588 1.9044-.3268 2.5068-.2038.7305-.4853 1.8094-.6617 2.4953-.1763.686 1.0528.5014 1.1352.299.0894-.2206.3259-1.028.5395-1.8771.3582-.1113.769-.269.769-.269.1795 1.1913 1.138 4.216 3.8737 4.216 2.3464 0 2.1964-1.4883 2.002-1.392-.2351.1172-.6468.324-1.5265.324-2.735 0-3.299-3.5054-3.299-3.5054s2.0707-.8736 2.0707-2.6447c0-1.774-1.4447-2.5211-2.9035-2.5211zm9.9213 2.8703c-.4421 0-.7806.3824-.7806.7914 0 .6738.5522.6931.5421 1.2358-.01.5419-.876 2.0822-1.4606 2.0822-.217 0-.2507-.2188-.2507-.3214 0-1.0375.551-2.5188.551-3.0183 0-.4703-.2865-.591-.6291-.591-.4529 0-.7031.288-.7031.288.1568.3245.0028 1.1004-.1726 1.8458-.303.8577-1.2838 1.8892-2.1624 1.8933-1.1468.0063-.979-1.201-.979-1.201s2.697.0604 2.6129-1.8099c-.0355-.787-.7959-1.125-1.4783-1.0944-1.392.0626-2.5018 1.3846-2.428 3.0204.058 1.2905 1.0251 1.9056 2.0537 1.86.9099-.041 1.5897-.4517 2.0788-.9313.0643.5374.402.9375 1.0489.9375 1.6873 0 3.0218-2.4284 3.0218-3.9348.0003-.551-.2892-1.0523-.8648-1.0523zm8.3268.1161c-1.3934.0289-2.5698 1.3248-2.536 2.9613.0038.157.018.3045.0428.443-.1806.2361-.5.5903-.7888.5903-.159 0-.218-.1406-.218-.2989 0-1.2024.555-2.3854.555-3.085 0-.424-.2895-.5454-.6481-.5454-.4425 0-.6882.288-.6882.288.241.6626-.6164 3.6413-1.5177 3.6413-.2135 0-.25-.1673-.25-.3036 0-.893.551-2.3883.551-3.0565 0-.4441-.2962-.576-.646-.576-.4144 0-.6896.2948-.6896.2948.297.5718-.4844 2.7573-.4844 3.3893 0 .6327.3507 1.1318.9687 1.1318 1.0039 0 1.5863-1.2582 1.5863-1.2582s-.1342 1.2582 1.0843 1.2582c.6254 0 1.1223-.5308 1.3832-.8838.3217.6014.9504.8971 1.8036.879.6122-.0125 1.0525-.1881 1.3927-.4932.5238-.4716.1747-1.1952-.0197-.9823-.3457.3763-.7815.6638-1.2636.6739-.9252.0195-.8132-1.161-.8132-1.161s2.6854.0941 2.6468-1.7772c-.0164-.7875-.7683-1.144-1.4511-1.1298zm-13.21.7215c.1645-.0073.2807.0755.2894.2751.05 1.1075-1.4627 1.2236-1.4627 1.2236.0644-.5416.574-1.4716 1.1733-1.4987zm13.1685.0156c.1844-.0042.2822.083.2867.2826.022 1.0888-1.4463 1.1869-1.4463 1.1869.0776-.5402.4967-1.4559 1.1596-1.4695z"/></svg>