<svg role="img" viewBox="0 0 24 24" xmlns="http://www.w3.org/2000/svg"><title>Rhino Linux</title><path d="M8.72 21.634c-1.23-.08-2.38-.48-2.38-.48a9.5 9.5 0 0 1-3.15-1.85 9.2 9.2 0 0 1-1.83-2.16s-1.12-1.82-1.32-4.04c-.04-.39-.04-.76-.04-.76s0-.32.04-.66c.26-2.65 1.62-4.61 1.62-4.61.19-.28.74-1.05 1.68-1.82 3.16-2.62 7.46-3.02 11.15-1.15.13.07.2.05.29-.07.31-.46.64-.9 1.09-1.23.4-.29.77-.16.91.31.18.63.32 1.27.37 1.93.02.21.09.17.21.08.71-.53 1.52-.84 2.39-1 .58-.11.93.17.86.68-.06.39-.21.74-.47 1.04-.4.45-.8.9-1.31 1.24-.07.04 0-.01.21.2l.04.04c.33.44.64.5 1.01.28.33-.19.67-.38 1.01-.55.4-.2.65-.05.7.39.05.38-.05.75-.09 1.12 0 .05-.02.11.03.15.06.04.1-.02.14-.05.42-.35.74-.78.94-1.29.42-1.06.39-1.06.62-2.34 0-.05.02-.08.03-.12.02.04.04.07.05.11.28 1.07.44 2.03.48 2.89.03.75-.16 1.48-.38 2.2-.15.5-.26 1-.16 1.53.15.86.09 1.71-.26 2.52-.15.34-.33.42-.65.25-.53-.28-1.11-.34-1.69-.38-.82-.05-1.63.09-2.44.2-.43.05-.62.24-.7.66-.08.45-.21.9-.42 1.31-.97 1.83-2.23 3.26-3.85 4.21 0 0-1.79 1.04-3.69 1.21-.26.02-.51.03-.51.03s-.25 0-.53-.02M1.6 9.224c-1.27 2.66-.72 6.12 1.33 8.42 1.62 1.81 3.6 2.52 5.98 1.86 1.19-.33 2.05-1.08 2.58-2.19.03-.07.06-.13.08-.2.24-.86-.26-1.92-1.13-2.46a.83.83 0 0 1-.3-.29c.15-.06.29-.02.43.03 1.1.39 1.87 1.11 2.33 2.18.04.09.08.24.21.07.95-1.25.93-3.26-.03-4.52-.02-.02-.03-.06-.04-.09.05 0 .1-.01.14 0 .23.09.45.21.63.38.65.58 1.1 1.29 1.42 2.09.4.99.34 1.99 0 2.98-.01.04-.01.08-.02.11.03-.02.07-.04.09-.07.14-.17.29-.34.42-.52.7-.97 1.12-2.05 1.38-3.21.04-.18.12-.27.31-.28.33-.03.67-.07 1-.12 1.31-.21 2.61-.35 3.92-.01.15.04.25-.03.27-.19.03-.2.05-.4.07-.6.05-.55.06-1.1-.21-1.61a.26.26 0 0 1 0-.21c.3-.69.43-1.43.57-2.16v-.14s-.07.06-.09.09c-.27.42-.56.81-1.01 1.06a.724.724 0 0 1-1.1-.57c-.03-.26.02-.5.07-.75v-.1s-.07.01-.09.03l-1.05.51c-.22.11-.41.06-.57-.11-.14-.14-.27-.27-.43-.39-.84-.61-1.61-1.29-2.29-2.08-.15-.17-.25-.37-.27-.6-.04-.5-.07-1.01-.1-1.52 0-.06.02-.14-.06-.16s-.13.04-.17.1c-.2.28-.43.54-.6.85-.15.28-.38.36-.69.25-.2-.07-.4-.17-.59-.26-2.35-1.08-4.76-1.37-7.24-.46-2.4.89-4.22 2.41-5.17 4.85m7.35 11.53c1.9 0 3.42-.61 4.73-1.75.54-.47.94-1.04 1.16-1.73.45-1.41.1-2.7-.65-3.92-.06-.09-.13-.17-.2-.26.02.11.02.22.05.33.19.78.25 1.55.04 2.33-.2.76-.54 1.44-1.14 1.97-.02.02-.05.03-.08.05 0-.03-.02-.06-.02-.09-.16-.75-.38-1.48-.98-2.02-.02-.02-.05-.03-.08-.05 0 .03.01.06.02.08.53 1.53.08 3.01-1.21 3.98-.73.55-2.51.97-2.53.98.03 0 .06.01.1.02.28.06.55.08.79.08m10.72-15.64c-.03-.07-.07-.07-.12-.05-.68.27-1.35.55-1.91 1.05-.26.23-.25.22.01.46.15.13.25.12.4 0 .55-.42 1.06-.88 1.55-1.37a.6.6 0 0 0 .07-.09"/></svg>