<svg role="img" viewBox="0 0 24 24" xmlns="http://www.w3.org/2000/svg"><title>Riot icon</title><path d="M5.91 0C3.841 0 2.15 1.623 2.15 3.63c-.004 5.526 0 11.483 0 16.743C2.15 22.379 3.841 24 5.91 24c2.066 0 3.761-1.62 3.761-3.627v-3.071l1.984-.002 3.63 4.98c.673.924 1.746 1.419 2.836 1.419.686 0 1.378-.196 1.983-.603 1.564-1.054 1.943-3.13.846-4.635l-2.322-3.19c1.97-1.593 3.224-3.977 3.224-6.621 0-4.773-4.037-8.65-8.98-8.65zm1.42.603h5.542c4.63 0 8.38 3.613 8.38 8.047 0 2.444-1.156 4.652-2.98 6.136l-1.648-2.263c1.078-.97 1.768-2.338 1.768-3.873 0-2.942-2.48-5.322-5.52-5.322H9.358a3.215 3.215 0 00-.597-1.606A3.405 3.405 0 007.33.602zM9.355 3.93h3.516c2.727 0 4.92 2.115 4.92 4.719 0 1.335-.589 2.53-1.519 3.39l-.21-.29a3.463 3.463 0 00-2.2-1.36c.635-.34 1.07-.992 1.07-1.74 0-1.103-.933-1.994-2.06-1.994H9.07v3.992l2.706-.002a3.28 3.28 0 00-1.979 2.727l-3.587.004V6.93a3.515 3.515 0 001.7-.575 3.296 3.296 0 001.425-2.148c.017-.092.012-.184.02-.276zM2.75 4.959c.092.201.204.394.338.578.606.833 1.543 1.303 2.522 1.39v13.446c-.02.42.62.42.6 0v-6.395l3.59-.004c.054.555.238 1.106.594 1.595l.824 1.13-2.148.002v3.672c0 1.669-1.406 3.026-3.16 3.026-1.755 0-3.16-1.357-3.16-3.026-.003-5.124 0-10.7 0-15.414zm6.92 2.298h3.202c.814 0 1.46.629 1.46 1.393 0 .725-.589 1.34-1.358 1.39a1.595 1.595 0 01-.106.003l-3.197.002z"/></svg>