<svg role="img" viewBox="0 0 24 24" xmlns="http://www.w3.org/2000/svg"><title>Riseup icon</title><path d="M12.165 5.4272s-.353-.685-.377-.78a82.8915 82.8915 0 01-.212-1.061l.236-.425.518-.7791.753-.59.189-.07 1.8131-.685.165-.165-.188-.284-.26-.141-.475-.122-1.19-.122-.925.01-.6361.141-.565-.212-.707-.0941L9.2678.024 8.7499 0l-.872.33-1.3181 1.534-.165.5901-.094.52-.448.967-.283.9201-.14.992v.212l-.6841 1.0381-.377.78v1.107l.118 2.2902.212.826.424.755.542.495.235.9681.895 1.982 1.0601 1.2751.07.07.377 1.9121-1.295 2.3601-.353.543-.33.213-.518-.071-.306.118-.353-.023-.2361.188-.447-.118-.448-.07-.377.235-.094.401.26-.236.4-.07v.377l.635-.142.354.023.612.142s.542.023.636.023c.094 0 .6601.118.6601.118h.423l.212.118.306-.047.307.1891h.47l.095-.307v-.165l.306.141.235.236.1421.26.023-.307-.165-.377s-.117-.213-.212-.213c-.094 0-.447-.118-.447-.118l-.26.071-.258-.142-.283.119-.235-.119-.094-.235-.165-.071.141-.425.424-.9681.565-.944.495-.59.188-.236s.236-.3541.236-.4481c0-.095.047-1.086.047-1.086l-.306-.637-.142-.5201 2.732.662h.1651l2.3321 1.675.33.4251.117 1.628-.047.3781-.165.307-.188.188-.07.331-.095.165-.448.071-.423-.141-.26-.071h-.494l-.236.188-.117.26.023.283.141-.26.165-.165.142-.023-.024.236.165.142.4-.118h.189l.023.26.566.07.4-.07.306.094.448.118.164-.023.142-.094.141.448.07-.472-.117-.566-.26-.213.095-.354-.212-.401.024-1.487 1.177 1.393 1.5551 1.227s1.06.377 1.1541.377c.094 0 .824-.094.824-.094l.471-.778-.353-1.062.141-.355-.754-.99-1.596-1.6261-.382-1.277.024-.8741-.354-.92-.4001-.732.235-.7311-.188-1.062-.803-1.8081.297-.05-.498-.862.323-.103-.569-.9271.24-.128-.427-.7.14-.078-.516-.418.188-.098-1.3421-.9401z"/></svg>