<svg role="img" viewBox="0 0 24 24" xmlns="http://www.w3.org/2000/svg"><title>Ritz Carlton</title><path d="M18.685 22.024c-.208.139-.195.287.052.416.17.096.236.086.456-.06.248-.165.248-.182.052-.32-.26-.165-.352-.174-.56-.036zm-13.689.018c-.118.095-.118.164.013.303.09.103.222.181.299.181.078 0 .21-.078.3-.181.183-.19.026-.424-.3-.424a.47.327 0 0 0-.312.12zm9.117-.087c-.118.095-.13.173-.013.303.17.226.287.226.561.026.169-.121.169-.172.039-.303-.209-.182-.392-.19-.587-.026zm-4.545-.017c-.208.139-.196.285.052.416.286.164.703-.105.494-.32-.181-.192-.351-.226-.546-.096Zm5.705-.39c-.052.564-.052 1.091 0 1.109.04.017.677.043 1.432.051l1.367.027-.011-.563-.015-.554-.572-.062c-.794-.078-2.201-.086-2.201-.008zm1.718.347c.3.182.3.25-.025.475-.248.183-.261.183-.52.027-.3-.174-.34-.39-.104-.546.206-.139.363-.13.65.043zm-6.187-.355c-.052.033-.09.328-.09.657v.598l1.394-.025 1.393-.027v-1.212l-1.303-.026c-.716-.01-1.34 0-1.392.035zm1.654.371c.221.165.221.183-.012.39-.3.278-.313.278-.691.009-.298-.208-.298-.216-.065-.39.3-.216.483-.216.768-.009zm-5.13-.346-1.108.052v1.126h2.735v-.606c0-.702.143-.65-1.629-.572zm.546.329c.3.183.3.251-.026.486l-.26.181-.325-.215-.326-.218.26-.19c.324-.226.364-.234.677-.043zm3.843-5.666a3.559 2.475 0 0 1-1.016.684c-.652.278-.665.278-.313.347.456.078.977.399.977.598 0 .39-.964.493-1.51.156-.314-.19-.34-.2-.458-.051a3.798 2.641 0 0 1-.402.32l-.286.173.39.277c.208.156.39.303.416.32.015.026.143-.043.286-.147.365-.26 1.081-.26 1.356 0 .325.303.247.58-.208.884-.651.433-2.124.511-3.14.164-.678-.225-.782-.891-.208-1.29l.273-.19-.43-.149a4.039 2.809 0 0 1-.716-.32c-.273-.164-.273-.164-.508.078a3.432 2.387 0 0 1-.546.408l-.313.156.455.285c.391.234.47.338.47.641 0 .642-.574.962-1.721.962-.39 0-.598-.061-.898-.251-.43-.286-.47-.485-.17-.77.235-.227.405-.244.703-.062.21.121.236.103.313-.226.078-.32.053-.398-.235-.571-.416-.252-.546-.252-.65.01-.09.25-.482.354-.847.224-.365-.121-.495-.624-.221-.883.3-.277.26-.33-.182-.33-.521 0-1.16-.216-1.524-.503-.34-.268-.546-.2-.275.087.118.113.626.84 1.134 1.629a51.84 51.84 0 0 0 1.081 1.62c.118.157.104.225-.065.356-.286.207-.286.293.104.875.494.762.73 1.489.586 1.828-.065.156-.09.32-.052.355.04.043 3.96.078 8.728.078h8.649v-.598c0-.572.468-1.706.808-1.958.168-.13.116-.494-.092-.598-.17-.087-.078-.286.716-1.482.508-.763 1.093-1.612 1.315-1.897.221-.278.352-.528.313-.555-.039-.025-.287.088-.56.252-.561.355-1.054.511-1.589.511-.443 0-.481.043-.195.225.416.277.078 1.074-.456 1.074-.157 0-.6-.285-.678-.433-.038-.086-.168-.06-.468.087-.248.121-.392.26-.352.329.039.061.065.234.065.382 0 .26.014.268.247.121.325-.2.678-.148.886.113.13.172.103.267-.092.528-.246.328-.533.433-1.21.433-1.446 0-2.162-1.013-1.12-1.603l.403-.216-.456-.338c-.247-.182-.468-.381-.508-.451-.038-.086-.195-.043-.546.164-.262.148-.562.277-.665.277-.261 0-.248.053.092.373.376.355.376.78-.015 1.049-.663.468-2.747.503-3.425.044-.443-.287-.494-.754-.13-.97.325-.2.977-.183 1.263.025.222.164.236.164.6-.095.208-.147.378-.295.378-.33 0-.026-.184-.19-.392-.354-.364-.278-.403-.295-.56-.156-.273.233-.782.328-1.145.207-.638-.207-.378-.762.416-.875.378-.06.535-.217.208-.217-.286 0-1.25-.597-1.51-.927l-.235-.303zm.742.658.365.26-.273.235c-.353.294-.353.554 0 .849.143.13.233.277.195.338l-.273.32a1.487 1.034 0 0 0-.197.442c0 .294.483.763 1.005.97.91.347 2.838.26 3.437-.164.3-.209.638-.278.638-.13 0 .155.691.624 1.16.788l.47.164h-.392a28.205 19.614 0 0 1-1.64-.078c-3.309-.215-6.28-.199-10.865.053l-.911.051.624-.267c.34-.148.613-.296.613-.33 0-.044.118-.165.248-.278l.247-.216.405.233c1.17.65 3.542.486 4.232-.294.286-.32.261-.848-.039-1.118-.248-.207-.248-.215 0-.441.3-.277.314-.59.052-.824-.26-.234-.246-.38.092-.615.351-.25.378-.25.807.052zm-5.626 1.828c-.04.286-.131.32-.378.157-.248-.174-.131-.442.182-.399.156.026.221.104.195.242zm10.85-.173c.103.113-.052.433-.209.433-.17 0-.286-.234-.196-.39a.25.25 0 0 1 .405-.043zm3.829.919c-.118.096-.195.103-.3.034-.103-.069-.078-.13.118-.225.298-.147.443-.017.182.191zm-.587 1.438c.314.476.052.632-.533.328a1.474 1.025 0 0 0-.679-.18c-.285 0-.233-.035.315-.209.364-.113.664-.207.69-.207.026-.01.117.113.207.268zm-16.748-.043c.378.061.508.199.17.199-.144 0-.43.095-.64.216-.403.226-.546.208-.546-.06 0-.286.26-.52.494-.45.118.026.352.077.522.095zm12.726.39c3.556.19 3.516.19 3.464.328-.026.07-.17.452-.313.841l-.273.72H4.461l-.078-.243a10.73 7.462 0 0 0-.325-.746c-.131-.285-.248-.562-.248-.615 0-.086 3.048-.285 6.383-.424 1.08-.043 4.793.026 6.708.139zm-4.82 2.279c5.94 0 7.49-.027 7.723-.113.353-.13.483-.087.378.113-.078.112-.99.129-8.101.129-7.971 0-8.011 0-8.011-.174 0-.164.026-.164.3-.068.221.086 1.901.113 7.71.113zM8.707 3.96c-.117.086-.09.45.053.64.079.087.455.295.846.46.378.164.768.382.847.476.17.217.39.234.39.035 0-.078-.402-.407-.91-.746-.496-.328-.913-.649-.913-.718 0-.13-.195-.226-.313-.147Zm-3.75-.312c-.247.095-.326.424-.104.424.078 0 .168 0 .207.009.053 0 .21-.113.34-.26.247-.26.247-.269.013-.269a1.017.708 0 0 0-.457.096Zm12.4-.217c0 .035.196.2.442.38.678.504 1.03 1.205 1.043 2.08 0 .772-.208 1.24-.835 1.828-.311.287-.61.261-.364-.034.21-.26.353-.831.221-.893-.051-.016-.26.175-.443.425-.195.26-.846.91-1.459 1.456-1.392 1.256-1.719 1.62-1.835 2.079-.17.632-.352.347-.352-.528 0-.867.222-1.326.886-1.794.142-.113.222-.226.169-.26-.195-.13-1.916 1.179-2.332 1.777-.378.537-.417.65-.417 1.447.014.857.222 1.602.457 1.602.065 0 .09-.234.038-.563-.052-.39-.026-.598.092-.693.13-.104.13-.156 0-.26-.17-.13-.092-.676.156-1.1.169-.295.365-.234.365.113 0 .294.207.588.508.745.286.138.586-.052 1.054-.702.273-.39 2.084-2.14 2.54-2.461.092-.07.978-.061.978.009 0 .035-.495.398-1.108.797-1.225.806-1.497 1.187-.546.754 1.014-.469 2.37-1.508 2.903-2.236.458-.606.508-.736.496-1.335 0-.493-.078-.745-.313-1.073-.494-.676-2.345-1.906-2.345-1.56zM15.245.953c-.533.364-.443.701.313 1.144.313.182.625.329.703.329.065 0 .325-.13.561-.294.352-.244.417-.347.377-.624-.025-.191-.09-.32-.169-.295-.065.026-.118.078-.091.121.051.113-.247.312-.495.312-.118 0-.325-.078-.456-.173-.222-.156-.222-.278 0-.633.156-.242-.3-.182-.743.113zm-.298-.606c-.886.294-1.173.346-1.864.346-.456 0-.95-.043-1.093-.095-.288-.104-.704-.009-1.212.277-.183.095-.716.173-1.694.242-1.38.088-1.446.105-1.824.382a5.647 3.927 0 0 0-.598.546c-.143.173-.613.398-1.628.763-2.306.831-2.54.996-2.07 1.472.116.113.324.493.467.84.3.719.573.98.938.91a.627.627 0 0 1 .495.148c.483.39.156.606-.547.372-.638-.216-1.447-.182-1.797.07-.17.112-.275.277-.248.372.04.13.143.147.586.13a3.68 3.68 0 0 1 1.16.148c.324.102.807.181 1.042.181.247 0 .443.035.443.087 0 .043-.053.087-.118.087-.455 0-.143.805.47 1.238.3.2.416.226.794.182.533-.069.495.027-.183.416-1.108.65-1.484 1.517-1.484 3.491 0 1.578-.17 2.003-.9 2.245-.95.329-2.526.043-3.45-.642-.262-.199-.495-.302-.547-.25-.183.2-.053 1.308.195 1.672.963 1.412 4.102 1.784 6.59.788.638-.26 1.108-.39 1.395-.39 1.119 0 3.048-.632 3.477-1.144.273-.32.455-.303.938.053.768.589 2.383.996 3.907 1.005.457 0 .665.051.886.207.455.32 1.654.668 2.554.737 2.448.182 3.972-.51 3.972-1.81 0-.27-.04-.52-.092-.547-.038-.034-.26.017-.481.105-.938.372-2.097.285-2.826-.217-.418-.287-.443-.339-.443-.927 0-.606.025-.641.676-1.317.99-1.014 1.12-1.273 1.042-1.967-.051-.416-.026-.606.092-.668.103-.051.34-.337.546-.64.508-.763.522-1.698.015-2.435-.196-.277-.326-.528-.301-.554.04-.018.196.026.365.103.156.079.34.14.391.14.13 0-.678-1.135-.964-1.352-.3-.226-.3-.295.026-.295.338 0 .325-.104-.014-.242-.415-.183-.742-.771-.833-1.57-.079-.744-.247-1.064-.665-1.324-.311-.183-1.392-.468-2.097-.546-.416-.043-.624-.13-.898-.373C17.045.355 16.445 0 16.197 0c-.118.008-.676.164-1.25.346Zm1.784.233c.546.399 1.016.902 1.016 1.119 0 .233-.678.779-1.055.857-.34.078-.313.216.052.216 1.003 0 2.918 1.057 3.7 2.037.91 1.152 1.015 2.027.364 2.972-.573.84-1.46 1.29-4.064 2.062-.508.155-.521.172-.273.26.26.094.26.113-.262.338-.99.433-1.445 1.126-1.276 1.906.104.424.612.91.977.91.183 0 .26.129.39.58a5.774 4.015 0 0 0 1.8 2.253c.456.303.768.545.703.545-.065 0-.468-.156-.898-.346-.43-.191-.873-.347-.99-.347-.156 0-.182-.06-.13-.243.064-.216-.04-.302-.899-.822-1.185-.703-1.81-1.308-2.333-2.253-.546-1.014-.65-1.084-.585-.39.119 1.118 1.668 2.66 3.205 3.18 1.29.442-.157.372-1.746-.078-.742-.209-1.798-.875-2.333-1.464-1.054-1.153-1.287-2.869-.546-3.952.183-.277.313-.52.286-.537-.09-.06-.99.226-1.575.503-1.173.563-1.994 1.707-2.059 2.85-.012.45.027.633.157.685.286.12.091.962-.377 1.638-.221.32-.378.675-.365.787.025.175-.066.252-.483.408-.52.2-.52.2-.61.026-.08-.13 0-.278.286-.546.403-.372.767-1.273.78-1.897 0-.174.052-.32.119-.32.052 0 .103-.538.09-1.196-.013-1.118.013-1.214.34-1.69.56-.788 1.432-1.282 3.346-1.889 3.478-1.109 4.077-1.335 4.833-1.785.886-.537 1.303-1.134 1.303-1.87-.015-.963-1.226-1.846-2.892-2.098-.912-.138-1.564-.164-1.707-.078-.091.07 1.016.702 1.797 1.022 2.072.85 2.032 2.349-.078 3.258-.403.174-1.654.598-2.8.936-3.426 1.04-4.533 1.664-4.872 2.73-.078.268-.13 1.16-.103 2.105.012 1.126-.026 1.759-.143 2.019-.197.45-.9.96-1.316.96-.443 0-.236.217.233.244.587.043.522.173-.194.39-.833.251-2.489.267-3.165.026-.573-.2-1.148-.546-1.368-.841-.248-.32-.143-.346.534-.156.69.208 1.68.295 2.333.217.65-.087 1.432-.572 1.692-1.075.143-.269.26-.893.325-1.862.248-3.085.951-3.7 5.953-5.199 2.15-.65 2.826-.962 3.178-1.481.47-.676.236-1.613-.455-1.924-.457-.19-.547-.104-.287.268.234.322.234.71.013.677-.066-.01-.143-.096-.17-.2-.078-.294-.273-.104-.364.355-.092.425-.287.599-1.043.92-.221.085-.181.103.274.103.286.008.69-.052.899-.121.495-.174.561-.113.195.215-.365.322-.508.347-2.006.374-1.497.026-2.461.303-3.074.892-.417.407-1.028.72-1.836.935-.43.122-.496.122-.794-.034a2.633 1.831 0 0 1-.547-.485c-.221-.312-.221-.33.012-.441a1.113.774 0 0 1 .535-.113c.168 0 .586-.175 1.003-.434.897-.537 1.354-.693 2.018-.693.287 0 .561-.043.613-.103.117-.122-2.358-1.716-2.658-1.716-.103 0-.378.095-.6.199-.233.121-.69.234-1.054.26-.351.035-.808.138-1.004.234-.194.095-.403.173-.468.173s-.195-.181-.273-.398c-.144-.373-.13-.425.17-.73.403-.414.286-.596-.287-.397-.521.182-.546.174-.546-.061 0-.173.26-.294 1.679-.78 1.745-.597 1.967-.657 1.967-.476.013.061.13.208.26.321.286.216.17.225 1.733-.052.325-.051.273-.2-.066-.2-.274-.009-.274-.017-.065-.095.325-.13.274-.277-.09-.217-.405.07-.692-.138-.418-.285a.55.382 0 0 1 .47-.052c.18.035.26.017.26-.078 0-.19-.677-.252-1.29-.113-.586.138-.743.035-.3-.216.313-.191.678-.226 2.449-.295 1.98-.07 2.631.043 4.012.702.924.433 1.394.58 1.367.407 0-.035-.286-.208-.638-.39-1.004-.503-1.016-.979-.038-1.386 1.08-.451 1.68-.503 2.149-.174zm-3.413.642c0 .086-.273.103-.573.026-.352-.087-.235-.182.182-.139.221.018.39.069.39.113zm5.704.588c.262.088.587.235.705.322.246.182 1.536 2.365 1.627 2.762.065.244-.13.08-1.459-1.263-.025-.027.132-.027.365-.01.405.035.391.027-.495-.563-.494-.338-1.004-.64-1.12-.684-.234-.087-.444-.729-.234-.729.065 0 .34.078.611.164zM7.9 2.53c.065.078.103.174.065.2-.13.078-.443-.035-.613-.226-.157-.165-.143-.173.118-.147a.738.513 0 0 1 .428.173zm10.341.07c.092.095.13.173.079.173-.17 0-.573-.182-.573-.26 0-.148.324-.096.494.086zM15.91 3.726c.704.337 1.055.736 1.055 1.17l-.014.345-.31-.424c-.17-.234-.613-.632-.991-.883-.768-.52-.626-.633.26-.208ZM8.277 5.623c.795.51.795.52.458.572-.248.044-.458.009-.756-.148-.3-.146-.6-.199-1.082-.207-.573 0-.677-.035-.717-.175-.025-.129.119-.223.522-.362.313-.105.613-.191.664-.191.065 0 .482.234.911.511zm13.77.38c0 .288-.3.105-.47-.293a3.878 2.697 0 0 1-.182-.469c.013-.155.65.607.65.763zm-16.35-.197c0 .373-.3.407-.586.06-.17-.208-.17-.25 0-.32.365-.156.587-.061.587.26zm8.975-.277c.118.13-.079.45-.26.45-.195 0-.235-.155-.104-.381.09-.147.26-.182.364-.07zm-6.826.744c0 .062-.13.139-.286.165-.717.113-1.263.304-1.563.538-.273.207-.43.251-.834.242a3.785 2.632 0 0 1-.99-.147 3.032 2.108 0 0 0-.964-.138c-.311 0-.443-.035-.403-.113.052-.113.676-.121 1.732-.018.65.062.69.052 1.354-.294.587-.303.757-.356 1.316-.356.457 0 .638.035.638.121zm14.302.91c.34.737.104 1.837-.495 2.349l-.26.215v-.31c0-.417-.377-.659-.807-.512a2.95 2.95 0 0 0-.521.242c-.157.088-.235.096-.235.035 0-.06.065-.104.13-.104.286 0 1.315-1.074 1.577-1.655.156-.329.311-.598.365-.598.051 0 .168.148.246.34zm-15.42-.2c.39.105.157.382-.325.382-.131 0-.158-.286-.026-.373.103-.07.103-.07.351-.009zm4.312.529c-.353.121-.86.285-1.107.355l-.458.121.261-.19c.325-.243 1.186-.52 1.63-.511.26 0 .207.043-.326.225zm9.964 1.845c-.17.39-.587.754-1.837 1.56-1.276.832-1.446 1.1-1.29 2.035.052.287.065.633.027.772-.091.339.195.226.443-.173.26-.408.443-.373.443.078 0 .477.65 1.377 1.171 1.62.913.433 2.175.572 3.01.347.208-.062.416-.088.456-.062.103.07-.273.513-.626.72-1.29.789-4.076.191-5.223-1.117-.86-.98-1.16-2.634-.612-3.431.144-.209.234-.4.207-.416-.233-.156-.975.701-1.184 1.351l-.157.485-.155-.26c-.248-.406-.326-1.03-.156-1.369.221-.433.86-.78 1.978-1.057 1.603-.39 2.359-.658 2.905-1.04.6-.406.756-.416.6-.043zm.34 1.196-.015.763-.742.822c-.418.452-.807.953-.899 1.118a7.52 7.52 0 0 0-.195.434c-.04.078-.156-.01-.313-.234-.13-.191-.365-.381-.508-.416-.235-.043-.273-.121-.273-.486 0-.242.065-.52.143-.623.092-.104.73-.59 1.432-1.074.717-.486 1.29-.928 1.29-.97 0-.052.014-.096.04-.096.025 0 .038.346.038.762zm-10.683-.009c-.039.026-.169.026-.287-.008-.195-.052-.195-.07.027-.234l.248-.182.038.19c.027.104.015.209-.026.234zm-.298.563c-.04.226.078.814.273 1.456.521 1.646.443 2.088-.457 2.668-.416.27-2.123.703-2.305.59-.04-.026.052-.139.208-.252.457-.32.783-.926.938-1.75.078-.433.195-1.058.26-1.404.21-1.03 1.238-2.287 1.083-1.308zm1.614 3.337c.17.164.143.19-.247.355-.235.103-.43.172-.456.164-.014-.017.04-.19.118-.39.142-.39.298-.424.585-.13z"/></svg>