<svg role="img" viewBox="0 0 24 24" xmlns="http://www.w3.org/2000/svg"><title>Ritz Carlton</title><path d="M16.527 22.025c-.14.138-.132.285.036.415.114.096.158.087.308-.06.168-.165.168-.182.036-.32-.177-.165-.238-.174-.38-.035zm-9.27.017c-.08.095-.08.164.009.303.062.104.15.182.203.182.053 0 .14-.078.203-.182.123-.19.017-.424-.203-.424-.062 0-.159.052-.212.12zm6.174-.087c-.079.096-.088.174-.008.303.114.226.194.226.379.026.115-.12.115-.173.026-.303-.14-.182-.264-.19-.397-.026zm-3.078-.017c-.141.139-.132.286.035.416.194.164.477-.104.335-.32-.123-.191-.238-.226-.37-.096zm3.863-.39c-.035.563-.035 1.092 0 1.109.027.017.46.043.97.052l.927.026-.01-.563-.008-.555-.388-.06c-.538-.078-1.49-.087-1.49-.009zm1.165.347c.203.182.203.25-.018.476-.168.182-.176.182-.353.026-.203-.173-.23-.39-.07-.546.14-.138.247-.13.44.044zm-4.19-.356c-.035.035-.062.33-.062.659v.598l.944-.026.944-.026V21.53l-.882-.026c-.485-.009-.909 0-.944.034zm1.12.373c.15.165.15.182-.009.39-.202.277-.211.277-.467.008-.203-.207-.203-.216-.044-.39.203-.216.326-.216.52-.008zm-3.475-.347-.75.052V22.744h1.852v-.607c0-.702.097-.65-1.102-.572zm.37.33c.203.182.203.25-.017.485l-.177.182-.22-.217-.22-.216.176-.191c.22-.225.247-.234.458-.043zm2.602-5.667c-.15.243-.414.503-.688.685-.44.277-.45.277-.211.346.308.078.661.399.661.598 0 .39-.652.494-1.023.156-.212-.19-.23-.2-.309-.052a2.644 2.644 0 0 1-.273.32l-.194.174.264.277c.142.156.265.303.283.32.009.027.097-.043.194-.147.247-.26.732-.26.917 0 .22.304.168.58-.141.884-.441.433-1.438.511-2.126.165-.458-.225-.529-.893-.14-1.291l.184-.19-.29-.148a2.73 2.73 0 0 1-.486-.32c-.185-.165-.185-.165-.344.077-.088.13-.256.312-.37.408l-.212.155.309.286c.264.234.317.338.317.642 0 .64-.388.961-1.164.961-.265 0-.406-.06-.609-.251-.29-.286-.317-.485-.114-.771.158-.225.273-.243.476-.06.141.12.159.103.212-.226.053-.32.035-.399-.16-.572-.281-.251-.37-.251-.44.009-.062.251-.327.355-.573.225-.247-.121-.336-.624-.15-.884.202-.277.176-.329-.124-.329-.353 0-.785-.217-1.032-.502-.23-.269-.37-.2-.185.086.08.113.423.84.767 1.63.344.788.68 1.515.732 1.62.08.155.07.225-.044.355-.194.207-.194.294.07.875.336.762.495 1.49.398 1.828-.044.156-.062.32-.036.355.027.043 2.682.078 5.91.078h5.857v-.598c0-.572.318-1.707.547-1.958.115-.13.08-.494-.062-.598-.114-.086-.053-.286.485-1.481.344-.763.741-1.612.891-1.898.15-.277.238-.528.212-.554-.027-.026-.194.086-.38.25-.379.356-.714.512-1.075.512-.3 0-.327.043-.133.225.282.278.053 1.075-.309 1.075-.105 0-.405-.286-.458-.433-.027-.087-.115-.061-.318.086-.167.121-.264.26-.238.33.027.06.044.233.044.38 0 .26.009.27.168.122.22-.2.458-.147.6.113.088.173.07.268-.062.528-.168.33-.362.433-.82.433-.98 0-1.465-1.013-.759-1.603l.273-.216-.308-.338c-.168-.182-.318-.381-.344-.45-.027-.087-.133-.044-.37.164-.177.147-.38.277-.45.277-.177 0-.168.052.061.373.256.355.256.78-.009 1.048-.45.468-1.86.503-2.32.044-.3-.286-.335-.754-.088-.97.22-.2.662-.183.856.025.15.165.159.165.406-.095.14-.147.255-.295.255-.33 0-.025-.123-.19-.264-.355-.247-.277-.274-.294-.38-.156-.185.234-.529.33-.776.208-.432-.208-.255-.762.283-.875.255-.06.361-.216.14-.216-.193 0-.846-.598-1.022-.927l-.16-.304-.229.39zm.503.659.247.26-.185.234c-.238.294-.238.554 0 .849.097.13.159.277.132.338l-.185.32a1.06 1.06 0 0 0-.132.442c0 .295.326.762.679.97.617.347 1.923.26 2.328-.164.203-.208.433-.278.433-.13 0 .156.467.624.785.788l.317.165h-.264c-.141 0-.644-.035-1.112-.078-2.24-.217-4.251-.2-7.356.052l-.618.052.424-.269c.23-.147.414-.294.414-.329 0-.043.08-.165.168-.277l.168-.217.273.234c.794.65 2.4.485 2.867-.295.194-.32.176-.849-.027-1.117-.167-.208-.167-.217 0-.442.203-.277.212-.59.036-.823s-.168-.381.061-.615c.238-.252.256-.252.547.052zm-3.81 1.828c-.027.286-.089.32-.256.156-.168-.174-.088-.442.123-.399.106.026.15.104.133.243zm7.347-.173c.07.112-.035.433-.14.433-.116 0-.195-.234-.133-.39.053-.147.194-.173.273-.043zm2.593.918c-.079.095-.132.104-.202.035-.071-.07-.053-.13.079-.226.203-.147.3-.017.123.19zm-.396 1.438c.211.477.035.633-.362.33a.983.983 0 0 0-.459-.183c-.194 0-.159-.034.212-.207.247-.113.45-.208.467-.208.018-.01.08.112.142.268zM6.7 20.855c.256.06.344.2.115.2-.097 0-.291.094-.432.216-.274.225-.37.208-.37-.06 0-.287.176-.52.334-.451.08.026.239.078.353.095zm8.618.39c2.408.19 2.382.19 2.346.329l-.211.84-.186.72H6.895l-.053-.243a7.6 7.6 0 0 0-.22-.745c-.088-.286-.168-.563-.168-.615 0-.087 2.064-.286 4.322-.425.733-.043 3.246.026 4.543.139zm-3.264 2.278c4.023 0 5.072-.026 5.231-.112.238-.13.326-.087.256.112-.053.113-.67.13-5.487.13-5.398 0-5.424 0-5.424-.173 0-.164.017-.164.203-.07.15.087 1.287.113 5.221.113zM9.771 3.96c-.08.086-.062.45.035.64.053.087.309.295.573.46.256.165.52.381.574.476.114.217.264.234.264.035 0-.078-.273-.407-.617-.745-.335-.33-.617-.65-.617-.72 0-.13-.133-.224-.212-.146zm-2.54-.312c-.168.095-.221.424-.071.424.053 0 .115 0 .141.009.035 0 .141-.113.23-.26.167-.26.167-.269.008-.269a.675.675 0 0 0-.308.096zm8.397-.217c0 .035.132.2.3.381.458.503.696 1.205.705 2.08 0 .77-.14 1.239-.564 1.828-.212.286-.415.26-.247-.035.14-.26.238-.832.15-.892-.036-.018-.177.173-.3.424-.133.26-.574.91-.988 1.456-.944 1.256-1.164 1.62-1.244 2.08-.114.632-.238.346-.238-.53 0-.866.15-1.325.6-1.793.097-.112.15-.225.114-.26-.132-.13-1.296 1.179-1.578 1.777-.256.537-.283.65-.283 1.447.01.857.15 1.602.31 1.602.043 0 .06-.234.026-.563-.036-.39-.018-.598.061-.693.088-.104.088-.156 0-.26-.114-.13-.061-.676.106-1.1.115-.295.247-.234.247.112 0 .295.141.59.344.746.194.138.397-.052.715-.702.185-.39 1.41-2.14 1.72-2.46.061-.07.661-.062.661.008 0 .034-.335.398-.75.797-.829.806-1.014 1.187-.37.754.688-.468 1.605-1.508 1.967-2.236.309-.606.344-.736.335-1.334 0-.494-.053-.745-.212-1.074-.335-.676-1.587-1.907-1.587-1.56zM14.198.953c-.36.364-.3.702.212 1.144.212.182.424.329.477.329.044 0 .22-.13.38-.295.237-.242.281-.346.255-.623-.018-.191-.062-.321-.115-.295-.044.026-.08.078-.062.121.036.113-.167.312-.335.312-.08 0-.22-.078-.308-.173-.15-.156-.15-.277 0-.633.105-.242-.203-.182-.503.113zm-.202-.606c-.6.294-.794.346-1.261.346-.31 0-.644-.043-.741-.095-.194-.104-.477-.009-.82.277-.124.095-.486.173-1.147.243-.935.086-.98.104-1.235.38a3.928 3.928 0 0 0-.406.547c-.097.173-.415.398-1.103.762-1.56.832-1.72.997-1.402 1.473.08.113.22.494.318.84.202.72.388.98.635.91.114-.026.238.026.335.148.326.39.106.606-.37.372-.433-.216-.98-.182-1.218.07-.115.112-.185.277-.167.372.026.13.097.147.396.13.239-.017.52.035.785.147.221.104.547.182.706.182.168 0 .3.035.3.087 0 .043-.035.087-.08.087-.308 0-.096.805.318 1.239.203.199.282.225.538.181.362-.069.335.026-.123.416-.75.65-1.006 1.517-1.006 3.492 0 1.577-.114 2.002-.608 2.244-.644.33-1.712.043-2.338-.641-.176-.2-.335-.303-.37-.251-.124.199-.036 1.308.132 1.672.653 1.412 2.778 1.785 4.463.788.432-.26.75-.39.944-.39.759 0 2.064-.632 2.355-1.143.185-.32.309-.303.635.052.52.589 1.614.996 2.646 1.005.309 0 .45.052.6.208.309.32 1.12.667 1.729.736 1.658.182 2.69-.511 2.69-1.81 0-.27-.026-.52-.062-.546-.026-.035-.176.017-.326.103-.635.373-1.42.286-1.914-.216-.282-.286-.3-.338-.3-.927 0-.607.018-.641.459-1.317.67-1.014.758-1.274.705-1.967-.035-.416-.017-.606.062-.667.07-.052.23-.338.37-.641.345-.763.353-1.698.01-2.435-.133-.277-.221-.528-.203-.554.026-.018.132.026.247.104.105.078.229.138.264.138.088 0-.458-1.135-.653-1.351-.202-.226-.202-.295.018-.295.23 0 .22-.104-.009-.243-.282-.182-.503-.77-.564-1.568-.053-.745-.168-1.066-.45-1.325-.212-.182-.944-.468-1.42-.546-.283-.044-.424-.13-.609-.373-.335-.442-.74-.797-.908-.797-.08.009-.46.165-.847.347zm1.208.234c.37.398.688.9.688 1.117 0 .234-.458.78-.714.858-.23.078-.212.217.035.217.68 0 1.976 1.057 2.505 2.036.618 1.152.688 2.027.247 2.972-.388.84-.988 1.29-2.752 2.062-.344.156-.353.173-.185.26.176.095.176.112-.177.337-.67.434-.979 1.127-.864 1.907.07.424.415.91.662.91.123 0 .176.13.264.58a4.045 4.045 0 0 0 1.217 2.253c.31.303.52.545.477.545-.044 0-.318-.156-.609-.346-.29-.19-.59-.347-.67-.347-.106 0-.124-.06-.088-.242.044-.217-.027-.304-.609-.823-.803-.702-1.226-1.309-1.579-2.253-.37-1.014-.44-1.083-.397-.39.08 1.118 1.13 2.66 2.17 3.18.873.442-.106.372-1.182-.078-.503-.208-1.217-.875-1.579-1.465-.714-1.152-.873-2.867-.37-3.95.123-.278.211-.52.194-.538-.062-.06-.67.226-1.067.503-.794.563-1.35 1.707-1.394 2.85-.009.451.017.633.106.685.194.121.061.962-.256 1.637-.15.321-.256.676-.247.789.018.173-.044.251-.326.407-.353.2-.353.2-.415.026-.053-.13 0-.277.194-.546.273-.372.52-1.273.53-1.897 0-.173.035-.32.079-.32.035 0 .07-.538.061-1.196-.008-1.118.01-1.213.23-1.69.379-.788.97-1.282 2.267-1.889 2.355-1.109 2.76-1.334 3.272-1.785.6-.537.882-1.135.882-1.871-.009-.962-.829-1.846-1.958-2.097-.617-.138-1.058-.164-1.156-.078-.061.07.688.702 1.218 1.023 1.402.849 1.376 2.348-.053 3.257-.274.174-1.12.598-1.897.936-2.32 1.04-3.07 1.664-3.299 2.73-.052.268-.088 1.16-.07 2.105.009 1.126-.018 1.759-.097 2.019-.132.45-.609.961-.891.961-.3 0-.159.217.159.243.397.043.353.173-.133.39-.564.251-1.684.268-2.143.026-.388-.2-.776-.546-.926-.84-.168-.321-.097-.347.362-.157.467.208 1.137.295 1.578.217.441-.087.97-.572 1.147-1.074.097-.269.177-.893.22-1.863.168-3.085.645-3.7 4.032-5.199 1.455-.65 1.914-.962 2.152-1.481.317-.676.159-1.612-.309-1.924-.309-.19-.37-.104-.194.269.159.32.159.71.009.676-.044-.01-.097-.096-.115-.2-.053-.294-.185-.104-.247.356-.062.424-.194.597-.705.918-.15.087-.124.104.185.104.194.009.467-.052.608-.121.336-.174.38-.113.133.216-.247.32-.344.347-1.359.373-1.014.026-1.667.303-2.081.892-.283.407-.697.72-1.244.936-.291.121-.335.121-.538-.035a1.824 1.824 0 0 1-.37-.485c-.15-.312-.15-.33.008-.442.089-.06.247-.112.362-.112s.397-.174.68-.434c.608-.537.917-.693 1.366-.693.194 0 .38-.043.415-.104.08-.121-1.597-1.715-1.8-1.715-.07 0-.255.095-.405.199-.159.121-.468.234-.715.26-.238.035-.546.139-.679.234s-.273.173-.317.173c-.044 0-.133-.182-.186-.398-.097-.373-.088-.425.115-.728.274-.416.194-.598-.194-.399-.353.182-.37.174-.37-.06 0-.174.176-.295 1.137-.78 1.182-.598 1.332-.659 1.332-.477.01.06.089.208.177.32.194.217.114.226 1.173-.051.22-.052.185-.2-.044-.2-.185-.008-.185-.017-.044-.095.22-.13.185-.277-.062-.216-.274.069-.468-.139-.282-.286a.364.364 0 0 1 .317-.052c.124.034.177.017.177-.078 0-.19-.459-.251-.874-.113-.397.139-.502.035-.202-.216.211-.191.458-.226 1.658-.295 1.34-.07 1.782.043 2.717.702.626.433.943.58.926.407 0-.035-.194-.208-.433-.39-.679-.502-.688-.979-.026-1.386.732-.45 1.138-.503 1.455-.173zm-2.31.64c0 .087-.186.105-.389.027-.238-.087-.159-.182.124-.139.15.017.264.07.264.113zm3.863.59c.176.086.397.234.476.32.168.182 1.04 2.366 1.103 2.764.044.243-.089.078-.988-1.265-.018-.026.088-.026.247-.008.273.034.264.026-.335-.564-.336-.337-.68-.64-.76-.684-.158-.087-.299-.728-.158-.728.044 0 .23.078.415.165zm-7.533.719c.044.078.07.173.044.2-.088.077-.3-.035-.415-.226-.105-.165-.097-.173.08-.147a.497.497 0 0 1 .291.173zm7.003.07c.062.095.089.173.053.173-.114 0-.388-.182-.388-.26 0-.148.22-.096.335.086zM14.65 3.725c.476.338.714.736.714 1.17l-.009.346-.211-.425c-.115-.234-.415-.632-.67-.883-.521-.52-.424-.633.176-.208zm-5.17 1.897c.539.511.539.52.31.572-.168.043-.31.009-.512-.147-.203-.148-.406-.2-.732-.208-.388 0-.459-.035-.485-.174-.018-.13.079-.225.352-.363.212-.104.415-.191.45-.191.044 0 .327.234.618.511zm9.324.381c0 .286-.203.104-.317-.294a2.76 2.76 0 0 1-.124-.468c.009-.156.441.606.441.762zm-11.07-.199c0 .373-.203.407-.397.06-.114-.207-.114-.25 0-.32.247-.156.397-.06.397.26zm6.078-.277c.079.13-.053.45-.177.45-.132 0-.159-.156-.07-.38.061-.148.176-.183.247-.07zm-4.622.745c0 .06-.089.139-.194.165-.486.112-.856.303-1.059.537-.185.208-.29.251-.564.242a2.503 2.503 0 0 1-.67-.147 2.006 2.006 0 0 0-.653-.139c-.212 0-.3-.034-.274-.112.035-.113.459-.122 1.173-.018.441.061.468.052.918-.294.397-.303.511-.355.89-.355.31 0 .433.034.433.12zm9.685.91c.229.736.07 1.837-.336 2.348l-.176.216v-.312c0-.415-.256-.658-.547-.51-.114.06-.273.164-.353.242-.105.086-.158.095-.158.034 0-.06.044-.104.088-.104.194 0 .89-1.074 1.067-1.654.106-.33.212-.598.247-.598s.115.147.168.338zm-10.444-.2c.265.104.106.382-.22.382-.089 0-.106-.286-.018-.373.07-.07.07-.07.238-.009zm2.92.529c-.238.121-.582.286-.75.355l-.309.121.177-.19c.22-.243.802-.52 1.102-.511.177 0 .141.043-.22.225zm6.747 1.845c-.114.39-.396.754-1.243 1.56-.865.832-.98 1.1-.874 2.036.036.286.045.633.018.771-.062.338.132.225.3-.173.176-.407.3-.373.3.078 0 .476.441 1.378.794 1.62.617.433 1.473.572 2.037.347.141-.061.283-.087.309-.061.07.07-.185.511-.423.72-.874.788-2.761.19-3.537-1.119-.583-.979-.785-2.633-.415-3.43.097-.209.159-.4.141-.416-.159-.156-.661.701-.802 1.351l-.106.485-.106-.26c-.168-.407-.22-1.03-.106-1.369.15-.433.582-.78 1.34-1.057 1.086-.39 1.597-.658 1.968-1.04.405-.406.511-.415.405-.043zm.23 1.196-.01.763-.502.823c-.282.45-.547.953-.609 1.117-.052.165-.114.364-.132.434-.026.078-.106-.01-.212-.234-.088-.191-.246-.382-.344-.416-.158-.044-.185-.122-.185-.485 0-.243.044-.52.097-.624.062-.104.494-.59.97-1.075.486-.485.874-.927.874-.97 0-.052.009-.095.026-.095s.027.346.027.762zm-7.233-.009c-.027.026-.115.026-.194-.008-.132-.052-.132-.07.018-.234l.167-.182.027.19c.017.104.008.208-.018.234zm-.203.564c-.026.225.053.814.185 1.455.353 1.646.3 2.088-.308 2.669-.283.268-1.438.702-1.562.589-.026-.026.036-.139.141-.251.31-.32.53-.927.636-1.75.052-.434.132-1.058.176-1.404.141-1.031.838-2.287.732-1.308zm1.094 3.335c.114.165.097.19-.168.356-.159.104-.29.173-.309.164-.008-.017.027-.19.08-.39.097-.39.203-.424.397-.13z"/></svg>