<svg
   role="img"
   viewBox="0 0 24 24"
   xmlns="http://www.w3.org/2000/svg"
  >
  <title>Ritz Carlton</title>
  <g transform="translate(-150.000000,100.000000) scale(0.100000,-0.100000)">
    <path
       d="m 1661.8499,781.54918 c -1.4112,-1.34994 -1.323,-2.78425 0.3529,-4.04982 1.1466,-0.92808 1.5877,-0.84372 3.0872,0.5906 1.6758,1.60305 1.6758,1.77179 0.3528,3.12174 -1.7641,1.60305 -2.3816,1.6874 -3.7929,0.33748 z m -92.7042,-0.16875 c -0.7938,-0.92807 -0.7938,-1.60304 0.089,-2.95299 0.6173,-1.01245 1.4994,-1.7718 2.0287,-1.7718 0.5292,0 1.4112,0.75935 2.0287,1.7718 1.2348,1.85616 0.1764,4.13418 -2.0287,4.13418 -0.6175,0 -1.5878,-0.50621 -2.117,-1.18119 z
          m 61.744,0.84371 c -0.7938,-0.92808 -0.882,-1.68743 -0.088,-2.95299 1.1467,-2.19365 1.9405,-2.19365 3.793,-0.25311 1.1466,1.1812 1.1466,1.68742 0.2645,2.95299 -1.4114,1.77179 -2.6462,1.85617 -3.9693,0.25311 z
          m -30.7838,0.16875 c -1.4112,-1.34994 -1.3231,-2.78425 0.3529,-4.04982 1.9405,-1.60305 4.7631,1.01246 3.3518,3.12174 -1.2348,1.85615 -2.3816,2.19364 -3.7047,0.92808 z
          m 38.6341,3.79669 c -0.3527,-5.48412 -0.3527,-10.63075 0,-10.7995 0.2647,-0.16874 4.5868,-0.42184 9.7027,-0.50622 l 9.2616,-0.25311 -0.089,5.48412 -0.088,5.39975 -3.881,0.59059 c -5.3806,0.75934 -14.9068,0.84372 -14.9068,0.0844 z
          m 11.6432,-3.37483 c 2.0287,-1.7718 2.0287,-2.44677 -0.1764,-4.64041 -1.6759,-1.77181 -1.7641,-1.77181 -3.5283,-0.25313 -2.0286,1.68743 -2.2932,3.7967 -0.7056,5.31539 1.4113,1.34993 2.4698,1.26557 4.4103,-0.42185 z

          m -41.8977,3.45921 c -0.3528,-0.33748 -0.6173,-3.2061 -0.6173,-6.41221 v -5.82161 l 9.4379,0.25313 9.438,0.25311 v 5.90598 5.90597 l -8.8206,0.25311 c -4.8513,0.0844 -9.0852,0 -9.438,-0.33748 z

          m 11.2021,-3.62796 c 1.4995,-1.60305 1.4995,-1.7718 -0.088,-3.7967 -2.0287,-2.69987 -2.1169,-2.69987 -4.6748,-0.0844 -2.0289,2.02491 -2.0289,2.10926 -0.4411,3.79669 2.0287,2.10929 3.2636,2.10929 5.2041,0.0844 z

          m -34.753,3.37484 -7.4975,-0.50622
          v -5.48412 -5.48412
          h 9.2616 9.2617
          v 5.90598
          c 0,6.83405 0.9701,6.32782 -11.0258,5.56848
          z

          m 3.7047,-3.20609
          c 2.0287,-1.7718 2.0287,-2.44677 -0.1764,-4.72479
          l -1.7642,-1.77179 -2.2052,2.10927 -2.205,2.10927 1.7641,1.85618
          c 2.2051,2.19364 2.4697,2.27802 4.5867,0.42186
          z

          m 26.0205,55.1787
          c -1.4995,-2.36239 -4.1455,-4.89354 -6.88,-6.66532 -4.4102,-2.69988 -4.4984,-2.69988 -2.1169,-3.37485 3.0872,-0.75934 6.6155,-3.88107 6.6155,-5.82161 0,-3.7967 -6.5272,-4.80914 -10.232,-1.51867 -2.1168,1.85616 -2.2932,1.94053 -3.0871,0.50622 -0.5293,-0.75934 -1.7641,-2.19364 -2.7344,-3.12172
          l -1.9405,-1.68743 2.6461,-2.69988
          c 1.4113,-1.51867 2.6463,-2.95298 2.8227,-3.12173 0.088,-0.25311 0.9702,0.42186 1.9404,1.43432 2.4698,2.53112 7.3212,2.53112 9.1735,0 2.2051,-2.953 1.6759,-5.65288 -1.4113,-8.60586 -4.4103,-4.21855 -14.3775,-4.9779 -21.2576,-1.60305 -4.5867,2.19364 -5.2924,8.69023 -1.4113,12.5713
          l 1.8524,1.85616 -2.9109,1.43431
          c -1.6758,0.84371 -3.7928,2.19364 -4.8513,3.12172 -1.8522,1.60305 -1.8522,1.60305 -3.44,-0.75933 -0.882,-1.26558 -2.558,-3.03736 -3.7046,-3.96544
          l -2.117,-1.51869 3.0872,-2.78424
          c 2.6462,-2.27802 3.1754,-3.29047 3.1754,-6.24346 0,-6.24346 -3.881,-9.3652 -11.6431,-9.3652 -2.6462,0 -4.0574,0.59061 -6.0863,2.44677 -2.9107,2.78424 -3.1754,4.72478 -1.1466,7.50903 1.5876,2.19364 2.7345,2.36239 4.7631,0.59059 1.4113,-1.18119 1.5878,-1.01245 2.1169,2.19365 0.5293,3.12174 0.3529,3.88108 -1.5876,5.56848 -2.8227,2.44677 -3.7048,2.44677 -4.4103,-0.0844 -0.6175,-2.44677 -3.2637,-3.45922 -5.7334,-2.19364 -2.4698,1.18119 -3.3519,6.07471 -1.4996,8.60584 2.0289,2.69988 1.7641,3.2061 -1.2348,3.2061 -3.5282,0 -7.8503,2.10928 -10.3201,4.89353 -2.2933,2.61551 -3.7046,1.94054 -1.8523,-0.84371 0.7938,-1.09682 4.2339,-8.184 7.6739,-15.86176 3.44,-7.67778 6.7918,-14.76496 7.3211,-15.77741 0.7938,-1.51868 0.7057,-2.19365 -0.441,-3.45922 -1.9406,-2.02491 -1.9406,-2.8686 0.7057,-8.52148 3.3517,-7.42465 4.9394,-14.51182 3.9692,-17.8023 -0.4411,-1.51867 -0.6175,-3.12173 -0.3528,-3.45921 0.2645,-0.42186 26.8145,-0.75934 59.0977,-0.75934
          h 58.5687
          v 5.8216
          c 0,5.5685 3.1754,16.62111 5.4687,19.06787 1.1467,1.26558 0.7938,4.80917 -0.6175,5.82161 -1.1466,0.84371 -0.5291,2.78425 4.8514,14.42746 3.44,7.42466 7.4093,15.69302 8.9087,18.47728 1.4996,2.69986 2.3816,5.14663 2.117,5.39974 -0.2646,0.25312 -1.9405,-0.84372 -3.7928,-2.44675 -3.7929,-3.45923 -7.1446,-4.97791 -10.7611,-4.97791 -2.999,0 -3.2637,-0.42185 -1.3232,-2.19365 2.8227,-2.69986 0.5293,-10.46201 -3.0871,-10.46201 -1.0585,0 -4.0574,2.78425 -4.5868,4.21855 -0.2646,0.84372 -1.1466,0.59059 -3.1753,-0.84371 -1.6759,-1.1812 -2.6462,-2.53112 -2.3816,-3.20609 0.2646,-0.59061 0.4411,-2.27804 0.4411,-3.71234 0,-2.53112 0.088,-2.6155 1.6759,-1.1812 2.2052,1.94055 4.5866,1.43431 5.9979,-1.09681 0.8822,-1.68743 0.7057,-2.61551 -0.6174,-5.14664 -1.6758,-3.20611 -3.6164,-4.21856 -8.2031,-4.21856 -9.7908,0 -14.6421,9.87142 -7.5856,15.60866
          l 2.7342,2.10926 -3.0871,3.29048
          c -1.676,1.77179 -3.1754,3.71233 -3.4401,4.38731 -0.2646,0.84369 -1.323,0.42185 -3.7046,-1.60306 -1.7641,-1.43431 -3.7929,-2.69987 -4.4986,-2.69987 -1.7641,0 -1.6757,-0.50623 0.6175,-3.62796 2.558,-3.45921 2.558,-7.5934 -0.088,-10.20891 -4.4986,-4.55604 -18.6115,-4.89352 -23.1982,-0.42185 -2.999,2.78424 -3.3518,7.34029 -0.882,9.44956 2.205,1.94054 6.6154,1.77181 8.5559,-0.2531 1.4995,-1.60306 1.5878,-1.60306 4.0575,0.92807 1.4113,1.43431 2.5579,2.86862 2.5579,3.2061 0,0.25311 -1.2348,1.85616 -2.6461,3.45921 -2.4698,2.69988 -2.7344,2.86863 -3.7929,1.51869 -1.8523,-2.27802 -5.2923,-3.20609 -7.762,-2.02491 -4.3221,2.02491 -2.558,7.42465 2.8226,8.52149 2.5579,0.59059 3.6164,2.10927 1.4111,2.10927 -1.9405,0 -8.4676,5.82161 -10.2318,9.02771
          l -1.5876,2.95298
          z

          m 5.0278,-6.41221 2.4698,-2.53113 -1.8523,-2.27803
          c -2.3816,-2.86861 -2.3816,-5.39975 0,-8.26836 0.9702,-1.26557 1.5876,-2.69988 1.3231,-3.29048 -0.3529,-0.59059 -1.1466,-1.94053 -1.8524,-3.12172 -0.7056,-1.1812 -1.3231,-3.12174 -1.3231,-4.30293 0,-2.86862 3.2636,-7.42467 6.7919,-9.44957 6.1744,-3.37484 19.2288,-2.53113 23.2863,1.60305 2.0288,2.02491 4.322,2.69988 4.322,1.26557 0,-1.51868 4.6749,-6.07472 7.8504,-7.67777
          l 3.1754,-1.60305
          h -2.6461
          c -1.4113,0 -6.4391,0.33748 -11.114,0.75933 -22.4042,2.10929 -42.5152,1.94055 -73.5635,-0.50621
          l -6.1744,-0.50623 4.2338,2.6155
          c 2.2934,1.4343 4.1457,2.86862 4.1457,3.20611 0,0.42186 0.7938,1.60305 1.6758,2.69987
          l 1.676,2.10927 2.7344,-2.27802
          c 7.9385,-6.32782 23.9919,-4.72477 28.6668,2.86863 1.9406,3.12173 1.7641,8.26836 -0.2646,10.88386 -1.6759,2.02491 -1.6759,2.10928 0,4.30293 2.0287,2.69988 2.117,5.73724 0.3528,8.01526 -1.7641,2.27802 -1.6758,3.71233 0.6174,5.99035 2.3817,2.44675 2.558,2.44675 5.4688,-0.50623
          z

          m -38.1048,-17.80231
          c -0.2647,-2.78424 -0.8822,-3.12172 -2.5579,-1.51867 -1.676,1.68742 -0.8822,4.30293 1.2347,3.88107 1.0585,-0.25312 1.4995,-1.01246 1.3232,-2.3624
          z

          m 73.4753,1.68743
          c 0.7056,-1.09684 -0.3528,-4.21856 -1.4113,-4.21856 -1.1466,0 -1.9405,2.27803 -1.323,3.79671 0.5291,1.4343 1.9405,1.68742 2.7343,0.42185
          z

          m 25.9325,-8.94334
          c -0.7939,-0.92808 -1.323,-1.01245 -2.0287,-0.33749 -0.7057,0.67497 -0.5293,1.26557 0.7938,2.19366 2.0287,1.43431 2.999,0.16873 1.2349,-1.85617
          z

          m -3.9693,-14.0056
          c 2.1169,-4.64041 0.3528,-6.15909 -3.6164,-3.2061 -1.2348,0.92808 -3.2636,1.68743 -4.5866,1.77179 -1.9406,0 -1.5878,0.33747 2.1168,2.0249 2.4698,1.09683 4.4986,2.02491 4.6749,2.02491 0.1765,0.0844 0.794,-1.09682 1.4113,-2.6155
          z

          m -113.4325,0.42186
          c 2.558,-0.5906 3.44,-1.94053 1.1467,-1.94053 -0.9703,0 -2.9108,-0.9281 -4.3222,-2.10929 -2.7343,-2.19364 -3.7045,-2.02491 -3.7045,0.59059 0,2.78425 1.7641,5.06227 3.3518,4.3873 0.7938,-0.2531 2.3816,-0.75934 3.5282,-0.92807
          z

          m 86.177,-3.79671
          c 24.0801,-1.85616 23.8155,-1.85616 23.4628,-3.20609 -0.1765,-0.67498 -1.1468,-4.3873 -2.117,-8.184
          l -1.8524,-7.00281
          h -51.8649 -51.865
          l -0.5292,2.3624
          c -0.2646,1.26555 -1.2349,4.55603 -2.2051,7.25591 -0.8822,2.78425 -1.6759,5.48413 -1.6759,5.99035 0,0.8437 20.64,2.78424 43.2207,4.13418 7.3211,0.42186 32.4598,-0.25311 45.426,-1.34994
          z

          m -32.6362,-22.18959
          c 40.2219,0 50.7184,0.25311 52.306,1.09683 2.3816,1.26555 3.2636,0.8437 2.558,-1.09683 -0.5293,-1.09684 -6.7036,-1.26557 -54.864,-1.26557 -53.9818,0 -54.2464,0 -54.2464,1.68742 0,1.60305 0.1763,1.60305 2.0286,0.67498 1.4996,-0.84372 12.8781,-1.09683 52.2178,-1.09683
          z

          m -22.8452,190.50995
          c -0.7939,-0.84371 -0.6175,-4.38731 0.3529,-6.24346 0.5291,-0.84371 3.0871,-2.86862 5.7333,-4.47167 2.5579,-1.60305 5.2041,-3.71233 5.7333,-4.64042 1.1468,-2.10927 2.6462,-2.27801 2.6462,-0.33748 0,0.75934 -2.7344,3.96545 -6.1743,7.25591 -3.3519,3.20611 -6.1745,6.32784 -6.1745,7.0028 0,1.26558 -1.323,2.19366 -2.1169,1.43432
          z

          m -25.4033,3.03736
          c -1.6759,-0.92809 -2.2051,-4.13418 -0.7055,-4.13418 0.5291,0 1.1466,0 1.4111,-0.0844 0.3529,0 1.4114,1.09681 2.2935,2.53113 1.6758,2.53113 1.6758,2.6155 0.088,2.6155 -0.8821,0 -2.2934,-0.42185 -3.0872,-0.92808
          z

          m 83.9718,2.10927
          c 0,-0.33748 1.3232,-1.94053 2.9991,-3.71232 4.5867,-4.89352 6.9682,-11.72758 7.0564,-20.24907 0,-7.50904 -1.4113,-12.06507 -5.6451,-17.8023 -2.1169,-2.78425 -4.1457,-2.53113 -2.4698,0.33749 1.4114,2.53113 2.3816,8.09962 1.4995,8.69022 -0.3528,0.16874 -1.7641,-1.68743 -2.9991,-4.13419 -1.323,-2.53112 -5.7332,-8.85896 -9.879,-14.17434 -9.4379,-12.23382 -11.643,-15.77739 -12.4369,-20.24907 -1.1467,-6.15909 -2.3816,-3.37484 -2.3816,5.14664 0,8.43711 1.4995,12.90879 5.9981,17.46482 0.9701,1.09682 1.4994,2.19364 1.1466,2.53113 -1.3231,1.26557 -12.9663,-11.47447 -15.7889,-17.29608 -2.5579,-5.23101 -2.8226,-6.32783 -2.8226,-14.08997 0.089,-8.35274 1.4995,-15.60866 3.0873,-15.60866 0.441,0 0.6174,2.27803 0.2647,5.48412 -0.3529,3.79671 -0.1765,5.82162 0.6173,6.7497 0.8821,1.01245 0.8821,1.51867 0,2.53112 -1.1467,1.26557 -0.6173,6.58095 1.0585,10.71515 1.1466,2.86861 2.4697,2.27802 2.4697,-1.09683 0,-2.86862 1.4114,-5.73725 3.4401,-7.25592 1.9405,-1.34993 3.9693,0.50622 7.1446,6.83406 1.8524,3.79671 14.1129,20.83967 17.2001,23.96139 0.6175,0.67497 6.6154,0.59059 6.6154,-0.0844 0,-0.33749 -3.3517,-3.88107 -7.4974,-7.76214 -8.2913,-7.84652 -10.1437,-11.55884 -3.7047,-7.34029 6.8801,4.55605 16.0535,14.68058 19.67,21.76775 3.0871,5.90597 3.4399,7.17153 3.3518,12.99314 0,4.80916 -0.5293,7.25593 -2.117,10.46202 -3.3518,6.58095 -15.8771,18.56164 -15.8771,15.18679
          z

          m -14.2892,24.13014
          c -3.6165,-3.54359 -2.9991,-6.83406 2.1169,-11.13698 2.1169,-1.77181 4.2338,-3.20611 4.7632,-3.20611 0.441,0 2.2051,1.26557 3.7927,2.86862 2.3816,2.3624 2.8227,3.37485 2.5579,6.07471 -0.1763,1.85617 -0.6173,3.12174 -1.1466,2.86863 -0.441,-0.25312 -0.7938,-0.75934 -0.6175,-1.1812 0.3529,-1.09682 -1.6758,-3.03735 -3.3518,-3.03735 -0.7937,0 -2.2051,0.75933 -3.0871,1.68741 -1.4995,1.51868 -1.4995,2.69987 0,6.15909 1.0585,2.3624 -2.0288,1.7718 -5.0277,-1.09682
          z

          m -2.0288,5.90598
          c -5.998,-2.86862 -7.9385,-3.37484 -12.6134,-3.37484 -3.0872,0 -6.439,0.42185 -7.4092,0.92808 -1.9406,1.01245 -4.7632,0.0844 -8.2032,-2.69988 -1.2349,-0.92807 -4.8513,-1.68742 -11.4668,-2.36239 -9.3498,-0.84372 -9.7908,-1.01245 -12.3488,-3.71233 -1.4112,-1.51868 -3.2635,-3.96545 -4.0575,-5.31538 -0.9701,-1.68742 -4.1455,-3.88107 -11.0256,-7.42465 -15.6124,-8.09963 -17.2002,-9.70268 -14.0247,-14.34309 0.7938,-1.09682 2.2051,-4.80916 3.1754,-8.18399 2.0286,-7.00281 3.8811,-9.53395 6.3507,-8.85897 1.1468,0.25311 2.3817,-0.25313 3.3519,-1.43432 3.2636,-3.7967 1.0585,-5.90597 -3.7047,-3.62795 -4.3219,2.10927 -9.7908,1.77179 -12.1723,-0.67498 -1.1467,-1.09682 -1.8523,-2.69987 -1.676,-3.62795 0.2647,-1.26556 0.9703,-1.43432 3.9694,-1.26556 2.3815,0.16874 5.2041,-0.33749 7.8502,-1.43431 2.2052,-1.01246 5.4688,-1.7718 7.0564,-1.7718 1.676,0 2.9991,-0.33748 2.9991,-0.84372 0,-0.42185 -0.3528,-0.84369 -0.7938,-0.84369 -3.0873,0 -0.9703,-7.84652 3.1753,-12.06507 2.0288,-1.94054 2.8226,-2.19366 5.3806,-1.7718 3.6164,0.67497 3.3518,-0.25311 -1.2349,-4.04981 -7.4975,-6.32783 -10.0554,-14.76495 -10.0554,-34.00156 0,-15.35553 -1.1467,-19.48972 -6.0863,-21.85211 -6.439,-3.2061 -17.1118,-0.42185 -23.3745,6.24346 -1.7641,1.94053 -3.3518,2.95298 -3.7046,2.44676 -1.2348,-1.94054 -0.3528,-12.74004 1.3232,-16.28363 6.5271,-13.75248 27.7847,-17.38044 44.632,-7.67776 4.322,2.53112 7.4974,3.79669 9.438,3.79669 7.5857,0 20.6402,6.15909 23.5509,11.13698 1.8523,3.12174 3.0872,2.953 6.3508,-0.50621 5.2041,-5.73724 16.1417,-9.70268 26.4618,-9.78706 3.0871,0 4.4984,-0.50622 5.9979,-2.0249 3.0872,-3.12174 11.2022,-6.49657 17.2883,-7.17155 16.5827,-1.77179 26.9028,4.9779 26.9028,17.63357 0,2.61551 -0.2646,5.06226 -0.6175,5.31538 -0.2645,0.33749 -1.7641,-0.16875 -3.2636,-1.01246 -6.3507,-3.62795 -14.2011,-2.78425 -19.1406,2.10928 -2.8226,2.78425 -2.999,3.29047 -2.999,9.02771 0,5.90597 0.1764,6.24346 4.5868,12.8244 6.7035,9.87143 7.5856,12.40255 7.0564,19.15225 -0.3529,4.04981 -0.1764,5.90597 0.6174,6.49657 0.7057,0.50623 2.2933,3.29048 3.7047,6.24346 3.44,7.42466 3.5281,16.53674 0.088,23.70829 -1.323,2.69987 -2.2051,5.14663 -2.0286,5.39974 0.2646,0.16875 1.3231,-0.25311 2.4697,-1.01245 1.0585,-0.75933 2.2933,-1.34993 2.6462,-1.34993 0.882,0 -4.5868,11.05261 -6.5273,13.16188 -2.0287,2.19366 -2.0287,2.86863 0.1764,2.86863 2.2934,0 2.2052,1.01246 -0.089,2.36239 -2.8226,1.77178 -5.0277,7.50903 -5.6452,15.27117 -0.5292,7.25591 -1.6758,10.37764 -4.4984,12.90877 -2.117,1.7718 -9.438,4.55605 -14.2012,5.31539 -2.8225,0.42185 -4.2339,1.26556 -6.0861,3.62794 -3.3519,4.30293 -7.4094,7.76215 -9.0852,7.76215 -0.794,-0.0844 -4.5867,-1.60305 -8.4678,-3.37484
          z

          m 12.0842,-2.27802
          c 3.7047,-3.88107 6.8801,-8.77459 6.8801,-10.88388 0,-2.27801 -4.5868,-7.5934 -7.1447,-8.35272 -2.2934,-0.75936 -2.117,-2.10929 0.3529,-2.10929 6.7918,0 19.758,-10.29328 25.0503,-19.82721 6.1744,-11.22135 6.88,-19.74284 2.4698,-28.9393 -3.881,-8.18399 -9.8791,-12.57128 -27.5201,-20.08031 -3.4401,-1.51869 -3.5284,-1.68742 -1.8524,-2.53114 1.7641,-0.92808 1.7641,-1.09682 -1.7641,-3.29047 -6.7036,-4.21856 -9.7908,-10.96823 -8.6442,-18.56164 0.7057,-4.13419 4.1457,-8.85896 6.6154,-8.85896 1.235,0 1.7642,-1.26558 2.6462,-5.65287 1.6759,-8.69023 5.6452,-15.86177 12.1724,-21.93648 3.0872,-2.95299 5.2042,-5.31538 4.7631,-5.31538 -0.441,0 -3.1754,1.51867 -6.0861,3.37483 -2.9109,1.85617 -5.9099,3.37484 -6.7037,3.37484 -1.0585,0 -1.2349,0.59061 -0.882,2.3624 0.441,2.10927 -0.2646,2.95299 -6.0862,8.01526 -8.0268,6.83406 -12.2607,12.74004 -15.7888,21.93648 -3.7047,9.87143 -4.4103,10.54639 -3.9694,3.7967 0.7939,-10.88388 11.2904,-25.90193 21.6987,-30.96419 8.7324,-4.30293 -1.0585,-3.62796 -11.8197,0.75933 -5.0277,2.02491 -12.1723,8.52148 -15.7888,14.25872 -7.1445,11.22136 -8.7323,27.92684 -3.7046,38.47323 1.235,2.69987 2.117,5.06226 1.9406,5.23101 -0.6175,0.59059 -6.7037,-2.19365 -10.6729,-4.89353 -7.9386,-5.48413 -13.4955,-16.62111 -13.9366,-27.75809 -0.088,-4.3873 0.1765,-6.15909 1.0585,-6.66531 1.9406,-1.18121 0.6175,-9.3652 -2.558,-15.94615 -1.4994,-3.12173 -2.5579,-6.58095 -2.4698,-7.67777 0.1765,-1.68743 -0.441,-2.44676 -3.2635,-3.96545 -3.5282,-1.94053 -3.5282,-1.94053 -4.1456,-0.2531 -0.5293,1.26555 0,2.69987 1.9405,5.31537 2.7343,3.62797 5.2041,12.40255 5.2923,18.47728 0,1.68742 0.3528,3.12172 0.7938,3.12172 0.3529,0 0.7057,5.23101 0.6175,11.64322 -0.089,10.88387 0.088,11.81196 2.2933,16.45237 3.7929,7.67777 9.7026,12.48692 22.6689,18.3929 23.5509,10.7995 27.6084,12.99314 32.7243,17.38045 5.9979,5.231 8.8206,11.05261 8.8206,18.22415 -0.088,9.3652 -8.2913,17.97105 -19.5816,20.4178 -6.1744,1.34995 -10.5847,1.60306 -11.555,0.75935 -0.6175,-0.67497 6.88,-6.83406 12.1724,-9.95579 14.0246,-8.26837 13.7601,-22.86457 -0.5293,-31.72353 -2.7343,-1.68743 -11.2021,-5.8216 -18.9642,-9.11208 -23.1981,-10.12453 -30.6956,-16.19926 -32.9889,-26.57689 -0.5293,-2.61551 -0.882,-11.30574 -0.7057,-20.50218 0.088,-10.96825 -0.1763,-17.12734 -0.9703,-19.65848 -1.323,-4.3873 -6.0861,-9.3652 -8.9087,-9.3652 -2.9991,0 -1.5877,-2.10926 1.5877,-2.36238 3.9692,-0.42185 3.5282,-1.68742 -1.3231,-3.7967 -5.6452,-2.44677 -16.8472,-2.6155 -21.434,-0.25311 -3.8811,1.94053 -7.762,5.31538 -9.2616,8.184 -1.6759,3.12172 -0.9703,3.37484 3.6164,1.51867 4.6749,-2.02491 11.3786,-2.86862 15.7889,-2.10927 4.4102,0.8437 9.7026,5.56849 11.4667,10.46201 0.9703,2.61551 1.7642,8.69022 2.2052,18.1398 1.6759,30.0361 6.439,36.02645 40.31,50.62266 14.5539,6.32782 19.1406,9.36518 21.5222,14.42745 3.1753,6.58095 1.5877,15.69303 -3.0872,18.73039 -3.0873,1.85616 -3.7046,1.01245 -1.9405,-2.6155 1.5876,-3.12175 1.5876,-6.91844 0.088,-6.58095 -0.441,0.0844 -0.9702,0.92808 -1.1466,1.94053 -0.5293,2.86862 -1.8523,1.01246 -2.4698,-3.45922 -0.6174,-4.13418 -1.9406,-5.8216 -7.0565,-8.94334 -1.4995,-0.8437 -1.2347,-1.01244 1.8523,-1.01244 1.9406,-0.0844 4.6749,0.50623 6.0863,1.18119 3.3518,1.68743 3.7928,1.09683 1.3231,-2.10927 -2.4698,-3.12174 -3.4401,-3.37485 -13.5838,-3.62797 -10.1436,-0.25311 -16.6708,-2.95299 -20.8164,-8.69022 -2.8227,-3.96544 -6.9684,-7.0028 -12.4371,-9.11208 -2.9107,-1.18119 -3.3517,-1.18119 -5.3806,0.33749 -1.1466,0.92808 -2.8225,3.03736 -3.7045,4.72478 -1.4995,3.03736 -1.4995,3.20609 0.089,4.30292 0.8821,0.5906 2.4697,1.09684 3.6164,1.09684 1.1467,0 3.9692,1.68741 6.7919,4.21855 6.0862,5.231 9.1734,6.74969 13.6719,6.74969 1.9405,0 3.7928,0.42185 4.1457,1.01245 0.7938,1.1812 -15.9653,16.70547 -17.994,16.70547 -0.7057,0 -2.5579,-0.92808 -4.0575,-1.94053 -1.5877,-1.18119 -4.6749,-2.27802 -7.1446,-2.53114 -2.3816,-0.33748 -5.4688,-1.34993 -6.7919,-2.27801 -1.3231,-0.92808 -2.7343,-1.68743 -3.1754,-1.68743 -0.441,0 -1.3232,1.7718 -1.8523,3.88107 -0.9703,3.62796 -0.8821,4.13419 1.1466,7.08718 2.7345,4.04981 1.9405,5.8216 -1.9404,3.88107 -3.5283,-1.7718 -3.7047,-1.68742 -3.7047,0.5906 0,1.68742 1.7641,2.86861 11.3785,7.59339 11.8196,5.82161 13.3191,6.41222 13.3191,4.64042 0.089,-0.59059 0.8821,-2.02491 1.7642,-3.12174 1.9404,-2.10927 1.1466,-2.19364 11.7313,0.50624 2.2051,0.50623 1.8522,1.94053 -0.441,1.94053 -1.8524,0.0844 -1.8524,0.16873 -0.4411,0.92807 2.2052,1.26557 1.8523,2.69989 -0.6174,2.10929 -2.7344,-0.67497 -4.6749,1.34994 -2.8227,2.78424 0.7057,0.5906 2.117,0.84372 3.1755,0.50624 1.2348,-0.3375 1.7641,-0.16875 1.7641,0.75933 0,1.85617 -4.5867,2.44676 -8.7323,1.09683 -3.9693,-1.34995 -5.0278,-0.33749 -2.0288,2.10927 2.1169,1.85617 4.5868,2.19365 16.5827,2.86862 13.4073,0.67497 17.8175,-0.42186 27.1673,-6.83405 6.2626,-4.21855 9.4381,-5.65287 9.2616,-3.96545 0,0.33749 -1.9405,2.02491 -4.3221,3.7967 -6.7918,4.89352 -6.88,9.53393 -0.2646,13.49937 7.3211,4.38731 11.3786,4.89353 14.554,1.68743
          z

          m -23.11,-6.24346
          c 0,-0.84371 -1.8522,-1.01245 -3.8809,-0.25311 -2.3816,0.8437 -1.5877,1.77178 1.2348,1.34993 1.4995,-0.16874 2.6461,-0.67496 2.6461,-1.09682
          z

          m 38.6342,-5.73723
          c 1.764,-0.84372 3.9693,-2.27803 4.7631,-3.12174 1.6759,-1.7718 10.4083,-23.03331 11.0257,-26.91438 0.4411,-2.3624 -0.882,-0.75935 -9.879,12.31818 -0.1765,0.25312 0.882,0.25312 2.4697,0.0844 2.7344,-0.33749 2.6462,-0.25312 -3.3517,5.48413 -3.3519,3.29045 -6.7919,6.24346 -7.5858,6.6653 -1.5876,0.84372 -2.999,7.08718 -1.5876,7.08718 0.441,0 2.2933,-0.75934 4.1456,-1.60305
          z

          m -75.3277,-7.00281
          c 0.441,-0.75934 0.7057,-1.68742 0.441,-1.94053 -0.882,-0.75934 -2.9989,0.33748 -4.1457,2.19364 -1.0583,1.60305 -0.9702,1.68743 0.794,1.43431 1.0585,-0.16874 2.3815,-0.92808 2.9107,-1.68742
          z

          m 70.0354,-0.67496
          c 0.6174,-0.92809 0.882,-1.68743 0.5292,-1.68743 -1.1467,0 -3.881,1.77179 -3.881,2.53112 0,1.43432 2.2051,0.9281 3.3518,-0.84369
          z

          m -15.7889,-10.96825
          c 4.7631,-3.29048 7.1447,-7.17155 7.1447,-11.3901
          l -0.088,-3.37485 -2.117,4.13418
          c -1.1466,2.27803 -4.1456,6.1591 -6.7036,8.60586 -5.2041,5.06227 -4.2339,6.15909 1.7641,2.02491
          z

          m -51.6885,-18.47728
          c 5.3806,-4.97789 5.3806,-5.06226 3.0872,-5.56849 -1.6759,-0.42185 -3.0872,-0.0844 -5.116,1.43431 -2.0287,1.43431 -4.0574,1.94053 -7.321,2.02491 -3.8811,0 -4.5867,0.33748 -4.8514,1.68743 -0.1763,1.26555 0.794,2.19364 3.5282,3.54357 2.117,1.01246 4.1458,1.85617 4.4986,1.85617 0.4411,0 3.2637,-2.27803 6.1744,-4.9779
          z

          m 93.2334,-3.71232
          c 0,-2.78425 -2.0287,-1.01245 -3.1753,2.86862 -0.7056,2.0249 -1.235,4.13418 -1.235,4.55603 0.088,1.51868 4.4103,-5.90598 4.4103,-7.42465
          z

          m -110.6981,1.94053
          c 0,-3.62796 -2.0287,-3.96544 -3.9693,-0.59059 -1.1466,2.02489 -1.1466,2.44675 0,3.12172 2.4698,1.51867 3.9693,0.5906 3.9693,-2.53113
          z

          m 60.7737,2.69988
          c 0.7938,-1.26558 -0.5292,-4.3873 -1.7641,-4.3873 -1.3231,0 -1.5877,1.51868 -0.7056,3.71233 0.6174,1.4343 1.7641,1.77179 2.4697,0.67497
          z

          m -46.2197,-7.25591
          c 0,-0.59061 -0.8821,-1.34995 -1.9406,-1.60305 -4.8513,-1.09683 -8.5559,-2.95299 -10.5847,-5.23102 -1.8523,-2.0249 -2.9108,-2.44676 -5.6452,-2.36239 -1.9405,0.0844 -4.9394,0.75933 -6.7036,1.43431 -1.8522,0.75934 -4.7631,1.34993 -6.5272,1.34993 -2.1169,0 -2.999,0.33749 -2.7344,1.09683 0.3529,1.09684 4.5867,1.18119 11.7314,0.16875 4.4102,-0.59061 4.6749,-0.50623 9.1734,2.86862 3.9692,2.95298 5.1159,3.45921 8.9087,3.45921 3.0872,0 4.3222,-0.33748 4.3222,-1.18119
          z

          m 96.8497,-8.85897
          c 2.2935,-7.17154 0.7057,-17.88668 -3.3517,-22.86458
          l -1.7642,-2.10927
          v 3.03736
          c 0,4.04981 -2.5579,6.41221 -5.4687,4.97789 -1.1467,-0.59059 -2.7344,-1.60305 -3.5283,-2.36238 -1.0584,-0.84372 -1.5876,-0.92809 -1.5876,-0.33749 0,0.5906 0.441,1.01245 0.882,1.01245 1.9406,0 8.9088,10.46203 10.6729,16.11488 1.0585,3.20611 2.117,5.82161 2.4698,5.82161 0.3528,0 1.1467,-1.43431 1.6758,-3.29047
          z

          m -104.4355,1.94054
          c 2.6462,-1.01246 1.0585,-3.71234 -2.2051,-3.71234 -0.8821,0 -1.0585,2.78425 -0.1765,3.62796 0.7057,0.67497 0.7057,0.67497 2.3816,0.0844
          z

          m 29.1962,-5.14664
          c -2.3816,-1.1812 -5.8216,-2.78425 -7.4975,-3.45922
          l -3.0874,-1.1812 1.7642,1.85617
          c 2.2052,2.36239 8.0267,5.06226 11.0258,4.97789 1.7641,0 1.4113,-0.42186 -2.2051,-2.19364
          z

          m 67.4773,-17.97105
          c -1.1466,-3.7967 -3.9693,-7.34028 -12.437,-15.18681 -8.6442,-8.09962 -9.7909,-10.71512 -8.7324,-19.8272 0.3528,-2.78425 0.441,-6.15909 0.1765,-7.50902 -0.6175,-3.29049 1.323,-2.19366 2.9989,1.68741 1.7642,3.96544 2.999,3.62796 2.999,-0.75933 0,-4.64042 4.4102,-13.415 7.9385,-15.7774 6.1744,-4.21855 14.7304,-5.56849 20.3755,-3.37484 1.4114,0.59059 2.8226,0.84372 3.0872,0.59059 0.7057,-0.67497 -1.8523,-4.9779 -4.2339,-7.00281 -8.7323,-7.67776 -27.6083,-1.85615 -35.3705,10.88388 -5.8215,9.53393 -7.8502,25.64882 -4.1456,33.41096 0.9703,2.02491 1.5876,3.88107 1.4113,4.04981 -1.5878,1.51869 -6.6154,-6.83406 -8.0267,-13.1619
          l -1.0585,-4.72477 -1.0584,2.53113
          c -1.676,3.96544 -2.2051,10.04017 -1.0585,13.33064 1.4995,4.21856 5.8215,7.59339 13.4073,10.29327 10.8493,3.79671 15.9652,6.41221 19.6699,10.12453 4.0574,3.96545 5.1159,4.04982 4.0574,0.42186
          z

          m 2.2934,-11.64321 -0.089,-7.42466 -5.0278,-8.01526
          c -2.8226,-4.38729 -5.4687,-9.28081 -6.0861,-10.88386 -0.5293,-1.60305 -1.1467,-3.5436 -1.3232,-4.21857 -0.2646,-0.75933 -1.0584,0.0844 -2.1169,2.27803 -0.8821,1.85616 -2.4697,3.71232 -3.44,4.0498 -1.5877,0.42186 -1.8523,1.1812 -1.8523,4.72479 0,2.36239 0.441,5.06227 0.9702,6.07472 0.6174,1.01245 4.9395,5.73724 9.7027,10.46203 4.8513,4.72477 8.7324,9.02769 8.7324,9.44955 0,0.50623 0.088,0.92808 0.2645,0.92808 0.1765,0 0.2647,-3.37484 0.2647,-7.42465
          z

          m -72.3287,0.0844
          c -0.2646,-0.25311 -1.1467,-0.25311 -1.9406,0.0844 -1.323,0.50622 -1.323,0.67497 0.1765,2.27802
          l 1.6759,1.77179 0.2646,-1.85617
          c 0.1765,-1.01244 0.089,-2.0249 -0.1764,-2.27801
          z

          m -2.0288,-5.48411
          c -0.2646,-2.19366 0.5292,-7.93089 1.8523,-14.17436 3.5283,-16.03051 2.999,-20.33343 -3.0871,-25.9863 -2.8227,-2.6155 -14.3776,-6.83405 -15.6124,-5.73722 -0.2647,0.2531 0.3527,1.34993 1.4112,2.44675 3.0873,3.12173 5.2924,9.02771 6.3508,17.04297 0.5292,4.21855 1.3231,10.29327 1.7642,13.66811 1.4113,10.04016 8.3794,22.27398 7.321,12.74005
          z

          m 10.9375,-32.48288
          c 1.1467,-1.60305 0.9703,-1.85617 -1.6758,-3.45921 -1.5879,-1.01246 -2.9109,-1.68742 -3.0873,-1.60306 -0.088,0.16875 0.2647,1.85615 0.7938,3.7967 0.9704,3.7967 2.0288,4.13418 3.9693,1.26557
          z" />
  </g>
</svg>
