<svg role="img" viewBox="0 0 24 24" xmlns="http://www.w3.org/2000/svg"><title>Ritz Carlton</title><path d="M16.457 22.024c-.138.139-.13.287.034.416.114.096.158.086.306-.06.164-.165.164-.182.033-.32-.173-.165-.234-.174-.373-.036zm-9.126.018c-.079.095-.079.164.01.303.059.103.147.181.197.181.053 0 .14-.078.2-.181.122-.19.018-.424-.2-.424a.313.327 0 0 0-.206.12zm6.078-.087c-.079.095-.087.173-.009.303.113.226.191.226.374.026.112-.121.112-.172.026-.303-.138-.182-.261-.19-.391-.026zm-3.03-.017c-.138.139-.131.285.034.416.191.164.469-.105.33-.32-.121-.192-.234-.226-.364-.096zm3.803-.39c-.035.564-.035 1.091 0 1.109.026.017.453.043.955.051l.911.027-.008-.563-.01-.554-.38-.062c-.53-.078-1.467-.086-1.467-.008zm1.146.347c.2.182.2.25-.017.475-.165.183-.174.183-.348.027-.2-.174-.226-.39-.069-.546.138-.139.243-.13.434.043zm-4.125-.355c-.035.033-.06.328-.06.657v.598l.929-.025.928-.027v-1.212l-.868-.026c-.477-.01-.894 0-.928.035zm1.102.371c.148.165.148.183-.008.39-.2.278-.208.278-.46.009-.2-.208-.2-.216-.044-.39.2-.216.322-.216.512-.009zm-3.42-.346-.738.052v1.126H9.97v-.606c0-.702.096-.65-1.086-.572zm.364.329c.2.183.2.251-.017.486l-.173.181-.217-.215-.217-.218.173-.19c.216-.226.243-.234.452-.043zm2.562-5.666a2.373 2.475 0 0 1-.677.684c-.433.278-.443.278-.209.347.305.078.652.399.652.598 0 .39-.643.493-1.007.156-.209-.19-.227-.2-.306-.051a2.532 2.641 0 0 1-.267.32l-.191.173.26.277c.138.156.26.303.277.32.01.026.096-.043.191-.147.243-.26.72-.26.904 0 .217.303.164.58-.138.884-.435.433-1.417.511-2.094.164-.452-.225-.522-.891-.138-1.29l.181-.19-.285-.149a2.693 2.809 0 0 1-.478-.32c-.183-.164-.183-.164-.34.078a2.288 2.387 0 0 1-.363.408l-.21.156.304.285c.261.234.313.338.313.641 0 .642-.382.962-1.147.962-.26 0-.398-.061-.598-.251-.286-.286-.313-.485-.114-.77.158-.227.27-.244.47-.062.139.121.157.103.208-.226.052-.32.035-.398-.157-.571-.277-.252-.364-.252-.433.01-.06.25-.322.354-.565.224-.243-.121-.33-.624-.148-.883.2-.277.175-.33-.12-.33-.348 0-.774-.216-1.017-.503-.226-.268-.364-.2-.183.087.079.113.418.84.756 1.629.339.789.67 1.516.72 1.62.08.157.07.225-.042.356-.191.207-.191.294.068.875.33.762.487 1.489.391 1.828-.043.156-.059.32-.034.355.026.043 2.64.078 5.818.078h5.766v-.598c0-.572.312-1.706.539-1.958.112-.13.078-.494-.061-.598-.114-.087-.052-.286.477-1.481.339-.763.729-1.613.876-1.898.148-.277.236-.528.21-.555-.027-.025-.192.088-.374.252-.374.355-.703.511-1.06.511-.295 0-.32.043-.13.225.278.277.053 1.074-.304 1.074-.104 0-.4-.285-.451-.433-.026-.086-.113-.06-.312.087-.166.121-.261.26-.235.329.026.061.044.234.044.382 0 .26.008.268.164.121.217-.2.452-.148.59.113.087.173.07.267-.06.528-.165.328-.356.433-.808.433-.963 0-1.44-1.013-.746-1.603l.269-.215-.304-.34c-.165-.181-.312-.38-.339-.45-.026-.086-.13-.043-.364.164-.175.148-.374.277-.443.277-.175 0-.166.053.06.373.252.355.252.78-.009 1.049-.442.468-1.831.503-2.283.044-.295-.287-.33-.754-.087-.97.217-.2.651-.183.842.025.148.164.158.164.4-.095.139-.147.252-.295.252-.33 0-.026-.122-.19-.261-.354-.243-.278-.269-.295-.373-.156-.182.233-.522.328-.764.207-.425-.207-.252-.762.277-.875.252-.06.357-.217.14-.217-.192 0-.835-.597-1.008-.927l-.156-.303Zm.495.658.243.26-.182.235c-.235.294-.235.554 0 .849.096.13.156.277.13.338l-.182.32a.991 1.034 0 0 0-.13.442c0 .294.321.763.669.97.607.347 1.892.26 2.292-.164.2-.209.425-.278.425-.13 0 .155.46.624.773.788l.313.164h-.261a18.804 19.614 0 0 1-1.093-.078c-2.205-.215-4.187-.199-7.244.053l-.607.051.416-.267c.227-.148.409-.296.409-.33 0-.044.079-.165.165-.278l.165-.216.27.233c.78.65 2.362.486 2.82-.294.192-.32.175-.848-.025-1.118-.165-.207-.165-.215 0-.441.2-.277.209-.59.035-.824-.174-.234-.165-.38.06-.615.235-.25.253-.25.54.052zm-3.75 1.828c-.027.286-.088.32-.253.157-.165-.174-.087-.442.121-.399.105.026.148.104.13.242zm7.232-.173c.07.113-.034.433-.137.433-.115 0-.192-.234-.132-.39.052-.147.19-.172.27-.043zm2.553.919c-.079.096-.13.103-.2.034-.069-.069-.052-.13.08-.225.198-.147.294-.017.12.191zm-.39 1.438c.208.476.034.632-.356.328a.983 1.025 0 0 0-.453-.18c-.19 0-.155-.035.21-.209.243-.113.443-.207.46-.207.017-.01.078.113.138.268zm-11.167-.043c.252.061.339.199.114.199-.096 0-.286.095-.427.216-.268.226-.364.208-.364-.06 0-.286.173-.52.33-.45.079.026.234.077.347.095zm8.485.39c2.37.19 2.344.19 2.31.328-.019.07-.114.452-.21.841l-.182.72H6.974l-.052-.243a7.153 7.462 0 0 0-.216-.746c-.088-.285-.166-.562-.166-.615 0-.086 2.032-.285 4.255-.424.72-.043 3.196.026 4.473.139zm-3.214 2.279c3.96 0 4.994-.027 5.15-.113.234-.13.321-.087.251.113-.052.112-.66.129-5.4.129-5.315 0-5.342 0-5.342-.174 0-.164.018-.164.2-.068.148.086 1.268.113 5.141.113zM9.805 3.96c-.078.086-.06.45.035.64.052.087.303.295.564.46.252.164.512.382.564.476.114.217.261.234.261.035 0-.078-.268-.407-.607-.746-.33-.328-.609-.649-.609-.718 0-.13-.13-.226-.208-.147zm-2.5-.312c-.165.095-.217.424-.07.424.052 0 .112 0 .138.009.036 0 .14-.113.227-.26.165-.26.165-.269.01-.269a.678.708 0 0 0-.306.096Zm8.266-.217c0 .035.13.2.295.38.453.504.686 1.205.695 2.08 0 .772-.138 1.24-.556 1.828-.207.287-.408.261-.243-.034.14-.26.236-.831.147-.893-.034-.016-.173.175-.295.425-.13.26-.564.91-.973 1.456-.928 1.256-1.145 1.62-1.223 2.079-.113.632-.235.347-.235-.528 0-.867.148-1.326.591-1.794.095-.113.148-.226.112-.26-.13-.13-1.276 1.179-1.554 1.777-.252.537-.278.65-.278 1.447.01.857.148 1.602.305 1.602.043 0 .06-.234.025-.563-.034-.39-.018-.598.061-.693.087-.104.087-.156 0-.26-.113-.13-.06-.676.104-1.1.113-.295.244-.234.244.113 0 .294.137.588.338.745.191.138.391-.052.703-.702.182-.39 1.39-2.14 1.694-2.461.06-.07.651-.061.651.009 0 .035-.33.398-.738.797-.817.806-.998 1.187-.364.754.676-.469 1.58-1.508 1.935-2.236.305-.606.339-.736.33-1.335 0-.493-.051-.745-.208-1.073-.33-.676-1.563-1.906-1.563-1.56ZM14.164.953c-.354.364-.295.701.209 1.144.208.182.416.329.468.329.044 0 .217-.13.374-.294.235-.244.278-.347.251-.624-.016-.191-.059-.32-.112-.295-.043.026-.079.078-.06.121.034.113-.165.312-.33.312-.08 0-.217-.078-.305-.173-.147-.156-.147-.278 0-.633.105-.242-.2-.182-.495.113Zm-.199-.606c-.59.294-.782.346-1.242.346-.304 0-.634-.043-.729-.095-.192-.104-.47-.009-.807.277-.123.095-.479.173-1.13.242-.92.088-.964.105-1.216.382a3.765 3.927 0 0 0-.399.546c-.095.173-.408.398-1.086.763-1.535.831-1.693.996-1.38 1.472.079.113.217.493.312.84.2.719.382.98.625.91.114-.026.235.027.33.148.322.39.104.606-.364.372-.425-.216-.965-.182-1.198.07-.113.112-.183.277-.166.372.027.13.096.147.391.13.235-.018.512.035.773.148.217.102.539.181.695.181.164 0 .295.035.295.087 0 .043-.035.087-.078.087-.304 0-.096.805.313 1.238.2.2.277.226.53.182.355-.069.33.027-.123.416-.738.65-.99 1.517-.99 3.491 0 1.578-.112 2.003-.599 2.245-.634.329-1.683.043-2.3-.642-.175-.199-.33-.302-.365-.25-.122.2-.035 1.308.13 1.672.642 1.412 2.735 1.785 4.394.788.425-.26.738-.39.93-.39.746 0 2.031-.632 2.318-1.144.182-.32.303-.303.625.053.512.589 1.589.996 2.605 1.005.305 0 .443.051.59.207.304.32 1.103.668 1.703.737 1.632.182 2.648-.51 2.648-1.81 0-.27-.027-.52-.061-.547-.026-.034-.173.017-.321.105-.625.372-1.398.285-1.884-.217-.279-.287-.296-.339-.296-.927 0-.606.017-.641.451-1.317.66-1.014.747-1.273.695-1.967-.034-.416-.017-.606.061-.668.07-.051.227-.337.365-.64.338-.763.347-1.698.01-2.435-.132-.277-.218-.528-.201-.554.026-.017.13.026.243.103.104.079.226.14.26.14.087 0-.451-1.135-.642-1.352-.2-.226-.2-.295.017-.295.226 0 .217-.104-.01-.242-.276-.183-.494-.771-.555-1.57-.052-.744-.164-1.064-.443-1.324-.207-.183-.928-.468-1.398-.546-.277-.043-.416-.13-.598-.373-.33-.442-.729-.797-.895-.797-.079.008-.45.164-.834.346Zm1.19.233c.364.399.677.902.677 1.119 0 .233-.452.779-.703.857-.227.078-.209.216.034.216.67 0 1.946 1.057 2.466 2.037.608 1.152.678 2.027.244 2.972-.382.84-.973 1.29-2.71 2.062-.338.155-.347.172-.182.26.173.094.173.113-.174.338-.66.433-.964 1.126-.85 1.906.068.424.407.91.65.91.122 0 .174.129.26.58a3.85 4.015 0 0 0 1.199 2.253c.305.303.512.545.469.545-.044 0-.312-.156-.599-.346-.285-.191-.58-.347-.66-.347-.104 0-.122-.06-.087-.243.043-.216-.026-.302-.599-.822-.79-.703-1.207-1.308-1.555-2.253-.364-1.014-.433-1.084-.39-.39.079 1.118 1.112 2.66 2.136 3.18.86.442-.104.372-1.163-.078-.496-.209-1.2-.875-1.556-1.464-.703-1.153-.858-2.869-.364-3.952.122-.277.209-.52.19-.537-.058-.06-.659.226-1.05.503-.781.563-1.329 1.707-1.372 2.85-.008.45.018.633.104.685.191.12.061.962-.25 1.638-.148.32-.253.675-.244.787.017.175-.044.252-.322.408-.347.2-.347.2-.407.026-.052-.13 0-.278.19-.546.27-.372.513-1.273.522-1.897 0-.174.034-.32.08-.32.033 0 .068-.538.058-1.196-.009-1.118.01-1.214.227-1.69.374-.788.955-1.282 2.23-1.889 2.319-1.109 2.719-1.335 3.223-1.785.59-.537.868-1.134.868-1.87-.01-.963-.817-1.846-1.928-2.098-.608-.138-1.042-.164-1.138-.078-.06.07.678.702 1.199 1.022 1.38.85 1.354 2.349-.053 3.258-.268.174-1.102.598-1.866.936-2.284 1.04-3.023 1.664-3.248 2.73-.052.268-.087 1.16-.069 2.105.008 1.126-.018 1.759-.095 2.019-.131.45-.601.96-.877.96-.295 0-.157.217.155.244.39.043.347.173-.13.39-.555.251-1.659.267-2.11.026-.382-.2-.765-.546-.911-.84-.166-.321-.096-.347.355-.157.46.208 1.12.295 1.556.217.433-.087.954-.572 1.128-1.075.095-.269.173-.893.216-1.862.166-3.085.634-3.7 3.969-5.199 1.433-.65 1.884-.962 2.118-1.481.313-.676.158-1.613-.303-1.924-.304-.19-.364-.104-.19.268.155.322.155.71.009.677-.045-.01-.097-.096-.114-.2-.052-.294-.182-.104-.243.355-.061.425-.191.599-.695.92-.148.085-.122.103.182.103.19.008.46-.052.6-.121.329-.174.374-.113.13.215-.244.322-.34.347-1.338.374-.998.026-1.64.303-2.05.892-.277.407-.685.72-1.223.935-.286.122-.33.122-.53-.034a1.755 1.831 0 0 1-.364-.485c-.148-.312-.148-.33.008-.441a.742.774 0 0 1 .356-.113c.112 0 .391-.175.67-.434.597-.537.901-.693 1.344-.693.191 0 .375-.043.409-.103.079-.122-1.572-1.716-1.772-1.716-.069 0-.252.095-.4.199-.155.121-.46.234-.703.26-.234.035-.538.138-.67.234-.127.095-.268.173-.311.173-.043 0-.13-.181-.182-.398-.096-.373-.087-.425.113-.73.269-.414.19-.596-.191-.397-.348.182-.364.174-.364-.061 0-.173.173-.294 1.119-.78 1.164-.597 1.311-.657 1.311-.476.01.061.087.208.174.321.19.216.113.225 1.155-.052.217-.051.183-.2-.044-.2-.182-.009-.182-.017-.043-.095.216-.13.183-.277-.06-.217-.27.07-.461-.138-.279-.285a.366.382 0 0 1 .313-.052c.121.035.173.017.173-.078 0-.19-.45-.252-.859-.113-.39.138-.495.035-.2-.216.209-.191.453-.226 1.632-.295 1.32-.07 1.755.043 2.675.702.617.433.93.58.912.407 0-.035-.191-.208-.425-.39-.67-.503-.678-.979-.026-1.386.72-.451 1.12-.503 1.432-.174zm-2.275.642c0 .086-.183.103-.383.026-.234-.087-.156-.182.121-.139.148.018.261.069.261.113zm3.802.588c.175.088.391.235.47.322.164.182 1.024 2.365 1.085 2.762.043.244-.087.08-.973-1.263-.017-.027.088-.027.243-.01.27.035.261.027-.33-.563-.33-.338-.669-.64-.747-.684-.155-.087-.295-.729-.155-.729.043 0 .226.078.407.164zm-7.415.72c.044.078.07.174.044.2-.087.078-.296-.035-.409-.226-.104-.165-.096-.173.079-.147a.492.513 0 0 1 .285.173Zm6.895.07c.06.095.086.173.052.173-.114 0-.382-.182-.382-.26 0-.148.216-.096.33.086zm-1.555 1.126c.47.337.704.736.704 1.17l-.01.345-.207-.424c-.113-.234-.408-.632-.66-.883-.511-.52-.418-.633.173-.208ZM9.519 5.623c.53.51.53.52.305.572-.165.044-.305.009-.504-.148-.2-.146-.4-.199-.721-.207-.382 0-.451-.035-.478-.175-.016-.129.079-.223.348-.362.209-.105.408-.191.443-.191.043 0 .32.234.607.511zm9.18.38c0 .288-.2.105-.314-.293a2.585 2.697 0 0 1-.12-.469c.008-.155.433.607.433.763zM7.8 5.806c0 .373-.2.407-.391.06-.114-.208-.114-.25 0-.32.243-.156.39-.061.39.26Zm5.982-.277c.079.13-.052.45-.173.45-.13 0-.157-.155-.07-.381.06-.147.174-.182.243-.07zm-4.55.744c0 .062-.087.14-.191.165-.478.113-.842.304-1.042.538-.182.207-.285.251-.556.242a2.523 2.632 0 0 1-.66-.147 2.021 2.108 0 0 0-.642-.138c-.207 0-.296-.035-.27-.113.035-.113.452-.121 1.156-.018.433.062.46.052.902-.294.391-.303.504-.356.877-.356.306 0 .426.035.426.121zm9.534.91c.227.737.07 1.837-.33 2.349l-.173.215v-.31c0-.417-.252-.659-.538-.512a1.778 1.806 0 0 0-.348.242c-.104.088-.156.096-.156.035 0-.06.043-.104.086-.104.191 0 .878-1.074 1.052-1.655.104-.329.208-.598.243-.598.034 0 .112.148.164.34zm-10.28-.2c.26.105.105.382-.216.382-.088 0-.105-.286-.018-.373.07-.07.07-.07.235-.009zm2.875.529a14.423 14.65 0 0 1-.738.355l-.305.121.174-.19c.216-.243.79-.52 1.086-.511.173 0 .139.043-.217.225zm6.642 1.845c-.113.39-.39.754-1.224 1.56-.85.832-.964 1.1-.86 2.035.035.287.044.633.018.772-.061.339.13.226.295-.173.174-.408.296-.373.296.078 0 .477.433 1.377.78 1.62.609.433 1.45.572 2.007.347.139-.062.277-.088.304-.062.069.07-.182.513-.417.72-.86.789-2.718.191-3.483-1.117-.572-.98-.772-2.634-.407-3.431.095-.209.155-.4.138-.416-.156-.156-.65.701-.79 1.351l-.104.485-.104-.26c-.165-.406-.216-1.03-.104-1.369.148-.433.573-.78 1.32-1.057 1.067-.39 1.572-.658 1.936-1.04.4-.406.504-.416.4-.043zm.227 1.196-.01.763-.494.822c-.279.452-.539.953-.6 1.118a9.476 9.625 0 0 0-.13.434c-.026.078-.104-.01-.208-.234-.087-.191-.243-.381-.339-.416-.157-.043-.182-.121-.182-.486 0-.242.043-.52.095-.623.061-.104.487-.59.955-1.074.478-.486.86-.928.86-.97 0-.052.01-.096.026-.096.017 0 .026.346.026.762zm-7.122-.009c-.025.026-.112.026-.19-.008-.13-.052-.13-.07.017-.234l.165-.182.026.19c.018.104.01.209-.018.234zm-.199.563c-.026.226.053.814.182 1.456.348 1.646.296 2.088-.304 2.668-.277.27-1.415.703-1.536.59-.027-.026.034-.139.138-.252.305-.32.522-.926.625-1.75.053-.433.13-1.058.174-1.404.14-1.03.825-2.287.721-1.308zm1.076 3.337c.114.164.096.19-.164.355-.157.103-.286.172-.304.164-.01-.017.026-.19.079-.39.094-.39.198-.424.39-.13z"/></svg>