<svg role="img" viewBox="0 0 24 24" xmlns="http://www.w3.org/2000/svg"><title>Roadmap.sh</title><path d="M7.7666 22.9874c-.3047.0914-.792.1828-1.462.2741-.6396.0914-1.3097.137-2.0101.137-.6702 0-1.2792-.0456-1.8275-.137-.5179-.0913-.9594-.274-1.3249-.5482-.3654-.2741-.6549-.6396-.868-1.0965C.0914 21.1295 0 20.5052 0 19.7438V6.038c0-.7004.1217-1.2944.3655-1.7817.2741-.5177.6548-.9746 1.1421-1.3706.4874-.396 1.0811-.7461 1.7818-1.0508.731-.335 1.5076-.6244 2.33-.868A17.324 17.324 0 0 1 8.1776.4187a15.5677 15.5677 0 0 1 2.6498-.2285c1.462 0 2.6193.2893 3.4721.868.8527.5483 1.2792 1.462 1.2792 2.7412 0 .4264-.061.8529-.1827 1.2792-.122.396-.2741.7615-.4569 1.0965a21.717 21.717 0 0 0-1.9645.0913 20.2948 20.2948 0 0 0-1.9645.2742c-.6395.1218-1.2488.2589-1.8274.4111-.5482.122-1.0204.2741-1.4162.4569Zm7.3704-3.6548c0-1.2792.3958-2.3452 1.1878-3.198.792-.8529 1.8731-1.2792 3.2437-1.2792s2.4517.4263 3.2437 1.2792c.792.8528 1.1878 1.9188 1.1878 3.198s-.396 2.3451-1.1878 3.198c-.7919.8528-1.8731 1.2792-3.2437 1.2792s-2.4519-.4264-3.2437-1.2792c-.7918-.8529-1.1878-1.9188-1.1878-3.198z"/></svg>