<svg role="img" viewBox="0 0 24 24" xmlns="http://www.w3.org/2000/svg"><title>Robinhood</title><path d="M20.0558.6412C19.5738.222 18.873.0255 17.786.0015c-.9876-.0218-2.16.1922-3.4892.6288-.1988.0699-.3583.1812-.4995.3188a64.2708 64.2708 0 0 0-3.9085 4.004l-.096.1048a.0936.0936 0 0 0-.0112.107c.02.035.0619.0525.1011.0437l.1395-.0306c2.0022-.4279 4.0235-.7554 6.0083-.9715a.4605.4605 0 0 1 .3626.1179.4658.4658 0 0 1 .15.3515c-.0323 1.9693.0392 3.9474.2144 5.8795l.0105.1267c.004.0393.0305.0699.0706.0808.006.0022.013.0022.0218.0044a.1003.1003 0 0 0 .0785-.0394l.0715-.1025a55.8335 55.8335 0 0 1 3.6139-4.6111c.1438-.1637.1813-.2664.2074-.4149.401-2.5718-.2205-4.4756-.7757-4.9581zm-4.3966 5.528-.003-.1222a.095.095 0 0 0-.061-.0852.0952.0952 0 0 0-.102.0263l-.0811.0917c-3.3995 3.932-6.2577 8.2942-8.4926 12.9686l-.0523.109a.093.093 0 0 0 .0148.1049.0949.0949 0 0 0 .0654.0284.1233.1233 0 0 0 .0375-.0065l.1116-.0459c1.9098-.7903 3.8597-1.4759 5.7956-2.037a.442.442 0 0 0 .2694-.2227c.849-1.6549 2.8207-4.86 2.8207-4.86.0497-.072.0366-.179.0366-.179s-.3382-3.8316-.36-5.7703zM6.7316 17.341c.068-.131.3783-.7292.448-.8624l.0132-.024c2.078-3.919 4.611-7.6174 7.5259-10.9884l.0811-.0939a.0976.0976 0 0 0 .0105-.1047.094.094 0 0 0-.0941-.048l-.122.0174A60.3805 60.3805 0 0 0 8.8368 6.322c-.19.0524-.312.1769-.3382.2052a64.6775 64.6775 0 0 0-4.02 5.3534c-.061.0939-.0829.2162-.0672.3166.0131.0982.312 2.4016.7662 4.17-1.1262 3.2421-2.133 7.5148-2.133 7.5148a.0924.0924 0 0 0 .0132.0808.0888.0888 0 0 0 .074.0371h.6416a.0987.0987 0 0 0 .0924-.0612l.0436-.12c.6546-1.786 1.4016-3.55 2.2271-5.2704.1918-.3974.5953-1.2074.5953-1.2074zm3.8257 1.489-.1595.0525c-1.026.3405-2.5435.8667-3.9059 1.4933-.0723.035-.1203.131-.1203.131-.0262.059-.0567.131-.0915.2117l-.004.011c-.1534.3471-.3626.8689-.454 1.0829l-.0698.1681a.0676.0676 0 0 0 .0174.0764.0616.0616 0 0 0 .0453.0197.0833.0833 0 0 0 .0305-.0065l.1639-.0786c.374-.1769.8455-.4454 1.3389-.6812l.0174-.0087a885.1805 885.1805 0 0 0 2.641-1.2554s.103-.0546.1552-.1572l.4786-.9606a.0692.0692 0 0 0-.009-.0765.0685.0685 0 0 0-.0741-.0218z"/></svg>