<svg role="img" viewBox="0 0 24 24" xmlns="http://www.w3.org/2000/svg"><title>Rocket.Chat icon</title><path d="M3.072 1.294A8.212 8.212 0 0 0 .4 1.771a.598.598 0 0 0-.233.977c.878.907 2.331 2.698 1.974 4.327C.753 8.493 0 10.203 0 11.983c0 1.814.753 3.524 2.141 4.941.357 1.629-1.096 3.422-1.974 4.328a.597.597 0 0 0 .233.976c1.245.448 3.71.968 6.508-.426a10.011 10.011 0 0 0 2.074-1.53c.981.177 1.992.266 3.018.266 3.072 0 5.983-.801 8.198-2.257 1.147-.755 2.059-1.649 2.71-2.661.725-1.127 1.092-2.339 1.092-3.602-.001-1.297-.368-2.509-1.093-3.636-.651-1.011-1.563-1.906-2.71-2.661-2.216-1.456-5.127-2.258-8.198-2.258-1.026 0-2.037.089-3.018.266a10.011 10.011 0 0 0-2.074-1.53c-1.398-.697-2.714-.916-3.835-.905zm8.802 4.556c5.388 0 9.756 2.818 9.756 6.293 0 3.476-4.368 6.294-9.756 6.294-1.328 0-2.594-.171-3.748-.481l-.843.811c-.458.441-.996.84-1.556 1.153a6.119 6.119 0 0 1-2.201.622c.041-.074.079-.149.119-.224.845-1.552 1.073-2.948.684-4.186-1.382-1.086-2.211-2.476-2.211-3.99 0-3.475 4.368-6.292 9.756-6.292zm-4.667 4.845c-.794 0-1.438.639-1.438 1.427s.644 1.427 1.438 1.427 1.438-.639 1.438-1.427-.644-1.427-1.438-1.427zm4.627 0c-.794 0-1.438.639-1.438 1.427s.644 1.427 1.438 1.427c.794 0 1.438-.639 1.438-1.427s-.644-1.427-1.438-1.427zm4.629 0c-.794 0-1.438.639-1.438 1.427s.644 1.427 1.438 1.427c.794 0 1.438-.639 1.438-1.427s-.644-1.427-1.438-1.427z"/></svg>