<svg role="img" viewBox="0 0 24 24" xmlns="http://www.w3.org/2000/svg"><title>Rocket.Chat icon</title><path d="M22.921 8.302c-.641-.999-1.541-1.883-2.672-2.63-2.185-1.438-5.056-2.231-8.084-2.231a16.76 16.76 0 0 0-2.976.263A9.86 9.86 0 0 0 7.143 2.19C4.385.813 1.955 1.326.727 1.77a.59.59 0 0 0-.23.965c.866.896 2.299 2.667 1.947 4.277-1.37 1.402-2.112 3.091-2.112 4.85 0 1.793.742 3.483 2.112 4.884.352 1.61-1.08 3.382-1.947 4.278a.59.59 0 0 0 .23.965c1.228.443 3.658.957 6.417-.422a9.852 9.852 0 0 0 2.046-1.512 16.73 16.73 0 0 0 2.976.263c3.029 0 5.9-.792 8.084-2.231 1.13-.746 2.03-1.63 2.672-2.63.716-1.113 1.078-2.311 1.078-3.56 0-1.282-.363-2.48-1.079-3.594zm-10.88 9.938c-1.31 0-2.558-.17-3.695-.475l-.832.801c-.452.436-.982.83-1.534 1.14a6.02 6.02 0 0 1-2.17.615c.04-.073.077-.147.117-.221.833-1.534 1.058-2.914.674-4.137-1.363-1.073-2.18-2.447-2.18-3.943 0-3.435 4.307-6.22 9.62-6.22 5.314 0 9.621 2.785 9.621 6.22 0 3.435-4.307 6.22-9.621 6.22zM8.857 12c0 .778-.635 1.41-1.418 1.41A1.414 1.414 0 0 1 6.021 12c0-.78.635-1.41 1.418-1.41.782 0 1.417.63 1.418 1.41zm4.563 0c0 .778-.634 1.41-1.418 1.41A1.414 1.414 0 0 1 10.584 12c0-.78.635-1.41 1.418-1.41.784 0 1.418.63 1.418 1.41zm4.565 0c0 .778-.635 1.41-1.418 1.41A1.414 1.414 0 0 1 15.149 12c0-.78.635-1.41 1.418-1.41.783 0 1.418.63 1.418 1.41z"/></svg>