<svg role="img" viewBox="0 0 24 24" xmlns="http://www.w3.org/2000/svg"><title>Rocket.Chat</title><path d="M22.906 8.342a9.204 9.204 0 0 0-2.71-2.69 14.954 14.954 0 0 0-8.198-2.283 16.876 16.876 0 0 0-3.018.269 10.016 10.016 0 0 0-2.073-1.547A8.126 8.126 0 0 0 .4 1.658a.612.612 0 0 0-.375.725.612.612 0 0 0 .143.259c.878.92 2.335 2.735 1.977 4.379A7.116 7.116 0 0 0 0 11.982a7.134 7.134 0 0 0 2.145 4.995c.358 1.648-1.096 3.46-1.973 4.38a.604.604 0 0 0-.012.817c.066.075.15.132.244.167a8.14 8.14 0 0 0 6.508-.431 10.022 10.022 0 0 0 2.074-1.547c.996.179 2.006.269 3.018.268 2.896.05 5.745-.743 8.198-2.282a9.205 9.205 0 0 0 2.705-2.692 6.672 6.672 0 0 0 0-7.318l-.001.003ZM11.874 18.507a14.404 14.404 0 0 1-3.747-.486l-.843.819a7.721 7.721 0 0 1-1.557 1.162 6.048 6.048 0 0 1-2.201.626c.042-.075.079-.151.119-.226a5.424 5.424 0 0 0 .684-4.232 5.215 5.215 0 0 1-2.21-4.026c0-3.513 4.367-6.362 9.755-6.362 5.387 0 9.759 2.848 9.759 6.362 0 3.514-4.371 6.363-9.759 6.363Zm-.038-7.826a1.443 1.443 0 1 0-.012 2.886 1.443 1.443 0 0 0 .012-2.886Zm-4.632 0a1.443 1.443 0 1 0-.012 2.886 1.443 1.443 0 0 0 .012-2.886Zm9.259 0a1.443 1.443 0 1 0-.017 2.886 1.443 1.443 0 0 0 .017-2.886Z"/></svg>