<svg role="img" viewBox="0 0 24 24" xmlns="http://www.w3.org/2000/svg"><title>Rocket</title><path d="M4.31 16.075c0 .793.202 1.496.606 2.083l-1.413 1.41c-.15.162-.04.274.12.432l1.108 1.101c.153.161.257.261.413.103l1.532-1.527c.344.126 1.17.346 2.42.163l.954-.716c.073-.056.198-.136.279-.18l.865-.47-.693.697a2.746 2.746 0 0 1-.25.218l-.822.616 1.405 3.832a.248.247 0 0 0 .177.156.249.249 0 0 0 .228-.062l3.3-3.128a.251.25 0 0 0 .073-.136l.74-4.12c.9-.776 1.81-1.678 2.708-2.683C23.23 8.08 24 3.557 24 1.376c0-.718-.087-1.113-.091-1.13a.25.248 0 0 0-.201-.19C23.45.012 17.324-.93 9.35 7.013c-.01.01-1.046 1.075-2.16 2.568l-4.095 1.135a.249.248 0 0 0-.125.08l-2.913 3.49a.25.248 0 0 0-.057.158.24.24 0 0 0 .011.072.249.248 0 0 0 .168.166l3.915 1.134.654-.749c.06-.069.166-.173.236-.233l.736-.627-.521.813c-.05.077-.139.196-.2.265l-.69.79m8.642-8.453c1.297-1.29 3.142-1.544 4.123-.568.981.976.726 2.814-.57 4.104-1.297 1.29-3.143 1.544-4.124.568-.98-.976-.725-2.813.571-4.104"/></svg>