<svg role="img" viewBox="0 0 24 24" xmlns="http://www.w3.org/2000/svg"><title>Rocket</title><path d="M23.737.237V.236a.247.247 0 0 0-.201-.188C23.28.007 17.2-.877 9.366 7.1l-.001.001c-.039.041-1.043 1.101-2.118 2.575l-4.049 1.166a.246.246 0 0 0-.123.08l-2.856 3.5a.247.247 0 0 0 .124.393l3.89 1.096.483-.565c.177-.208.37-.401.575-.58l.54-.471-.38.607c-.145.231-.307.451-.483.658l-.519.607c.007.79.213 1.489.62 2.069L3.68 19.653c-.147.162-.037.272.122.429l1.108 1.086c.153.16.257.258.41.099l1.505-1.533c.343.122 1.163.333 2.4.14l.75-.576a5.55 5.55 0 0 1 .673-.442l.644-.36-.514.53a5.549 5.549 0 0 1-.601.534l-.62.476 1.425 3.804a.246.246 0 0 0 .403.09l3.243-3.143a.248.248 0 0 0 .072-.136l.697-4.11c.885-.78 1.78-1.686 2.661-2.694 5.072-5.805 5.797-10.315 5.778-12.486-.006-.703-.093-1.095-.1-1.124zm-7.245 10.928c-1.274 1.296-3.101 1.566-4.082.602-.98-.964-.743-2.795.53-4.091 1.274-1.296 3.101-1.566 4.082-.602.98.964.743 2.795-.53 4.091z"/></svg>