<svg role="img" viewBox="0 0 24 24" xmlns="http://www.w3.org/2000/svg"><title>R&#216;DE</title><path d="M23.74 2.207 21.846.314 19.52 2.64C17.486 1.05 14.867.086 12 .086 5.259.087 0 5.314 0 11.99c0 2.889.995 5.507 2.662 7.552L.379 21.825l1.893 1.894 2.305-2.305a12.146 12.146 0 0 0 7.423 2.5c6.741 0 12-5.216 12-11.892 0-2.846-.952-5.432-2.575-7.445zm-11.729.834c2.1 0 3.322 1.374 4.036 3.094l-8.819 8.82a21.44 21.44 0 0 1-.205-2.977c0-2.672.497-8.937 4.988-8.937zm4.783 6.113c.14 1.082.184 2.078.184 2.824 0 2.684-.476 8.938-4.989 8.938-2.056 0-3.267-1.31-3.992-2.997z"/></svg>