<svg role="img" viewBox="0 0 24 24" xmlns="http://www.w3.org/2000/svg"><title>Rollbar</title><path d="M24 2.58a.604.604 0 0 0-.483-.583c-.06-.02-.117-.01-.177-.01-.308.03-4.38.416-8.956 2.457-2.747 1.222-4.875 3.098-6.213 5.376l-.345.149C2.927 12.156 0 16.407 0 21.339v.08c0 .32.258.596.597.597H16.86c.08 0 .234-.02.375-.14l6.553-5.525a.595.595 0 0 0 .212-.46zm-6.554 17.56V8.384l5.363-4.52V15.62zM7.369 16.493h8.885v4.333H2.227Zm7.499-10.96A30.776 30.776 0 0 1 21.4 3.49l-4.793 4.042c-2.213.27-4.389.782-6.489 1.528 1.186-1.45 2.787-2.65 4.75-3.527zm-5.89 5.24a30.775 30.775 0 0 1 7.276-1.994V15.3H7.76c.06-1.582.477-3.13 1.218-4.527zm-1.636.762a11.81 11.81 0 0 0-.788 4.083L1.265 20.08c.4-3.626 2.553-6.66 6.077-8.546z"/></svg>