<svg aria-labelledby="simpleicons-rollupjs-icon" role="img" viewBox="0 0 24 24" xmlns="http://www.w3.org/2000/svg"><title id="simpleicons-rollupjs-icon">rollup.js icon</title><path d="m3.42 2.9e-4c-0.20357 0-0.36894 0.16545-0.36894 0.36902v19.517c0.57678-1.4886 1.5565-3.6176 3.1384-6.5312 5.6999-10.48 6.4464-11.536 9.4151-11.536 1.5607 0 3.1341 0.704 4.152 1.9551-1.3868-2.235-3.8424-3.7321-6.6542-3.7745zm12.72 2.5438c-1.1892 9e-3 -2.2568 0.46617-2.6981 1.4979-0.96695 2.2562 1.6243 4.7669 2.7567 4.5676 1.442-0.25446-0.25446-3.5625-0.25446-3.5625 2.2053 4.1562 1.6964 2.8839-2.2902 6.7008s-8.058 11.871-8.6517 12.21c-0.0254 0.017-0.0509 0.0297-0.0806 0.0424h15.637c0.0172 0 0.034-1e-3 0.0505-3e-3 0.24627-0.033 0.3956-0.30465 0.2803-0.53526l-4.0884-8.0919c-0.0891-0.17389-0.0254-0.39018 0.14421-0.48772 2.392-1.3741 4.0036-3.9526 4.0036-6.9129 0-1.425-0.37323-2.7609-1.0306-3.9187-0.926-0.95304-2.4301-1.517-3.7779-1.5064z"/></svg>
