<svg role="img" viewBox="0 0 24 24" xmlns="http://www.w3.org/2000/svg"><title>Rook</title><path d="M1.824 0a.777.777 0 0 0-.773.773v6.122c0 .442.368.773.773.773h4.057a.755.755 0 0 0 .773-.773.78.78 0 0 0-.773-.776H2.562V1.55h2.543v1.289c0 .221.076.407.223.555.148.147.369.22.553.22h4.092a.78.78 0 0 0 .773-.775v-1.29h2.545v1.29a.78.78 0 0 0 .773.775h4.092a.75.75 0 0 0 .553-.22.819.819 0 0 0 .223-.555v-1.29h2.543v4.534h-3.356a.78.78 0 0 0-.773.775c0 .443.368.774.773.774h4.094a.812.812 0 0 0 .553-.22.812.812 0 0 0 .22-.554V.773c0-.405-.369-.736-.664-.773H18.23a.777.777 0 0 0-.773.773v1.291h-2.545V.774A.777.777 0 0 0 14.14 0h-4.092a.78.78 0 0 0-.776.773v1.291h-2.58V.774A.777.777 0 0 0 5.918 0H1.824zm-.037 9.068a.78.78 0 0 0-.773.776v8.81A5.35 5.35 0 0 0 6.359 24h11.282a5.35 5.35 0 0 0 5.345-5.346v-8.81a.78.78 0 0 0-.773-.776H1.787zm.776 1.512h18.875v8.074a3.791 3.791 0 0 1-3.797 3.797H6.359a3.791 3.791 0 0 1-3.796-3.797V10.58zM12 13.125a3.444 3.444 0 0 0-3.428 3.428v2.654a.78.78 0 0 0 .774.775h5.308a.78.78 0 0 0 .774-.775v-2.654A3.444 3.444 0 0 0 12 13.125zm-.037 1.475c1.069 0 1.918.847 1.918 1.916v1.918h-3.834v-1.918c0-1.07.847-1.916 1.916-1.916z"/></svg>