<svg role="img" viewBox="0 0 24 24" xmlns="http://www.w3.org/2000/svg"><title>Roots Bud icon</title><path d="M24 11.7L21.8 5l-3.9-1.3L15.5.4h-7L6.1 3.7 2.2 5 0 11.7 2.4 15v4.1l5.7 4.1 3.9-1.3 3.9 1.3 5.7-4.1V15l2.4-3.3zM12 16l-.2-.1L8 13.1l1.5-4.5.1-.2h4.9l1.5 4.7-3.4 2.5-.6.4zm10.1-4.6l-1.7 2.3-2.7-.9-1.6-5 1.7-2.3 2.7.9c-.1-.1 1.6 5 1.6 5zM9.4 2.1h5.3l1.7 2.3-.2.3-1.4 2H9.3l-1.4-2-.2-.3 1.7-2.3zM3.6 6.4l2.7-.9L8 7.8v.1l-1.6 4.9-2.7.9L2 11.4c-.1-.1 1.6-5 1.6-5zm.5 11.8v-2.9l.3-.1 2.4-.8 3.9 2.8.4.3v2.9l-2.7.9-4.3-3.1zm11.5 3.1l-2.7-.9v-2.9l.4-.3 3.9-2.8 1.9.6.8.2v2.9c-.1.1-4.3 3.2-4.3 3.2z"/></svg>
