<svg role="img" viewBox="0 0 24 24" xmlns="http://www.w3.org/2000/svg"><title>Roundcube icon</title><path d="M24 17.106v-7.098l-11.823 6.829v7.098zm-3.4-8.795a8.52 8.52 0 0 1-.883 3.761L24 9.598l-3.434-1.983c.018.23.035.461.035.696zM12 .065c-4.547 0-8.247 3.7-8.247 8.246 0 1.499.422 2.893 1.124 4.104L12 16.53l7.122-4.114a8.152 8.152 0 0 0 1.124-4.105c0-4.547-3.7-8.246-8.246-8.246zM0 9.598l4.283 2.474a8.521 8.521 0 0 1-.884-3.761c0-.235.016-.466.035-.696L0 9.598zm0 7.508l11.823 6.83v-7.1L0 10.009z"/></svg>