<svg role="img" viewBox="0 0 24 24" xmlns="http://www.w3.org/2000/svg"><title>RSpec</title><path d="m15.112 6.812 3.213 3.302-.813 1.488-5.593 7.013-5.593-6.85-.813-1.651 3.213-3.302h6.386Zm-1.037-5.148-1.203 1.595c5.785.567 9.258 6.482 7.427 11.67l.931 1.857 1.852-.14C26.126 9.398 21.296.814 13.11.054ZM.825 16.355C-2.276 8.444 3.756-.284 12.37.007l.97 1.617-1.2 1.592C5.827 3.103 1.457 9.612 3.907 15.42l-2.005-.527Zm21.97.925-1.925.146-.875-1.745c-2.537 5.868-11.747 7.62-15.746.46l-2.102-.553-1.045 1.417C6 27.057 18.988 25.492 22.795 17.28Z"/></svg>