<svg role="img" viewBox="0 0 24 24" xmlns="http://www.w3.org/2000/svg"><title>RSpec</title><path d="M12.01 0C5.374 0 0 5.374 0 12.01c0 1.527.286 3.014.814 4.358l1.1-1.487 1.994.549a8.781 8.781 0 0 1-.69-3.44c0-4.844 3.927-8.795 8.792-8.795h.165l1.18-1.607L12.397 0Zm1.059.06.977 1.629-1.222 1.568c4.459.428 7.96 4.172 7.96 8.752a8.696 8.696 0 0 1-.509 2.932l.957 1.852 1.832-.14c.59-1.425.936-2.994.936-4.643C24 5.74 19.195.59 13.068.06ZM8.713 6.798l-3.217 3.237.043.012-.043.048.057.116-.057-.012.814 1.608 5.598 6.799-.028-.063.028.027.014.036-.004-.023.004.004.004-.004-.004.023.014-.038.028-.031-.043.069 5.598-7.003.814-1.404-.071.014.071-.117-.042-.049.042-.012L15.116 6.8zm-6.615 8.755-1.039 1.404C2.952 21.11 7.126 24 11.991 24A11.99 11.99 0 0 0 22.8 17.22l-1.934.143-.855-1.75a8.78 8.78 0 0 1-8.02 5.17 8.785 8.785 0 0 1-7.778-4.7z"/></svg>