<svg role="img" viewBox="0 0 24 24" xmlns="http://www.w3.org/2000/svg"><title>RTVE</title><path d="M2.019 15.088c0 .526-.317.764-1.002.763-.7 0-1.017-.253-1.017-.763V8.823c0-.56.268-.799.873-.798.56 0 .749.124.873.605.03.094.079.144.124.144.05 0 .079-.02.188-.124.397-.382 1.066-.62 1.751-.62q.619 0 .62.655c0 1.002-.188 1.369-.684 1.368-1.21 0-1.781.655-1.731 1.969v3.066zm3.164-8.491c0-.541.322-.799 1.007-.799.704 0 1.017.258 1.016.799v1.14c0 .238.079.317.318.318h.54c.541 0 .799.303.799.952 0 .635-.258.942-.799.942h-.54c-.218 0-.317.094-.318.318v2.385c0 1.081.352 1.607 1.067 1.607.174 0 .352-.02.828-.064.05-.02.094-.02.159-.02.352 0 .506.174.506.59 0 .779-.684 1.21-1.895 1.21-1.781 0-2.688-1.161-2.688-3.437zm8.992 2.559c.322-.923.56-1.141 1.21-1.141.605 0 .923.238.923.684 0 .114-.02.159-.08.353L14.11 14.76c-.322.873-.57 1.096-1.21 1.096-.635 0-.893-.218-1.21-1.096L9.577 9.047a.8.8 0 0 1-.079-.353c0-.446.322-.684.922-.684.655 0 .873.218 1.191 1.141l1.066 3.07c.05.124.114.188.218.188.094 0 .174-.064.209-.188zm4.439 4.488c-.188 0-.268.079-.268.238 0 1.577 1.037 2.549 2.738 2.55.605 0 1.017-.094 1.765-.397.258-.094.362-.124.476-.124.268 0 .466.238.467.605 0 .952-1.304 1.686-3.036 1.686-2.832 0-4.424-1.815-4.424-5.044 0-3.199 1.528-5.123 4.052-5.123 2.162 0 3.616 1.627 3.616 4.042 0 1.21-.317 1.577-1.379 1.577h-4.007zm3.179-1.607c.188 0 .258-.079.258-.287 0-1.463-.635-2.257-1.781-2.257-1.131 0-1.895.952-1.894 2.321 0 .144.094.218.258.218 0 .005 3.159.005 3.159.005"/></svg>