<svg role="img" viewBox="0 0 24 24" xmlns="http://www.w3.org/2000/svg"><title>RTVE</title><path d="M2.0197 17.9527c0 1.0207-.317 1.481-.9999 1.481C.321 19.4338 0 18.9445 0 17.9528V5.8441c0-1.0807.268-1.541.8729-1.541.5599 0 .7488.2401.8728 1.1708.0298.1821.0794.2782.124.2782.0496 0 .0794-.0385.188-.2402.3969-.7395 1.0698-1.2008 1.7497-1.2008.4119 0 .6199.4223.6199 1.2709 0 1.9413-.188 2.6518-.684 2.6518-1.2097 0-1.7796 1.271-1.7296 3.8127v5.9342zM5.179 1.5411C5.1791.4904 5.5011 0 6.189 0c.7039 0 1.0198.4994 1.0198 1.5411v2.2116c0 .4613.0794.6144.317.6144h.5409c.5409 0 .7988.5854.7988 1.8413 0 1.2309-.258 1.8213-.7988 1.8213h-.541c-.218 0-.3169.1821-.3169.6144v4.6233c0 2.0915.352 3.1122 1.0698 3.1122.174 0 .352-.0384.8279-.125.0496-.0385.0942-.0385.159-.0385.3519 0 .5059.3362.5059 1.1408 0 1.511-.684 2.3417-1.8897 2.3417-1.7797 0-2.6896-2.2516-2.6896-6.6547V1.5357Zm8.9885 4.9535c.322-1.7813.56-2.2116 1.2098-2.2116.605 0 .9229.4614.9229 1.321 0 .2211-.0198.3072-.0794.6815l-2.1196 11.0077c-.322 1.6913-.57 2.1216-1.2098 2.1216-.635 0-.8929-.4223-1.2098-2.1215L9.572 6.1852c-.0645-.3071-.0794-.4612-.0794-.6814 0-.8646.322-1.321.9229-1.321.6549 0 .8728.4224 1.1898 2.2116l1.0698 5.9442c.0496.2402.114.3653.218.3653.0941 0 .174-.125.208-.3653zm4.4393 8.6861c-.188 0-.268.1542-.268.4614 0 3.0521 1.0399 4.9335 2.7396 4.9335.6049 0 1.0198-.1821 1.7697-.7686.258-.1821.362-.2401.476-.2401.2679 0 .4658.4613.4658 1.1708C23.79 22.579 22.4903 24 20.7505 24c-2.8295 0-4.4192-3.5125-4.4192-9.767 0-6.1943 1.5297-9.917 4.0493-9.917C22.5402 4.316 24 7.4684 24 12.1417c0 2.3417-.317 3.0522-1.3798 3.0522H18.611zm3.1795-3.1122c.188 0 .258-.154.258-.5574 0-2.832-.635-4.373-1.7798-4.373-1.1298 0-1.8897 1.8413-1.8897 4.4931 0 .2782.0942.4223.258.4223 0 .0096 3.1595.0096 3.1595.0096z"/></svg>