<svg role="img" viewBox="0 0 24 24" xmlns="http://www.w3.org/2000/svg"><title>Ruby Sinatra</title><path d="M9.13 4.129a6.712 6.712 0 0 0-.342 0c-.743.023-1.346.184-1.806.614-.738.688-1.111 2.634-1.376 3.548-.266.924-.738 1.868-1.052 2.32a.341.341 0 0 0-.046.105 11.885 11.885 0 0 0-1.22.506 9.623 9.623 0 0 0-.877.477 7.846 7.846 0 0 0-.376.246c-.593.415-1.022.845-1.33 1.27a4.13 4.13 0 0 0-.17.255 3.587 3.587 0 0 0-.476 1.216 3.446 3.446 0 0 0 .086 1.631c.072.24.143.377.143.377a4.762 4.762 0 0 0 1.055 1.237c.274.23.57.432.885.608.158.09.32.171.485.248a8.53 8.53 0 0 0 1.036.395 10.724 10.724 0 0 0 1.097.281c.186.04.374.074.562.105.564.095 1.133.16 1.69.206.372.032.738.055 1.093.075.532.03 1.087.03 1.648.007a24.699 24.699 0 0 0 1.69-.13 30.07 30.07 0 0 0 2.155-.314 28.292 28.292 0 0 0 2.585-.585c.442-.128.94-.28 1.456-.45a28.839 28.839 0 0 0 2.33-.873c.244-.106.481-.215.704-.325.224-.11.433-.22.625-.334a5.46 5.46 0 0 0 .517-.338c.252-.19.482-.385.69-.586a5.86 5.86 0 0 0 .557-.617c.163-.21.303-.424.42-.64a3.512 3.512 0 0 0 .367-.981 3.073 3.073 0 0 0 .064-.653 2.829 2.829 0 0 0-.32-1.27 3.263 3.263 0 0 0-.176-.303 4.42 4.42 0 0 0-.627-.754 5.373 5.373 0 0 0-1.23-.88 6.889 6.889 0 0 0-.48-.23 9.149 9.149 0 0 0-1.617-.515c-.099-.023-.202-.04-.303-.061.002-.266.005-.538.02-.862.08-1.602-1.257-2.29-2.28-2.654-1.032-.364-5.268-1.13-6.712-1.288-.41-.044-.79-.076-1.143-.083Zm-4.615 6.728c.03 0 .058.088.078.157.275.727 1.366 1.74 5.12 1.74h5.956c2.192 0 3.155-.905 3.48-1.435.04-.05.05-.138.078-.138.07 0 .08.079.08.157.01.737-.01 2.398-.01 2.398 0 1.67-3.569 2.26-7.726 2.26s-7.391-1.011-7.391-2.26l.285-2.722s.02-.157.05-.157z"/></svg>