<svg role="img" xmlns="http://www.w3.org/2000/svg" viewBox="0 0 24 24"><title>Ruby on Rails icon</title><path d="M20.89 15.311v1.164h1.983c.406 0 1.103-.315 1.127-1.196v-.45c0-.752-.582-1.196-1.127-1.196h-.989v-.54h1.959v-1.17h-1.88c-.485 0-1.133.424-1.133 1.215v.405c0 .79.642 1.196 1.133 1.196 1.364.006-.327 0 .934 0v.566zm-10.62-.283s1.06-.096 1.06-1.55c0-1.452-1.285-1.587-1.285-1.587H7.729v4.584h1.164v-1.106L9.9 16.475h1.722zm-.45-.938h-.927v-1.048h.934s.26.102.26.52c0 .418-.266.528-.266.528zm4.384-2.167H13.02c-.842 0-1.127.81-1.127 1.196v3.356h1.182v-.804h1.11v.804h1.145v-3.356c0-.978-.836-1.196-1.127-1.196zm-.019 2.45H13.07V13.26s0-.25.37-.25h.406c.327 0 .333.25.333.25v1.112zm1.686-2.45h1.23v4.552h-1.23zm2.958 3.375v-3.375h-1.224v4.552h2.88v-1.177zM.424 16.475h4.79s-.916-4.43 2.115-6.224c.66-.34 2.764-1.614 6.208 1.087.109-.097.212-.174.212-.174S10.597 7.827 7.086 8.2c-1.764.167-3.934 1.871-5.207 4.122C.606 14.572.424 16.474.424 16.474zm0 0h4.79s-.916-4.43 2.115-6.224c.66-.34 2.764-1.614 6.208 1.087.109-.097.212-.174.212-.174S10.597 7.827 7.086 8.2c-1.764.167-3.934 1.871-5.207 4.122C.606 14.572.424 16.474.424 16.474zm0 0h4.79s-.916-4.43 2.115-6.224c.66-.34 2.764-1.614 6.208 1.087.109-.097.212-.174.212-.174S10.597 7.827 7.086 8.2c-1.77.167-3.94 1.871-5.213 4.122C.6 14.572.424 16.474.424 16.474zm9.979-7.915l.024-.43c-.055-.033-.206-.11-.588-.226l-.024.425c.2.07.394.148.588.231zm-.576 1.363l-.025.405c.2.007.4.033.6.078l.025-.4a4.06 4.06 0 00-.6-.083zM7.584 7.917h.06l-.121-.392a4.57 4.57 0 00-.582.039l.115.379c.176-.02.352-.026.528-.026zm.29 2.366l.14.444c.176-.09.352-.167.527-.225l-.133-.424a4.24 4.24 0 00-.533.205zm-2.752-1.69l-.272-.444a9.49 9.49 0 00-.473.276l.279.45c.157-.103.309-.2.466-.283zm1.243 2.893l.291.463c.103-.161.224-.31.358-.457l-.273-.437a3.487 3.487 0 00-.376.43zm-.879 2.07l.491.411a5.417 5.417 0 01.127-.752l-.436-.366a6.41 6.41 0 00-.182.707zm-2.655-3.054l-.43-.399c-.158.161-.31.322-.45.482l.468.425a6.423 6.423 0 01.412-.508zM1 13.376l-.697-.27a17.22 17.22 0 00-.303.771l.697.27c.079-.218.206-.533.303-.771zm4.395 1.813c.012.34.043.617.073.81l.727.277a8.962 8.962 0 01-.145-.836z"/></svg>