<svg role="img" xmlns="http://www.w3.org/2000/svg" viewBox="0 0 24 24"><title>Ruby on Rails icon</title><path d="M20.8903 15.3112v1.1638h1.9823c.4062 0 1.1034-.315 1.1276-1.196v-.45c0-.7522-.582-1.1959-1.1276-1.1959h-.9881v-.54h1.9581v-1.1703h-1.8793c-.485 0-1.1336.4244-1.1336 1.2152v.4051c0 .7908.6426 1.196 1.1336 1.196 1.364.0063-.3274 0 .9336 0v.5657zm-10.621-.2829s1.0608-.0964 1.0608-1.5495c0-1.453-1.2852-1.5881-1.2852-1.5881H7.7291v4.5843h1.164v-1.1059l1.0063 1.1059h1.7217zm-.4487-.9387h-.9275v-1.048h.9336s.2607.1029.2607.5208c0 .418-.2668.5272-.2668.5272zm4.383-2.1668h-1.1821c-.8427 0-1.1276.8102-1.1276 1.196v3.3562h1.1821v-.8037h1.1094v.8037h1.1458v-3.3563c0-.9772-.8366-1.1959-1.1276-1.1959zm-.0182 2.4497H13.07v-1.1123s0-.2508.3698-.2508h.4062c.3273 0 .3334.2508.3334.2508v1.1123zm1.6853-2.4497h1.2307v4.5522h-1.2307zm2.9584 3.3756v-3.3756h-1.2245v4.5522h2.8795v-1.1766zM.4241 16.475h4.7892s-.9154-4.43 2.1157-6.2239c.6608-.3407 2.7644-1.6138 6.2078 1.0867.1091-.0965.2122-.1736.2122-.1736s-3.1524-3.337-6.6625-2.964c-1.764.167-3.9344 1.871-5.2074 4.1213C.606 14.5718.424 16.475.424 16.475zm0 0h4.7892s-.9154-4.43 2.1157-6.2239c.6608-.3407 2.7644-1.6138 6.2078 1.0867.1091-.0965.2122-.1736.2122-.1736s-3.1524-3.337-6.6625-2.964c-1.764.167-3.9344 1.871-5.2074 4.1213C.606 14.5718.424 16.475.424 16.475zm0 0h4.7892s-.9154-4.43 2.1157-6.2239c.6608-.3407 2.7644-1.6138 6.2078 1.0867.1091-.0965.2122-.1736.2122-.1736s-3.1524-3.337-6.6625-2.964c-1.7701.167-3.9404 1.871-5.2135 4.1213C.6 14.5718.4241 16.475.4241 16.475zm9.9785-7.9148l.0242-.4308c-.0545-.0322-.206-.1093-.588-.225l-.0242.4243c.2.0707.394.1479.588.2315zm-.576 1.363l-.0242.4051c.2.0064.4001.0322.6002.0772l.0242-.3987a4.0594 4.0594 0 00-.6001-.0836zm-2.243-2.006h.0607L7.523 7.525c-.1879 0-.3819.0129-.582.0386l.1152.3793c.1758-.0193.3516-.0257.5275-.0257zm.291 2.3661l.1395.4436c.1758-.09.3516-.1671.5274-.225l-.1334-.4243a4.24 4.24 0 00-.5335.2057zm-2.7522-1.691l-.2728-.4436a9.4909 9.4909 0 00-.4729.2764l.2789.4501c.1576-.1029.3092-.1993.4668-.2829zm1.2427 2.8933l.291.463c.103-.1608.2243-.3087.3577-.4565l-.2728-.4373a3.4867 3.4867 0 00-.3759.4308zm-.879 2.0704l.491.4115a5.417 5.417 0 01.1274-.7523l-.4365-.3665c-.0788.2379-.1334.4758-.1819.7073zm-2.6553-3.0541l-.4304-.3986c-.1576.1607-.3091.3214-.4486.4822l.4668.4243a6.4225 6.4225 0 01.4122-.5079zM1 13.3759l-.6971-.27c-.1152.2765-.2425.598-.3031.7715l.6971.27c.0788-.2185.2061-.5336.3031-.7715zm4.3952 1.8132c.0121.3407.0424.6172.0727.8101l.7275.2765c-.0546-.2508-.1091-.5337-.1455-.8359z"/></svg>