<svg role="img" xmlns="http://www.w3.org/2000/svg" viewBox="0 0 24 24"><title>Ruby on Rails icon</title><path d="M7.523 7.525c-.194.001-.389.014-.582.04l.116.378c.176-.02.351-.025.527-.025h.06zm2.317.38l-.026.423c.2.07.394.15.588.233l.026-.43c-.055-.033-.206-.11-.588-.227zm-4.99.243c-.16.088-.318.181-.473.278l.28.449c.156-.103.307-.2.464-.283zm2.89.024a5.28 5.28 0 00-.654.027 3.68 3.68 0 00-.678.133c-1.384.402-2.904 1.6-4.012 3.174a9.827 9.827 0 00-.517.816C.606 14.572.424 16.475.424 16.475h4.79s-.056-.278-.095-.721a8.775 8.775 0 01.016-1.719c.056-.5.166-1.029.361-1.545.13-.344.297-.681.512-.998a4.08 4.08 0 01.799-.875c.16-.13.332-.253.521-.365.248-.128.7-.388 1.348-.52.648-.13 1.493-.134 2.531.248.173.064.352.139.535.225.184.087.372.185.567.297.388.223.798.498 1.228.836.11-.097.211-.174.211-.174s-.196-.209-.547-.516c-.35-.307-.853-.711-1.467-1.105a9.504 9.504 0 00-2.127-1.037 7.14 7.14 0 00-1.226-.285 5.708 5.708 0 00-.64-.05zm2.086 1.752l-.023.404c.2.007.4.033.6.078l.025-.4c-.198-.043-.4-.07-.602-.082zm-1.418.154c-.182.056-.36.125-.533.205h-.002l.14.444c.177-.09.353-.167.528-.225zm-6.008.026c-.158.16-.309.322-.449.482l.469.424c.129-.176.264-.346.41-.508zm4.34.95a3.476 3.476 0 00-.375.43v.002l.291.463c.103-.16.224-.31.358-.457zm.989.837v4.584h1.164v-1.106L9.9 16.475h1.721l-1.351-1.448s1.06-.094 1.06-1.548a1.494 1.494 0 00-1.285-1.588zm5.29.033c-.841 0-1.126.81-1.126 1.195v3.356h1.181v-.803h1.112v.803h1.144v-3.356c0-.978-.836-1.195-1.127-1.195zm2.852 0v4.55h1.23v-4.55zm1.734 0v4.55h2.88V15.3h-1.657v-3.375zm4.358 0c-.485 0-1.133.424-1.133 1.215v.404c0 .79.642 1.195 1.133 1.195 1.364.006-.328 0 .933 0v.567l-2.005.006v1.164h1.982c.406 0 1.103-.315 1.127-1.196v-.45c0-.753-.582-1.196-1.127-1.196h-.988v-.54h1.959v-1.17zm-16.295.926a6.409 6.409 0 00-.182.707l.49.41c.025-.254.068-.505.128-.752zm7.771.16h.407c.327 0 .334.25.334.25v1.111l.006.002H13.07V13.26s0-.25.37-.25zm-4.546.033h.933s.262.101.262.52c0 .417-.268.527-.268.527h-.927zm-8.59.062c-.107.255-.208.513-.303.772l.697.27c.08-.219.206-.532.303-.77zm5.092 2.084c.012.34.044.616.074.809l.726.277a8.959 8.959 0 01-.144-.836z"/></svg>