<svg role="img" viewBox="0 0 24 24" xmlns="http://www.w3.org/2000/svg"><title>RubyMine</title><path d="M0 0v24h24V0zm3.287 2.992H7.13q.932.001 1.643.344.706.344 1.095.969c.26.42.389.895.389 1.447q.002.828-.393 1.465-.39.635-1.111.982a4 4 0 0 1-.44.168l2.135 3.584H8.488L6.54 8.55H4.996v3.402H3.287zm8.305 0h1.953l2.168 3.5.2.424.183-.424 2.068-3.5v.004h1.985v8.96h-1.676V5.606l.02-.37-2.626 4.214-2.615-4.18.023.332v6.348h-1.683zm-6.6 1.428v2.705h2.016q.45-.001.785-.17.336-.167.516-.47c.12-.205.18-.45.18-.721q0-.406-.18-.711a1.17 1.17 0 0 0-.516-.469 1.8 1.8 0 0 0-.785-.164zM3.2 19.199h9.602V20.8H3.199z"/></svg>