<svg role="img" viewBox="0 0 24 24" xmlns="http://www.w3.org/2000/svg"><title>Rumahweb</title><path d="M15.313 7.861c.231.111.871.816 1.069 1.014l2.991 3.002c.326.328 1.82 1.784 1.981 2.016.591.861-.834 2.36-1.768 1.45-.393-.383-.665-.661-1.035-1.014-.318-.304-.738-.655-1.009-.988l-3.028-2.965-1.023-.975c-.812-.773-1.325-1.267-2.764-1.244-1.545.143-2.623 1.029-3.182 2.019-.737 1.304-.613 2.909.296 3.877.837.889 1.726 1.737 2.595 2.61l3.909 3.924c.335.337.842.999 1.696.718.575-.188 1.117-.933.721-1.717-.189-.375-3.406-3.51-3.838-3.943l-1.312-1.317-.656-.658-.59-.645c-.222-.113-.476-.395-.64-.596-.619-.762.503-1.968 1.377-1.743.312.08.513.353.688.519.333.318 1.561 1.448 1.736 1.75.253.11 2.499 2.393 2.947 2.819l1.455 1.435c.391.379 1.179.841 1.979.913 2.467.223 4.504-2.28 4.02-4.49-.187-.857-.637-1.338-1.071-1.773l-7.214-7.242c-1.729-1.741-3.698-2.596-6.225-1.505-.619.267-1.394.725-1.785 1.107l-2.92 2.863-.744.728c-.133.131-.213.258-.344.391-.887.907-2.561 2.414-3.265 3.201-.963 1.074.179 2.528 1.389 2.019.353-.148 3.264-3.11 3.681-3.519.867-.849 3.617-3.774 4.433-4.241 2.272-1.3 3.511.193 4.787 1.476.128.129.62.564.663.724Z"/></svg>