<svg role="img" viewBox="0 0 24 24" xmlns="http://www.w3.org/2000/svg"><title>Rumble</title><path d="M14.452 13.5462c.9273-.7341.9273-2.1637 0-2.921A21.212 21.212 0 0 0 10.14 7.851c-1.0663-.51-2.2564.201-2.4264 1.4141-.2627 1.8546-.309 3.7247-.139 5.502.1159 1.2287 1.2904 1.9628 2.3723 1.4914a19.6279 19.6279 0 0 0 4.5051-2.7046zm6.9316-5.4015a5.8497 5.8497 0 0 1 .0155 7.8743 26.15 26.15 0 0 1-13.1059 7.828 5.1156 5.1156 0 0 1-6.1665-3.5779C.6043 15.0685.8284 9.188 2.2967 3.9641 3.0694 1.2208 5.6504-.5024 8.3087.1312c4.9224 1.1746 9.5434 4.196 13.075 8.0135Z"/></svg>