<svg role="img" viewBox="0 0 24 24" xmlns="http://www.w3.org/2000/svg"><title>Runkeeper icon</title><path d="M13.475 16.634c1.887-.257 3.258-1.114 4.537-2.57 1.5-1.757 1.93-4.112 1.327-6.34-.6-2.143-2.31-3.814-4.54-4.116-2.757-.426-5.618.9-7.638 2.704-.045.04-.165.126-.21.21-.21-.384-.482-.77-.77-1.07-.385-.557-1.24-1.458-1.285-1.5-.17-.214-.47-.257-.64-.342-.527-.113-.888-.29-1.114-.42-.012-.018-.027-.034-.045-.054L.914.824C.7.65.44.61.227.824c-.17.214-.214.472 0 .686L2.37 3.824l.02.02.03-.002c.077.136.348.362.453.83.045.21.166.466.377.767 0 0 1.506 1.625 2.108 2.725.558 1.114.693 1.46.768 1.67 0 .03-.557-.646-1.204-1.113-2.485 2.83-4.293 6.22-4.82 9.894-.557 3.765 1.506 4.76 3.043 4.714 1.234 0 3.81-1.325 5.18-4.623C9.65 15.5 9.44 11.81 8.1 8.6c1.28-1.294 3.644-2.83 5.948-2.785 1.716 0 2.575 1.49 2.696 1.627 1.324 2.394-.227 4.548-.227 4.548-.858 1.295-2.35 1.898-3.133 2.107-.587.166-1.702.12-1.973 0-.164-.045-.21-.136-.21-.256 0-.18.136-.255.256-.255.166 0 .256.12.256.256v.138c.437.12 1.28.03 1.627 0-.272-.644-.86-.987-1.643-.987h-.036c-1.01.008-1.823.833-1.815 1.844 0 .77.437 1.415 1.07 1.67.332.13 1.326.258 2.56.13zm-6.82-.427c-.86 3.772-3.256 5.1-3.9 4.884-.642-.213-.856-2.1.428-5.27.216-.47 1.5-3.427 3.172-5.27-.045.086.943 2.872.3 5.657zM23.186 16.938L24 13.85c.03-.256-.09-.557-.348-.6-.256-.043-.557.088-.586.344l-.81 2.977h-.095c-.017.022-.03.044-.044.066-.12.214-.346.558-.678.814-.256.214-.377.47-.377.47-.12.128-.978 2.83-3.673 2.957-3.18.128-3.81-3.427-3.855-3.727-.678.127-2.048-.174-2.606-.43.166 1.97 1.115 4.327 2.786 5.442 1.928 1.328 4.926 1.328 6.988 0 1.19-.815 1.973-1.843 2.484-3.172l.045-.11.015-.033c.016-.037.016-.074.046-.113v-.045c-.03 0 0-.257-.075-.513-.164-.683-.03-1.113-.03-1.24z"/></svg>