<svg role="img" xmlns="http://www.w3.org/2000/svg" viewBox="0 0 24 24"><title>RustDocs</title><path d="m23.215 12.001-4.528-1.94v-5.81c0-.804-.436-1.522-1.097-1.806L12.902.436a1.474 1.474 0 0 0-1.185 0L7.029 2.445c-.66.284-1.097 1.002-1.097 1.805v5.812L1.404 12c-.656.284-1.092 1.002-1.092 1.805v5.898c0 .728.36 1.398.933 1.725l4.687 2.678a1.492 1.492 0 0 0 1.51 0l4.87-2.786 4.87 2.786a1.492 1.492 0 0 0 1.51 0l4.687-2.678c.572-.327.933-.997.933-1.725v-5.898c0-.803-.436-1.521-1.097-1.805zm-6.122-1.896-3.984 1.708V8.16l3.984-1.982zm-9.562-5.93 4.78-2.046 4.782 2.046v.032l-4.781 2.218L7.53 4.207zm3.937 15.593-3.984 2.277v-4.237l3.984-2.079zm0-6-4.781 2.218-4.781-2.217v-.032l4.78-2.047 4.782 2.047zm11.25 6-3.984 2.277v-4.237l3.984-2.079zm0-6-4.781 2.218-4.781-2.217v-.032l4.78-2.047 4.782 2.047z"/></svg>
