<svg role="img" xmlns="http://www.w3.org/2000/svg" viewBox="0 0 24 24"><title>Rust icon</title><path d="M23.834 11.703l-1.007-.623a13.726 13.727 0 00-.028-.294l.865-.807a.348.348 0 00-.115-.578l-1.107-.414a8.496 8.496 0 00-.087-.285l.69-.96a.346.346 0 00-.225-.544l-1.166-.19a9.357 9.357 0 00-.141-.261l.49-1.076a.344.344 0 00-.027-.337.349.349 0 00-.301-.153l-1.184.041a6.744 6.744 0 00-.188-.227l.273-1.153a.347.347 0 00-.418-.417l-1.153.272a14.018 14.018 0 00-.227-.187l.041-1.184a.344.344 0 00-.49-.328l-1.076.49a13.036 13.036 0 00-.262-.14l-.19-1.167a.348.348 0 00-.545-.226l-.96.69a8.486 8.487 0 00-.285-.086L14.597.453a.348.348 0 00-.578-.116l-.807.867a9.293 9.294 0 00-.294-.028L12.295.168a.346.346 0 00-.59 0l-.623 1.008a13.73 13.73 0 00-.294.028L9.98.337a.346.346 0 00-.578.116l-.414 1.106-.285.086-.959-.69a.348.348 0 00-.545.226l-.19 1.167a9.357 9.357 0 00-.262.14l-1.076-.49a.346.346 0 00-.49.328l.041 1.184c-.077.06-.153.124-.227.187l-1.153-.272a.347.347 0 00-.418.417l.272 1.153c-.063.075-.126.151-.187.227l-1.184-.041a.346.346 0 00-.328.49l.491 1.076a9.167 9.167 0 00-.14.262l-1.167.19a.348.348 0 00-.226.544l.69.959c-.03.095-.058.189-.086.285l-1.107.414a.348.348 0 00-.115.578l.865.807a9.293 9.294 0 00-.028.294l-1.007.623a.344.344 0 000 .59l1.007.623c.008.098.018.197.028.294l-.865.808a.346.346 0 00.115.578l1.107.414c.027.096.056.191.087.285l-.69.959a.345.345 0 00.226.545l1.166.189c.046.088.092.175.141.262l-.491 1.076a.346.346 0 00.328.49l1.183-.041c.062.077.124.153.188.228l-.272 1.154a.346.346 0 00.418.416l1.153-.272c.074.064.15.126.227.187l-.041 1.184a.344.344 0 00.49.327l1.076-.49c.087.049.174.095.262.14l.19 1.167a.348.348 0 00.545.227l.959-.69c.095.03.19.06.285.087l.414 1.106a.345.345 0 00.578.115l.808-.865c.097.011.196.02.294.03l.623 1.007a.347.347 0 00.59 0l.623-1.008c.098-.009.197-.018.294-.03l.807.866a.348.348 0 00.578-.115l.414-1.106c.096-.028.191-.057.285-.088l.959.69a.345.345 0 00.545-.226l.19-1.166.262-.14 1.076.49a.347.347 0 00.49-.328l-.041-1.184c.077-.061.153-.123.226-.187l1.153.272a.347.347 0 00.418-.416l-.272-1.154c.063-.075.126-.151.187-.228l1.184.041a.344.344 0 00.328-.49l-.49-1.076c.048-.087.095-.174.14-.262l1.167-.19a.348.348 0 00.226-.544l-.69-.959.086-.285 1.107-.414a.346.346 0 00.115-.578l-.865-.808c.01-.097.02-.196.028-.294l1.007-.623a.344.344 0 000-.59zm-6.74 8.355a.714.714 0 01.298-1.396.714.714 0 11-.3 1.396zm-.343-2.314a.649.649 0 00-.771.5l-.358 1.669a8.728 8.728 0 01-3.619.78 8.737 8.737 0 01-3.695-.815l-.357-1.668a.648.648 0 00-.772-.5l-1.473.317a8.721 8.722 0 01-.761-.898h7.167c.081 0 .136-.015.136-.088v-2.536c0-.074-.054-.089-.136-.089h-2.096V12.81h2.267c.207 0 1.107.059 1.394 1.209.09.353.288 1.504.424 1.872.134.414.683 1.239 1.268 1.239h3.572a.75.75 0 00.13-.014 8.787 8.787 0 01-.813.953zm-9.914 2.28a.714.714 0 11-.3-1.396.714.714 0 01.3 1.396zM4.117 8.997a.714.714 0 11-1.303.58.714.714 0 011.304-.58zm-.834 1.981l1.534-.682a.65.65 0 00.33-.858l-.315-.715h1.243v5.602H3.567a8.775 8.775 0 01-.283-3.348zm6.734-.543V8.784h2.96c.153 0 1.08.177 1.08.87 0 .574-.712.78-1.296.78zm10.757 1.486c0 .219-.008.436-.024.65h-.9c-.09 0-.127.06-.127.149v.413c0 .973-.549 1.184-1.03 1.238-.457.052-.964-.191-1.027-.472-.27-1.518-.72-1.843-1.43-2.403.881-.56 1.799-1.386 1.799-2.492 0-1.193-.82-1.945-1.377-2.315-.783-.516-1.65-.62-1.883-.62H5.468a8.765 8.765 0 014.907-2.77l1.098 1.152a.648.648 0 00.918.02l1.227-1.173a8.775 8.775 0 016.004 4.276l-.84 1.898a.652.652 0 00.33.859l1.617.718c.029.288.043.577.043.872zm-9.3-9.6a.713.713 0 11.984 1.032.714.714 0 01-.984-1.031zm8.338 6.71a.71.71 0 01.94-.362.714.714 0 11-.94.364z"/></svg>