<svg role="img" viewBox="0 0 24 24" xmlns="http://www.w3.org/2000/svg"><title>RustDocs</title><path d="M 22.902344 11.726562 L 18.375 10.03125 L 18.375 4.945312 C 18.375 4.242188 17.9375 3.613281 17.277344 3.367188 L 12.589844 1.609375 C 12.210938 1.460938 11.789062 1.460938 11.40625 1.609375 L 6.71875 3.367188 C 6.054688 3.613281 5.621094 4.242188 5.621094 4.945312 L 5.621094 10.03125 L 1.09375 11.726562 C 0.4375 11.976562 0 12.605469 0 13.308594 L 0 18.46875 C 0 19.105469 0.359375 19.691406 0.933594 19.976562 L 5.621094 22.320312 C 6.09375 22.5625 6.65625 22.5625 7.128906 22.320312 L 12 19.882812 L 16.871094 22.320312 C 17.34375 22.5625 17.90625 22.5625 18.378906 22.320312 L 23.066406 19.976562 C 23.640625 19.691406 24 19.105469 24 18.46875 L 24 13.308594 C 24 12.605469 23.5625 11.976562 22.902344 11.726562 Z M 16.78125 10.070312 L 12.796875 11.5625 L 12.796875 8.367188 L 16.78125 6.632812 Z M 7.21875 4.878906 L 12 3.089844 L 16.78125 4.878906 L 16.78125 4.90625 L 12 6.847656 L 7.21875 4.90625 Z M 11.15625 18.523438 L 7.171875 20.515625 L 7.171875 16.808594 L 11.15625 14.992188 Z M 11.15625 13.273438 L 6.375 15.214844 L 1.59375 13.273438 L 1.59375 13.246094 L 6.375 11.457031 L 11.15625 13.246094 Z M 22.40625 18.523438 L 18.421875 20.515625 L 18.421875 16.808594 L 22.40625 14.992188 Z M 22.40625 13.273438 L 17.625 15.214844 L 12.84375 13.273438 L 12.84375 13.246094 L 17.625 11.457031 L 22.40625 13.246094 Z M 22.40625 13.273438"></path></svg>
