<svg role="img"  viewBox="0 0 24 24" xmlns="http://www.w3.org/2000/svg"><title>RustDocs</title><path d="m21.349 11.582-3.741-1.346V6.199a1.34 1.34 0 0 0-.906-1.253L12.829 3.55a1.435 1.435 0 0 0-.98 0L7.976 4.946a1.34 1.34 0 0 0-.905 1.253v4.037L3.33 11.582a1.342 1.342 0 0 0-.903 1.253v4.096c0 .506.298.971.77 1.198l3.874 1.86a1.44 1.44 0 0 0 1.246 0l4.023-1.934 4.025 1.934c.391.189.856.189 1.247 0l3.872-1.86c.472-.227.77-.692.77-1.198v-4.096c0-.558-.358-1.056-.905-1.253Zm-5.057-1.317-3.293 1.186V8.915l3.293-1.376v2.726ZM8.391 6.148l3.949-1.422 3.952 1.422v.021l-3.952 1.54-3.949-1.54v-.021Zm3.253 10.828-3.292 1.58v-2.942l3.292-1.443v2.805Zm0-4.166-3.95 1.539-3.95-1.539v-.023l3.95-1.421 3.95 1.421v.023Zm9.294 4.166-3.291 1.58v-2.942l3.291-1.443v2.805Zm0-4.166-3.95 1.539-3.95-1.539v-.023l3.95-1.421 3.95 1.421v.023Z"/></svg>
