<svg role="img" viewBox="0 0 24 24" xmlns="http://www.w3.org/2000/svg"><title>Salla</title><path d="M18.71 13.44a1.25 1.25 0 0 0-.798-.546 1.25 1.25 0 0 0-.95.178c-3.368 2.197-6.646 2.196-10.021 0a1.25 1.25 0 0 0-.949-.178 1.25 1.25 0 0 0-.796.547 1.25 1.25 0 0 0-.177.949 1.25 1.25 0 0 0 .546.797c2.109 1.372 4.258 2.068 6.39 2.068s4.28-.696 6.386-2.07a1.25 1.25 0 0 0 .546-.796 1.25 1.25 0 0 0-.178-.95m5.242 2.998-1.172-9.765A5.24 5.24 0 0 0 17.58 2.06H6.393a5.24 5.24 0 0 0-5.198 4.611l-1.17 9.765a5.24 5.24 0 0 0 1.282 4.097 5.23 5.23 0 0 0 3.916 1.761h13.53a5.24 5.24 0 0 0 3.915-1.76 5.24 5.24 0 0 0 1.283-4.098m-3.21 2.402a2.73 2.73 0 0 1-2.064.927H5.299a2.73 2.73 0 0 1-2.065-.928 2.73 2.73 0 0 1-.676-2.161L3.715 7.02a2.764 2.764 0 0 1 2.741-2.433H17.52a2.764 2.764 0 0 1 2.74 2.433l1.159 9.656a2.73 2.73 0 0 1-.677 2.16" style="stroke-width:1.01788"/></svg>