<svg role="img" viewBox="0 0 24 24" xmlns="http://www.w3.org/2000/svg"><title>Salla</title><path d="M18.604 13.24a1.23 1.23 0 0 0-.783-.536 1.23 1.23 0 0 0-.933.175c-3.31 2.158-6.53 2.157-9.846 0a1.23 1.23 0 0 0-.932-.175 1.23 1.23 0 0 0-.782.537 1.23 1.23 0 0 0-.174.932 1.23 1.23 0 0 0 .536.783c2.072 1.348 4.184 2.032 6.278 2.032s4.205-.684 6.274-2.033a1.23 1.23 0 0 0 .536-.783 1.23 1.23 0 0 0-.174-.932m5.149 2.944-1.151-9.593a5.147 5.147 0 0 0-5.107-4.531H6.504A5.147 5.147 0 0 0 1.397 6.59l-1.15 9.593a5.15 5.15 0 0 0 1.26 4.026 5.14 5.14 0 0 0 3.847 1.73h13.292a5.15 5.15 0 0 0 3.847-1.73 5.15 5.15 0 0 0 1.26-4.026m-3.153 2.36a2.68 2.68 0 0 1-2.028.911H5.429a2.68 2.68 0 0 1-2.029-.912 2.68 2.68 0 0 1-.664-2.123l1.137-9.486a2.715 2.715 0 0 1 2.693-2.39h10.868a2.715 2.715 0 0 1 2.693 2.39l1.138 9.486a2.68 2.68 0 0 1-.665 2.123"/></svg>