<svg aria-labelledby="simpleicons-samsungpay-icon" role="img" viewBox="0 0 24 24" xmlns="http://www.w3.org/2000/svg"><title id="simpleicons-samsungpay-icon">Samsung Pay icon</title><path d="M10.58.014c-.118.01-.51.037-.875.065-2.844.216-5.001.965-6.553 2.276-.615.52-1.315 1.499-1.874 2.618C.606 6.335.294 7.51.067 9.562c-.1.908-.085 4.537.024 5.432.288 2.355.8 3.914 1.77 5.361.841 1.255 2.171 2.23 3.893 2.857.578.21 1.713.492 2.508.618.667.103.771.17 3.738.17s3.07-.067 3.738-.17c.795-.126 1.93-.407 2.508-.618 1.722-.628 3.052-1.602 3.894-2.857.97-1.447 1.48-3.006 1.77-5.361.108-.895.122-4.524.023-5.432-.227-2.051-.54-3.227-1.211-4.59-.559-1.118-1.259-2.097-1.874-2.617C19.348 1.091 17.38.38 14.602.103c-.686-.07-3.506-.131-4.021-.09zM7.284 9.187a2.654 2.654 0 0 1 2.1 2.412c.095 1.517-1.121 2.711-2.763 2.716h-.345v-1.021l.487-.019c.412-.014.52-.037.734-.145.317-.164.577-.421.723-.716.095-.192.114-.3.114-.651 0-.356-.019-.464-.123-.684a1.696 1.696 0 0 0-.795-.787c-.255-.117-.303-.121-1.225-.135-.696-.015-.98 0-1.032.037-.057.052-.066.473-.066 2.838v2.781h-.994V10.03l.114-.239c.132-.28.397-.51.69-.604.303-.089 1.945-.093 2.38 0zm5.9.052c.96.267 1.765 1.095 1.964 2.018.052.234.07.679.07 1.686v1.372H14.182l-.015-1.466-.014-1.46-.133-.268c-.345-.702-1.23-1.114-1.949-.908a1.7 1.7 0 0 0-1.098.94 1.532 1.532 0 0 0 .175 1.556c.28.35.819.576 1.377.576h.327v1.044l-.464-.024c-1.552-.089-2.583-1.105-2.574-2.538.005-.899.445-1.69 1.211-2.186a2.594 2.594 0 0 1 2.158-.342zm3.956 1.395c.35.721.634 1.34.634 1.372 0 .117-.526 1.105-.568 1.063-.038-.042-1.846-3.713-1.846-3.75 0-.01.256-.01.573-.005l.572.014.635 1.306zm3.846-1.297c0 .023-.738 1.522-1.642 3.339l-1.646 3.301-.554.014c-.364.01-.553-.005-.553-.037 0-.028.577-1.213 1.282-2.637.71-1.419 1.443-2.908 1.637-3.3l.355-.713h.563c.308 0 .563.014.558.033z"/></svg>
