<svg role="img" viewBox="0 0 24 24" xmlns="http://www.w3.org/2000/svg"><title>Samsung Pay</title><path d="m6.684 17.382.618-1.498-1.209-2.786h.722l.818 1.977.773-1.977h.712L7.37 17.382Zm-2.486-1.298c-.708 0-1.449-.568-1.449-1.528 0-.973.713-1.528 1.459-1.528.386 0 .732.16.942.411v-.351h.677v2.936H5.15v-.382a1.218 1.218 0 0 1-.952.442Zm-4.195-.06v-3.665h1.258c.757 0 1.319.582 1.319 1.308 0 .727-.563 1.308-1.329 1.308H.684v1.049zm4.314-.562c.502 0 .878-.407.878-.913 0-.497-.376-.903-.878-.903a.884.884 0 0 0-.887.903c0 .511.386.913.887.913zM.692 14.343h.522a.66.66 0 0 0 .683-.677.66.66 0 0 0-.683-.672H.692Zm.556-4.055c-.644 0-1.248-.23-1.248-.995V9.03h.919v.332c0 .187.13.31.345.31.23 0 .306-.116.334-.23a.444.444 0 0 0-.007-.253C1.414 8.745.193 8.542.053 7.84a1.187 1.187 0 0 1-.008-.462c.09-.56.59-.76 1.198-.76.485 0 1.159.117 1.159.863v.242h-.855V7.51c0-.187-.118-.31-.319-.31-.213 0-.288.119-.312.229a.44.44 0 0 0 .004.18c.097.401 1.398.615 1.538 1.328.015.072.045.266.004.561-.082.572-.591.783-1.209.783zm11.186-.018c-.637 0-1.228-.23-1.228-.984v-.263h.91v.328c0 .185.13.308.342.308.226 0 .303-.115.33-.228a.442.442 0 0 0-.007-.25c-.174-.44-1.378-.64-1.528-1.329a1.16 1.16 0 0 1-.008-.457c.09-.553.584-.753 1.189-.753.48 0 1.148.115 1.148.854v.239h-.846v-.21c0-.185-.116-.308-.316-.308-.212 0-.286.119-.31.228a.434.434 0 0 0 .005.178c.095.397 1.379.609 1.528 1.318.014.072.045.264.003.556-.08.567-.585.775-1.198.775zm3.216-.015c-.63 0-1.139-.206-1.199-.846a2.896 2.896 0 0 1-.008-.225V6.727h.867v2.537a.77.77 0 0 0 .008.13c.017.085.09.25.33.25.236 0 .31-.165.327-.25a.715.715 0 0 0 .01-.13V6.729h.866v2.457c0 .063-.006.19-.01.224-.059.64-.564.846-1.198.846zm7.15-.035c-.607 0-1.148-.222-1.208-.847a2.403 2.403 0 0 1-.012-.225V7.71c0-.06.008-.168.015-.226.076-.64.594-.847 1.199-.847.607 0 1.138.204 1.198.847.01.11.007.226.008.226v.113h-.864v-.191s0-.081-.01-.13c-.016-.076-.08-.25-.343-.25-.25 0-.323.164-.342.25a.816.816 0 0 0-.014.16v1.569a.889.889 0 0 0 .008.13c.016.091.103.25.35.25.248 0 .335-.159.35-.25a.72.72 0 0 0 .008-.13v-.498h-.351v-.5H24v.92c0 .065-.002.112-.012.225-.057.625-.597.847-1.208.847zm-19.674-.067.635-3.425H5.29l.631 3.425H5l-.456-3.106h-.02l-.467 3.106Zm3.475 0 .076-3.425h1.399l.421 2.616h.019l.422-2.616h1.399l.076 3.425h-.857l-.022-3.076h-.02l-.572 3.076h-.868L7.5 7.077h-.018l-.02 3.076Zm11.286-.035V6.733h1.268l.787 2.686h.02l-.048-2.686h.85v3.385h-1.22l-.846-2.786h-.02l.049 2.786z"/></svg>