<svg role="img" viewBox="0 0 24 24" xmlns="http://www.w3.org/2000/svg"><title>Sanity</title><path d="m23.328 15.224-.894-1.564-4.321 2.647 4.8-6.145.725-.429-.18-.27.33-.425-1.515-1.267-.692.888-13.993 8.233 5.174-6.257 9.635-5.312-.915-1.78-5.248 2.893 2.584-3.124L17.338 2 11.52 9.034 5.744 12.22l4.423-5.88 2.771-1.45-.88-1.8-8.074 4.227 2.202-2.93-1.538-1.24L0 9.334l.072.058.868 1.778 5.153-2.698-4.696 6.243.77.62.457.89 5.425-2.992-5.974 7.226 1.48 1.312.298-.36 14.412-8.507-4.785 6.13.078.065-.007.004.992 1.736 6.363-3.9-2.45 3.978L20.098 22 24 15.669z"/></svg>