<svg viewBox="0 0 24 24" xmlns="http://www.w3.org/2000/svg"><path d="m13.541 12.525-.68.383c-.195.114-.253.344-.136.517l.875 1.513a.35.35 0 0 0 .233.173c.039 0 .058.019.097.019a.378.378 0 0 0 .195-.057l.68-.383c.195-.114.253-.344.136-.517l-.875-1.513a.35.35 0 0 0-.233-.173.518.518 0 0 0-.292.039Zm-3.42-3.754c.039 0 .058.019.097.019a.378.378 0 0 0 .195-.057l.68-.383c.195-.116.253-.344.136-.517l-.875-1.513a.35.35 0 0 0-.233-.173c-.097-.019-.213-.019-.292.039l-.68.383c-.195.116-.253.344-.136.517l.875 1.513c.039.077.136.134.233.173Zm1.458-7.046c-5.442 0-9.853 4.346-9.853 9.706 0 .881.117 1.742.35 2.585.136.517.68.804 1.186.67a.948.948 0 0 0 .68-1.168 7.487 7.487 0 0 1-.292-2.068c.02-4.308 3.576-7.811 7.929-7.811s7.909 3.504 7.909 7.792c0 2.949-1.652 5.61-4.314 6.95a5.845 5.845 0 0 1-.796.344c-.117.039-.233.096-.37.134a.968.968 0 0 0-.68.92c0 .46.078.977.253 1.531l-2.274-1.207c-.913-.479-1.807-.977-2.545-1.685-.836-.804-1.108-1.321-1.186-2.259-.077-.861.136-1.474.836-2.317.37-.46.855-.785 1.244-1.014a11.242 11.242 0 0 1 1.166-.631 1.94 1.94 0 0 0 2.099.134 1.899 1.899 0 0 0 .738-2.604A1.958 1.958 0 0 0 11.016 9a1.87 1.87 0 0 0-.971 1.455 12.698 12.698 0 0 0-1.419.785c-.505.306-1.166.766-1.729 1.455-.7.861-1.399 1.972-1.263 3.676.117 1.417.583 2.335 1.749 3.465.933.9 1.944 1.474 3.012 2.03l3.653 1.895c.195.096.428.153.641.153a1.387 1.387 0 0 0 .933-.364 1.305 1.305 0 0 0 .292-1.532 7.126 7.126 0 0 1-.544-1.551c.233-.096.466-.211.7-.307 3.323-1.665 5.383-4.978 5.383-8.654-.02-5.437-4.431-9.783-9.871-9.783Z"/></svg>