<svg role="img" viewBox="0 0 24 24" xmlns="http://www.w3.org/2000/svg"><title>Satellite</title><path d="m13.541 12.525 -0.68 0.383c-0.195 0.114 -0.253 0.344 -0.136 0.517l0.875 1.513a0.35 0.35 0 0 0 0.233 0.173c0.039 0 0.058 0.019 0.097 0.019a0.378 0.378 0 0 0 0.195 -0.057l0.68 -0.383c0.195 -0.114 0.253 -0.344 0.136 -0.517l-0.875 -1.513a0.35 0.35 0 0 0 -0.233 -0.173 0.518 0.518 0 0 0 -0.292 0.039ZM10.121 8.771c0.039 0 0.058 0.019 0.097 0.019a0.378 0.378 0 0 0 0.195 -0.057l0.68 -0.383c0.195 -0.116 0.253 -0.344 0.136 -0.517l-0.875 -1.513a0.35 0.35 0 0 0 -0.233 -0.173c-0.097 -0.019 -0.213 -0.019 -0.292 0.039l-0.68 0.383c-0.195 0.116 -0.253 0.344 -0.136 0.517l0.875 1.513c0.039 0.077 0.136 0.134 0.233 0.173Zm1.458 -7.046c-5.442 0 -9.853 4.346 -9.853 9.706 0 0.881 0.117 1.742 0.35 2.585 0.136 0.517 0.68 0.804 1.186 0.67a0.948 0.948 0 0 0 0.68 -1.168 7.487 7.487 0 0 1 -0.292 -2.068c0.02 -4.308 3.576 -7.811 7.929 -7.811 4.353 0 7.909 3.504 7.909 7.792 0 2.949 -1.652 5.61 -4.314 6.95 -0.253 0.134 -0.525 0.249 -0.796 0.344 -0.117 0.039 -0.233 0.096 -0.37 0.134a0.968 0.968 0 0 0 -0.68 0.92c0 0.46 0.078 0.977 0.253 1.531l-2.274 -1.207c-0.913 -0.479 -1.807 -0.977 -2.545 -1.685 -0.836 -0.804 -1.108 -1.321 -1.186 -2.259 -0.077 -0.861 0.136 -1.474 0.836 -2.317 0.37 -0.46 0.855 -0.785 1.244 -1.014a11.242 11.242 0 0 1 1.166 -0.631c0.603 0.44 1.419 0.517 2.099 0.134a1.899 1.899 0 0 0 0.738 -2.604 1.958 1.958 0 0 0 -2.643 -0.727 1.87 1.87 0 0 0 -0.971 1.455 12.698 12.698 0 0 0 -1.419 0.785c-0.505 0.306 -1.166 0.766 -1.729 1.455 -0.7 0.861 -1.399 1.972 -1.263 3.676 0.117 1.417 0.583 2.335 1.749 3.465 0.933 0.9 1.944 1.474 3.012 2.03l3.653 1.895c0.195 0.096 0.428 0.153 0.641 0.153a1.387 1.387 0 0 0 0.933 -0.364c0.428 -0.403 0.544 -1.015 0.292 -1.532a7.126 7.126 0 0 1 -0.544 -1.551c0.233 -0.096 0.466 -0.211 0.7 -0.307 3.323 -1.665 5.383 -4.978 5.383 -8.654 -0.02 -5.437 -4.431 -9.783 -9.871 -9.783Z"/></svg>