<svg role="img" viewBox="0 0 24 24" xmlns="http://www.w3.org/2000/svg"><title>Satellite</title><path d="M10.215 7.073c.047 0 .07.023.118.023.07 0 .166-.023.236-.07l.828-.466c.237-.14.307-.419.166-.629l-1.064-1.84a.421.421 0 0 0-.284-.21c-.118-.023-.26-.023-.355.047l-.827.466c-.237.14-.308.42-.166.629l1.064 1.84c.047.093.166.163.284.21zm4.161 4.566-.827.466c-.237.14-.308.42-.166.629l1.064 1.84a.42.42 0 0 0 .284.21c.047 0 .07.023.118.023a.46.46 0 0 0 .237-.07l.827-.466c.237-.14.308-.419.166-.629l-1.064-1.84a.422.422 0 0 0-.284-.21.628.628 0 0 0-.355.047zM11.988-1.5C5.368-1.5 0 3.788 0 10.311c0 1.072.142 2.12.426 3.145.165.629.827.978 1.442.815.638-.163.993-.815.828-1.42a9.11 9.11 0 0 1-.355-2.517C2.365 5.093 6.69.83 11.988.83c5.297 0 9.624 4.263 9.624 9.481 0 3.588-2.01 6.826-5.25 8.457a7.144 7.144 0 0 1-.969.419c-.142.046-.284.116-.45.163a1.177 1.177 0 0 0-.827 1.118c0 .56.095 1.188.308 1.864l-2.767-1.468c-1.111-.582-2.199-1.188-3.097-2.05-1.017-.978-1.348-1.607-1.443-2.749-.094-1.048.166-1.794 1.017-2.819.45-.559 1.04-.955 1.513-1.234.45-.28.922-.536 1.419-.77a2.359 2.359 0 0 0 2.554.164 2.31 2.31 0 0 0 .898-3.168c-.638-1.119-2.08-1.515-3.216-.886a2.274 2.274 0 0 0-1.182 1.771c-.59.28-1.182.606-1.726.955-.615.373-1.419.932-2.104 1.77-.852 1.049-1.703 2.4-1.537 4.473.142 1.724.71 2.843 2.128 4.217 1.135 1.095 2.364 1.794 3.665 2.47l4.445 2.306c.237.116.52.186.78.186.426 0 .828-.163 1.135-.443.52-.489.662-1.234.355-1.863a8.602 8.602 0 0 1-.662-1.887c.284-.117.568-.257.851-.373 4.044-2.027 6.55-6.057 6.55-10.53C23.976 3.788 18.609-1.5 11.988-1.5Z"/></svg>