<svg xmlns="http://www.w3.org/2000/svg" viewBox="0 0 16 16"><path fill-rule="evenodd" d="M1.953 10.317l4.265.002-2.389 4.505A8.002 8.002 0 0 1 0 8c0-4.411 3.589-8 8-8 1.174 0 2.29.254 3.294.71L3.618 8.387h6.834l-5.026 5.076 2.077-3.917H2.53C2.303 8.776 2.318 8 2.318 8A5.689 5.689 0 0 1 8.2 2.321l.73-.732a6.418 6.418 0 0 0-.917-.066C4.442 1.523 1.526 4.428 1.526 8c0 0-.04 1.146.427 2.317zM12.17 1.176A8.003 8.003 0 0 1 16 8c0 4.411-3.589 8-8 8a7.953 7.953 0 0 1-3.294-.71l7.617-7.676H5.47l5.104-5.077-2.077 3.917h4.973c.213.72.213 1.546.213 1.546a5.69 5.69 0 0 1-5.907 5.678l-.723.73A6.485 6.485 0 0 0 14.477 8a6.452 6.452 0 0 0-.432-2.319H9.782l2.389-4.505z"/></svg>
