<svg role="img" viewBox="0 0 24 24" xmlns="http://www.w3.org/2000/svg"><title>Saxo Bank</title><path d="M20.944 16.62a.444.444 0 0 1-.192.212.66.66 0 0 1-.32.07h-.274v-1.26h.284c.124 0 .228.02.312.068.084.047.151.12.19.208.047.11.07.23.066.35 0 .14-.022.26-.066.352Zm-.014-1.158a.952.952 0 0 0-.47-.11h-.634v1.838h.62a.98.98 0 0 0 .48-.11.74.74 0 0 0 .308-.316c.075-.154.11-.323.106-.494a1.058 1.058 0 0 0-.106-.492.736.736 0 0 0-.304-.316Zm-2.56.948h.8v-.28h-.8v-.5h.862v-.278h-1.196v1.838h1.202v-.28h-.868v-.5Zm-2.332-.78h.568v1.56h.33v-1.56h.568v-.278h-1.466v.28Zm-.636.684a.728.728 0 0 0-.172-.104 1.14 1.14 0 0 0-.2-.066l-.174-.042a1.102 1.102 0 0 1-.112-.034.492.492 0 0 1-.1-.048.224.224 0 0 1-.074-.072.204.204 0 0 1 .014-.222.262.262 0 0 1 .114-.086.46.46 0 0 1 .18-.032c.098 0 .18.022.24.066.061.041.1.108.106.182h.32a.476.476 0 0 0-.088-.274.56.56 0 0 0-.232-.188.82.82 0 0 0-.342-.068.848.848 0 0 0-.346.068.58.58 0 0 0-.24.19.472.472 0 0 0-.09.284c0 .132.044.238.132.316.088.08.208.14.36.178l.208.054c.059.014.116.033.172.056a.3.3 0 0 1 .116.08.18.18 0 0 1 .042.12.22.22 0 0 1-.048.136.306.306 0 0 1-.128.092.512.512 0 0 1-.19.032.534.534 0 0 1-.188-.03.28.28 0 0 1-.194-.254h-.33c.006.12.038.224.096.308.06.086.14.15.246.194s.23.066.372.066a.936.936 0 0 0 .376-.068.5.5 0 0 0 .32-.476.46.46 0 0 0-.044-.208.48.48 0 0 0-.12-.15h-.002Zm-2.632.096h.8v-.28h-.8v-.5h.862v-.278h-1.194v1.838h1.2v-.28h-.868v-.5Zm-1.67.388h-.02l-.478-1.446h-.364l.646 1.838h.412l.646-1.838h-.366l-.476 1.446Zm-1.688-.194h-.016l-.866-1.252h-.298v1.838h.332v-1.252h.016l.866 1.252h.296v-1.838H9.41v1.252h.002Zm-2.126.586h.332v-1.838h-.332v1.838Zm-2.334-.78h.8v-.28h-.8v-.5h.86v-.278H4.62v1.838h1.202v-.28h-.87v-.5Zm-1.294.432c-.054.046-.14.07-.262.07h-.36v-.54h.368c.068 0 .128.014.178.04a.274.274 0 0 1 .156.252.228.228 0 0 1-.08.18v-.002Zm-.62-1.214h.336c.1 0 .172.022.222.068.05.044.078.109.076.176a.25.25 0 0 1-.04.14.264.264 0 0 1-.11.09.37.37 0 0 1-.154.032h-.33v-.506Zm.832.67a.406.406 0 0 0-.188-.06v-.018a.474.474 0 0 0 .164-.07.368.368 0 0 0 .158-.322.458.458 0 0 0-.066-.244.452.452 0 0 0-.2-.17.78.78 0 0 0-.33-.06h-.704v1.836h.744c.14 0 .258-.022.35-.066a.474.474 0 0 0 .208-.18.484.484 0 0 0 .07-.254.47.47 0 0 0-.058-.24.412.412 0 0 0-.148-.152Zm3.866-5.892.786-1.92.79 1.92H7.736Zm1.32-3.532H8.022l-2.44 5.73H6.83l.494-1.2h2.4l.492 1.194.784-1.156-1.944-4.568Zm6.146 2.72 1.84-2.72h-1.334l-1.192 1.768-1.16-1.768h-1.384l1.87 2.742-2.032 2.988h1.34l1.376-2.022 1.342 2.02h1.376L15.2 9.598l.002-.004ZM1.476 8.504c0-.444.412-.694.966-.694.604 0 .92.288 1.084.64l1.122-.418c-.3-.772-1.122-1.248-2.132-1.248-1.346 0-2.232.814-2.232 1.806 0 1.97 3.228 1.246 3.228 2.376 0 .424-.438.692-1.064.692-.684 0-1.124-.37-1.31-.936L0 11.086c.266.978 1.192 1.606 2.412 1.606 1.332 0 2.316-.75 2.316-1.782 0-2.042-3.252-1.378-3.252-2.406ZM21 11.61c-.986 0-1.756-.784-1.756-1.872s.77-1.872 1.756-1.872c1.002 0 1.764.784 1.764 1.872S22.004 11.61 21 11.61Zm0-4.826c-1.684 0-2.992 1.33-2.992 2.954s1.308 2.956 2.992 2.956c1.686 0 3-1.33 3-2.956s-1.314-2.954-3-2.954Z"/></svg>