<svg role="img" viewBox="0 0 24 24" xmlns="http://www.w3.org/2000/svg"><title>Saxo Bank</title><path d="M20.944 16.62a.444.444 0 0 1-.192.211.658.658 0 0 1-.32.07h-.274v-1.26h.283c.125 0 .23.023.313.069a.443.443 0 0 1 .19.209.83.83 0 0 1 .065.35.835.835 0 0 1-.065.351Zm-.013-1.158a.952.952 0 0 0-.47-.11h-.636v1.838h.623a.98.98 0 0 0 .48-.11.74.74 0 0 0 .305-.317c.071-.137.106-.301.106-.493 0-.191-.035-.355-.106-.492a.736.736 0 0 0-.302-.316Zm-2.56.947h.8v-.279h-.8v-.499h.861v-.278h-1.195v1.837h1.202v-.279h-.87v-.502h.001Zm-2.334-.778h.568v1.559h.33v-1.559h.568v-.278h-1.466v.278Zm-.634.683a.728.728 0 0 0-.174-.104 1.14 1.14 0 0 0-.2-.065l-.173-.044a1.102 1.102 0 0 1-.112-.033.491.491 0 0 1-.101-.049.225.225 0 0 1-.072-.071.204.204 0 0 1 .014-.222.262.262 0 0 1 .114-.086.46.46 0 0 1 .178-.032.41.41 0 0 1 .241.066.245.245 0 0 1 .106.182h.32a.476.476 0 0 0-.088-.274.56.56 0 0 0-.231-.188.82.82 0 0 0-.343-.068.849.849 0 0 0-.346.068.58.58 0 0 0-.24.19.471.471 0 0 0-.09.284c0 .132.045.237.132.317a.83.83 0 0 0 .359.177l.209.054c.065.016.123.035.172.057.05.02.088.047.116.078a.182.182 0 0 1 .042.12.22.22 0 0 1-.047.137.306.306 0 0 1-.13.092.511.511 0 0 1-.19.033.534.534 0 0 1-.188-.032.28.28 0 0 1-.195-.255h-.327a.57.57 0 0 0 .095.31c.06.085.141.15.246.194s.23.067.372.067a.936.936 0 0 0 .377-.069.499.499 0 0 0 .32-.475.46.46 0 0 0-.045-.208.479.479 0 0 0-.121-.151Zm-2.633.095h.8v-.279h-.8v-.499h.863v-.278h-1.196v1.837h1.202v-.279h-.87l.001-.502Zm-1.67.39h-.02l-.478-1.446h-.365l.647 1.837h.411l.648-1.837h-.366l-.477 1.445Zm-1.689-.194h-.016l-.864-1.253h-.299v1.837h.333v-1.251h.015l.866 1.251h.296v-1.837H9.41v1.253Zm-2.125.584h.332v-1.837h-.332v1.837Zm-2.335-.78h.8v-.279h-.8v-.499h.862v-.278H4.618v1.837H5.82v-.279h-.87l.001-.502Zm-1.294.433c-.054.047-.14.07-.261.07h-.359v-.538h.367c.069 0 .128.012.178.038a.274.274 0 0 1 .156.251.227.227 0 0 1-.08.18Zm-.62-1.215h.337c.098 0 .173.023.222.07.05.045.075.104.075.175 0 .054-.013.1-.04.14a.263.263 0 0 1-.109.09.37.37 0 0 1-.155.032h-.33v-.507Zm.834.67a.405.405 0 0 0-.188-.059v-.018a.474.474 0 0 0 .162-.07.368.368 0 0 0 .116-.13.395.395 0 0 0 .043-.191.457.457 0 0 0-.066-.244.451.451 0 0 0-.198-.17.781.781 0 0 0-.332-.062h-.703v1.837h.743c.14 0 .257-.022.35-.065a.475.475 0 0 0 .209-.18.483.483 0 0 0 .068-.256.47.47 0 0 0-.057-.238.411.411 0 0 0-.147-.153Zm3.864-5.89.788-1.92.79 1.92H7.735Zm1.321-3.534H8.022l-2.44 5.73H6.83l.495-1.2h2.4l.493 1.195.784-1.157-1.945-4.568Zm6.145 2.722 1.843-2.722h-1.336l-1.192 1.768-1.16-1.768h-1.384l1.87 2.743-2.031 2.987h1.339l1.377-2.02 1.342 2.02h1.374l-2.042-3.008ZM1.477 8.505c0-.445.411-.696.966-.696.602 0 .918.29 1.082.641l1.124-.417c-.302-.772-1.124-1.25-2.132-1.25-1.348 0-2.233.814-2.233 1.807 0 1.97 3.229 1.246 3.229 2.376 0 .424-.439.692-1.065.692-.683 0-1.124-.37-1.31-.936L0 11.085c.265.978 1.193 1.608 2.412 1.608 1.332 0 2.317-.752 2.317-1.784 0-2.041-3.252-1.376-3.252-2.405ZM21 11.61c-.987 0-1.756-.785-1.756-1.873S20.014 7.866 21 7.866c1.002 0 1.762.784 1.762 1.872 0 1.089-.76 1.873-1.762 1.873Zm0-4.827c-1.685 0-2.994 1.33-2.994 2.955s1.31 2.955 2.994 2.955c1.684 0 2.999-1.33 2.999-2.955s-1.315-2.955-3-2.955Z"/></svg>