<svg role="img" viewBox="0 0 24 24" xmlns="http://www.w3.org/2000/svg"><title>Schoology</title><path d="M12.428.007c-2.011-.07-4.04.367-5.837 1.29l-.127.066c-.63.322-1.207.69-1.77 1.119l-.101.077c-.593.45-1.114.979-1.606 1.536C.84 6.59-.187 9.707.028 12.995c.265 2.856 1.522 5.778 3.706 7.695.086.074.17.15.254.227.237.219.48.43.732.631 2.392 1.87 5.581 2.746 8.598 2.39l.112-.015a12.013 12.013 0 0 0 5.405-2.058l.105-.073c.222-.154.44-.312.651-.48 2.448-2.017 3.984-4.916 4.348-8.059.303-3.01-.527-6.191-2.433-8.569l-.123-.15a9.26 9.26 0 0 0-.806-.916l-.13-.123c-.417-.4-.846-.779-1.309-1.126l-.094-.07A11.36 11.36 0 0 0 16.1.732l-.124-.045a11.647 11.647 0 0 0-3.549-.68zm-.245 2.026.155.007c1.553.06 3.131.455 4.478 1.242l.096.057c.43.253.847.512 1.23.833l.122.103c.563.434 1.03.933 1.488 1.475 1.634 2.05 2.438 4.65 2.168 7.27l-.017.144c-.243 2.098-1.199 4.296-2.745 5.768l-.114.105c-.641.62-1.319 1.194-2.105 1.62l-.183.096a10.124 10.124 0 0 1-5.788 1.173c-2.694-.306-5.082-1.637-6.778-3.743l-.065-.081a8.102 8.102 0 0 1-.832-1.255l-.052-.097-.105-.196c-1.171-2.229-1.437-4.927-.707-7.34l.033-.105a9.561 9.561 0 0 1 1.587-3.126l.076-.097c.172-.22.35-.433.539-.639 1.961-2.059 4.656-3.273 7.52-3.214zm-.49 3.434a7.998 7.998 0 0 0-.65.035l-.16.02c-.81.093-1.59.358-2.288.78-.748.51-1.248 1.22-1.448 2.101-.172.85-.066 1.725.412 2.457.897 1.262.897 1.262 4.834 2.072.778.16 1.674.251 2.306.776.318.306.448.727.469 1.16-.016.442-.138.914-.456 1.233l-.087.077c-.51.49-1.268.63-1.954.671-1.074.037-2.11-.07-2.932-.827-.538-.562-.73-1.28-.734-2.044l.007-.191c-.458.037-.907.112-1.359.189l-.261.044-.771.13c-.002.122-.002.243 0 .365.146.972.628 1.998 1.356 2.671 1.389 1.165 3.116 1.41 4.881 1.331 1.22-.074 2.654-.477 3.505-1.41l.082-.097c.386-.443.677-.888.851-1.453.214-.862.127-1.758-.307-2.537-.767-1.16-2.146-1.607-3.432-1.916a81.608 81.608 0 0 1-1.14-.276c-.738-.18-1.494-.339-2.187-.654-.446-.227-.761-.446-.926-.934-.1-.41-.028-.75.176-1.12.348-.518.88-.776 1.478-.91 1.065-.139 2.102.04 2.992.65.612.492.758 1.031.859 1.778l.025.198c.178 0 .178 0 .717-.069l.331-.042c.416-.052.83-.11 1.239-.2-.12-.987-.529-1.902-1.248-2.6-1.139-1.052-2.657-1.48-4.179-1.458z"/></svg>