<svg role="img" viewBox="0 0 24 24" xmlns="http://www.w3.org/2000/svg"><title>SciPy icon</title><path d="M11.923 0C5.341 0 0 5.341 0 11.924c0 6.582 5.341 11.923 11.924 11.923 6.582 0 11.923-5.341 11.923-11.923 0-1.503-.29-2.935-.797-4.26l.394-.262H24v-.237h-.474v-.592h-.237v.646l-.323.216C21.193 3.085 16.932.013 11.95.002h-.003A.253.253 0 0 0 11.923 0zm0 .506c4.679 0 8.692 2.812 10.457 6.837h-2.994a.177.177 0 0 0-.163.25l.302.665c-.9.334-1.52.373-1.922.259-.603-.173-1.032-.695-1.546-1.48-.513-.784-1.053-1.785-2.07-2.458-.51-.337-1.125-.55-1.848-.598-.717-.047-1.54.069-2.463.384-3.049.924-3.586 5.452-.613 6.96.98.552 1.998.734 2.906.961.914.229 1.706.487 2.384 1.068l.016.013.017.014c1.297.998 1.603 2.356 1.29 3.276-.313.916-1.124 1.572-2.945 1.176-2.195-.637-3.174-2.171-4.728-3.074a3.193 3.193 0 0 0-2.89-.175c-.973.417-1.996 1.271-3.284 2.675a11.37 11.37 0 0 1-1.324-5.335C.505 5.614 5.615.506 11.923.506zm.079 5.096c.452.024.782.166 1.072.358.579.383 1.047 1.142 1.598 1.985.551.842 1.245 1.812 2.475 2.164.857.246 1.854.147 3.07-.329l.19.416a.177.177 0 0 0 .28.058l2.092-1.859a11.398 11.398 0 0 1 .563 3.529c0 6.309-5.11 11.418-11.419 11.418-3.766 0-7.095-1.83-9.174-4.64 1.375-1.544 2.37-2.318 3.017-2.596.649-.278.913-.201 1.404.085.984.571 2.372 2.457 5.128 3.244l.023.006.024.006c2.416.537 4.324-.573 4.897-2.255.573-1.678-.065-3.745-1.835-5.113-.973-.825-2.066-1.157-3.037-1.4-.978-.244-1.84-.42-2.51-.803l-.02-.011-.02-.01c-1.735-.867-1.327-3.409.34-3.909l.016-.004.016-.006c.782-.27 1.358-.36 1.81-.335z"/></svg>