<svg role="img" viewBox="0 0 24 24" xmlns="http://www.w3.org/2000/svg"><title>SciPy icon</title><path d="M50.554.318C22.647.318 0 22.965 0 50.874s22.647 50.557 50.556 50.557 50.557-22.648 50.557-50.557c0-6.371-1.228-12.443-3.381-18.06l1.67-1.113h2.358v-1.004h-2.01v-2.509h-1.006v2.74l-1.37.915C89.86 13.4 71.793.373 50.671.327h-.01a1.072 1.072 0 0 0-.107-.008zm0 2.144c19.838 0 36.853 11.926 44.336 28.99H82.196a.752.752 0 0 0-.689 1.064l1.28 2.816c-3.813 1.415-6.449 1.583-8.15 1.097-2.558-.732-4.378-2.947-6.554-6.273-2.177-3.324-4.465-7.568-8.78-10.425-2.157-1.428-4.767-2.33-7.835-2.533-3.04-.201-6.527.291-10.441 1.628-12.928 3.917-15.205 23.116-2.6 29.507 4.153 2.345 8.471 3.116 12.32 4.078 3.878.97 7.235 2.065 10.11 4.527l.066.058.074.059c5.497 4.228 6.797 9.986 5.467 13.889-1.324 3.883-4.762 6.663-12.486 4.984-9.304-2.698-13.457-9.203-20.045-13.033-3.307-1.923-7.764-2.664-12.253-.74-4.125 1.768-8.463 5.39-13.923 11.34a48.207 48.207 0 0 1-5.614-22.62c0-26.751 21.662-48.413 48.412-48.413zm.334 21.607c1.917.105 3.316.706 4.544 1.52 2.455 1.624 4.44 4.842 6.778 8.414 2.337 3.571 5.276 7.686 10.492 9.179 3.636 1.04 7.864.622 13.016-1.395l.807 1.76a.752.752 0 0 0 1.188.25l8.871-7.884a48.326 48.326 0 0 1 2.384 14.961c0 26.75-21.663 48.413-48.413 48.413-15.97 0-30.086-7.755-38.9-19.67 5.83-6.55 10.048-9.831 12.792-11.008 2.752-1.18 3.87-.854 5.955.358 4.17 2.424 10.054 10.418 21.74 13.756l.1.025.1.025c10.244 2.277 18.336-2.43 20.766-9.561 2.426-7.114-.279-15.878-7.784-21.681-4.123-3.495-8.76-4.904-12.875-5.932-4.145-1.036-7.802-1.783-10.64-3.405l-.084-.05-.091-.042c-7.352-3.676-5.625-14.451 1.444-16.572l.068-.017.066-.025c3.316-1.144 5.758-1.527 7.676-1.42z"/></svg>