<svg role="img" viewBox="0 0 24 24" xmlns="http://www.w3.org/2000/svg"><title>Scribus</title><path d="M11.4807 0C5.2522 0 .198 5.3754.198 12c0 3.1825 1.1888 6.235 3.3046 8.4853S8.4884 24 11.4807 24c2.9922 0 5.8621-1.2644 7.978-3.5147S22.7632 15.1825 22.7632 12c0-1.957-.451-3.864-1.2892-5.5663.2346-.4112.4652-.7643.6681-1.0404.538.0301.9843-.1027 1.2796-.3809.7993-.7622.2973-2.386-1.1212-3.6268C21.3829.5829 20.2592.1043 19.3526.1299c-.4454.0126-.8136.1468-1.0677.389-.3957.3903-.474 1.022-.2159 1.743C16.1617.8024 13.8606 0 11.4807 0m0 .4877c2.4432 0 4.7994.8813 6.699 2.4739-1.2873 2.6962-3.3245 5.9413-3.6419 6.5778-.9986 1.4387-3.1134 8.5395-3.9592 11.5792l.274.014c-.08-.0778 3.942-6.2781 8.8584-7.1201.0075-3.307.7334-5.5737 1.4882-7.0746.719 1.5617 1.1055 3.2902 1.1055 5.062 0 3.0534-1.1403 5.9815-3.1703 8.1405s-4.783 3.3719-7.6537 3.3719c-2.8708 0-5.6238-1.2129-7.6538-3.372S.6567 15.0534.6567 12c0-1.2233.1807-2.4011.5126-3.5069.5135 6.426 8.954 12.5283 8.9117 12.3935 0 0-3.016-4.9628-.6751-9.9771 1.858-4.0256 2.4357-7.7321.93-10.3572a10.3 10.3 0 0 1 1.1448-.0646M9.7736.6313C8.023.9587 6.4533 1.7222 5.3054 2.5456 6.6136 1.5774 8.1314.9077 9.7736.6313m12.1123 2.1543.2949.5534c-.3873.7277-.7952 1.4682-1.1907 2.2096a12 12 0 0 0-.339-.5338c.5783-1.0836 1.0446-1.9298 1.2348-2.2292m-17.646.6567c-.0314.0317-.0653.0637-.0952.0951C3.0613 4.6352 2.3284 5.765 1.835 6.7761c.606-1.2638 1.423-2.3935 2.4048-3.3338m16.1619 2.043c.1162.18.2285.3626.3347.549-1.1685 2.2325-2.1562 4.4597-2.0263 6.4-1.056.2163-1.526.9258-2.5925 1.7976.724-1.8464 2.805-5.9534 4.284-8.7466M1.7929 6.8636c-.0565.1185-.1056.2327-.1557.3475q.0753-.1753.1557-.3475M15.1532 9.911a.117.117 0 0 1 .0735.0196c.1394.097.0515.5237-.1964.9529-.2035.3521-.4585.6065-.6213.6198-.0565.0927-.139.2578-.2413.4856-.1205.268-.2677.6174-.4327 1.0233-.3024.744-.666 1.6849-1.033 2.6565-.8275 2.2447-1.701 4.6805-1.9347 5.4203l-.0005.0015-.0002.0006-.058-.0192.0002-.0005.0005-.0012c.2343-.7874 1.035-3.0317 1.837-5.1645.0337-.0897.066-.1722.0997-.2614l.0037-.0104c.4147-1.1248.8175-2.201 1.1225-2.9917.1525-.3954.2805-.7194.3734-.9427.0464-.1117.084-.198.1118-.2563.0079-.0166.0134-.026.0198-.038-.053-.1707.048-.5268.2479-.8732.2065-.3576.4658-.614.628-.621z"/></svg>