<svg role="img" viewBox="0 0 24 24" xmlns="http://www.w3.org/2000/svg"><title>Scribd</title><path d="M17.277 10.683c1.314 0 2.375.483 3.183 1.45.809.967 1.213 2.313 1.213 4.038 0 2.377-.742 4.241-2.226 5.59-1.45 1.317-3.506 2.094-5.567 2.187-.378.033-.765.052-1.164.052-3.579 0-6.993-1.302-9.611-3.666l-.778-.703 3.059-3.646 1.771 1.39-1.7 1.999a12.035 12.035 0 0 0 7.259 2.41c3.12 0 5.277-1.189 6.118-3.268.047-.208.072-.423.072-.645 0-.616-.252-.924-.757-.924-.114 0-.342.043-.683.129a4.386 4.386 0 0 1-.853.111c-.695 0-1.349-.274-1.961-.822-.613-.548-.92-1.303-.92-2.264 0-.936.316-1.74.948-2.411.632-.672 1.497-1.007 2.597-1.007ZM11.637 0c3.218 0 6.066.988 8.465 2.936l.794.644-2.545 3.664-1.878-1.25 1.354-1.962c-1.8-1.205-3.878-1.816-6.19-1.816-1.201 0-2.272.226-3.171.637a7.224 7.224 0 0 0-.921.569c-1.023.746-1.534 1.635-1.534 2.67 0 .616.252.924.757.924.114 0 .342-.043.683-.129.353-.074.638-.111.853-.111.695 0 1.348.274 1.961.822.613.549.92 1.303.92 2.264 0 .936-.317 1.74-.948 2.412-.632.671-1.497 1.007-2.597 1.007-1.314 0-2.375-.484-3.183-1.451-.809-.967-1.243-2.333-1.243-4.058 0-.085.003-.168-.005-.252v-.06C3.209 3.067 6.674 0 11.637 0Z"/></svg>