<svg role="img" viewBox="0 0 24 24" xmlns="http://www.w3.org/2000/svg"><title>Scully icon</title><path d="M22.377 1.193a1.72 1.72 0 0 0-1.4-1.064A22.6 22.6 0 0 0 .329 9.25a1.72 1.72 0 0 0-.176 1.72 22.616 22.616 0 0 0 7.24 8.88 22.864 22.864 0 0 0 10.36 4.136 1.688 1.688 0 0 0 1.584-.656 22.768 22.768 0 0 0 4.432-10.488 22.64 22.64 0 0 0-1.392-11.648zm-11.768 3.44a8.936 8.936 0 0 1 3.24-.504c1.696.056 3.672.456 5.584 2.952a.864.864 0 0 1-.888 1.376.864.864 0 0 1-.496-.32c-1.2-1.568-2.336-2.216-4.256-2.272a7.36 7.36 0 0 0-2.544.384.872.872 0 1 1-.64-1.616zm6.904 13.48a8.72 8.72 0 0 1-3.232.504 8.176 8.176 0 0 1-1.56-.2c-1.448-.328-3.096-1.128-4.472-2.936a.872.872 0 1 1 1.384-1.048c1.2 1.568 2.776 2.392 4.696 2.448a7.208 7.208 0 0 0 2.552-.384.868.868 0 0 1 .632 1.616zm2.12-2.768a.92.92 0 0 1-1 .608l-.176-.04a.928.928 0 0 1-.568-1.184c.288-.824.016-1.2-.072-1.32-.712-1.008-3.144-1.096-4.152-1.088-2.472.016-4.128-.592-4.928-1.808s-.488-2.512-.208-3.136a.928.928 0 0 1 1.696.744c-.008.024-.32.808.064 1.384s1.616.976 3.36.96c2.872-.016 4.776.608 5.68 1.864.6.84.704 1.88.304 3.016z"/></svg>