<svg role="img" viewBox="0 0 24 24" xmlns="http://www.w3.org/2000/svg"><title>ScyllaDB</title><g style="opacity:1"><path d="M288.7 159.546c-22.76 0-41.346-18.503-41.346-41.346 0-22.843 18.503-41.346 41.346-41.346 22.76 0 41.346 18.503 41.346 41.346 0 22.843-18.585 41.346-41.346 41.346zm0-78.353c-20.468 0-37.088 16.62-37.088 37.089 0 20.468 16.62 37.088 37.088 37.088s37.088-16.62 37.088-37.088-16.702-37.089-37.088-37.089z" style="stroke-width:.818729" transform="matrix(.08919 0 0 .08919 -16.912 -2.646)"/><path d="M9.536 5.051c-.735.15-.877 1.754-.443 2.197.292.292.877.381.877.584 0 .204-.584.292-.877.585-.443.443-.292 2.046.443 2.197.867.177 2.197-.877 2.197-2.781 0-1.905-1.33-2.96-2.197-2.781zm4.561 6.165a1.325 1.325 0 0 0-.726-.407h-.035a.235.235 0 0 0-.248.212.235.235 0 0 0 .212.248.82.82 0 0 1 .355.106 11.16 11.16 0 0 1-3.703 1.622c-1.373.327-2.798.39-4.198.185a.191.191 0 0 0-.221.16.191.191 0 0 0 .159.22c.212.037.434.063.647.081 0 .008 0 .017.008.026.186.559.665 1.302 1.285 1.302a.747.747 0 0 0 .195-.026c.23-.053.61-.292.61-1.25 0-.017-.008-.026-.008-.044a12.435 12.435 0 0 0 1.612-.247c.053-.009.106-.027.15-.036.125.497.31 1.116.93 1.116.257 0 .532-.141.744-.381.178-.203.46-.664.373-1.435a11.568 11.568 0 0 0 1.744-.973.827.827 0 0 1 .115.292c.018.08.09.133.169.124a.152.152 0 0 0 .141-.169 1.18 1.18 0 0 0-.31-.726Zm-6.11 2.489c0 .442-.108.762-.267.797-.345.089-.7-.425-.867-.815.38.018.752.018 1.133 0 .008.009 0 .018 0 .018zm3.55.106c-.115.133-.265.221-.389.221-.213 0-.337-.186-.487-.77.39-.115.778-.248 1.151-.399.018.381-.08.718-.274.949z"/><path d="M18.8 2.448C17.039.88 14.559.012 11.813.012c-2.746 0-5.225.868-6.989 2.436-1.77 1.576-2.745 3.808-2.745 6.27 0 2.374 2.383 13.57 2.48 14.047a1.587 1.587 0 0 0 1.54 1.241c.09 0 .17-.009.258-.018.15-.027.292-.071.434-.142.3.133.637.187.965.124a1.468 1.468 0 0 0 .673-.31 1.58 1.58 0 0 0 1.63.203c.23-.105.425-.265.575-.45a1.6 1.6 0 0 0 .807.54c.142.044.284.061.425.061a1.61 1.61 0 0 0 .824-.24c.124-.079.239-.167.336-.273.027-.027.054-.054.072-.08a1.597 1.597 0 0 0 1 .567c.39.062.797-.036 1.117-.257a.347.347 0 0 0 .088-.07c.186.15.407.256.637.3.169.036.337.045.505.027a1.5 1.5 0 0 0 .434-.115c.124.053.248.088.381.115a1.581 1.581 0 0 0 1.799-1.223c.097-.478 2.479-11.664 2.479-14.047.009-2.462-.965-4.685-2.736-6.27zm-.186 20.22a1.126 1.126 0 0 1-1.222.868 1.568 1.568 0 0 0 .443-.831l.07-.426.275-1.691c.09-.568.178-1.134.249-1.7a.156.156 0 0 0-.116-.17.16.16 0 0 0-.186.116c-.123.558-.238 1.124-.354 1.683l-.328 1.683-.08.415a1.32 1.32 0 0 1-.123.329.947.947 0 0 1-.222.274 1.054 1.054 0 0 1-.292.195 1.468 1.468 0 0 1-.337.097 1.192 1.192 0 0 1-.354-.017 1.162 1.162 0 0 1-.416-.178 1.605 1.605 0 0 0 .239-.53c.018-.045.018-.098.027-.143 0-.027.008-.052.008-.07l.01-.063.025-.247.054-.496.097-.993c.063-.664.124-1.328.169-1.993a.148.148 0 0 0-.133-.159.164.164 0 0 0-.178.133c-.097.656-.186 1.32-.274 1.976l-.124.991-.062.496c-.018.16-.035.346-.07.46a1.101 1.101 0 0 1-.471.656 1.108 1.108 0 0 1-.778.169 1.108 1.108 0 0 1-.7-.4 1.128 1.128 0 0 1-.115-.167c.026-.071.044-.142.061-.204.036-.141.036-.292.036-.407l.008-.736c.01-.486.019-.982.019-1.47.008-.486.008-.983 0-1.47 0-.08-.063-.15-.142-.15a.144.144 0 0 0-.16.141c-.027.487-.061.983-.08 1.47-.026.487-.044.984-.07 1.47l-.035.736c0 .062 0 .124-.01.177 0 .053-.008.098-.017.15a1.133 1.133 0 0 1-.106.284 1.11 1.11 0 0 1-.993.594.883.883 0 0 1-.3-.045 1.5 1.5 0 0 1-.275-.115 1.151 1.151 0 0 1-.416-.434c-.054-.09-.08-.186-.107-.284-.026-.097-.026-.194-.035-.327l-.036-.736a74.586 74.586 0 0 0-.07-1.47l-.08-1.47a.154.154 0 0 0-.15-.142.15.15 0 0 0-.152.151v1.47c0 .487.01.983.018 1.47l.01.736c0 .115.008.266.035.407.018.071.035.142.061.213a1.168 1.168 0 0 1-.522.47 1.108 1.108 0 0 1-1.338-.346.985.985 0 0 1-.176-.328 1.403 1.403 0 0 1-.045-.186c-.008-.027-.008-.07-.018-.106l-.018-.115-.23-1.799c-.08-.601-.159-1.204-.256-1.797-.009-.08-.08-.133-.16-.133a.152.152 0 0 0-.142.167c.045.603.098 1.205.151 1.808l.177 1.806.009.115c0 .036.009.072.018.124.009.09.035.178.062.257.044.151.124.292.213.426a1.161 1.161 0 0 1-.443.186c-.23.044-.47.008-.683-.09a1.146 1.146 0 0 1-.504-.478 1.468 1.468 0 0 1-.124-.327l-.08-.416-.328-1.674c-.115-.558-.23-1.116-.354-1.674-.018-.08-.089-.133-.168-.115-.08.008-.142.089-.133.177.08.567.16 1.125.248 1.692l.274 1.682.071.426c.027.168.09.327.16.47.07.132.159.256.275.362-.019 0-.028.009-.045.009a1.125 1.125 0 0 1-1.276-.86c-.026-.115-2.47-11.62-2.47-13.95 0-2.338.92-4.437 2.586-5.935C6.763 1.297 9.137.472 11.767.472c2.631 0 5.004.824 6.679 2.321 1.673 1.488 2.586 3.596 2.586 5.934.053 2.33-2.392 13.835-2.419 13.941z"/></g></svg>
