<svg role="img" viewBox="0 0 24 24" xmlns="http://www.w3.org/2000/svg"><title>seaborn</title><path d="M12.0007 0a12 12 0 0 0-4.5925.9141 12 12 0 0 0-3.8938 2.6003A12 12 0 0 0 .914 7.4082 12 12 0 0 0 0 12.0007c0 1.5759.311 3.1366.9141 4.5926a12 12 0 0 0 2.6003 3.8938A12.002 12.002 0 0 0 12.0007 24a12.003 12.003 0 0 0 8.4864-3.513A12.003 12.003 0 0 0 24 12.0008a12.002 12.002 0 0 0-3.513-8.4863A12 12 0 0 0 16.5934.914 12 12 0 0 0 12.0007 0m0 .394c1.5242 0 3.0335.3001 4.4417.8834a11.61 11.61 0 0 1 3.7649 2.5168A11.61 11.61 0 0 1 22.724 7.559a11.607 11.607 0 0 1 0 8.8834 11.61 11.61 0 0 1-2.5167 3.7649 11.61 11.61 0 0 1-3.765 2.5167 11.608 11.608 0 0 1-8.8833 0 11.61 11.61 0 0 1-3.7648-2.5167 11.61 11.61 0 0 1-2.5168-3.765 11.61 11.61 0 0 1-.8833-4.4416c0-1.5242.3-3.0335.8833-4.4417a11.61 11.61 0 0 1 2.5168-3.7648A11.61 11.61 0 0 1 7.559 1.2774a11.61 11.61 0 0 1 4.4417-.8833m1.8194.5904a.393.393 0 0 0-.2768.1158.388.388 0 0 0-.1143.2754c0 .1038.041.2036.1143.2768a.39.39 0 0 0 .1391.0894.0221.0221 0 0 1 0 .041.44.44 0 0 0-.1655.1026.433.433 0 0 0-.1274.3061.433.433 0 0 0 .1274.3062.433.433 0 0 0 .6138 0 .433.433 0 0 0 .1274-.3062.433.433 0 0 0-.2959-.4101.0221.0221 0 0 1-.0014-.041.393.393 0 0 0 .2505-.3648.39.39 0 0 0-.1158-.2754.39.39 0 0 0-.2754-.1158m-.8305.1597a.352.352 0 0 0-.2477.104.347.347 0 0 0-.1025.2461c0 .0929.037.1821.1025.2476a.35.35 0 0 0 .2433.101q.0014.0002.0029 0l.0015.0015h.0014a.347.347 0 0 0 .2447-.1025.352.352 0 0 0 .104-.2476.35.35 0 0 0-.104-.246.35.35 0 0 0-.2461-.104m-1.6964.0337a.21.21 0 0 0-.151.063.216.216 0 0 0-.0644.1523c0 .0572.0238.1118.0644.1524a.213.213 0 0 0 .151.0645.216.216 0 0 0 .1523-.0645.216.216 0 0 0 .0645-.1524.216.216 0 0 0-.0645-.1523.215.215 0 0 0-.1523-.063m.8657.0776a.3.3 0 0 0-.2109.0894.2975.2975 0 0 0 0 .4219.298.298 0 0 0 .211.0879.3.3 0 0 0 .2123-.0879.2975.2975 0 0 0 0-.4219.303.303 0 0 0-.2124-.0894m-3.7678.293a.33.33 0 0 0-.233.0967.329.329 0 0 0 0 .4659.33.33 0 0 0 .233.0981.33.33 0 0 0 .233-.0981.33.33 0 0 0 .098-.233.33.33 0 0 0-.098-.2329.33.33 0 0 0-.233-.0967m7.2426.0484a.292.292 0 0 0-.2065.0864.292.292 0 0 0-.0864.2066c0 .0777.0314.1516.0864.2065a.292.292 0 0 0 .2065.0864.292.292 0 0 0 .2066-.0864.292.292 0 0 0 .0864-.2065.292.292 0 0 0-.0864-.2066.292.292 0 0 0-.2066-.0864m-6.0662.0542a.408.408 0 0 0-.2886.12.408.408 0 0 0-.1202.2887.408.408 0 0 0 .1202.2886.408.408 0 0 0 .2886.1201.408.408 0 0 0 .2885-.1201.408.408 0 0 0 .1202-.2886.408.408 0 0 0-.1202-.2886.408.408 0 0 0-.2885-.1201m.9067.1216a.19.19 0 0 0-.1347.0571.19.19 0 0 0-.0557.1348.19.19 0 0 0 .1904.1904c.051 0 .0991-.02.1348-.0557a.192.192 0 0 0 .0571-.1347.192.192 0 0 0-.057-.1348.192.192 0 0 0-.1349-.0571m4.1708.0278a.225.225 0 0 0-.1584.066.22.22 0 0 0-.0659.1567c0 .0594.0241.1163.066.1582a.225.225 0 0 0 .1583.0659.224.224 0 0 0 .1582-.066.225.225 0 0 0 .0659-.1581.22.22 0 0 0-.066-.1568.224.224 0 0 0-.1581-.0659m-7.02.0615a.295.295 0 0 0-.2095.0865.297.297 0 0 0-.088.2094c0 .0788.0324.1554.088.211a.295.295 0 0 0 .2095.0864.295.295 0 0 0 .2094-.0864.3.3 0 0 0 .088-.211.297.297 0 0 0-.088-.2094.295.295 0 0 0-.2094-.0865m5.3148.0205a.392.392 0 0 0-.277.1158.392.392 0 0 0-.1157.2768c0 .104.0422.2034.1157.277a.392.392 0 0 0 .277.1156.392.392 0 0 0 .2768-.1157.392.392 0 0 0 .1158-.2769.392.392 0 0 0-.1158-.2768.39.39 0 0 0-.2285-.11l-.0015-.0014h-.0044c-.0162-.0018-.0295-.0044-.0424-.0044m3.3883.2447a.375.375 0 0 0-.2652.1113.375.375 0 0 0-.1113.2652.38.38 0 0 0 .1113.2666.374.374 0 0 0 .2653.1098c.0778 0 .1495-.0289.2138-.0747a.0222.0222 0 0 1 .0337.0264.44.44 0 0 0-.0337.1655c0 .1159.047.2272.1289.3091.082.082.1918.129.3077.129a.438.438 0 0 0 .309-.129.438.438 0 0 0 .129-.309.435.435 0 0 0-.129-.3077.438.438 0 0 0-.309-.1289.435.435 0 0 0-.2652.0923.0222.0222 0 0 1-.0337-.025c.0146-.041.0249-.0824.0249-.1244a.375.375 0 0 0-.1113-.2652.375.375 0 0 0-.2651-.1113m-4.9382.1816a.32.32 0 0 0-.2257.0953.318.318 0 0 0 0 .4511.32.32 0 0 0 .2257.0953.323.323 0 0 0 .227-.0953.3183.3183 0 0 0 0-.4511.323.323 0 0 0-.227-.0953m3.9406.0791a.327.327 0 0 0-.2314.0967.327.327 0 0 0-.0967.2315c0 .0872.035.1713.0967.2329a.327.327 0 0 0 .2314.0967.3303.3303 0 0 0 .3296-.3296.3304.3304 0 0 0-.3296-.3281m-4.994.1304a.253.253 0 0 0-.1787.0747.253.253 0 0 0-.0747.1787c0 .0672.0273.1313.0747.1788a.253.253 0 0 0 .1787.0747.253.253 0 0 0 .1788-.0747.253.253 0 0 0 .0747-.1788.253.253 0 0 0-.0747-.1787.253.253 0 0 0-.1788-.0747m2.114.0469a.402.402 0 0 0-.2843.1186.402.402 0 0 0-.1186.2842.4053.4053 0 0 0 .4028.4044c.107 0 .2086-.043.2842-.1187a.407.407 0 0 0 .1201-.2857.403.403 0 0 0-.12-.2842.402.402 0 0 0-.2843-.1186m-3.926.0322a.4.4 0 0 0-.2843.1187.4.4 0 0 0-.1186.2842c0 .107.043.21.1186.2856a.4.4 0 0 0 .2842.1187.405.405 0 0 0 .4043-.4043.4.4 0 0 0-.1186-.2842.405.405 0 0 0-.2857-.1187m9.2714.063a.235.235 0 0 0-.1655.0703.2335.2335 0 0 0 0 .3311.2334.2334 0 0 0 .3311 0 .235.235 0 0 0 .0703-.1655.235.235 0 0 0-.0703-.1656.235.235 0 0 0-.1656-.0703m-3.2345.1084a.297.297 0 0 0-.211.088.302.302 0 0 0-.0893.2123c0 .0796.033.156.0893.2124a.297.297 0 0 0 .211.088.3.3 0 0 0 .2125-.088.302.302 0 0 0 .0893-.2124.302.302 0 0 0-.0893-.2124.3.3 0 0 0-.2125-.0879m-7.8535.123a.304.304 0 0 0-.2153.0894.304.304 0 0 0-.0894.2154c0 .0812.0322.1596.0894.2168a.304.304 0 0 0 .2153.0893.307.307 0 0 0 .2168-.0893.307.307 0 0 0 .0894-.2168.304.304 0 0 0-.0894-.2154.307.307 0 0 0-.2168-.0893m.8145.0352a.362.362 0 0 0-.2563.107.363.363 0 0 0-.107.2563c0 .0964.0388.1882.107.2564.0681.0682.16.107.2563.107a.362.362 0 0 0 .2564-.107.362.362 0 0 0 .107-.2564.362.362 0 0 0-.107-.2563.362.362 0 0 0-.2564-.107m5.766.0279a.2.2 0 0 0-.1421.0586.205.205 0 0 0-.06.1435c0 .0536.022.1041.06.1421s.0885.06.142.06a.205.205 0 0 0 .1437-.06.2.2 0 0 0 .06-.142.205.205 0 0 0-.06-.1436.203.203 0 0 0-.1436-.0586m2.8492.0981a.42.42 0 0 0-.2959.123.4155.4155 0 0 0 0 .5904.42.42 0 0 0 .296.123.42.42 0 0 0 .2959-.123.416.416 0 0 0 .123-.2944.42.42 0 0 0-.123-.296.42.42 0 0 0-.296-.123m-6.8749.1157a.207.207 0 0 0-.148.0616.212.212 0 0 0-.0629.1494c0 .056.0233.1097.063.1494a.208.208 0 0 0 .148.063.212.212 0 0 0 .1494-.063.212.212 0 0 0 .063-.1494.212.212 0 0 0-.063-.1494.21.21 0 0 0-.1495-.0616m-3.756.0425a.23.23 0 0 0-.1626.0674.23.23 0 0 0-.0689.1626c0 .061.0255.1193.0689.1626a.23.23 0 0 0 .1626.0689.23.23 0 0 0 .1626-.0689.23.23 0 0 0 .0674-.1626.23.23 0 0 0-.0674-.1626.23.23 0 0 0-.1626-.0674m12.824.0132a.326.326 0 0 0-.23.0952.323.323 0 0 0-.0952.2286c0 .086.0345.1692.0952.23a.326.326 0 0 0 .23.0952.322.322 0 0 0 .2285-.0952.326.326 0 0 0 .0952-.23.323.323 0 0 0-.0952-.2286.322.322 0 0 0-.2285-.0952m-3.2331.1582a.377.377 0 0 0-.2666.1114.377.377 0 0 0-.1113.2666.377.377 0 0 0 .1113.2666c.0583.0584.1353.09.2182.101a.0222.0222 0 0 1 .0044.0426.43.43 0 0 0-.1655.101.423.423 0 0 0-.1245.3003.427.427 0 0 0 .1245.3018.427.427 0 0 0 .3018.1245.423.423 0 0 0 .3003-.1245.428.428 0 0 0 .126-.3018.425.425 0 0 0-.126-.3003.423.423 0 0 0-.2432-.12.0222.0222 0 0 1-.006-.0426.38.38 0 0 0 .1232-.082.378.378 0 0 0 .1113-.2666.377.377 0 0 0-.1113-.2666.377.377 0 0 0-.2666-.1114m-3.7795.0572a.387.387 0 0 0-.274.1142.387.387 0 0 0-.1143.274c0 .103.0415.2026.1143.2754a.387.387 0 0 0 .274.1142.387.387 0 0 0 .2739-.1142.39.39 0 0 0 .1143-.2754.388.388 0 0 0-.1143-.274.387.387 0 0 0-.274-.1142m-2.9475.0322a.442.442 0 0 0-.312.1304.442.442 0 0 0-.1304.312c0 .1172.0474.229.1304.312a.442.442 0 0 0 .312.1304.442.442 0 0 0 .312-.1304.442.442 0 0 0 .1304-.312.442.442 0 0 0-.1304-.312.442.442 0 0 0-.312-.1304m2.0743.0044a.332.332 0 0 0-.2358.0981.337.337 0 0 0-.0996.2373.337.337 0 0 0 .0996.2374.332.332 0 0 0 .2358.0981.3353.3353 0 0 0 .3355-.3355.3353.3353 0 0 0-.3355-.3354m-4.1647.107a.326.326 0 0 0-.23.0951.326.326 0 0 0-.0953.23c0 .0862.0344.1677.0953.2286a.328.328 0 0 0 .23.0966.324.324 0 0 0 .2285-.0966.322.322 0 0 0 .0952-.2286.326.326 0 0 0-.0952-.23.322.322 0 0 0-.2285-.0952m10.8199.038a.26.26 0 0 0-.1831.0762.26.26 0 0 0-.0761.1831c0 .0689.0276.1345.076.1831a.26.26 0 0 0 .1832.0762.26.26 0 0 0 .1831-.0762.26.26 0 0 0 .0762-.1831.26.26 0 0 0-.0762-.1831.26.26 0 0 0-.1831-.0762m-7.3788.268a.312.312 0 0 0-.2212.0924.316.316 0 0 0-.0923.2226c0 .0833.0334.1624.0923.2212a.312.312 0 0 0 .2212.0923.312.312 0 0 0 .2212-.0923.314.314 0 0 0 .0937-.2212.317.317 0 0 0-.0937-.2226.312.312 0 0 0-.2212-.0923m4.2834.0074a.344.344 0 0 0-.2417.101.34.34 0 0 0-.0996.2403c0 .0907.0357.1763.0996.2403.064.064.1513.101.2417.101a.34.34 0 0 0 .2402-.101.34.34 0 0 0 .1011-.2403.34.34 0 0 0-.101-.2402.34.34 0 0 0-.2403-.101m-6.5101.0161a.418.418 0 0 0-.296.123.42.42 0 0 0-.12.2696.0222.0222 0 0 1-.0396.0132c-.0095-.0113-.0155-.0213-.022-.0278a.393.393 0 0 0-.2769-.1158.393.393 0 0 0-.2768.1158.39.39 0 0 0-.1158.2754.393.393 0 0 0 .1158.2769.393.393 0 0 0 .2768.1157.393.393 0 0 0 .277-.1157.388.388 0 0 0 .1112-.2403.0222.0222 0 0 1 .0396-.0117c.0119.0151.0207.028.0308.038a.418.418 0 0 0 .2959.1231.418.418 0 0 0 .2959-.123.42.42 0 0 0 .1245-.296.424.424 0 0 0-.1245-.2973.418.418 0 0 0-.296-.123m5.5228.003a.27.27 0 0 0-.2696.2695c0 .0714.0286.1385.0791.189a.27.27 0 0 0 .1905.079.266.266 0 0 0 .189-.079.2666.2666 0 0 0 0-.3794.266.266 0 0 0-.189-.0791m-7.455.0073a.297.297 0 0 0-.2095.0879.295.295 0 0 0-.0865.2095c0 .079.031.1554.0865.211a.295.295 0 0 0 .2094.0863.3.3 0 0 0 .211-.0864.3.3 0 0 0 .0864-.211.295.295 0 0 0-.0864-.2094.3.3 0 0 0-.211-.088m13.7966.0044a.43.43 0 0 0-.3032.126.43.43 0 0 0-.126.3032c0 .1138.0455.2213.126.3018a.43.43 0 0 0 .3032.1274.427.427 0 0 0 .3018-.1274.427.427 0 0 0 .1275-.3018.43.43 0 0 0-.1275-.3032.426.426 0 0 0-.3018-.126m-1.4796.0249a.343.343 0 0 0-.2417.1025.34.34 0 0 0-.101.2417c0 .0911.0366.1773.101.2418a.343.343 0 0 0 .2417.1025.346.346 0 0 0 .2433-.1025.34.34 0 0 0 .101-.2418.34.34 0 0 0-.101-.2417.346.346 0 0 0-.2433-.1025m-5.7088.0088a.188.188 0 0 0-.1333.0556.188.188 0 0 0-.0556.1333c0 .0503.0204.0996.0556.1348a.188.188 0 0 0 .1333.0557.188.188 0 0 0 .1333-.0557.192.192 0 0 0 .0557-.1348.188.188 0 0 0-.0557-.1333.188.188 0 0 0-.1333-.0556m-1.2965.1992a.406.406 0 0 0-.2856.1201.4.4 0 0 0-.1187.2842c0 .1073.043.21.1187.2857a.404.404 0 0 0 .2856.1186.4.4 0 0 0 .2842-.1186.405.405 0 0 0 .1202-.2857.402.402 0 0 0-.1202-.2842.402.402 0 0 0-.2842-.1201m-6.1233.063a.257.257 0 0 0-.1802.0762.25.25 0 0 0-.0747.1787.255.255 0 0 0 .5098 0 .25.25 0 0 0-.0748-.1787.257.257 0 0 0-.1801-.0762m11.8264.1523a.28.28 0 0 0-.1978.082.277.277 0 0 0-.082.1964c0 .074.0297.144.082.1963a.282.282 0 0 0 .1978.0835.28.28 0 0 0 .1963-.0835.277.277 0 0 0 .082-.1963.277.277 0 0 0-.082-.1963.277.277 0 0 0-.1963-.082m1.9952.107a.417.417 0 0 0-.2944.123.417.417 0 0 0-.1231.2945c0 .1104.0449.2163.123.2944a.416.416 0 0 0 .5875 0 .418.418 0 0 0 .123-.2944.417.417 0 0 0-.123-.2945.414.414 0 0 0-.293-.123m-10.0216.107a.278.278 0 0 0-.1963.082.278.278 0 0 0-.082.1963c0 .0736.03.1442.082.1963.052.052.1227.082.1963.082s.1442-.03.1963-.082a.278.278 0 0 0 .082-.1963.278.278 0 0 0-.082-.1963.278.278 0 0 0-.1963-.082m1.604.0365a.39.39 0 0 0-.2753.1143.39.39 0 0 0-.1143.2754c0 .1034.0413.2024.1143.2754s.172.1143.2754.1143a.39.39 0 0 0 .2754-.1143.39.39 0 0 0 .1143-.2754.39.39 0 0 0-.1143-.2754.39.39 0 0 0-.2754-.1143m-.8261.0425a.34.34 0 0 0-.2403.1011.34.34 0 0 0-.101.2403c0 .0903.037.1762.101.2402s.15.101.2403.101a.34.34 0 0 0 .2402-.101.34.34 0 0 0 .1011-.2402.34.34 0 0 0-.101-.2403.34.34 0 0 0-.2403-.101m10.8244.0367a.276.276 0 0 0-.1963.082.28.28 0 0 0-.0835.1978.278.278 0 0 0 .0835.1963.278.278 0 0 0 .1963.0835.28.28 0 0 0 .1977-.0835.276.276 0 0 0 .082-.1963.28.28 0 0 0-.2797-.2798m-2.4319.019a.382.382 0 0 0-.2695.1128.38.38 0 0 0-.1113.2695c0 .1015.0398.198.1113.2696a.382.382 0 0 0 .2695.1128.382.382 0 0 0 .2696-.1128.382.382 0 0 0 .1129-.2696.382.382 0 0 0-.1129-.2695.382.382 0 0 0-.2696-.1128m-1.9454.1201a.25.25 0 0 0-.1758.0747.25.25 0 0 0-.0747.1758c0 .0663.0278.1303.0747.1773a.25.25 0 0 0 .1758.0747.2525.2525 0 0 0 .2505-.252.247.247 0 0 0-.0732-.1758.253.253 0 0 0-.1773-.0747m-1.292.0117a.428.428 0 0 0-.3018.126.416.416 0 0 0-.104.1773.0222.0222 0 0 1-.044 0 .38.38 0 0 0-.098-.1773.383.383 0 0 0-.2697-.1128.38.38 0 0 0-.268.1128.382.382 0 0 0-.1128.2696c0 .101.0412.1965.1128.268a.38.38 0 0 0 .268.1129.3825.3825 0 0 0 .3604-.2593.0222.0222 0 0 1 .0425.0029.42.42 0 0 0 .1128.208.1.1 0 0 0 .0102.0088l.4043-.0645.2506-.0293c.039-.0655.063-.1394.063-.2168a.424.424 0 0 0-.126-.3003.424.424 0 0 0-.3004-.126zm-1.6262.0381a.33.33 0 0 0-.2329.0982.33.33 0 0 0-.098.2329c0 .0877.036.1723.098.2344a.33.33 0 0 0 .233.0981.333.333 0 0 0 .2344-.0981.333.333 0 0 0 .0982-.2344.33.33 0 0 0-.0982-.233.333.333 0 0 0-.2345-.098m-6.343.085a.422.422 0 0 0-.299.1245.422.422 0 0 0-.1244.2989c0 .1124.0451.2209.1245.3003a.422.422 0 0 0 .2988.1245.426.426 0 0 0 .3004-.1245.426.426 0 0 0 .1245-.3003.422.422 0 0 0-.1245-.2989.426.426 0 0 0-.3004-.1245m5.4173.0103a.267.267 0 0 0-.189.079.267.267 0 0 0-.0791.189c0 .0711.0288.1388.079.189a.267.267 0 0 0 .189.0791.267.267 0 0 0 .189-.079.267.267 0 0 0 .0791-.189.267.267 0 0 0-.0791-.189.267.267 0 0 0-.189-.0791m-6.5615.0278a.36.36 0 0 0-.2534.107.36.36 0 0 0-.107.2534c0 .0952.0395.1859.107.2534a.36.36 0 0 0 .2534.107.36.36 0 0 0 .2535-.107.36.36 0 0 0 .1069-.2534.36.36 0 0 0-.107-.2535.36.36 0 0 0-.2534-.107m14.0487.0703a.25.25 0 0 0-.1758.0733.248.248 0 0 0-.0732.1757c0 .0662.0265.1291.0732.1758a.248.248 0 0 0 .1758.0733.25.25 0 0 0 .1758-.0733.248.248 0 0 0 .0732-.1758.248.248 0 0 0-.0732-.1757.25.25 0 0 0-.1758-.0733m-8.2784.085a.21.21 0 0 0-.1479.063.21.21 0 0 0-.063.148c0 .0554.0235.1084.063.1479a.2086.2086 0 0 0 .296 0 .2087.2087 0 0 0 0-.296.21.21 0 0 0-.148-.063M7.8432 5.24a.27.27 0 0 0-.1919.0805.27.27 0 0 0-.0805.192c0 .0723.0294.1422.0805.1933a.27.27 0 0 0 .192.0806.275.275 0 0 0 .1933-.0806.275.275 0 0 0 .0806-.1934.27.27 0 0 0-.0806-.1919.275.275 0 0 0-.1934-.0805m-3.9245.1069a.278.278 0 0 0-.1963.0835.28.28 0 0 0-.0835.1978c0 .074.0308.1436.0835.1963a.278.278 0 0 0 .1963.0835c.074 0 .1452-.031.1977-.0835a.276.276 0 0 0 .082-.1963.28.28 0 0 0-.082-.1978.28.28 0 0 0-.1977-.0835m4.8167.0879a.348.348 0 0 0-.2476.1025.353.353 0 0 0-.104.249c0 .0934.038.183.104.2491a.35.35 0 0 0 .2476.104c.0933 0 .183-.038.249-.104a.353.353 0 0 0 .104-.249.353.353 0 0 0-.104-.249.352.352 0 0 0-.249-.1026m1.4986.06a.44.44 0 0 0-.312.129.442.442 0 0 0-.1304.312c0 .117.0476.2292.1304.312a.442.442 0 0 0 .312.1304.4423.4423 0 0 0 .441-.4424.44.44 0 0 0-.129-.312.44.44 0 0 0-.312-.129m9.7579.0455a.33.33 0 0 0-.233.0981.329.329 0 0 0 0 .4659.329.329 0 0 0 .4659 0 .33.33 0 0 0 .0982-.233.33.33 0 0 0-.0982-.2329.33.33 0 0 0-.233-.0981m-4.093.1362-.4322.0103-.4336.0307-.4337.0498-.4336.0689-.4321.0879-.4336.1055-.4337.1215-.432.1363-.4337.1494-.4336.1611-.4322.1729-.4336.1802-.4336.186-.4322.1934-.4336.1948-.4336.1963-.4336.1963-.4322.1963-.4336.192-.4336.189-.4322.183-.4336.1773-.4336.17-.4322.161-.4336.1539-.4336.1465-.4322.1362-.4336.1275-.4336.1186-.4322.1084-.4336.101-.4336.0924-.4336.0835-.4322.0762-.3164.0498a11.3 11.3 0 0 0-.1172 1.6202c0 .4216.0252.8404.0718 1.2555l.3618-.1612.4322-.1949.4336-.1977.4336-.1963.4336-.1948.4322-.1919.4336-.1875.4336-.1802.4322-.1714.4336-.1611.4336-.151.4322-.1362.4336-.1216.4336-.1055.4322-.0864.4336-.0703.4336-.0498.4322-.0308.4336-.0103.4336.0103.4336.0308.4322.0498.4336.0703.4336.0864.4322.1055.4336.1216.4336.1362.4321.151.4337.161.4336.1715.4321.1802.4336.1875.4337.192.4336.1947.4322.1963.4337.1977.4335.1949.4322.1934.4336.1875.4337.183.432.1774.4337.17.4336.1625.4322.1538.4336.145.4336.1362.4321.1276.4337.1186.4336.1099.4336.101.4131.0865c.2951-1.0138.4527-2.072.4527-3.1467 0-1.5685-.3312-3.1021-.9478-4.512l-.3516-.1582-.4336-.1934-.4337-.186-.4321-.1802-.4336-.1729-.4336-.1611-.4322-.1494-.4336-.1363-.4336-.1215-.4321-.1055-.4337-.088-.4336-.0688-.4322-.0498-.4335-.0307Zm-4.3186.0776a.3.3 0 0 0-.2124.088.3.3 0 0 0-.0894.2124c0 .0796.0329.1559.0894.2124a.3.3 0 0 0 .2095.0879l.1875-.0704c.0113-.008.022-.0132.0263-.0175a.3.3 0 0 0 .0894-.2124.3.3 0 0 0-.0894-.2125.296.296 0 0 0-.211-.0879m9.1192.1158a.396.396 0 0 0-.2798.1157.393.393 0 0 0-.1158.2783.4.4 0 0 0 .025.1333l.3442.1363.1992.0835a.38.38 0 0 0 .1055-.0733.397.397 0 0 0 .1157-.2798.393.393 0 0 0-.1157-.2783.393.393 0 0 0-.2783-.1157m-16.1611.0263a.364.364 0 0 0-.2564.107.36.36 0 0 0-.107.2549c0 .096.039.1884.107.2563.068.068.1602.107.2564.107a.36.36 0 0 0 .2548-.107.364.364 0 0 0 .107-.2563.36.36 0 0 0-.107-.255.36.36 0 0 0-.2548-.1069m3.1803.1202a.324.324 0 0 0-.2285.0952.32.32 0 0 0-.0952.227c0 .0856.0347.1681.0952.2286a.324.324 0 0 0 .2285.0952.32.32 0 0 0 .227-.0952.324.324 0 0 0 .0953-.2286.32.32 0 0 0-.0952-.227.32.32 0 0 0-.227-.0952m1.6964.041a.426.426 0 0 0-.3018.126.426.426 0 0 0-.126.3017.43.43 0 0 0 .126.3033.426.426 0 0 0 .3018.126.43.43 0 0 0 .4292-.4293.426.426 0 0 0-.126-.3017.43.43 0 0 0-.3032-.126m-3.3635.0366a.18.18 0 0 0-.126.0527.18.18 0 0 0-.0527.126c0 .0474.0194.0926.0527.126a.175.175 0 0 0 .2505 0 .18.18 0 0 0 .0542-.126.18.18 0 0 0-.0542-.126.175.175 0 0 0-.1245-.0527m-.7149.0879a.424.424 0 0 0-.3003.1245.426.426 0 0 0-.126.3003.426.426 0 0 0 .126.3003.426.426 0 0 0 .3003.126.422.422 0 0 0 .2989-.126.426.426 0 0 0 .126-.3003.426.426 0 0 0-.126-.3003.42.42 0 0 0-.2989-.1245m-2.4874.0747a.264.264 0 0 0-.1875.0777.266.266 0 0 0-.0791.1875c0 .0705.0292.139.079.189a.264.264 0 0 0 .1876.0776.264.264 0 0 0 .1875-.0777.27.27 0 0 0 .0791-.189.266.266 0 0 0-.0791-.1874.264.264 0 0 0-.1875-.0777m3.964.2154a.29.29 0 0 0-.2035.0864.29.29 0 0 0-.0865.2036c0 .0766.032.1492.0865.2036a.29.29 0 0 0 .2036.0865.29.29 0 0 0 .2036-.0865.29.29 0 0 0 .0864-.2036.29.29 0 0 0-.0864-.2036.29.29 0 0 0-.2036-.0864m-2.3174.2065a.407.407 0 0 0-.2872.1201.41.41 0 0 0-.1113.208.0222.0222 0 0 1-.044 0c-.014-.0713-.042-.1371-.0922-.1875a.36.36 0 0 0-.255-.1069.36.36 0 0 0-.2548.107.36.36 0 0 0-.107.2548.36.36 0 0 0 .107.255.36.36 0 0 0 .2549.1069.36.36 0 0 0 .2549-.107c.0483-.0483.0758-.1105.0908-.1787a.0222.0222 0 0 1 .044.0015.407.407 0 0 0 .4.3413.407.407 0 0 0 .287-.1201.406.406 0 0 0 .1187-.2871.406.406 0 0 0-.1187-.2872.407.407 0 0 0-.2871-.12m3.9509.0864a.415.415 0 0 0-.4146.4146c0 .1098.044.2139.1216.2915a.415.415 0 0 0 .293.1216.41.41 0 0 0 .2915-.1216.41.41 0 0 0 .1216-.2915.415.415 0 0 0-.1216-.293.41.41 0 0 0-.2915-.1216m-2.4274.2388a.267.267 0 0 0-.189.0791.267.267 0 0 0-.079.189c0 .071.0288.1387.079.189a.267.267 0 0 0 .189.079.267.267 0 0 0 .189-.079.267.267 0 0 0 .079-.189.267.267 0 0 0-.079-.189.267.267 0 0 0-.189-.079m-3.617.0982a.3.3 0 0 0-.2109.0879.3.3 0 0 0-.0879.211c0 .0791.032.155.088.2109a.3.3 0 0 0 .2109.0879c.0792 0 .155-.032.211-.088a.3.3 0 0 0 .0878-.2109.3.3 0 0 0-.0879-.211.3.3 0 0 0-.211-.0878m5.1112.1465a.387.387 0 0 0-.274.1142.39.39 0 0 0-.1156.274c0 .1028.0427.201.1157.274a.387.387 0 0 0 .274.1142.387.387 0 0 0 .2739-.1143.387.387 0 0 0 .1142-.274.387.387 0 0 0-.1142-.2739.387.387 0 0 0-.274-.1142m-2.3072.0776a.222.222 0 0 0-.1568.066.222.222 0 0 0-.066.1567c0 .059.0243.115.066.1567a.222.222 0 0 0 .1568.066.222.222 0 0 0 .1567-.066.222.222 0 0 0 .066-.1567.222.222 0 0 0-.066-.1568.222.222 0 0 0-.1567-.0659m-1.191.186a.426.426 0 0 0-.3003.126.425.425 0 0 0-.126.3004.42.42 0 0 0 .016.1084.0222.0222 0 0 1-.038.0205c-.0067-.0074-.0108-.0123-.0132-.0147a.406.406 0 0 0-.2871-.1201.41.41 0 0 0-.2886.1201.406.406 0 0 0-.1201.2871c0 .1082.0437.2122.1201.2886a.41.41 0 0 0 .2886.1202.406.406 0 0 0 .2871-.1202.41.41 0 0 0 .1201-.2886c0-.034-.0072-.0668-.016-.101a.0222.0222 0 0 1 .038-.0205.425.425 0 0 0 .3194.1465.425.425 0 0 0 .3003-.126.425.425 0 0 0 .126-.3003.425.425 0 0 0-.126-.3004.425.425 0 0 0-.3003-.126m2.6559.066a.357.357 0 0 0-.252.1055.357.357 0 0 0-.1055.252c0 .0946.0386.1864.1055.2534a.357.357 0 0 0 .252.1054.357.357 0 0 0 .252-.1054.36.36 0 0 0 .1054-.2535.357.357 0 0 0-.1054-.252.357.357 0 0 0-.252-.1054m-4.3904.3457a.35.35 0 0 0-.2461.1025.35.35 0 0 0-.1026.2462.35.35 0 0 0 .1026.246.35.35 0 0 0 .246.1026.345.345 0 0 0 .2447-.1025.35.35 0 0 0 .1026-.2461.35.35 0 0 0-.1026-.2462.345.345 0 0 0-.2446-.1025m3.7634.1377a.35.35 0 0 0-.2461.1026.35.35 0 0 0-.1026.246.35.35 0 0 0 .1026.2462c.0585.0584.1368.0903.2197.0967l.2798-.11c.0585-.064.0953-.1464.0953-.2328a.35.35 0 0 0-.1026-.2461.35.35 0 0 0-.2461-.1026m-1.2628.233a.27.27 0 0 0-.1919.0805.27.27 0 0 0-.0805.192c0 .0721.0295.1423.0805.1933a.272.272 0 0 0 .192.0806.272.272 0 0 0 .1918-.0806.275.275 0 0 0 .0806-.1934.272.272 0 0 0-.0806-.1919.272.272 0 0 0-.1919-.0806m-.838.4526a.235.235 0 0 0-.167.0703.24.24 0 0 0-.0702.1685.24.24 0 0 0 .0703.1684.235.235 0 0 0 .167.0704.24.24 0 0 0 .1685-.0704.24.24 0 0 0 .0703-.1684.24.24 0 0 0-.0703-.1685.24.24 0 0 0-.1685-.0703m-.7617.2651a.1847.1847 0 0 0-.1846.1846c0 .049.0196.0943.0542.129a.186.186 0 0 0 .1304.0556.186.186 0 0 0 .1304-.0557.18.18 0 0 0 .0542-.1289.1847.1847 0 0 0-.1846-.1846m-1.689.11a.373.373 0 0 0-.2637.1098.373.373 0 0 0-.1099.2637c0 .0991.0398.1936.1099.2637s.1645.1098.2637.1098a.373.373 0 0 0 .2637-.1098.373.373 0 0 0 .1098-.2637.373.373 0 0 0-.1098-.2637.373.373 0 0 0-.2637-.1099m7.4755 1.752-.4336.0102-.4322.0308-.4336.0498-.4336.0688-.4322.088-.4336.1054-.4336.1216-.4322.1363-.4336.1494-.4336.1626-.4322.1714-.4336.1802-.4336.1875-.4322.192-.4336.1947-.4336.1963-.4336.1977-.4322.1949-.3354.1495a11.28 11.28 0 0 0 1.1119 3.6095V15.931a.089.089 0 0 1 .0893-.0894h2.5094v-1.7213a.089.089 0 0 1 .0894-.0879H7.146v-.2373a.0887.0887 0 0 1 .0894-.0893h2.6002a.0886.0886 0 0 1 .0894.0893v1.3639h2.5094a.089.089 0 0 1 .088.0879v1.9161h2.5108a.089.089 0 0 1 .0894.0894v1.2833h2.5094a.0885.0885 0 0 1 .0893.0893v.4893h2.5095a.0886.0886 0 0 1 .0894.0893v.3824a11.26 11.26 0 0 0 2.4302-4.2351l-.353-.0747-.4336-.0996-.4337-.11-.4336-.1185-.4321-.1276-.4336-.1362-.4337-.145-.432-.1538-.4337-.1626-.4336-.1699-.4322-.1773-.4336-.1831-.4336-.189-.4322-.192-.4336-.1948-.4336-.1977-.4322-.1963-.4336-.1948-.4337-.1919-.4336-.1875-.4321-.1802-.4336-.1714-.4337-.1626-.4321-.1494-.4336-.1363-.4336-.1216-.4322-.1055-.4336-.0879-.4336-.0688-.4322-.0498-.4336-.0308zm-1.6437 3.009v8.2592c.773.3564 1.5846.6214 2.4216.794V13.883zm-2.6002.3266v6.2641c.739.6344 1.5549 1.1592 2.4215 1.5777v-7.8418zm5.2005 1.1266v7.6381c.6801.1288 1.3742.1992 2.0758.1992.1142 0 .229-.0044.3442-.0088v-7.8285zm-7.7978.684v1.2028c.5168.9775 1.1772 1.8818 1.9732 2.6779.144.1439.2952.2796.4468.4146v-4.2953zm10.3951 1.3214v5.8114a11.17 11.17 0 0 0 2.423-.3824v-5.429zm2.6003 1.3727v4.0036c.8443-.2459 1.6562-.5858 2.42-1.0224v-2.9812zm2.5987.5771v2.2927c.7859-.4686 1.5223-1.0256 2.1799-1.6832.0817-.0816.1604-.1664.2403-.252v-.3575z"/></svg>