<svg role="img" viewBox="0 0 24 24" xmlns="http://www.w3.org/2000/svg"><title>Seafile</title><path d="M8.2129 4.2695c-2.003 0-3.623 1.6201-3.623 3.623 0 .0648.0043.1326.0078.2012a2.3767 2.3767 0 0 0-.9727-.205c-1.3369 0-2.418 1.0815-2.418 2.418 0 .0647.0043.1266.0078.1913-.1299-.119-.2995-.1953-.4902-.1953-.4001 0-.7246.321-.7246.7207 0 .4002.3245.713.7246.7207h3.5489c.6808-1.448 2.1364-2.4062 3.8222-2.4062.8177 0 1.5803.2409 2.2285.6445a5.701 5.701 0 0 1 1.5137-2.125c-.0217-1.9847-1.6364-3.5879-3.625-3.5879ZM15.58 7.4063c-2.4965 0-4.5635 1.8477-4.9024 4.2539-.616-.8212-1.5989-1.3536-2.705-1.3536-1.8696 0-3.3829 1.5168-3.3829 3.3829 0 .544.1283 1.0542.3555 1.5117-1.1744.2376-2.045 1.1499-2.045 2.2343 0 1.2683 1.1885 2.295 2.6583 2.295.6482 0 1.2421-.2022 1.7031-.5371l5.4375-5.3457c.6018-.5514 1.4004-.8868 2.2793-.8868 1.8374 0 3.3324 1.4669 3.3828 3.293 0 0-.0004-.0039-.0039-.0039.0287.5405-.2507 1.0839-.7695 1.3828-.7243.418-1.633.196-2.0293-.4922-.3997-.6917-.1364-1.5903.5879-2.0078a1.6117 1.6117 0 0 1 .5254-.1894c-.1551-.0326-.317-.047-.4824-.047-1.333 0-2.418 1.0792-2.418 2.4161 0 1.3365 1.081 2.418 2.418 2.418.0577 0 .1203-.004.1777-.0078l-.004-.006.0685-.0077h4.744v.0176C22.6275 19.6618 24 18.3256 24 16.6973c0-1.668-1.4258-3.0293-3.0938-3.0293h-.0077c-.2703.4827-.5978.764-.9688 1.0664.3889-.7095.6113-1.5182.6113-2.3828-.0083-1.3647-.5622-2.597-1.459-3.4942-.8972-.8972-2.1333-1.4512-3.502-1.4512Z"/></svg>