<svg role="img" viewBox="0 0 24 24" xmlns="http://www.w3.org/2000/svg"><title>Seafile</title><path d="M0 11.023a.721.721 0 0 1 1.214-.526c-.003-.064-.007-.126-.007-.19a2.415 2.415 0 0 1 3.39-2.212c-.003-.069-.007-.137-.007-.202A3.622 3.622 0 0 1 8.214 4.27a3.626 3.626 0 0 1 3.624 3.588 5.7 5.7 0 0 0-1.513 2.125 4.21 4.21 0 0 0-2.23-.644 4.191 4.191 0 0 0-3.822 2.406H.724a.727.727 0 0 1-.724-.72zm19.082-2.165a4.953 4.953 0 0 0-8.405 2.803 3.383 3.383 0 0 0-5.732 3.54c-1.173.238-2.045 1.15-2.045 2.234 0 1.269 1.188 2.295 2.658 2.295.648 0 1.243-.201 1.704-.536l5.436-5.347a3.361 3.361 0 0 1 2.28-.886 3.386 3.386 0 0 1 3.383 3.293s0-.004-.003-.004a1.514 1.514 0 0 1-.771 1.383c-.724.418-1.632.195-2.028-.493-.4-.692-.137-1.589.587-2.006.17-.098.346-.159.526-.191a2.418 2.418 0 1 0-.306 4.78l-.003-.007.068-.008h4.745v.018c1.451-.064 2.824-1.4 2.824-3.03 0-1.667-1.427-3.029-3.094-3.029h-.008c-.27.483-.598.764-.969 1.066a4.93 4.93 0 0 0 .613-2.381 4.966 4.966 0 0 0-1.46-3.494z"/></svg>