<svg role="img" viewBox="0 0 24 24" xmlns="http://www.w3.org/2000/svg"><title>Seagate icon</title><path d="M8.345 1.896c.273-.164.545-.327.818-.436.11.272.273.545.382.818-.6.327-1.2.6-1.746.982-8.028 4.874-6.796 10.417-3.328 10.913 2.363.443 5.263-1.078 7.311-2.292 1.552-.97 2.947-1.897 2.947-3 0-.703-.812-1.039-1.473-.928-2.135.533-4.995 3.492-7.367 3.492-1.08 0-1.867-.83-1.746-1.8.152-1.817 1.864-3.182 3.438-4.093C10.128 3.88 13.512 2.4 16.529 2.55c7.534.26 12.046 9.669-.982 17.897-1.479.934-3.862 1.96-4.365 2.128-.218-.983-.545-1.965-.764-2.947 2.385-1.122 3.099-1.262 5.73-3.274 2.21-1.768 4.335-3.859 4.692-6.71.054-.656.054-1.256-.11-1.91-.887-3.044-4.995-6.183-12.713-1.037-.803.468-2.127 1.414-2.127 2.346 0 .218.163.491.381.546 1.187.508 3.824-2.16 6.439-3.056 2.05-.723 4.112.046 4.474 1.855.055.491.055.982-.109 1.419-.584 1.519-1.994 2.619-3.437 3.546-1.509.83-3.042 2.013-6.384 2.892-2.281.622-5.189.286-6.384-1.746-.491-.764-.71-1.691-.71-2.564.055-1.037.273-2.074.71-3.001.764-1.583 1.91-3.001 3.273-4.147A22.778 22.778 0 018.4 1.842z"/></svg>