<svg role="img" viewBox="0 0 24 24" xmlns="http://www.w3.org/2000/svg"><title>SecurityScorecard</title><path d="M3.243 12.27.97 11.03l.006-2.487.005-2.487L3.245 4.82c1.244-.68 2.267-1.232 2.272-1.227.006.006.007 2.239.004 4.963l-.006 4.952zM7.373 5.043V2.567L9.65 1.325 11.93.082l2.214 1.206c1.218.664 2.239 1.222 2.27 1.24.052.033-.134.137-4.464 2.5a1974.807 1974.807 0 0 1-4.548 2.478c-.023.01-.03-.492-.03-2.463z M7.386 5.474a186.948 186.948 0 0 1-.009-2.457l.008-.441 2.264-1.235C10.895.66 11.922.105 11.931.105c.02 0 4.334 2.354 4.417 2.41.055.036.053.038-.224.201-.154.09-.643.364-1.086.608-.998.55-7.303 3.989-7.586 4.138l-.05.026ZM18.35 8.525a559.593 559.593 0 0 1-4.527-2.482c.001-.019 4.474-2.456 4.507-2.456.03 0 4.485 2.423 4.53 2.464.024.021.029.537.024 2.485l-.006 2.459zM18.333 15.515c0-3.966.006-4.966.03-4.957.015.007 1.038.563 2.272 1.237l2.243 1.225.006 2.5.006 2.499-2.262 1.232c-1.245.677-2.27 1.232-2.279 1.232-.009 0-.016-2.236-.016-4.968zM9.651 15.764l-2.266-1.236-.006-2.489-.006-2.488 2.28-1.244 2.279-1.243 2.271 1.239 2.272 1.239v4.993l-2.266 1.233A288.814 288.814 0 0 1 11.93 17c-.006 0-1.032-.556-2.279-1.237zM9.659 22.754c-1.681-.916-2.252-1.238-2.232-1.257.015-.014 1.994-1.096 4.398-2.404l4.516-2.46.146-.08v4.954l-2.277 1.24a357.62 357.62 0 0 1-2.284 1.24c-.004 0-1.024-.556-2.267-1.233zM3.23 19.25.97 18.019v-4.97l.076.045c.042.026 2.087 1.143 4.546 2.483s4.462 2.445 4.452 2.455c-.04.039-4.46 2.437-4.505 2.445-.029.005-.92-.468-2.308-1.225z"/></svg>
