<svg xmlns="http://www.w3.org/2000/svg" viewBox="0 0 24 24" role="img"><title>Segment icon</title><path d="M22.896 7.744H9.776a.452.452 0 00-.451.452v1.528c0 .25.202.453.452.453h13.119c.25 0 .452-.203.452-.453V8.196a.452.452 0 00-.452-.452zm-8.678 6.08H1.1a.452.452 0 00-.452.452v1.528c0 .25.202.452.452.452H14.22c.25 0 .452-.203.452-.452v-1.528a.45.45 0 00-.452-.453h-.002zM2.33 9.41a.456.456 0 00.551-.31 9.57 9.57 0 0111.184-6.442.45.45 0 00.525-.326l.397-1.478a.453.453 0 00-.344-.56A12.004 12.004 0 00.536 8.45a.45.45 0 00.318.563l1.477.396v.001zm19.338 5.18a.456.456 0 00-.55.31 9.57 9.57 0 01-11.184 6.442.448.448 0 00-.525.327l-.396 1.477a.455.455 0 00.344.56 12.004 12.004 0 0014.106-8.156.45.45 0 00-.318-.563l-1.477-.396zm-2.737-9.517a1.334 1.334 0 100-2.667 1.334 1.334 0 000 2.667zM5.068 21.595a1.333 1.333 0 100-2.666 1.333 1.333 0 000 2.666z"/></svg>
