<svg role="img" viewBox="0 0 24 24" xmlns="http://www.w3.org/2000/svg"><title>Sellfy icon</title><path d="M23.179.818C15.533-.273 8.406-.273.799.818-.266 8.377-.266 15.424.8 22.946 4.512 23.491 8.22 24 12.006 24c3.748 0 7.459-.51 11.17-1.017 1.1-7.56 1.1-14.607 0-22.165zm-11.54 18.314c-2.055 0-4.226-.689-5.18-1.199l.808-3.126c1.064.705 2.682 1.395 4.446 1.395 1.395 0 2.24-.436 2.24-1.305 0-.615-.435-.975-1.575-1.26l-2.28-.63c-2.415-.66-3.556-1.892-3.556-3.856 0-2.365 1.83-4.256 5.619-4.256 1.99 0 3.973.545 5.07 1.092l-.951 2.976c-1.104-.615-2.79-1.125-4.226-1.125-1.365 0-1.95.436-1.95 1.092 0 .62.404.87 1.29 1.092l2.489.734c2.566.736 3.707 1.966 3.707 3.885-.076 2.701-2.461 4.517-5.957 4.517z"/></svg>