<svg role="img" viewBox="0 0 24 24" xmlns="http://www.w3.org/2000/svg"><title>Semrush</title><path d="M20.7,11.9c0,0.4-0.2,0.5-0.8,0.5c-0.6,0-0.7-0.1-0.8-0.6c-0.1-1.2-0.9-2.1-2.2-2.2c-0.4,0-0.5-0.2-0.5-0.7 c0-0.5,0.1-0.7,0.4-0.7C19.1,8.2,20.7,10,20.7,11.9z M24,11.9c0-3.5-2.3-7.1-7.7-7.1H5.5c-0.2,0-0.4,0.1-0.4,0.3 c0,0.1,0.1,0.2,0.2,0.3c0.4,0.3,1,0.6,1.7,1C7.8,6.8,8.4,7,9,7.3c0.2,0.1,0.3,0.2,0.3,0.3c0,0.2-0.1,0.3-0.4,0.3H0.4 C0.1,7.9,0,8.1,0,8.2c0,0.1,0,0.3,0.2,0.4c0.7,0.7,1.8,1.6,3.4,2.6C5,12.1,6.7,13,8.1,13.7c0.2,0.1,0.3,0.2,0.3,0.4 c0,0.2-0.1,0.3-0.4,0.3H4.1c-0.2,0-0.3,0.1-0.3,0.3c0,0.1,0.1,0.2,0.2,0.3c0.9,0.8,2.3,1.7,4.2,2.5c2.5,1.1,5.1,1.7,8,1.7 C21.6,19.2,24,15.1,24,11.9z M16.9,16.8c-2.7,0-4.9-2.2-4.9-4.9c0-2.7,2.2-4.8,4.9-4.8c2.8,0,4.9,2.2,4.9,4.8 C21.8,14.6,19.6,16.8,16.9,16.8z"/></svg>