<svg role="img" viewBox="0 0 24 24" xmlns="http://www.w3.org/2000/svg"><title>SemVer icon</title><path d="M11.4 288.8a386.2 386.2 0 00233.8 452.7 385.4 385.4 0 00182 24.3c248.6-22.5 418.7-313.6 304.5-537.6-13.3-38.1-66.2-11.8-60.9 19a522.5 522.5 0 0122.8 69 319.5 319.5 0 01-298.9 387.6A318.8 318.8 0 0194.2 522.3 319.5 319.5 0 01297.3 76.9 315.8 315.8 0 01522 97.1a10.7 10.7 0 014.9 13.7L400.1 450.7c-3.4 25.9-22 25.1-25.5 0l-76.1-235.9a50.3 50.3 0 00-24.8-31.6c-38-17.9-99 21.4-76.1 69l125.2 334.1c16.8 44.6 32.8 58.7 65.9 58.7s49.1-14.1 65.9-58.7L640 126.1A33.2 33.2 0 00628.2 88c-209-181-554-67.5-616.8 200.8z"/></svg>