<svg viewBox="0 0 16 16" xmlns="http://www.w3.org/2000/svg" fill-rule="evenodd" clip-rule="evenodd" stroke-linejoin="round" stroke-miterlimit="1.414"><path d="M8 13.523c-.428.355-.87.67-1.316.945.388.604.83 1.12 1.316 1.532.485-.41.928-.928 1.316-1.532-.447-.274-.888-.59-1.316-.945zm4.32-1.982c.14 1.247.03 2.413-.32 3.388-1.018-.185-2.082-.67-3.09-1.415 1.366-.225 2.567-.946 3.41-1.972zm-8.64 0c.843 1.027 2.044 1.748 3.41 1.973-1.008.745-2.072 1.23-3.09 1.415-.35-.975-.46-2.14-.32-3.387zm8.15-.478c-.755.94-1.848 1.6-3.095 1.787.44-.42.862-.89 1.258-1.4.64-.086 1.256-.215 1.836-.388zm-7.66 0c.58.173 1.198.302 1.837.39.396.51.817.98 1.258 1.397-1.247-.19-2.34-.847-3.094-1.788zm2.136-5.996C6.83 4.366 7.402 3.74 8 3.206c.598.535 1.17 1.16 1.694 1.86.87.104 1.696.287 2.46.536-.167.786-.42 1.593-.766 2.398.345.805.6 1.612.765 2.398-.763.25-1.59.432-2.46.536-.524.7-1.095 1.325-1.693 1.86-.598-.535-1.17-1.16-1.694-1.86-.87-.104-1.696-.287-2.46-.536.167-.786.42-1.593.766-2.398-.345-.805-.6-1.612-.765-2.398.763-.25 1.59-.432 2.46-.536zM1.74 10.094c-.328.64-.555 1.28-.668 1.906.598.214 1.267.34 1.985.374.013-.524.066-1.064.16-1.613-.522-.192-1.016-.415-1.476-.666zm12.52 0c-.46.25-.955.474-1.477.667.094.55.147 1.09.16 1.614.718-.035 1.387-.16 1.985-.374-.113-.625-.34-1.267-.67-1.906zM13.23 6.03c1.148.5 2.1 1.18 2.77 1.97-.67.79-1.622 1.47-2.77 1.97.23-.613.356-1.277.356-1.97 0-.693-.126-1.357-.357-1.97zm-10.46 0c-.23.613-.356 1.277-.356 1.97 0 .693.126 1.357.357 1.97C1.623 9.47.67 8.79 0 8c.67-.79 1.622-1.47 2.77-1.97zm9.797.182c.217.554.336 1.157.336 1.788 0 .63-.12 1.234-.336 1.788-.142-.594-.34-1.192-.582-1.788.243-.596.44-1.194.582-1.788zm-9.134 0c.142.594.34 1.192.582 1.788-.243.596-.44 1.194-.582 1.788C3.216 9.234 3.097 8.63 3.097 8c0-.63.12-1.234.336-1.788zm-.376-2.586c-.718.035-1.387.16-1.985.374.113.625.34 1.267.67 1.906.46-.25.953-.474 1.475-.667-.094-.55-.147-1.09-.16-1.614zm9.886 0c-.013.524-.066 1.064-.16 1.613.522.192 1.016.415 1.476.666.328-.64.555-1.28.668-1.906-.598-.214-1.267-.34-1.985-.374zM8.735 3.15c1.247.19 2.34.847 3.094 1.788-.58-.173-1.198-.302-1.837-.39-.396-.51-.817-.98-1.258-1.397zm-1.47 0c-.44.42-.862.89-1.258 1.4-.64.086-1.256.215-1.836.388.755-.94 1.848-1.6 3.095-1.787zm1.644-.663c1.008-.745 2.072-1.23 3.09-1.415.35.975.46 2.14.32 3.387-.843-1.027-2.044-1.748-3.41-1.973zM3.68 4.46C3.54 3.212 3.65 2.046 4 1.07c1.018.185 2.082.67 3.09 1.415-1.366.225-2.567.946-3.41 1.972zM9.317 1.53C8.928.928 8.486.412 8 0c-.485.41-.928.928-1.316 1.532.447.274.888.59 1.316.945.428-.355.87-.67 1.316-.945z"/></svg>