<svg viewBox="0 0 16 16" xmlns="http://www.w3.org/2000/svg" fill-rule="evenodd" clip-rule="evenodd" stroke-linejoin="round" stroke-miterlimit="1.414"><path d="M8 13.523c-.428.355-.87.67-1.316.945.388.604.83 1.12 1.316 1.532.485-.41.928-.928 1.316-1.532-.447-.274-.888-.59-1.316-.945zm4.32-1.982c.14 1.25.03 2.42-.32 3.39-1.018-.18-2.082-.67-3.09-1.41 1.366-.22 2.567-.94 3.41-1.97zm-8.64 0c.843 1.03 2.044 1.75 3.41 1.98-1.008.75-2.072 1.23-3.09 1.42-.35-.97-.46-2.14-.32-3.38zm8.225-.41c-.77.96-1.884 1.63-3.155 1.82.45-.42.878-.9 1.282-1.42.652-.09 1.28-.22 1.873-.39zm-7.81 0c.592.18 1.22.31 1.873.4.404.52.832 1 1.282 1.43-1.27-.19-2.386-.86-3.155-1.82zm2.178-6.12C6.808 4.3 7.39 3.66 8 3.11c.61.547 1.192 1.183 1.727 1.898.887.106 1.73.293 2.508.547-.17.8-.43 1.624-.78 2.445.35.82.61 1.644.78 2.445-.778.254-1.62.44-2.508.547-.535.715-1.118 1.35-1.727 1.898-.61-.547-1.192-1.183-1.727-1.898-.887-.106-1.73-.293-2.508-.547.17-.8.43-1.624.78-2.445-.35-.82-.61-1.644-.78-2.445.778-.254 1.62-.44 2.508-.547zM1.74 10.1c-.328.64-.555 1.28-.668 1.906.598.21 1.267.34 1.985.37.013-.526.066-1.066.16-1.615-.522-.19-1.016-.41-1.476-.66zm12.52 0c-.46.25-.955.474-1.477.667.094.55.147 1.09.16 1.616.718-.035 1.387-.16 1.985-.374-.113-.62-.34-1.26-.67-1.9zm-1.03-4.07c1.148.5 2.1 1.18 2.77 1.97-.67.79-1.622 1.47-2.77 1.97.23-.613.356-1.277.356-1.97 0-.693-.126-1.357-.357-1.97zm-10.46 0c-.23.613-.356 1.277-.356 1.97 0 .693.126 1.357.357 1.97C1.63 9.47.67 8.79 0 8c.67-.79 1.622-1.47 2.77-1.97zm9.887.147c.22.565.343 1.18.343 1.823s-.122 1.258-.343 1.823c-.145-.606-.345-1.215-.593-1.823.248-.608.448-1.217.593-1.823zm-9.314 0c.145.606.345 1.215.593 1.823-.248.608-.448 1.217-.593 1.823C3.123 9.258 3 8.643 3 8s.122-1.258.343-1.823zm-.286-2.55c-.718.034-1.387.16-1.985.373.113.625.34 1.267.67 1.906.46-.25.953-.474 1.475-.667-.094-.55-.147-1.09-.16-1.62zm9.886 0c-.013.523-.066 1.063-.16 1.612.522.19 1.016.41 1.476.66.32-.64.55-1.28.66-1.91-.6-.22-1.27-.34-1.99-.38zm-4.193-.57c1.27.19 2.386.86 3.155 1.82-.592-.175-1.22-.307-1.873-.396-.404-.52-.832-1-1.282-1.42zm-1.5 0c-.45.424-.878.904-1.282 1.424-.652.09-1.28.23-1.873.4.77-.96 1.884-1.63 3.155-1.82zm1.66-.57c1.008-.745 2.072-1.23 3.09-1.415.35.975.46 2.14.32 3.387-.843-1.03-2.044-1.75-3.41-1.98zM3.68 4.46c-.14-1.248-.03-2.414.32-3.39 1.018.185 2.082.67 3.09 1.415-1.366.225-2.567.946-3.41 1.972zm5.637-2.93C8.927.928 8.487.412 8 0c-.485.41-.928.928-1.316 1.532.447.274.888.59 1.316.945.428-.355.87-.67 1.316-.945z" fill="#000100"/></svg>