<svg role="img" viewBox="0 0 24 24" xmlns="http://www.w3.org/2000/svg"><title>SEPA icon</title><path d="M8.103 10.836h3.648l-.026-.04-.437.94.025-.017H7.774l-.003.026a2.424 2.424 0 0 0 .014.59l.004.023h3.253l-.026-.04-.438.94.025-.017H8.12l.028.044a2.35 2.35 0 0 0 3.739.264l-.05-.018v1.151l.013-.023a3.316 3.316 0 0 1-1.845.555 3.276 3.276 0 0 1-3.02-1.956l-.007-.017H5.796l.026.04.438-.94-.026.017h.511l-.003-.031a3.205 3.205 0 0 1-.004-.577l.002-.03h-.985l.026.04.438-.94-.026.016h.762l.006-.017A3.218 3.218 0 0 1 8.147 9.37a3.312 3.312 0 0 1 1.857-.564c.855 0 1.664.32 2.28.902l-.007-.033-.38.816.047-.006a2.346 2.346 0 0 0-1.827-.87c-.836 0-1.617.45-2.038 1.178l-.025.042zm2.014-1.164c.694 0 1.344.31 1.783.85l.029.035.019-.04.38-.817.009-.018-.015-.014a3.359 3.359 0 0 0-2.318-.917 3.36 3.36 0 0 0-1.888.574 3.275 3.275 0 0 0-1.207 1.472l.026-.017h-.76l-.007.016-.438.94-.019.04h.999l-.028-.03a3.215 3.215 0 0 0 .004.587l.028-.031h-.497l-.008.016-.438.94-.019.04h1.206l-.026-.018a3.333 3.333 0 0 0 3.072 1.99 3.37 3.37 0 0 0 1.876-.564l.013-.009v-1.241l-.05.056a2.295 2.295 0 0 1-3.649-.258l-.023.043h2.45l.008-.016.438-.94.019-.04H7.813l.028.025a2.361 2.361 0 0 1-.013-.576l-.029.026h3.532l.008-.017.438-.939.018-.04H8.103l.024.042a2.309 2.309 0 0 1 1.99-1.15m11.408 3.196l-.827-2.843-.803 2.843zm.35 1.278h-2.36l-.317 1.133h-1.826l1.97-6.558h2.663L24 15.279h-1.788l-.337-1.133m-7.556-2.081h1.1c.349-.013.561-.04.638-.082.104-.057.174-.172.209-.344.022-.115.033-.285.033-.512 0-.277-.022-.483-.066-.617-.064-.188-.216-.303-.457-.344a3.57 3.57 0 0 0-.342-.01h-1.115zm-1.766 3.214V8.721h3.29c.45 0 .794.037 1.03.11.542.17.905.517 1.09 1.041.096.275.144.69.144 1.243 0 .665-.053 1.143-.158 1.434-.211.576-.645.908-1.3.993-.078.013-.406.025-.985.034l-.293.01h-1.052v1.693h-1.766m-7.22-4.466H3.69c0-.27-.032-.45-.095-.543-.097-.136-.367-.204-.808-.204-.43 0-.713.04-.852.118-.139.079-.208.25-.208.514 0 .238.061.396.185.471a.768.768 0 0 0 .35.094l.33.024c.71.047 1.154.08 1.33.099.562.056.969.206 1.221.448.199.188.317.435.355.74.022.182.033.388.033.617 0 .528-.05.915-.15 1.16-.184.45-.594.733-1.234.853-.267.05-.677.075-1.228.075-.92 0-1.56-.054-1.922-.164-.444-.135-.737-.408-.879-.82-.079-.228-.118-.61-.118-1.143h1.642v.136c0 .285.082.468.246.55.113.056.25.085.41.089h.604c.308 0 .505-.016.59-.048a.48.48 0 0 0 .297-.287 1.1 1.1 0 0 0 .037-.315c0-.29-.105-.465-.315-.528-.08-.025-.445-.06-1.099-.103-.525-.038-.89-.074-1.094-.109-.537-.1-.895-.307-1.074-.621-.157-.267-.236-.67-.236-1.21 0-.412.042-.742.127-.99.085-.248.222-.436.411-.565.277-.198.631-.314 1.062-.348.36-.032.757-.048 1.195-.048.69 0 1.18.04 1.473.119.715.192 1.072.73 1.072 1.613 0 .073-.005.18-.016.326Z"/></svg>