<svg role="img" viewBox="0 0 24 24" xmlns="http://www.w3.org/2000/svg"><title>Sequelize icon</title><path d="M11.987 0 1.83 5.773v12.225L12.113 24l10.057-5.868V5.907L11.987 0zm7.208 16.34-7.116 4.15-7.274-4.246v-8.65l7.186-4.085 7.205 4.18v8.65zm-4.745-1.922.477.28v3.357l-2.855 1.65-2.854-1.65v-3.378l.461-.267 2.393 1.381 2.378-1.373zm-2.378-5.88 2.855 1.669v3.358l-2.855 1.649-2.854-1.649v-3.379l2.854-1.649zm-2.97-2.574 2.89-1.668 2.873 1.658-.006.36-2.54 1.466v.322l-.245-.143-.393.227v-.471l-2.58-1.508v-.242zm-.385 7.89.462.267-.462.267v2.886l-.391.226-2.855-1.649v-3.358l.478-.28 2.377 1.374.392-.226v.493zm9.334-1.554.478.279v3.358l-2.855 1.65-.247-.143V14.41l-.479-.28.478-.277v-.323l.248.143L18.05 12.3zm-5.233-4.232 2.855-1.648 2.856 1.668v3.359l-2.855 1.649-.247-.143V9.92L12.82 8.394V8.07zm-7.346 3.293L5.47 8.002l2.855-1.668 2.855 1.668v.473L8.718 9.898v2.885l-.392.226-2.855-1.649z"/></svg>