<svg role="img" viewBox="0 0 24 24" xmlns="http://www.w3.org/2000/svg"><title>Sequelize icon</title><path d="M22.384 18.034L12.049 24 1.616 18.008l.055-11.984 3.003 1.734v8.579l7.349 4.244 3.755-2.17 3.593-2.169V7.758l-7.349-4.274-7.348 4.274-3.003-1.734L12.049 0l10.325 6.024.01 12.01zM11.425 7.506l.175.101v.679l.378-.218.175-.101.175.101.231.134v-.507l.175-.101 2.24-1.294.009-.546-2.92-1.682-2.92 1.692v.423l2.282 1.319zm3.62 5.878V9.961L12.153 8.29 9.26 9.961v3.506l.785.453 2.107 1.217 2.108-1.217.785-.453v-.083zm-2.136-4.98l2.311 1.335.175.101v2.916l.406.235 2.893-1.671V7.897l-2.892-1.671-2.893 1.671v.507zm-4.552 4.5l.553-.32V9.84l.175-.101 2.165-1.25v-.68l-2.892-1.67L5.464 7.83l.001 3.403 2.892 1.671zm7.62.39l-.175.101-.175-.101-.231-.134v.507l-.175.101-.435.251.435.251.175.101v2.916l.406.235 2.893-1.671v-3.423l-.61-.352-2.108 1.218zm-7.62 4.142l.553-.32v-2.744l.175-.101.435-.251-.435-.251-.175-.101v-.679l-.378.218-.175.101-.175-.101-2.094-1.21-.624.365.001 3.403 2.892 1.671zm3.971-1.996l-.175.101-.175-.101-2.108-1.218-.61.352v3.424l2.892 1.671 2.893-1.671v-3.423l-.61-.352-2.107 1.217z"/></svg>