<svg role="img" viewBox="0 0 24 24" xmlns="http://www.w3.org/2000/svg"><title>Sequelize icon</title><path d="M22.374 5.961 12.049 0 1.67 5.962l-.054 12.046L12.049 24l10.334-5.966-.009-12.073zM19.37 16.242l-7.349 4.339-7.348-4.244V7.665l7.348-4.182 7.349 4.181v8.578zm-4.325-2.776-.987.57-1.906 1.101-1.917-1.107-.975-.564v-3.424l2.893-1.671 2.893 1.692-.001 3.403zm-.49.86.49.287-.001 3.403-2.893 1.671-2.891-1.671v-3.423l.475-.274 2.417 1.396 2.403-1.389zM9.143 5.765l2.928-1.691 2.911 1.681-.006.371-2.568 1.483v.334l-.255-.149-.404.234v-.484L9.142 6.02l.001-.255zm9.061 6.415.491.287v3.403l-2.893 1.671-.257-.148.001-3.066-.492-.288.491-.284v-.335l.257.148 2.402-1.388zm-8.968 1.849-.475.275v2.916l-.403.233-2.892-1.671-.001-3.403.49-.287 2.402 1.388.403-.233v.507l.476.275zm-3.771-2.797L5.464 7.83l2.893-1.691L11.25 7.83v.486L8.76 9.754v2.917l-.403.233-2.892-1.672zm7.444-3.335 2.893-1.671 2.893 1.691v3.403l-2.893 1.671-.257-.148V9.777l-2.636-1.542v-.338z"/></svg>