<svg viewBox="0 0 16 16" xmlns="http://www.w3.org/2000/svg" fill-rule="evenodd" clip-rule="evenodd" stroke-linejoin="round" stroke-miterlimit="1.414"><path d="M16 12.122v1.516h-3.26v-1.516H16zm-16-.07h7.67v1.517H0v-1.52zm8.593 0h3.26v1.517h-3.26v-1.52zm4.148-2.405H16v1.516h-3.26V9.647zM0 9.577h7.67v1.517H0V9.577zm8.593 0h3.26v1.517h-3.26V9.577zm4.148-2.23H16v1.516h-3.26V7.346zM0 7.277h7.67V8.79H0V7.277zm8.593 0h3.26V8.79h-3.26V7.277zM12.74 4.87H16v1.52h-3.26V4.87zM0 4.803h7.67V6.32H0V4.8zm8.593 0h3.26V6.32h-3.26V4.8zm4.148-2.37H16V3.95h-3.26V2.43zM0 2.36h7.67v1.516H0V2.362zm8.593 0h3.26v1.516h-3.26V2.362z"/></svg>