<svg xmlns="http://www.w3.org/2000/svg" viewBox="0 0 24 24"><title>ServBay</title><path fill="#000" d="M14.201.026a.505.505 0 0 1 .643.312.516.516 0 0 1 .006.341l-2.258 6.346a.512.512 0 0 1-.319.301L1 11.148l2.665-7.319a.513.513 0 0 1 .319-.301L14.2.026ZM1 11.776l2.776 4.044a.551.551 0 0 0 .622.227l5.12-1.89a.482.482 0 0 0 .29-.651l-.03-.063-2.366-3.8L1 11.775Zm8.799 12.15a.505.505 0 0 1-.643-.312.515.515 0 0 1-.006-.34l2.235-6.355a.513.513 0 0 1 .319-.301L23 12.805l-2.665 7.318a.51.51 0 0 1-.318.302L9.799 23.926ZM20.437 8.104a.551.551 0 0 0-.622-.226l-5.12 1.89a.482.482 0 0 0-.29.65l.03.063 2.336 3.845 6.215-2.117-2.55-4.105Z"/></svg>