<svg role="img" viewBox="0 0 24 24" xmlns="http://www.w3.org/2000/svg"><title>Shadow Pc</title><path d="M 11.300781 1.085938 C 9.707031 1.175781 8 1.652344 6.601562 2.398438 C 5.683594 2.886719 4.878906 3.46875 4.113281 4.199219 C 2.292969 5.941406 1.226562 8.050781 0.902344 10.558594 C 0.832031 11.105469 0.832031 12.363281 0.902344 12.90625 C 1.070312 14.1875 1.410156 15.324219 1.96875 16.414062 C 2.515625 17.484375 3.273438 18.492188 4.15625 19.320312 C 4.425781 19.570312 4.46875 19.601562 4.449219 19.535156 C 4.261719 18.777344 4.253906 18.121094 4.421875 17.480469 C 4.773438 16.160156 5.804688 15.101562 7.148438 14.683594 C 7.628906 14.535156 7.902344 14.496094 8.457031 14.496094 C 9.144531 14.5 9.609375 14.597656 10.214844 14.871094 C 11.019531 15.234375 11.738281 15.902344 12.140625 16.664062 C 12.628906 17.601562 12.710938 18.683594 12.363281 19.683594 C 12.144531 20.308594 11.847656 20.761719 11.347656 21.238281 C 11.144531 21.433594 10.910156 21.621094 10.765625 21.714844 C 10.519531 21.871094 9.925781 22.160156 9.851562 22.160156 C 9.824219 22.160156 9.824219 22.167969 9.835938 22.183594 C 9.867188 22.210938 10.429688 22.296875 10.898438 22.351562 C 11.371094 22.402344 12.726562 22.394531 13.226562 22.335938 C 15.425781 22.078125 17.304688 21.332031 19.003906 20.039062 C 19.488281 19.667969 20.300781 18.890625 20.691406 18.425781 C 22.058594 16.789062 22.851562 14.945312 23.113281 12.785156 C 23.15625 12.402344 23.15625 11.0625 23.113281 10.679688 C 22.851562 8.507812 22.070312 6.695312 20.691406 5.039062 C 20.304688 4.578125 19.488281 3.796875 19.003906 3.429688 C 17.183594 2.042969 15.09375 1.257812 12.796875 1.09375 C 12.433594 1.070312 11.671875 1.0625 11.300781 1.085938 Z M 11.300781 1.085938"/></svg>
