<svg role="img" viewBox="0 0 24 24" xmlns="http://www.w3.org/2000/svg"><title>Shein</title><path d="M 3.7447 13.265 c 0 0.2 -0.0401 0.4 -0.1201 0.55 c -0.0801 0.19 -0.2103 0.32 -0.3504 0.46 c -0.1502 0.14 -0.3304 0.25 -0.5407 0.32 c -0.2103 0.07 -0.4405 0.12 -0.6909 0.12 c -0.2303 0 -0.4405 -0.03 -0.6008 -0.05 c -0.1902 -0.02 -0.3504 -0.07 -0.5207 -0.12 c -0.1702 -0.04 -0.3104 -0.14 -0.4606 -0.21 c -0.1502 -0.09 -0.2904 -0.21 -0.4606 -0.32 l 0.7309 -0.72 a 1.9625 1.96 0 0 0 1.2616 0.49 c 0.1001 0 0.1902 -0.02 0.2703 -0.04 a 0.841 0.84 0 0 0 0.2303 -0.12 c 0.0601 -0.05 0.1001 -0.12 0.1502 -0.17 a 0.4205 0.42 0 0 0 0.0601 -0.21 c 0 -0.09 -0.02 -0.16 -0.0401 -0.23 a 0.3404 0.34 0 0 0 -0.1702 -0.19 c -0.0801 -0.07 -0.1902 -0.12 -0.3304 -0.19 a 3.8348 3.83 0 0 0 -0.5407 -0.21 a 6.6082 6.6 0 0 1 -0.5607 -0.23 c -0.1902 -0.09 -0.3304 -0.21 -0.4606 -0.32 a 1.3517 1.35 0 0 1 -0.3104 -0.44 a 1.5219 1.52 0 0 1 -0.03 -1.27 c 0.0801 -0.19 0.2103 -0.35 0.3705 -0.49 c 0.1502 -0.12 0.3304 -0.23 0.5407 -0.3 a 2.5632 2.56 0 0 1 1.6921 0.05 c 0.2703 0.12 0.5207 0.25 0.7309 0.46 l -0.7109 0.72 a 1.3717 1.37 0 0 0 -0.4405 -0.3 a 1.4318 1.43 0 0 0 -0.5607 -0.09 c -0.1001 0 -0.1902 0.02 -0.2703 0.05 a 0.5006 0.5 0 0 0 -0.2303 0.12 c -0.0601 0.05 -0.1001 0.12 -0.1502 0.19 a 0.4405 0.44 0 0 0 0 0.44 c 0.02 0.07 0.0801 0.12 0.1702 0.19 c 0.0801 0.07 0.1902 0.12 0.3304 0.19 c 0.1502 0.07 0.3104 0.14 0.5207 0.21 c 0.2703 0.09 0.4806 0.19 0.6708 0.3 c 0.1902 0.12 0.3304 0.23 0.4606 0.37 c 0.1201 0.14 0.2103 0.28 0.2703 0.44 c 0.0601 0.16 0.0801 0.35 0.0801 0.55 h 0.01 z m 5.8473 1.39 H 8.5207 v -2.31 H 6.6283 v 2.31 H 5.6071 V 9.365 h 1.0213 v 2.08 h 1.8924 V 9.365 h 1.0213 v 5.25 z m 5.637 0 H 11.4544 V 9.365 h 3.7247 v 0.83 H 12.4556 v 1.25 h 2.5131 v 0.81 H 12.4556 v 1.43 h 2.7234 v 0.93 z m 3.0138 0 h -1.0213 V 9.365 h 1.0213 v 5.25 z m 5.7572 -5.25 v 5.39 l -2.8536 -2.75 v 2.57 h -0.9912 V 9.205 l 2.8435 2.75 V 9.365 h 1.0012 z"/></svg>