<svg role="img" viewBox="0 0 24 24" xmlns="http://www.w3.org/2000/svg"><title>Sherlock</title><path d="M13.731 23.87c-.07-.072-.282-.265-.472-.429-1.059-.915-2.082-1.612-3.809-2.593a60 60 0 0 0-2.16-1.097l-.447-.206a22 22 0 0 0-.818-.364l-.473-.204a23 23 0 0 0-.524-.215 38 38 0 0 0-1.521-.594l-.255-.099-.167-.061-.562-.194c-.246-.085-.554-.19-.684-.233s-.236-.082-.236-.089.198-.267.441-.577.562-.721.71-.913a130 130 0 0 1 1.63-2.08c.064-.068.073-.07.344-.07h.279l-.017-.109a6 6 0 0 0-.156-.636c-.008-.012-.037-.009-.066.006-.103.055-.551.198-.826.264l-.371.091a6 6 0 0 1-.575.103c-.112.016-.225.033-.251.038s-.052-.005-.058-.023c-.01-.028.123-.37.273-.701.028-.061.085-.199.128-.306s.095-.237.117-.286c.065-.149.077-.179.226-.55.079-.197.16-.392.18-.434.064-.14.271-.638.297-.717.021-.064.013-.118-.05-.307a6 6 0 0 1-.185-.651l-.075-.306c-.03-.115-.117-.619-.152-.882l-.055-.409c-.039-.292-.053-1.245-.024-1.636.101-1.361.453-2.525 1.083-3.579C5.735.672 8.059-.36 10.545.113c2.285.435 4.52 2.094 5.946 4.412.092.149.181.283.199.297s.153.063.301.108.297.092.332.104.19.058.345.101.31.089.345.102c.093.033.401.124 1.251.371.414.12.758.223.764.23.017.017-.112.2-.246.349-.315.35-.747.568-1.462.736-.509.12-1.629.103-2.441-.036a17 17 0 0 1-2.124-.512l-.233-.067-.163.075c-.09.041-.497.233-.905.427s-.792.374-.854.402l-.113.051.091.08a.66.66 0 0 1 .244.505c.01.17.003.213-.057.348-.084.187-.185.288-.493.49-.261.172-.347.277-.404.492-.068.255-.039.557.116 1.198l.062.268c.022.098.059.259.083.358.054.225.049.303-.031.439-.09.154-.269.281-.523.371-.178.064-.288.075-.432.044a.44.44 0 0 1-.326-.25c-.052-.12-.11-.547-.111-.814-.001-.261-.046-.584-.096-.683q-.148-.291-.498-.077c-.081.05-.23.119-.33.153-.246.084-.387.17-.58.355-.202.193-.336.416-.44.73a1.66 1.66 0 0 0-.016 1.023c.107.397.197.568.365.7.137.108.418.259.7.376.305.128.499.271.602.445.091.154.118.372.131 1.073.012.582.008.661-.04.88a1.5 1.5 0 0 1-.105.327l-.051.087.083.069c.232.193.606.534.914.837l.345.339.652.209.792.255a18 18 0 0 0 2.208.564c.553.09 1.172.064 1.405-.057a.96.96 0 0 0 .318-.339c.094-.182.103-.481.034-1.075-.049-.419-.05-.473-.017-.6.05-.186.105-.254.282-.343.248-.127.305-.24.521-1.05.224-.84.242-.929.242-1.227 0-.155-.005-.35-.01-.435a.44.44 0 0 1 .038-.253c.063-.126.258-.325.488-.497.453-.339.652-.616.652-.906a.6.6 0 0 0-.042-.23c-.092-.18-.41-.619-.769-1.062-1.09-1.347-1.144-1.429-1.334-2.049l-.066-.211a2 2 0 0 1-.053-.23c-.013-.097 0-.079.122.16.165.322.439.78.779 1.3l.366.563c.153.239.461.687.626.91.451.61.631 1.025.588 1.363-.04.321-.191.522-.694.928-.471.38-.537.499-.475.866.03.177.031.255.007.422-.017.112-.031.216-.032.23s.081.068.182.12c.428.22.748.523.995.94.443.75.614 1.586.63 3.091.005.534.007.549.063.595.14.114.318-.008.398-.273.04-.132.047-.276.053-1.052.008-.987.01-1.002.166-1.158.175-.175.19-.177 1.212-.183.842-.005.927-.002 1.01.04.156.08.254.167.313.278l.057.107v1.546c0 1.586-.007 1.712-.105 2.014-.163.501-.544.805-1.198.955-.198.045-.882.046-1.138.001a5 5 0 0 1-.492-.109l-.211-.053a4 4 0 0 1-.447-.129c-.616-.221-.881-.493-1.025-1.056-.051-.198-.059-.291-.057-.664.001-.243.02-.576.044-.754.154-1.179.155-1.999.002-2.525a2.9 2.9 0 0 0-.524-.977c-.06-.07-.082-.082-.1-.054a3 3 0 0 0-.103.37c-.139.568-.237.733-.536.889-.187.098-.219.181-.215.552.002.172.018.395.035.495.049.288.042.648-.014.828a.78.78 0 0 1-.46.473c-.393.148-1.305.084-2.172-.152a13 13 0 0 1-.684-.193c-.066-.027-.056-.003.067.159.437.578.998 1.592 1.32 2.384.124.306.358 1.006.418 1.253.108.442.231 1.209.216 1.345-.008.079-.009.079-.34-.226-.356-.328-.955-.824-.974-.807-.006.006.012.125.041.265.145.719.185 1.033.133 1.033a.8.8 0 0 1-.147-.13m.123-13.787a1.27 1.27 0 0 1-.604-.344c-.158-.166-.173-.216-.092-.319.087-.111.199-.093.367.059.16.145.202.17.368.221.228.069.563.031.752-.087a1.3 1.3 0 0 0 .185-.156c.082-.084.119-.104.194-.104q.153-.001.19.156c.014.056-.006.091-.128.224-.291.315-.792.457-1.232.35"/></svg>