<svg role="img" viewBox="0 0 24 24" xmlns="http://www.w3.org/2000/svg"><title>Shikimori icon</title><path d="M1.9792 23.9824c-.018-.015-.1195-.058-.2238-.098-.1073-.037-.2023-.086-.2115-.1105-.01-.024.077-.1257.2085-.2452.3893-.3496.702-.69.8708-.9443.089-.135.2483-.3405.3526-.46.5855-.6531 1.3613-1.8305 2.0082-3.0476.417-.785.4446-.8678.4814-1.4595.046-.7543.012-1.7354-.095-2.7595-.052-.4875-.095-.9014-.095-.9137 0-.04-.086-.01-.7634.2944-.4354.193-.6624.3127-.742.3863-.064.061-.2392.1747-.3894.2575-.3281.1748-.414.181-.9413.067-.4968-.1042-.7114-.2238-1.2172-.6683-.1166-.1012-.2085-.1993-.2085-.2177 0-.034-.2085-.3496-.5029-.7635l-.1472-.2085.052-.1962c.043-.1594.052-.279.04-.6071-.012-.2699-.01-.4324.018-.469.018-.031.028-.132.021-.2178l-.01-.1595.181-.083c.1012-.049.23-.083.3005-.08.086 0 .147-.022.1993-.068.2207-.1993.3832-.2483.5518-.1625.074.037.077.046.064.3311-.012.3373-.01.3403.2576.3955.2576.052.5887.022 1.4656-.1379.8125-.1472 1.9316-.322 2.0573-.322.058 0 .1074-.04.1994-.1655.067-.089.193-.227.285-.3066l.1626-.1472.2759.022c.4906.034 1.064.1104 1.2479.1686.1748.055.1932.055.5243 0 .1901-.031.4875-.071.6653-.089.8095-.086.9199-.1042.9536-.1441.022-.028.052-.034.086-.012.037.018.077.012.1287-.015.2913-.1687.3342-.181.7942-.187.2575 0 .5427-.024.6776-.052.607-.1258 2.416-.3496 3.2684-.4079l.3127-.021-.043-.086c-.061-.1134-.058-.1502.01-.1441h.2514l.1994-.01.1625-.2238c.089-.1196.1809-.2484.2054-.2821.04-.058.049-.055.2238.1165.1012.1012.2146.2483.2545.3311l.071.1503.4446-.015c.6562-.021 2.41-.055 2.6246-.049.1012 0 .3403.025.5304.049.1901.025.4078.046.4844.046.1657 0 .1687.015-.1318-.3894-.2085-.279-.4844-.5273-.6776-.6101-.058-.021-.1441-.077-.1931-.1166-.049-.043-.2913-.141-.5642-.233-.2699-.089-.515-.19-.5642-.233-.049-.04-.1073-.074-.1288-.074-.024 0-.1717-.028-.325-.064-.236-.055-.2851-.077-.2851-.1226 0-.1073.2729-.061.8983.1533.2637.089.3587.1104.3587.08 0-.028-.1625-.095-.4445-.1901-.2637-.086-.4446-.1625-.4446-.184 0-.021.024-.04.052-.04.077 0 .025-.034-.089-.058-.071-.015-.098-.037-.092-.074.01-.028-.01-.052-.028-.052-.018 0-.028-.021-.015-.046.01-.025.01-.046-.01-.046-.04 0-.141.1258-.2606.325-.061.1043-.1287.1963-.1502.2024-.018.01-.1319 0-.2515-.01-.1165-.012-.2453-.024-.282-.024-.049 0-.071-.022-.071-.058 0-.052-.046-.061-.4017-.095-.2913-.028-.4108-.031-.4354-.01-.046.046-.083.043-.083-.01 0-.031-.049-.049-.1594-.061-.2086-.021-1.015-.086-1.1805-.095-.067-.01-.141-.018-.1594-.028-.046-.031-.1012.01-.083.058.01.021-.01.049-.031.058-.068.028-.068.028-.08-.067-.01-.083-.012-.083-.2607-.092-.1625-.01-.2545 0-.2545.024 0 .015.024.031.055.031.028 0 .1012.031.1594.067.058.034.1564.067.2147.074.058 0 .1257.01.1472.01.018 0 .037.018.037.037 0 .018-.049.031-.1135.028h-.3005l-.184.01.1227.031c.071.018.1502.067.1931.1165l.067.089-.1748.034c-.098.021-.1962.046-.2207.055-.037.012-.04-.015-.022-.1594l.018-.1778-.1134.021c-.061.012-.144.046-.184.077-.058.043-.1165.052-.2913.046l-.2207-.01-.028-.1012c-.04-.1564-.064-.1625-.1564-.043-.046.058-.1042.1073-.1287.1073-.034 0-.04.018-.028.061.012.04.01.061-.022.061-.021 0-.506.01-1.0762.015-.5703.01-1.11.028-1.1958.046-.089.015-.1993.037-.2514.043-.049 0 0 .012.1134.015.1104 0 .2238.012.2514.021.135.052 0 .074-.4537.074-.509 0-.6071.021-.4937.1043.046.034.028.043-.138.058-.1072.012-.2576.021-.3342.021-.1165 0-.1318.01-.083.037.034.018.1257.024.2208.015.1656-.018.2147.012.1135.067-.031.015-.2055.034-.3925.043-.3342.018-.6837.095-.7573.1686-.018.018-.1135.037-.2085.037-.092 0-.2177.015-.276.031-.058.018-.2729.046-.4752.064-.2422.018-.4109.049-.4906.089-.1134.055-.1839.058-1.0271.043-.8769-.012-1.2295-.037-1.487-.1011-.067-.018-.2546-.061-.414-.095-.463-.1043-1.2938-.558-1.628-.8892-.3159-.3096-.3558-.4108-.506-1.2724-.07-.4139-.077-.5151-.064-1.0118.015-.6317.055-.8156.279-1.2908.463-.975 1.1498-1.4227 1.8703-1.2142.3159.092.6593.1594.7973.1594.2207 0 .6622.068.6928.1104.064.074-.067.098-.6285.1104-.6163.018-.7604.043-1.0762.1962-.2299.1104-.3587.2515-.46.4937l-.049.1165.138.1226c.2637.2361.7205.466 1.2173.6071.144.043.5703.1195.9504.1717.3803.052.7175.1103.7482.1287.034.018.095.04.138.046.043.01.2146.028.3801.049.3066.037.4293.1074.138.077-.1318-.012-.1502-.01-.092.015.049.025.1288.025.279 0 .2146-.034.371-.021.371.024 0 .015-.022.028-.052.028-.028 0-.043.01-.034.015.01.012.1472.031.3036.049.7971.083 2.7134.273 2.7533.273.028 0 .07.015.095.031.04.028.04.037-.01.074-.046.037-.037.043.1073.074.135.024.1657.022.1963-.018.028-.04.1135-.049.4814-.049.4323 0 .4476 0 .4783.064.028.061.018.067-.1227.098-.086.018-.1778.037-.2054.037-.1778.015.8156.1165 1.1529.1196.141 0 .4384.028.6592.064.3434.055.5273.064 1.2019.061.4384 0 .978.01 1.1957.031.276.025.4508.025.5673 0 .1012-.018.1748-.021.187 0 .01.015.1748.055.368.092.1931.034.4322.089.5334.1195.2025.064.8187.1686 1.2755.2116.1594.018.4323.071.6102.1195.1779.052.4262.1136.5519.138.3986.083 1.1222.3588 1.1805.4477.01.018.1165.083.239.1472.5673.2974.9076.886.9996 1.7262.018.1778.018.273 0 .3005-.043.049-.046.049.1993.1073.2454.058.4937.1931.4692.2544-.01.025-.024.061-.034.083-.028.061.1778.279.3096.325.068.025.1656.074.2177.1074.089.055.1012.08.1012.1993 0 .1073.028.1778.1226.325.067.1012.1686.233.23.2912.1195.1135.135.2085.064.3557-.025.049-.083.2883-.1258.5336-.092.5028-.1103.5365-.3893.6775-.1748.089-.1932.1073-.3618.365-.141.2114-.1165.2943.1257.4629.1625.1135-.021.092-.2882-.034-.138-.064-.2422-.046-.417.074-.1227.086-.1779.098-.469.1257l-.2025.015-.3894-.2606c-.2268-.1534-.42-.2607-.466-.2607-.04 0-.2637-.1042-.4937-.236a30.9904 30.9904 0 0 0-.5273-.2883c-.092-.046-1.671-.4875-1.7446-.4875-.015 0 .049.19.141.4231.2698.6837.4415 1.3.5304 1.9225.1226.8677.319 1.9806.371 2.1431.1626.4784.4385.9199 1.2234 1.9348.739.9597 1.619 2.1493 1.6863 2.2842.1043.2024.3066.9812.3066 1.1744 0 .037-.04.074-.1196.1042-.1257.049-.1563.1134-.1563.3281 0 .138-.1349.3311-.42.607-.2116.2054-.2606.2361-.3925.2576-.2361.04-.6592.031-.8125-.015-.3312-.098-.3496-.1105-.4078-.233-.034-.067-.1104-.184-.1717-.2607a11.5348 11.5348 0 0 1-.2545-.3372c-.1931-.273-.3893-.4477-.6316-.558-.2024-.092-.5304-.3037-.8677-.5643-.2575-.1962-.4568-.4323-.6101-.7174-.077-.141-.2117-.3618-.3006-.4875-.2207-.3189-.328-.5519-.426-.9106-.077-.2821-.0831-.3526-.0891-.9935-.01-.3802-.022-1.3797-.037-2.2229-.034-1.6127-.037-1.6587-.2024-2.2995-.08-.3127-.552-1.849-.5764-1.8703-.01-.01-.187-.031-.3986-.049-.3312-.031-.4385-.028-.7512.018-.2637.04-.4446.046-.6746.031-.2514-.015-.3158-.012-.3158.021 0 .141.1135.6316.233 1.0087.1441.4539.6225 2.7258.7482 3.5414.077.4998.083 1.3.015 1.9623-.055.5366-.1165.8064-.2882 1.2233-.1103.273-.1471.3281-.325.4937-.2024.19-.2606.2882-.2606.4415 0 .1043-.23.4293-.3588.506-.046.028-.1349.1256-.1931.2207-.058.092-.135.1808-.1656.1992-.031.018-.1165.086-.187.1503-.1747.1595-.322.2147-.6163.236-.4538.028-.4844.01-1.0424-.5426-.3066-.3035-.5827-.5427-.739-.647-.1962-.1287-.2637-.1961-.2974-.282-.058-.138-.414-.4508-.6561-.5734-.1043-.052-.1932-.1196-.2116-.1656-.018-.04-.1134-.1349-.2116-.2085-.098-.073-.2024-.1808-.233-.2391-.034-.058-.092-.1318-.1319-.1625-.04-.031-.1042-.1134-.141-.1778-.04-.068-.1042-.1441-.144-.1717-.061-.04-.071-.067-.058-.1502.01-.064 0-.1257-.028-.1656-.0431-.058-.0401-.064.015-.064.037 0 .064-.01.064-.018 0-.01-.1166-.1595-.2607-.3343-.1441-.1747-.2606-.3249-.2606-.334 0-.01.19.077.4231.193.23.1134.6837.3127 1.0026.4416.3219.1288.7481.3035.9504.3924.4078.1809.5459.1993.6808.1012.187-.135.1962-.187.2238-1.3338.031-1.1528.055-1.4809.1747-2.5265.071-.61.08-.8339.08-1.6618 0-.5273-.01-.9657-.015-.975-.024-.025-.7573.046-.972.0951-.1103.024-.3219.086-.4721.138-.1502.049-.4415.1226-.647.1655-.2024.04-.466.095-.5856.1196-.1165.024-.4844.074-.8125.1134l-.5949.067-.1257.1165c-.067.061-.2084.1626-.3157.227-.2055.1195-.23.1533-.279.4077-.1043.512-.043 1.1651.1655 1.861.1257.4048.1748.5152.3771.828.3496.5427.46.9045.4876 1.5943.015.3925.022.4416.1012.5826.046.086.092.19.101.233.028.1043-.08.5212-.1746.6837-.04.07-.08.1656-.092.2116-.031.1318-.276.3557-.5857.5397-.2146.1287-.3832.2698-.7603.6438-.2698.2637-.5918.604-.7206.7543-.4108.4906-1.1804 1.2693-1.2693 1.2877-.046.012-.141.064-.2147.1196-.1993.1533-.3219.2055-.512.2239-.095.01-.2238.034-.2882.058-.1625.061-.3557.055-.463-.015l-.089-.061-.2208.1226c-.2269.1227-.2882.141-.3373.092zM20.8848 9.7557c-.043-.031-.095-.052-.1165-.043-.055.021.043.098.1288.098.055 0 .055 0-.012-.055zM18.674 7.821c.04-.024.037-.031-.012-.031-.031 0-.077-.025-.098-.052-.037-.052-.04-.049-.043.012 0 .055.031.092.092.098.01 0 .037-.012.061-.028zm-5.1204-.1533c.025-.015.037-.037.025-.046-.031-.031-.1503.015-.1319.049.025.034.049.034.1073 0zm3.8419-.187c.1502-.031.1717-.046.1809-.1165.01-.077.018-.08.1778-.08.092 0 .2576.012.3679.025.1932.018.1564-.01-.067-.055-.049-.01-.086-.031-.086-.049 0-.022.068-.025.2024-.01.1533.015.1993.012.184-.015-.012-.021-.049-.028-.08-.018-.031.01-.1319 0-.2239-.031-.1625-.046-.1717-.046-.2974.018-.1073.058-.1594.064-.3525.049-.1441-.01-.2362 0-.2577.018-.024.025-.058.015-.1257-.034-.08-.058-.1257-.067-.3894-.064h-.3004l.5151.1012c.2851.055.5243.1103.5335.1195.034.034-.1195.018-.6654-.058-.2943-.043-.5764-.074-.6285-.074-.049 0 .021.022.1625.043.3771.058.6806.1319.8186.1993.1534.07.1258.067.3312.028m-2.922.5273c0-.073.043-.1257.1042-.1257.071 0 .1074.021.1687.1012.037.049.031.052-.1165.052-.086 0-.1564-.012-.1564-.028zM11.668 6.2998c.092-.077.1962-.1196.3771-.1502.1165-.018.1257.01.031.095-.1135.1012-.1962.1318-.3526.1318h-.1472zm8.438-.555c-.01-.01-.01-.1103 0-.2239.018-.2268-.031-.3648-.1902-.5334-.1012-.1043-.647-.3802-1.0088-.509-.8155-.2882-2.9893-.512-5.9727-.6163-1.8458-.064-2.6706-.1104-2.9772-.1686-.1165-.022-.2606-.034-.3127-.025-.055.01-.1073 0-.1196-.018-.012-.021-.1042-.025-.2636-.012-.1748.012-.2453.01-.2453-.018 0-.018-.049-.034-.1197-.034-.1379 0-.193-.049-.095-.086.046-.015-.068-.046-.374-.092-.5151-.08-.4845-.08-.4845-.021 0 .024-.012.046-.031.046-.015 0-.031-.015-.031-.034 0-.024-.015-.024-.046 0-.055.046-.138.018-.138-.046 0-.058-.077-.089-.3525-.1349-.1166-.021-.2454-.043-.2822-.052-.04-.01-.071 0-.071.018 0 .015.037.031.086.031.132 0 .2209.034.2209.083 0 .037-.031.043-.1595.025-.2882-.04-.4385-.089-.4477-.144-.01-.037.01-.055.046-.055.046 0 .049-.01.01-.0311-.024-.015-.074-.031-.1042-.031-.034 0-.083-.018-.1073-.04-.028-.024-.325-.1288-.6623-.233-1.5913-.4967-2.1862-.8064-2.7687-1.4288-.1901-.2024-.4353-.5304-.4353-.5795 0-.049.095-.01.1257.052.043.083.2238.2545.3955.374.071.049.1655.135.2054.1902.043.055.092.1011.1073.1011.015 0 .1104.064.2115.1411.1993.1533.6286.3893.6777.374.018-.01-.024-.052-.095-.098-.138-.098-.3434-.3403-.6746-.7971L3.4048.818v.1625c0 .1472-.01.1594-.043.1104-.025-.031-.089-.187-.144-.3465-.0741-.2116-.135-.3312-.2331-.4446C2.8344.1219 2.7792.03 2.8037.0024c.031-.028.2361.184.2913.3004.028.061.095.1656.1503.23l.098.1227V.5544c0-.1319.037-.1258.3617.037.4938.2484.8433.3618 1.1713.377.1778.01.4292.049.644.1013.4598.1165.9565.2024 1.4716.2545.417.043.8524.049.9107.012.015-.01.2299-.01.4721.01.8248.052 1.113.064 1.0977.049-.015-.015-1.6312-.141-1.812-.141-.074 0-.086-.01-.058-.04.028-.034.1686-.04.7174-.028.4507.01.7206 0 .791-.018.1044-.034.5765-.077 1.4074-.1287.3036-.018.4998-.046.6194-.089.1533-.052.5181-.1257 1.0823-.2176.3496-.058.4385-.086.5642-.178.1073-.08.1656-.098.2913-.098.086 0 .2176-.015.2943-.031.089-.018.463-.01 1.073.028.5367.034 1.0272.046 1.15.034.3433-.034 1.444.018 1.956.092.3619.052.5397.095.7881.1932.1778.068.4108.1533.5212.19.4569.1565.791.3772 1.159.7635.3127.3311.374.463.6347 1.3215.1993.6561.2054.6868.23 1.1345.037.6653-.012.8278-.3435 1.1191-.083.07-.1472.1533-.1472.187 0 .1687-.1962.3435-.285.2546z"/></svg>