<svg viewBox="0 0 24 24" xmlns="http://www.w3.org/2000/svg"><title>Shinigami Eyes</title><path d="m11.3 21.87-.24-.03-.54-.06-.15-.02-.44-.07-.35-.05-.51-.1-.18-.02-.22-.03-.2-.03-.37-.06-.42-.05-.5-.06-.25-.03-.78-.06-.35-.02-.2-.03a2 2 0 0 1-.79-.35l-.68-.5-.24-.19-.13-.1-.31-.25-.33-.27-.12-.1-.37-.3-.22-.18-.51-.39-.32-.24-.68-.46-.72-.36-.18-.08v-3.84h.21c.52 0 1.08-.28 1.32-.65a3 3 0 0 0 .43-1.15l.06-.32.14-.56.09-.32.15-.51.11-.37a20 20 0 0 1 .41-1.28 28 28 0 0 1 .56-1.58c.3-.84.73-1.73.98-1.98.17-.17.57-.44 1.3-.87a54 54 0 0 1 2.23-1.13l.52-.24.97-.44a20 20 0 0 1 2.07-.85c.84-.3 2.48-.67 3.13-.67.17 0 .4.03.52.06.31.08.68.2 1.3.46l.48.16c1.28.34 2.42.55 3.8 1.02l.95.33c.37.12.48.27.43.55-.03.19-.15.2-1.38.87-.64.35-1.16.44-1.31.95-.16 1.01.19 1.12.69 1.97.3.51.87 1.23.94 1.36s.68 1 .94 1.45l1.47 2.5q.2.34.1.58c-.04.06-.43.56-.88 1.11-2 2.08-3.25 5-5.9 6.3l-.97.38q-.68.24-1.35.5l-1.16.39-.4.12-.37.1-.26.06c-.14.02-1 .05-1.02.03m1.37-2.57a6.8 6.8 0 0 0 5.95-5.82c.08-.47.1-1.43.03-1.91q-.3-2.4-1.9-4.08a6 6 0 0 0-1.87-1.36 6 6 0 0 0-1.22-.46 5 5 0 0 0-1.6-.18c-.81 0-1.03.03-1.65.2A6.7 6.7 0 0 0 6.5 8.6a9 9 0 0 0-.66 1.4c-.24.7-.34 1.43-.46 2.15l-.04.24a17 17 0 0 0 0 1.62l.1.84.05.18c.11.67.38 1.36.68 1.78.1.14.43.46.64.62.3.22.55.34 1.35.64.11.04.24.1.29.14a6.6 6.6 0 0 0 4.22 1.1m-1.18-3.41a4 4 0 0 1-2.1-1.07 3.2 3.2 0 0 1-.77-3.22 3.5 3.5 0 0 1 2.1-2.11 4 4 0 0 1 1.34-.24c.62 0 1.08.1 1.62.35a3.4 3.4 0 0 1 1.96 2.54c.11.73-.06 1.51-.48 2.16a3.7 3.7 0 0 1-2.36 1.56c-.33.07-.98.08-1.3.03"/></svg>