<svg role="img" viewBox="0 0 24 24" xmlns="http://www.w3.org/2000/svg"><title>Shoelace</title><path d="M12.994 0c-1.497 0-2.79.452-3.877 1.357-1.218 1.014-1.828 2.271-1.828 3.774l.027.461c.148 1.559.881 2.786 2.201 3.679.49.342 1.237.69 2.238 1.043l1.092.375c1.139.393 2.075 1.014 2.809 1.862.734.836 1.162 1.845 1.281 3.023-.58-.165-1.224-.478-1.93-.939l-2.535-1.699c-.973-.655-1.847-1.116-2.621-1.383a6.871 6.871 0 0 0-2.254-.403 7.47 7.47 0 0 0-2.109.307c-1.361.41-2.394 1.198-3.1 2.365-.717 1.178-1.103 2.426-1.16 3.741v.265c0 1.93.822 3.474 2.467 4.635C5.112 23.465 6.959 23.977 9.236 24c1.651 0 3.184-.315 4.602-.947 1.422-.632 2.545-1.551 3.365-2.758a7.128 7.128 0 0 0 1.177-3.176c.294-.04.581-.119.854-.236.046-.02.091-.038.137-.059.104-.049.206-.105.306-.166.081-.047.162-.099.241-.154l.878-.641c.068-.063.134-.127.198-.195a.78.78 0 0 0 .144-.197.524.524 0 0 0 .026-.307.144.144 0 0 0-.018-.068l1.52-1.35c.153-.233.141-.399-.041-.496-.103-.102-.231-.107-.385-.016h-.008a.801.801 0 0 0-.121.084l-1.451 1.291a.837.837 0 0 0-.299-.068c-.194-.006-.37.071-.529.23l-.026.026a17.65 17.65 0 0 1-.406.316l-.691.401a2.19 2.19 0 0 1-.303.119 6.933 6.933 0 0 0-1.469-3.817c-.985-1.28-2.41-2.191-4.277-2.732-1.332-.381-2.316-.904-2.953-1.57-.644-.672-.965-1.427-.965-2.264 0-1.036.394-1.922 1.185-2.662s1.802-1.111 3.032-1.111c.984.011 1.762.272 2.332.785.569.512.853 1.145.853 1.896 0 .757-.326 1.425-.974 2.006a.613.613 0 0 0-.231.486c.003.077.013.153.031.227l-1.482 1.404a.724.724 0 0 0-.094.112l-.008.009c-.108.154-.116.281-.025.383.091.194.263.221.519.078l1.594-1.5c.069.016.139.026.209.032.353 0 .76-.312 1.221-.932.45-.621.674-1.366.674-2.236l-.026-.471c-.119-1.201-.63-2.129-1.529-2.783A5.025 5.025 0 0 0 12.994 0ZM7.357 12.602h.258a5.19 5.19 0 0 1 1.808.341c.61.234 1.284.586 2.024 1.059l1.752 1.187c1.064.723 1.955 1.23 2.672 1.52.319.137.665.253 1.041.35a5.677 5.677 0 0 1-.854 2.289c-.615.956-1.478 1.724-2.588 2.304-1.115.581-2.487.871-4.115.871-2.072 0-3.701-.423-4.891-1.271-1.195-.843-1.793-2.011-1.793-3.502 0-1.326.389-2.476 1.168-3.449.837-1.053 2.01-1.62 3.518-1.699Zm15.078.769a.41.41 0 0 1 .147.059c.028.034.036.079.025.136l-1.418 1.264a.416.416 0 0 0-.187-.195l1.433-1.264Zm-.109-.078.033.035-1.221 1.084-.076-.094 1.264-1.025Zm-8.504-4.688c.045 0 .068.023.068.069 0 .051-.068.103-.205.154h-.154c-.046-.017-.068-.042-.068-.076 0-.011.008-.024.025-.035.04-.029.106-.039.197-.033.04-.052.086-.079.137-.079Zm1.068-.959c.039 0 .059.033.059.098 0 .017-.145.162-.436.436-.29.273-.439.41-.445.41A.269.269 0 0 1 14 8.572l-.008-.06c0-.029.066-.11.197-.246.125-.126.206-.202.246-.231.114-.125.209-.223.283-.291.077-.065.134-.098.172-.098Zm.014-.474c.03-.005.045.007.045.035-.894.831-1.344 1.246-1.35 1.246-.057 0-.086-.027-.086-.078 0-.034.239-.267.717-.699.359-.32.584-.488.674-.504Z"/></svg>