<svg role="img" viewBox="0 0 24 24" xmlns="http://www.w3.org/2000/svg"><title>Shopee</title><path d="M12.0004 0c2.7485 0 5.0031 2.442 5.2264 5.55l.013.2403h4.9344c.2236 0 .4097.1623.4483.3763l.0073.0824-.0006.0237-.768 15.5887a1.8235 1.8235 0 01-.0034.0823l-.0011.0172-.0013.0173-.0007.0146c-.0889 1.0423-.8902 1.8923-1.9034 1.9964l-.1535.01L19.797 24H4.0449c-1.0153-.0405-1.7737-.828-1.9388-1.833l-.021-.1604-.0018-.0017-.0015-.0328-.0023-.0295-.0036-.0656-.0013-.065-.7044-15.5274c.0026-.0117.0021-.0236.0021-.0356a.4581.4581 0 01.3667-.45l.0806-.0086h4.9413C6.882 2.5687 9.1815 0 12.0004 0zm-.166 8.768c-1.8815.008-3.3705 1.2043-3.4946 2.8083-.081 1.1571.489 2.094 1.708 2.8092.2595.1522 1.6673.7158 2.2243.8903 1.7809.5583 2.6911 1.56 2.4749 2.7195-.1966 1.0536-1.294 1.7398-2.82 1.7606-1.0969-.0422-2.1834-.4635-3.1162-1.1941a7.0738 7.0738 0 01-.0967-.075l-.0265-.0205-.0179-.014c-.097-.0763-.1953-.0682-.2559.0247-.0212.0325-.0448.0673-.234.3445-.087.1274-.1422.2086-.1789.2629l-.0426.0636c-.0593.084-.0487.1321.041.2071.3536.2969.8143.6138 1.1233.7725.865.444 1.8034.687 2.8023.7252.6403.0436 1.4492-.0954 2.0517-.3529 1.0818-.4622 1.7803-1.3853 1.92-2.538.2271-1.874-.9802-3.0625-4.135-4.0763-1.5542-.534-2.2737-1.2344-2.2565-2.1937.0645-1.0621 1.0465-1.8418 2.3566-1.8678 1.0523.021 2.0091.3128 2.8722.8926.1065.0676.1758.0592.2349-.0307.0341-.0553.0388-.0626.1876-.299a19.009 19.009 0 00.2005-.3218c.0581-.0936.038-.1804-.0633-.2549-.176-.1314-.686-.4089-.9716-.5293-.8066-.3398-1.6462-.5147-2.4876-.513zm.166-7.3667c-1.9916 0-3.6262 1.8328-3.7948 4.1686l-.0115.2204h7.6126c-.0783-2.4399-1.7525-4.389-3.8063-4.389z"/></svg>