<svg role="img" viewBox="0 0 24 24" xmlns="http://www.w3.org/2000/svg"><title>ShopApp</title><path d="M5.4011 7.2502v7.7061a.0575.0575 0 00.0577.0577h1.4204a.058.058 0 00.0577-.0577v-3.2858c0-.6363.427-1.0905 1.1121-1.0905.7509 0 .9377.6124.9377 1.2383v3.138a.0577.0577 0 00.0582.0577h1.4144a.058.058 0 00.0577-.0577v-3.3257c0-.1143-.005-.2258-.014-.3352a2.9553 2.9553 0 00-.263-1.0275c-.328-.6852-.9506-1.1278-1.8874-1.1278a1.8869 1.8869 0 00-.8261.2066 1.8787 1.8787 0 00-.6498.5481l-.0349.042V7.25a.0577.0577 0 00-.0577-.058H5.4588a.0585.0585 0 00-.0577.058v.0003zm-2.1737 4.334s-.6869-.1613-.9402-.2253c-.253-.0643-.6953-.2071-.6953-.5357 0-.3435.355-.4396.7187-.4396s.7646.0865.7965.4871a.0569.0569 0 00.0574.0505l1.331-.0049a.0577.0577 0 00.0572-.0604c-.0824-1.2803-1.2096-1.7386-2.25-1.7386-1.2342 0-2.1337.8086-2.1337 1.7042 0 .6511.1857 1.263 1.6407 1.6883.2536.0747.602.1703.905.2527.364.1009.5577.2525.5577.4954 0 .2794-.4112.474-.8058.474-.5788 0-.9898-.2144-1.0234-.5976a.0566.0566 0 00-.0571-.0506l-1.3286.006A.0571.0571 0 000 13.1494c.0612 1.208 1.2324 1.8591 2.3245 1.8591 1.6234 0 2.3625-.9154 2.3625-1.7655.0013-.3967-.0907-1.3104-1.4594-1.659l-.0003.0002zm16.233-1.6347v-.7731a.0566.0566 0 00-.057-.0569h-1.3262a.0575.0575 0 00-.0574.0569v7.5745a.056.056 0 00.0574.0571h1.4204a.0574.0574 0 00.0574-.0571v-2.4864h.0212c.2247.3426.8423.753 1.6473.753 1.5163 0 2.7765-1.251 2.7765-2.943 0-1.6225-1.2528-2.938-2.8485-2.938-.7102 0-1.3063.3921-1.6904.865l-.0006-.0523v.0003zm1.5592 3.6293c-.8162 0-1.4652-.6767-1.4652-1.5028 0-.8259.6484-1.4957 1.4652-1.4957.8165 0 1.471.6698 1.471 1.496 0 .8258-.6545 1.5028-1.471 1.5028v-.0003zm-7.2033-4.77c-1.324 0-1.9844.447-2.5155.8083l-.0154.0101a.13.13 0 00-.0395.1737l.5475.939a.1346.1346 0 00.2028.0355l.0412-.0338c.2733-.228.6863-.572 1.744-.6566.589-.047 1.0984.1104 1.4712.4547.413.3791.6594.9915.6594 1.6374 0 1.1877-.703 1.9355-1.8328 1.9506-.9308-.005-1.557-.4885-1.557-1.2033 0-.3783.1498-.6566.4855-.9034a.1302.1302 0 00.039-.1662l-.4697-.8855a.1346.1346 0 00-.136-.0695.137.137 0 00-.0517.017c-.528.3116-1.1506.9133-1.116 2.01.0426 1.3957 1.2075 2.4608 2.7221 2.5043h.1726c1.8003-.0583 3.099-1.3883 3.099-3.1886.0005-1.6658-1.2088-3.4337-3.4507-3.4337z"/></svg>