<svg role="img" viewBox="0 0 24 24" xmlns="http://www.w3.org/2000/svg"><title>ShopApp</title><path d="M10.437 0C5.64 0 3.246 1.62 1.321 2.93l-.056.036a.471.471 0 00-.143.63l1.984 3.403a.485.485 0 00.735.128l.15-.122c.99-.827 2.487-2.073 6.32-2.38 2.135-.17 3.98.4 5.332 1.648 1.496 1.374 2.39 3.593 2.39 5.934 0 4.304-2.549 7.015-6.643 7.07-3.373-.019-5.642-1.77-5.642-4.362 0-1.37.542-2.38 1.759-3.273a.472.472 0 00.141-.603L5.946 7.83a.497.497 0 00-.68-.19c-1.914 1.129-4.17 3.31-4.045 7.284.155 5.058 4.376 8.919 9.866 9.076h.625c6.525-.211 11.231-5.031 11.231-11.556C22.945 6.407 18.563 0 10.437 0z"/></svg>