<svg role="img" viewBox="0 0 24 24" xmlns="http://www.w3.org/2000/svg"><title>Shopee</title><path d="M12 0c2.749 0 5.004 2.442 5.227 5.55l.013.24h4.935c.251 0 .455.205.455.459v.024l-.769 15.589-.003.082-.001.017-.001.017-.001.015c-.089 1.042-.89 1.892-1.903 1.997l-.154.01H4.045c-1.016-.04-1.774-.828-1.94-1.833l-.02-.16-.002-.002-.002-.033-.002-.03-.003-.065-.002-.065L1.37 6.284c.002-.011.002-.023.002-.035 0-.223.158-.408.367-.45l.08-.009h4.942C6.88 2.568 9.18 0 12 0zm-.166 8.768c-1.881.008-3.37 1.204-3.494 2.808-.081 1.157.489 2.094 1.708 2.81.26.152 1.667.715 2.224.89 1.781.558 2.691 1.56 2.475 2.72-.197 1.053-1.294 1.74-2.82 1.76-1.097-.042-2.183-.464-3.116-1.194a7.074 7.074 0 01-.07-.054l-.053-.042-.018-.014c-.097-.076-.196-.068-.256.025-.021.033-.045.067-.234.345l-.222.326c-.059.084-.048.132.041.207.354.297.815.614 1.124.773a6.628 6.628 0 002.802.725c.64.043 1.45-.096 2.052-.353 1.081-.462 1.78-1.385 1.92-2.538.227-1.874-.98-3.063-4.135-4.076-1.555-.534-2.274-1.235-2.257-2.194.065-1.062 1.047-1.842 2.357-1.868a5.224 5.224 0 012.872.893c.106.067.176.059.235-.031l.187-.299c.115-.181.168-.267.2-.322.059-.093.039-.18-.062-.255-.176-.131-.686-.409-.972-.529a6.36 6.36 0 00-2.488-.513zM12 1.401c-1.991 0-3.626 1.833-3.795 4.169l-.011.22h7.613C15.729 3.35 14.054 1.401 12 1.401z"/></svg>