<svg role="img" viewBox="0 0 24 24" xmlns="http://www.w3.org/2000/svg"><title>Shopee</title><path d="M15.896 17.962c-.14 1.152-.838 2.075-1.92 2.538a4.821 4.821 0 01-2.051.352 6.628 6.628 0 01-2.802-.725 6.992 6.992 0 01-1.124-.772c-.09-.075-.1-.123-.04-.207.031-.049.09-.136.22-.327l.235-.344c.06-.093.159-.101.256-.025l.018.014.053.042.07.054c.933.73 2.02 1.151 3.116 1.194 1.526-.021 2.623-.707 2.82-1.76.216-1.16-.694-2.162-2.475-2.72-.557-.175-1.965-.738-2.224-.89-1.22-.716-1.79-1.653-1.708-2.81.124-1.604 1.613-2.8 3.494-2.808a6.36 6.36 0 012.488.513c.286.12.795.398.971.53.102.074.122.16.064.254-.033.055-.086.14-.2.32v.002c-.15.236-.154.244-.188.3-.06.089-.129.097-.235.03a5.224 5.224 0 00-2.872-.893c-1.31.026-2.292.806-2.357 1.868-.017.96.702 1.66 2.257 2.194 3.154 1.013 4.362 2.202 4.134 4.076M12 1.402c2.054 0 3.728 1.948 3.807 4.388H8.194C8.272 3.35 9.947 1.401 12 1.401M22.63 6.25a.457.457 0 00-.456-.459H17.24C17.119 2.57 14.82 0 12 0 9.181 0 6.882 2.569 6.76 5.79H1.82a.457.457 0 00-.446.495H1.37l.705 15.527c0 .043.001.087.004.13l.003.03.001.033.002.002c.107 1.08.891 1.95 1.957 1.99l.003.003H19.797c1.086-.03 1.964-.913 2.057-2.007l.001-.015a2.233 2.233 0 00.006-.117l.769-15.588v-.024"/></svg>