<svg role="img" viewBox="0 0 24 24" xmlns="http://www.w3.org/2000/svg"><title>Showwcase</title><path d="M8.555 1.93a14.517 14.517 0 0 1 1.695-.242c.129-.012.219-.036.273-.137.094-.168.258-.235.493-.254.62-.05 1.242-.055 1.867-.008.3.024.504.11.617.332.047.086.125.117.242.125.246.02.492.05.735.086.316.047.628.105.957.164a2.389 2.389 0 0 0-.246-.566C14.812.758 14.203.3 13.3.113c-.68-.14-1.367-.129-2.055-.082a3.68 3.68 0 0 0-1.226.285c-.801.344-1.192.926-1.465 1.614Zm-8.078.617c.27.113.527.27.753.469.504.425.852.937 1.172 1.457.356.582.637 1.187.903 1.8.05-.035.054-.078.066-.117.133-.488.293-.968.496-1.437.36-.832.84-1.606 1.719-2.172.086-.055.078-.094.016-.16a5.344 5.344 0 0 0-.93-.785 1.611 1.611 0 0 0-.953-.266c-.793.012-1.516.223-2.2.527-.394.176-.761.38-1.042.684Zm10.43-.602-.083.012a.105.105 0 0 0-.035-.008c-1.039.063-2.07.164-3.07.414-1.07.266-1.899.785-2.473 1.563-.457.617-.707 1.3-.934 1.992-.238.719-.406 1.45-.55 2.187a65.365 65.365 0 0 0-.59 3.57 145.13 145.13 0 0 0-.34 2.618c-.152 1.238-.285 2.477-.293 3.723-.012 1.093.02 2.183.438 3.242a2.952 2.952 0 0 0 1.539 1.64c.824.391 1.726.606 2.648.766 1.367.234 2.754.313 4.149.332 1.496.02 2.992-.012 4.48-.187 1.09-.125 2.156-.32 3.168-.688.918-.332 1.59-.851 1.953-1.625.363-.766.488-1.566.527-2.375.098-1.824-.12-3.64-.351-5.453a98.977 98.977 0 0 0-.574-3.988 36.887 36.887 0 0 0-.47-2.426c-.218-.934-.48-1.856-.929-2.738-.55-1.075-1.472-1.836-2.875-2.16-1.746-.403-3.531-.5-5.336-.41ZM21.89 13.191c0 .106.004.211.035.313l.113.851c-.016.055-.008.106.023.176.028-.074.083-.113.067-.172l.336-1.332c.02-.05.043-.097.031-.152.067-.121.078-.254.121-.383.242-.765.41-1.543.567-2.324.171-.86.32-1.723.511-2.578.235-1.055.34-2.113.293-3.18-.015-.398-.039-.793-.172-1.207-.109.07-.203.121-.289.184-.386.293-.66.648-.906 1.02-.7 1.054-1.152 2.183-1.574 3.323-.024.06-.012.114 0 .172.223 1.035.379 2.075.531 3.118.106.722.207 1.445.313 2.171ZM.066 3.481c-.07.226-.066.46-.066.687-.004 1.047.14 2.086.309 3.121.148.902.351 1.793.55 2.688.192.867.391 1.73.598 2.593.203.82.273 1.653.352 2.485.004.058-.008.125.043.187.011-.02.023-.031.023-.043.137-1.219.293-2.437.473-3.648.172-1.184.336-2.364.578-3.54.031-.152.07-.304 0-.464-.14-.317-.246-.64-.383-.957-.356-.836-.734-1.668-1.305-2.43-.23-.312-.468-.617-.84-.84-.082-.058-.175-.16-.273-.125-.086.032-.055.157-.07.243-.004.015.007.03.011.042Zm22.25-1.66a6.499 6.499 0 0 0-2.43-.446c-.238 0-.472.074-.671.219-.344.242-.582.547-.785.875-.043.066.004.094.054.129.235.152.45.336.649.543.676.714 1.02 1.546 1.305 2.398.085.262.164.524.257.816.278-.636.547-1.242.903-1.82.43-.703.89-1.39 1.699-1.87l.105-.052.09-.043c.082-.023.031-.047 0-.074-.015-.05-.058-.09-.113-.121a.42.42 0 0 0-.188-.148 2.338 2.338 0 0 0-.597-.309c-.09-.04-.172-.094-.278-.098Zm0 0"/></svg>
