<svg role="img" viewBox="0 0 24 24" xmlns="http://www.w3.org/2000/svg"><title>Showtime icon</title><path d="M11.997 0C8.33 0 5.047 1.648 2.846 4.241a2.982 2.982 0 01.612.091c2.8.712 2.8 3.624 2.8 4.538H3.65s0-2.087-1.304-2.087c-.293 0-.51.11-.677.245-.073.06-.236.254-.312.548-.15.588-.142 1.593.99 2.598 1.485 1.32 4.434 2.543 4.434 5.674 0 2.429-1.722 3.724-3.21 3.942 0 0-.228.043-.646.064C5.124 22.393 8.374 24 11.997 24c3.647 0 6.91-1.63 9.11-4.197-2.46-.245-4.414-3.64-4.414-7.803s1.953-7.558 4.414-7.803A11.965 11.965 0 0011.997 0zM7.823 4.696h2.609v6h2.609v-6h2.608v15.13h-2.608v-6.522h-2.609v6.522H7.823zM21.65 6.783A2.348 5.217 0 0019.302 12a2.348 5.217 0 002.347 5.217A2.348 5.217 0 0023.997 12a2.348 5.217 0 00-2.348-5.217zM.004 11.217s-.035 2.466.366 3.653c.597 1.76 1.267 2.347 2.385 2.347.82 0 1.416-.521 1.416-1.63 0-1.24-1.537-1.976-2.6-2.78-1.003-.758-1.567-1.59-1.567-1.59z"/></svg>