<svg role="img" viewBox="0 0 24 24" xmlns="http://www.w3.org/2000/svg"><title>Simple Icons</title><path d="M22.9588,6.26157L12.52313,6.26157C11.946,6.26157,11.48024,6.72901,11.48024,7.30446L11.48024,10.43482C11.48024,11.01195,11.0128,11.47771,10.43735,11.47771L1.04289,11.47771C0.46576,11.47771,0,11.94516,0,12.5206L0,16.69554C0,17.27268,0.46744,17.73843,1.04289,17.73843L11.47855,17.73843C12.05569,17.73843,12.52145,17.27099,12.52145,16.69554L12.52145,13.56518C12.52145,12.98805,12.98889,12.52229,13.56434,12.52229L22.95711,12.52229C23.53424,12.52229,24,12.05484,24,11.4794L24,7.30446C24,6.72732,23.53256,6.26157,22.95711,6.26157L22.9588,6.26157Z"/></svg>