<svg role="img" viewBox="0 0 24 24" xmlns="http://www.w3.org/2000/svg"><title>Silvie icon</title><path d="M18.357 24h-4.238a5.65 5.65 0 0 1-5.643-5.643v-2.644h2.81v2.644a2.836 2.836 0 0 0 2.833 2.833h4.238a2.836 2.836 0 0 0 2.833-2.833v-2.119a2.836 2.836 0 0 0-2.833-2.833H5.643A5.65 5.65 0 0 1 0 7.762V5.643A5.65 5.65 0 0 1 5.643 0h4.238a5.65 5.65 0 0 1 5.643 5.643v2.652h-2.81V5.643A2.836 2.836 0 0 0 9.88 2.81H5.643A2.836 2.836 0 0 0 2.81 5.643v2.119a2.836 2.836 0 0 0 2.833 2.833h12.714A5.65 5.65 0 0 1 24 16.238v2.119A5.65 5.65 0 0 1 18.357 24z"/></svg>