<svg role="img" viewBox="0 0 24 24" xmlns="http://www.w3.org/2000/svg"><title>Simkl icon</title><path d="M1.32.048a1.853 1.853 0 0 0-.76.47A1.91 1.91 0 0 0 .013 1.59C0 1.68 0 4.493 0 12.059l.005 10.344.043.152c.203.736.75 1.25 1.499 1.416.128.026.452.029 10.445.029 9.816 0 10.32-.001 10.45-.028a1.933 1.933 0 0 0 1.474-1.303c.092-.289.085.55.083-10.752l-.006-10.36-.04-.152A1.935 1.935 0 0 0 22.674.047L22.528 0 11.995.001H1.46zm13.408 4.523c.93.04 1.527.084 2.003.152.933.133 1.692.376 2.193.705.49.32.847.881 1.027 1.623.116.482.145.762.152 1.581l.008.687h-4.178v-.11c0-.28-.057-.63-.125-.781a.867.867 0 0 0-.347-.355c-.226-.12-.453-.153-1.249-.184a139.827 139.827 0 0 0-4.66 0c-.767.036-1.17.08-1.347.142-.25.089-.414.277-.501.574a1.23 1.23 0 0 0-.035.392c0 .29.018.388.098.556a.8.8 0 0 0 .524.4c.364.084 1.694.164 4.037.242 1.652.054 1.897.062 2.455.088 2.173.093 2.964.185 3.752.44 1.086.35 1.69 1.041 1.933 2.208.123.592.172 1.368.14 2.204-.064 1.729-.35 2.642-1.027 3.3a3.148 3.148 0 0 1-1.502.764c-.968.2-3.04.298-6.259.298-3.61 0-5.217-.126-6.352-.501-.552-.181-.896-.381-1.224-.71-.465-.466-.69-.969-.79-1.757-.049-.39-.062-.653-.074-1.382l-.01-.676h4.16l.01.229c.028.653.19 1.035.507 1.2.228.117.464.167 1.005.2.636.041 5.613.041 6.052 0 .637-.059.952-.148 1.096-.31.156-.177.23-.43.244-.84.02-.603-.107-.883-.463-1.027-.316-.13-.626-.166-1.628-.188a108.48 108.48 0 0 1-3.096-.126c-1.545-.073-2.569-.12-3.213-.141-1.065-.037-1.673-.105-2.276-.252a2.804 2.804 0 0 1-.987-.419c-.549-.368-.929-.952-1.114-1.71-.227-.938-.236-2.554-.018-3.64.238-1.191.744-1.91 1.642-2.335.469-.221.97-.35 1.65-.42.619-.064 1.894-.12 3.339-.141.693-.011 4.068.005 4.448.02z"/></svg>