<svg role="img" viewBox="0 0 24 24" xmlns="http://www.w3.org/2000/svg"><title>SimpleX</title><path d="m9.947 18 2.013-2.012v-.001l4.026-4.025-3.95-3.949-1.974-1.975L6.113 2.09 8.125.076l3.95 3.95L16.1 0l1.975 1.974L14.049 6 18 9.95l4.026-4.025L24 7.898l-4.026 4.025 3.95 3.95-2.013 2.012-3.95-3.949-4.027 4.025 3.95 3.95-2.013 2.013-3.95-3.95L7.897 24l-1.974-1.974ZM2.14 6.066l3.947 3.948 4.058-4.058 1.974 1.975-4.058 4.056 3.948 3.948-2.029 2.028-3.948-3.947-4.057 4.057L0 16.1l4.057-4.057L.11 8.096Z"/></svg>