<svg role="img" viewBox="0 0 24 24" xmlns="http://www.w3.org/2000/svg"><title>SimpleLocalize</title><path d="M9.619 2q1.63 0 3.018.834a6.1 6.1 0 0 1 2.175 2.197 3.5 3.5 0 0 1 1.988-.606q1.5 0 2.55 1.06 1.05 1.062 1.05 2.577 0 .682-.225 1.327 1.65.34 2.738 1.667Q24 12.382 24 14.125q0 1.326-.637 2.444a4.7 4.7 0 0 1-1.666 1.715c-1.966 1.409-6.07 3.414-11.223 4.683-1.866.459 3.785-3.98.853-3.98q-.151 0-.24-.011L5.4 18.975a5.17 5.17 0 0 1-2.7-.739 5.53 5.53 0 0 1-1.969-1.99A5.3 5.3 0 0 1 0 13.52q0-1.78 1.013-3.183T3.6 8.366v-.303q0-1.63.806-3.032A6 6 0 0 1 6.6 2.815 5.86 5.86 0 0 1 9.619 2"/></svg>