<svg viewBox="0 0 16 16" xmlns="http://www.w3.org/2000/svg" fill-rule="evenodd" clip-rule="evenodd" stroke-linejoin="round" stroke-miterlimit="1.414"><path d="M6.72 13.532c-2.647.26-4.934-.936-5.106-2.675C1.442 9.12 3.45 7.497 6.1 7.235c2.648-.262 4.934.935 5.106 2.674.172 1.73-1.836 3.36-4.485 3.62zm-.697-2.066c-.256.41-.804.588-1.218.4-.407-.186-.527-.66-.27-1.06.252-.396.783-.573 1.193-.4.415.175.547.647.295 1.06zm.845-1.083c-.093.158-.298.234-.458.168-.158-.06-.208-.24-.118-.39.092-.15.29-.23.447-.16.16.06.21.24.12.4zm.118-1.81c-1.26-.328-2.685.3-3.233 1.41-.557 1.134-.018 2.39 1.255 2.802 1.32.426 2.874-.226 3.415-1.45.533-1.194-.133-2.425-1.437-2.762zm5.033-.814c-.23-.07-.38-.12-.27-.41.25-.65.28-1.2 0-1.6-.52-.74-1.94-.7-3.57-.02 0 0-.51.22-.38-.18.25-.81.21-1.48-.18-1.87-.89-.89-3.24.03-5.25 2.05C.87 7.24 0 8.84 0 10.22c0 2.65 3.393 4.257 6.713 4.257 4.35 0 7.246-2.53 7.246-4.54 0-1.213-1.03-1.9-1.94-2.186zm1.27-3.39c-.51-.57-1.27-.79-1.97-.64-.29.06-.47.34-.41.62.06.28.34.46.62.4.34-.07.71.03.96.31s.31.65.21.98c-.09.27.06.57.34.66.27.08.57-.07.66-.34.22-.68.08-1.45-.43-2.02zm1.61-1.46c-1.05-1.17-2.6-1.61-4.03-1.31-.33.07-.54.39-.47.72.07.33.39.54.72.47 1.02-.22 2.12.1 2.86.92.74.83.95 1.96.63 2.94-.11.32.07.67.39.77.32.11.66-.07.77-.39.45-1.39.16-2.98-.89-4.15z"/></svg>