<svg viewBox="0 0 16 16" xmlns="http://www.w3.org/2000/svg" fill-rule="evenodd" clip-rule="evenodd" stroke-linejoin="round" stroke-miterlimit="1.414"><path d="M1.647 7.022l1.18 1.125 3.732 3.427 1.607-1.527c.146-.198.136-.47-.03-.657l-1.47-1.268.005-.003L5.09 6.61c-.185-.207-.18-.516.015-.715l4.26-4.05L7.428 0l-5.78 5.492c-.443.422-.443 1.107 0 1.53zM14.352 8.98l-1.18-1.128-3.73-3.427-1.608 1.527c-.147.2-.137.47.03.657l1.47 1.266-.005.002 1.58 1.51c.187.208.182.516-.014.716l-4.26 4.048L8.572 16l5.78-5.492c.443-.422.444-1.106 0-1.53z"/></svg>