<svg viewBox="0 0 16 16" xmlns="http://www.w3.org/2000/svg" fill-rule="evenodd" clip-rule="evenodd" stroke-linejoin="round" stroke-miterlimit="1.414"><path d="M1.647 7.022l1.18 1.125 3.732 3.427 1.6-1.527c.14-.198.13-.47-.03-.657L6.66 8.122l.006-.003-1.58-1.51c-.186-.21-.18-.52.014-.72l4.26-4.05L7.43 0 1.65 5.492c-.443.422-.443 1.107 0 1.53zM14.352 8.98l-1.18-1.128-3.73-3.427-1.608 1.527c-.147.2-.137.47.03.657l1.47 1.26H9.33l1.58 1.51c.18.21.18.51-.02.71l-4.26 4.05L8.57 16l5.78-5.492c.443-.422.444-1.106 0-1.53z"/></svg>