<svg aria-labelledby="simpleicons-sketch-icon" role="img" viewBox="0 0 24 24" xmlns="http://www.w3.org/2000/svg"><title id="simpleicons-sketch-icon">Sketch icon</title><path d="M.599 8.889l11.378 13.366L23.403 8.84l-4.815-6.648L12 1.494l-6.493.698L.599 8.889zm11.378 14.09L0 8.91l5.25-7.163L12 1.02l6.847.727.061.085L24 8.863 11.977 22.979z"/><path d="M11.792 22.723L4.677 8.958l.467-7.004.469.03-.459 6.875 7.054 13.649z"/><path d="M12.17 22.723l-.418-.215 7.055-13.649-.458-6.875.467-.03.469 7.004z"/><path d="M18.895 9.07l-6.914-7.293L5.106 9.07l-.342-.322 7.217-7.655 7.255 7.655z"/><path d="M.299 9.134h23.402v-.469H.299z"/></svg>