<svg aria-labelledby="simpleicons-sketch-icon" role="img" viewBox="0 0 24 24" xmlns="http://www.w3.org/2000/svg"><title id="simpleicons-sketch-icon">Sketch icon</title><path d="M4.888 2.155a.48.48 0 0 1 .325-.198L11.933 1h.135l6.72.957a.48.48 0 0 1 .324.198l4.787 6.68a.489.489 0 0 1 .1.284.466.466 0 0 1-.128.334L12.378 22.817a.482.482 0 0 1-.756 0L.129 9.453A.485.485 0 0 1 0 9.12a.468.468 0 0 1 .1-.284l4.788-6.68zm-.087 1.768L1.414 8.649H4.8V3.923zm14.398 0v4.726h3.387L19.2 3.923zM6.057 9.606L12 21.452l5.943-11.846H6.057zm-1.073 0h-3.46l8.303 9.654-4.843-9.654zm14.032 0l-4.843 9.654 8.303-9.654h-3.46zM5.76 7.854l5.026-5.724-5.026.715v5.01zm7.454-5.724l5.026 5.724V2.845l-5.026-.715zM6.338 8.649h11.324L12 2.2 6.338 8.649z"/></svg>