<svg role="img" viewBox="0 0 24 24" xmlns="http://www.w3.org/2000/svg"><title>Sketch icon</title><path d="M17.094 6.16l-4.637-5.03 6.337.67.255 4.776.097 1.811-2.052-2.226zM4.822 2.222L0 8.696h4.476l.046-.858.3-5.616zm6.328 19.779L4.537 9.056H.033l1.297 1.51 9.82 11.435zM10.02 3.312L5.06 8.696h13.88l-4.96-5.384L12 1.165l-1.98 2.147zm9.158-1.09l.3 5.616.046.858H24l-4.822-6.474zm4.789 6.834h-4.504L12.85 22.001l9.82-11.435 1.297-1.51zm-9.22 8.437l4.311-8.437H4.942l4.31 8.437L12 22.871l2.748-5.378zM5.207 1.8L4.95 6.575l-.097 1.811L6.906 6.16l4.637-5.031-6.12.647-.217.023z"/></svg>