<svg role="img" viewBox="0 0 24 24" xmlns="http://www.w3.org/2000/svg"><title>Skillshare icon</title><path d="M10.5241 23.927c-2.1397-.278-4.3434-1.1959-5.9492-2.4797C.9634 18.5627-.6784 14.0123.2595 9.4869c.405-1.9517 1.4498-4.0075 2.7896-5.4863A11.6354 11.6354 0 016.5577 1.313C8.3204.4181 10.0092.0152 12.0009.0152c1.4318 0 2.5787.187 3.8965.6359a12.0104 12.0104 0 017.457 7.457c.7029 2.0647.8339 4.2594.383 6.4341-.357 1.7198-1.2829 3.6495-2.4247 5.0493-.47.577-1.5448 1.6078-2.1127 2.0278a12.2013 12.2013 0 01-5.7813 2.3096c-.6149.076-2.2977.074-2.8946-.003zm3.2696-1.004a11.1685 11.1685 0 007.253-4.5323c2.0267-2.8506 2.5707-6.6691 1.4248-9.9997-.27-.7838-.9369-2.0857-1.4238-2.7746-.544-.7699-1.8877-2.1147-2.6586-2.6596-.75-.529-2.0308-1.1739-2.9016-1.4618a11.0635 11.0635 0 00-9.4968 1.2118 11.4964 11.4964 0 00-3.2895 3.2876 11.0665 11.0665 0 00-1.2098 9.4967c.287.8709.9328 2.1517 1.4618 2.9016.5449.7709 1.8887 2.1157 2.6596 2.6596.6889.486 1.9897 1.1539 2.7736 1.4238 1.7248.593 3.5725.746 5.4083.447zm-4.1545-4.0224a4.2224 4.2224 0 01-1.5837-.5799c-.431-.277-3.7055-3.4815-3.8655-3.7835-.182-.345.137-.9699.594-1.1598l.2149-.09-.66-.673c-.3629-.3699-.7068-.7628-.7628-.8738-.128-.25-.134-.7839-.011-1.0219.05-.098.17-.245.267-.327.16-.136.174-.1799.157-.5159-.016-.3.01-.4149.1399-.6389.187-.318.574-.5359.9529-.5369.208 0 .265-.03.353-.185.2339-.41.9078-.5579 1.4197-.31l.276.133.139-.13c.186-.175.5599-.3259.8069-.3259.4919 0 1.1868.566 1.1868.9659 0 .475-.434.557-.8619.163-.288-.265-.43-.293-.547-.107-.0579.092.08.258.922 1.1058.8379.843.9898 1.0259.9898 1.1859a.49.49 0 01-.4729.4629c-.152 0-.402-.22-1.5538-1.3678C6.5657 9.1209 6.3497 8.933 6.2567 8.991c-.253.16-.168.277 1.2068 1.6557.747.75 1.3599 1.4148 1.3599 1.4758 0 .132-.117.367-.215.432a.61.61 0 01-.255.047c-.16.001-.406-.218-1.7157-1.5238-1.3099-1.3058-1.5458-1.5158-1.6398-1.4568-.256.162-.172.275 1.3258 1.7797.8139.817 1.4978 1.5478 1.5198 1.6248.042.14-.052.388-.179.473a.622.622 0 01-.259.048c-.163 0-.3649-.176-1.4478-1.2599-1.0398-1.0418-1.2848-1.2578-1.4148-1.2438-.377.043-.244.212 1.6928 2.1527 1.6788 1.6818 1.8948 1.9207 1.8948 2.0957 0 .139-.05.237-.166.328-.302.238-.42.183-1.1769-.55-.387-.373-.7869-.7319-.8898-.7959-.191-.12-.675-.169-.767-.076-.03.029.685.782 1.5858 1.6748 1.5028 1.4878 1.6778 1.6408 2.1188 1.8528.8498.41 1.7677.413 2.6186.008 1.2628-.6 1.9617-2.0637 1.6178-3.3876-.172-.6589-.386-.9768-1.2558-1.8687-1-1.0249-1.2299-1.3058-1.4738-1.7968-.273-.5499-.393-1.0848-.393-1.7557 0-.721.076-1.0499.396-1.7238.306-.646.9398-1.3198 1.5697-1.6698 1.2359-.6849 2.8597-.6279 4.0395.142.235.153 1.0818.9489 2.1357 2.0057C19.6569 9.25 19.8369 9.451 19.8369 9.634c0 .425-.348.8979-.733.9938-.148.038-.118.08.538.745.383.3869.7389.8078.7909.9338.186.443.104.8739-.232 1.2218-.174.18-.195.244-.2.603-.006.317-.04.448-.163.6289-.206.3-.5469.486-.8908.487-.242 0-.291.026-.41.2099-.273.421-.9858.568-1.4458.297l-.23-.137-.165.157c-.3649.3479-.9498.3949-1.3957.112-.359-.228-.625-.543-.625-.742 0-.175.256-.464.41-.464.148 0 .35.115.575.328.2269.214.4209.213.4519-.005.017-.117-.17-.34-.9279-1.1028-.7969-.8029-.9499-.9859-.9489-1.1428a.61.61 0 01.048-.255c.084-.127.325-.218.474-.18.081.02.7399.63 1.4638 1.3538.7249.725 1.3628 1.3178 1.4198 1.3178.161 0 .264-.16.19-.295-.035-.0619-.646-.6938-1.3579-1.4037-1.1148-1.1099-1.2938-1.3158-1.2928-1.4788a.61.61 0 01.047-.259c.065-.097.3-.214.432-.214.062 0 .7948.682 1.6327 1.5168 1.5388 1.5338 1.6518 1.6198 1.8128 1.3639.06-.094-.15-.33-1.4558-1.6398-1.3489-1.3518-1.5258-1.5528-1.5258-1.7288 0-.124.052-.248.138-.327.2879-.269.3709-.213 1.7577 1.1669 1.3128 1.3078 1.4318 1.3938 1.5898 1.1448.058-.094-.207-.386-1.8348-2.0187C16.0004 9.042 15.8714 8.897 15.8714 8.69c0-.31.18-.46.527-.437.064.004.4369.319.8268.7.39.38.8099.7349.9349.7869.245.102.53.12.6539.042.117-.075-3.1266-3.2666-3.5455-3.4886a3.0116 3.0116 0 00-4.1625 1.3828c-.201.434-.23.56-.255 1.1199-.024.527-.006.6929.107 1.0268.202.597.381.843 1.2899 1.7728.9839 1.0079 1.1718 1.2408 1.4228 1.7778.7019 1.5008.404 3.2325-.7559 4.3914-.8839.8839-2.0837 1.2998-3.2756 1.1358z"/></svg>