<svg role="img" viewBox="0 0 24 24" xmlns="http://www.w3.org/2000/svg">
<title>Skoob</title><path d="M 11.309 23.753 C 10.908 23.269 9.713 22.866 8.273 22.733 C 6.071 22.525 5.026 21.813 4.544 20.18 C 4.376 19.614 4.215 19.42 3.684 19.155 C 2.114 18.365 1.818 17.73 1.818 15.161 C 1.818 14.092 1.856 13.22 1.903 13.22 C 1.948 13.22 2.484 13.47 3.092 13.777 C 3.702 14.082 4.242 14.287 4.296 14.232 C 4.353 14.178 4.396 13.911 4.392 13.637 C 4.388 13.256 4.2 12.956 3.593 12.36 C 1.72 10.523 1.613 7.409 3.344 5.354 L 3.794 4.822 L 3.46 4.468 C 3.25 4.228 3.079 3.953 2.957 3.658 C 2.785 3.211 2.708 0.002 2.866 0.002 C 2.911 0.002 4.697 0.877 6.831 1.944 C 10.623 3.842 11.487 4.414 11.487 5.025 C 11.487 5.186 11.562 5.323 11.65 5.323 C 11.738 5.323 11.811 5.223 11.811 5.102 C 11.811 4.49 12.661 3.931 16.518 2.001 L 20.542 -0.013 L 20.488 1.92 C 20.436 3.798 20.422 3.864 19.969 4.336 L 19.502 4.824 L 20.033 5.426 C 21.157 6.696 21.555 8.451 21.086 10.082 C 20.788 11.101 20.113 12.202 19.469 12.706 C 19.156 12.954 19.065 13.172 19.065 13.688 L 19.065 14.352 L 20.19 13.787 C 20.809 13.475 21.351 13.22 21.4 13.22 C 21.445 13.22 21.483 14.13 21.483 15.244 C 21.483 16.695 21.418 17.394 21.249 17.717 C 20.954 18.292 20.087 19.057 19.418 19.332 C 19.092 19.466 18.904 19.66 18.904 19.856 C 18.904 20.377 18.3 21.385 17.681 21.896 C 17.028 22.432 16.068 22.731 14.99 22.731 C 14.04 22.731 12.887 23.094 12.219 23.603 C 11.572 24.098 11.588 24.093 11.309 23.75 L 11.309 23.753 Z M 15.921 20.023 C 20.614 17.64 20.678 17.582 20.678 15.774 C 20.678 15.169 20.623 14.671 20.557 14.669 C 20.49 14.669 18.594 15.589 16.342 16.72 C 13.261 18.262 12.181 18.88 11.977 19.215 L 11.706 19.662 L 11.349 19.178 C 11.089 18.827 9.906 18.152 6.969 16.683 C 4.759 15.577 2.868 14.671 2.768 14.671 C 2.442 14.671 2.661 17.003 3.034 17.523 C 3.261 17.838 4.595 18.603 7.385 20.025 C 9.599 21.149 11.518 22.071 11.65 22.071 C 11.783 22.071 13.704 21.151 15.921 20.023 Z M 12.191 12.525 C 12.803 11.48 12.855 11.101 12.457 10.594 C 11.853 9.827 10.687 10.193 10.687 11.153 C 10.687 11.643 11.432 13.22 11.663 13.22 C 11.728 13.22 11.967 12.906 12.191 12.525 Z M 8.716 12.164 C 9.834 11.696 10.69 10.594 10.93 9.308 C 11.31 7.287 9.355 4.998 7.249 4.998 C 5.683 4.998 3.964 6.351 3.6 7.872 C 3.178 9.631 4.067 11.454 5.689 12.159 C 6.425 12.478 7.959 12.478 8.716 12.159 L 8.716 12.164 Z M 6.815 11.498 C 5.329 10.933 5.649 8.804 7.219 8.804 C 8.884 8.804 9.094 11.171 7.463 11.507 C 7.249 11.551 7.03 11.551 6.818 11.507 L 6.815 11.498 Z M 17.756 12.104 C 18.607 11.668 19.501 10.624 19.719 9.803 C 20.499 6.917 17.656 4.202 14.939 5.238 C 13.351 5.847 12.468 7.096 12.462 8.751 C 12.457 10.278 13.142 11.436 14.433 12.074 C 15.341 12.525 16.904 12.538 17.754 12.101 L 17.756 12.104 Z M 15.58 11.447 C 14.787 11.128 14.478 10.08 14.974 9.378 C 15.346 8.843 15.94 8.661 16.593 8.877 C 17.21 9.077 17.453 9.438 17.453 10.134 C 17.453 10.834 17.312 11.108 16.8 11.374 C 16.287 11.636 16.079 11.65 15.58 11.447 Z"/>
</svg>