<svg role="img" viewBox="0 0 24 24" xmlns="http://www.w3.org/2000/svg"><title>sktime</title><path d="M19.77 2.72c-.03 0-.09.03-.11.06l-.6.84a.27.27 0 0 1-.2.12c-.26.03-.51.08-.77.1a.24.24 0 0 1-.16-.03l-.88-.7c-.04-.03-.1-.05-.14-.03l-.9.48c-.02.02-.05.08-.04.12l.19 1c0 .06 0 .14-.04.19l-.56.81a.22.22 0 0 1-.15.08c-.36.04-.73.06-1.09.08-.07 0-.1.03-.12.1-.07.29-.14.57-.23.85-.03.11 0 .17.1.23l.86.61c.04.03.08.1.1.16l.1.84c0 .06-.01.12-.04.16l-.66.84c-.05.06-.05.1-.01.17l.44.82c.05.1.1.11.19.1l1.04-.23c.04 0 .1 0 .15.04l.76.56c.04.03.07.1.08.15l.02 1.06c0 .09.03.12.11.14l.9.23c.09.02.13 0 .18-.07l.58-.82c.05-.07.1-.11.18-.12.27-.03.53-.07.79-.12.08-.01.13.01.2.06l.85.69c.03.02.1.04.13.02.25-.11.5-.23.73-.37.24-.14.24-.15.18-.44l-.15-.8c-.01-.05 0-.12.03-.17l.56-.81c.04-.07.1-.1.18-.1l1.16-.08.29-1.08-1-.7a.24.24 0 0 1-.08-.14c-.05-.28-.08-.57-.11-.86a.3.3 0 0 1 .06-.18c.2-.28.42-.55.64-.83.05-.05.05-.08.02-.14-.16-.29-.32-.57-.46-.86-.05-.08-.09-.09-.17-.07l-1.04.22c-.05 0-.12 0-.16-.04l-.76-.55c-.07-.05-.09-.1-.09-.18V3l-1.08-.27zm-.64 2.1c.62.02 1.2.24 1.72.67.5.43.83.97.97 1.62.13.6.07 1.19-.18 1.75a2.87 2.87 0 0 1-1.4 1.46c-.16.08-.32.12-.48.18l-.02-.03v.03c-.27.04-.54.1-.81.1a2.81 2.81 0 0 1-1.76-.64 2.78 2.78 0 0 1-1.02-1.73c-.14-.83.03-1.6.55-2.28.45-.6 1.05-.96 1.79-1.09.21-.03.43-.05.64-.04Zm0 .08c-.2-.01-.42 0-.63.04a2.7 2.7 0 0 0-1.74 1.05c-.51.67-.68 1.41-.54 2.22a2.7 2.7 0 0 0 1 1.69c.5.4 1.07.61 1.71.63.26 0 .52-.06.8-.1h.01c.16-.06.32-.1.46-.18.63-.3 1.1-.77 1.37-1.42.24-.55.3-1.12.18-1.7a2.74 2.74 0 0 0-.95-1.58 2.7 2.7 0 0 0-1.68-.65Zm-.14.31a2.5 2.5 0 1 1-.76.11c.26-.07.51-.1.76-.1zm-10.14.22-1.7.02c-.08 0-.1.04-.11.1l-.6 1.63a.25.25 0 0 1-.15.16l-1.27.54a.27.27 0 0 1-.19 0l-1.7-.75c-.03-.01-.1-.02-.14.01-.43.36-.86.71-1.22 1.14-.05.06-.05.1-.01.17.24.5.5 1.01.73 1.52.03.05.03.13.02.18l-.57 1.58a.24.24 0 0 1-.13.13l-.58.2-1.23.42v1.77l1.84.67c.05.02.1.07.13.12.2.45.37.9.55 1.35.03.06.03.14 0 .2l-.7 1.62c-.03.07-.02.11.03.17l1.12 1.19c.06.05.1.06.17.03l1.6-.82a.22.22 0 0 1 .2-.01l1.46.58c.08.03.11.07.13.15l.4 1.37.12.41H8.8c.03 0 .09-.06.1-.1.17-.43.35-.86.48-1.3.1-.32.25-.55.6-.62l.93-.41a.23.23 0 0 1 .2 0l1.7.75c.04.01.1.02.14 0 .25-.21.5-.42.75-.65.16-.15.3-.32.46-.48.06-.07.06-.12.02-.2l-.73-1.5a.27.27 0 0 1 0-.22l.54-1.54a.21.21 0 0 1 .15-.15l1.7-.57c.09-.03.11-.07.11-.15v-1.55c0-.09-.03-.12-.1-.14l-1.74-.63a.23.23 0 0 1-.15-.15l-.54-1.33a.3.3 0 0 1 0-.2l.7-1.61c.03-.07.03-.12-.03-.18a90.7 90.7 0 0 1-1.1-1.17c-.07-.07-.11-.08-.2-.04l-1.59.8a.26.26 0 0 1-.19.02l-1.48-.59a.22.22 0 0 1-.11-.12l-.2-.7-.33-1.11-.04-.01zm.01 1.8c.11 0 .15.03.14.14v.41c0 .1-.02.14-.13.13h-.45c-.15 0-.15 0-.15.16v.37c0 .06-.02.08-.09.08h-.53c-.07 0-.1-.03-.1-.1v-.5h-.67v-.64c0-.02.05-.05.08-.05H8.86zm-.74 1.45h.26a4.64 4.64 0 0 1 4.24 3.81 4.65 4.65 0 0 1-3.77 5.46 4.88 4.88 0 0 1-2.67-.3 4.63 4.63 0 0 1-2.85-4.29 4.65 4.65 0 0 1 2.1-3.92l.03.03-.02-.03c.58-.37 1.2-.63 1.87-.7.27-.04.54-.06.8-.06Zm0 .07c-.27 0-.54.03-.8.06a4.6 4.6 0 1 0 .8-.05Zm3.2.3.7.63.17.14-.38.42-.38-.33-.43-.38c-.02-.02-.03-.1-.01-.12l.32-.36zm-3.26.04a4.21 4.21 0 0 1 3.28 1.6 4.26 4.26 0 0 1-4.8 6.65l-.29-.11-.14-.08-.14-.07-.27-.16a4.3 4.3 0 0 1-.5-.39 4.4 4.4 0 0 1-.22-.2l-.01-.02a4.45 4.45 0 0 1-.22-.24c-.05-.05-.09-.1-.12-.16l-.09-.1a4.4 4.4 0 0 1-.31-.51v-.02l-.05-.1A4.35 4.35 0 0 1 4 14.8a4.2 4.2 0 0 1-.25-1.5 4.28 4.28 0 0 1 .13-.98v-.01l.07-.23.08-.24.2-.45.12-.21a4.26 4.26 0 0 1 .43-.6 4.24 4.24 0 0 1 3.27-1.49zm0 .89v2.93c.15.07.24.19.27.36l.02.04.05.03 1.22.5 1.63.65c.34-.98.3-1.88-.15-2.72a4.03 4.03 0 0 0-.93-1.1 3.37 3.37 0 0 0-2.11-.69Zm-.06 3c-.1-.01-.17 0-.23.03a.32.32 0 0 0-.16.33l.03.08.05.08c.05.05.11.09.18.1.06 0 .13 0 .22-.04.05-.02.11 0 .16.01l1.87.76 1.05.44.06-.2-1.64-.67c-.4-.16-.81-.32-1.22-.5a.23.23 0 0 1-.1-.07.13.13 0 0 1-.01-.05.38.38 0 0 0-.26-.3zm-.12.08h.1c.03 0 .06.02.09.04a.2.2 0 0 1 .07.09l.01.05v.02c.01.06-.01.12-.06.19h-.01v.01h-.01a.36.36 0 0 1-.08.04.24.24 0 0 1-.09.01.19.19 0 0 1-.08-.02.24.24 0 0 1-.12-.18c0-.05 0-.1.03-.14a.28.28 0 0 1 .07-.07.21.21 0 0 1 .08-.04zm11.22.02a.15.15 0 0 0-.08.05c-.13.15-.25.32-.39.47a.3.3 0 0 1-.17.1 6.3 6.3 0 0 1-.57.05.23.23 0 0 1-.15-.05l-.46-.46c-.04-.05-.08-.07-.15-.03l-.5.23c-.06.03-.08.07-.07.13l.07.62c0 .1 0 .17-.08.24l-.3.34a.27.27 0 0 1-.16.08l-.65.04c-.04 0-.1.04-.1.07-.09.19-.15.38-.22.56-.03.06-.02.1.03.13.14.1.27.22.41.3.15.1.23.21.2.4.02.13.04.26.04.4 0 .04-.03.11-.07.15l-.54.5.3.58c.03.07.07.09.14.08l.6-.06c.06 0 .13.02.17.05.13.1.25.2.36.31.04.04.07.1.07.14l.03.69c0 .04.04.1.08.11l.54.22c.07.03.12 0 .16-.06l.35-.45c.05-.06.1-.1.19-.1l.55-.05c.06 0 .13.01.17.05l.45.46c.05.05.1.07.16.03l.5-.24c.06-.03.08-.06.07-.13L20 18.4c-.01-.08 0-.14.06-.2l.3-.34c.06-.07.12-.1.21-.1.2 0 .41-.01.61-.03.04 0 .1-.04.11-.08l.22-.55c.03-.06.02-.1-.04-.13l-.52-.4a.25.25 0 0 1-.08-.15l-.04-.54c0-.07 0-.12.06-.17l.55-.48-.31-.62c-.02-.03-.07-.05-.1-.05-.14 0-.28.02-.4.04-.23.05-.42.02-.57-.17-.05-.06-.13-.1-.19-.17a.3.3 0 0 1-.08-.16c-.01-.23-.01-.45-.03-.67 0-.04-.03-.1-.06-.11a8.8 8.8 0 0 0-.6-.23zm-11.2.05c-.04 0-.07.03-.1.08a.17.17 0 0 0-.03.05c-.01.04 0 .08.04.13.03.03.06.05.1.05.03 0 .07-.01.11-.04.04-.05.06-.1.06-.14a.1.1 0 0 0-.01-.05.14.14 0 0 0-.05-.05.22.22 0 0 0-.06-.03H7.9zm10.41 1.35c.16 0 .31.02.47.06.77.2 1.25.72 1.4 1.5a1.87 1.87 0 0 1-1.5 2.19l-.04.01-.01-.03v.03c-.52.09-.99-.03-1.4-.33-.45-.31-.71-.76-.78-1.3a1.8 1.8 0 0 1 .61-1.65c.37-.32.8-.5 1.25-.48zm0 .07c-.44 0-.84.15-1.2.47-.47.42-.67.95-.58 1.58.06.53.3.95.74 1.25.4.29.85.4 1.35.32l.04-.01a1.8 1.8 0 0 0 1.45-2.1 1.72 1.72 0 0 0-1.35-1.44 1.9 1.9 0 0 0-.45-.07zm.01.29.2.01c.71.14 1.16.55 1.3 1.24.18.8-.37 1.62-1.18 1.78a1.54 1.54 0 0 1-1.82-1.2 1.54 1.54 0 0 1 1.5-1.83z"/></svg>