<svg role="img" viewBox="0 0 24 24" xmlns="http://www.w3.org/2000/svg"><title>sktime</title><path d="M19.77 2.72q-.06 0-.11.06l-.6.84a.3.3 0 0 1-.2.12l-.77.1a.2.2 0 0 1-.16-.03l-.88-.7q-.07-.05-.14-.03l-.9.48q-.04.04-.04.12l.19 1q.01.1-.04.19l-.56.81a.2.2 0 0 1-.15.08q-.54.05-1.09.08-.1 0-.12.1-.1.43-.23.85-.05.15.1.23l.86.61q.07.06.1.16l.1.84q0 .1-.04.16l-.66.84q-.07.08-.01.17l.44.82q.07.13.19.1l1.04-.23q.07-.01.15.04l.76.56q.06.06.08.15l.02 1.06q0 .12.11.14l.9.23q.12.03.18-.07l.58-.82q.07-.1.18-.12.4-.04.79-.12.1-.02.2.06l.85.69q.07.04.13.02.38-.16.73-.37c.24-.14.24-.15.18-.44l-.15-.8q-.02-.09.03-.17l.56-.81q.06-.1.18-.1l1.16-.08.29-1.08-1-.7a.2.2 0 0 1-.08-.14q-.07-.42-.11-.86a.3.3 0 0 1 .06-.18q.3-.42.64-.83.07-.06.02-.14l-.46-.86q-.06-.11-.17-.07l-1.04.22q-.09.01-.16-.04l-.76-.55q-.1-.07-.09-.18V3zm-.64 2.1q.94.03 1.72.67.75.64.97 1.62.2.9-.18 1.75a3 3 0 0 1-1.4 1.46l-.48.18-.02-.03v.03q-.4.08-.81.1a2.8 2.8 0 0 1-1.76-.64 2.8 2.8 0 0 1-1.02-1.73q-.22-1.25.55-2.28.68-.9 1.79-1.09.32-.05.64-.04m0 .08q-.3-.02-.63.04a2.7 2.7 0 0 0-1.74 1.05q-.76 1-.54 2.22a2.7 2.7 0 0 0 1 1.69q.75.6 1.71.63.39-.02.8-.1h.01q.25-.08.46-.18.95-.45 1.37-1.42.36-.83.18-1.7a2.7 2.7 0 0 0-.95-1.58 2.7 2.7 0 0 0-1.68-.65m-.14.31a2.5 2.5 0 1 1-.76.11q.39-.1.76-.1m-10.14.22-1.7.02q-.1 0-.11.1l-.6 1.63a.3.3 0 0 1-.15.16l-1.27.54a.3.3 0 0 1-.19 0l-1.7-.75q-.06-.02-.14.01c-.43.36-.86.71-1.22 1.14q-.07.08-.01.17l.73 1.52q.04.09.02.18l-.57 1.58a.2.2 0 0 1-.13.13l-.58.2-1.23.42v1.77l1.84.67q.08.04.13.12.29.68.55 1.35.04.1 0 .2l-.7 1.62q-.04.1.03.17l1.12 1.19q.08.07.17.03l1.6-.82a.2.2 0 0 1 .2-.01l1.46.58q.11.04.13.15l.4 1.37.12.41H8.8c.03 0 .09-.06.1-.1q.27-.64.48-1.3c.1-.32.25-.55.6-.62l.93-.41a.2.2 0 0 1 .2 0l1.7.75q.07.02.14 0l.75-.65.46-.48q.09-.1.02-.2l-.73-1.5a.3.3 0 0 1 0-.22l.54-1.54a.2.2 0 0 1 .15-.15l1.7-.57q.12-.04.11-.15V12.6q0-.12-.1-.14l-1.74-.63a.2.2 0 0 1-.15-.15l-.54-1.33a.3.3 0 0 1 0-.2l.7-1.61q.05-.1-.03-.18l-1.1-1.17c-.07-.07-.11-.08-.2-.04l-1.59.8a.3.3 0 0 1-.19.02l-1.48-.59a.2.2 0 0 1-.11-.12l-.2-.7-.33-1.11zm.01 1.8q.16-.01.14.14v.41q.02.15-.13.13h-.45c-.15 0-.15 0-.15.16v.37q0 .09-.09.08h-.53q-.1 0-.1-.1v-.5h-.67v-.64q.02-.04.08-.05zm-.74 1.45h.26q.83.06 1.56.4a4.6 4.6 0 0 1 2.68 3.42q.11.56.07 1.13a4.65 4.65 0 0 1-3.84 4.33 5 5 0 0 1-2.67-.3 4.6 4.6 0 0 1-2.85-4.3 4.7 4.7 0 0 1 2.1-3.92l.03.03-.02-.03c.58-.37 1.2-.63 1.87-.7q.4-.06.8-.06m0 .07q-.4 0-.8.06-.99.13-1.84.7a4.6 4.6 0 1 0 2.64-.76m3.2.3.7.63.17.14-.38.42-.38-.33-.43-.38c-.02-.02-.03-.1-.01-.12zm-3.26.04a4.2 4.2 0 0 1 3.28 1.6 4.26 4.26 0 0 1-4.8 6.65l-.29-.11-.14-.08-.14-.07-.27-.16-.26-.18-.24-.2-.22-.21-.01-.02-.22-.24q-.08-.07-.12-.16l-.09-.1-.18-.28-.13-.24-.05-.1-.17-.4-.08-.24a4 4 0 0 1-.13-1.75q.03-.25.1-.49.01-.12.06-.23l.08-.24.2-.45.12-.21a4 4 0 0 1 .43-.6A4.2 4.2 0 0 1 8.04 9.1m0 .89v2.93q.22.1.27.36l.02.04.05.03 1.22.5 1.63.65q.52-1.46-.15-2.72l-.24-.38a4 4 0 0 0-.7-.73 3.4 3.4 0 0 0-2.1-.68m-.06 3q-.14-.01-.23.03a.3.3 0 0 0-.16.33l.03.08.05.08q.08.08.18.1.09.01.22-.04.08-.02.16.01l1.87.76 1.05.44.06-.2-1.64-.67-1.22-.5-.1-.07-.01-.05a.4.4 0 0 0-.26-.3m-.12.08h.1q.05 0 .09.04l.07.09.01.05v.02q.01.09-.06.19h-.01v.01h-.01l-.08.04-.09.01-.08-.02a.2.2 0 0 1-.12-.18q0-.08.03-.14l.07-.07zm11.22.02-.08.05-.39.47a.3.3 0 0 1-.17.1l-.57.05a.2.2 0 0 1-.15-.05l-.46-.46q-.05-.08-.15-.03l-.5.23q-.09.04-.07.13l.07.62q.02.14-.08.24l-.3.34a.3.3 0 0 1-.16.08l-.65.04q-.08.01-.1.07l-.22.56q-.04.09.03.13.2.16.41.3.24.13.2.4.04.2.04.4.0 .07-.07.15l-.54.5.3.58q.04.1.14.08l.6-.06q.1 0 .17.05.2.15.36.31.06.07.07.14l.03.69q.01.08.08.11l.54.22q.1.04.16-.06l.35-.45q.07-.1.19-.1l.55-.05q.1 0 .17.05l.45.46q.07.08.16.03l.5-.24q.09-.04.07-.13L20 18.4q-.02-.11.06-.2l.3-.34q.08-.1.21-.1.3 0 .61-.03.08-.01.11-.08l.22-.55q.05-.09-.04-.13l-.52-.4a.3.3 0 0 1-.08-.15l-.04-.54q-.02-.1.06-.17l.55-.48-.31-.62q-.04-.05-.1-.05-.22 0-.4.04-.35.1-.57-.17l-.19-.17a.3.3 0 0 1-.08-.16q0-.34-.03-.67 0-.08-.06-.11zm-11.2.05q-.06 0-.1.08l-.03.05q-.02.06.04.13.04.05.1.05.05 0 .11-.04.06-.08.06-.14l-.01-.05-.05-.05-.06-.03zm10.41 1.35q.23 0 .47.06 1.16.31 1.4 1.5a1.87 1.87 0 0 1-1.5 2.19l-.04.01-.01-.03v.03q-.78.13-1.4-.33-.68-.48-.78-1.3a1.8 1.8 0 0 1 .61-1.65q.57-.5 1.25-.48m0 .07q-.66 0-1.2.47-.71.63-.58 1.58.09.8.74 1.25.6.44 1.35.32l.04-.01a1.8 1.8 0 0 0 1.45-2.1 1.7 1.7 0 0 0-1.35-1.44 2 2 0 0 0-.45-.07m.01.29.2.01q1.08.2 1.3 1.24c.18.8-.37 1.62-1.18 1.78a1.54 1.54 0 0 1-1.82-1.2 1.54 1.54 0 0 1 1.5-1.83" /></svg>