<svg xmlns="http://www.w3.org/2000/svg" viewBox="0 0 16 16"><path d="M5.313,11.717a.289.289,0,0,0-.308.135,1.653,1.653,0,0,1-1.79.93,1.641,1.641,0,0,1,.932-1.788.289.289,0,0,0-.111-.535,3.031,3.031,0,0,0-2.836.982,5.046,5.046,0,0,0-.866,3.984.293.293,0,0,0,.239.239,6.347,6.347,0,0,0,1.007.081,4.336,4.336,0,0,0,3.289-1.251,3.067,3.067,0,0,0,.673-2.533A.289.289,0,0,0,5.313,11.717ZM15.866.135c-.114-.113-.348-.06-.348-.06A11.5,11.5,0,0,0,14.238,0,10.385,10.385,0,0,0,6.827,3a10.064,10.064,0,0,0-.678.759,3.847,3.847,0,0,0-2.973-.108C1.651,4.305.758,6.175.02,8.1a.289.289,0,0,0,.449.332,3.807,3.807,0,0,1,3.63-.5l-.361,1.31a.29.29,0,0,0,.125.321A12.821,12.821,0,0,1,6.44,12.136a.29.29,0,0,0,.322.125l1.311-.36a3.752,3.752,0,0,1-.5,3.631.29.29,0,0,0,.332.449c1.923-.737,3.793-1.63,4.447-3.155a3.845,3.845,0,0,0-.108-2.973A9.844,9.844,0,0,0,13,9.174,10.508,10.508,0,0,0,15.929.484S15.979.249,15.866.135ZM14.238.579a10.966,10.966,0,0,1,1.127.059,10.746,10.746,0,0,1,.047,1.551,1.828,1.828,0,0,1-1.083-.516A1.8,1.8,0,0,1,13.814.589c.141-.006.282-.011.424-.011Zm-7,2.831A9.719,9.719,0,0,1,13.23.627a2.427,2.427,0,0,0,.5,1.237l0,0-1.8,1.8a2.349,2.349,0,0,0-3.3,3.3l-2.1,2.1A12.862,12.862,0,0,0,4.778,7.642,9.627,9.627,0,0,1,7.237,3.41Zm5.021,2.107a1.774,1.774,0,1,1-1.774-1.773,1.776,1.776,0,0,1,1.774,1.773Zm-11.381,2C1.506,6.013,2.272,4.67,3.4,4.185a3.2,3.2,0,0,1,2.374.059A10.258,10.258,0,0,0,4.262,7.36a4.052,4.052,0,0,0-3.385.156Zm5.932,4.131A14.353,14.353,0,0,0,4.353,9.194l.263-.956a12.413,12.413,0,0,1,3.149,3.147Zm5.01.95c-.485,1.132-1.827,1.9-3.331,2.527A4.057,4.057,0,0,0,8.64,11.74a10.29,10.29,0,0,0,3.122-1.519A3.205,3.205,0,0,1,11.818,12.6ZM8.361,11.223A12.894,12.894,0,0,0,6.942,9.469l2.1-2.1a2.349,2.349,0,0,0,3.3-3.3l1.8-1.8,0,0a2.432,2.432,0,0,0,1.234.5,9.721,9.721,0,0,1-2.781,5.99,9.634,9.634,0,0,1-4.231,2.459Z"/></svg>
