<svg role="img" viewBox="0 0 24 24" xmlns="http://www.w3.org/2000/svg"><title>Skynet</title><path d="M0 6.38l21.363 11.46a.94.94 0 01.2 1.508h-.012a10.094 10.094 0 01-2.23 1.551c-6.903 3.524-14.973-1.863-14.524-9.7l2.855 2.005c.856 4.574 5.61 7.215 9.86 5.472L0 6.38zm8.637 3.199l14.347 5.758c.418.168.641.625.52 1.062v.02a.866.866 0 01-1.254.53L8.637 9.58zm5.285-7.547c2.703-.234 6.086.8 8.101 3.437 1.696 2.227 2.047 4.946 1.926 7.758v-.008a.877.877 0 01-1.195.754L13 10.06l9.055 2.465a7.49 7.49 0 00-1.067-4.629c-2.965-4.836-9.972-4.597-12.613.426a7.39 7.39 0 00-.398.898l-2.43-1.316c.07-.102.144-.2.215-.3.117-.243.242-.493.379-.735 1.609-2.832 4.304-4.5 7.148-4.766.211-.02.422-.05.633-.07z"/></svg>