<svg role="img" viewBox="0 0 24 24" xmlns="http://www.w3.org/2000/svg"><title>Skyscanner</title><path d="M12 4.43c-.36 0-.636.048-.804.132-.144.06-.24.18-.24.336v4.715c0 .3.108.551.3.743.192.18.456.3.744.3.3 0 .552-.108.744-.3.18-.192.3-.455.3-.743V4.898c0-.156-.108-.264-.24-.336-.168-.084-.444-.132-.804-.132zM6.698 5.762c-.192.012-.456.108-.768.288s-.528.36-.636.516a.387.387 0 0 0-.036.408l2.363 4.09a1.039 1.039 0 0 0 1.428.384 1.039 1.039 0 0 0 .384-1.427L7.07 5.93c-.072-.132-.228-.18-.372-.168Zm10.604 0c-.144-.012-.3.036-.372.168l-2.363 4.09a1.039 1.039 0 0 0 .384 1.428 1.038 1.038 0 0 0 1.428-.384l2.363-4.09a.387.387 0 0 0-.036-.408c-.108-.156-.324-.336-.636-.516s-.576-.276-.768-.288zM2.207 9.776a.43.43 0 0 0-.2.077c-.156.108-.336.324-.516.636-.18.311-.276.575-.288.767-.012.156.048.3.168.372l4.091 2.363c.252.144.54.168.792.108.264-.072.492-.24.636-.491.144-.252.168-.54.108-.792a1.028 1.028 0 0 0-.492-.636L2.415 9.817a.353.353 0 0 0-.208-.04zm19.586 0a.353.353 0 0 0-.208.04l-4.09 2.364c-.253.144-.42.372-.492.636-.06.252-.037.54.107.792.144.251.372.42.636.491.252.06.54.036.792-.108l4.09-2.363c.12-.072.18-.216.169-.372-.012-.192-.108-.456-.288-.767-.18-.312-.36-.528-.516-.636a.43.43 0 0 0-.2-.077zM12 15.311c-6.142 0-10.713 1.236-11.744 1.535a.346.346 0 0 0-.252.312c-.012.168 0 .42.096.732s.24.528.348.66c.084.108.24.156.372.12.66-.192 2.903-.792 6.082-1.164a2.867 2.867 0 0 1 1.751.36l2.627 1.512a1.44 1.44 0 0 0 1.44 0l2.627-1.512c.528-.3 1.14-.432 1.751-.36 3.191.372 5.423.972 6.083 1.164a.364.364 0 0 0 .371-.12 2.17 2.17 0 0 0 .348-.66c.096-.3.108-.552.096-.732a.346.346 0 0 0-.252-.312c-1.031-.3-5.602-1.535-11.744-1.535z"/></svg>