<svg viewBox="0 0 16 16" xmlns="http://www.w3.org/2000/svg" fill-rule="evenodd" clip-rule="evenodd" stroke-linejoin="round" stroke-miterlimit="1.414"><g fill-rule="nonzero"><path d="M6.586 7.33l.69 2.057 2.137-.716-.69-2.056-2.137.716z"/><path d="M12.55 9.37l-1.037.347.36 1.073c.145.434-.09.904-.524 1.05-.096.03-.19.045-.287.042-.338-.01-.65-.226-.765-.566l-.36-1.072-2.138.716.36 1.072c.145.435-.09.905-.523 1.05-.096.032-.192.045-.286.043-.34-.01-.65-.226-.764-.566l-.36-1.075-1.037.348c-.096.03-.19.045-.286.042-.34-.008-.65-.226-.765-.565-.146-.434.09-.904.522-1.05L5.7 9.914l-.69-2.058-1.037.347c-.094.032-.19.045-.285.043-.338-.01-.65-.226-.765-.566-.145-.434.09-.904.523-1.05l1.037-.347-.36-1.073c-.145-.434.09-.904.524-1.05.435-.145.905.09 1.05.524l.36 1.072 2.137-.716-.36-1.072c-.144-.435.09-.905.524-1.05.435-.145.906.09 1.05.523l.36 1.075 1.037-.347c.434-.146.904.088 1.05.522.145.434-.09.904-.523 1.05l-1.037.347.69 2.057 1.036-.347c.435-.145.905.09 1.05.523.146.434-.09.904-.522 1.05zm2.78-3.57C13.68.304 11.298-.98 5.8.67.304 2.32-.98 4.7.67 10.2c1.65 5.497 4.03 6.78 9.53 5.13 5.497-1.65 6.78-4.03 5.13-9.53z"/></g></svg>