<svg role="img" viewBox="0 0 24 24" xmlns="http://www.w3.org/2000/svg"><title>Smallcase</title><path d="m8.425 21.969-4.461-2.16a.414.414 0 0 1-.166-.6l2.234-3.31a.421.421 0 0 1 .737.075l2.233 5.464a.414.414 0 0 1-.577.53Zm15.328-.982V9.8a.42.42 0 0 0-.612-.368l-9.912 5.099a.41.41 0 0 0-.226.367v11.185a.42.42 0 0 0 .612.369l9.915-5.099a.41.41 0 0 0 .223-.367m-2.9-4.318a5.1 5.1 0 0 1-2.482 4.16c-1.367.703-2.476-.018-2.476-1.613a5.1 5.1 0 0 1 2.482-4.16c1.367-.704 2.476.02 2.476 1.612zm-8.255-3.624 9.824-5.029a.414.414 0 0 0-.009-.74l-9.74-4.731a.42.42 0 0 0-.376 0L2.472 7.572a.414.414 0 0 0 .009.74l9.744 4.732a.42.42 0 0 0 .373 0m-.03-7.66 4.15 2.017a.414.414 0 0 1 .008.74l-4.027 2.062a.42.42 0 0 1-.378 0l-4.15-2.016a.414.414 0 0 1-.008-.74l4.027-2.061a.42.42 0 0 1 .378-.001" fill="#1F7AE0" fill-rule="evenodd" style="fill:#1a1a1a;stroke-width:0.827154" transform="translate(-1 -2.5)"/></svg>