<svg role="img" viewBox="0 0 24 24" xmlns="http://www.w3.org/2000/svg"><title>SMRT icon</title><path d="M3704.7255 2038.3014c0-4.6163 17.0803-64.6283 58.2578-202.6559 12.464-41.5468 24.4664-87.7099 27.2362-103.4053 9.6942-58.1655-31.3909-53.0875 426.87-55.3957 393.0785 0 410.9435 0 448.1975-18.4652 43.393-18.4653 78.154-46.1631 97.219-77.0924 10.156-18.4652 12.003-32.3141 10.156-76.169 0-49.8562-5.078-58.6272-29.083-97.4041-24.928-36.9305-126.856-152.7998-137.15-152.7998-4.616 0-30.468-27.6979-62.413-60.9353-31.852-32.3141-59.781-60.9352-62.135-60.9352-4.616 0-20.3119-18.4653-39.7004-36.9305-74.6457-79.8621-117.3927-136.6427-139.9203-185.114-22.1582-47.548-23.0815-54.0108-20.7733-112.1762 0-51.241 6.4628-71.0912 25.8513-115.8694 12.464-27.6978 36.9304-70.6295 54.2878-91.8645 29.0827-36.9304 103.3591-101.0971 114.6229-101.0971 4.616 0 21.697-9.2326 42.47-18.4652 63.474-32.3142 108.345-36.9305 654.823-32.3142 472.479 0 505.717 0 501.516 13.849-4.616 9.2326-10.618 36.9304-18.004 66.0132-7.386 27.6978-23.081 85.4016-34.16 123.717l-20.774 70.6295h-306.061c-267.792 0-308.646 0-326.65 9.2326-35.545 18.4652-44.316 36.9305-44.316 85.8633v46.163l104.513 108.4833c57.473 59.5504 148.46 153.2614 202.194 207.7339 53.688 54.934 97.635 102.0204 97.635 104.7902 0 0 5.54 9.2326 12.464 18.4652s16.619 23.0815 21.235 32.3141c4.616 9.2327 12.926 27.6979 17.542 36.9305 49.764 101.5588 49.81 229.8921.185 377.1524-46.21 137.1043-149.107 229.8921-312.155 282.518l-51.426 13.8489H3704.9101zm4039.1765 0c0-4.6163 6.002-23.0815 8.31-36.9305 4.616-13.8489 13.387-55.3957 24.005-89.0947 11.079-32.3142 22.158-76.1691 25.851-93.2494 6.463-32.3142 29.083-115.4077 65.736-238.6631 12.926-41.5468 23.543-83.5552 23.082-89.0948-.09-4.6163 10.156-46.163 23.081-89.5563 37.854-127.8718 59.181-205.8874 65.367-238.2015 4.616-18.4652 15.234-58.1655 26.313-91.8645 11.079-32.3142 20.773-67.3981 20.773-74.3226 0-9.2326 9.233-41.5468 20.312-78.0156 11.079-36.9305 20.312-69.7062 20.312-75.2458 0-4.6163 10.617-46.1631 23.543-87.7099 12.926-41.5467 23.543-82.1702 23.543-88.1714 0-4.6163 8.771-41.5468 19.85-78.939 11.08-36.9304 24.005-84.4783 29.083-104.3284l9.233-36.9305h538.954c334.22 0 558.758 0 591.118 4.6163 29.083 0 67.906 13.849 87.756 23.0816 19.388 9.2326 38.777 18.4652 42.932 18.4652 4.616 0 18.003 9.2326 30.929 23.0815 12.926 13.849 25.851 23.0815 28.159 23.0815 7.848 0 59.412 58.6271 63.567 72.476 0 9.2327 6.463 13.849 9.694 13.849 4.616 0 12.464 13.849 20.312 32.3141 8.309 18.4653 17.542 32.3142 20.312 32.3142 4.616 0 7.847-9.2326 10.617-23.0815 4.616-13.849 15.234-48.4713 27.698-79.4005 12.464-32.3142 23.082-60.012 23.082-64.6283 0-4.6163 5.077-23.0815 11.079-36.9305l11.079-32.3141h694.385c381.907 0 694.431 0 694.431 4.6163 0 0-4.616 18.4652-9.233 36.9305-25.851 87.7098-51.194 177.7278-56.457 200.3477l-6.001 23.0815h-436.195l-21.235 73.3993c-11.541 41.5468-31.391 108.4832-43.855 151.8765-12.464 41.5468-31.853 111.253-43.855 150.4917-11.541 41.5467-21.235 74.7841-20.773 78.9388.138 0-10.618 41.5468-24.005 89.0948-13.388 46.163-33.238 113.0995-43.394 150.4916-10.617 36.9305-30.006 105.2518-43.393 150.4916-13.387 46.1631-24.466 85.4017-24.005 89.5564.185 0-8.771 36.9305-19.85 74.7842-17.542 59.5504-38.315 131.1031-80.139 277.4401l-10.617 36.9304h-525.705l20.311-69.7062c11.079-36.9305 30.93-105.2518 43.855-148.6451 12.926-41.5468 23.082-82.1703 23.082-85.8633-.139 0 8.771-36.9305 19.85-75.2459 28.159-94.6343 63.336-218.3513 88.864-311.6007 12.002-41.5468 31.852-113.5612 44.778-156.0312 12.926-41.5468 23.082-81.247 23.082-85.8634-.09-4.6163 10.617-41.5467 23.543-87.2482 27.698-91.8645 60.566-208.657 71.691-252.9736 4.616-18.4653 9.233-36.9305 11.541-41.5468 4.616-9.2326-30.006-9.2326-210.735-9.2326h-214.335c.05 0 4.616 18.4652 10.156 36.9304 19.388 66.4749 10.156 177.7279-19.85 240.9713-6.001 13.8489-11.079 27.6979-11.079 27.6979 0 13.8489-42.47 73.3992-72.522 104.7901-46.81 48.4713-104.745 79.4005-173.389 92.3262-32.776 4.6163-59.32 13.8489-59.32 18.4652 0 0 9.233 36.9305 20.312 72.0144 11.079 36.9305 20.312 72.4761 20.312 79.4005.05 4.6163 10.617 49.3945 24.005 94.6343 12.925 46.1631 23.543 87.7099 23.543 94.1727 0 9.2326 11.079 54.0108 62.828 250.2039 11.541 41.5468 23.081 93.2494 26.313 110.7914 4.616 18.4652 9.694 47.5479 15.695 66.0132l10.156 32.3141h-535.261v-13.8489c0-9.2326-9.232-48.0096-21.235-87.7098-11.541-41.5468-31.391-107.56-43.855-150.4917-12.464-41.5467-33.699-115.8693-46.948-161.1091-13.387-46.1631-24.004-85.8633-24.004-89.5564.369-4.6163-18.004-72.0144-65.09-226.6607-12.926-41.5468-23.082-82.1703-23.082-89.5564-.05-9.2326-9.232-41.5467-20.312-74.3225-11.079-32.3142-20.311-66.0132-20.311-72.4761-.185-9.2326 14.31-13.8489 147.306-13.8489 127.364 0 149.845 0 164.341-13.8489 9.232-4.6163 21.235-13.8489 27.236-13.8489 5.539 0 20.773-13.8489 33.237-27.6979 31.391-36.9304 42.932-92.7878 33.238-152.3381-6.463-41.5468-10.618-47.548-48.702-86.7866-55.119-57.2422-71.276-60.9353-272.363-60.9353h-155.985l-22.158 73.3993c-12.002 41.5468-21.696 78.0156-22.158 84.0168 0 4.6163-10.618 41.5468-23.543 82.1703-12.926 36.9305-23.543 77.0923-23.543 83.5552 0 4.6163-9.233 41.5467-20.312 77.5539-11.079 36.9305-20.312 70.6295-20.312 76.1691 0 4.6163-10.617 46.1631-23.543 85.4017-12.926 41.5468-23.543 80.3238-23.543 86.325 0 4.6163-7.848 36.9304-17.542 66.0132-9.695 32.3141-21.697 72.476-26.313 94.1726-9.233 41.5468-32.314 126.0252-65.09 234.0468-11.079 36.9305-19.85 70.6296-19.85 76.6308 0 4.6163-10.618 46.163-23.082 84.94-12.926 41.5468-25.39 87.2482-27.698 103.8669l-4.616 32.3142h-257.913c-220.752 0-257.359 0-254.174-9.2326zm-2300.49 18.4652c0-4.6163 10.617-46.163 23.081-88.1714 12.926-41.5468 32.776-115.4077 44.778-158.801 12.003-41.5468 31.853-116.331 44.317-162.0324 12.464-46.1631 32.314-118.6391 44.316-162.0324 12.003-41.5468 31.853-116.331 44.317-162.0324 12.464-46.1631 32.314-118.1775 44.317-162.0324 11.54-41.5468 31.852-116.331 44.316-161.5708 12.464-46.163 32.314-118.6391 44.317-162.0324 34.16-126.4869 67.49-246.9725 87.525-317.1404l18.465-64.6283h400.049c220.014 0 422.993 0 450.967 4.6163 63.382 9.2326 127.041 36.9305 172.189 83.5552 18.003 18.4652 35.545 32.3142 38.777 32.3142 4.616 0 7.847-9.2327 9.694-18.4653 0-9.2326 10.156-36.9304 18.004-60.4735l13.848-41.5468H7347.5c236.724 0 376.321 0 405.958 4.6163 91.311 13.8489 178.097 100.1738 209.027 202.6559 17.08 56.3189 16.618 82.6319-4.617 149.5683-5.539 18.4653-19.388 69.7063-30.929 111.253-11.541 41.5468-31.391 111.2531-44.778 155.108-12.926 41.5467-23.543 83.5552-23.543 88.6331.09 4.6163-8.771 41.5468-19.85 75.7074-24.005 78.9389-59.228 202.6559-88.68 310.6775-12.002 41.5468-32.314 116.331-45.24 162.0325-12.925 46.163-32.314 113.5611-42.931 150.9532-10.618 36.9305-27.698 98.3274-37.854 135.2578l-18.927 66.4749h-256.667c-141.166 0-256.666 0-256.666-4.6164 0 0 8.771-36.9304 19.85-73.8609 11.079-36.9304 29.544-104.3285 41.085-147.7218 11.541-41.5468 31.391-116.7926 44.317-162.0324 12.464-46.1631 32.314-118.6391 43.855-162.0324 11.54-41.5468 31.852-114.9461 44.778-158.801 12.925-41.5468 23.081-84.0168 23.081-89.0947 0-4.6164 9.233-41.5468 20.312-82.632 82.724-292.2122 88.079-313.9089 88.079-353.1475 0-86.325-40.623-111.7147-177.081-111.7147-70.491 0-72.061 0-79.77 18.4653-4.617 9.2326-7.848 23.0815-7.848 32.3141 0 4.6163-10.617 47.548-23.543 91.403-44.317 150.9532-72.014 252.512-71.968 263.1295.09 4.6163-8.771 36.9304-19.85 72.0144-11.08 32.3141-20.312 66.9364-20.312 73.8609-.05 4.6163-10.618 46.1631-24.005 87.7098-12.926 41.5468-23.543 79.8622-23.543 85.4017 0 4.6163-9.233 41.5468-20.312 75.7075-11.079 36.9304-20.312 70.6295-20.312 76.6307 0 4.6163-10.617 46.1631-23.543 86.325-12.926 41.5467-24.005 79.8621-24.005 85.4016 0 4.6164-9.232 41.5468-20.311 76.6308-11.08 36.9304-20.312 71.5527-20.312 78.0156 0 4.6163-9.233 41.5467-20.774 78.9388l-20.773 66.4748h-522.151l4.617-27.6978c4.616-13.8489 14.31-62.3202 26.774-106.1751 23.544-82.6319 55.442-197.5779 91.542-330.9892 12.002-41.5468 31.852-116.331 44.316-162.0324 12.464-46.1631 32.314-118.1775 44.317-162.0324 36.93-135.7195 68.137-249.2807 88.956-321.295 36.469-126.9485 32.314-204.0409-12.464-222.9677-10.617-4.6163-65.228-9.2327-121.824-13.849h-102.805l-17.081 60.4737c-9.232 32.3141-26.774 96.0192-38.777 139.4125-12.002 41.5467-31.852 114.0228-44.778 156.9544-12.926 41.5468-23.081 83.0936-23.081 90.018-.05 4.6163-9.233 41.5468-20.312 73.3993-11.079 32.3142-20.312 66.4749-20.312 73.3993-.05 9.2326-10.618 47.0864-23.082 90.018-12.925 41.5468-32.775 113.0996-44.778 156.9545-54.657 200.3477-70.491 257.1283-92.418 330.9893-12.926 41.5467-23.543 82.1702-23.543 86.3249.09 0-5.078 27.6979-11.541 48.4712l-11.541 41.5468H5705.71c-200.809 0-263.222 0-263.222-9.2326zm-1737.2093 214.1967h6956.0833l-33.699 103.4053H3672.5498zm-3281.0408-458.861c129.6721 710.9114 749.4114 1251.481 1496.4224 1251.481 749.4114 0 1380.7376-655.054 1505.6549-1368.7352h-410.7129c-120.1163 490.2519-568.9138 967.5782-1094.942 967.5782-379.5067 0-713.4042-192.0385-917.5835-480.5577h847.9234c69.6601 0 136.8735-36.9305 194.5312-112.6379l206.5798-297.7519c19.3885-36.9304 55.2572-57.7038 98.4658-57.7038h1208.1801l285.8417-369.7663H2180.9746c-40.6235 0-76.8615 23.0816-98.4658 52.6259l-273.8394 367.4581c-16.6187 27.6979-45.7015 46.1631-79.262 46.1631zm2992.8447-561.8046C3288.2883 538.9247 2673.3961-1.1833 1923.9847-1.1833S562.1278 635.867 437.2567 1349.5483h410.7129c120.1163-490.2519 549.9869-949.5746 1078.4156-949.5746 379.5067 0 713.3581 192.0385 917.5374 480.096h-850.2778c-69.6601 0-136.9197 36.9305-194.5773 113.0996l-206.5798 297.7519c-19.3885 36.9304-55.2572 57.7038-98.4659 57.7038h-1208.18L0 1713.3133h1664.5482c40.6236 0 76.8616-23.0815 98.4659-52.6259l273.8394-370.2279c16.6187-27.6978 45.7014-46.163 79.262-46.163z"/></svg>