<svg role="img" viewBox="0 0 24 24" xmlns="http://www.w3.org/2000/svg"><title>smtp2go</title><path d="M13.544 7.302c-1.259.015-2.303 1.368-2.352 1.417-.151.202-.126.48.076.631s.48.127.63-.076c.253-.328 1.036-1.11 1.743-1.086.38 0 .708.278 1.01.758 1.465 2.323-1.363 7.02-1.388 7.07a.43.43 0 0 0 .1.582.38.38 0 0 0 .278.1c.101 0 .228-.025.278-.126.025-.025 2.096-2.045 3.839-2.323q.104-.012.183-.064.131.013.271.014.833 0 1.515-.228v-2.045h-1.691v.758h.656v.605c-.126.026-.278.051-.429.051-.278 0-.505-.1-.657-.278-.151-.176-.227-.454-.227-.808 0-.353.076-.631.253-.833.176-.202.429-.303.732-.303.328 0 .656.076.934.202l.354-.783a3 3 0 0 0-.581-.177 3.2 3.2 0 0 0-.707-.075c-.631 0-1.162.151-1.515.505-.379.353-.556.833-.556 1.439 0 .587.155 1.063.44 1.391a8.4 8.4 0 0 0-1.778.983c.757-1.743 1.515-4.37.429-6.112-.455-.757-1.036-1.161-1.717-1.186a2 2 0 0 0-.123-.003m8.532 2.957c-.631 0-1.136.151-1.44.505-.302.354-.48.834-.48 1.465s.178 1.137.506 1.465.808.505 1.414.505c.631 0 1.111-.177 1.44-.505s.48-.834.48-1.465-.203-1.137-.506-1.465-.783-.505-1.414-.505m-20.581.05c-.455 0-.834.102-1.086.304-.278.176-.404.454-.404.808 0 .177.05.353.1.48.051.126.152.252.279.353.126.101.328.228.58.329.278.126.455.202.53.252.077.025.127.076.127.126.025.026.05.076.05.127a.23.23 0 0 1-.1.201c-.076.05-.202.076-.354.076a2.5 2.5 0 0 1-.58-.076 2.7 2.7 0 0 1-.632-.227v.91c.202.075.379.15.556.176.176.025.404.05.656.05q.492 0 .833-.151a1.3 1.3 0 0 0 .53-.43c.127-.176.177-.403.177-.63 0-.253-.075-.455-.202-.632-.126-.177-.378-.328-.707-.48a5 5 0 0 1-.656-.328c-.076-.05-.126-.126-.126-.202 0-.05.05-.126.1-.177a.54.54 0 0 1 .304-.075c.277 0 .58.1.959.252l.303-.758a3.1 3.1 0 0 0-1.237-.277m1.768.026v3.788h.934V12.48c0-.252-.025-.606-.05-1.086h.025l.808 2.753h.984l.784-2.727h.025c0 .43-.025.783-.025.783v1.944h.984v-3.813H6.318l-.783 2.702H5.51l-.833-2.702zm4.823 0v.833h.96v2.98h1.06v-2.98h.96v-.833zm3.434 0v3.813h1.061v-1.263h.303c.48 0 .859-.126 1.111-.353q.38-.341.379-.985 0-.568-.379-.91c-.227-.201-.606-.302-1.111-.302zm10.606.783c.253 0 .455.1.581.277.127.177.203.455.203.834s-.076.657-.203.833c-.126.177-.328.278-.606.278-.53 0-.808-.379-.808-1.111s.253-1.111.833-1.111m-9.545.076h.278q.454 0 .454.378c0 .152-.05.278-.151.354a.62.62 0 0 1-.38.126h-.201z"/></svg>
