<svg role="img" viewBox="0 0 24 24" xmlns="http://www.w3.org/2000/svg"><title>Snapdrop</title><path d="M12 10.41c-1.32 0-2.4 1.08-2.4 2.4s1.08 2.4 2.4 2.4 2.4-1.08 2.4-2.4-1.08-2.4-2.4-2.4zm7.2 2.4c0-3.972-3.228-7.2-7.2-7.2a7.206 7.206 0 0 0-7.2 7.2c0 2.664 1.452 4.98 3.6 6.228l1.2-2.088c-1.428-.84-2.4-2.364-2.4-4.14 0-2.652 2.148-4.8 4.8-4.8 2.652 0 4.8 2.148 4.8 4.8 0 1.776-.972 3.3-2.4 4.14l1.2 2.088c2.148-1.248 3.6-3.564 3.6-6.228zM12 .81c-6.624 0-12 5.376-12 12 0 4.44 2.412 8.304 5.988 10.38l1.2-2.076C4.332 19.446 2.4 16.362 2.4 12.81c0-5.304 4.296-9.6 9.6-9.6 5.304 0 9.6 4.296 9.6 9.6 0 3.552-1.932 6.636-4.8 8.304L18 23.19c3.588-2.076 6-5.94 6-10.38 0-6.624-5.376-12-12-12z"/></svg>