<svg role="img" viewBox="0 0 24 24" xmlns="http://www.w3.org/2000/svg"><title>Snapp</title><path d="M22.27 12.47c.442 0 .801.371.801.828a.815.815 0 0 1-.8.827.814.814 0 0 1-.8-.827c0-.457.357-.828.8-.828zm.43-3.883-.857 3.402h.713a.762.762 0 0 0 .733-.586L24 8.587Zm-4.365 2.147a.009.009 0 0 0 .007-.004c.23-.363.66-.534 1.076-.534 1.064 0 1.801.92 1.801 1.975 0 1.063-.73 1.954-1.787 1.954-.403 0-.819-.145-1.09-.456-.006-.006-.016-.002-.016.006v1.104c0 .43-.338.778-.754.778h-.503c-.006 0-.01-.004-.01-.01v-5.22a.01.01 0 0 1 .01-.01h1.247a.01.01 0 0 1 .01.01v.399c0 .004.004.01.01.01m-.052 1.428c0 .468.3.827.814.827s.814-.36.814-.826c0-.453-.3-.833-.814-.833-.515 0-.814.38-.814.832m-4.344-1.43a.01.01 0 0 0 .008-.003c.23-.364.66-.535 1.075-.535 1.063 0 1.801.92 1.801 1.976 0 1.063-.73 1.954-1.787 1.954-.41 0-.832-.15-1.104-.472h-.002v1.125c0 .43-.337.779-.753.779h-.513v-5.24h1.266v.408c0 .005.004.01.01.01m-.052 1.429c0 .467.3.826.814.826.515 0 .813-.36.813-.826 0-.453-.298-.834-.813-.834-.515 0-.814.38-.814.834m-2.365 1.839h-.503a.01.01 0 0 1-.01-.01v-.39c0-.005-.003-.01-.008-.01a.01.01 0 0 0-.008.004c-.223.364-.66.528-1.075.528-1.057 0-1.801-.913-1.801-1.97 0-1.055.73-1.96 1.787-1.96.402 0 .825.152 1.09.463.006.006.016.002.016-.006v-.325a.01.01 0 0 1 .01-.01h1.247a.01.01 0 0 1 .01.01v2.897a.767.767 0 0 1-.755.778m-2.097-1.838c0 .467.299.826.813.826.515 0 .814-.36.814-.826 0-.453-.3-.833-.814-.833s-.813.38-.813.833M5.39 10.793a.01.01 0 0 0 .007-.004c.292-.442.646-.592 1.138-.592.96 0 1.343.625 1.343 1.53v1.497c0 .43-.338.78-.754.78h-.503a.01.01 0 0 1-.01-.01v-1.787c0-.352.056-.97-.57-.97-.514 0-.66.395-.66.855v1.132c0 .43-.338.78-.754.78h-.503a.01.01 0 0 1-.01-.01v-3.667a.01.01 0 0 1 .01-.01h1.248a.01.01 0 0 1 .01.01v.456c0 .005.003.01.008.01M3.46 9.286a.746.746 0 0 1-.887.39 1.245 1.245 0 0 0-.362-.055c-.25 0-.584.15-.584.453 0 .316.37.438.605.517l.348.107c.73.223 1.293.604 1.293 1.48 0 .539-.125 1.092-.542 1.458-.41.36-.96.51-1.488.51a3.167 3.167 0 0 1-1.837-.612.01.01 0 0 1-.004-.014l.58-1.127c.341.309.745.56 1.21.56.32 0 .661-.165.661-.546 0-.395-.535-.531-.827-.617-.856-.252-1.42-.482-1.42-1.53 0-1.1.76-1.818 1.81-1.818.525 0 1.168.17 1.633.44a.01.01 0 0 1 .004.013z"/></svg>