<svg viewBox="0 0 16 16" xmlns="http://www.w3.org/2000/svg" fill-rule="evenodd" clip-rule="evenodd" stroke-linejoin="round" stroke-miterlimit="1.414"><path d="M8.155.48c.662 0 2.903.185 3.96 2.552.354.797.27 2.15.2 3.237l-.002.045c-.008.12-.015.232-.02.342.05.028.135.06.268.067.2-.01.432-.074.69-.195.11-.053.228-.063.307-.063.116 0 .234.022.333.063.297.107.484.32.488.56.006.304-.266.567-.808.78-.066.027-.147.053-.233.08-.306.097-.768.244-.894.54-.065.153-.04.35.077.586l.008.016c.04.094 1.02 2.326 3.194 2.685.167.028.287.177.277.346-.003.05-.015.1-.036.15-.163.38-.852.66-2.105.853-.043.057-.086.256-.113.377-.027.123-.054.244-.092.372-.052.18-.183.277-.37.277H13.267c-.09 0-.21-.015-.36-.045-.242-.047-.512-.09-.854-.09-.2 0-.404.017-.61.05-.406.07-.75.31-1.148.593-.57.403-1.215.86-2.196.86-.045 0-.086-.002-.118-.004l-.08.003c-.982 0-1.627-.457-2.197-.86-.398-.28-.742-.524-1.146-.592-.21-.034-.414-.05-.613-.05-.358 0-.644.055-.853.095-.14.028-.26.05-.36.05-.253 0-.35-.153-.39-.28-.038-.132-.065-.256-.09-.377-.028-.12-.07-.322-.113-.378C.89 12.933.2 12.654.037 12.272c-.02-.048-.033-.1-.035-.15-.01-.168.11-.317.278-.345 2.174-.358 3.154-2.59 3.194-2.685l.008-.016c.116-.236.142-.433.077-.586-.126-.296-.588-.443-.895-.54-.085-.027-.165-.053-.232-.08-.74-.292-.844-.628-.8-.858.06-.32.45-.535.778-.535.094 0 .18.017.253.052.28.13.527.195.737.195.157 0 .257-.037.31-.067-.006-.13-.015-.262-.023-.39-.068-1.086-.153-2.438.202-3.234C4.94.668 7.178.484 7.838.484L8.115.48h.04z"/></svg>