<svg role="img" viewBox="0 0 24 24" xmlns="http://www.w3.org/2000/svg"><path d="M19.947 10.923c-.827 1.795-1.916 2.974-2.961 4.462-1.96 2.82-2.395 2.153-2.7 3.692-.174-1.846 1.524-4.308 2.744-6.051 1.132-1.641 2.874-3.641 4.267-3.898-.641.721-.95.875-1.35 1.795m-.609 2.564c.566-.82 1.829-2.41 3.135-2.974-.76 1.259-2.125 3.3-2.787 4.359-1.854 2.439-2.318 3.055-2.918 3.949-.043-1.436 1.524-3.744 2.57-5.334m-6.095-8.172c.102.421-.255 1.021-.561.841-.181-.472.271-1.431.561-.841m-2.22.744c-.204-.661.383-1.705.842-1.525-.102-.36-.102-.961-.357-1.261-.612-.721-1.479 1.742-1.734.841.51-.601 1.071-1.622 1.836-1.442.97.18.204 1.456.714 1.876.154.18.307-.374.562-.074-.204.721-.794.739-.794.739-.048.251-.181.957-.712 1.086-.18.068-.306-.06-.357-.24m11.798 4.967c.305-.975.523-2.205.087-2.923-.304-.462-1.698-.308-2.525.102-3.832 1.846-6.837 7.077-7.49 9.641-.392 1.333 0 2.564 1.001 2.616 2.134.153 5.182-3.129 6.271-4.513 1.132-1.487 2.264-3.436 2.656-4.923M8.102 0c-.696.513-1.306 1.18-1.611 1.18-.522 0-1.176 0-1.698-.052 0 .69.143 1.443.257 2.138.497 1.336.926 1.982.962 2.067.349.154.566-.153.784-.461.392-.769.697-1.487.871-2.359.348-.103.131.359.131.461-.262.923-.479 2.103-1.133 2.718C6.317 6 5.751 6 5.577 5.59c-.103-.162-.424-.666-.662-.899-.699.856-1.401 1.7-1.864 2.745C1.556 7.021.277 7.433.525 8.821c.087.358.479.717 1.22.923-1.437 1.641-2.178 5.025-.871 6.153-.349.411-.741.77-.828 1.283-.174.666.174.923.566.974.741.154 1.263-.257 1.786-.616 1.132.77 1.916.718 3.222.77.131.051.479.513.479.513s-.914-.154-1.35 0c-.653.256-1.175.923-.74 1.538.61.872 1.873 1.179 2.961.872.697.872.349 2.256-.784 2.769 1.002-.051 2.178-.82 2.265-2.462.018-.62-.309-.997-.61-1.435 0 0 .523-1.231-.609-1.949.435-.103 1.306-.513 1.306-.513.431.53 1.06.924 1.524 0 .218-.564-.392-1.026-.392-1.026l.479-.871c1.014 1.12 1.233 2.981 1.786 4.153 1.024 1.84 2.831 1.537 4.224.565 2.961-2.103 5.051-4.77 6.837-8.616.479-1.026 1.437-3.077.783-4.308-.348-.615-1.262-.871-2.003-.717-2.7.717-6.271-.308-7.272-.975-.044 0 .174-.615.043-.82.175-.154.262-.257.523-.205.435.256 1.002.153 1.481.051-.262-.616-.567-1.795-.959-2.513l-1.393.974c-.74-2.307-3.222-2.718-5.182-1.384z" fill-rule="evenodd"/></svg>