<svg role="img" viewBox="0 0 24 24" xmlns="http://www.w3.org/2000/svg"><title>Snort</title><path d="M7.543 15.522c.257-.032.461-.462.583-.653-.231-.192-.719.255-.583.653m11.815-2.056c-1.03 1.578-2.629 3.889-2.588 5.307.23-1.195 1.355-1.482 2.94-3.952.84-1.291 1.138-1.53 2.222-3.777.041-.064.718-.319.556-.558-1.314.558-2.575 2.151-3.13 2.98m4.431-5.944c-.326-.622-1.261-.908-1.992-.749-2.683.733-6.301-.271-7.276-.94-.068 0 .149-.622 0-.861.203-.159.271-.255.528-.175.461.239 1.03.143 1.491.064-.271-.622-.542-1.833-.949-2.534-.393.382-1.002.685-1.395 1.004-.732-2.327-3.212-2.741-5.217-1.403-.054.032-.108.032-.108.032S8.329.622 8.098 0C7.38.494 6.757 1.179 6.486 1.179c-.542 0-1.192 0-1.721-.079 0 1.083.353 2.342.393 3.282-.799.941-1.585 1.865-2.113 3.044-.583-.159-1.233-.271-1.843.032-.38.191-.827.749-.678 1.371.082.35.461.717 1.193.94-1.409 1.594-2.128 4.956-.84 6.119-.326.383-.718.749-.84 1.259-.149.67.176.909.569 1.004.731.16 1.26-.271 1.802-.653 1.138.797 1.91.733 3.238.813.136 0 .447.462.447.462s-.894-.112-1.355.048c-.623.223-1.165.908-.731 1.498.636.892 1.869 1.211 2.98.892.678.845.366 2.231-.772 2.789.989-.08 2.141-.861 2.263-2.47.027-.303-.122-.797-.325-1.036s-.312-.382-.312-.382.556-1.243-.596-1.945c.461-.111 1.328-.541 1.328-.541s.352.478.664.541c.338.064.731-.159.867-.541.189-.574-.393-1.02-.393-1.02l.46-.861s.407.446.583.797c.569 1.115.678 2.231 1.206 3.331a2.9 2.9 0 0 0 1.192 1.227c.393.159.827.191 1.274.095.745-.159 1.341-.446 1.761-.749 2.954-2.071 5.027-4.781 6.829-8.621.447-1.036 1.423-3.06.759-4.303zm-8.401-4.638s.176.367.271.622c.135.382.393 1.131.393 1.131l-.529-.111-.501-.414s-.068.302-.352.557c-.136-.462.149-.685-.244-1.195.312-.239.962-.59.962-.59M8.098 21.53c.122.829-.501 1.673-.934 1.992.379-.685.745-.988.311-2.406-.176-.558-.596-.957-1.03-1.291-.135-.112-.311-.176-.514-.239-.217-.064-.461.127-.664.366 0 0 .623.367 1.165.478.312.478-.312.494-.312.494-.067.08-1.788-.207-1.68-1.195.041-.382.691-1.1 1.992-.51.732.335 1.558 1.53 1.666 2.311m-.731-2.916c.325.175.325.621.325 1.019 0 .399-.068.08-.136.16-.203-.43-.541-.638-.867-.94-.067-.064-.108-.096-.04-.176.216-.239.487-.207.718-.063m2.425-1.339c-.122.542-.555.446-.596.175-.041-.239.217-.319.298-.43.068.048.312.175.298.255m2.507 1.434c-.718-2.518-2.697-4.829-3.659-5.498-.054-.032-.176.175-.176.175s.867.957 1.003 1.658c.135.621-.163 1.291-.501 1.753-1.328 1.482-3.117 1.195-4.824 1.052-.528-.048-1.314-.463-.908-1.403-.596.542-1.517 1.562-2.195 1.243-.135-.063-.325-.446-.189-.813.243-.605 1.056-1.545 1.761-1.96.041-.079-.054-.239-.312-.095-.271.143-.799.749-1.016.621-1.206-.701-.433-3.315-.041-4.175.488-1.068 1.125-1.259 1.789-1.498-.786-.159-1.396-.255-1.789-.733-.203-.319-.108-.558.095-.861a1.54 1.54 0 0 1 .705-.494c.271-.095.501-.048.759 0 .65.16.691.558 1.016.478-.068-.175-.407-.541-.339-.701A6.95 6.95 0 0 1 5.05 5.131c.095-.095.162-.111.298-.111.203.08.122.319.244.542.203.398.745.382 1.07.079.664-.621.881-1.784 1.152-2.725 0-.079.217-.573-.149-.43-.176.861-.461 1.562-.867 2.343-.204.318-.434.589-.759.446-.068-.08-.203-.128-.23-.367-.136-1.115-.326-3.203-.326-3.203s.922.144 1.274.048c.203-.048.664-.701 1.125-.924.325.542.636 1.067.921 1.593 1.328-.701 2.886-1.259 4.2-.095.461.462.962 1.051 1.111 1.577.122.399.19 1.371.109 2.104 1.124.701 2.235 1.1 3.495 1.386.556.128.99.192 1.532.239.271.032.907.128 2.167-.127-2.587.621-4.674 2.582-6.422 4.956-.867 1.164-2.412 4.016-2.615 5.052-.081.43-.095.653-.081 1.179zm10.568-7.729c-.433 1.498-1.544 3.474-2.696 4.94-1.071 1.371-4.106 4.654-6.246 4.51-1.003-.063-1.396-1.275-1.03-2.629.677-2.566 3.699-7.777 7.533-9.642.8-.382 2.195-.557 2.521-.063.433.717.189 1.944-.082 2.884m-2.913-.08c.176-.398.379-.557.447-.876.068-.542.881-.191.922-.908-1.382.255-3.13 2.215-4.282 3.888-1.192 1.721-2.886 4.207-2.723 6.024.271-1.498.745-.877 2.682-3.65 1.057-1.498 2.141-2.709 2.954-4.478M13.45 4.351c-.216-.271-.379.382-.501.271-.42-.367.23-1.658-.583-1.817-.663-.144-1.151.749-1.585 1.259.203.765.962-1.371 1.491-.749.216.255.203.797.311 1.099-.379-.159-.799.526-.637 1.1.055.175.231.303.312.207.149-.111-.081-.207-.095-.255a.8.8 0 0 1 .176-.749c.177-.175.149.112.082.367-.041.159-.149.255-.122.366.244.239.42-.733.42-.733s.528.255.731-.366m.082.557c-.068.08-.163.128-.19.287-.027.176-.163.399-.095.574.285.175.583-.351.502-.685 0-.096-.068-.271-.217-.176m.067.399c0 .143-.027.127-.081.239s-.081 0-.095-.08 0-.111.055-.271c.027-.127.067-.111.081-.111.068 0 .054.079.04.223"/></svg>