<svg role="img" viewBox="0 0 24 24" xmlns="http://www.w3.org/2000/svg"><title>Snowflake icon</title><path d="M24 3.4587c0 .6467-.4184 1.1796-1.1414 1.1796-.7226 0-1.1414-.533-1.1414-1.1796 0-.6468.4188-1.1794 1.1414-1.1794.723 0 1.1414.5326 1.1414 1.1794zm-.2282 0c0-.5325-.3804-.9511-.9132-.9511-.5324 0-.9128.3804-.9128.9511 0 .5327.3804.9512.9128.9512.5707 0 .9132-.4185.9132-.9512zm-1.3695-.5325h.4946c.2664 0 .4566.152.4566.3805 0 .152-.0761.228-.1902.3042l.1902.2665v.0377h-.2663l-.1903-.2661h-.2285v.2661h-.266zm.4946.228h-.2285v.2665h.2285c.114 0 .152-.038.152-.114.0383-.0762-.038-.1525-.152-.1525zM7.6023 12.3994c.038-.1519.0762-.3044.0762-.4564 0-.1141-.0382-.2284-.0382-.3424-.1141-.3424-.3044-.647-.6468-.8372L2.1236 7.9862C1.4388 7.6058.5637 7.834.1833 8.519c-.3805.685-.1522 1.5598.5326 1.9403l2.7013 1.5599-2.7013 1.56c-.6848.3805-.913 1.2554-.5326 1.94.3804.685 1.2555.9135 1.9403.533l4.8319-2.7773c.3425-.2664.5707-.5328.6468-.8754zm1.3316 2.6253c-.2664-.0379-.5707.038-.837.1903L3.265 17.9922c-.6848.3804-.913 1.2555-.5325 1.9406.3805.6849 1.2554.9128 1.9402.5324l2.7013-1.5596v3.1198c0 .7988.6468 1.4074 1.4459 1.4074.7988 0 1.4075-.6465 1.4075-1.4074v-5.5928c0-.761-.5707-1.37-1.2935-1.4079zm4.946-6.0873c.2664.038.5706-.038.8371-.1903L19.549 5.97c.6848-.3804.913-1.2557.5325-1.9405-.3805-.685-1.2556-.913-1.9402-.5325l-2.7016 1.5596V1.9751c0-.7991-.6465-1.4079-1.4456-1.4079-.7988 0-1.4458.6088-1.4458 1.4079v5.5544c0 .761.6087 1.3698 1.3317 1.4079zM3.265 5.9699L8.097 8.7471c.2663.1522.5327.1903.837.1903.7228-.038 1.3316-.6847 1.3316-1.4079V1.9751c0-.7991-.6468-1.4079-1.4077-1.4079-.7988 0-1.4458.647-1.4458 1.4079v3.1196l-2.7013-1.56c-.6848-.3805-1.5598-.152-1.9403.533-.4183.6465-.1902 1.5218.4946 1.9022zm9.093 6.0112c0-.0763-.038-.1903-.114-.2665l-.5707-.5707c-.0762-.076-.1523-.114-.2664-.114-.0761 0-.1903.038-.2664.114l-.5707.5707c-.076.0762-.114.1902-.114.2665 0 .0762.038.1902.114.2664l.5707.5707c.0761.0761.1524.114.2664.114.0762 0 .1902-.0379.2664-.114l.5707-.5707c.076-.0762.114-.1902.114-.2664zm1.5981.5327l-2.0166 2.0165c-.038.0377-.1522.114-.2283.114h-.6085c-.0763 0-.1903-.038-.2665-.114l-2.0163-2.0165c-.0382-.0383-.0763-.1523-.0763-.2285v-.6084c0-.0763.038-.1903.1142-.2665l2.0164-2.0163c.0761-.0763.1902-.1143.2663-.1143h.6088c.076 0 .1902.038.2663.1143l2.0166 2.0163c.0758.0762.1141.1521.1141.2664v.6084c-.0762.0763-.1141.1903-.1902.2286zm5.5928 5.4406l-4.8319-2.7773c-.2665-.1524-.5707-.1903-.8371-.1524-.723.038-1.3317.6847-1.3317 1.4079v5.5544c0 .7993.647 1.4079 1.4079 1.4079.7988 0 1.4456-.647 1.4456-1.4079v-3.1198l2.7012 1.5602c.685.3805 1.5601.152 1.9406-.533.4183-.6467.1902-1.5218-.4946-1.94zm2.5488-7.5332l-2.7012 1.5599 2.7012 1.5597c.685.3804.9132 1.2558.5328 1.9406-.3805.6847-1.2554.9128-1.9402.5324l-4.8319-2.7774c-.3044-.1902-.5328-.4944-.647-.7986-.0378-.1525-.076-.3046-.076-.4567 0-.114.0382-.2283.0382-.3425.1141-.3422.3422-.6467.6465-.837l4.832-2.7773c.6847-.3805 1.56-.152 1.9405.5326.4563.6087.1902 1.4838-.4949 1.8643"/></svg>