<svg role="img" viewBox="0 0 24 24" xmlns="http://www.w3.org/2000/svg"><title>Snyk icon</title><path d="M15.3.002C15.291 0 15.285 0 15.281.004c-.047.055-.25 1.273-.449 2.706-.204 1.47-.468 2.851-.604 3.17l-.243.566-.555-.11c-.707-.14-2.091-.14-2.787-.003-.515.102-.548.089-.795-.326-.186-.311-.356-1.157-.612-3.037C9.042 1.538 8.852.256 8.814.123c-.053-.189-.157-.088-.469.456-.625 1.092-1.756 3.65-1.998 4.52l-.219.787.487 1.296.486 1.296-.142 1.405a29.787 29.787 0 0 0-.141 2.39c0 .95.021 1.02.569 1.834l.569.847-.314 2.847c-.3 2.73-.304 2.855-.08 3.025.128.097.27.178.314.18.045.003.188-1.05.317-2.34.13-1.29.277-2.344.328-2.344.207 0 .25 2.075.074 3.516-.137 1.117-.146 1.538-.036 1.654.082.085.88.683 1.776 1.328s1.645 1.176 1.666 1.18c.021.004 1.077-.737 2.345-1.645 1.269-.908 2.321-1.66 2.34-1.672.018-.011-.11-1.32-.283-2.906l-.315-2.885.575-.859c.661-.986.672-1.08.433-3.899l-.144-1.693.48-1.276.48-1.275-.282-.939C17.306 3.873 15.524.105 15.3.002zm.358 2.252c.133 0 .78 1.414 1.205 2.629.264.757.28.912.136 1.391-.089.296-.214.539-.277.539-.267 0-1.12-2.348-1.183-3.257-.047-.676.01-1.302.12-1.302zm-7.27.093c.005 0 .01 0 .013.004.34.341.021 2.34-.598 3.74-.167.378-.362.724-.433.768-.07.043-.203-.186-.294-.51-.131-.47-.132-.702-.005-1.138.283-.967 1.155-2.854 1.316-2.864zm1.556 1.86v.359c.001.197.063.578.137.847.15.541.162.544 1.205.352a3.976 3.976 0 0 1 1.54.009c.976.177 1.093.092 1.22-.882l.09-.684H12.04zm-4.038.542l-.814.22-.814.22-.028 6.64-.029 6.642 1.257.878c.69.483 1.285.848 1.321.812.036-.035.192-1.222.347-2.636l.282-2.571-.377-.555c-.777-1.144-.802-1.29-.623-3.759l.162-2.23-.425-1.125c-.362-.96-.412-1.23-.342-1.831zm12.244 0l.078.674c.066.57.006.864-.387 1.91-.256.681-.438 1.355-.404 1.499.146.63.29 3.699.197 4.209-.057.309-.309.865-.56 1.237l-.458.676.3 2.605c.164 1.433.304 2.622.31 2.642.022.066.448-.212 1.51-.986l1.043-.76V5.188l-.814-.22zm-9.203.437c.03-.002.052.096.09.27.087.416.104.45.599 1.246l.295.476.523-.18c.287-.1.76-.218 1.048-.265.476-.076.526-.057.526.194 0 .221-.079.277-.394.277-.216 0-.727.117-1.135.26-.408.143-.755.26-.773.26-.017 0-.186-.263-.375-.586-.189-.322-.358-.586-.377-.586-.018 0-.23.308-.47.684-.314.492-.441.848-.454 1.27-.01.323-.065 1.452-.124 2.51l-.107 1.923.493.714c.27.393.505.715.521.715.312 0 .91-.398 1.302-.866.366-.439.525-.55.597-.42.131.237.176 3.206.056 3.667-.124.479.247.924.681.815.267-.067.299-.029.299.36a.954.954 0 0 1-.302.72c-.39.367-1.11.373-1.568.013-.389-.305-.67-1.163-.808-2.466-.081-.768-.161-.943-.859-1.88-.423-.57-.807-1.185-.853-1.368-.046-.184-.01-1.314.079-2.512s.127-2.235.085-2.304c-.043-.069.154-.484.438-.923.284-.44.618-1.102.743-1.474.127-.377.184-.543.224-.544zm5.562 4.778c.205.012.32.134.32.366 0 .311-.039.327-.88.364-.483.02-.878.009-.878-.027s.261-.22.58-.406c.36-.21.654-.31.858-.297zm-4.992.02c.356-.007.888.193 1.143.475.234.26.23.261-.56.261-.65 0-.822-.045-.93-.246-.099-.184-.082-.289.065-.41a.457.457 0 0 1 .282-.08zm.747 1.257c.288 0 .25.486-.05.647-.359.192-.495.17-.79-.125-.344-.344-.33-.55.032-.498.202.029.28.116.252.28-.03.172.026.226.195.191.139-.028.22-.14.198-.271-.022-.131.045-.224.163-.224zm4.299 0c.288 0 .25.486-.051.647-.358.192-.495.17-.79-.125-.344-.344-.33-.55.032-.498.202.029.28.116.252.28-.029.172.026.226.196.191.138-.028.22-.14.198-.271-.023-.131.045-.224.163-.224zm-1.27 1.696c.062.003.347.263.663.605.417.451.758.694 1.068.76.661.14.701.192.398.514-.32.341-.528.988-.528 1.644 0 .699-.37 1.806-.72 2.156-.685.685-1.885.23-1.885-.716 0-.36.038-.412.254-.343.395.125.84-.387.714-.825-.102-.356-.078-3.684.028-3.793.002-.002.005-.003.009-.002zm-1.265 6.38c.637 0 .857.154.446.312s-1.097.037-1.097-.192c0-.066.293-.12.651-.12zm-1.326.087l.413.348c.556.468 1.266.472 1.815.01.383-.322.401-.326.401-.068 0 .148-.144.363-.32.479-.784.513-2.167.236-2.264-.454z"/></svg>