<svg role="img" viewBox="0 0 24 24" xmlns="http://www.w3.org/2000/svg"><title>SoapUI</title><path d="M12 0C5.388 0 0 5.388 0 12s5.388 12 12 12 12-5.388 12-12S18.612 0 12 0zm0 1.156c5.983 0 10.844 4.86 10.844 10.844 0 5.983-4.86 10.842-10.844 10.842-5.983 0-10.844-4.859-10.844-10.842C1.156 6.017 6.016 1.156 12 1.156zm-1.785 3.041L7.77 5.19l-.3 1.588-.726.694-1.588.297-1.023 2.414.926 1.322v.992l-.926 1.322.992 2.446 1.586.299.693.693.3 1.586 2.411 1.025 1.322-.926h.993l1.322.926 2.447-.992.297-1.586.727-.693 1.588-.266 1.023-2.412-.924-1.322v-1.059l.924-1.322-.99-2.414-1.588-.297-.694-.693-.265-1.588-2.445-1.026-1.323.926h-.992l-1.322-.926zm-.166 1.29 1.092.761h1.718l1.125-.762 1.29.53.23 1.322 1.223 1.224 1.324.231.527 1.289-.76 1.125v1.719l.727 1.09-.527 1.289-1.323.232-1.224 1.223-.23 1.322-1.29.53-1.092-.76h-1.718l-1.123.76-1.291-.53-.23-1.322-1.19-1.223-1.323-.232-.529-1.29.76-1.09v-1.718l-.76-1.125.53-1.289 1.322-.23 1.222-1.225.23-1.322 1.29-.53zm2.38 2.05-2.61 4.66 2.38.496-1.554 2.448a3.084 3.084 0 0 1-1.786-2.81c0-.827.331-1.62.926-2.216l-.793-.793c-.826.794-1.256 1.884-1.256 3.008A4.275 4.275 0 0 0 12 16.596a4.277 4.277 0 0 0 4.266-4.266 4.212 4.212 0 0 0-1.522-3.24l-.726.892a3.041 3.041 0 0 1 1.123 2.381 3.104 3.104 0 0 1-3.108 3.108h-.166l2.215-3.504-2.512-.563L13.422 8.1l-.992-.563z"/></svg>