<svg role="img" viewBox="0 0 24 24" xmlns="http://www.w3.org/2000/svg"><title>SOGo</title><path d="M21.37 8.707a.618.618 0 0 1-.64-.639.62.62 0 0 1 .6-.64h.04a.62.62 0 0 1 .64.64.618.618 0 0 1-.597.64zm-.002-1.904c-.738 0-1.264.54-1.264 1.266 0 .725.524 1.265 1.264 1.265.744 0 1.27-.54 1.27-1.265 0-.726-.526-1.266-1.27-1.266zm0 3.185c-1.12 0-1.918-.82-1.918-1.92 0-1.102.797-1.92 1.917-1.92 1.128 0 1.925.82 1.925 1.92s-.797 1.92-1.925 1.92zm-.002-4.55c-1.535 0-2.625 1.123-2.625 2.631 0 1.507 1.09 2.63 2.625 2.63 1.545 0 2.635-1.124 2.635-2.63 0-1.508-1.09-2.63-2.635-2.63zM2.98 10.141l-.787-.189c-.717-.165-1.082-.352-1.082-.87 0-.589.6-.825 1.14-.825.499-.013.96.261 1.188.703l.004.006.015.028a.41.41 0 0 0 .335.187.383.383 0 0 0 .396-.396.509.509 0 0 0-.06-.25c-.404-.687-1.07-.983-1.832-.983-1.035 0-2.034.52-2.034 1.658 0 1.047 1.034 1.353 1.41 1.447l.753.177c.576.141 1.046.33 1.046.882 0 .636-.658.917-1.293.917-.646 0-1.125-.331-1.456-.818a.391.391 0 0 0-.326-.183.396.396 0 0 0-.396.396v.014a.421.421 0 0 0 .08.234c.518.774 1.266 1.063 2.1 1.063 1.07 0 2.142-.493 2.142-1.694 0-.775-.577-1.329-1.343-1.504zm5.263 2.49c-1.27 0-2.07-.953-2.07-2.188 0-1.235.8-2.188 2.07-2.188 1.282 0 2.082.953 2.082 2.188 0 1.235-.8 2.188-2.082 2.188zm0-5.08c-1.705 0-2.917 1.234-2.917 2.893 0 1.659 1.21 2.894 2.917 2.894 1.717 0 2.929-1.233 2.929-2.894 0-1.659-1.212-2.894-2.93-2.894zm8.26 4.48a1.75 1.75 0 0 1-.09.082 1.85 1.85 0 0 1-.147.119c-.33.24-.75.379-1.237.379-1.27 0-2.069-.952-2.069-2.188 0-1.234.8-2.188 2.07-2.188 1.28 0 2.081.953 2.081 2.188 0 .645-.218 1.213-.61 1.608zm-1.898 3.136c.096 0 .192-.007.294-.021a4.26 4.26 0 0 1 .517-.033c.72.004 1.09.214 1.31.455.223.244.308.574.308.855 0 .135-.02.254-.044.326-.11.335-.334.563-.676.734-.34.168-.792.254-1.265.254-.17 0-.34-.012-.512-.031a2.255 2.255 0 0 1-1.056-.416 1.38 1.38 0 0 1-.372-.432 1.28 1.28 0 0 1-.146-.616v-.027c.01-.463.222-.771.455-.993.115-.11.233-.19.32-.242l.038-.021c.23.136.512.209.83.208zm.424-7.638c-1.705 0-2.917 1.236-2.917 2.895 0 1.121.553 2.047 1.438 2.53l-.034.036a1.33 1.33 0 0 0-.272 1.328 2.7 2.7 0 0 0-.394.306 2.196 2.196 0 0 0-.713 1.578v.042c0 .378.089.719.242 1.004.23.432.588.729.958.93.372.199.76.307 1.1.348.2.023.404.037.608.037.568 0 1.135-.097 1.628-.338.49-.238.912-.646 1.095-1.222.055-.171.083-.364.084-.578a2.1 2.1 0 0 0-.517-1.405c-.39-.438-1.037-.732-1.923-.73-.193 0-.398.015-.616.042-.07.008-.135.012-.193.012-.27-.001-.407-.076-.488-.152a.412.412 0 0 1-.12-.303.47.47 0 0 1 .498-.488c.13.01.26.014.39.014.908.002 1.59-.279 2.055-.666a2.62 2.62 0 0 0 .827-1.229 3.08 3.08 0 0 0 .193-1.095c0-1.659-1.21-2.896-2.93-2.896z"/></svg>