<svg role="img" xmlns="http://www.w3.org/2000/svg" viewBox="0 0 24 24">
<title>SOGo</title>
<path d="M21.37,8.707c-0.342,0.012-0.628-0.257-0.639-0.598c-0.001-0.014-0.001-0.027,0-0.041c-0.012-0.343,0.257-0.629,0.599-0.641
	c0.014,0,0.026,0,0.04,0c0.342-0.012,0.629,0.256,0.641,0.599c0.001,0.014,0.001,0.028,0,0.042c0.012,0.342-0.256,0.627-0.598,0.639
	C21.398,8.707,21.384,8.707,21.37,8.707z M21.368,6.803c-0.738,0-1.264,0.54-1.264,1.266c0,0.725,0.524,1.265,1.264,1.265
	c0.744,0,1.269-0.54,1.269-1.265C22.637,7.343,22.112,6.803,21.368,6.803z M21.367,9.988c-1.12,0-1.917-0.82-1.917-1.92
	c0-1.102,0.797-1.92,1.917-1.92c1.128,0,1.925,0.819,1.925,1.92C23.292,9.168,22.495,9.988,21.367,9.988z M21.366,5.438
	c-1.535,0-2.625,1.123-2.625,2.631c0,1.507,1.09,2.629,2.625,2.629c1.545,0,2.635-1.123,2.635-2.629
	C24.001,6.561,22.911,5.438,21.366,5.438z M2.979,10.141L2.192,9.952C1.475,9.787,1.11,9.6,1.11,9.081
	c0-0.588,0.6-0.824,1.141-0.824C2.749,8.244,3.21,8.518,3.438,8.96l0.004,0.006l0.015,0.028l0.001-0.001
	c0.075,0.112,0.2,0.188,0.334,0.188c0.211,0.007,0.389-0.158,0.396-0.37c0.001-0.009,0.001-0.018,0-0.026
	c0.002-0.088-0.019-0.174-0.06-0.251C3.724,7.848,3.059,7.552,2.296,7.552c-1.035,0-2.035,0.519-2.035,1.658
	c0,1.047,1.035,1.353,1.412,1.447l0.752,0.177c0.576,0.141,1.046,0.33,1.046,0.882c0,0.636-0.658,0.917-1.293,0.917
	c-0.646,0-1.125-0.331-1.456-0.818c-0.07-0.112-0.193-0.181-0.326-0.183c-0.218-0.001-0.396,0.177-0.396,0.396
	c0,0.004,0,0.009,0,0.014c0.003,0.084,0.031,0.166,0.081,0.234c0.517,0.774,1.265,1.063,2.099,1.063c1.07,0,2.142-0.493,2.142-1.694
	C4.321,10.87,3.745,10.316,2.979,10.141z M8.242,12.631c-1.271,0-2.07-0.953-2.07-2.188c0-1.235,0.8-2.188,2.07-2.188
	c1.282,0,2.082,0.953,2.082,2.188C10.324,11.678,9.524,12.631,8.242,12.631z M8.242,7.55c-1.705,0-2.917,1.235-2.917,2.894
	s1.211,2.894,2.917,2.894c1.717,0,2.929-1.233,2.929-2.894C11.171,8.785,9.959,7.55,8.242,7.55z M16.501,12.031
	c-0.029,0.028-0.059,0.056-0.09,0.082c-0.041,0.037-0.09,0.078-0.146,0.119c-0.331,0.24-0.749,0.379-1.237,0.379
	c-1.271,0-2.069-0.952-2.069-2.188c0-1.234,0.799-2.188,2.069-2.188c1.281,0,2.082,0.953,2.082,2.188
	C17.11,11.068,16.892,11.636,16.501,12.031L16.501,12.031z M14.604,15.167c0.096,0,0.192-0.007,0.294-0.021
	c0.172-0.021,0.344-0.033,0.517-0.033c0.721,0.004,1.089,0.214,1.31,0.455c0.223,0.244,0.308,0.574,0.308,0.855
	c0,0.135-0.021,0.254-0.044,0.326c-0.11,0.335-0.334,0.563-0.676,0.734c-0.339,0.168-0.792,0.254-1.265,0.254
	c-0.169,0-0.341-0.012-0.512-0.031c-0.382-0.047-0.745-0.189-1.056-0.416c-0.152-0.116-0.279-0.263-0.372-0.432
	c-0.1-0.189-0.149-0.402-0.146-0.616v-0.027c0.01-0.463,0.222-0.771,0.455-0.993c0.115-0.109,0.233-0.189,0.319-0.242l0.039-0.021
	C14.004,15.095,14.287,15.168,14.604,15.167L14.604,15.167z M15.028,7.529c-1.705,0-2.917,1.236-2.917,2.895
	c0,1.121,0.553,2.047,1.438,2.53l-0.034,0.036c-0.326,0.359-0.431,0.868-0.272,1.328c-0.141,0.09-0.271,0.191-0.394,0.306
	c-0.443,0.405-0.702,0.977-0.713,1.578v0.042c0,0.378,0.089,0.719,0.242,1.004c0.23,0.432,0.588,0.729,0.958,0.93
	c0.372,0.199,0.76,0.307,1.099,0.348c0.201,0.023,0.405,0.037,0.609,0.037c0.568,0,1.135-0.097,1.628-0.338
	c0.491-0.238,0.912-0.646,1.095-1.222c0.055-0.171,0.083-0.364,0.084-0.578c0.006-0.516-0.178-1.016-0.517-1.405
	c-0.391-0.438-1.037-0.732-1.923-0.729c-0.193,0-0.398,0.014-0.616,0.041c-0.07,0.008-0.135,0.012-0.193,0.012
	c-0.271-0.001-0.407-0.076-0.488-0.152c-0.08-0.08-0.124-0.189-0.121-0.303c0-0.123,0.048-0.253,0.13-0.341
	c0.096-0.101,0.23-0.155,0.369-0.147c0.13,0.01,0.261,0.014,0.391,0.014c0.907,0.002,1.589-0.279,2.054-0.666
	c0.466-0.387,0.711-0.857,0.827-1.229h-0.001c0.131-0.351,0.196-0.721,0.194-1.095C17.957,8.766,16.746,7.529,15.028,7.529
	L15.028,7.529z"/>
</svg>