<svg role="img" viewBox="0 0 24 24" xmlns="http://www.w3.org/2000/svg"><title>SolidWorks</title><path d="m.934 18.3718 10.8102 5.5652V6.4734L0 2.8216Zm5.8334-2.9302A6.0069 6.0069 0 0 0 5.324 14.063a10.3182 10.3182 0 0 1-2.5774-2.641 4.791 4.791 0 0 1-.732-2.6178 2.9608 2.9608 0 0 1 .4275-1.5696 1.7402 1.7402 0 0 1 1.2511-.7995 4.5807 4.5807 0 0 1 2.3326.4726A6.4306 6.4306 0 0 1 8.8613 9.006a6.0478 6.0478 0 0 1 1.0525 3.37l-2.8769-1.0648a3.1051 3.1051 0 0 0-.4202-1.4098 2.106 2.106 0 0 0-.9641-.8019.8303.8303 0 0 0-.7717-.0512.6413.6413 0 0 0-.2733.5642 1.0979 1.0979 0 0 0 .1927.6103 3.6636 3.6636 0 0 0 .9528.8756 18.3568 18.3568 0 0 1 2.7362 2.3287 5.9123 5.9123 0 0 1 1.1845 1.9212 4.932 4.932 0 0 1 .2934 1.9566 3.0443 3.0443 0 0 1-.6376 1.8196 1.8857 1.8857 0 0 1-1.4876.6913 4.9327 4.9327 0 0 1-2.2326-.669 6.988 6.988 0 0 1-3.0805-2.6796 7.4844 7.4844 0 0 1-.9093-3.261l2.5861 1.0352a4.2286 4.2286 0 0 0 .3136 1.4176 2.5795 2.5795 0 0 0 1.2128 1.3017 1.0375 1.0375 0 0 0 .9527.1116.7369.7369 0 0 0 .3689-.666 1.7505 1.7505 0 0 0-.2863-.9648ZM12.2558 6.4734V23.937l10.8102-5.5652L24 2.8216Zm9.8251 10.1469-2.21.933-1.3604-6.0402-1.2444 7.1397-2.3017.9716-1.4763-9.8528 2.1158-.8024.7278 5.3537L17.45 8.2692l2.0402-.7738 1.195 5.0669.5962-5.746 1.973-.7483ZM12 .063.725 2.511 12 6.017l11.275-3.506Z"/></svg>