<svg role="img" viewBox="0 0 24 24" xmlns="http://www.w3.org/2000/svg"><title>SoloLearn icon</title><path d="M13.01.083c-1.354-.024-2.678.303-3.822 1.12-3.493 2.178-4.327 6.98-2.163 10.94.442-4.8 3.936-8.762 8.56-9.603 2.165-.248 3.74 0 3.74 0C17.601 1.15 15.264.125 13.01.083zm-5.246.923C4.418 2.095.924 5.163 1.367 8.628c0 3.96 3.935 7.03 7.821 8.317-3.05-3.515-5.214-7.87-3.295-12.672.887-2.03 1.87-3.267 1.87-3.267zM17.79 3.262c-2.789-.035-6.718 1.358-8.158 4.031 4.38-1.733 9.99-1.336 12.646 3.367 1.133 1.93 1.575 3.464 1.575 3.464.542-3.762-.345-8.563-3.788-10.346-.542-.334-1.345-.504-2.275-.516zm-2.497 3.635c3.493 3.514 5.657 9.208 2.656 13.613-1.328 1.931-2.51 3.069-2.51 3.069h.002c3.788-.94 7.673-4.454 7.673-8.365 0-2.623-2.704-7.327-7.82-8.317zM.531 9.57c-1.328 3.465-.05 7.82 2.558 9.603 3.493 2.624 8.267 1.336 11.76-1.733-4.773.892-9.989 0-12.644-4.306C1.024 11.104.53 9.57.53 9.57zm17.712 3.168c-1.723 4.8-5.609 8.168-10.627 8.416-2.312-.149-3.936-.644-3.936-.644 2.41 2.97 6.789 4.208 10.282 2.872 2.362-.94 4.133-3.516 4.526-6.437.246-1.485-.048-2.723-.245-4.207Z"/></svg>