<svg role="img" viewBox="0 0 24 24" xmlns="http://www.w3.org/2000/svg"><title>SonarLint icon</title><path d="M12.1826.0321c-.697-.01-1.399.008-1.7871.063a12.0546 12.0546 0 00-6.8803 3.4142C1.226 5.7993 0 8.7535 0 12.0037c0 3.2981 1.26 6.2833 3.6112 8.5684 1.833 1.779 3.9912 2.8711 6.5303 3.2931.79.127 2.7311.144 3.5271.024 2.6472-.392 4.9403-1.537 6.8144-3.4121 2.394-2.3821 3.6351-5.5303 3.5081-8.8954-.12-3.1352-1.295-5.8423-3.5021-8.0554C18.6739 1.7192 16.5148.602 13.9407.144c-.37-.065-1.062-.102-1.7581-.112zm-.026 2.1271c.38.007.764.033 1.15.082 2.1291.272 4.1132 1.255 5.6633 2.8052 1.88 1.881 2.8751 4.2862 2.8751 6.9513 0 2.6471-.97 5.0112-2.8261 6.9043-1.387 1.405-3.0761 2.3281-5.0472 2.7501-.863.187-2.5382.229-3.4072.096-2.1641-.35-4.0212-1.283-5.5403-2.809-1.52-1.5132-2.45-3.3593-2.788-5.5174-.0961-.621-.0961-2.28 0-2.865.38-2.2552 1.292-4.0203 2.871-5.5773 1.9201-1.8881 4.3902-2.8672 7.0504-2.8202zm6.9103 7.6394c-.095-.023-.2-.013-.357.017-.253.049-.746.61-1.012 1.164-.452.929-.725 1.2-1.1231 1.11-.277-.06-.705-.531-1.06-1.17-.38-.675-.447-.76-.7431-.91-.602-.308-1.127 0-1.664.982-.373.67-.6451.952-.9641.994-.248.037-.27.024-.541-.26-.157-.162-.404-.523-.555-.8-.332-.621-.5801-.815-1.0501-.815-.833 0-1.177.254-1.6651 1.23-.35.694-.645 1.0851-.826 1.0851-.296 0-.573-.324-1.043-1.235-.1691-.331-.3781-.675-.4691-.765-.597-.6331-1.7-.097-2.3401 1.133-.138.265-.35.663-.47.886-.187.356-.217.47-.217.82 0 .495.085.645.332.585.235-.06.59-.452.957-1.06.506-.839 1.002-1.105 1.412-.755.205.175.41.573.5.983.0841.41.4411.855.7971 1 .253.108.319.115.572.043.398-.103.7781-.446 1.1101-1.006.488-.82.916-1.093 1.453-.93.3311.097.6131.405.9401 1.014.463.862.844 1.193 1.2 1.043.3201-.139.6271-.488.9771-1.121.374-.682.742-.997 1.164-.997.4221 0 .7961.314 1.1821.977.229.41.656.803.916.857.259.049.6081-.055.8371-.242.103-.09.34-.415.52-.722.856-1.454 1.4041-1.4 2.3142.222.217.386.586.7.748.639.109-.042.188-.507.133-.82-.054-.332-.777-1.893-1.115-2.387-.157-.2301-.398-.5071-.543-.6151-.124-.097-.21-.152-.3071-.174z"/></svg>