<svg viewBox="0 0 16 16" xmlns="http://www.w3.org/2000/svg" fill-rule="evenodd" clip-rule="evenodd" stroke-linejoin="round" stroke-miterlimit="1.414"><path d="M4.366 12.52c-1.237 0-2.248-.226-3.065-1.068l1.28-1.272c.42.42 1.16.568 1.81.568.79 0 1.16-.26 1.16-.726 0-.194-.04-.353-.16-.478-.1-.102-.27-.182-.53-.216l-.97-.136c-.71-.102-1.26-.34-1.62-.715-.37-.386-.56-.93-.56-1.623C1.69 5.378 2.8 4.3 4.64 4.3c1.16 0 2.032.272 2.724.965l-1.25 1.248c-.51-.51-1.18-.477-1.53-.477-.693 0-.977.398-.977.75 0 .102.034.25.16.374.1.102.27.204.555.24l.978.135c.727.102 1.25.33 1.59.67.43.42.6 1.02.6 1.77 0 1.647-1.418 2.546-3.12 2.546zm9.51-10.752C12.786.955 11.58.408 10.06.158v7.25l2.174-3.026h2.377l-2.73 3.814s.63 1.006 1.01 1.603c.39.6.76.76 1.31.76h.38v1.87H14c-1.208 0-1.934-.22-2.48-1.05-.336-.54-1.45-2.29-1.45-2.29v3.33H8.08V0H8C5.432 0 3.66.62 2.126 1.768-.088 3.425 0 5.634 0 7.998c0 2.365-.088 4.578 2.126 6.235C3.66 15.383 5.432 16 8 16c2.568 0 4.34-.618 5.875-1.767C16.088 12.576 16 10.363 16 7.998c0-2.364.088-4.573-2.125-6.23z" fill-rule="nonzero"/></svg>