<svg role="img" viewBox="0 0 24 24" xmlns="http://www.w3.org/2000/svg"><title>SonicWall icon</title><path d="m 23.828953,10.494118 c -0.05019,0.05007 -0.107564,0.07152 -0.17928,0.07152 -0.0717,0 -0.136254,-0.02146 -0.179282,-0.07152 -0.04303,-0.05007 -0.0717,-0.107312 -0.0717,-0.178846 0,-0.07154 0.0287,-0.135922 0.07889,-0.185997 0.05019,-0.04291 0.107565,-0.07154 0.179282,-0.07154 0.0717,0 0.129083,0.02146 0.17928,0.07154 0.05019,0.05007 0.0717,0.107301 0.0717,0.178844 0,0.0787 -0.0287,0.135923 -0.07889,0.185999 z m -0.329878,-0.329077 c -0.04303,0.04291 -0.06454,0.093 -0.06454,0.150231 0,0.05723 0.02153,0.107312 0.06454,0.150231 0.04303,0.04291 0.09323,0.06437 0.150598,0.06437 0.05737,0 0.107563,-0.02146 0.150594,-0.06437 0.04303,-0.04291 0.06454,-0.093 0.06454,-0.150231 0,-0.05722 -0.02152,-0.107311 -0.06454,-0.150231 -0.04303,-0.04291 -0.09323,-0.06439 -0.150594,-0.06439 -0.05737,0 -0.107565,0.02146 -0.150598,0.06439 z m 0.03586,0.286154 v -0.286154 c 0.01433,0 0.04303,0 0.07889,0 0.03586,0 0.05737,0 0.05737,0 0.02151,0 0.04303,0.0072 0.05737,0.01431 0.02869,0.01431 0.03586,0.03576 0.03586,0.06439 0,0.02146 -0.0072,0.04291 -0.02151,0.05007 -0.01433,0.0072 -0.0287,0.01431 -0.0502,0.02146 0.01433,0.0072 0.0287,0.0072 0.04303,0.01431 0.01434,0.0143 0.02152,0.03576 0.02152,0.06438 v 0.02861 c 0,0 0,0.0072 0,0.0072 0,0 0,0.0072 0,0.0072 v 0.0072 h -0.0717 c 0,-0.0072 -0.0072,-0.02146 -0.0072,-0.03576 0,-0.01431 0,-0.02861 -0.0072,-0.03576 -0.0072,-0.0072 -0.0072,-0.0143 -0.02151,-0.02146 -0.0072,0 -0.01433,-0.0072 -0.0287,-0.0072 h -0.01433 -0.01433 v 0.100161 h -0.05737 z m 0.13625,-0.228922 c -0.0072,-0.0072 -0.02151,-0.0072 -0.04303,-0.0072 h -0.02151 v 0.08585 h 0.02867 c 0.01433,0 0.0287,0 0.04303,-0.0072 0.0072,-0.0072 0.01433,-0.02146 0.01433,-0.03576 0,-0.01431 -0.0072,-0.02861 -0.02151,-0.03576 z m -10.075588,1.709763 -0.01433,0.04291 -0.01433,-0.04291 -0.616727,-1.838533 h -0.616725 l 0.975288,2.718455 h 0.509151 l 0.609555,-1.774148 0.01433,-0.03576 0.01433,0.03576 0.616727,1.774148 h 0.501984 l 0.982461,-2.718455 h -0.602384 l -0.616726,1.838533 -0.01433,0.04291 -0.01433,-0.04291 -0.609555,-1.845687 H 14.205154 Z M 1.0746167,11.323963 C 0.45789022,11.195194 0.34315036,11.03781 0.34315036,10.787425 v -0.0072 c 0,-0.264692 0.25099342,-0.457844 0.60238398,-0.457844 0.29402076,0 0.52350036,0.08585 0.75297976,0.286153 l 0.021513,0.02146 0.00717,-0.0072 v -0.30036 C 1.4905483,10.165041 1.2538975,10.100658 0.9527057,10.100658 c -0.48764426,0 -0.86054864,0.300461 -0.86054864,0.708231 v 0.0072 c 0,0.407769 0.25816461,0.622384 0.89640466,0.751155 0.59521278,0.121613 0.70995238,0.278997 0.70995238,0.522228 v 0.0072 c 0,0.286153 -0.2581645,0.486459 -0.6238974,0.486459 -0.35856183,0 -0.61672648,-0.107311 -0.91074728,-0.379152 l -0.0215136,-0.02146 -0.007174,0.0072 v 0.307615 c 0.27967826,0.214614 0.57369904,0.307613 0.92508948,0.307613 0.5235005,0 0.8820624,-0.30046 0.8820624,-0.729689 v -0.0072 c 0.00717,-0.393531 -0.2581642,-0.615301 -0.8677192,-0.744071 z m 10.9791663,0.836998 c -0.243823,0.271845 -0.537843,0.407769 -0.896405,0.407769 -0.329877,0 -0.602384,-0.107312 -0.817522,-0.31477 -0.215136,-0.207461 -0.322706,-0.472153 -0.322706,-0.786922 0,-0.207461 0.05019,-0.39346 0.143425,-0.557998 0.09323,-0.164539 0.229481,-0.300461 0.408762,-0.400614 0.17211,-0.10016 0.365732,-0.150231 0.573698,-0.150231 0.186453,0 0.358563,0.03576 0.51633,0.114461 0.150595,0.07154 0.279677,0.178847 0.387245,0.314768 v -0.350537 c -0.07889,-0.06437 -0.164937,-0.143077 -0.258163,-0.186 -0.193624,-0.093 -0.408761,-0.143075 -0.652584,-0.143075 -0.401589,0 -0.731466,0.128768 -0.996801,0.386307 -0.265336,0.257538 -0.3944191,0.572306 -0.3944191,0.951458 0,0.357692 0.107569,0.665307 0.3298781,0.915692 0.258164,0.30046 0.616726,0.45069 1.068514,0.45069 0.236651,0 0.451788,-0.04291 0.645412,-0.135923 0.09323,-0.04291 0.186452,-0.121616 0.265336,-0.185999 z m 5.478825,1.781304 c 0,0 -1.26214,-0.450692 -1.541816,-1.208997 -0.308365,-0.844152 0.846206,-1.037307 2.022288,-1.001537 0.638241,0.02146 1.412735,0.114462 1.412735,0.114462 0,0 -1.835837,0.236077 -2.502763,0.76546 -0.63824,0.522228 0.609556,1.330612 0.609556,1.330612 z m 4.152147,-3.848761 h 0.516329 v 2.210533 h 1.025486 v 0.493615 h -1.541815 z m -2.094002,0 h 0.51633 v 2.210533 h 1.025485 v 0.493615 h -1.541815 z m -1.599187,0 h -0.5235 l -0.738638,1.967304 1.484446,0.0072 0.286851,0.736844 h 0.537841 z m -0.616727,1.645381 0.365733,-0.929997 0.358563,0.929997 z M 9.0131765,12.811959 H 8.7550117 v -2.718455 h 0.2581648 z m -0.9968024,0.0072 H 7.9518331 L 6.1518528,10.758811 v 2.060304 H 5.8721745 v -2.725611 h 0.05737 l 1.8143227,2.08892 v -2.08892 H 8.0163736 Z M 3.8068581,10.10781 c 0.3872468,0 0.7171236,0.128768 0.9752883,0.386307 0.2653358,0.257539 0.3944181,0.57946 0.3944181,0.958614 0,0.371999 -0.1290823,0.693921 -0.3944181,0.958612 -0.2581647,0.264692 -0.5808702,0.393462 -0.9537746,0.393462 -0.3800755,0 -0.7027813,-0.12877 -0.9681171,-0.393462 -0.2653358,-0.257538 -0.3944181,-0.572306 -0.3944181,-0.944306 0,-0.243229 0.057371,-0.472153 0.179281,-0.686768 0.121911,-0.207461 0.2796783,-0.371999 0.4876442,-0.493614 0.2079658,-0.121617 0.4302742,-0.178846 0.6740963,-0.178845 z m 0.00717,0.243229 c -0.1936235,0 -0.3729045,0.05007 -0.537843,0.150231 -0.1721095,0.100161 -0.3011919,0.228923 -0.4015892,0.400616 -0.093226,0.164538 -0.1434247,0.350537 -0.1434247,0.557998 0,0.307613 0.1075684,0.565152 0.3155344,0.772614 0.2151371,0.20746 0.4661304,0.314767 0.7673225,0.314767 0.2007946,0 0.3872468,-0.05007 0.5521853,-0.143077 0.1721097,-0.093 0.3011919,-0.228922 0.3944181,-0.39346 0.093226,-0.164538 0.1434247,-0.350535 0.1434247,-0.557997 0,-0.200308 -0.050199,-0.386308 -0.1434247,-0.550845 C 4.6674065,10.737348 4.5311531,10.60858 4.3590434,10.508427 4.1941049,10.401118 4.0076527,10.351041 3.8140302,10.351041 Z" /></svg>