<svg role="img" viewBox="0 0 24 24" xmlns="http://www.w3.org/2000/svg"><title>SonicWall icon</title><path d="M23.693 10.295h-.045v-.1h.045c.037 0 .055.019.055.051s-.018.05-.055.05zm.15-.05c0-.06-.038-.112-.127-.112h-.163v.365h.095v-.14h.035l.085.14h.11l-.104-.152a.102.102 0 0 0 .068-.101m-.15.342a.269.269 0 1 1 0-.538.269.269 0 0 1 0 .538zm0-.577a.308.308 0 1 0 0 .617.308.308 0 0 0 0-.617m-7.735.1l-.624 1.855-.014.04-.013-.04-.614-1.863h-.5l-.613 1.863-.014.04-.013-.04-.623-1.855h-.619l.986 2.739h.507l.618-1.786.014-.038.013.038.618 1.786h.507l.986-2.739h-.602M.985 11.352c-.618-.127-.736-.288-.736-.541v-.007c0-.269.255-.462.608-.462.294 0 .528.087.758.286l.022.018.006-.006v-.304a1.309 1.309 0 0 0-.779-.226c-.492 0-.864.307-.864.712v.008c0 .41.261.63.9.758.6.12.712.278.712.527v.007c0 .289-.258.49-.628.49-.362 0-.62-.107-.915-.38l-.02-.02-.006.006v.313c.285.213.577.31.929.31.524 0 .89-.303.89-.737v-.008c0-.396-.262-.618-.877-.743m10.129-1.236c-.402 0-.736.129-1.003.39a1.288 1.288 0 0 0-.4.96c0 .361.11.67.33.926.263.302.622.454 1.076.454.24 0 .456-.045.65-.136.096-.044.184-.12.265-.184v-.337a1.154 1.154 0 0 1-.898.412c-.332 0-.606-.107-.824-.319a1.063 1.063 0 0 1-.326-.793 1.072 1.072 0 0 1 .557-.968c.177-.1.369-.15.577-.15a1.128 1.128 0 0 1 .914.431v-.352c-.079-.065-.166-.144-.261-.19a1.472 1.472 0 0 0-.657-.145m6.632.717l.361.93-.074-.002a7.56 7.56 0 0 0-.653.008zm.907.964l-.648-1.688h-.526l-.643 1.723c-.633.118-1.042.394-.84.94.28.762 1.549 1.218 1.549 1.218s-1.259-.812-.607-1.338c.291-.235.807-.412 1.296-.538l.281.728h.539L18.73 12c.413-.084.725-.125.725-.125s-.367-.045-.804-.08m3.586-1.686h-.52v2.727h1.555v-.495h-1.035v-2.23m-2.104 0h-.52v2.726h1.554v-.495h-1.034V10.11m-11.42 2.74h.258v-2.743h-.257v2.743M7.7 12.215L5.872 10.11h-.06v2.747h.284v-2.08l1.813 2.08h.061V10.11H7.7v2.105m-3-.177a1.04 1.04 0 0 1-.4.4c-.17.097-.356.146-.556.146a1.05 1.05 0 0 1-.77-.318 1.055 1.055 0 0 1-.32-.778c0-.207.047-.396.144-.565a1.075 1.075 0 0 1 .402-.403c.17-.1.352-.15.544-.15.195 0 .379.05.553.15a1.072 1.072 0 0 1 .547.955c0 .207-.048.394-.144.563zm-.968-1.919c-.241 0-.466.06-.673.181a1.373 1.373 0 0 0-.673 1.188c0 .373.133.69.397.954.263.261.586.394.97.394.379 0 .7-.133.964-.396.263-.264.394-.585.394-.964 0-.382-.131-.704-.395-.965a1.342 1.342 0 0 0-.984-.392"/></svg>