<svg role="img" viewBox="0 0 24 24" xmlns="http://www.w3.org/2000/svg"><title>SoundCloud</title><path d="M24 13.7c0 1.8-1.598 3.2-3.396 3.2h-8.19c-.399 0-.698-.4-.698-.7v-9c0-.4.799-1.178 2.796-1.2 1.6-.016 1.898.2 2.797.7 1.298.7 2.297 2.1 2.496 3.7 0 0 .6-.1.8-.1.798 0 1.697.4 2.396 1 .7.6.999 1.5.999 2.4M10.717 7.8c.2 3.1.5 5.9 0 8.8 0 .1-.1.2-.2.2s-.2 0-.2-.2c-.399-3.1-.2-5.9 0-8.8 0-.1 0-.2.2-.2s.2.1.2.2M9.12 8.9c.2 2.7.4 5.1 0 7.8 0 .1 0 .2-.2.2s-.2-.1-.2-.2c-.399-2.7-.199-5.1 0-7.8 0-.1.1-.2.2-.2s.2.1.2.2m-1.698-.2c.2 2.8.4 5.3 0 8.1 0 0 0 .2-.2.2s-.2-.2-.2-.2c-.399-2.7-.199-5.3 0-8.1 0-.1.044-.2.2-.2.142 0 .196.118.2.2m-1.697.7c.399 2.4.399 4.9 0 7.3 0 0 0 .2-.2.2s-.2-.2-.2-.2c-.4-2.4-.4-4.9 0-7.3 0-.1 0-.2.2-.2s.2.1.2.2m-1.698 1.9c.5 2 .2 3.5 0 5.5 0 .1 0 .2-.2.2s-.2 0-.2-.2c-.2-2-.4-3.7 0-5.5 0 0 0-.2.2-.2s.2.2.2.2m-1.698-.4c.4 2 .2 3.5 0 5.5 0 0-.1.2-.2.2s-.3-.1-.3-.2c-.2-2-.399-3.7 0-5.5 0 0 0-.192.3-.2.148-.003.2.2.2.2m-1.698 1c.4 1.3.2 2.3 0 3.7 0 0 0 .2-.2.2s-.2-.2-.2-.2c-.2-1.3-.399-2.3 0-3.7 0 0 0-.2.2-.2s.2.2.2.2"/></svg>
