<svg viewBox="0 0 16 16" xmlns="http://www.w3.org/2000/svg" fill-rule="evenodd" clip-rule="evenodd" stroke-linejoin="round" stroke-miterlimit="1.414"><path d="M.773 8.13c-.034 0-.062.03-.067.066L.55 9.633l.156 1.405c.005.038.033.065.067.065.033 0 .06-.027.066-.065l.17-1.405-.18-1.437c0-.038-.03-.066-.06-.066m-.6.552c-.04 0-.06.025-.07.062l-.11.89.11.872c0 .037.03.063.06.063s.06-.03.07-.07l.14-.88-.14-.89c0-.04-.03-.06-.06-.06m1.22-.82c-.04 0-.08.03-.08.07l-.14 1.71.15 1.64c0 .04.03.08.08.08.04 0 .07-.04.08-.08l.17-1.65-.17-1.7c-.01-.04-.04-.08-.08-.08m.63-.06c-.05 0-.09.04-.1.09L1.8 9.63l.14 1.697c.01.052.05.092.1.092s.09-.04.1-.1l.16-1.69-.16-1.75c0-.05-.04-.09-.09-.09m.75 3.56zm0-3.33c-.003-.06-.05-.1-.106-.1-.06 0-.106.04-.11.1L2.44 9.64l.133 1.71c0 .06.05.105.106.105.05 0 .1-.046.1-.106l.15-1.71-.15-1.63zm.54-1.14c-.067 0-.12.06-.12.12l-.14 2.64.124 1.71c0 .06.054.11.12.11.063 0 .116-.06.12-.12l.14-1.71-.14-2.65c-.005-.07-.058-.12-.12-.12m.64-.61c-.07 0-.13.06-.135.13l-.12 3.25.11 1.7c0 .08.06.14.13.14s.13-.06.14-.14l.13-1.7-.13-3.24c-.01-.08-.07-.14-.14-.14m.66-.3c-.08 0-.14.06-.15.14l-.11 3.52.11 1.68c.01.08.07.15.15.15.08 0 .15-.07.15-.15l.13-1.68-.13-3.52c0-.08-.07-.15-.15-.15m.83.03c0-.09-.07-.16-.16-.16-.08 0-.16.07-.16.16l-.1 3.63.1 1.67c.01.09.08.16.17.16.09 0 .16-.07.16-.16l.11-1.67-.11-3.64zm0 5.3zm.5-5.39c-.09 0-.17.08-.17.17l-.1 3.55.1 1.65c0 .1.08.17.17.17.09 0 .17-.08.17-.18l.1-1.65-.11-3.54c0-.1-.08-.18-.18-.18m.67.11c-.11 0-.19.09-.19.19L6.33 9.6l.09 1.65c0 .1.08.185.19.185.1 0 .18-.08.19-.19l.08-1.63-.09-3.41c-.008-.11-.09-.19-.19-.19m.79-.63c-.03-.02-.07-.03-.11-.03-.04 0-.08.01-.11.03-.06.036-.1.1-.1.17v.04L7 9.63l.077 1.634v.005c.005.04.02.09.05.12.038.04.094.07.156.07.054 0 .105-.03.14-.06.038-.04.06-.09.06-.15l.01-.16.078-1.47-.09-4.06c0-.07-.04-.13-.09-.16m.09 5.87zm.58-6.25c-.03-.03-.06-.04-.1-.04-.05 0-.1.01-.14.04-.05.04-.08.1-.08.16v.02l-.09 4.41.05.81.04.79c0 .11.1.21.22.21s.22-.1.22-.22l.1-1.61-.1-4.428c0-.08-.05-.147-.11-.185m5.96 2.52c-.27 0-.53.057-.76.155-.16-1.77-1.64-3.16-3.46-3.16-.44 0-.87.09-1.26.24-.15.06-.18.12-.19.24v6.25c.01.12.1.22.22.23h5.46c1.08.01 1.96-.86 1.96-1.95s-.88-1.97-1.96-1.97" fill-rule="nonzero"/></svg>