<svg role="img" viewBox="0 0 24 24" xmlns="http://www.w3.org/2000/svg"><title>soundcore</title><path d="M.158 13.167a.046.046 0 0 1 .011-.02.036.036 0 0 1 .017-.01.034.034 0 0 1 .02 0 .038.038 0 0 1 .017.012c.084.098.296.294.666.333.268.03.57-.017.586-.219.008-.092-.029-.176-.164-.203-.11-.022-.446-.058-.675-.178-.273-.142-.447-.386-.433-.686 0-.219.164-.83 1.01-.924.62-.067.957.194 1.036.266.006.005.01.012.013.02a.052.052 0 0 1 .002.023l-.089.573a.049.049 0 0 1-.007.02.04.04 0 0 1-.015.014.034.034 0 0 1-.036-.003 1.424 1.424 0 0 0-.975-.218c-.051.007-.286.036-.29.233-.003.073.042.173.226.219.07.017.308.05.36.058.359.054.718.236.718.725 0 .543-.433.906-.942.992a1.265 1.265 0 0 1-1.203-.42.052.052 0 0 1-.009-.045l.156-.562Zm20.113-1.649.018-.126a.047.047 0 0 0-.01-.036c-.003-.004-.008-.008-.014-.01s-.01-.005-.017-.005h-.596c-.01 0-.02.004-.027.01a.045.045 0 0 0-.014.027l-.441 2.671.683.002.241-1.45c.058-.342.303-.622.678-.622a.658.658 0 0 1 .3.085c.01.006.02.007.03.004a.041.041 0 0 0 .025-.02l.302-.557a.047.047 0 0 0 .004-.033.044.044 0 0 0-.018-.027c-.226-.147-.688-.33-1.144.087Zm-1.857 1.226a.829.829 0 0 1-.177.52.553.553 0 0 1-.425.217.553.553 0 0 1-.426-.216.828.828 0 0 1-.177-.521c0-.195.064-.383.177-.52a.554.554 0 0 1 .426-.217c.16 0 .312.078.425.216a.829.829 0 0 1 .177.52Zm-.602-1.483c-.32 0-.627.157-.854.434a1.66 1.66 0 0 0-.354 1.043c0 .392.128.767.354 1.044.226.277.533.433.854.433.32 0 .627-.156.853-.433a1.66 1.66 0 0 0 .354-1.044c0-.391-.128-.767-.354-1.043-.226-.277-.533-.433-.853-.434Zm-1.377.331a1.173 1.173 0 0 0-.9-.327 1.22 1.22 0 0 0-.813.424 1.58 1.58 0 0 0-.378.93c-.014.202.008.406.066.6.057.191.149.368.27.52.119.148.265.268.43.352.16.081.337.124.515.124.297 0 .585-.117.814-.334a.048.048 0 0 0 .013-.027.05.05 0 0 0-.004-.03l-.29-.572a.04.04 0 0 0-.013-.015.035.035 0 0 0-.036-.004.039.039 0 0 0-.014.012.646.646 0 0 1-.231.183.566.566 0 0 1-.277.051.61.61 0 0 1-.412-.212.792.792 0 0 1-.19-.47.84.84 0 0 1 .036-.298.765.765 0 0 1 .135-.257.653.653 0 0 1 .213-.173.57.57 0 0 1 .506-.003c.079.038.15.094.21.165a.04.04 0 0 0 .015.011.034.034 0 0 0 .035-.004.043.043 0 0 0 .012-.015l.296-.572a.051.051 0 0 0 .006-.032.047.047 0 0 0-.014-.027ZM4.489 12.744c0 .193-.067.38-.188.52a.626.626 0 0 1-.205.16.58.58 0 0 1-.247.057.58.58 0 0 1-.247-.058.627.627 0 0 1-.205-.159.798.798 0 0 1-.188-.52c0-.193.067-.38.188-.52a.627.627 0 0 1 .205-.16.58.58 0 0 1 .247-.057c.085 0 .169.02.247.057a.627.627 0 0 1 .205.16.798.798 0 0 1 .188.52Zm-.64-1.483c-.34.001-.666.157-.907.434a1.6 1.6 0 0 0-.376 1.043c0 .392.136.767.376 1.044s.567.433.907.433c.34 0 .666-.156.907-.433.24-.277.376-.652.376-1.044a1.6 1.6 0 0 0-.376-1.043 1.205 1.205 0 0 0-.907-.434Zm4.265.165H7.56a.035.035 0 0 0-.024.01.047.047 0 0 0-.014.027l-.204 1.378c-.08.522-.421.645-.62.645-.352 0-.71-.236-.608-.919.041-.281.135-.905.163-1.09a.052.052 0 0 0-.009-.036.04.04 0 0 0-.013-.011.034.034 0 0 0-.017-.004h-.553a.035.035 0 0 0-.025.01.047.047 0 0 0-.013.026l-.166 1.104c-.158 1.035.53 1.65 1.24 1.65.572 0 1.11-.43 1.239-1.278.054-.358.182-1.237.215-1.46a.052.052 0 0 0-.009-.036.04.04 0 0 0-.012-.012.034.034 0 0 0-.016-.004Zm.077 2.625h.584c.01 0 .019-.003.026-.01a.046.046 0 0 0 .014-.027l.22-1.38c.083-.522.442-.645.652-.645.37 0 .748.236.64.919-.043.28-.143.906-.173 1.09a.05.05 0 0 0 .009.038.04.04 0 0 0 .014.011.038.038 0 0 0 .017.004h.584c.01 0 .019-.003.026-.01a.046.046 0 0 0 .014-.027l.177-1.105c.166-1.034-.558-1.648-1.308-1.648-.602 0-1.17.429-1.305 1.277l-.23 1.461c-.002.01 0 .02.004.028.004.009.01.016.018.02a.037.037 0 0 0 .017.004Zm5.323-2.926-.095.583a1.2 1.2 0 0 0-.878-.324c-.319.018-.62.165-.843.413-.226.25-.36.582-.376.932-.008.191.019.383.08.563.06.18.153.343.272.483.12.139.263.25.423.325a1.175 1.175 0 0 0 1.327-.216c.23-.215.386-.511.438-.837.247-1.569.265-1.685.326-2.063a.047.047 0 0 0-.01-.038.039.039 0 0 0-.016-.01.036.036 0 0 0-.019-.002c-.204.038-.405.091-.603.158a.04.04 0 0 0-.017.013.045.045 0 0 0-.009.02Zm-.919 2.372a.59.59 0 0 1-.245-.054.635.635 0 0 1-.207-.153.747.747 0 0 1-.187-.5c0-.186.068-.366.188-.499a.635.635 0 0 1 .207-.153.59.59 0 0 1 .696.153c.12.134.188.313.188.5a.747.747 0 0 1-.188.5.635.635 0 0 1-.206.152.59.59 0 0 1-.245.054h-.001Zm1.122-3.537a5.563 5.563 0 0 1 1.336-.175c.006 0 .012 0 .017.003a.04.04 0 0 1 .023.027.042.042 0 0 1 0 .018l-.095.542a.042.042 0 0 1-.04.033 5.493 5.493 0 0 0-1.32.195.042.042 0 0 1-.04-.008.04.04 0 0 1-.012-.038l.1-.564a.041.041 0 0 1 .03-.033Zm9.804 3.098h.447c.07-.347.024-.711-.133-1.024a1.4 1.4 0 0 0-.719-.679 1.262 1.262 0 0 0-.54-.092 1.316 1.316 0 0 0-.894.432c-.238.26-.38.606-.397.973-.009.2.02.399.084.586.064.187.163.358.29.503.127.145.28.26.448.339a1.267 1.267 0 0 0 1.152-.043c.191-.106.357-.26.482-.45a.048.048 0 0 0-.009-.062l-.408-.331a.04.04 0 0 0-.03-.009.04.04 0 0 0-.016.007.043.043 0 0 0-.012.012.782.782 0 0 1-.31.278.71.71 0 0 1-.773-.093.825.825 0 0 1-.247-.346h1.585Zm-.88-1.151c.151 0 .298.048.423.138.126.09.224.218.283.368h-1.41a.822.822 0 0 1 .283-.368.724.724 0 0 1 .422-.138Z"/></svg>