<svg xmlns="http://www.w3.org/2000/svg" data-name="Layer 1" viewBox="0 0 24 24"><path d="M24 14.2c0 1.8-1.6 3.2-3.4 3.2h-8.2c-.4 0-.7-.4-.7-.7v-9c0-.4.1-.6.5-.7 0 0 .7-.5 2.3-.5s1.9.2 2.8.7c1.3.7 2.3 2.1 2.5 3.7.2 0 .6-.1.8-.1.8 0 1.7.4 2.4 1s1 1.5 1 2.4ZM10.7 8.3c.2 3.1.5 5.9 0 8.8 0 .1 0 .2-.2.2s-.2 0-.2-.2c-.4-3.1-.2-5.9 0-8.8 0-.1 0-.2.2-.2s.2 0 .2.2ZM9.1 9.4c.2 2.7.4 5.1 0 7.8 0 .1-.1.2-.2.2s-.2 0-.2-.2c-.4-2.7-.2-5.1 0-7.8 0-.1.1-.2.2-.2s.2.1.2.2Zm-1.7-.2c.2 2.8.4 5.3 0 8.1 0 .1 0 .2-.2.2s-.2 0-.2-.2c-.4-2.7-.2-5.3 0-8.1 0-.1 0-.2.2-.2s.2 0 .2.2Zm-1.6.7c.4 2.4.4 4.9 0 7.3 0 .1-.1.2-.2.2s-.2 0-.2-.2c-.4-2.4-.4-4.9 0-7.3 0-.1.1-.2.2-.2s.2.1.2.2Zm-1.7 1.9c.5 2 .2 3.5 0 5.5 0 .1 0 .2-.2.2s-.2 0-.2-.2c-.2-2-.4-3.7 0-5.5 0-.1.1-.2.2-.2s.2 0 .2.2Zm-1.7-.4c.4 2 .2 3.5 0 5.5 0 .2-.5.2-.5 0-.2-2-.4-3.7 0-5.5 0-.1.1-.2.2-.2s.2 0 .2.2Zm-1.7 1c.4 1.3.2 2.3 0 3.7 0 .1 0 .2-.2.2s-.2 0-.2-.2c-.2-1.3-.4-2.3 0-3.7 0-.1.1-.2.2-.2s.2 0 .2.2Z"/></svg>
