<svg role="img" viewBox="0 0 24 24" xmlns="http://www.w3.org/2000/svg"><title>Sourcetree</title><path d="M21.52615,9.5261 C21.52615,4.28307 17.28005,0 12.00005,0 C6.75695,0 2.47385,4.24615 2.47385,9.5261 C2.47385,13.7354 5.24309,17.3169 9.04615,18.5723 L9.04615,23.3354 C9.04615,23.7046 9.34155,24 9.71075,24 L14.21545,24 C14.58465,24 14.88005,23.7046 14.88005,23.3354 L14.88005,18.5723 C18.75695,17.3538 21.52615,13.7723 21.52615,9.5261 Z M12.00005,12.7754 C10.22775,12.7754 8.78775,11.3354 8.78775,9.5631 C8.78775,7.7908 10.22775,6.3508 12.00005,6.3508 C13.77235,6.3508 15.21235,7.7908 15.21235,9.5631 C15.21235,11.3354 13.77235,12.7754 12.00005,12.7754 Z"/></svg>