<svg role="img" viewBox="0 0 24 24" xmlns="http://www.w3.org/2000/svg"><title>Southwest Airlines icon</title><path d="M6.903.496C2.726.496 0 3.222 0 7.859c0 5.663 5.416 11.185 12 15.645 6.584-4.424 12-9.982 12-15.645C24 3.222 21.239.496 17.097.496c-2.088 0-3.752.743-5.097 1.487C10.655 1.239 8.991.496 6.903.496zm.07.672c1.983 0 3.718.78 4.603 1.31 3.256 1.947 6.264 4.036 11.29 8.177-.849 2.69-2.83 5.274-5.202 7.504C10.549 12.567 3.504 7.505.92 5.7c.283-1.132.78-2.053 1.487-2.796 1.098-1.133 2.69-1.735 4.567-1.735zm10.16 0c1.805 0 3.398.602 4.46 1.735 1.097 1.133 1.699 2.867 1.734 4.92 0 .425-.035.885-.106 1.31-4.39-3.221-8.601-5.664-10.548-6.76 1.026-.567 2.513-1.205 4.46-1.205zM.814 6.408A695.252 695.252 0 0 1 16.531 19.22c-1.487 1.31-3.044 2.478-4.531 3.505C6.797 19.15.673 13.77.673 7.966c0-.567.035-1.098.141-1.558Z"/></svg>