<svg role="img" viewBox="0 0 24 24" xmlns="http://www.w3.org/2000/svg"><title>Sparkasse icon</title><path d="M12 0a3.048 3.048 0 0 0-1.21.25c-.376.16-.678.351-.96.627a3.298 3.298 0 0 0-.668 1.001c-.159.374-.25.745-.25 1.17 0 .423.091.835.25 1.21.162.37.39.684.667.96.283.28.585.505.96.667.374.16.787.25 1.21.25a3.09 3.09 0 0 0 1.212-.25 3.06 3.06 0 0 0 .96-.668 3.11 3.11 0 0 0 .668-.96 3.11 3.11 0 0 0 .25-1.21c0-.424-.091-.795-.25-1.169A3.3 3.3 0 0 0 14.17.877a2.95 2.95 0 0 0-.96-.627A3.038 3.038 0 0 0 12 0zM5.823 8.014c-.424 0-.794.047-1.168.21-.374.16-.723.39-1.002.666-.277.278-.467.628-.626 1.002a2.84 2.84 0 0 0-.25 1.17v6.762h14.15V19.7H2.776v1.21c0 .426.09.837.25 1.21.159.375.35.682.626.96a3.3 3.3 0 0 0 1.002.669c.374.162.744.25 1.17.25h12.354a2.85 2.85 0 0 0 1.169-.25c.376-.16.726-.393 1.002-.668.279-.28.506-.586.668-.96.162-.374.208-.785.208-1.21V14.15H7.074v-1.837h14.151V11.06c0-.424-.045-.798-.208-1.169a3.2 3.2 0 0 0-.668-1.002 3.19 3.19 0 0 0-1.002-.667c-.374-.162-.745-.209-1.17-.209z"/></svg>