<svg role="img" viewBox="0 0 24 24" xmlns="http://www.w3.org/2000/svg"><title>Speedrun.com</title><path d="M1.043 1.563v1.044H0v5.217h1.043V8.87h1.042v-.003h.002v1.044H3.13v1.043h2.087v1.045h.002v.002h1.042v1.041h1.043v1.044h1.044v.002h-.002v1.044h1.043v-.003h.002v3.131H8.348v.002h-.002v1.041H7.304v1.044H6.261v2.09c3.829-.004 7.65-.001 11.478-.001v-2.089h-1.044v-1.044h-1.043v-1.044h-1.044v-3.128h1.042v-.002h.002v-1.044h1.043v-1.043h1.044v-1.043h1.043v-1.044h2.087V9.911h1.044V8.87h1.041v-.002h.002V7.824H24V2.607h-1.044V1.563h-3.13v1.044H17.74V1.563H6.261v1.044H4.174V1.563H1.043zm1.044 3.133h2.087v1.041h1.043v3.13H4.174V7.824H3.13V6.779H2.087zm17.739 0h2.087v2.085h-1.044v1.045h-1.043v1.041h-1.044v-3.13h1.044z"/></svg>