<svg role="img" viewBox="0 0 24 24" xmlns="http://www.w3.org/2000/svg"><title>Splashtop</title><path d="M8.49 1.157c-1.567.183-2.797 1.645-2.71 3.22-.094 1.473 1.207 2.504 2.483 2.9 1.362.577 2.87.849 4.128 1.645.72.608 1.697 1.69 1.149 2.655-1.031.628-2.206-.342-3.297-.357-2.206-.225-4.615-.332-6.587.863C1.11 13.416-.62 16.519.218 19.37c.727 2.282 3.187 4.031 5.61 3.458 1.914-.389 3.534-1.713 4.478-3.4 1.07-1.664 1.996-3.831 4.126-4.327 2.01-.478 3.964.944 4.828 2.687.605.933 1.161 2.13 2.328 2.437 1.234-.013 1.768-1.605 1.21-2.576-.728-1.637-2.5-2.29-3.884-3.228-1.313-.924-1.853-2.52-2.07-4.044-.797-3.047-2.072-6.268-4.728-8.161C11.074 1.52 9.78.859 8.491 1.157m12.673 7.106c-1.583.563-1.974 2.489-1.806 3.976-.039.78.23.956.618.193.882-1.206 2.467-1.255 3.66-1.963 1.06-.977-.485-2.342-1.562-2.33a2.15 2.15 0 0 0-.91.124M161.227 493.948c-.1.5-1.3 9.7-2.9 20.6-2.9 21.1-2.9 21.2 2.1 20.5 2.2-.3 2.4-1.1 4.4-14.8 1.2-8 2.5-17.3 2.9-20.8l.7-6.2h-3.6c-2 0-3.6.3-3.6.7M.652 536.455c-.4 1.2-5.5 38.5-5.5 40 0 .5 1.6.8 3.5.8 3.9 0 3.6.6 5.5-12 1.3-8.9 3.7-12.3 8.5-11.8 2.9.3 3 .5 2.9 4.8 0 2.5-.4 7.8-.8 11.7l-.9 7.3h3.1c1.7 0 3.3-.4 3.7-.9.9-1.6 3.4-22.3 2.8-24-2.1-5.8-8.3-7.7-14.5-4.5l-3 1.6.7-4.4c.3-2.4.8-5.5 1.1-7.1.5-2.5.3-2.7-3.1-2.7-2 0-3.7.6-4 1.2m236.096 156.564c-.3.5-.8 2.9-1.1 5.5-.4 2.6-1.3 5.1-2.1 5.5-.7.5-1.7 2-2 3.5-.6 2.2-.4 2.8.9 2.8 1.9 0 1.9-.9.1 11.5-1.9 13.2-2 12.5 1.9 12.5s3.9.2 5.6-14.3c1.2-9.1 1.4-9.7 3.5-9.7 1.6 0 2.5-.8 2.9-2.6.8-2.9.2-3.9-2.2-3.9-1.3 0-1.6-.8-1.4-4 .2-2.2.5-4.8.8-5.8.4-1.4-.1-1.7-3-1.7-1.9 0-3.7.3-3.9.7M294 255.4c0 .2.7.7 1.6 1 .8.3 1.2.2.9-.4-.6-1-2.5-1.4-2.5-.6m-1 2.6c0 .5.5 1 1 1 .6 0 1-.5 1-1 0-.6-.4-1-1-1-.5 0-1 .4-1 1m2.5 2c-.4.6-1.6.8-2.8.5-2-.5-2-.5-.3.6 1.4.9 2.1.8 3.4-.5.9-.9 1.3-1.6 1-1.6-.4 0-1 .5-1.3 1m-438.674 213.401c-3.2 1.7-4.5 3.9-4.5 7.6 0 2.9.9 4.3 5.1 8.2 3.6 3.3 5 5.3 4.6 6.4-.8 2-4.3 2-8.1.1-2.7-1.5-3.1-1.4-5.3.7l-2.4 2.3 2.1 1.7c3 2.4 9.7 4.1 13.5 3.4 4.5-.9 7.9-4.8 7.9-9.3 0-3.1-.7-4.3-5.3-8.4-2.9-2.6-5-5.2-4.6-5.8.9-1.5 5.5-1.3 8.5.3 2.1 1.2 2.6 1.2 3.7-.3 2.1-2.8 1.5-4.1-2.9-6.1-4.8-2.2-9.3-2.5-12.3-.8M56.42 447.632c-4.2 1.2-7.9 4.1-9.6 7.4-1.4 2.7-5.2 25.5-5.3 31.3 0 2.1.2 2.1 3.3.8 2.8-1.1 3.3-2 4.2-6.4.6-2.7 1.3-5 1.8-5.1.4 0 2.1.7 3.8 1.6 9.5 4.9 22.2-6.4 20.4-18.3-1.3-9.1-9.6-14.1-18.6-11.3m9.1 8c3.2 3.2 2.7 9.4-.9 13.1-5.6 5.5-13.1 2.4-13.1-5.4 0-7.6 9-12.7 14-7.7m264.038-32.668c-2.2 1-5 3.1-6.2 4.6-9.5 12 .9 29.7 14.1 24.1 2.1-.8 3.7-1.1 3.7-.5 0 .5 1.7.9 3.8.9h3.9l1.2-8.5c.7-4.7 1-9.6.7-10.9-.9-3.6-5.5-8.7-9.3-10.2-4.3-1.8-7-1.7-11.9.5m12 7.3c3.6 5.1.5 14-5.2 15.3-6.1 1.3-11.3-4-9.8-10.1 1.7-6.8 11.5-10.2 15-5.2M54.184 376.606c-3.2 1.7-4.5 3.9-4.5 7.6 0 3 .9 4.3 5.5 8.6 4.4 4.1 5.3 5.4 4.3 6.4-1.6 1.6-4.7 1.5-8.2-.3-2.7-1.5-3.1-1.4-5.3.7l-2.4 2.3 2.1 1.7c5.4 4.4 15 4.6 18.7.5 4.7-5.1 3.3-11-3.8-16.1-2.2-1.5-3.8-3.3-3.6-4 .6-1.7 5.2-1.9 8.4-.2 2.7 1.3 3 1.3 4.1-.5 1.9-3 1.5-3.9-3-5.9-4.8-2.2-9.3-2.5-12.3-.8m2.642 331.165c-6.9 3.3-10.5 8.7-10.5 15.9 0 11.5 11.8 17.6 23.1 11.8 9.6-5 10.8-21 2.1-27.1-3.5-2.4-10.2-2.7-14.7-.6m10.9 7.3c3.8 3 3.7 9-.3 13-5.7 5.7-13.6 2.7-13.6-5.1 0-3.5.6-4.7 3.3-7.1 3.8-3.4 7-3.7 10.6-.8m200.427-97.09c-3.7 2-6.4 4.4-7.7 6.9-1.3 2.4-5.7 32.6-4.8 32.6.4 0 2.1-.5 3.8-1.1 2.8-1 3.1-1.6 3.8-6.5.7-5.8.9-6.1 3.8-3.9 1.1.8 4 1.5 6.5 1.5 13.8 0 21.1-18 11.1-27.5-3.7-3.6-11.8-4.5-16.5-2m11.7 7.2c2.7 2.4 2.4 9.5-.4 12.7-5.1 5.8-13.8 3.2-13.8-4 0-3.8 2.2-8.9 4.2-9.7 2.8-1.1 8.2-.6 10 1"/></svg>