<svg role="img" viewBox="0 0 24 24" xmlns="http://www.w3.org/2000/svg"><title>Splashtop</title><path d="M8.491 1.14c-1.568.182-2.8 1.645-2.713 3.221-.093 1.474 1.208 2.506 2.485 2.902 1.363.576 2.872.85 4.13 1.646.72.607 1.698 1.691 1.15 2.656-1.032.628-2.207-.342-3.298-.358-2.208-.225-4.618-.332-6.592.864-2.547 1.335-4.277 4.44-3.44 7.294.727 2.283 3.19 4.033 5.614 3.46 1.915-.39 3.536-1.714 4.48-3.402 1.071-1.666 1.997-3.834 4.13-4.33 2.01-.478 3.966.945 4.83 2.689.605.933 1.162 2.13 2.33 2.438 1.235-.013 1.77-1.606 1.21-2.577-.728-1.64-2.5-2.291-3.886-3.23-1.314-.925-1.854-2.523-2.07-4.048-.798-3.049-2.074-6.27-4.732-8.165C11.076 1.502 9.78.84 8.49 1.14m12.68 7.11c-1.582.563-1.974 2.49-1.806 3.977-.04.782.23.958.62.194.88-1.207 2.467-1.257 3.66-1.965 1.06-.977-.484-2.343-1.562-2.33a2.1 2.1 0 0 0-.911.123"/></svg>