<svg role="img" viewBox="0 0 24 24" xmlns="http://www.w3.org/2000/svg"><title>Splitgate</title><path d="M19.718 10.545a2.656 2.656 0 0 1 1.324 1.625c.24.872.093 3.61.093 3.61a1.628 1.628 0 0 1-1.632 1.632H2.868A2.868 2.868 0 0 0 0 20.279h19.533A4.472 4.472 0 0 0 24 15.812v-.728a4.287 4.287 0 0 0-1.237-2.962 7.368 7.368 0 0 0-3.045-1.577zm-6.918.2a1.4 1.4 0 0 0-1.079.514.198.198 0 0 0-.066.051c-.783.836-4.935.89-4.935.89s4.069-.054 5.017.881h.024a1.388 1.388 0 0 0 2.075 0c.948-.935 5.016-.88 5.016-.88s-4.15-.055-4.934-.89a1.388 1.388 0 0 0-1.118-.566zm-7.012 2.71a2.652 2.652 0 0 1-1.325-1.625c-.243-.872-.097-3.61-.097-3.61 0-.903.732-1.634 1.635-1.634h14.51a2.868 2.868 0 0 0 2.883-2.865H5.973a4.471 4.471 0 0 0-4.472 4.467v.729a4.283 4.283 0 0 0 1.233 2.962c.456.485 2.2 1.485 3.054 1.576z"/></svg>