<svg role="img" viewBox="0 0 24 24" xmlns="http://www.w3.org/2000/svg"><title>Sponge</title><path d="M10.968 16.896c-.156.432-.288 5.484 1.2 5.484s1.5-5.184 1.452-5.484c-.048-.288-2.496-.42-2.652 0zM9 12c-1.02-.144-1.632 4.824-.204 5.112 1.344.264 1.212-4.968.204-5.112Zm6.696 0c-1.02-.144-1.632 4.824-.204 5.112 1.344.264 1.224-4.968.204-5.112zM22.8 0H1.2C.54 0 0 .54 0 1.2v21.6c0 .66.54 1.2 1.2 1.2h1.932c-.204-5.484-.012-6.3.372-6.84.468-.672.66-.756 1.368-1.32.6-.48.384-1.26-.048-1.824-.264-.348-.636-.756-.924-1.152-.18-.264.264-1.812.432-2.376.168-.564.456-2.4 2.976-2.892.948-.192 3.552-.324 5.34-.216-.012-.072-.036-.156-.048-.24-.036-.144-.06-.3-.096-.468-.036-.156-.072-.324-.108-.492-.036-.168-.084-.336-.12-.516-.048-.18-.084-.348-.144-.528-.096-.36-.216-.708-.36-1.044-.072-.168-.144-.324-.228-.468-.084-.132-.168-.252-.24-.3-.012-.012-.024-.024-.036-.024h-.012.024s.012 0 0 0l-.036-.012h-.024l-.048-.012h-.06a3.528 3.528 0 0 0-.504 0c-.348.024-.72.096-1.08.18-.36.084-.708.192-1.044.288-.144.048-.276.096-.408.132.012.108.024.204.024.312 0 1.56-1.26 2.82-2.82 2.82-1.56 0-2.808-1.26-2.808-2.82 0-1.56 1.26-2.82 2.82-2.82 1.044 0 1.956.564 2.448 1.416.12-.048.252-.096.384-.144.336-.132.708-.264 1.092-.384.396-.12.804-.24 1.26-.3.228-.036.468-.048.732-.036h.096c.036 0 .072.012.096.012h.084l.036.012h.012l.036.012s.024 0 .036.012l.048.012c.072.024.108.036.156.06s.084.036.132.06c.084.048.156.096.228.144.132.108.24.216.324.324.096.108.168.216.24.324.144.216.252.42.348.624.192.408.348.816.468 1.2l.18.576c.06.192.096.372.144.552.024.084.048.18.06.264.024.084.036.168.06.252.036.168.072.336.108.492.048.24.084.468.12.672 2.688.264 4.74.612 5.664 1.536 1.356 1.32 2.4 7.32 1.716 14.94h1.2c.66 0 1.2-.54 1.2-1.2V1.2c0-.66-.54-1.2-1.2-1.2Z"/></svg>