<svg role="img" viewBox="0 0 24 24" xmlns="http://www.w3.org/2000/svg"><title>Spotlight icon</title><path d="M11.55 8.16c.405.382.95.586 1.507.57.537 0 1.05-.22 1.42-.615.39-.35.616-.85.63-1.377V6.44c-.058-1.163-1.05-2.057-2.212-1.998-.013 0-.026 0-.04.002-.513.02-.998.243-1.352.616-.48.443-.72 1.09-.646 1.74.03.525.27 1.016.66 1.36h.033zM6.832 7.078h.016c.063.55.084 1.167.147 1.633.616-.255.977-.762 1.04-1.546.02-.24.02-.48 0-.72-.042-.448-.126-.85-.593-.828-.15.016-.295.065-.424.146-.114.048-.21.13-.276.234-.01.078-.005.157.015.233.015.318.06.612.075.848z"/><path d="M23.578 10.26l.066.083-.634-1.23c-.19-.357-.32-.743-.382-1.143l-.213-1.36c-.18-1.188-.923-2.217-1.993-2.763L19.19 3.23c-.355-.188-.684-.426-.976-.705L17.24 1.52C16.383.67 15.172.278 13.98.468l-1.35.225c-.405.06-.81.06-1.216 0L10.06.468C8.88.303 7.692.698 6.847 1.536l-.976.976c-.28.294-.61.532-.975.7l-1.232.616c-1.08.533-1.828 1.564-1.998 2.757l-.21 1.357c-.065.4-.194.787-.383 1.146l-.646 1.23c-.556 1.063-.556 2.33 0 3.39l.634 1.23c.186.358.316.745.38 1.146l.21 1.355c.177 1.187.922 2.213 1.997 2.75l1.23.614c.36.18.677.405.977.69l.977.978c.852.85 2.058 1.24 3.245 1.05l1.352-.24c.39-.06.796-.06 1.2 0l1.354.226c1.19.19 2.4-.205 3.245-1.066l.977-.976c.27-.3.6-.54.976-.706l1.232-.615c1.07-.544 1.812-1.575 1.98-2.765l.212-1.366c.06-.406.18-.797.375-1.142l.63-1.23c.533-1.07.522-2.325-.03-3.382zM10.544 4.384h-.01c.49-.545 1.145-.917 1.864-1.06.125-.027.252-.04.38-.043.495-.035.99.046 1.442.235 1.21.458 2.037 1.59 2.103 2.885l.004.19c-.01 1.838-1.496 3.326-3.334 3.335-.18 0-.36-.015-.54-.045-.633-.11-1.222-.398-1.698-.83-.646-.565-1.036-1.368-1.08-2.226-.045-.896.268-1.774.87-2.44zm-4.163.502L6.4 4.87c.16-.12.34-.222.528-.294.384-.185.822-.223 1.232-.106.236.106.44.275.592.487.465.593.57 1.652.315 2.565-.257 1.05-.995 1.916-1.99 2.335.062.89.15 1.93.23 2.904-.233.13-.464.278-.72.428-.075.05-.15.092-.234.125-.284-2.54-.57-5.167-.855-7.645.255-.286.556-.556.886-.782zM4.805 16.28l-.075-.027c-.12.165-.257.315-.407.465-.045.046-.09.09-.15.105-.03-.046-.06-.105-.075-.165-.165-.33-.315-.66-.48-.992-.016-.06-.076-.134-.076-.15.06-.074.12-.15.196-.21.47-.497.76-1.136.826-1.816.014-.42-.046-.857-.196-1.247-.12-.375-.27-.736-.435-1.08-.256-.527-.526-.993-.526-1.713 0-1.187.586-1.973 1.412-2.397.15.445.255.914.405 1.38-.376.273-.48.805-.42 1.4.07.434.2.855.39 1.252.19.386.335.79.435 1.21.27 1.385-.028 2.82-.826 3.984zm3.4 3.82c-1.123-.55-2.162-1.21-2.97-2.1.69-1.14 1.293-2.33 1.804-3.563.57-1.326.957-2.726 1.146-4.158.435-.15.9-.256 1.336-.403.03.02 0 .084 0 .127-.075.316-.15.6-.24.932-.255 1.006-.6 2.027-.93 3.004-.467 1.306-1.008 2.567-1.548 3.77.616.51 1.276.96 1.997 1.336-.177.36-.377.705-.6 1.037l.005.017zm.416-2.018l.01.006-.01-.002v-.004c-.293-.148-.545-.316-.815-.464.802-2.228 1.628-4.452 2.244-6.83.317.17.656.32.952.51-.15.616-.34 1.21-.51 1.782-.17.57-.36 1.146-.55 1.718-.45 1.124-.767 2.248-1.322 3.284zm4.76 2.294c-.376.192-.767.327-1.172.4-1.172.172-1.728-.486-2.028-1.27-.075-.22-.15-.447-.18-.68-.105-.736-.12-1.484-.03-2.226.07-.953.29-1.89.647-2.777.075-.207.18-.407.3-.594.313-.562.73-1.06 1.23-1.465.336-.248.697-.46 1.072-.645-.004-.016-.003-.032-.006-.048l.078.016h-.02c-.02.01-.035.022-.054.032.024.134.04.27.04.402.03.316.03.72.03 1.007-.63.198-1.157.624-1.487 1.196-.37.588-.617 1.248-.72 1.937-.164.998-.33 2.506.136 3.42.135.25.39.573.706.615.233.048.467-.077.555-.298.045-.145.045-.295.045-.444V17.64c-.21 0-.69.042-.946.042.015-.34 0-.7.03-1.017.586-.085 1.157-.15 1.772-.215v3.926zm3.798-1.147l.05-.063c-.435-1.216-.87-2.403-1.11-3.754-.346.15-.66.3-.977.45.03 1.035 0 2.043-.03 3.23 0 .315-.03.6-.03.962-.18.104-.374.21-.57.3-.18.075-.375.21-.57.3 0-.916 0-1.952.06-2.898.046-.48.016-.992.06-1.503.017-.24.017-.495.017-.72 0-.826-.06-1.653-.15-2.465-.03-.51-.12-1.036-.21-1.592.36-.135.706-.3 1.08-.42.077 1.2.15 2.253.257 3.423.286-.103.557-.253.826-.374-.03-.99-.09-2.192-.09-3.32-.016-.068-.016-.14 0-.21.028-.046.07-.083.12-.105.315-.24.676-.494.976-.72-.045.788-.06 1.55-.045 2.335.03.57.046 1.145.106 1.697.104.89.28 1.768.53 2.628.19.66.382 1.315.615 1.93-.267.333-.572.635-.912.89zm2.872-9.557l.074.077c-.194.085-.36.21-.556.296-.154-.49-.383-.955-.676-1.378-.39 1.29-.33 2.778-.194 4.145.03.346.09.677.165 1.006.18.907.494 1.782.93 2.6-.284.374-.568.72-.87 1.095-.075-.088-.13-.19-.165-.3-.15-.315-.285-.63-.406-.96-.164-.438-.3-.888-.404-1.338-.253-.96-.424-1.94-.512-2.93-.06-.99-.015-1.982.15-2.973.075-.51.18-.976.316-1.472.03-.09.06-.18.074-.27-.045-.09-.09-.15-.15-.226-.27-.346-.525-.616-.826-.93-.06-.062-.12-.122-.195-.167-.06-.06-.12-.106-.18-.166.03-.088.076-.17.135-.24.15-.24.33-.466.51-.677h.017c.735.42 1.427 1.202 1.967 1.953.574.788 1.025 1.66 1.337 2.583-.18.076-.345.166-.54.27z"/></svg>