<svg role="img" viewBox="0 0 24 24" xmlns="http://www.w3.org/2000/svg"><title>Spring icon</title><path d="M21.8264 1.2604c-.3381.8061-.7662 1.5703-1.2813 2.2724A12.0474 12.0474 0 0012.0324.0121C5.4321.0121 0 5.4431 0 12.0455a12.0383 12.0383 0 003.7377 8.7188l.4441.393a12.0434 12.0434 0 007.7516 2.8306c6.2762 0 11.5523-4.912 11.9994-11.1742.328-3.0657-.5721-6.9424-2.1064-11.5523zM5.448 20.8332c-.194.24-.4901.38-.8002.38a1.0332 1.0332 0 01-1.0282-1.0302c0-.564.4651-1.0302 1.0282-1.0302a1.0322 1.0322 0 01.8002 1.6804zm16.3283-3.6028c-2.9696 3.9548-9.3119 2.6226-13.3777 2.8126 0 0-.7222.044-1.4473.162 0 0 .272-.115.6251-.25 2.8536-.9922 4.2039-1.1852 5.9382-2.0754 3.2667-1.6604 6.4953-5.294 7.1674-9.0738-1.2442 3.6367-5.013 6.7613-8.4487 8.0316-2.3534.8671-6.6043 1.7103-6.6043 1.7103l-.172-.09c-2.8946-1.4083-2.9816-7.6735 2.2784-9.696 2.3035-.8861 4.508-.4 6.9954-.9921 2.6566-.6302 5.7292-2.6226 6.9794-5.22 1.4003 4.1547 3.0857 10.66.066 14.6808z"/></svg>