<svg role="img" viewBox="0 0 24 24" xmlns="http://www.w3.org/2000/svg"><title>Spring Boot icon</title><path d="M23.692 10.706l-4.73-8.184c-0.409-0.711-1.417-1.294-2.24-1.294h-9.45c-0.819 0-1.831 0.584-2.24 1.294l-4.725 8.184c-0.409 0.711-0.409 1.873 0 2.584l4.725 8.189c0.409 0.711 1.417 1.294 2.24 1.294h9.455c0.819 0 1.826-0.584 2.24-1.294l4.725-8.189c0.409-0.711 0.409-1.873 0-2.584zM10.976 5.755c0-0.537 0.438-0.974 0.974-0.974s0.974 0.438 0.974 0.974v5.822c0 0.537-0.438 0.974-0.974 0.974s-0.974-0.438-0.974-0.974v0-5.822zM11.951 18.184c-3.643 0-6.607-2.965-6.607-6.607 0.005-2.089 0.993-4.052 2.668-5.304 0.386-0.287 0.927-0.207 1.214 0.179s0.207 0.927-0.179 1.214v0c-2.16 1.605-2.612 4.659-1.007 6.819s4.659 2.612 6.819 1.007c1.238-0.918 1.967-2.372 1.967-3.915-0.005-1.548-0.739-3.003-1.986-3.925-0.386-0.282-0.466-0.828-0.184-1.214s0.828-0.466 1.214-0.184c1.689 1.247 2.683 3.224 2.687 5.323 0 3.647-2.965 6.607-6.607 6.607z"/></svg>