<svg role="img" viewBox="0 0 24 24" xmlns="http://www.w3.org/2000/svg"><title>Springer</title><path d="M21.7539 24H5.768v-1.9647H21.754Zm0-5.0124H5.768v-.9824h1.3552c.2367-3.1837 3.2844-4.369 4.9786-6.9424h-1.964c-.9485.339-2.3713 2.4381-2.3713 3.6572h-2.472l.0339-1.0162-.8133.6772-2.1676-2.5058s-.1015-.1353-.1015-.2367c0-.1015.0339-.17.0339-.17L5.7005 6.829 6.31 5.0004l.9147-.3382.9486-1.3205-.339-2.3046c.9139-.339 1.7948-.0338 2.2352.4058a11.8072 11.8072 0 0 0-.0338-1.422c1.6257-.169 2.2006.711 2.472 1.6934a11.531 11.531 0 0 1 1.219.17.5518.5518 0 0 1 .5081-.3729c.3044 0 .5081.2367.5081.508v.1354c.7118.2367 1.389.5757 1.9985.9485a.4825.4825 0 0 1 .4059-.2037c.3051 0 .508.2367.508.508 0 .1353-.0338.2368-.1014.3052.5757.4743 1.05 1.05 1.4904 1.6596a.6269.6269 0 0 1 .2368-.0677c.3043 0 .5419.2368.5419.5081 0 .2037-.1015.3728-.2706.4405.339.6095.6096 1.2867.8125 1.9977.0338-.0338.1014-.0338.1352-.0338.3044 0 .5081.2367.5081.508 0 .2714-.169.4743-.372.5081.1353.711.2368 1.4228.3044 2.1676.3043 0 .5419.2368.5419.5081 0 .3044-.2367.5073-.5081.542 0 .711-.0338 1.4904-.1014 2.2352a.5477.5477 0 0 1 .4742.5419c0 .2713-.2367.508-.5419.508h-.0338c-.1353.7449-.2705 1.4897-.4405 2.2691h1.4229zm-2.439-.9485c1.9647-8.0948-.339-14.5292-6.6043-15.2748.0338.339.0338.6095.0338.8809 0 .4066-.0338.7448-.0338.7448l-.9816-.1699c.0339-.339.1015-2.6419-.7118-3.1491 0 0 0 1.219-.2705 2.4381l-.9139-.1683c0-.847-.3728-1.1852-.88-1.4228l.2366 1.6596-.5765.847.2714.7787-1.7948.6095-.5081 1.4566-3.15 4.3353 1.186 1.422L5.938 11.909l.3044.203v1.6595h.711c.3051-1.1853 1.2867-2.5743 2.2014-3.2515l-.508-.6095.7447-.6434.711.881s2.5404 0 2.5404-.0339c.3729-.8124.6096-1.7948.6096-2.9462h.9823c0 3.861-1.93 5.3852-4.3352 7.7557-.8809.8801-1.6595 1.8286-1.761 3.1154zM5.1932 10.5547c.0338.4404-.0338 1.1176-.2714 1.4566l-.711-.2714c.2368-.3381.3729-.8124.3729-1.219zm3.894-3.7595-1.5235.8124-.1022-1.2529 1.5918-.1699Z"/></svg>