<svg role="img" viewBox="0 0 24 24" xmlns="http://www.w3.org/2000/svg"><title>Spring Boot icon</title><path d="m23.768 10.706-4.73-8.185c-.41-.71-1.417-1.294-2.24-1.294h-9.45c-.82 0-1.831.584-2.24 1.294L.381 10.706c-.41.71-.41 1.873 0 2.583l4.725 8.19c.41.71 1.417 1.294 2.24 1.294h9.456c.818 0 1.826-.584 2.24-1.295l4.725-8.189c.41-.71.41-1.873 0-2.583zM11.05 5.755c0-.537.438-.975.975-.975.536 0 .974.438.974.975v5.821a.976.976 0 0 1-.974.974.976.976 0 0 1-.975-.974zm.975 12.429a6.616 6.616 0 0 1-6.608-6.608 6.638 6.638 0 0 1 2.668-5.304.866.866 0 0 1 1.215.179.866.866 0 0 1-.18 1.214 4.876 4.876 0 0 0 5.813 7.827 4.875 4.875 0 0 0-.019-7.84.87.87 0 0 1-.183-1.215.87.87 0 0 1 1.214-.184 6.631 6.631 0 0 1 2.687 5.323 6.613 6.613 0 0 1-6.607 6.608z"/></svg>