<svg role="img" viewBox="0 0 24 24" xmlns="http://www.w3.org/2000/svg"><title>Spring Boot icon</title><path d="M758.153 342.583L606.803 80.696c-13.101-22.741-45.33-41.413-71.684-41.413H232.722c-26.203 0-58.584 18.672-71.684 41.413L9.84 342.583c-13.101 22.741-13.101 59.938 0 82.677l151.198 262.039c13.101 22.741 45.33 41.413 71.684 41.413h302.549c26.203 0 58.432-18.672 71.684-41.413L758.153 425.26c13.101-22.741 13.101-59.939 0-82.677zM351.241 184.154c0-17.169 14.005-31.174 31.174-31.174s31.174 14.005 31.174 31.174v186.288c0 17.169-14.005 31.174-31.174 31.174s-31.174-14.005-31.174-31.174V184.154zm31.174 397.725c-116.563 0-211.437-94.876-211.437-211.437.152-66.864 31.777-129.664 85.389-169.724 12.35-9.186 29.668-6.626 38.855 5.723s6.626 29.668-5.723 38.854c-69.122 51.352-83.582 149.09-32.229 218.215s149.09 83.581 218.215 32.229c39.607-29.367 62.947-75.901 62.947-125.296a156.711 156.711 0 00-63.551-125.597c-12.35-9.037-14.908-26.506-5.873-38.855s26.506-14.908 38.855-5.873c54.063 39.907 85.84 103.159 85.99 170.324 0 116.711-94.877 211.437-211.437 211.437z"/></svg>