<svg version="1.1" id="Layer_1" xmlns="http://www.w3.org/2000/svg" x="0" y="0" viewBox="0 0 24 24" xml:space="preserve"><style>.st0{fill:#fff}</style><title>Sprite</title><path id="XMLID_74_" d="M5.126 19.99c-.129-.505-.239-1.002-.384-1.488-.303-1.018-.728-1.978-1.43-2.792-.601-.699-1.337-1.182-2.258-1.34-.258-.044-.523-.046-.786-.068.176-.075.358-.15.537-.231 1.13-.515 2.08-1.246 2.746-2.312a5.88 5.88 0 0 0 .838-2.396c.162-1.262.038-2.499-.326-3.714-.01-.033-.014-.066-.026-.123.18.15.342.29.509.423 1.114.892 2.331 1.593 3.713 1.985.896.255 1.81.36 2.74.306 1.364-.08 2.648-.465 3.864-1.078 1.86-.937 3.432-2.242 4.795-3.807l.125-.142c-.085.367-.17.706-.242 1.048-.14.661-.23 1.328-.196 2.006.018.376.079.744.261 1.082.123.227.3.397.538.501.572.25 1.174.303 1.789.263a8.388 8.388 0 0 0 1.849-.342c.008-.002.018.004.024.006-.294.227-.598.446-.884.686-.843.71-1.52 1.546-1.897 2.595-.458 1.27-.368 2.531.107 3.775.135.352.312.689.48 1.055-.061-.03-.115-.054-.168-.081a14.971 14.971 0 0 0-3.406-1.288 11.282 11.282 0 0 0-3.299-.308c-2.25.132-4.265.923-6.089 2.227a14.722 14.722 0 0 0-3.467 3.476l-.057.076zM18.883 5.107c-.022.006-.034.006-.04.011a1.082 1.082 0 0 0-.064.064 12.108 12.108 0 0 1-2.562 2.037c-1.46.876-3.028 1.406-4.735 1.485a8.96 8.96 0 0 1-2.856-.341C7.268 7.98 6.044 7.33 4.904 6.51c-.057-.04-.117-.078-.205-.136l.027.111c.222.912.281 1.832.156 2.764-.152 1.121-.575 2.124-1.315 2.985-.743.866-1.683 1.448-2.728 1.876-.052.021-.102.047-.185.085 2.554.163 4.268 1.317 4.84 3.894 2.052-2.08 4.465-3.472 7.332-4.015 2.878-.545 5.622-.035 8.3 1.171-.106-.229-.2-.414-.28-.605-.453-1.094-.611-2.217-.316-3.38.258-1.018.835-1.837 1.604-2.532.038-.034.095-.047.144-.07l-.054-.057c-.015-.002-.03-.007-.043-.005a4.505 4.505 0 0 1-1.535-.008c-.538-.1-1.027-.304-1.386-.737-.462-.557-.54-1.218-.485-1.907.022-.277.07-.552.108-.838z"/><path id="XMLID_63_" d="M8.555 9.287l-.408 1.015c-.101-.112-.185-.224-.287-.317a.927.927 0 0 0-1.085-.138c-.342.184-.423.475-.208.798.096.144.216.274.33.407.355.418.585.887.529 1.45a1.63 1.63 0 0 1-.16.6c-.423.785-1.065 1.322-1.939 1.527-.567.133-1.14.045-1.704-.088-.008-.002-.015-.012-.035-.03l.54-1.306c.025.012.041.014.05.024.342.41.798.439 1.272.355.344-.06.568-.281.668-.616.1-.33.03-.622-.232-.857-.082-.074-.162-.15-.25-.216-.516-.383-.574-.905-.413-1.46.126-.435.404-.756.786-.984.796-.473 1.632-.502 2.493-.203.014.005.024.017.053.039z"/><path id="XMLID_62_" d="M8.354 14.027a6.115 6.115 0 0 0 1.236-1.494c.182-.308.322-.632.334-.997.002-.065.012-.13.004-.195-.013-.107-.015-.249-.15-.26a.488.488 0 0 0-.324.088.915.915 0 0 0-.236.341 66.402 66.402 0 0 0-.674 1.648c-.234.594-.458 1.191-.683 1.789-.032.085-.073.126-.167.138-.325.04-.65.088-1.001.137.017-.061.026-.106.043-.149.54-1.406 1.084-2.81 1.623-4.217.037-.099.082-.148.197-.159.462-.042.922-.1 1.383-.147.768-.077 1.065.384.984 1.038-.15 1.2-.908 1.908-2 2.31-.107.039-.22.063-.332.09-.067.015-.136.022-.237.04z"/><path id="XMLID_61_" d="M18.427 11.215c.03-.024.057-.052.09-.071.416-.248.668-.636.89-1.047a.638.638 0 0 0 .072-.256c.01-.148-.092-.21-.225-.14a.665.665 0 0 0-.2.155c-.387.47-.684.993-.857 1.58-.058.198-.056.403.11.557.173.161.38.18.6.107.324-.106.574-.318.807-.553.042-.042.072-.094.107-.141.106.08.094.141.045.213-.418.601-.955 1.028-1.695 1.156a1.178 1.178 0 0 1-.702-.089c-.363-.164-.511-.511-.47-.921.118-1.18 1.25-2.333 2.428-2.487a.926.926 0 0 1 .63.143.425.425 0 0 1 .2.463c-.09.542-.417.898-.9 1.112-.25.11-.519.175-.78.256-.043.013-.093.002-.14.002a20.207 20.207 0 0 1-.01-.04z"/><path id="XMLID_60_" d="M14.729 13.138l1.049-2.623h-.485c.058-.158.129-.29.155-.432.053-.293.216-.423.508-.39.114.013.17-.043.186-.144.06-.393.297-.604.67-.717.264-.08.511-.216.798-.34l-.399 1.016.561-.055c-.097.258-.188.503-.283.746-.008.02-.045.034-.07.041a.325.325 0 0 1-.118.02c-.334-.033-.448.167-.548.448-.259.722-.554 1.432-.828 2.148-.04.101-.088.145-.2.156-.32.032-.64.08-.996.126z"/><path id="XMLID_59_" d="M12.55 10.16l-.132.442.025.034c.345-.44.765-.728 1.354-.704-.006.037-.006.07-.018.1-.103.264-.21.528-.31.793-.03.077-.066.105-.152.104-.504-.004-.825.219-1.008.688-.234.6-.471 1.197-.7 1.798-.04.105-.087.16-.206.171-.321.03-.641.075-.996.118.025-.073.039-.117.056-.16.415-1.059.83-2.116 1.243-3.176.038-.097.088-.138.195-.143.208-.01.414-.04.65-.064z"/><path id="XMLID_58_" d="M12.796 13.367l.452-1.167c.277-.71.557-1.42.829-2.133.045-.118.103-.166.235-.177.321-.024.64-.073.984-.115-.018.061-.027.103-.042.142-.415 1.069-.832 2.137-1.243 3.207-.04.104-.092.144-.204.152-.309.021-.616.06-.923.091-.024.002-.048 0-.088 0z"/><path id="XMLID_57_" d="M15.752 8.624c-.006.438-.517.95-.95.95-.255 0-.409-.204-.356-.473.077-.395.485-.788.878-.848.253-.039.43.116.428.371z"/><g id="XMLID_1_"><path id="XMLID_47_" d="M19.389 13.182l-.021-.002h-.003l-.016-.004a.167.167 0 0 1-.095-.068.165.165 0 0 1-.029-.087v-.014l.002-.02v-.004l.004-.015a.167.167 0 0 1 .068-.095.164.164 0 0 1 .083-.03h.017l.022.002h.003l.015.004a.167.167 0 0 1 .095.068.165.165 0 0 1 .03.087v.014l-.002.02-.001.004-.003.015a.167.167 0 0 1-.071.097.164.164 0 0 1-.085.028h-.013zm.018-.31a.141.141 0 0 0-.153.124.142.142 0 0 0 .127.157.142.142 0 0 0 .153-.125.141.141 0 0 0-.127-.156z"/><path id="XMLID_46_" class="st0" d="M19.389 13.182h.013a.165.165 0 0 0 .085-.028.167.167 0 0 0 .07-.097l.004-.015v-.003l-.014.158-.158-.015z"/><path id="XMLID_45_" class="st0" d="M19.564 13.018v-.014a.165.165 0 0 0-.03-.087.167.167 0 0 0-.095-.068l-.015-.003-.003-.001.157.015-.014.158z"/><path id="XMLID_44_" class="st0" d="M19.224 13.007l.001.014a.165.165 0 0 0 .03.087.167.167 0 0 0 .094.068l.016.003.003.001-.158-.015.014-.158z"/><path id="XMLID_43_" class="st0" d="M19.4 12.843h-.018a.164.164 0 0 0-.083.03.167.167 0 0 0-.068.095l-.004.015v.003l.014-.158.158.015z"/><path id="XMLID_40_" class="st0" d="M19.407 12.872a.141.141 0 0 1 .127.156.142.142 0 0 1-.153.125.142.142 0 0 1-.127-.157.141.141 0 0 1 .153-.124zm.001.154h.008a.05.05 0 0 0 .047-.054.046.046 0 0 0-.024-.038.082.082 0 0 0-.031-.008l-.076-.008h-.003l-.017.18.029.003.007-.076.025.002a.032.032 0 0 1 .022.015l.01.015.022.05c.001.002.002.003.004.003l.03.002h.002l-.031-.06a.058.058 0 0 0-.023-.025l-.001-.001z"/><path id="XMLID_37_" d="M19.408 13.026l.001.001a.058.058 0 0 1 .023.025l.031.06h-.002l-.03-.002a1.847 1.847 0 0 0-.036-.067.032.032 0 0 0-.022-.016l-.025-.002-.007.076-.029-.003.017-.18h.003l.076.007a.082.082 0 0 1 .031.009.046.046 0 0 1 .024.038.05.05 0 0 1-.047.053 1.394 1.394 0 0 0-.008.001zM19.351 13h.005l.038.003h.017c.016-.003.023-.016.021-.03a.024.024 0 0 0-.017-.02.093.093 0 0 0-.019-.004l-.038-.004h-.002L19.35 13z"/><path id="XMLID_36_" class="st0" d="M19.35 13l.006-.055h.002l.038.004a.093.093 0 0 1 .02.004.024.024 0 0 1 .016.02c.002.014-.006.027-.021.03a.076.076 0 0 1-.017 0L19.356 13h-.005z"/></g></svg>