<svg role="img" viewBox="0 0 24 24" xmlns="http://www.w3.org/2000/svg"><title>Spyder IDE</title><path d="M4.055 0a4.052 4.134 0 0 0-1.89.476 4.104 4.187 0 0 0-1.64 1.619c-.075.14-.138.271-.2.41-.036.094-.076.188-.107.278a3.557 3.629 0 0 0-.147.58 3.849 3.926 0 0 0-.07.774v15.73a3.995 4.076 0 0 0 .4 1.792A4.054 4.136 0 0 0 4.055 24h8.233a.219.223 0 0 0 .22-.223v-1.004a.219.223 0 0 0-.22-.223H11.22l-3.189-6.59 7.276-9.837a.82.837 0 0 0 .137-.289l6.667 1.041v1.536a.219.223 0 0 0 .218.222h.99a.22.225 0 0 0 .218-.222V4.137a4.035 4.116 0 0 0-1.506-3.21A4.035 4.116 0 0 0 19.48 0Zm0 1.449h2.97L7.237 3.2 3.3 2.586l-1.242-.195a2.615 2.667 0 0 1 1.997-.942m9.585 0 .345 2.803-5.39-.838L8.35 1.46zm1.318 0h4.303a2.855 2.913 0 0 1 2.848 2.905v1.165L15.327 4.46zM2.132 3.757l4.923.771-2.748 3.727zm6.393 1 5.508.86-6.65 9-2.429-5.024 3.57-4.828zm-7.1.566 1.761 3.64-1.762.221zm17.963 4.701c-2.624 0-4.98.376-4.98 3.13v.524c0 1.377.466 2.828 2.356 3.58l3.483 1.359c1.129.473 1.423.949 1.423 1.674v.3c0 1.077-.614 1.303-2.576 1.303h-4.538a.324.33 0 0 0-.368.375v1.102c0 .2.073.35.368.374.417.05 2.354.226 4.488.226 3.314 0 4.956-.548 4.956-3.35v-.28c0-1.376-.196-2.653-2.453-3.528l-3.263-1.327c-1.201-.45-1.52-1.054-1.52-1.752v-.325c0-.902.662-1.3 1.79-1.3h4.563a.326.332 0 0 0 .369-.376v-1.076a.363.37 0 0 0-.344-.401 30.92 31.544 0 0 0-3.754-.232m-15.59.207 2.463 5.08-4.837.62v-5.394zm3.07 6.352 2.887 5.967H4.274a2.857 2.914 0 0 1-2.85-2.906V17.28z"/></svg>