<svg xmlns="http://www.w3.org/2000/svg" role="img" viewBox="0 0 24 24" >
<title>SQL Language icon</title>
<path d="M12.4,2.4c0-1.1-2.7-2-6-2s-6,0.9-6,2s2.7,2,6,2S12.4,3.5,12.4,2.4z M21.2,18.8h-1.4l0.1-0.1c0.8-0.8,0.9-2,0.3-3
	c-0.6-0.9-1.8-1.3-2.9-0.9c-1-1.7-3.2-2.4-5-1.6c-0.7,0.3-1.4,0.9-1.8,1.6c-1.1-0.4-2.2,0-2.9,0.9c-0.6,0.9-0.5,2.2,0.3,3l0.1,0.1
	H6.8c-1.3,0-2.4,1.1-2.4,2.4c0,1.3,1.1,2.4,2.4,2.4h14.4c1.3,0,2.4-1.1,2.4-2.4C23.6,19.9,22.5,18.8,21.2,18.8z M12,18v-0.4H9.2v2
	H12v2H9.2H12v-2H9.2v-2H12V18z M15.6,21.6h-2.4v-4H16v4H15.6l0.8,0.8L15.6,21.6z M20,21.6h-2.8v-4v4H20z M16,17.6h-2.8v4h2.4
	l-0.8-0.8l0.8,0.8H16V17.6z M17.6,17.2h-0.4c-0.2,0-0.4,0.2-0.4,0.4v4c0,0.2,0.2,0.4,0.4,0.4H20c0.2,0,0.4-0.2,0.4-0.4v-0.4h-2.8
	V17.2z M16.4,21.6v-4c0-0.2-0.2-0.4-0.4-0.4h-2.8c-0.2,0-0.4,0.2-0.4,0.4v4c0,0.2,0.2,0.4,0.4,0.4h2.2l0.7,0.7l0.6-0.6l-0.3-0.3
	C16.4,21.7,16.4,21.7,16.4,21.6z M13.6,21.2V18h2v3l-0.5-0.5l-0.6,0.6l0.1,0.1H13.6z M12,17.2H9.2c-0.2,0-0.4,0.2-0.4,0.4V20h2.8
	v1.2H8.8v0.4C8.8,21.8,9,22,9.2,22H12c0.2,0,0.4-0.2,0.4-0.4v-2.4H9.6V18h2.8v-0.4C12.4,17.4,12.2,17.2,12,17.2z M21.2,18.4h-0.6
	c0.6-1,0.5-2.2-0.1-3.1c-0.7-0.9-1.8-1.3-2.9-1.1c-0.8-1.2-2.2-1.8-3.6-1.8c-0.4,0-0.8,0.1-1.2,0.2V2.4C12.8,0.8,9.6,0,6.4,0
	S0,0.8,0,2.4v12c0,1.6,3.2,2.4,6.4,2.4c0.2,0,0.4,0,0.6,0c0,0.6,0.1,1.1,0.4,1.6H6.8c-1.5,0-2.8,1.3-2.8,2.8C4,22.7,5.3,24,6.8,24
	h14.4c1.5,0,2.8-1.3,2.8-2.8C24,19.7,22.7,18.4,21.2,18.4z M6.4,0.8c3.4,0,5.6,0.9,5.6,1.6S9.8,4,6.4,4S0.8,3.1,0.8,2.4
	S3,0.8,6.4,0.8z M0.8,3.6C2,4.4,4.2,4.8,6.4,4.8s4.4-0.4,5.6-1.2v2.8C12,7.1,9.8,8,6.4,8S0.8,7.1,0.8,6.4V3.6z M0.8,7.6
	C2,8.4,4.2,8.8,6.4,8.8s4.4-0.4,5.6-1.2v2.8c0,0.7-2.2,1.6-5.6,1.6s-5.6-0.9-5.6-1.6V7.6z M7.1,16c-0.3,0-0.5,0-0.7,0
	c-3.4,0-5.6-0.9-5.6-1.6v-2.8c1.2,0.8,3.4,1.2,5.6,1.2s4.4-0.4,5.6-1.2v1.3c-0.6,0.3-1.2,0.8-1.6,1.4C9,13.9,7.6,14.6,7.1,16z
	 M21.2,23.2H6.8c-1.1,0-2-0.9-2-2s0.9-2,2-2h1.4c0.2,0,0.3-0.1,0.4-0.2c0.1-0.1,0-0.3-0.1-0.4l-0.1-0.1c-0.7-0.7-0.8-1.7-0.3-2.5
	c0.5-0.8,1.5-1.1,2.4-0.8c0.2,0.1,0.4,0,0.5-0.2c0.7-1.1,1.8-1.7,3.1-1.7s2.4,0.7,3.1,1.7c0.1,0.2,0.3,0.2,0.5,0.2
	c0.9-0.3,1.9,0,2.4,0.8c0.5,0.8,0.4,1.8-0.3,2.5l-0.1,0.1c-0.1,0.1-0.1,0.3-0.1,0.4c0.1,0.2,0.2,0.2,0.4,0.2h1.4c1.1,0,2,0.9,2,2
	S22.3,23.2,21.2,23.2z"/>
</svg>
