<svg role="img" viewBox="0 0 24 24" xmlns="http://www.w3.org/2000/svg"><title>SQLAlchemy</title><path d="M17.704 10.931a.336.336 0 0 0-.177.06c-.5.302-.786.544-.786 1.088-.004.35.218.727.46.835.247.107.418.06.521.016.095-.04.509-.386.576-.465a1.258 1.258 0 0 1-.111-.143c-.242.242-.52.262-.672.111a.604.604 0 0 1-.202-.429c.016-.024.854-.37.973-.441.028-.012.028-.167.012-.199a2.814 2.814 0 0 0-.405-.37.336.336 0 0 0-.189-.063zm-.208.386a.17.17 0 0 1 .095.028c.044.027.131.079.234.214-.087.056-.27.175-.56.27.044-.334.092-.42.167-.484a.108.108 0 0 1 .064-.028zm3.599-.346a.53.53 0 0 0-.239.095c-.182.108-.373.31-.484.453-.004-.091-.092-.282-.239-.429-.139-.143-.254-.127-.373-.063-.17.091-.405.286-.548.496.004-.19-.004-.457-.016-.476-.032-.048-.092-.06-.12-.052-.119.044-.337.15-.492.266.048.064.159.302.159.421 0 .123-.016.548-.016.846 0 .147-.135.227-.238.267.007.055.012.075.004.139.174-.012.754-.008.93.007a.401.401 0 0 1 .079-.143c-.12-.043-.27-.154-.27-.31 0-.154.02-.38.027-.567.008-.183.147-.35.29-.437.064-.036.127-.068.21.015.084.092.144.191.144.326v.703c0 .187-.163.207-.27.255.016.06.027.087.027.15.207-.011.76-.007.926.005.036-.064.06-.092.095-.155-.095-.028-.266-.072-.266-.195 0-.12.012-.48.012-.671 0-.143.155-.326.298-.441.088-.068.143-.052.187-.024.047.036.179.135.179.302 0 .119-.008.552-.008.77 0 .175-.107.207-.247.263.008.071.004.091 0 .139.279-.016.946.004.946.004s.028-.08.063-.147c-.178-.076-.23-.124-.23-.25v-.998c0-.234-.246-.42-.298-.469-.083-.07-.152-.098-.222-.095zm-5.709-1.223-.913.464s.107.084.107.294c-.004.123 0 1.74 0 1.979 0 .234-.147.262-.246.302.023.091.027.099.04.158.258-.004.726-.02.937-.007.016-.04.043-.108.075-.163-.13-.044-.266-.131-.266-.247V12c0-.199.227-.485.322-.552.095-.064.147-.032.218.02a.438.438 0 0 1 .143.306c0 .123-.016.556-.016.699 0 .143-.02.274-.262.322.016.067.032.099.048.143.278-.004.739-.008.902 0 .04-.072.067-.1.11-.151-.222-.06-.265-.108-.265-.267 0-.158.016-.476.036-.834.015-.37-.275-.592-.382-.651-.127-.072-.286-.028-.381.012-.163.067-.453.413-.453.413l.012-1.18c0-.076.008-.151.063-.219.056-.067.25-.214.25-.214zm-1.702 1.22a.52.52 0 0 0-.193.043c-.218.091-.591.425-.687.6-.119.214-.083.703-.047.814.047.131.13.33.42.5.128.072.318.072.513.017.159-.044.473-.314.584-.497a.407.407 0 0 0-.111-.095 1.412 1.412 0 0 1-.254.159c-.084.047-.255.035-.334.004a.56.56 0 0 1-.31-.426c-.028-.226-.056-.42-.004-.572.032-.095.12-.202.175-.186.159.04.294.206.365.42.096-.027.366-.103.465-.146 0-.084.02-.179 0-.254a2.337 2.337 0 0 0-.457-.358.302.302 0 0 0-.125-.024zm-1.198-1.2c-.6.202-.476.333-.925.424.115.084.135.27.135.414 0 .143.004 1.56 0 1.903 0 .23-.175.23-.286.293a.323.323 0 0 1 .103.151c.155-.035.7-.06.942-.004.007-.071.031-.139.035-.214-.083-.008-.234-.06-.234-.262v-2.09c0-.37.107-.405.306-.516-.052-.064-.04-.04-.076-.1zm-2.768.532c-.068.159-.942 2.058-1.041 2.248-.088.16-.199.179-.278.175.012.072.02.147.02.23.147-.015.814-.02.93-.007a1.15 1.15 0 0 1 .039-.227c-.088 0-.131.012-.238-.008-.112-.02-.187-.087-.104-.25.028-.056.096-.203.183-.381l1.017-.008c.107.214.19.377.207.409.083.15.02.206-.092.23a.975.975 0 0 1-.242.008.895.895 0 0 1 0 .23c.453-.003.854-.015 1.263.008a1.016 1.016 0 0 1 .02-.238c-.254-.032-.29-.19-.385-.373-.112-.203-.934-1.9-1.001-2.046a1.059 1.059 0 0 1-.298 0zm0 .727c.075.147.242.484.405.798l-.779.008c.147-.31.306-.647.374-.806Zm13.097-.131c-.286.051-.886.373-.886.456 0 .116.782 1.522.782 1.522s-.695.616-.742.7c-.052.079-.16.551-.16.551s.132.084.144.044c.016-.044.107-.23.21-.29.1-.056.572-.135.878-.15.143-.009.54.023.584.09.044.064-.206.354-.206.354l.115.08s.286-.338.409-.608c.12-.274-.19-.346-.37-.358-.178-.016-.727-.012-1.08.1.377-.338 1.112-.894 1.406-1.367.183-.29.08-.525-.016-.68-.06-.103-.306-.33-.48-.38-.068.043-.386.265-.386.337 0 .087.366.302.437.401.072.1.052.314-.012.43-.063.114-.115.21-.298.357-.222-.394-.544-1.017-.56-1.08a.286.286 0 0 1 .02-.204c.024-.031.163-.13.246-.198-.007-.052-.007-.048-.035-.107zm-16.903-.592s-.028.119-.064.23c.155 0 .422.016.422.238l.004 1.645c0 .123-.084.286-.155.302-.1.024-.219.008-.219.008l.004.222s2.022-.11 2.229.008c0-.182.055-.44.115-.897a.228.228 0 0 1-.12-.088c-.067.167-.134.393-.218.469-.135.123-.401.179-.524.183-.096.004-.52.035-.52-.35l.003-1.438c0-.183.227-.298.406-.302-.004-.095.015-.226.015-.226zm-1.788 2.763a.376.376 0 0 0-.194.057c-.199.12-.445.5-.445.5l.091.124s.163-.215.27-.274c.155-.084.394-.04.513.028.119.063.564.314 1.18.588.734.321 1.068.016 1.132-.767-.056.004-.088 0-.155.004-.084.492-.314.6-.556.496-.266-.11-1.256-.591-1.434-.659-.16-.057-.287-.1-.402-.097zm.364-2.877c-.036.001-.07.002-.105.006-.568.072-1.351.592-1.506.994-.159.405-.1.627.107.993.21.365.839.715 1.049.735.21.016.612-.056.922-.258.48-.314.679-.966.651-1.522-.026-.581-.587-.955-1.118-.948Zm-.292.499c.242.004.604.08.775.421.186.374.067.672.023.85-.083.326-.226.382-.381.453-.15.076-.453 0-.695-.19-.135-.108-.552-.358-.528-.946.011-.37.361-.596.806-.588zm-1.823-.544c-.06.147-.088.274-.171.333-.115.076-.382-.143-.568-.19-.274-.072-.604.047-.755.123-.242.123-.667.433-.795.644-.115.19-.103.444-.02.655.08.207.191.266.35.381a.392.392 0 0 0 .115.058l.004-.01.016.016a.558.558 0 0 0 .342-.016c.147-.067.35-.338.5-.425.274-.151.414.032.489.159.075.127.111.385.032.496-.143.2-.382.16-.52.147-.358-.027-.573-.119-.843-.361a.466.466 0 0 1-.02-.006c-.109.248-.19.387-.4.665.098-.031.158-.043.253-.012.21.076.95.235 1.359.128.298-.08.528-.418.632-.608.103-.19.103-.402.043-.64-.06-.242-.389-.496-.663-.496-.235 0-.465.357-.715.552-.072.051-.175.063-.235-.02-.075-.084-.337-.465-.222-.68.139-.266.604-.33.73-.301.108.02.41.06.676.325a.12.12 0 0 0 .203-.051c.036-.107.214-.52.326-.72-.088-.055-.104-.114-.143-.146Z"/></svg>