<svg role="img" viewBox="0 0 24 24" xmlns="http://www.w3.org/2000/svg"><title>SQLite icon</title><path d="M20.438.0007c-.726-.0202-1.5029.3805-2.2732 1.0641H3.1055c-1.0092 0-1.835.8258-1.835 1.8351v16.6078c0 1.0092.8258 1.835 1.835 1.835h9.9186c.0947 1.146.273 2.1304.5004 2.6573l.1544-.084c-.334-1.038-.4696-2.3986-.4102-3.9674.0899-2.398.6417-5.2899 1.6613-8.304 1.7227-4.5501 4.1128-8.2009 6.3003-9.9443-1.9938 1.8006-4.6922 7.6288-5.5 9.7871-.9044 2.417-1.5454 4.685-1.9317 6.858.6665-2.0371 2.8216-2.9127 2.8216-2.9127s1.0569-1.3035 2.292-3.1658c-.7399.1688-1.955.4578-2.3619.6288-.6002.2518-.7617.3375-.7617.3375s1.9443-1.1839 3.6124-1.72c2.2942-3.6133 4.7935-8.7464 2.2765-10.9918-.3867-.3449-.804-.5086-1.2395-.5207zM3.1055 1.6002h14.5123c-.6153.6527-1.2163 1.4704-1.776 2.376-.007.0113-.014.0223-.0208.0336-.1094.1777-.217.3587-.3229.5428l-.015.0263a23.1004 23.1004 0 0 0-.4818.883 24.7914 24.7914 0 0 0-.7987 1.7042 23.5264 23.5264 0 0 0-.6576 1.7378c-.0722.217-.14.432-.2034.6457-.002.0065-.0041.013-.006.0196a18.7384 18.7384 0 0 0-.1433.5083l-.0009.0027c-.0963.363-.1808.72-.2469 1.0636.0707.1434.135.2996.1962.4592a6.562 6.562 0 0 0 .0036.01c.007.0184.0134.0371.0202.0557a8.894 8.894 0 0 1 .129.3699c0 .0004.0003.0007.0005.0011.075.2335.1414.4637.194.6656.0312.1202.0595.2328.082.3287.0535.227.0823.3744.0823.3744s-.0189-.0716-.0965-.2965a18.5692 18.5692 0 0 0-.0507-.1458 1.6755 1.6755 0 0 0-.0324-.0804c-.1375-.3197-.5182-.9945-.6856-1.2883a32.1844 32.1844 0 0 0-.3758 1.1753c.4834.8843.7782 2.3998.7782 2.3998s-.0257-.098-.1472-.4409c-.1078-.3032-.6448-1.2443-.772-1.4643-.2176.8034-.3041 1.3458-.2261 1.4779.1514.2559.2954.6975.422 1.1858.286 1.1.485 2.4391.485 2.4391s.0064.0888.0172.2253c-.0318.7378-.0214 1.4953.0199 2.2122H3.1055c-.7166 0-1.2999-.5831-1.2999-1.3V2.9c0-.7168.5833-1.2997 1.3-1.2997zm10.0699 10.0984Z"/></svg>