<svg role="img" viewBox="0 0 24 24" xmlns="http://www.w3.org/2000/svg"><title>SRG SSR</title><path d="M0 516.979h768V251.021H0v265.958z M49.485 426.282l-2.299 14.86c-.383 2.911.995 4.061 3.523 4.445 5.593.767 19.688 1.762 33.474 1.762 30.716 0 53.162-10.033 53.162-38.684 0-16.851-7.355-29.414-32.861-36.002l-14.323-3.678c-9.649-2.528-14.094-5.594-14.094-12.791 0-10.033 9.267-12.026 18.155-12.026 11.949 0 24.207.995 29.031 1.379 5.056.383 6.358-.229 7.123-4.445l2.3-14.477c.383-2.911-.995-4.061-3.524-4.444-5.594-.767-18.001-1.762-33.629-1.762-31.866 0-47.338 13.94-47.338 36.002 0 19.917 10.799 31.712 29.566 36.539l14.323 3.678c11.794 3.066 16.851 6.589 16.851 13.94 0 10.799-7.355 12.791-25.124 12.791-8.12 0-22.216-1.15-27.039-1.533-5.131-.457-6.509.154-7.276 4.445zM199.237 381.93l-1.916 8.12c-.612 2.3-.766 3.523-.766 4.29 0 1.916.538 3.524 1.916 5.823l22.98 41.365c1.916 3.295 3.524 4.673 8.12 4.673h21.067c2.683 0 5.976-1.762 2.911-6.589l-28.267-46.802c9.5-5.975 20.146-14.477 20.146-33.245 0-24.207-13.556-37.69-43.358-37.69h-43.127c-3.907 0-5.056 1.379-5.056 5.211v113.905c0 3.907 1.15 5.211 5.056 5.211h17.772c3.907 0 5.056-1.378 5.056-5.211v-96.136h18.384c11.566 0 17.16 4.29 17.16 15.089 0 9.882-4.445 12.944-8.885 14.861-5.514 2.299-7.43-.229-9.192 7.123zM362.858 438.845V376.72c0-3.832-1.15-5.211-5.057-5.211h-31.712c-3.907 0-5.056 1.379-5.056 5.211v13.327c0 3.831 1.15 5.211 5.056 5.211h9.118v27.119c-1.15.229-5.057.383-9.5.383-26.272 0-33.09-17.005-33.09-40.447 0-29.567 11.261-37.151 35.619-37.151 7.355 0 17.234.612 22.829.995 5.057.383 6.358-.229 7.123-4.445l2.3-13.94c.612-3.832-.155-5.594-4.29-5.976-1.378-.229-10.033-1.379-29.95-1.379-45.423 0-63.807 23.44-63.807 61.894 0 38.147 15.089 65.185 62.045 65.185 21.067 0 29.031-.995 33.09-1.916 4.135-.921 5.285-2.528 5.285-6.74zM415.637 426.282l-2.3 14.86c-.383 2.911.995 4.061 3.524 4.445 5.593.767 19.688 1.762 33.474 1.762 30.716 0 53.162-10.033 53.162-38.684 0-16.851-7.355-29.414-32.861-36.002l-14.323-3.678c-9.649-2.528-14.094-5.594-14.094-12.791 0-10.033 9.267-12.026 18.155-12.026 11.949 0 24.207.995 28.954 1.379 5.056.383 6.358-.229 7.201-4.445l2.3-14.477c.383-2.911-.995-4.061-3.449-4.444-5.594-.767-18.001-1.762-33.628-1.762-31.94 0-47.416 13.94-47.416 36.002 0 19.917 10.799 31.712 29.567 36.539l14.323 3.678c11.795 3.066 16.851 6.589 16.851 13.94 0 10.799-7.355 12.791-25.124 12.791-8.12 0-22.291-1.15-27.039-1.533-5.131-.457-6.509.154-7.276 4.445zM515.6 426.282l-2.3 14.86c-.383 2.911.995 4.061 3.449 4.445 5.593.767 19.762 1.762 33.474 1.762 30.716 0 53.162-10.033 53.162-38.684 0-16.851-7.355-29.414-32.861-36.002l-14.323-3.678c-9.649-2.528-14.094-5.594-14.094-12.791 0-10.033 9.267-12.026 18.155-12.026 12.026 0 24.207.995 29.031 1.379 4.978.383 6.358-.229 7.123-4.445l2.299-14.477c.383-2.911-.921-4.061-3.449-4.444-5.593-.767-18.001-1.762-33.629-1.762-31.94 0-47.416 13.94-47.416 36.002 0 19.917 10.88 31.712 29.567 36.539l14.323 3.678c11.794 3.066 16.851 6.589 16.851 13.94 0 10.799-7.355 12.791-25.125 12.791-8.12 0-22.216-1.15-27.039-1.533-5.056-.457-6.435.154-7.201 4.445zM665.279 381.93l-1.916 8.12c-.538 2.3-.767 3.523-.767 4.29 0 1.916.612 3.524 1.99 5.823l22.98 41.365c1.916 3.295 3.449 4.673 8.12 4.673h21.067c2.757 0 5.975-1.762 2.912-6.589l-28.266-46.802c9.5-5.975 20.146-14.477 20.146-33.245 0-24.207-13.556-37.69-43.278-37.69h-43.204c-3.832 0-5.057 1.379-5.057 5.211v113.905c0 3.907 1.15 5.211 5.057 5.211h17.772c3.831 0 5.057-1.378 5.057-5.211v-96.136h18.384c11.566 0 17.234 4.29 17.234 15.089 0 9.882-4.445 12.944-8.885 14.861-5.668 2.299-7.585-.229-9.346 7.123z"/></svg>
