<svg role="img" viewBox="0 0 24 24" xmlns="http://www.w3.org/2000/svg"><title>Stackbit icon</title><path d="M10.949 2.306L1.17 7.967A2.356 2.356 0 00.008 10.21v3.775a2.372 2.372 0 001.207 2.25l9.778 5.472a2.26 2.26 0 002.23 0l9.594-5.473a2.373 2.373 0 001.176-2.25V10.21a2.373 2.373 0 00-1.163-2.232l-9.593-5.662a2.264 2.264 0 00-2.288-.01zm.775 14.037L1.945 10.68a.764.764 0 010-1.321L11.724 3.7a.724.724 0 01.738 0l9.593 5.674c.353.209.474.67.27 1.032a.729.729 0 01-1.008.276L12.09 5.23l-8.276 4.792 8.638 5a.767.767 0 01.282 1.033.738.738 0 01-.646.386.727.727 0 01-.363-.097zm.014 3.963L1.96 14.833a.765.765 0 01-.31-1.088.728.728 0 011.019-.233l9.42 5.27 9.238-5.27a.73.73 0 011.005.292.765.765 0 01-.286 1.029l-9.594 5.473a.724.724 0 01-.714 0z"/></svg>