<svg role="img" viewBox="0 0 24 24" xmlns="http://www.w3.org/2000/svg"><title>Stackbit icon</title><path d="M21.314 13.477l-9.213 5.13-9.396-5.13a.729.729 0 00-.993.294.729.729 0 00.294.993l9.746 5.333c.22.128.497.128.717 0l9.562-5.333a.727.727 0 00.276-.993.718.718 0 00-.993-.294zM3.845 10.075l8.256-4.67 9.195 5.314c.349.202.809.073 1.011-.276a.749.749 0 00-.276-1.012L12.47 3.915a.749.749 0 00-.735 0L1.988 9.43c-.497.276-.497.993 0 1.288l9.746 5.516c.35.202.809.074 1.011-.276a.749.749 0 00-.276-1.011zM.057 13.937v-3.678A2.258 2.258 0 011.216 8.07l9.745-5.517a2.25 2.25 0 012.28.019l9.562 5.516a2.296 2.296 0 011.14 2.17v3.678a2.288 2.288 0 01-1.176 2.188l-9.562 5.332a2.281 2.281 0 01-2.225 0l-9.746-5.332c-.81-.442-1.232-1.306-1.177-2.188z"/></svg>