<svg role="img" viewBox="0 0 24 24" xmlns="http://www.w3.org/2000/svg"><title>Stadia icon</title><path d="M6.477 9.994a18.331 18.331 0 0 1 15.821.327c.284.142.644 0 .742-.316l.927-2.771a.676.676 0 0 0-.349-.818C19.722 4.506 10.47 1.473.28 8.663a.677.677 0 0 0-.219.829l2.149 4.844c.142.327.513.48.851.36 2.466-.906 6.186-1.855 10.06-1.298a17.681 17.681 0 0 0-6.328 2.357.677.677 0 0 0-.273.851l1.32 3.033c.12.262.469.327.676.109A6.9 6.9 0 0 1 10 18.591a15.644 15.644 0 0 1 8.87-1.898.694.694 0 0 0 .687-.469l.982-2.946a.675.675 0 0 0-.284-.796c-2.891-1.811-7.343-3.339-13.802-2.488h.024z"/></svg>