<svg role="img" xmlns="http://www.w3.org/2000/svg"  viewBox="0 0 476.8 44.3"><title>Stadler Rail AG</title>
  <path fill="#005a96" d="M0 29.7h15.4s.7 3.2 4.8 2.9h28.5s2.6.2 2.6-2.5c0-2.9-2.5-2.6-2.5-2.6H15.3C9.8 27.5 1.4 23.9 1.4 13 1.4 13 2.3.1 13.8.1h37.5s13.6-.2 14.8 14.1H51.2s-.7-2.6-2.9-2.6H18.9s-2.8.1-2.8 2.5c0 0-.3 2.5 2.6 2.5H51s14.9-.4 15.3 13.8c0 0 .8 13.8-15.3 13.8H14.8S0 44.3 0 29.7M69.4.1v11.6h25.4v32.5h15.4V11.7H135V.1zM278.6 0v44.2h54.5V32.6h-39.2V0zm61.2 0v44.3h2.7l59.9-.1V32.6h-47.1v-5.3h43.6V16.7h-43.8v-5h47.3V.1zm135.8 37c.2-2.8-.2-6.7-1.8-9-2.3-3.4-5.2-4.5-5.2-4.5 10.6-4.5 6.2-15.3 6.2-15.3-2.3-7.4-12.9-8.1-15-8.1h-48.4v44.1h15.5V30.6h28.4c5.4 0 5.4 5.5 5.4 5.5-.1 7.9.9 8.1.9 8.1h15.2c-1.2-1.3-1.4-4.4-1.2-7.2M458 19.2l-31.1-.1v-6.8l30.8.1s3.4.1 3.2 3.4c-.1.1.1 3.4-2.9 3.4M254.4.1h-50.7v44.1h50.4c5.8 0 19.6-4 19.6-22.1 0-18.7-14.3-22-19.3-22m-5.2 32.5H219v-21h30.7s8.1 0 8.1 11c0 10.2-8.6 10-8.6 10M172.4.1h-19.6l-29.2 44.1h17.6l4.9-6.6h32.8l4.6 6.6H201L172.4.1zm-18.8 26.5 9-13.9 9.2 13.9h-18.2z"/>
</svg>