<svg role="img" viewBox="0 0 24 24" xmlns="http://www.w3.org/2000/svg"><title>Stadler</title><path d="M8.677 10.89h-.986l-1.47 2.22h.886l.246-.332h1.651l.232.332h.88zm-.946 1.334.453-.7.463.7zm5.074-1.334h-2.552v2.22h2.537c.291 0 .986-.202.986-1.113 0-.94-.72-1.107-.971-1.107m-.262 1.636h-1.52v-1.057h1.545s.408 0 .408.554c0 .513-.433.503-.433.503m11.396.221c.01-.14-.01-.337-.09-.453a.63.63 0 0 0-.262-.226c.533-.227.312-.77.312-.77-.116-.373-.65-.408-.755-.408h-2.437v2.22h.78v-.685h1.43c.272 0 .272.277.272.277-.005.398.045.408.045.408H24c-.06-.066-.07-.222-.06-.363m-.886-.896-1.565-.005v-.342l1.55.005s.171.005.16.171c-.004.005.006.171-.145.171m-5.95-.966v2.23h.136l3.015-.005v-.584h-2.37v-.267h2.194v-.533h-2.205v-.252h2.381v-.584zm-3.08 0v2.225h2.743v-.584h-1.973v-1.641Zm-10.53.005v.584H4.77v1.636h.775v-1.636h1.249v-.584ZM0 12.38h.775s.036.161.242.146h1.435s.13.01.13-.126c0-.146-.125-.13-.125-.13H.769c-.276 0-.7-.182-.7-.73 0 0 .046-.65.625-.65H2.58s.685-.01.745.71h-.75s-.035-.131-.146-.131H.95s-.14.005-.14.126c0 0-.015.126.13.126h1.626s.75-.02.77.694c0 0 .04.695-.77.695H.744S0 13.115 0 12.38"/></svg>