<svg role="img" viewBox="0 0 24 24" xmlns="http://www.w3.org/2000/svg"><title>STARZ</title><path d="M2.309 9.24C.386 9.24.133 10.445.133 10.814c0 2.236 2.98 1.42 2.98 2.274 0 .21-.166.435-.748.435-.642 0-.773-.295-.773-.52H0c.005.41.17 1.757 2.365 1.757 1.625 0 2.324-.762 2.324-1.729 0-2.216-3.046-1.378-3.046-2.217 0-.165.131-.414.642-.414.51 0 .64.249.64.414H4.44c0-.398-.208-1.574-2.13-1.574zm2.312.147v1.427h1.443v3.797h1.577v-3.797h1.463V9.387Zm5.711 0L8.264 14.61h1.67l.187-.566h1.828l.188.566h1.67l-2.069-5.224zm3.805 0v5.224h1.576v-2.199l1.308 2.2h1.868l-1.334-1.932c.71-.32 1.008-.947 1.008-1.584 0-.944-.625-1.71-2.159-1.71h-.002zm5.011 0v1.427h2.07l-2.259 3.797h4.248L24 13.186h-2.492l2.26-3.8Zm-3.435 1.287h.691c.424 0 .59.23.59.514 0 .283-.166.511-.59.511h-.691Zm-4.678.619.567 1.705h-1.133Z"/></svg>