<svg role="img" xmlns="http://www.w3.org/2000/svg" viewBox="0 0 24 24"><title>Starship icon</title><path d="M11.17 23.987l-.151-.019.23-.251c.282-.307.658-.803.88-1.16.371-.593.792-1.51 1.035-2.253.125-.383.346-1.228.347-1.325 0-.085.044-.068-1.34-.522-1.338-.44-1.813-.591-1.855-.591-.021 0-.105.11-.186.244a7.883 7.883 0 01-1.594 1.825c-1.085.875-2.257 1.366-3.75 1.573-.112.016-.12.01-.474-.283A12.327 12.327 0 011.2 17.233a12.156 12.156 0 01-1.166-4.325A12.16 12.16 0 011.45 6.261c.33-.618 1.011-1.6 1.48-2.137C4.91 1.862 7.5.481 10.534.068c.62-.085 2.208-.092 2.838-.013 1.45.181 2.67.542 3.925 1.161a11.973 11.973 0 016.47 8.368c.168.824.212 1.247.229 2.179.011.66.005.942-.032 1.327-.37 3.889-2.529 7.287-5.897 9.282-1.432.848-3.041 1.376-4.779 1.569-.426.047-1.851.078-2.118.046zm3.36-7.678c.026-.073.123-.325.214-.56.151-.387.172-.425.234-.425.038 0 .63.125 1.317.277.686.152 1.295.284 1.353.294l.105.018v-.192c0-.262-.073-1.002-.127-1.292-.185-.986-.528-1.815-1.003-2.423l-.16-.204.112-.299a7.21 7.21 0 00.318-1.045c.054-.251.062-.367.061-.93 0-.557-.008-.675-.06-.893a5.963 5.963 0 00-.699-1.708c-.341-.573-.891-1.328-.997-1.369-.097-.037-1.464 1.08-2.093 1.71-1.042 1.045-1.509 1.97-1.572 3.112l-.018.322-.446.23c-1.047.543-1.56.904-2.212 1.557-.25.25-.453.466-.453.482 0 .039.318.176 1.604.69.599.24 1.099.447 1.112.46.013.013-.054.302-.15.643-.094.341-.167.624-.162.63.023.023 3.56 1.043 3.627 1.045.029.002.063-.045.094-.13zM6.674 8.055c.162-.676.651-1.123 1.478-1.348.451-.124.45-.12.097-.213-.67-.177-1.075-.465-1.32-.94a3.119 3.119 0 01-.284-.771c-.018-.086-.042-.156-.053-.156-.011 0-.044.097-.071.216-.197.846-.662 1.36-1.454 1.608-.123.039-.27.079-.328.09-.057.01-.104.028-.104.04 0 .01.123.061.273.112.84.284 1.328.766 1.57 1.55.089.29.09.292.118.154.014-.069.05-.223.078-.342zm7.346 2.48a1.057 1.057 0 01-.488-.485c-.056-.113-.064-.173-.064-.452 0-.283.008-.335.065-.443.1-.188.3-.385.487-.478.155-.077.192-.084.459-.084.252 0 .31.01.438.07.182.086.413.325.505.523.058.125.069.188.069.426 0 .343-.062.5-.285.722-.22.22-.367.28-.706.292-.274.01-.282.009-.48-.091z"/></svg>