<svg role="img" viewBox="0 0 24 24" xmlns="http://www.w3.org/2000/svg"><title>Staticman icon</title><path d="M17.1642 3.039l-.0631.002c-.067 0-.1331.003-.2002.006-.038.002-.078.006-.1171.01-.05.003-.1001.01-.1522.015l-.1231.015c-.053.008-.1061.018-.1602.028-.075.0141-.1501.0301-.2242.0481-.027.008-.055.014-.083.02l-.1742.0501c-.01.004-.023.007-.035.01-1.0551.3334-1.957 1.056-2.5126 2.052a.8626.8626 0 00-.042.0701c-.01.023-.024.043-.036.0661l-.0161.037a4.3864 4.3864 0 00-.4705 1.98v.8008c-.2072 0-.3733.1652-.3733.3704s.1681.3734.3733.3734v2.8709a6.415 6.415 0 00-2.8268.981 6.6756 6.6756 0 00-.6907.5085l-.01.01c-.004.003-.01.01-.014.012-.0751.07-.1462.1351-.2172.1952a5.2779 5.2779 0 01-.6006.4434c-.005.003-.007.007-.01.01-.2603.1602-.4745.2773-.6787.3704-.1602.07-.3224.1281-.4945.1822l-.0671.02a.4286.4286 0 01-.054.017 5.3357 5.3357 0 01-1.5716.2353c-1.3914 0-2.6877-.5276-3.6637-1.4415.4555.1602.936.2433 1.4264.2433 1.0831 0 2.1202-.4125 2.907-1.1312a4.5325 4.5325 0 00.8788 1.879c.1962-.0602.3784-.1202.5536-.2003.058-.026.1181-.055.1782-.086-.6026-.6768-.949-1.5516-.961-2.4656-.002-.1601-.1071-.3003-.2603-.3503-.1531-.05-.3203.007-.4144.1361-.6687.921-1.7467 1.4715-2.8829 1.4715-.999 0-1.959-.4244-2.6326-1.1652a.3728.3728 0 00-.6417.3234l.012.055v.003c.884 3.8219 3.7408 6.991 7.4535 8.2683a11.424 11.424 0 002.6157.5706l.037.002c.092 0 .1802-.034.2502-.0961a.3698.3698 0 00.1222-.2763v-1.987c0-.941.1902-1.8518.5705-2.7057a6.6003 6.6003 0 011.028-1.6216l-.4073-.2423.4885.1472 2.5055.7147c.1321.06.2672.1151.4044.1662v-.8008c-.6307-.2783-1.1772-.6847-1.5916-1.1942V8.991h.1501v1.011c0 .7337.5956 1.3313 1.3294 1.3313h.5325c.6907 0 1.2593-.5305 1.3243-1.2032.004-.02.007-.042.007-.064a.3236.3236 0 01.3243-.3244.3242.3242 0 01.3244.3244c0 .022.003.043.006.064.064.6747.6336 1.2042 1.3243 1.2042h.5335c.7338 0 1.3314-.5966 1.3314-1.3313V8.992h.1461v4.076c-.4144.5086-.961.915-1.5916 1.1933v.8008c.1382-.05.2733-.1061.4044-.1672l2.5045-.7157.005.006.5055-.1502-.4204.2483c.3654.4284.6747.8979.921 1.4014a.3715.3715 0 00.3353.2102h.022a.3764.3764 0 00.3303-.2502 2.839 2.839 0 00.1552-.934c0-1.4414-1.041-2.6266-2.4264-2.8428v-2.875a.3723.3723 0 00.3723-.3723.3706.3706 0 00-.3723-.3704v-.8008c0-.2652-.025-.5265-.0701-.7807-.002-.006 0-.012-.002-.018l-.014-.0751-.005-.024c-.1722-.8379-.5826-1.6017-1.1912-2.2123a4.3814 4.3814 0 00-.8939-.6937c-.033-.02-.067-.036-.1001-.055l-.06-.033c-.0521-.027-.1032-.0541-.1542-.0781-.018-.01-.036-.016-.054-.025a3.6091 3.6091 0 00-.2663-.1142c-.036-.014-.0701-.028-.1081-.04-.04-.016-.0821-.03-.1232-.043-.044-.014-.09-.028-.1341-.0401-.037-.012-.074-.022-.1101-.032-.078-.02-.1562-.04-.2362-.055a.9782.9782 0 00-.0751-.0131c-.06-.01-.1222-.022-.1832-.03-.035-.006-.07-.01-.1071-.015l-.1572-.016-.11-.008c-.0601-.004-.1222-.005-.1833-.006l-.072-.003zm3.1431 1.8158s-.076.0771-.2142.2102c-.068.0671-.1562.1432-.2543.2323-.098.09-.2142.1852-.3403.2903-.09.07-.1902.1451-.2903.2202.3604.7237.946 1.1942 1.6036 1.2753.012.12.018.2432.018.3663v.7988h-2.6176c-.046-.1531-.1862-.2662-.3553-.2662h-1.3834a.3715.3715 0 00-.3554.2662h-2.6176v-.7988c0-.3984.064-.7807.1822-1.1411.117.1121.2432.2122.3783.3003.04.02.1202.063.2423.1161.1732.077.4304.1622.7467.2102.1582.024.3304.037.5146.038.045 0 .094 0 .136-.003l.1452-.01c.1001-.003.1932-.02.2903-.03.0971-.01.2002-.035.3003-.052.1001-.02.2002-.048.3023-.0701.1001-.03.2022-.06.3033-.092.1001-.0361.2022-.0702.3003-.1082a7.3268 7.3268 0 00.5886-.2523l.2803-.1401.2723-.1451c.1752-.1001.3443-.1982.5005-.2973.08-.047.1551-.1001.2302-.1462.075-.046.1442-.092.2102-.1401.1322-.0931.2583-.1732.3644-.2523.1071-.078.2032-.1431.2773-.2022a7.6653 7.6653 0 01.2402-.1782zm-3.4635 3.874h.6407v.2121h-.6407zm-2.4524.2652h1.7017v1.011c0 .3233-.2623.5856-.5846.5856h-.5325a.5857.5857 0 01-.5856-.5856V8.994zm3.8438 0h1.7017v1.011a.5857.5857 0 01-.5856.5856h-.5325a.5857.5857 0 01-.5856-.5856V8.994zm-2.993.1601a.4246.4246 0 00-.4244.4245c0 .2342.1902.4244.4254.4244a.426.426 0 00.4265-.4254c0-.0701-.018-.1322-.046-.1902-.0401.05-.1002.083-.1663.083a.2134.2134 0 01-.2132-.2131c0-.038.012-.0731.03-.1032l-.03-.003zm3.8439 0a.4255.4255 0 00-.4254.4245c0 .2342.1901.4244.4254.4244a.425.425 0 00.4254-.4254c0-.0701-.017-.1322-.046-.1902a.2154.2154 0 01-.1682.083.2134.2134 0 01-.2132-.2131c0-.038.01-.0731.027-.1032-.01 0-.02-.003-.028-.003zm-3.4395 4.3604a.397.397 0 00-.1862.068.37.37 0 00-.1581.3044v2.022c0 .1201.06.2353.1581.3043.0641.045.1402.0681.2153.0681.042 0 .084-.007.125-.022l1.3655-.4875 1.3653.4875a.3741.3741 0 00.3413-.046.37.37 0 00.1582-.3044v-2.022a.3753.3753 0 00-.1581-.3043.3738.3738 0 00-.3404-.046l-1.3643.4874-1.3644-.4885a.4039.4039 0 00-.0871-.02.292.292 0 00-.066 0zm.4004.901l.7448.2662v.4324l-.7448.2663zm2.2353 0v.9649l-.7448-.2663v-.4324z"/></svg>