<svg aria-labelledby="simpleicons-staticman-icon" role="img" viewBox="0 0 24 24" xmlns="http://www.w3.org/2000/svg"><title id="simpleicons-staticman-icon">Staticman icon</title><path d="M21.662 8.867V5.98c.207 0 .374-.168.374-.374s-.167-.374-.374-.374V4.43c0-.268-.025-.53-.07-.784-.002-.006 0-.012-.003-.018l-.016-.076-.005-.024c-.175-.84-.587-1.608-1.198-2.222-.27-.27-.572-.505-.897-.695-.033-.02-.068-.036-.1-.055l-.06-.033-.155-.08-.055-.024c-.088-.04-.177-.08-.267-.114-.036-.014-.072-.028-.108-.04-.04-.016-.082-.03-.124-.043l-.134-.04-.11-.03c-.077-.022-.156-.04-.236-.057-.025-.005-.05-.01-.075-.013-.06-.01-.12-.022-.182-.03L17.76.034 17.604.02l-.11-.01c-.062-.004-.123-.005-.184-.006l-.074-.002-.063.002c-.067 0-.134.003-.2.007l-.118.01c-.05.004-.102.01-.153.016l-.124.016c-.054.008-.107.018-.16.028-.076.014-.152.03-.226.05-.028.006-.056.012-.084.02-.06.015-.117.03-.175.05l-.035.01c-1.06.334-1.965 1.06-2.525 2.06l-.04.07c-.012.023-.026.044-.037.066l-.016.038c-.302.598-.473 1.273-.473 1.988v.802c-.207 0-.374.167-.374.374s.168.374.374.374v2.883c-1.01.1-1.986.437-2.838.985-.244.155-.477.327-.693.51l-.01.01c-.005.003-.01.01-.014.012-.075.07-.147.135-.218.196-.19.163-.392.31-.603.445l-.01.01c-.26.16-.476.28-.68.37-.16.073-.324.13-.497.185l-.067.02c-.018.007-.037.012-.055.018-.508.156-1.036.236-1.577.236-1.398 0-2.7-.53-3.68-1.448.457.16.94.246 1.432.246 1.086 0 2.128-.414 2.918-1.136.144.688.447 1.334.882 1.887.197-.06.38-.12.556-.2.058-.026.118-.055.18-.087-.606-.68-.954-1.558-.966-2.475-.002-.16-.107-.303-.26-.352s-.323.007-.417.137c-.67.926-1.752 1.48-2.893 1.48-1.004 0-1.967-.427-2.643-1.17C.54 8.617.36 8.582.21 8.66s-.232.242-.2.407l.014.056v.003c.888 3.838 3.756 7.02 7.484 8.304.846.292 1.73.484 2.626.572l.037.002c.093 0 .183-.034.252-.097.078-.07.123-.17.123-.277v-1.996c0-.946.193-1.86.575-2.717.263-.59.61-1.137 1.03-1.63l-.408-.24.49.146h.002l2.515.717c.13.06.267.117.404.168v-.804c-.632-.28-1.182-.687-1.597-1.2v-4.09h.15V7c0 .736.598 1.335 1.335 1.335h.534c.693 0 1.265-.53 1.33-1.208.003-.02.006-.043.006-.065 0-.18.146-.326.326-.326s.326.146.326.326c0 .022.003.043.007.064.066.677.637 1.21 1.33 1.21h.535c.737 0 1.336-.6 1.336-1.337V5.983h.15v4.092c-.416.51-.965.92-1.597 1.198v.805c.137-.052.273-.107.404-.17l2.515-.718.005.006.506-.152-.423.25c.367.43.678.902.925 1.408.063.13.194.21.336.21h.024c.15-.01.28-.11.33-.252.105-.3.158-.614.158-.938 0-1.448-1.045-2.638-2.436-2.854zm-4.108-2.94h-.64V5.71h.64v.214zm3.36-.696h-2.63c-.045-.153-.186-.266-.356-.266h-1.39c-.17 0-.31.113-.357.267h-2.63v-.8c0-.4.066-.785.185-1.146.118.112.244.213.38.3.04.022.122.064.243.118.173.077.432.163.75.21.16.025.332.038.516.04.045-.002.095 0 .137-.004l.147-.01c.1-.003.194-.02.293-.03s.2-.035.3-.052c.1-.02.202-.05.305-.072l.305-.09c.1-.037.203-.07.303-.11.2-.077.4-.16.59-.253l.283-.14.272-.144c.176-.102.346-.2.503-.3.08-.047.156-.098.23-.146s.146-.092.212-.14c.133-.094.26-.175.366-.254.108-.078.204-.144.278-.203.152-.115.242-.18.242-.18s-.077.08-.215.212c-.068.067-.156.143-.256.233-.098.09-.215.186-.343.29-.09.072-.19.148-.292.223.363.728.95 1.2 1.61 1.28.013.122.02.245.02.37v.8zm-1.968 5.356c-.1-.07-.227-.087-.34-.046l-1.372.49-1.37-.49c-.115-.04-.242-.024-.34.046s-.16.184-.16.306v2.03c0 .123.06.237.16.307.063.044.138.068.215.068.04 0 .084-.007.125-.022l1.37-.49 1.372.49c.04.015.083.022.126.022.076 0 .152-.023.216-.07.1-.07.158-.183.158-.305v-2.03c0-.123-.06-.237-.16-.307z"/><path d="M16.16 6.995c0 .324-.265.588-.59.588h-.533c-.324 0-.588-.264-.588-.588V5.98h1.71v1.015zm3.858 0c0 .324-.264.588-.588.588h-.534c-.324 0-.588-.264-.588-.588V5.98h1.71v1.015z"/><path d="M18.735 6.567c0-.236.192-.428.428-.428.01 0 .02 0 .028.002-.016.03-.027.066-.027.104 0 .118.096.214.214.214.068 0 .128-.033.168-.083.03.057.046.12.046.19 0 .235-.19.427-.427.427s-.428-.192-.428-.428zm-3.858 0c0-.236.192-.428.428-.428.01 0 .02 0 .028.002-.017.03-.028.066-.028.104 0 .118.096.214.214.214.067 0 .127-.033.166-.083.03.057.046.12.046.19 0 .235-.192.427-.428.427s-.428-.192-.428-.428z"/><path d="M16.86 12.125l-.75.267v-.97l.75.268v.435zm1.496.267l-.748-.267v-.435l.748-.267v.97z"/></svg>
