<svg aria-labelledby="simpleicons-staticman-icon" role="img" viewBox="0 0 24 24" xmlns="http://www.w3.org/2000/svg"><title id="simpleicons-staticman-icon">Staticman icon</title><path d="M17.26 3.01h.16l.11.01.15.02.11.01.02.01h.05l.02.01h.02l.04.01h.04l.01.01h.03l.03.01h.02l.03.01h.03l.02.01h.02l.01.01h.03l.02.01h.01l.02.01h.02l.11.03.1.03.04.01.01.01.03.01h.02l.01.01.02.01h.01l.02.01h.02l.01.01.03.01h.01l.02.01.01.01h.03l.01.01h.01l.01.01.03.01.02.01h.01l.02.01.03.01.02.01.01.01.02.01.03.01.02.01.05.02.16.08.06.03.01.01.01.01h.01l.03.02h.01l.01.01.01.01h.01l.04.02.04.03.04.03.05.02.04.03.04.03.04.02.04.03.04.03.04.03.04.03.03.03.04.03.04.03.04.03.04.04.03.03.04.03.04.04.03.03.04.03.04.04.03.03.08.08.08.09.07.08.07.08.07.09.07.09.06.09.06.09.06.1.06.09.05.1.06.09.05.1.04.1.05.1.04.1.04.11.04.1.03.11.03.1.03.11.03.11.02.11.01.02.02.07v.06l.01.03v.03l.01.04v.03l.01.03v.04l.01.03v.03l.01.04v.1l.01.03v.14l.01.03V8.21h.02l.03.01h.03l.02.01h.03l.02.01.02.02.02.01.02.01.02.02.02.01.02.02.02.02.01.02.02.02.01.02.01.02.01.03.01.02v.03l.01.02v.11l-.01.02v.03l-.01.02-.01.03-.01.02-.01.02-.02.02-.01.02-.02.02-.02.02-.02.01-.02.02-.02.01-.02.01-.02.02-.02.01h-.03l-.02.01h-.03l-.03.01h-.02v2.87h.01l.17.04.18.04.17.06.16.06.16.07.16.09.14.09.15.1.13.11.13.12.12.12.11.13.11.14.09.14.09.15.08.16.07.16.06.17.05.17.04.18.03.18.01.18.01.19v.16l-.01.05v.08l-.01.04v.04l-.01.04-.01.04v.04l-.01.04-.01.04-.01.04-.01.04-.01.04-.01.04-.01.04-.01.04-.01.04-.01.04-.02.04v.02l-.01.02-.01.01-.01.02-.01.02-.01.01-.01.02-.01.01-.02.01-.01.02-.02.01-.01.01-.02.01-.01.01-.02.01-.02.01-.01.01h-.02l-.02.01h-.02l-.02.01h-.11l-.02-.01h-.04l-.01-.01-.02-.01h-.02l-.01-.01-.02-.01-.01-.01-.02-.01-.01-.01-.02-.01-.01-.01-.01-.02-.01-.01-.02-.01-.01-.02-.01-.01-.01-.02v-.02l-.04-.06-.03-.07-.03-.06-.04-.07-.03-.06-.04-.06-.04-.07-.03-.06-.04-.06-.04-.06-.04-.07-.04-.06-.04-.06-.04-.06-.04-.06-.05-.06-.04-.06-.04-.05-.05-.06-.04-.06-.05-.06-.05-.05-.04-.06.42-.25-.51.15-2.51.71-.01.01-.02.01-.02.01h-.02l-.01.01-.02.01-.02.01h-.01l-.02.01-.02.01-.02.01h-.01l-.02.01-.02.01-.02.01h-.01l-.02.01-.02.01h-.02l-.02.01-.01.01h-.02l-.02.01v-.8l.08-.04.08-.04.08-.04.08-.04.08-.04.08-.04.07-.05.08-.05.07-.04.07-.05.07-.05.07-.06.07-.05.07-.06.06-.05.07-.06.06-.06.06-.06.06-.06.06-.06.06-.06.06-.07.05-.06V8.96h-.15v1.11l-.01.09-.02.09-.02.09-.03.09-.03.08-.04.08-.05.08-.04.07-.06.07-.06.07-.06.06-.07.06-.07.06-.07.05-.08.04-.08.04-.08.03-.09.03-.09.02-.09.02-.09.01h-.72l-.09-.01-.08-.01-.09-.02-.08-.03-.08-.03-.08-.03-.07-.04-.07-.05-.07-.05-.07-.05-.06-.05-.06-.06-.05-.07-.05-.07-.05-.07-.04-.07-.04-.08-.03-.07-.03-.09-.02-.08-.01-.08-.02-.09v-.09l-.01-.02v-.02l-.01-.02v-.03l-.01-.02-.01-.02-.01-.01-.01-.02-.02-.02-.01-.02-.02-.01-.01-.02-.02-.01-.02-.01-.02-.01-.02-.01-.02-.01-.02-.01h-.02l-.02-.01H17.12l-.03.01h-.02l-.02.01-.02.01-.02.01-.02.01-.02.01-.01.01-.02.02-.01.01-.02.02-.01.02-.01.02-.01.01-.01.02-.01.02-.01.03v.02l-.01.02v.08l-.01.01v.02l-.01.09-.02.08-.02.09-.03.08-.03.08-.03.07-.05.07-.04.07-.05.07-.06.07-.05.06-.07.05-.06.05-.07.05-.07.05-.08.04-.07.03-.08.03-.09.03-.08.02-.09.01-.08.01h-.72l-.09-.01-.09-.02-.09-.02-.09-.03-.08-.03-.08-.04-.08-.04-.07-.05-.08-.06-.06-.06-.06-.06-.06-.07-.06-.07-.05-.07-.04-.08-.04-.08-.03-.08-.03-.09-.02-.09-.02-.09-.01-.09V8.96h-.15v4.08l.05.06.06.07.06.06.05.06.07.06.06.06.06.06.07.06.06.06.07.05.07.05.07.06.07.05.07.05.07.04.08.05.07.05.08.04.08.04.08.04.08.04.08.04.08.04v.8l-.02-.01h-.02l-.02-.01-.01-.01H15l-.02-.01-.02-.01h-.01l-.02-.01-.02-.01-.02-.01h-.01l-.02-.01-.02-.01-.02-.01h-.01l-.02-.01-.02-.01-.02-.01h-.01l-.02-.01-.02-.01-.01-.01-2.51-.71-.49-.15.41.24-.06.07-.05.06-.05.07-.05.06-.05.07-.05.07-.05.07-.05.06-.05.07-.05.07-.04.07-.05.07-.04.08-.04.07-.05.07-.04.07-.04.08-.04.07-.03.07-.04.08-.04.07-.03.08-.04.08-.05.11-.04.11-.05.11-.04.12-.04.11-.04.12-.03.11-.04.12-.03.11-.03.12-.02.12-.03.12-.02.11-.02.12-.02.12-.02.12-.01.12-.01.12-.01.12-.01.13-.01.12V20.62l-.01.01v.03l-.01.01v.01l-.01.01v.02l-.01.01v.01l-.01.01v.01l-.01.02-.01.01-.01.01-.01.01v.01l-.01.01-.01.01-.01.01h-.01l-.01.01-.01.01-.01.01h-.01l-.01.01-.01.01h-.01l-.01.01h-.01l-.01.01h-.03l-.01.01h-.02l-.01.01H10.09l-.12-.01-.11-.01-.12-.02-.12-.01-.11-.02-.12-.02-.11-.02-.12-.02-.11-.02-.12-.02-.11-.03-.11-.02-.12-.03-.11-.02-.11-.03-.12-.03-.11-.03-.11-.03-.11-.04-.11-.03-.12-.03-.11-.04-.11-.04-.48-.18-.46-.19-.46-.22-.45-.24-.43-.26-.43-.27-.41-.3-.39-.31-.38-.32-.37-.35-.35-.36-.34-.37-.32-.39-.3-.4-.29-.41-.26-.43-.25-.43-.23-.45-.21-.46-.19-.47-.17-.48-.15-.48-.13-.5-.01-.06-.01-.02v-.08l.01-.02v-.05l.01-.02.01-.01v-.02l.01-.02.01-.02.02-.02.01-.01.01-.02.01-.02.02-.01.02-.02.01-.01.02-.01.02-.01.02-.01.02-.01.02-.01.02-.01h.02l.02-.01h.14l.02.01.02.01h.02l.02.01.02.01.02.01.01.01.02.02.02.01.01.02.02.01.09.1.09.09.1.08.09.09.11.08.1.07.11.08.1.06.12.07.11.06.11.06.12.05.12.04.12.05.12.04.13.03.12.03.13.03.12.02.13.02.13.01h.13l.13.01.15-.01.15-.01.14-.01.15-.02.14-.03.14-.03.14-.04.14-.05.14-.05.13-.05.13-.06.13-.07.13-.07.12-.08.12-.08.12-.08.11-.09.11-.1.11-.1.1-.11.1-.11.09-.11.09-.12.01-.01.02-.02.01-.01.02-.02.01-.01.02-.01.02-.01.01-.01.02-.01.02-.01.02-.01.02-.01h.04l.02-.01h.1l.02.01h.02l.02.01h.02l.02.01.01.01.02.01.02.01.02.01.01.01.02.02.01.01.01.02.02.01.01.02.01.01.01.02.01.02.01.02v.02l.01.02.01.02v.06l.01.02v.12l.01.11.01.12.01.12.02.12.02.11.03.12.03.11.03.11.03.11.04.11.05.11.04.11.05.11.05.1.06.1.06.1.06.1.07.1.06.1.08.09.07.09.08.09-.01.01-.02.01-.02.01-.02.01-.03.01-.02.01-.02.01h-.01l-.02.02-.03.01-.03.01-.02.01-.02.01-.03.01-.02.01-.02.01-.03.01h-.02l-.02.01-.03.01-.02.01-.03.01-.02.01h-.03l-.02.01-.02.01-.03.01-.02.01h-.03l-.02.01-.03.01-.03.01-.05-.07-.06-.08-.05-.07-.05-.08L6.8 14l-.05-.08-.04-.08-.05-.08-.04-.08-.04-.08-.04-.08-.04-.08-.04-.09-.03-.08-.04-.08-.03-.09-.03-.08-.03-.09-.02-.09-.03-.09-.02-.08-.02-.09-.02-.09-.11.09-.1.09-.11.08-.12.09-.11.07-.12.08-.12.07-.12.06-.12.07-.12.05-.13.06-.13.05-.13.04-.13.05-.14.03-.13.04-.14.03-.13.02-.14.02-.14.02-.14.01-.14.01h-.33l-.06-.01h-.07l-.06-.01h-.06l-.07-.01-.06-.01-.06-.01-.06-.01-.07-.01-.06-.01-.06-.01-.06-.02-.06-.01-.06-.02-.06-.01-.07-.02-.06-.02-.06-.02-.06-.01-.06-.03.13.12.14.11.13.11.14.11.14.09.15.1.15.09.15.08.15.08.16.08.16.07.16.06.17.06.16.05.17.05.17.04.17.04.18.03.17.03.18.02.18.02h.18l.18.01h.14l.07-.01h.14l.07-.01.07-.01h.07l.07-.01.06-.01.07-.01.07-.01.07-.01.07-.01.06-.01.07-.02.07-.01.07-.02.06-.01.07-.02.07-.02.06-.02.07-.02h.01l.02-.01h.02v-.01l.07-.02h.02l.03-.01.02-.01h.02l.02-.01.02-.01.03-.01h.02l.02-.01.02-.01.02-.01.02-.01h.03l.02-.01.02-.01.02-.01.02-.01h.02l.02-.01.02-.01.02-.01.03-.01.02-.01.02-.01.03-.01.03-.02.02-.01.03-.01.03-.02.03-.01.02-.02.03-.01.03-.01.03-.02.03-.02.03-.01.03-.02.03-.02.03-.01.03-.02.03-.02.03-.02.03-.02.04-.02.03-.02.03-.02.01-.01.03-.02.03-.01.02-.02.03-.02.03-.02.03-.02.02-.01.03-.02.03-.02.02-.02.03-.02.02-.02.03-.02.03-.02.02-.02.03-.02.02-.02.03-.02.02-.02.03-.02.02-.02.03-.02.02-.02.02-.02.01-.01.02-.01.02-.02.02-.02.02-.01.01-.02.03-.02.01-.01.03-.03.01-.01.02-.02.01-.01.01-.01.03-.02.03-.03.03-.02.03-.02.03-.03.03-.02.03-.02.02-.03.03-.02.03-.02.03-.02.03-.02.03-.03.03-.02.04-.02.03-.02.03-.02.03-.02.03-.03.03-.02.03-.02.03-.02.03-.02.12-.07.11-.06.11-.07.12-.06.11-.06.12-.06.12-.06.12-.05.12-.05.12-.05.13-.04.12-.05.13-.04.12-.03.13-.04.12-.03.13-.03.13-.03.13-.02.13-.03.13-.02.13-.01.13-.02V8.96h-.05l-.03-.01h-.02l-.03-.01-.02-.01-.02-.01-.02-.01-.03-.02-.01-.01-.02-.02-.02-.02-.02-.02-.01-.02-.02-.02-.01-.02-.01-.02-.01-.02-.01-.03v-.02l-.01-.03v-.1l.01-.03v-.03l.01-.02.01-.02.01-.03.01-.02.02-.02.01-.02.02-.02.02-.01.01-.02.02-.02.03-.01.02-.01.02-.01.02-.01.03-.01.02-.01h.08v-.99l.01-.09.01-.09v-.09l.01-.09.02-.09.01-.09.02-.09.01-.09.02-.08.02-.09.03-.09.02-.08.03-.09.02-.08.03-.08.03-.08.04-.09.03-.08.04-.08.03-.08.04-.07.02-.04v-.01l.01-.01v-.01l.01-.02.01-.01v-.01l.04-.07.08-.13.08-.12.08-.12.09-.12.08-.12.1-.11.09-.11.1-.1.11-.1.1-.1.11-.1.11-.09.11-.08.12-.09.12-.07.12-.08.13-.07.12-.07.13-.06.13-.06.14-.05.13-.05.14-.05.03-.01h.02l.01-.01h.01l.02-.01h.03l.02-.01h.01l.03-.01.03-.01h.02l.01-.01h.02l.03-.01h.02l.01-.01h.03l.02-.01h.03l.01-.01h.03l.02-.01h.04l.02-.01h.02l.04-.01h.02l.01-.01h.05l.02-.01.11-.01h.02l.04-.01h.06l.02-.01.14-.01H17.1l.06-.01.07.01h.03zm-.42 5.89h.64v-.21h-.64v.21zm3.4-4.03l-.08.05-.1.08-.06.04-.06.05-.08.06-.08.05-.08.06-.09.06-.09.07-.1.06-.05.04-.05.03-.06.04-.05.03-.06.04-.05.04-.06.03-.06.04-.12.07-.12.08-.13.07-.13.08-.27.14-.28.14-.15.07-.14.06-.15.06-.15.06-.08.03-.07.03-.08.03-.07.02-.31.09-.07.02-.08.02-.07.02-.08.01-.07.02-.08.01-.07.02-.08.01h-.07l-.07.01-.08.01-.07.01-.15.01h-.27l-.13-.01-.13-.01-.12-.02-.22-.04-.2-.05-.18-.06-.14-.06-.09-.04-.07-.03-.05-.03-.04-.02-.1-.06-.09-.08-.09-.07-.09-.09-.08.28-.06.28-.04.29-.01.3v.79h2.62l.05-.1.08-.09.11-.05.12-.02h1.38l.12.02.1.05.08.09.05.1h2.62v-.98l-.01-.09-.01-.09-.47-.13-.44-.27-.38-.38-.31-.5.08-.05.07-.06.07-.05.07-.06.1-.07.08-.08.09-.07.07-.07.08-.06.06-.06.06-.06.06-.05.09-.09.07-.06.04-.05.01-.01-.01.01-.05.04z"/><path d="M15.95 10.22l-.14.19-.15.11-.16.03h-.53l-.23-.04-.18-.13-.13-.18-.04-.23V8.96h1.7v1.01l-.14.25zM19.09 9.12h.02l-.01.02-.01.03-.01.02v.03l.02.08.04.07.07.05.08.01h.05l.05-.02.04-.02.03-.04.02.05.02.04v.05l.01.05-.04.17-.09.13-.13.09-.17.04-.16-.04-.14-.09-.09-.13-.03-.17.03-.16.09-.14.13-.09.17-.03h.01zM16.79 15.08l-.75.26v-.96l.75.26v.44z"/></svg>
