<svg viewBox="0 0 16 16" xmlns="http://www.w3.org/2000/svg" fill-rule="evenodd" clip-rule="evenodd" stroke-linejoin="round" stroke-miterlimit="1.414"><path d="M2.076 11.964c-.02-.142-.014-.476-.014-.476H1.87c-.442 0-.614-.178-.614-.62V9.11c0-.794-.186-.988-.558-1.11v-.04c.372-.122.558-.325.558-1.118V5.09c0-.442.172-.58.613-.58h.192s.01-.306.03-.483c-.092-.012-.44-.02-.44-.02-.89 0-1.14.43-1.14 1.32v1.595c0 .652-.373.74-.513.74v.634c.14 0 .51.088.51.73v1.605c0 .89.25 1.31 1.14 1.31 0 0 .348.026.425.025z"/><path d="M1.535 8.394c.326 0 .79.112.79.932v2.044c0 1.133.272 1.7 1.406 1.7h.504v-.605h-.256c-.56 0-.768-.233-.768-.794V9.428c0-1.01-.327-1.257-.885-1.414v-.045c.56-.157.884-.415.884-1.425V4.308c0-.56.205-.727.766-.727h.255v-.65h-.5c-1.134 0-1.405.548-1.405 1.68v2.033c0 .83-.465.943-.79.943v.808zm7.663 2.6c.31-.087.57-.213.785-.377.214-.164.38-.365.5-.602.117-.237.177-.5.177-.79 0-.253-.044-.47-.132-.65-.088-.18-.23-.337-.424-.475-.196-.137-.444-.26-.746-.367-.302-.107-.667-.214-1.095-.32-.46-.116-.778-.22-.957-.31-.18-.093-.27-.242-.27-.448 0-.237.094-.41.282-.516.187-.11.418-.16.694-.16.298 0 .596.046.894.14.298.097.615.25.952.465l.63-.952c-.367-.228-.763-.41-1.187-.544-.422-.134-.85-.2-1.277-.2-.344 0-.663.045-.957.137-.295.09-.55.223-.768.395-.218.172-.388.38-.51.625s-.183.52-.183.825c0 .23.038.428.115.596.075.167.198.316.366.446.168.13.39.245.665.344.276.1.608.196.998.287.512.123.877.235 1.095.34.218.102.327.26.327.475 0 .214-.093.378-.276.493-.184.114-.436.172-.757.172-.71 0-1.45-.248-2.213-.745l-.62 1.043c.177.122.38.233.61.333.228.1.47.183.72.252.253.07.51.122.775.16.262.04.516.058.76.058.375 0 .717-.045 1.027-.133v.002zm4.978-6.484c.44 0 .568.138.568.58v1.75c0 .793.14.996.698 1.12v.034c-.558.123-.698.317-.698 1.11v1.762c0 .44-.128.62-.568.62h-.194s-.002.333-.02.474c.077 0 .384-.01.384-.01.89 0 1.096-.432 1.096-1.322v-1.6c0-.643.372-.73.558-.73V7.66c-.186 0-.558-.088-.558-.74V5.327c0-.89-.206-1.322-1.096-1.322 0 0-.314.01-.407.022.02.177.04.484.04.484h.195z"/><path d="M13.628 11.368V9.325c0-.82.465-.932.79-.932v-.807c-.325 0-.79-.112-.79-.943V4.61c0-1.133-.18-1.68-1.314-1.68h-.547v.65h.3c.56 0 .724.167.724.728v2.234c0 1.01.28 1.268.84 1.425v.045c-.56.157-.838.404-.838 1.414v2.244c0 .562-.16.795-.723.795h-.3v.605h.546c1.134 0 1.314-.568 1.314-1.702h-.002z"/></svg>