<svg viewBox="0 0 16 16" xmlns="http://www.w3.org/2000/svg" fill-rule="evenodd" clip-rule="evenodd" stroke-linejoin="round" stroke-miterlimit="1.414"><path d="M2.076 9.034c-.02-.142-.014-.476-.014-.476H1.87c-.442 0-.614-.178-.614-.62V6.18c0-.794-.186-.988-.558-1.11V5.03c.372-.122.558-.325.558-1.118V2.16c0-.442.172-.58.613-.58h.193s.01-.306.03-.483c-.092-.012-.44-.02-.44-.02-.89 0-1.14.43-1.14 1.32v1.595c0 .652-.373.74-.513.74v.634c.14 0 .512.088.512.73v1.605c0 .89.25 1.31 1.14 1.31 0 0 .347.025.424.024z" fill="#FFF"/><path d="M1.535 5.464c.326 0 .79.112.79.932V8.44c0 1.133.272 1.7 1.406 1.7h.503v-.605h-.256c-.56 0-.768-.233-.768-.794V6.497c0-1.01-.327-1.257-.885-1.414v-.045c.56-.157.884-.415.884-1.425V1.378c0-.56.206-.727.767-.727h.255V0h-.5C2.596 0 2.325.548 2.325 1.68v2.033c0 .83-.465.943-.79.943v.808zM9.198 8.065c.31-.088.57-.214.785-.378.214-.164.38-.365.5-.602.117-.237.177-.5.177-.79 0-.253-.044-.47-.132-.65-.088-.18-.23-.337-.424-.475-.196-.137-.444-.26-.746-.367-.302-.107-.667-.214-1.095-.32-.46-.116-.778-.22-.957-.31-.18-.093-.27-.242-.27-.448 0-.237.094-.41.282-.516.187-.108.418-.16.694-.16.298 0 .596.047.894.142.298.096.615.25.952.464l.63-.952c-.367-.228-.763-.41-1.187-.544-.423-.133-.85-.2-1.278-.2-.344 0-.663.046-.957.138-.295.09-.55.223-.768.395-.218.172-.388.38-.51.625s-.183.52-.183.825c0 .23.038.428.115.596.075.167.198.316.366.446.168.13.39.245.665.344.275.1.607.196.997.287.512.123.877.235 1.095.34.218.102.327.26.327.475 0 .214-.093.378-.276.493-.184.114-.436.172-.757.172-.71 0-1.45-.248-2.213-.745l-.62 1.043c.177.122.38.233.61.333.228.1.47.183.72.252.253.07.51.122.775.16.263.04.517.058.762.058.374 0 .716-.045 1.026-.133zM14.176 1.58c.44 0 .568.138.568.58V3.91c0 .793.14.996.698 1.12v.034c-.558.123-.698.317-.698 1.11v1.762c0 .44-.128.62-.568.62h-.194s-.002.333-.02.474c.077 0 .384-.01.384-.01.89 0 1.096-.432 1.096-1.322V6.098c0-.643.372-.73.558-.73V4.73c-.186 0-.558-.088-.558-.74V2.397c0-.89-.206-1.322-1.096-1.322 0 0-.314.01-.407.022.02.177.042.484.042.484h.194z" fill="#FFF"/><path d="M13.628 8.438V6.395c0-.82.465-.932.79-.932v-.807c-.325 0-.79-.112-.79-.943V1.68c0-1.133-.18-1.68-1.314-1.68h-.547v.65h.3c.56 0 .724.167.724.728v2.234c0 1.01.28 1.268.838 1.425v.045c-.558.157-.837.404-.837 1.414V8.74c0 .562-.16.795-.723.795h-.3v.605h.547c1.134 0 1.314-.568 1.314-1.702z" fill="#FFF"/></svg>