<svg role="img" viewBox="0 0 24 24" xmlns="http://www.w3.org/2000/svg"><title>Steem icon</title><path d="M3.927 2.596c.264.045-.3969 1.7778-.028 3.7597.318 1.6969 4.3128 8.2744 4.1478 10.5283-.128 1.4179-3.4078 4.7396-3.7528 4.5197-.377-.105.996-2.3609.486-4.2437C4.19 14.969.6733 9.3005.6773 6.7977c0-1.832 3.0108-4.3197 3.2498-4.2017zM11.4397.005c.336.058-.506 2.2709-.034 4.7907.405 2.1699 5.5006 10.5543 5.2916 13.431-.166 1.809-4.3477 6.0427-4.7887 5.7597-.479-.131 1.271-3.0078.622-5.4056-.755-2.7959-5.2377-10.0254-5.2347-13.2171 0-2.3379 3.8418-5.5087 4.1438-5.3587zM19.193 2.596c.27.045-.393 1.7778-.023 3.7607.318 1.6969 4.3127 8.2744 4.1477 10.5283-.125 1.4179-3.4077 4.7396-3.7537 4.5197-.377-.105.996-2.3609.488-4.2437-.594-2.1919-4.1098-7.8605-4.1048-10.3623 0-1.832 3.0138-4.3197 3.2478-4.2017h-.002z"/></svg>