<svg role="img" viewBox="0 0 24 24" xmlns="http://www.w3.org/2000/svg"><title>Steemit icon</title><path d="M20.9985 7.2141a9.678 9.678 0 00-3.4067-2.2063c.7224-2.1242 3.2835-2.8978 3.2835-2.8978A21.6748 21.6748 0 008.3014.2444 10.16 10.16 0 002.448 3.7292a9.17 9.17 0 00.993 13.0097c.5991.513 1.9378 1.3106 1.9618 1.3517-.8777 2.2304-3.6852 2.8406-3.6852 2.8406a23.3811 23.3811 0 008.6931 2.9227 18.292 18.292 0 004.1782.0501 10.619 10.619 0 006.3526-3.1261 9.5438 9.5438 0 00.058-13.5648zM19.291 19.296a8.9036 8.9036 0 01-5.1471 2.3858 16.2971 16.2971 0 01-3.562-.016 16.9334 16.9334 0 01-4.2284-1.1564 6.2894 6.2894 0 001.503-2.1492 1.6553 1.6553 0 00-.0501-1.3106 7.0088 7.0088 0 011.4288-8.093 7.2743 7.2743 0 0110.179.0572 7.3385 7.3385 0 01-.1232 10.2822z"/></svg>