<?xml version="1.0" encoding="UTF-8"?> <svg id="svg2" xmlns="http://www.w3.org/2000/svg" version="1.1" viewBox="0 0 24 24"> <title>Steren</title> <path d="M10.4,16.7c-.5-.5-1.2-.9-2.1-.9H.8c-.1,0-.2,0-.2-.2-.2-.6-.3-1.3-.4-2,0-.1,0-.3.2-.3h8.5c.8,0,1.5.3,2.1.9l.7.7c.5.5,1.2.9,2.1.9h9.4c.2,0,.3.2.2.3-.2.6-.5,1.2-.9,1.8,0,.1-.2.2-.4.2h-8.8c-.8,0-1.5-.3-2.1-.9l-.7-.7s0,0,0,0ZM12.1,13.6c.5.5,1.2.9,2.1.9h9.4c.1,0,.2,0,.2-.2.1-.6.2-1.3.2-2,0-.1-.1-.2-.2-.2h-9.1c-.8,0-1.5-.3-2.1-.9l-.7-.7c-.5-.5-1.2-.9-2.1-.9H.4c-.1,0-.2,0-.2.2-.1.6-.2,1.3-.2,2,0,.1.1.2.2.2h9.1c.8,0,1.5.3,2.1.9l.7.7ZM12.4,9c-.5-.5-1.2-.9-2.1-.9H1c-.2,0-.3-.2-.2-.3.2-.6.5-1.2.9-1.8,0-.2.2-.2.4-.2h8.8c.8,0,1.5.3,2.1.8l.7.7c.5.5,1.2.9,2.1.9h7.6c.1,0,.2,0,.2.2.2.6.4,1.3.5,2,0,.1,0,.3-.2.3h-8.5c-.8,0-1.5-.3-2.1-.9,0,0-.7-.7-.7-.7ZM10.8,20.9c-.4.4-.9.6-1.5.6h-3.9c-.2,0-.3.3-.1.4.7.4,1.3.8,2.1,1.1.4.1.7.2,1.1.2h7.1c.4,0,.8,0,1.1-.2,1.6-.7,3-1.7,4.2-3,.1-.1,0-.4-.2-.4h-7.9c-.6,0-1.1.2-1.5.6l-.5.5h0ZM11.2,4.3c.6,0,1.1-.2,1.5-.6l.5-.5c.4-.4.9-.6,1.5-.6h3.9c.2,0,.3-.3.1-.4-.6-.4-1.3-.8-2.1-1.1-.4-.1-.7-.2-1.1-.2h-7.1c-.4,0-.8,0-1.1.2-1.6.7-3,1.7-4.2,3-.1.2,0,.4.2.4h7.9,0,0Z"/> </svg>