<svg role="img" viewBox="0 0 24 24" xmlns="http://www.w3.org/2000/svg"><title>StockX</title><path d="M2.42373,11.624l-0.78211,-0.14688c-0.43584,-0.08225 -0.62687,-0.18213 -0.62687,-0.41713c0,-0.32901 0.37612,-0.49938 0.84777,-0.49938c0.49553,0 0.93733,0.188 1.03285,0.58751l0.83586,0c-0.09552,-0.76375 -0.79405,-1.26313 -1.86871,-1.26313c-0.99106,0 -1.77316,0.42888 -1.77316,1.20438c0,0.67563 0.58508,1.01638 1.36718,1.16325l0.7821,0.14688c0.43584,0.08225 0.65673,0.21738 0.65673,0.48175c0,0.35837 -0.40598,0.55813 -0.90748,0.55813c-0.61493,0 -1.02688,-0.29375 -1.1224,-0.73438l-0.86569,0c0.12537,0.88125 0.82986,1.41 1.98809,1.41c1.03285,0 1.83286,-0.41125 1.83286,-1.26313c0.00001,-0.752 -0.61493,-1.081 -1.39702,-1.22788zM5.80885,10.38437l0,-0.44063l-0.86568,0l0,0.32313c0,0.38188 -0.17911,0.55813 -0.56717,0.55813l-0.24478,0l0,0.64625l0.68658,0l0,1.58626c0,0.705 0.35224,0.99875 1.18808,0.99875l0.71046,0l0,-0.64626l-0.63285,0c-0.29851,0 -0.40001,-0.08813 -0.40001,-0.3525l0,-1.58625l1.03285,0l0,-0.64625l-1.2836,0l0.37612,-0.44063zM8.99696,10.778c-1.16418,0 -1.91048,0.66975 -1.91048,1.6685c0,0.99875 0.74628,1.6685 1.91048,1.6685c1.1642,0 1.91049,-0.66975 1.91049,-1.6685c0,-0.99875 -0.74628,-1.6685 -1.91049,-1.6685zm0,2.69075c-0.62687,0 -1.02688,-0.43475 -1.02688,-1.02225c0,-0.5875 0.40001,-1.02225 1.02688,-1.02225c0.62687,0 1.02689,0.43475 1.02689,1.02225c0,0.5875 -0.40001,1.02225 -1.02689,1.02225zM13.29556,13.46875c-0.62687,0 -1.02688,-0.43475 -1.02688,-1.02225c0,-0.5875 0.40001,-1.02225 1.02688,-1.02225c0.48359,0 0.82986,0.26438 0.91942,0.5875l0.85374,0c-0.15523,-0.76375 -0.82986,-1.23375 -1.77316,-1.23375c-1.12837,0 -1.9105,0.66975 -1.9105,1.6685c0,0.99875 0.78212,1.6685 1.9105,1.6685c0.9433,0 1.68361,-0.47 1.80301,-1.26313l-0.85374,0c-0.08955,0.29375 -0.41195,0.61688 -0.94927,0.61688zM17.33144,12.34076l1.79704,-1.51575l-1.1642,0l-1.46868,1.269l0,-2.15026l-0.86568,0l0,4.11251l0.86568,0l0,-1.0105l0.51905,-0.4378l1.26008,1.4483l1.09852,0l-1.49256,-1.7155l-0.54926,0l0zM22.25689,12.88126l1.74331,1.46874l0,-1.175l-1.39381,-1.17434l1.39381,-1.17566l0,-1.175l-2.43586,2.0546l0,-0.58586l-1.74331,-1.46874l0,1.175l1.39381,1.17434l-1.39381,1.17566l0,1.175l2.43586,-2.05456l0,0.58582z"/></svg>
