<svg role="img" viewBox="0 0 24 24" xmlns="http://www.w3.org/2000/svg"><title>Storify icon</title><path d="M22.98 8.566c.32.607.563 1.275.732 2.005.17.73.264 1.495.285 2.292.02.795-.061 1.605-.24 2.416-.18.815-.447 1.611-.797 2.388s-.83 1.515-1.441 2.22c-.613.706-1.313 1.339-2.107 1.901-.781.554-1.74 1.034-2.85 1.409-1.111.39-2.326.645-3.646.795l-.299-.721c.074-.015.164-.045.299-.089.137-.046.375-.135.721-.301.359-.15.689-.329 1.02-.54.33-.21.689-.495 1.08-.87.404-.375.734-.779 1.02-1.215.285-.449.525-.99.721-1.649.195-.66.301-1.365.301-2.115 0-.721-.09-1.381-.285-2.01-.195-.631-.451-1.155-.766-1.621-.314-.449-.674-.885-1.049-1.289-.375-.405-.766-.795-1.141-1.155-.391-.36-.734-.735-1.066-1.095-.314-.361-.584-.766-.779-1.215-.195-.45-.3-.916-.3-1.41 0-.885.361-1.65 1.05-2.28.705-.646 1.664-.96 2.895-.96.361 0 .721.029 1.096.105.375.074.824.209 1.334.435.512.226.992.51 1.455.854.467.346.961.84 1.471 1.455.51.619.977 1.335 1.395 2.145l-.109.115zM1.02 15.451c-.319-.607-.563-1.275-.731-2.006-.169-.731-.265-1.494-.285-2.291-.021-.796.061-1.605.24-2.416.181-.816.445-1.612.795-2.388.352-.777.832-1.516 1.44-2.22.615-.705 1.315-1.34 2.109-1.9.78-.556 1.739-1.035 2.851-1.41C8.55.427 9.765.158 11.085.007l.299.711c-.063.014-.158.044-.285.08-.124.039-.359.135-.712.293-.35.156-.687.334-1.013.537-.322.202-.68.489-1.072.861s-.73.777-1.012 1.215c-.284.439-.521.985-.716 1.64-.196.654-.291 1.355-.291 2.107 0 .71.09 1.375.301 2 .195.625.449 1.162.765 1.613.315.466.675.885 1.05 1.307.375.419.766.794 1.141 1.154.375.359.734.734 1.05 1.096.329.375.585.779.78 1.214.195.45.299.915.299 1.41 0 .899-.359 1.666-1.049 2.296-.706.645-1.667.959-2.897.959-.359 0-.72-.03-1.095-.105-.375-.074-.825-.209-1.32-.435-.51-.226-.99-.51-1.47-.855-.466-.345-.96-.84-1.47-1.455-.51-.614-.975-1.334-1.396-2.144l.048-.055z"/></svg>