<svg role="img" viewBox="0 0 24 24" xmlns="http://www.w3.org/2000/svg"><title>Storify icon</title><path d="M22.98 8.5664c.32.607.563 1.275.732 2.005.17.73.264 1.4951.285 2.2921.02.795-.061 1.605-.24 2.4161-.18.815-.447 1.611-.797 2.388-.35.7771-.83 1.5151-1.441 2.2202-.613.706-1.3131 1.339-2.1071 1.901-.781.554-1.74 1.034-2.8501 1.409-1.111.39-2.3261.6451-3.6461.7951l-.299-.721c.074-.015.164-.045.299-.089.137-.046.375-.135.721-.301.359-.15.689-.329 1.02-.54.33-.21.689-.495 1.08-.87.404-.375.734-.7791 1.02-1.2151.285-.449.5251-.99.7211-1.649.195-.6601.301-1.3651.301-2.1151 0-.721-.09-1.381-.285-2.0101-.195-.631-.451-1.155-.766-1.621-.314-.449-.674-.8851-1.049-1.2891-.375-.405-.766-.795-1.141-1.155-.3911-.36-.7341-.735-1.0661-1.095-.314-.3611-.584-.7661-.779-1.2151-.195-.45-.3-.916-.3-1.41 0-.8851.361-1.6501 1.05-2.2802.705-.646 1.664-.96 2.895-.96.361 0 .721.029 1.0961.105.375.074.824.209 1.334.435.512.226.992.51 1.4551.854.467.346.961.84 1.471 1.4551.51.619.977 1.335 1.3951 2.145zM1.0193 15.4516c-.319-.607-.563-1.275-.731-2.006-.169-.731-.265-1.4941-.285-2.2911-.021-.796.061-1.605.24-2.4161.181-.816.445-1.612.795-2.388.352-.7771.832-1.5161 1.44-2.2202.615-.705 1.315-1.34 2.109-1.9.7801-.556 1.7391-1.035 2.8512-1.41 1.111-.393 2.326-.6621 3.646-.8131l.2991.711c-.063.014-.158.044-.285.08-.124.039-.359.135-.712.293-.35.156-.687.334-1.013.537-.322.202-.68.489-1.0721.861-.392.372-.73.7771-1.012 1.2151-.284.439-.521.985-.716 1.64-.196.6541-.291 1.3551-.291 2.1071 0 .71.09 1.375.301 2.0001.195.625.449 1.162.765 1.613.315.466.675.8851 1.05 1.3071.375.419.766.794 1.141 1.154.375.359.734.734 1.05 1.096.329.3751.5851.7791.7801 1.2141.195.45.299.915.299 1.41 0 .8991-.359 1.6661-1.049 2.2962-.706.645-1.667.959-2.8971.959-.359 0-.72-.03-1.095-.105-.375-.074-.825-.209-1.3201-.435-.51-.226-.99-.51-1.47-.855-.466-.345-.96-.84-1.4701-1.4551-.51-.614-.975-1.334-1.396-2.144z"/></svg>