<svg role="img" viewBox="0 0 24 24" xmlns="http://www.w3.org/2000/svg"><title>Strapi</title><path d="M0 8.32c0-3.922 0-5.883 1.218-7.102C2.437 0 4.398 0 8.32 0h7.36c3.922 0 5.883 0 7.102 1.218C24 2.437 24 4.398 24 8.32v7.36c0 3.922 0 5.883-1.218 7.102C21.563 24 19.602 24 15.68 24H8.32c-3.922 0-5.883 0-7.102-1.218C0 21.563 0 19.602 0 15.68V8.32Zm12.783 7.29v3.464c0 .112.136.168.215.089l3.552-3.553h-3.767ZM8.64 7.2v4.017h3.892c.14 0 .251.118.251.242v3.901H16.8V7.451a.246.246 0 0 0-.074-.177.247.247 0 0 0-.177-.074H8.64Zm0 4.268v3.641a.25.25 0 0 0 .251.251h3.642v-3.651c0-.139-.112-.241-.252-.241H8.64ZM8.39 7.45l-3.553 3.554a.12.12 0 0 0-.027.136.125.125 0 0 0 .116.077H8.39V7.45Z"/></svg>