<svg role="img" xmlns="http://www.w3.org/2000/svg" viewBox="0 0 24 24"><title>Strapi icon</title><path d="M17.284 10.553a.388.388 0 01-.195-.053l-1.527-.894a.39.39 0 01-.192-.334V7.508a.387.387 0 01.193-.335l1.534-.886a.384.384 0 01.385 0l1.538.88a.388.388 0 01.195.336v1.78a.387.387 0 01-.192.334l-1.535.885a.382.382 0 01-.204.05zm-1.14-1.503l1.146.67 1.148-.663V7.725l-1.15-.66-1.15.666zM5.242 13.544a.387.387 0 01-.194-.727l1.344-.774a.387.387 0 11.386.668l-1.344.777a.384.384 0 01-.192.056zm-.292 2.341a.385.385 0 01-.19-.727l2.578-1.477a.387.387 0 11.384.67l-2.585 1.483a.384.384 0 01-.186.05zm.417 1.926a.387.387 0 01-.19-.727l3.117-1.744a.387.387 0 11.378.673l-3.11 1.744a.38.38 0 01-.195.054zM12.945 1.99L11.033.827 1.365 6.42l.019 1.598 3.657 2.11L7.43 8.763l.522-2.54a.392.392 0 01.186-.258L16.55 1.12a.391.391 0 01.387 0l6.278 3.635a.382.382 0 01.194.334l-.012 7.267a.387.387 0 01-.195.335l-8.324 4.78a.388.388 0 01-.298.037l-2.525-.714-2.368 1.378v4.197l1.385.8 9.666-5.593v-2.248l.77-.503v2.972a.385.385 0 01-.191.336l-10.051 5.815a.384.384 0 01-.387 0l-1.774-1.02a.385.385 0 01-.194-.333v-4.642a.385.385 0 01.192-.333l2.702-1.572a.385.385 0 01.3-.038l2.531.716 7.995-4.587.012-6.82-5.893-3.41-8.07 4.653-.525 2.527a.387.387 0 01-.187.257l-2.727 1.57a.388.388 0 01-.386 0L.816 8.588a.387.387 0 01-.194-.33L.59 6.207a.385.385 0 01.192-.338L10.844.054a.387.387 0 01.394 0l2.47 1.502z"/></svg>