<svg xmlns="http://www.w3.org/2000/svg" role="img" viewBox="0 0 24 24"><title>Streamlit icon</title><path d="m20.3 16.9c-0.2-0.3-3.6-5.5-3.6-5.6 0 0 0.3-0.2 0.7-0.4s1.7-0.9 2.8-1.47c3.5-1.84 3.4-1.82 3.6-1.7s0.2 0.2-0.5 1.83c-0.6 1.64-2 5.04-2.4 6.34-0.5 1.1-0.5 1.1-0.6 1zm-1.1 0.1c-0.5-0.2-1.8-0.9-3-1.5l-8.05-4.3c-0.06-0.1-0.06-0.1 2.25-3.52 1.3-1.86 1.3-1.94 1.5-1.98a0.438 0.44 0 0 1 0.1 0c0.2 0 0.2 0 2.3 3.16a226 227 0 0 0 1.8 2.64c0.1 0.2 3.9 5.9 3.9 5.9a21 21.1 0 0 1-0.8-0.4zm-14.7 1.2a1.3 1.31 0 0 1-0.61-0.4c-0.05-0.1-0.18-0.3-0.27-0.6-0.9-2.3-3.5-8.95-3.55-9.11-0.053-0.16 0.037-0.34 0.19-0.39 0.1 0 0.156 0 0.581 0.21 0.262 0.13 1.04 0.54 1.73 0.91l3.22 1.68c9.22 4.9 13.9 7.4 14 7.5l-0.2 0.2c-0.3 0.1-0.3 0.1-7.7 0.1-7.19 0-7.21 0-7.41-0.1z"/></svg>