<svg role="img" viewBox="0 0 24 24" xmlns="http://www.w3.org/2000/svg"><title>StreamRunners</title><path d="M23.573 12.737a.854.854 0 0 0 0-1.48l-12.66-7.31c-.696-.4-1.511.292-1.226 1.043l.895 2.36.085.227c.106.28-.1.578-.399.578H7.55c-.658 0-1.275.32-1.656.857l-2.262 3.199v.001h8.553c.02 0 .034.02.027.04l-2.032 5.414-.003.01-.502 1.336c-.282.751.532 1.441 1.227 1.04l12.671-7.315zM.001 17.052a.005.005 0 0 0 0 .006h8.297a.64.64 0 0 0 .612-.452l.386-1.256.27-.878a.64.64 0 0 0-.613-.829l-2.99.007-3.815.01a.078.078 0 0 0-.067.036c-.695 1.117-1.387 2.237-2.08 3.356z"/></svg>