<svg role="img" viewBox="0 0 24 24" xmlns="http://www.w3.org/2000/svg"><title>StreamRunners</title><path d="M23.572 12.737a.854.854 0 0 0 0-1.48l-12.66-7.31c-.695-.4-1.51.292-1.225 1.043l.895 2.36.085.227c.106.28-.1.578-.4.578H7.55c-.658 0-1.275.32-1.656.857L3.632 12.21h8.553c.02 0 .034.02.027.04l-2.032 5.415-.003.01-.502 1.336c-.282.75.532 1.44 1.227 1.04zM.001 17.052a.005.005 0 0 0 0 .006h8.297a.64.64 0 0 0 .612-.452l.386-1.256.27-.878a.64.64 0 0 0-.613-.83l-2.99.008-3.815.01a.078.078 0 0 0-.067.036C1.386 14.813.694 15.933 0 17.052Z"/></svg>