<svg xmlns="http://www.w3.org/2000/svg" role="img" viewBox="0 0 24 24"><title>Streamlit icon</title><path d="M20.43 16.871c-.198-.26-3.668-5.496-3.668-5.533 0-.02.334-.214.746-.428.407-.218 1.668-.883 2.798-1.481 3.47-1.836 3.427-1.816 3.6-1.695.174.12.154.2-.484 1.822-.629 1.608-1.98 5.055-2.464 6.295-.445 1.134-.445 1.134-.528 1.02zm-1.177.144c-.442-.234-1.759-.933-2.926-1.548l-8.164-4.31c-.063-.033-.067-.03 2.26-3.473 1.257-1.866 1.317-1.946 1.451-1.986a.44.44 0 01.244.01c.177.053.174.046 2.267 3.162a226.695 226.695 0 001.809 2.675c.103.12 3.911 5.83 3.911 5.867 0 .017-.01.034-.023.034a21.144 21.144 0 01-.83-.431zm-14.778 1.23a1.314 1.314 0 01-.615-.445c-.053-.073-.177-.347-.28-.605C2.682 14.928.068 8.252.014 8.088c-.053-.16.037-.34.191-.384.097-.027.157-.007.585.207.26.13 1.047.542 1.745.91l3.227 1.704c9.297 4.898 14.031 7.402 14.122 7.466.056.04.036.057-.208.184-.267.14-.267.14-7.636.14-7.348-.003-7.365-.003-7.566-.07z"/></svg>