<svg viewBox="0 0 16 16" xmlns="http://www.w3.org/2000/svg" fill-rule="evenodd" clip-rule="evenodd" stroke-linejoin="round" stroke-miterlimit="1.414"><path d="M9.307 6.1C7.86 5.563 7.07 5.15 7.07 4.494c0-.554.455-.87 1.267-.87 1.485 0 3.01.573 4.06 1.088l.593-3.663C12.158.653 10.455 0 8.1 0 6.435 0 5.05.436 4.06 1.248c-1.03.85-1.565 2.08-1.565 3.564 0 2.693 1.644 3.84 4.317 4.812 1.723.614 2.297 1.05 2.297 1.722 0 .654-.556 1.03-1.565 1.03-1.248 0-3.307-.614-4.654-1.406l-.593 3.703C3.447 15.327 5.584 16 7.802 16c1.762 0 3.228-.416 4.218-1.208 1.11-.87 1.683-2.158 1.683-3.822 0-2.752-1.683-3.9-4.396-4.87z"/></svg>