<svg viewBox="0 0 16 16" xmlns="http://www.w3.org/2000/svg" fill-rule="evenodd" clip-rule="evenodd" stroke-linejoin="round" stroke-miterlimit="1.414"><path d="M14.817 4.146l-13.62.877c-.715.043-1.234.644-1.17 1.36l.4 3.835-.42 1.503c-.03.105.05.16.135.123l1.912-.795 12.094.806c.684.046 1.32-.45 1.39-1.196l.457-5.306c.065-.737-.533-1.25-1.178-1.206zm.74 1.17l-.46 5.317c-.04.448-.437.816-.924.784l-12.09-.805c-.08-.004-.144.01-.197.032l-1.275.53.237-.835c.015-.054.022-.112.015-.165l-.4-3.838c-.05-.45.28-.85.743-.877l13.623-.874c.47-.03.763.326.73.73zM2.563 7.766c-.272-.244-.444-.355-.444-.634 0-.165.115-.24.226-.24.125 0 .21.093.21.232v.34h.588V7.15c0-.462-.333-.795-.795-.795-.58 0-.855.393-.855.845 0 .447.33.75.583.98.265.237.455.416.455.645 0 .172-.086.268-.24.268s-.254-.103-.254-.268v-.31h-.59v.31c0 .5.325.802.873.802.504 0 .858-.358.858-.866-.004-.45-.344-.755-.616-.995zm11.557 1.07c.217 0 .393.176.393.394 0 .217-.176.393-.394.393-.218 0-.395-.176-.395-.393 0-.218.177-.394.394-.394zm-8.654.09c0 .117-.075.196-.168.196-.086 0-.17-.08-.17-.197V6.992h-.607v2.062c0 .333.17.555.47.555.207 0 .422-.144.512-.37l.025.326h.55V6.988h-.615v1.937h.004zm5.614 0c0 .117-.076.196-.17.196-.085 0-.167-.08-.167-.197V6.992h-.61v2.062c0 .333.17.555.47.555.208 0 .423-.144.512-.37l.025.326h.552V6.988h-.616v1.937h.004zm-7.16.64c-.302 0-.47-.222-.47-.555V7.466h-.157v-.473h.157v-.37h.59v.37h.26v.47h-.26v1.517c0 .056.033.124.1.124h.155v.462H3.92zm3.372-.64c0 .114-.075.196-.158.196-.093 0-.165-.08-.165-.197V7.64c0-.115.075-.197.164-.197.086 0 .158.08.158.197v1.285zm5.606 0c0 .114-.075.196-.157.196-.092 0-.164-.08-.164-.197V7.64c0-.115.075-.197.165-.197.087 0 .158.08.158.197v1.285zm1.454-.298l.157-1.163v-1.11h-.78v1.11l.156 1.163h.466zm-5.113-.86h-.445V6.402H8.17v3.17h.625V8.313h.444V9.57h.63V6.4h-.63v1.37zm-1.844-.812c-.208 0-.344.104-.43.283V6.4h-.61v3.17h.495l.05-.237c.098.18.263.276.474.276.365 0 .53-.287.53-.653V7.565c-.004-.355-.204-.61-.508-.61zm5.606 0c-.207 0-.344.104-.43.283V6.4h-.608v3.17h.494l.05-.237c.097.18.26.276.473.276.366 0 .53-.287.53-.653V7.565c-.003-.355-.204-.61-.508-.61zm1.65-.523h.047v.133h.02v-.133h.05v-.018h-.117v.018zm.215.09l-.04-.108h-.038v.15h.02v-.124l.05.126h.015l.05-.125v.126h.02v-.15h-.035l-.043.107z"/></svg>