<svg aria-labelledby="simpleicons-stubhub-icon" role="img" viewBox="0 0 24 24" xmlns="http://www.w3.org/2000/svg"><title id="simpleicons-stubhub-icon">StubHub icon</title><path d="M.49 16.974c-.119.046-.188-.012-.146-.135l.33-1.095c.029-.12.061-.33.045-.456L0 8.397c-.01-.126.082-.24.211-.249l23.572-1.583c.129-.007.226.091.216.22l-.96 10.431c-.015.127-.135.225-.255.219l-20.04-1.29c-.135-.006-.346.025-.451.078l-1.814.75.011.001zm10.805-5.763c-.267 0-.477.084-.63.242v-1.117h-.503v2.333c0 .342.105.624.307.835.195.211.479.318.824.318.346 0 .631-.107.826-.318.194-.209.299-.494.299-.835v-.282c-.014-.779-.389-1.176-1.154-1.176h.031zm0 .488c.21 0 .369.052.478.16.104.105.161.285.161.531v.286c0 .21-.055.375-.171.495-.113.119-.265.18-.468.18-.199 0-.359-.061-.465-.18-.111-.12-.165-.285-.165-.48v-.285c0-.24.054-.42.157-.525.105-.104.266-.149.473-.149v-.033zm3.637.073h-1.586v-1.448h-.518v3.47h.518v-1.518h1.586v1.518h.52v-3.47h-.51v1.448h-.01zm4.445-.561c-.265 0-.478.084-.63.242v-1.117h-.502v2.333c0 .342.104.624.306.835.202.211.48.318.831.318.36 0 .646-.107.839-.318.211-.209.316-.494.316-.835v-.282c0-.779-.39-1.176-1.14-1.176h-.02zm0 .488c.211 0 .371.052.478.16.108.105.164.285.164.531v.286c0 .21-.056.375-.173.495-.104.119-.27.18-.464.18-.195 0-.359-.061-.465-.18-.105-.12-.165-.285-.165-.48v-.285c0-.24.06-.42.165-.525.105-.104.27-.149.48-.149l-.02-.033zm-10.106.947c0 .259-.029.445-.105.544-.074.096-.194.147-.375.147h-.014c-.181 0-.315-.046-.391-.136-.075-.104-.105-.285-.105-.539v-1.365h-.494v1.365c0 .42.074.734.24.914.149.18.389.271.704.285h.12c.33 0 .57-.09.72-.27.15-.18.24-.48.24-.9v-1.365h-.51v1.365l-.03-.045zm8.085 0c0 .259-.03.442-.104.544-.075.096-.195.147-.375.147h-.015c-.181 0-.315-.046-.376-.136-.074-.104-.105-.285-.105-.539v-1.365h-.494v1.365c0 .42.075.734.24.914.15.18.39.271.72.285h.12c.33 0 .555-.09.705-.27.149-.18.239-.48.239-.9v-1.365h-.495v1.365h.016l-.076-.045zm-12.059-.732l-1.2-.402c-.075-.025-.135-.063-.181-.109-.045-.031-.06-.076-.06-.137v-.074c0-.27.24-.42.72-.436h.045c.48 0 .735.135.766.391l.016.045h.524v-.045c-.03-.585-.45-.885-1.274-.885h-.061c-.811.016-1.215.33-1.215.945v.09c0 .18.06.33.164.449.105.135.271.226.465.285l1.186.405c.195.075.301.181.301.345v.075c0 .149-.076.271-.211.345-.15.09-.359.136-.629.136-.271 0-.48-.046-.631-.136-.135-.074-.21-.195-.21-.345v-.06h-.511v.06c0 .315.119.556.359.735s.57.27.99.27.765-.074.993-.255c.239-.18.359-.42.359-.72v-.136c0-.202-.06-.378-.181-.521-.119-.138-.278-.245-.473-.31l-.051-.005zm1.709 1.253c-.104-.12-.164-.285-.164-.489v-.891h.539v-.51h-.539v-.945h-.51v2.346c0 .343.104.625.314.834.18.18.405.285.69.311l.06.003v-.483l-.046-.007c-.141-.021-.248-.079-.336-.169h-.008zm13.396-2.028h.073v.184h.031v-.184h.06v-.023h-.164v.023zm.299.125l-.044-.15h-.045v.195h.029v-.164l.074.164h.031l.06-.18v.18h.029V11.1h-.044l-.062.15-.028.014z"/></svg>