<svg viewBox="0 0 16 16" xmlns="http://www.w3.org/2000/svg" fill-rule="evenodd" clip-rule="evenodd" stroke-linejoin="round" stroke-miterlimit="1.414"><path d="M.327 11.316c-.08.03-.125-.008-.098-.09l.224-.73c.026-.08.04-.22.03-.304L0 5.598c-.007-.084.054-.16.14-.166l15.716-1.055c.085-.005.15.06.143.146l-.64 6.954c-.007.085-.084.15-.17.146l-13.353-.86c-.085-.004-.223.017-.302.052l-1.208.5zM7.53 7.474c-.178 0-.318.056-.42.162V6.89h-.335v1.556c0 .228.07.416.204.557.134.14.32.212.552.212.234 0 .422-.072.557-.212.134-.14.203-.33.203-.557v-.188c-.003-.52-.257-.784-.763-.784zm0 .326c.14 0 .246.034.318.106.07.07.108.19.108.355v.19c0 .137-.037.243-.114.325-.076.08-.177.12-.312.12-.133 0-.24-.04-.31-.12-.074-.08-.11-.188-.11-.326v-.192c0-.164.036-.283.105-.355.07-.07.177-.103.315-.103zm2.424.048H8.897v-.965h-.345v2.313h.345V8.184h1.057v1.012h.347V6.883h-.346v.965zm2.964-.374c-.177 0-.318.056-.42.162V6.89h-.335v1.556c0 .228.07.416.204.557.135.14.32.212.554.212.234 0 .422-.072.557-.212.135-.14.204-.33.204-.557v-.188c0-.52-.258-.784-.762-.784zm0 .326c.14 0 .247.034.318.106.072.07.11.19.11.355v.19c0 .134-.038.245-.115.325-.073.08-.18.12-.312.12s-.238-.04-.31-.12c-.074-.082-.11-.188-.11-.326v-.192c0-.164.036-.283.105-.355.072-.07.178-.103.315-.103zm-6.737.63c0 .173-.025.297-.075.363-.048.064-.133.098-.257.098h-.01c-.123 0-.21-.033-.258-.097-.05-.068-.077-.19-.077-.363v-.91h-.328v.91c0 .28.05.483.153.602.098.116.257.177.474.183h.077c.217-.006.376-.067.474-.183.1-.122.153-.323.153-.602v-.91H6.18v.91zm5.39 0c0 .173-.027.295-.077.363-.048.064-.132.098-.254.098h-.017c-.122 0-.21-.033-.257-.097-.05-.068-.077-.19-.077-.363v-.91h-.33v.91c0 .28.05.483.154.602.098.116.257.177.474.183h.08c.217-.006.376-.067.474-.183.1-.12.154-.323.154-.602v-.91h-.33v.91h.004zm-8.043-.487l-.803-.268c-.053-.018-.095-.042-.127-.074-.03-.028-.045-.057-.045-.09V7.46c0-.188.156-.283.477-.29h.028c.32 0 .485.086.503.258l.004.027h.344v-.03c-.016-.39-.302-.593-.85-.593h-.035c-.537.006-.808.218-.808.628v.053c0 .115.038.216.106.3.07.083.174.146.303.19l.795.266c.135.045.202.12.202.23v.048c0 .098-.048.173-.146.23-.1.06-.244.09-.424.09s-.32-.028-.42-.09c-.094-.057-.14-.132-.14-.23V8.51h-.34v.034c0 .202.08.363.24.483.16.116.38.177.66.177.283 0 .51-.058.665-.177.162-.12.24-.28.24-.483v-.047c0-.135-.04-.252-.116-.347-.077-.093-.183-.165-.313-.207zm1.14.835c-.075-.08-.112-.19-.112-.326v-.594h.357v-.34h-.357v-.63H4.22v1.564c0 .228.07.416.205.556.116.12.27.19.456.207l.032.002v-.323L4.89 8.89c-.094-.014-.166-.052-.224-.112zm8.93-1.352h.042v.122h.02v-.122h.042V7.41h-.105v.016zm.193.083l-.037-.1h-.032v.138h.02v-.114l.045.114h.013l.042-.114v.114h.02V7.41h-.033l-.037.1z" fill-rule="nonzero"/></svg>