<svg viewBox="0 0 16 16" xmlns="http://www.w3.org/2000/svg" fill-rule="evenodd" clip-rule="evenodd" stroke-linejoin="round" stroke-miterlimit="1.414"><path d="M8 0C3.58 0 0 3.582 0 8c0 4.42 3.58 8 8 8s8-3.58 8-8c0-4.418-3.58-8-8-8zm-.412 5.938v3.3c0 1.236-1.128 2.167-2.3 2.167-1.096 0-2.12-.518-2.236-1.756V7.587h1.65v1.65c0 .41.29.477.585.477.293 0 .65-.066.65-.478v-3.3c.034-1.236 1.053-2.01 2.194-2.01 1.162 0 1.932.878 1.932 2.01v.696l-.818.39-.832-.39V5.526s-.11-.12-.28-.12c-.283 0-.544.12-.544.532zm5.36 3.3c0 1.236-1.06 2.074-2.235 2.074-1.174 0-2.3-.838-2.3-2.075v-1.65h1.65v1.65c0 .412.357.478.65.478.294 0 .586-.066.586-.478v-1.65h1.648v1.65z" fill-rule="nonzero"/></svg>