<svg role="img" viewBox="0 0 24 24" xmlns="http://www.w3.org/2000/svg"><title>Stylus Extension</title><path d="M 21.375 10.68 L 21.375 3.27 C 21.375 1.98 20.325 0.93 19.05 0.93 L 4.95 0.93 C 3.675 0.93 2.625 1.98 2.625 3.27 L 2.625 10.68 C 2.625 10.68 2.535 11.535 1.125 11.535 L 1.125 12.66 C 2.535 12.66 2.625 13.5 2.625 13.5 L 2.625 20.73 C 2.625 22.02 3.675 23.07 4.95 23.07 L 19.05 23.07 C 20.325 23.07 21.375 22.02 21.375 20.73 L 21.375 13.5 C 21.375 13.5 21.465 12.66 22.875 12.66 L 22.875 11.535 C 21.465 11.535 21.375 10.68 21.375 10.68 L 21.375 10.68 Z M 10.965 21.03 C 9.244 21.041 7.543 20.666 5.985 19.935 L 6.795 16.68 C 7.845 17.235 9.51 17.775 11.19 17.775 C 13.02 17.775 13.98 17.025 13.98 15.87 C 13.98 14.79 13.14 14.16 11.04 13.425 C 8.13 12.39 6.195 10.77 6.195 8.235 C 6.195 5.235 8.715 2.97 12.84 2.97 C 14.835 2.97 16.26 3.36 17.31 3.855 L 16.425 7.035 C 15.75 6.69 14.475 6.195 12.78 6.195 C 11.085 6.195 10.23 7.005 10.23 7.89 C 10.23 9.015 11.19 9.51 13.485 10.365 C 16.575 11.505 18.015 13.125 18.015 15.585 C 18.015 18.525 15.765 21.03 10.965 21.03 L 10.965 21.03 Z"/></svg>