<svg viewBox="0 0 16 16" xmlns="http://www.w3.org/2000/svg" fill-rule="evenodd" clip-rule="evenodd" stroke-linejoin="round" stroke-miterlimit="1.414"><path d="M8 0C3.583 0 0 3.582 0 8s3.583 8 8 8 8-3.582 8-8-3.583-8-8-8zm.998 7.11c.124.102.283.163.457.163.4 0 .727-.326.727-.728 0-.4-.326-.727-.727-.727-.402 0-.728.326-.728.727 0 .174.06.333.162.457l-.89.89L7.11 7c.102-.124.163-.283.163-.457 0-.4-.326-.727-.728-.727-.4 0-.727.326-.727.727 0 .402.326.728.727.728.174 0 .333-.06.457-.162l.89.89-.89.89c-.125-.102-.283-.163-.457-.163-.4 0-.727.326-.727.728 0 .4.326.727.727.727.402 0 .728-.326.728-.727 0-.174-.06-.333-.162-.457l.89-.89.89.89c-.102.124-.163.283-.163.457 0 .4.326.727.728.727.4 0 .727-.326.727-.727 0-.402-.326-.728-.727-.728-.174 0-.333.06-.457.162L8.108 8 9 7.11z"/></svg>