<svg xmlns="http://www.w3.org/2000/svg" viewBox="92 92 16 16"><path d="M100 105.943h6.348c.4 0 .728-.225.728-.5v-1.28c-.167.167-.43.272-.728.272H93.652c-.297 0-.56-.105-.728-.27v1.278c0 .275.326.5.728.5H100z"/><path d="M100 106.912h6.963c.572 0 1.037-.344 1.037-.766 0-.033-.004-.066-.01-.098l-1.07-11.34c-.034-.264-.237-.476-.463-.563l.808 9.603v1.695c0 .38-.41.69-.917.69H93.652c-.505 0-.917-.31-.917-.69v-1.695l.807-9.603c-.225.087-.428.3-.463.564l-1.07 11.338c-.007.032-.01.065-.01.098 0 .422.464.766 1.037.766H100z"/><path d="M106.254 93.977l-.02-.21c0-.014 0-.026-.002-.04l-.004-.048c-.04-.336-.316-.592-.72-.592H94.49c-.403 0-.678.256-.72.59l-.003.05-.002.04-.02.21-.82 9.773c0 .276.326.5.727.5h12.696c.4 0 .726-.224.728-.5l-.822-9.773zm-3.79 6.203c-.178.466-.586.798-1.03 1-.484.222-1.024.308-1.554.315-.563.008-1.13-.05-1.678-.178-.277-.064-.565-.14-.827-.252-.236-.104-.43-.338-.425-.604.005-.272.2-.495.447-.593.258-.103.506-.06.758.03.56.194 1.154.275 1.745.255.337-.012.926-.19.833-.714-.02-.115-.114-.277-.23-.386-.093-.09-.285-.18-.41-.213-.277-.076-.56-.132-.84-.193-.566-.123-.866-.218-1.367-.52-.438-.263-.535-.434-.603-.827-.088-.517.165-.926.58-1.24.93-.706 1.823-.682 2.92-.48.27.048.593.094.83.24.234.14.365.423.264.687-.094.25-.333.288-.59.26-.278-.028-.388-.103-.653-.152-.548-.1-.75-.184-1.277-.034-.21.06-.493.26-.386.523.09.217.417.287.617.34.542.145.965.312 1.504.47.506.146.89.427 1.205.872.28.397.34.945.17 1.395z"/></svg>