<svg role="img" viewBox="0 0 24 24" xmlns="http://www.w3.org/2000/svg"><title>Sublime Merge</title><path d="M3.914 1.201a.52.52 0 0 0-.44.225L.097 6.25a.527.527 0 0 0 .129.734L7.387 12 .225 17.016a.527.527 0 0 0-.13.734l3.38 4.824a.527.527 0 0 0 .734.13l10.326-7.231h5.996a.5.5 0 0 0 .184-.034l.02-.005.005-.002a.5.5 0 0 0 .082-.045l.008-.006.008-.006.062-.05.008-.01.028-.026c.04-.039.182-.17.388-.394l2.522-2.522a.53.53 0 0 0 0-.746l-2.541-2.541c-.221-.24-.383-.384-.397-.399L20.9 8.68l-.023-.02-.055-.043-.027-.015q-.026-.016-.055-.03a.5.5 0 0 0-.209-.043H14.54L4.21 1.297a.53.53 0 0 0-.295-.096"/></svg>