<svg role="img" viewBox="0 0 24 24" xmlns="http://www.w3.org/2000/svg"><title>Suitest</title><path d="M15.9 10.026c-1.039-2.2-2.744-2.62-5.531-1.358l-.038.017C7.65 9.91 6.833 11.542 7.84 13.673c.779 1.653 1.988 2.96 5.53 1.358l.051-.022c3.669-1.676 3.267-3.313 2.48-4.983m-1.438 1.102a.5.5 0 0 1-.199.037.5.5 0 0 1-.456-.302c-.085-.2-.24-.381-.425-.498a.9.9 0 0 0-.557-.14.497.497 0 0 1-.554-.432.494.494 0 0 1 .443-.542c.408-.046.837.058 1.208.289.36.224.648.56.812.948a.487.487 0 0 1-.27.64zm8.84-4.68a2 2 0 0 0-.308-.255c-.015-1.27-1.062-1.764-1.415-1.931-.684-.323-.723-.514-.738-.595-.228-1.139-.969-1.897-1.982-2.03a2 2 0 0 0-1.095.156c-.514.235-.913.687-1.152 1.31-.35.903-.707 1.872-.973 2.87-2.114-.954-4.29-.974-6.307-.053a8.7 8.7 0 0 0-1.18.657A6.4 6.4 0 0 0 6.75 7.875L5.156 2.14a.62.62 0 0 0-.787-.363.6.6 0 0 0-.372.769l1.545 5.88-3.415-.717a.616.616 0 0 0-.73.463c-.07.324.141.645.473.714l3.733.784c-.16.323-.253.555-.281.627l-.008.02-.007.021a6.07 6.07 0 0 0-.178 3.495c-.557-.049-1.13-.088-1.728-.048a7.7 7.7 0 0 0-2.116.44 2 2 0 0 0-.17.068c-.58.266-.962.727-1.079 1.3-.12.593.063 1.217.518 1.757.116.138.235.242.347.323-.118 1.563 1.002 2.196 1.679 2.578q.127.071.264.151c.205.12.402.204.569.273.145.595.506 1.47 1.677 1.675.405.071.807.023 1.161-.139.527-.24.93-.71 1.201-1.398.347-.879.656-1.794.918-2.72 2.095 1.125 4.267 1.188 6.46.186a8 8 0 0 0 .261-.124c.19-.091 1.59-.799 2.42-1.99.708-1.017 1.133-1.862 1.298-2.582a7.8 7.8 0 0 0 .09-3.075c.363.008.708-.02 1.019-.046l.168-.015c.828-.067 1.484-.132 2.406-.383a2.009 2.009 0 0 0 1.483-1.652c.109-.704-.145-1.438-.676-1.964ZM22.3 8.838q-.071.033-.154.055c-.797.217-1.36.28-2.193.346-.406.033-.822.079-1.233.05-.493-.033-.857-.078-1.056.012-.183.083-.227.283-.102.71a6.44 6.44 0 0 1 .077 3.26c-.134.585-.539 1.343-1.118 2.176-.693.993-1.983 1.615-1.983 1.615q-.116.058-.233.11c-1.9.868-3.79.804-5.647-.285-.422-.246-.703-.332-.91-.238-.203.092-.335.358-.46.817-.266.97-.584 1.931-.952 2.867-.12.305-.307.635-.61.772a.77.77 0 0 1-.467.053c-.605-.106-.65-.568-.753-1.103-.072-.375-.62-.42-1.08-.692-.808-.475-1.423-.684-1.317-1.632.04-.362.25-.689-.096-.863-.25-.125-.371-.068-.55-.28-.395-.47-.338-.95.182-1.187q.045-.02.09-.036a6.5 6.5 0 0 1 1.792-.37c.65-.045 1.313.027 1.967.084.31.027.547.008.711-.07.298-.135.362-.448.21-.976-.309-1.08-.388-2.04.032-3.262 0 0 .824-2.135 2.39-3.17a8 8 0 0 1 1.023-.572c1.84-.84 3.713-.717 5.47.119.464.221.758.307.967.21.208-.094.333-.365.457-.86.254-.992.609-1.963.978-2.92.109-.28.286-.553.558-.677a.83.83 0 0 1 .454-.062c.578.075.822.542.92 1.028.107.534.431 1.015 1.437 1.49.445.21.712.407.69.875-.031.704-.275.64.057.794.33.152.374.023.628.274.501.494.414 1.27-.176 1.54zm0 0"/></svg>