<svg role="img" viewBox="0 0 24 24" xmlns="http://www.w3.org/2000/svg"><title>Suitest</title><path d="M18.85828.02122c-.38771-.0582-.75668.00322-1.09475.18035-.51399.27163-.91173.79426-1.15164 1.514-.3491 1.04273-.7087 2.16532-.97506 3.31755-2.11331-1.10218-4.2893-1.12697-6.3055-.06234-.39817.21029-.7947.4673-1.1791.76147-.5493.4206-1.0167.95206-1.40276 1.4984L5.15451.60007C5.04035.2383 4.69072.0513 4.36975.18147c-.31877.12894-.48692.52664-.37277.88838l1.54409 6.79756-3.41368-.82826c-.33145-.0801-.65924.15884-.72984.53437-.07114.37554.14137.74593.47283.82604l3.7316.9062c-.15938.37429-.25298.641-.28055.72362l-.00785.0245-.00785.02449c-.48477 1.63108-.39607 2.94649-.17657 4.04109-.55701-.05696-1.13061-.10323-1.72848-.05566-.74398.0582-1.4741.23128-2.115.50541-.05735.02441-.11664.05137-.17068.08016-.58073.30606-.96269.8401-1.07905 1.5029-.12022.68472.06296 1.40533.51794 2.03053.11527.15834.2342.2808.34726.37406-.11747 1.8076 1.0027 2.53847 1.67943 2.9791.08548.0557.17135.1133.2629.1759.20516.13956.4024.2357.56895.31392.1456.6891.5066 1.69982 1.67746 1.93706.4048.08137.80794.02683 1.16145-.1603.52723-.2779.92935-.82221 1.2007-1.61647.34688-1.01581.65564-2.07297.91816-3.14383 2.09406 1.30058 4.26668 1.37387 6.46052.21597a8.33251 8.33251 0 0 0 .26093-.14472c.18972-.10577 1.58963-.92368 2.41901-2.29996.70812-1.1754 1.13137-2.15337 1.29681-2.9857.2355-1.1848.26452-2.39568.09025-3.55353.36289.00939.70915-.0234 1.0202-.05344.05625-.00563.1116-.01217.16676-.0178.82836-.077 1.48575-.1533 2.4072-.4431.11416-.03567.22481-.08233.3296-.13804.61879-.3267 1.05048-.98773 1.15361-1.77008.1081-.81303-.14522-1.66397-.67686-2.27101-.10578-.12023-.20891-.21773-.30606-.2939-.01435-1.4689-1.06158-2.03882-1.4145-2.23095-.68386-.37302-.72223-.5951-.73767-.69023-.22778-1.31499-.96897-2.19118-1.98148-2.34452zm-.35904 1.38935c.07563-.01268.15756-.01314.24523 0 .57688.08637.82111.62594.91817 1.18673.107.61713.4327 1.17346 1.43811 1.72104.44562.24284.7107.4723.68863 1.01307-.03089.8149-.27566.73957.05689.91733.3298.17587.37554.02798.62978.31838.50021.5708.41297 1.4651-.17658 1.7767-.04798.02566-.09788.04641-.15303.06457-.79692.25034-1.3626.32093-2.19539.39854-.4059.03755-.82177.09043-1.23207.05789-.49305-.03943-.85642-.08894-1.0555.01558-.18366.09576-.22666.32616-.10203.81937.31215 1.2286.3236 2.51992.07652 3.7673-.13457.67658-.53866 1.55336-1.11829 2.51598-.69268 1.1485-1.98147 1.86805-1.98147 1.86805-.07831.04445-.1557.08498-.23347.12692-1.89995 1.00203-3.79035.92975-5.64828-.32954-.4208-.28478-.7021-.38436-.90836-.27608-.20405.10703-.3364.41616-.46105.94628-.26527 1.12158-.58313 2.23095-.95152 3.31305-.12023.35237-.30596.73448-.60819.89283-.13236.07072-.288.09641-.46889.06012-.605-.12205-.64938-.6552-.7514-1.27357-.07225-.43374-.62193-.48798-1.08297-.80154-.8063-.5489-1.42237-.79057-1.31644-1.8859.04082-.41935.25162-.79657-.09417-.99749-.24982-.1452-.3726-.0791-.55129-.32507-.39488-.54202-.33816-1.0974.18246-1.37153.02868-.01502.05937-.03041.09025-.0423.56639-.2416 1.18512-.37868 1.79117-.4275.65021-.05133 1.3137.03162 1.96784.09796.31105.0313.54782.00969.71217-.07793.29726-.15772.36103-.52083.20992-1.13107-.30994-1.24738-.3883-2.3604.0314-3.77166 0 0 .82444-2.4675 2.38962-3.66484.33918-.25912.67858-.47755 1.02215-.65906 1.84093-.97075 3.71277-.83117 5.46979.13582.46436.25599.7582.35632.96722.24492.20737-.11015.33248-.4232.45712-.99524.25315-1.14724.60949-2.2689.979-3.37545.10808-.3236.28584-.63755.55717-.78152.0648-.0338.1343-.05857.20993-.07125zm-5.43057 5.9225c-.76285-.0057-1.6561.26828-2.70151.8149l-.03728.02004c-2.68197 1.41703-3.49758 3.3032-2.49167 5.76663.77872 1.91021 1.9878 3.42169 5.53065 1.56966l.051-.0245c3.66864-1.93775 3.2668-3.83096 2.47987-5.76001-.6487-1.59018-1.55954-2.3774-2.8311-2.38682zm-.04709 1.48069c.31054.02368.62257.14291.90052.34289.36013.25911.64788.64793.81223 1.09544.10588.28854-.01595.61966-.27074.73921h-.00196c-.06452.0313-.13283.04578-.20011.04453-.19302-.0025-.37575-.13363-.45516-.34956-.08493-.23032-.24099-.44273-.42573-.57666-.17537-.12643-.3785-.1857-.55718-.16254-.27465.03505-.5215-.18767-.5513-.49874-.03143-.31043.16624-.5906.44143-.62566.1023-.0133.20452-.0168.30802-.0089z"/></svg>