<svg role="img" viewBox="0 0 24 24" xmlns="http://www.w3.org/2000/svg"><title>Supabase</title><path d="M11.9966 15.4502s-7.62085-.0197-9.85175.0098c-1.41663.0188-2.17958-1.3031-2.14364-2.0949.0358-.7888.34575-1.1529.57963-1.4386C1.71786 10.5377 9.71412.72383 9.95298.42278 10.2389.06245 10.5468-.00037 10.8883 0c.585.00064 1.0053.58129 1.007.96214.0095 2.09652.0521 7.57902.0521 7.57902s9.6267-.00117 10.0747.01308c1.1884.0378 1.8645 1.11602 1.9381 1.68836.0225.1755.1876.9297-.3742 1.6259-2.6297 3.2589-9.3211 11.4649-9.4318 11.5879-.1661.1845-.3701.5552-1.0319.5433-.6971-.0126-1.005-.6698-1.0087-.8808-.0365-2.069-.117-7.6687-.117-7.6687Z"/></svg>