<svg role="img" viewBox="0 0 24 24" xmlns="http://www.w3.org/2000/svg"><title>Supabase</title><path d="M11.9966 15.4502s-7.62085-.0197-9.85175.0098c-1.416628.0188-2.1795757-1.3031-2.14363571-2.0949.03580241-.7888.34574471-1.1529.57962471-1.4386C1.71786 10.5377 9.71412.723833 9.95298.422776c.28592-.3603258.59382-.42314616.93532-.42277437.585.00063695 1.0053.58128537 1.007.96214037.0095 2.096518.0521 7.579018.0521 7.579018s9.6267-.00117 10.0747.01308c1.1884.0378 1.8645 1.11602 1.9381 1.68836.0225.1755.1876.9297-.3742 1.6259-2.6297 3.2589-9.3211 11.4649-9.4318 11.5879-.1661.1845-.3701.5552-1.0319.5433-.6971-.0126-1.005-.6698-1.0087-.8808-.0365-2.069-.117-7.6687-.117-7.6687Z"/></svg>