<svg role="img" viewBox="0 0 24 24" xmlns="http://www.w3.org/2000/svg"><title>Super User icon</title><path d="M20.862 14.4785c-1.4799.421-2.4888 1.287-2.4888 2.716v4.0808c0 3.0479-2.907 2.714-6.5168 2.714h-.555c-.225 0-.359-.084-.359-.28v-1.398c0-.194.12-.279.345-.279h.45c2.16 0 3.6749.475 3.6749-1.26v-3.9169c0-1.199.84-2.8799 2.5209-3.4928.119-.031.135-.085.135-.141 0-.056-.03-.139-.135-.195-1.53-.7-2.521-1.844-2.521-3.217V5.3849c0-1.707-1.4999-3.4119-3.6588-3.4119h-.451c-.225 0-.33-.084-.33-.279V.301c0-.1949.15-.2809.375-.2809h.556c3.5999 0 6.5398 2.572 6.5398 5.6198v3.7199c0 1.409 1.004 2.22 2.5199 2.7439.556.165.869.196.869.646v1.17c.03.256-.239.375-.914.57zM8.0916 23.9692H2.5017c-.225 0-.336-.056-.336-.252V.279c0-.164.104-.279.33-.279h5.5338c.226 0 .36.084.36.279v1.455c0 .195-.121.252-.346.252h-2.472c-.3049 0-.4199.111-.4199.307v19.4093c0 .196.115.27.367.27h2.517c.2259 0 .3629.076.3629.255v1.484c.029.166-.084.255-.308.255v.003zm4.8748-13.0336h-1.485c-.3619 0-.6419-.281-.6419-.59V9.0028c0-.335.307-.585.642-.585h1.485c.359 0 .642.277.642.585v1.343c0 .336-.31.588-.645.588z"/></svg>