<svg role="img" viewBox="0 0 24 24" xmlns="http://www.w3.org/2000/svg"><title>Supercell</title><path d="M0 1.55v20.9h24V1.55zm15.451 2.656h5.266l.865.865v1.355l-.773.773h-2.856v.682h.537v1.264h-3.039V7.88h.537V5.477h-.537zm-12.012.006h3.078l.406.432.36-.432h.99v1.506H6.89v-.425H4.552v.72h2.993l1.009.95v1.153L7.598 9.15H4.173l-.407-.433-.36.433h-.989V7.644H3.8v.426h2.58v-.72H3.31l-.892-.82V5.312zm5.498 0h2.973v1.27h-.47v2.404h1.663V5.483h-.406V4.212h2.37v1.27h-.464v2.581l-1.094 1.088h-2.948L9.474 8.063v-2.58h-.537zm9.016 1.265v.864h1.677v-.864zM2.417 9.522h5.587l.544.596v1.71H7.015v-1.035H4.919v.74h.904v.917h-.904v.746h2.096v-1.034h1.533v1.71l-.544.588H2.417v-1.264h.537v-2.403h-.537zm6.511 0h4.853l.82.819v1.021l-.728.544.727.55v.917h.459v1.087H13.1l-.544-.543v-1.54H11.43v.82h.4v1.264H8.927v-1.265h.537v-2.403h-.537zm7.813 0h2.94l.368.459.36-.459h1.172V11.6h-1.532v-.814H17.46v2.41h2.588v-.83h1.532v1.014l-1.107 1.08H16.74l-1.29-1.264v-2.41zm-5.311 1.27v.82h1.127v-.82zm-9.013 4.063h5.587l.544.596v1.71H7.015v-1.035H4.919v.74h.904v.917h-.904v.747h2.096v-1.035h1.533v1.71l-.544.589H2.417V18.53h.537v-2.404h-.537zm6.511 0h3.039v1.27h-.537v2.405h2.105v-1.595h1.532v2.27l-.543.589H8.928V18.53h.537v-2.404h-.537zm6.514 0h3.039v1.27h-.537v2.405h2.104v-1.595h1.533v2.27l-.543.589h-5.596V18.53h.537v-2.404h-.537z"/></svg>