<svg role="img" viewBox="0 0 24 24" xmlns="http://www.w3.org/2000/svg"><title>Supercell</title><path d="M12.689 10.465h-1.408v1.03h1.408zm.681 4.596-.681-.682v-1.93H11.28v1.03h.5v1.59H8.147v-1.59h.681v-3.013h-.681v-1.59h6.087l1.014 1.03v1.286l-.908.666.908.682v1.158h.576v1.363zm1.893-11.24v3.233L13.9 8.417h-3.71L8.828 7.054V3.822h-.681v-1.59h3.74v1.59h-.59v3.012h2.081V3.822h-.507v-1.59h2.968v1.59h-.583m6.283 0h-2.082v1.06h2.09v-1.06Zm1.476 2.142h-3.558v.856h.659v1.59h-3.8V6.82h.68V3.822h-.68v-1.59h6.586L24 3.292v1.696l-.985.969m-.408 9.107h-4.679l-1.613-1.59v-3.012l1.613-1.59h3.687l.454.583.454-.576H24v2.604h-1.93v-1.022h-3.24v3.028h3.24v-1.037H24v1.249zm-7.45 6.677h-7.01v-1.59h.682v-3.005h-.681v-1.59h3.815v1.59h-.681v3.013h2.635v-2h1.922v2.847l-.68.735m8.16 0h-7.01v-1.59h.666v-3.006h-.666v-1.59h3.8v1.59h-.68v3.013h2.65v-1.999H24v2.847zM6.48 8.421H2.195l-.507-.545-.454.545H0V6.528h1.726v.53h3.233v-.885H1.113L0 5.136V3.622l1.287-1.385h3.846l.507.545.454-.545h1.234V4.13H5.587V3.6H2.68v.893h3.755l1.257 1.189V7.12L6.481 8.422m.515 6.646H0v-1.59h.682v-2.99H0v-1.59h6.996l.681.757v2.12l-1.923.015v-1.302h-2.62v.908h1.137v1.151H3.135v.939h2.62v-1.287h1.922v2.12l-.681.757m0 6.661H0v-1.59h.682V17.15H0v-1.59h6.996l.681.757v2.12H5.754V17.15h-2.62v.931h1.137v1.136H3.135v.961h2.62v-1.286h1.922v2.12l-.681.756"/></svg>