<svg role="img" viewBox="0 0 24 24" xmlns="http://www.w3.org/2000/svg"><title>Supermicro icon</title><path d="M9.18 18.15l-.136-.002-.101-.003-.102-.003-.07-.002-.067-.002-.06-.003-.058-.002-.078-.004-.078-.003-.086-.005-.085-.005-.056-.003-.057-.004-.07-.004-.067-.005-.063-.005-.063-.005-.085-.007-.085-.007-.064-.006-.064-.006-.06-.006-.06-.006-.09-.009-.087-.01-.091-.01-.091-.01-.084-.011-.084-.011-.077-.01-.077-.011-.065-.01-.065-.01-.07-.01-.07-.01-.086-.015-.086-.014-.07-.012-.067-.011-.065-.012-.065-.012-.087-.017-.085-.016-.058-.012-.057-.011-.058-.012-.058-.013-.09-.02-.09-.02-.088-.02-.087-.02-.086-.021-.085-.021-.065-.017-.064-.017-.054-.014-.053-.014-.072-.02-.072-.02-.053-.016-.053-.015-.06-.018-.059-.018-.046-.014-.046-.014-.077-.024-.076-.025-.095-.032-.095-.032-.063-.022-.064-.022-.076-.028-.076-.028-.07-.027-.07-.027-.078-.03-.077-.032-.07-.029-.07-.029-.028-.012-.028-.012-.057-.025-.057-.025-.058-.027-.058-.026-.074-.035-.075-.035-.1-.052-.103-.05-.062-.033-.06-.033-.059-.032-.058-.032-.066-.038-.066-.038-.06-.035-.059-.036-.06-.038-.063-.038-.06-.039-.059-.039-.06-.041-.062-.042-.047-.034-.047-.034-.056-.04-.055-.042-.036-.028-.035-.027-.04-.032-.04-.032-.042-.034-.042-.034-.04-.036-.042-.035-.044-.04-.044-.038-.036-.035-.037-.034-.067-.066-.067-.067-.042-.043-.04-.044-.042-.046-.04-.046-.024-.026-.022-.026-.03-.036-.03-.035-.034-.043-.034-.042-.04-.055-.04-.054-.032-.045L.6 14.98l-.033-.05-.034-.052-.025-.04-.025-.04-.02-.037-.023-.037-.026-.047-.026-.047-.034-.067-.034-.068-.02-.042-.019-.043-.015-.035-.015-.036-.022-.053-.02-.053-.017-.045-.016-.045-.018-.054-.018-.055-.014-.05-.015-.05-.012-.05-.013-.05-.01-.05-.012-.048-.008-.045-.008-.045-.007-.043-.007-.044-.007-.056-.007-.055-.005-.052-.005-.052-.002-.037-.003-.037-.002-.076L0 13.117v-.063l.002-.063.002-.05.003-.049.004-.055.005-.056.005-.043.005-.042.006-.043.005-.042.01-.05.007-.05.008-.042.01-.043.01-.042.008-.043.014-.057.014-.056.01-.038.011-.038.015-.05.016-.05.02-.059.02-.059.02-.052.02-.051.018-.05.02-.048.02-.046.02-.046.02-.043.02-.044.04-.084.043-.084.028-.053.03-.052.027-.05.03-.05.024-.042.025-.042.031-.05.031-.049.03-.045.03-.046.027-.038.026-.039.032-.045.032-.045.048-.064.048-.064.04-.05.04-.05.044-.057.046-.055.05-.06.051-.058.04-.045.04-.045.032-.034.032-.035.052-.055.053-.056.107-.106.107-.107.052-.048.052-.049.04-.036.04-.037.054-.047.053-.048.057-.048.056-.049.043-.035.043-.036.045-.036.044-.037.047-.037.046-.036.052-.04.052-.04.08-.061.08-.06.056-.04.056-.04.052-.038.052-.036.052-.036.052-.036.101-.068.102-.068.072-.046.072-.046.067-.042.066-.041.072-.044.072-.044.067-.04.068-.04.08-.045.08-.045.07-.04.072-.04.073-.04.072-.039.062-.032.063-.034.084-.043.084-.043.123-.061.123-.06.094-.046.095-.045.075-.034.075-.035.071-.032.072-.032.05-.021.047-.022.063-.027.062-.027.074-.03.073-.032.07-.028.067-.028.11-.043.108-.044.079-.03.078-.03.065-.024.065-.025.067-.024.068-.025.086-.031.086-.03.086-.03.087-.03.112-.038.112-.038.077-.024.077-.025.08-.025.078-.025.07-.021.07-.021.084-.025.084-.025.1-.029.098-.028.064-.018.064-.017.08-.022.079-.021.076-.02.077-.02.08-.02.079-.02.088-.022.089-.022.08-.018.08-.02.058-.012.056-.013.084-.019.084-.019.095-.02.094-.02.098-.02.099-.02.098-.019.098-.019.064-.012.064-.012.065-.011.066-.012.095-.017.095-.016.073-.012.074-.012.052-.009.052-.008.077-.012.076-.012.08-.011.079-.012.094-.013.095-.013.09-.012.09-.011.098-.012.098-.012.095-.01.094-.012.068-.007.067-.007.07-.007.072-.007.09-.008.09-.009.07-.005.069-.006.076-.006.075-.006.065-.005.065-.005.072-.004.073-.005.08-.005.08-.004.07-.004.07-.004.05-.002.052-.002.086-.004.086-.003.077-.003.077-.002.084-.003.084-.002.22-.003.22-.002.214.002.214.003.085.002.085.003.073.002.073.003.088.003.087.004.094.004.093.005.098.006.098.006.084.006.084.006.076.006.076.005.068.006.069.006.088.009.09.008.1.01.1.011.072.008.072.009.058.007.058.007.082.01.08.011.1.014.102.015.069.01.068.01.068.011.067.011.083.014.083.014.092.017.092.017.098.018.097.02.092.018.09.02.093.02.09.02.093.02.092.022.112.028.113.028.08.022.083.021.085.024.085.024.084.024.084.025.078.024.078.024.096.03.095.031.087.03.086.03.057.02.057.02.066.024.066.025.066.025.066.025.095.038.095.038.077.033.078.033.07.03.068.03.044.02.044.02.054.026.054.025.12.06.12.06.058.03.057.03.067.037.067.037.072.04.07.041.073.043.072.043.058.037.057.036.074.049.073.048.05.035.05.034.032.024.034.024.065.048.065.048.036.029.037.028.042.035.043.034.047.04.048.039.04.036.042.036.04.037.04.036.069.065.068.065.063.067.064.066.027.03.027.03.033.037.033.038.03.035.03.036.032.041.033.042.034.043.033.044.025.034.024.035.029.041.028.042.03.047.03.047.032.05.03.052.028.048.028.049.025.048.026.049.02.041.02.041.023.051.023.051.019.046.02.046.019.054.02.053.017.05.017.049.015.05.015.05.012.044.012.044.013.054.013.054.012.059.01.059.009.044.007.043.006.043.005.042.006.057.006.057.004.047.003.048.003.07.003.071-.001.084-.002.083.005.001.005.001.024.005.024.005.023.006.024.006.034.01.035.011.039.016.039.015.037.019.038.018.03.017.03.017.029.02.03.02.026.019.026.02.03.025.029.024.035.036.036.035.02.025.022.025.014.017.013.017.022.03.02.03.02.03.018.03.017.031.017.032.015.032.015.033.01.028.012.028.013.038.012.038.01.038.01.038.004.024.005.025.004.023.003.022.004.032.003.033.003.049.002.049-.002.05-.003.052-.003.032-.004.032-.006.035-.006.036-.006.026-.006.025-.007.026-.007.026-.01.03-.01.03-.014.039-.016.039-.023.047-.023.047-.02.032-.02.032-.016.025-.016.025-.018.024-.018.023-.022.027-.023.028-.044.044-.044.043-.031.027-.032.026-.036.026-.035.025-.037.022-.036.022-.05.025-.05.024-.028.011-.03.011-.033.012-.034.01-.038.01-.038.01-.025.005-.025.004-.035.005-.036.005-.031.003-.032.002h-.1l-.03-.002-.031-.003-.036-.005-.035-.004-.04-.009-.04-.008-.037-.01-.037-.01-.03-.011-.03-.01-.034-.015-.035-.015-.034-.017-.033-.017-.026-.016-.027-.016h-.002l-.035.05-.035.048-.045.06-.045.06-.028.037-.03.037-.027.036-.028.035-.034.04-.033.04-.034.04-.034.04-.033.039-.034.037-.034.038-.034.038-.032.034-.032.035-.08.082-.08.083-.09.086-.09.087-.034.033-.035.033-.038.034-.038.035-.042.038-.043.037-.035.031-.036.03-.046.04-.046.039-.04.033-.04.033-.032.026-.032.026-.035.027-.034.028-.038.03-.038.03-.055.041-.056.043-.06.043-.058.045-.05.036-.052.037-.05.035-.05.035-.064.045-.065.044-.086.058-.087.057-.07.045-.07.045-.071.045-.072.045-.067.04-.066.04-.06.036-.06.035-.051.03-.051.03-.073.04-.074.042-.073.04-.073.04-.073.04-.074.039-.066.034-.066.035-.13.065-.128.064-.07.034-.07.034-.067.032-.067.031-.075.035-.074.034-.08.035-.08.036-.083.037-.083.036-.084.035-.084.036-.071.029-.071.03-.044.017-.044.018-.078.03-.078.031-.062.024-.063.024-.084.032-.084.031-.08.03-.078.028-.077.027-.077.027-.102.035-.101.035-.097.032-.097.032-.063.02-.063.02-.06.02-.06.018-.062.02-.061.018-.06.018-.058.018-.07.02-.068.02-.09.026-.092.026-.086.023-.086.024-.104.028-.104.027-.15.038-.148.037-.087.02-.086.021-.081.019-.082.019-.095.02-.094.022-.107.022-.106.023-.095.019-.094.02-.097.018-.097.019-.11.02-.11.02-.09.015-.087.016-.071.011-.071.012-.082.013-.081.013-.08.012-.08.012-.096.014-.097.014-.087.012-.088.012-.092.012-.092.012-.09.01-.09.011-.117.013-.117.013-.094.01-.095.009-.09.008-.09.008-.07.006-.07.006-.075.006-.075.006-.067.005-.066.005-.07.004-.072.005-.101.006-.102.006-.098.004-.098.005-.09.004-.09.003-.073.003-.074.002-.093.002-.093.003-.18.002-.177.002h-.194zm2.199-1.11l.108-.002.113-.003.114-.004.112-.005.113-.004.068-.004.069-.003.08-.005.083-.005.072-.004.072-.005.066-.005.066-.005.06-.004.06-.005.072-.006.07-.006.104-.01.103-.009.08-.008.083-.009.085-.009.086-.01.092-.01.092-.01.083-.011.084-.01.097-.014.097-.013.115-.017.115-.016.097-.015.098-.016.07-.011.073-.012.097-.017.097-.017.078-.014.078-.014.062-.012.063-.012.08-.015.078-.016.08-.016.08-.016.1-.022.099-.02.068-.016.068-.015.06-.014.063-.015.086-.02.086-.02.135-.034.135-.034.064-.017.063-.017.075-.02.074-.02.084-.024.084-.023.082-.024.08-.024.088-.026.086-.026.097-.03.097-.03.095-.031.094-.031.097-.033.097-.033.067-.024.068-.024.064-.023.063-.022.073-.027.072-.027.065-.025.065-.024.065-.026.065-.025.078-.032.078-.031.077-.032.077-.032.075-.032.076-.033.07-.031.072-.031.062-.029.063-.028.07-.033.07-.033.059-.028.056-.027.087-.042.086-.043.089-.045.088-.046.06-.032.06-.032.055-.03.055-.029.05-.028.05-.028.044-.025.045-.025.065-.038.065-.038.065-.04.065-.038.07-.044.073-.045.063-.04.064-.041.078-.052.078-.052.06-.043.063-.043.057-.04.058-.042.055-.04.054-.04.055-.042.054-.042.039-.03.039-.031.048-.039.049-.039.05-.041.05-.042.042-.037.042-.036.03-.026.03-.026.037-.035.038-.034.05-.046.05-.046.107-.108.108-.107.047-.051.047-.051.038-.043.038-.042.037-.043.036-.042.033-.04.033-.04-.014-.012-.014-.012-.035-.035-.035-.034-.023-.026-.023-.026-.02-.026-.022-.026-.025-.038-.026-.038-.016-.027-.016-.027-.02-.041-.021-.042-.013-.032-.014-.032-.016-.048-.016-.049-.01-.039-.01-.039-.005-.033-.007-.033-.004-.036-.005-.037-.002-.04-.003-.038v-.066l.003-.038.002-.038.004-.03.003-.032.005-.028.005-.028.007-.032.007-.032.01-.037.01-.037.013-.034.012-.034.014-.033.014-.033.02-.04.02-.038.02-.032.019-.032.022-.032.022-.032.02-.027.023-.027.023-.026.023-.026.03-.03.03-.03.026-.021.025-.021.028-.022.028-.02.03-.02.028-.02.034-.019.034-.02.036-.016.035-.018.035-.014.036-.014.034-.01.033-.012.043-.01.043-.01.037-.007.037-.005.033-.004.033-.004.05-.001.05-.002.043.003.044.003.023.003.023.003.002-.004v-.259l-.002-.042-.003-.043-.003-.039-.004-.039-.006-.048-.006-.049-.01-.057-.01-.056-.007-.043-.008-.042-.01-.036-.007-.035-.01-.037-.01-.037-.012-.045-.013-.044-.017-.053-.018-.052-.02-.052-.02-.052-.02-.052-.022-.052-.023-.05-.023-.049-.028-.055-.028-.055-.024-.043-.024-.043-.032-.053-.032-.052-.028-.043-.028-.044-.024-.035-.024-.036-.018-.024-.018-.025-.032-.043-.032-.042-.032-.04-.032-.04-.04-.047-.038-.046-.028-.032-.03-.032-.03-.033-.03-.033-.044-.046-.044-.045-.064-.061-.063-.061-.032-.03-.032-.028-.04-.035-.04-.034-.047-.04-.048-.041-.036-.028-.035-.029-.023-.018-.022-.017-.05-.037-.047-.037-.04-.028-.038-.029-.057-.04-.057-.04-.073-.048-.073-.049-.05-.03-.047-.03-.051-.032-.05-.03-.063-.038-.063-.036-.062-.034-.061-.035-.046-.025-.046-.025-.048-.024-.047-.025-.08-.04-.078-.04-.057-.027-.057-.027-.061-.028-.062-.028-.053-.024-.053-.024-.052-.022-.052-.023-.051-.02-.05-.022-.078-.031-.077-.03-.056-.023-.057-.022-.078-.028-.077-.029-.085-.03-.084-.03-.095-.031-.094-.031-.076-.024-.075-.024-.085-.026-.086-.026-.09-.026-.092-.026-.065-.018-.065-.017-.083-.022-.082-.022-.082-.02-.081-.02-.08-.018-.08-.019-.09-.02-.091-.02-.046-.01-.046-.01-.08-.016-.081-.016-.067-.013-.068-.013-.09-.017-.092-.016-.077-.013-.077-.014-.073-.011-.073-.012-.103-.015-.103-.016-.087-.012-.088-.012-.112-.014-.112-.014-.116-.013-.116-.013-.095-.01-.094-.009-.093-.008-.092-.008-.09-.008-.092-.007-.05-.003-.05-.004-.07-.004-.073-.005-.063-.004-.063-.003-.068-.004-.069-.003-.084-.004-.084-.003-.07-.002-.07-.003-.082-.002-.083-.003-.168-.002-.168-.003-.228.001-.228.002-.097.002-.097.003-.08.002-.083.003-.09.003-.09.004-.05.002-.05.002-.072.004-.07.003-.08.005-.082.005-.054.003-.055.004-.067.005-.067.004-.076.006-.076.006-.07.006-.072.006-.09.008-.09.009-.082.008-.083.008-.055.006-.056.006-.113.013-.113.013-.123.015-.122.016-.076.01-.077.01-.058.009-.058.008-.072.01-.072.012-.076.012-.076.011-.086.014-.086.015-.09.015-.09.016-.072.013-.072.013-.087.016-.086.016-.077.016-.077.015-.08.017-.08.016-.067.014-.066.015-.085.019-.085.018-.061.015-.062.014-.074.018-.075.017-.073.018-.073.018-.092.024-.093.024-.09.023-.087.024-.077.021-.077.021-.066.02-.066.018-.07.02-.068.02-.093.029-.093.028-.06.02-.06.018-.077.025-.076.024-.085.029-.085.028-.085.03-.085.029-.053.019-.053.019-.075.027-.074.027-.082.03-.081.031-.06.023-.058.023-.106.042-.105.042-.093.04-.094.039-.06.026-.06.026-.072.031-.073.032-.065.03-.065.03-.053.024-.054.025-.082.04-.08.038-.109.054-.107.054-.062.032-.06.031-.059.031-.058.031-.04.021-.038.022-.056.03-.055.031-.074.042-.073.042-.067.04-.067.04-.073.043-.072.045-.052.032-.05.033-.062.039-.06.04-.057.037-.057.038-.057.039-.057.039-.048.034-.048.034-.057.042-.057.041-.058.044-.058.044-.053.041-.053.041-.043.035-.042.034-.049.04-.048.04-.04.035-.04.034-.038.033-.038.033-.037.034-.037.033-.033.03-.033.03-.078.076-.078.076-.07.073-.072.074-.03.033-.03.034-.038.04-.037.042-.038.045-.039.045-.035.042-.034.043-.03.039-.03.039-.035.044-.033.044-.02.03-.023.029-.023.033-.023.033-.037.056-.038.056-.028.044-.028.045-.022.038-.023.037-.02.035-.02.034-.026.05-.027.05-.022.043-.023.044-.02.043-.02.043-.018.04-.018.042-.02.047-.02.048-.019.052-.02.051-.02.063-.02.063-.019.062-.018.062-.014.057-.014.057-.01.047-.009.046-.006.033-.006.033-.005.038-.006.038-.005.039-.005.039-.004.035-.003.036-.004.048-.003.048-.002.1v.101l.002.06.002.059.004.041.003.041.005.044.005.044.006.04.006.04.007.042.007.041.01.05.01.05.012.043.01.044.014.046.013.046.015.049.016.048.015.043.015.042.02.051.02.05.023.052.022.05.037.074.036.073.028.05.027.05.032.052.031.052.03.045.028.044.032.046.032.047.044.059.044.059.03.038.03.037.038.044.036.044.04.044.04.043.038.042.04.041.052.053.053.054.051.047.05.048.044.039.044.039.036.03.035.03.044.036.043.036.045.035.045.036.05.036.047.037.043.03.042.032.055.038.054.037.046.031.046.03.05.033.05.032.05.03.05.031.055.033.055.033.042.024.04.024.04.022.04.022.057.03.058.032.067.035.068.035.085.042.085.042.057.027.056.026.041.019.041.019.043.019.043.019.052.022.052.023.065.026.064.027.053.022.054.021.05.02.052.02.045.017.045.017.062.022.061.023.06.021.06.021.1.033.097.033.07.022.07.023.062.019.06.018.053.016.053.015.074.022.074.02.079.022.078.021.073.02.073.018.09.023.092.022.07.017.072.016.085.02.085.018.08.017.079.016.095.02.096.018.064.012.064.012.074.013.074.013.092.015.09.015.085.014.084.013.08.011.083.012.089.012.088.012.096.012.096.012.106.011.107.012.07.007.072.007.09.009.09.008.086.007.086.007.065.005.065.005.053.003.053.004.057.003.057.004.088.004.09.005.077.004.078.003.065.002.065.003.076.002.076.003.124.002.124.003h.055l.056.001h.235l.235-.002zm-8.816-4.136v-.566h.225v.008l.005.05.005.05.005.032.004.033.007.033.007.034.01.035.01.036.01.03.012.031.014.03.013.03.017.03.016.028.016.023.015.022.013.016.012.015.018.02.018.02.022.02.022.02.026.02.026.02.026.015.026.016.03.014.031.015.032.012.032.012.031.009.03.008.03.006.03.006.03.003.03.004.046.002h.048l.031-.002.032-.003.026-.005.026-.004.027-.007.027-.007.024-.01.024-.008.022-.012.022-.01.016-.01.016-.01.02-.015.02-.016.018-.019.02-.02.013-.02.014-.02.014-.028.014-.028.006-.021.006-.022.004-.021.004-.021v-.09l-.004-.02-.004-.02-.007-.022-.007-.02-.012-.025-.012-.024-.015-.023-.015-.022-.014-.018-.015-.017-.018-.02-.019-.02-.03-.026-.03-.027-.038-.028-.038-.028-.04-.027-.04-.028-.038-.022-.037-.023-.055-.032-.056-.031-.068-.039-.069-.038-.066-.038-.066-.038-.042-.025-.04-.025-.035-.022-.034-.022-.026-.018-.026-.018-.026-.019-.026-.019-.04-.031-.039-.031-.028-.026-.028-.026-.033-.034-.033-.034-.026-.032-.026-.032-.023-.034-.022-.035-.015-.027-.015-.028-.013-.03-.014-.03-.01-.035-.012-.034-.007-.033-.007-.033-.005-.029-.004-.028V11.1l.004-.029.005-.028.005-.03.006-.028.01-.032.01-.033.012-.033.014-.033.017-.035.017-.034.016-.026.016-.026.017-.023.016-.024.023-.027.023-.028.03-.029.028-.028.026-.023.027-.022.014-.01.014-.011.025-.017.025-.016.023-.014.023-.013.04-.02.041-.02.032-.011.032-.012.032-.01.032-.01.038-.008.038-.008.024-.003.025-.004.027-.003.028-.003h.12l.036.004.035.004.034.006.035.006.038.01.037.01.035.01.034.012.07.027.067.028.042.016.04.017.02.006.02.006h.032l.008-.005.008-.006.006-.01.005-.009.006-.018.006-.02.01-.047.01-.048h.216v1.142H4.12l-.002-.033v-.032l-.005-.037-.003-.037-.005-.03-.005-.029-.007-.03-.006-.032-.008-.025-.007-.026-.01-.031-.01-.03-.016-.033-.014-.031-.014-.028-.015-.027-.02-.03-.02-.031-.02-.025-.02-.025-.024-.025-.024-.024-.024-.02-.023-.02-.032-.021-.032-.021-.038-.02-.038-.018-.036-.012-.036-.012-.03-.007-.032-.007-.03-.004-.03-.004h-.106l-.018.003-.017.003-.024.006-.024.006-.02.008-.02.008-.02.01-.02.01-.014.008-.015.008-.017.013-.018.013-.015.014-.015.013-.018.02-.017.02-.013.019-.013.02-.01.02-.01.021-.007.02-.006.018-.005.024-.005.023v.067l.004.018.004.02.008.021.008.023.013.022.013.023.015.02.015.02.03.031.03.03.024.021.024.02.024.019.024.017.04.026.038.026.04.024.038.023.046.026.046.027.102.055.101.055.042.022.041.023.044.024.044.025.037.023.038.022.032.02.032.02.025.017.025.017.038.027.037.027.034.027.033.027.037.032.036.033.025.027.026.027.02.025.021.025.017.024.016.023.016.025.015.025.011.02.01.02.014.03.013.029.01.03.01.029.007.029.007.028.004.03.005.031.002.04.003.038v.036l-.003.035-.003.034-.004.034-.006.032-.006.033-.007.028-.007.028-.008.026-.009.026-.012.03-.01.03-.016.03-.015.031-.02.032-.019.032-.015.021-.015.021-.02.025-.02.025-.024.026-.025.026-.026.023-.026.024-.027.02-.027.021-.028.018-.027.018-.02.012-.022.012-.033.016-.033.016-.03.012-.03.012-.03.01-.029.01-.04.01-.042.01-.037.007-.037.006-.034.003-.034.004-.048.001-.047.002-.05-.003-.05-.003-.03-.003-.033-.004-.029-.005-.029-.004-.035-.007-.035-.008-.044-.012-.043-.013-.043-.016-.042-.016-.052-.018-.052-.018-.023-.008-.022-.007-.02-.004-.02-.005-.017-.003-.017-.002h-.023l-.024-.001-.006.004-.007.004-.003.005-.004.006-.005.019-.005.018-.005.052-.005.051h-.224zm3.16.544l-.01-.001-.038-.003-.036-.003-.037-.004-.036-.005-.033-.006-.032-.006-.037-.01-.038-.009-.039-.012-.038-.013-.035-.016-.035-.015-.026-.015-.026-.014-.024-.015-.023-.016-.024-.018-.024-.018-.039-.039-.039-.039-.017-.024-.018-.023-.016-.024-.015-.024-.015-.025-.014-.026-.016-.036-.015-.035-.013-.038-.013-.039-.01-.039-.009-.038-.006-.033-.006-.033-.004-.038-.005-.038-.003-.03-.003-.032-.002-.64v-.639l-.004-.02-.003-.02-.003-.014-.004-.014-.007-.015-.008-.016-.01-.007-.013-.008-.018-.006-.018-.006-.024-.003-.025-.004-.046-.003-.047-.002H4.54v-.215h1.1v.215h-.084l-.048.002-.048.003-.026.004-.027.005-.014.005-.014.005-.01.005-.01.007-.007.01-.007.01-.004.01-.004.01-.004.019-.003.02-.002.033-.003.033v1.091l.003.053.002.052.003.048.004.047.005.042.004.043.006.036.006.037.008.028.007.029.007.017.006.017.01.021.011.02.012.018.011.017.017.02.017.02.021.017.021.018.021.014.021.013.031.015.03.015.022.007.021.007.024.006.024.006.02.004.022.003.027.003.028.002h.045l.03-.002.03-.003.026-.003.025-.004.028-.006.029-.006.03-.01.032-.01.026-.01.026-.01.025-.013.026-.013.027-.019.028-.018.023-.02.023-.018.016-.018.016-.017.018-.024.018-.025.012-.023.012-.022.009-.022.008-.021.008-.03.009-.03.007-.033.007-.035.004-.038.005-.037.003-.03.002-.03.002-.05.003-.051v-1.08l-.003-.036-.002-.035-.004-.023-.005-.022-.008-.016-.008-.015-.011-.007-.011-.008-.02-.006-.017-.006-.026-.004-.026-.003-.044-.003-.043-.002H6.12v-.215h.453l.452-.001.525.001.525.001.034.004.034.004.043.008.043.007.038.009.037.01.038.012.039.013.032.015.033.014.027.015.027.014.03.02.03.021.028.021.026.021.026.026.026.026.02.026.02.026.016.023.015.022.013.022.012.021.013.03.013.029.013.038.012.037.007.036.008.035.003.023.003.022v.128l-.006.034-.005.035-.01.038-.01.038-.01.032-.011.031-.013.03-.013.028-.016.03-.017.028-.014.02-.013.02-.016.02-.016.02-.03.03-.03.03-.02.016-.02.016-.026.017-.026.017-.022.013-.023.012-.031.014-.031.014-.032.01-.032.01-.03.008-.03.007-.025.005-.028.005-.027.003-.027.004-.048.002-.05.003-.036-.002-.036-.001-.03-.002-.027-.003-.037-.004-.036-.005-.042-.007-.041-.008-.008-.001-.007-.001v.7l.005.024.005.025.004.014.005.014.007.01.007.01.01.006.01.007.018.005.018.006.026.003.025.004.05.002.05.003h.074v.215h-1.1v-.215l.073-.001.073-.002.026-.002.026-.003.02-.004.023-.004.014-.006.014-.005.012-.012.012-.012.005-.014.005-.014.004-.02.003-.02.003-.037.002-.037v-1.622l-.002-.035-.003-.035-.003-.02-.004-.02-.005-.013-.005-.014-.01-.01-.008-.01-.013-.006-.012-.006-.018-.005-.02-.004-.031-.004-.033-.004h-.231l-.03.003-.027.002-.026.006-.025.006-.015.008-.014.008-.008.01-.007.01-.005.014-.005.015-.004.022-.004.023-.001.634-.002.633-.004.044-.004.043-.005.035-.005.034-.006.031-.006.03-.01.036-.008.036-.007.023-.008.024-.013.033-.013.033-.017.033-.016.033-.013.023-.013.022-.018.025-.018.026-.02.023-.02.023-.03.03-.03.03-.02.016-.02.016-.027.018-.027.019-.03.016-.03.017-.024.011-.025.011-.022.009-.023.009-.026.008-.026.009-.027.007-.027.007-.03.006-.027.006-.032.004-.032.005-.037.004-.036.004h-.084l-.083.001h-.01zm2.31-1.34l.023-.002.02-.006.02-.006.018-.01.018-.01.016-.011.016-.012.02-.022.02-.022.013-.018.012-.017.01-.02.013-.02.01-.024.01-.023.007-.024.008-.023.003-.015.004-.014.005-.028.004-.029.002-.044v-.043l-.003-.035-.004-.034-.006-.026-.006-.027-.008-.025-.008-.026-.013-.026-.012-.026-.01-.016-.01-.017-.011-.014-.011-.014-.017-.018-.016-.017-.02-.015-.018-.014-.01-.007-.01-.006-.016-.008-.017-.009-.013-.004-.012-.005-.022-.006-.02-.006-.025-.004-.023-.003h-.09l-.024.002-.023.003-.026.004-.025.004v.819l.017.002.017.003.027.003.027.004.03.003.03.003.04.001.04.002h.007zm10.33 1.34l-.01-.001-.034-.003-.032-.003-.033-.004-.033-.005-.025-.005-.025-.004-.033-.008-.033-.009-.027-.008-.027-.008-.02-.007-.018-.007-.024-.01-.023-.009-.032-.014-.03-.015-.03-.015-.029-.016-.025-.015-.025-.016-.026-.018-.026-.018-.026-.021-.026-.021-.032-.03-.032-.028-.023-.026-.024-.025-.019-.023-.019-.022-.017-.024-.018-.023-.017-.025-.017-.025-.01-.019-.013-.019-.018-.033-.018-.033-.016-.034-.016-.035-.01-.03-.013-.029-.014-.041-.014-.041-.01-.043-.01-.043-.007-.03-.006-.031-.004-.023-.003-.022-.005-.043-.005-.042-.002-.061-.003-.06.003-.062.002-.06.004-.035.003-.034.005-.033.005-.033.006-.031.006-.03.01-.04.01-.038.011-.04.011-.039.014-.036.014-.037.011-.026.011-.026.021-.043.021-.043.024-.04.024-.04.018-.026.018-.026.018-.023.017-.024.023-.027.023-.027.038-.04.04-.04.028-.025.028-.024.026-.02.026-.02.04-.027.04-.027.03-.016.028-.017.037-.018.038-.018.033-.013.032-.013.036-.012.036-.012.04-.01.04-.011.031-.006.031-.006.035-.005.034-.004.034-.003.034-.003h.128l.03.003.032.003.031.005.032.004.032.007.032.007.033.01.033.01.034.011.033.012.032.014.032.013.035.017.036.017.025.01.025.011.005-.002.004-.002.008-.01.01-.01.005-.012.007-.012.005-.016.006-.017.006-.032.006-.032.001-.007.002-.006h.193l.001.01.002.01.028.442.028.442.002.013v.012h-.192l-.006-.02-.005-.019-.007-.026-.007-.026-.01-.033-.01-.034-.013-.03-.01-.03-.016-.034-.014-.033-.017-.03-.017-.031-.02-.03-.018-.03-.02-.023-.019-.024-.02-.023-.023-.023-.024-.02-.023-.019-.028-.018-.027-.018-.03-.016-.032-.015-.03-.01-.03-.011-.03-.008-.03-.007-.03-.005-.032-.004-.04-.003-.043-.002-.03.001-.029.002-.03.003-.028.004-.029.005-.029.007-.036.012-.037.012-.034.017-.035.017-.028.019-.028.019-.023.019-.022.018-.023.024-.022.023-.02.025-.02.024-.017.026-.017.027-.014.025-.013.024-.013.026-.012.027-.013.033-.013.033-.01.034-.012.034-.01.037-.009.036-.008.042-.008.041-.006.042-.006.041-.004.037-.003.036-.003.04-.003.04v.19l.003.035.003.036.004.032.003.032.007.04.007.04.01.04.01.04.011.036.012.037.012.028.011.028.016.031.015.031.014.022.013.022.017.023.016.023.022.026.021.025.024.022.023.022.021.017.022.016.026.017.026.018.03.015.03.015.031.013.033.014.032.01.032.009.035.007.034.007.031.004.03.003.04.002.04.001.037-.003.038-.002.03-.005.032-.005.03-.007.03-.007.03-.011.03-.01.03-.016.032-.015.028-.019.028-.018.021-.017.021-.016.024-.022.024-.022.025-.028.026-.027.031-.04.032-.038.024-.034.025-.035.035-.052.036-.053h.003l.081.056.081.055.004.004.003.003-.017.033-.017.032-.018.032-.018.032-.02.034-.023.035-.015.022-.015.023-.02.026-.02.026-.025.03-.025.031-.03.03-.028.03-.025.021-.024.022-.022.018-.023.018-.03.02-.03.021-.033.019-.032.018-.026.013-.026.012-.02.008-.02.009-.03.01-.03.011-.035.01-.035.01-.036.006-.036.008-.024.003-.024.004-.036.003-.036.004h-.075l-.074.002-.01-.001zm-5.53-.05l-.292-.001-.375-.532-.376-.532h-.11v.703l.004.02.003.02.004.018.003.017.005.01.004.01.008.01.007.008.014.007.013.007.015.004.015.003.022.004.02.003.055.002.055.003h.067v.215h-1.097v-.214l.07-.002.073-.002.026-.002.026-.003.024-.004.023-.005.017-.008.017-.008.008-.01.007-.008.005-.013.004-.013.004-.016.003-.016.003-.034.003-.033v-1.65l-.003-.035-.003-.034-.004-.02-.005-.021-.006-.012-.006-.012-.007-.006-.008-.007-.01-.005-.012-.006-.02-.005-.017-.004-.02-.003-.018-.002-.042-.003-.041-.002h-.091v-.215H12l.034.002.034.003.039.004.038.005.033.006.032.006.033.008.034.009.037.012.038.013.029.012.028.012.027.015.027.014.022.014.023.014.017.012.017.013.02.018.023.018.024.026.024.025.017.021.016.02.012.02.013.02.012.02.012.022.01.022.01.023.008.022.008.023.01.035.008.036.004.026.004.026.002.036.003.037-.003.038-.002.038-.005.03-.005.029-.005.019-.004.019-.007.022-.008.022-.007.018-.007.018-.015.03-.016.03-.017.027-.018.027-.017.021-.018.022-.033.031-.033.032-.03.023-.03.022-.023.015-.025.015-.028.015-.03.015-.022.01-.024.01-.033.013-.033.013h-.001v.001l.174.25.174.25.04.056.038.056.025.033.025.033.02.025.02.025.04.039.038.039.024.017.024.018.024.013.023.013.02.01.02.009.027.009.028.008.022.005.023.005.025.004.024.004h.105l.028-.003.028-.003.02-.004.022-.004.014-.006.014-.005.013-.012.012-.012.005-.014.005-.014.004-.02.003-.02.003-.045.002-.046v-.807l-.002-.808-.004-.028-.003-.028-.005-.019-.005-.018-.008-.016-.01-.017-.012-.012-.013-.012-.015-.007-.015-.007-.022-.005-.022-.004-.046-.003-.046-.002h-.087v-.215h.758l.374.832.374.831.002.003.002.003.371-.834.371-.835h.375l.375-.001h1.096v.215l-.076.002-.076.001-.03.004-.03.003-.02.005-.02.005-.014.008-.014.008-.007.01-.008.01-.005.014-.005.015-.004.025-.004.025v1.733l.004.026.004.027.005.014.005.013.006.01.006.008.01.007.012.007.018.006.017.005.024.004.024.004.046.002.046.003h.086v.215h-.55l-.548.001h-.546l-.545-.001v-.214l.074-.002.075-.002.03-.003.029-.004.017-.003.017-.004.014-.007.014-.006.008-.006.007-.007.007-.015.007-.014.004-.02.004-.018.003-.025.002-.025.001-.627.001-.628-.002.002-.003.003-.36.812-.36.812h-.078l-.078.001-.363-.814-.362-.814-.002-.002-.003-.003v.63l.002.628.003.025.003.025.003.019.004.019.007.014.007.015.008.006.007.007.015.006.014.007.023.005.024.005.024.002.023.002.074.002.074.002v.214h-.83l-.096.002zm3.46-.22l.027-.004.021-.004.022-.004.014-.005.013-.006.013-.012.012-.012.005-.013.005-.014.004-.021.003-.021.003-.041.002-.041v-1.6l-.002-.041-.003-.042-.003-.02-.004-.02-.005-.014-.005-.014-.012-.012-.012-.012-.014-.006-.014-.005-.022-.004-.02-.005-.025-.002-.023-.003-.109-.001-.109-.001-.05.002-.05.003-.025.003-.024.004-.013.004-.013.003-.012.006-.01.006-.009.007-.007.007-.006.014-.006.014-.004.016-.003.016-.003.03-.004.032v1.669l.004.03.003.031.004.02.005.02.006.01.005.012.007.006.007.007.012.005.012.007.018.004.02.005.02.003.02.003.04.001.04.002h.114l.115-.001zm-4.541-1.112l.035-.003.029-.003.028-.004.026-.005.026-.005.026-.006.026-.007.028-.01.029-.01.026-.012.026-.013.02-.012.02-.012.014-.011.014-.011.015-.014.015-.015.014-.016.014-.017.01-.015.01-.016.01-.021.01-.021.008-.027.009-.028.004-.02.003-.02.002-.032.002-.031-.002-.034-.002-.033-.004-.021-.003-.021-.006-.023-.006-.022-.01-.024-.01-.024-.01-.019-.01-.019-.012-.016-.011-.017-.015-.016-.014-.016-.016-.014-.016-.014-.02-.013-.018-.013-.021-.01-.022-.01-.021-.008-.022-.007-.025-.006-.024-.005h-.125l-.033.004-.033.004-.03.005-.028.005h-.003v.806h.037zm-2.9 1.224v-.108l.072-.001.073-.002.025-.002.025-.003.02-.003.02-.004.016-.006.017-.006.012-.012.012-.012.005-.016.006-.016.003-.018.003-.019.003-.053.002-.053v-.816l-.001-.816-.003-.02-.003-.02-.004-.018-.003-.017-.006-.013-.006-.012-.01-.01-.011-.009-.014-.005-.013-.005-.022-.004-.02-.005-.027-.002-.026-.003-.073-.001-.072-.002v-.214h.925l.925.001.02.32.019.32v.011h-.214l-.01-.055-.01-.055-.01-.036-.007-.037-.01-.03-.01-.031-.01-.022-.012-.021-.011-.015-.012-.014-.011-.01-.012-.01-.016-.008-.015-.008-.021-.006-.02-.006-.027-.004-.027-.004h-.32l-.322-.001v.746h.19l.188.001.063-.002.064-.003.023-.003.022-.004.02-.007.018-.006.014-.01.013-.008.01-.01.01-.012.006-.012.007-.012.007-.02.007-.021.005-.026.005-.025.002-.02.003-.021.003-.05.004-.049v-.015h.21v.95h-.208l-.001-.012-.001-.012-.004-.04-.004-.04-.004-.035-.005-.035-.007-.028-.007-.028-.01-.021-.01-.021-.012-.012-.01-.011-.013-.008-.013-.009-.017-.005-.017-.006-.02-.004-.02-.003-.027-.003-.028-.002h-.456v.405l.002.405.003.01.003.01.008.007.008.007.012.002.012.003h.555l.024-.003.025-.002.023-.005.023-.004.023-.008.023-.007.02-.01.02-.009.025-.017.025-.016.033-.034.033-.033.022-.028.02-.029.026-.038.025-.037.02-.036.022-.035.027-.048.027-.048h.217l-.001.003-.001.003-.118.36-.118.36H8.85zm10.597 0v-.108l.072-.001.071-.002.026-.002.026-.003.024-.004.024-.005.014-.007.014-.006.01-.008.007-.007.006-.014.006-.014.004-.018.004-.018.003-.03.003-.03v-1.665l-.003-.03-.003-.03-.004-.019-.004-.018-.005-.013-.006-.013-.007-.007-.006-.007-.013-.006-.014-.007-.018-.005-.019-.004-.019-.003-.019-.003-.048-.002-.049-.002h-.076v-.215h.575l.575.001.035.004.036.004.032.005.032.005.038.008.04.009.035.01.036.011.033.013.033.013.03.015.03.015.025.016.025.015.027.02.027.02.026.026.027.025.02.022.017.023.022.032.021.031.018.038.02.038.007.024.01.024.005.021.006.021.006.026.005.027.004.027.003.027.002.033.001.033-.002.034-.003.034-.005.028-.004.027-.007.028-.007.027-.01.027-.01.027-.012.026-.013.026-.013.022-.014.023-.02.026-.019.026-.02.021-.02.022-.017.016-.018.016-.018.015-.017.014-.026.018-.026.018-.02.01-.018.012-.03.015-.03.016-.027.01-.025.01-.023.009-.023.008v.001l.186.271.19.27.027.041.03.04.025.034.026.035.018.021.017.021.026.027.027.027.023.02.024.02.022.014.023.015.023.011.023.012.018.007.02.007.026.008.027.008.037.006.036.006.045.004.045.003h.004v.21h-.71l-.377-.531-.376-.532h-.109v.684l.003.029.003.029.004.017.004.017.006.013.005.013.008.008.007.007.016.008.015.007.024.004.024.005.026.003.026.002.071.002.072.001v.215H19.45v-.107zm.855-1.224l.036-.003.028-.003.028-.004.026-.005.026-.005.026-.006.026-.007.03-.01.027-.01.026-.012.026-.013.02-.012.02-.012.02-.015.02-.015.02-.021.018-.021.015-.023.015-.022.01-.02.01-.02.006-.022.007-.022.005-.024.004-.025.003-.032.003-.031-.002-.026v-.026l-.005-.025-.003-.024-.006-.024-.006-.023-.009-.023-.008-.023-.008-.017-.009-.016-.013-.02-.013-.02-.015-.019-.016-.018-.017-.016-.018-.015-.017-.012-.017-.012-.024-.011-.023-.012-.02-.007-.022-.007-.024-.005-.024-.005-.046-.002h-.046l-.032.002-.032.003-.034.005-.034.004-.015.003-.015.002v.806h.037zm2.65-3.453l-.017-.002-.025-.005-.025-.005-.025-.008-.024-.008-.024-.011-.024-.012-.016-.01-.017-.01-.018-.014-.018-.014-.015-.013-.014-.013-.018-.022-.018-.022-.013-.019-.013-.02-.013-.028-.014-.03-.01-.027-.007-.027-.004-.022-.003-.023-.002-.036-.001-.037.004-.029.003-.028.006-.023.006-.024.012-.027.01-.028.015-.023.013-.022.014-.02.015-.019.019-.02.02-.019.016-.013.016-.013.02-.013.02-.014.026-.011.024-.012.025-.009.025-.008.028-.006.029-.006.047-.001.047-.002.027.004.028.004.023.006.024.006.02.008.02.008.02.01.02.01.02.013.02.013.017.013.017.014.02.022.022.023.016.022.016.022.014.029.014.028.01.029.01.028.004.027.005.027v.027l.003.028-.003.028-.003.028-.004.023-.005.023-.007.022-.007.021-.007.017-.008.017-.012.021-.011.02-.015.02-.014.02-.014.015-.014.015-.017.015-.017.015-.026.018-.026.017-.025.012-.024.012-.02.007-.021.007-.027.006-.027.006-.025.002-.024.003h-.05zm.098-.088l.022-.003.02-.007.023-.006.02-.01.023-.01.017-.012.018-.012.015-.013.015-.013.013-.015.013-.015.01-.017.012-.016.01-.021.01-.022.009-.022.008-.022.004-.027.005-.027v-.07l-.005-.027-.004-.027-.007-.022-.008-.022-.008-.017-.008-.018-.016-.024-.015-.024-.02-.021-.022-.021-.018-.014-.018-.014-.024-.012-.023-.012-.02-.007-.022-.007-.022-.004-.023-.004h-.073l-.024.005-.024.005-.02.008-.022.007-.014.007-.014.007-.02.013-.02.013-.02.02-.022.02-.015.02-.016.021-.014.028-.014.027-.007.024-.007.023-.004.021-.004.021v.078l.004.022.004.021.006.021.006.022.014.028.014.03.018.023.018.024.018.016.018.017.023.016.023.015.02.01.022.008.02.006.022.007.02.003.02.003h.057zm-.21-.317v-.206l.015-.003.016-.003.02-.002.02-.003.053-.001.054-.002.028.003.028.003.017.005.018.005.016.007.015.007.01.01.01.011.007.014.008.014.002.014.003.013v.02l-.002.019-.006.013-.007.013-.01.011-.01.01-.012.008-.011.007-.014.005-.013.005v.005l.015.008.015.008.01.011.01.012.008.014.008.015.005.02.006.021.009.037.008.036.006.011.006.012h-.104l-.006-.014-.006-.014-.01-.039-.01-.038-.002-.009-.002-.008-.005-.008-.004-.009-.01-.01-.01-.01-.014-.003-.012-.004-.036-.001-.036-.002v.169h-.095zm.19-.034l.017-.005.01-.008.01-.007.006-.01.005-.012V8.11l-.003-.01-.003-.01-.01-.01-.012-.012-.017-.005-.018-.005h-.052l-.013.002-.014.002v.12h.04l.04-.002z"/></svg>