<svg viewBox="0 0 16 16" xmlns="http://www.w3.org/2000/svg" fill-rule="evenodd" clip-rule="evenodd" stroke-linejoin="round" stroke-miterlimit="1.414"><path d="M13.925 9.653c-.988.28-1.66.858-1.66 1.81v2.72c0 2.033-1.938 1.81-4.344 1.81h-.37c-.15 0-.24-.056-.24-.187v-.932c0-.13.08-.187.23-.187h.3c1.44 0 2.45.317 2.45-.84v-2.61c0-.8.56-1.92 1.68-2.33.08-.02.09-.056.09-.093s-.02-.093-.09-.13c-1.02-.467-1.68-1.23-1.68-2.145V3.59c0-1.138-1-2.275-2.44-2.275h-.3c-.15 0-.22-.056-.22-.186V.2c0-.13.1-.187.25-.187h.37c2.4 0 4.36 1.715 4.36 3.747v2.48c0 .94.67 1.48 1.68 1.83.37.11.58.13.58.43v.78c.02.17-.16.25-.61.38zM5.41 15.98H1.683c-.15 0-.224-.037-.224-.168V.186c0-.11.07-.186.22-.186h3.69c.15 0 .24.056.24.186v.97c0 .13-.08.168-.23.168H3.73c-.203 0-.28.074-.28.205v12.94c0 .13.077.18.245.18h1.678c.15 0 .242.05.242.17v.99c.02.11-.056.17-.205.17zm3.25-8.69h-.99c-.242 0-.428-.187-.428-.393v-.895c0-.223.205-.39.428-.39h.99c.24 0 .428.185.428.39v.895c0 .224-.206.392-.43.392z"/></svg>