<svg role="img" viewBox="0 0 24 24" xmlns="http://www.w3.org/2000/svg"><title>SurveyMonkey icon</title><path d="M21.1633 13.18435a2.85831 2.85831 0 00-.6779.0841 8.73754 8.73754 0 00-6.9176-6.44562c-.1509-.02695-.2867-.04742-.4408-.06682a2.864 2.864 0 011.2782-2.63708l-.1919-.48388S11.8424 4.37 11.5741 6.395c-.1175-.5507-1.221-1.24041-1.76739-1.37081l-.27158.43861a1.9044 1.9044 0 01.901 1.36111 8.73782 8.73782 0 00-6.92089 6.44025 2.83431 2.83431 0 10.35779 5.3884 8.69059 8.69059 0 00.92034 1.7124l2.35258-1.5853-.02048-.0258a5.80476 5.80476 0 01-1.0669-3.1479 4.18939 4.18939 0 011.07013-3.3301c1.70166-1.4484 3.55633-.7877 4.71373.6003h.3115c1.1607-1.388 3.0175-2.0476 4.7138-.6003a4.19444 4.19444 0 011.0701 3.3301 5.78746 5.78746 0 01-1.0669 3.1479l-.0205.0258L19.203 20.365a8.68938 8.68938 0 00.9225-1.7124 2.83322 2.83322 0 101.0378-5.4682zm-18.37768 3.6641a.83625.83625 0 11.46879-1.5281 12.70517 12.70517 0 00.08945 1.3137.83644.83644 0 01-.56147.2198zm18.42828 0a.83632.83632 0 01-.5582-.2155 12.7089 12.7089 0 00.0895-1.3137.83895.83895 0 11.4698 1.5346z"/></svg>