<svg role="img" viewBox="0 0 24 24" xmlns="http://www.w3.org/2000/svg"><title>Svelte icon</title><path d="M20.71633 3.16314a7.30822 7.30822 0 00-9.81103-2.10237L5.299 4.62478a6.36716 6.36716 0 00-2.89325 4.30484 6.6675 6.6675 0 00.67075 4.33487 6.14691 6.14691 0 00-.95107 2.4027 6.8477 6.8477 0 001.1613 5.16581 7.33825 7.33825 0 009.81104 2.12239l5.6063-3.564a6.36716 6.36716 0 002.88324-4.30485 6.6675 6.6675 0 00-.67075-4.32486 6.79764 6.79764 0 00-.20023-7.59854zM10.34467 21.14335a4.43499 4.43499 0 01-4.76535-1.772c-.65074-.901-.891-2.01225-.7008-3.1135l.11013-.53059.10011-.33037.30034.20022c.66074.50057 1.40158.86097 2.19247 1.10124l.20022.07008-.02002.20023c-.02002.28031.06007.59066.22025.83093.33037.47053.90101.70079 1.45163.55062.12013-.04004.24027-.08009.34038-.14016l5.58628-3.564c.28032-.1802.46052-.4505.5306-.77087.06007-.33037-.02002-.67075-.20023-.94106-.33037-.46052-.90101-.67075-1.45163-.5306-.12013.04006-.25028.0901-.3504.15017l-2.11237 1.34151a4.43499 4.43499 0 01-5.90664-1.28144 4.10461 4.10461 0 01-.70079-3.1135 3.85433 3.85433 0 011.772-2.60292l5.57626-3.56401c.3504-.22025.73083-.38043 1.14129-.50056 1.80202-.47053 3.70416.24027 4.76535 1.76198a4.12464 4.12464 0 01.57065 3.6441l-.10012.33036-.29032-.20022a7.42835 7.42835 0 00-2.20248-1.10124l-.20022-.06007.02002-.20022c.02002-.29033-.06007-.60068-.22025-.84095-.33037-.47052-.90101-.67075-1.45163-.5306-.12014.04005-.24027.0801-.34038.14016l-5.5963 3.59405c-.28031.1902-.46051.4505-.52058.78087-.06007.32036.02002.67076.20023.93105.32036.47053.901.67075 1.44162.5306.13014-.04004.25028-.0801.35039-.14016l2.1324-1.36153c.3504-.23026.74083-.40045 1.14128-.51058 1.81204-.47052 3.70416.24027 4.76536 1.772.65073.901.90101 2.01226.7208 3.10348a3.85433 3.85433 0 01-1.75196 2.60293l-5.58628 3.554a4.90551 4.90551 0 01-1.1613.51057z"/></svg>