<svg role="img" viewBox="0 0 24 24" xmlns="http://www.w3.org/2000/svg"><title>Svelte icon</title><path d="M20.7163 3.1631a7.3082 7.3082 0 00-9.811-2.1023L5.299 4.6248a6.3672 6.3672 0 00-2.8933 4.3048 6.6675 6.6675 0 00.6708 4.3349 6.147 6.147 0 00-.951 2.4027 6.8477 6.8477 0 001.1612 5.1658 7.3382 7.3382 0 009.811 2.1224l5.6064-3.564a6.3672 6.3672 0 002.8832-4.3049 6.6675 6.6675 0 00-.6707-4.3248 6.7976 6.7976 0 00-.2003-7.5986zM10.3447 21.1434a4.435 4.435 0 01-4.7654-1.772c-.6507-.901-.891-2.0123-.7008-3.1135l.1102-.5306.1-.3304.3004.2002c.6607.5006 1.4016.861 2.1925 1.1013l.2002.07-.02.2003c-.02.2803.06.5906.2202.8309.3304.4705.901.7008 1.4516.5506.1202-.04.2403-.08.3404-.1401l5.5863-3.564c.2803-.1803.4605-.4506.5306-.771.06-.3303-.02-.6707-.2002-.941-.3304-.4605-.901-.6707-1.4516-.5306-.1202.04-.2503.0901-.3504.1502l-2.1124 1.3415a4.435 4.435 0 01-5.9067-1.2814 4.1046 4.1046 0 01-.7007-3.1135 3.8543 3.8543 0 011.772-2.603l5.5762-3.564c.3504-.2202.7308-.3804 1.1413-.5005 1.802-.4706 3.7042.2402 4.7654 1.762a4.1246 4.1246 0 01.5706 3.644l-.1001.3304-.2903-.2002a7.4284 7.4284 0 00-2.2025-1.1012l-.2002-.0601.02-.2002c.02-.2904-.06-.6007-.2203-.841-.3303-.4705-.901-.6707-1.4516-.5306-.1201.04-.2403.0801-.3404.1402L8.6127 9.37c-.2803.1902-.4605.4505-.5206.7809-.06.3204.02.6707.2003.931.3203.4706.901.6708 1.4416.5306.1301-.04.2503-.08.3504-.1401l2.1324-1.3616c.3504-.2302.7408-.4004 1.1413-.5105 1.812-.4706 3.7041.2402 4.7653 1.772.6507.901.901 2.0122.7208 3.1035a3.8543 3.8543 0 01-1.752 2.6029l-5.5862 3.554a4.9055 4.9055 0 01-1.1613.5106z"/></svg>