<svg role="img" viewBox="0 0 24 24" xmlns="http://www.w3.org/2000/svg"><title>SVGO icon</title><path d="M21.9685 9.5707a10.3841 10.3841 0 0 0-1.2419-2.851c.4116-.5796.8064-1.1723 1.1723-1.7999l-2.8271-2.8187c-.6432.3768-1.2527.7848-1.8491 1.2107a10.2604 10.2604 0 0 0-2.7599-1.1387c-.12-.72-.2676-1.4483-.4572-2.1731h-4.0054c-.1871.7104-.3275 1.4207-.4475 2.1311a10.302 10.302 0 0 0-2.845 1.1279c-.5724-.4068-1.1591-.798-1.7771-1.1579L2.1023 4.9282c.3408.582.7068 1.1375 1.0871 1.6799a10.3302 10.3302 0 0 0-1.3199 2.9878 25.065 25.065 0 0 0-1.8683.4032v4.0006c.5796.1512 1.1567.2736 1.7363.3792a10.327 10.327 0 0 0 1.2815 3.2602c-.3204.462-.6288.9372-.9168 1.4315l2.8283 2.8283c.48-.2784.9348-.5736 1.3811-.8808A10.3366 10.3366 0 0 0 9.6522 22.41c.0972.5304.2112 1.0607.348 1.5899h4.0006c.1416-.5436.2568-1.0859.36-1.6307a10.2988 10.2988 0 0 0 3.2566-1.4063c.4716.3264.96.642 1.4567.936l2.8271-2.8283c-.3144-.5364-.6528-1.0511-1.0043-1.5599a10.3406 10.3406 0 0 0 1.1999-3.109c.6336-.1116 1.2683-.24 1.9019-.4056v-3.997c-.6755-.1752-1.3534-.3132-2.0302-.4284zM9.0019 19.2302c-2.8468-1.16-4.7761-4.1574-4.6367-7.2251C4.4578 7.9774 7.9643 4.6082 12 4.6993c3.9737.0002 7.3883 3.3355 7.4751 7.3058.1369 3.0276-1.7365 5.9775-4.5191 7.1759-1.8918.8285-4.0503.8554-5.9541.0492zm8.3648-4.6125c-.167-.8222-.9689-1.3534-1.7911-1.1864a1.5195 1.5195 0 0 0-.7612.404l-1.1999-.8928c.5343-.9115.2988-2.0789-.5472-2.7119l.9732-1.6643c.548.1638 1.1249-.1477 1.2887-.6956s-.1476-1.1249-.6956-1.2887c-.548-.1638-1.1249.1477-1.2887.6956a1.0355 1.0355 0 0 0 .2804 1.0487l-.9696 1.6643c-1.0007-.4411-2.172-.0281-2.6747.9432l-2.0603-.81v-.0204c.0535-.5274-.3308-.9983-.8582-1.0517s-.9984.3308-1.0518.8583a.96.96 0 0 0 1.7313.6615l2.0627.8088c-.2.7833.0736 1.6114.7008 2.1215l-.96 1.4963c-.6575-.2639-1.4043.0552-1.6682.7127-.2639.6575.0552 1.4043.7127 1.6682.6575.2639 1.4043-.0552 1.6682-.7127a1.2828 1.2828 0 0 0-.3083-1.409l.96-1.4951a2.0759 2.0759 0 0 0 2.4179-.4368l1.1999.8964c-.3857.7451-.0943 1.6618.6508 2.0474.7451.3857 1.6618.0943 2.0474-.6508a1.5192 1.5192 0 0 0 .1396-1.0006l.0012-.0001z"/></svg>