<svg role="img" viewBox="0 0 24 24" xmlns="http://www.w3.org/2000/svg"><title>SVGO icon</title><path d="M21.969 9.571a10.404 10.404 0 0 0-1.242-2.851c.412-.58.806-1.172 1.172-1.8l-2.827-2.819c-.643.377-1.253.785-1.849 1.211a10.253 10.253 0 0 0-2.76-1.139A24.73 24.73 0 0 0 14.006 0H10c-.187.71-.327 1.421-.447 2.131-.999.232-1.958.612-2.845 1.128a23.462 23.462 0 0 0-1.777-1.158L2.102 4.928a24.51 24.51 0 0 0 1.087 1.68 10.329 10.329 0 0 0-1.32 2.988c-.625.11-1.246.244-1.868.403V14c.58.151 1.157.274 1.736.379a10.332 10.332 0 0 0 1.281 3.26c-.32.462-.629.937-.917 1.432l2.828 2.828c.48-.278.935-.574 1.381-.881a10.334 10.334 0 0 0 3.341 1.392c.099.53.213 1.061.349 1.59h4.001c.142-.544.257-1.086.36-1.631a10.313 10.313 0 0 0 3.257-1.406c.472.326.96.642 1.457.936l2.827-2.828a25.098 25.098 0 0 0-1.004-1.56c.565-.965.971-2.015 1.2-3.109.634-.112 1.268-.24 1.902-.406V9.999a24.556 24.556 0 0 0-2.031-.428zm-7.013 9.61a7.567 7.567 0 0 1-2.956.637c-4.16.14-7.871-3.639-7.635-7.818.06-3.979 3.649-7.425 7.635-7.301 3.927-.032 7.419 3.377 7.475 7.301.139 3.029-1.735 5.982-4.519 7.181zm2.411-4.563h-.001a1.52 1.52 0 1 1-2.838-.395l-1.2-.896a2.077 2.077 0 0 1-2.418.437l-.96 1.495A1.283 1.283 0 1 1 9.545 15l.96-1.496a2.073 2.073 0 0 1-.701-2.121l-2.063-.809a.958.958 0 0 1-1.731-.662.96.96 0 1 1 1.91.194v.02l2.06.81a2.072 2.072 0 0 1 2.675-.943l.97-1.664a1.035 1.035 0 1 1 .416.24l-.973 1.664c.846.633 1.081 1.8.547 2.712l1.2.893c.209-.205.474-.346.761-.404a1.515 1.515 0 0 1 1.791 1.184z"/></svg>