<svg viewBox="0 0 16 16" xmlns="http://www.w3.org/2000/svg" fill-rule="evenodd" clip-rule="evenodd" stroke-linejoin="round" stroke-miterlimit="1.414"><g fill-rule="nonzero"><path d="M6.6 12.822c-.397-.896-.614-1.866-.638-2.84-.642.993-1.127 1.992-1.45 2.737-.016.03-.253.62-.322.8-.086.22.03.49.256.57.182.07.776.28.813.3.76.25 1.81.56 2.97.75-.69-.66-1.24-1.45-1.63-2.33zM8.14 5.59C5.885.983.875 1.148.085 3.207c-.607 1.582 2.048 5.35 8.16 2.63l.002-.003c-.02-.038-.092-.2-.107-.242zm1.06-.315C7.95 2.178 10.135.4 11.337.862c.893.343 1.375 3.012-2.076 4.55 0-.023-.05-.115-.06-.137zm6.407 3.51C15.084 7.61 14.125 6.77 13.01 6.37c-.112-.042-.227-.06-.34-.06-.58 0-1.138.482-1.19 1.084-.09 1.004.11 2.026.55 3.01.43.973 1.044 1.794 1.833 2.397.205.16.456.24.707.24.452 0 .903-.24 1.082-.67.46-1.1.482-2.39-.045-3.58z"/><path d="M12.987 13.946c-.965-.74-1.73-1.733-2.274-2.954-.552-1.24-.777-2.492-.67-3.724.03-.343.13-.674.292-.976l-.092.023c-.508.127-1 .348-1.437.635-.633.417-1.192 1.034-1.432 1.764-.065.197-.114.413-.13.62-.077.986.084 2.006.514 2.973.417.936 1.04 1.716 1.79 2.31.456.365 1.28.594 1.954.594.633 0 1.257-.18 1.818-.47.175-.09.56-.33.586-.35-.334-.08-.648-.23-.92-.44z"/></g></svg>