<svg role="img" viewBox="0 0 24 24" xmlns="http://www.w3.org/2000/svg"><title>Swift</title><path d="M5.914 0c-.136 0-.271 0-.385.023-.385.023-.792.046-1.177.114a6.45 6.45 0 0 0-1.133.316c-.114.045-.25.115-.364.16a5.89 5.89 0 0 0-.998.657c-.09.09-.202.182-.293.273-.385.386-.68.816-.93 1.27a5.07 5.07 0 0 0-.497 1.498C.047 4.832.023 5.354 0 5.898V18.08c.023.522.046 1.066.137 1.588.09.522.248 1.02.498 1.496s.544.909.93 1.272c.385.385.814.68 1.267.93.476.249.975.407 1.496.497A9.135 9.135 0 0 0 5.914 24h12.172c.521-.023 1.065-.046 1.586-.137a5.054 5.054 0 0 0 1.496-.498c.476-.25.905-.544 1.268-.93.385-.385.68-.817.93-1.27.249-.477.407-.975.497-1.497.09-.522.137-1.043.137-1.588V5.92c-.023-.522-.046-1.066-.137-1.588a5.058 5.058 0 0 0-.498-1.496c-.25-.476-.544-.909-.93-1.272a5.52 5.52 0 0 0-1.267-.93 5.054 5.054 0 0 0-1.496-.497A9.163 9.163 0 0 0 18.086 0Zm7.594 3.402c4.124 2.473 6.548 7.19 5.55 11.16l-.066.274c2.085 2.54 1.519 5.261 1.201 4.785-1.087-2.087-3.083-1.565-4.103-1.043-.09.045-.181.113-.272.158 0 .023-.021.024-.021.024-2.108 1.134-4.965 1.201-7.82-.024a12.621 12.621 0 0 1-5.643-4.853c.657.476 1.36.908 2.107 1.248 3.015 1.429 6.053 1.316 8.205 0-3.059-2.36-5.62-5.423-7.57-7.918A11.867 11.867 0 0 1 4.08 5.83c2.357 2.132 6.05 4.832 7.387 5.58-2.81-2.971-5.303-6.646-5.19-6.533 4.442 4.469 8.545 7.01 8.545 7.01.159.068.27.135.362.203.09-.227.158-.453.226-.68.703-2.586-.09-5.558-1.902-8.008z"/></svg>