<svg role="img" viewBox="0 0 24 24" xmlns="http://www.w3.org/2000/svg"><title>Swift</title><path d="M5.92 0c-.14 0-.28 0-.4.02-.38.03-.79.05-1.17.12a6.3 6.3 0 0 0-1.13.3l-.36.17c-.37.18-.68.41-1 .66l-.3.27A5.07 5.07 0 0 0 .13 4.3C.05 4.83.03 5.35 0 5.9v12.18c.02.52.05 1.07.14 1.59a5.07 5.07 0 0 0 2.7 3.7c.47.24.97.4 1.49.5.52.08 1.04.13 1.59.13h12.16c.53-.02 1.07-.05 1.6-.14a5.05 5.05 0 0 0 3.69-2.7c.24-.47.4-.97.5-1.5.08-.51.13-1.04.13-1.58V5.92a12.2 12.2 0 0 0-.14-1.59 5.07 5.07 0 0 0-2.7-3.7c-.47-.24-.97-.4-1.49-.5A9.17 9.17 0 0 0 18.08 0H5.92zm7.59 3.4c4.12 2.48 6.55 7.2 5.55 11.16-.02.1-.05.18-.06.28h-.01c2.09 2.54 1.52 5.26 1.2 4.78-1.1-2.1-3.08-1.56-4.1-1.04-.09.04-.18.11-.27.16 0 .02-.02.02-.02.02-2.12 1.13-4.97 1.2-7.82-.02a12.62 12.62 0 0 1-5.65-4.86c.66.48 1.36.91 2.12 1.25 3 1.43 6.04 1.32 8.2 0-3.06-2.36-5.62-5.42-7.58-7.92-.36-.43-.7-.9-1-1.38a57.43 57.43 0 0 0 7.4 5.58 53.7 53.7 0 0 1-5.2-6.53 52.37 52.37 0 0 0 8.55 7.01c.16.06.27.13.36.2.09-.23.16-.45.23-.68.7-2.59-.09-5.56-1.9-8.01z"/></svg>