<svg role="img" viewBox="0 0 24 24" xmlns="http://www.w3.org/2000/svg"><title>Swiggy icon</title><path d="M13.05 4.7123a.3564.3564 0 01.3765.402c.0024.1103.0042.2206.0043.331.0007.7109-.003 1.422.0025 2.1328.0039.5203.0954.6205.5993.683a17.7998 17.7998 0 003.778-.055 5.9386 5.9386 0 001.8875-.4486.6087.6087 0 00.4136-.723 8.1981 8.1981 0 00-6.4124-6.854 7.9307 7.9307 0 00-4.3786.2917 8.0624 8.0624 0 00-3.2325 2.1022 7.5272 7.5272 0 00-2.2165 5.142 13.4266 13.4266 0 001.8309 6.622 1.6107 1.6107 0 001.596.8967c.784-.0188 1.569-.0042 2.3535-.0042v-.0042q1.2504 0 2.5006.0006c.2992.0007.536.0722.5336.4468-.0055.8703.0008 1.7407-.004 2.611-.0015.2641-.0759.5184-.3914.5209-.3167.0025-.3917-.2508-.3957-.5155-.006-.4166.0003-.8335.0008-1.2502.0005-.5413-.0882-.6682-.628-.7669a9.2436 9.2436 0 00-2.8178-.0239 3.1154 3.1154 0 00-.9608.2338c-.2542.1196-.3553.294-.2318.5608.1285.2775.2483.5607.3999.8255a52.655 52.655 0 004.1122 5.9474c.1847.2393.3278.2443.5173.0126.4185-.5118.858-1.0064 1.272-1.5216a41.0756 41.0756 0 004.2921-6.3125 17.0071 17.0071 0 001.7936-4.6462 1.444 1.444 0 00-1.2141-1.962 8.332 8.332 0 00-2.0048-.194c-1.0909-.008-2.182-.0041-3.2729-.0031-.2938.0003-.5123-.0841-.5125-.4288-.0006-1.2135-.0022-2.4271.0022-3.6406.001-.259.1259-.4181.4073-.4085z"/></svg>