<svg role="img" viewBox="0 0 24 24" xmlns="http://www.w3.org/2000/svg"><title>SWI Prolog</title><path d="M7.96 6.793a2.072 2.072 0 1 0 0 4.143 2.072 2.072 0 0 0 0-4.143zm0 3.397a1.326 1.326 0 1 1-.002-2.65 1.326 1.326 0 0 1 .001 2.65zm-.19-1.792a.397.397 0 1 1-.795 0 .397.397 0 0 1 .795 0zm9.953 2.538a2.072 2.072 0 1 0 0-4.143 2.072 2.072 0 0 0 0 4.143zm0-3.397a1.325 1.325 0 1 1 0 2.65 1.325 1.325 0 0 1 0-2.65zm-.984.86a.397.397 0 1 1 .794 0 .397.397 0 0 1-.794 0zm2.981-4.021c-.326-1.047-.718-3.103.705-4.296 0 0-2.746-.648-4.278 1.707A10.178 10.178 0 0 0 12 .907c-1.481 0-2.894.319-4.18.896C6.29-.57 3.532.082 3.532.082c1.457 1.221 1.013 3.345.683 4.366C2.381 6.49 1.253 9.25 1.253 12.29c0 2.42 1.554 5.169 1.865 8.853l1.968-1.705s.547.367 1.612.748A2.482 2.482 0 0 0 6.403 24a1.995 1.995 0 0 1-.01-.199c0-1.03.807-1.865 1.802-1.865.996 0 1.803.835 1.803 1.865l-.002.059a2.474 2.474 0 0 0 .276-2.909 18.31 18.31 0 0 0 3.255.019 2.472 2.472 0 0 0 .288 2.89c-.001-.02-.003-.039-.003-.059 0-1.03.807-1.865 1.803-1.865.996 0 1.803.835 1.803 1.865 0 .067-.004.133-.01.199a2.478 2.478 0 0 0-.234-3.767c1.153-.398 1.74-.795 1.74-.795l1.968 1.705c.312-3.684 1.865-6.434 1.865-8.853 0-3.075-1.155-5.864-3.027-7.912zm-17.683 8.55c-.147.744.63 1.316.63 1.316s.934-.233 1.081-.976c-.184.928-1.217 1.657-1.217 1.657s-.677-1.067-.494-1.996zm.543 2.055c-.147.743.63 1.315.63 1.315s.933-.233 1.08-.976c-.183.929-1.217 1.657-1.217 1.657s-.677-1.067-.493-1.996zm1.937-.367s.934-.233 1.08-.976c-.183.928-1.216 1.657-1.216 1.657s-.677-1.067-.494-1.996c-.147.743.63 1.315.63 1.315zm-.894 4.446s-.677-1.067-.493-1.996c-.147.744.63 1.316.63 1.316s.933-.234 1.08-.976c-.183.928-1.217 1.656-1.217 1.656zm1.3-1.711s-.677-1.067-.493-1.996c-.147.743.629 1.315.629 1.315s.934-.233 1.081-.976c-.184.929-1.217 1.657-1.217 1.657zm1.3-1.684s-.676-1.067-.493-1.996c-.147.744.63 1.316.63 1.316s.934-.234 1.081-.976c-.184.928-1.217 1.656-1.217 1.656zm5.717 1.07c0-1.403-1.908-3.327-2.319-4.891a4.222 4.222 0 0 1-2.542.85 4.247 4.247 0 1 1 4.247-4.246c0 .19-.017.376-.042.56a2.395 2.395 0 0 1 1.354.01 4.263 4.263 0 0 1-.043-.57 4.247 4.247 0 1 1 4.247 4.247c-.97 0-1.862-.33-2.578-.878-.395 1.57-2.324 3.507-2.324 4.918zm8.152-3.436c.184.929-.493 1.996-.493 1.996s-1.034-.729-1.217-1.657c.147.743 1.081.976 1.081.976s.776-.572.63-1.315zm-3.554.71c.148.742 1.082.976 1.082.976s.776-.572.63-1.316c.183.93-.494 1.996-.494 1.996s-1.034-.728-1.218-1.656zm1.302 1.683c.147.743 1.08.976 1.08.976s.777-.572.63-1.315c.184.929-.493 1.996-.493 1.996s-1.034-.728-1.217-1.657zm2.516 3.368s-1.033-.728-1.217-1.656c.147.742 1.082.976 1.082.976s.775-.572.629-1.316c.183.93-.494 1.996-.494 1.996zm.55-2.083s-1.033-.728-1.217-1.657c.147.743 1.081.976 1.081.976s.777-.572.63-1.315c.183.929-.494 1.996-.494 1.996zm-.675-3.711c.148.743 1.082.976 1.082.976s.776-.572.63-1.315c.183.929-.494 1.996-.494 1.996s-1.034-.729-1.218-1.657zm-6.244-1.97c0 .728-.592 1.674-1.166 2.589-.33.526-.65 1.038-.881 1.531-.232-.493-.552-1.005-.882-1.531-.573-.915-1.165-1.861-1.165-2.589A2.04 2.04 0 0 1 11.94 9.27a2.04 2.04 0 0 1 2.047 2.03z"/></svg>