<svg role="img" viewBox="0 0 24 24" xmlns="http://www.w3.org/2000/svg"><title>SWI Prolog</title><path class="st2" d="M19.4442.0007c-.9367.0159-2.3649.3131-3.3203 1.786-1.2738-.5732-2.6751-.8757-4.14-.8757-1.481 0-2.898.3184-4.1719.8916C6.2834-.57 3.5285.0831 3.5285.0831c1.449 1.226 1.0193 3.3437.6849 4.3627C2.3822 6.484 1.2517 9.239 1.2517 12.2804c0 2.4203 1.5603 5.1591 1.8629 8.8533l1.9746-1.7036s.5432.3633 1.6004.7426c-.6488.4487-1.0751 1.1974-1.0751 2.044 0 .7006.2868 1.3374.7485 1.7833.016-.0637 0-.1275 0-.2072 0-1.035.812-1.8629 1.7992-1.8629.9873 0 1.7995.828 1.7995 1.863v.0637c.3821-.4458.621-1.0189.621-1.6399 0-.4683-.1304-.9067-.3567-1.281a18.261 18.261 0 0 0 1.774.0868 18.402 18.402 0 0 0 1.5046-.062 2.4678 2.4678 0 0 0-.3424 1.2562c0 .621.239 1.1941.6211 1.64v-.0638c0-1.035.7963-1.863 1.7995-1.863.9872 0 1.7991.828 1.7991 1.863v.207c.4618-.4458.7486-1.0826.7486-1.7832 0-.8091-.3893-1.5291-.9902-1.983 1.1726-.4005 1.7702-.8036 1.7702-.8036l1.9746 1.7037c.3185-3.6783 1.8632-6.433 1.8632-8.8534-.0318-3.0573-1.1944-5.8439-3.0575-7.898-.3184-1.051-.7164-3.105.7007-4.2993 0 0-.3852-.0919-.9473-.0824zM7.0476 4.207a4.2516 4.2516 0 0 1 4.2517 4.2517 4.2516 4.2516 0 0 1-.065.5773 2.4152 2.4152 0 0 1 .686-.0995c.2443 0 .48.036.7026.103a4.2516 4.2516 0 0 1-.0656-.5807 4.2516 4.2516 0 0 1 4.2515-4.2518 4.2516 4.2516 0 0 1 4.2514 4.2518 4.2516 4.2516 0 0 1-4.2514 4.2514 4.2516 4.2516 0 0 1-2.5583-.8696c-.403 1.5642-2.33 3.4866-2.33 4.8984 0-1.4092-1.9199-3.327-2.3277-4.8897a4.2516 4.2516 0 0 1-2.5452.861A4.2516 4.2516 0 0 1 2.796 8.4587 4.2516 4.2516 0 0 1 7.0476 4.207zm.892 2.5956a2.066 2.066 0 0 0-2.0701 2.0701 2.066 2.066 0 0 0 2.07 2.07 2.066 2.066 0 0 0 2.07-2.07 2.066 2.066 0 0 0-2.07-2.07zm9.745 0a2.066 2.066 0 0 0-2.0701 2.0701 2.066 2.066 0 0 0 2.07 2.07 2.066 2.066 0 0 0 2.0701-2.07 2.066 2.066 0 0 0-2.07-2.07zm-9.745.7483A1.3216 1.3216 0 0 1 9.261 8.8727a1.3216 1.3216 0 0 1-1.3215 1.3218 1.3216 1.3216 0 0 1-1.3217-1.3218 1.3216 1.3216 0 0 1 1.3217-1.3218zm9.745 0a1.3216 1.3216 0 0 1 1.3217 1.3218 1.3216 1.3216 0 0 1-1.3218 1.3218 1.3216 1.3216 0 0 1-1.3217-1.3218 1.3216 1.3216 0 0 1 1.3217-1.3218zm-10.3344.4619a.398.398 0 0 0-.3981.398.398.398 0 0 0 .398.3981.398.398 0 0 0 .3982-.398.398.398 0 0 0-.3981-.3981zm9.7612 0a.398.398 0 0 0-.3981.398.398.398 0 0 0 .398.3981.398.398 0 0 0 .3982-.398.398.398 0 0 0-.3981-.3981zm-5.1972 1.323c-1.3217 0-1.9217.6946-1.9217 2.0004 0 1.64 1.5526 2.5802 1.9014 4.2352.4764-1.6629 2.0082-2.6548 2.0082-4.295 0-1.3216-.6663-1.9406-1.988-1.9406zM2 12.9173c-.1434.7484.6369 1.3215.6369 1.3215s.9396-.2229 1.083-.9713c-.1752.9395-1.2264 1.6402-1.2264 1.6402S1.809 13.841 2 12.9173zm19.9201 0c.1911.9236-.4935 1.9904-.4935 1.9904s-1.0509-.7007-1.226-1.6402c.1433.7484 1.0826.9713 1.0826.9713s.7802-.573.637-1.3215zm-18.0535.4519c-.099.714.6332 1.2518.6332 1.2518s.8773-.2082 1.0655-.8979c-.2278.8878-1.1927 1.5669-1.1927 1.5669s-.6504-1.0141-.506-1.9208zm16.2027 0c.1444.9067-.5057 1.9208-.5057 1.9208s-1.0352-.7167-1.2104-1.6403c.1433.7484 1.083.9713 1.083.9713s.7321-.5378.6331-1.2518zm-14.3715.366c-.099.714.6332 1.2522.6332 1.2522s.9396-.2229 1.083-.9713c-.1752.9235-1.2102 1.64-1.2102 1.64s-.6506-1.0141-.506-1.9208zm12.5245 0c.1445.9068-.506 1.9208-.506 1.9208s-.9659-.6794-1.193-1.5678c.1876.6904 1.0658.8992 1.0658.8992s.7322-.5381.6332-1.2521zM2.5414 14.9716c-.1433.7484.637 1.3215.637 1.3215s.9392-.223 1.0826-.9713c-.1752.9395-1.226 1.6402-1.226 1.6402s-.6847-1.0668-.4936-1.9904zm18.8373 0c.191.9236-.4936 1.9904-.4936 1.9904s-1.0508-.7007-1.226-1.6402c.1433.7484 1.0826.9713 1.0826.9713s.7803-.5731.637-1.3215zm-16.9744.382c-.1433.7483.637 1.3217.637 1.3217s.8745-.208 1.0645-.895c-.2299.8863-1.2079 1.5636-1.2079 1.5636s-.6847-1.0668-.4936-1.9904zm15.1114 0c.1911.9235-.4935 1.9903-.4935 1.9903s-1.035-.7163-1.2101-1.6399c.1433.7484 1.0826.9713 1.0826.9713s.7803-.5734.621-1.3218zm-16.4011 1.704c-.1592.7483.621 1.3214.621 1.3214s.8747-.2077 1.0646-.8948c-.229.8864-1.192 1.5637-1.192 1.5637s-.6847-1.0668-.4936-1.9904zm17.7033.0696c.1444.9067-.506 1.9208-.506 1.9208s-.963-.6774-1.192-1.5638c.19.6872 1.0645.8948 1.0645.8948s.7325-.5378.6335-1.2518z"/></svg>