<svg role="img" viewBox="0 0 24 24" xmlns="http://www.w3.org/2000/svg"><title>SWR</title><path d="m6.215 9.204-.086.008a.6.6 0 0 0-.126.015s-.015.004-.039.004a2.73 2.73 0 0 0-.192.04c-.125.03-.125.03-.156.041-.016.004-.032.012-.036.012a2.337 2.337 0 0 0-.439.182c-.038.02-.078.038-.085.042-.012.004-.02.012-.02.016s-.008.007-.012.007a.567.567 0 0 0-.102.062.957.957 0 0 1-.11.066c0 .008-.023.027-.05.047-.07.054-.07.054-.125.1-.141.132-.298.29-.318.333-.004.012-.011.02-.02.02-.003 0-.019.023-.038.046-.016.027-.055.081-.083.12a.57.57 0 0 0-.058.096c-.036.012-.231.445-.27.59a8.527 8.528 0 0 0-.067.246c-.004.016-.012.074-.024.128-.02.116-.027.267-.03.627 0 .15-.005.286-.009.305-.047.202-.09.306-.188.45a1.101 1.101 0 0 1-.395.336.456.456 0 0 0-.09.046 1.223 1.223 0 0 1-.591.058c-.04-.007-.079-.015-.087-.015a.03.03 0 0 1-.02-.008c-.003-.007-.015-.007-.027-.007-.035 0-.2-.078-.29-.136a1.442 1.442 0 0 1-.305-.31 1.394 1.394 0 0 1-.141-.309 1.026 1.026 0 0 1-.016-.08 1.111 1.111 0 0 1-.02-.152c-.007-.124-.007-.124-.03-.178a.336.336 0 0 0-.196-.163 11.399 11.4 0 0 0-.56-.007H.227l-.05.023a.367.367 0 0 0-.157.15c-.016.035-.02.063-.02.198s.004.217.02.31c.011.07.027.147.03.17a.624.624 0 0 1 .02.07c.044.193.173.514.267.665.015.023.031.054.039.066.02.046.184.267.25.345.071.077.18.194.2.21l.055.045c.11.097.31.248.43.314.083.046.251.128.267.128.004 0 .012.007.012.01 0 .005.012.013.023.017.016.004.075.023.13.046l.121.043c.04.007.239.058.266.065.02.004.051.008.067.012a.36.36 0 0 1 .066.008c.083.015.192.023.384.023a2.41 2.41 0 0 0 .443-.035 2.215 2.215 0 0 0 .329-.077c.008-.004.023-.008.035-.012.012 0 .031-.008.043-.01.016-.005.067-.03.121-.048.055-.023.122-.05.153-.066.031-.015.059-.03.063-.03.012 0 .192-.105.282-.163a3.23 3.23 0 0 0 .528-.457c.051-.059.204-.264.243-.334a.715.715 0 0 1 .059-.085c.008-.01.012-.019.008-.019s.004-.02.02-.043c.054-.085.168-.36.2-.464a.49.49 0 0 1 .023-.093c.027-.1.054-.228.062-.286.004-.027.008-.062.012-.077.012-.05.02-.236.02-.53a6.01 6.01 0 0 1 .015-.357c.024-.108.079-.25.114-.305.012-.016.02-.027.015-.027-.015 0 .11-.163.169-.217.113-.112.211-.178.4-.26.062-.03.277-.069.371-.069.11 0 .278.031.368.066.07.023.188.081.192.093a.03.03 0 0 0 .02.007c.008 0 .023.008.027.012a2.006 2.006 0 0 1 .176.15l.071.07H8.94l-.008-.026a.201.201 0 0 0-.011-.04c-.004-.003-.008-.018-.012-.03a2.562 2.562 0 0 0-.157-.383c-.102-.198-.102-.198-.11-.198-.007 0-.007-.003-.007-.007a.788.788 0 0 0-.102-.15c-.004 0-.008-.009-.008-.017a.28.28 0 0 0-.05-.065c-.009-.012-.016-.02-.016-.027 0-.008-.004-.012-.008-.016a.274.274 0 0 1-.051-.05c-.137-.155-.353-.356-.43-.399-.013-.007-.024-.02-.024-.023 0-.008-.008-.012-.016-.012a.058.058 0 0 1-.035-.019c-.012-.015-.028-.023-.036-.023a.03.03 0 0 1-.015-.008c-.008-.023-.266-.162-.404-.224a2.147 2.147 0 0 0-.23-.085l-.052-.016a1.345 1.345 0 0 0-.191-.05c-.012-.004-.036-.008-.047-.012l-.118-.023a3.276 3.276 0 0 0-.427-.03c-.086 0-.16 0-.16.003zm7.51-.004a.35.35 0 0 1-.09.012 2.2 2.2 0 0 0-.309.042l-.055.012a3.746 3.746 0 0 0-.36.112 3.47 3.47 0 0 1-.078.027s-.067.031-.145.07a1.712 1.712 0 0 0-.282.162.17.17 0 0 0-.059.035l-.078.058c-.016.012-.035.027-.043.031-.004.008-.04.035-.079.066a2.918 2.918 0 0 0-.497.557.887.887 0 0 0-.082.14.275.275 0 0 0-.043.07.213.213 0 0 1-.04.07c-.003 0-.007.01-.007.022a.1.1 0 0 1-.016.04c-.027.041-.156.382-.14.382 0 0 0 .011-.009.02a.222.222 0 0 0-.02.065c0 .02-.007.042-.01.046-.005.012-.009.04-.02.097-.004.02-.008.05-.012.062-.004.027-.012.077-.02.158a8.954 8.955 0 0 0-.012.387c0 .194-.007.36-.007.38-.008.02-.012.05-.016.07a1.092 1.092 0 0 1-.846.847l-.027.007c0 .004-.102.012-.192.012a1.083 1.083 0 0 1-.775-.317l-.079-.078H7.581c-.011.004.024.14.04.147a1.478 1.478 0 0 0 .094.244c.004.012.027.054.05.1A2.07 2.07 0 0 0 8 13.74a.633.633 0 0 0 .055.07c.016.02.047.055.07.086.193.22.475.448.725.584.059.03.16.08.165.08.004 0 .027.013.05.024.079.035.13.054.169.066.004 0 .024.008.04.016.074.027.32.09.414.104.032 0 .059.008.063.008.031.02.517.03.65.01l.114-.01a3.708 3.708 0 0 0 .274-.054.575.575 0 0 0 .09-.028.967.967 0 0 0 .086-.027.075.075 0 0 0 .035-.01 2.688 2.688 0 0 0 1.218-.869c.043-.058.09-.116.102-.132.012-.015.02-.03.02-.038s.003-.016.011-.016a2.83 2.83 0 0 0 .145-.247 2.73 2.73 0 0 0 .243-.736c.004-.015.008-.05.012-.08.003-.032.011-.07.011-.094.004-.019.008-.178.012-.348.004-.414.008-.449.047-.58.031-.113.106-.27.125-.27a.74.74 0 0 1 .121-.164 1.1 1.1 0 0 1 1.367-.19c.02.012.04.028.04.032s.004.007.011.007c.02 0 .122.09.208.182.086.093.176.256.215.387.043.14.047.174.051.437.008.29.016.484.024.534.02.147.039.26.055.314a2.78 2.78 0 0 0 .113.352c0 .023.149.317.212.414.05.085.164.236.23.322.04.043.255.26.314.31a2.57 2.57 0 0 0 .294.205c.007.02.11.073.25.143.196.097.447.182.646.22.012.004.036.008.055.012.04.008.059.012.192.023.098.012.45.012.537.004.148-.02.215-.03.293-.046.032-.008.063-.012.063-.008s.004 0 .012-.008a.053.053 0 0 1 .031-.01c.024 0 .262-.08.325-.106.114-.046.302-.143.384-.193l.117-.07c.016-.008.028-.015.028-.023 0-.004.008-.012.015-.012.008 0 .016 0 .016-.007 0-.004.024-.024.051-.04.027-.018.047-.034.047-.042 0-.004.004-.007.012-.007.023 0 .258-.225.36-.345a1.722 1.722 0 0 0 .196-.26c.008 0 .015-.015.023-.03.008-.02.016-.036.024-.036.004 0 .008-.007.008-.02 0-.015.003-.022.011-.022.004 0 .012-.012.02-.024.008-.015.027-.06.05-.1.083-.155.216-.495.2-.515-.003 0-.387-.004-.853-.004h-.846l-.074.074c-.04.04-.11.097-.153.128a1.39 1.39 0 0 1-.282.143c-.012.004-.051.011-.086.023a1.128 1.128 0 0 1-.635-.035c-.007 0-.027-.008-.039-.012a.46.46 0 0 0-.074-.034c-.028-.016-.059-.03-.067-.035-.004-.008-.031-.023-.059-.043a.764.764 0 0 1-.09-.066c-.02-.019-.047-.042-.058-.054a.964.964 0 0 1-.18-.232c-.044-.07-.126-.27-.114-.282.004-.004 0-.012-.008-.02-.004-.007-.008-.015-.004-.015 0 0 0-.016-.008-.035a2.242 2.242 0 0 1-.011-.25 12.8 12.8 0 0 0-.024-.578c-.004-.016-.008-.054-.012-.085a1.997 1.997 0 0 0-.066-.317c-.016-.055-.028-.109-.031-.113 0-.007-.008-.023-.016-.042a.126.126 0 0 1-.012-.039.287.287 0 0 0-.027-.07.575.575 0 0 1-.028-.065l-.011-.035c-.008-.016-.016-.03-.016-.035 0-.004-.008-.015-.016-.03a.134.134 0 0 1-.015-.036c-.004-.007-.051-.1-.09-.162-.012-.027-.032-.058-.04-.074-.007-.01-.015-.023-.02-.023-.007 0-.011-.004-.011-.012a1.55 1.55 0 0 0-.172-.24 2.719 2.72 0 0 0-1.034-.762l-.11-.042a2.926 2.926 0 0 0-.415-.113l-.035-.007c0-.004-.012-.004-.028-.008a2.789 2.79 0 0 0-.4-.03h-.171zm7.48 0a.326.326 0 0 1-.086.012c-.05.004-.102.007-.117.011-.016 0-.043.008-.067.008-.086.015-.106.02-.188.04a2.46 2.46 0 0 0-.724.285 2.605 2.605 0 0 0-.259.17c-.023.012-.043.027-.043.031 0 .008-.004.012-.008.012-.008 0-.02.008-.031.015l-.094.085c-.11.097-.223.217-.317.337-.02.02-.04.047-.047.054a.067.067 0 0 0-.016.023c0 .008-.004.016-.008.016a.468.468 0 0 0-.086.131 1.88 1.88 0 0 0-.172.314c0 .004-.008.012-.016.02a.044.044 0 0 0-.012.03c0 .012-.003.023-.007.027-.008.004-.008.012-.012.016a2.062 2.062 0 0 0-.09.282c0 .016.043.02.85.02h.845l.075-.074a.908.908 0 0 1 .29-.209.99.99 0 0 1 .395-.112c.043 0 .079-.004.082-.004a1.083 1.083 0 0 1 1.096 1.022c.009.147.036.216.11.282.071.062.15.085.27.081.032 0 .067-.004.075-.004.059.004.27.004.282.004a.738.738 0 0 0 .18-.004c0-.007.004-.007.012-.004a.646.646 0 0 0 .177.008 1.1 1.1 0 0 0 .191-.008.322.322 0 0 0 .263-.232 2.946 2.946 0 0 0-.004-.29c-.008-.066-.016-.15-.024-.19a.383.383 0 0 1-.008-.06 4.326 4.326 0 0 0-.074-.288.761.761 0 0 1-.024-.08.848.848 0 0 0-.062-.15.062.062 0 0 1-.012-.033c0-.035-.168-.34-.243-.44a.29.29 0 0 1-.039-.063c0-.004-.008-.01-.016-.02-.007-.007-.023-.03-.039-.05a2.783 2.783 0 0 0-.74-.65 3.197 3.197 0 0 0-.537-.243c-.02-.004-.207-.058-.223-.062a3.489 3.49 0 0 0-.348-.054 5.21 5.21 0 0 0-.4-.012Z"/></svg>