<svg xmlns="http://www.w3.org/2000/svg" viewBox="0 0 16 16"><path d="M16 8A8 8 0 1 1 0 8a8 8 0 0 1 16 0zm-4.502-5.04c-.813.028-1.522.476-2.05 1.095-.585.68-.974 1.486-1.254 2.308-.502-.41-.888-.943-1.693-1.174a2.068 2.068 0 0 0-1.875.342 1.68 1.68 0 0 0-.574.836c-.24.784.254 1.483.479 1.733l.492.527c.1.103.345.373.226.759-.129.42-.635.691-1.155.532-.232-.071-.565-.244-.49-.487.03-.1.102-.175.14-.26.035-.074.052-.13.063-.162.094-.31-.035-.713-.367-.815-.31-.095-.626-.02-.75.378-.139.453.078 1.275 1.24 1.632 1.36.419 2.51-.322 2.673-1.287.102-.605-.17-1.055-.671-1.632l-.408-.451c-.247-.247-.331-.668-.076-.99.216-.273.523-.39 1.026-.253.735.2 1.062.709 1.608 1.12-.225.74-.373 1.482-.506 2.148l-.082.497c-.39 2.047-.689 3.171-1.463 3.817-.156.111-.38.277-.715.289-.177.005-.234-.116-.236-.17-.004-.123.1-.18.17-.235.103-.056.26-.15.248-.45-.01-.354-.304-.662-.729-.648-.318.011-.802.31-.784.858.019.566.546.99 1.341.963.425-.015 1.374-.188 2.31-1.3 1.088-1.274 1.393-2.734 1.622-3.804l.255-1.411c.142.016.294.028.46.032 1.355.029 2.033-.673 2.043-1.184.007-.31-.202-.614-.496-.607a.565.565 0 0 0-.537.436c-.062.285.431.542.046.793-.274.177-.765.301-1.456.2l.125-.695c.257-1.317.573-2.938 1.774-2.978.088-.004.408.004.415.216.002.07-.015.089-.098.25a.572.572 0 0 0-.112.358c.011.336.267.557.638.544.495-.016.637-.498.63-.746-.022-.583-.635-.95-1.447-.924z"/></svg>