<svg xmlns="http://www.w3.org/2000/svg" viewBox="0 0 16 16" fill-rule="evenodd" clip-rule="evenodd" stroke-linejoin="round" stroke-miterlimit="1.414"><path d="M8 0a8 8 0 1 0 0 16A8 8 0 0 0 8 0zm3.648 2.96c.736.02 1.277.378 1.296.924.008.248-.134.73-.63.746-.37.013-.625-.208-.637-.544a.572.572 0 0 1 .112-.357c.083-.162.1-.18.098-.25-.007-.213-.327-.221-.415-.217-1.2.04-1.517 1.66-1.774 2.978l-.125.695c.691.101 1.182-.023 1.456-.2.385-.25-.108-.508-.046-.792a.565.565 0 0 1 .537-.436c.293-.008.503.297.496.606-.01.51-.688 1.213-2.044 1.184a4.82 4.82 0 0 1-.458-.032l-.256 1.411c-.23 1.07-.534 2.53-1.623 3.805-.935 1.112-1.884 1.284-2.309 1.299-.795.027-1.322-.397-1.34-.963-.02-.548.465-.847.783-.858.425-.014.718.294.73.648.01.3-.146.394-.25.45-.069.056-.173.113-.17.236.003.053.06.174.237.17.336-.013.559-.179.715-.29.775-.645 1.073-1.77 1.463-3.817l.082-.497c.133-.665.28-1.408.506-2.148-.546-.41-.873-.92-1.608-1.12-.503-.136-.81-.02-1.026.252-.255.324-.17.744.076.99l.408.452c.5.578.774 1.027.67 1.632-.163.965-1.313 1.706-2.673 1.287-1.16-.357-1.378-1.179-1.238-1.632.123-.398.44-.473.749-.378.332.102.461.505.367.815-.011.033-.028.088-.063.162-.038.085-.11.16-.14.26-.075.243.258.416.49.487.52.16 1.026-.112 1.155-.532.12-.386-.125-.656-.226-.759L4.53 8.1c-.225-.25-.72-.949-.478-1.733a1.68 1.68 0 0 1 .573-.836c.6-.447 1.253-.52 1.875-.342.805.232 1.191.764 1.692 1.175.281-.823.67-1.629 1.254-2.308.529-.62 1.238-1.068 2.05-1.096.051-.002.102-.002.15 0z"/></svg>