<svg role="img" viewBox="0 0 24 24" xmlns="http://www.w3.org/2000/svg"><title>Synology icon</title><path d="M17.8958 11.928a3.1956 3.1956 0 01.394-1.5298l-.008.017a2.6767 2.6767 0 011.0748-1.1079l.014-.007a3.1806 3.1806 0 011.5228-.382h.05-.003q1.3458 0 2.1997.871.8539.8709.8599 2.2027c0 .8949-.29 1.6348-.8669 2.2257-.577.591-1.3058.886-2.1827.886-.566 0-1.0999-.137-1.5708-.379l.019.009a2.5347 2.5347 0 01-1.1149-1.067l-.007-.013q-.38-.7078-.381-1.7257zm1.5928.083c0 .591.138 1.0429.42 1.3488a1.3648 1.3648 0 002.0657.002l.001-.002c.275-.307.4129-.7639.4129-1.3568 0-.593-.138-1.0329-.413-1.3418a1.3708 1.3708 0 00-2.0657-.001l-.001.002c-.281.306-.42.7579-.42 1.3448zm-1.6018 2.9406H16.331V11.937c0-.635-.032-1.0439-.101-1.2338a.8759.8759 0 00-.328-.435l-.003-.002a.9379.9379 0 00-.521-.156h-.027.001-.012c-.2699 0-.5209.084-.7268.228l.004-.003a1.1149 1.1149 0 00-.444.576l-.002.008c-.083.2479-.121.6958-.121 1.3588v2.6726h-1.5488V9.0284h1.4389v.8669c.5179-.656 1.1668-.98 1.9517-.98h.021c.335 0 .655.067.9459.189l-.016-.006c.261.105.48.268.648.475l.002.003c.1409.185.2469.404.3039.643l.002.012c.057.2779.089.5968.089.9238l-.002.135v-.007zM6.4152 9.0294H8.069l1.4118 4.2034 1.3758-4.2034h1.6108l-2.0667 5.6923-.38 1.0378a4.1575 4.1575 0 01-.3999.807l.01-.017a1.6368 1.6368 0 01-.422.4429l-.005.003c-.17.113-.3669.203-.5779.26l-.014.003c-.232.064-.499.1-.7739.1h-.025.001a4.1295 4.1295 0 01-.9109-.105l.028.005-.129-1.2289c.198.046.426.074.659.077h.002c.36 0 .6279-.106.7999-.318a2.2697 2.2697 0 00.395-.8069l.004-.016zM.003 12.291l1.5918-.149q.147.8019.586 1.1808.4389.379 1.1918.375c.528 0 .9269-.113 1.1968-.335.27-.222.4-.486.4-.7819v-.024a.751.751 0 00-.167-.474l.001.001c-.113-.1319-.309-.2519-.59-.3469-.1929-.074-.6308-.191-1.3118-.365-.8819-.2159-1.4958-.4859-1.8497-.8038a2.1467 2.1467 0 01-.749-1.6308V8.9094c0-.431.132-.831.358-1.1629l-.005.007a2.2257 2.2257 0 011.0029-.8259l.015-.005c.442-.184.9729-.281 1.6018-.281q1.5288 0 2.3037.676c.516.457.785 1.0569.8109 1.8088l-1.6488.055c-.073-.413-.219-.714-.452-.899-.233-.185-.5789-.2759-1.0338-.2759-.476 0-.8499.098-1.1179.298a.59.59 0 00-.261.4899v.011-.001.002c0 .201.095.379.242.493l.001.001c.205.179.709.3599 1.5068.5459.798.186 1.3879.387 1.7688.5899.374.196.678.48.893.8249l.006.01c.2139.345.3259.7859.3259 1.3048 0 .489-.146.944-.396 1.3249l.006-.009c-.264.408-.6399.7239-1.0838.9079l-.016.006c-.475.194-1.065.298-1.7718.298-1.0289 0-1.8188-.241-2.3727-.722-.554-.481-.879-1.1769-.9859-2.0907z"/></svg>