<svg role="img" viewBox="0 0 24 24" xmlns="http://www.w3.org/2000/svg"><title>TableCheck</title><path d="M9.06 3.248 6.017.205C5.915.103 5.71.068 5.573.103A11 11 0 0 0 .034 5.607a.373.373 0 0 0 .103.444l3.042 3.043c.103.103.308.068.342-.102a6.569 6.569 0 0 1 5.436-5.436c.137 0 .205-.205.103-.308ZM16.752 9.128l3.043-3.043c.102-.102.137-.307.102-.444A11 11 0 0 0 14.393.103a.373.373 0 0 0-.444.102l-3.043 3.043c-.103.102-.068.308.102.342a6.569 6.569 0 0 1 5.436 5.436c0 .136.206.205.308.102ZM19.795 14.017l-3.043-3.077c-.102-.102-.307-.068-.342.103-.444 2.77-2.632 4.991-5.436 5.436-.17.034-.239.239-.102.342l3.043 3.042c.102.103.307.137.444.103a10.934 10.934 0 0 0 5.504-5.504c.103-.171.069-.342-.068-.445ZM3.18 10.94.136 14.017c-.103.103-.137.308-.103.445a10.934 10.934 0 0 0 5.504 5.504.373.373 0 0 0 .445-.103l3.043-3.042c.102-.103.068-.308-.103-.342a6.569 6.569 0 0 1-5.436-5.436c0-.137-.205-.205-.308-.103Z" fill="#fff"/></svg>