<svg role="img" viewBox="0 0 24 24" xmlns="http://www.w3.org/2000/svg"><title>TableCheck</title><path d="M10.872 3.8976L7.2204 0.245995C7.098 0.123595 6.852 0.0815952 6.6876 0.123595C3.73883 1.43825 1.37412 3.78802 0.040801 6.7284C-0.00039423 6.81837 -0.0106089 6.91947 0.0117545 7.01587C0.0341178 7.11227 0.0877981 7.19854 0.164401 7.2612L3.8148 10.9128C3.9384 11.0364 4.1844 10.9944 4.2252 10.7904C4.48957 9.15572 5.262 7.64581 6.43291 6.47491C7.60382 5.304 9.11373 4.53156 10.7484 4.2672C10.9128 4.2672 10.9944 4.0212 10.872 3.8976V3.8976ZM20.1024 10.9536L23.754 7.302C23.8764 7.1796 23.9184 6.9336 23.8764 6.7692C22.5615 3.82088 20.2118 1.45662 17.2716 0.123595C17.1817 0.0822663 17.0807 0.0718612 16.9843 0.0940053C16.888 0.116149 16.8016 0.169595 16.7388 0.245995L13.0872 3.8976C12.9636 4.02 13.0056 4.2672 13.2096 4.308C14.8443 4.57236 16.3542 5.3448 17.5251 6.51571C18.696 7.68661 19.4684 9.19652 19.7328 10.8312C19.7328 10.9944 19.98 11.0772 20.1024 10.9536ZM23.754 16.8204L20.1024 13.128C19.98 13.0056 19.734 13.0464 19.692 13.2516C19.1592 16.5756 16.5336 19.2408 13.1688 19.7748C12.9648 19.8156 12.882 20.0616 13.0464 20.1852L16.698 23.8356C16.8204 23.9592 17.0664 24 17.2308 23.9592C20.168 22.6423 22.5187 20.2916 23.8356 17.3544C23.9592 17.1492 23.9184 16.944 23.754 16.8204V16.8204ZM3.816 13.128L0.163201 16.8204C0.039601 16.944 -0.00119901 17.19 0.039601 17.3544C1.35648 20.2916 3.70716 22.6423 6.6444 23.9592C6.73452 24.0007 6.83587 24.0111 6.93253 23.9887C7.02919 23.9663 7.11568 23.9125 7.1784 23.8356L10.83 20.1852C10.9524 20.0616 10.9116 19.8156 10.7064 19.7748C9.07173 19.5104 7.56182 18.738 6.39091 17.5671C5.22 16.3962 4.44757 14.8863 4.1832 13.2516C4.1832 13.0872 3.9372 13.0056 3.8136 13.128H3.816Z"/></svg>
