<svg width="20" height="20" viewBox="0 0 20 20" fill="none" xmlns="http://www.w3.org/2000/svg">
<path d="M9.05983 3.24796L6.01709 0.205228C5.91453 0.102664 5.7094 0.0684762 5.57265 0.102664C3.11111 1.19668 1.12821 3.17959 0.034188 5.60694C-0.034188 5.74369 0 5.94882 0.136752 6.05138L3.17949 9.09412C3.28205 9.19668 3.48718 9.16249 3.52137 8.99155C3.96581 6.22232 6.15385 4.0001 8.95727 3.55566C9.09402 3.55566 9.16239 3.35053 9.05983 3.24796Z" fill="white"/>
<path d="M16.7521 9.12819L19.7948 6.08545C19.8974 5.98289 19.9316 5.77776 19.8974 5.64101C18.8034 3.17947 16.8205 1.19656 14.3931 0.102547C14.2564 0.0341713 14.0513 0.0683594 13.9487 0.205112L10.906 3.24785C10.8034 3.35041 10.8376 3.55554 11.0085 3.58973C13.7778 4.03417 16 6.2222 16.4444 9.02562C16.4444 9.16238 16.6495 9.23075 16.7521 9.12819Z" fill="white"/>
<path d="M19.7949 14.0172L16.7522 10.9403C16.6496 10.8377 16.4445 10.8719 16.4103 11.0428C15.9658 13.8121 13.7778 16.0343 10.9744 16.4787C10.8034 16.5129 10.7351 16.718 10.8718 16.8206L13.9146 19.8633C14.0171 19.9659 14.2222 20.0001 14.359 19.9659C16.8205 18.8719 18.7693 16.889 19.8633 14.4616C19.9658 14.2907 19.9317 14.1197 19.7949 14.0172Z" fill="white"/>
<path d="M3.17948 10.9403L0.136747 14.0172C0.0341828 14.1197 -5.21913e-06 14.3249 0.0341828 14.4616C1.1282 16.9232 3.11111 18.8719 5.53846 19.9659C5.67521 20.0343 5.88034 20.0001 5.9829 19.8633L9.02564 16.8206C9.1282 16.718 9.09401 16.5129 8.92307 16.4787C6.15384 16.0343 3.93162 13.8462 3.48717 11.0428C3.48717 10.9061 3.28205 10.8377 3.17948 10.9403Z" fill="white"/>
</svg>
