<svg role="img" viewBox="0 0 24 24" xmlns="http://www.w3.org/2000/svg"><title>Tailscale</title><path d="M 3 4.5 C 0.691 4.499 -0.754 6.998 0.399 8.999 C 0.399 8.999 0.4 9 0.4 9 C 0.936 9.929 1.928 10.501 3 10.5 C 5.309 10.502 6.754 8.003 5.601 6.002 C 5.601 6.001 5.6 6.001 5.6 6 C 5.064 5.071 4.073 4.5 3 4.5 Z M 12 4.5 C 9.691 4.499 8.246 6.998 9.399 8.999 C 9.399 8.999 9.4 9 9.4 9 C 9.936 9.929 10.928 10.501 12 10.5 C 14.309 10.502 15.754 8.003 14.601 6.002 C 14.601 6.001 14.6 6.001 14.6 6 C 14.064 5.071 13.073 4.5 12 4.5 Z M 12 13.5 C 9.691 13.499 8.246 15.998 9.399 17.999 C 9.399 17.999 9.4 18 9.4 18 C 9.936 18.929 10.928 19.501 12 19.5 C 14.309 19.502 15.754 17.003 14.601 15.002 C 14.601 15.001 14.6 15.001 14.6 15 C 14.064 14.071 13.073 13.5 12 13.5 Z M 21 4.5 C 18.691 4.499 17.246 6.998 18.399 8.999 C 18.399 8.999 18.4 9 18.4 9 C 18.936 9.929 19.928 10.501 21 10.5 C 23.309 10.502 24.754 8.003 23.601 6.002 C 23.601 6.001 23.6 6.001 23.6 6 C 23.064 5.071 22.073 4.5 21 4.5 Z"/></svg>