<svg role="img" viewBox="0 0 24 24" xmlns="http://www.w3.org/2000/svg"><title>Tailscale</title><path d="M3.004 9C.695 9-.749 11.5.406 13.5A3 3 0 0 0 3.004 15c2.309 0 3.753-2.5 2.598-4.5A3 3 0 0 0 3.004 9Zm9 0c-2.309 0-3.753 2.5-2.598 4.5a3 3 0 0 0 2.598 1.5c2.309 0 3.753-2.5 2.598-4.5A3 3 0 0 0 12.004 9Zm0 9c-2.309 0-3.753 2.5-2.598 4.5a3 3 0 0 0 2.598 1.5c2.309 0 3.753-2.5 2.598-4.5a3 3 0 0 0-2.598-1.5Zm9-9c-2.309 0-3.753 2.5-2.598 4.5a3 3 0 0 0 2.598 1.5c2.309 0 3.753-2.5 2.598-4.5A3 3 0 0 0 21.004 9Z"/></svg>