<?xml version="1.0" encoding="utf-8"?>
<svg role="img" viewBox="0 0 24 24" xmlns="http://www.w3.org/2000/svg">
  <title>Tailscale</title>
  <path d="M 2.999 4.498 C 0.691 4.497 -0.753 6.996 0.399 8.998 L 0.4 8.999 C 0.935 9.928 1.927 10.501 2.999 10.5 C 5.308 10.502 6.752 8.001 5.599 6 L 5.598 5.998 C 5.062 5.069 4.071 4.497 2.999 4.498 Z M 11.997 4.498 C 9.688 4.497 8.243 6.996 9.396 8.998 L 9.397 8.999 C 9.934 9.928 10.926 10.501 11.997 10.5 C 14.305 10.502 15.751 8.001 14.599 6 L 14.598 5.998 C 14.061 5.069 13.068 4.497 11.997 4.498 Z M 11.997 13.5 C 9.688 13.499 8.243 15.998 9.396 18.001 L 9.397 18.002 C 9.934 18.931 10.926 19.503 11.997 19.502 C 14.305 19.504 15.751 17.003 14.599 15.003 L 14.598 15.001 C 14.061 14.072 13.068 13.499 11.997 13.5 Z M 20.996 4.498 C 18.686 4.497 17.241 6.996 18.395 8.998 L 18.395 8.999 C 18.933 9.928 19.922 10.501 20.996 10.5 C 23.303 10.502 24.747 8.001 23.595 6 L 23.594 5.998 C 23.058 5.069 22.067 4.497 20.996 4.498 Z" style=""/>
</svg>