<svg role="img" viewBox="0 0 24 24" xmlns="http://www.w3.org/2000/svg"><title>Take-Two Interactive</title><path d="m17.02 16.796.419-.262 4.152-3.116c1.41-1.256 2.297-2.695 2.295-4.63-.005-3.868-3.04-5.799-6.62-5.794-1.662.002-3.12.448-4.283 1.26l-.002-1.45L0 2.82l.005 4.416 3.854-.005.017 13.946 5.353-.006-.016-13.946 1.442-.002a8.214 8.214 0 0 0-.518 2.026l4.523.884c.077-1.386.545-3.111 2.218-3.113 1.098-.001 1.753.834 1.754 1.88.002 1.568-1.304 2.667-2.4 3.61l-6.086 4.582.005 4.104 13.645-.017.204-4.392"/></svg>