<svg role="img" viewBox="0 0 24 24" xmlns="http://www.w3.org/2000/svg"><title>Tamiya</title><path d="M0 3.801v4.34h4.573L5.956 3.8Zm5.956 0 1.422 4.34h4.573V3.8Zm5.995 4.34-3.69 2.69 1.422 4.344h2.268Zm-2.268 7.034-3.728-2.69-3.687 2.69Zm-7.415 0L3.69 10.83 0 8.14v7.034zm1.09 5.022H5.67v-.462h-.618c-.077-.038-.115-.115-.077-.192.04-.156.154-.54.154-.54h1.428l.193.463c.04.077 0 .154-.038.23a.478.478 0 0 1-.232.04h-.386v.463h3.743v-.463H9.49c-.116 0-.193 0-.23-.116-.04-.04-.04-.116-.04-.193v-2.393c.386 1.042.81 2.123 1.158 3.165h.54l1.195-3.165v2.51c-.038.153-.192.192-.307.192h-.348v.463h2.083v-.463h-.386c-.077-.04-.116-.116-.154-.193v-2.547c0-.04 0-.077.038-.116.04-.154.155-.193.27-.193h.232v-.463H11.73s-.617 1.66-.964 2.47c-.31-.81-.618-1.66-.927-2.47H7.833v.463h.54a.533.533 0 0 1 .154.116.292.292 0 0 1 .04.154v2.47c0 .077 0 .116-.04.154-.038.077-.115.155-.193.155h-.308a.318.318 0 0 1-.309-.193c-.424-1.08-.849-2.24-1.273-3.32H5.402c-.386 1.08-.772 2.238-1.197 3.32-.077.153-.193.192-.346.192h-.926c-.116 0-.155 0-.232-.038-.115-.078-.193-.155-.193-.27v-2.586c.04-.077.078-.193.155-.193a.712.712 0 0 1 .617.193c.27.232.31.58.31.927h.461v-1.544H0v1.544h.463c0-.386.077-.695.31-.965a.92.92 0 0 1 .693-.193c.116.077.155.154.155.23v2.587c0 .116-.077.193-.155.27a.348.348 0 0 1-.193.038H.85v.464h2.47Zm2.47-3.24.54 1.466H5.324Zm17.902 2.778c-.155 0-.27-.039-.309-.193-.424-1.08-.849-2.239-1.273-3.319h-1.042c-.386 1.08-.772 2.238-1.234 3.32-.077.153-.193.192-.347.192h-.927c-.038 0-.115-.039-.154-.039-.077-.039-.116-.116-.116-.23v-.928s.772-1.003 1.12-1.466c.154-.193.308-.386.654-.386v-.463h-1.89v.463h.232c.154 0 .27.04.31.116.037.038.037.077.037.154 0 .04-.038.077-.077.116-.193.31-.31.424-.694.926-.464-.617-.695-.926-.695-1.003-.04-.039-.077-.077-.04-.155.04-.115.156-.154.27-.154h.31v-.463H13.62v.463h.31c.115.04.153.116.192.154.04.078.04.078.04.155v2.585a.351.351 0 0 1-.31.155h-.23v.463h2.082v-.463h-.502a.533.533 0 0 1-.115-.155v-.038c-.039-.039-.039-.077-.039-.116v-2.43l.077-.156c.04-.077.04-.077.116-.115.04 0 .077-.039.154-.039h.31a.75.75 0 0 1 .462.154c.04.04.04.04.077.116l.116.116 1.08 1.505v.888c0 .115 0 .154-.077.231-.077.04-.192.04-.308.04h-.425v.462h4.707v-.463h-.617c-.039-.039-.116-.116-.077-.193.038-.155.193-.54.193-.54h1.427l.155.463c.038.077.038.154-.039.231-.038.04-.116.04-.193.04H21.8v.462H24v-.463zm-2.7-1.312.5-1.467.502 1.467zM12.05 3.801v4.341h4.572l1.384-4.341Zm5.955 0 1.422 4.341h4.572V3.801Zm5.994 4.341-3.69 2.69 1.422 4.344H24Zm-2.268 7.034-3.726-2.69-3.688 2.69zm-7.414 0 1.422-4.344-3.69-2.69v7.034z"/></svg>