<svg role="img" viewBox="0 0 24 24" xmlns="http://www.w3.org/2000/svg"><title>Tangled</title><path d="m15.83 23.541-.065-.038-.201-.01-.201-.01-.275-.026-.273-.026v-.053l-.204-.04-.204-.04-.166-.08-.168-.08v-.041l-.003-.041-.264-.144-.265-.143-.275-.202-.275-.202-.26-.25-.261-.251-.22-.284-.22-.283-.17-.283-.168-.283-.014-.014-.013-.015-.142.16-.14.161-.223.213-.222.214-.185.145-.185.145-.251.163-.251.162-.249.115-.247.115.005.031.005.033-.17.046-.171.046-.336.1-.337.1-.177.046-.177.044-.389.026-.39.026-.353-.035-.354-.035-.038-.03-.037-.03-.076.02-.077.02-.05-.05-.05-.05-.208-.047-.207-.045-.296-.103-.296-.103-.324-.163-.324-.162-.325-.227-.326-.226-.302-.287-.304-.288-.223-.288-.223-.288-.127-.212-.126-.212-.106-.212-.106-.213-.124-.337-.126-.335-.082-.39-.084-.389v-.69l.001-.69.064-.318.064-.318.108-.337.11-.338.155-.318.157-.317.07-.112.069-.114-.098-.068-.098-.066-.177-.102-.177-.1-.266-.195-.266-.194-.26-.25-.26-.252-.189-.233-.187-.234-.16-.246-.158-.245-.129-.264-.128-.265-.12-.336-.119-.337-.082-.389L0 10.36l.002-.69.002-.69.1-.425.098-.423.131-.34.133-.34.166-.305.166-.305.217-.294.218-.294.25-.261.251-.261.23-.184.23-.184.23-.15.23-.15.32-.156.32-.154.175-.065.176-.065.178-.336L4 3.952l.212-.302.21-.3.313-.323.312-.325.256-.194.255-.195.302-.178.304-.178.314-.13.314-.13.21-.067.208-.067.395-.079.395-.08.584.005.584.003.442.091.443.093.301.11.3.109.33.164.327.164.24-.23.237-.23.16-.126.158-.125.16-.102.159-.101.141-.083.142-.081.23-.109.23-.108.266-.099.265-.097.319-.074.318-.073.354-.041.354-.042.425.024.425.024.353.07.355.07.283.093.283.092.284.13.284.13.237.145.236.144.26.194.257.195.288.296.29.294.151.194.151.193.135.214.135.214.153.318.154.319.094.266.093.267.07.33.07.33.01.008.01.009.443.216.443.215.309.215.307.215.308.292.309.292.186.233.186.234.166.257.165.255.152.325.153.324.09.266.089.265.081.39.083.39v.654l-.001.655-.064.314-.062.314-.09.288-.09.288-.123.28-.122.279-.146.251-.146.251-.189.258-.189.257-.255.267-.253.267-.286.222-.284.222-.319.187-.318.187-.044.035-.044.034.057.13.056.129.086.212.088.213.189.726.189.725.064.3.064.301v.673l-.003.673-.08.372-.079.37-.09.266-.089.266-.189.39-.19.388-.222.32-.222.318-.302.314-.303.314-.282.219-.284.22-.219.132-.219.131-.241.107-.241.105-.089.048-.088.047-.248.071-.248.073-.32.057-.32.057-.282-.003-.282-.003-.07-.003-.07-.003-.178-.004-.177-.003-.123.025-.125.026zm-4.448-5.323.214-.018.205-.067.206-.068.243-.116.243-.118.273-.206.274-.206.228-.255.228-.256.217-.284.22-.283.186-.283.188-.283.213-.371.214-.372.133-.31.134-.311.028-.018.028-.017.196.26.196.261.164.15.163.15.2.092.2.093.302.014.3.014.214-.08.212-.08.198-.204.2-.202.093-.28.092-.276.057-.301.058-.3-.019-.425-.018-.425-.076-.424-.076-.424-.086-.32-.085-.319-.14-.4-.14-.4-.167-.308-.165-.309-.118-.159-.116-.159-.123-.12-.125-.118.02-.182.018-.18-.06-.25-.062-.246-.134-.284-.132-.283-.182-.201-.182-.2-.172-.128-.173-.126-.203.122-.203.123-.266.06-.265.059-.205-.022-.205-.022-.234-.087-.234-.089-.117-.09-.119-.089h-.078l-.055.115-.055.117-.158.18-.158.181-.17.108-.169.107-.22.074-.22.073H11.5l-.195-.066-.195-.067-.113-.059-.112-.058-.24-.22-.238-.22-.094-.084-.096-.084-.218.197-.218.197-.164.078-.164.078-.177.048-.177.047H8.66l-.223-.07-.224-.069-.101.097-.1.096-.121.163-.12.163-.17.063-.169.063-.114.085-.115.086-.11.113-.108.114-.353.526-.353.525-.215.448-.215.448-.22.46-.222.46-.144.336-.145.337-.056.219-.054.218-.016.206-.016.206.034.242.033.242.097.195.095.196.144.124.142.125.187.087.186.087.274.002.273.002.231-.098.229-.096.107-.076.106-.075.366-.293.366-.293.027.017.027.016.023.465.024.465.087.51.089.51.088.364.089.362.13.3.131.302.105.159.104.159.11.118.11.119.284.204.282.205.145.072.143.073.214.056.214.054.244.031.244.03.203-.012.204-.012zm.683-3.48-.113-.06-.105-.134-.106-.133-.043-.183-.044-.182.024-.552.023-.55.035-.426.036-.425.072-.372.071-.37.054-.21.054-.212.068-.13.066-.132.132-.11.132-.107.187-.042.186-.042.17.064.168.065.115.123.113.123.042.184.04.184-.11.458-.11.458-.034.264-.034.265-.04.814-.04.814-.036.151-.038.15-.11.11-.111.11-.114.05-.114.049-.187-.002-.187-.001zm-2.795-.356-.145-.069-.088-.12-.088-.118-.038-.105-.038-.107-.023-.134-.022-.134-.032-.468-.032-.467.036-.442.037-.443.048-.214.05-.215.074-.202.076-.202.093-.111.094-.11.142-.065.143-.066h.284l.141.066.142.065.092.103.093.101.04.12.04.121v.304l-.033.087-.033.088-.057.273-.056.275v.856l.043.39.043.392-.092.199-.091.2-.149.098-.147.098-.2.012-.2.012z"/></svg>