<svg role="img" viewBox="0 0 24 24" xmlns="http://www.w3.org/2000/svg"><title>Tangled</title><path d="M15.823 23.573c-.78-.006-1.376-.233-2.022-.629-.926-.489-1.633-1.31-2.139-2.215-.803 1-1.876 1.606-3.078 1.949-.512.149-1.408.3-2.893-.24-2.141-.721-3.7-2.956-3.524-5.232-.032-.944.31-1.87.797-2.667-1.297-.698-2.355-1.87-2.76-3.308-.246-.787-.236-1.635-.145-2.444.325-1.91 1.754-3.571 3.593-4.168.734-1.678 2.336-2.93 4.15-3.184a5.5 5.5 0 0 1 3.507.699C12.845.425 15.521-.08 17.565.97c1.558.746 2.673 2.304 2.944 4.002 1.483.596 2.732 1.812 3.222 3.354.328.956.339 2.008.126 2.989-.379 1.53-1.456 2.833-2.85 3.545.003.272.896 2.236.746 3.718-.032 1.853-1.204 3.609-2.829 4.462-.948.555-2.071.544-3.101.533M11.38 18.24c1.314-.147 2.176-1.296 2.845-2.331.316-.472.558-1 .798-1.501.311.286.575.825 1.068.954.518.162 1.126.03 1.444-.442.608-1.137.308-2.51-.046-3.687-.218-.677-.504-1.371-1.048-1.85.116-.822-.369-1.655-1.058-2.085-.588.47-1.482.467-2.048-.036-1.087 1.112-2.082 1.075-3.044.194-.216-.198-.629 1.208-2.076.412-.831.698-1.476 1.37-2.047 2.339-.555 1.043-1.137 1.97-1.187 3.103-.024.662.492 1.356 1.191 1.302.699.063 1.174-.627 1.703-.914.08.925.168 1.918.48 2.82.357 1.168 1.616 1.91 2.808 1.74zm.682-3.486c-.64-.393-.332-1.246-.357-1.866.063-.747.115-1.533.45-2.214.354-.485 1.219-.298 1.257.325-.025.626-.312 1.25-.278 1.9-.074.542.054 1.151-.185 1.647-.197.274-.596.354-.887.208m-2.792-.357c-.602-.328-.41-1.153-.505-1.726.079-.663.013-1.505.567-1.97.542-.38 1.28.27 1.023.865-.273.753-.094 1.576-.088 2.339a.708.708 0 0 1-.997.492"/></svg>