<svg role="img" viewBox="0 0 24 24" xmlns="http://www.w3.org/2000/svg"><title>Tarteaucitron</title><path d="M7.044 15.18a5.06 5.06 0 0 0 1.064 2.58.25.25 0 0 0 .156.082c.06 0 .118-.015.156-.06l2.468-2.468a.2.2 0 0 0 .06-.15c0-.103-.082-.214-.207-.214H7.245a.21.21 0 0 0-.208.208c.01.01.01.015.01.022m6.036-1.079a.22.22 0 0 0 .06.149c.03.03.074.067.157.067h3.494a.21.21 0 0 0 .208-.208v-.022a4.95 4.95 0 0 0-1.07-2.581.25.25 0 0 0-.157-.08c-.06 0-.12.014-.156.06l-2.476 2.467a.2.2 0 0 0-.06.149m2.507 3.689a.2.2 0 0 0 .163.06c.06 0 .11-.03.149-.075a5 5 0 0 0 1.07-2.581v-.021a.214.214 0 0 0-.207-.216H13.27c-.134 0-.208.11-.208.216 0 .037.01.096.06.148zm-6.796.595c0 .067.03.118.074.163a5 5 0 0 0 2.582 1.07.2.2 0 0 0 .162-.052.2.2 0 0 0 .068-.157v-3.485a.2.2 0 0 0-.127-.193c-.08-.037-.164-.015-.23.044l-2.469 2.469a.2.2 0 0 0-.06.14m-.386-6.884a.2.2 0 0 0-.163-.06.2.2 0 0 0-.149.075 5 5 0 0 0-1.07 2.581v.02c0 .12.096.216.207.216h3.496a.22.22 0 0 0 .155-.067.216.216 0 0 0 0-.297zm3.042-1.828a5 5 0 0 0-2.583 1.07c-.05.037-.073.096-.073.163q.002.09.06.149l2.468 2.469a.2.2 0 0 0 .231.044.2.2 0 0 0 .126-.194V9.879a.2.2 0 0 0-.068-.156.2.2 0 0 0-.163-.052m.996 3.897c.08.036.164.014.231-.045l2.469-2.47a.22.22 0 0 0 .06-.148.23.23 0 0 0-.075-.163 5 5 0 0 0-2.582-1.071.2.2 0 0 0-.162.052.2.2 0 0 0-.068.156v3.487a.21.21 0 0 0 .127.2m-.492 6.595a5.56 5.56 0 0 1-5.554-5.555v-.01c0-3.053 2.49-5.543 5.554-5.543 3.056 0 5.547 2.491 5.555 5.544v.01a5.55 5.55 0 0 1-1.621 3.917l.907.908a6.8 6.8 0 0 0 1.992-4.816v-.01c0-3.763-3.063-6.826-6.831-6.833a6.84 6.84 0 0 0-6.833 6.833v.01a6.84 6.84 0 0 0 6.833 6.831v-.022h.074v-1.263c-.022-.01-.044 0-.074 0 .01 0 0 0 0 0m4.697-.14a5.53 5.53 0 0 1-4.067 1.785v1.278a6.8 6.8 0 0 0 4.974-2.156l-.067-.068zm-4.067 3.063V24c.276.01.551-.066.7-.237a.205.205 0 0 1 .268-.03c.341.253 1.078.096 1.285-.275a.2.2 0 0 1 .262-.08c.386.177 1.077-.128 1.205-.537a.204.204 0 0 1 .237-.134c.416.097 1.026-.35 1.063-.773a.204.204 0 0 1 .201-.186c.141 0 .282-.06.416-.148l-.663-.67a6.83 6.83 0 0 1-4.972 2.157m-.623-1.665v.022h.073v-.022zm0 .022v.988h.073v-.988zm1.047-.462a.22.22 0 0 0 .163.053 5 5 0 0 0 2.581-1.07.2.2 0 0 0 .074-.164.2.2 0 0 0-.06-.15L13.3 17.184a.2.2 0 0 0-.231-.044.2.2 0 0 0-.126.194v3.485c0 .068.022.127.067.164M7.956 5.635a3.953 3.953 0 0 1 3.955-3.953 3.953 3.953 0 0 1 3.955 3.955v1.367a8.3 8.3 0 0 1 1.65 1.167V5.45a5.555 5.555 0 0 0-11.108 0v2.612a8.2 8.2 0 0 1 1.545-1.063Zm11.58 8.97a.2.2 0 0 1 .052-.105c.291-.312.208-1.065-.134-1.31a.21.21 0 0 1-.06-.267c.216-.365-.014-1.087-.408-1.25-.096-.037-.14-.148-.11-.252.132-.401-.24-1.056-.656-1.139a.21.21 0 0 1-.164-.223c.052-.423-.452-.981-.877-.974a.2.2 0 0 1-.2-.186c-.038-.424-.648-.87-1.065-.773a.204.204 0 0 1-.237-.134c-.127-.402-.818-.713-1.205-.535a.2.2 0 0 1-.26-.08c-.208-.372-.944-.528-1.285-.277a.197.197 0 0 1-.268-.03c-.151-.17-.425-.245-.7-.238-.246.01-.484.09-.617.238a.205.205 0 0 1-.267.03c-.342-.25-1.077-.096-1.286.275a.2.2 0 0 1-.261.082c-.387-.178-1.078.126-1.204.535a.204.204 0 0 1-.238.134c-.417-.097-1.027.35-1.065.773a.204.204 0 0 1-.2.186c-.423-.01-.929.558-.877.974a.2.2 0 0 1-.163.223c-.417.083-.795.737-.654 1.138a.21.21 0 0 1-.11.253c-.389.163-.627.884-.41 1.25a.2.2 0 0 1-.06.267c-.35.245-.424.996-.133 1.31.03.03.044.067.052.104a.21.21 0 0 1-.052.17c-.292.312-.208 1.065.133 1.31a.21.21 0 0 1 .06.267c-.217.364.014 1.084.408 1.249.097.037.14.149.11.253-.132.402.24 1.055.656 1.138a.21.21 0 0 1 .163.223c-.05.422.452.98.877.974a.2.2 0 0 1 .201.185c.037.424.647.87 1.065.774a.204.204 0 0 1 .237.133c.126.402.817.713 1.205.536a.2.2 0 0 1 .261.08c.207.372.944.528 1.286.276a.197.197 0 0 1 .266.03c.133.149.371.231.618.238v-.99a6.84 6.84 0 0 1-6.833-6.83v-.01a6.84 6.84 0 0 1 6.833-6.833 6.84 6.84 0 0 1 6.831 6.832v.01a6.83 6.83 0 0 1-1.993 4.817l.678.677c.327-.17.617-.572.58-.899a.2.2 0 0 1 .163-.223c.417-.08.796-.736.655-1.138a.21.21 0 0 1 .11-.253c.388-.162.626-.884.41-1.25a.2.2 0 0 1 .06-.266c.349-.245.422-.997.133-1.309a.19.19 0 0 1-.052-.17"/></svg>