<svg role="img" viewBox="0 0 24 24" xmlns="http://www.w3.org/2000/svg"><title>tea</title><path d="M2.61 3.581c.583.226.87.855.64 1.405-1.91 4.564-.91 9.637 1.917 12.498a1.036 1.036 0 0 1-.041 1.52 1.18 1.18 0 0 1-1.605-.062C0 15.38-1.045 9.39 1.138 4.167c.23-.55.888-.812 1.47-.586zm14.632 0c-.583.226-.87.855-.64 1.405 1.909 4.565.909 9.637-1.918 12.498a1.036 1.036 0 0 0 .04 1.52 1.18 1.18 0 0 0 1.605-.062c3.522-3.563 4.568-9.553 2.385-14.775-.23-.55-.888-.812-1.471-.586zM6.66 19.421c0-.596.506-1.079 1.13-1.079h4.196c.626 0 1.132.483 1.132 1.08 0 .595-.506 1.078-1.132 1.078H7.79c-.625 0-1.132-.483-1.132-1.079zM21.735 8.008v-.073c0-.596.507-1.08 1.132-1.08.625 0 1.132.484 1.132 1.08v.073c0 .596-.507 1.08-1.132 1.08-.625 0-1.132-.484-1.132-1.08zm.007 4.515c.066-.593.623-1.022 1.245-.96.621.063 1.072.594 1.007 1.186-.13 1.178-.469 2.27-.765 3.055-.15.396-.292.721-.398.95-.06.13-.189.386-.189.386-.284.527-.96.737-1.516.47-.558-.267-.782-.916-.502-1.448.048-.092.092-.185.136-.278.088-.19.21-.47.339-.812.26-.69.539-1.603.643-2.55zm-15.18-7.26c1.194-.288 2.683-.207 4.052.882.72.572 1.45.628 2.095.486a3.27 3.27 0 0 0 .899-.345c.23-.13.398-.263.47-.34a1.17 1.17 0 0 1 1.595-.118c.475.387.53 1.068.123 1.52-.472.525-1.433 1.134-2.578 1.385-1.208.266-2.698.147-4.054-.93-.706-.563-1.41-.602-2.049-.448-.691.166-1.258.556-1.46.742a1.172 1.172 0 0 1-1.6-.026 1.043 1.043 0 0 1 .026-1.525c.434-.4 1.34-1.01 2.48-1.284z"/></svg>