<svg role="img" viewBox="0 0 24 24" xmlns="http://www.w3.org/2000/svg"><path d="M25.8 46.03c-.1-4.4-2.7-8-5.8-7.9s-5.6 3.7-5.5 8.2c.1 4.4 2.7 8 5.8 7.9s5.6-3.8 5.5-8.2M7.1 59.43c-.7-4.1.7-7.8 3.1-8.2 2.5-.4 5 2.5 5.7 6.6s-.7 7.8-3.1 8.2c-2.4.5-5-2.5-5.7-6.6m.5 8.1c-1.1-3.7-3.3-6.2-5.1-5.7-1.7.5-2.3 3.9-1.2 7.5 1.1 3.7 3.3 6.2 5.1 5.7 1.7-.5 2.3-3.9 1.2-7.5m7.7-34.8c-.1-4-2-7.2-4.4-7.2s-4.2 3.3-4.1 7.3 2 7.2 4.3 7.2 4.2-3.3 4.2-7.3m-8.4-10.6c-.1-3.6-1.7-6.4-3.6-6.4s-3.4 3-3.3 6.5c.1 3.6 1.7 6.4 3.6 6.4s3.3-3 3.3-6.5M58 47.43c-.1-5.7-4.8-10.2-10.5-10.1s-10.2 4.8-10.1 10.5 4.8 10.2 10.5 10.1c5.7-.2 10.2-4.8 10.1-10.5m-30.9 8.4c3.2-2 8.1.1 10.9 4.6s2.5 9.8-.7 11.8-8-.1-10.9-4.6c-2.8-4.5-2.5-9.8.7-11.8m-9.9 11.5c2.7-1.1 6.4 1.5 8.2 5.9s1.1 8.9-1.6 10-6.4-1.5-8.2-5.9-1.1-8.8 1.6-10m-8.9 8.9c1.9-.7 4.7 2.1 6.2 6.3 1.6 4.2 1.3 8.1-.6 8.8s-4.7-2.1-6.3-6.3c-1.5-4.2-1.2-8.1.7-8.8m26.6-55.4c3.6 1.1 5.3 6 3.8 11.1s-5.6 8.4-9.2 7.3-5.3-6-3.9-11.2c1.5-5 5.7-8.3 9.3-7.2M21.8 9.03c2.9.8 4.1 5.1 2.9 9.7-1.3 4.6-4.5 7.6-7.4 6.9-2.8-.8-4.1-5.1-2.9-9.7s4.6-7.7 7.4-6.9m-9.9-9c2 .4 2.8 4.3 1.9 8.6-.9 4.4-3.3 7.5-5.3 7.1s-2.8-4.3-1.9-8.6 3.3-7.5 5.3-7.1"/></svg>