<svg role="img" viewBox="0 0 24 24" xmlns="http://www.w3.org/2000/svg"><title>Tealium</title><path d="M19.32 12c-.02 1.533-.885 2.53-2.525 2.512-1.574-.018-2.565-1.048-2.564-2.512 0-1.551.981-2.558 2.61-2.558 1.593 0 2.5 1.014 2.479 2.558m-7.123-2.13c.727.217 1.2-.048 1.569-.456.57-.632.813-1.424.853-2.36.033-.764-.309-1.48-1.034-1.703-.753-.233-1.092-.003-1.585.496-.662.67-.885 1.498-.861 2.373.023.843.359 1.441 1.058 1.65M12 14.124c.574-.272 1.259-.157 1.738.388.684.779.965 1.687.883 2.773-.126.691-.433 1.212-1.171 1.351-.8.049-1.471-.251-1.934-1.121a3.94 3.94 0 0 1-.358-2.211c.047-.431.385-.964.842-1.18M11.139 12a2.23 2.23 0 0 0-.824-1.869c-.429-.245-.733-.218-1.161.034-.46.368-.741.969-.818 1.835-.041.831.265 1.445.836 1.894.297.233.732.223 1.023.035.671-.434.962-1.075.944-1.929m-3.034 1.958q-.453-.367-.937 0c-.338.32-.496.705-.56 1.123-.034.485-.017.857.028 1.166.075.474.292.844.661 1.102.172.106.375.109.606.019.413-.244.629-.64.689-1.157.055-.475.111-.909-.011-1.38-.082-.315-.218-.637-.476-.873m0-7.301q-.453-.367-.937 0c-.338.32-.496.705-.56 1.123-.034.485-.017.857.028 1.166.075.474.292.844.661 1.102.172.106.375.109.606.019.413-.244.629-.64.689-1.157.055-.475.111-.909-.011-1.38-.082-.315-.218-.637-.476-.873m.454 11.287c.21-.454.809-.653 1.274-.412.498.216.756.615 1.018 1.104.246.601.336 1.212.288 1.832-.06.47-.27.823-.683 1.019-.463.219-1.095-.025-1.245-.237-.445-.43-.65-.93-.801-1.458-.102-.668-.16-1.181.149-1.848m-2.814-1.251c.615.001.787.625.81 1.609-.009.916-.232 1.566-.792 1.559-.581-.006-.86-.544-.882-1.225-.005-.176-.045-.399.003-.768.087-.676.346-1.176.861-1.175m0-12.627c.615.001.787.625.81 1.609-.009.916-.232 1.566-.792 1.559-.581-.006-.86-.544-.882-1.225-.005-.176-.045-.399.003-.768.087-.676.346-1.176.861-1.175m.863 16.126c.154-.35.459-.405.808-.193.408.275.716.85.92 1.736.088.539.092 1.073-.102 1.596-.144.386-.353.525-.735.386-.498-.295-.799-.846-.991-1.555-.197-.727-.087-1.544.1-1.97M7.399.306c.352-.268.685-.189.82.215a3.66 3.66 0 0 1 .117 1.848c-.175.653-.465 1.215-.937 1.632a.48.48 0 0 1-.473.123c-.196-.047-.316-.281-.394-.523-.116-.268-.175-.965-.012-1.716.166-.55.372-1.026.735-1.429q.069-.077.144-.15m2.339 2.081c.388-.107.69-.015.916.168.25.202.432.522.485 1.034.085.828-.13 1.508-.495 2.108-.417.642-.93.904-1.543.762-.497-.187-.738-.618-.765-1.256a3.6 3.6 0 0 1 .227-1.562c.199-.542.566-1.087 1.175-1.254"/></svg>