<svg role="img" viewBox="0 0 24 24" xmlns="http://www.w3.org/2000/svg"><title>TeamFortressTV icon</title><path d="M16.57 12.393a.843.843 0 01.798-.297c.601.094 1.532.258 1.532.258-.518 1.563-2.028 2.848-4.019 3.482 2.147-.589 3.839-1.83 4.595-3.381l2.12.373c-.63 2.629-3.289 4.757-6.766 5.507 3.615-.715 6.448-2.788 7.361-5.403l1.785.314c-.831 4.258-5.858 7.537-11.927 7.537-.52 0-1.033-.024-1.536-.071l1.8-6.124a.687.687 0 01.59-.49c1.541-.164 2.864-.806 3.667-1.705zM.652 9.146l1.221.214a5.496 5.496 0 00-.287 1.75c0 2.942 2.369 5.489 5.815 6.716l-.785 2.014C2.693 18.392 0 15.423 0 12c0-.999.229-1.959.652-2.854zm2.187.384l1.465.258a4.015 4.015 0 00-.089.843c0 2.109 1.65 3.946 4.082 4.894l-.873 2.241c-2.994-1.19-5.026-3.495-5.026-6.14 0-.73.154-1.434.441-2.096zm2.382.419l1.42.25a.178.178 0 01.147.176h.001c0 1.149.723 2.178 1.864 2.87.245.146.349.448.245.714-.223.593-.584 1.521-.584 1.521-1.977-.904-3.291-2.503-3.291-4.324 0-.416.068-.82.198-1.207zm6.832-1.947c-1.616 0-2.926.933-2.926 2.084 0 1.15 1.31 2.086 2.926 2.086 1.615 0 2.926-.935 2.926-2.086 0-1.151-1.311-2.084-2.926-2.084zm.011.986c.603 0 1.15.164 1.545.428.396.264.639.628.639 1.03 0 .138-.028.273-.082.4-.162.27-.445.502-.807.666-.36.163-.8.26-1.273.26-.548 0-1.05-.129-1.438-.342-.388-.214-.663-.513-.757-.852a.854.854 0 01-.01-.076.854.854 0 010-.057c0-.401.243-.765.639-1.029.395-.264.941-.428 1.544-.428zm3.48-5.395c4.474.988 7.851 3.825 8.456 7.287l-1.519-.252c-.274-3.079-3.147-5.655-7.061-6.612zm-.409 1.393c3.352.812 5.889 2.918 6.475 5.497l-1.728-.287c-.234-2.152-2.189-3.962-4.886-4.737zm-.423 1.438c2.108.624 3.706 1.97 4.213 3.613l-1.32-.219a.455.455 0 01-.36-.318c-.326-.987-1.201-1.822-2.38-2.339a.398.398 0 01-.225-.48c.036-.135.072-.257.072-.257zm-2.726-.376l-.118.305a.437.437 0 01-.373.275c-1.413.111-2.658.62-3.513 1.364a.58.58 0 01-.485.143c-.362-.058-.948-.155-.948-.155 1.276-1.164 3.237-1.916 5.437-1.932zM4.173 7.585c1.753-1.79 4.637-2.958 7.895-2.958.157 0 .313.002.469.008l-.165.424a10.82 10.82 0 00-.312-.005c-2.862 0-5.368 1.092-6.739 2.722zm-2.227-.37c2.15-2.406 5.874-3.998 10.103-3.998.346 0 .689.011 1.027.032l-.153.394c-.29-.018-.583-.027-.879-.027-3.88 0-7.27 1.518-9.075 3.769z"/></svg>
