<svg role="img" viewBox="0 0 24 24" xmlns="http://www.w3.org/2000/svg"><title>TeamSpeak</title><path d="m12.005.6078-.0904.0004-.0278.0003-.0643.0007-.0247.0003h-.005l-.0695.0014-.0212.0007-.0897.0025-.0212.001-.0692.0024-.0296.001-.0643.0029-.027.0014-.0895.0048-.0893.0056-.0268.0017-.064.0045-.0288.0021-.0699.0052-.0198.0018-.0887.0076-.0195.0018-.0699.0066-.0278.0028-.065.0062-.025.0028-.0886.0097-.0887.0105-.024.003-.066.0084-.0258.0035-.073.0097-.0153.0021-.0894.0129-.0149.002-.0734.0112-.024.0038-.0688.0112-.0202.003-.0887.015-.0883.016-.019.0032-.071.0132-.0202.0038-.08.0153-.007.0014-.091.0184-.007.0017-.081.0167-.0175.0039-.0754.0163L9.386.895l-.089.02-.0897.0212-.0108.0025-.0786.0195-.0125.003-.0869.022c-.0308.0081-.0619.016-.0925.024l-.088.0236-.009.0024-.0848.0237-.003.0007-.0904.026-.0907.0272h-.001l-.088.027-.003.0008c-.0513.0158-.1012.035-.1523.0514-.022.0072-.0447.013-.0668.0202-.026.0086-.0523.0166-.0782.0254-.0396.0134-.0778.0296-.1171.0434-.137.048-.2725.0983-.4071.151-.0375.0146-.076.027-.1134.042-.0202.0081-.0407.0157-.0608.024-.0253.0103-.0496.0225-.0747.033a11.95 11.95 0 0 0-.4373.1944c-.045.0208-.0913.039-.136.0605a1.1705 1.1705 0 0 0-.0257.0121c-.0125.006-.0244.013-.0369.0191-.2094.1021-.416.2087-.6185.3223a16.163 16.163 0 0 0-.4498.548c-.0157.02-.0305.0406-.046.0608-.0162.0209-.0338.0406-.05.0615.002-.0015.005-.003.007-.0045a28.1372 28.1372 0 0 1-.095.1262c-.0833.1102-.1676.2196-.2482.332-.0572.0799-.1114.1618-.1672.2427-.0809.1174-.1624.2343-.2402.354-.054.0827-.1048.1675-.1572.2513-.0747.1195-.1495.2389-.221.3605-.0503.0852-.0982.1718-.1468.258a15.8495 15.8495 0 0 0-.209.379c-.0458.0866-.0896.1745-.1338.262a16.0593 16.0593 0 0 0-.1864.3776c-.0454.096-.0886.193-.132.29a16.06 16.06 0 0 0-.1642.3762 16.352 16.352 0 0 0-.1157.2864 15.9844 15.9844 0 0 0-.1534.4009c-.0157.043-.0334.0848-.0487.128.003-.0042.005-.008.008-.0122-.1262.3542-.2378.7154-.3396 1.0805C1.1776 9.0061 0 10.6674 0 12.6012c0 2.5785 2.0934 4.672 4.672 4.672 2.5784 0 4.6718-2.0935 4.6718-4.672 0-2.3055-1.6737-4.222-3.8712-4.6024a13.6732 13.6732 0 0 1 3.387-5.2317c.9925-.3176 2.0485-.4933 3.146-.4933 5.6998 0 10.3275 4.6273 10.3284 10.3274v.0014c0 2.1301-.6463 4.1106-1.753 5.7552l-.0124.0188c-2.0696 3.082-5.8866 5.191-11.0652 4.6406l.0195.0167c5.1989 1.1369 9.373-.5442 11.8797-3.4561-.006.0075-.0108.0151-.0163.0226.101-.1167.199-.2355.2945-.356.004-.0047.008-.0092.0115-.014.024-.0303.0462-.0618.07-.0924.0892-.1156.1767-.2326.261-.3515.0344-.0485.0673-.0977.1008-.1467a10.635 10.635 0 0 0 .3074-.4746c.068-.1114.1333-.2242.197-.3379.0255-.0454.0518-.0902.0766-.136.0865-.1595.17-.3207.2482-.4842.0007-.0014.001-.0028.002-.0042.005-.0108.009-.022.0146-.0327.0716-.1512.139-.3043.2034-.4586.0224-.0537.0431-.108.0647-.162a10.7185 10.7185 0 0 0 .1965-.5316 10.625 10.625 0 0 0 .1147-.3619c.016-.0537.033-.107.0483-.161a10.6595 10.6595 0 0 0 .1355-.5263c.002-.0068.003-.0137.004-.0205.0378-.167.0707-.335.1005-.5038.011-.0624.02-.1251.03-.1877a10.4156 10.4156 0 0 0 .073-.556c.013-.1244.0233-.2492.032-.3744.004-.0596.009-.119.0117-.1787.009-.1813.0156-.3628.0156-.5451a12.1878 12.1878 0 0 0-.0618-1.2255v-.0004a12.0553 12.0553 0 0 0-.0765-.5997v-.0003c-.005-.0355-.013-.07-.0188-.1054a11.911 11.911 0 0 0-.2208-1.0649 11.8856 11.8856 0 0 0-.3504-1.126V8.48a11.9838 11.9838 0 0 0-1.0098-2.095v-.0004a12.0266 12.0266 0 0 0-.3118-.4864l-.0004-.0003a12.0744 12.0744 0 0 0-3.727-3.5525 11.981 11.981 0 0 0-1.0193-.5541h-.0003a11.9364 11.9364 0 0 0-.531-.2403h-.0003C15.237.9438 13.66.6078 12.005.6078zm.232 3.2754c1.3626 1.3723 2.1345 3.2041 2.4092 5.2278.1041.7649-.0459 1.6103-.769 2.1308-.0587.3318.114.6948.266 1.0541.3886.92.9812 1.7565 1.408 2.642.3844.7976-.632 1.3876-1.374 1.6308a7.0617 7.0617 0 0 1-.2743.0824c.0475.3833.2738.6694.2149 1.003-.0417.2366-.1797.4522-.3724.5994 0 0 .28.879-.38 1.2596-.152.0877-.3302.1054-.3636.3421-.064.4672-.1347.925-.5045 1.3055a1.782 1.782 0 0 1-.1766.1589c4.3256-.1521 7.9688-3.5064 8.3704-7.9285.4354-4.794-3.103-9.0398-7.8972-9.4753a8.8632 8.8632 0 0 0-.557-.0326zm-1.9727.1707a8.6728 8.6728 0 0 0-2.0033.671c.3882.1337.7362.316.971.534 1.0886 1.0106 1.6274 2.0027 1.9292 3.382.2667 1.2187.3949 1.809-.2458 2.2533-.8646.6.9238 3.1637 1.2725 3.9056-.461.5913-1.0619.5784-1.3795.7423-.1763.0907-.1033.4268-.0747.6856.0278.2536.2615.4127.1335.6091-.1148.176-.5488.189-.737.3098.1812.1998.5842.3997.5312.6591-.0408.2006-.493.1656-.6672.6217-.0934.2446-.045.6976-.2378.9265-.448.5314-.917.621-1.85.5173a16.5426 16.5426 0 0 1-.908-.1269 8.6096 8.6096 0 0 0 2.2622 1.1369 1.877 1.877 0 0 0 .7805.0813c.4916-.0452.8337-.2255 1.1657-.6192.2194-.2603.1647-.776.2709-1.054.198-.519.7122-.4786.7586-.7065.0603-.2952-.3978-.523-.604-.75.2143-.1377.7074-.152.838-.3521.1456-.2233-.1199-.4047-.1516-.693-.0325-.2944-.1155-.6766.0848-.7797.3612-.1865 1.0447-.1721 1.569-.8445-.3967-.8438-2.4307-3.7594-1.4473-4.4418.7285-.5054.5831-1.1766.2798-2.5626-.3434-1.5688-.956-2.6969-2.194-3.8462-.0993-.092-.2162-.1788-.3467-.259zm3.9825 1.115c1.1739.44 2.2502 1.1104 3.1171 2.0063 1.6518 1.7074 2.6345 4.1892 2.158 6.5027-.451 2.1902-2.3522 4.015-3.612 4.577-.603.2692-1.092.2297-1.0888.1565.003-.0733.0798-.227.4575-.6821 1.3513-1.6296 2.1472-4.0092.9596-5.8676-.2407-.377-.536-.6958-.8692-.9675.2674-.5034.3133-1.0956.2382-1.6497-.2013-1.4809-.6444-2.8681-1.3604-4.0757zM4.6714 9.097a3.5039 3.5039 0 0 1 3.504 3.5041 3.5039 3.5039 0 0 1-3.504 3.5038 3.5039 3.5039 0 0 1-3.5038-3.5038A3.5039 3.5039 0 0 1 4.6714 9.097zm0 1.0948a2.409 2.409 0 0 0-2.409 2.4093 2.409 2.409 0 0 0 2.409 2.409 2.409 2.409 0 0 0 2.409-2.409 2.409 2.409 0 0 0-2.409-2.4093z"/></svg>