<svg role="img" viewBox="0 0 24 24" xmlns="http://www.w3.org/2000/svg"><title>TeamSpeak</title><path d="M12.005.608h-.118l-.064.001h-.03l-.07.002h-.02l-.09.003-.022.001-.069.003h-.03l-.064.003-.027.002-.09.005-.089.005-.026.002-.064.004-.03.003-.07.005-.019.001-.089.008-.02.002-.07.006-.027.003-.065.007-.025.002-.088.01-.09.01-.023.004-.066.008-.026.003-.073.01-.015.002-.09.013-.015.002-.073.011-.024.004-.069.011-.02.003-.089.015-.088.016-.02.003-.07.014-.02.003-.08.016-.007.001-.091.019-.007.001-.081.017-.018.004L9.4.892l-.013.003-.089.02-.09.021-.01.003-.08.02-.012.002-.086.022-.093.024-.088.024-.009.002-.085.024h-.003l-.088.027h-.003c-.051.017-.101.036-.152.052l-.067.02-.078.026c-.04.013-.078.03-.117.043-.137.048-.273.098-.407.151l-.114.042-.06.024c-.026.01-.05.023-.075.033a11.95 11.95 0 0 0-.438.194l-.136.061a1.17 1.17 0 0 0-.025.012l-.037.02a12 12 0 0 0-.619.322c-.154.179-.303.362-.45.547l-.045.061c-.017.021-.034.04-.05.062l.006-.005-.094.127c-.084.11-.168.22-.249.332-.057.08-.111.161-.167.242-.08.118-.162.235-.24.354-.054.083-.105.168-.157.251-.075.12-.15.24-.221.361-.05.085-.098.172-.147.258-.071.126-.142.251-.21.379l-.133.262c-.063.125-.126.25-.186.378-.046.096-.089.193-.132.29A16.06 16.06 0 0 0 3.234 7.1c-.015.043-.033.085-.048.128l.008-.012c-.127.354-.238.715-.34 1.08A4.676 4.676 0 0 0 0 12.601a4.674 4.674 0 0 0 4.672 4.672 4.674 4.674 0 0 0 4.672-4.672A4.675 4.675 0 0 0 5.473 8C6.19 6 7.359 4.213 8.86 2.768a10.3 10.3 0 0 1 3.146-.493c5.7 0 10.327 4.627 10.328 10.327v.002c0 2.13-.646 4.11-1.753 5.755l-.012.019c-2.07 3.082-5.887 5.19-11.065 4.64l.019.017c5.199 1.137 9.373-.544 11.88-3.456l-.017.022c.101-.116.2-.235.295-.356l.011-.014.07-.092c.09-.116.177-.233.261-.351.035-.049.068-.098.101-.147a10.635 10.635 0 0 0 .505-.813l.076-.136c.087-.16.17-.32.248-.484l.002-.004.015-.033a9.81 9.81 0 0 0 .203-.458c.023-.054.043-.108.065-.162a10.718 10.718 0 0 0 .311-.894l.049-.16a10.66 10.66 0 0 0 .135-.527l.004-.02c.038-.168.07-.336.1-.504.012-.063.02-.126.03-.188a10.416 10.416 0 0 0 .106-.93c.004-.06.009-.12.011-.18a10.988 10.988 0 0 0-.046-1.77 11.7 11.7 0 0 0-.076-.6c-.005-.036-.013-.07-.02-.106a11.91 11.91 0 0 0-.57-2.19V8.48a12.027 12.027 0 0 0-1.322-2.582 12.074 12.074 0 0 0-4.747-4.107 11.936 11.936 0 0 0-.53-.24h-.001a11.945 11.945 0 0 0-4.667-.943zm.232 3.275c1.363 1.373 2.134 3.204 2.41 5.228.103.765-.047 1.61-.77 2.13-.058.333.114.696.266 1.055.389.92.981 1.756 1.408 2.642.385.797-.632 1.388-1.374 1.63-.09.03-.182.057-.274.083.047.383.274.67.215 1.003a.98.98 0 0 1-.373.6s.28.878-.38 1.26c-.152.087-.33.104-.363.341-.064.467-.135.925-.505 1.306-.056.057-.114.11-.176.159 4.325-.153 7.969-3.507 8.37-7.929.436-4.794-3.103-9.04-7.897-9.475a8.863 8.863 0 0 0-.557-.033zm-1.973.17c-.699.143-1.37.37-2.003.672.388.134.736.316.971.534 1.089 1.01 1.627 2.003 1.93 3.382.266 1.219.394 1.809-.247 2.253-.864.6.924 3.164 1.273 3.906-.461.591-1.062.578-1.38.742-.176.09-.103.427-.074.686.027.253.261.412.133.609-.115.176-.549.189-.737.31.181.2.584.4.531.659-.04.2-.493.165-.667.621-.093.245-.045.698-.238.927-.448.531-.917.62-1.85.517-.321-.035-.627-.08-.908-.127a8.61 8.61 0 0 0 2.263 1.137c.251.082.517.11.78.082.492-.046.834-.226 1.166-.62.22-.26.164-.776.27-1.054.199-.519.713-.478.76-.706.06-.295-.398-.523-.605-.75.215-.138.708-.152.838-.352.146-.224-.12-.405-.151-.693-.033-.295-.116-.677.084-.78.362-.186 1.045-.172 1.57-.845-.397-.843-2.431-3.759-1.448-4.441.729-.506.583-1.177.28-2.563-.343-1.569-.956-2.697-2.194-3.846a2.214 2.214 0 0 0-.347-.26zm3.983 1.116c1.174.44 2.25 1.11 3.117 2.006 1.652 1.708 2.634 4.19 2.158 6.503-.451 2.19-2.352 4.015-3.612 4.577-.603.27-1.092.23-1.089.156.003-.073.08-.227.458-.682 1.35-1.63 2.147-4.009.96-5.867a4.077 4.077 0 0 0-.87-.968c.267-.503.313-1.095.238-1.65-.201-1.48-.644-2.868-1.36-4.075zM4.67 9.097a3.504 3.504 0 0 1 3.504 3.504 3.504 3.504 0 0 1-3.504 3.504 3.504 3.504 0 0 1-3.503-3.504A3.504 3.504 0 0 1 4.67 9.097zm0 1.095a2.409 2.409 0 0 0-2.409 2.41 2.409 2.409 0 0 0 2.41 2.408 2.409 2.409 0 0 0 2.408-2.409 2.409 2.409 0 0 0-2.409-2.41z"/></svg>