<svg viewBox="0 0 16 16" xmlns="http://www.w3.org/2000/svg"><path d="M15.937.626c.02 0 .037.003.047.008.01.005.016.018.016.04l-.845 4.117v.02h-.04c-.006 0-.03 0-.07-.01h-.03c-.054-.01-.1-.02-.143-.03-.042-.01-.09-.01-.14-.01-.366-.06-.726-.11-1.08-.15-.356-.04-.71-.07-1.066-.09l-.25 5.26-.047-.08c0-.01-.01-.01-.01-.02l-.01-.01c-.01 0-.02 0-.03-.01-.01-.01-.01-.02-.01-.03-.02-.01-.04-.02-.05-.04-.01-.01-.03-.03-.05-.04-.06-.05-.12-.1-.19-.15-.08-.05-.15-.1-.22-.14l-.12-.06-.11-.06c-.01 0-.02 0-.03-.01l-.01-.02.23-5.49h.08c.08 0 .17 0 .26.01s.19.01.28.01l.55.03c.18.01.36.03.54.05l.28.03.27.03H14c.024 0 .06.01.1.02.05.01.11.02.17.02.06.01.11.01.14.03l.5-2.47c-.01 0-.024 0-.045-.01l-.08-.03c-.35-.07-.71-.13-1.07-.19-.36-.05-.723-.09-1.09-.12-.28-.03-.567-.05-.86-.06-.285-.01-.58-.02-.87-.02h-.53c0 .02 0 .04-.01.06l-.03.1-.03.09c-.01.06-.03.13-.057.19-.028.07-.05.13-.07.19-.065.12-.13.23-.198.33-.068.11-.138.21-.21.32-.168.2-.356.37-.565.52-.205.15-.43.27-.67.36-.164.06-.334.11-.51.14-.17.03-.343.05-.52.05-.094 0-.19 0-.29-.01-.1-.01-.196-.02-.29-.04-.27-.05-.53-.14-.775-.27-.244-.13-.466-.29-.664-.48-.11-.09-.2-.19-.28-.29-.074-.1-.15-.21-.223-.33l-.478.17-.48.18c-.325.11-.644.24-.957.38-.31.14-.62.29-.922.45l-.46.25c-.152.09-.306.17-.462.25v.01c0 .01-.007.01-.018.01l-.058.03-.025.02 1.04 2.28.132-.07c.04-.02.09-.05.142-.07.325-.17.654-.32.99-.47.332-.14.67-.28 1-.41h.03L5.82 10.4c.22-.095.425-.176.618-.243.197-.068.38-.128.56-.18.344-.094.7-.165 1.065-.212.365-.044.73-.07 1.096-.07.19 0 .38.01.57.026.18.02.35.04.51.07.19.04.37.1.54.16.16.07.31.14.44.24.15.1.28.21.39.34.1.13.19.27.25.42.06.16.09.32.1.5 0 .18-.02.35-.06.51-.02.09-.05.17-.08.24-.04.08-.08.16-.13.23 0 .01 0 .02-.01.02s-.01.01-.01.02l-.03.03c-.01.01-.01.02-.01.03 0 .01 0 .02.01.03l.02.04v.02l.01.02.06.13c.01.04.02.09.02.13.04.17.05.34.03.52-.02.19-.06.37-.12.54-.11.29-.28.54-.51.77-.24.23-.54.43-.9.61-.28.15-.59.27-.92.37-.34.1-.71.19-1.12.26-.1.02-.19.04-.28.05l-.26.01-.17.02-.07-.95v-.01h.03l.02-.01h.1l.04-.03h.12c.04 0 .07-.01.1-.01.19-.03.37-.06.54-.1.18-.04.35-.08.53-.13.18-.05.35-.1.51-.16.16-.05.31-.12.46-.19.17-.09.31-.18.43-.28.12-.1.22-.2.3-.3.05-.06.1-.13.13-.2s.05-.14.06-.22v-.15l-.08.06c-.01.01-.03.02-.05.03l-.07.03c-.14.09-.29.16-.45.23-.16.07-.33.14-.51.2-.17.06-.34.12-.52.16-.18.05-.36.09-.53.12-.19.03-.37.06-.55.08-.18.02-.36.04-.54.05h-.1c-.17 0-.33 0-.47-.02-.15-.01-.28-.04-.41-.07-.19-.05-.35-.12-.49-.21s-.24-.2-.3-.34c-.07-.12-.11-.26-.1-.42 0-.15.04-.3.11-.44.07-.13.17-.25.29-.36.12-.11.27-.21.44-.3.14-.07.29-.14.46-.19.16-.05.34-.11.53-.16.15-.04.32-.08.5-.11s.37-.05.58-.06c.07-.01.15-.02.23-.02.08-.01.16-.01.25-.01h.3l.3.03c.09.01.18.02.27.04.09.02.17.03.25.05.05.01.1.03.14.04l.11.04h.01c.01 0 .02.01.02.01l.01.01.03.02-.02.02c-.09.21-.25.38-.5.5-.25.13-.42.21-.53.24H9.4c-.01-.01-.02-.02-.024-.02h-.29c-.092 0-.183 0-.272.01-.09.01-.176.01-.26.02-.187.02-.37.05-.547.08-.18.03-.346.08-.5.13-.097.03-.186.06-.27.1-.083.03-.16.06-.234.1-.042.02-.08.04-.117.06-.036.02-.07.04-.1.06-.02.02-.05.04-.08.06-.03.02-.057.05-.08.08.01 0 .027 0 .04.01l.09.02v.02c.04.01.08.02.12.02.043 0 .09.01.14.01.043.01.085.014.127.014h.404c.17 0 .343-.01.525-.04.18-.027.368-.05.556-.087.19-.04.364-.084.53-.14.165-.05.326-.11.483-.17.09-.03.17-.07.24-.1.08-.04.15-.08.23-.12l.19-.11c.07-.04.15-.09.22-.14.11-.093.21-.21.31-.34.11-.13.16-.28.16-.444 0-.085-.01-.16-.04-.23-.02-.07-.06-.13-.12-.18-.05-.05-.11-.1-.17-.14-.06-.04-.13-.08-.22-.11-.17-.06-.35-.11-.54-.13-.18-.026-.34-.04-.49-.04-.05-.01-.1-.01-.16-.01H9.1c-.314 0-.627.023-.94.07-.313.05-.62.11-.923.2-.17.04-.335.09-.502.15-.17.07-.345.13-.533.21-.146.06-.297.12-.454.2l-.5.26-.03.02-1.38-5.73-.06.03-.063.03c-.336.15-.665.3-.988.47-.326.17-.644.34-.957.52l-.032.02L0 3.22c0-.01.005-.015.016-.02l.078-.055c.02-.01.042-.024.063-.04.02-.015.036-.028.047-.04.01 0 .018 0 .023-.006h.008c.073-.04.15-.08.227-.13l.243-.15c.145-.08.295-.17.445-.25.16-.08.3-.17.45-.25.31-.16.62-.31.93-.45.32-.15.64-.29.95-.41.34-.13.67-.25 1-.36.33-.12.67-.23 1.02-.32l.03-.02v.03c.05.21.12.4.23.59.11.18.24.34.39.49.19.16.4.29.64.39.24.09.49.14.74.14.03 0 .06-.01.09-.01.024-.01.053-.01.084-.01.25-.02.494-.09.73-.21.234-.12.44-.27.617-.46.2-.22.35-.47.43-.75.09-.28.12-.58.07-.88l.03-.01.68-.03c.23-.01.45-.01.68-.01h.43c.37.01.73.03 1.09.05.36.02.72.06 1.08.1.35.04.69.09 1.03.15.34.06.67.13 1.01.22l.03.01.06.02.12.03c.04.01.08.02.11.04h.01c.01 0 .02.01.03.01l.02.01z"/></svg>