<svg width="16" height="16" viewBox="0 0 16 16" xmlns="http://www.w3.org/2000/svg"><path d="M15.937.626c.02 0 .037.003.047.008.01.005.016.018.016.04l-.845 4.117v.016h-.041c-.005 0-.028-.005-.07-.015h-.03c-.053-.01-.1-.02-.142-.03-.042-.01-.09-.016-.14-.016-.366-.063-.726-.115-1.08-.157-.356-.042-.71-.073-1.066-.094l-.25 5.26-.047-.078c0-.01-.003-.018-.008-.023l-.008-.008c-.01 0-.018-.005-.024-.016-.005-.01-.007-.02-.007-.03-.02-.012-.037-.025-.047-.04-.01-.016-.026-.03-.047-.04-.053-.052-.116-.104-.19-.156-.072-.052-.145-.1-.218-.14l-.118-.063c-.036-.022-.075-.043-.117-.064-.01 0-.018-.005-.024-.016l-.007-.015.234-5.496h.079c.082 0 .17.002.265.007.094.006.188.008.282.008l.555.03c.183.012.363.028.54.048.094.01.188.02.282.032l.266.03h.055c.026 0 .06.006.102.017.052.01.11.018.172.023.062.005.11.013.14.024l.5-2.475c-.01 0-.025-.003-.046-.008l-.078-.023c-.355-.073-.712-.136-1.073-.188-.36-.052-.722-.094-1.088-.125-.28-.03-.568-.052-.86-.062-.293-.01-.585-.016-.877-.016h-.533c0 .02-.002.04-.008.055-.005.016-.007.03-.007.04-.01.03-.02.062-.032.093l-.03.094c-.01.063-.03.125-.056.188-.026.063-.05.125-.07.188-.063.115-.128.224-.196.33-.068.103-.138.207-.21.312-.168.198-.356.37-.565.516-.208.147-.432.267-.672.36-.167.063-.337.11-.51.14-.17.033-.346.048-.523.048-.094 0-.19-.005-.29-.015-.1-.01-.196-.025-.29-.046-.27-.052-.53-.144-.775-.274-.245-.13-.467-.29-.665-.478-.104-.094-.196-.193-.274-.297-.077-.105-.153-.214-.226-.33-.156.053-.316.108-.477.165-.162.058-.32.118-.478.18-.324.115-.643.243-.956.384-.313.14-.62.29-.924.446-.156.084-.31.167-.46.25-.153.084-.307.168-.463.25v.01c0 .004-.005.007-.016.007l-.054.03-.023.017L2.176 5.84c.042-.02.086-.045.133-.07.046-.027.096-.05.148-.07.323-.168.652-.325.986-.47.334-.147.668-.283 1.002-.408h.03l1.348 5.573c.22-.094.425-.175.618-.242.193-.068.38-.128.556-.18.344-.094.7-.165 1.065-.212.365-.046.73-.07 1.096-.07.197 0 .387.01.57.024.183.016.352.04.51.07.197.042.377.095.54.157.16.064.31.142.445.236.157.094.287.206.39.337.106.13.19.268.252.415.063.156.096.32.102.493.004.173-.014.343-.056.51-.02.083-.047.164-.078.242-.032.078-.073.154-.126.227 0 .01-.002.015-.007.015-.006 0-.008.005-.008.016-.01.01-.02.02-.024.032-.004.01-.007.02-.007.03 0 .012.003.022.008.032.006.01.014.02.025.032l.008.015.007.017c.02.042.04.084.055.125.016.042.024.084.024.126.04.167.053.34.038.524-.016.183-.055.363-.118.54-.104.282-.274.538-.508.767-.235.23-.535.432-.9.61-.282.146-.59.27-.924.368-.334.1-.705.185-1.112.258-.094.02-.185.037-.274.047l-.274.03-.172.017-.063-.955v-.016h.032l.023-.008.024-.008h.062l.047-.016c.043 0 .082-.003.12-.008.035-.005.07-.008.1-.008.188-.03.368-.065.54-.1.173-.038.348-.082.525-.134.177-.053.347-.107.51-.165.16-.057.315-.122.46-.196.168-.083.31-.174.43-.273.12-.1.223-.2.306-.306.054-.062.095-.13.127-.203.03-.073.052-.146.062-.22v-.155l-.08.062c-.01.01-.025.02-.046.03l-.063.032c-.134.084-.283.16-.445.227-.162.07-.33.134-.51.197-.166.063-.338.117-.515.164-.178.048-.355.087-.532.12-.188.03-.37.056-.548.077-.178.02-.355.037-.533.047H7.39c-.168 0-.324-.008-.47-.024-.146-.015-.282-.04-.407-.07-.188-.052-.35-.123-.486-.21-.135-.09-.234-.202-.297-.338-.073-.125-.107-.266-.102-.423.005-.157.045-.303.118-.44.073-.135.17-.257.29-.367.12-.11.268-.21.445-.305.137-.073.288-.138.455-.196.167-.057.345-.112.533-.164.156-.042.323-.08.5-.11.178-.03.37-.052.58-.062.073-.01.15-.02.235-.024.083-.005.167-.008.25-.008.105 0 .206.003.306.008.098.005.2.013.304.024.094.01.185.023.274.04.09.014.175.033.258.053.052.01.1.023.14.04l.11.038h.016c.01 0 .02.002.024.008l.008.007.03.016-.015.015c-.084.208-.25.375-.494.5-.245.126-.42.204-.524.236h-.079c-.01-.01-.018-.015-.023-.015H9.08c-.094 0-.185.002-.274.008-.088.005-.175.013-.258.023-.188.02-.37.047-.548.078-.177.032-.344.074-.5.126-.095.03-.184.062-.267.094-.084.03-.162.062-.235.094-.042.02-.08.04-.117.062-.036.02-.07.042-.1.063-.022.02-.048.042-.08.062-.03.02-.057.047-.078.08.01 0 .024 0 .04.007.015.005.044.013.086.023v.016c.04.01.083.02.125.024.042.005.09.008.14.008.042.01.084.016.126.016H7.546c.167 0 .342-.013.524-.04.183-.026.368-.054.556-.086.188-.04.366-.088.533-.14.166-.053.327-.11.484-.173.083-.032.164-.066.242-.102.08-.037.154-.076.228-.118l.187-.11c.074-.04.147-.088.22-.14.105-.094.21-.207.314-.337.104-.13.156-.28.156-.446 0-.084-.013-.16-.04-.227-.025-.068-.064-.128-.116-.18-.053-.052-.11-.1-.173-.14-.06-.043-.134-.08-.218-.11-.177-.063-.357-.108-.54-.134-.182-.026-.347-.04-.493-.04-.053-.01-.105-.015-.158-.015h-.14c-.314 0-.627.025-.94.072-.313.047-.62.112-.923.196-.168.04-.335.094-.502.156-.167.063-.345.13-.533.204-.146.052-.297.117-.454.195-.155.08-.322.165-.5.26l-.03.014-1.38-5.73c-.02.01-.04.02-.06.032l-.064.03c-.334.146-.663.303-.986.47-.324.167-.642.34-.955.516l-.032.016L0 3.225c0-.01.005-.018.016-.023.01-.006.036-.024.078-.055.02-.01.042-.024.063-.04.02-.015.036-.028.047-.04.01 0 .018 0 .023-.006l.008-.007c.073-.042.15-.086.227-.133.078-.047.16-.097.243-.15.146-.082.294-.166.446-.25.152-.083.3-.166.447-.25.303-.156.613-.308.93-.454.32-.146.635-.282.95-.407.333-.126.667-.246 1-.36C4.81.933 5.15.83 5.495.735l.03-.016v.03c.043.21.12.406.228.59.11.18.238.346.384.492.188.167.402.297.642.39.24.095.484.142.735.142.03 0 .06-.003.086-.008.027-.005.056-.008.087-.008.25-.02.493-.088.728-.203.235-.115.44-.266.618-.454.2-.218.342-.47.43-.75.09-.282.113-.575.07-.877V.047L9.567.03c.23-.01.456-.017.68-.022C10.472.003 10.7 0 10.93 0h.422c.366.01.728.03 1.088.055.36.026.718.06 1.073.102.345.04.687.093 1.026.156.34.063.676.136 1.01.22V.516l.03.015.064.016.125.03c.042.012.078.022.11.033h.015c.01 0 .02.003.032.008l.015.008z"/></svg>