<svg role="img" viewBox="0 0 24 24" xmlns="http://www.w3.org/2000/svg"><title>Teespring</title><path d="M23.86.952c.029 0 .056.004.07.011.015.009.023.027.023.061L22.69 7.176v.029h-.059c-.009 0-.045 0-.104-.016h-.044c-.082-.014-.15-.028-.215-.044-.063-.015-.134-.015-.209-.015-.547-.09-1.085-.164-1.613-.225-.533-.06-1.063-.104-1.594-.135l-.374 7.861-.069-.12c0-.016-.016-.016-.016-.03l-.015-.016c-.016 0-.029 0-.044-.014-.016-.016-.016-.03-.016-.045-.03-.016-.06-.031-.074-.061-.016-.015-.046-.045-.075-.061-.09-.074-.18-.148-.284-.223-.119-.075-.224-.15-.329-.21l-.179-.089-.164-.09c-.016 0-.03 0-.045-.016l-.015-.029.344-8.203h.118c.12 0 .255 0 .39.014.134.016.283.016.418.016l.822.045c.269.016.537.045.806.075l.419.044.404.045h.091c.035 0 .09.016.148.029.076.016.165.03.254.03.091.016.165.016.21.046l.747-3.691c-.015 0-.036 0-.066-.015l-.12-.046c-.522-.104-1.061-.193-1.6-.283-.537-.074-1.079-.135-1.628-.179-.418-.046-.848-.075-1.285-.09-.426-.015-.866-.03-1.3-.03h-.792c0 .03 0 .061-.015.09l-.045.148-.043.14c-.016.089-.045.194-.086.284-.041.104-.074.193-.104.283-.097.18-.194.344-.296.493-.102.165-.206.313-.314.478-.25.3-.531.554-.844.777-.306.225-.643.404-1.001.538-.245.09-.499.165-.762.21-.254.045-.513.074-.776.074-.141 0-.284 0-.434-.016-.15-.014-.293-.029-.434-.059-.404-.074-.793-.209-1.158-.403-.366-.194-.698-.434-.992-.717-.165-.135-.299-.284-.419-.434-.11-.149-.224-.314-.333-.493l-.714.254-.718.269c-.485.164-.962.359-1.43.568-.463.209-.926.434-1.377.672l-.688.374c-.227.134-.456.254-.69.374v.014c0 .016-.01.016-.026.016l-.088.044-.037.029L3.263 8.85l.198-.105c.06-.03.134-.075.211-.105.486-.254.979-.478 1.48-.702.496-.209 1-.418 1.494-.612h.044l2.052 8.231c.329-.142.636-.263.924-.363.294-.102.567-.191.837-.269.514-.141 1.046-.247 1.591-.317.546-.064 1.092-.104 1.639-.104.283 0 .567.016.852.04.27.029.523.059.762.104.284.061.553.15.807.24.239.104.463.208.657.357.225.15.419.314.583.509.149.194.284.403.374.628.089.238.135.478.149.747 0 .269-.03.522-.09.762-.03.134-.074.254-.12.358-.06.12-.119.238-.193.344 0 .015 0 .03-.015.03-.016 0-.016.015-.016.029l-.045.045c-.015.015-.015.03-.015.045s0 .029.015.044l.03.062v.029l.015.029.09.195c.015.059.029.134.029.192.061.254.075.51.045.777-.03.285-.09.554-.179.808-.165.434-.419.807-.763 1.149-.357.345-.807.644-1.344.912-.42.225-.883.404-1.375.553-.508.149-1.061.283-1.674.389-.15.03-.284.06-.418.076l-.389.015-.253.028-.105-1.418v-.016h.045l.03-.015h.149l.06-.046h.18c.06 0 .104-.015.149-.015.283-.045.553-.09.807-.148.27-.062.523-.12.792-.195.269-.074.522-.149.762-.239.239-.073.464-.179.688-.283.254-.135.464-.269.643-.418.18-.149.329-.3.448-.449.075-.09.149-.193.195-.298.044-.104.074-.21.088-.329v-.225l-.119.09c-.015.015-.045.029-.074.044l-.104.047c-.21.134-.434.237-.673.343-.238.104-.493.209-.762.299-.254.09-.508.179-.777.239-.27.073-.538.135-.792.179-.284.045-.554.09-.821.119-.27.031-.538.061-.807.076h-.15c-.254 0-.493 0-.701-.03-.225-.015-.42-.061-.613-.104-.283-.075-.523-.181-.732-.314-.209-.135-.358-.298-.448-.508-.104-.18-.164-.389-.149-.628 0-.225.06-.448.165-.656.104-.195.254-.374.433-.539.18-.164.403-.313.657-.448.21-.104.434-.209.688-.284.238-.074.508-.164.791-.239.225-.059.479-.119.747-.164.27-.044.554-.074.867-.09.104-.015.224-.029.343-.029.121-.015.24-.015.375-.015h.447l.449.044c.134.016.268.03.402.061.135.029.254.045.374.074.075.015.149.045.209.061l.165.059h.014c.016 0 .031.016.031.016l.015.016.044.029-.029.029c-.135.314-.373.568-.747.747-.374.195-.628.314-.792.358h-.014c-.015-.015-.029-.029-.035-.029h-.434c-.138 0-.273 0-.406.015-.135.015-.264.015-.389.029-.279.03-.553.076-.818.12-.268.046-.516.119-.746.195-.145.044-.279.089-.404.148-.124.045-.238.091-.35.149-.063.03-.119.061-.175.09-.054.029-.104.06-.149.091-.029.029-.074.059-.119.089s-.086.074-.119.12c.014 0 .039 0 .06.014l.134.031v.029c.061.015.12.029.18.029.064 0 .135.015.209.015.064.016.127.021.19.021h.603c.254 0 .514-.015.785-.06.27-.041.55-.074.831-.13.284-.061.544-.126.792-.209.246-.076.486-.165.722-.254.134-.045.254-.105.358-.15.119-.06.225-.119.344-.18l.283-.163c.105-.062.225-.135.33-.209.164-.14.313-.314.463-.509.164-.194.239-.418.239-.663 0-.127-.016-.239-.06-.344-.03-.105-.09-.194-.18-.27-.074-.074-.164-.149-.254-.209s-.194-.119-.329-.164c-.254-.09-.523-.164-.808-.194-.268-.039-.508-.06-.731-.06-.075-.016-.149-.016-.239-.016h-.225c-.47 0-.938.035-1.405.105-.468.074-.927.164-1.38.299-.254.06-.5.134-.75.224-.254.104-.516.194-.796.313-.218.09-.444.18-.679.299l-.747.389-.045.03-2.065-8.561-.09.044-.094.045c-.502.223-.993.448-1.476.702-.488.254-.963.508-1.43.777l-.049.029L.046 4.828c0-.016.007-.022.024-.029l.115-.083c.031-.015.063-.036.096-.06.029-.022.053-.041.07-.061.014 0 .026 0 .033-.008h.012c.109-.061.225-.12.34-.194l.364-.224c.216-.119.44-.254.664-.374.24-.119.449-.254.674-.373.462-.238.925-.463 1.388-.672.479-.225.957-.434 1.42-.613.508-.194 1.001-.373 1.494-.537.493-.18 1.001-.344 1.523-.479l.046-.031v.046c.075.313.18.598.344.882.164.268.359.507.582.732.284.238.598.434.956.582.359.135.732.209 1.105.209.046 0 .09-.014.135-.014.037-.016.08-.016.126-.016.374-.03.739-.135 1.091-.314.35-.18.658-.402.922-.688.299-.328.523-.701.643-1.12.135-.418.18-.866.104-1.315l.045-.015 1.016-.044C15.723 0 16.051 0 16.395 0h.643c.553.016 1.091.045 1.629.074.537.031 1.077.09 1.613.15.522.06 1.03.135 1.538.224.51.09 1.003.194 1.511.329l.045.015.089.03.18.045c.06.015.12.029.164.059h.016c.015 0 .03.016.045.016l.029.015-.037-.005z"/></svg>