<svg aria-labelledby="simpleicons-telegram-icon" role="img" xmlns="http://www.w3.org/2000/svg" viewBox="0 0 24 24"><title id="simpleicons-telegram-icon">Telegram icon</title><path d="M9.15 20.477c-.684 0-.568-.26-.804-.91L6.33 12.933 21.84 3.73"/><path d="M9.15 20.477c.53 0 .763-.242 1.06-.53l2.82-2.74-3.52-2.122"/><path d="M9.51 15.085l8.524 6.297c.973.537 1.675.26 1.917-.903l3.47-16.35c.357-1.426-.54-2.07-1.47-1.65L1.573 10.34c-1.39.558-1.383 1.334-.253 1.68l5.23 1.63 12.104-7.635c.57-.346 1.096-.16.665.222"/></svg>