<svg aria-labelledby="simpleicons-tencentqq-icon" role="img" viewBox="0 0 24 24" xmlns="http://www.w3.org/2000/svg"><title id="simpleicons-tencentqq-icon">Tencent QQ icon</title><path d="M20.09 11.709c-.064-.907-.237-1.995-.703-2.638.451-5.735-3.45-9.129-7.386-9.07-3.936.064-7.834 3.335-7.383 9.07-.466.643-.642 1.725-.7 2.638-1.155 1.769-2.429 4.47-1.009 7.074.723-.314 1.305-.998 1.495-1.845.55 1.35 1.354 2.63 2.438 3.615-1.553.304-2.655 1.036-2.618 1.833.045.983 1.805 1.704 3.926 1.604 1.766-.085 3.225-.705 3.641-1.481.045.006.379.006.424 0 .414.778 1.875 1.399 3.641 1.481 2.121.097 3.881-.621 3.925-1.604.037-.8-1.064-1.529-2.615-1.83 1.085-.99 1.891-2.266 2.437-3.615.19.847.772 1.53 1.494 1.845 1.415-2.604.141-5.305-1.011-7.074h-.003v-.003h.007zM13.983 3.77c.781.023 1.387.976 1.352 2.124-.039 1.148-.701 2.059-1.48 2.033-.779-.027-1.379-.973-1.345-2.125.034-1.148.699-2.055 1.473-2.032zm-4.082-.13c.804-.029 1.484.912 1.524 2.098.037 1.186-.585 2.168-1.388 2.19-.803.03-1.484-.909-1.523-2.096-.036-1.185.584-2.169 1.386-2.19l.001-.002zM7.415 9.247c.104-.465 2.875-1.029 4.586-1.035 1.715-.011 4.482.573 4.59 1.035.069.341-1.449 1.518-2.405 1.899-.923.359-1.13.873-2.183.873-1.051 0-1.26-.511-2.18-.873-.959-.382-2.478-1.56-2.41-1.899h.002zm4.586 12.683c-3.652-.012-7.259-2.895-5.674-8.587.219.121.455.229.702.338-.052.715-.206 3.03-.14 3.397.075.443 2.43.774 2.641.618.186-.135.164-2.408.139-3.219.753.143 1.542.221 2.332.221 2.12.002 4.23-.58 5.675-1.351 1.59 5.688-2.019 8.595-5.673 8.583h-.002z"/><path d="M10.377 4.774c-.339.012-.6.442-.585.965.016.524.303.938.641.93.337-.016.6-.444.584-.967-.014-.52-.303-.936-.64-.926v-.002zm.176 1.246c-.126.006-.235-.161-.24-.375-.009-.214.087-.388.215-.39.127-.006.235.164.242.375.007.209-.089.387-.217.39zm3.879.274h-.009c-.084-.004-.152-.075-.148-.158.008-.148-.019-.564-.207-.764-.07-.076-.156-.109-.268-.109-.514 0-.525.754-.527.785 0 .09-.065.157-.156.157-.092 0-.15-.075-.15-.159 0-.379.177-1.095.838-1.095.194 0 .355.071.488.206.318.334.295.967.293.99-.001.079-.069.143-.154.147zM12.001 11.5c.198.006.301-.012.447-.037.375-.073.756-.429 1.116-.63.775-.48.917-.391 2.146-1.48-.828.67-1.605 1.027-2.412 1.264-.22.064-.744.105-1.295.108-.551.009-1.075-.045-1.295-.108-.807-.237-1.584-.591-2.408-1.266 1.226 1.09 1.371.999 2.145 1.479.36.203.741.563 1.116.634.141.025.247.031.44.036z"/></svg>