<svg xmlns="http://www.w3.org/2000/svg" aria-labelledby="simpleicons-tencentqq-icon" viewBox="0 0 24 24"><path fill="none" d="M-1-1h26v26H-1z"/><g><path d="M12 23.691c-2.084 0-3.998-.698-5.23-1.74-.625.187-1.426.488-1.93.861-.433.32-.379.644-.3.776.341.577 5.866.368 7.46.189v-.086zm0 0M12 23.691c2.085 0 3.999-.698 5.23-1.74.626.187 1.427.488 1.932.861.432.32.378.644.3.776-.342.577-5.866.368-7.461.189v-.086zm0 0M12 .033c-5.335 0-7.506 4.62-7.506 9.215 0 .273.015.803.016.834 0 0 .096.103.273.152.863.24 3.674.94 7.203.963h.028c3.442-.023 6.2-.69 7.134-.945.223-.061.342-.17.342-.17.001-.031.016-.561.016-.834 0-4.596-2.17-9.215-7.506-9.215zM9.959 3.025c.723-.032 1.342.792 1.38 1.84.04 1.049-.514 1.927-1.237 1.96-.724.032-1.342-.793-1.381-1.84-.04-1.05.514-1.927 1.238-1.96zm4.082 0c.724.033 1.278.91 1.238 1.96-.038 1.047-.657 1.872-1.38 1.84-.724-.033-1.278-.911-1.239-1.96.04-1.048.658-1.872 1.381-1.84zm-2.055 4.373h.028c2.411 0 4.359.478 4.552.907a.141.141 0 0 1 .014.06c0 .031-.011.059-.027.082-.163.238-2.325 1.412-4.54 1.412h-.027c-2.214 0-4.376-1.174-4.539-1.412a.146.146 0 0 1-.027-.082c0-.022.005-.042.014-.06.193-.429 2.14-.907 4.552-.907z"/><path d="M3.432 12.77c-.295.769-.586 1.569-.8 2.255-1.017 3.275-.688 4.63-.437 4.66.539.066 2.098-2.464 2.098-2.464 0 2.57 2.32 6.52 7.637 6.556h.14c5.316-.036 7.637-3.985 7.637-6.556 0 0 1.56 2.53 2.098 2.465.25-.03.58-1.386-.438-4.66a38.634 38.634 0 0 0-.799-2.256s-.17-.021-.255.003c-.84.244-1.74.445-2.649.625.154.947.245 2.115.162 3.504-.219 3.667-2.397 5.97-5.758 6.004h-.136c-3.361-.033-5.537-2.337-5.756-6.004a15.836 15.836 0 0 1 .162-3.502 31.585 31.585 0 0 1-2.606-.615c-.1-.029-.3-.015-.3-.015zM10.991 5c.033.414-.194.781-.507.821-.313.04-.593-.262-.626-.677-.033-.414.194-.782.506-.822.314-.04.594.263.627.677M12.98 5.138c.064-.115.5-.717 1.401-.498.237.058.347.143.37.176.034.05.043.12.009.214-.069.187-.21.182-.289.145-.05-.023-.679-.442-1.257.183-.04.042-.111.057-.179.006-.067-.05-.095-.154-.055-.226"/><path d="M7.277 13.545v3.608s1.653.333 3.309.103v-3.328a30.425 30.425 0 0 1-3.31-.383"/><path d="M19.49 10.082s-3.214 1.015-7.477 1.044h-.026c-4.256-.03-7.467-1.04-7.478-1.044l-1.077 2.687c2.694.812 6.031 1.336 8.555 1.305h.026c2.524.03 5.861-.493 8.555-1.305l-1.077-2.687zm0 0"/></g></svg>