<svg role="img" viewBox="0 0 24 24" xmlns="http://www.w3.org/2000/svg"><title>Tencent Cloud</title><path d="M12 3.35c-3.757 0-6.743 2.775-7.328 6.23a5.4 5.4 0 0 0-3.092 1.65 5.584 5.584 0 0 0 .098 7.883c.963.865 1.929 1.346 3.086 1.442.483.096 1.06.095 1.543.095h10.517c.772 0 1.35 0 1.93-.095a5.94 5.94 0 0 0 3.57-1.537c2.218-2.117 2.219-5.673.096-7.788a5.4 5.4 0 0 0-3.955-1.73c-1.35 0-2.507.48-3.57 1.25-.387.385-.965.769-1.448 1.346-.289.289-4.16 4.052-6.511 6.341H5.73c-1.256-.095-2.026-.478-2.51-.958a3.445 3.445 0 0 1-.093-4.807c.674-.672 1.444-.961 2.408-.961.58 0 1.449.095 2.317.959.386.386 1.447 1.156 1.834 1.54h.093l1.45-1.442v-.094c-.675-.673-1.739-1.542-2.317-2.022-.832-.603-1.666-.965-2.592-1.095.197.02.394.039.569.039.48-2.403 2.603-4.133 5.113-4.133 2.122 0 3.955 1.25 4.822 3.076 0 0 .098.095.098 0 .675-.097 1.446-.289 2.121-.289A7.527 7.527 0 0 0 12 3.35Zm6.367 8.457c.965 0 1.735.385 2.412.96 1.35 1.25 1.35 3.46 0 4.71-.387.385-1.16.96-2.51.96H9.974c2.508-2.4 4.63-4.42 4.824-4.61.193-.195.677-.674 1.158-1.06.965-.863 1.737-.96 2.412-.96z"/></svg>