<svg role="img" viewBox="0 0 24 24" xmlns="http://www.w3.org/2000/svg"><title>The Algorithms</title><path d="M0 12.001V0h24v24H0Zm9.945 6.06.48-1.02h3.082l.506 1.02.505 1.02h7.066l-.459-.99c-.252-.545-.615-1.342-.808-1.77-3.598-8.017-5.03-11.16-5.089-11.16-.04 0-.252.39-.472.87-.22.477-.623 1.355-.9 1.949-.274.594-.705 1.539-.956 2.1-.25.562-.718 1.58-1.037 2.264a35.244 35.245 0 0 0-.583 1.277c0 .02-.223.513-.496 1.097-.58 1.24-1.166 2.526-1.492 3.266l-.23.523-2.725-.047c-1.498-.026-2.757-.08-2.797-.12-.04-.04.263-.833.674-1.763l.746-1.691 1.923-.033 1.923-.033.679-1.56 2.076-4.774c.77-1.767 1.4-3.238 1.4-3.272 0-.033-1.01-.045-2.24-.027l-2.242.033-.947 2.16c-.522 1.188-1.27 2.884-1.66 3.767-.392.884-.712 1.658-.712 1.72 0 .07.387.083.991.032.91-.076 1.01-.062 1.219.17.46.51 1.269.172 1.269-.53 0-.283-.08-.462-.266-.593-.355-.248-.6-.235-.965.054-.304.239-1.352.352-1.268.137.022-.056.657-1.514 1.41-3.24L8.919 5.76h1.54c.848 0 1.54.03 1.54.065s-.451 1.101-1.004 2.369a832.676 832.711 0 0 0-1.812 4.194l-.808 1.887-1.934.033-1.933.033-.792 1.8c-.436.99-.906 2.056-1.047 2.37l-.255.57h7.055zm4.66-.243c-.18-.365-.326-.69-.326-.72 0-.032.507-.057 1.126-.057.854 0 1.161.044 1.274.18.212.255.798.223 1.08-.06.29-.289.306-.575.054-.934-.221-.316-.9-.367-1.134-.087-.116.14-.443.18-1.486.18h-1.337l-.806-1.617c-.647-1.298-.786-1.671-.7-1.89.243-.631 1.102-2.401 1.143-2.358.025.025.348.652.717 1.395.546 1.095.723 1.35.932 1.35.143 0 .358.09.48.2.263.238.85.262 1.111.045.103-.085.186-.328.186-.541 0-.728-.741-1.03-1.281-.524-.152.144-.303.235-.335.204-.031-.032-.375-.72-.763-1.53l-.705-1.474.668-1.488c.368-.819.706-1.45.752-1.4.045.047.823 1.734 1.727 3.749l1.887 4.199c.133.297.39.864.57 1.26.57 1.254 1.08 2.438 1.08 2.51 0 .04-1.257.07-2.794.07H14.93zm-3.751-1.708c.25-.66.978-2.184 1.044-2.187.073 0 1.182 2.186 1.182 2.332 0 .036-.52.065-1.152.065-1.05 0-1.147-.02-1.074-.21z"/></svg>
