<svg role="img" viewBox="0 0 24 24" xmlns="http://www.w3.org/2000/svg"><title>The Algorithms</title><path d="M3.343 13.024h1.718c.253 0 .557-.047.804.002.114.022.205.217.298.289.233.18.568.27.86.205.692-.154 1.056-.975.664-1.58-.144-.22-.361-.354-.608-.43a1.018 1.018 0 0 0-1.131.43c-.03.046-.047.105-.103.125-.102.037-.264.006-.373.006h-.821l1.097-2.484 1.475-3.343.691-1.569.166-.373.087-.155.294-.014h3.455l-.36.822-.73 1.7-2.249 5.23-.84 1.96-.24.56-.11.242-.308.039h-.897l-2.484.019h-.747l-.316.006-.193.386-.467 1.083-1.158 2.69-.507 1.176-.31.729H8.591c.07 0 .176.02.242-.007.05-.02.06-.08.08-.124.064-.137.131-.272.19-.41.2-.47.415-.945.642-1.402.067-.134.122-.275.187-.41.031-.066.053-.141.135-.15.304-.03.628 0 .934 0H13.596c.07 0 .2-.025.254.025.132.125.211.41.293.573.212.424.433.845.645 1.27l.224.448c.028.055.055.156.118.18.066.026.17.007.241.007H24l-.257-.58-.373-.821-1.27-2.783-3.754-8.237-1.644-3.604-.486-1.065-.228-.467-.659 1.401-1.289 2.764-3.707 7.938-1.569 3.362-.392.84-.174.323-.522.013H1.345l1.319-3.1.34-.803.154-.304.297-.014h4.203l.29-.013.106-.23.3-.69 1.03-2.391 2.707-6.276.822-1.905.385-.915H7.956l-.401.014-.091.192-.225.523-.803 1.867-2.108 4.894-.675 1.569-.31.747m12.663-7.807.481 1.064 1.158 2.559 3.24 7.172 1.159 2.559.63 1.4h-6.425l-.518-.013-.252-.472-.63-1.27h1.848c.268 0 .597-.053.859.002.1.021.216.226.3.296.207.174.473.27.746.242.828-.082 1.223-1.103.671-1.717-.38-.423-.976-.45-1.418-.114-.086.065-.159.156-.22.245-.03.04-.05.105-.099.125-.066.025-.17.006-.241.006H14.66c-.065 0-.16.017-.222-.006-.11-.043-.198-.34-.249-.442-.2-.401-.415-.795-.616-1.196-.291-.582-.605-1.154-.896-1.737-.079-.157-.165-.31-.243-.467-.03-.06-.089-.137-.095-.205-.007-.087.078-.204.113-.28.095-.205.185-.412.28-.617.379-.818.806-1.64 1.125-2.484h.019c.137.35.332.69.5 1.028.258.515.508 1.034.766 1.55.115.229.221.462.336.69.035.07.072.206.14.249.05.031.144.013.2.013.163 0 .426-.05.578.006.08.03.133.174.19.237.124.138.288.243.465.299.74.234 1.49-.479 1.3-1.233-.175-.691-.995-1-1.58-.608a.984.984 0 0 0-.261.253c-.041.059-.076.173-.136.211a.458.458 0 0 1-.29 0c-.098-.062-.162-.295-.214-.397-.183-.366-.358-.736-.541-1.102-.26-.52-.522-1.042-.767-1.57-.076-.164-.235-.362-.265-.54-.014-.091.08-.22.116-.3.095-.205.18-.414.28-.616.318-.644.595-1.31.897-1.961.094-.205.18-.414.28-.617.041-.083.063-.182.135-.242m-4.109 9.04.388.784.662 1.345.426.877h-2.877l1.004-2.185.262-.579z"/></svg>
