<svg role="img" viewBox="0 0 24 24" xmlns="http://www.w3.org/2000/svg"><title>The Honeynet Project</title><path d="M11.84 2.892c0 .528-.003 1.04.002 1.552 0 .097-.023.157-.12.208-.882.465-1.762.934-2.641 1.406-.087.046-.152.047-.24 0A420.28 420.28 0 0 0 6.188 4.64c-.09-.048-.115-.101-.115-.192a345.3 345.3 0 0 0 .002-2.81c0-.101.039-.151.132-.2C7.084.975 7.96.509 8.832.038c.101-.054.17-.05.27.005.866.468 1.736.932 2.609 1.392.101.053.134.11.132.216-.007.408-.003.817-.003 1.241Zm.39-1.29c.033-.058.056-.12.102-.145.893-.48 1.788-.957 2.686-1.43a.26.26 0 0 1 .202.003c.892.47 1.781.946 2.667 1.426.051.028.1.105.101.16.006.952.006 1.904-.001 2.856 0 .059-.056.141-.112.171-.882.477-1.768.945-2.652 1.419a.209.209 0 0 1-.223 0 349.98 349.98 0 0 0-2.668-1.426c-.096-.05-.107-.11-.106-.195.003-.942.003-1.883.003-2.839ZM7.539 5.786c.377.202.742.4 1.11.591.078.041.119.081.118.173-.005.952-.001 1.904-.008 2.856 0 .054-.05.132-.1.16-.887.478-1.78.95-2.667 1.427-.084.045-.145.038-.223-.005-.888-.477-1.779-.95-2.665-1.43a.217.217 0 0 1-.1-.159c-.006-.946-.005-1.893.002-2.839 0-.059.053-.143.108-.172.887-.48 1.777-.954 2.67-1.423a.28.28 0 0 1 .217.004c.512.265 1.02.539 1.538.817Zm2.421.207c.653-.346 1.291-.69 1.935-1.026a.279.279 0 0 1 .217 0c.887.467 1.769.943 2.654 1.413.082.044.114.088.114.176-.004.947-.005 1.894 0 2.841 0 .098-.04.145-.124.19-.881.466-1.76.934-2.639 1.405-.087.047-.153.045-.238-.001-.882-.476-1.766-.949-2.652-1.418-.09-.048-.114-.102-.113-.192.004-.936.005-1.872.001-2.808 0-.102.037-.155.132-.202.237-.118.468-.248.714-.378Zm6.05.037c.673-.358 1.336-.709 1.994-1.066.09-.048.152-.044.239.003.877.473 1.756.943 2.638 1.41.087.046.12.096.119.189a359.42 359.42 0 0 0-.001 2.825c0 .092-.028.145-.117.192-.882.466-1.762.934-2.64 1.406-.094.051-.163.046-.254-.003-.878-.473-1.756-.943-2.638-1.409-.097-.051-.12-.11-.12-.206.005-.93.005-1.861.002-2.792 0-.098.026-.156.125-.204.218-.106.428-.227.653-.346Zm-2.964 4.853c.64-.343 1.273-.676 1.9-1.016.09-.049.152-.048.24 0 .876.473 1.755.943 2.635 1.41.086.046.122.093.121.188a359.41 359.41 0 0 0-.001 2.825c0 .09-.025.145-.115.193-.886.468-1.77.94-2.654 1.413-.081.044-.142.043-.223 0-.887-.479-1.775-.955-2.666-1.426-.086-.046-.107-.095-.106-.18.003-.94.005-1.882.001-2.824 0-.096.036-.145.124-.189.247-.124.489-.257.744-.394Zm-6.103.065c.642-.342 1.274-.676 1.902-1.016.089-.048.152-.047.24 0 .876.473 1.755.943 2.637 1.41.086.046.121.094.121.188a380.05 380.05 0 0 0-.001 2.825c0 .091-.025.146-.115.193-.887.468-1.772.94-2.656 1.414a.207.207 0 0 1-.223-.001c-.887-.478-1.776-.954-2.668-1.426-.086-.045-.107-.095-.107-.179.004-.942.005-1.883.002-2.825 0-.096.036-.144.123-.188.248-.125.49-.258.745-.395Zm.567 10.154v2.083H6.103V20.58h-.789v2.602H3.9v-5.439h1.412V19.8h.78v-2.058H7.51v3.36ZM9.563 22v1.185h-1.42c-.004-.033-.009-.06-.009-.086 0-1.447-.004-2.894.002-4.341.002-.594.282-.928.903-1.081a3.789 3.789 0 0 1 1.83-.003c.642.158.914.497.914 1.104v4.403h-1.405v-4.516c0-.282-.115-.391-.404-.391-.296 0-.41.105-.41.383-.002 1.109-.001 2.218-.001 3.343Zm7.717-1.098c0-.682.022-1.348-.007-2.012-.033-.797.41-1.14 1.12-1.259.55-.091 1.1-.093 1.64.047.558.145.838.477.853 1.015.012.454.012.91.004 1.363-.012.715-.484 1.2-1.257 1.275-.3.029-.605.004-.926.004v1.85h-1.428v-2.283Zm1.428-2.111v1.846c.13 0 .243.007.355-.002.267-.02.45-.183.454-.43.009-.542.01-1.085-.003-1.627-.002-.085-.074-.224-.142-.24a1.093 1.093 0 0 0-.498-.014c-.155.037-.173.195-.166.334.002.034 0 .067 0 .133Zm-4.589 3.245c-.422.612-.84 1.21-1.248 1.816-.077.116-.16.153-.299.147-.231-.01-.464-.002-.724-.002l.681-.995c1.241-1.813 2.483-3.625 3.72-5.44.076-.11.154-.159.298-.152.238.012.479.004.755.004l-3.183 4.622Z"/></svg>