<?xml version="1.0" encoding="UTF-8" standalone="no"?>
<svg
   viewBox="0 0 24.000001 24.000002"
   version="1.1"
   id="svg33"
   sodipodi:docname="themoviedatabase.svg"
   width="24"
   height="24"
   inkscape:version="1.1 (c4e8f9e, 2021-05-24)"
   xmlns:inkscape="http://www.inkscape.org/namespaces/inkscape"
   xmlns:sodipodi="http://sodipodi.sourceforge.net/DTD/sodipodi-0.dtd"
   xmlns="http://www.w3.org/2000/svg"
   xmlns:svg="http://www.w3.org/2000/svg"
   xmlns:rdf="http://www.w3.org/1999/02/22-rdf-syntax-ns#"
   xmlns:cc="http://creativecommons.org/ns#">
  <sodipodi:namedview
     id="namedview35"
     borderopacity="1.0"
     inkscape:pageshadow="2"
     inkscape:pageopacity="0.0"
     inkscape:pagecheckerboard="0"
     showgrid="false"
     units="px"
     inkscape:zoom="4.8950525"
     inkscape:cx="60.162787"
     inkscape:cy="64.248545"
     inkscape:window-width="1440"
     inkscape:window-height="855"
     inkscape:window-x="0"
     inkscape:window-y="23"
     inkscape:window-maximized="1"
     inkscape:current-layer="Layer_2"
     pagecolor="#ffffff"
     bordercolor="#666666" />
  <defs
     id="defs25">
    <style
       id="style16">.cls-1{fill:url(#linear-gradient);}</style>
    <linearGradient
       id="linear-gradient"
       y1="66.699997"
       x2="185.03999"
       y2="66.699997"
       gradientUnits="userSpaceOnUse"
       gradientTransform="matrix(0.12966268,0,0,0.12966268,1.1812369e-7,3.3514782)">
      <stop
         offset="0"
         stop-color="#90cea1"
         id="stop18" />
      <stop
         offset="0.56"
         stop-color="#3cbec9"
         id="stop20" />
      <stop
         offset="1"
         stop-color="#00b3e5"
         id="stop22" />
    </linearGradient>
  </defs>
  <g
     id="Layer_2"
     data-name="Layer 2">
    <path
       d="m 6.6205765,11.999979 v 0 A 2.2911395,2.2911395 0 0 1 8.911716,9.7049495 H 8.89875 a 2.2911395,2.2911395 0 0 1 2.291139,2.2950295 v 0 a 2.2911395,2.2911395 0 0 1 -2.2911392,2.291139 h 0.012966 A 2.2911395,2.2911395 0 0 1 6.6205765,11.999979 Z M 17.33979,7.9376472 h 4.265902 a 2.2911395,2.2911395 0 0 0 2.29114,-2.2911396 v 0 A 2.2911395,2.2911395 0 0 0 21.605692,3.3514782 H 17.33979 a 2.2911395,2.2911395 0 0 0 -2.291139,2.2950294 v 0 A 2.2911395,2.2911395 0 0 0 17.33979,7.9376472 Z M 2.6879074,20.64459 h 8.2854456 a 2.2911395,2.2911395 0 0 0 2.291139,-2.29114 v 0 A 2.2911395,2.2911395 0 0 0 10.973353,16.058421 H 2.6879074 A 2.2911395,2.2911395 0 0 0 0.39676792,18.35345 v 0 A 2.2911395,2.2911395 0 0 0 2.6879074,20.64459 Z M 13.569199,14.291118 h 0.810392 l 1.893075,-4.5861685 h -1.082683 l -1.153998,3.0081745 h -0.01297 L 12.88847,9.7049495 h -1.153998 z m 4.207554,0 h 1.011369 V 9.7049495 h -1.011369 z m 2.878512,0 h 3.235084 v -0.929681 h -2.223715 v -0.933571 h 1.990322 v -0.933572 h -1.990322 v -0.855773 h 2.107018 V 9.7049495 H 20.661748 Z M 1.3095932,7.941537 H 2.3209621 V 4.2461507 h 1.309593 V 3.3514782 H 1.1812369e-7 V 4.2461507 H 1.3095932 Z m 3.7472514,0 H 6.0682135 V 5.957698 H 8.0261199 V 7.941537 H 9.0374888 V 3.3514782 H 8.0261199 V 5.0630256 H 6.0617303 V 3.3514782 H 5.0568446 Z m 5.3485854,0 h 3.241567 V 7.0079658 H 11.410316 V 6.0743945 h 1.990322 V 5.1408232 H 11.410316 V 4.2850495 h 2.107018 V 3.3514782 H 10.40543 Z M 0.16207847,14.295008 H 1.1669642 v -3.520341 h 0.012966 l 1.1669644,3.520341 h 0.7650098 l 1.2058629,-3.520341 h 0.012966 v 3.520341 H 5.3421025 V 9.7049495 H 3.818566 L 2.755332,12.700157 H 2.7423658 L 1.6856149,9.7049495 H 0.15559533 Z M 14.695968,20.648479 h 1.64153 a 3.1884053,3.1884053 0 0 0 0.980249,-0.149112 2.5310155,2.5310155 0 0 0 0.823358,-0.436963 2.1225781,2.1225781 0 0 0 0.566626,-0.713145 2.1925959,2.1925959 0 0 0 0.22302,-0.982843 2.3987596,2.3987596 0 0 0 -0.217833,-1.069717 1.9579065,1.9579065 0 0 0 -0.586075,-0.717034 2.4052427,2.4052427 0 0 0 -0.87263,-0.391582 4.3488863,4.3488863 0 0 0 -1.046378,-0.129662 h -1.51835 z m 1.012666,-3.656487 h 0.596448 a 2.2600205,2.2600205 0 0 1 0.605525,0.08039 1.5144601,1.5144601 0 0 1 0.503091,0.243766 1.1669641,1.1669641 0 0 1 0.339716,0.412327 1.2797706,1.2797706 0 0 1 0.129663,0.586075 1.5455791,1.5455791 0 0 1 -0.129663,0.658687 1.1267687,1.1267687 0 0 1 -0.346199,0.433073 1.4094333,1.4094333 0 0 1 -0.518651,0.237283 2.796824,2.796824 0 0 1 -0.648313,0.07131 H 15.70215 Z m 4.686009,3.656487 h 1.880109 a 2.9965045,2.9965045 0 0 0 0.613304,-0.06483 1.7348866,1.7348866 0 0 0 0.55366,-0.213943 1.2214224,1.2214224 0 0 0 0.401954,-0.388988 1.104726,1.104726 0 0 0 0.155595,-0.606822 1.1877101,1.1877101 0 0 0 -0.07131,-0.41492 A 1.0100723,1.0100723 0 0 0 23.72438,18.619258 1.0865733,1.0865733 0 0 0 23.406707,18.379383 1.2966268,1.2966268 0 0 0 22.99438,18.24972 v -0.01297 a 1.2032697,1.2032697 0 0 0 0.574405,-0.365649 0.96209708,0.96209708 0 0 0 0.216537,-0.648314 1.0813867,1.0813867 0 0 0 -0.149112,-0.602931 1.0217419,1.0217419 0 0 0 -0.388988,-0.353979 1.6726486,1.6726486 0 0 0 -0.540694,-0.168562 4.4629894,4.4629894 0 0 0 -0.600338,-0.04149 h -1.711547 z m 1.011369,-3.734285 h 0.687212 a 1.3990603,1.3990603 0 0 1 0.239876,0.02204 0.74815366,0.74815366 0 0 1 0.220426,0.0752 0.43177672,0.43177672 0 0 1 0.159485,0.146519 0.41751383,0.41751383 0 0 1 0.06094,0.235986 0.47067553,0.47067553 0 0 1 -0.05446,0.233393 0.43307335,0.43307335 0 0 1 -0.146519,0.155595 0.61978761,0.61978761 0 0 1 -0.203571,0.08428 1.0580475,1.0580475 0 0 1 -0.230799,0.02593 h -0.744264 z m 0,1.834727 h 0.765009 a 1.9604997,1.9604997 0 0 1 0.265809,0.01945 1.0152588,1.0152588 0 0 1 0.259325,0.07131 0.51865072,0.51865072 0 0 1 0.204867,0.151705 0.40584419,0.40584419 0 0 1 0.08039,0.259326 0.48104854,0.48104854 0 0 1 -0.06094,0.252842 0.51865072,0.51865072 0 0 1 -0.159485,0.168561 0.61978761,0.61978761 0 0 1 -0.216537,0.09076 1.1552945,1.1552945 0 0 1 -0.237283,0.02593 h -0.907638 z"
       id="path29" />
  </g>
  <metadata
     id="metadata117">
    <rdf:RDF>
      <cc:Work
         rdf:about="" />
    </rdf:RDF>
  </metadata>
</svg>
