<svg role="img" viewBox="0 0 24 24" xmlns="http://www.w3.org/2000/svg"><title>The Odin Project</title><path d="m6.568 14.254 1.83-6.337h7.319l1.83 6.337H6.568Zm8.354-3.123c0 .281-.232.51-.517.51a.515.515 0 0 1-.518-.51c0-.282.232-.51.518-.51.285 0 .517.228.517.51Zm-3.94-.58a.325.325 0 0 0-.327-.323H9.114a.325.325 0 0 0-.327.323v.999c0 .267.219.483.49.483h.561c.304 0 .595-.119.809-.33a1.12 1.12 0 0 0 .335-.798v-.354Zm6.384-8.691L20.998 0l-1.991 7.387-1.641 1.642V1.86Zm-10.731 0L3.002 0l1.991 7.387 1.642 1.642V1.86Zm10.912 3.37s-2.745-1.805-5.49-1.805c-2.744 0-5.489 1.805-5.489 1.805v5.414l.732 1.444c.525-1.995 2.902-2.827 4.557-1.593l.2.149.201-.149c1.655-1.234 4.032-.402 4.557 1.593l.732-1.444V5.23Zm-7.319 8.122-1.464 8.482-2.019-1.443 1.653-6.137 1.83-.902Zm3.659 0 1.464 8.482 2.019-1.443-1.653-6.137-1.83-.902Zm-7.319-2.707-1.464 5.414 1.83 3.61 1.464-5.415-1.83-3.609Zm10.979 0 1.464 5.414-1.83 3.61-1.464-5.415 1.83-3.609Zm-7.319 2.707-1.647 8.843L12.057 24l3.477-1.805-1.647-8.843-1.693-.835-.137-.068-1.829.903Zm2.485.361h-1.281v.451a.63.63 0 0 0 .188.447.647.647 0 0 0 .906 0 .628.628 0 0 0 .187-.447v-.451Z"/></svg>