<svg role="img" viewBox="0 0 24 24" xmlns="http://www.w3.org/2000/svg"><title>The Verge</title><path d="m18.0152 10.683-.0235.7068c-.8253-.0566-1.0611.1555-1.0611.8482v.0893h-.7074v-1.602h.7074v.4571c.2122-.3722.5-.5418 1.0847-.4994zM1.179 13.5573h.7074v-2.7332H1.179v2.7331zm3.504-2.8697c-.4952 0-.797.2215-.9573.4664V9.6463H0v.6597h3.0654v2.0213h.6744c0-.5795.3349-.9893.7451-.9893.3538 0 .514.1743.514.801v1.4184h.7075v-1.6728c0-.801-.4103-1.1969-1.0234-1.1969zm2.7825 2.3277c-.4292 0-.7074-.2592-.7546-.688h-.665c.066.754.5612 1.2865 1.4149 1.2865.6602 0 1.0328-.2969 1.2262-.7445l-.599-.264c-.0896.2686-.2547.41-.6225.41zm-.0283-2.3137a1.4981 1.4981 0 0 0-.7263.1697l.3395.4806a.823.823 0 0 1 .4104-.0943c.3961 0 .5989.2592.6272.5984H7.404v.4713H8.753a1.605 1.605 0 0 0 .0142-.2073c.005-1.0273-.6744-1.4184-1.33-1.4184zm7.0033 2.3137c-.4291 0-.7074-.2592-.7545-.688h-.665c.066.754.5612 1.2865 1.4148 1.2865.6602 0 1.0328-.2969 1.2262-.7445l-.599-.264c-.0943.2686-.2593.41-.6225.41zm-.0235-2.3137a1.4981 1.4981 0 0 0-.7263.1697l.3395.4806a.8226.8226 0 0 1 .4103-.0943c.3962 0 .599.2592.6273.5984h-.6839v.4713h1.3489a1.6048 1.6048 0 0 0 .014-.2073c.005-1.0273-.6743-1.4184-1.3298-1.4184zm8.2907 2.3137c-.4291 0-.7074-.2592-.7545-.688h-.665c.066.754.5612 1.2865 1.4148 1.2865.6603 0 1.0328-.2969 1.2262-.7445l-.599-.264c-.0943.2686-.2593.41-.6225.41zm-.0377-2.3137a1.498 1.498 0 0 0-.7262.1697l.3395.4806a.823.823 0 0 1 .4103-.0943c.3962 0 .599.2592.6272.5984h-.6837v.4713h1.3487A1.605 1.605 0 0 0 24 12.1201c.005-1.0273-.6744-1.4184-1.33-1.4184zm-13.5397-1.39 1.2723 3.0156h.7734l-.9705-2.3983H11.46v-.6126l-2.3297-.0047zm3.7728.0047-1.4573 3.6897-.217.5513h.7405l1.7497-4.241h-.8159zm6.5035 4.175c.3018 0 .5517-.0848.7262-.2308l-.283-.4477c-.0896.0377-.1886.0518-.2877.0518-.3867 0-.6084-.2309-.6838-.5372h-.6933c.0944.655.566 1.164 1.2215 1.164zm.8724-2.3702c-.1603-.2544-.4858-.4382-.9385-.4382-.4433-.0047-.8536.2356-1.0705.6267l.5895.377c.1084-.2262.3207-.377.646-.377.4623 0 .7735.3581.7735.7822 0 .0802-.009.1603-.033.2356h.7404v-1.5974h-.7075zm-.6838 3.011c-.4575 0-.6273-.2214-.6603-.4806h-.6743c.014.4949.3442 1.0367 1.3487 1.0367.6791 0 1.1224-.3393 1.3064-.8482l-.6367-.2214c-.0896.3298-.3349.5136-.6838.5136z"/></svg>