<svg role="img" viewBox="0 0 24 24" xmlns="http://www.w3.org/2000/svg"><title>Things</title><path d="m15.815 0 1.099.003c.492.01 1.138.013 1.856.165.713.147 1.489.49 2.086 1.04a3.94 3.94 0 0 1 1.167 1.911c.178.664.193 1.264.211 1.722l.021 1.026.016.905.047 2.685.049 2.71.016.925.016 1.055v.071c0 .338-.004.741-.062 1.193l-.636 4.978-.089.495a3.8 3.8 0 0 1-1.064 1.902c-.56.55-1.303.896-1.99 1.044-.693.153-1.32.158-1.796.167L15.698 24H8.3l-1.065-.003c-.477-.01-1.102-.014-1.795-.167-.687-.148-1.43-.494-1.991-1.044a3.8 3.8 0 0 1-1.064-1.902l-.088-.495-.637-4.978a9 9 0 0 1-.06-1.193v-.072l.015-1.054.016-.926.048-2.709.047-2.685.016-.905.02-1.026c.019-.458.034-1.059.212-1.722.173-.658.56-1.37 1.166-1.911.6-.55 1.376-.893 2.089-1.04C5.947.016 6.593.012 7.085.003L8.183 0zm1.625 4.203H6.196c-.149.003-.346.005-.566.051a1.35 1.35 0 0 0-.636.32c-.173.157-.295.36-.353.584-.055.203-.058.386-.063.526l-.005.335-.129 10.284-.003.16.018.017q.135.127.292.229l.039.025.198.105.359.139.344.084.397.064.396.049.257.031.25.035.408.076.188.046.173.052.102.036.098.037c.258.104.421.228.507.341.106.143.114.27.124.368l.011.217.012.255.038.887.039.86.009.2.005.103c.005.046.009.105.06.17s.16.138.335.19l.043.013q.276.072.561.09l.537.017h3.514l.537-.016c.19-.014.397-.044.563-.092l.039-.012c.176-.052.288-.124.337-.19.051-.065.055-.124.06-.17l.006-.104.008-.2.038-.859.038-.887.01-.255.013-.217c.01-.098.018-.225.125-.368.085-.114.25-.238.51-.342l.095-.037.102-.035.174-.052.186-.047.411-.075.247-.035.256-.03.399-.051.399-.063.341-.083.358-.138.195-.104.042-.026q.168-.11.314-.249l-.002-.159-.131-10.284-.006-.335c-.005-.141-.008-.323-.061-.526a1.2 1.2 0 0 0-.353-.584c-.18-.162-.4-.272-.636-.32-.22-.046-.418-.048-.567-.05zm-2.941 13.986-.009.182-.082 1.893h-.003l-.138.017-.023.001-.505.016h-3.485l-.504-.016-.161-.018h-.004l-.082-1.893-.01-.182zm1.427-11.177a.78.78 0 0 1 .722.093.67.67 0 0 1 .251.641c-.045.229-.232.421-.48.723a50 50 0 0 0-3.836 5.257c-.308.575-.593.808-.9.844-.308.037-.64-.123-1.087-.613l-1.824-1.755c-.29-.28-.488-.456-.57-.692a.66.66 0 0 1 .175-.72c.2-.182.512-.233.764-.16.253.074.445.27.741.539l1.546 1.417a51 51 0 0 1 3.844-4.982c.261-.293.425-.502.654-.592"/></svg>