<svg role="img" viewBox="0 0 24 24" xmlns="http://www.w3.org/2000/svg"><title>Threema icon</title><path d="M13.755 22.2424a1.756 1.756 0 11-3.512.002 1.756 1.756 0 013.512-.002zm-6.3349 0a1.7565 1.7565 0 11-3.513.002 1.7565 1.7565 0 013.513-.002zm12.6707 0a1.756 1.756 0 11-3.5119.002 1.756 1.756 0 013.512-.002zM7.4771 17.2475l-5.1709 1.293 1.105-4.42c-1.094-1.4419-1.733-3.1748-1.733-5.0388C1.6782 4.0658 6.3002-.0001 12-.0001c5.6999 0 10.3218 4.0659 10.3218 9.0818 0 5.0159-4.622 9.0828-10.3218 9.0828a11.4498 11.4498 0 01-4.523-.917zm1.595-8.9198h-.115a.47.47 0 00-.47.471v4.126c0 .26.21.4709.47.4709h6.0858c.26 0 .47-.21.47-.47V8.7977a.47.47 0 00-.47-.47h-.115v-1.17a2.927 2.927 0 00-2.9299-2.9239 2.926 2.926 0 00-2.925 2.926zm4.6849 0h-3.514v-1.168a1.757 1.757 0 013.514 0v1.17z"/></svg>