<svg role="img" viewBox="0 0 24 24" xmlns="http://www.w3.org/2000/svg"><title>Three</title><path d="M18.249 10.05a4.591 4.591 0 0 1-.529-.423c.06-.09.151-.242.242-.378.514-.756 1.496-2.176 1.496-4.202 0-1.163-.423-2.433-1.45-3.4S15.361 0 12.973 0c-2.251 0-4.806.74-6.997 2.04-.982.59-1.799 1.209-2.358 1.814-.559.604-.891 1.178-.891 1.677 0 .242.09.469.272.635.302.332.861.483 1.602.559.725.076 1.617.076 2.569.076h.166c1.466 0 2.509.045 3.174.136.332.045.574.105.725.181.152.076.197.151.197.242 0 .03-.03.106-.136.196-.318.318-1.149.786-1.904 1.315-.378.257-.741.53-.998.816-.257.272-.438.56-.438.862v.015c0 .378.196.68.498.907.907.695 2.796.876 3.794 1.058.605.105.937.332 1.103.559.182.242.212.498.212.725 0 .847-.317 1.587-.877 2.101-.498.453-1.103.756-1.98.756h-.105c.015-.167.03-.333.03-.5 0-.997-.393-1.828-1.058-2.402-.665-.574-1.602-.907-2.69-.907-1.345 0-2.418.56-3.144 1.375a4.532 4.532 0 0 0-1.133 2.993c0 1.693.786 3.385 2.297 4.655C6.43 23.154 8.682 24 11.644 24c2.343 0 4.716-.771 6.5-2.116 1.48-1.119 3.249-3.159 3.249-6.499-.015-3.023-2.07-4.534-3.144-5.335zm-9.34.212c.332-.333.997-.786 1.511-1.104.499-.317.937-.604 1.27-.891.317-.288.529-.575.544-.907 0-.257-.106-.499-.287-.695-.348-.333-.952-.5-1.723-.59-.756-.09-1.678-.09-2.63-.09h-.257c-.786 0-1.405-.016-1.904-.03.695-.273 1.496-.696 2.358-1.164 1.42-.756 2.977-1.602 4.458-1.965-.348.393-.56.831-.56 1.209 0 .09.031.196.107.272.075.076.181.12.332.12.257 0 .56-.105.892-.21.468-.152.997-.333 1.587-.333.514 0 1.058.136 1.647.529-.393.03-.71.136-.907.302-.211.166-.272.363-.272.484 0 .211.151.378.348.604.302.348.695.786.695 1.512 0 .529-.196 1.088-.499 1.51v-.09c0-.363-.075-.786-.287-1.012a.62.62 0 0 0-.468-.212c-.303 0-.575.242-.983.56-.287.226-.634.528-1.073.8-1.859 1.179-2.856 1.632-3.567 1.693-.256.03-.65.03-.332-.302zm1.708 7.194c1.043 0 1.92-.318 2.6-.937.725-.665 1.133-1.648 1.133-2.706 0-.498-.151-.922-.454-1.254 1.557.378 3.19 1.179 4.096 2.388a2.893 2.893 0 0 0-.982-.166c-.287 0-.53.302-.53.65 0 .18.076.392.152.65.136.407.302.921.302 1.54 0 .575-.136 1.225-.59 1.95-.014-.589-.166-1.057-.377-1.314-.166-.197-.333-.242-.453-.242-.182 0-.333.09-.454.226-.12.136-.227.333-.348.545-.423.77-1.103 2.01-3.219 2.644.197-.332.288-.665.288-.937a.818.818 0 0 0-.046-.287.385.385 0 0 0-.363-.257 4.107 4.107 0 0 0-.816.166c-.483.136-1.073.303-1.723.303-.68 0-1.405-.182-2.16-.756.256-.045.498-.136.664-.272.136-.12.227-.272.227-.438 0-.242-.197-.423-.423-.62-.318-.302-.71-.665-.71-1.27 0-.18.03-.377.105-.589.076.197.166.363.303.514.196.212.438.348.665.348.241 0 .392-.121.453-.257.06-.151.06-.318.06-.439 0-.15.076-.287.182-.393a.594.594 0 0 1 .423-.166c.347-.03.62.166.8.469s.288.695.288 1.058c0 .226-.045.453-.106.634l-.075.197.166-.136c.317-.242.574-.605.68-.862.076.015.166.015.242.015zM3.695 5.788c-.106-.06-.181-.136-.181-.242 0-.287.272-.756.785-1.255C5.811 2.765 9.332.815 12.975.815c1.843 0 3.34.454 4.337 1.3.861.74 1.33 1.783 1.33 2.932 0 1.783-.831 3.008-1.345 3.748-.257.378-.423.59-.423.846 0 .197.09.363.257.53.15.166.378.317.634.513 1.058.786 2.796 2.07 2.812 4.716 0 3.007-1.587 4.836-2.932 5.849-1.648 1.239-3.84 1.964-6.016 1.964-5.425 0-8.221-3.022-8.221-5.97 0-.876.332-1.768.922-2.448.604-.68 1.466-1.133 2.554-1.133.604 0 1.375.136 1.98.544.604.408 1.073 1.073 1.073 2.16v.092a1.76 1.76 0 0 0-.242-.378 1.37 1.37 0 0 0-1.088-.514c-.59 0-1.073.483-1.073 1.043a.626.626 0 0 1-.03.211c0 .015-.016.015-.016.03-.136 0-.317-.105-.453-.287-.136-.196-.242-.483-.242-.861 0-.076 0-.151.015-.227l.015-.166-.12.136c-.545.604-.741 1.164-.741 1.632 0 .77.529 1.33.831 1.617.06.046.121.121.181.182.03.03.046.06.06.075.016.015.016.015.016.03 0 .03-.06.106-.212.167a2.1 2.1 0 0 1-.755.12c-.121 0-.257 0-.408-.015l-.136-.015.09.106c1.043 1.24 2.192 1.572 3.174 1.572.74 0 1.39-.181 1.86-.317.196-.06.422-.136.543-.136.045 0 .076.015.076.03.015.015.015.045.015.09 0 .152-.09.408-.227.68a3.065 3.065 0 0 1-.56.756l-.135.121.181-.03c3.038-.393 4.05-2.146 4.55-3.053.075-.151.166-.287.226-.393.076-.106.136-.151.151-.151.03 0 .076.03.121.106.151.226.272.77.272 1.345 0 .257-.03.514-.075.74l-.046.182.136-.121c1.149-1.058 1.466-2.177 1.466-3.098 0-.71-.181-1.315-.317-1.708-.076-.212-.136-.408-.121-.499 0-.076.015-.12.03-.136a.246.246 0 0 1 .09-.045c.485 0 1.059.181 1.754.498l.136.06-.06-.135c-.937-2.192-3.023-3.129-5.048-3.642-1.013-.257-2.026-.409-2.872-.56-.62-.105-1.148-.211-1.541-.347a2.46 2.46 0 0 0-.197-.09c1.164-.152 2.554-.968 3.794-1.754.468-.302.83-.605 1.118-.846.151-.121.287-.242.408-.333s.212-.136.257-.136.076.015.12.06c.122.121.182.47.182.832 0 .302-.045.62-.106.876l.03.136.122-.075c.982-.635 1.466-1.602 1.466-2.494 0-.907-.5-1.466-.817-1.829-.045-.06-.105-.12-.15-.181-.03-.045-.061-.09-.076-.106 0-.03.03-.075.09-.106.212-.15.56-.256.968-.256.211 0 .423.03.65.075l.15.03-.09-.12c-.846-1.089-1.829-1.406-2.69-1.406-.68 0-1.3.196-1.753.332-.227.076-.53.167-.65.167h-.03c0-.151.12-.424.332-.71.227-.288.544-.605.967-.862l.151-.09-.18-.016c-.076 0-.152-.015-.243-.015-1.738 0-3.99 1.27-5.652 2.131-1.058.544-3.234 1.814-3.884 1.42z"/></svg>