<svg role="img" viewBox="0 0 24 24" xmlns="http://www.w3.org/2000/svg"><title>Throne</title><path d="M11.996 1.89a.46.46 0 0 0-.392.215l-4.551 8.933a1.652 1.652 0 0 0 .284 1.93l4.017 4.115c.192.196.367.476.642.476.266 0 .439-.265.624-.456l4.034-4.134c.13-.132.239-.283.321-.45.222-.45.21-.998-.029-1.468l-2.28-4.478-2.282-4.478a.458.458 0 0 0-.388-.205ZM.45 8.55a.477.477 0 0 0-.368.182.437.437 0 0 0-.065.378l3.307 11.4c.079.272.207.524.383.748.02.03.044.057.067.084.393.456.985.706 1.599.706.238 0 .48-.037.713-.116a18.733 18.733 0 0 1 5.302-.94c.154-.012.307-.02.46-.028a.43.43 0 0 0 .318-.166.414.414 0 0 0 .081-.335.41.41 0 0 0-.112-.2L.771 8.69l-.036-.038A.448.448 0 0 0 .45 8.55Zm23.1.003a.591.591 0 0 0-.363.159l-9.732 9.93a.419.419 0 0 0-.002.59l1.703 1.743c.202.208.46.35.751.41.772.163 1.539.377 2.279.636.172.06.35.09.53.09.224 0 .447-.046.66-.137.366-.15.683-.387.916-.686.174-.223.304-.476.384-.75l3.307-11.405a.461.461 0 0 0 .015-.152.427.427 0 0 0-.207-.36.392.392 0 0 0-.241-.068z"/></svg>