<svg role="img" viewBox="0 0 24 24" xmlns="http://www.w3.org/2000/svg"><title>Throne</title><path d="M11.997 1.889a.46.46 0 0 0-.393.215l-4.55 8.933c-.319.624-.233 1.355.218 1.861.021.025.043.05.064.07l4.307 4.41a.432.432 0 0 0 .354.183c.14 0 .27-.068.345-.172l4.313-4.42c.13-.133.24-.283.322-.45.221-.449.21-.999-.03-1.468l-2.28-4.479-2.282-4.478a.459.459 0 0 0-.388-.205ZM.45 8.55a.478.478 0 0 0-.37.181.436.436 0 0 0-.064.377l3.307 11.4c.079.273.207.527.383.75.02.03.045.056.068.083.393.456.985.707 1.6.707.238 0 .479-.038.712-.117a18.737 18.737 0 0 1 5.303-.94c.154-.012.307-.02.46-.027a.43.43 0 0 0 .4-.502.412.412 0 0 0-.114-.2L.772 8.69l-.037-.037a.448.448 0 0 0-.285-.101Zm23.101.002a.589.589 0 0 0-.277.09l-.047.029-9.771 9.97a.419.419 0 0 0-.002.59l1.703 1.745c.202.207.461.348.752.41a18.44 18.44 0 0 1 2.277.634c.172.06.351.09.531.09.223 0 .446-.045.658-.136a2.23 2.23 0 0 0 .918-.686c.175-.223.303-.477.383-.752l3.309-11.404a.461.461 0 0 0 .014-.153.428.428 0 0 0-.205-.36v.001a.393.393 0 0 0-.243-.068z"/></svg>