<svg role="img" viewBox="0 0 24 24" xmlns="http://www.w3.org/2000/svg"><title>Thunderbird</title><path d="M9.948 4.106h-.005c-1.92.824-2.126 2.665-1.817 3.656v.02c1.11-.816 2.532-1.256 3.874-1.256 3.26 0 5.902 2.252 5.902 5.03 0 2.778-2.643 5.03-5.902 5.03l-.083-.003c-.155-.006-.354-.013-.435.124-.096.164.116.416.238.56 1.274 1.506 3.123 1.695 3.608 1.745l.076.008c-4.281.433-9.304-2.424-9.306-7.39 0-1.171.414-2.166 1.075-2.958h-.005l-.003-.001c.145-2.542-.789-5.58-2.536-6.178-.124-.042-.246.055-.262.19-.23 2.01-.727 2.706-1.264 3.458-.805 1.128-1.39 2.43-1.365 3.862a11.811 11.811 0 0 1-.705-1.995c-.024-.094-.17-.38-.333-.285-.13.077-.227.288-.296.507A13.255 13.255 0 0 0 0 11.466C0 18.293 5.475 24 12 24c6.627 0 12-5.612 12-12.534 0-2.64-.781-5.088-2.115-7.108l.167-.002a8.5 8.5 0 0 1 1.51.134c-.734-.852-1.724-1.54-2.877-1.988a8.245 8.245 0 0 1 2.494-.518C21.753.767 19.671 0 17.352 0c-3.355 0-6.648 1.347-7.404 4.106Zm.682 9.575c-.869-.945-3.472-4.084-3.472-4.084l.201.01 4.075 3.178c.306.232.74.23 1.043-.005l3.996-3.17.212-.017s-2.518 3.064-3.482 4.074c-.965 1.01-1.704.959-2.573.014zm2.774-10.532s.055.653-.576.861c-.722.238-1.042-.397-1.042-.397s.09-.435.677-.637c.625-.215.941.173.941.173z"/></svg>