<svg role="img" viewBox="0 0 24 24" xmlns="http://www.w3.org/2000/svg"><title>Tiddlywiki</title><path d="m12 0 12 6v12l-12 6-12-6V6zm4.64 17.89.19-.02c.13-.04.25-.08.33-.19.27-.33-.42-.46-.66-.83-.25-.36-1.26-2.36-.5-2.92.77-.56 1.6-.8 1.92-1.32.14-.23.28-.47.31-.74.19.13.34.25.59.26.66.04 1.23-.65 1.53-1.31.16-.4.29-.83.26-1.23-.08-.76.01-1.58.72-2.08-.7.3-1.37.69-2.16.79a4.72 4.72 0 0 0-1.34-.2c-.23-.26-.54-.73-.94-.79-.68.21-.7 1.1-1 2.33a7.14 7.14 0 0 0-1.34-.2c-.64-.04-1.67.13-2.4.12-.72-.02-2.15-.57-3.33-.45-.48.05-.97.12-1.4.3-.28.1-.67.41-.87.46-1.98.47-5.21.45-4.55-2.1.06-.2.07-.37-.03-.42-.13-.06-.2.06-.28.19-1.16 2.13.9 3.51 3.23 3.52.73-.05.38 0 1.06-.12l-.02.08c-.04.71.33 1.34 1.02 1.72-.32.77-.95 1.39-1.38 2.1.16.88 1.21 2.06 1.64 2.23.39.14 1.22.14 1.41-.1.07-.1.02-.35-.05-.47.32.3.77.74 1.19.94.25.1.51.17.8.18l.36-.01c.18-.04.39-.06.51-.2.14-.2.01-.76-.55-.8-.57-.03-.94-.22-1.46-.88-.43-.63.1-1.51.26-2.14.9.12 1.8.22 2.71.22.4-.02.8-.03 1.18-.1.12.28.47 1.03.47 1.24.01.6-.25 1.21-.14 1.81.07.18 0 .52.41.53.25 0 .1 0 .46.02l.31-.01c.4.57.75.57 1.53.59zm-8.82-1.66-.07-.06c-.22-.2-.77-.54-.67-.86.09-.24.25-.46.38-.68v.02c-.03.28-.08.56.03.83.32.23.78.6 1.08.84-.17-.03-.47-.12-.63-.07Z"/></svg>