<svg role="img" xmlns="http://www.w3.org/2000/svg" viewBox="0 0 24 24"><title>Tide icon</title><path d="M12 0C5.374 0 0 5.374 0 12s5.374 12 12 12 12-5.374 12-12S18.636 0 12 0zm6.96 18.96c0 .01 0 .01 0 0l-.05.048-.156.157c-.04.039-.079.068-.118.107l-.049.05a9.87 9.87 0 01-2.926 1.84c-3.103 1.252-3.974-1.508-6.656-2.878-2.584-1.312-4.13-.401-5.08-1.331-.03-.03-.059-.059-.078-.088l-.01-.01-.01-.01s0-.01-.01-.01c-.02-.03-.049-.058-.068-.088-.95-1.292-1.449-2.447-1.557-4.032A9.773 9.773 0 015.05 5.04a9.773 9.773 0 016.96-2.888c2.633 0 5.1 1.028 6.96 2.888A9.773 9.773 0 0121.855 12c0 2.506-.93 4.874-2.633 6.705-.01.01-.01.02-.019.02a5.436 5.436 0 00-.245.234Z"/></svg>
