<svg role="img" viewBox="0 0 24 24" xmlns="http://www.w3.org/2000/svg"><title>Tildes</title><path d="M0 0v11.954h2.953l.009-1.49.014-1.487 1.486-.014 1.49-.009.01-1.49.013-1.486h3.047l.014 1.486.01 1.49 1.49.01 1.486.013.014 1.486.009 1.49 1.49.01 1.486.014.014 1.486.01 1.49h2.905l.01-1.49.014-1.486 1.485-.014 1.49-.01.01-1.49.014-1.486 1.514-.014 1.51-.009V.001h-12zm6.047 9.047-.01 1.486-.013 1.49-1.486.015-1.49.009-.01 1.49-.014 1.486-1.51.014-1.513.01v8.952H24V12.046h-2.953l-.01 1.486-.013 1.49-1.486.015-1.49.009-.01 1.49-.014 1.486h-3.046l-.015-1.486-.008-1.49-1.491-.01-1.486-.013-.014-1.486-.009-1.49-1.49-.01-1.487-.014-.014-1.49-.009-1.486H7.502z"/></svg>