<svg role="img" xmlns="http://www.w3.org/2000/svg" viewBox="0 0 24 24"><title>TIM</title><path d="M3.02 13.941H.363a.369.369 0 0 0-.363.371v.633a.369.369 0 0 0 .363.371H3.02Zm4.566.11a.37.37 0 0 0-.258-.11h-2.66v1.375h2.66a.37.37 0 0 0 .258-.109.383.383 0 0 0 .101-.262v-.633a.39.39 0 0 0-.101-.261Zm0-2.469a.354.354 0 0 0-.258-.11h-2.66v1.372h2.66a.37.37 0 0 0 .258-.11.373.373 0 0 0 .101-.257v-.637a.373.373 0 0 0-.101-.258Zm-4.566-.11H.363a.348.348 0 0 0-.258.11.36.36 0 0 0-.105.258v.637c0 .101.04.191.105.257.067.07.157.11.258.11H3.02Zm4.3-1.097H.371A.369.369 0 0 1 0 10.004V9.37c0-.105.043-.195.11-.262A.365.365 0 0 1 .37 9h6.95a.369.369 0 0 1 .367.371v.633c0 .101-.04.191-.106.262a.372.372 0 0 1-.262.109ZM23.41 9h-.418c-.531 0-.566.059-.605.152l-.825 2.004c-.273.664-.558 1.383-.667 1.75-.098-.367-.282-.867-.665-1.785l-.824-1.969C19.356 9.035 19.148 9 18.7 9h-.465c-.457 0-.55.043-.55.137v6.047c0 .109.093.132.566.132h.258c.465 0 .597-.023.597-.132v-3.59h.036s.039.168.109.32l.945 2.25c.043.102.094.14.535.14h.282c.449 0 .484-.03.523-.14L22.402 12c.082-.203.141-.406.141-.406h.035v3.59c0 .109.09.132.582.132h.25c.457 0 .59-.023.59-.132V9.137c0-.094-.133-.137-.59-.137Zm-7.098.137c0-.094-.128-.137-.57-.137h-.258c-.468 0-.546.043-.546.137v6.047c0 .109.078.132.546.132h.258c.442 0 .57-.023.57-.132ZM13.962 9c.125 0 .152.016.152.465v.41c0 .43-.035.48-.152.48h-1.453v4.829c0 .109-.137.132-.621.132h-.258c-.492 0-.578-.023-.578-.132v-4.829H9.598c-.118 0-.153-.03-.153-.48v-.41C9.445 9 9.473 9 9.598 9Zm0 0"/></svg>