<svg role="img" viewBox="0 0 24 24" xmlns="http://www.w3.org/2000/svg"><title>TIM</title><path d="M9.429 17.573H1.133c-.314 0-.597.128-.802.337a1.16 1.16 0 0 0-.331.815v1.98c0 .317.125.605.328.812.206.21.49.34.805.34H9.43zm14.243.34a1.12 1.12 0 0 0-.805-.341H14.57v4.285h8.296c.314 0 .6-.13.805-.34a1.16 1.16 0 0 0 .328-.812v-1.98a1.16 1.16 0 0 0-.328-.812m0-7.714a1.1 1.1 0 0 0-.805-.34H14.57v4.285h8.296c.314 0 .6-.132.805-.343.203-.207.328-.494.328-.81v-1.98a1.16 1.16 0 0 0-.328-.81M9.429 9.857H1.133c-.314 0-.597.13-.802.339a1.16 1.16 0 0 0-.331.812v1.981c0 .317.125.604.328.812.206.21.49.341.805.341H9.43zM22.846 6.43H1.154A1.153 1.153 0 0 1 0 5.276v-1.98a1.15 1.15 0 0 1 1.154-1.153h21.692A1.15 1.15 0 0 1 24 3.296v1.98c0 .317-.128.603-.334.812a1.15 1.15 0 0 1-.82.34"/></svg>