<svg xmlns="http://www.w3.org/2000/svg" viewBox="0 0 24 24" role="img"><title>Tor Project icon</title><path d="M11.91239 17.158139zm6.069342-16.0182626a8.419087 8.419087 0 00-4.469516 3.1196617A21.427676 21.427676 0 0116.511891 0a12.418653 12.418653 0 00-3.999566 4.3595272l.63993-2.5497235a14.628414 14.628414 0 00-1.899793 5.3494199l1.119878.479948a33.126408 33.126408 0 015.609392-6.4992952zm.819911 13.0685826c-.819911-1.519835-2.919683-3.009673-5.129444-4.3895238-.509945-.2999675-.609934-1.4098471-.529942-1.8897951l-.509945-.2399739a6.3693093 6.3693093 0 00.159983 2.3897408c.239974.749919.999891 1.599827 1.519835 2.799696a18.158031 18.158031 0 01.719922 2.919684 13.168572 13.168572 0 01-.539942 6.119336 4.2595381 4.2595381 0 01-1.429845 1.919792l-.239974.159983c4.159549.129986 8.829043-4.629498 5.979352-9.788939zm-5.399415 4.789481a6.6192822 6.6192822 0 00-.419954-1.999783 12.408654 12.408654 0 00-.749919-1.439844 6.2293245 6.2293245 0 01-.159982-2.069776 6.999241 6.999241 0 00.319965 1.93979 11.078799 11.078799 0 01.689925 1.299859 8.9990241 8.9990241 0 01.589936 2.269754 10.428869 10.428869 0 01-.349962 2.999674 5.1094459 5.1094459 0 01-.399957.999892 4.8494741 4.8494741 0 00.699925-1.519835 12.418653 12.418653 0 00.35996-4.479514 11.608741 11.608741 0 00-.45995-1.889795c-.439952-1.19987-1.069884-2.229759-1.149875-2.469733a16.208242 16.208242 0 01-.389958-3.3596353 14.308448 14.308448 0 00.439953 3.1196613c.07999.239974.799913 1.379851 1.299859 2.579721a7.46919 7.46919 0 01.479948 1.729812 10.718838 10.718838 0 01-.529943 5.159441 3.9995663 3.9995663 0 01-.349962.819911 3.7195966 3.7195966 0 00.799913-1.409847 16.13825 16.13825 0 000-8.109121c-.419954-1.279861-1.409847-2.39974-1.649821-3.1696563a7.6791672 7.6791672 0 01-.079991-2.3897409l-2.149767-.9998915c.559939 1.4398438.659928 2.5597224.07999 2.9996747-2.2597546 1.869797-5.9993491 3.999566-5.9993491 7.109229 0 3.31964 1.9997831 6.909251 7.0492351 7.179221a12.99859 12.99859 0 01-1.6998142-.559939 3.4496259 3.4496259 0 01-1.309858-.899902l-.1299859-.139985a9.3389872 9.3389872 0 01-1.9997831-3.639605 2.7097061 2.7097061 0 01-.0799913-1.519836 6.6792757 6.6792757 0 013.2796443-3.999566 10.098905 10.098905 0 00.9998912-.609934c.469949-.289968.769917-1.529834 1.079883-2.5297253-.159982.7699163-.339963 2.2597553-1.059885 2.8196943-.289968.219976-.6099336.429953-.929899.63993-1.2798612.879905-2.5397245 1.699816-3.1696562 3.809587a2.8196942 2.8196942 0 00.079991 1.379851 9.3189894 9.3189894 0 001.9497886 3.509619s.1299859.129986.1299859.159983a2.9996747 2.9996747 0 001.9397897 1.149875c-.289968-.159983-.5299423-.349962-.7399196-.479948a4.3595272 4.3595272 0 01-1.9997831-3.59961 3.6995988 3.6995988 0 012.1797636-3.389632 3.5796118 3.5796118 0 001.6798181-2.379742 3.1196617 3.1196617 0 01-1.5898278 2.499729 3.9995663 3.9995663 0 00-2.0997723 3.169656 5.6593863 5.6593863 0 001.889795 3.399632 4.0795576 4.0795576 0 001.5898281.719922 2.8896866 2.8896866 0 01-.479948-.499946 4.9994578 4.9994578 0 01-.449952-.999892 2.9996747 2.9996747 0 01-.26997-.999891 3.5996096 3.5996096 0 01.63993-2.369743 2.8396921 2.8396921 0 00.899903-1.349854 2.8696888 2.8696888 0 01-.719922 1.509836 2.9996747 2.9996747 0 00-.559939 2.239757 4.0595598 4.0595598 0 00.289968.9299 3.9995663 3.9995663 0 00.509945.999891c.17998.209977.259972.36996.54994.479948a6.4792974 6.4792974 0 00.489947-2.349745 9.5189677 9.5189677 0 000-1.759809c-.129986-.799913-.399957-1.599827-.399957-2.239757.119987.589936.429954 1.37985.609934 2.20976a5.6293895 5.6293895 0 01.109988 1.729812c0 .55994-.07999.999892-.159982 1.489839a1.9997831 1.9997831 0 01-.449952.929899 3.2096519 3.2096519 0 001.10988-1.999783 7.8991434 7.8991434 0 00.319965-2.359744z"/></svg>