<svg role="img" xmlns="http://www.w3.org/2000/svg" viewBox="0 0 24 24" version="1.0" width="800" height="121.89"><title>Toshiba</title><g fill="red"><path d="M650.442 547.642h34.55l-35.65-117.66-49.1-.002-35.65 117.66h34.56l6.3-21.78h38.66l6.33 21.78m-37.51-47.943l11.76-40.65h.2l11.76 40.65zM57.472 549.752c35.48 0 52.63-6.25 55.06-38.265.58-7.618.69-15.439.69-22.689.01-7.225-.11-15.054-.69-22.67-2.43-32.026-19.58-38.266-55.06-38.266-35.48 0-52.62 6.24-55.04 38.265-.59 7.617-.71 15.446-.71 22.671.01 7.25.12 15.071.71 22.69 2.42 32.014 19.56 38.264 55.04 38.264m-22.31-60.954c0-6.46.16-10.28.3-13.114.9-18.16 8.07-20.278 22.01-20.278 13.95 0 21.12 2.117 22.01 20.278.14 2.833.31 6.652.31 13.114 0 6.482-.17 10.308-.31 13.135-.89 18.164-8.06 20.285-22.01 20.285-13.94 0-21.11-2.12-22.01-20.285-.14-2.827-.3-6.653-.3-13.135zM-115.008 430.034v29.331h35.172v88.327h35.185v-88.327h35.173v-29.33h-105.53M424.842 547.642V429.98h-33.39v117.662h33.39M290.492 472.94v-42.96h-33.2v117.662h33.2V502.27h38.58v45.372h33.19V429.98h-33.19v42.959h-38.58M534.662 486.145c14.79-3.78 19.13-12.616 19.13-25.386 0-25.859-16.27-30.78-39.4-30.78h-59.95v117.66h62.92c28.97 0 38.71-12.48 38.71-31.675 0-13.383-3.06-25.191-21.41-29.822m-47.03 13.17h23.02c9.3 0 11.24 4.073 11.24 10.7 0 6.631-3.64 10.716-11.24 10.716h-23.02zm0-42.426h23.02c6.01 0 9.73 2.851 9.73 9.708 0 5.878-3.68 9.496-9.73 9.496h-23.02zM132.572 509.03h31.65c.03 5.707.76 9.522 3.53 11.63 3.15 2.373 5.97 3.157 15.32 3.157 9 0 18.86 0 18.86-11.085 0-8.742-5.51-10.737-15.68-11.279-25.22-1.336-34.34-2.049-43.73-9.025-6.4-4.757-9.72-14.018-9.72-26.542 0-21.297 7.43-28.768 18.15-33.981 11.06-5.381 54.47-5.381 66.15 0 14.69 6.768 15.12 21.42 15.12 35.011h-31.57c-.06-6.929-1.62-8.886-2.89-10.175-3.28-2.908-7.95-3.522-14.69-3.522-8.16 0-17.6.368-17.6 10.277 0 7.56 3.27 10.72 11.85 11.276 11.79.754 35.02 1.497 43.3 6.383 11.61 6.867 14.62 16.159 14.62 31.319 0 21.908-7.84 28.338-18.75 33.158-12.59 5.56-54.64 5.56-68.31-.43-15.3-6.67-15.61-19.964-15.61-36.173"/></g></svg>