<svg role="img" viewBox="0 0 24 24" xmlns="http://www.w3.org/2000/svg"><title>Trade Republic</title><path d="M24 12.064v6.45h-.002l-.007.011a.635.635 0 0 1-.466.624l-8.841 2.272c-.264.07-.542.059-.798-.034L10.03 20.02a1.334 1.334 0 0 0-.798-.034L.738 22.183c-.32.081-.643-.132-.722-.476a.779.779 0 0 1-.016-.15v-6.45c0-.299.193-.557.466-.624L9.24 12.21c.262-.068.538-.059.798.034l3.863 1.36c.26.09.535.102.798.035l8.563-2.2c.32-.082.646.128.721.474.01.05.016.1.016.15zm-.006-9.623v6.462a.635.635 0 0 1-.465.624l-8.835 2.27c-.263.07-.542.058-.798-.035l-3.864-1.358a1.334 1.334 0 0 0-.798-.034L.74 12.567c-.32.081-.643-.132-.722-.475a.79.79 0 0 1-.016-.15v-6.46c0-.299.194-.558.466-.622l8.775-2.272c.262-.067.538-.057.798.034l3.863 1.362c.26.088.536.102.798.034l8.553-2.202c.32-.08.647.13.723.476.01.05.015.1.015.15z"/></svg>