<svg role="img" viewBox="0 0 24 24" xmlns="http://www.w3.org/2000/svg"><title>TrainerRoad icon</title><path d="M3.4887 2.3928L1.281 14.5578c.862-1.6839 2.5858-2.8168 4.5736-2.8168h.007a5.0796 5.0796 0 012.8938.9l-.017-.011a3.2297 3.2297 0 00.8779-1.336l.007-.023c.413-1.3278-.787-5.4725 3.6617-5.5375 2.2218-.031 5.0676 1.8159 4.9916 1.8049-3.9937-.614-5.2626-.787-6.2415 1.1149-.889 1.7258-.657 3.1627-1.8019 4.2396-.9789.923-3.3197 1.5339-4.0476 1.383-.33-.069.837-.379 1.9208-1.136a4.3596 4.3596 0 102.0889 4.0577l.001-.014c.251.145.489.294.7109.444a5.1456 5.1456 0 01-3.0868 3.9666l-.034.013h9.2343c-.733-1.2639-3.5137-5.2666-9.8692-6.4025.783-.387 7.5884-.197 13.5449 5.3806L24 2.3948zm6.5285 1.5879c.592.019 1.1759.177 1.6638.294 1.338.32 2.5328.6739 2.3718.7469-.033.014-.586-.064-.8159-.088a4.1177 4.1177 0 00-1.5579.072l.028-.006c-2.0988.503-2.8567 2.9617-2.9997 3.1827-.017.024-1.186-.6-1.274-1.8258-.062-.894.258-1.7519 1.525-2.2238l.002.002a2.7508 2.7508 0 011.0569-.154zm5.3885 4.0926c.651-.008 1.4689.085 2.5048.305a8.9713 8.9713 0 00-1.8648 1.4559l-.002.002c-1.07 1.0979-2.0609 2.5658-1.6909 3.3787.37.813 2.6518 1.8258 4.2996 2.9198.852.568 1.515 2.5587 1.517 2.5657-3.1098-2.4168-5.3686-3.0967-7.0475-4.0996-1.9708-1.186-.712-4.0577-.114-5.3006.342-.704.964-1.2089 2.3968-1.2269zM.759 17.4265L0 21.6072h3.9037c-1.7079-.717-2.9298-2.2838-3.1428-4.1567z"/></svg>