<svg role="img" viewBox="0 0 24 24" xmlns="http://www.w3.org/2000/svg"><title>Transmission</title><path d="M3.251 5.168c.028.127.043.259.076.384 1.58.452 3.634.777 5.939.916v-.001c.098 1.062.218 2.116.346 3.164.116.954.24 1.903.36 2.846l3.922-.046c.13-.841.245-1.678.349-2.51.1-.784.184-1.563.263-2.34V7.58c.038-.378.084-.759.116-1.135 2.39-.165 4.494-.529 6.051-1.029a8.968 8.968 0 0 0 .015-4.225C19.185.706 17.168.35 14.88.176V.19.12c-2.088-.163-3.889-.165-5.862.027V.15c-2.211.148-4.183.465-5.708.903-.044.173-.066.353-.1.53-.687.148-1.288.34-1.757.565a5.216 5.216 0 0 0 .027 2.458c.474.225 1.08.415 1.772.562zm11.57-1.797.006-.09-.006.09zm.127 4.812 1.058 1.449h-1.22c.06-.491.11-.97.162-1.449zM7.729 15.36h1.896V12.98l.353-.004 3.922-.046.415-.005v2.434h1.732l-4.106 4.942-4.212-4.942zM8.93 8.09c.057.516.117 1.03.179 1.54H7.804l1.126-1.54zm14.583-1.958V18.84a5.16 5.16 0 0 1-5.16 5.16H5.647a5.16 5.16 0 0 1-5.16-5.16V6.133c0-.703.143-1.373.398-1.984.028.195.06.39.11.58l.057.228.212.1c.279.133.595.25.934.356a3.53 3.53 0 0 0-.073.715v12.936a3.517 3.517 0 0 0 3.517 3.517h12.716a3.517 3.517 0 0 0 3.517-3.517V6.128c0-.657-.192-1.266-.506-1.792.04-.354.065-.71.065-1.066 0-.448-.044-.896-.108-1.343a5.145 5.145 0 0 1 2.187 4.206z"/></svg>