<svg viewBox="0 0 16 16" xmlns="http://www.w3.org/2000/svg" fill-rule="evenodd" clip-rule="evenodd" stroke-linejoin="round" stroke-miterlimit="1.414"><path d="M8 0C3.582 0 0 3.582 0 8s3.582 8 8 8 8-3.582 8-8-3.582-8-8-8zm.28 12.906c-.045.086-.128.146-.224.16l-.746.106c.235.07.48.107.734.107.337 0 .67-.07.985-.2l-.63-.42-.12.24zm2.93-1.303l-1.153-.114c-.05-.01-.096-.03-.136-.05l-.77-.53-1.02.21c-.03 0-.05.01-.08 0l-1.11-.09-.66.59c-.03.03-.07.05-.11.06l-1.19.34c-.05.01-.1.01-.15 0l.7.79 2.33-.33.2-.41c.04-.08.11-.13.19-.16.08-.02.17-.01.24.04l.88.59 1.96-.45.42-.67-.35.14c-.05.01-.09.02-.14.02zm-5.29-.448l.703-.63c.06-.054.14-.083.22-.075l1.193.09 1.11-.235c.08-.016.16 0 .228.046l.817.56.84.08c.09-.2.16-.42.21-.64h-.04l-2.28-.31c-.11-.01-.2-.09-.24-.19l-.41-1.18c-.05-.03-.31-.01-.43.05l-.42 1.14c-.03.1-.11.17-.21.19l-2.23.52-.04.01c.08.27.19.53.32.79l.68-.19zm-1.85-3.3l.28 1.627.62.47 1.943-.45.39-1.098c.02-.056.06-.104.107-.14.033-.023.335-.234.71-.234.44 0 .632.284.653.317l.392 1.118 1.987.272.617-.427.41-1.423c-2.65-.6-5.46-.61-8.11-.032zm2 1.22h-.18c-.283 0-.465-.012-.626.073.006-.01.077-.166.33-.23-.027-.064-.046-.15-.05-.27-.017-.457.266-.833.558-.837.292 0 .495.37.5.83.004.46-.24.43-.533.44zM10.062 7.7c.293-.01.56.35.594.81.01.126-.004.22-.034.286.27-.032.333.153.335.163-.197-.1-.413.02-.804.03-.295.01-.537.01-.555-.45-.017-.46.173-.84.464-.85zm-3.92.4c-.082 0-.148.07-.145.153.002.083.072.15.154.145.09-.004.15-.073.15-.154 0-.082-.07-.147-.15-.145zm3.897.186c.08 0 .15-.07.14-.15 0-.083-.07-.15-.15-.147-.09 0-.15.07-.15.15 0 .08.07.15.15.14zm-2 5.584c.85 0 1.66-.35 2.32-.934l1.16-.27c.07-.017.14-.065.18-.132l.94-1.52c.07-.11.06-.247-.02-.345-.09-.1-.22-.14-.34-.09l-.59.22c.07-.25.13-.51.17-.77v-.09l.31-.22c.06-.05.1-.11.12-.18l.43-1.53.03.01h.01l.03.01c.13.03.26-.02.33-.14.15-.26.24-.59.28-.97.04-.41.01-.75-.09-1.01-.03-.08-.09-.14-.17-.17-.26-.11-.52-.2-.78-.29-.39-1.86-2.23-3.24-4.37-3.24S4.01 3.59 3.62 5.44c-.268.09-.53.18-.788.29-.074.03-.135.09-.16.17-.1.25-.127.59-.086 1 .035.39.13.71.28.97.05.09.15.15.25.15.03 0 .053 0 .08-.01l.226-.06.286 1.69c.01.08.05.15.114.19l.34.26c-.003.03-.004.07 0 .1.067.36.18.73.337 1.07l-.74-.31c-.13-.05-.28-.01-.36.1-.08.11-.07.27.02.37L5.1 13.3c.06.07.14.1.225.1h.04l.83-.116c.53.34 1.14.546 1.798.547H8zm.93-8.165v.738c0 .163-.14.296-.3.296H7.46c-.16 0-.293-.14-.293-.3V5.7c0-.143.1-.26.234-.29v-.44h-.55c-.16 0-.29-.133-.29-.297v-.976c0-.164.14-.296.3-.296H9.3c.164 0 .296.14.296.3v.98c0 .17-.132.3-.295.3h-.55v.45c.14.03.24.15.24.29zm3.19.307h-.01c-.07 0-.13-.02-.18-.057-.77-.24-1.57-.41-2.38-.504-.17-.01-.28-.16-.26-.32.02-.16.15-.28.33-.26.7.09 1.39.22 2.06.41-.47-1.42-1.97-2.44-3.7-2.44-1.73 0-3.23 1.02-3.7 2.45.61-.17 1.24-.29 1.87-.38.17-.02.31.1.33.26.02.16-.1.31-.26.33-.76.1-1.5.27-2.22.49-.03.02-.06.03-.1.03-.25.08-.49.17-.74.27-.03.14-.04.34-.01.63.02.21.06.38.12.54 3.04-.77 6.34-.77 9.39 0 .05-.15.09-.33.11-.53.02-.25.02-.46-.02-.62-.23-.09-.45-.17-.68-.25zM8.89 4.378h.1v-.386H7.15v.386h.1c.004-.158.134-.285.294-.285H7.7c.164 0 .297.133.297.296V5.7c0 .142-.1.26-.24.29v.153h.62V5.99c-.135-.027-.236-.146-.236-.29V4.39c0-.164.14-.297.3-.297h.16c.16 0 .29.127.3.285z"/></svg>