<svg role="img" viewBox="0 0 24 24" xmlns="http://www.w3.org/2000/svg"><title>Travis CI icon</title><path d="M20.07 9.29v-.02c.01-.04.14-.95-.08-2.24a.16.16 0 0 0-.11-.13l-.35-.1c-.08-2.71-1.2-4-1.23-4.03 1 1.6.99 3.51.97 3.96L17.1 6.1h-.04a.2.2 0 0 0-.04 0h-.03l-.01.01-.03.02-.01.01-.15.14a8.99 8.99 0 0 0-1-4.47c.03.06.8 2.33.53 4.87a3.7 3.7 0 0 1-.26.2.17.17 0 0 0-.07.13 3.9 3.9 0 0 1-.4 1.55 39.29 39.29 0 0 0-5.35 0l-.01-.04a3.88 3.88 0 0 1-.38-1.5c0-.06-.02-.1-.07-.14a3.92 3.92 0 0 1-.27-.2c-.26-2.54.51-4.81.53-4.87a9 9 0 0 0-.99 4.47l-.15-.14-.01-.01-.03-.02-.03-.01h-.04-.04l-2.18.62a7.45 7.45 0 0 1 .97-3.96c-.03.04-1.15 1.32-1.23 4.03l-.35.1a.16.16 0 0 0-.11.13c-.22 1.3-.1 2.2-.09 2.24v.02l-.08.02a5 5 0 0 0-.96.4c.16-.06.32-.1.5-.15a16.12 16.12 0 0 1 2.55-.38l1.02-.08c1.38-.08 2.75-.1 4.13-.1a67.74 67.74 0 0 1 5.16.18 21.88 21.88 0 0 1 2.55.38c.17.04.33.09.5.15a4.9 4.9 0 0 0-.97-.4l-.09-.02zM8.76 8.7a22.58 22.58 0 0 0-2.68.5c-.02-.15-.1-.94.07-2.02l2.46-.7a7.31 7.31 0 0 0 .22 2.22h-.07zm.37-.04v-.08a7 7 0 0 1-.2-1.96c.16.15.38.34.6.5.02.22.08.87.37 1.47l-.77.07zm7.58-.08v.08a29.2 29.2 0 0 0-.77-.07c.3-.6.35-1.25.37-1.48.22-.15.44-.34.6-.5.02.44 0 1.23-.2 1.97zm3.05.62a16.19 16.19 0 0 0-2.67-.5H17l.02-.03a7.2 7.2 0 0 0 .2-2.19l2.46.7a8.1 8.1 0 0 1 .07 2.02zm-2.96 6.04c.7-.02 1.07-.23 1.42-.06 0-.02-.11-.35-.6-.29a1 1 0 0 0 .07-.5c-.07-.81-.53-1.45-1.05-1.44-.51.02-.84.7-.82 1.5.03.81.47.8.98.79zm-.2-1.77a.26.26 0 1 1 0 .53.26.26 0 0 1 0-.53zm-7.84 1.91h.32c.52 0 .94.04.94-.77-.01-.8-.37-1.46-.88-1.46-.52 0-1.02.67-.99 1.48.01.21.04.36.1.47-.46.12-.58.4-.59.41.28-.15.6-.13 1.1-.13zm.45-1.72a.26.26 0 0 1 .01.53.26.26 0 1 1-.01-.53zm14.73-5.2a4.57 4.57 0 0 0-.04-.26l-.06-.27-.02-.06-.05-.04a4.68 4.68 0 0 0-.87-.53c-.25-.11-.5-.22-.76-.31a10.8 10.8 0 0 0-3.56-4.96 9.3 9.3 0 0 0-11.33 0A10.83 10.83 0 0 0 3.7 7l-.75.31c-.3.15-.6.31-.88.53l-.05.04-.02.06a3.02 3.02 0 0 0-.1.53 6.1 6.1 0 0 0-.02 1.57 6.71 6.71 0 0 0 .47 1.78l.06.13.04.06.04.07.03.05.06.03a4 4 0 0 0 .16.08l.16.07.08.04c-.7.65-1.47 1.5-2.14 2.55L0 16.21l1.18-1.03c.02-.02 1-.87 2.66-1.84l.02.19c-.1.05-.63.32-.78.45-.26.21-.27.54-.2 1.16.03.31.15.92.31 1.48.28.97.48 1.14.65 1.18.08.02.19.03.3.03.32 0 .72-.07.99-.14.3.96.75 1.83 1.28 2.6-.03 0-.05 0-.08.02l-1.82-.85-.8-.35.47.73c.04.05.84 1.3 1.5 2.15a3.6 3.6 0 0 0 3.05 1.6c.2 0 .4 0 .6-.03l1.1-.13a7.46 7.46 0 0 0 6.6-.67c.66-.15 1.4-.33 1.76-.43l.2-.05c.51-.12 1.36-.32 1.81-1.22l1.2-2.33.36-.65-.68.3c-.04.01-.9.39-1.34.62-.02 0-.03.02-.05.03.36-.74.54-1.33.6-1.56.26.06.63.05.9.05.13 0 .27-.02.36-.04.17-.05.31-.17.57-1.16.15-.58.26-1.21.28-1.53.06-.64.04-.97-.21-1.19-.13-.1-.5-.3-.7-.4l.01-.07.15.03.18-.65a7.02 7.02 0 0 1 .51-.21l.16-.07.16-.08.06-.03.03-.05.05-.07.03-.06.06-.13a4.09 4.09 0 0 0 .28-.75 6.24 6.24 0 0 0 .17-2.6zM3.68 11.27a27 27 0 0 1 .85-.17c-.26.17-.5.36-.75.55l-.1-.38zm5.9-.28c-.36.25-.76.57-1.15.96-.87.09-1.73.2-2.59.34 1.1-.51 2.37-.98 3.74-1.3zm-1.61 1.46c-.13.15-.24.3-.36.47l-.68.97 1-.66s.64-.43 1.67-.93a46 46 0 0 1 4.26-.12c-.2.16-.41.32-.63.45l-.73.44c-.46.06-.86.17-.88.18a.1.1 0 0 0-.04.01.17.17 0 0 0-.07.1l-.75 2.45-3.98.89-1.26-.88-.36-2.96c.71-.13 1.66-.28 2.8-.4zm5.4.6c.07-.01 1.45-.18 3.08-.74 1.82.14 3.3.36 4.31.54l-.36 2.52-1.26.88-3.98-.45-.74-2.44a.16.16 0 0 0-.11-.11c-.03-.01-.52-.15-1.04-.2h.1zm1.92-2.34c-.23.3-.55.67-.94 1.03a46.5 46.5 0 0 0-3.59.04 17.64 17.64 0 0 1 4.65-1.23l-.12.16zM3.97 17.36c-.2-.2-.56-1.55-.64-2.27-.06-.58-.02-.71.04-.76.07-.06.33-.2.55-.33l.3 2.46c0 .04.03.09.07.11l.62.44.08.25c-.26.07-.78.15-1.02.1zm10.04 4.66l-.38.05h-.27l.23-.51.43.46zm-.71 1.5a5.95 5.95 0 0 1-1.98-.22l.14-.02c.06 0 1.23-.16 1.76-.94h.18l.25-.01c.2-.02.39-.05.58-.09l.06.06c.4.4.9.62 1.43.66-.77.31-1.6.5-2.42.55zm7.29-6.38c-.23.75-.5 1.4-.81 2h-.22c-.24 0-.48-.02-.75-.04l-1.43-.15-1.46-1.16-.06-.05a.6.6 0 0 0-.45-.18c-.2 0-.51.08-1.26.3.39-.29.4-.66.4-.66s-.56.51-1.44.62c-.89.12-1.58-.42-1.58-.42.03.09.07.3.27.48a6.6 6.6 0 0 0-1.05-.04c-.54.03-1.3.86-1.85 1.69l-2.04.62c-.9-1.23-1.34-2.5-1.38-2.63l-.05-.15.23.16.56.4.2.13c.02.02.05.03.09.03h.04l5.2-1.17c.07 0 .11-.05.13-.1l.74-2.46a2.45 2.45 0 0 1 .68 0l.76 2.53c.02.06.08.1.15.11l.35.04 4.89.56c.04 0 .08 0 .12-.03l.49-.34.45-.32.17-.12-.09.35zm-1.16.12l-5.08-.58-.76-2.51a.17.17 0 0 0-.13-.12 3.34 3.34 0 0 0-.5-.05c-.14 0-.3.02-.5.05a.17.17 0 0 0-.12.12l-.75 2.45-5.04 1.12-2-1.4-.4-3.18.26-.15.42-.08.37 3c0 .05.03.1.07.12l1.38.96c.02.02.06.03.09.03h.04l4.15-.92.04-.02a.16.16 0 0 0 .08-.1l.75-2.46c.2-.05.7-.17 1.16-.17.45 0 .96.12 1.17.17l.74 2.46c.02.07.08.11.14.12l4.15.47c.04 0 .08 0 .12-.03l1.37-.96a.17.17 0 0 0 .07-.11l.37-2.58.69.15-.41 2.84-1.95 1.36zm3.07-3.3c.06.05.1.18.05.79a6.93 6.93 0 0 1-.57 2.25c-.21.04-.66 0-.93-.07l.1-.47.47-.33a.16.16 0 0 0 .07-.11l.34-2.34.47.28zm-.57-1.33c-.73-.16-2.33-.48-4.52-.7.72-.3 1.45-.68 2.1-1.15 1.3.18 2.26.38 2.78.5l-.36 1.35zm1.53-2.66a7.05 7.05 0 0 1-.43 1.63l-.05.1-.02.04-.07.04-.15.06-.15.07.26-.97a25.1 25.1 0 0 0-1.59-.34l.1-.02a4.3 4.3 0 0 0 .86-.32.9.9 0 0 0 .24-.19c-.96.32-2.96.17-4.73 0a48.05 48.05 0 0 0-4.87-.29c-1.64 0-3.26.12-4.88.28-1.77.19-3.76.33-4.73.01.07.08.16.14.25.19l.27.14a4.47 4.47 0 0 0 .8.23c-.87.16-1.38.3-1.44.31l.27 1.02-.02.02-.28-.13-.15-.07-.07-.04-.02-.04-.05-.1a5.3 5.3 0 0 1-.43-1.63 7.16 7.16 0 0 1 .01-1.87c.22-.18.46-.34.71-.5a16.84 16.84 0 0 1 2.21-1l.47-.16a10.27 10.27 0 0 0-1.58.38A9.47 9.47 0 0 1 12.92.55c3.8 0 7.27 2.47 8.72 6.27a12.29 12.29 0 0 0-1.57-.38 22.77 22.77 0 0 1 1.81.73c.29.13.58.28.85.44.26.14.5.3.72.49l.03.17.02.24a7.2 7.2 0 0 1-.04 1.46zm-11.6-5.55h-1.44V2.38h5.1v2.04h-1.45v-.6h-.33v2.76h.5v1.54H11.7V6.58h.5V3.82h-.33v.6z"/></svg>