<svg viewBox="0 0 16 16" xmlns="http://www.w3.org/2000/svg" fill-rule="evenodd" clip-rule="evenodd" stroke-linejoin="round" stroke-miterlimit="1.414"><path d="M8 0C3.582 0 0 3.582 0 8s3.582 8 8 8 8-3.582 8-8-3.582-8-8-8zm.28 12.906c-.045.086-.128.146-.224.16l-.746.106c.235.07.48.107.734.107.337 0 .67-.07.985-.2l-.63-.42-.12.246zm2.93-1.303l-1.153-.114c-.05-.006-.096-.023-.136-.05l-.775-.53-1.026.218c-.03.005-.057.01-.085.005l-1.11-.084-.66.592c-.034.03-.074.052-.117.063l-1.195.34c-.053.012-.106.014-.157 0l.696.79 2.327-.333.2-.405c.04-.076.108-.132.19-.154.082-.024.17-.01.24.04l.878.587 1.955-.45.415-.672-.353.136c-.043.017-.088.023-.136.02zm-5.29-.448l.703-.63c.06-.054.14-.083.22-.075l1.193.09 1.11-.235c.08-.016.16 0 .228.046l.817.56.832.08c.085-.207.154-.425.206-.648-.014 0-.028 0-.042-.004l-2.28-.313c-.11-.014-.203-.09-.24-.196l-.404-1.173c-.054-.037-.315-.016-.437.045l-.41 1.152c-.034.095-.114.167-.213.19l-2.235.514c-.014.004-.03.005-.044.007.08.267.188.53.32.783l.678-.193zm-1.85-3.3l.28 1.627.62.47 1.943-.45.39-1.098c.02-.056.06-.104.107-.14.033-.023.335-.234.71-.234.44 0 .632.284.653.317l.392 1.118 1.987.272.617-.427.41-1.423c-2.647-.6-5.46-.61-8.11-.032zm2 1.22H5.89c-.283 0-.465-.012-.626.073.006-.01.077-.166.33-.23-.027-.064-.046-.15-.05-.27-.017-.457.266-.833.558-.837.292 0 .495.37.5.83.004.46-.24.43-.533.434zm3.992-1.376c.293-.01.56.352.594.81.01.127-.004.22-.034.287.27-.032.333.153.335.163-.197-.095-.413.027-.804.033-.295.01-.537.014-.555-.445-.017-.46.173-.84.464-.85zm-3.92.4c-.082 0-.148.07-.145.154.002.083.072.15.154.145.083-.004.147-.073.146-.154-.003-.082-.07-.147-.154-.145zm3.897.187c.08 0 .15-.07.146-.15 0-.083-.07-.15-.152-.147-.083.003-.15.07-.147.15 0 .084.07.15.152.147zM8.044 13.87c.85 0 1.664-.35 2.325-.934l1.166-.27c.076-.017.143-.065.184-.132l.942-1.52c.067-.11.058-.247-.023-.345-.083-.1-.216-.135-.335-.088l-.588.226c.075-.248.132-.506.167-.77.004-.03.004-.06 0-.088l.316-.22c.06-.042.102-.105.12-.177l.434-1.528.036.01.01.002.036.01c.13.035.265-.02.332-.137.15-.257.245-.583.283-.968.042-.412.014-.75-.082-1.012-.03-.077-.09-.14-.167-.17-.255-.104-.515-.2-.778-.287-.39-1.86-2.23-3.24-4.368-3.24-2.134 0-3.976 1.38-4.367 3.238-.265.09-.527.186-.785.29-.077.032-.138.094-.166.173-.096.258-.124.598-.083 1.008.038.386.133.713.283.97.053.094.152.15.255.15.027 0 .052-.004.078-.01.075-.022.15-.04.227-.06l.285 1.694c.01.078.052.148.114.195l.343.258c-.005.032-.006.066 0 .1.065.36.18.723.335 1.072l-.735-.312c-.13-.053-.274-.012-.355.1-.08.112-.074.265.018.37l1.653 1.877c.056.063.138.1.222.1.014 0 .028 0 .042-.004l.83-.117c.53.34 1.135.546 1.794.547h.005zm.93-8.165v.738c0 .163-.133.296-.297.296h-1.21c-.162 0-.294-.134-.294-.297v-.738c0-.143.1-.26.234-.29V4.97h-.55c-.164 0-.297-.133-.297-.297v-.976c0-.164.134-.296.297-.296H9.29c.164 0 .296.133.296.297v.976c0 .164-.132.296-.295.296H8.74v.445c.135.028.236.147.236.29zm3.195.307h-.004c-.064 0-.124-.02-.173-.057-.77-.24-1.564-.41-2.374-.504-.163-.018-.28-.165-.26-.327.02-.16.15-.28.328-.26.7.083 1.392.22 2.067.406-.47-1.424-1.97-2.446-3.702-2.446-1.727 0-3.23 1.022-3.7 2.444.612-.17 1.24-.297 1.875-.38.17-.02.31.094.332.255.02.162-.093.31-.255.33-.757.1-1.5.264-2.22.49-.03.016-.062.027-.096.03-.247.08-.493.168-.734.263-.028.133-.044.334-.015.627.02.203.06.38.115.533 3.046-.77 6.342-.77 9.395 0 .055-.152.094-.33.114-.533.026-.25.02-.464-.015-.627-.226-.088-.452-.168-.68-.244zM8.895 4.378h.1v-.386H7.153v.386h.1c.005-.158.135-.285.295-.285h.155c.163 0 .296.133.296.296v1.315c0 .142-.1.26-.235.29v.153h.618v-.154c-.135-.028-.236-.147-.236-.29V4.39c0-.164.133-.297.296-.297H8.6c.16 0 .29.127.295.285z"/></svg>