<svg role="img" xmlns="http://www.w3.org/2000/svg" viewBox="0 0 24 24"><title>Travis CI icon</title><path d="M20.065 9.284v-.02c.01-.04.14-.95-.08-2.24a.16.16 0 00-.11-.13l-.35-.1c-.08-2.708-1.2-3.998-1.23-4.028 1 1.6.99 3.509.97 3.959l-2.169-.63h-.04a.2.2 0 00-.04 0h-.03l-.01.01-.03.02-.01.01-.15.14a8.988 8.988 0 00-1-4.469c.03.06.8 2.33.53 4.869a3.7 3.7 0 01-.26.2.17.17 0 00-.07.13 3.9 3.9 0 01-.4 1.55 39.28 39.28 0 00-5.348 0l-.01-.04a3.88 3.88 0 01-.38-1.5c0-.06-.02-.1-.07-.14a3.92 3.92 0 01-.27-.2c-.26-2.54.51-4.809.53-4.869a8.998 8.998 0 00-.99 4.469l-.15-.14-.01-.01-.03-.02-.03-.01h-.08l-2.18.62a7.448 7.448 0 01.97-3.96c-.03.04-1.15 1.32-1.23 4.03l-.35.1a.16.16 0 00-.11.13c-.22 1.3-.1 2.2-.09 2.24v.02l-.08.02a4.999 4.999 0 00-.959.4c.16-.06.32-.1.5-.15a16.116 16.116 0 012.55-.38l1.019-.08c1.38-.08 2.75-.1 4.129-.1a67.724 67.724 0 015.159.18 21.875 21.875 0 012.55.38c.17.04.33.09.5.15a4.899 4.899 0 00-.97-.4l-.09-.02zm-11.307-.59a22.575 22.575 0 00-2.68.5c-.02-.15-.1-.94.07-2.02l2.46-.699a7.308 7.308 0 00.22 2.22zm.37-.04v-.08a6.998 6.998 0 01-.2-1.959c.16.15.38.34.6.5.02.22.08.87.37 1.47zm7.578-.08v.08a29.193 29.193 0 00-.77-.07c.3-.6.35-1.25.37-1.48.22-.15.44-.34.6-.499.02.44 0 1.23-.2 1.97zm3.05.62a16.186 16.186 0 00-2.67-.5h-.09l.02-.03a7.198 7.198 0 00.2-2.189l2.46.7a8.098 8.098 0 01.07 2.02zm-2.96 6.039c.7-.02 1.07-.23 1.42-.06 0-.02-.11-.35-.6-.29a1 1 0 00.07-.5c-.07-.81-.53-1.45-1.05-1.44-.51.02-.84.7-.82 1.5.03.81.47.8.98.79zm-.2-1.77a.265.265 0 110 .53.265.265 0 010-.53zm-7.838 1.91h.32c.52 0 .94.04.94-.77-.01-.8-.37-1.46-.88-1.46-.52 0-1.02.67-.99 1.48.01.21.04.36.1.47-.46.12-.58.4-.59.41.28-.15.6-.13 1.1-.13zm.45-1.72a.265.265 0 01.01.53.265.265 0 11-.01-.53zm14.726-5.198a4.569 4.569 0 00-.04-.26l-.06-.27-.02-.06-.05-.04a4.679 4.679 0 00-.87-.53c-.25-.11-.5-.22-.76-.31a10.797 10.797 0 00-3.558-4.959 9.298 9.298 0 00-11.328 0A10.827 10.827 0 003.7 6.995l-.75.31c-.3.15-.6.31-.88.53l-.05.04-.02.06a3.02 3.02 0 00-.1.53 6.099 6.099 0 00-.02 1.57 6.708 6.708 0 00.47 1.779l.06.13.04.06.04.07.03.05.06.03a3.999 3.999 0 00.16.08l.16.07.08.04c-.7.65-1.47 1.5-2.14 2.549L0 16.203l1.18-1.03c.02-.02 1-.87 2.66-1.84l.02.19c-.1.05-.63.32-.78.45-.26.21-.27.54-.2 1.16.03.31.15.92.31 1.48.28.97.48 1.14.65 1.18.08.02.19.03.3.03.319 0 .719-.07.989-.14.3.96.75 1.829 1.28 2.599-.03 0-.05 0-.08.02l-1.82-.85-.8-.35.47.73c.04.05.84 1.3 1.5 2.15a3.6 3.6 0 003.049 1.599c.2 0 .4 0 .6-.03l1.1-.13a7.458 7.458 0 006.598-.67c.66-.15 1.4-.33 1.76-.43l.2-.05c.51-.12 1.36-.32 1.81-1.22l1.199-2.329.36-.65-.68.3c-.04.01-.9.39-1.34.62-.02 0-.03.02-.05.03.36-.74.54-1.33.6-1.56.26.06.63.05.9.05.13 0 .27-.02.36-.04.17-.05.31-.17.57-1.16.15-.58.26-1.21.28-1.529.06-.64.04-.97-.21-1.19-.13-.1-.5-.3-.7-.4l.01-.07.15.03.18-.65a7.018 7.018 0 01.51-.21l.16-.07.16-.08.06-.03.03-.05.05-.07.03-.06.06-.13a4.089 4.089 0 00.28-.75 6.239 6.239 0 00.17-2.598zM3.68 11.264a26.994 26.994 0 01.85-.17c-.26.17-.5.36-.75.55zm5.899-.28c-.36.25-.76.57-1.15.96-.87.09-1.73.2-2.59.34 1.1-.51 2.37-.98 3.74-1.3zm-1.61 1.46c-.13.15-.24.3-.36.47l-.68.97 1-.66s.64-.43 1.67-.93a45.99 45.99 0 014.259-.12c-.2.16-.41.32-.63.45l-.73.44c-.46.06-.86.17-.88.18a.1.1 0 00-.04.01.17.17 0 00-.07.1l-.75 2.449-3.979.89-1.26-.88-.36-2.96c.71-.13 1.66-.28 2.8-.4zm5.399.6c.07-.01 1.45-.18 3.08-.74 1.819.14 3.298.36 4.308.54l-.36 2.519-1.26.88-3.979-.45-.74-2.44a.16.16 0 00-.11-.11 6.19 6.19 0 00-1.04-.2zm1.92-2.34c-.23.3-.55.67-.94 1.03a46.489 46.489 0 00-3.59.04 17.636 17.636 0 014.65-1.23zM3.968 17.352c-.2-.2-.56-1.55-.64-2.27-.06-.579-.02-.709.04-.759.07-.06.33-.2.55-.33l.3 2.46c0 .04.03.09.07.11l.62.44.08.25c-.26.07-.78.15-1.02.1zm10.038 4.66l-.38.05h-.27l.23-.51.43.46zm-.71 1.499a5.949 5.949 0 01-1.98-.22l.14-.02c.06 0 1.23-.16 1.76-.94h.18l.25-.01c.2-.02.39-.05.58-.09l.06.06c.4.4.9.62 1.43.66-.77.31-1.6.5-2.42.55zm7.288-6.379c-.23.75-.5 1.4-.81 2h-.22c-.24 0-.48-.02-.75-.04l-1.429-.15-1.46-1.16-.06-.05a.6.6 0 00-.45-.18c-.2 0-.51.08-1.26.3.39-.29.4-.66.4-.66s-.56.51-1.439.62c-.89.12-1.58-.42-1.58-.42.03.09.07.3.27.48a6.598 6.598 0 00-1.05-.04c-.54.03-1.3.86-1.849 1.69l-2.04.62c-.9-1.23-1.34-2.5-1.38-2.63l-.05-.15.23.16.56.4.2.13c.02.02.05.03.09.03h.04l5.2-1.17c.07 0 .11-.05.13-.1l.74-2.459a2.45 2.45 0 01.679 0l.76 2.53c.02.06.08.1.15.11l.35.04 4.888.56c.04 0 .08 0 .12-.03l.49-.34.45-.32.17-.12zm-1.16.12l-5.078-.58-.76-2.509a.17.17 0 00-.13-.12 3.34 3.34 0 00-.5-.05c-.14 0-.3.02-.5.05a.17.17 0 00-.12.12l-.75 2.45-5.038 1.12-2-1.4-.4-3.18.26-.15.42-.08.37 3c0 .05.03.1.07.12l1.38.96c.02.02.06.03.09.03h.04l4.148-.92.04-.02a.16.16 0 00.08-.1l.75-2.46c.2-.05.7-.17 1.16-.17.45 0 .96.12 1.17.17l.74 2.46c.02.07.08.11.14.12l4.149.47c.04 0 .08 0 .12-.03l1.37-.96a.17.17 0 00.07-.11l.37-2.58.689.15-.41 2.84-1.95 1.36zm3.07-3.299c.06.05.1.18.05.79a6.928 6.928 0 01-.57 2.25c-.21.04-.66 0-.93-.07l.1-.47.47-.33a.16.16 0 00.07-.11l.34-2.34zm-.57-1.33a40.1 40.1 0 00-4.519-.7c.72-.3 1.45-.68 2.1-1.149 1.3.18 2.259.38 2.779.5zm1.53-2.659a7.048 7.048 0 01-.43 1.63l-.05.1-.02.04-.07.04-.15.06-.15.07.26-.97a25.094 25.094 0 00-1.59-.34l.1-.02a4.299 4.299 0 00.86-.32.9.9 0 00.24-.19c-.96.32-2.96.17-4.73 0a48.039 48.039 0 00-4.868-.29c-1.64 0-3.26.12-4.879.28-1.77.19-3.759.33-4.729.01.07.08.16.14.25.19l.27.14a4.469 4.469 0 00.8.23c-.87.16-1.38.3-1.44.31l.27 1.02-.02.02-.28-.13-.15-.07-.07-.04-.02-.04-.05-.1a5.299 5.299 0 01-.43-1.63 7.158 7.158 0 01.01-1.87c.22-.18.46-.34.71-.5a16.836 16.836 0 012.21-.999l.47-.16a10.268 10.268 0 00-1.58.38A9.468 9.468 0 0112.917.546c3.8 0 7.268 2.47 8.718 6.269a12.287 12.287 0 00-1.57-.38 22.765 22.765 0 011.81.73c.29.13.58.28.85.44.26.14.5.3.72.49l.03.17.02.24a7.198 7.198 0 01-.04 1.46zM11.857 4.415h-1.44V2.376h5.1v2.04h-1.45v-.6h-.33v2.759h.5v1.54h-2.54v-1.54h.5v-2.76h-.33v.6z"/></svg>