<svg viewBox="0 0 24 24" xmlns="http://www.w3.org/2000/svg" fill-rule="evenodd" clip-rule="evenodd" stroke-linejoin="round" stroke-miterlimit="1.414"><path d="M12 0C5.373 0 0 5.373 0 12s5.373 12 12 12 12-5.373 12-12S18.627 0 12 0zm.42 19.359a.454.454 0 0 1-.336.24l-1.119.159c.352.105.72.16 1.101.16a3.87 3.87 0 0 0 1.477-.3l-.945-.63-.18.36zm4.395-1.954l-1.73-.171a.82.82 0 0 1-.203-.075l-1.155-.795-1.53.315c-.045 0-.075.015-.12 0l-1.665-.135-.99.885a.358.358 0 0 1-.165.09l-1.785.51a.568.568 0 0 1-.225 0l1.05 1.185 3.495-.495.3-.615a.5.5 0 0 1 .285-.24.439.439 0 0 1 .36.06l1.32.885 2.94-.675.63-1.005-.525.21c-.075.015-.135.03-.21.03zm-7.935-.672l1.054-.945a.433.433 0 0 1 .33-.113l1.79.135 1.665-.352c.12-.024.24 0 .342.069l1.226.84 1.26.12c.135-.3.24-.63.315-.96h-.06l-3.42-.465a.443.443 0 0 1-.36-.285l-.615-1.77c-.075-.045-.465-.015-.645.075l-.63 1.71a.407.407 0 0 1-.315.285l-3.345.78-.06.015c.12.405.285.795.48 1.185l1.02-.285zm-2.775-4.95l.42 2.44.93.705 2.915-.675.585-1.647a.472.472 0 0 1 .16-.21c.05-.035.503-.351 1.065-.351.66 0 .948.426.98.476l.587 1.676 2.981.409.925-.641.615-2.135c-3.975-.9-8.19-.914-12.165-.047zm3 1.83h-.27c-.424 0-.698-.018-.939.109.009-.015.116-.249.495-.345a1.136 1.136 0 0 1-.075-.405c-.026-.685.399-1.25.837-1.255.438 0 .742.555.75 1.245.006.69-.36.645-.8.66zm5.988-2.063c.44-.015.84.525.891 1.215a.882.882 0 0 1-.051.429c.405-.048.5.23.503.244-.296-.15-.62.03-1.206.046-.443.015-.806.015-.833-.675-.025-.69.26-1.26.696-1.275zm-5.88.6a.22.22 0 0 0-.217.23.222.222 0 0 0 .23.217.229.229 0 0 0 .226-.231.22.22 0 0 0-.225-.217zm5.846.279c.12 0 .225-.105.21-.225a.22.22 0 0 0-.225-.22.22.22 0 0 0-.225.225c0 .12.105.225.225.21zm-3 8.376c1.275 0 2.49-.525 3.48-1.401l1.74-.405a.445.445 0 0 0 .27-.198l1.41-2.28a.44.44 0 0 0-.03-.518c-.136-.15-.33-.21-.51-.135l-.886.33c.105-.375.195-.765.255-1.155v-.134l.465-.33a.54.54 0 0 0 .18-.27l.645-2.295.045.015h.015l.045.015c.195.045.39-.03.495-.21.225-.39.36-.885.42-1.455.06-.615.015-1.125-.135-1.515a.429.429 0 0 0-.255-.256c-.39-.165-.78-.3-1.17-.435-.585-2.79-3.345-4.86-6.555-4.86S6.015 5.385 5.43 8.16c-.402.135-.795.27-1.182.435a.41.41 0 0 0-.24.255c-.15.375-.19.885-.129 1.5.052.585.195 1.065.42 1.455a.442.442 0 0 0 .375.225c.045 0 .08 0 .12-.015l.339-.09.429 2.535c.015.12.075.225.171.285l.51.39a.716.716 0 0 0 0 .15c.1.54.27 1.095.506 1.605l-1.11-.465a.464.464 0 0 0-.54.15.451.451 0 0 0 .03.555l2.521 2.82c.09.105.21.15.337.15h.06l1.245-.174c.795.51 1.71.819 2.697.82H12zm1.395-12.247v1.107c0 .244-.21.444-.45.444H11.19c-.24 0-.44-.21-.44-.45V8.55c0-.214.15-.39.351-.435v-.66h-.825a.44.44 0 0 1-.434-.446V5.546c0-.245.21-.443.45-.443h3.658c.246 0 .444.21.444.45v1.47c0 .255-.198.45-.442.45h-.825v.675c.21.045.36.225.36.435zm4.784.46h-.014a.443.443 0 0 1-.27-.086 19.624 19.624 0 0 0-3.57-.755.42.42 0 0 1-.39-.48c.03-.24.225-.42.495-.39 1.05.135 2.084.33 3.09.615-.706-2.13-2.956-3.66-5.55-3.66-2.596 0-4.846 1.53-5.55 3.675.914-.255 1.86-.435 2.804-.57.255-.03.465.15.495.39.03.24-.15.465-.39.495-1.14.15-2.25.404-3.33.734a.253.253 0 0 1-.15.045c-.375.12-.735.255-1.11.405-.045.21-.06.51-.015.945.03.315.09.57.18.81a29.06 29.06 0 0 1 14.085 0c.075-.225.135-.495.165-.795.03-.375.03-.69-.03-.93a27.965 27.965 0 0 0-1.02-.374zm-4.903-2.451h.15v-.579h-2.76v.579h.15a.44.44 0 0 1 .441-.427h.234c.246 0 .446.199.446.444V8.55c0 .213-.15.39-.36.435v.23h.93v-.23a.442.442 0 0 1-.355-.435V6.585c0-.246.21-.446.45-.446h.24c.24 0 .436.191.45.428z"/></svg>