<svg viewBox="0 0 16 16" xmlns="http://www.w3.org/2000/svg" fill-rule="evenodd" clip-rule="evenodd" stroke-linejoin="round" stroke-miterlimit="1.414"><path d="M13.63 2.92c-.53-.3-1.377.182-1.89 1.076l-.932 1.62c-.34.673-.294 1.475.138 2.094l.027.04c.43.618 1.01 1.19 1.2 1.394.114.12.2.268.247.437.157.564-.17 1.147-.733 1.304-.562.157-1.146-.17-1.303-.733-.04-.14-.048-.283-.03-.42.03-.232-.045-.61-.378-.982-.333-.37-1.014.33-1.234 1.052l-.01.033c-.22.722-.36 1.35-.318 1.412.025.036.048.074.07.114.308.58.087 1.3-.494 1.61-.58.31-1.303.088-1.61-.493-.31-.58-.09-1.302.492-1.61.026-.015.052-.028.08-.04.043-.02.17-.323.278-.68l.198-.65c.012-.038.022-.075.03-.113l.59-2.1-.63 1.29c-.074-.244-.198-.252-.467-.06-.162.117-.43.347-.563.44-.247.177-.453.52-.563.73-.064.124-.154.237-.27.33-.45.366-1.11.297-1.476-.153-.366-.45-.297-1.11.153-1.476.133-.107.284-.177.44-.21.264-.058 1.163-.608 1.705-.996.097-.07.18-.135.245-.196l1.448-1.1-1.26.682s-.13-.013-.286.005c-.462.05-.937.115-1.027.23-.053.067-.116.128-.19.18-.42.304-1.007.208-1.31-.213-.303-.42-.207-1.007.213-1.31.174-.125.376-.182.574-.177.337.01 1.225.19 1.968.058l.19-.034c.744-.132 1.633-.778 1.987-1.444l.775-1.36c.428-.753.397-1.577-.07-1.84L8.786.18C8.36-.06 7.66-.06 7.234.18L1.41 3.463c-.426.24-.776.84-.776 1.33v6.415c0 .49.35 1.088.776 1.33l5.824 3.282c.427.24 1.126.24 1.552 0l5.804-3.282c.427-.242.776-.84.776-1.33V4.792c0-.49-.35-1.088-.776-1.33l-.96-.542" fill-rule="nonzero"/></svg>