<svg aria-labelledby="simpleicons-treehouse-icon" role="img" viewBox="0 0 24 24" xmlns="http://www.w3.org/2000/svg"><title id="simpleicons-treehouse-icon">Treehouse icon</title><path d="M20.443 4.34c-.797-.449-2.069.274-2.84 1.617l-1.4 2.435c-.511 1.011-.441 2.216.207 3.146l.041.061c.646.93 1.518 1.788 1.803 2.095.172.181.301.403.371.657.236.855-.255 1.727-1.102 1.968-.844.24-1.722-.255-1.958-1.097-.061-.211-.072-.422-.045-.631.045-.347-.066-.917-.567-1.473-.501-.557-1.524.495-1.854 1.592l-.016.061c-.33 1.082-.54 2.028-.477 2.119.037.06.072.12.104.18.463.872.131 1.954-.741 2.419-.872.466-1.959.135-2.42-.736-.466-.871-.135-1.953.739-2.419l.12-.061c.064-.029.256-.48.418-1.021l.298-.976c.018-.046.032-.106.044-.166l.887-3.155-.946 1.938c-.111-.359-.297-.375-.701-.09-.241.181-.646.526-.842.662-.36.27-.677.78-.841 1.097-.091.195-.226.36-.406.495-.676.557-1.668.451-2.209-.225s-.436-1.668.24-2.209c.211-.166.436-.271.662-.315.404-.091 1.758-.917 2.568-1.503.15-.105.271-.195.376-.301l2.179-1.652-1.894 1.021s-.194-.016-.421.016c-.69.075-1.412.18-1.547.346-.075.105-.166.195-.286.27-.631.451-1.503.316-1.968-.314-.45-.634-.299-1.522.332-1.972.256-.181.571-.271.856-.271.512.016 1.849.286 2.96.091l.285-.045c1.127-.194 2.449-1.173 2.991-2.163l1.171-2.044c.646-1.127.602-2.358-.104-2.765L13.202.27c-.646-.359-1.697-.359-2.329 0L2.112 5.182C1.452 5.527.926 6.43.926 7.165v9.638c0 .736.526 1.638 1.165 1.998l8.753 4.929c.646.361 1.698.361 2.329 0l8.73-4.929c.646-.364 1.171-1.262 1.171-1.998V7.15c0-.736-.525-1.635-1.156-1.998l-1.444-.814"/></svg>