<svg role="img" viewBox="0 0 24 24" xmlns="http://www.w3.org/2000/svg"><title>Trilium</title><path d="M10.8553 20.5137c-.7787-.7246-.812-1.4624-.8734-1.5885-.079.2466-.1253.4053-.1373.85-.7557-.7326-1.2851-1.5794-1.313-2.5942-.0372-1.3607.5749-1.8516.5707-1.8503.0006 0-.475.245-.8974.5924.3103-1.8247 1.4396-3.5312 3.095-3.9996-.5245 1.2293-.7127 2.55-.5724 3.8772-.6085.6443-.892 1.4171-.8894 2.1975.076-.781.4132-1.4228.9283-1.896.2114 1.4964.836 2.9725 1.8574 4.2653-.686-.9884-1.8304-3.2666-1.3925-5.9322.8658.4332 1.5327 1.181 1.8753 2.24-.2249-1.0598-.8289-1.972-1.8258-2.6025.1167-.755.319-1.49.5952-2.1803.4585.068 2.2125.5934 2.707 3.957-.3584-.1922-.6988-.2992-.6991-.299.009.0033.2224.1787.4469 1.0828.2056.7923.0984 1.752-.0027 2.482-.3743-.1703-.6932-.2759-.6935-.2757-.0002 0 .3761.3252.499 1.2813.1095.8529.1058 1.9282.123 1.9147.0068.0002-2.0981-.3094-3.4014-1.5219M3.19 5.8314c1.0679-.3104 1.7479.048 1.894.0597-.179-.1997-.2966-.3242-.6892-.5686 1.0626-.2857 2.1065-.3105 3.032.1982 1.2411.6822 1.3532 1.4835 1.3544 1.4792-.0002.0005.035-.5504-.0502-1.108 1.4709 1.2346 2.3966 3.1342 1.929 4.8497-.8218-1.1117-1.906-1.973-3.1722-2.5461-.2517-.8789-.7933-1.5368-1.4949-1.9447.66.478 1.0552 1.1147 1.2035 1.8207-1.4562-.5989-3.1157-.8205-4.8237-.5933 1.2549-.0895 3.9131.0923 6.07 1.8822-.8528.541-1.8817.7398-3.0156.4872 1.0716.3575 2.2141.3009 3.3145-.2528a10.3132 10.3132 0 0 1 1.6373 1.6746c-.3069.3713-1.719 1.652-5.0027.3228.3648-.217.6433-.463.6434-.4633-.008.0062-.2797.1034-1.2115-.1726-.8212-.2338-1.6249-.8337-2.2258-1.307.3535-.2426.6194-.4702.6194-.4707.0001-.0002-.4935.163-1.4173-.2305C.9602 8.597-.003 8.0284 0 8.0508c-.0038.0059 1.403-1.6999 3.19-2.2194m16.218-3.6217c-1.4072-.0435-2.1363.615-2.3124.6761.1602-.3033.2674-.4945.677-.921-1.3933-.0146-2.6853.287-3.671 1.209-1.322 1.2368-1.2193 2.2615-1.222 2.2564.0003.0006-.2085-.6682-.2712-1.3834-1.4387 1.9916-2.0068 4.6304-.916 6.5989.6771-1.6334 1.7523-3.0412 3.138-4.1513.0456-1.1648.5142-2.149 1.2549-2.8756-.6684.8-.9633 1.7114-.9336 2.63 1.6117-1.2024 3.587-2.0038 5.757-2.2667-1.571.2886-2.9944.9148-4.2385 1.7688.7787.3556 1.668.4114 2.6026.0859-.896.42-1.8908.4886-2.8971.1229-.8931.654-1.6874 1.4268-2.3702 2.2762 1.212.3962 2.5378.3143 3.8571-.3582-1.211.7823-2.634 1.0757-4.1543.7426a13.3798 13.3798 0 0 0-1.5112 2.5874c.4891.3606 2.6117 1.492 6.2525-1.1928-.5141-.152-.9307-.3668-.931-.3671.0117.0052.3753.0385 1.4387-.5985.9402-.5498 1.7489-1.5457 2.346-2.321-.508-.187-.9034-.3834-.9036-.3839-.0003-.0002.6563.0442 1.6747-.7354.9084-.6954 1.9225-1.7034 1.9256-1.675.0064.0061-2.237-1.6515-4.592-1.7242"/></svg>