<svg role="img" viewBox="0 0 24 24" xmlns="http://www.w3.org/2000/svg"><title>Trimble</title><path d="M2.346 18.338a9.4 9.4 0 0 0 4.925 2.82L2.346 24zm4.889-15.52a9.43 9.43 0 0 0-4.889 2.81V0zM23.132 12l-4.936 2.851a9.43 9.43 0 0 0 .014-5.693zM5.588 4.301a9.9 9.9 0 0 1 5.436-.615 4.5 4.5 0 0 0-2.488.828c-.776-.213-2.242-.369-2.948-.213m9.382 10.301c-2.429 1.828-6.317 1.322-8.681-.605a23 23 0 0 1 2.743-3.483c1.395 1.208 3.488 1.7 5.168.936.39 1.014.649 2.073.77 3.152m-9.974-.42a15.2 15.2 0 0 0-1.664 3.751C.241 14.859.031 9.863 2.852 6.54c-.667 2.393.06 5.506 2.144 7.642m8.824-3.636c-1.166.532-2.817.326-4.08-.723a19.5 19.5 0 0 1 2.4-1.865 11.3 11.3 0 0 1 1.68 2.588m-1.567-3.893a8.9 8.9 0 0 0-2.585-1.735c.934-.593 3.08-.629 4.414.72a8.7 8.7 0 0 0-1.829 1.015M5.756 14.88c2.463 1.937 6.418 2.59 9.288.881a7.2 7.2 0 0 1-.48 2.719 8.42 8.42 0 0 1-10.363.209c.139-.689.519-2.016 1.555-3.809m8.88-4.932a12.7 12.7 0 0 0-1.675-2.544 7.1 7.1 0 0 1 1.711-1.003c.699.945.884 2.587-.036 3.547m1.584-2.064c.86 1.87.898 4.207-.362 5.844a13.8 13.8 0 0 0-.799-2.822 3.39 3.39 0 0 0 1.161-3.022M9.059 9.096c-.778-1.049-1.018-2.402-.235-3.451.959.355 1.84.892 2.596 1.581a20 20 0 0 0-2.361 1.87m6.95 5.95a6.44 6.44 0 0 0 1.651-3.749 8.5 8.5 0 0 1-1.754 5.88q.148-1.061.103-2.131M7.844 5.347c-.868 1.347-.48 3.226.5 4.443a24 24 0 0 0-2.796 3.499c-1.925-2.141-2.693-5.575-1.04-7.92a6.8 6.8 0 0 1 3.336-.022"/></svg>