<svg role="img" viewBox="0 0 24 24" xmlns="http://www.w3.org/2000/svg"><title>Trip.com icon</title><path d="M4.295 8.43v6.505h-1.98V8.429H0V6.74h6.61v1.69H4.295zm5.809 2.291a1.848 1.848 0 0 0-.486-.057c-1.02 0-1.354.833-1.354 1.307v2.964H6.365V9.17h1.829v.834h.023c.29-.58.857-.996 1.563-.996.15 0 .312.011.405.046l-.081 1.667zm1.815-2.35c-.614 0-1.088-.474-1.088-1.041 0-.556.474-1.042 1.088-1.042.602 0 1.088.463 1.088 1.042 0 .59-.486 1.041-1.088 1.041zm-.95 6.564V9.17h1.899v5.765h-1.899zm7.073.162c-.707 0-1.39-.302-1.749-.8h-.022v3.415h-1.899V9.17h1.806v.706h.034c.348-.463.996-.868 1.842-.868 1.678 0 2.73 1.412 2.73 3.022 0 1.609-1.006 3.067-2.742 3.067zm-.452-4.538c-.856 0-1.388.753-1.388 1.481 0 .753.532 1.482 1.388 1.482.903 0 1.355-.74 1.355-1.492 0-.742-.452-1.47-1.355-1.47zm5.253 4.491c-.637 0-1.181-.486-1.181-1.123 0-.624.532-1.146 1.181-1.146.625 0 1.157.498 1.157 1.135 0 .636-.532 1.134-1.157 1.134z"/></svg>