<svg  role="img" viewBox="0 0 24 24" xmlns="http://www.w3.org/2000/svg"><title>Trusted Shops</title><path d="M12.00017 0C7.1464 0 2.77062 2.92402.91347 7.40844c-1.85715 4.48443-.8299 9.64603 2.6027 13.0777 3.4326 3.43166 8.59448 4.45751 13.0784 2.59914C21.07849 21.22691 24.00132 16.85034 24 11.99657c0-3.18226-1.26437-6.23412-3.51487-8.48401C18.23463 1.26267 15.18243-.00086 12.00017 0zm-.0991 19.52245c-4.17696 0-7.56305-3.38609-7.56305-7.56305 0-4.17696 3.3861-7.56305 7.56305-7.56305 4.17696 0 7.56305 3.3861 7.56305 7.56305-.0018 4.17569-3.38736 7.5598-7.56305 7.5598v.00325z"/><path d="M15.18709 14.33198c-1.10056 1.62606-2.62947 3.10803-4.68649 3.10803-2.17568 0-3.44249-1.36266-3.44249-3.56181 0-3.5618 2.62947-7.0519 6.3347-7.0519 1.2427 0 2.91635.50204 2.91635 2.00813 0 2.70118-4.2314 3.6094-6.31124 4.13555-.07172.4564-.14278.90822-.14278 1.362 0 .93235.50137 1.79297 1.52956 1.79297 1.33853 0 2.41235-1.29094 3.20321-2.24675l.59918.45378zm-1.1475-5.80855c0-.54963-.311-.97798-.88475-.97798-1.72124 0-2.60794 3.34665-2.9398 4.66106 1.60127-.47987 3.82455-1.79427 3.82455-3.68308z"/></svg>