<svg role="img" viewBox="0 0 24 24" xmlns="http://www.w3.org/2000/svg"><title>Tube Archivist</title><path d="M6.343 22.6128c-.0724.098-.1434.197-.2148.2957-.2366-.1767-.473-.3534-.7094-.5302.5362-.7468 1.0822-1.4895 1.6243-2.233l.7138.5242-.23.3157c1.4636.756 5.5912 2.365 10.0807-.5811.3891.5378.7864 1.0699 1.1676 1.6134-3.6155 2.601-8.4755 2.4749-12.4322.5953zm11.7872-3.2307.7163-.5202.2405.3116c.2818-.2827.3509-.361.6364-.699-1.1731-3.302-2.3441-6.6046-3.5158-9.907l-3.5472 9.9085-2.4373-.004 4.8737-12.883h2.2146c1.1059 2.9181 3.8926 10.3463 3.9177 10.3839 1.0217-2.579.8631-4.5153.4145-6.3227.7232-.2256 1.8583-.5417 1.9093-.551 1.4666 5.6363-1.1718 9.5802-3.2848 11.7037.0683.103.1439.201.2168.3007-.0404.0384-.6811.5096-.7205.5213-.5368-.7531-1.1035-1.4854-1.6342-2.2428zM.3673 10.0677c-.1116-.039-.23-.07-.3446-.1036.0798-.2825.1565-.5661.2438-.8465l2.6454.7492c-.0753.2686-.2357.8425-.2382.8526l-.3792-.1c-.5594 2.4833.3138 6.7128 3.6283 9.3415L4.754 21.575C-.1584 17.871.0146 12.424.3673 10.0678Zm13.4699 6.278c.2124-.2036.4152-.4173.6327-.6155l.951.9728.01-4.4808c.3097-.8917 1.3669-.6962 1.4934.0867l.006 4.3948.9782-.9722c.2113.2018.4188.4075.6275.612-.7894.7914-1.5837 1.578-2.3766 2.366-.773-.789-1.5477-1.5763-2.3222-2.3638zm-7.8704-2.9226h2.29v5.0533h-2.29Zm-.1162-1.9706 2.686.006c.9961.2773.717 1.4191-.094 1.5195l-2.652-.002c-.996-.1957-.9794-1.422.06-1.5235Zm.1162-3.8403H3.281c-.1972.3717-.3585.76-.5105 1.1518L.8571 8.2108l-.001-.002c.9406-2.4901 3.4918-6.9803 9.8121-7.823V0h.8867v2.772h-.8867v-.3874c-1.093-.0223-4.4375 1.3069-5.8464 3.0555l7.0689-.01c-.0054.7271.0008 1.454.012 2.1809H8.27c-.014 1.1305-.012 2.2612-.012 3.3918h-2.29c-.0012-1.1302-.0011-2.2604-.0011-3.3906zm14.6239.3444c.1747-.0608.3444-.0947.365-.1085-2.2285-4.442-6.6123-5.5502-8.3774-5.5551V.297c7.0074.367 9.8707 6.0252 10.3131 7.0002.1223-.0395.247-.0717.3705-.1075.0908.2794.1672.5665.2477.8502-.8934.2558-1.7883.512-2.6835.7635z"/></svg>