<svg role="img" viewBox="0 0 24 24" xmlns="http://www.w3.org/2000/svg"><title>Tubi</title><path d="M12.692 9.692h-1.615v3.693a1.846 1.846 0 1 1-3.692 0V9.923a.23.23 0 0 0-.231-.23H5.538v3.692a3.692 3.692 0 0 0 7.385 0V9.923a.23.23 0 0 0-.23-.23Zm-7.246 6.683-.7-1.202a.23.23 0 0 0-.292-.097 1.858 1.858 0 0 1-2.599-1.691v-1.616a.23.23 0 0 1 .231-.23h2.322a.23.23 0 0 0 .23-.231V9.923a.23.23 0 0 0-.23-.23H2.086a.23.23 0 0 1-.23-.231V7.154a.23.23 0 0 0-.231-.23H0v6.46a3.701 3.701 0 0 0 3.71 3.693c.587 0 1.143-.136 1.64-.379a.23.23 0 0 0 .096-.323zm17.63-9.452a.923.923 0 1 0 0 1.846.923.923 0 0 0 0-1.846zm.693 2.77h-1.615v7.153a.23.23 0 0 0 .23.23h1.385a.23.23 0 0 0 .231-.23V9.923a.23.23 0 0 0-.23-.23Zm-6.23 5.538a1.846 1.846 0 1 1 0-3.693 1.846 1.846 0 0 1 0 3.693zm0-5.539c-.543 0-1.057.116-1.521.328a.23.23 0 0 1-.326-.212V7.154a.23.23 0 0 0-.23-.23h-1.616v6.46a3.692 3.692 0 1 0 3.692-3.692z"/></svg>