<svg role="img" viewBox="0 0 24 24" xmlns="http://www.w3.org/2000/svg"><title>Tubi</title><path d="M12.6923 9.6923H11.077v3.6923a1.8462 1.8462 0 1 1-3.6923 0V9.9231a.2308.2308 0 0 0-.2308-.2308H5.5385v3.6923a3.6923 3.6923 0 0 0 7.3846 0V9.9231a.2308.2308 0 0 0-.2308-.2308Zm-7.2461 6.683-.6993-1.2022a.2308.2308 0 0 0-.293-.097 1.8577 1.8577 0 0 1-2.5985-1.6915v-1.6154a.2308.2308 0 0 1 .2308-.2307h2.3215a.2308.2308 0 0 0 .2308-.2308V9.923a.2308.2308 0 0 0-.2308-.2308H2.0862a.2308.2308 0 0 1-.2308-.2308V7.1538a.2308.2308 0 0 0-.2308-.2307H0v6.4615c0 2.04 1.6615 3.6923 3.7108 3.6923a3.7243 3.7243 0 0 0 1.6384-.3784.2308.2308 0 0 0 .097-.3231zm17.6307-9.4522a.923.923 0 1 0 0 1.8461.923.923 0 0 0 0-1.8461zm.6923 2.7692h-1.6154v7.1539a.2308.2308 0 0 0 .2308.2307h1.3846A.2308.2308 0 0 0 24 16.8462V9.923a.2308.2308 0 0 0-.2308-.2308Zm-6.2307 5.5385a1.8462 1.8462 0 1 1 0-3.6923 1.8462 1.8462 0 0 1 0 3.6923zm0-5.5385c-.5423 0-1.057.1154-1.5208.3277a.2308.2308 0 0 1-.3254-.2123V7.1538a.2308.2308 0 0 0-.2308-.2307h-1.6153v6.4615a3.6923 3.6923 0 1 0 3.6923-3.6923z"/></svg>