<svg role="img" viewBox="0 0 24 24" xmlns="http://www.w3.org/2000/svg"><title>TuneIn icon</title><path d="M7.5 11.5v.7c0 .1-.1.1-.1.1h-.8s-.1 0-.1.1v3.8c0 .1-.1.1-.1.1h-.8c-.1 0-.1-.1-.1-.1v-3.8s0-.1-.1-.1h-.8c-.1 0-.1-.1-.1-.1v-.7c0-.1.1-.1.1-.1h2.9v.1m15.6-7.6H12.3c-.6 0-.8.2-.8.8v2.4c0 .5 0 .5-.5.5H.8c-.7 0-.8.1-.8.9v10.6c0 .9.1 1 1 1h10.9c.5 0 .6-.2.6-.7v-2.6c0-.4 0-.4.4-.4h10.2c.6 0 .8-.1.8-.7V4.8c0-.7-.2-.9-.8-.9zM11.4 18.5c0 .5 0 .5-.5.5H1.4c-.3 0-.4-.1-.4-.4V9.1c0-.3.1-.4.4-.4h10v9.8zm7.7-5.9c0 .1-.1.1-.1.1h-2.5c-.1 0-.1-.1-.1-.1v-.7c0-.1.1-.1.1-.1h.6s.1 0 .1-.1v-3s0-.1-.1-.1h-.5c-.1 0-.1-.1-.1-.1v-.8c0-.1.1-.1.1-.1h2.3c.1 0 .1.1.1.1v.7c0 .1-.1.1-.1.1h-.5s-.1 0-.1.1v3s0 .1.1.1h.6c.1 0 .1.1.1.1v.8z"/></svg>