<svg role="img" viewBox="0 0 24 24" xmlns="http://www.w3.org/2000/svg"><title>TurboSquid icon</title><path d="M11.908.01C9.832.153 7.891 1.617 7.891 1.617s4.235-1.383 5.42.752c.861 1.552-.134 3.989-1.67 6.6-1.418-1.211-5.21-4.035-8.73-3.037C-1.528 7.188.43 13.177.43 13.177S.45 8.633 2.803 8.14c1.71-.358 3.673 1.364 5.629 3.664-1.566 1.005-5.367 3.815-5.526 7.545-.2 4.7 5.977 4.652 5.977 4.652s-4.224-1.424-3.955-3.863c.195-1.774 2.403-3.148 5.148-4.338.452 1.832 1.894 6.393 5.317 7.701 4.313 1.648 6.176-4.371 6.176-4.371s-2.628 3.664-4.817 2.648c-1.59-.738-2.188-3.309-2.447-6.343 1.844.127 6.535.136 8.81-2.785 2.868-3.682-2.158-7.354-2.158-7.354s2.597 3.688.977 5.5c-1.178 1.317-3.756 1.104-6.66.418.688-1.753 2.145-6.31.129-9.424C14.449.32 13.154-.074 11.908.01zm-1.265 2.487c-.547 0-1.097.072-1.557.162.78.292 1.413.754 1.861 1.362a3.578 3.578 0 01.647 1.523c.233-.536.406-1.024.523-1.475a1.254 1.254 0 00-.185-1.039 1.233 1.233 0 00-.93-.523c-.12-.007-.24-.01-.36-.01zm9.713 4.283c-.033.85-.264 1.606-.692 2.229a3.492 3.492 0 01-1.218 1.098 10.375 10.375 0 001.115.064c.142 0 .282-.002.418-.01a1.203 1.203 0 00.912-.502 1.283 1.283 0 00.197-1.064c-.164-.657-.458-1.303-.732-1.815zM3.362 9.626a1.23 1.23 0 00-1.143.803c-.245.628-.378 1.33-.451 1.91.785-1.018 1.825-1.582 2.967-1.582a3.438 3.438 0 01.494.035 9.569 9.569 0 00-1.211-.965 1.185 1.185 0 00-.656-.2zm12.953 8.547c.12.576.26 1.076.423 1.512a1.21 1.21 0 001.135.795 1.247 1.247 0 00.666-.202c.56-.362 1.071-.848 1.463-1.273a4.358 4.358 0 01-1.21.178 3.472 3.472 0 01-2.477-1.01zm-8.168.428a9.79 9.79 0 00-1.272.877 1.24 1.24 0 00-.449.95 1.269 1.269 0 00.451.981c.51.431 1.122.78 1.639 1.03-.464-.707-.71-1.46-.723-2.221a3.604 3.604 0 01.354-1.617z" stroke-width=".026"/></svg>