<svg viewBox="0 0 16 16" xmlns="http://www.w3.org/2000/svg" fill-rule="evenodd" clip-rule="evenodd" stroke-linejoin="round" stroke-miterlimit="1.414"><path d="M8 0C3.582 0 0 3.582 0 8s3.582 8 8 8 8-3.582 8-8-3.582-8-8-8zm0 13.892c-3.254 0-5.892-2.638-5.892-5.892 0-3.254 2.638-5.892 5.892-5.892 3.254 0 5.892 2.638 5.892 5.892 0 3.254-2.638 5.892-5.892 5.892zm.33-3.9c0-.918.744-1.663 1.662-1.663.92 0 1.664.744 1.664 1.662 0 .92-.745 1.664-1.664 1.664-.918 0-1.663-.745-1.663-1.664zm-3.986 0c0-.918.745-1.663 1.664-1.663.918 0 1.663.744 1.663 1.662 0 .92-.744 1.664-1.662 1.664-.92 0-1.664-.745-1.664-1.664zm0-3.984c0-.92.745-1.664 1.664-1.664.918 0 1.663.745 1.663 1.664 0 .918-.744 1.663-1.662 1.663-.92 0-1.664-.744-1.664-1.662zm3.985 0c0-.92.744-1.664 1.662-1.664.92 0 1.664.745 1.664 1.664 0 .918-.745 1.663-1.664 1.663-.918 0-1.663-.744-1.663-1.662z"/></svg>