<svg role="img" viewBox="0 0 24 24" xmlns="http://www.w3.org/2000/svg"><title>Twitter</title><path d="M21.59 7.162v.603c0 6.527-5.021 14.058-14.059 14.058-2.71 0-5.322-.803-7.531-2.209.402 0 .803.1 1.205.1 2.21 0 4.418-.702 6.126-2.108-2.11 0-4.017-1.406-4.62-3.415.703.1 1.507.1 2.21-.1-2.31-.502-3.917-2.51-3.917-4.82v-.1a4.578 4.578 0 0 0 2.21.602C1.003 8.367.401 5.455 1.706 3.145c2.51 3.113 6.226 4.92 10.142 5.122-.401-1.707.1-3.515 1.406-4.72 2.009-1.908 5.122-1.807 7.03.2 1.104-.2 2.209-.602 3.112-1.204-.401 1.105-1.104 2.109-2.209 2.711 1.004-.1 1.908-.401 2.812-.803a7.841 7.841 0 0 1-2.41 2.711z"/></svg>