<svg viewBox="0 0 16 16" xmlns="http://www.w3.org/2000/svg" fill-rule="evenodd" clip-rule="evenodd" stroke-linejoin="round" stroke-miterlimit="1.414"><path d="M6.743 11.252c.043-.036.086-.073.127-.112-.806.784-1.837 1.17-2.86 1.157h-.016c-1.03-.017-2.053-.438-2.83-1.263C.676 10.514.342 9.896.16 9.24v-.004C-.242 7.77.116 6.12 1.23 4.966c1.564-1.622 4.048-1.662 5.638-.137l.81.858.362.387 2.818 2.996.003.007c.002 0 .002.003.002.004.026.03.054.055.082.082.572.52 1.435.503 1.988-.07.58-.6.594-1.582.027-2.184h-.004c-.063-.068-.13-.127-.2-.178l-.167-.106c-.55-.296-1.25-.202-1.718.283-.07.072-.13.15-.183.23-.2.314-.278.686-.237 1.045L9.44 7.142 8.3 6c.19-.376.438-.73.743-1.046.07-.07.14-.14.212-.204-.043.036-.086.073-.127.112.806-.784 1.837-1.17 2.86-1.157h.016c1.03.017 2.053.438 2.83 1.263.488.52.822 1.138 1.004 1.795v.004c.403 1.465.045 3.117-1.07 4.27-1.564 1.622-4.048 1.662-5.638.137l-.81-.858-.362-.387L5.142 6.93l-.003-.007c-.002 0-.002-.003-.002-.004-.026-.03-.054-.055-.082-.082-.572-.52-1.435-.503-1.988.07-.58.6-.594 1.582-.027 2.184h.004c.063.068.13.127.2.178l.167.106c.55.296 1.25.202 1.718-.283.07-.072.13-.15.183-.23.2-.314.278-.686.237-1.045l1.014 1.04L7.7 10c-.19.376-.438.73-.743 1.046-.07.07-.14.14-.212.204z"/></svg>