<svg role="img" viewBox="0 0 24 24" xmlns="http://www.w3.org/2000/svg"><title>TypeORM</title><path d="M21.96 6.839c0 .9-.008 1.742.003 2.583.006.355.068.708.205 1.038.129.306.34.544.634.692.149.075.306.131.457.204a.13.13 0 0 1 .065.099q.008.58 0 1.16c0 .039-.051.097-.091.11a1.769 1.82 0 0 0-1.146 1.22c-.122.387-.133.785-.133 1.187q.002 2.24-.006 4.48c0 .466-.068.926-.219 1.363-.085.241-.22.463-.338.69-.015.031-.049.052-.078.073-.18.137-.355.287-.545.407-.164.103-.344.177-.52.255-.111.048-.23.082-.343.121q-.024.01-.049.014c-.224.028-.447.062-.67.083q-.407.033-.812.052c-.059.003-.119-.02-.178-.026-.101-.01-.126-.07-.124-.168a31.104 32 0 0 0 0-1.017c0-.104.026-.15.135-.141.114.007.233.012.345-.004q.323-.047.637-.125a2.916 3 0 0 0 .429-.153.914.94 0 0 0 .443-.409c.122-.208.18-.437.23-.676.055-.263.035-.52.038-.78.007-1.485 0-2.97.008-4.456q.003-.47.076-.935a2.09 2.15 0 0 1 1.061-1.585l.243-.143c.06-.037.053-.107-.015-.144a2.722 2.8 0 0 1-.793-.646 2.041 2.1 0 0 1-.38-.711c-.176-.551-.199-1.12-.197-1.694.002-1.446-.01-2.892 0-4.337a2.916 3 0 0 0-.07-.666c-.078-.37-.233-.712-.573-.909a2.236 2.3 0 0 0-.455-.177 2.916 3 0 0 0-.49-.11 3.888 4 0 0 0-.526-.025c-.109.001-.148-.03-.146-.147.007-.364.004-.728.002-1.092 0-.089.028-.122.114-.119.19.005.38-.007.568.004.265.016.53.035.793.073a3.013 3.1 0 0 1 1.555.714c.245.215.397.479.52.772.145.346.22.71.267 1.082.127.99.03 1.986.071 2.918ZM1.356 6.691c0-.581-.006-1.163.002-1.745.005-.382.008-.77.047-1.149.027-.263.107-.52.175-.778a1.75 1.8 0 0 1 .357-.723 2.4 2.4 0 0 1 .494-.449c.189-.127.405-.208.612-.305.165-.076.339-.108.515-.141a8.068 8.3 0 0 1 1.532-.125c.087 0 .118.027.117.117q-.004.558 0 1.118c0 .091-.028.126-.12.122a1.555 1.6 0 0 0-.313.003 7.776 8 0 0 0-.685.127c-.145.035-.283.094-.422.148a.914.94 0 0 0-.447.406c-.12.208-.179.44-.232.68-.066.3.007.588.002.882-.02 1.329-.006 2.658-.01 3.99a9.72 10 0 0 1-.05 1.098c-.078.724-.374 1.328-.996 1.727q-.169.103-.336.209c-.022.014-.05.049-.046.068a.136.14 0 0 0 .057.084 2.819 2.9 0 0 1 .82.678c.185.23.303.494.389.78.147.496.155 1.006.16 1.516.008 1.298.002 2.597.003 3.896 0 .144.014.288.012.431 0 .072-.024.143-.026.215q-.004.126.005.253c.003.052.02.104.028.156.042.301.134.583.327.817.128.153.295.252.481.321.196.072.399.1.599.149.24.058.472.044.71.054.064.003.088.03.088.093 0 .392.002.784-.004 1.176 0 .029-.052.081-.08.081-.245.005-.49.01-.734-.002a4.86 5 0 0 1-.66-.069c-.227-.044-.447-.122-.671-.186a2.09 2.15 0 0 1-.93-.572 1.847 1.9 0 0 1-.366-.54 4.082 4.2 0 0 1-.284-.87 4.86 5 0 0 1-.1-.964c-.015-1.423-.013-2.846-.022-4.268-.002-.322-.004-.645-.038-.964-.039-.36-.117-.712-.333-1.013a1.458 1.5 0 0 0-.607-.487c-.107-.048-.22-.083-.325-.137-.036-.02-.075-.075-.075-.115q-.006-.56-.003-1.118c0-.1.085-.118.151-.141.362-.13.657-.348.867-.684a1.993 2.05 0 0 0 .334-1.087c.022-.92.029-1.841.043-2.76h-.014Zm5.873.98v-3.11c0-.295.17-.472.459-.472h5.014c.288 0 .46.177.46.472v6.2c0 .32-.165.49-.475.49-1.662 0-3.32-.002-4.982.004-.28 0-.481-.197-.478-.493.007-1.03.003-2.06.003-3.091m.238.002v3.091c0 .208.034.242.233.242h4.982c.209 0 .24-.03.24-.244V4.579c0-.213-.032-.245-.238-.245h-4.98c-.204 0-.236.033-.236.247zm-.238 8.39v-3.1c0-.298.168-.474.458-.474h5.014c.292 0 .46.177.46.48v6.184q0 .499-.483.499H7.707c-.311 0-.475-.17-.475-.489zm.238.006v3.109c0 .189.038.228.221.228h5.004c.197 0 .23-.035.23-.239V12.97c0-.197-.037-.234-.227-.234H7.701c-.2 0-.233.035-.233.243zm8.507-4.058q-.002 2.09.002 4.184c0 .11-.03.143-.137.142a94.284 97 0 0 0-1.705 0c-.101 0-.117-.04-.117-.13 0-.093.03-.12.118-.12.486.004.972 0 1.458.004.105 0 .144-.031.144-.145q-.003-3.934 0-7.868c0-.112-.035-.147-.143-.146-.486.005-.972 0-1.458.004-.097 0-.119-.034-.119-.128 0-.09.023-.122.115-.121q.865.005 1.729 0c.093 0 .114.033.114.122q-.002 2.101 0 4.202m-5.743-6.336q-.996 0-1.991-.002c-.04 0-.106-.01-.11-.028-.012-.061-.004-.127 0-.191 0-.01.03-.02.05-.023q.04-.004.08-.002H12.2c.129 0 .188.088.133.208-.01.024-.064.036-.097.036q-.824.002-1.646.001zm.267 1.413c-.57 0-1.14-.004-1.711.003-.127 0-.115-.068-.12-.153-.007-.102.054-.097.12-.097h3.431c.066 0 .126-.004.12.097-.005.086.006.154-.12.153-.574-.008-1.146-.003-1.719-.003Zm.004 1.307c.574 0 1.147.002 1.72-.002.1 0 .115.041.116.13.001.093-.028.12-.116.12a717.336 738 0 0 0-3.441 0c-.09 0-.118-.029-.116-.121 0-.09.018-.13.117-.13q.862.005 1.72.003m-.008 1.797c-.57 0-1.142-.002-1.712.002-.091 0-.117-.03-.117-.122 0-.093.022-.128.12-.126q1.716.006 3.433 0c.095 0 .12.03.12.125.002.1-.03.124-.124.123q-.86-.003-1.72-.002M8.307 8.64h-.033c-.156 0-.197-.034-.143-.187.044-.129.18-.035.272-.055.027-.004.085.033.09.06.029.172.016.181-.185.181Zm.003-1.799h.033c.162 0 .2.031.144.19-.046.13-.182.034-.276.052-.023.006-.078-.038-.082-.064-.023-.177-.02-.177.18-.177Zm.002 3.351h-.05q-.2.001-.134-.2c.006-.02.037-.04.058-.042.059-.006.115-.002.172-.002.129 0 .185.086.131.208-.006.018-.04.03-.064.034-.037.006-.076.002-.114.002Zm1.92 3.638q.997.001 1.992-.002c.09 0 .117.027.117.12 0 .09-.017.13-.116.128a855.36 880 0 0 0-3.983 0c-.094 0-.123-.027-.123-.124s.03-.125.122-.125q.997.004 1.991.003m.265 1.658c-.57 0-1.14-.004-1.711.003-.131 0-.11-.076-.116-.156-.007-.097.05-.094.116-.094h3.439c.073 0 .123.005.116.103-.006.081.007.15-.116.148-.576-.006-1.152-.002-1.728-.002Zm0 1.551q-.856-.002-1.711.002c-.098 0-.117-.037-.118-.129 0-.091.028-.12.117-.12q1.72.004 3.44 0c.088 0 .118.027.116.12 0 .089-.015.13-.116.128q-.863-.004-1.727-.002Zm.008 1.309q.86.002 1.72-.002c.093 0 .117.033.117.122-.002.086-.015.127-.113.126a722.196 743 0 0 0-3.45 0c-.09 0-.113-.033-.11-.118.001-.08.005-.131.107-.13q.865.004 1.73.002M8.31 15.24h.024c.172 0 .194.013.153.185-.032.13-.157.042-.239.06-.042.008-.114.033-.124-.06-.02-.179-.016-.184.187-.184Zm-.003 1.554h.045c.136 0 .185.07.137.204-.006.019-.038.036-.06.038-.061.005-.121-.003-.182.003-.098.012-.129-.026-.13-.13-.003-.187.13-.087.19-.115m.002 1.798h-.05c-.131 0-.179-.067-.132-.202.006-.018.037-.038.06-.04.053-.006.108-.002.161-.002.141 0 .187.062.142.2-.006.02-.037.038-.059.042-.04.005-.082.001-.121.001Z"/></svg>