<svg role="img" viewBox="0 0 24 24" xmlns="http://www.w3.org/2000/svg"><title>Typeform</title><path d="M15.50184 13.03508c-.49959 0-.75614-.41135-.75614-.9166 0-.50523.25205-.89423.75614-.89423.51312 0 .75625.40687.75625.89423-.0045.51419-.26106.9166-.75625.9166Zm-4.88816-1.81083c.2925 0 .41408.16991.41408.31746 0 .35769-.3646.51418-1.12526.53654 0-.44265.25205-.854.71118-.854Zm-3.24084 1.81083c-.47261 0-.67067-.38452-.67067-.9166 0-.52759.20255-.89423.67067-.89423.47712 0 .70218.38005.70218.89423 0 .53654-.23406.9166-.70218.9166Zm-3.997-2.33395h-.73818l1.2243 2.8079c-.23405.51865-.36009.6483-.52213.6483-.17104 0-.33308-.1386-.45011-.25932l-.32408.42924c.22055.2325.52213.36663.83271.36663.3871 0 .68417-.22356.85521-.62596l1.41336-3.37127h-.72468l-.73818 2.01203-.82822-2.00755Zm19.55288.52312c.3601 0 .4321.24592.4321.8227v1.51572H24v-1.91366c0-.68855-.47265-.98812-.90926-.98812-.38703 0-.74263.24144-.9407.68855-.11255-.42922-.47265-.68855-.89123-.68855-.3646 0-.72921.2325-.92719.6662v-.62596h-.63918v2.85707h.63918v-1.22062c0-.61703.32405-1.11333.76516-1.11333.3601 0 .4276.24592.4276.8227v1.51572h.63918l-.0045-1.2251c0-.61702.32855-1.11332.76966-1.11332Zm-5.10015-.52312h-.32366v2.85707h.63909v-1.09543c0-.69303.30612-1.16251.76075-1.16251.11696 0 .216.00447.32405.04918l.09904-.67514c-.08102-.00894-.15302-.01789-.22511-.01789-.45003 0-.77417.30851-.96324.70645v-.66173h-.31092Zm-2.32673-.04472c-.84617 0-1.41786.64385-1.41786 1.4576 0 .84506.5807 1.47549 1.41786 1.47549.85078 0 1.43138-.64832 1.43138-1.47549-.0045-.81822-.59412-1.4576-1.43138-1.4576Zm-4.8522 2.37867c-.33307 0-.58061-.1699-.68415-.5142.84617-.03576 1.67441-.24143 1.67441-.98812 0-.42923-.42308-.87187-1.03072-.87187-.81924 0-1.37287.6662-1.37287 1.4576 0 .82716.54463 1.47548 1.35935 1.47548.56708 0 .92718-.22803 1.21077-.5589l-.31053-.42029c-.32865.33535-.53113.4203-.84627.4203ZM7.49886 10.6564c-.32407 0-.64815.18779-.77419.4829v-.43818h-.63916v3.97934h.63916v-1.42184c.13504.20567.4456.3398.72018.3398.85072 0 1.30083-.63043 1.30083-1.47995-.0045-.84058-.44562-1.46207-1.24682-1.46207ZM3.01574 9.5565H0v.62149h1.1793v3.3802h.67066V10.178h1.1658v-.6215Zm9.50187 1.14462h-.38263v.5723h.38263v2.28477h.63918v-2.28476h.62116v-.57231h-.62116V10.254c0-.28615.11706-.38452.38263-.38452.09894 0 .18896.02683.31053.06707l.144-.53654c-.11696-.06707-.35109-.0939-.5041-.0939-.61215 0-.97224.36664-.97224 1.00155v.39346Z"/></svg>