<svg role="img" viewBox="0 0 24 24" xmlns="http://www.w3.org/2000/svg"><title>typst</title><path d="M7.888 18.148c0 1.133.162 1.892.487 2.28.325.387.916.58 1.773.58.886 0 2.024-.446 3.412-1.34l.886 1.475c-2.6 2.175-4.741 3.263-6.425 3.263-1.684 0-3.014-.402-3.988-1.207-.975-.834-1.463-2.294-1.463-4.38V7.107H.355L0 5.453l2.57-.804v-2.19L7.888 0v4.917l5.229-.402-.488 2.905-4.741-.179v10.907Zm9.696 16.45h-.754c-.709-1.222-1.255-2.965-1.64-5.23l1.02-.626c.857.536 1.61.805 2.26.805 1.388 0 2.452-.641 3.19-1.922l1.507-3.532-6.78-15.958c-.354-.804-.665-1.31-.93-1.52-.266-.208-.769-.357-1.507-.446l-.31-1.654c2.363.238 4.062.357 5.096.357 1.034 0 2.88-.119 5.539-.357l-.177 1.564c-.06.03-.222.075-.488.134a8.47 8.47 0 0 0-.62.18 6.725 6.725 0 0 0-.532.133c-.413.179-.62.402-.62.67 0 .21.059.522.177.94l3.9 10.057 3.81-10.236c.09-.269.133-.522.133-.76 0-.537-.782-.894-2.348-1.073l-.089-1.565c1.448.209 2.659.313 3.634.313.975 0 2.585-.104 4.83-.313l-.31 1.654c-.71.03-1.211.164-1.507.403-.266.208-.546.655-.842 1.34L23.92 29.905c-1.329 3.13-3.441 4.694-6.336 4.694Zm31.593-12.472c1.152 0 2.127-.64 2.925-1.922.827-1.31 1.24-3.218 1.24-5.721 0-4.649-1.344-6.973-4.032-6.973-1.093 0-2.29.61-3.59 1.832v10.281a4.494 4.494 0 0 0 1.463 1.788c.65.477 1.314.715 1.994.715ZM49.266 35c-2.748-.268-4.61-.402-5.584-.402-.975 0-2.925.134-5.85.402l-.443-1.61c1.064-.238 1.832-.506 2.305-.804.472-.298.709-.76.709-1.385V8.895c0-1.013-.384-1.52-1.152-1.52l-2.039.269-.221-1.699c2.54-1.132 4.948-1.803 7.223-2.011l.93 1.028c0 .655.148 1.4.443 2.235l1.95-1.475c1.36-1.043 2.585-1.565 3.678-1.565 2.689 0 4.668.82 5.938 2.459 1.27 1.639 1.906 3.993 1.906 7.062 0 3.04-.96 5.588-2.88 7.644s-4.388 3.084-7.401 3.084c-.975 0-1.994-.328-3.058-.983v7.867c0 .566.237 1.013.71 1.34.679.299 1.565.537 2.658.716l.488.09-.31 1.564Zm18.068-12.74c.709 0 1.3-.223 1.772-.67.473-.447.71-.998.71-1.654 0-.685-.09-1.192-.267-1.52-.177-.357-.472-.685-.886-.983-.59-.477-1.433-.983-2.526-1.52-1.063-.536-1.905-.998-2.526-1.386-.59-.387-1.181-1.013-1.772-1.877-.561-.894-.842-1.922-.842-3.084 0-1.669.65-2.98 1.95-3.934 1.33-.983 2.969-1.475 4.918-1.475 1.95 0 4.166.343 6.648 1.028-.09 1.937-.34 3.576-.754 4.917l-1.772.402c-.71-2.86-2.053-4.29-4.033-4.29-1.33 0-1.994.789-1.994 2.368 0 .626.251 1.163.753 1.61.532.447 1.3.923 2.305 1.43 1.004.477 1.728.85 2.171 1.117.443.239 1.034.641 1.773 1.207C74.32 15.02 75 16.524 75 18.461c0 1.937-.739 3.412-2.216 4.425-1.477 1.014-3.427 1.52-5.85 1.52-2.392 0-4.49-.402-6.292-1.207-.059-.506-.088-1.386-.088-2.637 0-1.282.03-2.175.088-2.682l2.172-.492c.236 1.46.753 2.637 1.55 3.531.798.895 1.788 1.341 2.97 1.341Zm17.108-4.112c0 1.133.162 1.892.487 2.28.325.387.916.58 1.773.58.886 0 2.023-.446 3.412-1.34L91 21.143c-2.6 2.175-4.742 3.263-6.425 3.263-1.684 0-3.014-.402-3.989-1.207-.975-.834-1.462-2.294-1.462-4.38V7.107h-2.216l-.354-1.654 2.57-.804v-2.19L84.442 0v4.917l5.229-.402-.488 2.905-4.741-.179v10.907Z"/></svg>