<svg role="img" viewBox="0 0 24 24" xmlns="http://www.w3.org/2000/svg"><title>Udemy icon</title><path d="M23.58 13.38a.66.66 0 0 0-.28-.14c-.6.61-1.35 1.25-2 1.68-.31.2-.7.3-.95.3-.59 0-.84-.55-.91-1.44a54.8 54.8 0 0 1-.17-4.83c0-2.26-.52-3.8-1.88-3.92l-.18-.01c-.83 0-1.24.43-1.77 1.52-.46.94-1.17 2.3-2.48 4.9a34.72 34.72 0 0 1-3.5 5.58c-.31.38-.55.64-.78.8a.8.8 0 0 1-.44.14c-.43 0-.75-.36-.85-1.21a5.46 5.46 0 0 1-.04-.69c0-1.75.66-4.6 1.8-8.78.83-3.05.48-5.13-1.34-5.13h-.03c-.41 0-.75.16-1.08.42-.33.25-.65.81-.96 1.56-.34.84-2.42 5.03-5.74 7.2-.04.81.42 1.63 1.37 1.73.85.08 1.46-.28 2.24-.81l-.16.73a31.56 31.56 0 0 0-.5 2.6c-.46 4.2 1.47 6.27 3.74 6.27.38 0 .76-.05 1.13-.15 2.5-.63 4.9-3.51 7.75-10.13a18.8 18.8 0 0 0-.01 2.02c.19 3.8 1.68 4.93 3.8 4.93 1.6 0 3.09-.83 3.85-1.87a3.7 3.7 0 0 0 .79-2.19c-.02-.49-.17-.88-.42-1.08z"/></svg>