<svg viewBox="0 0 24 24" xmlns="http://www.w3.org/2000/svg"><title>UFC icon</title><path d="M6.333 7.527h2.795s-1.858 6.639-1.95 6.998c-.176.69-.352 1.316-2.041 1.316-2.035 0-3.218-.007-3.774 0-.697.007-1.52-.633-1.295-1.464l1.908-6.85h2.85s-1.597 5.71-1.632 5.857c-.029.148-.19.557.697.564.64.014.69-.155.802-.564.268-.922 1.64-5.857 1.64-5.857zm10.264 0l-.507 1.824h-6.082l.507-1.824zM8.2 15.841l1.457-5.244h6.082l-.507 1.823h-3.259l-.95 3.421zm11.46-5.385c-.26.957-.492 1.774-.753 2.738-.05.17-.162.416-.127.57.078.367 1.289.226 1.725.226h1.943c-.155.612-.33 1.21-.5 1.81h-4.625c-.676-.064-1.556-.353-1.471-1.226.028-.274.155-.584.24-.887.415-1.485.837-3.006 1.238-4.463.176-.648.317-1.197.83-1.457.332-.17.86-.218 1.254-.24h4.597c-.162.606-.331 1.211-.5 1.81h-2.64c-.317 0-.669-.036-.845.084-.19.141-.295.775-.366 1.035z"/></svg>