<svg role="img" viewBox="0 0 24 24" xmlns="http://www.w3.org/2000/svg"><title>Umami</title><path d="M23.159 8.61H.858a.841.841 0 0 0-.841.842v.858c-.01.2-.016.398-.016.6 0 6.627 5.372 12 12 12 6.527 0 11.837-5.212 11.996-11.701 0-.025.004-.05.004-.075V9.452a.841.841 0 0 0-.842-.841zm-11.15-7.52C6.41 1.09 1.86 5.642 1.86 11.24c0 5.598 4.55 10.148 10.149 10.148 5.599 0 10.149-4.55 10.149-10.149 0-5.598-4.55-10.148-10.149-10.148zm0 1.122a9.02 9.02 0 0 1 9.028 9.028 9.02 9.02 0 0 1-9.028 9.028 9.02 9.02 0 0 1-9.028-9.028 9.02 9.02 0 0 1 9.028-9.028z"/></svg>