<svg role="img" viewBox="0 0 24 24" xmlns="http://www.w3.org/2000/svg"><title>UML</title><path d="m11.527 10.792 4.392-2.198v9.184l6.073-2.775.024 3.432-10.477 4.964-.012-12.607ZM2.758 19.52v-7.564l1.506 8.169 2.451 1.179 1.576-6.794v7.433l2.769 1.31V10.71L6.855 8.796l-1.331 5.982-1.342-7.217L0 5.635v12.552l2.758 1.333ZM24 16.917a.6.6 0 0 1-.607.599.603.603 0 0 1-.613-.599c0-.335.274-.589.613-.589.339 0 .607.262.607.589Zm-1.051.003a.443.443 0 1 0 .885 0 .443.443 0 1 0-.885 0Zm.359.292h-.154v-.566c.046-.006.131-.018.236-.018.12 0 .172.018.21.041a.14.14 0 0 1 .064.123c0 .058-.052.108-.125.131v.006c.058.02.09.067.108.143.017.085.032.117.041.137h-.172c-.018-.02-.03-.07-.041-.131-.012-.059-.041-.085-.105-.085h-.059v.213l-.003.006Zm.003-.324h.059c.067 0 .116-.023.116-.073 0-.049-.038-.079-.108-.079-.029 0-.049.003-.067.003v.149ZM9.838.601 6.432 2.125s5.819 2.585 6.508 2.903c.685.318 1.657.899.537 1.547-1.121.648-2.303.452-3.097.085-.793-.365-6.659-3.094-6.659-3.094L.242 5.139s6.079 2.787 7.03 3.245c.952.458 4.515 1.696 8.055.003 3.54-1.692 3.096-2.448 3.102-2.588.006-.14-.032-.885-.598-1.392-.569-.508-2.259-1.308-2.971-1.646-.712-.339-5.02-2.16-5.02-2.16h-.002Z"/></svg>