<svg role="img" viewBox="0 0 24 24" xmlns="http://www.w3.org/2000/svg"><title>Under Armour</title><path d="M15.9545 12.0003c-.0894.0657-.1958.142-.3248.233-.8252.5845-2.023.985-3.58.985h-.1035c-1.5558 0-2.7548-.4005-3.58-.985a36.4301 36.4301 0 01-.3242-.233c.09-.0674.1964-.1437.3242-.2343.8252-.5838 2.0236-.9849 3.58-.9849h.1035c1.5575 0 2.756.401 3.58.985.129.0905.2354.1668.3253.2342M24 7.181s-.7087-.5412-2.95-1.3647c-1.968-.7217-3.4517-.8837-3.4517-.8837l.006 4.2437c0 .5974-.1627 1.1428-.6188 1.7645-1.6717-.6092-3.2535-.9843-4.9808-.9843-1.7273 0-3.3079.3745-4.9802.9843-.4566-.6187-.6187-1.1677-.6187-1.7645l.0065-4.2437s-1.4942.1597-3.4635.8837C.7087 6.6421 0 7.181 0 7.181c.0929 1.926 1.7794 3.638 4.4354 4.8193C1.777 13.1798.0905 14.8882 0 16.819c0 0 .7087.5407 2.9488 1.3647 1.968.7217 3.4534.8837 3.4534.8837l-.007-4.2443c0-.5974.1638-1.1428.6187-1.764 1.6723.6093 3.2523.9832 4.9802.9832 1.7273 0 3.3085-.3745 4.9808-.9831.4566.6193.6187 1.167.6187 1.764l-.0059 4.2442s1.4842-.1609 3.4522-.8837c2.2414-.8252 2.95-1.3647 2.95-1.3647-.0928-1.9267-1.7793-3.6392-4.4353-4.8187 2.6578-1.1819 4.3437-2.8885 4.4353-4.8199"/></svg>