<svg role="img" xmlns="http://www.w3.org/2000/svg" viewBox="0 0 24 24"><title>Unicode icon</title><path d="M22.25 3.03A1.75 1.75 0 0 0 20.5 4.78A1.75 1.75 0 0 0 22.25 6.53A1.75 1.75 0 0 0 24 4.78A1.75 1.75 0 0 0 22.25 3.03M.203 4.07C.067 4.07 0 4.14 0 4.3V14.5C0 15.58 .151 16.54 .455 17.35C.759 18.16 1.2 18.83 1.77 19.36C2.35 19.9 3.04 20.3 3.85 20.57C4.66 20.84 5.57 20.97 6.56 20.97C7.5 20.97 8.36 20.85 9.19 20.6A5.5 5.5 0 0 0 11.3 19.44C11.9 18.91 12.36 18.22 12.71 17.39C13.06 16.55 13.23 15.54 13.23 14.36V7.94C13.37 8.24 13.53 8.57 13.73 8.96C14.07 9.65 14.46 10.42 14.9 11.26A303.56 303.56 0 0 0 17.73 16.5C18.19 17.36 18.62 18.13 19 18.84C19.38 19.55 19.68 20.12 19.9 20.54C19.96 20.66 20.07 20.72 20.23 20.72H23.44C23.61 20.72 23.7 20.65 23.7 20.5V8.45C23.7 8.3 23.62 8.23 23.47 8.23H21.04C20.88 8.23 20.81 8.29 20.81 8.43V12.71C20.81 13.3 20.81 13.81 20.82 14.23C20.83 14.65 20.84 15 20.85 15.31C20.85 15.6 20.86 15.86 20.87 16.07C20.88 16.28 20.89 16.47 20.89 16.64H20.86C20.71 16.32 20.5 15.87 20.19 15.29C19.89 14.72 19.55 14.06 19.16 13.33A352.25 352.25 0 0 0 17.91 11L16.58 8.53C16.14 7.72 15.71 6.94 15.3 6.2A294.85 294.85 0 0 1 14.22 4.25.387.39 0 0 0 14.12 4.11C14.08 4.08 14 4.07 13.92 4.07H10.34C10.22 4.07 10.16 4.13 10.16 4.25L10.17 4.25C10.17 4.27 10.16 4.28 10.16 4.3V14.21C10.16 15 10.07 15.63 9.9 16.14C9.72 16.66 9.47 17.07 9.16 17.39C8.85 17.7 8.5 17.92 8.06 18.06A4.54 4.54 0 0 1 6.67 18.26C5.45 18.26 4.55 17.9 3.96 17.17C3.36 16.45 3.07 15.47 3.07 14.26V4.27C3.07 4.13 3 4.07 2.86 4.07H.203Z"/></svg>
