<svg role="img" viewBox="0 0 24 24" xmlns="http://www.w3.org/2000/svg"><title>Unilever</title><path d="M21.308 5.24c-.124 0-.303 0-.4-.197-.08-.16-.054-.419-.205-.533.151.043.31.043.437.043.402 0 .786-.275 1.08-.275.195 0 .257.125.257.25 0 .391-.792.712-1.169.712m.198 1.008c.926 0 1.774-.74 1.774-1.39 0-.305-.144-.553-.51-.598.064.08.09.143.09.286 0 .49-.748 1.035-1.56 1.035-.295 0-.383.205-.383.312 0 .249.24.355.59.355m-.075.374c.117.847 1.401 1.989 1.748 1.963.233-.02.322-1.106.322-1.963 0-.49.027-.873-.23-.962-.412.83-1.49.998-1.84.962M1.364 12.231c.303 0 .241-1.854.731-1.854.116 0 .15.116.15.258 0 .42-.203 1.034-.203 1.374 0 .17.043.222.124.222.215 0 .59-2.042.955-2.042.117 0 .17.117.17.232 0 .429-.544 1.659-.544 2.006 0 .053.017.098.06.098.224 0 .671-.962.812-1.444.08-.25.188-.384.286-.384.09 0 .17.098.17.304 0 .48-.447 1.614-.837 2.371-.304.588-.775 1.437-.775 1.908 0 .24.043.491.39.794-.57-.036-.803-.089-1.017-.535-.952 1.899 1.757 1.71.829 3.397-.168-.303-1.505-.615-1.505-2.381 0-1.525 1.337-2.417 1.337-3.05a.4.4 0 0 0-.16-.329c-.295-.25-.305-.454-.536-.454-.17 0-.375.392-.16.74.071.114.133.185.133.294 0 .248-.392.918-.667.918-.277 0-.49-.687-.49-1.792 0-.982.22-1.971.498-1.971.08 0 .107.053.107.125 0 .116-.036.347-.036.74 0 .42.098.455.178.455m2.274 2.612c.374 0 .685-.278.685-.89v-.911c0-.347.028-.738.26-1.017-.026.117-.026.242-.026.357 0 .767.428 1.294.428 2.034 0 .275-.081.427-.295.427-.204 0-.186-.187-.23-.187-.036 0-.09.115-.09.24 0 .188.134.482.506.482.322 0 .58-.294.58-.624 0-.802-.623-1.693-.623-2.55 0-.375.098-.624.179-.82 0 1.773 1.506 3.068 1.506 3.806a.3.3 0 0 1-.312.305.29.29 0 0 1-.304-.287c0-.061-.01-.08-.035-.08-.054 0-.214.179-.214.411 0 .293.24.65.686.65.509 0 .786-.428.786-.811 0-.935-1.83-2.354-1.83-3.869 0-.26.046-.677.233-1-1.177.758-1.542 1.767-1.542 2.648 0 .768-.027 1.15-.42 1.15-.204 0-.257-.187-.328-.187-.054 0-.082.16-.082.207 0 .329.242.516.482.516m13.507-10.04c.114-.075.617.046 1.267-.276a.5.5 0 0 1 .23-.063c.313 0 .233.358.52.358.22 0 .509-.187.678-.187.265 0 .65.838.65 1.229 0 .456-.685.732-1.499.732-1.184 0-1.899-1.034-1.899-1.703 0-.054.027-.07.053-.09m1.945 1.133c.392 0 .687-.178.687-.285 0-.036-.053-.063-.17-.063a5 5 0 0 1-.785-.08c-.375-.063-.66-.204-.766-.204Q18 5.306 18 5.348c0 .233.428.588 1.09.588M3.824 18.203c-.295.073-.768.536-.768 1.268 0 .873.936 2.22 2.48 2.22 1.3 0 1.622-.9 1.622-1.507 0-1.347-.83-2.29-1.907-2.29-.59 0-1.116.427-1.116 1.06 0 .588.446 1.47 1.507 1.47.5 0 .793-.356.793-.765 0-.403-.365-.954-.9-.954-.161 0-.276.105-.276.275 0 .213.294.43.66.43.09 0 .16-.02.196-.037a.2.2 0 0 1 .027.107c0 .204-.198.33-.5.33-.455 0-.892-.34-.892-.874 0-.32.277-.554.677-.554.794 0 1.268.705 1.268 1.41 0 .633-.349 1-1.06 1-1.429 0-2.124-1.286-1.812-2.589M14 23.428c.43 0 .406-.036.54-.036s.143.08.143.136c0 .195-.437.436-1.212.436-.456 0-.73-.241-.813-.508-.446.285-1.121.544-1.79.544-1.828 0-2.292-.794-2.863-1.051-.437-.197-1.106.186-2.04-.858a2.2 2.2 0 0 0 .425.036c.82 0 1.257-.4 1.257-1.043 0-.078-.008-.168-.018-.247.251.098.821.524.955 1.28.018.092.385.17.616.17.32 0 .73-.132.793-.658 1.07-.09 1.793-.721 1.944-1.526.383.125.82.472.927.65q.227-.08.536-.079c.285 0 .604.054.988.17.018-.116.036-.26.216-.26.265 0 .195.297.283.466.045.088.27.14.27.32 0 .17-.145.232-.234.232a.4.4 0 0 1-.107-.017c-.177.06-.186 1.346-.937 1.346-.55 0-1.06-.456-1.283-1.024-.062-.172-.195-.278-.32-.278-.144 0-.223.027-.392.213a3.1 3.1 0 0 1-2.274.98c-.303 0-.544-.026-.606-.026-.035 0-.035.008-.035.02 0 .06.302.302.96.302 1.57 0 1.955-.884 2.203-.884.038 0 .143 0 .204.143.367.856 1.166 1.05 1.664 1.05m-.69-1.78c0 .195.16.357.357.357a.358.358 0 0 0 0-.714.36.36 0 0 0-.356.356m7.06-4.45c-.125 0-.26.1-.26.341 0 .266.207.435.323.49.062.034.16.07.257.07.258 0 .465-.07.465-.287 0-.273-.402-.614-.785-.614m-.962.553c-.188 0-1.223 1.383-1.89 1.383-.16 0-.294-.303-.294-.533 0-.127.08-.217.365-.278 1.533-.349 1.194-1.498 2.505-1.498.721 0 1.524.49 1.524 1.595 0 1.178-1.674 2.639-1.924 2.639-.206 0-.429-.293-.429-.49 0-.06.026-.142.205-.214.855-.34 1.345-1.124 1.345-1.524 0-.09-.044-.18-.16-.18-.151 0-.8 1.481-1.524 1.481-.5 0-1.007-.455-1.007-.667 0-.358 1.445-1.019 1.445-1.517 0-.189-.09-.197-.16-.197M1.765 6.061s-.26.195-.58.195A.67.67 0 0 1 .5 5.57a.75.75 0 0 1 .472-.705c-.008.053-.008.098-.008.151 0 .51.285.894.802 1.044m1.907 1.712c-.195.232-.4.625-.4 1.025 0 .48.294.884.75.884.436 0 .64-.375.64-.76 0-.596-.544-1.016-.99-1.15m-2.96.358a.2.2 0 0 0-.025.098c0 .08.09.17.169.17.07 0 .116-.02.153-.02.213 0 .452.152.801.152.204 0 .447-.062.75-.213.642-.32.891-1.115.891-1.248 0-.17-.137-.148-.249-.304-.114-.156-.071-.292-.144-.366-.04-.042-.168-.043-.328-.061a2 2 0 0 0-.197-.01 1.8 1.8 0 0 0-1.036.285c-.774.495-.66 1.31-.784 1.517m2.095-1.106c.063.083.234.187.234.251 0 .124-.073.284-.215.284-.313 0-.561-.473-.561-.739 0-.17.097-.189.23-.189.064 0 .09.01.134.036.08.044.08.222.178.357m-.82 1.088c-.293 0-.615-.366-.615-.697 0-.177.133-.4.232-.4.036 0 .054.027.062.09.055.435.34.686.608.81.027.018.044.027.044.046 0 .06-.17.15-.33.15m.758-2.247c.045-.143.08-.32.08-.516 0-.429-.197-1.079-.803-1.079a.594.594 0 0 0-.598.606c0 .706.705.989 1.32.989M.437 9.43c0 .678.206 1 .573 1 .283 0 .667-.207 1.122-.6-.348.083-.616.136-.856.136-.32 0-.57-.125-.838-.536m.312-.793q-.01.068-.007.134c0 .418.222.65.515.65.222 0 .482-.135.713-.428a2 2 0 0 1-.32.027c-.33 0-.686-.09-.9-.383m2.184-.126c-.204.055-.632.304-.632.75 0 .32.248.526.56.526a.6.6 0 0 0 .347-.09 1.04 1.04 0 0 1-.338-.775c0-.188.027-.302.063-.41m.321-2.445c0 .197.16.359.356.359a.36.36 0 0 0 .357-.36.357.357 0 0 0-.713 0m.462.804a.36.36 0 0 0 .358.358c.195 0 .357-.16.357-.358a.357.357 0 0 0-.715 0m13.91 4.378c0-.177.16-.329.339-.329a.34.34 0 1 1 0 .678.34.34 0 0 1-.338-.349m-3.13-2.746a.357.357 0 0 0 .713 0 .357.357 0 0 0-.714 0m-.302 1.257c0 .278.231.509.508.509a.513.513 0 0 0 .508-.509.513.513 0 0 0-.508-.507.51.51 0 0 0-.508.507m1.124-.57a.54.54 0 0 0 .543.543.54.54 0 0 0 .544-.543.54.54 0 0 0-.544-.543.54.54 0 0 0-.543.543m.046-1.16c0 .189.15.34.336.34a.34.34 0 1 0 0-.677.337.337 0 0 0-.336.338m1.611-.856a.34.34 0 1 0 .68 0 .34.34 0 0 0-.68 0m-.669 1.098c0 .312.26.57.572.57.313 0 .57-.258.57-.57a.574.574 0 0 0-.57-.57.575.575 0 0 0-.572.57m-.918 2.087a.357.357 0 0 0 .713 0 .36.36 0 0 0-.357-.358.36.36 0 0 0-.356.358m1.168-.716a.356.356 0 1 0 .712.001.356.356 0 0 0-.712 0m-.33 1.258c0 .338.277.615.616.615a.617.617 0 0 0 .616-.615.616.616 0 0 0-1.231 0m1.284-.758a.42.42 0 1 0 .838 0 .42.42 0 0 0-.838 0m-.027-1.124c0 .206.172.374.374.374a.377.377 0 0 0 .374-.374.377.377 0 0 0-.374-.374.377.377 0 0 0-.374.374m.908 11.697a2.62 2.62 0 0 1-1.675.58c-.482 0-.696-.151-.767-.151-.09 0-.188.089-.286.204-.212.25-.489.715-.489 1.222 0 .358.277.713.793.713 1.669 0 2.915-1.042 2.915-1.89 0-.48-.285-.678-.49-.678m-.462-.097c.07-.063.088-.16.088-.259v-.205c0-.259-.392-.41-.928-.41-.651 0-.998.295-.998.42v.408c0 .17.392.34.873.34.384 0 .733-.098.965-.294m-.073.883c.044 0 .098.026.098.188 0 .195-.09.455-.41.658-.224.152-.526.278-.972.285a2.1 2.1 0 0 0 .125-.65c0-.072-.009-.125-.018-.204h.117c.705 0 1.008-.277 1.06-.277m-3.407-10.895c.098.757 1.117.374 1.117 1.29 0 .135-.035.332-.035.5 0 .198.017.367.167.367s.187-.106.187-.25c0-.142-.036-.32-.036-.418 0-.314.223-.385.358-.385.338 0 .597.349 1.106.349-.117.57-1.294.418-1.294 1.042 0 .312.312.384.517.384.19 0 .25-.027.25-.187 0-.09-.017-.187-.017-.251a.07.07 0 0 1 .071-.071c.195 0 1.158.732 1.158.954 0 .205-1.016.41-1.31.41-.09 0-.108-.062-.108-.096 0-.063.152-.25.152-.358 0-.08-.134-.133-.49-.133-.17 0-.294.017-.294.151 0 .241.393.536.393.758 0 .178-.108.286-.393.286-.242 0-.606-.188-.606-.5 0-.25.258-.499.258-.65 0-.045-.034-.116-.142-.116-.33 0-.42.873-1.588.97.188-.168.349-.356.349-.74 0-.186-.045-.339-.045-.543 0-.268.124-.402.302-.402.33 0 .49.464.706.464.117 0 .24-.106.24-.267 0-.678-1.301-.58-1.301-1.534 0-.259.089-.579.328-1.024m4.254 2.611c0 .223.071.481.294.481.188 0 .348-.285.348-.597 0-.355-.062-.633-.062-.775 0-.062.027-.09.062-.09.134.01.26.376.404.376.16 0 .398-.295.496-.295.027 0 .035.035.035.045 0 .133-.204.428-.204.543 0 .098.517.116.517.206 0 .134-.542.134-.801.25-.25.106-.403.24-.403.42 0 .176.18.212.43.212.596 0 1.014-.32 1.148-.32.028 0 .043.018.043.043 0 .09-.301.383-.301.52 0 .15.553.326.543.417q-.012.037-.106.035c-.098 0-.25-.026-.367-.026-.07 0-.132.01-.16.044-.062.07.019.544-.106.544-.117 0-.42-1.052-1.105-1.052-.098 0-.17.08-.17.215 0 .355.348.766.68.962.15.097.399.196.399.25 0 .106-.568.008-.568.186 0 .162.07.403.07.545 0 .045-.01.098-.063.098-.106 0-.367-.49-.49-.49-.108 0-.34.293-.438.293-.027 0-.045-.026-.045-.053 0-.206.33-.668.33-1.123 0-.214-.026-.677-.285-.677-.214 0-.455.338-.562.677-.062.196-.017.954-.16.954-.135 0-.1-.508-.277-.508-.132 0-.419.241-.516.241-.018 0-.036-.01-.036-.028 0-.107.259-.454.259-.526 0-.133-.589-.15-.589-.258 0-.063.23-.106.446-.143.454-.08 1.122-.41 1.122-.874 0-.517-.498-.74-.827-.953-.17-.107-.357-.196-.357-.267s.214-.071.304-.071c.133 0 .265-.01.265-.117 0-.08-.018-.24-.018-.365 0-.09.01-.16.047-.16.13 0 .32.436.408.436.142 0 .34-.356.472-.356.045 0 .063.027.063.107 0 .329-.17.703-.17 1.025m-3.992 2.47c.41.052.507.196.507.31 0 .197-.179.26-.349.26-.124 0-.265-.027-.419-.027-.195 0-.391.044-.552.233.117.016.286.097.286.276 0 .517-1.437.09-1.437 1.416 0 .705.73 1.471 1.837 1.471.572 0 .939-.186.939-.4 0-.17-.305-.054-.305-.196 0-.062.107-.178.107-.277 0-.043-.036-.124-.107-.124-.16 0-.464.259-1.079.259-.481 0-.953-.276-.953-.65 0-.083.035-.127.088-.127.054 0 .126.036.189.036.052 0 .06-.036.06-.134 0-.097 0-.375.17-.375s.491.626 1.723.626c.409 0 1.201-.08 1.496-.348-.009.979-.776 2.272-2.38 2.272-1.668 0-2.56-1.336-2.56-2.568a2.624 2.624 0 0 1 2.64-2.602c.391 0 .723.133.723.302 0 .233-.58.09-.625.366m2.737.473a.53.53 0 0 1 .09.285c0 .25-.17.48-.17.739 0 .296.223.536.563.536.364 0 .614-.293.614-.642 0-.472-.43-.874-1.097-.918m-2.95.57a.36.36 0 0 1 .114.269c0 .133-.063.275-.063.428 0 .212.162.4.393.4.25 0 .42-.197.42-.428 0-.34-.349-.67-.866-.67m1.186-1.515c.936.178 1.444.883 1.444 1.544 0 .454-.284.872-.783.872-.456 0-.783-.31-.783-.81 0-.375.29-.767.29-1.152a.68.68 0 0 0-.17-.454m.465 1.187c0 .126.09.223.216.223.142 0 .23-.126.23-.268 0-.187-.169-.447-.33-.447-.071 0-.045.107-.062.223-.01.09-.054.197-.054.269M6.304 7.228c.304 0 .65-1.64.65-1.918 0-.07-.025-.125-.088-.125-.275 0-.66 1.561-.66 1.91 0 .061.017.133.098.133m2.184.49c.222 0 .474-.855.474-1.39 0-.117-.018-.24-.071-.24-.189 0-.5.882-.5 1.361 0 .189.044.27.097.27m-1.453-.793c.1 0 .224-.107.455-.366.018-.116.018-.223.018-.358 0-.177-.071-.374-.178-.374-.268 0-.401.714-.401.9 0 .106.053.198.106.198m1.222-.366c0-.152-.037-.187-.072-.187-.09 0-.188.106-.33.346.018.322.072.464.16.464.1 0 .242-.313.242-.623m.687-1.053c.587 0 .855.51.855 1.079 0 .248-.071.615-.187.615s-.098-.204-.116-.393c-.017-.24-.062-.293-.143-.293-.151 0-.25.355-.25.686 0 .205.036.437.196.437a.32.32 0 0 0 .224-.099c-.035.41-.34.768-.768.768-.784 0-1.078-.918-1.168-1.454-.472.5-.908.866-1.694.866-.73 0-1.06-.536-1.06-1.044 0-.152.054-.544.24-.544.223 0 .028.732.465.732.106 0 .302-.09.408-.384.063-.18.1-.365.1-.526 0-.24-.054-.392-.233-.392-.15 0-.338.115-.401.178.214-.643.732-.97 1.303-.97.703 0 1.077.622 1.077 1.318 0 .097-.007.205-.025.303.302-.498.721-.883 1.177-.883M7.277 7.906c-.384 0-.402.465-.402 1.4-.284-.615-.758-1.275-1.31-1.275-.376 0-.517.25-.517.685 0 .091.008.224.025.305.046-.15.188-.214.366-.214.384 0 .847.293 1.15.695-.348-.062-.687-.125-.97-.125-.18 0-.34.018-.473.08-.26.116-.607.5-.607 1.08q0 .134.027.295c.31-.697 1.14-1.01 1.675-1.01.107 0 .187.01.248.02-.274.249-.336.686-.354.98-.009.142-.063.152-.162.152 0 .293.233.73.233.952 0 .083-.044.154-.089.172 0 .39.392.677.392.926 0 .062-.02.116-.046.143.026.16.46.43.516.566.07.164.146.192.19.192.152 0 .391-.178.391-.34 0-.053-.044-.115-.08-.142-.168-.124-.258-.393-.33-.57-.062 0-.142-.025-.17-.13-.05-.186-.051-.53-.123-.734-.115-.028-.168-.072-.168-.313 0-.116.07-.57.07-.732-.053 0-.124-.036-.124-.142 0-.285.284-.51.364-.873.509.375.632.757.632 1.096 0 .178-.025.348-.061.508.374-.187.936-.464.936-1.025 0-.33-.152-.696-1.16-.84a3.2 3.2 0 0 1 1.035-.177c.57 0 .9.177.97.58.119-.177.208-.384.208-.572 0-.436-.367-.72-.83-.72-.544 0-1.025.284-1.541.632.23-.48.39-.766.676-.766.045 0 .09.01.133.018-.106-.393-.507-.777-.72-.777m15.022 6.428c.446 0 .802.58.802 1.258 0 .721-.34 1.507-.943 2.041-.01-1.201-1.482-.82-1.482-1.693 0-.374.267-.624.59-.624q.426 0 .668.24a.8.8 0 0 1-.242-.571c0-.338.216-.65.607-.65m-7.962-8.471c.233.224.437.32.686.32.1 0 .215-.024.279-.024.079 0 .134.035.134.096 0 .1-.091.26-.198.349a.9.9 0 0 0 .349.062c.507 0 1.085-.321 1.085-1.123.108.142.171.437.171.57 0 .972-.714 1.345-1.372 1.345-.43 0-.644-.14-.697-.14-.168 0-.16.338-.277.33-.205-.037-.391-.49-.391-.973 0-.285.07-.588.231-.812m1.346-.65c-.071-.117-.338-.179-.463-.179-.393 0-.66.276-.714.527a.8.8 0 0 1-.062-.304c0-.392.268-.872.92-.872.569 0 .79.302.872.302.09 0 .18-.09.25-.09.097 0 .097.153.097.26 0 .356-.16.97-.561 1.194a.9.9 0 0 0-.444-.427.14.14 0 0 1-.09-.134c0-.099.09-.224.195-.277M8.14 3.271c0 .312 1.116 1.835 1.33 1.835.177 0 .311-.312.311-.579a.37.37 0 0 0-.053-.195c-.16-.223-1.293-1.117-1.543-1.117-.027 0-.045.028-.045.056m-6.553-.92c0 .18-.678.776-.917.776-.09 0-.117-.106-.117-.205 0-.179.082-.427.178-.507.116-.108.384-.16.588-.16.125 0 .27.026.27.096m8.139.516c0-.532-1.448-1.505-1.464-1.924q.002-.06.052-.11C8.566.571 9.594.381 9.594.157c0-.115-.214-.115-.321-.115-.829 0-2.041.304-2.041.596 0 .305 1.087 1.047 1.087 1.41 0 .099-.062.134-.16.134-.303 0-.964-.365-1.275-.365-.142 0-.195.099-.195.24 0 .43.506 1.24.506 1.48 0 .027-.008.063-.044.063-.16 0-.918-.892-1.186-.892-.098 0-.107.135-.107.33v.304c0 .205-.009.33-.107.33-.23 0-.34-.65-.562-.65-.23 0-.277 1.158-.5 1.158-.257 0-.034-1.277-.284-1.277-.276 0-.59.849-.786.849-.07 0-.088-.071-.088-.133 0-.26.151-.678.151-.929 0-.124-.036-.195-.142-.195-.277 0-.882.446-1.113.446-.037 0-.081-.019-.081-.055 0-.214.97-.89.97-1.193 0-.294-1.337-.098-1.337-.437 0-.287.955-.58.955-.875 0-.256-1.133-.374-1.57-.374-.526 0-.81.062-.81.213 0 .233 1.194.304 1.194.508C1.748.925.51 1.452.51 1.755c0 .267 1.747.017 1.747.294C2.257 2.35.73 3.663.73 4.099c0 .099.072.143.17.143.463 0 1.667-.883 1.997-.883.116 0 .125.144.125.267 0 .233-.08.59-.08.848 0 .205.053.348.231.348.33 0 .633-.562.856-.562.286 0 .116 1.65.545 1.65.364 0 .517-1.783.747-1.783.233 0 .42.516.635.516.266 0 .142-.9.427-.9.313 0 1.203 1.07 1.605 1.07.125 0 .17-.098.17-.224 0-.472-.661-1.54-.661-1.88 0-.09.027-.115.125-.115.348 0 1.366.48 1.847.48.16 0 .258-.089.258-.207M8.8 1.104c0 .16.56.508.82.508.15 0 .195-.205.195-.42 0-.267-.115-.276-.346-.276-.295 0-.67.08-.67.188M6.708.195c0-.054-.27-.11-.635-.11-.58 0-.499.482-.945.482-.463 0-.348-.5-.937-.5-.356 0-.685.063-.685.145 0 .106.418.062.418.355 0 .313-.9.401-.9.589 0 .062.07.09.16.09.197 0 .508-.09.732-.09.124 0 .24.026.24.144 0 .222-.482.624-.482.802 0 .054.044.07.09.07.18 0 .481-.453.768-.453.472 0 .159 1.006.418 1.006.268 0 .152-.99.534-.99.313 0 .544.686.758.686.053 0 .098-.044.098-.106 0-.187-.267-.57-.267-.82 0-.15.108-.224.25-.224.204 0 .482.127.633.127.053 0 .107-.018.107-.08 0-.215-.794-.448-.794-.723 0-.277.438-.277.438-.4m15.807 1.442c0 .793-.58 1.4-1.624 1.57q.172.01.33.007c1.22 0 1.668-.55 1.668-1.015 0-.26-.142-.49-.374-.562m-1.508.901c0-.632-1.514-.794-1.514-.936 0-.116.847-.311 1.283-.321-.67-.855-1.62-.767-1.62-.918 0-.09.712-.268 1.37-.268.553 0 1.071.124 1.071.542 0 .233-.187.475-.187.83 0 .199.098.368.355.368.278 0 .34-.296.34-.608 0-.259-.044-.454-.044-.58 0-.373.257-.624.624-.624.302 0 .373.133.82.133a.68.68 0 0 0-.33.528c0 .373.24.633.24 1.399 0 1.409-1.318 1.908-2.932 1.908-.445 0-.918-.036-1.38-.106-.074-.008-.09-.027-.09-.072 0-.115.632-.178.632-.749 0-.222-.07-.437-.07-.517a.07.07 0 0 1 .07-.07c.134 0 .403.516.9.516.133 0 .462-.045.462-.455M22.46.568a.22.22 0 0 0 .224.222.22.22 0 0 0 .222-.223.22.22 0 0 0-.222-.222.22.22 0 0 0-.224.222m-.793 8.239c0-.186-.472-.204-.517-.73-.009-.08-.036-.223-.136-.223-.159 0-.035.49-.213.49-.41 0-.543-.804-.695-.804-.035 0-.077.027-.077.135 0 .098.018.16.018.277 0 .115-.028.195-.134.195-.241 0-.456-.56-.662-.56-.044 0-.089.025-.089.07 0 .107.178.304.178.402 0 .214-.58.098-.58.277 0 .078.08.106.188.106.187 0 .481-.081.633-.081.09 0 .225.018.225.133 0 .127-.323.287-.323.402 0 .054.055.08.098.08.24 0 .668-.42.97-.42.055 0 .188.029.188.109 0 .116-.302.32-.302.49 0 .043.026.098.08.098.16 0 .373-.419.678-.419.114 0 .285.044.374.044.07 0 .098-.044.098-.071m.233 4.325c.142-.447.32-.758.614-1.24-.293-.15-1.069-.473-1.069-.999 0-.614.766-1.096.926-1.096.07 0 .09.06.09.179 0 .32-.153.838-.153 1.113 0 .25.16.491.303.491.152 0 .57-.535.57-1.061a1.2 1.2 0 0 0-1.085-1.23c-.24 0-.678.393-1.704.393-1.916 0-2.353-1.9-2.353-2.729 0-.036.007-.045.018-.045.044 0 .23.232.837.232.313 0 .598-.08 1.054-.08 1.066 0 1.541.739 2.2 1.685.4.25 1.355.65 1.355 1.783 0 1-1.063 1.552-1.32 2.621.41-.045.652-.775 1.07-.775.214 0 .312.17.312.437 0 .392-.222.98-.65 1.344.01-.035.01-.08.01-.133 0-.249-.1-.606-.385-.606-.444 0-.586.482-.838.883-.257-.909-.606-1.731-1.23-2.23-.63-.506-1.72-.232-1.72-1.158 0-.25.16-.605.16-.89a.42.42 0 0 0-.072-.26c.858.32.553.892 1.08 1.48.329.375 1.24.732 1.766 2.273.007-.044.016-.16.016-.24 0-1.32-1.745-2.612-1.896-3.148 1.013.117 1.193.367 1.674 1.703.098.277.42.964.42 1.303m-4.878-9.432c-.625 0-1.034-.313-1.034-.473 0-.08.053-.135.124-.135.196 0 .624.304.768.304.035 0 .062-.016.062-.071 0-.16-.15-.428-.15-.563 0-.035.025-.06.08-.06.24 0 .597.098.786.098.06 0 .078-.038.078-.073 0-.196-.58-.58-.58-.695 0-.106.722-.268.722-.436 0-.18-.98-.055-.98-.223 0-.125.186-.34.186-.438 0-.045-.035-.063-.098-.063-.08 0-.508.17-.686.17-.09 0-.197-.019-.197-.143 0-.205.348-.428.893-.428.88 0 1.407.608 1.407 1.623 0 1.286-.898 1.606-1.38 1.606m-1.74-1.693c0-.098-.348-.285-.348-.393q.002-.026.045-.026c.098 0 .268.036.4.036.12 0 .135-.5.224-.5.062 0 .169.473.268.473.116 0 .329-.134.42-.134.016 0 .035.008.035.026 0 .063-.224.304-.224.375 0 .08.5.178.5.249 0 .089-.508.08-.508.16 0 .064.186.313.186.393q0 .026-.027.026c-.071 0-.346-.124-.426-.124-.1 0-.258.364-.338.364-.028 0-.044-.034-.044-.08l-.02-.355c0-.035-.016-.073-.06-.073-.11 0-.314-.007-.378-.007q-.064 0-.062-.028c0-.07.358-.32.358-.382m-.26 1.46c.143 0 .17.349.197.554.018.108.036.117.08.117.109 0 .278-.41.39-.41.17 0 .627.472 1.384.472 1.078 0 2.096-.758 2.096-2.095 0-1.294-.91-2.051-2.167-2.051-.597 0-1.034.294-1.266.294-.141.01-.356-.347-.463-.347-.045 0-.089.087-.089.24 0 .098 0 .41-.108.41-.214 0-1.043-.614-1.043-.392 0 .204.552.829.552.99 0 .16-.544.31-.544.42 0 .195.58.23.58.48s-.605.447-.605.632c0 .151.605.046.605.233 0 .186-.445.81-.445.99 0 .043.009.043.045.043.168 0 .677-.58.8-.58m-4.037 15.657a.4.4 0 0 1-.099.26c-.098-.177-.375-.268-.5-.268-.916 0-.57 1.328-1.55 1.328-.41 0-.447-.055-.598-.055-.062 0-.098.03-.098.082 0 .231.33.803 1.249.803.918 0 1.802-.56 1.802-1.258a.9.9 0 0 0-.081-.365c.035-.053.126-.09.205-.09.142 0 .224.163.357.163.143 0 .25-.109.25-.251 0-.115-.063-.196-.17-.25a.3.3 0 0 0 .125-.241c0-.15-.107-.292-.285-.292a.26.26 0 0 0-.197.086c-.016-.158-.106-.31-.275-.31-.135 0-.234.097-.234.25 0 .142.099.258.099.409M6.1 17.467c.714.176 1.069.56 1.14 1.014.073.437.16.795.331.973.222.25.66.47 1.043.47.32 0 .579-.104.579-.399 0-.32-.437-1.044-1.078-1.044-.063 0-.143.01-.232.01-.08 0-.197-.018-.268-.08-.142-.125-.187-.794-.454-1.195-.294-.446-.615-.57-1.053-.57-.31 0-.659.169-.659.418 0 .152.08.26.651.403m2.487 1.997c-.267 0-.668-.287-.668-.446 0-.135.124-.207.222-.207.224 0 .625.277.625.51 0 .062-.046.143-.179.143m-.82-6.946c0-.572 1.356-.875 1.356-1.578 0-.117-.044-.322-.125-.473.473.26.82.695.82 1.052 0 .615-.642.9-.642 1.283 0 .447.686.518.686 1.07 0 .456-.65.98-.65 1.57 0 .454.32.828.81.89a2 2 0 0 1-.453.065c-.902 0-1.829-.74-1.829-1.625 0-.437.188-.819.472-1.095.25.213.5.355.66.355.144 0 .207-.07.207-.177 0-.33-1.31-.633-1.31-1.337m2.842 4.5c-.305.14-.427.118-.427.431 0 .115-.027.266-.027.346 0 .107.017.17.142.17.32 0 .83-.544.83-1.007 0-.125-.071-.18-.152-.18-.07 0-.152.145-.366.24m-.035-.64c0-.4-.829-.41-.829-1.016 0-.153.097-.41.293-.687.081.463.268.704.67.856.793.293.9.74.9 1.213 0 .801-.561 1.8-2.006 1.8-1.159 0-1.989-1.034-1.989-1.907 0-.24.063-.51.214-.51.134 0 .18.108.286.215.4.402.838.509 1.47.509.571 0 .991-.231.991-.473m-6.315.193a.34.34 0 0 1-.297.377.34.34 0 0 1-.078-.676.34.34 0 0 1 .375.299m-1.666.352a.583.583 0 0 0 .644.498.7.7 0 0 0 .293-.09c.07.286.31.47.634.427.33-.042.552-.301.516-.63a.6.6 0 0 0-.053-.205l.076-.012c.322-.06.54-.32.513-.632-.036-.32-.324-.558-.624-.523a.6.6 0 0 0-.297.122c-.08-.267-.33-.5-.673-.443-.311.052-.515.315-.484.648a.6.6 0 0 0 .045.178l-.09.013c-.26.04-.541.3-.5.649"/></svg>