<svg xmlns="http://www.w3.org/2000/svg" aria-labelledby="simpleicons-unity-icon" viewBox="0 0 24 24"><path d="M21.1602 12.0977l1.3515-2.293a.4873.4873 0 0 0 .0235-.3633l-2.6836-7.6797a.478.478 0 0 0-.5664-.3086l-7.879 1.918a.4843.4843 0 0 0-.332.289l-.8398 2.1016H7.6797a.4787.4787 0 0 0-.3516.1524l-5.7617 6.2382c-.1758.1954-.168.4922.0234.6758L7.629 18.586a.4765.4765 0 0 0 .332.1329h2.754l.8398 2.0976c.0625.1563.1992.2695.3633.2969l8.3789 1.4375c.2539.0469.496-.1172.5508-.3672l1.703-7.793c.0235-.1172.004-.246-.0624-.3515zm-10.9258-6.336L17 4.5195l-3.5586 7h-8.082zm.4804 12.957l-5.3554-5.2773h8.082l4.1992 6.3203zm8.672-.0468l-4.0274-6.1914 3.5195-7 2.2813 6.621zm0 0"/></svg>