<svg role="img" viewBox="0 0 24 24" xmlns="http://www.w3.org/2000/svg"><g><title>United Nations</title><path d="M11.572 12.36c.02-.04.062-.205.113-.154.051.052.082 0 .082 0s.026.026.01.077c-.01.052-.025.103-.056.114-.03.005-.057.025-.098.03-.03.005-.051-.066-.051-.066zm.422-.066c.01-.01.026.04.051.03.026-.004.036.047.01.047-.025 0-.025.03-.025.046s0 .046-.02.067c-.021.02-.037.005-.062-.005-.026-.015-.036-.015-.073-.015-.03 0-.005.051-.005.051s-.133-.005-.108-.026c.026-.02.052-.025.031-.04-.02-.016 0-.026 0-.052s.062-.016.047-.031c-.021-.02 0-.093.03-.052l.021-.046c-.02-.02-.005-.026-.046-.041-.036-.016-.005-.093-.005-.093l.005-.051c.01-.067.139-.072.149-.016.005.057 0 .098 0 .098l.036.016s-.005.04-.036.04c-.03 0 0 .021-.02.042zm4.74-3.13c-.036.036-.113.052-.113.052l-.026.097-.04.036s.01.026 0 .088c-.011.062-.088.098-.088.098l-.036.04s-.206.011-.232 0c-.077-.035-.026-.138.026-.128.051.01-.01-.15-.01-.15l.066-.01s.01-.154.036-.154c.026 0-.01-.051-.04-.077-.037-.026-.078-.113-.114-.103-.036.01-.17 0-.17 0l-.026.052-.092.015s.01.067-.01.087c-.052.062-.248.19-.165-.025l.026-.052v-.077l-.155-.01s-.077-.026-.077-.062c0-.036-.01-.077-.01-.077l-.18-.201-.217-.026-.015-.04-.129-.016c-.154-.077-.293-.01-.267.123.025.129.066.18-.016.18-.087 0-.103-.066-.103-.066s-.067-.026-.067.01-.025.103 0 .139c.026.036-.036.087-.061.062-.026-.026-.093-.103-.078-.13.016-.025-.118-.19.016-.215.139-.026-.01-.103.04-.124l.068-.036h.067l.04-.036-.112-.015-.067-.01-.129-.01a.367.367 0 00-.154.19c-.067.128-.232-.052-.17-.124.062-.072-.19-.01-.232.026-.041.036-.17.015-.17.015-.025.077-.144-.01-.113-.062.036-.051.036-.087.036-.087l-.041-.01-.052.097c-.118 0-.154.067-.128.114.025.04-.036-.01-.052.051-.015.062.01.062.062.088.052.025-.026.025.01.067.036.04.14 0 .078.061-.062.062-.18.036-.18.036-.011.078-.17.062-.191.036a4.448 4.448 0 00-.144-.18l-.165-.01c-.015-.124.077-.062.113-.155.036-.097.052-.252.052-.252s-.14-.01-.144.036c-.01.041-.093.072-.093.072s-.067.026-.041.062c.025.036-.052.052-.052.052s.016.056-.01.077c-.067.072-.242.01-.268-.016l-.103-.04-.103-.068-.118.052-.036.036h-.129l-.01.103.232.026.015.216-.092-.031h-.062l-.026-.052-.051-.01v.19l.051.042.041.04.088.011.015.103.216.01.026.042.129.01.247.252-.016.077-.04.026c.015.062-.114.026-.114.026v.051l.062.01.061.037.088-.15c.093-.062.139.026.144.077.01.052-.041.042-.041.042v.123l.051.016c.088.103-.036.164-.036.164l-.025.088c-.026.077-.119.062-.119.062l-.036.051-.103.026.201.025c.02-.072.072-.087.098-.051.026.036.026.098.026.098l.051.01-.01.098.051.015v.278l.062.067c.103-.041.103.026.052.062-.052.036-.016.19-.016.19l-.041.042v.072l-.051.036v.097c-.088-.04-.19-.025-.217 0-.077-.051-.242-.036-.242.01.052.068-.061.088-.061.088l-.062.067c.041.088-.041.098-.041.098v.165l-.103.098.01.226c0 .062.129.067.154.036.026-.036.13.072.13.072h.076l.016-.154-.052-.026v-.252l.088-.098c.103-.036.067.226.067.252.01.098.051.088.092.067.088-.036.016.098-.051.088-.067-.01-.026.087-.026.087l.041.015-.077.062-.067.077-.087-.025-.103-.01-.036-.062-.062-.01-.01.123-.042.051-.103.103c.14 0-.015.098-.051.098.077.026-.01.103-.206.041v.062l-.067.01.062.067.067.01-.026.15c0 .113-.283.036-.309.01l-.01.155-.052.01.01.103-.01.15.093-.016v.062l.232.01.334-.355.196-.042c.015-.087.103.016.103.016.087-.01.103.051.103.051l.113.016c.093.025.036.036.041.072.01.051.052.036.052.036l.015-.113.052.01-.052-.062-.093-.041-.103-.041c-.066-.098.016-.077.088-.067h.113s.129.175.129.216c0 .041.062.052.062.052l.077-.01.026.061h.077l.025.052h.155l.01-.078-.144-.025-.01-.088-.103-.026c-.036-.149.026-.19.067-.123l.051.01-.015-.128.062-.016-.016-.18-.051-.015v-.062l.216.01c-.016-.113.01-.165.01-.165h.062l.01.042.263.025.185-.21c-.01-.016.02-.026 0-.047-.026-.026-.062 0-.103-.026-.041-.025 0-.175-.01-.206-.01-.036.144-.087.118-.01-.025.077 0 .113 0 .113.113-.103.206.01.196.036-.01.026.062.052.103.026.041-.026.092.077.077.129-.015.051-.17.04-.18-.01-.01-.052-.036-.037-.052-.01-.015.025-.092.04-.139.015-.01-.005-.01-.01-.015-.016l-.185.211h.01c.103.062.051.14.015.155-.036.015-.092.015-.092.015l-.016.036-.221.015-.015.088c-.114-.016-.155.103-.13.165.027.061 0 .113 0 .113l.093.041.119-.036c.015-.088.093-.103.165-.154.066-.052.18.097.144.164-.036.067-.036.098-.036.098l.01.077-.088.036-.066.036-.01.041h-.232l-.042.042-.113.01-.036.051-.077.01s-.129.063-.077.13c.051.072-.216.061-.273-.037-.015.088-.113.01-.113.01l-.093-.025-.01-.129c-.016-.087-.18-.087-.17-.025.01.061-.309.025-.309.025l-.103.052-.092.056-.01.042-.155.015-.067.036-.026-.051h-.067l-.067.097c-.18.01-.35.114-.334.155.015.041-.067.087-.067.087l-.077.026-.052.077-.103.036-.015.18-.052.036v.078l-.061.015v.041l-.088.01.052.13.067.035c.118.016.066.165.066.165l.067.01.036.098.067.139c.026.103.103.077.14.072.035-.01.066.103.066.103l.34.01s-.016.036.041.052c.062.015.453.036.468.01-.015-.077.217-.098.31-.026.092.067.22.026.22.026l.13.154.087.19.144.042.103.026.036.15.077.01.026.097c.092.067-.026.216-.026.216v.19l.067.037-.01.072.113.113.129.01.324.345.257.077.041.14.067-.01.052-.042.206-.01.103-.098.113-.016.952-.808-.087-.051v-.19c.154-.114.164-.315.015-.33-.108-.016-.062-.129.041-.15l.062-.025v-.077l.196-.18v-.14l-.428-.354c-.19-.067 0-.484.129-.48.129.011-.01-.643-.01-.643l-.067-.036.015-.21h-.092l-.155.2-.041.14c-.015.18-.546.148-.571.123a1.52 1.52 0 00-.206-.103s-.14-.114-.165-.077c-.026.036-.144-.042-.144-.016 0 .026-.113-.062-.113-.062l-.17-.061.128-.026-.025-.103.221.113c.026.036.14.026.14.026l.035.041s.067-.01.113.041c.042.052.268.01.268.01l.062.052.092.036.268.01.01-.164.052-.052-.01-.103.061-.051v-.088l.052-.015.01-.19.041-.011v-.417l-.128-.123c-.01.04-.144.04-.144.04s-.036.063-.062.063c-.026 0 .036.077.015.128-.015.052-.087.052-.087.052l-.129.036-.036.04h-.139l-.015-.112.154-.042.088-.04.04-.088c.011-.088.114-.077.114-.077s.196-.165.206-.242c.01-.078.077-.294.195-.294h.222c.087-.036.062-.149.062-.149l.113-.015.015.061s.155.016.17-.01c.015-.026.052-.087.093-.062.04.026.18-.061.18-.061.01-.062.221-.036.221-.036l.026-.078s-.144-.2-.17-.2c-.026 0-.165-.124-.18-.078-.14-.036-.129-.226-.129-.226l-.051-.124c0-.072-.129-.216-.155-.2-.128-.098-.036-.206 0-.217.036-.01.119-.128.119-.128l.04-.124.145-.041.015-.113-.077-.01s.088-.155.129-.155c.041 0 .324 0 .35-.015.026-.016.077-.155.077-.18 0-.026.067-.036.093-.042a.317.317 0 00.103-.113c.046-.087-.01-.304-.047-.268zm2.373 2.774c-.005-.015-.01-.03-.025-.036-.036-.015-.103.01-.134.031l.03.042c.032-.021.078-.031.083-.026v-.005zm.222 1.035l-.052-.005c-.005.041.005.093.046.098l.01-.052s-.004-.02-.004-.04zm.19-.206c.015.052.03.103.03.108l.047-.02s-.02-.052-.03-.103zm.113-.041v-.01a.133.133 0 00-.015-.057l-.046.026c.005.01.005.025.01.036 0 .015.005.03.015.041.01.005.02.01.036.005l-.01-.052c0 .005.005.005.01.01zm-.437.37c.036-.02.082-.066.077.031-.005.098-.046.067-.077.098s-.052-.098 0-.128zm-1.982.675l-.082-.005.005-.077.082.01zm-.077.165c-.01-.047-.062-.062-.067-.062l-.015.051c.005 0 .01.005.015.01l.01.047c-.005.005-.01.01-.01.015l.036.036c.026-.041.036-.067.03-.098zm-6.367 1.647l-.031-.042-.052.047-.025.02.025.021.062.041.031-.041-.036-.026zm.664.622l-.088-.04-.02.046.051.025-.015.02.036.037.041-.041.026-.026zM8.947 5.031l.036-.036.051.051-.036.036zm1.56 1.626l.03-.04.052.04-.031.042zm-.165-.005l.01.098h.129c.051 0-.042-.062-.042-.062s-.103.01-.097-.036zm2.83-2.419h-.01l-.087-.01-.005.051.072.005.056.088.042-.031-.057-.093zm.278-1.786l-.056-.036-.026.046.067.042.015.01.01-.01.099-.062-.031-.041zm.469.155l-.067.056-.041-.046-.036.041.056.057.021.02.015-.015.088-.072zM11.01 4.465c-.005-.031.17-.036.195-.01.026.025.01.072.088.072.077 0 .041.051.036.077-.01.026-.093.015-.103-.01-.01-.026-.14-.036-.14-.036s-.066-.052-.076-.093zm.983-.098c.134.041.18.01.19-.026.01-.036.016-.04.067-.051.052-.01-.01-.113-.062-.103-.051.01-.103-.016-.113-.062-.01-.041-.092-.154-.103-.067-.01.088-.062.088-.051.15.015.056.04.149.072.159zm.85-1.467c-.021-.077-.13.098-.016.129.113.036.221 0 .221 0l.026-.052.427.01c.036-.035.051-.087.051-.087s.103-.036.145-.015c.04.015.01-.124-.036-.103-.042.015-.13.01-.13.01h-.154c-.01-.062-.144-.036-.154 0-.005.03-.057.041-.057.041l-.195.016c-.02.051-.119.087-.129.051zm.015.427l-.114-.113v-.098l-.036-.036-.036-.123-.113-.036-.113.04-.119.078-.128.016-.067.077.273.026.051.087.196.015.128.13c.119.05.145 0 .078-.063zm.442.855l-.046-.02.036-.083.046.025zm2.512-.108c-.015-.067.17-.13.216-.078.041.052.165.062.18.32.005.092-.154-.098-.154-.098l-.129-.041c-.072-.016-.108-.057-.113-.103zm-.9.226c-.026.077-.037.18-.078.18s-.026.113-.026.113.114 0 .144.01c.036.011.036.099.036.099.13-.01.18.164.165.21-.015.042.052.042.052.042s0 .139-.016.175c-.015.036.114.062.144.113.036.052-.015.227-.04.237-.026.01.066.036.061.077-.01.041.026 0 .036.072.01.067.026.216.026.216l.118.01c.015-.113.237-.118.273-.102.144.051.257.278.257.33 0 .05-.092.06-.092.06l.015.253c.144.041.268.252.247.288-.015.036.103.026.103.026.015-.154.165-.103.17-.051.01.051.036.164.036.164l.041.077.062.062.093-.01.025.051.114.016s.092.103.103.129c.01.025.138.015.17.025.035.01.087.036.092.077.01.042.062.114.062.114s.103.025.113.061c.01.036.051.114.051.114l.088.072.01.077.093.01.026.103.154-.01.088-.062c.113-.062.19-.139.195-.175.01-.036.026-.165.113-.139.088.026.026-.19.026-.19s-.118-.088-.113-.129c.01-.041-.119-.129-.113-.165.01-.036-.114-.103-.103-.139.01-.036-.062-.128-.062-.128l-.129-.124-.015-.077-.103-.01-.206-.253.01-.072-.062-.01v-.098l-.061-.036-.093-.01-.19-.206-.016-.098h-.093l.016-.18c.062-.077.026-.226.026-.226s-.119.061-.18.036c-.062-.026.025-.088.025-.088v-.067l-.051-.051s-.145.015-.155-.01c-.01-.026-.036-.14-.036-.14l-.01-.149-.062-.026-.01-.051-.093.01v-.103l-.051-.015-.052-.026-.01-.103-.19-.01-.062-.088-.067-.102-.216-.016-.052-.051-.087-.016-.062-.025-.026.04-.165.011-.01.052c-.072.036-.412 0-.422.025zm-1.576-.051c-.087-.067.119.051.119.051.066 0 .113.052.113.077 0 .026.092.016.092.016l.01-.062-.066-.088-.062-.04s-.093-.011-.093-.037c0-.02-.077.108-.113.082zm.026.365l-.026-.072-.067-.015v.077zm.926.885v-.067s-.01-.066-.051-.066c-.041 0-.118-.052-.103-.088s-.144-.072-.144-.072-.144-.139-.093-.124c.052.016.026-.061.026-.061s-.103.015-.129.01c-.025-.01-.015-.088-.015-.088s-.103-.025-.103 0c0 .026.036.026.051.078.016.051.01.139.088.154.077.015.093.036.103.072.01.036.103.041.103.041l.067.036zm.067.232c-.01-.036-.025-.154.026-.15.052.011.015 0 .077.026s.067-.04.067-.04h.093l.118.097-.015.077-.088.01c-.041-.066-.128-.04-.113.016.015.062-.041.175-.077.18-.036.01-.144.01-.14-.041l.052-.175zm1.41 1.184l.062-.19c-.087-.016-.066-.114-.066-.114-.01-.077-.13-.165-.17-.139-.042.026-.026-.18-.026-.18s.077-.051.113-.026c.036.026-.293-.432-.36-.39-.067.04-.221-.042-.216-.124.01-.078-.31-.34-.31-.34s-.102-.067-.117-.015c-.016.051-.052.087 0 .113.051.025.04-.041.102.015.062.062.17.14.13.19a.253.253 0 01-.093.073l.061.072h.093l.015.15s.103.05.129.112c.026.062.026.098 0 .129-.026.036-.077.098-.067.154.01.062.077.088.077.088l.067.01.052.026v.113c.067-.015.18.077.17.14-.01.06.015.025.103.087.087.061.061.072.118.113.057.036.108.01.134-.067zM13.8 8.027c0 .025-.015.061.036.072.052.01.145-.036.155.015.01.052.01.088.077.113a.435.435 0 00.165.036c.051 0 .164-.015.164-.015s.124.02.145.041c.092.098.154.124.18.077.025-.04-.01-.139-.016-.175-.01-.036-.128-.2-.17-.164-.04.036-.051 0-.128.025-.077.026-.242.01-.247-.025-.01-.036-.129-.052-.129-.088s-.087-.077-.077-.026c.01.052-.062.078-.077.062-.026-.02-.078.052-.078.052zm-.427.092l-.01.062.093.01s.04.036.04.062c0 .026.063.052.093.052.036 0 .13-.072.13-.072s.04-.124.01-.114c-.037.01-.104.062-.114.01-.01-.05-.113-.025-.113-.025zm-.427.15l-.015-.052.025-.005.016.046zm.036-.057l-.02-.077.05-.01.016.077zm.314-.072l-.19.005.005.051.185-.005zm1.482.015l-.005-.051.088-.01.005.05zm.268.16L15 8.295l.025-.063.047.021zm.705-.84l-.005-.05.088-.006.005.052zm.14 0h.05v.042h-.05zm.143-.807l.01.077-.05.005-.011-.077zm-.04 1.158h.05v.062h-.05zm.087.082l.025-.051.047.02-.026.057zm-.227-.736c.052 0-.015.2.118.18.14-.015.01.062.114.067.103.01.077-.077.113-.139.036-.062.015-.098-.041-.113-.062-.016-.062-.016-.077-.088-.016-.067-.088-.087-.088-.087l-.026-.103-.113.067-.113.15c0 .123.062.066.113.066zm.335.474c.067-.036.216-.036.206-.088-.01-.051.087-.067.087-.067l.026.103.077.052.01.097s.026-.015-.067.01c-.092.026-.036.068-.036.068l-.206.01-.025-.088zm-1.107.725c.041-.01.144-.015.165.01.015.026-.062.062-.062.062l-.103.016c-.03-.041-.041-.077 0-.088zm.55-.077c.047.046-.257.036-.257 0s.026-.154.103-.129c.078.026.088-.154.088-.154s-.067.01-.01-.026c.061-.036 0-.087-.026-.113-.026-.026-.052-.072-.052-.072h.119c.051-.036.067-.2.067-.2.103.035.154-.037.154-.037s.015.052.052.098c.036.041-.088.062-.042.088.042.025.062.103.042.128-.016.026-.114.01-.114-.025 0-.036-.036.04 0 .087.036.041-.04.103-.061.103-.016 0-.13.015-.036.072.092.052.195.026.195.026s.077-.01.103.036c.026.041-.01.051-.051.051-.042 0-.248-.015-.248-.015s-.051.057-.025.082zm1-.983a.208.208 0 00-.088-.077c-.036-.016-.062-.036-.093-.036a.056.056 0 01-.051-.077c.015-.042-.026-.062-.026-.098 0-.036.026-.036.067-.01.041.025.036.036.067.077.036.04.051.087.087.077.036-.01.062.077.093.051.036-.025.026.062.026.062zm-.083.082c.026.036.077.062.077.098 0 .036-.015.062.036.067.052.01.088-.01.103.036a.375.375 0 01.01.15c-.01.035.01.087.052.087.041 0 .051.01.051.036 0 .026.052-.098.052-.098a.42.42 0 01-.077-.113s-.042-.124-.042-.14c0-.015-.061-.035-.087-.04-.026-.01-.067-.088-.067-.088zm.556 1.406l-.036-.078s0-.067.015-.103c.016-.036-.036-.067-.062-.077-.025-.01-.015-.077-.025-.113-.01-.036-.067-.062-.067-.062s-.016-.129-.016-.154c0-.026-.077-.062-.051-.088.026-.025.041-.062.067-.077.026-.015-.026-.139.015-.113.041.026.041.072.062.103.015.036-.01.154.036.18.041.026-.01.113.062.113.067 0 .026.165.026.165s-.016.123.025.129c.041.01.016.216.016.216zm.072.69l-.046-.026.025-.052.047.026zm.005-.243l.005-.067.051.005-.005.073zm-.103-.355l-.067-.01-.154.026-.088.164s.041.026.077.088.052.417-.051.478c-.103.062.01.026.01.026l-.015.19c.025.088.067.042.092 0 .026-.04.052-.05.088-.097a.403.403 0 00.092-.18c.01-.062.052-.155.026-.18-.026-.026.026-.15.026-.15s.036-.072 0-.139c-.036-.072.01-.149.036-.18zm-.376-.885h-.128s.04.015-.078-.098-.195.026-.195.026l-.14.015v.14l-.066.025.01.087.093-.01s0 .103.026.062c.025-.041.241.01.22.113-.004.041.217.154.191.293.114.016.088.13.088.13l.144.015.041-.088.041.01v-.051l-.092-.026-.016-.278-.061-.041.015-.072-.067-.026.036-.113zm-.298 2.038l-.026.016-.062.036-.056-.036-.026.046.067.041.015.01.01-.01.052-.026.005.016.051-.02-.02-.042zm.216-.072l-.01.052.092.015.01-.052zm-.185 1.163c-.036-.051.17-.139.205-.036.036.103 0 .088-.036.078-.03-.01-.118.025-.17-.042zm-.886 1.673h.062v.165h-.062zm.397 1.59c-.016.068-.078.104-.114.078-.036-.026.042.041.062.077.016.036.067.036.088 0 .015-.036.01-.113.025-.15.016-.03-.051-.04-.061-.004zm.19.35l.077.037.01.149c.103.103.438.015.438-.01 0-.026-.015-.32-.015-.32l-.042-.04-.01-.217c.036-.113-.165-.278-.18-.242-.015.036-.129.01-.129.041 0 .036-.067.206-.036.268.036.062-.025.062-.036.124-.01.051-.097.154-.077.21zm-2.476-1.811l.067-.046-.026-.042-.072.042zm-1.24.123v.108m.278-.01l-.062.041.026.026.025.046.057-.097zm-.062-2.6c.036.078.026.191.154.279.042.03-.025.087-.067.062-.04-.026-.164-.217-.164-.217v-.113c.025-.067.062-.041.077-.01zm-.453.454c.02.077.015-.124.051-.113.036.01.01-.124.01-.124l-.154.113c.072.01.083.088.093.124zm-.463.556c-.01.103-.14.139-.14.139l-.092-.026-.051-.041-.01-.124.077-.01.015.051zm-.14-1.05v-.124l-.015-.113-.128-.062-.093.088-.015.123v.077l-.088.016-.015.236-.067.026.01.088-.093.025-.092.026-.016.113-.066.042-.036.102-.042.253s.078.149.119.077c.04-.067.113-.077.113-.077l.026-.062.231.01c.016-.098.129-.062.129-.015 0 .041.087.01.087.01l.062-.098h.093l.01-.103.041-.025v-.155c.14-.041.119-.175.119-.175l.036-.041-.016-.062c-.067-.025-.036-.087.01-.072.042.016-.061-.077-.061-.077-.052.041-.093-.052-.093-.052zm-.39-.355l-.067.015-.155.15-.01.066-.041.062-.052.129-.18.01-.036.154.026.134.154.062.016-.088.051-.025.01-.088.036-.062.052-.061.015-.067.088-.052.103-.02.04-.052.016-.103.01-.077.037-.057.103-.04v-.165h-.052l-.01-.062-.093-.01-.02.046h-.042l-.01.067h.052l.01.056-.036.031zm-2.718 1.044a.036.036 0 01-.036.036.036.036 0 01-.036-.036.036.036 0 01.036-.036.036.036 0 01.036.036zm-.005.994a.036.036 0 01-.036.036.036.036 0 01-.036-.036.036.036 0 01.036-.036.036.036 0 01.036.036zm-.093-.144c.02 0 .036-.016.036-.036a.035.035 0 00-.036-.036.035.035 0 00-.036.036c0 .02.015.036.036.036zm-.103.267v-.061l-.072.01v.062zm.077-.417v-.087l-.061.01-.005.067zm-.015-.39l-.062-.026.01-.13.052-.01.005-.061-.129.087-.082-.051v.206l.134.185.051-.124zm-.052-.896l-.154-.016.01.062h.042c.066.123.01.417.01.417s-.103.01-.119-.041c-.015-.052-.061.113-.025.139.036.025.154 0 .164.097.01.098.078-.061.078-.061zm3.45-1.72h-.094l-.015-.19.051-.036v-.098h-.298l-.01-.098.04-.025-.066-.026-.052.067-.015.077-.087.015v.042h-.062v.113l-.242.2-.479-.015c-.036.077-.118-.01-.118-.01-.016-.052-.14 0-.14 0 0 .098-.164-.041-.164-.041l-.298-.216c-.17-.155-.428.04-.438.087.01.124-.196.026-.196.026s-.17-.052-.195.015c-.026.067-.14.052-.14.052l-.015.036-.087.015-.015.052-.103.015.257-.01c.067-.01-.026.149-.067.139l-.118.01-.042.041h-.113l-.051.072-.165-.01s-.093.077-.087.103c.01.026-.016.103-.042.103-.025 0-.077.077-.061.103.015.026-.052.113-.052.113l-.015.088-.052.015v.237l-.103.072v.103l-.154.164.015.14-.129.138.016.14-.077.025-.016.062-.036.18.088.01c.041-.015.036.114 0 .129s-.129.052-.077.088c.051.036-.14.025-.14-.026 0-.052-.102-.098-.128-.077-.026.015-.067-.078-.067-.078-.093-.097-.386.01-.386.01l-.041.14c-.093.015-.155.175-.155.175-.077.025-.139.123-.113.149.026.026-.041.036-.041.036v.19l-.041.062.01.206c.052 0 .041.098.041.098-.087.01-.067.123-.067.123l-.18.062-.036.052-.221-.01-.062.061-.062-.062h-.427l-.015-.04-.088-.016-.01-.098-.129.01-.026.052-.139.01c.01.088-.138.216-.154.18-.015-.036-.113-.128-.067-.149.041-.015.155-.036.155-.036v-.062l-.32-.01-.036.051-.128.01v.14l-.062.015c-.041.026.01.124.01.124.062.061-.01.154-.01.154-.052.052.041.15.041.15.067.015-.041.066-.041.066.015.088.067.113.067.113-.052.088.036.13.036.13l.01.148.062.036v.098l.036.062h.139l-.01-.216c-.119-.14.103-.175.113-.124.01.052.103.077.103.077.015.13.165.206.206.078.04-.129.077-.052.103.01.025.062.19.211.19.211h.129l.015.124c.144-.01.19.01.247.205a.38.38 0 00.222.253l.118-.01c0-.104.118.015.118.071 0 .052.232.253.232.253l.232.051.216.175.165-.015h.066c.042-.15.247.01.268.062.015.051.154.139.17.097.015-.04.113-.015.129.114.015.128.077.103.077.103l.489-.01.17-.15.437-.01c.221-.01.088-.314.041-.314-.077-.062.026-.314.026-.314l-.623-.582c-.144 0-.015-.21-.015-.21.113-.073-.026-.181-.026-.181.015-.103-.062-.227-.062-.227-.154-.103-.113-.303-.113-.303v-.14c-.129-.123.052-.138.052-.138.061-.103-.042-.18-.042-.18l-.01-.114-.139-.015-.015-.407-.31-.442c-.061-.016-.015-.124-.015-.124.078-.041-.015-.15-.015-.15l-.01-.19.18-.015.041-.067h.088l-.01-.226c.04-.114.143-.052.143-.052l.119.01.067-.128.015-.103-.093-.01c-.102-.062-.051-.289-.051-.289.165-.242.35-.103.35-.103l.118-.01c.18.124.016.345.016.345-.036.051-.016.216-.016.216l.042.278-.114.098c-.092.051-.092.175.01.2.068.01.042.176-.061.062-.155 0 .087.14.015.103.155.078.119-.067.119-.067l.205-.164c.078-.062.217.128.217.154 0 .026.34.01.34.01.092.062.128.217.128.217.093-.124.293-.01.144.061.14.088.14.165.14.165.112-.036.112.052.112.077 0 .026.036-.128.036-.128-.128-.098.17-.129.088.04l-.052.078.088.067.01.2c.19-.015.14-.252.14-.252l.087-.015c0-.077.061-.036.061-.036-.061-.293.14-.345.14-.345.113-.025.118-.262.118-.262-.077-.036-.036-.155.051-.052.088.103-.051-.21-.051-.21l-.067-.063-.093-.01-.01-.098h-.154l-.026.124-.057.026-.015-.036-.026.097h-.154l-.01-.103.092-.025.036-.052.026-.139h.113l.144-.041c.01-.15.088-.113.088-.113l.051.041.077.062.01.051-.05.026-.011.072.026.098h.066c.026-.14.206-.14.258-.052l.051-.123c-.118-.062 0-.155.031-.113.036.04.113-.114.113-.114s.062.078 0-.025c-.061-.103.042-.155.042-.155-.016-.103.113-.087.113-.087l.01-.14-.118-.01c-.026.124-.129.016-.077-.01.051-.026.103-.077.103-.077V9.55l.051-.015.01-.087h.129l.113-.052.026-.041.118-.01.17-.155-.015-.067c-.103 0 0-.077 0-.077zm-4.639 7.886l-.01-.077-.067-.103.103.015.108.093.047.113-.062.036-.036-.051zm-1.74-2.388l-.03.061-.098-.087-.067-.098-.036-.077-.057-.154.13.061.04.119.062.046zm-.674-.71v-.047h-.04v.088h.066v.113h.052l-.01-.129zm6.743-5.287l-.01-.051.051-.01.01.05zm.124-.062l-.072-.02.015-.052.067.02zm-.01-.082l.061.01.005-.051-.056-.01zm.149-.103h.067v.052h-.067zm.494.067l-.057-.005.005-.052.062.005zm.051.02l.062.01.005-.05-.062-.011zm.124.016h.067v.051h-.067zm.129.082l-.052.005v.062l.052-.005zm-.49-6.526c-4.683 0-8.492 3.809-8.492 8.493s3.809 8.492 8.493 8.492 8.493-3.808 8.493-8.492c0-4.684-3.81-8.493-8.493-8.493zm0 10.114a1.621 1.621 0 110-3.242 1.621 1.621 0 010 3.242zm1.22-2.985a1.823 1.823 0 00-1.111-.464V7.09c.808.026 1.544.35 2.095.87zm-1.322-.464a1.823 1.823 0 00-1.112.464l-.983-.984a3.193 3.193 0 012.095-.87zm-1.256.613a1.823 1.823 0 00-.463 1.112h-1.39c.025-.808.35-1.545.87-2.095zm-.463 1.318c.025.427.195.813.463 1.111l-.983.983a3.193 3.193 0 01-.87-2.094zm.607 1.26c.298.268.684.438 1.112.464v1.39a3.193 3.193 0 01-2.095-.87zm1.318.459a1.823 1.823 0 001.111-.464l.983.984c-.55.52-1.286.844-2.094.87zm1.26-.608c.268-.298.438-.684.464-1.111h1.39a3.193 3.193 0 01-.87 2.094zm.464-1.317a1.823 1.823 0 00-.463-1.112l.983-.983c.52.55.844 1.287.87 2.095zm.52-2.389a3.412 3.412 0 00-2.244-.931V5.339a4.956 4.956 0 013.335 1.385zm-2.45-.931a3.422 3.422 0 00-2.245.931l-1.09-1.09a4.956 4.956 0 013.335-1.386zM9.502 7.959a3.412 3.412 0 00-.931 2.245H7.027A4.956 4.956 0 018.41 6.868zm-.926 2.45c.026.865.376 1.653.932 2.245l-1.097 1.09a4.956 4.956 0 01-1.384-3.334zm1.076 2.389a3.412 3.412 0 002.244.931v1.545a4.956 4.956 0 01-3.336-1.385zm2.445.926a3.423 3.423 0 002.244-.931l1.091 1.09a4.956 4.956 0 01-3.335 1.385zm2.388-1.075a3.412 3.412 0 00.932-2.245h1.544a4.956 4.956 0 01-1.385 3.336zm.932-2.445a3.423 3.423 0 00-.932-2.245l1.091-1.09a4.956 4.956 0 011.385 3.335zm.16-3.624a5.157 5.157 0 00-3.48-1.441v-1.37a6.512 6.512 0 014.442 1.843zM11.89 5.134a5.157 5.157 0 00-3.48 1.44l-.962-.962A6.512 6.512 0 0111.89 3.77zm-3.624 1.59a5.157 5.157 0 00-1.441 3.48H5.462a6.512 6.512 0 011.843-4.442zM6.826 10.41a5.157 5.157 0 001.441 3.479l-.962.963a6.512 6.512 0 01-1.843-4.442zm1.585 3.623a5.157 5.157 0 003.48 1.441v1.364a6.512 6.512 0 01-4.442-1.842zm3.686 1.447a5.157 5.157 0 003.48-1.442l.962.963a6.512 6.512 0 01-4.442 1.843zm3.628-1.591a5.157 5.157 0 001.442-3.48h1.364a6.512 6.512 0 01-1.843 4.443zm1.442-3.685a5.157 5.157 0 00-1.442-3.48l.963-.962a6.512 6.512 0 011.843 4.442zm-.48-4.736a6.708 6.708 0 00-4.59-1.904V2.02a8.256 8.256 0 015.682 2.357zm-4.796-1.904a6.717 6.717 0 00-4.592 1.904L6.213 4.377a8.256 8.256 0 015.683-2.357v1.544zM7.155 5.612a6.708 6.708 0 00-1.904 4.592H3.707A8.256 8.256 0 016.064 4.52zm-1.9 4.798A6.717 6.717 0 007.16 15l-1.096 1.087a8.23 8.23 0 01-2.352-5.677zm2.05 4.735a6.708 6.708 0 004.59 1.904v1.545a8.256 8.256 0 01-5.682-2.358zm4.792 1.904a6.717 6.717 0 004.59-1.904l1.092 1.091a8.256 8.256 0 01-5.682 2.358zm4.735-2.053a6.708 6.708 0 001.904-4.592h1.545a8.256 8.256 0 01-2.358 5.683zm1.904-4.792a6.717 6.717 0 00-1.904-4.592l1.091-1.09a8.256 8.256 0 012.358 5.682zm-1.822 9.182c-.21.047-.406.113-.633.083.18-.114.417-.129.628-.206 1.174-.443 1.354-1.699 1.997-2.558-.818.545-1.498 1.292-2.264 1.992-.536.489-1.2.694-1.89.839.165.061.381.046.562.092 1.24.31 2.61.793 3.927.355.85-.283 1.735-.947 2.167-1.786-1.138 1.282-2.986.87-4.494 1.19zm2.64-1.472c-.226.185-.447.36-.694.474l-.01-.016c.273-.247.566-.54.777-.844.674-.978.448-2.321.968-3.356-.474.566-.917 1.148-1.19 1.797-.437 1.04-.586 2.228-1.57 3.021 1.061-.35 2.291-.283 3.243-.906 1.004-.659 1.936-1.699 2.131-2.872-.7 1.596-2.47 1.72-3.654 2.702zm2.1-2.62c-.153.247-.308.505-.53.7.037-.149.16-.283.227-.432.232-.5.335-1.07.278-1.663-.072-.72-.37-1.39-.252-2.146-.618 1.328-.417 2.996-.772 4.432-.077.319-.273.597-.391.895.607-.463 1.4-.87 2.064-1.395.643-.504 1.2-1.101 1.492-1.873.211-.556.263-1.22.211-1.848-.108 1.42-1.61 2.172-2.326 3.33zm-5.203 5.189c-1.019-.422-2.054-.984-3.212-.984-1.709 0-3.335 1.159-4.473 2.245.14.16.32.309.49.442 1.09-1.127 2.377-2.383 3.597-2.383.757 0 1.302.577 1.936.983.88.561 2.09.88 3.13.469.555-.211 1.095-.525 1.502-1.03-.823.561-2.049.639-2.97.258zm6.29-8.596c-.113.432-.154.895-.33 1.297-.015.01-.03-.01-.04-.02.437-1.226-.201-2.353-.824-3.32-.165-.253-.242-.551-.32-.85-.066.556.052 1.194.155 1.766.134.736.381 1.425.582 2.136.134.442.098.942.03 1.41l.062-.052c.464-.854 1.38-1.523 1.658-2.46.221-.746.376-1.611.221-2.424-.072-.314-.128-.639-.262-.927.252 1.333-.628 2.296-.932 3.444zm-.185-3.197l.087 1.143c-.01.01-.01.041-.041.03-.036-.128-.051-.262-.072-.395-.155-.922-.968-1.565-1.652-2.219a1.451 1.451 0 01-.36-.53c.056.458.185.932.39 1.349.53 1.07 1.55 1.935 1.735 3.155.088-1.169.803-2.033.803-3.274 0-1.004-.391-1.827-.978-2.573-.015-.01-.03-.026-.051-.021.643.983.051 2.224.139 3.335zm-.886-2.409c.093.314.232.613.31.942l-.021.016a2.73 2.73 0 00-.695-1.02c-.592-.56-1.483-.895-1.776-1.713.015 1.137.983 2.002 1.868 2.666.397.298.736.7.942 1.122a3.89 3.89 0 01-.02-.88c.092-.994.149-2.105-.53-2.862-.325-.36-.69-.643-1.123-.752.834.582.788 1.617 1.045 2.481zm-1.827-1.744c.402.53.947.854 1.42 1.297-.251-.53-.303-1.133-.622-1.642-.55-.875-1.467-1.215-2.316-1.544.617.545 1.034 1.25 1.518 1.889zM6.146 18.99c-.983-.793-1.132-1.982-1.57-3.022-.272-.648-.715-1.23-1.189-1.796.52 1.04.294 2.378.968 3.356.211.309.505.602.777.844l-.01.016c-.247-.114-.468-.289-.695-.474-1.178-.983-2.954-1.107-3.66-2.707.191 1.173 1.123 2.213 2.131 2.872.958.628 2.188.56 3.248.91zm2.533.633c.18-.046.396-.03.56-.093-.689-.139-1.353-.35-1.888-.839-.767-.7-1.447-1.446-2.265-1.992.643.865.824 2.121 1.997 2.559.206.077.448.092.628.206-.226.036-.422-.036-.633-.083-1.513-.324-3.356.093-4.488-1.194.427.844 1.312 1.508 2.167 1.786 1.312.443 2.686-.046 3.922-.35zm2.069-.124c-1.158 0-2.198.562-3.212.984-.921.38-2.141.308-2.96-.258.402.505.942.819 1.503 1.03 1.035.411 2.245.097 3.13-.469.633-.406 1.179-.983 1.935-.983 1.22 0 2.502 1.251 3.598 2.383.17-.139.35-.283.49-.442-1.149-1.092-2.77-2.245-4.484-2.245zM1.72 15.696c.664.525 1.456.931 2.064 1.395-.119-.304-.314-.582-.391-.896-.356-1.436-.16-3.104-.772-4.432.113.757-.186 1.426-.253 2.147a3.207 3.207 0 00.278 1.662c.067.15.19.278.227.433-.222-.201-.381-.453-.53-.7-.716-1.159-2.214-1.91-2.317-3.32-.051.628.005 1.292.211 1.847.283.762.84 1.354 1.483 1.864zm1.364-7.623c.206-.417.334-.89.391-1.349a1.451 1.451 0 01-.36.53c-.69.654-1.498 1.292-1.653 2.219-.02.134-.036.267-.072.396-.03.015-.03-.02-.04-.03l.087-1.144c.082-1.116-.505-2.357.139-3.34-.021-.005-.036.015-.052.02-.587.747-.978 1.57-.978 2.574 0 1.24.716 2.11.803 3.274.185-1.215 1.205-2.08 1.735-3.15zm-.355-2.24c.473-.442 1.019-.771 1.42-1.296.479-.634.896-1.344 1.524-1.89-.85.33-1.766.67-2.316 1.545-.325.51-.376 1.111-.628 1.642zM1.699 8.3c.206-.422.54-.823.942-1.122.885-.67 1.853-1.534 1.869-2.666-.299.813-1.19 1.153-1.781 1.709a2.73 2.73 0 00-.695 1.019l-.02-.016c.071-.329.21-.622.308-.942.257-.864.211-1.899 1.055-2.48-.432.113-.798.39-1.122.751-.685.757-.623 1.874-.535 2.862.03.309.015.571-.02.885zm.237 5.96l.062.052c-.067-.463-.103-.968.03-1.41.201-.71.454-1.4.582-2.136.103-.572.222-1.215.155-1.766-.077.299-.155.592-.32.85-.622.962-1.26 2.094-.823 3.32-.01.015-.026.03-.041.02-.175-.407-.216-.865-.33-1.297C.948 10.744.068 9.782.325 8.454c-.14.288-.19.612-.263.926-.154.813 0 1.673.222 2.424.273.932 1.184 1.601 1.652 2.456z"/></g></svg>