<svg role="img" viewBox="0 0 24 24" xmlns="http://www.w3.org/2000/svg"><title>UnJS</title><path d="M0 1.32v21.343A1.496 1.496 0 0 0 1.484 24h21.014A1.5 1.5 0 0 0 24 22.501V1.483A1.496 1.496 0 0 0 22.674 0H1.308A1.492 1.492 0 0 0 0 1.321Zm15.719 14.392c0-.092.012-.176.046-.252a.43.43 0 0 1 .166-.19.45.45 0 0 1 .222-.074.45.45 0 0 1 .23.052c.076.04.136.094.178.16.04.062.064.14.07.226v.12l.074-.06c.194-.176.404-.32.63-.428.23-.11.478-.178.731-.2.15-.016.3-.02.444-.012.445.006.869.189 1.178.508l.116.132v.004h.004c.242.324.35.69.394 1.076.026.208.032.42.034.63v2.651c0 .204-.066.368-.252.47a.444.444 0 0 1-.66-.382c-.004-.214 0-.426 0-.64 0-.78 0-1.557-.004-2.335a1.456 1.456 0 0 0-.214-.8.936.936 0 0 0-.712-.432 1.92 1.92 0 0 0-.443 0c-.279.03-.544.136-.766.306a1.886 1.886 0 0 0-.318.312c-.084.104-.144.216-.18.336s-.056.248-.056.38v2.835a.46.46 0 0 1-.612.448c-.088-.028-.162-.086-.214-.164s-.084-.178-.086-.288v-4.39Zm-5.534-.39a.46.46 0 0 1 .356-.12c.236.012.414.224.416.496v1.646c0 .424-.002.847.006 1.271.002.21.055.415.154.598.142.258.36.42.644.498.188.05.374.076.56.068s.368-.042.55-.114c.088-.034.172-.08.248-.136.218-.167.362-.413.4-.686.026-.146.034-.296.034-.446v-2.701c0-.252.12-.424.34-.48.052-.016.108-.012.164-.016h.006c.252.044.402.216.4.472 0 1.022.012 2.046-.016 3.067a1.834 1.834 0 0 1-.952 1.614c-.262.152-.55.234-.85.268-.388.046-.776.04-1.154-.07a2.316 2.316 0 0 1-.42-.164 1.8 1.8 0 0 1-.862-.956 2.568 2.568 0 0 1-.164-.97v-2.775c0-.152.052-.278.14-.364Z"/></svg>