<svg role="img" viewBox="0 0 24 24" xmlns="http://www.w3.org/2000/svg"><title>Unlicense</title><path d="M12 0A12 12 0 0 0 0 12a12 12 0 0 0 12 12 12 12 0 0 0 12-12A12 12 0 0 0 12 0Zm0 2.45a9.551 9.551 0 0 1 5.557 1.79L4.24 17.557A9.551 9.551 0 0 1 2.45 12 9.551 9.551 0 0 1 12 2.45Zm0 2.816A6.735 6.735 0 0 0 5.266 12a6.735 6.735 0 0 0 .826 3.215l2.351-2.352A3.673 3.673 0 0 1 8.326 12 3.673 3.673 0 0 1 12 8.326a3.673 3.673 0 0 1 .865.115l2.348-2.347A6.735 6.735 0 0 0 12 5.266Zm7.73 1.129A9.551 9.551 0 0 1 21.55 12 9.551 9.551 0 0 1 12 21.55a9.551 9.551 0 0 1-5.605-1.82ZM17.904 8.77l-1.638 1.638h2.277a6.735 6.735 0 0 0-.639-1.638Zm-2.543 4.699A3.673 3.673 0 0 1 12 15.674a3.673 3.673 0 0 1-.879-.121L8.773 17.9a6.735 6.735 0 0 0 3.227.834 6.735 6.735 0 0 0 6.555-5.265Z"/></svg>