<svg xmlns="http://www.w3.org/2000/svg" viewBox="0 0 24 24"><path d="M.088 11.854l.865-.877 2.178-.865 1.678 4.475c.095.34.296.639.573.856.242.198.554.292.865.26a.375.375 0 00.292-.146c.177-.198 0-.574 0-.74-.198-.553-.855-2.316-1.74-4.695l.854-.887 4.002-1.481 2.648 1.68-.667-1.857.906-.94 2.085-.824.625 1.638c.114-.498.322-.969.615-1.387a4.483 4.483 0 011.594-1.367 5.083 5.083 0 011.814-.615 4.228 4.228 0 011.657.198 4.034 4.034 0 012.084 1.627c.593.812.91 1.791.907 2.796a4.634 4.634 0 01-1.667 3.432c-.51.45-1.096.803-1.73 1.044a4.478 4.478 0 01-2.97.292l.072.344-.98.918-1.698.605-2.835-1.867.73 2.086-.96.95-2.084.72-.406-1.044a4.987 4.987 0 01-.97 1.336 5 5 0 01-2.417 1.251c-.83.22-1.71.146-2.491-.208a3.41 3.41 0 01-1.345-1.346l-.75-1.721zm8.098-3.286l2.751 7.396 1.574-.584a777.31 777.31 0 01-1.772-4.736l.573.375.542.365 4.17 2.681 1.27-.459c-.944-2.476-1.882-4.955-2.813-7.438l-1.553.584 1.75 4.549L9.52 8.077zm10.662-4.09a3.89 3.89 0 00-2.866 2.942 4.541 4.541 0 001.042 3.766 3.49 3.49 0 003.908 1.137 3.494 3.494 0 002.543-2.785 4.489 4.489 0 00-1.178-3.985 3.68 3.68 0 00-.948-.751 3.551 3.551 0 00-1.751-.439 2.978 2.978 0 00-.75.115zM7.644 8.745l-1.553.553c.76 2.086 1.292 3.63 1.563 4.173.107.261.164.541.167.824a1.43 1.43 0 01-.907 1.46 1.541 1.541 0 01-1.761-.198 2.024 2.024 0 01-.615-.939c-.51-1.345-1.042-2.691-1.522-4.047a.365.365 0 00-.062-.146l-1.543.573c.013.054.03.106.052.157.47 1.283.949 2.556 1.428 3.828a5.98 5.98 0 00.792 1.617 2.73 2.73 0 002.46 1.044 4.604 4.604 0 002.168-.772 2.66 2.66 0 001.157-1.617 3.268 3.268 0 00-.073-1.784c-.25-.762-.542-1.523-.813-2.274-.271-.752-.626-1.607-.938-2.452zm14.216-.49a2.777 2.777 0 01-.49 1.752 1.583 1.583 0 01-1.887.616 2.617 2.617 0 01-1.803-1.888c-.358-1 .09-2.109 1.043-2.577a1.77 1.77 0 011.76 0 2.41 2.41 0 011.377 2.097zm-1.678-.48a1.844 1.844 0 00-1.501-.564 1.042 1.042 0 00-.76.439c-.14.235-.181.516-.116.782.138.565.439 1.077.865 1.471.245.275.576.459.938.522.34.05.826.05.949-.272.387-1.016.16-1.678-.375-2.378z"/></svg>