<svg role="img" viewBox="0 0 24 24" xmlns="http://www.w3.org/2000/svg"><title>Uno</title><path d="M0 12.373l.871-.877 2.193-.865 1.69 4.475c.095.34.298.639.577.856.243.198.557.292.87.26a.378.375 0 00.295-.146c.178-.198 0-.574 0-.74-.2-.553-.861-2.316-1.752-4.695l.86-.887 4.03-1.481 2.666 1.68-.672-1.857.912-.94 2.1-.824.629 1.638c.115-.498.324-.97.62-1.387a4.514 4.483 0 011.604-1.367A5.118 5.083 0 0119.32 4.6a4.257 4.228 0 011.668.198 4.062 4.034 0 012.099 1.627c.597.812.916 1.79.913 2.796a4.666 4.634 0 01-1.679 3.432 5.693 5.693 0 01-1.742 1.044 4.509 4.478 0 01-2.99.292l.072.344-.986.918-1.71.605-2.855-1.867.735 2.086-.966.95-2.099.72-.409-1.044a5.022 4.987 0 01-.976 1.336 5.035 5 0 01-2.434 1.25 3.773 3.773 0 01-2.508-.207 3.434 3.41 0 01-1.355-1.346l-.755-1.721zm8.154-3.286l2.77 7.396 1.585-.584a782.69 777.31 0 01-1.784-4.736l.577.375.545.365 4.2 2.68 1.278-.458c-.95-2.476-1.895-4.955-2.832-7.438l-1.564.584 1.762 4.549-5.194-3.224zm10.736-4.09a3.917 3.89 0 00-2.886 2.942 4.572 4.541 0 001.05 3.766 3.514 3.49 0 003.934 1.137 3.518 3.494 0 002.56-2.785 4.52 4.489 0 00-1.185-3.985 3.705 3.68 0 00-.955-.751 3.576 3.551 0 00-1.763-.44 2.999 2.978 0 00-.755.116zM7.608 9.264l-1.563.553c.765 2.086 1.3 3.63 1.573 4.173.108.26.166.54.169.824a1.44 1.43 0 01-.914 1.46 1.552 1.541 0 01-1.773-.198 2.038 2.024 0 01-.62-.94c-.513-1.344-1.048-2.69-1.532-4.046a.368.365 0 00-.062-.146l-1.554.573c.013.054.03.106.053.157.473 1.283.955 2.556 1.437 3.828a6.021 5.98 0 00.798 1.617 2.749 2.73 0 002.477 1.044 4.636 4.604 0 002.183-.772 2.678 2.66 0 001.165-1.617 3.29 3.268 0 00-.074-1.784c-.251-.762-.545-1.523-.818-2.274-.273-.752-.63-1.607-.945-2.452zm14.315-.49a2.796 2.777 0 01-.494 1.752 1.594 1.583 0 01-1.9.616 2.635 2.617 0 01-1.815-1.888 2.08 2.08 0 011.05-2.577 1.782 1.77 0 011.772 0 2.427 2.41 0 011.387 2.097zm-1.69-.48a1.857 1.844 0 00-1.511-.564 1.05 1.042 0 00-.766.439 1.037 1.037 0 00-.116.782c.139.565.442 1.077.87 1.47.247.276.58.46.945.523.342.05.832.05.956-.272.39-1.016.16-1.678-.378-2.378z"/></svg>