<svg role="img" viewBox="0 0 24 24" xmlns="http://www.w3.org/2000/svg"><title>Uploaded icon</title><path d="M14.651 13.864a4.613 4.613 0 01-4.613 4.613 4.613 4.613 0 01-4.613-4.613 4.613 4.613 0 014.613-4.613 4.613 4.613 0 014.613 4.613z M18.148 19.904c-1.33 1.334-3.109 3.957-8.119 4.095C4.578 24.147.07 19.515.051 13.717c-.01-2.945.774-4.659 2.82-6.792C4.095 5.647 9.875.002 9.875.002c1.989 2.095 1.258 4.578-.108 5.93L6.035 9.637c-.47.465-1.968 1.925-1.931 4.444.045 3.202 2.51 5.85 5.799 5.8 2.632-.042 3.756-1.356 4.376-1.98l3.904-3.922c1.624-1.63 4.63-1.39 5.766.099z"/></svg>