<svg role="img" viewBox="0 0 24 24" xmlns="http://www.w3.org/2000/svg"><title>Uptobox</title><path d="M20.804 9.94c0 .037.17.491.369.992l.378.927-.36.917c-.585 1.504-.595 1.362.095 1.333.568-.028.596-.038.69-.33.161-.464.237-.473.407-.048l.152.397h.747c.416 0 .737-.028.718-.075-.274-.558-.832-2.062-.832-2.241 0-.067.151-.511.331-.984.18-.463.331-.88.331-.908 0-.028-.236-.047-.539-.028-.52.028-.539.038-.643.36-.132.397-.246.387-.388-.029-.104-.303-.104-.303-.775-.33-.378-.02-.68.009-.68.046zm-3.243.103c-.142.152-.16.435-.16 1.977 0 1.617.018 1.815.17 1.947.141.133.396.161 1.418.161 1.626 0 1.531.123 1.531-2.127 0-2.26.095-2.128-1.55-2.128-1.097 0-1.277.02-1.41.17zm1.541 2.014c0 .899-.019 1.04-.151 1.012-.076-.019-.142-.057-.142-.104.01-.038.01-.492.01-1.012 0-.775.028-.945.141-.945.114 0 .142.18.142 1.05zm-5.2-.056v2.127h1.408c1.712 0 1.665.029 1.646-1.125a106.98 106.98 0 0 1-.02-1.872c.01-.965-.009-1.06-.188-1.154-.104-.057-.747-.104-1.513-.104H13.9zm1.683-.653c-.038.369-.303.369-.34 0-.039-.274.15-.491.292-.35.048.048.067.199.048.35zm.019 1.41c0 .264-.038.33-.19.33-.141 0-.189-.066-.189-.265 0-.302.066-.397.256-.397.075 0 .123.114.123.331zm-4.946-2.715c-.142.152-.16.435-.16 1.977 0 1.617.018 1.815.17 1.947.141.133.387.161 1.361.161 1.021 0 1.201-.019 1.333-.17.142-.151.161-.435.161-1.976 0-1.617-.019-1.816-.17-1.948-.142-.132-.388-.16-1.362-.16-1.02 0-1.2.018-1.333.17zm1.541 2.014c0 .965-.009 1.031-.189 1.031s-.189-.066-.189-1.03c0-.738.038-1.05.123-1.079.227-.075.255.048.255 1.078zm-5.106-2.042a.145.145 0 0 1-.142.142c-.113 0-.141.123-.141.52s.028.52.141.52c.123 0 .142.217.142 1.352 0 .927.038 1.39.114 1.466.075.075.51.113 1.324.113 1.626 0 1.607.02 1.57-1.494l-.03-1.106H8.749l-.028.775c-.02.615-.057.785-.161.785-.114 0-.142-.18-.142-.945v-.937l.832-.028.823-.028v-.946l-.804-.028c-.577-.02-.823-.066-.88-.161-.113-.208-1.295-.199-1.295 0zm-3.687 1.986v2.137l.67-.029.672-.028.02-.757.009-.756.709-.028c.388-.02.756-.076.822-.133.17-.132.17-2.26.01-2.42-.076-.076-.548-.114-1.513-.114h-1.4zm1.74-.936c.085.217-.02.51-.18.51-.18 0-.274-.36-.142-.52.151-.18.246-.18.321.01zm-5.144.784c0 2.45-.114 2.28 1.626 2.28 1.588 0 1.494.15 1.494-2.346v-1.92l-.68.03-.682.027-.01 1.485c0 1.03-.037 1.522-.113 1.598-.18.18-.217-.019-.236-1.617L1.373 9.92l-.681-.028-.69-.028z"/></svg>