<svg role="img" viewBox="0 0 24 24" xmlns="http://www.w3.org/2000/svg"><title>Uptodown</title><path d="m23.7261 11.3154-2.7589-2.759a.974.974 0 0 0-1.377 0l-2.759 2.759a.974.974 0 0 1-1.3782 0l-2.7589-2.759a.974.974 0 0 0-1.3782 0l-2.759 2.759a.974.974 0 0 1-1.377 0L4.421 8.5564a.974.974 0 0 0-1.377 0l-2.759 2.759a.974.974 0 0 0 0 1.377l3.4439 3.4439 4.1324 4.1323 3.4438 3.4438a.974.974 0 0 0 1.3782 0l3.4439-3.4438 4.1323-4.1323 3.4438-3.4439a.974.974 0 0 0 .0228-1.377zM11.3303 7.1818a.974.974 0 0 0 1.377 0l2.759-2.7589a.974.974 0 0 0 0-1.377l-2.759-2.759a.974.974 0 0 0-1.377 0l-2.759 2.759a.974.974 0 0 0 0 1.377z"/></svg>