<?xml version="1.0" encoding="UTF-8"?> <svg role="img" id="Layer_1" data-name="Layer 1" xmlns="http://www.w3.org/2000/svg" viewBox="0 0 24 24"> <title>Urbium</title> <path d="M13.82,2.06v-.29l-4.92-1.78L3.83,3.66v1.86C1.97,7.54.95,10.17.95,12.95c0,6.09,4.94,11.05,11.05,11.05s11.05-4.94,11.05-11.05c-.02-5.43-3.98-10.01-9.23-10.89ZM21.6,12.95c0,1.47-.33,2.86-.92,4.13v-6.31l-4.88-1.76-1.98,1.06V3.51c4.45.86,7.78,4.78,7.78,9.44ZM18.56,19.94l-2.76-1-1.98,1.08v-1.67l2.1-1.14,3.31,1.21v.86c-.2.22-.43.45-.67.67ZM5.26,12.07l3.98-2.86,3.15,1.12v2.49l-3.39-1.23-3.74,2.72v-2.25ZM5.26,16.07l3.98-2.86,3.15,1.12v2.57l-3.39-1.23-3.76,2.68.02-2.29ZM13.84,15.05l2.08-1.12,3.31,1.21v1.76l-3.43-1.25-1.98,1.06.02-1.65ZM19.23,13.6l-3.43-1.25-1.98,1.06v-1.74l2.08-1.12,3.33,1.21v1.84ZM12.39,8.82l-3.39-1.23-3.74,2.7v-2.04l3.98-2.86,3.15,1.14v2.29ZM9.24,17.3l3.17,1.14v2.35l-3.39-1.23-2.1,1.51c-.51-.33-.98-.69-1.43-1.08l3.76-2.7ZM13.82,21.63l2.1-1.14,1.33.49c-1.02.67-2.19,1.16-3.43,1.39v-.74ZM9.12,1.59l3.27,1.18v2.25l-3.39-1.23-3.74,2.7v-2.12l3.86-2.78ZM3.83,7.86v10.15c-.92-1.47-1.45-3.21-1.45-5.07s.51-3.57,1.45-5.09ZM8.32,21.83l.92-.65,3.17,1.14v.22c-.14,0-.27.02-.41.02-1.31-.02-2.55-.29-3.68-.74Z"/> </svg>