<svg role="img" viewBox="0 0 24 24" xmlns="http://www.w3.org/2000/svg"><title>USPS icon</title><path d="M24 4.653l-3.113 14.695H1.439s18.477-7.23 18.678-7.364c0 0 1.64-2.209.669-3.113-.301-.301-.736-.301-2.41-.301 0 0-.067-.636-2.644-1.238-.301-.068-12.619-2.679-12.619-2.679H24zm-4.084 6.694c.167-.268.636-1.138.669-1.473.067-.669-.402-.77-1.205-.77h-1.238c-.1 0-.134.033-.167.1-.1.1-.268.201-.335.268-.268.134-1.071.268-1.339.301-.268.033-.402.033-.402.1 0 .1.368.067.502.067.603 0 2.979-.167 3.548-.067.435.067-.067.937-.201 1.473-.033.202.101.102.168.001zm-5.154 1.038c1.406-.469 1.473-.469 2.812-.803.77-.201 1.741-.335 1.874-.402.201-.134-.201-.301-1.205-.268-2.377.1-6.326 1.707-7.933 2.477L8.904 9.105h9.038c-.1-1.038-5.322-1.038-5.49-1.038H2.41L0 19.347l9.941-4.921c1.942-.903 3.247-1.506 4.821-2.041z"/></svg>