<svg role="img" viewBox="0 0 24 24" xmlns="http://www.w3.org/2000/svg"><title>UTS</title><path d="M4.518 8.75v8.757l.196.385c.139.261 1.022 1.202 2.846 3.017C10.692 24.024 10.659 24 11.959 24c1.407 0 1.398 0 4.588-3.205 2.355-2.372 2.681-2.732 2.804-3.083.115-.369.131-1.243.131-9.061V0H4.518v8.75Zm9.24-5.847c0 .106-1.652 1.758-1.758 1.758-.041 0-.474-.392-.956-.875l-.884-.883.916-.916.924-.924.875.875c.491.482.883.916.883.965Zm-1.799 2.248H14.2l.457-.449.451-.45.924.924.915.916-.924.924-.915.916-.451-.45-.441-.449H12.94v2.6l-.302-.115c-.401-.139-.883-.139-1.292.009-.18.065-.335.122-.344.122-.016 0-.024-.589-.024-1.308V7.033H9.702l-.441.449-.442.45-.883-.875c-.491-.483-.883-.916-.883-.965 0-.041.392-.474.875-.957l.883-.883.45.45.458.449h2.24Zm.63 4.866c.303.131 1.742 1.472 1.742 1.636 0 .048-.295.376-.654.735l-.655.654-.507-.515-.515-.506-2.224 2.224-2.233 2.232-.694-.695-.696-.695 2.47-2.47c1.366-1.365 2.584-2.526 2.723-2.6.319-.156.867-.156 1.243 0Zm-4.375 2.347-.671.678-.694-.695-.696-.694.671-.671.679-.679.695.695.695.695-.679.671Zm7.057 1.856c-2.764 2.756-2.796 2.781-3.573 2.658-.303-.05-.467-.172-1.235-.924l-.883-.859.679-.679.678-.678.507.507.515.515 2.233-2.233 2.224-2.224.695.695.695.695-2.535 2.527Zm1.856.147c.352.352.638.671.638.72 0 .049-.294.376-.654.736l-.654.654-.695-.695-.696-.695.671-.671c.376-.376.695-.678.72-.678.016 0 .327.286.67.629Zm-8.398 2.642.483.49.499-.49c.27-.27.531-.491.58-.491.041 0 .368.294.728.654l.654.654-.777.777c-.859.867-1.12 1.022-1.676 1.022-.531 0-.793-.164-1.652-1.006l-.76-.752.67-.671c.376-.376.695-.678.72-.678.024 0 .261.221.531.491Zm5.495.016.515.507.532-.523.531-.532.671.679.678.67-.776.785c-.426.425-.875.834-.998.9-.286.147-.989.147-1.276 0-.122-.066-.572-.475-.997-.9l-.777-.785.654-.654c.36-.36.671-.654.687-.654.025 0 .278.229.556.507Zm-1.693 2.723.532-.532.679.679.679.679-.892.867c-.809.793-.924.874-1.275.924-.671.106-.957-.042-1.881-.941l-.826-.81.695-.703.695-.695.532.532.531.532.531-.532Z"/></svg>