<svg xmlns="http://www.w3.org/2000/svg" viewBox="0 0 24 24" role="img"><title>V8 icon</title><path d="M7.458 6.504c0-.151.007-.303.022-.451.018-.194.066-.377.105-.564l-.654-1.295H1.027L3.08 7.787h1.438l1.974 3.746A6.16 6.16 0 0 1 8.117 8.95a4.823 4.823 0 0 1-.659-2.446zM10.782 19.363l1.539 2.799 1.54-2.8c-.503.13-1.015.22-1.54.22-.525 0-1.036-.09-1.539-.219zM17.712 4.194l-.675 1.184a4.211 4.211 0 0 1 .147 1.126c0 .866-.227 1.703-.658 2.446a6.176 6.176 0 0 1 1.625 2.584l1.973-3.747h1.438l2.054-3.593h-5.904z M17.823 12.158a5.644 5.644 0 0 0-1.951-3.115 4.36 4.36 0 0 0 .793-2.937c-.198-2.226-2.068-3.966-4.344-3.966a4.36 4.36 0 0 0-4.364 4.364c0 .947.302 1.822.814 2.539a5.632 5.632 0 0 0-2.097 4.391 5.656 5.656 0 0 0 3.59 5.263 5.676 5.676 0 0 0 4.118-.003 5.651 5.651 0 0 0 3.441-6.536zm-5.502-7.322a1.926 1.926 0 1 1 0 3.852 1.926 1.926 0 0 1 0-3.852zm0 10.781a2.184 2.184 0 0 1 0-4.365c1.207 0 2.182.976 2.182 2.182s-.975 2.183-2.182 2.183z"/></svg>