<svg role="img" viewBox="0 0 24 24" xmlns="http://www.w3.org/2000/svg"><title>Vaadin icon</title><path d="M12.005 23.457a1.413 1.413 0 001.286-.829l.034-.059 4.932-9.128a1.58 1.58 0 00-1.373-2.37c-.702 0-1.177.344-1.5 1.08l-3.382 6.306-3.38-6.296c-.31-.746-.801-1.087-1.503-1.087a1.58 1.58 0 00-1.373 2.367l4.939 9.14.021.04a1.413 1.413 0 001.299.849m.003-13.57a1.261 1.261 0 001.26-1.261v-.31a1.199 1.199 0 011.2-1.194h6.46A3.069 3.069 0 0024 4.067V1.703a1.18 1.18 0 00-2.205-.578 1.174 1.174 0 00-.15.575v.748a1.199 1.199 0 01-1.21 1.187h-5.837a2.525 2.525 0 00-2.485 2.146 3.727 3.727 0 00-.062.621h-.053a3.727 3.727 0 00-.062-.62 2.525 2.525 0 00-2.484-2.144h-5.89a1.199 1.199 0 01-1.198-1.183v-.743a1.174 1.174 0 00-.153-.562A1.18 1.18 0 000 1.715V4.08a3.069 3.069 0 003.072 3.066h6.46a1.199 1.199 0 011.2 1.192v.311a1.261 1.261 0 001.26 1.261h.016z"/></svg>