<svg role="img" viewBox="0 0 24 24" xmlns="http://www.w3.org/2000/svg"><title>Valkey</title><path d="m5.915 20.214-4.302-2.686V6.03L12.129 0l10.258 6.037v12.096L11.967 24 8.35 21.734v-5.513l-1.964-1.225V8.76l5.683-3.254 5.55 3.269v6.531l-4.399 2.48v-2.635a3.57 3.57 0 0 0 2.266-3.35c0-1.986-1.572-3.58-3.483-3.58S8.52 9.815 8.52 11.801c0 1.542.945 2.841 2.266 3.35v4.982l1.255.79 7.704-4.34V7.55l-7.63-4.487-7.853 4.502v8.494l1.653 1.033zm6.089-10.052c.863 0 1.55.746 1.55 1.646s-.687 1.646-1.55 1.646c-.864 0-1.55-.746-1.55-1.646s.686-1.646 1.55-1.646"/></svg>