<svg role="img" viewBox="0 0 24 24" xmlns="http://www.w3.org/2000/svg"><title>Valorant</title><path d="m23.792 2.1516c-0.0396 0.019099-0.0722 0.046896-0.09779 0.083193-3.3838 4.2302-6.7689 8.4597-10.151 12.691-0.10625 0.09369-0.0243 0.28804 0.1197 0.26567 2.4387 3e-3 4.8774-8.7e-4 7.3161 1e-3 0.2111 0.0107 0.42268-0.08189 0.55176-0.24962 0.77408-0.96794 1.5498-1.935 2.3239-2.9034 0.11324-0.13701 0.1515-0.31762 0.14451-0.49192-2e-3 -3.0763 8.1e-4 -6.1521-3e-3 -9.2283 0.0154-0.10998-0.09949-0.20748-0.20435-0.16787zm-23.716 0.014599c-0.077394 0.037797-0.074494 0.13166-0.075894 0.20435 0.0019998 3.0749 9.9992e-4 6.1505 9.9992e-4 9.2254-0.0069994 0.16731 0.049496 0.33411 0.15765 0.46273 2.5473 3.183 5.0928 6.367 7.6402 9.5495 0.1207 0.15332 0.3084 0.25048 0.50506 0.24815 2.4551 0 4.9107 3e-3 7.3657 0 0.14214 0.021 0.2221-0.17433 0.11677-0.26567-5.1273-6.4149-10.261-12.826-15.388-19.241-0.079694-0.093693-0.17487-0.272-0.32259-0.18392z"/></svg>
