<svg role="img" viewBox="0 0 24 24" xmlns="http://www.w3.org/2000/svg"><title>VB</title><path d="m4.002 5.004 1.996 9.494L8 5.004h3.997L8 18.996H4.004L0 5.004h4.002Zm9.992 0h6.513c1.006.116 1.913.662 2.485 1.499.326.524.496 1.13.489 1.748a3.411 3.411 0 0 1-.489 1.743 3.5242 3.5242 0 0 1-2.006 1.511c1.015.113 1.932.662 2.51 1.504.337.538.511 1.164.497 1.8.045.759-.126 1.517-.496 2.182a4.3285 4.3285 0 0 1-3 2.003h-6.503V5.004Zm4.001 5.498h.999c1.155-.078 1.791-1.376 1.147-2.338-.26-.385-.683-.63-1.147-.661h-.999v2.999Zm0 5.998h1.191c1.349-.066 2.12-1.568 1.388-2.702a1.759 1.759 0 0 0-1.388-.802h-1.191V16.5Z"/></svg>