<?xml version="1.0" encoding="utf-8"?>
<svg viewBox="0 1 16.4 16.4" xmlns="http://www.w3.org/2000/svg">
  <defs>
    <style type="text/css">
	.st0{fill:#FFFFFF;}
</style>
  </defs>
  <path class="st0" d="M 8.2 1 C 3.7 1 0 4.7 0 9.2 C 0 13.7 3.7 17.4 8.2 17.4 C 12.7 17.4 16.4 13.7 16.4 9.2 C 16.3 4.7 12.7 1 8.2 1 Z M 8.2 16.5 C 4.2 16.5 0.9 13.2 0.9 9.2 C 0.9 5.2 4.2 1.9 8.2 1.9 C 12.2 1.9 15.5 5.2 15.5 9.2 C 15.4 13.2 12.2 16.5 8.2 16.5 Z M 6 6.1 L 4.4 6.1 C 4.3 6.1 4.3 6.2 4.3 6.2 L 7.3 13.5 C 7.3 13.6 7.4 13.6 7.5 13.6 L 8.8 13.6 C 9 13.7 9 13.6 9 13.5 L 6 6.1 C 6.1 6.2 6 6.1 6 6.1 Z M 11.9 6.1 L 10.4 6.1 C 10.4 6.1 10.3 6.1 10.3 6.2 L 9.1 9.1 C 9.1 9.2 9.1 9.3 9.1 9.4 L 9.8 11.1 C 9.8 11.2 10 11.2 10 11.1 L 12 6.3 C 12 6.2 12 6.1 11.9 6.1 Z" style="fill: rgb(0, 0, 0);"/>
</svg>