<svg xmlns="http://www.w3.org/2000/svg" role="img" viewBox="0 0 24 24"><title>Vectorworks icon</title><path d="M 8.784,7.465 H 6.44 c -0.147,0 -0.1729891,0.079773 -0.147,0.143 l 4.392,10.685 c 0.05589,0.135962 0.147,0.147 0.29,0.147 h 2.088301 c 0.166549,0 0.164038,-0.01098 0.107699,-0.15 z m 8.749187,0 H 15.224 c -0.06932,0 -0.09337,0.00351 -0.151,0.143 l -1.754,4.245 c -0.05575,0.134935 -0.05553,0.302972 0,0.438 l 1.024,2.49 c 0.05251,0.127678 0.235568,0.132903 0.291,0 l 2.93,-7.025 C 17.681956,7.4731863 17.681187,7.465 17.533187,7.465 Z M 12,0 C 5.3725803,9.388818e-6 0,5.3725896 0,12 c 0,6.62741 5.3725803,11.999991 12,12 6.62742,-9e-6 12,-5.37259 12,-12 C 24,5.3725896 18.62742,9.388818e-6 12,0 Z m -0.01563,1.3183594 h 0.002 H 12 C 17.899457,1.3180147 22.681995,6.1005527 22.681641,12 22.681995,17.899447 17.899457,22.681986 12,22.681641 6.1005433,22.681985 1.3180053,17.899447 1.3183594,12 1.3180001,6.1066499 6.0910214,1.3266366 11.984375,1.3183594 Z"/></svg>
