<svg role="img" viewBox="0 0 24 24" xmlns="http://www.w3.org/2000/svg"><title>Veeam icon</title><path d="m 6.63,9.842 c -1.104,0 -2.001,0.945 -2.001,2.101 v 0.108 c 0,1.322 0.847,2.038 1.975,2.101 0.051,0.006 0.108,0.006 0.16,0.006 0.435,0 0.794,-0.115 1.195,-0.361 0.04,-0.023 0.201,-0.132 0.361,-0.338 0.132,-0.166 0.138,-0.411 0,-0.543 -0.2,-0.189 -0.412,-0.086 -0.595,0.074 -0.292,0.246 -0.516,0.442 -1.1,0.442 -0.55,0 -1.064,-0.316 -1.19,-0.94 0,-0.023 0.01,-0.045 0.034,-0.045 H 8.16 a 0.473,0.473 0 0 0 0.469,-0.504 c 0,-1.156 -0.893,-2.101 -1.998,-2.101 z m 4.466,0 c -1.1,0 -1.996,0.945 -1.996,2.101 v 0.108 c 0,1.322 0.846,2.038 1.974,2.101 0.052,0.006 0.109,0.006 0.16,0.006 0.435,0 0.795,-0.115 1.196,-0.361 0.04,-0.023 0.2,-0.132 0.361,-0.338 0.132,-0.166 0.137,-0.411 0,-0.543 -0.2,-0.189 -0.413,-0.086 -0.596,0.074 -0.292,0.246 -0.515,0.442 -1.1,0.442 -0.549,0 -1.063,-0.316 -1.189,-0.94 -0.006,-0.023 0.01,-0.045 0.028,-0.045 h 2.691 a 0.473,0.473 0 0 0 0.469,-0.504 c -0.006,-1.156 -0.9,-2.101 -1.998,-2.101 z m -6.89,0.04 a 0.4,0.4 0 0 0 -0.345,0.223 l -1.42,3.063 c -0.034,0.063 -0.062,0.11 -0.136,0.11 -0.075,0 -0.105,-0.047 -0.139,-0.11 L 0.746,10.111 A 0.38,0.38 0 0 0 0.215,9.934 0.428,0.428 0 0 0 0.043,10.494 l 1.39,2.828 0.16,0.32 a 0.8,0.8 0 0 0 0.712,0.46 0.791,0.791 0 0 0 0.709,-0.46 l 0.16,-0.32 1.385,-2.834 A 0.423,0.423 0 0 0 4.393,9.928 0.376,0.376 0 0 0 4.205,9.883 Z m 11.362,0 a 0.762,0.762 0 0 0 -0.504,0.188 0.808,0.808 0 0 0 -0.207,0.27 l -1.591,3.137 c 0,0.005 -0.006,0.006 -0.006,0.011 v 0.006 a 0.434,0.434 0 0 0 0.029,0.442 c 0,0.005 0.006,0.006 0.006,0.011 0,0.006 0.006,0.004 0.006,0.01 a 0.372,0.372 0 0 0 0.516,0.076 c 0,0 0.005,0 0.005,-0.006 a 0.083,0.083 0 0 0 0.024,-0.017 l 0.015,-0.018 0.006,-0.006 a 0.485,0.485 0 0 0 0.076,-0.103 L 14,13.758 l 0.332,-0.7 c 0.006,-0.017 0.028,-0.027 0.045,-0.027 h 1.484 c 0.195,0 0.354,-0.167 0.354,-0.379 0,-0.206 -0.159,-0.377 -0.354,-0.377 h -1.099 c -0.023,0 -0.041,-0.024 -0.03,-0.046 l 0.08,-0.172 0.602,-1.207 v -0.006 c 0,0 0,-0.006 0.006,-0.006 0.011,-0.023 0.04,-0.108 0.098,-0.125 0.034,-0.012 0.063,-0.012 0.086,0 0.063,0.017 0.084,0.091 0.113,0.148 l 1.455,3.022 a 0.393,0.393 0 0 0 0.48,0.195 c 0,0 0.006,0 0.006,-0.006 l 0.035,-0.017 c 0.006,0 0.007,-0.006 0.012,-0.006 0,0 0.006,0 0.006,-0.006 0.006,0 0.006,-0.006 0.012,-0.006 0.006,0 0.01,-0.004 0.01,-0.01 0.006,0 0.006,-0.006 0.011,-0.006 0.006,-0.006 0.012,-0.012 0.018,-0.012 l 0.017,-0.017 0.006,-0.006 a 0.408,0.408 0 0 0 0.092,-0.498 L 16.279,10.334 A 0.79,0.79 0 0 0 15.57,9.883 Z m 3.508,0 c -0.39,0 -0.709,0.332 -0.709,0.778 v 3.018 c 0,0.183 0.104,0.354 0.264,0.406 0.263,0.086 0.486,-0.143 0.486,-0.412 l -0.058,-2.938 a 0.03,0.03 0 0 1 0.052,-0.017 l 1.442,2.931 c 0.137,0.28 0.367,0.448 0.625,0.448 0.257,0 0.491,-0.167 0.623,-0.448 l 1.449,-2.935 c 0.011,-0.029 0.05,-0.019 0.05,0.016 l -0.056,2.955 c 0,0.234 0.177,0.423 0.389,0.412 C 23.839,14.09 24,13.889 24,13.666 V 10.66 C 24.011,10.208 23.69,9.889 23.3,9.883 a 0.684,0.684 0 0 0 -0.61,0.394 c -0.361,0.739 -1.426,2.93 -1.426,2.936 -0.006,0.011 -0.029,0.064 -0.075,0.064 -0.04,0 -0.068,-0.047 -0.074,-0.064 -0.349,-0.727 -1.047,-2.164 -1.408,-2.908 -0.143,-0.287 -0.379,-0.422 -0.63,-0.422 z M 6.625,10.529 c 0.698,0 1.14,0.527 1.209,1.145 0,0.023 -0.012,0.045 -0.035,0.045 H 5.469 C 5.446,11.713 5.436,11.697 5.436,11.674 5.51,11.067 5.926,10.529 6.625,10.529 Z m 4.47,0 h 0.003 c 0.697,10e-4 1.138,0.527 1.207,1.145 0,0.023 -0.013,0.045 -0.035,0.045 H 9.94 C 9.917,11.713 9.9,11.697 9.906,11.674 c 0.075,-0.606 0.493,-1.144 1.19,-1.145 z"/></svg>