<svg role="img" viewBox="0 0 24 24" xmlns="http://www.w3.org/2000/svg"><title>VEED.IO</title><path d="m6.8092 9.5721-1.837 4.5058a.685.685 0 0 1-.6347.4264H2.481a.685.685 0 0 1-.6345-.4258L.0042 9.572a.0555.0555 0 0 1 .0513-.0766h1.8596a.112.112 0 0 1 .1043.0723l1.3925 3.7139 1.3814-3.7135a.111.111 0 0 1 .1044-.0727h1.86a.0557.0557 0 0 1 .0515.0766m.1697-.0208v4.8974c0 .0307.025.0558.0557.0558H12.14a.056.056 0 0 0 .0556-.0558v-1.2211a.0557.0557 0 0 0-.0556-.0557H8.8176a.0557.0557 0 0 1-.0556-.0557v-.4022c0-.0305.025-.0555.0558-.0555h3.2468a.056.056 0 0 0 .0557-.0557V11.391a.0557.0557 0 0 0-.0557-.0557H8.8178a.0557.0557 0 0 1-.0558-.0557v-.3957c0-.0307.025-.0557.0558-.0557H12.14a.056.056 0 0 0 .0556-.0558V9.5513a.0557.0557 0 0 0-.0554-.0558H7.0346a.0557.0557 0 0 0-.0557.0558m5.4513 0v4.8974a.056.056 0 0 0 .056.0558h5.1055a.056.056 0 0 0 .0555-.0558v-1.2211a.056.056 0 0 0-.0555-.0557h-3.3226a.0557.0557 0 0 1-.0555-.0557v-.4022c0-.0305.025-.0555.0557-.0555h3.2469a.056.056 0 0 0 .0557-.0557V11.391a.0557.0557 0 0 0-.0557-.0557h-3.247a.0557.0557 0 0 1-.0558-.0557v-.3957c0-.0307.025-.0557.0557-.0557h3.3226a.056.056 0 0 0 .0555-.0558V9.5513a.056.056 0 0 0-.0555-.0558H12.486a.0557.0557 0 0 0-.0556.0558zm5.452 4.8974c0 .0307.025.0558.0556.0558h3.4978c.7656 0 1.3831-.1985 1.8556-.5986Q24 13.3106 24 11.9969c0-.876-.2363-1.5121-.7088-1.9093-.4725-.3938-1.0898-.592-1.8556-.592h-3.4979a.0557.0557 0 0 0-.0555.0557zm1.8387-1.2862a.0557.0557 0 0 1-.0557-.0557v-2.2136c0-.0306.025-.0557.0555-.0557h1.3055q.6048 0 .8978.2647c.1954.1763.2928.4756.2928.8947 0 .419-.0974.7246-.2928.901q-.293.2647-.8978.2646h-1.3055z"/></svg>