<svg role="img" viewBox="0 0 24 24" xmlns="http://www.w3.org/2000/svg"><title>Velocity</title><path d="M11.258 11.0372L8.27901 6.97242C8.20539 6.87181 8.10445 6.79439 7.98819 6.7493C7.87193 6.7042 7.74522 6.69332 7.62296 6.71793L2.87136 7.67806C2.77889 7.69705 2.69163 7.73588 2.61556 7.79178C2.5395 7.84769 2.47643 7.9194 2.43068 8.00192L0.08186 12.2474C0.02136 12.3565 -0.0066 12.4806 0.00131 12.6051C0.00922 12.7295 0.05266 12.8492 0.12648 12.9497L3.11263 17.026C3.1863 17.1266 3.28722 17.2041 3.40347 17.2492C3.51972 17.2942 3.64645 17.3051 3.76869 17.2805L8.50602 16.3237C8.59857 16.3047 8.68588 16.2659 8.76198 16.2098C8.83807 16.1538 8.90111 16.082 8.94671 15.9993L11.3032 11.7412C11.3639 11.6318 11.3918 11.5073 11.3838 11.3826C11.3758 11.2578 11.3322 11.1379 11.258 11.0372ZM7.98325 15.125C7.92741 15.1661 7.86395 15.1957 7.79668 15.2122C7.72934 15.2287 7.65939 15.2318 7.59092 15.2212C7.52238 15.2107 7.45666 15.1868 7.39736 15.1508C7.33814 15.1148 7.28661 15.0675 7.24567 15.0116L5.53802 12.6848C5.43877 12.5499 5.30317 12.4461 5.14709 12.3856C4.991 12.325 4.82089 12.3101 4.65666 12.3427L1.76029 12.9282C1.69237 12.942 1.6224 12.9422 1.55439 12.929C1.48637 12.9156 1.42164 12.8891 1.36389 12.8507C1.30614 12.8124 1.2565 12.7631 1.21781 12.7056C1.17912 12.6482 1.15213 12.5836 1.13839 12.5157C1.11059 12.3787 1.13824 12.2363 1.21527 12.1197C1.29231 12.0031 1.41244 11.9219 1.54932 11.8938L4.68916 11.2592C4.81405 11.2338 4.93196 11.1817 5.03477 11.1064C5.13757 11.031 5.22282 10.9343 5.28463 10.8229L6.8606 7.97715C6.92831 7.85496 7.04172 7.76461 7.17593 7.72585C7.31019 7.6871 7.45433 7.70319 7.57673 7.7706C7.69892 7.8383 7.78927 7.95173 7.82802 8.08592C7.86678 8.22018 7.85068 8.36432 7.78327 8.48672L6.33124 11.117C6.25024 11.264 6.21286 11.431 6.2235 11.5984C6.23413 11.7659 6.29234 11.9268 6.39129 12.0623L8.09894 14.3886C8.18111 14.5016 8.21506 14.6426 8.19339 14.7807C8.17172 14.9188 8.09612 15.0426 7.98325 15.125ZM21.1838 11.7744C21.4828 11.7744 21.7252 11.5319 21.7252 11.2329C21.7252 10.9338 21.4828 10.6914 21.1838 10.6914C20.8847 10.6914 20.6423 10.9338 20.6423 11.2329C20.6423 11.5319 20.8847 11.7744 21.1838 11.7744ZM23.4887 12.8584H13.6963C13.5527 12.8584 13.415 12.8014 13.3134 12.6998C13.2119 12.5983 13.1548 12.4605 13.1548 12.3169C13.1548 12.1734 13.2119 12.0356 13.3134 11.9341C13.415 11.8325 13.5527 11.7755 13.6963 11.7755H19.5474C19.6881 11.7709 19.8215 11.7119 19.9195 11.6108C20.0174 11.5097 20.0722 11.3744 20.0722 11.2337C20.0722 11.0929 20.0174 10.9577 19.9195 10.8566C19.8215 10.7555 19.6881 10.6964 19.5474 10.6919H15.6805C15.5369 10.6919 15.3991 10.6349 15.2976 10.5333C15.196 10.4318 15.139 10.2941 15.139 10.1504C15.139 10.0068 15.196 9.86904 15.2976 9.76753C15.3991 9.66595 15.5369 9.60892 15.6805 9.60892H21.5393C21.68 9.6044 21.8135 9.54539 21.9114 9.44431C22.0093 9.34315 22.0641 9.20791 22.0641 9.06715C22.0641 8.9264 22.0093 8.79115 21.9114 8.69007C21.8135 8.58892 21.68 8.52991 21.5393 8.52539H9.41676L11.258 11.0372C11.3317 11.1378 11.3748 11.258 11.3827 11.3825C11.3906 11.5069 11.3627 11.6311 11.3023 11.7402L8.9458 15.9983C8.92398 16.0376 8.89815 16.0745 8.86871 16.1084H20.5626C20.7063 16.1084 20.844 16.0514 20.9455 15.9498C21.0471 15.8483 21.1041 15.7105 21.1041 15.567C21.1041 15.4233 21.0471 15.2856 20.9455 15.1841C20.844 15.0825 20.7063 15.0255 20.5626 15.0255H17.614C17.5414 15.0278 17.469 15.0155 17.4013 14.9893C17.3335 14.9631 17.2717 14.9235 17.2196 14.873C17.1674 14.8225 17.1259 14.762 17.0976 14.6951C17.0692 14.6282 17.0546 14.5563 17.0546 14.4837C17.0546 14.4111 17.0692 14.3391 17.0976 14.2723C17.1259 14.2054 17.1674 14.1449 17.2196 14.0943C17.2717 14.0438 17.3335 14.0043 17.4013 13.9781C17.469 13.9519 17.5414 13.9396 17.614 13.9419H23.4887C23.5614 13.9443 23.6337 13.9319 23.7014 13.9058C23.7692 13.8796 23.831 13.8401 23.8832 13.7895C23.9353 13.739 23.9769 13.6784 24 13.6116C24 13.5447 24 13.4728 24 13.4002C24 13.3275 24 13.2556 24 13.1888C23.9769 13.1219 23.9353 13.0614 23.8832 13.0108C23.831 12.9603 23.7692 12.9207 23.7014 12.8946C23.6337 12.8684 23.5614 12.8561 23.4887 12.8584Z"/></svg>