<svg role="img" viewBox="0 0 24 24" xmlns="http://www.w3.org/2000/svg"><title>Velocity</title><path d="M11.866 11.0005L8.7261 6.77774C8.6485 6.67322 8.54211 6.59279 8.41957 6.54594C8.29704 6.49909 8.16349 6.48778 8.03463 6.51335L3.02642 7.51083C2.92896 7.53055 2.83698 7.57089 2.75681 7.62897C2.67664 7.68705 2.61016 7.76155 2.56194 7.84728L0.08628 12.2578C0.02251 12.3711 -0.00695 12.5001 0.00138 12.6294C0.00972 12.7587 0.05550 12.883 0.13330 12.9874L3.28072 17.2223C3.35837 17.3268 3.46474 17.4072 3.58727 17.4541C3.70979 17.5009 3.84337 17.5122 3.97221 17.4866L8.96537 16.4926C9.06291 16.4729 9.15495 16.4326 9.23515 16.3743C9.31535 16.3162 9.38179 16.2415 9.42985 16.1556L11.9136 11.7319C11.9775 11.6183 12.007 11.4889 11.9986 11.3594C11.9901 11.2297 11.9441 11.1052 11.866 11.0005ZM8.41437 15.2473C8.35552 15.29 8.28863 15.3207 8.21773 15.3379C8.14675 15.3551 8.07302 15.3583 8.00085 15.3473C7.92861 15.3364 7.85934 15.3115 7.79684 15.2741C7.73442 15.2367 7.68011 15.1876 7.63696 15.1295L5.83709 12.7122C5.73248 12.5721 5.58956 12.4643 5.42505 12.4013C5.26053 12.3384 5.08123 12.323 4.90814 12.3568L1.85536 12.9651C1.78376 12.9794 1.71001 12.9797 1.63833 12.9659C1.56664 12.952 1.49841 12.9244 1.43755 12.8846C1.37667 12.8448 1.32435 12.7936 1.28357 12.7338C1.2428 12.6741 1.21435 12.607 1.19987 12.5365C1.17056 12.3942 1.1997 12.2463 1.2809 12.1252C1.3621 12.004 1.48872 11.9196 1.63299 11.8904L4.94239 11.2312C5.07403 11.2048 5.19831 11.1506 5.30666 11.0724C5.41502 10.9942 5.50486 10.8937 5.57002 10.7779L7.2311 7.82154C7.30246 7.6946 7.42199 7.60073 7.56345 7.56047C7.70496 7.52021 7.85688 7.53693 7.98589 7.60697C8.11468 7.67729 8.20991 7.79514 8.25076 7.93455C8.2916 8.07402 8.27464 8.22377 8.20359 8.35093L6.67315 11.0835C6.58777 11.2362 6.54837 11.4097 6.55958 11.5836C6.57079 11.7576 6.63215 11.9248 6.73643 12.0656L8.53631 14.4823C8.62291 14.5997 8.6587 14.7462 8.63585 14.8896C8.61301 15.0331 8.53333 15.1618 8.41437 15.2473Z M21.1838 11.4228C21.4828 11.4228 21.7252 11.1803 21.7252 10.8813C21.7252 10.5822 21.4828 10.3398 21.1838 10.3398C20.8847 10.3398 20.6423 10.5822 20.6423 10.8813C20.6423 11.1803 20.8847 11.4228 21.1838 11.4228Z M23.4473 12.5713H13.7706C13.6287 12.5713 13.4926 12.5111 13.3922 12.4039C13.2918 12.2968 13.2355 12.1515 13.2355 12C13.2355 11.8485 13.2918 11.7032 13.3922 11.5961C13.4926 11.4889 13.6287 11.4287 13.7706 11.4287H19.5525C19.6916 11.424 19.8234 11.3617 19.9202 11.2551C20.017 11.1484 20.0711 11.0057 20.0711 10.8572C20.0711 10.7087 20.017 10.566 19.9202 10.4594C19.8234 10.3527 19.6916 10.2904 19.5525 10.2856H15.7313C15.5894 10.2856 15.4532 10.2255 15.3529 10.1183C15.2526 10.0112 15.1962 9.86592 15.1962 9.71437C15.1962 9.5629 15.2526 9.41753 15.3529 9.31045C15.4532 9.20328 15.5894 9.14311 15.7313 9.14311H21.5209C21.6599 9.13835 21.7918 9.07609 21.8885 8.96945C21.9853 8.86273 22.0394 8.72005 22.0394 8.57156C22.0394 8.42306 21.9853 8.28038 21.8885 8.17374C21.7918 8.06702 21.6599 8.00477 21.5209 8H9L11.3608 10.6506C11.4336 10.7567 11.4765 10.8829 11.4843 11.0142C11.4921 11.1455 11.4646 11.2765 11.4048 11.3916L9.07617 15.8838C9.05462 15.9252 9.02909 15.9642 9 16H20.5557C20.6977 16 20.8338 15.9398 20.9341 15.8327C21.0345 15.7255 21.0908 15.5802 21.0908 15.4287C21.0908 15.2772 21.0345 15.1319 20.9341 15.0248C20.8338 14.9177 20.6977 14.8575 20.5557 14.8575H17.6419C17.5702 14.8599 17.4987 14.8469 17.4317 14.8193C17.3648 14.7917 17.3037 14.7499 17.2522 14.6966C17.2006 14.6434 17.1596 14.5795 17.1317 14.509C17.1036 14.4384 17.0892 14.3626 17.0892 14.2859C17.0892 14.2093 17.1036 14.1334 17.1317 14.0629C17.1596 13.9923 17.2006 13.9285 17.2522 13.8752C17.3037 13.8218 17.3648 13.7801 17.4317 13.7525C17.4987 13.7249 17.5702 13.7119 17.6419 13.7144H23.4473C23.519 13.7168 23.5905 13.7038 23.6574 13.6762C23.7244 13.6486 23.7855 13.6069 23.8371 13.5536C23.8886 13.5003 23.9296 13.4364 23.9576 13.3659C23.9856 13.2953 24 13.2194 24 13.1428C24 13.0662 23.9856 12.9903 23.9576 12.9198C23.9296 12.8492 23.8886 12.7854 23.8371 12.732C23.7855 12.6787 23.7244 12.637 23.6574 12.6094C23.5905 12.5818 23.519 12.5688 23.4473 12.5713Z"/></svg>