<svg role="img" viewBox="0 0 24 24" xmlns="http://www.w3.org/2000/svg"><title>Vencord</title><path d="M3.013 0h-2.4v.618H0v10.105h.613v.645H1.2v.618h.613v.646H2.4v.617h.613v.646H3.6v.617h.613v.646H4.8v.618h.613v.645h2.4v-.645H8.4v5.052h.613v.646H10.8v1.881h.613V24h9.6v-.645h.587v-1.881h1.813v-.646H24v-2.526h-.587v-.618h-4.8v.618H18v1.909h-3.6v-8.843H18v1.881h.613v.646h4.8v-.646H24v-2.526h-.587v-.618H21.6V8.197h-.587V6.625h-.293V5.67h-.32v-.926h-.293v-.337h-.294v-.308h-.293v-.955h-.32v-.308h-.293v.308h-.294v.337h-.293v.308H18v.31h-.88v-.31h-.32v-.308h-.293v.308h-.294v.31h-.293v.308h-.907v.337H14.4v.309h-.293v.617h-.294v.338h-.293v1.571h-.32V.618h-.587V0h-2.4v.618H9.6V9.46h-.587v.645H8.4v.618h-.587v.645H7.2v.618H6v-.618h-.587v-.645H4.8v-.618h-.587V9.46H3.6V.618h-.587zm0 .618V9.46H3.6v.645h.613v.618H4.8v.645h.613v.618H6v.646h1.2v-.646h.613v-.618H8.4v3.79h-.587v.618h-2.4v-.618H4.8v-.646h-.587v-.617H3.6v-.646h-.587v-.617H2.4v-.646h-.587v-.618H1.2v-.645H.613V.618zm9.6 0v6.961h-1.2v.618H10.8v1.908H9.6V9.46h.613V.618zM19.2 3.144v1.6h.32v-.337h.293v.337c-.229-.065-.354.067-.293.309h.293c-.062-.242.065-.373.294-.309v.309c-.254-.076-.321.082-.294.309.029.226-.02.421 0 .646h-.293v.308h-.613v.309h-.294v.308h.294c-.123-.447.363-.281.613-.308-.062-.241.064-.374.293-.309v.617h-.293v.338h-.613v.308h-.294v-.308h-.293v.308c-.319.024-.73-.033-1.04 0s-.865-.177-.773.309h1.2v.309H15.92v-.309h-1.813v-.309h-.294V6.008h.294V5.67h.293v-.617h.613v-.309h.587v.309h-.293v1.263h.293c-.012-.265.016-.519 0-.786-.016-.266-.041-.596.32-.477v-.646h.293v-.308h.294v-.31h.293v.618h.32v.337h.293v-.337h.294v.337c-.229-.065-.355.067-.294.309H18v-.646h.32v-.618h.293v-.308h.294v-.337zm1.2 2.864v.925c-.25-.077-.348.095-.293.338-.229-.066-.355.067-.294.308-.413-.129-.275.357-.293.618h-.613c.067-.143-.101-.483.021-.597.121-.113.445.041.592-.021-.062-.241.064-.373.293-.308-.056-.243.043-.413.294-.338v-.925zm.32.925v.955h-.32v.309h-.587v-.309h.294v-.309h.293c.014-.283-.12-.786.32-.646m-3.92 3.79h-2.987v10.105h4.8v-2.526h4.8v2.526h-2.4v2.527h-9.6v-2.527h-2.4V10.723h2.4V8.197H15.6v.337H18v-.337h.613v.337h2.107v-.337h.293v2.526h2.4v2.526h-4.8v-2.526zM13.52.309h1.493v.309h-.293v.337h-.32V.618h-.293v.337h.293v.308h-.293v.31h-.294v.308h-.293v.337h2.08v-.337h-1.493v-.308h.293c-.073-.264.09-.368.32-.31V.955h.293c-.056-.243.043-.413.294-.337V.309h.293V0h-2.08zM3.013.618h-2.4v10.105H1.2v.645h.613v.618H2.4v.646h.613v.617H3.6v.646h.613v.617H4.8v.646h.613v.618h2.4v-.618H8.4v-3.79h-.587v.618H7.2v.646H6v-.646h-.587v-.618H4.8v-.645h-.587v-.618H3.6V9.46h-.587zm9.6 0h-2.4V9.46H9.6v.645h1.2V8.197h.613v-.618h1.2zm2.4.955v-.31c-.229-.064-.355.068-.293.31zm1.494 0h.906v.308h-.293v.337h-.613v.308H18v-.308h-.587c-.056-.242.043-.413.294-.337v-.308H18v-.31h-1.493zm-2.107.308h.32v-.308h-.32zm1.52 4.435c-.427-.138-.313.337-.32.617h.32zm.88 0h-.587v.309h.587zm.907.309c-.213-.022-.398.029-.614 0s-.365.041-.293.308h.907zm-1.494.308c-.249-.075-.349.095-.293.338h.293zm1.787 0c-.25-.075-.349.095-.293.338H18zm-1.493.338c-.229-.065-.356.067-.294.308h.294zM10.8 10.723v.645h.613v.618H12v.646h.613v.617h.587v.646h.613v-3.172H16.8v-.618h-.587V9.46H15.6v-.618h-.587v-.645h-3.6v2.526zm6 0h1.813v2.526h4.8v-2.526h-2.4V8.197h-.293v.337h-2.107v-.337H18v.337h-2.4v-.337h-.587v.645h.587v.618h.613v.645h.587zm4.213 11.368H20.4v-.617h-.587v-.646H19.2v-.617h-.587v.617h-4.8v-6.933H13.2v-.646h-.587v-.617H12v-.646h-.587v-.618H10.8v-.645H9.013v10.105h2.4v2.527h9.6zm-2.4-1.88h.587v.617h.613v.646h.587v.617h.613v-1.263h2.4v-2.526h-4.8zM3.013 0h-2.4v.618H0v10.105h.613v.645H1.2v.618h.613v.646H2.4v.617h.613v.646H3.6v.617h.613v.646H4.8v.618h.613v.645h2.4v-.645H8.4v5.052h.613v.646H10.8v1.881h.613V24h9.6v-.645h.587v-1.881h1.813v-.646H24v-2.526h-.587v-.618h-4.8v.618H18v1.909h-3.6v-8.843H18v1.881h.613v.646h4.8v-.646H24v-2.526h-.587v-.618H21.6V8.197h-.587V6.625h-.293V5.67h-.32v-.926h-.293v-.337h-.294v-.308h-.293v-.955h-.32v-.308h-.293v.308h-.294v.337h-.293v.308H18v.31h-.88v-.31h-.32v-.308h-.293v.308h-.294v.31h-.293v.308h-.907v.337H14.4v.309h-.293v.617h-.294v.338h-.293v1.571h-.32V.618h-.587V0h-2.4v.618H9.6V9.46h-.587v.645H8.4v.618h-.587v.645H7.2v.618H6v-.618h-.587v-.645H4.8v-.618h-.587V9.46H3.6V.618h-.587zm0 .618V9.46H3.6v.645h.613v.618H4.8v.645h.613v.618H6v.646h1.2v-.646h.613v-.618H8.4v3.79h-.587v.618h-2.4v-.618H4.8v-.646h-.587v-.617H3.6v-.646h-.587v-.617H2.4v-.646h-.587v-.618H1.2v-.645H.613V.618zm9.6 0v6.961h-1.2v.618H10.8v1.908H9.6V9.46h.613V.618zM19.2 3.144v1.6h.32v-.337h.293v.337c-.229-.065-.354.067-.293.309h.293c-.062-.242.065-.373.294-.309v.309c-.254-.076-.321.082-.294.309.029.226-.02.421 0 .646h-.293v.308h-.613v.309h-.294v.308h.294c-.123-.447.363-.281.613-.308-.062-.241.064-.374.293-.309v.617h-.293v.338h-.613v.308h-.294v-.308h-.293v.308c-.319.024-.73-.033-1.04 0s-.865-.177-.773.309h1.2v.309H15.92v-.309h-1.813v-.309h-.294V6.008h.294V5.67h.293v-.617h.613v-.309h.587v.309h-.293v1.263h.293c-.012-.265.016-.519 0-.786-.016-.266-.041-.596.32-.477v-.646h.293v-.308h.294v-.31h.293v.618h.32v.337h.293v-.337h.294v.337c-.229-.065-.355.067-.294.309H18v-.646h.32v-.618h.293v-.308h.294v-.337zm1.2 2.864v.925c-.25-.077-.348.095-.293.338-.229-.066-.355.067-.294.308-.413-.129-.275.357-.293.618h-.613c.067-.143-.101-.483.021-.597.121-.113.445.041.592-.021-.062-.241.064-.373.293-.308-.056-.243.043-.413.294-.338v-.925zm.32.925v.955h-.32v.309h-.587v-.309h.294v-.309h.293c.014-.283-.12-.786.32-.646m-3.92 3.79h-2.987v10.105h4.8v-2.526h4.8v2.526h-2.4v2.527h-9.6v-2.527h-2.4V10.723h2.4V8.197H15.6v.337H18v-.337h.613v.337h2.107v-.337h.293v2.526h2.4v2.526h-4.8v-2.526zM3.013.618h-2.4v10.105H1.2v.645h.613v.618H2.4v.646h.613v.617H3.6v.646h.613v.617H4.8v.646h.613v.618h2.4v-.618H8.4v-3.79h-.587v.618H7.2v.646H6v-.646h-.587v-.618H4.8v-.645h-.587v-.618H3.6V9.46h-.587zm9.6 0h-2.4V9.46H9.6v.645h1.2V8.197h.613v-.618h1.2zm2.4.955v-.31c-.229-.064-.355.068-.293.31zm1.494 0h.906v.308h-.293v.337h-.613v.308H18v-.308h-.587c-.056-.242.043-.413.294-.337v-.308H18v-.31h-1.493zm-2.107.308h.32v-.308h-.32zm1.52 4.435c-.427-.138-.313.337-.32.617h.32zm.88 0h-.587v.309h.587zm.907.309c-.213-.022-.398.029-.614 0s-.365.041-.293.308h.907zm-1.494.308c-.249-.075-.349.095-.293.338h.293zm1.787 0c-.25-.075-.349.095-.293.338H18zm-1.493.338c-.229-.065-.356.067-.294.308h.294zM10.8 10.723v.645h.613v.618H12v.646h.613v.617h.587v.646h.613v-3.172H16.8v-.618h-.587V9.46H15.6v-.618h-.587v-.645h-3.6v2.526zm6 0h1.813v2.526h4.8v-2.526h-2.4V8.197h-.293v.337h-2.107v-.337H18v.337h-2.4v-.337h-.587v.645h.587v.618h.613v.645h.587zm4.213 11.368H20.4v-.617h-.587v-.646H19.2v-.617h-.587v.617h-4.8v-6.933H13.2v-.646h-.587v-.617H12v-.646h-.587v-.618H10.8v-.645H9.013v10.105h2.4v2.527h9.6zm-2.4-1.88h.587v.617h.613v.646h.587v.617h.613v-1.263h2.4v-2.526h-4.8z"/></svg>