<svg role="img" viewBox="0 0 24 24" xmlns="http://www.w3.org/2000/svg"><title>Vertex AI</title><path d="M4.617 0a.923.923 0 0 0-.923.923.923.923 0 0 0 .923.923.923.923 0 0 0 .923-.923A.923.923 0 0 0 4.617 0Zm14.77 0a.923.923 0 0 0-.923.923.923.923 0 0 0 .923.923.923.923 0 0 0 .923-.923.923.923 0 0 0-.923-.923ZM8.31 2.423a.926.926 0 0 0-.923.923v5.942c0 .508.415.924.923.924a.926.926 0 0 0 .923-.924V3.346a.926.926 0 0 0-.923-.923zm7.384 0a.926.926 0 0 0-.923.923v5.942c0 .508.416.924.923.924a.926.926 0 0 0 .923-.924V3.346a.926.926 0 0 0-.923-.923zM4.617 3.693a.926.926 0 0 0-.923.922v6.058c0 .508.416.923.923.923a.926.926 0 0 0 .923-.923V4.615a.926.926 0 0 0-.923-.923zm14.77 0a.923.923 0 0 0-.923.922.923.923 0 0 0 .923.923.923.923 0 0 0 .923-.923.923.923 0 0 0-.923-.923Zm-7.385 2.826a.923.923 0 0 0-.923.923.923.923 0 0 0 .923.923.923.923 0 0 0 .923-.923.923.923 0 0 0-.923-.923zm7.385.866a.922.922 0 0 0-.923.923l.011 6.115a.922.922 0 1 0 1.846 0l-.011-6.115a.922.922 0 0 0-.923-.923zm-7.385 2.827a.923.923 0 0 0-.923.923.923.923 0 0 0 .923.923.923.923 0 0 0 .923-.923.923.923 0 0 0-.923-.923zM8.31 12.058a.923.923 0 0 0-.923.923.923.923 0 0 0 .923.923.923.923 0 0 0 .923-.923.923.923 0 0 0-.923-.923zm7.384 0a.923.923 0 0 0-.923.923.923.923 0 0 0 .923.923.923.923 0 0 0 .923-.923.923.923 0 0 0-.923-.923zM4.617 13.442a.923.923 0 0 0-.923.923.923.923 0 0 0 .923.923.923.923 0 0 0 .923-.923.923.923 0 0 0-.923-.923zm7.385.456a.926.926 0 0 0-.923.923v4.217c0 .508.415.924.923.924a.926.926 0 0 0 .923-.924v-4.217a.926.926 0 0 0-.923-.923zM1.824 15.693a.92.92 0 0 0-.755.426.918.918 0 0 0 .283 1.275l10.154 6.462c.15.098.323.144.496.144a.903.903 0 0 0 .496-.144l10.154-6.462a.929.929 0 0 0 .283-1.275.929.929 0 0 0-1.275-.282l-9.658 6.144-9.658-6.144a.934.934 0 0 0-.52-.144zm6.486.057a.923.923 0 0 0-.923.923.923.923 0 0 0 .923.923.923.923 0 0 0 .923-.923.923.923 0 0 0-.923-.923Zm7.384 0a.923.923 0 0 0-.923.923.923.923 0 0 0 .923.923.923.923 0 0 0 .923-.923.923.923 0 0 0-.923-.923Z"/></svg>