<svg role="img" viewBox="0 0 24 24" xmlns="http://www.w3.org/2000/svg"><title>Vertex AI</title><path d="M4.177.006a.978.978 0 0 0-.862 1.083v2.417a.978.978 0 0 0 .965.964.978.978 0 0 0 .977-.964V1.089A.978.978 0 0 0 4.177.006ZM19.74.112a.978.978 0 0 0-.977.977.978.978 0 0 0 .977.977.978.978 0 0 0 .977-.977.978.978 0 0 0-.977-.977zm-.025 2.828a.965.965 0 0 0-.965.965v2.42a.978.978 0 0 0 .965.977.965.965 0 0 0 .965-.978V3.905a.965.965 0 0 0-.965-.965zm-11.59.013a.978.978 0 0 0-.976.977.978.978 0 0 0 .977.977.978.978 0 0 0 .977-.977.978.978 0 0 0-.977-.977Zm7.744 0a.978.978 0 0 0-.978.977.978.978 0 0 0 .978.977.978.978 0 0 0 .977-.977.978.978 0 0 0-.977-.977zM4.255 5.373a.978.978 0 0 0-.978.977.978.978 0 0 0 .978.977.978.978 0 0 0 .977-.977.978.978 0 0 0-.977-.978Zm11.498.33a.978.978 0 0 0-.862 1.084v2.416a.978.978 0 0 0 .965.965.978.978 0 0 0 .977-.965V6.787a.978.978 0 0 0-1.08-1.083Zm-7.627.119a.978.978 0 0 0-.977.977.978.978 0 0 0 .977.977.978.978 0 0 0 .977-.977.978.978 0 0 0-.977-.977Zm3.871 0a.978.978 0 0 0-.977.977.978.978 0 0 0 .977.977.978.978 0 0 0 .978-.977.978.978 0 0 0-.978-.977zm7.743 2.366a.978.978 0 0 0-.977.978.978.978 0 0 0 .977.977.978.978 0 0 0 .977-.977.978.978 0 0 0-.977-.978zm-15.485.038a.978.978 0 0 0-.978.977.978.978 0 0 0 .978.98.978.978 0 0 0 .977-.98.978.978 0 0 0-.977-.977Zm3.87.412a.965.965 0 0 0-.964.965v2.444a.978.978 0 0 0 .977.94.965.965 0 0 0 .953-.94V9.603a.965.965 0 0 0-.965-.965zm3.872.04a.978.978 0 0 0-.977.978.978.978 0 0 0 .977.977.978.978 0 0 0 .978-.977.978.978 0 0 0-.978-.978zm3.872 2.354a.978.978 0 0 0-.978.978.978.978 0 0 0 .978.977.978.978 0 0 0 .977-.977.978.978 0 0 0-.977-.978zm-11.614.038a.978.978 0 0 0-.978.977.978.978 0 0 0 .978.978.978.978 0 0 0 .977-.978.978.978 0 0 0-.977-.977Zm15.485.013a.978.978 0 0 0-.977.977.978.978 0 0 0 .977.977.978.978 0 0 0 .977-.977.978.978 0 0 0-.977-.977zm-7.83.54a.978.978 0 0 0-.877.861v2.457a.978.978 0 0 0 .964.965.978.978 0 0 0 .978-.99v-2.432a.978.978 0 0 0-1.066-.861zm-3.784 2.263a.978.978 0 0 0-.977.977.978.978 0 0 0 .977.978.978.978 0 0 0 .977-.978.978.978 0 0 0-.977-.977zm7.743 0a.978.978 0 0 0-.978.977.978.978 0 0 0 .978.978.978.978 0 0 0 .977-.978.978.978 0 0 0-.977-.977zm-13.416.231a.978.978 0 0 0-.746.362.952.952 0 0 0 .206 1.286l8.215 6.065a1.89 1.89 0 1 0 3.761.264 1.89 1.89 0 0 0-.018-.239l8.235-6.077a.978.978 0 0 0 .181-1.299.99.99 0 0 0-1.286-.206l-8.275 6.075a1.89 1.89 0 0 0-.729-.146 1.89 1.89 0 0 0-.726.148l-8.278-6.077a.978.978 0 0 0-.54-.156Zm9.544 2.676a.978.978 0 0 0-.977.977.978.978 0 0 0 .977.98.978.978 0 0 0 .978-.98.978.978 0 0 0-.978-.977zm-.055 4.389a.926.926 0 0 1 .982.912.913.913 0 0 1-.349.718.913.913 0 0 1-.005.003.952.952 0 0 1-.266.143.952.952 0 0 1-.307.048.926.926 0 0 0 .13-.008.913.913 0 0 1-.13.008l.013-.013a.939.939 0 0 1-.128-.023.926.926 0 0 1-.186-.055.926.926 0 0 1 .246-1.733zm-.505 1.613.008.005a.939.939 0 0 0 .165.088.926.926 0 0 1-.173-.093z"/></svg>