<svg role="img" viewBox="0 0 24 24" xmlns="http://www.w3.org/2000/svg"><title>Vevo</title><path d="M 20.98 -0.048 C 18.65 -0.048 17.19 9.952 18.36 17.952 C 19.52 25.952 22.43 25.952 23.6 17.952 C 23.86 16.128 24 14.058 24 11.952 C 24 5.325 22.65 -0.048 20.98 -0.048 Z M 20.98 17.552 C 20.22 17.552 19.67 15.152 19.67 11.952 C 19.67 8.752 20.22 6.352 20.98 6.352 C 21.73 6.352 22.29 8.752 22.29 11.952 C 22.29 15.152 21.73 17.552 20.98 17.552 Z M 12.11 11.952 C 12.11 5.325 10.8 -0.048 9.19 -0.048 C 7.57 -0.048 6.26 5.325 6.26 11.952 C 6.26 18.579 7.57 23.952 9.24 23.952 C 10.56 23.952 11.61 20.765 11.95 16.352 L 10.19 16.352 C 9.95 17.785 9.59 18.152 9.24 18.152 C 8.56 18.152 8.12 16.294 7.99 13.752 L 12.07 13.752 C 12.1 13.156 12.11 12.554 12.11 11.952 Z M 9.19 5.552 C 9.77 5.552 10.22 7.146 10.36 9.552 L 8.01 9.552 C 8.17 7.051 8.58 5.552 9.19 5.552 Z M 3.34 23.752 L 0 0.652 L 1.97 0.652 L 3.34 11.152 L 4.71 0.652 L 6.68 0.652 L 3.34 23.752 Z M 15.03 23.752 L 11.69 0.652 L 13.66 0.652 L 15.03 11.152 L 16.4 0.652 L 18.37 0.652 L 15.03 23.752 Z"/></svg>