<svg role="img" viewBox="0 0 24 24" xmlns="http://www.w3.org/2000/svg"><title>Viadeo icon</title><path d="m14.122 5.3754-.2051-.0148V5.331h1.9342l5.2459 6.4813V10.063a11.0653 11.0653 0 0 0-.2659-.4783s.1154.0778.2659.2531V8.0242c0-.9767-.1758-2.6044-1.0696-2.6488l-.2491-.0148V5.331h2.5496v.0296l-.1319.0148c-.6448.0592-.9085.9767-.9085 2.7968v1.9275c.2058.3185.4174.7953.4822 1.4846 0 0 .0005.0034.0005.0084-.0471-.1385-.2079-.5837-.4827-1.153v2.9031c.3229-.7819.5238-1.3867.5194-1.4498 1.0837 2.7401-2.8477 5.4572-2.8646 5.4595-.1833.0084-.3453-.0195-.3453-.0195.9764-.3205 2.0319-2.4119 2.6563-3.9076h-.127l-5.9932-7.2212v4.4245c0 .9766.1758 2.6043 1.0697 2.6487l.2491.0148v.0296h-2.5497v-.0444l.1319-.0148c.6447-.0593.9085-.9767.9085-2.7968V7.1659c0-1.6277-.2491-1.7609-.8206-1.7905zM4.5314 7.1592c0-1.6218.105-1.7545.6902-1.7839l.2551-.0148V5.331h-2.986v.0295h.2551c.5852.0295.6902.1622.6902 1.784v3.5679c0 1.3122.06 2.5212-1.4554 2.5212-.7802 0-.9603-.059-.9603-.2506 0-.1917.2701-.3981.2701-.7814 0-.3539-.2851-.6193-.6302-.6193-.3901 0-.6602.2507-.6602.6193 0 .575.5402 1.2237 1.8306 1.2237 1.9506 0 2.7008-1.3121 2.7008-2.8013V7.1592zm9.3708 2.2115c0 2.2225-1.4745 4.0546-4.0623 4.0546h-3.942v-.03l.2558-.015c.5868-.03.6921-.1652.6921-1.8171v-4.37c0-1.6519-.1053-1.787-.6921-1.8171l-.2558-.015v-.03h3.942c2.6631-.0001 4.0623 1.832 4.0623 4.0396zm-1.2187.03c0-2.1324-.9479-3.8444-2.8286-3.8444h-1.339v-.015c-.5266 0-.5717.045-.5717 1.6669v4.37c0 1.6219.0301 1.6669.5717 1.6669H9.855c2.0311 0 2.8285-1.8021 2.8285-3.8444zM1.9321 17.42.7579 14.8377H.2791l1.6102 3.5404h.0834l1.6006-3.5404h-.4821L1.9321 17.42zm10.3334-3.9644h.4185l-.0004.0022v4.9206h-.4185v-.6632c-.3439.4286-.7815.6639-1.3238.6652-.9383.0208-1.7162-.8396-1.6909-1.7759-.0248-.9269.7721-1.7808 1.7029-1.7578.5552-.0001.9894.2459 1.3121.7036v-2.0947zm.0236 3.1779c.0229-.7512-.5835-1.3724-1.3008-1.3736-.724-.0198-1.3208.6488-1.3076 1.3566-.0137.7022.5848 1.383 1.3022 1.3668.4552.0049.9222-.2575 1.1389-.6612.1109-.2036.1673-.4334.1673-.6886zm-8.0987 1.7447h.4501V14.838h-.4501v3.5402zm19.4618-8.6313-.0047-.0056c-.2867.6112-.817.7256-.817.7256-.5303.1368-.7162.3405-.7162.3405-.5303.5359-.1116 1.1863-.1116 1.1863 1.1472-.2624 1.5658-1.2058 1.5658-1.2058-.0502.6364-1.4123 1.3844-1.4123 1.3844.4521.4438.882.3907 1.1667.2205.3768-.2233.5582-.7173.5582-.7173.3657-1.0969-.2289-1.9286-.2289-1.9286zm-2.1764 5.3509c.1094.2595.1625.5425.1625.8492.0105 1.0922-.8762 2.1177-2.0104 2.0817-1.1229.0327-2.0289-.9781-2.0042-2.0817-.0311-1.1073.8968-2.144 2.007-2.1198.2614 0 .5049.0475.7316.1423.0228-.2399.1063-.4628.1992-.6447-.2845-.1038-.5941-.1564-.9286-.1564-1.4971-.041-2.7075 1.2942-2.677 2.7642-.0204 1.4522 1.1586 2.7827 2.6779 2.7352 1.5153.0474 2.6943-1.2855 2.6727-2.7352 0-.3908-.0688-.7535-.2054-1.088a1.9528 1.9528 0 0 1-.6253.2532zM8.6613 16.6179c0 .0544-.0024.1083-.0065.1613v1.5993h-.4209l-.001-.5906c-.3225.388-.7593.5892-1.2911.5878-.9768.0302-1.7369-.8233-1.7235-1.7574-.019-.9447.7602-1.8031 1.7227-1.7763.9628-.026 1.7396.8292 1.7203 1.7759zm-.43.0093c.0208-.7097-.5789-1.3768-1.2881-1.3621-.7118-.0154-1.3081.6508-1.2881 1.3623-.0174.7101.5707 1.3584 1.2921 1.337.4597.0047.9163-.2525 1.1107-.6579a1.3916 1.3916 0 0 0 .1734-.6793zm-3.8178-3.171c-.1785-.032-.3785.1822-.3666.3761-.006.1968.1705.3833.3669.379.2001.0053.3763-.1747.3713-.3749.0051-.2021-.1686-.3852-.3716-.3802zM16.6739 16.65h-2.9735c-.001.7268.5197 1.3446 1.2446 1.3365.5699-.0136.9798-.2778 1.2562-.8116l.3578.1935c-.3095.6454-.8609 1.0233-1.5764 1.014-1.0185.038-1.7187-.8264-1.7175-1.7578-.0138-.9338.7259-1.8101 1.6953-1.7783.5624 0 1.012.2177 1.3486.6527.24.3076.3609.6914.3649 1.151zm-.4727-.3814c-.1235-.6213-.627-1.0106-1.2391-1.015-.6268.0064-1.0547.3804-1.2236 1.015h2.4627z"/></svg>