<svg viewBox="0 0 16 16" xmlns="http://www.w3.org/2000/svg" fill-rule="evenodd" clip-rule="evenodd" stroke-linejoin="round" stroke-miterlimit="1.414"><path d="M6.742 14.658h.02c.772 0 1.48-.187 2.125-.56.645-.373 1.156-.903 1.536-1.59.378-.685.568-1.425.568-2.22 0-.643-.11-1.237-.34-1.78.38-.08.84-.236 1.32-.533.29.702.44 1.463.44 2.284 0 1.53-.52 2.87-1.58 4.02C9.77 15.42 8.42 16 6.77 16c-1.66 0-3.015-.573-4.067-1.72-1.05-1.147-1.57-2.488-1.57-4.02 0-1.522.498-2.84 1.494-3.957C3.717 5.073 5.1 4.457 6.77 4.457c.704 0 1.356.11 1.957.328-.195.382-.372.85-.42 1.353-.477-.2-.99-.3-1.54-.3-1.158 0-2.152.435-2.983 1.303-.83.87-1.246 1.92-1.246 3.15 0 .8.19 1.54.57 2.22.378.69.89 1.22 1.534 1.59.43.25.885.42 1.368.5 4.137-1.6 3.65-9.44 3.62-9.87l.035.11c2.43 6.49-2.867 9.83-2.867 9.83h-.05zM14.056.363c-.676 1.438-1.93 1.705-1.93 1.705-1.252.318-1.69.8-1.69.8-1.252 1.26-.266 2.788-.266 2.788 2.705-.616 3.693-2.838 3.693-2.838-.12 1.493-3.34 3.257-3.34 3.257 1.066 1.042 2.083.917 2.755.517.89-.53 1.318-1.69 1.318-1.69.863-2.58-.54-4.54-.54-4.54zM7.406 0c1.33 2.236 2.054 4.243 2.217 4.72V4.7C9.295 1.255 7.403 0 7.403 0z"/></svg>