<svg aria-labelledby="simpleicons-viber-icon" role="img" viewBox="0 0 24 24" xmlns="http://www.w3.org/2000/svg"><title id="simpleicons-viber-icon">Viber icon</title><path d="M20.812 2.343c-.596-.549-3.006-2.3-8.376-2.325 0 0-6.331-.38-9.415 2.451C1.302 4.189.698 6.698.634 9.82.569 12.934.487 18.774 6.12 20.36h.005l-.005 2.416s-.034.979.609 1.178c.779.24 1.236-.504 1.98-1.303.409-.439.972-1.088 1.397-1.582 3.851.322 6.813-.416 7.149-.525.777-.254 5.176-.816 5.893-6.658.738-6.021-.357-9.83-2.338-11.547v.004zm.652 11.112c-.615 4.876-4.184 5.187-4.83 5.396-.285.092-2.895.738-6.164.525 0 0-2.445 2.941-3.195 3.705-.121.121-.271.166-.361.145-.135-.029-.164-.18-.164-.404l.015-4.006c-.015 0 0 0 0 0-4.771-1.336-4.485-6.301-4.425-8.91.044-2.596.538-4.726 1.994-6.167 2.611-2.371 7.997-2.012 7.997-2.012 4.543.016 6.721 1.385 7.223 1.846 1.674 1.432 2.529 4.865 1.904 9.893l.006-.011zM7.741 4.983c.242 0 .459.109.629.311.004.002.58.695.83 1.034.235.32.551.83.711 1.115.285.51.104 1.032-.172 1.248l-.566.45c-.285.229-.25.653-.25.653s.84 3.157 3.959 3.953c0 0 .426.039.654-.246l.451-.569c.213-.285.734-.465 1.244-.181.285.15.795.466 1.116.704.339.24 1.032.826 1.036.826.33.271.404.689.18 1.109v.016c-.23.405-.541.78-.934 1.141h-.008c-.314.27-.629.42-.944.449-.03 0-.075.016-.136 0-.135 0-.27-.029-.404-.061v-.014c-.48-.135-1.275-.48-2.596-1.216-.855-.479-1.574-.96-2.189-1.455-.315-.255-.645-.54-.976-.87l-.076-.028-.03-.03-.029-.029c-.331-.33-.615-.66-.871-.98-.48-.609-.96-1.327-1.439-2.189-.735-1.32-1.08-2.115-1.215-2.596H5.7c-.045-.134-.075-.269-.06-.404-.015-.061 0-.105 0-.141.03-.299.189-.614.458-.944h.005c.355-.39.738-.704 1.146-.933.164-.091.329-.135.479-.135h.016l-.003.012zm4.095-.683h.116l.076.002h.02l.089.005h.511l.135.015h.074l.15.016h.03l.104.015h.016l.074.015c.046 0 .076.016.105.016h.091l.075.029.06.016.06.015.03.015h.045l.046.016h.029l.074.016.045.014.046.016.06.016.03.014c.03 0 .06.016.091.016l.044.015.046.016.119.044.061.031.135.06.045.015.045.016.09.045.061.015.029.015.076.031.029.014.061.031.045.014.045.03.059.03.046.029.03.016.061.03.044.03.075.045.045.016.074.044.016.015.045.031.09.074.046.03.044.03.031.014.045.031.074.074.061.045.045.03.016.015.029.016.074.061.046.044.03.03.045.029.045.031.029.015.12.12.06.061.135.135.031.029c.016.016.045.045.061.075l.029.03.166.194.045.06c.014.016.014.031.029.031l.09.135.045.045.09.12.076.12.045.09.059.105.045.09.016.029.029.061.076.15.074.149.031.075c.059.135.104.27.164.42.074.195.135.404.18.63.045.165.076.315.105.48l.029.27.045.3c.016.121.031.256.031.375.014.121.014.24.014.359v.256c0 .016-.006.029-.014.045-.016.03-.031.045-.061.075-.021.015-.049.046-.08.046-.029.014-.059.014-.09.014h-.045c-.029 0-.059-.014-.09-.029-.029-.016-.061-.03-.074-.061-.016-.029-.045-.061-.061-.09s-.031-.06-.031-.09v-.359c-.014-.209-.029-.425-.059-.639-.016-.146-.045-.284-.061-.42 0-.074-.016-.146-.029-.209l-.029-.15-.038-.141-.016-.09-.045-.15c-.029-.12-.074-.24-.119-.36-.029-.091-.061-.165-.105-.239l-.029-.076-.135-.27-.031-.045c-.061-.135-.135-.27-.225-.391l-.045-.074h-.201l-.064-.091c-.055-.089-.114-.165-.18-.239l-.125-.15-.015-.016-.046-.057-.035-.045-.075-.074-.015-.03-.07-.06-.045-.046-.083-.075-.04-.037-.046-.045-.015-.016c-.016-.015-.045-.045-.075-.06l-.076-.062-.03-.015-.061-.046-.074-.06-.045-.036-.03-.016-.06-.053c0-.016-.016-.016-.031-.016l-.029-.029-.015-.016v-.013l-.03-.014-.061-.037-.044-.031-.075-.045-.06-.045-.029-.016-.032-.013h-.09l-.019-.016-.065-.035-.009-.014-.03-.016-.045-.021h-.012l-.045-.016-.025-.015-.045-.015-.01-.011-.03-.016-.053-.029-.03-.015-.09-.03-.074-.029-.137-.016-.044-.029c-.015-.01-.03-.016-.046-.016l-.029-.015c-.029-.011-.045-.016-.075-.03l-.03-.016h-.029l-.061-.029-.029-.016-.045-.015h-.092c-.008 0-.019-.005-.03-.007h-.09l-.045-.016h-.015l-.045-.016h-.041c-.025-.014-.045-.014-.07-.014l-.01-.016-.06-.015c-.03-.016-.056-.016-.084-.016l-.045-.015-.05-.016-.045-.014-.061-.016h-.061l-.179-.022h-.09l-.116-.015h-.076l-.068-.008h-.03l-.054-.016h-.285l-.01-.015h-.061c-.03 0-.064-.015-.09-.03-.03-.016-.061-.029-.081-.06l-.03-.046c-.029-.029-.029-.06-.045-.09-.014-.028-.014-.059-.014-.089s0-.06.015-.09c.016-.029.029-.06.061-.075.015-.03.044-.044.074-.06.029-.016.061-.03.09-.03h.061l.015.066zm.554 1.574l.037.003.061.006c.008 0 .018 0 .029.003.022 0 .045.004.075.006l.06.008.024.016.045.015.048.015.045.016h.03l.042.015.07.015.056.016.026.014h.073l.119.028.046.015.045.015.045.016s.015 0 .015.015l.046.015.044.016.045.016c.015 0 .03.014.046.014.007 0 .014.016.025.016l.064.03h.029l.09.03.05.029.046.03.108.045.06.015.031.031c.045.014.09.044.135.059l.048.03.048.03.049.029c.045.03.082.046.121.076l.029.014.041.031.022.015.075.045.037.03.065.043.029.015.03.015.046.03.06.046c.015.014.022.014.034.029.01.015.016.015.025.03l.033.03.036.029.03.03.046.046.029.03.016.016.09.089.016.016c0 .015.015.03.029.03l.016.013.045.046.029.045.03.03.045.06.046.046.09.119.014.029.061.076.016.029.015.031.015.029.016.03c.016.015.016.03.029.06l.043.076.016.015.029.061.031.044c.014.015.014.029.029.045l.03.045.03.061.029.059.016.046c.015.044.045.075.06.12 0 .015.015.029.015.045l.045.119.061.195c0 .016.015.045.015.061l.046.135.044.18.046.24c.014.074.014.135.029.211.016.119.03.238.03.359l.015.21v.165c0 .016 0 .029-.015.045l-.044.043c-.029.023-.045.045-.074.061-.03.015-.061.029-.09.04-.031.016-.075.016-.105.016-.029 0-.061-.016-.09-.03-.016 0-.03-.016-.045-.021-.031-.014-.061-.039-.075-.065-.03-.03-.046-.06-.046-.091l-.014-.044v-.313c0-.133-.016-.256-.031-.385-.015-.135-.044-.285-.074-.42-.029-.09-.045-.18-.075-.26l-.03-.091-.029-.075-.016-.03-.045-.12-.045-.09-.075-.149-.069-.12v-.019l-.029-.047-.03-.038-.045-.075-.046-.061-.089-.119c-.046-.061-.09-.12-.142-.178-.014-.015-.029-.029-.029-.045l-.03-.029-.017-.016-.03-.014-.03-.027v-.146l-.119-.113-.075-.068v-.014l-.03-.031-.038-.029-.015-.016c0-.015-.016-.015-.029-.015l-.046-.016-.015-.015-.061-.045-.014-.016-.016-.015c-.012-.015-.023-.015-.03-.015l-.06-.045-.016-.016-.06-.029-.011-.016-.045-.029-.03-.016-.03-.029-.029-.031h-.016c-.029-.029-.06-.044-.105-.06l-.044-.03-.03-.014-.016-.016-.045-.03-.044-.015-.06-.03-.046-.015-.015-.016-.056-.014v-.012l-.091-.03-.06-.03-.03-.015h-.06c-.03-.015-.045-.015-.075-.03H13.2l-.045-.016h-.044l-.046-.014-.029-.016h-.061l-.061-.015-.029-.016h-.165l-.069-.015H12.3l-.046-.016c-.029-.014-.06-.029-.09-.06-.014-.03-.045-.06-.06-.089-.015-.031-.03-.061-.03-.091v-.09c.006-.046.016-.075.03-.105.008-.015.015-.03.03-.045.018-.03.045-.06.075-.075.015-.015.03-.015.044-.029.031-.016.061-.016.091-.016h.06l-.014.055zm.454 1.629c.015 0 .03 0 .044.004.016 0 .031 0 .046.002l.052.005c.104.009.213.024.318.046l.104.023.026.008.114.029.059.02.046.016c.045.014.091.045.135.06l.016.015.06.03.09.046.029.014c.016.016.031.016.046.03.015.016.045.03.06.045.061.03.105.075.15.105l.105.09.09.091.061.074.029.029.03.031.044.06.091.135.075.135.06.12.046.105c.044.104.06.195.09.299.029.091.045.196.06.285l.015.15.016.136V9.8c0 .045-.016.075-.03.105-.015.029-.046.074-.075.09-.03.029-.061.045-.105.061-.029.014-.06.014-.09.014-.029 0-.06 0-.09-.014l-.104-.046c-.03-.03-.06-.045-.091-.091-.015-.029-.029-.06-.045-.104v-.166l-.015-.105-.015-.119-.016-.105-.016-.06c0-.015-.014-.045-.014-.06-.03-.121-.09-.24-.15-.36l-.061-.06-.047-.06-.045-.045-.015-.03-.075-.06-.061-.061-.059-.045c-.016-.015-.03-.015-.061-.029l-.09-.061-.061-.03-.029-.015h-.016l-.076-.031-.09-.03-.09-.015h-.075l-.044-.015-.035-.007h-.045l-.06-.016h-.255l-.015-.075h-.039c-.03-.004-.055-.015-.08-.029-.035-.021-.064-.045-.09-.08-.018-.029-.034-.061-.045-.09-.008-.029-.012-.06-.012-.09 0-.037 0-.075.015-.113.015-.039.03-.07.06-.1l.061-.045c.029-.016.061-.03.09-.03l.062-.075h.032z"/></svg>