<svg role="img" viewBox="0 0 24 24" xmlns="http://www.w3.org/2000/svg"><title>VictoriaMetrics</title><path d="M11.962.014C4.845.024.239 1.553 1.895 3.094c0 0 6.169 5.654 8.3 7.472.405.345 1.085.607 1.767.616h.075c.683-.008 1.363-.27 1.767-.616 2.132-1.818 8.3-7.472 8.3-7.472 1.656-1.54-2.95-3.07-10.066-3.078h-.062zM1.559 5.864v2.73c0 .3.115.698.319.885 1.332 1.221 6.47 5.925 8.319 7.501.404.345 1.084.607 1.767.616H12.035c.683-.008 1.363-.27 1.767-.616 1.849-1.576 6.987-6.28 8.32-7.501.203-.187.318-.585.318-.885v-2.73c-1.96 1.788-7.163 6.505-8.638 7.763-.404.345-1.084.607-1.767.616H11.964c-.683-.01-1.363-.27-1.767-.616-1.475-1.258-6.678-5.975-8.638-7.763zm0 6.417v2.73c0 .3.115.698.319.885 1.332 1.222 6.47 5.925 8.319 7.502.404.344 1.084.606 1.767.615H12.035c.683-.008 1.363-.27 1.767-.615 1.849-1.577 6.987-6.28 8.32-7.502.203-.187.318-.585.318-.885v-2.73c-1.96 1.788-7.163 6.506-8.638 7.763-.404.345-1.084.607-1.767.616H11.964c-.683-.008-1.363-.27-1.767-.616-1.475-1.257-6.678-5.975-8.638-7.763z"/></svg>