<svg role="img" viewBox="0 0 24 24" xmlns="http://www.w3.org/2000/svg"><title>Vikunja</title><path d="M12 .253a11.93 11.93 0 0 0-9.281 4.388A11.9 11.9 0 0 0 0 12.253c0 3.207 1.247 6.216 3.516 8.485a11.9 11.9 0 0 0 4.637 2.86c.119-1.115.377-2.264.35-3.404-.037-1.669.506-3.572-.14-5.119-.216-.506-.497-1.012-.675-1.51a5.7 5.7 0 0 1-.357-2.624l.216-2.185s-.275-.697.12-1.549c-.064-.059-.094-.195-.11-.26-.066-.225-.085-.469-.104-.694v-.009C7.37 4.8 7.341 2.034 9.347 1.416c.937-.29.694.45.675 1.069-.028.91-.094 1.818-.094 2.756 0 .066.019.134.026.2.813-.23 1.641-.256 2.215-.256.677 0 1.724.04 2.678.41.197-.719.285-2.995.303-3.598.023-.498.176-.677.382-.669.453.019 1.166.946 1.334 1.391.63 1.658.372 2.914-.293 4.284.547.941.227 1.753.227 1.753s.225 2.26.187 2.963c-.093 2.025-.825 2.419-1.275 3.731-.515 1.519-.13 3.188 0 4.772.046.513.333 1.833.583 3.24a12 12 0 0 0 4.19-2.724A11.93 11.93 0 0 0 24 12.253a12.2 12.2 0 0 0-2.728-7.612A11.81 11.81 0 0 0 12 .253m4.002 2.573q-.034.004-.046.052c-.028.113-.047.891-.112 1.266-.075.469-.216.928-.225 1.397 0 1.06.319 1.097.45 1.34.122.225.46-1.003.562-1.537.094-.506.225-1.172.047-1.678-.082-.23-.523-.861-.676-.84m-6.935.103q-.022 0-.048.024c-1.247 1.144-.89 3.066-.769 4.144.038.29.469-.065.703-.75.113-.337.206-.31.328-.872.047-.206-.047-.44-.065-.89 0-.235.037-.919 0-1.163-.017-.147-.047-.496-.15-.493m1.005 4.892a.12.12 0 0 0-.097.045c-.169.187-.281.61.084.703.188.047.47.037.713-.01-.094.32-.122.61.281.807.281.14.656.14.825-.075.338.187.872.366.938-.094.028-.16-.254-.234-.282-.066h.01c-.047.254-.516-.046-.638-.121-.094-.075-.234-.028-.243.093-.02.15-.235.104-.329.094-.187-.047-.347-.16-.347-.328 0-.169.094-.347.15-.506.038-.103-.103-.216-.206-.15-.187.122-1.115.234-.75-.169.092-.091-.007-.22-.11-.223m.057 2.314c-.343-.015-.491.436-.632.787h.01c-.048.094-.104.253 0 .225.224-.056.459-.637.627-.6.263.056.375.516.516.572.262.094-.14-.919-.45-.975a.4.4 0 0 0-.071-.01m4.301 0c-.349-.015-.49.436-.63.787-.047.094-.094.253.01.225.224-.056.459-.637.627-.6.263.056.375.516.516.572.263.094-.15-.919-.45-.975a.4.4 0 0 0-.073-.01m-1.87 1.441-.11.002c-.6-.018-1.031.16-1.34.488-.47.487-.6.778-.6 1.697 0 .497.534 1.594.702 1.856.263.45.75.61 1.238.581.478.028.966-.131 1.238-.581a5.3 5.3 0 0 0 .684-1.922c0-.928-.113-1.294-.628-1.744-.3-.263-.647-.379-1.184-.377m.687 1.343c.084.037-.019.103-.056.15l-.094.14-.403.535-.09.073c.02.076-.01.17-.023.246-.019.187-.018.375-.018.562.008.149.066.33.05.475.258-.02.524-.052.784-.09.225-.038.506-.075.656-.244.019.562-1.153.74-1.612.75a2.3 2.3 0 0 1-1.482-.544c.43.041.867.134 1.305.142-.016-.082-.01-.175-.01-.226a4.2 4.2 0 0 1 .027-1.088l.001-.004c-.08-.102-.158-.21-.244-.314a1.4 1.4 0 0 0-.3-.282c-.057-.037-.197-.084-.038-.131.244-.066.553.056.75.187.225-.15.497-.318.797-.337m1.457 3.723c-.104-.01-.22.06-.191.177.028.122.037.544-.197.319-.094-.094-.282-.038-.291.084-.019.29-.31.3-.563.206-.206-.065-.309.216-.112.282.375.13.778.056.938-.225.121.065.262.075.375-.029.206-.187.234-.459.178-.703-.018-.07-.075-.105-.137-.11m-5.045 1.426a.18.18 0 0 0-.115.063c-.356.45.619 1.294 1.172 1.07l.093.327c.094.216.31.347.516.47.29.15.853-.123.938-.385.065-.188-.263-.244-.32-.066-.027.085-.234.14-.309.169-.187.056-.356-.094-.46-.216-.14-.168-.14-.44-.196-.637-.037-.122-.244-.141-.31-.028-.205.375-1.012-.329-.824-.563.091-.12-.055-.223-.185-.204m5.556 4.784a.12.12 0 0 0-.103.08h-.009c-.094.178-.244.168-.422.093-.122-.056-.281.028-.243.16.084.253-.244.328-.47.243-.187-.084-.355.17-.159.253.394.16.9.02.966-.328.253.038.497-.028.619-.28.058-.106-.037-.205-.135-.22a.2.2 0 0 0-.044-.001"/></svg>