<svg viewBox="0 0 16 16" xmlns="http://www.w3.org/2000/svg" fill-rule="evenodd" clip-rule="evenodd" stroke-linejoin="round" stroke-miterlimit="1.414"><path d="M15.013 7.954c-.412.095-.81.137-1.17.137-2.018 0-3.572-1.41-3.572-3.86 0-1.2.47-1.82 1.13-1.82.63 0 1.04.56 1.04 1.7 0 .65-.17 1.36-.3 1.78 0 0 .62 1.09 2.32.75.36-.8.56-1.84.56-2.75 0-2.45-1.25-3.88-3.54-3.88C9.12 0 7.74 1.81 7.74 4.2c0 2.365 1.105 4.395 2.928 5.32-.767 1.533-1.742 2.884-2.76 3.902-1.844-2.232-3.513-5.21-4.198-11.02H.987C2.245 12.08 5.994 15.16 6.985 15.75c.56.336 1.044.32 1.556.032.81-.458 3.23-2.875 4.57-5.705.56-.002 1.24-.066 1.91-.218V7.95z" fill-rule="nonzero"/></svg>