<svg viewBox="0 0 16 16" xmlns="http://www.w3.org/2000/svg" fill-rule="evenodd" clip-rule="evenodd" stroke-linejoin="round" stroke-miterlimit="1.414"><path d="M15.013 7.954c-.412.095-.81.137-1.17.137-2.018 0-3.572-1.41-3.572-3.86 0-1.202.465-1.827 1.122-1.827.625 0 1.042.56 1.042 1.7 0 .645-.173 1.354-.3 1.774 0 0 .62 1.085 2.322.752.36-.803.557-1.842.557-2.753 0-2.45-1.25-3.877-3.54-3.877-2.356 0-3.734 1.81-3.734 4.198 0 2.365 1.105 4.395 2.928 5.32-.767 1.533-1.742 2.884-2.76 3.902C6.064 11.19 4.395 8.212 3.71 2.403H.987c1.258 9.675 5.007 12.755 5.998 13.347.56.336 1.044.32 1.556.032.806-.458 3.223-2.875 4.563-5.705.562-.002 1.238-.066 1.91-.218V7.953z" fill-rule="nonzero"/></svg>