<svg role="img" viewBox="0 0 24 24" xmlns="http://www.w3.org/2000/svg"><title>Virb icon</title><path d="M17.733 7.237c0-.25 0-.476.15-.625.199-.176.4-.15.6-.15h1.428c.766 0 1.875.199 2.625.877.75.699.915 1.701.915 2.604v2.252c0 .599.015 1.027-.284 1.578-.375.701-1.155.9-1.155 1.002 0 .1.839.252 1.214 1.002.301.6.27.975.27 1.576v3.105c0 .615 0 1.395-.899 2.445-.855.943-2.039 1.08-2.64 1.08-.449 0-.779.016-1.23 0-.299-.031-.749.016-.854-.137-.149-.223-.194-.178-.194-.854V7.229l.054.008zm-5.46 16.349c0 .402-.099.402-.85.402-.576 0-.75 0-.75-.352V7.229c0-.25.023-.523.174-.674.201-.176.375-.101.576-.101h1.428c.801 0 1.878.199 2.628.876.75.699.927 1.728.927 2.604v2.26c0 .599.025 1.027-.276 1.578-.375.701-1.176.9-1.176 1.002 0 .1.825.252 1.2 1.002.3.6.277.975.277 1.576v6.225c0 .391-.18.391-.855.391-.584 0-.75.016-.75-.359V17.25c0-1.027-.674-1.652-1.229-1.652-1.185 0-1.335-.023-1.335.375v7.59l.011.023zm-3.828.375c-.676 0-.75 0-.75-.35V6.862c0-.325.148-.375.75-.375.674 0 .85.023.85.398v16.679c0 .375-.045.404-.84.404l-.01-.007zm11.165-1.627c.196.031.226.031.451.031.27 0 .899-.074 1.35-.541.495-.539.525-.898.525-1.318v-3.211c0-1.154-.675-1.648-1.425-1.648-1.08 0-1.156.074-1.156.674v5.264c0 .287.015.75.24.781l.015-.032zM3.609 18.777c.426-4.303.801-7.96 1.199-11.893.051-.423.252-.398.705-.398.699 0 .949.051.924.325-.75 6.164-1.326 10.724-2.077 16.814-.046.361-.315.375-.825.375-.645 0-.945 0-1.005-.42C1.855 17.939 1.24 12.93.506 6.782c-.016-.301.105-.301.809-.301.735 0 .886.075.899.404.406 4.381.706 7.785 1.081 11.955 0 .076.031.24.15.24.15 0 .18-.164.18-.27l-.016-.033zm9.315-10.662c-.225 0-.451 0-.553.173-.074.15-.074.277-.074.427v4.682c0 .275-.051.551.15.701.148.119.324.09.449.09.277 0 .93-.074 1.38-.555.499-.557.499-.975.499-1.335V9.944c0-.575-.1-1.002-.525-1.451-.275-.25-.425-.375-1.326-.375v-.003zm7.234 0c-.352 0-.625 0-.727.173-.073.15-.073.277-.073.427v4.682c0 .275-.026.5.149.676.149.15.251.125.45.125.35 0 .927-.074 1.38-.549.498-.557.498-.932.498-1.335v-2.37c0-.575-.099-1.002-.526-1.451-.275-.25-.448-.375-1.151-.375v-.003zM10.89 2.01H9.312V.395C9.312.024 9.139 0 8.476 0c-.587 0-.735.049-.735.368V2.01H6.204c-.369 0-.396.174-.396.835 0 .59.051.735.369.735H7.74v1.549c0 .342.075.342.734.342.786 0 .836-.023.836-.393V3.583h1.627c.345 0 .345-.076.345-.736.001-.786-.024-.836-.392-.837z"/></svg>