<svg viewBox="0 0 16 16" xmlns="http://www.w3.org/2000/svg" fill-rule="evenodd" clip-rule="evenodd" stroke-linejoin="round" stroke-miterlimit="1.414"><path d="M11.807 4.825c0-.167 0-.317.1-.417.133-.117.267-.1.4-.1h.952c.51 0 1.25.133 1.75.584.5.467.61 1.135.61 1.736V8.13c0 .4.01.685-.19 1.052-.25.467-.77.6-.77.668 0 .066.56.167.81.667.2.4.18.65.18 1.052v2.07c0 .41 0 .93-.6 1.63-.57.63-1.36.72-1.76.72-.3 0-.52.01-.82 0-.2-.02-.5.01-.57-.09-.1-.15-.13-.12-.13-.57V4.82zm-3.64 10.9c0 .268-.066.268-.567.268-.384 0-.5 0-.5-.234V4.82c0-.167.016-.35.116-.45.134-.117.25-.067.384-.067h.952c.534 0 1.252.133 1.752.584.5.467.618 1.152.618 1.736V8.13c0 .4.017.685-.184 1.052-.25.467-.784.6-.784.668 0 .066.55.167.8.667.2.4.185.65.185 1.052v4.15c0 .26-.12.26-.57.26-.39 0-.5.01-.5-.24V11.5c0-.685-.45-1.102-.82-1.102-.79 0-.89-.016-.89.25v5.06zm-2.553.25c-.45 0-.5 0-.5-.233V4.575c0-.217.1-.25.5-.25.45 0 .567.016.567.266v11.12c0 .25-.03.27-.56.27zm7.445-1.084c.13.02.15.02.3.02.18 0 .6-.05.9-.36.33-.36.35-.6.35-.88v-2.14c0-.77-.45-1.1-.95-1.1-.72 0-.77.05-.77.45v3.51c0 .19.01.5.16.52zM2.39 12.52c.284-2.87.534-5.308.8-7.93.034-.282.168-.266.47-.266.466 0 .633.034.616.217-.5 4.11-.884 7.15-1.385 11.21-.03.24-.21.25-.55.25-.43 0-.63 0-.67-.28-.45-3.76-.86-7.1-1.35-11.2-.01-.2.07-.2.54-.2.49 0 .59.05.6.27.27 2.92.47 5.19.72 7.97 0 .05.02.16.1.16.1 0 .12-.11.12-.18zM8.6 5.41c-.15 0-.3 0-.368.116-.05.1-.05.184-.05.284v3.122c0 .183-.033.367.1.467.1.08.217.06.3.06.185 0 .62-.05.92-.37.333-.37.333-.65.333-.89V6.63c0-.384-.067-.668-.35-.968-.184-.167-.284-.25-.885-.25zm4.824 0c-.234 0-.417 0-.484.116-.05.1-.05.184-.05.284v3.122c0 .183-.017.333.1.45.1.1.167.084.3.084.234 0 .618-.05.92-.367.332-.37.332-.62.332-.89V6.63c0-.384-.066-.668-.35-.968-.184-.167-.3-.25-.768-.25zm-6.18-4.07H6.192V.263C6.192.016 6.077 0 5.635 0c-.392 0-.49.033-.49.245V1.34H4.12c-.246 0-.263.116-.263.557 0 .393.033.49.246.49h1.042V3.42c0 .228.05.228.49.228.524 0 .557-.016.557-.262v-.998h1.085c.23 0 .23-.05.23-.49 0-.524-.018-.557-.263-.557z"/></svg>