<svg viewBox="0 0 16 16" xmlns="http://www.w3.org/2000/svg" fill-rule="evenodd" clip-rule="evenodd" stroke-linejoin="round" stroke-miterlimit="1.414"><path d="M11.807 4.825c0-.167 0-.317.1-.417.133-.117.267-.1.4-.1h.952c.516 0 1.25.133 1.752.584.5.467.617 1.135.617 1.736V8.13c0 .4.016.685-.184 1.052-.25.467-.768.6-.768.668 0 .066.567.167.818.667.2.4.184.65.184 1.052v2.07c0 .416 0 .934-.6 1.635-.57.634-1.354.718-1.754.718-.3 0-.518.016-.818 0-.2-.017-.5.016-.568-.084-.1-.15-.133-.118-.133-.568V4.825zm-3.64 10.9c0 .268-.066.268-.567.268-.384 0-.5 0-.5-.234V4.824c0-.167.016-.35.116-.45.134-.117.25-.067.384-.067h.952c.534 0 1.252.133 1.752.584.5.467.618 1.152.618 1.736V8.13c0 .4.017.685-.184 1.052-.25.467-.784.6-.784.668 0 .066.55.167.8.667.2.4.185.65.185 1.052v4.156c0 .267-.118.267-.57.267-.383 0-.5.016-.5-.234v-4.24c0-.686-.45-1.103-.818-1.103-.784 0-.884-.016-.884.25v5.06zm-2.553.25c-.45 0-.5 0-.5-.233V4.575c0-.217.1-.25.5-.25.45 0 .567.016.567.266v11.12c0 .25-.032.266-.566.266zm7.445-1.084c.132.018.15.018.3.018.183 0 .6-.05.9-.367.334-.367.35-.6.35-.884V11.52c0-.77-.45-1.103-.95-1.103-.718 0-.768.05-.768.45v3.506c0 .184.016.5.167.518zM2.39 12.52c.284-2.87.534-5.308.8-7.93.034-.282.168-.266.47-.266.466 0 .633.034.616.217-.5 4.108-.884 7.146-1.385 11.202-.034.234-.217.25-.55.25-.435 0-.636 0-.67-.283-.45-3.757-.867-7.096-1.35-11.202-.018-.2.066-.2.533-.2.484 0 .584.05.6.267.268 2.92.468 5.19.72 7.962 0 .05.016.167.1.167.1 0 .116-.117.116-.183zm6.21-7.11c-.15 0-.3 0-.368.116-.05.1-.05.184-.05.284v3.122c0 .183-.033.367.1.467.1.082.217.066.3.066.185 0 .62-.05.92-.367.333-.37.333-.652.333-.886V6.628c0-.384-.067-.668-.35-.968-.184-.167-.284-.25-.885-.25zm4.824 0c-.234 0-.417 0-.484.116-.05.1-.05.184-.05.284v3.122c0 .183-.017.333.1.45.1.1.167.084.3.084.234 0 .618-.05.92-.367.332-.37.332-.62.332-.886V6.628c0-.384-.066-.668-.35-.968-.184-.167-.3-.25-.768-.25zM7.244 1.34H6.192V.263C6.192.016 6.077 0 5.635 0c-.392 0-.49.033-.49.245V1.34H4.12c-.246 0-.263.116-.263.557 0 .393.033.49.246.49h1.042V3.42c0 .228.05.228.49.228.524 0 .557-.016.557-.262v-.998h1.085c.23 0 .23-.05.23-.49 0-.524-.018-.557-.263-.557z"/></svg>