<?xml version="1.0" standalone="no"?>
<!DOCTYPE svg PUBLIC "-//W3C//DTD SVG 20010904//EN"
 "http://www.w3.org/TR/2001/REC-SVG-20010904/DTD/svg10.dtd">
<svg version="1.0" xmlns="http://www.w3.org/2000/svg"
 width="866.000000pt" height="650.000000pt" viewBox="0 0 866.000000 650.000000"
 preserveAspectRatio="xMidYMid meet">

<g transform="translate(0.000000,650.000000) scale(0.100000,-0.100000)"
fill="#000000" stroke="none">
<path d="M6849 3941 c12 -8 12 -12 2 -25 -11 -13 -10 -18 3 -32 18 -17 16 -22
-25 -74 -42 -53 -84 -177 -125 -367 -2 -13 -11 -23 -18 -23 -11 0 -16 24 -21
100 -7 96 -17 123 -28 80 -3 -11 -12 -20 -21 -20 -20 0 -20 -1 4 56 12 26 19
55 17 63 -2 10 -7 6 -11 -11 -5 -16 -12 -28 -17 -28 -5 0 -38 -28 -72 -62 -34
-34 -56 -58 -48 -54 10 6 12 5 7 -2 -4 -7 -14 -12 -22 -12 -8 0 -14 -5 -14
-11 0 -7 -11 -22 -24 -34 l-24 -23 39 -5 c49 -6 150 -53 226 -105 125 -85 219
-116 313 -105 37 4 55 12 65 27 11 17 240 522 291 644 l14 32 -262 0 c-162 0
-257 -4 -249 -9z m201 -180 c0 -12 -20 -25 -27 -18 -7 7 6 27 18 27 5 0 9 -4
9 -9z m94 -58 c-6 -44 -6 -45 17 -38 13 4 26 8 29 9 3 0 6 -3 8 -9 4 -12 9 -9
-130 -74 l-108 -50 -2 -53 c-1 -29 -2 -71 -2 -93 -1 -30 -5 -40 -20 -43 -17
-4 -18 1 -11 83 l7 87 -46 -31 c-25 -17 -66 -49 -91 -71 -47 -41 -75 -51 -75
-27 0 13 103 95 175 138 36 22 38 24 17 27 -31 5 -37 25 -23 73 12 40 51 74
51 45 0 -8 -4 -18 -10 -21 -5 -3 -10 -20 -10 -37 0 -42 13 -27 25 29 6 26 16
48 24 51 11 4 13 -7 7 -57 -4 -33 -5 -61 -2 -61 3 0 35 14 70 32 60 30 64 34
68 70 5 58 -19 47 -31 -15 -10 -46 -31 -46 -31 0 0 21 4 44 9 52 10 16 71 40
84 33 4 -2 5 -24 1 -49z m-113 -31 c-3 -37 -16 -62 -32 -62 -11 0 0 80 14 98
15 19 22 5 18 -36z m-221 -2 c-20 -12 -33 -1 -19 16 9 11 15 12 23 4 8 -8 7
-13 -4 -20z m70 -25 c0 -8 -4 -15 -9 -15 -10 0 -14 -10 -25 -62 -4 -17 -13
-28 -22 -28 -13 0 -15 7 -10 31 3 17 6 40 6 51 0 10 10 23 23 28 32 13 37 12
37 -5z m-85 -67 c-4 -29 -11 -57 -15 -62 -16 -16 -29 5 -24 37 11 68 15 77 30
77 13 0 15 -8 9 -52z"/>
<path d="M6762 3843 c-18 -21 -32 -41 -32 -45 0 -5 -7 -8 -15 -8 -8 0 -15 -5
-15 -11 0 -6 -7 -18 -16 -26 -11 -11 -13 -24 -8 -42 3 -14 9 -53 13 -86 l6
-60 24 75 c12 41 38 110 57 153 19 43 34 80 34 82 0 14 -20 1 -48 -32z"/>
<path d="M6709 3853 c-13 -16 -12 -17 4 -4 9 7 17 15 17 17 0 8 -8 3 -21 -13z"/>
<path d="M1922 3388 c2 -28 7 -33 28 -33 21 0 26 5 28 33 3 30 1 32 -28 32
-29 0 -31 -2 -28 -32z"/>
<path d="M2942 3388 c2 -25 8 -34 26 -36 19 -3 22 1 22 32 0 32 -3 36 -26 36
-23 0 -25 -3 -22 -32z"/>
<path d="M4280 3065 l0 -355 28 0 27 0 0 257 0 258 58 3 c53 3 57 5 57 27 0
23 -3 25 -54 25 -61 0 -67 7 -62 75 3 54 -2 65 -30 65 l-24 0 0 -355z"/>
<path d="M4490 3065 l0 -355 30 0 30 0 0 355 0 355 -30 0 -30 0 0 -355z"/>
<path d="M5710 3065 l0 -356 26 3 25 3 2 255 2 255 58 3 c53 3 57 5 57 27 0
24 -3 25 -59 25 l-59 0 1 68 c1 66 1 67 -26 70 l-27 3 0 -356z"/>
<path d="M5932 3388 c2 -28 7 -33 28 -33 21 0 26 5 28 33 3 30 1 32 -28 32
-29 0 -31 -2 -28 -32z"/>
<path d="M2527 3280 c-57 -15 -89 -34 -134 -83 -27 -29 -47 -64 -57 -98 -20
-65 -20 -92 -1 -155 57 -193 283 -254 435 -117 l53 48 -7 -65 c-18 -158 -85
-217 -238 -208 -58 3 -86 10 -138 37 -61 31 -65 32 -77 14 -12 -16 -11 -21 14
-40 46 -37 138 -63 222 -63 120 0 205 50 248 145 15 35 18 77 21 313 l3 272
-25 0 c-24 0 -26 -3 -26 -50 0 -27 -3 -50 -6 -50 -3 0 -15 11 -25 24 -45 57
-180 96 -262 76z m153 -62 c170 -63 180 -308 15 -391 -105 -52 -243 -9 -290
89 -91 191 77 375 275 302z"/>
<path d="M3247 3274 c-29 -9 -64 -31 -87 -54 l-40 -40 0 50 c0 49 -1 50 -30
50 l-30 0 0 -285 0 -285 29 0 30 0 3 188 c3 173 5 191 27 235 65 132 255 142
319 17 21 -41 22 -57 22 -242 l0 -198 30 0 30 0 0 183 c-1 199 -8 253 -46 309
-46 71 -161 103 -257 72z"/>
<path d="M5365 3281 c-47 -12 -90 -38 -118 -71 -14 -16 -28 -30 -31 -30 -3 0
-6 23 -6 50 0 47 -2 50 -25 50 l-25 0 0 -285 0 -285 24 0 24 0 4 178 c4 133 9
189 22 224 53 145 260 172 329 43 20 -36 22 -58 25 -242 l3 -203 25 0 25 0 -3
218 c-3 184 -6 222 -21 249 -47 86 -150 129 -252 104z"/>
<path d="M6260 3275 c-60 -19 -124 -75 -158 -139 -23 -44 -27 -63 -27 -141 0
-74 4 -98 22 -131 35 -66 70 -101 131 -131 103 -50 231 -34 320 42 31 26 32
29 17 46 -16 17 -19 16 -60 -16 -162 -123 -375 -13 -375 194 1 209 211 312
378 185 32 -25 35 -25 50 -9 16 15 14 19 -22 51 -68 59 -179 79 -276 49z"/>
<path d="M1300 3273 c0 -4 58 -132 128 -283 122 -263 129 -275 156 -275 26 0
33 12 152 273 68 150 124 278 124 283 0 6 -12 9 -27 7 -24 -3 -35 -22 -135
-247 -59 -134 -110 -246 -112 -248 -2 -2 -53 108 -114 244 -108 240 -112 248
-142 251 -16 2 -30 0 -30 -5z"/>
<path d="M1920 2995 l0 -285 30 0 30 0 0 285 0 285 -30 0 -30 0 0 -285z"/>
<path d="M2050 2996 l0 -286 29 0 30 0 3 168 c3 157 5 171 29 217 33 64 93
110 164 125 48 10 55 14 55 36 0 60 -153 8 -215 -74 l-35 -45 -1 39 c-2 98 -2
99 -31 102 l-28 3 0 -285z"/>
<path d="M2940 2995 l0 -285 25 0 25 0 0 285 0 285 -25 0 -25 0 0 -285z"/>
<path d="M3895 3274 c-51 -13 -105 -38 -105 -48 1 -32 16 -36 68 -16 67 26
173 27 222 2 44 -21 80 -75 80 -117 l0 -33 -138 -4 c-124 -3 -143 -6 -187 -29
-64 -32 -90 -75 -90 -149 0 -76 26 -118 95 -153 48 -25 64 -28 125 -25 74 4
127 24 170 63 l25 24 0 -39 c0 -36 2 -40 26 -40 l25 0 -3 228 -3 229 -28 36
c-42 55 -79 70 -177 73 -47 2 -94 1 -105 -2z m265 -329 c0 -70 -13 -107 -52
-141 -42 -39 -84 -54 -151 -54 -102 0 -157 48 -157 137 0 52 35 97 88 111 20
5 90 10 155 11 l117 1 0 -65z"/>
<path d="M4722 3259 c-57 -18 -62 -22 -56 -42 3 -12 7 -23 8 -24 1 -1 26 7 56
17 68 24 166 25 220 4 44 -18 75 -59 85 -115 l7 -37 -144 -4 c-130 -3 -147 -6
-188 -28 -63 -35 -90 -80 -90 -147 0 -30 6 -66 14 -81 33 -64 104 -102 188
-102 73 0 120 15 173 55 l45 35 0 -40 c0 -36 3 -40 25 -40 l25 0 0 198 c0 108
-5 214 -10 234 -14 50 -55 97 -105 119 -55 25 -170 24 -253 -2z m316 -317 c-6
-83 -27 -124 -80 -159 -59 -39 -165 -44 -223 -11 -47 28 -71 79 -61 132 16 82
69 105 245 106 l124 0 -5 -68z"/>
<path d="M5937 3273 c-4 -3 -7 -132 -7 -285 l0 -278 30 0 30 0 0 285 0 285
-23 0 c-13 0 -27 -3 -30 -7z"/>
</g>
</svg>
