<svg viewBox="0 0 16 16" xmlns="http://www.w3.org/2000/svg" fill-rule="evenodd" clip-rule="evenodd" stroke-linejoin="round" stroke-miterlimit="1.414"><path d="M11.63 5.747c-.257-.097-.66-.2-1.16-.2-1.28 0-2.183.645-2.19 1.57-.008.68.643 1.062 1.134 1.29.505.233.674.38.672.59-.003.318-.403.463-.775.463-.518 0-.793-.072-1.22-.25l-.165-.075-.182 1.064c.302.132.862.247 1.443.253 1.36 0 2.245-.637 2.255-1.624.006-.542-.34-.953-1.086-1.292-.453-.22-.73-.367-.727-.59 0-.197.234-.408.742-.408.422-.007.73.086.968.182l.116.055.176-1.03zm3.322-.113h-1c-.312 0-.544.085-.68.394l-1.924 4.356h1.36l.273-.714 1.66.002c.04.166.158.712.158.712H16l-1.048-4.75zm-8.512-.04h1.296l-.81 4.752H5.63l.81-4.753zm-3.293 2.62l.135.66 1.268-3.24h1.372l-2.04 4.743h-1.37L1.392 6.36c-.023-.068-.052-.115-.12-.158C.894 6.004.47 5.842 0 5.73l.017-.1h2.088c.282.01.51.1.588.402l.454 2.183zm10.207.484l.516-1.33c-.007.014.107-.274.172-.453l.088.41.3 1.372h-1.076z"/></svg>