<svg role="img" viewBox="0 0 24 24" xmlns="http://www.w3.org/2000/svg"><title>Visual Studio icon</title><path d="M17.58.07a1.5 1.5 0 00-1.032.392 1.5 1.5 0 00-.001 0 .88.88 0 00-.05.045L8.53 9.317 3.88 5.504l-.407-.35A1 1 0 002.45 5a1 1 0 00-.012.005l-1.816.75a1 1 0 00-.077.035 1 1 0 00-.047.028 1 1 0 00-.038.022 1 1 0 00-.048.034 1 1 0 00-.031.024 1 1 0 00-.043.036 1 1 0 00-.036.033 1 1 0 00-.032.035 1 1 0 00-.033.038 1 1 0 00-.035.044 1 1 0 00-.024.034 1 1 0 00-.032.051 1 1 0 00-.02.034 1 1 0 00-.024.05 1 1 0 00-.02.045 1 1 0 00-.016.044 1 1 0 00-.016.047 1 1 0 00-.015.055 1 1 0 00-.01.04 1 1 0 00-.008.054 1 1 0 00-.006.05 1 1 0 00-.004.083V17.33a1 1 0 00.615.917l1.816.763a1 1 0 001.034-.163l.408-.35 4.65-3.813 7.968 8.81a1.5 1.5 0 00.072.065 1.5 1.5 0 00.057.05 1.5 1.5 0 00.058.042 1.5 1.5 0 00.063.044 1.5 1.5 0 00.065.038 1.5 1.5 0 00.065.036 1.5 1.5 0 00.068.031 1.5 1.5 0 00.07.03 1.5 1.5 0 00.073.025 1.5 1.5 0 00.066.02 1.5 1.5 0 00.08.02 1.5 1.5 0 00.068.014 1.5 1.5 0 00.075.01 1.5 1.5 0 00.075.007 1.5 1.5 0 00.073.003 1.5 1.5 0 00.077 0 1.5 1.5 0 00.078-.005 1.5 1.5 0 00.067-.007 1.5 1.5 0 00.087-.014 1.5 1.5 0 00.06-.012 1.5 1.5 0 00.08-.022 1.5 1.5 0 00.068-.02 1.5 1.5 0 00.07-.028 1.5 1.5 0 00.089-.037l4.942-2.376a1.5 1.5 0 00.475-.362 1.5 1.5 0 00.09-.112 1.5 1.5 0 00.004-.007 1.5 1.5 0 00.08-.125 1.5 1.5 0 00.062-.12 1.5 1.5 0 00.009-.017 1.5 1.5 0 00.041-.107 1.5 1.5 0 00.014-.037 1.5 1.5 0 00.03-.107 1.5 1.5 0 00.009-.037 1.5 1.5 0 00.017-.1 1.5 1.5 0 00.008-.05 1.5 1.5 0 00.006-.091 1.5 1.5 0 00.004-.079V3.946a1.5 1.5 0 000-.002 1.5 1.5 0 000-.032 1.5 1.5 0 00-.01-.15 1.5 1.5 0 00-.84-1.17L18.203.217a1.5 1.5 0 00-.621-.146zm.417 6.852v10.157l-6.195-5.078zM3.005 8.576l3.097 3.425-3.097 3.424z"/></svg>