<svg role="img" viewBox="0 0 24 24" xmlns="http://www.w3.org/2000/svg"><title>Vite icon</title><path d="M17.277.113 9.1 1.714a.301.301 0 0 0-.242.278l-.11 1.858L.992 2.464c-.69-.123-1.23.644-.884 1.252l11.267 19.758c.32.56 1.157.558 1.472-.006L23.896 3.712c.34-.61-.205-1.37-.892-1.244l-6.281 1.145.899-3.122a.3.3 0 0 0-.345-.378zM.905 2.947 8.72 4.343l-.364 6.142a.3.3 0 0 0 .368.31L11 10.27a.3.3 0 0 1 .362.353l-.677 3.311a.3.3 0 0 0 .382.347l1.406-.425a.3.3 0 0 1 .381.347l-1.076 5.202c-.067.325.366.503.547.224l.12-.188 6.662-13.293a.3.3 0 0 0-.324-.43l-2.343.453a.3.3 0 0 1-.345-.378l.477-1.653 6.521-1.189a.347.347 0 0 1 .374.522L12.42 23.228a.349.349 0 0 1-.62.002L.535 3.473a.347.347 0 0 1 .37-.526z"/></svg>