<svg role="img" viewBox="0 0 24 24" xmlns="http://www.w3.org/2000/svg"><title>Vitess</title><path d="M12.066 0.069L2.272 5.666C2.111 5.758 2.012 5.928 2.012 6.113V17.873C2.012 18.058 2.111 18.229 2.271 18.321L12.066 23.931C12.41 24.128 12.838 23.484V21.08L3.929 17.426C3.627 17.302 3.429 17.008 3.429 16.681V7.159C3.429 6.832 3.627 6.537 3.931 6.413L12.838 2.783V0.516C12.838 0.12 12.41-0.128 12.066 0.069Z M12.838 3.096L4.04 6.682C3.846 6.761 3.719 6.95 3.719 7.159V16.681C3.719 16.89 3.846 17.079 4.039 17.158L12.838 20.766V18.743L6.45 16.803C6.11 16.7 5.878 16.387 5.878 16.032V7.808C5.878 7.453 6.111 7.14 6.451 7.037L12.838 5.113V3.096Z M12.838 6.617V5.416L6.535 7.315C6.317 7.38 6.168 7.581 6.168 7.808V16.032C6.168 16.26 6.317 16.46 6.534 16.526L12.838 18.44V17.233L9.592 16.469C9.228 16.383 8.971 16.058 8.971 15.684V8.157C8.971 7.782 9.229 7.457 9.594 7.372L12.838 6.617Z M12.838 6.915L9.66 7.655C9.426 7.709 9.261 7.917 9.261 8.157V15.684C9.261 15.924 9.426 16.132 9.659 16.186L12.838 16.935V6.915Z M20.281 18.687L21.355 18.94C21.678 19.016 21.988 18.771 21.988 18.438V5.433C21.988 5.101 21.679 4.855 21.356 4.931L20.281 5.181V18.687Z M17.187 19.76L18.874 20.272C19.205 20.373 19.54 20.125 19.54 19.779V18.811L17.187 18.257V19.76Z M17.187 17.959V5.902L19.54 5.354V18.513L17.187 17.959Z M17.187 5.604V4.106L18.875 3.598C19.206 3.498 19.54 3.746 19.54 4.091V5.056L17.187 5.604Z M13.611 21.084L15.735 21.955C16.074 22.094 16.446 21.844 16.446 21.478V19.838L13.611 18.978V21.084Z M13.611 18.674L16.446 19.535V18.082L13.611 17.415V18.674Z M13.611 6.437V5.183L16.446 4.329V5.777L13.611 6.437Z M13.611 17.117V6.735L16.446 6.074V17.784L13.611 17.117Z M13.611 4.881V2.781L15.736 1.915C16.075 1.777 16.446 2.026 16.446 2.392V4.027L13.611 4.881Z"/></svg>