<svg role="img" xmlns="http://www.w3.org/2000/svg" viewBox="0 0 24 24"><title>VMware icon</title><path d="M.506 10.102a.548.548 0 00-.205.048.496.496 0 00-.248.68l1.138 2.477c.18.388.369.591.723.591.379 0 .544-.221.723-.591l1.004-2.188a.146.146 0 01.144-.092c.086 0 .156.069.156.16v2.118c0 .326.182.593.53.593.348 0 .537-.267.537-.593v-1.733c0-.334.238-.55.564-.55.327 0 .543.224.543.55v1.733c0 .326.182.593.53.593.347 0 .537-.267.537-.593v-1.733c0-.334.238-.55.564-.55.326 0 .545.224.545.55v1.733c0 .326.181.593.53.593.347 0 .534-.267.534-.593v-1.971c0-.724-.582-1.232-1.283-1.232-.7 0-1.138.484-1.138.484-.233-.302-.554-.484-1.098-.484-.574 0-1.076.484-1.076.484a1.287 1.287 0 00-.96-.484c-.508 0-.911.223-1.157.787l-.729 1.716-.934-2.2a.504.504 0 00-.474-.303zm21.855.066c-.976 0-1.693.828-1.693 1.855v.014c0 1.103.792 1.856 1.762 1.856.6 0 .996-.216 1.33-.54a.228.228 0 00.084-.171.23.23 0 00-.233-.227.23.23 0 00-.15.06c-.26.242-.58.415-1.018.415-.628 0-1.167-.434-1.242-1.205h2.553a.248.248 0 00.246-.25c0-.945-.595-1.807-1.639-1.807zm-3.43.004a.27.27 0 00-.263.271v3.145c0 .152.118.27.271.27a.263.263 0 00.264-.27v-1.223c0-1.038.57-1.56 1.268-1.644a.266.266 0 00.238-.272c0-.153-.105-.271-.266-.271-.388 0-.975.284-1.24.883v-.618a.267.267 0 00-.271-.271zm-9.076.006a.266.266 0 00-.271.258c0 .048.021.104.035.146l1.092 3.04c.056.158.167.241.299.241h.013c.14 0 .245-.083.293-.242l.905-2.584.896 2.584c.05.16.154.242.293.242h.02c.125 0 .237-.083.293-.242l1.097-3.047c.014-.042.035-.098.035-.146 0-.133-.11-.25-.263-.25-.147 0-.223.097-.258.209l-.918 2.633-.904-2.627c-.042-.125-.131-.215-.278-.215h-.029c-.138 0-.222.09-.264.215l-.91 2.627-.904-2.62c-.042-.131-.132-.222-.272-.222zm6.635.002c-.458 0-.724.05-1.078.203-.098.043-.146.112-.146.222 0 .125.11.23.236.23a.276.276 0 00.098-.02c.264-.118.474-.165.836-.165.673 0 1.07.334 1.07.979v.127a3.799 3.799 0 00-1.106-.154c-.91 0-1.535.403-1.535 1.16v.013c0 .737.675 1.119 1.342 1.12.63 0 1.048-.293 1.299-.62v.344c0 .139.102.25.254.25a.254.254 0 00.258-.264v-1.982c0-.459-.124-.806-.368-1.049-.263-.264-.653-.394-1.16-.394zm5.858.437c.703 0 1.072.564 1.127 1.213H21.2c.068-.697.532-1.213 1.147-1.213zm-5.893 1.381c.437 0 .792.076 1.057.152v.348c0 .569-.542.973-1.201.973-.487 0-.905-.266-.905-.717v-.014c0-.45.376-.742 1.05-.742Z"/></svg>
