<svg role="img" xmlns="http://www.w3.org/2000/svg" viewBox="0 0 24 24"><title>Vodafone icon</title><path d="M11.844 0C7.766.039 3.784 2.3 1.717 5.824c-1.988 3.274-2.279 7.514-.694 11.008 1.545 3.585 4.947 6.286 8.793 6.961 3.799.738 7.905-.532 10.627-3.281 2.813-2.733 4.095-6.904 3.34-10.748-.797-4.51-4.434-8.35-8.89-9.4A12.37 12.37 0 0011.843 0zm3.67 1.723l-.043.023c-1.662.948-2.782 2.887-2.547 4.817 1.951.405 3.957 1.481 4.719 3.425 1.052 2.56.067 5.753-2.264 7.244-2.153 1.436-5.224 1.214-7.156-.505-1.936-1.626-2.724-4.37-2.233-6.809.587-3.26 2.97-6.033 6.01-7.287 1.112-.49 2.296-.815 3.514-.908Z"/></svg>
