<svg role="img" xmlns="http://www.w3.org/2000/svg" viewBox="0 0 24 24"><title>Vodafone icon</title><path d="M12 0C5.37 0 .002 5.37 .002 12C.002 18.63 5.37 24 12 24C18.63 24 24 18.63 24 12C24 7.21 21.18 3.08 17.12 1.16C14.95 1.62 13.22 3.64 13.23 5.94C13.23 6 13.23 6.1 13.24 6.14C16.9 7.03 18.55 9.23 18.56 12.28C18.57 15.33 16.17 18.68 12.1 18.69C8.8 18.7 5.37 15.89 5.35 11.37C5.34 8.38 6.96 5.5 9 3.8C11.03 2.13 13.78 1.07 16.28 1.06C16.58 1.06 16.9 1.09 17.1 1.15A11.93 11.93 0 0 0 12 0M17.1 1.15C17.11 1.16 17.12 1.16 17.12 1.16L17.14 1.15C17.13 1.15 17.11 1.16 17.1 1.15Z"/></svg>
