<svg role="img" viewBox="0 0 24 24" xmlns="http://www.w3.org/2000/svg"><title>vouchercloud</title><path d="M1.295 16.012 0 16.556c1.144 3.353 5.04 4.999 5.04 4.999l.558-1.209c-3.343-1.453-4.303-4.334-4.303-4.334zm2.423-1.009-1.203.502c.871 2.589 3.56 3.804 3.56 3.804l.54-1.17c-2.454-1.41-2.897-3.136-2.897-3.136zM14.324 4.295c2.083.002 3.745 1.766 3.823 3.687l.03.726.72.103c1.859.27 3.256 1.616 3.252 3.426a3.556 3.556 0 0 1-1.11 2.572 3.903 3.903 0 0 1-2.717 1.081H10.47a3.928 3.928 0 0 1-2.717-1.114 3.552 3.552 0 0 1-1.11-2.571c-.004-1.772 1.332-3.09 3.134-3.407l.692-.121.032-.703c.081-1.917 1.741-3.677 3.823-3.679m0-1.85h-.002a5.751 5.751 0 0 0-5.587 4.7c-2.36.705-3.947 2.7-3.941 5.063a5.388 5.388 0 0 0 1.675 3.899 5.752 5.752 0 0 0 4.002 1.633h7.852a5.736 5.736 0 0 0 4-1.598A5.396 5.396 0 0 0 24 12.239c.005-2.441-1.642-4.453-4.09-5.106a5.749 5.749 0 0 0-5.585-4.688z"/></svg>