<svg role="img" viewBox="0 0 24 24" xmlns="http://www.w3.org/2000/svg"><title>VOX icon</title><path d="M6.598 15.81H4.183L0 8.19h3.759l1.67 3.237L7.146 8.19h2.987a4.341 4.341 0 0 0-2.09 3.71c0 .374.048.748.123 1.096m8.738 2.814h-2.69c1.446-.698 2.466-2.191 2.466-3.908a4.31 4.31 0 0 0-2.115-3.711h2.988l.995 1.295.996-1.295h4.232l-3.26 3.61L24 15.81h-4.133l-1.394-1.743m-7.767-2.141c0-.87.72-1.593 1.593-1.593a1.59 1.59 0 0 1 1.593 1.593c0 .895-.697 1.594-1.593 1.594a1.589 1.589 0 0 1-1.593-1.594"/></svg>
