<svg role="img" viewBox="0 0 24 24" xmlns="http://www.w3.org/2000/svg"><title>VOX icon</title><path d="M0 8.198l4.182 7.604h2.442L8.15 13.07s-.018-.055-.025-.083a3.136 3.136 0 0 1-.058-.268 4.082 4.082 0 0 1-.044-.305l-.015-.155c-.002-.027-.005-.053-.006-.08-.003-.055-.002-.111-.002-.167 0-.056-.003-.112-.002-.168 0-.031.003-.063.005-.095a5.395 5.395 0 0 1 .04-.418 4.898 4.898 0 0 1 .088-.446 4.398 4.398 0 0 1 .219-.645c.014-.033.028-.066.044-.099l.062-.127.057-.11.024-.043.029-.053a3.348 3.348 0 0 1 .15-.24 4.447 4.447 0 0 1 .358-.463l.11-.12.064-.067c.03-.03.06-.057.09-.084.048-.045.096-.09.146-.133a4.166 4.166 0 0 1 .362-.282 4.494 4.494 0 0 1 .228-.149c.028-.017.056-.036.086-.051a.468.468 0 0 1 .045-.02H7.113l-1.678 3.215-1.706-3.216zm14.342 0l.027.014c.036.02.072.043.109.065.03.017.06.034.088.052.033.02.064.043.096.064.031.02.064.041.095.063.029.02.057.043.085.064.05.038.099.075.147.115.042.033.082.068.123.104.047.042.092.085.138.128l.077.074.07.076.121.135a3.944 3.944 0 0 1 .346.462 4.385 4.385 0 0 1 .157.263c.032.058.062.118.091.178.02.037.039.075.056.113.013.028.024.056.036.085a6.373 6.373 0 0 1 .106.273 4.458 4.458 0 0 1 .105.347l.026.109c.01.045.02.09.028.135l.02.11.015.092.012.09.01.094c.005.048.01.095.012.143l.006.081c.002.053.002.107.002.16.001.053.003.106.002.16 0 .032-.003.064-.005.096l-.01.17a5.56 5.56 0 0 1-.035.291 4.768 4.768 0 0 1-.093.448 4 4 0 0 1-.139.43 3.89 3.89 0 0 1-.19.423 4.604 4.604 0 0 1-.24.411 4.401 4.401 0 0 1-.478.594 5.103 5.103 0 0 1-.354.328 6.922 6.922 0 0 1-.163.128c-.032.024-.063.049-.096.072-.033.023-.066.044-.1.066-.053.035-.106.07-.16.103a3.22 3.22 0 0 1-.263.145l-.103.05h2.767l1.564-1.754 1.42 1.754h4.129l-3.504-4.032 3.088-3.572H19.41l-.952 1.249-.931-1.249zm-2.071 1.59a2.126 2.126 0 0 0-2.126 2.127 2.126 2.126 0 0 0 2.126 2.126 2.126 2.126 0 0 0 2.126-2.126 2.126 2.126 0 0 0-2.126-2.127z"/></svg>