<svg role="img" viewBox="0 0 24 24" xmlns="http://www.w3.org/2000/svg"><title>VRR</title><path d="M14.433 9.997h1.609c.85 0 1.566.294 1.566 1.262 0 .581-.31 1.033-.898 1.14l1.057 1.754H16.67l-.87-1.661h-.451v1.66h-.916zm.916 1.72h.54c.334 0 .769-.012.769-.464 0-.416-.376-.481-.71-.481h-.6v.945m-4.718-1.72h1.608c.851 0 1.567.294 1.567 1.262 0 .581-.31 1.033-.898 1.14l1.057 1.754h-1.098l-.868-1.661h-.452v1.66h-.916zm.916 1.72h.54c.334 0 .769-.012.769-.464 0-.416-.376-.481-.71-.481h-.6v.945m-5.457-1.72h1.044l1.027 2.724h.012l1.045-2.724h.98l-1.713 4.156h-.734L6.088 9.997M11.474 0 1.296 5.71v12.484L11.474 24v-3.782L4.559 16.14V7.73l6.915-3.937V0m1.04 0v3.792l6.914 3.937v8.411l-6.914 4.078V24l10.19-5.806V5.71L12.514 0"/></svg>