<svg viewBox="0 0 24 24" xmlns="http://www.w3.org/2000/svg"><title>vSphere</title><path d="M19.98 0h-6.524l-1.004 1h7.428c1.807 0 3.213 1.4 3.213 3.1v15.8c0 1.7-1.406 3.1-3.112 3.1h-6.325l-1.003 1h7.227c2.31 0 4.116-1.8 4.116-4.1V4.1c.1-2.3-1.707-4.1-4.015-4.1zm-8.432 23h-7.43c-1.708 0-3.114-1.4-3.114-3.1V4.1C1.004 2.4 2.41 1 4.117 1h6.327l1.004-1h-7.33C1.807 0 0 1.8 0 4.1v15.8C0 22.2 1.808 24 4.117 24h6.527zm7.732-1.8H8.837c-1.004 0-1.908-.8-1.908-1.9V8.6c0-1 .803-1.9 1.908-1.9H19.28c1.005 0 1.908.8 1.908 1.9v10.7c0 1-.803 1.9-1.908 1.9zM8.837 7.7c-.502 0-.904.4-.904.9v10.7c0 .5.402.9.904.9H19.28c.502 0 .904-.4.904-.9V8.6c0-.5-.402-.9-.904-.9zm-2.812 8.6H4.72a.898.898 0 01-.904-.9V4.7c0-.5.402-.9.904-.9h10.443c.502 0 .904.4.904.9v1.1h1.004V4.7c0-1-.803-1.9-1.908-1.9H4.72c-1.005 0-1.908.8-1.908 1.9v10.7c0 1 .803 1.9 1.908 1.9h1.305z"/></svg>