<svg role="img" viewBox="0 0 24 24" xmlns="http://www.w3.org/2000/svg"><title>vSphere</title><path d="M20,0h-6.5l-1,1h7.4c1.8,0,3.2,1.4,3.2,3.1v15.8c0,1.7-1.4,3.1-3.1,3.1h-6.3l-1,1h7.2c2.3,0,4.1-1.8,4.1-4.1V4.1C24.1,1.8,22.3,0,20,0z M11.5,23H4.1C2.4,23,1,21.6,1,19.9V4.1C1,2.4,2.4,1,4.1,1h6.3l1-1H4.1C1.8,0,0,1.8,0,4.1v15.8C0,22.2,1.8,24,4.1,24h6.5L11.5,23z M19.3,21.2H8.9c-1,0-1.9-0.8-1.9-1.9V8.6c0-1,0.8-1.9,1.9-1.9h10.4c1,0,1.9,0.8,1.9,1.9v10.7C21.2,20.3,20.4,21.2,19.3,21.2z M8.9,7.7C8.4,7.7,8,8.1,8,8.6v10.7c0,0.5,0.4,0.9,0.9,0.9h10.4c0.5,0,0.9-0.4,0.9-0.9V8.6c0-0.5-0.4-0.9-0.9-0.9C19.3,7.7,8.9,7.7,8.9,7.7z M6,16.3H4.7c-0.5,0-0.9-0.4-0.9-0.9V4.7c0-0.5,0.4-0.9,0.9-0.9h10.4c0.5,0,0.9,0.4,0.9,0.9v1.1h1V4.7c0-1-0.8-1.9-1.9-1.9H4.7c-1,0-1.9,0.8-1.9,1.9v10.7c0,1,0.8,1.9,1.9,1.9H6V16.3z"/></svg>