<svg role="img" viewBox="0 0 24 24" xmlns="http://www.w3.org/2000/svg"><title>VTEX</title><path d="M22.207 2H4.28C2.891 2 2 3.435 2.655 4.634l1.79 3.309H1.197c-.42 0-.809.212-1.025.565-.217.347-.23.785-.032 1.144L5.903 20.29c.21.383.612.62 1.058.62.445 0 .847-.237 1.057-.62l1.567-2.87 1.961 3.624c.694 1.272 2.567 1.278 3.26 0l8.98-16.477C24.425 3.405 23.558 2 22.208 2Zm-8.056 7.037-3.872 7.11a.796.796 0 0 1-.7.408.796.796 0 0 1-.701-.407l-3.84-7.08a.77.77 0 0 1 .018-.76.794.794 0 0 1 .682-.378h7.731c.274 0 .523.14.663.365.14.225.146.511.019.742z"/></svg>