<svg role="img" viewBox="0 0 24 24" xmlns="http://www.w3.org/2000/svg"><title>VTEX</title><path d="M22.1947 2H4.2738C2.8855 2 1.994 3.4356 2.6435 4.6401l1.796 3.3093h-3.248c-.4203 0-.8024.2068-1.019.5596-.2165.3528-.2292.7787-.0382 1.1436l5.7699 10.6456c.2038.3772.6113.6205 1.0571.6205.4331 0 .8407-.2433 1.0445-.6205l1.5666-2.8834 1.9742 3.6256c.6878 1.2774 2.5602 1.2774 3.248.0122L23.7869 4.567c.6368-1.168-.2293-2.567-1.5922-2.567ZM14.145 9.0443l-3.872 7.1052a.7969.7969 0 0 1-.7006.4136.7969.7969 0 0 1-.7005-.4136L5.038 9.0687c-.1401-.2434-.1274-.5232.0127-.7665.1401-.2312.4076-.3772.6878-.3772h7.7313c.2675 0 .5222.146.6624.365.14.2312.14.511.0127.7543z"/></svg>