<svg role="img" viewBox="0 0 24 24" xmlns="http://www.w3.org/2000/svg"><title>Vultr icon</title><path d="M8.477 2.493a1.156 1.156 0 00-.979-.553h-5.95A1.161 1.161 0 00.387 3.101a1.172 1.172 0 00.176.62L11.79 21.528a1.167 1.167 0 001.969 0l2.975-4.717a1.189 1.189 0 00.177-.62 1.172 1.172 0 00-.177-.62zM18.492 10.893a1.167 1.167 0 001.97 0l1.022-1.62 1.952-3.097a1.172 1.172 0 00.177-.62 1.189 1.189 0 00-.177-.619l-1.548-2.444a1.167 1.167 0 00-.984-.553h-5.95a1.161 1.161 0 00-1.162 1.161 1.106 1.106 0 00.182.62z"/></svg>