<svg role="img" viewBox="0 0 24 24" xmlns="http://www.w3.org/2000/svg"><title>Wagmi</title><path d="M23.487 9.176a.513.513 0 1 0 0 1.027.513.513 0 0 0 0-1.027ZM.385 10.588a.385.385 0 0 0-.385.385v2.31c0 .213.172.385.385.385h4.62a.385.385 0 0 0 .385-.385v-1.54c0-.212.173-.385.385-.385h4.428a.193.193 0 0 1 0 .385H6.16a.385.385 0 0 0-.385.385v1.155c0 .213.173.385.385.385h4.62a.385.385 0 0 0 .386-.385v-2.31a.385.385 0 0 0-.385-.385H5.005a.385.385 0 0 0-.385.385v1.54a.385.385 0 0 1-.385.385h-.77a.385.385 0 0 1-.385-.385v-1.54a.385.385 0 1 0-.77 0v1.54a.385.385 0 0 1-.385.385h-.77a.385.385 0 0 1-.385-.385v-1.54a.385.385 0 0 0-.385-.385zm11.55 0a.385.385 0 0 0-.384.385v2.31c0 .213.172.385.385.385h4.043a.193.193 0 0 1 0 .385h-4.043a.385.385 0 1 0 0 .77h4.62a.385.385 0 0 0 .385-.384v-3.466a.385.385 0 0 0-.385-.385zm5.776 0a.385.385 0 0 0-.385.385v2.31a.385.385 0 1 0 .77 0v-1.54c0-.212.173-.385.385-.385h.77c.213 0 .385.173.385.385v1.54a.385.385 0 1 0 .77 0v-1.54c0-.212.173-.385.385-.385h.77c.213 0 .386.173.386.385v1.54c0 .213.172.385.385.385h1.155a.385.385 0 0 0 .385-.385v-2.31a.385.385 0 1 0-.77 0v1.733a.193.193 0 0 1-.385 0v-1.733a.385.385 0 0 0-.385-.385zm-5.005.77h3.08c.213 0 .385.173.385.385v.77a.385.385 0 0 1-.385.385h-3.08a.385.385 0 0 1-.385-.385v-.77c0-.212.172-.385.385-.385zm-5.968 1.155h3.465a.193.193 0 0 1 0 .385H6.738a.193.193 0 0 1 0-.385z"/></svg>