<svg role="img" viewBox="0 0 24 24" xmlns="http://www.w3.org/2000/svg"><title>Wallapop</title><path d="M10 0C4.46 0 0 4.46 0 10v22c0 5.54 4.46 10 10 10h22c5.54 0 10-4.46 10-10V10c0-5.54-4.46-10-10-10H10zm13.34 9c4.2-.01 7.21 3.655 7.082 7.902a.483.483 0 0 0 .242.465c.365.228 1.81 1.326 2.27 3.637h.002c.32 1.608-.214 5.363-4.096 6.385-.2.052-.335.253-.36.463a5.899 5.899 0 0 1-2.55 4.216c-2.608 1.748-6.1.994-7.84-1.646-.138-.22-.345-.305-.63-.22a5.492 5.492 0 0 1-4.802-.628c-2.622-1.728-3.383-5.32-1.705-8.021a.58.58 0 0 0-.1-.727c-1.921-1.727-2.391-4.378-1.208-6.705 1.367-2.683 4.594-3.659 7.306-2.21.213.113.488.132.645-.054 1.384-1.65 3.06-2.849 5.744-2.857zm-.35 2.38c-1.145-.002-2.314.386-3.355 1.165-.302.226-.877.716-1.24 1.45-.186.371-.757.506-1.086.259-.007-.005-.058-.057-.065-.063-1.674-1.37-3.991-1.036-5.146.588-1.21 1.701-.92 4.05.824 5.323.57.416 1.217.57 1.914.615a.72.72 0 0 1 .662.72.717.717 0 0 1-.701.733 5.183 5.183 0 0 1-1.467-.197c-.247-.066-.466.061-.584.273-1.059 1.922-.406 4.365 1.461 5.455.81.476 1.768.635 2.688.444a.53.53 0 0 0 .414-.584 5.754 5.754 0 0 1 1.029-3.98.769.769 0 0 1 1.076-.226c.358.245.459.73.225 1.096-1.116 1.768-.631 4.135 1.086 5.285 1.718 1.15 4.014.647 5.13-1.12.374-.59.58-1.271.598-1.975.002-.476.266-.758.748-.778 2.044-.122 3.657-1.933 3.54-4.039-.036-.608-.298-1.392-.6-1.916-.146-.253-.462-.372-.71-.22a.62.62 0 0 0-.202.244c-.488.974-1.275 1.872-2.124 2.533a.775.775 0 0 1-1.06-.12c-.28-.33-.252-.847.078-1.12 2.49-2.072 2.808-5.527.846-7.895-1.075-1.295-2.507-1.945-3.979-1.95z"/></svg>