<svg role="img" viewBox="0 0 24 24" xmlns="http://www.w3.org/2000/svg"><title>Walmart icon</title><path d="M11.99858,0.018c-0.88072,0 -1.58074,0.50911 -1.58074,1.12889l0.53487,6.26928c0.05904,0.37771 0.50602,0.66906 1.04638,0.66906c0.54143,-0.00073 0.98684,-0.29183 1.04712,-0.66906l0.53741,-6.26928c0,-0.61973 -0.70198,-1.12884 -1.58396,-1.12884l-0.00108,-0.00005zm-8.71626,5.02892c-0.45723,0.01123 -0.97663,0.36957 -1.30702,0.96253c-0.44186,0.78959 -0.36356,1.67196 0.15343,1.98152l5.51183,2.65706c0.34433,0.13257 0.81198,-0.12055 1.08279,-0.60382c0.00004,-0.00007 -0.00004,-0.0002 0,-0.00027c0.27206,-0.48566 0.251,-1.03172 -0.03541,-1.27394l-4.97815,-3.61435c-0.12929,-0.07751 -0.27472,-0.1124 -0.42714,-0.10865l-0.00034,-0.00008zm17.43252,0c-0.15238,-0.00374 -0.2976,0.03114 -0.42664,0.10865l-4.97879,3.61435c-0.28471,0.2422 -0.30582,0.7883 -0.03515,1.27394l0.00026,0.00027c0.27181,0.48328 0.73794,0.73639 1.08228,0.60382l5.51428,-2.65693c0.51914,-0.30956 0.59355,-1.19189 0.15468,-1.98152c-0.33189,-0.59298 -0.85215,-0.9513 -1.30934,-0.96253l-0.00158,-0.00005zm-12.86836,8.27143c-0.07131,-0.001 -0.14043,0.0104 -0.20516,0.03561l-5.51183,2.65387c-0.51698,0.31092 -0.59528,1.19362 -0.15343,1.98405c0.44053,0.78803 1.21701,1.16267 1.73412,0.85363l4.97854,-3.61155c0.28645,-0.24517 0.30759,-0.79109 0.03541,-1.27627l0.00226,0.00106c-0.22006,-0.3952 -0.57089,-0.63612 -0.87989,-0.64048l-0.00001,0.00008zm8.30664,0c-0.30864,0.00435 -0.65878,0.24528 -0.87938,0.64048l0.00201,-0.00106c-0.27084,0.48518 -0.24987,1.0311 0.0349,1.27627l4.97879,3.61155c0.51615,0.30904 1.29339,-0.06559 1.73592,-0.85363c0.43887,-0.79045 0.36446,-1.67316 -0.15468,-1.98405l-5.51261,-2.65387c-0.06472,-0.02521 -0.13368,-0.03662 -0.20491,-0.03561l-0.00005,-0.00008zm-4.15531,2.59824c-0.53945,0.00067 -0.9854,0.29078 -1.04436,0.66751l-0.53487,6.26902c0,0.62082 0.70001,1.12889 1.58074,1.12889c0.88236,0 1.5837,-0.50808 1.5837,-1.12889l-0.53612,-6.26902c-0.06029,-0.37673 -0.5057,-0.66679 -1.04712,-0.66751l-0.00201,0l0.00003,0z"/></svg>