<svg role="img" viewBox="0 0 24 24" xmlns="http://www.w3.org/2000/svg"><title>Walmart</title><path d="M20.598 12.462c.068.115.063.244-.008.301l-1.247.853c-.13.073-.323-.016-.434-.202-.11-.186-.091-.395.038-.468l1.38-.626c.086-.032.204.028.272.142m1.64 0c.067-.114.184-.174.27-.142l1.38.626c.13.073.149.282.04.468-.111.186-.306.275-.435.202l-1.246-.853c-.072-.057-.077-.186-.01-.3m-.82.462c.136 0 .247.068.263.157l.133 1.48c0 .146-.174.266-.395.266-.222 0-.397-.12-.397-.266l.134-1.48c.016-.089.127-.157.263-.157m.82-1.387c.067.114.184.174.27.143l1.38-.627c.13-.073.149-.281.04-.468-.111-.186-.306-.274-.435-.201l-1.246.853c-.072.057-.077.186-.01.3m-1.64 0c.068-.114.062-.243-.01-.3l-1.245-.853c-.13-.073-.323.015-.434.201-.11.187-.091.395.038.468l1.38.627c.086.031.204-.029.272-.143m.82-.462c.135 0 .246-.068.262-.158l.133-1.48c0-.145-.174-.266-.395-.266-.222 0-.397.12-.397.267l.134 1.48c.016.089.127.157.263.157M8 11.176v2.465h.687v-1.446c0-.067.007-.14.03-.201.058-.146.197-.316.419-.316.277 0 .407.228.407.558v1.405h.686v-1.463a.67.67 0 0 1 .028-.2.432.432 0 0 1 .412-.3c.28 0 .416.224.416.612v1.351h.687V12.19c0-.766-.4-1.069-.849-1.069a.933.933 0 0 0-.5.134 1.052 1.052 0 0 0-.319.307h-.01a.721.721 0 0 0-.697-.44c-.427 0-.619.21-.736.39h-.01v-.335m6.185.02v2.465h.705a31.99 31.99 0 0 1-.006-1.44c.18-.495.448-.426.781-.42v-.646a.742.742 0 0 0-.842.505v-.464h-.618m1.763-.817v2.422c0 .333.065.567.203.71.12.125.317.206.556.206.202 0 .4-.037.494-.072l-.01-.52a1.1 1.1 0 0 1-.259.03c-.232 0-.31-.146-.31-.445v-.927h.594v-.628h-.594v-.776h-.673m-8.936 2.585V10.36H7v3.282h.684v-.697m-1.821-.183c0 .045-.005.09-.018.133a.478.478 0 0 1-.46.315c-.19 0-.34-.104-.34-.326 0-.339.383-.432.818-.43zm.682-.59c0-.56-.245-1.05-1.07-1.05a1.997 1.997 0 0 0-.946.219l.134.45c.169-.104.436-.19.69-.19.42-.001.488.232.488.38v.036c-.915-.001-1.492.307-1.492.937 0 .384.294.744.806.744.314 0 .576-.123.734-.319h.016s.104.426.68.263a3.517 3.517 0 0 1-.04-.594v-.877M0 10.36l.693 2.775c.11.452.311.619.89.506l.372-1.48c.095-.368.158-.63.219-1.004h.01c.043.378.104.637.182 1.005 0 0 .152.672.229 1.025.079.353.295.575.86.454l.89-3.282h-.717l-.304 1.42c-.082.412-.155.735-.213 1.113h-.01c-.051-.374-.118-.684-.2-1.087l-.317-1.446h-.748l-.337 1.41c-.095.428-.184.774-.242 1.14h-.01c-.068-.4-.14-.797-.22-1.194L.755 10.36H0m13.558 2.401a.47.47 0 0 1-.018.134.478.478 0 0 1-.46.315c-.19 0-.34-.105-.34-.326 0-.339.382-.432.817-.43zm.681-.59c0-.558-.244-1.05-1.07-1.05a1.997 1.997 0 0 0-.946.22l.135.449a1.41 1.41 0 0 1 .69-.189c.418-.001.487.232.487.38v.036c-.914-.001-1.492.307-1.492.937 0 .384.294.744.805.744.315 0 .578-.123.736-.319h.016s.104.426.68.263c-.063-.496-.04-.953-.04-1.471"/></svg>