<svg role="img" viewBox="0 0 24 24" xmlns="http://www.w3.org/2000/svg"><title>Walmart</title><path d="M11.9986,0.018c-0.86791,0 -1.55775,0.50911 -1.55775,1.12889l0.52709,6.26928c0.05819,0.37771 0.49866,0.66906 1.03116,0.66906c0.53355,-0.00073 0.97248,-0.29183 1.03189,-0.66906l0.5296,-6.26928c0,-0.61973 -0.69177,-1.12884 -1.56092,-1.12884l-0.00106,-0.00005zm-8.58948,5.02892c-0.45058,0.01123 -0.96242,0.36957 -1.28801,0.96253c-0.43544,0.78959 -0.35828,1.67196 0.1512,1.98152l5.43167,2.65706c0.33932,0.13257 0.80017,-0.12055 1.06704,-0.60382c0.00004,-0.00007 -0.00004,-0.0002 0,-0.00027c0.26811,-0.48566 0.24735,-1.03172 -0.03489,-1.27394l-4.90574,-3.61435c-0.12741,-0.07751 -0.27073,-0.1124 -0.42093,-0.10865l-0.00033,-0.00008zm17.17897,0c-0.15016,-0.00374 -0.29327,0.03114 -0.42043,0.10865l-4.90638,3.61435c-0.28057,0.2422 -0.30138,0.78829 -0.03464,1.27394l0.00025,0.00027c0.26785,0.48328 0.72721,0.73639 1.06654,0.60382l5.43407,-2.65693c0.51159,-0.30956 0.58491,-1.19189 0.15243,-1.98152c-0.32706,-0.59298 -0.83975,-0.9513 -1.29029,-0.96253l-0.00155,-0.00005zm-12.68119,8.27143c-0.07027,-0.001 -0.13839,0.0104 -0.20217,0.03561l-5.43167,2.65387c-0.50946,0.31092 -0.58662,1.19362 -0.1512,1.98405c0.43412,0.78803 1.19931,1.16267 1.7089,0.85363l4.90612,-3.61155c0.28228,-0.24517 0.30311,-0.79109 0.03489,-1.27627l0.00223,0.00106c-0.21686,-0.3952 -0.56259,-0.63612 -0.86709,-0.64048l-0.00001,0.00008zm8.18582,0c-0.30415,0.00435 -0.6492,0.24528 -0.86659,0.64048l0.00198,-0.00106c-0.2669,0.48518 -0.24624,1.0311 0.0344,1.27627l4.90638,3.61155c0.50864,0.30904 1.27458,-0.06559 1.71067,-0.85363c0.43248,-0.79045 0.35916,-1.67316 -0.15243,-1.98405l-5.43243,-2.65387c-0.06378,-0.02521 -0.13174,-0.03662 -0.20193,-0.03561l-0.00005,-0.00008zm-4.09488,2.59824c-0.5316,0.00067 -0.97106,0.29078 -1.02917,0.66751l-0.52709,6.26902c0,0.62082 0.68983,1.12889 1.55775,1.12889c0.86953,0 1.56066,-0.50808 1.56066,-1.12889l-0.52832,-6.26902c-0.05941,-0.37673 -0.49834,-0.66679 -1.03189,-0.66751l-0.00198,0l0.00003,0z"/></svg>