<svg role="img" viewBox="0 0 24 24" xmlns="http://www.w3.org/2000/svg"><title>Walmart</title><path d="M0 12v12h24V0H0v12zM6.992 10.166c.005.03.062.543.127 1.136.062.594.122 1.072.129 1.049.01-.017.055-.359.105-.759.051-.402.113-.899.139-1.105l.05-.378h.265l.266.015.14 1.091c.074.602.138 1.123.144 1.158.004.034.067-.463.139-1.107l.133-1.164h.256c.144 0 .259.007.259.022 0 .032-.408 3.505-.423 3.586-.011.068-.048.077-.318.077h-.308l-.139-1.136c-.079-.625-.151-1.135-.161-1.135-.01 0-.018.025-.018.051 0 .029-.061.544-.137 1.135l-.135 1.085h-.632l-.211-1.791c-.117-.982-.218-1.813-.222-1.843-.01-.039.052-.051.263-.051.2 0 .279.012.289.051zM11.209 11.957v1.843h-.552V10.115h.552v1.842zm6.023-1.349v.278h.338l-.006.373-.008.377-.161.012-.163.015v.616c0 .574.005.63.05.711.044.078.07.09.169.069l.117-.026v.714l-.073.05c-.097.059-.342.059-.459.003-.117-.06-.224-.224-.291-.445-.05-.171-.053-.228-.06-1.603l-.007-1.424h.554v.28zM10.164 10.917c.123.113.215.287.269.505.035.145.043.334.05 1.273l.011 1.105h-.535v-.313l-.057.112c-.223.432-.676.35-.821-.151-.054-.187-.05-.633.008-.835.064-.227.247-.411.518-.528.261-.116.329-.179.329-.321 0-.155-.074-.205-.276-.184-.144.012-.207.043-.346.172l-.17.154v-.807l.104-.093c.167-.155.32-.206.58-.189.185.009.262.031.336.1zm2.412-.022c.077.072.124.154.168.295l.06.198.063-.18c.172-.492.628-.54.799-.077.093.257.108.474.11 1.607v1.062h-.552v-1.028c0-.974-.003-1.033-.048-1.114-.093-.166-.242-.078-.297.179-.031.128-.038.353-.038 1.064v.899h-.526l-.008-1.031c-.007-1.025-.007-1.036-.064-1.117-.121-.17-.266-.042-.313.281-.014.111-.026.553-.026 1.028v.809h-.528v-2.914h.528v.442l.07-.173c.06-.149.137-.238.266-.326.084-.054.236-.024.336.066zm2.432.03c.062.055.142.162.174.245.118.272.128.389.13 1.545v1.085h-.504v-.308l-.093.15c-.224.361-.613.299-.765-.112-.057-.149-.065-.218-.065-.506 0-.304.004-.344.074-.497.1-.224.219-.329.51-.457.135-.061.263-.129.282-.159.045-.065.043-.164-.008-.263-.08-.162-.461-.075-.657.154-.051.062-.099.113-.106.113-.007 0-.013-.171-.013-.377 0-.403.011-.446.137-.562.219-.201.7-.233.904-.051zm1-.311c.002.349.002.353.037.216.083-.344.246-.566.415-.566h.1v.986h-.148c-.111 0-.174.024-.231.085-.129.141-.149.288-.149 1.114v.729h-.552v-2.914h.528v.35zM9.751 12.587c-.129.108-.177.177-.194.263-.05.272.072.47.235.376.108-.06.149-.214.139-.535l-.007-.248-.173.144zm4.849-.009c-.222.186-.279.365-.181.579.058.129.204.129.281 0 .06-.101.094-.346.08-.582l-.008-.132-.172.135z"/></svg>