<svg role="img" viewBox="0 0 24 24" xmlns="http://www.w3.org/2000/svg"><title>Warner Bros. icon</title><path d="M 16.58,10.238 C 16.056,10.238 15.58,10.438 14.115,11.49 V 17.15 C 16.655,14.295 17.379,12.342 17.379,11.34 17.376,10.638 17.053,10.238 16.579,10.238 Z M 16.78,6.482 C 16.78,5.477 15.634,4.652 14.115,4.553 V 9.787 C 16.032,8.66 16.779,7.53 16.779,6.482 Z M 21.29,4.26 C 21.265,4.16 21.24,4.123 21.19,4.11 L 19.394,3.634 19.144,2.607 C 19.132,2.557 19.119,2.52 19.07,2.507 L 17.226,2.007 17.002,1.029 A 0.137,0.137 0 0 0 16.902,0.904 L 12.115,0.01 A 0.641,0.641 0 0 0 11.878,0.01 L 7.09,0.904 A 0.137,0.137 0 0 0 6.99,1.029 L 6.766,2.006 4.923,2.506 C 4.873,2.519 4.861,2.556 4.848,2.606 L 4.598,3.633 2.808,4.11 C 2.758,4.123 2.733,4.16 2.708,4.26 A 12.935,12.935 0 0 0 2.484,6.69 C 2.484,13.904 6.221,20.167 11.801,23.9 A 0.25,0.25 0 0 0 12.201,23.9 C 17.781,20.167 21.518,13.904 21.518,6.69 21.518,5.875 21.442,5.061 21.29,4.26 Z M 11.297,20.581 C 11.297,20.631 11.247,20.656 11.198,20.606 9.828,19.029 8.906,17.1 8.284,14.996 L 7.337,15.599 C 7.087,15.775 6.889,15.699 6.737,15.424 5.467,13.17 4.645,9.463 4.57,6.86 A 0.452,0.452 0 0 1 4.695,6.535 C 5.035,6.126 5.4,5.742 5.791,5.383 5.865,5.308 5.941,5.357 5.941,5.483 5.941,8.688 6.488,11.668 7.361,13.623 7.435,13.773 7.51,13.773 7.609,13.697 L 7.883,13.522 C 7.36,11.192 7.061,8.087 7.136,4.506 7.136,4.381 7.161,4.33 7.236,4.281 7.617,4.041 8.017,3.832 8.431,3.655 8.555,3.605 8.581,3.63 8.581,3.73 8.511,8.938 8.935,12.543 9.855,15.423 9.88,15.498 9.955,15.473 9.955,15.398 9.905,14.346 9.905,13.42 9.905,12.293 L 9.854,3.3 C 9.854,3.2 9.879,3.15 9.979,3.125 10.389,3.023 10.804,2.948 11.224,2.899 A 0.066,0.066 0 0 1 11.298,2.974 Z M 12.792,20.606 C 12.742,20.656 12.692,20.631 12.692,20.581 V 2.976 A 0.067,0.067 0 0 1 12.767,2.901 C 16.104,3.126 18.247,4.529 18.247,6.557 18.246,7.399 17.935,8.21 17.374,8.835 18.47,9.135 18.894,9.962 18.894,11.064 18.896,13.018 17.476,16.249 12.794,20.606"/></svg>