<svg role="img" viewBox="0 0 24 24" xmlns="http://www.w3.org/2000/svg"><title>Warner Bros.</title><path d="m12 .413-.19.027C8.892.827 6.363 1.555 4.077 2.646l-.804.382v1.227l-1.57.85v1.174L0 7.193l.135.973c.452 3.27 1.642 6.228 3.54 8.796 1.918 2.594 4.506 4.716 7.694 6.309l.631.316.631-.316c3.187-1.593 5.776-3.715 7.694-6.31 1.897-2.566 3.088-5.525 3.54-8.795L24 7.193l-1.707-.915V5.106l-1.57-.85V3.028l-.804-.382C17.634 1.556 15.105.827 12.189.44Zm-.001 1.428c2.75.365 5.14 1.048 7.31 2.08v1.177l1.571.85v1.177l1.58.848c-.16 1.09-.672 4.653-3.278 8.149-2.65 3.6-6.133 5.346-7.184 5.883-1.051-.538-4.536-2.284-7.185-5.883-2.606-3.497-3.118-7.06-3.277-8.149l1.583-.849V5.947l1.568-.85V3.921c2.17-1.036 4.56-1.716 7.312-2.081Zm.74 2.545v15.156c3.184-1.64 6.973-6.133 6.993-8.42.005-.698-.364-1.156-1.113-1.515.568-.63.688-1.086.688-1.64 0-.783-.646-1.48-1.588-2.078-.567-.362-1.438-.8-2.706-1.154a10.666 10.666 0 0 0-2.274-.349zm-1.479.002a10.442 10.442 0 0 0-1.607.283l-.001-.001.074 9.574-.067.04C8.646 11.72 8.04 8.525 7.85 5.318a12.547 12.547 0 0 0-1.566.843c.218 2.91.716 5.455 1.608 7.87l-.505.292C6.046 12.447 5.17 10.167 4.57 7.46a13.942 13.942 0 0 0-1.225 1.256c.786 3.249 2.022 5.708 3.829 7.712l1.391-.833a16.033 16.033 0 0 0 2.695 3.947zm3.045 1.81c.785 0 3.323.803 3.323 1.816 0 .365-.323.888-1.326 1.415L14.306 10.5zm2.986 4.287c.861.217.818.852.818.918 0 .799-.817 2.034-1.827 3.201-.448.517-1.181 1.306-1.977 1.92v-4.35s2.88-1.621 2.986-1.69z"/></svg>