<?xml version="1.0" encoding="UTF-8"?>
<svg xmlns="http://www.w3.org/2000/svg" xmlns:xlink="http://www.w3.org/1999/xlink" width="23px" height="20px" viewBox="0 0 24 24" version="1.1">
<g id="surface1">
<path style="stroke:none;fill-rule:evenodd;fill:#51a9ff;fill-opacity:1;" d="M 15.761719 2.09375 C 15.089844 1.785156 14.964844 0.800781 15.578125 0.339844 C 15.59375 0.328125 15.609375 0.316406 15.625 0.304688 C 15.679688 0.253906 15.785156 0.199219 15.914062 0.152344 C 16.015625 0.117188 16.125 0.0976562 16.234375 0.0976562 C 16.292969 0.09375 16.347656 0.09375 16.382812 0.109375 C 16.488281 0.128906 16.589844 0.164062 16.683594 0.214844 C 16.867188 0.296875 16.996094 0.40625 17.074219 0.527344 C 17.140625 0.605469 17.203125 0.703125 17.203125 0.800781 C 17.273438 0.996094 17.285156 1.207031 17.234375 1.410156 C 17.183594 1.613281 17.074219 1.792969 16.917969 1.933594 C 16.761719 2.074219 16.570312 2.160156 16.363281 2.191406 C 16.160156 2.21875 15.949219 2.183594 15.761719 2.09375 Z M 12.839844 3.605469 C 12.59375 3.789062 12.15625 4.046875 11.777344 4.214844 C 10.550781 4.738281 9.628906 5.324219 9.292969 5.875 C 9.140625 6.09375 9.078125 6.125 8.984375 6 C 8.800781 5.570312 8.679688 5.109375 8.710938 4.644531 C 8.699219 3.875 8.90625 3.125 9.300781 2.472656 C 9.300781 2.46875 9.296875 2.464844 9.292969 2.460938 L 9.445312 2.246094 L 9.570312 2.070312 C 9.574219 2.023438 9.722656 1.851562 9.964844 1.628906 C 10.425781 1.167969 11.039062 0.921875 11.746094 0.769531 C 12.679688 0.714844 13.3125 1.199219 13.519531 1.914062 C 13.5625 1.933594 13.574219 1.996094 13.5625 2.089844 C 13.574219 2.140625 13.578125 2.195312 13.585938 2.246094 C 13.613281 2.351562 13.59375 2.519531 13.550781 2.671875 C 13.546875 2.703125 13.542969 2.726562 13.53125 2.738281 C 13.5 2.832031 13.460938 2.917969 13.421875 2.96875 C 13.382812 3.074219 13.226562 3.253906 13.09375 3.382812 C 12.980469 3.5 12.890625 3.578125 12.839844 3.605469 Z M 5.734375 6.152344 C 5.714844 6.503906 5.785156 6.820312 5.902344 7.007812 C 5.925781 7.0625 5.953125 7.117188 5.980469 7.167969 C 6.195312 7.539062 6.441406 7.816406 6.808594 8 L 6.777344 8.03125 L 7.085938 8.152344 L 7.113281 7.847656 L 7.175781 7.230469 L 7.191406 7.09375 C 7.199219 7.050781 7.207031 7.003906 7.207031 6.953125 C 7.28125 6.710938 7.375 6.476562 7.484375 6.246094 C 7.605469 5.96875 7.667969 5.753906 7.667969 5.539062 C 7.667969 5.292969 7.605469 5.199219 7.421875 4.984375 C 7.238281 4.800781 7.023438 4.769531 6.714844 4.800781 C 6.347656 4.832031 5.734375 5.292969 5.734375 6.152344 Z M 0.242188 9.082031 C 0.179688 8.933594 0.113281 8.714844 0.0625 8.492188 C 0.046875 8.433594 0.0351562 8.386719 0.0273438 8.339844 C 0.0078125 8.292969 0 8.21875 0 8.125 C 0 7.199219 0.519531 6.308594 1.347656 5.90625 C 1.632812 5.753906 2.179688 5.632812 2.484375 5.609375 L 2.484375 5.601562 C 2.507812 5.601562 2.535156 5.601562 2.566406 5.605469 C 2.617188 5.601562 2.652344 5.605469 2.675781 5.613281 C 2.824219 5.628906 2.996094 5.65625 3.035156 5.679688 C 3.136719 5.714844 3.4375 5.839844 3.648438 5.96875 L 3.957031 6.152344 C 3.988281 6.1875 4.007812 6.214844 4.019531 6.238281 C 4.046875 6.269531 4.074219 6.300781 4.109375 6.339844 C 4.351562 6.582031 4.542969 6.871094 4.664062 7.191406 L 4.722656 7.261719 L 5.273438 8.492188 L 5.398438 8.761719 C 5.503906 8.984375 5.625 9.261719 5.707031 9.484375 L 6.132812 10.371094 C 6.285156 10.734375 6.382812 10.980469 6.4375 11.140625 C 6.496094 11.230469 6.582031 11.375 6.65625 11.539062 C 6.839844 12.0625 6.898438 12.152344 6.992188 12 C 7 11.980469 7.011719 11.972656 7.019531 11.976562 L 9.351562 8 C 9.691406 7.476562 10.855469 6.308594 11.285156 6 L 11.746094 5.691406 L 11.734375 5.710938 C 12.394531 5.246094 13.136719 4.914062 13.921875 4.738281 C 15.210938 4.429688 16.375 4.617188 16.988281 5.230469 C 17.109375 5.328125 17.203125 5.425781 17.269531 5.519531 C 17.339844 5.609375 17.382812 5.703125 17.402344 5.796875 C 17.414062 5.84375 17.417969 5.894531 17.417969 5.9375 C 17.417969 6.03125 17.375 6.121094 17.3125 6.179688 C 17.195312 6.355469 17.042969 6.519531 16.867188 6.644531 L 15.738281 7.6875 L 15.722656 7.703125 C 15.675781 7.761719 15.625 7.816406 15.574219 7.867188 C 15.453125 8.003906 15.285156 8.183594 15.058594 8.429688 L 14.484375 9.082031 C 14.601562 9.269531 14.769531 9.605469 14.8125 9.691406 L 14.800781 9.691406 L 14.804688 9.695312 C 14.828125 9.722656 14.851562 9.765625 14.886719 9.832031 C 14.914062 9.886719 14.949219 9.953125 14.996094 10.03125 C 15.070312 10.152344 15.113281 10.226562 15.132812 10.28125 C 15.191406 10.363281 15.238281 10.441406 15.273438 10.523438 C 15.320312 10.621094 15.371094 10.699219 15.410156 10.765625 C 15.4375 10.8125 15.460938 10.851562 15.480469 10.886719 C 15.515625 10.945312 15.558594 11.019531 15.609375 11.109375 C 15.652344 11.195312 15.699219 11.273438 15.738281 11.339844 C 15.785156 11.417969 15.824219 11.480469 15.835938 11.519531 C 15.910156 11.660156 15.984375 11.792969 16.054688 11.921875 L 16.121094 11.992188 C 16.199219 11.933594 16.375 11.621094 16.652344 10.984375 L 16.683594 10.910156 C 16.898438 10.410156 17.015625 10.136719 17.121094 10.027344 C 17.453125 9.292969 17.800781 8.566406 18.15625 7.847656 L 18.03125 8 L 17.847656 8.308594 L 17.972656 8 C 18.15625 7.445312 18.585938 6.675781 18.828125 6.398438 C 19.101562 6.113281 19.4375 5.894531 19.8125 5.765625 C 20.1875 5.636719 20.585938 5.601562 20.976562 5.660156 C 22.265625 5.875 23.183594 7.109375 22.96875 8.429688 C 22.925781 8.734375 22.777344 9.160156 22.660156 9.382812 L 22.691406 9.382812 L 22.570312 9.628906 C 22.246094 10.484375 21.867188 11.28125 21.460938 12.105469 C 21.058594 13.085938 20.601562 14.042969 20.089844 14.976562 L 20.269531 14.769531 L 20.148438 15.046875 C 20.136719 15.070312 20.128906 15.09375 20.117188 15.117188 C 20.082031 15.210938 20 15.394531 19.859375 15.714844 C 19.816406 15.808594 19.769531 15.914062 19.71875 16.03125 C 19.597656 16.296875 19.5 16.496094 19.425781 16.628906 L 19.382812 16.738281 C 19.199219 17.167969 19.050781 17.503906 18.933594 17.742188 C 18.960938 17.75 18.605469 18.542969 18.09375 19.230469 C 18.0625 19.261719 18.027344 19.289062 17.992188 19.316406 C 17.863281 19.464844 17.816406 19.496094 17.796875 19.464844 C 17.5625 19.621094 17.304688 19.738281 17.03125 19.8125 C 16.636719 19.921875 16.222656 19.929688 15.824219 19.847656 L 15.824219 19.875 C 15.484375 19.78125 15.167969 19.617188 14.894531 19.394531 C 14.621094 19.171875 14.394531 18.898438 14.230469 18.585938 C 14.191406 18.519531 14.160156 18.460938 14.128906 18.410156 C 14.082031 18.332031 14.046875 18.269531 14.015625 18.214844 C 14.074219 18.367188 14.105469 18.457031 14.105469 18.460938 L 12.207031 14.984375 C 12.105469 14.820312 12.058594 14.734375 12.054688 14.671875 C 11.96875 14.519531 11.890625 14.371094 11.828125 14.257812 L 11.828125 14.253906 L 11.808594 14.214844 L 11.777344 14.214844 C 11.632812 13.984375 11.539062 13.859375 11.480469 13.847656 C 11.292969 14.183594 11.113281 14.507812 10.941406 14.816406 C 10.109375 16.324219 9.5 17.425781 9.296875 17.691406 L 9.015625 18.152344 C 8.898438 18.367188 8.8125 18.515625 8.742188 18.617188 C 8.753906 18.621094 8.757812 18.625 8.761719 18.628906 C 8.773438 18.648438 8.730469 18.707031 8.617188 18.863281 C 8.308594 19.351562 7.71875 19.757812 7.300781 19.820312 C 7.289062 19.828125 7.28125 19.839844 7.269531 19.847656 C 7.082031 19.90625 6.316406 19.9375 6.042969 19.875 L 6.070312 19.875 C 5.824219 19.804688 5.441406 19.628906 5.300781 19.515625 C 5.070312 19.367188 4.832031 19.144531 4.644531 18.882812 C 4.636719 18.875 4.628906 18.867188 4.628906 18.863281 L 4.601562 18.863281 L 4.601562 18.816406 C 4.589844 18.800781 4.578125 18.785156 4.570312 18.769531 L 4.472656 18.523438 C 4.390625 18.410156 4.296875 18.226562 4.171875 17.9375 L 3.617188 16.605469 L 3.617188 16.617188 L 3.015625 15.296875 C 2.9375 15.167969 2.847656 14.957031 2.699219 14.585938 L 2.085938 13.167969 L 1.839844 12.640625 C 1.746094 12.472656 1.664062 12.300781 1.59375 12.121094 L 1.375 11.578125 C 1.304688 11.453125 1.21875 11.242188 1.09375 10.941406 C 1.03125 10.855469 0.9375 10.691406 0.859375 10.492188 L 0.859375 10.460938 L 0.613281 9.9375 L 0.625 9.933594 C 0.480469 9.664062 0.242188 9.140625 0.242188 9.082031 Z M 0.242188 9.082031"/>
</g>
</svg>
