<svg role="img" viewBox="0 0 24 24" xmlns="http://www.w3.org/2000/svg"><title>WEB.DE</title><path d="M3 0C1.35 0 0 1.35 0 3v18c0 1.65 1.35 3 3 3h18c1.65 0 3-1.35 3-3V3c0-1.65-1.35-3-3-3Zm9.732 2.19c.048 0 .086.046.118.11.063.126.097.333.107.467.065.82.32-.014.436.082.088.09.394.592.348.902-.08.545-1.476.504-1.652.488-.15-.013-.574-.072-.716-.327-.136-.245.134-.78.333-.985.011-.011.157-.158.284-.207.016-.006.022-.01.042-.016.01-.002.016.004.011.027-.028.144-.036.64.177.626.195-.012.23-.764.308-.959a.467.467 0 0 1 .127-.181.16.16 0 0 1 .077-.028zm-.226 2.413c2.083.02 3.888.223 5.09.417 0 0 .803.102.972.392.093.16.093.381.037.525-.038.099-.184.014-.153.206.315-.062.922.037 1.089.34.219.4-.096.367-.256.553-.11.13-.013.385-.228.486-.237.112-.797-.132-1.063-.16a24.421 24.421 0 0 1-.894-.107c-1.133-.16-2.373-.113-3.526-.068-1.095.042-2.21.058-3.296.239-.977.163-2.085.22-3.051.557-.357.127-1.574.649-1.538-.134.016-.33.426-.372.682-.448.185-.054.392-.054.472-.151.142-.172-.612-.003-.796.03-.186.032-.442.161-.635.09-.509-.188-.26-.641.108-.765.298-.1.526-.184.905-.247 4.533-.538 6.461-.54 11.51-.33-.051-.397-2.215-.468-2.609-.552-.637-.152-5.586-.225-7.072.154-.301.076-1.353.247-1.948.369-.31.064-.435-.237-.402-.495.035-.182.03-.184.308-.297.626-.254 1.699-.33 2.31-.401a31.883 31.883 0 0 1 3.984-.203ZM17.29 8.01c.241.022.292.213.423.41.207.314.258.479.294.858.046.404.06 2.001.044 2.618.002.346.121 1.34.008 1.88.715.083 1.427.2 2.131.349 0-.005 1.236.236 1.5.596a.528.528 0 0 1 .118.27.833.833 0 0 1 .005.156.8.8 0 0 1-.06.184.325.325 0 0 1-.165.136.606.606 0 0 1-.123.037c-.021.004-.149.03-.269.002-.048-.012-.101-.02-.156-.036a1.881 1.881 0 0 1-.357-.155c-.783-.448-2.045-.619-2.864-.782-1.884-.356-10.438-.717-13.427.476-.604.237-.944.387-1.561.325-.027-.003-.282-.024-.324-.037a.451.451 0 0 1-.307-.326 1.235 1.235 0 0 1-.015-.167.319.319 0 0 1 .042-.147c.079-.123.099-.174.438-.327.553-.247 1.365-.283 2.285-.426.378-.057.713-.106 1.045-.15-.008-.017-.005-.035-.01-.05a5.467 5.467 0 0 1-.074-1.129c.08-.873.264-2.222.392-3.08.036-.247-.019-.465.194-.636.335-.268.498-.148.691.03.336.312.433.333.369.885-.266 2.29-.404 3.51-.308 3.806l.008.027c.64-.06 1.283-.108 1.926-.141.348-.015.697-.027 1.046-.035-.247-.134-.484-.345-.563-.557a3.707 3.707 0 0 1-.2-1.164c-.003-.425.06-2.194.079-2.756.005-.148-.008-.414.128-.521.117-.092.554-.147.643-.167.825-.185.572.655.505 1.13-.06.43-.108 2.074-.09 2.606.009.254.04.53.079.74.023.129.106.404.164.522.021.044.052.102.05.147.194-.004 2.52.045 2.607.049-.108-.26-.048-.598-.069-.867-.016-1.285-.298-4.21-.072-4.415.23-.236.48-.173.68.033.163.167.349.292.415.51.097.28.018 2.596.121 3.413.076.51.233.978-.22 1.33l-.037.03c.883.036 1.764.096 2.644.178.004-.16.018-.35.015-.497.035-.304-.117-3.787-.173-3.898L16.8 8.74c-.054-.264.062-.698.375-.73a.604.604 0 0 1 .115 0zM3.124 17.563h.795l.404 2.721.595-2.721h.773l.585 2.732.45-2.733h.744l-.735 3.572h-.919l-.539-2.418-.535 2.418h-.919Zm4.822 0h2.233v.598H8.7v.885h1.304v.599H8.7v.89h1.529v.599H7.946Zm2.87 0h1.194c.794 0 1.178.324 1.178.923 0 .594-.479.8-.479.8s.674.085.674.849c0 .6-.4.999-1.238.999h-1.329zm4.473 0h.964c1.228 0 1.783.658 1.783 1.752 0 1.12-.63 1.819-1.858 1.819h-.889zm3.313 0h2.233v.598h-1.479v.885h1.303v.599h-1.303v.89h1.529v.599h-2.283zm-7.032.56v.943h.325c.369 0 .55-.16.55-.48 0-.314-.18-.464-.625-.464zm4.473.04v2.371h.21c.694 0 1.02-.38 1.02-1.169 0-.794-.336-1.203-1.025-1.203zM11.57 19.61v.964h.415c.445 0 .639-.174.639-.494s-.21-.47-.595-.47zm2.692.82c.22 0 .38.139.38.369 0 .224-.16.385-.39.385-.255 0-.385-.166-.385-.375 0-.235.165-.38.395-.38z"/></svg>