<svg role="img" viewBox="0 0 24 24" xmlns="http://www.w3.org/2000/svg"><title>Webflow icon</title><path d="M7.75 11.342c0-.431-.419-.888-1.143-.888-.814 0-1.707.597-1.844 1.787-.14 1.203.609 1.737 1.363 1.737s1.149-.294 1.553-.686c-.347-.436-.796-.235-.882-.19-.095.048-.217.113-.466.113-.291 0-.588-.131-.588-.674 1.864-.183 2.007-.768 2.007-1.199zm-.924.072c-.012.134-.065.362-1.01.49.199-.707.579-.76.754-.76a.246.246 0 0 1 .256.27zm-3.159.115l-.434 1.363c-.012-.107-.306-2.366-.306-2.366-.683 0-1.048.487-1.241 1.001l-.529 1.369c-.003-.098-.074-1.354-.074-1.354-.041-.63-.617-1.013-1.083-1.013l.564 3.423c.716-.003 1.102-.487 1.303-1.001 0 0 .431-1.113.448-1.164.003.048.309 2.165.309 2.165.719 0 1.105-.454 1.312-.95l1.007-2.473c-.709 0-1.083.484-1.276 1zm6.719-1.08c-.442 0-.781.241-1.066.594v-.003l.255-2.058c-.588 0-1.066.511-1.158 1.271l-.445 3.673c.338 0 .698-.098.891-.347a.986.986 0 0 0 .814.401c.992 0 1.672-1.152 1.672-2.233-.007-.987-.485-1.298-.963-1.298zm-.092 1.766c-.104.603-.439 1.012-.763 1.012-.327 0-.466-.145-.466-.145.062-.529.101-.852.22-1.131s.401-.724.695-.724c.287 0 .418.383.314.988zm3.531-1.686h-.692l.003-.036c.048-.451.154-.689.508-.727.241-.024.347-.148.374-.285.021-.107.086-.478.086-.478-1.39-.009-1.826.591-1.939 1.505l-.003.021h-.015c-.226 0-.475.255-.517.579l-.015.119h.463l-.389 3.213-.119.576.048.003c.65-.024 1.066-.537 1.158-1.283l.303-2.509h.217c.214 0 .463-.214.508-.57l.021-.128zm3.598-.06c-.799 0-1.553.588-1.784 1.511s.119 2.016 1.295 2.016c1.173 0 1.85-1.137 1.85-2.084-.001-.941-.639-1.443-1.361-1.443zm.324 1.717c-.042.419-.226 1.054-.73 1.054-.508 0-.436-.742-.386-1.096.053-.377.264-.915.719-.915.406 0 .444.484.397.957zm4.982-.657l-.434 1.363c-.012-.107-.306-2.366-.306-2.366-.683 0-1.048.487-1.241 1.001l-.529 1.369c-.003-.098-.074-1.354-.074-1.354-.042-.629-.618-1.012-1.084-1.012l.561 3.423c.716-.003 1.102-.487 1.303-1.001 0 0 .431-1.113.445-1.164l.309 2.165c.719 0 1.105-.454 1.312-.95L24 10.529c-.707 0-1.081.484-1.271 1zm-8.251-2.526l-.582 4.694-.119.579.048.003c.627-.009 1.072-.558 1.155-1.25l.336-2.693c.1-.823-.39-1.333-.838-1.333z"/></svg>