<svg role="img" viewBox="0 0 24 24" xmlns="http://www.w3.org/2000/svg"><title>WebMoney icon</title><path d="M11.943.183c1.872 0 3.654.429 5.252 1.196.251.113.503.248.753.384l-1.096.97-1.643-1.692-2.832 2.483L10.71 1.74 5.503 6.368l3.334 3.635-1.302 1.128 3.29 3.635-1.302 1.128 4.704 5.17 2.785-2.529 2.421 2.71c-.48.361-1.005.723-1.575 1.039a12.042 12.042 0 0 1-5.892 1.533C5.366 23.817 0 18.513 0 11.99-.023 5.51 5.343.183 11.943.183zM9.75 11.267l2.855-2.529 2.558 2.822-2.855 2.528zm2.033 4.876l2.832-2.55 2.58 2.82-2.854 2.53zM7.72 6.46l2.854-2.529 2.557 2.822-2.854 2.528zm5.228-1.355l2.124-1.896 1.92 2.1-2.125 1.918zm3.792 8.691l2.123-1.896 1.919 2.121-2.125 1.898zm1.872 4.267l2.124-1.896 1.917 2.099-2.123 1.918zm.868-9.753l1.416-1.264 1.278 1.4-1.415 1.264zm-1.827-4.176l1.416-1.286 1.28 1.422-1.418 1.264zm3.63 8.353l1.416-1.264 1.302 1.4-1.438 1.263zm-6.37-3.138l2.124-1.896 1.917 2.099-2.123 1.897Z"/></svg>