<svg aria-labelledby="simpleicons-webpack-icon" role="img" xmlns="http://www.w3.org/2000/svg" viewBox="0 0 24 24"><title id="simpleicons-wbpack-icon">Webpack icon</title><path fill="#FFF" d="M11.8617074 0l10.8458881 6.1088652v12.2177304l-10.8458881 6.1088652-10.8458882-6.1088652V6.1088652"/><path fill="#000" d="M20.7707567 17.9050839l-8.5511329 4.8158221v-3.7508432l5.3278405-2.9180014 3.2232924 1.8530225zm.5849376-.5273987V7.3062028l-3.1292115 1.79804266v6.47336084l3.1292115 1.8000789zm-18.43780532.5273987L11.469022 22.720906v-3.7508432l-5.3278406-2.9180014-3.2232924 1.8530225zm-.5849376-.5273987V7.3062028l3.12921157 1.79804266v6.47336084L2.3329514 17.3776852zm.3660973-10.7230947L11.469022 1.71455484V5.3411845L5.85075786 8.41801625l-.04294997.02443546-3.1087592-1.7878612zm18.29054832 0l-8.7699732-4.94003567V5.3411845l5.6182641 3.07683176.04295.02443546 3.1087591-1.7878612zm-9.520575 11.4622674l-5.25625732-2.8772755V9.5379749l5.25625732 3.021852v5.557031m.7506018 0l5.2562572-2.8772755V9.5379749l-5.2562572 3.021852v5.557031m-5.650988-9.23864046l5.2767097-2.88949324 5.2767096 2.88949324-5.2767096 3.03406976-5.2767097-3.03406976"/></svg>