<svg xmlns="http://www.w3.org/2000/svg" viewBox="0 0 16 16"><path d="M6.631,2.68a5.511,5.511,0,0,0-3.95,3.95,9.216,9.216,0,0,1,3.1-.857A9.22,9.22,0,0,1,6.631,2.68Z"/><path d="M9.309,5.685C9.017,3.61,8.375,2.5,8,2.5S6.982,3.61,6.69,5.685c.432-.03.871-.05,1.309-.05S8.877,5.654,9.309,5.685Z"/><path d="M13.32,6.632a5.511,5.511,0,0,0-3.95-3.95,9.22,9.22,0,0,1,.856,3.1A9.217,9.217,0,0,1,13.32,6.632Z"/><path d="M6.593,6.593c-.035.438-.056.9-.056,1.407s.021.969.056,1.407c.438.035.9.056,1.407.056s.969-.021,1.407-.056c.035-.437.056-.9.056-1.407s-.021-.97-.056-1.407C8.969,6.558,8.5,6.537,8,6.537S7.03,6.559,6.593,6.593Z"/><path d="M13.5,8c0-.375-1.109-1.017-3.185-1.309.031.432.05.871.05,1.309s-.017.877-.05,1.309C12.39,9.018,13.5,8.375,13.5,8Z"/><path d="M6.69,10.315C6.982,12.391,7.625,13.5,8,13.5s1.017-1.109,1.309-3.185c-.432.031-.87.05-1.309.05S7.122,10.346,6.69,10.315Z"/><path d="M9.369,13.321a5.511,5.511,0,0,0,3.95-3.95,9.217,9.217,0,0,1-3.1.856A9.22,9.22,0,0,1,9.369,13.321Z"/><path d="M5.685,9.31c-.03-.432-.05-.87-.05-1.309s.017-.878.05-1.309C3.609,6.983,2.5,7.625,2.5,8S3.609,9.018,5.685,9.31Z"/><path d="M8,.6A7.4,7.4,0,1,0,15.4,8h0A7.4,7.4,0,0,0,8,.6ZM8,14.4A6.4,6.4,0,1,1,14.4,8h0A6.407,6.407,0,0,1,8,14.4Z"/><path d="M2.679,9.369a5.511,5.511,0,0,0,3.95,3.95,9.22,9.22,0,0,1-.856-3.1A9.217,9.217,0,0,1,2.679,9.369Z"/></svg>