<svg xmlns="http://www.w3.org/2000/svg" viewBox="0 0 16 16"><path d="M3.1 12.9h9.8V3.1H3.1v9.8zm4.6-1.15H3.95v-.63H7.7v.63zm2.75-7.53c.55 0 1.1.2 1.52.53l-.47.7c-.3-.24-.67-.38-1.05-.4-.33 0-.53.15-.53.38 0 .27.18.37.88.54.82.23 1.3.53 1.3 1.25 0 .83-.63 1.3-1.5 1.3-.64-.02-1.26-.26-1.75-.67l.52-.65c.38.3.75.5 1.23.5.37 0 .6-.15.6-.4 0-.23-.15-.35-.82-.53-.83-.22-1.36-.45-1.36-1.27v-.03c0-.75.6-1.25 1.43-1.25zM4.7 4.3l.63 2.4.7-2.4h.7l.7 2.4.62-2.4h.98l-1.2 4.15h-.78l-.67-2.4-.68 2.4h-.77L3.73 4.3h.97z"/><path d="M16 5.42l-1.28-3.17-.8-1.92L10.2 0l-.58.56-.74-.28-2.35 1.25L4 .03 0 1.67l2.15 12.78L11 16l.56-2.84.1-.06H2.9V2.9h10.2v9.35l2.9-1.72-1.75-3.28"/></svg>