<svg xmlns="http://www.w3.org/2000/svg" viewBox="0 0 24 24">
 <title>Untis</title> <path d="M13.72 7.72c0-.12.1-.22.22-.22h1.86c.12 0 .22.1.22.22v5.92c0 .71-.17 1.33-.51 1.85-.34.52-.81.93-1.41 1.22-.6.29-1.3.43-2.1.43-.81 0-1.51-.14-2.12-.43-.6-.29-1.07-.69-1.41-1.22-.33-.53-.5-1.14-.5-1.85V7.72c0-.12.1-.22.22-.22h1.87c.12 0 .22.1.22.22v5.72c0 .33.07.62.21.88.15.26.35.46.61.6.26.15.56.22.91.22.34 0 .64-.07.9-.22s.46-.35.61-.6c.15-.26.22-.55.22-.88V7.72zm10.12 3.74-2.96.08c-.06 0-.11.05-.11.11v.7c0 .06.05.11.11.11l2.96.08c.06 0 .11-.05.11-.11v-.86c0-.06-.05-.11-.11-.11zM11.44.15l.08 2.96c0 .06.05.11.11.11h.7c.06 0 .11-.05.11-.11l.08-2.96c0-.06-.05-.11-.11-.11h-.86c-.06 0-.11.05-.11.11zM.14 12.53l2.96-.08c.06 0 .11-.05.11-.11v-.7c0-.06-.05-.11-.11-.11l-2.96-.08c-.06 0-.11.05-.11.11v.86c0 .06.05.11.11.11zm12.37 11.31-.08-2.96c0-.06-.05-.11-.11-.11h-.7c-.06 0-.11.05-.11.11l-.08 2.96c0 .06.05.11.11.11h.86c.06 0 .11-.05.11-.11zM22.76 7.11l-1.92.86c-.05.02-.08.08-.06.14l.16.4c.02.05.08.08.14.06l1.96-.76c.05-.02.08-.08.06-.14l-.21-.5c-.02-.06-.08-.08-.14-.06zm-2.68-3.75-1.45 1.53c-.04.04-.04.11 0 .15l.3.3c.04.04.11.04.15 0l1.52-1.45c.04-.04.04-.11 0-.15l-.38-.38a.109.109 0 0 0-.15 0zM16.14.92l-.76 1.96c-.02.05 0 .12.06.14l.4.16c.06.02.12 0 .14-.06l.85-1.92c.02-.05 0-.12-.06-.14l-.5-.21c-.05-.02-.12 0-.14.06zm-9.06.29.85 1.92c.02.05.08.08.14.06l.4-.16c.05-.02.08-.08.06-.14L7.77.93a.111.111 0 0 0-.14-.06l-.5.21c-.06.02-.08.08-.06.14zM3.34 3.9l1.52 1.45c.04.04.11.04.15 0l.3-.3c.04-.04.04-.11 0-.15L3.86 3.37a.109.109 0 0 0-.15 0l-.38.38c-.04.04-.04.11 0 .15zM.9 7.81l1.96.76c.05.02.12 0 .14-.06l.16-.4c.02-.05 0-.12-.06-.14l-1.92-.86c-.05-.02-.12 0-.14.06l-.21.5c-.02.05 0 .12.06.14zm.29 9.07 1.92-.86c.05-.02.08-.08.06-.14l-.16-.4a.111.111 0 0 0-.14-.06l-1.96.76c-.05.02-.08.08-.06.14l.21.5c.02.05.08.08.14.06zm2.71 3.78 1.45-1.53c.04-.04.04-.11 0-.15l-.3-.3a.109.109 0 0 0-.15 0l-1.52 1.45c-.04.04-.04.11 0 .15l.38.38c.04.04.11.04.15 0zm3.88 2.45.76-1.96c.02-.05 0-.12-.06-.14l-.4-.16c-.06-.02-.12 0-.14.06l-.85 1.92c-.02.05 0 .12.06.14l.5.21c.05.02.12 0 .14-.06zm9.06-.29-.85-1.92a.111.111 0 0 0-.14-.06l-.4.16c-.06.02-.08.08-.06.14l.76 1.96c.02.05.08.08.14.06l.5-.21c.05-.02.08-.08.06-.14zm3.78-2.69-1.52-1.45a.109.109 0 0 0-.15 0l-.3.3c-.04.04-.04.11 0 .15l1.45 1.53c.04.04.11.04.15 0l.38-.38c.04-.04.04-.11 0-.15zm2.45-3.94-1.96-.76c-.05-.02-.12 0-.14.06l-.16.4c-.02.05 0 .12.06.14l1.92.86c.05.02.12 0 .14-.06l.21-.5c.02-.05 0-.12-.06-.14z"/></svg>