<svg role="img" viewBox="0 0 24 24" xmlns="http://www.w3.org/2000/svg"><title>WeChat icon</title><path d="M23.541 12.7483c-.6089-1.38-1.7579-2.476-3.0918-3.1509-2.354-1.192-5.2809-1.185-7.6288.03-1.631.837-2.993 2.337-3.379 4.1619-.318 1.344-.033 2.791.68 3.9609 1.061 1.762 2.979 2.8869 4.971 3.2479 1.4429.293 2.9358.119 4.3378-.285.842.326 1.592.854 2.408 1.246a52.47 52.47 0 00-.676-2.102c.916-.65 1.746-1.461 2.2439-2.4789.744-1.415.789-3.171.135-4.6299zm-9.9236-9.4657c-2.495-1.404-5.6019-1.615-8.2858-.645-1.764.635-3.36 1.815-4.3459 3.42-.895 1.4499-1.23 3.2578-.799 4.9168.433 1.84 1.711 3.3829 3.262 4.4129-.3.85-.585 1.6989-.855 2.5549.975-.51 1.95-1.043 2.9259-1.561 1.17.375 2.415.559 3.6599.518-.33-.943-.405-1.965-.255-2.951.225-1.3709.975-2.6248 1.994-3.5538 1.7259-1.615 4.1708-2.296 6.4958-2.131-.436-2.1349-1.936-3.9388-3.824-4.9798h.027zm1.733 9.9887c-.209.652-1.156.848-1.615.352-.506-.459-.309-1.418.355-1.623.734-.31 1.582.537 1.26 1.271zm4.7948.092c-.256.586-1.141.723-1.576.27-.209-.191-.27-.479-.344-.73.104-.458.42-.933.93-.955.705-.098 1.336.773.975 1.416h.015zm-7.1548-6.4538c.008.961-1.275 1.561-1.995.909-.747-.535-.535-1.837.342-2.106.785-.315 1.713.344 1.651 1.185zm-6.0588.244c-.172.835-1.291 1.238-1.946.678-.759-.535-.546-1.861.345-2.131.873-.336 1.865.55 1.601 1.453z"/></svg>