<svg role="img" viewBox="0 0 24 24" xmlns="http://www.w3.org/2000/svg"><title>Wells Fargo</title><path d="M21.176 14.897c0 .811-.266 1.553-1.155 1.553-.894 0-1.159-.742-1.159-1.553 0-.81.265-1.552 1.159-1.552.89 0 1.155.742 1.155 1.552zm-13.89-1.113-.507 1.37h1.029l-.506-1.37h-.016zm4.894.231c0-.33-.235-.58-.76-.58h-.698v1.162h.698c.484 0 .76-.218.76-.582zM24 0v24H0V0h24zm-8.801 10.915h3.474V9.5h-.435c-.058.648-.18.994-.76.994h-.855v-2.66c0-.208.085-.262.335-.262h.317v-.419h-2.076v.419h.328c.228 0 .305.076.305.246v2.425c0 .197-.11.25-.267.25h-.366v.423zm-3.85 0h3.472V9.5h-.434c-.058.648-.176.994-.762.994h-.854v-2.66c0-.208.085-.262.334-.262h.318v-.419H11.35v.419h.328c.227 0 .303.076.303.246v2.425c0 .197-.109.25-.268.25h-.363v.423zM1.953 7.772l1.063 3.143h.788l.66-1.954h.011l.594 1.954h.78l1.024-2.998c.094-.282.223-.346.492-.346h.115c.263 0 .375.076.375.322v2.204c0 .342-.105.396-.3.396H7.24v.422h3.715V9.5h-.41c-.062.654-.25.994-.763.994H8.65V9.172h.269c.34 0 .495.175.495.635v.079h.397V8.05h-.397v.074c0 .463-.155.63-.495.63h-.27V7.57h.997c.752 0 .8.323.886.867l.422.001V7.152H5.807v.419h.273c.198 0 .242.084.242.172 0 .07-.02.127-.043.194l-.722 2.05h-.01l-.622-2.099c-.018-.053-.046-.135-.046-.191 0-.074.043-.126.16-.126h.298v-.419H3.642v.419h.136c.164 0 .278.044.335.211l.096.268-.677 1.974H3.52l-.71-2.098a.604.604 0 0 1-.051-.205c0-.074.052-.15.175-.15h.239v-.419h-1.64v.419h.078c.214 0 .294.047.342.201zm1.706 6.85v-1.186h.74c.831 0 .919.418.974.865h.406v-1.285H2.225v.42h.376c.17 0 .264.076.264.213v2.43c0 .16-.085.279-.286.279h-.354v.423h2.077v-.423h-.284c-.261 0-.359-.08-.359-.291V15.04h.232c.353 0 .506.153.506.553v.124h.394v-1.732h-.394v.075c0 .291-.107.56-.472.56h-.266zm9.776 1.275h-.373v.102c0 .253-.07.358-.205.358-.137 0-.219-.085-.219-.471v-.221c0-.578-.335-.743-.731-.773v-.009c.339-.019 1.063-.163 1.063-.89 0-.59-.385-.977-1.204-.977H9.301v.42h.393c.177 0 .235.053.235.204v2.514c0 .15-.073.204-.235.204h-.153c-.3 0-.492-.04-.595-.306l-1.227-3.036H7l-1.2 3.036c-.106.264-.296.306-.595.306v.423h1.767v-.423h-.399c-.11 0-.178-.026-.178-.106 0-.056.014-.102.034-.158l.193-.522h1.339s.178.484.198.535c.022.063.032.12.032.154 0 .07-.042.097-.157.097h-.417v.423h3.75v-.423h-.413c-.163 0-.233-.054-.233-.204v-1.138h.298c.628 0 .903.262.903.908v.197c0 .512.185.776.734.776.469 0 .778-.248.778-.898v-.102zm4.174-1.124h-1.734v.421h.256c.187 0 .301.084.301.267v.219c0 .431-.265.731-.84.731-.72 0-1.08-.649-1.08-1.514 0-.851.36-1.505 1.058-1.505.728 0 .975.68 1.059.91h.466v-1.286h-.397l-.14.308c-.081-.073-.435-.422-1.128-.422-1.11 0-1.807.85-1.807 1.995 0 1.157.708 2 1.807 2 .708 0 1.091-.324 1.177-.403l.211.287h.385v-1.306c0-.221.083-.28.301-.28h.105v-.422zm4.456.124c0-1.13-.817-1.995-2.044-1.995-1.231 0-2.046.865-2.046 1.995 0 1.13.815 2 2.046 2 1.227 0 2.044-.87 2.044-2zm.19-5.03c0-.746-.616-1.066-1.367-1.217-.133-.035-.256-.056-.393-.086-.468-.1-.767-.218-.767-.552 0-.291.307-.491.768-.491.693 0 .96.443 1.105.917h.422V7.152h-.306l-.188.283c-.034-.035-.38-.394-1.057-.394-.707 0-1.423.359-1.423 1.13 0 .7.556 1.02 1.196 1.156.213.046.338.07.531.11.48.103.8.25.8.583 0 .253-.266.526-.798.526-.74 0-1.18-.414-1.271-1.047h-.434v1.416h.385l.125-.338c.09.08.452.451 1.139.451.872 0 1.534-.391 1.534-1.162z"/></svg>