<svg role="img" viewBox="0 0 24 24" xmlns="http://www.w3.org/2000/svg"><title>WhatsApp Business</title><path d="M 12.447 0 C 6.076 0 0.893 5.178 0.893 11.542 C 0.893 13.469 1.378 15.365 2.312 17.077 L 0.068 22.681 C -0.074 23.038 0.009 23.446 0.282 23.718 C 0.466 23.902 0.712 24 0.963 24 C 1.083 24 1.204 23.978 1.32 23.931 L 6.94 21.685 C 8.623 22.602 10.518 23.084 12.447 23.084 C 18.817 23.084 24 17.907 24 11.542 C 24 5.178 18.817 0 12.447 0 Z M 12.447 21.161 C 10.702 21.161 8.993 20.687 7.503 19.792 C 7.237 19.632 6.913 19.611 6.631 19.731 L 2.689 21.313 L 4.154 17.65 L 4.259 17.418 C 4.376 17.159 4.373 16.862 4.251 16.606 C 4.225 16.551 4.19 16.487 4.151 16.423 C 3.28 14.948 2.819 13.26 2.819 11.542 C 2.819 6.239 7.138 1.924 12.447 1.924 C 17.755 1.924 22.074 6.239 22.074 11.542 C 22.074 16.846 17.755 21.161 12.447 21.161 Z M 16.937 8.838 C 16.788 7.119 15.237 5.771 13.409 5.771 H 9.558 C 9.026 5.771 8.596 6.202 8.596 6.733 V 16.351 C 8.596 16.882 9.026 17.313 9.558 17.313 H 13.409 C 15.237 17.313 16.788 15.966 16.937 14.246 C 17.019 13.304 16.701 12.366 16.065 11.673 C 16.024 11.629 15.982 11.585 15.938 11.543 C 15.982 11.501 16.024 11.458 16.065 11.413 C 16.701 10.719 17.019 9.78 16.937 8.838 Z M 13.409 15.389 H 10.521 V 12.504 H 13.581 C 13.991 12.504 14.368 12.67 14.645 12.972 C 14.922 13.274 15.055 13.667 15.019 14.079 C 14.956 14.802 14.233 15.389 13.409 15.389 Z M 14.645 10.112 C 14.368 10.414 13.991 10.58 13.581 10.58 H 10.521 V 7.695 H 13.409 C 14.233 7.695 14.956 8.282 15.019 9.006 C 15.055 9.417 14.922 9.811 14.645 10.112 Z"/></svg>