<svg role="img" viewBox="0 0 24 24" xmlns="http://www.w3.org/2000/svg"><title>WhatsApp Business</title><path d="M20.462 3.488A11.813 11.813 0 0 0 12.05 0C5.494 0 .16 5.335.157 11.892a11.868 11.868 0 0 0 1.587 5.945L.057 24l6.305-1.654a11.877 11.877 0 0 0 5.682 1.448h.006c6.554 0 11.89-5.336 11.892-11.893a11.82 11.82 0 0 0-3.48-8.413zM12.05 21.785h-.004a9.872 9.872 0 0 1-5.032-1.377l-.36-.215-3.742.981 1-3.647-.236-.374a9.859 9.859 0 0 1-1.51-5.26c.001-5.45 4.435-9.885 9.888-9.885a9.818 9.818 0 0 1 6.988 2.9 9.824 9.824 0 0 1 2.892 6.992c-.002 5.45-4.436 9.885-9.884 9.885zm3.43-9.971c-.234-.161-.24-.235-.03-.419.924-.807 1.086-1.837.763-2.957-.314-1.088-1.085-1.78-2.184-1.917-1.743-.215-3.5-.171-5.25-.007-.42.04-.588.344-.59.744-.029 2.991-.059 5.982-.08 8.974-.005.608.27.874.873.88.745.006 1.49.001 2.234 0h2.065c.69 0 1.332-.18 1.93-.518 1.714-.968 1.872-3.682.27-4.78zm-5.113-3.095c0-.242.103-.365.352-.363.743.005 1.49-.026 2.23.016.86.049 1.246.466 1.233 1.229-.01.65-.422 1.073-1.119 1.115-.377.024-.757.005-1.136.005v.003c-.393 0-.785-.006-1.178.002-.259.005-.393-.09-.388-.366.01-.547.01-1.094.006-1.641zm2.621 6.477c-.365.007-.73.001-1.096.001v-.001c-.422 0-.843-.004-1.265.001-.229.003-.342-.105-.335-.33.02-.646.044-1.29.067-1.936.007-.197.131-.27.307-.27.828.003 1.66-.034 2.484.03.771.059 1.212.596 1.175 1.28-.04.752-.538 1.21-1.337 1.225z"/></svg>