<svg role="img" viewBox="0 0 24 24" xmlns="http://www.w3.org/2000/svg"><title>WhatsApp Business</title><path d="M20.405 3.488A11.813 11.813 0 0 0 11.993 0C5.437 0 .103 5.335.1 11.892a11.868 11.868 0 0 0 1.587 5.945L0 24l6.305-1.654a11.877 11.877 0 0 0 5.682 1.448h.006c6.554 0 11.89-5.336 11.892-11.893a11.82 11.82 0 0 0-3.48-8.413Zm-8.412 18.297h-.004a9.872 9.872 0 0 1-5.032-1.377l-.36-.215-3.742.981.999-3.647-.235-.374a9.859 9.859 0 0 1-1.511-5.26c.002-5.45 4.436-9.885 9.889-9.885a9.818 9.818 0 0 1 6.988 2.9 9.824 9.824 0 0 1 2.892 6.992c-.002 5.45-4.436 9.885-9.884 9.885Zm3.43-9.971c-.234-.161-.241-.235-.031-.419.925-.807 1.087-1.837.764-2.957-.314-1.088-1.085-1.78-2.184-1.917-1.743-.215-3.501-.171-5.251-.007-.42.04-.587.344-.59.744-.028 2.991-.058 5.982-.08 8.974-.004.608.27.874.874.88.745.006 1.49.001 2.234 0h2.065c.69 0 1.332-.18 1.93-.518 1.714-.968 1.872-3.682.27-4.78ZM10.31 8.719c0-.242.103-.365.352-.363.743.005 1.489-.026 2.23.016.86.049 1.246.466 1.233 1.229-.01.65-.422 1.073-1.119 1.115-.377.024-.757.005-1.136.005v.003c-.393 0-.785-.006-1.178.002-.259.005-.393-.09-.388-.366.009-.547.009-1.094.006-1.641Zm2.621 6.477c-.365.007-.73.001-1.096.001v-.001c-.422 0-.843-.004-1.265.001-.229.003-.342-.105-.335-.33.02-.646.044-1.29.067-1.936.007-.197.131-.27.307-.27.828.003 1.66-.034 2.484.03.771.059 1.212.596 1.175 1.28-.04.752-.538 1.21-1.337 1.225Z"/></svg>