<svg xmlns="http://www.w3.org/2000/svg" viewBox="0 0 16 16"><path d="M8 16c-4.439 0-8-3.613-8-8 0-4.439 3.561-8 8-8s8 3.561 8 8c0 4.387-3.561 8-8 8zM8 1.342C4.335 1.342 1.342 4.335 1.342 8c0 3.665 2.993 6.658 6.658 6.658 3.665 0 6.658-2.993 6.658-6.658 0-3.665-2.993-6.658-6.658-6.658zm3.923 7.432H6.142a.463.463 0 0 1-.465-.464v-.671c0-.258.207-.465.465-.465h5.832c.258 0 .465.207.465.465v.67c-.052.259-.258.465-.516.465zm-1.497-2.58H4.594a.463.463 0 0 1-.465-.465v-.67c0-.207.206-.414.465-.414h5.832c.206 0 .413.207.413.413v.671c0 .258-.207.465-.413.465zM4.594 9.806h5.832c.258 0 .464.207.464.465v.67a.463.463 0 0 1-.464.465H4.594c-.259-.051-.465-.258-.465-.516v-.67c0-.207.206-.414.465-.414z" clip-rule="evenodd" fill-rule="evenodd"/></svg>