<svg role="img" viewBox="0 0 24 24" xmlns="http://www.w3.org/2000/svg"><title>Wicked Engine</title><path d="M12.43 19.92c0-.05-.03-.1-.04-.13l-.08-.32-.27-1.05-.33-1.44-.3-1.05-.37-1.26c-.13-.43-.32-.84-.5-1.25l-.14-.37c-.03-.04-.04-.1-.07-.12 0 .05.03.1.05.16l.08.25.3 1.11c.16.68.29 1.35.43 2.03l.06.32c.2.86.44 1.7.65 2.55.13.56.27 1.11.43 1.66.07.22.15.43.2.65.04.1.06.21.06.32-.05-.06-.08-.14-.1-.21l-.19-.41c-.2-.49-.4-1-.58-1.49-.34-.93-.71-1.84-1.02-2.8-.27-.8-.47-1.62-.76-2.42-.1-.26-.17-.52-.25-.77-.1-.28-.2-.56-.28-.85l-.13-.47c-.02-.06-.03-.15-.1-.18l.05.14.04.35.05.35v.24l.14.91c.04.28.08.57.15.84.1.5.25 1 .4 1.48l.3 1.02.67 1.8.25.63.08.24-.13-.18-.3-.4a38.98 41.09 0 0 0-2.02-2.52c-.25-.29-.51-.55-.77-.82-.4-.42-.77-.85-1.21-1.2-.41-.34-.86-.64-1.31-.9a9 9 0 0 0-.62-.37l-.42-.2-.3-.16c-.07-.03-.13-.08-.2-.1.05.1.17.15.24.2l.47.43c.56.53 1.13 1.05 1.64 1.64.4.48.8 1 1.13 1.53l.64 1.12.74 1.26c.16.28.34.53.53.78l.2.27c.05.05.1.1.14.17-.07-.02-.12-.1-.17-.13l-.38-.32c-.23-.19-.43-.41-.64-.61a7.09 7.09 0 0 1-.91-1.01l-.38-.57-.11-.17-.07-.08c.03.08.08.15.13.24l.15.3a6.74 7.1 0 0 0 1.48 2.11l.17.15c.04.03.08.06.1.1l-.4-.34c-.27-.23-.51-.5-.77-.74-.35-.35-.7-.7-1.03-1.08-.18-.2-.36-.42-.5-.65l-.18-.28c-.03-.03-.05-.1-.1-.13l.08.18.2.42.1.25c.16.3.36.57.55.85l.45.59c.13.16.27.3.42.44.17.18.35.37.54.54l.2.19c.04.02.09.05.1.08-.03 0-.06-.02-.1-.04l-.22-.12-.7-.37c-.43-.24-.84-.52-1.27-.78-.28-.16-.58-.31-.87-.5l-.5-.32c-.11-.08-.22-.2-.34-.25.02.05.08.1.12.15l.24.28c.2.27.46.48.72.7a11.82 12.45 0 0 0 1.6 1.1c.08.05.2.09.26.17-.21-.02-.4-.06-.61-.1l-.54-.1c-.17-.02-.34-.06-.51-.07H4.8a10.92 11.5 0 0 0-1.04.16l-.21.05.13-.02.32-.06c.22-.02.45-.03.68-.02h.3c.2.01.4.06.62.09.16.02.33.02.5.06.27.06.53.17.8.24l1.4.43c.37.1.73.24 1.1.33l.34.09c.05.02.1.02.15.05l-.38.01c-.3 0-.6-.02-.9-.04-.3 0-.57 0-.86-.02-.3-.01-.6-.06-.9-.06-.27 0-.54.01-.8.04l-.5.02-.5.05c-.1 0-.22 0-.34.02l-.5.1-.31.04-.57.11c-.1.03-.2.08-.3.08l.3-.03a9.28 9.78 0 0 1 1.17-.08l.56.02c.38.02.75.02 1.13.07.24.02.49.02.73.06h.18c.02 0 .04 0 .06.03-.3 0-.58.07-.87.12l-.57.06-.5.08c-.2.04-.38.04-.56.07-.17.02-.33.06-.5.1l-.3.02-.62.12-.24.03c-.15.02-.3.06-.43.1-.2.03-.37.04-.55.08l-.25.05-1.12.21-.36.07c-.08.02-.16.04-.24.04.13 0 .26-.02.4-.04l.45-.06.43-.06.65-.05.68-.1c.22-.02.44 0 .66-.03.34-.03.67-.08 1-.1.32-.02.63-.01.94-.05.3-.02.6-.06.9-.07h.16l.78-.04h.62l1.33-.04H10c.3-.02.58-.06.88-.07h.59c1.01-.05 2.03-.05 3.05-.05 1.05 0 2.1 0 3.15.02l1.2.03h.4c.35.01.7.06 1.05.08l1.04.03c.33.02.67.08 1 .1.12.02.24 0 .36.01l.4.05.6.08c.1 0 .19.04.28.05-.11-.07-.26-.1-.39-.11l-.36-.08-.54-.1-.36-.09c-.16-.02-.33-.02-.5-.06l-.36-.08-.42-.06-.5-.08-.56-.05c-.25-.02-.5-.08-.74-.1l-.59-.05-.75-.1c-.26-.03-.52-.02-.77-.05-.66-.06-1.3-.11-1.98-.11.04-.04.08-.05.12-.06l.3-.1.9-.23c.72-.21 1.42-.47 2.13-.67.44-.12.88-.25 1.33-.25v-.01c-.3 0-.62.02-.94.05l-.3.03-.64.13-.27.07-.36.08-.3.07-.83.18-.68.17-.45.11-.2.06-.15.04c.04-.05.1-.07.16-.1l.21-.08.77-.34 1.02-.42c.48-.2.96-.42 1.46-.58.25-.07.5-.1.76-.15.1 0 .2.03.3-.02h-.5l-.49.02-.45.04-.34.08-.45.1-.45.17-.67.28c.02-.08.1-.1.14-.17l.34-.35c.33-.35.65-.72.92-1.12.2-.28.32-.58.44-.89.14-.34.28-.7.32-1.07l.01-.18c.01-.2.02-.38.01-.57v-.59l.01-.13c-.02 0-.03.06-.04.1l-.06.28-.03.35-.1.38c-.04.18-.09.34-.16.51-.17.4-.4.74-.64 1.11l-.28.42a9.06 9.55 0 0 1-1.46 1.58l-.17.15-.1.07c.13-.19.27-.36.38-.55.16-.28.3-.57.43-.88a13 13 0 0 0 .47-1.09c.11-.3.2-.62.3-.93l.06-.22c-.03.02-.04.06-.06.1l-.1.25a12.7 12.7 0 0 1-1.25 2.2l-.26.44c-.1.18-.24.35-.36.52l-.5.69c-.07.07-.12.16-.19.21l.24-.35c.14-.22.3-.44.43-.66.2-.32.37-.65.55-.98.32-.6.63-1.17.9-1.8l.32-.87.33-.93.15-.48.33-.9c.13-.32.24-.67.42-.97a3.9 4.1 0 0 1 .88-1.09c.06-.04.14-.07.17-.14-.05 0-.1.04-.15.05l-.35.1-.49.17a5.22 5.5 0 0 0-1.3.95 23.07 24.32 0 0 0-2.37 3.18l-.2.32a.6.6 0 0 1-.12.19l.05-.12.1-.23.33-.86.1-.26.08-.18-.04.08-.06.11a12.56 13.24 0 0 0-.77 1.64c-.12.31-.22.66-.33 1-.08.24-.14.5-.23.73l-.05.16c0 .01 0 .05-.03.05v-.3l-.02-.24v-1.8l.01-.31.02-.45c0-.18.02-.36.03-.53.02-.32.01-.63.02-.95l.04-.79c.01-.3.05-.6.08-.9v-.22l.05-.63.1-.79.03-.6.11-.87.05-.41c.01-.08.02-.16.07-.23s.1 0 .13.06c.06.11.1.26.13.39l.13.47c.02.05.03.14.07.17.04.03.1.01.13.01l.3-.03.87-.13.31-.03c.06 0 .13-.01.18-.04.1-.05.07-.23.07-.33l.01-.58c0-.13 0-.26.12-.34.07-.06.16-.08.23-.12.1-.05.2-.13.3-.19.05-.04.13-.13.22-.1.1 0 .17.07.25.11l.48.26.16.1c.03 0 .06.03.1.03.04 0 .08-.04.1-.08l.18-.24c.21-.27.4-.55.6-.84l.18-.21c.02-.04.06-.07.07-.12 0-.03-.02-.06-.04-.08l-.14-.17c-.1-.11-.2-.25-.32-.37-.08-.08-.17-.16-.23-.27-.05-.09 0-.18.03-.26a3 3.16 0 0 0 .12-.43c.02-.08.02-.16.05-.25.03-.1.15-.1.22-.13l.62-.18c.07-.03.23-.04.25-.14l-.02-.12-.02-.25c-.04-.34-.12-.69-.13-1.03 0-.1-.03-.22-.03-.34 0-.04 0-.1-.05-.14-.08-.06-.22-.03-.3-.03l-.48-.02c-.1 0-.22.02-.3-.02-.1-.04-.13-.17-.17-.25a3.58 3.77 0 0 0-.24-.43l-.09-.14c-.04-.09.05-.2.1-.27l.18-.36.14-.26c.04-.07.1-.16.05-.24l-.13-.13-.25-.2-.7-.58-.23-.2c-.03-.03-.07-.07-.1-.05-.05 0-.08.04-.1.06l-.14.13c-.14.15-.29.27-.43.4-.08.07-.17.21-.28.17-.2-.06-.38-.15-.58-.19-.1-.02-.22-.02-.28-.12-.05-.08-.05-.18-.07-.27l-.16-.5c-.02-.09-.04-.26-.14-.29l-.16.01-.3.04-.92.12-.3.03c-.04.01-.1.02-.12.07-.04.08 0 .2 0 .28 0 .2-.03.4-.04.6 0 .08.02.19 0 .26-.03.05-.1.09-.14.1-.16.11-.34.18-.48.3-.06.03-.15.14-.22.12-.03 0-.05-.02-.08-.03l-.16-.1-.46-.25-.2-.1c-.01-.02-.05-.04-.1-.03-.03 0-.06.07-.1.1l-.2.27-.56.77-.23.3-.03.07a1.72 1.81 0 0 0 .17.23l.44.49c.07.07.15.14.12.26-.01.07-.04.13-.06.2-.04.15-.08.3-.1.45-.03.1-.03.21-.1.27-.07.04-.15.04-.21.06l-.54.16c-.07.02-.14.03-.2.06-.03 0-.06.02-.08.04-.02.03-.01.09-.01.12 0 .1 0 .22.03.32l.05.45.08.6.02.28c0 .05 0 .1.04.15.02.03.06.03.1.03h.2l.47.02h.18c.05 0 .1 0 .16.02.08.02.1.15.14.21.05.15.13.28.2.4l.14.21c.03.1-.04.2-.08.27l-.3.6c-.04.08-.13.19-.1.3l.07.06c.08.08.19.14.28.22l.7.58.25.2c.03.03.05.07.1.08.03 0 .06-.02.08-.04l.16-.15c.17-.18.35-.36.54-.52.1-.08.2-.09.3-.04l.1.07v.13l-.06.26-.2 1-.1.57-.05.37-.09.63c-.02.26-.02.52-.05.79-.03.42-.08.84-.1 1.26l-.02.63v.2l-.1 1.74v1.43a16 16 0 0 0 .01.98v.25c0 .02.02.07 0 .1m1.8-17.17.22.01h.25c.17.02.33.06.5.1.14.06.28.11.41.19.13.06.24.14.36.23.12.1.25.16.35.27.1.1.15.22.23.34.06.1.14.19.2.3.07.15.13.32.18.48a2.88 3.03 0 0 1 .1 1.37c0 .1-.04.2-.07.3-.05.18-.1.36-.18.52l-.2.32c-.09.13-.17.29-.28.4-.07.08-.16.13-.24.19l-.17.12a2.69 2.83 0 0 1-1.1.43c-.14.02-.29.02-.42.02s-.25 0-.38-.02a3.1 3.27 0 0 1-.8-.25c-.13-.06-.23-.15-.34-.22-.1-.07-.22-.14-.3-.23a2.14 2.14 0 0 1-.35-.5 2.87 3.02 0 0 1-.2-.37c-.07-.2-.12-.42-.17-.63-.03-.16-.07-.3-.08-.45a3.66 3.86 0 0 1 .22-1.2c.05-.16.14-.32.23-.48.1-.15.2-.33.33-.47l.28-.22c.17-.13.33-.24.52-.32.28-.12.58-.19.9-.23m3.34 11.05c0 .08-.07.15-.1.21l-.14.3c-.2.4-.39.8-.55 1.22l-.56 1.45-.15.43c-.09.25-.19.48-.29.71-.14.34-.32.65-.49.97l-.7 1.3c-.28.5-.57.97-.9 1.42l-.24.3c-.03.05-.08.11-.13.12.01-.06.07-.1.1-.17l.2-.28c.2-.32.34-.67.5-1l.42-.88 1.15-2.53.22-.45c.06-.14.11-.27.18-.4l.22-.45c.04-.08.08-.14.1-.21-.04.1-.12.2-.18.31l-.48.85-.98 1.75c-.27.49-.55.96-.78 1.47l-.56 1.13-.14.28c-.03.03-.05.09-.09.1v-.48c.04-.31.17-.6.28-.9l.2-.62a10.8 11.39 0 0 1 1.11-2.45c.38-.63.83-1.2 1.26-1.8.32-.47.67-.9 1.05-1.3l.3-.3c.05-.03.11-.1.17-.1M7.9 16.98c.13.09.22.24.33.35.25.26.5.54.73.83l.47.58.36.48 1.08 1.42.67.93.16.22c.03.05.09.1.1.18-.05 0-.1-.03-.13-.07a4.85 5.11 0 0 1-.9-.7l-.4-.46c-.3-.33-.58-.68-.84-1.05l-.5-.83-.4-.63c-.17-.32-.35-.64-.55-.93l-.14-.22c-.02-.03-.05-.07-.04-.1m-7.9 7V24h.03z"/></svg>