<svg xmlns="http://www.w3.org/2000/svg" fill-rule="evenodd" viewBox="0 0 16 16"><path d="M7.422 5.621c-.31 0-.557.24-.557.543a.55.55 0 0 0 .557.541c.325 0 .582-.239.582-.54 0-.303-.257-.544-.582-.544zm1.953 0c-.31 0-.565.24-.565.543 0 .295.255.541.565.541.318 0 .574-.239.574-.54 0-.303-.256-.544-.574-.544zm2.437.008c-.354 0-.66.223-.66.572v2.21c0 .539.373.86.918.86h3.098c.46 0 .832-.318.832-.775V6.23c0-.275-.205-.574-.459-.574h-.717v1.866c0 1.415-2.467 1.403-2.467.027v-1.92h-.545zm1.12 0v1.635c0 1.091 1.289.935 1.289.171V5.63h-1.289zm-9.71.217c-.31 0-.518.155-.626.504-.101.356-.744 2.828-.744 2.828l-.844-3.293H0s.968 3.509 1.1 3.92c.1.317.348.574.705.574.418 0 .612-.303.697-.574.093-.28.72-2.596.72-2.596s.628 2.317.713 2.596c.093.271.287.574.698.574.364 0 .604-.257.713-.574.131-.411 1.101-3.92 1.101-3.92H5.432l-.838 3.293s-.642-2.472-.75-2.828c-.101-.35-.32-.504-.621-.504zM6.958 7.24v3.108h.961V7.24h-.961zm1.945 0v3.108h.961V7.24h-.96z"/></svg>