<svg role="img" viewBox="0 0 24 24" xmlns="http://www.w3.org/2000/svg"><title>Wiki.gg</title><path d="M5.754 3.879c-1.203.301-2.507 1.304-3.008 2.407-.301.602-2.506 7.319-2.707 8.321-.1.602 0 1.704.201 2.406.702 2.105 2.607 3.409 4.912 3.409 1.604 0 2.607-.401 3.91-1.504 1.203-1.103 2.306-1.504 3.509-1.404 1.103.1 1.905.401 3.008 1.404 1.504 1.303 3.208 1.704 5.113 1.103 1.303-.401 2.306-1.303 2.907-2.406.301-.803.401-1.505.401-2.507 0-.802-.1-1.003-1.203-4.411-.602-1.905-1.203-3.709-1.303-4.01-.401-1.003-1.203-2.005-2.306-2.506-1.003-.501-1.303-.602-3.509-.602-1.203 0-1.905 0-1.805.1s.501.401 1.103.702c.501.301 1.003.602 1.103.702.1.1.1.301.1.501 0 .401-.1.501-1.303 1.303l-.902.802h1.704c1.604 0 1.704.1 1.905.201.301.2.2.2 1.504 4.11 1.103 3.409 1.103 3.609.802 4.01-.501.501-1.003.501-1.805-.201-.301-.301-.802-.602-1.003-.802-3.108-2.105-7.218-1.805-10.126.602-1.003.802-1.003.802-1.604.802-.301 0-.602-.1-.802-.1-.301-.1-.602-.501-.602-.802 0-.1.501-1.805 1.103-3.81.903-2.807 1.204-3.609 1.405-3.709.2-.201.2-.201 1.904-.301.902 0 1.905-.1 2.005-.201.401-.1 2.206-1.103 2.406-1.404.201-.201.201-.501.1-.802-.1-.201-1.604-1.203-2.306-1.404-.601-.199-4.109-.199-4.811.001zm13.434 1.304a.787.787 0 0 1 0 1.103c-.401.501-1.103.301-1.404-.301-.301-.702.802-1.404 1.404-.802z"/></svg>