<svg role="img" viewBox="0 0 24 24" xmlns="http://www.w3.org/2000/svg"><title>Wikisource</title><path d="M7.39 5H2.6a11.08 11.08 0 0 1 9.19-5h.1a11.41 11.41 0 0 1 9.28 5h-3.39a1.67 1.67 0 0 1-1.7.4V2.1a.37.37 0 0 1 .1-.3v-.1a.7.7 0 0 1 .2-.4 6 6 0 0 0-.8.4H15a1.57 1.57 0 0 0-1 .8c-.3-.8-.9.2-1.6.8A6.69 6.69 0 0 0 10.69 2c-.6.3-1.2 1.3-1.6 1.4s-.9 0-1.2.3a3.62 3.62 0 0 0-.5 1.3Zm4.69-.1a2.08 2.08 0 0 1 .8-.4c.3-.2.1-.4-.1-.5a7.21 7.21 0 0 0-1.39-1 3.55 3.55 0 0 1 .3 1.7c-.1.3.1.3.39.2Zm9.79 1.2h-1.3c.2 2.2.3 6-.7 6.2 0 .3-.1.6-.1.9a6.64 6.64 0 0 0-.19 1.4v.7c.49.3.32 1.9.22 3 .1.4-.39.5-.39.8.2.3.3.7.49 1a1 1 0 0 0-.49.7c.1.2 0 .3 0 .4a12.38 12.38 0 0 0 4.19-9.3 17.84 17.84 0 0 0-1.73-5.8ZM15.63 22c-.3-.1-.55-.53-1.05-.23s-.8.1-.6-.3c.3-.7-.4-.9-1-1.1v-.3a2.41 2.41 0 0 1-.8.2h-.1c.5 0 .7-.3 1.3-.4.3-.1.5-.2.5-.6v-1.65a1.46 1.46 0 0 0-1.23-.81c-.51 0-1-.27-1-.67 0 .6.08 1.36-.32 1.56s-.4.6-.5 1a2.17 2.17 0 0 0 .1 1.4.62.62 0 0 0 .4.1h.4c-.5.7-1.1.5-1.5-.1-.6-1-1.3-2-1.9-3.1a62.18 62.18 0 0 0-.1-7.6A4.7 4.7 0 0 1 5 8.7c-.2-.3-.5-.2-1-.1a1.71 1.71 0 0 0-.4-1.3c0-.4-.1-.9-.1-1.2H1.92A12.94 12.94 0 0 0 .4 12c0 6.6 5.09 12 11.39 12a11.64 11.64 0 0 0 4.89-1.1 2.68 2.68 0 0 1-1.05-.9Zm4.8-15.89h-7.36c.29 4.08 2.92 4.58 4.8 3.82-.89-.85-.36-2.59.63-2.59 1.77 0 1.32 3.18 1.32 4.8.89-.29.81-3.85.61-6.03Zm-5.15 6.39c.4-.9 1-1.3 1.4-1.3a.73.73 0 0 0 .61-.83c-1.8.5-4.1-.4-4.4-4.2H3.6c.6 1.3.89 2 3 1.7.7-.1 1.1-.2 1.1.6.1.5.4.6 1.3.5.3-.1.6-.3.9-.2 0 .1-.2.4 0 .7.7.7 1.3 1.2 1.9 1.9.2.8.79.7 1.29.5.8-.2.4.1.7.5s.89 1.5 1.49.2Zm-4.09 5.17c.41-.17.3-1.07.3-1.67.79-.2.3-.8.1-1.4l-1.9-3.5h-.1c-.6 0-.3 2-.2 2.9s.3.7.9.3c.3.6.1.9-.3 1.3a.89.89 0 0 0-.2 1.2c.1.1.1.2.2.4s.1.3.2.4a.57.57 0 0 1-.1.6c-.1.2-.1.3 0 .8.1.3-.1.6.2.9a2.78 2.78 0 0 0 .56.24 2.14 2.14 0 0 1-.16-1.34 1.62 1.62 0 0 1 .5-1.13Zm1.71-1a1.33 1.33 0 0 1 1.1.78 6.54 6.54 0 0 1 .3-1.38c.1-.2.5-.4.1-.8A44.56 44.56 0 0 0 10 11.1h-.14l1.88 3.51c.2.6.72 1.11-.06 1.46.05.28.72.59 1.22.63Zm6.35 4.56c-.1 0-.1 0-.1-.1s.1-.2 0-.4.21-.6.51-.7c-.2-.3-.3-.7-.51-1 0-.2.51-.3.41-.8.1-1 .31-2.54-.18-2.84 0 .1-.11.2-.21.4 0 1.6-.22 1.94-1.53 3.14a5.58 5.58 0 0 1-.71 1.1 2.22 2.22 0 0 0-.7 1.1c-.1.2-.31.2-.51.2s-.2-.1-.3-.2v.5l.1.1a.1.1 0 0 0 .1.1 1.81 1.81 0 0 0 2.22.8A3 3 0 0 0 19 22c.48-.14.87-.64.27-.74Zm-3.49 0c.08 0 .15 0 .32-.16a2.19 2.19 0 0 1 .69-1.07 5.58 5.58 0 0 0 .66-1 2.86 2.86 0 0 1-1.23-2.66 2.19 2.19 0 0 0 0-1.08 9.64 9.64 0 0 1 .17-3.82c-.34.1-.67.49-.92 1.18a1.42 1.42 0 0 1-.34.58 3.77 3.77 0 0 0 .76 2.65 3.64 3.64 0 0 0 0 2.35c-.51-.19-.34 1-.42 1.47-.25.79-.42.79-.67.88-.09.1.28.38.7.57"/></svg>