<svg role="img" viewBox="0 0 24 24" xmlns="http://www.w3.org/2000/svg"><title>Wikisource</title><path d="M7.4 5H2.6c2-3 5.4-5 9.2-5h.1c3.8 0 7.2 2 9.3 5h-3.4c-.3.4-1.1.6-1.7.4V2.1c0-.1 0-.2.1-.3v-.1c0-.1.1-.3.2-.4-.3.1-.6.3-.8.4H15c-.4.1-.8.4-1 .8-.3-.8-.9.2-1.6.8-.2-.3-1-.9-1.7-1.3-.6.3-1.2 1.3-1.6 1.4-.4.1-.9 0-1.2.3-.3.4-.4.9-.5 1.3zm4.7-.1c.3-.2.4-.3.8-.4.3-.2.1-.4-.1-.5-.4-.4-.9-.7-1.4-1 .2.6.4 1.1.3 1.7-.1.3.1.3.4.2zm9.8 1.2h-1.3c.2 2.2.3 6-.7 6.2 0 .3-.1.6-.1.9-.1.4-.2 1-.2 1.4v.8c.5.3.3 1.8.2 2.9.1.4-.4.5-.4.8.2.3.3.7.5 1-.2.1-.5.4-.5.7.1.2 0 .3 0 .4 2.5-2.2 4.2-5.5 4.2-9.3-.3-2.1-.8-4.1-1.7-5.8zM15.7 22c-.3-.1-.6-.5-1.1-.2-.6.3-.8.1-.6-.3.3-.7-.4-.9-1-1.1v-.3c-.3.1-.5.2-.8.2h-.4.3c.5 0 .7-.3 1.3-.4.3-.1.5-.2.5-.6v-1.8c-.2-.4-.6-.9-1.2-.8-.6 0-1.1-.3-1.1-.7 0 .6.1 1.5-.3 1.7-.4.3-.4.6-.5 1-.1.5-.1 1 .1 1.4.1.1.3.1.4.1h.5-.1c-.5.7-1.1.5-1.5-.1-.6-1-1.3-2-1.9-3.1.1-3 .1-5-.1-7.6-1.1.1-2.1 0-3.2-.7-.2-.3-.5-.2-1-.1.1-.4-.1-.9-.4-1.3 0-.4-.1-.8-.1-1.1H1.9C1 7.9.4 9.9.4 12c0 6.6 5.1 12 11.4 12 1.7 0 3.4-.4 4.9-1.1-.3-.1-.7-.5-1-.9zm4.8-15.9H13c.3 4.3 3.2 4.8 5.1 4-.9-.9-.6-2.7.4-2.7 1.8 0 1.3 3.3 1.3 5 .9-.3.9-4 .7-6.3zm-5.2 6.4c.4-.9 1-1.3 1.4-1.3.4 0 .7-.5.6-.9-1.8.5-4.1-.4-4.4-4.2H3.6c.6 1.3.9 2 3 1.7.7-.1 1.1-.2 1.1.6.1.5.4.6 1.3.5.3-.1.6-.3.9-.2 0 .1-.2.4 0 .7.7.7 1.3 1.2 1.9 1.9.2.8.8.7 1.3.5.8-.2.4.1.7.5.3.4.9 1.5 1.5.2zm-4.1 5.2c.4-.2.3-1.1.3-1.7.8-.2.3-.8.1-1.4l-1.9-3.5h-.1c-.6 0-.3 2-.2 2.9.1.9.3.7.9.3.3.6.1.9-.3 1.3-.3.3-.5.7-.2 1.2.1.1.1.2.2.4.1.1.1.3.2.4.1.3 0 .5-.1.6-.1.2-.1.3 0 .8.1.3-.1.6.2.9.1.1.3.2.5.3-.1-.4-.1-.9-.1-1.4.1-.5.1-.7.5-1.1zm1.5-1c.6 0 1 .4 1.2.8 0-.5.1-.9.2-1.4.1-.2.5-.4.1-.8-1.4-1.6-2.8-2.8-4.4-4.2h-.1l1.8 3.5c.2.6.8 1.3 0 1.5.2.3.7.6 1.2.6zm6.5 4.6c-.1 0-.1 0-.1-.1s.1-.2 0-.4c-.1-.3.2-.6.5-.7-.2-.3-.3-.7-.5-1 0-.2.5-.3.4-.8.1-1 .3-2.6-.2-2.9 0 .1-.1.2-.2.4 0 1.6-.2 2-1.5 3.2 0 0-.4.8-.7 1.1-.5.4-.5.7-.7 1.1-.1.2-.3.2-.5.2-.1-.1-.2-.1-.3-.2v.5l.1.1s0 .1.1.1c.5.8 1.3 1.1 2.2.8.5-.2.8-.4 1.1-.7.5-.1.9-.6.3-.7zm-3.6 0s.2.1.3.2c.1 0 .3 0 .5-.2.2-.4.2-.8.7-1.1.3-.2.6-1 .7-1.1-1-.6-1.5-1.7-1.3-2.7 0-.3.2-.6 0-1.1-.3-1.3-.1-2.7.2-3.9-.4.1-.8.5-1.1 1.2-.1.3-.3.5-.4.6 0 1.3.3 2.1.9 2.7-.2.8-.4 1.8 0 2.4-.6-.2-.4 1-.5 1.5-.3.8-.5.8-.8.9-.1.1.3.4.8.6-.1 0-.1 0 0 0z"/></svg>