<svg role="img" viewBox="0 0 24 24" xmlns="http://www.w3.org/2000/svg"><title>Wikivoyage icon</title><path d="M22.917 14.353c-.43 0-.782-.148-1.055-.443-.273-.295-.41-.672-.41-1.133 0-.46.119-.838.355-1.135.237-.298.543-.447.918-.447.407 0 .721.14.943.417.221.278.332.667.332 1.165v.168h-1.866c.02.174.078.326.174.458a.869.869 0 00.632.274c.176 0 .338-.034.489-.1.15-.067.34-.18.571-.341v.7a1.947 1.947 0 01-.532.324c-.166.062-.35.093-.55.093zm.445-1.917a.91.91 0 00-.145-.38.523.523 0 00-.463-.232c-.181 0-.33.084-.447.252a.972.972 0 00-.161.36zm-3.73 1.148c0 .039.049.086.147.142.1.055.226.096.383.122.378.066.651.175.82.329.169.154.253.377.253.67a.77.77 0 01-.374.677c-.25.165-.58.247-.992.247-.387 0-.696-.088-.93-.265a.858.858 0 01-.348-.722c0-.21.062-.39.187-.542a.655.655 0 01.437-.254.356.356 0 01-.21-.334c0-.163.093-.299.278-.406.045-.026.077-.031.098-.014-.073-.003-.152-.047-.24-.132-.2-.2-.3-.456-.3-.768 0-.313.1-.57.301-.77.2-.202.458-.302.77-.302.08 0 .154.006.224.019h1.099v.588h-.38c.084.095.126.271.13.53a.974.974 0 01-.305.707c-.177.176-.4.273-.667.294l-.18.012a.349.349 0 00-.133.054c-.046.031-.069.07-.069.118zm.28-1.743a.422.422 0 00-.323.136.504.504 0 00-.127.357.5.5 0 00.126.356c.084.09.192.134.325.134.132 0 .24-.045.324-.135a.499.499 0 00.126-.355.505.505 0 00-.127-.357.421.421 0 00-.323-.136zm-.703 2.946c0 .117.06.213.178.29.119.077.282.115.488.115.225 0 .401-.032.528-.097s.19-.146.19-.242a.326.326 0 00-.129-.26.825.825 0 00-.387-.151l-.075-.013a2.061 2.061 0 00-.2-.022.625.625 0 00-.147.004.776.776 0 00-.3.107.308.308 0 00-.146.27zm-2.382-.434a.643.643 0 01-.508-.216.82.82 0 01-.19-.563c0-.205.062-.381.187-.53.125-.148.31-.27.555-.365l.651-.254v-.136c0-.15-.033-.258-.098-.323s-.172-.098-.32-.098a.943.943 0 00-.446.103c-.13.07-.289.184-.474.345v-.674c.143-.16.288-.274.435-.343.147-.07.31-.104.49-.104.348 0 .614.094.798.281.184.188.276.459.276.813v1.458c0 .024.004.039.01.046.006.006.017.01.033.01.013 0 .042-.015.085-.045.043-.03.126-.074.249-.135v.452a.814.814 0 01-.287.197.837.837 0 01-.324.071.419.419 0 01-.3-.116c-.061-.06-.093-.115-.096-.164-.014.05-.061.096-.143.141-.18.1-.374.149-.583.149zm.695-.675v-.811l-.257.129a.864.864 0 00-.349.22.446.446 0 00-.111.301c0 .087.03.157.09.21.06.052.14.079.243.079.087 0 .173-.021.258-.063.057-.028.123-.057.2-.087zm-1.478-2.352L14.15 15.85h-.724l.933-2.283-1.061-2.305h.708l.712 1.656.639-1.656h.687zm-4.363 3.012c-.46.021-.847-.132-1.126-.427-.28-.296-.42-.673-.42-1.133 0-.461.14-.84.42-1.137.28-.297.639-.445 1.077-.445.438 0 .798.148 1.079.445.28.297.421.676.421 1.137 0 .46-.14.837-.42 1.132-.282.296-.636.428-1.03.428zm-.002-.594a.787.787 0 00.547-.281c.153-.175.23-.403.23-.685 0-.284-.077-.514-.23-.69a.752.752 0 00-.594-.263.748.748 0 00-.592.263c-.152.175-.229.405-.229.69 0 .283.076.512.229.686a.8.8 0 00.639.28zm-4.418-2.482H7.954l.661 1.789.664-1.789h.687l-1.228 3.07h-.252zm9.218-.759V7.489h.673v3.08h-.54zm.336-4.28c.11 0 .204.04.28.122a.42.42 0 01.113.296.42.42 0 01-.113.295.366.366 0 01-.28.122.366.366 0 01-.28-.121.42.42 0 01-.113-.296.42.42 0 01.113-.296.366.366 0 01.28-.123zm-2.668-.197v4.543h-.673V5.96h.673zm1.286 4.477l-1.392-1.47 1.258-1.544h.757l-1.2 1.528 1.413 1.552h-.703zm-3.3 0V7.489h.672v3.08h-.54zm.336-4.28c.11 0 .203.04.28.122a.42.42 0 01.113.296.42.42 0 01-.113.295.366.366 0 01-.28.122.366.366 0 01-.28-.121.42.42 0 01-.113-.296.42.42 0 01.113-.296.366.366 0 01.28-.123zM8.49 10.613L7.261 7.49H7.96l.661 1.815.682-1.86h.422l.677 1.85.664-1.805h.7l-1.242 3.125h-.256l-.762-1.99-.76 1.99H8.62zm3.768 6.829L16.266 24l.436-7.843c-1.163 1.255-2.857 1.746-4.444 1.286zM7.26 5.96L0 6.43l6.07 4.33c-.425-1.715.029-3.544 1.191-4.8zm11.705 1.068L22.22 0l-6.507 3.514c1.588.46 2.828 1.799 3.253 3.514z"/></svg>
