<svg role="img" viewBox="0 0 24 24" xmlns="http://www.w3.org/2000/svg"><title>Wikimedia Foundation</title><path d="M16 4a4 4 0 1 1-8 0 4 4 0 0 1 8 0Zm8 8c0 3.198-1.431 6.402-3.514 8.486C18.402 22.569 15.198 24 12 24c-3.198 0-6.402-1.431-8.486-3.514C1.431 18.402 0 15.198 0 12c0-3.198 1.431-6.402 3.514-8.486.133-.132.27-.262.411-.389l2.263 2.263a9.952 9.952 0 0 0-.41.39C4.097 7.458 3.2 9.455 3.2 12c0 2.545.897 4.542 2.578 6.222C7.458 19.903 9.455 20.8 12 20.8c2.545 0 4.542-.897 6.222-2.578C19.903 16.542 20.8 14.545 20.8 12c0-2.545-.897-4.542-2.578-6.222a9.952 9.952 0 0 0-.41-.39l2.263-2.263c.141.127.278.257.411.389C22.569 5.598 24 8.802 24 12Zm-12.8-1.6v8.756A7.201 7.201 0 0 1 7.324 6.524L11.2 10.4Zm1.6 0 3.876-3.876A7.201 7.201 0 0 1 12.8 19.156V10.4Z"/></svg>

