<svg role="img" viewBox="0 0 24 24" xmlns="http://www.w3.org/2000/svg"><title>Wireshark icon</title><path d="M 17.332591,5.3290248 C 12.131148,5.4109032 9.2035057,8.4896876 7.6737534,11.480166 6.3389393,14.09029 6.0606943,16.340528 5.9952388,16.956046 H 0.71501101 v 1.022771 H 6.4274825 a 0.51150422,0.51150422 0 0 0 0.5093621,-0.470803 c 0,0 0.2237384,-2.778165 1.6478099,-5.562043 C 9.9118517,9.3508427 12.225641,6.8271204 16.428116,6.4315317 13.83275,11.615123 16.673991,17.681768 16.673991,17.681768 a 0.51150422,0.51150422 0 0 0 0.464376,0.297049 h 5.950491 V 16.956046 H 17.491112 C 17.159074,16.167726 14.939779,10.548082 17.771975,6.1154417 A 0.51150422,0.51150422 0 0 0 17.332591,5.3290248 Z M 2.9221672,0.159 C 1.3126783,0.159 0,1.4712023 0,3.0806911 V 21.00119 c 0,1.609013 1.3126783,2.92193 2.9221672,2.92193 H 20.879084 c 1.609488,0 2.922166,-1.312917 2.922166,-2.922406 V 3.0806911 C 23.801013,1.4712023 22.488334,0.15923802 20.879084,0.15923802 Z m 0,1.0837035 H 20.879084 c 1.027768,0 1.838225,0.8102189 1.838225,1.8379876 V 21.00119 c 0,1.027531 -0.810457,1.837988 -1.838225,1.837988 H 2.9221672 c -1.0275308,0 -1.8379877,-0.810457 -1.8379877,-1.838225 V 3.0806911 c 0,-1.0277687 0.8104569,-1.8379876 1.8379877,-1.8379876 z" /></svg>
