<svg role="img" viewBox="0 0 24 24" xmlns="http://www.w3.org/2000/svg"><title>Wireshark icon</title><path d="M 17.477325,5.2319163 C 12.232449,5.3144785 9.2803589,8.4189721 7.7378324,11.434421 6.3918721,14.066341 6.1113037,16.33537 6.0453016,16.956028 H 0.72098155 v 1.031311 H 6.4811547 a 0.5157755,0.5157755 0 0 0 0.5136155,-0.474734 c 0,0 0.2256067,-2.801364 1.6615698,-5.608489 1.3382799,-2.6167977 3.67139,-5.1615943 7.908957,-5.5604863 -2.617038,5.2268763 0.247929,11.3441793 0.247929,11.3441793 a 0.5157755,0.5157755 0 0 0 0.468253,0.29953 H 23.28166 V 16.956028 H 17.63717 C 17.302361,16.161125 15.064533,10.494554 17.920378,6.0249003 A 0.5157755,0.5157755 0 0 0 17.477325,5.2319163 Z M 2.9465685,0.0187196 C 1.3236397,0.0187196 -1.25e-7,1.3418793 -1.25e-7,2.9648081 V 21.03495 c 0,1.622449 1.323639825,2.94633 2.946568625,2.94633 H 21.053432 C 22.676361,23.98128 24,22.657399 24,21.03447 V 2.9648081 C 23.999761,1.3418793 22.676121,0.01895962 21.053432,0.01895962 Z m 0,1.0927529 H 21.053432 c 1.036352,0 1.853576,0.8169846 1.853576,1.8533356 V 21.03495 c 0,1.036112 -0.817224,1.853336 -1.853575,1.853336 H 2.9465685 c -1.0361112,0 -1.8533357,-0.817224 -1.8533357,-1.853575 V 2.9648081 c 0,-1.036351 0.8172245,-1.8533356 1.8533357,-1.8533356 z"/></svg>