<svg viewBox="0 0 16 16" xmlns="http://www.w3.org/2000/svg" fill-rule="evenodd" clip-rule="evenodd" stroke-linejoin="round" stroke-miterlimit="1.414"><path d="M15.305 1.517H14.27l-.725-.002c-.573 0-1.102.437-1.506.784-.395.338-.732.748-1.054 1.155-.116-.317-.267-.628-.425-.912-.205-.406-.61-.796-1.064-.89-.23-.05-.487-.026-.72-.026H8h-.776c-.234 0-.49-.023-.72.025-.454.095-.86.485-1.065.89-.16.285-.31.596-.426.913-.322-.407-.66-.817-1.053-1.156-.403-.348-.93-.786-1.504-.785H1.73l-1.034.002c-.25 0-.808-.065-.676.344.032.1.144.19.208.272.073.094.145.19.208.29.1.16.198.325.292.49.226.4.417.82.642 1.222.494.886 1.023 1.75 1.66 2.54.473.583 1.043 1.17 1.748 1.46l-1.593 2.97c-.46.856-.92 1.708-1.403 2.55l-.07.123c-.063.12-.154.288-.153.426 0 .273.405.28.6.283.21 0 .42-.005.63-.007.363-.005.728-.01 1.092-.013.216-.003.435.006.65-.015.546-.052 1.046-.326 1.368-.773.105-.147 1.084-1.754 1.48-2.403.15-.246.62-.98.62-.98s.47.734.62.98c.396.65 1.376 2.256 1.48 2.402.323.446.822.72 1.37.772.214.02.433.012.648.015l1.093.012c.21 0 .42.007.63.006.195-.002.6-.01.602-.283 0-.138-.09-.306-.155-.426l-.07-.122c-.483-.843-.942-1.695-1.402-2.55-.53-.99-1.06-1.982-1.594-2.97.707-.29 1.276-.878 1.748-1.46.64-.79 1.168-1.655 1.663-2.54.225-.402.416-.823.642-1.222.094-.166.19-.33.292-.49.063-.102.135-.197.208-.29.064-.084.176-.173.208-.272.132-.408-.424-.342-.675-.343zM7.582 5.285c-.003.004-.006.01-.006.016 0 .007.004.015.01.02.014.013.03.026.048.037.093.065.208.1.342.1.136 0 .244-.033.342-.1.017-.01.035-.022.05-.038.014-.01.02-.026.01-.037-.01-.01-.024-.012-.04 0s-.03.024-.046.034c-.09.06-.19.09-.316.092-.123-.003-.23-.034-.314-.093-.017-.01-.03-.023-.044-.035-.01-.008-.026-.008-.036.003zm2.155-1.108c-.037-.074-.078-.127-.122-.16-.142-.105-.357-.105-.485.02-.06.06-.104.13-.137.208-.074.173-.13.37-.118.562.007.086.036.176.097.24.073.076.178.107.28.127.1.02.217.037.31-.013.11-.057.155-.19.185-.3.038-.142.074-.292.06-.44-.01-.08-.033-.17-.07-.243zm-3.595.243c-.015.148.02.3.06.44.03.11.074.243.183.3.094.05.21.035.31.014.102-.02.208-.05.28-.128.06-.063.09-.153.098-.24.012-.19-.044-.388-.118-.56-.033-.078-.077-.15-.137-.208-.128-.126-.343-.126-.485-.02-.044.032-.085.085-.122.16-.036.073-.06.16-.068.242zm2.84.645l.003.007c-.002-.002-.003-.005-.003-.007v-.002.002zm-2.018.006l.003-.007-.003.008zM6.938 3.8c-.022-.224-.053-.335-.095-.33-.158.013-.396.015-.716.01.012.023.046.062.09.096.06.047.14.11.274.155.05.02.1.034.15.045l.11.02c.086.01.19.022.188.004zm2.26-.006c.053-.01.1-.017.11-.02.05-.01.1-.025.15-.043.132-.045.214-.107.272-.154.045-.034.08-.073.09-.097-.32.005-.557.003-.715-.01-.043-.005-.074.105-.095.33-.002.017.1.005.187-.006z"/></svg>