<svg role="img" viewBox="0 0 24 24" xmlns="http://www.w3.org/2000/svg"><title>Wolfram Mathworld</title><path d="M12 0C5.324 0 0 5.404 0 12s5.404 12 12 12c6.675 0 12-5.404 12-12S18.596 0 12 0ZM3.974 17.88c0-.555.079-1.191.238-1.827 1.192 1.033 2.702 1.987 4.291 2.702l-.715 1.59a17.415 17.415 0 0 1-3.814-2.464ZM7.55 20.9l-.239.557c-1.112-.477-2.066-1.192-2.86-1.828a2.938 2.938 0 0 1-.398-.874c1.033.795 2.225 1.51 3.497 2.146zm-4.133-3.575c-.953-.954-1.59-1.908-1.828-2.782-.159-.636-.159-1.271-.08-1.907.478.953 1.272 1.987 2.226 2.86-.159.716-.318 1.272-.318 1.829zm.08 1.271a7.874 7.874 0 0 1-.874-1.351c.238.318.556.556.794.874 0 .16 0 .318.08.477zM1.43 10.49v-.238c.16-.875.398-1.67.795-2.464 0-.08.08-.08.08-.159 0 .318.08.636.159.954-.318.477-.557.874-.795 1.35-.159.16-.159.319-.238.557zm.239 1.113c.08-.477.318-.875.477-1.351.159-.318.318-.636.556-.954.477 1.113 1.272 2.146 2.384 3.258-.238.477-.477.874-.715 1.351-.16.398-.318.716-.477 1.033-1.113-1.112-1.828-2.225-2.225-3.337Zm19.629-3.656c-.08.477-.397.874-.874 1.113a17.571 17.571 0 0 0-1.43-2.702c.238-.16.397-.318.476-.557.715.636 1.272 1.351 1.828 2.146ZM19.47 4.609c.398.239.795.557 1.113.954.318.397.477.795.636 1.192 0 .08 0 .08.08.159a8.303 8.303 0 0 0-1.67-1.669c-.08-.159-.08-.397-.159-.636Zm3.02 6.278c-.159.716-.556 1.272-1.192 1.67-.08-.954-.318-1.908-.636-2.862.477-.318.874-.635 1.033-1.112.398.794.636 1.51.795 2.304zm-.636-3.02s.08 0 0 0c.08 0 .08 0 0 0 .08 0 .08 0 0 0zM8.106 9.378a13.697 13.697 0 0 1 2.146-2.145c.794.715 1.748 1.271 2.781 1.828l-1.271 2.702c-1.351-.636-2.623-1.43-3.656-2.385Zm3.417 3.02-1.271 2.782c-1.59-.715-3.1-1.67-4.292-2.782.477-.794 1.113-1.669 1.749-2.463 1.033.953 2.384 1.748 3.814 2.463zm2.066-3.099a11.01 11.01 0 0 0 2.623.795c.238.08.477.08.715.08 0 1.032-.08 1.986-.159 3.02-.318 0-.636-.08-.953-.16-1.113-.238-2.305-.556-3.418-1.033.398-.874.795-1.828 1.192-2.702Zm3.1-2.543c.159.874.238 1.828.318 2.781-.239 0-.398-.079-.636-.079a14.398 14.398 0 0 1-2.464-.715c.398-.874.716-1.67 1.033-2.384.477.159.875.317 1.351.397.16-.08.239 0 .398 0zm-.08-2.305a8.928 8.928 0 0 1 1.43 1.59c-.238.08-.556.08-.953.08-.08-.637-.318-1.193-.477-1.67Zm-1.907 1.033c-.397-.238-.795-.397-1.113-.715.636-.397 1.272-.636 1.828-.874Zm-.318.557-1.113 2.384a14.718 14.718 0 0 1-2.622-1.669c.715-.636 1.51-1.192 2.225-1.669.556.397 1.033.715 1.51.954zm-4.132.318c-.636-.636-1.113-1.272-1.43-1.908.953-.397 1.986-.635 2.94-.794.159.318.397.715.715 1.033-.715.477-1.43 1.033-2.225 1.669Zm1.43-3.259a20.785 20.785 0 0 0-3.02.716c-.08-.557 0-1.113.239-1.51a8.169 8.169 0 0 1 2.781 0c-.08.318-.08.556 0 .794zM9.775 6.834c-.715.636-1.43 1.43-2.146 2.146C6.675 8.026 5.96 7.073 5.642 6.2c.795-.557 1.67-1.113 2.623-1.51.238.715.795 1.43 1.51 2.145ZM8.026 4.132c-.953.398-1.827.875-2.622 1.43-.159-.794 0-1.588.397-2.145.716-.397 1.51-.715 2.305-.874-.159.477-.238 1.033-.08 1.59Zm-.874 5.404c-.635.795-1.271 1.59-1.748 2.464-1.113-1.113-1.907-2.225-2.305-3.258.557-.716 1.192-1.43 1.987-2.067.397.875 1.113 1.908 2.066 2.861Zm-1.59 3.418a21.645 21.645 0 0 0 4.372 2.781L8.82 18.2a21.645 21.645 0 0 1-4.37-2.782c.158-.397.317-.794.476-1.271.239-.398.397-.795.636-1.192Zm3.657 6.119c1.35.556 2.702 1.033 4.052 1.271.318.08.716.16 1.034.16-.398.556-.795 1.032-1.272 1.35a4.69 4.69 0 0 1-1.112-.159c-1.113-.238-2.305-.556-3.418-1.033.16-.477.398-.953.716-1.59zm4.052 3.417c.398 0 .716.08 1.034 0-.477.08-.954.159-1.51.238l.476-.238zm.636-.556c.398-.398.795-.795 1.113-1.351 1.271.08 2.463 0 3.497-.239-.398.477-.875.795-1.43 1.113-.875.318-1.988.477-3.18.477zm.715-2.066c-.397-.08-.794-.08-1.271-.16-1.351-.238-2.623-.635-3.974-1.191.16-.318.318-.716.557-1.113l.636-1.272c1.35.557 2.701 1.034 4.052 1.272.398.08.795.159 1.113.159-.159.397-.318.874-.477 1.271a7.255 7.255 0 0 1-.636 1.034zm.16-3.259a18.239 18.239 0 0 1-3.895-1.192c.398-.874.795-1.828 1.272-2.781 1.192.477 2.384.874 3.576 1.112.318.08.715.08 1.033.16a17.653 17.653 0 0 1-.715 2.94c-.477-.08-.874-.16-1.272-.239zm2.542-2.622c1.351.08 2.464-.08 3.418-.398 0 .954-.08 1.908-.239 2.782-1.033.477-2.304.636-3.814.556.238-.953.477-1.907.635-2.94zm.08-.715c.159-1.034.159-1.987.159-3.02a6.39 6.39 0 0 0 2.543-.318c.318.953.556 1.907.636 2.94-.874.398-2.067.477-3.338.398zm2.464-3.974c-.636.238-1.43.318-2.305.238-.08-.953-.159-1.907-.318-2.781.477 0 .874-.08 1.192-.159a17.571 17.571 0 0 1 1.43 2.702zm-1.272-3.497-1.192-1.43a25.04 25.04 0 0 1 1.51.954c-.08.238-.159.397-.318.476zm-1.192-1.907c.397.08.795.159 1.192.318a.721.721 0 0 1 .238.556c-.397-.397-.874-.636-1.43-.874Zm-.715-.636c.238-.159.477-.238.635-.238.239.159.398.318.557.397-.398-.08-.795-.159-1.192-.159zm-.636-.238c-.08-.318-.08-.556-.159-.715.238.08.556.238.795.397-.16 0-.398.159-.636.318zm.477 3.02h-.16c-.396-.08-.794-.16-1.191-.318.238-.556.477-1.113.715-1.59.238.557.477 1.193.636 1.908zm-2.066-4.133c.159 0 .238 0 .397.08.08 0 .238.08.318.08.08.158.159.397.238.635-.238-.318-.636-.556-.953-.795Zm.238 1.67c-.556.238-1.033.476-1.59.794a5.568 5.568 0 0 1-.635-.795c.795-.08 1.51-.08 2.225 0zm-.477-.557h-1.907c0-.239 0-.397.08-.556.635.159 1.27.317 1.827.556zm-1.271-.954c.159-.08.318-.08.476-.159.318.16.716.398 1.034.636-.557-.238-1.034-.397-1.51-.477zm-.875-.159c-.635-.08-1.192-.159-1.748-.159h-.636c.398-.159.795-.318 1.272-.397.556 0 1.033.08 1.59.238-.24.08-.398.16-.478.318zM4.848 5.96c-.716.557-1.43 1.192-1.987 1.908a2.911 2.911 0 0 1 .08-1.67c.476-.794 1.112-1.51 1.827-2.145-.08.556-.08 1.272.08 1.907Zm3.337 15.18c1.192.476 2.385.873 3.497 1.112.16 0 .397.08.556.08a2.116 2.116 0 0 1-.953.238c-.318 0-.636-.08-.954-.16-.795-.158-1.669-.397-2.463-.794.158 0 .238-.239.317-.477zm7.153-1.193c.159-.318.318-.636.556-1.033.238-.477.397-.874.556-1.43 1.43.079 2.782 0 3.815-.398a5.52 5.52 0 0 1-.397 1.033c-.239.477-.477.874-.716 1.272-.953.477-2.304.635-3.814.556zm5.165-1.669c.239-.477.398-.953.557-1.51.317-.159.556-.318.794-.477-.318.795-.794 1.51-1.271 2.146l-.239.238c0-.079.08-.238.16-.397zm.716-2.304c.158-.875.238-1.749.158-2.702.557-.318 1.034-.716 1.351-1.193v.398c0 .715-.158 1.43-.317 2.066-.239.636-.636 1.113-1.192 1.43z"/></svg>