<svg role="img" viewBox="0 0 24 24" xmlns="http://www.w3.org/2000/svg"><title>Woodpecker</title><path d="M8.0332 1.2913c-2.258.0347-4.555.5807-6.0303.3159-.1107-.0196-.1791.1128-.0988.191 1.244 1.181 1.7152 2.3752 3.097 2.536l.0402.0086C4.403 5.0007 3.858 5.8627 3.475 6.972c-.4124 1.1898-.5287 2.4816-.6655 3.9732-.2062 2.221-.4363 4.7361-1.6901 7.8897A20.8 20.8 0 0 0 0 22.7103h1.9106a18.66 18.66 0 0 1 .9488-3.1872c1.3537-3.4054 1.6088-6.179 1.814-8.4087.1259-1.371.2366-2.5564.5732-3.5301.9823-2.828 3.3239-3.449 5.1498-3.095 1.7717.343 3.515 1.7293 3.4239 3.7126-.0652 1.3483-.6546 1.954-1.0856 2.398-.2356.2432-.4614.4733-.5677.8012-.2562.775.0085 1.6392.7164 2.3252 1.8759 1.7488 2.8963 5.037 2.8409 8.984h1.8705c.05-4.4649-1.1767-8.2524-3.4163-10.343-.177-.1705-.227-.304-.2692-.2824.103-.1302.2714-.2822.3908-.406 2.4783-1.8378 6.5633-.1595 9.0297.8143.6393.2518.951-.366.343-.7273-2.1168-1.2518-6.456-4.5561-8.8875-6.724-.3398-.2986-.5732-.658-.9661-.99-1.3114-2.3145-3.5291-2.7942-5.786-2.7606m2.9722 5.0836a1.3 1.3 0 0 0-.1693.0196 1.2788 1.2788 0 0 0-.127 2.4826 1.2782 1.2782 0 0 0 .799-2.4283 1.28 1.28 0 0 0-.5027-.074M7.27 18.7882a.17.17 0 0 0-.0955.0316c-.0911.0651-.1628.2573-.0651.481.4537 1.0453.7675 2.1461 1.0573 3.4086h1.8965C9.5844 21.3067 8.6877 19.8368 7.714 19c-.1693-.1466-.33-.2172-.443-.2118Z"/></svg>