<svg role="img" viewBox="0 0 24 24" xmlns="http://www.w3.org/2000/svg"><title>Work.ink</title><path d="M17.673 6.931a5.087 5.087 0 0 1 4.733-3.223h0.573a1.021 1.021 0 0 1 0.95 1.394l-5.706 14.542a1.023 1.023 0 0 1-0.951 0.648H13.419a1.021 1.021 0 0 1-0.987-0.761l-1.559-5.909-1.559 5.909a1.02 1.02 0 0 1-0.987 0.761h-3.783a1.021 1.021 0 0 1-0.98-0.736l-3.523-12.149a1.02 1.02 0 0 1 0.98-1.306h0.043a5.087 5.087 0 0 1 4.979 4.044l0.8 3.818 1.813-5.573a1.021 1.021 0 0 1 0.972-0.705h2.49c0.442 0 0.834 0.285 0.971 0.705l1.814 5.573z"/></svg>