<svg role="img" viewBox="0 0 24 24" xmlns="http://www.w3.org/2000/svg"><title>Wuxiaworld</title><path d="M9.9515.001c-.1399-.0088-.2655.037-.3687.1516-.1912.2129-.283.4725-.2125.747.0704.2751.1713.547.2953.803.4488.9313.9805 1.82 1.511 2.708l.0265.0437.0203.0328.039.0672-.039.0125-.0328.011-.5156.1468c-.3888.1096-.7777.2192-1.1641.336a77.9533 77.9533 0 0 0-1.0375.3265 88.4313 88.4313 0 0 1-.9235.2907c-.42.128-.8491.1832-1.2875.0984a17.0467 17.0467 0 0 1-.211-.0438c-.136-.028-.271-.0557-.4078-.078a.3136.3136 0 0 0-.1281.0171l-.0594.014a.6502.6502 0 0 1 .0219.0594c.0136.0424.0282.0845.0562.1141.1416.1488.2838.3001.4438.4297.324.2616.702.4041 1.1203.3625.2584-.0256.5185-.0901.7641-.1766.3376-.12.6711-.2493 1.0047-.378.2288-.088.458-.1754.6875-.261.6593-.244 1.3275-.462 2.022-.5875l.0047-.0016c.12-.0224.1202-.0214.1906.125l-.011.0078c-.008.008-.0161.017-.0265.025A22.77 22.77 0 0 0 9.342 7.4778a790.4262 790.4262 0 0 0-4.4063 4.3985c-.6984.704-1.4915 1.2565-2.422 1.6157l-.1593.0594a6.3921 6.3921 0 0 0-.561.2328c-.26.1264-.2525.276-.0125.4344.3489.2312.7145.2359 1.097.103.4304-.1495.8152-.3826 1.1984-.6234l.114-.0718c.28-.176.5605-.3518.85-.5094.5857-.3176 1.1998-.5737 1.8142-.8297.1656-.0688.332-.1374.4969-.2078.0072-.0032.0161-.0031.0265-.0031l.022-.0016-.0345.053-.0218.036-.161.2485c-.124.1936-.2472.3853-.3672.5797-.6904 1.12-1.2643 2.2917-1.5547 3.5813l-.036.1547c-.06.2584-.1197.5181-.1437.7797-.056.616.1863 1.1342.6063 1.5782.384.4072.8524.5935 1.4172.536a3.0977 3.0977 0 0 0 1.3172-.458l.2281-.139c.1472-.0912.2942-.1823.4422-.2719 1.144-.6832 2.3443-1.2575 3.5595-1.8047l.0828-.036c.376-.1695.7506-.3396 1.125-.5156.1872-.0888.3617-.2024.4953-.3656.1528-.188.1502-.4085-.0218-.5781a1.1728 1.1728 0 0 0-.3016-.2188c-.4264-.208-.8556-.4093-1.286-.611l-.261-.1218c-.072-.0344-.1466-.0657-.2234-.0985l-.1156-.05c.7792-.696 1.409-1.4849 1.7954-2.4625l.0156.0375a97.6628 97.6628 0 0 1 .1016.2797c.0504.144.101.2865.153.4297.5337 1.4584 1.1295 2.8918 1.8423 4.275.7544 1.4625 1.612 2.861 2.6688 4.133a13.4699 13.4699 0 0 0 2.047 2.0031c.46.36.9628.6509 1.4828.9157.024.012.0515.017.086.0234a.9557.9557 0 0 1 .0624.0125l-.0562-.0703a3.9409 3.9409 0 0 0-.1032-.1219 19.0724 19.0724 0 0 1-1.9844-2.6735c-1.104-1.7976-2.0471-3.678-2.8704-5.6157-.5408-1.2736-1.0688-2.5521-1.5969-3.8313a885.2953 885.2953 0 0 0-.925-2.2376l-.0812-.2a1.288 1.288 0 0 0 .0406-.0094.4832.4832 0 0 1 .075-.014c.0904-.0065.183-.0109.2734-.0157.1744-.0104.3483-.0214.522-.039.1407-.0145.2835-.0411.4156-.0891.1344-.0496.1545-.174.0593-.2813a.8448.8448 0 0 0-.1593-.136c-.352-.2383-.7442-.304-1.161-.2609-.0904.0096-.1784.024-.2672.0375l-.1203.0188-.0016-.0047-.0047-.0062a.1128.1128 0 0 1-.0078-.014c-.416-1.0081-.8294-2.0171-1.2438-3.0252a.5296.5296 0 0 1-.025-.0875l-.011-.0453.1485-.0297c.104-.0216.2031-.0416.3015-.064.052-.012.105-.024.1578-.0344.1456-.0304.2899-.0596.4235-.1156.1408-.0592.2787-.0648.4203-.0704h.0313c.0528-.0024.0776.0215.1.0735.0384.092.0836.1865.1484.261a.2704.2704 0 0 0 .4047.0062.4928.4928 0 0 0 .1125-.1828c.1-.304.0725-.599-.086-.8782-.1152-.204-.2792-.3187-.5296-.286-.196.0257-.3916.0495-.5876.0735-.2816.0344-.563.0702-.8437.111-.1472.0208-.2935.0561-.4407.0921-.068.016-.1358.0317-.2062.047l-.0062-.011-.0375-.0735c-.4953-1.024-1.0897-1.9844-1.8329-2.8516-.156-.1832-.2503-.3628-.2375-.614.016-.3209-.2205-.6136-.5125-.7032A.629.629 0 0 0 9.9514.001zm6.347 4.0845c-.0454.0051-.0928.038-.139.0547.0392.04.073.0956.1203.1172a4.24 4.24 0 0 0 .4437.1844 4.2905 4.2905 0 0 1 1.7079 1.0531c.0952.0968.1857.2005.2625.3125.0784.1152.0687.222-.0297.3204-.0816.0808-.1757.1575-.2781.2031a5.4641 5.4641 0 0 1-.6157.2266c-.2416.0736-.4904.1248-.7328.1968-.0976.028-.1973.072-.2781.1329-.0904.0672-.0703.1597.0297.2109a.428.428 0 0 0 .1265.0437v.0016c.124.0192.8685-.009 1.1125-.053.424-.0769.8459-.173 1.2235-.3954a2 2 0 0 0 .4063-.3157.48.48 0 0 0 .103-.5328c-.0463-.1176-.105-.2368-.1843-.3328-.3272-.3984-.7227-.7129-1.1875-.9313a5.2865 5.2865 0 0 0-1.4516-.4297 7.347 7.347 0 0 0-.6188-.0672.1123.1123 0 0 0-.0203 0zM12.036 5.8278c.303.782.5415 1.5762.7797 2.3766.0736.2472.1475.495.2235.7437-1.92.696-3.786 1.5144-5.658 2.336-.672.2952-1.3458.5909-2.0234.8813l.0203-.0266c.0088-.0128.0139-.0217.0219-.0297l.8781-.9094v-.0016c.7616-.7912 1.5242-1.5831 2.2922-2.3688a21.456 21.456 0 0 1 1.2094-1.1422c.5-.4375 1.01-.8618 1.5204-1.2875l.4-.3343c.0688-.0584.1434-.1074.2234-.161a6.8985 6.8985 0 0 0 .1125-.0765zm1.2188 3.8563.1703.5625v.0016l.1703.5578c.016.0536.0332.1066.05.1594.032.104.0658.2085.0938.3125a.2784.2784 0 0 1-.0016.1578c-.2336.6752-.64 1.2404-1.136 1.75a7.4185 7.4185 0 0 1-1.0266.8657c-.0464.0328-.083.0364-.1359.0172l-.2281-.0844c-.2384-.088-.4772-.1748-.7188-.25-.4768-.1496-.9336-.087-1.3656.161-.256.1471-.5018.3056-.6954.5328-.4112.4816-.2315 1.0461.0813 1.3765.192.2025.453.2534.725.2454.26-.0072.497-.0919.725-.2079a10.0746 10.0746 0 0 0 1.8485-1.2c.0504-.0416.0869-.0491.1453-.0187l.4563.2281c.1976.0976.3954.1953.5906.2953.1048.0544.2066.1216.2922.2016.156.144.1563.3173-.0125.4453-.1608.1224-.3364.2347-.5188.3203-.2704.1256-.5443.2441-.8187.3641a46.9013 46.9013 0 0 0-.6188.2734c-1.1296.512-2.2106 1.1164-3.2923 1.7204l-.0734.0406c-.2416.1344-.4919.2402-.7719.261-.776.0584-1.221-.5208-1.2938-1.0672-.0336-.252.0222-.4929.0766-.7329l.014-.064c.2033-.9129.467-1.8068.8767-2.6516.2224-.4569.4653-.906.7125-1.3516.3544-.636.8899-1.0933 1.5203-1.4485.5616-.316 1.1525-.57 1.7485-.8156l.3219-.136c.1256-.0544.2509-.109.3781-.161l.1313-.05c.3144-.1183 1.1054-.4173 1.4734-.575.0208-.008.0417-.0162.064-.0234.0129-.004.0279-.0069.0423-.0125zm-3.4 4.336c.0484-.0008.098.0021.1484.0078.397.0448.7722.1628 1.1453.2906l.0062.025-.1734.1032c-.1224.072-.2448.1437-.3688.2125-.2744.152-.5505.3028-.8281.45-.2408.1272-.4919.2274-.772.2266-.344-.0008-.4753-.1644-.3609-.5172.0368-.1136.1307-.2184.222-.3032.108-.1.2315-.1855.353-.2703l.0485-.0328c.1775-.1235.3697-.1887.5797-.1922z"/></svg>