<svg xml:space="preserve" role="img" viewBox="0 0 24 24" xmlns="http://www.w3.org/2000/svg"><title>Wyze</title><path d="m-63.43 105.515 4.147 18.235 1.587-7.086-2.534-11.149h1.305l4.173 18.235 4.173-18.235h1.305l-4.94 21.986h-.896l-1.792-8.023-1.843 8.023h-.922l-5.069-21.986zm16.102 0 3.174 11.15 3.2-11.15h1.382l-4.019 13.963.026 8.023h-1.203v-8.023l-3.917-13.963zm8.473 0h9.241l-7.244 19.746h6.86v2.24h-9.241l7.321-19.67h-6.911zM-29 125.26h9.395v2.241h-9.394zm0-10.235h9.395v2.34h-9.394zm0-9.51h9.395v2.317h-9.394z" style="fill:#000000;stroke-width:0.0716881" transform="matrix(.4532 0 0 .48187 31.43 -44.147)"/></svg>