<svg role="img" viewBox="0 0 24 24" xmlns="http://www.w3.org/2000/svg"><title>XAMPP icon</title><path d="M16.788,11.923c0.113,0.043,0.226,0.079,0.334,0.128c0.45,0.203,0.715,0.553,0.748,1.044 c0.041,0.634,0.044,1.271,0.002,1.905c-0.049,0.732-0.725,1.292-1.483,1.271c-0.735-0.021-1.369-0.62-1.397-1.341 c-0.017-0.441-0.003-0.884-0.006-1.326c-0.001-0.239-0.003-0.242-0.245-0.243c-1.363-0.001-2.726,0.008-4.089-0.003 c-0.888-0.007-1.421,0.482-1.471,1.46c-0.019,0.38-0.1,0.727-0.357,1.018c-0.397,0.451-0.898,0.601-1.472,0.466 c-0.554-0.131-0.867-0.522-1.035-1.048c-0.117-0.367-0.056-0.737,0.012-1.094c0.342-1.804,1.374-3.014,3.144-3.561 c0.379-0.117,0.774-0.16,1.172-0.16c0.912,0.001,1.823,0.001,2.735-0.001c0.128,0,0.257-0.012,0.385-0.021 c0.702-0.051,1.166-0.511,1.22-1.352c0.004-0.064,0-0.129,0.001-0.193c0.011-0.788,0.605-1.396,1.393-1.425 c0.787-0.029,1.438,0.527,1.493,1.318c0.076,1.083-0.265,2.046-0.913,2.907C16.899,11.751,16.815,11.816,16.788,11.923z M8.245,10.436c-0.258-0.008-0.571,0.018-0.882-0.035c-0.536-0.09-0.876-0.39-1.02-0.916C6.186,8.912,6.246,8.388,6.694,7.96 c0.447-0.426,0.974-0.555,1.551-0.329c0.563,0.22,0.884,0.657,0.923,1.262c0.029,0.458,0.006,0.919,0.009,1.379 c0.001,0.116-0.043,0.167-0.161,0.165C8.778,10.434,8.539,10.436,8.245,10.436z M0,2.638v18.725C0,22.819,1.181,24,2.638,24h18.724 C22.819,24,24,22.819,24,21.362V2.638C24,1.181,22.819,0,21.362,0H2.638C1.181,0,0,1.181,0,2.638z M20.122,12.452 c0.571,0.885,0.773,1.869,0.652,2.95c-0.185,1.663-1.354,3.079-2.958,3.551c-2.715,0.799-4.811-0.788-5.5-2.722 c-0.109-0.304-0.16-0.622-0.224-0.985c-0.068,0.414-0.115,0.789-0.264,1.134c-0.697,1.617-1.884,2.603-3.665,2.799 c-2.104,0.232-4.048-1.067-4.632-3.084c-0.25-0.863-0.175-1.747-0.068-2.625c0.08-0.653,0.321-1.268,0.632-1.848 c0.057-0.106,0.057-0.184-0.01-0.285c-0.561-0.845-0.779-1.777-0.7-2.784C3.426,8.014,3.557,7.5,3.801,7.017 c0.715-1.412,2.286-2.611,4.389-2.412c1.849,0.175,3.562,1.77,3.83,3.564c0.013,0.09,0.039,0.178,0.068,0.311 c0.044-0.241,0.076-0.439,0.118-0.636c0.344-1.63,1.94-3.335,4.201-3.357c2.292-0.021,3.99,1.776,4.31,3.446 c0.186,0.97,0.072,1.939-0.159,2.908c-0.103,0.435-0.297,0.838-0.469,1.251C20.039,12.211,20.052,12.344,20.122,12.452z"/></svg>