<svg role="img" xmlns="http://www.w3.org/2000/svg" viewBox="0 0 24 24"><title>Xcode icon</title><path d="M12.435 14.349c-.182.518-.378 1.07-.602 1.702l-.821 2.313c-.336.95-.604 1.746-.803 2.388a.798.798 0 01-.625.55l-6.812 1.189L0 6.933l14.676-2.56a.532.532 0 01.622.488c.009.127.01.243.007.347l-.007.174c-.063.542-.527 2.109-1.306 4.448a3053.345 3053.345 0 01-2.632-2.97c-.291-.33-.623-.434-.907-.39l-.031.005c-.57.111-.93.825-.334 1.494a2367.03 2367.03 0 013.283 3.696l-.301.871-3.007.525-.676 1.82 3.048-.532zM7.87 17.586l2.476-6.629.296-.795a.843.843 0 00-.505-1.081.855.855 0 00-1.093.501l-.295.792-2.47 6.635zM4.109 14.1l.293 1.65 1.8-.314.807-1.842zm1.83 6.23l1.812-2.428-1.595-.583zm12.13-5.937a87.109 87.109 0 01.33-1.38l1.921-.336-.294-1.65-1.175.205c.213-.812.42-1.557.622-2.231.324-1.085.625-1.964.896-2.605a5.85 5.85 0 01.038-.087.611.611 0 01.864-.283l.136.078c.272.157.462.426.517.736L24 18.49 17.654 19.6a.532.532 0 01-.611-.64c.23-1.04.431-1.943.603-2.71.074.087.162.164.267.224.556.32 1.229.26 1.516.65.321.437.452.736.452.736s.372-.417.337-1.004c-.138-2.332-1.934-2.65-1.934-2.65zm1.505-9.687c.362-.238.663-.358.965-.358.482 0 .784.299.965.478.24.298.964.537 1.266.537.24 0 .542-.716.723-1.313.18-.596.241-1.312.12-1.432-.12-.119-.964-.298-1.145-.298-.12.06-.301.179-.723.179s-.905-.358-1.206-.656c-.482-.478-1.146-.716-1.748-.895A7.564 7.564 0 0016.8.709c-.965-.06-1.93-.06-2.834.239-.361.12-.723.238-1.085.417-.12.06-.422.18-.482.24-.06.059-.12.178 0 .178s.542-.06.542-.06-.482.24-.482.358c0 .12.06.12.12.12.061 0 .302-.06.543-.12.242-.06.784-.238 1.327-.238.603 0 1.266.179 1.808.775.965 1.134.784 2.506.784 2.864-.18 2.148-5.064 15.094-5.245 15.99-.18.894-.18 1.431.904 1.73 1.086.298 1.568 0 1.749-.418.24-.657 3.255-16.705 5.124-18.078z"/></svg>