<svg role="img" viewBox="0 0 24 24" xmlns="http://www.w3.org/2000/svg"><title>Xilinx icon</title><path d="M2.686 20.997L0 17.999l2.67-2.976 2.671-2.976v-.1l-2.67-2.974L0 5.999l2.686-2.997L5.37.005l3.95-.003L13.274 0l-.284.315-.284.315-2.377 2.66-2.377 2.66v.101l1.68 1.88 1.68 1.878.98 1.094.979 1.094-2.66 2.977-2.659 2.977v.1l2.16 2.416 2.16 2.415.5.56.5.559-3.95-.003-3.95-.004zm10.636 2.974v-.03l2.558-2.865 2.558-2.865.098-.104.098-.105 2.683 3L24.001 24h-10.68zM15.99 3.048L13.35.098l-.02-.05-.02-.048h10.692l-2.56 2.865-2.559 2.865-.127.135-.127.134z"/></svg>
