<svg role="img" viewBox="0 0 24 24" xmlns="http://www.w3.org/2000/svg"><title>XWiki</title><path d="M12.037 0a.84.84 0 0 0-.832.84v3.654a.84.84 0 0 0 .842.842.84.84 0 0 0 .84-.842V.84a.84.84 0 0 0-.84-.84.84.84 0 0 0-.01 0zM4.109 1.264a1.5 1.5 0 0 0-1.088 2.48l7.063 8.207-7.063 8.21a1.5 1.5 0 1 0 2.274 1.956l6.77-7.865 6.769 7.865a1.5 1.5 0 1 0 2.273-1.957l-7.064-8.209 7.064-8.207a1.5 1.5 0 0 0-2.273-1.955l-6.77 7.863-6.77-7.867a1.5 1.5 0 0 0-1.185-.521zM.89 11.156a.84.84 0 0 0-.84.842.84.84 0 0 0 .84.84h3.656a.84.84 0 0 0 .84-.84.84.84 0 0 0-.84-.842zm18.57.022a.84.84 0 0 0-.84.84.84.84 0 0 0 .84.841h3.652a.84.84 0 0 0 .84-.841.84.84 0 0 0-.84-.84zm-7.422 7.486a.84.84 0 0 0-.832.84v3.656a.84.84 0 0 0 .841.84.84.84 0 0 0 .84-.84v-3.656a.84.84 0 0 0-.84-.84.84.84 0 0 0-.01 0z"/></svg>