<svg role="img" viewBox="0 0 24 24" xmlns="http://www.w3.org/2000/svg"><title>XWiki</title><path d="M23.11 12.859a.84.84 0 0 0 .84-.84.84.84 0 0 0-.84-.841h-3.651a.84.84 0 0 0-.84.84.84.84 0 0 0 .84.841zm-9.068-.907 7.065-8.207a1.5 1.5 0 0 0-2.274-1.957l-6.77 7.864-6.769-7.866A1.5 1.5 0 1 0 3.02 3.745l7.064 8.207L3.02 20.16a1.5 1.5 0 1 0 2.274 1.957l6.77-7.867 6.769 7.867a1.5 1.5 0 1 0 2.273-1.957zM11.205.84a.84.84 0 0 1 .841-.84.84.84 0 0 1 .84.84v3.654a.84.84 0 0 1-.84.84.84.84 0 0 1-.84-.84zm0 18.664a.84.84 0 0 1 .841-.84.84.84 0 0 1 .84.84v3.655a.84.84 0 0 1-.84.84.84.84 0 0 1-.84-.84zm-6.66-6.666a.84.84 0 0 0 .84-.84.84.84 0 0 0-.84-.841H.888a.84.84 0 0 0-.84.84.84.84 0 0 0 .84.84z"/></svg>