<svg role="img" viewBox="0 0 24 24" xmlns="http://www.w3.org/2000/svg"><title>yabai</title><path d="m23 9.7-3.5-3.5.6-.6c.5-.5.5-1.3 0-1.7-.5-.5-1.3-.5-1.7 0l-.6.6L14.3 1C13-.3 11-.3 9.7 1L6.2 4.4l-.5-.5c-.5-.5-1.3-.5-1.7 0-.5.5-.5 1.2 0 1.7l.5.5L1 9.7C-.3 11-.3 13 1 14.3l3.5 3.5-.1.1-.5.5c-.5.5-.5 1.3 0 1.7.5.5 1.3.5 1.7 0l.6-.6L9.7 23c1.3 1.3 3.3 1.3 4.6 0l8.7-8.7c1.3-1.2 1.3-3.3 0-4.6zM10.9 2.2c.6-.6 1.6-.6 2.2 0l3.5 3.5-4.6 4.5-4.6-4.6 3.5-3.4zM2.2 13.1c-.6-.6-.6-1.6 0-2.2l3.5-3.5 4.6 4.6-4.6 4.6-3.5-3.5zm19.6 0-8.7 8.7c-.6.6-1.6.6-2.2 0l-3.5-3.5L18.3 7.4l3.5 3.5c.6.6.6 1.6 0 2.2z"/></svg>