<svg role="img" viewBox="0 0 24 24" xmlns="http://www.w3.org/2000/svg"><title>yabai</title><path d="M20.119 3.902a1.233 1.233 0 0 0-1.743 0l-6.345 6.344-6.346-6.344a1.233 1.233 0 0 0-1.744 1.743l6.345 6.343-5.883 5.86-.517.514a1.233 1.233 0 1 0 1.74 1.747L20.119 5.644a1.237 1.237 0 0 0 0-1.742zM2.195 13.069a1.54 1.54 0 0 1 0-2.18L5.69 7.394 4.474 6.175.977 9.672a3.263 3.263 0 0 0 0 4.614l3.494 3.496 1.22-1.215zm8.717-10.896a1.54 1.54 0 0 1 2.179 0l3.508 3.506 1.215-1.216L14.308.955a3.263 3.263 0 0 0-4.613 0L6.216 4.434 7.434 5.65zm12.114 7.539-3.49-3.489-1.218 1.218 3.49 3.49a1.54 1.54 0 0 1 0 2.179l-8.715 8.715a1.54 1.54 0 0 1-2.179 0l-3.5-3.5-1.222 1.218 3.502 3.502a3.263 3.263 0 0 0 4.614 0l8.715-8.716a3.263 3.263 0 0 0 0-4.613z"/></svg>