<svg role="img" viewBox="0 0 24 24" xmlns="http://www.w3.org/2000/svg"><title>yabai</title><path d="M12.001 0c-.834 0-1.67.318-2.306.955L6.217 4.433l-.532-.53a1.233 1.233 0 0 0-1.744 1.741l.531.532L.977 9.67a3.263 3.263 0 0 0 0 4.614L4.47 17.78l-.069.067-.515.514a1.233 1.233 0 1 0 1.738 1.748l.566-.567 3.502 3.502a3.263 3.263 0 0 0 4.615 0l8.714-8.715a3.263 3.263 0 0 0 0-4.615l.002-.002-3.486-3.488.58-.58a1.237 1.237 0 0 0 0-1.742 1.233 1.233 0 0 0-1.744 0l-.56.56L14.308.956A3.252 3.252 0 0 0 12.001 0Zm0 1.72c.395 0 .788.15 1.088.452l3.51 3.505-4.568 4.569L7.433 5.65l3.479-3.478c.3-.301.695-.451 1.09-.451Zm-6.31 5.674 4.594 4.594-4.596 4.578-3.494-3.498a1.54 1.54 0 0 1 0-2.18zm12.627.047 3.49 3.49a1.54 1.54 0 0 1 0 2.178l-8.715 8.714a1.54 1.54 0 0 1-2.18 0l-3.5-3.5Z"/></svg>