<svg role="img" viewBox="0 0 24 24" xmlns="http://www.w3.org/2000/svg"><title>Yahoo!Japan</title><path d="M22.84993 8.9755v2.64657h.50958L23.90199 9.37l.09863-.3945ZM.03348 9.00836l-.03286.29592c.16439.03288.87121.11506.96985.14793.36164.27946 1.7589 2.03834 1.82465 2.21916v.9863c0 .16439-.1315.23016-.29587.27947-.16439.0493-.44383.0822-.62466.06576l-.03286.29587c.29589.01644 1.15066-.01645 1.4301-.01645.55892 0 1.4466-.01644 1.5781 0l.03286-.31232-.95339-.06572s-.01644-1.15068 0-1.24931c.11507-.31233 1.79178-1.6274 1.9726-1.67672.16438-.03287.65752-.1315.77258-.14794l.18085-.27947H4.0938l.04931.29587c.09863 0 .67394.0822.85477.1151-.03287.263-1.26575 1.13425-1.39725 1.31506-.23014-.32876-.95343-1.21644-1.4137-1.89042.18082-.04931.8548-.06574 1.00274-.09862l.04932-.27947Zm20.08767.23015c-1.36437.03289-2.21917.55893-2.23562 1.47948v.03285c.0329.92055.87125 1.463 2.23562 1.49588h.09865c1.34794-.03288 2.20278-.57533 2.23566-1.51233-.03288-.88767-.87129-1.463-2.23567-1.49588zm-8.48217.1644-.03286.24655c.14795.01645.49315.08219.62465.09863v1.06851h-1.87396v-.72327c.14795 0 .64107-.08221.75614-.08221l.03286-.24657c-.37808.03289-1.77533.03289-2.2356 0l-.03287.26302c.13151 0 .64108.0493.75614.0493.01644.14796.01645.54249.01645.69043v.41096c0 .32876 0 .6575-.01645.85476-.09862.01644-.54243.06576-.70682.06576l-.03287.29588c.52603-.03288 1.6274-.03288 2.16985 0l.03286-.27942c-.1315-.01645-.73969-.08223-.73969-.08223v-.8219c.2137-.0493 1.6274-.08217 1.87398-.08217v.92053c-.09864.01644-.50961.08217-.5918.08217l-.03286.26301c.50958-.01643 1.39724-.03287 1.90683 0l.0493-.23011c-.11506-.01643-.6411-.08221-.6411-.08221V9.74809c.1315-.01644.49316-.08216.5918-.08216l.01644-.26302c-.32876.01643-1.5781.01643-1.89043 0zm8.33423.24655h.36164c.46027.03289 1.29865.29589 1.31508 1.08493 0 .78904-.8548 1.08494-1.31507 1.10138h-.36165c-.46028-.03288-1.29863-.31234-1.31507-1.10138.01643-.78904.8548-1.05204 1.31507-1.08493zm-4.47122.04932c-1.29862.03288-2.0219.54248-2.0219 1.38085v.03286c0 .78904.78904 1.34797 2.0219 1.38084h.13149c1.23287-.03288 2.02192-.55893 2.03836-1.38084v-.03286c0-.83836-.80549-1.34797-2.03836-1.38084zm-.06576.3781h.26302c.4274.01644 1.2493.24657 1.2493.98628v.06576c0 .7233-.8219.96986-1.2493.9863h-.26301c-.4274-.01643-1.24932-.24656-1.24932-.9863v-.06575c0-.72328.82191-.96985 1.2493-.98629zm-9.2219.2301-.01646.23016.52603.13149s-.77259 1.54522-.93698 1.75893c-.1315.03288-.4767.11505-.6082.13148l-.0329.27948c.09862-.01644 1.46303 0 1.59454 0l.03286-.26301-.47672-.11509s.21369-.44385.24656-.49318c.14795-.03288 1.03565-.0493 1.03565-.0493l.31234.8548s-.3781.06577-.52603.06577l-.03291.27947h1.9562l.03284-.24661c-.11507.01644-.4767-.08219-.6082-.09863-.14795-.23014-.67396-1.56166-.92054-2.15344l.44383-.06572.0493-.23016h-.67397c-.24657 0-1.29861-.00001-1.39725-.01645zm.90412.3781.37805.96989h-.82192c.04933-.11507.44387-.9699.44387-.9699zm15.5671 1.4137-.06577.5918.34523-.01645h.32878l.06572-.57535-.32872.01645zm-8.54794.70688v.13148c.09863.01644.39451.08218.46026.09864.01644.14794.01645.57534.01645.57534 0 .5589-.01645.87125-.06577 1.00276-.01643.09863-.1315.23013-.36163.36164l.18084.0493c.47672-.19726.65754-.4767.67398-.88767 0 0 .03286-.9041.03286-1.10137.06575-.03288.27943-.09864.34517-.11508v-.11503c-.16437.01644-.36163.0164-.52603.0164-.14794 0-.57532-.0164-.75613-.0164zm2.63016.2137-.88768.03286v.11507l.23012.03286c-.14795.32877-.54245 1.16714-.6082 1.26577-.06576.03288-.13151.04932-.19726.06576l-.01645.13148h.70683v-.11507l-.21366-.06572s.13148-.32878.1808-.42741h.6082l.16439.42741s-.14795.03288-.26302.0493l-.0164.11509h.88766l.01642-.13153c-.0822.03288-.26302-.01645-.26302-.01645-.11507-.23014-.41095-.95342-.5589-1.29863l.23016-.0493zm3.66572 0-.87123.03286v.11507l.23016.03286c-.14794.32877-.5425 1.16714-.60825 1.26577-.06575.01644-.1315.04932-.19725.06576l-.01645.13148c.19726-.01644.64113 0 .70688 0v-.11507l-.2137-.06572s.13153-.32878.18084-.42741h.6082l.16439.42741s-.14795.03288-.26301.0493l-.01645.11504h.88767l.01645-.13148c-.09864.03288-.27947-.01645-.27947-.01645-.18082-.37808-.4767-1.10138-.5589-1.29863l.21372-.03286zm.70687 0v.1808c.08217 0 .19727.01645.26301.01645 0 .08219 0 1.13421-.01644 1.2164-.08217.01644-.14792.04934-.2301.08221v.14794h.80544l-.01645-.14794c-.03288 0-.24655-.04934-.34518-.0822 0-.13152-.01645-.88767-.01645-1.08494.24657.2959.98632 1.13426 1.21646 1.36439.0493.03287.08216.01642.08216-.01645 0-.24658-.0164-1.31507-.0164-1.46302.09858-.01643.19723-.03287.2301-.0493l.0493-.16435c-.0493 0-.27942.0164-.32873.0164-.04932 0-.32878-.0164-.3781-.0164l.01646.14794c.09863.01644.19723.03286.24656.03286 0 .09863.01645.67396.01645.92053-.26301-.2959-.7726-.85474-.9863-1.10133zm-3.64932.0164.03286.1644c.08218.01644.19728.01645.27948.01645 0 .19726.03284 1.0356.0164 1.28217-.0493.01645-.21367.04933-.27942.06577l-.01645.14793h1.0192v-.11508c-.06574-.01644-.2959-.06576-.34523-.06576 0-.0493-.0164-1.23286-.0164-1.29861.09864 0 .26297 0 .32872.01645.18083.0493.23016.23013.23016.36164l-.01645.01645c0 .19726-.1808.27945-.3945.31232v.14794c.4274-.0493.70683-.21371.70683-.47672v-.01644c0-.2959-.19725-.5589-.65752-.5589zm-1.2.27947.24657.62465h-.50958c.03288-.08217.26302-.62465.26302-.62465zm3.66577 0 .24656.62465h-.50958c.03288-.08218.26302-.62465.26302-.62465z"/></svg>