<svg viewBox="0 0 16 16" xmlns="http://www.w3.org/2000/svg" fill-rule="evenodd" clip-rule="evenodd" stroke-linejoin="round" stroke-miterlimit="1.414"><g fill-rule="nonzero"><path d="M13.86 4.33c.323-.258.405-.723.178-1.077-.2-.312-.577-.44-.916-.343l-.093.05c-.54.297-4.184 2.85-3.772 3.138.408.286 2.9-.836 4.603-1.77m0 7.68c-1.702-.934-4.194-2.055-4.602-1.77-.412.288 3.232 2.842 3.77 3.138l.094.05c.34.1.715-.03.916-.342.227-.355.145-.82-.177-1.077m1.5-4.678c-.033-.003-.068-.003-.105-.003-.615 0-5.038.486-4.816.937.22.446 2.943.662 4.885.663.406-.07.7-.438.673-.858-.026-.37-.294-.665-.638-.74M3.65 11.165c-.506 1.43-.975 2.1-2.052 2.1-.105 0-.467-.02-.49-.023-.348-.018-.673.208-.766.558-.108.397.125.806.52.92.286.05.58.068.842.068 1.986 0 2.642-1.144 3.298-2.813L8.877 2.31c.14-.438-.104-.906-.54-1.045-.427-.136-.88.09-1.033.505L4.58 8.966h-.04l-2.865-7.25c-.194-.41-.673-.61-1.105-.447-.444.165-.672.65-.526 1.097l3.607 8.798z"/></g></svg>