<svg role="img" viewBox="0 0 24 24" xmlns="http://www.w3.org/2000/svg"><title>Yatra</title><path d="M12.72 7.017c-.312 0-.564.193-.564.432v1.205h-.68c-.247 0-.448.243-.448.544 0 .302.2.545.449.545h.68v3.591c0 .633.227 1.143.663 1.463.34.255.776.38 1.316.38.26-.005.516-.028.772-.074h.008c.244-.043.396-.317.344-.614-.052-.294-.292-.502-.536-.46l-.012.004c-.744.127-1.072.004-1.204-.097-.148-.112-.224-.312-.224-.602V9.743h.565c1.48 0 2.68 1.158 2.68 2.587v2.421c0 .24.252.433.564.433.312 0 .563-.193.563-.433v-1.93h.004c0-1.816 1.228-3.078 3.38-3.078l.412.004c.808 0 1.424.398 1.424 1.016v.346a6.221 6.221 0 0 0-1.3-.146h-.048c-1.512 0-2.472.946-2.472 2.112 0 1.166.96 2.109 2.472 2.109S24 14.24 24 13.075v-.053l-.004-2.26c0-1.166-1.164-2.104-2.468-2.104l-.488-.004c-1.781 0-3.132.72-3.872 1.875a3.829 3.829 0 0 0-3.32-1.875h-.564V7.449c0-.24-.252-.432-.564-.432zM.56 8.64a.557.557 0 0 0-.488.272c-.14.25-.08.533.212.753.296.22.648.834 1.3 2.12.32.629.72 1.413 1.244 2.398a2 2 0 0 0 .05.09c-.512.988-1.024 1.555-1.738 1.593-.468.027-.584.329-.528.63.056.301.256.486.528.486 1.412 0 2.296-1.255 3.14-3.042l.012-.024c.128-.29.253-.59.38-.907.169-.421.345-.857.537-1.286.752-1.676 1.603-1.985 3.007-1.985h.216c.604 0 1.34.402 1.34 1.02v.349a6.21 6.21 0 0 0-1.295-.145h-.048c-1.512 0-2.473.947-2.473 2.113s.96 2.108 2.473 2.108c1.512 0 2.471-.942 2.471-2.108v-.054l-.004-2.26c0-1.166-1.163-2.108-2.467-2.108l-.217-.004c-1.72 0-3.064.448-4.048 2.641-.08.178-.156.356-.232.534l-.008.022c-.166.395-.285.722-.459 1.143-.345-.658-.626-1.214-.865-1.683C1.784 9.701 1.456 9.056.828 8.712c-.004 0-.004-.004-.008-.004a.559.559 0 0 0-.26-.067zm7.869 3.411h.048c.37 0 .855.072 1.295.156v.794l-.004.012v.058c0 .621-.52 1.023-1.34 1.023-.82 0-1.344-.401-1.344-1.02 0-.621.529-1.023 1.345-1.023zm13.1 0h.047c.371 0 .857.073 1.298.157l-.002.805v.058c0 .621-.528 1.023-1.344 1.023-.816 0-1.344-.402-1.344-1.02 0-.622.528-1.023 1.344-1.023z"/></svg>