<svg role="img" viewBox="0 0 24 24" xmlns="http://www.w3.org/2000/svg"><title>Yew</title><path d="M21.362 11.517A9.36 9.36 0 0 1 12 20.879a9.36 9.36 0 0 1-9.362-9.362A9.36 9.36 0 0 1 12 2.154a9.36 9.36 0 0 1 9.362 9.363m-1.387 0A7.975 7.975 0 0 0 12 3.541a7.975 7.975 0 0 0-7.975 7.976A7.975 7.975 0 0 0 12 19.492a7.975 7.975 0 0 0 7.975-7.975m-5.085 0A2.89 2.89 0 0 1 12 14.406a2.89 2.89 0 0 1-2.89-2.889A2.89 2.89 0 0 1 12 8.627a2.89 2.89 0 0 1 2.89 2.89m-.925 0A1.965 1.965 0 0 0 12 9.552a1.965 1.965 0 0 0-1.965 1.965A1.965 1.965 0 0 0 12 13.482a1.965 1.965 0 0 0 1.965-1.965m-4.439-1.493-8.84-8.84a.694.694 0 0 1 0-.981.694.694 0 0 1 .981 0l8.84 8.84a2.9 2.9 0 0 0-.981.981m3.967-.981 8.84-8.84a.694.694 0 0 1 .981 0 .694.694 0 0 1 0 .981l-8.84 8.84a2.9 2.9 0 0 0-.981-.981m-.799 5.279v8.984A.694.694 0 0 1 12 24a.694.694 0 0 1-.694-.694v-8.984a2.9 2.9 0 0 0 1.388 0"/></svg>