<svg role="img" viewBox="0 0 24 24" xmlns="http://www.w3.org/2000/svg"><title>YouTube Kids</title><path d="M23.9898 13.543a70.4767 70.4767 0 0 0-.0065-.2881c-.015-1.1218-.6455-6.495-.9994-7.4574-.4096-1.1109-.9736-1.9445-1.6749-2.4793-1.143-.873-2.1145-1.0628-3.3133-1.0868h-.0301c-.5104 0-3.8474.4147-6.6418.801-2.7965.3862-6.303.9144-7.1394 1.2265-1.1537.432-2.0695.9973-2.7965 1.7285C.0497 7.3317-.1133 8.7307.054 10.553c.131 1.412.875 6.975 1.3019 8.2475.5747 1.7176 1.6942 2.7499 3.1546 2.9092a9.5643 9.5643 0 0 0 1.0445.0589c1.2803 0 2.2946-.2772 3.47-.598 1.8486-.5042 4.1476-1.1305 8.8936-1.1305h.1394c1.1623 0 4.0082-.2619 5.3036-2.6866.6926-1.2964.6519-2.87.6283-3.8105zm-1.4261 3.3675c-.547 1.0257-1.8637 2.202-4.5058 2.202h-.1394c-7.8815 0-9.3312 1.7286-12.3615 1.7286-.298 0-.6112-.0175-.9457-.0524-1.2353-.1353-1.9838-1.0694-2.3913-2.2872-.3689-1.1021-1.1066-6.4295-1.2567-8.0357-.1651-1.7722.0343-2.7805 1.0659-3.8172.6326-.6372 1.4411-1.1327 2.4727-1.5168C5.87 4.6168 17.1614 3.159 17.9656 3.159h.0108c1.0165.0197 1.8121.1571 2.788.9013.7634.5828 1.1752 1.5387 1.3682 2.0647.3002.8118.9264 6.0388.9414 7.1431.0108.8402.1352 2.4334-.5103 3.6425zm-6.333-6.1065a1.5973 1.5973 0 0 1-.1223-.0567c-1.3168-.6744-5.5545-2.176-6.3995-2.4487-.1072-.035-.3538-.1179-.549-.1179-.0793 0-.15.013-.1995.0502-.0803.0589-.0986.2188-.0946.3816.004.163.0304.3288.039.3997.06.4998.5897 5.0567.654 5.5347l.0107.0873c.0537.3994.1309 1.22.356 1.34.03.0153.0665.024.1073.024.268 0 .7463-.3121 1.0165-.5216l4.2978-2.9746c.2723-.19.5447-.3776.8192-.5631.0343-.0218.0686-.0437.1051-.0655.14-.0851.304-.1862.3755-.3594a.4982.4982 0 0 0 .0363-.1993c-.0032-.1593-.0692-.2668-.158-.3445s-.2002-.1258-.2945-.1662zm-1.3962.9297-1.2757.8834a16916.0645 16916.0645 0 0 1-3.02 2.0913l-.0192.0131-.0172.013s-.002 0-.002.0023c-.0044-.0306-.0066-.0568-.0108-.0808l-.0193-.1484-.0129-.0916c-.0472-.3405-.3431-2.8678-.519-4.378-.0321-.275-.06-.5216-.0836-.7159 1.2417.4256 4.1155 1.4623 5.4687 2.0733a67.072 67.072 0 0 0-.489.3383z"/></svg>