<svg role="img" xmlns="http://www.w3.org/2000/svg" viewBox="0 0 24 24"><title>YouTube icon</title><path d="M23.4985 6.1858c-.276-1.0393-1.0891-1.8578-2.1218-2.1356C19.505 3.5455 12 3.5455 12 3.5455s-7.505 0-9.3767.5048C1.5907 4.328.7775 5.1465.5015 6.1858 0 8.0696 0 12 0 12s0 3.9303.5015 5.8143c.276 1.0392 1.0892 1.8577 2.1218 2.1356 1.8717.5046 9.3767.5046 9.3767.5046s7.505 0 9.3766-.5047c1.0327-.2779 1.8458-1.0964 2.1218-2.1356C24 15.9303 24 12 24 12s0-3.9304-.5015-5.8142zm-13.953 9.3827v-7.137l6.2727 3.5686-6.2727 3.5684z"/></svg>