<svg viewBox="0 0 16 16" xmlns="http://www.w3.org/2000/svg" fill-rule="evenodd" clip-rule="evenodd" stroke-linejoin="round" stroke-miterlimit="1.414"><path d="M6.348 10.075V5.58l4.323 2.255-4.322 2.24zM15.84 4.8s-.156-1.102-.636-1.587c-.608-.637-1.29-.64-1.603-.678-2.238-.162-5.596-.162-5.596-.162h-.008s-3.358 0-5.597.162c-.314.038-.996.04-1.604.678C.316 3.698.16 4.8.16 4.8S0 6.097 0 7.39v1.215c0 1.294.16 2.59.16 2.59s.156 1.1.636 1.587c.608.637 1.408.617 1.764.684 1.28.123 5.44.16 5.44.16s3.362-.004 5.6-.166c.314-.038.996-.04 1.604-.678.48-.486.636-1.588.636-1.588S16 9.9 16 8.604V7.39c0-1.294-.16-2.59-.16-2.59" fill="#fff" fill-rule="nonzero"/></svg>