<svg role="img" viewBox="0 0 24 24" xmlns="http://www.w3.org/2000/svg"><title>Zalo</title><path d="M12.49 10.27v-.45h1.35v6.32h-.77a.57.57 0 01-.58-.57 3.24 3.24 0 01-1.94.63 3.28 3.28 0 111.94-5.93zM6.92 7.79V8a1.72 1.72 0 01-.3 1.07l-.24.28L2 14.8h4.9v.77a.57.57 0 01-.58.57H0v-.36a1.32 1.32 0 01.25-.85l4.61-5.7H.19V7.79zm8.55 8.35a.48.48 0 01-.48-.48V7.79h1.44v8.35zm5.22-6.54a3.31 3.31 0 11-3.3 3.3 3.31 3.31 0 013.3-3.3zm-10.14 5.25a1.93 1.93 0 10-1.93-1.93 1.92 1.92 0 001.93 1.93zm10.14 0a1.95 1.95 0 10-1.94-1.95 1.95 1.95 0 001.94 1.95z"/></svg>