<svg role="img" viewBox="0 0 24 24" xmlns="http://www.w3.org/2000/svg"><title>ZAP</title><path d="M9.377.004.1 3.998a.167.168 0 0 0-.032.29l2.41 1.713a11.684 11.69 0 0 0-.005.008l2.77 1.986a.167.168 0 0 1-.025.29L4 8.818a.172.172 0 0 0-.03.29l5.33 3.848a.167.168 0 0 1-.032.29l-1.584.63a.167.168 0 0 0-.022.298l12.2 7.046a11.684 11.69 0 0 0 .017-.013l.906.524a.163.163 0 0 0 .139.002.167.168 0 0 0 .006-.002.163.163 0 0 0 .079-.1.167.168 0 0 0 .004-.029.163.163 0 0 0-.03-.12l-.6-.759-5.246-6.63a.167.168 0 0 1 .09-.268l1.716-.42a.167.168 0 0 0 .086-.268l-3.96-4.98a.167.168 0 0 1 .073-.263l1.357-.453a.167.168 0 0 0 .082-.258L9.567.071a.158.158 0 0 0-.13-.068.14.14 0 0 0-.06 0zm2.937.616a11.684 11.69 0 0 0-1.215.083l4.207 5.975a1.068 1.069 0 0 1 .137.942 1.036 1.037 0 0 1-.67.66l-.357.118 3.32 4.194a1.068 1.069 0 0 1 .172.995 1.05 1.05 0 0 1-.737.67l-.638.154 4.457 5.657a11.684 11.69 0 0 0 3.009-7.758A11.684 11.69 0 0 0 12.314.621zM2.062 6.767a11.684 11.69 0 0 0-1.433 5.544 11.684 11.69 0 0 0 11.685 11.69 11.684 11.69 0 0 0 6.788-2.218L7.215 14.918a1.054 1.055 0 0 1 .135-1.888l.367-.145-4.268-3.11a1.059 1.06 0 0 1 .19-1.81l.064-.029"/></svg>