<svg role="img" viewBox="0 0 24.005 24" xmlns="http://www.w3.org/2000/svg"><title>ZAP</title><path d="m20.972 21.489-5.824-7.385a.17.17 0 0 1 .087-.27l1.715-.42a.18.18 0 0 0 .071-.04.148.148 0 0 0 .028-.034.192.192 0 0 0 .025-.074.18.18 0 0 0 0-.08.167.167 0 0 0-.022-.04l-3.978-4.984a.232.232 0 0 1-.022-.037.17.17 0 0 1 .096-.229l1.345-.433a.167.167 0 0 0 .08-.256L9.559.077A.155.155 0 0 0 9.37.01L.1 4.029a.17.17 0 0 0-.03.29l5.168 3.673a.16.16 0 0 1 .068.151.14.14 0 0 1-.028.08.148.148 0 0 1-.028.035l-.04.025-1.215.531a.17.17 0 0 0-.09.096v.04a.182.182 0 0 0 .069.155l2.664 1.923 2.662 1.92a.17.17 0 0 1 0 .268.176.176 0 0 1-.04.025l-1.58.618a.17.17 0 0 0-.086.232.173.173 0 0 0 .065.068l13.116 7.574a.164.164 0 0 0 .198-.244zm-5.676-14.79a1.07 1.07 0 0 1 .136.928 1.045 1.045 0 0 1-.667.662l-.362.117 3.32 4.192a1.048 1.048 0 0 1-.566 1.673l-.618.154 4.483 5.68A11.68 11.68 0 0 0 12.319.627c-.414 0-.822.022-1.236.062zm-8.084 8.23a1.051 1.051 0 0 1 .14-1.883l.377-.145-4.27-3.091a1.051 1.051 0 0 1 .192-1.812l.062-.028-1.691-1.187a11.682 11.682 0 0 0 17.102 15.024Z"/></svg>