<svg role="img" viewBox="0 0 24 24" xmlns="http://www.w3.org/2000/svg"><title>Zapier</title><path d="M4.16 0h15.68A4.16 4.16 0 0 1 24 4.16v15.68A4.16 4.16 0 0 1 19.84 24H4.16A4.16 4.16 0 0 1 0 19.84V4.16A4.16 4.16 0 0 1 4.16 0Zm12.574 13.957c.305.171.651.256 1 .246a2.21 2.21 0 0 0 .836-.135c.201-.073.381-.196.521-.357a1.36 1.36 0 0 0 .281-.537l-.914-.256a.677.677 0 0 1-.714.455.78.78 0 0 1-.647-.266 1.179 1.179 0 0 1-.203-.642h2.497a1.982 1.982 0 0 0 0-.218v-.193a2.079 2.079 0 0 0-.184-.889 1.442 1.442 0 0 0-.555-.608 1.833 1.833 0 0 0-.937-.218 1.884 1.884 0 0 0-1.391.483c-.34.383-.514.885-.483 1.396-.008.359.07.715.227 1.038.145.297.377.541.666.701Zm.966-2.821c.483 0 .705.261.739.788h-1.545c.014-.188.079-.369.188-.522a.718.718 0 0 1 .638-.251l-.02-.015Zm-10.275.89a1.479 1.479 0 0 0-1.043.304 1.045 1.045 0 0 0-.318.792.96.96 0 0 0 .328.802c.248.187.554.281.865.266a1.086 1.086 0 0 0 .83-.348c.116-.129.208-.278.271-.439h.063l.111.709h.893v-2.274a1.495 1.495 0 0 0-.367-1.087 1.63 1.63 0 0 0-1.207-.387 2.278 2.278 0 0 0-.822.131 1.208 1.208 0 0 0-.531.377 1.26 1.26 0 0 0-.256.565l.99.14a.494.494 0 0 1 .193-.252.698.698 0 0 1 .377-.086.562.562 0 0 1 .44.154.704.704 0 0 1 .135.454v.179h-.952Zm.179 1.314a.582.582 0 0 1-.401-.111.407.407 0 0 1-.084-.434.375.375 0 0 1 .084-.127.453.453 0 0 1 .314-.101h.86v.14a.576.576 0 0 1-.212.454.845.845 0 0 1-.561.184v-.005Zm7.71-2.89h-1.058v3.662h1.058V10.45Zm-.517-.492a.578.578 0 0 0 .43-.169.61.61 0 0 0 .164-.435.608.608 0 0 0-.164-.43.593.593 0 0 0-.43-.164.602.602 0 0 0-.434.164.59.59 0 0 0-.17.43.576.576 0 0 0 .604.604Zm-3.671 3.439h.049c.03.081.067.158.111.232.109.2.278.361.483.459.179.091.378.138.58.135a1.144 1.144 0 0 0 1.009-.516c.263-.436.387-.942.357-1.449a2.453 2.453 0 0 0-.352-1.406 1.19 1.19 0 0 0-1.038-.483 1.113 1.113 0 0 0-.846.343 1.517 1.517 0 0 0-.328.56h-.058l-.116-.807h-.904v4.715h1.058l-.005-1.783Zm.773-2.096a.66.66 0 0 1 .325.054.66.66 0 0 1 .26.202c.133.212.197.46.183.71.016.26-.05.518-.188.739a.649.649 0 0 1-.58.266.67.67 0 0 1-.565-.256 1.107 1.107 0 0 1-.208-.71v-.068a1.027 1.027 0 0 1 .208-.695.703.703 0 0 1 .565-.242Zm-6.161 1.917H3.767l-.033-.111 1.97-1.758v-.899h-3.26v.899h1.845l.043.116L2.4 13.218v.898h3.381l-.043-.898Zm15.277-.98a.65.65 0 0 1 .196-.575.642.642 0 0 1 .586-.159h.401v-1.053h-.232a.857.857 0 0 0-.705.319 1.342 1.342 0 0 0-.232.483h-.053l-.116-.807h-.903v3.666h1.058v-1.874Z"/></svg>