<svg role="img" viewBox="0 0 24 24" xmlns="http://www.w3.org/2000/svg"><title>Zara</title><path d="M8.5618 7l.0024.0064 2.7943 7.621V7.3974H10.208v-.071h3.9596c1.9031 0 3.2317.9768 3.2317 2.376 0 1.0204-.91 1.8673-2.2637 2.1082l-.2485.0317.2504.0254c.8209.094 1.4727.3466 1.9347.7504l.003.003L19.1406 7h.0702l.0026.0064 3.5558 9.6978L24 16.7045v.0697h-3.9178v-.0697h1.1534l-1.1692-3.189h-2.3735v.0012l.0127.0371c.0948.2815.1419.5764.139.8733v1.1954c0 .615.2716 1.2382.7903 1.2382.3046 0 .5476-.1072.8371-.372l.0413.0384c-.3144.3318-.6951.4729-1.266.4729-.431 0-.7997-.1036-1.0964-.3078l-.0562-.0404c-.3905-.2953-.644-.7778-.753-1.4345l-.0175-.106-.0182-.1604-.0018-.0276-.6544 1.7803h.9286v.0699h-1.9428v-.0699h.9386l.7183-1.955v-.0042a6.3498 6.3498 0 01-.0136-.3466v-.8533c0-1.049-.78-1.6509-2.1402-1.6509h-1.3369v4.8106h1.1584v.0696H9.4329v-.0696h1.1536L9.4173 13.515h-3.245L5.014 16.6689l.0484-.008c1.521-.2622 2.2205-1.423 2.23-2.6454h.0705v2.7583H0l5.4655-9.3765H3.2676c-1.8214 0-2.6458 1.4067-2.6585 2.809H.5387v-2.879H7.173l-.0404.07-5.4241 9.3069H4.562c.071 0 .1415-.0035.2125-.0091l.0713-.006.0893-.0098L8.4915 7h.0703zm9.8831 2.0947l-1.3129 3.5764.007.0067.0668.0662c.1932.197.3468.4292.4526.684l.0069.0173H20.04l-1.595-4.3506zM7.7967 9.0945l-1.5985 4.351h3.1936l-1.595-4.351zm6.0262-1.6972h-1.0202v4.4263h1.336c1.3537 0 1.7668-.4923 1.7668-2.1063 0-1.5175-.7197-2.32-2.0826-2.32z"/></svg>