<svg role="img" viewBox="0 0 24 24" xmlns="http://www.w3.org/2000/svg"><title>ZBrush</title><path d="M8.332 15.771s-.403.074-.62.118c-.216.044-.716.187-1.051.274-.917.238-3.32 1.17-4.4 2.25-.353.352-.63.772-.836 1.273-.056.137-.17.455-.055.646.098.163.388.2.637.145.512-.113.973-.323 1.383-.55a16.852 16.852 0 0 0 3.944-3.079c.298-.321.679-.718.787-.839.108-.12.211-.238.211-.238zm10.901-8.705a3.465 3.465 0 0 0-.896.189 7.13 7.13 0 0 0-1.117.563c.805.245 1.732.384 2.46-.057.177-.107.336-.252.344-.425.01-.194-.492-.298-.79-.27zm-8.565-1.187c.65 0 1.33.106 1.963.274.693.185 1.344.429 1.89.647l1.813.721s.528-.364.729-.5c.487-.3.94-.603 1.542-.733.194-.042.556-.044.737-.012.711.127 1.143.436 1.204 1.04.081.81-.955 1.67-1.198 1.898-.218.205-1.262 1.19-2.547 1.294-.625.05-1.216-.155-1.641-.334-.142-.06-.511-.244-.511-.244s-.571.544-1.095 1.093c-.527.55-1.83 2.146-1.83 2.15 1.438-.103 3.091.355 4.14.76 2.465.952 4.844 2.628 6.45 4.894.552.779 1.078 1.638 1.477 2.56.11.253.325.79.133 1.02-.199.236-.657-.045-.915-.17-.47-.229-1.47-.993-2.193-1.573-.33-.265-.84-.723-.93-1.129-.056-.259.101-.598.156-.863.087-.426-.161-.754-.333-.967-.402-.503-1.093-.816-1.742-1.07-1.288-.507-2.192-.669-4.376-.945-2.185-.277-3.647-.103-3.809-.096l-.554.657c-.464.482-2.194 2.19-2.694 2.568-.894.678-1.894 1.335-2.952 1.845-2.037.982-3.336.827-3.484.665-.147-.163-.153-.625.157-1.26.313-.642 1.058-1.473 1.4-1.826.344-.352.98-.937 1.846-1.594 1.196-.908 3.015-1.821 3.92-2.266 1.261-.62 2.524-.917 2.84-1.004 1.735-2.384 3.573-3.897 3.573-3.897s-.737-.471-1.048-.679c-.677-.452-1.345-.936-2.126-1.277-.492-.214-1.304-.517-2.007-.34-.866.22-2.006.87-2.463 1.43-.152.187-.281.528-.332.818-.04.229.022.563-.04.727-.108.288-.578.543-.944.704-.497.218-1.008.442-1.575.586-.19.048-.528.138-.632-.002-.138-.188.077-.47.15-.598.298-.528.655-.971 1.03-1.42 1.147-1.368 2.396-2.388 4.149-3.085.44-.175 1.285-.47 2.672-.467m3.4-4.374c1.11-.063 1.907 1.134 2.242 1.938.19.458.35 1.204-.11 1.43-.359.177-.789.204-1.297.27-1.213.158-1.985-.132-2.424-.865-.125-.21-.257-.582-.18-.95a2.48 2.48 0 0 1 1.164-1.632c.106-.061.368-.178.606-.191"/></svg>