<svg role="img" viewbox="0 0 24 24" xmlns="http://www.w3.org/2000/svg"><title>Zenodo</title><path d="m 23.826976,11.163015 a 2.2419039,2.2419039 0 0 0 -0.46698,-0.68697 2.1499078,2.1499078 0 0 0 -1.523934,-0.6269727 2.1099095,2.1099095 0 0 0 -1.206948,0.3649827 2.2469036,2.2469036 0 0 0 -0.49498,0.453982 c -0.06,0.075 -0.124994,0.174992 -0.162993,0.23599 a 2.6868848,2.6868848 0 0 0 -0.204991,0.46398 c 0.006,-0.269989 0.046,-0.671971 0.204991,-0.897962 V 8.5221293 A 0.42698168,0.42698168 0 0 0 19.834147,8.2001431 0.44298099,0.44298099 0 0 0 19.517162,8.0681487 0.43998112,0.43998112 0 0 0 19.194175,8.2001431 0.43998112,0.43998112 0 0 0 19.06318,8.5221293 v 1.7329257 a 2.3698983,2.3698983 0 0 0 -0.590974,-0.2989873 2.1239089,2.1239089 0 0 0 -1.499936,0.059998 2.1599073,2.1599073 0 0 0 -1.152951,1.146951 l -0.024,0.06 A 2.2419039,2.2419039 0 0 0 15.30534,10.47605 2.1529076,2.1529076 0 0 0 13.781407,9.849077 a 2.1099095,2.1099095 0 0 0 -0.842965,0.166992 2.2299044,2.2299044 0 0 0 -0.686971,0.459981 2.1059096,2.1059096 0 0 0 -0.46598,0.68697 l -0.023,0.056 -0.023,-0.056 A 2.1549075,2.1549075 0 0 0 9.7495795,9.8490723 c -0.301987,0 -0.582975,0.055998 -0.8429638,0.1669927 a 2.2309043,2.2309043 0 0 0 -0.6859706,0.45998 c -0.1999914,0.195992 -0.3549848,0.423982 -0.4669801,0.68697 l -0.019999,0.053 -0.021999,-0.053 A 2.2429038,2.2429038 0 0 0 7.244687,10.476045 2.1479078,2.1479078 0 0 0 5.7217522,9.8490723 c -0.302987,0 -0.5839749,0.055998 -0.8419638,0.1669927 -0.2409897,0.102995 -0.4539805,0.243989 -0.6419724,0.417982 v -0.072 A 0.46298014,0.46298014 0 0 0 3.7758358,9.8990702 h -3.242861 a 0.46298014,0.46298014 0 0 0 0,0.9259598 H 3.0818655 L 0.09099376,14.849857 A 0.46198019,0.46198019 0 0 0 -2.34066e-6,15.124846 v 0.301987 c 0,0.255989 0.20699112066,0.46298 0.46298014066,0.46298 h 3.450852 c 0.2439896,0 0.443981,-0.188992 0.4609803,-0.428982 0.1529934,0.121995 0.3229861,0.223991 0.509978,0.302988 0.2629888,0.112994 0.5399769,0.167992 0.8369641,0.167992 0.445981,0 0.8439639,-0.119995 1.1949489,-0.358985 0.2829877,-0.192991 0.5069782,-0.431981 0.6699711,-0.719969 v 0.624973 c 0,0.126995 0.042998,0.23499 0.1309945,0.321988 a 0.4359813,0.4359813 0 0 0 0.322986,0.131993 c 0.119995,0 0.2239904,-0.044 0.3159865,-0.131993 A 0.42698168,0.42698168 0 0 0 8.4946334,15.47783 V 13.8579 h -0.002 l 0.002,-0.003 H 7.3606819 a 0.43998112,0.43998112 0 0 0 -0.4179821,0.286976 l -0.073997,0.151993 C 6.7657069,14.51786 6.6117134,14.694852 6.4087221,14.825846 a 1.2339471,1.2339471 0 0 1 -0.6869705,0.196992 c -0.1679927,0 -0.3289858,-0.031 -0.4849792,-0.095 A 1.1749496,1.1749496 0 0 1 4.8367902,14.658866 1.3819407,1.3819407 0 0 1 4.5678017,14.258883 1.1649501,1.1649501 0 0 1 4.4668061,13.780903 V 13.374921 H 8.4946334 V 11.99998 a 1.2369469,1.2369469 0 0 1 0.3649843,-0.877963 1.2399468,1.2399468 0 0 1 0.8899618,-0.364984 c 0.1669928,0 0.3289865,0.032 0.4839795,0.095 0.154993,0.065 0.288988,0.153993 0.399983,0.269988 0.111995,0.114995 0.199991,0.24899 0.268988,0.399983 0.067,0.150994 0.101996,0.310987 0.101996,0.47798 v 3.476851 c 0,0.127994 0.043,0.235989 0.129994,0.322986 a 0.43798121,0.43798121 0 0 0 0.323986,0.13199 c 0.119995,0 0.224991,-0.044 0.316988,-0.131994 a 0.43098152,0.43098152 0 0 0 0.136993,-0.322986 v -0.62297 a 2.1439081,2.1439081 0 0 0 1.86792,1.077954 c 0.293987,0 0.573975,-0.056 0.836964,-0.167993 0.261989,-0.110995 0.492979,-0.263988 0.69297,-0.45998 a 2.1119094,2.1119094 0 0 0 0.483979,-0.732969 l 0.018,0.047 c 0.110995,0.261989 0.266988,0.490979 0.46598,0.686971 0.199992,0.194992 0.427982,0.347985 0.686971,0.45998 0.257989,0.110995 0.539977,0.166992 0.842963,0.166992 a 2.1469079,2.1469079 0 0 0 1.522936,-0.626972 c 0.19499,-0.195992 0.350984,-0.424982 0.466979,-0.686971 l 0.024,-0.06 0.024,0.06 c 0.114995,0.261989 0.269988,0.490979 0.46598,0.686971 a 2.1439081,2.1439081 0 0 0 1.523933,0.626971 c 0.293988,0 0.573975,-0.056 0.836963,-0.167993 a 2.2199048,2.2199048 0 0 0 0.692976,-0.459988 2.1169093,2.1169093 0 0 0 0.633972,-1.521935 v -1.781923 a 2.0799108,2.0799108 0 0 0 -0.172992,-0.836965 z m -22.668028,3.801837 2.4198963,-3.25886 c -0.011999,0.096 -0.019999,0.193992 -0.019999,0.293988 v 1.779923 c 0,0.295988 0.057997,0.573976 0.1739925,0.837964 0.053998,0.122995 0.117995,0.238991 0.1899919,0.346985 z M 6.9766985,12.46496 H 4.4668061 v -0.46498 a 1.2419467,1.2419467 0 0 1 0.7649672,-1.146951 c 0.1519935,-0.064 0.3149864,-0.096 0.4899789,-0.096 0.1679928,0 0.329986,0.032 0.4839793,0.095 0.1559934,0.065 0.2899875,0.153993 0.3999828,0.269988 0.1119953,0.114995 0.2009915,0.24899 0.2699885,0.399983 0.067997,0.150994 0.099996,0.310987 0.099996,0.47798 z m 8.0586545,1.315943 a 1.2489464,1.2489464 0 0 1 -1.253945,1.242947 c -0.167993,0 -0.328987,-0.032 -0.48498,-0.096 a 1.16795,1.16795 0 0 1 -0.399983,-0.268988 1.375941,1.375941 0 0 1 -0.268989,-0.399983 1.1589503,1.1589503 0 0 1 -0.09999,-0.47798 v -1.780923 a 1.2399468,1.2399468 0 0 1 1.254946,-1.242947 c 0.165993,0 0.327986,0.032 0.481979,0.095 0.155993,0.065 0.289988,0.153993 0.399984,0.269988 0.111994,0.114995 0.20099,0.24899 0.269988,0.399983 0.067,0.151994 0.100995,0.310987 0.100995,0.47798 z m 4.027827,0 c 0,0.166993 -0.033,0.325986 -0.100996,0.47798 a 1.3799409,1.3799409 0 0 1 -0.269988,0.399983 1.1599502,1.1599502 0 0 1 -0.399982,0.269988 1.2599459,1.2599459 0 0 1 -0.48298,0.094 1.2319471,1.2319471 0 0 1 -0.889962,-0.363984 1.2419467,1.2419467 0 0 1 -0.365984,-0.877963 v -1.780921 c 0,-0.166993 0.035,-0.325986 0.101995,-0.47798 a 1.3999399,1.3999399 0 0 1 0.269989,-0.399983 c 0.109995,-0.115995 0.24399,-0.204991 0.398983,-0.269988 a 1.2699455,1.2699455 0 0 1 0.484979,-0.095 1.2499464,1.2499464 0 0 1 0.889962,0.364984 1.2499464,1.2499464 0 0 1 0.363984,0.877963 z m 4.027828,0 a 1.2239475,1.2239475 0 0 1 -0.363985,0.877963 c -0.115994,0.115995 -0.249989,0.204991 -0.399983,0.269988 a 1.2499464,1.2499464 0 0 1 -0.489979,0.094 1.2699455,1.2699455 0 0 1 -0.484979,-0.095 1.1689498,1.1689498 0 0 1 -0.399983,-0.268988 1.3799409,1.3799409 0 0 1 -0.269988,-0.399983 1.1569504,1.1569504 0 0 1 -0.1,-0.47798 V 11.99998 a 1.2399468,1.2399468 0 0 1 1.254946,-1.242947 c 0.166994,0 0.327986,0.032 0.482979,0.095 0.155994,0.065 0.289988,0.153993 0.399983,0.269988 0.111995,0.114995 0.200992,0.24899 0.269989,0.399983 0.067,0.151994 0.09999,0.310987 0.09999,0.47798 v 1.779923 z"/></svg>
