<svg role="img" viewBox="0 0 24 24" xmlns="http://www.w3.org/2000/svg"><title>Zephyr</title><path d="M22.585 19.042a1.258 1.258 0 1 1 1.258-1.258 1.26 1.26 0 0 1-1.258 1.258m0-2.356a1.099 1.099 0 1 0 1.099 1.098 1.1 1.1 0 0 0-1.099-1.098m-.042 1.263h-.18v.414h-.247v-1.158h.542a.36.36 0 0 1 .389.374.33.33 0 0 1-.254.343l.26.441h-.282zm.079-.532h-.26v.32h.26a.16.16 0 1 0 0-.32M0 13.883l2.86-.375-.394 2.837zm5.727 3.683 1.547-2.296 1.998 1.875zm-2.505 1.343 2.505-1.343-3.261-1.221zm8.65-.45.458-2.605-3.058 1.291zm8.508-10.01L24 13.244V4.957zm0 0-4.61-3.493H24zm0 0-8.05 7.405 3.44-10.897zM24 13.244l-11.67 2.61 8.05-7.406z"/></svg>