<svg xmlns="http://www.w3.org/2000/svg" width="500" height="500"><path d="M412.0078 388.0938c-12.8164-21.9844-63.543-109.793-63.543-109.793-4.543-7.8828-5.0351-17.4688-1.3164-25.7774l19.7813-54.9297s10.75-26.1875-2.539-47.6914c-11.3712-18.3984-27.7071-25.6367-44.9376-25.6367h-46.5195c-1.7149-21.5703-19.8477-38.5976-42.043-38.5976-22.121 0-40.25 17.0234-42.043 38.5937h-3.4453c-1.5312 0-3.0312.1367-4.6171.4258-15.3672 1.3164-29.707 8.754-39.9727 25.4336-13.3047 21.5703-2.543 47.6953-2.543 47.6953l19.7813 54.9297c3.7226 8.3398 3.2422 17.918-1.3125 25.7773 0 0-50.7266 87.8008-63.5469 109.7891-28.8789 49.621 6.8906 111.8594 64.3008 111.8594H276.246v-.211h71.4687c57.4141 0 93.1797-62.3007 64.3047-111.8554Zm-197.664-107.6563c4.2734-7.375 4.3398-15.9883 1.1015-23.1562l.0625-.1329-24.3242-55.2734c-4.4102-12.8203 5.1016-26.6758 19.2305-26.6758l84.3554-.207c14.1328 0 23.6446 13.8516 19.2344 26.668l-.0664.3398-24.2617 55.1406.0664.1328c-3.2383 7.168-3.168 15.7813 1.1015 23.1563l55.8946 109.8594 2.3555 4.6171c-9.9922 2.754-22.2579 4.6875-37.0782 4.6875-38.9414 0-57.8945-25.7109-94.4219-25.7109-16.3359 0-37.6992 5.168-56.375 10.961Zm68.371-265.9648c0 7.957-6.4492 14.4062-14.4062 14.4062-7.957-.0039-14.4063-6.4531-14.4063-14.4062.004-7.957 6.4532-14.4063 14.4063-14.4063 7.957.004 14.4062 6.4531 14.4062 14.4063m40.043 51.418c0 13.625-11.0508 24.6718-24.6758 24.6718-13.6289 0-24.6718-11.0469-24.6718-24.6719 0-13.6289 11.0468-24.6758 24.6718-24.6758 13.629 0 24.6758 11.047 24.6758 24.6758" style="stroke:none;fill-rule:nonzero;fill:#000;fill-opacity:1"/></svg>