<svg xmlns="http://www.w3.org/2000/svg" width="24" height="24"><path d="M19.731 18.726c-.604-1.036-2.995-5.175-2.995-5.175a1.338 1.338 0 0 1-.062-1.215l.932-2.589s.507-1.234-.12-2.248c-.535-.867-1.305-1.208-2.117-1.208h-2.193a1.983 1.983 0 0 0-1.981-1.82 1.988 1.988 0 0 0-1.982 1.82h-.162c-.072 0-.143.006-.218.02-.724.062-1.4.412-1.884 1.199-.627 1.016-.12 2.248-.12 2.248l.933 2.588c.175.394.152.845-.062 1.215 0 0-2.391 4.139-2.995 5.175-1.362 2.339.324 5.272 3.03 5.272h5.597v-.01h3.369c2.706 0 4.392-2.936 3.03-5.272zm-9.316-5.074c.201-.348.204-.754.052-1.092l.003-.006-1.147-2.605a.953.953 0 0 1 .907-1.257l3.976-.01a.953.953 0 0 1 .906 1.257l-.003.016-1.144 2.599.003.006c-.152.338-.149.744.052 1.091l2.635 5.178.11.218c-.47.13-1.048.22-1.747.22-1.835 0-2.728-1.211-4.45-1.211-.77 0-1.777.244-2.657.517zm3.222-12.536a.679.679 0 0 1-.679.679.679.679 0 0 1-.679-.679.679.679 0 0 1 .68-.679.679.679 0 0 1 .678.68Zm1.888 2.423a1.163 1.163 0 0 1-1.163 1.163 1.163 1.163 0 0 1-1.163-1.163 1.163 1.163 0 0 1 1.163-1.163 1.163 1.163 0 0 1 1.163 1.163Z" style="fill-opacity:1;stroke-width:.324841" transform="matrix(1.01841 0 0 1.01841 -.318 -.442)"/></svg>