<svg role="img" viewBox="0 0 24 24" xmlns="http://www.w3.org/2000/svg"><title>ZeroTier</title><path d="M4.01 0A3.998 3.998 0 0 0 .013 4v16c0 2.209 1.789 4 3.995 4h15.982a3.997 3.997 0 0 0 3.995-4V4c0-2.209-1.788-4-3.995-4Zm-.672 2.834h17.325a.569.569 0 1 1 0 1.137h-8.127c.021.06.033.123.033.19v1.803A6.06 6.06 0 0 1 18.058 12c0 3.157-2.41 5.75-5.489 6.037v2.56a.569.569 0 1 1-1.137 0v-2.56A6.061 6.061 0 0 1 5.944 12c0-3.156 2.41-5.75 5.488-6.036V4.16c0-.067.012-.13.033-.19H3.338a.568.568 0 1 1 0-1.137zm9.23 4.307v9.718A4.89 4.89 0 0 0 16.889 12a4.891 4.891 0 0 0-4.32-4.86zm-1.136 0a4.89 4.89 0 0 0-4.32 4.86 4.891 4.891 0 0 0 4.32 4.859z"/></svg>