<svg role="img" viewBox="0 0 24 24" xmlns="http://www.w3.org/2000/svg"><title>Zig</title><path d="M4.392 7.92L2.986 5.725 7.219 4.47 4.396 7.92z"/><path d="M4.392 7.92c-.303.099-1.04-.241-.941.261v7.737h1.413c-.574.295-1.236.499-1.753.847l-1.229 2.607H0V4.466h7.219c-.68.6-1.429 1.153-2.071 1.784l-.756 1.663z" shape-rendering="crispEdges"/><path d="M1.882 19.369l-1.255-1.72 4.233-1.727a887.909 887.909 0 01-2.978 3.45zM9.725 6.666L5.805 7.92l2.979-3.45.945 2.192z"/><path d="M17.412 7.92H5.805l2.979-1.882V4.47h8.628z" shape-rendering="crispEdges"/><path d="M15.216 19.369L14.12 17.33l4.075-1.413a887.909 887.909 0 01-2.979 3.45z"/><path d="M15.216 19.369H6.588v-3.451h11.607l-2.51 1.413-.469 2.041z" shape-rendering="crispEdges"/><path d="M.472 22.978L15.844 4.47l7.684-3.451-15.372 18.35z"/><g><path d="M21.96 7.293l-2.824.782 2.982-3.605z"/><path d="M16.63 19.369c.733-.65 1.523-1.259 2.222-1.94l.756-1.511c.303-.095 1.04.242.941-.257V8.075h-1.413c.68-.676 1.546-1.194 1.992-2.067l.99-1.538H24v14.899z" shape-rendering="crispEdges"/><path d="M20.39 18.273l-3.764 1.096 2.982-3.451z"/></g></svg>
