<svg role="img" viewBox="0 0 24 24" xmlns="http://www.w3.org/2000/svg"><title>Zig</title><path d="M2.98 5.725L7.216 4.47 4.392 7.921z"/><path shape-rendering="crispEdges" d="M4.863 15.921l-1.726.784-1.255 2.667H0V4.47h7.216l-2.04 1.726-.784 1.725h-.941v8z"/><path d="M.627 17.647l4.236-1.726-2.98 3.451z"/><g><path d="M5.804 7.921l2.98-3.451.941 2.196z"/><path shape-rendering="crispEdges" d="M8.784 4.47h8.628v3.451H5.804l2.98-1.882z"/><path d="M14.118 17.333l4.078-1.412-2.98 3.451z"/><path shape-rendering="crispEdges" d="M18.196 15.921l-2.51 1.412-.47 2.04H6.588V15.92z"/><path d="M8.157 19.372L.47 22.98 15.843 4.47l7.686-3.451z"/></g><g><path d="M19.137 8.078l2.98-3.608-.156 2.824z"/><path shape-rendering="crispEdges" d="M20.549 15.921V8.078h-1.412l1.569-1.412 1.412-2.196H24v14.902h-7.373l2.197-1.882.784-1.569z"/><path d="M16.627 19.372l2.98-3.45.785 2.352z"/></g></svg>