<svg role="img" xmlns="http://www.w3.org/2000/svg" viewBox="0 0 24 24"><title>Zigbee icon</title><path d="M11.1953.0124c-.7424.0743-1.0563.1204-1.5058.207-1.8643.359-3.67 1.1966-5.1465 2.3808-.462.3713-1.1754 1.022-1.1465 1.0468.0082.0124.3588-.0149.7754-.0644 3.3944-.3879 6.7006-.5537 9.332-.4629 1.3404.0495 2.4829.1312 3.1758.2344 1.1177.1609 2.0378.5696 2.6523 1.168.5362.528.8468 1.1766.9375 1.9647l.0235.248-3.4727 3.5683c-1.9096 1.964-3.781 3.8877-4.1562 4.2714-.7754.7963-3.4576 3.5479-4.0391 4.1503l-.3828.3964.3418.0235c2.3633.1815 5.7739.1366 8.7558-.1192 1.6828-.1403 4.5254-.4743 4.711-.5527.0495-.0206.1853-.1986.3008-.3926 1.5342-2.6035 2.0212-5.7173 1.3613-8.7458-.1114-.5075-.4003-1.4072-.623-1.9394-1.0972-2.6448-3.1048-4.8076-5.666-6.1073C16.1947.6647 14.9647.2844 13.5624.0905c-.4496-.0619-2.0207-.1153-2.3672-.0781zm.5899 4.3163c-1.0023.004-1.9382.0132-2.0743.0215-2.3798.1114-4.3316.2806-6.4433.5488-.528.0701-.9772.123-1.002.123-.0247 0-.16.1813-.3086.4082-3.1057 4.7903-2.4629 11.0214 1.5625 15.0484 3.312 3.3132 8.1661 4.3895 12.5957 2.7968 1.1136-.4002 2.4707-1.1676 3.4317-1.9433.4-.3177 1.2202-1.1061 1.414-1.3496l.129-.1601-.1407.0234c-.3093.0537-1.9721.2408-3.0527.3399-3.844.3465-7.5312.3751-10.2285.078-1.5797-.1732-2.6518-.6777-3.3282-1.5565-.3505-.4539-.6308-1.216-.6308-1.707 0-.194.0083-.207.4043-.6113.2186-.227.7709-.7916 1.2246-1.2578.4537-.4662 1.1876-1.218 1.6289-1.6718.4413-.4539 1.4562-1.4936 2.248-2.3105.796-.817 2.157-2.2198 3.0313-3.1152.8744-.8953 2.0135-2.0672 2.5332-2.5995l.9453-.9687-.2441-.0293c-.6764-.0743-2.0497-.1157-3.6953-.1074Z"/></svg>
