<svg role="img" xmlns="http://www.w3.org/2000/svg" viewBox="0 0 24 24"><title>Zigbee icon</title><path d="M11.988 0A11.93 11.93 0 003.33 3.696c7.052-.875 11.454-.583 13.35-.34 3.77.583 3.575 3.404 3.575 3.404L8.219 19.112c2.31.22 6.93.366 13.86-.631A11.821 11.821 0 0024 12.012C24 5.374 18.626 0 11.988 0zm.233 4.31c-2.462-.014-5.799.146-10.008.723C.803 7.003 0 9.41 0 12.012 0 18.626 5.35 24 11.988 24c3.647 0 6.882-1.63 9.094-4.182-7.319.948-11.867.631-13.812.388-3.793-.56-3.574-3.404-3.574-3.404L15.708 4.474a38.99 38.99 0 00-3.487-.163Z"/></svg>
