<svg role="img" viewBox="0 0 24 24" xmlns="http://www.w3.org/2000/svg"><title>Zigbee2MQTT</title><path d="M7.045 0 .037 7.0293v9.9414L7.045 24h9.9102l7.0078-7.0293V7.0293L16.955 0Zm.0898.3574h9.6445l6.8184 6.8184v9.6445l-6.8184 6.8184H7.1348L.3164 16.8203V7.1758Zm3.5957 1.5156a.053.053 0 0 0-.0528.0508.0503.0503 0 0 0 .0489.0528l.8066.0293.2773.9668c-.3547.1643-.6036.5456-.6035.9882 0 .1554.0328.3023.088.4356-.0195.0144-.039.029-.0528.045 0 0-.0956.1454-.1797.3495-1.5957.4648-5.7732 1.0497-5.3066 2.338.5175 1.4273 3.3404.9903 3.8125.6034.657-.5386 1.2119-1.043 1.5546-1.4433.0294.0672.061.1288.0918.1836.6015.1078 1.3489.1065 1.9668-.0332a2.5506 2.5506 0 0 0 .0664-.1485c.3445.3952.887.889 1.5274 1.414.472.387 3.2952.8236 3.8125-.6034.4602-1.2705-3.5947-1.8585-5.2363-2.3204-.0855-.1943-.1856-.3398-.1856-.3398a.386.386 0 0 0-.0508-.045 1.1322 1.1322 0 0 0 .086-.4355c0-.4427-.2487-.824-.6035-.9882l.2773-.9668.8066-.0293a.0507.0507 0 0 0 .0489-.0528.053.053 0 0 0-.0528-.0508l-.8398.0313a.0498.0498 0 0 0-.045.0312l-.4667.959a.9444.9444 0 0 0-.2422 0l-.4688-.959a.0505.0505 0 0 0-.0449-.0312Zm2.4668 4.9512c-.8841.1847-1.7048.081-2.0098.0293-.074.1582-.1487.3486-.2168.5586.7066.2013 1.7271.2415 2.4707.0352a4.7779 4.7779 0 0 0-.2441-.623zm-2.3203.9102a4.1228 4.1228 0 0 0-.1036.6308c.7586.2775 2.0491.3414 2.8692.041a4.1174 4.1174 0 0 0-.0977-.6367c-.8495.2335-1.9327.1738-2.668-.0351zm-.1036 1.0566c.0072.2278.0404.4545.1075.6738.7795.2708 1.9811.2908 2.6562.0547.0739-.222.1106-.4535.1211-.6855-.8457.2648-2.068.2194-2.8848-.043zm.2618 1.1367c.157.2717.3848.52.705.7227.2543.1922.6332.1912.8848 0 .3004-.1898.5199-.42.6758-.6719-.6876.15-1.5542.1278-2.2656-.0508zm-.3497 2.1387c-.1141 0-.164.05-.164.164v3.7794c0 .1141.05.164.164.164h.6622c.1141 0 .164-.05.164-.164v-3.7793c0-.1142-.05-.164-.164-.164zm2.6114 0c-.1204 0-.166.054-.166.164v3.7794c0 .11.0457.164.166.164h.6601c.1204 0 .166-.054.166-.164v-3.7793c0-.11-.0456-.164-.166-.164zm-1.957 6.039c-.5204 0-1.063.0866-1.209.4923-.0366.1016-.0547.2152-.0547.3398v1.3496c0 .2032.0543.3753.164.5176.1098.1422.3205.2371.6348.2832v.2226c0 .126.0683.1465.1465.1465h.627c.0781 0 .1464-.0205.1464-.1465v-.2226c.3499-.0474.6764-.1842.7676-.5137a1.0745 1.0745 0 0 0 .0371-.287v-1.3497c0-.4438-.188-.832-1.2598-.832zm-4.5235.0606c-.1011 0-.1465.0453-.1465.1465v2.6328c0 .101.0452.1465.1465.1465h.6055c.1011 0 .1465-.0453.1465-.1465v-1.4297l.2382.4414c.0432.0816.1048.1309.2168.1309h.1621c.1274 0 .1793-.0636.2149-.1309l.2402-.4414v1.4297c0 .101.0452.1465.1465.1465h.625c.126 0 .1465-.0683.1465-.1465v-2.6328c0-.078-.0205-.1465-.1465-.1465H8.754c-.0862 0-.1348.031-.1855.1211l-.3633.6621c-.0136.0244-.0237.042-.0332.0528-.0177.027-.0515.0118-.0762.0175-.0328 0-.0459-.0227-.0723-.0703l-.3672-.662c-.0507-.0903-.0993-.1212-.1855-.1212zm6.2578 0c-.101 0-.1465.0452-.1465.1465v.4922c0 .1225.0669.1445.1465.1445h.5977v1.9961c0 .101.0452.1465.1465.1465h.6582c.101 0 .1464-.0452.1464-.1465v-1.996h.5977c.0795 0 .1465-.022.1465-.1446v-.4922c0-.1011-.0453-.1465-.1465-.1465zm2.666 0c-.101 0-.1465.0452-.1465.1465v.4922c0 .1224.0669.1445.1465.1445h.5977v1.9961c0 .101.0453.1465.1465.1465h.6582c.1011 0 .1465-.0454.1465-.1465v-1.996h.5976c.0796 0 .1465-.022.1465-.1446v-.4922c0-.1011-.0453-.1465-.1465-.1465zm-4.4004.7344c.1463 0 .2387.02.2793.0566.0407.0366.0606.0794.0606.1309v1.1094c0 .1872-.2042.1914-.3399.1914-.1416 0-.3418-.0058-.3418-.1914v-1.1094c0-.1864.2292-.1875.3418-.1875z"/></svg>