<svg role="img" viewBox="0 0 24 24" xmlns="http://www.w3.org/2000/svg"><title>Zigbee2MQTT</title><path d="M7.045 0 .037 7.03v9.94L7.045 24h9.91l7.008-7.03V7.03L16.955 0Zm3.685 1.873.84.031a.05.05 0 0 1 .045.032l.469.959a.944.944 0 0 1 .242 0l.467-.96a.05.05 0 0 1 .045-.03l.84-.032a.053.053 0 0 1 .052.05.05.05 0 0 1-.048.054l-.807.029-.277.967c.354.164.603.545.603.988a1.132 1.132 0 0 1-.086.435.386.386 0 0 1 .051.045s.1.146.186.34c1.641.462 5.696 1.05 5.236 2.32-.517 1.428-3.34.991-3.813.604-.64-.525-1.182-1.019-1.527-1.414a2.55 2.55 0 0 1-.066.148 5.264 5.264 0 0 1-1.967.034 2.064 2.064 0 0 1-.092-.184c-.343.4-.898.905-1.555 1.443-.472.387-3.295.824-3.812-.603-.467-1.288 3.71-1.873 5.306-2.338.085-.204.18-.35.18-.35a.326.326 0 0 1 .053-.045 1.136 1.136 0 0 1-.088-.435c0-.443.249-.824.604-.988l-.278-.967-.806-.03a.05.05 0 0 1-.05-.052.053.053 0 0 1 .053-.051zm2.467 4.951a4.778 4.778 0 0 1 .244.623c-.743.207-1.764.166-2.47-.035.068-.21.142-.4.216-.558a5.676 5.676 0 0 0 2.01-.03zm-2.32.91c.735.21 1.818.269 2.668.036a4.117 4.117 0 0 1 .098.636c-.82.3-2.111.237-2.87-.04a4.123 4.123 0 0 1 .104-.632Zm-.104 1.057c.817.262 2.04.308 2.885.043a2.53 2.53 0 0 1-.12.686c-.676.236-1.878.216-2.657-.055-.067-.22-.1-.446-.108-.674zm.262 1.137c.712.178 1.578.2 2.266.05a2.097 2.097 0 0 1-.676.672.752.752 0 0 1-.885 0 2.086 2.086 0 0 1-.705-.722zm-.35 2.138h.663c.114 0 .164.05.164.164v3.78c0 .114-.05.164-.164.164h-.662c-.114 0-.165-.05-.165-.164v-3.78c0-.114.05-.164.165-.164zm2.612 0h.66c.12 0 .166.054.166.164v3.78c0 .11-.046.164-.166.164h-.66c-.12 0-.166-.054-.166-.164v-3.78c0-.11.045-.164.166-.164zm-1.957 6.04c1.072 0 1.26.388 1.26.831v1.35a1.075 1.075 0 0 1-.038.287c-.09.33-.417.466-.767.514v.223c0 .126-.068.146-.147.146h-.627c-.078 0-.146-.02-.146-.146v-.223c-.314-.046-.525-.141-.635-.283a.821.821 0 0 1-.164-.518v-1.35c0-.124.018-.238.055-.34.146-.405.688-.492 1.209-.492zm-4.524.06h.655c.086 0 .135.03.185.121l.367.662c.027.048.04.07.073.07.024-.005.058.01.076-.017.01-.01.02-.028.033-.053l.363-.662c.051-.09.1-.121.186-.121h.658c.126 0 .147.068.147.147v2.632c0 .079-.02.147-.147.147h-.625c-.101 0-.146-.046-.146-.147v-1.43l-.24.442c-.036.067-.088.13-.215.13h-.163a.222.222 0 0 1-.216-.13l-.239-.441v1.43c0 .1-.045.146-.146.146h-.606c-.1 0-.146-.046-.146-.147v-2.633c0-.1.045-.146.146-.146zm6.258 0h2.147c.1 0 .146.045.146.147v.492c0 .122-.067.144-.146.144h-.598v1.996c0 .102-.045.147-.146.147h-.659c-.1 0-.146-.046-.146-.147V18.95h-.598c-.08 0-.146-.022-.146-.144v-.492c0-.102.045-.147.146-.147zm2.666 0h2.147c.1 0 .146.045.146.147v.492c0 .122-.067.144-.146.144h-.598v1.996c0 .101-.045.147-.146.147h-.659c-.1 0-.146-.046-.146-.147V18.95h-.598c-.08 0-.146-.022-.146-.144v-.492c0-.102.045-.147.146-.147zm-4.447.734c-.12.003-.295.025-.295.188v1.11c0 .185.2.19.342.19.136 0 .34-.004.34-.19v-1.11a.168.168 0 0 0-.06-.131c-.041-.037-.134-.057-.28-.057h-.047z"/></svg>