<svg role="img" viewBox="0 0 24 24" xmlns="http://www.w3.org/2000/svg"><title>Zingat</title><path d="M11.674.004c-.594.017-1.19.1-1.768.244a8.673 8.673 0 0 0-4.822 3.059A8.231 8.231 0 0 0 3.238 7.87a6.156 6.156 0 0 0 .157 2.168c.257.946.606 1.864 1.046 2.746a39.008 39.008 0 0 0 2.498 4.336 79.681 79.681 0 0 0 4.364 6.025l.69.855.064-.064c.45-.58.918-1.14 1.359-1.727.78-1.047 1.56-2.112 2.332-3.168a.977.977 0 0 0 .193-.846.966.966 0 0 0-1.175-.707c-.303.074-.496.285-.67.524-.542.753-1.094 1.506-1.645 2.26l-.451.587-.035-.037a65.48 65.48 0 0 1-4.373-6.355c-.763-1.277-1.47-2.583-2.002-3.979a9.966 9.966 0 0 1-.33-1.01c-.11-.44-.102-.891-.074-1.341a5.03 5.03 0 0 1 .33-1.643c.238-.606.505-1.204.9-1.719a6.794 6.794 0 0 1 2.637-2.168c.78-.367 1.588-.625 2.46-.625.45 0 .902.002 1.352.03.322.018.642.072.946.164 1.488.45 2.736 1.258 3.691 2.498.395.523.707 1.093.928 1.709.11.285.204.58.277.883.037.23.073.45.082.68.046.495.063.991-.047 1.478a8.697 8.697 0 0 1-.303.945c-.134.36-.284.714-.441 1.065V9.79a.826.826 0 0 0-.184-.56 2.389 2.389 0 0 0-.394-.35l-4.85-3.692a.964.964 0 0 0-1.166.008c-.211.166-.423.323-.634.489l-1.268.972c0-.321 0-.624-.018-.918 0-.092-.018-.183-.037-.265a.976.976 0 0 0-.965-.737.975.975 0 0 0-.962.992v2.325c.009.064-.02.12-.075.156-.193.147-.377.285-.56.432a.979.979 0 0 0 .146 1.652.93.93 0 0 0 1.057-.1 1379.47 1379.47 0 0 0 3.82-2.922l.01-.007c.046-.037.11-.038.146.007a487.75 487.75 0 0 1 2.27 1.737c.514.395 1.037.8 1.56 1.185a.28.28 0 0 1 .14.276v4.83a.994.994 0 0 0 .992 1.02.97.97 0 0 0 .888-.58c.015-.025.034-.046.049-.071.312-.542.632-1.076.935-1.627.597-1.084 1.13-2.195 1.516-3.371.211-.597.35-1.222.377-1.856a8.064 8.064 0 0 0-.34-2.562 8.475 8.475 0 0 0-2.94-4.334C15.979.707 14.216.08 12.269.008a7.95 7.95 0 0 0-.594-.004zm.346 10.117-.791.01h-.055c-.56.018-1.01.486-.992 1.047v1.607c.009.56.478 1.011 1.039 1.002h1.607c.56-.01 1.02-.469 1.02-1.03v-1.616c0-.56-.46-1.02-1.02-1.02h-.808zm-.772.955h1.533c.074 0 .102.028.102.102v.781c0 .248-.01.496 0 .744 0 .083-.027.12-.11.12h-1.525c-.083 0-.111-.03-.111-.112v-1.524c0-.073.028-.11.111-.11z"/></svg>