<svg role="img" viewBox="0 0 24 24" xmlns="http://www.w3.org/2000/svg"><title>Zip Pay</title><path d="M8.09 8.78H.75L.54 7.07l3.16-2.2-.03-.24H.24L0 2.68h7.34l.21 1.71-3.15 2.2.03.24h3.42l.24 1.95Zm7.44-6.1H8.19l.75 6.11h7.34l-.75-6.11Zm5.97 4.88h-2.32l.15 1.22h-2.2l-.75-6.11h4.88c1.47 0 2.54.83 2.71 2.2.19 1.55-.65 2.69-2.48 2.69Zm.46-2.44c-.04-.42-.32-.73-.87-.73h-2.31l.18 1.47h2.3c.6 0 .73-.46.7-.73ZM10.28.34C9.81-.1 9.12-.12 8.73.29c-.39.41-.32 1.11.14 1.55.47.44 1.17.46 1.55.05.39-.42.32-1.11-.14-1.55Z"/></svg>
