<svg role="img" viewBox="0 0 24 24" xmlns="http://www.w3.org/2000/svg"><title>AnyDesk icon</title><path d="M.592 0A.592.592 0 0 0 0 .592v22.816c0 .327.265.592.592.592h22.816a.592.592 0 0 0 .592-.592V.592A.592.592 0 0 0 23.408 0zm18.085 9.764l-.14 1.037h.759c-.026.107-.115.696-.14.876h-.74l-.166 1.224c-.045.315-.019.429.198.429.16 0 .395-.094.542-.168l-.128.79c-.197.107-.567.26-.994.26-.727 0-.874-.387-.76-1.21l.185-1.325h-.357l.101-.857.39-.02.147-.621zm-3.247.879c.672.008 1.126.293 1.193.839.021.171.023.353.002.518a31.735 31.735 0 0 0-.217 1.798c-.005.062-.005.169.001.32h-1.09c.022-.063.043-.148.062-.255.012-.07.02-.159.026-.266a1.33 1.33 0 0 1-.943.552c-.566.07-.94-.155-1.052-.667-.07-.321.028-.688.198-.907.229-.286.602-.47 1.056-.525.366-.045.674-.023.962.032l.012-.05c.008-.079.016-.158.005-.253-.03-.242-.221-.386-.693-.328a2.418 2.418 0 0 0-.858.285l-.228-.692a3.15 3.15 0 0 1 1.181-.379 2.937 2.937 0 0 1 .383-.022zm5.665.055c.956 0 1.428.644 1.428 1.478 0 1.125-.795 2.06-1.848 2.06-.943 0-1.428-.644-1.428-1.484 0-1.118.801-2.054 1.848-2.054zm-10.327.036c.625 0 .67.501.593 1.037.351-.65.848-1.037 1.307-1.037.632 0 .676.515.593 1.084l-.384 2.287h-1.094l.286-2.007c.026-.201.032-.348-.127-.348-.275 0-.632.528-.715.977l-.102.689c-.031.24-.07.515-.076.69H9.85c.064-.288.127-.744.185-1.138l.115-.776c.044-.288.05-.442-.109-.442-.274 0-.631.529-.714.977l-.102.689c-.032.241-.077.515-.083.69H7.956c.064-.288.127-.744.185-1.138l.146-1.004a6.05 6.05 0 0 0 .064-1.09 7.861 7.861 0 0 0 1.129-.107c.025.107.045.609-.045 1.05.351-.675.861-1.083 1.333-1.083zm-4.278.007c.943 0 1.409.635 1.409 1.458 0 1.11-.784 2.034-1.824 2.034-.93 0-1.41-.636-1.41-1.465 0-1.104.792-2.027 1.825-2.027zm-4.496.08c.504.02.702.026 1.358.026.606 0 .95-.006 1.333-.026l-.02.609-1.587 1.726c.663 0 1.084-.007 1.326-.02-.07.327-.127.595-.184.996a18.28 18.28 0 0 0-1.314-.033c-.554 0-1.04.007-1.428.033l.012-.615 1.588-1.72c-.695 0-.95.007-1.237.014.064-.308.109-.65.153-.99zm4.374.812c-.306 0-.554.488-.554 1.097 0 .408.134.615.363.615.306 0 .549-.494.549-1.097 0-.414-.134-.615-.358-.615zm14.581 0c-.305 0-.554.488-.554 1.097 0 .408.134.615.363.615.306 0 .548-.494.548-1.097 0-.414-.133-.615-.357-.615zm-5.87.928c-.06.001-.12.005-.181.012-.23.029-.422.124-.525.263a.472.472 0 0 0-.1.36c.026.213.262.375.533.342.401-.05.678-.437.744-.823l.011-.103a2.126 2.126 0 0 0-.482-.05Z"/></svg>