<svg role="img" viewBox="0 0 24 24" xmlns="http://www.w3.org/2000/svg"><title>Zsh</title><path d="M3.6118.72C1.6242.72 0 2.3443 0 4.3318V19.657c.007 1.9875 1.6313 3.6118 3.6188 3.6118h8.2418c.0728.007.1518-.0087.2254-.0393a.607.607 0 0 0 .3288-.7936.6088.6088 0 0 0-.5612-.3749H3.6118a2.3968 2.3968 0 0 1-2.39-2.404V6.1155h21.5634v12.8383a.1353.1353 0 0 1-.0245.0348.1343.1343 0 0 1-.0948.0393h-.7435c-.0285-.007-.0626-.0212-.0877-.0463a.1344.1344 0 0 1-.0394-.0948v-2.2259c-.007-.0023-.0072-.0044-.0073-.0067.0001-.0023.0003-.0045.0003-.0068a.6015.6015 0 0 0-.176-.4252.6017.6017 0 0 0-.8503 0 .6013.6013 0 0 0-.1762.4252c0 .0023.0004.0045.0004.0068s-.0004.0044-.0004.0067v6.0154l.0071.001-.0001.0012a.6014.6014 0 0 0 1.0265.425.601.601 0 0 0 .176-.425v.0058-2.3866c-.007-.0356.0073-.0696.0324-.0948a.1337.1337 0 0 1 .0947-.0393h.7435a.1123.1123 0 0 1 .1018.0323.1337.1337 0 0 1 .0245.0348v2.4378c-.0051.0077-.0031.0153-.0009.0229a.6006.6006 0 0 0 .0193.1484.5985.5985 0 0 0 .5812.4446h.0118a.5884.5884 0 0 0 .2213-.0454.5943.5943 0 0 0 .3227-.3228c.0016-.0039.0027-.0079.0042-.0117a.601.601 0 0 0 .0232-.0736.6076.6076 0 0 0 .025-.1624V4.3248C24.007 2.3373 22.3828.713 20.3954.713H3.6188Zm0 1.2148h16.7766c1.3379-.007 2.4038 1.059 2.4038 2.39v.576H1.2148v-.569c0-1.331 1.066-2.397 2.397-2.397Zm2.7484 5.3464a.2134.2134 0 0 0-.1449.0754l-3.9638 4.7207a.2134.2134 0 1 0 .327.2744l3.9637-4.7206a.2135.2135 0 0 0-.182-.3499Zm-2.9397.0857c-.6507 0-1.1857.5348-1.1857 1.1855s.535 1.1855 1.1857 1.1855c.6506 0 1.1855-.5348 1.1855-1.1855S4.071 7.3669 3.4205 7.3669Zm0 .7347c.2539 0 .4507.1969.4507.4508 0 .254-.1968.4508-.4507.4508-.254 0-.4508-.1969-.4508-.4508 0-.254.1969-.4508.4508-.4508Zm1.9392 1.8712c-.6507 0-1.1855.535-1.1855 1.1857s.5349 1.1855 1.1855 1.1855c.6507 0 1.1857-.5348 1.1857-1.1855s-.535-1.1857-1.1857-1.1857Zm0 .7349c.254 0 .4508.1969.4508.4508s-.1969.4507-.4508.4507c-.254 0-.4507-.1968-.4507-.4507s.1968-.4508.4507-.4508Zm2.6588 1.1754a.214.214 0 0 0-.151.0624.2144.2144 0 0 0-.0625.1509.2137.2137 0 0 0 .1318.1973.2122.2122 0 0 0 .0817.0162h2.8305c.035-.007.0628-.0125.0887-.0232a.2146.2146 0 0 0 .1154-.1156.2134.2134 0 0 0-.1971-.295H8.0255Zm5.7689 4.1599a.61.61 0 0 0-.6097.6097v-.0069.0072a.6092.6092 0 0 0 .3764.5632.608.608 0 0 0 .2333.0463c.0095 0 .0189-.0011.0283-.0015h1.1232c.0193-.007.0313-.004.0422.0018a.0768.0768 0 0 1 .0273.0243.0758.0758 0 0 1 .0074.0704l-1.783 4.453a.67.67 0 0 0-.0481.2493v.553c-.007.1778.0637.3483.1894.4741a.6705.6705 0 0 0 .4741.1963h2.0901c.089-.007.1703-.0232.2462-.0546a.6233.6233 0 0 0 .3382-.3383.6252.6252 0 0 0 .0477-.2392v.0069-.0073a.6256.6256 0 0 0-.6255-.6255c-.0049 0-.0095.0007-.0143.0008h-1.4059c-.0188.007-.0304.004-.0409-.0015a.074.074 0 0 1-.0381-.0561.0727.0727 0 0 1 .005-.0348l2.0561-5.1267a.555.555 0 0 0 .0367-.2658.5538.5538 0 0 0-.2917-.4314.5543.5543 0 0 0-.2603-.0648h-2.1673c-.0052-.0077-.0173-.0089-.0298-.0089Zm4.9181.0267c-.2854 0-.6123.0275-.809.0827a.9458.9458 0 0 0-.4663.267c-.1141.1289-.1966.3037-.2474.5245-.0507.2148-.0762.4879-.0762.8192 0 .3191.0032.5768.0096.7731.0083.1606.0273.3206.057.4787a.9304.9304 0 0 0 .1237.2944 1.182 1.182 0 0 0 .1904.2117c.0996.0875.208.1646.3235.2302.1268.0736.257.1441.3902.2116.1332.0675.2601.1381.3807.2116.1136.0639.2189.1412.3139.2302.0376.0406.0727.0837.1047.1289a.2935.2935 0 0 1 .0531.0919.8013.8013 0 0 1 .0275.0919.6515.6515 0 0 1 .0147.1474c.0063.0736.0094.175.0094.3038a3.77 3.77 0 0 1-.0286.5246.7452.7452 0 0 1-.0761.2853.2613.2613 0 0 1-.1522.1197c-.0634.0183-.2828.0276-.378.0276a.8298.8298 0 0 1-.2283-.0276.3146.3146 0 0 1-.1427-.1289 1.072 1.072 0 0 1-.0761-.2761 4.4589 4.4589 0 0 1-.0192-.4594.5148.5148 0 0 0-.0026-.0512h-.0038c-.0245-.1151-.0856-.2267-.1792-.3076a.5168.5168 0 0 0-.6745 0 .5122.5122 0 0 0-.1722.3146h-.0031c.005.0117.0041.0305.0042.0494l.0002.0129-.0002.0039c0 .0021.0003.0041.0003.0062.0016.1209.0033.2295.0033.2839 0 .3621.0253.6565.0761.8836.0571.2208.1459.3957.2665.5246a.9164.9164 0 0 0 .4568.2485c.2211.0533.4482.078.6756.0736.3045 0 .6983-.0275.9013-.0828a.897.897 0 0 0 .4852-.313c.1269-.1534.2157-.3651.2665-.6351.0571-.276.0856-.6287.0856-1.0583 0-.3129-.0095-.5645-.0286-.7547a1.65 1.65 0 0 0-.0855-.4694.7625.7625 0 0 0-.1809-.2945 1.5003 1.5003 0 0 0-.2759-.221 2.7328 2.7328 0 0 0-.2855-.1564 4.3822 4.3822 0 0 0-.3425-.1749 8.2708 8.2708 0 0 1-.3427-.184 2.8848 2.8848 0 0 1-.2759-.1933.9382.9382 0 0 1-.1142-.1104.3977.3977 0 0 1-.0571-.1381 1.4519 1.4519 0 0 1-.0285-.2116v-.3429c-.0088-.1321-.0025-.2644.0119-.3957a.6333.6333 0 0 1 .0667-.2302.2302.2302 0 0 1 .1427-.1011c.0571-.0184.2159-.0276.3047-.0276.2031 0 .33.0583.3808.1749a.547.547 0 0 1 .0662.2393 8.968 8.968 0 0 1 .0033.2454h.0036c.007-.0057.0069-.0045.0069-.0032 0 .136.0542.2665.1508.3627a.5168.5168 0 0 0 .7288 0 .512.512 0 0 0 .1509-.3627l-.0001-.0038h.0001c-.0068-.0953-.0067-.1868-.0067-.2384a3.184 3.184 0 0 0-.0666-.7088c-.0381-.1962-.1142-.3527-.2284-.4693-.1079-.1227-.2601-.2087-.4567-.2578-.1904-.0552-.4347-.0827-.7329-.0827Z"/></svg>