<svg role="img" height="467" viewBox="0 0 24 24" width="800" xmlns="http://www.w3.org/2000/svg" style="shape-rendering:geometricPrecision;text-rendering:geometricPrecision;image-rendering:optimizeQuality;fill-rule:evenodd;clip-rule:evenodd">
  <path fill="#443d37" d="M271.5 43.5c6.97 5.145 12.804 10.812 17.5 17 .54-1.635.04-2.968-1.5-4 .124-.607.457-.94 1-1 .235.597.735.93 1.5 1 11.79-3.192 23.624-5.525 35.5-7 32.442 1.21 56.775 15.71 73 43.5-2.934 3.36-4.601 7.194-5 11.5l-2 2c-10.41-24.371-28.41-33.538-54-27.5-2.095.556-2.262 1.056-.5 1.5a12.988 12.988 0 0 1 5.5-1c-2.479 1.295-5.146 2.295-8 3 .03-.997-.47-1.664-1.5-2-7.777 3.444-13.61 8.944-17.5 16.5.07.765.403 1.265 1 1.5-.489 1.495-1.155 2.829-2 4 .146-2.442-.687-3.11-2.5-2-3.465 8.752-4.632 17.752-3.5 27-.221 2.597-.721 2.597-1.5 0-1.252 3.963-1.752 7.797-1.5 11.5a711.995 711.995 0 0 1 9 19.5c-1.33 3.349-.83 3.682 1.5 1 6.249 6.583 13.749 11.083 22.5 13.5 3.589.207 7.089.707 10.5 1.5a31.177 31.177 0 0 0 4.5-6c.094 1.739.261 3.739.5 6h9a4.457 4.457 0 0 1 1.5-2c1.135.603 2.135.936 3 1-3.91 3.534-6.577 7.867-8 13-1.288-5.474-4.455-6.14-9.5-2l-1-1a55.394 55.394 0 0 1-5.5 9l-1-1c1.429-1.831 1.929-3.831 1.5-6a29.07 29.07 0 0 0-4.5 7.5c-1.829.273-3.329 1.107-4.5 2.5-1.309-2.391-2.309-2.391-3 0-.718-.951-1.551-1.117-2.5-.5a32.364 32.364 0 0 1-4 5.5l-1-1a36.543 36.543 0 0 1 5-8.5c-2.235-.067-4.402.433-6.5 1.5-2.132-1.28-4.298-1.28-6.5 0a58.829 58.829 0 0 1-6.5 8c.783-1.845 1.116-3.845 1-6-3.339.847-7.006.514-11-1a37.459 37.459 0 0 0-7.5 9c-13.239-2.62-24.906-8.453-35-17.5a4.934 4.934 0 0 0-3-.5c-20.11-21.798-25.777-47.131-17-76 .247-1.213.914-1.88 2-2 .802 1.385 1.469 1.218 2-.5 2.033-5.897 4.7-11.397 8-16.5l2.5 5c.654 1.196 1.154 1.196 1.5 0-1.273-4.333-3.606-7.666-7-10v-1c1.601 1.143 2.267.476 2-2a14.821 14.821 0 0 0-3-7.5c.644-4.934 1.31-9.767 2-14.5 2.384-4.475 5.384-9.308 9-14.5 4.761-2.72 9.761-3.22 15-1.5Z" style="opacity:1"/>
  <path fill="#ce8475" d="M274.5 59.5c1.656 1.96 3.323 3.96 5 6-7.609 5.788-14.276 12.455-20 20-1.835-6.823-2.502-13.823-2-21 1.874-8.937 6.874-11.437 15-7.5.881.708 1.547 1.542 2 2.5Z" style="opacity:1"/>
  <path fill="#ac6453" d="M279.5 65.5c1.864 1.334 3.03 3 3.5 5-1 1.333-2 1.333-3 0-.216 1.884-.883 3.55-2 5a4.458 4.458 0 0 0-1.5-2c-.596 1.216-.763 2.55-.5 4-1.101 1.894-2.434 2.56-4 2-.997 4.684-2.497 5.35-4.5 2a20.204 20.204 0 0 0-1.5 6 3.646 3.646 0 0 0-1.5-1c-2.126 5.138-3.793 4.805-5-1 5.724-7.545 12.391-14.212 20-20Z" style="opacity:1"/>
  <path fill="#090706" d="M380.5 75.5c3.055.746 4.722 2.746 5 6-.968 4.16-2.968 4.826-6 2-1.398-2.935-1.065-5.602 1-8Z" style="opacity:1"/>
  <path fill="#716257" d="M363.5 80.5c19.065 8.775 27.898 23.775 26.5 45-6.294 25.291-22.461 37.125-48.5 35.5-9.42-2.59-17.086-7.756-23-15.5-8.949-13.611-10.282-27.944-4-43 .845-1.171 1.511-2.505 2-4h1c12.18-14.06 27.514-20.06 46-18Z" style="opacity:1"/>
  <path fill="#201d1a" d="M334.5 82.5c-7.627 3.303-13.294 8.636-17 16h-1c-.597-.235-.93-.735-1-1.5 3.89-7.556 9.723-13.056 17.5-16.5 1.03.336 1.53 1.003 1.5 2Z" style="opacity:1"/>
  <path fill="#dfdedc" d="M363.5 80.5c-18.486-2.06-33.82 3.94-46 18 3.706-7.364 9.373-12.697 17-16 2.854-.705 5.521-1.705 8-3 7.092-1.38 14.092-1.047 21 1Z" style="opacity:1"/>
  <path fill="#7c7875" d="M249.5 89.5c-3.3 5.103-5.967 10.603-8 16.5-.531 1.718-1.198 1.885-2 .5a96.08 96.08 0 0 1 7.5-17c.977-1.274 1.811-1.274 2.5 0Z" style="opacity:1"/>
  <path fill="#0a0807" d="M288.5 98.5c3.891.214 5.891 2.38 6 6.5-3.894 6.315-6.56 5.815-8-1.5-.063-2.014.603-3.68 2-5Z" style="opacity:1"/>
  <path fill="#cccbcd" d="M619.5 104.5c32.874 10.041 53.707 31.708 62.5 65 3.523 46.478-16.643 77.312-60.5 92.5-42.831 6.834-74.664-8.666-95.5-46.5-3.783-10.459-6.283-21.125-7.5-32a3408.994 3408.994 0 0 0-14-3c-4.882-2.113-9.549-4.78-14-8-3.283-2.453-6.116-5.453-8.5-9-4.652-8.635-9.319-17.302-14-26-4.396-9.07-11.563-14.237-21.5-15.5a225.09 225.09 0 0 0-18 0c4.292-3.81 9.292-5.31 15-4.5 5.128 1.495 10.462 2.661 16 3.5 7.945 3.558 14.945 8.558 21 15 1.316.528 1.983.028 2-1.5a151.028 151.028 0 0 0 8.5 13c2.781 2.962 5.948 5.296 9.5 7a131.078 131.078 0 0 0 20 8 243.215 243.215 0 0 1 8-16c-.065.438.101.772.5 1a94.308 94.308 0 0 1 12-14 4.934 4.934 0 0 0 .5-3 4.934 4.934 0 0 0 3-.5c20.35-19.525 44.683-27.359 73-23.5 1.022-.355 1.689-1.022 2-2Z" style="opacity:1"/>
  <path fill="#16110e" d="m509.5 132.5-2 2a5.727 5.727 0 0 0-3 1v-2l1-2a252.788 252.788 0 0 0 20-18 70.852 70.852 0 0 1-10-10 109.435 109.435 0 0 0-11-10 25.65 25.65 0 0 0-6 6 250.836 250.836 0 0 0-20 18c-.588 2.805.745 4.472 4 5 0 .667.333 1 1 1 1.618.951 2.951 2.284 4 4 1.545.952 3.212 1.285 5 1h1a38.496 38.496 0 0 1 6 4c-.667 0-1 .333-1 1-1.208-.734-2.541-1.067-4-1a29.862 29.862 0 0 0-7-2c-1.53.14-2.53.807-3 2 4.634 7.964 10.634 14.63 18 20-1 .333-1.667 1-2 2-3.552-1.704-6.719-4.038-9.5-7a151.028 151.028 0 0 1-8.5-13 54.7 54.7 0 0 0-4-5.5l-14-9a1190.23 1190.23 0 0 0-16.5-4.5 15.414 15.414 0 0 1-4.5 2c-5.708-.81-10.708.69-15 4.5a225.09 225.09 0 0 1 18 0c9.937 1.263 17.104 6.43 21.5 15.5 4.681 8.698 9.348 17.365 14 26 2.384 3.547 5.217 6.547 8.5 9-.311.978-.978 1.645-2 2a55.05 55.05 0 0 1-6.5-6 215.783 215.783 0 0 1-10-17 29.278 29.278 0 0 0-2.5 7l-2 2v-6c1.872-5.201 1.205-9.867-2-14 0-.667-.333-1-1-1 .131-.876-.202-1.543-1-2l-26 25a1243.335 1243.335 0 0 0-43 41h-2a866.55 866.55 0 0 1 50-49 11.637 11.637 0 0 0-5-2c-1.879-.841-3.879-1.175-6-1-3.506-.998-7.172-.998-11 0-3.786-.18-7.119.82-10 3-2.831.579-5.164 1.912-7 4a198.135 198.135 0 0 1-18 27c-1.105 1.1-2.438 1.767-4 2-.438.065-.772-.101-1-.5 9.678-9.53 16.678-20.696 21-33.5 3.897-11.663 4.897-23.663 3-36-7.664-1.012-11.331-5.345-11-13 .399-4.306 2.066-8.14 5-11.5-16.225-27.79-40.558-42.29-73-43.5-12.703-.043-25.037 1.957-37 6-.543.06-.876.393-1 1 1.54 1.032 2.04 2.365 1.5 4-4.696-6.188-10.53-11.855-17.5-17-7.606-4.779-14.106-3.445-19.5 4-2.364 3.719-3.864 7.719-4.5 12a978.524 978.524 0 0 0-2 14.5 14.821 14.821 0 0 1 3 7.5c.267 2.476-.399 3.143-2 2-4.323-11.987-3.823-23.654 1.5-35 3.382-6.072 8.382-9.739 15-11 10.239.87 17.739 5.87 22.5 15-.131.876.202 1.543 1 2 10.757-5.017 22.09-7.683 34-8a154.506 154.506 0 0 1 33 5c1.482-7.659 5.815-13.159 13-16.5 9.847-2.128 15.014 1.705 15.5 11.5-.383-.556-.883-.89-1.5-1-1.125-6.965-5.125-9.799-12-8.5-5.861 3.028-10.194 7.528-13 13.5a364.484 364.484 0 0 1 21.5 14 2.429 2.429 0 0 0 .5-2c.29 3.028 1.957 5.028 5 6 3.706-9.676 4.873-19.676 3.5-30-.24-2.352-1.073-4.352-2.5-6-3.932-4.623-8.932-6.123-15-4.5-3.939 1.791-7.272 4.291-10 7.5-4.821 3.477-8.487 7.81-11 13 2.816-10.328 9.149-17.828 19-22.5 11.783-4.214 19.616-.38 23.5 11.5 1.857 11.488.023 22.322-5.5 32.5a73.262 73.262 0 0 1 15 20c4.545-1.148 9.212-1.481 14-1 9.177 4.537 11.344 11.371 6.5 20.5-2.618 4.558-6.452 7.558-11.5 9a56.766 56.766 0 0 1 .5 18 288.49 288.49 0 0 0-3 17c6.646-3.699 13.813-5.699 21.5-6 6.212.61 12.212 1.776 18 3.5a350.367 350.367 0 0 1 16-15.5c-3.067-4.9-7.4-8.067-13-9.5a69.86 69.86 0 0 0-24 1.5c-2.497-.435-3.663-1.769-3.5-4 15.966-12.789 32.799-14.122 50.5-4a46.607 46.607 0 0 0 6-5.5c-2.962-3.488-2.295-6.155 2-8 1.941-.743 3.774-.576 5.5.5l6.5-6.5c-2.987-3.879-2.154-6.712 2.5-8.5 3.301 1.796 6.135 1.296 8.5-1.5 1-.667 2-.667 3 0l24 24-5.5 5.5c1.554 6.612-.946 8.945-7.5 7a30.61 30.61 0 0 0-7 6Z" style="opacity:.802"/>
  <path fill="#f7dfce" d="M515.5 103.5a60.145 60.145 0 0 1-10.5-7 392.372 392.372 0 0 0-17.5 16l-1-.5a210.447 210.447 0 0 0 12-12.5 25.65 25.65 0 0 1 6-6 109.435 109.435 0 0 1 11 10Z" style="opacity:1"/>
  <path fill="#e2a809" d="M480.5 107.5c1.175-.219 2.175.114 3 1-4.371 5.502-5.371 5.169-3-1Z" style="opacity:1"/>
  <path fill="#c27d6e" d="M415.5 93.5c5.5 9.394 3.5 16.894-6 22.5-7.667.5-12.334-3-14-10.5 1.663-1.993 2.83-4.326 3.5-7 3.862-6.245 9.029-7.578 15.5-4 .607-.124.94-.457 1-1Z" style="opacity:.946"/>
  <path fill="#f26c2c" d="M515.5 103.5a70.852 70.852 0 0 0 10 10 252.788 252.788 0 0 1-20 18c-2.191-2.933-5.191-4.6-9-5a228.344 228.344 0 0 1 12.5-13c.667-.667.667-1.333 0-2a394.351 394.351 0 0 0-16.5 17c-1.788.285-3.455-.048-5-1-1.049-1.716-2.382-3.049-4-4a577.46 577.46 0 0 0 20.5-20c.667-.667.667-1.333 0-2a631.656 631.656 0 0 1-21.5 21c-3.255-.528-4.588-2.195-4-5a250.836 250.836 0 0 1 20-18 210.447 210.447 0 0 1-12 12.5l1 .5a392.372 392.372 0 0 1 17.5-16 60.145 60.145 0 0 0 10.5 7Z" style="opacity:1"/>
  <path fill="#e1a606" d="M493.5 93.5c4.888.75 4.888 2.416 0 5-2.661-1.672-2.661-3.339 0-5Z" style="opacity:1"/>
  <path fill="#d2c6bb" d="M415.5 93.5c-.06.543-.393.876-1 1-6.471-3.578-11.638-2.245-15.5 4-.67 2.674-1.837 5.007-3.5 7 .934-10.437 6.601-15.27 17-14.5a81.216 81.216 0 0 1 3 2.5Z" style="opacity:1"/>
  <path fill="#16110e" d="M274.5 59.5c-.453-.958-1.119-1.792-2-2.5-8.126-3.937-13.126-1.437-15 7.5-.809 1.792-1.309 3.792-1.5 6l-1.5-1.5c.165-7.306 3.498-12.973 10-17 5.618-.524 9.952 1.642 13 6.5-.825.886-1.825 1.219-3 1Z" style="opacity:1"/>
  <path fill="#c2c0bf" d="M325.5 49.5c-11.876 1.475-23.71 3.808-35.5 7-.765-.07-1.265-.403-1.5-1 11.963-4.043 24.297-6.043 37-6Z" style="opacity:1"/>
  <path fill="#d5d4d3" d="M271.5 43.5c-5.239-1.72-10.239-1.22-15 1.5-3.616 5.192-6.616 10.025-9 14.5.636-4.281 2.136-8.281 4.5-12 5.394-7.445 11.894-8.779 19.5-4Z" style="opacity:1"/>
  <path fill="#bf7565" d="M380.5 45.5c.108 5.892-.892 11.558-3 17a2.429 2.429 0 0 1-.5 2 364.484 364.484 0 0 0-21.5-14c2.806-5.972 7.139-10.472 13-13.5 6.875-1.299 10.875 1.535 12 8.5Z" style="opacity:1"/>
  <path fill="#3f3832" d="M383.5 32.5c1.427 1.648 2.26 3.648 2.5 6 1.373 10.324.206 20.324-3.5 30-3.043-.972-4.71-2.972-5-6 2.108-5.442 3.108-11.108 3-17 .617.11 1.117.444 1.5 1-.486-9.795-5.653-13.628-15.5-11.5-7.185 3.341-11.518 8.841-13 16.5a154.506 154.506 0 0 0-33-5c-11.91.317-23.243 2.983-34 8-.798-.457-1.131-1.124-1-2 20.228-8.62 40.894-9.953 62-4 2.513-5.19 6.179-9.523 11-13 2.944-1.811 5.944-3.644 9-5.5 5.816-1.409 10.983-.242 15.5 3.5.399-.228.565-.562.5-1Z" style="opacity:1"/>
  <path fill="#adaaa8" d="M383.5 32.5c.065.438-.101.772-.5 1-4.517-3.742-9.684-4.909-15.5-3.5a1814.895 1814.895 0 0 0-9 5.5c2.728-3.209 6.061-5.709 10-7.5 6.068-1.623 11.068-.123 15 4.5Z" style="opacity:1"/>
  <path fill="#f5a453" d="M506.5 106.5c1.025.397 1.192 1.063.5 2L496.5 119c-.667.667-1.333.667-2 0a210.447 210.447 0 0 0 12-12.5Z" style="opacity:1"/>
  <path fill="#f3a957" d="M483.5 123.5c-.667 0-1-.333-1-1a631.656 631.656 0 0 0 21.5-21c.667.667.667 1.333 0 2a577.46 577.46 0 0 1-20.5 20Z" style="opacity:1"/>
  <path fill="#f6a955" d="m496.5 126.5-3 2h-1a394.351 394.351 0 0 1 16.5-17c.667.667.667 1.333 0 2a228.344 228.344 0 0 0-12.5 13Z" style="opacity:1"/>
  <path fill="#eeedeb" d="M482.5 134.5c-.017 1.528-.684 2.028-2 1.5-6.055-6.442-13.055-11.442-21-15-5.538-.839-10.872-2.005-16-3.5a15.414 15.414 0 0 0 4.5-2 1190.23 1190.23 0 0 1 16.5 4.5l14 9a54.7 54.7 0 0 1 4 5.5Z" style="opacity:1"/>
  <path fill="#d69c0d" d="M520.5 119.5c2.684 2.326 2.351 4.326-1 6-2.349-.925-2.183-1.925.5-3a4.934 4.934 0 0 0 .5-3Z" style="opacity:1"/>
  <path fill="#1c1916" d="M368.5 130.5c-5.697 4.011-12.03 6.677-19 8 .124.607.457.94 1 1 .41 5.167-.257 10.167-2 15-6.205 3.772-10.038 2.105-11.5-5-.789-3.591-.622-7.091.5-10.5-10.219-.843-14.053-6.01-11.5-15.5a20.499 20.499 0 0 0 3.5-2.5 79.588 79.588 0 0 0 19-.5l-2-13a34.251 34.251 0 0 0-8-1.5c-5.005-2.379-5.339-5.379-1-9 6.275-5 12.775-5.5 19.5-1.5 1.041 3.136.207 5.636-2.5 7.5a26.852 26.852 0 0 0-6 3.5 250.265 250.265 0 0 1 2 14 71.007 71.007 0 0 0 18-7.5c6.019-.538 8.186 2.295 6.5 8.5-1.614 3.44-3.78 6.44-6.5 9Z" style="opacity:1"/>
  <path fill="#eecfbc" d="M349.5 95.5c-3.419 1.14-7.086 3.14-11 6-.607-.124-.94-.457-1-1 3.049-3.855 7.049-5.522 12-5Z" style="opacity:1"/>
  <path fill="#e3682e" d="M349.5 95.5c2.832-1.611 4.832-.778 6 2.5-1.321 2.654-3.321 4.654-6 6a30.485 30.485 0 0 1-11 0c-1.811-1.041-2.145-2.207-1-3.5.06.543.393.876 1 1 3.914-2.86 7.581-4.86 11-6Z" style="opacity:1"/>
  <path fill="#dc7f48" d="M477.5 124.5c.06-.543.393-.876 1-1a46.928 46.928 0 0 1 8 4.5c-1.667.667-3.333.667-5 0a19.552 19.552 0 0 0-4-3.5Z" style="opacity:1"/>
  <path fill="#ae4414" d="M496.5 126.5c3.809.4 6.809 2.067 9 5l-1 2c-1.898 1.234-3.565.901-5-1a38.496 38.496 0 0 0-6-4l3-2Z" style="opacity:1"/>
  <path fill="#d8d6d5" d="M494.5 132.5c.453.958 1.119 1.792 2 2.5l-1 .5c-3.257-2.379-6.924-3.379-11-3 .47-1.193 1.47-1.86 3-2a29.862 29.862 0 0 1 7 2Z" style="opacity:1"/>
  <path fill="#423c36" d="M484.5 132.5c4.076-.379 7.743.621 11 3l1-.5c-.881-.708-1.547-1.542-2-2.5 1.459-.067 2.792.266 4 1a60.517 60.517 0 0 1 7 19h-3c-7.366-5.37-13.366-12.036-18-20Z" style="opacity:1"/>
  <path fill="#14110f" d="M278.5 120.5c15.141-.048 20.974 7.286 17.5 22-4.022 5.412-9.522 8.079-16.5 8-12.236-2.773-16.069-10.106-11.5-22 2.885-3.749 6.385-6.416 10.5-8Z" style="opacity:1"/>
  <path fill="#996a5e" d="M284.5 124.5c-2.267 2.287-2.267 4.454 0 6.5a40.79 40.79 0 0 1-2.5 5.5c-.654 1.196-1.154 1.196-1.5 0a43.725 43.725 0 0 1 3-5.5c-1.333-.667-2.667-.667-4 0a559.675 559.675 0 0 0-5.5 8.5 9.175 9.175 0 0 1-4.5 2c-1.548-3.93-1.215-7.597 1-11 1.847-1.593 4.181-3.426 7-5.5a24.935 24.935 0 0 1 7-.5Z" style="opacity:1"/>
  <path fill="#93675b" d="M290.5 125.5c6.147 5.716 6.48 11.716 1 18-1.25-.077-2.083-.744-2.5-2-1.309 2.391-2.309 2.391-3 0a48.165 48.165 0 0 1-2.5 5c.002-3.498 1.168-6.832 3.5-10 .667-1 .667-2 0-3a59.284 59.284 0 0 0-6.5 13l-1-1a114.436 114.436 0 0 1 6-13c1.151-1.231 2.317-1.231 3.5 0l3-2c.688-.832.521-1.498-.5-2-.758 1.311-1.758 1.811-3 1.5a9.175 9.175 0 0 0 2-4.5Z" style="opacity:1"/>
  <path fill="#d7cabe" d="M288.5 123.5c-1.068.934-2.401 1.268-4 1a24.935 24.935 0 0 0-7 .5c-2.819 2.074-5.153 3.907-7 5.5 3.77-7.734 9.77-10.067 18-7Z" style="opacity:1"/>
  <path fill="#b67769" d="M288.5 123.5c1 .333 1.667 1 2 2a9.175 9.175 0 0 1-2 4.5c1.242.311 2.242-.189 3-1.5 1.021.502 1.188 1.168.5 2l-3 2c-1.183-1.231-2.349-1.231-3.5 0a114.436 114.436 0 0 0-6 13l1 1a59.284 59.284 0 0 1 6.5-13c.667 1 .667 2 0 3-2.332 3.168-3.498 6.502-3.5 10a48.165 48.165 0 0 0 2.5-5c.691 2.391 1.691 2.391 3 0 .417 1.256 1.25 1.923 2.5 2a14.698 14.698 0 0 1-3 3.5c-5.066 1.637-10.066 1.637-15 0-1.939-1.432-3.272-3.265-4-5.5a9.175 9.175 0 0 0 4.5-2 559.675 559.675 0 0 1 5.5-8.5c1.333-.667 2.667-.667 4 0a43.725 43.725 0 0 0-3 5.5c.346 1.196.846 1.196 1.5 0a40.79 40.79 0 0 0 2.5-5.5c-2.267-2.046-2.267-4.213 0-6.5 1.599.268 2.932-.066 4-1Z" style="opacity:1"/>
  <path fill="#3b352f" d="M393.5 104.5c-.331 7.655 3.336 11.988 11 13 1.897 12.337.897 24.337-3 36-12.375 21.206-29.709 37.04-52 47.5a152.758 152.758 0 0 1-41.5 5.5c-5.46-.567-10.627-1.9-15.5-4a37.459 37.459 0 0 1 7.5-9c3.994 1.514 7.661 1.847 11 1 .116 2.155-.217 4.155-1 6a58.829 58.829 0 0 0 6.5-8c2.202-1.28 4.368-1.28 6.5 0 2.098-1.067 4.265-1.567 6.5-1.5a36.543 36.543 0 0 0-5 8.5l1 1a32.364 32.364 0 0 0 4-5.5c.949-.617 1.782-.451 2.5.5.691-2.391 1.691-2.391 3 0 1.171-1.393 2.671-2.227 4.5-2.5a29.07 29.07 0 0 1 4.5-7.5c.429 2.169-.071 4.169-1.5 6l1 1a55.394 55.394 0 0 0 5.5-9l1 1c5.045-4.14 8.212-3.474 9.5 2 1.423-5.133 4.09-9.466 8-13-.865-.064-1.865-.397-3-1a4.457 4.457 0 0 0-1.5 2h-9a118.954 118.954 0 0 1-.5-6 31.177 31.177 0 0 1-4.5 6 62.065 62.065 0 0 0-10.5-1.5c-8.751-2.417-16.251-6.917-22.5-13.5-2.33 2.682-2.83 2.349-1.5-1a711.995 711.995 0 0 0-9-19.5c-.252-3.703.248-7.537 1.5-11.5.779 2.597 1.279 2.597 1.5 0 2.176 16.496 10.509 28.996 25 37.5 26.32 7.821 45.487-.012 57.5-23.5a128.704 128.704 0 0 0 4.5-17.5c-.108-1.681-.775-2.848-2-3.5a40.58 40.58 0 0 0-2-14l2-2Z" style="opacity:1"/>
  <path fill="#f5cfb8" d="M431.5 151.5c2.758 1.467 2.425 2.133-1 2h-10a4.934 4.934 0 0 1-3-.5c1.237-.232 2.237-.732 3-1.5 3.828-.998 7.494-.998 11 0Z" style="opacity:1"/>
  <path fill="#0f0d0c" d="M391.5 106.5a40.58 40.58 0 0 1 2 14c-2.997 24.333-16.663 38.667-41 43-14.797.433-26.463-5.233-35-17 .124-.607.457-.94 1-1 5.914 7.744 13.58 12.91 23 15.5 26.039 1.625 42.206-10.209 48.5-35.5 1.398-21.225-7.435-36.225-26.5-45-6.908-2.047-13.908-2.38-21-1a12.988 12.988 0 0 0-5.5 1c-1.762-.444-1.595-.944.5-1.5 25.59-6.038 43.59 3.129 54 27.5Z" style="opacity:1"/>
  <path fill="#2a2622" d="M314.5 102.5c-6.282 15.056-4.949 29.389 4 43-.543.06-.876.393-1 1 8.537 11.767 20.203 17.433 35 17 24.337-4.333 38.003-18.667 41-43 1.225.652 1.892 1.819 2 3.5a128.704 128.704 0 0 1-4.5 17.5c-12.013 23.488-31.18 31.321-57.5 23.5-14.491-8.504-22.824-21.004-25-37.5-1.132-9.248.035-18.248 3.5-27 1.813-1.11 2.646-.442 2.5 2Z" style="opacity:1"/>
  <path fill="#c72650" d="M340.5 135.5c3.152-.541 5.652.459 7.5 3 .826 5.089.492 10.089-1 15-3.303 2.687-5.969 2.021-8-2-1.054-5.614-.554-10.948 1.5-16Z" style="opacity:1"/>
  <path fill="#4e1f11" d="M342.5 136.5c1.567 3.417 2.067 7.083 1.5 11-1.415-3.458-1.915-7.125-1.5-11Z" style="opacity:1"/>
  <path fill="#c3c0be" d="M368.5 130.5c2.342.275 2.342 1.108 0 2.5-5.753 3.082-11.753 5.249-18 6.5-.543-.06-.876-.393-1-1 6.97-1.323 13.303-3.989 19-8Z" style="opacity:1"/>
  <path fill="#cf7950" d="M420.5 151.5c-.763.768-1.763 1.268-3 1.5a4.934 4.934 0 0 0 3 .5c-1.068.934-2.401 1.268-4 1-1.809-.791-3.809-.791-6 0 2.881-2.18 6.214-3.18 10-3Z" style="opacity:1"/>
  <path fill="#f2a77f" d="M431.5 151.5c2.121-.175 4.121.159 6 1-.652 1.225-1.819 1.892-3.5 2-1.385-.014-2.551-.348-3.5-1 3.425.133 3.758-.533 1-2Z" style="opacity:1"/>
  <path fill="#453e38" d="M490.5 172.5c4.451 3.22 9.118 5.887 14 8 .848 2.384.848 5.051 0 8-2.971 3.254-5.471 6.92-7.5 11a85.933 85.933 0 0 0-11.5 10.5 58.787 58.787 0 0 1-20 7.5 52.26 52.26 0 0 1 4.5-13 54.877 54.877 0 0 0 1.5-11.5 1525.542 1525.542 0 0 1-2.5-27.5c-.383.556-.883.889-1.5 1 1.546-2.382 2.213-5.049 2-8a29.278 29.278 0 0 1 2.5-7 215.783 215.783 0 0 0 10 17 55.05 55.05 0 0 0 6.5 6c1.022-.355 1.689-1.022 2-2Z" style="opacity:1"/>
  <path fill="#f26b2c" d="M437.5 152.5c1.812.271 3.478.938 5 2a866.55 866.55 0 0 0-50 49c-17.144-4.08-27.811 2.586-32 20a168.343 168.343 0 0 1-36 14.5c-1.887.78-3.554.613-5-.5a107.466 107.466 0 0 1 6-18c6.011.847 12.011.347 18-1.5 17.062-6.897 31.062-17.731 42-32.5a198.135 198.135 0 0 0 18-27c.06.543.393.876 1 1a33.587 33.587 0 0 1 12-5c1.599.268 2.932-.066 4-1h10c.949.652 2.115.986 3.5 1 1.681-.108 2.848-.775 3.5-2Z" style="opacity:1"/>
  <path fill="#f29160" d="M464.5 139.5a1591.897 1591.897 0 0 1-66 65c-.886.825-1.219 1.825-1 3-2.326-.645-3.993-1.978-5-4h2c-.065.438.101.772.5 1a1220.805 1220.805 0 0 0 43-40c.692-.937.525-1.603-.5-2l26-25c.798.457 1.131 1.124 1 2Z" style="opacity:1"/>
  <path fill="#f1c1a5" d="M416.5 154.5a33.587 33.587 0 0 0-12 5c-.607-.124-.94-.457-1-1 1.836-2.088 4.169-3.421 7-4 2.191-.791 4.191-.791 6 0Z" style="opacity:1"/>
  <path fill="#b26543" d="M467.5 155.5v5a49.954 49.954 0 0 1-5 11v-10a21.83 21.83 0 0 1 5-6Z" style="opacity:1"/>
  <path fill="#ef8e61" d="M465.5 140.5c3.205 4.133 3.872 8.799 2 14a2.428 2.428 0 0 0-2 .5 2367.766 2367.766 0 0 1-40 41.5c3.584-2.239 6.917-4.906 10-8a516.173 516.173 0 0 1 27-27v10a4348.395 4348.395 0 0 0-56.5 54c-.21-1.558-.71-2.891-1.5-4a30.845 30.845 0 0 0-3-9 3348.093 3348.093 0 0 0 49-48.5c-.667-.667-1.333-.667-2 0a3222.32 3222.32 0 0 1-48 47.5l-3-4a1608.348 1608.348 0 0 0 68-67Z" style="opacity:1"/>
  <path fill="#f4ba61" d="M467.5 154.5v1a21.83 21.83 0 0 0-5 6 516.173 516.173 0 0 0-27 27c-3.083 3.094-6.416 5.761-10 8a2367.766 2367.766 0 0 0 40-41.5 2.428 2.428 0 0 1 2-.5Z" style="opacity:1"/>
  <path fill="#f4e0d0" d="M437.5 162.5c1.025.397 1.192 1.063.5 2a1220.805 1220.805 0 0 1-43 40c-.399-.228-.565-.562-.5-1a1243.335 1243.335 0 0 1 43-41Z" style="opacity:1"/>
  <path fill="#f4bc62" d="M464.5 139.5c.667 0 1 .333 1 1a1608.348 1608.348 0 0 1-68 67c-.219-1.175.114-2.175 1-3a1591.897 1591.897 0 0 0 66-65Z" style="opacity:1"/>
  <path fill="#f16b2b" d="M463.5 179.5c4.464 14.78 1.464 27.78-9 39l-26 19-3.5 5c-4.397 17.884-13.897 32.384-28.5 43.5-13.166 8.189-27.166 10.356-42 6.5 13.27-9.771 24.77-21.438 34.5-35a102.415 102.415 0 0 0 5.5-12c4.547-2.893 7.88-6.893 10-12 14.2-10.693 27.367-22.693 39.5-36a11.333 11.333 0 0 1 1.5-3.5 343.384 343.384 0 0 1 18-14.5Z" style="opacity:1"/>
  <path fill="#f3b661" d="M401.5 212.5c-.667 0-1-.333-1-1a3222.32 3222.32 0 0 0 48-47.5c.667-.667 1.333-.667 2 0a3348.093 3348.093 0 0 1-49 48.5Z" style="opacity:1"/>
  <path fill="#fdaf12" d="M211.5 158.5c4.221.935 7.554 3.102 10 6.5a142.518 142.518 0 0 1-14 24c.482 1.008.648 2.175.5 3.5a6.978 6.978 0 0 1 3.5-2.5 3.647 3.647 0 0 1-1-1.5 61.75 61.75 0 0 1 7-11 40.606 40.606 0 0 1 10 7c-1.381 4.856-4.048 8.69-8 11.5.776 1.77.61 3.603-.5 5.5a47.633 47.633 0 0 0-4.5 7c-8.791-4.066-9.125-3.399-1 2-1.229 5.172-3.896 9.172-8 12-1.764-11.449-2.43-23.115-2-35 .372-6.232 1.372-12.232 3-18a84.902 84.902 0 0 0 .5 13 21.341 21.341 0 0 0 1.5-9 59.874 59.874 0 0 1 3-15Z" style="opacity:1"/>
  <path fill="#fcae12" d="M250.5 196.5a277.938 277.938 0 0 1 5.5 12 49.781 49.781 0 0 1 7.5 11h-3c-2.66-3.981-5.327-7.981-8-12l-1 1.5a36.87 36.87 0 0 1 2 5.5 18.654 18.654 0 0 0-7-3c-2.417-2.72-5.417-4.72-9-6-.929-1.189-1.262-2.522-1-4a536.631 536.631 0 0 1 6-9 26.378 26.378 0 0 0 8 4Z" style="opacity:1"/>
  <path fill="#26170e" d="M462.5 171.5c.086.996-.248 1.829-1 2.5 1.607 1.049 2.273 2.549 2 4.5a44.093 44.093 0 0 1-2-3 685.62 685.62 0 0 0-39 37.5 4.934 4.934 0 0 1-3 .5c-3.125 5.424-7.458 9.758-13 13-1.756-1.052-2.423-2.719-2-5 .79 1.109 1.29 2.442 1.5 4a4348.395 4348.395 0 0 1 56.5-54Z" style="opacity:1"/>
  <path fill="#e6a422" d="M252.5 187.5a26.584 26.584 0 0 0 9 8v1a34.482 34.482 0 0 0 6 8l-10-5a34.406 34.406 0 0 1-5-8c-.854-1.535-.854-2.868 0-4Z" style="opacity:1"/>
  <path fill="#bc4914" d="M463.5 178.5v1a343.384 343.384 0 0 0-18 14.5 11.333 11.333 0 0 0-1.5 3.5c-12.133 13.307-25.3 25.307-39.5 36-.334-2.688.332-5.021 2-7 5.542-3.242 9.875-7.576 13-13a4.934 4.934 0 0 0 3-.5 685.62 685.62 0 0 1 39-37.5 44.093 44.093 0 0 0 2 3Z" style="opacity:1"/>
  <path fill="#231f1c" d="M401.5 153.5c-4.322 12.804-11.322 23.97-21 33.5.228.399.562.565 1 .5a2.428 2.428 0 0 1-.5 2c-14.929 14.379-32.762 22.712-53.5 25 2.158-1.72 4.825-2.553 8-2.5l-4-1c-25.848 3.037-49.181-3.296-70-19a73.503 73.503 0 0 1-7-7.5 4.934 4.934 0 0 1 3 .5c10.094 9.047 21.761 14.88 35 17.5 4.873 2.1 10.04 3.433 15.5 4a152.758 152.758 0 0 0 41.5-5.5c22.291-10.46 39.625-26.294 52-47.5Z" style="opacity:1"/>
  <path fill="#b44512" d="M385.5 185.5c-10.938 14.769-24.938 25.603-42 32.5-5.989 1.847-11.989 2.347-18 1.5h-1c.277-2.228 1.277-3.895 3-5 20.738-2.288 38.571-10.621 53.5-25a2.428 2.428 0 0 0 .5-2c1.562-.233 2.895-.9 4-2Z" style="opacity:1"/>
  <path fill="#f4b761" d="M425.5 196.5c-.639 2.26-1.806 4.26-3.5 6a169.323 169.323 0 0 1-16 15c-.667-.667-.667-1.333 0-2a519.142 519.142 0 0 1 19.5-19Z" style="opacity:1"/>
  <path fill="#f9ae11" d="M266.5 212.5c-3.047-2.418-5.38-5.418-7-9 3.532.43 6.866 2.096 10 5a173.55 173.55 0 0 1-3 4Z" style="opacity:1"/>
  <path fill="#36332d" d="M261.5 196.5v-1c18.041 12.169 38.041 18.336 60 18.5-.556.383-.889.883-1 1.5-22.027.657-41.694-5.677-59-19Z" style="opacity:1"/>
  <path fill="#31220d" d="M252.5 191.5a34.406 34.406 0 0 0 5 8c.16 1.653.826 2.986 2 4 1.62 3.582 3.953 6.582 7 9 .432 1.21 1.099 2.21 2 3l6 7a4.934 4.934 0 0 1-3-.5c-8.38-8.568-15.047-18.401-20-29.5.124-.607.457-.94 1-1Z" style="opacity:1"/>
  <path fill="#fad480" d="m257.5 199.5 10 5c4.235 2.797 8.568 5.631 13 8.5 1.525 1.009 3.192 1.509 5 1.5a154.465 154.465 0 0 0 21 13c-.342.838-1.008 1.172-2 1a944.205 944.205 0 0 0-7-4c-2.599 4.141-3.265 3.974-2-.5a145.392 145.392 0 0 0-24-14.5c-2.478 1.222-3.478 3.222-3 6-.901-.79-1.568-1.79-2-3a173.55 173.55 0 0 0 3-4c-3.134-2.904-6.468-4.57-10-5-1.174-1.014-1.84-2.347-2-4Z" style="opacity:1"/>
  <path fill="#faaa0c" d="M219.5 212.5a63.382 63.382 0 0 0 6.5 5c-.344 4.84-2.178 9.174-5.5 13-1.578-1.14-3.244-1.64-5-1.5l5 3.5a941.096 941.096 0 0 0-5 10c-1.2.792-2.533.792-4 0a61.223 61.223 0 0 1-4.5-10 12.93 12.93 0 0 1-.5-5 31.147 31.147 0 0 0 2-2c1.268.928 2.601 1.095 4 .5a9.568 9.568 0 0 1-3-3 167.128 167.128 0 0 0 5-11.5 20.69 20.69 0 0 1 5 1Z" style="opacity:1"/>
  <path fill="#feaf0c" d="M264.5 229.5a25.936 25.936 0 0 0 8 9c-.656.778-1.489 1.444-2.5 2a127.937 127.937 0 0 0-9.5-5l-1 1c3.621 1.631 6.621 3.965 9 7-1.237 4.145-3.237 7.812-6 11a94.09 94.09 0 0 1-11-7 472.238 472.238 0 0 0 9-18.5l-1-.5a15.014 15.014 0 0 1-3.5 4 141.806 141.806 0 0 1-12.5-7 45.493 45.493 0 0 1 6.5-11 16.2 16.2 0 0 1 3.5 1.5 208.709 208.709 0 0 0 7.5 11.5c.816 1.323 1.983 1.989 3.5 2Z" style="opacity:1"/>
  <path fill="#a56f0b" d="M261.5 196.5c17.306 13.323 36.973 19.657 59 19-1.1 1.105-1.767 2.438-2 4l-10 7a24.257 24.257 0 0 1 3-5.5 107.704 107.704 0 0 1-26-6.5c-1.808.009-3.475-.491-5-1.5a1691.178 1691.178 0 0 1-13-8.5 34.482 34.482 0 0 1-6-8Z" style="opacity:1"/>
  <path fill="#f8ac0f" d="M304.5 228.5c-2.686 1.491-5.686 2.157-9 2a59.62 59.62 0 0 1-13-2 16.635 16.635 0 0 0-6-5c-.342-.838-1.008-1.172-2-1l-6-7c-.478-2.778.522-4.778 3-6a145.392 145.392 0 0 1 24 14.5c-1.265 4.474-.599 4.641 2 .5a944.205 944.205 0 0 1 7 4Z" style="opacity:1"/>
  <path fill="#faab11" d="M285.5 214.5a107.704 107.704 0 0 0 26 6.5 24.257 24.257 0 0 0-3 5.5c-.342.838-1.008 1.172-2 1a154.465 154.465 0 0 1-21-13Z" style="opacity:1"/>
  <path fill="#171310" d="M246.5 84.5c3.394 2.334 5.727 5.667 7 10-.346 1.196-.846 1.196-1.5 0l-2.5-5c-.689-1.274-1.523-1.274-2.5 0a96.08 96.08 0 0 0-7.5 17c-1.086.12-1.753.787-2 2-8.777 28.869-3.11 54.202 17 76a73.503 73.503 0 0 0 7 7.5c20.819 15.704 44.152 22.037 70 19l4 1c-3.175-.053-5.842.78-8 2.5-1.723 1.105-2.723 2.772-3 5-3.358 5.411-5.025 11.411-5 18 1.446 1.113 3.113 1.28 5 .5a168.343 168.343 0 0 0 36-14.5c4.189-17.414 14.856-24.08 32-20 1.007 2.022 2.674 3.355 5 4l3 4c0 .667.333 1 1 1a30.845 30.845 0 0 1 3 9c-.423 2.281.244 3.948 2 5-1.668 1.979-2.334 4.312-2 7-2.12 5.107-5.453 9.107-10 12-5.18 1.832-9.013 5.165-11.5 10a177.724 177.724 0 0 1-11.5 11 324.602 324.602 0 0 1-17 11.5c-1.135.749-2.135.583-3-.5.863-1.226.863-2.56 0-4a376.152 376.152 0 0 0 22-13.5c9.582-7.507 15.582-17.173 18-29-.13-3.455-1.796-5.622-5-6.5-3.82-2.823-8.153-3.656-13-2.5a212.77 212.77 0 0 1-52 19.5c-1.291-.237-2.291.096-3 1-4.342.239-8.676.573-13 1h-6l3-2c2.559.302 4.893-.032 7-1h3a19.22 19.22 0 0 1 6-1 72.367 72.367 0 0 1 .5-12l4.5-11-1-1c-1.021 1.688-2.355 3.021-4 4 .233-1.562.9-2.895 2-4 .111-.617.444-1.117 1-1.5-21.959-.164-41.959-6.331-60-18.5a26.584 26.584 0 0 1-9-8 28.071 28.071 0 0 0-5-5c-.547-1.985-1.547-3.651-3-5-6.302-9.592-10.635-19.926-13-31a76.926 76.926 0 0 1-1-10v-9c3.43-16.519 1.43-16.852-6-1-8.114 12.573-13.781 26.24-17 41-.838.342-1.172 1.008-1 2-1.628 5.768-2.628 11.768-3 18-1.025.874-1.692 2.041-2 3.5a21.15 21.15 0 0 1 .5 10.5c-.671.752-1.504 1.086-2.5 1 .522-34.387 11.688-65.053 33.5-92 2.907-9.599 7.407-18.266 13.5-26Z" style="opacity:1"/>
  <path fill="#d3ac5a" d="M397.5 214.5c1.025.397 1.192 1.063.5 2a39.806 39.806 0 0 0-7 8c-1.615-1.156-1.615-2.489 0-4a43.296 43.296 0 0 0 6.5-6Z" style="opacity:1"/>
  <path fill="#bd9a50" d="M393.5 209.5a2.428 2.428 0 0 1 2 .5c-3.238 3.744-6.905 6.91-11 9.5a81.055 81.055 0 0 1 9-10Z" style="opacity:1"/>
  <path fill="#27231f" d="M393.5 209.5a81.055 81.055 0 0 0-9 10c-7.291-.315-14.291.519-21 2.5 5.168-16.09 15.168-20.257 30-12.5Z" style="opacity:1"/>
  <path fill="#fbad0a" d="M244.5 177.5c1.453 1.349 2.453 3.015 3 5a76.246 76.246 0 0 1 2 12c-6.868-1.945-7.868-5.612-3-11l-1-1a39.396 39.396 0 0 1-5 7 59.043 59.043 0 0 0-9-5c-.934-1.595-.934-3.261 0-5a785.54 785.54 0 0 0 4.5-7 36.74 36.74 0 0 0 8.5 5Z" style="opacity:1"/>
  <path fill="#fbd88c" d="M207.5 167.5c-.295 2.235.039 4.235 1 6a21.341 21.341 0 0 1-1.5 9 84.902 84.902 0 0 1-.5-13c-.172-.992.162-1.658 1-2Z" style="opacity:1"/>
  <path fill="#f4bb45" d="M231.5 146.5c2.365 11.074 6.698 21.408 13 31a36.74 36.74 0 0 1-8.5-5 785.54 785.54 0 0 1-4.5 7h-1a38.035 38.035 0 0 0 3-9v-1c1.77.885 2.77.052 3-2.5-2.185-4.225-3.685-8.725-4.5-13.5a3.647 3.647 0 0 0-1.5-1c-2.574 4.116-3.241 3.95-2-.5a274.262 274.262 0 0 0-4-4c1.607-.115 3.107.385 4.5 1.5 1.749-.248 2.582-1.248 2.5-3Z" style="opacity:1"/>
  <path fill="#feae07" d="M233.5 170.5a38.035 38.035 0 0 1-3 9 7.47 7.47 0 0 1-2 3 94.09 94.09 0 0 1-11-7 76.953 76.953 0 0 1 6.5-10 73.514 73.514 0 0 0 9.5 5Z" style="opacity:1"/>
  <path fill="#feb00e" d="M230.5 136.5c.116 3.36.449 6.693 1 10 .082 1.752-.751 2.752-2.5 3-1.393-1.115-2.893-1.615-4.5-1.5a274.262 274.262 0 0 1 4 4c-1.241 4.45-.574 4.616 2 .5a3.647 3.647 0 0 1 1.5 1c.815 4.775 2.315 9.275 4.5 13.5-.23 2.552-1.23 3.385-3 2.5-3.73-2.098-6.896-4.765-9.5-8a3.647 3.647 0 0 1-1.5 1c-3.682-1.649-6.682-3.982-9-7l4-8c1.034-1.187 2.367-2.02 4-2.5a3.647 3.647 0 0 1-1-1.5 36.104 36.104 0 0 1 5-8.5c1.995-.613 3.662-.113 5 1.5Z" style="opacity:1"/>
  <path fill="#fdcf6d" d="m226.5 132.5 4 2v2c-1.338-1.613-3.005-2.113-5-1.5a36.104 36.104 0 0 0-5 8.5 3.647 3.647 0 0 0 1 1.5c-1.633.48-2.966 1.313-4 2.5.37-4.759 2.037-9.425 5-14a31.984 31.984 0 0 0 4-1Z" style="opacity:1"/>
  <path fill="#fdb10f" d="M230.5 127.5v7l-4-2v-1l4-4Z" style="opacity:1"/>
  <path fill="#f2deb9" d="M226.5 125.5a16.076 16.076 0 0 1-2 5c.457.798 1.124 1.131 2 1v1c-1.262.407-2.595.74-4 1-2.963 4.575-4.63 9.241-5 14l-4 8c-.901.79-1.568 1.79-2 3a59.874 59.874 0 0 0-3 15c-.961-1.765-1.295-3.765-1-6 3.219-14.76 8.886-28.427 17-41l2-1Z" style="opacity:1"/>
  <path fill="#e9c06e" d="m230.5 127.5-4 4a56.021 56.021 0 0 1 4-8.5l-.5-1.5c-.949 1.593-2.115 2.926-3.5 4l-2 1c7.43-15.852 9.43-15.519 6 1Z" style="opacity:1"/>
  <path fill="#feb222" d="M226.5 131.5c-.876.131-1.543-.202-2-1a16.076 16.076 0 0 0 2-5c1.385-1.074 2.551-2.407 3.5-4l.5 1.5a56.021 56.021 0 0 0-4 8.5Z" style="opacity:1"/>
  <path fill="#261c10" d="M203.5 187.5c-.43 11.885.236 23.551 2 35a20.69 20.69 0 0 0 1 5 12.93 12.93 0 0 0 .5 5 61.223 61.223 0 0 0 4.5 10c-.039 2.589.961 4.589 3 6 1.783 5.771 4.783 10.771 9 15 0 .667.333 1 1 1a25.658 25.658 0 0 0 6 6c6.607 6.247 14.274 10.913 23 14a647.542 647.542 0 0 1 8 3c-.667 0-1 .333-1 1-27.117-7.95-45.284-25.283-54.5-52a307.37 307.37 0 0 0-4-15 60.931 60.931 0 0 0-.5 11l-2-2c.582-9.366.582-18.7 0-28 .996.086 1.829-.248 2.5-1a21.15 21.15 0 0 0-.5-10.5c.308-1.459.975-2.626 2-3.5Z" style="opacity:.459"/>
  <path fill="#f1cd82" d="M260.5 219.5h3a25.619 25.619 0 0 1 6 6l-5-2c-1.764-.826-3.098-2.159-4-4Z" style="opacity:1"/>
  <path fill="#c6a252" d="M400.5 220.5c1.073.751 1.24 1.751.5 3l-7 7c-.667-1-.667-2 0-3a63.707 63.707 0 0 0 6.5-7Z" style="opacity:1"/>
  <path fill="#e6d1c3" d="M324.5 219.5h1a107.466 107.466 0 0 0-6 18c-.025-6.589 1.642-12.589 5-18Z" style="opacity:1"/>
  <path fill="#433d37" d="M386.5 224.5c3.204.878 4.87 3.045 5 6.5-2.418 11.827-8.418 21.493-18 29a376.152 376.152 0 0 1-22 13.5c-17.683 6.06-36.016 9.393-55 10a148.444 148.444 0 0 1 3.5-28 11.38 11.38 0 0 0 2.5-2c-.32-3.215-.32-6.548 0-10h3c-.418.722-1.084 1.222-2 1.5l2.5.5c5.66-.451 9.827-1.451 12.5-3 .709-.904 1.709-1.237 3-1 .597.639 1.43.972 2.5 1a250.35 250.35 0 0 0 49.5-18.5c4.201-.922 8.201-.422 12 1.5.607-.124.94-.457 1-1Z" style="opacity:1"/>
  <path fill="#a06b08" d="M247.5 182.5a28.071 28.071 0 0 1 5 5c-.854 1.132-.854 2.465 0 4-.543.06-.876.393-1 1 4.953 11.099 11.62 20.932 20 29.5a4.934 4.934 0 0 0 3 .5c.992-.172 1.658.162 2 1 .42 2.716 2.42 4.383 6 5 .847 1.466 2.18 2.3 4 2.5 9.753 2.53 18.753.863 27-5 2.29-1.777 3.957-3.944 5-6.5 1.645-.979 2.979-2.312 4-4l1 1-4.5 11a72.367 72.367 0 0 0-.5 12 19.22 19.22 0 0 0-6 1c2.263-6.323.263-8.656-6-7a5.727 5.727 0 0 0-3 1 54.968 54.968 0 0 1-12 1c-2.83-.194-5.496-.861-8-2a72.684 72.684 0 0 1-14-8 25.619 25.619 0 0 0-6-6 49.781 49.781 0 0 0-7.5-11 277.938 277.938 0 0 0-5.5-12c.172-.992-.162-1.658-1-2a76.246 76.246 0 0 0-2-12Z" style="opacity:1"/>
  <path fill="#1b1308" d="M318.5 219.5c-1.043 2.556-2.71 4.723-5 6.5-8.247 5.863-17.247 7.53-27 5-1.82-.2-3.153-1.034-4-2.5a59.62 59.62 0 0 0 13 2c3.314.157 6.314-.509 9-2 .992.172 1.658-.162 2-1 .992.172 1.658-.162 2-1l10-7Z" style="opacity:1"/>
  <path fill="#1f1404" d="M276.5 223.5a16.635 16.635 0 0 1 6 5c-3.58-.617-5.58-2.284-6-5Z" style="opacity:1"/>
  <path fill="#b1aeac" d="M386.5 224.5c-.06.543-.393.876-1 1-3.799-1.922-7.799-2.422-12-1.5a250.35 250.35 0 0 1-49.5 18.5c-1.07-.028-1.903-.361-2.5-1a212.77 212.77 0 0 0 52-19.5c4.847-1.156 9.18-.323 13 2.5Z" style="opacity:1"/>
  <path fill="#e99b0b" d="m264.5 223.5 5 2a72.684 72.684 0 0 0 14 8 17.858 17.858 0 0 1 5 5 206.133 206.133 0 0 1-11-3.5 85.686 85.686 0 0 0-10-6.5c-1.452-1.44-2.452-3.106-3-5Z" style="opacity:1"/>
  <path fill="#2d2011" d="M260.5 219.5c.902 1.841 2.236 3.174 4 4 .548 1.894 1.548 3.56 3 5a85.686 85.686 0 0 1 10 6.5 206.133 206.133 0 0 0 11 3.5c2.405 1.268 5.072 1.935 8 2 1.068.934 2.401 1.268 4 1h2l-3 2a308.607 308.607 0 0 1-3 4c.214-1.644-.12-3.144-1-4.5a142.964 142.964 0 0 0-16-4.5 107.303 107.303 0 0 1-15-9 182.279 182.279 0 0 0-11-15 36.87 36.87 0 0 0-2-5.5l1-1.5c2.673 4.019 5.34 8.019 8 12Z" style="opacity:1"/>
  <path fill="#f9eed9" d="M264.5 229.5a107.303 107.303 0 0 0 15 9c3.595 2.149 7.595 3.649 12 4.5 1.46.811 1.793 1.645 1 2.5a11.988 11.988 0 0 0-6-1c-1.105-1.1-2.438-1.767-4-2h-2c-2.289-1.887-4.955-3.221-8-4a25.936 25.936 0 0 1-8-9Z" style="opacity:1"/>
  <path fill="#a06a06" d="M260.5 288.5c4.838.411 9.505 1.078 14 2l-12 2h-2a87.922 87.922 0 0 0-13-3c-.342-.838-1.008-1.172-2-1a85.866 85.866 0 0 0-11-6c-.342-.838-1.008-1.172-2-1a134.914 134.914 0 0 1-19-20c-1.652-1.971-2.819-4.304-3.5-7a15.645 15.645 0 0 0-2.5 4c.043.916.376 1.583 1 2a152.823 152.823 0 0 1 4 19l1 2a197.251 197.251 0 0 0 8 21c-.135 2.054.532 3.721 2 5 1.52 4.51 3.854 8.51 7 12-.172.992.162 1.658 1 2 .397 1.025 1.063 1.192 2 .5 2.788-1.719 5.121-3.885 7-6.5h1a84.607 84.607 0 0 0 12-10c1-.333 1.667-1 2-2 0-.667.333-1 1-1 1.21-.432 2.21-1.099 3-2 2.368-2.853 5.368-4.019 9-3.5-2.618 1.744-2.285 2.911 1 3.5a134.914 134.914 0 0 0-19 20 4.934 4.934 0 0 0-3 .5 367.858 367.858 0 0 1-17 15.5c-1.278-.282-2.278-.949-3-2a16.339 16.339 0 0 0-2-5 1415.28 1415.28 0 0 1-15-39 41.478 41.478 0 0 1-.5-10c-1.602-1.763-2.102-3.596-1.5-5.5-1.65-4.465-2.65-9.132-3-14a7.297 7.297 0 0 0-2-3.5 12.906 12.906 0 0 0 1-4 353.766 353.766 0 0 1-3-21 60.931 60.931 0 0 1 .5-11 307.37 307.37 0 0 1 4 15c9.216 26.717 27.383 44.05 54.5 52Z" style="opacity:1"/>
  <path fill="#fad585" d="M213.5 155.5c2.318 3.018 5.318 5.351 9 7a3.647 3.647 0 0 0 1.5-1c2.604 3.235 5.77 5.902 9.5 8v1a73.514 73.514 0 0 1-9.5-5 76.953 76.953 0 0 0-6.5 10 94.09 94.09 0 0 0 11 7 7.47 7.47 0 0 0 2-3h1c-.934 1.739-.934 3.405 0 5a59.043 59.043 0 0 1 9 5 39.396 39.396 0 0 0 5-7l1 1c-4.868 5.388-3.868 9.055 3 11 .838.342 1.172 1.008 1 2a26.378 26.378 0 0 1-8-4 536.631 536.631 0 0 0-6 9c-.262 1.478.071 2.811 1 4 3.583 1.28 6.583 3.28 9 6a18.654 18.654 0 0 1 7 3 182.279 182.279 0 0 1 11 15c-1.517-.011-2.684-.677-3.5-2a208.709 208.709 0 0 1-7.5-11.5 16.2 16.2 0 0 0-3.5-1.5 45.493 45.493 0 0 0-6.5 11 141.806 141.806 0 0 0 12.5 7 15.014 15.014 0 0 0 3.5-4l1 .5a472.238 472.238 0 0 1-9 18.5 94.09 94.09 0 0 0 11 7c2.763-3.188 4.763-6.855 6-11-2.379-3.035-5.379-5.369-9-7l1-1a127.937 127.937 0 0 1 9.5 5c1.011-.556 1.844-1.222 2.5-2-.285 1.788.048 3.455 1 5 1.713.379 2.713 1.379 3 3a24.257 24.257 0 0 1-5.5-3 189.47 189.47 0 0 0-6.5 11.5c2.991 1.965 5.657 4.132 8 6.5-2.837-1.758-5.837-2.925-9-3.5a50.625 50.625 0 0 0-5 10.5 185.977 185.977 0 0 1 2 3 5.576 5.576 0 0 1-3-1 4967.684 4967.684 0 0 1-6 11 185.977 185.977 0 0 1 2 3c-8.726-3.087-16.393-7.753-23-14a24.257 24.257 0 0 1 5.5 3c2.153-3.634 4.32-7.301 6.5-11a67.449 67.449 0 0 0-11.5-7c-1.261.259-2.261.926-3 2-.728 2.687-1.895 5.02-3.5 7-.667 0-1-.333-1-1a132.282 132.282 0 0 1 5-9.5c-.881-.708-1.547-1.542-2-2.5a50.268 50.268 0 0 1-10.5-5c-.278.916-.778 1.582-1.5 2-2.039-1.411-3.039-3.411-3-6 1.467.792 2.8.792 4 0a941.096 941.096 0 0 1 5-10l-5-3.5c1.756-.14 3.422.36 5 1.5 3.322-3.826 5.156-8.16 5.5-13a63.382 63.382 0 0 1-6.5-5 20.69 20.69 0 0 0-5-1 167.128 167.128 0 0 1-5 11.5 9.568 9.568 0 0 0 3 3c-1.399.595-2.732.428-4-.5a31.147 31.147 0 0 1-2 2 20.69 20.69 0 0 1-1-5c4.104-2.828 6.771-6.828 8-12-8.125-5.399-7.791-6.066 1-2a47.633 47.633 0 0 1 4.5-7c1.11-1.897 1.276-3.73.5-5.5 3.952-2.81 6.619-6.644 8-11.5a40.606 40.606 0 0 0-10-7 61.75 61.75 0 0 0-7 11 3.647 3.647 0 0 0 1 1.5 6.978 6.978 0 0 0-3.5 2.5c.148-1.325-.018-2.492-.5-3.5a142.518 142.518 0 0 0 14-24c-2.446-3.398-5.779-5.565-10-6.5.432-1.21 1.099-2.21 2-3Z" style="opacity:1"/>
  <path fill="#feae09" d="M224.5 233.5c-.687-5.333.98-10 5-14 4.009 2.337 8.009 4.671 12 7-4 8.995-3.333 9.329 2 1a56.76 56.76 0 0 1 12 8 87.45 87.45 0 0 1-6 11 87.45 87.45 0 0 1-11-6c-.551-1.913-.718-3.913-.5-6-1.188 1.063-1.688 2.397-1.5 4a779.072 779.072 0 0 1-12-5Z" style="opacity:1"/>
  <path fill="#feaf09" d="M246.5 211.5c.162 4.823-1.505 9.157-5 13-4.275-1.957-7.941-4.624-11-8 1.068-3.807 2.901-7.14 5.5-10a50.56 50.56 0 0 0 10.5 5ZM219.5 212.5c-.73-1.212-1.73-2.212-3-3a104.13 104.13 0 0 1 5-11c4.557 1.282 8.557 3.615 12 7a74.75 74.75 0 0 1-5 9.5c-3.106-.206-6.106-1.039-9-2.5Z" style="opacity:1"/>
  <path fill="#feae09" d="M236.5 201.5c-.958.453-1.792 1.119-2.5 2a195.558 195.558 0 0 0-10.5-7.5 96.63 96.63 0 0 0 5-10c4.544.435 8.544 2.268 12 5.5a32.24 32.24 0 0 0-4 10Z" style="opacity:1"/>
  <path fill="#0f0d0c" d="m199.5 230.5 2 2a353.766 353.766 0 0 0 3 21 12.906 12.906 0 0 1-1 4 7.297 7.297 0 0 1 2 3.5c.35 4.868 1.35 9.535 3 14-.602 1.904-.102 3.737 1.5 5.5a41.478 41.478 0 0 0 .5 10h-1l-1-2c.219-1.175-.114-2.175-1-3-4.349 1.185-8.349 2.852-12 5-10.961 5.022-14.461 13.355-10.5 25 9.428 9.455 20.928 14.121 34.5 14 1.847 1.073 3.847 1.073 6 0a16.339 16.339 0 0 1 2 5 4.934 4.934 0 0 1-.5 3c-1.378-3.911-3.878-5.578-7.5-5-13.129-.131-24.462-4.464-34-13-.592-2.583-1.258-2.583-2 0 .668 4.686 1.334 9.352 2 14a43.117 43.117 0 0 0 1 13 214.41 214.41 0 0 0 16 11.5c-2.006-.15-4.006-.65-6-1.5a563.247 563.247 0 0 1-17.5-13 2.428 2.428 0 0 0-.5 2 136.258 136.258 0 0 1-9 4.5 103.382 103.382 0 0 1 4.5 8.5 70.588 70.588 0 0 1 9.5 10.5 36.167 36.167 0 0 0 12 8c-2.309.756-4.309.256-6-1.5-1.196 1.059-1.863 2.393-2 4a528.827 528.827 0 0 1 3 36c16.309 6.619 33.142 10.952 50.5 13 17.745.036 35.579-.131 53.5-.5a261.653 261.653 0 0 0 25-7 29.996 29.996 0 0 0 10-5.5 38.675 38.675 0 0 1-2-13.5 209.136 209.136 0 0 0 .5-30.5c-5.76-16.975-17.594-26.475-35.5-28.5a85.275 85.275 0 0 1-16-7 37.118 37.118 0 0 0-12-1.5h-2c-9.006-.166-18.006 0-27 .5a25.55 25.55 0 0 1-6.5 5.5l-1.5-1.5a81.316 81.316 0 0 0 3-2.5 367.858 367.858 0 0 0 17-15.5 4.934 4.934 0 0 1 3-.5c-.282 1.278-.949 2.278-2 3a58.58 58.58 0 0 0-7 7 81.224 81.224 0 0 0 22 .5 104.391 104.391 0 0 0-12-6.5c.848-1.125 1.848-1.125 3 0a442.481 442.481 0 0 1 26 11.5 564.955 564.955 0 0 0 31 10.5c4.547 2.206 8.547 5.206 12 9 2.688-1.013 5.354-2.013 8-3h1a180.882 180.882 0 0 1 44-4.5c-1.558.21-2.891.71-4 1.5a299.388 299.388 0 0 0-33 3.5c-5.31.907-10.31 2.573-15 5 4.143 5.799 6.476 12.299 7 19.5 18.003.167 36.003 0 54-.5a20.303 20.303 0 0 1 3-6.5c.904.709 1.237 1.709 1 3-.454 2.64-1.621 4.973-3.5 7-3.143 11.349-.31 20.849 8.5 28.5 9.53 4.381 17.697 2.548 24.5-5.5 6.123-9.912 10.29-20.579 12.5-32 1.368-1.918 2.368-4.085 3-6.5l-6-1c1.882-.198 3.548-.698 5-1.5 1.967.239 3.801-.094 5.5-1 3.037-7.672 4.37-15.672 4-24-2.719.944-5.552 1.277-8.5 1a18.453 18.453 0 0 1-6-.5c5.114-1.3 10.114-1.8 15-1.5 2.6-28.43-4.9-53.764-22.5-76-3.619 7.581-8.452 14.248-14.5 20-6.927 5.96-14.594 10.626-23 14-.992-.172-1.658.162-2 1a18.453 18.453 0 0 0-6 .5 3.647 3.647 0 0 0-1 1.5 252.541 252.541 0 0 1 11.5 18 204.742 204.742 0 0 1 7.5 23 2.428 2.428 0 0 0 .5 2c5.802-.687 11.635-1.354 17.5-2l2 1c4.627-2.433 8.961-2.433 13 0a191.688 191.688 0 0 1-33 2 172.406 172.406 0 0 1-1 22c-1.756-1.052-2.423-2.719-2-5a36.945 36.945 0 0 0 1-6c-.085-1.833-.752-3.166-2-4a60.931 60.931 0 0 1-11-.5 120.76 120.76 0 0 0 12-1.5c-.03-9.043-1.864-17.71-5.5-26a194.342 194.342 0 0 0-13.5-23c-5.151-.827-10.484-1.327-16-1.5a140.639 140.639 0 0 1-20.5-9.5 49.05 49.05 0 0 1-9.5 2 454.158 454.158 0 0 1 24-10c.886.825 1.219 1.825 1 3a200.512 200.512 0 0 0-10 4.5c4.037 3.518 8.703 5.685 14 6.5 14.834 3.856 28.834 1.689 42-6.5 14.603-11.116 24.103-25.616 28.5-43.5l3.5-5 26-19c10.464-11.22 13.464-24.22 9-39v-1c.273-1.951-.393-3.451-2-4.5.752-.671 1.086-1.504 1-2.5a49.954 49.954 0 0 0 5-11l2-2c.213 2.951-.454 5.618-2 8a27.052 27.052 0 0 1-3 7.5c6.958 20.509 2.291 37.675-14 51.5 3.284 1.157 6.618 1.324 10 .5l27-9a74.37 74.37 0 0 0 14-16.5 39.694 39.694 0 0 0 3-12c.848-2.949.848-5.616 0-8 4.649.986 9.316 1.986 14 3 1.217 10.875 3.717 21.541 7.5 32 20.836 37.834 52.669 53.334 95.5 46.5 43.857-15.188 64.023-46.022 60.5-92.5-8.793-33.292-29.626-54.959-62.5-65-33.632-6.735-61.465 2.932-83.5 29a63.057 63.057 0 0 0-7.5 13 243.215 243.215 0 0 0-8 16 131.078 131.078 0 0 1-20-8c.333-1 1-1.667 2-2h3a60.517 60.517 0 0 0-7-19c0-.667.333-1 1-1 1.435 1.901 3.102 2.234 5 1v2c-1.213.997-1.046 1.997.5 3 1.481-.971 2.315-2.304 2.5-4l2-2c1.753 4.125.42 6.959-4 8.5a50.999 50.999 0 0 1 4.5 13.5 31.557 31.557 0 0 0 9.5 3c10.298-31.142 31.132-50.476 62.5-58 40.411-7.467 71.744 6.199 94 41 18.245 38.749 12.745 73.583-16.5 104.5-34.831 29.403-71.498 31.069-110 5-20.574-16.82-31.241-37.82-32-63a19.06 19.06 0 0 1-7-2.5c-5.149 22.982-19.149 37.148-42 42.5-7.887 2.433-15.887 3.099-24 2a75.99 75.99 0 0 0-14.5 11.5 545.468 545.468 0 0 0-7.5 17c17.259 20.138 25.259 43.638 24 70.5a217.811 217.811 0 0 1-4 36.5h-6a144.672 144.672 0 0 1-14.5 39c-8.868 11.623-19.535 13.623-32 6a54.103 54.103 0 0 1-7-12c-.789-3.591-.622-7.091.5-10.5a9.454 9.454 0 0 1-1.5-2.5c-3.119 11.74-8.952 21.907-17.5 30.5a108.942 108.942 0 0 1-23 9.5c-4.055-.549-7.222-2.549-9.5-6-27.556 14.075-56.556 18.075-87 12-21.068.314-40.735-5.019-59-16-.597-7.725-.43-15.225.5-22.5a208.786 208.786 0 0 1-1.5-18.5c-9.649-7.965-16.482-17.798-20.5-29.5 2.492-6.91 7.159-8.91 14-6a11.532 11.532 0 0 1 3.5 4.5 551.835 551.835 0 0 0-1-32 28.043 28.043 0 0 0-1.5-5c4.307-13.011 13.307-20.678 27-23a278.026 278.026 0 0 1-7-52Z" style="opacity:1"/>
  <path fill="#2b2723" d="M356.5 379.5a5.576 5.576 0 0 0 1 3c-4.215 1.298-8.382 1.298-12.5 0-4.319.001-7.319 2.001-9 6-2.202 9.099-1.869 18.099 1 27 1.886 2.742 4.386 4.409 7.5 5-1.446 1.113-3.113 1.28-5 .5-3.583-2.578-6.416-5.745-8.5-9.5a73.396 73.396 0 0 0-1.5-11.5 169.898 169.898 0 0 0 2-20.5h25Z" style="opacity:1"/>
  <path fill="#423b35" d="M356.5 379.5h23c-2.08 10.576-6.247 20.242-12.5 29-6.478 5.992-13.978 9.992-22.5 12-3.114-.591-5.614-2.258-7.5-5-2.869-8.901-3.202-17.901-1-27 1.681-3.999 4.681-5.999 9-6 4.118 1.298 8.285 1.298 12.5 0a5.576 5.576 0 0 1-1-3Z" style="opacity:1"/>
  <path fill="#3d3732" d="M431.5 371.5c-2.21 11.421-6.377 22.088-12.5 32-6.803 8.048-14.97 9.881-24.5 5.5-8.81-7.651-11.643-17.151-8.5-28.5 1.879-2.027 3.046-4.36 3.5-7a167.78 167.78 0 0 0 16.5-2c8.606.049 17.106.049 25.5 0Z" style="opacity:1"/>
  <path fill="#262321" d="M390.5 358.5c-.423 2.281.244 3.948 2 5v3a397.872 397.872 0 0 1 41-4c-1.452.802-3.118 1.302-5 1.5l6 1c-.632 2.415-1.632 4.582-3 6.5-8.394.049-16.894.049-25.5 0a167.78 167.78 0 0 1-16.5 2c.237-1.291-.096-2.291-1-3 .217-4.205.883-8.205 2-12Z" style="opacity:1"/>
  <path fill="#5b4623" d="M185.5 319.5c9.538 8.536 20.871 12.869 34 13 3.622-.578 6.122 1.089 7.5 5a4.934 4.934 0 0 0 .5-3c.722 1.051 1.722 1.718 3 2a81.316 81.316 0 0 1-3 2.5l1.5 1.5a25.55 25.55 0 0 0 6.5-5.5c8.994-.5 17.994-.666 27-.5-1.068.934-2.401 1.268-4 1 1.218 20.101 1.051 40.434-.5 61a282.042 282.042 0 0 1-1.5-9.5 716.055 716.055 0 0 0 1-51.5h-4a192.613 192.613 0 0 1-3 21.5c1.693 5.632 2.693 11.465 3 17.5-1.823 9.816-1.323 19.483 1.5 29 3.132 4.518 6.465 4.851 10 1l1-14a444.896 444.896 0 0 0 6-23 5832.229 5832.229 0 0 1-.5-32h-4c.166 9.672 0 19.339-.5 29-3.614 10.965-5.281 22.298-5 34a12.862 12.862 0 0 1-1.5-6c.61-5.322 1.11-10.656 1.5-16 3.661-13.765 4.495-27.765 2.5-42a37.118 37.118 0 0 1 12 1.5 85.275 85.275 0 0 0 16 7c17.906 2.025 29.74 11.525 35.5 28.5a209.136 209.136 0 0 1-.5 30.5 38.675 38.675 0 0 0 2 13.5 29.996 29.996 0 0 1-10 5.5 261.653 261.653 0 0 1-25 7c-17.921.369-35.755.536-53.5.5-17.358-2.048-34.191-6.381-50.5-13a528.827 528.827 0 0 0-3-36c.137-1.607.804-2.941 2-4 1.691 1.756 3.691 2.256 6 1.5a36.167 36.167 0 0 1-12-8 70.588 70.588 0 0 0-9.5-10.5 103.382 103.382 0 0 0-4.5-8.5 136.258 136.258 0 0 0 9-4.5 260.658 260.658 0 0 1 16 11.5c.937.692 1.603.525 2-.5 1.994.85 3.994 1.35 6 1.5a214.41 214.41 0 0 1-16-11.5 43.117 43.117 0 0 1-1-13c.999-4.505.999-9.172 0-14Z" style="opacity:1"/>
  <path fill="#604a25" d="M262.5 334.5h2c1.995 14.235 1.161 28.235-2.5 42-.39 5.344-.89 10.678-1.5 16a12.862 12.862 0 0 0 1.5 6c-.281-11.702 1.386-23.035 5-34 .5-9.661.666-19.328.5-29h4c.138 10.684.304 21.351.5 32a444.896 444.896 0 0 1-6 23l-1 14c-3.535 3.851-6.868 3.518-10-1-2.823-9.517-3.323-19.184-1.5-29-.307-6.035-1.307-11.868-3-17.5a192.613 192.613 0 0 0 3-21.5h4a716.055 716.055 0 0 1-1 51.5c.446 3.175.946 6.342 1.5 9.5 1.551-20.566 1.718-40.899.5-61 1.599.268 2.932-.066 4-1Z" style="opacity:1"/>
  <path fill="#607e8c" d="M389.5 348.5c1.248.834 1.915 2.167 2 4a36.945 36.945 0 0 1-1 6c-1.117 3.795-1.783 7.795-2 12a20.303 20.303 0 0 0-3 6.5c-17.997.5-35.997.667-54 .5-.524-7.201-2.857-13.701-7-19.5 4.69-2.427 9.69-4.093 15-5a299.388 299.388 0 0 1 33-3.5c5.858.322 11.525-.011 17-1Z" style="opacity:1"/>
  <path fill="#bdb5a8" d="M196.5 356.5c-.397 1.025-1.063 1.192-2 .5a260.658 260.658 0 0 0-16-11.5 2.428 2.428 0 0 1 .5-2 563.247 563.247 0 0 0 17.5 13Z" style="opacity:1"/>
  <path fill="#c2b48f" d="M170.5 339.5h6c-.185 4.689-2.685 7.355-7.5 8-.944-.763-1.444-1.763-1.5-3a11.948 11.948 0 0 1 3-5Z" style="opacity:1"/>
  <path fill="#607e8c" d="M433.5 362.5a397.872 397.872 0 0 0-41 4v-3a172.406 172.406 0 0 0 1-22c11.08.282 22.08-.384 33-2 2.885.306 5.552-.027 8-1 2.948.277 5.781-.056 8.5-1 .37 8.328-.963 16.328-4 24-1.699.906-3.533 1.239-5.5 1Z" style="opacity:1"/>
  <path fill="#afa176" d="M248.5 323.5c.891.61 1.891.943 3 1 4.133 1.9 8.133 4.067 12 6.5a81.224 81.224 0 0 1-22-.5 58.58 58.58 0 0 1 7-7Z" style="opacity:1"/>
  <path fill="#bd8926" d="M302.5 325.5c1.764-1.212 3.43-.879 5 1-.124.607-.457.94-1 1l-4-2Z" style="opacity:1"/>
  <path fill="#b5ad9f" d="M185.5 319.5c.999 4.828.999 9.495 0 14-.666-4.648-1.332-9.314-2-14 .742-2.583 1.408-2.583 2 0Z" style="opacity:1"/>
  <path fill="#263238" d="M406.5 280.5c-.843 3.016-2.343 5.683-4.5 8a284.081 284.081 0 0 1-14.5 14c-1.22 1.55-1.22 3.216 0 5 .104 2.203.77 4.203 2 6 .296 1.903.963 3.57 2 5a201.309 201.309 0 0 0 3 16c-.011 1.545-.344 2.878-1 4a204.742 204.742 0 0 0-7.5-23 252.541 252.541 0 0 0-11.5-18 3.647 3.647 0 0 1 1-1.5 18.453 18.453 0 0 1 6-.5c2.72 4.191 3.387 3.858 2-1 8.406-3.374 16.073-8.04 23-14Z" style="opacity:1"/>
  <path fill="#faad0e" d="M240.5 315.5c-1.879 2.615-4.212 4.781-7 6.5-.937.692-1.603.525-2-.5.838-3.013 2.338-5.68 4.5-8a9.175 9.175 0 0 0 4.5 2Z" style="opacity:1"/>
  <path fill="#aa812a" d="M389.5 313.5c1.685.684 2.685 2.017 3 4-.124.607-.457.94-1 1-1.037-1.43-1.704-3.097-2-5Z" style="opacity:1"/>
  <path fill="#a78031" d="M270.5 311.5v-1c1.175-.219 2.175.114 3 1-.925 1.062-1.925 1.062-3 0Z" style="opacity:1"/>
  <path fill="#fcad0b" d="M223.5 307.5a20.532 20.532 0 0 0 8 3 11.803 11.803 0 0 1 2 3.5 44.053 44.053 0 0 0-3 5.5c-3.146-3.49-5.48-7.49-7-12Z" style="opacity:1"/>
  <path fill="#d89d1d" d="M270.5 309.5v1c-1.175.219-2.175-.114-3-1 .925-1.062 1.925-1.062 3 0Z" style="opacity:1"/>
  <path fill="#354751" d="M279.5 301.5a28.926 28.926 0 0 0 5 3.5c-1.134 1.016-.801 1.683 1 2-1.333.667-1.333 1.333 0 2 2.829 2.827 6.163 4.827 10 6l-2 1c3.908 2.406 6.908 5.572 9 9.5l4 2c.111.617.444 1.117 1 1.5l-4 1a183.542 183.542 0 0 1 7.5 10.5l1-1a75.568 75.568 0 0 1 8 9l1-1c.346 2.348 1.513 4.181 3.5 5.5-.667.667-1.333.667-2 0-3.12-3.868-6.787-6.035-11-6.5a564.955 564.955 0 0 1-31-10.5 442.481 442.481 0 0 0-26-11.5c3.72-4.224 7.72-8.391 12-12.5a8.43 8.43 0 0 1 4-.5c1.075 1.062 2.075 1.062 3 0-.825-.886-1.825-1.219-3-1v-1c2.974-2.638 5.974-5.305 9-8Z" style="opacity:1"/>
  <path fill="#d3991a" d="M291.5 319.5c.235-.597.735-.93 1.5-1a19.953 19.953 0 0 1 4.5 3l-1 1a19.221 19.221 0 0 0-5-3Z" style="opacity:1"/>
  <path fill="#ad812a" d="M279.5 314.5c2.423-.938 4.756-.438 7 1.5-2.422.135-4.755-.365-7-1.5Z" style="opacity:1"/>
  <path fill="#a37e2e" d="M387.5 302.5c.994 1.834.994 3.501 0 5-1.22-1.784-1.22-3.45 0-5Z" style="opacity:1"/>
  <path fill="#fdae04" d="M253.5 305.5a84.607 84.607 0 0 1-12 10 335.278 335.278 0 0 0-5-4 188.565 188.565 0 0 1 6-11.5c4.185.659 7.852 2.492 11 5.5Z" style="opacity:1"/>
  <path fill="#fad482" d="M260.5 292.5h2a308.918 308.918 0 0 0-3 8c-.79.901-1.79 1.568-3 2a89.87 89.87 0 0 1 4-10Z" style="opacity:1"/>
  <path fill="#332b22" d="M209.5 290.5h1a1415.28 1415.28 0 0 0 15 39c-2.153 1.073-4.153 1.073-6 0a4.934 4.934 0 0 0 3-.5 174.617 174.617 0 0 1-13-38.5Z" style="opacity:1"/>
  <path fill="#a87d24" d="M381.5 295.5c.342-.838 1.008-1.172 2-1 1.387 4.858.72 5.191-2 1Z" style="opacity:1"/>
  <path fill="#ca8a11" d="M274.5 290.5h1c1.837.139 2.17.806 1 2-5.383-1.957-6.716-.624-4 4-.774 1.211-1.607 1.211-2.5 0-.579 1.428-.412 2.762.5 4h-1c-3.285-.589-3.618-1.756-1-3.5-3.632-.519-6.632.647-9 3.5.948-2.64 1.948-5.307 3-8l12-2Z" style="opacity:1"/>
  <path fill="#966407" d="M275.5 290.5c1.864-1.293 3.864-1.293 6 0-3.661 3.327-7.328 6.66-11 10-.912-1.238-1.079-2.572-.5-4 .893 1.211 1.726 1.211 2.5 0-2.716-4.624-1.383-5.957 4-4 1.17-1.194.837-1.861-1-2Z" style="opacity:1"/>
  <path fill="#fdac06" d="M247.5 289.5a87.922 87.922 0 0 1 13 3 89.87 89.87 0 0 0-4 10c-.667 0-1 .333-1 1a54.408 54.408 0 0 1-12-7 701.521 701.521 0 0 0 4-7Z" style="opacity:1"/>
  <path fill="#3f525b" d="M371.5 297.5a194.342 194.342 0 0 1 13.5 23c3.636 8.29 5.47 16.957 5.5 26a120.76 120.76 0 0 1-12 1.5c3.652.499 7.318.665 11 .5-5.475.989-11.142 1.322-17 1 1.109-.79 2.442-1.29 4-1.5a180.882 180.882 0 0 0-44 4.5c-.548-1.894-1.548-3.56-3-5l-1 1a514.367 514.367 0 0 1 3 4c-2.646.987-5.312 1.987-8 3-3.453-3.794-7.453-6.794-12-9 4.213.465 7.88 2.632 11 6.5.667.667 1.333.667 2 0-1.987-1.319-3.154-3.152-3.5-5.5l-1 1a75.568 75.568 0 0 0-8-9l-1 1a183.542 183.542 0 0 0-7.5-10.5l4-1c-.556-.383-.889-.883-1-1.5.543-.06.876-.393 1-1-1.57-1.879-3.236-2.212-5-1-2.092-3.928-5.092-7.094-9-9.5l2-1c-3.837-1.173-7.171-3.173-10-6-1.333-.667-1.333-1.333 0-2-1.801-.317-2.134-.984-1-2a28.926 28.926 0 0 1-5-3.5 109.257 109.257 0 0 1 9.5-8c8.627.389 16.96.722 25 1a79.916 79.916 0 0 0 16.5-3 189.935 189.935 0 0 0 25 7.5c4.333.667 8.667.667 13 0l-1-1a8.43 8.43 0 0 1 4-.5Z" style="opacity:1"/>
  <path fill="#b38426" d="M332.5 352.5h-1a514.367 514.367 0 0 0-3-4l1-1c1.452 1.44 2.452 3.106 3 5Z" style="opacity:1"/>
  <path fill="#d19018" d="M322.5 339.5c2.257 1.062 3.423 2.728 3.5 5-1.802-1.289-2.969-2.956-3.5-5Z" style="opacity:1"/>
  <path fill="#b88b27" d="M313.5 331.5c2.848.67 4.348 2.337 4.5 5-2.2-1.151-3.7-2.818-4.5-5Z" style="opacity:1"/>
  <path fill="#151513" d="M354.5 321.5c-3.936-3.151-4.936-7.151-3-12l-3-2.5c1.049-.492 2.049-.326 3 .5 6.564-7.155 13.731-7.822 21.5-2 1.009 1.525 1.509 3.192 1.5 5 4.338.122 4.672.455 1 1-.086 5.93-2.753 10.264-8 13a12.403 12.403 0 0 0-2.5 4c-1.731-3.835-3.065-3.502-4 1a10.258 10.258 0 0 0-1.5-4c-2.286-.633-3.952-1.966-5-4Z" style="opacity:1"/>
  <path fill="#6c9111" d="M365.5 303.5c2.907 1.234 5.241 3.234 7 6a6.802 6.802 0 0 1-3 1.5c1.786.196 3.119 1.029 4 2.5-.785 4.275-2.952 7.609-6.5 10l-1-3c-.196 1.786-1.029 3.119-2.5 4-.613-1.48-.946-2.813-1-4-.886.825-1.219 1.825-1 3-2.608.1-4.942-.567-7-2a36.012 36.012 0 0 1-3-8 15.69 15.69 0 0 1 2-4c2.386 1.488 3.052 1.155 2-1 .453-.958 1.119-1.792 2-2.5l9-1c-.556-.383-.889-.883-1-1.5Z" style="opacity:1"/>
  <path fill="#b7af7f" d="M365.5 303.5c.111.617.444 1.117 1 1.5l-9 1c-.881.708-1.547 1.542-2 2.5-.543-.06-.876-.393-1-1 2.58-4.461 6.247-5.795 11-4Z" style="opacity:1"/>
  <path fill="#e9e6e2" d="M208.5 288.5c-11.388 1.771-18.888 8.105-22.5 19-.505-4.014.495-7.681 3-11 2.664-1.498 4.83-3.498 6.5-6 3.651-2.148 7.651-3.815 12-5 .886.825 1.219 1.825 1 3Z" style="opacity:1"/>
  <path fill="#27333a" d="M371.5 297.5a8.43 8.43 0 0 0-4 .5l1 1a42.479 42.479 0 0 1-13 0 189.935 189.935 0 0 1-25-7.5 79.916 79.916 0 0 1-16.5 3c-8.04-.278-16.373-.611-25-1a109.257 109.257 0 0 0-9.5 8 5999.972 5999.972 0 0 1-9 8c-1.075-1.062-2.075-1.062-3 0 .825.886 1.825 1.219 3 1v1a8.43 8.43 0 0 0-4 .5 207.002 207.002 0 0 0-12 12.5c-1.152-1.125-2.152-1.125-3 0a5.727 5.727 0 0 1-3-1c1.051-.722 1.718-1.722 2-3a1461.397 1461.397 0 0 0 35-30.5c5.32-1.513 10.653-1.347 16 .5 4.355-.078 8.688-.078 13 0a40.016 40.016 0 0 1 11-2 49.05 49.05 0 0 0 9.5-2 140.639 140.639 0 0 0 20.5 9.5c5.516.173 10.849.673 16 1.5Z" style="opacity:1"/>
  <path fill="#fcd47b" d="M232.5 281.5c.992-.172 1.658.162 2 1-.827 2.315-2.16 4.315-4 6 3.062 4.029 7.062 6.195 12 6.5a19.209 19.209 0 0 0 3-6.5c.992-.172 1.658.162 2 1a701.521 701.521 0 0 1-4 7 54.408 54.408 0 0 0 12 7c-.333 1-1 1.667-2 2-3.148-3.008-6.815-4.841-11-5.5a188.565 188.565 0 0 0-6 11.5 335.278 335.278 0 0 1 5 4h-1a9.175 9.175 0 0 1-4.5-2c-2.162 2.32-3.662 4.987-4.5 8-.838-.342-1.172-1.008-1-2a44.053 44.053 0 0 1 3-5.5 11.803 11.803 0 0 0-2-3.5 20.532 20.532 0 0 1-8-3c-1.468-1.279-2.135-2.946-2-5 2.286-2.963 4.119-6.296 5.5-10 .667-1 .667-2 0-3a292.422 292.422 0 0 0-13.5-8l-1-2a5.576 5.576 0 0 1 3 1 32.065 32.065 0 0 1 2.5-4c-.218 2.087-.051 4.087.5 6l10 6a37 37 0 0 0 4-7Z" style="opacity:1"/>
  <path fill="#feae07" d="M231.5 310.5c-1.773-1.392-3.773-2.559-6-3.5-1.074-.739-1.741-1.739-2-3a46.197 46.197 0 0 1 7-12.5c3.965 1.799 7.298 4.299 10 7.5a175.453 175.453 0 0 0-5 11.5c-1.2.792-2.533.792-4 0Z" style="opacity:1"/>
  <path fill="#afa175" d="m208.5 288.5 1 2a174.617 174.617 0 0 0 13 38.5 4.934 4.934 0 0 1-3 .5c-13.572.121-25.072-4.545-34.5-14-3.961-11.645-.461-19.978 10.5-25-1.67 2.502-3.836 4.502-6.5 6-2.505 3.319-3.505 6.986-3 11 3.612-10.895 11.112-17.229 22.5-19Z" style="opacity:1"/>
  <path fill="#d6900e" d="M285.5 287.5c-1.765.961-3.765 1.295-6 1 .786-4.409 2.786-4.743 6-1Z" style="opacity:1"/>
  <path fill="#ef9f07" d="M274.5 281.5c1.923.295 3.59 1.128 5 2.5a9.175 9.175 0 0 0-2 4.5h-4v-2c.801-1.542 1.134-3.208 1-5Z" style="opacity:1"/>
  <path fill="#fdad05" d="M234.5 282.5a85.866 85.866 0 0 1 11 6 19.209 19.209 0 0 1-3 6.5c-4.938-.305-8.938-2.471-12-6.5 1.84-1.685 3.173-3.685 4-6Z" style="opacity:1"/>
  <path fill="#feb00a" d="M213.5 281.5a292.422 292.422 0 0 1 13.5 8c.667 1 .667 2 0 3-1.381 3.704-3.214 7.037-5.5 10a197.251 197.251 0 0 1-8-21Z" style="opacity:1"/>
  <path fill="#221f1b" d="M299.5 243.5h3c-.32 3.452-.32 6.785 0 10a11.38 11.38 0 0 1-2.5 2 148.444 148.444 0 0 0-3.5 28c18.984-.607 37.317-3.94 55-10 .863 1.44.863 2.774 0 4 .865 1.083 1.865 1.249 3 .5a324.602 324.602 0 0 0 17-11.5c-5.764 6.717-12.764 11.717-21 15 .219-1.175-.114-2.175-1-3a454.158 454.158 0 0 0-24 10 40.016 40.016 0 0 0-11 2 361.138 361.138 0 0 0-13 0c-5.347-1.847-10.68-2.013-16-.5a1461.397 1461.397 0 0 1-35 30.5 134.914 134.914 0 0 1 19-20h1c3.672-3.34 7.339-6.673 11-10-2.136-1.293-4.136-1.293-6 0h-1a120.336 120.336 0 0 0-14-2c0-.667.333-1 1-1h6c1.765.961 3.765 1.295 6 1h6c2.235.295 4.235-.039 6-1h2c2.846-.309 4.346-1.975 4.5-5 .576-1.877.409-3.711-.5-5.5.392-1.011 1.059-1.511 2-1.5a64.768 64.768 0 0 1-1-7c1.285-3.089 1.951-6.422 2-10 .801-1.542 1.134-3.208 1-5a19.22 19.22 0 0 0 1-6 308.607 308.607 0 0 0 3-4Z" style="opacity:1"/>
  <path fill="#442e0d" d="M292.5 268.5a64.768 64.768 0 0 0 1 7c-.941-.011-1.608.489-2 1.5.909 1.789 1.076 3.623.5 5.5-.154 3.025-1.654 4.691-4.5 5v-1c1.431-.381 2.264-1.381 2.5-3 .32-3.714.82-7.381 1.5-11v-2c-.172-.992.162-1.658 1-2Z" style="opacity:1"/>
  <path fill="#efa105" d="M291.5 272.5c-.68 3.619-1.18 7.286-1.5 11-.236 1.619-1.069 2.619-2.5 3-2.113-1.048-3.78-2.548-5-4.5a123.817 123.817 0 0 1 4.5-9.5c1.49-1.228 2.99-1.228 4.5 0Z" style="opacity:1"/>
  <path fill="#fad17a" d="M291.5 250.5a71.254 71.254 0 0 1 2 4c.683-.363 1.35-.696 2-1 .134 1.792-.199 3.458-1 5-2.166 2.998-3.833 6.332-5 10 .247 1.213.914 1.88 2 2v2c-1.51-1.228-3.01-1.228-4.5 0a123.817 123.817 0 0 0-4.5 9.5c1.22 1.952 2.887 3.452 5 4.5v1h-2c-3.214-3.743-5.214-3.409-6 1h-2a9.175 9.175 0 0 1 2-4.5c-1.41-1.372-3.077-2.205-5-2.5v-2c2.058 1.433 4.392 2.1 7 2a168.871 168.871 0 0 1 5-11.5c-2.677-.814-4.677-2.314-6-4.5 2.463.281 4.63 1.281 6.5 3a68.345 68.345 0 0 1 6.5-11.5c-.744-1.039-1.744-1.539-3-1.5.801-1.542 1.134-3.208 1-5Z" style="opacity:1"/>
  <path fill="#f9a90e" d="M213.5 261.5a134.914 134.914 0 0 0 19 20 37 37 0 0 1-4 7l-10-6c-.551-1.913-.718-3.913-.5-6a32.065 32.065 0 0 0-2.5 4 5.576 5.576 0 0 0-3-1 152.823 152.823 0 0 0-4-19c1.898-1.234 3.565-.901 5 1Z" style="opacity:1"/>
  <path fill="#b44511" d="M394.5 245.5a102.415 102.415 0 0 1-5.5 12c-9.73 13.562-21.23 25.229-34.5 35-5.297-.815-9.963-2.982-14-6.5a200.512 200.512 0 0 1 10-4.5c8.236-3.283 15.236-8.283 21-15a177.724 177.724 0 0 0 11.5-11c2.487-4.835 6.32-8.168 11.5-10Z" style="opacity:1"/>
  <path fill="#fcdd96" d="M260.5 271.5c3.003 1.339 6.003 2.672 9 4 .172.992-.162 1.658-1 2a35.061 35.061 0 0 1-8-6Z" style="opacity:1"/>
  <path fill="#ee9d12" d="M260.5 271.5a35.061 35.061 0 0 0 8 6c.313 3.542-.021 6.875-1 10h-6a647.542 647.542 0 0 0-8-3 185.977 185.977 0 0 0-2-3c2.009-3.672 4.009-7.339 6-11a5.576 5.576 0 0 0 3 1Z" style="opacity:1"/>
  <path fill="#ef9c06" d="M253.5 267.5c.221 1.235.888 2.235 2 3a87.683 87.683 0 0 0-6 11 42.171 42.171 0 0 1-11-7.5 70.004 70.004 0 0 1 5-10 58.329 58.329 0 0 1 10 3.5Z" style="opacity:1"/>
  <path fill="#f1ab0b" d="M294.5 258.5c-.049 3.578-.715 6.911-2 10-.838.342-1.172 1.008-1 2-1.086-.12-1.753-.787-2-2 1.167-3.668 2.834-7.002 5-10Z" style="opacity:1"/>
  <path fill="#faac07" d="M280.5 265.5c1.323 2.186 3.323 3.686 6 4.5a168.871 168.871 0 0 0-5 11.5c-2.608.1-4.942-.567-7-2a77.557 77.557 0 0 0 3-14h3Z" style="opacity:1"/>
  <path fill="#40525b" d="M434.5 338.5c-2.448.973-5.115 1.306-8 1-4.039-2.433-8.373-2.433-13 0l-2-1c-5.865.646-11.698 1.313-17.5 2a2.428 2.428 0 0 1-.5-2c.656-1.122.989-2.455 1-4a201.309 201.309 0 0 1-3-16c.543-.06.876-.393 1-1-.315-1.983-1.315-3.316-3-4-1.23-1.797-1.896-3.797-2-6 .994-1.499.994-3.166 0-5a284.081 284.081 0 0 0 14.5-14c2.157-2.317 3.657-4.984 4.5-8 6.048-5.752 10.881-12.419 14.5-20 17.6 22.236 25.1 47.57 22.5 76-4.886-.3-9.886.2-15 1.5 1.973.495 3.973.662 6 .5Z" style="opacity:1"/>
  <path fill="#563d17" d="M281.5 248.5a78.47 78.47 0 0 0-2 10c-1.625 2.716-1.292 5.049 1 7h-3a77.557 77.557 0 0 1-3 14v2c.134 1.792-.199 3.458-1 5-.647-.774-.98-1.774-1-3 1.535-12.356 4.202-24.356 8-36 .607.124.94.457 1 1Z" style="opacity:1"/>
  <path fill="#a9720a" d="M272.5 238.5c3.045.779 5.711 2.113 8 4a8.43 8.43 0 0 0 .5 4c.278-.916.778-1.582 1.5-2 .268 1.599-.066 2.932-1 4-.06-.543-.393-.876-1-1-3.798 11.644-6.465 23.644-8 36 .02 1.226.353 2.226 1 3v2c-2.235.295-4.235-.039-6-1 .979-3.125 1.313-6.458 1-10 .838-.342 1.172-1.008 1-2a104.306 104.306 0 0 1 3-14c.608-5.097 1.941-10.097 4-15-.287-1.621-1.287-2.621-3-3-.952-1.545-1.285-3.212-1-5Z" style="opacity:1"/>
  <path fill="#feaf06" d="M272.5 261.5a104.306 104.306 0 0 0-3 14 4245.951 4245.951 0 0 1-9-4 185.977 185.977 0 0 0-2-3 50.625 50.625 0 0 1 5-10.5c3.163.575 6.163 1.742 9 3.5Z" style="opacity:1"/>
  <path fill="#f6d07d" d="M213.5 261.5c-1.435-1.901-3.102-2.234-5-1-.624-.417-.957-1.084-1-2a15.645 15.645 0 0 1 2.5-4c.681 2.696 1.848 5.029 3.5 7Z" style="opacity:1"/>
  <path fill="#feb014" d="M284.5 253.5c1.49 1.78 3.49 2.446 6 2 1.256-.039 2.256.461 3 1.5a68.345 68.345 0 0 0-6.5 11.5c-1.87-1.719-4.037-2.719-6.5-3-2.292-1.951-2.625-4.284-1-7 1.663-1.993 2.83-4.326 3.5-7 .278.916.778 1.582 1.5 2Z" style="opacity:1"/>
  <path fill="#ef9d07" d="M230.5 270.5a25.658 25.658 0 0 1-6-6c1.605-1.98 2.772-4.313 3.5-7 .739-1.074 1.739-1.741 3-2a67.449 67.449 0 0 1 11.5 7c-2.18 3.699-4.347 7.366-6.5 11a24.257 24.257 0 0 0-5.5-3Z" style="opacity:1"/>
  <path fill="#feaf0a" d="M253.5 267.5a63.811 63.811 0 0 1-8-7.5 92.456 92.456 0 0 0 5-10.5 53.743 53.743 0 0 1 12 7 103.59 103.59 0 0 1-6.5 12c-.671-.752-1.504-1.086-2.5-1Z" style="opacity:1"/>
  <path fill="#fefdfa" d="M289.5 248.5c1 .333 1.667 1 2 2 .134 1.792-.199 3.458-1 5-2.51.446-4.51-.22-6-2v-5h5Z" style="opacity:1"/>
  <path fill="#ea9708" d="M226.5 251.5c.453.958 1.119 1.792 2 2.5a132.282 132.282 0 0 0-5 9.5c-4.217-4.229-7.217-9.229-9-15 .722-.418 1.222-1.084 1.5-2a50.268 50.268 0 0 0 10.5 5Z" style="opacity:1"/>
  <path fill="#f7ad1b" d="M279.5 238.5a142.964 142.964 0 0 1 16 4.5c.88 1.356 1.214 2.856 1 4.5a19.22 19.22 0 0 1-1 6c-.65.304-1.317.637-2 1a71.254 71.254 0 0 0-2-4c-.333-1-1-1.667-2-2-1.109-.79-2.442-1.29-4-1.5.752-.671 1.086-1.504 1-2.5a11.988 11.988 0 0 1 6 1c.793-.855.46-1.689-1-2.5-4.405-.851-8.405-2.351-12-4.5Z" style="opacity:1"/>
  <path fill="#fbcf72" d="M282.5 242.5c1.562.233 2.895.9 4 2 .086.996-.248 1.829-1 2.5 1.558.21 2.891.71 4 1.5h-5v5c-.722-.418-1.222-1.084-1.5-2-.67 2.674-1.837 5.007-3.5 7a78.47 78.47 0 0 1 2-10c.934-1.068 1.268-2.401 1-4v-2Z" style="opacity:1"/>
  <path fill="#7590ce" d="M590.5 244.5c1.149.291 1.816 1.124 2 2.5l-1.5 7.5c-.71 1.473-1.876 2.14-3.5 2a30.555 30.555 0 0 1 3-12Z" style="opacity:1"/>
  <path fill="#191208" d="M280.5 242.5h2v2c-.722.418-1.222 1.084-1.5 2a8.43 8.43 0 0 1-.5-4Z" style="opacity:1"/>
  <path fill="#fbad08" d="M276.5 246.5c-2.059 4.903-3.392 9.903-4 15-2.343-2.368-5.009-4.535-8-6.5a189.47 189.47 0 0 1 6.5-11.5 24.257 24.257 0 0 0 5.5 3Z" style="opacity:1"/>
  <path fill="#b4b1b0" d="M318.5 242.5c-2.673 1.549-6.84 2.549-12.5 3l-2.5-.5c.916-.278 1.582-.778 2-1.5 4.324-.427 8.658-.761 13-1Z" style="opacity:1"/>
  <path fill="#feae08" d="M235.5 241.5a59.19 59.19 0 0 1 12 6l1 2a3927.775 3927.775 0 0 1-5 9.5c-4.356-.466-8.19-2.3-11.5-5.5a78.133 78.133 0 0 1 3.5-12Z" style="opacity:1"/>
  <path fill="#738fce" d="M621.5 237.5c3.443 3.339 4.443 7.339 3 12-2.469-3.59-3.469-7.59-3-12Z" style="opacity:1"/>
  <path fill="#6f8cce" d="M583.5 235.5c.876-.131 1.543.202 2 1-1.24 4.151-3.24 7.817-6 11-1.22-.387-1.887-1.22-2-2.5a90.343 90.343 0 0 1 6-9.5Z" style="opacity:1"/>
  <path fill="#eb990b" d="M303.5 234.5a32.508 32.508 0 0 1-3 7c-1.599.268-2.932-.066-4-1a24.551 24.551 0 0 1-5-5 54.968 54.968 0 0 0 12-1Z" style="opacity:1"/>
  <path fill="#dcb362" d="m306.5 233.5-3 6a9.86 9.86 0 0 0 6 1c-2.107.968-4.441 1.302-7 1h-2a32.508 32.508 0 0 0 3-7 5.727 5.727 0 0 1 3-1Z" style="opacity:1"/>
  <path fill="#f1c66d" d="M283.5 233.5c2.504 1.139 5.17 1.806 8 2a24.551 24.551 0 0 0 5 5c-2.928-.065-5.595-.732-8-2a17.858 17.858 0 0 0-5-5Z" style="opacity:1"/>
  <path fill="#fcac08" d="M224.5 233.5a100.753 100.753 0 0 1 10 7.5 127.937 127.937 0 0 0-5 9.5c-.825.886-1.825 1.219-3 1a52.897 52.897 0 0 0-10-7 67.254 67.254 0 0 0 4.5-10c1.011-.837 2.178-1.17 3.5-1Z" style="opacity:1"/>
  <path fill="#f7a503" d="M312.5 240.5h-3a9.86 9.86 0 0 1-6-1l3-6c6.263-1.656 8.263.677 6 7Z" style="opacity:1"/>
  <path fill="#738fce" d="M627.5 228.5c3.102 2.156 5.268 5.156 6.5 9 .781 1.444.614 2.777-.5 4-3.143-3.741-5.143-8.075-6-13Z" style="opacity:1"/>
  <path fill="#292521" d="M504.5 188.5a39.694 39.694 0 0 1-3 12 74.37 74.37 0 0 1-14 16.5l-27 9c-3.382.824-6.716.657-10-.5 16.291-13.825 20.958-30.991 14-51.5a27.052 27.052 0 0 0 3-7.5c.617-.111 1.117-.444 1.5-1 .771 9.399 1.604 18.566 2.5 27.5a54.877 54.877 0 0 1-1.5 11.5 52.26 52.26 0 0 0-4.5 13 58.787 58.787 0 0 0 20-7.5 85.933 85.933 0 0 1 11.5-10.5c2.029-4.08 4.529-7.746 7.5-11Z" style="opacity:1"/>
  <path fill="#708dce" d="M542.5 202.5c1.175-.219 2.175.114 3 1a32.432 32.432 0 0 1-9.5 7c-1.059-.13-1.892-.63-2.5-1.5 2.358-3.168 5.358-5.335 9-6.5Z" style="opacity:1"/>
  <path fill="#335ec6" d="M632.5 187.5c1.322-.17 2.489.163 3.5 1 .667 9.667.667 19.333 0 29-1.388 1.054-2.888 1.22-4.5.5a612.247 612.247 0 0 1-15-15.5 322.289 322.289 0 0 0-2.5 27 7.293 7.293 0 0 1-2 3c-1.274-4.485-1.941-9.152-2-14a156.422 156.422 0 0 1 0-25c1.466-1.825 3.299-2.325 5.5-1.5 4.167 5.5 9 10.333 14.5 14.5a235.739 235.739 0 0 1 2.5-19Z" style="opacity:1"/>
  <path fill="#355fc6" d="M538.5 187.5c11.671-.167 23.338 0 35 .5 2.198 1.67 2.532 3.67 1 6-5.208 1.397-10.541 1.897-16 1.5a349.209 349.209 0 0 1 0 46c-2.258-2.177-3.758-4.843-4.5-8a386.048 386.048 0 0 1-3.5-40 72.367 72.367 0 0 1-12-.5c-2.518-1.81-2.518-3.643 0-5.5Z" style="opacity:1"/>
  <path fill="#305dc6" d="M646.5 185.5c14.368 5.065 19.534 15.065 15.5 30-3.501 9.012-10.001 14.012-19.5 15a2822.683 2822.683 0 0 1 4-45Z" style="opacity:1"/>
  <path fill="#c5c7cd" d="M649.5 191.5c5.354 3.198 8.021 8.031 8 14.5-.851 6.535-3.684 12.035-8.5 16.5.226-10.314.393-20.647.5-31Z" style="opacity:1"/>
  <path fill="#315dc6" d="M593.5 181.5c1.644-.214 3.144.12 4.5 1a67.546 67.546 0 0 1 3 17 306.347 306.347 0 0 1 0 35 38.852 38.852 0 0 1-1.5 7c-.825.886-1.825 1.219-3 1a511.822 511.822 0 0 0-2-26.5c-4.221-1.622-8.554-2.288-13-2a322.585 322.585 0 0 1-9 14.5c-1.22-.387-1.887-1.22-2-2.5 5.457-16.085 13.124-30.918 23-44.5Z" style="opacity:1"/>
  <path fill="#c4c6cd" d="M592.5 193.5c1.316 2.587 1.983 5.587 2 9l-.5 9a58.46 58.46 0 0 0-9.5-3 1386.656 1386.656 0 0 0 8-15Z" style="opacity:1"/>
  <path fill="#718ece" d="M654.5 175.5a41.644 41.644 0 0 1 8.5 6c.749 1.135.583 2.135-.5 3-3.426-2.42-6.092-5.42-8-9Z" style="opacity:1"/>
  <path fill="#7690ce" d="M531.5 176.5a68.456 68.456 0 0 1 14 4.5 37.613 37.613 0 0 1-13-1c-.837-1.011-1.17-2.178-1-3.5Z" style="opacity:1"/>
  <path fill="#728ece" d="M665.5 162.5c6.378 1.206 6.045 2.706-1 4.5a12.494 12.494 0 0 1-7 0 48.484 48.484 0 0 1 8-4.5Z" style="opacity:1"/>
  <path fill="#748fce" d="M535.5 150.5a8.43 8.43 0 0 1 4 .5c3.244 2.679 5.577 5.512 7 8.5a26.852 26.852 0 0 0-6-3.5c-2.579-1.076-4.246-2.909-5-5.5Z" style="opacity:1"/>
  <path fill="#738ece" d="M660.5 146.5c1.478-.262 2.811.071 4 1-3.312 3.811-7.312 6.311-12 7.5a97.162 97.162 0 0 0 8-8.5Z" style="opacity:1"/>
  <path fill="#6b89cc" d="M552.5 140.5c7.489-1.156 15.155-1.322 23-.5-.544.717-1.211 1.217-2 1.5-6.813-.991-13.813-1.325-21-1Z" style="opacity:1"/>
  <path fill="#2f5dc6" d="M573.5 141.5c.789-.283 1.456-.783 2-1.5-7.845-.822-15.511-.656-23 .5-1.478.262-2.811-.071-4-1a3.647 3.647 0 0 1 1-1.5 173.439 173.439 0 0 1 33-2 3.943 3.943 0 0 1 1 2 445.747 445.747 0 0 1-26 31c8.115-.827 16.282-1.66 24.5-2.5l5.5.5c1.291 2.09.624 3.424-2 4a279.711 279.711 0 0 1-34 5.5c-4.882-.481-6.049-2.814-3.5-7a339.24 339.24 0 0 1 25.5-28Z" style="opacity:1"/>
  <path fill="#dd9f03" d="M507.5 134.5c-.185 1.696-1.019 3.029-2.5 4-1.546-1.003-1.713-2.003-.5-3a5.727 5.727 0 0 1 3-1Z" style="opacity:1"/>
  <path fill="#315dc6" d="M637.5 129.5c5.759-1.073 9.759 1.094 12 6.5-1.454 1.659-2.787 1.326-4-1-10.932-.969-14.099 3.531-9.5 13.5a77.742 77.742 0 0 1 10 11 42.479 42.479 0 0 1 0 13c-5.595 9.719-13.762 13.219-24.5 10.5-4.829-2.608-6.496-6.442-5-11.5 7.866 9.555 15.366 9.222 22.5-1a16.242 16.242 0 0 0 0-8l-10-12c-2.109-9.103.725-16.103 8.5-21Z" style="opacity:1"/>
  <path fill="#6f8cce" d="M626.5 116.5c1.193.47 1.86 1.47 2 3-3.087 11.626-4.254 11.626-3.5 0l1.5-3Z" style="opacity:1"/>
  <path fill="#7690ce" d="M571.5 117.5c4.595 1.866 6.595 5.199 6 10-3.256-2.587-5.256-5.92-6-10Z" style="opacity:1"/>
  <path fill="#345fc6" d="M590.5 115.5c.617.111 1.117.444 1.5 1a422.686 422.686 0 0 0 2 32c.866 4.942 2.7 9.442 5.5 13.5 3.456 1.123 6.29.29 8.5-2.5a119.108 119.108 0 0 0 3.5-22.5 53.791 53.791 0 0 1 0-19.5c2.136.972 3.303 2.639 3.5 5 3.415 14.115 3.081 28.115-1 42-4.563 6.059-10.397 7.559-17.5 4.5a35.063 35.063 0 0 1-6.5-7.5c-2.394-11.463-3.06-23.13-2-35a34.357 34.357 0 0 1 2.5-11Z" style="opacity:1"/>
  <path fill="#eeedec" d="M619.5 104.5c-.311.978-.978 1.645-2 2-28.317-3.859-52.65 3.975-73 23.5a4.934 4.934 0 0 1-3 .5 4.934 4.934 0 0 1-.5 3 94.308 94.308 0 0 0-12 14c-.399-.228-.565-.562-.5-1a63.057 63.057 0 0 1 7.5-13c22.035-26.068 49.868-35.735 83.5-29Z" style="opacity:1"/>
</svg>