<svg xmlns="http://www.w3.org/2000/svg" width="128" height="128"><path fill="#fff" d="M72.085 57.647v4.324h-2.449v14.81h-5.74v-14.81h-2.105v-4.324h2.105v-.995c0-1.913.651-3.482 1.799-4.439 1.301-1.071 2.602-1.416 5.511-1.454h.842v4.286h-.651c-1.11 0-1.76.689-1.76 1.837v.765h2.448zm26.175 19.134v-10.18c0-2.985-.842-4.248-2.794-4.248-2.105 0-3.176 1.339-3.176 3.98v10.447h-5.74v-10.447c0-2.641-.995-3.98-2.947-3.98-2.105 0-3.215 1.378-3.215 3.98v10.447h-5.74v-19.133h5.434v2.028c1.11-1.799 2.832-2.679 5.281-2.679s4.286 1.148 5.511 3.406c1.378-2.219 3.483-3.406 6.047-3.406 1.99 0 3.674.651 4.975 1.913 1.722 1.645 2.105 3.023 2.105 7.424v10.447h-5.741v.001zm-71.735-8.531c.191 3.75 3.52 6.811 7.385 6.811 2.717 0 5.548-1.913 6.544-4.439h2.64c-1.339 3.865-5.166 6.62-9.184 6.62-5.51 0-9.91-4.362-9.91-9.872s4.362-9.911 9.834-9.911c3.597 0 6.926 2.028 8.648 5.242.804 1.492 1.11 2.908 1.186 5.548h-17.143v.001zm7.385-8.61c-3.635 0-6.658 2.641-7.309 6.429h14.503c-.918-3.903-3.75-6.429-7.194-6.429zm25.638 17.117h-2.87l-5.013-7.538-4.974 7.538h-2.87l6.429-9.604-6.429-9.26h2.908l4.936 7.27 4.936-7.27h2.946l-6.467 9.26 6.468 9.604z"/></svg>