<svg xmlns="http://www.w3.org/2000/svg" width="128" height="128"><path fill="#fff" d="M86.171 71.157c-1.694 0-3.73.245-6.108.734-2.377.489-4.068.734-5.081.734-2.245 0-3.367-.652-3.367-1.956 0-.747.755-1.471 2.269-2.173 1.515-.7 2.385-1.05 2.614-1.05l2.004.292c1.465.163 2.636.245 3.516.245 5.538 0 10.122-1.783 13.755-5.349 3.63-3.566 5.447-8.329 5.447-14.29 0-4.167-1.009-7.783-3.032-10.845l5.813-4.25-8.451-7.671-4.784 5.57c-3.163-1.758-7.088-2.638-11.774-2.638-5.918 0-10.914 1.787-14.99 5.36-4.075-3.572-9.07-5.36-14.988-5.36-4.69 0-8.614.88-11.774 2.638l-4.788-5.57-8.452 7.671 5.815 4.25c-2.02 3.062-3.031 6.678-3.031 10.845 0 5.961 1.815 10.723 5.447 14.29 3.632 3.567 8.215 5.349 13.753 5.349.879 0 2.052-.082 3.518-.245l2.002-.292c.226 0 1.098.35 2.611 1.05 1.515.701 2.272 1.426 2.272 2.173 0 1.304-1.124 1.956-3.37 1.956-1.009 0-2.702-.245-5.079-.734-2.378-.488-4.414-.734-6.108-.734-11.886 0-17.83 4.774-17.83 14.315 0 5.276 2.378 9.417 7.132 12.431 4.755 3.012 10.488 4.518 17.195 4.518 5.598 0 10.823-1.154 15.674-3.46 4.851 2.306 10.075 3.46 15.673 3.46 6.709 0 12.441-1.507 17.193-4.518 4.757-3.014 7.134-7.156 7.134-12.431-.001-9.541-5.944-14.315-17.83-14.315zm-6.547-32.632c2.671 0 4.846.912 6.525 2.736 1.676 1.824 2.516 4.054 2.516 6.692 0 3.192-.783 5.7-2.349 7.523-1.563 1.825-3.791 2.736-6.692 2.736-2.9 0-5.203-.937-6.913-2.81-1.374-1.506-2.197-3.408-2.466-5.705.044-.586.068-1.183.068-1.793 0-.534-.019-1.058-.056-1.574.285-2.043 1.128-3.766 2.53-5.169 1.757-1.756 4.037-2.636 6.837-2.636zm-18.251 25.844c.952-.619 1.828-1.28 2.628-1.982.8.702 1.675 1.363 2.628 1.982-.934.393-1.81.897-2.628 1.513-.819-.616-1.695-1.121-2.628-1.513zm-6.084-8.966c-1.71 1.872-4.014 2.81-6.913 2.81-2.898 0-5.129-.912-6.692-2.736-1.563-1.823-2.345-4.331-2.345-7.523 0-2.638.838-4.868 2.516-6.692 1.676-1.824 3.85-2.736 6.521-2.736 2.801 0 5.081.88 6.84 2.637 1.404 1.405 2.246 3.132 2.529 5.18-.037.512-.055 1.033-.055 1.563 0 .606.023 1.198.067 1.78-.267 2.302-1.089 4.209-2.468 5.717zm33.324 34.71c-2.28 1.041-5.177 1.562-8.695 1.562-5.242 0-11.5-2.697-15.766-6.606l-.062.102c-4.268 3.898-10.769 6.504-16.006 6.504-3.517 0-6.416-.521-8.696-1.562-2.279-1.043-3.419-2.477-3.419-4.301 0-3.093 2.525-4.639 7.57-4.639 1.37 0 3.405.162 6.108.486 2.703.327 4.739.49 6.107.49 3.463 0 6.211-.513 8.246-1.537 2.036 1.024 4.783 1.537 8.247 1.537 1.369 0 3.402-.162 6.107-.49 2.703-.325 4.741-.486 6.107-.486 5.046 0 7.57 1.546 7.57 4.639.001 1.824-1.137 3.258-3.418 4.301z"/></svg>