<svg xmlns="http://www.w3.org/2000/svg" width="128" height="128">
	<path d="M59.1,104.3c-3.2,0-5.7-1.8-6.8-4.8c-0.8-2.3-1.6-4.6-2.3-6.9c-0.2-0.7-0.5-0.9-1.3-0.6c-2.1,0.8-4.3,1.5-6.5,2.2
		c-3,0.9-5.8,0.6-7.9-1.8c-3.3-3.6-1.7-9.5,2.9-11.2c2.3-0.9,4.6-1.6,7-2.3c0.7-0.2,0.9-0.5,0.7-1.3c-1.5-4.4-3-8.8-4.5-13.3
		c-0.3-0.8-0.6-0.9-1.4-0.7c-2.2,0.8-4.4,1.6-6.6,2.3c-2.5,0.8-4.9,0.6-7-1.3c-3.9-3.5-2.6-9.8,2.3-11.6c2.3-0.8,4.6-1.6,6.9-2.3
		c0.8-0.3,1-0.6,0.7-1.4c-0.8-2.1-1.5-4.3-2.2-6.5c-1.6-4.9,1.4-9.3,6.5-9.6c2.9-0.2,5.8,1.8,6.9,4.6c0.8,2.3,1.6,4.7,2.4,7
		c0.2,0.8,0.6,0.9,1.3,0.7c4.4-1.5,8.8-3,13.3-4.4c0.8-0.2,0.9-0.5,0.7-1.3c-0.8-2.2-1.5-4.4-2.2-6.5c-1.3-4,0.5-8,4.4-9.3
		c3.9-1.3,7.8,0.7,9.2,4.8c0.7,2.2,1.5,4.4,2.2,6.5c0.2,0.8,0.6,0.9,1.3,0.7c2.6-0.9,5.1-1.9,7.8-2.5c4.3-0.9,8.3,2.5,8.2,6.7
		c-0.1,2.7-2.1,5.2-5.1,6.2c-2.2,0.8-4.4,1.5-6.6,2.2c-0.8,0.2-0.9,0.6-0.6,1.3c1.6,4.5,3.1,8.9,4.6,13.4c0.2,0.7,0.5,0.9,1.2,0.6
		c2.4-0.8,4.8-1.7,7.2-2.4c4.1-1.3,8.3,1,9.1,5c0.8,3.9-0.7,6.6-4.7,8.1c-2.4,0.9-4.8,1.7-7.3,2.5c-0.7,0.2-0.8,0.5-0.5,1.1
		c0.8,2.3,1.6,4.6,2.3,6.9c1.6,4.6-1.1,8.9-5.9,9.6c-3.2,0.4-6.4-1.6-7.5-4.8c-0.8-2.3-1.6-4.7-2.4-7c-0.2-0.7-0.5-0.9-1.2-0.6
		c-4.5,1.6-9,3.1-13.5,4.6c-0.6,0.2-0.7,0.5-0.5,1.1c0.8,2.4,1.7,4.8,2.4,7.2C67.3,99.8,64,104.3,59.1,104.3z M68.3,53.8
		c-0.2,0.1-0.4,0.1-0.6,0.2c-4.5,1.5-8.9,3-13.4,4.5c-0.6,0.2-0.8,0.5-0.6,1.1c1.6,4.5,3.1,9.1,4.6,13.7c0.2,0.6,0.4,0.7,1,0.5
		c4.5-1.5,9.1-3.1,13.7-4.6c0.7-0.2,0.8-0.5,0.5-1.1c-0.5-1.5-1-3-1.5-4.5c-1-3-2.1-6.1-3.1-9.1C68.9,54.2,68.9,53.7,68.3,53.8z"/>
</svg>
