<svg viewBox="0 0 16 16" xmlns="http://www.w3.org/2000/svg" fill-rule="evenodd" clip-rule="evenodd" stroke-linejoin="round" stroke-miterlimit="1.414"><path d="M14.008 13.3c-.113-.114-.21-.18-.294-.204-.085-.025-.16-.007-.22.053l-.056.05c-.58.58-1.26 1.04-2.012 1.35-.78.33-1.61.49-2.464.49-.855 0-1.684-.17-2.465-.5-.753-.32-1.43-.78-2.012-1.36-.606-.61-1.062-1.29-1.357-2.01-.287-.71-.38-1.25-.41-1.42l-.008-.04c-.04-.21-.23-.22-.504-.18-.114.02-.46.07-.428.32v.01c.093.57.255 1.14.483 1.68.37.86.89 1.64 1.56 2.31.67.67 1.45 1.19 2.31 1.56.9.38 1.85.57 2.84.57.98 0 1.94-.19 2.83-.57.87-.37 1.65-.89 2.31-1.56l.06-.06c.08-.08.14-.22-.15-.51M8.95 1.71c-.938 0-1.936.19-2.67.507-.077.03-.124.093-.134.182-.01.08.013.19.07.33.044.12.165.42.4.33.75-.29 1.58-.45 2.334-.45.857 0 1.688.17 2.47.5.62.26 1.207.64 1.844 1.19.046.04.096.06.146.06.125 0 .244-.12.346-.24.17-.19.287-.35.12-.51-.61-.58-1.276-1.01-2.1-1.36-.895-.38-1.846-.57-2.826-.57M7.672 9.65c0 .106.098.2.156.255l.018.018c.1.098.194.148.28.148.074 0 .118-.03.134-.05.044-.04.54-.54.586-.59l.552.55c.052.06.107.09.172.09.088 0 .184-.05.286-.15.238-.24.12-.37.06-.44l-.56-.55.585-.59c.13-.14.02-.28-.09-.4-.16-.16-.32-.2-.42-.11l-.58.58-.58-.58c-.03-.03-.07-.04-.11-.04-.07 0-.17.06-.27.16-.18.18-.22.31-.12.41l.59.59-.58.59c-.05.05-.07.1-.07.15m-3.72.87c0 .01.09.24.14.35.26.63.64 1.19 1.12 1.67.48.48 1.04.86 1.67 1.12.65.27 1.34.41 2.04.41.71 0 1.4-.14 2.04-.41.63-.26 1.19-.64 1.67-1.12.48-.48.86-1.04 1.12-1.67.28-.64.41-1.33.41-2.04 0-.7-.13-1.39-.41-2.03-.26-.62-.64-1.18-1.12-1.67-.48-.48-1.04-.85-1.66-1.12-.64-.27-1.33-.41-2.04-.41s-1.43.14-2.06.41c-.51.22-1.37.77-1.88 1.29v.01V.99h7.24c.26-.004.26-.37.26-.493 0-.12 0-.49-.26-.49H4.38c-.212 0-.344.17-.344.34v6.07c0 .19.244.33.47.38.443.094.545-.05.653-.2l.01-.02c.16-.242.68-.762.69-.77.8-.804 1.88-1.25 3.03-1.25 1.14 0 2.22.445 3.03 1.25.81.81 1.25 1.883 1.25 3.02 0 1.143-.45 2.216-1.25 3.02-.8.796-1.91 1.25-3.05 1.25-.78 0-1.52-.204-2.16-.594V8.81c0-.49.21-1.02.57-1.43.41-.46.97-.71 1.58-.71.59 0 1.15.225 1.56.635.41.408.63.95.63 1.528 0 1.23-.97 2.19-2.21 2.19-.24 0-.68-.107-.69-.11-.25-.076-.36.27-.39.386-.14.44.07.52.11.54.4.12.66.14 1 .14 1.75 0 3.17-1.42 3.17-3.17 0-1.74-1.42-3.15-3.17-3.15-.86 0-1.66.32-2.26.92-.58.56-.91 1.32-.91 2.06v3.05-.01c-.33-.37-.65-.92-.87-1.49-.09-.22-.28-.18-.54-.1-.12.03-.46.14-.39.39z" fill-rule="nonzero"/></svg>