<svg viewBox="0 0 16 16" xmlns="http://www.w3.org/2000/svg" fill-rule="evenodd" clip-rule="evenodd" stroke-linejoin="round" stroke-miterlimit="1.414"><path d="M15.31 5.21c.158-.548.237-1.118.237-1.695 0-.576-.08-1.145-.236-1.693-.2-.685-.7-1.222-1.37-1.476C13.28.116 12.6 0 11.9 0c-.693 0-1.378.116-2.034.346-.67.254-1.17.792-1.373 1.476-.158.552-.238 1.12-.238 1.693 0 .572.08 1.142.238 1.694.203.68.704 1.22 1.373 1.47.657.23 1.34.34 2.035.34.7 0 1.38-.12 2.04-.35.67-.26 1.17-.79 1.38-1.48zm-1.964-1.694c0 .28-.042.56-.126.825-.114.37-.417.64-.79.71-.173.04-.35.05-.528.05-.178 0-.356-.01-.53-.05-.372-.07-.675-.34-.79-.7-.083-.26-.125-.54-.125-.82 0-.28.042-.56.126-.82.114-.36.417-.63.79-.7.17-.03.35-.05.53-.05.178 0 .356.02.527.05.373.07.676.34.79.7.084.27.126.55.126.83zM7.51 12.73c.155-.547.235-1.117.235-1.694 0-.576-.08-1.145-.236-1.693-.21-.685-.71-1.223-1.38-1.476-.66-.23-1.35-.346-2.04-.346-.7 0-1.38.12-2.04.35-.67.26-1.17.79-1.37 1.48-.16.55-.24 1.12-.24 1.7 0 .57.08 1.15.23 1.7.2.69.7 1.23 1.37 1.48.66.23 1.34.35 2.04.35.69 0 1.37-.11 2.03-.34.66-.25 1.16-.79 1.37-1.47zm-1.967-1.693c0 .282-.042.56-.125.825-.115.36-.418.63-.79.704-.173.034-.35.05-.53.05-.177 0-.355-.016-.528-.05-.373-.073-.676-.343-.79-.704-.083-.265-.126-.543-.126-.825 0-.283.043-.56.126-.826.114-.36.417-.63.79-.7.17-.03.35-.05.53-.05.18 0 .356.02.528.05.372.08.675.35.79.71.083.27.125.55.125.83zm0-7.535h2.202c-.002-.57-.08-1.136-.236-1.68C7.3 1.137 6.8.6 6.13.346 5.478.116 4.792 0 4.1 0c-.695 0-1.38.116-2.037.346C1.393.6.893 1.138.69 1.822.533 2.374.453 2.944.453 3.515c0 .572.08 1.142.237 1.694.203.68.704 1.22 1.373 1.47.657.23 1.342.34 2.036.34.69 0 1.37-.12 2.03-.35.67-.25 1.17-.79 1.37-1.48.02-.1.05-.19.07-.29L5.5 3.95c-.02.13-.05.258-.09.384-.115.363-.418.633-.79.706-.173.034-.35.05-.53.05-.177 0-.355-.016-.528-.05-.373-.073-.676-.343-.79-.704-.083-.27-.126-.547-.126-.83 0-.282.043-.56.126-.825.114-.36.417-.63.79-.7.17-.03.35-.05.53-.05.18 0 .356.02.528.05.38.08.68.35.79.71.09.26.13.54.13.81zm2.95 5.84c-.158.553-.238 1.122-.238 1.694V16h2.202v-4.964c0-.282.042-.56.126-.825.114-.36.417-.63.79-.7.17-.03.35-.05.53-.05.178 0 .356.02.527.05.373.08.676.35.79.71.084.27.126.55.126.83 0 .28-.042.56-.126.83-.114.36-.417.63-.79.71-.173.04-.35.05-.528.05-.178 0-.356-.01-.53-.05-.07-.01-.14-.03-.207-.06l.746 2.05c.7 0 1.38-.12 2.03-.35.67-.25 1.17-.79 1.38-1.47.16-.54.24-1.11.24-1.69s-.08-1.15-.23-1.69c-.2-.68-.7-1.22-1.37-1.47-.66-.23-1.34-.35-2.04-.35-.69 0-1.38.12-2.03.35-.67.25-1.17.79-1.37 1.48z" fill-rule="nonzero"/></svg>