<svg viewBox="0 0 16 16" xmlns="http://www.w3.org/2000/svg" fill-rule="evenodd" clip-rule="evenodd" stroke-linejoin="round" stroke-miterlimit="1.414"><path d="M11.822 2.31l-.358 1.866c-.043.202-.297.415-.533.415H7.61c-.374 0-.642.26-.642.63v.41c0 .38.27.64.644.64h2.82c.263 0 .523.29.465.57l-.357 1.84c-.033.16-.21.42-.524.42H7.712c-.42 0-.546.06-.826.4-.28.35-2.804 3.38-2.804 3.38-.025.03-.05.02-.05-.01V2.28c0-.24.207-.52.518-.52h6.85c.25 0 .486.237.422.547zm.3 7.32c.096-.385 1.164-5.856 1.52-7.59M12.327 0H3.792C2.615 0 2.27.886 2.27 1.443v13.56c0 .627.336.86.526.937.19.077.713.142 1.027-.22 0 0 4.03-4.675 4.098-4.744.11-.105.11-.105.21-.105h2.61c1.1 0 1.27-.78 1.39-1.24.1-.38 1.17-5.85 1.52-7.59C13.92.72 13.58 0 12.33 0z" fill-rule="nonzero"/></svg>