<svg viewBox="0 0 16 16" xmlns="http://www.w3.org/2000/svg" fill-rule="evenodd" clip-rule="evenodd" stroke-linejoin="round" stroke-miterlimit="1.414"><path d="M16 8.212c0 1.668-.57 3.15-1.735 4.46-.423.486-.762.718-.994.718-.08 0-.17-.022-.23-.084-.06-.063-.1-.148-.1-.232 0-.126.15-.317.45-.593 1.21-1.16 1.82-2.6 1.82-4.31 0-1.9-.63-3.44-1.88-4.63-.25-.23-.38-.42-.38-.57 0-.08.04-.17.11-.23s.15-.1.23-.1c.28 0 .7.34 1.23 1.02 1 1.27 1.5 2.8 1.5 4.57zM0 7.788c0-1.668.57-3.15 1.735-4.46.423-.486.762-.718.994-.718.08 0 .17.022.23.084.06.063.1.126.1.21 0 .125-.15.317-.45.612C1.42 4.68.8 6.116.8 7.83c0 1.9.634 3.443 1.883 4.63.254.23.38.422.38.57 0 .084-.04.17-.107.232-.066.062-.15.106-.235.106-.29 0-.69-.34-1.22-1.013C.49 11.107 0 9.585 0 7.788zm11.816 4.586H4.483c-.233 0-.446-.192-.446-.446s.19-.445.446-.445h7.333c.232 0 .446.19.446.445-.004.258-.192.446-.446.446zM7.81 6.42c.132-.017.23.41.242.5.03.235-.048.463-.155.67-.398.776-1.32 1.403-1.076 2.386.11.424.33.718 1.01 1.08-.23.08-.55-.074-.73-.2-.8-.545-1.31-1.44-1.26-2.416.02-.31.08-.615.16-.913.25-.855.76-1.603 1.06-2.435.15-.4.26-.884.14-1.304-.06-.206-.17-.4-.31-.567-.04-.05-.27-.31-.36-.28.4-.15.76-.01 1.11.2.27.16.48.39.64.65.3.48.42 1.03.48 1.59.02.23-.01.79.26.9.28.12.5-.35.56-.54.13-.43-.04-.84-.21-1.24.04.08.19.17.26.23l.24.23c.29.3.47.67.59 1.07.11.36.16.73.18 1.09.05.75-.12 1.52-.42 2.21-.13.31-.3.6-.52.85-.213.25-.5.41-.73.64.54-.54.827-1.42.75-2.09-.04-.37-.16-.71-.44-1.05 0 0 .03.24.058.39.05.33-.17.68-.43.64-.19-.02-.09-.43-.07-.56.07-.39-.02-.77-.163-1.13-.14-.34-.4-.61-.8-.55z"/></svg>