<svg viewBox="0 0 16 16" xmlns="http://www.w3.org/2000/svg" fill-rule="evenodd" clip-rule="evenodd" stroke-linejoin="round" stroke-miterlimit="1.414"><g fill-rule="nonzero"><path d="M8.827.002V1.55c.86.107 1.958.415 2.984 1.197l-.79 1.072-.01-.01s-.82-.7-2.18-.92v4.28h4.22c-.08-.61-.29-1.34-.77-2.08l1.13-.75s.84 1.14 1.02 2.83H16V0H8.827zm2.89 15.468l-.4.065-.87-5.363.232-.037 4.37-.01-3.77 2.71.42 2.636zM8.825 8.826V16h7.172V8.827l-7.172-.002zm-4.522 4.502l.79-1.07h.012s.775.658 2.068.895V8.825H3.06c.073.622.28 1.384.783 2.157l-1.123.746s-.864-1.174-1.02-2.904H0v7.173h7.173V14.51c-.842-.12-1.89-.432-2.87-1.18zM3.318 1.312c-.113 0-.206.07-.206.156s.092.155.206.155c.113 0 .205-.07.206-.155 0-.086-.093-.156-.206-.156z"/><path d="M3.337 1.74c-.334 0-.604-.27-.604-.6 0-.33.27-.598.604-.598.334 0 .604.27.604.6 0 .33-.27.598-.6.598zm-.89.04l-.692.35c-.062-.076-.11-.137-.16-.206l-.873.326-.184-.29 1.375-.285.297-.062.486-.1-.413.154c.053.04.098.073.163.114zM1.117.51c.252.383.55.698.934.988l-.67.12C1.13 1.26.91.912.71.485l.406.024zM0 0v7.173h1.605c-.068-.656-.14-2.537.988-4.098 0 0-.25-.24-.587-.634l-.736.63-.318-.27 1.912-1.09-.225.19c.27.16.54.28.81.37 0 0 .93-.52 1.85-1.77l.22.01c-.17.56-.7 1.52-1.53 2.29 0 0 2.2.96 2.7 2.59-.14-.08-.93-.25-1.32-.16-.07-.11-.81-1.62-1.93-1.6 0 0-.25.3-.49 1.08-.21.69-.12 2.14-.09 2.48h4.3V0H0z"/></g></svg>