<svg viewBox="0 0 16 16" xmlns="http://www.w3.org/2000/svg" fill-rule="evenodd" clip-rule="evenodd" stroke-linejoin="round" stroke-miterlimit="1.414"><path d="M1.914 16h-.65c-.017-.044-.032-.088-.046-.132-.144-.444-.396-.993-.462-1.436-.098-.656.52-.693.916-.977.61-.44 1.09-.683 1.752-1.08.196-.118.787-.415.854-.552.134-.272-.23-.655-.327-.868-.15-.337-.23-.623-.25-.955-.55-.088-.97-.418-1.23-.79-.42-.617-.71-1.758-.35-2.625.03-.068.17-.203.19-.308.04-.206-.07-.48-.08-.7-.04-1.128.19-2.1.95-2.44C3.49 1.91 4.59 1.502 5.63.892c.387-.228.816-.374 1.26-.537 1.58-.585 4.018-.475 5.33.522.557.422 1.45 1.314 1.77 1.96.842 1.703.782 4.55.192 6.623-.08.28-.194.688-.355 1.022-.112.233-.46.7-.417.907.043.21.793.78.954.93.29.28.84.65.883 1 .048.37-.165.89-.273 1.25-.145.48-.29.96-.437 1.42H1.913zm7.403-2.362c-.363-.198-.908-.414-1.376-.503-.58-.11-.52.792-.5 1.33.02.427.24.878.34 1.162.05.132.06.273.17.3.2.045.86-.218 1.05-.32.4-.218.71-.562 1.05-.793.01-.112.01-.225.02-.337-.2-.1-.43-.173-.73-.186.21-.1.5-.1.69-.22l.01-.13c-.33-.02-.46-.17-.68-.29zm4.97 1.958c.13-.412.24-.814.31-1.168.04-.192.144-.612.12-.783-.04-.307-.457-.534-.67-.724-.39-.35-.634-.65-1.04-.98-.166.25-.52.41-.655.61.964-.46 1.138 1.75.76 2.46.06.22.26.3.342.49l-.058.11h.86c.01 0 .022 0 .03.01zm-4.423-.007c-.032-.05-.066-.09-.1-.14l-.2.13h.3zm1.848 0c.006-.14.012-.27.02-.4-.353.02-.55-.32-.797-.35-.216-.03-.4.24-.68.13-.064.07-.123.15-.19.21.103.12.196.25.282.39h.544c.01-.11.09-.19.2-.19.11 0 .19.08.19.18h.44zm1.41 0c-.21-.32-.632-.6-1.12-.37l-.02.36h1.14zm-5.673 0l-.07-.23c-.15-.48-.24-.84-.27-1.12-.61-.29-1.25-.58-1.77-.95-.1-.07-.74-.9-.82-.87-1.16.45-2.24 1.24-3.21 1.99.17.37.32.76.46 1.16h5.67zm5.51-1.41c-.02-.34-.11-1.04-.32-1.16-.44-.26-1.23.52-1.56.63.03.1.09.18.1.32.19-.05.43-.02.6.06-.2.02-.42.02-.55.11-.05.13.01.32-.02.51.46.13 1 .2 1.59.22.11-.15.15-.43.14-.72zm-2.72-.24c-.03.25.03.34.08.63.84.26.69-1.16-.09-.64zM5.84 13c-.3.304.848.72 1.21.743 0-.194.11-.376.09-.515-.433-.077-1.002-.027-1.297-.23zm3.71.142c0 .03-.04.02-.045.043.387.302.675.365 1.202.34.236-.174.447-.375.695-.537-.57.05-1.288.404-1.85.153zm2.28-11.818C10.76.72 8.93.264 7.78.837c-.92.462-2.18 1.227-2.6 2.195.4.935-.11 1.79-.15 2.74-.012.505.24.946.26 1.495-.134.225-.55.253-.84.238-.097-.486-.267-1.033-.77-1.088-.71-.077-1.23.51-1.26 1.122-.04.72.555 1.91 1.39 1.83.326-.03.406-.36.76-.36.19.38-.297.5-.35.77-.01.07.04.34.07.47.156.63.496 1.44.83 1.92.423.6 1.256.7 2.153.76.16-.35.75-.32 1.136-.23-.46-.18-.89-.63-1.25-1.02-.41-.45-.82-.94-.84-1.52.77 1.07 1.4 2 2.8 2.47 1.06.35 2.3-.17 3.11-.74.34-.24.54-.62.78-.96.9-1.29 1.32-3.14 1.23-4.93-.04-.74-.04-1.48-.29-1.97-.26-.52-1.13-.98-1.65-.52-.1-.51.42-.82 1.03-.64-.44-.57-.89-1.24-1.51-1.59zM9.054 9.93c.41 1.03 1.817.91 3.004.883-.056.13-.17.29-.31.343-.38.155-1.43.272-1.958-.008-.337-.18-.55-.582-.735-.818-.09-.114-.53-.405-.007-.406zm.11-.58c.595.31 1.68.345 2.488.32.045.178.044.396.046.61-1.035.053-2.258-.203-2.53-.93zm4.45-.39c-.315.6-.763 1.265-1.692 1.285-.016-.19-.03-.49 0-.603.71-.068 1.15-.43 1.695-.677zm-.432-.445c-.68.44-1.436.917-2.55.807-.234-.207-.324-.667-.093-.972.12.208.04.59.38.646.63.11 1.36-.386 1.82-.56.28-.475-.03-.65-.28-.955-.52-.62-1.22-1.4-1.2-2.34.21-.15.23.23.26.3.27.64.95 1.45 1.45 2 .12.14.32.26.34.35.06.26-.17.57-.14.74zm-8.96-.45c-.21-.123-.262-.66-.512-.674-.357-.02-.292.7-.29 1.12-.247-.22-.29-.91-.11-1.26-.205-.1-.297.11-.412.19.147-1.06 1.56-.49 1.326.64zm-1.08-4.07c-.457.504-.36 1.45-.306 2.125.83-.523 1.933.04 1.922.93.397-.01.148-.496.077-.81-.235-1.02.395-2.125.028-3.06-.71.056-1.294.347-1.72.81zm6.08.743c.205.374.27.765.56 1.046.13.128.383.283.258.635-.03.08-.244.26-.367.3-.45.13-1.503.02-1.147-.54.374.01.876.24 1.155-.03-.21-.35-.59-1.02-.45-1.42zm4.134-.01h.045c.22.446.4.917.67 1.31-.18.42-1.37.794-1.35.038.26-.113.7-.023.93-.167-.13-.37-.32-.67-.29-1.18zM8.736 3.65c-.948-.22-1.42.395-1.706 1.035-.256-.062-.154-.41-.09-.588.17-.467.854-1.088 1.412-1.004.24.038.566.257.384.556zM6.428 1.06c-1.04.294-2.373 1.05-2.8 1.983.33-.047.56-.214.887-.234.123-.01.285.05.427.01.282-.07.52-.71.734-.94.208-.23.457-.33.628-.54.11-.06.272-.05.28-.22-.05-.05-.1-.09-.156-.07z"/></svg>