<svg viewBox="0 0 16 16" xmlns="http://www.w3.org/2000/svg" fill-rule="evenodd" clip-rule="evenodd" stroke-linejoin="round" stroke-miterlimit="1.414"><path d="M2.076 11.964c-.02-.142-.014-.476-.014-.476H1.87c-.442 0-.614-.178-.614-.62V9.11c0-.794-.186-.988-.558-1.11v-.04c.372-.122.558-.325.558-1.118V5.09c0-.442.172-.58.613-.58h.19s.01-.306.03-.483c-.09-.012-.44-.02-.44-.02-.89 0-1.14.43-1.14 1.32v1.595c0 .652-.38.74-.52.74v.634c.14 0 .51.088.51.73v1.605c0 .89.25 1.31 1.14 1.31 0 0 .35.03.42.03z"/><path d="M1.535 8.394c.326 0 .79.112.79.932v2.044c0 1.133.272 1.7 1.406 1.7h.51v-.605h-.26c-.56 0-.77-.233-.77-.794V9.43c0-1.01-.32-1.257-.88-1.414V7.97c.56-.158.89-.416.89-1.426V4.308c0-.56.21-.727.77-.727h.26v-.65h-.5c-1.13 0-1.4.55-1.4 1.68v2.04c0 .83-.46.95-.79.95v.8zm7.663 2.6c.31-.087.57-.213.785-.377.214-.164.38-.365.5-.602.117-.237.177-.5.177-.79 0-.253-.044-.47-.132-.65-.088-.18-.23-.337-.424-.475-.196-.137-.444-.26-.746-.367-.302-.107-.667-.214-1.095-.32-.46-.116-.778-.22-.957-.31-.18-.093-.27-.242-.27-.448 0-.237.094-.41.282-.516.187-.11.418-.16.694-.16.298 0 .596.04.894.14.298.09.615.25.952.46l.63-.95c-.367-.23-.763-.41-1.187-.55-.42-.14-.85-.2-1.27-.2-.34 0-.66.04-.95.13-.29.09-.55.22-.77.39-.22.17-.39.38-.51.62s-.18.52-.18.82c0 .23.04.42.12.59.08.17.2.31.37.44.17.13.39.24.67.34.28.1.61.2 1 .29.52.12.88.23 1.1.34.22.1.33.26.33.47 0 .21-.09.38-.27.49-.18.11-.44.17-.76.17-.71 0-1.45-.25-2.21-.75l-.65 1.08c.18.12.38.23.61.33.23.1.47.18.72.25s.51.12.78.16c.27.04.52.05.76.05.38 0 .72-.05 1.03-.14zm4.978-6.484c.44 0 .568.138.568.58v1.75c0 .793.14.996.698 1.12v.034c-.558.123-.698.317-.698 1.11v1.762c0 .44-.128.62-.568.62h-.194s-.002.333-.02.474c.077 0 .384-.01.384-.01.89 0 1.096-.432 1.096-1.322v-1.6c0-.643.372-.73.558-.73V7.66c-.186 0-.558-.088-.558-.74V5.327c0-.89-.206-1.322-1.096-1.322 0 0-.314.01-.407.022.02.177.04.484.04.484h.19z"/><path d="M13.628 11.368V9.325c0-.82.465-.932.79-.932v-.807c-.325 0-.79-.112-.79-.943V4.61c0-1.133-.18-1.68-1.314-1.68h-.547v.65h.3c.56 0 .724.167.724.728v2.234c0 1.01.28 1.268.84 1.425v.045c-.56.157-.83.404-.83 1.414v2.244c0 .562-.16.795-.72.795h-.3v.605h.55c1.14 0 1.32-.568 1.32-1.702z"/></svg>