<svg viewBox="0 0 16 16" xmlns="http://www.w3.org/2000/svg" fill-rule="evenodd" clip-rule="evenodd" stroke-linejoin="round" stroke-miterlimit="1.414"><path d="M13.874 1.56C13.476 1.194 11.87.027 8.29.01c0 0-4.22-.253-6.277 1.634C.868 2.79.465 4.464.423 6.544.38 8.62.325 12.514 4.08 13.57h.003l-.003 1.612s-.023.652.406.785c.52.16.824-.336 1.32-.87.273-.293.648-.724.932-1.054 2.567.216 4.542-.277 4.766-.35.518-.17 3.45-.544 3.928-4.438.492-4.015-.238-6.553-1.558-7.698zm.435 7.408c-.41 3.25-2.79 3.457-3.22 3.597-.19.06-1.93.492-4.11.35 0 0-1.63 1.96-2.13 2.47-.08.08-.18.11-.24.096-.09-.02-.11-.12-.11-.27l.01-2.67c-.01 0 0 0 0 0-3.18-.89-2.99-4.2-2.95-5.94.03-1.73.36-3.15 1.33-4.11C4.63.91 8.22 1.15 8.22 1.15c3.028.01 4.48.923 4.815 1.23 1.116.955 1.685 3.243 1.27 6.595zM5.16 3.32c.162 0 .307.073.42.207.002.002.387.464.553.69.157.213.367.553.474.743.19.34.07.688-.115.832l-.377.3c-.19.152-.167.436-.167.436s.56 2.105 2.64 2.635c0 0 .283.026.436-.164l.3-.38c.142-.19.49-.31.83-.12.19.1.53.31.744.47.226.16.688.55.69.55.22.18.27.46.12.74v.01c-.154.27-.36.52-.622.76h-.005c-.21.18-.42.28-.63.3-.02 0-.05.01-.09 0-.09 0-.18-.02-.27-.04v-.01c-.32-.09-.85-.32-1.73-.81-.57-.32-1.05-.64-1.46-.97-.21-.17-.43-.36-.65-.58L6.2 8.9l-.02-.02-.02-.02c-.22-.22-.41-.44-.58-.653-.32-.406-.64-.885-.96-1.46-.49-.88-.72-1.41-.81-1.73H3.8c-.03-.09-.05-.18-.04-.27-.01-.04 0-.07 0-.093.02-.2.126-.41.305-.63h.003c.237-.26.492-.47.764-.622.11-.06.22-.09.32-.09h.01zm2.73-.456h.078l.05.002h.013l.06.003h.34l.09.01h.05l.1.01h.02l.07.01h.01l.05.01c.03 0 .05.01.07.01h.06l.05.02.04.01.04.01.02.01h.03l.03.01h.02l.05.01.03.01.03.01.04.01.02.01c.02 0 .04.01.06.01l.03.01.03.01.08.03.04.02.09.04.03.01.03.01.06.03.04.01.02.01.05.02.02.01.04.02.03.01.03.02.04.02.03.02.02.01.04.02.03.02.05.03.03.01.05.03.01.01.03.02.06.05.03.02.03.02.02.01.03.02.05.05.04.03.03.02.01.01.02.01.05.04.03.03.02.02.03.02.03.02.02.01.08.08.04.04.09.09.02.02c.01.01.03.03.04.05l.02.02.11.13.03.04c.01.01.01.02.02.02l.06.09.03.03.06.08.05.08.03.06.04.07.03.06.01.02.02.04.05.1.05.1.02.05c.04.09.07.18.11.28.05.13.09.27.12.42.03.11.05.21.07.32l.02.18.03.2c.01.08.02.17.02.25.01.08.01.16.01.24v.17c0 .01-.005.02-.01.03-.01.02-.02.03-.04.05-.014.01-.033.03-.053.03-.02.01-.04.01-.06.01h-.03c-.02 0-.04-.01-.06-.02-.02-.01-.04-.02-.05-.04-.01-.02-.03-.04-.04-.06-.01-.02-.02-.04-.02-.06V6.9c-.01-.14-.02-.284-.04-.426-.01-.098-.03-.19-.04-.28 0-.05-.01-.098-.02-.14l-.02-.1-.024-.09-.01-.06-.03-.1c-.02-.08-.05-.16-.08-.24-.02-.06-.04-.11-.07-.16l-.02-.05-.09-.18-.02-.03c-.04-.09-.09-.18-.15-.26l-.03-.05H11l-.043-.06c-.036-.06-.076-.11-.12-.16l-.083-.1-.01-.01-.03-.038-.024-.03-.05-.05-.01-.02-.047-.04-.03-.03-.055-.05-.027-.025-.03-.03-.01-.01c-.01-.01-.03-.03-.05-.04L10.33 4l-.02-.01-.04-.03-.05-.04-.03-.024-.02-.01-.04-.036c0-.01-.01-.01-.02-.01l-.02-.02-.01-.01V3.8l-.02-.01-.04-.025-.03-.02-.05-.03-.04-.03-.02-.01-.02-.01H9.8l-.013-.01-.044-.023-.005-.01-.02-.01-.03-.015H9.68l-.03-.01-.017-.01-.03-.01-.007-.007-.02-.01-.035-.02-.02-.01-.06-.02-.05-.02-.09-.01-.03-.02c-.01-.006-.02-.01-.03-.01l-.02-.01c-.02-.007-.03-.01-.05-.02l-.02-.01h-.02l-.04-.02-.02-.01-.03-.01H9c-.005 0-.012-.003-.02-.005h-.06l-.03-.01h-.01l-.03-.01h-.027c-.017-.01-.03-.01-.047-.01l-.006-.01-.04-.01c-.02-.01-.037-.01-.056-.01l-.03-.01-.033-.01-.03-.01-.04-.01H8.5l-.12-.018h-.06l-.078-.01h-.05l-.046-.006h-.02l-.036-.01H7.9l-.007-.01h-.04c-.02 0-.043-.01-.06-.02-.02-.01-.04-.02-.054-.04l-.02-.03c-.02-.02-.02-.04-.03-.06-.01-.02-.01-.04-.01-.06 0-.02 0-.04.01-.06.01-.02.02-.04.04-.05.01-.02.03-.03.05-.04.02-.01.04-.02.06-.02h.04zm.37 1.05l.024.002.04.004c.006 0 .012 0 .02.002.015 0 .03.003.05.004l.04.005.016.01.03.01.032.01.03.01h.02l.028.01.047.01.037.01.018.01h.048l.08.02.03.01.03.01.03.01s.01 0 .01.01l.03.01.03.01.03.01c.01 0 .02.01.03.01.005 0 .01.01.017.01l.043.02h.02l.06.02.033.02.03.02.073.03.04.01.02.02c.03.01.06.03.09.04l.032.02.032.02.033.02c.03.02.054.03.08.05l.02.01.027.02.015.01.05.03.025.02.043.03.02.01.02.01.03.02.04.03c.01.01.015.01.023.02.006.01.01.01.017.02l.022.02.024.02.02.02.03.03.02.02.01.01.06.06.01.01c0 .01.01.02.02.02l.01.01.03.03.02.03.02.02.03.04.03.03.06.08.01.02.04.05.01.02.01.02.01.02.01.02c.01.01.01.02.02.04l.03.05.01.01.02.04.02.03c.01.01.01.02.02.03l.02.03.02.04.02.04.01.03c.01.03.03.05.04.08 0 .01.01.02.01.03l.03.08.04.13c0 .01.01.03.01.04l.03.09.03.12.03.16c.01.05.01.09.02.14.01.08.02.16.02.24l.01.14v.11c0 .01 0 .02-.01.03L10.9 7c-.02.015-.03.03-.05.04-.02.01-.04.02-.06.027-.02.01-.05.01-.07.01-.02 0-.04-.01-.06-.02-.01 0-.02-.01-.03-.014-.02-.01-.04-.026-.05-.044-.02-.02-.03-.04-.03-.06l-.01-.03V6.7c0-.088-.01-.17-.02-.256-.01-.09-.03-.19-.05-.28-.02-.06-.03-.12-.05-.174l-.02-.06-.02-.05-.01-.02-.03-.08-.03-.06-.05-.1-.046-.08v-.01l-.02-.032-.02-.025-.03-.05-.03-.04-.06-.08c-.03-.04-.06-.08-.094-.118-.01-.01-.02-.02-.02-.03l-.02-.02-.01-.01-.02-.01-.02-.018V5l-.08-.076-.05-.045v-.01l-.02-.02-.025-.02-.01-.01c0-.01-.01-.01-.02-.01l-.03-.01-.01-.01-.04-.03-.01-.01-.01-.01c-.008-.01-.015-.01-.02-.01l-.04-.03-.01-.01-.04-.02-.007-.01-.03-.02-.02-.01-.02-.02-.02-.02h-.01c-.02-.02-.04-.03-.07-.04l-.03-.02-.02-.01-.01-.01-.03-.02-.03-.01-.04-.02-.03-.01-.01-.01-.037-.01v-.01l-.06-.02-.04-.02-.02-.01h-.04c-.02-.01-.03-.01-.05-.02H8.8l-.03-.01h-.03l-.03-.01-.02-.01h-.04l-.04-.01-.02-.01h-.11l-.046-.01H8.2l-.03-.01c-.02-.01-.04-.02-.06-.04-.01-.02-.03-.04-.04-.06-.01-.02-.02-.04-.02-.06v-.06c.003-.03.01-.05.02-.07.005-.01.01-.02.02-.03.012-.02.03-.04.05-.05.01-.01.02-.01.03-.02.02-.01.04-.01.06-.01h.04zM8.562 5c.01 0 .02 0 .03.002.01 0 .02 0 .03.002l.034.003c.07.006.142.016.212.03l.07.016.017.005.076.02.04.013.03.01c.03.01.06.03.09.04l.01.01.04.02.06.03.02.01c.01.01.02.01.03.02.01.01.03.02.04.03.04.02.07.05.1.07l.07.06.06.06.04.05.02.02.02.02.03.04.06.09.05.09.04.08.03.07c.03.07.04.13.06.2.02.06.03.13.04.19l.01.1.01.09v.04c0 .03-.01.05-.02.07-.01.02-.03.05-.05.06-.02.02-.04.03-.07.04-.02.01-.04.01-.06.01-.02 0-.04 0-.06-.01l-.07-.03c-.02-.02-.04-.03-.06-.06-.01-.02-.02-.04-.03-.07v-.11l-.01-.07-.01-.08-.01-.07-.01-.04c0-.01-.01-.03-.01-.04-.02-.08-.06-.16-.1-.24l-.04-.04-.03-.04-.03-.03-.01-.02-.05-.04-.04-.04-.04-.03c-.01-.01-.02-.01-.04-.02l-.06-.04-.04-.02-.02-.01h-.01L9 5.54l-.06-.02-.06-.01h-.05L8.8 5.5l-.024-.005h-.03l-.04-.01h-.17l-.01-.05H8.5c-.02-.003-.036-.01-.053-.02-.023-.014-.043-.03-.06-.053-.012-.02-.023-.04-.03-.06-.005-.02-.008-.04-.008-.06 0-.025 0-.05.01-.076s.02-.047.04-.066l.04-.03c.02-.01.04-.02.06-.02L8.54 5h.02z"/></svg>