<svg viewBox="0 0 16 16" xmlns="http://www.w3.org/2000/svg" fill-rule="evenodd" clip-rule="evenodd" stroke-linejoin="round" stroke-miterlimit="1.414"><path d="M15.693 8.5c-.406-.92-1.172-1.65-2.06-2.1-1.57-.795-3.522-.79-5.086.02-1.088.558-1.995 1.558-2.253 2.775-.213.896-.022 1.86.453 2.64C7.454 13.01 8.732 13.76 10.06 14c.963.196 1.958.08 2.893-.19.56.218 1.06.57 1.605.83-.14-.47-.29-.937-.45-1.4.61-.434 1.163-.974 1.496-1.652.496-.945.526-2.115.09-3.087zM9.078 2.19c-1.663-.936-3.735-1.077-5.524-.43-1.175.423-2.24 1.21-2.897 2.28-.596.967-.82 2.172-.532 3.278.288 1.227 1.14 2.255 2.174 2.942-.2.566-.39 1.133-.57 1.703.65-.34 1.3-.695 1.95-1.04.78.25 1.61.372 2.44.345-.22-.63-.27-1.31-.17-1.968.15-.914.65-1.75 1.33-2.37 1.15-1.076 2.78-1.53 4.33-1.42-.29-1.423-1.29-2.626-2.55-3.32zm1.154 6.66c-.138.434-.77.565-1.076.234-.337-.306-.206-.946.236-1.082.49-.207 1.055.358.84.848zm3.197.06c-.17.392-.76.482-1.05.18-.14-.127-.18-.318-.23-.487.07-.305.28-.622.62-.636.47-.065.89.515.65.943zM8.66 4.608c.005.64-.85 1.04-1.33.606-.498-.357-.357-1.225.228-1.405.523-.21 1.142.23 1.1.79zm-4.04.162c-.114.557-.86.826-1.297.452-.506-.356-.364-1.24.23-1.42.582-.224 1.243.367 1.068.968z"/></svg>