<svg viewBox="0 0 16 16" xmlns="http://www.w3.org/2000/svg" fill-rule="evenodd" clip-rule="evenodd" stroke-linejoin="round" stroke-miterlimit="1.414"><path d="M14.312 4.55c.56 1.024.88 2.2.88 3.45 0 2.653-1.438 4.97-3.576 6.217l2.197-6.352c.41-1.026.547-1.847.547-2.576 0-.27-.018-.52-.048-.74m-5.32.07c.432-.02.822-.07.822-.07.388-.05.342-.62-.045-.6 0 0-1.17.09-1.92.09-.71 0-1.9-.1-1.9-.1-.39-.02-.44.57-.05.59 0 0 .36.04.75.06l1.12 3.07-1.58 4.72L3.57 4.6c.432-.02.822-.067.822-.067.39-.05.344-.62-.044-.597 0 0-1.164.092-1.916.092-.133 0-.292-.005-.46-.01C3.274 2.1 5.49.81 8 .81c1.872 0 3.577.715 4.857 1.888-.03-.002-.06-.006-.093-.006-.707 0-1.208.615-1.208 1.276 0 .593.342 1.095.706 1.687.274.48.594 1.095.594 1.984 0 .61-.237 1.33-.548 2.32l-.717 2.39-2.6-7.74zM8 15.19c-.706 0-1.387-.103-2.032-.292l2.158-6.27 2.21 6.057c.016.035.033.068.052.1-.747.262-1.55.407-2.388.407M.807 8c0-1.043.224-2.033.623-2.927l3.43 9.4C2.463 13.307.808 10.847.808 8M8 0C3.59 0 0 3.59 0 8s3.59 8 8 8 8-3.59 8-8-3.59-8-8-8" fill-rule="nonzero"/></svg>