<svg xmlns="http://www.w3.org/2000/svg" width="128" height="128"><path d="M40.13 57.815v1.894h.113c3.401-2.049 6.914-2.212 9.013-2.212 5.667 0 7.595 1.618 8.332 2.212 1.301-.753 4.135-2.212 8.952-2.212 9.637 0 9.637 3.803 9.637 5.341v8.959h-7.766v-7.983c0-1.65 0-3.484-4.138-3.484-2.039 0-4.137.621-4.872 1.537-.68.781-.965 1.483-.965 3.21v6.72h-7.764v-7.665c0-2.372.054-3.802-4.023-3.802-2.042 0-4.138.539-4.932 1.348-.623.62-1.023 1.267-1.023 3.323v6.796h-7.759v-13.982h7.195zm54.769.173h-5.634v-4.93l-8.358 2.169v2.761h-3.816v2.923h3.816v6.052c0 2.119.122 2.952 1.151 3.808 1.21 1.041 4.485 1.419 7.027 1.419.847 0 3.819-.054 6.542-.561l-.728-2.843-.241.027c-1.031.196-1.997.324-3.088.324-2.305 0-2.305-.647-2.305-2.626v-5.599h5.634v-2.924zm-62.61 21.711l-.103-.205c-1.176-2.541-3.757-8.15-3.757-15.427 0-6.344 1.577-10.703 3.893-15.836h-3.123c-2.613 3.765-5.199 9.127-5.199 15.701 0 5.572 2.046 11.107 5.135 15.768h3.154zm63.425-31.398c0 .032.067.167.1.2 1.176 2.55 3.761 8.149 3.761 15.431 0 6.339-1.579 10.697-3.895 15.837h3.123c2.616-3.764 5.198-9.127 5.198-15.701 0-5.567-2.047-11.108-5.133-15.767h-3.154z"/></svg>