<svg xmlns="http://www.w3.org/2000/svg" width="128" height="128"><path d="M42.133 85.839c1.938 1.935 3.116 4.561 3.124 7.484-.007 2.918-1.186 5.544-3.116 7.472l-.007.004c-1.934 1.925-4.576 3.102-7.514 3.102-2.934 0-5.57-1.18-7.503-3.106-1.929-1.927-3.117-4.55-3.117-7.471 0-2.924 1.188-5.556 3.116-7.487v.003c1.934-1.927 4.57-3.113 7.503-3.113 2.938-.001 5.577 1.188 7.514 3.112zm0-.003v.003h.004l-.004-.003zm-15.017 14.963v-.004h-.004l.004.004zm-3.107-49.595v15.276c9.972.006 19.404 3.924 26.463 10.993 7.057 7.047 10.958 16.493 10.974 26.5h.005v.027h15.339c-.012-14.551-5.927-27.732-15.49-37.301-9.564-9.568-22.739-15.487-37.291-15.495zm.027-27.204v15.268c35.648.026 64.627 29.05 64.651 64.732h15.313c-.011-22.053-8.974-42.034-23.46-56.53-14.491-14.491-34.458-23.46-56.504-23.47z"/></svg>