<svg xmlns="http://www.w3.org/2000/svg" width="128" height="128"><path fill="#fff" d="M103.23 48.085l-37.913 37.929c-.5.496-1.17.774-1.875.772l-.003-.002-.019.001-.3-.018c-.585-.064-1.134-.327-1.557-.751l-21.136-21.18c-1.029-1.026-1.025-2.687.003-3.712l6.244-6.237c.491-.488 1.168-.765 1.858-.767.695-.002 1.368.28 1.856.771l13.058 13.082 29.834-29.845c.499-.495 1.158-.77 1.861-.768.704-.003 1.357.272 1.858.77l6.234 6.243c1.024 1.028 1.023 2.688-.003 3.712zm-2.342 9.136l-32.113 32.126c-1.387 1.373-3.222 2.129-5.175 2.129l-1.425-.002-.3-.201c-1.308-.311-2.518-.986-3.475-1.946l-21.127-21.171c-1.385-1.381-2.148-3.219-2.147-5.174 0-1.957.764-3.796 2.148-5.176l6.251-6.246c1.358-1.35 3.236-2.127 5.171-2.131 1.928 0 3.814.786 5.169 2.148l9.741 9.759 20.695-20.703-13.782-13.782c-3.649-3.648-9.618-3.648-13.266 0l-30.517 30.516c-3.649 3.648-3.649 9.619 0 13.266l30.517 30.516c3.649 3.648 9.618 3.648 13.266 0l30.515-30.516c3.649-3.648 3.649-9.618 0-13.266l-.146-.146z"/></svg>