<svg xmlns="http://www.w3.org/2000/svg" width="128" height="128"><path d="M50.968 102.08c-.464.106-.841.451-1.115.786h6.888c-.706-1.324-1.553-2.98-1.656-3.46.001 0-3.153 2.452-4.117 2.674m-10.557-2.455c.045-.699 0-3.07-.438-3.592 0 0-.261 1.446-.48 1.93l-2.187 4.903h3.994l-.361-.963c-.222-.484-.573-1.579-.528-2.278m53.115-14.955c-.528 1.095-1.356 1.314-1.885 1.401-.522.09-.699.396-1.314 1.14-.612.744-1.356 1.881-4.03 5.783-2.671 3.898-10.686 2.407-15.155 1.488-4.465-.921-5.126-2.323-5.477-5.432-.351-3.112 1.93-4.955 2.587-5.261.657-.306 3.547-1.446 5.345-3.022 1.794-1.575 4.688-1.885 5.126-1.885.435 0 1.621-.09 5.561-.528 3.943-.435 7.928.615 10.644 1.45 2.287.702 6.869 3.264 9.069 4.497v-53.204c0-3.289-2.668-5.96-5.96-5.96h-6.105c2.181 1.846 5.474 5.522 6.024 9.201.693 4.594-4.443 6.124-4.865 6.273l-.599.242c-1.53-3.183-.148-4.562.483-5.493.628-.931-.303-1.382-1.266-1.804-.957-.419-1.289-.838-1.437-1.35-.151-.512-.242-1.234-.599-1.981-.361-.754-1.05-.87-1.685-.931-.628-.061-1.14-.422-1.501-.512l-.899-.09.029.512s-1.74-.902-3.425-2.133c-1.195-.876-1.511-1.163-1.985-1.936h-2.647c.145.706.387 1.111.612 1.424.303.422-.512 1.562-1.289 1.801-.78.242-2.587-.325-2.587-.325-2.548.689-2.461.271-5.493.715-3.032.451-3.573 2.465-4.111 3.692-.544 1.234.419.783-1.021 2.822-1.443 2.042-4.533 2.706-5.796 2.674-1.26-.029-.87-.181-.809 3.782.061 3.963.628 3.421 1.952 3.753 1.321.332 1.83-1.443 2.043-1.711.209-.271.238-.631-.061-.66-1.466-.145-2.345-.451-2.761-.841-.419-.39.18-1.169.87-1.653.689-.48 2.764-1.592 3.363-1.859.599-.271 2.342-.838 3.125-.992.78-.148.899.541 1.079.902.158.312.061.66.747.57 4.091-.535 4.987.116 5.254.09.271-.032.631-.329.693-.841.058-.506-1.382-.809-2.043-.992-.66-.181-4.446-.242-4.446-.242s-.96-.751-1.14-2.548c-.18-1.801 4.352-3.631 5.973-4.082 1.624-.451 5.557-1.024 10.029-.422 4.478.599 6.366 3.396 7.149 6.459.783 3.061-1.591 4.021-1.952 4.053-.358.029-1.14.783-1.469 1.35-.332.57-1.382 1.353-2.129 1.804-.754.448-1.894 1.44-1.894 1.44s-.029.747-.963 1.111c-.931.358-1.621-1.534-2.191-2.793-.567-1.26-1.079-1.804-1.562-2.79-.48-.992-1.26-1.205-1.559-1.205-.303 0-.39.512-.39 1.321 0 .812-.747 1.624-2.014 2.432-1.26.812-3.814-.567-4.111-.689l-2.162-.873c-.419-.177-.573-.448-.931-.87-.361-.419-1.018.303-1.234.451-.209.151-.509.419.032 1.111.541.689 2.252 1.26 3.061 1.501.812.238 1.711 1.321 2.194 1.711.48.39.992.754 1.321.538 2.233-1.421 4.955-1.804 5.399-1.804.451 0 2.342.032 1.414 2.916-1.276 3.959-5.438 4.771-8.647 4.894-3.215.119-4.865-.689-5.045-.689-.177 0-.209.358-.122.358.093 0 1.144.754 1.927 1.292.776.541 2.097 1.382 2.642 1.382.541 0 2.31-.599 2.912-.754.599-.148 2.072-.509 3.241-.87 1.173-.358 5.673-3.992 6.482-4.804.812-.809 1.443-2.703 1.743-2.79.296-.09.87.39 1.321.451.451.055 1.411-1.292 1.653-2.255.242-.957.303-1.079.57-1.14.271-.061.358.599.358.599s.332 1.685.18 4.024c-.148 2.345-.364 2.945-1.05 4.926-.693 1.981-3.061 2.191-3.84 2.432-.78.242-2.735.87-4.117 1.111-1.382.238-2.1-.512-3.032-.931-.329-.148-2.129-.451-2.278.061-.648 2.194 3.241 3.389 3.869 3.541 4.121.983 9.849-.989 10.148-3.45.454-3.708.87-4.143 1.353-4.684.48-.541 1.772-.09 1.772-.09.48-.483 2.732-2.133 2.732-2.133s.722-.358.358-.931c-.358-.567-.599-2.88 2.255-2.581 2.851.303 3.811 4.32 3.811 4.32s1.144 2.374.329 8.408c-.809 6.031-8.856 12.223-16.179 14.53-7.326 2.313-10.809 2.046-11.711 2.046-.899 0-2.703-.722-3.302-.841-.599-.119-2.129-1.144-2.642-1.353-.512-.209-2.278-1.111-2.671-1.289-.39-.181-1.772-1.05-2.581-1.624-.812-.567-1.021-1.173-1.292-1.772-.271-.599-1.74-1.769-1.92-1.92-.18-.148 0-.39 0-.39 1.678.722 13.028 2.31 13.93 2.342.902.029 5.013.148 5.554.148.541 0 1.501.332 1.53-.361.032-.689-3.148-1.169-3.512-1.202-.358-.029-1.949-.061-3.122-.209s-3.995-4.536-4.385-5.103c-.387-.57-.538-.422-1.26-.78-.722-.361-3.241-2.31-3.544-2.645l-.058-1.917c-.303-.335-1.266.206-2.023.548-1.791.809-2.452-.116-2.452-.116l-2.452-2.574-.583 1.285s6.189 5.026 7.941 6.427c1.756 1.401.467 1.869.467 1.869s-1.285 1.401-1.753 1.517c-.467.116-4.204-.583-7.123-1.401-2.919-.818-3.853-1.753-6.775-4.32-2.919-2.568-4.088-9.227-3.737-10.515.351-1.285.467-3.27.232-3.853-.232-.583-.699-2.568.351-2.568 1.05 0 1.869 2.336 4.32 5.138s5.139 3.737 6.189 3.154c1.05-.583-.351-2.336-.934-3.386-.583-1.05-.467-1.401-2.803-4.32-2.336-2.919-.702-5.138-.232-6.189.467-1.05 1.869-3.038 2.22-6.311.19-1.749.876-2.928 1.891-3.972h-24.9c-3.296 0-5.96 2.671-5.96 5.96v21.192c1.627.544 5.245 1.788 5.892 2.319.841.689 8.299 6.324 8.019 16.424-.029 1.079.338 1.43.809 1.952.271.296 2.883 2.822 2.432 4.381-1.202-1.772-2.4-2.703-2.761-2.883-.358-.181-.747-.39-1.018.274-.271.657-.512 2.432-4.082 1.92-3.273-.47-5.973-1.028-9.288-5.525v25.557c0 3.289 2.664 5.96 5.96 5.96h4.752c.525-1.066.822-1.756 1.215-2.671.567-1.314 2.41-5.999 3.286-7.49.873-1.492 2.146-3.46 2.146-3.46s-.393-3.112-.306-4.91c.084-1.794 1.05-5.783 1.05-5.783s.351-.654.174-1.356c-.174-.699-.438-1.443-.261-2.713.174-1.269.744-3.241 1.753-4.159 1.008-.918 1.707-1.446 2.274-1.401.573.045 1.447.873 2.587 3.547 0 0-.612.084-1.095-.045-.48-.132-.174.261-.084.393.084.129 1.224 1.008.657 2.104-.57 1.095-3.302 4.388-2.719 5.168.396.528.615.045 1.227-.612.612-.657 1.968-2.236 2.191-2.146.219.09-.438 2.368-2.803 4.819 0 0 .657.306 0 1.53-.657 1.227-1.624 2.497-1.753 2.758-.132.264-.132.876.261.528.393-.351 4.117-3.328 7.751-3.328 2.629 0 2.851.809 3.331 1.05.435.216 1.095.963 1.224 1.356.132.39.306.696.963.918.66.216 2.806.744 3.112 3.547 0 0 1.14 1.401-.267 3.547 0 0 10.979-1.479 15.635 8.802h21.78c3.293 0 5.96-2.671 5.96-5.96v-11.489c-1.862-1.099-5.889-1.598-6.44-1.598-.66 0-3.502-.045-4.03 1.05m-47.829-24.89c-.351.09-.754-.081-1.305.47-.177.174-.393.561-.406.941-.032 1.14-2.497-.045-2.803-.142-.786-.245-2.014-.999-4.729-4.062-2.719-3.07-3.679-9.375-3.769-11.872-.09-2.497 1.008-7.052 4.249-11.343 3.241-4.294 8.892-5.039 9.636-5.039s1.447.09 1.492.528l-.09.963s.393.963.261 2.497c-.296 3.499-3.631 6.221-5.254 7.577-1.621 1.356-1.447 3.154-1.401 4.948.045 1.791 1.447 7.751 1.753 8.76.306 1.008 2.287 4.478 2.597 4.916.306.438.116.764-.229.854m8.693 18.374c-1.772-1.26-2.79-3.634-3.869-6.698-1.082-3.061-1.711-5.196-2.194-6.572-.48-1.382-.809-1.501-.87-1.865-.061-.358.061-.567.209-.715 0 0 2.642.419 4.836 1.408 2.191.992 2.129 1.173 4.017 2.432 1.894 1.26 2.645 3.869 3.154 4.832.512.963 2.258 1.695 2.5 1.817l1.028.689c7.629 2.912 12.745 3.141 12.986 3.202l.358.271c-.722 1.108-7.506 1.321-7.506 1.321s-2.339-.061-6.182 1.05c-3.847 1.108-6.698.09-8.47-1.173"/></svg>