<svg xmlns="http://www.w3.org/2000/svg" width="128" height="128"><path fill="#fff" d="M102.553 78.601c.317.36.763.477.763.477s-2.633 2.746-5.296 3.373c-2.673.623-4.146-.227-5.306-.25-1.16-.033-2.136.233-3.34-.017l-3.04-1.26-1.796.31-.263.533c-.353.3-1.617 2.14-2.58 3.603l-1.03 1.413c.253.137.897.447 1.11.327.27-.153 2.343-1.943 3.57-2.43 1.223-.483 2.603-.477 3.79-.487 1.18-.01 3.98 1.103 4.903 1.79.923.687 1.51 2.05 1.51 2.05s-1.477 2.163-3.613 3.343c-2.13 1.177-5.299-.213-6.633-.733-1.333-.527-3.486-2.656-3.763-2.823-.207-.117-1.027-.233-1.463-.293-.733.89-1.483 1.72-2.036 2.226-1.003.93-5.006 4.023-5.773 4.55l-.923.523.04.03c.227.133 1.64.48 2.236.227.59-.257 2.19-1.727 3.87-2.376 1.677-.64 4.596.267 5.756.843 1.153.577 2.806 2.636 3.1 3.283.293.647.787 1.2.787 1.2s-.507 1.287-1.49 1.993c-.987.713-2.336.627-4.446 1.233-2.116.603-4.043-.857-5.066-1.463-1.02-.603-2.57-3.566-2.986-4.026-.42-.46-1.807-.383-2.063-.41l-.387-.203c-1.267.637-2.9 1.377-3.69 1.676-.568.213-1.218.527-1.854.868 2.508 1.625 5.614 4.078 5.941 4.501 0 0-.45 1.377-.663 1.64-.217.267-.43.127-.593-.01-.17-.14.067-.72-.357-1.077-.43-.357-3.593-3.153-4.62-3.853-.255-.174-.545-.361-.855-.55-.314.191-.607.38-.865.556-1.027.7-4.19 3.496-4.62 3.853-.423.357-.187.937-.357 1.077-.163.137-.377.277-.593.01-.213-.263-.663-1.64-.663-1.64.327-.424 3.442-2.883 5.952-4.509-.64-.344-1.294-.66-1.866-.874-.79-.3-2.423-1.04-3.69-1.677l-.387.203c-.257.027-1.643-.05-2.063.41-.417.46-1.966 3.423-2.986 4.026-1.023.607-2.95 2.066-5.066 1.463-2.11-.607-3.46-.52-4.446-1.233-.983-.707-1.49-1.993-1.49-1.993s.493-.553.787-1.2c.293-.647 1.946-2.706 3.1-3.283 1.16-.577 4.08-1.483 5.756-.843 1.68.65 3.28 2.12 3.87 2.376.597.253 2.01-.093 2.236-.227l.04-.03-.923-.523c-.767-.527-4.77-3.62-5.773-4.55-.553-.507-1.303-1.337-2.036-2.226-.437.06-1.257.177-1.463.293-.277.167-2.43 2.296-3.763 2.823-1.333.52-4.503 1.91-6.633.733-2.136-1.18-3.613-3.343-3.613-3.343s.587-1.363 1.51-2.05c.923-.687 3.723-1.8 4.903-1.79 1.187.01 2.566.003 3.79.487 1.227.487 3.3 2.276 3.57 2.43.213.12.857-.19 1.11-.327l-1.03-1.413c-.963-1.463-2.226-3.303-2.58-3.603l-.263-.533-1.797-.31-3.04 1.26c-1.203.25-2.18-.017-3.34.017-1.16.023-2.633.873-5.306.25-2.663-.627-5.296-3.373-5.296-3.373s.447-.117.763-.477c.327-.36.58-.72 1.127-1.523.547-.807 1.38-1.35 3.126-2.38 1.733-1.027 4.413-.15 5.116.11.697.26 1.86.307 3.21 1.257 1.353.953 2.963 3.796 3.59 4.2.57.36 1.48.18 1.637.14-.103-.427-.22-.88-.397-1.243-.397-.82-1.953-4.54-2.453-5.823-.553-.317-1.733-1.007-2.03-1.227-.403-.293-.867-.327-2.16.07-1.303.39-4.293.627-6.203-.347-1.9-.973-4.466-4.213-5.06-5.743-.587-1.533-.94-4.09-.94-4.09s1.3.04 1.917.007c.627-.033 2.186-.457 4.22-.203 2.026.25 4.55 1.08 6.146 3.093 1.597 2.016 1.727 6.036 2.26 6.616.38.417 1.147.763 1.556.933-.373-1.506-.997-4.896-1.107-6.339l-.227-2.926c-.407-.413-1.18-1.197-1.566-1.507-.54-.423-3.56.043-5.853-1.39-2.286-1.437-5.089-4.82-5.839-6.226-.757-1.406-.763-2.31-.97-4l-.46-3.483s2.496.39 4.24.827c1.737.437 2.97 1.22 3.993 2.076 1.027.853.787.12 2.056 1.337 1.263 1.217 2.506 3.32 3.126 5.339.627 2.026.257 4.68.383 5.146.083.313.533.787.827 1.073l-.3-4.003c-.127-1.896-.077-3.953-.007-5.169l.157-1.313c-.403-.4-1.693-1.667-2.346-2.193-.79-.627-3.106-.51-4.916-1.87-1.733-1.297-4.486-4.986-3.99-8.302.493-3.316 2.096-5.589 2.096-5.589s3.366.8 5.363 2.436c1.996 1.636 4.25 5.279 3.9 7.956-.36 2.673-2.003 3.756-1.96 4.63.04.75 1.543 1.8 1.986 2.09.063-.477.113-.903.083-1.207-.11-1.07.567-2.933.567-2.933s.71-1.59.817-2.09c.107-.5-.253-1.623-.61-2.713-.357-1.093.17-3.27.063-4.533-.11-1.263.353-3.596.427-4.18.06-.573.883-2.553 1.19-3.023l.82-1.507c.397-.62 1.03-.943 1.53-1.397.507-.453 1.07-1.037 1.42-1.473.35-.437 1.223-.697 1.633-.853.41-.16 1.103-1.133 1.103-1.133s.037 1.117.187 1.646c.157.53.593.843.827 2.09.227 1.25.45 2.3.477 3.393.033 1.09-.273 3.393-.787 4.53-.52 1.137-1.25 2.533-2.546 4.326-1.29 1.793-4.773 4.39-5.149 4.903l-.9 2.65s-.387 1.743-.447 3.846l.166.047c.32.063 1.126-.537 1.543-.967.417-.433.299-.997.712-2.123.413-1.133 1.718-3.87 3.321-5.646 1.607-1.78 3.68-2.383 5.596-2.623 1.916-.24 5.447 1.173 5.447 1.173s-.355 2.406-1.129 4.463c-.77 2.05-4.651 4.4-6.557 5.116-1.903.71-6.571.123-7.001.193l-1.784.967-.71-.074v.047c0 1.716-.235 2.28-.092 3.663s.098 2.806.388 3.82l.59 1.646.527-.317c.227-.267.593-1.163 1.033-2.663.447-1.503 2.656-3.966 4.06-5.25 1.393-1.283 5.533-2.233 6.576-1.89l3.436.06s-.64 2.67-1.09 3.82c-.443 1.153-.177 1.697-.68 2.693-.497.993-.781 1.403-2.321 2.723-1.543 1.327-3.744 1.82-5.511 1.693-1.773-.13-4.733-.643-5.299-.56-.573.08-.746.343-.746.343l-.053-.073c-.173.507-.275 1.383-.218 2.273.067.947.163 3.353.593 5.223.437 1.867.869 4.676 1.253 5.043l.554.641v.007l.648-.487c.35-.597.271-1.903.808-4.596.537-2.69 3.74-5.806 6.026-6.953 2.286-1.14 6.829-1.203 6.829-1.203s-.39 2.57-.677 3.266c-.293.703-.047 1.213-.697 3.156-.66 1.946-2.76 3.796-5.123 5.253-2.363 1.46-6.209 1.103-6.553 1.457l-.713.783c.107.59.26 1.396.527 1.83.41.67 1.327 3.56 2.86 5.549.747.963 1.28 1.713 1.636 2.226.18-.173 1.087-1.03 1.393-1.497.347-.52-.773-2.643-.567-5.286.21-2.65 1.62-3.936 3.47-5.536l5.969-1.447s.377 1.636.483 3.666c.103 2.023-1.23 4.386-2.99 6.009-1.767 1.62-4.793 1.583-5.739 2.73-.47.567-1.703 1.793-1.72 1.81l.247.383s.61 1.167 1.43 2.02c.597.623 2.79 2.583 4.71 4 .197-.327.477-.833.587-1.193.183-.573-.803-1.237-.607-5.096.177-3.406 4.1-5.553 5.169-6.276 1.06-.723 2.553-1.87 2.553-1.87s2.626 4.64-.143 9.356c-1.53 2.62-6.229 3.666-6.466 4.093l-.59 1.347c.533.373 1.04.693 1.463.907l3.87 2.126c1.453.676 1.906.458 3.909 1.621 1.994-1.156 2.447-.94 3.897-1.615l3.87-2.126c.423-.213.93-.533 1.463-.907l-.59-1.347c-.237-.427-4.936-1.473-6.466-4.093-2.77-4.716-.143-9.356-.143-9.356s1.493 1.147 2.553 1.87c1.07.723 4.993 2.87 5.169 6.276.197 3.86-.79 4.523-.607 5.096.11.36.39.867.587 1.193 1.927-1.417 4.113-3.376 4.71-4 .82-.853 1.43-2.02 1.43-2.02l.247-.383c-.017-.017-1.25-1.243-1.72-1.81-.947-1.147-3.973-1.11-5.739-2.73-1.76-1.623-3.093-3.986-2.99-6.009.107-2.03.483-3.666.483-3.666l5.969 1.447c1.85 1.6 3.26 2.886 3.47 5.536.207 2.643-.913 4.766-.567 5.286.307.467 1.213 1.323 1.393 1.497.357-.513.89-1.263 1.637-2.226 1.533-1.99 2.45-4.88 2.86-5.549.267-.433.42-1.24.527-1.83l-.712-.783c-.337-.353-4.188.003-6.551-1.457-2.363-1.456-4.46-3.306-5.12-5.253-.65-1.943-.397-2.453-.69-3.156-.287-.697-.664-3.266-.664-3.266s4.568.063 6.855 1.203c2.286 1.147 5.541 4.263 6.077 6.953l.709 4.596.651.487v-.007l.552-.64c.383-.367.712-3.176 1.149-5.043.43-1.87.577-4.276.643-5.223.057-.89-.02-1.766-.193-2.273l-.04.073s-.167-.263-.74-.343c-.567-.083-3.523.43-5.296.56-1.766.127-3.966-.367-5.509-1.693-1.54-1.32-1.823-1.73-2.32-2.723-.503-1-.236-1.543-.68-2.693-.45-1.15-1.086-3.823-1.086-3.823l3.438-.06c1.043-.343 5.186.607 6.579 1.89 1.403 1.283 3.619 3.746 4.066 5.249.44 1.5.819 2.396 1.045 2.663l.551.317.639-1.646c.29-1.013.148-2.436.291-3.82s-.089-1.946-.089-3.663v-.047l-.71.077-1.883-.967c-.43-.07-5.05.517-6.953-.197-1.906-.717-5.763-3.066-6.533-5.116-.767-2.053-1.117-4.46-1.117-4.46s3.54-1.417 5.456-1.177c1.917.24 3.993.843 5.599 2.623 1.603 1.776 2.91 4.513 3.323 5.646.413 1.127.297 1.69.713 2.123.417.43 1.223 1.03 1.543.967l.167-.047c-.06-2.103-.447-3.846-.447-3.846l-.903-2.65c-.373-.517-3.856-3.11-5.146-4.903-1.297-1.793-2.026-3.19-2.546-4.326-.513-1.137-.82-3.44-.787-4.53.027-1.093.25-2.143.477-3.393.233-1.247.67-1.56.827-2.09.15-.53.187-1.646.187-1.646s.693.973 1.113 1.137c.41.157 1.283.417 1.633.853.35.437.913 1.02 1.42 1.473.5.453 1.133.777 1.53 1.396l.82 1.507c.303.47 1.127 2.453 1.19 3.026.073.58.533 2.916.427 4.176-.107 1.263.42 3.44.063 4.533-.357 1.087-.717 2.213-.61 2.71.107.5.817 2.09.817 2.09s.677 1.863.567 2.933c-.033.303.017.727.083 1.207.443-.29 1.946-1.34 1.986-2.09.043-.873-1.603-1.956-1.96-4.63-.35-2.676 1.903-6.319 3.9-7.956 2.003-1.637 5.363-2.436 5.363-2.436s1.603 2.273 2.096 5.589c.497 3.316-2.256 7.006-3.99 8.302-1.813 1.36-4.13 1.243-4.92 1.873-.653.527-1.943 1.793-2.346 2.193l.157 1.313c.07 1.217.12 3.276-.007 5.173l-.3 4.003c.293-.287.743-.76.827-1.073.127-.467-.243-3.12.383-5.146.617-2.023 1.86-4.126 3.13-5.343 1.263-1.217 1.023-.483 2.05-1.337 1.023-.857 2.256-1.64 3.993-2.076 1.74-.437 4.236-.827 4.236-.827l-.46 3.48c-.207 1.69-.213 2.593-.97 4-.75 1.407-3.553 4.79-5.839 6.226-2.293 1.433-5.313.967-5.853 1.39-.387.31-1.16 1.093-1.567 1.507l-.227 2.926c-.11 1.443-.733 4.833-1.107 6.339.41-.17 1.177-.517 1.557-.933.533-.58.663-4.6 2.26-6.616 1.596-2.013 4.12-2.843 6.146-3.093 2.033-.253 3.593.17 4.22.203.617.033 1.916-.007 1.916-.007s-.353 2.556-.96 4.1c-.587 1.53-3.16 4.77-5.06 5.743-1.91.973-4.896.737-6.189.343-1.293-.397-1.756-.363-2.16-.07-.297.22-1.477.91-2.03 1.227-.5 1.283-2.056 5.003-2.453 5.823-.177.363-.293.817-.397 1.243.157.04 1.067.22 1.637-.14.627-.403 2.236-3.246 3.59-4.2 1.35-.95 2.513-.997 3.21-1.257.703-.26 3.383-1.137 5.116-.11 1.747 1.03 2.58 1.573 3.126 2.38.549.806.802 1.166 1.129 1.526z"/></svg>