<svg xmlns="http://www.w3.org/2000/svg" width="128" height="128"><path fill="#fff" d="M83.846 63.873c1.438 3.511 2.164 7.316 2.164 11.419 0 7.669-2.63 14.371-7.889 20.105-5.26 5.736-12.021 8.603-20.283 8.603-8.296 0-15.074-2.867-20.333-8.602-5.259-5.734-7.889-12.437-7.889-20.105 0-7.601 2.488-14.194 7.466-19.777 5.475-6.155 12.393-9.233 20.755-9.233 3.516 0 6.775.552 9.783 1.643-.977 1.91-1.86 4.25-2.099 6.764-2.39-.993-4.958-1.495-7.709-1.495-5.784 0-10.754 2.17-14.909 6.508-4.155 4.339-6.233 9.586-6.233 15.741 0 3.969.947 7.668 2.842 11.1 1.895 3.431 4.454 6.08 7.679 7.946 2.14 1.239 4.422 2.057 6.84 2.474 20.673-8.03 18.233-47.226 18.084-49.364l.181.54c12.151 32.434-14.336 49.14-14.336 49.14l-.227.008.079.002c3.855 0 7.396-.933 10.62-2.8 3.224-1.866 5.784-4.515 7.679-7.946 1.894-3.431 2.842-7.13 2.842-11.1 0-3.22-.576-6.189-1.718-8.912 1.902-.396 4.197-1.174 6.611-2.659zm-22.821-39.873c6.66 11.177 10.274 21.211 11.091 23.6l-.007-.096c-1.628-17.235-11.084-23.504-11.084-23.504zm33.256 1.817c-3.382 7.186-9.645 8.522-9.645 8.522-6.263 1.59-8.455 4.006-8.455 4.006-6.263 6.296-1.329 13.931-1.329 13.931 13.52-3.076 18.463-14.188 18.463-14.188-.601 7.465-16.697 16.284-16.697 16.284 5.324 5.215 10.413 4.586 13.772 2.586 4.454-2.65 6.59-8.455 6.59-8.455 4.315-12.891-2.699-22.686-2.699-22.686z"/></svg>