<svg aria-labelledby="simpleicons-mailchimp-icon" role="img" viewBox="0 0 24 24" xmlns="http://www.w3.org/2000/svg"><title id="simpleicons-mailchimp-icon">MailChimp icon</title><path d="M11.026 1.854l.324.105-.262-.95-.153.472.09.372M11.557 2.845c.103-.077.225-.167.363-.265h.017l-1.11-.336.72.61.01-.01zM10.74 3.56l-.106.092.118-.08-.012-.01zM11.127 3.24L9.387 1.8l.09.646L10.74 3.56c.05-.04.097-.086.147-.124l.24-.195zM12.474 2.205l-.534-.447.195.675c.105-.075.22-.15.34-.228zM5.442 14.186c.39.002.675.192.81.388.12.18.075.286.135.337.015.013.03.02.045.02s.03-.002.03-.007c.075-.03.105-.145.12-.225.015-.193-.09-.41-.225-.563-.26-.278-.625-.435-1.005-.428h-.015c-.195 0-.36.034-.42.052-.03.01-.09.022-.135.037-.765.3-1.11 1.05-.945 1.8.033.19.116.37.24.518.075.078.15.113.195.113.06 0 .09-.05.045-.135-.015-.043-.12-.223-.135-.55-.012-.332.064-.68.28-.944.158-.196.353-.282.375-.292l.005.006.086-.045.04-.017c.097-.03.042-.018.142-.036h.03c.088-.02.18-.03.27-.03h.032zM13.962 11.593c.263.006.522.062.765.165.166.06.3.12.36.12.03 0 .045-.016.045-.016.03-.024.015-.08-.045-.154-.135-.195-.39-.366-.63-.45-.173-.064-.355-.094-.536-.094l.027-.036c-.375 0-.75.135-1.05.375-.226.18-.315.375-.226.39h.017c.074 0 .194-.045.36-.105.36-.135.644-.195.9-.195h.015zM17.332 10.822c.266-.024.533.023.773.14-.015-.66-.4-1.402-.69-1.3-.17.06-.2.36-.194.54.01.223.04.42.112.63v-.01z"/><path d="M5.947 15.126c-.044-.03-.076-.077-.09-.13-.02-.098-.01-.152.075-.212.065-.045.118-.066.118-.093 0-.024-.055-.055-.13-.055l.017-.043c-.09.003-.177.04-.24.106-.12.134-.165.404.03.63.224.24.57.3.614.6.01.05.014.1.01.15 0 .045-.017.12-.017.135-.06.255-.286.51-.656.51h-.142c-.048-.015-.083-.015-.113-.015-.02 0-.036 0-.042.016-.034.045.153.27.498.27h.02c.51-.016.93-.54.83-1.11-.09-.503-.593-.61-.78-.758zM14.934 12.426h.016c.052 0 .082-.01.097-.03.04-.067-.226-.282-.614-.282l-.053.02c-.06 0-.12 0-.18.016l-.165.045c-.03 0-.045.015-.06.015-.12.045-.226.105-.315.195-.104.12-.15.225-.104.24h.014c.046 0 .105-.03.21-.07.317-.137.663-.19 1.006-.158.058.003.103.01.148.01zM17.848 11.802c-.03.195.06.36.194.39.015 0 .03.015.03.015.135 0 .24-.13.27-.305.03-.19-.06-.362-.21-.383-.01-.004-.018-.004-.026-.004l.026-.03c-.135 0-.255.136-.284.316zM16.82 12.51c.072.042.153.064.236.064.107 0 .2-.045.245-.125.08-.14-.016-.335-.205-.44-.076-.042-.16-.064-.234-.064l-.007.01c-.104 0-.194.044-.24.12-.074.135.018.345.207.435z"/><path d="M23.38 15.627h.015c-.17-.354-.492-.608-.875-.69-.133-.603-.315-.9-.33-.944.07-.078.135-.158.15-.176.56-.69.194-1.695-.76-1.936-.537-.51-1.023-.75-1.422-.96-.383-.18-.23-.104-.588-.27-.096-.464-.127-1.544-.28-2.31-.134-.674-.41-1.17-.833-1.5-.17-.36-.405-.734-.693-1.004 1.332-2.04 1.68-4.05.705-5.1C18.04.226 17.394 0 16.623 0c-1.09 0-2.424.443-3.774 1.26l-.892-.72C8.203-2.415-2.415 10.65 1.333 13.505l.968.74c-.607 1.688.238 3.704 2 4.35.374.144.81.212 1.244.188 0 0 2.835 5.215 8.835 5.217 6.93 0 8.7-6.79 8.73-6.85 0 0 .554-.832.27-1.523zM1.613 12.64h.007c-.76-1.285.565-3.922 1.507-5.42 2.325-3.706 6.2-6.628 7.96-6.21l.485-.186 1.323 1.118c.91-.548 2.067-1.103 3.15-1.213-.66.146-1.462.49-2.415 1.07-.02.015-2.25 1.53-3.61 2.88-.743.735-3.72 4.305-3.72 4.305.546-1.02.904-1.53 1.767-2.61.495-.615 1.02-1.2 1.545-1.755.255-.255.495-.495.75-.735.093-.078.183-.153.272-.233-.295.204-1.11.772-1.562 1.15C6.805 6.674 4.615 9.6 3.79 12.45h.04c-.41.225-.81.585-1.166 1.073-.015 0-.915-.666-1.05-.884zM5.324 18c-1.34 0-2.43-1.143-2.43-2.555 0-1.41 1.09-2.557 2.43-2.557.35 0 .68.075.976.215 0 0 .517.262.663 1.492.15-.385.228-.7.228-.7.173.528.26 1.085.226 1.65.145-.194.3-.554.3-.554.264 1.574-.88 3.01-2.392 3.01zm2.99-9.028l-.04-.064c.098-.13.21-.255.318-.382.442-.66 1.432-1.92 3.062-2.854-.172-.026-.59.03-.664.036.417-.36 1.19-.597 1.725-.705-.154-.1-.528-.126-.712-.13-.056-.015-.056-.015-.12 0 .504-.285 1.438-.45 2.286-.3-.12-.15-.36-.255-.525-.3l-.076-.03.06-.015c.51-.105 1.11 0 1.575.195-.06-.135-.195-.27-.285-.36l-.075-.06c.495.105.96.315 1.32.555-.06-.09-.18-.255-.255-.345.465.135.99.465 1.23.945l.015.045c-.9-.69-3.51-.495-6.12 1.2-1.026.654-1.81 1.375-2.442 2.123-.177.263-.276.44-.28.446zm14.015 7.964c-.03.06-.36 1.83-2.25 3.315-2.37 1.876-5.506 1.682-6.676.63-.63-.6-.9-1.438-.9-1.438s-.075.48-.09.66c-.48-.81-.435-1.8-.435-1.8s-.256.464-.36.734c-.346-.9-.166-1.815-.166-1.815l-.27.406s-.135-1.02.18-1.86c.345-.9 1.005-1.545 1.14-1.635-.51-.15-1.08-.614-1.08-.614s.225.016.39-.03c0 0-1.005-.72-1.185-1.83.15.18.464.376.464.376-.104-.285-.165-.945-.06-1.575.18-1.215 1.185-1.995 2.325-1.995 1.198 0 2.01.255 3.028-.675.21-.195.375-.36.676-.435.03 0 .12-.03.27-.03.164-.006.325.035.465.12.554.33.675 1.185.734 1.8.21 2.325.12 1.905 1.065 2.385.448.225.958.435 1.528 1.05v.016c.48 0 .72.39.51.66-1.62 1.935-3.885 2.864-6.404 2.94l-.33.015c-1.02.03-1.35 1.35-.705 2.13.403.495 1.184.66 1.83.66 2.76.06 5.534-1.89 6.014-2.97l.03-.076c-.105.135-2.79 2.655-6.045 2.565 0 0-.36-.015-.69-.09-.436-.105-.78-.3-.9-.75.27.06.615.09 1.02.09 2.355 0 4.05-1.08 3.885-1.095h-.03c-.27.06-3.104 1.154-4.89.584.004-.05.012-.104.025-.153.16-.534.443-.46.9-.48l-.1.117c1.634-.056 2.954-.465 3.943-.93 1.05-.505 1.846-1.15 2.146-1.47.374.63.374 1.44.374 1.44s.136-.054.33-.054c.615 0 .75.555.285 1.11z"/></svg>