<svg xmlns="http://www.w3.org/2000/svg" width="128" height="128"><path d="M82.681 90.706c10.126-6.352 16.875-17.708 16.875-30.664 0-19.905-15.92-36.042-35.558-36.042s-35.554 16.137-35.554 36.042c0 19.907 15.916 36.042 35.554 36.042 2.889 0 5.694-.357 8.382-1.018 3.375 6.14 8.517 10.486 19.432 8.409v-6.109c0-.001-7-1.761-9.131-6.66zm-.249-25.899c0 6.018-1.915 11.479-5.026 15.514-3.908-4.16-10.033-7.58-17.805-7.144v7.084s5.273.209 8.882 6.412c-1.352.397-2.76.613-4.212.613-10.031 0-18.159-10.063-18.159-22.479v-9.286c0-12.415 8.128-22.479 18.159-22.479s18.162 10.063 18.162 22.478c-.001 1.595-.001 7.694-.001 9.287z"/></svg>