<svg xmlns="http://www.w3.org/2000/svg" width="128" height="128"><path d="M103.969 51.364l-.028-.149-.06-.288-.054-.166-.088-.25-.077-.168-.117-.227-.098-.16-.145-.208-.118-.149-.172-.185-.137-.135-.194-.164-.156-.118-.057-.042-36.561-24.377c-1.155-.77-2.659-.77-3.814 0l-36.562 24.374-.057.042-.155.118-.195.164-.138.135-.17.185-.119.149-.144.208-.099.16-.117.227-.077.168-.088.25-.054.166-.06.288-.027.149c-.02.15-.031.3-.031.451v24.375c0 .151.011.301.031.45l.027.147.06.288.054.166.088.252.077.166.117.229.099.158.144.208.119.149.17.185.138.134.195.164.155.118.057.042 36.562 24.375c.577.388 1.243.582 1.907.582.664 0 1.329-.194 1.906-.579l36.562-24.375.057-.042.156-.118.194-.164.137-.134.172-.185.118-.149.145-.208.098-.158.117-.229.077-.166.088-.252.054-.166.06-.288.028-.147c.019-.149.031-.299.031-.45v-24.378c0-.151-.012-.301-.031-.448zm-36.531-17.503l26.934 17.955-12.031 8.048-14.904-9.97v-16.033zm-6.876 0v16.034l-14.903 9.97-12.032-8.048 26.935-17.956zm-29.687 24.386l8.601 5.753-8.601 5.753v-11.506zm29.687 35.891l-26.934-17.955 12.032-8.046 14.903 9.968v16.033zm3.438-22.006l-12.159-8.133 12.159-8.132 12.158 8.133-12.158 8.132zm3.438 22.006v-16.034l14.904-9.968 12.031 8.046-26.935 17.956zm29.686-24.386l-8.6-5.753 8.6-5.753v11.506z"/></svg>