<svg xmlns="http://www.w3.org/2000/svg" width="128" height="128"><path fill="#fff" d="M94.295 61.501c.029-.468.071-.932.071-1.406 0-12.944-10.655-23.437-23.799-23.437-9.478 0-17.638 5.468-21.466 13.365-1.857-1.418-4.182-2.27-6.712-2.27-6.064 0-10.979 4.841-10.979 10.811 0 1.122.172 2.206.496 3.222-4.728 2.769-7.906 7.832-7.906 13.641 0 8.685 7.083 15.729 15.87 15.862l.186.01.065.002.065-.002h47.198c.288.014.569.043.861.043 8.701 0 15.755-6.945 15.755-15.514 0-6.459-4.008-11.99-9.705-14.327zm-48.819 17.839c-1.598-1.446-2.592-3.2-2.991-5.266-.132-.691-.198-1.414-.198-2.175-.002-2.945 1.069-5.379 3.216-7.297 2.145-1.92 4.873-2.882 8.186-2.88 3.401 0 6.607 1.272 9.438 3.818.707.634 1.389 1.349 2.048 2.141l3.641 4.282c.63.863 1.307 1.608 2.005 2.236 1.869 1.679 3.899 2.519 5.612 2.519 1.458 0 2.675-.446 3.655-1.341.855-.814 1.337-1.788 1.444-2.916l.022-.494c0-.49-.069-.954-.21-1.389-.233-.725-.66-1.377-1.28-1.959-.968-.924-2.188-1.379-3.666-1.379-1.817 0-3.613.612-5.582 2.519l-3.224-3.791-.392-.441c2.819-2.763 5.634-3.799 9.424-3.799 3.358 0 6.076.954 8.156 2.858l.047.038c2.113 1.9 3.173 4.356 3.173 7.37 0 .745-.067 1.458-.198 2.137-.397 2.039-1.393 3.777-2.985 5.217-1.563 1.44-3.471 2.341-5.724 2.7-.751.119-1.541.18-2.369.18-3.477-.002-6.694-1.246-9.46-3.729-.747-.672-1.462-1.434-2.141-2.289l-3.642-4.251c-.616-.853-1.282-1.59-1.975-2.214-1.865-1.675-3.921-2.513-5.683-2.513-.547 0-1.059.065-1.537.192-.794.213-1.489.606-2.088 1.177-.733.699-1.193 1.503-1.375 2.412-.061.302-.093.618-.091.944 0 1.292.466 2.398 1.397 3.315l.071.067c1.001.915 2.23 1.371 3.688 1.371 1.833 0 3.637-.615 5.602-2.54l3.208 3.745.354.427c-2.929 2.795-5.713 3.852-9.357 3.85-3.356.001-6.094-.95-8.219-2.852z"/></svg>