<svg viewBox="0 0 16 16" xmlns="http://www.w3.org/2000/svg" fill-rule="evenodd" clip-rule="evenodd" stroke-linejoin="round" stroke-miterlimit="1.414"><path d="M14.65 16H1.35C.6 16 0 15.4 0 14.65V1.35C0 .6.6 0 1.35 0H14.7c.7 0 1.3.6 1.3 1.35v13.3c0 .75-.6 1.35-1.35 1.35zM8 2.65H6c-1.85 0-3.35 1.5-3.35 3.35v4c0 1.85 1.5 3.35 3.35 3.35h4c1.85 0 3.35-1.5 3.35-3.35V7.35c0-.4-.3-.7-.7-.7H12c-.35 0-.65-.3-.65-.65 0-1.85-1.5-3.35-3.35-3.35zm2.05 8H6c-.35 0-.65-.3-.65-.65 0-.35.3-.65.65-.65h4.05c.35 0 .65.3.65.65 0 .35-.3.65-.65.65zm-1.7-5.3c.35 0 .65.3.65.65 0 .35-.3.65-.65.65h-2.4c-.35 0-.65-.3-.65-.65 0-.35.3-.65.65-.65h2.4z"/></svg>