<svg viewBox="0 0 16 16" xmlns="http://www.w3.org/2000/svg" fill-rule="evenodd" clip-rule="evenodd" stroke-linejoin="round" stroke-miterlimit="1.414"><path d="M15.885 13.152h-3.73c-.062 0-.113.04-.113.115v1.01c0 .063.038.114.114.114h3.73c.063 0 .114-.03.114-.11v-1.01c0-.07-.038-.11-.115-.11zm-4.91-11.508c.01.023.02.046.032.08V14.25c0 .04-.013.064-.025.077-.026.026-.05.04-.09.04H.102c-.025 0-.05 0-.064-.014-.025-.026-.038-.05-.038-.09V1.71c0-.05.026-.088.064-.1h10.828c.026 0 .064.012.077.024v.01zM1.212 13.05c0 .05.026.09.064.102h8.428c.038-.012.064-.05.064-.102V2.937c0-.05-.027-.09-.065-.102H1.277c-.038.013-.064.05-.064.102V13.05zm3.41-5.63c.434 0 .715.165.97.46.038.05.102.063.153.024l.69-.613c.05-.03.038-.11.013-.15-.423-.51-1.036-.83-1.827-.83-1.06 0-1.86.53-2.17 1.47-.11.33-.16.75-.16 1.32s.05.99.17 1.32c.31.95 1.11 1.47 2.17 1.47.8 0 1.41-.32 1.83-.81.03-.05.04-.11-.01-.15l-.69-.61c-.05-.03-.11-.03-.15.02-.26.3-.53.46-.97.46-.47 0-.83-.23-.98-.69-.09-.26-.11-.58-.11-.99 0-.41.03-.71.12-.98.16-.44.51-.67.99-.67z"/></svg>