<svg viewBox="0 0 16 16" xmlns="http://www.w3.org/2000/svg" fill-rule="evenodd" clip-rule="evenodd" stroke-linejoin="round" stroke-miterlimit="1.414"><path d="M15.66 2.665H9.964V4.79c.343-.26.755-.392 1.237-.392v2.065h2.05c-.01.58-.21 1.068-.6 1.463s-.88.598-1.46.61c-.45-.012-.86-.148-1.22-.41v1.42h4.48v.697H9.97v.862h4.477v.688h-4.48v1.56h5.697c.23 0 .34-.12.34-.358v-9.99c0-.227-.11-.34-.34-.34zm-4.137 3.458V4.04c.58.013 1.067.215 1.46.607.39.392.593.884.604 1.476h-2.064zm-6.018.035c-.035-.134-.093-.238-.175-.314-.08-.075-.188-.13-.322-.165-.15-.04-.305-.06-.46-.06l-.48.01v2h.017c.174.01.357.01.55 0 .19-.01.37-.06.54-.15.208-.15.333-.35.373-.61.04-.26.026-.51-.043-.74zM0 2.038v11.967l9.128 1.577V.418L0 2.038zM6.81 7.43c-.25.58-.623.95-1.122 1.11-.5.16-1.04.222-1.62.187v2.282l-1.202-.14V4.6l1.907-.1c.354-.022.703.017 1.045.12.343.102.614.307.815.615.2.307.313.664.34 1.07.025.407-.028.782-.162 1.125z" fill-rule="nonzero"/></svg>