<svg viewBox="0 0 16 16" xmlns="http://www.w3.org/2000/svg" fill-rule="evenodd" clip-rule="evenodd" stroke-linejoin="round" stroke-miterlimit="1.414"><path d="M8 0C3.6 0 0 3.6 0 8s3.6 8 8 8 8-3.6 8-8-3.56-8-8-8zm3.68 11.56c-.16.24-.44.32-.68.16-1.88-1.16-4.24-1.4-7.04-.76-.28.08-.52-.12-.6-.36-.08-.28.12-.52.36-.6 3.04-.68 5.68-.4 7.76.88.28.12.32.44.2.68zm.96-2.2c-.2.28-.56.4-.84.2-2.16-1.32-5.44-1.72-7.96-.92-.32.08-.68-.08-.76-.4-.08-.32.08-.68.4-.76 2.92-.88 6.52-.44 9 1.08.24.12.36.52.16.8zm.08-2.24C10.16 5.6 5.88 5.44 3.44 6.2c-.4.12-.8-.12-.92-.48-.12-.4.12-.8.48-.92 2.84-.84 7.52-.68 10.48 1.08.36.2.48.68.28 1.04-.2.28-.68.4-1.04.2z" fill-rule="nonzero"/></svg>