<svg viewBox="0 0 16 16" xmlns="http://www.w3.org/2000/svg" fill-rule="evenodd" clip-rule="evenodd" stroke-linejoin="round" stroke-miterlimit="1.414"><path d="M15.32 5.705c.213.405.376.85.488 1.337.113.487.176.996.19 1.528.014.53-.04 1.07-.16 1.61-.12.544-.298 1.075-.532 1.592-.233.518-.553 1.01-.96 1.48-.408.47-.876.893-1.405 1.267-.52.37-1.16.69-1.9.94-.74.26-1.55.43-2.43.53l-.2-.48c.05-.01.11-.03.2-.06.09-.03.25-.09.48-.2.24-.1.46-.22.68-.36.22-.14.46-.33.72-.58.27-.25.49-.52.68-.81.19-.3.35-.66.48-1.1.13-.44.2-.91.2-1.41 0-.48-.06-.92-.19-1.34-.13-.42-.3-.77-.51-1.08-.21-.3-.45-.59-.7-.86-.25-.27-.51-.53-.76-.77-.26-.24-.49-.49-.71-.73-.21-.24-.39-.51-.52-.81-.13-.3-.2-.61-.2-.94 0-.59.24-1.1.7-1.52.47-.43 1.11-.64 1.93-.64.24 0 .48.02.73.07s.55.14.89.29c.34.15.66.34.97.57.31.23.64.56.98.97.34.413.65.89.93 1.43zM.68 10.295C.468 9.89.305 9.445.193 8.958.08 8.47.016 7.962.003 7.43c-.015-.53.04-1.07.16-1.61.12-.544.297-1.075.53-1.592.234-.518.554-1.01.96-1.48.41-.47.877-.893 1.406-1.267.52-.37 1.16-.69 1.9-.94C5.7.28 6.51.1 7.39 0l.2.473c-.042.01-.106.03-.19.054-.083.026-.24.09-.475.195-.233.104-.458.223-.675.358-.215.135-.454.326-.715.574-.262.248-.487.518-.675.81-.19.293-.348.657-.477 1.093-.13.436-.194.904-.194 1.405 0 .473.06.917.2 1.333.13.417.3.775.51 1.076.21.31.45.59.7.87.25.28.51.53.76.77s.49.49.7.73c.22.25.39.52.52.81.13.3.2.61.2.94 0 .6-.24 1.11-.7 1.53-.47.43-1.11.64-1.93.64-.24 0-.48-.02-.73-.07s-.55-.14-.88-.29c-.34-.15-.66-.34-.98-.57-.31-.23-.64-.56-.98-.97-.34-.41-.65-.89-.93-1.43z" fill-rule="nonzero"/></svg>