<svg viewBox="0 0 16 16" xmlns="http://www.w3.org/2000/svg" fill-rule="evenodd" clip-rule="evenodd" stroke-linejoin="round" stroke-miterlimit="1.414"><path d="M8 16c-4.41 0-8-3.59-8-8s3.59-8 8-8 8 3.59 8 8-3.59 8-8 8zM8 .807C4.033.807.807 4.033.807 8c0 3.967 3.226 7.193 7.193 7.193 3.967 0 7.193-3.226 7.193-7.193C15.193 4.033 11.967.807 8 .807zM3.26 12.354C4.43 13.634 6.122 14.43 8 14.43c.96 0 1.867-.21 2.685-.585L6.22 9.392l-2.96 2.962zm9.525-.045c1.027-1.14 1.657-2.66 1.657-4.31 0-2.59-1.525-4.81-3.713-5.84L6.67 6.21l6.11 6.1zM6.2 6.69l-3.382 3.37-.453-.453L5.923 6.05l4.154-4.15C9.425 1.68 8.73 1.56 8 1.56 4.442 1.558 1.558 4.442 1.558 8c0 1.448.475 2.785 1.293 3.867l3.37-3.37.24.22 4.83 4.83c.1-.055.19-.11.28-.177L6.22 8.033 2.984 11.27l-.453-.452 3.69-3.69.24.22 5.64 5.624c.09-.066.17-.143.25-.21L6.26 6.685l-.056.01zm2.032.685l-.452-.45 3.192-3.194.453.46-3.193 3.19zM11.26 2.99L7.58 6.67l-.453-.452 3.68-3.68.453.455z"/></svg>