<svg viewBox="0 0 16 16" xmlns="http://www.w3.org/2000/svg" fill-rule="evenodd" clip-rule="evenodd" stroke-linejoin="round" stroke-miterlimit="1.414"><path d="M8 0C3.582 0 0 3.582 0 8s3.582 8 8 8 8-3.582 8-8-3.582-8-8-8zm4.39 9.77c-.99 0-1.794-.804-1.794-1.793 0-.99.805-1.794 1.794-1.794.99 0 1.794.805 1.794 1.794 0 .99-.805 1.793-1.794 1.793zm-7.37-.008c-.066 0-.128-.027-.177-.077L3.48 8.325 2.112 9.69c-.046.046-.107.072-.172.072-.135 0-.245-.11-.245-.245 0-.066.026-.128.074-.175l1.36-1.367L1.77 6.61c-.05-.046-.075-.108-.075-.174 0-.135.11-.244.245-.244.065 0 .126.025.172.07l1.37 1.366 1.365-1.364c.046-.047.108-.072.174-.072.14 0 .25.11.25.244 0 .065-.02.126-.07.172l-1.37 1.37L5.2 9.345c.046.046.07.107.07.172 0 .135-.11.245-.243.245zm5.344-3.06c-.53.067-.587.317-.587.936v1.858c0 .135-.11.244-.245.244s-.244-.11-.245-.244v-3.02c0-.136.107-.244.242-.244.11 0 .21.083.23.193.18-.14.4-.212.62-.212h.07c.13 0 .24.11.24.245s-.11.235-.25.24c0 0-.06 0-.11.005zm-2.06 1.47H5.75c0 .012.002.025.004.038.013.07.03.14.055.206.13.354.51.85 1.22.86.22-.002.42-.057.6-.153.14-.08.26-.18.35-.285.03-.038.06-.075.08-.112.12-.153.27-.124.36-.055.11.09.12.26.03.38l-.01.01c-.14.18-.29.33-.46.44-.17.11-.35.19-.54.23-.22.06-.43.07-.65.04-.73-.09-1.34-.62-1.52-1.34-.04-.14-.06-.28-.06-.43 0-.57.28-1.13.75-1.47.59-.41 1.39-.44 2-.05.42.27.69.68.79 1.18.05.28-.14.53-.49.54zM12.39 6.69c-.71 0-1.287.577-1.287 1.287s.577 1.287 1.287 1.287 1.287-.578 1.287-1.287c0-.71-.577-1.288-1.287-1.288zm0 1.73c-.245 0-.444-.198-.444-.444 0-.245.2-.444.444-.444.245 0 .445.2.445.444 0 .246-.2.445-.445.445zM7.03 6.685c-.607 0-1.115.415-1.257.977v.02H8.29c-.135-.57-.648-.996-1.26-.996z"/></svg>