<svg viewBox="0 0 16 16" xmlns="http://www.w3.org/2000/svg" fill-rule="evenodd" clip-rule="evenodd" stroke-linejoin="round" stroke-miterlimit="1.414"><path d="M13.853 12.497c-.497.475-1.04.678-1.695.678-.88 0-2.214-.407-3.23-1.107-1.086-.746-2.51-1.492-3.708-1.514.882-1.198 2.26-2.418 3.548-3.865.475-.52 3.322-3.8 3.82-4.39.36-.43.542-.95.542-1.47 0-.2-.023-.39-.068-.57-1.356.27-2.373.4-4 .4C7.277.67 5.99.45 5.242 0c-.52.678-1.04 1.582-1.04 2.08 0 .632.612 1.152 2.126 1.152.497 0 1.31-.023 2.44-.113-2.328 3-4.632 5.44-6.01 6.98-.476.52-.747 1.22-.747 1.92 0 .27.05.54.12.79.43-.07.86-.12 1.31-.12.93 0 1.86.2 2.72.56 1.71.76 3.31 2.75 5.12 2.75 1.47 0 2.71-1.16 2.71-2.69 0-.27-.04-.55-.13-.82z" fill="#0e0000" fill-rule="nonzero"/></svg>