<svg xmlns="http://www.w3.org/2000/svg" width="128" height="128"><path fill="#fff" d="M48.492 49.648c0-1.614 1.305-2.919 2.919-2.919s2.919 1.305 2.919 2.919-1.305 2.919-2.919 2.919c-1.615-.001-2.919-1.306-2.919-2.919zm55.379 19.365c-.755 1.82-2.197 3.296-4.051 3.983.034.206.034.446.034.687 0 3.949-1.305 8.618-8.584 8.618-5.494 0-7.039-2.438-7.039-5.185 0-4.361 5.528-4.67 10.747-6.009l-.172-1.889c-.892 1.099-3.09 2.06-5.94 2.06-2.188 0-3.741-.828-4.721-2.166-1.615 2.948-4.069 4.398-7.123 4.398-2.132 0-3.839-1.408-4.42-3.34-1.791 2.157-4.243 3.34-7.253 3.34-2.847 0-4.777-1.214-5.648-2.984-1.568 1.998-3.679 2.984-6.197 2.984-2.644 0-4.636-2.163-4.636-4.807l.003-.276c-3.001 3.443-7.75 5.083-13.258 5.083-6.009 0-8.075-3.777-8.075-5.494l.043-3.434c0-9.957-.483-12.704-.483-14.524v-.103c0-.206.039-.446-.202-.446-.24 0-.295.034-.57.378-.412.549-.997.721-1.615.446-.618-.343-.906-.996-.597-1.717.858-1.923 2.114-2.919 3.969-2.919 3.296 0 4.015 2.197 4.015 4.67v.103c0 1.408.043 4.155.043 6.283 1.133-.927 2.979-2.129 5.76-2.129 4.12 0 6.927 3.777 6.927 8.927 0 2.026-.485 3.673-1.309 4.944 2.988-1.313 5.106-4.11 5.285-9.516l-.115-1.783c0-1.408 1.171-2.578 2.579-2.578 1.408 0 2.577 1.161 2.577 2.569 0 4.464-.342 7.027-.342 11.147 0 .652.55 1.178 1.202 1.178 2.055 0 4.254-2.388 4.59-9.345l-.058-2.025h-.412c-.858 0-1.545-.642-1.545-1.5s.687-1.5 1.545-1.5h.275c-.069-2-.103-2.8-.103-4.036 0-1.408 1.167-2.629 2.575-2.629 1.408 0 2.575 1.15 2.575 2.558 0 1.064-.034 2.361-.069 3.837 1.099-.034 2.369-.073 4.018-.073.961 0 1.716.753 1.716 1.715 0 .961-.755 1.716-1.716 1.716-1.683 0-2.988-.001-4.121-.035-.103 2.815-.172 5.871-.172 8.618 0 1.476.755 2.747 2.404 2.747 3.535 0 6.017-2.859 6.32-9.842-.084-6.337-.313-9.064-.313-11.446 0-1.408 1.167-2.575 2.575-2.575 1.408 0 2.575 1.167 2.575 2.575 0 2.919-.343 6.009-.343 20.086 0 .652.549 1.202 1.202 1.202 1.93 0 3.988-2.187 4.509-8.222-.098-1.432-.218-2.676-.218-3.795 0-1.408 1.167-2.575 2.575-2.575 1.408 0 2.575 1.167 2.575 2.575 0 1.888-.345 4.635-.345 6.695 0 1.717.685 3.09 2.745 3.09 3.125 0 4.459-1.888 4.459-3.605 0-2.06-.351-4.292-.351-6.18 0-1.408 1.15-2.575 2.558-2.575 1.407 0 2.66 1.167 2.66 2.575 0 1.888-.293 4.12-.293 7.039v.618c0 1.751.155 3.262.361 4.567.618-.343 1.245-.996 2.035-2.129.412-.584 1.069-.79 1.721-.481.687.379 1.001 1.032.657 1.856zm-63.789-5.459c0-2.919-1.305-4.635-3.262-4.635-3.056 0-4.395 2.129-4.464 3.811l-.172 5.459s1.064 1.373 3.434 1.373c2.266 0 4.464-1.717 4.464-6.008zm55.137 11.33l-.034-.618c-3.88.755-6.318 1.065-6.318 2.85 0 .79.584 1.717 2.404 1.717 3.089 0 4.017-1.888 3.948-3.949z"/></svg>