<svg xmlns="http://www.w3.org/2000/svg" width="128" height="128"><path fill="#fff" d="M100.017 24.008l-72.108-.008-.024 45.899h12.471c10.263.195 9.305 7.169 10.206 13.519.917 6.463 7.088 9.63 12.276 9.63 6.788 0 12.155-5.813 12.155-12.756 0-5.343-2.452-9.191-13.007-13.689-11.968-5.066-14.98-12.195-14.98-19.129 0-11.351 8.671-18.942 18.748-18.942 5.278 0 11.034 1.689 14.931 6.081 3.158 3.556 4.295 7.137 4.165 11.562-.057 1.941-.284 4.425 3.646 4.482l11.521.024v-26.673zm.098 33.095l-10.872-.049s-11.497.893-10.847-7.924c.309-4.246-.942-7.494-1.827-8.858-2.29-3.54-6.114-5.31-10.726-5.31-6.788 0-11.773 5.651-11.773 11.562 0 5.156 2.501 10.912 13.145 15.045 9.232 3.564 14.972 9.768 14.972 18.398 0 9.094-6.91 19.706-19.34 19.706-6.406 0-12.203-1.526-16.645-7.884-2.257-3.223-3.126-7.397-3.28-11.562-.122-3.199-.966-3.905-3.158-3.905l-11.846.041.008 27.637h72.157v-46.5l.032-.397z"/></svg>