<svg xmlns="http://www.w3.org/2000/svg" width="128" height="128"><path fill="#fff" d="M53.605 81.574h8.963v-37.397h-8.963v37.397zm11.364 0h8.963v-26.927h-8.963v26.927zm-26.94-27.488c-1.787 0-3.494.338-5.066.947v-10.856h-8.963l.006 23.931c0 7.744 6.278 14.023 14.023 14.023s14.023-6.279 14.023-14.023-6.278-14.022-14.023-14.022zm0 19.002c-2.75 0-4.979-2.229-4.979-4.979s2.229-4.979 4.979-4.979 4.979 2.229 4.979 4.979-2.229 4.979-4.979 4.979zm51.948-19.002c-7.745 0-14.023 6.278-14.023 14.023l-.006 23.931h8.962v-10.856c1.572.61 3.279.948 5.067.948 7.744 0 14.023-6.278 14.023-14.023s-6.278-14.023-14.023-14.023zm0 19.002c-2.75 0-4.979-2.229-4.979-4.979s2.229-4.979 4.979-4.979 4.979 2.229 4.979 4.979-2.229 4.979-4.979 4.979zm-5.837-31.692c0-3.002-2.434-5.436-5.436-5.436s-5.436 2.434-5.436 5.436 2.434 5.436 5.436 5.436 5.436-2.434 5.436-5.436z"/></svg>