<svg xmlns="http://www.w3.org/2000/svg" width="128" height="128"><path d="M89.303 47.552c-3.032-3.011-6.597-5.414-10.585-7.131-3.974-1.718-8.288-2.59-12.821-2.59l-4.206-.004c-3.482 0-6.318 2.811-6.318 6.294 0 3.48 2.836 6.341 6.318 6.341l4.206-.007c2.802 0 5.487.534 7.984 1.579 2.484 1.043 4.698 2.515 6.568 4.385 1.873 1.869 3.359 4.069 4.415 6.544 1.052 2.504 1.586 5.183 1.586 7.946 0 2.774-.533 5.451-1.593 7.963-1.06 2.494-2.54 4.697-4.408 6.537-1.879 1.876-4.09 3.357-6.568 4.388-2.494 1.046-5.176 1.575-7.97 1.575h-3.797c-2.805 0-5.493-.53-7.988-1.59-2.474-1.032-4.689-2.51-6.568-4.399-1.869-1.86-3.348-4.072-4.412-6.57-1.047-2.501-1.576-5.19-1.576-7.979l-.016-40.72c0-3.48-2.847-6.114-6.326-6.114-3.489 0-6.302 2.836-6.302 6.317l.002 40.563c0 4.513.879 8.826 2.603 12.827 1.738 4.005 4.139 7.561 7.145 10.568 3.023 3.014 6.583 5.416 10.569 7.137 3.99 1.716 8.298 2.588 12.834 2.588h3.854c4.528 0 8.847-.872 12.834-2.588 3.996-1.726 7.556-4.122 10.564-7.134 3.01-3.001 5.41-6.55 7.147-10.551 1.725-3.97 2.597-8.28 2.597-12.818 0-4.53-.876-8.834-2.61-12.806-1.728-3.987-4.145-7.542-7.162-10.551z"/></svg>