<svg xmlns="http://www.w3.org/2000/svg" width="128" height="128"><path fill="#fff" d="M32.661 103.266h39.046s-8.661-19.67-6.459-37.725 16.44-26.275 24.514-27.156c8.073-.881 12.477 4.11 12.477 4.11l1.761-2.642s-11.596-11.743-26.275-10.422-24.808 11.009-31.119 22.752-9.982 19.963-12.477 32.294c-2.496 12.33-1.468 18.789-1.468 18.789zm-7.78-19.67l7.633.587-1.321 7.633-7.193-.88.881-7.34zm12.036-16.146l2.055-5.725-6.752-2.642-2.202 6.165 6.899 2.202zm9.542-19.67l3.963-4.697-5.138-3.376-4.11 4.55 5.285 3.523zm10.422-18.202l3.523 4.257 4.844-2.789-3.523-3.963-4.844 2.495zm17.174-4.844l.881 4.257 6.018-.147-.587-3.817-6.312-.293zm20.404 4.55l-.147 2.642 4.11 2.202.881-1.321-4.844-3.523zm-.881 11.303v2.202l3.963.44v-1.761l-3.963-.881zm-12.624 1.908l1.908 3.523 2.789-2.202-.587-2.349-4.11 1.028zm-6.018 4.551l2.936 4.404-1.761 3.083-4.257-4.697 3.082-2.79zm-5.872 12.183l-1.908 3.817 4.991 4.257 1.174-4.844-4.257-3.23zm-2.055 13.358l-.294 5.138 6.165 2.642-.294-4.844-5.577-2.936zm1.762 18.202l1.468 5.284 7.78.44-2.789-5.725h-6.459z"/></svg>