<svg xmlns="http://www.w3.org/2000/svg" width="128" height="128"><path d="M104 36.336c0 5.461-4.394 9.835-9.8 9.835-5.461 0-9.849-4.374-9.849-9.835 0-5.42 4.389-9.794 9.849-9.794 5.406 0 9.8 4.374 9.8 9.794zm-9.8 17.826c-5.461 0-9.849 4.421-9.849 9.829 0 5.426 4.389 9.832 9.849 9.832 5.406 0 9.8-4.406 9.8-9.832 0-5.408-4.394-9.829-9.8-9.829zm0 27.65c-5.461 0-9.849 4.392-9.849 9.832 0 5.426 4.389 9.814 9.849 9.814 5.406 0 9.8-4.389 9.8-9.814 0-5.441-4.394-9.832-9.8-9.832zm-30.203-55.27c-5.423 0-9.812 4.374-9.812 9.794 0 5.461 4.389 9.835 9.812 9.835 5.426 0 9.818-4.374 9.818-9.835 0-5.42-4.392-9.794-9.818-9.794zm0 27.62c-5.423 0-9.812 4.421-9.812 9.829 0 5.426 4.389 9.832 9.812 9.832 5.426 0 9.818-4.406 9.818-9.832 0-5.408-4.392-9.829-9.818-9.829zm-30.183-27.62c-5.423 0-9.814 4.374-9.814 9.794 0 5.461 4.391 9.835 9.814 9.835s9.832-4.374 9.832-9.835c0-5.42-4.409-9.794-9.832-9.794z"/></svg>