<svg xmlns="http://www.w3.org/2000/svg" width="128" height="128"><path fill="#fff" d="M37.219 39.495h7.513c.43 0 .776-.35.777-.777 0-.003-.091-6.438-.091-8.227v-.021c0-1.47.308-2.751.846-3.825l.257-.482-.086.048-14.589 14.465-.055.085.773-.379c1.271-.573 2.811-.887 4.655-.887zm58.422-1.576c-.596-3.193-2.494-4.766-4.211-5.384-1.852-.669-5.606-1.362-10.323-1.918-3.795-.447-8.256-.411-10.95-.328-.323-2.215-1.877-4.238-3.615-4.939-4.631-1.864-11.787-1.414-13.625-.899-1.46.408-3.076 1.244-3.975 2.533-.603.861-.993 1.963-.996 3.504 0 .872.024 2.926.046 4.751.022 1.831.046 3.468.046 3.479-.001 1.63-1.322 2.956-2.959 2.958h-7.509c-1.602 0-2.826.269-3.76.694-.936.425-1.599.998-2.103 1.676-1.003 1.346-1.177 3.008-1.173 4.704 0 0 .015 1.386.349 4.067.278 2.075 2.528 16.571 4.665 20.979.829 1.715 1.381 2.43 3.009 3.186 3.628 1.553 11.914 3.281 15.797 3.776 3.876.496 6.309 1.539 7.76-1.501.005-.008.29-.756.683-1.855 1.259-3.815 1.434-7.199 1.434-9.648 0-.249.365-.26.365 0 0 1.729-.33 7.848 4.292 9.49 1.825.647 5.61 1.224 9.456 1.675 3.478.4 6.002 1.768 6.002 10.691 0 5.429-1.14 6.173-7.101 6.173-4.832 0-6.673.125-6.673-3.714 0-3.102 3.068-2.777 5.343-2.777 1.016 0 .278-.756.278-2.67 0-1.904 1.191-3.005.065-3.033-7.864-.216-12.491-.009-12.491 9.826 0 8.928 3.417 10.586 14.578 10.586 8.751 0 11.835-.287 15.449-11.498.715-2.213 2.444-8.967 3.491-20.308.661-7.171-.625-28.813-1.644-34.276zm-15.254 23.922c-1.081-.038-2.121.03-3.091.186.273-2.204 1.183-4.908 4.405-4.795 3.567.123 4.067 3.494 4.08 5.778-1.504-.67-3.366-1.098-5.394-1.169z"/></svg>