<svg xmlns="http://www.w3.org/2000/svg" width="128" height="128" ><path fill="#fff" d="m 64.75,24.125 c -24.450301,0 -44.28125,19.649357 -44.28125,43.875 0,13.658378 6.309146,25.861427 16.1875,33.90625 6.841979,-8.361231 16.778118,-13.60633 27.875,-13.53125 11.081881,0.07498 21.033837,5.440964 27.875,13.875 10.1245,-8.0387 16.625,-20.39499 16.625,-34.25 0,-24.225643 -19.830949,-43.875 -44.28125,-43.875 z m -0.21875,27.40625 c 8.986328,0 16.28125,7.345035 16.28125,16.40625 0,9.061215 -7.294922,16.40625 -16.28125,16.40625 -8.986328,0 -16.25,-7.345035 -16.25,-16.40625 0,-9.061215 7.263672,-16.40625 16.25,-16.40625 z" /></svg>
