<svg xmlns="http://www.w3.org/2000/svg" width="128" height="128"><path fill="#fff" d="M55.62 24c-.51 4.123-1.44 7.515-2.791 10.183-1.35 2.67-3.141 4.954-5.374 6.858-2.233 1.903-4.913 3.365-8.046 4.384v11.398h8.76v28.036c0 3.653.383 6.44 1.149 8.363.765 1.924 2.141 3.741 4.124 5.449 1.982 1.708 4.378 3.023 7.189 3.946 2.809.921 6.039 1.383 9.694 1.383 3.22 0 6.215-.323 8.985-.969 2.768-.648 5.863-1.773 9.281-3.382v-12.58c-4.008 2.634-8.037 3.951-12.085 3.951-2.279 0-4.304-.53-6.072-1.593-1.336-.784-2.25-1.836-2.742-3.153s-.736-4.295-.736-8.932v-20.519h18.997v-12.559h-18.997v-20.264h-11.336z"/></svg>