<svg xmlns="http://www.w3.org/2000/svg" width="128" height="128"><path d="M53.621 77.184c-.227.15-.448.325-.646.527-1.508 1.516-1.508 3.975 0 5.489 1.506 1.519 3.95 1.519 5.566.019l24.563-24.709c3.012-3.033 7.902-3.033 10.916 0 3.016 3.031 3.016 7.949 0 10.981l-23.292 23.539c3.017 3.031 7.903 3.031 10.917 0l17.835-18.05c6.027-6.064 6.027-15.897 0-21.961-6.03-6.064-15.804-6.064-21.835 0l-24.024 24.165zm37.561-15.946c-1.509-1.516-3.951-1.516-5.459 0-.199.204-.377.422-.523.655l-23.928 24.069c-3.016 3.033-7.902 3.033-10.917 0l-.109-.016c-1.506-1.516-3.951-1.516-5.458 0-1.508 1.516-1.508 3.975 0 5.489.192.195.398.362.616.506 6.059 5.572 15.463 5.406 21.326-.489l24.452-24.723c1.507-1.516 1.507-3.976 0-5.491zm-40.827 13.742l24.453-24.722c1.506-1.518 1.506-3.975 0-5.491-1.509-1.517-3.951-1.517-5.459 0-.202.201-.377.422-.523.654l-23.928 24.07c-3.016 3.033-7.902 3.033-10.916 0-3.016-3.032-3.016-7.95 0-10.981l23.291-23.539c-3.015-3.033-7.903-3.033-10.919 0l-17.832 18.048c-6.03 6.064-6.03 15.897 0 21.961 6.029 6.064 15.805 6.064 21.833 0zm-13.755-13.742c-1.508 1.516-1.508 3.975 0 5.491 1.506 1.515 3.952 1.515 5.566.016l24.564-24.706c2.861-2.879 7.409-3.025 10.441-.441l.365.425c1.507 1.514 3.952 1.514 5.459 0 1.484-1.495 1.553-3.955.109-5.473-6.028-6.066-15.802-6.066-21.832 0l-24.023 24.163c-.231.148-.448.322-.649.525z"/></svg>