<svg xmlns="http://www.w3.org/2000/svg" width="128" height="128"><path fill="#fff" d="M65.874 24c-21.832 0-32.84 15.653-32.84 28.706 0 7.903 2.992 14.934 9.41 17.555 1.052.43 1.995.015 2.3-1.15.212-.807.714-2.841.939-3.688.308-1.153.188-1.557-.661-2.561-1.851-2.183-3.033-5.009-3.033-9.011 0-11.613 8.689-22.008 22.624-22.008 12.34 0 19.12 7.54 19.12 17.61 0 13.249-5.864 24.431-14.568 24.431-4.807 0-8.406-3.975-7.252-8.851 1.381-5.821 4.056-12.104 4.056-16.306 0-3.761-2.019-6.899-6.197-6.899-4.914 0-8.862 5.084-8.862 11.894 0 4.337 1.465 7.271 1.465 7.271s-5.029 21.308-5.91 25.039c-1.756 7.432-.264 16.542-.138 17.463.074.545.775.675 1.092.263.453-.592 6.306-7.818 8.296-15.037.563-2.044 3.232-12.631 3.232-12.631 1.597 3.045 6.263 5.728 11.225 5.728 14.772 0 24.793-13.467 24.793-31.492.001-13.632-11.544-26.326-29.091-26.326z"/></svg>