<svg xmlns="http://www.w3.org/2000/svg" width="128" height="128"><path fill="#fff" d="M56.028 51.264l14.672-21.257c2.773-4.004 6.354-6.007 10.745-6.007 3.581 0 6.68 1.271 9.299 3.812 2.618 2.542 3.927 5.584 3.927 9.126 0 2.619-.692 4.93-2.079 6.932l-13.228 19.235 16.174 20.505c1.617 2.041 2.425 4.43 2.425 7.162 0 3.621-1.27 6.729-3.811 9.328-2.542 2.6-5.624 3.899-9.242 3.899-3.967 0-6.99-1.289-9.07-3.87l-19.812-24.721v13.632c0 3.889-.674 6.912-2.021 9.068-2.465 3.928-6.046 5.892-10.743 5.892-4.275 0-7.587-1.444-9.935-4.332-2.195-2.657-3.292-6.181-3.292-10.57v-50.542c0-4.158 1.116-7.585 3.35-10.281 2.348-2.85 5.582-4.275 9.703-4.275 3.928 0 7.201 1.425 9.82 4.275 1.462 1.579 2.387 3.176 2.771 4.794.232 1.002.348 2.868.348 5.603v12.592z"/></svg>