<svg xmlns="http://www.w3.org/2000/svg" width="128" height="128"><path fill="#fff" d="M24 63.378v22.768h16.899v-17.497c0-9.474.63-13.911 10.246-13.911h1.706v-12.89h-3.835c-14.172 0-25.016 0-25.016 21.53m47.654-4.378c.768-4.776 3.67-7.419 8.706-7.419 4.352 0 7.424 3.324 7.424 7.419h-16.13zm7.167-18.259c-13.996 0-23.387 10.494-23.387 23.378 0 14.772 10.67 23.14 24.84 23.14 10.072 0 19.377-4.437 22.786-14.002h-15.783c-1.37 2.14-4.358 3.162-7.087 3.162-5.293 0-8.194-3.584-8.622-8.623h32.432c0-17.243-7.594-27.055-25.179-27.055"/></svg>