<svg xmlns="http://www.w3.org/2000/svg" width="128" height="128"><path fill="#000000" d="M96.95 41.312c2.133 1.206 3.879 4.198 3.879 6.648v32.079c0 2.451-1.745 5.442-3.879 6.648l-29.019 16.407c-2.133 1.206-5.625 1.208-7.759.005l-29.12-16.416c-2.134-1.204-3.881-4.193-3.881-6.644v-32.079c0-2.45 1.747-5.44 3.881-6.643l29.119-16.416c2.135-1.203 5.626-1.201 7.759.005l4.228 2.39c2.335 1.32 2.493 5.438.353 9.197l-3.875 6.807c-1.772 3.33-6.218 6.563-9.933 7.221l-.953.169c-3.714.658-8.153-.242-9.84-.289-.992-.028-2.001.258-2.869.883-2.103 1.515-2.581 4.449-1.065 6.553 1.515 2.104 4.449 2.581 6.553 1.065.366-.263.682-.57.948-.907.449-.571 2.824-.896 5.131-1.152.786-.087 1.427-.022 1.427-.022l6.303-3.406-7.237 5.496c-.331.305-.738.633-1.224.98-2.71 1.939-7.209 4.688-8.532 4.975-.777.169-1.528.518-2.188 1.054-2.251 1.827-2.596 5.133-.769 7.384 1.827 2.252 5.133 2.596 7.385.769.576-.467 1.027-1.031 1.348-1.65.547-1.051 1.58-2.767 2.814-3.65.657-.47 2.003-1.617 2.817-2.2 1.35-.966 1.966-.922 2.339.304l3.145-6.455-2.94 10.499-.155.566-.99 3.244c-.546 1.791-1.176 3.308-1.398 3.405l-.395.192c-2.906 1.544-4.009 5.152-2.465 8.058 1.545 2.906 5.152 4.009 8.058 2.465 2.906-1.544 4.009-5.152 2.465-8.058-.105-.198-.22-.388-.344-.568-.208-.303.487-3.451 1.588-7.059l.051-.166c1.101-3.608 4.505-7.116 6.17-5.258 1.665 1.857 2.038 3.749 1.887 4.911-.089.684-.045 1.396.153 2.101.786 2.812 3.703 4.453 6.514 3.666 2.811-.787 4.452-3.703 3.666-6.515-.237-.847-.667-1.587-1.23-2.187-.957-1.02-3.85-3.881-6.007-6.975l-.136-.195c-2.157-3.094-2.391-7.103-.69-10.469l4.655-8.098c2.571-4.472 6.804-6.883 9.455-5.384l4.802 2.715z"/></svg>