<svg xmlns="http://www.w3.org/2000/svg" width="128" height="128"><path fill="#fff" d="M68.234 56.334l5.465 2.546 8.148-2.432v-5.655c-.288-9.623-8.153-17.34-17.847-17.34-9.658 0-17.503 7.662-17.847 17.236v25.83c0 2.338-1.895 4.234-4.234 4.234-2.338 0-4.234-1.895-4.234-4.234v-10.947h-13.685v11.093c0 9.877 8.006 17.883 17.883 17.883 9.79 0 17.725-7.869 17.863-17.625l.02-25.513c0-2.338 1.895-4.234 4.234-4.234 2.338 0 4.234 1.896 4.234 4.234v4.924zm22.08 9.238v11.458c0 2.338-1.895 4.234-4.234 4.234-2.338 0-4.234-1.895-4.234-4.234v-11.239l-8.148 2.432-5.465-2.546v11.147c.085 9.801 8.06 17.723 17.883 17.723 9.877 0 17.883-8.006 17.883-17.883v-11.093h-13.685z"/></svg>