<svg xmlns="http://www.w3.org/2000/svg" width="128" height="128"><path fill="#fff" d="M104 72.646v29.576h-17.147v-27.595c0-6.932-2.48-11.663-8.687-11.663-4.738 0-7.557 3.188-8.797 6.272-.452 1.103-.569 2.637-.569 4.181v28.805h-17.152s.231-46.738 0-51.58h17.151v7.311l-.113.167h.113v-.167c2.278-3.509 6.348-8.523 15.456-8.523 11.285 0 19.745 7.373 19.745 23.216zm-70.294-46.868c-5.868 0-9.706 3.849-9.706 8.91 0 4.951 3.727 8.916 9.478 8.916h.115c5.981 0 9.701-3.964 9.701-8.916-.113-5.061-3.72-8.91-9.588-8.91zm-8.687 76.444h17.146v-51.58h-17.146v51.58z"/></svg>