<svg xmlns="http://www.w3.org/2000/svg" width="128" height="128"><path fill="#fff" d="M34.611 36.553c-6.236 12.056-3.434 26.736 4.369 37.379.282.388.571.77.865 1.151l.274.344c.245.311.496.62.749.925l.273.324c.339.4.686.797 1.04 1.185l.051.054c.335.367.677.728 1.026 1.085l.328.328c.274.278.553.55.836.82l.328.315c.383.357.77.712 1.164 1.058l.121.102c.364.317.733.626 1.107.934l.396.317c.295.237.591.467.889.695l.437.33c.326.241.654.477.986.712l.335.236c.343.237.692.467 1.043.693l.395.263c.482.305.97.606 1.464.896l.38.212c.371.216.745.427 1.124.631l.626.328c.311.16.622.324.936.477l.351.168c.401.193.805.38 1.213.564l.287.127c.474.207.954.407 1.438.597l.373.147c.441.17.884.336 1.332.494l.208.075c.5.172 1.003.336 1.51.492l.391.118c.52.153 1.036.32 1.568.44 14.055 3.197 28.888.326 37.245-10.562 0 0-9.95 26.831-44.204 20.585-.539-.1-1.056-.288-1.579-.446l-.369-.11c-.513-.16-1.024-.324-1.529-.5l-.172-.06c-.461-.162-.919-.334-1.371-.508l-.354-.139c-.489-.193-.973-.394-1.453-.604l-.264-.118c-.419-.187-.834-.38-1.246-.577l-.322-.156-.182-.087-.786-.409-.608-.313c-.37-.201-.735-.407-1.098-.616l-.405-.228c-.494-.291-.982-.591-1.464-.896l-.405-.27c-.313-.203-.628-.407-.935-.618l-.096-.069-.351-.249c-.324-.226-.644-.456-.963-.691l-.459-.349c-.288-.22-.575-.444-.858-.67l-.426-.34c-.346-.286-.691-.577-1.029-.869l-.197-.168-.018-.015c-.384-.336-.76-.68-1.133-1.031l-.338-.322c-.279-.268-.555-.537-.827-.811l-.332-.334c-.351-.361-.697-.722-1.035-1.091l-.04-.044-.021-.021c-.347-.382-.686-.772-1.019-1.164l-.279-.334c-.248-.299-.492-.597-.731-.898l-.298-.38c-.269-.346-.534-.697-.791-1.052l-.146-.197-.025-.033c-.298-.413-.586-.832-.868-1.253l-.255-.394c-.204-.311-.404-.622-.6-.938l-.295-.486c-.176-.295-.349-.589-.517-.886l-.282-.504-.158-.28-.253-.488-.396-.77c-5.411-10.817-6.292-24.062.79-34.242m21.99-8.575c-5.122 7.371-4.844 17.238-.849 25.035.67 1.307 1.423 2.575 2.266 3.782.768 1.1 1.618 2.409 2.637 3.293.369.407.755.803 1.149 1.193l.303.299c.383.371.772.737 1.174 1.091l.048.042.011.01c.445.39.905.766 1.371 1.135l.311.243c.468.359.945.712 1.435 1.048l.041.031.655.432.31.205c.35.224.703.442 1.063.651l.15.087c.31.178.624.355.94.525l.334.174.658.34.1.046c.451.222.907.436 1.371.639l.303.124c.371.158.747.311 1.124.456l.481.176c.342.127.686.243 1.032.359l.467.149c.493.153.979.346 1.493.431 26.449 4.383 32.555-15.98 32.555-15.98-5.504 7.927-16.163 11.709-27.537 8.757-.505-.133-1.003-.278-1.498-.434l-.45-.145c-.352-.114-.701-.234-1.048-.361l-.473-.176c-.38-.145-.755-.297-1.128-.454l-.304-.129c-.467-.203-.926-.417-1.38-.641l-.692-.353-.399-.205c-.295-.16-.587-.326-.875-.494l-.21-.118c-.358-.21-.711-.425-1.06-.647l-.32-.214-.687-.454c-.488-.336-.962-.689-1.429-1.046l-.322-.253c-4.983-3.929-8.929-9.301-10.806-15.392-1.967-6.317-1.542-13.408 1.864-19.163m14.313-.503c-3.02 4.444-3.316 9.962-1.221 14.871 2.209 5.209 6.737 9.297 12.021 11.234l.657.228.289.091c.311.098.62.212.942.272 14.603 2.822 18.564-7.494 19.619-9.012-3.47 4.996-9.301 6.195-16.455 4.458-.564-.137-1.186-.34-1.73-.533-.699-.249-1.387-.533-2.056-.855-1.271-.61-2.481-1.351-3.604-2.199-6.402-4.857-10.379-14.124-6.202-21.671"/></svg>