<svg viewBox="0 0 16 16" xmlns="http://www.w3.org/2000/svg" fill-rule="evenodd" clip-rule="evenodd" stroke-linejoin="round" stroke-miterlimit="1.414"><path fill="#f0f0f0" d="M0 0h16v16H0z"/><path d="M8.748 5.31c-.033.055-.068.096-.106.123-.04.028-.085.04-.14.04-.06 0-.134-.03-.218-.09-.084-.063-.188-.132-.314-.206-.126-.075-.277-.143-.453-.205-.177-.062-.39-.093-.642-.093-.237 0-.445.03-.625.095-.18.063-.33.15-.453.26-.122.108-.214.237-.276.384-.06.147-.092.306-.092.477 0 .218.054.4.16.543.108.144.25.267.427.37.177.1.377.19.6.264.225.074.454.152.69.232.234.08.463.17.687.27.224.1.424.227.6.38.177.153.32.34.426.562.108.222.162.495.162.82 0 .34-.06.663-.175.963-.117.3-.287.563-.51.785-.225.222-.5.396-.825.524-.326.126-.697.19-1.112.19-.51 0-.972-.092-1.387-.276-.414-.184-.77-.432-1.064-.745l.306-.504c.03-.04.065-.073.107-.1.04-.028.087-.042.138-.042.047 0 .1.02.16.058.06.038.13.086.206.145.076.058.164.12.262.19s.21.134.336.192c.125.057.268.105.43.143.16.04.34.058.54.058.25 0 .474-.034.67-.103.197-.07.364-.166.5-.292.137-.126.242-.276.314-.45.073-.175.11-.37.11-.585 0-.237-.054-.43-.16-.58-.11-.153-.25-.28-.425-.38-.173-.103-.374-.19-.6-.26-.225-.07-.454-.144-.687-.22-.233-.073-.463-.16-.688-.258-.226-.098-.426-.226-.6-.382-.176-.157-.317-.353-.424-.587-.107-.235-.16-.526-.16-.87 0-.278.053-.546.16-.804.108-.26.265-.49.47-.69.206-.2.46-.36.76-.48S6.474 4 6.863 4c.437 0 .835.07 1.193.208.36.138.675.338.948.6l-.257.503zM10.834 4.087h1.06v7.825h-1.06z" fill="#434343" fill-rule="nonzero"/></svg>