<svg xmlns="http://www.w3.org/2000/svg" width="128" height="128"><path fill="#fff" d="M49.905 76.533c-12.01 3.861-12.407 3.97-13.046 3.937-.996-.036-1.869-.624-2.389-1.613-.379-.715-.639-1.913-.798-3.349-.451-4.352.097-10.909 1.397-12.992.617-.964 1.501-1.465 2.497-1.425.65.007 1.231.217 14.135 5.539.007 0 3.771 1.534 3.771 1.534 1.364.512 2.191 1.927 2.104 3.529-.087 1.563-.982 2.786-2.313 3.125-.021.012-5.358 1.715-5.358 1.715zm12.093 3.208c-1.49-.574-3.096-.22-3.998.902 0 0-2.634 3.125-2.642 3.125-9.04 10.621-9.419 11.111-9.639 11.739-.134.368-.188.765-.144 1.158.054.563.31 1.119.733 1.638 2.097 2.49 12.151 6.189 15.362 5.64 1.115-.202 1.927-.83 2.27-1.768.209-.606.235-1.021.271-13.637 0 0 .029-5.576.032-5.63.086-1.366-.798-2.611-2.245-3.167zm31.479 2.469c-.509-.383-.895-.53-12.898-4.471 0 0-5.265-1.739-5.334-1.772-1.274-.494-2.728-.036-3.706 1.169-1.018 1.238-1.169 2.873-.357 4.107l2.118 3.45c7.124 11.57 7.669 12.389 8.181 12.789.794.624 1.804.725 2.854.303 3.031-1.209 9.643-9.621 10.108-12.858.164-1.126-.19-2.097-.966-2.717zm-19.336-13.259l-.069.115c.671-.253 1.873-.549 4.06-1.068 13.641-3.306 14.168-3.479 14.706-3.833.826-.556 1.241-1.487 1.169-2.62v-.115c-.35-3.349-6.218-12.06-9.109-13.475-1.025-.491-2.05-.458-2.901.112-.527.343-.913.862-8.217 10.852 0 0-3.298 4.493-3.338 4.536-.87 1.057-.884 2.573-.032 3.872.88 1.346 2.367 2.003 3.731 1.624zm-11.753-42.807c-.274-1.01-1.065-1.732-2.198-2.017-3.482-.862-16.792 2.865-19.256 5.41-.794.826-1.086 1.844-.848 2.746.39.798 16.878 26.741 16.878 26.741 2.436 3.952 4.424 3.338 5.078 3.132.646-.198 2.624-.812 2.4-5.42-.236-5.406-1.863-29.477-2.054-30.592z"/></svg>