<svg xmlns="http://www.w3.org/2000/svg" width="128" height="128"><path fill="#000000" d="M45.207 42.913l7.593 25.815 7.593-25.815h20.587v2.565l-7.75 13.353c2.723.874 4.783 2.462 6.178 4.766 1.396 2.305 2.095 5.009 2.095 8.116 0 3.841-1.022 7.071-3.064 9.688-2.042 2.618-4.687 3.926-7.933 3.926-2.444 0-4.574-.777-6.388-2.33-1.816-1.553-3.16-3.656-4.032-6.31l4.293-1.779c.629 1.606 1.458 2.872 2.488 3.796 1.03.925 2.243 1.387 3.639 1.387 1.466 0 2.706-.82 3.718-2.46 1.013-1.641 1.519-3.613 1.519-5.918 0-2.548-.541-4.521-1.623-5.917-1.258-1.64-3.231-2.461-5.918-2.461h-2.094v-2.513l7.331-12.673h-8.85l-.503.858-10.762 36.32h-.524l-7.855-26.286-7.854 26.286h-.524l-12.567-42.414h5.498l7.593 25.815 5.132-17.384-2.513-8.431h5.497zm57.605-.24l-3.107 6.191s-1.333-2.461-2.65-3.587c-1.255-1.072-2.88-2.063-4.935-1.85-1.987.205-4.228 1.953-5.735 4.866-1.713 3.313-2.295 6.671-2.307 10.373-.017 5.187 1.896 8.728 1.896 8.728s-.439-1.646-.366-4.432c.046-1.738.059-3.63 1.371-7.539 1.097-3.267 3.61-5.918 5.826-6.375 1.726-.356 2.829-.097 4.524 1.097 2.011 1.416 3.222 3.975 3.222 3.975l3.153-6.032-.892-5.415zm.388 30.638s-1.393 2.49-2.262 3.45c-.868.959-2.422 2.651-4.341 3.496-1.919.845-2.924 1.005-4.821.822-1.895-.182-3.655-1.279-4.272-1.736-.617-.457-2.194-1.805-3.085-3.061-.891-1.257-2.285-3.77-2.285-3.77s.777 2.518 1.262 3.587c.28.615 1.14 2.497 2.359 4.135 1.138 1.528 3.348 4.158 6.706 4.752 3.358.594 5.666-.914 6.237-1.279.571-.366 1.775-1.373 2.536-2.188.795-.85 1.548-1.936 1.964-2.587.304-.475.8-1.44.8-1.44l-.798-4.181z"/></svg>