<svg xmlns="http://www.w3.org/2000/svg" width="128" height="128"><path d="M41.566 82.231c.564.686 1.35 1.693 2.358 3.023 2.661 3.669 5.119 5.503 7.377 5.503.765 0 1.451-.242 2.056-.726s.907-.987.907-1.512c0-.605-.403-1.612-1.209-3.023-.807-1.411-1.915-3.003-3.326-4.777-1.613-2.056-2.954-3.557-4.021-4.505-1.069-.947-1.926-1.421-2.57-1.421-1.412 0-2.712.756-3.9 2.268-1.19 1.512-1.784 3.296-1.784 5.351 0 1.653.413 3.498 1.24 5.533.826 2.036 2.026 4.082 3.598 6.138 2.378 3.185 5.331 5.634 8.859 7.347 3.527 1.714 7.427 2.57 11.701 2.57 7.861 0 14.442-2.933 19.743-8.798 5.3-5.865 7.952-13.212 7.952-22.041 0-2.7-.202-4.847-.605-6.44-.403-1.592-1.069-2.751-1.995-3.477-1.653-1.37-4.868-2.6-9.645-3.689-4.777-1.088-9.766-1.633-14.966-1.633-1.451 0-2.479.242-3.084.726s-.907 1.31-.907 2.479c0 2.742 1.532 4.727 4.596 5.956 3.063 1.23 8.022 1.844 14.875 1.844h2.479c.564 0 1.018.212 1.361.635.342.423.574 1.058.695 1.905-.686.645-2.097 1.381-4.233 2.207-2.137.827-3.77 1.643-4.898 2.449-2.419 1.774-4.364 3.88-5.835 6.319-1.472 2.44-2.207 4.747-2.207 6.924 0 1.33.312 2.933.937 4.807.625 1.875.937 3.034.937 3.477v.423l-.121.544c-1.774-.121-3.175-1.158-4.203-3.114-1.028-1.955-1.542-4.565-1.542-7.831v-.544c-.323.283-.635.484-.937.605s-.635.181-.998.181-.706-.03-1.028-.091c-.323-.06-.686-.151-1.088-.272.121.444.212.877.272 1.3.06.423.091.756.091.998 0 1.492-.585 2.772-1.754 3.84-1.17 1.069-2.56 1.602-4.172 1.602-2.54 0-5.12-1.24-7.74-3.719-2.621-2.479-3.93-4.907-3.93-7.286 0-.443.05-.836.151-1.179.099-.341.271-.634.513-.876zm18.141 1.452c.685 0 1.31-.312 1.875-.937.564-.625.847-1.3.847-2.026 0-.765-.555-2.549-1.663-5.351-1.109-2.801-2.49-5.553-4.142-8.254-1.209-2.015-2.399-3.537-3.568-4.565-1.17-1.028-2.278-1.542-3.326-1.542-.847 0-1.784.535-2.812 1.602-1.028 1.069-1.542 2.066-1.542 2.993 0 .968.504 2.419 1.512 4.354 1.007 1.935 2.358 3.991 4.051 6.168 1.773 2.379 3.447 4.233 5.019 5.563 1.572 1.329 2.821 1.995 3.749 1.995zm5.926-29.207l-6.531-18.866c-1.693-4.797-3.004-7.931-3.93-9.403-.928-1.471-1.935-2.207-3.024-2.207-.847 0-1.533.323-2.056.967-.524.645-.786 1.512-.786 2.6 0 1.855.705 5.079 2.116 9.675 1.411 4.596 3.527 10.623 6.349 18.08.242-.443.584-.756 1.028-.937.443-.181 1.048-.272 1.814-.272.242 0 .726.021 1.451.06.727.041 1.915.143 3.569.303zm6.833 18.322c-1.734-.08-3.377-.262-4.928-.544-1.552-.282-3.034-.685-4.444-1.209.644 1.291 1.219 2.58 1.723 3.87.504 1.291.916 2.56 1.24 3.81.967-1.209 1.985-2.307 3.054-3.296 1.066-.988 2.185-1.865 3.355-2.631zm8.042-16.266c2.7-7.337 4.807-13.394 6.319-18.171 1.512-4.777 2.268-7.71 2.268-8.798 0-1.169-.252-2.076-.756-2.721-.505-.644-1.2-.968-2.086-.968-1.129 0-2.278.937-3.447 2.812-1.17 1.875-2.459 4.889-3.87 9.04l-6.047 17.475 7.619 1.331z"/></svg>