<svg xmlns="http://www.w3.org/2000/svg" width="128" height="128"><path fill="#fff" d="M90.288 64.915c-6.893 0-12.48-5.565-12.48-12.43 0-6.864 5.587-12.431 12.48-12.431 6.888 0 12.475 5.567 12.475 12.431 0 6.865-5.586 12.43-12.475 12.43m1.103 2.886l-.278-.023-.219-.015-.595-.013h-.021l-.6.013-.219.015-.277.023c-7.056.607-12.608 6.896-12.608 14.074v4.823c0 .687.558 1.248 1.248 1.248h24.931c.688 0 1.248-.561 1.248-1.248v-4.823c-.001-7.178-5.554-13.467-12.61-14.074m-30.009-.583c6.2 0 11.23-5.01 11.23-11.187 0-6.181-5.03-11.189-11.23-11.189-6.204 0-11.231 5.009-11.231 11.189 0 6.177 5.027 11.187 11.231 11.187m.992 2.596l-.247-.022-.198-.011-.536-.014h-.023l-.537.014-.197.011-.249.022c-6.349.547-11.349 6.206-11.349 12.665v4.345c0 .62.504 1.12 1.124 1.12h22.438c.618 0 1.123-.501 1.123-1.12v-4.345c0-6.459-4.997-12.118-11.349-12.665m-27.267-.524c5.582 0 10.107-4.506 10.107-10.065 0-5.564-4.525-10.07-10.107-10.07-5.583-.001-10.107 4.506-10.107 10.069 0 5.56 4.524 10.066 10.107 10.066m.895 2.337l-.225-.017-.178-.01-.482-.013h-.018l-.486.013-.178.01-.223.017c-5.715.492-10.212 5.587-10.212 11.399v3.911c0 .553.453 1.008 1.009 1.008h20.193c.56 0 1.011-.454 1.011-1.008v-3.911c.001-5.812-4.494-10.907-10.211-11.399"/></svg>