<svg xmlns="http://www.w3.org/2000/svg" width="128" height="128"><path fill="#fff" d="M77.698 64.998c2.45-1.418 4.835-1.482 7.284-1.482 1.226.064 2.449.13 3.739.064 1.29-.064 2.643-.258 4.061-.709 4.577-1.546 7.607-3.61 11.217-7.349 0 3.481-1.29 6.188-5.157 9.154-4.061 3.094-8.51 4.641-13.667 4.963-1.804.128-2.966-.064-4.061-.194-1.097-.13-2.257-.194-3.997 0-2.966.386-4.577 1.095-6.897 2.643 2.062-3.416 3.803-5.028 7.477-7.092m-32.231-18.691c2.773 1.481 4.9 2.449 6.897 3.481 1.998 1.032 3.868 2.127 6.189 3.739 2.45 1.806 4.319 4.771 3.482 8.703-.58 2.578-1.806 4.9-3.545 7.286.837-3.482.837-5.738-1.097-9.219-1.482-2.643-4.833-4.189-8.509-5.802-1.869-.772-3.868-1.676-5.737-2.643-1.869-1.031-3.674-2.191-5.221-3.739-2.836-2.708-4.319-5.221-5.028-9.089-.452-2.578.258-5.028 1.031-6.511 1.354 6.122 5.544 10.635 11.538 13.794m4.899 22.238c2.837.195 3.997 1.419 4.189 3.416.13.709.064 1.226-.193 1.934-.839-1.032-1.934-1.354-3.159-1.418-.644-.064-1.288-.064-1.998-.064-.644 0-1.353-.064-1.997-.194-3.481-.644-5.802-1.16-10.057-5.673-.837-.902-1.418-1.806-1.806-2.578-.128-.195-.257-.388-.321-.581 3.028 2.322 8.314 4.643 15.342 5.158m-5.608-10.443c1.548.581 3.094 1.16 4.512 1.741 1.355.581 2.708 1.16 3.803 1.741 2.321 1.288 3.805 2.707 4.061 4.77.195 1.095.129 4.125-1.289 6.059.128-.709.193-1.418 0-2.386-.452-2.513-2.192-3.931-4.254-4.833-1.032-.453-2.129-.774-3.224-1.096-1.095-.258-2.192-.516-3.159-.774-7.283-2.062-13.472-5.415-14.632-11.087-.388-1.934-.452-3.61-.452-4.708 0-.45 0-.772.063-1.03 2.323 6.381 8.64 9.282 14.571 11.603m38.099-1.804s-.258-.774-1.613-.581c-.515.064-1.031.064-1.547.064-1.097 0-2.192-.128-3.16-.323-1.16-.258-1.546-.322-2.708-.322-4.319 0-8.573 3.223-10.055 7.735-3.289 10.25-12.894 17.663-24.239 17.663-5.802 0-11.539-1.933-15.471-5.221-.063.518-.063.84-.063 1.227 0 1.354 0 2.643.58 4.19.837 2.127 2.707 4.061 5.415 4.061 5.093 0 8.187-2.322 13.537-3.224 1.548-.258 2.773-.451 5.158-.451h3.997c8.123 0 14.955-5.221 17.47-12.507 1.741-5.479 6.188-10.057 12.699-12.312m-35.391 26.045c-.645.322-1.224.579-1.998 1.095-1.095.708-2.385 1.999-3.61 3.352-1.289 1.29-2.578 2.708-3.545 3.61-1.032.966-2.385 1.548-3.868 1.548-1.289 0-2.449-.453-3.416-1.162-1.481-1.16-2.835-2.578-3.931-4.125 2.062 1.288 3.931 1.739 6.446 1.354 1.611-.194 3.094-1.032 4.512-1.934.774-.451 1.482-.902 2.192-1.354.709-.451 1.418-.904 2.127-1.224 1.868-.902 3.158-1.095 5.091-1.16m-5.673 10.701c.837-.709 1.481-1.611 1.997-2.514.58-.966 1.032-1.933 1.482-2.9.839-1.934 1.741-3.676 3.287-4.642.58-.323 1.29-.516 1.998-.579.579-.064 1.16-.064 1.741-.064-.195.128-.323.194-.453.322-.321.195-.644.453-.968.774-.837.902-1.353 2.45-1.739 4.061l-.516 2.322c-.192.772-.386 1.481-.644 2.062-1.032 2.256-3.094 3.61-5.479 3.61-2.129 0-3.932-.388-5.737-1.16 1.997.128 3.739-.064 5.028-1.29m31.204-19.857c2.192-.644 4.061-.323 5.865.064.966.258 1.934.451 2.9.579 1.032.13 2.129.195 3.287.064 3.546-.451 6.253-1.29 8.573-2.255 2.129-.903 3.998-1.999 5.996-3.159-1.677 2.449-4.256 5.349-8.51 7.671-3.223 1.739-6.575 2.899-11.796 2.513-1.162-.063-1.998-.258-2.773-.516s-1.418-.579-2.062-.902c-1.355-.581-2.836-1.16-5.544-1.03-.837 0-1.353.063-2.064.194 1.998-1.613 3.482-2.45 6.124-3.224"/></svg>